<svg xmlns="http://www.w3.org/2000/svg" viewBox="0 0 2011.25 1535.27"><g id="Layer_2" data-name="Layer 2"><g id="Afghanistan"><path d="M1472.19,767.38c2.59-.32,3.34.12,4.37-.66,1.81-1.36,1.84-4.4,1.86-6.37,0-3-.78-3.88,0-5.84a8.06,8.06,0,0,1,2-2.79c1.49-1.4,2.52-1.41,3.59-2.25,2.08-1.65,2.2-4.79,2.25-6.24.23-6.14-4.3-8.35-2.92-12.08.69-1.85,1.85-1.4,3.19-4.24,1-2.15.48-2.7,1.72-5.71.6-1.44.93-1.84,1.86-4.11,1.15-2.82,1.09-3.34.93-3.72-.54-1.25-2.13-.88-4.11-2.26-.56-.38-1.13-.9-3.06-4-3.17-5.08-2.53-5.15-3.71-6.24-2.41-2.21-4.06-1-6.64-3.45a13.51,13.51,0,0,1-2.92-4.64c-1.07-2.3-1.81-3.9-1.72-6.11A10.28,10.28,0,0,1,1471,681c.55-.73.6-.6,5.31-4.38a31.34,31.34,0,0,0,3.85-3.45c1.27-1.39,1.9-2.08,2.12-2.79.71-2.29-1.29-3.39-1.59-7.16a7.82,7.82,0,0,1,.66-4.52c1.07-1.91,2.57-1.74,5.84-3.58,5.51-3.09,6-6.22,10.09-6.9a5.55,5.55,0,0,0,2.25-.66c1.69-1,1.88-2.76,2.92-4.91,1.36-2.81,2.15-2.15,3.85-5,2-3.41.92-4.36,2.92-8,.23-.41,0-.06,4-5.18,2.2-2.86,2.85-3.74,4.25-4.51.94-.51.85-.23,4.11-1.19,2.07-.61,2.3-.79,6-2s3.17-1,3.72-1.2a13.35,13.35,0,0,0,6-4.91c2.11-3.4.74-5.65,3.06-7.43,1.24-1,2.27-.8,3.18-2.12a6,6,0,0,0,.8-3.59c0-3-1-3.84-1.07-6.37a9.72,9.72,0,0,1,1.07-4.64c1.49-2.71,3.64-2.34,8.09-5.31a25.5,25.5,0,0,0,6.77-6.63c1.58-2.3,2.91-4.24,2.26-5.84-.81-2-3.65-1-7.44-3.59-2-1.39-1.33-1.75-5.17-5.57-3.36-3.34-4.61-3.76-4.91-5.57s.67-3.52,1.72-5.31c.48-.81.63-.9,3.85-4.65a56.25,56.25,0,0,0,3.59-4.38c.63-.9,1.13-1.71,2.12-3.31a20,20,0,0,0,2-3.59,8.78,8.78,0,0,0-.27-4.91,15.71,15.71,0,0,0-2-4c-2.37-3.93-3.36-4.26-3.45-6-.07-1.39.57-1.24,1.06-4.12a9,9,0,0,0,0-4.77,6.68,6.68,0,0,0-2.25-3.19c-2.17-1.63-3.61-.4-6.11-1.86a10,10,0,0,1-3.58-4.24c-1.12-2-1.92-3.43-1.46-4.91.16-.53,1.13-1.55,3-3.59a7.69,7.69,0,0,0,1.73-2.12,6.66,6.66,0,0,0,.4-3.32,23,23,0,0,0-1.33-6.1c-.59-1.94-.77-2.19-1.06-2.39-1.43-1-3.19,1-4.65.13s-1.82-4.18-1.32-6.37a8.47,8.47,0,0,0,.39-3.18,4.67,4.67,0,0,0-.53-2c-.84-1.48-2.06-1.12-3.58-2.66a6,6,0,0,1-1.73-3c-.29-1.57.42-2.12-.13-3.19-.46-.9-1.15-.85-2.12-2s-.5-1.55-1.2-2.12c-1-.8-1.94-.14-3.18-.8a4.3,4.3,0,0,1-1.86-2.52c-.78-2.29.64-3.34.13-6.1a4.8,4.8,0,0,0-1.46-3.19c-2-1.52-4.35,1.11-7.43,0-2.29-.82-1.63-2.5-5-4.77-2.11-1.41-2.61-.93-5-2.66a19.91,19.91,0,0,1-3.72-3.45,10.52,10.52,0,0,1-2.12-3.32,8.65,8.65,0,0,1-.53-3.18c0-.94.16-4,3.18-7.7,2.36-2.9,3.64-2.76,7.83-6,6-4.64,5.63-6.66,11.28-10.35a40.42,40.42,0,0,0,4.51-3.19c2-1.65,2.67-2.56,4.65-4.38a62.24,62.24,0,0,1,5.31-4.24c5.28-4.1,10.23-7.94,11.94-13.67,1-3.47-.08-4.4,1.46-6.77,2.23-3.44,5.4-2.74,7.56-5.71,3-4.11-.35-9.15,1.46-10.48,3.69-2.69,19.59,16.53,24.29,13.67,3.93-2.39-2.37-18.77,2-20.84,1-.48,1.48.35,6.5.53,3.06.12,4.62.16,6.11-.53s1.51-1.38,4.51-3.31c.66-.43.5-.29,3.19-1.86,1.84-1.08,3.08-1.83,4.24-2.52,2.56-1.54,3.84-2.32,4.25-2.66,2-1.73,1.88-2.55,3.45-3.32,2-.94,2.7.08,4-.79,1-.65,1.09-1.61,2.39-7.3.69-3,.75-3.22,1.06-3.45,1.94-1.47,5.21,2.08,10.09,1.06a4.67,4.67,0,0,0,3-1.46c1.24-1.67-.12-3.68.4-7.43a11.76,11.76,0,0,1,1.19-4c.76-1.35,2.46-3.31,12.21-5.44a66.06,66.06,0,0,1,12.34-1.86c4.78-.21,6.28.3,11.15-.27,3.59-.41,5.53-.64,7.83-1.59,5.59-2.31,5.91-5.86,10.35-8.63,1.84-1.14,3-1.27,15.53-1.85,7.13-.33,13.34-.59,20.57-1.07a84.51,84.51,0,0,0,12.87-1.46c4.81-1,6.2-1.8,9.82-2.65,5.53-1.3,6.81-.47,17.25-.8,15.51-.47,17.67-2.45,25.48-.66a29.83,29.83,0,0,0,6.91,1.19c5.88.17,8-1.94,13.27-2.65,6.24-.84,6,1.77,13.67,1.73,7.83,0,15.42-2.82,17.51-3.59,4.4-1.6,6.39-2.93,9.56-2.25,2.83.6,4.1,2.26,7.16,2,2.14-.19,2.35-1.06,5.05-1.6a13.3,13.3,0,0,1,6.77.27c3.86,1.3,6.23,4.6,7.69,6.64,1.34,1.86,1.27,2.35,2.39,3.31s2.67,1.79,6.9,2.26c3.56.39,4.32,0,9.56,0,6.39,0,7.15.6,8.36-.4,2-1.68.85-4.16,3.71-8.23a9.44,9.44,0,0,1,2.66-2.78c1.89-1.22,3.66-1.17,7.3-1.2,5.77,0,8.68-.08,10-.66a15.69,15.69,0,0,0,5.57-4.91c1.73-2.22,1.25-2.56,2.66-4.25,2.93-3.51,7.09-4.51,8.76-4.91,2.77-.66,4.86-1.17,6.9-.13,2.66,1.36,3.2,4.33,4.51,4.11.33-.05.72-.31,1.86-3.45a71.56,71.56,0,0,0,2.12-7.43c.62-2.35.74-2.77.53-3.45s-.61-1.47-3.71-3.32c-3.35-2-3.8-1.48-4.65-2.52s-.57-2-.93-7.3c-.19-2.91-.31-2.66-.53-6.1a32.28,32.28,0,0,1,0-6.77c.27-1.95.47-3.28,1.46-4.51a7.07,7.07,0,0,1,3.85-2.26c7.43-2.05,14.09,2.24,16.46-.53.64-.76.66-1.68,1.46-1.86,1.46-.32,2.53,2.59,4.11,2.39,1.22-.15,1.06-1.92,3.19-3.72a8.49,8.49,0,0,1,4.11-1.85,7.28,7.28,0,0,1,3.72.26c1.79.68,2.21,1.83,4.37,3.85a25.85,25.85,0,0,0,3.85,2.92c1.26.73,4.62,2.23,11.15,0l-1.59-8.76s-4.38-13.53-12.34-15.53-33-2-33-2-6.37-7.16-13.93-8-22.3,2-27.47,3.58-2.79,8.76-2.79,8.76l-6.37,4.71H1897l-6.37,6.44-11.95-.4v3.19l-7.16-.8v4.38l-4.38-.4v4.78s-9.56,2.39-14.73,0-14.33-3.58-18.71-8.76,11.54-8.76,20.3-9.55c0,0,5.18-12.74-1.59-23.49h-19.46s-21.15-3.59-42.65,0L1778,186.78h-10l-9.15,16.32-10,1.59-8,4.38L1723,219.29s-17.12,20.44-19.11,32.78c0,0-31.06,7.57-46.19,8.36s-68.87,52.16-68.87,52.16h-29.46s-24.69-27.87-32.65-66.09c0,0,13.14-66.49,12.74-92.77l5.17-33.84s14.34-8.76-1.19-29.06l-26.28,9.55s-14.33-3.18-13.93-9.55,16.32-38.62,16.72-37.42-2-19.11-2-19.11-23.09-17.52-41.41-27.08c0,0-12.34-12.74-40.6-4.38s-31.85,38.22-37,54.94l-22.3,19.51-2.78,5.18-8.76.4V93.22l-11.95,2v12.34s23.89,6,14.74,25.88c0,0-2,19.51-14.74,25.88,0,0-6.76,10.75-32.64,0,0,0-7.17-19.17-17.12-3h-42.6s-10.75,17-17.52,22.13,2,34.63,5.18,39.81-17.12,19.51-23.49,22.69-48.18-42.2-48.18-42.2v9.56l-13.53-2v8s-13.14-9.16-22.3-2l-19.51,18.31-13.53.4v8l-21.1,2v13.94l-15.53,1.19-17.92,15.13-24.68-25.08-9.73-2-3.58-18.31L1004,218.63l-18.32-1.2-9.15-10S969.35,223,961.39,223a101.09,101.09,0,0,0-16.33,1.59l-11.94-11.15-5.18-.79-4.38-6-4.38-8.36-5.57-4.77-9.16-2.39-9.15,1.19-3.19,1.2-29.06,1.19v6.37h-6.77l-3.58-5.57-7.17-.4v4l-23.49-.4s-34.24-1.19-39.81-15.13L779,178H768.29l-8.36-2.39-3.58-2-12.74-1.19s-18.31-23.49-25.08,4v20.7L703.8,213.45v4H632.93s-24.29,6.77-40.61,23.1l3.19,19.5,4.38-.39-1.6,17.51-25.48,41.41L576,355.19s-21.07,39.6-35.45,39.67a7.32,7.32,0,0,1-2-.26l-7.56.26L528.22,405H508.71a17.4,17.4,0,0,0-13.13,8.36c4.05,16.61,3.35,20.54,2,21.1-2.35,1-6.65-8.08-14.14-8-2.54,0-2.84,1.11-7,2.79-11.83,4.82-18.41-.23-26.28,5.37-2.23,1.59-2.74,2.73-5.18,3.59-4.07,1.42-6-.59-10.94.59a15,15,0,0,0-6.77,3.39c-3,2.71-2.17,4.59-4.78,6.37s-3.65.27-8.36,1.79-4.19,3.06-7.37,3.38c-3.59.36-5.67-1.5-8.16,0-1,.63-1,1.16-2,2-2.65,2.27-6.68,1.69-8.76,1.4-17.22-2.44-20.32-2.6-23.09-.8a9.84,9.84,0,0,0-4,5.58c-1.2,5.34,3.59,11.31,7.56,14.33,3.42,2.6,5.81,2.69,8.76,6.37,1,1.26,3,3.77,2.19,5.77-.22.55-.69,1.18-4,2.59a34.34,34.34,0,0,1-7,2.39c-5.41,1.2-6.47.27-7.76,1.59-1.79,1.83-1.25,5.18-.8,8a29,29,0,0,0,2.39,7.17c1.11,2.42,1.35,2.25,1.6,3.38.71,3.3-.95,6.51-1.6,7.77-1.18,2.3-1.89,2.32-2.19,4-.22,1.22.08,1.65.2,4.58.1,2.22.14,3.34-.2,3.78-1.16,1.52-4.23,0-8.36.2-2.57.1-4.5.93-8.36,2.59a60.44,60.44,0,0,0-17.52,11.74c-2.08,2-2.65,2.83-5,4.78-3.15,2.62-3.61,2.35-8.76,6a65.32,65.32,0,0,1-9.56,6,9,9,0,0,1-3.58,1c-2.13.1-3.27-.69-5-1.2-4.53-1.35-5.92,1.42-9.15.2-3.83-1.44-3.18-5.81-6.77-6.77-2.82-.75-5.71,1.3-7,2.19-2.41,1.72-2.36,2.91-4.78,5.78-3.49,4.13-5,3.24-10.15,8.16-3.76,3.57-4.52,5.5-5.77,5.17-2.6-.67-2.59-9.82-2.59-11,0-4.8,1-5.77,0-8.56a12.31,12.31,0,0,0-5.17-6.37c-1.94-1.09-2.7-.64-5.78-2.19-1.86-.93-1.88-1.24-4.18-2.58-4-2.34-4.83-1.92-6.77-3.39-.77-.58-1.14-1-4.37-6.37-3.76-6.19-4.41-7.5-6.37-8.56a36.79,36.79,0,0,0-4.38-1.39,43.36,43.36,0,0,0-6.37-1.59,19.55,19.55,0,0,0-8.17.59c-1.84.57-2.06,1-5.17,2-1.43.46-2,.58-4.18,1.19-3.51,1-4.64,1.42-6,1.79a30.7,30.7,0,0,1-10.55.8c-6.19-.39-5.63-1.89-10.95-2.19-6.6-.38-9.39,1.81-12.54-.4-1.59-1.11-.95-1.71-3-4.18-3.32-4-6-3.65-11.74-8.16-1.75-1.38-.84-.89-4.38-4-6.31-5.5-8-6-8.76-8.56-1-3.25.88-5.21-.6-6.57-1-.9-3-.6-7.17,0-3.57.51-4,1-4.18,1.19-1.17,1.5.59,3.27.6,7.37a13.94,13.94,0,0,1-1.79,7.16c-1.81,3-3.58,2.69-4.58,5.38s.49,3.36-.6,5.77c-.9,2-2,1.73-4.18,4.78a42.35,42.35,0,0,0-2.19,3.78,22,22,0,0,0-2.19,4.58c-.11.59-.13,1,.4,5.37.2,1.66.33,3.33.6,5,.49,3,.93,4.22.2,5-.41.42-.82.32-2.19.59A26.59,26.59,0,0,0,86.9,557c-2.78,1.06-4.17,1.59-4.78,2.19-1.44,1.42-1.49,3.4-1.59,7.36-.08,3.13-.15,5.63,1,8.56.66,1.68.86,1.33,3.39,5.78,2.77,4.86,2.81,5.79,2.78,6.37-.07,1.51-.71,1.55-2.78,6a41.42,41.42,0,0,0-2,4.78c-1.23,3.63-.58,3.68-1.6,5.77s-2.11,2.85-2.19,4.78a12.66,12.66,0,0,0,.4,2.38c.27,2.91-2.74,4.34-4.58,7.37-2,3.36-1.65,7.09-1.19,11.74.57,5.78,2.29,6.72,1.19,9.16-1.47,3.29-5.24,3.06-6.17,6.57-.52,2,.55,2.43,0,5-.6,2.8-2,2.61-3,5.57a23,23,0,0,0-.8,7.76c.06,1.51.22,2.4-.4,3.19-.47.6-1.22.92-4.18,1.19-4.26.4-5.71,0-6.37,1-.39.59.06.84-.2,3a10.41,10.41,0,0,1-.79,3.19,13.59,13.59,0,0,1-1.79,2.59c-2.26,3-2.28,3.22-2.79,3.38-1.63.53-2.35-1.57-4.58-1.59-2.55,0-2.86,2.69-6.37,3.38-2,.39-2.86-.26-3.78.6a3.89,3.89,0,0,0-.6,4c.32.86.68.88,2.39,2.79a21.2,21.2,0,0,1,2.39,3c.94,1.5.67,1.67,1.79,3.59.76,1.3,1,1.35,1.79,2.78A21,21,0,0,1,42.9,703c1,2.43.49,3,1.2,4.78s1.34,1.45,3,3.78c2.1,3,1.18,3.59,3,5.77,1.67,2,3.08,2.26,3.58,4.18.13.5.48,1.81-.2,2.59-.84,1-2.46.14-6.17.2-2.48,0-2.27.44-4.38.4-3.11-.06-3.31-.91-6.17-1-3.08-.09-3.15.9-6,.6-2.39-.25-2.76-1-4.78-.79a5.92,5.92,0,0,0-4,1.79c-.7.84-.4,1.18-1.19,2.19s-1.49,1.19-3,2.19S16.2,731,15,731.82c-3.43,2.31-5.72,1-6.77,2.78-.92,1.52.68,2.68-.4,4.78-.28.54-.37.43-2.59,3a13.08,13.08,0,0,0-1.59,2,8.78,8.78,0,0,0-.6,4,10,10,0,0,0-3,5.17c-.22,1.06-.08,2.56.19,5.58.23,2.43.34,3.64.6,5.37.36,2.37.61,3.13.4,4.58-.18,1.24-.47,1.52-.6,2.79a11.15,11.15,0,0,0,.4,3.78,49.92,49.92,0,0,0,1.84,6.12c.21,1.19.53,2.69,1,4.23.6,2.19,1.08,3.29.79,5a6.88,6.88,0,0,1-.64,2c-.25.49-.32.45-.35.63-.21,1.07,2.15,1.67,3.18,3.58.55,1,.06,1.13.4,4,.39,3.27,1.08,3.53.8,5.18s-.93,1.48-1.79,3.78-.25,2.31-1,4.78c-.89,2.94-1.94,3.53-1.79,5.57.09,1.2.46,1.1.6,2.39.28,2.64-1.23,3.35-1.2,5.57s1.52,2.07,2.39,5.38c.69,2.6-.12,3.06.8,5a12,12,0,0,0,3,3.59,19.94,19.94,0,0,0,2.59,2A43.51,43.51,0,0,0,19,848.07c3.69,1.58,5.54,2.37,6.37,2.59,3.67,1,6.64.67,10.75.2,7.27-.84,9.36-2.56,12.74-1a15.31,15.31,0,0,1,4,3C54,854,56.64,856.43,56,857.62c-.33.67-1.31.28-4.38,1.2a7.19,7.19,0,0,0-3,1.39,6.08,6.08,0,0,0-1.6,2.59c-.78,2.35.17,3.24,0,6.57a13.23,13.23,0,0,1-1,4.78c-.06,0,.39-1.6,0-1.79-.74-.37-4,4.37-4,4.37a33.17,33.17,0,0,1-2.79,3.19c-1.32,1.33-1.58,1.35-3,2.79-1.62,1.64-1.52,1.86-2.79,3-.95.84-1.25.94-2.39,2-.38.36-.47.46-1.79,1.79s-1.95,2-2.19,2.19c-1.45,1.34-1.82,1.35-3,2.39a26.54,26.54,0,0,0-2.59,3c-2.15,2.48-2.68,2.09-4.77,4.38a25.69,25.69,0,0,0-3.39,4.78c-.49.85-1.06,2.09-2.19,4.57-1.6,3.52-1.76,4.18-1.79,5-.06,1.44.36,1.54.4,3.58,0,1.87-.31,2.08-.4,4a18.71,18.71,0,0,0,.6,5.37c.3,1.28.41,1.26,1.39,4.18.61,1.79.52,1.67,2,6.37.91,2.89,1.36,4.33,1.6,5,1.33,3.66,1.7,3.6,2,5.37s0,2.57.59,4.58a19,19,0,0,0,1,2.59c1.59,3.87.5,5.23,1.79,8.76,1.1,3,2,2.35,2.59,4.77.73,3.1-.78,4.05,0,7.37.46,2,1,1.6,2,4.78.67,2.11.66,3,1.39,4.78.82,2,1.57,1.94,2,3.58a32,32,0,0,1,.4,3.58,7.61,7.61,0,0,0-.2,4.38,16.47,16.47,0,0,0,1.2,2.59c1.29,2.66,1.22,2.71,1.79,3.78,1.28,2.4,1.75,2.36,2.59,4,1,1.88.47,2.21,1.39,5.78.79,3.09,1.19,3,2.39,7.16.33,1.17.21.86,1.19,4.58,1.1,4.17,1.11,4,1.2,4.58.42,2.84-.25,3.15.2,6.57a9.93,9.93,0,0,0,1.19,4.18c.65,1,1.06,1.07,1.59,2.19a6.6,6.6,0,0,1,.6,3.58c-.13,1.08-.44,1.1-.6,2s-.09,2,2.19,6.17c1.47,2.72,1.61,2.56,1.79,3.39.46,2-.41,2.73-.2,5.17s1.07,2.22,1.2,4.18c.2,3-1.81,3.6-1.79,6.57s2,3.35,1.59,5.58c-.48,2.63-3.36,2.65-4,5.57-.39,1.82.67,2.09.4,4.78a15,15,0,0,1-1.4,4.58,23.7,23.7,0,0,0-1.79,4.18,18.4,18.4,0,0,0-.4,2.19,37.64,37.64,0,0,0-.39,4.77,29.74,29.74,0,0,0,.59,5.58,52.29,52.29,0,0,1,.2,9.35c-.17,6.64-.75,6.21-.79,11-.06,6.24.95,6.19.79,12.54-.11,4.42-.61,5-.4,9,.25,4.48,1,4.72.6,7.56a8.8,8.8,0,0,0,.2,4.78,12.8,12.8,0,0,0,1.39,2.19c1.27,2.2.37,3.81.4,8.16a19.94,19.94,0,0,0,.8,6.57c.86,2.65,1.68,2.77,2.59,5.58,1.15,3.58.13,4.38,1.19,5.77,2.14,2.8,8.18,2,11.15,1.59,4.22-.56,5.92-1.74,8.16-.6,1.88,1,1.48,2.21,3.38,3.39,2.42,1.49,4.31.24,9.56.2a77.07,77.07,0,0,1,9,1c5.38.74,5.22.95,8.95,1.4,1.88.22,2.28.21,11,.79,4.89.33,7.36.5,8.36.6,4.23.44,4.93.78,11.35,1.79,7.51,1.19,11.26,1.78,13.54,1.79,4.15,0,6.33-.48,9.75.8,2,.75,1.92,1.18,5,2.39,3.51,1.39,4.76,1.28,7,2.79a16.68,16.68,0,0,1,3.19,3c2.64,2.91,2.19,3.65,4.38,5.77,1.82,1.78,2.89,2,3.18,3.39.26,1.19-.38,1.73-.79,3.38-.65,2.62.08,4.91.79,7.17,1,3.08,1.75,2.85,2.59,6a26.08,26.08,0,0,1,.8,5c.18,2.83-.26,3.21.2,4.77.6,2,1.5,1.95,2.39,4.18.54,1.38.4,1.91.79,5.38.44,3.86.63,3.34.8,5.57.24,3.27-.26,3.13-.2,7.77,0,3.17.28,3.88-.4,4.77-1.16,1.52-3,1-4,2.59-.38.66-.18.94-.2,3.39,0,3.72-.52,4-.2,5.77.42,2.37,1.28,2.19,1.4,4,.13,2.18-1.05,4-2.39,6-1.47,2.2-1.89,1.93-3,3.78-1.55,2.62-.84,3.36-2.19,5.58-.68,1.12-.94,1.06-4.78,4.58-1.78,1.63-2.81,2.64-4.38,4.18-3.59,3.52-4,4.22-4.38,5-1,2.25-.21,2.89-1.19,4.78-1.1,2.13-2.57,2.2-5.37,4.38-2.28,1.77-3.58,3.5-6.18,7-2.86,3.82-2.2,3.91-4.37,6.57s-2.58,2.18-7.37,7c-2.41,2.42-4.2,4.43-5.57,6a48.93,48.93,0,0,0-3.19,3.78c-2,2.74-1.82,3.4-3.78,6.57A40.67,40.67,0,0,1,115,1377c-1.91,1.89-2,1.56-3.79,3.39-2.51,2.59-2.72,3.68-5,6.37-2.74,3.26-3,2.32-5.78,5.57a34.43,34.43,0,0,0-5.17,7.57,24.46,24.46,0,0,1-2.39,4.18,29.32,29.32,0,0,1-2.19,2.58c-2.15,2.42-2.31,3-4.58,5.78-1.45,1.78-2.56,3-4.78,5.37-3.7,4-3.84,3.82-5.17,5.57-1.8,2.39-1.52,2.7-3.78,5.78a50.47,50.47,0,0,1-3.79,4.58c-1.49,1.59-2.79,2.76-4.38,4.18-2.59,2.32-2.64,2.14-3.58,3.18a34.73,34.73,0,0,0-3.38,5c-2.47,4-2.09,3.73-2.79,4.58-2.45,2.95-4.24,2.76-4.78,4.77a4.93,4.93,0,0,0,1.6,4.78c1.26,1,2.34.57,5.57,1a47.77,47.77,0,0,1,7.36,2c2.08.65,2.48.84,6.37,2.19,7.64,2.65,6.86,2.18,8.76,3,4.47,1.9,5,2.89,8.76,4,2.18.64,2.45.43,5.18,1a64.3,64.3,0,0,1,13.93,5c4.12,1.85,5.27,2.69,8.16,3.18,2.27.39,2.78.09,5.18.6,3.27.7,3.87,1.59,7.37,2.79,3.32,1.13,3.27.49,8.16,1.79a69.6,69.6,0,0,1,7.76,2.59c1.2.48,3.41,1.52,7.76,3.58,5,2.37,5.42,2.61,7,3.18,2.83,1,3,.82,6,2a35.07,35.07,0,0,0,5.18,2c2.19.55,2.28.19,4.18.8,1.06.35,1.4.58,4.38,1.79l2,.8c5.26,2.1,6.32,3.26,9.16,4,3.4.87,3.2-.46,6.76.4,3.28.79,3.35,1.9,7.57,3.38,3,1.06,3.05.53,6.77,1.79,1.94.66,2.31.94,6,2.39s3.84,1.4,5.77,2.19c6.65,2.75,5.86,4,9.76,5,3,.74,4.37.17,8.75,1.39,1.37.39,3,.94,3.19,1a45.8,45.8,0,0,1,5.18,2c3.14,1.48,2.56,1.92,4.77,2.79s2.38.25,6.37,1.39c1.3.37,2,.64,3.59,1a34.18,34.18,0,0,0,3.38.6c4.06.55,7.33.9,9.75,1.2,5.83.7,5.27.87,6.37.79,4-.28,4.25-2,8.56-3,4.1-.94,4.25.52,11.15-.2,3.17-.34,3.76-.71,6.77-.8a57.07,57.07,0,0,1,6.37,0c2.4.21,4,.58,5-.4.7-.71.31-1.35,1-2,1.09-1,2.91-.14,5.38,0,2.05.12,2.34-.39,5.77-1a35.52,35.52,0,0,1,10-.6c4.22.43,6.23,1.68,7.77.4.85-.72.23-2.13,1.19-2.79.75-.51,1.71-.21,2.59,0,.35.08,2.62.19,7.16.4,1.25.06.32,0,6.18,0a47.88,47.88,0,0,0,6.76-.2c1.66-.21,1.6-.33,2.79-.4,2.85-.17,4.27.44,5-.4.53-.63,0-1.29.4-2,.83-1.41,4.26-.75,6.56-.4a87,87,0,0,0,13.54.8,54.15,54.15,0,0,0,8.7-1H412a19.54,19.54,0,0,0,5.18-2.19c1.43-.63,2.47-.1,5.57.59a64.41,64.41,0,0,0,12.74,1.4c3.27,0,4-.41,7.56-.2a33.42,33.42,0,0,1,5.78.79c1.53.37,1.65.53,5.37,1.8,2.93,1,4.64,1.57,7,2.18.3.08.19,0,5.17,1.2a33.41,33.41,0,0,0,4.78,1c3,.2,3.15-.84,6-.79a18.71,18.71,0,0,1,7.37,2c4.54-.09,6.56,1.17,7.56,2.39.73.88,1,1.87,2.39,2.78a7.68,7.68,0,0,0,3.78,1.2,14.9,14.9,0,0,0,3.79-.4c4.47-.67,4.95-.39,5.37-1,.29-.41.22-.76-.6-6.18a4.46,4.46,0,0,1,0-2c.29-1,.93-1.52,2.19-2.78,2.35-2.36,1.87-2.49,2.79-3,1.63-.89,2.53-.17,4.18-1.19,1.08-.67.89-1.09,1.79-1.79,2.5-1.94,5.18.34,9-1.4,1.49-.68,1.11-1,2.79-1.79s2.59-.54,6-1.39l2.79-.8c4.31-1.24,3.92-1.17,4.77-1.39a49,49,0,0,1,7.17-1.4,8.68,8.68,0,0,0,3.58-.79,25.13,25.13,0,0,0,2.59-2,18.74,18.74,0,0,1,3-1.8c1.93-.86,3.47-.62,5.57-.59,4.54.06,4.21-.95,10.35-1.2a22.69,22.69,0,0,1,6.37.4c1.93.46,1.84.77,4.38,1.59,2,.64,1.95.43,8.76,1.8a18.19,18.19,0,0,0,4.18.59c2.1,0,2.71-.54,4.38-.59,2-.06,3.13.64,5.57,1.59a45.08,45.08,0,0,0,8,2.19c4.08.64,7.18-3.09,10.55-1.59.78.34.74.55,1.79,1,1.38.58,2.65.74,6.17.8,2.3,0,3.45,0,4,0,2.72-.28,4-1.09,6.17-1.79,3.85-1.28,4.28-.23,9-1.2a35.35,35.35,0,0,0,8.76-3.18c3.87-1.92,4.19-2.83,8.56-4.78,2.69-1.2,4-1.8,5.77-2,2.56-.28,3.72.36,5.77-.6a30.46,30.46,0,0,1,3-1.59,14.06,14.06,0,0,1,3-.8c4.17-.69,5.22-.24,8.16-.79a26.27,26.27,0,0,0,6-2c2.39-1,2.49-1.43,4.78-2.38a24.92,24.92,0,0,1,6-1.8c3.3-.52,3.94.17,7-.39a25.71,25.71,0,0,0,5.17-1.8c6.21-2.56,5.66-3.28,9-4.18,3.52-1,4.94-.35,7.17-2a16.53,16.53,0,0,1,2.78-2,12,12,0,0,1,4.18-1.19c5-.63,5.29-2.78,8.76-2.79,2,0,1.82.54,3.59.4,2.35-.19,3-1.18,6.56-2.59a30.34,30.34,0,0,1,5.18-1.59c2.82-.59,3.5-.27,6-1a25.59,25.59,0,0,0,4-1.59c2-.9,2.12-1.15,4.58-2.39,1.22-.61,2.92-1.47,5.18-2.39,2.43-1,4.58-1.79,4.58-1.79a15.11,15.11,0,0,0,2.38-1c1.31-.73,1.38-1.12,3-2.19s1.75-.82,2.59-1.59a16.22,16.22,0,0,0,2-2.59c.69-1,.72-1.14,1.19-1.79a24.58,24.58,0,0,1,2.19-2.59,50.24,50.24,0,0,0,4-4.58s.28-.41,1.6-2.59a33,33,0,0,0-4.38-3.38c-1-.67-2-1.2-3.78-2.19-3.2-1.77-3.69-1.9-4.58-2.79a22.32,22.32,0,0,1-2.19-3.18c-1.41-2.23-2.12-3.36-2.19-4-.23-2,1.2-3.69,2.78-5.57,2.41-2.85,3.59-2.59,4.38-4.58.67-1.67-.1-2,.4-5.37.33-2.23.67-2,1.2-4.78.66-3.44.18-4,1-6,.69-1.72,1.15-1.6,1.79-3.39s.27-2.06.8-4.57a34.45,34.45,0,0,1,1.79-5.58c.38-1,.72-1.79,1.39-3.38,1.28-3,1.54-3.41,1.8-4.58a9.24,9.24,0,0,0,.2-3.78c-.39-2.07-1.32-2.1-1.8-4.18-.07-.33,0-1.68,0-4.38,0-.9.05-2.26,0-4-.06-2.48-.19-2.85-.39-3.19-.72-1.18-1.83-1.09-3.19-2s-2-2.28-3-4.58a21.56,21.56,0,0,1-1.59-8c-.13-3.13-.2-4.69.6-6.37.9-1.89,2-2.24,2.59-4.38a15.46,15.46,0,0,0,.2-4c0-4.78-.35-5.31.19-6.57.84-1.93,1.94-1.5,2.79-3.38,1.2-2.65-.76-4,.2-6.57,1.09-3,4.32-3.32,4.18-5.38-.07-1-.92-.95-1.79-2.79a8.37,8.37,0,0,1-.4-5.77,11.29,11.29,0,0,1,1.4-2.39,21.15,21.15,0,0,0,3.38-8.36c.25-2.14-.19-3,.6-3.78s1.75-.29,4-1c2.53-.79,2.7-2,4.78-2.18,1.53-.15,1.54.51,3,.39,2.35-.18,2.69-2,5.57-3,.45-.16.35-.09,4.19-.6,4.7-.63,5.13-.78,5.57-1,1-.5,1-.82,4-4,2.59-2.78,2.64-2.59,4.58-4.77s1.64-2.07,3.38-4c1.94-2.12,2.35-2.32,3-3.38.84-1.4.67-2,1.39-5,1.13-4.66,1.9-4.71,2.59-8.56.45-2.49.2-2.85.8-3.78.91-1.41,2.31-1.87,6.17-3,6.92-2,7.37-2,8.36-2.79,2.39-2,1.2-3.29,3.78-6,1.75-1.82,4-2.74,8.56-4.58a54.72,54.72,0,0,1,5.18-1.79,31.92,31.92,0,0,1,5-1.2c2.79-.38,5.14-.7,7.37.6.74.43,2.53,1.48,2.78,3.18.49,3.18-4.82,5.33-4.18,7.37.56,1.75,4.94,1.79,5.58,1.79,4.2,0,5.52-2,9.55-2.39,2.26-.21,3.9.26,7.17,1.2,8.43,2.42,8,5.2,12.54,5.37s6.13-2.71,12.94-2.78a16.94,16.94,0,0,0,3.38-.2c3.24-.61,4.06-2,7.17-2.39,1.54-.19,1.24.16,3.38,0a19.21,19.21,0,0,0,6-1.4,25.89,25.89,0,0,0,4-2.38c3.5-2.34,3.22-2.63,4.77-3.39,2.45-1.19,2.93-.38,6.77-1.59,2.62-.82,2.44-1.21,5.38-2.19,3.45-1.15,3.66-.61,6.37-1.59,1.73-.63,3.41-1.68,6.77-3.79,3.68-2.3,4.09-2.87,4.38-3.38,1.54-2.78.33-6,.19-6.37-.44-1.13-.69-1.79-1.39-2.19-1.56-.9-3.21.77-7.36,1.59a21.62,21.62,0,0,1-4.18.4,25.71,25.71,0,0,1-7.37-1,12.19,12.19,0,0,1-4.38-1.8c-1.3-1-2.08-2.38-3.58-5.17-1.73-3.2-2.59-4.84-2.59-6.77a6.72,6.72,0,0,1,1.19-4.18,6.43,6.43,0,0,1,3.19-2.19c2-.67,3.13-.16,7.17.4,3.66.51,5.5.76,7.36.4a12.32,12.32,0,0,0,5.57-2.59,25.3,25.3,0,0,0,2.59-3c3.26-3.93,3.32-4.11,4-4.58,1.87-1.3,2.47-.66,4.78-2.19,1-.66.73-.67,3.19-2.78,3.09-2.66,4.11-3.12,5-3.39a9.84,9.84,0,0,1,2.79-.39c2.39,0,2.84.74,4.38.39s1.36-1.16,3.18-1.59c1.28-.3,1.68,0,3-.4a8.62,8.62,0,0,0,2.19-1.19,33.94,33.94,0,0,0,3.18-2.59c2.1-1.7,2.45-1.28,4-2.59,1.21-1,1-1.32,3.18-4.18a48.43,48.43,0,0,1,4.18-5c2-2,2.46-2.06,3.19-3.39a25.75,25.75,0,0,0,1.39-4c.84-2.72.73-2.74,1-3.18,1.15-1.92,3.64-2.37,6-2.79s4.52-.16,8.76.4c2.95.38,3.54.66,4,1.19,1.54,1.85.59,6,.59,6,4.59,3.2,7.52,3.32,9.36,2.79a21.22,21.22,0,0,1,2.39-.8c2.51-.54,3.49.15,6.77.2,3.07,0,3-.53,5-.2,1.39.24,1.58.57,4.78,2a38.59,38.59,0,0,0,6.57,2.39c2.91.74,3.82.51,4.18.4,2-.61,3.79-2.62,3.39-3.78-.27-.76-1.41-1-3-1.39a25.44,25.44,0,0,0-3.78-.4,20.71,20.71,0,0,1-4-.6,7.64,7.64,0,0,1-3.39-1.79c-.21-.22-1.58-1.59-1.19-2.39.25-.54,1-.27,2.58-.8a24.33,24.33,0,0,0,3-1.59c1.47-.73,1.46-.49,3-1.19,2.49-1.15,2.67-1.85,4-2,1-.12,1.84.25,3.38,1a29.65,29.65,0,0,1,4.78,3.19c2.6,1.82,2.51,1.29,4.58,2.78,3.34,2.41,4.43,4.4,5.57,4s.75-2.2,1.59-2.38c1.07-.23,3,2.34,3.59,5.17.48,2.35-.34,3,.4,5.58a12.25,12.25,0,0,0,1.59,3.38,25,25,0,0,0,3,3.38c1.46,1.55,2.18,2.32,2.59,2.79,2.34,2.69,2,3.07,3.59,4.78a15.17,15.17,0,0,0,5.17,3.58,10.88,10.88,0,0,0,4.38,1c2.41,0,4.17-.93,6.57-2.19a8.23,8.23,0,0,0,2-1.4c.77-.75.66-1,1.39-1.79a21.2,21.2,0,0,1,3.19-2.39c3.94,1.78,5.37,1.79,5.37,1.79a6.19,6.19,0,0,0,2.39-.39c1.53-.59,1.82-1.8,3.59-3.59a19.94,19.94,0,0,1,2.25-1.92c1-.78,1.33-.92,2.12-1.59a20.58,20.58,0,0,0,2-2c1.49-1.63,1.53-1.89,2.65-3.06,1.35-1.4,1.37-1.11,2.26-2.12a22.46,22.46,0,0,0,2.38-3.72c.84-1.47,1.26-2.21,1.6-2.92a31,31,0,0,0,2-5.7c.26-1.08.24-1.26.53-2.26a14.6,14.6,0,0,1,1.33-3.45,11.56,11.56,0,0,1,2.25-2.79c1.45-1.39,2.14-1.53,4.12-2.91,1-.74,2.56-2,5.57-4.65a14.86,14.86,0,0,1,3.32-2.52c1.53-.76,2.16-.62,2.65-1.33s.15-2.07-.53-4.78c-.4-1.59-.76-3.19-1.19-4.77-.86-3.13-1.12-3.67-.93-4.78.21-1.29.67-1.25,1.06-3a8.5,8.5,0,0,0,.13-3.72,15.92,15.92,0,0,0-1.19-2.92c-.79-1.68-.81-1.45-1.06-2.12-.71-1.85-.22-2.66-.67-5.31-.27-1.57-.44-1.26-.66-2.65a18.1,18.1,0,0,1,.13-5.58c.5-3.94.73-3.51.8-5,.17-4-1.48-4.83-1.46-9.69a20,20,0,0,1,.26-3.58c.41-2.37,1-3,1.06-4.91a13.23,13.23,0,0,0-.39-3.32c-.58-2.77-1.16-2.7-1.33-4.51-.19-2,.47-2.49,0-4.38a19.65,19.65,0,0,0-.93-2.26c-1.7-3.81-1.86-3.65-2-4.51-.19-1.24.16-1.41,0-4.11-.06-1-.11-.91-.13-1.6a17.34,17.34,0,0,1,.66-5.17,14.94,14.94,0,0,1,1.06-3.32,8.37,8.37,0,0,1,2.66-3.45c2.32-1.57,4.52-.54,5.7-2.26.41-.59.16-.73.67-1.46a6.69,6.69,0,0,1,3.31-2.12c1.34-.54,1.53-.42,2.53-.93a10,10,0,0,0,2.12-1.46c1.58-1.46,1.42-2.47,3.18-4.51.8-.92.76-.63,1.46-1.46,1.27-1.48,1.23-2.22,2.66-5,1.17-2.32,1.58-2.6,2-4.12a12.11,12.11,0,0,0,.4-2.65,13,13,0,0,0-1.6-7.17c-.32-.53-.46-.65-.92-1.46-1-1.78-1-2.24-1.6-3.18-1.13-1.66-2.11-1.27-2.52-2.39s.37-1.6,1.46-4.51.76-3.49,1.73-4.65,1.33-.78,3.45-2.25,2-2,4.11-3.59c2.77-2,3.77-1.66,4.38-2.92.78-1.59-.68-2.49-1.33-6.1-.13-.76,0-3.7.27-9.56.11-2.45.13-2.7.13-3.45,0-3.63-.39-4.43-.13-6.1.31-2,1.29-3.35,2.65-5.18a20.57,20.57,0,0,1,7.3-6.1,21.71,21.71,0,0,1,8.1-2.13,49.88,49.88,0,0,1,10.08.4c2.43.33,3.19.61,4.38.14,1.57-.63,1.89-1.75,4.91-4.25a8.09,8.09,0,0,1,2.26-1.59c.48-.15,2.17-.55,6.77,2.25,3.2,1.95,2.74,2.37,4.11,2.79,3.14,1,6.48-.91,8.89-2.26,3.35-1.87,3.54-3.09,6.11-3.58a29.11,29.11,0,0,1,4.77-.27c3.15,0,3.62.22,4.12-.26,1.35-1.29-1-4.11.13-7.43a7.85,7.85,0,0,1,3.19-3.85c4.19-3,10.72-2.75,13.13-2.66,1.63.07,3.48.27,4.91-.92,1.1-.92.74-1.64,1.73-2.92,2-2.59,4.69-1.24,7-3.72,1.54-1.63.69-2.54,2.53-4.38,1.61-1.62,2.72-1.35,4-2.79.3-.34,1.09-1.33,1.59-5.17.56-4.38-.27-4.65-.13-10.49.06-2.86.3-4.39-.8-5.44-.73-.7-1.42-.57-3.19-1.32a18.6,18.6,0,0,1-3.84-2.39c-1.78-1.3-2.4-2-6.77-6.11-3.1-2.93-3.57-3.33-3.85-4.38-.47-1.74.36-2.39.93-5.7.64-3.76-.3-3.65.26-7.83.38-2.78,1-4,.8-6.9-.13-2.58-.68-3.29-1.19-3.59-1.18-.68-2.27.71-3.45.14-.84-.41-1.06-1.47-1.86-7.17-.42-3-.41-3-.53-3.19-1.53-2.12-5.37-.89-12.61-2.12a20.77,20.77,0,0,1-8-3.05c-1.89-1.46-1.42-2.77-3.32-7.3-2.22-5.29-3.75-5.64-6.24-11.41a33.76,33.76,0,0,0-1.59-3.19c-1.79-3.3-2.62-4-3.32-4.38-1.35-.76-2-.29-2.39-.93-.81-1.22,1.26-3.19,2.79-7.56.56-1.6.29-1.38,1.06-4.12,1.39-4.94,2.08-7.42,3.32-8.49,2.11-1.83,3.84.09,12.08,0,5.91-.06,7.79-1.08,11.28.4,1.75.74,1.54,1.11,4.77,2.79a50.55,50.55,0,0,0,7.7,3.18,52.68,52.68,0,0,0,7.7,2c5.7,1,6.23,0,11.94.8a74.43,74.43,0,0,1,10.22,2.39c5,1.39,5.65,1.92,8.23,2.12,3.41.27,4.66-.46,8.62-.8,4.27-.36,5.68.26,10.49.53,5.41.32,5.65-.34,22.82-1.72,8.07-.65,7.8-.49,8.9-.8,7.35-2.08,8.26-6.26,16.85-9,2.4-.77,3.39-.79,7.43-2.12S1469.79,767.68,1472.19,767.38Z"/></g></g></svg>