<svg xmlns="http://www.w3.org/2000/svg" viewBox="0 0 1269.39 2890.77"><g id="Layer_2" data-name="Layer 2"><g id="Albania"><path d="M1231.91,2046.06c.28-1.52-.1-1.6,0-5,.13-4.51.85-5.32,1.24-5.65s1.36-.5,3.18-.71c5.26-.62,6.66-.75,7.24-1.77.46-.8,0-1.34.53-2.12s2-1,3.36-1.06c3.82-.07,4.91.66,8,.71,2.07,0,4.88.07,6-1.59.45-.66.33-1.15.53-3.36.23-2.59.55-3.66.71-5,.47-3.78-.75-6.45-1.24-10.07-.79-5.84,1.52-5.4,1.77-14.67.16-6.23.25-9.35-.53-11.31-.41-1-1.56-3.54-.71-6.18a7,7,0,0,1,.88-1.77c2-3,5-2.18,5.84-4.42.78-2-.11-3.38-.18-8a56.17,56.17,0,0,1,.35-5.66c.24-3.09.64-8.4.53-13.07-.11-5.28-.74-3.84-1.23-11.31s0-10.86-2.13-14.14a11.54,11.54,0,0,1-1.59-3.18c-.84-2.86.3-3.77-.35-5.66-1-3.08-5.08-2.32-6-5.65-.58-2.11.46-2.92,0-5.48-.53-2.95-2.31-4.08-5.12-7.78-2.51-3.29-2.91-4.77-4.6-7.42-4.1-6.44-9.3-9.53-13.07-12.54-7.17-5.73-10.61-12.66-17.5-26.51-6.4-12.87-9.64-19.64-7.07-26.51,1.81-4.82,4.4-4.14,6.54-9.72,2.36-6.17.33-10-.53-22.27-.08-1.08-.11-5.78-.18-15.19-.06-9-.12-17.7,0-26,.45-29.45,3-34.13-1.76-42.41-2.78-4.84-6.15-7.59-11.14-11.67-6-4.9-17.62-14.39-28.06-11.68-2.35.61-4.38,1.77-9,2.44a40.69,40.69,0,0,1-9.74.15c-7.79-1-9.28-4.89-18.57-9.14-6.19-2.83-13.55-6.2-20.25-3.5-4.43,1.78-6.7,5.46-9.44,10.05-5,8.43-4.2,12.81-7.92,24.66-2.52,8-4.76,15.19-10.35,22.38-2.66,3.43-8.41,10.83-17.66,14.16-10.84,3.91-15.33-1.78-37.46-4.11-10.66-1.12-19.62-.85-32.73-.45-19.59.59-24.16,2.29-31.67-1.37-2.25-1.1-13.51-6.94-16.14-19.49-1.54-7.37-.06-16.83,5.94-22.53,5.24-5,9.35-2.77,16.14-6.55,14.46-8.06,20.68-32,13.85-38.83-2.25-2.24-4.2-.93-14.61-2.28-12.84-1.67-20.28-2.64-25-7.76-4.3-4.69-4.49-11.5-4.87-25.13-.16-5.55.24-4.91.76-18,.63-15.94.13-19.54,1.21-30.6.7-7.06,1.07-10.67,2.29-14.77,2.5-8.42,5.63-15.84,5.63-15.84,1.22-2.89,3.07-7,1.68-11.26a5.79,5.79,0,0,0-1.29-2.53c-3.17-3.27-8.94,2.15-14.14-.89-1.86-1.08-4.13-4.55-8.66-11.48-1.67-2.56-3-4.73-3.36-7.78a15.18,15.18,0,0,1,.35-5.48c2.88-12.2,4.32-18.3,4.6-21.56,1-11.32-10-13.07-21.56-38.17-3.06-6.64-2.8-7.63-5.3-11.31-6.66-9.8-13.4-10.06-18.38-19.79-2.34-4.58-1.13-5.06-3.89-9.9-4.27-7.46-9.25-9.93-8.3-12.9s6.53-2.26,8-6.18c.47-1.32.15-2.61-.53-5.13-1.77-6.58-4-7-5.3-12.19-1.08-4.3.05-5.64-1.77-8.48-1.54-2.41-3-2.4-3.53-4.24-.94-3,2.94-4.64,3.88-9.37,1-5.13.19-9.18-1.23-16.08-1.15-5.52-1.72-8.29-3.36-11.13-3.31-5.74-6.25-5.17-7.42-9.37-1.46-5.2,2.65-7.43.88-13.08-1.15-3.66-3.44-4.49-3-7.07.47-2.83,3.88-5.55,6.18-4.94,3.26.85,2.08,7.78,6,9.36,2.92,1.18,6.6-1.44,8.3-2.65A13.41,13.41,0,0,0,890,1274c1.13-3.23-.13-4.48.88-7.78.92-3,2.76-4.6,4.24-6.18,4.63-4.94,6.69-10.56,8.84-16.44,2.93-8,1.53-10.13,5.12-16.61,2.76-5,3.81-4.13,4.6-6.89,1.42-5-3.8-12.12-14.31-26.15-2.32-3.1-4.1-5.35-7.25-6.54-3.83-1.46-6,0-9.54-1.77-3.16-1.61-4.7-4.45-5.83-6.54-2.17-4-1-4.85-3.54-13.25-.85-2.77-1.34-3.84-2.47-7.78-.25-.87-.78-2.73-1.59-6-2.54-10.2-1.83-9.82-2.65-11.13-3.23-5.13-8.89-2.63-12-7.6-2.49-3.94.43-6.56-2.3-11-1.63-2.62-3-2.26-8.83-6.54-5.61-4.13-8.6-6.39-8.49-9.37s3.23-5.29,4.42-6.18a5.8,5.8,0,0,1,3.89-1.59c1.54.11,1.94,1.11,3,1.06,1.82-.09,3.93-3.15,4.07-6.19.17-3.8-3.83-5.13-6-11.84a12,12,0,0,1-.71-6.89,11.49,11.49,0,0,1,4.77-6.54c1.56-1,4.09-2.09,15-1.06,8.69.82,7.76,1.56,10.24,1.24,6.18-.81,6.8-4.75,16.62-10.43,7.19-4.16,8.29-2.87,11.66-6.18,5.47-5.38,6.52-12.67,6.89-15.2a35.19,35.19,0,0,0-.71-12.73,38.11,38.11,0,0,0-3.53-10.78c-5.78-10.89-14.7-10.1-18.2-20-.78-2.19-1-4.4-1.59-8.83a83.54,83.54,0,0,1-.53-12.9,58.07,58.07,0,0,1,1.41-12.9c.84-3.44,1.69-5.24,2.65-10.25a54.51,54.51,0,0,0,.89-5.83,46.81,46.81,0,0,0-.18-10.61c-.78-4.87-2.64-7.25-4.95-11.84-3.34-6.62-8.4-16.67-6.36-26.68.8-3.91,2.48-6.83,4.95-11.13,4.39-7.66,7.24-8.6,8.66-14.14,1.62-6.36-1.45-7.74.7-11.49,2.92-5.06,11.76-8.11,18.38-8.3a9.67,9.67,0,0,0,5.48-1.24c2.43-1.59,3.52-4.43,4.06-7.25,1.54-7.89-1.41-14.22-4.77-28.62-2.65-11.4-2.63-15.3-2.47-17.85.34-5.36,1.39-5.86,1.59-11.49.35-10-2.79-13.63-.35-16.26,1.83-2,4-.33,13.25-2.12,6.83-1.32,8.1-2.68,8.66-3.71.65-1.19.7-2.58-.88-7.77a112.86,112.86,0,0,0-5.48-14.32c-3.07-6.36-4-7-4.24-9.9-.09-1-.61-6.49,2.82-10.07,1.73-1.79,2.9-1.49,9.19-3.71s9.37-3.34,11.67-6c1.52-1.77,1.77-3.11,3.18-7.77,4.61-15.28,6.46-15.72,6.36-21.39,0-.15-.71-3.93-2.12-11.48-1.62-8.66-1.86-9.81-2.48-11.49-2.08-5.71-4.59-6.94-7.77-11.84-5-7.73-5.94-15.67-6.72-22.44-1.38-12.08,1.57-15.67-2.12-20.68-3.28-4.47-6.14-2.3-11.84-7.77S922,584.91,915.23,577c-3.46-4-6.57-6.19-6.19-9.54.22-1.91,1.37-2.41,2.83-4.59,1-1.48,2.1-3.71,2.83-18.91.26-5.43.22-7.32.88-11,.86-4.71,1.46-4.48,1.77-7.07s0-6.07-7.07-20.5c-3.23-6.54-3.17-5.85-4.24-8.48-2.85-7-1.91-8.73-4.24-16.43-1-3.46-3.11-8-7.25-17.14-2.79-6.17-3.29-6.95-4.77-10.25-5.28-11.81-5.1-15.73-7.95-22.45-4.12-9.7-7.42-8.41-21.74-26.15-11.92-14.78-8.88-14.75-15.55-20.68-4.08-3.62-15.71-14-30.39-17.32a30.25,30.25,0,0,1-10.61-4.06c-5-3.18-4.94-5.45-9.36-9.54-8.89-8.23-21-10.17-22.8-10.43-6.23-.92-8.27.25-10.78-1.94-4.59-4-.86-10.73-5.12-14.32-3.88-3.26-12.45-2.34-17.32,1.42-2.42,1.86-3.67,4.23-7.07,4.94a10.45,10.45,0,0,1-5.65-.53c-4.38-1.42-9.46-1.83-19.62-2.65-12.4-1-17.51,2.06-19.62-1.06-1.62-2.4,1.21-4.56.36-10.07-1-6.6-5.56-6.65-6.36-12-1-6.34,5.07-8.43,6.36-19.08.38-3.18.59-4.95,0-7.25-2.27-8.73-12-8.74-21.21-20.67-4.85-6.26-4.54-9.31-4.06-10.78.75-2.35,3-4.23,4.77-5.66,3.46-2.84,4.92-2.39,6-4.42,1.18-2.21-.23-3.38.35-7.77s2-4.28,1.77-6.36c-.41-3.26-4.08-4.08-13.26-10.61-5-3.59-6.32-5-7.24-6.36-2.12-3-2-4.73-3.54-8.83-2.61-6.88-5-7.51-8.13-13.79-2.76-5.64-1.69-7-3.88-13.78-4.6-14.25-14.2-23.53-18.74-27.92-3.16-3.06-5.64-5.46-9.71-7.78-5.53-3.14-8.41-3-14.5-6-1.58-.79-2.52-1.36-11.13-7.6-11.9-8.61-17.88-12.95-19.61-14.84-6.13-6.66-6.91-10.9-10.25-10.78-3.83.13-4.45,5.75-12.37,10.07a23.74,23.74,0,0,1-7.78,2.83c-6.73,1.11-9.54-1.73-12,.18-2.18,1.68-.7,4.43-1.94,12.9a36.41,36.41,0,0,1-3.36,12c-1.54,3.05-3.91,7.7-8.48,9.55-3.74,1.5-6.43.11-14-1.59-7-1.59-12.82-2.89-19.09-2.66-11.41.44-12.26,5.53-21.91,4.42-5.15-.59-8.59-2.46-11.31-.35-1.81,1.4-1.92,3.49-2.65,7.6-1.6,9-2.94,16.62-6,17.49-3.53,1-6.08-7.85-12.37-8-4.43-.07-4.51,4.29-12,7.25-6.44,2.53-9.93.71-13.43,4.24-2.27,2.29-1.21,3.47-3.53,6.36-4.89,6.08-13.77,6-14.49,6-5.28-.11-9-2.41-12.2-4.42-5.19-3.28-7.1-6.38-12.37-12.37-10.06-11.46-10.64-8.77-14.13-14.31-6.52-10.34-.76-13.72-7.6-27-3-5.9-6.88-10.54-5.3-15.91.51-1.75,1.28-2.49,2.65-6.36a39.83,39.83,0,0,0,2.29-9c.81-8.29-4.09-11.07-2.12-14.49,2.29-4,9.32-1,12.9-6,1.8-2.49,1.78-5.65,1.77-8.13a20.85,20.85,0,0,0-1.94-8.48c-.93-2-2.8-4.35-6.54-9a45.73,45.73,0,0,1-4.6-6.19,21.63,21.63,0,0,1-2.47-5.3c-1.56-5.9,3.33-8.61,1.41-12.9-1.83-4.1-5.17-3.81-8.83-8.84-4.38-6-1.67-9.24-5.48-12.72C309.2-2.38,298.82,1,296.54,1.79,292.9,3,292,4.32,291.59,5c-1.35,2.42.35,4.28-1.06,7.07a7.9,7.9,0,0,1-4.95,3.89c-2.88.73-4.64-.86-5.65.17-.83.85,0,2.24.35,5.66s.59,6-.7,7.07c-1.87,1.59-4.92-2.17-9.9-.89a18.62,18.62,0,0,0-6.54,3.54,25,25,0,0,0-6.89,6.89c-3,4.8-1.2,6.75-3.71,11.31-2.17,3.93-3.89,3.13-9,8.3-4.3,4.34-2.68,4.49-9.55,13.44-3.92,5.1-6.29,7.46-6.18,11.31,0,1.79.6,2.4,1.41,4.77,1.91,5.56,1.27,11.48,0,23.32a14.51,14.51,0,0,1-1.94,6.72c-.61,1-1.61,2.26-4.77,4.59a62.78,62.78,0,0,1-7.78,4.77c-7.35,4.16-6.3,5-10.07,6.54-7,2.89-9.9-.2-13.08,2.65-.74.67-1.81,1.94-3,14.49-.82,8.58-.41,8.92-1.24,11.67-1,3.35-2.21,4.77-7.42,12.37s-7.88,11.49-8.84,13.25c-4.74,8.76-4,11.64-8.3,15-2,1.56-4,2.34-6,5.13-1.81,2.45-1.91,4-3.18,6.71-1.89,4-3.77,5-7.25,9-2.28,2.67-4.41,6.31-8.66,13.6-3.43,5.9-3.64,6.8-7.6,13.43a76.08,76.08,0,0,1-7.42,10.43c-2.88,3.4-4,4.08-4.59,4.42-3.63,2-5.44.38-10.61,1.94a21.85,21.85,0,0,0-7.77,4.24,25.68,25.68,0,0,0-5.3,6.72,43.2,43.2,0,0,0-2.65,5.3c-3.62,8.05-7.26,16.15-5,24.21,1.18,4.13,2.69,3.94,3.36,8.13a20.58,20.58,0,0,1-2.66,13.25c-.61,1-2.29,2.73-5.65,6.19-3.09,3.18-4.17,4.07-7.6,7.6s-5.12,5.27-5.83,6.71c-1.84,3.74-.57,5.23-2,9.19-1.24,3.58-2.77,3.8-7.24,9.37-3.23,4-5,7.09-8.13,12.54-4.79,8.34-4.79,10.36-4.59,11.67.35,2.37,1.51,3.66,1.41,6.89a16,16,0,0,1-1.41,5.66c-2.11,5.6-1.61,11-1.24,15A39.55,39.55,0,0,0,49,433.69c1.42,2.93,2.22,3.61,10.78,14,7.27,8.8,7.9,9.76,10.25,11.13s5.93,2.15,13.08,3.71c9.72,2.12,12.29,1.95,14.49,4.6,1.85,2.22,2.18,4.93,2.65,8.66.76,6.11-1.07,6.56-.18,10.25,1.54,6.36,7.41,6.63,9,13.43,1,4.14-1.05,4.66,0,7.42,3,7.72,19.12,4.34,22.62,12.37.84,1.92-.23,1.77.71,9.19a99.16,99.16,0,0,0,1.94,10.25c2.34,10.22,3.21,10,3,13.07-.36,5.42-3,5.52-3.54,11.31-.42,5,1.51,5.4,1.77,12,.3,7.32-2,8.4-.53,11.49,2.17,4.56,7.34,2.54,13.61,8.3,3.49,3.21,2.62,4.5,7.6,9.9a54.12,54.12,0,0,0,8,7.07c7.21,5.24,10.17,4.61,16.61,10.07,2.89,2.45,2.4,2.67,4.6,4.24,4.92,3.54,7.79,2.73,15.19,5,10.95,3.28,12.14,7.27,21.92,12a2.92,2.92,0,0,1,1.41,1.23c.35.67.39,2.3-6,11-3.63,4.92-6.07,8.22-10.25,9.37-3.7,1-4.6-.82-12.54-.53-4.11.14-7.74.31-8.66,2.29-1,2.23,2.51,4.2,2.12,7.07-.79,5.75-16.86,5.32-17.14,10.61-.21,3.72,5,5.27,14.31,15,7.22,7.53,10.83,11.41,10.78,16.61,0,4.22-2.39,5.16-4.07,13.78-.85,4.42-1.3,6.73-.88,9.37.85,5.27,4.31,6.45,15,16.43,9,8.42,11.25,12,18.73,16.08,2.9,1.61,3,1.33,5.48,2.83,2.13,1.3,9.86,5.95,14.49,14.67,3.21,6,3.69,11.36,4.6,21.56a87.22,87.22,0,0,1-.18,19.61c-1.12,8.84-2.53,8.43-2.65,14.14-.24,11.32,5.27,14.1,2.83,20.5-2.16,5.67-8.45,8.65-11.84,10.25-.45.21-5.25,2.44-9.37,2.47h-3.37c-1.12,0-3.53,0-4.05,0-1.44.16-1.88.58-6,2.83-5.66,3.09-6.19,3-6.54,2.83-1.8-1.07,1.27-6.27-1.23-9.37-1.65-2-5.42-2.8-7.07-1.41-1.95,1.64-.35,5.78,2.29,16.79,0,0,1.68,7,2.83,12.9,2.91,15,2.28,30.28-.18,38.88-.18.65-1.11,3.84-2.29,8.3-1.12,4.22-1.67,6.33-2.12,8.66-.88,4.53-.83,7.26-1.06,11.84-.72,14.21-2.77,20.25-.89,21,1.24.51,2.37-2,5.83-4.06,6.41-3.81,16.66-3.63,20,.88,2.52,3.42-1.11,6.42-1.76,18.56-.47,8.72,1,14.33-.89,15-1.29.46-2.51-1.91-7.42-5.31-2.47-1.7-7.51-5.18-9.19-3.88s2,5.43.89,11c-.83,4.28-3.55,4.67-8.66,11-6.37,7.83-5.11,10.84-10.61,16.08a32.15,32.15,0,0,1-11.13,6.72c-9.56,3.74-18.16,2.68-29.87,1.23a100.54,100.54,0,0,1-16.78-3.18c-10.92-3.11-15.81-6.64-17.32-5-1.32,1.48,2,4.62,8.13,17.5,2.92,6.12,3.84,8.9,7.24,12a21.65,21.65,0,0,0,8.84,5.12c6.83,1.92,10.18-1.23,14.31,1.59,2.28,1.56,3.27,3.89,4.24,6.19a20.93,20.93,0,0,1,1.42,10.25c-.41,4.93-1.89,5.47-2.65,9.72-1.22,6.81,1.95,8.89,2.12,16.08.08,3.57-1.36,7.5-4.24,15.37-3.75,10.22-5.62,15.33-9.37,20-3.21,4-3.17,2.3-13.61,11.84a136.09,136.09,0,0,0-12,12,87.73,87.73,0,0,0-8.66,11.31c-5.57,8.78-9.13,14.39-11.31,22.44-.66,2.41-1,4.49-2.83,5.48-.81.45-3.28,1.42-12.72-4.07-7.71-4.47-9.93-7.36-10.78-6.71-1.49,1.13,1.84,12.59,10.07,16.43,4,1.88,7.11,1,9.72,3.89,2.26,2.53,2.38,6,2.3,8.84-.41,13.62-5.49,17.26-6.19,28.45a41.71,41.71,0,0,0,4.77,21.74,30.9,30.9,0,0,0,8.84,11,30.26,30.26,0,0,0,11.66,5.3c9.86,2.41,11.69-1.49,18.73.71,7.84,2.45,12.54,9.47,16.26,15a55.16,55.16,0,0,1,6,12.19,62.83,62.83,0,0,1,4.59,24.39c-.06,2.53-.75,6.87-2.12,15.55-1.05,6.69-1.6,10.09-2.47,12.55-1.49,4.21-2.85,5.19-10.6,15.2-2.67,3.44-12.83,16.68-12.73,23.5,0,.29.05,1.57,0,3.37s-.19,4.23-.53,6.88a69.73,69.73,0,0,1-2.12,10.07c-1.87,6.64-3.1,7.81-3.71,8.31-1,.83-2.39,1.21-5.12,1.94-5.23,1.41-7.58,1.35-12.2,2.83-4.36,1.41-4.8,2.28-5,2.65-.72,1.9,1.58,3.18,3.89,8.13,2,4.38,1,5.33,3.54,9.72,1,1.85,1.61,2.36,2.82,4.77,1.74,3.44,1.56,4.33,3,5.66,1.28,1.17,2.34,1.31,3.18,2.82a6.07,6.07,0,0,1,.71,2.65c.2,3.53-1.49,6.39-2.3,8.84s-.09,2.6.18,11.31c.27,9-.54,8,0,12,1,7.21,3.37,9.11,1.94,12.9-.85,2.25-1.72,1.61-4.42,5.65a36.79,36.79,0,0,0-4.42,9.55,39.32,39.32,0,0,0-1.41,7.42c-1.17,10.7-.83,13.32-1.59,21-.89,8.94-2,12.13-.35,17.67a23.93,23.93,0,0,0,2.29,5.3c.84,1.41,4.2,7.9,11.31,9.9,2.51.7,4.57.5,6.19,2.29,2,2.2,1.65,5.52,1.24,9.19a38.5,38.5,0,0,1-3,10.78,55.68,55.68,0,0,1-6.36,11.84c-6.65,9.06-11.39,7.23-20.5,16.61a46.14,46.14,0,0,0-10.25,14.67c-2.47,5.87-1.67,7.85-5.48,18-1.74,4.65-2.46,5.71-3.53,9.54-1.13,4-1.48,7-2.12,13.25-1.71,16.6-1.51,17.79-2.65,22.09-1.77,6.66-2.66,10-5.66,12.55-5.22,4.46-11,2.19-13.78,6.72-1.62,2.63-1.13,5.79-.53,9.72.69,4.5,2,5.93,3.36,10.07,1,3.16,1.13,7.06,1.41,14.84.32,9.09.45,13.71-1.24,17.32-2,4.35-3.68,3.65-5.48,7.78-2,4.57-1.35,8.94,0,17.49,1.53,9.65,3.18,11.78,2.3,17.5-.38,2.46-.91,3.55-2.65,8.13-6,15.67-4.73,16.19-8.66,24.56-3.69,7.85-5.53,11.78-9.54,15.2-3.6,3.06-6.1,3.54-11,8.3a31.49,31.49,0,0,0-6.54,8.31c-1.45,2.78-3.69,7.08-3,12,.46,3.34,3.26,6.69,8.83,13.25,5.16,6.07,5.8,6,9,10.25a76.88,76.88,0,0,1,7.42,11.84c2,3.94,1.85,4.59,4.95,12.55,4.77,12.25,4.84,10.09,7.6,17.84,2.83,8,3.09,11.16,6.54,13.26.69.42.87.4,7.42,2.47,7.86,2.48,7.14,2.36,8.3,2.65a43.86,43.86,0,0,0,14.67,1.06c5.28-.55,6.83-1.8,11.13-1.06,1.84.32,4.9.9,6.19,3.18,1,1.7.27,3.17,0,6.19-.24,2.63.17,2.77,1.06,10.25,1.1,9.2.4,8.34,1.24,12.37,1.06,5.16,2,5.67,2.47,10.25a33.61,33.61,0,0,1-.18,8.13c-.6,4.18-.9,6.27-2.29,7.6-3.17,3-8-.13-10.43,2.65s-.18,8.06,0,8.48c1.56,3.7,4,4.12,7.95,8.31,3.76,4,2.48,4.54,6.54,9.54a56.71,56.71,0,0,0,11.84,10.6c4.42,3.2,6.64,4.8,9,5.48s4.49.7,6.37,2.47c1.42,1.34,1.67,3,2.47,4.78,2.1,4.71,3.83,8.59,3.36,12.72-.26,2.26-2.47,5.57-6.9,12.19-3.81,5.71-4.24,5.72-4.77,7.6-.29,1.06-.4,1.92.36,12.37.35,5,.44,5.62.88,6.72,1.58,3.91,4.57,5.26,3.89,6.89s-3.49,1-5.66,2.65c-1.54,1.2-3.41,4.11-1.06,19.79,1.8,12,3.53,14.57,1.42,18.2-1.63,2.8-3.27,2.3-8.84,7.6-4.37,4.17-4.09,5.17-7.07,7.95-1.24,1.16-10.46,9.77-18.91,7.25-3.87-1.16-6.06-4.25-10.42-10.43-3.69-5.21-4.28-8.33-4.42-9.19-.6-3.62.29-5.74.71-8.83.38-2.84.27-5.76-3-17-3.54-12.08-5.31-18.13-7.24-21.56-4.34-7.66-5.66-5.24-17.68-20.49-2.91-3.7-5.06-6.67-9.18-10.25a95.62,95.62,0,0,0-10.43-7.43c-6-4-9.08-6-11.13-6.54-1.31-.35-9.47-2.43-16.44,2.48-1,.73-7.17,5.05-6.89,11.13.18,4,3.1,6.89,6.18,9.9,4.34,4.23,6.14,3.59,9.55,6.89,4.56,4.43,3.38,7.58,7.24,14.31,4.53,7.91,7.34,5.64,12.73,13.61,6.15,9.11,2.71,12.41,9.36,20.5,2.72,3.31,5.13,5,6,9,.81,3.69-.61,5.05-.53,9.9.08,4.69,1.46,6.39,3.18,12.37,2.42,8.42,1.31,10.68,2.65,15.55,2.51,9.07,9.74,13.37,16.44,18.91,4.12,3.41,1.84,2.16,24.91,31.46,21.64,27.46,31.27,38.24,43.12,44.17,1.46.73,4.33,2.08,9.19,4.6,8.68,4.49,11.74,6.52,22.27,12.19,12.08,6.51,13.85,7,15.2,7.25,7.31,1.51,10.24-.49,14.66,2.3,4.65,2.92,3.07,6.17,8.31,11.13,4.54,4.3,6.31,2.41,14.31,7.6,6.39,4.14,5.7,5.63,12.37,9.54,4.59,2.69,5.68,2.44,9.72,5.3a95,95,0,0,1,8.49,7.42c7,6.53,6.81,6.79,8.3,7.43,2.64,1.13,6.63.83,14.49.17,6.5-.54,9.37-1.15,10.61.53s-.78,3.66.53,6.37c1.21,2.51,4.27,3.51,7.06,4.41,3.9,1.27,4.79.4,7.43,1.77,2.47,1.29,2.34,2.39,5.12,4.77,2.6,2.22,5,3.19,9.72,5.13,6.75,2.75,7.53,1.9,8.84,3.53,3,3.76-.57,8.93,2.47,11.66,2.07,1.86,4.34,0,6.36,2,2.44,2.3,0,5.72,2.12,10.95,1.46,3.59,4.52,6.7,6.19,6.19s.61-3.77,2.83-5.48c2.56-2,7.09-.1,9.89,1.06,3.64,1.51,7.6,3.15,8.31,6.36.92,4.21-4.53,7.45-3.18,9.9,1,1.8,4.78,1.56,7.24,1.41,3.42-.21,4-1.08,8.84-1.94,3.27-.59,5.19-.93,7.6-.53,1.68.28,3.48.91,7.42,3.53a75.45,75.45,0,0,1,10.25,8.31c1,.92,4.72,4.51,9.37,9.9s7,8.12,8.83,11.31c3.05,5.3,3,7.58,6.19,9.89s5.31,1.67,6.36,3.89c1.17,2.48-1.15,4.14-.36,8.48a15.55,15.55,0,0,0,2.3,5.3c2,3.43,3.65,4.65,5.13,6.54,3.28,4.22,1.4,6.35,3.88,12.37.71,1.72,4,5.82,10.61,14,4,5,5.23,6.38,6.18,9.19a16,16,0,0,1,.36,10.61c-1.37,3.81-4.17,6-6.37,7.77-3.42,2.71-4.78,2.34-8.48,5.48-2.42,2.06-3.95,3.36-4.59,5.65-.88,3.13.06,7.47,2.65,8.84,2.93,1.55,5.43-2.08,10.25-.71.33.1.25.1,5.12,2.83,5.05,2.83,5.3,2.93,6,3.54,2.86,2.43,1.85,3.48,4.6,6,2.22,2.05,4.72,3,7.77,4.24,2.42,1,2.44.7,4.6,1.6,2.75,1.14,5.09,2.12,7.06,4.06,3.26,3.21,2.13,5.74,5.48,8.13a9.53,9.53,0,0,0,4.6,1.77c3.82.33,4.82-2.26,9-2.48.92-.05,4.87-.13,6.89,2.3,1.56,1.87.38,3.33,1.06,7.6.89,5.6,3.43,6.31,4.07,12.19.29,2.74.44,4.13-.36,5.66-2.1,4-7.73,3.17-8.66,6.36-.18.64.64,2.68,2.3,6.71s2.13,4.87,2,6.19c-.33,2.31-1.93,2.3-3.19,5.12-1.6,3.59.39,4.93-1.06,8.49-.63,1.57-1.1,1.49-4.94,6-4.46,5.22-4.4,6-4.25,6.37.85,2.2,7.28.11,9.37,3.35.46.71.36,2.3.18,5.48-.2,3.34-.36,5.77-1.59,8.66a9.31,9.31,0,0,1-1.95,3.36c-2.44,2.44-6.16,2.46-7.95,2.47-4.05,0-5.84-1.35-7.77,0a4.75,4.75,0,0,0-1.6,2.12c-2,4.65,3,8.87,1.06,12.37-.19.36-1.48,1.18-4.06,2.83-3.61,2.31-4.53,2.64-6.54,4.07a35.68,35.68,0,0,0-4.77,4.06c-1.2,1.23-4.56,4.67-6,8.84-1.92,5.53,1.38,7,1.06,15.55,0,.92-.05.33-2.29,13.78-.92,5.5-1.35,8.31.35,10.43.55.69,1.53,1.56,5.48,2.47,2,.48,7.44,1.56,17.14.53a65,65,0,0,0,9.54-1.59c5-1.25,4.28-1.74,10.6-3.53,4.83-1.37,6.41-1.4,8.13-3.18,1.43-1.47,1.48-2.62,3.36-3.89,1.62-1.1,4.22-2,5.3-1.06s-.4,2.63.53,4.42c.33.63,1.07,1.49,7.6,2.82a66.32,66.32,0,0,0,7.6,1.24c4.16.41,4.27,0,5.48.53,3.59,1.54,2.75,5.08,5.83,7.25,4.09,2.86,8.08-1.62,13.43,1.06,1.11.55,2.93,2.85,6.54,7.42,5.54,7,5.19,7.21,6.89,8.66,2.83,2.41,3.7,1.82,11.84,5.65,8.56,4,7.84,4.8,11,5.3,6.59,1.08,9.27-2.43,13.43,0,2.65,1.56,3.08,3.87,6.18,4.42,1.83.33,2.65-.3,5,.18a13.21,13.21,0,0,1,4.6,2.12c1.94,1.17,3.16,1.05,14.66,1.06a63.47,63.47,0,0,0,10.78-.53c4-.61,5.64-1.34,6.9-2.65s2.67-4,1.94-6c-.45-1.24-1.22-1.1-2.47-3a7.64,7.64,0,0,1-1.59-4.6c.12-1.73,1.13-2,2.29-4.24,1.54-3,.37-3.78,1.77-7.24.59-1.48,1.57-2.81,3.53-5.48s3.1-4.2,4.25-4.42c1.84-.36,3.55,1.06,5.83,3,2.94,2.52,2.91,3.58,5.48,6,.42.41,6,5.58,8.12,4.24.8-.49.63-1.55.71-5.48.1-5,.2-8.41,1.24-12a22.75,22.75,0,0,1,2.47-5.66,24.46,24.46,0,0,1,5.66-6c6.13-5.22,5-5.69,10.42-10.25,4-3.39,4.15-2.68,10.61-7.59,8.75-6.66,9.42-8.62,9.54-10.08.32-4-3.32-7.43-4.24-8.3-2.65-2.51-3.85-1.72-6.89-3.89-5-3.58-6.72-9.27-8.13-14-1.05-3.47-1.64-5.57-.89-8.13a13.81,13.81,0,0,1,4.6-6.36c2.52-1.93,4.16-1.74,5-3.54s-.1-3.93-.53-4.94c-1.09-2.52-2.67-2.54-4.07-5a20.17,20.17,0,0,1-2.65-8.66c-.22-3.12-.45-6.4,1.59-8.13,1-.85,2.67-1,6-1.41a20.23,20.23,0,0,1,4.77-.18c1.84.18,2.54.56,5.66,1.41,0,0,2.72.75,5.12,1.24,5.2,1.07,5.79.08,9.19.88a19.37,19.37,0,0,1,9,5.13,77.31,77.31,0,0,1,4.77,6.54c3.29,4.69,3.37,5,4.25,5.65,3.78,2.88,8.57,2.24,9.36,2.12,1.52-.23,3.07-1,6.19-2.47,3.38-1.63,5.07-2.44,6.36-3.89,1.86-2.09,1.19-3,3.36-5.3a24.33,24.33,0,0,1,4.06-3.18c2.49-1.72,3.34-1.95,4.06-3.18s.4-1.65.71-3.89,1-4.18,2.48-8.31c1.26-3.59,1.42-3.42,1.59-4.59.42-2.93-.64-3.42-.71-6.89-.09-4.4,1.6-5,.71-7.78-.69-2.14-1.81-2.13-2.48-4.77-.45-1.81-.09-2.47-.7-4.24a11.71,11.71,0,0,0-2.13-3.54c-2.62-3.3-3.85-3.4-5.47-5.47-1.81-2.32-.73-2.78-2.83-7.43a28.62,28.62,0,0,0-4.95-8.13c-1.73-1.9-3-2.7-3.53-4.77-.36-1.47.11-1.89,0-4.06a17,17,0,0,0-1.59-6c-1.27-2.5-2.43-2.58-5.13-5.48a33.16,33.16,0,0,1-5.3-7.77c-2.41-5-1.17-6.18-3.36-8.66-1.08-1.23-3.25-2.3-7.6-4.42-3.47-1.7-4.43-1.88-6.36-3.36a17.13,17.13,0,0,1-4.06-4.42c-1.16-1.7-2-3-1.59-3.88.64-1.27,3.15-.16,4.77-1.59.92-.82.73-2.1.88-6.72a28.46,28.46,0,0,0-1.24-10.25c-1.2-3.58-2.1-3.16-4.94-8.48-3.46-6.46-2.28-7.34-5.13-11.13s-4.46-3.52-5.83-6.9c-1-2.51-.37-3.28-1.77-7.24-1.16-3.31-2.11-4.19-1.59-5.13.66-1.18,2.75-.79,8.48-.7,2.88,0,5.22,0,9.9-.18,6.56-.21,5.76-.59,9-.53,7.55.13,8.18,2.12,14.14,1.59,2.71-.24,1.58-.56,8.84-1.94,3.37-.65,5-.84,6.36-2.3a9.17,9.17,0,0,0,1.94-4.77,23.62,23.62,0,0,0,.18-5.66c-.17-4.68-.58-4.81-.18-6.18.61-2.09,1.77-2.43,3.71-5.13a28.86,28.86,0,0,0,3.18-6.18c2-4.66,3.63-8.41,3.89-13.26s-1.19-5.88,0-9.54c.55-1.67,1.54-3.17,3.54-6.18,2.41-3.65,3.5-4.38,4.41-4.78,1.81-.78,2.23,0,4.07-.7,2.42-1,2.2-2.63,5.12-4.77a9.29,9.29,0,0,1,5.13-2.13c1.85-.06,2.37.69,4.42,1.24,4.5,1.22,6.35-1.25,10.42-.35,2.62.57,2.36,1.7,5.66,3.36.81.4,9.11,4.42,16.61.53a13.35,13.35,0,0,0,5.83-5.31c2-3.68.72-6.41,2.83-8s6-.14,7.24.36c1.07.42,1.25.67,6.54,4.77a47.66,47.66,0,0,1,4.6,3.71c2.62,2.58,2.4,3.37,3.89,4.59,1,.78,2.31,1.5,11.13,1.59,4.32.05,6.78-.09,11-.35,6.69-.41,8.5-.82,9.72-2.3,1.49-1.79.51-3.2,2-4.24,2.1-1.51,4.72,1.1,10.07.18a9.55,9.55,0,0,0,3.18-1.06,11.29,11.29,0,0,0,3.54-3.54c1.62-2.19,2.05-3.17,3.53-5.47a29.29,29.29,0,0,1,3.71-5.13,15.17,15.17,0,0,1,7.6-3.71c3.52-.76,4.86,0,11.49.71a98.47,98.47,0,0,0,14,.35c7.47-.35,9.34-1.4,10.25-2.83.77-1.22.57-2.3.53-4.95-.1-6,.83-6.11.88-11.31.07-7.46-1.85-7.33-1.59-14.13.12-3.2.25-6.57,2.12-10.25.91-1.79,1.35-1.94,5.3-7.42s4.17-6.28,4.24-6.9c.43-3.65-2.18-7-4.41-9.89s-2.59-2.24-3.89-4.24c-2.07-3.19-2.18-6.41-2.3-12.73-.09-4.95-.11-7.47,1.24-9.54a12.53,12.53,0,0,1,6.36-4.6c3.48-1.19,4.27.14,6.72-1.06,3.18-1.55,2.12-3.94,6.18-7.42,2.52-2.15,3.85-2,5.48-4.42a14.66,14.66,0,0,0,1.94-4.41c.56-2.06.25-2.53.89-5.31.5-2.22.76-2.18,1.06-3.88a23.93,23.93,0,0,0,.17-4.95s0-2.75,0-6.19c.13-8.49,3.06-10.17,1.42-14.31a22.39,22.39,0,0,1-1.77-4.6c-.56-2.48,0-2.69-.53-4.24-.85-2.53-2.5-2.5-4.95-6-1.27-1.82-2.11-3.06-1.94-4.6.19-1.82,1.54-1.92,2.65-4.06,1.81-3.51-.65-5.5,1.24-8.66a13.52,13.52,0,0,1,3.88-3.71,25.69,25.69,0,0,1,2.83-1.77c2.64-1.57,6.39-5,7.25-9.37.68-3.44-1.09-4.37.17-7.07,1-2.12,2.94-3.36,4.6-4.41a22.19,22.19,0,0,1,5.12-2.3c4.77-1.66,6-1.14,8-2.65a9.16,9.16,0,0,0,3-4.77c1.14-4.25-1.76-5.85-1.42-11.31.11-1.69.72-3.48,2-7.07a47.45,47.45,0,0,1,3.36-7.78c1.4-2.51,2.1-3.77,3.35-4.95,2.18-2,3.39-1.69,6.72-4.06a14.51,14.51,0,0,0,4.24-3.89c1.47-2.27,1.43-4.45,1.41-9.36,0-10.9.1-9.63,0-10.78-.62-7.71-2.16-9.81-1.76-16.26,0-.76.15-1.92.35-4.24.62-7,.79-7.13.88-9,.4-8.38-2.78-11.53-.35-14.66a26,26,0,0,1,3.18-2.48c.82-.6,2.63-1.9,5.83-3.89a54.58,54.58,0,0,1,6.72-3.88c4.11-1.6,5.83-.78,7.07-2.48s-.24-3.3,1.06-5.48c1.61-2.7,4.88-1.82,5.83-4.06,1.07-2.51-2.36-5.16-1.24-6.89s4.46.2,6.36-1.77c1.57-1.62,1.11-4.73.89-6.18-.45-3-1.7-3.88-1.06-5.48.37-.92,1.24-1.5,3-2.65s2.75-1.81,3.71-1.77c2.15.09,2.37,2.87,5,4.95,2.13,1.71,5.57,1.81,12.37,1.94a77.1,77.1,0,0,0,8.31-.18c7.49-.58,8.9-1.81,13.25-1.23,2.5.33,4.2,1,7.6,2.47,6.85,2.88,7.59,4.91,12.55,6a14.27,14.27,0,0,0,8.13,0c3.28-1.11,6.73-3.88,7.77-7.6.68-2.4-.31-2.86.53-4.59,1.65-3.4,5.73-2.25,8.13-5.66.52-.74.82-3,1.41-7.42s.89-6.75.71-8.48c-.4-3.87-1.6-4.15-1.77-7.25,0-.92,0-2.58,2.65-9s3.93-9.42,6-11.13c2.26-1.86,4.87-2.71,8-3.72,4.08-1.32,5.63-1,7.59-2.82A10.53,10.53,0,0,0,1231.91,2046.06Z"/></g></g></svg>