<svg xmlns="http://www.w3.org/2000/svg" viewBox="0 0 1858.16 1855.73"><g id="Layer_2" data-name="Layer 2"><g id="Algeria"><path d="M1857.46,1414.49c-.35-.57-.54-.59-1.5-1.93s-1-1.56-2.26-3.66a24.29,24.29,0,0,1-1.83-3c-.74-1.69-.37-1.87-1-2.8-1.11-1.73-2.61-1.4-3.12-2.8-.44-1.21.61-1.73.22-3.12-.46-1.63-2.1-1.58-2.37-3s1.17-1.94.86-3.44c-.15-.75-.55-.83-1.5-2.26a27.78,27.78,0,0,1-1.4-2.58c-1.55-2.6-3.08-2.08-4.41-4.41-.24-.42-.1-.27-1.19-3.66-.69-2.16-1-3.25-1.29-3.87-1.14-2.88-1.93-2.66-3.55-5.81a46.91,46.91,0,0,1-2.36-6.13c-.53-1.52-.79-2.28-1.08-3.33-.68-2.5-.59-3.16-1.29-5.06a20,20,0,0,0-1.4-3,10,10,0,0,0-2-2.91,4.82,4.82,0,0,0-3-1.5c-1.09,0-1.26.53-2.91,1s-2.16.07-3.44.32c-2.11.41-2.1,2-4,2.47-.75.21-1.2.13-3.66-.32-5.85-1.06-5.85-1-6.13-1.18-2.3-1.21-1.69-2.5-4.73-5.06-1.58-1.33-1.91-1.12-4.63-3-2.43-1.69-2.84-2.33-4.84-3.87-3.59-2.78-4.17-2.18-8.6-5.17a62.39,62.39,0,0,1-6.78-5.37,32.93,32.93,0,0,1-4.62-4.52c-1.67-2.29-1.81-3.56-3.45-4.41-.35-.19-.86-.4-4.51-.43-5.26,0-6.11.37-6.56.64-1.1.66-.76,1.41-2.69,3.45-1.45,1.52-2,1.6-2.26,1.61-1.25,0-2.42-1.44-2.91-2.69-.69-1.77,0-3-.75-3.55-.58-.4-1.41.06-2.47.43s-2.66.43-5.81.54-4.25-.25-8.93-.65c-6.43-.54-9.64-.81-12-.54-3,.35-4.63,1-6.34-.1-1.54-1-1.32-2.09-3.23-4.31-1.63-1.89-2.15-1.47-5.16-4a21.93,21.93,0,0,1-5.38-5.8c-.72-1.2-.52-1.21-2.05-4.41-1.07-2.25-1.52-3-2.69-5.27-3.58-7-2.84-6.86-4.84-10s-2.87-3.49-3-5.27c-.16-2.06.89-3,.65-5.92-.15-1.71-.54-1.69-.76-3.44-.29-2.33.35-2.88.87-6.77a62.42,62.42,0,0,0,.43-7.1c0-2.06.07-3.09,0-4.09-.28-3.89-1.15-4.37-1.4-8.07-.16-2.41.17-2.81-.33-4.19-.61-1.72-1.53-2.27-2.9-3.88-2.51-2.94-1.81-3.92-4.52-7.85-1.57-2.28-1.85-2-3.87-4.62a53,53,0,0,1-4.84-7.86c-4.18-7.6-4-8.46-6.35-11.07a33,33,0,0,1-3.12-3.77,45.72,45.72,0,0,1-2.79-5.06,69.82,69.82,0,0,0-4.84-7.09c-.5-.69-2.12-2.89-4.52-5.92-3.06-3.86-3.69-4.39-6.45-8a52.61,52.61,0,0,1-3.77-5.16c-.29-.51-1.35-2.54-3.44-6.56a18.06,18.06,0,0,0-1.72-2.8c-1.12-1.46-1.38-1.31-1.72-2-1-2.22.68-5.21,1-5.7.84-1.46,1.44-1.57,1.73-2.79.32-1.38-.31-1.85-.33-3.23,0-3.33,3.48-6,4-6.35,1.45-1.08,1.76-.72,3.77-2.15,1.82-1.3,2-1.93,3.22-2.79,2.18-1.57,4-1.32,6.57-1.83,2.94-.6,2.72-1.41,8.49-4.31,7.3-3.65,9.56-3.32,12.27-6.56a8.62,8.62,0,0,0,2.47-4.84c.2-2.29-1-3.36-.32-5.7.26-.9.5-.92,1.4-3,0,0,.66-1.54,1.18-3.12,1.08-3.29-.37-6.45-.75-13-.26-4.4.16-7-1.73-8.6-.71-.61-1.16-.58-1.82-1.4-1.09-1.34-.81-2.61-1.4-5.7-.33-1.73-.45-1.51-.86-3.44-.65-3.06.26-4.26-.76-5.81-.7-1.07-1.2-.77-1.82-1.83s-.51-1.94-.22-5c.31-3.3.45-5-.11-5.49-.89-.85-2.1,0-3.22-.75-.33-.23-1.17-1-1-5.38a53,53,0,0,1,1.61-9.25,19,19,0,0,1,1.18-4c1-2.13,1.67-2.39,2.59-4,1.66-2.89.53-4.11,2-10.33a32.31,32.31,0,0,1,1.18-4,50.67,50.67,0,0,1,3.45-6.78,56.12,56.12,0,0,0,2.79-5.48,25.13,25.13,0,0,0,1.29-9.68c-.07-4.71-1-4.4-.75-8.39a70.25,70.25,0,0,0,.22-7.1,8.72,8.72,0,0,0-.44-3.23c-.84-2.14-2.27-2.34-2.68-4.19-.36-1.6.63-1.8.32-3.45-.39-2.06-2-2.23-2.8-4.62-.39-1.25.13-1-.21-3.12-.42-2.57-1.27-3.47-1.29-5.92a13.78,13.78,0,0,1,.1-1.61c.27-3.27-.68-4.58-1.5-9.36a60.91,60.91,0,0,1-.76-7c0-.36-.07-1.28-.1-3.12-.12-5.69-.18-8.53.21-9.9,1.15-4,3.37-3.37,4.09-7.09.47-2.42-.43-2.84-.43-7.64,0-1.17.14-2.77.43-5.92.57-6.25.77-6.74.86-8.93.15-3.71-.38-4-.65-8.92-.55-10.3,1.47-13.46-1.18-18.29-.82-1.5-1.41-1.9-2-3.66-1.09-3-.43-4.75-1.08-8.82-.42-2.64-.73-2.13-1.18-4.73-1.12-6.47.88-9.3-1.29-11.94-1-1.17-1.65-1-2.48-2.37a8.37,8.37,0,0,1-.75-5.48,34.21,34.21,0,0,1,1.18-4.2c.25-.68.5-1.27.22-1.72-.39-.61-1.32-.21-2.47-.75a4,4,0,0,1-2-2.48c-.42-1.64.92-2.22.65-3.76s-1.74-1.74-3.34-3.66c-1.29-1.54-1.19-2.44-2.15-4.51-2.07-4.48-4.41-4.41-6.24-8.07-1.47-3-.1-3.29-1.29-7.75s-3.42-7.5-7.1-12.58c-2.57-3.55-2.7-3.13-3.76-5.06-2.16-3.92-1.54-5.55-4-9.68-1.4-2.36-2-2.49-2.48-4.19-.24-.86-.36-1.81.33-6.78.79-5.7,1.21-6.33,1.61-6.78.79-.87,2.14-1.51,4.84-2.79a12.58,12.58,0,0,0,3.33-1.83,7.57,7.57,0,0,0,2.16-3,8.82,8.82,0,0,0,0-5.27,16.94,16.94,0,0,0-1.4-3.77c-.57-1.18-.81-1.41-1.19-2.15-1.46-2.88-1.24-6.06-1.07-8.39.17-2.49.55-2.73.21-3.87-.59-2-2-1.94-3.22-4.2-.69-1.21-.93-2.78-1.4-5.91a38.84,38.84,0,0,1-.43-3.88c-.23-4.16.48-5,.11-7.53-.14-.92-.85-2.49-2.26-5.59-2.57-5.65-3-5.82-3.45-7.85-.46-2.21,0-2.28-.53-6-.37-2.57-.7-3.27-1.08-5.37-.87-4.83.18-4.78-.54-8.72s-1.76-4.38-3-10.22c-.24-1.13-.28-1.47-.54-2.47-.93-3.58-1.87-4.62-2.69-7.1a23.73,23.73,0,0,1-1-7.53c-.07-3.75.53-4.2.1-6.88-.23-1.48-.48-1.77-1.82-5.7-1-3.06-1.69-5-2.16-6.78-1.09-4.32-.16-4.3-1.07-9.14a38,38,0,0,0-3.66-10.65c-1.33-2.53-1.41-1.95-2-3.44-1.53-3.63-.35-5.38-.43-14a20.79,20.79,0,0,0-1-6.88,18.82,18.82,0,0,0-1.51-3.34c-1.57-2.75-2.58-2.89-3.55-4.51-2.08-3.5.63-6.09-1.07-10.22-.21-.5-.7-1.55-3.87-4.52-5.24-4.89-8.1-5.94-12.7-9.79-4.79-4-3.25-4.17-7.1-7.1-6.4-4.88-9.14-3.26-14.2-7.74-4.36-3.87-3-5.67-7.2-8.39-3.52-2.27-5.8-1.87-10.11-4.63-1.93-1.23-2.7-3.55-5.6-4.84-1.32-.59-1.72-.46-2.58-1.08-1.81-1.3-2.43-3.62-2.79-7-.59-5.46.34-6.14,0-10.75-.14-1.81-.28-1.63-2-10.22-1.59-7.71-1.31-7-1.61-8-1.5-4.54-3.93-7.46-8.39-12.8-3.58-4.28-5.16-5.34-7.21-9.15a37.31,37.31,0,0,0-2.37-4.41,21,21,0,0,0-6.66-6.56c-1.93-1.13-1.44-.34-7.86-2.9a41.3,41.3,0,0,1-6.34-3,32.65,32.65,0,0,1-3.45-2.37c-2.16-1.73-3.25-2.59-4-4-1-1.95-.1-2.5-.86-6.13-.45-2.17-.76-1.9-1.93-5.81-1-3.48-.78-3.65-1.51-5.05-1-2-1.72-1.94-3.33-4.41a41,41,0,0,1-2.37-4.74c-1.17-2.35-1.32-2.3-3.33-5.91-1.53-2.76-2.76-5-4.09-8-.88-2-1.43-3.48-2.26-5.7-.48-1.3-2.1-5.68-2.8-8.18-1.82-6.57.73-7.53,0-17.64-.34-4.84-1.12-7.3-.64-12.48a18.55,18.55,0,0,1,1.61-6.56,18.13,18.13,0,0,1,4.41-5.81,13.81,13.81,0,0,1,5.81-3.66c2.86-.76,3.68.36,6.78-.75a12.44,12.44,0,0,0,3.87-2.26,7.83,7.83,0,0,0,2-2.36c.52-1,.57-1.7.76-4.31.35-4.86.42-5.34.86-6,1-1.59,2.08-1.13,2.69-2.58.7-1.71-.6-2.72.1-5.06a4.28,4.28,0,0,1,1.51-2.36c1.16-.83,2.47-.55,3.44-.54,2.41,0,3.54-1.65,7.32-4.63a68.25,68.25,0,0,1,9.78-6.34c4.29-2.36,4.37-1.81,6.35-3.34,2.75-2.12,4.23-4.46,6.56-8.17,1.72-2.73,2.69-4.31,3.34-6.78a20.09,20.09,0,0,0,.53-6c-.22-4.1-1.41-4.94-2.58-11.4a18.26,18.26,0,0,1-.43-4.52,13.48,13.48,0,0,1,1.94-6.35c1.31-2.1,1.86-1.54,3.12-3.55a15.15,15.15,0,0,0,2-7c.11-2-.26-2.68.32-4.09.19-.45.37-.74,2.16-3,1.37-1.76,2.06-2.63,2.47-3.12,1.68-2,2-2.07,3.23-3.66a12.25,12.25,0,0,0,2.15-3.33c.46-1.2,1-2.53.43-3.66s-1.35-1-4.52-2.36a43.83,43.83,0,0,1-4.41-2.26c-1.86-1.11-2.8-1.67-3.23-2.37-.89-1.46-.07-2.26-.43-5.92-.26-2.69-.77-2.89-.43-4.08s1-1.36,3.12-3.88c1.59-1.88,2.39-2.85,2.48-3.76.15-1.67-1.1-2.06-1.29-4.52-.11-1.27.2-1.52.32-3.23a17.83,17.83,0,0,0-.43-4.94c-1.15-6.41,1.07-7.9-.54-10.87-1.81-3.35-5.17-2.45-7.42-6-1-1.63-1-3.56-1.18-7.32-.2-4.7.64-4.69.21-8.06-.5-4-1.81-5.17-.86-7.1.76-1.55,1.9-1.36,2.9-3.44a15.6,15.6,0,0,0,1-4,29.57,29.57,0,0,1,.65-3.77,19.78,19.78,0,0,1,1.5-3.12c.47-1,.55-1.74.76-7,.14-3.83.22-5.75.21-6-.06-3-.33-3.78.22-5.17s1.25-1.53,2.79-3.55a15.52,15.52,0,0,0,2.91-5.48c.74-3-.9-3.18-.54-6.89.31-3.12,1.56-4.43.65-6.34a3.79,3.79,0,0,0-1.94-1.94c-1.49-.55-2.46.58-4.63.54a10.15,10.15,0,0,1-3.33-1c-2.82-1.1-3.16-1.74-5.92-3-3.18-1.47-4.23-1.33-4.51-2.26-.45-1.48,1.66-3.53,3.22-4.52s2.31-.74,5.27-1.93c.94-.38,1.28-.57,3.77-1.83,5.61-2.84,5.5-2.68,7.53-3.77,4-2.18,6.08-3.27,6.45-3.87,2.5-4-1.08-10.55.65-15.38a3.18,3.18,0,0,1,1.18-1.72c1.22-.83,2.32,0,4.73-.22a9.56,9.56,0,0,0,3.77-1.18c1.76-1,2-2,3.55-2.26,1-.17,1.36.15,2.15-.22a3.65,3.65,0,0,0,1.72-2c.76-2-.7-3.15-1.08-6.45-.35-3.13.71-4.23-.1-4.95-1.12-1-3,1.23-7.86,2-3.93.66-5.23-.38-8.28,1a8.77,8.77,0,0,1-2.9,1,8.27,8.27,0,0,1-4.31-.75c-1.88-.87-1.52-1.53-2.9-2.05-2.53-.94-4.24,1.08-6.13-.11-.88-.55-.77-1.15-1.83-1.61a5.4,5.4,0,0,0-3-.11,22,22,0,0,0-3.34.76c-4.3,1.28-5.13.14-7.31,1.4-1.7,1-1.09,1.61-3.33,3.44a20.41,20.41,0,0,1-5.81,3,24.62,24.62,0,0,1-5.81,1.83,22,22,0,0,1-6.24,0,17.49,17.49,0,0,1-6.35-1.83c-4.71-2.63-3.53-6.2-7.74-8.18-2.76-1.29-4.17-.19-7.21-2.15a21.08,21.08,0,0,1-3.44-3.12c-2-2.05-2.43-2.85-4.63-5.16a21,21,0,0,0-3.22-3.12c-3.26-1.63-5.36,1.15-9.9,0-2.61-.66-2.29-1.67-4.84-2s-3.17.67-7,.53c-2.23-.08-3.25-.48-3.87.22s-.26,2.45.1,3.66c.83,2.74,2,2.91,1.94,4.3,0,1.22-1.5,2.44-4.41,4.84a18.08,18.08,0,0,1-4.09,2.9c-2.25,1-2.94.38-5.7,1.08-3.59.91-3.39,2.18-6.56,2.9a11.52,11.52,0,0,1-7.1-.43c-.94-.4-.75-.51-4.84-3.44-2.88-2.06-3.48-2.36-4.19-2.58-1.54-.46-1.92.11-5.49.32-1.18.07-2.47,0-5.06,0-3.45-.06-5.19-.1-6-.43-1.63-.65-2.63-1.72-4.63-3.87-.83-.89-1.49-1.76-2.79-3.44-3.3-4.28-3.41-4.88-4.84-6S1363.91-.1,1361.91,0c-2.21.11-2.52,1.78-5.7,3.33-2.7,1.32-3.12.43-6.67,1.72-2.73,1-5.47,2-6.67,4.52a10.43,10.43,0,0,0-.54,5.59c.31,2.28,1,2.68.65,3.55-.72,1.7-3.63.81-8.28,2.58-2.39.92-2,1.28-5.71,2.91-2,.85-2.31.86-5.59,2.15-4.49,1.77-4,1.82-5.48,2.26-3.66,1.05-4.2,0-8.29,1-3.28.74-3.34,1.48-6.34,1.93-1.85.28-2,0-6,0a43.81,43.81,0,0,0-9.89.76c-3,.65-4.12,1.35-4.63,1.72a7.7,7.7,0,0,0-3.23,4.51c-.36,1.94.6,2.66-.1,4.09a5.15,5.15,0,0,1-2.91,2.26c-1.55.63-2.22.29-4.19.75a17.55,17.55,0,0,0-3.55,1.4c-6.45,3-6.17,3-7.21,3.34-2,.6-4.63,1.38-7.1.32-3-1.31-2.26-3.88-5.27-5.27s-5.18.54-7.74-1.4a6.64,6.64,0,0,1-2-2.69c-.91-2.39.4-3.87-.64-5.27-.67-.89-1.49-.67-3.66-1.51a23.37,23.37,0,0,1-4.52-2.58c-5.3-3.46-5.19-4.18-8.07-5.7a26.8,26.8,0,0,0-6.77-2.36,42.51,42.51,0,0,0-8.82-1.08,117.76,117.76,0,0,0-14.42-.11c-9.41.58-9.16,1.84-14.41,1.4-5.59-.47-6.09-1.91-12-2.26-5.06-.29-5.07.73-11.29.86-7.14.16-7.57-1.18-16.46-1.29-3.2,0-2,.15-10.33.32-6,.13-7.31.05-9.89.65a26.59,26.59,0,0,0-8.28,3.44c-2.53,1.65-1.8,1.86-5.49,4.73-4.64,3.61-4.73,2.44-9,5.81-1.13.89-2,1.65-3.33,1.72-1.58.1-2.31-.84-4.62-2a19,19,0,0,0-6.46-2.15c-3.21-.38-4.45.62-6.24-.54-1.34-.87-1.57-2-2.36-1.93s-1.3,1.35-2.26,3.87-.81,2.83-1.4,3.22c-1,.7-2.16-.09-5.49-.86s-3.42-.2-5-.86c-3.24-1.29-2.72-3.32-5.6-4.51-2.32-1-4.7-.48-8.06.21a12.34,12.34,0,0,0-3.55,1.18,13.52,13.52,0,0,0-3.55,3.12c-2.21,2.41-3.81,4.29-4.84,5.49-2.16,2.49-3.23,3.73-4,4.41-1.75,1.58-2.44,1.74-8.29,5.27-4.57,2.77-4.51,2.89-5.7,3.33a19.76,19.76,0,0,1-8.6,1.08A19.13,19.13,0,0,1,996.94,54a31.86,31.86,0,0,0-5-2.69,11.06,11.06,0,0,0-3.12-1,9.79,9.79,0,0,0-5.7,1.4c-7.13,3.54-6.79,4.92-9.36,5.16-3.84.36-4.84-2.71-8.49-1.83-2.28.55-2.45,1.87-5.81,3a17.77,17.77,0,0,1-5.27.86c-4.63.25-5.11-.85-9.47-.86-5.19,0-5,1.55-8.82,1-1.88-.28-4-1-5.59.21-.7.51-.69.92-1.4,1.51-1.64,1.37-4,1.1-5.27,1a89.48,89.48,0,0,0-12.59-.22c-4.05.25-4.11.82-7.1.65-2.76-.16-3.94-.72-6.24-.22-2,.44-1.66,1-4.51,2.05-3.54,1.32-4.51.7-7.1,2.15-1.82,1-1.48,1.41-3,2a15.42,15.42,0,0,1-5.92.86c-1.58,0-2.33-.16-3.44.33s-1,.94-2,1.5c-1.94,1.07-3.11-.1-5.37.75a7.09,7.09,0,0,0-2.8,2c-1.36,1.49-1.26,2.49-2.8,4.3a9.31,9.31,0,0,1-1.93,1.83c-2,1.35-3.87,1.05-7.1,1.4-4,.43-5,.84-5.49,1.07-1.21.54-1.18.78-3.66,2.48s-2.83,1.67-6.24,3.87c-3.05,2-2.54,1.85-3.87,2.58a34.72,34.72,0,0,1-6.77,2.69c-3,1-3.18.82-5.06,1.51a34.6,34.6,0,0,0-6,3,64.5,64.5,0,0,0-11.41,8.93c-3,2.77-4.47,4.21-5.8,6.34-1,1.54-1.26,2.44-2.8,4.74-1.24,1.83-2.37,3.23-3.34,4.41-3.16,3.87-3.5,3.55-4.08,4.94-1.14,2.71.23,3.68-1,6.57a11.15,11.15,0,0,1-3.44,4.3c-1.72,1.42-3.27,2-6,3a27.22,27.22,0,0,1-6.34,1.72,30,30,0,0,1-7.1-.11c-3.9-.33-5.84-.5-6.89-1.18-2.85-1.87-1.66-4.48-4.84-7.31-.52-.47-3.34-3-7-2.48a8,8,0,0,0-4.62,2.48,9.55,9.55,0,0,0-2.16,4.3c-.9,3.16,0,4-.86,5.81-.73,1.61-2.36,2.45-5.59,4.08-3.55,1.8-5.77,2.92-9.14,3.23a17.43,17.43,0,0,1-7.75-.86c-3.29-1.2-3.45-2.52-6-2.9-1.88-.28-3.65.38-7.21,1.72-3.28,1.23-5.33,2-7.53,3.76-2.59,2.09-2.17,3-4.73,5.6-3,3.05-4.15,2.43-9.47,6.23-4,2.87-6.19,4.48-7.31,7.43-.75,2,0,1.87-.75,6.24a46.75,46.75,0,0,1-2.91,9.46c-1.18,3.15-1.74,4.08-2.79,4.73s-1.73.47-4,1.19a43.06,43.06,0,0,0-4.2,1.83c-3.69,1.43-4.9.39-7.74,1.5-2.17.85-2,1.64-5,3.87-6.12,4.56-9.88,3.37-12.37,7.43-.82,1.34-.84,2.16-2.15,3.76a13,13,0,0,1-4.63,3.55c-1.73.78-1.76.31-4.19,1.08-3.4,1.07-3.83,2.14-7.64,3.33-.57.18-1.31.37-2.8.75s-3.44.89-5,1.19a36.52,36.52,0,0,1-8.17.53c-4.92-.06-5.83-.71-6.24-1.07-1.34-1.18-1.08-2.44-2.26-2.91-1.6-.62-4.11.89-5.16,2.91-1.32,2.52-.05,5.24.21,5.81,1.18,2.52,3,3.08,5.92,5.27,4,3,3.11,4,7.42,8a52.68,52.68,0,0,0,10,6.88c2.76,1.61,5,2.94,9.35,5.6a11.28,11.28,0,0,1,4.95,4.84,5.88,5.88,0,0,1,.75,3.44c-.35,2.51-2.65,2.83-5.16,6.24-1.23,1.67-2.54,3.45-2.47,5.7.08,2.73,2.16,4.72,4.19,6.67a43.35,43.35,0,0,0,6.13,4.73c1.76,1.09,2.43,1.31,2.69,2.15s-.12,2-3.44,6.35c-3,3.82-3.08,3.53-3.23,4.19-.72,3.28,3.61,4.53,5.49,11.08a26.06,26.06,0,0,1,1,5.81c0,2.24-.3,2.86,0,4.3.53,2.6,2.2,3.16,3.55,5.27,2.48,3.9,2,10,.11,14-1.16,2.46-2.89,4.21-2.26,6.56.35,1.32,1.06,1.35,1.29,2.58.5,2.69-2.67,3.6-3,7-.22,2.11.74,4.44,1.61,6.56.62,1.52,1,2.07.86,3-.31,1.55-1.79,1.85-2.69,3.87a6.73,6.73,0,0,0-.54,2.79c0,3.74,3.18,6.82,5.38,8.93,2.86,2.74,4.33,3.09,4.73,5.06.32,1.55-.52,1.72-.86,4.41-.54,4.32,1.29,6.57-.21,8.28-.65.74-1.14.49-1.83,1.4-.85,1.12-.71,2.3-.75,4.09a18.07,18.07,0,0,1-1.08,6.88c-1,2.35-2.15,2.17-2.69,3.77-.69,2.05.55,4.2,4.73,9.78,7.46,9.95,9.58,12.59,9.58,12.59,3.1,3.86,4,4.87,4,6.67,0,2.21-1.39,3.21-3.66,8.6-.13.3-1.21,2.87-1.51,4-2.47,9.2,19.73,24.75,24.64,28.19s9.27,7.55,14.52,10.32c3.87,2,7.25,3.33,7.64,6s-2.42,5.19-4.31,6.88c-5.56,5-9.32,3.34-12,7.42-1.3,1.94-1.58,4.41-2.16,9.36-.38,3.28-.57,4.92-.21,7,.58,3.38,1.92,4.93,2.15,8.82.05.82-.1,1.5-.11,3.34,0,2.9.2,3.19-.1,3.65-.89,1.34-3.6.33-9-.1-4.1-.33-3.89.14-9.57-.22-1-.06-3-.26-7.1-.64-8.25-.79-8.26-.85-9.15-.76-3.69.4-5.12,1.59-7.53.65-1.55-.61-1.62-1.37-3.12-2.48-3.58-2.64-6.21-.5-13.44-2.15a58.68,58.68,0,0,1-7.53-2.36c-3-1.22-3.79-1.86-5.49-1.83-2.89,0-4.06,2-6.67,3.12s-3.45,0-11.07-.65a70.38,70.38,0,0,0-9.58-.21c-5.92.31-5.45,1.2-9.89,1.29-6.56.12-9.53-1.79-12.8.32-1.63,1-1.07,1.88-2.59,2.8-2.92,1.76-5.33-.65-11.4-.86-3.83-.14-3.19.82-9.25,1.07-5,.21-6.79-.38-8,1-.64.74-.71,1.63,0,7.21.69,5.34,1,8,1.51,9,2,4.35,4.74,4,5.7,7.75a10.4,10.4,0,0,1-1.61,8,9.74,9.74,0,0,1-5.92,3.87c-2.32.37-2.78-.71-5.38-.22-2.39.45-2.5,1.46-5,1.83-1.17.18-1.16,0-4.73-.21-2.75-.13-4.15-.19-5.06.11-1.61.52-1.71,1.19-4.08,2.36a20.21,20.21,0,0,1-3.45,1.29,111.29,111.29,0,0,1-11.29,2.48c-8,1.48-7.13,2.12-11.83,2.58-4.22.41-5.21-.08-8.39.75-2.68.7-5.87,1.53-7.85,4s-1.84,6.22-1.29,13.45c.58,7.86,1.85,11.71-.33,13.44-1.08.87-1.69.15-3.76,1a10.7,10.7,0,0,0-6.46,9.36c0,1.36.38,1,1.72,5.7,1.46,5,1,5.32,1.94,6.67,1.55,2.25,4,3.23,7,4.41,3.15,1.25,3.76.8,5.81,2a10.3,10.3,0,0,1,4.41,4.63c1.52,3.5.15,7-.54,8.82a26.39,26.39,0,0,1-2.79,4.84c-2.9,4.41-3.51,4.08-4.09,5.91-.34,1.09-.19,3.42.11,8.07a15.53,15.53,0,0,1-.11,4.52,12,12,0,0,1-1.4,3.76c-.66,1.07-2.08,2.78-8.07,4.74-3.44,1.12-3.89.86-9,2.15-2.24.56-4.47,1.23-8.93,2.58-8.13,2.45-7.5,2.49-8.93,2.69-5.09.72-6.77-.61-11.08.75a19,19,0,0,0-4.94,2.48c-12.82,8.28-14.28,6.83-20,11.94s-4.83,7-12.26,13.33a81,81,0,0,1-7.64,5.71c-5.93,3.87-7.55,3.75-13.45,7.53s-4.76,4.21-9.25,6.66c-5.62,3.07-7.64,2.51-12.37,5.81a61.19,61.19,0,0,0-6.56,5.92c-3.61,3.5-3.53,3.78-8.07,8.39-5.27,5.36-5.9,5.51-6.88,7.53-1.71,3.53-.52,4.59-2.37,8.17-1.67,3.25-2.88,2.82-5.91,6.89s-2.06,5-5.27,9.25c-2.75,3.65-3.76,3.38-5.92,6.88s-1.77,4.94-3.44,5.81c-1.49.78-2.49.06-9.68-1.5-4.26-.93-4.38-.78-5.17-1.3-3.28-2.13-2.19-5.41-5.37-7.63-2.49-1.74-5.58-1.42-6.78-1.29-2.46.25-3.8,1.18-5.49,1.93-4.8,2.14-7,.43-15.06,1.08-6.2.5-5,1.52-11.61,2.15-4.86.46-5-.14-14.52.21a53.7,53.7,0,0,0-10.12,1.08c-.93.2-2.64.71-6,1.72-6.48,1.93-9.75,2.91-11.29,3.55-4,1.64-4.19,2.28-7.43,3.23s-5,1.46-7,1c-3.3-.84-3.65-3.31-7.85-4.41l-3.66-.54c-4.53-.66-5.06-.72-6.34-1-3-.58-2.74-.76-4.41-1-2.4-.29-4.33-.52-6.14.32-2.37,1.12-2.05,3-4.73,5.38-1.85,1.69-2.73,1.47-5.81,3.12-5.92,3.19-5.06,5.3-8.82,6.56-2,.67-2.09.06-11.61-.32a58.5,58.5,0,0,0-6.14-.11c-5.69.81-6.3,6.07-12.58,11.41-5.37,4.55-6.83,2.59-14.84,8.17-4.92,3.42-4.11,4-10.33,9-1.89,1.53-3.2,2.48-18.93,12.8-8,5.23-8.62,5.62-10.44,7-6,4.52-6.11,5.53-11.29,9-5.85,4-8.77,5.93-11.51,6.57-1.86.42-4.59.77-6.67,3A9.28,9.28,0,0,0,2.6,899.9,35.44,35.44,0,0,0,.67,911.84c.41,9.06,1.28,12.5,1.72,18.72.39,5.64.15,9.59-.32,17.1-.77,12.19-1.85,12-2,20.11-.17,7.41.7,8.6,1.62,22.27.33,5,.47,9.37.75,18.18.27,8.5.55,19.87.64,33.56,2.72,1.57,6.74,4,11.51,7.1,3.7,2.41,5.55,3.76,12.59,8.71,12.62,8.88,11.24,7.76,16.13,11.29,9,6.5,9.23,7.06,15.17,11.08,3.68,2.49,6.93,4.5,13.45,8.5,12.88,7.92,13,7.57,18,11,7.15,4.94,6.56,5.5,15.06,11.62,6.23,4.49,6.14,3.89,16.67,11,8.09,5.44,8.57,6.09,18.4,12.69,5.69,3.83,5.47,3.58,11.83,7.86,7.08,4.76,10.72,7.21,15.38,10.65,1.24.91,4.54,3.45,11.08,8.49,11.3,8.72,11.44,8.87,12.8,9.68,6.62,4,8.45,3.41,14.2,7.64,4.18,3.08,3.34,3.47,7.31,6.13,4.67,3.14,7,3.36,11.94,7.1.2.15,1.71,1.43,4.74,4,5.66,4.79,6.69,5.73,8.92,7.32,2.81,2,2.58,1.49,5.7,3.65,5,3.45,4.88,4.26,8.29,6.46,4.47,2.88,5.14,1.83,9.89,4.84,3.83,2.42,3.45,3.14,7.32,5.59,4.39,2.79,5,1.91,9.68,4.63s4.85,4,10.32,7.2c2.63,1.54,2.53,1.21,6.35,3.23a127.66,127.66,0,0,1,15.38,9.68c2.14,1.53,3.83,2.85,7.21,5.49,9.24,7.21,10.84,9,15.92,12.47,1.8,1.22,1.53.94,9.68,5.71,12.38,7.23,18.68,10.92,23.77,14.73,2.83,2.11,3.13,2.52,8.61,6.67,4.28,3.24,6.84,5.08,10.65,7.85,13.15,9.59,12.1,9.25,18.6,13.77,7.48,5.2,7.58,4.76,14.42,9.68,4.29,3.09,5.37,4.07,12.58,9.47,6.46,4.83,9.68,7.25,12.59,9.25,11.19,7.72,13.33,7.52,21.94,14.09,4.47,3.41,3.06,2.83,10.65,8.93s11.64,9.35,17.64,12.91c4.6,2.72,5.69,2.86,10.87,6.13,2.88,1.82,5,3.3,10.11,7.1,13.56,10,13.53,10.4,18.28,13.55,8.5,5.64,7.92,4,13.34,8.07,7.82,5.9,8.08,8.65,15.49,13.44,5.69,3.69,5.66,2.15,12,6.24,4.48,2.88,5.93,4.55,14.73,11.62,3.07,2.46,5.89,4.72,8.93,7,13.19,9.83,18.67,10.92,31.73,21,2.85,2.19,2.46,2,6.35,5,8.42,6.53,15.11,11,18.61,13.34,24.45,16.3,24.14,16,29.9,19.9,6.84,4.67,15.9,10.86,27.22,19.58,12.42,9.55,15.36,12.76,25.92,20.33,8.61,6.17,16,10.71,20.76,13.55L782.24,1582l20.11,13.12,31.95,22.06,21.94,15.48s28.83,19.37,29.26,19.47a7.71,7.71,0,0,1,1.62,1.3l-.76,34.95h15.28v5.06l8.06,3.12,8.47,2.8,5.63,2.79,5.37,6,.54,6.34,1.18,4.63,4.63,6.34,7.31,5.17,7.53,3.76,4.52,1.72,8.61-1.5,8.93-.76,7.09-3.22,6.24,1.07,4.2,4.41,2.15,5.49,4.52,8.28,4.3,2.58,5.81-1,6.56,2.48,3.23-1,3.55-2.47,3.12,2.79,1.39,4.2,12.37,5,12.37,2.9,7,3.12,7.53,2.9,3.55,1.08,2.79,1.4,2.8,1.61v38.3l-5.81,6-.65,11.08-4.84,6.56-.64,1.29,18.07,17h20v-3.12h13.77v-3.45l14.95.22.54-2.69,14-.21.75-2.8,13.77-.11-.75-4,15.27.11,1.4-2.37,12.26.11,2.8-3.12,13.34-.21,2.26-2.8,12.26.32,2.9-3.12,10.33-.43,2-2.58,15-.32,3.12-2.15,13.88.1,3.76-4.19,8.93-.32,3-2.16,12.27-.75,3.65-2.9,8.29-.65,147.36-133.81,50.34-31.41,36.36-22.91,48.94-30.87,73.9-46.15,74.86-47.43,76.7-48.3,46.14-30.33C1858.62,1417.49,1858.13,1415.59,1857.46,1414.49Z"/></g></g></svg>