<svg xmlns="http://www.w3.org/2000/svg" viewBox="0 0 2121.98 1871.59"><g id="Layer_2" data-name="Layer 2"><g id="Andorra"><path d="M1559,1321.69c3-1.07,4.66-1.64,6.52-2.17a51.41,51.41,0,0,1,10.41-1.9c3.89-.27,12-.83,20.07,3.8a57.62,57.62,0,0,1,6.65,5c3.7,3,6.93,5.91,11.29,10.17,8.73,8.52,9.2,9.9,17.06,17.36,3.54,3.36,6,5.47,8.4,7.6,5.44,4.73,8.22,7.13,11.42,9,3.84,2.2,7.27,4.16,12,4.35,5.2.19,9.18-1.84,13.55-4.07a49.94,49.94,0,0,0,9.15-6.11c6-5,9.24-9.39,17.06-19.67,9.77-12.85,14.7-19.32,16.94-21.71,7.27-7.77,8.88-7.68,11-12.34,3.77-8.13,2-15.15,6.9-18.45,2.5-1.68,3.41-.17,7-2.17,4.47-2.47,4-5.3,8.65-9.09,4.12-3.37,5.07-1.63,10.16-5.43,3.54-2.64,3.34-3.67,7.91-7.46,4.84-4,5.84-3.48,7.65-5.56,3.47-4,2.68-9.19,2.51-19.26-.1-5.7.32,6.13,1-26.46.44-21,.09-17.66.38-23.06,1-18.63,3.13-21.22.5-27.81a37.59,37.59,0,0,0-11-14.65c-.54-.4-2.59-1.85-5.14-3.53a44.44,44.44,0,0,1-5.4-3.39c-1.91-1.53-2.2-2.19-2.13-2.71.12-1,1.39-1,2.76-2.44a9.19,9.19,0,0,0,2-3.53c1.06-2.83.65-4.75.75-8.55s.19-5.64.75-7.19c1.34-3.68,3.49-3.93,6.15-9,1-1.84.83-2.07,1.75-4.07,2.79-6,5.71-7.38,10.92-14.25,3.56-4.7,2.37-4.29,5.14-7.59,4.8-5.71,7.1-5.41,9.53-10a22.82,22.82,0,0,0,2.89-9.5c.14-2.42-.2-4.19.88-6.51.89-1.92,1.55-1.6,3-3.93a20.11,20.11,0,0,0,2.63-7.46c.51-3.09-.11-3.21.5-4.35,1.33-2.47,4-1.46,8-4.34a15.77,15.77,0,0,0,3.64-3.66,19.15,19.15,0,0,0,2.76-6.38c1.32-4.69.42-5.45,1.75-9,.92-2.39,1.38-2.15,2.89-5.43a24,24,0,0,0,2.51-7.46c.46-4.32-1.72-4.89-2.76-11.39-.69-4.3.27-4-.5-10.18-.32-2.49-.65-4-1.13-8.14-.31-2.61-.46-3.91-.5-5-.26-6,1.5-7.53,2.25-15.6.32-3.37.38-6.51.38-6.51.09-4.34-.22-5.37.38-7.59a20.37,20.37,0,0,1,2.63-5.43,59.83,59.83,0,0,1,3.64-5.29c1.51-2,1.72-2.1,2-2.85.87-2.31,0-4.47-.5-6.38-.79-3.28.39-3.1.63-10.44.15-4.59.21-7.14-.75-10.31-.92-3-1.54-2.55-2.39-5.43a23.93,23.93,0,0,1-.25-11.53c.81-3.29,1.86-4.06,1.51-6.38s-1.74-3.36-1.26-4.88c.42-1.32,1.7-1.32,3.39-2.58,2.26-1.67,1.85-3.06,4.52-7.19,2.51-3.88,3.36-3.41,5.14-6.78a30.26,30.26,0,0,0,2.26-6.11,56.82,56.82,0,0,0,1.63-8.13c.55-4.2.11-3.93.5-5.7,1.26-5.71,5.24-5.86,8.28-12.62,1.37-3,.76-3.46,2.51-7a19.9,19.9,0,0,1,4.89-6.92c2.25-1.93,3-1.41,5-3,3.22-2.52,3.3-5.44,5.52-9.49,2.46-4.52,3.72-3.37,9.28-9.77,4.47-5.15,3.37-5.56,9.41-13,6.17-7.63,4.67-3.94,8.9-9,.89-1.05,2.33-2.85,4.27-2.85,1.17,0,1.82.68,3.13.41a5,5,0,0,0,2.64-1.76c2.49-2.64,1.94-4.7,3.88-6,.84-.55,1.69-.59,3.39-.68,3.46-.18,4.15,1.13,5.9.41s1.31-2,3.51-3.26c.92-.53,1.35-.53,3.89-1.22,2.71-.74,2.91-.93,4.51-1.36a35.68,35.68,0,0,1,8.91-1.08,57.84,57.84,0,0,1,6.9.41c5.31.48,7.21,1,8.9-.41,1.36-1.13.86-2.08,2.14-3,2.17-1.54,4.23.78,9.15,1.09,4.11.26,4.34-1.26,8.41-.68,3.39.48,3.89,1.63,5.77,1.09,3-.87,3-4.17,5.89-4.75.79-.16.95,0,5.14,1.49,4.71,1.62,4.76,1.44,6.78,2.31,3.39,1.46,3.05,1.88,5,2.44,2.2.62,4,.47,7.4.13,3.2-.31,4.81-.46,6-1,4.14-1.65,4.46-4.74,8.4-7.46,1.09-.75,2.23-1.32,8.41-2.71,12.35-2.79,12.69-1.61,16.18-3.26,4.23-2,2.31-3.07,11.66-11.66,7.7-7.09,9.32-6.65,12.67-11.53,1.73-2.51,2.59-4.51,5.14-6,3.42-2,6.22-.88,7.4-3s-1-4.24.13-6.37,3.83-1,7.53-2.85c2.62-1.31,2.1-2.27,6.52-6.51s6.1-4.39,8.65-8.14c2-3,2.24-4.76,2.26-5.7a9.67,9.67,0,0,0-2-5.83c-2.39-3.38-4.49-2.37-6.64-5.43-1-1.41-.56-1.63-2.39-7.33-.86-2.68-1.59-4.58-2.63-7.32-2.13-5.58-2.37-5.35-3.64-8.82-2.06-5.63-1.46-6.32-3.89-13.57-1.28-3.83-1.2-2.89-2.76-7.46-1.49-4.38-1.92-6.27-3.63-8.68a11,11,0,0,0-3.39-3.53c-1.6-.92-2.87-.84-12,.68-2.24.37-4.41.74-7.28,1.36a26.3,26.3,0,0,0-5.89,1.63c-2.57,1.28-2.64,2.33-5.9,4.88a27.21,27.21,0,0,1-15,6.11c-4.19.53-6.66.38-13.3.27-10.52-.19-9.11.11-12-.14-5.73-.48-6.11-1.18-14.17-2.17-4.42-.54-8.21-.81-10.29-.95-7.27-.5-8-.19-11.66-.81a34.58,34.58,0,0,1-10.16-3c-2.42-1.18-2.12-1.44-8.16-5.29a68.88,68.88,0,0,0-8.15-4.75,26.18,26.18,0,0,0-8.15-2.71c-2.66-.34-3.75.05-7.4.27-5.35.32-8,.48-10.67-.27-5.89-1.68-4.92-6-13.29-11.26-2.12-1.32-2-.89-9.54-4.88-3.47-1.83-3.25-1.8-7.52-4.07-4.93-2.62-5.25-2.7-6.4-3.53-3.73-2.69-3.11-3.88-6.4-6.51-3.13-2.51-4.37-2-11-5.43-4.86-2.51-4-2.68-6.15-3.53-6.45-2.51-9.5.86-20.45.41a30,30,0,0,1-9.28-1.36c-4.62-1.54-5-3.12-9.78-4.47a27.33,27.33,0,0,0-9.54-.95c-2.82.23-2.82.71-6.14,1.08a41.29,41.29,0,0,1-9.28-.13,41.73,41.73,0,0,1-10-1.77c-3.85-1.26-6.69-2.2-9-4.88-2.69-3.08-3.19-6.73-3.76-10.85-.75-5.4-.22-9.95.62-17.23.55-4.66,1-6.51.76-10.18-.26-3.86-1-4.69-1.51-8.41-.4-2.73-.26-3.84.5-15.05.58-8.59.87-12.91.63-14.11-.69-3.43-2-6.22-1.38-10.58a10.94,10.94,0,0,1,1.63-4.75,10.28,10.28,0,0,1,4.27-3.53c7.21-3.71,10.81-5.56,12.29-7.05a24.62,24.62,0,0,0,4.89-8c1.27-3,1.19-4.08,2.89-8,1.78-4.15,2.36-4.07,2.88-6.11,1.08-4.25-1.12-5.84-1.38-10.71-.4-7.55,4.34-13.6,6-15.74a19.93,19.93,0,0,1,7-6.1,47.43,47.43,0,0,1,5-1.77c6.07-2,6.75-1.9,7.65-3,1.28-1.53.34-2.17,1.89-7.19a44.72,44.72,0,0,1,3-7.19c1.54-3.15,2.22-3.91,2.51-4.21,1.94-2.05,3.3-1.64,4.76-2.85,3.87-3.2,2.69-13,.13-19a29.59,29.59,0,0,0-3.39-5.83c-2.71-3.55-3.88-3.15-5.27-5.7-1.73-3.17-1.67-7-1.63-9.9.05-3.55.7-5.69-.63-7.06a3.69,3.69,0,0,0-2.63-1c-3.28-.16-5.91,2.81-7.4,4.48-1.82,2.05-1.52,2.51-3.39,4.34a22.16,22.16,0,0,1-4.39,3.26c-2.62,1.49-3.15,1.12-5.27,2.44-2.63,1.64-2.4,2.6-4.26,3.66-3.14,1.8-6.75.76-8.91.14-4.12-1.19-4-2.76-8.65-4.21-.73-.22-.46-.1-6.77-1.36-5.79-1.14-6.16-1.28-6.65-1.49-2.9-1.25-3.06-2.35-6.78-4.07a14.44,14.44,0,0,0-4.39-1.49,11,11,0,0,0-6.52.95c-2.94,1.55-2.75,3.62-6.65,7.87-2,2.24-3.25,3.55-5.14,4.47-1.62.8-3.15,1-12.54-.13-8-1-8.92-1.4-11.29-.68a16.3,16.3,0,0,1-5.15,1.22c-.81,0-2.11,0-5.77-1.22-5-1.62-7.43-2.42-9.78-4.61-1.69-1.57-1.32-1.94-3.26-3.94a23.8,23.8,0,0,0-7.53-5.15c-7-3.31-6.39-8.15-14.8-14.79-.43-.34-.22-.16-13.8-7.73-8.07-4.5-10.38-5.81-13.79-8.14a86.74,86.74,0,0,1-9.54-7.33c-4.21-3.75-6.31-5.62-7.52-7.46-1.45-2.2-2.39-4.39-4.77-5.29a7.28,7.28,0,0,0-3.76-.27,12.2,12.2,0,0,0-4.52,2.17c-1,.68-1.47,1.07-1.88,1.36-2.71,1.88-5.31-.32-10.41-.41a26.44,26.44,0,0,0-10.66,2.17,10.83,10.83,0,0,1-3.39,1.09,7.77,7.77,0,0,1-3.64-.14c-2.21-.78-2.42-2.85-4.76-5.7a17.36,17.36,0,0,0-5.27-4.34c-3.16-1.59-4.07-.39-9-1.9-2.17-.66-2-.88-5.9-2.3-3.65-1.33-4-1.2-6.27-2a69,69,0,0,1-12.92-6.78,11.3,11.3,0,0,0-4.39-2c-2.12-.41-3.51.09-5.27.41-6.63,1.21-8.71-1.85-11.54.14-1.79,1.26-.63,2.25-3.39,7.05-2.44,4.27-4.39,5.26-5.77,9.36-.51,1.54.13,3.09-.87,4.07-.5.48-1,.57-3.14.95l-3.76.68c-4.12.32-5.13-1.55-7.65-.54a10.22,10.22,0,0,0-2.76,1.9,21.9,21.9,0,0,0-2.64,2.71c-2.47,2.88-2,2.93-3.13,3.93-.76.69-2.23,1.37-5.15,2.72-2.18,1-3.28,1.51-3.76,1.49-2.48-.09-3.09-2.66-5.89-3.8-2-.82-2.8.05-6.28.27-1.22.08-1.89,0-12.41-1.9-4.55-.83-6-1.11-7.91-.27-1.6.71-2.49,1.78-4.14,3.8-4.45,5.48-4,8.2-7.77,11.53a13.38,13.38,0,0,1-5.15,3,14,14,0,0,1-9.15-.82c-1-.4-1.89-.82-7.65-4.88-6.18-4.36-6.56-4.82-8.53-5.84-4.09-2.1-4.31-1-8.41-3a34.36,34.36,0,0,1-10.79-8.28,26,26,0,0,1-7.4-14.92c-.66-4.67.53-5.18-.37-9.77a19.91,19.91,0,0,0-2.39-6.51,19.38,19.38,0,0,0-2.5-3.25c-3.85-3.87-9.27-3.28-16.44-4.75-3.52-.73-2.61-.95-10.41-3.39s-17.44-5.46-29.22-6.92c-5.85-.73-8.67-.62-14.55-1.9a49.6,49.6,0,0,0-8-1.49c-4-.31-4.9.27-6.78-.68-1.54-.78-2.89-2.75-5.51-6.65-2.75-4.08-3.08-5.18-4.65-6a7.65,7.65,0,0,0-5.89,0c-7.71,2.52-11.43,8.88-19.32,14.11-9.85,6.53-14.24,3.38-20.32,10.45-1.51,1.76-2.93,3.92-5.89,5.15-4.51,1.88-9.42.26-11-.27-3.07-1-3.37-1.92-7.65-3.25-1.66-.52-1.52-.36-5.4-1.36-5.57-1.44-6-1.82-7.52-1.77-2.09.07-3.64.91-6.65,2.58-6.11,3.4-6,5.18-9.28,6.11-2.91.81-3.13-.53-9.91-1.09s-6.7.78-10.66-.13c-5.57-1.29-6.24-4-10.92-4.07-3.61,0-3.62,1.61-6.9,1.35a13.81,13.81,0,0,1-10.53-6.64c-1.13-2-1.52-4.3-3.77-5.84a11.45,11.45,0,0,0-2.5-1.22,13.63,13.63,0,0,0-4.14-.68c-2.53,0-4,1.15-7.15,2.72-6.61,3.29-7.77,2.23-10.41,4.88-1.71,1.71-.9,1.82-3.52,5.16a31,31,0,0,1-7.9,7.32,14.66,14.66,0,0,1-5.64,2.44c-2.54.42-4.4-.12-7.66-1.08-3.5-1-6.14-1.81-8.65-4.07a18.54,18.54,0,0,1-4-5.7c-4.56-8.48-6.84-12.72-9.16-17.23a125.12,125.12,0,0,0-6.15-11.12c-1.51-2.34-2.93-4.29-5.14-7.33-2.64-3.63-3.23-4.25-6.4-8.55-4.74-6.42-4.28-6.19-4.89-6.64-3.11-2.31-4.75-.62-15.93-1.63a68.65,68.65,0,0,0-7.78-.54,66,66,0,0,0-7.4.54c-1.68.14-12.27,1-19.19-5.29-1.69-1.54-1-1.53-6.77-8.28-3.68-4.29-3.4-3.63-4.77-5.42-4.45-5.81-3.62-7.75-7.78-12.48-.73-.84-2-2.21-4.39-4.75-2.56-2.75-3.26-3.44-3.88-4.75-.73-1.53-1-3.07-.88-6.78.2-9,1.82-10.45.62-14.11-.51-1.6-1.72-3.1-4.13-6.11a84.74,84.74,0,0,0-7.15-7.46c-4.8-4.81-7.2-7.22-7.91-8.82-2.48-5.59,1.08-7.5-1.25-15.73-1.29-4.56-2.77-5.35-3.51-10.31a24.6,24.6,0,0,0-1.38-6.11,12,12,0,0,0-2.76-4.74c-2.25-2-4.83-1-11.42-.41-5.6.49-8.41.73-11.54,0a24,24,0,0,1-10.41-5.83c-3.47-3.06-5.49-6.33-9.53-12.89s-3.84-7.54-6.27-9.77c-3.82-3.5-5.53-2.28-8.91-6.1-2.25-2.55-2.57-4.3-5.77-7.19-1.7-1.54-2.73-2.45-4.39-2.85-.72-.18-2.23-.42-7.4,1.35-3,1-2.76,1.21-4.89,1.9-5.39,1.76-7,.67-9.54,2.58-2.29,1.75-2,3.51-3.38,4.48-4.36,3.06-13.2-12.64-20.45-12.76a18.88,18.88,0,0,1-4.64-.54A12.91,12.91,0,0,1,807.68,13c-1.74-1.16-1.86-2-4.39-4.61,0,0-1.33-1.36-3.27-3-2.29-1.93-4.76-4-7.4-4.88-4.42-1.49-8.76.57-14.42,3.25-2.53,1.2-2.87,1.68-7,3.67-2.2,1.05-4.32,2.06-7.15,3.12-5.55,2.06-6.12,1.41-9.15,3.12-1.57.88-1.26,1-5.9,4.34-3.2,2.32-4.79,3.48-5.64,3.93a28.82,28.82,0,0,1-11.67,3c-3.32.11-5.3-.44-6.52,1.08-.8,1-.33,1.7-1,4.07a16.51,16.51,0,0,1-3.77,6.51c-2.08,2.34-2.89,2-4.26,4.07s-.8,3-2,4.48-3.05,1.94-6.65,2.71c-3.75.81-5.62,1.21-7.4.68-.72-.22-1.83-.66-5.89-4.88-4.92-5.11-5.47-6.71-8.41-8.14a14.69,14.69,0,0,0-5-1.36,19.16,19.16,0,0,0-9.54,1.49c-2.65,1.09-2.23,1.53-4.76,2.45-3.88,1.4-5,.42-7.15,1.89s-1.33,2.73-3.89,5.3a16.47,16.47,0,0,1-6.78,3.93c-1.47.47-2,.43-5.14,1.36-2.54.76-3.11,1.07-3.64,1.49-1,.79-1.6,2-2.76,4.48-1.43,3-2.15,4.54-2.5,6.51s-.15,2.68-.88,3.66c-.92,1.23-1.82.8-3.14,2s-.77,1.77-2.26,4.21a22.65,22.65,0,0,1-2.88,3.66,27.23,27.23,0,0,1-3.14,3.12,22,22,0,0,1-5.89,3.53,16.77,16.77,0,0,1-5.52,1.36c-1.69.08-3.94-.15-12.17-4.21-5.06-2.49-4.12-2.37-5.27-2.71-5.6-1.68-11.11.37-15.93,2.17-3.31,1.23-3.08,1.54-5.64,2.3-4.19,1.26-6.37.9-11.42,1.23-8.6.55-8.26,2-14.05,1.76-5-.18-4.83-1.24-10.41-1.49-.91,0-2.59-.09-12.29.81-8.16.76-9.91,1.07-11.79-.41-2.3-1.8-3-4.86-3.51-7.19-1.27-5.64.91-7.15-.38-11.12-.67-2.06-1.22-1.53-8-8.82a79.89,79.89,0,0,1-6.89-8.14c-.63-.86-1.92-2.69-3.39-5.15a71.24,71.24,0,0,1-4.89-9.77c-1.43-3.54-1.27-4-2.64-7.19-1.76-4.07-2.53-6.18-3.64-6.92-1.94-1.3-3.27,0-10.28,1.09-6.32,1-7.2.27-10,1.76-2.69,1.41-2.46,2.36-5.64,3.93-2.89,1.43-3.76,1-7.28,2.45-4.1,1.71-3.54,2.58-6,3.25-4.47,1.21-9.12-.89-11-1.76-2.95-1.34-4.18-2.65-6.53-2.31-1.66.25-1.36.95-3.89,1.9-3.57,1.35-5.25.33-8,2.17-1,.67-.84.83-1.76,1.36a9.54,9.54,0,0,1-6.15.81c-6.56-.73-6.76-1.81-8-1.22-3.74,1.74-4.06,12.07-3.14,18.72.71,5.12,2.11,7.77.88,12.08-.36,1.25-.5,1.09-2.51,6.1-1.75,4.37-1.68,4.56-2.89,7.46-2.56,6.17-3.08,5.74-3.38,7.87a17.7,17.7,0,0,0,1.75,9.5c1.46,3,3.18,4.16,3,6.78a30.79,30.79,0,0,1-.75,3.26c-.49,2.35-.47,3.22-.75,4.88a31.11,31.11,0,0,1-2.26,7.32,30.22,30.22,0,0,1-2.76,5.43c-1.73,2.65-2.56,2.72-4.39,5.16-2.29,3.05-1.87,4-3.76,6.92-1.75,2.66-2.78,2.87-6.9,6.64-4.67,4.29-4.24,4.85-8,8.28-5.86,5.31-6.62,3.72-9.66,7.19-.65.75-7.3,8.57-6,17.23.5,3.34,2.07,6.08.63,8.27-1,1.48-2.44,1.38-3.64,3.39-.87,1.46-.66,2.48-1,4.48-.82,4.84-3.12,5.34-3.64,8.82s1.29,6.52,2.51,8.54,3.87,4.4,9.16,9.09c2.34,2.09,3.68,3.2,4.51,5.43a9.83,9.83,0,0,1,.38,6c-.63,2.23-1.82,2.74-3.26,5a17.64,17.64,0,0,0-2.51,7.32c-1.53,5.32-.74,7.88.25,9.23,1.1,1.5,2.4,1.42,3.64,3.25,1.52,2.26.64,4,1.25,6.79,1.34,6.19,7.2,5.34,8.78,11.66.16.66,1.17,5,2.13,7.6a12.31,12.31,0,0,0,.88,1.9,11.85,11.85,0,0,0,1.76,2.31c2,2.13,2,8.41,2,10.17,0,6.6-1.4,8.12,0,11,.74,1.54,1.27,1.37,3.26,3.8a35.81,35.81,0,0,1,4.76,8.14c3.64,7.67,2.33,8.07,4.64,11.39,3.28,4.7,6.17,4.31,6.65,7.6.08.56,0,.89-2.38,8.82-.92,3-1.12,3.62-1.51,4.61-1.35,3.46-2,5.19-3.38,6.38-2.45,2.14-4.19.44-6.65,2.57-1.09.95-.58,1.13-3.26,6-1.37,2.47-1.68,2.75-3.64,6.24-1.79,3.2-1.44,2.82-2,3.67a26.66,26.66,0,0,1-6.39,6.37c-.49.39-.38.29-4.27,3.12-3.31,2.41-5,3.62-5.14,3.8a19.33,19.33,0,0,0-5,9.09c-.51,2.22-.28,3.23-1.25,4.88a8.83,8.83,0,0,1-3.89,3.4c-2.53,1.18-3.56.35-10.16.13-5.71-.19-6.42.38-8.41-.68s-3-2.42-4.14-1.9c-.84.4-.63,1.45-1.5,3.26-1,2-2.41,3.12-4.89,5a16,16,0,0,1-4,2.58c-3.84,1.43-5.6-.74-8.53.67-1.69.82-1.19,1.59-4.14,4.75s-3.86,2.73-7.15,6.11c-2,2.09-1.52,2.1-5,6-1.78,2-2.34,2.44-3.77,4.2-1.25,1.55-1.6,2.15-2.76,3.39-1.58,1.7-2.38,2.55-3.38,3s-1.92.5-6.78-.55c-2.56-.55-3.27-.78-4.64-1.08a43.55,43.55,0,0,0-8.15-.81c-10.59-.47-12.49-.31-16.43-1.23a22.26,22.26,0,0,1-5.27-1.76c-4.09-2.09-4.22-5.5-7.4-6.51-1.38-.44-1.48.1-6.15.81a43,43,0,0,1-10.28.68c-3.81-.29-4.25-1.08-8-1.22-4.46-.16-6-.47-6.65.54s-.05,2.1.38,4.07c.66,3.05.46,5.33.12,9.23-.44,5.08-2,5.76-3.51,11.94-.91,3.76-.17,5.21-1.25,9.63-.54,2.17-1.29,4.47-1.51,5.15-1,3.24-1.53,4-2.26,6.38a45.42,45.42,0,0,0-1.5,6.65,64.84,64.84,0,0,0-.75,11.12c0,2.22.09,3.14,0,5.56-.13,3.15-.21,4.75-.88,6.38-.77,1.84-1.87,2.84-3.89,4.61-4.67,4.1-6.29,3.2-7.78,5.83s-.17,4.15-2.13,7.06a10.16,10.16,0,0,1-3.64,3.25c-1.83,1-2.38.51-5.39,1.36-2.27.64-4.13,1.16-5.9,2.71a15.32,15.32,0,0,0-3.26,4.62c-1.45,2.69-1.28,3.52-2.51,5.15s-2.29,2-3.89,3.12c-4,2.8-3,4.41-6.89,7.73s-6.89,3.35-7.66,6.38c-.26,1-.14,1.91-.87,2.85s-1.79,1.26-4.14,1.63a36.28,36.28,0,0,1-6.65.68c-4.06-.07-4.48-.83-5.9-.14-2.65,1.29-3.47,5.08-3.63,6-.38,2,.14,2.41.87,8.41.63,5.12.44,6.37.25,7.19-.12.55-.24.94-2.13,5.15-2.26,5.06-2.3,5-2.51,5.7-.84,2.89-.59,5.28-.25,8.41a27.22,27.22,0,0,0,2.13,8.82c1.92,4.22,3.6,4.29,6.15,9.09,1.87,3.52,1,3.56,2.76,7.05,2.59,5.21,4.82,5.79,8.78,11.81.9,1.37,1.82,3.08,3.64,6.51,6.08,11.42,6.12,13.85,9.91,17.91,1.77,1.89,1.9,1.51,5.27,4.88s4.33,4.83,6.9,6.92a23.51,23.51,0,0,0,5.64,3.66c3.82,1.69,7.27,1.68,11.29,1.63,6.09-.08,7.56-1.29,10.16.27a38.39,38.39,0,0,0,4.26,2.71,26.86,26.86,0,0,0,3.89,1.63c3,1,3.58.51,5.77,1.49a13.78,13.78,0,0,1,3.39,2.17,14.47,14.47,0,0,1,3.39,4.48c1,2.24.56,2.88,1.75,9.63.26,1.45.48,2.69.88,4.34.94,3.89.91,4.89,1.76,5.84,1.29,1.45,2.31.67,3.26,1.9,1.34,1.74.46,4.78-.88,9.36a20.22,20.22,0,0,1-1.88,5c-1.74,2.92-3.2,2.91-5.65,5.56-.86.93-2.3,3.62-5.14,9s-3,5.87-4,7.06a21.16,21.16,0,0,1-6.4,5.15c-1.86.94-2.13.68-5.65,2.17-2.49,1.06-2.5,1.25-5.14,2.44-5.26,2.38-5.74,1.85-8.4,3.53-2.82,1.78-2.25,2.36-4.89,3.8-2.45,1.33-3.41,1.1-6.78,2.71a36.11,36.11,0,0,0-4.26,2.44c-4.06,2.66-4,3.63-7,5.3-2.69,1.48-2.88.79-5.77,2.44-2.62,1.49-2.85,2.29-5.39,3.8s-2.79,1-6.15,2.57c-2.88,1.39-5.75,2.78-8.28,5.7a22.38,22.38,0,0,1-2.88,3.26A16.69,16.69,0,0,1,102,799.8,41.74,41.74,0,0,1,97.71,801c-3.25,1-5.81,1.84-6.89,4.06-.75,1.53.08,1.9-.63,3.94-1,2.91-2.88,2.6-4.27,5.56-1.13,2.43-.28,3.47-1.63,5.16-1.11,1.39-2,1-3.38,2.3s-1.8,2.84-2.76,6.11a36,36,0,0,0-1.76,8.41c-.28,4-.41,6.08.25,8.27a5.09,5.09,0,0,1,.25,3.26c-.35,1-1,1.28-1.88,2.31a14.5,14.5,0,0,0-2,3.66c-1.6,3.57-1.38,4-2.63,6.78-1.54,3.41-2,3.1-2.63,5.29-.73,2.61-.11,3.29-1,5.56a9,9,0,0,1-2.88,4.07c-1.14.85-1.81.8-4.39,1.77-2.21.82-3.1.72-3.77,1.63a4.46,4.46,0,0,0-.62,2.84c0,5.16.28,7,.25,9.09-.07,4.63-1.36,5.1-.5,7.06,1,2.37,3.17,2.22,4.14,4.75.46,1.22.19,1.85-.13,5-.71,7,.19,8.25-1.13,10.85-.48,1-1.54,2-3.64,3.93-5.38,5.06-6.41,4.74-9.15,7.87-1.46,1.66-2.73,3.77-5.27,8-1.29,2.15-1.17,2.11-3.64,6.38-3.23,5.59-3.43,5.67-4.14,7.33a27.18,27.18,0,0,0-2.26,8.14c-.47,4.56.87,4.62.38,9-.31,2.78-1.15,5.35-2.51,9.49a20.35,20.35,0,0,0-1.25,4.89c-.2,2-.46,4.68,1,6.24.75.79,2.3,1.07,5.39,1.63a21.14,21.14,0,0,0,2.76.4c2.93.13,4.58-.94,8.66-2.3,2.82-.94,2.93-.73,4.76-1.36,3.88-1.33,6-3.19,10.17-6.37,7.84-6,7.35-4.74,14.42-10.32,5.26-4.15,5.33-4.68,7.65-6,1.63-.91,7.9-3.89,14.18-3.12a13.37,13.37,0,0,0,6.14-.41,16.59,16.59,0,0,0,2.89-1.36c3.89-2,5.73-1.69,8.65-2.85,3.27-1.29,3.25-2.58,7.28-5.42s4.76-2,12.42-5.7c4-1.91,7-3.65,11.91-6.51,6.33-3.68,6.59-4.19,9.66-5.56,1.67-.75,1.79-.7,11-3.53,7.85-2.41,9.87-3.1,13.42-3.26a22.21,22.21,0,0,1,6.4.41c3,.69,4.66,1.82,10.78,6,13.8,9.33,10.59,7,11.54,7.73,4.85,3.43,5.49,4.09,7.53,4.75,4.52,1.45,5.64-.46,9.78.95,1.8.61,4.13,2.62,8.79,6.65s5.79,5.58,6.64,6.91a27.12,27.12,0,0,1,2.76,6c2.16,6.51,3.08,16.47-.5,21.71a45.11,45.11,0,0,0-2.76,4.34,27.23,27.23,0,0,0-2.13,4.48c-1.07,3.17-.73,6-.38,8.68.13,1,.44,3,3,10.45,1.43,4.14,1.53,4.09,2.64,7.32,2.28,6.63,2.07,7.38,3.76,12.07,1,2.75.84,1.89,4.64,10.72,3,6.92,3.34,8.07,4.89,10.85,2.32,4.15,3.48,6.22,5.77,7.87,3.27,2.36,4.66,1,8.16,3.53,1.41,1,1.3,1.31,5.89,6.78,4,4.71,3.95,4.39,5.65,6.65a49.38,49.38,0,0,1,5.26,8.55c1.54,3.26,2.3,4.9,2.39,7.05.1,2.68-.77,3.73-.38,6.78a16.11,16.11,0,0,0,1.38,4.62,25.14,25.14,0,0,0,5,7.32c6.59,7.22,6.37,6.14,8.15,8.55,2,2.71,5.64,7.61,5.9,14,.09,2.26-.27,4.16.62,7.19a25.2,25.2,0,0,0,2.64,5.43c2.08,3.93,1.93,6.53,2.88,10.85.87,3.93,1.17,2.54,6.78,15.87s2.94,9.08,5.27,14.11a16.31,16.31,0,0,1,1.63,6,12.81,12.81,0,0,1-.76,5.83c-1.65,4-4.69,3.61-8.9,9.09-1.5,2-1.08,1.94-2.26,3.26-3.09,3.44-5.47,2.91-8.28,5.83-2,2.11-1.06,2.66-3.39,5.7a23.74,23.74,0,0,1-7.65,6.24c-5.32,3.06-7.86,2.61-9,5.29-1.09,2.51.63,4.12-.63,5.7-1.7,2.15-5.34-.24-9.4,2.44-.88.58-.59.61-2.26,1.9a38.34,38.34,0,0,1-5.65,3.53c-2,1.12-3.67,2.78-7,6.1-2.46,2.44-3.63,3.85-7.27,8-7.37,8.39-6.66,7.25-8.66,9.76-4.74,6-7.11,8.94-8.15,12.48-1.5,5.12-.29,7.82-2.89,11.53-.36.53-1.2,1.63-5.27,4.35a58.94,58.94,0,0,1-13,7.05c-6.47,2.42-7.57,1.38-11.17,3.93-2.28,1.63-2.17,2.29-6.27,5.7a38.74,38.74,0,0,1-7.4,5.29c-3.18,1.65-4.39,1.47-8.78,3a73.55,73.55,0,0,0-9.41,4.2c-6.51,3-14,2.94-28.85,2.72-7.64-.12-8.46-.52-15.68-.41-8.26.12-7.7.65-14.29.68-11.61,0-17.42.06-22-.82a13.73,13.73,0,0,0-8.65.55c-2.18,1-2.2,1.83-4.52,3.39-3,2-4.42,1.52-13.17,3.52-5.78,1.33-6.11,1.77-8.28,1.63-4.35-.28-4.93-2.2-7.9-1.76s-4.93,2.78-8.9,7.46c-3.11,3.66-2.63,4-5.27,6.92s-3.29,2.75-8.41,7.32a60,60,0,0,0-7,6.92c-2.95,3.58-2.53,4.18-5.14,6.92a44.58,44.58,0,0,1-6.9,5.7c-1.82,1.28-3.52,2.75-5.4,3.93a7.59,7.59,0,0,0-2.5,2.17A8.89,8.89,0,0,0,1.38,1396c-1,5.87-1.4,5.22-1.38,7A14.7,14.7,0,0,0,2.76,1411a18.21,18.21,0,0,0,7.4,6.65c1.92.91,3.16,1.49,4.77,1.22,2.42-.41,2.75-2.29,6.27-4.75a13.22,13.22,0,0,1,6.65-2.85,11.05,11.05,0,0,1,6.9,2c3.66,2.54,3.15,5.28,7.77,10.17a18.83,18.83,0,0,0,4.64,3.94c.76.42,6.17,3.36,12.05,1.49,3-1,3.32-2.29,6.64-2.85a18.33,18.33,0,0,1,5.77.13,52.61,52.61,0,0,1,7.4,1.77,67.86,67.86,0,0,0,9.41,1.9c3,.33,4.28.12,8.78,0,0,0,8.33-.24,16.18.27,6.29.4,9.43.61,12.55,1.49,7.8,2.22,13,6.85,18.06,11.53,4.4,4,4.95,5.36,14.17,16.42,13.18,15.8,15.5,17.23,17.69,23.19,1.23,3.35,4.57,13.41,1.76,21.17a29.68,29.68,0,0,0-2.14,8c-.29,2.68,0,3.74-.12,7.87-.13,4-.47,5.12-.63,7.73-.27,4.55.42,6.74,1.26,12.75.9,6.5,1.68,12.09,1.38,18.86-.27,5.92-1.11,7.22-1,13.7.09,5.52.14,8.28,1.51,10.58,2,3.45,4.47,2.8,12.92,7.6,4.28,2.44,6.5,3.7,9.15,6.24,4.71,4.52,3.72,6.3,7.78,9.09,3.34,2.3,6.4,2.74,7.4,5.83a7.43,7.43,0,0,1,.25,3.12c-.15,1.23-.59,2.3-2.88,5.7-1.07,1.58-1.6,2.37-2.39,3.39a60.3,60.3,0,0,1-8.15,9.09c-3.45,3.06-4,2.65-6.15,5.16a50.54,50.54,0,0,0-4,6c-2.49,4-3.74,6-4.14,7.19-1.17,3.42-.17,4.24-.75,10.44s-1.61,5.69-1.63,10,1.07,4.3,1.5,11.13c.21,3.24,0,4.56,1,6.24,1.34,2.32,3,2.07,5.27,3.93.92.75,1.65,1.6,6,12.62a77.71,77.71,0,0,1,3.13,8.68c.24.87.45,1.71,1.51,7.05,1.7,8.65,1.93,10.42,2.88,14.25.73,2.94,1.09,4.41,1.26,4.88.84,2.47,1.45,3.24,1.25,4.61a4.15,4.15,0,0,1-2.63,3.39c-.31.08-1.14.22-4.39-2-2.48-1.71-2.79-2.34-4.52-3.26-1.56-.83-3.5-1.86-4.39-1.08-1.24,1.08.1,5.24,1.51,7.87a16.36,16.36,0,0,0,2.63,3.66c3.47,3.64,6.23,8,9.41,11.94,4.77,5.92,7.15,8.88,9.91,12.75,3,4.23,4.1,6.15,7,9.36,3.12,3.43,4.69,5.14,7.15,6.38,4.74,2.37,6.37,0,12.92,2.17,3.37,1.1,3.21,1.81,8.28,3.8a64,64,0,0,0,8.78,2.71,122.33,122.33,0,0,0,25.09,3c10.84.29,9.28-.64,19.94-.27a172.45,172.45,0,0,1,20.57,1.9c6.26,1,11,2.09,12.42,2.44,7,1.7,10.37,3.05,16.81,5,11.46,3.52,11.33,2.45,19.44,5,15.5,4.92,16.69,9.05,31.36,13.16,6.18,1.73,7,1.3,15.18,3.66,3.78,1.1,6,1.9,9.28,1.77,4.71-.2,5.19-3,10.41-3.53,2.72-.25,3.19.37,8.28.27,2.67,0,4.58-.26,6-.41,5.65-.57,12.41-1.27,17.44-1.22,9.22.09,7.66,2.64,15.55,2.45,9-.22,12.87-3.58,18.69-.68a40.93,40.93,0,0,0,5.77,2.85,30.8,30.8,0,0,0,8,1.76c9,.93,18.66,8.44,27.22,15.06,6.48,5,5.81,5.5,8.4,6.51,7.13,2.76,12.81-.74,19.44,4.07,1.52,1.1,1.06,1.17,2.51,2.17,5,3.5,8.91,1.51,17.69,1.9,9.22.41,12.31,2.93,15.55.13,1.74-1.49,1.53-2.8,4.14-5.29a19.48,19.48,0,0,1,7.53-4.34c4.46-1.56,8.2-1.5,14.05-1.35,6.9.17,7.8,1,10.16-.14,3.92-1.89,3.65-5.26,7.27-9.09,4.32-4.56,9.88-5.26,17.69-6.24,3.4-.42,4.61-.29,17.68.14,16.92.55,18.22.42,20,.13a91.44,91.44,0,0,0,17.31-4.47c3.72-1.51,7.76-3.53,11.41-1.63,1.93,1,1.73,2,3.64,3.52,2.92,2.28,5.6,1.59,16.56.82,9.64-.68,10.25-.34,12.42-1.49,3.94-2.09,4.63-4.66,8.4-5.16a11.33,11.33,0,0,1,7.78,1.9c2.17,1.55,2.53,3.13,5,4.21a10.3,10.3,0,0,0,4.39.67c2.35,0,9.89-.23,12.55-5.42,1.1-2.16.92-4.33.63-8-.43-5.28-1.85-5.5-1.89-9.36,0-4.27,1.69-4.51,2.51-10.85.38-2.95,0-2.68.38-8.14.12-1.64.41-4.07,1-9,.68-5.59.95-7.33,2-9.5a17.81,17.81,0,0,0,1.25-2.44c1.1-3.3.1-6.73-.37-8.28-.53-1.74-.74-1.54-1.13-3.12-.5-2-.2-2.54-.63-5.56-.36-2.58-.67-2.83-.38-3.53.53-1.23,2-1.49,5-2.3,3.64-1,.64-.35,6-1.76,5.1-1.34,5.57-1.31,8.28-2.18a35.44,35.44,0,0,0,5.14-1.89,35.79,35.79,0,0,1,4.14-2,8,8,0,0,0,2.64-1.08,6.17,6.17,0,0,0,1.88-3.4c2.31-9.46,1.25-35.54,1.25-35.54-.53-13.11-.37-22.79-.37-22.79.08-5.38.27-8.76-.63-13.84-.94-5.29-2-6.59-2.63-11.26a40.71,40.71,0,0,1,.75-14c1.13-5.6,3.38-16.78,10-19.13a13.44,13.44,0,0,1,6.4-.4c2.27.47,2.43,1.23,4.52,1.89a13.14,13.14,0,0,0,11.66-2c2.41-1.89,2.14-3.31,4.14-3.93s3,.75,7.4,1.62c4.13.81,4.71-.17,6.52,1,2.2,1.35,1.92,3.13,4.39,6.92s3.47,3.06,6.4,7.06c1.74,2.36,2.77,4.63,4.77,9.08,2.08,4.64,3.07,7.52,3.76,9.23,4.13,10.26,12.86,17.28,19.19,22.38,4,3.2,7.38,5.25,9.66,9.23a15.66,15.66,0,0,0,3.14,4.07,12.52,12.52,0,0,0,4.76,2.85c2.28.67,3.44.11,8.66-.68,6.22-.94,5.93-.34,6.9-1,2.95-1.86,2.42-5.42,5.14-15.47.44-1.62,1.55-5,3.76-11.8,2.53-7.72,2.69-7.81,3.77-11.39,2.48-8.24,1.84-8.44,3.63-14,2.25-6.92,3.4-7.07,6.65-15.46,3.88-10,2.25-9.84,4.77-14.52,4.59-8.52,8.68-6.64,14.3-15.6,4.7-7.49,3.65-11.7,8.28-14.24,2.88-1.59,4.19-.45,10.28-2.44,2.8-.92,3-1.33,8.66-3.94,10.16-4.71,10.7-4,14.67-6.65s3.44-3.35,8.41-6.64c5.49-3.65,8.19-4.17,9.53-4.34a16,16,0,0,1,7.53.81c1.74.66,3,1.62,5.64,3.53,4.49,3.29,5.29,4.81,7.4,4.74,1.9-.06,2.21-1.32,4-1.08s2.27,1.42,4.64,3.39c.39.33,2,1.36,5.14,3.39,4.11,2.65,6.18,4,6.9,4.21a13.17,13.17,0,0,0,12.29-2.44c3.92-3,7.34-1.84,23.33-3.12,8.9-.72,13.35-1.08,14.43-1.36a13,13,0,0,1,5.39-.54c.77.09,1.41.26,6.15,2,2.42.91,3.19,1.22,4.76,1.77,3,1,4.46,1.53,5.27,1.35,1.88-.4,2.22-1.87,5-4.34a18.79,18.79,0,0,1,5-3.39,15.61,15.61,0,0,1,10.91-.14c1.84.61,1.62.89,5.14,2.58,4.32,2.07,4.93,1.79,8.91,3.53,4.84,2.11,5,3,11.41,6a52.73,52.73,0,0,0,5.52,2.3c4.62,1.58,8.67,3,11.54,1.09,1.4-.91,1.15-1.7,3.14-5.16,2.36-4.1,3.35-4.08,9.28-11.53,4.41-5.53,3.8-5.46,5.39-6.78,3.52-2.91,5.81-2.69,8.28-6.11a19.31,19.31,0,0,1,2.76-3.39,10,10,0,0,1,3.51-2.44c2.71-.77,4.83,2.2,12.55,8.41,3,2.4,4.48,3.6,5.89,4.21,4.45,1.9,8.68,1.27,11.67.81a19.79,19.79,0,0,0,8.28-2.71c2-1.27,1.47-1.51,5.14-4.61,4.09-3.46,4.54-3,8.28-6.24,2.22-2,2.53-2.53,3.76-2.85,3-.79,6,1.35,6.9,2,1.63,1.18,1.24,1.49,4.39,4.48,2.81,2.67,4,3.3,4.52,3.53a11.91,11.91,0,0,0,4.64,1.08c7.64.57,13.67.54,13.67.54,7.6,0,8,0,9.16-.4,3-1.07,2.42-2,8.15-5.16,2.76-1.53,4.21-2,7.78-4.2a36,36,0,0,0,3.38-2.17c2.23-2,2.83-4.06,6.28-14,1.23-3.55,1.59-4.52,2.5-5.83,1.58-2.24,2.41-2.06,5-4.88,2.88-3.11,2.48-4,4.77-5.84,2.52-2,3.26-1.18,5.14-3,2.08-2,2.76-4.57,3.64-7.87a30.07,30.07,0,0,0,1-7.46,29.42,29.42,0,0,0-1.13-8.55c-.64-2.22-.9-2-3.89-8.54-.22-.49-1.27-2.9-3.38-7.74-2.46-5.63-2.54-5.82-2.51-6.37.16-3.63,3.7-4,6.9-10.18a26.7,26.7,0,0,0,2.26-6.24,30.48,30.48,0,0,0,.62-8.54c-.26-4.61-1.16-4.59-1.75-9.5-.42-3.45-.28-6.19,0-11.67.16-3.17.4-5.58.62-7.87.5-4.92.89-7.17,1.26-10.17,1.17-9.49.14-10.43,1.13-18.18.84-6.62,1.5-5.2,2.76-13.16,1.68-10.69.53-13.47,3.26-18.58a25.94,25.94,0,0,1,6.4-7.6,30,30,0,0,1,9.78-5.56c2.68-.92,4.43-1.09,10.54-1.63,13.5-1.2,13.52-1.12,17.06-1.49,10.32-1.09,9.64-1.66,14.29-1.63,4.21,0,6.23.51,10-.41,4.2-1,4-2.14,7.78-2.71s4.8.48,10.16-.14a37,37,0,0,0,5.14-1c3.87-1,5-2,7.4-2.71,3.24-1,3.53,0,10.91,0,5,0,7.85,0,11.54-1.08C1553.3,1324,1553.27,1323.71,1559,1321.69Z"/></g></g></svg>