<svg xmlns="http://www.w3.org/2000/svg" viewBox="0 0 1872.38 1883.72"><g id="Layer_2" data-name="Layer 2"><g id="Angola"><path d="M7,1641.19c-3.42.16-6.33,4-6.9,7.55-.39,2.39.48,4.46,2.21,8.59a36.37,36.37,0,0,0,3.39,6.12c1.72,2.66,2.59,4,3.38,3.9,1.77-.21,2.42-6,2.61-7.68.58-5.23-.7-5.18-.26-11.06.2-2.79.61-4.46-.53-5.86A5.1,5.1,0,0,0,7,1641.19Z"/><path d="M1870.83,996.08c1.39,1.91.52,3.8-1.19,7.53-.48,1-1,2.26-1.69,3.73a27.53,27.53,0,0,1-3.67,6.58,21.29,21.29,0,0,1-3.43,3.47c-.41.37-.86.76-1.36,1.24a39.67,39.67,0,0,0-6.17,7c-1.75,2.76-2,4.9-2.29,8.16a53.13,53.13,0,0,1-2.13,11.22l-.13.41c-.3,1-.78,2.47-1.28,4.53-.41,1.76-.59,2.76-.74,3.73s-.32,1.89-.69,3.34a23.22,23.22,0,0,1-1.54,4.47,5.69,5.69,0,0,0-.63,2.13,12,12,0,0,0,1.08,6.72,15.3,15.3,0,0,0,2.43,3.19,26.56,26.56,0,0,0,3.84,3.61,48.36,48.36,0,0,1,4.38,3.81c.83.81,1.46,1.46,2,2a7.94,7.94,0,0,0,2.6,2.15l.22.08a26.16,26.16,0,0,1,3.3,1.74,16.54,16.54,0,0,1,2.71,2.13c1.37,1.32,3.06,3,2.12,4.94-.67,1.43-2.08,1.5-3.12,1.54-.54,0-1.28.07-2.39.22-.32,0-.78.09-1.41.13-.28,0-.52,0-.76,0s-.41,0-.65,0H1858c-15.77,0-32.41-.37-33.08-.39-4.06,0-7.94,0-11.68,0-14.55,0-26.66.15-36.38.28-6,.08-11.19.15-15.45.15h-.32c-25,.07-44.89.11-60.49.11-23.84,0-36.34-.11-43.15-.37-1.08,0-27-1-52.13-1-16.55,0-28.73.41-36.19,1.24-.32,0-.67.11-1,.19a14.54,14.54,0,0,1-3.17.39,10.9,10.9,0,0,1-2.19-.21l-.65-.13a6.11,6.11,0,0,0-1-.2c0,.09-.06.18-.09.33a1.79,1.79,0,0,0,0,.86c.46,1.91.39,13.33.07,52.62-.07,6.61-.13,9.87-.22,14.38-.11,5.27-.24,11.84-.43,27-.2,15.45-.22,19.76-.33,35.88,0,6.71-.11,15.45-.19,27.9-.22,30.53-.24,40.46-.26,48,0,21.22,0,38.47.13,49.19.06,10,.21,21.54.52,46.73.15,13,.28,22.52.37,29.81.26,19.41.3,22.91.28,31.52,0,6.07,0,8.63-.11,13.1-.06,5-.15,12.63-.28,30.53-.13,18.66-.15,26.51-.15,30.74,0,3.93,0,4.75-.11,8.22-.13,5.38,0,10.89.06,16.23.2,8.94.37,18.18-.6,27.34a21.69,21.69,0,0,0,.13,5.64,22.14,22.14,0,0,0,.82,3.43,11.48,11.48,0,0,0,1.37,3.38,3.33,3.33,0,0,0,2,.89,7.11,7.11,0,0,1,4.54,2.65,13.55,13.55,0,0,1,1.71,3.36,39.33,39.33,0,0,1,1.67,5.16c.2.72.35,1.33.56,2a9.7,9.7,0,0,0,2.85,4.17,9,9,0,0,1,3.12,5.45,7.57,7.57,0,0,1-.37,3.86,5.87,5.87,0,0,0-.39,2.54c.09,3,1.35,5.16,3.73,9.09a49.24,49.24,0,0,0,5.23,7.11c2.69,3,4.77,4.73,9.37,8.42.94.76,2,1.58,3.13,2.52,4.42,3.6,6.66,5.42,9,7.46a132.17,132.17,0,0,1,15.86,15.62,60.47,60.47,0,0,1,4.06,5.34,36.66,36.66,0,0,0,3.8,4.73,63.22,63.22,0,0,0,4.55,4.44A62.51,62.51,0,0,1,1642,1699a48.58,48.58,0,0,1,3.8,4.71,44.15,44.15,0,0,0,3.51,4.42,52.87,52.87,0,0,0,3.71,3.78c1.3,1.24,3.28,3.1,6.73,6.53,5.14,5.1,7.42,7.51,8.94,9.2,2.06,2.28,3.84,4.23,6,7,1.63,2.15,2.41,3.38,3,4.27a14.88,14.88,0,0,0,1.84,2.5,32.64,32.64,0,0,0,8.07,6.22,27.91,27.91,0,0,0,4.06,2,23.76,23.76,0,0,1,4.38,2.25,21.85,21.85,0,0,1,5,4.41,32.68,32.68,0,0,0,4.82,4.55,28.85,28.85,0,0,0,3.68,2.54,19,19,0,0,1,3.89,3,39.49,39.49,0,0,1,6.48,8.27,25.05,25.05,0,0,1,2.41,5,8.9,8.9,0,0,0,1.5,2.86,10,10,0,0,0,3.21,2.89,24.88,24.88,0,0,1,7.94,7.94A17.83,17.83,0,0,0,1738,1797a19.37,19.37,0,0,0,5.77,4.4,29.44,29.44,0,0,0,6.29,1.68c2.5.52,3.91.71,4.93.84a10.53,10.53,0,0,1,3.77,1,12.79,12.79,0,0,1,3.15,2.08,5.9,5.9,0,0,0,2.41,1.48c.41.15.76.28,1.12.39a11.28,11.28,0,0,1,3.84,1.87,10,10,0,0,1,2.83,3.16c.52,1,1.6,2.95.93,5.08s-2.48,2.88-4.41,3.8a37,37,0,0,1-6.79,2.73,16.79,16.79,0,0,1-4.25.52c-.39,0-.78,0-1.19,0l-1.37,0c-.84,0-1.63,0-2.49.11a54.88,54.88,0,0,0-8.53,1.62c-5.55,1.33-9.68,2.63-11,3l-.15,0c-7.94,2.5-17,3.78-35.11,6.34l-.26,0a113.15,113.15,0,0,0-12,2.26c-2.35.58-3.35.91-4.17,1.17a20.4,20.4,0,0,1-3.1.8,35.19,35.19,0,0,1-7.12.67l-1.06,0H1669a16.86,16.86,0,0,0-5.73.85,12.79,12.79,0,0,0-2.48,1.08,15.27,15.27,0,0,1-3.71,1.54,27.24,27.24,0,0,1-6.5,1.11c-1.24.11-2.52.22-4.13.5a28.91,28.91,0,0,0-5.81,1.76c-.82.32-1.69.67-2.71,1a30.61,30.61,0,0,1-9.4,1.75c-2.64.2-6.27.48-12.32,1.48-2.39.39-7.33,1.3-17.27,3.1-8,1.48-10,1.87-13.1,2.71-2.71.74-4.12,1.24-5.47,1.72s-2.91,1-5.73,1.8a125.18,125.18,0,0,1-14.29,2.77c-4.15.63-6.12.83-8,1-1.54.15-3,.31-5.66.7a133.76,133.76,0,0,0-13.8,2.82c-3.43.8-7.7,1.82-13.82,3.14-5.81,1.24-7.68,1.65-8.39,1.72-.89.11-1.61.15-2.26.19-1.69.13-2.19.18-2.93.65a4.22,4.22,0,0,0-1.3,1.43,8,8,0,0,1-3,2.93,10.89,10.89,0,0,1-5.47,1.33h-.61a9.75,9.75,0,0,1-3.32-.65,11.9,11.9,0,0,0-2.47-.7,20.47,20.47,0,0,0-3.41-.28,21.58,21.58,0,0,0-2.56.17,8,8,0,0,0-1.45.33,14.12,14.12,0,0,1-2.56.58,19.07,19.07,0,0,1-3.49.29h-.2a10.57,10.57,0,0,0-2.32.21c-.63.13-1.15.29-1.6.39a9.2,9.2,0,0,1-2.59.46,5.57,5.57,0,0,1-1.64-.24,9.4,9.4,0,0,1-2.65-1.28,14.89,14.89,0,0,1-2.52-2,9.87,9.87,0,0,0-.78-.68,3.42,3.42,0,0,0-1.95-.45c-.31,0-.59,0-.87,0l-1,0h-.13c-3.54,0-5.62-1.62-7.84-3.3a25.43,25.43,0,0,0-5.75-3.51c-2.47-1.06-4.53-1.32-9.06-1.93a58.73,58.73,0,0,0-7.84-.61,39.49,39.49,0,0,0-6.85.59c-1.39.26-4.15,1.17-8.7,2.67-11.87,3.92-19,6.29-21.26,8.18l-.15.13a16.27,16.27,0,0,1-5.51,3.27,15.8,15.8,0,0,1-5,.83,13.06,13.06,0,0,1-3.26-.4,40.38,40.38,0,0,1-5.72-2.34l-.61-.26a29.73,29.73,0,0,0-3-1.23,16.4,16.4,0,0,0-2.73-.81,8.5,8.5,0,0,0-1.21-.11,12.6,12.6,0,0,0-1.74.16,9.77,9.77,0,0,1-1.5.15,4.17,4.17,0,0,1-2.69-.91,3.83,3.83,0,0,1-1.36-2.13,13.32,13.32,0,0,0-1.93.41,26.82,26.82,0,0,1-4.67.89c-.59,0-1.19.07-1.78.07a35.15,35.15,0,0,1-8.72-1.43c-1.78-.46-3-.89-4.73-1.5-5.12-1.78-7.94-2.78-10.15-4.9a10.85,10.85,0,0,1-2.13-2.78,3.39,3.39,0,0,0-1.26-1.43,4.5,4.5,0,0,0-2-.78,19,19,0,0,1-3.78-1.24,30.08,30.08,0,0,1-6.16-3.78c-.58-.45-1.06-.84-1.47-1.19a7.61,7.61,0,0,0-2.3-1.5,6.06,6.06,0,0,0-2.2-.56,3.44,3.44,0,0,0-.43,0c-.65.11-.93.39-1.69,1.2a10.1,10.1,0,0,1-3.17,2.51,5.52,5.52,0,0,1-2.65.63c-.32,0-.67,0-1.08,0s-1.13-.09-2-.09-1.5.05-2.37.11a31.06,31.06,0,0,0-7.83,1.32l-1.19.42a18.38,18.38,0,0,1-3.39,1,17.61,17.61,0,0,1-3.6.41,11.4,11.4,0,0,1-1.76-.13,11.77,11.77,0,0,1-4.29-1.45,2.88,2.88,0,0,0-1.35-.52,1.32,1.32,0,0,0-.28,0,1.42,1.42,0,0,0-.8.37,6,6,0,0,1-2.85,1.19,6.71,6.71,0,0,1-1,.07,9.74,9.74,0,0,1-4.3-1.24c-.43-.22-.93-.43-1.45-.67a41.26,41.26,0,0,0-6.75-1.56,60.18,60.18,0,0,0-11.37-1,58.54,58.54,0,0,0-7.09.39c-.74.11-1.45.19-2.41.34-1.41.22-3.36.5-6.81,1a44.29,44.29,0,0,1-5.38.52,11.11,11.11,0,0,1-4.27-.78,19.53,19.53,0,0,1-4.84-2.78,21.6,21.6,0,0,1-2.26-2l-.61-.58a1.48,1.48,0,0,0-.3.26,8.81,8.81,0,0,1-2.8,1.73,8.21,8.21,0,0,1-3,.55c-.69,0-1.38,0-2.3-.13h-.17c-1-.09-2-.13-3-.18-1.61-.08-3.26-.17-4.91-.37a27.21,27.21,0,0,0-3.23-.21c-.65,0-1.28,0-2.06.06-1.3,0-3.06.11-5.81.11-1.41,0-3.06,0-5.08-.07-2.45,0-3.6-.1-4.62-.15s-2-.08-4.08-.11h-4.9a11.3,11.3,0,0,1-3.15-.32,12.6,12.6,0,0,1-5-2.5,12,12,0,0,0-3.84-2.1,8.22,8.22,0,0,0-3.09-.54,16.21,16.21,0,0,1-5.2-.89c-1-.31-1.8-.61-2.52-.89a8.25,8.25,0,0,0-2.95-.78,4.76,4.76,0,0,0-.72.06,5.37,5.37,0,0,0-1.1.31,20.76,20.76,0,0,1-2.54.71,28.3,28.3,0,0,1-5.21.57c-5.18.15-7,.21-8.15.28-1.37.06-1.89.09-5.56.11-1.84,0-3.38,0-4.71,0-5.2,0-6.9-.09-7.55-.13a13.41,13.41,0,0,1-2.4.24,9.78,9.78,0,0,1-4.06-.85,9.52,9.52,0,0,1-2.15-1.3,20.91,20.91,0,0,0-4.12-2.3c-.93-.43-2-.91-3.12-1.54-6.3-3.34-9.12-4.84-10.46-5.53s-1.33-.72-1.65-.91c-7.12-4.45-12-10-17.14-15.78-.39-.43-.78-.89-1.17-1.34-1.5-1.69-3.17-3.62-5.77-6.23-1.76-1.78-2.61-2.51-3.43-3.25s-1.56-1.35-3-2.74c-3.28-3.32-5.81-6.53-10.85-13-1.73-2.23-2.71-3.47-3.6-4.84-.26-.36-.52-.78-.8-1.21-.72-1.13-1.61-2.52-2.8-4.19a17.21,17.21,0,0,0-1.87-2.19,7.29,7.29,0,0,0-1.36-1.21,1.66,1.66,0,0,0-.94-.22,7.52,7.52,0,0,0-2.73.71c-2.43,1-8.07,1.46-19.46,1.46-4.93,0-10.33-.07-16-.15l-6.1-.09c-34.6-.43-71.29-.65-112.14-.65h-5.51c-19.25,0-30.42.06-43.35.15-14.62.09-32.8.17-69,.24-17.25,0-29.25,0-38.25,0-18.87,0-24.58,0-37.73.24-10,.17-17.89.37-24.84.54-10.76.26-19.28.46-30.15.46-4.13,0-8.38,0-13-.09-6.73-.09-11.5-.19-16.55-.32-7.1-.18-14.45-.35-27.84-.46-6,0-10.52-.07-14.32-.07l-4.08,0h-3.38c-5.66,0-10.44,0-18.07-.22-7.81-.17-12.67-.39-16.21-.52s-5.64-.24-8.37-.24c-1.63,0-3.39,0-5.51.11-7.05.24-11.35.67-15.12,1a94.72,94.72,0,0,1-10.79.67c-1.69,0-3.49,0-5.51-.15-2.82-.15-5.23-.35-7.57-.54-3.95-.35-7.7-.65-13.15-.65-.89,0-1.82,0-2.82,0a67.06,67.06,0,0,0-8,.5,38.42,38.42,0,0,1-4.95.3l-1.49,0c-4.88-.11-8.83-.56-12.32-1a65.06,65.06,0,0,0-7.36-.61,15.09,15.09,0,0,0-5.9,1c-.39.15-.8.34-1.26.54a45,45,0,0,1-6.12,2.26c-.8.24-1.47.39-2.1.54a14.28,14.28,0,0,0-3.6,1.26,9.35,9.35,0,0,0-2.13,1.45A5.93,5.93,0,0,1,370,1791a6.07,6.07,0,0,1-1.63.24c-2.12,0-3.75-1.21-5.35-2.36a16.88,16.88,0,0,0-3.93-2.37,9.17,9.17,0,0,0-3.39-.67,16.75,16.75,0,0,0-4.1.65,19.29,19.29,0,0,1-4.79.76,11.26,11.26,0,0,1-5-1.19c-1.87-.89-3.69-2.8-7.66-7a53.36,53.36,0,0,1-4.43-5.1,23.14,23.14,0,0,0-2.3-2.66c-4.38-4.32-9.28-6.32-14-8.25-2.28-.93-3.93-1.45-5.38-1.91a21.77,21.77,0,0,1-7.14-3.27,16.63,16.63,0,0,1-3.52-3.17,23,23,0,0,0-3-2.93,33.35,33.35,0,0,0-7.42-4.62c-2.56-1.22-4.75-2.28-6.79-5.36a8.81,8.81,0,0,1-1.5-3.56,16.7,16.7,0,0,0-1.52-4.25,30.09,30.09,0,0,0-6.92-9.87,22,22,0,0,0-8.81-5.25,18.06,18.06,0,0,0-5.48-.78c-1.26,0-2.5.08-4,.21a30.79,30.79,0,0,0-8.89,1.89,13,13,0,0,1-4.62,1,9.64,9.64,0,0,1-2.74-.41,16,16,0,0,1-5.81-3.25c-1.37-1.07-2.19-1.67-3.17-1.67a2.07,2.07,0,0,0-.48,0,2,2,0,0,0-1.08.5,11.44,11.44,0,0,1-3.12,1.6,15.16,15.16,0,0,1-5.41.83c-1.21,0-2.53-.07-4.42-.18l-5.49-.32c-2.76-.15-3.91-.22-4.3-.22-1.67.28-2.25.7-4.23,2.13-1.26.91-3,2.15-5.66,3.82a70.29,70.29,0,0,1-7.72,4.18,14.18,14.18,0,0,0-4.56,3,10.85,10.85,0,0,0-3,4.45,15.84,15.84,0,0,1-3.43,5.38c-2.39,2.52-4,3.19-16.51,8.29l-3.25,1.34c-1.39.57-2.78,1.11-4.19,1.68-2.3.93-4.67,1.88-7,2.86s-4.34,1.86-5.86,2.54c-4.72,2.06-6.13,2.69-9.06,2.84-.37,0-.74,0-1.11,0a27.92,27.92,0,0,1-12.65-3.25,14.2,14.2,0,0,1-3.36-2.32,3.38,3.38,0,0,0-1.3-.87,6.7,6.7,0,0,0-2.8-.61c-2.06,0-4.23.89-6.53,1.84-2.74,1.13-5.86,2.41-9.42,2.41a14.87,14.87,0,0,1-4-.56c-4.34-1.19-8-4.19-9.63-5.47a26.93,26.93,0,0,1-3.65-3.58,8.69,8.69,0,0,0-2.15-2,12.8,12.8,0,0,0-7.29-1.86,50.48,50.48,0,0,0-5.22.37,38.54,38.54,0,0,0-13.93,4.31,35.39,35.39,0,0,0-7,5,32,32,0,0,1-9.61,6.17,20.19,20.19,0,0,1-7.68,2,7.44,7.44,0,0,1-4.29-1.26c-1.26-.87-2.11-2.1-3-4.36a31.72,31.72,0,0,1-2-13.56,82.91,82.91,0,0,1,1.13-9.11c.17-1.07.37-2.28.58-3.71,1.56-10.07,2.24-14.67,1.93-18.64a29.16,29.16,0,0,0-.45-3.62,30.37,30.37,0,0,1-.46-5.25c0-4.19-.06-9.4,3.17-13.69a11.77,11.77,0,0,1,1.56-1.71,7.33,7.33,0,0,0,1.37-1.59,16.23,16.23,0,0,0,2.41-6.36c1.12-5.79,1.65-8.41,1.65-13.38a38.61,38.61,0,0,0-1-10.09,27.26,27.26,0,0,1-.78-8.76c.11-2.2.35-4,.55-5.69.43-3.45.75-5.94-.22-9.83a9.77,9.77,0,0,0-.91-2.51,14.31,14.31,0,0,1-1.3-3.43c-1.39-5.29-1-9.46-.63-13.49a40.26,40.26,0,0,0,.19-8.31l-.06-.46a51.8,51.8,0,0,1-.35-5.36c0-.78,0-1.3,0-1.78a17.46,17.46,0,0,0,0-1.75,15.84,15.84,0,0,0-.5-3.17c-.15-.59-.28-1.17-.39-1.82a13.79,13.79,0,0,1,.22-5.25c.13-.76.28-1.65.43-2.8a57.94,57.94,0,0,0,.37-8.55c0-6.47-.07-9.72-1.41-12.11a7.89,7.89,0,0,0-2.56-2.75,11.55,11.55,0,0,1-4-5,20.09,20.09,0,0,1-1.62-8.77,18.61,18.61,0,0,1,1-6,15.78,15.78,0,0,1,1.78-3.38,4.69,4.69,0,0,0,1-2.28,8.93,8.93,0,0,0,.07-1.32,5,5,0,0,1,.82-3.28,6.26,6.26,0,0,1,5.06-2.47h.17a6.08,6.08,0,0,1,3.67,1.47,5.22,5.22,0,0,0,1.71,1,3.83,3.83,0,0,0,1.22.17,10.17,10.17,0,0,0,2.21-.32,10.53,10.53,0,0,0,5.73-3.69,14.5,14.5,0,0,0,2.47-5.14,10.7,10.7,0,0,0,.43-1.87,16.28,16.28,0,0,1,.59-2.65c.8-2.73,1.5-5.09,3.52-7.16a6.85,6.85,0,0,1,2.12-1.51,9.34,9.34,0,0,0,2.11-1.39,19.17,19.17,0,0,0,3.38-3.5,19.5,19.5,0,0,0,1.65-2.69,22.55,22.55,0,0,0,1.78-5,48,48,0,0,0,.71-6.07l.05-.48c.15-1.56.26-2.8.34-4.4.16-2.71.16-4.62.16-6.84,0-1.86,0-4,.1-7,.2-6.3.53-7.84,1.44-9.55a14.15,14.15,0,0,1,.8-1.35,7,7,0,0,0,1.08-2.32,20.88,20.88,0,0,0,.33-4.47c0-1.32,0-1.82,0-2.19s0-.69,0-1.32c.15-1.93.48-5.94,3.34-8.48a24.28,24.28,0,0,1,2.56-1.87c.54-.37.91-.58,1.19-.76a4.93,4.93,0,0,0,.63-.45,9.06,9.06,0,0,0,1.11-1.72l.32-.54a12.46,12.46,0,0,0,.87-1.63c.24-.47.5-1,1-1.75a16.5,16.5,0,0,1,1.78-2.54l.17-.2c0-.22,0-.35-.48-1.17a9.22,9.22,0,0,1-1.34-3.17c-.39-2,.15-3.12,1-4.9.41-.91.93-2,1.58-3.71a35,35,0,0,0,1.56-5.1,15.89,15.89,0,0,1,1.82-4.81c.37-.68.72-1.22,1-1.7a6.41,6.41,0,0,0,1.09-2.36,8.29,8.29,0,0,0,.17-1.59,7.16,7.16,0,0,1,1-3.66,5.84,5.84,0,0,1,1.82-1.91.52.52,0,0,0,.26-.22c.11-.22.09-.39-.15-1.23a10.8,10.8,0,0,1-.43-3.15c.11-2.78,1.54-4.64,2.93-6.44a13.79,13.79,0,0,1,3.38-3.17,11.06,11.06,0,0,0,2.87-2.69,9,9,0,0,0,1.82-3.26,5.84,5.84,0,0,0,.19-1c.09-.54.18-1.23.46-2.34.24-1,.41-1.47.54-1.86s.15-.46.22-.72a3,3,0,0,0-.13-1.58,9.7,9.7,0,0,1-.44-2.52c-.13-3,1-5.58,2-7.85.17-.37.32-.7.46-1,.39-.8.41-.93.41-1.22a2.22,2.22,0,0,0-.37-1.08,7.84,7.84,0,0,1-.76-2.08,8.27,8.27,0,0,1,1.3-5.75l.22-.37a12.84,12.84,0,0,0,1.28-5.53c.08-1.17.19-2.48.43-4.08a23,23,0,0,1,3-8.66,28.82,28.82,0,0,0,3.14-8c.35-1.45,2.11-9,1.5-15.94,0-.5-.09-1-.15-1.48a54.34,54.34,0,0,1-.37-5.44c0-1.44,0-2.43,0-3.21a7,7,0,0,0-.19-2.61,8.25,8.25,0,0,0-1-2.06,8.66,8.66,0,0,1-1.43-3.69,10.26,10.26,0,0,1,.71-5.94,7.21,7.21,0,0,1,2.24-2.76c.45-.37.58-.5.71-.8s.16-.59-.21-1.74a16,16,0,0,1-.74-3.31c-.35-3.48.67-6.21,2.13-9.66a25.83,25.83,0,0,1,1.34-2.71c.52-1,1.32-2.5,2.63-5,1.12-2.15,1.93-3.71,2.1-4.19a15.61,15.61,0,0,0,.89-3.6c.17-1.06.39-2.34.87-4.25,1-3.78,1.39-5.49,2.64-6.57a6.18,6.18,0,0,1,4.23-1.46,17.44,17.44,0,0,1,3,.35,13.42,13.42,0,0,0,2.08.24,1.63,1.63,0,0,0,.72-.11c.06-.46.13-1.45.22-2.69,0-.7.1-1.52.17-2.52.26-3.38.43-5,.52-6.07a12.59,12.59,0,0,0,.13-2.32c0-1.2-.09-2.22-.15-3.21a33.79,33.79,0,0,1-.11-4.78l0-.52c0-.61.09-1.32.09-2.32,0-.65,0-1,0-1.34a4.15,4.15,0,0,1,.13-1.78,4.59,4.59,0,0,1,2.58-2.78c.45-.24.65-.37.71-.5.5-.91.48-1.78.35-3.86,0-.5-.06-1-.08-1.65a16.17,16.17,0,0,1,.06-2.93c.07-.76.17-1.78.2-4.6.06-5.81-.24-10.63-.4-12.43-.1-1.41-.13-2.82-.17-4.17a53.42,53.42,0,0,0-.32-5.61l0-.22a8.15,8.15,0,0,1,.29-4.36c.82-2.13,2.77-3.43,6-5.58a27,27,0,0,1,4.45-2.69l.39-.15a6.59,6.59,0,0,0,2.32-1.26,7,7,0,0,0,.63-.69,15.34,15.34,0,0,0,2.73-5.58,9,9,0,0,0-.09-4.31,6.33,6.33,0,0,1,.48-4.93c.95-1.63,2.13-2.06,5.62-3.38l1.08-.42c9.53-3.6,10.92-4.6,11.94-5.68.19-.24,1.32-1.67,2.86-3.65.82-1,1.35-1.71,1.82-2.32s1-1.36,1.85-2.38c2.17-2.74,3.16-4,3.84-4.65a18.34,18.34,0,0,1,2.9-2.25,6.92,6.92,0,0,0,1.87-1.59,6.51,6.51,0,0,0,1.06-1.84c.22-.52.48-1.13.89-1.93a30.09,30.09,0,0,1,7.33-9.26,21,21,0,0,1,3.5-2.37c1.1-.61,1.26-.72,1.47-1.26.63-1.43.18-3.32-.24-5a9.31,9.31,0,0,0-.86-2.3,14.85,14.85,0,0,1-1.22-3.12,20.77,20.77,0,0,1-.56-7.85,20,20,0,0,1,2-6.73c1.43-2.73,3.84-4.82,8.2-8.59,2-1.74,3.75-3.26,6.38-5.19,1.62-1.19,2.6-1.82,3.38-2.32a24.37,24.37,0,0,0,2.65-1.91,20.93,20.93,0,0,0,2.41-2.23c.71-.76,1.58-1.69,3.49-3.41,1.34-1.21,2.19-1.91,3-2.6s1.89-1.54,3.61-3.13c1.45-1.32,2.06-1.93,2.45-2.32a7.59,7.59,0,0,1,1.32-1.12,18,18,0,0,1,4.43-2.17c1.34-.48,1.91-.72,2.45-1.48A5.51,5.51,0,0,0,239,1030a3.78,3.78,0,0,1,2.28-2.49,3.15,3.15,0,0,1,1.17-.22c1.37,0,2.45.74,3.93,1.78.32.22.69.48,1.13.76,3,2,4.42,3,6,3.17.37,0,.72.06.94.06a3.58,3.58,0,0,0,2.64-.82,1.59,1.59,0,0,0,.29-.46c.15-.26.32-.63.62-1.11a29.67,29.67,0,0,1,2.85-4.12,9.49,9.49,0,0,1,3.62-2.58,9.64,9.64,0,0,0,3-2,8.69,8.69,0,0,0,1.78-2.17,8.13,8.13,0,0,0,.91-3.17,6.47,6.47,0,0,0-.11-1.78,7.58,7.58,0,0,1,0-3.26,9.67,9.67,0,0,1,.83-2.06l.32-.69a48.8,48.8,0,0,1,2.89-5.32c.87-1.34,1.78-2.64,2.8-3.94a100.59,100.59,0,0,1,12.34-12.7l.22-.17a20.47,20.47,0,0,0,3.32-3.41,20.24,20.24,0,0,0,2.49-4.57,20.74,20.74,0,0,0,1.48-5.9,21,21,0,0,1,1.82-6.82,23.07,23.07,0,0,1,2.86-5c.46-.61.83-1,1.17-1.41a11,11,0,0,0,1.33-1.7,24.79,24.79,0,0,0,1.67-3.12c.32-.7.45-1.06.58-1.39a11,11,0,0,1,.66-1.45,10,10,0,0,1,1.51-2.24,2.86,2.86,0,0,0,.48-.71,2.67,2.67,0,0,0,.13-1.54,14.92,14.92,0,0,1,0-2.3,16.74,16.74,0,0,1,1.58-5.75,20.52,20.52,0,0,1,3.71-6.14,6.07,6.07,0,0,0,1.65-3.06,4.19,4.19,0,0,0-.13-2.11,8.12,8.12,0,0,1-.13-4.51,14.61,14.61,0,0,1,1.17-3.25,16.41,16.41,0,0,0,1.3-3.78,28.25,28.25,0,0,0,.5-3.19,48.71,48.71,0,0,0,.41-5.14,26.5,26.5,0,0,1,.37-3.93c.26-1.43.52-2.36.72-3.12a5.31,5.31,0,0,0,.3-2.41,10.42,10.42,0,0,0-1.17-3.62l-.06-.11c-3.37-7.22-5.06-10.85-5.15-13.73-.06-1.85.33-3.54,1.09-6.92.48-2.06,1.06-4,2.13-7.44.54-1.76.91-2.93,1.19-3.76a7,7,0,0,0,.54-2.1,12.28,12.28,0,0,0-.15-2.43,15.33,15.33,0,0,1-.09-4.36,12.48,12.48,0,0,1,.59-2.67c.11-.39.24-.76.35-1.3a11.31,11.31,0,0,0-.24-5.62,10.62,10.62,0,0,1-.26-5.51,6.78,6.78,0,0,1,3.6-4.41,4.79,4.79,0,0,0,2.38-2.36c1.63-3.45,1-6.88.31-10.5-.74-4-1.52-8.18.63-12.58l.21-.42a34.07,34.07,0,0,0,2.52-6.38,34.41,34.41,0,0,0,.85-4c.73-4.82,1.39-9-.37-12-.13-.19-.26-.39-.37-.58a10.6,10.6,0,0,1-1.39-2.85,9.93,9.93,0,0,1-.45-3.88,7.87,7.87,0,0,0,0-1.3c-.15-1.09-.6-1.65-2-3.15-.59-.63-1.26-1.36-2-2.3a18.1,18.1,0,0,1-2.58-4.16,27.77,27.77,0,0,0-2.1-3.82,48,48,0,0,0-5.49-7c-2.21-2.41-3.95-4.32-3.43-7.34.11-.56.11-.56,1.74-3.38l1.38-2.41.89-1.54c.81-1.39,1.46-2.5,1.67-2.91,1-4.29-2-8.48-3.47-10.52a12.42,12.42,0,0,0-2.75-2.86,28.93,28.93,0,0,1-7.9-9.77,27.71,27.71,0,0,0-3.1-5,42.47,42.47,0,0,0-9.66-9.28c-1.49-1-2.95-1.87-4.23-2.61-3.27-1.86-5.85-3.36-5.55-6.18a4.51,4.51,0,0,1,2-3.06c.63-.5.74-.65.78-.91s0-.28-.26-.82a7.8,7.8,0,0,1-.8-3.28,6.71,6.71,0,0,1,.63-3,5.63,5.63,0,0,0,.33-1c.47-2.47-1.33-6-3.8-7.48a6.92,6.92,0,0,0-1.91-.74,6.57,6.57,0,0,1-3.93-2.43,10.9,10.9,0,0,1-1.69-4.08,15.85,15.85,0,0,1-.3-4.36,15.3,15.3,0,0,1,.24-2.24l0-.28c.3-2.28-2.06-5.4-4.17-7.37a7.27,7.27,0,0,0-2.19-1.57,13,13,0,0,1-3.21-2.17,15,15,0,0,1-3.32-4.05c-.61-1-1.37-2.15-2.71-3.95s-2.69-3.3-3.67-4.41c-2-2.25-3.45-3.86-2.82-6.5a7.69,7.69,0,0,1,1-2.24,5.84,5.84,0,0,0,.91-2.56,7.62,7.62,0,0,0-.46-3.12,49.89,49.89,0,0,0-2.49-7.92,33.93,33.93,0,0,0-2.1-4.15c-.72-1.23-1.7-2.9-3.3-6-1.43-2.74-2.06-4.1-2.5-5a10.66,10.66,0,0,0-1.15-2.07c-.56-.82-1.08-1.51-1.54-2.1a13.64,13.64,0,0,1-2.8-5.21,15.59,15.59,0,0,1-.3-6,15.4,15.4,0,0,1,.78-2.78c.28-.8.63-1.8,1.09-3.54a11,11,0,0,0,.45-2.25c0-.07-.09-.13-.5-.61s-.89-1-1.62-1.87a13.09,13.09,0,0,1-1.7-2.38,8.44,8.44,0,0,1-.63-4.49l0-.48,0-.56c.11-1.85.3-4.65-.8-5.67a4,4,0,0,0-1.22-.73,4.76,4.76,0,0,1-2.86-2.76,4.64,4.64,0,0,1,.45-3.64,8.92,8.92,0,0,0,.76-2.37,10.51,10.51,0,0,0,0-3.41,30.09,30.09,0,0,0-1.6-5.55c-.41-1.24-.72-2.15-1.24-3.36a16.6,16.6,0,0,0-.85-1.78,13.61,13.61,0,0,1-.75-1.69,32.59,32.59,0,0,1-1.26-5.17c-.26-1.3-.44-2.27-.5-2.73l-.05-.17c-.36-2.22-2.88-4.89-9.06-11.26-2.54-2.61-5.41-5.58-6.51-9.64-.11-.41-.28-1.17-.46-2a40.64,40.64,0,0,1-.78-7.42,31.57,31.57,0,0,1,4.73-18.16,27.4,27.4,0,0,1,3.25-4.64,25.58,25.58,0,0,0,2-2.63,38.61,38.61,0,0,0,3.73-7.66c1.24-3.21,2.33-6,5.34-6.55l.48-.08c.19,0,.54-.07.82-.13-.17-3,1.59-11.13,6.51-13.87a6.88,6.88,0,0,1,3.45-.82c2.34,0,5.29.82,9.79,2.06,1,.26,1.88.54,2.71.8a16.07,16.07,0,0,0,4.36,1,4.07,4.07,0,0,0,1.6-.31,11.35,11.35,0,0,0,2.93-1.86,14.86,14.86,0,0,0,3.76-4.21,8.43,8.43,0,0,0,1.06-2.82,6.71,6.71,0,0,1,1.86-3.73l.68-.65c.21-.18.5-.46.69-.65a8,8,0,0,1-.8-1.76c-.39-1-1.09-2.78-2.69-6.55-1.43-3.39-2.24-5.25-2.54-5.84a36.81,36.81,0,0,0-1.93-3.36,18.09,18.09,0,0,1-2.08-4.21c-1.09-3.1-1.26-5.66-.5-7.62a7.9,7.9,0,0,1,1.95-2.84c.17-.17.35-.37.54-.58,2.28-2.5,4.41-6.55,4-10a13.3,13.3,0,0,0-1.5-3.73,20.37,20.37,0,0,0-2.82-4.34A57.57,57.57,0,0,1,252.1,375c-.82-1.28-1.34-2.17-1.8-3a29.43,29.43,0,0,0-2.28-3.45,20.45,20.45,0,0,0-1.6-1.93,15.54,15.54,0,0,1-1.52-1.86,21.18,21.18,0,0,1-2.84-5,15,15,0,0,0-1.87-3.43,18,18,0,0,0-2.23-2.56,12.07,12.07,0,0,1-2.93-4.07,17.33,17.33,0,0,1-1.31-4.73l0-.26c-.58-3.93-3-7-5.44-10.29-.89-1.17-1.8-2.38-2.67-3.66a23.47,23.47,0,0,1-3-6.51c-.78-2.24-1.84-5.3-4-10.55-2.32-5.68-5.47-13.32-11.69-28.37-5.88-14.17-9.76-23.54-10.2-24.39l-.09-.19a36,36,0,0,1-3.21-7.53,22.11,22.11,0,0,1-.84-4.19,11.83,11.83,0,0,0-.7-3,16.73,16.73,0,0,0-1.56-3.37,31.28,31.28,0,0,1-2.45-5.33,41.24,41.24,0,0,1-1.37-4.41,23.66,23.66,0,0,1-.47-2.41,7.4,7.4,0,0,0-.35-1.47,6.76,6.76,0,0,0-2.13-2.69l-.74-.69c-4.75-4.58-5.68-11-5.87-12.8a9.3,9.3,0,0,1,.71-5,9.47,9.47,0,0,0,.72-4,14.63,14.63,0,0,0-.72-4.64,43.06,43.06,0,0,1-1.37-7.5c-.13-1.39-.15-2.3-.17-3a17.37,17.37,0,0,0-.3-2.91,37.49,37.49,0,0,0-2.37-7.53,39.89,39.89,0,0,0-2.84-6.07,20.7,20.7,0,0,0-3.88-4.88,21.78,21.78,0,0,1-4.34-5.58,29.77,29.77,0,0,1-1.46-3,13.82,13.82,0,0,0-1.77-3.15,43.29,43.29,0,0,0-6.86-6.66,15.81,15.81,0,0,1-2-1.67,14.84,14.84,0,0,1-3.43-4.6,10.61,10.61,0,0,0-2.21-3.12,16.78,16.78,0,0,0-2.8-2.24,16.72,16.72,0,0,1-4.27-3.94,21.11,21.11,0,0,1-2.3-3.74c-2.73-5.42-13.47-25.62-18.83-35.18l-.44-.76a59.12,59.12,0,0,1-6.42-14.71,30.13,30.13,0,0,1-.82-4.13,7.45,7.45,0,0,0-.54-2.19c-.74-1.95-2.13-4.55-10.92-14.68l-.37-.42C94.4,54.76,93,53.17,93,50.57a7.45,7.45,0,0,1,1-3.8,17,17,0,0,0,1.52-4.4l.07-.28a4.28,4.28,0,0,1,1.88-3.23A3.08,3.08,0,0,1,99,38.44a5.45,5.45,0,0,1,2.84,1.07,6.16,6.16,0,0,0,2.32,1,7.46,7.46,0,0,0,3.23-.15,25.73,25.73,0,0,1,4.3-.52c.37,0,.74,0,1.06,0a25.89,25.89,0,0,1,4.34.37,13,13,0,0,0,1.63.18,3.35,3.35,0,0,0,1.41-.33,3.31,3.31,0,0,0,1.32-1,7,7,0,0,1,3-2,8.76,8.76,0,0,1,2.78-.46c.5,0,1,.05,1.43.09a10.45,10.45,0,0,0,1.15.07,5.65,5.65,0,0,0,1.63-.24,2.89,2.89,0,0,0,1.36-.74,6.87,6.87,0,0,1,2.65-1.48,9.85,9.85,0,0,1,2.58-.36,13.63,13.63,0,0,1,3.88.69,7.47,7.47,0,0,0,1.85.41,1.22,1.22,0,0,0,.63-.15c.15-.09.15-.09.32-.48a6.18,6.18,0,0,1,2-2.62c1.78-1.35,3.41-1.35,5.86-1.35,1.13,0,2.54,0,4.43-.13,1.45-.08,2.23-.17,3-.26.93-.11,1.8-.19,3.6-.26.63,0,1.15,0,1.58,0,.74,0,1.24,0,1.72,0,.32,0,.63,0,1,0a11.36,11.36,0,0,0,1.21,0,65.26,65.26,0,0,0,7.66-1.26c3.41-.65,3.86-.84,4.32-1.17a14.08,14.08,0,0,0,2.43-2.82c.63-.84,1-1.39,1.28-1.82a5.9,5.9,0,0,1,1.65-1.89,6.22,6.22,0,0,1,4-1.13,4.63,4.63,0,0,0,1.37-.13c1-.26,1.43-.91,2.38-2.71a14.6,14.6,0,0,1,4.15-5.38,15.27,15.27,0,0,1,9.44-2.8c.52,0,1,0,1.34,0a17,17,0,0,1,7.12,1.87,6.88,6.88,0,0,0,2.84.89,3.37,3.37,0,0,0,.93-.11,3.5,3.5,0,0,0,1.95-1.15,21.93,21.93,0,0,1,4.82-3.34c2.91-1.52,5.66-3,9.22-3h.28c1.78,0,2.72.43,5.17,1.5,1.23.54,2.95,1.28,5.49,2.3a42.7,42.7,0,0,0,5.66,2.06A7.19,7.19,0,0,0,256.46,8a8.57,8.57,0,0,1,5.16-2.17,7.38,7.38,0,0,1,1,.06,5.93,5.93,0,0,1,3.1,1.54,7.77,7.77,0,0,0,1.13.87,10.15,10.15,0,0,0,5.53,1.39c3.73,0,8-1.28,11.8-2.43A47.91,47.91,0,0,0,290,5.16c.82-.34,1.67-.71,2.65-1.08A71,71,0,0,1,316.36,0a48.86,48.86,0,0,1,18.42,3.19l.43.17a21.84,21.84,0,0,0,8,2,8.67,8.67,0,0,0,3.77-.8,2.15,2.15,0,0,0,.52-.31,11.7,11.7,0,0,1,1.37-.82c3.38-1.8,6.38-2.19,13-2.74C366,.37,368.45.17,370.4.17a17.23,17.23,0,0,1,2.54.16,22.31,22.31,0,0,1,4.82,1.17c.69.21,1.41.45,2.32.69a29.16,29.16,0,0,0,7.51.93,59,59,0,0,0,6.05-.39,37.82,37.82,0,0,1,3.8-.28c1,0,3.66,0,5.05,2.3a4.67,4.67,0,0,1,.65,2.19h34.54v3.78h9.46v-3h22.91V2.78H622.26v4h17.66V4.08h78.26l6-1.15,6-.91.48-.07.48.13,5.2,1.56.26.09.26.15,4.43,2.74.76.47.19.89c.5,2.11,1,4.26,1.67,6.38.48,1.61.76,2.45,1,3a11.15,11.15,0,0,1,.54,2,14.38,14.38,0,0,1-.19,5.75,6.38,6.38,0,0,0-.11,3.23,51,51,0,0,0,3,5.38,61.72,61.72,0,0,0,3.52,5.64,7,7,0,0,0,3.84,1.8A9.9,9.9,0,0,1,761,44.06c2.8,3,3.14,6.81,3.32,8.46a11.26,11.26,0,0,1-.74,5.41,14,14,0,0,0-.83,3.92,16.41,16.41,0,0,0,.5,5.3,10.78,10.78,0,0,1-.1,6.72,9.17,9.17,0,0,1-1.61,2.95,3.42,3.42,0,0,0-.8,1.63,5.1,5.1,0,0,0,.39,3.36,16.7,16.7,0,0,1,1,4.77,14.16,14.16,0,0,1-1.21,6.6c-.52,1.3-.67,1.71-.37,2.5s.65,1,1.65,1.64a12.09,12.09,0,0,1,4,4c1.07,1.72,1.48,3.82,2.24,7.64,1.17,5.88,1.76,8.83,1.6,12.74a26.6,26.6,0,0,1-.6,4.86,5.36,5.36,0,0,0-.09,2.92c.26,1.24.67,1.91,3.75,6.77l.13.22c4.32,6.83,4.78,7.57,4.93,7.88a35.41,35.41,0,0,1,2,5.44,15.74,15.74,0,0,0,2.36,5.23,15,15,0,0,0,2.91,3.28,8.47,8.47,0,0,0,2.49,1.34,7.14,7.14,0,0,1,2.89,1.67c2.78,2.69,2.71,6.7,2.63,10.59a29.86,29.86,0,0,1-.5,4.71,7.85,7.85,0,0,0-.07,3.77c.28,1.3.63,2.93,1.63,3.56a3.63,3.63,0,0,0,1.86.37A4,4,0,0,1,800,185.9c1.15,1.85.09,3.8-.85,5.52l-.39.69c-1.39,2.62-3.12,5.9-3.12,8.48a4.08,4.08,0,0,0,1,2.56,28.58,28.58,0,0,1,2.9,5.79,21,21,0,0,1,1.3,4.95,9.47,9.47,0,0,0,.63,2.41c.7,1.76,1.8,3.32,11.13,10.28,2.52,1.87,4.36,3.19,5.77,4.21,3.32,2.39,4.58,3.28,6.36,5.56a101.75,101.75,0,0,1,5.51,9.26c1.52,2.67,2.3,4.14,3,5.38s1.24,2.32,2.35,4.23c3,5.08,4.47,7.64,6.31,9.85a32.84,32.84,0,0,0,4,4.1,14.69,14.69,0,0,1,4.06,5,16.87,16.87,0,0,1,1.09,2.67c.3,1,.78,2.39,1.86,5.21.78,2,1.67,4.32,2.69,6.51a54.47,54.47,0,0,0,6.25,10.65,25.56,25.56,0,0,0,5,5.1,14.27,14.27,0,0,1,4.52,5.23,14.51,14.51,0,0,1,1.71,5.16,15.36,15.36,0,0,0,1.69,5A28.06,28.06,0,0,0,877,323.3a34.9,34.9,0,0,1,3.3,5.44c.76,1.57,1.48,3.32,2.91,6.8.67,1.6,1.17,2.84,1.56,3.84,1.11,2.75,1.26,3.14,1.91,3.79a11.47,11.47,0,0,0,6,2.93,16.89,16.89,0,0,0,3.88.48,17.2,17.2,0,0,0,4.1-.5,8.59,8.59,0,0,0,2.13-.7,16.68,16.68,0,0,1,2.58-.95,17.79,17.79,0,0,1,5.16-.74c.85,0,1.63.05,2.45.09s1.78.11,2.8.11,2.11-.07,3.21-.18a13.82,13.82,0,0,0,3.28-.69,28.8,28.8,0,0,1,4.45-1,40.85,40.85,0,0,1,6.57-.47c.83,0,1.67,0,2.63,0l2.73,0h1.41a93.78,93.78,0,0,0,11-.5c1.17-.11,2.08-.19,3.15-.19a25.35,25.35,0,0,1,3.75.32c1.71.26,3.3.61,4.71.91a30.14,30.14,0,0,0,4,.7c0-.33-.09-.72-.15-1.2-.8-8.41,1.63-9.35,2.43-9.65a2.73,2.73,0,0,1,1-.2,3.61,3.61,0,0,1,2.47,1.2,2.19,2.19,0,0,0,1.11.71,1.74,1.74,0,0,0,.34.05c1.78,0,4.3-2.35,5.47-3.82a9.18,9.18,0,0,0,1-1.5,5.42,5.42,0,0,1,1.8-2.17,9.25,9.25,0,0,1,5.64-1.58c.91,0,1.82.06,2.71.13a47.63,47.63,0,0,1,5.81,1.23c4.13,1,6.84,1.68,7.34,4.15a3,3,0,0,1-.16,1.69,8.88,8.88,0,0,0-.26.87l-.13.45a3.11,3.11,0,0,0,.44-.08,36,36,0,0,1,7-.76h.78c.67,0,1.28.06,1.86.11h.29c-.55-1-1.24-2.56,0-3.87a2.81,2.81,0,0,1,2-.8,4.58,4.58,0,0,1,1.8.44c.24.1,1.32.45,5.18.45,2.63,0,6.06-.15,10.26-.48V314.4h40.92v8.21h3.26v6h80.72c.39-.06,1.41-.32,1.7-.93a2.75,2.75,0,0,0-.11-1.65,4.43,4.43,0,0,0-.72-1.37l-.35-.54a19.34,19.34,0,0,1-2.21-5.05,14,14,0,0,1,.63-8.12,10.17,10.17,0,0,1,.63-1.28,7.12,7.12,0,0,0,.5-1.08,16.25,16.25,0,0,0,.67-3.69c.15-1.54.22-2.52.24-3.15a4.48,4.48,0,0,1,.82-2.86,5.65,5.65,0,0,1,3-2,4.32,4.32,0,0,0,.5-.2,3.57,3.57,0,0,0-.57-1.78l-.24-.47V281.6h.92v-5.16h-3.26V260.9h16.53v-9.63h3.13v-2.6h2.6v-3.91h.78v-5.29h-3v-7.29h-4.56V217.82h3V196.47h3.12V189.7h5.08V176.16h114.29v-13.4h51.65l-.19,2.36a31.85,31.85,0,0,1-1,5.45c-.33,1.21-.63,2-1,3.12l-.31.85a52.38,52.38,0,0,0-2.25,6.72,9.28,9.28,0,0,0-.24,3.23,16.29,16.29,0,0,1-.28,4.78c-.57,3.08-1,5.31-2.78,7.59A12.85,12.85,0,0,1,1342,199a4.76,4.76,0,0,0-.72.63,4.55,4.55,0,0,0,.24.43,9.28,9.28,0,0,1,1.17,3.11,15,15,0,0,1-.24,5.27,28.47,28.47,0,0,1-.69,3.4,11.34,11.34,0,0,0-.35,1.74c-.17,1.52-.43,3.77.09,4.6a6.22,6.22,0,0,0,1.36.11c1.28,0,3.11-.15,5.73-.37l.54,0c5.06-.42,6.75-.55,8-.55a13.68,13.68,0,0,1,1.49.07l1.11.13c1,.13,2.34.28,4.27.39,1,.06,2.22.11,3.69.13,1.17,0,2.24,0,3.15,0,1.63,0,2.73,0,3,0,.7,0,1.48,0,2.3,0,6.36,0,15.88.39,18.44.54,4.86.28,7.79.58,10.16.8a60.61,60.61,0,0,0,6.55.41c.63,0,1.32,0,2.1,0a77.62,77.62,0,0,0,9.09-.8,86.38,86.38,0,0,1,11.79-.89h1.06a39.37,39.37,0,0,1,4.1.17c1.39.11,3.14.24,7.4.35,2.12,0,4,.06,5.64.06,4,0,6.87-.1,9.41-.21,2.09-.09,4.06-.18,6.27-.18,2,0,4,.07,6.23.2l.26,0c1.13.07,2.82.17,5,.17q1.41,0,3.06-.06a44.8,44.8,0,0,0,4.88-.46c1.07-.15,2.15-.32,3.89-.45,1.28-.09,2.41-.13,3.47-.13a39.3,39.3,0,0,1,5.12.35,42.53,42.53,0,0,0,5.66.39c.89,0,1.85-.05,2.87-.09.54,0,1.06-.07,1.56-.09,1.19-.06,2.32-.15,3.66-.15.94,0,1.87,0,2.85.11,4.44.32,7.46,1.15,9.26,2.54s2.89,3.36,4.23,5.92a23.06,23.06,0,0,1,1.26,2.86,11,11,0,0,0,1.11,2.32,10.76,10.76,0,0,0,1.38,1.78,9.21,9.21,0,0,1,1.72,2.43,16.41,16.41,0,0,1,1.52,6.06,40.74,40.74,0,0,1,.15,5.22v6.93c0,.39-.07,1.19-.18,2.73-.08,1.21-.19,2.88-.34,5.18l0,.13c-.37,5.56-.48,7.42-1.59,10.05a9.61,9.61,0,0,1-1.3,2.36,10.91,10.91,0,0,0-1.21,2.07,19.73,19.73,0,0,0-1.61,4.46,38.54,38.54,0,0,1-1.45,4.6,19,19,0,0,1-1.63,3.43,17.64,17.64,0,0,0-1.37,2.84,32.54,32.54,0,0,0-2.34,8.66,12.51,12.51,0,0,0,0,3.43,25.68,25.68,0,0,1,.11,5.46c-.09,1.31-.19,2.17-.3,3.15-.15,1.15-.31,2.43-.48,4.82s-.28,3.6-.26,4.9a44.23,44.23,0,0,0,.87,7.85,10.64,10.64,0,0,0,.63,2.59,7.91,7.91,0,0,0,2.19,2.6c.26.24.54.5.84.76a48,48,0,0,1,4.26,4.68,39.38,39.38,0,0,1,4.68,8.36,29.8,29.8,0,0,1,1.93,5,18.49,18.49,0,0,1,.46,2.1c.06.46.17,1.07.37,2.09.37,1.84.65,2.79.89,3.64a20.36,20.36,0,0,1,.69,3.28,14.64,14.64,0,0,1,.15,3.34,2.69,2.69,0,0,0,0,.41.63.63,0,0,0,.07.19c.32.72.76,1,1.65,1.55a7.08,7.08,0,0,1,3.19,3.29,5.14,5.14,0,0,1,.28,3.06,24.77,24.77,0,0,0-.24,3.08,22.54,22.54,0,0,0,.56,6.9,8.61,8.61,0,0,0,.63,1.67,11.42,11.42,0,0,1,.94,2.5,15.87,15.87,0,0,1,.63,4.16c0,.74.06,1.52.21,2.65a19.15,19.15,0,0,0,1.13,4.53,9.28,9.28,0,0,1,.69,4.86,5.91,5.91,0,0,1-.52,2,30.35,30.35,0,0,0-1.23,3.6c-.37,1.28-.59,2.08-.83,3.08-.21.82-.45,1.8-.86,3.25-.48,1.82-.85,3-1.11,3.91-.13.41-.24.76-.33,1.06a27.45,27.45,0,0,0-1,6.64c-.11,1.86-.26,4.21-.65,7.72-.63,6-1,9.22-2.17,11.54l-.46.85a9.9,9.9,0,0,0-1.28,3.36,8.14,8.14,0,0,0-.09,2.11,11.64,11.64,0,0,1-.19,3.43,11.46,11.46,0,0,1-1,3,17.34,17.34,0,0,0-.87,2,29.9,29.9,0,0,0-1.32,5.65,14.8,14.8,0,0,0,.1,4.7,8.87,8.87,0,0,1-.34,5,10,10,0,0,1-1.52,2.82,6.24,6.24,0,0,0-1.17,2.3,15.06,15.06,0,0,0-.54,4.32l0,.35a21.27,21.27,0,0,0,.46,6.16,9.55,9.55,0,0,0,1.47,3.25,19.94,19.94,0,0,1,1.52,2.76c2.82,6.29,1.46,12.86.55,17.2-.24,1.13-.87,3.13-2.28,7.51-1.8,5.68-2.71,8.53-3.91,10.3a15.47,15.47,0,0,1-1,1.44,6.05,6.05,0,0,0-1.39,2.64,7.21,7.21,0,0,0,.2,3.56,5.22,5.22,0,0,0,1.28,2.06,15.41,15.41,0,0,1,2.06,2.89,12.8,12.8,0,0,1,1.32,3.4c.16.61.37,1.33.68,2.35a36.67,36.67,0,0,0,1.8,4.66,25.31,25.31,0,0,1,1.19,3,18.14,18.14,0,0,1,.85,8.41,8.73,8.73,0,0,0,.52,5c1.52,3.67,4.55,6,6.38,7.44a15.1,15.1,0,0,0,3.08,1.93,17.13,17.13,0,0,1,4,2.72,33.72,33.72,0,0,1,6.38,8,74.87,74.87,0,0,1,3.88,6.94c1,1.91,1.7,3.39,2.26,4.58,1.26,2.67,1.69,3.56,3,4.69a14.91,14.91,0,0,0,4.49,2.49,22.72,22.72,0,0,0,4.58,1.37,12.75,12.75,0,0,1,6.07,2.58,22.66,22.66,0,0,1,3.43,3.43,22.35,22.35,0,0,1,3.89,6.07c.84,2.19.76,3.69.52,7.31l-.11,1.93c-.24,4-.22,5.34-.2,6.64s0,2.61-.19,6.25l-.11,1.59c-.2,3.14-.24,3.86.22,5a5.57,5.57,0,0,0,1,1.69,39.59,39.59,0,0,1,2.45,3.56,69.78,69.78,0,0,1,3.34,6.44c.82,1.7,1.28,2.76,1.67,3.69.24.5.43,1,.69,1.54a38.24,38.24,0,0,0,3.91,6.75,24.29,24.29,0,0,1,3.58,6.73,19.2,19.2,0,0,1,1.28,8.52,14.71,14.71,0,0,1-2.28,6.66,9.84,9.84,0,0,1-1.52,1.82,12.81,12.81,0,0,0-1.52,1.87c-1.15,1.67-1.58,2.39-1.56,3.15a7.4,7.4,0,0,0,1.13,2.45,28.43,28.43,0,0,0,2.86,4c4.54,5,3.63,14.68,2.91,22.47a56.78,56.78,0,0,1-1.63,8.83c-.93,3.43-1.47,5.49-3,7.36a8.73,8.73,0,0,1-3.58,2.49c-.94.43-2.22,1-4.17,2.15a41.44,41.44,0,0,0-3.6,2.28,13.46,13.46,0,0,1-3.17,1.75,25.65,25.65,0,0,1-3.84,1.18l-.45.13a.06.06,0,0,0,0,0,27.48,27.48,0,0,1,1.88,4.58c.18.5.31.93.42,1.3a5.58,5.58,0,0,0,.78,1.93,5.69,5.69,0,0,0,.82,1,5.49,5.49,0,0,1,1.35,2c.89,2.45-.24,4.71-.78,5.79l-.09.2c-.87,1.8-.59,3.14.17,6.27a45.55,45.55,0,0,1,1.61,12.3v.65c0,1.89,0,3.53.87,4.53a5.82,5.82,0,0,0,.73.63,23.53,23.53,0,0,1,2.24,2.08,11.52,11.52,0,0,1,2.52,3.39,7.44,7.44,0,0,1,0,5c-.13.48-.26,1-.39,1.63a13.91,13.91,0,0,0,0,6,11.65,11.65,0,0,0,3.53-2.54,16.55,16.55,0,0,0,2.52-3,9.81,9.81,0,0,0,1.06-1.93,4.63,4.63,0,0,1,1.22-1.85,5.8,5.8,0,0,1,4.18-1.36c.7,0,1.5,0,2.5.1s2.43.13,4.1.18c.63,0,1.19,0,1.69,0,2.93,0,3.32-.28,3.47-.39.37-.26.44-.41.65-1a7.25,7.25,0,0,1,2-3,8.61,8.61,0,0,1,3.91-2,3.65,3.65,0,0,0,2.1-1.06,4,4,0,0,0,1.24-2.19,2.64,2.64,0,0,0-.33-1.63,8.09,8.09,0,0,1-.73-3.41,9.51,9.51,0,0,1,2.8-6.4c3-3.25,7.13-3.38,8.67-3.42h.44a17.22,17.22,0,0,1,9.52,3.21,49.13,49.13,0,0,1,5.62,4.77c1.8,1.61,2.76,2.54,3.36,3.12a4.41,4.41,0,0,0,1.07.89c2.3,1.26,4.81,1.39,8,1.54.5,0,.94,0,1.35,0a22.47,22.47,0,0,0,2.41-.15c1.75-.24,3.58-.5,4.73-1.7a2.78,2.78,0,0,0,.39-.54,4.62,4.62,0,0,1,1.12-1.5,8.76,8.76,0,0,1,6.25-2h1.33a23,23,0,0,0,4.79-.39,16.86,16.86,0,0,1,3.39-.33c.56,0,1.21,0,2,.07a73.56,73.56,0,0,1,13.52,2.53l.74.2a43.29,43.29,0,0,0,4.51.93,37.89,37.89,0,0,0,5,.54,3.87,3.87,0,0,0,1.8-.32,9.91,9.91,0,0,0,1.34-.91A7.06,7.06,0,0,1,1729,798h.16a7.41,7.41,0,0,1,2,.34,8.77,8.77,0,0,1,3.43,1.91,5,5,0,0,0,1.17.81,4.19,4.19,0,0,0,1.8.39,3.22,3.22,0,0,0,1.33-.26c.43-.2.67-.48,1.62-1.85l.37-.56a42.84,42.84,0,0,1,4.32-5.66,8.7,8.7,0,0,1,5-2.37,11.81,11.81,0,0,0,4.25-1.56,7.79,7.79,0,0,0,2-1.61,16.74,16.74,0,0,1,3.64-2.93,32.93,32.93,0,0,1,3.17-1.73,24.34,24.34,0,0,0,3.56-2c.8-.54,1.32-.93,1.74-1.26a9.93,9.93,0,0,1,2.4-1.41,17.43,17.43,0,0,1,6.88-1.08l.93,0a39.2,39.2,0,0,1,5.54.43,29.61,29.61,0,0,1,6.27,1.26,16.36,16.36,0,0,1,3.66,1.74,19.34,19.34,0,0,0,3.37,1.69,33.76,33.76,0,0,0,5,1.6,34.77,34.77,0,0,0,5.9.85c.8.06,1.58.09,2.32.09a37,37,0,0,0,4.73-.35,26.22,26.22,0,0,1,3.23-.26,14.36,14.36,0,0,1,4.1.61,31.2,31.2,0,0,1,4.88,2.08c2,1,3.5,1.8,4.67,2.45,1.56.89,2.28,1.28,2.88,1.28a1.62,1.62,0,0,0,.31,0c.65-.09,1.82-1.11,3.6-2.63a19.82,19.82,0,0,0,4.49-5.05,10.7,10.7,0,0,0,1-2.19,13.54,13.54,0,0,1,6.68-7.44,9.85,9.85,0,0,1,3.54-.78,5.17,5.17,0,0,1,2.62.65c2.19,1.23,2.74,3.86,3.06,8.89.13,2.15.17,4,.22,6,0,1.72.06,3.58.17,6a13.15,13.15,0,0,0,1.09,5.4,10.59,10.59,0,0,0,1.25,2c.2.24.37.46.53.69,2,2.82,1.71,5.49,1.15,11.31-.07.84-.16,1.75-.24,2.75-.94,10.35-.46,12,.3,13.24.15.24.33.45.52.73a27.2,27.2,0,0,1,1.91,3,24.9,24.9,0,0,1,1.35,2.91c.3.71.62,1.54,1.3,2.9.45.94.78,1.54,1,2a7,7,0,0,1,1,2.65,8.53,8.53,0,0,1-1.47,6.49,6.4,6.4,0,0,1-2.43,1.84,9.21,9.21,0,0,0-1.17.67,10.6,10.6,0,0,0-2.93,3.6c-.74,1.5-.48,2.65.13,4.91a20.43,20.43,0,0,1,.85,9,19.9,19.9,0,0,1-2.35,7.31,16.25,16.25,0,0,1-2.58,3.32c-.69.78-1.65,1.8-3,3.38-2.09,2.43-3.45,4.17-3.39,4.8a2.31,2.31,0,0,0,.22.32,11.64,11.64,0,0,1,1.58,2.83,13,13,0,0,1,.87,3.12,4.12,4.12,0,0,0,.54,1.65,2.11,2.11,0,0,0,.94.91,7.09,7.09,0,0,1,1.93,1.73c1.69,2.24,1.45,4.39,1.23,6.27a12,12,0,0,0,.39,5.45c.18.56.39,1,.57,1.45a9.89,9.89,0,0,1,1,4.32,13.92,13.92,0,0,1-1,4.73,48.17,48.17,0,0,1-2.71,6.77c-2,3.93-1.89,10.33-1.71,23.08,0,3.21.15,5.12.21,6.51a14.82,14.82,0,0,1-.26,5.06c-.1.41-.21.82-.3,1.23-.41,1.61-.65,2.63-.26,3.24.09.13.09.13.61.34a11,11,0,0,1,3.14,1.91,19.71,19.71,0,0,1,4.08,5.19,31.59,31.59,0,0,1,1.69,3.1c1.39,3,2.72,5.81,2.41,9.18a12,12,0,0,1-.76,3.12,3.47,3.47,0,0,0-.32,2.13,3.67,3.67,0,0,0,.65,1.58,1.75,1.75,0,0,0,.74.59A4.43,4.43,0,0,1,1870.83,996.08Z"/></g></g></svg>