<svg xmlns="http://www.w3.org/2000/svg" viewBox="0 0 973.23 2531.79"><g id="Layer_2" data-name="Layer 2"><g id="Antigua_and_Barbuda" data-name="Antigua and Barbuda"><path d="M39.29,2302c-1,.31-4.89,2.3-2.46,33.27,1.34,17.09,3.6,25.15,5.16,33.12,1.43,7.38,6.47,13.27,9.44,20.17l5.24,12.14c2.91,6.73,6,13.67,11.35,18.63a32.28,32.28,0,0,0,15.56,7.53,58.6,58.6,0,0,0,17.44.51c11.93-1.19,24.07,1.64,36,2.7,10.39.92,20.84,1.85,31.24,1,4-.34,8.46-.86,11.77,1.47,4.13,2.89,4.62,8.86,7.77,12.8,2.72,3.39,7.22,4.95,11.56,5.08s8.62-1,12.82-2.09c1.68-.45,3.25,1.56,4.16,3s1.69,3.16,3.18,4.05c2.16,1.29,4.88.41,7.36,0a18.2,18.2,0,0,1,15.79,5.4c1.11,1.18,2.12,2.83,1.55,4.35-.41,1.09-1.56,1.92-1.51,3.08.07,1.42,1.81,2,3.2,2.26,6.87,1.2,14.09,2.38,20.67.09,4.92-1.71,9-5.2,12.93-8.61l3.16-2.74a11.64,11.64,0,0,1,8.78,10.61c.1,3-1,5.94-2.28,8.69a44.6,44.6,0,0,0-3.42,8.37c-.7,2.94-.52,6.26,1.29,8.69a10.13,10.13,0,0,0,7.4,3.66,30.13,30.13,0,0,0,8.44-.89c7.24-1.47,14-5.28,21.32-5.71,2.6-.15,5.33-.13,7.64-1.32,2.06-1.06,3.6-3,5.73-3.87,2.73-1.12,5.8-.32,8.68.28a62.56,62.56,0,0,0,27.5-.42,3.68,3.68,0,0,0,2.52-3.18,9.69,9.69,0,0,0-1.06-3.92,16.89,16.89,0,0,1-1.11-5.57,8.66,8.66,0,0,1,1.49-5.63,8.94,8.94,0,0,1,5.89-2.89c7.23-1.06,15.15,1.95,21.65-1.38a20.64,20.64,0,0,1,4-2c3.52-.93,6.92,1.62,9.66,4s6.07,5,9.62,4.18c11.77-2.72,24,5.38,32.87,13.59,3.93,3.63,7.76,8.14,13.07,8.83,1.69.22,3.85-.35,4.15-2,.24-1.41-1-2.58-2-3.58s-2-2.55-1.22-3.75c8.36-12.89,10.18-29.76,18.05-43,1.81-3,3.92-6.2,7.2-7.54,4.07-1.66,8.64-.05,13,.4s9-.34,13.56-.71,9.27-.29,13.3,1.79,7.08,6.64,6.12,11.07c-1.5,7-11.38,9.85-12.5,16.92,2,2.38,4.38,4.53,6.33,6.91a6,6,0,0,1,1,1.61c.71,1.89-.74,4-2.59,4.85s-3.95.68-6,.63c-4.94-.12-10.06.38-14.37,2.79s-7.62,7.11-7.21,12c.35,4.13,3.15,7.64,6.29,10.35,2.91,2.51,2.92,6.63,5.53,9.46s6.18,5,10,5.09c4.5.15,8.6-2.37,12.39-4.81,2.7-1.73,5.46-3.53,7.3-6.17,1.45-2.08,2.22-4.55,3.31-6.85a26.42,26.42,0,0,1,6.95-9,6,6,0,0,1,3.27-1.63c2.48-.17,4.24,2.28,5.43,4.46q3,5.55,5.65,11.3c2,1.41,2,4.25,1.94,6.69s-.65,4.87-.51,7.31c.38,6.56,6.25,11.85,12.66,13.27s13.13-.31,19.15-2.93,13.1-1.73,19.76-2.36a24.64,24.64,0,0,0,7.15-1.38c6.34-2.57,9.42-9.6,11.85-16,1.61-4.21,3.7-8.92,8-10.31a7.85,7.85,0,0,1,9.71,5.73c.43,2.22-.13,4.62.73,6.7a7.13,7.13,0,0,0,5.51,3.9,10.93,10.93,0,0,0,11.56-6.27c1.51-3.53,1-7.66-.53-11.18s-4-6.56-6.37-9.54l-10.05-12.46c-1.88-2.32-3.81-4.77-4.36-7.71a9,9,0,0,1,13.37-9.44c2.24,1.3,3.8,3.47,5.69,5.24s4.49,3.21,7,2.49,4-3.57,4.81-6.18a34.42,34.42,0,0,0,.06-19.45c-2.22-7.56-11.06-11-17.67-15.28s-13.45-9-16.92-16a44.74,44.74,0,0,1-2.23-5.84l-4.23-12.79c-2.72-1.44-2.82-5.28-2.66-8.36s.89-6.27-.14-9.18c-1.5-4.21-6.21-6.53-8-10.6a9.18,9.18,0,0,1,4-11.52,17.91,17.91,0,0,1,6.16-1.45l10.43-1.17c4.47-.49,9-1,13.44-.3,5.49.85,10.53,3.48,15.45,6.06l40,21c7.06,3.71,18,13.48,27.41,14.38l6.55.62c7,.69,10.75,1.14,12.69,1.34,4.23.43,5.06.17,22.87-.34s16-.23,18.37-.5c8-.91,10.59-2.15,15.35-.67s6.64,4,9.35,3c3.18-1.2,2-5.29,5.51-7.35,1.54-.9,2.34-.45,12.86-.33,3.12,0,4.87,0,5.67-1.17s.5-3.37-.66-4.67c-2.43-2.72-6.88.23-9.85-2.34-2-1.75-2.45-5.26-1.67-7.68,1-3.09,3.41-2.85,7.51-7.85,2.41-2.94,2.2-3.79,3.67-4.34,2.45-.91,3.79,1.17,9,1.17a19.84,19.84,0,0,0,4.34-.5,8.53,8.53,0,0,0,3-1c2.69-1.87,2.4-6.63,2.34-7.52-.23-3.63-1.72-4.21-1.17-6.51.69-2.81,3.52-4.29,4.34-4.67.19-.09,4.11-1.83,7.18,0,1.59.95,1.46,2,4.84,5.34a9,9,0,0,0,2.17,1.84c3,1.47,6.4-.35,6.68-.5.87-.49,3.53-2.17,3.84-5a6.84,6.84,0,0,0-.67-3.34,21.14,21.14,0,0,0-3.5-5.68c-1.62-2.12-2-2.25-2-3s.24-1.09,2.5-4.68c.93-1.47,1.1-1.75,1.34-2.17,1-1.74,1.11-2.31,1.66-3.34,1.26-2.31,2.07-2.06,4.18-5a11.93,11.93,0,0,0,2-3.5,8,8,0,0,0,0-5.68c-.26-.56-.94-1.73-4.84-3.67-5.51-2.75-6.77-1.71-8.51-3.67s-.7-3.47-3.18-6.51c-1.28-1.59-1.92-1.62-2.83-3.18-.36-.6-2.18-3.73-1-5.67,1-1.59,2.8-.54,5.85-2.67a9.29,9.29,0,0,0,3.17-3.68,8,8,0,0,0,.67-2.5,9,9,0,0,0-1.84-5.84,17.81,17.81,0,0,0-3-3.18c-3.26-3.32-3-8.77-2.84-13.85.1-2.66.5-5.71.33-11-.07-2.19-.19-3.41-1-3.84-1.47-.8-3.34,2-8.68,4.34a26.71,26.71,0,0,1-6.51,2c-3.28.54-4.23,0-6,1-1.59.89-1.64,1.76-4,4.34a28.19,28.19,0,0,1-4.17,3.84c-1.15.79-3.28,1.94-11.69,2-6.05.05-9.07.07-10.69-.67-5.65-2.61-3.95-7.6-9.68-11-5.13-3.07-8.54-.29-13.52-4.34a26.88,26.88,0,0,1-4.51-5.18c-2.47-3.34-2.09-5.42-4.51-7.51a10.65,10.65,0,0,0-4.84-2.34,11.86,11.86,0,0,0-9,2.34c-2.37,1.86-1.68,2.94-4.51,5.18-1.31,1-1.72,1-5.18,3-3.17,1.83-3.57,2.28-5.17,3.17-2.45,1.37-4.13,1.79-9.18,3.18-11.35,3.12-12.43,3.63-13.69,2.67-2.18-1.66-2.47-5.82-1-8.52,1.9-3.5,6.51-4.1,8.35-4.34,3.89-.5,5.36.88,8.52-.33,1-.4,1.35-.73,4.34-3.17,6.84-5.61,7.24-5.6,9.68-8a34.31,34.31,0,0,0,4.67-5.34,22.36,22.36,0,0,0,3.34-6.34c1.22-3.83.22-5,1.34-8a13.67,13.67,0,0,1,4.67-6c5.81-4.32,14.43-3.23,17.53-2.84,2.92.37,4.2.91,6.18.17s3.33-2.27,6-6.84c3.1-5.3,4.66-7.94,5.51-10.69,2.91-9.36-.44-15.15,2-16.36s7.91,3,10.19,7.85c1.25,2.67.61,3.63,2.33,6.51a22.68,22.68,0,0,0,5.85,6.18c2.19,1.7,2.75,1.61,5.17,3.67a16.28,16.28,0,0,0,3.18,2.5c.81.42,3.15,1.65,5.17,1,3.21-1,4.75-6.48,4.17-10.51-.23-1.7-.66-1.82-1.83-6.68-.85-3.52-.81-4.21-.67-4.84.5-2.27,2-2.33,4.17-5.51a11.34,11.34,0,0,0,2.51-6.51c0-.58,0-3.81-2.17-5.51s-4.68-.77-4.84-1.51,1.71-1.36,5.84-3.84c3.09-1.85,3.56-2.34,3.84-2.67,1.27-1.46,1.17-2.38,2.5-5.34.35-.76,1.12-2.12,2.68-4.84,3.07-5.39,3.58-5.93,3.33-7-.63-2.81-5.13-3.8-5.34-3.84a9.78,9.78,0,0,0-6.84,1.33c-2.61,1.52-2.14,2.72-5.35,4.84-2.09,1.4-2.39.94-4.67,2.51-2.66,1.83-2.9,2.89-4.34,3-1.9.15-3.56-1.53-4.68-2.67-1.64-1.67-1.48-2.48-2.83-3.84-.39-.39-1.47-1.4-5.51-2.67a31.93,31.93,0,0,0-9.35-1.84c-4.61-.12-5.23,1-8.68.34a16.68,16.68,0,0,1-6.18-2.67c-2.66-1.79-4.37-4-7-7.35-1.83-2.33-1.5-2.23-2.17-2.84-3.48-3.14-8.63-2.62-11.52-2.33-4.14.41-7.87.79-9.69,3.5-.56.84-.34,1-1.83,8.35a26.21,26.21,0,0,1-1.17,4.67c-1,2.68-2,2.62-3.67,5.68-1.87,3.32-1.41,4.33-3.12,6.07a8.25,8.25,0,0,1-4.23,2.45c-4.37.79-6.49-3.72-10.24-2.68a6,6,0,0,0-4,3.79c-.28,1.18.16,2-.44,3.56a6.66,6.66,0,0,1-1.56,2.23c-2.19,2-5.32,0-11.13,0-1.19,0-.33.08-9.57,1.11-3.68.41-4.81.51-6-.22-2.23-1.36-3.19-4.66-2.9-7.35.48-4.39,4.18-6.15,3.34-8.46-.49-1.35-2.16-1.85-4.23-2.45a19.49,19.49,0,0,0-13.35.45c-4.64,2-4.15,4.07-9.35,6a61.79,61.79,0,0,1-7.57,1.78c-6.78,1.39-7.17,1.09-8.46,2-2.73,1.93-1.75,3.83-5.34,7.79-1.76,1.95-2,1.49-4.9,4.23-4.37,4.14-4.41,5.72-6.23,6-3.15.52-7.61-3.46-8-7.56-.33-3.4,2.42-3.83,3.79-9.58,1.09-4.58-.3-5.81,1.33-9.35,1-2.25,1.74-2,4.46-5.78a48.53,48.53,0,0,0,4.67-8c1.6-3.48,2.85-6.18,3.34-10,.41-3.21-.05-4.5,1.11-5.79,1.31-1.45,2.78-.81,6.9-1.56,5.28-1,5.72-2.52,10.91-3.12,2.28-.26,2,.06,5.12-.22,1.79-.16,4.19-.63,8.91-1.56,5.29-1,6.61-1.3,8.9-1.78,3.62-.75,5.44-1.13,6-1.33,5.15-1.82,9.72-5.71,9.13-7.13-.24-.55-1.25-.68-2.67-.67-9,.07-12.27,5.25-19.82,5.57-5.8.25-6.49-2.7-11.13-1.34-3.62,1.07-4.51,3.25-9.57,4.46a10.85,10.85,0,0,1-12.46-4c-1.87-2.51-1.6-4.37-4-6.23a9.33,9.33,0,0,0-2.45-1.34c-2.73-1.1-4.92-.87-9.13-.67-5.73.27-4.67,0-7.56.23-6.76.57-6.78,1.69-10.47,1.78-3.85.09-3.8-1.13-18-6.68a15.12,15.12,0,0,1-5.12-3.12,9.85,9.85,0,0,1-3.34-5.34c-.07-.36-.72-4,1.34-6.46,1.59-1.92,3.49-1.61,8-2.67,6.16-1.44,6.09-2.83,16.25-6,1.75-.54,3.09-.92,5.35-1.56,3.91-1.1,7.6-2.14,11.13-2.89,8.66-1.85,8.87-.38,14.69-2.23,3.52-1.11,6.48-2,9.35-4.67s2.57-4,6-6.68c2.35-1.8,3.29-1.74,6-4,1.39-1.17,1.27-1.29,4.23-4.23a60.56,60.56,0,0,1,6-5.57,39.31,39.31,0,0,1,6-3.78c2.51-1.28,3.17-1.27,5.56-2.67,3.54-2.08,4.19-3.33,4.45-4a6.85,6.85,0,0,0,.23-3.56,11.44,11.44,0,0,0-2-4.9,16.25,16.25,0,0,0-7.34-5.57c-1.54-.66-3.55-1-7.57-1.78-4.59-.85-6.2-.78-7.79-.22a11.29,11.29,0,0,0-3.12,1.78,22.41,22.41,0,0,0-5.34,5.79,49.1,49.1,0,0,0-5.12,10.24c-1.41,3.54-1.1,3.52-1.78,4.45a12.43,12.43,0,0,1-11.8,4.45c-4.05-.77-5-3.46-8-2.89-2.33.44-3.87,2.45-4.9,3.78-2.26,3-1.66,4.68-3.79,7.13a12.33,12.33,0,0,1-4.67,3.11c-4.31,2-7,1.67-14.25,2.67-2.59.37-4.62.76-8.68,1.56-11,2.17-12.22,3.2-12.91,4.23-1.7,2.55.51,4-.67,9.8-.38,1.89-1.7,8.51-6.45,10.24a7.88,7.88,0,0,1-4.23.22c-4.91-.89-7.31-5.49-7.57-6-1.79-3.56.09-4.65-1.56-8.24s-3.91-3-6.45-7.34c-.54-.93,0-.25-2.67-7.79-1.12-3.2-1.73-4.79-1.12-6.68a7.54,7.54,0,0,1,2-2.9,39.53,39.53,0,0,1,6.45-6c6.89-4.8,10.62-3.71,12-7.12.87-2.11-.48-2.72.45-5.56,1.11-3.4,3.32-3.4,5.34-6.91,1.21-2.1,1.48-4.37,2-8.9a52.25,52.25,0,0,0,.23-8.68c-.17-4.65-.28-7-1.56-8.46s-3.17-1.92-5.57-2.45c-2.6-.57-5.31-1.16-8,0-5.58,2.41-6.61,10.33-6.68,10.91a44.94,44.94,0,0,0-.22,5.56c.06,2.91.35,3.32,0,4.68a11.28,11.28,0,0,1-3.12,4.9c-1.09,1.09-1.55,1.17-2.67,2.44a19.23,19.23,0,0,0-2,2.9c-1.88,2.7-4.69,2.11-10,4.67a31.48,31.48,0,0,0-5.12,3.12c-4.68,3.5-3.93,5.07-7.35,6.9-3,1.61-5.21,1.27-6.67,3.56a6.8,6.8,0,0,0-.89,2.67c-1.46,7.13-5.54,10-4.23,12,.9,1.4,2.87.11,5.56,2a9.4,9.4,0,0,1,3.34,4.89c.8,2.44.23,3.67.22,6.68,0,5.28,1.73,5.15,1.78,9.8.06,4.87-1.85,5-1.78,10.68,0,2.61.45,3.66-.22,5.57a9.57,9.57,0,0,1-4.45,5.12c-5,2.36-11.21-1.77-12.91-2.9-5.05-3.34-5.92-6.85-8.24-6.45-2.59.44-2.2,4.93-6.68,8.23-2.77,2.05-6.56,3-7.34,2s1.44-5,4.45-7.35c2.78-2.22,4.65-2,5.34-3.78a5.31,5.31,0,0,0-2.89-6.24c-2.86-1.2-5.6,1.17-5.79,1.34-.79.71-.68,1-2.23,3.56a21.73,21.73,0,0,1-3.11,4.45,17.07,17.07,0,0,1-4.9,3.12,24.86,24.86,0,0,1-4.45,1.78,26.51,26.51,0,0,1-5.34.89c-5,.39-7.44.58-8.69-.67-.76-.76-.74-3.19-.66-8,.07-4.63.38-6,1.33-7.12,1.15-1.4,2-.95,2.9-2.23,1.41-1.92.12-3.64.22-8.24.06-3,.63-2.72,1.11-8a29.12,29.12,0,0,0,.22-6c-.34-3.27-1.18-3.56-1.55-7.12-.32-3,.16-3.93-.67-4.68s-1.77-.45-6,.22c-5.29.85-5,.7-5.57.9-2.36.82-3.9,2.26-6.9,5.11-4.44,4.24-3.73,4.72-5.79,5.79-3.22,1.69-4.73.37-8,2.45-2.3,1.46-2.77,2.87-4,2.67-1.74-.27-2.84-3.37-3.11-5.56-.4-3.23,1.07-3.9.44-6.24-.78-2.9-3.29-2.81-4.45-5.78-.81-2.09-.28-4,.67-7.35.8-2.85,1.76-6.26,4.45-9.35,3.48-4,5.72-2.73,10.91-7.34a33,33,0,0,0,5.79-6.9c2.54-3.85,4.82-7.28,5.12-11.8.37-5.71-2.73-8.37-1.34-9.8,1.62-1.66,6.22,1.57,17.59,3.79a14,14,0,0,0,7.79-.23,11.76,11.76,0,0,0,5.12-3.56c4.31-5.4,2.61-15.37-2-17.81-2.22-1.16-3.62.19-7.56,0-5.66-.26-9.27-3.35-13.14-6-11.44-7.84-13.92-4.18-26.71-12.68-6.57-4.37-11.48-7.73-12.47-13.36-.66-3.75,1.08-4.79.89-11.13-.19-6.75-2.16-6.15-2.67-13.36-.39-5.55.54-9.41-1.56-15.13a8.17,8.17,0,0,0-1.55-2.9c-2.59-2.86-6.74-2.32-12-2.45-6.45-.15-11.15-.26-15.59-2.44-6.1-3-9.16-8.69-10.24-10.69a43.42,43.42,0,0,1-4-12.69c-1-5.36-.74-7.77-2.9-10.9a14.23,14.23,0,0,0-5.78-4.9c-5.12-2.31-10.51-.73-17.59,1.33-2.78.82-2.13.83-4.67,1.56-8.25,2.37-11.26,1.1-16.92,2.67-6.78,1.89-5,4.43-10.91,5.79-3.29.77-4.61.15-20.26-2.23-6-.91-6.29-.89-7.34-1.33-6.49-2.72-6.34-7.57-12.25-12-2.82-2.13-7.37-3.13-16.47-5.12-11.24-2.46-14-1.38-15.36-.67-3.45,1.82-2.2,3.59-6.68,6.9-2.48,1.84-6.29,3.18-13.8,5.79-1.4.49-3.34,1.16-6,2-9,2.85-10.57,2.71-14.24,4.68a27.82,27.82,0,0,0-6.9,5.12c-2.68,2.75-6.35,6.53-5.57,10.24.47,2.22,2.17,2.65,4.45,7.79a5.67,5.67,0,0,1,.67,3.11c-.26,2.2-2.12,3.62-2.89,4.23-4.5,3.54-8,8.17-12.25,12-5.57,5.1-4.15,4.11-7.34,6.91-4.72,4.13-6.64,5.25-8.46,8.45a24.14,24.14,0,0,0-2.45,6.9,34,34,0,0,0-1.11,9.58c.1,2.72.51,3.83-.23,5.56a8.89,8.89,0,0,1-3.56,3.79c-6.89,4.8-8.66,3.69-10,6-2.08,3.55,1.8,6.72-.67,11.79-1,2-1.82,1.94-2.67,4.23-1.06,2.86-.14,4-.67,7.79-.26,1.89-.92,3.64-2.23,7.13a61.18,61.18,0,0,1-3.11,7.12c-1.73,3.33-2.06,3.15-3.56,6.23-1.85,3.79-1.37,4.08-2.68,5.79-1.92,2.52-3.87,3.07-3.78,4.68a3.62,3.62,0,0,0,1.78,2.44c1.41,1,2.6.65,6.9.89,2.09.12,1.85.2,2.9.23,2,0,4.82-.17,10-2,3.67-1.3,3.28-1.55,7.35-3.11,4.81-1.85,7.26-2.77,9.79-2.45,3.2.4,7.08,2.36,7.57,5.12.3,1.66-.83,2.52-2.67,5.56-1.5,2.49-5.49,9.12-4.23,15.14.36,1.69,1.2,3,2.89,5.57,2.62,4,4.72,5.54,10.24,10.9,6.94,6.74,5.57,6.18,8,8,5.58,4.2,8.84,4.2,10.24,7.79,1,2.5.7,5.86-1.12,7.34-1.58,1.3-3.84.75-6.45.23-8.9-1.77-5.36.17-16.25-2-9-1.79-13.45-2.68-15.14-4.45-2.55-2.66-3.34-6.13-7.57-8a8,8,0,0,0-3.56-.89c-3.45,0-4.41,2.72-8.9,4.67a21.31,21.31,0,0,1-7.13,1.56,31.91,31.91,0,0,1-8.45-.45c-12.93-1.87-15.62,1.48-20.26-1.78-2.7-1.89-4.23-4.74-6.23-8.46-2.33-4.32-1.76-5.31-3.57-7.79-4.07-5.6-11.4-6.62-11.79-6.67-6.92-.88-8.57,3.4-15.36,2.22-5.26-.91-8.12-4.14-9.57-2.89-1.73,1.48,1.9,6.34-.23,8.9-1.66,2-5.78,1.31-8.23.89-3.47-.59-3.57-1.56-8.69-2.67a29.57,29.57,0,0,0-5.78-.67,13.33,13.33,0,0,0-3.34.23c-2.08.44-2.94,1.26-4.45,2-3.1,1.5-4.24.35-7.79,1.34-1.91.52-3.5,1.61-6.68,3.78-5.24,3.57-5.11,4.63-8.46,6.23-3.1,1.48-3.45.69-7.13,2.45-2.93,1.4-5.76,2.76-6.45,5.34-.3,1.14.16,2.63,1.11,5.57,1.63,5,2.55,5.39,2.45,7.34,0,.71-.2,1.74-3.78,6.68-2.23,3.07-3.67,4.75-5.35,6.9-1.48,1.91-2.84,3.87-5.56,7.79-8.59,12.41-9.73,15.24-8.9,17.81a21.4,21.4,0,0,1,1.11,3.56,14.83,14.83,0,0,1,0,6,15.43,15.43,0,0,1-2.67,5.79c-1.58,2.13-2.24,1.9-3.79,4-1.09,1.49-2.47,3.37-2.45,5.56,0,4.43,5.78,7.24,6,7.35,5.1,2.42,10.42.29,12.25-.45.73-.29,1.47-.64,7.57-4.89,7.71-5.39,7.33-5.39,8.68-6,5.08-2.36,6.33-.42,13.35-2.45,5.63-1.63,5-2.93,10.91-4.68a39.71,39.71,0,0,1,13.36-1.78c4,.19,5.52.95,10,.67a23.71,23.71,0,0,0,6.9-1.11c7.32-2.61,7.33-8.79,12.92-9.8,4.11-.74,8,1.93,9.35,2.9,2.3,1.6,3.54,3.4,5.34,6a26.56,26.56,0,0,1,4,8c.86,2.93,1.44,4.92.67,7.12-.67,1.92-1.63,1.9-4.45,5.35-1.36,1.65-1,1.46-4,5.78s-3.38,4.48-4.67,6.68c-1,1.73-1,2-2.67,5.34-3.06,6.14-3.27,5.63-4.45,8.46a36.92,36.92,0,0,0-2.68,10c-.58,4.94.41,5.6-.66,7.35-1.77,2.86-5.83,3.32-11.8,4a28.2,28.2,0,0,1-9.35,0c-4.06-.78-4.43-2-10.46-4.23-5.81-2.17-8.78-3.24-11.8-2.22-4.18,1.41-6.27,5.63-6.68,6.45-1.07,2.16-.57,2.64-1.78,7.35-1.64,6.39-2.83,6.54-2.45,8.46,1,5.19,10,5.79,10,9.35,0,2.9-6,3.46-6.46,7.34-.24,2,1.17,2.51,4.46,8.46,2,3.6,3,5.39,3.33,7.13.74,3.52-.19,5.34.89,10.46.59,2.76,1.09,3.29,1.56,3.56,2.08,1.16,5.89-1.51,8-3.79,1.6-1.71,1.35-2.24,3.11-4.67,2-2.79,4.42-6.07,7.35-6.46,3.79-.49,8.75,3.82,9.79,8.69,1.29,6-4.46,7.87-6.45,18.25-1.44,7.46.92,9.7-1.78,13.8-3,4.57-6.62,2.87-10.47,7.57-4.25,5.19-.78,8.43-5.34,15.14-2.76,4.06-4.93,4.19-7.79,9.35-.82,1.49-.87,1.88-2.89,7.34-4.48,12.07-5.68,14-7.57,14.47C42.86,2304.44,41.41,2301.34,39.29,2302Z"/><path d="M565,1919.24c-1.35,0-2.28,1.89-3.12,3.56-1.5,3-3.64,9.31-1.11,11.13,1.51,1.09,4.12.15,5.56-.89,3.18-2.3,2.75-6.6,2.68-7.35C568.72,1922.74,566.91,1919.18,565,1919.24Z"/><path d="M576.81,1909c2.25.23,5.43-1.93,11.79-6.24,2.38-1.6,3.59-2.53,5.79-3.11,2.57-.67,3.4-.05,6.46-.45,2.21-.28,2.37-.69,8-2.67,4.1-1.44,4.33-1.34,8.68-2.89,5.31-1.9,6.34-2.55,7.13-3.12a16.26,16.26,0,0,0,4.67-5.34c.88-1.66,2.59-4.88,1.56-8.46a9.05,9.05,0,0,0-2.23-3.78,8.92,8.92,0,0,0-3.11-2c-4.73-1.87-13.75-.7-21.37.45-2.94.44-5,.77-7.57,0-1.16-.35-4.73-1.42-6.24-4.45-1.24-2.5,0-4.07-1.55-6.46a6.37,6.37,0,0,0-3.56-2.67c-3.65-.76-8.32,3.59-9.8,8.24-.35,1.11-.17,4.76.22,12,.21,3.87.38,6.15-1.11,8.23-1.11,1.55-1.9,1.27-3.34,3.12a12.85,12.85,0,0,0-2.45,7.12,12.23,12.23,0,0,0,.89,6.46C570.75,1905.29,573.34,1908.64,576.81,1909Z"/><path d="M798.29,2085.74c-1.23-2-2.47-3-6.9-6.45-3.87-3-4.35-3.33-5.34-3.34a5.7,5.7,0,0,0-4.9,3.12c-.85,1.71-.47,3.47.23,5.78a86,86,0,0,0,4.23,10.69c3.47,8.52,1.11,13.15,4.45,14.91a5.78,5.78,0,0,0,6.23-.89c1.3-1.27,1.49-3.31,1.78-6.45.22-2.32,0-3.51.89-5.12.78-1.4,1.26-1.09,1.78-2.23,1.06-2.29-.17-5.12-1.33-7.79A17.85,17.85,0,0,0,798.29,2085.74Z"/><path d="M879.43,2101.33c-3.5-.29-4.64-.26-6,0a15.88,15.88,0,0,0-4.67,1.66c-1.33.75-5.92,3.34-6.18,7.52a8.19,8.19,0,0,0,.84,3.84,10.43,10.43,0,0,0,2.33,3.17c1.22,1.25,2,2,3,2,.84,0,1.31-.61,2.17-1.33,2.05-1.73,2.7-1.23,5.17-2.84a26.8,26.8,0,0,0,4.68-4.34c1.5-1.58,1.29-1.56,3.34-3.84,2.95-3.3,3.69-3.71,3.5-4.34C887.37,2102,884.72,2101.75,879.43,2101.33Z"/><path d="M932.3,2222.42a6.78,6.78,0,0,0-4-2.45c-2.93-.32-5.14,2.38-5.56,2.9s-2.55,3.1-1.78,6a6.86,6.86,0,0,0,3.56,4c2,1.15,3.58,1.06,6,1.34,1.15.13,10.19,1.21,10.69,3.78.27,1.45-4.11,1.92-4.46,4.45-.23,1.71,1.36,3.82,2.67,3.79,1.82,0,1.68-4.13,5.35-6.46a9,9,0,0,1,4.89-1.33,9.49,9.49,0,0,1,5.35,1.78,17.88,17.88,0,0,1,2.89,3.34c2.84,3.7,3,4.49,4.23,4.9s2.37,0,4.67-.9c2.85-1.07,4.77-1.8,5.79-3.78,1.23-2.38.35-5,0-6a7.47,7.47,0,0,0-2.67-4c-1.9-1.27-3.33-.36-8.24-.22a43.22,43.22,0,0,1-10-.89,46.42,46.42,0,0,1-5.79-1.56c-1.74-.59-1.7-.7-4-1.56-4.87-1.8-5.29-1.41-6.45-2.44C933.73,2225.59,934.39,2224.56,932.3,2222.42Z"/><path d="M939,2298.11c-3.32-.31-8.21,5.78-6.23,9.79,1.74,3.53,8.2,4.23,10.46,1.78C946,2306.64,942.62,2298.44,939,2298.11Z"/><path d="M39.22,2175.67c-2.69-2.16-4.6-.25-12.68-2.22-3.31-.81-3.68-1.29-6.24-1.56-2.32-.24-6-.62-9.12,1.34-2,1.24-1.36,1.9-4.46,4.67s-4.35,2.61-5.56,4.68c-.2.34-2,3.53-.67,6.23,1.75,3.52,7.43,3.36,8,3.34,3.61-.15,3.95-1.93,7.35-2s6.2,1.68,8.46,3.12c3.23,2.06,3.18,3.14,6.9,5.34,2.08,1.23,3.49,2,5.56,2.23a10.13,10.13,0,0,0,6.68-1.78c.63-.45,3.43-2.45,3.79-5.57.31-2.67-1.46-3.73-4-8.68C40,2178.53,41.4,2177.42,39.22,2175.67Z"/><path d="M101.77,1991.81a31.65,31.65,0,0,0-2.89-2.45c-2.36-1.6-3.49-1.12-8.9-2.67-3.37-1-3.6-1.34-5.12-1.34a10.64,10.64,0,0,0-6,2c-2.52,1.82-5.09,5.4-4.46,9.35.33,2,1.54,4.53,2.68,4.45,1.81-.11,1-6.7,5.34-9.79a8.89,8.89,0,0,1,6.23-1.34c3.3.47,6.88,2.87,7.12,5.57.19,2.07-1.55,4.9-1.55,4.9h0s-1.74,2.26-1.34,3.11c.65,1.38,7.92,1.24,10.91-3.11.25-.37,2-3,1.11-5.35C104.58,1994.32,103.64,1993.47,101.77,1991.81Z"/><path d="M56.36,2225.09c-1.51-1.69-2.94-1.23-5.56-2.45-4.19-1.93-4.83-5.08-6.9-4.67a3,3,0,0,0-2.23,2.67c0,1,.61,1.8,3.12,3.78,3.84,3,4.15,2.48,5.34,3.79,2.52,2.75,1.16,5.21,3.56,8.9,1.12,1.72,2.27,3.85,4.23,4a3.13,3.13,0,0,0,2.9-1.34c.46-.82.1-1.58-.67-4-1.25-3.93-1-4.12-2.23-7.35A11.69,11.69,0,0,0,56.36,2225.09Z"/><path d="M204.17,494.25c1.76-6.7.88-6.41,2.45-12.47,2.29-8.86,3.93-8.64,5.56-15.8,1.55-6.8.11-7.17,1.79-16,1.4-7.4,2.51-7.7,2.89-12.47.41-5.06-.71-6.43-2.45-15.8-.67-3.59-1.41-10-2.89-22.93-1.19-10.29-1-9.7-1.56-13.58-1.08-7.24-1.7-8.66-3.34-18.47-1.2-7.17-1-7.37-2-12.69-1.75-9.53-2.44-9.63-3.34-15.14-2.42-14.77,1.94-17.52-2-26-1.84-4-3.18-4.2-6.23-10.69-2.51-5.34-2.48-7-4.9-10.46-2.94-4.17-4.28-3.46-8-7.79-3.9-4.53-2.89-5.83-7.79-13.36-2.68-4.11-2.85-3.52-7.35-10-3.25-4.7-4.9-7.11-6.23-10.24a38.55,38.55,0,0,1-2.67-11.13c-2-15.33-3.17-23.84-7.79-32-2-3.54-2.17-2.65-8-11.58-4.43-6.78-5-8.28-7.79-10.9-3.44-3.22-4.7-2.89-8.68-6.9-2-2-1.92-2.34-5.79-6.68-1.9-2.14-3.29-3.61-6-6.46-4.47-4.69-6.7-7-8.45-8.68a66,66,0,0,0-10.47-8.46,143.67,143.67,0,0,0-13.58-7.34c-3.19-1.53-3.86-1.72-4.45-2.67-2.93-4.78,4.85-14.51,8-18.48,5.42-6.79,12-15.06,23.15-20.7,3.29-1.67,7.26-3.26,10.24-7.57,2.31-3.35,1.5-4.68,3.78-10,1.36-3.18,1.88-3.25,9.35-14,5.14-7.42,5.88-8.8,8.46-10.24a17.16,17.16,0,0,1,9.57-2c1.71.11,7.69.53,11.13,4.89,3.1,3.94,2.6,9.15,2,15.36-.43,4.56-1.22,5-1.11,8.68A30.09,30.09,0,0,0,162.1,94c1.68,3.91,2.41,3.39,5.12,8.9a73.27,73.27,0,0,1,3.34,8.24c1.45,4,2.17,6,1.78,7.12-1.09,3-5.15,2.26-8.9,5.79-2.3,2.15-1.86,3.43-4.23,8.24-4.5,9.07-8.31,9-9.58,14.91-.55,2.57.15,5.57,1.56,11.58a85.66,85.66,0,0,0,5.57,16c3,6.67,4.42,10,6.68,12.47,3.66,4,7.25,5.43,6.9,8-.24,1.73-2.17,3.28-4,3.56-.91.14-1.89,0-4.23-1.33-4.35-2.45-7.9-4.44-8-7.35-.06-1.51.84-2.26.66-4.9a11.58,11.58,0,0,0-.44-2.44,55.18,55.18,0,0,0-4.45-10,84.89,84.89,0,0,1-4.68-10c-2-5.16-1.53-5.77-3.11-8.23-1.89-2.92-2.86-2.57-6.46-6.68a56.06,56.06,0,0,1-5.34-7.35c-2.52-3.94-2-3.93-4.23-7.34-3-4.64-4.28-5.1-4.9-7.79-.24-1-1-4.32.67-6.68,3.32-4.75,14.22-2.83,14.25-3.56,0-.28-1.58-.5-1.56-.67,0-.35,6.41.91,13.13-.45,3.12-.63,8.78-1.77,9.57-4.89.9-3.54-4.73-8.48-8.68-10.69-3.58-2-6.15-2-9.13-5.12-1-1.1-1.49-1.92-2.67-2.23-2.38-.62-4.9,1.59-7.34,3.79-2.72,2.44-2.94,3.42-6,6.68a64.07,64.07,0,0,1-6,5.56c-4.88,4-5.77,3.56-9.13,6.68-2.23,2.07-4.57,4.29-6,8a14.71,14.71,0,0,0-.89,8.46,17.14,17.14,0,0,0,1.78,4.23c2.63,5.51,1.5,6.95,4,13.8a45.53,45.53,0,0,0,3.78,8,44.51,44.51,0,0,0,5.34,6.9c3.46,3.84,6.22,6.91,7.79,6.23s.23-4.05,2.45-5.79c1.36-1.06,3.15-.81,5.79-.44s5.51.77,7.35,3.11a7.53,7.53,0,0,1,1.56,4.46c0,3.47-2.76,4.31-2.68,7.12.07,2.09,1.61,2.13,4,6,.37.59.28.51,3.79,8.68a21.47,21.47,0,0,0,3.56,6.23,19.78,19.78,0,0,0,2,2,31.66,31.66,0,0,1,6,8.23c5.43,9.51,8.15,14.26,9.35,16,5,7.36,6.89,7.51,8.24,12.24,1.15,4.06,0,4.73,1.33,10,1.06,4.14,2.18,5.28,4.68,11.35,3.05,7.42,2,7.24,3.56,10,5.31,9.55,15.11,7.29,20.48,17.14,1.24,2.28,1.8,4.4,2.89,8.46,1.33,4.95,2.22,8.44,1.34,12.47-.71,3.25-1.89,3.7-2.9,6.45-1.91,5.23.45,8.7,2.45,17.14,2.19,9.23.24,8.78,2.89,25.16.41,2.51.91,5.28,1.79,10.9,1,6.14.9,6.26,1.55,10.24,1.26,7.66,2.4,13,2.68,14.25,1.38,6.39,1.53,5.8,2.22,9.35,1,5.05,1.12,12.34,1.34,26.71a69.07,69.07,0,0,1-.23,8.24,77,77,0,0,1-2,10.9c-2,8.89-3,13.34-3.12,13.81a72.32,72.32,0,0,0-.66,16c.43,6.21.69,9.43,3.11,12.69a14.3,14.3,0,0,0,7.57,5.34c3.11.83,5.76.23,8.68-.44,3.17-.73,3.22-1.31,7.79-2.67,1.57-.47,1.54-.4,7.35-1.78s5.31-1.34,8.24-2c5.92-1.34,6-1.11,9.12-2,3.36-1,5.66-1.64,8.24-3.34a24,24,0,0,0,4.9-4.45c2.92-3.23,6.55-7.25,8.46-10.69,2.56-4.62,2-10.79.89-22.92a157.36,157.36,0,0,0-4.23-25.6c-.94-3.65-1.57-5.5-2.23-9.35-1.11-6.51-2-11.85-.45-17.59.62-2.23,3.16-6,8.24-13.58,4.49-6.68,4.88-6.67,8.46-12.24s3.87-6.61,6.46-10c4.22-5.58,4.82-4.56,7.79-8.68,5.35-7.44,3.39-10.74,9.12-17.58,1.91-2.28,2.85-2.79,3.79-4.9,2.19-5,1.16-11.65-1.78-12.91-1.14-.49-1.55.27-5.12.67-2.78.3-5.33.58-7.13-.45-2.49-1.43-1.55-4.24-3.34-8.46-2-4.62-4.4-4.35-12.46-12.69-3.42-3.54-5.13-5.31-6.46-7.57a31.61,31.61,0,0,1-4-15.36c-.18-4.36-.29-6.94,1.33-9.57,1.21-2,2.21-2,5.57-5.78,2.28-2.56,3.43-3.83,4.23-5.57,1.42-3.09,1.14-5.93.66-10.24-.64-5.8-2-7-2-12.24,0-2.85,0-4.27.67-5.79,2-4.35,6.27-3.51,8.24-7.35,2.31-4.51-1.06-10.63-1.34-11.13-1.83-3.22-3.54-3.13-5.12-6.67-1.66-3.74-.56-5.63-2-6.68-2.78-2-7.5,4.41-12,3.11-5.5-1.57-2.45-12.16-10.91-20-3.09-2.87-4.64-2.53-10-7.35-2.67-2.39-2.57-2.73-7.34-7.79-9.19-9.74-10.1-9.06-12.69-13.35-2.26-3.74-2.57-5.92-4.46-6.24-2.26-.38-3.45,2.47-8.9,6-3.63,2.36-6.09,4-8.68,3.34-2.1-.5-2-1.92-6.68-6.45-2.54-2.47-4.15-4-6.68-5.12-1.51-.67-2.93-1-6.67-1.34-8.84-.8-13.26-1.2-16.25.45-4.08,2.23-3.92,5.31-6.91,5.56-3.86.33-8.4-4.46-7.79-7.57.37-1.83,2.28-1.9,6.24-5.56,2.38-2.21,3.74-3.47,4.45-5.12.92-2.15.72-4.88-5.12-15.58-4.36-8-6.14-9.94-8.24-15.81a24.93,24.93,0,0,1-1.78-8.9c0-3,.66-3.28,1.34-8.24.91-6.62,0-7.54,1.33-10.46a15.48,15.48,0,0,1,5.35-6c1.87-1.33,3.72-1.94,7.34-3.12,7.2-2.33,8.48-1.72,12.24-3.78,3-1.65,2.79-2.37,5.12-3.12a17,17,0,0,1,9.13,0c3.65,1,4.46,2.36,6.23,1.78,1.92-.61,1.52-2.42,3.79-4.89,3.18-3.49,6.18-2.34,9.12-6,.82-1,.49-1,2-3.79,2.71-5,4-5.65,6-9.12,2.14-3.78,4.51-10,2.67-11.58-.88-.75-2.6-.31-3.56.22-2,1.1-1.48,2.92-3.56,5.35-1.74,2-2.34,1-4.9,3.56a33.58,33.58,0,0,1-4,4,10.44,10.44,0,0,1-2,1.34c-2.08.95-4,.41-8.24-.67-7-1.78-7-1.69-7.79-2.22-.2-.15-4.8-3.51-4.23-7.13.43-2.73,3.39-2.92,12.47-8.46C217.75,3,218.62,2,222,1a25.91,25.91,0,0,1,9.13-.89,34.1,34.1,0,0,1,18,6.68c6.34,4.82,6.22,8.66,12.24,13.8,3.7,3.16,3.78,1.73,8,5.12,5,4,7.73,8.22,11.13,13.58,4.11,6.46,3.15,6.48,7.13,12.69,3.24,5.06,5.77,9,10.24,12.91,5.44,4.76,6.77,3.34,11.13,7.57,4.1,4,2.6,4.91,9.35,14.91a94.33,94.33,0,0,0,9.57,12.47c1.65,1.76,3.17,3.64,4.9,5.34,3.25,3.21,4.58,3.9,4.89,5.79a6.7,6.7,0,0,1-2.67,6c-1.87,1.4-2.94.46-6.9,1.78-.76.25-2.37,1.06-5.56,2.67-3.8,1.91-5.69,2.86-6.46,3.34-4.18,2.58-3.65,3.58-6.68,5.34-1,.58-7.07,4.11-11.8,1.56-2.26-1.22-3.27-3.33-4.45-5.79-1.3-2.72-3-6.38-1.56-8.9,1.59-2.69,5.38-1.62,7.35-4.9.47-.78.56-1.35.89-3.79.95-7,1.43-10.47,1.34-11.57s-1-3.84-2.68-9.13c-1.24-3.83-2.24-6.56-3.11-8.9-1.64-4.43-2.34-6-2.67-6.68a23.89,23.89,0,0,0-4.46-6.9c-1.38-1.45-2.4-2.51-3.11-2.23-1.37.54.68,5.11-1.11,11.36-.18.6-.79,2.18-2,5.34-1.32,3.43-2,5.14-2.22,5.56C277,90,269.28,90.72,267.39,90.89c-5.67.51-10-1.3-15.36-3.56-4.94-2.08-7.41-3.11-9.35-5.34-6.05-7-3-18-2.45-19.81,1.89-6.33,6.13-11.38,7.79-13.36,3-3.59,4.61-4.31,6.24-7.79a27.25,27.25,0,0,0,2.22-10.46c.26-5,.37-6.53-.44-7.79s-1.67-1.49-3.56-3.12c-3.17-2.72-3-5.06-4.46-5.12-1.87-.08-4,3.34-4,3.34h0s-2.13,3.1-4.23,6.23c-1.45,2.16-2.18,3.24-2.23,3.34-1.75,3.48-.72,4.68-2.45,9.57a7,7,0,0,0-.66,2.9c.06,1.59.82,2.34,1.78,4.23s1.89,3.76,1.78,5.78c-.08,1.29-.79,2.64-2.23,5.35s-1.71,2.59-2,3.78c-.38,1.54,0,2.37.44,5.56,0,0,.45,3,.67,6,.34,4.74-.3,4.89.22,7.12.2.84.51,1.76,3.56,6.45,3.81,5.86,4.19,5.77,4.9,7.57s.49,2.17.89,9.13c.38,6.51.57,9.76,1.12,12.24.78,3.55,1.43,4.28,2,8a52.54,52.54,0,0,1,.44,7.12,33.42,33.42,0,0,0,5.79,16.47,34.08,34.08,0,0,0,9.35,8.91c3.66,2.44,4.14,1.81,7.79,4.22,7.12,4.73,5.89,7.54,10.46,9.13s7.62-.51,12.47,2.45c1.3.79,1.09.95,2.45,1.78,3.22,2,5.9,2,11.35,2.45,9.38.82,9.62,1.51,15.81,1.56,3.88,0,3.76-.24,5.78,0,5.62.66,6.93,2.82,11.8,3.34,2.59.27,4.47-.12,8.24-.89,5.14-1.07,8.07-1.67,10.46-4,3.15-3.09,1.47-5.41,4.23-7.57,3.34-2.61,6.46.25,13.36-2a14.89,14.89,0,0,0,6.67-3.79c2.43-2.57,2.41-4.91,4-10.68,2.83-10.2,4.69-9.31,4.23-12.69-.76-5.64-5.71-6.62-8-14.47-.31-1-.76-2.84-1.56-2.89s-2,1.91-2,3.78c0,1.09.45,1.91,1.34,3.56a41.83,41.83,0,0,0,2.67,4.23c1.1,1.57,1.43,1.89,1.34,2.45-.25,1.55-3.17,2.19-3.34,2.23-1.9.4-3-.17-4.68-.45a14.49,14.49,0,0,0-9.35,2c-2.6,1.62-2.2,2.83-5.56,5.12a29.54,29.54,0,0,1-4.9,2.44,79.53,79.53,0,0,0-10,5.57c-4.15,2.79-3.74,3.42-7.79,6-1.83,1.17-7.37,4.71-8.46,3.56-.78-.83.61-4.22,3.12-6.23,3.22-2.59,5.66-.8,8.24-3.34,1.72-1.7.87-2.74,3.56-6.46,1.22-1.69,1.58-1.73,2.89-3.56a22.78,22.78,0,0,0,3.12-5.56c.34-1,2-6.12-.22-10.91-1.39-3-2.71-2.46-5.35-6.46-1.84-2.79-3.75-5.69-2.89-8.45.73-2.36,3.12-3.48,6.68-5.12a27.79,27.79,0,0,1,9.57-2.45,30.46,30.46,0,0,1,9.57.89c4.95,1.23,8.24,2,10,4.89,1.3,2.08.61,3.35,2.67,6.46a16.53,16.53,0,0,0,3.12,3.56c1.22,1,1.39.87,2.45,1.78,2.09,1.82,1.87,2.9,3.56,4.45a8.47,8.47,0,0,0,4.67,2.23,7.68,7.68,0,0,0,5.79-1.56c1.91-1.71,1.18-3.45,2.67-5.56.43-.61,1.82-2.34,8-3.56a45.69,45.69,0,0,1,14.25-.45c6.93.74,10.39,1.12,13.8,3.56,2.48,1.78,2.14,2.61,6.9,8.68,4,5,5.13,5.66,9.35,10.69,4.76,5.66,5.51,7.54,9.13,12.24,10,13,14.75,12.26,20.92,22,4.64,7.33,2,7.74,6.68,16.92,5.28,10.27,10.78,13.93,22.93,26.71,12.69,13.35,9.7,12.51,18.25,20.92,19,18.69,26.73,15.88,41.41,33,6.46,7.51,6.57,9.93,15.8,20.26,8.46,9.46,10.31,9.6,18.92,18.47a168.8,168.8,0,0,1,28.72,38.51,147.2,147.2,0,0,1,9.12,19.81c2.6,7.09,3.36,11.06,6.91,18.7,3.42,7.38,4,6.46,6.45,12,3.37,7.64,4.37,14.18,6.23,26.94s.84,12.33,2.45,16.91c2.46,7,5.53,9.76,6,16.48.35,4.82-1,5.89-1.56,10.68-1.22,11.65,6.11,14.45,9.58,30.94.68,3.25,1.12,8.77,2,19.81.55,6.92.6,9.49,1.33,15.59,1,7.92,1.39,7.79,1.34,10.9-.08,4.78-1.31,8.74-3.78,16.48-1.69,5.28-1.6,4.22-4,11.35-3.4,10.07-3.64,12.39-6.23,16.92-2.45,4.28-2.94,3.44-5.57,7.79-2.94,4.86-6.75,11.17-6.23,18.25.63,8.54,7,9.95,6.45,18.48-.26,4.51-2.06,4.7-2,9.57.08,6.33,3.15,7.56,3.12,13.36,0,1.37-1.2,4.72-3.56,11.35-1.57,4.37-3.09,8.77-4.68,13.13-2.4,6.59-2.8,7.47-2.45,9.13.72,3.42,3.22,3.67,6.9,8.9,1.88,2.66,3.9,5.54,4.45,9.35.6,4.07-1.08,5.1-2.89,13.58-1.25,5.89-1.86,8.89-.89,12,.9,2.91,2.91,4.95,6.9,8.9,6.85,6.8,11,8.51,10.46,10.69-.42,1.69-3.47,2.85-5.56,2.23-1.36-.41-2-1.48-2.9-2.68-.66-.87-3-2.88-7.79-6.9-2.14-1.81-2.64-2.13-7.56-6-9.77-7.68-9.57-7.8-12-9.35a54.83,54.83,0,0,0-10.9-5.34,61.25,61.25,0,0,0-10.69-2.45c-13.62-2.34-12.77-1.48-17.58-2.67-10.41-2.56-11.12-5.74-18.48-5.79a22.87,22.87,0,0,0-12.24,3.12c-5.33,3.24-7.8,8.09-9.35,11.13a47.66,47.66,0,0,0-3.56,10.24c-1.87,7-1.22,8.38-3.12,11.35-.25.4-4.46,6.84-9.35,6-3.62-.61-5.54-4.87-6.45-6.9-.45-1-1.56-3.67-1.56-12,0-8.2,1.06-9.57,0-14.24-.5-2.18-.88-2.53-2.9-7.57-3.53-8.83-3.2-9.82-4.89-13.58-2.19-4.83-4-5.91-12.69-16-8.48-9.84-6.7-8.71-10.69-12.91-9.55-10.07-19.14-15.88-27.82-21.15-5.44-3.3-8.25-5-12.24-6.45a67.84,67.84,0,0,0-20.26-3.79c-7.71-.34-8.47.78-12.69-.44-3.14-.91-5.59-2.37-12.47-8-7.5-6.16-9.11-8.15-14.24-12.46a117.21,117.21,0,0,0-16.7-12c-10-5.84-11.3-4.13-20.48-9.57-4.51-2.68-8.94-6.32-17.8-13.58-10.07-8.25-10.37-9.28-15.36-12.47a79,79,0,0,0-17.59-8.23c-5.59-1.84-14.71-4.82-23.82-3.79l-8.9,1.11h0c-9.81-.59-12-.44-12-.44a32.85,32.85,0,0,0-11.36,2.45c-3.73,1.61-4.13,2.75-8.45,5.34-5.78,3.46-8,3.19-12.92,5.57-6.07,3-5.9,5-13.57,10.9-3.07,2.37-9.17,5.81-21.37,12.69-10.49,5.91-11.84,6.36-14.7,9.13-4,3.91-5,6.55-8.23,7.12-6,1-11.63-6.3-12.24-7.12-4.47-6-4.31-12.83-4.23-16.25,0-1.64,1.06-6.14,3.11-15.14a115.39,115.39,0,0,1,2.9-11.35c1.77-5.33,2.44-5.36,4.67-11.13,3.17-8.2,2.2-9.12,5.57-17.81,1.91-4.94,4.23-10,4.23-10,2.6-5.71,3.46-6.85,4-9.79.8-4.35-.53-4.93-.22-10C200.9,502.78,202.17,501.87,204.17,494.25Z"/></g></g></svg>