<svg xmlns="http://www.w3.org/2000/svg" viewBox="0 0 1366.33 3012.52"><g id="Layer_2" data-name="Layer 2"><g id="Argentina"><path d="M406,177.2a38.93,38.93,0,0,0-5.08,1.88c-.56.27-1.94.94-3.58,1.89-2.11,1.21-3.16,2-4.14,2.63-3.89,2.49-5.46,1.65-9,3.58-3.13,1.69-2.86,2.83-6.21,5.46-4,3.09-5.38,2.33-11.11,5.27a48.3,48.3,0,0,0-12.62,9.42c-4.63,4.64-5.74,7.5-6,8.28a14.63,14.63,0,0,0-.94,8.29c1.18,5.48,5.32,5.08,7.34,11.48,1,3.15.11,3.61,1.51,8.29.56,1.87,1.12,3.2.56,4.7s-1.61,2-3.58,3.21c-6.94,4.11-7.29,4.09-7.9,4.89-1.63,2.13-.67,4.28-.19,9.79.82,9.63-1.56,9.45-.38,15.63.17.89.18.71,6,14.88,1.82,4.42,2.73,6.68,2.44,8.85-.53,4.06-3.36,5.87-2.44,9,.55,1.91,1.68,1.62,2.82,4.33.73,1.73.45,2.3,1.13,6.41.73,4.45,1.11,4.14.94,5.27-.47,3.1-3.3,5.24-5.84,7.15-3.06,2.32-4,2-5.08,3.58-1.74,2.51-1.15,5.7-.56,8.66.26,1.36,1.17,5.46,5.64,13a117.45,117.45,0,0,0,7.16,10.74,30.79,30.79,0,0,1,4.33,6.4,16.49,16.49,0,0,1,2.07,7.53c-.05,3.89-2,8.57-5.65,10.92-3.1,2-4.77.6-9.22,3.39a34.88,34.88,0,0,1-4.15,2.64c-2.49,1.23-4.3,2.12-6.21,1.69-3.09-.69-3.43-4.16-5.65-4.14-.56,0-1.77.24-4.33,4.33a44.14,44.14,0,0,0-4.14,8.85c-2.16,5.84-3.24,8.76-4.33,11.11a88.3,88.3,0,0,1-5.46,9.6c-4.35,7-5.78,8.3-7,12-1.31,4.12.21,4.26-1.13,8.29-1,3-2.54,5.32-5.65,10-2.2,3.31-2.15,2.87-3.39,4.89-3.42,5.61-2.57,7-4.89,9.61-3,3.44-4.91,1.65-8.29,5.27-1.2,1.28-2.43,3.81-4.89,8.85a48.91,48.91,0,0,1-3.2,6.21c-1.78,2.68-2.42,2.71-4,5.08a26.91,26.91,0,0,0-3.2,7.35c-1.36,4.5-.78,5.63-1.69,8.85-1.4,4.92-5.83,5.83-5.46,9.22a20,20,0,0,1,.56,3,15.9,15.9,0,0,1-.75,4.7c-.67,2.7-1,4-1.13,4.33-1.71,4-4.8,3.82-6,7.16-.87,2.36.52,2.85,0,5.46-.85,4.24-4.84,4.52-9.6,10.17-2.08,2.47-5.21,6.18-4.52,10.17.4,2.31,1.66,2.25,3,5.64,1.2,3,.86,4.68,1.32,9.61a71.26,71.26,0,0,0,1.51,9.6c2,8.26,4.46,9.73,3.2,13-.92,2.39-2.83,3-3.39,6.4a22.32,22.32,0,0,0,0,4c.19,4.63.87,5.95,1.13,6.4.73,1.29,1.06,1,2.07,2.45a12.7,12.7,0,0,1,2.07,6.4,15.15,15.15,0,0,1-1.13,6.78c-.87,2.31-1.57,4.17-3.39,5.46-.78.55-2.53,1.06-6,2.07a15.65,15.65,0,0,0-3.77,1.32,7,7,0,0,0-3.2,2.82c-1,2.13.51,3.4-.56,5.65a9,9,0,0,1-2.45,2.64c-2.09,1.82-2.77,1.67-3.77,2.82s-1.05,2.14-1.69,5.09c-1,4.68-1.34,4.33-1.7,6.59-1,6.24,1.65,7.28.57,13-.52,2.71-1.2,2.9-1.89,6.59-.6,3.24.62,4.82-.56,7-.71,1.27-1.17,1-3,3.2-2.25,2.67-1.68,3.21-3,4.33-2.59,2.16-5.25.53-7.34,2.63-.7.71-.69,1.19-1.51,4-2.13,7.2-3.22,7.3-3.2,10.17,0,3.22,1.41,3.12,1.51,6.77s-1.36,4.23-1.32,7.54c0,3.69,1.89,3.82,3.2,9,1,3.8.06,4,1.13,9.42.75,3.75,1.16,5.67,2.64,7.53a16.77,16.77,0,0,0,5.84,4.33c2.58,1.24,3.69,1.05,4.89,2.45a5.89,5.89,0,0,1,1.32,4.89c-.5,2.32-2.34,2.35-3.77,4.52s-.69,6.34.76,14.69a25.09,25.09,0,0,0,1.5,5.84c.9,2.15,1.64,2.93,3.39,5.65a78.43,78.43,0,0,1,5.27,9.6c1.62,3.53,2.42,5.3,2.45,7.15.05,3.3-1.45,4.19-.94,7.16.4,2.35,1.41,2.19,2.82,5.65,1.65,4,.62,5.08,2.26,7.72s3,2,4.34,4.33c1.78,3,1.49,7.33-.19,10.35-1.77,3.19-3.66,2.4-5.28,5.65-1.86,3.77-.84,7.89-.56,9a9.38,9.38,0,0,0,1.88,4.33c1.66,1.9,3.36,1.72,8.85,3.39,6.6,2,7.68,3.36,8.1,3.95,1,1.39,1.08,2.87,1.32,5.84a19.65,19.65,0,0,1-.94,8.48,32.58,32.58,0,0,1-1.89,3.76c-2.1,4.14-3.16,6.21-3.76,8.47-.42,1.55-.34,4.43-.19,10.17.12,4.44.39,6.91.56,8.29.25,2,.53,3.49.76,4.7.12.66.55,3,1.69,7.72.35,1.45.74,3.07,1.32,5.28,1.63,6.18,2.14,7,1.69,8.85a7.63,7.63,0,0,1-2.82,4.33c-1.8,1.25-3.11.69-7.16,2.07a13,13,0,0,0-3.2,1.32c-1.69,1.2-2.17,2.73-4.33,9.41a52.64,52.64,0,0,1-1.88,5.46,47.5,47.5,0,0,1-3.2,5.84c-1,1.59-1,1.45-2.64,4-3.26,5-3.6,6.06-3.76,6.78a32.24,32.24,0,0,0-.19,4.71c0,2.64,0,4.42,0,6.78,0,5.69,0,7-.75,8.85-.61,1.51-.85,1.25-1.7,3a21.18,21.18,0,0,0-1.88,9.79c.12,5.58,2,6.64.75,8.85-1.59,2.82-5.9,3.33-6.4,3.39-2,.21-2.18-.4-4.52-.38-1.74,0-5.94,0-8.1,3a6.83,6.83,0,0,0-.75,6.59c1.32,2.94,4.6,3.74,5.46,4,2.21.54,2.69-.26,3.95.38.52.25,1.92,1.13,3.21,8.85a83.8,83.8,0,0,1,.94,8.66c.07,1.27.19,3.15.19,5.65,0,6-.66,6.22-.19,9,.56,3.44,1.61,3.55,1.69,6.41.07,2.47-.71,2.68-1.5,6.59a45.34,45.34,0,0,0-.76,10c.06,4.35.55,4.49,0,5.46-1.89,3.34-7.52,1.31-10.54,5.27-1.3,1.7-.35,2.19-1.88,4.33-2.39,3.31-5.22,2.87-6.41,5.65-.75,1.74.34,2-.19,5.08-.17,1-.88,5.22-3.95,7-.66.38-.83.29-3.77.94a47.27,47.27,0,0,0-6,1.51c-2.62,1-4.13,2.89-7.16,6.59-2.14,2.61-3.21,3.92-3.76,5.83s-.25,2.88-1.13,5.46a18.92,18.92,0,0,1-1.88,4c-1.82,2.87-3.26,3.25-4.52,4.89-1.57,2-1.36,5.2-.94,11.49.4,6.1.6,9.15,2.07,12s3,4,2.82,6.59c-.11,1.89-1,2.42-2.45,5.27-1.51,3-.85,3.19-2.82,9.23-1.9,5.84-2.86,6.75-2.26,8.85.51,1.76,1.32,1.58,3,4.89a23.9,23.9,0,0,1,2.07,5.65,12.87,12.87,0,0,1,.38,6c-.35,1.57-.88,2-1.88,4-1.35,2.61-3.09,6-2.64,9.42.22,1.68.68,1.07,3,6.21.71,1.55,1.41,3.35,2.83,7,1.1,2.82,1.66,4.24,2.07,5.46,1.36,4,1.2,4.93,2.07,7.72,2.28,7.3,5.45,7.71,5.27,12-.11,2.76-1.39,2.55-2.26,6.78a19.29,19.29,0,0,0,.38,10.35,24.24,24.24,0,0,0,6,8.85c1.41,1.41,2.3,2,3.2,3.58a14.46,14.46,0,0,1,1.5,6.4,16,16,0,0,1-.37,6,18.1,18.1,0,0,1-2.26,4.52c-2.11,3.44-3.17,5.16-4.33,6.21-2.83,2.54-4.57,1-10.74,3-2.89,1-5.69,2.71-11.29,6.22-3.12,1.94-4,2.7-4.71,4-1.16,2.06-.49,3.14-1.7,7.16-.81,2.7-1.21,2.56-1.88,5.08a19.55,19.55,0,0,0-.75,6.59c.25,3.27,1.31,3.32,1.88,6.59.63,3.64-.6,4-.56,9.41,0,4.58.93,4.69.56,7.91-.33,2.89-1.28,4.88-2.82,8.1s-1.63,2.3-5.28,8.47c-1.71,2.91-2.41,4.33-3.57,4.33-1.33,0-1.77-1.81-4.52-2.82-.74-.27-2-.74-2.64-.19s-.11,2.3.19,3.77c1.21,5.93-3.28,8.49-1.51,12.42,1,2.13,2.31,1.47,4,4.52a16.89,16.89,0,0,1,1.69,5.84,19.81,19.81,0,0,1,.19,4.71c-.3,3.35-1.4,4-2.26,7.34-1.18,4.54-.62,9-.38,9s.64-2.26.19-2.45c-.69-.3-2.44,4.88-4.89,4.9s-3.75-5.57-5.09-5.28c-1.17.26-1.92,4.91-.19,8.48a20.38,20.38,0,0,0,2.83,4,33.43,33.43,0,0,1,3,3.58,8.55,8.55,0,0,1,1.7,4c.16,2.55-1.87,3-3.39,7-1.24,3.2-.3,3.92-1.7,6.21-1.54,2.54-3,2.13-4,4.15-1.38,2.86.88,5,.56,8.47s-3.5,3.15-6,8.28c-.95,1.93-2.22,4.52-1.51,7.35.33,1.33.74,1.25,3.39,5.46,2.15,3.4,1.86,3.42,3.2,5.27,2.26,3.13,3.44,3.57,3.2,4.52-.5,2-6.17,1.21-7.15,4-.26.73,0,1.07.37,3a33.57,33.57,0,0,1,.38,6.4c0,4.7-.75,5.23-.75,9.41a56.68,56.68,0,0,0,.56,6.22c.45,5.76-1.26,7.12-2.07,13.74-1,8.44,1.45,8.67.19,17.51-.62,4.38-1.41,5.58-.57,7.91,1.29,3.55,4.23,3.89,7,8.66a20.58,20.58,0,0,1,2.26,6c1.37,6.11-.95,7.59.57,12.24,1.29,4,3.37,4.1,3.38,7.15a9.07,9.07,0,0,1-4.33,7.35c-1.84,1.13-3.74,1.19-7.53,1.31-2.78.09-3.7-.22-7.15,0-4,.26-4.75.82-5.09,1.13-1.25,1.16-.69,2.29-2.26,5.28-1,1.95-1.37,1.67-2.07,3.2-1,2.16-1.58,5.59,0,7.15.94.93,1.7.25,2.83,1.13,2.27,1.77,1.55,6.38,1.32,7.91-.45,2.83-1.2,2.84-1.32,5.46-.11,2.23.36,3.69-.38,4.14s-1.6-.73-3.39-.56a3.9,3.9,0,0,0-2.45,1.13c-.94,1.18,0,2.73.94,6.78a36.24,36.24,0,0,1,1.13,8.28,32,32,0,0,1-.18,3.58,111.56,111.56,0,0,0-.76,13.74c.14,4,.3,7.36,2.26,11.11a22.53,22.53,0,0,0,3.39,4.71,20,20,0,0,0,6.22,4.71c5.64,2.55,8.52-.55,12,2.07,2.76,2,3.34,5.7,3.57,7.15a11.2,11.2,0,0,1-.94,7.16,7.62,7.62,0,0,1-3,3.39c-2.45,1.34-3.87-.15-6.4.75a8.26,8.26,0,0,0-5.09,7.72c.13,2.26,1.5,3.88,2.83,5.46,1.62,1.93,2.47,2,4.89,4.14s4.08,3.6,5.09,5.84c1.65,3.65-.24,5.2,1.5,8.85,1.41,2.95,2.8,2.29,4.15,5.08,1.14,2.38.89,5.23.37,10.93-.33,3.75-.65,4.09-.56,6.4.14,3.76,1,4.06.94,6.78a15.35,15.35,0,0,1-3.2,8.47c-2.18,2.93-3.21,2.22-5.65,5.08a18.9,18.9,0,0,0-4.33,10.17c-.36,4.29,1.43,4.35,1.13,9.42-.23,4-1.44,5.85-.19,7.53.89,1.19,2.4,1.43,4.71,1.69a85.9,85.9,0,0,0,11.67.75c8.55-.31,9.57-1,14.5-.56a43,43,0,0,1,7.16,1.13,35.29,35.29,0,0,1,10.73,5.08,5.54,5.54,0,0,1,2.26,2.64,5.88,5.88,0,0,1-.76,4.71c-1.39,2.25-3,1.7-4.51,3.39-2.05,2.26-.62,4.87-1.32,12.8-.49,5.5-1.36,6.28-1.89,6.59-1.52.9-3.33-.22-7.53-1.69a85.48,85.48,0,0,0-9-2.45c-5.72-1.27-10.38-1-18.83-.57-5.79.31-5.14.65-8.1.57-6.33-.17-9.06-1.68-11.67.19a7,7,0,0,0-2.64,4.89,7.74,7.74,0,0,0,2.26,5.65c2.3,2.43,4.36,1.69,11.11,4.33,2,.79,3.57,1.54,5.46,2.45,3.76,1.81,4.75,2.56,7.15,3.77,7.18,3.6,8.09,1.84,11.11,4.33,3.65,3,1.92,5.24,6.22,10,3.1,3.42,4.35,2.63,7.72,6.59,1.94,2.28,4.43,5.29,3.95,8.66-.17,1.23-.54,1.06-1.88,4.52-1.46,3.76-1.12,4.21-2.07,5.83-1.62,2.76-2.92,2-4.9,4.71-2.38,3.23-1,5-3.39,7.91a11.46,11.46,0,0,1-5.65,3.58c-4.52,1.32-9.79-.19-9.79-.19a12.3,12.3,0,0,0-4.14,5.08,13.24,13.24,0,0,0-.94,5.65c.17,5.6,3.05,6.06,3.58,11.86.26,3-.36,4.25.75,6.59a31.29,31.29,0,0,0,2.63,4c2,2.83,2.26,2.87,2.64,3.57,1.49,2.73.37,6-.75,9.23-2.05,5.8-3.69,11.15-7.35,11.86-2.9.57-5-2.17-7.72-.75a5.62,5.62,0,0,0-2.26,2.45c-.12.23-1.56,3.09-.37,5.08,1.08,1.82,3.29,1.13,6,2.83a10.7,10.7,0,0,1,4,4.7c2.4,5.13-1.55,7.88.37,13.37,1.19,3.37,3,3.12,4.52,7.53.25.7.79,2.34,1.13,7,.54,7.16.8,10.74-.56,13.93a18.68,18.68,0,0,1-6.78,7.91c-3.82,2.45-5.88,1.56-8.47,4.33a13.8,13.8,0,0,0-3.2,7,20,20,0,0,0,0,7.16c.74,5.19,2.53,7.35,1.31,8.85-1,1.3-3.07.5-3.76,1.88-.56,1.1.15,2.8,1.13,3.76,1.49,1.48,3,.62,4.33,1.89s1.28,3.67,1.13,5.83-.33,4.66-2.26,6.22a7.26,7.26,0,0,1-4.52,1.32c-2.71,0-3.95-1.25-4.71-.57s.13,1.74.19,4.9a23.11,23.11,0,0,1-.38,4.33,15.05,15.05,0,0,1-1.13,4.52,11.19,11.19,0,0,1-2.07,3,12.74,12.74,0,0,1-7.15,3.39c-3.85.65-5.26-.57-6.78.75s-1.5,3.64-1.51,4.52c0,2.54,1.16,3,1.51,5.27.44,2.93-1,5.41-3,9-1.92,3.39-2.45,3-3.58,5.46-1.81,4-.43,5.12-2.07,8.29-2,3.78-4.44,3.15-5.46,6.4-.66,2.09-.13,4.09.94,8.09a31.82,31.82,0,0,0,2.07,5.84c2.82,5.77,6.4,6.75,9.6,10.92,1.45,1.89,4.79,6.86,4.33,12.81-.06.84-.73,3.51-2.07,8.85-.61,2.44-1.07,4.12-1.5,6.77s-.27,2.74-.57,3.58c-1,2.68-3.32,3.84-7.15,6-6,3.42-9,5.14-9.8,6.59s-.53,4.69,0,11.11c.36,4.25.6,5.5,1,10,.38,5,.56,7.49.18,9-1.07,4.38-4.13,7.07-6.59,9.23-4.58,4-9.49,5.87-13.55,7.34-6.21,2.26-7.87,1.7-10.74,4.15-2,1.68-3.07,3.82-5.27,8.09a43.79,43.79,0,0,0-4.14,11.3c-.75,3.61-1.16,5.72,0,7.72,1.07,1.84,2.85,2.53,2.64,3.77s-2.05,1.77-3,2.07c-2.71.84-4.1.23-8.47,0a23.73,23.73,0,0,0-9,.94,6.34,6.34,0,0,0-2.45,1.32c-1.53,1.39-1,2.79-2.07,5.27-1.19,2.89-2.41,2.49-3.95,5.84a15.54,15.54,0,0,0-1.32,4.52,18.23,18.23,0,0,0,.57,6.77,52.05,52.05,0,0,0,2.26,7.16c.85,2.43,1.45,6.71,2.63,15.25.73,5.23.93,7.48-.38,9.79C5,2424,4.52,2424,3.21,2426s-3.09,4.59-3.2,7.35c-.17,3.81,3.09,4,4.33,8.85s-1.52,6.75.19,10.92c.64,1.58,1.15,1.57,4.89,5.46,4.65,4.83,7.1,7.41,8.66,10.92a22,22,0,0,1,1.7,8.85c.37,9.88-4.1,13-1.89,19.39.33.94.18.18,3.2,6a71.42,71.42,0,0,1,4.15,8.66c1.76,5.39.53,7.14,2.26,8.47,2.52,1.94,7.63.14,10.73-2.07,3.7-2.64,2.85-4.67,7-7.53,1.87-1.31,5-3.51,8.47-2.83,1.86.37,2.62,1.35,5.84,1.89a8,8,0,0,0,3.76,0c1.72-.55,2-1.57,3.77-2.83a12.09,12.09,0,0,1,5.46-2.07c2.51-.37,4.39.14,7.34.94,2.63.72,3.94,1.07,4.71,2.07,1,1.37.78,2.91.56,6.22-.26,4-.22,7.28-.18,8.28.17,4.92,2,5.36,3.39,11.11,1,4.23,2.57,10.71-.57,15.07-2.68,3.7-6.82,3.17-7.72,6.77-.45,1.81.55,2.12.75,6.22.22,4.43-.89,5.11,0,7,1.21,2.5,3.62,2,5.46,4.71,1,1.39,1.22,2.84,1.32,6.22.24,7.91.36,12.07-1.69,17.51-1.19,3.12-2.13,5.62-4.52,8.09s-4.9,3.38-4.71,4.71c.22,1.58,3.67,1.08,7,3.39,4.36,3.05,2.8,7,7,11.67,3.12,3.49,4.54,1.86,10.17,6,3.9,2.88,8.74,6.46,9.61,11.86.66,4.16-1.54,6.13,0,10.92a10.54,10.54,0,0,0,3,5.09c3.57,2.87,8.81.39,16.19-1.32,1.93-.45,12.08-.93,32.39-1.88,3.76-.18,6.52-.3,11.67-.57,6.07-.32,7.66-.45,13.56-.75,6.21-.33,9.31-.49,12.24-.57,3.19-.08,8.56-.22,15.63,0,6.48.21,11.68.64,14.87.94,7.36.7,11,1.05,14.31,1.89a75.54,75.54,0,0,1,17,7c.95.51,4.38,2.33,8.66,4.71,6.34,3.53,6.32,3.7,7.53,4,2.76.57,3.83-.12,12.24-.19.71,0,1.81,0,2.45,0,9.22.21,12.8,7.36,23.72,10.35,4.16,1.14,6.19.81,11.3,2.83a39.85,39.85,0,0,1,6.78,3.39c3.16,2,3.54,2.87,7.72,6,4.4,3.33,6.64,5,8.47,4.71,3.21-.48,6.12-4.58,6-8.29-.08-3.13-2.27-4.26-7.72-10.54-3.1-3.57-5.27-6.58-9.61-12.62a119.5,119.5,0,0,1-7.53-11.29c-2.29-4-2.92-8-6.59-14.5-.63-1.11-.55-.91-1.32-2.26-2.49-4.4-3.45-6.77-6-11.86-1.57-3.11-1.82-3.18-2.45-4.71-1.34-3.26-1-4.15-2.07-5.08-1.47-1.3-3.1-.49-7.72-.57a40.85,40.85,0,0,1-7.91-.94c-4.33-.88-4.34-1.61-9-2.64-4-.89-6.55-.89-6.59-1.5s2.53-1.25,3.58-1.51a26.88,26.88,0,0,1,7-.75c4.18.09,9.14.47,12.8.75,3.38.26,5,.39,6.4-.75a6.34,6.34,0,0,0,1.89-4.33c.18-2.57-1.05-3.77-2.26-7.16-1-2.73-.63-3.21-1.51-7.15-1-4.59-1.91-5.86-3.2-10-2.54-8.15-4.25-13.61-2.64-19.59.65-2.38,1.79-4.73,1.32-8.28-.1-.79-.62-4.7-2.64-5.27-1.42-.41-2.23,1.23-5.64,2.63-2.06.85-5.39,1.73-6,.76-.39-.6.37-1.72,1.88-4a21.25,21.25,0,0,1,3.39-4.14c1.8-1.66,2.4-1.58,4-3.2a18.45,18.45,0,0,0,2.26-3c2.19-3.78,2-8,1.69-12.24-.08-1.19-.1-.94-.94-7.16-1.14-8.43-1.13-9.19-.94-10.17.6-3.12,2.21-3.92,6.21-8.85a106.64,106.64,0,0,0,9.23-13.74c3.8-6.83,3.83-9.18,7.34-11.86,1-.77,1.25-.77,7.53-3.39,8.11-3.39,11-4.76,13.94-6.59,4.28-2.64,6.53-4.07,6.59-6.22,0-1.62-1.86-3.46-5.65-7.15-2.12-2.06-3.2-3.1-4.52-3.77-1.82-.92-2.42-.65-7.34-1.69-4-.85-3.62-1-6.41-1.51-3.53-.6-3.83-.26-7-.94-2.71-.59-2.94-.94-4.9-1.13-3.07-.29-4.63.39-4.89-.19s1.57-2.87,3.95-3.39c1.22-.26,1.68.1,4.9.38,1.9.17,1.68,0,3.57.19,4,.31,4.57.85,7.16.75,2-.07,3.13-.12,4.14-.94,1.5-1.23,1.71-3.34,1.88-5.08s-.1-2.16-.18-4.71c-.11-3.24.31-3,.18-5.46a20.78,20.78,0,0,0-1.89-7.81c-.76-1.58-1.39-2.3-1.31-2.36s5.11,4.19,7.53,10.73c.11.3.83,3.21,2.26,9,1.15,4.66,1.41,5.78,2.45,7.34.65,1,2.13,2.35,5.09,5.09s3.45,2.94,4.33,4.33c1.15,1.84,1.15,2.89,2.26,3.39,1.51.67,3.39-.45,4.51-1.13,3.28-2,2.73-3.57,5.28-5.09,2.34-1.39,3.3-.32,7.91-1.88a29.27,29.27,0,0,0,4-1.69c6.18-3.07,6.41-6,12.62-9.61a10.24,10.24,0,0,0,3.2-2.26c1.32-1.52,1.71-3.17,2.26-6.77.81-5.38,1.22-8.07,1.13-10.17-.26-5.31-1.67-5.33-1.32-8.85.36-3.68,1.94-4.08,3.95-9.6a43.23,43.23,0,0,0,2.26-10c.36-2.92.35-5,.94-12,.12-1.4.17-1.9.19-2.1.4-3.9.91-6.53.75-6.57s-1.18,7.07-5.83,11.68c-.93.92-1.95,1.68-3,1.5-1.52-.24-2.58-2.29-2.82-3.95-.36-2.47,1-4.55,3.2-7.72,1.51-2.21,1.91-2.31,3.58-4.52,2.25-3,4-5.31,4.89-8.28,1.5-5-1-6.38.76-10.36.71-1.62,2.35-3.09,5.65-6,4.19-3.75,6-4.34,8.47-7.54a26.1,26.1,0,0,0,2.82-4.52c2.95-5.48,6.89-8.46,18.83-18.82,11.52-10,9.92-9,12.05-10.55,7.44-5.26,11.13-5.86,17.89-11.3,3.61-2.9,3.4-3.41,9.42-9.41,18.07-18,22.66-16.14,26.54-25,1.26-2.89,2.84-7.8,7.54-10.92,3.21-2.14,5.63-2,6.21-1.89,3.71.4,5.45,4.66,6.4,4.14s-.44-4.88-.56-5.27c-1-3.05-2-3.51-2.64-6.21s-.51-5,0-5.09,1.13,3,3.77,4.15a3,3,0,0,0,2.44.19c.83-.46,1.06-1.6,1.13-4.71.11-4.59.17-6.88-.75-8.1-1-1.39-2.53-1.76-5.46-2.45-7.08-1.65-10.25,0-11.86-2.07-1.34-1.74-.81-5.05.56-5.83.45-.26.87-.17,2.07,0,2.37.33,4.46.53,5.09.56,2.39.12,4.27-1.18,5.84-2.26.74-.51,3.66-2.64,6.59-10.17A42.77,42.77,0,0,0,538,2181c.42-6.25-1-6.35-1.7-15.62-.85-11.11.81-15.55-2.63-18.64a35.58,35.58,0,0,0-5.65-3.58,54.26,54.26,0,0,0-5.28-2.45c-7.64-3-25.06-2.86-37.65-4.33-7.65-.89-11.47-1.34-14.31-2.64-12.29-5.6-11.55-16.06-26.55-31.06-6.82-6.82-7.15-4.84-15.82-13.37s-15.57-15.5-17.32-25.61c-.09-.51-.37-4.55-.94-12.62-.77-10.82-1.52-11.26-.95-13.93,1.21-5.61,3.68-4.32,8.67-14.69,2.16-4.5,2.67-6.77,5.46-10.17,1.43-1.74,2.25-2.31,2.82-4,1.18-3.41-.81-5.48-.94-9.41a15.61,15.61,0,0,1,3.39-9.61c3.84-5,7.7-2.91,13.18-7.91a26.76,26.76,0,0,0,7-11.48c1.68-5.16.65-7.11,3-11.49,1.1-2,2.71-5,6-6.78,3.78-2,9.24-2.07,12.81-1.5a10.32,10.32,0,0,0,5.27-.19,9.5,9.5,0,0,0,3.2-1.88c3.28-2.87,2.85-6,4.9-9.42,3-5,8.77-6.7,10.92-7.34,3-.88,5.62-.9,10.92-.94,1.08,0,3.62,0,6,.19,10.35.92,12.48,5.7,20,5.64,1.42,0,7.31,0,11.3-4.33s5-11.27,2.26-15.06c-1.4-1.94-2.75-1.55-4.14-3.77-2.51-4-.58-9.27-.38-9.79,1.56-4.06,3.92-3.87,9.6-9.41,6.23-6.07,5.46-8.3,10.92-12,3.68-2.53,5-2.21,6.78-4.33s1.47-4.14,1.51-14.12c0-10.59.3-12.44.56-13.94.74-4.15,1.51-7.72,1.51-7.72.85-3.93,1.26-5.26,1.13-7.34a15.57,15.57,0,0,0-2.07-6.59c-2.54-4.94-5-12.36-5.27-17.7-.52-10.28,6.79-18.6,7.34-19.21,4-4.45,6.69-4.19,10-9.41,2.58-4.09,1.62-5.31,4.52-10.36a28.49,28.49,0,0,1,8.66-10c4.24-2.85,5-1.25,12.62-4.7,6.82-3.11,7-4.77,11.86-5.84,4.48-1,5.66.14,8.85-1.51.65-.33,5.57-3,6.21-7.91.15-1.13.4-3.1-.75-4.33-1.92-2-5.65.18-11.11.38s-9.7-1.77-14.69-4.14c-3.78-1.8-6.72-4.15-12.61-8.85-6.51-5.2-7.21-6.68-7.35-8.1-.3-3.18,2.21-5.82,5.46-9.22,2.79-2.92,5.41-4.55,9.61-7.16a33,33,0,0,1,7-3.58,19.53,19.53,0,0,1,8.1-1.13c1.62.15,2.22.44,5.27,1.32,8.53,2.45,8.53,1.5,10,2.64,3.12,2.44,1.26,5.34,5.09,12.42.95,1.77,1.1,1.65,4.14,6.22,3.87,5.82,3.44,7.77,5.84,9.22,2.14,1.31,4.37,1.18,8.28,1,2.69-.16,4.9-.74,9.23-1.89,7.33-1.94,11-2.92,11.48-3.2s7.56-4.55,8.66-11.86c.57-3.77-1-4.39-2.63-12.62-1.32-6.83-.19-6.31-1.51-13.37-1.27-6.82-2.46-8-4-15.44-.44-2.16-1.23-4.24-1.7-6.4s-.63-3.41-1.69-4.33c-.67-.57-1.83-1.14-4.14-.94-6,.53-7.49,5.2-14.31,7.72-1.91.7-1,0-10.36,1.88,0,0-9.13,1.8-9,2.26.06.28,10.29-3.55,14.69.76a9.41,9.41,0,0,1,2.26,4.7c.58,2.5-.1,3.28-.38,8.85-.18,3.63.06,4.15-.56,4.9-1.25,1.49-3.61,1.11-9,.56-7.21-.72-10.82-1.08-12.62-.94-5.14.41-7,1.87-10.54.57-1.06-.39-3.29-1.25-4.14-3.39a6.12,6.12,0,0,1,.94-5.65c2.23-3,5.92-2.07,7.15-4.52,1-2,.37-4.87-.94-5.46s-2.59,1.59-5.84,2.26c-1,.21-2.36.28-5.64-.57a45.77,45.77,0,0,1-10.55-4.14c-7.25-4.19-14.17-8.2-16.57-15.63-.36-1.11,0-.43-.56-11.11-.55-10.47-.91-11.67-.76-16.75a106.44,106.44,0,0,1,.94-11.11c.67-4.77.95-4.4,1.13-6.59.72-8.49-3.34-16.41-6.21-22a47.84,47.84,0,0,1-2.82-6,42.15,42.15,0,0,1-2.26-9,43.41,43.41,0,0,1-.38-7.72c.1-2.47.55-11.78,5.65-19.39a13.39,13.39,0,0,1,4.89-4.71,12.69,12.69,0,0,1,4.34-1.32c6-.8,12.17,1.58,14.68,2.64,5.82,2.45,4.64,3.06,13.94,7.72,5.29,2.65,9,4.11,10.54,4.71,3.82,1.46,3.74,1.18,7,2.45a99.8,99.8,0,0,1,12.24,6c6.1,3.42,5.59,3.64,8.47,5.08,6.24,3.14,11.81,3.71,18.45,4.34,3.2.3,8.27.2,18.27,0,14.77-.31,17.52-.63,20.33-1.13,1.47-.27,3.53-.68,13.75-3.77,12.07-3.65,20.13-6.38,22.4-7.16,18.47-6.28,20.84-7.84,22.79-10.73,3.76-5.57,3.34-12.18,3.2-14.5a29.36,29.36,0,0,0-5.46-14.87c-3.1-4.42-4.4-3.7-6.4-7.53-1.07-2-1.54-6-2.45-13.75-.72-6.1-.86-8.83.75-10,1.06-.75,1.73,0,3-.56,3.49-1.47,3.92-9.15,4.33-17.7.22-4.49.07-6.49,1.7-8.1s3-.79,6.21-3.2c1.48-1.1,2.24-2,4.14-2.82a13.52,13.52,0,0,1,3-.76c5.8-1.38,7.16-24,2.82-33.7a35.76,35.76,0,0,0-1.88-3.58c-2.21-3.6-4.14-5.06-6.21-7.34-3.37-3.71-6.6-7.25-6.78-11.87-.14-3.29,1.37-4.91.56-9.22a22.51,22.51,0,0,1-.56-3.77c-.13-2.78.46-4,.56-5.46.35-4.89-5.32-6.09-6.21-11.86-.48-3.1.48-7.16,2.82-8.29s3.8,1.56,10.17,2.64c4.2.72,5.48-.1,7.16,1.32,2,1.67.94,3.44,3.2,6.59a13,13,0,0,0,12,5.27c7.9-.61,10.47,2.09,40.1,1.7,17.11-.23,30-1.32,34.27-1.7,12.1-1.08,19.53-1.74,29.56-3.76,14.52-2.94,14.46-4.67,30.51-8.29s16.61-2,32.57-5.84c11.62-2.81,11.81-3.8,24.67-6.77,13.85-3.21,15.08-2.39,23.91-5.09,14.15-4.31,11.76-6.63,23.54-9.79,12.59-3.38,20.86-2.22,28-9.41.57-.57,1.48-2.82,3.77-4.9a20.47,20.47,0,0,1,6.4-3.77c4.94-2.06,6.57-.61,9.6-2.44,2.3-1.39,2-2.47,4.71-5.65,5.54-6.44,9.78-5.42,10.92-9.42.91-3.15-1.61-4.25-1.32-10.35a26.25,26.25,0,0,1,1.13-6c.89-3.29,2.33-8.61,5.84-13.37,2.83-3.82,3.65-2.75,10.17-8.85a104,104,0,0,0,9.23-10c2.66-3.18,4.76-6,8.85-11.67,1.56-2.15,6.23-8.61,13.18-18.83,5.93-8.74,6.7-10.18,7.34-11.49,2-4.06,4.63-9.57,4.89-16.75,0-.7-.23-3.79-.75-10-.84-10-1-9.79-.94-11.87a52.54,52.54,0,0,1,1.32-13.18c.71-2.86,1.67-5.48.37-8.09a6.52,6.52,0,0,0-2.63-2.83c-3.18-1.75-6,.54-12.81,1.13a25.12,25.12,0,0,1-6,0c-6.21-.89-10.39-4.9-14.69-9a49,49,0,0,1-9-11.67,35.56,35.56,0,0,1-4.51-12.43c-.4-2.7-1.33-9.58,1.88-16.57,2.22-4.83,3.79-4,8.47-12,2.5-4.31,2.32-5,4.71-8.47,2.94-4.26,4.41-4.92,5.27-7.91a13.39,13.39,0,0,0-.56-8.66c-1.35-3-3.47-4.23-7.72-7.34-7.37-5.4-5.8-5.13-10.74-8.66-5.23-3.75-6.58-4-12.24-7.72a145.81,145.81,0,0,1-12.42-9.23c-22.29-17.82-50.58-32.63-48-43.5.46-2,2.05-4.33,2.64-9.41a31.45,31.45,0,0,0-.19-8.47c-3.42-22.91-5.13-34.37-9.41-44.63a17,17,0,0,1-1.51-8.66,17.58,17.58,0,0,1,3.77-8.66c7.1-9.79,13.36-17.32,13.36-17.33,8.48-10.2,10.37-13.33,10.36-17.51,0-.76-.07-.9-1.51-6.77-2.47-10.11-3.72-15.2-3.95-16.95-.66-5-1.36-10.73.94-17.14.78-2.17,2-4.21,4.52-8.28,6.48-10.59,8.43-10.48,8.47-13.56.09-6.31-8.08-7.76-8.85-16.19-.15-1.66.34-3.87,1.32-8.29a98.19,98.19,0,0,1,4-12.8c1.52-4.22,1.68-4.19,2.82-7.34a114,114,0,0,0,5.08-19.4c1-5.94.24-4.63,1.32-12.42,1.65-11.87,2.59-18.63,6-25.25a40.34,40.34,0,0,0,2.83-6.76c1.24-3.93,2-6.25,1.32-8.85-1-3.79-3.67-3.52-5.27-7.72a14,14,0,0,1,.19-9.61c1.29-3.22,3.21-4,6.59-7.53s4.08-5.66,7.15-10.17c3.62-5.29,7.06-8.67,13.93-15.44,8.72-8.56,11.21-9.38,15.44-15.62,2.73-4,1.93-4,4.9-8.85a76.2,76.2,0,0,1,18.08-20.34c7-5.4,10.77-6.14,15.06-12.24a70.67,70.67,0,0,0,4.14-7c2.93-5.49,3-7.07,5.65-12.23a95.17,95.17,0,0,1,6-10,111.68,111.68,0,0,1,7.53-10.36c4.53-5.48,5.21-5,9.6-10,4.71-5.37,8.53-9.74,10.92-16.38,1.32-3.67,1.46-6,4-12.24,2.65-6.67,3.86-7.54,4.89-7.72,3.19-.55,5,5.41,10.36,5.65.21,0,3.52.12,4.52-1.7s-1-4.85-1.89-6.21c-2.31-3.44-4.66-4.14-4.52-5.84.12-1.36,1.74-2.29,3.58-3.2,4.76-2.33,7.14-3.5,12.24-4.33,4.93-.8,5-3.57,18.08-13.37l2.26-1.69c6.12-4.61,6.35-4.93,7.72-5.84,3.63-2.4,3.83-1.34,9-4.14a39.94,39.94,0,0,0,8.1-5.46c4.08-3.66,3.87-5.47,7-8.85,2.67-2.91,6.67-4.7,14.68-8.29,8.26-3.69,9.93-3.53,15.07-6.77,2.74-1.74,5.45-3.79,7.15-5.09,4.53-3.44,5.69-4.76,9.42-7.15a44,44,0,0,1,6.4-3.58c6.78-3,8.54-1.38,11.11-3.77s1-4.37,4.33-10.92c2.18-4.36,3.3-4.34,4.52-7.34,1.63-4,.52-6.23-.19-14.12a101.73,101.73,0,0,1,.38-22.41c.71-5.22,1.23-5.26,1.5-8.66.1-1.25.71-13.53-4.33-20.34a27.13,27.13,0,0,1-2.63-4.14,21.55,21.55,0,0,1-2.07-5.46c-.73-3.34.19-3.94-.19-7.15-.26-2.17-.77-2.64-3-8.1-2.91-7.11-2.23-6.74-3.2-8.1-3.38-4.72-9.35-5.82-11.48-6.21-1.72-.32-5.3.26-12.43,1.32,0,0-4.38.65-11.11,2.26-3.19.76-4.43,1.16-5.84,2.07a12,12,0,0,0-5.08,6.21c-1.27,4.22,1.78,5.7,1.51,11.49-.2,4.08-1.75,3.91-2.45,8.85-.79,5.48,1.08,6.1.75,12.05-.27,5.08-1.69,5.61-2.82,12.61-1,6.3,0,6.48-.76,10.55-1.24,6.53-4.84,10.75-12,19.2a75.23,75.23,0,0,1-10.35,10.36c-2.47,2-4.72,3.53-9.23,6.59a48.19,48.19,0,0,1-6,3.77c-4.75,2.19-5.88,1-10.36,2.82a19.14,19.14,0,0,0-9.23,7.34,18.34,18.34,0,0,0-2.26,6c-1,5.5,1.33,7.22-.18,11.11a12,12,0,0,1-4.71,5.46,15.48,15.48,0,0,1-5.65,2.07c-2.56.58-6.18,1.39-10,0-1.48-.54-1.28-.79-3.39-1.88a31.29,31.29,0,0,0-13.56-3.2c-2.9-.15-4.36-.22-5.64.37-1.77.82-2.82,2.2-5.84,7.72-3.63,6.62-3.27,6.73-4.33,7.72-2.92,2.74-8.06,4.25-12,2.64s-3.24-4.95-7.72-7.35-9.59-1.46-11.49-1.13c-4.93.87-6.24,2.9-10,2.26-3-.51-3.12-2-5.84-2.44-4.36-.75-6.6,2.64-11.1,4.14-4.14,1.37-8.65-.13-17.52-3.2-13.89-4.81-12.44-7.31-19.2-7.91-7.63-.68-12.28,2.25-17.51-1.32-2.25-1.53-2.32-2.7-4.9-4-4.16-2-6.23,0-12-.57-7.81-.69-8.56-4.63-15.63-4.33-4.31.18-5.56,1.72-7.53.57-3.48-2.05-3.33-9.06-2.26-13.37a23.38,23.38,0,0,1,6-10.36c4.28-4.55,6.52-3.81,9.6-8.28,1.22-1.77,2.07-3.88,3.77-8.1,1.17-2.91,2.24-5.95,2.82-7.91,3.45-11.65-1-17.22,3-28.62a21.83,21.83,0,0,1,3.39-6.78c2.58-3.32,4.69-3.74,9-7.9,1.44-1.39.69-.85,4.9-5.47,5.64-6.2,6.89-7.06,8.66-10s1.09-3,3-6.78c3.94-7.81,6.81-7.58,8.66-12.62,2.15-5.83.34-11.64-.87-15.52a35.27,35.27,0,0,0-5.34-10.27,39.53,39.53,0,0,0-10.74-9.8c-12.11-7.73-20.13-7.28-35.39-13.74-11.38-4.82-8.25-5.63-22.79-12.24-14-6.37-18.12-6.17-27.11-12.24-6.35-4.28-4.92-4.81-15.82-13.74-4-3.32-10.54-7.86-23.53-16.95-9.12-6.38-13.4-9.22-20.15-11.49a86,86,0,0,0-9.23-2.26c-25.38-5.41-29.67-3.91-38-8.85-5.32-3.13-5.41-4.81-11.3-7.53-8-3.68-10.6-1.88-15.44-5.46s-3.73-6.36-9.79-12.8c-3.45-3.67-6.3-5.42-9.6-7.72-4.61-3.21-10.14-8.17-21.19-18.11A342.14,342.14,0,0,1,792.9,80.42c.16-.16,38.93,39,38.79,39.16s-53.36-54.83-68.16-69.67a126.8,126.8,0,0,1-11.11-12.23c-2.4-3.06-3-4.14-5.84-7.54-5.83-7-8.9-9.06-10.35-10a25,25,0,0,0-6.78-3.2c-8.25-2.29-12.56,2.2-23.16,1.89-3.39-.1-2.72-.56-9.41-1.51-14.5-2.06-22.84-3.25-29,.56s-4.23,13.84-9.6,21.09c-.38.51-2,2.6-4,5.65-1.29,2-2.14,3.43-3,4.9-3.84,6.46-3.78,6-5.84,9.6-3.79,6.57-5.69,9.85-6.4,12.8-1,4.18-.49,6.37-2.07,7.16-2,1-5.91-1-7.16-3.95-.87-2,0-3.34,0-6.41a20.2,20.2,0,0,0-2.44-8.66c-.8-1.72-.94-1.55-1.7-3.2A31.32,31.32,0,0,1,623.44,49a27.9,27.9,0,0,0-5.65-11.11,30.33,30.33,0,0,0-8.47-7.72c-3.32-2-5.13-2-21.65-4.14-10.9-1.39-12.28-1.64-15.63-1.5-3.78.14-5.54.6-11.11.75s-6.32-.24-10.55-.19c-12.57.15-14.84,3.7-19.2,1.32-.87-.48-3.1-3.9-7.53-10.73A88.85,88.85,0,0,0,516.87,6c-3.48-4.17-5.26-6.25-7.16-6-2.84.34-4.63,5.21-6.59,10.54-1.19,3.24-1.22,4.42-2.82,8.1a21.67,21.67,0,0,1-4.14,6.59,18.43,18.43,0,0,1-2.08,1.88c-3.56,2.73-7.69,3.21-11.1,3.58-4.91.52-6.44-.21-9.23,1.32a9.69,9.69,0,0,0-3.2,2.63c-1.71,2.2-1.23,3.7-2.64,7.16-1,2.48-1.65,4-3.2,5.27-2.42,1.93-4.09.73-7.72,3a13.26,13.26,0,0,0-3.39,3c-1.17,1.53-1.34,2.54-2.26,4.7a23.52,23.52,0,0,1-3.95,7c-2.62,2.89-4.18,2.12-5.65,4.52a9.18,9.18,0,0,0-.57,7.72c1.62,4.22,5.32,3.42,7.54,7.72,1.25,2.43,1.15,4.94.94,10a42.94,42.94,0,0,1-.94,7.15c-.37,1.66-.68,2.63-1.89,6.41-2.45,7.71-1.61,5.15-2.44,7.72-3.3,10-4.95,15.08-7.16,21.08-2.27,6.17-2.53,6.35-3.77,10.17-2,6.06-1.71,6.85-3.2,9.79a29,29,0,0,1-7.53,9.42c-2.11,1.7-1.7.84-6.4,3.95C410,174.63,409.53,176,406,177.2Z"/><path d="M805.71,1393.19c.67-2.19-1.18-4.43-2.45-5.46-1.63-1.32-2.28-.59-4.71-2.07s-2.46-2.54-4.14-2.83c-1.26-.21-3,.11-3.77,1.32-.87,1.49.36,3.5.76,4.14.86,1.41,1.81,1.87,4.14,3.39,5.09,3.33,5.74,4.49,7.34,4.15A4,4,0,0,0,805.71,1393.19Z"/><path d="M778.41,1400.72c.32-.37,1.07,0,5.83,1.88,5.44,2.16,6.24,2.39,7.16,3.58a12.25,12.25,0,0,1,1.88,4.71c.35,1.41.52,2.12.19,2.45-1.12,1.11-6.21-2.31-7.53-3.2a22.75,22.75,0,0,1-3.39-2.64C780.15,1405.18,777.66,1401.58,778.41,1400.72Z"/><path d="M337.61,2734c-1,.38-.25,3.27,0,10.54.1,2.75.07,5.41,0,10.74,0,.79-.05,4-.18,8.28-.31,9.56-.67,10.79-.57,15.25.09,4.26.46,5.24.94,10.55,1.45,16-1.07,16.63.76,27.11,1,5.62,2.2,8.33,2.25,14.69a65.08,65.08,0,0,1-.75,9.22c-1,9.16-.13,11.72-.19,29.57,0,6.2-.13,11-.18,13-.49,18.19-1.6,24.06-.76,36.53.39,5.74.61,4.28.94,9.6a167.37,167.37,0,0,1-1.31,31.63c-.83,6.75,0,13.75-1.7,20.34-.41,1.58-1.42,5.18.38,7.15,1.37,1.52,4,1.63,5.65,1.7,2,.08,2.39-.31,5.08-.57,5.11-.49,5.66.73,7.15-.19,2.86-1.75,1.17-6.37,4.34-8.28a6.33,6.33,0,0,1,4.14-.57c2.25.3,3.39,1.43,5.84,3,.72.46,2.8,1.5,7,3.57.32.16,5.9,2.94,8.48,4,5.11,2,8.29,1.06,17.88.75,9.8-.32,7.6.65,21.66.57,7.47-.05,10.64-.34,16.75.37a87.06,87.06,0,0,1,10.55,1.89c6.68,1.63,5.26,2.14,13.18,4.33,3,.81,5.6,1.42,8.28,3.57a15,15,0,0,1,3,3.21c1.67,2.43,1.25,3.45,2.26,4.7,2.33,2.92,9.11,3.1,13.18.19,2.77-2,2.14-3.87,4.89-5.27,2.33-1.18,3.42-.15,8.85-.38,4.77-.2,7.3-.31,9.42-2.07s1.61-3.27,4.33-5.84a16.18,16.18,0,0,1,4.7-3c4.08-1.86,12.55-4.21,15.44-.75,1.94,2.31-.1,5.41,1.89,6.78s6-.55,7.91-1.51c2.65-1.31,2.49-2,4.51-2.64,3.15-1,4.32.27,7.16-.56,2-.57,3.19-1.83,5.65-4.33a28.09,28.09,0,0,0,5.84-7.72c2.37-4.91.72-6.08,3.39-11.86,1.24-2.7,2.24-3.84,1.69-4.71-.94-1.49-5-.12-9.42.56-6.64,1.05-11.92.09-16.38-.56-4.08-.6-4-1-13-3.2-10.16-2.48-10.39-2-14.5-3.2-7.26-2.14-11.89-5.25-20.33-10.92-2.17-1.46-4.29-3-17.7-13.56-11.92-9.42-12.64-10.13-17.32-13.75-8.94-6.89-15.91-11.71-22.41-16.19-24.9-17.16-25.61-15.1-30.5-21.28-5.2-6.56-6.51-11.56-14.88-23.16-4.22-5.84-6.39-8.82-9.79-11.67a28.75,28.75,0,0,1-4.71-4.52c-1.43-1.78-1.84-2.8-4.52-8.1-3.5-6.93-3.76-7.1-4.52-9.22-1.3-3.65-2-5.47-1.88-7.91.15-4.84,2.78-6.23,1.88-9.79a8.08,8.08,0,0,0-3.76-4.9c-2.43-1.37-4.4-.57-9.42,0-6.7.76-11.56,1.31-15.25-1.32a10.21,10.21,0,0,1-3.76-5.27c-.91-3.15.14-6,.94-8.09a20.49,20.49,0,0,1,3-5.28c2.44-3.35,3.66-5,5.65-5.46,3.29-.7,5,2.8,7.53,1.89s3.55-4.93,3.2-7.91c-.11-1-.89-2.53-2.45-5.65-2.39-4.81-3.52-6.25-3.95-6.78a33.9,33.9,0,0,0-3.39-3.39c-2.47-2.4-3.83-4.43-6.4-8.28-3.37-5-3.66-6.49-7-10.92C340.11,2735.76,338.52,2733.67,337.61,2734Z"/><path d="M620.43,2968.07c-1.06.4.12,3-1.32,5.08-1.61,2.35-4.42,1-7.53,3.58a10.76,10.76,0,0,0-3.2,5.08c-.46,1.33-1.7,4.88,0,8.29a7.66,7.66,0,0,0,2.07,2.63c4.11,3.22,12.92,1.64,17.89-3.2,2.79-2.73,2.83-5,5.46-5.65,2.29-.58,3.44.84,7.72,1.51a51.66,51.66,0,0,0,7.34,0c6.39-.21,9.62-.33,11.67-1.13a13.37,13.37,0,0,0,6.41-4.71c.59-.85,2.75-3.94,1.69-5.84-.8-1.43-3-1.28-9.41-1.31-8.39-.05-7.78-.34-14.5-.19-8.32.18-9.59.62-10.36.94-2.86,1.17-4.18,2.68-6,2.07-1.4-.46-1.5-1.61-4.52-4.71C621.22,2967.85,620.61,2968,620.43,2968.07Z"/></g></g></svg>