<svg xmlns="http://www.w3.org/2000/svg" viewBox="0 0 1991.94 2015.84"><g id="Layer_2" data-name="Layer 2"><g id="Armenia"><path d="M1288.62,525.85a14,14,0,0,0-6.53,3,25,25,0,0,0-4.39,5c-1.83,2.43-1.45,2.34-2.89,4.14-2.17,2.72-3.17,3.09-4.64,5.4a19.38,19.38,0,0,0-1.76,3.64c-1.13,3-2.62,6.84-1.75,11.29s3.78,3.85,5.39,8.91c.84,2.61,0,2.57.76,9.16a46.82,46.82,0,0,0,1.75,9.16c1.18,3.78,1.82,5.73,3.77,6.9,2.78,1.68,6.1.49,6.4.38,3.19-1.19,4.65-4.19,6.77-8.53,2.42-5,3.63-7.42,4.27-9.79.3-1.1.74-3,2.26-3.77.51-.26,1-.32,3.51-.25,4.11.13,4.31.32,5,0s.92-.66,3.14-4.14c1.58-2.48,2.38-3.73,2.51-4,.3-.66.63-1.49,1.63-6.4a38.31,38.31,0,0,0,1-5.9c-.08-2.49-.79-2.82-.87-6a18.51,18.51,0,0,0-.13-3.52,8.38,8.38,0,0,0-1.63-3.89c-1.64-1.93-3.16-1.08-6.28-3.26-1.39-1-1.14-1.19-3-2.63a26.4,26.4,0,0,0-4.89-3C1295.74,526.68,1292.57,525.23,1288.62,525.85Z"/><path d="M1986.66,1697.36c-1-.32-2.06-.47-5.39-.37-5.63.16-5.81.67-7.66.5-4.26-.4-8.06-3.56-10-6.53-3-4.45-1.67-8.2-4.65-9.53a29.86,29.86,0,0,0-5-.76c-.94-.11-2.2-.25-3.89-.37-3.57-.25-3.85,0-5-.38a8.62,8.62,0,0,1-4-2.89c-1.44-1.71-1.3-2.73-3-6.4-.45-.94-1-2-2.14-4a80.16,80.16,0,0,0-4.51-7.66c-2.28-3.23-3-3.36-4.4-6-1.12-2.16-2.19-4.22-1.38-5.77s2.24-.7,5-2.76a15.38,15.38,0,0,0,3.64-4.14c1-1.41,1.14-2,1.13-2.51,0-1.27-.93-2.1-1.88-3.14s.67.55-3.76-5.27c-2.57-3.36-3.85-5-4.77-6-3-3.19-3.41-2.47-5.9-5.15-3.7-4-3.39-6.23-6.27-7.4-.22-.09-3.19-1.25-5.4.12-1.08.67-1.77,1.92-3.14,4.4-1.23,2.22-1.23,2.78-2,3.13-1.14.53-1.78-.37-4.51-.37a19.37,19.37,0,0,0-2.89.25c-2,.29-2.68.69-3.39.25s-.63-1.25-1.38-2.13c-1.19-1.42-3.33-1.52-5.77-1.64-3-.14-4,.44-4.52-.25-.88-1.09,1.14-3,.25-5.27-.33-.86-1-1.41-2.25-2.51a19.08,19.08,0,0,0-3.64-2.38c-3.78-2-4.14-1.94-5.52-2.76-4-2.36-3.12-4.1-6.4-5.77s-4.92-.27-7-2.26a10.52,10.52,0,0,1-2.51-5c-.73-2.57-.1-2.72-.75-4.64-.82-2.4-1.88-2.42-4.27-6.28a20.33,20.33,0,0,1-2-3.76c-1.28-3.4-.46-4.67-1.88-6.4-1.27-1.56-2.59-1.34-3-2.76-.2-.66-.08-1.25.75-3.39,1.48-3.8,1.74-3.53,2-4.77.53-2.42-.6-2.79-.38-6.27.18-2.78.91-2.8.63-4.27-.45-2.33-2.3-2.44-4.52-5.77-1.11-1.67-2.42-3.64-1.88-5.52.45-1.58,1.72-1.41,3.76-3.64a15.14,15.14,0,0,0,3.39-6.53c.75-3.29-.42-4.07.5-5.14,1.76-2,6,.75,12.93-.25.61-.09,1.68-.27,3.26-.38a26.28,26.28,0,0,1,5.77.13,12.49,12.49,0,0,1,4.14,1c1,.48,1.57,1,4.15,3.51,3.48,3.42,3.55,3.59,4.14,3.77,2.49.74,5.56-1,7.15-3,1-1.3.77-1.83,2-4a25.16,25.16,0,0,1,3.89-4.89c5-5.51,5.94-5.69,7.15-8.16A10.2,10.2,0,0,0,1901,1502c-.13-2.93-1.79-4.19-1.13-5.27.49-.78,1.79-.77,7.53-.12,4.81.54,7.23.82,8.28,1.25a22,22,0,0,1,7,5c2,2.06,2.61,3.58,4.64,4,.49.1,2.58.55,3.89-.63.43-.39.67-.86,1.13-4.52.49-3.86.35-4.41.13-4.89-.4-.85-1.24-1.5-2.89-2.76-1.43-1.09-2.41-1.66-3.14-2.13a25,25,0,0,1-5.14-4.65c-2.28-2.83-1.24-3.61-3.77-7.9-2-3.42-3-3.49-3.64-5.9-.17-.67-1.13-4.35.76-6.4,1.33-1.45,2.78-.66,4.77-2.26s1.25-2.72,2.63-4.14c3.06-3.15,8.11.8,12.17-2.26,2.15-1.61,1.46-3.25,4.65-5.64a30.15,30.15,0,0,0,3.63-2.64c1.8-1.67,1.8-2.38,2.89-2.76s1.82-.07,5.27,1.38c4.27,1.8,4,1.83,5,2.13s5.65,1.65,7.4-.37a4.83,4.83,0,0,0,.76-2.39,14.84,14.84,0,0,0,.12-5.9c-.78-3.47-2.72-3.24-4.14-7.27-1-2.78-.28-3.52-1.38-4.77-1.36-1.54-2.91-1-6.77-2-3.5-.94-3-1.62-7.53-3.14-4.07-1.37-4.52-.84-7.28-2.13-2.5-1.17-2.46-1.76-5.52-3.51a34.8,34.8,0,0,0-7.66-3.27c-3.53-1-3.18-.13-9.41-1.12-4.58-.73-6.17-1.41-9-.76a20.35,20.35,0,0,0-4,1.51,67.92,67.92,0,0,0-6.15,3.39c-3.5,1.89-5.24,3-7.65,3.13-3,.19-4-.89-7.78-.5a15.58,15.58,0,0,0-5.77,1.51c-2.91,1.45-3.43,3-5.4,3-1.49,0-2.58-.92-3.89-2a12.55,12.55,0,0,1-3.76-5.65,13.63,13.63,0,0,1-.63-4.76,15.79,15.79,0,0,1,.75-4.65c.09-.27.07-.18.63-1.63,1.5-3.89,1.59-4.39,1.5-5a5.78,5.78,0,0,0-1.13-2.51c-.9-1.36-1.48-1.37-2-2.26-.84-1.42.21-2.71,0-4.76-.31-2.94-1-4-1.51-6.28-1.17-5.34.62-9.36,0-9.54s-1.13,4.32-4.89,7.66a16.87,16.87,0,0,1-9.41,3.76,17.59,17.59,0,0,1-4.15-.12c-2.63-.35-7.19-1.48-7.27-3.14,0-.71.78-.86,1.63-2.26a8.05,8.05,0,0,0,1-4.26c-.26-3.92-7.3-6.48-8.53-6.91-8.55-3-16.8,0-20.71,1.38a49.08,49.08,0,0,0-9.91,5.15c-8.63,5.5-8.25,8.19-14.55,10.79-5,2.08-6.8,1-11.42,3.89-2.84,1.78-3.41,3-6.65,4.64a29.69,29.69,0,0,1-8.79,2.76,58.58,58.58,0,0,1-13.8.88c-10-.45-13.8-.88-13.8-.88-2.1-.23-5.07-.61-6.78,1.13-.62.64-.61,1.08-1.38,3.39a64.66,64.66,0,0,1-3,7.28c-1.3,2.63-2.51,5.06-3.52,4.89-.74-.12-1-1.6-1.5-3.89-1.72-8-1.93-6.5-2.26-9.41-.77-6.76.92-10-1.38-12.42-.17-.17-.95-1-2-2.13-2.19-2.42-2.47-3-2.38-3.64.12-.88.92-.85,1.75-2,.24-.33.84-1.26.88-5.52a16.64,16.64,0,0,0-.25-4.64c-.48-1.49-1.41-2.54-3.26-4.65-2.06-2.34-2.45-2.18-3.26-3.64s-.73-2.17-1.76-3.38a14.06,14.06,0,0,0-2.51-2,21.73,21.73,0,0,0-3.26-2.14c-1.84-.81-3.18-.54-4.65-.62-2.79-.17-4.74-1.56-7.65-3.64-1.6-1.14-2.28-1.9-8.41-9.16-2.21-2.63-4.64-5.08-6.77-7.78-2.29-2.89-3.18-4.32-5.27-5a8.15,8.15,0,0,0-6.4.63c-2.69,1.5-2.3,3.53-4.4,4.26-2.67.93-6.16-1.37-7.9-3.76-.25-.35-2.35-3.33-1.63-6.65.3-1.38.78-1.42,1.38-3.14a13.34,13.34,0,0,0,.37-6.65c-.71-3.23-2.74-5.19-4.51-6.9a30.78,30.78,0,0,0-9.92-6.15c-2.19-.78-3.35-.87-4.39-2.13-.42-.53-1.08-1.56-1.38-6.15s.29-4.77-.25-6.15c-1-2.54-3.15-2.54-7-5.4-2.54-1.87-2.4-2.45-7.15-7.4-4.47-4.66-4.43-4-7.65-7.4-6.06-6.44-9.09-9.66-11.05-14.43-.82-2-1.5-4.32-3.76-5.78a11.58,11.58,0,0,0-5.65-1.5,23.67,23.67,0,0,0-3.38.37c-4,.45-4.17-.15-7.16.26-3.3.44-3.77,1.25-6.15,1a13.4,13.4,0,0,1-3.76-1.13A47.79,47.79,0,0,1,1550,1244c-4.85-2.93-7.28-4.4-9.16-5.65-5.74-3.81-5.8-4.25-10.16-7-2.76-1.76-4.73-2.85-8.66-5-7.07-3.91-10.65-5.88-12.92-6.28-2.93-.51-3.2.1-10.92-.62-4.56-.43-5.88-.77-6.9-1.89-1.4-1.52-.58-2.69-2.51-7.27-.92-2.18-1.36-2.52-1.51-3.89-.27-2.5,1-3.12,1.13-5.4.17-3.2-2.27-3.73-3.26-7.9-.78-3.28.53-3.77,0-7.16-.56-3.58-2.09-3.47-4.64-8.78-2.7-5.62-2-7.79-5-11.8-1.48-1.94-2.51-3.13-2.51-3.13-2.6-3-3.48-3.37-4-5a8.48,8.48,0,0,1,0-4.52,13.27,13.27,0,0,1,2-4.52c2-3,3.16-2.73,4.64-5.14a11,11,0,0,0,1.63-6.28c-.17-2.48-1.32-4.09-3.39-6.9a33.76,33.76,0,0,0-8.9-8.41c-3.12-2-4.68-3-7-3.26-3.18-.36-4.33.94-9.29,1.38a34.81,34.81,0,0,1-6.77-.12c-5-.44-8.51-.75-11.8-2.89-3-1.92-1.79-2.76-5.27-5.52-4.71-3.74-6.73-2.13-10.54-5.77-2-2-2.7-3.61-5.14-4.39-1.41-.46-2.35-.29-4.4-.13a68.83,68.83,0,0,1-13.92-.5c-3.17-.33-4.14-.62-5-1.38-1.25-1.07-1.31-2.21-3.27-4-1-.9-1.91-1.75-2.76-1.5-1,.29-.72,1.84-1.75,3-1.22,1.38-3.06.83-8.91.75-2.51,0-5-.11-7.53-.12s-4.07,0-5.15-1.13a5.74,5.74,0,0,1-1.13-2.76,7.84,7.84,0,0,1-.12-4.77c.46-1.28,1.26-1.91,1-2.26s-1.11.26-2.13.12c-2-.27-3.15-3.21-4-5.39a16.9,16.9,0,0,1-1.13-4.64c-.17-2-.29-3.43.51-4.77s1.77-1.07,3.51-2.76c1.51-1.48,1.09-2.12,3.14-4.9a14.19,14.19,0,0,1,3.38-3.76c1.24-.84,2.64-1.32,5.53-1.63,4-.44,5.54,0,10.29.12a33.53,33.53,0,0,0,9-.63c2.78-.64,5.78-1.39,7.53-3.89,1.15-1.64.57-2.35,1.76-3.51,2.56-2.51,7.39-1.32,8.15-1.13a13,13,0,0,1,4.14,1.88c2.52,1.65,2.51,2.71,4,3.77,4,2.85,7.89-2.2,15.56-.63,1.16.24,3.73.89,4.89-.38.48-.52.32-.93.63-1.5,1.33-2.44,7.95-1.7,12.55-.5.81.21,2.55.81,6,2,6,2.06,6.79,2.54,8.66,2.39a19.67,19.67,0,0,0,6.27-2c2.84-1.23,3.47-2,4.77-1.76,1.79.29,2.51,2,4.39,4.52,2.8,3.78,3.28,2.84,6.91,7.15,4,4.79,3,5.36,6.27,8.66,2.77,2.75,3.25,2.1,6.9,5.65,2.31,2.25,3.68,4,4.64,3.64.6-.24.46-1.08,1-3.26a20.53,20.53,0,0,1,2.76-6.53c1-1.45,1.34-1.43,2.38-3.14a28.14,28.14,0,0,0,1.63-3.26c1.89-4.15,1.57-3.89,1.89-4.27,1-1.17,1.85-.93,8.4-2.63,2.57-.66,2.59-.74,3.89-1,3.59-.74,4.07-.3,5.27-1,.86-.5,1.7-2.13,3.39-5.39,1.6-3.1,1.85-4.1,1.88-5.15,0-1.49-.39-1.6-.25-2.89a8.24,8.24,0,0,1,2.76-4.76c2.19-2.15,3.44-1.78,4-3.27.52-1.34-.33-2.08-.75-4.76a13.73,13.73,0,0,1,.25-6.15c1.09-3.29,3.32-2.78,5.14-6.28,1.29-2.46,1.27-4.83,1.26-8,0-2.59,0-4.09-1-5.64-.78-1.27-1.48-1.44-2.26-3a7.82,7.82,0,0,1,.88-8.53c1-1.2,1.89-1.49,3.39-2.38,2.71-1.61,2.34-2.17,7.28-6.28,2.51-2.09,3.8-3.15,5.14-3.76,2.54-1.15,3.13-.53,6.78-1.51,2.72-.73,5.9-1.58,8.41-4.26a9.84,9.84,0,0,0,2.76-5.15c.33-2.1-.47-2.49-1-6.15a17.25,17.25,0,0,1,.38-8.53c.64-1.8,1-1.35,1.76-3.51,1.15-3.1.63-4.35,2-6.53.71-1.12.84-.77,2.14-2.51,1.63-2.18,2.56-3.42,2.51-4.89-.06-1.87-1.61-1.92-2.51-4.52-.22-.62-1.18-3.66.25-5.77,1.14-1.7,2.6-1,4.39-3a15.93,15.93,0,0,0,2-4c1-2.45,1.54-3.67,1.63-4.89.14-1.91-.53-2.45-1.25-5.15-1-3.61,0-3.56-.88-9.28a33,33,0,0,1-.76-6c0-2.18.32-2.19.13-3.39-.4-2.57-2.12-4.36-4-6.27-1.07-1.08-1-.79-3.51-3-3.13-2.73-3.16-3.07-5.14-4.64a20.76,20.76,0,0,0-4.9-3.27c-2.74-1.19-3.56-.59-5.64-1.88a6.67,6.67,0,0,1-3.39-4c-.39-1.69,0-4.07,1.38-4.77,1.1-.56,2,.35,5.52,1.63s5.91,2.18,7.28,1.13c1-.79,1.07-2.37,1.13-4.52a22.77,22.77,0,0,0-.63-5.27c-1.09-6.2,0-7-1.26-8.78-1.14-1.54-2.89-2-6.4-3-4.29-1.2-6.26-.63-7.65-2.38-.41-.51-.69-1.59-1.26-3.76-.85-3.28-.81-4.78-1.75-5.15s-1.82.44-2.26.75c-1.53,1.07-3.11,1.32-11.55,1.13-13-.28-14.31-1-15.3-1.88-1.8-1.64-1-2.4-3.39-5-1.71-1.83-2.78-2.16-8-5.39s-4.46-3.07-6.4-4a92.18,92.18,0,0,0-8.79-3.14,54.43,54.43,0,0,0-6.15-1.88c-2.59-.32-4.13.08-5.89-1.13-1.16-.79-1-1.28-2.26-2.13-1.52-1-2.63-.86-4.64-1.38-2.35-.61-2.34-1.17-4.9-2.13-3.72-1.41-4.19-.4-7.78-1.64a23.33,23.33,0,0,1-6.4-3.51c-2.85-2.11-2.5-2.71-4.52-3.89-3.46-2-4.8-.41-7.9-2.13-2.5-1.39-1.9-2.57-6.27-6.78-2.23-2.13-3.37-3.21-5-3.76-2.73-.92-3.67.31-7.16-.25-3.32-.54-3-1.74-6.65-2.64-4.54-1.13-5.91.55-8.91-1-2.33-1.21-1.69-2.32-4.39-4.27-3.6-2.6-7.74-2.8-9.66-2.89-3.18-.14-3,.57-7,.51-2.36,0-2-.28-8.15-1-4.48-.53-5.65-.52-6.91-1.63-.77-.69-.6-.94-2.25-3.76-2.1-3.57-2.54-3.45-3.27-5.15-1.08-2.51-.3-3.21-1-7-.45-2.46-.92-5-2.51-7.15-1.42-1.93-3.86-3-8.66-5-6.24-2.64-7.71-2.46-9.16-4.51a51,51,0,0,1-2.26-5.9c-1.34-3.78-1.42-4.35-2.26-5.4s-2-1.79-4.51-3.51a15.23,15.23,0,0,0-3.64-2.13c-1.61-.51-2.62-.26-5-.13a55.6,55.6,0,0,1-6.9-.13,26.68,26.68,0,0,1-7.41-1.5,27,27,0,0,1-6.15-3.39c-3.14-2.12-3.48-2.83-7.9-6.4a91.78,91.78,0,0,0-8.41-6.4c-2.84-1.75-4-2.09-5-3.76s-1.09-3.68-1.13-6.78c0-4.39.73-5.92-.37-7s-2.29-.19-4.4-.75c-3.8-1-3.32-4.73-7.53-8-3.76-3-5.67-1.16-10.41-4.89-.74-.59-2-1.69-3.89-3.27-3.6-3.06-3.84-3.39-4.89-3.76a18.78,18.78,0,0,1-4.27-1.51,5.16,5.16,0,0,1-1.51-1c-1.56-2.13,2.45-5.65,1.13-8.78-.26-.63-.34-.31-3.38-3.27a34.25,34.25,0,0,1-3.14-3.26,14.26,14.26,0,0,1-2.89-5.52c-.41-1.79.25-1.87.13-5.65s-.61-5.83.37-8.41a5,5,0,0,1,2.14-2.76,8.83,8.83,0,0,1,1.75-.5c1.67-.49,3.25-1,3.89-2.26a3.09,3.09,0,0,0,.13-2.26,4,4,0,0,0-1.76-1.88c-1.18-.85-3.42-2.46-4-4.51a5,5,0,0,1,1-4.52c.79-.85,1.38-.65,2.76-1.88,1-.9,1-1.3,1.88-2.14a11.65,11.65,0,0,1,3.64-2.13c3.86-1.71,4.85-1.41,5.27-2.39.6-1.38-.76-3.45-2-4.51s-1.92-.82-3.89-1.88a17.73,17.73,0,0,1-3.52-2.64c-3.73-3.23-4.6-2.68-8.41-5.77-4.31-3.5-4.18-5-6.77-5.65-2.33-.57-2.74.57-6.4.38a15.89,15.89,0,0,1-7.66-2.26,16.12,16.12,0,0,1-5-5.15c-1.46-2.17-3.06-4.54-2.63-7.27.11-.68.22-.64,1.51-3.52,1.48-3.31,2.22-5,2.13-5.9-.17-1.72-1.5-2.16-4.89-5.27-4-3.61-3-4.1-7-7.4-2.56-2.06-4.25-2.88-5.65-5.39a9.18,9.18,0,0,1-1.25-6.4c.35-1.52.91-1.46,2.51-4.4a21.27,21.27,0,0,0,2.38-5.77c.55-2.51,0-3.21.25-6.15s.95-4.14,1.63-6.77c2.17-8.42-.59-13.93,1.88-15.19,1.23-.62,2.94.22,3.27.38,1.61.79,1.71,2,3.13,3.64s4.16,3.73,6.28,3c.92-.32,1.62-1.67,3-4.39,1-2,1.16-2.85,1-3.64-.1-.55-.3-.83-1.13-2.13-.59-1-1.5-2.39-2-3.27-1.3-2.26-2.21-3.84-1.63-5,.49-1,1.55-.61,2.25-1.63,1.3-1.88-1.63-4.82-.25-6.27.72-.76,2-.85,4.4-1,3.74-.23,4.12.49,5.52-.12,2.62-1.15,3.86-4.8,4-5.27.5-1.52.42-2.56,1.38-3.26s1.5-.25,2.76-.63c1.78-.54,2.2-1.79,3.52-2.89,1.69-1.41,3.62-1.53,7.27-1.75,4.84-.3,6.63.88,8-.51,1.19-1.17.47-2.58,2-3.76a5,5,0,0,1,3.77-.75c1.36.27,1.73,1,2.76,1.5,2.83,1.43,6.61-.61,8-1.38a15.59,15.59,0,0,0,6.15-6.27c2.15-3.91,1-5.54,2.88-7s5.2-1.3,9-1c2.37.18,4.6.64,5.65-.63.52-.64.4-1.31,1.12-1.88s1.75-.53,3.14-.38c5.21.56,5.61.7,6.65.5a6,6,0,0,0,3.64-1.88c.7-.84.58-1.33,1.26-2.76s1.26-1.89,2.76-3.76c2-2.44,1.81-2.71,3.26-4.52,2.18-2.73,2.78-2.48,4.77-4.77,1.82-2.1,1.58-2.61,6.4-10.79a21.33,21.33,0,0,1,2-3.14c2.4-2.94,4-2.75,5.27-5.14.93-1.77.31-2.37,1.5-4.14s1.81-1.37,2.64-2.76c.9-1.54.33-2.37.88-5.9,0-.26.31-1.47.87-3.89,1.07-4.62,1.26-5.27,1.76-6.15,1-1.86,1.51-1.37,2.38-3a10.3,10.3,0,0,0,.51-7.53c-.35-1-.42-.62-1.76-3.39a17.77,17.77,0,0,1-1.76-4.39c-.32-1.88.29-2.55.63-4.9.12-.86,1-7.26-2.26-10a17.73,17.73,0,0,0-3.26-1.38c-3.67-1.4-5.54-2.09-7.15-1.76a26.13,26.13,0,0,0-3.77,1.88c-2.9,1.56-2.79,1.67-3.76,2a12,12,0,0,1-5.27.5c-1.28-.11-1.93-.18-2.39-.63-.86-.85-.46-2.21-.25-4.64.32-3.62.54-6.08-.75-7.28-.66-.61-1.18-.39-4.64-.75a34.15,34.15,0,0,1-5.65-.88c-1.8-.53-3.15-1.47-6.27-4.52s-4.58-4.85-8.16-8.78c-4.9-5.38-6.25-6.47-8.28-6.78a19,19,0,0,0-5.15.25c-3.26.48-4.58,1.28-6.27.51a5.85,5.85,0,0,1-2.39-2.39c-.49-.74-1.89-2.85-1.38-5.14.32-1.42,1-1.48,1.51-3a7.9,7.9,0,0,0-.25-4.4,16.53,16.53,0,0,0-4.39-8c-1.69-1.63-2.18-1.3-4-3.26a24.15,24.15,0,0,1-3-4c-1.41-2.35-1.19-2.93-2.26-3.88a7.75,7.75,0,0,0-4.14-1.64,10.86,10.86,0,0,0-6.15.38,27.89,27.89,0,0,0-2.76,1.63c-2.77,1.61-4.18,2.42-5.4,2.39a12.66,12.66,0,0,1-3.51-1.26c-1.83-.79-2.76-1.2-3.26-1.88-.63-.85-.44-1.45-.63-4a21.15,21.15,0,0,0-1-6,16.87,16.87,0,0,0-2-3.76c-1.46-2.1-2.25-2.31-2.26-3.27,0-1.38,1.64-1.86,3.64-4,1.66-1.79,1.21-2.21,3.14-5,.8-1.18.93-1.18,5.64-6.4,0,0,1.84-2,4.27-5s2.8-3.69,2.64-4.27c-.31-1.07-1.79-1.1-7.41-3-2.1-.71-1.73-.65-3.89-1.38a57.76,57.76,0,0,0-7.65-2.26c-3.07-.59-7.23-1.39-8.41.38-.35.52,0,.7-.38,4.26-.19,2.16-.36,2.67-.75,3.14-.59.7-1.38.94-2.89,1.38a10.51,10.51,0,0,1-2.76.5c-1.26.06-1.48-.16-3.13-.12-1.85,0-2.22.33-2.39.5-.5.51-.22,1-.62,1.88-.32.7-.82,1-2.14,2-1.83,1.48-2.39,1.37-3,2.26-1.21,1.74.22,3.21-.88,4.64-.78,1-2.17,1.15-4.77,1.38a30.14,30.14,0,0,1-4.64-.12c-2-.14-3-.21-3.39-.5-1.57-1.27,0-3.78-1.63-5.53a4.89,4.89,0,0,0-4.89-1c-2,.66-1.78,2.2-4,3.39-1.6.84-4.08,1.31-5.77.25-1.23-.78-.83-1.61-2.51-3.26-1.45-1.44-2-1.09-3.39-2.39-.62-.59-1.09-1.24-2.63-4.52s-1.31-3.12-2.14-4.76c-1.92-3.82-2.72-3.64-3.64-6.28-.84-2.41-.3-2.93-1.38-4.89a9.11,9.11,0,0,0-3.26-3.39c-.92-.64-1.39-.77-1.75-.63-.69.27-.52,1.28-1.26,2s-1.81.59-2.89.63a11.09,11.09,0,0,0-5.39,1.75c-2.51,1.67-1.46,3.39-4.52,5.9-1.16.95-1.93,1.22-2.51,2.39s-.33,1.87-.5,3.64c-.23,2.39-.8,2.59-1.13,4.64-.57,3.59.61,6.46.38,6.52s-.53-3.19-3-5.39c-.38-.34-2.43-2.16-4.26-1.63-.54.15-.74.41-1.26.37-1-.07-1.35-1.24-2.38-2.13-1.55-1.34-2.92-.11-4.52-1.38s-1.25-2.44-3-4.77-2.76-2.08-4.89-4.52c-1.37-1.55-1.52-2.28-2.89-4.51-1.94-3.15-4.2-6.82-8.16-9.41-2.89-1.9-3.68-1.24-6.52-3.27a5.85,5.85,0,0,0-3.14-1.25,5.28,5.28,0,0,0-2.38.5c-2.83,1.16-7.91,1.28-10.42-1-.52-.48-1.06-1.7-2.13-4.14a44.39,44.39,0,0,1-1.88-5.28c-1.07-3.39-1-4.05-.88-4.64.33-1.31,1-1.4,2-3,.45-.74,2-3.6,1.38-6-.51-1.85-2.22-2.65-4.9-4.27-4-2.4-5.76-1.44-10.16-3.89-3.46-1.93-4.75-3.86-6-3.26-.87.4-1.13,1.71-1.26,4.26-.35,7.17,1.13,8.69.63,13.31-.23,2.1-.67,6.22-3.64,8.91-1.3,1.17-1.92,1-3.51,2.63-2.45,2.47-2.74,4.6-4.27,4.77-.69.07-1.39-.49-2.76-1.63-5.28-4.39-5.89-4.93-6.65-4.77-1.69.35-1.12,3.44-3.64,5.14-1.15.78-1.78.48-6.15.63-5.91.21-7.16.83-9.79-.12-1.45-.53-2.87-1-3.51-2.39-1.5-3.14,2.74-7.85,3.14-8.28,2.73-3,4.43-2.41,5.77-4.89.87-1.62.74-3.63.5-7.66-.2-3.29-.54-3.94-.88-8-.32-3.87-.48-5.8,0-6.78.79-1.58,3.51-2.87,8.91-5.39,3.7-1.73,4.76-2,5.4-3.39,1-2.22-.2-4.83,1-5.52a1.94,1.94,0,0,1,1.63.12c2.84,1.2,5.92,1.77,8.79,2.89,1.4.55,4.53.66,10.79.88,7.4.26,8.78-.23,9.66-1.26,1.11-1.31.8-2.78,2.38-3.89,1-.71,2.11-.76,3.77-.75,5.84,0,6.65.7,8.66.38,2.23-.36,2-1.31,7.15-4.9s6.45-3.35,9.29-6.27a15.29,15.29,0,0,0,3.51-5c1-2.35,1-4.37.88-7.4-.31-8.53-.46-12.79-2-14.56-2.16-2.47-5.35-3.11-9.29-3.89-1.47-.29-4.33-.57-10-1.13-3.64-.35-4.33-.39-5.27-1-2.87-1.88-1.41-4.82-3.76-8.53-3.16-5-8.87-4.55-12.8-9.42-.82-1-1.68-2-2.51-3-2.09-2.53-2.36-2.94-3.14-3.39a6.84,6.84,0,0,0-4.76-.62c-1.81.44-2.84,1.58-4.65,3.64-3.43,3.9-5.59,6.36-7.15,8-4.51,4.8-6.07,5.16-6.78,5.27-2,.31-4-.39-6.14-1.13a38.48,38.48,0,0,1-4.52-2.14c-5.74-2.88-6.34-3.25-7-3.76a15.2,15.2,0,0,1-4.27-4.14,24.25,24.25,0,0,1-2.38-5.4c-.71-2.32-.72-3.52-1.63-3.89s-1.79.29-2.89,1c-2.8,1.84-2.75,3.27-4.51,4.14a5.85,5.85,0,0,1-6.4-1c-1.62-1.68-1.28-4.17-1-6.14.22-1.6.48-3.44,1.88-4.65s2.51-.67,5.4-1.38a14.16,14.16,0,0,0,5.9-2.63c.84-.72,1.57-1.64,3.89-8.28,1.43-4.11,1.21-3.93,2.38-7.28,2.22-6.36,3.07-7.15,2.64-9.16-.26-1.18-.67-1.47-3.89-5.65-1.66-2.15-3.26-4.35-4.9-6.53-1.13-1.5-2.89-3.93-6.4-8.78-4.39-6.07-5.06-7.06-5.64-9-.65-2.21-.4-3-1.38-5-.57-1.18-2.36-4.9-5.4-5.4-1-.16-1.33.15-5.39,1.51-3.3,1.1-3.55,1-4.77,1.5-4.31,1.58-7.19,4.31-11.3,8.28a68.31,68.31,0,0,0-5.27,5.65c-5.37,6.5-4.91,8.53-8.28,10.92-2.68,1.9-5.23,2.23-10.29,2.88a30.63,30.63,0,0,1-13.17-.75,17.94,17.94,0,0,1-6.91-3.51,19.7,19.7,0,0,1-2.88-3.26c-2.39-3.39-2.39-5.61-3.89-5.9-.54-.1-.77.14-3.14,1.5-2.79,1.61-4.2,2.49-4.89,2.39-1.68-.25-2.2-1.64-5.27-4.52-2.69-2.52-4.7-4.4-6.28-3.89s-1,3.06-3.13,4.27c-1.9,1.07-4.63.33-6.28-.88a7.43,7.43,0,0,1-2-2.39c-1.21-2-.72-2.88-1.88-5.64A19.68,19.68,0,0,0,875,10a45.91,45.91,0,0,0-3-3.51c-2.33-2.84-1.77-3.27-3.14-4.4C867.08.63,865,.46,862.84.2c-2-.23-3.94-.46-5.9.5-2.13,1.05-3.07,2.93-4.52,5.9A26.24,26.24,0,0,0,849.66,15c-.76,5.69,1.2,6.83,1.26,14.56,0,5.25-.88,4.65-.51,8.28.29,2.8,1.79,6.33,4.77,13.3,2.32,5.41,2.88,6.28,4,7.15,1.65,1.25,3.77,1.71,8,2.64,2.11.45,4.1.76,6.4,1.13,4.53.7,5.22.64,6.65,1.38,2.15,1.1,2,2,4.39,3.26a16.4,16.4,0,0,0,5.27,1.63,26.91,26.91,0,0,0,7.91.38c2.67-.29,4-.86,5.77,0a4.24,4.24,0,0,1,2,1.88c1,2.11-.23,5.06-2.14,6.4-.93.65-2.42.77-5.39,1a53.7,53.7,0,0,1-5.65.13,39.09,39.09,0,0,1-5.77-.5,13.2,13.2,0,0,1-3.77-1,19.61,19.61,0,0,1-3.38-2.38c-2.89-2.2-3.19-2.46-3.89-2.64-1.58-.39-2.17.4-4.27.75-2.9.49-3.38-.75-8.78-1.5-2.32-.32-2.58-.14-6.15-.63s-4.82-.87-5.65-1.88a19,19,0,0,1-1.38-3.26c-.83-2.18-.8-2.36-1.25-3.27a7.12,7.12,0,0,0-2.39-3.13,3.72,3.72,0,0,0-2.88-.76,3.81,3.81,0,0,0-2.26,2.26c-1.42,2.88.16,5-1.13,6.15-.28.25-.49.27-3.64.5l-3.52.25c-3.45.11-4.29-.62-7.9-.87a26.75,26.75,0,0,0-6.9.37c-2.66.51-4.4.84-5.9,2.26-.95.9-1.56,2.11-2.76,4.52s-1.6,3.88-2.64,4a4.47,4.47,0,0,1-2.25-.75,5.27,5.27,0,0,1-1.26-.75c-.32-.3-1.1-1.27-.12-5.4.83-3.54,1.7-4,1.5-6-.11-1.13-.61-3.09-1.76-3.39-.7-.18-1.2.37-3.76,2.26-1.63,1.2-2.44,1.8-3.39,2.38-2.44,1.5-2.63,1-4.77,2.39-1.82,1.17-2.2,1.85-3.76,2.26a4.92,4.92,0,0,1-2.76,0,6.23,6.23,0,0,1-1.76-1.13A27.31,27.31,0,0,1,779,66.71a9.11,9.11,0,0,1-1.5-2.26,9.4,9.4,0,0,1-.63-4.39c.1-3.93.76-5.72.38-9.16-.14-1.27-.34-2-.88-2.26-1-.51-1.8,1.17-4,1.63-3.84.8-6.12-.77-8.53.88-1,.7-.64,1-1.76,1.75-1.76,1.2-3,.63-6.77,1.13-3.32.44-3.36,1-5,.76-.72-.11-.86-.24-4.52-1.76-1.9-.79-2.86-1.19-3.76-1.51-1.47-.52-2.27-.71-4.27-1.25-6.57-1.79-7.78-2.45-9-1.63-.22.14,0,.06-1.89,2a26.74,26.74,0,0,0-2.13,2.25c-.95,1.41-.69,2.64-.88,4.77-.2,2.35-.65,2.49-1.38,5.78-1.54,6.91-.21,9.17-2,10.41-.55.38-2.37.38-6,.38a40.83,40.83,0,0,1-4.14,0c-1.27-.13-2.1-.34-3,.12-.69.35-.88.81-1.51,1.63a10.65,10.65,0,0,1-4.39,3.64c-.76.28-.46,0-3.26.38a12.79,12.79,0,0,0-4.27,1,12.68,12.68,0,0,0-2.51,2.26c-2.66,2.73-3.22,3.79-4.39,3.77a2.62,2.62,0,0,1-1.76-.88c-.89-1-.61-2.41-.37-4.52.49-4.43-.13-3.74.37-6.65.37-2.14.73-2.66,1.51-6.53.54-2.69.55-3.35.12-3.76-.92-.89-2.58.72-5.64.25-2.06-.31-2.59-1.24-3.77-.88-1.38.43-1.63,2.25-2.51,3.64-1.65,2.64-2.54,4.56-5.52,10.92-2.58,5.52-2.82,6-3.51,6.9a18.64,18.64,0,0,1-6.28,5.52c-4.31,2.25-5.79.55-10.66,3.14a19.46,19.46,0,0,1-4.39,2.13,13.54,13.54,0,0,1-5.65.5c-4.54-.67-4.5-3.86-10.42-6.27-2.55-1-3.22-.72-6.14-2.13-3.14-1.52-3-2.23-5.15-3-3.95-1.48-5.64.52-9-.63-2.43-.83-3-2.33-6.15-5.9A58.86,58.86,0,0,0,592,70c-2.31-1.57-1.52-.64-13.8-6-5-2.2-7.34-3.39-10.41-2.64-1,.25-3.78.93-5.27,3.26s-.44,4-.63,8.79c-.19,4.6-.32,7.81-2.13,8.91-2,1.21-6.17-1.14-14.31-6-3.76-2.25-4-3-6.15-3.51-6.54-1.45-9.73,4.61-16.31,3.39-1.79-.33-3.79-1.77-7.78-4.64s-6.9-5-9.66-8.79c-2.48-3.42-2.65-5.27-5.65-7.78-1.66-1.38-3.08-2.56-5.15-2.88-4.34-.67-6,3.34-11.29,4-3.62.46-6.57-.92-8.91-2-6.3-2.93-7.77-7.35-11.79-6.9A5.8,5.8,0,0,0,459.16,49c-2,2.38-.23,5.3-.25,10.55,0,2.83-.76,5.4-2.26,10.54-1.92,6.58-2.65,5.89-4.14,11.42-1.68,6.21-1.16,8.55-3.64,10.79a13.36,13.36,0,0,1-5.77,2.63,23.67,23.67,0,0,1-7.66.75c-9.72-.38-9.72,1-20.2.38-6.15-.36-9.26-.58-11-2.13-3.45-3-3.08-7.71-6.15-8.41-.92-.21-2.33.4-5.15,1.63-2.46,1.08-3.37,1.71-6.4,3.26a50.3,50.3,0,0,1-6.15,2.89,31.76,31.76,0,0,1-7.78,1.51c-6.2.7-7.32,0-11.79,1a51.67,51.67,0,0,0-5.27,1.63c-1.56.53-4,1.41-7.4,2.89-9,3.88-13.5,5.82-16.07,8.15-1.7,1.55-3.5,3.61-6.52,4a10.05,10.05,0,0,1-4-.38c-2.22-.57-3.21-1.45-6.65-3.64-3.24-2.06-4.85-3.09-6.15-3.51a15.64,15.64,0,0,0-7.27-.5c-2.33.36-2.77.94-9,3.64-1.31.56-.17,0-6.4,2.63-7.78,3.22-7.86,3.31-8.91,3.64-2.26.71-3.06.67-11,1.38-12,1.08-14.23,1.54-15.69,1.88a56,56,0,0,0-9.53,3.14c-5.54,2.43-9.21,5.21-14.18,9-5.8,4.45-6.28,5.67-12.17,9.78-3.54,2.48-3.83,2.36-6.28,4.27-4.22,3.29-4.75,4.72-9.91,9.54-7.29,6.8-9.6,7.13-11,6.65-.84-.28-.78-.63-2.64-1.88a28.68,28.68,0,0,0-6.27-3c-.89-.35-3.61-1.61-9-4.14-4-1.85-4.4-2.11-7-3.26a63.81,63.81,0,0,0-6.9-2.76c-2.8-.87-3.57-.8-6.15-1.51a43.93,43.93,0,0,1-8.28-3.26c-10.73-5-33.75,7.16-43.79,2.64a51.72,51.72,0,0,1-5.9-3.14c-2.84-1.82-3.18-2.55-5.9-4.14a24,24,0,0,0-6.27-2.76,18.14,18.14,0,0,0-5.9-.76c-3.4.19-4.17,1.41-9.41,3-.54.16-2.71.65-7,1.63-7.59,1.71-7.57,1.65-9.41,2.13-1,.26-4.81,1.27-9.66,3-4.12,1.48-7.68,3-9.66,3.89-2.17,1-4.37,1.81-6.53,2.76A25,25,0,0,1,16,150.41c-1.12.23-1.38.19-2.51.37-2.71.43-5.85.93-7.53,2.51s-.75,3.44-1.63,8C3,167.89.25,167.82,0,172.49c-.2,4.17,1.84,7.57,4.15,11.42,1.94,3.24,3,5,5.27,6.78,1.94,1.49,3.62,2.07,4.39,4a6.9,6.9,0,0,1-.13,4.52c-1.53,5.6,2.13,6.35.38,18.32a25.32,25.32,0,0,0,.25,9.41,13,13,0,0,0,2.51,5.9c2,2.44,4.55,3.34,6.9,4.14,2.94,1,3.67.66,9.41,1.5a110,110,0,0,1,11,2.26c5,1.3,6.4,2.08,7.28,2.64a27.86,27.86,0,0,1,5.15,4.52c1.45,1.5,1.49,1.76,3.76,4.26s3.41,3.76,4.27,4.27c1.88,1.12,3.35,1,7.65,1.25,3.41.2,7,.52,8.66.76,5,.72,8.57,3.07,12.17,5.52,9.45,6.42,7.82,10,16.69,16.69,6,4.51,7.44,3.44,14.81,9.28,3.4,2.7,2.27,2.28,9.16,8.28s8.66,7,9,9.67c.12.83,0,.91-2.51,9.66-1.29,4.58-1.62,5.88-.87,7.15,1.19,2,3.48,1.22,5.39,3.77a5.93,5.93,0,0,1-1,8.65c-2.94,3.24-2.37,8.43-1.51,16.19.67,6.07,1.52,6,1.76,11.42.2,4.58.12,8.78.12,8.78a44.3,44.3,0,0,0,.26,6.78,27.58,27.58,0,0,0,.5,3.14c.85,3.53,3.06,5,7.53,9.79a94,94,0,0,1,6.4,7.65c1.83,2.47,3.08,4.44,4.39,6.52a108.23,108.23,0,0,1,5.65,9.79,63.31,63.31,0,0,1,5.64,15.31c1.79,8.34-.13,9.35,2.26,15.56.88,2.29,1.13,2.12,4.52,9.41A69.07,69.07,0,0,1,185,466c1.08,3.93,2.34,8.49.37,12.67-1.54,3.29-3.88,3.8-3.89,6.65,0,1.13.63,2.55,1.89,5.4,1.42,3.22,1.93,3.5,2,4.89.1,1.78-.7,2.13-1.63,5.14-.73,2.36-1.41,4.58-.88,6.91.62,2.65,2.16,2.55,3.52,5.64.38.88,2,4.62.62,7.91-.72,1.7-3,3.17-7.52,6-4.1,2.59-3.77,2-4.77,2.89-4.67,4-5.39,10.63-5.52,12.29-.32,4.13.91,4.83,0,8.66a24.49,24.49,0,0,1-2.51,6.15c-1.72,3-2.55,3-3.39,5.15-1,2.49-.21,3.34-.75,6.65a21.32,21.32,0,0,1-2.89,7.53c-1.5,2.5-3.09,4-6.27,7-4.33,4.09-5.71,4.42-6.28,6.65-.64,2.53.8,3.45-.12,5.9-.74,2-2,2.3-4.4,4.77-3,3.14-2.06,3.7-4.26,5.77-1.76,1.66-4.94,3-11.3,5.65-2,.83-3.11,1.26-3.89,2.51-1.22,2-.61,4.5-.12,6.4.79,3.07,1.72,3.39,2.88,6.4.24.61,3,7.71.63,9.41-1,.76-2.77.21-6-.88-4.66-1.56-7-3.34-7.53-2.76s1.07,1.93,2.26,4.77c1.44,3.43,2.11,8.15.63,9s-3.14-2.57-6.53-2.63-3.61,3.1-9.29,7c-6,4.16-10,3.62-12.54,7.9a5.93,5.93,0,0,1-2,2.51c-2.48,1.53-4.62-.66-7,.63-2,1.06-1.18,2.88-3.89,5.39-2,1.89-2.85,1.21-3.89,2.64-2,2.79.74,5.85-1.25,8.78a7.75,7.75,0,0,1-4.14,2.64c-3.25,1.1-5.06-.09-6.15,1.13s-.35,3.37.37,5.64a12,12,0,0,0,10.17,9.42c4.36.94,6.32-.11,8.78.25,4,.56,5.56,4.26,9.91,10.29,9.12,12.61,13.67,12.27,17.45,22a25.68,25.68,0,0,1,2.13,10c0,2.67-.85,5.58-2.51,11.3-1.72,5.91-2.57,8.86-3.89,11.54-2.15,4.39-3.2,4.58-6,9.79a40.6,40.6,0,0,0-4.14,9.41c-2.23,8.72,1.45,16.72,2.76,19.58,2.94,6.41,4.52,5,10.66,15.56,2.52,4.34,3.12,6.08,5.78,9.53,3,3.84,4.19,4.28,5,6.9,1.21,3.84-.75,5.14.51,9.67.38,1.38,1.31,4.75,4.14,6.4,1.66,1,2.36.4,6.27.87,3.11.38,6.81.83,10.29,3.14a17.66,17.66,0,0,1,4.64,4.64A18.81,18.81,0,0,1,145,867a51,51,0,0,1,0,6.9c-.18,5.86-.44,5.41-.25,7.15.4,3.7,1.47,5.67.37,7.16-.75,1-2.1.8-4.89,1.38-7.05,1.45-11.22.08-11.92,1.63-.44,1,.89,2.09,4.52,6.27,5.18,6,4.83,6.39,8,9.66s3.51,2.83,8.4,7.16c0,0,6.16,5.44,15.06,17.69a8.94,8.94,0,0,1,1.51,3.14,7.63,7.63,0,0,1-.13,4.64,7.27,7.27,0,0,1-1.5,2.38,11.42,11.42,0,0,1-6,3.14c-4.6,1.18-5,.31-10.16,1.38a54.55,54.55,0,0,0-7.15,2c-1.76.64-1.93.83-3.89,1.51-3.57,1.23-4.27,1.07-5.27,1.88-1.4,1.13-1.18,2.38-2.14,5.77-1.76,6.25-3.8,6.65-3.89,10.79a16.62,16.62,0,0,0,1,5.65c1,3,1.79,3.14,3.13,6.77,1.1,2.95,1,3.93,2,4.52,1.45.82,2.49-.59,5.15-.25,1.79.23,4.16,1.23,5.14,3.14s-.22,2.92.5,4.77c.86,2.18,3.32,2.75,6.4,4,3.82,1.57,7.1,4.2,10.67,6.28,7.85,4.56,8.87,5.14,11,5.77a35.93,35.93,0,0,0,7.91,1.25c3.95.29,4.91-.12,10.16-.12a71.73,71.73,0,0,1,9.91.5,39.79,39.79,0,0,1,11.3,2.76c7.58,3.29,6.7,6.66,13.3,8.53,2.82.8,5.28.84,8.41,3a21.82,21.82,0,0,1,3.76,3.64c2.72,2.9,5.7,5,11.67,9.16a91.42,91.42,0,0,0,9,5.9c5,2.7,8.09,3.44,14.43,5.52,17.76,5.84,19.61,8.73,29.36,9.79,1,.1,4.76.49,9.66.75,9.81.53,9.06-.26,12.05.51,2.23.56,4.26,1.41,6.15.37,1.07-.59,1.36-1.39,2.26-2.76s3.42-5.27,6.9-6.65c3.13-1.24,6.31-.19,8,.38,3.56,1.17,3.28,2.52,6.4,3.64,2,.71,5.3.34,11.92-.38a27.48,27.48,0,0,0,7.4-1.51c2.75-1,2.32-1.47,4.14-2,4.95-1.45,8.19,1.77,11.17-.38.86-.62.57-.87,1.51-1.63,2.56-2.09,6.21-1.42,9-1,10.95,1.6,16.42,2.39,20.58.63,1-.41,3.82-1.77,5.15-.63a2.7,2.7,0,0,1,.62,1.13c1.08,2.18,5.81,1.89,9.79,1.89,4.37,0,1.82.34,10.92.62,6.5.21,5.43,0,10.29.13,7.55.27,10.74.9,11.67-.75.8-1.44-1-3,.12-5.15a5.45,5.45,0,0,1,3.14-2.38A6.35,6.35,0,0,1,472,1044c4.29.74,5,3.65,7.65,3.51,1.45-.07,2.6-1.17,4.9-3.38,2.48-2.39,2.49-3.42,4.26-4.65a10.82,10.82,0,0,1,6-1.63l7.75-.35c5.1.65,15.58,1.85,22.12,1.61,1.29,0,4.23-.22,6,1.63,1.16,1.18.89,2.22,2.14,3.14s2.53.43,5.77.5a19.13,19.13,0,0,1,6.9,1.13c2.7,1.11,2.43,2.26,5,3.89,4.56,2.86,7.19.41,12.42,3.26a17.86,17.86,0,0,1,5,4.14c1.51,1.76,1.75,2.72,4.77,7.66a36.28,36.28,0,0,0,2.76,4.26c.68.68,2.94,2.76,9.79,4,3.23.59,3.53.27,10.66.88,5.18.43,7.8.67,9.29,1.38,3.14,1.49,3,2.94,7.53,5.64,3.18,1.92,3.84,1.56,5.77,3,3.35,2.53,3.88,5.51,5.4,8.16,4.48,7.83,12.74,4.25,21.71,12.93,2.14,2.06,4.06,5,7.9,10.91,3.64,5.58,4.18,7.32,7.53,11.55,2.54,3.2,3.39,3.66,5,6.4,1.32,2.2,1.69,3.45,3.26,4.51s2.9.92,5.52,1.38a27.36,27.36,0,0,1,7.53,2.51c4.65,2.75,6,8.64,6.78,11.8,1.34,5.7-.38,6.51,1.38,11.79a40.11,40.11,0,0,0,4.27,8.41,50,50,0,0,0,4.64,6.65c6.6,7.76,12.34,7.06,16.31,14.06a11.37,11.37,0,0,1,1.76,5.89c0,.82-.16,1.61-1.76,6.28-1.55,4.51-1.79,4.84-1.63,5.77.47,2.7,3.45,5.08,6.15,5.27a16.34,16.34,0,0,0,4.52-.88c2.57-.67,3.24-1.12,4.26-.75.87.31,1.43,1.18,2.51,2.89,1.71,2.7,1.57,3.39,2.64,4.64s2,1.47,4.26,2.63a63.13,63.13,0,0,1,6.53,4,41.84,41.84,0,0,1,9.79,10c2.33,3.18,2.45,4.14,4.26,5.27,3.29,2,7.13,1.53,8.28,1.38a7.52,7.52,0,0,0,4.27-1.51c1.22-1.06,1.11-1.92,2.26-2.63a5.35,5.35,0,0,1,5.52.37c1.21.85,1.62,2,2.51,4.9,1.4,4.54,1.65,5.83,2.26,7.78a50.41,50.41,0,0,0,4.27,9.66c1.67,2.92,2.23,3.18,3.51,5.9.88,1.87.79,2.12,2.38,5.9s2.46,5.33,4,6.14a7.83,7.83,0,0,0,2.38.63c6.3,1.18,8,.47,9.29,1.88.32.35.81,1,2,5.15,1.69,5.91,1.38,7,2.63,9.54,1,1.94,2.22,4.5,4.77,5.64,2.89,1.3,4.7-.44,11.92-1.75,5.25-1,5-.16,10.17-1.13,3.62-.68,3.67-1.06,11.54-3.27,7.38-2.07,7.79-1.87,11-3.13,5-2,4.69-2.69,8.28-3.77,3.21-1,3.51-.39,12-1.38,7.47-.86,8.9-1.49,10.16-2.38,1.55-1.09,1.85-1.88,4.77-4,2.64-1.93,4-2.89,5.52-2.76,2,.17,3.33,1.78,5,3.64a16,16,0,0,1,2.39,3.51c1.56,3.12,1,4.43,1.75,6,2.76,5.52,16.89,3.69,18.32,3.51a39.47,39.47,0,0,0,8.79-2.26c4.84-1.83,5.77-3.23,11.42-5.52,3.63-1.47,3.4-1,8.28-2.76s8.27-3.06,11.42-5.27c.82-.58,1.34-1,8.15-9s8.16-9.77,11.05-12.42c.63-.58,2.2-2,4.64-4.26,2.94-2.73,4.4-4.1,4.77-4.52,1.54-1.79,2-2.8,3.64-3.64a8.73,8.73,0,0,1,3.26-.88c3.72-.47,6.48-.82,9.29.25,2.27.86,1.79,1.59,6.14,4.9,2.18,1.65,2.57,1.67,7.16,4.64,3.56,2.31,6.19,4.15,7.78,5.27a97.67,97.67,0,0,1,9.16,6.9c3.24,2.86,4.86,4.29,6,6.15,2,3.15,1.19,4.13,3.89,12.67.88,2.8.88,2.41,2.38,7,1.94,5.92,1.81,6.13,2.64,7.91,1.49,3.17,2.11,2.91,5,7.78,2.62,4.37,2.42,5.07,4.14,7,1.88,2.14,2.8,2.06,6.53,4.65s9.27,6.52,10.41,11.67a7.81,7.81,0,0,1-.13,4.51c-.25.71-.47.91-2,3.14a34.07,34.07,0,0,0-2.51,3.89,11.64,11.64,0,0,0-.88,5c0,2,0,4,1.25,5.65,1,1.39,2,1.46,3,3.26a9.2,9.2,0,0,1,.87,2.51c.62,3.29-1.63,5.74-3.38,10.54s-.4,4.91-2.39,10c-1.32,3.41-2.32,4.39-2,6.4.49,3.06,3.19,3,4.4,6,2,5-3.67,9.72-1.38,12.92.54.77,2,1.31,5,2.39a49.5,49.5,0,0,0,5.78,1.63c8,2,7.7,2.93,10.29,2.76,3-.2,7-1.69,8.28-4.64.59-1.33.06-1.69.88-4.9a25,25,0,0,1,4.64-9.53c3-4.07,4.82-6.43,7.65-7.53,1.52-.59,2.13-.35,8,.12,7.7.62,6.34.18,12.79.76,8.54.76,8.68,1.33,11.17.75s4.76-1.72,6-.63c.8.7.82,1.93.75,3.26a39.24,39.24,0,0,1-1.76,9.67c-2,6.35-3.25,10.34-2.38,14.8a19,19,0,0,0,1.5,4.52,19.83,19.83,0,0,0,3.64,4.77,30.67,30.67,0,0,0,4,3.64c5.1,3.68,8,1.53,12.67,4.77a16.62,16.62,0,0,1,5.4,6.4c1.71,3.7.42,5,1.88,6.65,2.31,2.64,6.08,0,16.44,1,3.39.32,6.79,1,9.66,1.51a54.76,54.76,0,0,1,6.15,1.38,57.51,57.51,0,0,1,7.78,3.13c9.31,4.16,9.9,4,12.17,5.78,2,1.55,4.2,3.24,5.27,6.15.55,1.47.34,2,1.13,3.76a12.48,12.48,0,0,0,4,5.14c1.25.93,2.75,2,4.64,1.89,1.73-.13,2.17-1.18,3.14-.88,1.53.47.9,3.26,2.76,6.15,1.3,2,3.93,4.26,6.4,3.89,1-.16,2.18-1.28,4.51-3.52a14.25,14.25,0,0,0,3.14-3.64c1-1.85.54-2.44,1.51-3.76s1.88-1.21,3.76-2.63c2.33-1.77,1.77-2.63,4-4.52a46.14,46.14,0,0,1,5.27-2.89,57.91,57.91,0,0,0,5.14-2.76,22.66,22.66,0,0,0,3.77-2.89,23,23,0,0,0,5.14-8.28,18.46,18.46,0,0,1,2.76-5.52,7,7,0,0,1,2-1.75,6.87,6.87,0,0,1,2.89-.88,8.59,8.59,0,0,1,2.88.37c4.16,1,4.58,1.34,5.4,1,1-.42.8-1.2,2.26-3,1.85-2.32,2.79-1.74,4.39-3.77a29.34,29.34,0,0,0,2.51-5.14,15.49,15.49,0,0,1,1.38-2.89,10.59,10.59,0,0,1,3-3,11.71,11.71,0,0,1,4.27-1.51c5.2-1.12,7.8-1.67,9-1,2.18,1.18,1.64,3.3,4.27,4.39a8.51,8.51,0,0,0,3.64.5,12.25,12.25,0,0,0,3.51-.75c1.74-.57,2.29-1.1,3.76-1.63,2.84-1,3.27-.77,5.53-1.63a46.1,46.1,0,0,0,5.89-3.14c1.57-.91,2.37-1.37,3.27-2,2.34-1.66,2.69-2.45,4-3.39,2.76-2,4.37-.74,7.66-2,1.66-.65,3.53-2.65,7.27-6.65s4.71-5.62,7.78-7.53a23.24,23.24,0,0,1,3.77-1.89c1.8-.69,3.54-1.09,9.66-1.5,7.65-.51,8.83-.14,9.54.75s.22,1.09,1.13,3.77c.84,2.48,1.26,3.72,2.13,4.39,2,1.52,4.14-.25,6.4,1.38,1.28.92.81,1.65,2,2.76,1.38,1.28,2.93,1.17,9.16,1.25,5.64.08,6.69.21,8,.88,1.13.57,1.26.91,3.51,2.14,3,1.62,3.42,1.38,4.14,2.25,1.68,2,.06,4.13,1.63,5.53.78.69,1.24.22,5,1.38a5,5,0,0,1,2.26,1c1.34,1.26,1.16,3.43,1.13,4.14-.17,4,2.21,5,6.53,17.32,1.37,3.92,1.53,5,3.13,9.16,1.42,3.69,1.76,4.11,2.64,6.4,2.43,6.34,5.55,14.51,2.38,20.07a52,52,0,0,0-3,5.27c-1.41,3-1.54,4.15-1.5,5,.06,1.69.77,2.86,1.88,4.65,4.23,6.82,4.64,7.4,4.64,7.4,4.79,6.76,7.17,10.18,6.53,12a8.93,8.93,0,0,1-2.26,3.13c-1.18,1.08-1.87,1.14-2.89,2s-1.53,1.88-2.51,4.27c-2.55,6.23-2,6.25-3,7.53-1.27,1.66-2,1.39-5.65,4.14a49.89,49.89,0,0,0-5.14,4.39c-3.56,3.8-4,8.87-4.64,16.56-.61,7.13.34,9.23-1.76,12.68-1.19,2-2.35,2.68-2.89,5a11.64,11.64,0,0,0,1.38,7.9,10.71,10.71,0,0,0,4,4.39c1.14.66,1.75.67,4.77,1.51,2.56.71,2.85.91,5.27,1.63,4.73,1.42,8.08,2.41,11.79,2.64,4.44.26,4.16-.89,8.16-.76,7.87.27,13.8,4.91,16.19,6.78,3.1,2.43,2.83,3.06,6.52,6.52,4.63,4.35,7.57,5.72,13.8,9.79a196,196,0,0,1,21.21,15.81c4.81,4.16,6.64,6.26,11.17,8.66a61.42,61.42,0,0,0,11.79,4.52c8.43,2.47,11.5,1.95,14.06,5.14a24.45,24.45,0,0,1,3.14,6.28,33.43,33.43,0,0,1,1.75,5.9c.26,1.38,2.11,12.12-3.39,17.81a30.13,30.13,0,0,0-3.89,4.27A15.28,15.28,0,0,0,1592,1691c-.69,2.26-.32,3.83,0,6.65.47,4.21-.15,2.61.38,13.43.28,5.93.39,4.7.37,6.4a38.53,38.53,0,0,0,.63,7.28c.48,1.86.88,2,2.26,5.64,1.75,4.59,1.86,5.4,3.76,10.42,1,2.73,1.27,3.19,1.76,4.77a53.52,53.52,0,0,1,1.51,6.4,37.5,37.5,0,0,1,.87,6.9c0,3.56-.64,4.42.13,6.52a7.32,7.32,0,0,0,2.64,3.64c1.58,1.08,2.47.54,4.51,1.76a9.39,9.39,0,0,1,2.76,2.51c1.25,1.74,1.33,3.39,1.63,5.65.94,6.91,2.26,6.43,1.76,8.65-.91,4.09-5,4.33-6,8.79a9.76,9.76,0,0,0,.5,5.27c1.33,4.31,4,5.15,11.29,12.42,4.52,4.48,4.61,5.24,6.65,6,1.62.63,4.12,1.14,7.78,2.77a6.47,6.47,0,0,1,2.64,1.88c.79,1,.94,1.85,1.38,3.51.53,2,1.27,3.93,1.88,5.9.84,2.69,1.14,3.47,1.63,5,2.49,7.85,4.15,13.09,3.39,18.19a10.58,10.58,0,0,0,0,3.89c.21,1.06.72,3.57,2.64,4.9s3.46.06,7.15,1.63a7.17,7.17,0,0,1,2.26,1.25c1.88,1.73,1.91,4.49,1.75,9.41-.21,6.8-.41,6.14-.37,8.41.06,3.22.17,9.4,3.13,15.19a21.16,21.16,0,0,1,1.76,3.89c.7,2.2.55,3.19.88,7.15.63,7.51,1.6,9,2.26,9.79s1.1.94,2.13,2.25a24.24,24.24,0,0,1,2.64,4.65c1.18,2.42,1.27,2.75,2.26,4.77,2,4.1,2,3.63,2.25,4.51.61,2.56-.56,3.25-.75,7.78a17.72,17.72,0,0,0,.38,5.27,17.42,17.42,0,0,0,2.88,5.78c3.64,5.35,5.77,6,8.29,10.79a15.68,15.68,0,0,1,1.5,3.76c.65,2.8.08,4.5,0,7.15-.1,3.38.72,4.24,1.13,7.53.48,3.82.71,5.21-2.63,19.2-.5,2.07-1.26,4.92.25,6.9,1.25,1.65,3.57,1.87,8.15,2.26,5.28.45,5.33-.32,10.79,0,4.35.26,6.52.87,7.41-.37s-.9-3,0-4.65,3-1.06,9.41-2.63c3.06-.75,4.33-1.3,5.4-2.39,1.22-1.24,1.15-2.14,2-3.76,1.65-3.14,4.47-4.65,8.41-6.78.58-.31,2.81-1.29,7.28-3.26a44.07,44.07,0,0,0,5.27-2.51,21,21,0,0,0,5.27-4c2.06-2.28,1.7-3.22,3.89-6.4a23,23,0,0,1,4.89-5.4c2.77-2.14,3.77-1.66,8.79-4.64,3.07-1.83,2.57-1.93,4.14-2.64,3.38-1.53,6.55-1.43,10.66-1.25,5.29.22,6.11,1.08,8.91.25a19.23,19.23,0,0,0,5.27-2.76c2.64-1.8,2.71-2.52,5.15-4.14a17.58,17.58,0,0,1,5.9-2.76,14.78,14.78,0,0,1,8.15.37c4.72,1.68,4.66,4.81,9.54,7.53,3.55,2,4,.55,9,2.39,6.9,2.5,12.12,7.36,14.18,9.28,3.86,3.6,5.42,6.15,7.28,5.65s1.24-2.89,3.64-5.52c2.76-3,6.79-3.54,10.67-4,3.68-.46,5.52-.69,7,.5,1.8,1.43,1.54,3.62,4,5.4a8.29,8.29,0,0,0,2.89,1.25c6.88,1.79,20.52.1,22.21-.12,6.29-.81,10.26-1.41,11.54.63.23.36.25.61.38,1.88.82,8,1.5,9.63,2.26,10.79s2.18,2.83,3.13,2.51c1.46-.49,1.07-5.64.88-8.16-.12-1.59-.33-3.11-.75-6.15-.5-3.6-.81-5.15.12-6.65.72-1.15,1.28-.83,2.26-2a8.12,8.12,0,0,0,.38-9.16c-.82-1.13-1.53-1.14-2.13-2.51a7.81,7.81,0,0,1-.51-3.77c.16-1.29.53-1.52.38-2.26-.25-1.2-1.5-1.75-2.51-2.38-1.52-1-3.19-3.52-6.52-8.66-.71-1.09-1.22-1.87-1.89-3a44.48,44.48,0,0,1-3.64-7.41c-1.09-3-2.29-6.37-1.5-10.41.34-1.73.9-4.61,3-5.65,1.33-.65,2.3-.1,4.27-1.13a5.13,5.13,0,0,0,2.51-2.25c.49-1.08.29-2.12-.13-4.15-.47-2.27-.88-2.44-1.13-4-.38-2.4.45-2.71.25-4.77-.34-3.6-3-4.46-2.51-6.52.45-1.73,2.75-2.74,4.27-3,3.16-.58,4.26,1.71,6.77,1.13,3.84-.88,5.17-7.11,5.28-7.65.3-1.51.84-4.2-.63-5.9-1.17-1.35-2.72-1.07-3.26-2.38s.53-2,1-3.89c.77-3.06-1.11-4.49-1.63-8.41a12.69,12.69,0,0,1,.88-7.4c2.1-4.16,6.28-4.11,8.91-8.54a11.29,11.29,0,0,0,1.5-4.26,5.38,5.38,0,0,0,0-2.51c-1-3-6.29-3.7-7.78-3.89a26,26,0,0,0-6.65.12c-5,.52-7,1.51-7.78.5s.3-2.91,1-3.89c1.37-1.9,2.58-1.46,4.65-3.13.7-.57,2.06-3.15,4.77-8.28a5.6,5.6,0,0,0,1-3.27c-.07-.73-.35-1.31-2.38-3.76a32.65,32.65,0,0,0-4.15-4.52,18.4,18.4,0,0,0-3.26-2.26,43.64,43.64,0,0,0-5.39-2.13c-2.56-.93-2.88-1-3.27-1.51-.74-.93-.48-1.72-1.13-4.14-.48-1.82-.71-1.66-1-2.88-.88-3.7,1-5.69-.25-7.66-.37-.56-.53-.4-2.13-1.5a18.72,18.72,0,0,1-6.15-6.4c-.7-1.31-1.17-2.22-1-3.39.13-.89.54-1.37,2.26-3.64,2.27-3,2.48-3.4,2.39-3.89s-.54-1.42-4.27-2.39a31.15,31.15,0,0,0-8.28-.87c-10.1-.07-11.52-.7-12.17-1.76-.93-1.51.15-3.21-1.13-4.27-.77-.63-1.8-.55-3.77-.37-3.43.31-3.88,1.19-5,.75-2.54-1-2.73-6.38-2.76-7-.1-2.9.79-3.08.38-5.27-.48-2.52-1.76-2.77-2.76-5.9-.57-1.78-1.07-3.31-.63-5,.78-3.05,3.53-2.77,5.4-6.53,1.18-2.39.54-3.45,1.88-4.52,1-.77,1.87-.65,5.39-1,4.18-.42,3.78-.67,5-.63,2.89.1,3.43,1.42,8.41,3.77s5.56,1.59,8.53,3.64c2.32,1.59,2.13,2.17,4.9,4.14.47.33,6.17,4.33,7.4,3.13.83-.8-.63-3.66-1-4.39-1.31-2.57-2.44-2.62-2.76-4.39a6.63,6.63,0,0,1,1.25-4.64,29,29,0,0,1,2.39-2.39c2.08-2,2.35-2.19,2.76-2.38a4.86,4.86,0,0,1,3.76-.38,4.54,4.54,0,0,1,1.63,1.26,36.28,36.28,0,0,1,4.14,4.39,17.94,17.94,0,0,1,1.76,3.64,23.64,23.64,0,0,1,1.88,6c.49,3.82-1.15,4.35-.88,8.78a24.6,24.6,0,0,0,1.13,5.4c.36,1.29,2.07,7.43,3.14,7.28.74-.11.13-3.08,1.76-7.28a20.41,20.41,0,0,1,3.51-5.77,21,21,0,0,1,7.15-5.52,26.07,26.07,0,0,0,4.65-2.51,7,7,0,0,0,2-1.76c.41-.6.7-1.31,1.13-4.64.36-2.79.26-3,.63-3.39,1.21-1.12,3.18.73,5.4-.38,1.36-.68,2.44-2.31,2.13-3.51a2.46,2.46,0,0,0-1-1.26c-2.44-2-3.57-1.74-4.4-2.76-1.42-1.75-.5-5.49,1.51-7.53a7.24,7.24,0,0,1,2.63-1.63c4.43-1.71,6.72,0,12.55-.5a27.42,27.42,0,0,0,8.54-2.13,19.77,19.77,0,0,0,5.14-3.14c1.53-1.29,2.35-2,2.39-3C1992,1699.81,1988.82,1698,1986.66,1697.36ZM510.2,1037.13c1.6-.06,2.41-.08,2.41-.06A20.73,20.73,0,0,1,510.2,1037.13Zm444.24,209.12a14.62,14.62,0,0,1-.63,4.52,13.17,13.17,0,0,1-2.63,4.64c-1.33,1.5-3.25,3.66-5.4,3.39-1.23-.16-2.28-1.4-4.39-3.89-1.53-1.8-1.51-2.13-2.76-3.51-1.66-1.84-2.27-1.92-4.14-3.64a19.42,19.42,0,0,1-4.77-6c-.84-1.77-1.91-4-1-6.15a5.88,5.88,0,0,1,2.88-2.76c1.9-1,3.21-.79,9.29-.75,3.82,0,5.73,0,6.27,0,3.68-.24,5.07-.78,6,.13s.32,1.77.37,5C953.63,1241.5,954.56,1242,954.44,1246.25Zm45.8-1043.89c-1.39,6.63-1,6.54-1.88,9.53-1.2,3.85-1.8,5.77-3.51,7.15s-2.4.75-7.66,2.26c-5.05,1.46-5.46,2.31-7.53,2a8.86,8.86,0,0,1-6.15-4.27c-.6-1.06-.86-2.55-1.38-5.52-.55-3.21-.32-3.5-.75-4.76-.66-1.94-1.75-2.81-4.52-5.4a75.29,75.29,0,0,1-7.4-7.53c-2.33-2.86-3.64-4.53-3.64-6.9,0-2,.92-3.41,2.13-5.27a19.31,19.31,0,0,1,8.66-7.15c.5-.21,2-.6,5.15-1.38,4.64-1.18,6.08-1.36,7.78-1a9.72,9.72,0,0,1,3.38,1.38c2.86,1.91,2.61,4.27,4.65,7.41s3.31,2.12,9.28,7.9c3,2.86,3.82,4.25,4.14,5.9C1001.26,198.07,1001,198.74,1000.24,202.36Zm116.7,68.38a5.19,5.19,0,0,1-2.51.13,6.4,6.4,0,0,1-2.13-.75c-1.61-.94-1.33-1.79-2.51-2.39-1.49-.75-2.37.4-4-.37a4.39,4.39,0,0,1-2-2.14c-.46-1.07-.31-2.27,0-4.64.29-2.1.55-2.71.13-3.14-.73-.74-2.59,0-3,.13-2.05.78-2.14,2-4,2.63-.5.18-2.21.78-3.38,0-.9-.59-.77-1.53-1.51-5.14a36.75,36.75,0,0,0-1.13-4.64c-.76-2.28-1.27-2.75-1.25-4.15a5.31,5.31,0,0,1,1.12-3.38c.82-1,1.65-1,5.9-2.14,3.65-.94,3.55-1,4.52-1.13,1.73-.17,3.91-.38,5.9.76s1.3,2,3.39,3.26a18.44,18.44,0,0,0,4.89,1.63s-.24,2-.25,2.13c-.25,2.19,1,5.33,1.5,6.53a36.06,36.06,0,0,1,2,8.91C1118.69,264.33,1119.14,269.76,1116.94,270.74Z"/></g></g></svg>