<svg xmlns="http://www.w3.org/2000/svg" viewBox="0 0 2562.61 1320.28"><g id="Layer_2" data-name="Layer 2"><g id="Austria"><path d="M2329.54,106.86a9.64,9.64,0,0,1,1.39.82c2.15,1.34,3.22,2,3.73,2.34,1.4.93,1.72,1.61,2.86,2s2.2.21,4.53,0c1.52-.14,1.46-.21,2.71-.3,3-.22,3,.21,3.92-.15,1.92-.81,1.53-2.91,3.61-3.77a4.66,4.66,0,0,1,2.72-.15c.48.09,1.89.42,4.21,2.71,2.47,2.44,2,3.19,3.77,4.37s2.39.55,4.22,1.81,1.54,2.3,3.17,3.47c1.46,1,3.43,1.1,7.38,1.2a50.67,50.67,0,0,0,5.58-.15c3.53-.28,3.89-.66,6.63-.75,3.4-.12,5.1-.17,6.18.9s.8,2.34,2.56,3.92c.69.63,1,.64,1.35,1.21.66,1,.54,1.94.46,3.92-.05,1.07-.11,3.17,0,5.12a16.92,16.92,0,0,0,.45,3.77c.59,2.27,1.21,2.19,1.66,4.37a14.08,14.08,0,0,1,.45,3.61c0,.9-.17,1.4.15,1.66.54.46,1.93-.13,2.86-.9,1.39-1.15,1.12-2.2,2.11-3,.83-.68,1.72-.54,5.13-.15,6.25.72,6.72.65,8.43,1.21a11.83,11.83,0,0,1,4.07,1.81c2.24,1.77,2.18,3.62,4.83,5.27.37.24,1.05.56,2.41,1.21,1.16.55,2.63,1.25,3.76,1.65,1.51.54,3,.62,6,.76,4.17.19,6.26.29,6.78.3,6.2.16,9.31.24,10,.15a43.16,43.16,0,0,0,8.89-2.11c1.65-.64,3.06-1.34,4.82-.9a6.78,6.78,0,0,1,3.47,2.41c1,1.18.68,1.54,2,3.92s1.68,2.26,2.11,3.61.07,1.59.15,4.52a40.24,40.24,0,0,0,.6,5.73c.34,1.88.61,2.42,1.06,4.22a42.37,42.37,0,0,1,1.2,8.89,60.54,60.54,0,0,1-.3,7.84c-.39,4.24-.88,5.72.15,6.93,1.36,1.59,3.51.56,4.52,2.11.84,1.29-.22,2.66-.6,5.88-.27,2.3.17,2.52.3,6,.27,7.19-1.49,8.29-.15,12.06.47,1.31,1.41,3.25,2.11,4.67.49,1,.73,1.44,1.81,3.62a25.5,25.5,0,0,1,1.81,4.07,17.15,17.15,0,0,1,.6,3.16c.23,3-.62,8.44-4.07,10.4-1.8,1-2.87.29-4.82,1.81a8.78,8.78,0,0,0-2.41,3c-1,2-.39,2.53-1.21,4.37-.63,1.44-1.83,2.51-4.22,4.67-2.18,2-2.37,1.79-3.31,2.87-1.56,1.78-1.32,2.59-2.87,5.57a27.82,27.82,0,0,1-5.27,7.24c-1.71,1.66-1.87,1.31-3.32,2.86s-3.57,3.83-3.61,6.63c0,1.57.63,1.61,2,5a23.16,23.16,0,0,1,2,8.44,18.19,18.19,0,0,1-1.06,6c-1.24,3.75-2.49,4-3.92,8.14l-1.35,5.12a52.21,52.21,0,0,0-1.36,5.43c-.31,2.44-.74,5.95,1.36,7.83,1.55,1.4,3-.19,5.42,1.06s1.74,3.36,4.52,5.72c2.11,1.8,2.69.74,6.33,3.17,2,1.36,4.52,3.47,4.52,3.47a8.59,8.59,0,0,1,.3,4.67,10.91,10.91,0,0,1-1.2,2.86c-1.62,3-2.81,3.55-2.71,4.82.07,1,.91,1.39,2.56,2.87,2.51,2.25,1.85,2.55,6.18,7.38,1.87,2.1,3.17,3.36,3.76,3.92,2.23,2.12,3.35,3.18,4.83,3.92,1.72.86,2.43.72,3.16,1.65,1.26,1.61.69,4,.6,4.37-.68,2.89-2.79,3.26-3,5.73-.09,1,.2,1.42.9,3.47,1,3,.92,3.59,1.81,6.78,1.82,6.49,3.11,7,5.28,14.31,0,.13.52,1.85,1.5,5.28,1.58,5.52,1.8,6.31,2.57,7.53.87,1.4,1,1.06,4.37,4.68,3,3.29,3.1,3.76,4.52,5,1.62,1.39,3.88,3.24,6.93,3.62,4.24.52,6.92-2.24,8.59-.76.38.35.25.51.9,2.56.8,2.54,1.12,2.67,2.41,6.18,1.23,3.32.91,3.11,1.51,4.22.28.52.69,1.21,3.47,4.37,2.56,2.93,3.42,3.71,3.31,5a4.06,4.06,0,0,1-1,2.11c-1.8,2.41-3.27,2.15-4.37,3.61-1.88,2.48-.55,7.08.15,9.5.54,1.86,1.23,3.23.6,4.82-.5,1.26-1.4,1.57-1.36,2.56.07,1.28,1.61,1.36,2.57,3.16a5.31,5.31,0,0,1,.15,4.68c-.83,1.58-2.16,1.3-2.57,2.56-.61,1.9,1.85,4.34,3.47,5.42.88.59,2.07,1.38,3.32,1.06,1-.26,1.15-1,2.56-2.41s2.37-2.35,3.77-2.56c1.09-.17,2.5.64,5.27,2.26a32.11,32.11,0,0,1,3.77,2.41,18.65,18.65,0,0,1,4.52,4.52c1,1.52,2.48,3.66,1.66,5.12-.41.72-1.15.86-2,1.21-3.18,1.35-2.41,3.79-5,5.27-2.32,1.34-3.78.09-5.57,1.81-.67.64-.47.82-1.81,2.41s-1.77,1.67-2.41,2.71a4.94,4.94,0,0,0-1.06,3.47c.43,2,2.87,2,3.32,4.07a4.46,4.46,0,0,1-.75,3c-1.11,2.17-2.37,2.18-4.22,4.67-1,1.35-1.74,2.38-1.51,3.62a3.4,3.4,0,0,0,2,2.41c.86.35,1.31,0,2.41.45a3.44,3.44,0,0,1,1.51,1.06c.48.68.47,1.55-.31,4.52a32.84,32.84,0,0,1-1.2,4.07c-1.57,3.82-2.89,3.44-3.77,6-1.06,3.14.7,4.1-.6,8a9,9,0,0,1-2.26,3.77,9.08,9.08,0,0,1-3,1.81c-2.22.85-3.44.51-6.63.75s-2.77.67-5.87.91c-4.32.33-5.19-.5-7.24.45-1.44.67-3.44,2.19-3.46,4.07,0,.58.17,1.5,2.71,3.92,3.19,3,4.42,3,6.63,5.27,1.32,1.34.5,1,3.77,5.43,3,4,4.44,6.07,4.82,6.48,1.08,1.13,2,2,2.26,3.46a5.84,5.84,0,0,1-.6,3.17,14,14,0,0,1-2.41,3.46c-1.11,1.32-1.46,1.53-1.66,2.26a4.18,4.18,0,0,0,.45,2.87,46.17,46.17,0,0,1,3.62,14.31c.19,3.4-.6,3.48-.15,6.78.38,2.84,1,2.84,2,7.39.8,3.7.6,4.53,1.65,6,.7,1,1.11,1.07,3,3.31,2.31,2.72,2.19,3.16,2.11,3.32-.27.48-1.34.13-3.92-.15-2.86-.32-4.85-.54-7.08,0-1.76.42-1.53.8-3.62,1.35s-2.47.25-5.58.61a54.17,54.17,0,0,0-6.48,1.2c-2.6.6-2.58.74-4.06,1.06-5.14,1.09-6.41-.32-10.55.6-3.13.69-2.27,1.47-6.48,2.71a57.64,57.64,0,0,1-8.74,1.51,54.11,54.11,0,0,1-5.58.6c-4.4-.12-5.13-1.6-9.34-1.51-2.48.06-3.56.6-4.22-.15s.14-2.4.9-5.72c.16-.71,1.73-7.74,0-8.59-.88-.43-2.38.84-3,1.5-1,1.1-1,1.89-1.81,3.92a19.11,19.11,0,0,1-3.62,5.88c-1.46,1.56-1.8,1.24-2.71,2.56s-1,2.09-2.26,3.92a8.4,8.4,0,0,1-1.06,1.36c-1.53,1.39-3.87,1.2-7.53.75-4.67-.58-4.32-.7-6.48-.9-3.15-.31-5.42-.19-10.1-.76a6,6,0,0,1-3.92-1.51c-.52-.54-.76-1.1-1.35-3-1-3.33-.95-3.67-1.51-5.27-.69-2-.94-1.77-2.41-5.13a39.76,39.76,0,0,1-1.66-4.22c-1.25-4-.06-5.19-1.2-6.63-1.45-1.8-4.53-1.65-7.39-1.5-4.24.21-5.37,1.59-8.29.75a14,14,0,0,1-3.76-2,13,13,0,0,1-4.07-3.47c-1.16-1.61-.73-2.07-1.81-3.16a7.9,7.9,0,0,0-4.07-2,13.92,13.92,0,0,0-4.07-.3c-2.91.15-3.23.77-5.73,1-3.57.41-3.76-.78-7.38-.3a22.09,22.09,0,0,0-5,1.36,25.56,25.56,0,0,0-3.77,1.81,10.3,10.3,0,0,0-1.81,1.2,6.8,6.8,0,0,0-2,2.87,7.36,7.36,0,0,0,.3,4.52c.71,2.44,1.61,2.92,1.51,4.37a4.87,4.87,0,0,1-1.81,3.16c-2.5,2.23-5.06.71-7.53,2.86-1.45,1.27-.69,1.89-2.11,3.17-2.71,2.43-5.79.5-7.84,2.71-1.13,1.22-.3,1.92-2,4.52-.84,1.33-1.66,2.57-3.16,3a5.36,5.36,0,0,1-3.92-.61,12.84,12.84,0,0,1-3.16-2.71c-1.26-1.28-1.77-2-2.57-2a2,2,0,0,0-1.35.91c-.8,1.22.12,2.61.75,5.57s.91,4.27.15,5.13c-1.23,1.37-4-.17-5.42,1.5a2.89,2.89,0,0,0-.61,1.81,4.26,4.26,0,0,0,2,3c1.21,1,2.14,1.1,4.82,2,0,0,1.06.34,3.92,1.36,6.61,2.35,7.27,4.76,10.85,4.67a20,20,0,0,0,4.52-.6c1.4-.39,1.66-.67,2.42-.6,1.54.14,1.87,1.48,3.91,3.16a18.89,18.89,0,0,0,5.43,2.86c2.25.92,2.23.6,3.92,1.36,3,1.37,3,2.37,5.27,3.17,1,.33,2.51.38,5.58.45,3.56.08,3.57-.1,6,0,3.82.16,3.93.61,6.94.6,3.52,0,3.73-.64,5.27-.15,2.69.85,4.16,3.43,5.13,5.12s.7,1.87,2.26,6c2,5.3,2.34,4.9,2.41,6.33.16,3.46-2,4.71-1.21,8a8.13,8.13,0,0,0,1.36,2.86c1.14,1.59,2.18,1.86,4.52,3.62a34.38,34.38,0,0,1,3.77,3.31c1.91,1.91,1.57,2,3.91,4.52s2.94,2.79,3,3.92c.07.95-.38,1.56-1.66,3.47-.45.67-2.49,3.72-3.62,5.57-2.21,3.64-2.52,5.27-4.22,5.73-.73.2-.71-.1-2.41,0-2,.12-2.45.56-4.52.91-2.86.47-3.83-.07-4.22.6-.28.49.12,1,1.81,4.22,1.31,2.47,1.14,2.29,1.81,3.46,1.46,2.55,1.82,2.66,2.11,3.62s.31,2.34-.91,5.27c-1,2.49-2,3.8-6.17,9.8-2.6,3.7-3.06,4.36-4.22,5.27-1.39,1.09-2.28,1.37-4.37,3-1.9,1.5-1.81,1.78-3.32,3-4.07,3.34-5.69,2.05-8.14,4.82-1.29,1.47-1.77,2.88-3.46,3.32a15.4,15.4,0,0,1-2.41.15,33,33,0,0,0-3.62.45c-2.58.4-5.21.1-8.74-.3-4.28-.48-6.18-1.11-7.08,0-.37.46-.14.67-.61,2.41a14.24,14.24,0,0,1-1.5,3.77,20.56,20.56,0,0,1-3.17,3.16c-.9.83-1.12,1-1.35.91-.65-.19-.5-1.79-1.06-5.28-.39-2.39-.73-3.3-1.51-3.91a5,5,0,0,0-1.65-.76,15,15,0,0,0-3.17-.6c-3.31-.48-4.28-2.32-5.57-1.66-.59.3-.81.89-1.21,2a10.54,10.54,0,0,0-.6,4.52c.37,4.49.62,7.48,2,11.61a7,7,0,0,1,.45,4.07,5.61,5.61,0,0,1-2,3c-1.4,1-2.39.58-3.32,1.36-1.31,1.09-1.39,3.62-.75,5.42,1.22,3.41,4.51,2.53,6.93,6.63.8,1.36.63,1.77,2.41,5.28,1.05,2.05,1.14,2,1.66,3.16a37.29,37.29,0,0,1,1.81,6.18c.83,3.17.93,2.89,1.36,4.67s1.72,7.52,0,13.26a12.22,12.22,0,0,1-1.51,3.32A8.07,8.07,0,0,1,2331,887c-1.82.87-2.61,0-5.87.76-1.47.34-2.2.52-2.72,1.05-1.17,1.21-.46,2.73-.75,6.48-.07.89-.07.3-.9,5.27s-.78,5.22-1.21,6c-1.07,2-2.08,1.9-3.31,4.37a8,8,0,0,0-1.06,3.62,7.41,7.41,0,0,0,1.51,4.52,6.81,6.81,0,0,0,2.71,2.26c2.59,1.13,4-.51,6,.45,1.3.63,1.87,2.08,3,5,1.28,3.24,1.94,4.91,1.51,6.93-.68,3.17-3.36,4-2.86,5.88.42,1.56,2.71,2.2,3.46,2.41,1.92.53,2.71-.06,7.08-.46a33.1,33.1,0,0,1,5-.15c2.28.15,3.42.22,4.67.91a6.93,6.93,0,0,1,3.47,4.82,4.19,4.19,0,0,1-.31,2.71,4.13,4.13,0,0,1-2.11,1.81c-2.62,1.22-4.13-.23-5.27.76s.35,3.1-.9,6.47a7,7,0,0,1-2.42,3.47c-1.5,1-2.46.54-4.37,1.51a8.79,8.79,0,0,0-3.31,3,8.21,8.21,0,0,0-.45,8c.73,1.31,2.64,2.38,6.48,4.52l4.52,2.56c2.44,1.37,3.45,1.93,3.92,3.17a4,4,0,0,1-.15,3c-.53,1-1.48,1.46-5.73,2.41-4.4,1-7.69,1.51-7.69,1.51-2.9.46-3.38.43-4.52.9a8.68,8.68,0,0,0-4.52,3.77c-.38.72-1.22,2.3-.6,3.16.37.52,1.07.49,5.27.61a9.74,9.74,0,0,1,2.26.15c1.77.48,2.7,1.82,3.77,3.16,2.05,2.57,1.43,1.14,7.08,7.69,1.41,1.63,2.32,2.73,2,3.46-.27.56-1.12.64-2.26.76-6.36.67-2.59.62-6.18.75-5.52.2-8.31.29-9.34-.3-1.4-.8-2.26-2-3.47-1.66-.85.22-.95.93-2.26,1.66a4.66,4.66,0,0,1-2.86.75c-1.81-.32-1.64-2.57-3.77-4.06-.63-.45-2.34-.66-5.72-1.06-4.23-.5-5.3-.38-6.18.3s-.7,1.53-1.51,2c-2.26,1.21-5.67-3.95-8.44-3-2.21.75-1.34,4.51-4.07,5.87-1.65.83-2.4-.34-6.93-.6-4.17-.23-5.53.65-6.63-.45-1.63-1.64-.1-5.08-1-5.43-.65-.23-1.9,1.12-2.57,2.57-.83,1.8-.53,3.29-.45,5.42a20.49,20.49,0,0,1-.6,7.08c-1.58,4.86-6.33,7.53-6.63,7.69-1.88,1-2.57.79-4.37,2.11-1.49,1.09-1.52,1.61-3.92,4.22a24.3,24.3,0,0,1-5,4.52c-1.79,1.14-2.79,1.78-4.22,1.81-2.81.05-4-2.3-5.43-1.66-.69.31-.74,1-1.81,4.82,0,0-.16.59-1.2,4.07-1.17,3.89-1.76,5.86-2.41,6.63-1.31,1.55-2,.91-5.13,3.17a26.33,26.33,0,0,0-4.37,3.91c-2,2.27-1.9,3-3.92,5.28a30.36,30.36,0,0,1-3.76,3.47,37.87,37.87,0,0,1-7.39,5.27c-3.78,1.91-4.54,1.11-6.93,3-1.58,1.26-1.45,1.77-4.07,4.07-1.72,1.52-2,1.49-3.92,3.17-2.94,2.56-2.67,3-3.91,3.61-1.68.9-2.43.33-7.54.31a43.38,43.38,0,0,0-8.14.75c-2.36.44-3.46.86-4.22,1.81s-.86,2.32-.9,3.92c-.18,7.08-.69,2.9-.45,8,.5,10.72,1.93,11.44,1.5,17.33s-2,7.14-.9,11c.47,1.64,1.23,3.1,2.41,7.09.94,3.17.73,3.15,1.21,4.52,1.16,3.33,2.74,4.32,8.59,11.15,3.39,4,3.92,4.87,4.37,5.88.55,1.25,2.15,4.83,1.05,8.74a35.91,35.91,0,0,1-2.41,4.82c-1,1.88-1.31,2.26-1.81,2.41-1.23.38-2.35-1-5.12-3.16a60,60,0,0,0-5.58-3.77c-4.09-2.58-4.18-2-6.63-3.77-3.46-2.5-3.19-3.58-6-5.12-2.47-1.35-3.15-.77-6.33-2-3.53-1.32-3.37-2.29-8.28-5.13-3.88-2.24-4.05-1.68-9.65-4.67-4.44-2.36-4.41-2.76-6.33-3.31-2.56-.74-4.87-.55-9.49-.15a69,69,0,0,0-9.5,1.5c-3.91.9-5.87,1.35-8,2.57-1.67.95-1.43,1.16-5.43,4.06-4.18,3-5.28,3.43-6,3.62-1.84.48-2.8.13-6.17-.3-7.54-1-7.62.16-12.06-.9-3.81-.92-3.59-1.71-8-2.72-2.27-.52-7.87-1.8-9,.15-.6,1,.53,2,.3,5.28a5.12,5.12,0,0,1-.75,3c-.57.76-1.22.91-4.67,1.81-3.87,1-4.32,1.15-5.13.9-1.56-.48-1.38-1.46-3.16-2.26a8,8,0,0,0-5.28-.15c-2,.55-2.61,1.43-4.52,2.57-4.77,2.83-7.11.84-10.09,3.46a8.84,8.84,0,0,0-2.87,5.73c-.15,4,3.4,4.81,3.17,8-.13,1.79-1.27,1.79-9,9.2a20.42,20.42,0,0,1-4.07,3.16,19.66,19.66,0,0,1-4.67,2c-2.41.66-4.08,1.12-6.18.6a9,9,0,0,1-5-3.31c-1.22-1.73-.71-2.55-2-4.67a12.88,12.88,0,0,0-3.61-3.77,28.28,28.28,0,0,0-7.69-4.22c-5-1.9-11-4.16-18.23-3.16-.49.06-3.49.74-9.5,2.11a50.18,50.18,0,0,1-7.23,1.35c-4,.35-4.66-.31-7.69-.15-5.44.29-5.59,2.55-11.9,3.77a35.24,35.24,0,0,1-11.15.15,52.54,52.54,0,0,1-8.59-1.81c-4.85-1.3-7.28-1.95-9-3.31-1.51-1.17-2.29-2.27-4.37-3a8.47,8.47,0,0,0-4.37-.45,12.62,12.62,0,0,0-3.17,1.2c-2.48,1.16-2.36,1.46-3.16,1.66-2.76.71-4.06-2.8-8-3.31a10.13,10.13,0,0,0-6.33,1.65c-3.71,2.18-3.51,4.81-6,5.13-1.07.13-1.13-.34-6.18-1.81a21.2,21.2,0,0,0-2.86-.75c-4.18-.21-7.61,4.33-8.44,5.42s-.57,1-3.46,6.48a63,63,0,0,1-3.47,6.18c-1.1,1.53-4.6,6.44-6.78,5.73-.36-.12-.91-.47-3.17-8-.76-2.54-1.06-3.72-2.26-4.52a4.19,4.19,0,0,0-4.52-.15c-1.28.93-.52,2.17-1.66,3.77-1.67,2.33-4.27,1-7.08,3.61-1.68,1.54-1.3,2.5-2.71,3.17-2,.92-3.71-.42-6.48-1.06-3-.68-7.35-.64-10.1,1.21-3.27,2.2-2.47,5.77-5.57,13.71-2.17,5.54-3,7.19-4.37,8.74a22.7,22.7,0,0,0-2.57,3.32c-1.06,1.71-2,3.29-2.11,5.27-.06,2.35,1.28,2.37,1.51,5,.2,2.25-.62,4-2,6.94a12.21,12.21,0,0,1-2,3.16,13,13,0,0,1-2.26,2c-2.45,1.63-5.13,1.08-11.75,1.21-4.6.08-5.77.38-6.48.6a12.55,12.55,0,0,0-5.43,2.71c-1,1-1.34,1.69-2.41,2a4.48,4.48,0,0,1-3.62-.9c-1.1-.87-1.23-1.85-1.8-1.81-.26,0-.74.24-1.36,2.26-1,3.23-.15,3.93-.9,5.88-.89,2.28-2.24,1.85-3.32,4.52-.79,1.94-.3,2.76-1.21,3.61-1.42,1.35-3.29-.06-4.52,1.06-1.78,1.62.92,5.74-1,7.68-.33.33-1.23.53-3,.91-3.26.69-4,.54-6.33,1-3.1.7-2.72,1.21-5,1.51-2.95.39-3.64-.47-5.42.3s-1.4,1.63-3.47,3.17c-2.42,1.79-3.43,1-5.42,2.56-.28.21-3.17,2.49-3.32,5.72s2.37,3.84,2.11,6.94c-.14,1.75-.94,1.43-2.26,4.82s-.93,4.77-2.56,6.78c-.61.75-1.57,1.94-2.86,2s-2.57-1.41-3.77-3.32c-3-4.81-3.37-7.82-5.88-13s-4-5.8-4.52-6c-2.92-1.17-6.57.37-7.08.6-1.56.68-1.52,1.09-2.87,1.66-2,.86-3.8.63-7.68,0-5.91-1-8.88-1.45-9.95-2.11-1.36-.85-4.29-2.66-5-5.73-.38-1.71.16-2.77-.75-4.07-.81-1.13-2.05-1.49-3.77-2a17.93,17.93,0,0,0-6.93-.45,19.13,19.13,0,0,0-6,1.81c-2.91,1.46-2.91,2.46-5.13,3.16-1.53.49-1.91.13-6,0-4.89-.15-5.15.33-8.59,0a52.13,52.13,0,0,1-6-1.05c-5.11-1.06-6.22-1.68-8.44-1.21s-1.84,1.17-4.22,1.81c-3,.81-5.63.26-8.14-.3-4.32-1-3.78-1.83-7.23-2.41-1.86-.31-5.63-1-9,.9-1.7.92-1.65,1.56-3.17,2.11-3.23,1.18-6.62-.58-7.23-.9-2.88-1.5-4.62-4.54-8-10.55-2.9-5.18-3.84-7.81-6.93-9.19a35.2,35.2,0,0,0-3.77-.91c-6.79-1.59-6.86-1.8-9-2.11-.14,0-2.31-.16-6.63-.45a27.25,27.25,0,0,0-4.82-.15c-2.72.27-3.26,1-5.58,1.21a13.6,13.6,0,0,1-5.42-.61c-3.87-1.19-3.53-3.11-8.14-5.72-3.68-2.09-4.79-1.37-7.84-3.77-1.47-1.16-1.88-1.86-3.46-2.71-2.33-1.26-4-1.15-6-1.51-5.93-1.07-5.78-4.6-10.85-5.28-2.1-.28-4.37.32-8.89,1.51s-4.85,1.92-7.69,2.11c-3.42.23-4-.73-7.38-.15a30.62,30.62,0,0,0-5.43,1.66c-3.93,1.44-4,2-5.12,1.81-2.79-.36-2.71-3.62-6-4.67-2.33-.74-3.07.64-6.18-.16-2.26-.58-2.33-1.44-4.37-2.11-2.9-.95-4.11.35-8.44.61-3.3.2-5.78-.37-9.49-1.21-2.77-.63-2.82-.88-7.69-2.26-6.64-1.87-6-1.25-8.14-2.11-5.95-2.43-5.83-5.41-10.69-6.33a14.38,14.38,0,0,0-7.39.45c-2.59.92-2.89,2-4.82,2.11-2.53.15-3-1.65-6.93-2.86a19.63,19.63,0,0,0-6.48-.75c-4,.13-4.82,1.3-6.33.45-1.76-1-1.17-2.86-3.77-5.27a6.48,6.48,0,0,0-2.71-1.81c-2.64-.75-4.15,1.39-8,2-.91.13-1,0-5.12-.31-8.24-.7-8.11-.38-10.85-.9-4.06-.77-7-1.36-8.44-3.62a11.75,11.75,0,0,0-1.66-2.26c-.75-.76-2.09-2.11-3.92-2.11a4.59,4.59,0,0,0-2.56.91c-2,1.37-1.65,3-3,4.22-1.66,1.48-3.23,0-8.29.6a16.7,16.7,0,0,0-7.54,2.41c-2,1.3-1.83,2.65-3.31,3s-2.28-.71-6.18-2.26a17.55,17.55,0,0,0-5.43-1.5,13.73,13.73,0,0,0-5.12.6c-4.06,1.28-4.36,3.48-6.78,3.77-2.09.24-3.24-1.23-7.84-5a114.46,114.46,0,0,0-10.55-7.68,45.35,45.35,0,0,0-10.09-5.12c-4.32-1.49-5.31-1-11.46-2.87-4.81-1.48-4.54-1.9-7.53-2.56-1.2-.26-4.39-.89-11.61-.45-6.91.42-7.29,1.19-11.75,1.35s-5.91-.56-14.32-2-14.71-1.95-18.23-2.27c-8.35-.74-12.53-1.12-17.48-1.2-8-.14-12.45.38-15.07-2.71-1.29-1.53-1.26-2.88-3.47-5.58a23.06,23.06,0,0,0-5.12-4.52c-2.73-1.89-4.09-2.83-6.18-3.16-2.89-.46-3.53.83-6.18.15s-2.67-2.19-4.82-2.42c-1.65-.17-3.28.79-6.48,2.72-3.61,2.17-3.41,2.67-4.37,2.71-3.4.14-4.18-6.13-9.65-9-2.15-1.15-3.55-1-9-1.21-12.74-.52-11.16-1.45-16.73-1.35-10.29.18-11.34,2.72-18.53,1.35a26,26,0,0,1-10.1-3.61c-2-1.34-2.88-2.38-5.57-3.77a28,28,0,0,0-6.94-2.41c-6.44-1.54-7.57-.27-11.75-1.81-2.1-.77-1.17-.85-6.78-4.07-6-3.45-7.08-3.35-10.1-5.73s-2.39-2.77-5.27-4.82c-3.79-2.69-5.29-2.3-7.09-4.37-1.43-1.65-1-2.55-2.41-8.14-1.57-6.37-2-4.69-4.07-12.2-.77-2.75-1.35-5.25-3.61-7.09a9.4,9.4,0,0,0-2.72-1.5c-2.39-.93-3.56-.49-8-.76-2.88-.17-4.35-.27-6-.9A11.37,11.37,0,0,1,927,1119c-2.88-3-2.87-7.09-2.86-9.5,0-2.65,0-5.54,2-7.68,1.5-1.66,2.89-1.48,3.91-3.17,1.18-1.95.62-4.33.15-6-3.2-11.55-4.93-17.78-11.15-20.64-.3-.14-7.71-3.45-11.75-.3-1.57,1.21-2,2.92-3.77,3.16-2.22.31-4.27-2-5-2.86s-1.11-1.47-3.47-6.93c-1.37-3.19-1.53-3.68-2.26-4.37-.89-.85-2-1.41-5.42-2.11-5.6-1.15-8-.77-8.29-1.66-.33-1.18,3.91-2,5.72-5.73s0-8-.15-8.44c-2.18-5-6.45-4-10.55-9.79a16.61,16.61,0,0,1-3.46-8.74c-.23-4.13,1.66-5.42.75-9.65-.52-2.4-1.49-3.65-.75-5.27.58-1.29,1.89-2,3.31-2.87a21.84,21.84,0,0,1,3.62-1.5,27.75,27.75,0,0,1,4.37-1.36,25.75,25.75,0,0,1,4.82-.15c4.41.06,5.35.26,6.78-.45a26.53,26.53,0,0,0,2.26-1.66c3-2.15,3.2-2,3.92-2.71s1-1.28,2.72-6.93c1.41-4.65,1.58-5.31,2.41-6.33,1.24-1.53,1.92-1.36,3.16-3,.66-.88,2.51-3.35,1.81-5.42-.57-1.69-2.69-2.38-6.93-3.77a30.32,30.32,0,0,0-19.74-.3c-2.89.84-2.17,1-8.9,3.62-1.79.69-5.17,2-9.34,3.31-5.5,1.75-10,2.77-13.71,3.62-6.41,1.45-7.34,1.36-11.15,2.56a83,83,0,0,0-8.44,3.32c-8.6,3.61-8.83,2.82-17.18,6.17a97.9,97.9,0,0,0-16.28,7.84c-1.59,1-.88.62-8.89,5.88a124.67,124.67,0,0,1-10.7,6.48c-3.69,1.95-5.57,2.93-7.08,3-3.84.21-5-2-10-1.81-3.45.15-5,1.31-5.42,1.66a7.4,7.4,0,0,0-2.41,3.62c-.74,2.6.62,3.85-.46,5.72a4.67,4.67,0,0,1-2.41,2c-1.6.65-2.7-.08-5.57-.75-4.7-1.09-5.48-.11-6.93-1.36-.91-.78-.52-1.09-2.57-5-1.61-3.07-2.2-3.53-2.56-3.77-1.46-1-2.94-.68-5.12-.6a37.3,37.3,0,0,1-8.14-.75c-4.31-.72-6.47-1.07-8.29-2.72-1.67-1.51-1.64-2.7-4.07-4.67A9.19,9.19,0,0,0,704,1008c-2.66-.65-5.07.58-7.69,2-2.45,1.29-2.3,1.68-5,3.32-.78.47-1.64,1-9.35,4.22-4.31,1.82-5.35,2.22-7.08,2.26a7.9,7.9,0,0,1-5.12-1.21c-2-1.47-1.33-3.06-3.32-5.12a10,10,0,0,0-5.57-2.71c-1.19-.24-5-1-7.84,1-1.69,1.21-1.16,2-4.07,5.73-1.29,1.64-1.42,1.51-3.46,3.91-3.08,3.63-2.81,4-4.07,5.13-3.29,3-7.75,3.24-9.35,3.31-1.77.08-6.07.27-9.49-2.41-2.58-2-2.26-3.79-5-5.42-1.1-.66-2.06-.92-6.63-1.36-6.38-.62-9.56-.92-12.51-.6a39.75,39.75,0,0,0-8,1.81c-4.78,1.44-5.47,2.27-13.26,5.42s-10.08,3.52-11.91,3.62c-2.21.12-5.8,0-6.18,0-5.46-.18-6.49-.67-7.68,0-3.15,1.76,1.3,9.33-2,12-1.11.93-2.08.55-3.77,2.11-1.35,1.26-1.37,2.12-2.71,3.17a7.9,7.9,0,0,1-3.77,1.51c-3.75.55-4.9-1.88-7.08-1.21-1.76.54-2.78,3.52-4.82,9.49a31.79,31.79,0,0,0-1.81,6.48c-.4,3.17.14,4.38-.6,6.94-.46,1.57-.86,1.79-2.72,5-2.92,5-4.39,7.59-4.52,10.55a16.26,16.26,0,0,0,.91,5.42c1.38,5,3.26,6,2.71,8.29-.29,1.22-1.7,2.37-4.52,4.67s-3.48,2.36-5.88,4.37c-2.93,2.47-4.4,3.71-5.27,5.73s-.44,3-1.81,6.93a11.27,11.27,0,0,1-1.36,3.17c-.54.67-2,2.16-8.89,2.56a71.55,71.55,0,0,1-10.1-.3c-5.34-.4-4.65-.58-6.93-.61s-2,.19-11.45,1.21a21.73,21.73,0,0,0-5.43,1.06c-2.51.88-2.44,1.46-3.76,1.65-1,.15-2.66,0-8.89-4.82-3.7-2.88-4-3.51-5.58-3.92-3.06-.77-3.78,1.09-7.08.61-3.78-.56-6.75-3.57-8.29-5.13-2.06-2.08-2.13-3-3.62-3.46-2.75-.85-5.82,1.29-6.78,2-2.67,1.86-2.43,3.17-4.52,4.07-2.6,1.13-6.3.54-7.08-1.2-.63-1.4.76-3.26,3.16-6.48,2.85-3.82,3.89-3.81,4.67-6a9.46,9.46,0,0,0-4.22-11.3c-2.25-1.52-3.59-1.43-7.08-2.71-3.16-1.17-4.73-1.75-6-2.87-3.15-2.74-1.73-5.38-4.67-9.64-.31-.45-4.44-6.31-8.74-5.73-3.09.42-2.69,3.68-7.23,5.73-1,.44-.72.16-9,1.81a38.49,38.49,0,0,0-5.13,1.2,21.46,21.46,0,0,0-6,2.86c-3.8,2.78-3.18,5.12-5.57,6-2.76,1.05-4.16-1.82-10-3.46-4.62-1.32-5.26.08-13.56-1.36-4.6-.8-6.18-1.53-7.39-2.86-1.64-1.83-2.06-4.2-2.41-6.18a17.16,17.16,0,0,1,0-6c.27-1.36.62-2.17,2.11-5.43,3-6.48,2.92-6.18,3.32-7.23,1.16-3.11,2-5.43,1.81-8.44a13.43,13.43,0,0,0-3-7.68c-4.12-4.7-8.57-1.35-13.41-5.88a29.39,29.39,0,0,1-6.48-10.7,11,11,0,0,0-1.81-3.62,18.56,18.56,0,0,0-3.61-3.16c-3.3-2.61-2.89-2.79-4.07-3.47-2.63-1.51-5.46-1.09-8.74-.6-4.25.63-7,1-8.9,3.16-2.18,2.4-.79,4.16-2.71,10.25-1.65,5.26-2.86,4.52-4.22,9.5-1.18,4.32-.66,6.34-2.71,9.19a9.16,9.16,0,0,1-4.07,3.46c-1.39.55-3.33.81-9.79-1.35-6.85-2.29-8.2-3.75-10-2.87-.44.23-1.85,1.08-2.86,8a80.31,80.31,0,0,0-.61,12.36c0,9.65,0,11.85-1.8,13.26-1.93,1.52-5.52,1.76-6.18,1.81-2.06.14-2.68-.27-4.37.15-2.16.54-3,1.65-4.67,2.71-1.51.93-3.69,1.29-8,2-6.05,1-5.76.39-10.85,1.21-4.79.76-5.73,1.36-7.39.6-2.51-1.16-2.29-3.42-5-5s-4.18-.13-7.08-.76c-4.64-1-5.25-5.55-12.21-14-3.78-4.6-5.67-6.89-8.44-8.44-4.77-2.67-7.89-1.77-16.12-4.07-3.81-1.06-5.33-2.64-9.5-3.47-3.68-.73-4.05-.12-6.93-.9a18.44,18.44,0,0,1-9.94-6.33,17.64,17.64,0,0,1-3.32-7.53,15.74,15.74,0,0,1,.15-8.59c1.77-5.11,6-6.17,5.73-10.1-.07-1-.32-.78-1.06-3-2-6-.33-8.11-2.26-10.7-1.48-2-4.29-3.25-6.48-2.72s-2.41,2.66-4.37,3.62c-3,1.45-6.58-1.42-11.6-4.37a104.38,104.38,0,0,0-21.1-9c-5.27-1.73-7.19-1.89-11.3-3.92a68.46,68.46,0,0,0-7.54-3.47A40.21,40.21,0,0,0,48.42,985C44,983.9,39.81,982.9,37,985c-2,1.43-1.71,3.18-3.47,3.61-2.15.54-4.5-1.58-5.58-3-1.33-1.78-2.42-4.79-1.35-7.39,1.39-3.39,5-2.61,7.23-6.48a10.08,10.08,0,0,0,.91-6.93C33.88,961,29.54,960,30,958.15c.28-1,1.56-.84,2.87-2.41a7.41,7.41,0,0,0,1.5-4.22c.36-3.41-1.57-8.52-5.87-12.51-5.64-5.21-10.4-3.89-13.57-9.34a7.73,7.73,0,0,1-1.35-5.27c.44-2.38,2.2-2.73,3.16-5.73a8.32,8.32,0,0,0,0-5.58c-.9-2.14-2.31-2-3.92-3.92-2.09-2.53-2.15-5.81-2.26-12-.07-4.26.4-5-.45-6.63s-2.09-2.32-5.27-5C.69,882,.41,881.92.2,881.3c-1.14-3.29,2.9-7.56,5.72-10.55,4.33-4.59,6-4.24,9-8.29A26.87,26.87,0,0,0,19.18,854c1.71-5.95-.18-7.73,2-11.45,1.42-2.46,3.47-3.81,6.63-5.88a29.21,29.21,0,0,1,7.39-3.62C41.67,831,44,833,46,831c1.65-1.72.77-3.93.15-12.81-.49-7,0-6-.45-11.15-.88-9.41-1.32-14.11-4.37-16.42-2.65-2-4.32-.44-10.7-3a36.33,36.33,0,0,1-6.94-3.77c-6-4-10.52-7-11.45-12.2a12.22,12.22,0,0,1,2.41-9.5c2-2.53,3.86-2.39,13.11-5.42,9.78-3.2,10.72-4.33,14-3.77,2.83.48,3.36,1.51,8.59,2.71,3.84.89,5.76,1.33,7.68.91,4.9-1.07,7.77-5.93,9.35-8.59,2.33-3.95,1.26-4.46,3.91-9.35a93.55,93.55,0,0,1,6.33-8.89c4.1-5.42,4.83-6.05,5.88-6.63s5.27-2.67,9.34-.75a8,8,0,0,1,3.62,3.16c2.17,3.75-1,6.42-.3,11.46,1.1,7.45,9.58,11.53,11.6,12.5s3.76,1.78,5.28,1.06c3.24-1.54,1.89-8.27,4.07-8.89s3.76,6,10.24,8.44a13.9,13.9,0,0,0,7.39.75c3.93-.75,5.07-3,6.93-2.41,2.23.75,1.18,4.25,3.92,8.89s5.37,3.85,7.68,8.44c2.08,4.12.74,6.31,2.72,7.53,2.37,1.48,4.66-1.46,10.55-.75a10.92,10.92,0,0,1,5.57,2c1.55,1.16,1.72,2.09,3.62,4.82a29.84,29.84,0,0,0,5.27,6.18c3.5,2.91,4.93,1.75,7.24,4.07a11.22,11.22,0,0,1,2.86,10.25c-1.22,4.38-5.07,4.06-7.38,9.49-.53,1.23-2,4.74-.91,8.44s3.83,4,4.52,7.69c.63,3.36-1.33,4.7-.15,6.78,1.41,2.48,5.8,3.35,7.24,2,1.18-1.15.05-3.55,1.35-4.37.58-.37,1.2-.15,2.41.15a62.69,62.69,0,0,0,7.84,1.05,23.73,23.73,0,0,0,4.37.15c1.94-.12,2.9-.19,3.62-.75,1.75-1.39.22-3.82,1.65-5.88s4.36-2,9.35-2.11c1.7,0,3.79.38,8,1.21a3.79,3.79,0,0,1,2.57,1.2c.17.24.71,1.1-.15,4.68a20.5,20.5,0,0,1-1.66,4.82c-.9,1.77-1.57,2.46-3.62,5.12-2.81,3.65-4.21,5.47-5,7.23-1,2.22-1.88,4.34-1.21,6.64.78,2.66,2.86,2.74,3.77,5.72.15.48,1,3.25-.3,5.43-1.75,2.94-5.42,1.46-8.29,4.52-1.95,2.07-2.94,5.61-1.66,7.83.57,1,1.95,2.37,7.24,2.72,4.12.27,10.09-.12,22-5.13a96.39,96.39,0,0,0,13.71-6.78A69.42,69.42,0,0,0,275.82,856c7.61-7.94,5.12-10.44,13.72-21,5.78-7.07,7.64-6.84,12.5-14a81,81,0,0,0,7.39-13.87,56.7,56.7,0,0,0,3.92-11.9c.78-4.07,3.08-16.08-2.26-19.9-2.72-1.93-5.23-.21-7.24-2.56s-1.26-6.67-.6-9.94c.7-3.45,1.37-3.24,2.56-8s.39-4.67,1.51-7.69c1-2.75,2.27-4.44,1.66-6.78a7.76,7.76,0,0,0-1.06-2.11c-1.82-3-3.35-3.5-4.52-5.27s-1.91-5-.9-6.93c2.53-4.9,15.77-3,16.42-.15.11.49-.2.75-3.16,4.22-3.75,4.38-4.64,5.61-4.67,7.23a6.1,6.1,0,0,0,1.35,3.62c3,4.34,8.71,5.46,18.39,7.23,1.36.25,4.68.83,9,1.2,6.17.54,9.25.8,10.7-.15,4.62-3,1.12-11,6.18-15.22,2-1.65,4.19-1.75,8.29-2,7.36-.36,7.85,2.48,19.89,4.83,3.37.66,5.66.89,7.23,2.86,1.69,2.12,1.09,4.38,3.32,6,1,.75,2.08.95,4.22,1.35,2.71.52,3.78.2,5.42.46a11.68,11.68,0,0,1,6.63,3.91C415,755.19,413.3,758,416,760c3.55,2.66,9.59-.06,10.1-.3,3.16-1.47,2.69-2.78,6.78-5.72a24.47,24.47,0,0,1,11-4.68,17.6,17.6,0,0,1,6.78.15c1.9.45,4.11,1.82,8.44,4.53s4.79,3.22,5,4.06c.5,2.29-1.82,5-3.91,6.33-4.38,2.89-8.27.53-10.55,3.32a5.67,5.67,0,0,0-.61,5.73c1.27,2.66,4.71,3.2,6.33,3.46,2,.32,3.14,0,9.2-1.05,6.44-1.15,7.67-1.26,8.44-.46,1.23,1.3-.5,3.1-.16,6.79a15.81,15.81,0,0,0,7,11c2.17,1.37,3.89,1.57,5.5,3.77a9.86,9.86,0,0,1,1.66,3.92,11,11,0,0,1-.45,5.43c-1.6,4.77-5.13,5.46-5,7.23.11,1.25,2.07,3.32,23.81,5.73,15.75,1.74,19.84,1.22,23.81-.91,2.43-1.3,2-1.7,8.59-6.33,6.13-4.31,9.19-6.46,13-8.13,3-1.36,12.75-5.52,20.94-2,.59.25,4.21,1.87,4.07,3.61-.12,1.44-2.66,1.49-4.52,4.07-1.18,1.65-2.13,4.37-1.05,6.18.83,1.4,2.54,1.7,5.12,2.11,3.35.54,6.81,1.09,10.1-.45,2-.93,2.62-2,6.78-8,5.91-8.5,7.37-10.24,8.59-11.6,3.87-4.31,6.15-6.78,9.49-6.93,1.95-.09,2.67.69,7.08,1.5,1.19.22,1.77.27,6.64.76,6.36.63,9.56.94,10.24.15,1.35-1.56.53-5.13-1.2-7.24-2.07-2.51-4.57-1.89-6.18-4.37a7.75,7.75,0,0,1-.75-5.57c1-6.36,8.48-9.7,10.69-10.7,4.13-1.87,7.43-2.13,13.87-2.56,6.79-.46,9.31.09,21.1-.15,6.09-.13,7.73-.33,9.79-1.21a20.22,20.22,0,0,0,9.65-9.49c2.35-5,3-12.13,2.86-15.68a10.51,10.51,0,0,1,.45-3.76,12.07,12.07,0,0,1,3-4.68,25.36,25.36,0,0,1,4.52-3.61c4-2.72,6-4.08,7.83-3.92,2,.18,2.4,1.44,4.67,2.41s3.61.26,9.8-.45c3.43-.39,5.15-.59,6.63-.6,4.66-.05,7.78,1.16,10.55,2,3.1.89,2.51.34,18.08,1.65,12.83,1.08,16.15,1.7,17.94-.6,1.6-2.06.39-4.43,3-7.69a12,12,0,0,1,4.37-3.31,14.47,14.47,0,0,1,7.84-.75c2.43.23,7.15-.65,16.57-2.42,8.06-1.5,12.09-2.25,14.32-3.16,4.24-1.73,7.43-3.85,9.8-2.41,1.68,1,1.26,2.81,3.46,4.22,2,1.29,4.33,1.06,5.88.9,4-.39,4.27-2.06,7.38-2.41,2.78-.31,3,1,9,2.56,1.46.39,3.94.81,8.89,1.66,6,1,6.11,1.32,7.38,1.21,1.8-.17,2.13-.57,8-2.11,3.24-.85,4.46-1.08,5-.46.84,1-1.2,3.18-.15,5a2.93,2.93,0,0,0,2.26,1.35c2.8.17,5-4.67,5.43-5.72a16.05,16.05,0,0,0,1.35-5.58c.09-1.5.07-4.67-2.71-10.85a67.72,67.72,0,0,0-4.22-7.68c-6.52-10.93-7.14-11.34-7.08-13.12.17-5.92,7.3-10.45,9.34-11.75,5.73-3.64,8.08-1.8,11.45-5.58,2.06-2.29,2.7-4.67,6.48-8,2.45-2.14,3.38-2.2,3.92-2.11,2.49.39,4.81,5.13,4.07,9.19-.95,5.21-6.29,5.81-6.78,10.85a7.94,7.94,0,0,0,3,7.08c2.23,1.53,4.93.93,10.1-.3,4.44-1.05,5-1.82,10.7-3.31,6.29-1.64,8-1.31,9.19-.61,1.58.91,1.89,2.12,4.07,3a10.13,10.13,0,0,0,4.52.6c3.23-.18,4.42-1.19,9.8-3.16s7-2,8-2c2,.08,3.87.07,5.28,1.35,2,1.84.77,4.22,2.26,8.89a23.41,23.41,0,0,0,3.46,6.48c2.71,4,3.93,4,6.94,8,3.45,4.63,2.39,5.38,4.52,6.93,4.57,3.34,11.66,1.52,13.06,1.16,2.29-.59,2.78-1.16,6.08-1.91,4-.91,4.61-.38,6.63-1,3.31-1.11,5.14-3.71,8-7.84,4.41-6.41,3.22-7.9,5.73-9.5,3.8-2.4,6.49,1,14.47.16,5.75-.64,5.43-2.55,13.11-3.62,3.54-.5,7-.94,11,.3a55.14,55.14,0,0,1,6.18,2.56c3.93,1.87,4.16,2.43,5.88,2.71,4.06.67,7.07-1.78,7.53-1,.25.4-.52,1.29-4.22,5.42-2.9,3.25-3,3.32-3,3.62-.4,3.3,7.55,4.69,14,12.66,1.91,2.36,4.17,5.22,3.62,8.44-.38,2.24-1.79,2.69-4.82,6.63s-5.09,6.6-5.28,10c-.24,4.23,2.51,7.56,4.22,9.64a23.29,23.29,0,0,0,9.34,6.63c5,2,6.67.92,11.16,3.32,1.74.92,3.19,2.19,6,4.67a132.87,132.87,0,0,1,10.85,10.7c4.79,5.28,5.37,6.63,8.44,8.74,2.53,1.73,4.86,1.16,7.09,3.46,2,2.14,2.37,4.44,3.46,4.37,1.56-.08,1.61-4.83,3.77-5.27,1.42-.29,2.95,1.45,4.07,2.71,1.9,2.16,1.64,3.27,3.62,5.43,1.32,1.44,2.18,2.38,3.31,2.41,2.1.06,3-3,6.63-8.14,4-5.67,5.52-5.62,6.78-9a17.73,17.73,0,0,0,.3-9.8c-.29-1-.89-2.59-1-3-1.41-3.72-2-3.76-2.11-5-.18-2.32,1.87-2.64,3.77-6.78a18.93,18.93,0,0,0,1.65-6.63,34.89,34.89,0,0,0-.45-5.58c-.63-5.26-1-6.52-.3-7.08,1.38-1.06,4.56,2,5.73,1s-1.38-3.72-.76-8a14.35,14.35,0,0,1,2.42-5.57c1.82-3,2.68-2.86,4.37-5.58a22.26,22.26,0,0,0,2.71-6.93c.7-2.92,1.21-5,.6-7.53s-1.77-2.65-3.16-5.58-.7-3.88-1.81-10.7c-.68-4.14-1-6.2-2.11-8.74s-2.43-5.59-5.43-7.38c-1-.61-1-.35-8.29-1.81-4.54-.91-5.34-1.17-6.78-.76s-1.93,1.06-5.12,3.32c-2.11,1.49-4,2.66-4.52,3a20.25,20.25,0,0,1-17.48,1.21,14.63,14.63,0,0,1-5.88-4.07c-.86-1-4-4.7-3.16-8.44.66-3,3.15-2.84,8-8.59,2.15-2.55,3.22-3.86,3.47-5.57.51-3.58-2.2-5.39-1.36-8.29.58-2,2.28-2.53,4.52-4.22,3.61-2.72,3.62-4.64,8.89-13,5.7-9,6.53-8.08,7.54-11.31,1.73-5.52.12-10.75-2.11-16.42-3-7.53-4.5-10.46-18.08-33.61-4.41-7.5-7-11.9-11.91-13.11-3.39-.83-6.61.17-8.89-2.26-1.1-1.17-1.45-3.21-2.11-7.23-.83-5.11-1.25-7.66-1.51-9.35-1.29-8.43-9.51-9-19.74-22.3-5.35-6.94-4.18-8.16-9-13-4.24-4.18-7.57-5.65-9.34-10.4-1.19-3.16-1-5.9-.76-8.89.33-4.32,1.84-11.88,5-12.36,1.39-.21,2,1.16,4.67,1.51,1.23.16,3.77.6,4.67-.6,1.07-1.42-1.39-3.49-.45-5.73.65-1.56,2.1-1.16,5.27-3.46,2.52-1.83,2.2-2.51,4.37-3.92,2.85-1.85,3.94-1,6.18-2.41,1.22-.75,2-1.7,5.12-8.14,3-6.16,2.89-6.7,4.53-9.34,3.51-5.68,5.86-6.43,6.93-6.63.66-.13.67,0,3.76.3,0,0,4.28.43,8.9.6,4.15.15,6.23.17,6.78,0s2.63-.9,5.57-4.07c2.75-3,3.63-5.21,5-7.38,2.27-3.66,3.14-2.68,14-11.61,4.26-3.5,5.9-5.1,9.65-7.38a55.59,55.59,0,0,1,6.32-3.32,206.55,206.55,0,0,0,21.86-4.67c9.09-2.47,10.54-3.55,17.63-4.82,6.11-1.1,8.58-.93,18.08-2.26,7.16-1,10.74-1.53,12.81-2.11,20.23-5.72,32.34-31.89,40.24-34.81a13.26,13.26,0,0,0,5.72-3.92,8.94,8.94,0,0,0,1.36-2.26,10.14,10.14,0,0,0,.6-4.82c-.09-1.79.36-2.22,2.72-8.74,2.12-5.9,3.18-8.85,3.31-10.55.25-3.36-.65-3.27-1-8.89a48.72,48.72,0,0,1,.45-11.31,44.17,44.17,0,0,1,2.41-8.89c1.47-3.71,2.49-4.63,3.92-8.29,2.22-5.67,2.29-6.87,2.11-7.68-.5-2.22-1.8-2.18-3.47-5.73-1.08-2.3-.51-2.27-1.81-5.72-1.5-4-2.61-5-2.26-7.09a5,5,0,0,1,1.81-3.16c1.68-1.21,3.82-.7,4.82-.45,3.16.75,3.3,2.49,5.28,2.86,3.87.72,10.15-4.65,11-10.4.33-2.25-.19-4.43,1.35-5.73a4.4,4.4,0,0,1,3.32-.75c2,.36,2.47,1.93,4.82,4.22a23.42,23.42,0,0,0,8.09,5,25,25,0,0,0,4.91,1.34,18.55,18.55,0,0,0,5.39.29c2.27-.24,2.51-.75,3.77-.75,2.83,0,4.71,2.58,6.63,4.52s1.45.78,11.15,6.63c7.4,4.47,11.09,6.7,13.56,9.19,1.9,1.92,2.78,3.23,5.12,4.67,1.71,1.05,6.24,4.29,8.9,2.72.66-.4.88-.9,2-3.62,2.07-5.22,3.1-7.85,3.17-8.44.5-4.25-1.43-5.21-.3-8.59.55-1.64,1.93-4.19,3.61-4.22,2,0,2.8,3.6,5,3.62,1,0,1.74-.69,3.31-2.71,3.8-4.89,5.72-7.37,6.63-11.46.55-2.44.32-3.63,1.36-6.63a26,26,0,0,1,1.81-4.07c2.42-4.34,4.11-4.24,4.82-6.93.8-3-.57-5.89-1.05-6.93-1.26-2.66-2.33-2.42-3.17-4.52-1-2.44,0-3.91.91-9.35a40.08,40.08,0,0,0,.75-8.74c-.28-5.61-2.21-9.25-1.06-9.94.94-.56,2.67,1.53,3.62.9s.7-2.84-.3-4.52c-2.1-3.53-6.73-2.08-8.44-4.82-.84-1.35-.18-2.44,2.71-10.55a97.3,97.3,0,0,1,6.18-14.47,9.11,9.11,0,0,1,2.71-3.46c3.36-2.41,7.87-1.25,9.2-.91,2,.5,3,1.17,8.28,4.82,9.35,6.5,10.55,7.6,11.76,8.9a50.77,50.77,0,0,1,5.27,7.23c3.34,5.08,4.46,7.9,7.39,8.59,1,.24,1-.1,4.22-.3,3.58-.22,6.3-.39,8.59.45s3.7,2.8,6.33,6.63c4.4,6.43,3.75,9,6.78,10.25a34.66,34.66,0,0,1,5.72,2.41c1.29.72,1.72,1.09,2,1.66.49,1.13-.17,2.17-1.35,5.27-1.34,3.49-.94,3.32-1.36,3.77-2.25,2.43-6.36-.38-9.79,2.11-1.09.79-2.65,2.5-2.42,4.22.33,2.42,3.89,2.51,8.44,6.78a26.15,26.15,0,0,1,3.62,4.22c3.54,5,2.63,7.1,5,9s4.12.43,10.4,1.51c6.58,1.13,6.34,3.14,11.91,3.92,5.93.82,6.48-1.41,13.41-.91,3.76.28,2.58.86,12,2.71,5.81,1.14,8.78,1.7,12.06,1.51,2.89-.17,3.63-.62,5.58-.15,2.26.55,4.07,2,7.68,5,1.8,1.47,2.15,1.91,4.82,4.07,2.29,1.86,3.21,2.49,3.77,2.87,2.73,1.82,4.1,2.73,5.88,2.71a6.89,6.89,0,0,0,4.22-1.66c1.69-1.49,1.13-2.64,2.71-5,.28-.42,3-4.38,6.33-4.22,1.62.08,1.75,1.08,3.92,1.35.55.07,3.32.43,4.67-1.05,1.65-1.81-.49-4.5.9-6s4.29.72,9-.3a10.93,10.93,0,0,0,5.87-3c2.43-2.65.92-4.58,3.17-10.1,1.77-4.34,3.45-5,3-7.23-.52-2.68-3.2-3.21-3.16-5.73a4.79,4.79,0,0,1,2.56-3.92c2.16-1.14,4.57-.08,5.42.3,1.43.64,3.17,1.84,7.84,9.5,2.67,4.37,2.72,5,4.07,5.87,2.08,1.35,3.79,1,8.29,1.81,4.82.84,4.68,1.49,6.78,1.66,8.39.69,12.55-8.85,17.63-6.93a12.77,12.77,0,0,1,5.88,5.88,6.8,6.8,0,0,0,1.66,2.56c1.53,1.35,3.2,1.18,4.67,1.5,4,.9,4.08,5,8.59,8.44,1.12.86,5.09,3.9,9,3.17,7.49-1.4,9.84-15.48,10-16.13,1.08-6.89-1.14-8.22-1.51-16.57-.25-5.65-.85-19,6.93-27.13,3.75-3.92,6.2-3.26,16.28-11.6a21.24,21.24,0,0,0,6.17-7.24,21.89,21.89,0,0,0,2-10.39c-.07-5-3.15-7-1.8-9.5.74-1.35,2.16-1.89,3.91-2.56,2.54-1,4.55-.94,7.84-.9,10.22.11,10.53.1,11.6.45,2.12.69,2.17,1.17,7.24,3.92a64.46,64.46,0,0,0,7.23,3.61,21.84,21.84,0,0,0,9.34,1.81c3.18-.18,6.75-.13,8.59-2.71a6.79,6.79,0,0,0,.91-5.13c-.54-2.2-2.25-3.58-3.77-4.82-2.34-1.89-3.44-1.74-3.77-2.86-.5-1.72,1.78-3.12,3.47-6,.48-.83,1.49-2.77,2-8.74,1.07-13.59-3-18,.45-24.11,1.43-2.53,2.5-2.44,4.37-6a21.82,21.82,0,0,0,2.71-10.1c0-2.54-.47-4.42-1.35-7.83-.84-3.21-1.55-4.77-2.11-6.48-1.67-5-1.21-10.4-.3-21.1a45.51,45.51,0,0,1,1.2-8.29,30.32,30.32,0,0,1,3.77-9c2.28-3.58,4.49-7,8.29-7.84,3.63-.76,7,1.29,9.79,3,4.45,2.72,4.82,4.94,8.89,6.63,1.72.71,3.53.88,7.09,1.2,10.54,1,14-.68,18.08,2.11a9.78,9.78,0,0,1,3.62,4.22c1,2.41-.06,3.1.15,8,.22,5.15,1.5,6.53.3,9.19-.43,1-1,1.65-.75,2.56.42,1.67,3,2.34,3.91,2.57,3.44.87,9,.72,11.31-2.57,1-1.46.67-2.53,2.11-3.76a7.5,7.5,0,0,1,4.22-1.51,12.75,12.75,0,0,1,5.42.45c2.5.78,2.59,1.67,4.37,1.81a6.75,6.75,0,0,0,4.52-1.51c1-.83,1.2-1.51,2.71-5a50.92,50.92,0,0,1,3.77-7.23c1.31-2,1.82-2.42,2.41-2.57,1.53-.37,2.25,1.14,5,2a9.9,9.9,0,0,0,5.87,0c2.4-.83,2.38-2.18,4.22-2.86,1.51-.55,3.23-.27,9.2,3,5.12,2.83,7.68,4.24,9.94,6.18,4.54,3.9,4.75,6,8.59,7.84a16.79,16.79,0,0,0,6.93,1.51c13,.68,23.25,14.31,24.57,15.82a16.75,16.75,0,0,0,5.27,4.67c3.37,1.75,4.83.71,9.34,2.56,1,.42.33.22,6.33,3.32,3.69,1.9,4.87,2.45,6.33,2.11,1.83-.43,2.16-1.81,3.92-2s3.34,1.18,4.07,1.81c6.8,5.83,10.92,4.64,17.78,12.05,3.46,3.74,3.22,4.91,6.48,7.39,1.74,1.32,5.87,4.45,10.55,3.77,2-.3,1.71-1,5.73-2.42,5.12-1.85,6.16-1,8.29-2.56,2.85-2.13,1.77-4.32,4.37-6.48,1.38-1.15,2.55-1.24,10.24-1.66,9.67-.51,12.12-.6,13.57,1.21.66.83.94,1.86,1.5,3.92,1,3.54.45,5.07,1.36,5.72,1.61,1.16,5-3.93,7.08-3,1.26.55.64,2.54,2,5.73a16.47,16.47,0,0,0,5.58,6.63c2.2,1.45,3,1,8.74,2.41,5,1.23,11.08,2.71,11.3,5.12.1,1.09-1.08,1.36-1.81,3.32-1,2.61,0,5.2.45,6.48,1.94,5.29,9.11,8.79,16.88,12.66,11.24,5.59,16.8,8.54,17.63,8.89,3.3,1.39,11.83,7.24,22.16,7.38,18.12.25,42.57,3.09,42.64,2s3.61-.33,30,1.06a8.21,8.21,0,0,1,3.62.9c1.81,1,2.14,2.12,3.62,3.17a9,9,0,0,0,5.42,1.35c6,.08,11.39-6.59,13.57-9.34,5-6.3,7.33-12.65,9-17.33C2325.79,114.56,2327.45,106.73,2329.54,106.86Z"/></g></g></svg>