<svg xmlns="http://www.w3.org/2000/svg" viewBox="0 0 1898.6 1762.38"><g id="Layer_2" data-name="Layer 2"><g id="Australia"><path d="M1632,1520c-.61.21-1.11.64-2.74,4s-1.57,3.84-1.49,4.11c.48,1.58,2.44,1.28,3.77,3.2,1.07,1.55.15,2.24.92,4.69,1.06,3.37,3.14,3.13,4.34,6.86.63,1.94,1,3.66,1,3.66.41,1.72.44,2.34,1,3s1.61.91,3,1.15a14.57,14.57,0,0,0,4.23,0,8.69,8.69,0,0,0,3.08-.57,5.76,5.76,0,0,0,2.4-2.86,10.63,10.63,0,0,0,.69-7.09,10.88,10.88,0,0,0-3.09-4.92,6.21,6.21,0,0,0-1.94-1.49c-1.43-.64-2.1-.15-2.86-.8s-.29-1.39-1.14-3.08a7.52,7.52,0,0,0-2-2.4c-.91-.74-1.17-.56-2.4-1.38a8.25,8.25,0,0,1-2.51-2.28c-1.08-1.6-.59-2.52-1.6-3.32A3.11,3.11,0,0,0,1632,1520Z"/><path d="M1646.32,1555.18c-2.22.11-2.52,2.44-5.6,3.89-1.61.75-2.6.62-2.74,1.26-.19.87,1.47,2,2.74,2.51a4.42,4.42,0,0,0,3.55.12c1.37-.76,1.16-2.23,2.28-2.52.71-.18,1.39.26,2.75,1.14s1.44,1.3,2.51,2c.87.52,2.53,1.52,3.78.91,1.44-.7,1.47-3.16,1.48-4.11a5,5,0,0,0-1-3.78c-1.28-1.33-3.45-1.28-4.68-1.25a26.7,26.7,0,0,1-3.09.11C1646.88,1555.33,1646.94,1555.15,1646.32,1555.18Z"/><path d="M1647.24,1562.16a5.2,5.2,0,0,1-1.6,2.51c-1.43,1.19-3,1-3.09,1.6s1.27,1.36,2.52,1.49c.2,0,2.27.2,3.2-1.26A3.43,3.43,0,0,0,1647.24,1562.16Z"/><path d="M1445.65,1510c-.61.21-2.4,1.11-3.2,8.23-.45,4-.26,7.14.12,12.58.43,6.35.83,6.26.57,8.8-.25,2.38-.76,4,.11,4.69s2.72.06,5.26-.92a11,11,0,0,0,3.66-1.94,9.77,9.77,0,0,0,2.52-3.43c1.81-4,.08-7.45.11-13.72,0-7.15,2.32-9.58.34-11.66-1.32-1.4-3.82-1.88-7.2-2.52C1446.39,1509.84,1446,1509.9,1445.65,1510Z"/><path d="M1491.57,1573.61a10.31,10.31,0,0,0-.64,3.08,3.49,3.49,0,0,0,.45,2.4,2.14,2.14,0,0,0,1.17.77,2.53,2.53,0,0,0,2.75-1.45,3,3,0,0,0-.43-2.65A4.91,4.91,0,0,0,1491.57,1573.61Z"/><path d="M1480.67,1582.86a1.68,1.68,0,0,0,1.88.24c1-.45,1.23-1.77,1.34-2.53.21-1.4,1.38-5.44.81-5.53-.41-.06-2.27,3-3.08,4.62C1480.72,1581.43,1480.28,1582.33,1480.67,1582.86Z"/><path d="M1499.05,1582.51c-.13-.53-1.8-.66-5.14-.92-2.53-.19-3.18-.1-3.32.23-.2.51.84,1.36,1.14,1.6a5.37,5.37,0,0,0,4.46,1.26C1497.66,1584.34,1499.22,1583.2,1499.05,1582.51Z"/><path d="M1510.48,1588.57c-1.48-.3-5.59-1.18-8.11-1.72a32.76,32.76,0,0,0-3.32-.57c-2.58-.29-2.61,0-4.12-.23-1.23-.22-4-.73-5.71-2.85-.66-.84-.86-1.59-1.6-1.72s-1.33.38-2.29,1.14a8.9,8.9,0,0,0-1.94,2c-1,1.47-1.07,2.79-1.38,4.34-.92,4.71-2.87,4.73-2.63,7.43.2,2.24,1.54,2.21,2.18,5.38.53,2.64-.39,2.71.22,4.92.73,2.57,2.28,3.52,2.06,5.71-.09,1-.47.85-.57,1.83-.21,2,1.17,2.77,1.6,5,.35,1.85-.47,1.83-.23,3.78s1.42,3.59,3,5.6,2.14,2.09,3.2,3.77c.89,1.43,1,2.21,1.83,4.58a61,61,0,0,0,3.66,8.46,46,46,0,0,0,3.08,5.14,30.49,30.49,0,0,1,2.4,3.55,29.25,29.25,0,0,1,1.72,4.34c1.6,3.89,4.17,3.13,4.69,5.72a27.38,27.38,0,0,1-.12,6.17c0,.44-.12,1.16.23,1.38s1.7-.4,2.06-1.38c.25-.66,0-1.22.11-1.25s.24-.07,1.72,3.66a16.6,16.6,0,0,0,3.54,4.8c1.11,1,1.54,1.11,2.86,2.4,1.8,1.75,3.06,3,3,4.57a3,3,0,0,1-1.95,2.75c-.67.11-1.48-.57-3.08-2-.58-.49-1-.87-3.32-3.08-1-1-1.16-1.1-1.49-1.38a10.57,10.57,0,0,0-2.86-1.94c-1.8-.7-4.23-.45-4.57.46-.23.61.7,1,1.37,2.63s.19,2.44.69,4.23c.41,1.5,1,2,1.83,3.31,1.94,3.32.87,5.13,2.28,9.38,1,3.08,1.67,2.23,2.63,5.15,1.13,3.39.4,4.65,1.72,8.34a20.87,20.87,0,0,0,2.06,4.23c1.54,2.43,2.55,2.88,4.91,5.95,1.9,2.46,1.39,2.34,2.63,3.77,3,3.46,4.62,2.53,6.52,5.15s.8,4.48,3.32,7.54c.46.56,1.22,1.38,2.17,2.41a25.39,25.39,0,0,0,2.75,2.74c1.58,1.19,2.12,1,2.62,1.83.61,1,0,1.55.46,3.2.41,1.34.94,1.34,1.49,2.75a8.72,8.72,0,0,1,.46,3.54c0,3-1,4.15-.46,4.57.74.61,3.25-1.16,5.83-3,2.2-1.54,2.53-2,3.89-2.51a11.85,11.85,0,0,1,4.57-.46,24.47,24.47,0,0,1,4.92.68c4.15,1,4.34,1.85,8.92,3.09a44.21,44.21,0,0,1,4.57,1.26,15,15,0,0,1,4.35,2.06c1,.72,1.13,1.08,1.71,1.14,1.21.12,2.16-1.27,3.77-3.43,4.09-5.46,4.1-4.67,5.38-7,1.18-2.14,1.07-2.62,2.74-5.61a21.13,21.13,0,0,1,3-4,17.89,17.89,0,0,1,1.37-1.2l.23-.17a7.83,7.83,0,0,1,2.86,3,9.38,9.38,0,0,1,.91,4.92c-.13,1.48-.55,2.1-.23,3.43a3,3,0,0,0,1.26,2.06,2.82,2.82,0,0,0,3.31-1c.27-.41.3-1.38.35-3.32,0-.84,0-1.26,0-1.71a9.1,9.1,0,0,0-.57-2.86c-.39-.93-.61-.82-1.49-2.17-1.21-1.88-.91-2.31-1.94-3.55-.91-1.09-1.41-1.08-1.49-1.71-.15-1.19,1.41-2.77,2.86-2.75,1.15,0,1.55,1,2.17.8.89-.34,1.12-2.86.34-4.8-.34-.86-.62-1-1-2.06a11.7,11.7,0,0,1-.57-2.86c-.44-3.63-.71-3.12-.68-4.46a10.86,10.86,0,0,1,1.25-4.8,5.43,5.43,0,0,1,1.15-1.71c1.78-1.57,3.69,0,6.74-1,2.49-.86,2.73-2.42,4.23-2.18s1.26,1.54,3.66,3a9.25,9.25,0,0,0,3.55,1.37c1.6.23,2.17-.18,2.86.34s.77,1.51.91,3.43a38.8,38.8,0,0,1-.11,3.89c-.09,1.69-.13,1.85-.23,2.06-.71,1.39-3,1.78-4.46,1.71s-1.92-.59-2.63-.23c-1,.51-1.32,2.11-1.14,3.32.37,2.51,3.12,3.9,4.46,4.57a8.33,8.33,0,0,0,4.23,1.15,8.22,8.22,0,0,0,5.37-2.4,8.74,8.74,0,0,0,2.63-4.92c.45-3.11-1.14-5.73-2.52-8-1.14-1.9-1.53-1.84-2.17-3.32-.83-1.93-.7-3.28-.8-6.17-.2-6.34-1-5.84-.57-8.69a25.3,25.3,0,0,1,5.6-12.12c2.88-3.61,1.82-12.18,1.49-14.87-.14-1.12-.4-2.81.57-4,.46-.57,1-.76,2.06-2,.86-.94.7-1,1.14-1.37a4.65,4.65,0,0,1,4.35-.57c1.5.58,1.65,1.66,2.74,1.6a3.21,3.21,0,0,0,2.06-1.37,4.52,4.52,0,0,0,.91-1.94c.35-1.76-.71-2.16-1-4.69-.24-1.85.24-2.39-.35-3.89-.28-.73-.5-.87-.8-1.72a8.63,8.63,0,0,1-.46-3.08c.08-6.58.22-6.48.12-7.89-.23-3.37-1-4.32-.23-6.18.55-1.27,1.06-1.14,1.49-2.4.53-1.57-.06-2.4-.46-5.72a19.7,19.7,0,0,1-.23-4,13,13,0,0,1,1.26-5.26c1.24-2.46,2.66-2.84,2.63-4.57a4.51,4.51,0,0,0-.92-2.4c-1.1-1.7-2.2-1.67-3.2-2.86-.31-.38-.81-1.1-1-5.83a41.13,41.13,0,0,1,0-6.63,49,49,0,0,0,.57-6.52,5.23,5.23,0,0,0-.68-2.86,6,6,0,0,0-1.6-1.6c-1.54-1.26-2.16-1.63-4-3-1.62-1.19-2-1.53-2.86-1.72a5.38,5.38,0,0,0-2.18,0,5.64,5.64,0,0,0-2.51,1.26,11.52,11.52,0,0,0-1.72,2.06,17.19,17.19,0,0,1-2.4,2.4c-2.61,2-6-1.54-10.86-.46-1.15.25-3,1.43-6.75,3.77s-3.63,2.71-4.91,3.09c-3.24,1-5-.7-9.84-1.37a21.16,21.16,0,0,0-9,.34c-4.46,1.33-5.33,3.9-11.89,8.46-2.23,1.55-4,4.17-6.63,4-1-.07-1.08-.43-2.63-.8-3-.73-4.58.24-7.66.34a53.66,53.66,0,0,1-6.64-1.14c-5.14-1-7.71-1.54-8.46-1.83-3.72-1.45-3.5-2.76-8.23-5.72-1.32-.83-4.31-2.12-10.29-4.69-7.34-3.16-8.75-3.57-10.18-3.89C1514.87,1589.06,1515,1589.48,1510.48,1588.57Z"/><path d="M1448.85,1447.7c.28-.49.26-.46.4-.69a21.87,21.87,0,0,1,2.81-3.77c2-2.2,2-1.86,4.68-4,1.59-1.24,2-2.39,3.32-2.52,1.08-.11,1.27.52,2.4.69,2.63.39,3.54-2.69,7.32-3.43a14.61,14.61,0,0,1,4.12,0,22.94,22.94,0,0,1,3.88.57c3.2.77,3.62,1.69,5.38,1.49a4.26,4.26,0,0,0,4-4.81,4.51,4.51,0,0,0-.92-2.86c-1.19-1.41-3.21-1.45-4.46-1.48a18.78,18.78,0,0,0-3.31.34c-1.24.2-1.32.29-2.06.34a4.82,4.82,0,0,1-3.43-.57,6.84,6.84,0,0,1-1.26-1.94,7.85,7.85,0,0,1-1.14-2.52c.11-1.26,2.08-1.59,5.83-3.54,2.52-1.31,2-1.38,5.26-3.09,2.34-1.24,5.26-2.63,5.26-2.63a18.91,18.91,0,0,1,6.17-2.29c1.36-.27,5.18-1.06,6.52.69.62.8.22,1.48.57,3.43.41,2.23,1.14,2.51,1.72,4.35.86,2.74.71,6.62-1.37,8.8a10.54,10.54,0,0,1-2.63,1.72c-2.53,1.37-4.13,1.52-4.81,3-.33.72,0,.92-.45,1.48-.79,1.09-2,.53-3.2,1.61-.93.83-.68,1.59-1.49,1.94-1.1.47-2.34-.6-2.52-.34s1.15,1.35,2.75,3.08c2,2.2,1.83,2.57,2.86,3.21a7.11,7.11,0,0,0,5.14.68,9.23,9.23,0,0,0,4.69-3.09c2.56-2.64,1.74-3.69,3.89-5.37s4.18-1.68,4.46-3.2c.16-.91-.47-1.58,0-2.17.09-.12.34-.38,2.17-.58a9.05,9.05,0,0,1,1.94-.11c1.17.2,1.64,1,3.43,2.63s1.78,1.27,2.29,1.94a6.72,6.72,0,0,1,.57,6.86,12.77,12.77,0,0,1-2.4,2.75c-1.06,1-1.93,1.65-1.94,2.63a2.22,2.22,0,0,0,.45,1.26,18.59,18.59,0,0,0,3.44,3.88,23.75,23.75,0,0,0,4.68,3.21,18.39,18.39,0,0,0,5.61,1.94c3.6.57,5.28-.45,6.17.69.67.85-.14,1.58.34,4.11a10.74,10.74,0,0,0,1.38,3.55c.72,1.23,1.57,2.67,3.08,3.08a5.28,5.28,0,0,0,2.18-.11c3.89-.58,5.84-.87,7-1.6a2.5,2.5,0,0,1,1.72-.57,2.33,2.33,0,0,1,1.37.91,10,10,0,0,1,1.71,3.43l1.6,3.2c1.5,3,1.6,3.21,2,3.78a14.65,14.65,0,0,0,2.17,3,21.91,21.91,0,0,1,1.6,1.6c.93,1.1,1.16,1.77,1.37,1.72.42-.12-.77-2.73.23-5.38.56-1.47,1.16-1.28,2.29-3.31a14.4,14.4,0,0,0,1.6-4.92c.38-2.33.6-3.69-.23-4.92-.72-1.06-2.21-2-3.43-1.6-1.45.48-2,2.71-1.83,4.23s1,1.93.8,3c-.31,1.38-2.25,2.53-3.31,2.06-.66-.28-.91-1.45-1.38-3.77s-.21-2.3-.57-3.09c-.9-2-2.48-1.91-3-3.54a3.92,3.92,0,0,1,.68-3.32c1-1.23,2.93-1.44,6.86-1.83l5.84-.57c5-.74,5-1.84,9.72-2.52,3.09-.44,4.13-.11,6.06-1.14,1.27-.68,1.64-1.26,3.65-3,1.81-1.54,2.52-1.92,5-3.77a74.44,74.44,0,0,0,7.77-6.18,95.44,95.44,0,0,0,6.86-8.23c2.22-2.81,3.33-4.21,4.69-6.06,5.19-7.06,4.33-8.7,7.43-11.21,2.68-2.16,5.63-3,9.49-4,3.36-.9,4.25-.66,8.12-1.71a81.45,81.45,0,0,0,7.89-2.86c4.65-1.64,8.34-1.86,13.84-2.18,7.74-.45,7.89.67,16.46.12,3.48-.23,4.69-.49,9.26-.69,3.58-.15,4,0,9-.23,5.62-.2,7.81-.45,10.29-1a18.56,18.56,0,0,0,4.69-1.48c3.06-1.6,3.19-3.17,7.08-6.75,2.85-2.61,4.27-3.91,6.41-4.46,2.84-.73,4.54.26,5.94-1.14.33-.33.62-.77,1.49-4.35.7-2.89,1.26-3.36.91-4.11-.61-1.36-2.38-1.11-2.74-2.4-.22-.8.26-1.58.92-2.63,1.21-2,2.11-1.83,2.4-3s-.61-1.48-1.15-4.23c-.28-1.45,0-1.46-.34-2.63-.47-1.89-1.23-2.47-1.83-3.88-.83-2-.07-2.51-.46-5.26-.6-4.34-2.77-5-2.17-7.32.4-1.54,1.38-1.25,3.77-4.12a14.4,14.4,0,0,0,3.43-6.06c.41-1.71-.11-1.47.23-4.92.18-1.77.46-3.24,1-6.17.41-2.07.61-3.11.8-3.89,1.45-5.73,3.33-6,3.78-9.83a55.3,55.3,0,0,0-.46-6.63c-.24-2.53-.34-2.92-.46-4.81a39.62,39.62,0,0,1,0-6.28,13.92,13.92,0,0,1,.8-4.46c.82-2,1.78-2.17,3.89-4.46,1-1.09,2.61-3.59,5.83-8.58,1.32-2,2-3.08,2.17-3.43,2.24-4.21.88-5.55,2.52-10s3.75-5.06,3.54-8.23c-.09-1.44-.6-2.56.12-3.54.42-.59,1-.82,3.89-1.38,3.87-.76,4.4-.67,4.8-1.25.57-.85,0-2.36-1-5.38-.84-2.38-1.2-2.64-1.14-3.66s.57-1.93,2.17-4.11c3-4.07,2.88-3.63,3.43-4.58,1-1.77.64-2.06,2.17-7.2,1.21-4.08,1.49-4,1.72-5.72.47-3.54-.7-4-.35-6.86.29-2.4,1.72-4.54,4.58-8.8.49-.74,1.68-2.5,4.11-5.61,4.61-5.9,4.85-5.37,6.52-7.89,1.55-2.33,4.53-6.8,4.69-12.57.11-3.84-1.12-5-.23-8.58.47-1.88,1.11-2.8,3.09-6.29,2.88-5.09,4.25-7.67,4.69-8.69,2.11-5,1.16-5.88,3.31-10.75,1.07-2.43,1.31-2.2,4.23-7.2,5.14-8.8,4.36-9.42,6.86-12,1-1,4-2.85,9.95-6.4,7.49-4.48,7.28-4.05,8.69-5.26,3.9-3.34,3.52-4.88,8.69-9.49a27.24,27.24,0,0,0,3.89-3.77,20.89,20.89,0,0,0,3.54-6.63,17.49,17.49,0,0,0,.92-7.32c-.48-4.42-2.53-5-1.95-7.32.66-2.62,3.31-2.31,7-6.75.55-.67,1.36-1.93,3-4.46,2-3.14,3.44-5.64,4.12-6.86,1.62-2.89,2.43-4.34,3.2-6.06,2.07-4.63,1.43-5.44,3.54-11,1.77-4.64,2.48-4.78,2.86-7.44.53-3.71-.77-4.06-.45-7.77.44-5.35,3.26-6,3.08-10.41-.12-3-1.45-2.67-2.28-7.43a36.17,36.17,0,0,1-.23-8.92,55,55,0,0,1,.68-5.83c.84-5,1.25-7.51,2.63-9.83,2-3.38,3.54-2.83,4.81-6.06.66-1.7.34-2.11,1.37-6.18.76-3,1-2.87,1.37-4.8.8-3.7.08-4.23.69-7.89s1.43-3.49,1.94-7.09-.29-4.18.46-6.75c1-3.44,2.67-3.29,3.31-5.83,1.18-4.67-4.08-6.82-3.08-11.55.54-2.56,2.14-2.17,4.57-7.43,1-2.07.85-2.43,2.06-4.91a40.07,40.07,0,0,1,3.31-5.72c1.91-2.73,2.47-2.74,3.2-4.35.43-.93,1-2.52.81-6.17-.32-6.43-2.35-6.74-2.52-11.21-.19-5,2.21-5.63,2.17-12.23a20.08,20.08,0,0,0-.91-6.63c-1-3-2.06-3.47-4.92-8.46-1.94-3.4-2.93-5.15-3.43-7.55-.65-3.08.77-3.69.23-7.78-.14-1.07-.13-.37-1.26-5.49a13.42,13.42,0,0,0-1.37-4.34c-.71-1.22-1.19-1.39-2.4-2.74-2.08-2.33-1.8-3.08-4-6.06-1.36-1.83-1.34-1.39-3.55-4.12s-3.26-4-3.54-5.49c-.36-1.78.17-3.16,1.14-5.72,1.64-4.3,3.16-4.74,3.54-7.89a13.64,13.64,0,0,0-.22-4.23c-.41-2.16-1-2.89-1.6-4.8a24.12,24.12,0,0,1-.69-6.29c-.2-5.11.39-5.19,0-8.57a58.88,58.88,0,0,0-1.14-6.06c-.78-3.54-1-3.73-1-5,0-1,.11-1.86,1.6-6.4,1.06-3.26,1.6-4.89,2.06-6.06,1.67-4.27,2.54-5.19,2-6.74a6.09,6.09,0,0,0-3-3.09c-2.82-1.79-4.11-.72-5.72-2.17-.72-.66-1.2-2.77-2.17-7a25.31,25.31,0,0,1-.8-4.8c0-.66,0-.75.12-3.89.07-2.24.11-3.38.11-4.34a23.51,23.51,0,0,0-.23-4.35c-.35-1.85-.64-3.37-1.71-4.46-2-2-4.32-.15-7.89-2.06a10.62,10.62,0,0,1-4.12-4.11c-.58-1-.54-1.39-1.6-4.81-.43-1.36-.86-2.62-1.72-5.14-1.32-3.89-2-5.85-2.63-6.75a25.53,25.53,0,0,0-4-3.89c-1-.85-2.42-2.15-4.46-3.65s-2.09-1.34-3.66-2.52a38.34,38.34,0,0,1-5.14-4.69,27.17,27.17,0,0,1-4.23-5.26c-1.88-3.26-.93-3.92-2.63-7.77a30.34,30.34,0,0,0-5.83-8.35,16.55,16.55,0,0,0-3.78-3.54c-2.89-1.68-4.37-.72-8.23-2.06-1.76-.61-3.27-1.59-6.29-3.55-4-2.56-3.74-3-6.75-4.8-3.6-2.14-5.79-2.6-5.71-3.54.11-1.35,4.54-1.11,5.49-3.66.25-.7,0-1.61-.35-3.43a35.7,35.7,0,0,0-1.48-4.58c-1.33-3.74-1.13-3.51-1.38-3.89-1.89-2.84-5.56-3.34-6.17-3.43a10.38,10.38,0,0,0-3.77.23,7.11,7.11,0,0,0-3.2,1.49c-1.32,1.16-1,2-2.06,2.86-1.48,1.21-4.38,1.34-5.38.11-1.31-1.62,1.91-4.1,1.15-8.69-.25-1.48-.61-1.35-1.6-5a18.21,18.21,0,0,1-.92-4.69c0-2.64,1-3,1.26-5.49.51-4.13-1.91-4.94-1.14-8.23.56-2.42,1.93-2.28,3-5.6.54-1.73,1.06-3.39.46-5.15-.73-2.13-2.36-2.25-4.24-5.26a26.18,26.18,0,0,1-1.48-3.2c-.5-1-4.07-8.49-8.35-8.34-1.3,0-2.78.79-3.09,1.83-.2.69.2,1.26,1.6,4.34.89,1.93,1,2.19.81,2.4-.55.75-3.54.07-5.38-1.83-.89-.92-.87-1.46-1.6-2.74-1.87-3.28-3.86-3-6.52-6.18-2.12-2.57-1.18-3.17-3.2-5.14-.46-.45-4-3.85-7-2.63a5.06,5.06,0,0,0-2.41,2.63c-.7,1.39-.85,2.76-.57,6.52a47.88,47.88,0,0,0,1.15,8.8c.91,3.76,1.89,5.59,1.48,5.83s-2.35-3.08-6.29-6.63-5.25-2.81-8.8-6.18a26.53,26.53,0,0,1-6.29-9.26c-1-2.51-.53-2.53-1.94-7.77-1.88-7-2.69-6.84-3.2-10.41-1-6.62,1.73-7.8,0-11.09-2.14-4-6.84-3.46-8.35-7.89-.42-1.23,0-1-.34-5a34.07,34.07,0,0,0-1.49-8.35,27.54,27.54,0,0,0-3.77-7.2,29.56,29.56,0,0,0-4.35-4.92c-4.17-3.71-6.07-3-10.29-6.86-1-.92-.26-.38-4.12-4.46-3.36-3.56-4.33-4.39-4.23-5.71s1.1-1.56,3.32-4.12c2-2.36,3.33-3.84,3.66-5.49.84-4.21-4.71-8.6-6.41-9.95a32.77,32.77,0,0,0-12-5.6c-4.51-1.2-6-.74-8.46-2.52-3.15-2.25-2.08-3.94-5.26-6.28-3.57-2.64-5.61-1-9.38-4.12-1.72-1.42-2.16-2.46-3.77-2.74-.88-.16-2.35.12-5.26.68-1.82.35-2,.43-2.4.34-2-.37-3.18-2.66-3.78-3.88-1.11-2.29-.91-3.43-1.48-5.49a16.51,16.51,0,0,0-5.49-8.12c-2.36-1.73-4.68-2.07-9.26-2.74s-5.31,0-8.81-.92a31.47,31.47,0,0,1-7-3c-4.45-2.27-4.35-2.78-10.18-6.06-3.68-2.08-4.9-2.54-7.2-4.35a42.47,42.47,0,0,1-4.23-3.88,38.6,38.6,0,0,1-5.15-6.07,17.19,17.19,0,0,1-2.51-4.68,13.89,13.89,0,0,1-.46-6.86c.76-4,3-5.32,2.17-6.86-.66-1.28-2.24-.52-4.69-2.18-1.78-1.2-1.37-1.9-4-4.57-2-2.07-2.69-2.07-3.66-3.55a10.08,10.08,0,0,1-1.48-4.57,15,15,0,0,1,.22-4.57,36.8,36.8,0,0,1,1.49-5.72c1.7-5.34,2-5.23,2.29-7,.41-2.36.18-4.07-.23-7.09-.66-4.85-1.54-5-2.29-10.29-.3-2.16-.3-3.14-.8-5.72a35.57,35.57,0,0,0-1.37-5.26,19.81,19.81,0,0,0-1.37-3.32c-1.91-3.37-3.84-3.21-4.46-5.49-.35-1.29.07-2.65.91-5.37,1-3.08,1.92-4.18,1.37-4.92s-2.09.15-4.57-.11c-3.82-.41-6.43-3.37-7.09-4.12-2-2.29-1.15-3-3.31-5.94-2-2.69-2.93-2.29-5.49-5.26-1.41-1.64-3.36-3.9-3.89-7-.4-2.3.27-3.53.91-6.4a38.36,38.36,0,0,0,.12-15.55,28.22,28.22,0,0,0-3-9c-1.56-2.8-3-4-4-7.31a23.64,23.64,0,0,1-.91-5.49c-.32-4,.28-4.61.11-8.23-.26-5.52-1.73-5.53-1-8.12.8-2.93,2.73-3.1,4.23-7.44,1-2.95.55-4.07.35-4.45-.78-1.48-2.58-1.88-4.23-2.29-4.86-1.22-8.1-2-10.52-3.55-.66-.4-.45-.36-7.43-9a57.55,57.55,0,0,0-4.58-5.26,25.63,25.63,0,0,0-5-4.34c-3.39-2.07-5.39-1.77-6.06-3.55-.31-.81-.13-1.88.23-4,.4-2.36.87-2.92.46-3.66-.62-1.1-2.61-1.52-4.12-1-2,.66-1.75,2.47-3.54,3.32-2.73,1.29-4.91-2.16-7.78-.92-.87.38-2,1.78-4.23,4.58a14.54,14.54,0,0,0-1.14,1.6c-.75,1.19-.84,1.7-1.15,2.17-1.31,2-5.36,1.66-6.06,1.6a14,14,0,0,1-9.72-6.4c-1-1.91-.61-2.86-1-6.52-.43-3.84-.76-6.76-2.4-9.61-1.76-3-3.11-2.68-4.46-5.71a14.06,14.06,0,0,1-1-6.86c.27-3.82,1.66-4.43,2.52-8.46a25.77,25.77,0,0,0,0-9.27c-.54-4.27-1.19-3.58-2.63-10.63-.76-3.7-.74-4.69-1.83-6.06-1.34-1.69-2.65-1.78-4.69-4.23a8.67,8.67,0,0,1-2.06-3.32c-.22-.79-.37-2,.8-6.63.89-3.52,1-3,1-3.77.08-3.54-3.21-6.5-6.29-9.26-2.34-2.11-3.23-2.36-4.91-4.46-2.31-2.88-2.48-4.72-2.52-5.26-.08-1.31.29-2,1.15-4.35,1.82-4.89,2.74-7.33,2.28-8.34-.54-1.21-1.71-1.23-9-3.32-5.24-1.49-6.58-2-7.55-3.43-.27-.4-1-1.52-1-5.49-.06-4.62.84-5.65,1-9.26.11-1.92-.5-5-1.71-11.32-1.12-5.77-1.29-5.33-1.6-8-.52-4.41,0-5.44-1.15-7.43s-2.83-3.19-5-4.8c-2-1.47-2-1.07-3.66-2.4-2.16-1.76-2.87-3-4.46-3.09a5.12,5.12,0,0,0-2.17.57,8.17,8.17,0,0,0-2.4,1.72A24.1,24.1,0,0,0,1371,5.83a22.93,22.93,0,0,1-2.06,2.63c-2.25,1.95-4.32,1.1-5.49,2.63-.74,1-.26,1.78-.23,4.35,0,4.07-1.13,4.8-1.71,10.17-.39,3.56.16,2.85-.23,5.49-.87,5.77-3.13,6.52-3.66,11.78a9.72,9.72,0,0,1-.92,3.89c-.74,1.46-1.47,1.75-2.51,3.31a18.07,18.07,0,0,0-1.83,4.23c-.93,2.34-1.38,2.41-3.43,6.06-1.31,2.33-2.24,4.34-4.12,8.35s-1.82,4.23-2.63,5.49c-1.06,1.64-1.85,2.44-2.4,4.23a6.14,6.14,0,0,0-.23,3.89c.41,1.15,1.15,1.53,3.43,3.31,2.75,2.15,4.14,3.24,4.58,4.24,1,2.19,0,4.64-.58,5.94-1,2.43-1.94,2.37-5.26,7.2a11.34,11.34,0,0,0-1.94,3.89,10,10,0,0,0-.11,4c.38,2.3,1.34,3.27,2,4.81,2.28,4.91-.3,10.64-.45,11-1.5,3.21-3,2.74-4.81,6.52-1.26,2.65-.48,2.77-1.94,7-1.61,4.64-2.93,5.53-2.63,8.11a10.91,10.91,0,0,0,1.83,4.46c1.58,2.65,2.51,2.62,3.77,4.58,1.69,2.61,2.79,6.93,1.15,9.95-1.11,2-2.58,1.83-3.32,4-.5,1.47,0,1.94.34,5.37.36,4.22-.37,4.77.35,7.55.57,2.21,1.06,2,1.37,3.89.46,2.86-.55,4,.34,5.6s2.07,1,3.09,2.51c1.29,1.92-.31,3.32.23,7.89.25,2.16.69,2.55.46,4-.32,1.93-1.37,2.84-2.29,4.23-2.54,3.8-.34,5.5-2.63,11-1,2.45-1.56,2.33-3.43,6.41a48.34,48.34,0,0,0-1.94,4.8,54,54,0,0,0-2.41,11.09c-.1.75-.47,3.53-.68,7.2a56.16,56.16,0,0,0-.12,7.89c.22,3,.55,3.22.23,4.35-.77,2.77-3.07,2.72-4.69,5.6-1.32,2.36-.32,3.35-1.25,7-.75,2.89-1.5,2.71-3.78,7.31-2.87,5.83-2.46,7.74-5.49,11.55-1.38,1.75-1.34,1.19-2.51,2.75-2.86,3.81-2.15,5.91-4.8,11.89-1.56,3.52-2.07,3.38-3,6.17s-.71,3.89-1.94,5.49c-1.1,1.43-1.76,1.21-4.35,3.2-2.81,2.17-2.51,2.8-4.45,4.12s-3.18,1.28-7.21,2.4c-5.28,1.48-4.63,2-7.66,2.63a27,27,0,0,1-14.06-1,36.15,36.15,0,0,1-6.06-2.74c-3.11-1.7-3.76-2.52-6.29-4-5.06-3-5.48-1.44-9-3.78-4.7-3.1-5.39-6.73-9.14-7-1.17-.08-1.94.22-3.09-.35-1.69-.82-2.45-2.65-3.2-4.46a27.57,27.57,0,0,1-1.15-4.11c-.79-3.37-.69-3.73-1.14-4.8a10.28,10.28,0,0,0-3.54-4.23c-4.32-3.24-6.87-.6-11.89-3.66-2-1.24-3-2.49-5.72-3.32-1.27-.38-2.59.27-4-.57-1.07-.64-1-1.21-2-1.72-1.5-.77-2.64.1-4.46,0-2.3-.12-3.23-1.66-5.14-2.74-3.9-2.21-6.46,1.29-9.61-.46-1.63-.9-1.27-1.84-3.66-5.14-1.29-1.79-1.84-2.13-6.74-6.86-6.46-6.24-6-6.15-7.66-7.32a62.23,62.23,0,0,0-8-4.58c-3.22-1.66-3-1.38-5.37-2.63-5.16-2.73-5-3.51-10.29-6.4-2.16-1.18-4.2-2.58-6.41-3.66-1.85-.91-3.51-1.59-3.77-3-.09-.48.06-.7.8-2.52,1.46-3.54,1.59-4.34,1.6-5s.05-2.39-.91-3c-1.16-.69-3.13.54-4.12,1.71a4.23,4.23,0,0,0-1.14,2.86c.09,1.4,1.12,2,.8,2.63s-1.53.25-2.75,1.15c-.87.65-.67,1.19-1.37,1.94-1.76,1.89-5.47,1.09-6.29.92-1.8-.39-2.92-.63-3.54-1.61-1.14-1.76.64-3.95-.8-6.28a4.33,4.33,0,0,0-1-1.15c-2.65-2-6,1.08-9.49,0-2.25-.69-2.46-2.44-5.72-6.52a85.14,85.14,0,0,0-6.86-6.86c-2.05-2-3.69-3.44-7-6.4a69.86,69.86,0,0,0-8.69-7.09c-1-.62-1.8-1.14-2.18-1.37-5.06-3.07-5.65-2.61-7.66-4.23-2.65-2.14-1.73-3-4.92-5.6-1.57-1.28-2.42-1.56-3.43-3a8.47,8.47,0,0,1-1.6-4.68c0-1.53.47-3,2.41-5.84,2.29-3.4,3.27-3.83,6.17-7.43a84.45,84.45,0,0,0,5.49-7.77c.69-1.07,1.67-2.6,2.86-4.69s1.21-2.31,4.11-8c3.3-6.46,2.69-5,3.09-5.94,1.17-2.57,1.21-3.14,2.06-3.78,1.36-1,3.18-.95,6.74-.8,2.71.12,3.71.45,4.24-.22.35-.46.11-.88-.35-4-.3-2.06-.28-2.45-.68-2.74s-.89-.25-3.89.91c-3.66,1.43-4.27,1.93-4.69,2.63-.55.94-.4,1.63-.8,1.72-.7.16-1.45-1.85-3.32-4.35s-2.22-2-3-3.31c-1.4-2.45-.61-5.59,1-11.78.8-3,1.22-4.55,2.06-5.83a13.76,13.76,0,0,1,7.32-5.37c5.11-1.58,10.63,4,13.6,2.85a7.48,7.48,0,0,1,2.52-.57c1.18,0,1.47.25,2.17.12.92-.18,1.48-.9,2.75-2.86a32.84,32.84,0,0,0,2.85-4.8c.35-1,.39-1.49.69-5.26.53-6.56.58-7,.92-7.78.77-1.87,1.25-1.49,3.43-5,1.57-2.56,1.26-2.68,2.63-4.8a18.44,18.44,0,0,1,4.57-5.49c2-1.52,3.09-1.41,3.66-2.75s0-3.1-.57-4.46a8.74,8.74,0,0,0-2.41-3.54c-.77-.67-2.45-2.13-4.45-1.94-2.34.22-3,2.48-4.69,2.17-.7-.13-1.18-.64-2.4-2.52a57.28,57.28,0,0,1-3.09-5.26c-2.29-4.49-3.69-7.25-5.83-7.54-1.59-.22-3,1-5.83,3.54a12.61,12.61,0,0,0-3.21,3.77c-.73,1.41-1.7,3.29-1,4.92s2.61,1.38,3.77,3.55a5.84,5.84,0,0,1,.57,3.31c0,.23-.37,3.83-2.63,4.8-1.55.67-2.39-.6-7.09-1.14-2-.23-1.9,0-2.4-.23-3.64-1.65-1.27-10.09-4.34-11.43-1.86-.81-5.65,1-7.55,2.29-.82.56-1.54,1.19-2.4,1a3.39,3.39,0,0,1-2.4-3.54c.06-.39.2-.58,2.4-2.86.8-.83,1.55-1.73,2.4-2.51,1.23-1.14,1.78-1.45,1.71-1.95s-1.13-1.15-2.05-1.14-1.33.59-2.86,1.71c-2.22,1.63-3,1.52-4.81,3.2-.83.76-.71,1-1.14,1.15-1.48.67-2.73-.92-5.37-1.37a19.66,19.66,0,0,0-4.35.34c-3.2.4-4.81.62-5.6,1.26-1.56,1.25-.94,2.53-2.63,4.23a7.7,7.7,0,0,1-4.23,2.06c-4.22.55-7.63-3.2-8.46-4.12-3-3.31-1.73-5-4.46-7.32-2.5-2.11-6.64-3.26-9.38-1.83-1.48.78-1.43,1.72-3.31,2.63a10.07,10.07,0,0,1-5.38.69c-4.26-.28-4.79-1.76-8.46-1.72-2.53,0-2.83.74-4.23.23s-1.75-1.5-4.46-4.69S984.09,52,983.59,52c-1.57.17-2,2.8-3.31,2.74-.63,0-1.19-.82-2.29-2.4-1.46-2.11-1.33-2.59-2.29-3.43a5.17,5.17,0,0,0-3.54-1.37c-1.33.09-1.77.85-3.09,1.6-2.71,1.52-5.74,1.06-8.23.69a21.33,21.33,0,0,1-5.38-1.61c-2.35-1.06-2.81-1.8-4.68-2.17-2.31-.45-2.74.45-4.46,0s-2.93-2.07-5.15-5.26a64.16,64.16,0,0,1-3.89-6.29c-1.16-2.23-1.38-3.08-2.51-3.88-1.31-.93-3.59-1.63-5.15-.69-1.77,1.06-1,3.28-3.08,4.69a4.46,4.46,0,0,1-3.21.68c-1.43-.33-2-1.5-3.54-3.43-2.82-3.53-3.33-2.68-4-4.23-1.15-2.62-.21-6.32,1.37-12.58.12-.48.32-1.24,0-1.48-.6-.44-3.07.88-3.89,3-.28.71-.18,1-.23,5.6,0,1.46,0,2.05-.34,2.18-.57.22-1.23-1.43-3.32-3.09a11.77,11.77,0,0,0-4.8-2.17,4,4,0,0,0-2.4.11,3.58,3.58,0,0,0-1.37,1c-.9,1.16-.52,2.54-.35,5.37s.25,4.14-.22,4.35c-.79.34-2.38-2.52-6.18-6.63-4.16-4.51-5.5-4.6-6.06-4.58-2.23.08-4.29,2.3-5,4.46a5.15,5.15,0,0,0-.23,3.32c.74,2.25,2.92,1.91,6.29,4.92,2,1.78,2.06,2.64,3.89,3.54a9.6,9.6,0,0,0,4.11.92c1.63,0,3.57-.48,7.44-1.49A10.61,10.61,0,0,1,907.1,34a6.68,6.68,0,0,1,3.66.69c1.52,1,1.26,2.48,2.74,5.94a32.23,32.23,0,0,0,2.29,4.23c2.46,4.14,3.09,3.9,4.34,6.52a12.81,12.81,0,0,1,1.49,7.32A8.58,8.58,0,0,1,918,64.72c-.6.45-1.07.71-5.72,2.52-2.48,1-2.86,1.08-3.54,1.14-2,.16-2.85-.57-4.23-.8-3.29-.55-4.1,2.59-8.46,3.77-2.93.8-2.88-.53-11.9-.68-1.91,0-3.86,0-4.46,0-3.44,0-5.16.07-6.28.22-5.45.77-6.11,3.68-8.47,3-2-.6-1.93-2.82-6.74-9.38-1.37-1.86-2.1-2.67-2.75-2.51-1.18.28-2.16,3.84-1.71,7,.14,1,.39,1.64,0,2.06-.72.77-3.1.29-4.58-1-.84-.76-.81-1.28-1.37-1.37-1.24-.21-3.19,2-3.2,4.23,0,1,.4,1.18.23,1.83-.43,1.62-3.15,1.27-4.92,2.74-3.12,2.6-.75,8.84-2.4,9.38-1.43.47-4.4-3.82-4.69-4.23-1.27-1.87-1.43-2.89-2.74-3.55a4.46,4.46,0,0,0-3.89,0,5.73,5.73,0,0,0-2.51,3.55c-.75,2-.31,2.82-1,4.8a7.24,7.24,0,0,1-1.72,3,7,7,0,0,1-3.09,1.72c-.81.2-.83,0-1.37.23-1.84.63-2.63,2.87-2.74,3.2-.64,1.89.19,2.45-.46,4.8A4.51,4.51,0,0,1,812,102.8c-1.06.9-2.1.45-4.11.91a8.87,8.87,0,0,0-3.89,1.83c-2.51,2.26-2.24,6.15-2.17,7.09a11.84,11.84,0,0,0,1.83,5.49c1.54,2.35,3,2.64,3.31,4.46.2,1.37-.48,2.49-1.26,3.77a12,12,0,0,1-5.6,4.69c-1.81.79-3.39,1.48-5.14,1-3.28-.85-4.33-5-5.15-4.69s.3,3.62.12,7.55c-.16,3.3-1.29,5.78-3.55,10.74-2.64,5.8-4.23,9.3-7.55,12.24-.81.72-2.45,2.05-4.68,4.34-1.41,1.44-2.19,2.35-3.21,3.55-2.43,2.88-2.85,3.83-3.08,4.46a10.3,10.3,0,0,0-.57,3.54,11.34,11.34,0,0,0,1.71,5.83c1.17,2,2.24,2.46,6.4,5.61,6.7,5,7.17,6.18,7.09,7.09-.17,1.9-2.7,1.87-3.54,4.57-.69,2.2.73,3,.57,6.52-.09,2-.72,5.25-2.06,5.49s-3.33-2.77-4.23-4.92-.64-3.29-1.71-4c-1.3-.86-2.33.3-4.46-.23-2.71-.68-3.7-3.22-4.46-2.86-1,.49.89,5-.57,5.95-.89.59-2.58-.36-3.78-1a17.55,17.55,0,0,1-3.31-2.63c-2.1-1.79-4.28-2.32-7.89-3.2s-3.45-.22-6.86-1.15-3.71-1.65-6.18-1.83c-1.76-.13-1.54.24-5.6.35-2.07,0-2.67,0-3.43.45-1.73,1.11-1.92,3.68-2,4.12-.14,2.56,1.32,3.33,1,6.06,0,.22-.25,2.38-1,2.51-1.09.19-1.71-3.89-4-4.23-.83-.12-1.69.3-3.43,1.15a3.9,3.9,0,0,0-1.6,1c-.58.82-.34,2,.57,4.46,1.47,4,2.36,5.2,2.52,7.66.05.83.16,2.5-.46,2.74-1,.4-3.4-3.46-4.23-4.8a23.2,23.2,0,0,1-3.2-7.78,9.17,9.17,0,0,1-.12-4.11c.52-2,1.48-1.91,2.18-3.78,1.15-3.06-.94-4.63.45-7.54.5-1.05,1-1.39.92-2.18-.18-1.18-1.58-1.69-3.2-2.74-.47-.3-1.72-1.5-4.23-3.89-4.53-4.31-6.79-6.46-8.58-8.69-2-2.49-2.42-3.5-4.92-6.29-1.61-1.8-3.06-3.19-3.31-3.43-2-1.93-2.55-2.15-4.92-4.34-.77-.72-.44-.44-3.66-3.55-2.73-2.64-3.66-3.5-5.26-3.88a9.16,9.16,0,0,0-2.74-.12c-2.19.09-2.87.54-5.6.8a8.27,8.27,0,0,1-3,0,6.6,6.6,0,0,1-3.31-2.28c-1.57-1.86-1.32-3.07-2.18-4.46-2.1-3.43-9.11-5-11.77-2.18a5.8,5.8,0,0,0-.92,5.72c.8,1.93,2.72,2.72,2.4,3.55-.24.63-1.38.23-2.74,1.14a6.48,6.48,0,0,0-2.06,2.86,35.16,35.16,0,0,0-1.49,4c-.87,2.39-1.32,3.58-1.82,3.66-1.11.17-3-2.42-3.32-5.15-.25-2.15.62-3.18-.23-4.8-.06-.11-1-1.84-2.29-1.83-.91,0-1.21.87-3.08,2.63s-1.83,1.23-2.75,2.29c-1.59,1.84-1.16,2.91-2.63,4.11a4.25,4.25,0,0,1-2.86,1.15c-1.73-.13-2.17-1.84-4.91-4.35-1.32-1.2-4.08-3.42-4.81-2.86-.5.4,0,2.13.81,3.32,1,1.46,1.62,1.13,3.43,3,1.42,1.45,1.43,2.1,2.85,3.09,1.06.73,1.89,1,1.83,1.14-.1.39-3.8-.24-4.34-.34-2.61-.46-2.89-.75-3.43-.46-1.25.68-.39,2.55-1.49,6.41-.77,2.71-1.62,3.27-1.37,5s1.43,2.53,1,3.31c-.7,1.39-5,.59-6.29.35-.35-.07-1.65-.43-4.23-1.15a29.66,29.66,0,0,0-5.15-1.25,18.11,18.11,0,0,0-4.23.11,29.28,29.28,0,0,0-3.77.8c-4.46,1.16-4.79,1.69-8.12,2.4a12.38,12.38,0,0,0-2.74.69c-.91.4-1.64.92-3.78,3.08s-3.19,3.25-3.43,4c-.31,1,.1.77,0,4.57a9.13,9.13,0,0,0,.23,3.43,4.82,4.82,0,0,0,1.26,2.17c1.1,1,2.12.6,4.8,1.15a10.36,10.36,0,0,1,4.46,1.6,18.25,18.25,0,0,1,2.86,3.43,8.11,8.11,0,0,1,1.49,3.08,1.83,1.83,0,0,1,0,1.15c-.38.92-1.75,1.15-2.4,1.26-1.59.26-2.08-.24-4.46-.12-.9.05-.79.12-1.38.12a10.72,10.72,0,0,1-4-1c-3.34-1.24-3.58-.88-4.23-1.6-1-1.11-1.4-3-.68-3.89.53-.66,1.37-.37,1.82-1.14a1.75,1.75,0,0,0-.22-2.06,2.09,2.09,0,0,0-1.95-.23c-.23.06-.73.23-2.06,1.48-1.1,1.05-1.1,1.27-2,2.06-.11.09-.63.52-1.38,1s-1.27.79-1.48.92a6.74,6.74,0,0,0-2.75,4.46,8.8,8.8,0,0,0,.57,4.34,13.39,13.39,0,0,0,1.15,2.63c1.18,2.06,2.35,2.82,2.17,3.09s-2.16-.65-5-1.95c-6.14-2.77-6.91-2.63-7.43-2.4-1.4.64-2.14,2.57-3.43,5.95a8.61,8.61,0,0,1-.92,2.17c-.63.91-1.12,1-4.23,3.2a11.63,11.63,0,0,1-1.6,1c-1.47.76-1.93.54-2.51.92-1.81,1.16-1.12,5.67-.15,11.93.07.44.13.8.15.87.21,1.2.46,2.28.57,2.63.42,1.45,1.9,3.7,3.08,3.55s1.13-2.12,3.55-6.29c1.22-2.11,1.71-2.47,2.06-2.4.75.15.88,2.39.91,3,.23,4.07-1.62,5.19-1.94,9.61-.18,2.4.25,3.62-.46,4-.91.48-2.85-.85-3.89-2.4s-.85-2.74-1.25-2.75c-.56,0-1.55,2.41-.69,3.89.39.66,1,.91.91,1.26-.14.51-1.5.16-2.28.91-.42.4-.47.92-.46,2.75,0,4.52.38,5.3.69,5.83a5.11,5.11,0,0,0,1.37,1.6c1.73,1.3,3.51.68,8.23.57,5.24-.12,6.1.56,6.4,1.14a1.63,1.63,0,0,1-.11,1.72c-.44.5-1.28.36-2.63.23s-2.53-.06-3.77-.23a64.6,64.6,0,0,0-8.12-.46c-4.65-.06-4.31.6-8.35.46s-6.34-.25-8-1.94-.79-2.73-2.52-4.35c-2.07-1.95-5.42-2.41-6.29-1.37-.18.22-.09.31-.57,2.17-.36,1.42-.47,1.59-.57,1.72a3.06,3.06,0,0,1-2.86.8c-1.39-.29-1.86-1.45-3.43-3.55s-4.3-5.77-6.52-5.37a2,2,0,0,0-1.37.91c-.26.45-.4,1.21.69,3.55s1.65,2.37,2.17,3.88c.14.42,1.14,3.33-.23,4.81-.67.72-1.68.85-3.09,1-1.59.2-2.05-.14-3.54.22-.81.2-1.95.48-2.17,1.26s.4,1.4.57,1.6c.88,1.07,1.92.83,2.63,1.49.56.52,1,1.66.23,4.46,6.7,2.48,8.93,5.53,9.72,7.89.61,1.85,0,2.38.91,4.92,1.51,4.36,4,4.94,4.23,8.23.16,1.86-.41,4.38-1.94,5s-4.18-.84-5.49-2.52c-1.47-1.87-1.43-4-3.09-4.46a1.79,1.79,0,0,0-1.26,0c-1.31.63-.82,3.39-.8,8.92,0,2.41-.1,4.09-.34,7.44-.32,4.56-.61,5.45-1.14,5.6s-1.71-1.18-3.78-3.89c-.36-.48-1.29-1.71-2.74-3.89-.88-1.32-1.47-2.26-2.06-3.2-2.85-4.54-4.27-6.81-4.92-7.66-1.89-2.52-2.36-2.57-4-5a17.76,17.76,0,0,1-2.28-4c-1.37-4.12,1-6.18-.81-9.15a16.09,16.09,0,0,0-2.17-2.63c-1.44-1.48-1.9-1.51-2.51-2.4a7.06,7.06,0,0,1-.92-4.69c.27-3.5,2.18-5.08,1.6-5.83-.39-.51-1.86-.53-6.74,1.83a9.5,9.5,0,0,1-2.4,5c-1.61,1.67-3.28,1.93-3.55,3.43-.24,1.34.94,1.85.8,3.43s-1.41,2.59-2.29,3.32c-1.83,1.51-3,1.28-6.17,2.85a27.19,27.19,0,0,0-3.32,1.95,32.74,32.74,0,0,0-5.71,5.14c-2.05,2.2-2.06,2.48-4.46,5.26-5,5.81-6.38,6.2-6.86,8.69-.27,1.38.15,1.21.23,6,0,2,0,3.38-.12,5.6-.38,9.66-.39,11.46-.34,13.27.17,7,1,7.87,1.37,8.23,1.57,1.42,4,1.34,6.4,4a5.51,5.51,0,0,1,.92,1.26c1.36,2.76-.61,6-.8,6.29a8.89,8.89,0,0,1-2.75,2.63c-5.53,3.83-8.47,4.48-12.35,7.54-.53.42-.16.17-3.31,3.09-7.9,7.34-8.92,7.77-10.86,10.18-3.76,4.65-5.26,9.6-5,9.72.56.28,14.22-27.74,15.33-27.22s-11.28,30.51-27,50.2a59.94,59.94,0,0,1-8.46,8.92c-6.87,5.82-14,9-23.33,13.15-2.67,1.19-5.06,2.17-8.69,3.66-6,2.47-9.09,3.72-11.66,4.46-6.65,1.9-6.95.35-13.38,1.83-10.95,2.52-14.76,8.12-20,5.83-1.67-.73-2.34-1.76-5.49-3a27.66,27.66,0,0,0-6.86-1.6c-2.34-.28-3.51-.42-4.57-.11-2.5.72-3.16,2.67-5.6,5.49-.57.66-3.17,2.69-8.35,6.74-4.6,3.6-6.92,5.41-7.66,5.61-4.53,1.22-6.49-1.83-12.24-1.49-2,.12-4.34,1.15-9,3.2-9.4,4.13-14.11,6.19-16.46,9.61a13.3,13.3,0,0,1-4.35,4.57,15.17,15.17,0,0,1-4.8,1.6c-5.5,1.28-8.25,1.93-8.69,1.95-4,.17-4-1.24-10.52-2.29-1.39-.23-1.82-.23-8.92-.69-10.59-.68-10.29-.71-10.63-.68-4.92.4-8.61,2.64-15.78,7.09-5.44,3.37-4.89,3.67-10.87,7.54-7.58,4.92-8.51,4.46-15,8.81a118.71,118.71,0,0,0-11.78,9.14c-6.43,5.59-6.38,6.61-10.06,9.27-4.11,3-5.21,2.45-16.13,6.86C89,534.9,84.66,538.34,82,540.84a43.47,43.47,0,0,0-4.92,5.49c-2.12,2.85-3.51,5.83-6.29,11.78-2.62,5.62-2.75,6.62-2.74,7.55,0,2.7,1.11,4.24.11,6.29a6.15,6.15,0,0,1-3.43,2.85,7.85,7.85,0,0,1-6.63-.68C53,571,53.84,561.49,54,559.82c.61-7.21,3.76-9.24,2.52-15.2-.47-2.25-1.7-5.73-3.09-5.72-.79,0-1.36,1.14-1.71,1.83-1.72,3.34-4,6.41-5.49,9.83C42.06,559.8,42,560,41.63,561.08c-1.06,3.69-.72,4.42-1.94,6.63-2,3.71-4.09,3.65-4.69,6.52-.35,1.69.3,2,.46,6.75.09,2.56-.1,2.52,0,3.66.56,6.54,6.85,8.8,6.06,14,0,.19-.25.85-.69,2.17-1.31,4-2.53,6.65-2.85,7.43-1.8,4.35.54,7.09.11,12.69-.48,6.21-3.69,7.12-10.75,20.81a70.57,70.57,0,0,0-4.11,8.69c-3.2,9.27-4.42,23.68,2.85,32.36,2.11,2.52,3.16,2.44,4.58,5,3,5.59.06,9.43,2.28,15.56,1.69,4.63,3.6,3,7.09,9.14s2.12,8.86,6.18,15.78c1.94,3.31,2.13,2.5,4.8,6.63,5.37,8.33,6.67,14.89,7.78,14.64,1-.21.63-5.26.57-5.26s-.5,9.77-.57,11.66c-.54,12.93,0,17.45-2.63,18.76-1.94,1-4.51-.36-5.15-.69-1.37-.7-2.44-1.79-4.8-6s-2-4.25-3.32-6.4c-3.38-5.31-6.6-5.85-6.74-9.15-.1-2.13,1.23-2.22,1.48-4.8.38-3.9-2.16-8.9-6.4-10.06-1.84-.51-4.9-.54-6.29,1.26s-.28,4.93,1.72,9.83c1.52,3.75,3,5.7,5.94,9.6,1.29,1.71,3,3.79,4.8,3.55.6-.08,1-.39,1.6-.23,1.13.29,1.66,1.72,2.18,3.2,1.41,4,2.11,6,2.17,6.41.32,2.28,1,7.23-2.17,10.86-.53.6-2.34,2.65-4.69,2.86-5.14.46-9.68-8.92-11.09-13.5-.57-1.83-1.28-3.62-1.72-5.48-.74-3.15-.74-4.8-1.94-5.38s-3,.57-3.2.69c-1.77,1.28-1.95,3.58-2.06,4.91a14.18,14.18,0,0,0,.8,5.26,24.4,24.4,0,0,0,3,7.21c1.4,2.14,1.37,1.16,5.95,6.06,2.29,2.45,3.36,3.83,5.14,3.89,1.41,0,2.16-.77,2.86-.35,1,.62-.25,2.81.12,5.61.19,1.47.76,2.54,3.31,6.06s4.58,6,5.26,6.86c4.7,6,3.22,8.32,9.26,20.35a42.89,42.89,0,0,1,2.63,6.17,39.86,39.86,0,0,1,1.72,7.32c1,8-2.48,10.51-1.37,17.15.35,2.14,1.22,3.9,3,7.44,3,6.13,7.1,14.37,14.86,21,2.32,2,5.08,3.94,6,7.55.44,1.81.07,2.68.34,5.83a34.25,34.25,0,0,0,1.6,7.89c1.74,4.82,5.4,8.86,10.41,14.41a9.56,9.56,0,0,1,2.17,3.66,9.44,9.44,0,0,1,.23,4.34c-.93,6,2,10.17,1.37,20.93-.28,4.83-.92,4.81-1,9.83a47.33,47.33,0,0,0,.8,11.09c1.19,5.82,2.71,6.63,4,13,.68,3.38.26,3.17.91,7.43a76.8,76.8,0,0,0,5.6,19.1c1.76,4,1.63,2.72,4.35,8.46,4,8.43,3.69,9.89,6.52,13.83s3.89,3.64,6.28,7.66c1.34,2.25,2.07,4.32,3.55,8.46a118,118,0,0,1,3.54,11.9,88.89,88.89,0,0,1,2.06,10.4c.65,4.93.43,10.19,0,20.7a28.54,28.54,0,0,1-1.37,8.69,28.18,28.18,0,0,1-3,6.06,12.82,12.82,0,0,0-2.06,2.74,8.42,8.42,0,0,0-.69,2.63c-.82,7.85-1.23,11.78,0,15.32,1,2.91,1.86,3,3,6.64a27.89,27.89,0,0,1,1.14,6.06c.35,6.32-3.87,13.58-9.72,17.95-1.14.85-10.42,7.6-17.61,4.34-3.64-1.65-4.73-5-6.17-4.46-1.18.42-1.14,2.85-.69,14.87.37,9.78.5,12.24,1.26,15.66.61,2.76,1,3.54,1.71,7.09.58,3.13.58,4.34,1.49,5.72a7.73,7.73,0,0,0,6,3.43c3.88.07,5.2-3.81,8.34-3.2,1.43.27,1.22,1.08,4.35,3.43,2.9,2.18,3.94,2.12,6.52,4a27.18,27.18,0,0,1,4.91,4.8c6.58,7.62,6.21,11.18,11.21,14.64a15.73,15.73,0,0,0,6.06,2.74c2.26.45,2.55-.07,4.23.46,2.69.86,3.18,2.63,6.17,4.8a38.62,38.62,0,0,0,5.15,2.63c1,.46,3.57,1.7,5.14,2.29,3.6,1.35,6.46,1.11,10.87,1,12-.23,10.49,1.15,17.38.46s9.13-2.22,12.8-.58a39.66,39.66,0,0,1,6.41,4c3,2.28,3.73,3.42,5.14,3.43,2.61,0,2.57-5.45,5.95-6.63,1.28-.46,2.25,1,4.46.57a6.28,6.28,0,0,0,1.83-.69c2.87-1.45,6.9-.33,8.34-.11,7.65,1.16,16.63-11.62,17-11.21.12.12-.86,1.34-2.83,3.78a28.56,28.56,0,0,1-2.89,3.42c-.33-.22,5.07-8,8.24-12.23a8,8,0,0,1,2.05-2.06c2.19-1.44,3.9-.83,6.06-1.71,1.62-.66,1.06-1.4,4.12-3.89,1.11-.9,1.29-.93,2.17-1.72a27.88,27.88,0,0,0,3.21-3.54,11.07,11.07,0,0,1,6.28-3.32c.43,0,4.21-.57,5.38,1.26.6.95,0,1.79.8,2.63a3.29,3.29,0,0,0,3.31.69c2.06-.71,1.43-3,3.78-4.35,1.3-.72,2.08-.32,3.89-1.48a14.23,14.23,0,0,0,1.6-1.26,18.77,18.77,0,0,0,2.28-2.52,23.9,23.9,0,0,0,2.75-3.89c.91-1.83.42-2,1.26-4.34a20,20,0,0,1,3.71-6.15A24.55,24.55,0,0,1,315,1189a25.77,25.77,0,0,1,3.73-2.7,27.67,27.67,0,0,1,7.09-2.86c6-1.67,9.39-2.6,13.72-2.06,5.18.66,5.51,2.64,9.6,2.18a18.52,18.52,0,0,0,8.24-3.43c.81-.61,1.23-1.82,2.63-2.41a7.41,7.41,0,0,1,3.54-.34,14.38,14.38,0,0,1,3.43.69c2.5.82,4.08.27,10.18.23,7.5-.06,8.07.77,11-.23s2.57-1.85,5.26-2.52c3.68-.91,7,0,9.38.69,4.16,1.2,3.42,2,6.06,2.51,5.76,1.06,9.13-2.92,13.26-.8a11.35,11.35,0,0,1,2.29,1.6c1.79,1.7,1.89,3.12,3.66,4.24a6.86,6.86,0,0,0,2.06.8,11,11,0,0,0,6.29-.46c2.51-.91,2.82-2,5.48-2.52a13.79,13.79,0,0,1,2.06-.23c3.62-.18,5.63.47,9.49.92,3.37.39,5.05.59,6.18.23,2.54-.82,2.63-2.28,6.06-3.55a11.91,11.91,0,0,1,4.69-.8,6.09,6.09,0,0,1,3.66.92c1.7,1.28,1,3,2.63,3.88,1.19.68,2.66.29,3.77,0a5.34,5.34,0,0,0,2.74-1.37c1.13-1.15.71-2.08,1.72-3a4.26,4.26,0,0,1,3.2-.8c2.65.3,3.05,2.64,5.14,2.86,1.7.17,3.12-1.19,4.81-2.86,2.68-2.65,3.21-4.49,4.8-6.75,3.19-4.54,5.59-3.58,9.49-7.77,2.52-2.7,3.54-5.39,5.6-10.75,3.31-8.61,2-10.42,4.58-15,3-5.28,7.51-7.89,11.32-10.06,7.87-4.51,11-2.77,22.06-6.86,6.13-2.26,10.29-4.68,16-8,10.94-6.36,11.19-8.39,19.21-13.26,6.37-3.87,20.8-12.62,37.85-11.43,6.36.44,7,1.84,15.09,2.17,7.84.32,13.73-.74,22.64-2.63,19.38-4.11,29.07-6.17,38.77-9.61,11.27-4,8.14-4.08,26.87-11.66,16.25-6.58,24.63-9.91,36.7-12A196.51,196.51,0,0,1,791,1052c10.1-.62,15.14-.93,21-.57,10.44.62,15.1,2.33,20.92,0,.76-.31,4.06-1.69,8.92-3.55a48.66,48.66,0,0,1,5.49-1.94c1.36-.25,5.34-.78,12.46,2.51a47.36,47.36,0,0,1,10.18,6.52c18.66,14.87,21.84,17.16,27.1,18.18a34.21,34.21,0,0,0,9.83.46c5.54-.73,7-2.67,12.47-2.86a21.25,21.25,0,0,1,8.69,1.37c2.3.91,3.22,1.81,8,5.6,9,7.16,10.12,7.49,11.32,7.55,3.93.2,8.28-2.46,9.49-3.2,2.4-1.47,2.95-2.45,4.69-2.63,2.49-.26,4.48,1.43,7.43,4s2.56,3,8.46,10.06c1.61,1.91,4.11,4.82,3.43,5.72-.35.47-1.41.23-1.48.57s.93.94,1.94,1.26c1.4.44,2.48.23,4.46,0a28.89,28.89,0,0,1,3.89-.34c4,.4,8,7.63,6.17,10.4-1.39,2.15-5.43.42-7.55,3.32a5.69,5.69,0,0,0-.91,3.89c.3,2.15,1.88,3,3.66,5.26.85,1,1.66,2.8,3.31,6.29,2.62,5.5,1.7,7.32,3.78,8.91.87.67,2.48,1,5.72,1.6,4.08.79,4.7.47,7,1,1.73.44,5.45,1.36,7.89,4.23,1.56,1.84,2.07,4.62,3.09,10.18a50.71,50.71,0,0,0,1.94,8.46,9.67,9.67,0,0,0,2.06,4c1.9,2,4.17,2,5.95,2.63,1.33.47,3.66,1.73,7.54,10.41a82.91,82.91,0,0,1,7.09,24.13,90.79,90.79,0,0,0,1.83,10.74,43.71,43.71,0,0,0,2.06,7.09,33.67,33.67,0,0,0,7.66,11.32c3.68,3.89,5,3.84,5.6,3.66,1.61-.48,1.9-3,3.55-3.09.36,0,.59.09,2.28,1.26a49.3,49.3,0,0,0,4.69,3.09c1.22.66,1.84,1,2.29.8,1.22-.5,1.69-3.68.57-6.06-1-2.16-2.6-2.06-4.8-4.8a14.23,14.23,0,0,1-2.29-4c-1.88-5.71,3.89-13.3,9.38-17.16,3-2.09,6.79-1,8.12-3.65a5.3,5.3,0,0,0,.34-3.21c-.82-6.42,7.67-14.26,10.18-16.58,7.54-7,16.48-10.67,22.75-13.26,3.56-1.47,6.22-2.33,9.6-4.92a33.48,33.48,0,0,0,8.81-10.52,30.49,30.49,0,0,0,4-11.77c.46-4.38-.4-6.81,1.6-9.49.89-1.19,1.21-.92,4.12-3.89,2.24-2.29,2.61-3,3.77-3.43,2.56-.89,4.43,1.77,5.83,1.37,4.1-1.16-1.17-24.28.46-24.7.3-.07.8.63,4.92,9.38,3.07,6.54,2.63,5.8,3.31,7.09,3.13,5.92,4.69,6.83,5,10.17a10,10,0,0,1-1,6.18c-2.33,4-6.61,3-8,6.29-.26.61-.38,1.29,1.26,8.57,1.21,5.4,1.3,5.09,1.37,5.83.79,7.87-11.68,10.57-15.89,22.87-.17.49,0,.13-1.49,10.87-2.5,18.35-2.54,16.69-2.63,18.86-.48,12.31,2.86,18.13-1.26,22.64a9.56,9.56,0,0,1-4.8,3c-2.67.61-3.68-.63-8-1.15-2.64-.32-7.26-.88-9.38,1.6-.33.39-.32.52-1.26,3.55a66.21,66.21,0,0,1-2.51,7.43c-1.63,3.08-2.94,3.27-3,5.15a5.2,5.2,0,0,0,2.63,4.45c1.15.61,2.26.5,8.24-1.37,3.93-1.23,5.9-1.84,8.46-2.86,4.45-1.76,4.67-3,7-3.08,2.53-.05,3.22,1.18,6.29,1a12,12,0,0,0,4.69-1.26c1.55-.77,3.57-2.2,6.06-6.29a32.28,32.28,0,0,0,5-13.84,74.67,74.67,0,0,0,.12-12.92,11.18,11.18,0,0,1,.8-6.17c.26-.56.45-.81,2.63-3.55,3.69-4.65,3.82-4.76,4-5.37.5-1.7.13-2.8,1.14-5.37.61-1.55.92-1.61,1-1.61.81,0,.88,3.06,2.29,6.52s2.66,3.77,5.71,8.58c2.87,4.51,1.74,4.23,3.55,6.52,3.23,4.09,6.08,4.3,7.89,8.34a16.11,16.11,0,0,1,1,4.12c.43,2.49.65,5.18.34,11.09-.36,6.72-.53,10.08-1.37,12.58-.78,2.33-1.62,3.72-2.75,7.66a12.7,12.7,0,0,1-1.14,3.31c-1,1.8-2.26,2.52-5.14,4.69-3.92,3-4.13,3.07-4.46,3.55-1.06,1.5-2.76,4.94-1.15,7.09,1.11,1.47,3.57,1.22,6.75.91,2.82-.27,2.91-.8,6.75-1.49,4.49-.8,5.33-.25,6.74-1.37,1.95-1.54,1.38-3.4,3.2-4.34.5-.26,1.51-.62,5.38.57a37.77,37.77,0,0,1,8.69,3.89,39.94,39.94,0,0,1,5.94,4.57c18.35,17,26,30.87,26,30.87,4.6,8.38,7,12.79,7.55,19.67.65,8.67-1.74,19-5.49,22.18a4.51,4.51,0,0,0-1.49,2.06c-.83,2.61,1.51,5.41,3,7.43,3.3,4.58,1.9,5,5.84,12.12,4.19,7.64,5.89,7.42,12.57,17,5.92,8.53,6.29,11.17,11.67,17.38,5.91,6.84,6.35,4.67,10.4,8.81.52.52,1.93,2,3.77,1.94a4.1,4.1,0,0,0,1.83-.57c2.92-1.49,6.67-.62,11.78.57a13.87,13.87,0,0,1,4.12,1.49,12.13,12.13,0,0,1,2.74,2.17c3.39,3.4,7.22,6.32,10.81,9.5.5.45,1.65,1.47,3.18,2.76s1.16.94,2,1.64c2.26,1.95,2.34,2.29,2.91,2.34,1.19.08,2.21-1.34,3.54-3.21s1.36-2.56,2.75-4a6.43,6.43,0,0,1,1.94-1.6c.55-.26,1.71-.67,5.6.23a23.32,23.32,0,0,1,4.58,1.37c4.14,1.8,4.41,3.61,8.34,5.15,1.88.73,3.06,1.19,4.58.91,2.23-.41,2.87-2,5.37-2.51a8.3,8.3,0,0,1,4,.22c3.8,1,5.23,4,8,6.87,1.38,1.42,5.07,3.35,12.46,7.2,5.23,2.73,9.44,4.68,11.66,5.72,8.53,4,8.29,3.36,11.67,5.26a35,35,0,0,0,6.29,2.85,19,19,0,0,0,3.77,1c5.88.74,11-4.45,11.21-4.68,2.8-2.93,3.24-5.79,5.83-9.84C1446.8,1451.11,1447.72,1449.68,1448.85,1447.7Z"/><path d="M1517.92,1438.55c.13-.48-.45-1.08-1.6-2.29-.87-.9-1.3-1.35-1.72-1.48-1.62-.51-3.29,1.13-3.89,1.71a2.1,2.1,0,0,0-.8,1.38,1.94,1.94,0,0,0,.57,1.37,2.86,2.86,0,0,0,2,.68,11.78,11.78,0,0,0,4-.34,7.05,7.05,0,0,1-1,.11C1515.38,1439.61,1517.67,1439.46,1517.92,1438.55Z"/><path d="M1511.86,1445.3c.32-.46-.95-1.88-1.6-2.52a5.62,5.62,0,0,0-2.86-1.71,3.54,3.54,0,0,0-2.86.45c-.35.28-1,.93-.8,1.38s1.24.2,3,.8c.88.3.8.44,2,.91C1509.47,1445,1511.51,1445.78,1511.86,1445.3Z"/><path d="M1892,847.28a4.46,4.46,0,0,0,1-.8,5.4,5.4,0,0,0,1.23-1.94,7.19,7.19,0,0,0,.33-3.32c-.08-.73-.22-2-.74-2.17s-1,.62-1.07.69c-.53.81-.46,1.83-.49,3.43C1892.26,844.18,1892.2,845.58,1892,847.28Z"/><path d="M1892.51,828.51a1.78,1.78,0,0,1,2.62-.14c.23.22.39.52.69,1.61a19.47,19.47,0,0,1,.71,3.24c.24,1.93.5,4,.1,4.17-.24.08-1-1.46-2.52-4.53C1892.86,830.33,1892.24,829.05,1892.51,828.51Z"/><path d="M1883.8,829c-.5.67.75,3.8,1.33,3.66.42-.11.92-2.16.08-3.2C1884.8,828.91,1884.06,828.62,1883.8,829Z"/><path d="M1882.44,686.63c-1.22-.36-3.55,2-3.77,4.46,0,.31-.05.87,1,3.89,1.29,3.61,1.75,4,1.6,5.14s-1,2-2.63,3.78a34,34,0,0,1-5,4.34c-3,2.06-4.14,2.16-4.46,3.43s.42,2.38,1.49,4.12c1.65,2.69,3.06,3.24,2.85,4.46-.15.89-1,.8-2.28,2.4a11.11,11.11,0,0,0-2.06,4,13.64,13.64,0,0,0-.57,3.43,19,19,0,0,0,.91,6.86c1,3.27,2,4.32,2.4,4.69s1.39,1.27,2.18,1c1.11-.33,1.45-2.6,1.37-4.12-.13-2.51-1.38-2.84-1.49-5-.06-1.13.53-2.47,1.72-5.14a46.48,46.48,0,0,1,2.74-5.38c2.15-3.62,2.53-3.2,3.09-4.91.77-2.36.07-3.17,1.14-6.06.45-1.22.59-1.11,1.26-2.86.79-2.07.77-2.66,1.49-4.23.8-1.78,1-1.49,1.6-2.86.32-.79,1.31-3.22.45-5.38-.49-1.23-1.14-1.28-2.17-2.51C1882.53,690.85,1883.87,687.06,1882.44,686.63Z"/><path d="M1558.85,369.33c-.43-2.2-2.54-3.37-4.91-4.69-.48-.26-2.94-1.63-3.32-1.14s1.18,1.67,2.86,4.23c2.49,3.81,2.55,6.19,3.54,6.17S1559.26,371.42,1558.85,369.33Z"/><path d="M1241.89,271c-.78,1.69-3.24,1.88-5.26,2.41a16.77,16.77,0,0,0-7.2,4c-1.06,1.08-1.81,2.55-3.32,5.49-1.4,2.74-2.09,4.12-1.6,4.8,1,1.39,5.68-.47,6.52-.8,1.75-.7,5.73-2.28,8.23-6.18,1.1-1.7,1-2.41,2.06-3.08,2.55-1.6,5.7.8,6.75-.46.87-1.05-.56-3.64-1.6-4.92s-3.06-2.83-4-2.28C1242.11,270.17,1242.1,270.54,1241.89,271Z"/><path d="M1109,146c-1.8-.5-4.58-1.26-7.44.11a8.19,8.19,0,0,0-2.85,2.29c-1.7,2.13-1.8,4.49-2,8a19.43,19.43,0,0,0,.34,5.26c.5,2.32.91,4.2,2.41,5,1.27.71,2.19,0,3.54,1,.94.7.83,1.29,1.72,1.95s1.82.58,3.65.68c2.48.14,2,.43,7,.92,2.5.24,3.1.22,3.54-.23.8-.81.64-2.55,0-3.77-1.29-2.52-4.14-2.09-5-4.46a8.61,8.61,0,0,1,0-3c.21-2.5.63-3.25.92-5.49.32-2.49.48-3.74,0-4.8C1113.86,147.35,1111.17,146.61,1109,146Z"/><path d="M812.08,28.47a9.21,9.21,0,0,0-4.92,1.37c-1.06.69-3.09,2-3.32,4.12a5.44,5.44,0,0,0,.46,2.52c.62,1.57,1.42,1.84,1.72,3.08a4.82,4.82,0,0,1-.35,2.75c-.58,1.8-1.43,2.47-3.2,5.6-.61,1.08-.67,1.29-.57,1.49.46.85,3.32-.51,8-.46a34.68,34.68,0,0,1,4,.34c3.3.39,6.29.92,6.29.92,3.07.54,4.14.86,4.68.23s.12-2,0-2.29c-.37-1-1.13-1.86-3.77-3.43-3.26-1.94-4.23-1.94-4.8-3.09-.32-.64.09-.81.34-4,.09-1.1.13-1.65.12-2.06a11.1,11.1,0,0,0-1.95-5.49,3.68,3.68,0,0,0-1.37-1.25A3.42,3.42,0,0,0,812.08,28.47Z"/><path d="M817.22,24.24a4.85,4.85,0,0,0-.8,2.75,6.28,6.28,0,0,0,.23,2.85c.33.93.65,1,1,1.83s.27,1.45.34,3.55c.09,2.3.14,3.46.69,4.46a11.4,11.4,0,0,0,1.83,1.94,34.09,34.09,0,0,0,3.66,3.2c2.17,1.59,2.24,1.07,3.77,2.29,2.18,1.73,1.92,2.7,4,4.23,1.43,1,1.63.65,3.66,1.83,3.43,2,3.44,3.44,5.15,3.77.87.18,2.16.05,7.2-4.34s4.44-4.88,7.09-6.63c4-2.66,5.84-1.83,8.69-4.69A9.63,9.63,0,0,0,866.85,36c.77-4.75-3.31-8.62-4.35-9.61a10.27,10.27,0,0,0-3.66-2.4,10,10,0,0,0-5.6-.34c-2,.47-2.33,1.26-5.14,3-2.36,1.44-4.67,2.85-7.55,3.32s-3-.64-7.43-.57c-4.62.07-7,1.37-8,.11-.78-1,.52-2.23-.23-3.77C823.73,23.34,818.81,22.46,817.22,24.24Z"/><path d="M2.64,725.51c-.82-.11-1.95,2.47-2.4,4.57s-.21,3.79.23,6.63a31.14,31.14,0,0,0,1.6,6.52,64.61,64.61,0,0,0,3.09,6.18c.33.63,1.59,3,3.43,6.06,2.29,3.81,2.76,4.2,3.09,4.11.57-.14.57-1.81.57-4.8,0-2.69,0-4-.34-5-.88-2.52-2.33-2.29-4-5.15A36,36,0,0,1,6,738.43c-.82-3-1.23-4.51-1.6-6.18C3.28,727.41,3.31,725.6,2.64,725.51Z"/><path d="M1151.68,1281.56c-1.12-2,1-3.88-.35-5.72-1.13-1.57-3.63-1.53-6.86-1.49a24.17,24.17,0,0,0-9.14,2c-2.14.92-1.89,1.18-3.66,1.83-2.24.82-3.36.67-8.12,1-6.6.5-7.81,1-8.46,1.37-2.22,1.13-2,1.9-4.12,2.74-3.33,1.31-5.35,0-6.52,1.38-.54.64-.37,1.25.12,5.26.71,5.84.6,6.53,1.48,7.77a8.05,8.05,0,0,0,4.35,3c2.63.66,4.1-.62,7.32-1.37,3.71-.86,3.34.47,11.09.46,5.88,0,7.62-.78,10.86.57,1.8.75,2.07,1.33,3.55,1.49,3.1.34,6.27-1.74,8.11-4,2.06-2.52,1.26-3.79,3-4.91,1.28-.84,2.31-.52,8.46.11a47.45,47.45,0,0,0,6.86.46c2.92-.13,7.52-.83,7.66-2.17.06-.64-1-.86-4.69-3.55a18.18,18.18,0,0,0-3.2-2.17,10.84,10.84,0,0,0-4.92-.8C1161.89,1284.8,1153.52,1284.92,1151.68,1281.56Z"/></g></g></svg>