<svg xmlns="http://www.w3.org/2000/svg" viewBox="0 0 1908.33 1501.89"><g id="Layer_2" data-name="Layer 2"><g id="Azerbaijan"><path d="M1551.21,488.17c-1.23,3.42-2.57,3.57-4.22,8.21a33.3,33.3,0,0,0-1.77,9.21c-.28,3.79.11,6.7.89,12.53,1.07,8,2,9.76,2.55,10.65,1.35,2.22,2.84,3.39,5.65,5.54,4.26,3.27,9.16,7,16.2,8.54,4.86,1,5.2-.17,11.42,1.22a32.08,32.08,0,0,1,9.32,3.22c3.81,2.12,3.79,3.37,9.2,7.1a58.14,58.14,0,0,0,7.1,4.21c4.48,2.2,7.35,2.68,11.53,3.88,12.39,3.56,12.41,6.55,20.86,7.66,2.08.27,5.34.1,11.86-.23,9.49-.47,14.33-.76,18.75-2.88,5.23-2.51,4.44-4.3,9-5.88,3.79-1.31,5.26-.38,16.53.45,7.93.58,9.19.27,14.64,1.11s8.16,1.28,10.64,2.88c5.21,3.36,7.65,9.24,8.1,10.31,1.69,4.06,1,5.67,3.22,7.88s5.28,3,7.09,3.44c2.16.52,2.87.32,6.55.55,5.78.37,5.79,1,11.2,1.33,6.06.41,6.2-.33,9,.45a19.73,19.73,0,0,1,8.32,5c2.88,2.68,2.31,3.45,7.77,11.42,3.12,4.57,3.82,5.06,5.54,8.21,1,1.75,1.2,2.44,3.44,6.76,2.69,5.2,3.14,5.77,3.55,6.21,1.21,1.33,2.38,2,8,4.11,9,3.45,10.67,3.57,12.54,5.77,1.52,1.79,2.1,3.67,2.88,6.21,1.07,3.46.85,5.3,1.22,9.31.53,5.72,1.33,5.84,2.44,13.09s.15,6,1.11,11.2c1,5.55,2.73,10.3,3,17.86,0,1.38.07,3.26-.55,3.44-.8.22-2-2.63-4.77-7.1a64.53,64.53,0,0,0-6.1-8.32,49.21,49.21,0,0,0-7-6.32,115.62,115.62,0,0,0-17.74-11.65c-4.69-2.5-7.1-3.77-10.65-4.77a86.86,86.86,0,0,0-9.76-1.88c-3.79-.62-5.69-.93-7.65-1.11-4.55-.43-5.91,0-17.64.78-5.76.36-8.69.54-10.64.44-4.45-.23-5.68-.83-9.21-.44-3.14.34-6.21.67-8.76,2.88-1.5,1.3-1.32,2-4.55,5.32a11.14,11.14,0,0,1-3.77,3,7.85,7.85,0,0,1-4.44.66c-4.15-.74-6.34-5.66-6.87-6.87-1.35-3-.67-4.17-2.11-5.77-1.06-1.19-2.41-1.67-6.65-2.33-5.7-.89-10.24-1.56-16.42-.78a18.35,18.35,0,0,0-5.77,1.45c-2.4,1.11-2.48,2.31-5.54,4.21-2.75,1.7-3.27,1.23-4.55,2.55a10,10,0,0,0-2.44,6c-.28,2.34.3,2.62.33,5.43,0,2.1.06,5.73-1.88,8.32-1,1.31-1.83,1.49-6.55,3.55-7.67,3.36-7.11,3.62-10.09,4.55-4.49,1.4-4.8.51-10.09,1.77a55.78,55.78,0,0,0-11.54,4.33c-5.87,2.77-8.21,4.68-11.86,6.77-11.08,6.31-13.6,2.45-26.62,8.65a95.08,95.08,0,0,0-16.08,10.09,62.34,62.34,0,0,0-8.21,7c-1.75,1.78-1.42,1.71-3.11,3.43-4.84,4.95-7,5.14-8.09,8-.85,2.24.33,2.58,0,6.21-.3,3.2-1.68,5.73-4.44,10.65-3.81,6.8-5.08,7.08-5.77,10.65-.29,1.55-.19,2.23-.88,6.65-.3,1.9-.45,2.63-.89,5.32-.47,2.86-.75,4.87-.89,5.77-.35,2.35-2.84,19.18-4,19.08-.36,0-.63-1.7-.45-3.11s.71-1.9,1.34-3.55c.72-1.9,1.06-3.93.88-4s-2.22,6.28-6.65,17.3a33,33,0,0,0-2.66,8.88c-.14,1-.28,2.54,0,8,.35,7,1,12,.88,12a64.94,64.94,0,0,1-.88-7.1c.17,0,1.46,6.11,2.21,12.87.29,2.54.45,4.88.45,4.88.14,2.08.12,2.6.22,4a63.22,63.22,0,0,0,.89,6.32c.74,4.76,1.12,7.14.88,8.1-.82,3.36-3.13,3.38-5.87,9a22.61,22.61,0,0,0-1.45,3.55c-1.28,4.14-.77,7.06-.77,9.76,0,6.76-3.14,6.55-4.55,16.41a23.41,23.41,0,0,0,.33,9.54c.54,2,1.24,4.56,3.44,6.1,1.66,1.16,2.5.58,3.66,1.67,2.54,2.36,1.2,7.57.89,8.76a15.39,15.39,0,0,1-4.44,7.32,11.9,11.9,0,0,1-4.32,3c-1.55.44-1.82,0-3.22.34-1.15.31-2.33,1-5.32,4.65-2.6,3.17-2.13,3.17-3.55,4.66-2.7,2.84-3.88,2.32-6.1,4.66-.82.86-1.4,1.71-3.88,7.43-1.59,3.65-2.38,5.48-3.33,8-2.13,5.62-2.42,7-4.77,13.86-3.43,9.93-4.14,10.7-4.77,14.75a55,55,0,0,0-.44,10.09c.06,5.36.63,9.27,1.77,17.09.54,3.66.78,4.74,1.44,6.1,1.59,3.24,3.74,4.35,7.43,7.32,3.91,3.13,7.81,6.26,10.87,11,2.88,4.42,2.16,5.85,5.22,9.09s4.86,2.78,7.09,5.55c1.68,2.07,1.38,3.2,2.89,13,.63,4.09,1.68,10.38,1.22,16a10.89,10.89,0,0,1-1.44,4.77c-.79,1.34-1.77,3-3.22,3.22-2.32.36-3.26-3.34-8.87-7.54a21.91,21.91,0,0,0-6-3.33,30.79,30.79,0,0,0-5.77-1.11,42.8,42.8,0,0,0-6.65-.67,20.9,20.9,0,0,0-9.21,2.67,23.73,23.73,0,0,0-7.76,6.65,24.61,24.61,0,0,0-4.44,10.09,35.9,35.9,0,0,0-.55,6.88c-.25,7.6-.37,11.41-.23,15.31.28,7.64.91,8.14.67,13.42-.2,4.41-.64,4.14-1,9.31-.49,7.27.36,8.14-.22,14.53a36.68,36.68,0,0,1-2,10.43c-1.58,4.27-2.58,4-4.43,8.32a34.61,34.61,0,0,0-2.66,14.41c.16,4.49,1.15,5,1.55,8.77,1.21,11.37-6.34,20.79-6.66,21.18-5,6.12-7.18,3-17.3,11.87-3.38,3-5.79,5.63-10.31,6.65-1.59.36-5.45,1.17-9.1-1-1.09-.65-5.39-3.48-5.1-8.2.18-2.94,2.65-4.77,6.54-7.77a77.72,77.72,0,0,1,7.55-4.66c2.32-1.34,4.53-2.57,7.54-4.65,2.34-1.63,3.45-2.6,4.32-4.11a12,12,0,0,0,1.33-4.66c1.19-7.25,2.46-6.79,2.44-10.31,0-4.41-2-7.74-3.32-9.87-1.52-2.51-2.8-4.63-5.33-5.77-1.48-.67-2.17-.45-7.65-.55-7.19-.14-8.16-.56-8.87-1.22-1.1-1-.84-1.92-1.67-7.21-.79-5.11-1.21-7.73-2.55-10.65-1-2.09-1.08-1.53-3.32-5.55-3.13-5.58-2.67-6.28-4.11-7.32s-4.51-.75-10.87-.33a36.58,36.58,0,0,0-8.2,1.11c-2.88.81-4.34,1.23-5.77,2.44-2.62,2.22-2.46,4.87-4.33,10.32-2,5.7-2.76,4.62-4.1,9-1.8,5.85-1.37,11.11-.89,17,.09,1.13.06.36.89,7,2.22,17.62,1.93,18.69,3.44,21.73a11.57,11.57,0,0,1,1.55,4.88c.12,2.49-.82,3.65-2.33,7.32-2.63,6.39-1.59,7.29-4.1,11.76-1.59,2.82-2.08,2.62-3,4.88-1.21,3-.88,4.74-2.66,7.21-1.09,1.51-1.43,1.16-2.22,2.44-1.5,2.43-.77,4.53-1,7.76a19.91,19.91,0,0,1-2.55,8.32c-1.44,2.63-2,2.13-6.76,7.65-3.18,3.71-3.45,4.54-5.44,6-3.08,2.26-4.18,1.51-6.21,3.11-4.51,3.54-4.17,11.18-4,15.08s1,6.5,2.44,11.65c1.84,6.38,2.55,6.35,3.88,11.42a60.66,60.66,0,0,1,2,14.2c.08,6.1-.93,6.76-.67,11.87.32,6.14,1.87,6.71,2.89,12.86,1.77,10.7-2.46,11.7-.78,23.18.57,3.88,1.49,6.73,1,11.65a39.07,39.07,0,0,1-2,8.32c-1.68,6-.16,7.53.78,23.06.81,13.41-.22,14,1.11,18.64A55.65,55.65,0,0,1,1335,1472c.15,1.62,0,2.56.23,4.65.41,3.39,1.09,4.47.44,5.44s-2.35.89-5.66.89c-3.66,0-7.31.42-11,.55-6.4.23-5.34.44-8.43.44-8.78,0-10.58-1.64-13.75.12-2.4,1.32-1.4,2.3-5.43,6-1.84,1.68-4,3.08-8.43,5.88-3.51,2.24-5.26,3.35-6.44,3.77-2.78,1-3.44.46-10.09,1.22-5,.58-5.37,1-8,1a28.06,28.06,0,0,1-8.88-1.44c-4.19-1.27-6.37-1.94-8.31-3.88-2.25-2.25-1.88-3.92-4.77-11.09-.39-1-1.6-4-3-6.66-2.76-5.32-4.91-6.84-13.64-17.41-3-3.62-4.51-5.47-5.66-7.21-3.15-4.79-3-6.17-6-10.54a56.83,56.83,0,0,0-6.87-8c-5.13-5.19-6.09-4.74-8.1-7.88-1.07-1.67-3.65-5.69-3.1-10.53.4-3.55,2.12-4.31,1.44-6.44-1.21-3.78-7.75-4.81-8.88-5a13.33,13.33,0,0,0-5.87.23c-2.5.7-3.17,1.77-6,3.43a23,23,0,0,1-8.21,3.22,15.85,15.85,0,0,1-10.09-1.44,17.56,17.56,0,0,1-5.33-4.88c-2.33-2.88-2-3.68-3.77-6.1-2.07-2.82-4.89-4.58-10.53-8.1-4.45-2.77-5.54-3-6.44-4.77-1-2-.26-3-.55-7.76a49.51,49.51,0,0,0-1.33-8.54c-.82-3.59-1.49-6.55-3-9.21-2.39-4.23-6.08-6.3-10.09-8.43-10.08-5.35-14.57-7.09-20.74-10.2-7.52-3.79-14.64-7.43-22.07-14-2.45-2.17-2.22-2.25-9.1-8.66s-7.71-6.9-9.09-9.2c-1.07-1.8-4.41-8-2.77-15,.82-3.52,2.6-6,5.54-10,2.65-3.61,3.12-3.17,5.88-6.76,4.57-5.94,4.06-8.06,7.54-11.2,2-1.83,4.26-2.72,8.65-4.44a93,93,0,0,1,15.86-4.66,143.83,143.83,0,0,1,22.63-2.22c6.5-.16,8.17.19,11.53-1s3.37-2,11.65-7.43c6.24-4.07,7.43-4.38,8.65-6.55.53-.94,1.2-2.46,1.44-9.87a84.45,84.45,0,0,0-.11-11.31c-.83-10-1.38-16.45-5.43-22.52-2.49-3.72-5.18-5.6-10.32-9.2-8.9-6.24-12.19-5.09-20-11.54a87.49,87.49,0,0,1-8.21-8c-3-3.25-5.05-5.94-6.54-7.88a104.87,104.87,0,0,1-7.32-10.42,37.46,37.46,0,0,1-4.88-21.63,35.77,35.77,0,0,1,6.32-17.41c5.49-7.77,12.77-11.17,16.64-13a72.14,72.14,0,0,1,10.42-3.77c1.78-.47,2.39-.55,9-2.11,5.92-1.39,6.34-1.55,6.87-1.77,2.3-1,3.25-1.88,8.32-5.77,3.35-2.57,4.2-4.79,6.32-4.77l1.33.11c3.61.31,3.9.35,4.55.33,1.84,0,2.92-.08,3.55-.77,1-1,.37-3-.78-6.1-2.64-7-4.1-9.32-4.1-9.32-5.24-8.32-10.53-15-16.75-23.18-3.74-4.94-2.88-3.92-4.32-5.77-7.5-9.55-12.22-13.36-19-20.74-4.57-5-7.43-8.73-12.2-15-12.91-16.89-13.5-21.39-23.07-30.83-5.76-5.68-5.93-4.43-11.2-10-5.71-6-9.14-11.3-16.86-16.86-2.91-2.1-5.86-3.83-8.87-3.11-1.48.36-2,1.07-5.66,3.55a42.18,42.18,0,0,1-6.43,4c-3.92,1.64-5.57-.2-12.76-.44-6.12-.21-5.76,1.1-13.75,1.22-7.18.11-7.72-.94-10.87.11-3.58,1.2-5.82,3.54-9.65,7.54s-3.77,5.08-6.65,8-3.75,2.78-11.76,7.76c-8.5,5.3-12.76,7.95-16.19,10.87-2.37,2-3.82,3.52-6.77,4.88-4,1.84-5.35,1-8.31,2.89s-2.35,3.41-6.1,6.65c-3.09,2.66-4,2.09-7.32,4.77-2.94,2.39-3.37,3.81-6.1,6.88a47.14,47.14,0,0,1-9.54,8c-5.18,3.09-6.81,1.81-18,5a117,117,0,0,0-13.53,4.77c-5.38,2.29-10,4.27-15.42,8.21a58.86,58.86,0,0,0-14.08,14.53,60,60,0,0,1-4.33,7.65c-1,1.41-1.88,2.43-2.55,3.22-2.81,3.29-3.8,3.7-7.21,7.32-2.78,2.94-2.53,3.09-4.1,4.43a27.41,27.41,0,0,1-6.32,3.89c-6.58,3.28-5.79,4.21-13.09,8.09-2,1.09-4.51,2.2-9.43,4.44-4.08,1.85-6.12,2.78-8.1,3.55-7.78,3-8.77,1.54-14.3,3.88-1.62.68-5,3.08-11.76,7.87-6,4.29-7.48,5.61-8.54,7.88s-.64,3-2.11,7.21a75.84,75.84,0,0,1-3.1,7.1c-3.1,7.29-.59,8.79-3.22,14.75-1.09,2.48-.91.82-7.54,10.31-2.25,3.22-3.36,5-5.77,6.88a45.28,45.28,0,0,1-6,3.55c-5.17,2.81-7.76,4.21-8,4.32-8.31,4.21-12.47,6.32-16.31,6.21a21.52,21.52,0,0,1-9.31-2.66c-5.08-2.72-8-6.89-9.65-6-.51.29-.08,1.26-.78,1.78s-1.93-.31-2.88.11c-1.25.54-1.25,3-1.33,4.1-.17,2.32-1.63,4.69-4.55,9.43-3.83,6.22-6,6.36-9.87,12.31-1.86,2.87-1.59,4.9-3.88,7.54-1.82,2.1-2.47,1.78-5.33,4.33a25.84,25.84,0,0,0-7,9c-1.34,3.1-.44,3.21-2,6.88a32.11,32.11,0,0,1-4.66,7.54,22.88,22.88,0,0,1-4.66,4.88c-2.33,1.7-4,2-7.32,3.1-4.36,1.47-9.1,3.07-13.53,6.44A29.5,29.5,0,0,0,607,1247a36.65,36.65,0,0,0-3.55,6.77,145.24,145.24,0,0,1-8,15.08,55.41,55.41,0,0,1-6.21,8.54,53.83,53.83,0,0,1-5.44,5.1c-5.13,4.36-7.69,6.53-10.76,7.21a15.37,15.37,0,0,1-10.2-1.55c-5-2.78-6.86-7.83-8.32-12.09-1.23-3.61-2-7.48-2-16.86,0-5.87.23-13.32,1.78-28.17,1.38-13.3,1.69-12.2,1.66-15.75-.07-8.24-.16-18.71-6.65-26.4-2-2.36-1.5-.79-17.42-12.86a26.28,26.28,0,0,1-7.87-8.76c-1.21-2.29-3.13-5.93-1.77-9.43,1-2.48,3.1-3.7,5.76-5.21,2.37-1.35,5.93-3.38,10-2.89,3.41.41,3.87,2.2,10.32,6.55,5.78,3.89,8.67,5.84,12.53,6.1,1.81.11,5.15-1.07,11.76-3.44,8.81-3.17,9.89-4,10.76-5,3.92-4.42,3.05-10.94,3-11.32-1.12-7.62-7.63-8.56-17.41-21.29-4.06-5.28-2.83-5-7.32-10.76s-9.09-11.61-16.53-16.19c-3.29-2-3.6-1.64-10.2-5.44-5.64-3.24-8.47-4.86-10.54-7a26.91,26.91,0,0,1-7-13.65c-.6-3.31-1.62-8.9,1.33-14,4-6.89,13.33-9.42,20-9.09,6.28.3,8.83,3.11,12.76,1.22,4.16-2,5.61-7.23,6.1-9,2.3-8.3-2.36-13.2,1.1-17.3,1.49-1.76,2.86-1.47,5.22-4.33a17,17,0,0,0,3.1-5.76c.43-1.42,2.15-7.07-.66-11a10.09,10.09,0,0,0-5.88-3.55c-13.34-3.6-22.76,1.25-33.5-2.33-7.37-2.46-10.3-5.87-11.31-7.32-2.12-3-.62-5.33-2.88-7.54-2.9-2.82-7.88-2.53-11.32-2.33a29.27,29.27,0,0,0-5.87,1,42.77,42.77,0,0,0-11,4.88c-1.88,1-9,4.93-17,5.32-1.61.08-13.09.64-18.75-6.43-2.86-3.58-1.15-5.26-4.65-11.87a33.08,33.08,0,0,0-9.1-11.2c-6.23-4.71-9.11-2.54-16.3-7.32a37.17,37.17,0,0,1-10-10.1c-5-7.49-2.78-10.41-7.65-17.3-2.35-3.33-5.08-5.47-10.53-9.76a75.35,75.35,0,0,0-15.31-9.65c-4.08-1.89-4.52-1.61-10.54-3.88-11.07-4.18-18.38-7-24.73-13.31a41.87,41.87,0,0,1-8-11.53c-5-9.95-2.29-12.86-6.55-22.07a41,41,0,0,0-14.75-17.31A40.51,40.51,0,0,0,298,830.33c-6.18-1.51-8.18-.68-20.74-1.33-13-.67-15.86-1.81-18.08-3.88s-4.8-6-3.88-9.65c.26-1,1.1-3.22,10-7.76,6.58-3.37,9.88-5.05,13.75-5.66,5.31-.83,10.08.33,19.63,2.66,6.92,1.69,6.76,2.2,12.76,3.44A76.45,76.45,0,0,0,326.54,810a84.3,84.3,0,0,0,12.87-.89c4.15-.54,4.08-.78,10.09-1.67,8.58-1.27,9-.82,10-1.77,3.29-3.13-.78-8.22,2.11-17.64a48.81,48.81,0,0,1,3.32-7.2,72.78,72.78,0,0,1,8.66-13.76c2.68-3.28,2.85-2.79,5.76-6.43,3.36-4.19,5.41-6.75,6.44-10.2,1.31-4.44-.52-5.4-.45-11.87.11-9.06,3.74-10,3.22-17.19a25.18,25.18,0,0,0-5.66-13.53,28.06,28.06,0,0,0-14.19-9.76c-6.7-1.88-8.64.6-15.09-1-5.86-1.46-8.37-4.54-14.64-9.65-5.65-4.61-3.18-1.76-24.29-15.75-14.16-9.38-14.28-10-23.4-15.64-4-2.45-8.66-5.23-16.08-9.65-11.45-6.8-11.21-6.54-13.75-8.2-10.67-7-16-10.5-19-16.75-2.46-5.2-.69-6.41-3.77-12.76-1.85-3.81-3.23-4.91-9.43-12.31-11.74-14-12.61-17-13-19-1.23-6.6,2.09-7.57.33-12.54-2.59-7.26-10.2-6.57-17.19-15.41a29.42,29.42,0,0,1-6-12.76c-2.46-13.49,7-24.83,9.54-27.84,3.74-4.47,8.22-7.38,17.19-13.19,9.17-6,12.59-6.82,22.62-13.65,6.87-4.67,10.36-7.07,12.87-10.53,1.25-1.72,7.71-10.62,5.54-21.63a25.22,25.22,0,0,0-4.21-9.65C252,433,247,433.13,239.14,426c-6.11-5.62-3.6-6.22-9.09-11.09-9.85-8.72-19.08-7.8-21.07-14.75-.51-1.75.27-1.13.22-7.54-.07-8-.17-12.53-3.22-15.08-2.38-2-5.53-1.93-7.1-1.89-2.7.07-3.75.93-11.09,4.1a56.06,56.06,0,0,1-7.65,3c-2.58.62-6.54,1.58-10.65.33-5.22-1.58-4.87-4.95-10.31-7-2.06-.76-2.36-.37-10.54-.77-7.95-.39-12-.61-13.75-1.89-3.68-2.63-1.85-5.49-6.32-11.09-1.51-1.89-5.07-6.22-11.1-7.54a15.12,15.12,0,0,0-9.31.55c-3.9,1.68-4.14,4.2-7.1,4.55-3.55.42-6.62-2.78-8.21-4.44a15.86,15.86,0,0,1-4.66-10.31c-.06-1.6-.25-6.62,3-9.43,3.41-2.95,8.85-1.93,15.64-.66s8.19,2.87,12.09,2.1c4.27-.84,7-3.61,8.65-5.21,2.41-2.4,6.86-6.85,6.1-12.86-.2-1.56-2.91-4.51-8.21-10.43-2.2-2.46-3.56-3.84-5.77-5a22.88,22.88,0,0,0-6.1-1.89,72.49,72.49,0,0,0-8.65-1.33c-4.76-.5-8.55-.72-9.54-.77-8.65-.49-9.72,0-11.42-1.22-2-1.38-2.62-4.15-3.88-9.65C77.63,278,79.18,275.21,76,270.68c-1.29-1.83-2.37-2.56-3.21-4.88a14,14,0,0,1-.11-8.65c1.46-4.63,5.14-6.64,13.31-12,4.34-2.84,8.5-5.95,12.86-8.76,18.86-12.14,18.62-23.08,38.38-35.6,3.81-2.42,7.23-4,14.08-7.1,10.88-5,14.88-5.61,18.63-4.44,2.34.73,1.94,1.34,6.1,3.77,2.24,1.3,9.41,5.4,18.08,6.21,6.61.63,6.13-1.41,15.2-1,8.18.37,11.91,2.17,13.42,3,3.18,1.74,4.5,3.47,7.1,6a72.21,72.21,0,0,0,18.3,12.42c10.26,4.59,10.95-.19,21,4.22,9.73,4.28,13.15,10.59,20.29,9.42,2.72-.44,3.93-1.63,7.55-1.55s9.11,1.41,9.87,4.66c.42,1.81-.77,3.56-1.22,4.21-1.62,2.38-3.59,2.32-6.32,4.44a15.22,15.22,0,0,0-4.11,4.88c-2.85,5.91,1.18,13.19,2.66,15.86a28.9,28.9,0,0,0,6,7.43c4.24,3.76,7.27,4.26,12.2,7,6.51,3.6,5.78,5.27,12.2,9.65,5.46,3.71,11.77,5.76,24.4,9.87,7.58,2.46,7,1.91,14.53,4.43,8.9,3,11,4.17,16.31,5.33a65.79,65.79,0,0,0,39.7-3.88c4.58-2,4.51-2.72,10.43-5.33,6.49-2.86,10.35-4.55,15-5.1,12.52-1.48,22.82,6.42,25.51,8.65,5.44,4.52,3.21,5.32,10.87,14,6.67,7.53,13.81,15.6,24.29,18.52.5.14,5.12,1.41,11.2,3.33,5,1.57,7.15,2.37,9.43,4.32a23.21,23.21,0,0,1,4.54,5.44c1.64,2.86,1.53,4.38,3.44,6.1a11.8,11.8,0,0,0,4.33,2.21,27.07,27.07,0,0,0,6.65,1.45c4.74.53,7.11.79,8.54.33,5.6-1.81,4.74-9.13,11.54-14.53a15.67,15.67,0,0,1,7.65-3.66c6-.88,9.47,2.92,14.86.89a10.55,10.55,0,0,0,4-2.67c2.53-2.75,2.46-5.94,3-9.76.91-6.53,2.22-5.26,4.77-15.74,1.07-4.39.56-3.47,2.33-12.09,2.48-12.12,3.54-14.19,4.32-15.53,2.85-4.83,4.55-4,6.77-8.65,2-4.25,2.17-8.22,2.33-12.87a43.92,43.92,0,0,0-.78-11.31c-2.06-8.68-8.14-12-26.28-28.84-7.53-7-5.92-5.88-8.54-8.09-19.38-16.34-30-11.15-50.47-25.85-8.81-6.34-10.34-9.84-20.63-15.63-5.51-3.11-8.73-4.17-12.75-8.32-4.92-5.08-7.17-10.79-9-15.42a100.29,100.29,0,0,1-4.54-15.86c-1.89-8.85-2-14-4.88-14.86-1.76-.54-4.08.64-5.66,1.44-2.67,1.36-2.54,2.32-4.44,3.11-3.29,1.36-7.57.08-10.2-2.22a11.51,11.51,0,0,1-3.1-4.77c-2.61-6.55-2.54-12.78-2.33-17.3.49-11,1.64-9.69,1.55-16.42-.13-9.31-2.33-12.12-.11-18,.62-1.63,2.22-5.84,6.1-7.66,2.15-1,3.11-.39,9.54-.44s6.27-.67,11.42-.56c7,.16,6.94,1.29,10.31.67,4.67-.85,7.88-3.59,11.1-6.32a43.94,43.94,0,0,0,7-7.65c4.62-6.32,6.9-12.22,10.21-21,3.18-8.41,2.77-9,4.77-12A26.08,26.08,0,0,1,540.71,1.06c6.34-2,11.61-.72,16.3.44,5.49,1.36,13.77,3.42,16.08,9.43,1.25,3.23-.23,5-.66,11.31-.79,11.42.58,13.9,1.55,15.2a11.6,11.6,0,0,0,6.77,4.1c2.28.39,3.49-.26,10-2.66,9.59-3.56,9.32-3,11.86-4.44C606.8,32.12,607,31,611,29.34c2.84-1.16,3.38-.86,7.21-2.33a38.15,38.15,0,0,0,7.66-3.66c5.11-3.33,5.67-6.11,7.54-5.77,1.26.24,1.61,1.63,5.32,10.54,2.06,4.95,2,4.7,2.33,5.66,2.14,6.78.34,8.55,2.44,11.42s4.33,1.63,7.76,5.21c2.21,2.3,1.72,3.26,4,6.77a31,31,0,0,0,9.42,9.2,37.66,37.66,0,0,0,10.21,4.33c5.41,1.62,5.22.61,7.54,1.77,4.41,2.23,6.76,6.73,10.54,14,1.41,2.71,1.57,3.42,2.77,5,1.79,2.34,2.9,2.69,7.43,6.65,1.12,1,2.9,2.55,5,4.66a65.79,65.79,0,0,1,5,5.55,46.86,46.86,0,0,1,7.1,12.09c1,2.42.93,3,3.33,9.65,1.14,3.16,1.6,4.28,2.66,5.54,2,2.41,4.53,3.3,7.1,4.22,2.36.84,6,2.14,10.31,1.22,2.43-.52,2.22-1.15,5.77-2.33s6.77-2.27,9.65-1.22c1.4.51,2.17,1.31,6,6.87,4,5.81,6,8.71,6.43,9.87,2.5,6.31.32,8.53,3.22,12.87,2.25,3.37,3.78,2.35,6.54,6,3.07,4,1.63,5.9,4.77,12.31a37.64,37.64,0,0,0,6.21,9c3.76,4,4.75,3.21,7,5.88,4.73,5.66,4.2,14,3.77,20.85-.38,6-1.32,6.08-1.11,10.76a30.8,30.8,0,0,0,3.66,14c2,3.52,4.41,5.82,9.32,10.42a54.64,54.64,0,0,0,6.87,5.77,49.89,49.89,0,0,0,11.65,5.88c2.23.78,7.34,2.39,19.07,3,16.39.84,18.44-1.7,25.4,1.22a34.42,34.42,0,0,1,12.09,9c4.85,5.39,3.36,9.67,7.21,11.75,4.48,2.42,10.58-.29,15.42-2.44,7.91-3.51,10-7.5,15.64-7.43,2.88,0,5.13,1.27,7.43,2.44,4.81,2.45,5.85,4.86,9.76,7.54,3.52,2.42,6.62,3.17,11.42,4.33,0,0,11.44,2.79,22.29.66.56-.11,1.88-.38,3.78-.66,3.67-.55,5.29-.49,7.87-.78,4-.45,4-1,8.32-1.77,7-1.17,7.38.31,9.65-.89,5.18-2.74,6.67-12.4,5.21-19.52-1-4.89-2.65-5-2.33-8,.6-5.68,6.47-5.93,11.76-14.64,2.13-3.51,1.7-4.32,5.1-10.09,2.48-4.21,3.77-6.35,5.88-7.87,4.14-3,6.47-1.05,11.09-3.77,3.09-1.83,4.65-4.29,7.76-9.21a71.41,71.41,0,0,0,6.1-12.09c5.29-13.29,3.13-16.18,7.54-21.18,2.67-3,5.74-4.39,11.87-7.1a57.5,57.5,0,0,1,17.75-4.66c5.38-.51,5.4.27,9.42-.11,12.74-1.2,22.29-9.94,25.85-13.2,6.47-5.93,5.94-8.12,12.64-13.09,5-3.72,7.86-4.37,12.64-6.87,7.91-4.13,15-12.22,29.17-28.4,4.44-5.06,8.17-9.58,9-16.3.39-3.19-.17-4.71-.34-7.43-.58-9.4,4.36-17,10.76-26.51,9.49-14.12,11.93-11.08,17.86-22.18,3.58-6.69,4.68-11.52,9.87-14,5.63-2.67,11.7-.47,12.64-.12,4.93,1.86,7,5.27,12.65,12.43,3.91,4.92,8.22,9.52,12.31,14.3,11.2,13.12,16.8,19.67,20.63,22.85,4.12,3.43,7.39,5.53,11.31,10.54,3,3.85,5.79,7.39,6.21,12.42s-1.77,6.78-.33,10,4.14,3.08,8.87,5.77c10.26,5.83,14.72,15.7,15.64,17.74,2.2,4.88.78,4.86,2.77,9.65,4.31,10.4,10.6,9.63,17.86,19.86,6.07,8.56,4.17,12.63,12,22a41.73,41.73,0,0,0,6.87,6.87c4.62,3.59,7.07,3.81,10.65,7,2.33,2.07,2.76,3.29,6.32,8.76,8.65,13.31,10.19,12.45,12.87,19,1.79,4.35,1.35,5.35,4.21,12.42a67.42,67.42,0,0,0,4.22,9.09c3.31,5.79,5.1,6.47,7.65,11.32a40.51,40.51,0,0,1,3.44,9.54c1.51,5.8,1.39,9,2.33,26.61.21,4.08.34,6.07.55,8.66.92,10.91,2,14.37,3.33,17.08,1.76,3.61,2.23,2.43,4.21,6.21,3.1,5.89,2.44,9.72,5.33,23.73a35,35,0,0,0,1.22,4.66,43.11,43.11,0,0,0,4.66,9.21c3.11,5.09,5.1,8,5.1,8,7.74,11.24,11.62,16.86,14,19.52,2.16,2.43,5.06,5.13,10.87,10.54,6.28,5.84,9.12,8.07,13.64,12.86,4.69,5,6.68,5.81,7.43,8.65,1,3.69-.56,6,1.34,9.43.89,1.64,2.2,2.67,4.76,4.66,3.48,2.69,5.26,3.38,8.32,5.32,6.46,4.1,6.08,5.85,10.21,7.88,5.24,2.58,6.92-.37,11.86,1.88,3.08,1.4,3,2.66,9.54,9.32,6.92,7.07,7.64,6.33,9.21,9.32A20.26,20.26,0,0,1,1551.21,488.17Z"/><path d="M326.21,1029c0,7.23-.08,10.85.22,13.75.79,7.75,2.14,8.53,1.22,11.76-1.39,4.88-5,4.78-8.32,10.09-3,4.76-4.61,11.9-2.44,17.53,1.24,3.2,2.89,3.8,14.75,12,11.26,7.75,11.61,8.47,19.52,13.53,4,2.53,7.1,4.54,11.65,7.09,8,4.53,9.31,4.5,13.75,7.55,5.23,3.59,11.67,8,11.42,13.42-.08,1.78-1.12,3.48-3.21,6.87-2.77,4.49-4.74,5.93-6.1,8-3.23,4.88,1.27,8.45-.22,17.3a11.7,11.7,0,0,0-.23,3.22c.21,2.51,1.28,4.53,3.66,8a54.76,54.76,0,0,0,4.22,5.66c4.33,4.87,7.46,11.26,13.64,23.73,4.18,8.45,6.28,12.68,8.32,18.86,2,6,3.48,12.36,4,14.53,1.21,5.13,1.78,8.44,3.55,14.86,1.91,6.95,2.77,8.6,3.55,9.87,1.48,2.41,2.18,2.59,6.88,8.21a54,54,0,0,1,5.43,7.1c1.81,3.1,3.75,6.52,3,10.53-.25,1.29-.63,3.34-2.22,4.44-2.52,1.74-6.28-.09-12.43-2.77-5.16-2.26-10.46-4.19-15.63-6.44-9.48-4.11-14.28-6.18-17.08-6.87-7.44-1.85-8.07-.39-15.31-2.44s-7.15-3.72-13.86-5.44c-7.05-1.81-7.82-.15-16-1.88-4.89-1-8.4-2.44-14.53-4.88-9-3.6-9.67-4.81-14.53-6-4.66-1.13-7.13-.76-14.75-.67,0,0-10.59.13-25.18-.88a210.55,210.55,0,0,1-23.51-3.22c-20-3.46-24.66-6.06-28-9.1a71.41,71.41,0,0,1-7-7.87c-3.34-4.31-5-6.46-5.54-8.76-1.42-6,2.82-8.7.77-13.42-.92-2.13-1.76-1.53-5.66-5.77a38.22,38.22,0,0,1-6.76-9.43c-2.47-5.14-1.26-6.54-3.77-9.76s-4-2.2-6.55-5.32c-1.18-1.44-1.64-2.58-4.21-11.2-2.34-7.83-2.33-8.14-3-9.1-2-2.82-4.74-4.14-12-6.43-8.05-2.54-12.07-3.82-19.19-5.1-11.69-2.11-13.64-1.07-19-3.88a48.15,48.15,0,0,1-9.31-6.88c-3.67-3.23-5.53-4.9-6.77-7.76s-.68-4.46-1.33-9.32a53,53,0,0,0-2.88-11.09c-2.47-7.22-5.08-9.83-10.43-18.86-6.68-11.28-4.34-10.17-8.32-15.75-7.44-10.44-17.78-17.35-21.85-20.07s-6-3.62-9.53-6.77a52.51,52.51,0,0,1-10-12.31c-3-5.15-4.48-9.7-7.65-24.62-4.54-21.4-4-23.56-6.87-29.17-2.79-5.41-7.67-16.06-15.86-17.08-5.16-.64-8.1,2.94-12.43.89-4.76-2.26-6-8.87-6.21-10C-.83,955.69,2,954.4,1.91,946c-.07-5.61-1.37-7.08,0-8.87,2-2.59,6.08-1.39,14.19-1.44a87.1,87.1,0,0,0,18.41-2.22c7.93-1.66,12.62-2.64,17.64-6.1,6-4.13,5.34-6.88,11.75-10.87,2.95-1.83,8.13-5.06,14-4.33,3.19.4,5.46,1.84,14.75,11.21s14.22,14.37,17.86,20.07c4.62,7.25,6.93,10.87,7.43,16.19.72,7.74-3,9.89-2.89,19.86,0,5.45.11,12.08,4.66,15.63s11.65,2.57,16.2.34c7.11-3.5,6.9-9.56,11.31-9.87,5.54-.41,11.16,8.81,15.53,16,4.08,6.69,3.53,8.11,6.32,10,5.91,4,10.77-.82,18.41,2.88,3.77,1.83,2.76,3.08,10.42,9.1,4.83,3.79,7.24,5.68,10.32,6.76,8.69,3.06,17.11-.58,19.63-1.66,5.69-2.45,7.13-5.27,12.87-10.09A97.51,97.51,0,0,1,262,1005.79c8.78-3.77,16.09-4.81,25.84-6.32a89,89,0,0,1,15.31-1.33c8.57.13,17.15.26,21,5.65,1.38,2,1.62,5,2.11,11.1C326.55,1019.21,326.27,1020.34,326.21,1029Z"/><path d="M43.61,907.41a5.53,5.53,0,0,0-6-.77,5.8,5.8,0,0,0-2,8.09c2.06,2.88,7.25,2.81,9.21-.11A5.68,5.68,0,0,0,43.61,907.41Z"/><path d="M1813.73,606.07c-1.08.72-1.09,2.44-1.11,4.77a24.69,24.69,0,0,0,1.67,8.87c1.92,5.19,3.14,5,4.65,9.54,1.4,4.22.65,5.26,2.11,6.88,2.42,2.66,7.82,3.54,10.54,1s1.61-6.85,1.22-8.65c-.68-3.12-1.82-3.57-5.1-9.32s-3.07-7-5.44-9.32S1815.65,604.79,1813.73,606.07Z"/><path d="M1903.24,667.29c-.4-.26-4.61-3-7.1-1.22-2,1.42-1.61,4.76-1.44,6.33s.47,4.47,2.77,6.21c3.06,2.32,8.57,1.71,10.31-1.33C1909.68,674,1906.22,669.29,1903.24,667.29Z"/><path d="M69.34,347.54c-2.46-2.2-7.43-2.58-9.87-.11-1.79,1.8-1.53,4.43-1.22,7.65.21,2.21.9,9.29,6.21,12.54A7.55,7.55,0,0,0,69.34,369c2.93-.37,4.69-2.83,5.77-4.33s3.78-5.29,2.44-8.32c-1-2.29-3.37-1.76-6-5.21C70.09,349.16,70.53,348.6,69.34,347.54Z"/><path d="M130.34,383.25c-1.9-.06-3.87,2.08-4.44,4.33,0,.14-.83,3.53,1.56,5.66s5.94,1.65,7.32,0C137.05,390.5,133.72,383.37,130.34,383.25Z"/></g></g></svg>