<svg xmlns="http://www.w3.org/2000/svg" viewBox="0 0 2333.41 2396.11"><g id="Layer_2" data-name="Layer 2"><g id="Bahamas"><path d="M134.61,160.74c-4-3.54-3.21-5.19-6.81-8.31-4.39-3.83-6.21-1.91-11.79-5.3-7.42-4.5-8.78-10.66-14.52-11.19-.57-.05-2.6-.24-3.18.76-.43.73.11,1.82,1.51,4.08a47.27,47.27,0,0,0,4.09,6.05,37,37,0,0,0,7.41,6.35c12.4,8.74,13.31,9.25,15.73,11.35,3.29,2.84,5.35,4.62,7.56,7.71,2.58,3.6,2.38,4.8,5.44,8.47a69.86,69.86,0,0,0,5.9,6c1.14,1,2,1.75,2.27,2,9.43,7.84,16.62,19.46,29.49,24.05,2.52.9,2.26.46,11.8,3.18,6.07,1.72,7.57,2.3,10.44,2.72a38.58,38.58,0,0,0,12.55-.3c10.05-1.74,12.22-6.21,28-14.22,8-4,8-3.19,16.18-7.56s9.88-6.11,16.18-9.08c2.45-1.15,6-2.66,18.15-6.2,5-1.44,10.37-2.92,27.23-7.1,22.19-5.51,26.17-6.24,32.06-5.9a91.53,91.53,0,0,0,9.23.3c5.69-.14,10.1-.87,17.69-2.42,9.08-1.86,17.21-3.78,28.13-6.5,12.08-3,10.13-2.67,12.55-3.18,8.86-1.86,21.42-4.51,31.31-3.18a98.19,98.19,0,0,0,14.07,1.06c.27,0,.92,0,1.81,0a25.71,25.71,0,0,1,7.56,1.67c7.65,3.06,23.68,28.16,28,37.35A32.71,32.71,0,0,0,503,197.5c1.58,2.31,2.37,3.47,3.18,3.47,2.25,0,4.15-6.73,4.84-10.73.44-2.58.86-6.79.15-7-1.26-.3-4.92,12.3-5.6,12.1s1-9.77,3-14.82a27.6,27.6,0,0,0,1.66-5.75c.31-1.48.52-2.48.31-2.57-.78-.34-6.13,14.25-7.87,13.76-.87-.24-1.09-4.38.15-8s3.19-4.68,3.78-8.62c.09-.58.58-3.8-.45-4.24s-3.86,2.47-5.29,5.45c-.76,1.57-.88,2.6-1.06,2.57-.42-.08-1.13-6,1.36-10.59a7.9,7.9,0,0,0,1.21-3.63,7.2,7.2,0,0,0-.91-3.63c-.28-.53-1.43-2.74-2.42-2.57s-1.22,2.17-1.51,4.08c-.76,4.94.24,6.55-.91,9.53-.75,1.95-2.17,3.83-2.72,3.63-1.16-.42.82-10.55,1.81-14.37a21.62,21.62,0,0,0,.61-4.53c.05-1.69.08-2.54-.3-3.18-1.11-1.86-3.56-.79-5.6-2.72-1.14-1.08-1.45-2.44-2-4.69a27.62,27.62,0,0,1-.45-5.6,66.16,66.16,0,0,0-.76-6.95c-.82-5.19-1.71-5.68-2.42-10.14-.31-2-1.23-3.89-1.21-5.9,0-.23,0-.64-.2-.75-.84-.44-4.05,4.21-4.48,4.84-2.63,3.8-2.65,5-4.84,7.41a19.91,19.91,0,0,1-3.63,3c-2.29,1.55-6.71,4.55-11.65,3.94-2.38-.3-2.32-1.11-6.05-1.82a31,31,0,0,0-6.05-.45c-9-.15-9.26-1.5-14.52-.91a30.94,30.94,0,0,0-8.32,2.12,35.24,35.24,0,0,0-6.35,3.48c-4.6,3.14-4.8,4.8-7.11,5s-4.05-1.15-6.5-2.88c-2.65-1.87-2.41-2.54-4.08-3.63-4.28-2.78-11.48-2.07-15.73,1.52-2,1.68-1.57,2.51-3.33,3.47-3.87,2.13-9.06-.14-12.55-1.66-6.41-2.79-7.64-5.44-10.14-4.69-2.77.84-2.33,4.44-5.89,7.87-2.83,2.71-6.15,3.38-9.83,4.08-10.34,2-18.52-.38-26.62-2.87-6.4-2-8.54-3.51-9.83-5.6-1.7-2.73-1.62-5.86-3-6.05s-2.05,3-5.14,4.08a7.21,7.21,0,0,1-4.69-.15c-3.76-1.28-3.52-4.47-7.11-7.11s-8.23-2.6-10.43-2.57c-5,.08-7.18,2-9.68.31-1.06-.7-.91-1.19-3.48-3.79-2.25-2.27-2.55-2.09-3.48-3.17-2.94-3.43-.83-6.3-3.48-10-.57-.79-2.65-3.42-5.75-3.63-3.87-.27-6.67,3.41-7.41,4.38-2.59,3.41-2.31,7.46-2.11,12.25.28,6.92,2.17,10.81-.31,14.37-.69,1-1.59,1.77-1.36,2.12.4.6,4.06-.35,5.6-2.87.89-1.46.73-2.89.91-2.88s.17,5.25,0,8.47a19.86,19.86,0,0,1-.61,4.54,16.19,16.19,0,0,1-1.51,3.78c-1.53,2.63-3.28,3.18-5.3,5-3.07,2.76-1.72,3.93-5.14,8.47-2.19,2.92-2.89,2.63-7.71,7.71-2.73,2.89-2.29,2.75-4.69,5.3a53.46,53.46,0,0,1-11.19,9.68c-2.08,1.27-1.42.61-8.17,4.08-5.64,2.9-8.47,4.37-9.22,5.29-2.37,2.89-3.15,6.81-6.36,9.68a3.21,3.21,0,0,1-1.81.91c-1.9.22-3.63-1.67-4.39-3a3.09,3.09,0,0,1-.6-2.11c.25-1.27,1.58-1.32,2.57-2.57,1.74-2.22.54-5.81.3-6.51-.43-1.28-1.08-3.69-2.57-3.93-1.09-.17-2,.91-3.48,2.57s-4.12,4.74-3.17,6.66c.58,1.2,2.24,1.24,2.26,2.11s-1.17,1.35-1.81,1.67a7,7,0,0,1-4.69.6c-1.58-.38-2.51-1.23-4.23-2.87a22.24,22.24,0,0,1-3.78-4.39c-3.66-5.71-1.66-9.27-5.3-12.7-1.28-1.21-1.35-.6-3.48-2.27-3.57-2.81-3.93-5-6.35-7.71C141.09,163.16,139.37,165,134.61,160.74Z"/><path d="M389.3.13c-1.22-.67-3,1.32-8.32,5.44-4.48,3.47-5.55,3.87-7.11,6-.31.44-3.48,4.94-2.27,6.35,1.52,1.77,8.9-2.42,9.68-2.87a18.93,18.93,0,0,0,6.05-4.84c1.07-1.34,3-3.81,2.88-7.11C390.18,2,390.14.58,389.3.13Z"/><path d="M682.49,86.18c1-1.93-1.63-2.52-3.07-3.81-.91-.82-2.86-5.11-5-4.55-.15,0-1.88.51-2.26,1.88s.64,2.49,1.94,4.09c1.63,2,2.93,3.62,5,3.75C680.07,87.61,681.86,87.39,682.49,86.18Z"/><path d="M693.75,106c-1-3.32-.55-5.55-1.67-5.9-.72-.23-1.53.5-1.81.75-1.46,1.33-1.46,3.67-1.06,5.15.62,2.32,2.48,3.54,4.24,4.68.85.56,2.17,1.42,2.57,1.06S694.79,109.49,693.75,106Z"/><path d="M755.76,138.66c-.21.09-1.17.47-1.21,1.06s1.22,1.3,1.66,1.51c0,0,1.17.57,8.32,4.54,4.08,2.27,3,3.81,7.26,6.51,3.65,2.28,8.1,3.44,8.62,2.57s-3.4-4.23-3.78-4.54c-3-2.48-4.69-2.79-8.17-4.69C761.57,141.85,758.32,137.64,755.76,138.66Z"/><path d="M824.42,199c-.41-.22-1.34.93-3.93,3.78-3.42,3.77-3.21,3.33-3.63,3.93-3.1,4.45-2.41,10.95-1.36,11.19.51.12,1.23-1.24,2.57-3.78,1.69-3.21,1.32-3.64,2.72-6.2s2.32-3.08,3.18-5.59C824.09,202,825,199.31,824.42,199Z"/><path d="M706.45,271.45c-.21,0-.49.5-1.06,1.52a8.22,8.22,0,0,0-.9,2.11,6.12,6.12,0,0,0,0,2.73c.83,4.42,1.58,8.39,2.27,8.31s.71-3.68.75-6.05C707.58,276.26,707.24,271.51,706.45,271.45Z"/><path d="M619,369.61c-1.58-.46-3.88,2.81-4.84,4.84-.6,1.25-1.11,2.32-.76,3.48.43,1.45,1.91,2.09,4.84,3.32,2.74,1.16,5,2.11,5.6,1.37s-.91-2-2.27-5.3C619.64,372.62,620.37,370,619,369.61Z"/><path d="M605.88,282c-1.58.29-2.36,4.22-2.27,6.65a6.59,6.59,0,0,0,.3,2c.68,2.11,2.26,3,3.33,4.08,1.92,1.87,2.38,4.27,2.87,6.81,1.19,6.17-2.32,11.35-2,11.49s2.76-4.35,4.84-9.67c1.11-2.87.92-2.9,1.81-4.84,1.75-3.84,3.09-5.07,2.57-6.51s-1.88-1.18-4.08-2.42C608.21,286.76,607.71,281.7,605.88,282Z"/><path d="M492.9,490.6c-.92.07-1.49,2-2.12,4.09a12.73,12.73,0,0,0-.6,6.2c.36,2,1.25,3.26,3,5.74,2.95,4.14,4.07,3.93,5.75,7.11,1,2,.74,2.27,2.27,5.3a19,19,0,0,0,2.87,4.68,13.8,13.8,0,0,0,6.2,3.94c2,.56,4.24,1.21,6.05,0,2.35-1.57,2.94-5.57,1.51-7.87-.73-1.18-1.54-1.19-7-3.48-5-2.13-6.07-2.86-6.81-3.48a16.43,16.43,0,0,1-3.78-4.68c-1.48-2.61-1.45-4-2.57-7.72C497,497.87,494.77,490.46,492.9,490.6Z"/><path d="M536.31,645.62c-.13-.23-1.12.09-4.54,1.37-6.4,2.38-7.61,3-8.62,4.38s-1.75,3.31-1.06,4.08c.82.93,3.63-.07,5.44-1.21,2.21-1.37,2.16-2.43,5.15-5.29C534.91,646.82,536.48,645.94,536.31,645.62Z"/><path d="M503.64,643.05c-2.51-1.56-3.66-.43-13.92-.3-3.47,0-4.86-.06-6.2,1.06-2,1.72-2.93,5.47-1.51,7.41,1.55,2.11,4.72.56,15.73.15,6.55-.24,9.07.17,9.83-1.36C508.47,648.2,506.35,644.74,503.64,643.05Z"/><path d="M980.5,1090.12c-.55-.14-3,3.83-2.27,8.17.19,1.09.57,3.29,2.42,4.54,2.41,1.62,6.08.79,6.36-.31.16-.67-1.06-1.06-3.33-3.63a12.29,12.29,0,0,1-2.57-3.63C980,1092.47,980.91,1090.23,980.5,1090.12Z"/><path d="M1023.3,1162.87c-1.66.07-3.4,3-3.17,5.6.28,3.13,3.35,4.55,6.05,7.1,3.81,3.61,3,5.8,7.11,15.13,5.3,12,11.3,19,15.27,22.84,1,1,5.64,5.38,6.5,4.68s-2.41-6.14-4.53-9.68c-3.2-5.32-4.65-6.8-8.78-13a110.16,110.16,0,0,1-6.8-11c-2-3.92-2.52-5.75-6-13.16C1025.54,1164.28,1024.51,1162.82,1023.3,1162.87Z"/><path d="M1143.24,1315a5.88,5.88,0,0,0-3.63,4.38c-.48,2.4.92,3.72,2.42,7.11,2.24,5.08.73,5.76,3.17,13.31a36.9,36.9,0,0,0,3.33,7.87,25,25,0,0,0,6,7.41,23.42,23.42,0,0,0,7.87,4.08c4.26,1.34,5,.37,10.88,1.82a42.56,42.56,0,0,1,6.81,2.26,53.24,53.24,0,0,1,7.11,4.09c5.28,3.08,6.93,1.6,12.7,3.93,4.71,1.9,8,4.85,14.52,10.74,5.61,5,4.71,5.32,8,7.56,3.11,2.1,6.18,3.4,8.47,7.11.66,1.08,1.71,2.83,1.06,3.93-1,1.58-4.25-.22-7.26,1.66-2.34,1.46-3.77,4.66-2.88,6.36.36.67,1.1,1,2.57,1.66,1.71.76,2.9,1.3,4.24,1.06,2.09-.37,3.32-2.42,4.23-3.93,1.66-2.75,1.83-5.19,2.27-5.15s-.21,3.31,1.67,5.9a7.71,7.71,0,0,0,2.87,2.27c3.77,2.11,6.21,3.47,9.23,4.08,5.73,1.17,6.45-1.83,11.94-1.36,6.43.56,6.55,4.77,16.64,7.87,3.65,1.12,4.3.77,7.56,2.12,4.26,1.75,5.43,3.28,9.83,5.14a41.27,41.27,0,0,0,7.56,2.27c4.63,1,6.42.83,14.07,1.51,9,.8,12.14,1.57,12.4.75.34-1-4.16-3.55-7.11-4.83-2.46-1.08-3-.94-6.35-2.27-4.18-1.69-3.72-2.12-6.35-3-5.19-1.8-6.69-.06-10.59-2.12-2.51-1.32-2.53-2.38-4.84-3s-3.52.12-6.65.45c-2.4.26-7.25.78-11.19-1.51-3.26-1.89-3.31-4.18-6.51-4.84-1.94-.4-2.27.37-4.69-.15a15.6,15.6,0,0,1-5.59-2.72,25.9,25.9,0,0,1-3.33-2.72,38.59,38.59,0,0,1-5.59-7c-6.82-10.17-7.67-11-8.93-11.95-1.69-1.23-1.54-.68-6.5-3.33-4.47-2.38-8-4.63-9.38-5.59-3.9-2.66-5-4.39-13.61-14.07-6.49-7.3-9.74-11-11.8-12.7-7.42-6.33-8.83-4.73-13.76-10.14-3-3.32-4.83-6.47-9.83-10.28-2.94-2.24-5.26-3.39-7.26-2.72-1.46.49-1.87,1.65-4.08,2.27a9.92,9.92,0,0,1-3.94.15,10.29,10.29,0,0,1-9.52-7.57c-1.4-3.48-.47-4.64-2-6.35A6.09,6.09,0,0,0,1143.24,1315Z"/><path d="M1481.72,1258.91a6.57,6.57,0,0,0-5.6,4.53c-.2.68-.27,1.47,1.81,7.26,1.76,4.88,2.22,5.43,2.88,5.6,1.79.46,3.88-2.18,5.14-3.78,1.71-2.17,3.22-4.08,3-6.66C1488.72,1262.51,1485.6,1258.62,1481.72,1258.91Z"/><path d="M1584.11,1316.53c-3.32.54-5.07,1-12.1,2.57-4.13.93-5,1.12-8,1.82-7.11,1.67-8.48,2.15-9.53,2.57-2.87,1.13-5.37,2.15-7.71,4.53-1.18,1.21-4.49,4.58-3.48,7.26,1.08,2.88,6.42,3.13,7.41,3.18,4.48.21,9.27-1.82,11-2.57a8.59,8.59,0,0,1,3.18-1.06c1.2-.07,2.68.22,7.11,3.18,3.32,2.21,3.1,2.46,5,3.48a13.9,13.9,0,0,0,6.5,2.11,10.42,10.42,0,0,0,10.59-7.56c1.13-3.46-.11-4.78-.15-10.44,0-6,1.36-7.62,0-9.07C1593.5,1316.06,1592.38,1315.19,1584.11,1316.53Z"/><path d="M1696.63,1159.84c-1.75,2.84-2,4.6-3.33,8.17-2.53,6.94-3.52,5.91-3.93,9.08-.5,3.82.68,7.5,1.81,11,1,3.25,1.52,3.34,1.67,5.14.23,2.9-.81,5.06-2.88,9.22a64.42,64.42,0,0,1-4.83,8c-1.88,2.77-2.78,3.43-4.39,6-2.18,3.54-3.4,5.53-2.72,6.5,1.13,1.64,5.94-2,14.36-2.11,5.92-.11,7,1.6,10.29.3s5.2-4.33,8-9.08c3.14-5.27,2.26-6,5.3-10.89s4.46-4.81,6.2-8.77a25,25,0,0,0,2-10c0-4.74-1.14-4.17-1.67-11-.27-3.49-.18-6.6-1.51-10.28a12.47,12.47,0,0,0-2-3.63,13.89,13.89,0,0,0-3.48-3c-4.34-2.58-11.39-2.46-15.72,1.21A15.43,15.43,0,0,0,1696.63,1159.84Z"/><path d="M1224.61,1823.94c-.71,1.17.73,2.48,2.72,6.81s1.73,5.61,3.78,8.17,3.64,2.86,4.38,2.87c.51,0,1.52,0,2-.6,1.17-1.63-3.72-4.68-5.9-11.5-1-3.29-.8-5.38-2.57-6.35C1227.52,1822.53,1225.28,1822.83,1224.61,1823.94Z"/><path d="M1258.18,1891.4c-.86.2-.82,3.28-.76,8.92,0,3.11.07,4.69.46,5.75.94,2.54,2.32,2.75,6,6.5,4.3,4.33,4.62,6.22,7,6.51s4.87-1.12,5.14-2.73c.23-1.38-1.42-2.19-5.3-6-2.88-2.86-4.32-4.3-5.59-6.35-1.61-2.59-1.38-3.47-3.78-8C1259.77,1893,1258.86,1891.24,1258.18,1891.4Z"/><path d="M2023.16,1742.88c-1.5-1.46-4-1-4.54-.91a7,7,0,0,0-4.23,2.72c-1.3,1.85-.56,2.91-1.52,6.36-1,3.73-2.64,5.23-2.11,5.74s2.15-.88,7.11-3.47c3.52-1.85,4.17-1.92,5-3C2024.37,1748.24,2025,1744.65,2023.16,1742.88Z"/><path d="M2050.62,1743.23c-1.59.67-3.41,2.08-3.18,3,.29,1.19,3.52.53,7.56,1.67,6.92,1.94,10,7.42,11.34,6.5.87-.6.17-3.33-.75-5.14C2062.89,1744,2055.53,1741.13,2050.62,1743.23Z"/><path d="M2192.25,1804.43c-.86.46-.75,1.68-1.21,4.84a47.71,47.71,0,0,1-1.21,5.9c-.54,1.77-1,2.26-3.63,6.81-3.56,6.11-3,5.68-4.09,7.11-3.38,4.54-6.29,5.47-5.89,6.65s4,.66,12.85,1.21c7.29.46,8.88,1.13,9.68,1.51,2.24,1.08,2.39,1.84,7.56,5.6,3.32,2.41,5,3.62,6.05,3.93,5.76,1.67,11.8-2.62,13-3.48,4.46-3.17,3.76-5.27,7.11-6.5s6.56-.2,12.25,1.51c5.12,1.54,7.07,3,9.68,2,2.2-.88,1.94-2.38,4.23-3.33s3.78-.08,9.53,1.36,5.12.86,9.68,2.12a52.08,52.08,0,0,1,9.38,3.18c6.76,3.27,11,8.61,14.06,12.55,2.32,2.94,4.19,5.9,8.32,9.38,3.4,2.85,4.74,3,5.6,3,3.11-.11,3.64-3.41,8.77-7.86s7.67-3.88,8.92-7.11a9.84,9.84,0,0,0-2-9.53c-2.94-3.32-6.06-1.58-13.77-4.23-6.18-2.13-5.85-3.82-13.91-7.11-5.65-2.31-5.51-1.35-11.5-3.63-10.3-3.93-10.47-6.67-16.94-7.57-4.46-.61-4.73.64-11.94,0-4.12-.36-4.17-.78-10.29-1.66-9.86-1.42-10.18-.39-13.91-1.81-4-1.54-4.15-2.93-10.44-6.36a70.63,70.63,0,0,0-8.62-3.93c-8.85-3.53-10.6-2.75-11.34-2.12-1.18,1-.65,2.28-2.27,3.63a5.29,5.29,0,0,1-4.69,1.21c-2.17-.72-1.81-3.12-4.84-5.59C2195.88,1805.61,2193.58,1803.73,2192.25,1804.43Z"/><path d="M1948.29,1553.68c-1.45,1.28-2.45,3.51-1.81,5,.72,1.65,3.09,1.37,7.56,2.72,5.14,1.55,4.66,2.73,8.77,3.78a25.07,25.07,0,0,0,11,.15c4-.75,3.41-1.54,8.78-2.87,4-1,5.5-.85,9.83-2.12,3.48-1,6.06-1.77,6-2.72,0-1.28-4.78-2.18-10.89-3.33a77.14,77.14,0,0,0-12.56-1.66c-6.38-.23-6,.73-12.25.6C1954.37,1553.05,1951,1551.26,1948.29,1553.68Z"/><path d="M1775.27,1718.68c-2.59.48-1.53,6-5.44,12.86-2.41,4.23-5.69,6.9-12.25,12.25-7,5.7-8.58,5.57-11.34,9.37-.3.41-6.85,9.62-3.48,13.77,1.58,1.94,5.11,2.5,7.56,1.36,2.69-1.26,2.38-3.78,5.9-9.83a68.4,68.4,0,0,1,5.59-7.87c3.73-4.81,4.29-4.77,7.42-8.92,3.41-4.54,2.58-4.37,5.89-8.77,3.86-5.11,5.57-6.12,5.45-8.47C1780.41,1721.42,1777.36,1718.29,1775.27,1718.68Z"/><path d="M1780.87,1890a5.88,5.88,0,0,0-2.12,5.59c.34,1.41,1.15,1.44,1.82,3.33a8.07,8.07,0,0,1,.45,3.48c-.44,3.36-3.8,3.78-5,7.86-.2.68-.76,2.6,0,3.18,1.5,1.14,7-3.79,7.87-4.54,1.66-1.5,1.6-1.73,6.2-6.5,2.92-3,3.67-3.69,5-4.08,1.62-.48,2.12,0,5.9-.16a17.7,17.7,0,0,0,5-.6c2-.7,3-1.92,6-5.6,3.72-4.49,5.58-6.74,5.89-7.1,4.67-5.55,5.45-6,6.21-8.17s.43-3.34,1.66-5c.39-.53,1.67-2.11,5.44-3.33,4.08-1.32,5.19-.31,8.62-1.06,5-1.08,4.64-3.64,10.89-6,3.93-1.51,4-.48,8.93-2.27s4.76-2.74,8.62-3.78c4.58-1.23,5.62-.1,8.62-1.66,2.24-1.17,3.47-2.75,5.44-5.3s2.89-4.4,5.3-9.07c2.84-5.51,4.27-8.26,4.84-9.23,4.47-7.51,6-6.68,8-11.49,2.65-6.22,1-9.51,3.93-11.49,2.65-1.77,5.2,0,8-2,2.42-1.71,1-4,3.33-6.81s4.54-1.81,7.71-4.53c.88-.76,1.28-1.32,4.69-8.17,4-8.13,4.51-9.38,4.54-11.34,0-1.23-.16-1.54-1.52-7-1.3-5.24-2-7.86-2.42-10.13a90.32,90.32,0,0,1-1.51-15.58c-.1-3.28-.51-6.55-.6-9.83s0-5.27-1.52-6.66c-.68-.63-1.07-.55-4.38-2a32.86,32.86,0,0,1-3.93-1.82c-.84-.53-4.26-2.71-4.69-6.35-.14-1.21-.06-3.43,1.06-3.93,1.34-.61,4,1.36,5.29,3.63,1.13,2,.76,3.28,2.27,4.69.61.57,2.07,1.66,2.87,1.21,1.24-.7-.89-4,.61-8a7.61,7.61,0,0,1,3.48-4.23c1.29-.64,1.67-.19,2.87-.76a6.64,6.64,0,0,0,3.48-6.81c-.08-.46-.65-3.3-3.18-4.23s-5.35.48-6.05,2.27,1,3,.15,5.29c0,.09-.77,2-1.81,2-1.22,0-1.29-2.57-3.48-3.94-.58-.36-1.8-.49-4.23-.75a29.09,29.09,0,0,0-6.36-.3,18.82,18.82,0,0,0-3.93.9c-5.49,1.87-7,4.82-11.64,7.11-2.52,1.24-5.21,1.64-10.59,2.42-6.88,1-11.13.64-11.34,1.82-.11.6,1,1,5.14,4.38,2.72,2.17,3,2.54,3,3,.23,1.83-2.44,3-6,6.65a22.27,22.27,0,0,0-3.78,4.54c-.71,1.31-2.3,4.21-1.21,6.5.65,1.36,1.53,1,3,2.72,2.27,2.56,1.36,4.58,3,5.75s3-.47,7.26-.6,4.81,1.43,9.23,1.36c4-.07,3.88-1.34,7.26-1.36,5.81,0,10.21,3.7,11.19,4.53.79.68.89.88,6,8.17,4.37,6.18,6.55,9.27,6.65,9.38,2.32,2.46,4.11,3.71,4.54,6.35a8.34,8.34,0,0,1-.61,4.39c-.94,2.44-2.24,3-5.89,6.8-1.14,1.19-.37.46-4.69,5.3-4,4.41-4.45,4.86-5,5.29a21,21,0,0,1-7,3.63c-4.07,1.22-5.3-.09-11.8,0-6.19.08-9.29.12-11.34,2.27-1.67,1.75-2,4.69-2.57,10.58-.52,5.11,0,6.22-1.21,7.72-.7.88-2,1.89-9.23,2.72-5.29.61-6.15,0-10.58.6-4,.6-8.15,1.2-9.23,3.79-.44,1,0,1.48.76,5.44.84,4.52,1.25,6.82.45,8.92a9.93,9.93,0,0,1-3.93,4.54c-2.12,1.49-3.87,1.75-7.56,2.57-6.67,1.49-5.06,1.54-10.74,2.72-7.32,1.53-8,1-10.59,2.42-3.13,1.72-6.73,5.06-6.2,7.87.17.9.6.85,2.42,3.33,2,2.69,3,4.06,3.18,5.89s-.62,3.48-1.52,5.15c-1.19,2.22-2,2.31-4.53,5.59-1.57,2-2.81,3.88-3.63,5.14-2.51,3.84-2.76,4.87-4.09,5.3-.67.22-1.28.16-5.14-1.36-5.29-2.09-5.88-2.67-8-2.88a14.63,14.63,0,0,0-5,.46A7.06,7.06,0,0,0,1780.87,1890Z"/><path d="M1757.28,1654.4c-3.64,3.81.3,12.61.75,13.62,1,2.3,2.26,3.87,4.54,6.8,2.88,3.7,3.91,4.21,6.81,7.56,5.06,5.86,7.6,8.79,7.56,12.25,0,3.22-1.94,3.53-2.88,9.53-.74,4.76.19,6.25.61,6.81,1.64,2.19,4.67,2.37,5.44,2.42a9.21,9.21,0,0,0,5.75-1.67c3.46-2.47,2.49-5.63,5.14-6.8s5.9.81,7.87,2,2,1.73,4.54,3.78c5.29,4.27,6.86,3.07,9.22,6s1.8,5.49,4.39,6.66a5.19,5.19,0,0,0,3.78.15c1.81-.73,2.38-2.54,3.17-3.93,2.84-5,10.38-7.85,13.77-5.9.73.42,1.4,1.7,2.72,4.23,3,5.71,2.74,7.19,3.93,7.57,2.39.75,4-4.92,11.19-9.38,4.48-2.77,5.93-1.86,8.47-4.69s2.44-5,5.6-7c1.81-1.14,3.18-1.26,3.48-2.42.48-1.87-2.5-4.11-2.88-4.38-3.69-2.72-6.48-1.2-12.09-2.72-5.39-1.46-4.59-3.34-9.53-4.54-4.17-1-6,0-12.86.3-5.93.25-8.9.33-12.1-.45-8.37-2-14-8.49-16-10.74-3.74-4.25-4.46-7-9.23-10.44a38,38,0,0,0-6.2-3.63c-4.52-2-5.66-1.17-8.47-3-3-2-2.65-3.61-5.89-5.75a18,18,0,0,0-6.51-2.42C1765.14,1652.85,1759.89,1651.67,1757.28,1654.4Z"/><path d="M1569.13,1647.75c-3.27-1.81-3.21-5.14-6.65-16.94-1.38-4.73-3-9.37-4.54-14.07-3.46-10.89-5.19-16.33-5.59-17.39-2.71-7-7.21-18.3-16.94-27.07a40.4,40.4,0,0,0-20.27-10.13c-6.84-1.35-7.73,0-13.91-.76-4-.51-15-1.9-21.48-9.53-2-2.31-2.77-4.32-6-7-2.89-2.31-3.86-2-8-4.53-6.79-4.08-6-5.87-11-8.17-4.38-2-6-1.09-9.22-3.63-1.09-.84-4.49-3.5-4.09-6.5.2-1.46,1.35-2.54,3.63-4.69,1.91-1.8,2.87-2.7,4.09-2.87s2.1.34,6.35,2.87c2.89,1.72,4.34,2.58,5.14,3,3.84,2.11,4.13,1.63,7.26,3.33s5.82,3.15,8,6.2c1.63,2.27,1.33,3.15,3.32,5.3a22.06,22.06,0,0,1,3.33,3.78c1.09,1.68.74,1.85,1.36,2.42,1.72,1.54,3.83-.21,8.62.3,2.42.26,3.86.91,4.24.3s-.76-2-1.21-2.57c-1.5-1.8-2.89-2.28-5-3.63a38.08,38.08,0,0,1-4.54-3.63,37.06,37.06,0,0,1-4.84-4.69c-2.46-3-1.87-3.62-3.63-5.29-3.17-3-6.44-2.22-6.81-3.78-.61-2.62,8.57-5,8.63-9.68,0-1.18-1.26-3-3.79-6.66s-3.59-4.42-3.32-5.74,1.67-1.62,5.74-4.24c3.64-2.33,5.47-3.54,6-5.29.71-2.13-.26-4.18-1.51-6.81-2-4.33-4-4.91-5.59-8.32-1.14-2.41-1.14-5-1.37-8.47-.26-4,.19-5-.75-6-2.09-2.28-6.5.07-8-2.11-.38-.55-.26-1.89,0-4.54.41-4.19.93-5.31.15-6.2s-1.65-.44-3.78-.91c-2.31-.5-3.53-1.45-5.44-2.57-5.14-3-6.38-2-9.08-3.93-4.46-3.13-5.55-9-7.1-17.24-1-5.49.57-6.87-1.06-9.23-2.77-4-7.92-2.88-9.68-6.65-.85-1.81.11-2.56.75-7.41s1.6-12-2-16c-2.14-2.41-4.09-1.74-5.14-4.23-1-2.28.3-3.73-.76-7.56-.45-1.63-.82-2.89-2-3.63-2.05-1.33-5,0-5.9.45-4.1,1.91-5.88,5.81-6.2,5.6s.53-1.55,2-4.54c1.28-2.67,1.93-4,2.12-4.54,1-2.76.44-5.31,0-8-.52-3.1-1.16-3.49-1.21-6.2,0-.94,0-1.67-.31-1.82-.86-.37-3.38,3.3-4.23,4.54-1.16,1.69-1.18,2-1.82,2.42a5.14,5.14,0,0,1-6.2-.76c-1.87-2.11-.76-5.75.76-7.56,1.2-1.42,2.17-1.15,3.33-2.87a7.78,7.78,0,0,0,1.21-4.39c0-1.08,0-2.86-1.21-3.93-.7-.63-1.26-.54-2.42-.91-2-.63-4.85-2.34-4.84-4.08s2.74-3,4.38-3.48a9.29,9.29,0,0,1,6.66.91c1.93,1,2.58,2.11,5.14,5.14,4.5,5.33,4.55,4.33,6.2,6.8,2.19,3.28,1.21,3.67,4.39,10.59,1.65,3.61,3.26,6.44,4.08,7.87,1.87,3.26,2.17,3.39,3.63,5.89,4.59,7.88,3.16,9.27,6.35,12.71,2.5,2.69,3.75,2.23,7.26,6a27.62,27.62,0,0,1,3.78,5c.73,1.26,2.31,4.33,3,14.22.59,8.2-.25,9.51,1.21,13.76a29,29,0,0,0,3.78,7.26c2.51,3.6,4.34,4.67,7.71,8.17a64.71,64.71,0,0,1,7.26,9.07c5.33,8.12,3.72,10.7,8.93,17.09a44.29,44.29,0,0,1,4.23,5.6,38.92,38.92,0,0,1,3.63,7.56c1.16,3.29,1.13,4.6,2.12,9.37,1.66,8,2.38,7.31,2.87,11.35.6,4.91-.61,4.74-.91,14.06-.18,6-.25,9,.91,12.86.71,2.31,1,2,3,7.56,2.19,5.93,1.83,6.09,3,8,1.71,2.77,3.27,3.78,3,5.74-.21,1.65-1.48,2.29-1.21,3.63s2,2.17,2.87,2.57c8.61,3.92,8.72,6.23,14.22,7.11,3.51.57,3.27-.41,8.31-.3,2.58.06,11.24.35,18.61,5.29,2.29,1.54,4.28,3.92,8.16,8.62a209.1,209.1,0,0,1,14.67,20.27c5.78,8.91,8.67,13.43,8.78,16.64.1,2.94-.59,6.24.9,11.19.65,2.14,1.09,2.55,2.27,6,1.31,3.85,1.31,5,2.42,8.92,2.39,8.59,3.87,8.9,3.33,11.8-.89,4.76-5.51,7.34-6.2,7.71C1579.12,1647.24,1573.51,1650.16,1569.13,1647.75Z"/><path d="M885.22,980.62c-.81.21,0,2.89-1.21,7.26-1,3.61-2.07,3.9-2.12,6.36a8.76,8.76,0,0,0,2.72,6.5c1.56,1.37,4.64,3,6.81,1.66s2.12-4.57,2.12-5.59c0-2.31-.79-3.49-4.24-9.83C886.62,982,885.85,980.46,885.22,980.62Z"/><path d="M1185,971.25c-2.44.44-3.63.49-4.08,1.36-.64,1.2.64,3,.75,3.17,1.95,2.71,4.84,1.39,9.23,3.94,2.82,1.64,2.73,2.82,5,3.32a8.68,8.68,0,0,0,6.35-1.36c1.69-1.09,4.06-3.44,3.48-4.84s-3-.22-6.65-1.51c-4.83-1.7-5.07-5.16-8.78-5.29C1189,970,1189.38,970.44,1185,971.25Z"/><path d="M646.86,781.44c-8.76,1.66-9.43,1.45-11,2.57-2.91,2-2.08,3.65-5.9,7.56a28.36,28.36,0,0,1-7.25,5.3c-7.07,3.76-11.41,2.55-12.26,5s2.14,6.32,5.75,8c5.42,2.54,8.85-1.74,15.88.61.28.09,2.56,1.37,7.11,3.93,7.91,4.45,8.18,4.7,9.38,4.84,4.83.57,5.37-3,11.79-2.87a35.9,35.9,0,0,1,8.32.9c1.62.46,3.06,1,4.69.46,1.44-.52,2-1.57,3-2.73,2.07-2.34,4.45-3.34,6.95-4.38,2.83-1.18,5.32-1.29,10.29-1.51,6.7-.3,6.54.56,9.07-.16,4-1.13,6.43-3.88,9.68-7.56,3-3.4,4.6-5.2,4.08-6.95-.74-2.54-4.83-1.24-9.07-5a19.84,19.84,0,0,1-5.75-9.37c-.47-2.06-.39-3.67-1.66-4.54-1.53-1-3.76-.19-5.14.3-2.47.89-6.79,1.8-15.43,3.63a46.27,46.27,0,0,1-12.1,1.36c-5.44-.19-7.17-1.37-12.55-.9C653,780.08,653.61,780.16,646.86,781.44Z"/><path d="M1346.2,1137.46a18.46,18.46,0,0,0-8.77,2.72c-1.69,1.07-3,1.89-3.33,3.33-.6,2.57,2.3,5.18,5.45,8,4.15,3.73,6.71,6,11,6.8a15.56,15.56,0,0,0,10.13-1.36c5.41-3,5.25-8,10.14-9.22,1.68-.41,1.46.25,6.05.3a51.35,51.35,0,0,0,9.83-.91c5-1,7.47-1.42,10.13-3,2.16-1.31,3.16-2.51,4.84-2.27s2,1.42,4.23,3.63c1.67,1.64,5.53,5.43,8,4.53,1.61-.58,2.12-2.94,2.27-3.63.73-3.39-1.11-5.87-2.88-10.13a43.82,43.82,0,0,1-2.72-9.53c-.83-4.3-.23-4.08-.91-6.2-1.31-4.13-3.7-5.31-7.71-10.43-.75-1-.7-1-5-7.57-5.47-8.41-8.2-12.62-8.92-13.61a99.33,99.33,0,0,0-13.31-14.82c-1-.94-4.08-3.31-10.14-8-11.59-9-15-11.45-18.9-16.33a72,72,0,0,1-5.14-7.56,131.27,131.27,0,0,1-7.41-13.61c-10.33-21.49-7.08-24.74-13.62-30.7-3.86-3.53-7.57-4.8-10.88-10.44-1.87-3.17-1.16-3.56-3.94-8.77-3-5.71-5-7.39-4.69-10.59.3-2.65,1.81-2.64,2.27-5.75.52-3.42-.89-6.32-2.11-8.77-1.69-3.36-3.48-5.26-5.9-8-10.13-11.5-10.09-13.69-14.22-15a36.67,36.67,0,0,0-8.92-1.06c-3.25-.11-4.87-.21-6.51.16-3.83.85-9.6,3.89-10.28,8.92-.43,3.16,1.33,5.75,2.57,7.56a19,19,0,0,0,8.92,6.66c3.09,1.28,4.28,1.06,7,1.81,7.68,2.15,14.16,8.5,17.24,15.28,1.13,2.48,2.6,5.7,2.27,9.83-.07.83-.5,3.12-1.36,7.71-.8,4.23-1,5.12-.45,6.2,1.11,2.18,4.11,2.73,6.8,3.18,6.47,1.08,7.61-1.12,11.19,0,5.07,1.57,7.67,7.48,9.83,12.4,1.72,3.89,1.75,5.59,2.88,9.38,3.13,10.5,6.87,10.77,12.85,23.59,4.8,10.27,3,11.37,7,16,4.27,5,8,5.62,10.74,11.65a34.12,34.12,0,0,1,3,9.07c.35,2.84,0,4.75,1.52,6.65a8.46,8.46,0,0,0,4.53,2.73c3.7,1.1,5.11-.43,9.38.45a10.24,10.24,0,0,1,4.69,1.82c2.43,1.92,2.62,4.63,3.78,10,2,9.37,3,8.27,2.87,11.34-.27,5.41-3.5,11.93-8.47,13.61-2.34.8-3.23-.11-7.86.91a32,32,0,0,0-6.65,2.27A41.14,41.14,0,0,0,1346.2,1137.46Z"/><path d="M1045.38,874c-2,.77-2.45,4-2.57,4.84-.14,1-.32,3.51,2.88,10,2.73,5.54,4.16,8.33,7.11,9.53,2.06.84,2.39,0,5.74.6a23.85,23.85,0,0,1,10.14,5c2.81,2.15,1.85,2.17,7.41,7.26,2.64,2.42,3.64,3.14,5,5a25.11,25.11,0,0,1,3.17,6.51c1.1,2.71,3.5,6.14,8.32,13,5.33,7.59,5.6,7.16,6.81,9.84,2.19,4.85,1.39,6.48,3.78,10.43,2.15,3.56,6.19,7.85,8.47,7,1.93-.76,1.95-4.95,2-8.17,0-1.91-.12-7.11-3.17-15a56.73,56.73,0,0,0-5.9-11.5c-4.86-7.24-7.32-7.22-8.47-11.64-1.37-5.26.83-10.18,2-12.71,1.74-3.89,4.1-6.48,7.56-10.28,4-4.43,5.89-5.29,7.71-9.07a31.24,31.24,0,0,0,2.12-6.81,64.08,64.08,0,0,0,1.51-9.83c1.13-13.08,1.69-19.61-.45-22.84a38.14,38.14,0,0,1-4.39-7.11,12.07,12.07,0,0,1-1.51-5.29c0-2.8,1.44-3.9,3-7.26,2.23-4.7.79-5.41,2.88-10.74,1.88-4.81,3.21-4.64,4.69-8.62,1-2.74,1-5.85,1.06-12,0-11.73-1.22-12.49,0-17.69a47.25,47.25,0,0,0,1.66-7.87c.28-2.9.51-5.23-.15-7.86-.92-3.67-3.44-6.23-8.47-11.34a58.08,58.08,0,0,0-6.66-6,55.15,55.15,0,0,0-10.89-6.51c-6-2.68-7.1-1.85-11.34-4.53-1.48-.94-1.14-.91-6.2-4.84-6-4.7-6.11-4.41-7.86-6.05-2.18-2-2.79-3.13-7.26-9.23-2.72-3.7-4.66-6.35-6.81-9.07-6.34-8.05-7.13-7.49-11.65-13.77-2.1-2.93-4.46-5.69-6.35-8.77-1.54-2.5-2.52-4.47-4.84-5.6-1.63-.79-3.24-.84-5.74-.6-9.67.92-12.72,4.23-17.55,2.72-1.8-.56-1.45-1-4.84-3.17a47.47,47.47,0,0,0-13.76-5.6c-9.79-2.9-17.31-10.28-30.1-22.84a105.22,105.22,0,0,0-9.07-8.16,90.62,90.62,0,0,0-10.44-7.26c-2.39-1.43-4.19-2.49-6.8-3.78-2.8-1.38-3.25-1.4-4.39-2.27-1.59-1.23-2.64-3-4.69-6.51-1.16-2-1.77-4-3.78-6.5-.69-.87-1.45-1.7-2-1.51-.86.3.11,3-1.21,4.69-1.09,1.36-3.32,1.67-5,1.21a5.12,5.12,0,0,1-2.57-1.67c-1.51-1.9-1-4.52.15-9.68.76-3.43,1.15-5.17,2.27-6,.54-.42,1.07-.63,6.2-1.66,3.33-.67,3.9-.74,4.39-1.36,1.18-1.5.67-4.63-1.06-6.2-1.34-1.22-2.68-.84-8.92-.61-5.34.2-6.92,0-10.74.61-5.71.88-6.13,1.9-6.2,2.27-.15.76.71,1.12,2.57,3.63h0a13.75,13.75,0,0,1,2.57,4.08c.76,1.72.27,3.53-.45,6.2a25.54,25.54,0,0,1-2.42,5.75c-3.24,5.94-4.17,5.35-5.6,8.77-1,2.28-.37,2.14-2.27,9.68-.71,2.84-1.07,4.27-1.36,5-1.64,4.14-3.89,5.5-7.56,9.83-2.08,2.45-1.14,1.76-6.5,9.23-4.35,6-4.36,5.67-7.42,10a113.36,113.36,0,0,0-8.92,14.37c-1.19,2.35-5.1,10.11-3.93,10.89.85.57,4.25-2.72,6.5-5.75,2.44-3.28,2.87-5.38,4.39-8.32,2.7-5.25,4.63-5,8.92-10.59,5.84-7.6,3.8-10,10-17.39,2.72-3.23,4.9-5.76,8.62-7.11,1.54-.55,2.18-.49,9.23-2,5-1,4.42-1,5.6-1.21,5.4-.86,6.92.37,14.36.6,6,.19,6.35-.58,11.35-.15s7.63.5,9.53,1.81c3.55,2.48,2.24,5.43,6.65,10.44,1.15,1.31,1.1,1,6.2,5.29,4.82,4.11,5.06,4.6,7.71,6.81a95.48,95.48,0,0,0,12.71,8.77c6.16,3.76,9.24,5.64,11.49,5.9,5.55.65,8.64-2.07,12,.3,1.65,1.19,2.16,2.78,4.84,3.93a16.47,16.47,0,0,0,3.93.91c4,.82,4.82,1.71,7.72,2.42,4.48,1.1,4.91-.48,8.62.3,4.61,1,7.64,4.23,11.19,8,3,3.18,2.64,3.78,6.2,7.86,4.58,5.27,5.27,4.45,8.17,8,5.59,6.89,3.3,10.31,8.92,15.73,2.17,2.09,3.1,2.15,6.65,5.6,3.06,3,2.82,3.35,5.9,6.5s3.8,3.19,9.68,8.62c3.35,3.09,3,3,4.39,4.08,4.06,3.25,6.83,4,10.13,5.9a30.6,30.6,0,0,1,10.29,8.92c4.4,6.46,4.39,13.86,4.38,19.36,0,2.66-.22,1.07-.91,10.14a118.17,118.17,0,0,1-1.81,15.27c-.66,3.4-1,4.31-1.51,5.14-.62,1.09-2,3-8,6.66-5.28,3.18-5.31,2.34-6.65,3.78s-1.94,2.93-3.94,11c-.88,3.59-1.37,5.37-1.66,7-.79,4.32-1.44,7.84-.91,12.4a35.3,35.3,0,0,0,2,7.86,36.26,36.26,0,0,0,3.93,8c1.67,2.57,2.19,2.64,2.42,2.57.85-.25.71-3.25.61-5.29-.28-5.74-1.58-8.05-.31-9.23,1-.94,3-.49,3.78-.3a5.61,5.61,0,0,1,3.18,1.81c1.53,2-.47,3.92,0,7.87.51,4.24,3.21,5.34,2.42,7.86-.51,1.63-1.74,1.52-4.08,3.63-3.81,3.44-2.67,5.64-6.2,9.08-2,1.92-4,2.82-7.11,4.23-3.29,1.48-5.16,2.37-7.87,2.57-3.49.27-6.27-.71-9.83-2a31.33,31.33,0,0,1-5.14-2.27,34,34,0,0,1-6.35-4.84c-4.73-4.28-5.64-6.07-9.68-8.92C1047.5,873.76,1046.26,873.67,1045.38,874Z"/><path d="M886.88,591.78c-1.75-.63-6-2.18-8.77,0-2,1.63-2.74,5-1.66,6.05.81.79,2.11-.22,5.14-.3,2.61-.07,3.12.64,7,1.36,3,.56,8.29,1.19,8.62.15.1-.31-.26-.74-3.33-2.87C890.09,593.56,888.22,592.26,886.88,591.78Z"/><path d="M4.69,504.82c0-.42,0-1-.15-1.06-.37-.12-1.45,1.76-2,3.63a7.7,7.7,0,0,0-.16,4.69c.73,2.11,2.2,2.29,2.42,3.63.4,2.41-5.1,3.62-4.83,5.59.14,1,1.65,1.7,2.72,1.82,2.51.27,4.32-2.41,4.84-3.18a9.44,9.44,0,0,0,1.51-5C9.29,509.7,5.7,505.83,4.69,504.82Z"/><path d="M1.06,531.44c.57-.54,4.21,1.33,5.15,4.38.22.75.44,2,0,2.27-.65.35-2.42-1.71-3.18-2.72C2.9,535.2.49,532,1.06,531.44Z"/><path d="M554.61,1315.47c-1.16.21-1,2-2.73,5.14-2.26,4-4.92,5.11-4.38,6.51.36.94,1.89,1.27,2.87,1.21.79,0,1.7-.37,4.39-3.33,2.3-2.54,3.46-3.83,3.48-5C558.28,1317.66,556,1315.21,554.61,1315.47Z"/><path d="M604.67,1270c-.56-1.19.09-1.79-.46-3.18s-2.14-3-3.78-2.87c-2,.2-3.11,2.93-3.17,4.84a4.19,4.19,0,0,0,1.06,3.33c1.31,1.14,2.8.09,5.44.6,1.89.37,3.07,1.3,5.44,3.18a27.62,27.62,0,0,1,5.15,5.44,17.08,17.08,0,0,1,2.72,4.24c1.47,4-.16,8.08-.76,9.37-2,4.34-4.37,3.61-5.9,7.56s.17,6.34-1.81,8c-1.65,1.41-4.31,1-5.75.76a17.45,17.45,0,0,1-5.59-2.27c-3.3-1.75-3.85-2.64-5.75-2.72a6.43,6.43,0,0,0-3.63.9c-1,.61-1,1-2,2-1.52,1.45-2.31,1.22-4.84,2.72-2.79,1.67-2.87,2.57-3.78,2.42-2-.32-1.49-4.6-4.23-5.9-1.79-.84-2.53.73-5.9.15-1.58-.27-1.74-.67-5.14-1.81,0,0-1.68-.56-4.09-1.21-4.33-1.16-7.22-.74-14.52-1.36-5.81-.5-8.28-1.14-10.58-2.12a13.47,13.47,0,0,1-4.39-2.72c-2-2-2.72-4.2-3.63-7.11-.95-3.06-1.57-5-.6-6,.66-.69,2-.61,4.84-.45,3,.17,4.11.65,5.29-.15a3.4,3.4,0,0,0,1.36-2.12c.28-1.84-1.43-3.55-3-5.14-1.79-1.79-2.85-2.17-2.73-2.88,0-.26.27-.66,4.09-1.81a19,19,0,0,1,4.38-1.06c2.29,0,2.49.89,4.69.76,1.23-.08,1.16-.36,3.78-.91,2-.41,2.28-.31,3.63-.61a19.14,19.14,0,0,0,4.84-1.81c1.74-.93,4-2.2,5.15-4.69a2.7,2.7,0,0,0,.3-2.27c-.14-.25-.61-.93-3.78-1.06a26.09,26.09,0,0,0-5.75.46c-2.2.39-3.19.69-4.84,1a41,41,0,0,1-7.87,1.21c-5,.16-5.09-1.47-9.83-1.21-3.72.22-4.76,1.29-6.5.31s-2.59-3.11-3.48-5.3a8.2,8.2,0,0,1-.91-3.32c0-2.56,1.91-5.43,4.24-5.9,2.55-.52,3.79,2.23,5.9,1.51s2.8-3.85,2.87-5.75a8.89,8.89,0,0,0-.91-4.08,11.51,11.51,0,0,0-5.44-6.05c-2.46-1.12-3.08,0-5-1.06-2.76-1.51-4.39-5.41-4.08-8.77.32-3.62,2.7-4.35,2.11-7.11-.4-1.9-1.92-3.35-3.63-5s-2.34-1.6-3.48-3c-.24-.31-2.9-3.64-1.81-5.45s5.42-1,5.9-.91c2.33.48,2.83,1.43,5.74,2.12a18.18,18.18,0,0,0,3.79.45c5.52,0,9.82-4.5,10.73-5.44,3.93-4.07,3.35-6.86,6.36-8.17,2.21-1,4,1.73,7.71.91a10.62,10.62,0,0,0,2.42-.91,21.09,21.09,0,0,0,5.6-4.08,38.48,38.48,0,0,0,3.78-4.24,61.38,61.38,0,0,0,4.53-7c1.71-2.86,2.35-4,3.78-6.51s2.89-4.85,5.9-9.83c4.75-7.82,4.42-7.14,5.6-9.22,2.72-4.79,2.77-5.42,4.54-7.87,2.72-3.77,3.28-3.21,5-6.2,1.35-2.36,1.85-4.19,3.93-5.44a4.71,4.71,0,0,1,3-.91c2.22.3,3.57,3.1,5.45,7.86,3.5,8.92,2.54,8.74,4.23,12,3.42,6.48,6.94,6.45,8.17,11.8.68,3-.36,3.14-.45,8.62a47.8,47.8,0,0,0,2.42,15.73c2.37,7,4.79,8,4.69,12.85-.09,3.92-1.68,3.61-2.12,8-.37,3.6.65,4.22,3.33,16.49a42.8,42.8,0,0,1,1.05,7c.21,3.39-1.29,5.57-.15,6.66s2.35-.23,3.93.75c2,1.25,2.09,4.52,2.12,5.75.06,2.19-.5,2.81-1.06,5.6-1,5.11.3,5.66-.75,9.07s-2.28,2.82-3.93,6.81c-.85,2-1.18,4.15-1.82,8.32-.84,5.49-1,9-1.66,9.07s-.55-2.46-2.73-4.69c-.73-.76-.92-.65-3.17-2.12-3.81-2.47-3.41-2.84-5.9-4.23S605.24,1271.18,604.67,1270Z"/><path d="M553.7,1183.74a6.93,6.93,0,0,0,1.06-.91c1.77-1.84,1.9-4,2.57-6.35s1-1.91,2.27-5.14c2.53-6.27,1.2-7.25,3.32-11.34,1.81-3.47,2.9-3,4.39-6.66,1.1-2.66.86-3.75,2.27-5.59,1.61-2.12,2.56-1.53,4.54-3.79,2.26-2.58,2.42-5,3.78-5,1.15,0,1.77,1.66,2.72,1.36.58-.18.57-.88,1.51-2.11a9.66,9.66,0,0,1,1.51-1.52c1.59-1.38,2-3.09,3.63-5.74,1.78-2.84,2.89-3.37,4.84-7,.76-1.39,1.08-2.21.76-2.57-.45-.52-2.19-.1-3.33.91-1.36,1.2-.93,2.41-2.42,4.23-.71.87-.81.6-2.11,1.82-2.69,2.5-2.9,4.25-4.39,4.38a2.86,2.86,0,0,1-2.12-.91,3.43,3.43,0,0,1-.9-2.42c0-1.32.57-1.83,1.51-3.78,1.4-2.9.86-3.42,2.12-5.14.85-1.16,1.06-.87,2.41-2.42s2.58-2.93,2.73-4.69a6.06,6.06,0,0,0-1.52-4.23c-.39-.46-1-1-5.29-2.72a35.44,35.44,0,0,1-3.48-1.36,10,10,0,0,1-4.38-6.36c-.46-2.25.36-2.59-.15-5.14-.32-1.54-.76-3.74-2.42-5-1.31-1-3.75-1-8.62-.91-2.17,0-2.9.12-3.79-.45-1.29-.84-1.23-2-3-3.63-1-.88-1.72-1.53-2.42-1.36-1.64.39-.49,4.71-3,7-.88.78-2.8,1-6.65,1.37-3.47.35-5.23.51-6.65,0-2.55-.92-2.22-2.37-4.84-4.09-4-2.6-8.92-2-12.26-1.66-2.13.24-2.49.81-4.53.91-3,.13-4.13-.69-6.05.15a6,6,0,0,0-2.72,2.42c-.83,1.44-.37,2.22-1.06,5a9.54,9.54,0,0,1-1.21,3.33c-1,1.45-2.44,2-5.45,3-6.45,2.26-6.29,2.09-6.5,2.27-3.74,3.12-2.95,11.73-1.66,16.64.72,2.76,1.48,3.92.75,5.14-1,1.6-3.38,1.38-11.19,1.66-1.34.05-4.22.24-10,.61-6.91.44-8.68.67-10.44,2.11-.25.21-3.3,2.79-2.87,5.75.24,1.65,1.72,3,4.69,5.6a20.82,20.82,0,0,0,3.17,2.57c3.41,1.84,8.53,1.93,11.8-.61,2.09-1.62,1.63-2.92,3.63-3.93a7.22,7.22,0,0,1,8.32,1.51c2.06,2.32,2.36,6.12.75,7.87s-3.89.37-4.84,1.81c-1.51,2.32,2.67,8.61,4.69,11.65a7.89,7.89,0,0,1,1.36,2.72c.83,3.32-.87,7.25-2.57,7.41-1.12.11-1.72-1.48-2.72-1.21s-1.54,1.75-1.36,3c.37,2.63,4.34,4.16,7.26,5.29,3.38,1.31,3.71.72,5.75,2a16.78,16.78,0,0,1,5,5,23,23,0,0,1,1.66,3c2.16,4.41,1.69,5.5,3.18,6.66s2,.27,4.23,1.66c1.52,1,1.41,1.43,3.33,2.87a11.37,11.37,0,0,0,4.08,2.27,9.69,9.69,0,0,0,5.3-.15c1.26-.4,3.12-1,4.08-2.57.64-1.06.59-2.1-.3-7.11-1-5.55-1.35-6.58-.61-7.71.94-1.44,2.81-1.74,5.14-2.12,1.61-.26,4.63-.74,7.26.91a12.14,12.14,0,0,1,2.88,2.72c1,1.3,1,1.8,1.81,2.57a7.16,7.16,0,0,0,4.09,1.67c1.85.28,4.91.76,6.65-1.21A5.55,5.55,0,0,0,553.7,1183.74Z"/><path d="M552,1080.29c.3-.17-.2-1-.16-2.42a6.46,6.46,0,0,1,2-4.38c.59-.47.89-.44,5-1.37,2.51-.56,2.73-.65,3-.9,1.23-1,1.28-2.86,1.36-5.45a18.86,18.86,0,0,0-.31-4.38,24,24,0,0,0-2.26-6.2c-1.64-3.55-2.46-5.32-4.09-7.26-1.2-1.44-1.62-1.55-3.48-3.79-1.21-1.45-1.45-1.92-2.26-2.42a6.17,6.17,0,0,0-4.84-.6c-2.19.83-1.77,2.72-4.69,5.14-1.94,1.61-2.91,1.43-3.33,2.57-.82,2.23,2.06,5.21,2.72,5.9,4.12,4.26,9.11,4.27,9.38,7,.12,1.2-.81,1.85-.3,3,.63,1.47,2.5,1.42,2.72,2.57a2.61,2.61,0,0,1-1.66,2.42c-1.81.76-3.25-1.27-6.81-2.72-4-1.64-9.35-1.92-10.44,0a1.92,1.92,0,0,0,0,1.82c1.07,1.79,4.88-.7,8.62,1.36,1.68.92,1.86,1.93,4.24,3a4.25,4.25,0,0,1,1.81,1.21c.73.92.45,1.63.91,2.88C549.86,1079.17,551.59,1080.54,552,1080.29Z"/><path d="M459.93,1122.34a23.47,23.47,0,0,1,4.08-.91c4.1-.72,4.73-.37,5.75-1.21.56-.46,1.08-1.52,2.12-3.63a23.94,23.94,0,0,0,1.36-3c.69-2.15.47-4.08,0-7.86a15.27,15.27,0,0,0-.91-4.39c-.69-1.57-2.37-4.37-3.93-4.08-1,.19-1.65,1.62-1.82,2.57-.07.43-.14,1.22.91,3.78,1.16,2.84,1.65,2.86,1.82,4.24a7,7,0,0,1-.76,3.93,8.26,8.26,0,0,1-1.66,2.12,11.39,11.39,0,0,1-3.18,2.42,24.09,24.09,0,0,1-2.72.9c-.88.34-4.32,1.65-5.3,4.54-.06.19-.59,1.82,0,2.27S457.46,1123.25,459.93,1122.34Z"/><path d="M465.37,1093.3c.25.53-.06,1-2,4.54a16.41,16.41,0,0,0-1.51,3c-.62,2.37.54,3.2-.16,5.14-.18.52-.3.57-2.26,2.88-2.67,3.13-2.33,2.92-3.18,3.78a42.55,42.55,0,0,1-4.39,3.48c-1.74,1.29-2.32,1.63-3,1.51s-.91-.7-2.27-2c-1.8-1.67-2.34-1.41-3-2.42a5.78,5.78,0,0,1-.46-4.54c.66-2,2-2,3.63-4.68,1.33-2.22.68-2.64,1.67-3.63,2.26-2.29,5.64,0,7.71-2.12,1.58-1.61.52-3.89,2.57-5.29a4.91,4.91,0,0,1,2.27-.76C462.28,1092.06,464.83,1092.09,465.37,1093.3Z"/><path d="M442.39,1084.07c-.05.85.72,2.39,2.26,5.45,1.16,2.29,1.67,3,1.37,3.78-.54,1.39-2.95,1.67-4.24,1.81a11.25,11.25,0,0,1-7-1.36,12.49,12.49,0,0,1-4.38-4.54,20.73,20.73,0,0,1-2.42-5.59c-2-5.77-5.36-6.58-8.62-11.8-2.95-4.71-.54-7.35-3.78-12.1a15.69,15.69,0,0,0-3.48-3.78c-2.65-2-4-1.59-7.87-3.48-2.2-1.07-1.24-1-6.95-4.53-3.31-2.07-4.43-2.61-5.9-4.24s-2.61-2.88-2.73-4.69,1-2.75,3.79-7.56c2.1-3.59,1.55-3.17,2.26-4.08,3.89-4.94,9.25-3.24,11.2-7.26.77-1.61-.08-1.88.9-6.51a21.07,21.07,0,0,0,.31-4.08c0-1.53-.15-1.73-.31-1.81-.66-.36-2,1.36-5.29,4.38-1.21,1.12-1.82,1.68-2.57,2.27-3.73,2.95-5.74,2.75-9.68,5.6a14.56,14.56,0,0,0-3.33,2.87c-2.9,3.69-1.49,6.77-3.78,8.62-2,1.58-4.94.9-7.56.3-2.45-.56-4.69-1.89-9.07-4.53-3.5-2.11-3.17-2.14-5.3-3.33-4.5-2.52-6.44-2.65-9.53-4.24-4.06-2.09-5.41-4.28-8.62-7.26C330.87,1002,319,1002.47,316.4,995a23.68,23.68,0,0,1-1.21-5.59c-.2-3,.46-3.9.15-6.81-.22-2.1-1-5.81-2.27-5.9-1.07-.08-2.43,2.51-2.87,4.69-.38,1.87.1,2.52-.45,3-1.29,1.18-5.69-.69-8.47-3.63-.82-.86-.55-.81-3.33-4.53-1.52-2-2.28-3-3-3.93-3.07-3.65-4.8-4.59-4.54-6,.09-.54.44-1,1.81-2,3.82-2.56,5.84-1.74,9.53-3.63a23.73,23.73,0,0,0,5.9-4.69,34.65,34.65,0,0,0,3.48-3.93c3.19-4.26,3-6.16,4.54-6.5,2.42-.53,6.36,3.23,6.35,5.89a2.95,2.95,0,0,0,2.11,3.33,10.86,10.86,0,0,1,4.09,3.78c1.45,2,1.59,3.85,2.12,3.78s.66-1.06.45-1.21-2.62,1.75-3.93,4.24a19.6,19.6,0,0,0-1.67,5.59,17.15,17.15,0,0,1-.75,3.48c-.91,2.3-2.08,2.78-1.82,3.48.62,1.63,7.53.51,7.87.45a26,26,0,0,1,3.32-.6c2.51-.13,3.24.56,5.15,0,0,0,.22-.07,2.42-.91a19.23,19.23,0,0,0,4.53-3.32c.84-.84,3.23-3.44,2.42-2.58a3.68,3.68,0,0,1,2.27-.6,3.84,3.84,0,0,1,1.82.76c1.94,1.31,2.63,3.13,2.87,3s-.11-1.38-.3-1.36-.14,2.38-.3,5.9c-.23,4.86-.66,4.53-.76,7.86-.16,5.54,1,8.83-.3,13.31a9.93,9.93,0,0,1-.33,1,38.34,38.34,0,0,1,2.6-10.58c1.45-3.69,2.59-4.89,2.87-8.16.21-2.51-.29-3.77.15-3.94,1-.36,5.22,5,5.14,11,0,2.31-.69,4.16-.45,4.24.59.19,3.5-11.55,6.2-11.34,1.92.14,3.67,6.29,3.93,10.89a32,32,0,0,0,.46,5.59c.87,4.39,2.42,5.7,3.17,6.2s1.6,1.08,2.12.76c1.73-1.07-4.73-10.15-1.06-16.18.55-.91.56-.48,1.66-2a21.12,21.12,0,0,0,4.24-11.34c.12-2.84-.52-4,.45-6.05.35-.75,1.24-2.64,2.73-2.88,3.2-.5,6.63,7.16,7.56,9.23,1.26,2.83,1.9,4.24,1.66,6.05-.33,2.55-1.88,3.11-4.69,7.56a57.1,57.1,0,0,0-3.48,6.66c-1.85,3.92-2.68,6.44-4.38,7.86a19.54,19.54,0,0,0-2.12,2.12c-.56.64-1.18,1.36-1.06,1.51s2.14-1.17,4.24-2.42A50.4,50.4,0,0,1,395.5,1001c3.07-1,5.95-1.49,6.2-3,.07-.43-.09-.82,0-2.12a19,19,0,0,1,.3-2.12,11.68,11.68,0,0,0-.15-4.08c-.33-1.92-.74-1.87-1.36-4.39-.3-1.25-.18-1.18-.6-3.33-.47-2.35-.94-4.09-1.06-4.53-.41-1.5-.46-1.39-1.51-4.69-1-3-1.45-4.5-1.52-4.84-.42-2-.33-3.06-1.21-3.78a3.83,3.83,0,0,0-2.42-.61c-4.76-.3-4.72-1.32-6.65-.9a7.91,7.91,0,0,0-5.29,4.53c-.83,1.92-.67,4-.46,6.51a17.51,17.51,0,0,1,.15,4.38c-.18,1.4-.36,2.86-1.21,3.33s-1.92-.71-6-3.63c-2.85-2-3.47-2.27-3.93-2.42-2.87-.94-6-.32-6.05.15,0,.3,1.23.56,1.21.61s-4.22-.25-5.29-2.57a28.24,28.24,0,0,1-.61-3.33c-.25-1.59-.24-1.74-.45-2-.8-.84-2.1,0-4.54-.6a4,4,0,0,1-2-.91,4.44,4.44,0,0,1-1.06-3.48c.2-2.41,1.92-2.87,2.27-5.44a3.79,3.79,0,0,1,.45-1.52,4,4,0,0,1,1.51-1.51c1.52-.88,2.93,0,3.18-.45.38-.75-2.79-3.21-3.33-3.63a12.11,12.11,0,0,1-1.36-1.06,5.52,5.52,0,0,1-1.82-3.78,5,5,0,0,1,1.67-3.48c1.5-1.32,2.85-.76,4.38-2.27a5.65,5.65,0,0,0,1.21-1.81,11,11,0,0,0,.46-7.26c-.77-3-2.17-3.88-1.67-5.9.08-.3.4-1.63,1.37-2,1.22-.43,2.72,1,3.93,2.12A19.58,19.58,0,0,1,365,928.6a24.7,24.7,0,0,1,3.48,6.2,11.14,11.14,0,0,1,.91,3.78c.05,2.12-.7,2.53-.76,4.69s.64,1.88.91,4.84c.2,2.23-.19,2.41,0,5.29a21.11,21.11,0,0,1,0,2.88,12.25,12.25,0,0,1-.16,1.51C368.87,960,367,960,366.16,962a5.94,5.94,0,0,0,.3,4.54,6.68,6.68,0,0,0,2.12,2.57,8.12,8.12,0,0,0,3.48,1.36c1.13.26,1.45.17,1.66,0,.52-.41.12-1.16.3-2.12.35-1.8,2.21-1.63,4.39-4.38a11.83,11.83,0,0,1,1.82-2.27,10.29,10.29,0,0,0,1.81-1.51c.3-.38,1.1-1.39.76-2.12s-1.44-.75-1.52-.76c-2-.1-3.72,2.42-4.23,3.18-1,1.48-1,2.22-2.42,4.23-.9,1.25-1.25,1.43-1.51,1.52-1.89.6-4.21-2.17-4.39-2s.51,1.14,1.06,1.06.58-1.79,1.66-4.54c.62-1.58.81-1.41,1.36-2.87a21.17,21.17,0,0,0,1.06-4.84,28.4,28.4,0,0,0,.61-5.6c-.25-2.24-.93-1.92-1.51-5-.42-2.17-.21-3-.91-5-.51-1.44-.65-1.06-1.21-2.57-1-2.67-.57-3.82-1.82-6.35-.33-.68-.3-.48-.75-1.36-1.25-2.44-1.13-3.34-2-4.84a7.67,7.67,0,0,0-2.57-2.88c-1.48-.94-2.91-1-5.14-1.06s-3.54-.11-4.39.61c-1.81,1.53-1.12,5.14-1.21,5.14a12.37,12.37,0,0,1,0-2.72,15.73,15.73,0,0,0,.91,6.2c1,2.44,2.47,3.61,2,5.29-.23.75-.79,1.47-.46,2s1,.46,1.06.3-2.21-1.21-4.08-3.78c-.94-1.29-.74-1.6-1.52-2.27-.3-.26-1.21-1-4.53-1.21-1.89-.14-4.76-.36-5,.46-.19.63,1.31,1.58,1.66,1.81,1.44.92,2.13.62,3.78,1.36,1,.45,2.8,1.25,3.18,2.72.24,1-.32,1.4-.61,3.18-.24,1.47.2,1.59,0,3.33a12.28,12.28,0,0,1-.56,2.48c-.23.76-.35,1.14-.5,1.15-.44,0-1-2.34-1.21-4.24-.31-3.13,1-4.13.31-5.14-1-1.37-3.35.17-5.9-1.36-1.92-1.15-1.19-2.37-3.18-3.78-1.8-1.29-3.86-1.31-7.71-1.36a8.86,8.86,0,0,0-3.33.3,8.2,8.2,0,0,0-4.08,3.93,5.08,5.08,0,0,0-.76,2.12,5.94,5.94,0,0,0,.3,2.12c.45,1.65.81,1.63.91,2.57a4.89,4.89,0,0,1-.75,2.87c-.47.87-1,1.85-1.82,2s-1-.5-2.27-1.36c-2.38-1.68-3.7-1.25-4.38-2.58a4.11,4.11,0,0,1-.16-2.42,13.81,13.81,0,0,1,1.37-4.08c1.42-3.35,1.8-3.76,2.26-4.08s.82-.44,1.67-1.06.89-.83,1.51-1.21a13.49,13.49,0,0,1,2.27-.91,16.63,16.63,0,0,0,2-1.06,12,12,0,0,1,5.45-1.06c1.89,0,2.13.24,3.63,0a6.59,6.59,0,0,0,2.87-.9c1.51-1.08,1.17-2.78,2-5.75,1.08-4,2.39-3.53,3.33-7.41a36.89,36.89,0,0,0,.75-6.2c.19-3.12-.05-3.8.61-4.54,1.48-1.65,5.49-1.28,7.71.61.57.48.39.53,2.57,3.63a41.4,41.4,0,0,0,2.72,3.63c2.07,2.27,3,3.52,4.09,3.32a2.67,2.67,0,0,0,1.81-2.27,3,3,0,0,0-.3-1.51c-.92-2.49-1.38-3.74-1.51-3.93-.52-.73-.7-.6-3.48-2.57a16,16,0,0,1-3-2.42,6.76,6.76,0,0,1-1.36-4.39c.21-2,1.55-2.83,3.63-5.29a29.2,29.2,0,0,0,4.24-6.35c2.32-5.15,0-7.31,2.57-10.29a13,13,0,0,1,5.9-3.48c2.09-.6,2.48-.13,3.78-.75,2.45-1.18,2.5-3.54,4.54-7,3-5,5.26-3.93,6.35-7.41,1.14-3.65-1.38-4.79-.3-10,.62-3,1.7-3.7,1.21-5.6-.68-2.6-3.12-3-3.63-5.44-.21-1-.11-2.25,1.51-5,3.24-5.5,5.94-5.62,8.16-9.23,3.09-5,1.89-11.24,1.52-13.16-.95-4.88-3.05-6.23-3.18-11.49-.07-2.69.48-2.44.76-6.35.26-3.64.64-9-1.82-14.22-1.05-2.22-1.21-1.42-4.08-6.2-1.93-3.21-1.92-3.69-4.08-7.41-1.93-3.32-2.09-3.21-4.54-7.41-.16-.28-1.82-3.14-3.48-6.81a21.76,21.76,0,0,1-1.36-4.08,9,9,0,0,1-.3-3.18,8.41,8.41,0,0,1,.75-2.57,8.07,8.07,0,0,1,2.42-3.63c.76-.54,1.59-.79,3.93-.91a47.66,47.66,0,0,1,8.63.46c4.47.51,5.46.73,6,1.66a3,3,0,0,1,0,3.18c-1.17,1.61-4.59,1.17-7.86.75-1.88-.24-2-.44-2.87-.3-2.82.45-5.47,3.32-5,5.29a2.09,2.09,0,0,0,1.36,1.52c.49.13,1,0,2.87-1.21a21.77,21.77,0,0,1,2.42-1.52,8.93,8.93,0,0,1,3.93-.3c2.26.11,2.15.42,3.33.3,1.95-.19,2.4-1.07,3.78-.9a4.58,4.58,0,0,1,2.57,1.51c2.92,2.69,2.3,4.83,4.84,6.65a9.33,9.33,0,0,0,3.18,1.36,22.32,22.32,0,0,0,5.29.61c.69,0,2.12.18,5,.45s4.76.45,7,.76c5.67.78,6.05,1.36,7,.76,2.05-1.38.63-4.72,3.63-7.57a8.64,8.64,0,0,1,2-1.36,11,11,0,0,1,7.56-1.06,11.5,11.5,0,0,1,6.51,4.84c1.34,1.83,1.86,3.48,2.72,6.2a19.55,19.55,0,0,1,1.21,6,21.29,21.29,0,0,1-.76,5.6c-.46,1.92-.69,2-1.05,3.48-.33,1.28-1.72,6.79.45,8.47,1,.77,2.73.51,6.2,0,2.2-.33,2.61-.64,3.48-.3.6.23,1.15.67,3.17,4.68,1.55,3.06,1.64,3.62,1.52,4.24-.17.84-.63,1.28-2.42,3-3.7,3.59-3.86,3.76-4.09,4.09-1.13,1.62-1,3.05-1.21,6.5-.44,8.68-1.42,7.69-1.06,11.65.44,4.69,1.63,4,2.27,9.83.2,1.77.26,3.37,1.21,3.78s3-.73,3.94-2.27c1.62-2.59.06-5.22,1.51-6.2a3,3,0,0,1,3.17.45c.6.47.9,1.1,1.37,3.63.62,3.41.94,5.11.6,6.81-.43,2.18-1.11,1.91-1.36,3.78-.12.86-.16,2.3,1.51,6.65.75,1.94,1,2.22,2,4.54,2.78,6.5,2.87,8.64,2.87,9.53a8.72,8.72,0,0,1-.91,4.38,8.46,8.46,0,0,1-3.32,3.33c-3.51,2.09-6.72-1.05-9.08.91-.32.27,0,.09-1.81,2.87-1.2,1.82-2.57,3.78-2.57,3.78,3.14.9,4.64.36,5.44-.3,1.18-1,.82-2.22,2.12-3.17s2.27-.09,4.84-.61c.75-.15,4-.91,5.74-3.48,1.23-1.82.89-3.39,1.52-3.48.88-.12,1.9,2.91,3.78,7.41.27.66,2.16,5.17,3.48,7.72,1.48,2.87,3,4.77,8.92,10.89,7.45,7.75,7.25,7.08,10.13,10.28,7.29,8.09,5.85,9.3,11.35,14.67,6.9,6.75,9.16,4.82,13.76,10.89,3.89,5.15,5.81,11.22,6.81,14.37a48.91,48.91,0,0,1,2,8.17c.53,3.64.25,4.88.76,10,.39,3.9.67,4.34,1.06,7.71a107.16,107.16,0,0,1,.45,12.25c0,10.58-.36,12.82.6,17.85a19.48,19.48,0,0,0,3.18,8,12.64,12.64,0,0,0,4.69,4.39c2.4,1.2,3.52.56,4.39,1.66s.15,2.81-1.37,8.47c-1.59,6-1.3,6.57-2.57,8.32a12.83,12.83,0,0,1-5.74,4.39,13.4,13.4,0,0,1-4.09.75c-5.68.47-6.38,2.34-11.79,3.33-6.93,1.27-8.51-1.29-12.71.91-2.72,1.42-2,2.45-5.29,4.84-3.89,2.79-5.84,2-12.71,5.14-4.29,1.94-6.44,2.94-6.8,4.84-.51,2.65,2.33,6.56,5.44,7.26,1.66.37,3.65-.12,4.84,1.21a7.29,7.29,0,0,0,1.36,1.36,8.91,8.91,0,0,0,1.67.91c.11,0,1.29.6,2.11.91,2.9,1.06,5.26.48,8.93,1.81.32.12.06,0,2.57,1.06,2.23.91,3.34,1.36,3.78,1.51a11.65,11.65,0,0,0,6.2.3c5-1.31,6.69-7.67,8.17-7.1.87.33.86,2.76.75,3.78a4.71,4.71,0,0,1-.6,2.11c-.62,1-1.38,1.21-2.87,2.12A11,11,0,0,0,528,1064c-.52,1.08-.21,1.17-.61,2-1.85,3.66-9.35,3.38-10.43,3.33a27.3,27.3,0,0,1-7.72-1.66c-4.1-1.38-5.42-2.63-8.47-2.57-1.39,0-4,.07-5,1.66-.84,1.4.24,4,2.42,9.23,1.3,3.07,2.14,4.66,1.52,5.29s-2.94-.41-3-.45c-2.72-1.45-3.79-4.66-4.38-6.51-1-3.07-.4-3.86-1.52-5-1.57-1.59-4.65-2-6.2-.76-.57.46-.42.72-1.06,1.37-1.35,1.37-2.81,1-5,1.66a12.93,12.93,0,0,0-5.14,3.48c-2,2-2.14,3.22-3,3.17-1.08-.05-2.08-2.05-4.09-6.05-.71-1.42-1-2.15-1.81-2.42s-1.33.12-3.94,1.37c0,0-1.8.86-3.93,1.81-2.54,1.14-2.72,1.06-3.93,1.66a22.68,22.68,0,0,0-4.54,3.18C444.36,1080.85,442.48,1082.42,442.39,1084.07Z"/><path d="M336.52,933.59c-.18-1-2.7-1.31-4.39-1.51s-2.93-.34-4.08.45a4,4,0,0,0-1.36,1.66c-.73,1.52-.43,2.91,0,5.3,1,5.86.7,5.71,1.36,7.56a33,33,0,0,0,2.27,4.54c2.93,5.34,3.92,6,3.93,8,0,1.49-.52,2.6-1.51,4.69a62.19,62.19,0,0,1-3.33,5.44c-2,3.16-2.29,4-2,4.39s.71.28,2.72,0c3.07-.43,4.84-.76,4.84-.76,4-.75,4.2-.7,5-1.05a13.8,13.8,0,0,0,3.32-2.27,10.07,10.07,0,0,0,3-3.33c.59-1.21,1.16-3.26.45-3.78-.91-.67-3.61,1.49-4.38,2.12-2,1.61-2.39,2.67-4.54,3.93-1.12.65-2.39,1.16-2.57.91s1.14-1.11,2.11-3.18a9.39,9.39,0,0,1,.91-2c.38-.49.63-.61,2.12-1.66,1.79-1.26,1.76-1.32,2.57-1.82,1.41-.86,1.55-.72,2.27-1.21,2-1.37,3.22-4.09,2.57-4.84-.48-.54-2,0-2.27.16-1,.39-1.69,1.12-3,2.57-1,1.09-.88,1.09-1.36,1.51-1.21,1-3.06,1.9-3.63,1.36s0-1.57.15-2c.43-1.12,1.12-1.73,2.57-3,1.17-1.05,2.31-2.12,3.48-3.18a8,8,0,0,0,2.26-2.57,4.66,4.66,0,0,0,.46-2.57c-.07-.48-.3-1.51-.3-1.51h0a5.62,5.62,0,0,0-1.37-.91,2.27,2.27,0,0,0-2.11.61c-.53.52-.28.86-.76,2a9,9,0,0,1-2,2.73h0a4,4,0,0,1-1.82,1.36,2.36,2.36,0,0,1-2.42-1.52c-.16-.53.07-.87,1.21-3.17a20.66,20.66,0,0,1,1.21-2.42c1-1.26,1.77-1.16,3.18-2.72a4.94,4.94,0,0,0,1.06-1.52c.56-1.44.28-3.38-.46-3.63-1.23-.41-3.68,3.86-3.78,3.78s1.66-2.45,1.51-2.57-5.54,5.65-5.29,5.9,1.23-.88,1.21-.91-2.67,2.56-3.63,2,0-4.19,1.06-6.35a12,12,0,0,1,.91-1.67C335.39,934.69,336.65,934.32,336.52,933.59Z"/><path d="M2227.64,2151.68c-2.8,1.51-1.48,1.25-7.11,4.84-6.34,4.05-9.62,5.39-10.89,9.08a10.54,10.54,0,0,0-.45,3.63c-.09,6.31,2.34,9.88,4.08,15,3.35,9.84.52,14.86,3.78,16.49,1.88.93,4.28-.24,9.08-2.57,6.91-3.38,7.5-5.5,13.46-8a52.85,52.85,0,0,1,8.92-2.72c5.63-1.31,7.57-1,10.74-2.88,1.21-.71,2.62-2.08,5.44-4.84,5.2-5.06,5.61-6.63,5.75-7.41a9.41,9.41,0,0,0-1.36-6.2c-1-1.73-2.33-3-7.11-5.9-5.77-3.45-6.42-3.12-9.68-5.29-5.86-3.9-4.88-5.7-8.32-7C2238.4,2145.88,2232.13,2149.26,2227.64,2151.68Z"/><path d="M2053.56,2289.62a20.17,20.17,0,0,0-6.2,7.56,31.65,31.65,0,0,1-1.51,3.33,28,28,0,0,1-3.63,5c-4.47,5.22-3.57,4.84-5.3,6.5a25.45,25.45,0,0,1-10.43,6.05c-2,.57-2.21.33-8,.91-8,.8-12.08,1.22-13.16,2.57-1.37,1.71-.25,2.95-.15,15,0,2.79,0,4.62-1.06,6.66a12.91,12.91,0,0,1-5.59,5.29c-4.49,2.44-6.42.78-8.93,3a9.53,9.53,0,0,0-2.57,8.47c.54,2.93,2.13,2.87,4.09,7a24.42,24.42,0,0,1,2.26,10.13c.05,4.5-1.24,4.74-.45,7.11,1.1,3.3,3.62,2.93,6.35,7.56,1.4,2.38,1.47,3.72,2.88,4.24,2,.75,4.49-1.16,5.14-1.66,3.32-2.6,2.57-5.24,5.14-7.57,1.46-1.32,2.24-1,8.77-2.27,8.47-1.69,9.2-2.71,13.77-2.72,3.08,0,5.5,0,8.16,1.36,2.38,1.22,3,2.52,6.2,4.39a30.85,30.85,0,0,0,5.6,2.42c2.48.77,6.12,1.45,14.82.3,7.44-1,6.71-1.73,12.71-2.42,8.24-.95,9.06.53,14.67-1.06,4-1.12,8.18-2.32,10.28-5.89.74-1.27,1.07-2.57,2.57-3.63,1.89-1.34,4.07-1.19,5.9-1.06.56,0,7.84.61,8.92,4.23.33,1.08,0,2,.31,2.12.68.24,1.61-3.59,5-5.75a8,8,0,0,1,5-1.36c2.47.26,3.52,1.9,5.74,3.33.45.29,4.74,2.77,9.23,2.27s4.43-3.44,10-4.69a65.44,65.44,0,0,1,8-.46,50.42,50.42,0,0,0,7.41-.45c2.92-.48,4.39-.69,5.29-1.36,3-2.23,1-6,3.78-12,.68-1.47,2.17-3.45,5.15-7.41s3.62-4.33,4.84-6.35c2.16-3.59,2.14-5.77,3.32-9.53,2.2-7,6.1-11.8,8.93-15.28,3.5-4.3,4.66-4.35,9.83-10a103.61,103.61,0,0,0,8.32-10.28c3.44-4.85,5.44-7.72,6.8-12.1a38.87,38.87,0,0,0,1.36-8.47,95.16,95.16,0,0,0,0-16.18c-.76-10.49-1.93-9.64-1.36-14.07.55-4.26,1.87-7,1.06-11.95-.34-2-.8-4.6-2.72-5.59s-4.08,0-6.66,1.06a15.44,15.44,0,0,0-4.84,3,23,23,0,0,0-3.17,4.08c-2,2.84-3,3.86-4.39,5.6-3.61,4.67-3.4,6.6-6.65,11.65-.5.77-4,4.76-10.89,12.7-3.94,4.52-4.81,5.5-5.6,7.56-1,2.7-.91,4.55-2.72,8.77a16.73,16.73,0,0,1-2.27,4.24c-.69.89-2.33,2.75-6.5,4.69-3.77,1.75-4.36,1.13-9.38,2.87-3.65,1.27-3.59,1.68-8.92,3.78-1.79.71-4.75,1.87-8.17,2.88-6.07,1.78-9.1,2.67-12.7,2.42-6-.43-10.42-3.66-14.68-6.81a42.81,42.81,0,0,1-8.16-7.86c-3.6-4.62-6.18-10.06-8-13.92-2.37-5-3.36-8-5.9-8.47-1.41-.28-2.64.34-4.68,1.36a20.37,20.37,0,0,0-6.36,5.14c-3.05,3.58-2.6,5.06-5,6.81a11.55,11.55,0,0,1-6.2,2C2064.19,2289.66,2058.69,2286,2053.56,2289.62Z"/><path d="M667.74,403.79a6.21,6.21,0,0,0-2.73,3.63c-.14.61-.22,1.53.61,4.23a19,19,0,0,0,2.12,5.3c.56.8,2.22,2.84,10.28,4.38,4.81.92,5,.34,11.65,1.21,7,.92,6.64,1.53,11.34,1.82,5,.3,6.18-.33,8.17.91,2.86,1.78,4.82,5.9,3.78,8.77-.79,2.15-2.66,1.91-4.69,5.14-.8,1.26-2,3.24-1.67,5.29.43,2.31,2.63,3.26,6,5.6a44.42,44.42,0,0,1,9.08,7.71c2,2.41,5.23,6.22,6,11.65.37,2.47.11,4.37,1.66,6.05a7.11,7.11,0,0,0,5.29,2c3.29-.17,5.44-2.66,6.51-3.93,2.41-2.87,3.72-6.55,4.23-15.12.32-5.34.9-11.28-.6-18.91-1.1-5.56-2.19-6.63-2.57-12s.51-6.28-.31-10.43c-1.17-5.93-3.4-5.84-3.93-10.44-.38-3.33.7-4.16,3.18-13.61.76-2.89,1.26-5.2,2.27-9.83,1.16-5.35,1.78-8.91,3-16a47.41,47.41,0,0,0,.91-7.41,51.82,51.82,0,0,0-.61-8c-.72-6.87-1.17-11.25-.15-16.48a22.33,22.33,0,0,1,2.27-7c2.29-4.2,4.39-4.3,7.56-8.32,3.93-5,2.08-6.5,5.9-11.19a29.81,29.81,0,0,1,9.08-7.11c4.39-2.51,4.09-1.23,9.37-4.08,3.51-1.9,5.69-3.57,8.62-3a7.9,7.9,0,0,1,2.88,1.21c2.56,1.87,2.06,4.36,3.78,5.15,2.07.95,5.15-1.61,6.5-2.73,1.89-1.57,2.31-2.6,5.3-7,3.46-5,5.19-7,4.68-7.57s-3.18,1.7-7.86,1.67a9.47,9.47,0,0,1-3.48-.61,9.91,9.91,0,0,1-3.78-2.87c-2.06-2.22-3.81-4.1-3.33-6.2a4.54,4.54,0,0,1,2.27-2.72c1.56-.84,3-.43,5.29-.16,4.32.52,7.33.88,8.63-.6s.73-5-1.06-6.81a5.74,5.74,0,0,0-1.82-1.21c-3.06-1.3-5.1.71-8.32,0a8.47,8.47,0,0,1-3.93-2.26c-2.79-2.49-3.5-5.75-4.08-8.63-.87-4.25-.55-7.62-.15-11.94.55-5.92,1.29-5.74,1.06-9.08s-1.08-4.95-.31-8a40.34,40.34,0,0,1,1.52-4.24c1.05-2.72,1.88-3.16,1.81-4.38-.11-1.94-1.91-2-3-4.24-1.73-3.55.34-8.14,1.51-10.74a13.09,13.09,0,0,1,1.21-2.27c1-1.47,1.7-1.7,1.66-2.26-.07-1.09-2.72-2-5.14-2.27-2.76-.28-3.75.49-8.47,1.06-2.78.33-4.16.5-5,.3-3.61-.87-4-4.15-8-7.41-2.65-2.18-2.6-.84-8.16-3.94s-7-5.25-11.8-6.8a33.31,33.31,0,0,0-5-1.06c-5.93-1-7.14-.37-10.44-1.06-3.94-.82-3.34-2-10.43-5.14-6-2.67-6.33-1.84-10.14-4.08-1.56-.93-3.76-2.84-8.16-6.66-3.28-2.85-4.26-3.88-4.09-5.14.23-1.59,2.19-2.81,3.78-3.18,1.84-.42,2.57.79,3.48.31,1.77-.95,1.63-6.48-.9-10.44-1-1.49-2.05-2.4-4.24-4.24a48.57,48.57,0,0,0-6.2-4.38c-5.06-3.13-4.91-3.77-10.89-7.87-8.81-6-8.65-4.31-11.95-7.41s-3.15-4.65-9.22-13.61a89.29,89.29,0,0,0-6.36-8.77C655.32,90,653.34,89.19,641,79.23c-3.28-2.64-4.91-4-5.9-4.84-6.2-5.56-6.94-7.85-12.1-11.65-3.77-2.78-3.63-1.75-7-4.39-2.59-2.05-5.12-4.61-9.83-8.16-1.77-1.34-3.15-2.29-4.69-2-.47.1-1.18.36-3.63,3s-2.43,3.17-3.33,3.78c-2.14,1.44-4.42.14-8.31-.46-5.63-.86-5.7,1.12-14.37,1.06a45.09,45.09,0,0,1-9.83-.91c-4.93-1-5.78-2.14-10.59-2.87-3.15-.48-2.77,0-8.47-.45a92.15,92.15,0,0,1-11.19-1.52c-4.47-.91-4.41-1.33-7.56-2-3.91-.79-6.4-.63-15.58-.15-12.87.67-12.42.59-13.91.75-7.05.75-11.9,1.85-16.34,5-1,.71-3.37,2.39-3,3.33.53,1.44,7.26.38,11.34-.6,5.59-1.36,6.49-2.64,12.25-3.78a57.28,57.28,0,0,1,7.41-.91c5.51-.46,8.67-.72,12.55,0,4.6.85,3.71,1.87,8,2.57,5.26.86,7.05-.59,12.1.91,2.2.65,4.12,1.25,5.29,3,1.37,2.06.58,4,2,4.84s3.63.07,5-1.21c2.2-2.07,1.4-5.06,2.72-5.44,1.16-.34,2.17,1.81,4.84,3.93s3.51,1.49,7.41,3.48c6.14,3.13,5.77,5.47,9.68,6.2,2.81.52,3-.69,7.87-.46,3.54.18,3.8.84,7.1,1.06,2.62.18,6.25.43,9.84-1.21,4.23-1.92,4.76-4.8,8.62-5.14a7.29,7.29,0,0,1,3.78.61c2,.93,2.68,2.5,3.93,4.08,1.89,2.38,3.45,2.74,6.65,4.84a47.94,47.94,0,0,1,10,9.07c3.77,4.66,3.39,6.52,7.86,11.35,3,3.27,3.21,2.41,4.24,4.08,3.21,5.23-.89,9.72,0,20.27.06.77.49,3.24,1.36,8.16.43,2.47.58,3.21,1.21,4.09,1.23,1.73,2.68,1.71,5.74,3.63a25,25,0,0,1,4.09,3.17c3.28,3.23,2.72,5,5,6.51,2.52,1.66,6.76,1.79,8.62-.15,2.13-2.23-.35-5.61,2.12-8.63,1.16-1.42,3.24-2.54,5-2.11,1.25.3,1.59,1.22,4.23,5.14,2.28,3.38,3.42,5.07,4.39,5.9,2.34,2,4.25,2.28,4.38,3.78.05.52-.13,1.06-1.51,2.72-2.39,2.89-3.51,3-4.54,4.54-.54.79-.53,1.21-.9,7.11s-.46,6.78,0,8.47a8.62,8.62,0,0,0,2.27,4.53c1.42,1.32,3,1.49,8.77,2,5,.42,6.13-.5,7.56.6,1.89,1.47.93,3.42,2.87,6.21a11.5,11.5,0,0,0,6.35,4.23c1.2.28,2.21.29,12.1-2.12a30,30,0,0,1,5.45-1.06,15.16,15.16,0,0,1,7.56,1.06c1.88.86,1.53,1.29,3.63,2.42s2.86.93,8,2.27c3.88,1,5.36,1.64,6.8,2.57s2.33,1.51,2.72,2.57c.82,2.18-1.21,3.65-.45,6.36.36,1.26.84,1.08,1.66,2.87s1.78,5,.76,5.75c-1.38,1.06-4.77-3.64-8.17-2.57-1.77.56-1.23,2-4.23,4.23-2.46,1.86-4.21,2-4.69,3.63a2.66,2.66,0,0,0,.61,2.72c1,.76,2.15-.6,5.59-.9a31.47,31.47,0,0,1,4.24,0c-2.22,3.09-4.29,4-5.75,4.23-2.24.39-4.43-.5-5.75.91-.11.12-.8.85-.6,1.51.27.92,2.05.89,5.74,1.81,2,.51,3,.77,3.33,1.21.92,1.36-.91,2.86-2.72,8.47-.7,2.17-.84,3.24-2,4.09s-2.23.89-3.93,1.06c-2.91.29-4.27-.25-4.54.3-.35.73,1.74,2.41,2.88,3.33a12.88,12.88,0,0,0,4.53,2.72c2.69.82,3.79-.12,4.84.91s.08,2,1.06,4.68c.83,2.26,2.1,3.12,1.67,4.24a2.44,2.44,0,0,1-1.52,1.21c-2.47.72-4.21-2.92-9.83-6.5-2.05-1.31-.91-.25-8.16-3.79-1.95-.94-3.27-1.62-4.84-1.21s-3.21,1.86-3.18,3.33c0,1.1,1,1.7,4.84,4.69s4.35,3.49,4.54,4.39c.38,1.79-1.1,2.38-1.82,5.59-.24,1.1-1.11,5,.61,6.51,1.53,1.35,3.66-.47,9.22-.61.44,0,7.39-.14,7.87,1.82.26,1-1.47,2.28-1.67,2.42-1.11.77-2.52,1.1-7.71.6-4.35-.42-4.59-.76-6-.45a10.69,10.69,0,0,0-5.44,3.32,14.26,14.26,0,0,0-3.63,7.72c-.44,2.35-.72,3.85,0,5.44,1.19,2.65,3.56,2,6.65,5a14.91,14.91,0,0,1,4.08,8c.34,1.85.59,3.2,0,4.69-1.15,3-4,2.46-7.41,5.59-2.14,2-3.14,4.45-5.14,9.38-2.16,5.34-1.62,6.63-1.36,7.11,1.06,2,3.15,1,5,3.17,1.6,1.88.41,3,2,9.23.55,2.18.91,2.91.45,3.78-1.19,2.25-5.88,1.67-5.9,2.27,0,.45,2.58,1.2,5.3,1.36,1.71.1,2.49-.1,3,.45.26.27.92,1.2-.3,4.24-1.74,4.33-4.87,6.88-10.89,12.25-5.49,4.9-6.3,5.83-8.92,7.41-3.32,2-3.54,1.4-7.11,3.33a55.23,55.23,0,0,0-13.16,10.43c-3.5,3.57-3.7,4.54-6.05,5.75-3,1.57-5.28,1.29-6.65,3.48a5.18,5.18,0,0,0-.61,4.54c.58,1.27,1.75,1.62,1.66,2.42s-1.37.46-2.57,1.66c-.67.67-.5.95-1.21,1.66a4.67,4.67,0,0,1-2.42,1.37,4.51,4.51,0,0,1-4.23-1.82s-.41-.57-1.06-4.08h0"/></g></g></svg>