<svg xmlns="http://www.w3.org/2000/svg" viewBox="0 0 1507.47 2733.43"><g id="Layer_2" data-name="Layer 2"><g id="Bahrain"><path d="M194.6,478.4c-3.23.5-3.91,10.69-4.48,19.17-.83,12.48,1.53,15.82,3,17.38.41.42,4.06,4.07,7.16,3,4.88-1.6,5.5-13.75,3.77-22.39C202.48,487.53,197.88,477.89,194.6,478.4Z"/><path d="M385.6,305.49c5.24-1.38,10.36-4,20.61-9.13,9.84-5,12.51-7,13.08-10,.21-1.17,0-1.61-2.33-8.42-3-9-3-9.45-4.3-12.54-2.46-5.84-3.66-8.77-5.2-9.68-3.31-2-6.87.14-20.07,5.56-14.9,6.11-15.89,5.69-17.91,8.24-2.18,2.74-2.8,9.45-4,22.75-1,11.4-.74,13.27.72,14.7C369.55,310.16,376.07,308,385.6,305.49Z"/><path d="M420,334.88a14.92,14.92,0,0,0,3.94,6.27c1.06.94,4.29,3.5,17.74,3.22,7.71-.15,11.57-.23,15.41-1.79,3.27-1.32,11.65-4.72,13.08-12.36,1.5-8-5.75-14.36-7-15.41-6.14-5.18-13.48-4.75-15.05-4.66-3.28.19-3.38,1-8.8,2.23-11.25,2.63-13.77,0-17.18,2.79C417.19,319.27,417.7,328.92,420,334.88Z"/><path d="M254.8,403c8.89-5.25,10-5.06,16.13-9.13,8.67-5.74,9.57-8.4,17.2-14.52,16.1-12.91,23.54-10.27,32.79-21,1.62-1.87,12.3-12.69,9.32-18.1-1.36-2.45-5-2.88-6.45-3-5.79-.67-9.26,2.55-18.64,7.7s-14.37,7.82-18.81,6.45c-3.59-1.1-7.83-4.63-7.89-9.31-.05-4.39,3.7-7.42,4.3-7.89,3.74-2.89,6.87-1.58,13.8-2.87a46.39,46.39,0,0,0,14.51-5.55c6.68-3.64,6.45-5.41,14.16-10.21,8.17-5.1,8.79-3.35,13.62-7.17,1.34-1.06,10.39-8.43,10.93-19.17.17-3.52-.55-7.71-2.15-8.06-2.18-.48-4,6.58-8.07,6.63a5.36,5.36,0,0,1-4.83-4.13c-.28-1.51.43-2.89,2.32-5.37a48.18,48.18,0,0,1,7.71-8.24c9.24-7.17,12.95-6.54,14-10.22s-1.51-8.53-5.19-10.21c-4.09-1.87-8.56.66-10.57,1.79-3,1.67-2.7,2.66-7.35,6.45-4.47,3.65-6.76,5.47-9.49,5.2-3.05-.31-3.22-2.78-6.63-3-2.81-.22-5.27,1.26-7.35,2.51-1.74,1.05-1.53,1.27-4.48,3.41-3.85,2.79-4.35,2.51-5.73,3.94a14,14,0,0,0-3.41,7.34c-.57,2.71-1.38,6.59.72,9.5,1.25,1.74,3,2.41,6.63,3.76,4.78,1.8,7.38,1.66,7.52,2.69s-2.35,1.69-6.09,4.12c-4.78,3.1-4.29,4.33-7.88,6.45-1.81,1.07-6.34,3.74-11.83,2.69-4.81-.93-6.64-5.83-8.42-5-1.5.69-.16,3.88-2.15,5.74-1.76,1.64-4,.24-9.14.53-3.46.2-9.75,1.25-10.39,3.95-.48,2,2.66,3.43,2.15,5.19-.64,2.21-6.1,1.82-11.65,2.87-7.62,1.45-12.82,5.15-16.66,7.88-4.24,3-10.78,7.68-14.33,16.49-.74,1.82-6.06,15.54.36,24.72,2.94,4.21,6.44,4.73,7.16,9,.67,3.9-1.4,8.82-5,10.75-4.94,2.64-9.44-2.07-12.55.36-2.76,2.15-.14,6.58-.53,17.38-.34,9.4-2.52,11.29-.9,17,.47,1.68,2.52,8.92,7.17,10s7.94-5.29,19.35-14.87C240,411.74,247.3,407.4,254.8,403Z"/><path d="M942.12,553.83c-1-4.43-6.19-6.45-9-7.53-.78-.3-9.21-3.56-11.83-.35s2.08,10.54,5,15.23c2,3.2,3.06,4.82,4.84,5.19C935.91,567.37,943.44,560,942.12,553.83Z"/><path d="M1131.68,505.27a8.37,8.37,0,0,0-4.65-3.4c-4.72-1.07-11,3.35-11.29,7.7-.18,2.43,1.6,3.44,3.58,7,2.84,5.09,2.2,8.42,3.23,13.8,1.23,6.47,5.77,12.85,14.87,25.62,3.23,4.54,5.35,7.1,9,8.06a12.87,12.87,0,0,0,9.67-1.61c4.91-3.2,5.72-9,5.91-10.39.56-3.95-.54-6.7-13.43-26.34C1127.31,493.38,1144.23,522.05,1131.68,505.27Z"/><path d="M1106.06,448.65c-5.1-11-9.62-10.35-14-20.42a9.68,9.68,0,0,0-3-4.3,10.81,10.81,0,0,0-10.75-.72c-5.37,2.62-6.37,9.12-6.45,9.68-.88,6.39,3.68,8.45,10.21,22,4,8.2,4.23,11.48,7,12,4,.76,7.16-5.59,15-6.09a6.09,6.09,0,0,1,4.12.89c2.4,1.73,2.45,5.39,2.51,6.81.4,9.55,5.6,21.52,12.36,27.95,3.06,2.91,7,5.26,7.89,4.48s-2.1-4.24-5.38-10.75c-5.88-11.67-3.89-15.44-9.85-23.83a75.24,75.24,0,0,1-4.48-6.27C1108.29,455.23,1108.16,453.19,1106.06,448.65Z"/><path d="M1102.66,400.28c2.74-.39,7.31-1,9.14-4.84a8.69,8.69,0,0,0-1.62-9.32c-3.79-4-11.14-2.66-15.23.72-2.81,2.33-5.77,7-4.12,10.39C1093,401.64,1101.37,400.46,1102.66,400.28Z"/><path d="M991,397.77c-14,1.37-13.37,3-24.55,3.76-20.5,1.46-35.7-2.95-36.55,0-.16.56,1.5,2.31,4.66,5.91,3.35,3.81,4.39,4.18,5.56,6.45.27.55,3.11,6.27.35,10.22-.9,1.29-2.69,2.8-4.65,2.68s-2.43-1.52-4.48-2.86c-3.21-2.11-8.2-2.9-10-1.08-2,2,0,6.83,1.26,10,1.63,4.05,3.68,7.08,10.75,15.76s7.23,8.41,8.24,10.58c2.57,5.52,3.06,11.51,3.4,15.76.55,6.78-.21,10.09,2.33,12.19,1.45,1.19,4.21,2.18,6.1,2.86,2.63.95,3.48.92,4.3,1.8,1.89,2,.74,5.84.35,7.52-1.92,8.3,3.81,11,7.89,29.56,1.79,8.16,1.32,10.52,4.12,14,.33.41,5.74,6.91,12.72,6.09,3.28-.38,6-3,11.47-8.24,5.15-4.94,7.72-7.41,8.24-9.85,1.1-5.19-3.32-6.9-7.88-18.1-3.42-8.39-1.58-9-5.38-17.56-3.08-6.95-5.51-9.32-4.3-11.47,1.66-2.94,9.06-3.48,14-.36,3.55,2.26,4.18,5.41,8.78,18.82,4.87,14.24,6.14,16.45,8.6,18.45,4,3.23,10.74,5.65,16.84,3.05,6.42-2.74,8.52-9.53,9-10.93a14.54,14.54,0,0,0,.53-8.24c-.66-2.53-1.73-3.11-3.76-7.53-1.66-3.62-2.64-5.77-1.79-6.81,1.27-1.54,4.86,1.51,8.06,0,3.48-1.64,4.88-7.88,3.77-12.72-.59-2.53-1.37-2.51-6.46-10.57-4-6.26-4.58-8-4.83-9.85-.48-3.47.6-5.41,1.43-8.78,3-12.37-4-19.45.54-23.12,2.68-2.16,6.7-2.08,11.82-2,8.41.18,10.61,2.85,15.95,1.26,4.29-1.28,3.6-3.23,8.24-4.48,5.6-1.52,8,.92,12-1.26a10.85,10.85,0,0,0,5-6.45c1.34-5.27-2.4-9.52-2.86-10a13.13,13.13,0,0,0-6.81-3.76c-8.82-2.31-17,.05-18.82.53-8.06,2.21-6.06-.6-40.13-1.61C1009,397,1001.27,396.76,991,397.77Z"/><path d="M983.15,377.16a97.77,97.77,0,0,0,19.53,2.51c9.53.16,12.13-1.37,13.26-2.15a15.43,15.43,0,0,0,6.27-14.33c-.25-1.67-1-3.93-11.47-13.8a207.63,207.63,0,0,0-16.3-13.8c-9.62-7.37-11.69-7.89-13.44-8.06-7.74-.74-13.84,4.92-14.69,5.74-1,1-3.47,3.52-5.56,9-.88,2.31-7.65,19.93.54,28.85C963,373,969.76,374.39,983.15,377.16Z"/><path d="M1015.4,276.47c-6.44-.49-8.36,1.75-10,.18-2.41-2.26.82-6.39-1.26-12.19a15.82,15.82,0,0,0-6.81-7.88c-5.95-3.64-14.8-3.81-19.53.72-.81.77-1.81,2-3.76,8.6-3.42,11.57-5.13,17.35-2.87,20.42,3.16,4.29,11.64,4.2,18.64,4.12,5.71-.06,11.13-1.07,12.72,1.62.84,1.42-.21,2.51.72,3.94,1.24,1.93,4.12,1.44,11.28,1.79,10.08.48,11.67,1.79,12.37,2.51.92.95,1.56,2.17,3.22,2.69a6.45,6.45,0,0,0,4.48-.54,9.68,9.68,0,0,0,5-5.56c1.84-5.42-2.78-9-.54-12.72,1.23-2,2.88-1.35,4.3-3.58,2-3.19,1.5-9-1.79-10.75-3.52-1.86-8.22,2-8.42,2.15-2.38,2-1.71,3.25-3.59,4.66C1026.53,278.9,1022.9,277,1015.4,276.47Z"/><path d="M1000.71,196.56c-2,.14-6.64.47-9.14,3.76C988.78,204,992,207.07,990,213c-1,2.91-3.82,5.82-9.5,11.65-5.32,5.46-7.31,6.59-7.52,9.49-.29,3.91,2.93,7.08,3.94,8.06.77.77,4.61,4.54,9.13,3.95,3.32-.44,3.63-2.78,9.14-5a36,36,0,0,1,5.74-1.61c5.87-1.36,7.13-.86,12-2.15a22.17,22.17,0,0,0,6.63-2.51,16.9,16.9,0,0,0,5.73-5.56c3.4-5.62,1.7-12,1.26-13.61-1.93-7.22-7.32-11.13-10.75-13.62C1012.51,199.75,1007.44,196.08,1000.71,196.56Z"/><path d="M975.8,131.87c2.91,2.73,4.5,4.18,7.17,5,1.56.49,2.13.35,5.91.54,8.81.45,10.86,1.51,12.19,0s.95-5.09-.36-5.74c-.73-.36-1.47.27-2.33.54-3.32,1.06-7.33-3.51-14.34-10-6-5.57-8.07-6.89-10.75-7.71s-7.23-1.53-8.42.36c-1,1.56.76,4.2,3.41,8.24A48.75,48.75,0,0,0,975.8,131.87Z"/><path d="M949.1,120.76c-1.32,3.3-3.25,2.77-4.12,5.38-1.47,4.48,3.8,7.23,2.69,13.08-.14.76-.87,4.08-3.4,5.37-2.3,1.18-4.88.09-5,.54-.24.79,8.32,2.15,9.85,7,.29.9,0,1-1.07,8.06-.8,5.09-.82,6-.36,7.17,1.22,3,4.44,4.29,5.38,4.66s3.7,1.45,6.27.36c1-.45,1.2-.88,3.4-2.87,3.69-3.34,4-2.79,4.48-3.76,1.9-3.62-3.91-7.5-2.33-12.37.7-2.12,1.87-1.58,3.76-4.83,1-1.66,3.2-5.49,2-9.68-1-3.29-3.46-6.29-4.84-5.91-.93.25-.59,1.85-2,2.87-2,1.47-5.27,0-5.74-.18-1.8-.8-4.69-2.85-4.65-5.38,0-2.14,2.13-2.35,3.22-5.73.68-2.12,0-2.4.54-5,.9-4.17,3.09-5.2,2.51-6.63-.89-2.2-7.34-3-9.5-.36C948.54,114.5,950.7,116.81,949.1,120.76Z"/><path d="M959,129.19c1.16,2.23,6.83,2.51,8.06.53.74-1.18-.57-2.43-2.51-7.7-1.63-4.44-2-7.23-2.5-7.17s.06,2.38-.54,5.74C960.53,125.86,958.06,127.45,959,129.19Z"/><path d="M966.48,170a10,10,0,0,0,.36,5.55,15.71,15.71,0,0,0,7,8.78c3.07,1.78,5.93,1.9,11.65,2.15,3.29.14,4.93.22,7-.36,4.56-1.27,9.36-5,8.77-7.7-.46-2.09-4.16-3.28-6.27-3.58-2.7-.39-3.85.54-6.63-.36-1.15-.38-3.09-1-3.4-2.51-.18-.89.34-1.75,1.61-3.23,3.87-4.5,6-4.75,7-7.34.56-1.47.37-2.71,0-5.2-.56-3.75-1.84-4-2.33-7.88-.23-1.85-.06-2.81-.89-3.77s-1.82-1-3.59-1.43c-3.35-.88-3.09-1.69-7.17-3-3-1-4.81-1.6-5.91-.72-.78.63-.42,1.36-1.07,4.66a52.5,52.5,0,0,1-1.62,5.73c-1.68,5.43-2.5,5.19-2.5,7.17,0,3.4,2.19,3.88,1.79,6.63S967.38,166.68,966.48,170Z"/><path d="M994.79,141.73c-1.37,1.88.32,3.67,1.08,9.49.5,3.84,1.07,8.25-.9,12.37-1.81,3.78-4.41,4.47-3.94,6.27.52,2,4.14,2.68,9,3.58,3,.56,4.45.82,5.2,0,1.55-1.7-1.7-5.79.18-8.06.8-1,1.59-.48,2.68-1.43s1.35-2.64,1.08-9c-.23-5.29-.5-7.92-1.61-10.57a7.45,7.45,0,0,0-2.15-3,7.16,7.16,0,0,0-3.23-1.43C1000,139.51,996.3,139.66,994.79,141.73Z"/><path d="M88,527.85c3.25,2.65,4.51,4.85,8.06,5.55,1.93.38,4.12-.1,8.43-1.07,5.81-1.32,8.73-2,9.85-3.59,2-2.88,1.17-7.71-1.07-10.75s-4.8-3-14.7-5.55-12.65-4-20.78-5.2c-9-1.28-10.62-.21-11.29.72-1.7,2.35.16,7.05,2.51,10C74,524.3,79.55,521,88,527.85Z"/><path d="M156.62,761.67c3.78-3.4,4.79-11.08,1.61-16.48-2.74-4.65-7.73-6.15-9.32-6.63-5.4-1.63-7.61.53-10.39-1.08-3.51-2-3.17-7.3-3.58-18.63-.65-17.62-1.91-17.26-1.8-31.54.06-7.06.4-11.09.9-17,.58-6.83,1-8.93,1.61-10.93a65.5,65.5,0,0,1,5-11.46c2.47-4.82,2.6-4.34,3.76-7,1.26-2.89,1.84-5.17,3.41-13.08,1.51-7.67,2.27-11.52,2.15-12.36-1.18-8.14-8.58-13.16-10.57-14.52a31.15,31.15,0,0,0-11.11-4.48c-5-1.17-8.54-1.12-18.28-.71-12.26.51-18.39.76-21.5,1.07-14.54,1.46-14,2.9-22,2.69-3.65-.1-8.19-.51-16.12-.36-4.82.09-8.07.34-11.29,2.33-2,1.21-3.5,2.81-5.74,6.27-6.74,10.43-4.71,14.34-10.75,23.65-1.76,2.73-3.43,4.7-5.19,8.78-1.64,3.79-1.49,5.08-2.69,8.42-2.38,6.65-5.17,7.71-8.24,13.44-1.53,2.84-2.39,7-4.12,15.23-3.67,17.51-2.17,20.84-1.26,22.4.52.89,2.38,2.74,6.09,6.45,6.6,6.58,7.06,5.77,8.43,8.06,2.82,4.74,3.43,12.17.53,17.56-1.44,2.68-2.89,3.25-2.86,5.37,0,2.37,1.84,3.89,6.8,8.43s7.58,6.92,7.89,7.7c1.37,3.43-.26,7.89-3.58,16.66-2.53,6.68-4.17,9.31-2.87,10.93s4.28-.15,9.14,1.62c3.48,1.26,3.53,2.8,7,4.65,3.3,1.77,6.44,1.9,12.73,2.15,9.63.4,9.28-1.37,14.33-.17,3.71.87,6.39,2.42,9.5,1.07,1.31-.57,1.5-1.14,3.58-2.33a24,24,0,0,1,6.63-2.51c13.11-3.27,13.5-4.63,18.63-4.66,6.26,0,5.69,2,13.62,2.33s9.27-1.73,13.26-.18c4.4,1.72,3.89,4.62,10.75,10.58,4.41,3.83,7.75,6.73,11.47,5.91,3.4-.75,6.22-4.42,6.45-7.89.18-2.77-1.55-5.17-5-9.85-4-5.37-5.7-5.89-5.91-8.6-.32-4,3.07-7.37,3.58-7.88C153.5,762.83,154.75,763.35,156.62,761.67Z"/><path d="M1304.05,2099.67c2.36-1.26-.63-7.78,3-10.75,1.56-1.26,4.12-1.69,5.37-.71s.28,2.81,1.79,5.19a6.64,6.64,0,0,0,3.94,2.87c1.65.31,3-.4,5.38-1.79,5.67-3.29,8.51-4.93,9.14-5.92,1.84-2.88,1.66-6,1.43-10-.17-3-.29-5.14-1.61-7.52-1.77-3.21-5.45-6.37-9.5-6.45-2.88-.06-4,1.49-9.14,4.83-9.58,6.2-11.77,4.7-15.58,9.14-1.28,1.48-5.53,6.42-4.3,12.18C1295.27,2096.63,1301.74,2100.9,1304.05,2099.67Z"/><path d="M1353.68,2110.24c3.73,2.42,8.6,1.11,12.72,0,5.92-1.58,6-3.32,12.9-5.91,7.15-2.66,8.34-1.28,13.26-3.94,2.9-1.57,7.31-3.95,9.32-9.14.16-.41,2.7-7.26-.72-12.54-2.36-3.63-4.87-2.4-12.36-8.6a21.07,21.07,0,0,0-4.66-3.23c-1.57-.75-5-2.38-8.06-1.43-2.86.88-2.6,3.08-5.74,5.91-3.55,3.21-5.38,1.75-13.43,5.56-5.49,2.59-7.79,4.76-8.42,5.37-2.17,2.1-4.2,4.07-4.66,7-.42,2.57.73,3.72,4.48,11.29S1351.93,2109.11,1353.68,2110.24Z"/><path d="M1496.84,2375.42c.39-.89,1.93-2.26,5-5,3.38-3,3.81-3.06,4.48-4.13,2.07-3.34.75-7.68.36-9-1.64-5.37-4.85-5.76-11.11-12.73a118.34,118.34,0,0,1-11.47-14.87c-1.64-2.63-3.29-5.61-6.09-5.91s-5.27,2.39-5.38,2.51c-2.43,2.82-1.17,5.68-2.51,14.33-.52,3.42-.81,5.16-1.79,6.45-2.72,3.6-8,4.1-10.21,4.3-5.28.5-6.64-1.23-9.68.18-1.87.87-2.51,2.07-5.37,6.09-5.94,8.36-6.13,7.38-7.35,9.86-3.17,6.47-1.86,13.18-1.25,16.3,1.54,7.94,4.63,8.3,9.67,19,5.33,11.29,6.84,21.4,9.14,21.14,1.58-.18,1.56-5.05,4.66-5.91,2.18-.61,4,1.29,4.84.53,1-1-2.24-4-1.79-7.34.51-3.85,5.65-6.21,11.64-9,7.32-3.36,8.43-2.2,12.37-5.2.62-.48.13-.15,7.52-7.52,3.16-3.15,3.68-3.64,4.12-4.84C1498.08,2380.9,1495.34,2378.86,1496.84,2375.42Z"/><path d="M1347.05,2402.84c-5.31,0-9.24,5.68-11.29,8.6-1.88,2.69-4.15,5.93-3.76,10.21.45,5,4.21,8.15,6.63,10.21s4.94,4.2,8.24,4.12c4.46-.09,7.61-3.95,9.5-6.27a17,17,0,0,0,3.76-6.81C1362.1,2414.49,1354.77,2402.76,1347.05,2402.84Z"/><path d="M1489,2485.44a56.67,56.67,0,0,0-6.09-7.71,34.29,34.29,0,0,0-9-6.45c-11.78-5.39-24.67,2-29.93-2.69a43.1,43.1,0,0,0-4.65-3.76,22.63,22.63,0,0,0-3.77-2.33c-4.27-1.84-6.77.93-14,.54a15.62,15.62,0,0,1-5.91-1.08c-3.38-1.43-3.65-3.24-6.81-4.3-3.45-1.14-5.44.22-6.1-.89-1-1.75,3-6.53,5.92-9.14,2-1.77,2.72-2,3.4-3.4,1.54-3.24-.09-7-.54-7.89a13.09,13.09,0,0,0-3.58-4.3c-.89-.74-5.45-4.53-11.47-4.66-5.36-.1-5.77,2.83-14.15,5.56s-11.56.88-13.62,3.76c-2.25,3.15-.64,8.23,2,16.48,1.64,5.19,3,7.05,3,11.47.07,4-1,4.48-.36,7.35,1,4.57,4.68,7.81,7,9.85,2.88,2.55,4,2.53,5.55,4.84a12.07,12.07,0,0,1,2.33,6.81c0,4.2-2.89,4.64-4.3,9.85a19.12,19.12,0,0,0,.36,10.57c.41,1.34.87,2.32,3.22,6.28,8.24,13.79,9.58,13.46,10.22,17.38.28,1.73.38,4,2.15,5.55a6.89,6.89,0,0,0,4.48,1.43c2.47.07,4.72-.79,8.42-3.22,4.3-2.83,5-4.11,7.34-5.73,3.47-2.37,5-1.69,17.92-3.77,8.62-1.38,13-2.5,14-.71.69,1.22-.89,2.56-1.08,7.16-.09,2.22-.12,3.5.72,4.48,1.53,1.79,5.21,1.75,7.7.36,2.73-1.52,2.45-3.8,5-4.84,1.87-.76,3,.06,5.73.36.88.1,7.46.76,11.83-2.87,3.37-2.79,5.56-8.26,3.76-11.1s-6.53-1.52-7.52-4.13c-.33-.86-.24-2.13,2.51-6.09,3.19-4.59,4.89-5.51,7.34-8.6,2.31-2.91,6.4-8.06,5.38-13.26C1493.19,2491.35,1491.78,2489.38,1489,2485.44Z"/><path d="M1379.3,2369.33c-4.92-3.57-6.08-3.39-6.63-3.22-2.13.65-3.1,3.7-3.22,5.73-.27,4.61,3.49,10.46,8.6,10.39,3.92-.05,7.89-3.57,7.7-6.63C1385.65,2373.94,1383.54,2372.4,1379.3,2369.33Z"/><path d="M1225.57,2454.26c5.55,9.39,13.15,7.1,19.71,17.2a93.46,93.46,0,0,0,6.27,9.14c3.26,4.13,3.48,3.59,4.66,5.55,2.22,3.68,2.4,7.94,2.69,16.31.17,5.1.26,7.66-.18,10.39-1.1,6.83-3.26,7.51-3.23,12.36,0,6.11,3.49,7.38,2.33,11.11-1.51,4.87-7.88,4.29-9.14,9-.27,1-.2,1.95,3.77,10.75,3.16,7,3.81,8,4.66,10.75a45.73,45.73,0,0,1,1.61,10,99.66,99.66,0,0,1-1.43,25.8c-1.13,5.86-1.85,9.62-4,14.51-3,7-5.12,7.76-13.43,20.43-4.36,6.63-6.58,10.05-8.61,15.05a62.14,62.14,0,0,0-3.94,14.51,49.23,49.23,0,0,0,.9,21,44.62,44.62,0,0,0,3,7.89,32.34,32.34,0,0,0,7,10c2.58,2.35,3.14,1.77,10.57,5.91,5.55,3.09,5.26,3.42,11.29,6.81a104.94,104.94,0,0,0,11.29,5.73c2.6,1.11,3,1.11,9.85,3.77,7.29,2.8,6.74,2.73,8.25,3.22,7.82,2.54,17.58,2.63,18.27.36.6-2-5.56-5.75-9.31-7.52-5.06-2.39-6.47-1.44-11.11-4a27.21,27.21,0,0,1-8.42-7c-1.66-2.11-4.4-5.6-4.84-10.4-.64-6.81,3.73-12.19,6.63-15.76,4.36-5.38,5.55-3.81,11.11-10a36.69,36.69,0,0,0,8.6-15.41c1-4.2.56-6.23.35-7-.8-2.88-2.38-3.44-4.12-7.17-1-2.21-2.15-4.62-1.79-7,.33-2.11,1.79-3.89,9.86-8.6a122.4,122.4,0,0,1,17.2-8.78c6.35-2.61,7-2.32,9.67-4.12s7.77-5.24,9.14-11.47a16.45,16.45,0,0,0-6.63-16.84,14.41,14.41,0,0,0-9.32-2.33c-3.28.4-5.64,2.19-10.21,5.74-5.54,4.29-5.38,5.53-8.78,7.16-2,1-6.73,3.23-11.47,1.08-3.14-1.43-6.18-4.76-6.27-8.42-.09-3.86,3.2-4.35,5.2-10.22s-.43-7.75,1.79-10.57c3.16-4,9-1.29,12-5.55,1.46-2.1,1.86-5.34.53-7.17-1.64-2.26-4.62-.59-7.34-2.87-3.51-2.92-2.68-9.13-2.51-10.39a15.85,15.85,0,0,1,3.58-8.06c2.23-2.59,3.46-2.16,7.35-5.56,2.31-2,3.92-3.42,5.19-5.73,1.11-2,1.59-5,2.51-10.93.65-4.17.69-5.49,2-6.81a7.74,7.74,0,0,1,5.74-2,8.8,8.8,0,0,1,6.09,3.23c1.61,2,.9,3.19,2.33,4.48,1.86,1.67,5.36,1.78,7.7.35,3.91-2.37,3.36-8.28,3.23-9.67-.26-2.78-2.13-5.19-5.56-10-2.56-3.63-2.68-3.17-3.22-4.47-1.73-4.18.55-6.34,0-12.73-.25-2.93-.47-5.43-2.15-7.88-1.45-2.1-2.78-2.45-8.78-6.45-3.24-2.16-2.52-1.84-5.91-4.12-9.18-6.17-9.61-5.27-11.29-7.35-2.74-3.39-.75-4.76-3.76-14.33-1.47-4.66-2.41-7.66-4.84-11.11s-3.93-3.92-7-8.42a29.47,29.47,0,0,1-3.94-7.17,27.2,27.2,0,0,1-.72-14.51c.79-4.2,1.37-7.29,3.76-10,3.21-3.68,7.23-3.94,15.77-5.92,9.69-2.24,7-2.49,17-4.84,16.74-3.93,21.31-2.56,26.16-7.52,2.38-2.43,1.51-3,6.27-9,3.13-3.92,5.6-7,9.68-9.85a26.26,26.26,0,0,1,12.36-5.2c3-.35,6.62-.78,8.78,1.61a6.53,6.53,0,0,1,1.08,6.81c-1.53,3.14-5.47,2.46-6.27,5-.72,2.29,1.51,5.76,4.3,6.63s5.36-1,8.78-3.41c3.26-2.32,4.7-4.16,7-6.45,7.75-7.78,10.76-6.38,14.16-11.82.89-1.43,4-6.39,2.69-12-1.64-7-9.17-10.63-10.93-11.46a52.52,52.52,0,0,0-7.71-2.69,60.35,60.35,0,0,1-7.34-2.15c-3.29-1.34-5.79-2.36-6.1-4.3-.21-1.36,1.29-1.82,2.87-4.66a16.47,16.47,0,0,0,1.79-5.2c.54-4-1-9.39-3.76-9.85-2-.34-4.24,2-5.2,3.94-1.27,2.55-1.45,6.7-.18,10.21.33.91.67,1.55.36,2.15-.8,1.57-5,1-7.34.36-1.91-.53-5-1.39-6.63-4.12-.51-.82-1.34-2.53-.72-7.7a42.18,42.18,0,0,1,3.58-12.55c2.24-4.92,3.76-8.27,7.35-11.64a22.52,22.52,0,0,1,11.47-6.27c3-.52,3.32.17,4.66-.54,4.7-2.49.22-11.09,4.47-19,4.44-8.24,13.19-6.11,17.21-15.41,1.08-2.51,1.38-5,2-9.86.82-6.82-.16-7.36.35-13.79.86-10.75,3.8-12,2.51-18.82-.52-2.75-1.29-4.1-.53-6.09,1.41-3.75,5.64-3,8.06-7.17,1.58-2.72.16-3.7,2.15-8.42,1.11-2.63,1.67-2.6,2.87-5.37.3-.71,3.16-7.33,1.43-8.6-1.16-.86-4.15.89-5.91,2.68-.87.88-1.12,1.45-3.59,6.28-2.09,4.08-2.38,4.59-3,5.37a10.92,10.92,0,0,1-4.84,3.58c-4.06,1.28-7.57-1.38-8.24-.35s4,4.61,3,6.81c-.21.49-.76,1-4.12,1.61-6.34,1-8.78-.23-12.54,1.25a22.84,22.84,0,0,0-4.12,2.69c-5.42,3.94-8.13,5.91-9.14,8.42-2.25,5.58,3.55,9.93.9,14-1,1.57-3,2.18-7,3.4-3.65,1.12-7,2.15-9,.54-1.74-1.43-.52-3.39-2.33-5.74s-5-2.82-8.06-3.22a25.82,25.82,0,0,0-10.57.9c-4.76,1.37-7.84,3.54-12.37,6.8a66.24,66.24,0,0,0-10.21,8.78,58.39,58.39,0,0,0-10.57,16.49c-3.78,8.3-12.91,19-31.18,40.49-14.27,16.78-22.89,24.94-26.51,32.43-1.48,3-4.31,10.48-8.25,13.26a6.93,6.93,0,0,0-2.68,3.23,7.05,7.05,0,0,0,0,4.3c.78,3.16,2.71,10.91-.18,14.87-1.57,2.13-3.18,1.32-4.84,3.94-1.34,2.12-.76,3.39-1.79,6.45a20.54,20.54,0,0,1-3.77,6.27c-4.37,5.72-6.59,5.23-7.34,8.06-.86,3.22,1.3,6.46,4.3,10.93,3.83,5.73,6,5.92,6.63,9.32.52,3.06-1,4.3-2.69,9.85-2,6.76-.48,7.39-2,12.55-2.54,8.75-7.44,8.41-10,17.2a32.74,32.74,0,0,0-.9,12.36C1221.91,2442.88,1222.33,2448.77,1225.57,2454.26Z"/><path d="M766.35,1917.71c.39-1.6,1.58-2.17,1.25-3.41s-1.65-1.83-2.33-2.15c-.48-.23-1-.09-1.15-.39s.54-.77.44-1.22-1.39-.33-2.51-1.08-.87-1.6-1.8-2.33-2.14-.57-3.76-.35c-7.12.93-6.68.8-7.09.91-1.82.52-6.3,1.58-9.21,5-5,5.83-5.36,15-3.05,16.12s5.61-6.24,14-7.34c1.49-.2,3.81-.47,5.19.89,1.79,1.76,1.14,5.41.54,9.14-.7,4.36-1.74,5.49-.9,7,1.12,2,4.41,2.62,6.81,2,4.32-1.16,5.34-7.33,5.74-9.5a13.9,13.9,0,0,0,0-6.45C767.63,1921.28,765.78,1920,766.35,1917.71Z"/><path d="M828,1891.9c-4.14-3.31-4.22-3.47-6.09-4.83-3-2.21-4.58-3.32-5.91-3.59a10.4,10.4,0,0,0-7.17,1.44c-1.44.92-1.06,1.25-3.22,3-2.93,2.43-4.12,2.24-4.84,3.77s.07,2.26.36,5.19c.46,4.73-1.26,5-.54,7.53,1.12,3.9,5.23,2.8,10.21,8.6.72.83,1.74,2.14,2.87,2s1.77-1.72,2.33-3c.8-1.91,1.49-3.57,1.07-5.37-.77-3.32-4.44-3.26-5.55-7-.11-.38-.8-2.82.36-3.94,1.42-1.38,5.13-.33,7.16,1.79,1.25,1.3.87,2,2,3.4,1.79,2.33,6,4.73,9.13,2.87,2.52-1.51,3.32-5.24,2.33-7.7C832.09,1895.11,831.68,1894.86,828,1891.9Z"/><path d="M804.33,1804.47c1.27-1.44,2.77-.78,3.94-1.79,1.56-1.35,1.73-4.94,0-6.63-1.39-1.36-3.59-1.09-5.19-.9s-1.81.56-4.3,1.25c-3.76,1.06-3.95.43-4.84,1.08-1.93,1.41-.57,4-1.08,13.26a35.46,35.46,0,0,0,.36,5.91c.35,2.59.71,3.28,1.26,3.76,1,.92,2,.44,3.58,1.62,1.1.8.83,1.15,1.79,1.79.78.51,1.39.57,4.48.89s3.23.34,3.59.36c2.62.14,4,.2,4.65-.36.27-.21.47-.46,1.62-3.58.89-2.45.73-2.19.89-2.51.91-1.79,2.53-2.89,5.74-5,1.9-1.27,1.84-1.07,2.15-1.44,1.61-1.92.25-3.82,1.07-7.7.69-3.26,2.14-4.29,1.43-5.38-.52-.79-1.46-.5-5-1.07-3.23-.53-4.45-1.1-4.84-.54-.51.74,1.48,2,1.43,4.3,0,1.57-.87,1.47-1.79,4.3-.73,2.25-.51,3.24-1.61,4.66a4.75,4.75,0,0,1-1.61,1.43c-2.07,1.06-4.63,0-6.1-1.07-.34-.27-2.84-2.18-2.5-4.66A3.81,3.81,0,0,1,804.33,1804.47Z"/><path d="M794.84,1907.13a21.2,21.2,0,0,0-17.21.72,13.74,13.74,0,0,0-5.91,6.27,14.3,14.3,0,0,0-.54,9c.23,1.11.64,2.6,5.56,10.57,3.77,6.11,4.64,7,6.09,7.35,2.51.56,5.74-.86,6.63-3,1.21-3-1.92-7.35-3.58-9.67-1.3-1.82-2.21-2.56-2.51-4.3-.36-2.12.32-4.9,1.79-5.38,1.85-.6,4.62,2.54,6.81,5,2.37,2.68,2.88,4.14,4.66,4.48,1.06.2,2.15-.28,4.3-1.26,3.79-1.71,5.68-2.57,6.09-3.94s-.38-2.32-4.3-7.17C796.64,1908.22,795.88,1907.67,794.84,1907.13Z"/><path d="M843.93,1885.1c.65-1.13.17-1.49.72-6.1.35-3,.63-3.49.18-4.12-.94-1.3-3.46-1-7.17-.53s-4.78,1.08-7.53.89a16,16,0,0,1-3.76-.72,6.1,6.1,0,0,1,1.25-4.12c1.79-2.07,4.35-1.17,9-3,2-.81,5.19-2.11,5.38-4.12s-3.05-4-4.12-4.66c-5.31-3.1-13.78-3.7-19.53,1.07a15,15,0,0,0-3.41,4.12c-2.07,3.68-3.5,9.84-.71,13.44,1.62,2.11,2.94,1.09,7.7,4.3,3.5,2.36,3.15,3.16,5.91,4.66a15.91,15.91,0,0,0,9.5,2C839.17,1887.91,842.54,1887.48,843.93,1885.1Z"/><path d="M822.43,1829.73c2-1,3.12-.25,9.49,0,5.5.22,6.41-.26,7-.72,2.35-1.85,2.92-6.34,1.08-8.24-1-1-2.4-1.06-3.77-1.07-6.88,0-12.39-.08-18.63,3.76a19.29,19.29,0,0,0-6.27,5.38c-.56.78-5.58,8-2.51,14.51,1.89,4,5.84,5.61,9.68,7.17,2.72,1.1,5.86,2.38,9.85,1.79,5.07-.76,10.63-4.41,10.93-8.6a5,5,0,0,0-.89-3.23c-1.57-2-5-2.32-7.35-1.43-2.6,1-2.48,2.76-4.48,3.22-3,.7-7.84-2.19-8.06-6.27A7,7,0,0,1,822.43,1829.73Z"/><path d="M773,1902.66a8.92,8.92,0,0,0,.53-4.84c-.43-5.5-1.79-5.61-1.61-8.6.25-4,2.85-6.08,1.61-7.89-.4-.59-1-.87-2.33-1.43s-2.8-1.23-3.94-.72c-1.5.69-1.36,2.78-2.33,2.87-.82.08-1-1.43-2.68-2.51s-3.88-1.23-4.3-.54c-.33.53.57,1.29,1.79,3.77a31.87,31.87,0,0,1,1.25,3c1.34,3.55.89,4.84,2,8.78a34.35,34.35,0,0,0,3.23,7.53c1.58,3.06,2.26,3.67,3,3.76C770.8,1906.06,772.32,1904,773,1902.66Z"/><path d="M774.05,1872.37c-.28.13.2,1.45.9,5,.25,1.31.37,2,.71,3.41.27,1.06.53,1.89.72,2.5a43.76,43.76,0,0,0,2.51,7,15.4,15.4,0,0,0,5.73,5.74c2,1.11,4.11,2.34,6.09,1.43,1.79-.81,2.57-3,2.69-4.48.1-1.29-.35-2.31-1.25-4.3a25.31,25.31,0,0,0-5.74-8.42c-1-.93-.85-.64-2.32-2-2.77-2.51-3.81-4.06-4.84-3.77-.8.23-.71,1.29-1.44,1.44C776.33,1876.27,774.56,1872.15,774.05,1872.37Z"/><path d="M794.48,1881a45,45,0,0,1,4.3,3c.79.7,1.11,1.07,1.79,1.26,2.07.54,4.19-1.51,4.48-1.8a8.56,8.56,0,0,0,2.15-3.94c.6-1.93,1.27-4.1.36-5.91-1.22-2.42-4.63-2.93-6.63-3.23-5.26-.78-8,1.35-9.68-.35-1.18-1.22-.08-2.64-1.61-5-1.21-1.87-3.27-3.14-3.94-2.69-.86.57.94,3.6-.36,4.84a1.8,1.8,0,0,1-1.79.36c-.49-.21-.53-.61-1.26-1.62s-1-1.39-1.43-1.43c-.84-.08-2,1.4-2.15,2.87-.21,2,1.46,4,3.23,5,3.08,1.72,4.91-.57,7.52.9C792.35,1874.89,790.82,1878.08,794.48,1881Z"/><path d="M814,1859.65a8,8,0,0,0,0-4.83c-1-2.93-3.41-4.28-5.74-5.56-1.62-.89-5.54-3-7.34-1.61-1.25,1-.39,2.83-1.79,3.76-1,.66-2.32.34-4.48-.18a7.19,7.19,0,0,1-3.23-1.25c-1.58-1.32-1-2.68-2.33-3.59a4.18,4.18,0,0,0-5.19.72c-1.52,1.83-.25,4.5,0,5a5.91,5.91,0,0,0,2.5,2.69c2.47,1.3,4.28-.26,5.56.89,1.46,1.31-.43,3.72,1.07,5.74.91,1.2,1.63.41,5.92,2.32a16.33,16.33,0,0,0,4.3,1.62,11.35,11.35,0,0,0,2.68.18C808.84,1865.36,812.78,1863.44,814,1859.65Z"/><path d="M807.56,1833.49a5.65,5.65,0,0,0-4.12-5c-1.25-.22-1.51.5-3.59.36-1.74-.12-2.68-.71-3.22-.18s0,1.09-.28,1.94c-.67,2-4.72,2.46-5.46,2.54-3.19.33-4.36-.7-5.73.35a4.37,4.37,0,0,0-1.43,2.87c-.06.42-.33,2.47.71,3.23,1.54,1.11,4-2,6.81-1.08.64.2.62.39,3.41,3,3.24,3.09,3.74,3.29,4.12,3.4,2.26.67,5.25-.4,6.27-2.33.58-1.11,0-1.52.36-3.58C806,1835.88,807.6,1835.56,807.56,1833.49Z"/><path d="M757.21,1853.11a4.72,4.72,0,0,0,3.22-1.88,5.71,5.71,0,0,0-.53-7.25c-1.87-1.85-4.6-1.46-5.38-1.35a9,9,0,0,0-7.26,7.26c-.11.72-.51,4,1.62,5.91,1,1,2.8,1.67,3.49,1.08,1.18-1-1.46-5.28-.54-5.92C752.6,1850.44,754.44,1853.34,757.21,1853.11Z"/><path d="M741.35,1892.35c1.09-.61-.21-4.87-.54-5.91-1.64-5.36-4.26-6.89-6.18-11.29-3.28-7.54-5.49-12.6-3.49-17.2,1.48-3.43,3.86-3.28,4.57-6.72.84-4.09-2.59-5.62-1.61-9.94a14.41,14.41,0,0,1,5.37-8.06c1.22-1,2.86-2.07,9.14-4,8.57-2.68,10.5-2.26,15.59-4.57,1.78-.8,8.49-3.85,8.06-5.91s-7.32-2.89-13.17-2.15c-7.08.9-10,3.89-14.78,2.15-.82-.29-3.32-1.21-4.3-3.49-1.27-3,.86-6.31,2.15-8.33s3.42-5.38,7.25-6.18c2.69-.57,3.22.82,8.61,1.61a21,21,0,0,0,9.67-.27c2.17-.67,5.44-1.67,6.45-4.3,1.34-3.49-1.91-8.26-2.69-9.41-1.2-1.77-2.5-2.94-3-5.37a9.5,9.5,0,0,1,0-3.23c.79-5.69,3.79-6.93,3.49-9.67-.38-3.47-5.3-2.94-7.79-7.8-2.66-5.18.13-11.28.27-11.55a23.05,23.05,0,0,1,4.83-6.19c2.69-2.61,4.12-3,4.57-4.83s-.79-2.77-1.61-6.19c-.74-3.07-.14-4.15-.27-8.06-.14-4.25-.92-4.93-1.61-9.67-.82-5.63.06-6.16-.27-15.32-.22-6.23-.61-5.54-.81-11.56-.24-7.52-.36-11.28.81-15.05,1.79-5.78,4.06-5.75,4.57-10.48s-1.64-5.68-1.35-10.75c.26-4.52,2.1-6.11,3.77-10.75.57-1.6,1.45-4.46,1.61-16.13.3-21.4-2.5-22.2,0-29.83,1.83-5.59,5.09-10.53,3.23-12.36-1.5-1.47-4.75.54-7.8-1.62a7.51,7.51,0,0,1-2.69-4c-1-3.48.89-6,3.23-12.09,1.33-3.5,2.15-7.17,3.22-10.75,3-10,3.07-10.32,3.77-12.37,2.52-7.42,3-6.7,4.83-12.36,2.35-7.14,3.83-11.64,3.77-17.74,0-4.49-.9-6.65.53-10.21,1.21-3,2.75-3.81,3.23-6.72.54-3.23-.81-5.52-1.61-7.79-1.7-4.82-.16-7.27.8-16.13,1.88-17.27-2.47-22,2.42-29,1.5-2.14,2.86-3,4.3-6.18a24.28,24.28,0,0,0,1.88-12.63c-.32-3.26-1.16-5.53-2.68-9.67-1.82-4.94-3.15-7-4-9.14-3.34-8,1.62-11.65,2.15-26.61.36-9.89-1.73-10.39-.53-19.35.57-4.31,1.31-9.79,4.57-15.86,2.87-5.34,4.77-5.7,6.72-10.75,1-2.6,1.5-5.11,1.88-13.17.59-12.63-.38-12.3.27-18,1.21-10.86,4.55-10.69,5.1-20.43.46-8.07-1.79-8.85-.54-16.13,1.13-6.51,3.12-6.91,4.3-14,1.35-8-1-8.91.81-14.25,2.57-7.68,9.44-12,11-12.9,4.87-2.86,6-1.28,10.21-4.3a22.22,22.22,0,0,0,8.33-11.82c1.11-4.28-.41-4.88,1.08-9.68,1.09-3.52,2.31-4.49,3-8.33.36-2.18.92-5.47-.81-7-.85-.74-2.28-.68-5.11-.53-8.19.43-9.36.5-10.21-.27-1.59-1.45-.62-4.54,0-7.8,1.25-6.57.57-12-.81-22.84-1.06-8.39-2.73-12.62-.53-17.74a22.62,22.62,0,0,1,2.68-4.57c1.82-2.29,2.92-2.58,7.26-6.18,1.38-1.15,3.23-2.69,5.38-4.84a67.42,67.42,0,0,0,4.56-5.11c5.09-6.28,7.63-9.42,7.26-12.09s-2.76-4.57-7-7.79a36.63,36.63,0,0,0-7.25-4.3c-6.13-2.77-8.22-1.85-11.56-4.3-1.32-1-1.59-1.56-5.11-7-7.36-11.39-8.26-12.08-9.67-15.86a27.5,27.5,0,0,1-2.15-9.94c0-3.85.88-4.79,1.07-8.33.23-4.19-.84-6.58-3-13.17-2.5-7.79-3.75-11.69-4.3-15.05-.69-4.2-2.4-14.66,2.68-20.43a22.61,22.61,0,0,1,5.11-4.3c2.23-1.28,3.27-1.23,5.38-2.69a13.42,13.42,0,0,0,4-4c.22-.37,2.77-4.67,1.34-9.41-1-3.22-2.75-3.2-3.49-6.45-.62-2.7-.23-6.37,1.61-7.25,1.45-.7,2.46,1,5.91,1.61a14.79,14.79,0,0,0,8.33-1.08,18.13,18.13,0,0,0,6.45-4.83c4-4.92,2.08-10.67.81-26.61-.81-10.23-1.22-15.34-.81-22.58.41-7.09,1.21-9.73.81-16.39-.47-7.75-.82-13.61-4.84-16.66-2.59-2-6.56-1.85-14.51-1.62s-11.4,1.55-15.32-.8a10.09,10.09,0,0,1-4.57-5.38c-1.59-5.19,2.78-10.62,4.84-13.17s2.47-2,6.45-6.45c2.17-2.42,2.8-3.43,4.57-4.3,2.23-1.09,5.57-1.6,7.52,0a5.44,5.44,0,0,1,1.62,3c2.19,7.08,12.45,11.59,13.17,10.75.12-.15,0-.5-1.62-2.69-6.4-8.82-9.57-10.95-8.87-13.17.52-1.64,2.9-2.5,5.65-3.49,3-1.08,4.62-.77,5.64-2.15.48-.66.67-1.48.27-4.57-.63-4.86-1.11-8.58-3.76-12.63-1.07-1.64-1.18-1.31-2.42-3.23-2.09-3.21-2.44-5.13-3.76-7.79a31.18,31.18,0,0,0-4.84-6.72c-4.76-5.62-6.53-5.38-9.68-9.41-.91-1.17-1-1.54-5.1-10.48-3.88-8.52-4.73-10.3-6.18-14-4.21-10.61-3.83-12.64-3-14a7,7,0,0,1,6.72-2.69c.87.15,3,.7,7,6.72a53.59,53.59,0,0,1,5.1,9.68c4.13,10.3,2.62,10.44,5.11,15.32,3.74,7.32,6.89,6.5,11.29,15.31,3.08,6.18,3,9.57,2.95,10.76-.18,3.13-1.18,3.86-.8,6.45a11,11,0,0,0,7,8.6c2.59.84,4.73.19,8.07-.81a23.48,23.48,0,0,0,11-6.72c2.07-2.31,3.75-4.17,4-7,.48-4.85-3.57-8.92-5.65-11-3.35-3.38-4.5-2.58-6.71-5.37-2.67-3.37-1.65-5.36-3.77-11.83-2.53-7.76-4.8-7.33-5.64-12.9-.65-4.26.11-8.21.8-11.82,1.1-5.7,2.49-7.59,1.35-10.49s-3-2.4-4.84-5.64c-1.74-3-2.56-7.38-1.07-10.75,1.41-3.2,3.8-2.95,10.21-7,8.91-5.61,10.34-9.91,14.78-9.4,2.22.25,3.81,1.69,7,4.56,6.65,6,6.12,9.7,9.41,10.49,2.18.52,3.52-.84,15.85-10.75,6-4.83,6.76-5.37,7.26-7,1.36-4.41-1.52-9.19-6.18-16.93-2.08-3.45-3.17-4.62-5.65-9.14-1.64-3-2.82-5.52-3.76-7.53-2-4.22-3-6.33-3-7,0-4.81,6.64-8.84,16.4-14.79,3.44-2.09,6.58-3.77,9.41-7.52,3.08-4.09,2.92-6.83,2.68-8.06-.09-.48-.55-2.93-1.88-3.23-1.69-.38-2.73,3.17-7,6.45-1.79,1.38-1.69.81-6.45,3.49s-7.22,4.08-8.33,5.65c-1.42,2-1.64,3.81-4,6.72a25.5,25.5,0,0,1-1.9,2,24.53,24.53,0,0,1-3.47,2.78,51.07,51.07,0,0,1-8.34,4.31c-14.13,5.56-16.25,6.91-19.35,5.64-2.1-.86-1.8-1.77-4-2.42-5.18-1.52-10.45,2.3-11,1.34-.32-.54,1.29-1.89,1.08-2.15-.46-.54-7.73,5.44-8.6,4.57-.28-.27.12-1.17,1.61-3.49,4.11-6.42,6.17-9.63,8.87-10,2.43-.28,4.52,1.33,7,3.23,3.79,2.93,3.49,4.85,6.45,6.18a11,11,0,0,0,8.06,0c2.94-1.25,2.67-2.95,6.45-5.64,3.29-2.34,3.72-1.22,7-3.5,2.28-1.59,3.94-3.57,7.25-7.52,1.74-2.08,2.62-3.11,3.23-4,4.46-6.68,1.91-10.65,5.64-16.67,2.78-4.47,4.88-3.37,6.45-7.25,1.86-4.59-.87-6.61-.8-13.44.09-9.45,5.41-14.36,3-16.93-1.39-1.46-4.13-1-6.45-.54-4.29.78-5.51,2.77-12.09,6.18-6,3.12-7.65,2.85-8.33,2.69-2.14-.51-2.05-1.75-6.18-4.84-2.41-1.8-4.75-3.51-8.07-4.3s-3.53.25-5.64-.54c-5.05-1.87-5.73-8.57-7.8-8.33-1.14.13-1.29,2.23-3.22,7.26-2.73,7.14-4.92,9.48-5.64,10.21s-4.2,4.24-6.45,3.23c-1.09-.49-1.48-1.85-1.89-3.23-.22-.76-1-3.57,0-5.91,1.54-3.44,5.47-2.2,9.41-5.91,2.88-2.72,4.84-7.21,3.49-9.14s-5.22.57-8.6-1.88c-2.9-2.11-1.6-5.12-4.83-7.53-2.68-2-4.72-.79-6.18-2.69s0-4.45,0-8.06c-.08-5.76-4.38-10.8-7.8-13.17-5.44-3.77-11.64-2.86-18.27-1.88-5.35.79-8.61,2.15-18.55,6.18-19.48,7.9-18.78,7.44-19.35,7.8-12.85,7.94-18.26,20.47-23.11,31.71-3.73,8.62-4,13-3.5,16.66.69,4.62,2.76,8.15,5.38,12.63,4.87,8.34,6.79,7.88,9.14,12.64,5,10.09-2.18,15.16,2.15,25.8,3.07,7.55,9.48,11.91,13.7,14.78,5.8,3.94,7.57,3.16,18.55,8.6,10.29,5.11,15.45,7.74,15.85,11.83.47,4.69-4.84,10.24-8.87,9.94-2.15-.16-2.48-1.89-7.25-6.18A40,40,0,0,0,786,690.18c-3.65-1.64-6.27-2.82-9.68-2.42-3.76.44-5.07,2.4-9.67,2.42-2,0-3.66,0-5.11-1.07-2.91-2.19-.89-5.79-3.23-8.34-3.14-3.42-8.72,1-14.51-2.68-1.78-1.14-3.16-3-5.91-6.72a59,59,0,0,1-4-6.18c-2.36-4.13-9.76-15.85-19.35-25l-16.13-12.63c-7.35-5.75-10-7.85-13.44-11.29-5.41-5.45-5.28-6.84-10.48-12.9-9.42-11-14.53-11.88-26.07-25a43.38,43.38,0,0,1-6.72-9.68,41.72,41.72,0,0,1-4-13.71c-.25-2.17-.33-4.37.54-13.43,1.49-15.64,2.21-14.17,1.88-17.47-1-9.92-6.33-11.68-5.38-19.62.15-1.18,1-7.46,5.92-11.29,1.7-1.33,4.13-2.55,18-2.42,10.95.11,16.55.2,22.85,2.42a38.87,38.87,0,0,1,10.21,5.11c5.63,4,6.21,6.77,10.21,9.94,5.35,4.23,11.23,4.74,18.55,5.37a56,56,0,0,0,25.53-3.76c6-2.5,5.82-3.81,16.93-9.4,6-3,9.3-4.69,13.71-6.19,13.32-4.53,16.37-.58,26.61-4.57,7.75-3,12.44-7.77,18.27-13.7,6.63-6.74,11.69-11.87,11-18-.59-5.45-5.09-6.17-5.37-11.29-.26-4.52,3.07-7.51,12.09-16.39,16.82-16.56,16-16.71,19.62-18.81,6.88-4,13-5.2,23.11-7.26,5.74-1.17,10.82-1.76,21-3,7.76-.91,12.39-1.25,18.81-2.69,1.5-.33,3.86-.9,7.53-1.61,7-1.36,7-1,8.87-1.61,5.76-2,9-6.93,11-9.94a28.67,28.67,0,0,0,4.57-11c1.39-7.81-2-9.28-.8-17.2,1-6.51,3.44-6.92,3.22-12.37-.19-5-2.28-5.07-3-11-.26-2.3-.07-3.35,1.07-13.17,1-8.7.56-5.25,1.08-9.4,2.78-22.34,3.51-21.94,3.22-26.88-.48-8.18-2.46-8.91-1.61-15.32.73-5.5,2.29-5.65,4.3-13.44,2.5-9.69.49-11,3.22-17.2,2.62-5.9,6.76-9.9,5.92-10.75-.58-.59-2.38,1.52-4.57,1.08-3.68-.74-5.89-8.16-5.65-14a24.7,24.7,0,0,1,4-12.09c2.31-3.29,4-3.68,4.83-6.72.66-2.54.5-6.28-1.88-8.6a7.11,7.11,0,0,0-2.69-1.61c-3.09-1.12-5.22.21-7.52.26-4,.1-4.58-3.67-11.29-8.33a28.74,28.74,0,0,0-15.05-5.37c-2.45-.09-4.28-.12-5.91,1.07-3.39,2.47-2.08,7.35-4.84,8.87-1.25.69-2.71.34-7.53-1.88a95.24,95.24,0,0,1-17.73-10.21c-3.42-2.58-5.21-4.31-6.72-6.72a15.73,15.73,0,0,1-2.42-6.45c-.24-1.93-.52-4.29.8-6.18,1.59-2.27,3.77-1.4,5.65-3.5s2.1-5.77,1.07-8.33c-1.11-2.77-4.14-4.09-10.21-6.72-5-2.17-7.54-3.23-9.41-2.15-1,.57-1.41,1.44-2.95,7-1.78,6.41-2.66,9.64-2.15,10.75,1.88,4.12,8.27,2.93,9.67,7.26a5.37,5.37,0,0,1-.8,4.83c-1.35,1.67-3.67,1.75-5.65,1.89-7.54.51-5.57,1.6-12.36,1.88-17,.69-29.88-6.09-40.05,0a51.39,51.39,0,0,0-6.18,4.57c-4,3.45-5.76,5.94-8.33,8.86-4.62,5.28-11.78,13.44-21.5,14.52a16.61,16.61,0,0,1-5.91-.27c-6.43-1.52-10.23-6.72-12.9-10.48-5.76-8.1-6.38-14.41-8.6-14.25s-1.53,6.77-6.19,9.41c-3.59,2-8.71.77-11.82-1.34-2.46-1.67-2.28-2.92-5.11-5.92-4.35-4.6-7-4-10.21-7-5.56-5.2-1.16-10.44-5.91-17.47-2.44-3.61-3.51-2.11-20.43-11.29-6.93-3.76-9.68-5.61-13.17-4.57-2.67.79-4.37,2.95-7.79,7.26-3.12,3.93-4.76,6.06-4.3,8.6.55,3,3.73,4.74,5.37,5.64,6.08,3.32,10,.58,12.37,3.23,2.74,3.07,1.2,11-3.23,14.24-4.27,3.15-9,.34-11,3.22-1.78,2.59-.16,8,3.23,10.76,4.8,3.89,9.68-.46,17.2,1.88,4.75,1.48,8.36,6.36,15.59,16.12,2.21,3,2.34,3.41,12.9,20.7,6.86,11.24,8.1,13.18,7.79,16.66-.69,7.85-8.38,13.82-9.68,14.78-5.45,4-10.24,3.76-11.28,7.26-1,3.33,2.3,7.07,8.33,13.71,9.07,10,12.86,10.61,13.17,15.05.36,5.08-4.21,10-8.33,14.51a36.55,36.55,0,0,1-5.65,5.11c-6.56,4.73-9.53,3.36-12.9,7-3.18,3.43-1.11,5.3-4.57,11a28.51,28.51,0,0,1-9.67,9.41c-2,1.24-6.44,2.72-15.32,5.64a115.07,115.07,0,0,1-11.83,3.5c-2.11.47-1.42.24-9.4,1.61s-9.06,1.67-10,.81c-1.11-1.09-.56-4.49.54-11.29.28-1.73.53-3.05.81-5.38.43-3.75.65-5.63.26-6.72-.25-.71-1-2.4-9.4-5.64-9.22-3.57-11.11-2.62-11.83-2.15-1.4.91-2,2.42-2.69,4a11.3,11.3,0,0,0-.8,7,10.08,10.08,0,0,0,4,6.18c4.12,2.64,8.93.21,9.67,1.88.52,1.17-1.41,3.24-3,4.3-3.71,2.56-8.31,1.46-9.95,1.08a20.65,20.65,0,0,1-8.86-4.84c-2.47-2.32-3.18-4.2-4.57-4s-1.63,2.56-3.77,5.1c-2.39,2.86-6.78,5.24-8.87,4-2.45-1.43-1.93-8,0-12.64,2.07-5,4.75-5.41,4.84-8.87.11-4-3.36-7.09-5.64-9.13-1.18-1.06-6.45-5.78-8.87-4.3-2,1.22-.13,5.48-.81,15.85,0,.49-.62,9-2.42,9.14-.88.08-1.28-1.93-3.76-2.95a7.82,7.82,0,0,0-2.69-.54c-3.09-.22-4.46.91-5.1.27-.83-.84,1.29-2.87,1.07-5.65-.27-3.52-4.21-6.85-5.91-6.18-2,.8.62,6.56-3,11.29a10,10,0,0,1-6.18,3.76c-4.17.58-7.45-2.26-8.87-3.49-3.28-2.85-3-4.8-5.64-8.6-4-5.74-11-10.51-17.74-10.22-2.53.11-6.08,1-6.45,2.69-.5,2.31,5.21,3.81,5.64,8.06.29,2.83-1.92,5.26-3.49,7a22.05,22.05,0,0,1-8.06,5.38c-3.76,1.68-10.9,4.89-14.78,8.33-9.16,8.12-6.9,23.58-10.22,23.65-1.44,0-1.57-3.09-4.84-4.57s-6.79-.56-9.13,0c-3,.73-8.83.94-20.43,1.35-7.3.25-10.41-.52-17.74-1.08-25.38-1.94-27.25,5.77-48.11,3.23-6.6-.81-12.6-2.32-21.5-.54-5.91,1.18-6.33,2.46-12.9,4.57-15.67,5-20.62-.29-37.09,4.83a131.66,131.66,0,0,0-15.05,5.92c-7.87,3.47-11.88,5.27-15.59,8.6-2.48,2.23-4.52,5.07-8.6,10.75-5.56,7.75-5.43,9.18-8.87,11.82-3.68,2.84-5.75,2.59-8.06,5.92-1.36,2-1.42,3.17-3.76,7-2.12,3.46-3.4,5.5-4.84,5.38-1.91-.16-1.88-3.94-4.84-5.11-1.65-.65-3.28-.1-5.1.54a17.94,17.94,0,0,0-8.6,6.45c-2.36,3.5-1.78,6-1.88,17.47-.12,12.28-.83,12.91-.27,20.16.53,7,.84,10.53,2.68,14.24,2.88,5.79,9.05,12.35,14,11.29,3.24-.69,4.16-4.29,7.26-4,2.64.22,4.38,3,4.83,3.76,3,4.87,1.1,11.11-.26,15.32-2.05,6.34-3.79,6.55-5.11,10.75-2.24,7.14,1.68,10.07,3.49,21.5.88,5.56,2.95,18.61-3.49,29-3.39,5.48-5.43,4.24-8.33,9.94-4.42,8.68-3.34,18.72-3,21.5.94,6.88,3.15,9.85,1.35,14.79-1.05,2.85-2,2.46-4.3,6.71a34.52,34.52,0,0,0-4,13.71,26,26,0,0,0,.81,10c1.33,4.4,3.09,5.19,6.45,10.48S249.82,665.65,249,673c-.24,2.09-.71,6.22-3.76,8.6-2.43,1.89-4.63,1.23-5.91,3.23-1.45,2.25-.38,5.82,1.07,8.06,2.68,4.13,6.27,3.09,10.48,6.45,5.92,4.71,8.21,14.21,5.38,17.2-1.76,1.86-4.17-.21-9.14,1.34-4.18,1.31-9.94,5.1-10.21,10.49-.21,4,2.62,8.55,5.64,8.86,2.72.29,3.52-3.1,8.6-5.1,3.33-1.32,8.13-1.9,9.41,0,1.11,1.65-1.48,3.63-1.88,8.87a18.06,18.06,0,0,0,1.07,7.52c1.58,4.08,4.24,5.41,8.06,9.14,2.35,2.29,4.34,5.11,8.34,10.75,4.84,6.84,8.51,12,10.75,18.28,4,11.08-.39,14.84,2.15,27.68,1.57,7.95,4.57,13.26,8.87,20.69,17.29,29.93,32.41,29.09,39.77,51.34,1.94,5.84,3.3,13.19,5.65,25.8.56,3.05,1.91,10.47,3.22,20.16,1.13,8.29,1.69,12.43,1.88,16.93.47,10.83-1.32,14.53-2.15,24.45-1.35,16.13,1.49,28.94,3.23,36.83,3.44,15.58,6.13,14.35,8.33,26.07,1.51,8,.85,11.84-3,42.73-3.93,31.87-4.2,35.75-7,44.34-2.63,8.15-5.42,16.77-11.82,26.88-10.05,15.87-20,21.15-19.89,33.33,0,4.74,1.54,4.06,3.76,13.17,1.88,7.68,6.12,25.08-1.34,38.7-3.76,6.85-5.93,4.45-15,15.32-6.63,7.9-5.89,9.65-15.32,24.19-12,18.53-14.28,17.31-16.66,25.53-1.59,5.49-1.84,10.71-6.19,17.74-3,4.87-5,5.88-6.71,8.87-4.87,8.55,1.47,18.1,5.64,31.71,6.92,22.59-1.59,25.5,5.91,52.95a114.22,114.22,0,0,0,9.41,24.45c4.72,8.93,8.22,12.51,16.39,24.19,13.58,19.4,10.46,18.86,17.2,26.88,9.75,11.58,20.33,17.56,41.13,29.29,15.74,8.89,18,8.39,27.14,15.32a131.07,131.07,0,0,1,22.84,22.85c10.89,13.39,8.45,14.54,18.28,26.87,10.06,12.63,11.79,10.39,29.83,29.84,6.47,7,15.63,17.36,16.94,16.39,1-.72-3.4-6.82-1.62-8.6,1.36-1.35,5.57.46,8.33,2.42,4.56,3.23,6.47,7.83,7.53,10.48,5.78,14.43,7,21.82,11.29,32a122.43,122.43,0,0,0,5.91,11.83c7.15,13.2,11.34,17.41,18.81,30.37,4.74,8.21,3.39,7.09,7.8,14.78,8.38,14.61,12.77,17.81,25.26,36,6.73,9.81,10.09,14.72,13.17,20.7,7,13.63,5.51,16.54,13.44,31.18,3.13,5.78,5,8.39,6.18,13.7,1.58,7.28-.35,9.82-.81,19.08-.54,11.06,2.09,10.06,4,32.52a149,149,0,0,0,1.88,15.59c.65,3.63,1.35,6.67,2.68,11.83,3.72,14.39,5.57,21.59,8.6,29.29s3.2,6,8.34,17.47c5.06,11.32,5.56,14.46,10.75,27.15,6.81,16.66,11.21,27.42,14.51,26.87,2.64-.43,1.46-7.6,5.64-19.08,1.94-5.32,6.7-12.22,16.13-25.8,14.15-20.38,8.49-10.29,16.93-22.58,4.07-5.92,7.32-11.07,13.44-12.9a38,38,0,0,1,9.68-1.07,33.79,33.79,0,0,1,8.33,1.07c10,2.77,13.11,10.57,16.93,9.14,1.12-.41,2.09-2.52,4-6.72s2.82-6.09,2.69-8.06c-.18-2.81-1.74-3.82-5.65-9.41-2.81-4-4.21-6-5.37-8.6-1.53-3.39-1-3.86-3.23-14.51-1.19-5.57-1.6-6.65-1.61-9.41,0-5.75,1.78-8.52,2.69-9.67s2.25-2.88,3.76-2.69c1.81.22,2.16,3,4.84,8.33.63,1.26,2.21,3.8,5.37,8.87a56.75,56.75,0,0,0,5.38,7.79C736.78,1889.07,740.17,1893,741.35,1892.35Z"/><path d="M773.87,1746.59c-1.2,1.71-.9,2.59-1.79,6.45-1.55,6.72-3.74,9.57-2.87,10.22s2.92-.91,4.3-2.51c1.78-2,1.32-3.3,2.87-7.17,1.3-3.23,2.07-3.47,3.94-8.06a10.16,10.16,0,0,0,1.08-4.66c-.09-1.6-.72-4.21-2.33-4.66a2.07,2.07,0,0,0-1.79.36,2.7,2.7,0,0,0-.72,2.15c0,1.71.68,2.14.72,3.23C777.33,1743.75,775.39,1744.44,773.87,1746.59Z"/><path d="M788.39,1760.39c-1.08,1.95-2.2,1.77-4.84,4.3-2.17,2.07-4.09,3.92-3.76,5.73.39,2.23,4,3.26,7,4.13s5.78,1.66,7.17.35c1.84-1.72-.94-4.83.72-8.42,1.57-3.4,4.94-2.47,8.06-6.63.61-.81,3.53-4.91,2.15-7.88-1-2.24-3.38-1.34-7.71-4.66-2.63-2-2.93-3.26-5-3.76-2.59-.63-5.57.44-5.74,1.61s2.62,1.44,3.59,3.94c.33.88.18,1.31-.54,5.74C788.7,1759.53,788.77,1759.69,788.39,1760.39Z"/><path d="M852,1130.59c-1.46-1.71-4.57-1.16-5-1.07a7.26,7.26,0,0,0-4.48,3c-1.07,1.5-1.07,2.61-1.44,9.14-.33,5.9-.45,7,0,9.14s.76,3.56,2,5c2.17,2.59,6.42,4.1,9.68,2.68,4.74-2,5.52-9.46,3.58-13.61-1.28-2.74-3-2.5-3.94-5.38C851,1135.47,853.75,1132.64,852,1130.59Z"/><path d="M878.69,825.82c-4.15-2.62-8.89-.87-10.93.53a7.16,7.16,0,0,0-2,2c-.31.47-1.64,2.49-1.08,4.31.51,1.62,2,1.33,4.3,3.58,2.15,2.07,1.7,3.11,3.41,4.12a7.32,7.32,0,0,0,5.73.36c3.85-1.38,4.79-5.5,4.84-5.74C883.79,831.17,881.48,827.58,878.69,825.82Z"/><path d="M905,771.17c-.34-6-2.57-7.22-2.87-14.52-.17-4,.45-5.6-.89-7.16-1.9-2.22-5.61-2-9.68-1.79-6.32.34-6.66,2.07-10.93,1.43a37.85,37.85,0,0,0-6.81-.9,24,24,0,0,1-3.22,0c-4-.52-6-3.26-6.45-2.86s.83,3.22,3.4,4.83c2.78,1.75,6.36,1.55,7.53,1.44,2.27-.22,3.35-.89,4.3-.18s1,2.69.89,3.76c-.2,3.77.69,7.52.72,11.29.06,7.27.11,10.94.89,12.36,1.71,3.1,3.6,2.93,5.74,7.17,1.41,2.8,1,3.7,2.51,5.37a10.84,10.84,0,0,0,7.16,3.23c1.71.13,4.77.36,6.27-1.43,1.74-2.07-.31-4.8-.53-10.4C902.82,776.87,905.36,777.1,905,771.17Z"/><path d="M981.89,652.55c-1.06.58-.9.65-4.65,3.59-3.19,2.49-4,3-4.13,4.12-.11,1.27.82,2.32,1.62,3.22a10.25,10.25,0,0,0,4.48,2.87c1.86.67,7.43,2.68,10.21.18,1.59-1.43.54-2.79,2.51-5.73s3.63-2.76,3.76-4.3c.21-2.45-3.92-5.6-7.88-5.74A11.52,11.52,0,0,0,981.89,652.55Z"/><path d="M965.77,665.63c3.57.33,4.36.94,5,.36.93-.81.41-3-.17-5.37a8.33,8.33,0,0,0-.9-2.69c-1.71-2.45-6.19-3.09-9.32-1.61-2.2,1-2.58,2.58-3.4,2.33-1.56-.49-2.28-6.79.72-10.4,1.49-1.8,2.54-1.27,4.65-3.4.18-.18,4.47-4.59,3.23-7.7-1-2.54-4.56-1.39-6.63-4.48-1.71-2.56-.05-4.49-2-7a6.89,6.89,0,0,0-5.56-2.69c-2.08.14-2.38,1.46-7.52,5.2a30.94,30.94,0,0,1-5.2,3.4c-2.41,1-4.21,1.08-5.19,2.69A5.46,5.46,0,0,0,933,637c-.39,6.41-.34,6.95-.54,8.24a12.86,12.86,0,0,1-2.15,6.09c-.88,1.2-2.27,2.07-5,3.76-5.38,3.32-8.08,5-8.6,5.2-3.89,1.61-4.95,1-7.88,2.87-1.84,1.16-3.53,2.23-4.12,4.12-1.26,4.06,3.2,10,7.7,10.39,1.49.14,3.23-.8,6.63-2.69,6.6-3.65,7.16-5.1,10.22-5.73,3.28-.68,3.36.85,9.13,1.25,6.44.45,6.64-1.43,13.08-1.07,5.07.28,8.82,1.65,9.86,0,.67-1.07-.38-2.46.54-3.41C962.11,665.7,962.68,665.35,965.77,665.63Z"/><path d="M832.82,133.84c-1.13-.87-2.93-.46-3.4-.35-1.64.37-2,1.29-3.77,2.5-2.51,1.69-3.38.89-6.09,2.51a8.82,8.82,0,0,0-3.76,3.41c-1.38,2.72-.2,5.8,1.07,9.14.81,2.11,1.28,3.33,2.51,4.47,1.52,1.41,3,1.64,6.45,2.33,8.87,1.81,9,2.44,11.11,2,3.57-.79,7-3.48,6.63-5.19-.29-1.48-3.13-1-6.09-3.58a12.74,12.74,0,0,1-3.76-6.28C832.18,139.32,834.89,135.44,832.82,133.84Z"/><path d="M813.83,85.83c7.69,4.65,3.88,3.74,21,15.94,5.18,3.7,8.79,6.27,14,9.5,3.76,2.34,7.63,4.58,9.31,5.55,8.17,4.73,7.17,3.77,9.5,5.38a22.65,22.65,0,0,0,6.09,3.4c.89.3,1.41.4,3.59,1.08,2,.62,3.08,1,4.3,1.43a40.76,40.76,0,0,1,8.06,4.3,22.24,22.24,0,0,1,2.51,1.79c3,2.72,3.1,5.15,4.48,5.38,2,.33,4.28-4.27,5-5.74,2.22-4.43,2.43-7.34,4-13.79,1.27-5.41,1.9-8.11,3-10.75.83-1.91,1.63-3.32,7.71-12,5.82-8.32,6.87-9.58,6.8-12,0-1.71-.6-2.83-6.09-9.86-9-11.57-11.06-13-13.26-14.15a28.91,28.91,0,0,0-9.31-2.69c-5.65-.81-7,.43-12.37-.54-3.67-.66-7.89-1.43-10-4.66-1.67-2.52-.23-3.77-1.79-7.7-.77-1.94-1.5-2.58-6.63-8.24-6.21-6.85-6.33-7.22-7.71-7.89-3.09-1.48-6-1.32-10.75-1.07-4.33.23-6.5.35-8.6,1.43-4.57,2.37-4.19,6.25-9.13,12.9-4.14,5.56-5.14,3.84-9.5,9.5-4.07,5.28-2.8,6.27-8.24,15.41-3.78,6.33-5.51,7.75-5,10.39C805.29,81.33,808.47,82.58,813.83,85.83Z"/><path d="M854.68,21.5c5.21.62,6.16-1,8.78.18,1.71.75,1.35,1.44,6.09,7.17,3.59,4.33,3.67,3.78,4.84,5.73,1.71,2.86,1.89,4.61,3.76,5.38a38.31,38.31,0,0,0,3.94.71c1.55.29,2.32.44,2.69.54,2.45.69,2.9,2.42,5.38,4.66a16.82,16.82,0,0,0,7.88,4.3c2.47.48,3.66-.06,4.84,1.07s.71,2.22,2,4.3c.53.88.9,1.18,2.87,3.05,4.78,4.57,4.54,4.66,5.37,5,3.2,1.35,5.59-.62,6.63.71s-1.11,3-.9,6.45c0,.28.37,4.74,3.95,6.81,1.75,1,4.83,1.78,6.45.36,1.8-1.57.14-4.38,1.43-8.24,1-2.87,3.85-2.82,4.84-6.09a23.37,23.37,0,0,0,.36-2.69c.76-5.15,2-6.39,1.25-7.88-.6-1.14-1.49-.69-3.94-2.15-1.51-.91-4.55-2.72-5.2-5.74-.53-2.47.78-4.7,1.79-6.45a9.65,9.65,0,0,1,3-3.58,9.38,9.38,0,0,1,8.78-.54c2.28,1.08,2.33,2.44,5.37,3.76,1.62.71,3,1.29,3.95.72,2-1.16,1.29-6.37.36-9.32-.21-.63-.8-2-2-4.83-.69-1.66-1.39-3.27-1.61-3.77a41,41,0,0,0-9.85-13.08c-2.45-2.05-1.64-.77-8.07-5.19C927.06,1,925.83,0,923.84,0c-1.47,0-2.85.64-5.55,2-3.13,1.54-4.69,2.31-5.56,3.23-2.44,2.56-1,4.58-3,9.85-.89,2.28-2.44,6.12-6.1,7.89-.53.26-3.67,1.7-5.55.35-1.29-.92-.7-2.25-1.79-3.58-2.42-2.95-9.21-1.24-10.57-.9-4.43,1.12-4.66,2.63-8.6,3.05a10.89,10.89,0,0,1-7.35-1.25,9.85,9.85,0,0,1-3.94-5.38c-1-3.48,1-4.76,0-8.6-.33-1.3-.94-3.74-2.87-4.84-2.81-1.6-6.66.64-11.11,3.23-3.49,2-5.25,3.09-6.09,5.19a8.56,8.56,0,0,0,2,9C849.49,20.88,851.7,21.15,854.68,21.5Z"/><path d="M947.36,43.94c.52-2.13-1.28-4.75-2.42-4.7-.79,0-.72,1.5-2.15,3.49-2.19,3.05-4.69,2.89-5,4.84-.16,1.09.61,1.25,1.74,4.17,1,2.54,1.17,4.06,1.48,4,.51-.05-.65-4,1.41-7.18C944.23,45.88,946.82,46.17,947.36,43.94Z"/><path d="M661.71,333.27c4.29,2,9.89,1.22,14-1.62,3.78-2.62,6.67-7.26,6.45-11.82-.16-3.53-2.11-5.16-1.07-6.63,1.48-2.1,7-1,10.21-.36,4.05.81,5.54,1.85,8.07,1.07a9.53,9.53,0,0,0,4.12-2.86,15,15,0,0,0,3.76-7.35c1-4.74-.47-8.58-1.79-12-1.11-2.87-2.29-5.95-5.38-8.78a16.85,16.85,0,0,0-8.06-4.3c-4.6-.93-5.56,1.17-10.57.36-3.86-.63-3.71-1.94-8.06-2.69-1.79-.31-7.94-1.37-9.86,1.61a5.22,5.22,0,0,0-.36,3.94c.54,2.17,2,3,3.94,5,1.45,1.54,4.25,4.52,4.66,7.88.32,2.58-.87,4.56-3,8.07-2.9,4.66-4.45,5-8.25,10-3.29,4.4-4.94,6.66-5,10a11.62,11.62,0,0,0,2.69,7.71A11.2,11.2,0,0,0,661.71,333.27Z"/><path d="M704.35,529.64c-.35-.82-.8-1.82-1.61-2-1.13-.21-2.28,1.4-3.76,3.58-4.27,6.28-4.2,6.79-5.92,9-2.84,3.59-3.94,3.33-5.55,6.27-1.13,2.07-1.42,3.74-2,7-1.4,8.35-2.1,13.25-2.33,14.87-1.32,9.18-1.92,11.5-.18,13.62a8.25,8.25,0,0,0,4.66,2.51,14.55,14.55,0,0,0,12.18-2.69c3.25-2.51,3.2-4.81,5.74-5.2,2.09-.31,4.27.93,6.09,2,2.8,1.6,2.93,2.65,4.3,2.68,1.94,0,3.42-2,5.91-5.55a27.42,27.42,0,0,0,4.12-7.35c1.09-3.11,2.3-6.54.9-10.21a11.06,11.06,0,0,0-3.23-4.48,13.52,13.52,0,0,0-4.12-2.15c-6.13-2.55-7-4.17-7.52-5.2s-.94-2.55-.36-3c.77-.67,3.49.53,5.19,2.33.77.8,1,1.37,2,2,.25.15,2.14,1.27,3,.54s.22-2.74.18-2.87c-.55-1.63-1.51-1.51-3.05-3.76a24.18,24.18,0,0,0-1.79-2.87c-.37-.44-1.3-1.47-1.61-1.8a7.74,7.74,0,0,0-1.61-4.47c-.8-1.16-1.11-.85-1.79-2a5.88,5.88,0,0,1-.9-3.77,6.42,6.42,0,0,1,1.08-2.68c2.58-4.47,3.54-5.38,3.22-5.92-.46-.75-3.38-.55-5.37,1.08-3.76,3.08-2.8,10.13-2.51,11.83.9,5.38,3.51,7.49,2.15,10.21-.79,1.56-2.59,2.73-3.59,2.33-1.24-.51-1.24-3.47-1.25-7C705.06,533.71,705.35,531.94,704.35,529.64Z"/><path d="M974.73,212.32c1.86.62,3.56.12,5.73-.53a9.3,9.3,0,0,0,3-1.26c2.18-1.6,2.67-4.17,3-6.09s.67-3.45-.18-4.66c-.19-.28-.73-1-3.94-1.79-3.62-.94-5.43-1.41-7.17-.54-1.43.72-2.08,2-2.86,3.41-.7,1.31-3,5.61-.9,8.95A6.28,6.28,0,0,0,974.73,212.32Z"/></g></g></svg>