<svg xmlns="http://www.w3.org/2000/svg" viewBox="0 0 1911.26 2615.03"><g id="Layer_2" data-name="Layer 2"><g id="Bangladesh"><path d="M1752.83,1333.91c-.7.63-1.45.65-2.62,1.8a8.27,8.27,0,0,0-1.64,2.29,12,12,0,0,0-1.15,4.26c-.27,4.4,4.68,6.68,6.06,12.29,1.51,6.14-2.76,10.13,0,13.43,1.39,1.66,2.67.91,4.43,2.62,2.77,2.71,2.14,7.07,2,12.29-.1,3.12.26,7.54,1,16.38.38,4.62,1.08,9.3,2.46,18.68,1.06,7.13,1.4,8.66,2,10.49,1.2,3.88,2.47,8,5.73,12.12,3.75,4.74,7,5.5,7.37,9.17.26,2.5-1.2,2.57-1.47,5.57-.52,5.64,4.07,11.39,7.54,15.73a11.33,11.33,0,0,1,2.62,4.42,12,12,0,0,1-.82,7.38c-1.6,4-3.51,4-3.61,6.22-.1,2.49,2.23,3.09,5.74,8a25.81,25.81,0,0,1,4.42,8.85c.84,3.33,0,3.56.49,8.51.75,7.19,2.83,9.26,1.31,11.64-.27.42-.82,1.11-6.39,2.94-7.49,2.47-8.9,2-10.32,3.77-2.4,3-1.19,7.86-.82,9.34a19.35,19.35,0,0,0,2.3,5.08c3.74,7.22,2,16.3.65,23.59a63.06,63.06,0,0,0-1.14,8.36c-.32,4.81.16,6.65.81,8,1,2,2.06,2.48,4.26,4.59,2.74,2.62,6.81,6.51,7.7,11.47.7,3.87-1.35,3.84-1,10,.22,3.64,1,5.13.33,8.19-.56,2.44-1.48,3.28-2.46,5.41-1.27,2.76-1.31,4.8-1.47,11.47-.34,14-.38,15.08,0,17.85.78,5.72,1.22,8.61,3.44,10.16,2.72,1.9,5.6.38,9.34,3.11,1.27.94.6.87,3.44,3.61a64.67,64.67,0,0,0,6.38,5.4c1.9,1.41,2.36,1.58,3.77,2.79a28.84,28.84,0,0,1,3.44,3.44c3.74,4.76-1.12,10.42,2,18.84a49.11,49.11,0,0,1,1.8,5.08,39.66,39.66,0,0,1,1.31,6.72c.36,3.4-.06,3.78.49,6.22.39,1.7.7,2,1.48,4.42a51.75,51.75,0,0,1,1.47,5.9c1.95,9.17,3.18,14.94,6.56,16.06,1.67.55,3.23-.25,5.57,1.14a9.78,9.78,0,0,1,2.13,1.81,12,12,0,0,1,2.45,4.26c1.36,3.81.43,5.24,1.48,9.5.11.45.11.38,1.64,4.58,3.13,8.62,3.46,9.81,3.6,11.64.07.93.05,2.37,0,5.24-.06,3.39-.16,3.58-.16,5.24a39,39,0,0,0,1.31,10.16c.68,2.48,1.67,5,2,5.73,1.25,3.16,1.67,3.48,1.8,4.92a11.49,11.49,0,0,1-1.63,6.39c-1.33,2.61-2,2.38-2.95,4.26-2.32,4.69,0,10.18.16,10.48,1.32,3,2.67,2.86,4.59,6.55a23.21,23.21,0,0,1,2.13,6.39c2,10,.41,20.12,2,33.92.14,1.19.58,4.34,1.48,10.64.5,3.57,1.34,9.48,2,13.44,1,6.59,1.65,8.78,4.1,20.8,2.1,10.27,3.35,16.42,4.75,24.41,1.94,11.12,1.6,11.14,3.28,20,1.8,9.52,2.7,14.28,4.42,20.64a147.26,147.26,0,0,1,4.1,21.14c.42,3.55.72,7.27-1.15,8.35-1.6.93-4.75-.09-6.55-1.8-1-1-1-1.6-2.13-2.29a5.3,5.3,0,0,0-4.75-.5c-3,1.35-3,5.87-3,6.23.06,2.63,1.38,4.14,3.27,7,1.33,2-.37-.31,6.56,12.78,3.32,6.29,4.09,7.55,4.42,10.16.2,1.62,0,2.29-.66,7.54-1.81,13.41-1.77,16-.32,18.51.56,1,1.3,1.88,2.45,4.09a20.35,20.35,0,0,1,2.3,5.74c.55,3-.3,4.52-.66,7.21-1,7.81,3.82,15.18,4.75,16.54,2.45,3.58,4.6,4.61,4.59,7.54,0,2.07-1.08,3-1,5.9.08,2.46.87,3,1.14,5.08.32,2.44-.47,3.82-2.45,8.84-.9,2.27-2.54,6.41-3.61,10a63.3,63.3,0,0,0-2,9.66,137.54,137.54,0,0,0-1.48,18.51c-.27,18.12,1,23.28.82,42.27-.07,6.47-.22,6.14-.16,10.32.15,11.38,1.31,16.54,2.29,28.34.57,6.85.72,11.63,1,20.15.46,14.56,0,18.79,1.48,27.85a98.11,98.11,0,0,0,3,13.44c1.16,3.89,1.54,4.22,4.26,12.45,1.88,5.72,2.92,9.27,3.27,10.48,1,3.58,1.71,5.88,2.46,9.18.8,3.51.8,4.17,1.64,7.53,1.11,4.43,1.29,4,2,7.05,1,4.46.62,5.51,1.81,8.68.51,1.37.46.87,2,4.26a44.76,44.76,0,0,1,2.62,6.72c.84,3.11,1.26,4.67.82,5.9-1.09,3.1-5,2.59-12.28,6.88a55.84,55.84,0,0,0-5.9,4.09c-5.45,4.22-5.55,5.58-8,6.39-3.83,1.26-9.18-.14-11.63-3.44-1.78-2.39-.59-3.84-2-12.29a67.2,67.2,0,0,0-1.8-8.19c-1.5-5.19-2.38-5.58-4.26-11.3-1.53-4.67-2.3-7-2.46-10.16-.26-5.15,1.22-6.61-.16-9-1.91-3.33-6.67-3.88-8.52-4.09-1.63-.19-5.75-.67-8.84,1.8-2.17,1.72-1.87,3.33-3.77,5.73-2.79,3.51-7,4.54-9.18,5.08-9,2.2-20.29-2.35-24.24-10.32-1.66-3.35-1.73-6.69-1.81-10.81-.16-8.41,2.55-12.1,0-16.06-1.36-2.11-2.16-1.11-5.89-4.75s-3.45-5.15-6.56-7.54a14.06,14.06,0,0,0-7.86-3.27c-.33,0-6.07-.27-9.83,3.77-2.15,2.31-1.35,3.55-3.93,8.52-2.32,4.46-3.5,6.73-5.9,7.86-3,1.43-4.84-.5-13.92-1.48-7.25-.77-8.42.21-8.85.66-2.06,2.15.61,5-1.15,10-1.55,4.38-4.43,4.42-4.91,8.19s2.17,4.75,1.31,7.54c-.64,2.08-2.18,1.72-8.85,6.55-3.51,2.55-3.78,3.16-5.9,4.1s-3.36,1-4.58,2.29c-.88.94-1.51,2.25-1.81,4.92a25.66,25.66,0,0,0,1,10c3.1,10.77,4.9,10.36,4.91,14.58,0,5.64-3.2,5.5-3.27,12.12-.06,4.79,1.6,7.15-.17,10.49-.86,1.63-1.64,1.8-3.6,4.42-2.41,3.22-1.89,3.91-3.61,6.23-2.82,3.8-4.78,3-7,6.55-.51.79-3,4.72-1.64,7.05,1,1.64,3,1,8.19,3.27,2.22,1,3.33,1.47,3.93,2.3,1.85,2.51-.21,5.11,1,9.5a14.71,14.71,0,0,0,3,5.24c2.73,3.65,5.1,4.84,8.51,7.54,4.31,3.4,9,7.08,11.14,12.94a24.37,24.37,0,0,1,1.32,9.5c-.17,5.85-2,8-1.32,12.94.46,3.11,1.37,3.37,2.63,7.05,2,5.78.63,7.78,1.14,19.49.31,7,.49,10.56,2,14.42.81,2.13,2.63,4.83,6.22,10.16,6.35,9.39,7.81,10.42,9.83,15.23a66.94,66.94,0,0,1,2.79,8.36c1,4.08.67,4.29,1.64,7.86,1.64,6.07,3,6.39,3.11,10,.1,3.31-1,3.47-.82,7,.27,4.45,2.22,6,1.31,7.29-1.28,1.82-6.71,1-10.65-1.48-2.32-1.46-4-3.94-7.37-8.84a107.69,107.69,0,0,1-5.73-9.18c-3.2-5.71-4-8.07-6.23-12.61-4.25-8.54-5.58-8.37-13.11-21.3-3.47-6-5.2-8.94-6.55-12.12-3.17-7.49-2.93-10.48-6.39-20.32-.64-1.82-2.42-6.76-5.24-12.78-3.52-7.5-6.42-13.67-11.8-19.82s-6.11-4-12.12-10.65c-4.9-5.44-4.44-6.92-13.27-18.67-3.52-4.69-5.76-7.35-7.37-9.18-4.77-5.42-6.61-6.62-8.52-8.84-2.85-3.33-3-5.59-6.06-28.51-2.14-16-2.79-20.26-.66-25.07a23.92,23.92,0,0,0,2.13-6.88,19.42,19.42,0,0,0-1.31-11,17.29,17.29,0,0,0-4.91-6.06c-3-2.53-7.71-10.92-17.2-27.69-12.72-22.47-3.82-9-8.85-17.69-1.72-3-3.31-5.51-2.79-8.69.58-3.55,3.5-6.21,6.39-8.84,2.59-2.36,3.74-2,5.74-4.26a16.8,16.8,0,0,0,3.44-6.39c1-3.63.32-6.22,0-9.18-1.26-11.42,4.4-13.53,2.45-23.75-.54-2.89-1.35-4.56-1-7.7.57-4.82,3.21-7.21,2.13-8.52s-4.4-.7-5.9,1.15c-1,1.24-.79,2.66-.82,4.91,0,3.91-.74,4.27-1.31,9-.88,7.36.67,7.61,0,14.25-.73,7.34-2.57,6.61-3.44,14.91-.37,3.57-.21,5.46-1.8,7.05-.46.46-1,.85-8.19,2.95-3.42,1-3.63,1-4.91,1.47-2.38.86-3.18,1.38-5.25,2a28.92,28.92,0,0,1-4.26.82c-3.69.35-6.69-.8-10.48-2.3a57.34,57.34,0,0,1-11.14-6.06c-4-2.76-6.07-4.19-7.54-6.72s-3.15-7.42-1.14-9.66c1.36-1.53,4.39-1.87,5.24-2,1.89-.21,2.65.17,3.6-.49a4.06,4.06,0,0,0,1.48-4.1c-.54-2-2.64-1.85-4.92-4.75a9.17,9.17,0,0,1-1.64-2.78c-.92-2.84.91-4.72,3.28-10.65,2.3-5.74,1.37-5.94,3.44-9.83,1.15-2.15,2-3.24,2.46-5.41a12.83,12.83,0,0,0-.66-6.55c-3-9.59-6.14-10.52-6.55-15.89-.21-2.83.57-5.33,2.13-10.32a68.89,68.89,0,0,1,3.28-8.19c2.52-5.79,4.46-11.23,8.35-22.12,1.18-3.29,2-5.55,2.79-8.52.89-3.16,1.18-4.77,2.13-9,2.45-11.06,3-11.81,3.93-17.53.72-4.62,1.08-7,.82-9.83-.52-5.63-2.39-6.37-3.77-11.79-2.61-10.28,2.52-13.9-1.31-21.46-.65-1.28-2-3.2-4.59-7-3.36-4.92-4.1-5.5-5.08-7.21-1.83-3.19-1.78-5.51-2.13-15.07-.37-10.16-.56-15.36-1.14-20.81-.76-7.09-1.1-5.61-1.64-11.63-.79-8.71-.14-12.41-2.79-14.41-2.21-1.68-4-.07-7.53-1.81-2.81-1.35-4.2-3.53-6.39-7a44,44,0,0,1-5.9-15.24,54.55,54.55,0,0,1-.66-11.46c.14-8.68.12-10.13,1-11.47,2.11-3.26,4.74-2.37,7.21-6.06.52-.8,3-4.73,1.8-8.52s-5-3.49-8.52-8.85c-1.24-1.87-2.91-4.41-2.13-6.72.73-2.15,3-2.3,8.19-4.75s9-4.23,12.12-7.86c2.31-2.66,2.47-4.21,5.57-6.88,2.68-2.3,3.47-1.93,4.59-3.61,1.56-2.31,1.28-5.18.66-10.81-.41-3.64-.63-5.47-1.48-5.73-1.64-.5-5.26,3.54-5.73,8-.28,2.61.78,2.89.33,4.91-.65,2.87-3,3.25-8.52,8.19-3.37,3-2.93,3.26-5.08,4.75-3.05,2.12-4.14,1.76-8.36,4.1-3.9,2.16-6.06,3.4-6.71,5.73-.26.92,0,1.18,1.8,6.56,1.64,5,1.62,5.47,2.46,6.55,1.25,1.63,1.84,1.33,4.42,3.93,1.81,1.83,2.71,2.74,3.11,4.1a7.8,7.8,0,0,1-1.15,6.06c-2.11,3.24-5.9,3.84-7.53,4.09a11.39,11.39,0,0,1-7.21-.82c-1.45-.76-3.36-2.28-6.55-11.14-2.15-5.94-3.22-8.91-3.61-12.28-1-9.18,2.47-11.51,1.15-21.14-.17-1.25-.11-.3-2-8.52-3-13.1-2.37-12.16-3.11-14.09-3.52-9.11-9.05-9.94-9-16.38,0-4,2.13-4.06,2-8-.12-2.75-1.25-5.45-8.52-13.92-5.53-6.44-5.37-5.46-7.87-8.68-4.07-5.28-3.72-6.91-9.5-17.37-3.23-5.86-6.1-10.33-8.19-13.6-1.67-2.61-4.46-7-7-10.48-6.66-9.06-10-9.92-20.48-20.64-9-9.29-7.5-9.66-15.4-17.21a199.5,199.5,0,0,0-16.88-14.08c-11.93-9.24-15.39-10.56-18-16.22-1.42-3.07-4-10.35-4.42-11.63-1.44-4.14-2.16-6.21-2.46-7.38-1-4.17-.81-5.45-2.13-6.88-2.25-2.44-6.85-2.94-8.19-1.31-.87,1.07.22,2.34.82,7.54s-.19,6.31-.49,6.71c-1.3,1.73-3.64,2-4.92,2.13a13.45,13.45,0,0,1-7.37-1.47c-7.78-3.69-8.56-6.92-14.58-9.67-5.08-2.32-11.13-3-11.79-1.63-.58,1.21,2.66,4.43,5.89,6.22,2.69,1.49,4.94,1.76,10.49,4.42,1.21.59,2.91,1.44,2.78,2.13,0,.19-.23.56-1.63.82-3.51.66-7.17-.72-8.36-1.14a34.82,34.82,0,0,0-21.95.32c-4.09,1.45-8.85,3.14-11.63,7.38-2.07,3.15-.71,4.16-3,10.81-2.41,7.14-4.22,6.68-4.43,10.16-.22,3.76,1.87,4.62,8.52,16.71a53.15,53.15,0,0,1,4.1,8.52c1.52,4.37,2.69,7.7,2.13,11.3-.33,2.1-1.16,3.77-12.29,14.91-4.37,4.37-6.61,6.61-9.66,9.34-4,3.6-7.72,6.54-9.83,8.19-8.23,6.41-8.54,5.6-10.49,8.19-1.28,1.71-2.47,3.82-4.91,4.42-1.74.43-2.61-.28-4.26.49a5.47,5.47,0,0,0-3.12,3.94c-.26,2.08,1.39,3,.82,4.42s-3,1.86-3.77,2a11.52,11.52,0,0,1-6.71-1.31c-7.8-3.69-11-.49-16.55-3.76-3.81-2.25-3-4.15-8.19-11.14-4.47-6-8.78-9.61-15.73-15.4-6.26-5.22-8.55-6.32-15.07-11.14-14.74-10.92-13.48-13.09-28.67-24.74-11.1-8.52-16.65-12.78-20.81-14.91-5-2.55-9.11-4-12.28-8.68-2.42-3.57-2.11-5.8-5.08-11.8-1.74-3.5-3.24-5.55-6.55-10.16-10.56-14.66-15.89-22.08-18-26.21-.79-1.53-.66-1.36-6.07-12.29-3.75-7.58-5.71-11.4-9.33-12.77-1.53-.58-1.53-.11-7.54-.33-6.57-.24-9.86-.36-12.61-1.64-3.34-1.55-5.1-3.94-7.87-7.7-2.41-3.28-5.28-7.18-6.06-12.61-.47-3.3.11-5.16,2.29-14.26,2-8.16,2.94-12.24,3.28-14.09,2.77-15.15-6-18.63-5.57-38.5.08-4.3.55-7.35.66-16.38.07-7.05-.15-10.82-1-15.07-1.07-5.43-1.82-4.9-2.62-9.34-1.55-8.6,1.45-9.63.49-19.33-.6-6.13-2.08-8.59-.33-12.12a37.47,37.47,0,0,1,4.1-5.74c2.58-3.21,3-3.17,3.93-4.58,2.66-4.06,2.1-8.87,1.8-11.47-.54-4.77-2.52-8.43-4.26-11.63-.93-1.74-1.59-1.88-1.63-2.79-.15-3.28,5.85-4,10.15-10.16,2.06-2.93,1.33-3.68,3.44-5.89,2.35-2.46,3.74-2.06,8.2-4.75s3.89-3.57,8.35-6.23,5.54-2,7.37-3.93c4.11-4.26,2.85-11.45,2.79-11.8-.3-1.55-1-3.9-10.32-14.09-5.9-6.43-8.07-8.17-10-12.45-1.28-2.83-2.4-5.55-2.29-8.84a12,12,0,0,1,1.8-6.56c1.68-2.49,3.29-2.32,4.1-4.09,1.12-2.47-1.09-4.81-3.12-9.34-1.16-2.61-5-11.21-2-18.19.73-1.68,2-4.67,4.75-5.57,1.89-.62,3.78,0,6.06-1.47a8.78,8.78,0,0,0,1.8-1.64c3.93-4.73.36-13.25,4.92-18.84.59-.72,2.2-2.7,4.59-3,2.7-.28,4.15,1.89,5.4,1.15,1.51-.89,1.45-5.24-.65-7.54-1.14-1.23-1.88-.79-3.12-2.13-1.59-1.72-1.8-4-2-6.06a22.61,22.61,0,0,1,.33-5.4c1.23-9.43,1.14-9.27,1.31-9.67,1.56-3.86,3.83-4.62,4.09-8.35,0-.74.18-2.52-.65-3-1.32-.68-3.16,2.92-7.21,3.6a7,7,0,0,1-4.92-.82c-2.72-1.79-3.41-5.87-2.62-8.68.54-1.92,1.34-1.77,2.79-5.08a46.7,46.7,0,0,0,1.64-4.91c1.07-3.45,1.6-5.17,1.8-5.74,1.9-5.6,2.65-5.19,3.27-8.19a19.75,19.75,0,0,0-.16-8.36c-.57-2.61-1.12-2.76-2.62-7-1.73-4.94-2.57-7.44-1.48-9,.66-.94,1.84-1.39,5.9-1.64,5-.31,7.79.1,12.29.33,6.83.34,10.24.51,12.78-.66a49.38,49.38,0,0,1,6.55-2.95,23.24,23.24,0,0,1,4.26-1.14,19.29,19.29,0,0,1,8.52.65c3.92,1.24,3.43,2.56,6.55,3.44,4.73,1.34,9.2-.73,11.14-1.63a19.64,19.64,0,0,0,6.88-5.25c2.13-2.6,1.69-3.56,3.77-7.37,3.61-6.62,6.15-5.94,8-11.14.76-2.1,1-4.35,1.64-8.85.16-1.28.37-3.12.82-6.39.58-4.32.79-5.33,1.47-6.55,1-1.79,1.77-1.77,3.77-3.93,1.44-1.56,3.95-4.26,4.59-7.54s-1.18-4.11-1.81-8.84a19.72,19.72,0,0,1,1.15-10.16c2.26-5,7.12-7.35,12-9.67,7.62-3.63,9.51-1.88,13.11-5.24,4.48-4.19,5.29-10.44,5.57-12.61a18.08,18.08,0,0,0-.5-8.36,16.54,16.54,0,0,0-6.71-8.84c-4.8-2.94-8-.82-11.14-4.26a24.37,24.37,0,0,1-2.95-4.76c-1.49-2.73-2.23-4.1-2.13-5.07.28-2.73,3.64-2.73,7-7.05,1.54-1.95.61-1.65,3.61-6.55,2.87-4.7,4.26-6.72,4.26-6.72,1.6-2.33,2.19-3,2-3.27-.5-.66-4.48.84-7.37,3.76-1.45,1.47-1.11,1.76-3.6,5.08-1.15,1.52-2.29,2.82-4.59,5.41-3.5,3.94-4.17,4.41-4.75,4.75a12.8,12.8,0,0,1-5.41,1.64c-4.77.46-6.7-1.69-9-.33-.84.5-1.39,1.65-2.46,3.93-1.9,4.08-2.86,6.12-2.62,8.36.47,4.41,4.91,8.22,6.56,7.53s2-6.86,1.63-9a3.39,3.39,0,0,1,.17-2,3.43,3.43,0,0,1,1.31-1.48,7,7,0,0,1,6.39-.65,8.8,8.8,0,0,1,3.6,3.27,13.94,13.94,0,0,0,1,1.48,12,12,0,0,0,2.13,2.13c2,1.56,4.24,2.51,7.2,3.93,2.23,1.07,3.35,1.6,3.94,2,1.46.9,5.49,3.4,7,8.35a14.58,14.58,0,0,1-1.31,11.14,16.73,16.73,0,0,1-6.55,6.23c-4.53,2.74-6,1.52-9.67,3.44-3.44,1.79-6.17,6.27-11.63,15.23-3,4.84-3.62,6.58-6.23,8.69-1.83,1.47-3.38,2.13-5.24,4.42s-1.75,3.54-3.11,5.4c-2.82,3.85-7.9,4.67-10.49,5.08-6.41,1-7.24-1.59-13.43-.82-2.2.28-8.41,1-12,6.07-.32.45-3.4,4.93-2.13,9.83.6,2.31,1.47,2,4.75,6.88.78,1.16,4.43,6.7,4.59,12.12a4.16,4.16,0,0,1-.49,2.29c-1.38,2.37-5.11,2.31-5.41,2.3-1.1,0-2.44-.63-5.08-1.81a54.94,54.94,0,0,1-6.22-2.94,13.1,13.1,0,0,1-3.77-6.72c-.32-1.55-.14-2.23-.82-3.11-1.49-2-4.68-1.68-5.08-1.64a7.55,7.55,0,0,0-6.39,4.91c-.58,2,.44,2.79-.33,3.93-1.38,2.07-6,1.41-8.68.5a12.54,12.54,0,0,1-6.22-4.43c-.89-1.27-1-2-2.13-3.11a8.67,8.67,0,0,0-4.43-2.13c-3.44-.55-7.34,1.1-8.84,3.93a17.43,17.43,0,0,0-.82,3.11,61.58,61.58,0,0,0-1.31,6.56c-.16,3.58,1.76,3.87,3.76,10.48,1.12,3.67.58,3.74,1.64,6.23,1.23,2.87,2.36,3.71,4.26,7a36.41,36.41,0,0,1,3,6.39c.42,1.29,3,9.7-1,17.2-1.37,2.55-1.7,1.65-4.75,6.23a107.5,107.5,0,0,0-5.41,9.66c-2.36,4.47-3.54,6.7-3.93,7.54-3.8,8.08-3.11,9.76-5.73,11.8-3.35,2.59-8.23,2.77-8.52,2.78-2.59.07-3.36-.61-5.25,0-3.13,1-4.73,4.11-5.4,5.41a17.32,17.32,0,0,0-1.64,8.68c0,5.76,1.84,6.2,1,9.34s-2.95,3.13-5.24,8c-1.7,3.63-.84,4.28-2.13,5.4-2.84,2.47-6.87-.79-12.29,1.64-2,.91-1.3,1.29-3.93,2.79-6.06,3.45-10.08,1.52-12,4.42-1.17,1.81,0,3.2-1.64,5.73-.54.84-1.55,2.51-3.27,3-2.06.52-3.36-1.14-6-2.25-4.77-2-6.3,1-10.69-.49-4.2-1.45-2.93-4.27-10.08-9.71-1.67-1.27-3-2.11-3.68-3.93-.58-1.62-.15-2.84-1-5.78-.41-1.44-.61-2.17-1.1-2.45-1.62-1-3.33,2.39-7.62,3-2.53.32-3.82-.59-6.39.49-1.32.55-1.3.92-2.21,1.1-2.42.48-3.13-2-6.76-3.31-2.81-1-6.78-1-8.3-2.4a5.75,5.75,0,0,1-.42-.43,6.19,6.19,0,0,1-1.35-2.7c-.55-2-6.37-2.46-13.4-4.67a31.89,31.89,0,0,0-9.09-1.85c-2.65-.1-2.81.29-2.83.37-.14.57,2.26,1.72,4.06,2.34a19.18,19.18,0,0,0,3,.73c4.29.84,5.26,2.83,10.44,4.67,1.64.59.92.17,4.55,1.23,5.11,1.5,7.69,2.28,9.34,3.69,2,1.71,1.95,2.89,4,3.81.88.38,1.19.3,4.18.86,4.38.81,3.88,1,4.91,1s3-.59,6.76-1.72c1.31-.39,1.85-.57,2.58-.37s1.49.69,2.95,3.44c1.87,3.52,1.28,4.14,2.46,5.16,1.56,1.37,2.9.52,4.79,2.09,1.13.94,1.27,1.75,2,2.83,1.44,2.22,5,3.36,12,5.65a61.93,61.93,0,0,0,6.14,1.6,14.1,14.1,0,0,0,3.56.49c1.51-.1,2.28-.55,3.69-.25a9.78,9.78,0,0,1,2,.86c2.38,1.08,3.16.79,4.91,1.6a10.19,10.19,0,0,1,3.07,2.21c1.64,1.74,2.12,3.63,2.83,6.39a29.59,29.59,0,0,1,.86,5.65,32.49,32.49,0,0,1-.25,6.27c-.89,7.25,2.12,9.39,1.85,18.67-.17,5.56-1.3,6.59-1.11,13.15.08,2.74.3,3.53,0,5.53-.49,3.21-1.76,5.54-4.3,10.2a20.76,20.76,0,0,1-3.07,4.55,21.32,21.32,0,0,1-3.32,2.82c-4.17,3-6.25,4.57-8.48,5.41-2.38.89-4.82,1.8-7.62,1.1-3.13-.78-5-3.14-7.61-6.63a55.14,55.14,0,0,1-5-8.23c-4.38-8-7-11.84-10.69-13-1.23-.4-3.36-.28-7.62,0-6.84.39-8.36,1.45-11.14.33-3-1.2-2.53-2.94-5.73-5.08-3.54-2.36-6.49-1.86-12.62-2.46-8.08-.78-6.82-2-14.91-3a131.61,131.61,0,0,0-18.34-.65c-3.72.17-6.77.5-10-1.31-2.77-1.56-2.71-3-5.08-5.24-6.26-5.86-13.39-1.78-20-7.38-2-1.73-1.74-2.44-4.75-6.88-6.54-9.59-10.82-8.4-13-14.09-1.73-4.62.05-6.93-2.78-11.46a18.68,18.68,0,0,0-4.75-4.92c-8.15-6.49-13.27-9.52-17.86-13.11-2.72-2.12-1.81-1.75-10.32-10-15.06-14.58-17.8-15.63-21.46-22.12-4.22-7.47-1.83-8.28-5.57-12.94-7.42-9.22-20.72-10.93-26.21-11.63-10.38-1.33-12.81,1.22-19.34-2-4.68-2.29-5.72-4.71-12.12-8.69s-9.88-2.2-13.27-6.06c-2.62-3-1.84-4.86-4.91-7.54a16.54,16.54,0,0,0-9-3.6c-4.72-.62-9.07.51-12.13,1.31-3.48.91-4.3,1.58-6.39,1.31-3.07-.39-3.32-2.1-7-3.6a18.32,18.32,0,0,0-10.49-.82c-3.34.73-3.55,1.88-6.55,2.78-4.27,1.29-7.87.17-12.61-1.14-5.75-1.59-11.61-2.71-17.37-4.26-14.18-3.82-14.94-3.39-24.74-6.39-6.76-2.07-10.14-3.11-14.09-4.92-6.58-3-5.32-3.57-18-11-5.4-3.15-9.35-5.22-14.41-9.67-1-.87-1.94-3.65-4.26-4.09-2-.39-3.11,1.13-4.92.49-2.11-.76-2.9-3.65-3.11-4.43-.78-2.87.49-3.83-.17-6.71a10.55,10.55,0,0,0-2.78-4.92c-2.11-2.23-4.34-2.75-7.86-3.93-8.71-2.91-7.79-4-12.45-4.91s-5.84.15-12,0c-4.73-.13-5.16-.9-14.58-2.46-3-.49-6.3-.93-12.95-1.8-9.51-1.25-14.3-1.87-16.05-1.48-6.57,1.47-8,5.26-13.27,4.59-3.1-.4-2.92-1.76-7.54-3.11-5.61-1.66-7.59-.15-11.79-1.48-3.11-1-3.76-2.36-9.18-7.21-8.73-7.82-10-6.87-15.56-12.61a65.39,65.39,0,0,1-8.85-11.47c-3.68-5.86-7.17-11.42-7.86-19-.39-4.23.59-3.61.82-10.65s.48-14.83-3.61-22.28a26.51,26.51,0,0,0-8-9c-2.19-1.53-7.56-5.28-11.8-3.44-1.19.51-1.4,1.08-4.1,4.26a105.06,105.06,0,0,1-7.53,8,29.6,29.6,0,0,1-10.32,5.74c-5.27,1.92-11.56,1.85-23.92,1.64-7.71-.14-9.65-.5-11.8-1.31s-4.38-2-10.65-7.87c-5.8-5.4-9.36-8.7-13.59-14.25s-7.18-9.41-9.34-15.4-1.22-7.88-3.44-17.53c-1.36-5.9-2.34-10.14-4.59-14.91-1.91-4.06-8.54-18.09-21.13-22.12-4.7-1.5-9.16-1.26-14.91-5.24-2.4-1.66-2.94-2.61-5.24-3.44-1.91-.69-3.57-.77-13.11.17-4.72.46-6,.65-8.19.16a18.22,18.22,0,0,1-6.06-2.79c-6.41-3.84-13.94-3.48-21.63-3.11-6.93.34-6.89,1.52-12.94,1.31-4.36-.15-8.71-.3-13.27-2.78-2.94-1.61-3.55-2.87-6.39-3.77-3.88-1.24-5.63.67-9.34.16-2.8-.38-4.63-1.76-9.17-5.73-6.65-5.82-10-8.73-12.78-11.8-9.72-10.64-14.58-16-15.89-22.44a40.73,40.73,0,0,0-4.26-11.14c-1.26-2.26-2.06-3.14-3.11-3.77-3.07-1.83-7.68-1.11-10.65,1.15-3.26,2.48-2.25,5.05-5.74,7.37-2.28,1.52-3.18.72-6.71,2.29-4.18,1.87-4.47,3.68-7,4.92-5.38,2.58-14.39-.42-18.35-6.23-1.56-2.29-1.88-6.14-2.45-13.76-.59-7.78-.89-11.67-.33-16.22,1-8.49,3.58-12.15,1.31-17.36-1.17-2.68-2-2.13-3-4.75-2.09-5.9,1.85-9.82-.16-14.26-1-2.12-2.76-3.08-5.74-4.75s-6.31-2.73-12.45-3.44c-12.37-1.43-13.32,1.13-20.31-1.14-3.21-1.05-5-2.23-8.85-2.46s-4.61.74-8.35.49c-3-.2-9.23-1.27-9.83-4.1-.43-2,2.11-4.09,6.39-7.53,5.54-4.48,6.82-4,9.5-6.56,4.42-4.16,5.57-9.71,6.88-16,1.78-8.61,0-10.79,2.78-15.24,2.59-4.15,4.15-2.26,8.2-7.37,1.82-2.3,2.06-3.38,8.68-15.56.73-1.36.94-1.73,1.31-2.3,2.73-4.2,5.92-6.17,8.85-8.35,5.09-3.79,7.63-5.69,8.84-8,3.72-7.2-1-17.39-2-19.49-2.81-6.07-6.12-8.38-5.08-12,.29-1,.9-2,5.24-5.08,7.38-5.18,11.08-7.77,16.55-8.36A24.53,24.53,0,0,1,86.38,759c2.91.91,9.05,2.83,12.45,8.19,2.71,4.28,1.15,6.73,5.08,13.27,1.85,3.07,3.12,4.06,3.93,4.59,2.42,1.55,3.55.75,7.38,2.62,2.08,1,3.8,1.88,4.91,3.77,1,1.65.56,2.49,1.48,3.11,1.44,1,3.83-.17,7.2-1.8a11.91,11.91,0,0,0,3.77-2.3,8.63,8.63,0,0,0,2.46-6.06c-.23-4.75-5.9-5.27-7-10-1-4.25,2.07-10,6.22-12,1.83-.89,2.7-.49,15.4,0,4.48.17,6,.19,7.37-1,2.14-1.85,1-4.23,3.44-8.52,1.87-3.23,3-2.65,4.1-5.24,1.82-4.24-.78-6.64,1-9.67,1.61-2.77,4.18-1.46,7.37-4.26,5-4.34,4.65-12.62,4.59-14.09-.19-4.88-1.89-6-1.31-10.48.47-3.68,1.79-4.37,2.79-7.54,3.19-10.19-5.65-18.28-1.64-23.43,1.66-2.13,3.75-1.46,5.08-4.09,1.46-2.9.24-6.29-.66-8.68-2.7-7.23-7.32-8.71-6.72-12.78.29-1.92,1.54-3.17,3-4.59,1-1,3.39-3.11,10.32-4.59,5.63-1.19,9.39-2,13.93-.82,4.8,1.25,4.65,3.19,12.94,7.7,5.17,2.81,8.31,4.48,12.45,4.75,4.94.33,8.38-1.52,12.29-3.27a102.35,102.35,0,0,1,28.18-8c8.57-1,17-2.06,23.92,2.79,4.12,2.89,4.79,5.85,10,7.69,4.27,1.52,6.11.34,12.29,2.3,5.26,1.67,5.41,3,7.53,2.62,4.09-.74,4.24-5.83,10.49-11,3-2.46,4.65-3.83,7-4.09,7-.78,9.35,9.27,21.79,14.41,3.4,1.41,7.64,3.09,12,1.48,4.51-1.69,6.77-6.09,8.85-10.16,2.63-5.14,3.47-9.7,4.26-14.09,1.69-9.5.32-11.84,3.11-16.22,2.05-3.21,5.78-6.66,8.52-5.89,1.87.52,2,2.68,4.75,3.6a5.85,5.85,0,0,0,4.91-.33c2.85-2,2.9-9-.32-12.45-1.19-1.27-3-2.32-19.5-2.78-8.21-.23-9.4,0-11.3-1.31-2.59-1.76-6.2-6.1-8.69-10.16-.63-1-1.84-3.11-3.11-2.95-1.11.14-1.22,1.85-2.46,2.46-2,1-5.24-1.74-7.2-3.44-7-6.07-10.5-9.11-11.8-11.47-4-7.36-1.08-11.2-6.06-17-1.41-1.65-2.58-2.43-3.11-4.42C333,550,335.3,548,337,543a31,31,0,0,0,1-15.56c-.65-3.91-1.12-6.74-3.44-8.68-3.47-2.91-7.12-.51-9.5-3-3.6-3.69,2.45-11.49-.82-14.91-2.83-3-10.7-.63-15.4,2.46a21.08,21.08,0,0,0-5.57,5.4c-2.35,3.37-2.31,5.57-4.26,6.23-1.63.55-2.5-.69-6.55-2-3.77-1.19-6.23-2-7.87-1-3.14,1.89.3,8.15-2.95,11.8-3.1,3.49-11.2,3.32-16.21-.17-5.76-4-4.24-10.18-9.67-12.45-3.23-1.35-4.17.66-10.65.16-5.07-.39-4.82-1.65-12.94-3.6s-11-1.35-14.09-4.42c-1.8-1.79-.95-2.13-3.11-4.75-4.27-5.18-7.94-4.26-11.47-8.85a19.27,19.27,0,0,1-3.11-7c-1.92-6.69,0-9.32-2.13-11.3-2.59-2.42-6.25.72-11.14-1.64-3.84-1.85-5.54-5.69-6.06-6.88-1.91-4.31-.55-6.77-.5-17.69,0-8.49-.77-9.7-1.31-10.32-3-3.49-7.34-.48-14.74-3.44-5.4-2.16-8.81-6.05-12.12-9.83-4-4.61-3.31-5.53-6.89-9.83-3.72-4.47-7.71-7.08-15.56-12.13-6.86-4.41-9.31-5.26-15.23-9.82-5.29-4.08-7-6.21-7.87-8.85-1.3-3.88.08-6.09-1.8-8-2.63-2.71-8.25-1.36-10.49-.82-2.92.71-2.9,1.33-10.81,4.59-3.84,1.59-6.52,2.54-8.19,1.31-1-.75-.85-1.72-2-2.29-1.93-1-4.68.72-5.89,1.47-4.35,2.71-3.91,5.15-6.56,5.73-3.33.74-7-2.48-7.7-3.11-1.5-1.33-1.2-1.7-2.45-2.62-3-2.22-5.58-.53-8-2-2.74-1.6-3.07-5.74-3.44-10.48-.51-6.49,1.11-7.11.49-12.62-.24-2.09-.55-2.67-3.28-11.14-2.28-7.08-3.42-10.62-3.44-11-.15-3.05.68-4.75,9-21.14,2.71-5.32,2.93-5.73,3.28-6.88,2.08-6.75-.12-9.49,2.29-15.07.74-1.7,2.2-5.08,5.57-7,4.64-2.7,8.15,0,10.65-2.46s-.35-5.5,1.15-12.45c1.44-6.68,5-8.51,3.77-11.8-1.15-3-4.42-2.15-6.56-5.57-2.41-3.87-.75-9,.66-13.43a39.05,39.05,0,0,1,5.9-11.3,60.66,60.66,0,0,1,17.36-16.55c5.26-3.3,5.65-2.42,28.51-11,11.19-4.19,14.61-5.72,18.35-9.34a30.07,30.07,0,0,0,8.84-14.9c2.21-9.91-3.22-13.58,0-19.33,3-5.33,7.86-2.55,16.06-10.16,5.25-4.88,4.53-7.21,9.5-10,4-2.27,7.45-2.37,9.34-5.73,1.52-2.7.34-4.43,1.8-5.57,2.43-1.89,6.07,2.61,13.27,2.62,3.53,0,6.41-1.06,10.16-2.46,4-1.49,6-2.23,6.88-3.44,1.43-2,1.55-5.58-8.85-23.59C190.76,77,187.81,75,185,74.08c-4.75-1.63-6.52.41-12.13-2.13-4.6-2.08-5.39-4.36-11.46-7.21-4.2-2-6.29-2.95-8.52-2.45-5.65,1.24-5.43,9.12-11,10.48-3.59.88-8.18-1.32-9.5-4.42-1-2.33.27-4.21,4.75-13.44,4.85-10,6.17-13.53,6.72-15.07.87-2.45.82-2.68,3-10.48,2.79-10.26,4.95-17.44,9.33-24.25,1.81-2.8,3.92-5.43,5.9-5.08a3,3,0,0,1,1.8,1.31c2.1,2.8-.17,5.82,0,11.47a22.5,22.5,0,0,0,2.79,10c.44.82.6,1,4.42,5.9,4.85,6.24,5.07,6.6,5.9,7.21,4,2.94,6.93-.51,11.3,2,3.65,2.06,5.15,6.14,5.9,8.19,1.35,3.68.53,5,1.64,9.34a27.48,27.48,0,0,0,3.93,8.84c5.18,7,17.27,6.73,26.71,6.55,11.22-.2,17-2.52,21.95,1.48a12.93,12.93,0,0,1,4.42,6.06c1.16,3.7-.55,5.46.66,8.19,1.31,3,4.43,3.36,8.84,5.57,2,1,8.16,4.09,11.47,9,5.16,7.67.13,14.88,6.39,23.92.71,1,1.35,2.94,3.11,3.61,1.55.58,2.92,0,8.19-2.13,5.5-2.18,6.61-2.54,7.7-2,1.68.87,2.46,3.44,2,5.41-.28,1.1-1,2.3-4.75,4.42a44.47,44.47,0,0,1-13.27,4.91c-4.77.84-5.34.15-7.37,1.31-2.68,1.53-3.85,3.95-6.06,8.52-2.34,4.82-3.5,7.23-2.46,9,1.56,2.69,6.88,3.35,8.68,1.48.6-.62.32-1,.82-1.8,1.33-2.11,4.92-1.78,12-2s7.66-.61,8.19-1.15c1.61-1.6,1-3.63,3.6-7.53a12.66,12.66,0,0,1,1.64-2.13c5.49-5.39,18.07-1.09,19.83-.49,2.55.87,3.83,1.31,4.58,2,5.07,4.44.07,12.35,3.93,22.61.75,2,3.23,8.57,9.34,10.81,3.67,1.35,9.05,1.29,11-1.47,1.75-2.51-1.14-4.68-.66-12.29a19.07,19.07,0,0,1,2.79-9.34,9.53,9.53,0,0,1,2.95-3.27c3.26-2,7.42-.54,10.32.49A30.86,30.86,0,0,1,379,162.88c3.94,4.53,2.87,5.77,6.06,8.51,3.89,3.34,8.3,3.94,14.42,4.76,4.47.59,9.88,1.32,16.54-.5,5.08-1.38,11.86-3.23,12.94-7.53,1.63-6.44-9.36-18.86-20.8-21-2.49-.46-6.77-.76-8.19-3.61-.27-.53-.57-1.41.16-6.55.88-6.22,1.6-6.91,1-8.35-.31-.73-1-1.87-9.5-4.43-4.71-1.42-7-1.83-12-3.44-3.5-1.13-5.27-1.71-5.89-2.29-4.29-4-1.86-12.94-.17-19.17,1.46-5.38,2.91-10.44,7.54-14.42a17.74,17.74,0,0,1,7.7-3.93c2.34-.51,5.58-1.21,7.7.49,2.88,2.32.52,6.57,3.44,9,2.06,1.73,3.9.14,7.7,2.13,1.85,1,2.39,1.86,4.58,3.94,2.4,2.26,5.2,4.92,8.52,6.55,4.31,2.11,8.86,2.19,14.58,2.29,4.66.08,5.11-.43,6.23.33,4.59,3.11,2.45,15.45,1.8,19.17-.89,5.14-2.28,8.76-.16,11.47a6.48,6.48,0,0,0,3.77,2.29c3.51.58,5.19-2.84,8.51-2.13a5.1,5.1,0,0,1,3.61,2.95c1,2.54-.89,5.45-2.62,6.88-2.82,2.32-7.38,2.48-9.34.49-1.53-1.55-1.18-4.11-1.31-4.1s.54,4.2.65,9.51c.08,3.39-.14,4.89,1,6.55s2.28,1.85,3.77,2.78c2.77,1.75,4,4.09,6.22,8.36s1.66,4.82,4.92,14.74c2.25,6.88,3.26,8.86,2.45,12-.88,3.39-4.42,4.34-3.93,6.07.57,2,4.82,1,6.55,3.76,1.12,1.78-.07,3.06,0,7.38.06,3.06.12,6.58,2.13,8.68s4.15,1.17,11.47,2c4.69.51,7.7.84,11.14,2.13A29.93,29.93,0,0,1,504,235c1.11,1.25,2.5,3.53,5.24,8,5.87,9.64,7,12.56,11,15.56,2.49,1.89,2.41,1,5.57,3.11,9.54,6.34,9.36,13.71,17,17a16.9,16.9,0,0,0,7.38,1.31c3.81-.1,7.51-1.42,20.8-9.17,4.82-2.81,6.88-4.12,8-3.28,2.09,1.53-2.54,7.41-.16,11.63,3.61,6.42,20.65,4.08,22.93,3.77,4.08-.56,8.27-.4,12.29-1.31a10.8,10.8,0,0,1,4.91-.16,9.54,9.54,0,0,1,5.08,2.78c2.49,2.82.83,5.45,2.46,8.68,2,3.92,7.87,6.93,11.14,5.41,3.45-1.61,1.81-7.25,6.06-22.12,1.12-3.91,1.68-5.87,2.29-6.88,6-9.9,19.85-6.95,22.29-14.25.27-.84-.42-4.38-1.81-11.47-1.1-5.61-1.6-6.79-2.62-7.21-3.14-1.29-7.29,6.19-10.16,5.08-2.17-.84-1.08-5.62-2.13-15.4-1.15-10.78-3.22-12-1.63-15.23,2.88-5.83,10.34-3.11,15.72-10.32,2.63-3.52,4.63-9.21,2.63-13.27-1.63-3.29-5.08-3.89-4.76-5.25.45-1.88,7.42-1.88,12.29-1.14,4.61.69,7.52,1.13,8.68,3.27,2,3.58-3.44,7.33-1.8,12,1.58,4.46,7.85,4.66,7.87,7.54,0,3.12-7.37,5-7.05,6.22.41,1.62,12.29-3.39,21.79,1.64,5.76,3.05,11.16,10.06,10.65,16.55-.29,3.74-2.37,5-1.48,7.37,1.69,4.48,9.68,1.86,14.26,7.05,4.32,4.9,4,14.93-.33,19.33-1.57,1.6-3.42,2.19-3.28,3.27.27,2,6.56.77,10.49,3.93,6.78,5.47,2.63,20.88,4.26,21.14,1.36.22,3.22-10.75,6.55-10.81,1.17,0,1.35,1.32,4.42,4.91,3.6,4.21,5.49,4.84,7.38,8.52,1,1.88,1.8,3.52,1.14,4.42-1.57,2.14-9.09-3.34-12.45-.65-2.31,1.85-2.21,7.24.17,10.16,3.13,3.85,10.47,3.68,14.08,3.6,3.44-.08,5.24-.66,5.9.33,1.22,1.81-3,6.58-4.91,8.84-7.45,8.8-13.57,19.23-15.89,24.91-5.95,14.54,2.63,23.41.65,45.38-.53,5.89-.68,8.89-1,14.9s-.45,9.09-.16,10.82c1.18,7.24,5.55,9.92,10.48,16.87,2.1,2.95,8.87,12.5,9.67,23.59.57,7.92-2.49,8.61-7.05,26.87-2,8-3,14.31-4.42,23.1-2.85,17.72-1.8,19-4.43,27.36s-4.24,9-6.71,18.18c-1.9,7-3.17,11.75-3,18.19.26,7.47,2.14,5.7,6.88,24.41.86,3.4,1.59,6.6,4.42,9.33.44.43,4.47,4.22,10,3.94,2.73-.14,4.79-1.23,8.35-3.12,4.2-2.22,4.16-3.14,6.39-3.6,3.73-.77,4.35,1.71,9.34,2,4.68.24,5.79-1.86,11.3-1.31a21,21,0,0,1,4.59,1c5.43,1.84,8.52,5.74,10.32,7.7,5.33,5.77,7.63,3.38,21.79,11.79,9.62,5.72,8.31,6.68,15.4,10.32,1.76.91,8,4,21.3,6.89,12.67,2.73,17.21,2.13,29.81,3.93,15.94,2.27,14.18,4.22,27.36,5.89,12.88,1.64,16.38.37,22.94,3.94,7.76,4.22,6.68,8.07,14.25,11s11.16-.15,18.84,3.77c5.61,2.86,5.26,5.27,9.5,6.23,2.4.53,5.81.51,17.21-5.74,10.54-5.77,10.19-7.16,15.23-9.17,7.93-3.16,15.13-2.26,22.74-1.31,15.37,1.93,24.7,7.94,28.54,3.77.61-.67,1-1.55,5.4-7.38,1.61-2.14,2.22-2.91,2.79-2.78,1.82.41-1,8.93,3,12.94,2,2,5.72,1.91,13.1,1.64a64.51,64.51,0,0,0,15.9-2.13c8.41-2.3,8.82-4.37,13.92-5.08,7-1,10,2.45,18.19,4.92,4.73,1.42,5.81.9,35.06-.5,17.06-.81,18.38-.72,22.77-1.63,4-.85,3.94-1.15,20.8-6.23,13-3.93,15.76-4.55,19-5.08a101.85,101.85,0,0,1,17-1.15c12.34,0,12.51,1.4,22.61,1.48a157.92,157.92,0,0,0,29.49-2.46c4.3-.87,8.51-2,13.76-.49,4.77,1.35,6.73,3.79,10.32,6.23,4.88,3.31,7,2.7,24.25,6.22,23.36,4.76,20.2,6,27.2,6.06,6.25,0,12.1-.94,16.71,2.95,2,1.67,2.89,3.53,6.06,5.08a16.5,16.5,0,0,0,9,1.47c4.88-.58,5.58-3,11.47-5.57,6.42-2.85,6.68-.5,14.25-3.44,4.8-1.86,6.36-3.45,12.78-5.57,3.82-1.26,5.72-1.89,6.88-1.47,4.46,1.62,2.89,9.26,9.34,18.51,2,2.87,3.57,5.05,6.22,5.57,3.55.69,4.89-2.39,11.63-5.73,8.8-4.36,10.86-1.26,17.37-5.57,1.49-1,3.77-2.73,6.22-2.13,2.23.54,2.85,2.56,4.26,2.29s1.51-2.79,3.77-5.9a17.41,17.41,0,0,1,3.93-3.76c4.6-3,9.46.42,17.86.65,3.68.1,2.52-.57,13.27-2.29a207.05,207.05,0,0,1,20.81-2.3c7.36-.41,6.19.11,17.2-.32,10.83-.43,11.2-.91,14.74-.33,6.61,1.08,8.93,3.31,13.27,2.13,3.69-1,4.24-3.22,7.54-5.57,10.35-7.37,26.76-1.11,29.65,0,3.88,1.48,7.4,3.77,14.42,8.35s11.1,8,14.91,10.82c6.58,4.92,7.77,4.78,26.54,15.4,26.84,15.18,33.88,20.83,41.44,17.85,2.08-.81,5.77-2.9,8.36-1.31s1.34,4.71,4.26,8.69a17.08,17.08,0,0,0,7.53,5.4c3.81,1.64,4.76.76,11.47,2.62,5.73,1.59,6.89,2.74,7.37,3.28,1.92,2.15,2.11,4.81,2.3,8,.43,7.48-2.19,9.1-.82,13.76.18.63,1.86,6.07,5.73,7s6.07-3.23,10.82-2.29c1.92.38,4.4,1.64,4.58,3.28.33,3-7,5.91-6.71,6.55s9.67-4.51,12.94-1.48c.85.8,1,1.83,1.15,3.12,1.54,10.21,5.5,11.78,5.4,20,0,4-.07,6-1.31,7.38-4.24,4.86-14.21-1.71-21.62,3.76-3.34,2.47-2.37,4.56-6.07,6.56-4.15,2.24-8.72,1.39-13.59.49a29.75,29.75,0,0,1-11.31-3.93c-5.3-3.36-4.4-5.72-10.65-11.47-3-2.74-7.41-6.73-14.09-8.36-2.07-.5-4.38-.55-9-.65-7.82-.17-11.79-.21-14.25,2.13-1.69,1.6-2.06,3.58-2.78,7.53a36.25,36.25,0,0,0,.65,15.24c1.16,5.13,2.05,9.07,5.57,12.29,2.18,2,3,1.12,4.75,2.95,3,3.11,1.78,6.31,3.93,12.94,1.41,4.32,2.08,3.41,3.61,7.86a30.82,30.82,0,0,1,1.8,14.09c-.31,2.34-1,5.09-4.59,11.63a142.64,142.64,0,0,1-9.83,15.24c-8.12,12.19-3.2,20.35-9.66,50.46-1.14,5.29-1.44,5.35-2.79,11.47-3,13.64-3.51,20.74-5.73,21s-2.54-5.91-9-9.82a18.26,18.26,0,0,0-6.39-2.3c-2.22-.36-5.78-.94-7.86.82-2.44,2-1.86,6.41-1.48,9,2.66,18.27,7.86,23.55,4.92,28.67s-9.88,2.71-13,9c-1.74,3.59.08,5.27-2.13,10.81-.83,2.11-2.53,6.39-6.39,8.36-2.83,1.45-5,.69-9.82.33-11.08-.83-11.06,2.29-19.17,1a101.06,101.06,0,0,1-14.58-4.1c-2.74-.91-4.7-1.64-7.54-1.47-1.64.1-7.4.44-9.17,4.59s2.71,9.35,3.27,10c3.91,4.47,7.72,3.56,9,6.88,1.61,4.12-2.31,10.55-5.24,10.49-1.78,0-2-2.45-5.24-5.9-.85-.91-7.81-8.13-13.6-6.06-3.27,1.17-4.52,4.71-4.59,4.91-1,3.09.37,5.6,2.13,10.16,1.42,3.67,4.25,11,4.43,17.69a29.94,29.94,0,0,1-2.46,12c-9.09,24.85-5.78,45.14-13.76,47-4.8,1.13-10.25-5.22-10.81-5.9-1-1.18-2.2-3-4.92-13.27-2.59-9.83-2.84-13.32-6.22-15.73a8.2,8.2,0,0,0-5.57-1.63c-3.19.42-4.62,3.22-6.07,4.26-6.78,4.86-23.63-19-29.16-15.9-1.8,1-1.87,4.4-2,8.85,0,1.11,0,4.79,2,11,1.94,6,3,5.87,4.59,10.65,1.31,4,3.88,11.84.33,15.72-2.6,2.84-7.35,2.33-10.65,2-2.27-.24-11.83-1.28-17.53-8.52-8.35-10.62-.92-25.08-8.85-30.14-.54-.35-3-1.92-5.4-1.15-3.51,1.12-4.51,6.43-4.59,6.88-1.11,6.36,3.71,9.08,2.95,15.56-.34,2.94-1.49,3.74-3.11,7.21-5.9,12.63.31,21.26-5.08,28-3.19,4-7.21.68-12,5.24-4.29,4.1-3,7.89-6.56,9.66-3.16,1.59-5.88-.6-15.07-3.6-9-2.93-8.22-1.45-15.89-4.1-10.6-3.66-10.58-6-18-7.2-6-1-7.2.33-11.8-1.48s-5.57-4-10.48-5.08c-2.21-.48-5.41-1.17-8.68.49a11.27,11.27,0,0,0-5.41,6.72c-.5,1.76-.5,3.49.16,6.72,1.41,6.87,3.22,7.93,4.26,12.45.27,1.16,2,9.11-1.8,16-2.23,4.08-4.82,5-5.57,9-.61,3.28.68,6.43,1.15,7.69,1.63,4.42,4.15,6.38,3.6,7s-3.35-1.1-8-3.11-4.64-1.46-10.33-3.61c-9.74-3.68-10.58-5.59-13.76-4.91s-5.12,3.2-8,7a27.41,27.41,0,0,0-5.74,12.45c-1.1,6.89,1.52,10.16-.49,12.29-2.67,2.83-9.58-3.82-13.11-1.31-2.44,1.74-1.77,6.56-.65,14.58,1,7.24,2,8.53,3.11,15.89,1,6.72,1.47,10.15.49,14.42-1.41,6.17-4.26,6.89-6.88,12.45-6,12.68,1.52,24.54-3,27-3.44,1.91-7.78-5.17-15.72-3.77a15.29,15.29,0,0,0-9,5.74c-4.18,5.23-5.75,13.95-2.13,17.69,4.47,4.62,13.54-1.8,19,3.44,2.88,2.77,3.76,7.83,2,10.16-2.88,3.72-12.73.61-13.6.32-4-1.29-4.51-2.57-5.9-2.13-5.51,1.75-6.81,24.62,2.13,30.15,2.61,1.61,5.15,1.17,6.55,3.6,2.31,4-1.77,10.14,0,11.31,1,.68,2.83-1.2,3.77-.49,1.6,1.2-2.3,7.63-.65,9,1.23,1,4-2.12,6.22-1.15s1.32,5.11,3.28,12.12c1.13,4,2.14,7.66,5.08,10.32,4.46,4,8.27,1.26,11.14,4.43,4.41,4.87-3.05,13.22,1.47,23.1,1.75,3.82,2.73,2.25,5.24,6.88s2.68,8.24,5.57,22.93c.84,4.25,1.28,6.26,2.95,7,3.66,1.72,9.48-4.21,10.32-3.28.67.74-3.3,4.11-5.57,10.32-1,2.71-1.2,4.76-1.63,8.85-.66,6.24-1.12,10.5,0,14.74,1.74,6.69,5.53,6.38,9,13,2.67,5,2.06,8.31,2,26.7-.06,11.72-.1,17.59.17,19.33a60.41,60.41,0,0,0,13.92,30c4.7,5.71,9.45,11.48,12.78,10.32,6.54-2.26,3.09-29.57,2.46-34.57-1.91-15.11-4.57-17-3.77-27.19.42-5.39,1.57-20.17,11.3-24.9a14.74,14.74,0,0,1,12.29-.33c4.45,2.1,6.1,6.38,8.52,12,7.87,18.17,7.78,13.13,12.45,25.72,1.47,4,.57,2,8,27.36,3.46,11.76,5.19,17.64,5.89,19.66,2.74,7.79,4.22,10.6,5.41,17,1.07,5.76.46,6.7,1.8,11,1.28,4.07,3.13,10,8.19,13.44,5.4,3.69,9,.86,13.11,4.58,4.84,4.36,3,11,5.73,11.64,3.34.81,5.17-9.48,14.42-15.08,6.85-4.14,9.85-.93,20.48-4.75,3.17-1.14,11.7-4.2,18.35-11.63,9.21-10.29,6-19,14.25-23.1,4.44-2.17,7.09-.51,12.94-4.09,1.94-1.19,7.22-4.43,7.38-8.85.12-3.48-3-5.61-5.25-8.19-5.78-6.67-3.09-13.49-4.42-27.85-.81-8.75-2.16-23.23-10.16-37.36-3.82-6.75-7.61-10.67-6.71-16.71.69-4.64,3.61-6.87,9.33-12.61,6-6,17.54-17.61,25.4-31.29,5.35-9.33,4.26-11.39,8.35-14.25,8.28-5.81,16.46,0,25.39-5.57,6-3.8,8.26-10.2,10.16-15.73.9-2.62,3.4-10.7-.16-33.59-2.11-13.53-3.33-12.94-5.08-25.55-2.41-17.39-3.51-26.19,1.64-31.29,3.94-3.91,9.66-4,13.76-10.82,1.52-2.55,2-4.74,3.28-4.75,2.07,0,2.3,6.2,6.22,13.27,1.7,3.07,6.25,11.27,14.75,13.6,5.85,1.6,11-.29,13.27-1.15,2.54-1,8.08-3.55,16.54-15.56,9.83-14,11.32-23.17,16.22-23.1,1.88,0,4,2.15,8.36,6.39,3,3,3.36,3.93,7,8,6.31,7,7.13,6.24,8.68,9.17,3.58,6.77.5,13.37,2.3,14.09,2,.82,7.82-4.61,9.83-11.8,2.5-9-2.62-14.25.82-18,2.86-3.13,9.48-2.82,13.43-.32,2.13,1.34,3.3,3.21,5.08,6.06a25.37,25.37,0,0,1,3.2,7.29C1753.7,1328.35,1754.66,1332.22,1752.83,1333.91Z"/><path d="M40.68,905.66c-2-1.2-5.36-3.14-8-1.8a3.29,3.29,0,0,0-1.8,1.8c-.61,2,2.16,3.78,5.89,8s3.8,5.72,8.52,10.81c3.87,4.18,4.63,4,4.92,3.94,1.69-.69,1-6.93-.49-11.31a22.6,22.6,0,0,0-2.46-5.08A20.77,20.77,0,0,0,40.68,905.66Z"/><path d="M17.41,905.17c-.68.46-.19,2.52,1.31,6.39a99,99,0,0,0,10,19c8.33,12.86,10.69,17,16.71,21.95,2.59,2.13,5.85,4.77,7.53,3.77,3-1.79-1.2-13.87-2.13-16.55-1.8-5.18-3.55-10.21-8-15.07-3.77-4.09-5-3.2-12.46-9C22.27,909.36,18.62,904.36,17.41,905.17Z"/><path d="M119.48,981.19c-2.86-2.7-6.81-2.38-7.87-2.29-1.53.12-5.8.46-6.88,3.27-.71,1.85.24,4,1.31,5.24,3.41,4,10.51,1.53,11.63,1.15,1.55-.53,3.48-1.18,3.94-2.78C122.18,983.74,120,981.64,119.48,981.19Z"/><path d="M125.54,989.05c3,.14,5.16,4.05,7.53,8.36,2.66,4.81,1.87,5.24,4.1,8.35a36.22,36.22,0,0,0,6.72,6.88c3.4,2.7,4.83,2.9,4.75,3.77-.21,2.11-8.86,4.64-14.75,1.15a15.16,15.16,0,0,1-3.27-2.95c-5-5.22-7.94-8.83-9.83-11-6.58-7.45-11.53-9.9-10.82-11.3s5.5,1.38,11.14-1.15C123.6,990.07,123.92,989,125.54,989.05Z"/><path d="M225.31,1043.93c-2.76-3.53-9.59-2.69-10.81-.24-1.13,2.25,2.37,6.1,4.42,8.35,1.66,1.83,2.6,2.86,3.69,2.71C225.12,1054.39,228.22,1047.66,225.31,1043.93Z"/><path d="M235.14,1041.23c.89-.55,2.07-.47,8.84,2.21,4.17,1.65,4.62,2,5.9,2,2.91,0,3.61-1.73,6.88-3,4.15-1.54,8.05-.66,12,.25a28.29,28.29,0,0,1,8.85,3.68c1.59.94,2.57,1.53,2.46,2-.26,1-5.76-.27-14.5,0a76.74,76.74,0,0,0-8.85.73c-6.78,1-7,2-10.56,2-4.77,0-11.57-1.63-12.54-5.41A4.28,4.28,0,0,1,235.14,1041.23Z"/><path d="M320.9,1119.62c-3.73-3-10.08-5.61-12.53-3.19a4.53,4.53,0,0,0-.74,4.67c.74,1.81,2.48,2.29,11.55,4.91,5.11,1.48,6.2,1.8,6.64,1.23C326.71,1126.06,324,1122.12,320.9,1119.62Z"/><path d="M407.89,1118.15a10.87,10.87,0,0,0-4.91-2.71c-4.72-1-10.61,2.19-11.06,5.66-.31,2.36,2.17,2.89,6.63,8.6,5,6.34,5.08,9.73,9.59,12,1.35.69,4.1,2.1,5.9,1,3.57-2.22.58-12.64-1.23-17.2A17.44,17.44,0,0,0,407.89,1118.15Z"/><path d="M301,1124.05c-4.81-1.34-10.78,2.1-13.77,6.38-5,7.21-3,18.69,3.77,23.92,4.29,3.34,9.39,3.3,11.8,3.28,3.87,0,7.93-1.88,15.89-5.57,9.56-4.44,10.76-6,11-7.54.36-2.62-2.07-4.94-3.94-6.71-6.48-6.18-11.79-3.81-19.66-10C303.29,1125.62,303.06,1124.62,301,1124.05Z"/><path d="M334.09,1138.63c10.64-2,16.79,3.73,27.52,2.45,3.43-.4,5.91-1.35,6.23-.65.45,1-3.8,4.26-8,6.22-2,.93-10,4.63-18.68,1.64-5.32-1.83-10.67-6.09-10-8.19C331.42,1139.24,332.65,1138.89,334.09,1138.63Z"/><path d="M495.46,1214.64c.19.52,5.55-2.49,13.6-2.46,2.8,0,5.95.4,17.69,4.43,9.09,3.12,13.64,4.68,16.71,6.22,14.06,7.06,19,15.57,22.61,13.6,2.29-1.26,2.39-5.9,1.47-8.85-1.32-4.26-5.14-6.17-12.78-10-5.42-2.71-8.13-4.06-12-4.1-3.37,0-4.9.94-9,.5-3.17-.35-4.89-1.21-7.53-2.13-1.64-.58-9.52-3.33-16.88-2.79C501.37,1209.66,495.25,1214.08,495.46,1214.64Z"/><path d="M760.53,1319.16c-.9,1.57,1.15,3.68,5.16,10.82s3.39,7.57,6.14,12.28c1.57,2.67,3.11,4.83,13.52,16.22,7.58,8.3,11.42,12.48,13.76,14,2,1.32,14.69,9.34,20.64,4.67,3.26-2.56,3.38-8,3.44-11.06a25.16,25.16,0,0,0-2-10.08c-4.78-11.81-15.49-19.86-20.89-23.83a75.59,75.59,0,0,0-23.84-12C773.66,1319.31,762.34,1316,760.53,1319.16Z"/><path d="M777,1354.8c.79.79,1.19,1.16,2.71,2.7,6.06,6.13,6.72,7.32,6.63,8.6-.15,2.28-2.59,3.8-3.19,4.18-3.84,2.39-9.43,1.16-12.78-1.72-3.14-2.7-3.73-6.32-4.42-10.57-.9-5.5-.65-13,1.47-13.52C769,1344.12,770.13,1347.86,777,1354.8Z"/><path d="M862,1378.63c.9.17,7.5,1.53,10.32,6.88,2.12,4-.54,5.32.49,13,.81,6,3.42,12.5,4.43,15,1.59,3.93,2.79,6,2,6.88-.27.27-1.31,1-7.86-2.71-7.39-4.13-11.08-6.19-14.25-10.56a30.18,30.18,0,0,1-5.41-15.24c-.53-4.75-1.1-9.76,2-12.28C856.2,1377.53,859.91,1378.23,862,1378.63Z"/><path d="M917.31,1434.17c.72-.84,3.79,1.7,11.55,5.16s11.5,3.92,13.27,7.62c.72,1.5,1.34,4,.25,5.16-1.83,2-7.49-.73-9.59-1.72a33.75,33.75,0,0,1-10.56-8.36C921.4,1441.1,916.32,1435.33,917.31,1434.17Z"/><path d="M942.87,1430.48c-1.52,2.19,6,9.72,9.09,12.78,4.46,4.45,6.75,6.68,9.83,7.13,4.13.6,7.64-1.45,11.06-3.44s6.19-3.61,6.14-5.65c-.06-3-6.08-5-13-7.38-2.32-.78-7.53-1.67-17.94-3.44C944.81,1429.94,943.4,1429.72,942.87,1430.48Z"/><path d="M991.28,1439.33c-1,0-2.85.13-10.81,6.14-4.92,3.72-5.64,4.74-6.15,5.9a11,11,0,0,0-.24,7.62c1,2.44,3.18,4.45,16.95,8.85,11.24,3.58,15.65,4.12,19.42,7.86.52.51,2.15,2.2,4.91,4.91,3,3,4.55,4.46,5.16,4.92,3.76,2.81,8.22,2.62,15.48,2.21,8.13-.46,12.2-.68,14.75-3,5.29-4.69,4.23-13.26,3.68-17.69-.49-4-2.22-11.56-5.16-11.8-2-.16-2.48,3.36-7.12,7.62-1.34,1.23-6.17,5.67-12.54,6.14-3.26.25-5.82-.81-10.81-2.94-9.58-4.1-14.39-6.16-16.95-11.06-2.86-5.48-.4-9.7-4.43-13.27A10,10,0,0,0,991.28,1439.33Z"/><path d="M1055.91,1485.77c4,1,8.1,6,10.32,12,2.4,6.57.49,8.76,3.69,14.49,1.81,3.27,3.8,5,3.44,5.41-.63.68-7-4.06-11.31-7.62-6.26-5.15-6.15-6.07-11.06-10.07-8-6.52-14.53-9.21-14-10.57s5.65,1.6,10.32-1.23c1.56-.94,2.85-2.39,5.4-2.7A9.59,9.59,0,0,1,1055.91,1485.77Z"/><path d="M1066.72,1473.73c-.12,3.74-2.31,4.71-2.21,9.1a9.5,9.5,0,0,0,1.72,5.89,9.37,9.37,0,0,0,8.6,3.2c2.07-.31,2.51-1.16,8.11-5.16,5.16-3.69,5-3.11,7.86-5.41,5.09-4,4.49-4.88,7.87-6.88,3.74-2.21,4.76-1.35,8.84-3.93,2.21-1.4,4.18-2.68,5.66-5.16a14,14,0,0,0,1.72-8.11,18.11,18.11,0,0,0-4.43-10.57c-3.3-3.92-5-2.81-9.34-6.88-2.69-2.54-6.91-6.51-6.88-11.55,0-4.51,3.46-7.88,1.72-10.07-.4-.52-.54-.28-2.21-1.48-1.92-1.39-2.34-2.15-3.93-3.44a12.55,12.55,0,0,0-3.93-2.46c-2.48-.75-4.23.63-7.37,1.72-6.66,2.32-8.75-.41-13.76,2a15.45,15.45,0,0,0-6.15,5.41c-2.6,4.08-1.31,7-1,19.9.24,9.52-.4,10.31.74,14,.67,2.18,2,5,4.67,10.57C1066.09,1470.81,1066.79,1471.57,1066.72,1473.73Z"/><path d="M1084.91,1400c-1.78.36-5.22,2.21-12.05,5.9-5.4,2.92-6,3.41-7.61,3.44-4.88.1-10.23-4.19-10.08-7.86.09-2.17,2-2.62,6.15-7.13,3-3.35,7.47-8.21,6.14-11.06-.84-1.79-3.78-2.45-5.9-2.21-4.47.5-6.47,5.11-7.86,4.42-1.06-.52-1.17-3.82.24-6.39,1.8-3.28,4.55-2.56,9.34-6.63,3-2.59,2.8-3.61,4.92-4.42,4.33-1.68,8.93,1.21,9.33,1.47,2.93,1.9,3.08,3.84,5.66,7.62,5.86,8.58,11.78,8.28,13.27,14.74.17.76,1.09,4.74-1,6.88S1090.49,1398.87,1084.91,1400Z"/><path d="M1080.48,1339.81c-.53.7-1.37,2.16.25,11a91.74,91.74,0,0,0,4.67,17c2.74,7.16,4.16,10.74,6.63,11.06,1.91.24,2.5-1.55,7.62-4.67,5.49-3.34,6.44-2.27,8.36-4.42,2.77-3.14.52-5.13,3.68-12.54,1.52-3.56,2.37-5.55,4.42-7.62,1.67-1.68,2.89-2.16,3.2-3.68.45-2.25-1.5-4.79-3.44-6.14-2.59-1.82-4.71-1.22-10.81-1.48-7.23-.31-6.89-1.27-12.54-1.23C1086.54,1337.15,1082.49,1337.18,1080.48,1339.81Z"/><path d="M1112.18,1229.22c2.73-.6,5,1.08,9.59,4.43,2.89,2.12,4.93,3.66,5.16,6.14a6.68,6.68,0,0,1-1.72,4.67c-3,3.57-9.36,4.6-14,2-1-.56-5.13-3.12-5.41-7.86C1105.55,1234.32,1108.49,1230,1112.18,1229.22Z"/><path d="M1206.79,1190.15c-.89-.34-2.15,2.84-6.63,7.37a24.53,24.53,0,0,1-5.9,4.92c-1.26.68-3.26,1.52-12.29,2-8.19.4-10.18-.12-12.53,1.72a9.29,9.29,0,0,0-3.44,6.39c-.23,3.16,1.64,4.44,3.19,8.6,1.43,3.8,1.45,6.94,1.48,10.57.06,8-2.35,12.38,0,14.25.61.49,1.47.57,3.19.74a18.43,18.43,0,0,0,7.87-1c5.21-1.91,8.28-6.68,10.56-10.32,2.6-4.15,1.49-3.88,6.89-16,1.75-3.94,2.92-6.32,4.42-10.56a69.1,69.1,0,0,0,2.46-8.61C1206.56,1197.87,1208.1,1190.64,1206.79,1190.15Z"/><path d="M1143.39,1236.35c-3-.47-4.43-.71-5.9-.25-3.5,1.1-6.56,5.37-5.65,7.87,1.63,4.45,16.57,5.19,18.92.49.91-1.81,0-4.62-1.47-6.15C1148.08,1237.1,1146.52,1236.85,1143.39,1236.35Z"/><path d="M1064.51,1555.81c1.69,1.67.36,5.87-1.72,8.36-2.53,3-7.25,4.8-9.09,3.19-1.09-.95-.87-2.81-.74-3.93a9.62,9.62,0,0,1,6.63-7.87C1060.49,1555.3,1063.17,1554.49,1064.51,1555.81Z"/><path d="M1050,1593.16c3.1-.13,5.37-.23,7.13.74,2.73,1.5,2.95,4.85,4.18,10.81,2.54,12.43,4.52,12.29,4.91,20.15.3,6,.52,10.59-2.21,12.78-4.74,3.8-14.8-1.84-19.42-5.4-2.64-2-9-7-9.33-14-.14-2.94.94-2.51,3.44-11.06,2.36-8.1,2.22-11.36,5.16-13C1045.24,1593.37,1046.83,1593.3,1050,1593.16Z"/><path d="M1051.24,1582.1c.26,1.4-1,2.7-2,3.69-5.47,5.5-6.53,4.92-8.35,7.37-2.72,3.66-3,8.49-4.92,12.54-.12.26-.36.74-.83,1.69-1.43,2.9-1.52,3-1.62,3-.84,0-2.08-5.26-1.72-11,.23-3.87.9-3.33,1.47-8.85.44-4.2.18-5.72,1.48-7.62a9.65,9.65,0,0,1,4.91-3.44,11.78,11.78,0,0,1,8.36,0C1049.11,1579.84,1051,1580.62,1051.24,1582.1Z"/><path d="M1011.92,1609.38c1.48,1,2.57,1.74,3.2,3.2,1.26,2.93-.54,6.1-1,6.88-2.53,4.45-8.73,7.58-12,5.65-.89-.52-1.07-1.12-3.19-7.13-2.52-7.14-3-8.4-2.21-9.58,1.07-1.6,3.53-1.66,6.14-1.72A16,16,0,0,1,1011.92,1609.38Z"/><path d="M1183.45,1800.57c3.48-.07,8.43,5.79,6.88,10.32a5.06,5.06,0,0,1-2.46,2.95c-3.55,1.65-9-2.31-11.06-6.64-1.25-2.58-1.63-5.91-.49-6.63.8-.51,1.83.59,4.42.49C1182.28,1801,1182.54,1800.58,1183.45,1800.57Z"/><path d="M1141.92,1814.57c.73.12,0,3.34,1.23,9.1.85,4,1.79,5.26,1,6.63-1.35,2.27-6.22,2.78-7.62,1-.69-.89-.26-2,1.72-7.61C1140.92,1816.06,1141.4,1814.49,1141.92,1814.57Z"/><path d="M1168.7,1848c-2.74,2.4-1.21,7.92,1,10.81a8.12,8.12,0,0,0,3.93,3c.55.18,2.78.91,4.42,0,2.59-1.44,2.53-6.14,1.48-9.1a8.27,8.27,0,0,0-4.43-5.16C1173.35,1846.79,1170.48,1846.44,1168.7,1848Z"/><path d="M1158.14,1819.73c-.59.71,2.26,3.36,6.63,9.34,6.93,9.48,5.37,10.47,10.32,15.73,3.17,3.36,5.52,4.77,7.87,9.09,2.12,3.92.9,5,2.45,6.39,4.32,3.86,11.89-4.22,22.86-1.72,1.42.33,3.42,1,5.4,0a7.12,7.12,0,0,0,3.69-7.62c-.8-3-4.29-4.21-7.86-5.4-9.67-3.24-12.66.2-19.17-2.71-2.77-1.23-1.13-1.36-11.06-9.83a98.86,98.86,0,0,0-11.8-8.84C1165,1822.59,1158.93,1818.78,1158.14,1819.73Z"/><path d="M1353.25,1816.79c-13.18,10.9-15.32,15.17-16.21,17.2-1.53,3.49-.64,3.33-2.71,8.6a69.5,69.5,0,0,1-8.35,15,89.84,89.84,0,0,1-9.83,11.3c-8,8-10.73,8.37-10.82,11.31-.14,5.34,8.8,9.6,16,13,5.4,2.58,8.16,3.84,10.81,2.7,4.63-2,2.31-8.38,7.13-14.74,6-7.93,14.18-4,20.64-12,3.48-4.32,1.17-5.53,5.41-16.22,3.67-9.25,6-9.77,10.32-20.15,3.75-9,5.58-13.53,3.44-17.94-2-4.14-6.88-6.8-11.31-6.88C1365.78,1807.9,1363.42,1808.37,1353.25,1816.79Z"/><path d="M1382,1899.85c-.46.14-7.55,2.45-9.1,9.33-.87,3.88,0,9.35,3.2,11.06,3,1.58,5.15-1.54,13.27-2.21,5.13-.42,6.56.64,8.11-.74,2.83-2.52,2.14-9.71-1.72-14C1392.22,1899.35,1386.53,1898.45,1382,1899.85Z"/><path d="M1403.38,1808.68c-2.19.85-2.63,6.4-3.44,17.44-.83,11.55-.41,16.67-.24,18.43a95.2,95.2,0,0,0,1.72,10.82c2.32,11.67,3.63,18.22,7.37,25.8,3.49,7.06,6.09,12.34,12.29,15.48a23.91,23.91,0,0,0,15.73,1.72,20.09,20.09,0,0,0,10.32-5.4c5.39-5.54,5.46-12.79,5.4-14.75-.15-5.26-2.19-5.81-6.63-16.71-4-9.69-3.17-11.3-6.64-17.2-.65-1.12-1.37-2.23-8.35-10.57-8.32-9.93-12.08-14-17-18.43C1405.78,1808,1404,1808.45,1403.38,1808.68Z"/><path d="M1359.64,1752.16c5.71.44,9.53,3.62,14,7.37a38.74,38.74,0,0,1,10.08,13c2.38,4.76,4.42,8.82,2.7,12-1.26,2.36-4,3.17-8.11,4.43a43,43,0,0,1-11.8,1.72c-8.76.2-13.57.31-18.67-2.71a19.05,19.05,0,0,1-7.62-7.86c-4-8-.35-16,0-16.71A20.35,20.35,0,0,1,1359.64,1752.16Z"/><path d="M1246.36,2047.78c2.81-1.78,7.69.57,9.58,3.93,1.69,3,.71,6.31.26,7.81-.54,1.81-1.24,4.17-3,4.73-2.83.92-7.43-3.35-8.6-8.11C1244.09,2053.93,1243.74,2049.44,1246.36,2047.78Z"/><path d="M1162.56,2083.91c-1.81-.76-5.78,2.77-6.64,6.88-.6,2.92.25,6.71,2,7.12s4.19-3,5.16-5.65C1164.2,2089.11,1164.25,2084.61,1162.56,2083.91Z"/><path d="M1146.1,2117.08c4.42,1.92,6,6.21,6.38,7.37.72,2,2,5.54,0,7.87s-6.55,2.51-8.84.24c-1.17-1.16-.59-2.33-1.48-2.95-2.7-1.87-9.81,7.14-12.53,5.65-2.42-1.32-2-11.38,4.18-16.21C1134.1,2118.82,1140,2114.41,1146.1,2117.08Z"/><path d="M1148.55,2078.74c-3.49-.21-3.15,7.93-11.3,17-3.12,3.46-6.94,6.45-7.62,11.8-.14,1.1-.31,2.62.49,3.19,2.34,1.67,10.56-6.25,14.5-10.57,5.46-6,9.35-10.37,8.36-15.48C1152.5,2082.16,1150.74,2078.88,1148.55,2078.74Z"/><path d="M1122.75,2110c-1.56-1.43-8.33,2.21-12.29,7.62-1.15,1.57-4.26,5.83-3.44,11.06.32,2,1.52,6,3.93,6.39s4.83-2.94,6.39-5.16c.87-1.23,2-3.06,5.16-16.22C1123.07,2111.31,1123.26,2110.42,1122.75,2110Z"/><path d="M1084.17,2087.59c5.46-.63,9.61-1.11,12,1.23,1.82,1.75,1.91,4.36,2,5.9.18,5.11-2.52,7.56-9.34,18.18-4.78,7.45-5.09,8.78-7.62,10.08-4.83,2.47-12.27,2-14.5-2-1.7-3,.14-7.08.49-7.86,1.59-3.52,3.49-3.07,5.16-6.15,2.62-4.81-1-7.75,1.72-13a12.46,12.46,0,0,1,5.66-5.41A14.61,14.61,0,0,1,1084.17,2087.59Z"/><path d="M1023,2135.51c-4.54.89-6.86,4.94-8.11,7.13-1.49,2.6-3.86,6.76-2,10.81a9.67,9.67,0,0,0,9.59,5.16c7-.93,9.16-11.28,9.83-14.5.63-3,.3-4.41-.25-5.4C1030.45,2135.78,1026.13,2134.9,1023,2135.51Z"/><path d="M992,2145.34c-.59,1.77-.29,4.21,1,4.91,2.1,1.16,6.22-2.81,7.13-3.68,5.45-5.26,4-9,9.33-14.25,2-2,4.76-4.77,8.36-4.67,2.1,0,2.83,1,6.88,1.72,2.67.44,4.15.69,5.9.24,2-.5,3.2-1.63,6.88-5.65,5.38-5.88,4.78-5.67,6.39-7.13,4.84-4.39,6.63-3,9.34-6.38,2.48-3.09,2.86-6.58,3.44-11.8.49-4.49.77-7.05-.5-10.08-.17-.41-3-6.91-8.35-7.61-3-.4-6.16,2.1-12.29,7.12-5.6,4.59-8.4,6.89-10.07,10.57-1,2.24-.27,1.75-2.71,9.58-1.22,3.95-1.67,4.91-1.22,6.39,1,3.37,4.86,3.54,5.16,6.39.2,1.94-1.35,4.15-3,4.43-1.75.29-3.57-1.71-4.92-3.2-1.68-1.85-1.82-2.88-2.7-2.95-1.3-.1-1.7,2.07-3.93,4.43-3.19,3.36-5.51,2.26-7.38,5.16-1.58,2.45-.09,3.52-1.72,6.38-.71,1.27-2.53,2.67-6.14,5.41C993.51,2143.27,992.52,2143.81,992,2145.34Z"/><path d="M1058.12,2064.74c-2.5-.71-4.92,1.11-5.41,1.47-3.6,2.7-3.46,7.55-3.44,8.11.25,5.54,5.21,11.14,10.57,11.06,2.4,0,5.62-1.22,6.64-3.69.33-.8.51-1.94-3.2-9.58C1060.33,2066,1059.41,2065.1,1058.12,2064.74Z"/><path d="M968.43,2078c-8.1,8-7.45,6.84-8.61,8.35-3.17,4.17-2.28,5.25-6.14,13.27s-5.18,7.88-7.86,14.5c-1.71,4.21-3.18,7.95-3.2,13,0,3.93,0,10,4.18,13,4.73,3.42,11.41.58,12.78,0,5.2-2.21,11-7.75,10.32-13-.67-4.94-6.39-4.63-9.09-11.31a18,18,0,0,1,1.72-16c.84-1.27,2.85-3,6.88-6.39,6.25-5.3,6.73-5,8.6-7.13,4.25-4.87,6.9-12.32,4.67-14.5-1.5-1.45-4.91-.27-6.39.25C973.25,2073.17,971.56,2074.91,968.43,2078Z"/><path d="M985.63,2067a22.27,22.27,0,0,1,5.9-11.06c2.23-2.5,5.19-5.81,8.84-5.41a7.62,7.62,0,0,1,4.42,2.46c3.26,3.15,3,6.41,4.92,12.29,1.8,5.45,2.59,4.33,5.41,11.55,2.23,5.74,3.35,8.61,3.19,12.53a23,23,0,0,1-3.69,11.06c-2.39,4.06-5.12,6.31-10.56,10.81-4.13,3.41-3,2-13.27,9.34-4.51,3.26-5.89,4.38-8.6,4.92a16,16,0,0,1-10.32-1.72c-1.14-.61-6.75-3.59-8.11-9.83-1.46-6.69,3-12.17,3.93-13.27,2-2.41,2.75-2,7.12-6.39a69.27,69.27,0,0,0,5.41-6.15c3.09-3.95,4.64-5.93,5.41-8.11C987.46,2074.76,984.47,2073.28,985.63,2067Z"/><path d="M1013.89,2042.13a25.38,25.38,0,0,0-2.46,13c.75,13,10.07,16.31,9.34,28.26-.16,2.53-.72,4.84.49,5.66,2.16,1.44,8.07-3.1,11.79-7.13s2.74-4.68,10.33-17.69a116.38,116.38,0,0,1,7.61-12.05c2.15-2.87,2.79-3.37,3.94-5.4,1.9-3.37,2.65-6.41,3.68-12.53,1.53-9.09,2.29-13.64,2-15.24-1.42-7-5.76-7.43-7.37-15.73-.91-4.66-.15-7.64-1.48-8.11-1-.35-2.67.94-7.86,8.36-5.52,7.87-5.66,9.3-9.34,14.5a127.42,127.42,0,0,1-12.29,14.5C1017.32,2037.65,1015.65,2038.65,1013.89,2042.13Z"/><path d="M1062.54,1968.9a9.32,9.32,0,0,1,6.15,3.19c3.13,4,1.14,9.72,0,13s-2.26,6.53-5.41,8.11a10.34,10.34,0,0,1-11.06-1.72c-4.5-4-3.35-10.19-3.19-11.06C1050.21,1974,1056.49,1968.3,1062.54,1968.9Z"/><path d="M1095,1739.13c1.82-.65,3.41,2,12,10.32s10.06,8.53,13.52,13.27c3,4.15,6.2,8.64,6.14,14.75,0,.74-.15,8.34-3.68,9.58-1.92.67-4.25-.73-14.75-11.79-12.1-12.75-13.43-15.54-14.25-17.94C1091.37,1749.66,1091.91,1740.23,1095,1739.13Z"/><path d="M1038.71,1684.33c-6.07,8.78-15.63,6.86-22.61,16.22-2.72,3.65-5.69,9.87-3.44,13.76.93,1.62,2.59,2.39,5.9,3.93,6.56,3.07,9.31,2,11.3,4.67,2.18,2.9.49,6.26,2,6.88,2,.87,4.39-5.9,11.3-8.6,3.79-1.48,7.66-1.22,11.3-1,5.88.39,6.88,1.81,9.83,1,3.72-1,7.75-4.85,8.11-9.09.46-5.42-5.51-6.32-12.28-17.94-2.76-4.72-3.16-7-6.39-9.58-.36-.29-6.81-5.42-11.8-3.2A7.63,7.63,0,0,0,1038.71,1684.33Z"/><path d="M1024.7,1729.55a10.09,10.09,0,0,1,5.65,3.44c2.73,3.56,1.52,8.39,1,11.06-.86,4.3-2.3,5.56-3.93,12.28-.6,2.49-.41,3.36-.73,3.44-1,.24-3.8-6.77-5.66-14.25-1.45-5.87-3.49-14.1-.49-16C1021.63,1728.86,1023.14,1729.2,1024.7,1729.55Z"/><path d="M1017.08,1627.81c3.75-2.26,10.07,1.91,13.52,4.18,6.55,4.32,10.11,9.28,15,16.22,5,7.16,7.55,10.83,7.37,15-.25,5.67-4.15,12.14-8.6,12.53-6.27.55-12.4-11.09-13.52-10.32-.68.47,2.36,4.36,1,8.11-.66,1.79-2,2.75-4.18,4.18-7.11,4.71-10.67,7.06-12,7.37-8.5,1.91-14.33-5.48-17.2-3-1.48,1.3-.82,4.63.49,11.3,1.62,8.28,3.24,10.07,2.21,13.52-1.15,3.82-3.58,3.13-6.14,7.37-3.52,5.82-.4,9.52-3,19.91-.65,2.62-2.51,10.16-5.41,10.32-2,.1-2.52-3.28-6.63-8.85-3-4-3.67-3.56-12.54-12.78-3.93-4.08-5.91-6.16-6.63-7.61-.8-1.61-1.59-3.84-2-15.73-.19-6-.28-8.93,0-11.31.66-5.55,1.37-11.53,5.65-14.74,2.57-1.93,3.6-.74,7.13-3,.84-.53,7-4.36,7.13-9.83.12-4.45-3.77-7.69-6.64-10.07-5.76-4.8-9-3.83-17.2-8.36-4.41-2.43-12.7-7-12-11.06.58-3.57,7.94-5.67,13.27-5.65,1.06,0,4.53.11,10.81,3,7.12,3.22,7.4,5.24,14.75,9.58s7.4,2.48,18.18,8.11c6.17,3.23,8.4,5,10.32,3.93,2.15-1.21,1.35-4.58,3.44-13.76C1015.32,1629,1016.54,1628.14,1017.08,1627.81Z"/><path d="M998.9,1627.57c-.77-.36-6.17-2.87-10.08,0-1.59,1.17-3.54,3.67-3,5.89.67,2.52,4,2.51,9.34,5.16,8.14,4.06,10,8.91,12.53,7.87,2.33-1,3.09-6.1,1.72-9.59-1.08-2.78-3.53-4.53-7.86-7.61A16.38,16.38,0,0,0,998.9,1627.57Z"/><path d="M1006,1724.63a4.48,4.48,0,0,0-4.91,1.48c-.72,1-1.25,2.69,1,8.35,1.44,3.66,5.37,13.62,8.85,13,2.18-.37,3.83-4.82,3.44-8.36-.42-3.76-2.84-3.63-5.65-10.32C1007.85,1726.72,1007.46,1725.23,1006,1724.63Z"/><path d="M1063,1832.27c1.7-.6,9.4-3.31,14,1.23a9.34,9.34,0,0,1,2.71,8.11c-.72,3.49-3.52,3.44-4.18,6.39-1,4.6,5.31,6.87,5.9,13.76.35,4.15-1.51,8.62-3.44,8.84-1.31.15-2.37-1.66-6.15-8.11-6.56-11.19-6.54-11.13-6.88-11.79-7-13.65-5.68-16-5.16-16.71S1061.31,1832.87,1063,1832.27Z"/><path d="M1073.36,1873.8c3.85,2.58,4,7.93,4.17,16.46.15,6.16.18,9.61-2,10.81-2.94,1.65-7.77-2.17-8.11-2.45-2.17-1.76-3.28-4.23-5.41-9.09-2-4.66-3-7-2.7-9.1a9.79,9.79,0,0,1,6.63-7.62A9.42,9.42,0,0,1,1073.36,1873.8Z"/><path d="M970.88,2054.42c-2.52-2.8-13.29-.38-16.46,6.39-2.2,4.69-.43,10.81,1.23,11.05,1.3.2,1.43-3.43,5.16-6.39,4-3.2,7.46-1.79,9.58-4.91C971.63,2058.73,972.12,2055.79,970.88,2054.42Z"/><path d="M591.71,2192c-2.27.77-5.79,2-7.87,5.41-1.21,2-2.66,6-1,7.61s5.6.17,7.86-1.47c4.72-3.41,6.25-10.66,4.43-12C594.53,2191.07,593.59,2191.39,591.71,2192Z"/><path d="M628.08,2145.34c1.63-.07,1.82,2.75,5.89,6.14,2.68,2.23,3.49,1.75,6.64,4.18,2.18,1.69,4.49,3.47,5.9,6.39,2,4.08,1.13,8.27.49,11.55-1.23,6.26-3.38,6.54-3,9.83.7,5.34,6.59,6.16,6.63,10.81a7.76,7.76,0,0,1-5.65,7.13c-2.52.54-4.6-1-8.35-3.69a26.2,26.2,0,0,1-7.38-7.62c-1.62-2.6-3.52-5.64-3.44-9.58.11-4.71,2.94-5.14,3.2-9.34.35-5.74-4.83-7-5.65-13.76C622.69,2151.51,625.71,2145.44,628.08,2145.34Z"/><path d="M498.57,2214.39c-4,1.82-8,6.38-7.13,10.57a6.79,6.79,0,0,0,2.71,3.93c4.06,2.84,10,.09,11.3-.49,5.22-2.4,5-5.29,10.32-7.62,4.33-1.88,7.55-1.33,7.62-2.21.13-1.53-9.62-3.41-11.06-3.69C505.36,2213.54,501.81,2212.9,498.57,2214.39Z"/><path d="M494.39,2188.1c-2.17.9-1.64,8.73,1,15,1.22,2.92,2.38,5.68,5.4,7.62,2.66,1.7,6.85,2.84,10.32,1.23,2.32-1.08,2.18-2.38,6.15-7.87,4.52-6.26,6.81-7.5,6.39-10.07s-3.1-4.06-4.18-4.67c-5.12-2.9-11.92-1.37-14.75-.74-2.18.49-4.34,1.23-7.12.49C495.63,2188.56,495.15,2187.79,494.39,2188.1Z"/><path d="M547.23,2136.49c1.1,4.46-2.17,7.2-3.69,12.78-2.07,7.59,1.2,12.71-1.23,14-1.58.84-4-.75-5.16-1.72-1.71-1.5-2-3.07-3.68-10.32-1.53-6.42-1.67-6.63-1.48-7.62.89-4.56,5.32-7,8.11-8.6,1.69-.95,3.8-2.09,5.41-1.23A3.8,3.8,0,0,1,547.23,2136.49Z"/><path d="M498.08,2159.1c3.88,2.18,5.09,2.32,10.81,4.92,7.74,3.51,8.87,4.78,9.59,5.89a15.94,15.94,0,0,1,2,5.66c.68,3.15,1.27,5.93,0,7.12s-3.77-.58-9.34-1.72c-6-1.22-6.91.24-14.74-1-4-.62-6-.93-8.36-2.21-1.48-.8-7-3.79-8.11-9.83-.15-.9-.89-5.08,1.72-8.36,3.15-3.92,9-3.9,12.54-2.7C495.41,2157.32,495.25,2157.52,498.08,2159.1Z"/><path d="M423.87,2111.67a5.7,5.7,0,0,0-5.16,1.23c-1.88,1.72-1.77,4.44-1.72,5.41.19,4.63,3.41,7,7.12,11.79,2.14,2.74,10.62,13.61,7.62,19.42-1.32,2.55-3.57,1.64-5.9,4.91-3.74,5.26-1.41,12.5-1.23,13,1.27,3.74,2.86,3.73,7.87,9.83,2.82,3.44,5.32,7.29,10.32,15,4.65,7.17,5.35,8.77,7.37,9.09,4.09.64,8.93-4.71,10.57-9.83,2.41-7.54-1.61-16.17-7.13-20.15-3.46-2.5-4.81-1.23-8.85-4.18-1.1-.81-7.68-5.62-8.11-12.53-.35-5.73,3.92-6.49,3.69-12.78-.13-3.5-1.64-6.35-4.67-12-2-3.82-2.08-3-4.67-7.62C427.1,2115.31,426.64,2112.45,423.87,2111.67Z"/><path d="M495.13,2152c2.53,1.08,3.8,1.62,4.18,1.72a15.79,15.79,0,0,0,13.27-2.95c2.71-2.27,1.93-3.58,6.39-13.52,3.29-7.33,4.21-7.72,4.17-10.32-.07-5.51-4.29-9.71-6.88-12.29s-5-4-9.83-6.88c-9-5.29-11.8-5.4-12.28-7.86-.81-4.13,6.74-5.91,7.37-12.78a12.63,12.63,0,0,0-5.41-11.06,13.5,13.5,0,0,0-6.63-2,21.21,21.21,0,0,0-11.31,2c-4.36,2.17-6.57,5.29-9.09,8.85-3.58,5.06-5.7,8.06-5.16,11.79.78,5.29,6.5,9.17,11.06,10.57,6.77,2.08,10-1.58,14.5,1.47a11.37,11.37,0,0,1,4.67,9.1c0,1.23-.26,2.2-2.21,6.39-3.55,7.59-4.9,9.09-6.39,13.51s-2.26,6.68-1.23,8.6C485,2147.54,485.93,2148,495.13,2152Z"/><path d="M515.28,2049.75c2.7.77,4.28,3.14,9.59,16.22,4.5,11.08,4.25,11.55,6.14,14.74,3.73,6.28,5.54,5.88,11.06,13.27,4,5.31,11.12,14.9,8.11,20.4-1.21,2.2-2.71,1.3-6.15,4.42-4.25,3.86-3.32,6.47-7.86,12.78-3.5,4.87-4.38,3.77-7.13,8.11-3.91,6.18-3.44,10.49-5.65,10.81S518,2147,518,2143.37c0-.72.1-1.7,3.44-7.61,2.85-5,3-4.77,3.45-6.15,1.16-3.78.28-7.25-.5-10.32-.7-2.78-1.11-4.42-2.45-6.14-.47-.6-1.85-2.25-8.36-4.92-6-2.47-7.31-2.07-9.83-4.17-1.08-.91-3.88-3.24-3.93-6.39,0-2,1.08-2.66,2.95-6.15,2.09-3.9,3.63-6.79,3.19-9.83-.56-3.89-3.79-3.94-4.91-8.35-.45-1.78.1-4.24,1.23-9.09,1.58-6.84,2.42-10.29,4.42-12.05S512,2048.82,515.28,2049.75Z"/><path d="M484.81,2045.82c9.06,1.19,13.88-4,16.46-1.48.91.89.61,3.63,0,9.09-1,8.85-2.41,10.91-3.44,12a12.55,12.55,0,0,1-4.17,3c-3.5,1.72-5.62,1.25-12.05,1.72-8.08.6-9.44,1.7-11.3.25-2.45-1.91-2.62-5.8-2.21-8.11.51-2.88,2.39-2.42,4.67-6.88A15.43,15.43,0,0,0,475,2048c0-2-.54-2.75,0-3.44C476.19,2043,480,2045.18,484.81,2045.82Z"/><path d="M697.13,2102.09c2.35,6.09,1.12,7.09,3.19,11.8,2.74,6.19,5.37,5.58,7.38,11.05,1.93,5.28,1.07,10.19.49,13.52-.86,4.92-1.38,7.9-3.69,9.83-5.28,4.42-17.42,1.27-23.34-6.39a20,20,0,0,1-3.69-16.46c1.46-5.93,4.95-5.58,6.63-12.29,1.39-5.55-.49-7.84,1.72-14,.76-2.12,2.34-6.53,4.67-6.63C693.38,2092.37,695.91,2098.92,697.13,2102.09Z"/><path d="M754.14,2138.46a3.84,3.84,0,0,1,4.92,1.23c.58,1.14-.35,2-1.73,6.14-1,3.05-.78,3.45-1.72,5.65-.25.59-2.07,4.9-2.94,4.67s.49-4.19.49-12.28C753.16,2141,753,2139.27,754.14,2138.46Z"/><path d="M723.42,2040.16c4.88,4.19,7.62,2.46,14.75,8.11a44.41,44.41,0,0,1,8.11,8.6,60.49,60.49,0,0,1,10.81,24.33c1.9,9.42-.7,7.92,1,20.89,1.49,11.53,4.06,16.7,1.23,24.08-1.48,3.86-4.31,8-6.14,7.62-2.38-.53-2.66-8.64-2.95-8.6s2.5,10.06-2.21,17a11.13,11.13,0,0,1-3.94,3.68c-3.83,2.05-8,1-12.53-.24-4.33-1.15-3.65-2.08-9.58-3.94-1.53-.47-2.18-.61-2.46-1.22-1-2.35,6.09-5.4,7.62-12.29.8-3.62-.17-7.29-1-7.37s-1.24,3.45-3.44,8.11c-2.31,4.87-7,11.82-9.83,11-2.22-.59-2.75-5.69-3-7.61-.61-5.81,1.61-7.35.24-11.06-1-2.8-2.53-2.58-4.91-6.39-.9-1.44-1.68-3.07-3.2-8.6-2.37-8.67-3.56-13-2.7-14.75,2.38-4.83,9.25-3,11.8-8.35,1.23-2.61-.19-3.47.49-8.85.92-7.3,3.84-8.11,3.44-11.55-.82-6.94-13-5.75-17.94-15.23-1.18-2.25-1.2-7.89-1.23-19.17,0-9.57.58-11.37,2-12.29,3.33-2.22,10.12,1.34,14.25,5.16C719.61,2028.17,716.32,2034.05,723.42,2040.16Z"/><path d="M1175.58,1905.5c-1.42-.33-4.15,4-4.91,8.11-1.12,6,1.72,12.86,3.69,12.78,2.43-.11,3.53-10.84,2.45-17.94C1176.56,1906.74,1176.23,1905.65,1175.58,1905.5Z"/><path d="M1195.49,1923.44c-1.89-.19-4.11,7.77-4.92,11.79-1,5-1.58,12.74.25,13.27,1.48.43,4.28-3.91,5.65-7.62C1199.42,1933,1197.48,1923.64,1195.49,1923.44Z"/><path d="M1229.16,1942.36c-2.39,1.87-2.24,6.6.49,8.85s7.09,1.65,8.6-1c1.38-2.42-.24-5.79-2.46-7.37C1234,1941.59,1231.05,1940.87,1229.16,1942.36Z"/><path d="M1231.61,1924.17c2.1,1.81,7.5-.61,9.83-4.17.55-.84,1.46-2.24,1-3.44-.89-2.24-6.48-3.46-9.59-.74C1230.24,1918.09,1229.87,1922.67,1231.61,1924.17Z"/><path d="M1238.74,1890c-.76-8.83-6.08-14.59-10.32-19.17-3-3.21-6.17-6.58-11.55-8.36s-10-.93-15,0c-6.93,1.3-12.28,2.29-14.5,6.39-2,3.69-.41,7.94,2,14.26,3.3,8.8,5.7,8.49,10.32,18.43,3.62,7.8,3.63,11.2,7.61,13.51,3.34,1.94,7.21,1.81,9.59,1.72a24.07,24.07,0,0,0,10.32-2.7C1235.38,1909.59,1239.51,1899,1238.74,1890Z"/><path d="M1212.69,1932.78c2.46-2,7.36-2.5,10.08-.25,6.87,5.68-6.6,23.43-2.22,39.81.48,1.77,1.94,6.43.25,11.55-.91,2.74-2.2,4-3.93,6.63-3.6,5.4-3.62,8.19-6.15,14-3.78,8.73-5.94,7.52-12.53,18.92-5.9,10.22-6.42,15.08-8.84,15-3.25-.11-6.64-8.93-5.9-17,.34-3.76,1.47-6,4.42-12.29,8.33-17.72,2.73-7,9.58-20.89,10.16-20.62,10.28-19.49,10.82-22.36a141.18,141.18,0,0,0,2-23.1C1210.26,1938.75,1210.11,1934.91,1212.69,1932.78Z"/><path d="M1222,2033.28c4.72,0,8,3.51,8.85,4.43,3.23,3.48,5.67,9.76,3.19,15.72-1.86,4.49-6.73,9.36-12,8.6-6.41-.91-9-9.4-9.34-14.25-.3-5.21,1.76-12.2,6.39-14A8.22,8.22,0,0,1,1222,2033.28Z"/><path d="M1232.35,2015.59c-4.9,14.91-4.75,16.32-4.42,17.45,1.4,4.9,7,8.3,11.79,8.84a15.64,15.64,0,0,0,9.34-2.21,102.29,102.29,0,0,0,31-26.29c7.47-10.27,13.68-18.8,16.47-32.19,5.1-24.47-5.54-44.3-9.59-51.86-4.5-8.4-8.65-12.54-10.81-14.49-11-10-19.59-11.19-21.87-11.31a5.25,5.25,0,0,0-2.7.25c-4.45,2.17-2.64,13.3.24,36.37,2.83,22.6,2.93,26.66,1.48,32.44a71.64,71.64,0,0,1-7.87,18.67c-3.59,5.66-8.11,10.62-11.55,19.91C1233.65,2011.64,1233.22,2013,1232.35,2015.59Z"/><path d="M1291.33,1853.65c.52.34-.08,2.16-2,6.88-3.56,8.9-5.38,13.37-7.12,14-5.77,2.1-15.21-7.59-14-10.07.65-1.35,3.91.58,9.09-.74C1285.92,1861.53,1290.13,1852.86,1291.33,1853.65Z"/><path d="M1568.28,2114.13c3.52-3.06,11.24-1.66,15.48,2.46,4.58,4.45,4.17,11.17,3.44,20.89-.21,2.78-1,11.34-6.64,27-3.92,10.91-8,22.33-11.3,21.87-2.52-.35-4.31-7.66-3.69-13.76.73-7.11,4.26-7.9,4.67-14.5.34-5.41-2-5.68-3.44-14.75-.68-4.24-.62-8-.49-15.48C1566.52,2115.91,1567.66,2114.67,1568.28,2114.13Z"/><path d="M993.25,1478.4c6.82,3.5,9.11,2.92,14,6.64,1.83,1.39,3.49,2.65,3.2,3.44-.59,1.57-8.38-.2-14-1.48-7-1.58-8.53-2.64-9.34-4.17-1.17-2.25-.8-5.56.74-6.39C989,1475.83,990.13,1476.81,993.25,1478.4Z"/><path d="M1042.64,1511.33c.91-1.36,7.93.71,12.53,5.41,2,2.09,4.52,5.63,3.69,6.63-1,1.24-6.91-1.57-11.06-5.16C1045.83,1516.51,1041.83,1512.54,1042.64,1511.33Z"/><path d="M376.68,134c3.35.34,4.68,2.53,12.05,10.57,5.43,5.93,6.81,7,6.38,8.6-.77,2.84-6.65,3.93-10.81,3.44-8-.95-12.09-8.06-12.53-8.85s-4.46-8-1.23-11.79C372.55,133.59,376.29,133.92,376.68,134Z"/><path d="M1061.56,2053.92c.23,4.54,1.69,7.92,3.69,12.54,1.83,4.25,2.75,6.38,4.42,7.62,1.35,1,4.44,2.63,15.73,0,6.09-1.42,11.31-2.64,17.69-6.15,11.56-6.36,17.79-15.22,25.56-26.54a156.09,156.09,0,0,0,16-29.49c4.21-10.49,10.34-25.76,10.32-45.46,0-10.86-1.88-15.06-.74-28.75a149.55,149.55,0,0,1,3.45-21.38c4.78-20.35,9.89-23.69,7.61-31.45-1.1-3.79-2.77-4.54-17.44-17-20.16-17.06-22.87-20.59-24.58-25.31-3.11-8.6,1.28-9.66-.74-21.38-1.55-9.07-7.44-17.89-19.16-35.14-9.5-14-11.15-14.73-15-22.61s-6.62-13.58-8.36-22.12c-2.12-10.38-.94-16.55-4.91-18.67-3-1.6-4.79,1.31-12,2-10,.91-13.57-4-19.42-1.47-3.56,1.56-5.19,4.68-7.62,9.34-1.75,3.37-6.83,13.1-3.44,21.87,3.27,8.45,12.64,11.44,11.8,13.27s-10.89-3.8-16.22.24c-6.53,4.95-2.08,21.6-1.23,24.58,1.54,5.36,2.56,5.16,5.65,14.5,2.6,7.82,2.28,9.14,4.43,13.27s5.66,10.86,11.79,11.79c3.94.6,7.74-1.37,9.83-2.46,3.56-1.84,4.12-3.33,6.15-4.42,5.59-3,16.09.37,20.88,6.64,5.44,7.1-.14,13.15-.24,37.1-.06,12.81-.08,19.21,1.47,26.79,2,9.8,5.48,18.17,1.23,23.34-1.69,2-3.23,1-5.16,3.2-3.8,4.39-.18,9.92-3.69,14.74-1.8,2.48-3.21,1.65-6.63,4.18-7.77,5.75-10.52,17.44-8.36,18.92,1.31.89,4.58-1.79,6.88-3.68a38.71,38.71,0,0,0,9.34-11.8c2.9-5.34,3.19-8.08,5.16-8.35,2.2-.31,4.54,2.68,5.66,4.91s2.3,6.28-1.23,17c-2.83,8.52-4.24,7.84-7.38,16.46-3.25,9-2.32,11.33-5.89,17.2-3.71,6.1-5.43,4.7-7.62,9.1-4.52,9.05,2.88,14.76-.49,28.26-1,3.78-1.9,3.8-4.18,10.81C1062.4,2046.4,1061.35,2049.72,1061.56,2053.92Z"/><path d="M977.52,2040.16a6.56,6.56,0,0,0-3.93,2.22,7.47,7.47,0,0,0-2.22,3.68,8.09,8.09,0,0,0,0,3.2c.28,1.65,1,5.71,3.2,6.39,3,.91,6.72-5,7.13-5.66,1.25-2,2.44-4,1.72-6.14A5.87,5.87,0,0,0,977.52,2040.16Z"/><path d="M827.13,2102.34a30.06,30.06,0,0,0-3,11,21.58,21.58,0,0,0,2.7,12.78c1,1.58,4,6.66,10.32,8.36a17,17,0,0,0,12-1.48c7-4,8.82-12.58,9.59-12.28.54.21-.44,4.57-2.46,10.81-3.83,11.77-5.43,11.94-5.16,15.23.67,8.1,11,14.9,19.9,16.71,1.57.33.5-.07,11.06,0,11.69.09,13.54.54,17.28-.49a28.05,28.05,0,0,0,11.64-6.71c5-4.63,7-9.92,10.81-20.32,4-11,3.29-12.85,7-20.48s4.71-6.31,7.21-12.12c4.41-10.23.85-12.93,5.24-25.39.58-1.63,2.41-5.62,6.07-13.6,3.06-6.69,3.84-8.11,5.24-9.83,3.42-4.22,5.11-3.55,10.32-8.35,3.93-3.64,8.82-8.15,8.35-13.27-.25-2.79-1.85-3.19-2-6.39-.1-2.83,1.09-3.85,3.44-8.85,3.25-6.93,2.34-7.89,5.57-13.76,1.28-2.32,1.78-2.83,3.28-5.74,2.44-4.76,3.67-7.14,3.11-8.68-1.43-3.92-10-1.68-12-5.73-1-2.09.61-4,4.59-12.45,5.48-11.66,5.13-13.83,4.58-15.08-1.2-2.76-4.74-1.19-10.81-5.07-2.51-1.61-5.93-3.8-5.73-6.23s4.07-2.39,9.17-7.21a30.66,30.66,0,0,0,6.06-8.35c1.92-3.51,3.14-5.72,2.3-6.88-1.06-1.47-4.43,0-11.64,1.31-8.78,1.61-14.38,2.58-17.53-.33-2.42-2.24-1-4.54-3.6-6.55-3-2.34-5.64.22-11.79-1.48a18.68,18.68,0,0,1-8.52-5.08c-1.43-1.51-3.1-3.28-3.28-5.89-.25-3.61,2.49-6.41,3.28-7.21,2.93-3,5.12-2.23,6.88-4.92,1.5-2.3,1.86-5.88.32-7.21-2.11-1.82-7.13,1.2-8.68,2.13a15.86,15.86,0,0,0-6.88,7.38c-1.12,2.74-.13,3.07-1,7.86-1.12,6.3-3,6.79-3,11.14.06,4.16,1.82,5.24.82,7-1.47,2.64-5.81,1.35-11.14,3.12-4,1.32-9.14,4.55-11.14,8.84-3.62,7.77,6.09,12.49,7,29,.43,7.43-1.33,10,.66,17,1.83,6.48,4.09,7.11,4.26,12.12.17,5.25-2.23,7.1-4.1,15.57a68.11,68.11,0,0,0-1.31,9.82c-.5,5.75-.25,8.12-2.13,10.49-1.33,1.68-3,2.37-5.57,3.44-5.08,2.08-8.32,2-11.3,2.62-4.59,1-7.92,4.15-14.58,10.49-6.41,6.09-5.64,7-13.27,14.9-8.07,8.34-9.57,8-10.65,11.47-2.13,6.92,2.83,11.11-.49,17.37a16.3,16.3,0,0,1-6.07,6.22c-3.55,2.05-6,1.47-8.68,4.1C828.77,2098.54,828.21,2099.82,827.13,2102.34Z"/><path d="M369.07,1570.06a16,16,0,0,1-4.18,9.1c-5.06,5.07-12,3.5-14,8.11-.45,1,0,.84.25,7.86.18,5.67-.12,6.24.24,8.6.66,4.35,2.06,5.08,3.2,8.85,2.51,8.3-.8,16.21-1.23,17.2-2.45,5.62-4.9,5.08-6.64,10.56-.37,1.18-2.34,7.42.5,12.78,1.87,3.55,4.19,3.58,8.35,6.88,9,7.19,5.58,13,14.74,20.65,5,4.16,10.57,7.86,10.57,7.86a31.92,31.92,0,0,1,4.67,3.44c2.28,2.12,5.25,4.88,5.9,8.6.78,4.49-2.73,5.12-3.93,13.52-.38,2.58-.27,4.11-1.48,6.14-1.4,2.36-2.65,2.17-5.16,4.67-3.51,3.5-2.36,5.19-5.9,8.85-2.7,2.79-4.09,2.56-5.16,4.67-.48.95-.64,2.07.74,8.84,1.06,5.18,1.61,7.8,2.7,9.59a14.21,14.21,0,0,0,5.66,5.65c2.94,1.47,5.08.92,7.37,3.19a4.82,4.82,0,0,1,1.72,2.95c.14,1.9-1.53,3-3.69,5.65-1.79,2.2-1.12,2-4.18,6.64-4.09,6.2-4.59,5.44-5.4,7.62-1.65,4.42-.83,10.87,2.7,13.27,3.23,2.18,7.23,0,8.36,2,.36.64.26,1.42-2,6.15-2.83,6-3.62,6.79-3.69,8.84,0,1.24.22,1.79,2.22,6.64,3.75,9.14,3.38,8.54,3.93,9.58,3.13,6,4.73,5.39,6.63,9.83,2.12,4.93.17,5.66,2,11.06,2.34,7,6,6.9,7.37,13.27.84,3.92-.6,3.74.25,9.83.7,5.06,1.93,6.92.73,9.58-.39.88-1.65,2.14-4.17,4.67-3.28,3.29-4.27,3.82-4.43,5.16-.25,2.08,1.85,3.12,3.44,5.41,3.64,5.21.19,10.43,1,20.39.51,6.38.54,9.63,2.7,11.55,2.48,2.21,5.4,1.52,8.6,4.92,1.29,1.37,2.87,3.67,2.21,4.67-1,1.47-5.92-1.31-7.12.24-.8,1,.9,2.79,3.19,7.87,2.49,5.51,2.18,7.17,4.67,10.07,1.71,2,1.86,1.21,3.93,3.44,3.28,3.53,2.82,5.39,6.39,10.08,1.92,2.52,2.2,2.18,3.69,4.42a27.08,27.08,0,0,1,3.44,7.62,43.8,43.8,0,0,1,1,7.62,50.69,50.69,0,0,0,.82,7.45c.63,2.93,1,4.41,2.13,5.08,2.25,1.31,5.12-1.49,6.55-.33,1.14.93.67,3.78-.33,5.9-2.33,5-7.18,5.07-12.45,9.17-3.21,2.51-8.31,6.34-7.86,10.49.27,2.46,2.24,2.83,3.44,6.39s0,5.47,0,8.68c.08,7.24,6.52,8.15,11,18.84a34.49,34.49,0,0,1,2.78,12.29c.27,8.29-3,8.88-2.46,15.89.58,7.71,4.66,8.93,4.1,16.55-.3,4-1.52,5-.82,8,1.14,5,5,4.79,7.05,9.51,2.88,6.54-2.67,11,.65,16.71,1.66,2.85,3,1.63,6.72,6.06,3.12,3.7,2.87,5.35,6.22,9.17,2.49,2.84,4.32,4.92,6.88,5.08,3.56.23,6.33-3.7,8.85-7.21a39,39,0,0,0,5.57-12.12c1.36-4.32,2.29-7.3,2.29-11.47,0-3.68-.73-4.71,0-7.7.16-.65.42-1.5,3-7.21,1.83-4.11,2.15-4.68,1.8-5.24-1-1.59-5,.66-11.14.49a24,24,0,0,1-13.76-4.75c-1.67-1.31-7-5.44-6.71-10.65.08-1.82.75-1.64,4.42-9,2.5-5,2.42-5.55,3.93-7.7,2.74-3.88,4.14-3.74,4.59-5.9.56-2.68-1.44-3.7-3.61-9.5-1.48-4-2.55-6.84-1.47-9.66.93-2.45,2.45-2.21,4.59-5.41,1.1-1.65,3.64-5.45,2.62-8.35-1.46-4.17-8.72-2.16-14.42-8-2.88-3-4.54-7.12-3.6-8s3.5.77,8.19,3.44c5.47,3.12,6.11,4.25,9.5,5.24,2.28.67,2,.17,6.23,1.15,3.45.81,4.65,1.39,6.39.82a6.54,6.54,0,0,0,3.44-3c1.15-2,0-3.5,0-7.21,0-3.36.85-3.58.81-5.73-.11-6.56-8.08-9.55-7-12.13.75-1.85,5.8-2.53,8.36-.32,1.56,1.35,1.75,3.39,2,6.22.52,6.86-1.84,10.46-.16,11.8,1.23,1,2.9-.63,6.71.49a5.08,5.08,0,0,1,2.63,1.31c1.93,2.16.12,5.85,1,6.23s3.17-2.75,4.91-5.9c1.63-3,1.71-4.1,2.95-6.72,1-2.17,2.61-4.26,5.74-8.35,3.75-4.92,4.54-5.48,7.7-9.83,2.72-3.77,3.66-5.45,4.42-7.38a27.29,27.29,0,0,0,1.64-6.55c.65-4.74,1-7.11-.33-9.17-2.41-3.79-8.51-3.78-10.49-3.77-5,0-8.22,2-8.35,1.64s4.63-3.49,11-4.75c3.35-.68,8.19-1,8.35-.33.08.35-.94,1-1.31.82-.84-.53,2.81-5,2.29-10.82a14,14,0,0,0-2-5.89,15.6,15.6,0,0,0-8-6.88c-5.64-1.91-10.93.88-11.3-.17-.15-.41,1-1.37,3.44-3.27a40.55,40.55,0,0,1,3.93-3c.88-.53,3.11-1.74,8.19-2.3,4.85-.53,11.58-.4,11.8,1,.19,1.22-5,1.82-6.23,5.73a8.43,8.43,0,0,0-.16,3.77c.28,1.93,1,2.64,1.8,4.59a17.34,17.34,0,0,1,1.64,8.19c-.21,2.32-.89,2.21-1.15,5.08a20.43,20.43,0,0,0,.33,5.57c.48,2.51.74,3.85,1.8,5.24s1.66,1.31,3,3.11a8.55,8.55,0,0,1,1.47,2.79,7.54,7.54,0,0,1-.16,4.26c-1.37,4.64-7.63,9.38-13.11,16a59.07,59.07,0,0,0-5.89,8.85c-4,6.75-3.78,8.32-3.28,9.17,1,1.67,3.25.9,7.37,3.44,1.72,1.06,3.6,2.22,3.44,3.28-.39,2.61-13,2.33-13.1,4.09-.05.76,2.28.83,4.75,3.12,1.07,1,1.86,2.12,3.44,5.4,1.78,3.71,2.83,6.55,3.27,7.7,3.2,8.28,5.24,7.16,7.54,13.93,1.49,4.39,1.34,7,4.09,10.15.22.26,3,3.47,4.43,2.79,1.63-.79-.9-5.79,1.8-9.5,1.22-1.68,3.47-3.05,4.92-2.46.53.22,1.27.84,2.12,6.23.57,3.57.45,4.63.82,7.37.48,3.5.81,6,2.13,8.68,1.22,2.5,1.69,1.93,5.57,7.54,2.46,3.55,2.93,4.72,3.12,6.06.28,2-.38,2.44-.17,5.24s.92,3.28,1.15,5.57c.26,2.64-.5,3.76-1.15,6.88-1.25,6.09.64,6.82-.49,10.16-1.57,4.64-5.39,3.68-10.32,9.66a21.23,21.23,0,0,0-5.24,11.64c-.36,4,1.17,4.72,2.95,11.79,2.53,10.11.21,11.68,3.11,17.86a27.57,27.57,0,0,0,8.19,10c2.89,2.31,5.46,4.36,8.68,4.26,3.64-.1,5.27-2.85,10-7.21,10.39-9.57,15.25-8,18-14.58,2.06-4.89,1.19-10.07.82-12.28-.88-5.22-2.59-5.48-3.77-11.31a30.8,30.8,0,0,1,0-13.6c1.07-4.4,2.37-4.83,2.78-9a28.07,28.07,0,0,0-.82-9,46.11,46.11,0,0,0-2.78-8.68,73.69,73.69,0,0,0-3.44-7c-2-3.66-2.92-5.49-3.6-6.23-4-4.31-9.33-4.25-9.34-6.55a2.51,2.51,0,0,1,1.14-2,2.81,2.81,0,0,1,2.13-.16c2.74.67,5,3.83,7.87,7,3.75,4.15,4,3.26,5.24,5.41,1.06,1.88,1,2.86,3.11,8,1.19,2.93,1.51,3.36,2,3.76,2.08,1.81,5.81,1.83,8.35.33,2.86-1.68,3.62-4.92,4.59-9a25.31,25.31,0,0,0,.66-7.21,26.84,26.84,0,0,0-1.81-8c-1.91-5-3.36-4.57-4.26-7.87-1.1-4.05,1.06-4.69,1.15-11.47.08-5.82-1.48-7.88.33-10.48a6.62,6.62,0,0,1,4.75-2.79c1,0,3.14.15,3.6,1.31.9,2.26-5.38,6-4.58,7.54.52,1,3.15-.57,5.89.82,2.33,1.18,1.72,3,4.59,5.9,2.55,2.61,3.81,2,5.74,4.58a10.44,10.44,0,0,1,2.13,5.25c.22,2.74-1,4.43-1.81,6.55-1,2.76-.75,4.52-.16,11.63.91,10.89,1.41,16.86,1.64,23.1.24,6.52,0,7.78,1.14,10.16,2.4,4.88,7.9,8.54,9.34,9.5a28.19,28.19,0,0,1,5.57,4.1c1.33,1.34,1.35,1.72,3.61,4.26s2.66,2.61,3.93,4.26c1.88,2.42,2.82,3.63,3,5.07.24,2.68-2,3.53-4.43,8.85-1.36,3-2.06,4.54-1.47,6.06,1,2.56,4.91,3.23,9.34,3.93a50.92,50.92,0,0,0,12.94.33c7.87-.69,11.81-1,15.07-3.77.54-.44,5.63-4.81,4.92-10-.2-1.47-.88-3.07-7.7-9.17-6.39-5.72-6.87-5.27-9.83-8.36a44.72,44.72,0,0,1-8.36-12.61c-2-4.47-3.67-8.44-2.62-13.11a10.38,10.38,0,0,1,3.28-6.06,24.39,24.39,0,0,1,4.91-2.46c2.52-1.1,3.26-1.24,4.43-2.13a10.91,10.91,0,0,0,2.78-3.28c2.49-4.14,6.17-10.26,5.57-17.52a23.14,23.14,0,0,1,.16-6.72c.38-2,.59-3.15,1.48-3.93,2.41-2.13,6.48,1,8.19-.66s-1.61-5.69-.82-12.61c.21-1.84.85-5.07,1.64-5.08,1.25,0,4.09,8,2.62,16-.52,2.9-1.45,5-.49,5.74,1.23,1,4.61-1,6.55-2.79a14.08,14.08,0,0,0,2.79-3.77c3.13-5.57,5.25-9.35,5.4-14.74.08-2.61.12-3.91-.65-5.41-1.86-3.63-5.54-2.89-10-6.88-2-1.8-3.09-3.66-5.25-7.37s-3.56-6.14-4.26-9.5,0-7.17,1.48-14.58,2.3-8.34,3.11-9c3.09-2.58,7.76-1.59,10.65-1,2.72.58,7.61,1.61,10.32,5.57s.55,6.89,3.93,12.29a32.81,32.81,0,0,0,3.77,4.42c2.8,3,5.12,5.5,8.85,7.7a31.72,31.72,0,0,0,6.22,2.79,33.7,33.7,0,0,0,7.87,1.8c7.76.29,16.63-8.41,18.67-17.86.61-2.83.25-5.92-.49-12.12-.6-5-1.72-9.48-3.93-18.18-1.83-7.19-2.76-10.82-3.77-12.62-3-5.39-7.13-8.47-11.79-12s-6.07-2.82-12.13-7.21c-2.91-2.11-3.71-3-5.9-3.76-3.22-1.11-6-.65-11.3.32-4.75.87-8.07,1.51-11.8,3.94a19.14,19.14,0,0,0-4.58,3.93c-1.77,2.12-2.32,3.81-5.24,12.12-1.7,4.81-2.58,7.23-4.43,7.86a3.44,3.44,0,0,1-3.6-.65c-1.09-1.32,0-3.8,1.47-7a66.83,66.83,0,0,1,4.26-7.53c2.06-3.38,3-4.95,4.26-7.37,1.75-3.43,2.06-4.66,2.13-5.9a11.35,11.35,0,0,0-1.31-5.57c-2.65-5.67-5.1-5.62-7.7-10.16-3-5.24-.73-7-4.42-13.27-1.22-2.07-1.73-2.3-3.77-5.73-2.77-4.65-2.57-5.42-4.1-6.72-3-2.53-8.1-3.29-10.15-1.31-1.31,1.26-1.11,3.35-2.63,3.77-.88.24-1.26-.39-2.45-.17-1.49.28-1.83,1.43-2.79,1.64-1.93.43-5.12-2.31-4.75-4.09.5-2.4,7.11-1.43,8.68-5.08.54-1.24.24-2.41-.16-3.93-1.6-6.15-6.84-7.16-7.21-11.8-.17-2.2.78-4.7,2-4.91,2.13-.39,5.67,6.51,6.88,11.3,1.61,6.39,1.64,6.72,1.64,6.72.11,1.36.05,2.18.65,2.62,1.26.91,3.27-1.42,6.06-1.15,1.41.14,2.47,1.08,4.59,3,1.65,1.45,2.68,2.66,7,8l2.13,2.62a48,48,0,0,1,6.06,10.48c2,4.84.76,4.45,2.95,9.83,1.72,4.24,2.42,4.36,3.93,8.36a31.74,31.74,0,0,0,2.29,4.42c1,1.72,1.36,2,1.8,2.13,1.17.28,2-1.07,4.59-2.46a19.25,19.25,0,0,1,2.79-1.14,24.13,24.13,0,0,1,9.17-1.48,23.31,23.31,0,0,1,5.9,1,25.31,25.31,0,0,1,4.91,2.13c8.46,4.39,12.72,6.61,14.26,8a14.51,14.51,0,0,0,3.6,2.79c2.1,1.08,3.06.79,4.42,2,1.73,1.49,1.77,3.32,2.46,3.28s1.45-2.55,1.64-4.59c.48-5.09-1.79-8.25-2.95-11.63-2.45-7.15.22-14.25,3.11-22,2.31-6.14,3.35-5.4,6.56-13.43s2.13-8.6,4.75-13.77c2.46-4.85,5.31-8.09,10.15-13.59,3.47-3.94,3.62-3.61,8.19-8.69,5.27-5.83,7.9-8.75,9.34-11.63,3-6,1.1-7.52,4.43-12.78a29.74,29.74,0,0,1,8-8.19c4.62-3.18,6.49-2.5,8.69-4.91s2.47-5.21,2.29-13.11c-.39-17.2-2.55-21,.49-25.88.29-.48.15-.17,7.87-7.21,9.11-8.32,9.48-8.89,9.82-9.83,2.08-5.6-2.47-8.2-.65-17a21.78,21.78,0,0,1,2.46-6.88c2.24-3.93,4.1-4.09,6.22-8s1.92-6.68,2.95-6.71,2.16,2.41,2.13,4.75c0,2-1,3.47-3.28,6.55-5.36,7.18-5.71,6.75-6.06,8.19-.68,2.85,1,3.43,2.3,11.14.58,3.39.87,5.08.49,6.39-1,3.51-4,3.88-8.85,8.52a44,44,0,0,0-6.22,7.54c-3,4.32-5.07,7.24-6.07,11.14-1.76,6.91,1.19,11.37,1.15,22.6a14.39,14.39,0,0,1-1.31,6.39,16.57,16.57,0,0,1-3.6,4.75,23.64,23.64,0,0,1-4.26,3.28c-5.1,3.24-9.33,9.85-10.65,15.73-1.15,5.1.89,5.24-.33,9-2,6.12-7.45,6-15.24,13.27-2.75,2.55-5.6,6.72-11.3,15.07-4.52,6.61-6.8,10-8.19,14.25s-.9,5.28-2.46,12.62c-1.91,9-2.91,8.68-3.77,13.76-1.45,8.65,1.49,9.24,2.79,27.36a43.14,43.14,0,0,0,2.13,11.47,51.63,51.63,0,0,0,3,6.71c5.6,12.09,3.12,25.48,3,26.38-.84,4.22-1.85,5.51-2.79,11.63-.76,5-2.17,7.35-.82,9.5s3.73,1.81,4.75,4.26c.43,1,.15,1.43-.16,5.74-.38,5.17-.06,5.81.33,6.22,1.42,1.5,3.84-.11,5.24,1.31s-.19,3.65,0,7.21c.23,4.25,2.6,4.33,3.93,9,1.87,6.58-1.82,9.92,1,13.76a8.84,8.84,0,0,0,5.08,3.12c4.48,1.12,8.32-1.36,11.31-3.28,3.68-2.37,6.91-4.45,7.7-8,.71-3.24-1.16-6.86-4.92-14.09-1.91-3.68-3.43-5.94-2.78-8.84a9.17,9.17,0,0,1,2.62-4.26c6.25-7,7.39-7.91,8.68-9.51,3.32-4.11,4.23-8.75,6.06-18,.64-3.25,1-6.19,3-10a54.55,54.55,0,0,1,3.77-5.73c5-7.15,6.48-8.48,6.06-10.49-.13-.62-.43-1.24-4.42-4.42-6.4-5.09-8-5.4-8.36-7.21-.55-3.15,3.64-6.64,6.39-8.19,3.92-2.21,5.42-.76,10-2.79,1.25-.55,8-3.53,8.84-8.68.59-3.42-2-4.17-1.8-8.68.13-2.71,1.23-4.75,3.44-8.85,1.57-2.91,2.11-3.33,4.42-7,3.92-6.27,5.87-9.46,5.57-11.8-.54-4.36-5-4.35-5.73-8.52-.66-3.8,2.78-5.4,8.52-14.74,3.93-6.4,3.16-7,6.55-11.8a51.26,51.26,0,0,1,3.83-4.55c3.08-3.43,4.92-5,6-6.1,6.56-6.84.9-15,7.21-21.79,2.94-3.15,5.31-2.59,8.52-7,1.17-1.63,3.77-5.23,2.62-8.19-1-2.52-3.6-1.86-6.06-5.08a12.93,12.93,0,0,1-2.3-8,17.16,17.16,0,0,1,1.64-6.71c1-2.56,1.75-3.19,4.59-7.7,3.71-5.9,4.43-7.9,5.24-7.7,1,.24,1.56,3.59.66,6.55-1.11,3.64-3.55,3.77-5.9,8-1.25,2.26-2.85,5.17-2,8,1,3.11,4,3.17,6.39,8a9.46,9.46,0,0,1,1.15,3.61c.16,2.44-.92,4.36-2.29,6.55a52.51,52.51,0,0,1-5.41,7.7c-5,5.54-4.1,10.79-7.7,19.33-1.8,4.26-2,2.87-17.37,23.1-7.08,9.32-9.3,12.59-8.84,17,.37,3.58,2.09,4.25,3.77,11.79,1.53,6.89.88,9.9.65,10.82a19.84,19.84,0,0,1-4.09,7.86c-2.08,2.44-3.13,2.42-5.9,5.73-1.58,1.89-2.66,3.21-3.28,5.25-.78,2.59.11,3.29-.33,6.06-.51,3.24-2.24,5.45-4.26,8a21.35,21.35,0,0,1-6.06,5.74c-5,2.94-10.19,2.61-10.15,3.11s4.56-.56,8.19,2a10.5,10.5,0,0,1,3.93,6.06,12,12,0,0,1-.82,7.37c-1.23,3.2-2.89,4.55-4.42,6.55-2.14,2.8-1.51,3.58-5.08,17.53-2.22,8.66-2.75,9.51-2.79,12.78,0,4.53,1,5.65-.16,7.54-2.39,4-8.56,1.68-12.45,6.39-1.7,2-2.1,4.41-2.46,6.55a19.75,19.75,0,0,0,1,9.83c.7,1.9,2.78,7.62,7.87,9.83,2.4,1,2.65.07,7,1.31,4.9,1.38,6.28,3.06,7.87,2.29,1.13-.54,1.6-2,2.13-7.86.86-9.65.08-11.21,1.47-14.25,1.56-3.41,3-2.48,7-7.21,5.39-6.32,3.63-8.94,8.52-14.42,3.47-3.88,4.07-2.25,10.49-8.19,4.25-3.93,4.83-5.43,8.52-7.7a21.53,21.53,0,0,1,8.84-3.6c2.68-.36,3.85.11,6.72-.66a14,14,0,0,0,5.57-2.62c3.19-2.76,1.74-5.68,4.42-12.94,1.94-5.24,3.41-5.64,3.94-9.67.35-2.7-.05-4.48-.66-7.86-1.55-8.61-2.55-14.12-2.46-19.5.14-8.14,2.63-7.11,2-12.45-1-8.1-6.6-9.48-8-19.33a17.78,17.78,0,0,1,.66-9,16.58,16.58,0,0,1,5.57-7.37c4.58-3.41,6.84-1.26,10.48-4.1,3.23-2.51,4.25-6.37,6.06-13.27,1.24-4.68.65-4.83,1.81-8.52s2.64-8.39,6.71-12c3-2.62,9.56-6.5,13.6-3.76,2.5,1.69,3.62,5.65,2.78,8.68-.94,3.44-3.85,3.62-7.86,9.5-2.75,4-2.42,5.47-2.29,5.9.63,2.12,3.32,3.09,6.55,4.26a26.2,26.2,0,0,0,7.21,1.47c4.5.29,4.59-.81,6.55-.16,3.91,1.29,3.19,5.54,8.19,8.35a9.25,9.25,0,0,0,6.07,1.31,9.57,9.57,0,0,0,4.25-2.29c4.8-3.37,14.63-2.21,17,2.13,2.53,4.54-3.3,12.14-4.91,14.25-5.57,7.27-12.54,9.7-11.8,12,.36,1.1,2.16,1,5.57,2.13,4.57,1.56,7.81,2.76,9,5.08,1.34,2.58-.43,5.55-6.06,20.81a6.8,6.8,0,0,0-.49,4.75c1,2.7,3.94,2.88,7.7,6.06,2.15,1.82,4,3.42,4.59,5.57,1.2,4.75-5.4,7.44-11.14,17.53-2.38,4.17-3.45,8.08-5.57,15.89-1.9,7-2.17,10.51-.33,12.12.58.51,1.08.57,3.28,1,8.23,1.54,8,1.94,9.82,2,1.4,0,4.91-.2,10.33-4.26,8.27-6.2,13.43-15.72,20.31-27,12.07-19.84,18.15-26.63,20.48-29.16,5.7-6.18,5.38-4.55,10.32-10.16,5.95-6.76,15.41-17.49,18-31.94.84-4.67.34-6.23,1.8-11.47,2-7.17,4.51-9.86,3.61-14.25-.45-2.17-1.3-2.69-5.08-7.54-7-9-10.57-13.64-10.65-18.18,0-1.55.28-.82,2.78-10.49,1.44-5.55,2.16-8.32,2.3-9.5,1.29-11-5.26-20.12-6.39-21.63-1.26-1.68-3.43-3.56-7.7-7.37-4.76-4.25-6.07-4.89-9-8-2.66-2.82-4.67-5-6.39-8.35-2.41-4.74-1.48-6.47-4.26-12.78-1.47-3.34-2-3.56-3.6-6.72a51,51,0,0,1-4.59-15.07c-1.36-10.54,2.67-12.86.16-22.12a22.47,22.47,0,0,0-3.77-8,23,23,0,0,0-9-6.88c-4.07-1.79-4.88-.81-12.61-2.46-6-1.29-9.16-2-12.45-4.26-3.07-2.15-3.34-3.67-7-8-5.51-6.49-7.88-6.64-11.79-11-6.54-7.24-8.12-15.88-8.68-19-.73-4-2.84-15.57,3.93-26,1.68-2.59,3.56-5.52,7.21-7.7,4.62-2.76,8-1.85,9.83-4.58s1-7.08-.66-10c-3.28-5.6-9-4-21-10.65-8.06-4.44-10.06-7.66-11-10-.34-.87-2.25-5.73.17-9.34,1.63-2.44,4.42-3.06,7.86-3.77,3.73-.76,10.55-2.17,18,1,6.86,2.89,7.95,7,12.29,6.39,3.37-.45,3.48-3,8.35-4.43s7.93.26,9-1.47c.69-1.12-.3-2.23-2.13-7.54-1.45-4.19-2.17-6.34-1.81-8.52a9.43,9.43,0,0,1,3.44-5.89c3.25-2.29,6.45-.28,11.31-.66,4-.31,7.24-2.66,13.76-7.37a57.92,57.92,0,0,0,14.91-14.75c3.12-4.59,2.11-4.69,4.91-9,7.51-11.58,14.8-10.9,20.15-21,1.32-2.48,4.76-8.94,2.3-14.41-1.27-2.81-3.5-4.07-9.18-7.54-4.9-3-9.68-6.17-14.58-9.17-17.57-10.77-18-18.56-29.81-21.14-3-.66-10-1.69-10.82-1.8-8.09-1.18-9.72-1.06-12.94-2-2-.57-5.8-1.86-12.78-7.05-14.47-10.76-13.67-16.78-25.56-23.59-2.9-1.66-3.66-1.71-11.79-6.06-2.11-1.13-6.88-3.71-12.78-7.37-6.24-3.89-7.82-5.32-9-6.56-3.37-3.52-3.16-5.06-5.41-7.21-3.65-3.49-8.2-3.2-16.38-3.6-12.79-.63-19.19-.94-25.56-3.44a42.76,42.76,0,0,1-15.72-11.14c-6.88-7.35-10.84-16.39-12.45-20.15-2.65-6.16-2.29-7.41-4.59-9.83-4.5-4.74-11.2-5.56-18-6.39-7.31-.89-9.21.25-15.73-1.47-4.78-1.27-4.37-2-8.68-3.12-8.29-2.06-11.06.48-17.37-1.14-1-.27-8.51-2.29-12.61-8.52-5.37-8.16,1.26-14-4.26-22.94-2.72-4.38-5.75-5.25-8.36-11.47a30.43,30.43,0,0,1-2.13-8.19c-.42-3.9.22-5.45.17-7.7-.13-5.66-4.5-9.76-12.45-17-6.47-5.91-9.71-8.86-13.93-10.64-3.16-1.34-5.14-1.55-22.28-2.46-11.24-.6-13.25-.66-18.51-1-11.39-.71-17.08-1.06-21.46-1.81-8.51-1.45-10.62-3.07-24.09-7.37-16.18-5.17-14.72-3.35-26.54-7.37s-21.76-7.42-32.27-15.24c-3.44-2.56-5.17-4.28-12.78-10s-11.34-8.52-14.41-10.32c-12.62-7.4-25-9.46-32.11-10.65-1.07-.18-6.15-1-12.95-1.47-8.85-.61-9.27.18-16.22-.33a111.52,111.52,0,0,1-21.62-3.93c-8.35-2.38-11.25-4.28-12-3.28-1.28,1.8,6,10.75,15.4,16.38,4.37,2.63,8.06,3.85,7.86,4.43s-5.07.15-9.5-2.13c-1.63-.85-3.23-1.94-7.37-6.07-5.08-5-8.58-9.27-9.17-10-8-9.74-6.31-9.31-9-11.63-7.78-6.67-13.61-2.92-19.65-9.34-2.85-3-3.87-6.33-5.9-12.94s-1.41-8.21-2.79-14.91c-1.56-7.58-3.74-18.14-12-25.88a28.73,28.73,0,0,0-10-6.23c-.59-.21-14-4.72-20,1.47-3.53,3.66-1.32,7.76-5.73,12-2,1.88-4,2.51-8,3.77a49.65,49.65,0,0,1-18.35,2c-4.13-.34-5.45-1-9.66-.82a35,35,0,0,0-8.52,1.31,40.53,40.53,0,0,0-6.39,2.62c-9.67,4.27-15.93.42-19,4.42-.65.84-.71,3.19-.82,7.87-.22,9-.28,13.57,1.63,15.56,1.38,1.44,1.91.67,8.2,3.93,3.24,1.69,5.59,2.93,5.4,3.77-.33,1.44-7.55-.87-11.63,2.62-2.26,1.94-2.49,5.32-2.95,9.67a38.41,38.41,0,0,0,0,7.21c.57,8,2.29,9.87.82,12s-3.4.62-8,3.27c-3.54,2-3.24,3.36-6.88,5.24-3.14,1.63-3.79.86-6.88,2.46-2.39,1.25-3.81,2.65-6.55,5.41-5.19,5.23-5.15,7-7.54,7.53-2.69.62-3.43-1.47-8.52-2.78-2.61-.67-8.25-2.12-12.45.82-3.63,2.54-4.36,7.09-4.58,8.52-.59,3.68.38,6.35,1.14,9.17,3.87,14.43,2.66,16.2,1.8,16.88-1.85,1.46-4.79-1.37-8.19.65-1.21.72-2.73,2.2-2.62,3.77.12,1.76,2.17,2,3.77,4.42,1.14,1.73,1.25,3.36,1.47,6.56a25.14,25.14,0,0,1-.81,8.84c-1.21,4.24-2.43,4-4.26,8.85-1.31,3.43-2.49,6.54-1.81,10.16.73,3.85,2.72,3.73,3.28,7.7a18.54,18.54,0,0,1-1.15,8.52c-1.11,2.92-2.35,3.92-2,5.89a5.26,5.26,0,0,0,2.78,3.61c2.7,1.29,5-1,6.23,0,2.27,1.73-4,9.76-1.31,13.76,2.38,3.51,11,2.86,15.4,2,3.93-.81,6-2.16,8-1,2.31,1.34,2.39,4.69,2.79,7.37,1.3,8.8,6.68,15,14.42,23.92,2.79,3.22,5.62,5.81,11.3,11,6.95,6.33,6.68,5.34,10,8.85,3.67,3.86,4.63,5.74,6.39,5.57,3.13-.31,2.95-6.53,8.36-9.34.23-.12,4.48-2.28,6.88-.49,1.88,1.4,1.59,4.47,1.15,9.17-.51,5.34-.86,9-3.61,11.63s-4.56,1.3-6.39,3.77c-2.15,2.9.11,5.12-1.64,10.32-1.41,4.2-3.42,4.34-3.44,7.37,0,2.08.93,2.42,2.95,7.38,1.66,4,2.48,6.06,2,7.53-1,2.78-4.19,2-7.7,5.74-.75.79-3.5,3.71-3.77,7.7-.29,4.31,2.61,5.87,1.64,9.5a8.68,8.68,0,0,1-3.44,4.58c-4.38,3.14-8.7.46-10.81,3-1.21,1.42-.66,3.92.49,8.85,1.62,7,2.43,10.48,4.58,12.29,4,3.36,7.66.12,14.26,3.6,3.39,1.79,2.81,2.85,7.53,6.55,2.15,1.69,11.79,9.25,15.73,6.72,3.77-2.42-.41-12.35,2.79-13.92,2.27-1.12,4.64,3.77,11.3,6.38,7.19,2.83,9.06-1.06,20.15,1.32,5.12,1.09,8.77,1.88,12.78,4.58,3,2,3.92,3.59,6.55,3.93,4.25.56,5.85-3,9.5-2.45,4.11.59,8,5.9,7.05,9.17s-5.63,1.89-12.12,6.72c-.71.52-1.79,1.38-7.7,8.19C373.78,1564.39,371,1567.7,369.07,1570.06Z"/><path d="M1104.57,1314.08c-5.35-.11-8.93,7.76-9.34,8.69-1.15,2.6-2.5,5.64-1.15,8,.87,1.55,2.36,1.91,10,3.45,9.91,2,11.18,2.15,12.45,1.14,3.25-2.56,1.77-9,1.64-9.5-1.58-6.53-8-9.61-10.48-10.81A7.58,7.58,0,0,0,1104.57,1314.08Z"/></g></g></svg>