<svg xmlns="http://www.w3.org/2000/svg" viewBox="0 0 1961.34 2534.39"><g id="Layer_2" data-name="Layer 2"><g id="Barbados_Map" data-name="Barbados Map"><path d="M1947.87,1658c-.27,13.6,1,16.91-.33,24.6-.77,4.59-1.62,4.14-3.93,13-1,3.94-2.2,7.84-3.12,11.81-1.2,5.19-1.19,6.06-2.29,7.21-3.22,3.33-7.64.46-11,3.61-1.9,1.79-.94,3.15-3.28,9.67-1.84,5.14-2.47,4.4-3.6,8-2.31,7.39-.24,12.24-3.12,13.93-1.19.7-1.72,0-3.77.66-3.74,1.25-5.64,4.89-5.91,5.41-1.73,3.41-.12,5-.16,15.74,0,3.2-.16,5.1-1.15,7.21-.69,1.48-1.5,2.45-4.42,5.25a90.8,90.8,0,0,1-11.64,10c-4.81,3.39-4.46,2.39-5.58,3.61-3.33,3.63-2.94,8.64-2.13,30a18,18,0,0,1-1.31,8.2c-1.62,3.71-4.57,3.61-5.74,7s.71,5.92-.82,7.21-3.41-.55-6.39.17c-1.94.46-3.65,1.81-5.74,4.92-4.16,6.18-5.35,12.69-6.07,15.58-2.22,8.87-6,7.2-21.81,28.69-6.8,9.24-7.21,11-11.47,14.43-6.71,5.32-9.73,4.06-16.56,9.67-5.65,4.64-3.84,5.72-12.3,14.75-7.66,8.19-10.52,8.78-11.48,13.45-.73,3.6.75,4.37.49,13.11-.13,4.7-.22,7.09-1.47,9.18-2,3.31-4.24,2.89-9,7.06-2.18,1.9-1.49,1.8-6.55,7.53-5.41,6.13-6.47,6.54-8.69,10s-3.47,5.4-3.61,8c-.2,3.74,1.71,5.43.65,9a18.16,18.16,0,0,1-2.45,4.43,51,51,0,0,1-4.1,5.41c-6,6.88-9,10.32-11.65,11.8-1.59.91-6.39,3.63-12.13,3.44-1.07,0-2-.16-4.1-.16-4.52,0-6.79,0-8.36,1-2.92,1.81-1.27,5.37-3.44,11.32s-5.22,5.94-9.34,13.11c-2.25,3.89-1.76,4.61-4.6,12.14s-3.45,7.21-9.18,19.84c-5.32,11.72-5.32,13.18-8.53,17.87-.85,1.25-3.47,4.35-8.69,10.49-6.35,7.5-9.58,11.29-11.63,13.28a106.43,106.43,0,0,1-12.47,10.17c-9.42,6.79-13.14,7.69-14.43,12.29-.83,3-.09,5.55-2.29,7.71-.84.83-1.8,1.28-5.74,2.29-8,2.05-7.86,1.13-9.34,2.14-3.78,2.55-1.92,6.65-6.73,11.63-1.87,2-2.08,1.25-4.43,3.61-4.2,4.25-3.9,6.88-6.55,7.71-.77.24-3.1-.32-7.71-1.48-4.11-1-4.16-1.14-4.92-1.14-3.66,0-6.27,2.79-9.18,5.57,0,0-2.09,2-11.48,9.51s-13.09,4.87-24.26,12.63c-2.92,2-5.82,4.73-11.64,10.16-7,6.53-9.3,9.45-17.38,17.38-4.88,4.79-7.85,7.7-11.64,11-13,11.28-18.13,11.62-32.3,23-3.65,2.92-7.47,6.43-15.08,13.45-13.13,12.08-16.49,16.21-24.1,20.65-1.7,1-5,2.82-9.68,5.9-4.86,3.23-5.62,4.14-9,6.4a89.21,89.21,0,0,1-16.07,8.2c-6.76,2.86-10.15,4.29-15.08,5.24-4.67.9-8.75.84-16.72.66-12.61-.28-13.85-1.41-20.5-.49-5.28.72-10.45,1.5-14.92,5.57-2.92,2.67-2.36,4.37-5.9,9.84-3.66,5.63-5.94,6.68-9.68,11.15-3.59,4.3-2.78,4.9-10,18.86-5,9.63-9.36,17.07-11.47,20.65-3.49,5.9-3.2,5.1-6.07,10-4.88,8.37-5.28,10-12,22.14,0,0-3.34,6.08-9,15.08a54.42,54.42,0,0,1-5.73,7.71c-3.7,4.12-5.54,6.18-7.88,6.56-4,.65-5.82-2.93-12.62-3.12a9.49,9.49,0,0,0-4.09.65,11.54,11.54,0,0,0-4.43,3.78c-2.17,2.45-4.62,3.38-9.51,5.24-5.08,1.94-5.59.82-12.79,2.79-2.79.76-2,.73-10,3.44s-8.37,2.6-10.82,3.77a51.31,51.31,0,0,0-9.18,5.91,104.5,104.5,0,0,0-10.66,9c-7.72,7.56-7,9.44-11.32,11.65-3.65,1.87-5.69,1.3-13.61,2.13-8.08.84-7.73,1.61-17.54,3.11-19.64,3-21,0-28.69,3.78-4.5,2.23-6.64,4.57-12.79,6.22-3.39.92-4.32.63-10.66,1.8-9.13,1.71-9,2.64-12.46,2.8-5.57.24-7.51-2.13-18.2-6.89-8.94-4-8.17-2.58-18.19-6.89s-15.2-6.53-19.19-10.33c-5.06-4.81-9.3-11.64-11.64-15.41a54,54,0,0,1-2.78-4.75c-5-10.42.05-16-3.45-27.06-1.54-4.85-4-8.56-6.39-12.13-3.69-5.52-4.72-5.25-7.55-9.34-6.85-9.92-9.88-24.63-10.65-28.37a13.21,13.21,0,0,0-3.45-7,12.21,12.21,0,0,0-5.9-3.11c-3.66-.74-5,.88-7.54.16-3.3-.95-4.81-4.86-5.74-7-1.55-3.65-6.62-15.62-14.1-21.48-3.72-2.91-9.64-4.29-21.48-7.05-2.22-.51-5.52-1.28-10-2-12.22-1.89-15.14-.44-25.42-2.47-5.52-1.08-8.53-1.68-12.29-3.77-5.69-3.16-5.86-5.73-10.33-7.05-1.29-.38-3.44-.8-14.26,1.64-9.17,2.07-8.41,2.56-13,3.28-6.09,1-8.25.24-18,.49-8.91.24-11.36.54-13.12.82-4.64.74-5.9,1.43-11.15,2.63-8.44,1.92-9.44,1.07-16.23,2.45-12.61,2.59-13,6.29-19.67,5.91-4.51-.26-5.85-2-16.89-8.69-12.71-7.67-19.07-11.51-23.45-12.3-11-2-15.47,3.45-26.06,0-3.49-1.13-5.33-4.53-11.15-6.55-4.49-1.57-4.8-.53-8.2-2-6.06-2.58-6.15-6.32-12.63-9.84a28.78,28.78,0,0,0-8-2.79c-7.08-1.62-9.69-.15-16.07-.81-3.46-.37-10.12-1.07-15.74-5.42-6-4.65-4.85-8.85-12-13.44a30,30,0,0,0-8.68-3.77c-3-.74-3.71-.4-10.67-1.15a61.8,61.8,0,0,1-9.67-1.48,31.08,31.08,0,0,1-8.36-3.27c-4.24-2.54-5.16-4.92-7.71-7.22s-6-4-20.65-4.76c-8.49-.4-12,0-21.65.17a245.87,245.87,0,0,1-28.85-.66c-11.88-1.09-17.81-1.64-24.27-4.43-4.46-1.92-7.57-4-16.23-7.53a91.59,91.59,0,0,0-10.33-3.78c-13-3.64-15.42.24-23.44-3.6-4.7-2.25-6-4.58-13-7.22a62.11,62.11,0,0,0-7.05-2.13c-5.84-1.47-8.75-1.52-14.26-2.46-6.42-1.09-5.6-1.55-12.14-2.79-12.23-2.32-15.44-.81-19.51-4.26a13.64,13.64,0,0,1-4.75-9,12.22,12.22,0,0,1,2.62-8.52c2.16-2.51,4.21-2.34,7.71-4.26,4.63-2.56,7.12-6.24,9-9,3.91-5.77,4.86-11.31,5.73-16.73.68-4.16.68-8.24.66-16.23-.06-23.26-.12-25.59-1-29.83-1.29-6.32-2.23-10.95-5.41-16.24-3.67-6.1-6.44-6.64-27.55-23.61-13.22-10.63-4.34-4.15-11-9.51s-9.52-7-9.35-9.68c.28-4.28,8.55-6.54,8-8-.11-.31-.72-1-7.88,0-8.38,1.13-12.62,1.71-18,4.09-3.88,1.71-4.73,2.75-6.56,2.3-3.25-.79-3-4.66-7.21-8.69-3.53-3.4-9.32-6.1-12.63-4.27-2.38,1.32-1.79,4.07-3.93,4.76-1.87.6-4.1-.9-9.18-5.58-4.44-4.07-7.45-7.25-8.37-8.19a56,56,0,0,0-17.37-11.81c-6.94-3.2-9.21-2.54-19-7.21-5.16-2.45-8.6-4.58-8.37-6.56.3-2.46,6-2.56,6.73-5.9.35-1.66-.9-2.34-2.63-6.23-2.13-4.8-1-5.47-2.62-8.53-2.73-5.1-6.93-5.18-7.21-8.2s5.78-3.91,5.73-7c0-.83-.41-1.41-3.77-4.76-5-5-5.17-4.76-6.06-6.07-.28-.41-4-6-2-10,.51-1,.86-.87,5.58-4.26,3.63-2.62,3.77-2.94,5.9-4.26a24.5,24.5,0,0,1,5.9-2.95c2.82-.9,4.81-1.53,6.23-.66,2.19,1.35.52,4.73,2,10.66.4,1.66,2,8.29,7.54,11.31,1.41.77,3.8,2.08,5.08,1.15,2.6-1.89-4.42-9.37-4.26-22,0-3.07.52-7.57-1.81-12.47-1.29-2.73-2.45-3.46-3.27-3.76-1.82-.67-3.43.26-8.36,2.78-7.78,4-8.74,4.2-9.84,4.26-3.77.21-6.71-1.63-8.53-2.78-2.48-1.57-6.76-4.26-6.72-8.2s4.42-6.67,5.58-7.38c2-1.23,2.72-1,8.52-2.46,8.42-2.13,10.85-3.62,11.8-4.26a15.83,15.83,0,0,0,4.59-4.1c4-6-1-14.3-5.08-28.69-3.78-13.24-1.21-12-3.93-18.69-6.76-16.61-19.08-15.69-33.12-36.73a87.9,87.9,0,0,1-8.37-15.25c-3.76-8.91-3.18-11.79-7.21-22.13-4.71-12.12-6.23-10-7.71-16.73-2.45-11.24,2-16.24-2.62-24.59-2-3.64-3.49-3.86-5.4-8.36-.44-1-2.36-5.69-2.47-13.61s1.77-7.64,1.31-12.46c-.81-8.7-6.93-10.16-9.67-20.49-.26-1-.45-4.89-.82-12.63-1-20.13-1-21.43-2-24.59a92.43,92.43,0,0,0-6.72-14.76c-3.05-5.67-3.29-5-3.93-7-2.45-7.72,3-10.66,3-21.8,0-6.18-1.71-7.57-.66-13.29.82-4.43,2.14-5.28,3.61-9.51,2.5-7.2,1.75-13.68.65-23.12s-2.78-11.88-.81-16.06c.94-2,2.34-3.6,4.42-8,0,0,1.49-3.19,2.62-6.55,2.37-7.07,1.59-17.71-2.13-39.84-1-6.06-1.42-8-2-12.46a124.09,124.09,0,0,1-1.31-17.72c.34-17.27,7.28-27.36,3-33.77a36.8,36.8,0,0,1-3.45-5.9,34.21,34.21,0,0,1-2.29-6.55c-.6-2.57-.66-4.49-.33-11.65.56-12.54,1.07-14,2.13-15.41,1.94-2.64,3.53-2.38,4.92-5.25,1-2.11,1.16-4.34.49-9.18-.91-6.57-1.36-9.85-3.12-13.77-3.09-6.91-7.11-9.52-10-16.56-.69-1.67-1.47-3.77-1.47-3.77-1.44-3.84-2.42-6.88-2.62-7.55-1.58-5.14-1.73-13.85.49-23,2.12-8.72,3.76-6.9,5.25-13.93,2.92-13.88-3.65-20.09,1.47-28.53,1.33-2.21,3.26-4.21,4.43-8.36a24.84,24.84,0,0,0,.65-8.86c-1.16-9.16-8.38-10.46-15.9-23.28-2.72-4.62-4.36-8.87-6.73-14.92a90.48,90.48,0,0,1-4.26-12.79c-1.84-7.71-.75-8.78-2.29-14.43-2.46-9-5.79-8.45-7.38-15.25-1.63-7,.6-13.08,4.1-22.62,3.09-8.43,4.58-8.46,7.22-16.56,2.09-6.44,1.27-6.79,3.6-16.72C88.26,1133.3,90,1132,91.72,1122c1.1-6.43,1.76-10.22,1.14-15.57a47.55,47.55,0,0,0-5.9-17.55c-3.62-6.68-4.73-5.5-6.72-9.83-5.12-11.11,3.1-16.78-1.15-30.5-1.43-4.59-3.16-6.58-5.25-14.43-1.23-4.63-1.85-6.94-2-10.17-.21-5.32,1.06-9.9,3.6-18.85,1.54-5.41,1.71-5,2-6.88.59-4.26-.12-7.85-3.28-16.9-3.9-11.14-7.7-20.32-7.7-20.33-2.77-6.67-3.38-7.67-3.45-10.16-.18-6.76,4.06-8.12,5.9-15.57,1.51-6.13-.85-7.25-2-21.32-.44-5.5-.4-9.4-.33-16.23.14-14.53,1.35-17.41-.33-24.59a54.24,54.24,0,0,0-4.59-12c-5-10.36-8.46-12.13-11.81-20.82-1.6-4.16-3.1-8-3.11-13.28,0-10.88,6.38-12.84,6.89-24.59a68.35,68.35,0,0,0-1.48-14.76c-1.18-6.31-2.45-9.07-1.31-13.28,1-3.68,2.59-3.89,4.92-8.36.79-1.51,4.14-8,3.44-15.41-.5-5.39-2.94-9.38-7.54-16.89-3.31-5.4-3.88-5-4.59-7.38-1.53-5.06.75-8,3.93-18.85A105.39,105.39,0,0,0,55,689.86c.94-7.67,0-9.08,1-14.93C56.6,671,57.15,671.36,62,658c5-13.61,4-12.6,5.74-15.73,2.62-4.83,4.71-6.92,3.93-9.68-.88-3.14-4.23-2.64-7.71-6.23-3.82-3.93-2.9-7.73-5.73-17.38a113,113,0,0,0-4.92-12.63c-6.12-14.31-8.58-14.38-12.47-24.1-3.82-9.57-4.81-17.95-5.73-25.73-1.3-11,.11-10.85-1.31-20-1.58-10.18-4.5-17.95-7.22-25.09-3.13-8.21-6.39-14.86-8-18.19-5-10.18-8-14.47-10.33-23.28a86.64,86.64,0,0,1-1.8-10c-2.86-19.46-4.29-29.19-1.15-38.7,2.2-6.67,4.68-8.24,6.56-16.89a64.19,64.19,0,0,0,1.31-12.95c.18-8.62-1-11.35-2-25.25-.28-4.09-.39-7.09-.49-9.67-.58-15,.23-17.08-.49-25.91A127,127,0,0,0,7.6,303.4c-2-9.48-3.68-12.42-5.24-18.52A73.61,73.61,0,0,1,1.21,253.4c2-10.18,6.56-17.09,15.57-30.5C26,209.21,27.94,209,39.09,194c19.07-25.66,16.6-29.52,29.67-41.8,5.08-4.78,9.94-8.41,16.56-16.56a110.62,110.62,0,0,0,12.46-19c2-4,4.51-12.23,9.84-28.53A24.8,24.8,0,0,1,113.52,78a22.55,22.55,0,0,1,6.23-4.42c5.67-2.7,8.23-.86,13.12-2.29,6.75-2,5.14-6.5,14.26-12.14a37.16,37.16,0,0,1,15.09-5.9c4.42-.6,6.57.07,9.67-1.8,2.8-1.71,4.48-4.32,6.56-7.55,3.25-5,2.89-6.68,4.92-7.54,3.4-1.46,8.13,1.54,9.83,2.62,3.58,2.27,4,4.09,6.07,4.1,1.85,0,2.59-1.39,6.56-4.75a40.82,40.82,0,0,1,6.88-5.08c3.76-2,5.39-1.22,11-2.47,3.84-.85,8.59-1.91,12.79-5.08,4.67-3.52,3.59-5.84,9.18-11.15,3.43-3.25,6.43-6.09,10.66-6.55,5.26-.58,6.27,3.19,14.26,4.92,4.8,1,8.62.57,14.76-.17s9.06-1.09,12.46-3c5.33-2.93,4.85-5.7,9.51-8,6.52-3.26,13.72-.94,14.59-.65,5.44,1.83,5.75,4.74,15.25,12.3,5.42,4.31,8.13,6.47,11,7.54,9.87,3.7,16.67-1.24,21.32,3.44,2.1,2.13.74,3.18,3.6,7.71,2.56,4,4.44,4.45,9.84,9.51,7.09,6.62,5.92,7.84,10.82,11.15,3.1,2.08,3.45,1.52,10.5,5.41,1.16.64,2.1,1.17,8.85,5.24,10.89,6.56,12.66,7.7,14.59,6.89,3.3-1.38,2.73-6.59,6.07-7.22a5.07,5.07,0,0,1,4.75,2.3c.93,1.43.72,3,.33,5.58-1.31,8.68-1.52,8.3-1.47,9.18.22,5.1,6.76,8.77,18,15.08,4.18,2.34,8,5.47,12.46,7.21,1.44.57,4.34,1.61,4.26,2.79s-3.78,1.26-4.42,3.28c-.17.52-.37,1.91,3.77,6.23a30.68,30.68,0,0,0,5.9,5.25c8,5.31,22.78,19.93,31,28s5.81,7,19,21.31c17.9,19.47,27.1,29.31,39.19,34.76,10.89,4.92,16.34,7.37,23.77,6.89,5.37-.36,10.39-2.1,14.92,1,2.29,1.55,2.68,3.14,6.55,7.54,2.72,3.08,3.11,2.91,7.39,7.21,4,4,5.92,6,7.86,8.69,3.43,4.8,5.33,7.47,4.92,10.66-.17,1.33-.74,2.83-8.36,10.16-5.9,5.69-7.93,7.06-7.54,8.86.43,2,3.48,3,7.54,4.26,4.85,1.56,6,.74,8.69,1.64,3.87,1.32,4.21,3.92,11.31,14.43,5.62,8.32,7.66,10,7.87,14.43a15.81,15.81,0,0,1-1.64,7.7c-2.67,5.39-7.77,7.73-10.33,8.86-7.91,3.5-12.21.88-15.41,4.59a9.77,9.77,0,0,0-1.8,8.86c2,6.27,10.55,5.18,24.26,13.6,5,3.09,9.65,6,13.28,11.64,2.36,3.65,3.32,7,5.25,13.78,2.31,8.09,2,10.05,3.93,17.7a87.91,87.91,0,0,0,6.07,17.54c1,2,2.73,5.26,13.77,18.53,12.35,14.84,15,16.56,16.08,22.47s0,12.37-.5,15.41c-1.11,6.86-2.53,7.95-2.79,12.62-.37,6.71,2.19,10.74,4.92,17.54,3.92,9.75,1.67,8.78,6.23,24.1,3,9.94,4.5,15.13,7.87,21.82,5.21,10.3,7.29,9.33,11.31,18,5.58,12,2,14.81,7.39,25.25,3.54,6.9,5,5.45,14.42,18.36a126.37,126.37,0,0,1,12.62,20c2.93,5.94,1.77,5,7.88,20.32,5.21,13.06,8.6,20.11,9.51,22,3.62,7.46,3.61,6.53,6.72,12.94,8.49,17.53,6.16,19.42,11.8,26.9,5.23,6.93,8.37,6.82,13.45,15.24,2.64,4.37,2,4.71,5.41,11,3,5.46,4.93,7.85,11.31,17,6.22,9,5,7.62,9,13.28,1.4,2,5.87,8.25,18.85,24.6,7.63,9.59,6.17,7.53,10,12.45,13.13,16.85,13.3,19.25,21.48,28.2,5.4,5.91,6.9,6.59,10.17,11.32,4.71,6.82,6,11.83,8.36,17.54,5.8,14.24,9.42,12.25,17.71,28.36,7.33,14.26,4.93,16.7,12.63,28.7,2.6,4.07,5.88,8.18,12.45,16.4,4,5,8.44,10.53,14.43,17,6.39,7,6.81,6.61,15.41,15.41,10.8,11.06,18.26,19.93,19.85,21.82,3.55,4.24,7.17,8.89,14.42,18.2,11.44,14.67,10.49,14,12.29,15.73,9.29,9.11,13.66,7.65,25.42,18.2,6.35,5.7,5.15,6.19,10.5,10.33,3,2.36,4.19,2.79,20.65,11.8,11.14,6.1,11.91,6.62,13,7.39a52,52,0,0,0,9.34,6.06,43.31,43.31,0,0,0,6.39,2.46c7.42,2.1,10.72-.19,22.14-.33,7.09-.08,10.64-.13,14.76,1.64,1.93.84,2,1.17,11,7.21,6.73,4.52,6.75,4.35,9,6.08,6.93,5.23,6.07,6.19,9.51,7.86,5.06,2.47,6.71.26,15.41,2.3a40.29,40.29,0,0,1,11.31,4.26c1.83,1,4.29,2.67,11.81,10.33,4.07,4.15,6.84,7,10.65,11.47,8.7,10.28,8,11.78,13.45,17.55,4.13,4.36,4.35,3.31,17.21,13.12,9.47,7.22,14.2,10.83,19.52,16.06,6.66,6.57,7,8.34,13.11,13.29a101.93,101.93,0,0,0,13.77,9.18c4.25,2.47,8.14,4.32,15.91,8,8.19,3.91,12.31,5.87,14.1,6.07,5.6.63,10.56-1.17,20.5-4.76,6.93-2.51,7.06-3.24,10.32-3.6,8.13-.93,14.63,2.79,16.56,3.93a25.57,25.57,0,0,1,10,9.84c2.3,4.26,2.5,8.58,2.79,17,.11,3.13,0,7.54-.16,16.23-.2,9.19-.34,12,1.8,14.43s4.94,2.91,8.69,3.6a30.63,30.63,0,0,0,16.23-1.63c3.68-1.53,4.09-2.67,6.72-2.79,2.8-.14,3.64,1.1,9.51,3.44a52.34,52.34,0,0,0,9.84,3.12c4.41.87,5,.25,7.87,1.31a19.93,19.93,0,0,1,7.21,4.75c3.07,3,2.52,4.3,6.07,8.37a28.57,28.57,0,0,0,5.74,5.24c4,2.66,5.78,2.14,9.84,4.43,2,1.11,3.13,2.13,7.21,6.06,5.46,5.27,8.2,7.91,11,10.82,9.39,9.82,8.49,8.12,20.17,20.18,4,4.07,8.08,8,12,12.12,4.35,4.64,5.64,6.28,8.53,7.88,3.79,2.09,5.56,1.49,14.75,2.62,13.8,1.7,17.6,4,22.8,1.15,1.36-.76.73-.72,5.08-4.59,3.65-3.26,5.63-4.67,15.24-11.81,10-7.4,10.41-7.81,12.13-8.2,6.24-1.4,11.76,1.32,15.09,3,7.47,3.67,11.71,9.11,15.41,13.94,6.61,8.65,6.06,12.15,13.28,19.84,3.26,3.47,2.85,2.19,7.71,7a166.17,166.17,0,0,1,14.92,17.21,40.88,40.88,0,0,0,6.4,7.55,24,24,0,0,0,7.21,4.92c7.43,3,13.43-.73,15.41,2.29.79,1.22.45,2.77,0,4.75-1,4.64-3.87,4.94-4.1,8-.22,2.9,2.17,3.53,3.93,8.86.81,2.43.74,3.6,1.15,6.22.49,3.1,1.6,10.2,5.91,16.23a32.32,32.32,0,0,0,10.33,9c1.66,1,5,2.72,8.85,4.76,2.6,1.37,3.23,1.68,3.77,2,3.43,1.84,7.23,5.14,16.72,18.52,4.25,6,5.26,7.84,7.55,8,3.71.33,5.22-4.14,10.49-4.42,2.07-.11,4.11.74,8.19,2.46a69.56,69.56,0,0,1,8.53,4.26c4.77,2.81,15.85,7.67,27.71,5.74,3.78-.62,9.72-1.58,14.76-6.06,4.21-3.75,4.68-7.19,9.51-9a17.63,17.63,0,0,1,9.67-.49c2.54.53,4.61,1,6.23,2.62,3,3.09.79,6.69,3.11,13.77.84,2.53,2.52,7.67,5.9,8.36,2.23.46,3.25-1.4,7.88-2.79a24.35,24.35,0,0,1,7.87-1c6.09.66,10.08,7.06,12.46,11,5.8,9.59,2.15,11.46,8,24.43,4,8.91,7.1,11,7.21,17.38,0,2.16-.25,4.8,1.48,7.22.43.6,2.08,2.73,8,4.09,6.91,1.6,8.52-.38,14.76,1,3.14.69,8,1.76,9.84,5.42,1,2,.36,3.35-.66,9.83-1.22,7.78-1.84,11.69-1.31,14.27,1.09,5.3,3.8,6.5,3.94,12.29.07,3.24-.76,3.44-.17,5.24,1.36,4.13,6,4,9.68,8.86a12.28,12.28,0,0,1,2.78,6.23c.6,7.24-9,9.78-12.62,20C1948.1,1646.74,1948,1650.5,1947.87,1658Z"/></g></g></svg>