<svg xmlns="http://www.w3.org/2000/svg" viewBox="0 0 2324.44 2006.78"><g id="Layer_2" data-name="Layer 2"><g id="Belarus"><path d="M1954.45,738.91c1.59,2.62,3,3.79,3.49,6.69.39,2.41-.15,4.44,1,7.86a10.12,10.12,0,0,0,1,2.32c1.74,2.84,4.34,3.4,6.55,4.81,3.68,2.34,5.13,6.28,5.82,8.14,1.08,2.95.69,4.57.43,13.39-.18,6.39,0,5-.14,9.6-.55,14-2.28,18,.58,20.81,2,2,3.3.53,6.69,2.91,4.68,3.28,3.33,6.84,7.42,10.18,3.78,3.09,5.78.75,12.22,4.22a31.4,31.4,0,0,1,8.3,6.69c3.89,4.42,2.67,5.58,6.11,8.73a22.33,22.33,0,0,0,10.47,5.39c2.69.52,3,0,4.66.73,4.27,1.94,3.22,6.33,6.55,8,3.53,1.76,6.15-2.47,13.82-1.75,2.25.21,4.25.4,6,1.89,2.6,2.28,1.39,4.84,4.07,8,.18.21,3.11,3.57,7.27,3.78,1.18.06,1.64-.18,7.42-2,4.93-1.58,5.9-1.84,6.41-1.31s0,1.83-1.31,6.84c-1.09,4.18-1,4.64-.73,5,1.24,1.46,5.9-.48,11.06-2.62,5-2.07,4.56-2.44,6.69-2.91,4.27-1,10.39-.45,13.24,3.34a14.38,14.38,0,0,1,1.6,3.64c.76,2.11,2,5.49,1.89,8.73-.05,2.3-.72,2.65-4.8,11.35-2.78,5.93-3.1,7.1-2.76,8.58.61,2.74,2.58,2.72,4.22,6.41a13.67,13.67,0,0,1,1,8.14c-.59,2.76-1.8,3.09-4.22,8.15a36.41,36.41,0,0,0-2,5c-2.16,7.08,1.18,9.75-.88,14.11-1.59,3.38-3.77,2.12-8.14,7.13a34,34,0,0,0-5.39,9c-2.4,5.26-1.33,5.1-3.92,11.64-1.12,2.81-2.4,6.43-5,13.68-.37,1-1.18,3.4-.44,3.93.93.65,2.93-2.49,6.11-2.33,1.78.09,2,1.11,5.1,2a28.09,28.09,0,0,0,4.36.72c4.9,1,5.7,4.25,11.79,7,2.24,1,3.36,1.51,4.8,1.6,6,.36,7.59-5.79,15.13-7.57,2.4-.57,1.39.26,10.18-.14a57.67,57.67,0,0,0,10.19-1,35.85,35.85,0,0,0,9.45-3.2c5.06-2.61,5.32-4.47,8.3-4.66,2-.12,2.36.68,8,2.77,5,1.85,4.82,1.24,7.57,2.47,3.61,1.61,8.18,3.65,9.31,7.57,1,3.46-1.46,5.71,0,7.42,1.16,1.35,3.06.3,8.29.43a46.87,46.87,0,0,1,11.35,1.89c2.93.76,4.4,1.14,5.67,1.89a17,17,0,0,1,6.7,8.15c1.75,4.32.63,6.39,2.91,8.59.3.29,2.34,2.26,4.65,1.89,3.16-.51,2.86-4.75,6.84-7.42,4.35-2.92,9.87-1.34,10.91-1,1.41.44,4.16,1.29,5.82,3.78,1.33,2,.66,3.09,1.46,7.13,1.2,6.1,3.43,7.26,2.47,9.46-1,2.39-4.58,3.11-7.85,3.78-5.65,1.16-8.76-.11-9.46,1.31s2.49,3.35,4.36,8.88a21.62,21.62,0,0,1,1,4.8c.86,6.84-1.42,10.06-1.6,14.69-.23,5.95,3.13,10.51,6.55,15.13,5.75,7.8,9.54,6.47,15.42,14.7,1.23,1.72,2.45,3.71,4.95,4.66s4.07,0,8.58.87c2.49.5,3.73.74,4.51,1.6,2.83,3.1-1.21,9.94.29,10.77,1,.52,3.41-1.73,4.8-3.5,2.11-2.66,1.93-4.41,3.35-4.8s3.23,1.24,4.95,2.91c2.07,2,3.82,3.74,3.78,5.82-.08,3.78-6,5.59-5.53,7,.6,1.78,10.07-1.82,19.64,2.18a13.74,13.74,0,0,1,4.51,2.76c3.64,3.55,4.64,9.21,3.79,13.68-.89,4.68-3.91,8.61-7.13,12.8-2.36,3.07-3.62,4-3.78,6.26-.08,1,0,2.77,4.07,8.58s5.93,7,5.38,8.15c-.78,1.69-6.1,1.88-10-.14-2.78-1.43-3.36-3.19-5.53-3.2s-4.06,1.91-5.38,3.34c-3.59,3.9-3.18,7.09-4.95,7.42-2.9.54-5.81-7.77-8.29-7.13-.58.15-.77.7-2.47,5.24-1.88,5-2.16,5.66-2.77,6.4-1.61,2-4.79,4.07-7.13,3.2s-1.88-3.84-4.22-4.65c-2.63-.91-5.75,2-6,2.18-2.6,2.47-1.66,4.59-3.78,9.46-1.23,2.81-1.43,1.84-6.11,9.16a93,93,0,0,0-4.81,8.15,66.56,66.56,0,0,0-3.2,7c-1.94,5.07-1.4,5.8-2.91,7.85a12.83,12.83,0,0,1-6.54,4.66c-3.65,1-5.75-.47-7.86,1.31-1.11.93-.71,1.5-2,3.34-2.05,2.85-3.65,2.41-6,4.81-2.69,2.78-1.17,4.05-4.22,7.56-1.47,1.69-2.1,1.71-4.51,4.37s-2.06,3-3.06,3.63c-3.87,2.56-9-1.92-11.35.29-1.42,1.33.17,3.15-1.31,6.84a12.7,12.7,0,0,1-4.51,5.53c-3.14,2.09-5.4,1.17-10.18,2.18-4.51,1-6,2.49-9.46,3.93-6.13,2.53-11.53,1.89-21.24.73-14.18-1.69-14-5-22.12-4.07-2.68.3-6.84,1.12-11.64-.73-2.58-1-2.9-1.83-5.53-3.35-8.19-4.73-12.6-1-17.46-5.09-4.4-3.71-5.15-10.47-5.23-11.35-.4-4,.82-6.19-.73-9.89-.67-1.6-1.53-2.72-3.93-5.24-5.21-5.47-7.82-8.21-10-9.46-7.6-4.26-11.25.25-17.46-4.36a22.77,22.77,0,0,0-7.27-4.08c-1.52-.48-3.77-1.17-4.8-.14s.28,2.6-.44,5.24a6.82,6.82,0,0,1-4.07,4.65c-2.22.66-3.65-1-6.55-2.18-6.27-2.53-8.53,1.67-17.61.14-.24,0,.06,0-9.16-2.18-4.39-1-6.6-1.54-7.71-.73-2.67,2-1.87,8.35-1.75,9.32.3,2.4.91,3.36.29,4.8-.73,1.68-2.14,1.67-4.66,3.34a17.5,17.5,0,0,0-6.69,8.59,9.79,9.79,0,0,0-.43,4.51,8.82,8.82,0,0,0,1.6,3.78,20.46,20.46,0,0,0,0,2.62c.28,4.6,1.87,6.17,1,8-.75,1.6-2.77,2.13-4.07,2.48-3.42.9-5.08-.76-7.13.29-1.8.92-2.35,3.14-2.76,4.8-1.69,6.8,2.56,10.54.43,14.26-1.11,1.93-3.22,2.59-5.67,3.34-7.3,2.26-13-1.4-14.11.44-.81,1.35,1.72,4.27,3,5.82a28,28,0,0,0,7.42,6c9.07,5.32,13.6,8,15.28,10.33,1.13,1.57,2,4.83,3.78,11.34,2.68,9.87,2,10.84,3.78,14.26,3.39,6.51,9.37,9.77,11.21,10.77,7.79,4.25,12.38,2,18.18,7.42a12.74,12.74,0,0,1,4.08,6c1.16,4.11-1.17,5.79-.15,9.16s3.94,3.16,9.17,8.15a32.55,32.55,0,0,1,7,9.31c1.33,2.75,3.6,7.43,2.77,12.95-1.26,8.32-8.82,13.5-11.21,15.13-6.55,4.49-10.56,3.53-11.78,7s1.81,7.77,6,13.53c5,6.91,6.73,6.25,8.44,10.33,3.21,7.62-2.23,11.43,1.17,17,.51.85.79,1,13.09,9.89,3.18,2.3,4.86,3.55,4.66,5-.33,2.27-5.08,1.53-8.88,5.53-2.35,2.48-1,3.32-4.65,9-2,3.12-3,3.89-3.35,6.11-.08.54-.64,4.47,1.6,6.55,3.06,2.83,8.41-.46,9.89,1.75.34.5.41,1.18-2.47,8.87-1.43,3.82-1.41,3.56-1.75,4.66-.92,3.08-2.07,6.91-.72,10.47.71,1.88,1.54,2.17,2.62,3.79,2.82,4.24.68,7.68.43,17.75-.23,9.56,1.56,12.13-1,15.42-2,2.55-4.75,3.15-4.8,5.53,0,.75.25,1.35,3.2,5.67,1.53,2.24,2.3,3.36,2.62,3.78a38.49,38.49,0,0,0,9,8.44c6,3.94,7.37,2.17,9.46,4.8,2.74,3.46,2,8.64,1,15.57s-2.44,8.74-1,10.62c1.13,1.5,2.86,1.37,12.08,2.33,7.64.8,8.77,1.14,9.75,2.18,1.6,1.72.81,3.23,1.45,10.63.53,6.1,1.22,6.81,1.16,11.34,0,4.27-.09,8.26-2.32,9.46-1.85,1-3.15-1-6.7-.87-4.66.19-5.47,3.8-9.31,4.07-4.09.29-4.72-3.69-10.91-6.25-3.92-1.63-4.91-.54-14.26-1.46-8-.78-6.81-1.53-14-2.18-10.58-1-17.89-1.31-17.89-1.31-2.37-.11-5.2-.22-7.57-2.18-2.17-1.8-2-3.53-3.64-4.22-2.46-1-5.2,1.82-10,5.09-8.2,5.56-9.35,3.49-14.55,8-3.25,2.83-7.54,6.56-8,11.93-.28,3.41,1.16,5.22-.14,8.59-.23.58-1.64,4.23-4.8,5.24-2.84.9-5.55-.82-10.77-4.22-3.7-2.42-3.75-3-10-7.42-3.68-2.59-5.26-3.52-7.42-4.22-1.84-.61-2.47-.52-5.68-1.46s-3.86-1.42-6-2a25,25,0,0,0-9.31-1c-4.15.4-4.62,1.78-10.19,2.47-.78.1-.63,0-4.65.29-9.66.57-10.56.83-11.5,1.6-.44.36-1.46,2.43-3.49,6.55-1.24,2.52-1.86,3.78-2.33,4.8-1.79,3.94-2.28,5.84-4.07,10.77-2.06,5.64-3.08,8.47-4.22,10.47a37.24,37.24,0,0,1-7,8.88,44.73,44.73,0,0,1-7,5.09c-6.88,4.38-7.63,3.4-9.6,5.67-4.2,4.87-3.69,12.76-3.64,13.39.26,3.35,1.27,5.11.15,6.26-1.43,1.45-4.06-.4-8.3.72a13.25,13.25,0,0,0-4.94,2.62c-2.26,1.77-2.9,3.32-6.55,10.19-1.51,2.83-3,5.64-5.24,9a16.79,16.79,0,0,1-5.53,5.82c-2,1.2-2.26.64-3.2,1.45-3.64,3.18,1.38,10.67-2.33,15.13-1.55,1.88-3.21,1.49-4.65,3.93-1.08,1.84-2.11,4.61-1,5.82s3.09-.1,4.22,1.17c.88,1,.47,2.69.14,4.07-.45,1.89-1.15,3-2.61,5.38-3.28,5.42-3.15,5.71-4.08,6.26-1.31.77-1.81.34-6.55.87-3.73.42-5.61.65-6.25,1.46-1.35,1.69.54,3.92,1.16,9.6.18,1.64.9,8.19-1.31,9.17s-5.31-4.19-7.42-3.2c-1.55.72-.16,3.67-1.74,8.14-1.77,5-5.39,6.63-4.51,9,.34.93,1.2,1.55,2.91,2.77,2,1.42,3.12,1.51,3.63,2.76a3.36,3.36,0,0,1-.14,2.77c-.93,1.72-3,1.28-3.93,2.91a4,4,0,0,0-.15,2.91c.65,2.89,2.86,3.58,4.37,5.67,2.51,3.49-.56,5.83,1.16,11.79.91,3.14,1.74,2.4,5.39,9.45,2.19,4.25,1.74,4.23,3.63,7.57,1,1.79,2.44,4,5.24,8.29s3.09,4.67,3.06,5.39c-.22,4.19-7.85,5.48-7.71,9.31,0,1,.52,1.12,2.32,3.78,2.5,3.69,2,4.1,4.22,7.57s3,3.49,6.55,8.73a26.25,26.25,0,0,1,2.62,4.22c.62,1.49,1,3.12.87,9.6-.17,8.51-.91,10-1.74,11.06a9,9,0,0,1-3.64,2.91c-1.89.77-2.61.17-4.07,1a6.26,6.26,0,0,0-2.91,4.65c-.14,1.29.24,2.41,1,4.66s1.47,3.15,1.17,4.51a4.45,4.45,0,0,1-1.31,2.18c-1.64,1.61-3.29,1.17-6.11,2-3.84,1.18-3.44,2.83-6.11,3-1.38.12-3.1-.5-6.55-1.74-1.19-.43-2.15-.83-4.07-1.46-1.31-.42-2.52-.77-2.91-.87-4.81-1.23-9.9,3.3-11.21,2s3.92-6.78,1.89-10.33c-1.1-1.94-4.1-2.81-4.94-3.06-1.72-.5-2.3-.2-3.93-.58-2.19-.52-3.65-1.64-5.53-3.2a118.06,118.06,0,0,1-11.79-11.21c-3.35-3.59-4.46-5-4.22-6.69.22-1.51,1.45-3,2.62-4.51a29.74,29.74,0,0,1,2.48-2.62c2.8-3.08.6-10.52-2-15.71-1.6-3.15-3.07-4.87-10.62-12.81-2.06-2.16-1.84-1.91-18.33-17.16-2.65-2.45-6-5.55-9-4.66-1.86.54-3.62,2.59-4.51,3.64-2.08,2.42-1.87,3.5-3.21,4.07-1.72.74-3.31-.53-7-2a32.79,32.79,0,0,0-7.71-2.32c-7.08-.89-9.79,4.17-14.55,2.32-3.2-1.24-3.49-4.12-5.82-3.92-.47,0-1.77.26-5.82,6.11-3.21,4.63-3.14,5.56-4.66,6.25-2.26,1-3.67-.49-9.31-1.6-4.74-.93-9-1.77-11.06.29-2.46,2.49.39,7.09-1.89,8.73-2,1.45-4.65-1.77-10-1-2.21.3-1.76.85-6,2-3.83,1.08-6.43,1.78-9.31,1a11.08,11.08,0,0,1-5.1-3c-5.52-6-3.46-19.69-2-25,.27-1,1.1-3.91.14-4.51-.5-.31-1.31.11-2.33.73a42.85,42.85,0,0,0-5.67,4.07c-2,1.7-2.81,1.21-9,3.35-2.67.92-5.08,2-9.89,4.07-8.66,3.78-9.69,4.82-10.33,6.11-1.41,2.83-.16,5.15-1.9,6.26-1.55,1-4.2.2-5.82-1-2-1.5-1.87-3.27-2.91-3.35-1.55-.11-3.74,3.72-4.22,7.71-.49,4.23,1.1,7.22,0,7.86s-3.41-2.06-4.21-1.45.85,2.47,1,5.82a11.54,11.54,0,0,1-2.18,7.42,7.52,7.52,0,0,1-2.33,2.18c-5,2.8-13.34-3-18.47-2.62a24.57,24.57,0,0,0-4.22.73c-.58.16-1.33.4-1.9.58-1.29.41-2.39.79-2.61.87-2.38.87-3.27,3.9-6.12,7-1.91,2.08-3.42,3.71-5.23,3.63-3.23-.14-5.64-5.66-6.55-8.87-1.47-5.19.1-7.41-1.16-14.11-.87-4.61-.87-5.83-1.9-6.55-2.65-1.87-6.42,1.44-9.16-.58-1.43-1.06-1.69-2.92-2-5.39-.55-3.95.31-6.38.73-9.45.57-4.24-.39-4.59-.73-11.5-.54-10.9,1.49-17.5-1-18.62-1.16-.52-2.17.63-4.8,0a9.62,9.62,0,0,1-3.49-1.75c-3.68-3-1.12-7.47-4.51-13.09-2.14-3.55-4-3.23-4.37-5.82-.41-3.27,2.43-5.11,1.46-8.73a5.74,5.74,0,0,0-1.75-2.91c-1.32-1.13-2.85-1.2-4.65-1.31-8.09-.51-8.34-1.13-9.75-.44-2.11,1-2.19,2.74-4.22,6.4-3.28,5.92-4.8,4.61-11.49,13.39-2.89,3.78-3.92,5.75-6.84,7.86-1.54,1.1-2.14,1.2-5,3.2-2.42,1.72-3,2.35-4.07,2.32-.58,0-1.19-.2-4.66-3.2-2.71-2.34-2.88-2.69-3.78-2.91-1.63-.38-2.27.5-4.8.59a14.27,14.27,0,0,1-4.08-.59c-4.68-.94-9.53,2.32-13.24,4.81a32.94,32.94,0,0,0-7,6.25c-2,2.45-3.37,5.21-6,10.62-2.9,6.06-1.76,4.65-5.53,13.1-2.13,4.79-3,6.3-2.76,8.87.09,1.18.28,1,1.54,6.61.9,4,1,5,.64,6.2-.48,1.56-1,1.15-2.91,4.22-1.28,2.1-1.5,3.07-2.91,4.65-1,1.1-1.88,2.1-2.62,1.89-1-.27-.87-2.39-1.45-6.4-.72-4.9-1.11-7.37-2.77-8.44s-4.47-.86-5.67.44c-.89,1-.43,2-1.31,2.62-1.19.87-3.65.19-5.09-1.17-1.92-1.8-1.48-4.29-1.89-8-.31-2.77-.66-2.24-3.35-10.91-2.16-7-4.13-14.35-4.22-14.7-1.62-6.09-2.16-8.83-4.8-11.64a17.86,17.86,0,0,0-4.8-3.49c-3.89-2.14-5.92-1.91-13.24-3.63s-7.25-2.39-10.92-2.62a22.7,22.7,0,0,0-9.74,1c-4.85,1.81-5.28,4.55-13,11.35-5.23,4.63-7.89,6.94-10.62,6.55-2.46-.35-3.09-2.27-8.88-10.91-3-4.56.92,1.65-11.93-17.32-3.33-4.91-3.5-5.18-3.78-6-3.07-8.45,2.68-15.41,0-17.61-2-1.64-7.08.74-9.9,3.21-1.65,1.44-2.18,2.61-3.78,4.94-1.23,1.8-3.44,4.26-7.86,9.17-5.66,6.3-9.63,10.28-12.22,12.8a52,52,0,0,1-5.38,4.8,37.64,37.64,0,0,1-9,5.24c-2.74,1.1-4.09,1.24-9.31,2.33-13.13,2.74-15.9,4.27-18.19,2.33a6.08,6.08,0,0,1-1.75-6.11c1.11-3.33,6.18-4.37,6-5-.08-.2-.71-.17-4.51.29-2.68.32-3.07.39-3.64.15-1.35-.58-1.52-2-2.62-4.22a20.19,20.19,0,0,0-4.51-6.26,13.42,13.42,0,0,0-6.55-2.91c-2.08-.38-6.51-1.19-10,1.6-4,3.19-3.82,8.66-3.78,9.46.1,1.92,1.19,4.26,3.35,8.87,2.58,5.5,3.74,7,3,8.88-.75,2.1-3.13,3.11-4.36,3.64-4.13,1.75-6.35-.24-8.15,1.31-2.31,2,.35,6.09-1.31,11.2-1.28,4-4.52,3.28-6.11,7.42-1.41,3.69,0,6.19-1.45,7-1.71,1-5.08-1.86-7.72-4.07-3-2.52-2.81-3.14-5.67-5.68-4.8-4.25-7.26-4.21-7.57-6.4-.18-1.35.68-2,5-7.56,4-5.22,4.43-6.26,4.66-6.84,1.05-2.68.42-3.34,1.16-8.73.94-6.83,2.14-7.13,1.46-9.31-1.3-4.11-6.67-6.58-11.06-6.84-2.79-.17-3.21,1.43-8.15,2a15.28,15.28,0,0,1-6.26-.15c-1.93-.52-3.2-1.42-5.67-3.2-4.89-3.53-4.92-4.81-7.86-6a14.18,14.18,0,0,0-6.25-.87c-2.44.15-6.49.39-8.15,2.91-2.15,3.27,1.88,7-.44,11.79-.84,1.72-2.53,3.62-3.78,3.34-1.62-.35-1.18-4.06-4.51-7.56a6.23,6.23,0,0,0-2.33-1.75c-2-.78-3.5,0-5.82.29-2.66.28-4.2-.44-6.26-.87-6.48-1.35-8.69,2.2-18.91,2.62-3.34.13-1.64-.3-11.35-.73-4.67-.21-6.78-.18-7.42-1.45-.75-1.51,1.55-2.76,2.77-7.43a12.73,12.73,0,0,0-.15-8.14,6.81,6.81,0,0,0-2.33-3.35c-2.13-1.47-3.84-.21-7.85-1-1.93-.39-4.24-.86-5.39-2.47-1.47-2.08,0-4.65,1-8.88,2.2-8.91-1.35-9.2.44-20.08.51-3.14,1.33-6.26-.44-9a8,8,0,0,0-3.2-2.76c-3.66-1.85-7-.5-11.79.29a73.84,73.84,0,0,1-21.53,0,15.77,15.77,0,0,0-6.84.15c-1.19.31-1.58.58-5.38,2.62-6.57,3.5-7.19,3.63-8.44,4.94-2.17,2.29-1.79,3.47-3.35,4.08-2.2.85-4.14-1-8.73-3.21-3.2-1.5-2.33-.61-9.89-3.34-8.29-3-9.26-4-11.78-3.49-3.92.84-4.21,3.92-7.28,4.07-2,.1-4.09-1.1-10-8.87-7.7-10.08-7.66-12.62-11.93-15-.35-.2-4.11-1-11.64-2.47-7.75-1.57-11.09-2.17-14-.3-1.38.91-1.08,1.36-3.2,3.21a24.92,24.92,0,0,1-8.29,4.65c-3.86,1.41-11,4-18,1.46-4.85-1.77-3.19-3.66-12.08-9.61-5.71-3.82-8.57-4.5-9.89-8s.23-5.87-1.6-7.71c-1.67-1.67-4.42-1.11-7.71-.73-7.67.88-15.43-.44-23.14-.58s-9.18-.24-11.06-.44a120.49,120.49,0,0,1-12.07-2.18c-7.51-1.56-8.92-2.15-10.19-3.49-2-2.1-1.15-3.41-2.91-6.69-3.27-6.12-9.91-8.57-11.78-9.17-2.2-.71-5.49-.71-12.08-.73-2.49,0-6.43.06-11.64.44-7.82.58-7.43,1.08-11.06,1.16a48.41,48.41,0,0,1-19.78-4.07c-6.42-2.86-10-6.25-11.93-4.8-1.53,1.11,0,3.59-1.75,5.67-1.84,2.27-5.5,1.7-12.8,1.31-4.56-.24-9.12-.17-13.68-.29-14.61-.37-14.12.16-16.3-.58-3.49-1.19-8.38-3.81-13.38-4.22-1.06-.09-3-.15-3.93,1-.63.83-.19,1.6-.73,2.62s-1.92,1.7-4.36,2.18a32.93,32.93,0,0,1-7.86.58c-6.36-.39-9.53-.58-10.62-.73-10.82-1.4-16.23-2.11-19.79-3.78-5.74-2.7-4.81-4.41-11.78-8a39.16,39.16,0,0,0-14.41-4.66c-4.63-.48-9.31.66-18.48,2.91-8.5,2.09-12.75,3.13-15.56,4.66-8.35,4.53-8.19,8.84-16.15,12.08-1.38.55-4.47,1.69-10.33,4.07-3.1,1.26-3.14,1.31-3.93,1.6-4.29,1.58-7.76,1.83-13.39,2.18-16.15,1-17.4,1-19.35-.14-3.46-2-3.58-4.16-6.55-4.51-3.53-.43-6.87,2.23-10.47,5.09-4.33,3.44-4.36,4.86-6.7,5.38-3.38.76-5.06-1.83-10.47-3.93-4.21-1.63-7.9-1.71-15.28-1.89a69.35,69.35,0,0,0-14.69,1c-6.79,1.24-6.53,2.75-12.66,3.64-2.88.42-6.24.42-13,.43-5.87,0-8.8,0-9.31,0-6-.19-7.77-.62-9.61.73-2.12,1.57-.85,3-3.49,6.11-1.73,2.07-2.71,2-7.27,6a19.89,19.89,0,0,0-2.62,2.47c-2.35,3.24-.63,5.36-2.47,8.88-1.6,3-3.36,2.36-4.81,5.67a12.14,12.14,0,0,0-.87,6c.23,2.12.86,2.34,1.6,5.38a20.11,20.11,0,0,1,.73,5.82,15.4,15.4,0,0,1-2.47,7.42c-1.77,2.82-3.48,3.66-9.46,8.15-5.24,3.92-4.2,3.46-6.55,5.09-8.13,5.63-11.24,4.9-18.62,10.48a71.11,71.11,0,0,0-6.11,5.23c-2.82,2.76-3.56,4-6.11,6.55-3.56,3.53-4.64,3.61-7.13,6-6.4,6-4.15,10.14-9.32,14.55-4.09,3.49-9,3.93-14,4.36-5.34.47-8.93-.47-15.43-2.18-4.57-1.2-6.32-2.17-6.54-3.49-.3-1.8,2.45-2.8,2.76-5.68a6.46,6.46,0,0,0-2.18-5.38c-3.41-2.77-8.09,1.25-17.17-.15a15.17,15.17,0,0,1-5.38-1.89c-1.56-.91-3.77-2.19-4.22-4.36s1.4-3.59.73-4.66c-.8-1.25-4-.42-9.17.58,0,0-4.55.88-9.46,1.6-10.37,1.52-12.69-.26-15.71,2.33-1.78,1.53-2.66,3.6-4.22,7.28-1.11,2.62-1.82,4.27-1.89,6.4-.15,4.05,2.18,4.65,3.78,9.89,1.08,3.55,1,6.88.87,13.53-.11,5.3-.57,5.08-.14,6.84a26.94,26.94,0,0,0,5.53,10.48c.7.78,1.48,1.51,1.31,2.33-.31,1.46-3.46,2.1-5.39,2.18-4.45.18-7.87-2.39-10.62-4.51-3.36-2.6-7.76-6-9.16-11.64-1.2-4.79,1.17-5.52-.3-10.91-1.06-3.93-2.68-4.86-3.63-9.46a27.34,27.34,0,0,1-.44-6.84c.2-6.8,1-9.56,1.75-16,1.07-9.63,1.61-14.46-.44-19.07a63.67,63.67,0,0,1-2.47-6.11c-1.19-3.43-1.79-5.15-1.75-6.4.13-3.9,4.41-6,11.35-11.06,8.27-6.08,12.4-9.12,13.38-12.36,1.68-5.52-2.5-8.27-3.49-19.35-.46-5.17-.65-7.75.29-11.06,1.23-4.28,3.21-6,2.48-8.88-.8-3.14-3.63-3-4.66-6.11-.48-1.44-.61-3.71,3.49-10.76,4-6.79,5.63-7.38,8-11.64a33.37,33.37,0,0,0,4.07-15.28c0-6.06-2.11-10.82-6.4-20.08-3.36-7.25-5-10.87-7.28-13.68-9.63-12.09-22.66-12.08-27.35-21-3.58-6.76-3.64-11.78-3.64-11.78,0-1.33.12-1.59-.14-2.19-1.63-3.66-9.72-.48-19.65-3.78-5.6-1.86-4.4-3.33-11.2-5.67-5.49-1.9-7.06-1.21-14.4-3.49-3.41-1.07-2-.89-9.75-3.64-4.93-1.76-7.5-2.55-11.2-4.51-3.13-1.66-4.7-2.49-5.39-3.49-2.76-4,.82-8-1.45-14.7-1.23-3.59-2.54-3.24-3.06-5.67-1.24-5.87,5.91-10.27,13.24-19.06,8.53-10.23,13-21.17,15-26.19,3.23-8,3.79-12.34,8.58-19.06a53.46,53.46,0,0,1,9.46-10c15.33-13.3,13.84-18.5,26.77-29.83,15.92-13.95,33.3-19.34,40.16-21.39,6.59-2,9.33-1.18,16.58-3.63,7.69-2.61,13.71-6.59,25.76-14.55,0,0,4.33-2.87,25.9-22.7a5.44,5.44,0,0,0,1.6-2.48,4.92,4.92,0,0,0,.14-1.74c-.18-2.31.27-2.71.15-7-.14-4.75-.82-9-1.46-16.44-.21-2.54-.08-1.4-.72-10.18-.16-2.12-.48-6.45-.73-9.6-.8-10-1.14-10.37-1.6-16.59-1-13-1.41-19.67,1.16-26a29.89,29.89,0,0,0,2-5.82c1-4.49.38-8-.58-13.39-1.73-9.56-2.52-14.36-3.06-15.86-2.26-6.35-3.81-6.39-7.42-15.57-2.39-6.07-2.67-8.49-2.47-10.76.32-3.75,1.82-5.53,3.63-9.61,2.94-6.61,4.49-10.57,3.93-14.84-1.1-8.37-9.64-9.74-9.75-17.89a56.32,56.32,0,0,0-.43-7.86,16.52,16.52,0,0,0-1.31-5.38,13.23,13.23,0,0,0-4.66-5.1c-4-2.83-6.74-8.84-10.33-18.18-8.52-22.22-11.35-32.45-11.35-32.45-6.69-24.21-6.47-17.36-18.62-57.62-5.82-19.29-8.74-28.94-11.2-39.28-6.84-28.69-3.89-28.57-8.88-38,0,0-10.63-20-9.31-28.08,0-.26.5-3,1-6.7s.75-5.38.73-5.67c-.24-2.68-1.36-3.13-2.19-5.68-1.59-4.92,1.53-6.55.29-12.51a22.5,22.5,0,0,0-2.47-6.26,37,37,0,0,0-3.64-5.23c-3.77-5.41,1-9.45-1-19.21-1.11-5.28-3.41-8.27-2.32-13.53.54-2.61,1.37-3.18,1.89-3.35,1.66-.53,3.14,2.15,7,4.66,1.62,1,3.75,1.82,8,3.35,5.93,2.12,8.89,3.18,10.19,3.2,5.63.06,6.65-3.62,14.84-5.1,3.27-.58,5.36-1,7.86-.29,8.11,2.19,9.17,12.43,13.09,12.23,4.73-.25,4.4-15.16,12.51-17.76,4.39-1.4,6.33,2.37,12.23.73,5.63-1.56,6.48-5.73,11-5.67,3.7.05,6.55,2.81,8.15,4.36,4.63,4.49,3.83,8.39,6.84,10.19,3.25,1.94,6.54-1.8,14.84-4.22,7.22-2.11,7.13-.12,12.37-1.89,8.59-2.91,9.09-7.73,16.29-8.73A20.4,20.4,0,0,1,248.07,931c4.89,1.81,7.16,4.44,13.09,9.75,6.23,5.57,9.34,8.36,12.08,10,7.65,4.69,19.8,7.32,29.24,2.91,4.18-1.95,3.75-3.37,16-18,10-12,14.54-16.11,18.77-19.35,5.36-4.13,10.82-7.29,17.6-8,2.43-.25,8.1-.85,10.77,2.48a10,10,0,0,1,1.75,4.8c.22,1.91-.19,2.78-.73,6.11-.7,4.29-1,6.43-.29,7.27,1.53,1.7,6.5,1,9.6-1.74,3.81-3.32,2.28-7.41,6-9.6,1.23-.73,1.45-.31,7-1,5.29-.68,8-1,9.6-2.33,2.86-2.24,3.4-5.94,3.64-7.57.6-4.06-.51-7.44-2.47-12.07-5.5-13-9.23-15.71-10.48-24.15-.56-3.8-.94-6.33.58-8.59,3-4.46,8.85-1,17-5.67,4-2.28,4.42-4.14,12.37-9.17,3-1.87,4.67-2.73,6.84-2.62,1.79.09,3.2.82,8.58,5.09,6.52,5.18,6.82,6,9,6.84,4,1.53,7.75.66,10.47,0,2.45-.59,7.41-2.16,16.3-10.33,11.18-10.27,17.06-15.68,18.62-24.44.87-4.89.07-9,3.35-12.08,2.32-2.21,5.21-2.53,9-2.91,11.45-1.13,17.21,3.82,22.69,0,1.29-.9.62-.92,3.21-3.34a39.75,39.75,0,0,1,11.2-7.42c6.76-2.95,7.3-.7,14.69-3.79,4.44-1.85,5.76-3.29,8.73-3,1.78.14,3.66.84,8.15,4.8,7.71,6.79,12.09,10.65,12.51,16.73a18.23,18.23,0,0,1-1.45,7.86c-1,2.75-2.45,4.93-5.67,8.73-7.72,9.09-10.41,9.38-10.48,12.36-.1,4.47,5.85,8.11,9.75,10.48,4.95,3,6,2,14,5.67,6.75,3.18,8,4.9,10.47,4.37,4.42-.94,2.3-8.48,7.86-12.08,3.8-2.46,9.79-2.4,14-.72,2.07.83,2.6,1.62,4.8,2,3.22.6,8,0,9.16-2.47.81-1.75-.63-3.63-6.84-13-5.17-7.77-5.94-9.11-5.67-11.06.63-4.54,5.91-5.22,6.55-9.31.69-4.44-3.49-9.95-8.15-11.35-4-1.2-6.59,1.19-8.29-.43-2.24-2.15,1.52-7,.29-11.94-1.31-5.29-7.63-9.4-13.24-10.18-9.49-1.31-13.94,7.44-20.81,5-4.42-1.61-7.43-7-7.13-11.35s3.64-5.49,8.88-11.64c4.15-4.89,10.81-12.71,11.06-21.83.21-8-4.69-10.64-2.48-16.73,1.42-3.89,3.69-3.57,7.86-8.87,5.14-6.55,3.33-9.16,8-16.88,3.45-5.72,4.45-4.3,12.37-14.26s8.38-13.26,8.44-14.84c.19-5.45-3.18-5.12-3.93-12.51-.71-7,2-11.09-1-15.72-.82-1.26-1.62-1.89-2.18-3.63-1.12-3.45.19-6.66.73-8.15.12-.35,0,.08,1.45-16s1.84-18.53,1.31-23.42c-.68-6.24-1.56-5.47-1.6-9-.1-9.45,6.17-12.42,14.69-26.63,8.13-13.53,8.12-20.29,15.86-24.15,1.78-.89,3.83-1.55,8-3.78,7.6-4.07,8.18-5.81,11.64-7.28,8.91-3.79,12.83,4.5,22.4,1.75,2.06-.6,7.54-4.86,18.48-13.39,2.75-2.14,4.55-3.59,7.57-4.51,5.26-1.59,7.69.44,11.64-1.45,3.46-1.67,5.08-4.92,6.54-7.86,2.83-5.68,1-7,3.2-13.82,2.6-7.86,6.23-9.4,5.68-15a13.19,13.19,0,0,0-1.89-6c-2.11-3.33-4.59-3.47-4.8-5.39-.38-3.25,6.33-6.53,7.85-7.27,4.77-2.33,6.17-1.38,10.77-3.35,6.62-2.84,5.89-5.74,10.33-7,6.37-1.78,8.42,4,18.19,4.22a26.9,26.9,0,0,0,14.55-3.49c4.19-2.55,5.42-5.21,8.87-5.24,3.25,0,3.61,2.32,8.15,3.49,3.5.9,6.36.3,11.2-.73s7.49-1.58,9.9-3.64c3.09-2.64,2.31-4.79,4.94-10,4.21-8.41,8.43-7.33,13.1-16.16,2.83-5.34,1.85-6.82,4.65-9.45,3.76-3.53,6.6-1.89,11.79-5.39,1.57-1.05,6.82-4.59,8-11.05.1-.56,1.29-7.58-3.05-12.23s-8.1-.71-17.46-5.67c-3.53-1.86-6.17-4.09-11.35-5a24,24,0,0,0-5-.29c-6.54.34-8.54,3.45-14.26,5.1-6.92,2-13.23.11-15.57-.59-4.32-1.28-3.7-2.21-11.49-5.67-7.42-3.3-10.49-3.58-10.77-5.53-.34-2.42,4-4.94,7.71-7.13,8.15-4.77,11-3.36,13.68-6.55,2.89-3.4.48-6,1.31-17.75.82-11.57,3.44-13.23,1.6-19.2-1.73-5.61-4.55-5.8-5-10.77-.5-6.32,3.62-11.63,5.1-13.53,2.68-3.46,4.4-3.9,8-7.13,1.13-1,7.54-6.89,10.47-14,3.71-8.93-1.54-11.54.44-29.39.64-5.78,1.24-5.93,1.89-12.8.86-9.06.12-11.9,2.33-13.68,3.89-3.11,12.15.88,14.26,1.89,8,3.87,8.9,8.62,13.53,8.44,3.54-.13,3.24-2.92,10.77-7,4.67-2.53,6-2.09,11.49-5.24,3.7-2.11,5.58-3.21,7.28-5.38,2.6-3.35,2.61-6.47,3.49-10.48a51.9,51.9,0,0,1,7.27-16,42.11,42.11,0,0,1,17.9-14.7c11.82-4.95,17.31-.09,23.86-6.26,2.54-2.39,4.64-5.87,9.46-7.12a13.78,13.78,0,0,1,6.25-.15c4.68,1,6.86,4.34,12.81,10.91s6.91,7.65,9.16,9.46c4.67,3.75,7.29,5.86,10.48,5.53,5.28-.55,5.29-7.07,11.64-9.17,2.65-.87,6.75.18,14.84,2.33,6.15,1.63,9.28,2.75,13.24,3.93,11.56,3.44,15.29,4.1,19.21,4.36,4.53.31,6.86.44,9.74-.72,6.14-2.49,8.84-8.47,9.75-10.48,2.19-4.84,2.16-9.11,2-16-.15-8.36-1.46-8-1.17-13,.49-8.21,4.35-14.3,8.3-20.52,3.72-5.86,6-9.51,10.62-13,6.08-4.55,9.76-4,19.2-10.62,4-2.78,5.65-4.53,6.84-6.84,1.68-3.24,1.91-6.67,2.19-10.76.28-4.3-1.16-5.74,0-7.13,1-1.16,2.32-.89,8.58-1.31,4.23-.29,6.38-.44,7.71-1,2.57-1.12,3.86-3.13,6.4-7.57,4.57-8,6.63-12.4,9.31-17,3.76-6.45,4-8.59,6.26-9.46,3.14-1.17,4.59,1.27,9.6,1.46,7.81.29,14-5.28,15-6.26,5.19-4.88,3.82-8.51,7.42-10,5.43-2.31,14,3.63,18.91,9.17,7.36,8.36,8.68,18.62,13.68,18.62,1.8,0,2.73-1.33,4.51-.73,2.53.86,2.4,4.13,4.51,7.72,3.7,6.26,11.09,8.09,12.66,8.43,2.84.63,8,1.75,10.91-.87,6.08-5.4-1.19-23,.58-23.57,1.11-.35,2.94,6.86,8.3,8.15,1.43.34,3-.06,6.11-.87,5.68-1.5,7.33-3,13.09-4.81a47.88,47.88,0,0,1,6.41-1.6,50.68,50.68,0,0,1,13.24-.43c1.13.08,3.32.39,7.71,1,6.49.91,8,1.27,9.45,1.74,3.19,1,7.46,2.38,7.57,4.37.16,2.88-8.68,3.65-9.75,8.14-.34,1.43.74,2,6.55,9.9,2.34,3.15,1.84,2.58,3.93,5.38,4.7,6.3,5.33,6.64,6.54,8.88,1.5,2.77,2,5,2.91,8.87,2.2,9.49.38,11.33,2.33,13.1,4.54,4.1,16.19-4.15,20.66.29a42,42,0,0,1,4.37,5.09c1.2,1.71,1.41,2.34,1.89,2.33,1.84,0,.23-9.37,5.53-14.26,3.13-2.89,5.12-1,11.49-5.24a31.36,31.36,0,0,1,6-3.64,24.5,24.5,0,0,1,6.25-1.74c5-.66,6,.93,8.73-.15,3-1.19,1.92-3.19,5.68-5.82,2.16-1.51,2.2-.62,10.18-3.63,1.85-.7,2.56-1,3.5-.73,2.06.63,1.92,3.14,4.8,5.53a6.89,6.89,0,0,0,3.92,1.89c1.87.12,2.76-.9,5-1.75a14.49,14.49,0,0,1,6.55-.87c4.66.56,4.6,5.61,10.33,9.75,5.21,3.77,11.53,4.12,15.86,4.36,5.31.3,4.9-.81,8.15-.14,6.66,1.38,7.25,5.84,15,8.29,3,.94,3.06.34,8.15,1.75,4.49,1.24,6.74,1.86,9,3.34,4,2.6,5.85,6.1,8,10.19s4.12,7.81,2.62,9.75c-.89,1.15-2.38.78-6.84,1-6.38.34-11.26.6-12.51,3.06-.63,1.24.18,2,1.89,7.86,1.32,4.46,2,6.69,1.89,7.85-.35,5.18-4.93,5.69-7,12.52-1,3.24,0,3.39-1.16,7.85s-2.47,5.72-3.79,9.17c-.82,2.15-3.62,9.49-1.16,15.42.79,1.92,1.53,2.21,12.66,10.19,3.54,2.54,7.39,5.32,13.24,9.16,6.93,4.57,7.91,4.86,9,4.95,5.9.48,10.85-5.17,15.13-10.19,9.77-11.44,8.45-18.54,16.15-22,2.17-1,4-1.18,10.48-3.78a28.63,28.63,0,0,1,6.54-2.18c2.53-.42,5.67-1,8.44.44,3.36,1.74,2.62,4.58,5.24,6,4.49,2.38,12.07-3.12,15.57-6.4a36.21,36.21,0,0,0,8.29-12.22c3.21-7.42,2.71-12.35,6.69-14.55,1.82-1,4.13-.8,5.82-.73,4.09.17,5.45,1.65,8,1.16,2.83-.53,2.78-2.89,5.53-4.36,3.23-1.73,6.89-.61,11.49.87,5.71,1.84,8.25,3.83,15,7.42,8.11,4.33,9.4,6.38,11.78,5.68,3.45-1,2.64-5.15,7.42-9.31,3.11-2.71,6.28-3.43,12.37-4.81,5.87-1.32,10.55-2.39,14.55.15a8.28,8.28,0,0,1,3.64,4.22c1.14,3.52-1.67,5.72-.59,7.56,1.77,3,9.87-1.67,14.84,2.33,2.58,2.07,1.75,4.4,5.1,7,1.71,1.32,3.71,2.09,7.13,2.62,11.49,1.77,15.54-2.81,19.93.14,2.42,1.63,1.07,3,5.82,11.35a58.32,58.32,0,0,0,6.26,9.17c3.86,4.55,6.2,7.3,9.89,7.85,3,.45,4.13-1,7,0,2.17.75,3.31,2.19,5.53,5,8.22,10.23,7.76,9.34,8.44,10.48a37.42,37.42,0,0,1,5.24,12.36c1.87,9.38-1.56,16.15.43,17,1.39.61,3.26-2.57,10-6.26,2.7-1.46,4.06-2.19,4.95-1.89,3.49,1.16,1.45,9.94,6,20.95.39,1,1,4.12,3.49,6.69a7,7,0,0,0,2.91,2c3.26,1.06,6.62-1.32,7.42-1.89,2.13-1.52,2.35-2.67,7.27-9.46,2.17-3,2.54-3.34,3.2-3.64,1.83-.82,3.68-.31,10,1.89,4.25,1.47,6.37,2.21,6.55,2.33,3.67,2.59,4.48,7.35,6.11,16.88a50.1,50.1,0,0,1,.29,10.77c-.15,2.28-.38,3.55-1.31,4.65-1.77,2.1-4.17,1.31-5.09,3.06-1.09,2.06,1.11,5.36,1.89,6.55,1.66,2.49,2.85,2.59,3.2,4.07.61,2.59-2.37,5.11-4.22,7.13-5.63,6.14-6.79,14.13-7,16.29-1,10.86,10.12,15.26,7.71,23.43-.77,2.62-1.81,1.81-7.86,8.29-4.94,5.3-8,10.27-14.25,20.23-2.45,3.91-3.48,5.8-3.93,8.58-.22,1.3-1.22,7.44,2.33,11.64,3.2,3.8,6.6,1.8,10.62,5.82,1.47,1.47,2.58,4.33,4.8,10,2.58,6.65,3.93,11.06,3.93,11.06,1.29,4.24,1.63,6.13,3.49,8.44,1,1.2,1.26,1.15,4.51,3.92,3.56,3,5.34,4.56,6.84,6.41a26.67,26.67,0,0,1,4.65,9,25.86,25.86,0,0,1,1.6,10.47c-.22,3.12-1,4.11-1.74,7.42-.17.7-1.76,7.59-.73,13.68,1.63,9.69,9,12.34,7.42,16.88-1,2.7-4.27,3.78-8.73,5.24-9.56,3.11-16.5,1-17.17,3.05-.78,2.41,8.81,5.23,9.75,12.51.28,2.19-.26,4.44-.87,7-.75,3.11-1.32,5.47-2.91,7.27s-3.45,2.24-11.79,2.91c-10.89.88-12.19.2-13.67,1.75-1.73,1.79-1.54,6.14-1.17,14.84.2,4.61.53,6.09-.29,8.58-1.14,3.45-3,4.32-5.82,7.71-3.18,3.84-2.19,4.4-8.44,17-3.83,7.73-4.57,8.28-4.22,10,.9,4.47,6.54,5.16,17.46,10.91s8.72,6.82,20.37,13.09c11.06,6,14.25,5.64,17,10.33,1.49,2.52,2.4,6.58,4.22,14.7s1.24,8,2,9c5.64,6.9,26.66,3.52,35.21,1.31,1.42-.37,4.41-1.2,6.84.29,1,.64,2.88,2.25,3.93,9.89.69,5,1.26,9.19.14,14.41-2.33,10.93-10.71,20.22-16.87,27.06-2.18,2.41-4.45,4.71-5.39,8.58s-.5,9.44,2.77,13.1c2.32,2.6,4.2,2.2,12.36,5.24,7.72,2.87,11.58,4.3,13.24,6.4C1953.74,726.05,1949.46,730.7,1954.45,738.91Z"/></g></g></svg>