<svg xmlns="http://www.w3.org/2000/svg" viewBox="0 0 2380.58 1943.09"><g id="Layer_2" data-name="Layer 2"><g id="Belgium"><path d="M1678.33,1756.58c-1.93-.67-4.81-1.68-6.9-.32s-1.39,3.54-4.17,6.1c-1.06,1-2.36,2.17-4,2.08-1.92-.1-2.35-1.85-5.13-2.56a9.2,9.2,0,0,0-3.37-.16c-3.55.31-4.13,1.86-5.93,1.6-2.49-.36-2.4-3.45-5.78-5.78-2-1.4-4-1.61-6.9-1.92-5-.53-6.14.76-11.39.8-4.92,0-8.77.07-10.42-2.24-2.22-3.11,1.89-7.1-.64-12.68-.47-1-1.49-3.26-3.53-3.84s-3.24,1.26-7.22,1.76a16.87,16.87,0,0,1-6.09-.48c-2.85-.64-4.84-1-6.1-2.41-2.09-2.26-.75-5.55-.64-9.3.12-4.1-1.33-5-9.79-20.21-5.62-10.12-6.56-12.58-10.1-14.12-2.3-1-5.09-1.33-8.66-1.76-4.75-.57-6.28-.13-9.79-1-2.6-.62-4.12-1.42-7.7-3.21-13-6.53-11.39-5.17-14.43-7.06-4.78-3-2.37-2.29-13-10.42-3.37-2.58-7.24-5.43-7.06-8.51a4.78,4.78,0,0,0-.48-3,4.54,4.54,0,0,0-2.57-1.77c-3.82-1.24-8.34-.69-11.23-.32-5,.65-7.53,1-8,1.12-4.52,1.37-6,3.31-10.75,6.1a41.77,41.77,0,0,1-11.22,4.81c-7,1.56-8.59-1.54-19.73-2.73-11.63-1.23-16.52,1.44-19.25-2.08-2.36-3-.94-7.93-.16-10.59,2.37-8.11,7.43-8.18,9.14-14.75,2.22-8.56-4.09-17.13-5-18.29-3.25-4.29-4.8-3.28-8.18-7.86-.67-.91-7.55-10.46-4.17-17,1.29-2.5,2.66-1.82,6.74-5.62,2.56-2.39,4.52-5.47,8.34-11.54a119.83,119.83,0,0,0,6.89-11.87c3.4-6.91,5.1-10.36,5-13-.07-1.46-.43-3.27-12.84-18.44-6.94-8.5-6.67-7.74-7.7-9.47-1.77-3-2.93-5.88-6.25-8a26.66,26.66,0,0,0-4.33-1.92c-5-2.1-6.55-3.06-8.82-4-9.36-3.93-14.06-.41-18-4.49-1.59-1.66-2-3.51-2.73-7.22-.32-1.59-2.49-12.9,3-17.16,1.88-1.45,2.6-.5,5.78-2.57a16.77,16.77,0,0,0,5.77-6.09,17,17,0,0,0,1.77-5.78c1.21-8.28-2-10.56-1-18a19.51,19.51,0,0,1,3-8.83c1.56-2.28,3-3.12,5.29-6.25a23.62,23.62,0,0,0,3.37-5.62c.8-2,1.88-4.69,1.29-7.53-.66-3.15-2.68-3.2-5.78-7.7-2-2.85-4.65-6.76-3.53-10.11.36-1.08,2.28-2.6,6.1-5.61,4.22-3.33,4.8-3.51,5.61-4.82,2-3.21,1.46-6.94,1.28-8.18-.86-6-4.81-7.28-4.17-10.74s5.22-6.58,8.35-5.78c3.84,1,3.55,7.57,9,9.47.64.22,2.21.75,3.21,0,1.23-.94.65-3.16.32-6.26-.87-8.15,1.41-9.14-.16-15.08-.69-2.6-1.33-3.15-1.45-5.45-.06-1.25-.28-5.47,2.25-7.54,2.21-1.8,4,.11,6.9-1.76.91-.59,2.1-2.43,4.49-6.1,1.6-2.47,1.85-3.06,1.6-3.53-.73-1.38-4.58.72-6.74-1.12-1.52-1.3-1.41-3.9-1.28-7.22.18-4.35,1.29-5.86.32-7.06s-3.12-.7-6.74-.32a53.38,53.38,0,0,1-15.88-.64c-4-.89-7.25-1.62-8.82-4.33-1.25-2.16-.16-3.43-.32-10.26a78.66,78.66,0,0,0-.8-9c-.58-4.44-.67-3.07-1.64-9.45-.2-1.28-.28-1.93-.45-1.94-.5,0-1.76,6.58-1.6,13.8.15,6.84,1.48,10.48-1,12.83-.88.85-1.19.51-3.37,1.6s-3.87,2.45-8.82,7.7-4.17,4.87-6.1,6.58a36.39,36.39,0,0,1-8,5.61c-4.18,2.14-4.6,1.25-6.73,2.89-1.38,1.07-1.53,1.69-5.78,9.31-2.89,5.18-3.14,5.46-3.21,6.57-.15,2.47.88,4.37-.32,6.9a8.67,8.67,0,0,1-1.28,1.92,10.54,10.54,0,0,1-3.69,2.73c-4.62,2.14-9.13,4.54-13.79,6.58-6.57,2.86-9.89,4.34-12,6.57-.64.67-2.14,3.12-5.14,8a74.78,74.78,0,0,0-5.61,10.27c-1.45,3.39-2.17,5.13-2.09,7.22.12,2.86,1.35,4.87,3.37,8.18a5,5,0,0,0,2.41,2.4c1.46.56,2.28-.26,3.21.16,1.86.86,1.45,5.5,1.12,9.15-.43,4.73-.64,7.11-2.25,9.78-1.27,2.12-2.16,2.34-3.53,5a22.66,22.66,0,0,0-1.92,5.78c-1.35,6-2,8.93-1.76,11.07.68,5.51,4,6.52,3.84,12,0,1.78-.1,3.71-1.44,5.13-2,2.13-4.79.81-11.23,1.6a37.8,37.8,0,0,0-9.78,2.57c-5,2.1-5,3.64-8.82,5.45s-8.16,1.71-17,1.61c-5.59-.07-9.3-.51-14.11,1.12a17.25,17.25,0,0,0-4.81,2.41c-2.28,1.64-2.76,2.9-5.3,5.93-3.33,4-5,6-7,6.58-2.84.83-3.83-.75-8.34.16a10.61,10.61,0,0,0-4.66,1.76c-2.07,1.54-1.9,3-3.85,6.1s-2.6,2.47-6.57,7.37c-2.83,3.5-2.81,4.23-4.33,5-2.29,1.11-3.8.19-7.7.16-2.88,0-2.77.48-9.31,1.6-7.8,1.35-7.77.6-11.86,1.77a33.74,33.74,0,0,0-9,3.69c-3.73,2.26-4.26,3.69-6.41,3.84-3.1.23-4.75-2.55-8.18-5.13-2.82-2.11-3.39-1.49-16.53-5.29-9.08-2.63-10.91-3.53-17.8-5.13-5.07-1.19-7.65-1.78-10.43-1.77-3.67,0-5,.7-7.21-.32-2.54-1.18-2.6-3-5.78-6.09a26,26,0,0,0-6.25-4.5,22.3,22.3,0,0,0-12.19-2.56c-3.27.32-2.65,1.12-6.9,1.92-6.21,1.18-7.66-.51-13.47.8a46.57,46.57,0,0,0-6.74,2.25c-3.76,1.45-4.8,2.2-7.7,2.89-2.21.52-2,.19-5.61.8-5.74,1-5.53,1.72-8.51,1.76-2.78,0-3.67-.59-6.73-.16-1,.14-1,.22-3.53.81-4.37,1-6.57,1.49-7.22,1s-.57-2.92-.64-7.86c0-2.13,0-2.51-.32-3-1-1.89-3.37-2-7.06-2.89-5.23-1.29-4.38-2.1-9.94-3.53-1-.26-3.53-.76-8.51-1.76-4.74-1-6.27-1.22-6.73-2.41-.59-1.49.94-3.45,2.24-5.13,2.11-2.7,3.24-2.53,4.65-4.49,1.69-2.32,2.76-6.24,1.29-8.82s-4-1.29-7.54-4.17c-3.3-2.7-4.45-6.59-5.29-9.47a17.91,17.91,0,0,1-1-6.89c.1-1.24.43-3.52,3.21-8.5,3.64-6.53,4.79-5.7,8.66-12.19,2.29-3.84,3-6,5.3-6.58.83-.21,1.19,0,5.77,0,1,0,2.74,0,3.53,0,4.61-.15,8.48-2.87,10.75-4.49,4.23-3,3.37-4,7.54-6.9,3.82-2.67,4.62-1.91,7.69-4.33,1.89-1.48,5.88-4.62,6.26-9.14.08-1,.06-2.87-3-8.34a69,69,0,0,0-6.89-10c-7.07-8.51-11.06-10.74-10.43-14.43.25-1.48.93-1.37,2.08-4.66a18.83,18.83,0,0,0,1.45-7.21c-.12-3.82-1.79-6.69-3.69-10-1.05-1.8-1.57-2.7-2.25-3.21-2.69-2-5.17-.11-11.87-.16-5,0-7.88-1.14-9,.48-.36.53-.21.87-1.12,3.69a8.44,8.44,0,0,1-1,2.41c-.81.78-2.21.7-7.38-.8-3.93-1.14-5.91-1.73-7.06-2.57s-4-3-4-5.77c0-2.6,2.5-2.79,4.33-6.58,2.15-4.45,0-6.85,2.41-9.62,1.41-1.64,2.19-.86,5.61-3.21,2.38-1.64,4.48-3.09,5.45-5.78a10.14,10.14,0,0,0-.16-6.73c-.67-2-1.34-1.77-2.4-4-.61-1.3-2.25-4.78-1-7.7.79-1.8,1.76-1.29,2.88-3.37,1.26-2.34.23-3.36,1.45-6.42.89-2.24,1.58-2,2.08-3.85a9.86,9.86,0,0,0-.64-6.25,12.75,12.75,0,0,0-3.53-5c-1.89-1.63.72-5.06,2.09-6.57,2.64-2.94,5.18-1.39,8.5-4.17,1.51-1.27,1.15-1.72,4.49-7.54,2.35-4.09,3.52-6.14,5.13-8,1.8-2.11,3.88-3.71,8-6.9,2.54-1.95,3.31-2.38,6.42-4.81,3.28-2.57,4.93-3.85,5.45-4.65,2.45-3.72,2.13-8.93.32-12.67a14.87,14.87,0,0,0-4.49-5.3,21.83,21.83,0,0,0-7.86-3.69c-4.88-1.46-5.82-.61-9.3-2.24a14.49,14.49,0,0,1-5.46-3.85c-2.5-3-1.82-5.24-4-6.42-2.61-1.4-5.9.53-6.09.64s-3.35,2.08-3.37,5c0,1.6.93,2.36,4,6.09s4.64,5.65,5.13,7.38c.63,2.22.82,5.92-1.28,7.86-1,1-2,.93-7.7,1.12-8.18.28-8.83.44-9.62-.32-2.27-2.18.7-5.81-1.77-10.74-1.2-2.41-2.39-2.52-4.33-5-3.23-4.08-3.69-8.8-4.17-11.87-.57-3.67,0-3.6-.64-7-.57-3.12-1.15-6.33-3.37-9.63a19.16,19.16,0,0,0-9.62-7.38c-4.38-1.41-5.15.36-8.66-1.12-1.07-.45-2.55-1.26-9.15-9.62-1.4-1.78-3-3.87-5.29-6.9-4.88-6.59-5-7.47-7.22-9.14-3.15-2.42-4.4-1.79-6.57-4.33-1.11-1.3-1.92-2.9-3.53-6.1-1.78-3.52-2.16-4.91-3.53-5.29-.88-.25-1.89.2-3.85,1.12a39.73,39.73,0,0,0-5.46,3.21s-2.25,1.46-5,3c-5,2.9-7.49,4.36-10.74,4.49a14,14,0,0,1-5.62-1c-3.49-1.4-3.58-3.2-5.93-3.84-1-.27-2.73-.46-10.11,4-3.32,2-4.12,2.74-8.66,5.77a83.74,83.74,0,0,1-9.95,6.09c-4.47,2.17-7.09,3.44-10.74,3.21-1.14-.07-7.22-.58-9-4.33-1.13-2.4.12-4.83-1.29-5.77-1-.65-2.22.05-3.69.48-4.86,1.42-10.67-.56-13.79-3.21s-1.91-4.47-5.46-6.9a18.19,18.19,0,0,0-6.57-2.56c-2.42-.53-3.62-.79-5-.32-1.73.59-1.93,1.69-5.14,5s-4,3.23-4.33,3.21c-1.88-.13-3.32-2.67-4.17-4.17-1.36-2.4-1-3.34-2.08-4-1.48-.94-3.21.17-6.1.8s-4.22.14-8.18,0c-2.94-.11-7.63.57-17,1.92-6.75,1-8.69,1.39-10.11,3.21-.85,1.1-1.11,2.78-1.6,6.1-.54,3.66-.61,6.16-1,11.71s-.51,6.52-1.29,8c-.32.63-2.35,4.56-5.29,4.65s-4.69-3.58-5.61-3,1.8,5.12,0,9.78c-.29.75-1,2.66-2.73,3.21s-3.73-.74-4.49-1.28c-2.84-2-3.82-4.94-4.81-7.54,0,0-1.36-3.54-5.3-11.39s-6-6.52-9.62-13.31c-3.19-6.08-.85-5.9-5-18-2.23-6.52-4-9.76-2.73-14.11.65-2.21,1.27-2,3.69-6.1,1.84-3.15,5-8.74,5.45-15.07.2-2.94-.43-2.61-1.28-9.15-.92-7-.27-8-1.12-19.73-.41-5.53-.62-8.34-1.29-10.58-1-3.52-2.17-5-2.72-9-.45-3.22.09-3.72-.48-6.09-.29-1.18-1-3.55-4.5-7.7-4.43-5.3-6-4.67-9.94-9.46a33.55,33.55,0,0,1-5.29-8c-1.32-2.9-1.67-4.94-3.85-7.7-1.48-1.87-1.79-1.54-3.21-3.37-3-3.84-2-5.83-4.17-7.38a7.56,7.56,0,0,0-8.34.32c-1.86,1.43-1.19,2.84-3,4.33-2.43,1.94-6.69,2-8.82.16-1.31-1.14-.65-2-2.57-4.49a8.41,8.41,0,0,0-3.85-3.21c-1.13-.39-2.14-.31-4.17-.16a10.66,10.66,0,0,0-4.65,1.13,9,9,0,0,0-1.92,1.44c-2.22,2-4.87,4.35-7.54,4.49s-2.8-1.91-6.74-2.41a11.59,11.59,0,0,0-4.65.33c-2.94.84-3.2,2.32-6.42,3.84-2,1-4.4,2.08-6.25,1.13-2.48-1.28-2.7-5.6-2.25-8.18a12.82,12.82,0,0,1,2.41-5.3c4.7-6.8,8.76-6.23,10.42-10.9,1-2.93.38-5.79-.32-8.83-.53-2.29-1-4-2.4-4.81-1.64-.87-2.58.58-5.46,0-2-.4-2.15-1.24-5.13-2.08a32.84,32.84,0,0,0-3.37-.64c-4.43-.82-4.9-1.31-6.58-1.45a11.83,11.83,0,0,0-7.05,1.93c-3.25,2.14-4.62,6.16-7.22,14.11-1.41,4.29-1.77,6.41-3.69,7.22-1.65.7-2.37-.45-6.42-.32a18.8,18.8,0,0,0-6.41,1.28,20.15,20.15,0,0,0-3.69,2.09,87,87,0,0,1-8.66,5.29c-1.9.86-4.34,1.06-9.15,1.44-9,.72-13.56,1.08-16.36-.32-4.61-2.3-3.58-5.23-8.18-6.89-4.44-1.61-6.4.76-11.39-1.29a20.52,20.52,0,0,1-6.25-4.33c-3.12-2.88-2.76-3.89-5.13-6.09-2.67-2.48-3.8-1.83-10.91-5.3-4.42-2.15-6.67-3.27-8.5-5.29a17.8,17.8,0,0,1-4-8.66c-3.53-16.61,4.43-25.69,0-37.69a25.18,25.18,0,0,1-2.09-8.83c-.16-4.88,1.44-5.46,1.29-9.78-.22-6-3.49-10.73-4.82-12.67-1.9-2.78-2.8-3-5.29-6.9a23.12,23.12,0,0,1-3.37-6.58c-1.08-3.84.22-4.51-.8-8.34-.53-2-1.59-3.8-3.69-7.38-2.48-4.21-3-4.19-3.69-6.25-.76-2.23-.42-3-.8-7.54-.51-6-1.2-5.6-1.12-8.66,0-2,.2-8.43,3.85-10.43,2-1.1,3.11.22,6.25-1.12a8.14,8.14,0,0,0,4.49-3.85c.74-1.54,1.31-4.23,0-6.1-1.72-2.45-5.49-1.74-5.93-3.68A3.28,3.28,0,0,1,437,798c.54-.9,1.1-1.1,2.25-2.09a7.86,7.86,0,0,0,2.24-2.4c.65-1.46-.14-3.07-1.44-5.62a36.33,36.33,0,0,0-3.85-5.77,23.13,23.13,0,0,0-3.37-4c-1.2-.86-2.78-1.54-7.7-1.92-5.6-.44-5.37.3-8.34-.17a23.23,23.23,0,0,1-10.59-4.81c-.11-.08,0,0-4.81-4.65-2.47-2.38-3.19-3.07-3.53-4.33-.5-1.85.35-3,1-5.45a21.64,21.64,0,0,0,0-9.15c-.84-3.51-2.72-4.23-6.57-9-4.52-5.56-3.07-5.95-8-12.67-4.52-6.14-6.3-6.58-8.82-11.39a29.18,29.18,0,0,1-3.21-9.14c-.71-3.73-.55-6.55-1.77-6.9-.94-.27-1.5,1.3-4.33,2.89a9.74,9.74,0,0,1-5.13,1.6,9.31,9.31,0,0,1-5.13-1.92c-2.71-1.87-2.65-3.45-4.17-3.69-2.23-.36-4.49,2.69-5.94,4.65-2.8,3.79-1.88,5-4.65,8.18a19.67,19.67,0,0,1-5.61,4.49,10.23,10.23,0,0,1-3.53,1.45c-2.19.28-3.69-.72-9.95-4.34-3.91-2.26-5-2.86-6.25-2.4-1.51.57-1.28,2.07-3.21,3.37-2.13,1.43-3.27.18-5.61,1.28-3.41,1.59-3,5.15-5.78,5.77-.4.09-.84.12-4.81-1.28-5-1.77-4.9-2-5.78-2.08-3-.26-4.15,2.43-9.94,7.37-5.27,4.5-5.44,3.29-10.91,8-4.27,3.71-4.85,5.06-7.38,5.62-3.82.85-4.95-1.67-9.3-1.12-4.59.58-7.63,3.93-9.14,5.61-2,2.16-4.12,4.55-3.53,6.9.71,2.84,4.91,3.41,4.81,5.77a3.74,3.74,0,0,1-1.6,2.41c-2.7,2.45-5,1.33-6.74,2.72-2.91,2.29.59,7.33-1.92,16.2a12.69,12.69,0,0,1-3.85,6.58,10,10,0,0,1-3.37,1.93c-2.85.92-4.15-.21-5.14.64-2,1.74,2.05,7.74.17,9.46-1.29,1.18-4.62-.33-6.42-1.6-3.18-2.26-1.57-5.42-4.65-7.86a9.87,9.87,0,0,0-5.46-1.93c-2.43-.07-2.9.93-4.49.64-1.82-.33-2.42-1.87-5.77-7-.12-.18-2.47-3.79-5.78-7.86-1.89-2.33-2.6-3-3.69-3.37-1.32-.48-2.45-.3-6.89,1-4.6,1.31-6.91,2-8.34,2.57-4.46,1.86-5,3-7.06,2.72-.54-.06-1.71-.28-5.45-3.68-3.55-3.23-3.83-4.25-7.22-7.54-4-3.87-4.64-3.47-5.46-5.3-1.43-3.19-.61-7,0-9.78.81-3.7,2-5.48,1-6.9-.65-.88-1.57-.84-3.53-1.44a23,23,0,0,1-6.74-3.53c-1.93-1.35-5.15-3.59-6.42-7.22-1.33-3.83,1-4.84.16-8.18-1.59-6.2-10.3-5.11-15.87-13.79a38.36,38.36,0,0,1-3-6.26c-1.81-4.36-2.73-6.58-2.89-9.62-.24-4.56,1.46-6.14.16-8.18-.64-1-1.57-1.43-6.58-2.57-8.1-1.85-12.15-2.77-14.91-2.57-2.94.22-4.4.81-6.42-.16-2.19-1-2.08-2.51-4.49-4-2.85-1.76-6.84-2.08-7.86-.64-.79,1.12.64,2.67-.32,4.17-.18.29-.64.86-2.89,1.45s-5,1.29-8,.16a10.78,10.78,0,0,1-4-2.73c-3.9-4.07,0-8.91-3.21-14.6-1.58-2.78-2.46-1.68-5.29-5.77s-2.41-5.9-5.13-8c-1.88-1.47-3-1.34-5-3.37-1.18-1.22-2.47-2.56-2.41-4.17.08-2.31,2.84-2.65,5-5.61,2.39-3.33,2.14-7.37,1.93-10.91-.24-3.84-1.1-4.15-2.09-9.47a47,47,0,0,1-1-11.38c.33-6.6,2.17-8.23,1.44-14.12-.55-4.43-1.84-5.54-2.4-5.93-2-1.39-3.81,0-6.42-1.45-2-1.1-4-3.62-3.53-5.45.64-2.3,4.6-1.3,8.66-4.65,2.51-2.07,1.64-3,5-7.06,3.19-3.92,4.36-3.54,7.7-7.54,2.64-3.17,4.47-5.37,4.65-8.34.2-3.46-2-5-4.49-9.46-.68-1.21-1-2-4.66-16-3-11.72-3.63-14.46-6.57-16.69-2-1.5-2.54-.86-7.06-3.2-4.68-2.43-7.82-4.06-9.78-6.74-4.63-6.32,1.81-12.26-2.09-24.22a63.31,63.31,0,0,1-2.41-7.86c-.72-3.31-.68-4.73-1.44-9.46-.67-4.21-.85-4-1.6-8.34-1.76-10.07-.68-10.47-2.25-13.64C7,426.32,5.5,426.9,2.79,421.73a20.09,20.09,0,0,1-2.57-7.38c-.21-1.72-.65-5.29,1-8.34,2.2-4.14,5.7-2.6,12.51-7.38,5.12-3.59,5.41-6,10.91-8.66a32.13,32.13,0,0,1,6.26-2.08c7.46-2.13,11.13-5.64,18.76-10.75,2-1.32,7.73-4.52,19.25-10.91,15.61-8.66,14.7-7.62,22.46-12.19,14.14-8.33,13.88-9.85,22.93-14.11,11-5.17,12-3.22,19.89-7.86,11.21-6.57,8.66-10.14,18.93-15.4,8.53-4.37,14.12-3.87,19.41-10.27,1.93-2.32,2.25-3.68,5-6.25,3.72-3.52,6.28-4,11.23-7.54,3.8-2.72,3.54-3.33,7.22-6.26,7.32-5.83,11.16-5.64,18.93-10.58,2.76-1.76,8.28-8.34,11.22-9.31a25,25,0,0,0,3.53-1.44c1.25-.62,1.37-1,1.77-1,1.53.25.07,5.4,2.72,8.5s7.55,1.44,9.47,5c.8,1.48.72,3.18,1.28,3.21.74,0,.69-2.9,2.41-3.69,1.18-.55,2.26.35,5.77,1.76,2.14.87,1.42.41,5.13,1.77,2.08.76,4.09,1.59,8,3.21,3.35,1.37,3.11,1.3,4.66,1.92,4.56,1.82,4.42,1.56,7.21,2.73,5.37,2.25,8.06,3.37,8.34,3.53a5.89,5.89,0,0,0,3.21.8c1.13-.07,2.54-.55,2.57-1.12s-1.88-1.08-5-2.25-3.24-1.56-6.42-2.89c-3.36-1.4-3.81-1.21-8.82-2.88-5.37-1.8-8.06-2.7-10.75-4.17-3.92-2.15-4.5-3.34-7.38-3.85a36.24,36.24,0,0,0-6.09-.65c-1.49,0-3.06.16-3.21-.32s1.92-1.37,1.76-2.24c-.12-.65-1.44-.93-2.68-1.18a37.3,37.3,0,0,0-4.37-.43c0-.26,5.21-2.62,10.1-1,.94.32,2.23.91,2.57.48s-.37-1.61-1.12-2.4c-1.17-1.23-2.13-1.14-4.82-2.25-3-1.25-2.75-1.77-4.49-2.08-1.94-.35-2.65.22-4.17-.49-.38-.17-2.17-1.07-2.24-2.4-.06-1.09,1.06-2,2.4-2.89,3.54-2.3,6-2.62,8.66-3.69,4.9-2,3.89-3.85,9.47-6.57,4.3-2.11,5-1,8.66-3,4.11-2.27,4.64-4.45,8.18-7.54,4.57-4,6.22-2.57,13.47-6.58a63.55,63.55,0,0,0,15.4-12.19c2.89-3.24,4.81-6.22,9.46-9.14a38.22,38.22,0,0,1,5.94-2.89c7.18-3.15,7.93-5.34,17.8-11.71,3.64-2.35,1.49-.73,15.08-8.66,5.74-3.35,7.62-4.51,11.07-5.77,5.2-1.91,5.85-1.07,10.91-2.89s9.82-3.53,12.67-8.18c.2-.33,4-6.66,1.6-10.75-.7-1.21-1.58-1.59-2.24-3.37a7.14,7.14,0,0,1,0-5.61c1.34-2.77,4.58-3.73,6.73-3.69a10.3,10.3,0,0,1,3.37.8,13.73,13.73,0,0,1,4.33,2.25,11.38,11.38,0,0,1,4,11.87,18.91,18.91,0,0,1-1.44,3.85c-.81,2.07-1,4.27.16,11.23.81,4.87,1.29,6.09,2.73,13,1.07,5.16,1.6,7.74,1.76,9.46.27,2.92.25,5.56.78,11.66.06.7.11,1.23.18,2,.43,4.19,1,7.18,1.29,8.82,1.49,8.32,1.44,11,3.2,17.64,1,3.74,1.3,4,1.45,4,.6-.08.45-5.64,0-9.94a83.39,83.39,0,0,0-1.45-8.66c-.88-4.32-1.2-4.85-1.76-7.54-1.26-6.09-.26-6.54-1.28-14.76-.61-4.83-1.56-9.55-1.93-11.39-.92-4.55-1.08-4.45-1.28-6.41-.26-2.59-.48-7.69-.8-10.11-.08-.56-.16-1.07-.16-1.07a20.92,20.92,0,0,0-.58-2.73c-.33-1.11-.5-1.21-.39-1.49.3-.75,2-1.17,3.05-.64,1.75.89,1.6,4.51,1.45,8-.21,4.65-1.12,7.07.32,10.1.22.48.79,1.65,1.44,1.6,1.29-.08,1.08-4.8,3.69-5.93,1.29-.56,2.17.24,2.89-.48s.33-2.65-.32-5a40.81,40.81,0,0,0-1.45-4c-1.44-3.79-1.88-4.42-1.6-4.66.49-.42,2.76.76,3.69,2.73a7.15,7.15,0,0,1,.48,2.57c.24,2.14,1.05,3.6,2.24,5.77,1.69,3.07,2.74,3.07,5,6.1,2.92,4,2,5.09,4.81,9.14,2,2.87,2.4,2.16,5.61,5.94a74.5,74.5,0,0,1,6.74,9.78,73.11,73.11,0,0,0,4.17,6.58c2.42,3.18,2.86,2.88,4.17,5.13,1.74,3,1.67,4.72,3.69,6.09,1.17.8,2.87,1.36,3.37.81.77-.85-1.52-4.1-2.25-5.14-1.88-2.67-2.74-2.8-5.13-5.77a48.88,48.88,0,0,1-3.53-5.13c-1.64-2.63-1.62-3-3.05-5.3-2.23-3.65-2.76-3.6-4.81-6.89s-1.57-3.47-3.69-6.9c-1.09-1.78-2.38-3.48-5-6.9-1.8-2.38-2.63-3.37-4.33-5.77-1.21-1.72-1.83-2.6-2.57-3.85-1.46-2.5-1.38-3-2.73-5.14s-1.6-1.87-2.72-3.85c-1.87-3.27-1.8-5.1-1.77-5.61.08-1,.33-1,.32-1.92,0-2.17-1.27-2.75-1.28-4.5,0-1.56,1-1.51,1.28-3.36.22-1.41-.29-1.86-1.12-5.14-.67-2.64-1-4-.48-4.81.81-1.31,3-1.82,4.65-1.12,2.33,1,2.55,4.21,2.57,4.49.2,3.73-3.19,5.84-2.25,7.54.47.84,1.67,1,3.05,1.12,3.93.43,4.81-1.57,8.18-1.44s4.42,2.36,7.06,1.6c1.74-.5,1.59-1.54,3.53-2.4,2.84-1.27,4.42.42,7.7,0,2.47-.33,2.32-1.39,7.86-4.66a62.57,62.57,0,0,1,8.5-4.17,66,66,0,0,1,8.18-2.56c6.11-1.62,6.61-1.18,11.07-2.57,2.64-.82,5-1.77,8.18-3.05,4.87-1.95,5.7-2.53,7.69-2.56.71,0,4.8,0,7.54,2.72,2.33,2.32,1.17,4.1,3,11.07A124.87,124.87,0,0,0,514,158a15.55,15.55,0,0,1,1.61,5.62c.06,1.21.26,4.79-1.93,7.37s-4.1,1.24-7.54,4.18a12.08,12.08,0,0,0-3.85,5.61,9.42,9.42,0,0,0-.32,5.29c1,3.55,3.87,3.67,6.9,8.82,1.67,2.85,1.4,3.87,1.12,4.34-.74,1.25-2.73.57-3.37,1.6-1,1.58,2.74,4.66,5.3,9.46,1.77,3.33.81,3.41,3,10.59,2.32,7.44,3.47,11.16,6.58,14.11,2.87,2.74,3.75,1.52,8.34,5.3,3.41,2.8,3,3.57,7.22,7.06a30.09,30.09,0,0,0,8,5.13,39.21,39.21,0,0,0,5,1.44c3.75,1,7.61,1.77,9.47,2.09,5.33.9,7.83-.11,18.28-.81,12.26-.82,12.81.3,19.73-1.12,3.87-.79,7.62-2,11.71-3.21,5.08-1.56,8.15-2.72,10.91-3.69a191.53,191.53,0,0,1,23.9-6.57c8.7-1.88,15.49-2.73,20.69-3.37,10.66-1.31,11.12-.74,21-2.09,3.85-.52,10.64-1.45,19.41-3.36,8.26-1.81,9.84-2.65,15.88-3.37,4.35-.52,7.82-.4,14.76-.16,6.45.22,8.89.69,10.42,2.56s1.14,3.8,3,4.82c1.32.7,2.11.09,5.29.16a24.92,24.92,0,0,1,5.78.8c2.51.68,5.57,1.5,6.73,3.85.68,1.36.27,2.34,0,5-.31,3,.13,2.79.32,9.78.17,6-.17,5.34,0,11.07.21,6.88.65,6.06.49,9.63-.14,2.94-.48,4.49.32,6.73a8.62,8.62,0,0,0,3.37,4.65c1.84,1.15,3.37.79,8.82.65,4.24-.11,3.1.11,7.05,0,9.57-.29,9.9-1.43,18.93-1.93,6-.33,7.75.07,9.63-1.6,2-1.82,1.66-3.81,4.49-6.42,1.82-1.67,4.77-3.43,5.93-2.56.77.57.46,2.19-.16,5.45-.59,3.1-.88,4.65-1.92,6.41-1.73,2.92-3.49,3.13-3.53,4.82-.05,2,2.36,3.73,4,4.49,4.39,2,9.35-.35,12.35-1.77a11.14,11.14,0,0,0,3.85-2.4c2-2.12,1.58-3.9,3.85-7.7,1.17-2,1.85-3.07,3.21-3.69,2.15-1,5.16-.81,6.09.64.61.94,0,1.84.64,2.57.87.94,2.86.43,3.85.16a39.12,39.12,0,0,0,9.63-4c5-3.16,7.42-4.73,9.78-6.42,7.16-5.12,10.74-7.68,12.19-9.14,6-6,6.21-9.75,10.59-10.75,1.9-.43,1.6.33,7.7,1.12a60.77,60.77,0,0,0,15.4.17,34.5,34.5,0,0,0,5.29-1A33,33,0,0,0,941,248.18c8.78-6.79,8.69-8,13.63-11.55,9.3-6.73,11.73-4.08,19.89-10.75,4.89-4,4.32-5.19,10.91-10.58,5.36-4.39,7.16-4.77,11.23-8.35,4.72-4.16,6.21-7.1,10.26-12.51,14.6-19.46,26-22.18,27.59-32.56.19-1.24.53-4.57,3-6.74s6.11-3.34,8-1.92c1.56,1.16,1,3.46,1.28,6.1.91,10.11,11.71,11.55,12.35,20.53.28,3.87-1.69,4.16-2.08,11.87-.23,4.55.43,5,.32,8.34-.13,4-1.19,7.06-8.34,21.17-2.74,5.39-6.48,8.46-5.3,10.27.56.84,1.55.57,4.34,1.6,3.25,1.21,3.6,2.21,5.93,3.21s4.75.87,9.62.64a47.23,47.23,0,0,0,9.15-1.28c3.09-.79,4.66-1.1,5.77-1.93,2.42-1.8,3.43-4.62,4.73-8.3.8-2.23,1.24-4.2,2.89-6.13a5.92,5.92,0,0,1,2.77-1.93,3.78,3.78,0,0,1,2.28-.12,3,3,0,0,1,2.17,2.05c.29,1.41-1.75,2.14-1.57,3,.33,1.54,6.62-.65,11.07,2.29,3.66,2.42,2.46,5.93,7.22,10.34a27.43,27.43,0,0,1,3.49,3.73c1.35,1.77,1.22,2.08,2.28,3.49,2.72,3.62,5.42,4.11,5.3,5.66-.08,1-1.14,1.34-3,2.52s-7.9,5-7.58,8.18c.2,1.94,2.72,3.27,4.09,3.73s2.75.38,8.18-1c5.94-1.47,5.72-1.65,7-1.68.74,0,6.94-.09,9.26,4a6.8,6.8,0,0,1,.42.88c.31.82.92,2.86-.3,6.45a24.24,24.24,0,0,1-6.73,9.75c-2.36,2.09-2.53,1.55-7.34,5a64.12,64.12,0,0,0-7.82,6.38c-4.64,4.54-3.64,5.37-6.62,7.34-4,2.64-6.35,1.49-9.38,4.57-.94.95-1.67,2.28-3.13,4.93-2,3.64-3,5.46-3.49,7.58-.92,4,.74,4.73.84,12,0,1.8-.08,1.36-.36,7.34-.26,5.67-.4,8.5-.36,10.46,0,.42,0,2,.11,5,.12,5.16.25,10.16.25,10.16-2.44,1.83-4.43,3.27-5.77,4.21-2.44,1.72-4.07,2.8-3.85,3.73a1.78,1.78,0,0,0,1.68,1.08c1.31,0,1.89-1.4,4-3.33,1.73-1.59,2.16-1.38,3.21-2.4,1.66-1.62,2-3.61,2.73-7.54a47.14,47.14,0,0,0,.64-11.07c-.2-3.05-.47-2.78-.64-5.77-.27-4.76.44-5.23.32-9.79-.09-3.61-.55-3.83-.8-9.3-.14-3.08-.21-4.64.16-5.94.8-2.81,2.56-4.63,5-7.05a59.63,59.63,0,0,1,5.45-4.65c8.13-6.59,8.39-7,10.75-8.51,2.66-1.68,3-1.58,6.26-3.68a54.29,54.29,0,0,0,6.25-4.66,33.93,33.93,0,0,0,4.17-4.17,35.58,35.58,0,0,0,3.37-5c2.1-3.83.29-12.09,3.85-15.08,1.49-1.25,4.27-.85,9.78,0,9.83,1.52,10.87,3.7,16,3.21,3.76-.35,3.38-1.52,11.39-4,4.9-1.52,8.44-2.62,12-2.73,6.69-.2,10.86,3.11,18.61,7.7,7.1,4.21,14.76,7.38,22.13,11.07,11.12,5.56,9.17,4.2,38,17.81,7.36,3.47,9.7,4.6,14,6.25a169.7,169.7,0,0,0,23.42,7.06c6.71,1.59,19.21,4.42,19.41,3.69s-8.26-3.59-15.72-5.62c-6.69-1.82-7.89-1.45-13.15-2.88-6.48-1.77-9.44-3.54-18.13-7.54-11.5-5.31-10.42-4.1-21.49-9.14-13.39-6.11-11.26-6.17-25-12.52-14-6.43-16.73-6.62-22.94-11.38-3.16-2.43-4.84-4.22-8.66-5.78-7.43-3-14.55-1.78-17.16-1.28-7.46,1.41-6.11,3.62-13.48,5.29,0,0-10.53,2.39-24.86-3.21a6.16,6.16,0,0,1-2.41-1.44c-2.18-2.24-1-5.12-2.4-10.43a13.29,13.29,0,0,0-1.61-4.33c-2-3.07-4.51-2.84-9.62-5.61-2.83-1.54-5.15-3.43-9.78-7.22a65.42,65.42,0,0,1-5.62-5,49.44,49.44,0,0,1-5.13-5.94,48.26,48.26,0,0,1-4.33-7.54c-3-6-2.42-4-8.82-15.87-2.47-4.56-3.7-6.84-5-9.47-5.08-10.42-5.26-13.39-5.29-14.6-.08-3.32.74-4.39-.16-7.05-1-2.87-3-4.64-5.29-6.74s-4.25-3.81-7.38-5c-5.15-1.92-7.18.2-12.67-2.09a21.77,21.77,0,0,1-4.65-2.72c-2.8-2-6.31-4.49-8.19-8.83-1.56-3.62-2.45-9.62.49-12.19a6.35,6.35,0,0,1,4.33-1.28c9.41.1,16.67,1.11,20.69,1.28,11.59.51,19.16-5,26.3-1.76a6,6,0,0,1,2.89,2.24c2.13,3.54-2.06,7.69-.32,10.59,1.07,1.8,3.25,1.18,8.5,2.41,6.9,1.61,6.49,3.47,12.51,4.81a32.14,32.14,0,0,0,13.64,0c1.59-.35,4.16-1.41,9.3-3.53,9.15-3.78,10.36-4.83,11.23-6.26,1.56-2.55,1.36-5.26,1.12-8.5-.37-5-2.2-8.77-3.85-12a48.89,48.89,0,0,0-3.69-6.09c-3.81-5.57-5.58-6.42-10.1-12.35-5-6.52-5.46-8.93-5.62-10.11a14.74,14.74,0,0,1,1.13-8c1.51-3.29,3.07-3.07,4.49-6.09,1.27-2.71,1.89-6.91.16-10.11-2.42-4.47-7.78-3.94-8-6.41-.18-1.85,2.73-3.19,11.71-8.34,8-4.63,6.87-4.23,12.35-7.22,7.8-4.27,11.7-6.41,14.43-7.06,5.31-1.28,7.47-.37,11.39-2.73,3.4-2,3.21-3.57,6.42-5.13,3.49-1.7,5.14-.58,11.23-1.12,6.51-.59,6.4-2,13.79-2.89,5-.59,8-.9,11.55.48,1.37.54,6.84,2.69,7.7,6.9.8,4-3.28,5.84-6.58,13.47-1.68,3.88-2.12,6.84-2.89,12-1.25,8.47-2.33,15.75,1.77,19.57a9,9,0,0,0,5,2.25c3.1.29,4.61-1.49,9.14-3.69,3.66-1.78,7.19-3.49,11.39-3.37,3.43.1,3.3,1.31,9.63,2.89,5.65,1.4,6,.51,10.9,1.92,4.62,1.34,4.67,2.25,9.15,3.37a42.2,42.2,0,0,0,8.82,1.12c6.51.32,10.08-.57,11.87-1.12,2.46-.76,3.11-1.35,3.37-1.6,2.14-2.13,1.08-4.93,1.6-9.31.17-1.43,1.3-9.66,6.42-12.35,2.93-1.54,4.27.26,7.05-1.44,2.57-1.57,1.84-3.35,5.62-9.47a27.63,27.63,0,0,1,5.93-7.21,38,38,0,0,1,4.17-2.73c4.94-3.37,4.28-6.59,8.83-12,4.78-5.72,7.29-4.28,9.94-9.3,2.07-3.91,1.13-5.88,3.53-8.18,2-1.95,4.64-2.24,9.78-2.73a39.06,39.06,0,0,1,14.92.8,40.86,40.86,0,0,1,10,4.33c3.9,2.15,5.88,3.27,6.89,5.29s.69,3.86,2.41,5.3c.25.2.79.61,3.85,1.44,4.24,1.15,4.76.78,5.77,1.45s2,2.15,2.41,8.18c.49,6.72.73,10.08-.32,13-2,5.4-5.28,5.51-8.18,10.91-1.33,2.46-3.85,7.59-2.41,12.83.43,1.55.86,1.85,1.77,4.81,1.25,4.11,2.15,7,1,8.18-.91.86-2.42.07-8.34-1.6-6.5-1.84-5.84-1.21-8.66-2.25-6.3-2.33-7.2-4.59-10.27-4.17-4.09.55-6.32,5.09-6.42,5.29-2.48,5.23.62,11.49,4.18,14.76a15.24,15.24,0,0,0,9.14,3.85c4.47.23,5.88-1.89,12.83-3.85a46.61,46.61,0,0,1,11.07-1.76c8.7-.27,9.3,2.66,16.68,2.08,5.53-.43,6.41-2.18,13.31-2.41,4-.13,6-.2,8.5.81,1,.42,3.21,1.46,10.43,9.78,3.87,4.46,4.13,5.18,5.61,5.61,5.08,1.5,10.92-4.34,12.19-5.61,3.73-3.72,3-5.33,6.42-9.78,4.15-5.42,6.33-4.49,13.79-11.07,4.36-3.85,3-3.63,11.39-12.35,8-8.27,9.21-8.51,10.11-11.55,1.68-5.68-1.94-7.45-.48-15.24.63-3.38,2-5.94,4.65-11.07,2.88-5.5,4.36-8.25,6.74-8.66,3.55-.61,7.26,3.59,8.34,4.81,3,3.44,2.84,6,5.77,7.38,1.62.77,2.75.5,5.45.48a40.4,40.4,0,0,1,11.23,1.45c5.35,1.76,8.13,8.9,13.48,23.09,2.44,6.5,3.66,9.81,3.52,12.68-.23,5-2.39,7.48-9.46,18.6-9.47,14.91-10,17.3-9.62,19.73.47,3.4,2.11,3.75,10.42,13.64,9.44,11.22,7.24,10.68,13.64,17.48,4.71,5,7.63,7.14,9.62,12.35a31.54,31.54,0,0,1,1.77,9.14c.57,6.35-.46,8.63.16,16.52.43,5.52,1.14,7,2.24,8s1.79.86,7.06,2.89c3.91,1.51,4,1.77,5.45,2.09a16.61,16.61,0,0,0,8-.48c5.5-1.5,5.85-3.87,12.83-7.06,3.75-1.71,5.62-2.57,8.19-2.41,3.15.2,4.08,1.68,10.42,5.78,8.15,5.26,10.07,5,11.87,8.34a14.58,14.58,0,0,1,1.44,8.82c-.45,3.29-1.65,3.47-3.52,8.34s-.88,5.38-2.89,11.55c-1.77,5.4-3,6.33-2.41,8.66.7,2.88,3.43,5.07,5.94,5.94,2.28.78,3.69.23,11.55-1.29,4.06-.78,6.09-1.17,7.05-1.28,3.7-.42,6.4-.05,16.2,1.92,11.21,2.26,11.44,2.54,14.12,2.57,4.18,0,10.62.13,13.47-3.69.81-1.07,1.31-2.43,3.37-5.13a20.55,20.55,0,0,1,2.89-3.37c3.65-2.86,9.27,2.3,21.33,5,7,1.54,9,.69,13.64,3.21,5.08,2.77,5.25,5.22,7.7,5.13,6.06-.2,6.06-15.36,17-20.21,2.87-1.27,4-.74,7.7-2.72,3.12-1.7,4.31-3.18,9.94-8.34,4.83-4.44,7.28-6.67,8.82-7.22,6.74-2.44,13.31,1.56,13.64,1.76,3,1.9,3,3.37,6.73,8.18,6.6,8.45,10.33,8.54,16.69,17,2.68,3.58,4,5.37,5.13,8.18,3.75,9.56,2.4,23.64,1.12,37.06a4.87,4.87,0,0,0,.64,3.21,5.35,5.35,0,0,0,3.37,1.92c4.17.93,2.09,2,17,7.38,6.59,2.36,5.69,1.68,10.59,3.53a139.25,139.25,0,0,1,14,6.25c9.17,4.67,13.78,7.07,14.91,10.43s0,6.63,2.25,8c.74.46,1.28.36,4.81.48,0,0,2,.07,5.94.32a53.84,53.84,0,0,1,8.82,1.44c7.61,1.69,7.64,2.75,10.26,2.41,3.79-.49,3.16-2.64,8.34-4.49,4.47-1.6,6-.39,12.52-2.41,3.21-1,2.87-1.3,4.33-1.44,4.87-.46,8.94,3,12.19,5.77,3.07,2.62,4.6,3.93,5.13,5.94,1,3.85-2,5.73-1,10.26.59,2.64,1.67,2.33,2.88,5.94,1.56,4.61.46,7.06,1.77,7.7.93.45,2.25-.4,8.34-5.46,4.65-3.85,7-5.89,7.86-5.29s-.61,3.34.48,4.17,4.93-.89,6.9-3.85c1.24-1.87,1-3,1.76-3.21,2-.53,5.43,6.27,7.7,10.75a42.19,42.19,0,0,1,3.37,7.86c1.11,3.78,1.94,6.61,1.12,10.11-.2.85-1.31,5.59-5.29,7.86-2.85,1.62-4.3.33-7.06,1.44-6.37,2.57-9.47,13.82-6.41,16.84,1.65,1.64,4-.26,7,1.77,3.49,2.31,3.82,7,3.85,7.53.13,2.32-.41,6.7-3,7.86s-4.38-2-9.14-1.6c-1,.09-4.52.38-6.09,2.73-1.75,2.61.44,5.4.48,11.55,0,3.56-.78,3.12-1,7.21-.29,6.22,1.19,8.7-.33,10.27-.26.28-.87.75-7.21.16-5.6-.52-6.74-1.05-7.7-.16-1.28,1.18-.18,3-1,7.54a26.55,26.55,0,0,1-1.45,5c-2.73,7.48-5.84,8.12-5.77,11.55.07,3.68,3.67,3.55,5.77,9,.84,2.18.74,5.71.48,12.67-.19,5.41-.3,8.16-1,10.91a25.92,25.92,0,0,1-4,9.79c-1.37,1.91-2.33,2.59-4.65,4.81-4.26,4.07-4.23,4.86-9,9.94-7.83,8.37-10.35,8.83-10.75,12.51,0,.33-.47,5,3,7.86,1.88,1.52,3.49.31,8,1.45,3.46.87,5.42,1.36,6.25,2.88,1.3,2.38-1.42,4.94-6.09,14.92-1.94,4.13-1.7,4.18-3.21,7.06-2.92,5.57-4,5.82-6.1,9.94-3.4,6.82-1.59,8.64-4.33,11.07-3.44,3.06-6.31.19-11.87,3.37-4.3,2.46-6.74,6.56-8.18,9-1.72,2.9-1.8,4.12-3,6.74-2,4.17-4.72,6.84-10.11,12-13.79,13.26-14.55,13.79-15.4,16.2-1.9,5.4-.92,10.83-.16,15.08a30,30,0,0,0,3.85,11.22c4.25,6.84,8.1,5.33,12.19,11.39,4.4,6.52,1,9.79,5.94,16.85,3.24,4.62,5,3.57,8.18,8.82a28.75,28.75,0,0,1,4.17,12.83,20.36,20.36,0,0,1-.16,5.13c-.62,3.58-2.13,6-6.1,11.87-1.79,2.68-2.69,4-4.65,6.9-3.76,5.52-2.65,9.86-3.21,27.59-.44,13.87-1.19,17.61-1.92,20.45-1.46,5.62-2.57,9.89-6,14.19-1.88,2.35-3.84,3.93-6.49,8-2.23,3.43-2,4-3.61,6.66-1.15,1.82-2.53,3.54-11.79,11.07-6.4,5.21-6.82,5.27-9.39,7.7s-3.29,3.44-7.69,8.42c-9.7,11-9.88,10.37-10.89,12.43-4.24,8.7-.87,19.07.3,19.09,1,0,0-7.11,4.33-15.4,2.16-4.13,4.21-5.83,11.31-12.75,5.92-5.78,11.63-11.78,17.46-17.66,7.46-7.55,10.93-11.15,15-16.51,1.58-2.07,2.94-4,5-7,4.78-6.76,7.19-10.18,8-12.43,1-2.77,3-9.37,3.34-10.29.49-1.5.49-1.48.51-1.58,2.85-13.26,1-26.78,1-26.78-.36-2.59-1-6.05,1-9,.86-1.3,2.57-2.27,5.93-4.17,4.89-2.75,7.39-4.12,10-4,1.93.09,1.69.67,5.77,1.61s6.08,1.39,7.86.64c2.21-.93,2.3-2.89,4.81-7.86,2.24-4.42,4.13-8.17,7.7-10.91,1.31-1,6-4.56,10.11-3.2,3.58,1.16,3.16,4.78,8.18,10.58a29.51,29.51,0,0,0,9.46,7.54c2.33,1.14,8.56,4.2,15.4,2.57,4.53-1.08,6.56-3.56,8.34-2.41,2.32,1.5.33,6.68,3.21,8.5a4.82,4.82,0,0,0,3.69.32c2.58-.64,3.31-2.73,7-7.54,3.54-4.53,5.2-5.62,6.42-6.25s4-2.07,5.61-1,.16,3.75,1.77,8.34a13.14,13.14,0,0,0,3,5.13,12.83,12.83,0,0,0,7.7,3.53c3.83.35,4.9-1.38,10.42-3,7.18-2.16,7.76,0,14.6-2.08,6-1.88,6.81-4,10.74-3.69,3,.22,3.82,1.56,8.51,3.53a48.39,48.39,0,0,0,11.54,3c9.65,1.19,13.15-2.33,17.49.8,1.92,1.39,1.77,2.46,5,4.82s4.79,2.39,5.45,4.17c.75,2-.75,3.37-1.44,6.41-.79,3.48.68,4.27,1.12,9.63.49,5.84-.68,9.29,0,9.46s3.26-3.82,4.49-8.18c.43-1.51.48-2.24,1.13-2.57,1.6-.79,3.72,2.46,8.5,4.66a22.38,22.38,0,0,0,6.41,1.76c4.08.62,6-.08,11.55-.64,7.89-.8,11.84-1.2,14.6.64s4.14,5.09,5.29,7.86c1.47,3.53.95,4.54,1.93,7.54,2.11,6.47,5.83,5.87,9.46,12.67,2.83,5.31.84,6.2,4.33,12.83a48,48,0,0,0,5.94,8.66c1.08,1.26,1.94,1.65,2.88,3.05,2,3,1.25,4.7,2.57,7.22,1.93,3.68,5.16,3.08,6.9,5.77,3.07,4.77-.08,13.36-2.73,13.64-1.77.19-3.54-3.32-3.69-3.21s1.87,2.44,3.37,5.29c3.06,5.81,2.22,10.2,4.33,10.75.8.2,1.13-.36,3.85-1.76a33.15,33.15,0,0,1,6.26-2.57c2.14-.52,4.61.08,9.46,1.28,5.13,1.28,5.82,1.92,9.46,2.57a46.8,46.8,0,0,0,7.54.64c10.34.3,12.78-1.55,16,.64,2.2,1.48,3.89,4.2,3.69,6.74-.17,2.24-1.72,3-5.61,7.06-5.15,5.38-7.72,8.07-8.5,11.71-.63,2.88.09,4.47-1.45,7-1.36,2.3-2.43,1.88-4,4-2.55,3.44-2.31,7.93-2.08,12,.23,4.3,1,3.8.8,6.26-.49,6.87-6.3,11.35-7.22,12-3.13,2.34-5.13,2.28-7.22,3.37-8.43,4.4-11.95,18.56-7.54,26.78.76,1.41.74.77,2.25,3.05,5.82,8.8,6.27,18.62,10.59,23.42a5.57,5.57,0,0,0,2.24,1.6c1.81.68,3.21,0,5.78-.64,5.42-1.36,6-.08,8.82-1.6,2.3-1.26,2.21-2.31,4.17-2.89,2.2-.65,3.95.21,6.26,1a39.52,39.52,0,0,0,12.67,1.77c5.31,0,6.19-1.15,10.1-.32.83.17,2.09.5,6.74,2.88,11.52,5.92,11.56,7.92,16.52,9,.87.18,3.65.72,3.69,1.6,0,.41-.57.63-1.44,1.44a13.65,13.65,0,0,0-1.93,2.57c-1.67,2.71-3,10.83.16,16.52.53.94,1.87,3,2.09,3.37a36.76,36.76,0,0,0,2.72,4c2.43,2.39,6.11,2.82,8,3,2.59.3,3.88-.08,4.82,1s.7,2.41.64,3.53c-.23,3.85.94,4.27,1.6,9.46a40,40,0,0,1-1.44,17c-1.19,3.71-1.65,3-2.73,6.57-2.28,7.54.18,9.3-1.76,14.92-1.46,4.2-3,3.56-7.22,11.23-2.62,4.7-3.93,7-3.85,8.82.21,4.93,5.11,6.12,14.11,16.52,2.48,2.86,2,2.69,5.62,6.9,5,5.85,7.46,8.77,10.26,11.07,3.07,2.51,4.33,2.9,5.62,5.13.37.64,2.61,4.54,1.44,8.18-2,6.13-11.08,3.52-17.48,11.71-1.91,2.44-2.72,4.73-5.94,6.73a13.82,13.82,0,0,1-7.06,2.25,15.53,15.53,0,0,1-13.15-7.38c-1.3-2.27-1.27-3.93-3.21-5.13a8.1,8.1,0,0,0-5.93-.64,11.74,11.74,0,0,0-4.17,2.24,19.59,19.59,0,0,0-2.57,2.25c-3.24,3.34-6.2,6.39-8.34,11.07-1.21,2.64-1.61,4.6-2.4,8.5a49.41,49.41,0,0,0-1.34,12.85c.22,5.38,1.35,6.77,0,9.28-1,2-2.75,3.1-5.45,4.81a32.87,32.87,0,0,1-7.06,3.37c-4.9,1.7-6.26,1.22-14.11,2.89-4.91,1-7.41,1.59-9.47,2.73-2.32,1.28-2.71,2.09-7.22,5-3.7,2.37-3.73,2-5.13,3.21-2.52,2.15-2.29,3.19-5.61,7.22a44.84,44.84,0,0,1-5.14,5.29c-2.94,2.56-4.41,3.84-6.57,4.33-3.62.82-5.55-1.17-6.74,0-1.58,1.56,1.92,5.06.64,9.78-.89,3.32-3.21,3.79-2.88,5.94.37,2.49,3.61,2.75,6.09,5.93,1.91,2.46,2.14,5.17,2.41,7.7.7,6.57-1.82,11.16.16,12.51,1.1.76,2.8,0,3.37,1,.34.61-.06,1.33-.33,2.08-1.25,3.56,1.27,5.65.17,7.38-.55.86-1.48.83-9.47,1.6-3.08.3-4.78.49-5.29,1.61-.59,1.28,1,2.51.32,3.69s-3.44,1.69-5.13.64-1.27-3-3.05-3.85a3,3,0,0,0-3.21.32c-.83.84-.15,2-.32,4.17-.24,2.94-1.68,3.1-2.09,5.77-.54,3.56,1.75,4.94.81,6.74-1.35,2.56-6.93,1.6-7.06,2.57-.18,1.33,10.39,1.94,12.35,7.38.63,1.76.17,3.47-.32,5.29a14.05,14.05,0,0,1-5.45,7.86c-4,2.69-10.76,3.83-14.92,0-2.07-1.9-3.88-5.39-3.05-8.5,1-3.82,5.45-5,5-7.22-.34-1.63-2.71-1.28-4-3.69-1-1.84,0-2.72-.64-5.93a9.57,9.57,0,0,0-2.56-5.46c-2.43-2.22-5.94-2-7.22-1.92-2.25.14-2.27.78-5,1-3.2.22-4.06-.62-5.13.16s-.68,2.07-1.6,5.94c-.57,2.39-.85,3.59-1.45,4.49-1.91,2.91-6.55,4.07-10.26,3.37-2.79-.53-2.25-1.58-8.34-4.82-4.14-2.19-5.58-2.34-7.86-4.49a12.56,12.56,0,0,1-3.53-4.81c-1.48-3.89.66-5.57-.64-9.62-.79-2.45-2.71-5.43-4.81-5.46-1.38,0-1.85,1.25-4.33,2.89a21,21,0,0,1-5.62,2.41c-6,2-6.77.86-13.63,2.72-3.18.87-4.44,1.49-7.38,1.77-2.13.2-2.62,0-3.21.48-1.85,1.57.79,5.51,1.12,12.51.11,2.2-.19,1.07-.8,9.46-.8,11-.8,11.07-.8,11.07-.32,5.78-.24,7.25-1.44,8.18-1.68,1.29-3.9-1.59-7.7-1-1.85.3-2.42,1.1-4.82,2.56-3.27,2-4,1.58-12.19,4.66-4.67,1.75-7,2.63-8.66,3.69-2.15,1.38-5.56,3.56-7.54,7.53-1.81,3.65-.75,5.46-2.08,11.39-1.2,5.32-2.56,5-3,8.66-.79,6,2.07,7.71.48,11.07-.52,1.11-1,1.34-8.66,5.94-5.17,3.11-6.82,4.13-8.66,6.25-1.52,1.76-3.3,3.8-3.05,6.26.19,1.86,1.38,2.28,4.17,5.93,2.94,3.85,4.41,5.78,4,7.7-.45,2.2-2.68,1.84-5.45,5.78-1.09,1.54-2.43,3.44-2.09,5.61s1.79,2.26,1.93,4c.21,2.7-3,5-4.33,5.94-2.33,1.66-3.13,1.34-7.54,3.2a39.82,39.82,0,0,0-8.66,4.82c-2.63,2-3.94,3-4.66,4.81-1.3,3.38.33,6.83,1,8.18.89,1.88,1.57,2.29,5.29,6.41,5.84,6.48,6.13,7.66,6.1,8.67-.06,1.81-1.43,3.4-4.17,6.57a24.26,24.26,0,0,1-4.66,4.49c-4.87,3.42-8.24,2.32-9.78,5.14-1.32,2.41.78,3.94-.48,5.61-.6.8-2.32,2.08-17.81,1.44a3.71,3.71,0,0,0-2.56.65c-1.11.89-1.33,2.55-1.13,6.57.16,3.13.39,4.2.65,7.06.62,7.1-.13,8.43-.49,9-1,1.51-1.79,1.2-3.68,3.37a14.65,14.65,0,0,0-2.89,4.81c-1.63,5,2,8,.16,10.91-1,1.6-2.13.76-5.29,2.89-2.68,1.8-4.07,3.87-6.42,7.37s-3.38,5.1-3.21,6.9c.23,2.33,2,3.84,4.33,5.94a34.16,34.16,0,0,0,9.47,5.61c4.29,1.88,5,1.58,7.21,3.21a15.77,15.77,0,0,1,4.66,5.61c1,2,2.62,5.35,1.28,7.22-1.56,2.16-6.91,2-10.59.32-2-.94-3.82-2.5-5.45-1.76a2.84,2.84,0,0,0-1.28,1.28c-.68,1.29-.22,2.74.48,4.65,1.94,5.35,2.65,5.94,2.24,6.74-1,1.94-5.88-.08-7.22,2.08-1,1.56.25,4.71,2.25,5.94,1.63,1,3.21.35,3.53,1.12s-1.29,1.85-3.69,4.65a20.36,20.36,0,0,0-3.69,5.46,16.92,16.92,0,0,0-1.12,5.77,20.46,20.46,0,0,0,.64,8.82c.68,2,1.24,2.27,2.41,4.49,2.16,4.14,2.64,7.91,3.2,12.36.93,7.24-.21,8.65,1.45,10.26,1.41,1.38,4.33,1.42,10.1,1.44,6.74,0,7.22-.7,9,.17,2.53,1.24,2.33,3.13,6.74,10.9,1.93,3.41,3.7,6.1,4.65,7.54,4.91,7.44,5.64,6.94,6.42,9.63,1.41,4.84-.54,7.93,1.92,10.1a20,20,0,0,0,3.85,2.25c2,.94,2.81,1,3.53,1.92a5.45,5.45,0,0,1,.8,4,47.9,47.9,0,0,1-1.6,9.3c-2.49,8.69-2.4,9.39-2.09,10.11,1.31,2.92,5.88,4.69,9.47,4,3.77-.72,4.32-3.75,9.14-4.65a11.87,11.87,0,0,1,5.29.16,12.52,12.52,0,0,1,6.58,4.81c1.54,2.06,1,2.53,2.89,5.93,2.59,4.75,4.26,5,4,6.58-.52,3.21-7.88,2.22-11.23,7.38-.89,1.38-1.08,3.54-1.44,7.86-.67,7.84-1,11.76,1,14.6,1.15,1.67,4.21,2.85,10.26,5.13,8.67,3.26,12.66,3.78,14.12,7.22a6.17,6.17,0,0,1,.32,4.17c-.78,2.4-2.93,2.38-3.85,4.33-1.41,3,2.37,5.68,2.25,9.62-.11,3.27-3.15,5.58-7.22,9s-6.79,4.05-7.22,6.74c-.3,1.87.68,3.25-.32,5.29-.75,1.54-1.58,1.33-2.25,2.57-1.64,3.08,2.33,6.49,1,9.14-.72,1.41-2,.87-5.46,2.41-3.73,1.69-5.83,4-9.3,7.86-2.3,2.55-2.86,3.7-3,5-.06.44-.43,3.23,1.29,4.81,1.21,1.12,2.85,1.08,5.77,1,4.48-.18,5.28-1.23,6.42-.49,2.69,1.77.65,9.23.32,10.43a13,13,0,0,1-2.57,5.61c-1.61,1.86-2.61,1.64-6.58,4.34a27.37,27.37,0,0,0-5.13,4.17,26,26,0,0,0-3.69,5.13c-1.76,3.16-1.36,3.9-2.56,5.29-1.73,2-4.22,2.42-7.38,2.89a33.72,33.72,0,0,1-12.51-.64c-4.69-1.07-7.75-1.76-10.75-4.17-4.94-4-3.84-7.82-8.18-10-3.18-1.56-8-1.58-10.11.8-.69.8-1.11,1.9-1,14.44,0,2.21.06,4.16-1.28,5.61-1.57,1.7-4.12,1.75-5.46,1.77-4.4.07-5.54-2.19-9.3-2.09-2.7.08-3.13,1.27-6.26,2.25-6.27,2-12.3-.44-13.63-1-6.31-2.5-5.77-5.93-12.51-8.5a26.41,26.41,0,0,0-9.46-1.61c-3,0-8.15-.12-13.32,2.89a24.76,24.76,0,0,0-6.09,5.29,43.11,43.11,0,0,0-5.78,8.5c-2.32,4.05-3.49,6.11-3.53,8-.06,3.41,1.88,3.9,1.93,7.38s-1.95,7.94-5,8.66c-.46.11-2.2.44-6.1-2.4-5.35-3.9-5.3-6.85-9.3-10.43-4.88-4.37-10.73-5.15-13-5.45-3.83-.51-9.94-1.33-13,2.08s-.16,7.88-3.69,11.39c-.59.6-1,.78-7.37,2.89-9.13,3-9.79,3.13-10.75,3.21-4.64.36-5.08-1.14-9.46-.32-2.12.39-5.16.95-7.22,3.36-1.52,1.78-1.13,2.94-2.73,4.17s-4.57,2-6.42.81c-2.54-1.65-.43-5.3-3.52-9.63a19.36,19.36,0,0,0-4.66-4.33c-2.62-1.75-4.45-2-4.49-3s1.6-1.44,4.33-3.36a20.89,20.89,0,0,0,5-4.5,12.55,12.55,0,0,0,2.24-9c-.55-3.22-2.49-5.28-4-6.9-2.61-2.77-4.21-2.84-9.3-7-3.26-2.7-3.5-3.42-3.53-4,0-.84.32-2.1,6.58-7.54,2.75-2.4,3.67-3,3.52-3.85-.27-1.65-4.11-1-7.53-3-3.77-2.31-4-6.18-7.86-17.64-2-6-3-9-3.85-10.59-3.88-7.24-9.52-11.17-16.52-16a94.44,94.44,0,0,0-15.72-8.5,61.24,61.24,0,0,0-9.79-3.21c-3.36-.76-3.76-1-4.33-.8-4,1.41-1.68,10.15-6.41,13-2.87,1.73-4.9-.79-9.15,1.45-2.73,1.44-3.76,3.46-5.45,3s-2.5-3.11-2.57-3.37c-.84-3.26,1.66-4.88.64-7.21-.84-2-2.9-1.56-3.85-3.69-.33-.77-.62-2.07.49-5.14,1-2.77,2.12-4.17,5-8.18,5.1-7.17,4.54-6.95,6.9-9.78,1.84-2.21,2.17-2.33,2.4-3.21.41-1.55.21-4.33-7.7-12-6.19-6-7.17-5.39-11.55-10.1-3.55-3.83-3.09-4.45-8.18-10.11C1684,1759.68,1681.57,1757.71,1678.33,1756.58Z"/><path d="M596.59,213.37c-.52,1.76,1.79,2.63,2.89,6.26s-.59,4.46-.16,8.5c.56,5.41,3.71,5.52,4.17,10.42.49,5.24-2.83,8-1.29,9.79,1.25,1.43,4.34.67,8.34-.32,3.54-.88,5.35-1.85,10-3.69.33-.14,5-2,9.14-3.37a102.15,102.15,0,0,1,13.47-3.37c9.21-1.66,8.76-.25,16-1.76,7.55-1.57,8.73-3.22,15.24-3.69,4.66-.34,4.5.47,9.79.32,7.82-.23,9.15-2,18.12-3.21,8.61-1.13,15-.47,15.08-1.28,0-.51-2.47-.69-6.26-2.57a31.92,31.92,0,0,1-6.41-4.33c-5.13-4.19-4.23-5.25-8-7.86a17.71,17.71,0,0,0-9.63-3.53,23.62,23.62,0,0,0-4.49.48c-5.69.92-6.3,2.12-8.34,1.61-2.86-.73-2.38-3.29-5.93-5.14-3.06-1.58-4,0-7.7-1.28-.8-.28-1.42-.58-8.82-6.42-3-2.35-4.22-3.35-6.26-3.52-.51,0-3.4-.3-4.81,1.44-1.62,2,.57,4.27-.48,8-.84,3-3.49,6-5.62,5.77-2.34-.26-2.38-4.34-5.77-5.29a7.18,7.18,0,0,0-4.33.48c-3.4,1.15-3.34,3-6.42,4-2.61.86-3.51-.19-5.13,1-2,1.43-1.58,3.69-2.89,4-1.6.39-2.48-2.94-5.61-4S597.21,211.25,596.59,213.37Z"/><path d="M1068.17,204.07c-3.43.67-5.43,3-9.31,7.54-5,5.91-7.52,8.86-7.22,13a9.47,9.47,0,0,0,3,6.41c2.21,1.82,5.08,1.66,10.75,1.29,6.23-.42,9.34-.62,11.55-2.41s1.62-3.14,5-9.46c3.48-6.57,5.36-7.35,4.81-9.47-.87-3.38-6.57-4.81-11.71-6.09C1071.84,204.06,1070.23,203.66,1068.17,204.07Z"/><path d="M1090.3,208.4a49.46,49.46,0,0,1,8.66,8c2.83,3.45,3.5,5.5,4.65,5.29s2.08-2.81,1.77-5c-.2-1.41-.86-2.33-4-5.78-2.93-3.2-3.88-4.06-5.78-6.25-3.35-3.88-3.82-5.17-4-5.78-.79-2.54.14-3.42,0-6.25-.21-4.46-2.61-4.82-5.29-11.71-1-2.54-.41-1.85-2.73-9.14-1.65-5.22-2.23-6.48-3.2-7.86s-2.44-2.65-5.46-5.3c-2.8-2.45-3.82-3-5.13-3.2-.33-.05-2.92-.38-4.17,1.12s-.51,3.76.48,6.9c1.22,3.87,2.15,4.57,3.21,7.53.72,2,1,4.48,1.44,9.31.83,8.47.17,8.65,1.12,11.23a20.77,20.77,0,0,0,6.1,8.34c1.8,1.54,2.3,1.45,7.86,5.29C1088,206.69,1089.06,207.43,1090.3,208.4Z"/><path d="M1125,237.59c2.53,1.41,3.53.81,6.41,2.25a13.16,13.16,0,0,1,5.3,4.33c.72,1.08.73,1.52,2.08,6.25,1.62,5.68,2.07,6.67,1.45,7.38-1,1.08-2.77-.34-6.74-.48-5.74-.2-7.46,2.59-11.39,1.28-2.22-.73-4.38-2.52-4.17-3.85.25-1.57,3.64-1.32,5.13-3.69,1.36-2.15.27-5.08-.16-6.25-1.6-4.35-4.54-4.75-10.91-11.55-3.32-3.55-4.58-5.65-4-7.38a2.87,2.87,0,0,1,1.61-1.76c1.54-.46,3.28,1.25,11.07,9.62C1122.55,235.82,1123.37,236.72,1125,237.59Z"/><path d="M2269.4,895.07c-2.13-.1-3.48,2.84-6.09,6.42a54.56,54.56,0,0,1-9.3,9.62c-5.48,4.75-7.08,4.27-11.55,8.82-3.23,3.29-4.94,5-5.62,8a14.73,14.73,0,0,0,4.65,13.64c2.7,2.32,4.48,1.74,5.3,3.69,1.44,3.42-3.63,6.28-2.89,11.39.5,3.44,3.47,6.72,5.61,6.41,1.79-.26,2.75-3,2.89-3.37,1.91-5.38-3.17-8.38-3.53-15.07-.33-6.24,3.56-13,8.5-16.2,4.21-2.7,6.69-1.17,10.27-4.66a18.09,18.09,0,0,0,4.65-9c.66-2.88-.11-2.42.48-8.18.49-4.67,1.15-6.46,0-8.66C2272.6,897.63,2271.31,895.16,2269.4,895.07Z"/><path d="M2248.39,850.32a4.22,4.22,0,0,1,.48-4.65c.87-.94,2.08-1,5.46-1,8.06,0,8.36.12,9.46-.32a19.45,19.45,0,0,0,5.77-4c1.29-1.29,1.64-2,2.57-2.09,1.63-.16,2.17,1.87,5.29,3.85a12.16,12.16,0,0,0,5,1.92c1.32.19,3.69.51,5.61-.8,1-.71,1.17-1.37,1.93-1.44,1.1-.1,2,1.18,3.52,3.37,2.87,4.17,4.3,6.28,4.66,7.38.93,2.93,1.1,6.55.16,6.89-.62.23-1.3-1.11-2.73-2.24-2.27-1.79-4.92-1.86-9-1.77-11,.25-11.53,1.18-15.56.48-4.44-.77-3.5-1.86-8.82-3C2254.41,851.16,2250,853,2248.39,850.32Z"/><path d="M2237.16,821.45c5.8.35,7-.87,9,.48a7.26,7.26,0,0,1,2.56,3.85c.38,1.05,1.21,3.38.16,5.29-.82,1.51-1.9,1.08-2.88,2.57-1.3,1.94-.72,4.59-.33,6.41.67,3.08,1.78,3.7,1.29,5.14s-1.87,1.27-3.53,3.21c-2.08,2.41-1.91,5-2.41,5s-1.26-3.77-.32-7.54c.5-2,.94-2,1.45-4.17a18.41,18.41,0,0,0,.32-6.26c-.32-2.66-.57-4.72-2.09-6.41s-2.74-1.19-5-3.37c-.13-.13-2.91-2.88-2.25-4C2233.52,821,2234.67,821.3,2237.16,821.45Z"/><path d="M1466.28,50.72a14.93,14.93,0,0,0-6.58,8.83c-.22.85-2,7.57,1.61,10.9.79.74,3.3,1.29,8.34,2.41,2.44.54,3.44.67,4.49.16.4-.2,1.59-.87,2.89-4.49,1.11-3.12.67-3.84,1.6-7.38a25.45,25.45,0,0,1,2.57-6.74c1.76-3,3.27-3.89,2.88-4.81-.19-.46-.94-1.1-7.21-.64C1471.11,49.39,1468.24,49.6,1466.28,50.72Z"/><path d="M406.67,162.36c-1.14,1.83.4,3.73,1.13,7.22,1.32,6.33-1.58,10.55.16,11.55,1.05.6,2.9-.49,3.69-1.12a5.27,5.27,0,0,0,1.76-2.57c.69-2.38-1.12-3.34-1.6-7.06-.32-2.46.38-2.78-.16-5.45-.31-1.51-.74-3.64-2.09-4A3,3,0,0,0,406.67,162.36Z"/></g></g></svg>