<svg xmlns="http://www.w3.org/2000/svg" viewBox="0 0 1456.5 2690.18"><g id="Layer_2" data-name="Layer 2"><g id="Belize"><path d="M1230.17,720.94c-2.11-.74-5.76,3.79-7.45,7.64-.88,2-2.1,4.74-.89,6.56,1.34,2,4.23.73,5.85,2.66s-.52,4.18-.53,9.59c0,6.17,2.81,8.68.89,11.71-.84,1.33-1.36.81-3.19,2.66-2.67,2.69-2.06,4.29-4.8,8.87-2.18,3.67-3.31,3.9-3.37,5.86-.07,2.34,1.43,5.27,3.91,5.86s4.89-1.68,5.32-2.13c2-2.13,1.29-3.93,2.84-8,1.65-4.32,3.14-4,4.44-7.63.91-2.57.69-4.21.35-10.29-.16-2.89-.46-8.2-.53-13a103.71,103.71,0,0,0-1.07-15.79C1231.49,722.63,1231.13,721.29,1230.17,720.94Z"/><path d="M1278.44,382.16c-2-1-6.65,2.1-6.74,5.15,0,1.11.56,1.4,5.14,6.74,2,2.33,2.7,3.22,3.2,3s.39-1.83,0-5.68C1279.22,383.47,1279.28,382.57,1278.44,382.16Z"/><path d="M1283.76,395.47c1-2.83,1.52-4.53,3-5a3.67,3.67,0,0,1,3.55,1.24c1.68,1.95.89,5.59-1.24,7.28-1.86,1.47-4.94,1.64-5.86.35C1282.71,398.64,1283.06,397.58,1283.76,395.47Z"/><path d="M1272.23,404.34a3.3,3.3,0,0,1,3.9.54c1,1,.52,2.18.54,6.92,0,3.77.33,4.65-.44,5.3-1.27,1.1-4.3.46-5.42-1.22-.85-1.28.12-2.09.53-6.92C1271.59,406.06,1271.36,405,1272.23,404.34Z"/><path d="M1296.72,410c-2.48-.16-4.36,2.57-4.79,3.2-1.73,2.51-1.77,5.23-1.78,7.63,0,3.66.87,3.29.89,6.92s-.79,5.07,0,8.34c.34,1.4.68,2.74,1.6,3,1.46.44,3.95-1.92,4.43-4.44.26-1.36-.31-1.47-.17-3.55.08-1.3.31-1.33,1.06-4.61a32.42,32.42,0,0,0,.71-3.73c.2-1.71,0-1.7.18-3,.36-3.08,1.37-3.48,1.24-5.68a4.45,4.45,0,0,0-1.24-3.19A3.68,3.68,0,0,0,1296.72,410Z"/><path d="M1063.17,962.3c-1.47-1.18-5.3.22-7.1,2.84a7.53,7.53,0,0,0-1.06,5.32c.51,4.28,4,6.56,4.79,7.1.28.18,3.71,2.42,4.79,1.42.87-.8-.77-2.81-1.42-6.57C1062.16,966.59,1064.76,963.56,1063.17,962.3Z"/><path d="M1045.07,990.34c1-.06,1.86,1.72,2.13,2.31,1,2.11,1.11,5.51-.89,6.74a3.1,3.1,0,0,1-3.37,0C1040.74,997.53,1043.07,990.45,1045.07,990.34Z"/><path d="M1083.58,1012.26c1.42-.29,2.9,1.67,5.86,5.59,1.82,2.41,2.72,3.63,2.39,4.26-.87,1.66-8.51,1.59-10.38-2.67C1080.22,1016.64,1081.75,1012.63,1083.58,1012.26Z"/><path d="M1163.44,1050.86c-.94,3.41-1,5.55-2.66,11.18-1.13,3.87-1.73,5.07-2.93,5.59-2.16.93-5.06-.84-6.65-2.4-2.31-2.25-1.86-4-3.73-9-2.22-6-3.77-5.86-5.32-11.18-1-3.41-2.06-7-.27-9.32,1.44-1.84,3.13-.78,7.19-2.66,4.61-2.14,4.48-4.46,8.25-5.59.45-.14,5.46-1.57,8.52,1.06,3.51,3,2.17,9.48,1.59,12.25C1166.45,1045.47,1165.08,1044.88,1163.44,1050.86Z"/><path d="M1190.86,1040.47a6.94,6.94,0,0,0-6.66,1.07c-2.71,2.29-2.28,6.41-1.86,10.38a25,25,0,0,0,3.46,10.12c1.64,2.86,3.84,6.72,5.86,6.38s2.69-4.12,3.73-9.05c.82-3.93,1.33-6.34.79-9.58C1195.76,1047.26,1194.88,1042,1190.86,1040.47Z"/><path d="M1171.43,1152.81c-1.53-.14-1.83,2.36-5.86,6.12-3.19,3-4.88,3.17-4.79,4.26.22,2.64,10.48,5.66,13.31,2.13a4.93,4.93,0,0,0,.8-2.93C1175.24,1158.26,1173.6,1153,1171.43,1152.81Z"/><path d="M1035.31,1164.26c.65-.43,2.37.78,3.19,1.77,3.52,4.23-.76,14.72-2.66,14.55-1-.09-2-3.38-1.59-6,.22-1.47.67-1.44.88-3.19a30.3,30.3,0,0,0,0-5C1035.06,1164.94,1035,1164.46,1035.31,1164.26Z"/><path d="M1052.7,1170.65c1.19-1.79,7.28-.18,7.28-.18h0s2.68,6,.89,9.23c-1.9,3.39-8.75,3.52-9.41,2.13-.36-.76,1.23-1.68,1.6-4.44a12.75,12.75,0,0,0,0-2.49C1052.88,1171.75,1052.28,1171.28,1052.7,1170.65Z"/><path d="M1048.62,1194.07c.82-.63,2.25-.8,2.84-.18s-.31,1.77-.53,4.62c-.18,2.35.34,3.35-.36,3.9s-1.93.18-2.66-.35a3.82,3.82,0,0,1-1.24-3.2,9.6,9.6,0,0,1,.89-2.84C1048.19,1194.44,1048.47,1194.19,1048.62,1194.07Z"/><path d="M1132.56,1255.3c1.19-1,5.12.91,7.46,3.55a13.11,13.11,0,0,1,3,7.1c.49,3.31-.38,5.93-2.13,11.18-1,3-1.58,3.83-2.48,4.25a4.7,4.7,0,0,1-5.68-2c-.69-1.43.27-2.61,1.06-5.68a30.52,30.52,0,0,0,.71-8.16C1134.25,1259.19,1131.38,1256.34,1132.56,1255.3Z"/><path d="M1156,1249.26c-1.88,2.3-2.8,6.16-1.24,8,2,2.35,6.81-.17,8.16,2,.79,1.24-.7,2.35-1.24,5.68-.74,4.56,1.51,5.95,1.24,11.36-.1,2-.37,1-1.24,6-.75,4.29-1.28,7.48-.89,11.54.29,3,.72,2.6.71,4.61,0,3.61-1.4,4.44-2.31,9.76-.39,2.33-.21,2.62-.71,4.79-.77,3.35-1.44,3.63-1.24,5,.35,2.34,2.54,2.5,4.79,5.68a16.63,16.63,0,0,1,2.49,6.21c.92,3.71,1.68,6.79.17,9.23-1.74,2.83-5.21,2.68-5.14,4.08s3.56,2.87,6.39,3.2c1.43.16,1.8-.07,2.3.35,1.2,1,0,3-.35,8.52-.22,3.62.24,4-.36,6-.33,1.15-.73,1.9-.35,2.67.57,1.16,2.11.73,3.72,1.77s1.43,2.4,3,5.33a29.34,29.34,0,0,0,4.08,5.32,36,36,0,0,0,5.51,5.32c2,1.57,4.27,3.29,5.14,2.67s-.28-2.35-.71-6.57c-.33-3.31-.56-5.55.71-7.28,1.57-2.13,4.15-1.75,4.26-2.84.17-1.67-5.94-1.81-9.76-6.74-.06-.07-1-1.88-3-5.5-1.09-2-1.63-3-1.24-3.91.55-1.24,2.26-1,2.84-2.13.71-1.43-1-3.61-1.6-4.43-3.33-4.34-7-3.86-7.81-6.75-.35-1.28.39-1.36.71-5.14a51.5,51.5,0,0,0,0-5.15c0-6.17,1-7.23,0-10.11-.73-2.16-1.31-1.69-1.77-3.55-.8-3.27.55-6.45,1.77-9.23,1-2.24,1.2-2,2-3.73.65-1.49,3.34-8.18.71-13.84-1.09-2.33-2-2.24-3.91-6-1.45-2.93-1.6-4.41-1.59-5.32,0-2,.72-2.5,1.24-4.79.83-3.73-.65-4.39-.18-7.81.64-4.73,3.79-5.79,3-8.34-.34-1.1-1-1.3-5.33-3.9-6.16-3.74-7.2-4.83-9.23-4.44A6.5,6.5,0,0,0,1156,1249.26Z"/><path d="M1132.56,1317.41c1.79-1,4.64-.78,5.68.89a2.68,2.68,0,0,1,0,3c-1.16,1.21-4-.29-4.44.54-.33.6,1.16,1.34,1.42,3,.38,2.33-2,3.74-1.42,5s3.22.21,4.44,1.78a3.51,3.51,0,0,1,0,3.72c-1.44,2.41-5.92,2.52-7.63.71-.74-.78-.52-1.45-.71-5.67-.24-5.14-.64-5.71-.18-7.81C1130.13,1320.71,1130.62,1318.45,1132.56,1317.41Z"/><path d="M1141.79,1351.13a3.55,3.55,0,0,1,.93.09,3.2,3.2,0,0,1,1,.44s1.9,1.36.53,13a51.72,51.72,0,0,0-5.32.17c-1.82.16-2.88.35-3.19-.17s.69-1.51,1.24-3.2c.64-1.94-.65-2.79,0-4.43.29-.75.47-.49,1.6-2C1140.23,1352.89,1140.72,1351.21,1141.79,1351.13Z"/><path d="M1307.19,1379.52c.44-.6,2.06-.73,7.45,1.6a7.89,7.89,0,0,0-1.24,2.84c-.25,1.17-.05,1.66-.35,3.19-.27,1.36-.4,2-.89,2.49-1.26,1.17-4.3.71-5.33-.89-.56-.88-.43-2-.17-4.08.12-1,.25-1.17.35-2.31C1307.2,1380.39,1306.9,1379.91,1307.19,1379.52Z"/><path d="M1333.28,1334.09c.39.16,1.47.68,3,3.73,1.1,2.15,1,2.67,2.13,4.79.66,1.18.78,1.16,1.42,2.31a25,25,0,0,1,2,4.61c.91,3.22-.43,4.17-.36,8.52.08,4.69,1.65,5,1.07,8-.66,3.42-3.41,7-5.86,6.74-1.59-.17-2.61-1.91-2.84-2.31-1.39-2.36,0-3.9-.89-7.45a13.49,13.49,0,0,0-2.3-4.79c-2.41-3.14-4.35-2.47-5.33-4.62-.45-1-.16-1.4,2-9.4.52-2,1.26-3.89,1.78-5.86.63-2.4.92-3.95,2.13-4.44A2.92,2.92,0,0,1,1333.28,1334.09Z"/><path d="M1353.51,1321c1.68-.24,4,.37,4.79,2,1.37,2.68-2.63,6.07-1.06,8.52.43.68.74.42,2.48,2s2.48,2.19,2.66,3c.5,2.24-3.16,3.17-4.26,7.1-.86,3.1.64,5.28-.35,5.85-1.17.69-3.92-2-5.33-3.37-1.65-1.61-3.17-3.09-3.9-5.5-.54-1.78-.12-2.31-.89-3.55-1.26-2-3.41-2.21-3.37-3.19s1.72-.75,3-2.13c1.86-2,.23-4.2,2-7.28C1349.56,1323.77,1350.93,1321.33,1353.51,1321Z"/><path d="M1301.33,1345.27c.88-1.46,5.37-1.28,6.92,1.07a2.87,2.87,0,0,1,.36,2.84c-.82,1.35-3.59,1.33-5.32.17C1301.81,1348.37,1300.71,1346.31,1301.33,1345.27Z"/><path d="M1312.51,1321.31c1.45-1.72,5.06-1.7,6.57,0,1,1.08.64,2.85,0,6.39-.54,3-1.13,3.4-1.42,3.55-1.27.66-3.13-.44-4.08-1.42a6.67,6.67,0,0,1-1.6-4.26C1311.78,1323.86,1311.61,1322.39,1312.51,1321.31Z"/><path d="M1334.7,1299.66c1.7-1.05,4.6.3,5.68,2.31,1.51,2.83-.56,7-2.67,7.28-1.73.19-3.54-2.3-4.08-4.44C1333.3,1303.49,1333.05,1300.69,1334.7,1299.66Z"/><path d="M1321.74,1282.09c.24-.13.69-.13,1.6.54a23.58,23.58,0,0,0,.53,3c.65,2.69,1.35,3.52.89,4.26-.67,1.08-3.23,1.16-3.91.18-.43-.62.22-1.23.54-3.19C1321.82,1284.16,1321,1282.48,1321.74,1282.09Z"/><path d="M1297.61,1326.82a2,2,0,0,1,2.3.71c.66,1.13-1.09,2.78-.53,3.55.45.6,2.17.39,3.37-.36,3.33-2.07,3.91-9,1.07-11.71-.24-.23-1.55-1.43-2.66-1.07-1.35.45-1.19,2.8-2.49,3.2-1.12.34-2.47-1-2.66-1.25-1.38-1.42-1.63-3.29-1.6-9.4,0-4,.14-5.42.18-9.58,0-1,0-2.62,0-5.86,0-7.74,0-10.19.89-10.47.78-.24,1.25,1.38,3.55,2.13a6.61,6.61,0,0,0,4.08,0,6.45,6.45,0,0,0,4.08-4.44c.78-3.08-1-6.61-3.19-7.27-.8-.24-2.08.13-4.62.88s-2.59.95-3.73,1.25c-.68.17-5.24,1.29-8.87-.89-2.58-1.55-3.13-3.84-4.08-3.55-.39.12-.74.64-1.07,5-.48,6.39.1,7.53.54,8.16.9,1.32,1.47.85,3,2.49a12,12,0,0,1,3,6.38c.34,2.43-.46,2.65-1.06,7.1a51.55,51.55,0,0,0-.36,8.88c.22,4.31.94,6.26-.18,7.1-1.28,1-3.26-.84-4.43.17s-.75,4.22.71,5c1.29.67,2.52-1.06,3.55-.53.54.28,1.51,1.45,0,14.37-.16,1.34-.57,4.72.88,5.51.8.43,1.85-.09,2.31.53s-.49,1.72,0,2.48c.23.36.73.54,2.66.54,2.44,0,3.66,0,4.08-.36,1.53-1.21-.31-4.34-.53-10.47C1295.75,1332.8,1295.57,1327.6,1297.61,1326.82Z"/><path d="M1335.41,1248.38c2.46-2.13,6.89-1.57,8.34.71.74,1.16.89,3.08,0,3.9-1.3,1.19-3.89-.74-5,.35s1,4.26,0,5.15c-.63.54-2.11,0-3-.71C1333.43,1255.92,1332.57,1250.83,1335.41,1248.38Z"/><path d="M1355.28,1243.05c1.68-1,4.69.16,6.21,2.13a6.46,6.46,0,0,1,1.25,4.08c0,1,0,2.35-.89,3-.68.53-1.11,0-3.73.35-1.11.13-1.48.27-1.95,0a2.79,2.79,0,0,1-1.06-2.12c-.15-1.26.41-1.38.35-2.49-.09-1.73-1.5-2.27-1.24-3.55A2.42,2.42,0,0,1,1355.28,1243.05Z"/><path d="M1345.17,1258.67c1.07-1.46,5.35-1.14,6.74,1.06,0,.09.84,1.37.36,2.31s-2.31,1.42-2.31,1.42h0s.74,4.73-.71,5.5c-.8.42-2.07-.43-3-1.06s-1.49-1-1.77-1.78c-.41-1.14.43-1.75.71-3.72C1345.49,1260.11,1344.58,1259.48,1345.17,1258.67Z"/><path d="M1370.72,1264c.83-1.12,3,.22,8.88.18,2.59,0,3-.29,3.72.18,3.11,2,2.4,11-1.24,12.78-1.68.83-3.67,0-4.26,1.06s1.21,2.67.53,3.73c-.54.86-1.94.16-3.55,1.24-1,.69-.92,1.28-1.77,2.13-1.32,1.3-4.22,2.51-6.39,1.06a5,5,0,0,1-1.24-6.56c.61-.8,1.7-1.19,3.9-2s2.5-.54,3-1.07c1.25-1.27.67-3.82,0-6.57C1371.28,1265.92,1370.08,1264.88,1370.72,1264Z"/><path d="M1391.13,1283.34c1,.23.44,2.55,2.13,3.55,1.3.76,2.34-.19,5.68.17,1.55.17,2.62.3,3,1.07.5,1-.25,2.53-1.25,3.37s-1.64.51-3.19,1.42a8.62,8.62,0,0,0-2,1.6c-2.17,2.25-1.59,3.84-3.2,5.68-.66.75-2,1.32-4.79,2.48-4.44,1.86-4.52,1.28-6,2.31-2.8,1.9-2.29,3.76-5.15,5.68-1,.68-1.4.65-5.14,1.77-7.51,2.24-7.88,2.93-9.41,2.49-3.48-1-6.08-5.83-5-8.52.35-.86,1.6-1.7,4.08-3.37a26,26,0,0,1,4.08-2.49c3.14-1.27,4.24-.13,8.52-1.06a17.52,17.52,0,0,0,5.33-2c1.08-.63,2.73-1.77,5.5-5.32C1388.55,1286.87,1389.83,1283,1391.13,1283.34Z"/><path d="M1399.83,1245.71c2.91,1.62,5.86-.58,8,1.25.78.66.24.83,1.42,2.66,1.3,2,2.08,2,5,5,1.48,1.51,1.79,2,2.31,2,1.27-.2,1.74-3.63,2-5.68a65.31,65.31,0,0,0-.53-16.68c-1.07-7.27-.28-13.21.18-18.64.7-8.41,1.84-10.89.35-15.79-.87-2.88-1.72-3.55-3.37-8.52a90.11,90.11,0,0,1-2.49-9.76c-1.92-8.8-2.89-13.19-3-14.2-.94-7.49-.14-11.29-2.13-17.74a14.48,14.48,0,0,0-2.84-5.33,14,14,0,0,0-5.86-3.9,5.69,5.69,0,0,0-3.37-.36,4.89,4.89,0,0,0-2.48,1.6c-2.09,2.51-.67,6.84,0,8.87a30.88,30.88,0,0,0,4.08,7.64c2.13,3.24,2.83,3.58,3.55,5.5a14.38,14.38,0,0,1,.53,7.27c-1.42,11.25,1.8,13.13-.36,22.72-1.36,6.06-2.54,4.86-4.08,11.71-.75,3.37-.43,3.49-1.59,15.8-.54,5.63-.85,8.19-.54,12.24a20.72,20.72,0,0,0,2.67,9.23C1398.15,1244.19,1398.68,1245.08,1399.83,1245.71Z"/><path d="M1313.4,1234.89c1.32-.92,3.69-1.33,5,0s.8,4.14-.53,5.32c-1.77,1.57-4.36,0-5.33,1.24-1.1,1.47,2,3.92,1.42,7.46-.45,2.91-3.24,5.76-5.14,5.32s-2.89-3.71-2.31-6.21c.31-1.34.82-1.2,2.13-3.55s1.21-3.2,3-6.92C1312.53,1235.69,1312.87,1235.26,1313.4,1234.89Z"/><path d="M1306.12,1259.38c1.11-.21,1.7-.33,2.31,0,1.18.62.79,2,2.13,3.19,1,.93,1.64.5,2.66,1.42s1.87,2.43,1.42,3.37c-.76,1.64-4.87-.55-12.06.54l-7.28.71c-1.93.18-2.91.26-3.55-.36-1.36-1.33.29-4.23-1.06-5.32-.92-.73-2,.29-2.84-.36-1.42-1.11,1.31-4.57.17-8.52-.66-2.29-1.81-1.9-3.55-5.32-1-2-2.67-5.26-1.42-7.63,1-1.86,2.81-1.31,4.44-3.19,1.83-2.12,1-4.45,1.24-8.52.16-2.21,1.47-5.74,4.08-12.78a81.12,81.12,0,0,1,4.26-10.12c2-3.84,2.48-3.8,3.91-6.56,2.68-5.19,3.34-9.85,4.08-15.44a85.19,85.19,0,0,0,.71-13c-.13-8-1.1-12.56-3.19-31.76-.43-3.9-.84-8.13,1.24-12.6,1.5-3.25,2.59-2.89,5-6.93,3.82-6.49,2.57-10.06,6-12.77,2.22-1.74,4,.08,6.92-2,1.71-1.2,2-2.27,4.08-3.54a13.44,13.44,0,0,1,4.44-1.6c6.94-1.52,8.66,0,12.07-1.6,1.43-.66,2.78-2.16,5.5-5.15,3.54-3.89,3.71-5,6.39-8.16,4.81-5.58,6-3.94,9.58-8.69a46.67,46.67,0,0,0,5.68-9.77c.9-2.3,1.14-3.63,2.49-4.43,2.33-1.4,6.11-.07,8.51,1.77,1.88,1.45,1.64,2.23,6.75,9.59a10.69,10.69,0,0,0,3.55,3.55,30.39,30.39,0,0,0,3.55,1.41c3,1.14,3.15,1.21,3.55,1.25,1.39.12,2.68-.44,5-2.13,3.85-2.85,5.77-4.27,6.93-6.57,2.21-4.4-.56-6.41,1.42-12.6.36-1.15,1.42-3,3.54-6.74,2.85-5,3.64-5.8,6.39-10.65a61.63,61.63,0,0,0,4.09-8,30.17,30.17,0,0,0,2.3-8c.41-3.27.74-5.86-.71-8.52-.37-.69-2.33-4.06-6-4.62-3.4-.5-6.08,1.69-7.28,2.67-1.77,1.45-1.44,2-4.08,5a40.28,40.28,0,0,1-5.32,5c-2.88,2.27-4.31,3.41-6,3.9-3.5,1-8.46.19-9.76-2.49-.83-1.71.65-2.57,2.13-8.69,1.14-4.71.67-5.85,2.13-8.16,1.82-2.89,3.2-2.13,4.44-4.44,2.14-4-1.54-7,.53-12.25a9.28,9.28,0,0,1,3.19-4.26c1.28-.9,2.78-1.4,5.68-1.59,5-.34,9.66-.65,13.14,2.13,2.64,2.12,1.18,3.27,4.43,7.45,2.84,3.65,4.32,3.24,9.59,8.7a22.53,22.53,0,0,1,4.26,5.5,19.87,19.87,0,0,1,2,6.74c1.69,12.7,2.54,19,.71,23.6s-4.68,7.15-3.37,9.94c.55,1.19,1.31,1.23,3.54,3.55s4.5,4.68,3.91,6.21-3.9,1.57-6.57,1.6c-6.58.09-8.67-2-11-.53-2.17,1.36-.88,3.49-3.37,7.27s-5.15,3.48-8,6.93c-1.72,2.09-2.07,3.81-3.55,10.47-2.23,10.07-3.35,15.11-3.9,16.86-2.23,7.08-3.62,11.49-7.81,15.26-2.34,2.1-5.41,3.47-11.54,6.21-5.85,2.62-7.41,2.59-8.34,2.48-2.6-.29-5-2.09-9.58-5.68-4.85-3.77-5.44-5-7.63-5.14-2.8-.21-5.2,1.52-7.28,3s-2.93,2.66-5.14,5.15c-4.84,5.44-7.25,8.16-9.23,9-4.48,2-6.58-.28-10.47,2.31-1.62,1.07-2.68,2.61-4.79,5.68a63.85,63.85,0,0,0-4.62,8.16,96.91,96.91,0,0,0-4.61,10.47,62.76,62.76,0,0,0-3.2,10.83,55.36,55.36,0,0,0-.88,12.78c.24,5.42,1,5,1.24,9.58.43,9-2.62,9.53-2,17.39.43,5.14,2,7.69.17,10.83a32.62,32.62,0,0,1-3.72,4.43c-2.21,2.44-3,3.11-4.08,4.26a27.67,27.67,0,0,0-6,10.47c-1,3.33.11,2.43-1.06,9.59a16.29,16.29,0,0,0,0,6.38c.35,1.68.56,2.67,1.42,3.2C1299.7,1260.5,1300.47,1260.45,1306.12,1259.38Z"/><path d="M1436.92,980.58a1.43,1.43,0,0,1,.84-.28c3.51-.22,5.62-.35,7,1.17a4.79,4.79,0,0,1,1.06,2.84c.33,3.11-1.85,4-2,7.09s1.83,4.59,1.06,5.33c-1,.95-5-1.07-5-1.07h0a24.83,24.83,0,0,1-2.83-5.32c-.46-1.29-.15-1-.71-7.45C1436.34,982.31,1436.23,981.12,1436.92,980.58Z"/><path d="M1447.74,1040.21c2.49-2.76,8-2,8.7-.36.34.85-.79,1.33-.89,3.37-.09,1.88.79,2.93.18,3.55-.18.19-.31.14-2.13.36a9,9,0,0,1-1.95.18,5.26,5.26,0,0,1-2.13-1.07c-2.32-1.45-2.55-1.27-2.84-1.77C1446,1043.27,1446.73,1041.33,1447.74,1040.21Z"/><path d="M1375.34,1035.59c.82-1,2.7.37,6-.44.62-.15,1-.31,1.26-.09.66.57-1.07,2.42-.88,5.15.12,1.87,1,2.66.53,3.37-.34.46-1,.49-3.2.35-3.49-.21-5.24-.32-5.5-.88-.48-1.06,1.56-2,1.78-4.79C1375.46,1036.67,1374.86,1036.18,1375.34,1035.59Z"/><path d="M1359.54,1050.5c1.82-2.17,6.74-1.42,6.75-1.42h0c.12-.84,0,1.84-.54,2.49s-1.37.19-3.55.53c-2,.31-2.82.94-3.19.53S1359,1051.21,1359.54,1050.5Z"/><path d="M1399.83,950.41a20.27,20.27,0,0,1,5,.71c2.8.55,3.66.6,3.9,1.24.31.81-.71,1.58-.35,2.31s1.61.06,2.48.71c1,.76,1.13,2.91.36,4.26-1.54,2.64-6.79,2.6-8.17.71-.81-1.11,0-2.42-1.06-3.55-.85-.89-1.65-.38-2.84-1.24-1.58-1.15-2.4-3.62-1.6-4.62C1397.89,950.48,1398.54,950.45,1399.83,950.41Z"/><path d="M1428.75,941.18c1.62-1.57,7.28,1.24,7.28,1.24a13.67,13.67,0,0,1,.53,4.79c-.08.71-.39,3.23-2.3,4.26a4.94,4.94,0,0,1-6.22-2c-.46-1,.14-1.45.36-5C1428.56,942,1428.29,941.63,1428.75,941.18Z"/><path d="M1155.81,893.8a9.22,9.22,0,0,1,7.28-.54c5.89,2,8,9.67,8.87,13,2.4,8.83-.67,10.4.18,23.43.54,8.42.95,14.63,5,20.94,2.29,3.59,4,4.49,5.68,8.69.42,1.07,4.33,11-.18,14.73-2.44,2-7,1.93-9-.18-1.87-1.88-.39-4-1.6-8.51-1.4-5.25-4-4.85-6-10.3-.72-1.94-.9-5.34-1.25-12.06-.26-5.18-.13-5.36-.35-10.12-.27-5.87-.45-5.25-1.24-15.62-.65-8.42-.56-9.24-1.6-10.65-3.21-4.31-9-3.16-9.76-6.38C1151.14,897.85,1153.6,895.05,1155.81,893.8Z"/><path d="M1183.5,874.28c.78.06,5.29.5,7.45,3.37.88,1.17,1,2.32.35,9.76-.9,9.72-1.51,11.15-2.84,12.24-1.82,1.51-4.84,2.27-6.56,1.07-1.87-1.3-.9-4-1.07-10.65-.23-9.25-2.35-14.19,0-15.62C1181.4,874.11,1182.1,874.16,1183.5,874.28Z"/><path d="M1112.51,873.74c.72-.5,2.14-.1,5,.71,1.27.37,1.92.56,2.13.89.91,1.44-1.81,3.53-1.07,6,.46,1.53,1.77,1.76,1.6,2.49-.34,1.44-5.91,2.48-7.81.18-.51-.62-.52-2.08-.53-5C1111.79,874.42,1112.2,874,1112.51,873.74Z"/><path d="M1205,813.23c1.44-1.71,5.91-1.22,8.34,1.06,2,1.86,1.74,4.08,2,11.54.38,12.9,1.37,15.47-1.06,18.28a8.55,8.55,0,0,1-7.28,3c-3.74-.49-7-4.1-6.74-7.1.13-1.92,1.6-2.33,3.55-5.32a20.94,20.94,0,0,0,3.19-9.05C1207.6,818.76,1203.2,815.31,1205,813.23Z"/><path d="M1151.37,788.91c1.43-.44,3.66,3,3.91,3.38,5.09,7.94,1.36,18.72.53,21.11a17.07,17.07,0,0,1-3,5.68,18.58,18.58,0,0,1-6.21,4.62c-4.37,2.42-4.53,4.64-10.47,11.36A71.71,71.71,0,0,1,1121,848.54c-2.87,1.85-2.44,1.2-12.6,6.21-13.35,6.59-13.91,7.62-18.1,8.35a32.05,32.05,0,0,1-16.15-1.6c-4.74-1.57-8.92-3-9.77-6.39-.93-3.78,2.59-8.5,6.57-9.94,3.75-1.36,5.59,1,10.12.71,4.28-.3,6.32-2.68,14-9.23,7.05-6,3.59-2.51,17-13.66,10.35-8.59,12.24-10.52,13.67-12.07,5.88-6.38,4.74-7.11,8.16-9.41,6.89-4.61,14-3.34,16-8.16C1150.77,791.36,1150.32,789.24,1151.37,788.91Z"/><path d="M1177.82,1463.47a7.72,7.72,0,0,0-8,3.72c-1,1.82-1.42,4.8.18,6.57,1.27,1.41,3.2,1.35,6.21,1.24,3.23-.11,6.65-.23,7.81-2.48,1-2-.35-4.49-.71-5.15A8.13,8.13,0,0,0,1177.82,1463.47Z"/><path d="M1183.5,1421.23c1-2.64,12-1.71,20.58,2.13,3.2,1.42,7.09,3.15,10.47,7.1,4.57,5.32,2.83,8.39,7.81,15.08,2.3,3.1,2.36,2,8.7,8.87.85.93.74.83,7.8,9.23,5,6,7.49,8.89,6.57,11.18-.55,1.38-1.92,1.56-2,2.84,0,1.83,2.73,2.42,4.26,4.62,1.65,2.36.78,5.08-.36,10.65-2.55,12.57-.73,11.57-2.48,14.9-2.45,4.66-5.16,5-9.41,12.43a30.94,30.94,0,0,0-2.13,4.43,24.53,24.53,0,0,0-1.77,9.76c.34,6.39,3.84,6.73,3.55,12.43-.16,3.1-1.26,4-.71,7.09.61,3.45,2.3,4,2.13,6-.3,3.59-5.46,3.45-7.81,7.81-2.71,5,2.17,8.89-.53,14-1.69,3.2-3.78,2.06-8.7,6.74a40.18,40.18,0,0,0-7.45,10.29c-2.39,4.25-1.71,4.3-4.44,9.23-2,3.66-2.65,4.09-5.68,9.23-2.77,4.71-2.37,4.55-4.26,7.63-2.12,3.47-3,4.21-8.16,11.18-4.17,5.59-6.26,8.42-6.74,9.76-1.63,4.49-.4,6.12-2.31,12.6-1,3.47-2.23,7.54-4.08,7.63s-4.42-4.17-4.26-8c.09-2.2,1-2.55,1.42-5.68s-.23-4.42-.18-6.57c0-1,.25-3.65,5-9.76,5.41-7,7.39-6.52,11.71-12.42.91-1.25.61-1,5.68-9.94,4.14-7.32,6.21-11,7.28-12.6,5.8-8.83,7.31-7.74,10.47-14,2.66-5.3,1.42-5.75,5-13.13,2.24-4.68,3.49-6.08,4.26-9.76.68-3.31.08-4.18,0-9.94A100.86,100.86,0,0,1,1224,1538a56.53,56.53,0,0,1,2.3-11.18c.93-2.71,1.27-2.85,2.84-6.56a103.61,103.61,0,0,0,5.33-16.69c1.16-4.7,1.74-7.1,1.6-9.58-.21-3.58-1.15-3.6-1.78-8.7-.49-4-.06-5.14-.71-9.76a50.74,50.74,0,0,0-1.06-5.5c-1.8-6.27-6.23-7.15-12.6-14.55-5.19-6-3.94-7.4-9.41-13a48.84,48.84,0,0,0-8.87-7.27c-5.65-3.59-8.75-3.85-13.49-8C1185.62,1425.09,1182.91,1422.73,1183.5,1421.23Z"/><path d="M1198.76,1533.39c2.83,1.13,2.51,3.35,6.56,7.45,2.75,2.78,4.49,3.38,4.26,4.44-.27,1.23-2.88,1.58-7.27,2.13-5.32.66-9,1.12-9.94-.53-.69-1.28,1.12-2.27,1.24-5.33.16-3.79-2.49-5.41-1.6-7.1S1196.26,1532.39,1198.76,1533.39Z"/><path d="M1127.24,1639.87c1.07-.66,2.82.25,3,.35A4.49,4.49,0,0,1,1132,1642c1.28,2.27.38,5.44-1.07,7.45-1.87,2.61-5.32,4.19-6.21,3.37-.73-.68,1-2.33,1.6-6.56C1126.83,1642.68,1126,1640.62,1127.24,1639.87Z"/><path d="M1143.39,1659.74a3.34,3.34,0,0,1,3.55-.35c1.49.87,1.44,3,1.42,4.26s-.06,2.82-1.25,3.73a3.75,3.75,0,0,1-4.61-.36c-1.67-1.6-.69-4.37-.35-5.32A3.82,3.82,0,0,1,1143.39,1659.74Z"/><path d="M1102.93,1653.53a2.51,2.51,0,0,1,2.66.89c.56.95-.37,1.9-.89,5a7.78,7.78,0,0,0-.2,2.81c.06.28.12.46,0,.56-.35.36-2.6-.64-3.55-2.31C1099.63,1658.08,1100.82,1654.12,1102.93,1653.53Z"/><path d="M1088.2,1669.15a5,5,0,0,1,3.9.53c.74.39.78.59,2.84,2.49s2.16,1.84,2.13,2.13c-.16,1.61-8.2,3.86-10.47.71a4.32,4.32,0,0,1,0-4.8A3.39,3.39,0,0,1,1088.2,1669.15Z"/><path d="M1113.93,1706.42c2.94.72,5.16,1.27,7.1,3.19,1,1,2.73,2.71,2.3,4.44-.6,2.47-5.2,3-5.85,3-1.5.15-4.1.42-5.86-1.25-2.81-2.66-1.84-8.67.36-9.58C1112.25,1706.13,1112.57,1706.08,1113.93,1706.42Z"/><path d="M1130.79,1760.55c1.23-.56,3.29.52,4.08,2,.68,1.23,0,1.94.35,4.79.3,2.29.84,2.58.54,3.37-1,2.46-7.48,3.13-8.52,1.24-.44-.79.42-1.41,1.42-4.26C1130.18,1763.3,1129.42,1761.16,1130.79,1760.55Z"/><path d="M1029.45,1912.63c.49.09.54,1.33.89,3.55.84,5.26,1.86,6.29,1.07,7.28-1.13,1.41-4.72,1.25-5.86-.36-.85-1.19.08-3.28,2-7.45C1028.83,1912.69,1029.27,1912.6,1029.45,1912.63Z"/><path d="M1176.75,1982.2c3.29-.93,6.46,1.13,7.45,1.78,1.47,1,2.21,1.43,2.13,2-.27,2-12,3.12-12.95.53-.35-.92.56-2.51,1.6-3.37A4.76,4.76,0,0,1,1176.75,1982.2Z"/><path d="M1147.82,2088.5c2-1.39,6,.55,8,3.38.24.35,2.4,3.57,1.07,5.5-1.24,1.78-4.77,1.42-6.93.17a6.72,6.72,0,0,1-3.37-6.38A3.77,3.77,0,0,1,1147.82,2088.5Z"/><path d="M1116.59,2094c1.86-1,6.85,2,6.74,5.32a4.14,4.14,0,0,1-1.24,2.66c-2.57,2.74-8.06,2.32-8.87.53-.43-.94.76-1.57,2.13-5.5C1116.09,2094.88,1116,2094.34,1116.59,2094Z"/><path d="M1107.36,2169.07c2.93.42,5.7,2.83,5.33,4.26s-3.83,1.59-4.09,1.6c-3.49.13-7.41-1.92-7.27-3.55C1101.45,2170,1104.66,2168.69,1107.36,2169.07Z"/><path d="M1080.74,2222.85c2.37-.25,5.8,6.31,4.26,8.16-.61.74-1.51.14-3.37,1.06-2.09,1-2.18,2.42-3.37,2.49-1.68.09-3.85-2.51-3.55-4.61.16-1.16,1-1.28,3.19-3.91C1080,2223.63,1080,2222.92,1080.74,2222.85Z"/><path d="M990.77,2419c2-1.2,8.18,2.26,7.8,6-.24,2.46-3.16,3.84-3.72,4.08-4.25,1.88-9.59-.64-9.59-2.13,0-.9,2-.77,3.55-2.84C990.58,2421.77,989.55,2419.68,990.77,2419Z"/><path d="M500.87,2401.29c3.58-1.41,7.37,1.5,8.52,4.52.06.18,1.36,3.78-.8,6.13a5.69,5.69,0,0,1-4.26,1.59c-2.55,0-6.42-1.42-7.19-5.05A6.43,6.43,0,0,1,500.87,2401.29Z"/><path d="M588.45,2338.73c1.22,1.51,1.41,3.19,1.6,5.06a24.71,24.71,0,0,1-.27,5.59c-.62,4.95-1.26,5-1.07,7.19.27,3,1.5,3.46,1.07,5.59s-2.13,4.22-3.46,4c-1.05-.18-1.83-1.83-1.86-3.19-.05-1.54.88-1.75,1.06-3.46.15-1.47-.46-1.92-1.06-4.53a35.62,35.62,0,0,1-.54-3.73c-.51-4.3-.77-6.45-.8-7.18-.1-3.25-.21-6.81,1.34-7.46C585.71,2336.08,587.58,2337.66,588.45,2338.73Z"/><path d="M1382.26,352.52a10.07,10.07,0,0,0-8.7-3.55c-2.71.43-2.61,2-6.39,3.73-4.57,2.06-6.11.34-10.11,2.48-3.59,1.93-3.3,3.81-5.5,4.09-4.17.52-5.89-6.15-10.83-6.21-3.77-.06-6.8,3.78-7.45,4.61-.87,1.1-1.77,3.16-3.55,7.28-.88,2-1,2.43-2,4.61-1.27,2.87-1.8,3.79-2.67,5.68-.61,1.32-.87,2-3.72,9.76-2.51,6.8-2.58,7-3,7.81-2.13,3.77-3.52,4-5.15,7.27-1.27,2.56-1.55,4.69-2,8-.66,5.45.13,6.92.18,15.44a81.7,81.7,0,0,1-.53,10.12c-.68,5.75-1.55,7.72-2.84,9.22-1.68,2-2.45,1.24-4.79,3.38-1.94,1.75-2.26,3-5.68,9.58-2.89,5.55-2.77,4.86-3.38,6.39-2.12,5.37-.64,6.32-2.3,10.65-1.33,3.46-3.55,6-8,11.18a36.24,36.24,0,0,0-3.55,4.61,35,35,0,0,0-2.84,5.5c-2.22,5.54-2.18,10.45-2.13,17.22,0,3.76.06,5.68.71,7.45,1.62,4.41,4.38,5,4.44,7.81,0,.87-.22,2.13-6.21,8.34-4.78,4.95-6.25,5.83-6.57,8.16s.6,5.28,2.66,6.57c2.35,1.48,4.62-.2,11.36-1.42,4.74-.86,10.78-2,12.25.35.76,1.2-.41,2.21-2,8-1.29,4.84-.78,5.28-1.95,8-1,2.24-1.57,2.5-4.26,6.56-.13.2-2.51,3.82-4.79,8-3.22,5.91-2.75,6.59-5,9.94a36.6,36.6,0,0,1-6.56,7.27,60,60,0,0,1-11.72,8.17,44.53,44.53,0,0,1-9.22,4.26c-3,.89-4.53,1.34-6.57,1.24-4.37-.23-6.55-2.53-9.58-1.24a8,8,0,0,0-2.31,1.59c-1.37,1.29-1.52,2.21-2.84,4.26-1.81,2.82-2.85,3.14-2.66,3.91.36,1.5,4.62,1.59,8,1.77,13.75.74,13.25,3,20.77,2.13,5.12-.57,10.18-1.13,13.66-5,2.62-2.88,1.51-4.5,4.79-9.94,2.54-4.2,3.51-3.75,8.17-9.76,3.94-5.09,3.55-5.8,7.45-10.65,3.57-4.42,3.75-3.65,7.1-7.8a63.65,63.65,0,0,0,8.52-13,31.68,31.68,0,0,1,4.26-7.45c2.35-2.92,3-2.39,4.08-4.08,3.67-5.5-2.27-11.73.35-21.12.31-1.09,1-3.09,1.78-5.15a70.28,70.28,0,0,1,3.19-6.92c1.25-2.42,2.19-4.1,5.5-9.94,3.42-6,4.07-7.13,4.26-9.23.31-3.31-.66-7.33-2.3-7.63-2-.37-4.63,5.11-5,5.86-2.71,5.88-.8,8.71-3.73,12.07-.25.28-3.08,3.43-6.57,3a7.71,7.71,0,0,1-3.9-1.95,10,10,0,0,1-3.73-5c-.7-2.69.58-5,3-9.4a61.87,61.87,0,0,1,4.61-6.93c4.2-5.75,4.54-5.27,5.51-7.45,1.36-3.07.7-4,2.66-8.87,1.47-3.62,2.42-4.5,3.37-4.62s1.92.64,3,1.6c2.62,2.31,2.39,3.94,3.72,4.61,2.58,1.31,8.46-2.24,10.83-7.45,1.64-3.6.23-5,1.42-9.76,1.15-4.6,3-5.61,6.39-11.18a61.92,61.92,0,0,0,6.92-17c1.65-7.17.12-7.77,2-15.44a45.34,45.34,0,0,1,5.32-13.84c3.74-6.13,5.7-5.4,11.19-13,2.26-3.13,3.93-6.23,7.27-12.43,4.56-8.47,5.11-10.84,5.33-11.89C1384.57,362.34,1385.73,356.6,1382.26,352.52ZM1337,437a16.58,16.58,0,0,1-2.66,2.56c-1.9,1.48-3.38,2.63-4.26,2.23-1.49-.69.56-5.1,0-12.78-.26-3.67-.85-4.32-1.06-9.05-.17-3.75.19-3.69,0-6.92-.36-6.11-1.71-7.55-.53-9.58s4.45-3.59,6.38-2.67,1.55,3.95,3.2,12.78c1,5.55,1.24,4.52,1.6,7.46C1339.93,423.21,1341,432.06,1337,437Z"/><path d="M1158.83,301.41c-.06-5.74-1.38-5.65-1.25-11.36.1-4.21.84-5.19,0-7.8-.73-2.28-1.65-2.66-3-6.39a19.79,19.79,0,0,1-1.24-4.79c-.28-2.36.15-2.94.17-5.33,0-3.24-.73-3.79-1.77-9.94-.3-1.76-.54-3.21-.71-5.14a54,54,0,0,1,.18-10.47c.44-4.66,1-5.41.88-8.88a22.49,22.49,0,0,0-.53-5.14c-1.18-4.81-4-5.54-6.57-9.94-3.49-5.88-3.16-12.32-3-15.09.17-3.33.71-2.7,1.6-8.87,1.15-8.05,1.71-12.36-.89-15.08a8.59,8.59,0,0,0-5.5-2.31c-3.88-.35-6.8,1.77-8.7,3.19-3.55,2.67-3.19,4.17-6.74,8-.94,1-1,.9-11,8-5.14,3.63-7.47,5.3-10.47,4.79a5.27,5.27,0,0,1-2.84-1.25c-3.76-3.52.42-12.78.89-13.84a17.47,17.47,0,0,1,4.79-6.92c3.41-2.8,5.54-1.88,11.36-4.08,3.5-1.32,6.47-3.37,12.42-7.45,6.24-4.29,8.24-6.51,9-7.46s.45-.65,3.73-5c4.09-5.38,4.66-5.81,5.15-7.45a12.25,12.25,0,0,0-.54-8,11.58,11.58,0,0,0-5-5.68c-3.36-1.82-6.73-1.17-11-.35a31.67,31.67,0,0,0-8.69,3c-4.47,2.36-5.22,4.17-9.59,7.09-.76.52-2.65,1.74-9.93,4.8-13.95,5.84-14.33,4.42-19.53,7.63-7.26,4.48-6.41,7.21-12.06,8.87-5,1.46-6.14-.48-14,1.07-5.61,1.09-6.9,2.44-9.76,1.59-3.22-.95-3.92-3.36-7.64-7.45-1.37-1.51-6-6.6-12.24-9.41-6.59-3-8.15-.3-16.68-3.55-5.7-2.16-6-3.73-10.12-4.25s-5.82.79-12.95,2.48c-8.58,2-8.49.67-15.62,2.48-4,1-7.88,2.69-15.62,6-8.14,3.52-8,4-15.26,6.92-5.44,2.22-6.42,2.35-8.87,3.9-3.48,2.21-3.93,3.5-9.59,9.05-6.08,6-6.44,5.35-10.29,9.59a116,116,0,0,0-7.63,9.58c-3.12,4.24-5,7.15-8.7,9.41a17.37,17.37,0,0,1-4.79,2c-1.89.46-3.66.88-5.68.18-.65-.24-3.15-1.11-3.72-3-.75-2.5,2.53-4.27,5.85-9.94,2.5-4.26,1.3-4.36,3.73-8.52,1.11-1.9,1.48-2.08,8.16-9.94,2.75-3.22,4.12-4.83,5.51-6.56,3-3.75,4.51-5.62,5.32-6.75,2-2.77,2.55-3.86,4.26-5.14,2.06-1.54,2.86-1.14,4.61-2.31,4.1-2.73,4.81-8.27,5-9.4.27-1.92,1-7-2.31-10.12s-8.62-2.21-9.93-1.95c-2.36.46-4.59,2-9,5-4.74,3.18-5.42,4.27-9.06,6-1.09.53-2.56,1.12-5.5,2.31-4,1.61-6,2.42-6.92,2.66-4.77,1.26-4.9-.35-12.24.53-2.61.31-4.31.72-5.86-.35-1.36-.95-1.66-2.39-2.13-3.73-2.18-6.22-6.48-5.95-8.52-11.54-.3-.81-1.89-5.19,0-9.05,1-2.07,2.15-2.18,8.7-6.74,4.48-3.13,4.39-3.38,8.16-5.86,1.66-1.08,3.43-2.15,6.92-4.26,3.93-2.36,6.64-3.91,7.46-4.43,9.1-5.79,11-8.39,20.41-14.55A98.43,98.43,0,0,1,913.39,78c6.05-3,6.08-2.13,9.05-4.08,4.7-3.08,4.74-5.24,11.89-11.71.95-.86,2.84-2.57,5.5-4.62,6-4.64,7-4.17,9.59-6.92,3.06-3.32,4.25-6.89,5.32-10.11s1.63-4.93,1.07-6.75c-.79-2.5-2.65-2.63-7.1-6.56-3.51-3.1-5.34-4.73-6.21-7.46-1.16-3.63.52-5.69-.89-7.27-1.82-2-6.36-.58-9.23.17-8.5,2.25-15.79,1.74-30.35.71-11.47-.8-10.38-2.54-17.74-2.13-7.8.45-11.79,2.56-18.28.36a47.57,47.57,0,0,1-8.17-4.08c-5.28-3-6.36-4.48-9.93-5.86a21.46,21.46,0,0,0-9.59-1.6C831.74.71,831.49,5,822,9.3a38.17,38.17,0,0,1-14.91,3.37c-3.46.23-5.45-.05-7.28-1.06-.49-.28-1.25-.76-5.14-5-3.46-3.74-3.43-4-4.44-4.61A13.84,13.84,0,0,0,782.42.25,20.68,20.68,0,0,0,774.26,2c-4.86,2.16-7.45,5.67-14.73,16.5-4.95,7.35-7.42,11-9.41,14.2C745,41,745,41.56,739.47,50.47c-3.87,6.24-7.53,11.79-9.58,14.91C724.48,73.6,724,74,722.08,77.27a112,112,0,0,0-7.81,16.33c-2.55,6.75-3.86,13.94-6.39,28-2.78,15.56-2.53,17.27-4.79,22.89a78.81,78.81,0,0,1-8.87,15.8c-3.39,5-6,8.73-10.47,12.6-3.94,3.38-4.24,2.47-10.47,7.1-5.83,4.32-9.66,7.22-12.78,12.24-1.42,2.29-2.37,4.84-4.26,9.94-.57,1.54-2,5.5-3.9,12.42-2.43,8.86-3.67,13.38-4.44,19.7-.53,4.38-.23,4.64-1.24,15.08-.61,6.3-1,8.79-2.49,11.72s-2.24,2.62-6.39,7.81c-5.09,6.38-4.28,7.17-7.63,10.29-2.08,1.94-5.81,5.42-11,5.86-2.27.19-2.65-.41-6-.18a27,27,0,0,0-8.34,1.77c-3.16,1.32-4.65,3-8.35,6.75-7.1,7.11-10.65,10.67-13.66,12.24-5.18,2.71-6.5,1.16-11.54,4.44-2.36,1.54-6.5,4.24-7.45,8.69-.47,2.23.28,2.88,1.24,8.52a93.32,93.32,0,0,1,1.07,10.47c.27,6.41.41,9.71-.89,13.49-1.85,5.39-4.36,5.12-10.11,14.2-2.41,3.8-1.94,3.8-5,8.87-5.14,8.58-6.64,8.84-9,13.31-3.7,6.84-4,13.29-4.44,23.25-.3,6.63.36,7.07,0,16.86-.46,12.43-1.66,15.43-3.91,17-2.92,2.09-5-.05-10.11,1.95-4.39,1.7-4.32,3.83-9.76,8.16-2,1.59-2.39,1.61-16,8.87-8.63,4.62-9.14,5-9.94,5.86-4.22,4.69-2.33,8.51-5,18.28-2.44,9-6.69,15.51-10.47,21.3s-4.24,5.13-9.41,12.42c-8.17,11.52-7,13-12.24,19.7-7,8.81-15.22,14-21.48,17.92-3.8,2.39-8.73,5.14-17.21,10.83-6.93,4.64-9.31,6.61-10.29,9.94-1.06,3.57.71,4.6,1.42,13.48a83,83,0,0,1,0,12.07c-.45,7.07-1.22,6.51-1.25,11.54,0,5.77,1.12,8-.71,10.64-.46.69-2.41,3.56-5.5,3.73-2.85.16-5-2.07-6.39-3.55-2.07-2.17-1.84-3.21-4.26-6.92a68.51,68.51,0,0,0-5-6.21c-4.42-5.2-4.44-4.85-6.39-7.28-5.1-6.33-4.14-7.68-8.34-11.71a36.47,36.47,0,0,0-6.93-5.15,41.55,41.55,0,0,0-4.43-2.13c-6.87-3-10.31-4.44-11.72-5.14-6.2-3.11-6-4.27-11.71-6.75-4.69-2-4.88-1.26-6.56-2.66-4.17-3.45-2.35-7.54-6.93-11.36-1.52-1.27-2.88-1.78-4.43-3.9a15.38,15.38,0,0,1-2.13-4.26c-1.62-4.59-.46-6-1.78-7.81-1.2-1.62-3.06-1.65-8.69-2.31-6.9-.8,1.07-.17-12.6-1.77-9.87-1.16-10.49-1.07-13-1.77a28.55,28.55,0,0,1-10.11-4.62c-3.05-2.31-2.54-3.12-8.52-10.47-4-4.85-4.76-5.21-8.34-9.94-2.51-3.29-4.32-6-4.79-6.74-4.56-6.89-3.57-6.92-5.15-8.34-4.41-3.95-8.06-.1-19-3.55-2-.64-4.45-1.58-7.63-1.07-2.24.36-3.16,1.17-5.86,2.49a56.25,56.25,0,0,1-11.89,3.9c-4.78,1-6,.38-10.11.89-8.91,1.1-15.47,5.64-19.88,8.7-7.69,5.32-7.75,8-14.2,10.64-4.8,1.94-4.66.39-11.71,2.49-6.07,1.81-13.53,4-18.46,10.11a32.7,32.7,0,0,1-4.61,5.33,20.19,20.19,0,0,1-7.28,4.61c-2.58.86-3.73.51-4.61,1.6-1.57,1.95,0,5.64.35,6.39,3,7.43-.22,31.27.54,79.68.3,19.42.64,32.38.35,53.42-.32,23.87-1.26,44.55-1.42,48.09-1.24,27.06-2.26,32.69-2.48,52.89-.15,12.83.28,9,.35,33.18.06,20.08.08,34.29-.88,52.71-.61,11.51-.88,11-1.42,22.72-.83,17.83-.77,31.54-.71,37.44.18,18.33,1,15.73,1.06,32.12,0,7.84,0,22.08-1.24,39.93-.84,12.52-1.27,12.66-1.78,22-.82,15-.17,23.24.18,37.62.81,33.15-1.63,30.66-.53,58.74.64,16.26,1.64,21.85,1.06,36.38-.4,10.17-1,10.09-2.13,27.51-.79,12.22-1.5,23.53-1.24,37.45.27,14.68,1.26,12.93,1.42,24.84.3,22.59-3.29,27-2.84,47.74.28,12.89,1.64,9.94,2.49,26.8.81,16.22,0,29.07-.89,45.08-.93,15.81-1.65,18.66-2,31.94-.29,12.28.24,13.49,0,23.43-.47,19.22-2.57,20-3.55,38.68-.35,6.63-.12,18.26.35,41.53.3,14.93.41,14,.53,22.89.19,13.19.39,27-.35,44.55-.78,18.38-2.3,33.67-3.37,43.12-1.61,14.15-2.36,16.24-4.08,32.12-1.07,9.82-1.66,17.49-2.84,32.84-1.78,23-2.66,34.51-3,48.62-.38,15.24.23,13.79-.36,21.83-1.06,14.51-3.13,20.07-5.32,39-.66,5.73-1.36,11.85-1.77,20.06-1,20.16,1.25,23.21.17,40.81-.42,6.94-1.34,13.38-3.19,26.27-2.56,17.88-3.19,17.18-4.79,29.1-3.5,25.94-.28,27.28-4.08,47.74a102.37,102.37,0,0,0-2.31,18.64c-.2,9.07,1.09,11.8,1.77,20.23,1.56,19.2-3.71,22.42-3.37,47.2a108.8,108.8,0,0,1-.18,13.14c-.71,8.35-2,10.3-3.37,20.76-.4,3.19-.21,2.5-1.24,14.37-.77,8.85-1,11.16-1.6,17.4-1.78,19.94-1,19-2.13,27.68-1.9,15.15-3.69,14-4.79,25.91-.78,8.46.17,8.61.36,28.22.1,11.05.17,18.38-.54,28.22-.16,2.25-1,9.52-2.66,24-2.21,19.17-2.32,19.66-2.66,23.78-1,12.1-.51,13.28-1.6,21.83-1.42,11.16-2.37,10-3.37,19-1.59,14.36.95,16.1-1.42,28-1.12,5.67-2.13,7.43-2.31,12.6-.19,5.51.8,7.84,1.07,15.09.08,2.29,0,2.72-.36,11.89-.66,16.64-.54,18.18-1.06,25-.22,2.89-.55,7.07-1.24,12.6-1.89,15-3.63,17.19-3.55,26.26,0,5.23.63,6.4.18,11.18-.57,5.91-1.88,8.54-3.2,13.67a75.85,75.85,0,0,0-2.13,22.72c.45,10,2.55,10.2,2.49,18.63-.06,8.12-2,8.42-3.73,19.52-1.57,10.15-.11,11-1.42,29.64-.16,2.28,0,.22-1.42,16-.66,7.51-.85,15.06-1.78,22.54-.73,6-1.39,9.32-.53,14.37.49,2.83,1.06,3.92,1.24,6.92.26,4.2-.54,7.14-1.59,11.36-.4,1.59-2.36,9.48-3.55,15.44-1.64,8.17-2.45,12.25-1.95,15.62.68,4.59,2.26,6.6,2.84,13.49.27,3.23,0,3.61.53,5.14a13.3,13.3,0,0,0,11.89,8.52,13.83,13.83,0,0,0,7.81-2.66c3.07-2,3.36-3.66,7.63-7.63a33.68,33.68,0,0,1,5.5-4.44c2.38-1.47,7.86-4.88,13.49-3.55,1.8.43,1.35.81,7.63,4.26a56.56,56.56,0,0,0,7.81,3.91c1.92.68,3.58,1,12.42,1.42,9.39.44,9,.15,12.78.53,7.63.77,7.48,1.83,12.06,1.77a35.23,35.23,0,0,0,13.85-3.19c5.82-2.75,6.55-5.26,9.76-5,3.55.32,3.62,3.49,8.87,6a19.84,19.84,0,0,0,11.89,1.6c3.57-.72,3.35-1.92,8.34-3.55a40,40,0,0,1,10.47-1.77,42.87,42.87,0,0,1,10.65.35c6.58,1.12,6,2.85,11.36,3.37s7.86-1,11.36,1.07c1.69,1,1.3,1.5,3.55,3.19a21.6,21.6,0,0,0,9.4,3.91c2.43.42,2.85.1,10.65-.36,7-.41,10.51-.38,11.89-.35,5.25.09,7.93.16,10.29,1.24,3.54,1.61,3.49,3.32,7.1,5.32,1,.57,3.18,1.63,10.47,2.31,8,.75,8.66-.23,15.8.35,6.8.56,7.59,1.56,12.77,1.25,6.59-.4,9.16-2.24,10.12-3a16.33,16.33,0,0,0,4.08-5.32c.73-1.46.66-2.12,1.6-4.8,2.26-6.4,3.24-7.7,3-10.29-.18-2-1-3.4-2.49-6-1.41-2.45-2.52-3.53-5.68-7.1a106.21,106.21,0,0,1-7.81-9.41,53,53,0,0,1-4.26-7.27,50.39,50.39,0,0,1-3.19-8.88c-2-8,0-9.19-1.06-21.29-.57-6.31-1.39-9,.17-13a23.44,23.44,0,0,1,4.08-6.39,35.59,35.59,0,0,1,8-6.92c7.25-4.86,9-5,17-9.94,8.76-5.34,8.67-6.36,12.42-7.27,3.39-.83,6.11-.65,8.52-3,1.8-1.78,1.35-2.94,3.55-5.68a18,18,0,0,1,6.21-5c4.58-2.16,6.58-.37,9.94-2.84a13.06,13.06,0,0,0,3.72-4.61,17,17,0,0,0,1.78-5.86,87.86,87.86,0,0,1,3.73-15.26c.56-1.49,2.15-4.25,5.32-9.76,3.81-6.61,5.71-9.92,6.74-10.83,5-4.38,9.11-2.81,13.85-7.8a16.68,16.68,0,0,1,3.72-3.2c2.21-1.35,3.69-1.47,6-2.31a22.61,22.61,0,0,0,7.1-3.9c2.88-2.69,3-4.88,5.85-10.47,4.1-8.14,5.44-6.82,7.63-12.6s1.61-9.19,4.44-10.65c2.36-1.22,3.95.5,6.74-1.06,2.36-1.33,1.92-2.94,4.79-5.15,1.94-1.48,2.48-1,5.51-2.66,3.22-1.76,3.73-2.9,6.74-5a37.2,37.2,0,0,1,7.81-3.91c11.09-4.53,15-3,17.57-6.38,2.26-3.05,1.15-7.06.35-11.18a95.36,95.36,0,0,1-.53-31.06,21.09,21.09,0,0,0,.18-4.79c-.38-4.84-2.2-6.22-2.49-9.94-.15-1.93.67-4.3,2.31-9a73.83,73.83,0,0,1,4.26-9.94c2.18-4.22,3.28-6.33,5.15-8.34,3.16-3.41,6.62-5,9.76-6.39,2.74-1.22,5.65-2,11.35-3.37,8.59-2.13,9.67-2,14.56-3.55a65.44,65.44,0,0,0,9.58-3.73c4.3-2.1,4.93-3.07,11.71-6.92s8.69-4.3,10.47-3.9c2.49.55,2.42,2,6,3.9,1.23.64,7,3.59,10.47,1.42,2.24-1.38,2.63-4.25,3.19-8.34.21-1.54.81-6.7-.53-15.79-.75-5.11-1.44-6.87-.18-8.35,1.84-2.14,6.19-1.75,8-1.59,2,.17,2,.5,4.79,1.06,6.05,1.21,7.6,0,9.76,1.42,2.45,1.62,1.24,3.68,3.55,7.28,3,4.66,6.34,3.21,12.42,8.52,4.34,3.78,3.62,5.37,7.63,7.81,3.45,2.09,9,3.95,11.18,1.77,1.08-1.06,1.08-2.78,1.07-4.79,0-3.51-1.29-4-1.42-6.92-.15-3.42,1.39-6.15,2.84-8.7,1.3-2.3,2-3.45,3.37-4.26a7.81,7.81,0,0,1,8.87,1.07,8.31,8.31,0,0,1,2.31,6c.08,3.38-1.55,6-4.44,10.47-2.77,4.31-3.72,4.59-4.26,6.92-.76,3.36,0,8,2.49,8.88,2.82,1.05,6.65-3.19,7.45-4.09,1.67-1.84,1.76-2.79,5.33-9.22,2.31-4.17,2.78-4.7,3.55-5.15,2.25-1.34,4.18-.34,9.22.35,3.87.53,8.92,1.22,14-.35,2.84-.87,6-1.85,7.64-4.62,2.38-4-1.33-7.24-1.6-16.32-.11-3.66-.27-9.07,2.84-14,1.91-3,4.7-5.1,10.29-9.23s6.88-4.08,8-6.39c2.07-4.32-.78-7.53,1.77-11.18.59-.84.94-.95,5.86-3.73,8.65-4.88,9.62-5.7,10.47-6.56a24.84,24.84,0,0,0,4.79-7.46,36.27,36.27,0,0,0,2.48-7.45c2.06-8.22,3.93-7.94,7.1-17.57,1.95-5.9,2.95-11.15,6-15.79a12.23,12.23,0,0,1,4.43-4.09,7.16,7.16,0,0,1,4.8-1.06c2.12.47,2.26,2.1,4.25,3.37,3.49,2.22,8.25.55,10.83-.35,2.75-1,5.73-2,7.1-5a8,8,0,0,0,.35-5.5c-1.07-3.37-3.79-3-5.68-6.39-2.45-4.38-.53-9.73-.17-10.65.74-1.94,1.14-1.61,3.37-5.32,3.27-5.44,2.76-6.72,4.79-8.7.8-.78,1.53-1.21,8.7-3.37,8.17-2.47,10.09-2.77,12.06-4.79.54-.55,1.5-1.66,3-5.86,2.93-8.1,2-11.32,4.08-18.63a58.82,58.82,0,0,1,5-11.72c3.38-6.56,5.06-9.83,8.34-12.06,4.73-3.22,7.58-1.39,10.12-4.62,2.88-3.66,1.83-9.31,1.42-11.53-1-5.42-3.33-6.26-3-10.12s3-6.68,4.44-8.16c5.21-5.4,9.88-3.85,12.24-8.34,2.12-4,.18-8.66,0-9.06-1.1-2.52-2.92-3.9-5.5-5.85-4.85-3.67-8.71-4.53-8.52-5.5s4.58.19,9.23-2.31c1.28-.69,4.81-2.59,5.15-5.5.47-4.13-5.92-6.26-5.33-9.94.33-2,2.41-2.4,6-5.15a38.46,38.46,0,0,0,9.23-10.64c.81-1.49,1.69-3.49,2.84-14.91,1.5-15.06.49-16.68,2.66-21.47,1.6-3.56,4-6.16,8.69-11.36,6.5-7.16,7.65-6.29,12.43-12.07a110.61,110.61,0,0,0,9.58-14.2c2.64-4.56,3.37-6.49,6-8.69.6-.49,7.41-6,11.54-3.38,3,1.92,3.59,7.52,1.77,11.18s-4.77,3.1-11.35,8.88a39.5,39.5,0,0,0-5.33,5.5c-4.39,5.59-3.08,7.43-6.74,12.42-3.94,5.37-6.86,5.16-9,10.3-.93,2.17-.81,3.14-1.42,7.09-1.31,8.39-2.61,8.74-5.33,20.59-1.45,6.32-1.09,6.27-2.66,12.78-1.74,7.23-2.31,7.84-3.37,12.42a87.91,87.91,0,0,0-2.13,20.59c.17,10.72,2.28,11.88.53,17.57-1.42,4.62-3.14,4.9-5.68,11.71-.43,1.17-4.35,11.67-2,13.13,1.53.94,5-2.2,7.1-4.08a31.1,31.1,0,0,0,9.58-14.91c.91-3.21,1-6,1.07-11.71.08-4.36-.24-8.58-.89-16.86-.73-9.31-.92-9.39-.71-11.54.37-3.72,1.31-7,3.2-13.48,1.33-4.63,1.49-4.54,2.12-7.1,1.46-5.9,1.33-9.19,1.78-12.78,1.12-8.89,5.34-15.45,7.28-18.46.88-1.38,1-1.53,12.77-13.84,6.13-6.43,8.76-8.89,11.89-13.84a40.73,40.73,0,0,0,5.51-11.54c.66-2.39,1.16-5.18.88-17.92-.25-11.45-.66-9.56-.53-14.91.24-10.32,1.66-12.75.71-19.34a19.5,19.5,0,0,1-.18-5.33c.44-3.88,2-6.26,3-8.34,2.56-5.17,4.17-13.12,2.13-19.69-1.15-3.71-2.71-4.54-3.55-9.23-.48-2.7-.28-4.15-.18-7.81.28-10-.93-10.58-.35-18.46.36-4.94.54-7.41,1.77-10.29,1.72-4,3.57-4.88,6.57-9.94,3.43-5.8,1.89-6.16,4.26-9.41,4-5.47,8.07-4,17.39-11,4.74-3.56,3.85-4.06,6.92-5.68,7.71-4.06,14.22-1.34,15.79-4.61,1.09-2.26-1-5.69-2.48-8.16-1.68-2.78-2.68-2.91-4.08-5.15-2.45-3.93-1-6.07-2.31-10.83-1.85-6.54-5.49-5.35-8.16-12.6-1.82-4.92-.5-6.46-3-11.35-1.68-3.27-2.63-3.28-4.26-6.57-1.45-2.94-1.87-5.61-2.66-10.83-.87-5.76-1.41-9.36-1.06-14.37a55.35,55.35,0,0,1,1.77-10.12,62.5,62.5,0,0,1,4.79-14.19c2.34-4.72,4.72-7.62,8.52-12.25a74.27,74.27,0,0,1,12.95-13,47.56,47.56,0,0,1,8.17-5.33c10.56-5.24,15-1.22,22-5.5s11.91-14.08,9.76-20.23c-.89-2.57-2.5-3.11-4.08-7.63-1.44-4.15-.52-4.94-2-8.7-1.69-4.44-3.4-4.44-4.79-8.52-1.11-3.24-.28-4-.89-8.69-.82-6.41-3-7.35-3.55-12.6-.42-4.55.38-5.43.89-13.14a108,108,0,0,0-.53-20.4,45.08,45.08,0,0,0-2.13-10.47,32.88,32.88,0,0,0-6.75-11.72,24.92,24.92,0,0,0-8.16-6.39c-5.84-2.71-7.75-.34-12.78-3-3.46-1.84-2.6-3-8.52-7.46-3.83-2.9-4.66-2.77-7.45-5.14a30.05,30.05,0,0,1-6.92-8.17c-3.77-6.83-1-10.09-5-17.92-2.13-4.25-2.94-3.31-4.44-6.74-2.35-5.44-.76-8.79.18-20.24.76-9.27,1.11-14-.53-19.87-1.36-4.85-2.62-5.31-5.15-11.18a68.44,68.44,0,0,1-5.32-22.9c-.68-10.47,1.92-10.1,2.13-26.08.09-6.79-.37-7.64-.18-16.69a149,149,0,0,1,1.24-17.74c.56-4,.78-4.19,1.78-10.12,1.24-7.33,1.55-11.28,2.66-19.7,2.23-16.93,2.1-17.13,2.84-20.76,2.23-10.92,5.48-19.29,8.87-28,4.52-11.64,4.71-9.72,7.1-16.86a130,130,0,0,0,6-30.52c.54-7.6.09-11.32,1.77-19,1-4.52,2.36-8.77,3.37-11.89,2.09-6.48,2.7-7.14,5-13.67,3.25-9.32,4.87-14,5.5-20,.66-6.34-.5-6.58.53-12.78,1-5.7,2.09-6.55,3.73-13.84,2-9.08.78-9.94,2.84-14.55a27.41,27.41,0,0,1,8.87-10.83c1.56-1.11,5.65-2.51,13.85-5.32,5.74-2,7.82-2.53,10.29-1.78,2.93.89,3.51,2.72,6,4.62,7.19,5.39,18,2.14,19.17,1.77,1.63-.51,10.78-3.58,14.73-12.6.26-.58,4.27-10,.18-14.73-.91-1-2.56-1.94-5.86-3.73a54.07,54.07,0,0,0-6-2.84,60.1,60.1,0,0,0-11.72-3c-4.26-.82-4.51-.66-9.58-1.6-5.62-1-8.43-1.55-9.58-2.31-1.72-1.12-2.42-2.32-7.1-12.24-3.34-7.1-3.71-8-5.15-9.58-1.86-2-4.16-3.27-8.69-5.68s-5.68-2.6-12.43-5.86c-7.55-3.65-9.2-4.92-10.29-5.86-2-1.72-1.86-2.08-5.86-6.39-5.37-5.79-6.37-5.57-7.8-8-1.68-2.81-2.7-5.9-3.55-14.73a139.89,139.89,0,0,1-.71-20.59c.26-7.17.52-13,2.48-20.58,1.39-5.35,2.09-8,4.26-11.18,2.7-3.93,4.69-4.27,12.42-11,4.71-4.09,7.06-6.14,8.7-8.34,3.86-5.16,3.09-7.23,8-14.9,2.23-3.5,2.54-3.31,5.32-7.64a116.15,116.15,0,0,0,6-10.64c4.35-8.64,7-13.79,8.34-21,1.24-6.3-.13-5.88,1.42-15.79,1-6.42,1.61-10.24,3.55-15.08,2.75-6.87,4.49-6.53,6.39-12.43,1.66-5.11.6-6.14,1.95-14.55.84-5.19,1.3-5.16,3.55-14.73,1.79-7.59,2.86-13.34,3.73-18.1,1.75-9.52,2.62-14.29,2.66-18.1.1-8.47-1.79-7.51-2.3-18.1a68.2,68.2,0,0,1,2.3-23.43c1.07-3.65,1.42-3.5,2.13-6.57,1.35-5.8.54-8.22.89-18.1.32-8.95,1.12-11,2.13-12.6,1.74-2.79,2.75-2.23,5-5.68s3-6.72,4.08-11c.43-1.73.35-1.71,1.24-6.21,2.22-11.21,3-12.67,3.55-13.67.82-1.35,1.37-1.81,6.92-6.56,3.38-2.9,6.73-5.81,10.12-8.7,7.37-6.27,11-9.41,15.44-14.2a54.06,54.06,0,0,0,7.81-10.29,39.6,39.6,0,0,0,3.72-8.34c2.48-8.18,0-11.31,2.13-22.18a30.49,30.49,0,0,1,2.13-7.46c1.78-3.9,3.73-5.61,6.92-10.11.4-.56,2-3.28,5.33-8.7,5.12-8.45,7.7-12.74,8.87-16a64.23,64.23,0,0,0,2.13-7.45c.65-2.69,1.15-5.24,2.13-11.54,1.39-8.9,1-7.72,1.6-10.82,1-5.11,1.89-9.8,4.43-15.27a46.81,46.81,0,0,1,5.15-8.69c2.43-3.23,4.18-4.64,6.92-8.88a50.37,50.37,0,0,0,2.66-4.61,52.13,52.13,0,0,0,4.09-11.36c.59-2.47,1-6,2-13.13.19-1.53.43-3.42.71-5.86,1-9.32,1.57-14,1.59-18.63a117,117,0,0,0-1.24-17.92c-.4-2.43-1.2-6.5.53-10.65.28-.67.84-1.75,2-3.91,1-2,2.22-4.3,3.37-6.21,2.89-4.81,3.83-4.37,5.32-7.27C1158.9,308.82,1158.87,305.42,1158.83,301.41ZM908.42,1296.82c-1.93,4.89-3.85,5.45-5.85,11.72a26.16,26.16,0,0,0-1.6,8.52,24.43,24.43,0,0,0,3.72,12.77c.06,0-2.23-4.38-1.59-4.79.93-.6,9.12,6.52,10.11,16,.48,4.55-.61,10.53-3.19,11.18-3.29.83-8.09-7.24-8.52-6.92s2.37,4.08,2.13,4.26-2.85-4-7.45-8-6.59-3.82-9-7.46c-1.38-2-.78-2.1-3.2-6.39-1.74-3.07-2.42-3.7-4.26-6.92-2-3.47-3-5.2-3.19-6.39-1.11-5.84,3.19-12.24,3.19-12.24a13.82,13.82,0,0,1,5.53,1c.12.06.24.12.33.06.86-.51-1.9-11-8.52-13.84-1.15-.5-3.08-.69-6.92-1.06-5.63-.56-7,0-8.52-1.07-2.89-2-4.49-7.52-2.13-10.11,2.19-2.41,7.31-1.84,9.67.32.73.67,1.07,1.38,1.51,1.27,1-.23,1.67-4.25,0-6.92-1.27-2-2.82-1.53-5.86-3.73-1.27-.92-5.69-4.12-5.32-8a7,7,0,0,1,4.26-5.33c2.86-1.2,4.58.48,10.65,1.6,7.4,1.38,8.87-.37,11.18,1.6,1.63,1.39,2.33,4.65,3.73,11.18.87,4.09.87,5.4,2.12,7.45s4.09,5.37,6.39,4.79c3.31-.82,3.67-9.18,3.73-10.64a46.38,46.38,0,0,0-.53-6.39c-.55-4.76-.92-5.56-1.07-8.52-.2-3.92-.37-7.35,1.07-8,1.74-.76,5,2.93,6.39,4.79.83,1.14,1.4,2.19,3.19,6.39a78.05,78.05,0,0,1,3.2,8c.78,4.3-1.39,5.91-3.2,12.25C907.89,1288.56,911.3,1289.54,908.42,1296.82Zm27.15-140.55c-.87,4.12-.63,5.39-1.59,10.12-.33,1.58-.72,3.38-1.41,5.78-1.22,4.21-2.17,5.81-2.85,10.72a105.9,105.9,0,0,0-.53,12.25c-.09,5.22.06,7.83-.54,12.24-.66,4.94-1,7.44-2.66,9-2.2,2.19-4.47,1.53-10.11,3.73a37.94,37.94,0,0,0-6.39,3.19,15.31,15.31,0,0,1-10.12-.53,15.89,15.89,0,0,1-7.19-6.65c-4.61-7.24-3.44-15.27-2.92-17.93-.54-9.88-1.13-16.11-1.6-20.14a66.55,66.55,0,0,1-.53-8.52,68.84,68.84,0,0,1,.43-7.63,17.29,17.29,0,0,1,2.58-9.76c1.5-2.29,3-3.15,5-5,5.16-4.76,4.14-8.18,8-11.71,7.06-6.49,18.28-9.46,26.62-5.86a13,13,0,0,1,4.79,3.19c5.12,5.64,3.18,15.05,2.66,17.57S936.32,1152.77,935.57,1156.27Z"/></g></g></svg>