<svg xmlns="http://www.w3.org/2000/svg" viewBox="0 0 1383.66 2824.54"><g id="Layer_2" data-name="Layer 2"><g id="Benin"><path d="M454.64,2796.11c-.8,3.31-1.68,6.89-4.39,9.33-3.08,2.79-7.1,2.82-9.87,2.93-5.63.22-12.29,1.55-25.61,4.21a102.81,102.81,0,0,0-23.41,7.68c-1.54.72-6.86,3.22-6.59,4s5.48-.36,8.05-.91a119.85,119.85,0,0,0,14.08-4c6.56-2.13,7.62-1.12,19.94-2.92,13.19-1.93,11.55-3,23.6-4.76,15.1-2.17,16.51-.28,23.59-3.29,3.11-1.32,6.74-3.34,13-4.76a75.75,75.75,0,0,1,9-1.28c10.54-1.27,10.71-2.6,19-3.66,10-1.27,10.54.57,21.21-1.09,4.52-.71,9.49-1.82,11.16-2.2,6-1.35,7.56-2,11.89-2.92,5.21-1.15,7.34-1.2,14.82-2.2,12-1.61,11-2.06,20.67-3.29,11.76-1.5,12.24-.7,21-2.2,7.9-1.35,8.29-2.13,16.65-3.66,7.8-1.42,10.68-1.32,20.3-2.37,17.06-1.87,15.76-3,27.62-4a218.46,218.46,0,0,1,28.54-.36c8.71.38,11.38,1,19,.91,11.19-.05,17.1,2.14,20.12-1.46a11.45,11.45,0,0,0,2.2-7.32,12,12,0,0,0-1.47-5.3,11.2,11.2,0,0,0-4-4.58,11.48,11.48,0,0,0-5.31-1.46c-7.74-.75-9,.25-13.35-.55-2-.37-4.22-1.28-8.6-3.11-5-2.07-7.47-3.14-8.23-4.75-.84-1.79-.08-3.2,2.56-10.43,3.49-9.52,2.88-9,4.39-12.07a55.65,55.65,0,0,1,6.77-10.61c2.56-3.14,5.28-6.46,9.88-9.33,2.45-1.53,10.15-6.34,18.84-4.57,2.63.53,4.65,1.53,8.23,3.29a70.6,70.6,0,0,1,9.33,5.67,76.3,76.3,0,0,1,8.41,6.4c4.8,4.29,3.88,4.79,7.5,7.5,3,2.25,4.78,2.76,8.05,5.85,2.29,2.17,3,3.37,3.29,4.58a9.15,9.15,0,0,1-.73,6.22,10.62,10.62,0,0,1-3.47,4.2c-3.77,2.62-6.29.36-10.25,2.75-.53.32-3.74,2.25-4.57,5.67-.69,2.82.72,4.73-.37,5.67-.58.51-1.48.38-5.67-.92-4.64-1.44-4.46-1.58-6.22-2-2.83-.7-2.56-.15-8.23-.91-3.23-.44-5.36-.89-5.85,0-.33.59.43,1.12.18,2.38s-1.27,1.51-1.28,2.56c0,.54.27.65,1.28,2.19a9.85,9.85,0,0,1,1.65,3.11,4.15,4.15,0,0,1,.06,2.46c0,.12-.09.2-.06.28.21.63,3.12,0,5.67-.18,3.72-.24,3.55.73,7.5.73,4.17,0,4.91-1.08,9-.91,2.64.11,3.11.6,5.49.91,7.07.93,9-2.61,16.1-2.38,3.9.13,3.25,1.19,9.32,2,2.67.36,4.65.4,12.26.18,17.11-.51,14.29-1,17.93-.73,5.48.34,8.38,1.15,11.88-.73,2.26-1.22,2.51-2.34,4.94-3.11,1.83-.58,2.94-.35,9.15.36s7,.7,7.86,0c.62-.49,1.63-1.66,1.47-7.31-.14-5.05-1-6.45-1.65-11.34-.34-2.64.06-1.08-.18-13.17-.1-4.78-.2-6.87,1.28-9,1.09-1.54,2.06-1.71,3.29-3.66a12.54,12.54,0,0,0,1.83-6.21c.22-4.53-2-5.48-2.74-11.71-.32-2.63-.48-3.95,0-5.49,1.22-4,4.81-4.73,8.59-8.23,1-.93,5.78-5.35,6.59-11,1-6.87-4.87-9-5.85-19.58-.09-.94.06-3.49.36-8.59.88-14.91,2.18-17.17,3.84-18.48,2-1.53,2.78-.43,7-2.74a22.08,22.08,0,0,0,6.41-5.12c1.91-2.31,2.74-4.48,4-8.42,3.5-10.74,5.24-16.2,4.39-20.3a17.38,17.38,0,0,0-3.66-8.05c-2.66-3.13-6.2-4.57-13.17-7.32-6.37-2.51-9.3-3-9.88-5.3-.36-1.45.57-2.22,1.65-5.49.81-2.43,1-4.08,1.46-8.41,2-18,2.23-18.69,2-21.77-.42-6-1.35-4.47-2-11.71-.87-9.49.55-14.11-2.74-17.19-2.29-2.15-4.21-1.05-6-3.47s-1.4-5.45-.73-10.43a53,53,0,0,1,2.93-11.16c.92-2.62,1.74-4.46,2.93-7.13,1.9-4.3,2.6-5.25,2.92-5.67,2.1-2.74,3.39-2.48,5.67-4.76a18,18,0,0,0,4.76-10.42,16,16,0,0,0-1.1-9.15c-2.12-4.41-5.18-4.24-6-7.87s1.32-7,2.2-8.41c1.53-2.46,2.63-2.6,5.67-6.22a35.59,35.59,0,0,0,3.84-5.3c1.31-2.44,1.86-5.4-.91-20.12-1-5.5-1.57-8.32-2.56-12.44-1.76-7.26-2.35-7.76-2.38-10.79-.07-5.73,2-7.52.55-11.16-1.19-3-3.08-3.06-4.76-5.86-2.69-4.48-1.12-9.81-.37-13.17.23-1-.45-14.14-1.82-40.42-.25-4.69,1-9.49,0-14.08-.27-1.29-.89-3.83.36-4.94.83-.74,1.72-.2,4.57-.37.46,0,.63,0,6-1.1,3.77-.72,4.14-.8,4.94-.73,2.51.22,3,1.3,4.39,1.1,2.91-.43,4.34-5.88,4.57-6.77,1.2-4.57,0-6.48-1.1-15.36-1-8.51-.23-10.11-2.19-13-1.08-1.59-1.71-1.69-7.87-5.85-9.74-6.59-11.18-8.38-12.07-9.7-1.06-1.57-1.88-3.87-3.47-8.41-2.07-5.9-3.36-8.84-4-12.62-.7-4-.09-3.84-.91-7.87s-1.66-5.27-2.56-9.33a57.27,57.27,0,0,1-1.1-8.05c-1-10.95-1.46-16.43-.73-21.4,1-6.57,2.46-5.76,4.39-13.71a63.39,63.39,0,0,0,1.28-22.87,59.44,59.44,0,0,0-8.42-23.41c-6.64-10.45-11.74-10.57-14.26-19.39a27.87,27.87,0,0,1,.18-16.28c2.55-7.51,6.88-7.9,9-15.18,1.73-6-.87-7-.36-15.55.37-6.33,1.87-6.85,6.58-22.13,2.71-8.8,4.07-13.2,4.94-19.21.46-3.18.61-8.1.92-17.92.42-13.89.15-17.25,2.37-22.5,1.89-4.48,2.78-3.69,5.31-9.33,2.06-4.6,4.57-10.22,4-17.56-.23-3-.71-9.55-5.3-14.64-4.86-5.37-11.15-5.66-11.89-10.42-.28-1.75.54-1.92.91-4.57.8-5.76-2.54-8.51-5.3-16.65-1.28-3.78-2.62-7.7-2.38-12.8.15-3.27,1.26-6.62,3.48-13.17,3.25-9.64,4.12-9.58,4-12.44-.22-6.48-4.72-8.52-3.29-13.17.74-2.43,2.62-4,5.3-6.22,3.59-3,4.84-2.5,7.5-4.57,3.68-2.87,5-6.73,7.68-14.45a81,81,0,0,0,2.75-10.25c1.66-7.8,2.84-9.46,1.83-11.7-1.24-2.74-3.59-3-4.21-6-.28-1.39,0-2.12.73-5.12a47.17,47.17,0,0,0,1.65-10.24c0-1-.11-1.94-2.2-8.42-3.65-11.33-4.19-11-4-13,.41-4.82,3.53-6.16,3.11-11.7a10.54,10.54,0,0,0-1.1-4.39c-1.62-3.11-3.83-3-5.3-5.67-1.29-2.35-.92-4.84-.55-7.32.5-3.44,1.78-4.73,2.92-7.5.78-1.88,1-6,1.28-14.27.36-8.91.26-11.06-1.28-13.35-1.1-1.65-1.58-1.32-3.29-3.66s-4.39-6-3.47-9.69c.86-3.49,4.35-5.36,4.93-5.67,2.18-1.17,2.92-.51,4.94-1.65a11.11,11.11,0,0,0,4.76-6c1-3.14-1.2-4.13-2-10.43-.38-2.88-.61-4.66,0-7,.7-2.67,1.71-3,3.47-7.13a18.15,18.15,0,0,0,1.83-6c.18-2.33-.29-4.12-1.1-7.13-1.16-4.37-1.75-4-1.83-5.86-.13-3.17,1.59-5.72,3.85-9s3.19-3.5,4.57-5.49c3.17-4.57,2.77-9.82,2-19.75-.5-6.6-.75-9.9-1.83-12.26-.9-2-2.4-4.37-1.83-7.31a25.38,25.38,0,0,1,1.28-3.85c1.14-2.92,1.41-2.75,1.65-3.84.57-2.65-1.09-3.51-1.46-7.31-.18-1.82-.44-4.42.91-5.67,1.61-1.5,4.3.05,9.33,1.09,8.18,1.7,9-.75,16.28,1.1,4.63,1.19,4.41,2.23,9.88,3.48,3.39.77,6.5,1.45,10.24.73,3.93-.77,4-2.2,8.41-3.66,4.66-1.54,5.94-.39,12.62-1.28,7-.93,6-2.24,12.08-2.93,7.3-.82,9.46,1,14.81-1.1,3-1.14,2.85-1.9,6-2.92,3.65-1.17,4.63-.43,10.79-1.1a74.78,74.78,0,0,0,10.61-2c.36-.1,2.68-.72,5.67-1.83,2.63-1,4-1.48,5.12-2.38,2-1.55,2.77-3.47,3.66-5.49,3-6.68,3.06-4.83,5.85-11.34,1.52-3.51,2.6-6.79,4.76-13.35.84-2.55.84-3.47,1.65-5.12,2.22-4.6,4.41-4.33,6.21-7.87,1.91-3.74,1.5-8,1.1-12.25-.33-3.53-1-4.51-.36-6.77s1.55-2.59,4.2-6.4c2.25-3.22,2-3.59,4.76-7.87s3.55-4.83,4.75-6.76c6-9.56,2.81-22.4,2-25.61a63.37,63.37,0,0,0-2.93-8.6c-1.86-4.44-2.43-4.47-4.21-8.6-.64-1.48-.73-1.87-4-12.44-1.71-5.49-1.89-6-2-7.31-.32-3.32.31-5.55,1.46-10.06,3.4-13.33,2.69-12.64,4-15.73,2.25-5.22,3.65-8.47,7.14-10.79,3.24-2.16,5-1.31,9.69-4.21a31.34,31.34,0,0,0,6.59-5.49c4-4.41,3-5.89,6.77-10.61,3.91-4.91,5.75-4.25,8.59-9,1.49-2.47.87-2.45,3.29-7.32s3.23-5.19,4.76-8.78a34.13,34.13,0,0,0,2.56-8.59c1-6.25-.82-7.62.92-10.8.41-.75,2.16-2.33,5.67-5.48,4-3.63,4.62-3.87,5.12-4,3-.93,4.46.89,8.6.92a16.14,16.14,0,0,0,7.31-1.83c5.38-2.62,4.78-6,11.53-12.08,3.72-3.33,5.18-3.43,6-5.85,1.46-4.14-1.11-8.63-1.83-9.88-2.34-4.08-4.33-3.69-7-7.31-3.56-4.93-3.5-10.66-3.47-13.9a30.68,30.68,0,0,1,3.65-13.91,46.28,46.28,0,0,1,17.75-17.92c4.71-2.41,5.67-1.47,14.26-4.57,1.56-.56,5.24-1.93,9.7-4,9.26-4.34,9.92-6.2,14.45-6.58a30.87,30.87,0,0,1,9.69,1.09c2.42.61,6.23,1.84,6.77,2,3.75,1.21,3.76,1.37,4.57,1.46,2.37.27,4.56-.81,9.7-5.12,6.23-5.23,9.35-7.84,11.89-11.71.12-.18,2-3.84,5.85-11.16,2.27-4.34,2.9-5.56,4.21-7.31,3-4,4.64-4.28,7.32-7.32,4.21-4.77,5.45-10.16,6.4-14.27.8-3.47.85-7.06.91-14.08.14-14.59-.92-17.16,1.28-22.5a31.18,31.18,0,0,1,5.86-9,38.87,38.87,0,0,1,8.23-6.4c5.15-3.27,6.86-3.23,8.23-5.67,1.14-2.06.18-2.53,1.28-7.32.61-2.68.94-2.68,2.74-8.23a58.22,58.22,0,0,0,2-7c.63-3.39,1.26-6.83,0-9.52-1.51-3.24-4.92-3.53-10.79-5.85a65.18,65.18,0,0,1-20.12-13,46.55,46.55,0,0,1-8.23-11c-2.46-4.54-4.62-8.53-4.39-13.72.16-3.7,1.76-6.67,4.94-12.62,4.27-8,5.48-7.48,8-13.17,1.84-4.07,2.69-7.84,4.39-15.36a83.4,83.4,0,0,0,2-10.61c.68-7.3-.55-9.89,1.28-14.64a20.32,20.32,0,0,1,4.39-6.76c5.17-5.45,11.73-6.71,17.74-7.87,4.17-.8,6.25-1.2,8.42-.73,6.57,1.42,6.57,6.8,13.53,9.51,5.72,2.23,7.69-.63,13.17,2.38,2.78,1.52,2.59,2.43,7.14,5.3,4,2.55,6.78,4.24,9.51,3.48.62-.18,2.58-.86,4.75-4.94,3.75-7.05,1.18-11.15,3.3-19.94,1.57-6.54,3.17-5,5.12-12.44,1.88-7.21.46-9,2.56-17,1.26-4.81,1.82-4.37,3.84-11.16a119.9,119.9,0,0,0,3.11-13.35c1.32-7.23,2-10.85,2-15.73.06-9.83-2.53-10.83-1.83-19.21.66-7.8,3-8.21,2.2-12.8-.92-5.2-5-8.72-13.17-15.55-10.66-8.92-13-8.14-15.92-13.35-2.74-5-.79-6.16-4.75-15.73-1.65-4-2.34-4.62-5.31-11.34-2.72-6.16-4.08-9.24-4.39-11.16-1-6.12.84-11.37,3.11-17.92,1.88-5.41,2.94-6.25,4.21-11.35a61.78,61.78,0,0,0,1.46-10.42c.94-11.59,1.4-17.38-.55-22.5-2.17-5.71-4.32-5.06-5.67-10.61-1.51-6.25.75-9-1.83-12.44-2-2.7-4.22-1.92-8.23-5.67a25.9,25.9,0,0,1-4.39-5.67c-1.1-2-3.12-6.65-.36-22.86,1.85-10.9,3.6-13.67,1.46-17.2-.4-.66-1-1.44-9.33-6.4-6.39-3.8-11.13-6.37-11.52-6.58-6.09-3.3-9.31-4.87-11.52-6-5.57-2.94-11.29-7.49-22.5-16.46-10-8-15-12-19.58-16.28-9-8.38-9.06-10-16.64-16.1-6.28-5.08-8-5.43-9.51-8.6-2.34-4.82-.86-10.6,2.19-22,1.11-4.1,1.27-4,5.67-18.1,3.3-10.56,3.49-11.5,3.66-12.62,1.38-9-1.24-10,.18-18.85.85-5.23,1.92-5.78,3.48-13.9.74-3.86,1.13-7,1.46-10.24,2.11-20.27.23-24.13,2.75-34.94.68-2.93,2.52-7.68,6.22-17.19,5.12-13.21,7.69-19.81,9.14-22.86,4-8.5,6.24-11.29,5.12-15.55-1.22-4.69-5.76-8.56-7-9.51-3.45-2.8-5.31-2.58-7.5-5.49a14.49,14.49,0,0,1-2.74-8.23c0-6.54,5-8.65,3.84-11.89-1.35-3.68-8-1.45-13-7.14a20.18,20.18,0,0,1-3.84-7.31c-1-3.39-.12-4.09-1.09-6.95-.59-1.72-1.42-3.06-5.68-7.87-3.48-3.94-5.22-5.9-6.4-7-4.46-4-8.63-5.72-15.91-8.78-5.33-2.24-8-3.36-11.89-4.21-4.65-1-5.78-.51-16.28-.91-14.34-.55-13.44-1.52-18.84-.92-7.11.8-9.41,2.57-13.35.92-4.83-2-7.07-7-7.5-8-2.87-6.81,1.06-10.82-2-14.63s-7.83-1.3-10.43-5.12c-2.15-3.16.66-5.55-.92-11.34-1.33-4.93-3.68-4.4-6-10.07-2.48-6-.54-8.12-2.93-13.53-1.53-3.48-3.5-5.22-7.13-8.78-5.24-5.13-10-10.7-15.18-15.91-12.44-12.61-12-13.16-19.58-20.31-5.14-4.82-7.95-7-14.45-12.44-15.05-12.61-22.53-19.23-28.35-24.87-7.71-7.48-13.38-13.76-16.46-17.2-10.82-12-9.26-12.43-14.82-17.56-12.35-11.41-17.53-8-25.24-18.11-4.55-6-4.45-9.42-10.79-15.54-2.42-2.34-2.06-1.49-10.79-8.6-6.15-5-7.64-6.51-12.26-9.88s-2.2-1.21-9.33-6c-4-2.68-6.1-4.3-8.78-3.84-1.63.27-2.44,1.15-4,2.37-5.92,4.6-8.12,2.79-13.17,6.59-2.62,2-4.49,4.42-8.23,9.33-2.89,3.79-4.17,6.1-6.22,6-2.24-.07-2.69-2.91-5.85-3.47a7.71,7.71,0,0,0-5.49,1.46c-1.78,1.25-2.51,2.86-4,6.59-3.06,7.55-2.47,6.87-3.29,8.41C872,44,868,43.62,866,49.65c-.84,2.57-.64,4.26-2,4.93s-3.16-.46-7.32-2.56a56.69,56.69,0,0,0-7.13-3.29c-7-2.26-9.91,2.71-20.49,1.83-3.11-.26-4-.78-6-.18-3.31,1-4.09,3.39-8.78,6.76a19,19,0,0,1-18.48,3.3c-2-.67-3.14-1.43-6.58-2.38-3.71-1-4.69-.77-5.31-.37-1.8,1.17-.53,3.58-2.19,5.31-1.22,1.26-2.46.56-10.8.91a17.76,17.76,0,0,0-6.21,1.1,15.34,15.34,0,0,0-3.11,1.65c-4.77,3.09-11-.19-19.58,1.64-6.71,1.43-6.32,4.13-13,4.76-3.14.29-5.93,0-6.95,1.64-.8,1.32.1,2.82.91,5.86a84.63,84.63,0,0,1,1.1,9.33c1.39,14.62-.05,15.43,1.83,21.21.91,2.8,1.69,4,2,7,.49,4.54-.8,7.17-1.28,9.87-1.29,7.26,3.46,13.91,10.24,23.42,3.65,5.11,5,5.67,9.88,12.8,2.48,3.6,3.87,6,5.85,9.33,5.11,8.67,5.52,10.88,5.67,11.89.23,1.53,1,6.4-1.64,10.79-1.65,2.79-2.52,1.8-7.5,7.32-1.82,2-2.79,3.35-4.94,4.39s-3.28.72-4.94,1.28c-3.71,1.24-6,5.08-6.77,8.23a15.21,15.21,0,0,0-.36,3.29,24.85,24.85,0,0,0,.55,6c1,5.15,1.59,5.32,1.82,7.5.45,4.14-1.34,7.48-3.1,10.79-1.94,3.61-2.79,3.63-7,9.14-4.93,6.54-7.4,9.88-7.31,13.36.07,2.82,1.29,3.71,1.46,8.41.12,3.25.17,4.87-.55,6.22-2.66,5-11.32,1.19-16.64,6.59-2.58,2.61-.76,3.71-4.39,11.34-3.37,7.06-5.22,6.73-6.77,12.07a35.36,35.36,0,0,0-1.1,11.7c.13,1.57.32,2.44.73,6.59a67.19,67.19,0,0,1,.55,6.77c-.44,5.05-6.13,8.53-10.24,11-10.14,6-14.09,3.21-19.76,8.6-4.46,4.25-2.28,6.26-6.95,10.79-5.29,5.15-9.1,3.53-18.29,9a60.18,60.18,0,0,0-11,8.6c-6.1,5.66-5.34,6.67-13.9,15.91-4.27,4.61-5.64,5.64-11.71,12.26-2.26,2.46-3.81,4.22-6.22,7-13.36,15.15-20,22.72-21.58,25.06a28.9,28.9,0,0,1-6,6.95,24.38,24.38,0,0,1-8.41,4.57c-2.14.64-3.42.66-7.14.92-11.11.77-10.3,1.29-15.36,1.28-2.82,0-5.72-.31-11.53-.92-10.46-1.09-11.74-1.85-12.62-2.92-2.64-3.24.34-7-2.19-9.7-2.37-2.52-5.79-.11-14.27-.91-8.14-.77-8.7-3.35-13.9-2.38-2,.37-4.92,1.83-10.79,4.76-4,2-4.54,2.44-7.14,3.65-5,2.34-7.6,3.52-11,4-5,.75-9.07-.41-15.37-2.2-6.73-1.91-6.39-2.87-9.51-2.92-6.39-.12-11.68,3.83-14.63,6-4.06,3-3.16,3.64-6.4,5.86-6.46,4.4-13.55,4.39-17.2,4.39-4.6,0-9.69,0-14.27-3.48a12.91,12.91,0,0,1-4.75-5.85c-1.74-4.73,1.45-6.71,0-11.53-1.28-4.23-5-6.93-7.32-8.59a37.25,37.25,0,0,0-5.3-2.93c-5.14-2.56-7.75-3.82-9.51-2.93s-1,2.51-3.3,4.76a10.47,10.47,0,0,1-6.4,2.93c-3.64.25-5.25-2.14-8.6-3.66-9.35-4.27-19.71,4-22.49.18-1.38-1.86.48-4.74-1.28-6-1.26-.92-3.5-.4-4.94.54-3.08,2-1.87,5.41-4.94,8.05-1.13,1-2.76,1.38-6,2.2-5.92,1.48-7.52.57-9.14,2.19-.54.54-1,1.32-1.65,7.32-.59,5.76-.26,6.35-.73,9.51-.75,5-1.31,8.83-3.84,10.06-2.84,1.38-5.71-1.66-8.42.18-1.24.85-.92,1.68-2.37,3.66a16,16,0,0,1-6.77,4.94c-5.38,2.48-8.48,1.5-9,3.11-.34,1.16,1.2,1.92,4.76,6.95a25.4,25.4,0,0,1,2.74,4.39,16.33,16.33,0,0,1,1.65,6.95,14.45,14.45,0,0,1-1.28,6.22c-.49,1.06-2.33,5.08-6.58,6.77-2.91,1.15-5.42.61-9.15-.18-3.33-.72-6.47-1.39-9.15-3.85-3.86-3.54-3.8-8.09-5.48-8-1.34,0-2.52,3-2.93,5.3-.73,4.22,1.12,6.15,2.74,14.27,1,4.91.75,6.43,0,7.68-1.32,2.24-3.88,3-5.48,3.48a13.92,13.92,0,0,1-9.15-.55c-3.31-1.45-3-3-5.67-4.58-6.12-3.6-11.3,2.54-19.57-.36-4.05-1.42-4-3.3-7.87-3.84a15,15,0,0,0-10.79,3.11c-2.27,1.81-6.47,6.31-5.3,10.06,1,3.35,5.43,3.09,8.23,8.23a17,17,0,0,1,1.46,4.39c1.18,4.79,3.4,13.79-1.1,19.94a8.38,8.38,0,0,1-4,3.29c-2.69.91-3.87-.68-7.32-.73-4.81-.08-8.82,2.91-10.79,4.39-3,2.2-2.7,3.12-5.12,4.2s-3.56.46-7.5,1.47c-3.35.85-6,1.52-6.4,3.11-.69,2.6,4.91,6.46,7.68,8,4,2.3,5.35,1.68,6.58,3.48,2,2.89-.82,5.42-.18,11.52.33,3.11,1.56,5.61,4,10.61,2.27,4.63,3.41,6.94,5.48,9.33s3.57,3.35,3.3,4.76c-.32,1.63-2.92,3-5.31,2.92-2.67-.08-3.67-1.92-9.69-6.58-3.19-2.46-4.81-3.7-6.22-4-2.85-.64-3.87.56-10.06,1.1a21.93,21.93,0,0,1-6.4,0c-2.12-.38-6.37-1.15-7.69-4s1.44-4.68.19-8.05a7.75,7.75,0,0,0-4.76-4.39c-4.14-1.35-8.22,1.72-10.79,3.66-2.8,2.11-3.14,3.25-8.23,9.88-6.32,8.21-8.34,9.74-8,13a11.07,11.07,0,0,0,3.11,6.22c3.14,3.22,6.83,2.9,7.13,4.76.25,1.56-2.07,3.72-4.57,4.57-3.89,1.32-6.32-1.18-15-1.83-1.81-.13-3.2-.14-4.39.73-1.75,1.28-1.86,3.55-2.38,6.41-.6,3.26-2,6.32-2.92,9.51-3.37,11.76-4.91,10.42-5.49,15.54-.64,5.64,1.3,6.53,2,19.58a15.26,15.26,0,0,1-1.46,8.23c-1.32,2.49-2.58,2.82-4.21,4.75-3.56,4.21-1.67,7.46-4.39,17.93-1.1,4.22-1.77,6.72-3.66,9.69-2.53,4-4,3.72-7.86,8.23-2.8,3.28-1.9,3.29-7.87,12.44a83.18,83.18,0,0,1-6.58,9.15c-3.59,4.19-4.14,3.75-5.67,5.85-5.61,7.67-4,21.46-.19,29.63a15.38,15.38,0,0,1,2,6.41c.22,4.43-2.12,5.42-2.19,10.06,0,3.55,1.31,3.79,1.83,9a30.5,30.5,0,0,1-.18,7.68c-.86,5.2-3.21,8.91-5.86,13-3.53,5.45-5.08,5.92-6.22,9.69-.66,2.2-.6,3.59-.55,8,.18,14.78-.27,14,.19,20.85.56,8.41,1.06,6.86,1.09,11.16C2.93,912.28-.64,914.19.1,923.06c.39,4.68.88,10.53,5.12,14.45,4.61,4.27,9.38,2.33,15,8,2.18,2.22,2.1,3.15,4.94,5.86a33.79,33.79,0,0,0,9,6c7.92,3.91,7,5.7,19.76,13.72,11.54,7.27,14.22,7,19.39,12.62,4.59,5,2.92,5.66,7.31,10.25,6.71,7,11.72,6.55,21,13.53,4.54,3.4,4,4,10.24,9.7,10.61,9.69,20.65,15.73,37.87,26,8.63,5.14,7,3.81,13,7.5,14.46,8.85,16.95,12.1,30.37,19.94,4.82,2.81,6.07,3.31,13.17,7.5,6.3,3.71,11.49,7,14.63,9,7.74,4.91,6.62,4.49,11.52,7.5,9.81,6,14.71,9,17.38,10.06,4,1.54,7.77,2.44,8.78,5.49.48,1.44-.15,1.86-.37,4.93-.15,2.3.07,3.88,1.47,11.16.79,4.16,1.35,6.94,1.46,7.5,1.54,7.92-.71,11.7-1.65,22.68-.43,5.09.21,2.49.19,21,0,11.53-.26,12.27.18,16.46.35,3.31,1.33,8.1,3.29,17.56,2.6,12.54,2.63,11.78,2.75,13.35.74,9.93-2.58,11.37-2.2,21.77.25,6.91,1.73,6.71,2,15,.12,3.33-.22,7.2-.91,14.82-.87,9.65-1.32,14.52-2.2,16.82-1.72,4.56-3.56,6.26-5.67,13a32,32,0,0,0-1.64,6.59c-.76,7.42,2.93,9,4,18.65.55,4.84-.12,6.73,1.65,8.42s5.92,2.84,8.78,1.46c1-.49,1.51-1.11,2.56-1.1,1.93,0,3.35,2.18,3.84,2.93,2.94,4.45,2.67,11.54,2.93,19.39.28,8.52.84,7.74,1.09,17.38.27,10.36-.44,9,0,13.17,1.38,12.82,7.83,22.45,10.06,25.79,1.26,1.88,3.39,4.79,5.31,7.31,3,3.94,5.32,6.65,6,7.5,10.2,12.14,10.59,22.64,21.95,30.92,5,3.65,5,1.66,9.7,5.3,8.83,6.88,8.77,13.93,17.74,19.21a13.11,13.11,0,0,1,4.39,3.29c2.82,3.53,1.23,6.3,3.11,11.52,1.05,2.92,1.65,2.33,6.77,10.06,0,0,2.64,4,5.3,8.6a107.86,107.86,0,0,1,7.14,14.08c2.14,5.51,2.68,12.47,3.66,26.16.7,9.84,1.05,14.76.73,17.93-1.07,10.39-4.15,13.94-2,21,.65,2.19,1.47,3.6,3.47,9.7,1.12,3.41,1.85,5.64,2.38,7.86,1.29,5.45.46,7,.55,19,.06,7.89.43,9,0,13.72-.47,5.13-1,5.38-1.47,9.51-1,9.49,1.74,10.69,1.28,20.13-.27,5.68-1.23,4.69-2.37,15.18a78.26,78.26,0,0,0-.55,13.35c.18,3.43.47,4,.55,6.59.15,5.33-1,7.62-2,13.16-.45,2.47-.72,8.17-1.28,19.58-.32,6.71-.3,8.06-.18,9.69.22,3,.88,6.13,2.2,12.44a21.58,21.58,0,0,0,1.46,5.12c1.3,2.88,2.54,3.6,4.21,6,1.8,2.63,2.48,5,3.84,9.69,1.51,5.25,2.27,7.87,1.64,9.33-1.74,4-7.45,3-10.79,8-.88,1.32-1.28,2.6-1.83,5.49-2.46,12.93-.2,18.55-1.28,30.54a39.5,39.5,0,0,0,.37,8.23c.57,3.91,1.38,5.46,2.38,6.59,1.7,1.93,3,1.11,4,2.56,1.68,2.43-1.39,5.19-1.46,11.52,0,3,.63,2.85.73,6.22.14,4.91-1.18,8.14-1.83,10.61-1.56,5.92.59,8,1.46,17.56.19,2-.36,9.78-1.46,25.24-.72,10.1-.92,12.63-.91,17.2,0,6,.37,8.24.73,14.81.33,6.14.29,13.51.18,28-.16,21.2-.5,19.23-.18,22.86.88,10.19,2.59,14.32,1.83,24-.42,5.22-1,5.31-1.47,11.34-.62,8.46.32,11.86.55,19.57.37,12.39-1.8,12.07-1.64,24.33s2.32,10.57,2.19,21.76c-.11,9.39-1.67,13.49-1.28,26,.1,3.37.28,5.16.55,8.78,1.32,17.84,2.68,28.66,1.28,32.37a3.3,3.3,0,0,0-.18,2.38c.5,1.32,1.82,1,2.92,2.56.77,1.07.38,1.55,1.47,3.48a14.18,14.18,0,0,0,1.09,1.64c1.41,2.07,1.09,4.82.92,6.41-.36,3.34-.21,6.73-.73,10.06a139.82,139.82,0,0,0-1.83,18.1c-.15,6.33.56,6.53.18,12.81a49.17,49.17,0,0,1-2,11.89,46.25,46.25,0,0,1-2,5.3v216.94H352c1.4,6.12.85,10.17,0,12.8-.24.76-1,2.83-.18,3.48,1.07.88,4-1.63,4.94-.73.22.21.15,1.24,0,3.29a8.7,8.7,0,0,0,0,2.56,3.14,3.14,0,0,0,.73,1.83c.82.8,1.79.26,2.74.73,1.86.93,1.67,4.82,1.65,5.31-.21,4.27-2.78,5.92-1.83,7.5s3.88.78,4.57,2.56c.38,1-.31,1.66.18,2.19s1.9-.08,4.58-.36c1.82-.2,2.73-.3,3.29,0,2.51,1.29,1.79,8.16.55,12.8-1.06,3.93-1.7,3.31-2.75,7.32-.71,2.74-1.85,7.11-.73,12.07a42,42,0,0,0,1.83,6.22c1,2.26,2,3.86,1.28,4.94-.51.78-1.42.47-2.38,1.46a4.61,4.61,0,0,0-1.09,3.11,6.38,6.38,0,0,0,3.65,5.67c1.47.65,1.91,0,2.75.73,1.34,1.11.57,3,1.46,6.77.55,2.32.91,1.86,1.1,3.29.56,4.23-2.7,6.9-1.46,8.6.54.74,1.24.33,2.37,1.46.75.75,1.71,2.19,1.28,3.11s-1.85.5-4.2,1.1c-.31.08-5,1.33-7.14,5.12a18.79,18.79,0,0,0-1.09,3.29c-1.33,4.6-.87,5.58-2,6.77-1.57,1.64-3.22.61-4.39,2.2s-.55,4.39.37,6c1,1.82,2.05,1.82,4.21,3.66,4.35,3.71,3.13,6.26,7.13,9.15,2.29,1.65,4.43,2.07,4.39,3.29,0,.69-.72.87-2.19,2.56a15.21,15.21,0,0,0-2.2,3.11,9.41,9.41,0,0,0-1.1,4.75c0,.46.26,4.11,2.93,6A7,7,0,0,0,378,2654c4.07,1,5.34,4.06,10.25,8.41,5.38,4.78,6.13,3.09,9.51,6.95s2.61,5.54,5.85,7.87c2.37,1.7,3.6,1.39,8.05,4,2.65,1.57,4,2.35,4.57,3.11,2.22,2.84,1.12,6.1,1.47,17.56.05,1.63.13,3.58,1.46,4.58s2.87.15,5.3,1.09a10.43,10.43,0,0,1,3.3,2.38c6.79,6,7.65,6,9,8.41a23.87,23.87,0,0,1,1.83,4.58c.8,2.87.52,4.07,1.64,5.48.83,1,1.27.76,3.66,2.2a16,16,0,0,1,5.67,5.12c.94,1.51,1.59,2.54,1.28,3.66-.63,2.35-4.6,2-5.3,4.39-.39,1.31.47,2.62,1.65,4.39,1.93,2.92,3.54,3.15,5.12,5.49.84,1.25,1.31,2.56,1.83,5.67,1,5.87.63,9,.91,15.91.24,6.06.62,6.69.55,11.52A40.35,40.35,0,0,1,454.64,2796.11Z"/></g></g></svg>