<svg xmlns="http://www.w3.org/2000/svg" viewBox="0 0 2388.19 1231.41"><g id="Layer_2" data-name="Layer 2"><g id="Bhutan"><path d="M1723.92,204.84a7.73,7.73,0,0,0,1.52,1.65,7.82,7.82,0,0,0,2.5,1.39c1.76.46,2.7-.59,6.26-1.95a17.24,17.24,0,0,1,5.84-1.53,14.47,14.47,0,0,1,4.72.7,17.73,17.73,0,0,1,6.68,3.05c2.67,2.12,1.75,3.06,4.58,5.43.76.63.68.44,6.12,3.61,2.89,1.69,3.22,1.92,4,2.09,2.8.58,5.3-.82,6.54-1.53,4-2.3,4.53-5.07,9.31-10.57,2.69-3.1,3.81-2.78,4.31-4.45,1.07-3.53-2.38-5.51-1.67-9.87.44-2.67,2.19-4.63,3.76-6.39,2.47-2.79,4-2.83,5.56-5.57,1.38-2.41.61-3.08,2-4.44.33-.35,1.16-1.1,6.67-2.65,3.15-.88,3-.68,3.47-1,1.27-.82,2.49-2.62,2.79-11.4.24-7.28-.47-9.49,1.39-11.54,1.28-1.41,3-1.91,5.14-2.5,3.78-1.07,4.81.13,8.06-1.25a7,7,0,0,1,3.48-1,5.8,5.8,0,0,1,2.92,1.12,7.52,7.52,0,0,1,2.5,3.19c.77,1.65.48,2.15,1.25,5,.62,2.31.93,3.46,1.53,3.89,1.61,1.15,3.48-.88,7.93-1.25,1.68-.14,5.06-.42,7.5,1.53,1.66,1.32,1.06,2.21,3.06,4.31s2.72,1.46,5.56,3.75c2.4,1.93,2.37,2.75,4.59,4.31,1.94,1.37,2.35,1,4.45,2.23,4.71,2.7,4.32,5.32,8.2,6.81,1.46.56,1.25.09,5.29,1.11,2.18.56,2.77.83,5,1.39,1,.26,3,.75,5.28,1.12,5.25.83,6.78.15,7.65,1.39.62.88,0,1.48,0,5,0,2.48,0,5,1,5.42.59.22,1.61-.64,3.62-2.36s2.08-2.09,3.06-2.5a6.94,6.94,0,0,1,4-.28c2.17.38,2.06,1.21,4,1.53,2.24.36,3.25-.56,4.59.28a3.64,3.64,0,0,1,1.39,1.8c1,2.57-1.31,4.23-.7,7.51a8,8,0,0,0,1.26,2.92,10.58,10.58,0,0,0,3,3.06c4.25,3,3.62,5.55,9.46,10.84a15.59,15.59,0,0,1,3.61,3.9,8.58,8.58,0,0,1,1.39,5.42,8.82,8.82,0,0,1-1,2.78c-2.14,4.65-3.6,5.52-4.17,8.48-.24,1.23-.52,2.66.28,3.75.92,1.27,2.4.87,4.72,1.53,3.68,1.06,3.44,3.06,7.65,5,2.39,1.1,2.35.4,6.54,1.81,2.48.83,2.79,1.18,7.22,3.05,3.08,1.31,2.95,1.15,7.93,3.2,4.24,1.75,5.92,2.52,7.79,4.17a14.11,14.11,0,0,1,2.64,3.06,14.85,14.85,0,0,1,1.8,5.84c.82,5.52-.38,6.56.84,8.06,2.07,2.56,7.19,1.52,7.78,1.39a15.45,15.45,0,0,0,4.87-2.22c3.38-2,3.29-2.72,5.56-3.75.91-.42,1.55-.58,6.81-1.39,4.35-.67,6.52-1,6.82-1,3,.31,2.8,1.66,10,5.7,1.57.89,3.32,2,6.81,4.31a7.49,7.49,0,0,1,2.92,2.92,5.62,5.62,0,0,1,.55,3.9c-.57,2.06-2.27,2-2.92,4.17a8.18,8.18,0,0,0,0,3.47c.28,2.2.91,3.25.28,4-.43.54-.93.29-1.53,1-.37.42-.34.71-.69,2.08a24.06,24.06,0,0,0-.84,3.06c-.12,1.24.15,1.55-.14,2-.49.7-1.84.57-4,.14-4.42-.87-5.06-2.18-6.39-1.67-2,.78-1.33,4-3.62,5-.91.4-2.14,0-4.59-.69a43.54,43.54,0,0,1-6.25-2.37c-2.18-1.07-3.25-1.87-4-1.39-.51.32-.57,1-.7,1.95-.41,3.13-.72,5.51-1.67,7.37-.43.85-1.43,2.82-2.92,2.92-1,.06-1.53-.8-4.45-3.2-2.54-2.09-3.06-2.19-3.47-2.08-1.17.3-1.88,2.4-1.81,4.17.12,2.74,2.07,3.51,3.62,6.95,1.31,2.92.31,3.27,1.39,6.39,1.51,4.38,3.63,4.15,6.81,9.46,2.81,4.69,2.33,6.86,4.45,7.64,1.77.66,3.87-.48,8.06-2.78s5.13-3.6,8.76-4.86c2.25-.78,3.42-1.19,5-1,2.79.38,3.52,2.23,7.64,5.43,4.62,3.57,5.43,2.57,7.37,5,1,1.23,1.78,3.8,3.34,8.9a71.93,71.93,0,0,1,2.22,8.06c.7,4.43-.1,5,.84,9.32a55.85,55.85,0,0,0,1.8,6.11c1.52,4.56,1.73,4.15,2,5.43.74,4.25-2.16,5.47-3.75,12.51-.71,3.11-.14,2.9-1.12,8.2-.66,3.62-1,4.16-1.66,7.51a84.64,84.64,0,0,0-1.39,10.57c-.44,6.21.1,8.63-1.95,11.12a12.76,12.76,0,0,1-2.78,2.22c-3,2.11-5.73,4.47-8.62,6.68-10.26,7.83-8.8,7.8-13.49,10.7-3.17,2-5.19,2.81-8.62,5.56a29.56,29.56,0,0,0-5.42,5.42,26.63,26.63,0,0,0-3.34,6c-2.05,5.24-.63,6.76-2.78,11.26-1.44,3-2.41,3-2.5,4.87-.13,2.59,1.7,4.69,4.73,8.06,1.42,1.59,1.53,1.48,5.42,5.43,3.26,3.3,4,4.22,4.31,5.7.42,2-.3,3.77-1,5.42a20.18,20.18,0,0,1-4.31,6.12c-4.13,4.38-5.86,4.27-6.26,6.39-.23,1.2.26,1.62,2.92,7.09,2.45,5,2.25,5.1,3.61,7.51,2.18,3.83,2.43,3.2,4.18,6.39,2.12,3.89,2,5.31,4.44,9,1.8,2.74,2.79,3.4,3.48,3.76.44.22,1.49.7,6,.69,4.34,0,5.43-.46,6.95.42,1.13.65,1.66,1.56,2.5,3.06,1.5,2.64,1.46,4.21,2.78,9.59.79,3.21,1.2,4.84,1.95,6.12a19.59,19.59,0,0,0,4.45,5c1.44,1.22,1.55,1,3.47,2.5a70.29,70.29,0,0,1,6,5.43c4.75,4.44,4.56,3.81,5,4.58,2.59,4.51-.91,8.87,1.25,10.85,1.72,1.58,5.42.14,9.73-1.53a28.42,28.42,0,0,0,10.29-6.12c3.32-3.25,6-6.25,6-6.25,1.45-1.65,2.12-2.51,3.47-2.92,1.52-.47,3.05,0,6.12,1,1.27.4.79.33,4.87,1.81A21.22,21.22,0,0,1,2095,597a9,9,0,0,1,3.33,2.36c1.11,1.59.08,3.15-.69,7.93-.71,4.41-1.07,6.81.28,8.62.29.4.65.73,4.72,2.5s6.13,2.65,7.37,2.78c1.85.19,1.94-.27,7.65-1.39,4.11-.81,3.6-.48,7.65-1.25,5.82-1.11,7.66-1.94,8.48-1,1,1.2-1.17,3.18-.14,6a5.46,5.46,0,0,0,3.47,3.34c1.73.46,2.68-.52,6.81-2.22,4.5-1.86,4.46-1.13,7-2.51,3.37-1.85,3.35-3.11,6.25-4.17a12,12,0,0,1,5.7-.69c2.31.31,2.87,1.16,8.48,3.75,3.15,1.45,3.68,1.51,4,1.53,3.15.18,5.68-2.16,7.5-3.89,4.55-4.32,4-7.21,7.65-8.9a11.08,11.08,0,0,1,5.84-.7c1.08.08,8.14.55,10.57,5.15,1.26,2.39.12,3.72,1.52,5.14s3.17.94,9,.7c5.43-.22,4.3.12,9.18-.14,3.51-.19,4-.36,10.29-.84,6.62-.5,7.7-.43,9-.13a22.34,22.34,0,0,1,7.23,3.33c5.85,3.59,5.45,5.27,8.48,6.12,2.55.71,2.87-.46,12-2.5,6.54-1.47,7.33-1.08,10.43-2.51s3.4-2.34,6.81-3.61,3.57-.55,7.65-2c1.06-.36,3.81-1.36,7.22-2.78,2.58-1.07,4-1.74,4.73-1.11.45.38.49,1.46.56,3.61.06,2-.07,3,.41,3.2s1.24-.78,1.81-.55.52,2.27.42,3.89a47.22,47.22,0,0,0,.28,9.59,11.57,11.57,0,0,0,1.39,4.73c.35.58.78,1.13,4.72,4.31,3.15,2.53,4.72,3.79,4.87,3.89,1.36.9,2.17,1.28,2.78,2.37a6.27,6.27,0,0,1,.56,3.61,13,13,0,0,1-1.53,5.56c-1.53,2.79-2.9,2.8-2.92,4.17,0,1.64,1.91,2.46,5.42,5.29a33.35,33.35,0,0,1,6.12,5.83c1,1.34,3.86,5.1,3.75,9.88,0,1.85-.48,1.59-1.11,5.42-.44,2.65-.34,3.46-.7,8.2-.21,2.88-.41,5.58-.83,8.9-.73,5.82-1.17,5.94-.83,7.78.41,2.29,1.44,4.09,3.33,7.37,1.18,2,2.16,3.46,2.64,4.17,4.93,7.2,4.88,8.83,9.18,14.88a45,45,0,0,0,6.12,7.51,60.23,60.23,0,0,0,9.45,6.95c3.13,2,4,2.43,7.09,4.31,9.83,6,14.75,9.08,14.74,12.51,0,2.53-2.19,4.79-3.48,6.12a14.35,14.35,0,0,1-5,3.33c-.79.32-2.39.87-7.23,1-5,.11-7.52.17-9.46-.56a30.66,30.66,0,0,1-7.78-4.72c-1.21-1-1.91-1.72-3.2-2-2-.38-3.71.81-5.7,2.08-6.58,4.23-6.41,2.9-10.57,6.12-3.48,2.7-6.24,4.85-5.83,7,.23,1.23,1.36,1.49,4.72,3.76,1.92,1.29.65.59,7.09,5.56,4.84,3.72,6,4.46,6.68,6.39.51,1.47.38,2.63.14,4.87-.48,4.38-1.86,6.45-3.2,10.7-1.14,3.6-.41,2.91-1.81,8.49-1.31,5.23-2.29,9-4.87,13.06a29.42,29.42,0,0,1-4.44,5.43c-5.86,5.66-10.12,5.22-14.05,10.7-1.08,1.52-2.31,3.29-1.94,5.28.31,1.71,1.58,2.4,1.8,4.73a13.69,13.69,0,0,1-.27,2.92c-.13,1.75.32,2.36,1.25,6a47,47,0,0,1,1.25,6,30.36,30.36,0,0,1,.28,4.17,21.28,21.28,0,0,1-2.37,10.56c-1.37,2.44-2.11,2.24-3.19,4.73a15,15,0,0,0-1.26,5.84c0,2,.42,3,1.53,6.95,1.63,5.69,1.11,4.9,1.95,7.37,1.65,4.83,2.67,5,4.31,9.87a54.35,54.35,0,0,1,1.81,7c1.06,5.4.47,6.39,1.67,8.48,1,1.81,2.86,2.88,6.53,5a45.19,45.19,0,0,0,10.43,4.45c2.31.64,3.85.21,6.39,1.25a9.91,9.91,0,0,1,4.17,2.5c2.35,2.69,2,6.56,1.81,8.07a65.77,65.77,0,0,1-1.53,6.81c-.56,2.25-.67,2.51-.55,3.06.46,2.16,3.16,2.69,8.06,5,5.22,2.47,9.09,4.35,10.29,7.93.05.15.22,1.26.55,3.47.58,3.82.87,5.72,1,7.09.36,4.84-.45,5.55.55,6.81,1.12,1.41,2.31.74,4.73,2.79a30.67,30.67,0,0,1,2.64,2.91c2.3,2.7,2.44,3.18,2.5,3.48.22,1-.23,1.64-1.8,4.59a80.45,80.45,0,0,0-3.48,7.65c-.71,1.81-.85,2.44-.69,3.19.41,2,2.42,2.55,3.61,3.62,3.17,2.84-.28,8.35-.69,19.18a134.83,134.83,0,0,0,0,15.57c.2,2.22.56,5-1.12,6.82-1.53,1.67-3.38,1.09-5.56,3.19a9.58,9.58,0,0,0-2.5,4.45c-.82,3.09.51,4.22-.28,8.21a8.56,8.56,0,0,1-1.11,3.33c-1.55,2.37-4.24,2.67-7.65,3.62a57.66,57.66,0,0,0-15.15,7,27.06,27.06,0,0,1-5.15,2.92,16,16,0,0,1-5.83,1.53c-2.58.1-4.22-.63-6.54-1.39a52,52,0,0,0-12.51-2.37c-5.66-.46-6.51.55-10.85-.27-4.05-.78-3.84-2-8.2-3.06-5.3-1.24-6.83.08-9.45-1.67-1.12-.74-1.37-1.33-4.31-6.53-3.09-5.46-4.66-8.21-5.56-9.18a25.23,25.23,0,0,0-8.62-5.7c-3.21-1.41-4.15-1.16-7.37-2.78a36,36,0,0,1-6.26-4.17c-3.07-2.32-2.94-1.72-12.09-7.09-4.32-2.54-10.44-6.24-16.27-8.48a13.68,13.68,0,0,0-4.17-1c-2.73-.18-4.4.59-6.95,1.25-2.82.74-2.26.18-9,1.12-5.51.75-8.3,1.16-9.87,2.22-1.27.86-1.92,1.72-5.14,7-2.71,4.39-4.67,7.72-5.29,8.76-.44.74-3.87,6.52-7.78,12.51-3.28,5-4.92,7.52-6,8.76-2.11,2.46-4.62,4.67-23.5,14.46-5.11,2.65-7.66,4-11.26,5.7-7.84,3.76-9.09,3.92-13.07,6.12-7.23,4-6.33,5.23-13.34,9.45-4.55,2.74-10.72,6.37-19.19,7.37a52.25,52.25,0,0,1-12.51-.28c-4.63-.51-4.93-1-12.38-2.36-10.83-2-11.17-1.14-16.68-2.78-6.91-2.06-7.08-3.61-11.26-3.75-4.79-.16-8.49,1.74-12.93,4-6.84,3.52-7.19,5.76-13.21,7.78a81.19,81.19,0,0,1-8.2,1.81c-4.71.93-7.72,1.37-11.26,1.95-6.48,1.05-5.76,1.08-15.43,2.78-11.54,2-16,2.58-17.66,2.78-9.36,1.13-12.26.91-14,.69-3.12-.37-5.79-1.17-11.13-2.78a79.62,79.62,0,0,1-12.65-4.59c-2.81-1.35-2.91-1.67-9.31-5.56-13.37-8.11-14.11-7.42-16.55-10.42-2.84-3.51-3.17-6.1-7.23-9.18-2.41-1.83-4.05-3.55-6-3.2-2.71.49-3,4.24-6.4,10.15-2.49,4.3-3.33,4-9,11.4-6.39,8.29-4.88,8.09-7.92,11.26-7.58,7.93-17.74,10.06-22.8,11.13a38.72,38.72,0,0,1-12.93,1c-2.2-.24-3.82-.63-14.6-4.59-8.24-3-12.36-4.54-17.1-6.53-7.24-3-6.95-3.27-12.37-5.43a110.76,110.76,0,0,0-17-5.56,91.12,91.12,0,0,0-17.37-2.08c-11.09-.5-11.61.81-27.67,1.11-9.55.18-15.22.25-22.8-1-3.21-.52-3.63-.77-11.82-2.23-10.61-1.89-10.91-1.66-13.35-2.64-4.67-1.88-6.51-3.93-9.17-3.06-1.68.55-2.22,1.79-4.31,4.59-2.43,3.26-5.48,6-8.2,9-6.87,7.62-5.43,5.87-8.49,9.31-6.31,7.13-7.27,8.74-10,9.46-2.47.64-3-.33-9-1.53-6.77-1.36-7.34-.37-19.33-1.81-4.52-.54-8.34-1.11-8.34-1.11-7.21-1.08-8.57-1.58-11.82-1.39A39.13,39.13,0,0,0,1576,1163c-7.31,1.93-7,3.29-9.31,3-3-.31-3.14-2-6.4-2.5-3-.47-4.88.71-8.06,1.67-1.94.59-2.31.47-13.21,1-5.76.27-10.35.48-15.57.84-4.92.33-8.69.67-12,1-7.29.67-12.7,1.29-14.87,1.53-12.37,1.4-23.83,2.43-32.26,3.2-14.18,1.28-25,2-31.84,2.5-16.52,1.13-25.73,2-33.5,2-9.5-.06-12-1.21-15.3-.28a5.77,5.77,0,0,1-4.31-.14c-.76-.43-1-1-2.08-2.23l-3.06-3.33c-3.1-3.38-4.66-5.07-6-5.7a10.63,10.63,0,0,0-5-1c-3,.1-3.84,1.34-8.07,2.92a24.43,24.43,0,0,1-8.48,2c-2.68.06-5.42.12-7.64-1.53-3.57-2.65-1.75-6.72-5.15-10-2.15-2.09-4.26-1.78-9.59-2.92s-6.37-2.13-13.9-4.73c-11-3.77-13.49-3.25-34.07-9-6.76-1.9-8.67-2.57-11.12-3.89-5.1-2.77-7.31-5.54-14.32-12.52a188.36,188.36,0,0,0-13.76-12.93c-5.94-4.86-6.22-4-17.8-11.95-8.69-6-13.45-9.27-19.32-14.46-3.45-3-7-6-10.43-9-5-4.44-5.64-5.09-7.37-5.84-3.34-1.44-4.92-.67-15-.28-7.62.3-13.77.28-13.77.28a57.42,57.42,0,0,0-12,1.11c-2.78.57-4.06,1.07-5.15,2.09-2.33,2.19-2.24,5.32-2.64,8.2-.21,1.52-1.74,8.66-5.7,13.35-2,2.31-3,2.26-10,6.12-11.09,6.12-10,7.11-15.15,9-3.48,1.28-11,4.07-18.36,1.25-3.76-1.45-3.91-3-8.2-4.17-3.6-1-6.54-.67-12-.14a46.27,46.27,0,0,0-10.43,1.81c-1.93.62-3.59,1.34-11.54,6.26-11.74,7.25-13.31,8.88-14.6,10.7-2.13,3-.73,2.58-4,9.18-4.55,9.09-8.23,11.91-7.51,17.1a22.13,22.13,0,0,0,1.53,4.87c1.78,4.61,3.05,5.33,3.89,7.92a13.86,13.86,0,0,1-1.39,11.26c-1.44,2.24-4.83,3.56-11.54,6.12a105.38,105.38,0,0,1-20.85,5.7l-1.81.28c-14.37,2.19-25.29,9.24-39.34,13.62-3.48,1.09-.32-.12-22,4.31-14.79,3-18.62,4.08-25.72,3.89-3.6-.09-5.24-.42-13.21-.69-5.33-.18-9.29-.31-13.62-.14-6.32.25-6.93.89-18.77,2.5-10.5,1.43-8.79.76-21.41,2.37-9.39,1.19-10.31,1.56-13.21,1.11-5.16-.81-7.43-2.78-15.43-6.4-10.55-4.76-11.55-5.76-12.79-5-4.47,2.7-3.21,20-2.09,24.33a2.54,2.54,0,0,1-.14,2.08c-1.11,1.56-5,.5-5.84.28-3-.81-3.92-2-6.11-3.06-4.21-2.07-6.17-.38-12.52-1.39-6-.94-5.21-2.58-9.59-3.06s-6,1-18.21,5c-8.15,2.67-9.77,2.8-11.54,2.08-2.71-1.09-4.17-3.74-7.09-9-2.14-3.87-6.12-11.68-6.12-11.68-1.22-2.38-1.88-3.71-3.34-4.17-.55-.18-2-.48-7.5,2.92-4.46,2.76-4.39,3.52-6.26,4-2.31.62-4.54,0-9.59-2.36-6.19-3-7.78-4.41-11.4-6.26-1.12-.57-15.54-7.75-20.72-2.92-.38.35-.39.47-2.78,6.26-3.16,7.64-3.35,7.93-3.75,8.34-3.69,3.74-10.6,2.58-15.16,1.81-3.78-.64-6.53-1.11-9-3.48-2.26-2.14-4.57-6.07-3.76-9.87.88-4.14,4.57-3.9,11.4-10.71,1.75-1.74,7.21-7.44,7.93-13.62a8.94,8.94,0,0,0-.84-5.42,8.16,8.16,0,0,0-2.78-2.92c-4.23-2.79-10.55-3.59-14.73-4.59-8.48-2-7.8-4.81-17.8-7.37-5.68-1.45-5.56-.47-9.59-2a41.92,41.92,0,0,1-13.91-8.89c-4-3.88-3.94-5.34-6.67-6.4-3.78-1.46-7.22.06-11.54,1.39-4,1.24-9,1.89-19,3.2-15,2-17,0-25.3,1.67a14.49,14.49,0,0,1-5.84.14c-.9-.18-3.79-.83-7.51-4a32.22,32.22,0,0,1-9-13.76c-1.62-5-1.17-7.77-3.34-8.9-1.54-.79-2.5.52-6.81,1.39a36,36,0,0,1-9.6.42,38.69,38.69,0,0,1-8.61-1.11c-3.45-.9-6.26-1.62-8.76-3.89-2.09-1.9-1.62-2.73-4.59-7.1-2.83-4.15-4.6-6.75-7.37-7.36-1.9-.43-2.74.43-7.79,2.64-8.46,3.7-8.57,2.38-14.45,5.42-3.08,1.59-4.83,2.87-8.49,3.89-4.31,1.21-5.95.56-6.53.28-2.62-1.25-2.62-3.93-4.31-4.17-2-.28-3.37,3.15-6,6.4-2.79,3.47-4.52,3.69-14.74,10-10.55,6.52-10.63,6.56-11.95,7.78a16.52,16.52,0,0,1-4.45,3.2,14.81,14.81,0,0,1-7.93,1.39c-3.58-.43-3.77-2-8.06-3.48a26.74,26.74,0,0,0-10.43-1.11,30.31,30.31,0,0,0-10.42,2c-5.9,2.31-6.08,4.82-9.74,4.86-.63,0-1.35,0-9-3.47-5.64-2.51-5.58-2.62-6.54-2.78-2.87-.5-4,.39-11.68,2.5-2.25.62-5.76,1.58-9.87,2.36-5.47,1.05-8.21,1.57-9.73,1.25-6-1.23-5.53-6.6-14.74-13.06-3.93-2.77-5.86-3.08-6.53-5.43-1-3.32,2.3-4.9,2.5-10.84a21.29,21.29,0,0,0-1.53-8.2,16.63,16.63,0,0,0-2.92-5.56c-2.17-2.59-3.36-2.07-4.17-3.76-1.37-2.88,1.77-5,1.39-9.73a11.79,11.79,0,0,0-2.92-6.67c-2.21-2.45-3.83-1.85-10.7-5.15-3.85-1.84-4.06-2.38-6-2.78-3.16-.66-6.57.52-9,1.25-3.12.93-4.48,1.76-5.14,1.12s.28-2.06.83-5.29a18.56,18.56,0,0,0,.14-6.53c-.3-1.66-.85-4.69-3.47-6.81-1.89-1.53-4.11-1.69-7.09-2-4-.35-4.41.56-5.84-.28-2.16-1.26-1.54-3.53-4.59-6.81-1.27-1.36-1.9-2.05-2.92-2.23-2.47-.43-3.95,2.55-8.48,6.12a25,25,0,0,1-8.76,4.87c-3.49,1-9,1.54-10.71-1-.67-1-.21-1.62-1-2.36-1.51-1.49-4,.39-8.06.14a14.77,14.77,0,0,1-8.07-3.34c-.6-.47-1.6-1.32-4.44-5.42-4.32-6.22-6.46-9.37-5.7-11.68.27-.85,1.67-2,4.44-4.31,4.72-3.9,5.89-4.22,6.12-5.56.34-2-1.89-3.08-6.12-7.37-6.56-6.65-7.33-10.25-11.95-11.26a9,9,0,0,0-4.17,0c-3.48.88-5.33,3.82-6.82,5.84-3.3,4.49-3.27,2.37-11.12,10.43-8.28,8.5-10.15,12.76-12.09,12.09-1.51-.51-1.39-3.44-2.23-11.26-1.17-10.94-1.89-9.65-2.22-15.57-.3-5.26.27-6.15,1.8-22.8.77-8.3.52-6.92,1.12-13.07,1.75-18.1,2.69-17.48,2.5-23.49-.35-11-3.38-10.45-3.48-21.69-.07-9.09,1.87-13.87-1-16-2.22-1.65-4.2.66-13.07.55-6.5-.07-9.72-1.37-11-1.94-2.23-1-2.49-1.6-6-4-9.19-6.4-11.4-5.05-14-8.9-2.91-4.23-1.65-7.91-4.59-9.18-.54-.23-1.21-.37-6.67.84-6.49,1.43-6.35,1.81-8.62,1.94s-4.36-.19-8.62-.83c-2.16-.33-2.34-.43-4.73-.84C2.84,883.94.63,884.45.09,883.14s1.27-3.35,4.86-7.51c2.74-3.17,3.2-3.11,4-4.72,1-1.93.78-2.9,1.53-8.21.58-4.18.87-6.28,1.39-7.23,1.45-2.71,3.69-3.28,8.75-6,5.91-3.15,8.86-4.72,10.71-6.82s1.45-2.81,5.7-14.87c2.53-7.17,2.87-7.49,3.06-9.6.47-5.3-1.45-6.4-1.11-12.09.16-2.74.41-7,3.33-10.57,2.75-3.35,5.74-1.23,11.26-5.28,2-1.47,2.45-2.3,5-3.89a30.41,30.41,0,0,1,6.53-3.06c4-1.24,5.84-.29,15.85.55,6.27.53,9.44.78,11.4.14,3.63-1.17,5.06-3.11,9.46-3.61,3.08-.35,3.52.47,5.42-.14,1.22-.39,4.08-1.71,7-9.18,2.07-5.38,1.24-6.42,3.2-15.43a111.85,111.85,0,0,1,4.17-14.6c.72-2,.85-4.93,3.06-7.5a35,35,0,0,1,3.75-3.2c4.2-3.47,4.79-4,5.7-3.9,1.64.18,2.35,2.14,3.89,4.59,1.34,2.11,1.59,1.89,8.07,8.48,9.53,9.7,9,10.23,10.7,10.57,3.55.72,7.84-2.58,16.41-9.18,4.85-3.73,6-5.33,6.81-7.23,1.37-3.41,1.61-8.53-1.11-11.54-2.22-2.45-4.33-1.18-8.9-4a17.17,17.17,0,0,1-6.25-6.11c-1.44-2.61-1-4-1.67-14.32a62.58,62.58,0,0,0-.7-7.65c-1.87-6.8-6-7.47-6.25-12.37-.13-2.2.93-4.52,3-9.18,1.89-4.13,2.81-4.67,3.62-7.65,1-3.57.06-4.35.56-8.34.53-4.27,2.06-7.28,4.58-12.23,3.15-6.18,4.4-6.38,5-9.74.43-2.41-.07-3.09-1.25-10.14-2-11.63-1.28-14-.56-15.58a16.53,16.53,0,0,1,5-5.83c3.15-2.64,5.14-2.83,9.73-6.12,2.92-2.1,2.76-2.49,4.45-3.62,5.37-3.6,10.06-1.71,21-2.36a80,80,0,0,0,14.18-2.09c5.78-1.42,6.89-2.46,16.13-5.84,13.74-5,13.43-3.47,17.24-6,6.86-4.51,5-7.66,13.9-15.3,2.56-2.2,6.2-4.57,13.49-9.31,6.95-4.52,11.28-4.4,11.95-7.51.3-1.35-.19-2.52-5.14-9.73-2.88-4.2-4.93-7-6.67-9.46-6.9-9.6-7.29-10.54-9.88-13.2-3.41-3.52-4-3.21-4.86-5-2.6-5.52,1.22-12.38,3.61-16.68a45.89,45.89,0,0,1,10.85-12.93c9.54-7.87,14.18-10.29,14.18-10.29,1.94-1,4.75-2.33,5.28-4.87s-1.56-3.51-1.11-6.11c.38-2.25,2.18-3,5.42-6.12,2.31-2.24,4.29-4.17,5.56-6.67,2.62-5.14-.4-7.44,2.09-13.91.7-1.81,2.06-5.35,5.42-7.23,1.27-.7,1.62-.5,6.4-1.66,6.91-1.69,7.76-2.51,8.06-3.34.49-1.38-.87-1.92-1-4.45-.14-3.16,1.93-3.65,1.94-6.53s-2.1-3.59-2.78-7.23a13.25,13.25,0,0,1,.42-5.7c1.89-8.54,2.83-12.81,4.59-17.24,2.63-6.63,3.94-9.94,6.81-12.93a43.8,43.8,0,0,1,9.45-6.95c6.06-3.65,6.88-2.86,8.35-4.87,3-4.14,0-8.06,3.05-13.63.6-1.07,2-2.44,4.87-5.14,6.34-6,9.51-9.05,14.46-11.68,3.16-1.68,5.76-3.07,9.59-3.61,5.92-.85,7.81,1.32,13.21.69,2.15-.25,2.78-.7,12-5.42,12.92-6.66,13.61-6.77,16.12-8.76,3.06-2.42,5.19-4.9,9.46-9.87,5.48-6.38,8.21-9.57,9.31-13.21,1.72-5.67-.12-8.35,2.64-11.4s5.85-1.63,7.65-4.72-.35-5.69,2.09-9.32a15.42,15.42,0,0,1,2.64-2.64,64,64,0,0,1,7.23-5.56,48.79,48.79,0,0,0,11-10.57c3.1-4,6.4-8.18,7.37-14.32.21-1.32.23-4,.28-9.45.05-5.72.07-8.58,0-9.46-.36-4.27-1-5.88.14-7.23.69-.8,1.3-.66,5.14-2.08a23.71,23.71,0,0,0,4-1.67c3-2.22,3.13-7.66,2.5-11.12-1-5.55-3.91-5.93-3.75-9.59.13-3,2.13-4.81,7.51-10.15,6.45-6.41,9.67-9.62,10.29-10.43,5.76-7.61,5.13-13.38,11.54-20.3a10.92,10.92,0,0,1,5.56-3.61c1.84-.42,3.66-.1,7.23.55,3.15.58,3.19.86,5.56,1.25,4.33.73,6.63,1.12,8.48,0,2.06-1.23.92-2.73,3.89-9.17,1.92-4.17,3.28-5.45,3.48-8.76.11-1.94-.29-2.53.27-3.2,1.86-2.2,7.82,2.09,11.54-.42,1.28-.86,1.37-1.89,2.37-4,3.69-7.9,9-7.57,13.34-15.71A22.19,22.19,0,0,0,599,76.77c.81-4.69-.53-7.38,1.39-9.31.54-.55.79-.48,4.86-1.67,4.78-1.4,4.66-1.57,7.23-2.23,3.83-1,3.93-.55,7.51-1.39,5.2-1.21,5.09-2.12,8.76-2.78s6.44-.29,10,.14c4.59.56,6.26,1.4,9.87.84a9.11,9.11,0,0,0,4.73-1.67c2.26-1.82,1.84-3.93,3.89-5.7s4.45-1.67,5.84-1.67c3,0,4.33,1.17,11.68,4.73,5.29,2.56,6.24,2.74,7.23,2.78,3.74.14,6.71-1.83,8.75-3.2,3.13-2.08,3.4-3.37,8.62-7.37,2.4-1.83,3.36-2.34,4.59-2.36,2.22,0,3.23,1.5,6.26,3.06,1.45.74,4.43,2.28,7.09,2.08C724.91,50.5,728.62,36,729,34.37c1.12-4.59.43-6.31,0-7.09-1.71-3.12-5.21-2.56-6.26-5.29s1.29-7.48,4.45-8.48c2.91-.91,4.5,1.87,6.81.84s1.66-4.41,5.29-10.57c2-3.35,3-3.67,3.47-3.75,2-.32,2.86,2.08,6.67,4.59s4.57,1.26,9,3.89c3.49,2.05,3,2.8,6.54,4.73,2.39,1.31,4.94,2.7,8.34,2.78.76,0,2.82-.27,7-.84,3.09-.42,3.74-.56,4.73-.28,2.57.75,3.86,3.32,4.72,4.87,3.41,6.12,4.82,4.61,9.32,11.54,6.24,9.63,4.6,14.22,9.73,17,2,1.08,4,1.19,8.06,1.39,3.79.2,8.9.46,14.32-1.67,1.77-.69,3.57-1.63,6.12-1.39A11.81,11.81,0,0,1,841.63,48c2.48,1.32,2.53,2.37,4,3.06.9.41,2.71.88,9.18-2.22,6.67-3.2,6.73-4.65,9.45-4.87,4.06-.32,7.41,2.61,10.15,5,5.72,5,4.58,8.15,9.73,11,2.46,1.35,5.12,2.81,8.48,2.5,1.68-.15,2.72-.67,3.62,0,1.37,1,.22,3.13,1.25,6.68.75,2.57,1.54,2.07,2.64,5.14s.46,3.75,1.67,6.81A10,10,0,0,0,904.05,85a9.32,9.32,0,0,0,6.26,2.37c1.38,0,3.82.14,5.7-1.39,2.42-2,1.26-4.51,3.62-7.79a11.87,11.87,0,0,1,5.42-4c2.69-1,4.15-.43,12.09.42,6.78.72,9.06.64,10.43.55,3.11-.2,5.38-.37,7.93-1.66,2.7-1.38,2.41-2.34,6.11-5,3.88-2.79,4.95-2.29,7.09-4.45a13.35,13.35,0,0,0,3.76-7.23c.64-4.46-1.58-8.58-.14-12.51a2.45,2.45,0,0,1,.55-1c.9-.93,2.37-.8,7.48-.3l1.56.16c4.86.41,7.25-.86,10.43-.84,1.46,0,3.52.84,7.64,2.51,5.14,2.07,7.71,3.11,10.15,5.28a23,23,0,0,1,5.43,7.51c2.31,4.83,1.2,6.37,3.61,10,1.22,1.83,2.71,3.07,5.7,5.56,4,3.32,6,5,7.65,5.56,6.36,2.23,10-3.48,20.85-2.92a14.53,14.53,0,0,1,6.26,1.39c3.82,2,4,4.74,6.53,5.28.67.15,2.37.32,9-5.28,6-5.07,6.57-6.82,10.15-8.2,1.67-.65,5.05-1.95,8.34-.7,4.19,1.59,3.37,5.48,9,11.68,1.11,1.22.79.69,8.34,7.23,2.91,2.53,5.18,4.5,6.81,6,6.4,5.82,6.81,7.73,17.8,20.16,4.54,5.14,5.24,5.68,6.25,7.78,1.86,3.85,1,5.16,3.76,13.63a37.3,37.3,0,0,0,3.33,7.5c1.22,2.09,1.85,3.15,3.06,4,3.27,2.39,7.6,1.49,8.62,1.25,4.8-1.15,5-4.22,9.46-5.56,2.62-.79,4.32-.27,9.59.69,12.83,2.34,11.83.91,15.29,2.23,10.49,4,10.34,13.58,19.33,14.87,3.45.5,6.25-.52,9-1.53,4.32-1.56,8.41-4.58,16.41-10.56,2.85-2.14,3.23-2.49,4.31-2.78,3.92-1.06,6.48,1.61,14,4.58,4.22,1.67,3.41.83,10.15,3.2,6,2.1,9,3.19,12.24,5.29a38,38,0,0,1,8.2,7.22c3,3.57,3.46,5.56,7,9.46,4,4.45,4.63,4.84,5.14,4.86,2.87.14,4.16-4.3,9.46-10.56,2.68-3.17,5.27-6.22,8.76-8.2,7.19-4.08,10.91.55,21.13-1.67,2.72-.59,14.47-3.15,19.88-12,1.48-2.41,3-6.12,7.23-9.31,1.59-1.21,3.41-2.55,5.84-2.65,3.36-.13,4.69,2.26,9.59,5.57,6.24,4.21,7.55,2.68,15,7.5,4.73,3.06,4.12,3.63,7.37,5.15,5.4,2.53,6.79.83,12.65,3.33,5,2.16,6.11,4.32,9.31,3.9,3-.4,4-2.53,6-2,2.6.77,1.7,4.84,4.17,6.26,4.34,2.49,11.2-7.7,18.33-5.46,1.49.47,2.7,1.39,6.7,2.68a34.16,34.16,0,0,0,4.58,1.25c3.65.64,5-.2,13.35-1.39,4.73-.68,5.51-.58,6.81-1.53,2.83-2.07,2.07-4.64,4.17-5.7,2.85-1.44,5.41,2.69,13.21,5.28,6.16,2,8.86.89,10.57,3.48,1.48,2.23.07,4,1.94,7.92a10.25,10.25,0,0,0,3.9,4.73,9,9,0,0,0,8.48.42c4.7-2.6,2.87-9.34,8.06-12a5.88,5.88,0,0,1,4.45-.56c1.58.53,2.07,1.92,3.48,3.76.86,1.12,1.4,1.57,5.14,4.72,7,5.91,10.51,8.86,10.71,9,9.06,8.33,9.44,14,15.29,14.88a8.16,8.16,0,0,0,5.7-1c1.22-.82,2.12-2.11,5.56-11.26.91-2.43,1.1-3,1.81-3.75,2-2.16,5.06-2.32,8.34-2.5a22.28,22.28,0,0,1,8.76,1c2.85.95,4.9,2.33,8.2,5,6.33,5.13,9.64,8.85,16.55,14.32,3.62,2.88,6.06,4.52,8.2,3.76,1.34-.48,2.78-2,5-4.31,1.55-1.62,1.5-1.81,2.09-2.09,2.14-1,4.6.76,8.48,2.78a33.91,33.91,0,0,0,9.31,4,35.55,35.55,0,0,0,11.4,1c15.66-.73,14.25,1.48,25.86.41C1701.77,203.84,1721.89,202,1723.92,204.84Z"/></g></g></svg>