<svg xmlns="http://www.w3.org/2000/svg" viewBox="0 0 2111.81 2395.04"><g id="Layer_2" data-name="Layer 2"><g id="Bolivia"><path d="M1146.24,551c2.73,5.23,2,6.1,3.57,7.29,3.39,2.53,6.85-1.36,12.87,1.09a14.76,14.76,0,0,1,5.9,4.49c1.4,1.85,1.21,2.61,2.17,4.19,3.36,5.57,10.11,3.31,13.18,8.38,1.38,2.28.31,3.22,2.48,7.44,1.74,3.38,3.25,4.36,3.72,4.65a9.29,9.29,0,0,0,5.89,1.09c3-.31,5.41-1.76,9.16-4,2.36-1.44,2.8-2,4-2,3.12-.17,5.58,2.85,6,3.41,2.49,3.06,1.46,5,2.94,7.76,3.36,6.16,14.7,7,19.85,7.44,5.42.42,8.47-.29,11.63,2.17,2.08,1.62,2.3,3.11,4.81,4.5,2.7,1.49,4,.6,8.38,1.24,7.26,1,8.14,4.11,13.18,3.41a25.68,25.68,0,0,0,6-1.86c3.11-1.33,3.16-2,4.8-2.48,4-1.23,9,1,11.79,4,2,2.06,2.59,4.16,3.88,8.38,2.1,6.87.79,8.21,2.63,11.47,1.55,2.74,3.09,2.89,10.39,7.6,6.6,4.26,9.9,6.39,12,8.69,5.62,6.32,3.47,10.11,8.68,13.8,4.58,3.24,8.54,1.93,9.93,5.12s-1.81,5.73-.16,9.3c1.08,2.33,3.42,3.35,5,4,3.78,1.66,7.12,1.3,12.72.62,2.31-.28,13.39-1.63,19.85-2.32a52,52,0,0,1,10.24-.47,46.4,46.4,0,0,1,9.92,1.86c5,1.52,5.39,2.57,9,3.41a25.89,25.89,0,0,0,10.85,0c8.37-1.42,8.5-4.57,15.82-6a35.67,35.67,0,0,1,15.82.77c6.67,1.85,9.37,4.79,13.8,3.41,2.48-.76,2.31-1.88,6.21-3.56a24.36,24.36,0,0,1,9.46-2,17.86,17.86,0,0,1,9.15,1.86c4.61,2.56,3.65,5.56,8.37,8.07,2.78,1.47,3.42.6,7.91,2.63a25.06,25.06,0,0,1,6.2,3.72c3.25,2.79,3.7,5.17,5.43,7.6,3.93,5.52,8.94,3.5,19.08,8.69,8.44,4.32,6.56,6.54,13.49,9.3,7.39,3,9.16.29,19.38,3.42,4.54,1.38,9.25,2.89,13.5,7.13A25.74,25.74,0,0,1,1593,739c2.82,8-.86,11.49,2.48,15.82,2.47,3.21,5.35,2.46,8.07,6.83.81,1.31,2.3,3.69,1.7,6.2-.71,3-3.74,3.4-7.13,6.36-3.62,3.15-4.93,6.82-7.14,13-1.38,3.87-2.94,8.26-2.79,14.11.13,4.87,1.43,8.42,4,15.51a55.94,55.94,0,0,0,4.66,10.39c2.38,4,3.72,4.86,5.58,8.53a35.82,35.82,0,0,1,3.1,9.46c2.56,11.17,9.05,12.14,14.74,25.74,2.38,5.72,3.25,10.35,5,19.54a136.26,136.26,0,0,1,2.17,17.53c.24,4.9-.07,4.78,0,12.71.07,7.58.35,7.33.77,21.25.65,21-.19,15.39,0,16.75.34,2.42.74,4.13-.31,5.27-2,2.24-7-.59-15.19-1.86-1.14-.17-5.82-.17-15.2-.15-23.26,0-18.31.94-20.47.62-1.16-.18-3.07-.52-3.57.31-.91,1.49,3.58,5.57,6.67,8.68,10.09,10.2,7.75,12.8,19.07,25.59,4.32,4.88,8.36,8.68,13.81,13.8,5,4.69,9.29,10,14.26,14.73a17.54,17.54,0,0,1,4.81,6.67c.86,2.25.9,4.43.93,8.69,0,5.1-.37,6.76-.46,12.09,0,2.48,0,2,.15,8.22.22,12.55-.18,12.85.47,16.29.57,3,1.17,4.33,1.55,8.06a48.8,48.8,0,0,1,.15,7c-.09,3,.14,4.45,2.33,18.92,1.8,11.93,2,13,2.17,14.58,1.1,8,1.65,12,1.71,14.27.1,4-.56,9.74-1.86,21.24-.65,5.68-1.41,11.78.93,12.88.31.14.47.11,1.86.15,3.2.1,4.9.38,6.2.47a354.86,354.86,0,0,0,35.82.15c4.4-.22,6.17-.19,54.28,1.09,97.31,2.57,93.92,2.52,100,2.63,31,.57,39.25.42,60.49,1.4,0,0,5.94.27,44,2.32a4.49,4.49,0,0,0,3.41-.62c1.86-1.4.81-4,2.79-5.89a6.55,6.55,0,0,1,4.5-1.55c2.38,0,2.67,1.21,5.12,1.4,3.06.23,4.25-1.54,5.58-.78.39.22,1.2.9,1.09,6.51a61,61,0,0,1-1.24,10.86c-.64,3.1-1.32,5.42-1.55,6.2-1.8,6-2.6,5.72-2.95,8.38-.7,5.33,2.43,7.25,1.08,11-.7,2-2,2.73-5,5-6.51,5-11.67,8.88-14.11,14.11-.41.88-.8,4.22-1.55,10.86-1,8.82-1.51,13.23-1.55,17.52-.08,7.71.9,6.21.77,13.5-.15,8.51-1.53,13.31.62,17.83.27.56,1.26,2.52,2.48,5.43.68,1.6,1.37,3.25,1.71,4.34,2,6.36-3.05,10.19-1.09,14.58,1.45,3.23,4.43,1.78,6.67,5.27,3.06,4.78-1.21,9.52,1.55,15,1.33,2.65,3.17,3.26,6.36,5.58,12.51,9.08,11.7,19.58,22,25.28,6.61,3.65,9.15,4.34,9.15,4.34,3,.81,4.5.7,5.74,2.17,1.93,2.29.22,5,2.17,7,.88.91,2.46,1.14,5.59,1.55,5.62.74,7.57,0,8.68,1.4s-.36,2.77.62,5.11c1.1,2.62,4.26,4,6.67,4.35,3.38.41,6.11-1.29,9-3.1,4.46-2.8,4.57-4.62,7.44-5.12,2.58-.45,4.81.61,7.44,1.86,1.22.58,2.73,1.42,6.52,4.5,5.91,4.8,8.88,7.27,9.46,10.23a57.62,57.62,0,0,1-.47,5.89c-.78,8-.86,8.25-.77,9.31a21.42,21.42,0,0,0,3.56,9.61c2,3.35,2.82,3.14,6.36,7.6,4.2,5.3,7,8.86,6,12.1-.72,2.39-2.88,2.6-3.41,5.58-.26,1.46.11,2.23.77,5.28,1.05,4.77.71,5.42,1.24,7.29,1.38,4.77,4.85,4.75,8.22,9.3,4.56,6.14.63,9.4,5.28,17.52,2.64,4.63,3.93,3.61,7.44,9.62,2.74,4.68,2.68,6.53,5.58,9.77,1.22,1.36,1.19,1,7,5.74s7,6.07,6.83,7.75a4.48,4.48,0,0,1-2.64,3.41c-2.56,1.11-4.38-1.49-8.53-.93a7.16,7.16,0,0,0-3.88,1.55c-1.9,1.67-2.22,4.21-2.48,6.21-.46,3.63.56,4.57-.46,6.36s-2.6,1.32-3.88,3.25-.19,3.46-.93,7.45c-.54,2.91-1.2,2.44-2,5.74-1.15,4.64.07,6-1.39,8.84-1.2,2.34-2.13,1.69-3.57,4-2.07,3.37-.83,5.87-1.86,11-.67,3.33-1.3,2.82-2.79,7.44-2.69,8.31-1.09,11.36-4.19,17.68-1.35,2.76-1.5,1.86-3.26,5.12-1.85,3.43-2.19,5.36-5.11,18.3-.89,3.91-1,8-2.33,11.79-.75,2.19-1.79,4.65-.62,6.35.81,1.19,2,1.06,3.57,2.64a9,9,0,0,1,2,3.72c2,6.17,3.69,11.18,1.24,15.82-.47.9-2.2,4.18-5.27,4.81-2.56.53-3.83-1.25-5.89-.47s-1.8,2.69-4,6.52c-2.58,4.42-4.21,4.28-6.2,8.06-1.57,3-1.77,5.4-2.17,7.91-.53,3.37-2.16,8-5.43,17.37-3.6,10.3-7.35,17.89-11.63,26.52-1.93,3.89-.87,1.58-8.84,16.75-2.38,4.54-8.63,16.46-14,28.69-1.53,3.51.21-.27-4,11.17-1.88,5.08-2.62,6.89-2,9.15.78,2.9,3.13,4.11,6.66,6.66,7.57,5.48,5.51,6.28,13.34,12.26,5.74,4.38,7.55,4.48,14.11,9.92,4.22,3.49,6,5.56,6.83,8.53a11.18,11.18,0,0,1-1.24,9.15,10.27,10.27,0,0,1-7.91,4.5c-2.82.07-3.31-1.41-5.74-1.09s-3.67,1.94-6.82,5.28a93.79,93.79,0,0,1-7.45,7.44c-6.23,5.15-11,5.53-12.4,5.58s-3.24.09-4.35-1.08c-1.39-1.49-.19-3.34-1.08-6.52-.68-2.41-1.73-2.6-3.88-6a26.43,26.43,0,0,1-3.41-7.45c-1.11-4.68,1.24-5.52,1.39-11.79.17-7-2.7-8-1.39-13.33.84-3.45,2.4-4.48,2-7.14-.5-3.44-3.68-5.63-5-6.51-11.19-7.72-21.25-17.22-33.19-23.73L1921,1779c-25.72-15.45-28.78-18.43-56.14-35.52-4.56-2.85-14.28-8.89-26.52-18a4.94,4.94,0,0,0-2.48-1.86,5.2,5.2,0,0,0-3.41.93c-2.56,1.29-4.84.68-7.91.47-5.24-.37-10.39.58-18,.93-15.37.72-36.38-1.24-63.43-.78-16.09.28-53.34,1.75-63-.46a11.45,11.45,0,0,0-2.79-.31c-5.6,0-7.79,4-13.65,5.74-2.7.78-2.58,0-7,.62-4,.53-6.43,1.45-15.82,5.27-11.54,4.69-13.1,5.41-16.75,6.36a84.23,84.23,0,0,1-10.08,1.86c-9.07,1.39-12.45,2.82-33.5,8.68-11.43,3.19-17.15,4.78-20,5.43-16.93,3.85-19.82,2.4-38,6.05-14.72,3-13.1,4-24.5,5.74-6.43,1-14.47,1.6-30.55,2.79-9.5.7-14.46,1-22,2.64-7.92,1.75-6.75,2.42-13.34,3.72-10.67,2.1-13.83.37-26.83,2.48-2.22.36-5.15,1-11,2.33-10.81,2.41-14.09,3.54-17.53,6a27.21,27.21,0,0,0-4.8,4.5c-4.35,5.19-4.52,9.38-7,14.89-2.86,6.38-4.56,5.09-9,12.41-3.32,5.48-3.73,8.46-9,25.43-2.26,7.27-3.58,11.53-4.66,14.58-6.56,18.63-15.18,24.2-37.06,57.38-.21.31-2.26,3.47-6.36,9.77-5.88,9-10.7,18.82-17.37,27.29a16.8,16.8,0,0,0-2.32,3.88,12.24,12.24,0,0,0-1.25,4.81c0,2,.41,2.43.94,6.51,0,0,.12,1,.31,3.1.69,8.06-.63,29-.63,29-1.1,17.57.47,47.4.24,50.52,0,.34-.08.66-.08.66a8.77,8.77,0,0,1-1.24,3.26,33,33,0,0,0-2.33,5.58c-1.15,3.18-.65,4.15-1.39,7.45a29.42,29.42,0,0,1-3.26,7.91c-2.84,5.52-3.81,12.21-5.74,25.58-1.1,7.67-.89,9-2.17,13.34a55.81,55.81,0,0,1-5.12,11.79c-7.28,13.5-10.44,27.84-11.32,32.26-2.07,10.45-1.08,14.57-5,23.26-1.94,4.34-2.79,4.65-4.34,9-3.09,8.59-1.31,11.64-4,19.85-2.1,6.32-3.27,4.9-5.9,12.1-3.14,8.62-1.06,9.58-4.19,17.84-2.47,6.54-4.46,7.73-5.58,13.64-.85,4.47-1.27,6.7-1.24,8.84,0,2.85.5,4.44-.46,5.43-1.44,1.47-4.73.36-7.14-.47-5.44-1.87-9-4.82-14-9-3.77-3.18-5.07-4.76-6-6.2a26,26,0,0,1-3.11-6.52c-3.46-10.31.48-16.92-2.94-19.23-1.67-1.12-2.65.39-8.07-.93-2.4-.58-3-1-5.11-1.39a21.35,21.35,0,0,0-7,0c-4.25.61-29.51.67-80,.77-55.59.12-84.58.18-86.84-.62a2.26,2.26,0,0,0-1.86,0c-.72.47-.68,1.53-.78,2.33-.29,2.27-1.78,3.06-3.57,5.58s-1.24,3.21-2.94,6.2c-2.78,4.89-5.32,4.85-8.22,9.46-1.38,2.19-1.25,2.89-2.79,6.83-4.51,11.44-8.14,11.85-9.62,19.38-1,4.94.47,5.36-.93,10.7-.63,2.4-1.92,5.06-4.5,10.4-3.43,7.09-4.7,8.74-5.43,9.61-2.91,3.52-3.65,2.63-5.89,5.43-4.21,5.25-1.85,8.68-6.05,15.51-2.62,4.27-4,3.6-5,6.82-1.42,4.58.79,7.54-1.55,10.86-1.27,1.79-2.27,1.44-3.72,3.56-.7,1-1.68,2.88-1.86,6.83-.39,8.05,3.22,9.82,1.55,14.26a21.31,21.31,0,0,1-4.35,6.21c-1.38,1.4-2.3,1.92-3.25,3.56-1.43,2.46-1.06,4.15-1.86,4.35-1.16.27-3.59-2.81-4.19-6.36-.54-3.19.86-4,.15-7.45a9.24,9.24,0,0,0-2.48-5.11c-1.71-1.64-2.88-1.08-4.8-2.48-2.1-1.54-2.84-3.76-3.73-6.52a32.45,32.45,0,0,1-1.39-9.46c-.47-13.06-.46-12.91-.47-13-.72-6.79-4.16-11.32-10.39-19.54-9-11.87-11.64-10-13.34-15.66-3-9.94,4.94-16.63.16-23.73-1.46-2.17-3.61-3.62-7.91-6.51a30.15,30.15,0,0,0-9.15-4.65c-3.78-1-5.53-.45-9.46-.62a40.5,40.5,0,0,1-17.68-5.28c-8.25-4.51-6.37-7.46-12.87-9.61-4.45-1.47-7.51-.81-14.58-3.57-2.4-.93-3.44-1.55-4.81-2.17-8-3.6-16-2.13-23.1-1.4-7.69.79-2.44-.5-25.59,0-30.76.68-28.87,2.72-36.45,1.09-4.48-1-10.34-2.79-17.06-.62-2.26.73-3.73,1.62-8.22,2.95-4,1.17-6.69,2-10.23,2a27.06,27.06,0,0,1-10.24-2,38,38,0,0,1-12.71-8.22c-11.53-10.75-10.1-18.84-18-21.09-3.22-.92-4.67.07-10.86-1.56-4.66-1.22-7-1.83-9-3.56-5.06-4.35-2.42-9.76-7.91-14.11a35.55,35.55,0,0,0-5.74-3.26,44.93,44.93,0,0,0-6.83-3c-.87-.29-2.45-.66-5.58-1.39-6-1.41-6.88-1.52-7.75-.93s-1.25,1.66-1.71,4.49a76.28,76.28,0,0,0-.93,9.62c-.14,6.74-2.91,6.55-4.34,14.89-.44,2.55-.06,1.88-.47,14.42-.28,8.82-.51,10.58-1.86,12.41-2,2.74-4.76,3.27-10.39,5-10.28,3.09-6.23,2.86-18.61,6.67-14.07,4.32-14.52,3.15-21.56,6.36-5.22,2.38-6.46,3.71-10.7,4.49-5.91,1.1-8.74-.51-12.4,1.71-2.94,1.78-4.13,4.64-5.43,7.75-2.7,6.48-.7,8.74-3.1,17.22-1.09,3.83-1.35,2.85-3.41,9.15-2.16,6.57-2.07,8.23-4,10.08-1.67,1.57-2.64,1.21-9.15,3.25a64.41,64.41,0,0,0-10.39,3.88c-5.77,2.91-5.08,4.25-10.7,6.83-3.69,1.69-5.33,1.72-6.36,3.56-1.19,2.16.25,3.55,0,7.91a22.54,22.54,0,0,1-2.48,8.69,29,29,0,0,1-5.43,7.91c-3.59,3.7-4.88,3-10.23,7.13a41.26,41.26,0,0,0-9.15,9c-2.35,3.29-3.16,5.66-6.51,8.38a23.85,23.85,0,0,1-4.5,2.79c-5.15,2.47-8.55,1.92-14,2.95-5.11,1-4.94,2-11.17,3.87-5,1.52-7.85,1.66-19.07,2.8-18,1.81-15.23,1.91-20.32,2.17a131.84,131.84,0,0,1-23.73-.78s-5.37-.69-16.28-4.5c-3.27-1.14-6.18-2.31-7-4.8-.68-2.13.55-4,1.4-5.9,3.47-7.63-1.08-11.32.31-26.67a38.07,38.07,0,0,1,1.86-9.62c1.31-3.71,2.11-3.78,2.33-5.89.4-4-2.2-5.92-4.66-11.63-1.8-4.19-.92-4.36-2.63-9.46C300,2304.21,295,2303,295,2295.89c0-3.09.94-2.28,2.48-9.77s2.29-11.13,1.39-15c-1.7-7.43-6.85-7.79-7.13-14.58-.17-4.05,1.6-5.31.47-9-.59-1.91-1.16-1.88-5.12-7.45-3.36-4.71-3.42-5.4-5.28-7.13-2.52-2.36-3.44-2.06-5.58-4a18.56,18.56,0,0,1-5.12-9.15c-1.35-5.14.3-7.53,1.24-14.89.75-5.88,2-16-2.32-25.12-1.24-2.6-1.83-2.82-5.27-9.31-3.26-6.14-3.27-6.95-5.12-9-2.54-2.8-4.35-3.28-6-6.36a15.24,15.24,0,0,1-1.71-5.43c-1.76-12.28-.25-36,0-40.94.06-1.15.09-3,.16-6.67,0,0,0-1.43-.16-5.43-.1-2.19-.16-2.66-.46-3.26-.89-1.74-2.41-1.7-3.57-3.1-1.54-1.85-1-4.53-.93-5.58.64-6.6-8.68-13.51-18.45-28.85-4.58-7.18-6.87-10.77-8.38-14-2.62-5.54-3.37-8.73-6.67-10.24-1.91-.87-4.53-.74-9.77-.47-4.65.25-6.16.81-8.22-.15-2.56-1.19-3.71-3.71-4.49-5.43-2.06-4.5-1.71-8.25-1.71-12.41,0-14.51-4.36-20.46-.62-23.88A56.62,56.62,0,0,0,194,1985c1.69-1.64,1.52-1.78,2.94-3.1,3.51-3.25,5.59-3.34,6.05-5.12s-1.3-3.86-2.32-5c-9.17-9.85-15.67-13.49-15.67-13.49-7.71-4.33-7.6-2.89-16.9-7.91-8.32-4.5-11.84-7.51-13.34-11.79a13.45,13.45,0,0,1-.62-6.36c.13-.79.85-5.43,4.5-7.75,2.59-1.65,3.88-.36,5.74-1.86,3-2.39,2.67-8.07,1.39-11.79-1.16-3.38-2.39-2.91-4-6.51-2.35-5.16-1.85-10.51-1.55-13.65.54-5.83,2.12-7.78.77-9.31-2.22-2.52-7.9,1.17-10.39-1.55-1.65-1.81-.85-5.32.16-7.29,1.31-2.55,3.58-3.62,5.43-4.49,1.63-.78,3.29-1.18,10.23-1.55,6.31-.34,9.46-.51,11.79-.47,4.66.08,5.82.42,7.13-.62,1.79-1.42,1.51-3.52,2.95-8.22a57.33,57.33,0,0,1,2.64-6.51c.38-1,6.63-16.87.77-22.65-2.51-2.47-4.43-.3-9-3.25s-3.76-5.94-8.69-9.62c-4.44-3.31-7.77-2.87-8.22-5-.51-2.42,3.65-4.54,7.45-7.75,9.14-7.73,5.85-13,15.5-25,3.6-4.47,8.95-9.86,14.12-15a30.74,30.74,0,0,0,7.13-10.85c1.46-3.88,1.17-5.73,1.09-6.21-.43-2.33-1.82-3.82-8.07-8.68-6.92-5.38-10.45-8.09-13.8-9.15-4.18-1.32-4.77-.33-8.38-1.71-4.9-1.87-7.63-5.16-10.7-8.68-6.11-7-12.75-13.62-19.07-20.47-5.09-5.52-6.09-9.13-10.7-11.17-3.42-1.51-5.29-1-8.69-3.25-3.69-2.46-5.5-5.75-7.13-8.69s-3.61-6.53-3.72-11.48c-.1-4.12,1.28-3.81,2-9.77.35-2.83,1.18-9.56-1.55-15-.4-.8-1.5-2.83-2.63-4.81-2.1-3.65-2.1-3.24-2.49-4.18-1.32-3.22,0-4.52-.62-10.24-.31-2.86-.47-4.29-1.24-5.43-2.09-3.11-5.26-2-7.29-5.11-1.48-2.28-1.22-5.08-1.08-6.52a14.76,14.76,0,0,1,1.39-4.81c2.58-5.93,2-13.82.16-19.07a64.3,64.3,0,0,0-3.88-8.07c4.34-16.58,2.39-22.19-.31-24.19-1.37-1-4-1.84-5-4.5s.61-3.84,0-6.67c-.52-2.41-2-3.11-5.89-7-4.87-4.85-7.31-7.27-7-9.31.44-2.76,4.41-2.35,8.68-7,1.15-1.24,5.14-5.56,4.35-10.08-.59-3.29-3.44-5.17-8.22-8.22a67.3,67.3,0,0,0-14.89-6.82c-9.74-3.36-11.35-2.58-14.27-5.27-4.76-4.4-5.54-11.14-5.74-12.88-.83-7.18,2.21-10.67-.46-16.75-.38-.86-1.14-2.12-2.64-4.65-1.65-2.77-3.91-6.34-5.43-8.37-6-8.1-11.46-7.06-14.89-13.65-.92-1.77-1.23-4.18-1.86-9-1.07-8.21-.33-11.35-.77-22.34-.42-10.33-1.28-12.76-2.33-14.73-1.77-3.34-4.07-5.43-7-8.06a70.88,70.88,0,0,0-12.25-8.69C2.66,1358,.25,1357.5,0,1355.62c-.26-2.12,2.5-3.79,5.42-6,7.51-5.81,5.27-7.2,16.29-17.83,9-8.66,11.85-9.08,13.65-9,3.11.14,5.54,1.89,7.28.47s1.5-5.37,1.4-6.52c-.23-2.57-1-3-.77-4.81a8.63,8.63,0,0,1,2.79-4.8,14.92,14.92,0,0,1,5.11-3.41c4.69-1.94,7-6.75,19.55-23.73,5.64-7.66,6.37-8.32,7.13-10.86,1.87-6.21.06-10.75,3.1-12.87,1.72-1.2,2.79-.1,7.91-1.4,3.08-.77,2.82-1.21,6.05-2.17,6.3-1.88,8.4-.56,11.16-2.79a8.24,8.24,0,0,0,3.11-5.12c.39-3.45-2.54-4.62-4-10.39a18.13,18.13,0,0,1-.62-6.2c.25-3,1.18-4.31,2.48-7.91,1.4-3.83.76-3.42,2.49-9.15,2.88-9.58,4.72-10.88,5.42-11.32,2.13-1.31,2.79-.17,6.36-1.71,4-1.73,3.74-3.41,7-4.49,3.51-1.17,4.63.53,8.53-.78,1.54-.52,4-1.36,5.12-3.57,2-4.11-2.6-9.4-2.79-9.61-1.7-1.9-3.31-2.54-5.59-3.72-8-4.17-7.37-6.39-13.18-9.15a33.66,33.66,0,0,0-14.73-3c-7.71-.09-8.1,2.12-13.18,1.4-5.34-.77-5.94-3.34-16.44-9.93-10.18-6.38-11.77-5.32-14.27-9-2.28-3.36-1.31-4.76-3.88-17.68,0,0-1.19-6-3.1-13.34-2.55-9.82-3.56-10.53-5.89-18.77-5.29-18.67-1.62-20.37-6.83-32.87-1.64-4-2.94-6-2.17-8.84,1.57-5.73,9.15-5.28,13.5-13.34a58,58,0,0,0,3.1-7.45c1.72-5,1.82-7.43,3.41-7.91,2.36-.71,5,3.73,6.82,2.8,1-.48,1-2,1.09-2.8.2-3.18-2-4.14-2.79-7.59,0-.24-.89-4.33,1.24-7.14,1.52-2,3.61-2.1,5.89-2.94,7.31-2.71,12.86-11.74,12.1-18.77-.24-2.16-1-3.57-2.48-6.2-5-8.85-10.15-10.56-17.68-18.77a65.59,65.59,0,0,1-10.39-14.89,54.29,54.29,0,0,1-5.28-16.44c-.89-6.48-1.89-13.64,2.33-19.69a16.79,16.79,0,0,1,7-6.2c3.83-1.7,6.17-.64,8.06-2.8,1.41-1.6,1.46-3.72,1.55-7.6s-.67-4-.46-7.13a23.74,23.74,0,0,1,2.79-9.3c1.21-2.43,2.21-2.5,2.79-4.5.85-2.92-.35-4.43.78-5.58.61-.64,1.29-.52,6.2-.62,3.61-.08,4-.16,4.5-.47,1.84-1.17,1.23-3.36,2.48-6.36,1.32-3.18,2.87-2.81,7-7.44a59,59,0,0,0,5.89-8.38c3.43-5.43,2.81-5.51,4.81-8.06,4.12-5.28,6.9-5.13,7.29-8.07.44-3.33-3-4.31-3.26-9.3a13.24,13.24,0,0,1,1.55-6.51,15.56,15.56,0,0,1,5.74-6.52c2.75-1.64,4.79-1.41,12.1-1.7,8.17-.33,12.27-.51,13-1.71,1.6-2.53-2.57-6.13-8.84-18.61-4-8-3-7.82-5.42-11.32-5.07-7.21-9.19-7.47-12-14A19.08,19.08,0,0,1,112.76,751c1.32-8,7.88-9.39,7.76-15.67-.08-3.9-2.68-6.91-5.43-10.08-2-2.36-3.48-3.17-10.7-9.92-2.54-2.38-4-3.76-3.72-5.43.28-2.08,3-3.56,4.65-4.5,2.41-1.33,3.29-1.05,4.81-2,2.88-1.84,3.58-5.38,4-7.13,2.72-10.52,10.76-11.92,13.65-23.11,1.22-4.76-.37-4,.31-13,.93-12.53,4.12-15.93,5.58-27.14.35-2.71.18-8.42-.16-19.85-.52-17.67-1.3-21.9-.46-32.11.7-8.56,1.86-13.05,3.1-16.59a59.69,59.69,0,0,1,15.2-23.26c5.84-5.46,9.3-6.33,9.3-9.15,0-3.68-5.83-5-5.42-8.38.29-2.49,3.51-2.74,6.35-7.29a21.18,21.18,0,0,0,2.18-5.27c2.86-8.9,4.29-13.34,4-15.51-.64-5.31-4.54-5.19-9.93-13.18-4.78-7.08-3-9.08-8.06-19.23-2.45-4.91-2.62-4-10.7-16.44-5.06-7.81-8.53-13.21-12.25-20.32s-3.08-7.09-7.29-15.81c-4.54-9.41-7-13-14.43-26.21-8.5-15.16-7-13.47-11.94-22-11.39-19.55-16.37-23-27.14-42.5C62.31,313,63.8,315,58.79,305.7c-6.08-11.31-16.7-31.07-30.39-50.56-3.66-5.2-6.45-11-9.93-16.28-3.36-5.14-8-11.89-6-14.42a7.12,7.12,0,0,1,3.11-1.87,8.11,8.11,0,0,1,3.25-.31c5.7.52,8.55.78,9.77,1.09,6.71,1.7,14.86-1.09,30.4-1.55,11.39-.34,17.08-.51,23,1.55,7.54,2.64,9.08,5.77,18.92,8.37,5.79,1.53,6.71.83,12.56,2.8,5.42,1.81,7.58,3.39,12.1,3.41,3.77,0,4-1.09,7.75-1.09A20.52,20.52,0,0,1,145,240.41c4.3,3.16,3.37,5.85,9.62,12.87,2.64,3,4,4.47,5.89,5.12,3.67,1.27,5.88-.73,14.11-3.1,8.59-2.47,8.91-1.08,13.34-3.26,5.59-2.76,4.68-4.79,10.7-8.06a42.45,42.45,0,0,1,14.11-4.35c6-1,6.24,0,10.08-1.08,4.81-1.4,7.9-4,12.1-7.45a70.23,70.23,0,0,0,10.08-10.39c4.29-5.24,3.8-5.79,9-12.56,5.91-7.7,6.71-7.21,8.38-10.85,2.53-5.54,1-7.27,3.88-12.72a21.84,21.84,0,0,1,7.29-8.38c3.13-2,5.89-2.5,10.7-3.25,6.38-1,7.88-.19,18.92-.62,7.68-.31,7.76-.73,9.77-.16,5.34,1.53,6.07,4.91,12.56,7.29,3.27,1.2,6.22,2.29,9,1.09,3.85-1.67,3-5.87,7.6-12.88,2.62-4,3.11-3,8.69-9.61,7.14-8.5,5.8-9.56,9.61-12.41,6.42-4.8,10.08-1.67,15.36-7a44.64,44.64,0,0,0,6.2-8.53c2.2-3.85,2-4.73,3.57-5.89,2.45-1.79,4.3-.64,10.7-2.33,2.72-.71,4.09-1.09,5-2.17,2.22-2.75-.22-6.49,1.39-7.75s4.78,2.21,11.79,4c3,.77,6.58,1.71,10.55.47,1.49-.47,2.31-1,7.6-4.66,4.11-2.82,6.17-4.22,7-4.8,10.54-7.59,13.57-7.32,20.17-12.88,5.38-4.53,4.39-5.57,12.09-13.49,2.88-3,6.37-5.93,13.18-11.78,14-12,21.07-18,25-19.08A17.12,17.12,0,0,0,518,45.93a51.17,51.17,0,0,0,4.18-4.8c2.15-2.68,2-2.76,2.64-3.42,2.32-2.22,5-1.78,10.7-2.32,6.87-.66,6.15-1.62,12.25-2,4.62-.3,4.71.27,10.24,0a64.23,64.23,0,0,0,10.54-1.24c5.33-1.11,6.39-2.14,11.64-3.41,6.3-1.52,6.77-.06,10.7-1.55,3.72-1.42,3.66-2.64,9.15-5.43,3.46-1.76,5.48-2.79,8.37-3.26,4.45-.72,8.29.3,12.41,1.4,5.32,1.41,6.09,2.56,8.68,2,1.86-.4,2-1.1,7-3.73,3-1.6,4.56-2.41,5.74-2.63,3.32-.64,6.22.41,9.77,1.7,4,1.46,3.36,2,5.27,2.33,4.85.93,6.93-2.66,13.34-3.41a21.19,21.19,0,0,1,8.22.77c4.67,1.25,5.38,3,12.72,6.83,4.58,2.42,6.94,3.63,10.08,3.87,1.87.15,5.77.45,9-1.7,5.15-3.44,3.23-9.56,9.46-20.16,2.86-4.86,4.34-5.41,5-5.59,4.82-1.35,10.47,5.08,14.74,9.93,3.37,3.83,7.23,8.24,9.3,15.51a37.7,37.7,0,0,1,.78,15.51c-1,8.48-3.34,8.24-3,13.8.23,3.19,1.05,4.11,4.81,15.66.86,2.64,1.78,5.59,1.78,5.59.14.47.22.7.24.77.89,3.1.23,6,0,7.75-.65,4.85,1.49,4.65.77,9-.31,1.91-1.29,4-3.26,8.06a46.35,46.35,0,0,1-2.48,4.81c-2.73,4.4-4.56,4.91-6.67,8.53-1.17,2-1,2.56-2.32,6.05-3.22,8.54-5.69,9.27-8.22,16.9-1.66,5-1.61,7.74-1.55,8.84.16,3.08,1,3.72,2,7.76,2.26,8.84-.23,11.19,2.33,13.64,2.29,2.2,5.59,1.58,8.53,5.28a8.26,8.26,0,0,1,.93,1.39c1.73,3.34.49,7.08.15,8.22-1,3.39-3.58,13,0,17.68,1.93,2.53,4.4,2,8.38,6.67a23,23,0,0,1,2.17,2.95c1.51,2.44,3.27,5.29,3,8.53-.26,2.57-1.64,3.5-.93,5.12.58,1.32,1.67,1.06,2.48,2.32,1.49,2.34.06,6.89-2.79,9.15-2,1.56-3.1.84-3.73,2-1.49,2.79,4.72,7.19,3.26,11.78a4.59,4.59,0,0,1-1.24,2c-1.53,1.41-3.46,1-5.58,1.24-3.32.37-7.55,2.33-7.76,4.34-.25,2.54,6,3.53,6.67,8.07a5.59,5.59,0,0,1-.93,4c-.87,1.09-1.67.9-2.48,1.71-1.62,1.6-.17,4.11-.15,8.68,0,4.91-1.64,8-.47,8.68.94.53,2.44-1.22,3.57-.46a3.69,3.69,0,0,1,1.22,2.36,1,1,0,0,0,0,.12c.2,1,2.19.71,2.79,1.4,1.27,1.45-4.58,6.14-4.34,12.25a11.76,11.76,0,0,0,1.24,4.65c1.36,2.5,2.8,2.53,3.87,4.81,1,2,.06,2.48.78,5.74.37,1.67,1.27,5.73,3.57,6.36,1.62.44,2.44-1.24,4.8-1.09a6.69,6.69,0,0,1,4,2c4.46,4.06,5.56,15.48.31,22.48-2.19,2.91-4.15,3.31-4.66,6.05-.71,3.88,2.16,8.82,5.43,9.31,2.81.42,3.59-2.79,8.38-4.81,5.6-2.37,13.1-1.6,15.19,1.86,1.15,1.88-.13,3.2.47,7.29.66,4.45,2.62,4.64,3.26,8.06,1.14,6.15-3.77,10.2-2,12.25,1.58,1.86,5.61-1.43,8.22.31,4.86,3.25-2.37,19.09,2.33,22,2.57,1.61,6.58-2,11.16.46,1.44.78,1.41,2.19,3,2.64s2.37-.31,5.58-.93a30.19,30.19,0,0,1,3.57-.47c4.27-.24,10.12,2.05,10.86,5.43.44,2-1.31,3-.63,5.74a6.7,6.7,0,0,0,2,3.26c2,1.7,4.71,1.6,8.84,1.39s4.29-.83,5.58-.31c3.55,1.42,4.69,7,5,8.38.76,3.73-.19,5.21,1.24,6.82,1.1,1.25,2.13.87,5.42,1.86,4.95,1.48,4.82,3,9.62,4.34.24.07,2.33.46,6.51,1.24,5.44,1,5.44,1,5.59,1.09,4,2.17,1.44,8.48,5,16.75,1.12,2.62,3.33,5.31,7.75,10.7,4.69,5.7,7,8.55,10.24,10.7,6.91,4.62,13.59.13,17.06,4.65,1.86,2.43,1.61,5.5,2.94,5.58,1.09.08,1.56-2,4.5-5.42,1.78-2.09,2.67-3.14,4.19-3.72s2.91-.5,6.67.46a72.62,72.62,0,0,1,8.37,2.64c11.79,4.71,10.64,4.61,12.25,5,6,1.28,8.13-.38,12.41,2,2.76,1.54,2.61,2.64,4.65,3.1,5.23,1.17,10.94-5,11.79-5.9,3.54-3.81,3.13-5.95,5.74-6.82,3.62-1.21,5.92,2.42,9.3.93,2.07-.91,1.76-2.51,5.28-5.43,1.93-1.6,3-2.45,4.34-2.79,3.73-.91,6.06,2.88,14.42,7.91a55.33,55.33,0,0,0,9.77,4.81c6,2.21,6.24,1,10.08,2.63,7.65,3.26,7.46,8.38,15.67,11.64,4.21,1.67,4.39.37,7,2,5.28,3.35,4.43,8.68,10.4,13a22.64,22.64,0,0,0,5.73,2.79c4.35,1.69,8.77,3.41,13.5,2.64,5.9-1,6.17-4.81,13.8-6.52a19.48,19.48,0,0,1,7.29-.46c1,.14,8.39,1.26,12.25,7.13,2.59,3.94.53,5.37,3.72,11.48C1143.27,546.81,1144.07,546.87,1146.24,551Z"/></g></g></svg>