<svg xmlns="http://www.w3.org/2000/svg" viewBox="0 0 2355.45 2280.96"><g id="Layer_2" data-name="Layer 2"><g id="Bosnia_and_Herzegovina" data-name="Bosnia and Herzegovina"><path d="M2237.17,1451.73c.66,4.32,1,5.66.38,7.67a5.37,5.37,0,0,1-.23.67,8.23,8.23,0,0,1-5.06,4.47c-3.29.87-7.24-.64-8.49-3.43-.52-1.17-.81-3.11.15-4.17,1.19-1.31,3.33,0,4.32-1.19,1.15-1.35-1.2-3.67-.11-6.29a4.8,4.8,0,0,1,3.68-2.79,4.94,4.94,0,0,1,4.8,2.34C2236.84,1449.41,2236.84,1449.56,2237.17,1451.73Z"/><path d="M2179.7,874.45c2.54,2.68,6.43,2.49,8.33,6.4a32.52,32.52,0,0,1,1.19,5.51,29.9,29.9,0,0,1,.75,6.85c-.14,2.91-.82,3.13-.75,4.76.18,3.66,3.68,4.2,6.41,8.34,3.11,4.72,3.2,11,3.27,16.83,0,3.52-.3,5,.9,6.4,2,2.35,5,.63,10.42,1.94s9.24,4.63,13.1,8c3,2.68,4.57,4,6,6.4,3.62,6.2.68,9.47,4.32,15.34.88,1.42,2.92,3.28,7,7,3.55,3.25,5,4.14,6.84,4.17a8.29,8.29,0,0,0,4.92-1.93c.83-.58,2.45-2.48,5.66-6.26a9.93,9.93,0,0,1,3.42-3,7.56,7.56,0,0,1,3.13-.75,5.15,5.15,0,0,1,3.72,1c1.39,1.32,1.16,3.49,1,4.62-.15,1.47-.59,2.41-1.93,5.06-2.81,5.56-3.13,5.95-3.13,7,0,3.22,3,5.62,3.28,5.81,4.5,3.46,10.48.59,11.91,3.27.6,1.14-.4,1.8-.3,4.62a14.18,14.18,0,0,0,1.94,6.25c3.72,7.45,2,8,4.76,12.36,1.43,2.25,3.59,5.65,7.59,7.15,2.14.8,2.41.16,6,.74,3.39.55,6.42,1.92,12.36,4.62,4.48,2,6.73,3.07,7.44,3.87,2.64,2.95,3.33,7.23,4,11.61.65,4,.47,6.32,1.64,6.7s3-1.52,3.87-2.82c1.65-2.42,1.48-4.48,2.39-11.47.58-4.51.88-5.35,1.63-6.1,1.93-1.94,5.9-2.43,8-.75s2.42,5.69,2.69,10.87c.14,2.69-.06,3.63.74,4.32,1.89,1.62,5.6-1.33,8.64.59a5.25,5.25,0,0,1,1.78,2.09c1.89,3.36,0,6.22-.89,12.8-.68,5.21-1.13,8.63-.45,13.11.26,1.7.61,3.07-.15,4.46-1.19,2.2-3.83,2.14-7.74,3.43-6.3,2.08-5.42,4.21-10.57,5.66-6.15,1.72-9.53-.73-11.47,1.64-1.56,1.91.46,3.74-.59,8.18-1.14,4.8-4.75,7.94-6.4,9.39-3.42,3-4.23,1.88-7.3,4.91-2.34,2.31-2.07,3.13-5.66,7a55,55,0,0,1-4.32,4.17s-2.46,2.12-4.61,3.57c-4.31,2.89-11.23,1.81-20,.74-11.91-1.44-17.86-2.17-21-1.93-5.46.41-9.17,1.51-15.49.45-6.94-1.17-8.72-3.55-9.23-4.32-1.28-2-1.22-4-2.53-4.32s-1.82,1.38-4.76,3a9.6,9.6,0,0,1-5.22,1.49c-2.64-.26-4.4-2.48-5.21-3.43-5-5.83-8.07-3.41-14-8.93-3-2.8-2.43-3.29-4.32-4.32-4.36-2.38-7.2.33-12.36-1.79-.47-.19-2.5-1.72-6.55-4.76-6.61-5-6.8-5.15-7.6-5.51-2.93-1.35-6.06-1.32-12.21-1.19-8.14.17-10.06,1.3-12.65-.45-1.56-1-1-1.51-4.62-6.1-4.25-5.34-5.95-5.82-6.55-6-3.38-.78-6.34,1.47-6.55,1.64-2.64,2.07-3,5.16-3.57,9.38-.58,4.51-1.25,9.72,1.78,13.55,1.69,2.13,2.62,1.42,5.66,4.32,1.33,1.27,4.28,4.08,5.51,8,1.8,5.82-2,8.1,0,13.1.31.77.51,1,6.1,6.85,4.62,4.83,6.95,7.25,7.75,8,6.13,6,6.58,5.68,8.19,7.89,3.25,4.48,1.29,6,4.17,12.81,3.13,7.37,5.86,6.94,7.89,13.55,1.67,5.46.11,6.76,2.23,10.42,2.49,4.31,5.12,3.31,9.08,7.89,4.17,4.81,2.51,7.34,6.7,12.81,2.25,2.92,2.57,2,9.24,7.74,7.5,6.47,11.27,9.79,11.91,14,.42,2.77-.4,4.53,1,7.44,1.3,2.63,2.49,2.26,4.47,5.06,2.82,4,1.45,6.27,4.32,10.28a13.54,13.54,0,0,0,4.46,4.17c5.11,2.83,8.19-.58,12.36,1.93,3.55,2.14,5.52,7.15,6.11,8.64a13.72,13.72,0,0,0,2.53,4.91,12,12,0,0,0,4.17,3c2.81,1.24,3.91.53,6.1,1.19,3.13,1,4.77,3.56,8,8.79,1.26,2,1.36,2.5,4.32,8.49,4.71,9.54,4.74,9,5.81,11.76,2.59,6.7,1.59,7.71,3.72,10.12,1.33,1.51,2.1,1.53,10.87,5.36,6.86,3,8.92,4.09,9.83,6.41.42,1.08.28,2.47,0,5.21-.72,6.83-2.27,8.09-2.09,12.65a23.73,23.73,0,0,0,1.19,6.26,63.86,63.86,0,0,0,3.58,8.34,44.13,44.13,0,0,1,2.08,4.76,29,29,0,0,1,1.19,4.17c1,5.61-2.68,10.85-3.12,11.47-3.08,4.28-5.7,3.68-6.7,7.14-.89,3.07.73,5-.9,6.85a4.45,4.45,0,0,1-4.61,1.19c-.8-.31-.87-.75-1.94-1.78-1.44-1.4-4.24-3.43-5.51-2.68-.57.33-.43,1-.74,2.53-.74,3.52-2.32,3.66-2.53,5.81-.21,2,1.08,2.64,3.57,7.59.89,1.78,1.53,3.29,1.93,4.32-.87.66-4,3.14-4,6.7,0,2.76,1.81,4.85,3.43,6.7,3.64,4.15,6.83,4.32,7.44,7.44a9.57,9.57,0,0,1-.29,3.73,18.84,18.84,0,0,1-1.79,5.21c-2.78,4.74-9.56,5.54-11.76,5.8a18.16,18.16,0,0,1-9.24-.89c-4.31-1.71-4.91-4.22-10.27-6.25a22.31,22.31,0,0,0-5.51-1.34c-2.27-.25-6.23-.69-10,1.49-.92.53-4.53,2.63-4.47,5.36l-3.28,1.19c-1.2-.89-2.23.31-4.91-.3a6.93,6.93,0,0,1-4.77-3.72c-.25-.62-.22-2-.15-4.77.1-3.44.22-3.76-.14-4.32-.84-1.3-2.75-1.55-5.66-1.93s-3.58,0-4.32-.75c-.51-.52-.5-1-.74-4.91-.21-3.27-.26-3.63-.45-4.17a7.41,7.41,0,0,0-3.13-3.87c-3.12-1.73-7.74-.45-7.74-.45a43.25,43.25,0,0,1-7.3,8.94,22.29,22.29,0,0,1-6.25,4.61c-3.5,1.61-6.46,1.57-11.47,1.49s-8.51-.12-12.5-2.08c-3.33-1.63-2.66-2.48-5.36-3.43-5.29-1.84-9.76.71-11.47-1.64-.73-1-.2-1.88-1.34-3.12a4.73,4.73,0,0,0-3.57-1.49c-1.7.1-3.51,1.28-3.43,2.23.05.59.81,1,2.09,1.64.9.47,1.29.52,2.83,1.19s1.82.93,1.93,1.19a2.52,2.52,0,0,1-.74,2.39c-.38.41-.88.72-2.83,1.19a45.4,45.4,0,0,1-5.21.89c-4-1-5.1-.65-5.36-.15-.39.74,1.15,1.73,1.78,3.87.73,2.49-.62,3.64-.89,6.4-.45,4.48,2.69,5.51,3.28,10.87.31,2.87-.63,2.18-1,7.6-.38,5-.72,9.46.45,14.44a8.33,8.33,0,0,1,.15,4.62,8,8,0,0,1-3.13,4c-3.2,2.27-7.24,1.47-10.87.74-4.62-.92-5.28-2.09-11.17-3.72a45.31,45.31,0,0,0-8-1.64c-7.43-.74-8.13,1.45-16.52,1a18.35,18.35,0,0,0-6.56.45,33.44,33.44,0,0,0-5.21,2.38c-4.31,2.2-6.47,3.3-6.7,3.43-6.18,3.47-5.2,4.16-7.59,4.91-6.11,1.93-9.64-3.48-16.68-1.34a21.76,21.76,0,0,0-4.61,2.09c-2.37,1.42-3.14,2.5-5.22,4.17s-2.37,1.38-7.14,4.31c-6,3.69-6.78,5-8.64,4.62-2.63-.46-4.15-3.53-4.91-5.06-2.29-4.62-.28-6.81-2.09-11.91-.45-1.28-.33-.44-5.21-7.9-3.39-5.17-4.35-7-6.85-9.38-1.89-1.83-2-1.41-4.47-3.57-6.68-5.76-7.34-9.75-10.27-9.68-2,0-3.51,1.91-6,4.91a22.25,22.25,0,0,0-3.27,5.51,29.86,29.86,0,0,0-1.64,6.26c-.64,3.34-.45,3.86-1,6.4-.69,3-1,4.46-1.79,5.51-.57.79-2.13,2.59-13.7,4.47-4.07.66-4.23.49-6.4,1a26.85,26.85,0,0,0-9.53,4.17,17.3,17.3,0,0,0-3.87,3.72A14.77,14.77,0,0,0,1930,1500a15.44,15.44,0,0,0,.15,6.1c.62,3.66,1.6,9.48,5.06,10.42a5.58,5.58,0,0,0,4.32-1c2.47-1.66,4.23-5.53,4-8.93,0-.77-.19-1.54.3-2.09.85-1,3.05-.61,4.46.15,1.87,1,2.51,2.78,3.73,6,3.91,10.23,4.25,10.08,4.32,12.06a29.23,29.23,0,0,1-1,8.34c-.77,2.56-1.77,4.32-.89,5.65.59.91,1.72,1.15,3.42,1.49,2.61.53,3.61.14,5.51.3a14.83,14.83,0,0,1,8.94,4.47c1.88,2.06,1.22,2.78,2.68,3.72,3.09,2,6.45-1,9.68.75.75.41,1.18.9,3.12,4.61,3.12,5.94,5,10.44,7.3,15,1.94,3.94,1.85,3.34,2.53,4.91,3.34,7.74,1.07,11.91,1.94,22.49.51,6.19,1.18,13.3,6,19.8,2.56,3.48,3.38,2.35,6.85,6.55,4.57,5.53,6.79,11.5,8.49,16.08.86,2.33,1.48,4.35,3.42,9.53,1.17,3.11,1.75,4.66,2.09,5.36,1.73,3.62,3,4.73,2.53,6s-2.7,1.72-5.66,2.08c-7.07.88-10.08.82-13.25,1.2-4.39.51-11.64,1.37-13.25,5.36-1.16,2.87,1.86,4.26,1.49,9.23-.19,2.45-1.76,5.15-4.92,10.57-3,5.08-3.31,4.75-4.76,7.89-1.85,4-1.6,5.19-3.43,7.45-1,1.2-3.39,4.2-6.85,4.17-3.65,0-6.09-3.44-6.4-3.88-2.5-3.58-.46-6-2.68-11.76-1-2.45-1.89-4.89-4.32-6.55s-4.15-.93-8.63-3.13c-2.07-1-3.22-1.58-4.32-2.83-3.18-3.61-2.31-8.81-2.24-9.23.82-4.49,3.58-4.36,5.66-9.53.42-1,2.88-7.15.3-12.06-1.29-2.45-2.48-2-7.74-6.4a82.61,82.61,0,0,1-8.64-8.49c-3.31-3.63-5-5.45-6.1-6.85-2-2.47-3.07-4-5.36-5.06-.81-.37-3.21-1.49-5.36-.6-.79.33-.87.64-2.09,1.34a13.85,13.85,0,0,1-3.87,1.49c-3.72.94-8.27.68-12.51,1.19-5,.6-4.06,1.6-10.42,2.68-6,1-8.84.5-9.38,1.94s2.28,2.84,4.91,7.15c.55.9,5,8.33,2.53,12.51-1.45,2.46-4.28,2.06-9.53,3.57-2.78.8-7.74,3.82-17.57,9.83-13.19,8.07-13.14,8.43-16.23,9.53-6,2.14-7.5,1.19-14.29,4a95.41,95.41,0,0,0-11.32,6c-5.61,3.23-8.42,4.84-10.42,6.4-7.49,5.86-5.35,7.88-13.1,14.3-2.09,1.73-4.3,3.28-4.47,5.81-.13,1.86.93,3.29,2.68,5.65a46.8,46.8,0,0,0,7.45,7.6c1.85,1.46,2.73,1.93,2.82,3,.16,1.66-1.83,2.89-4.16,4.91-3.26,2.82-2.88,3.47-6.56,7.3-7.14,7.44-9.79,6.25-15.33,12.8a29.69,29.69,0,0,0-5.51,9.08c-1.29,3.66-1.12,5.89-1.49,10-.8,8.74-2.56,9-3.87,17.87-.64,4.28-.63,8.66-.6,17.42,0,8.43.44,14.92.6,17.27.36,5.29.84,9.92,1.78,19.06,1.08,10.35,1.23,10.46,1,12.36-.54,5.37-2.21,8.57-.3,12.06a15.4,15.4,0,0,1,2.08,4.47,14.16,14.16,0,0,1,.3,4.46c-.23,4.45-1.59,5.18-1,7.9.46,2.28,1.63,2.79,1.19,3.87-.55,1.36-2.62,1.11-6.4,2.38-2.55.85-2.67,1.32-5.51,2.53a49.53,49.53,0,0,1-8.64,2.53c-6.12,1.24-11.27.67-20.84.75-17.61.13-17.48,2.19-25,.74a15.58,15.58,0,0,0-7.15-.15c-5,1.24-8.32,5.27-10,7.3-2.38,2.92-1.79,3.41-5.66,8.64a52.28,52.28,0,0,0-3.13,4.46,49.39,49.39,0,0,0-2.83,5.51c-4.94,10.71-5.52,12.62-5.8,15-.22,1.82,0,1.88-.3,3.43a21.82,21.82,0,0,1-4.17,8.93c-3.5,5.37,1,8.17.15,24.42a85,85,0,0,0,.59,13.1,14.07,14.07,0,0,0,1.19,4.62c1.52,3.21,3.09,3,4.92,6s.54,3.59,2.83,8.49c.91,1.95,1.37,2.41,1.49,3.72a8.72,8.72,0,0,1-2.24,6.11c-2.65,2.89-5.49,1.9-6.55,4.32-.47,1.07-.26,2.35.15,4.91.47,2.92,1,2.92.89,4.17-.29,2.77-3.32,5.28-6.25,6-1.82.42-2.08-.22-3.28.29-2.85,1.24-3.42,5.77-3.87,9.38s-.68,5.48.3,7.6c1.29,2.77,3.27,3,3.72,5.51a7.54,7.54,0,0,1-1.49,5.36c-.73,1.06-2.24,2.16-5.21,4.32-2.33,1.69-2.88,2-3.12,2.83-.44,1.55.61,3.3,1.48,4.76.67,1.11,1.09,1.42,1.94,3a9.55,9.55,0,0,1,1,2.23c.36,1.55-.37,2.2-1.19,5.36-.66,2.56-.28,2.52-.89,4.17-.84,2.25-1.65,2.59-1.49,3.72.19,1.34,1.43,1.63,2.83,3.28.29.35,1,1.17,2.23,4.76,2.08,5.81,3.11,8.71,2.83,12.06-.18,2.07-.65,2.78-.15,4.17.15.43.61,1.51,4.32,4.47,1.79,1.42,2.16,1.56,3.57,2.68a47,47,0,0,1,4.47,4.17c6.88,6.9,6.37,6.6,7.3,7.3,2.56,1.93,3.85,2.26,5.21,4.31a9.05,9.05,0,0,0,1.93,2.54,8.27,8.27,0,0,0,3.87,1.63,33.17,33.17,0,0,0,6.71.6c2.61.05,5.41.33,11,.89,3.25.33,4.89.5,5.36.9,3,2.51-.6,7.53.15,16.67.07.78.29,3.16-.89,3.87-1,.6-2.25-.42-3.42.3-.75.46-.79,1.22-1.2,2.24-1.33,3.35-4.17,3.26-4.61,5.51-.38,1.93,1.67,2.32,2.08,5.21.47,3.24-1.94,4-1.64,7.14.27,2.73,2.38,4.74,4.92,7.15s3.1,1.93,4.76,4c.83,1,.55,1,3.28,6,1.3,2.37,1.65,2.9,1.49,3.72-.34,1.76-2.57,2.71-4.32,3.42-3.94,1.62-5.08.66-8.49,1.79a18.39,18.39,0,0,0-7.74,5.36,26.58,26.58,0,0,0-4.17,6.7,37.69,37.69,0,0,0-2.23,5.51c-1.34,4.27-2,6.47-1.05,8.49.7,1.44,1.36,1,4.32,3.87,2,1.92,1.65,2.11,3.87,4.32,1.33,1.31,1.65,1.46,4,3.72a32.26,32.26,0,0,1,2.68,2.68,9.36,9.36,0,0,1,2.39,6.25,7.79,7.79,0,0,1-2.09,4.92,8.26,8.26,0,0,1-5.8,2.38c-2,0-3.2-.68-8.79-4.17-6.53-4.07-7.56-4.75-9.68-5.21a12.64,12.64,0,0,0-7.44.3c-2.18.85-3,2-6,4.91-4.43,4.25-4.64,3.51-7.3,6.26-5.23,5.43-3.82,7.75-7.89,10.72-.39.28-5.45,3.87-10.87,2.53-3-.76-4.2-2.57-7.14-5.21-7.83-7-11.05-4.44-17-10.13-6.09-5.84-2.6-8.47-9.08-14.29-2.24-2-7.81-6.34-10.42-10.13-1.67-2.41-1.94-2.83-1.94-2.83-2-3-2.06-3.61-2.83-4.17-1.79-1.3-4.26-.17-6.85.45-5.8,1.38-7.33-1-15.48-1.19-6.71-.16-5.27,1.46-13.11,1.64-7.35.16-13.74-1.14-17.87.89-.33.17-1.85.94-4.46,2.23-2.05,1-2.43,1.19-3.28,1.64-3.35,1.79-3.21,2.21-4.46,2.68-4.2,1.58-9-1.78-9.68-2.23a17.39,17.39,0,0,1-3.87-4c-3.78-4.81-4.31-6.6-6.85-10.13-3.06-4.23-3.49-3.29-9.24-10.12-3.82-4.54-3.31-4.58-5.51-6.7-4.36-4.23-5.67-3.41-9.08-7.3-2.37-2.7-3.05-4.6-5.21-4.91-1.31-.19-1.67.41-4.76.74a13,13,0,0,1-4.62,0c-.54-.12-3.69-.86-5.21-3.42s.19-4-1.19-6.41c-.78-1.37-1.6-1.45-5.51-3.87-5.29-3.26-4.66-3.67-6.41-4.17-4.52-1.3-6.65,2-9.67.45-1.85-1-2.62-3.27-4.17-7.89a32.07,32.07,0,0,1-1.64-7c-.69-6.06,1-7.38-.15-10.27s-3.8-3.58-8.78-6.56c-.93-.55-4.54-3.39-11.77-9.08-16.91-13.31-18-15.25-22.33-15.48-2.9-.16-5.7.52-9.83-1a15.27,15.27,0,0,1-6.55-4.46,14.29,14.29,0,0,1-3.28-7c-.4-2.75.36-4.08-.74-6.4a7.5,7.5,0,0,0-2.38-3c-3.4-2.35-6.75.9-10.28-.6-3.35-1.42-1.78-5-6.1-10.42a27.69,27.69,0,0,0-10.87-7.89c-1.08-.46-3-1.1-6.85-2.39-5.47-1.82-5.44-1.62-7.15-2.38-5.28-2.33-5-4-7.89-4.17-2-.15-2.47.6-7.89,1-2.28.18-2.78.1-3.28-.15-2.29-1.16-3.35-5.15-2.53-8.34.88-3.44,3.45-4,3.42-7a6.6,6.6,0,0,0-1.63-4c-2.74-3.29-6.26-1.33-10.43-4-3.38-2.19-4.83-5.93-6.1-9.23-1.49-3.87-.7-4.51-2.23-8.19-2.17-5.17-4-4.59-5.22-8.19-1.85-5.62,2.3-8.19.75-15.19a18.13,18.13,0,0,0-3.43-7.15c-4.06-5.08-7.57-3.34-12.8-8.33-4-3.83-4-6.79-7.45-7.6a7.6,7.6,0,0,0-6.4,1.49c-1.41,1.19-1.3,2.21-3,6.4a29.81,29.81,0,0,1-4.17,8c-1.37,1.76-3.7,4.72-6,4.32-1.83-.32-2.34-2.63-4.32-6.25-.6-1.09-3.64-6.68-7.59-9.83-3.14-2.5-3.83-1.06-14.75-4.47-7.76-2.42-8.21-3.39-12.65-3.87-4.14-.44-5.42.23-8.79-.89-4.49-1.49-4.94-3.58-7.89-3.57-3.36,0-6,2.74-8.34,5.21-3.2,3.34-2.32,4.16-5.06,7.14-4.73,5.16-8.56,4-10.42,8.19-1.41,3.15.3,4.9-1.64,7.45-2.22,2.91-6.24,3-6.4,3-3.43,0-5.87-2.26-7.75-3.88-7-6-4.71-1.93-15.78-10.86-10.63-8.58-8.84-9.21-15.19-13.55-9.64-6.61-18.12-8.14-17.72-10.13.14-.65,2.48-1.19,7.15-2.23a82.25,82.25,0,0,1,8.79-1.64c3.95-.5,4.23-.23,10.12-.75,4.74-.41,7.11-.62,9.08-1.19,3.12-.9,3.49-1.63,9.09-4.32,5.25-2.52,5-1.89,10-4.31,4.58-2.21,8.44-4.48,10.43-5.66,4.7-2.78,4.25-2.83,6-3.57,3-1.33,6.18-1.65,12.36-2.24,5.66-.54,9-.54,11.76-2.83a8.71,8.71,0,0,0,1.94-2.23,9.26,9.26,0,0,0,1-6.25c-.34-1.85-1-2.15-2.23-4.77-1.32-2.81-1.29-4-2.09-6.25-1.55-4.44-3.55-5.26-6-9.24-2.29-3.78-2.28-6-3.73-11.16-2-7.25-3.26-7-7.89-18.17-4-9.58-3.23-10.11-7.89-21.44-4.09-9.94-6-12.8-6.85-14a50.16,50.16,0,0,0-11.76-11.91c-5-3.5-6.5-3.14-12.21-6.7-6-3.77-8.42-6.73-12.51-10.27-12.42-10.78-18.17-7.45-35.14-19.36-6.81-4.78-5.87-5.31-13.25-10.27-12.27-8.26-13.87-6.12-20.7-12.36-1.76-1.61-7.29-6.9-11.76-7.89a34.65,34.65,0,0,0-6-.9c-.94,0-1.88-.11-2.83-.15-2-.07-2.57,0-3.12-.44s-.9-1.23-1-2.68a19.73,19.73,0,0,1,.6-6.11c.39-2.4-.37-3-1.49-8.19-.37-1.72-.74-4.67-1.49-10.57-.94-7.42-.84-8.12-1.64-10.13a25.2,25.2,0,0,0-4.76-7.29,37,37,0,0,0-8.19-7.3,28.66,28.66,0,0,0-7.44-3.57c-4.45-1.35-5.49-.36-11-1.49-3.75-.77-3.29-1.22-8.64-2.68-7.33-2-8.7-1.27-11.32-2.83-3.13-1.87-4.3-4.77-6.55-10.57-6.33-16.35-7.73-21-10.57-26.8-3.08-6.29-4.29-6.66-8-13.11-7.42-12.73-4.63-15.33-12.06-31.86-3.59-8-5.51-10.49-7.15-17.27-1.51-6.24-.68-7.41-2.68-12.36-2.33-5.79-5.15-8.4-4-11.91.39-1.21,1.55-2.45,3.87-4.92,2.77-3,3.58-3.08,5.51-5.21a30.62,30.62,0,0,0,4.77-7.59,51.88,51.88,0,0,0,3.42-8.79c2.32-8,4-13.67,2.09-19.5-.74-2.27-3.77-5.59-9.83-12.21-5.16-5.64-7.8-8.51-11.32-11.17a55.44,55.44,0,0,0-12.51-7.15c-4-1.62-7.32-3-11.91-3-2.91,0-5,.5-8.78,1.49-8.67,2.25-8.54,4-13.55,4.77-1.23.19-10,1.41-16.08-3.73-2.28-1.92-2.6-3.4-4.62-6.55-3.42-5.34-6.61-7.51-14-13.7-12-10.07-9.34-9.13-19.2-17.12-8.88-7.18-13.32-10.78-19.66-13.7-8.14-3.75-9.07-2.07-14.74-5.66-4.88-3.09-5.12-4.93-15.49-15.63-8.42-8.71-8.09-7.3-10.27-10.42-4.87-7-4.59-11.14-10.42-18.17a64.49,64.49,0,0,0-6.55-6.4c-10.76-9.72-14.23-9.56-17.57-15.49-1.61-2.86-.6-2.53-4-10.57-2.08-4.86-3.15-7.35-5.22-10.13,0,0-.72-1-5.95-6.84-10-4.89-14.84-10.72-17.42-15.34s-2.48-7.17-6.11-11.47c-3.86-4.57-6-4-13.4-9.82-5.24-4.11-8.81-6.9-11.76-11.77-3.49-5.73-2.2-7.9-6.26-14.14-2.44-3.76-4.41-6.8-8-8.79-7.35-4-12.36,1.26-21.74-2.53a25.2,25.2,0,0,1-8.48-5.81c-5.64-5.56-3.73-8.37-9.83-17.86-4-6.2-6.7-8-8.34-14a44.39,44.39,0,0,1-1-6.85c-1-8.73-.29-12.12-.75-15.93-.66-5.52-3.57-9.24-9.38-16.68a109.82,109.82,0,0,0-23.37-21.74c-9.28-6.53-12.87-5.49-21.15-12.06-6.37-5.06-9.56-7.58-12.06-12.36-2.26-4.32-2.94-8.46-7.44-13.7a46.83,46.83,0,0,0-4.47-4.31,74,74,0,0,0-14.15-10.43c-8.56-4.66-10-2.33-12.06-5.21-4.51-6.2,3.26-15.25-2.08-22.48-1.15-1.55-2-1.88-4.32-4.92-2.06-2.76-2-3.42-4.91-7.89-2.39-3.67-2.9-4-3.73-6-1.11-2.69-.6-3.19-1.49-6-1.14-3.59-2.25-3.58-5.5-9.38-2.6-4.62-2.4-5.52-4-6.7-2.27-1.65-4.64-1.33-8.79-1.19-5.71.18-11.41-.57-17.12-.75-11.68-.36-12.47-.63-13.11-1.49-2.92-4,4-11.84,1.94-19.5-.21-.78-.87-2.92-1.64-6.26-.49-2.14-.53-2.64-1-4.61-.64-2.46-1.22-4.2-1.64-5.36a18,18,0,0,0-1.34-3.28c-1.65-2.41-5-2.83-7.3-3.13-2-.25-11-1.72-13.55-1.78-13-.29-18.87,1.35-20.1-1.19-.9-1.86,1.69-3.89.45-7.6a10.6,10.6,0,0,0-2.23-3.57,16.41,16.41,0,0,0-4.62-3.57c-1.28-.76-3.35-2.85-7.44-7-5.84-5.92-8.76-8.91-9.09-10.87-.64-3.83,1.85-4.66,1.05-8.49-.73-3.43-3.31-5.55-7.6-9.08-4.55-3.74-5.22-3-8.63-6.11-3.77-3.41-3.76-5-7.6-9.08-3-3.12-4.17-3.42-8.63-7a115.94,115.94,0,0,1-15.64-15.48c-4-4.58-6-6.87-8.64-10.43-3.85-5.14-4.94-7.34-8.19-8.78-3.7-1.65-7.19-1-7.59-2.53-.17-.69.38-1.23,2.53-4,1.29-1.67,2.7-3.55,3.13-4.17,2-2.84,3.36-7.8,1.79-11.47s-4.77-2.51-8.19-7.44c-.68-1-1.65-3.29-3.58-7.89-1.34-3.21-2-4.81-2.68-6.71a46.05,46.05,0,0,1-3-11.61c-.54-6.5,1.92-6.58,1.64-13-.31-7.21-3.51-8.46-2.38-13.4.89-3.91,2.89-3.16,5.81-8.94,3.44-6.83,1.37-9.31,5.06-13.85,2.22-2.73,4-3.08,4.76-5.8,1-3.42-.75-6.63-1.19-7.45-1.77-3.31-4.35-4.59-9.38-7.44-10.69-6.09-9.88-6.49-18-10.58-5.62-2.82-8.48-4.23-10.87-4.31-5.5-.2-8.76,2.66-11.47.59-1.82-1.38-2.45-4.26-2.83-6s-.09-1.67-.44-4.47c-.54-4.22-1.3-5.5-.6-6.11s2.45.13,4.76,1.2c3.09,1.41,3.82,2.5,5.81,2.53a7.29,7.29,0,0,0,3-.75c2.76-1.11,2.87-2.33,5.51-3.72,2-1.06,2.21-.49,4.91-1.79,2.28-1.08,3.41-1.63,4-2.83,1.34-2.62-1-6.09-1.19-6.4-.8-1.16-1.51-1.6-6.7-4.76-3.18-1.95-4.79-2.93-5.51-3.73a14.37,14.37,0,0,1-3.13-6.25c-.7-2.62-.58-4.25-.59-8.19,0-12.26-1.22-13.67-2.09-14.29-2-1.4-4.42-.35-5.06-1.79-.22-.51-.11-1.06,1.64-4.32,2.19-4.07,2.6-4.31,2.83-5.66.36-2.17-.58-2.48-.3-4.91.32-2.8,1.7-3.51,2.09-5.36.66-3.25-2.62-5.74-5.51-9.53-5.28-6.93-2-8.66-7.3-16.83-3.77-5.78-5.19-4.54-10.42-12.06a18.56,18.56,0,0,0-5.21-5.51,19.35,19.35,0,0,0-7-2.68c-5-1.06-6.13.06-9.53-.59-2.65-.51-4.14-1.6-11.17-7.45s-10.64-8.84-11-9.38c-4.59-6.46-1.95-9.28-6.1-18.91-.41-1-1.38-3.11-.45-4.76.69-1.23,2.11-1.61,3.87-2.09a14.77,14.77,0,0,1,7.89-.15c2.07.57,2.57,1.24,3.73.9,2.06-.62,2.76-3.47,2.83-3.73a5.48,5.48,0,0,0-.6-4.17c-.85-1.24-1.7-1-2.23-1.93s-.2-2.52,1.78-6.25c2.29-4.32,2.55-3.84,3.28-5.66.38-1,2.4-6.34,0-10-.71-1.06-1-.82-3.43-3.42a22.78,22.78,0,0,1-3-3.58c-2.09-3.62.79-5.85-.6-10.27-1-3.32-3.71-5.4-6-7.15a16.76,16.76,0,0,0-5.51-3.13c-4.58-1.44-6.3.62-10.12-.74-1.69-.6-1.77-1.15-6.11-4.91-5.31-4.62-5.27-3.87-8.63-7a48,48,0,0,1-8.19-9.53,62,62,0,0,1-3.43-6.26c-1.77-3.58-2.66-5.37-3-7-.69-3.52.25-5.09-1.05-8A7.15,7.15,0,0,0,138,483c-1.78-1.38-3.41-.22-7.74-.3-2.78-.05-6.44-.11-7.75-2.23-.56-.92-.17-1.39-.89-3.58a16.81,16.81,0,0,0-1.79-3.72c-4.48-7.44-4.46-9-7.59-12.36a21.18,21.18,0,0,0-5.51-4.46,15.9,15.9,0,0,0-5.06-1.79c-5.51-.66-7.93,8.16-12.36,7.44-1.62-.26-2.25-1.5-4.32-1.34a6.78,6.78,0,0,0-3.72,1.79c-3.57,2.95-2.77,5.75-6.4,8.93a11.08,11.08,0,0,1-3.28,2.09,12.24,12.24,0,0,1-8,.15,10.63,10.63,0,0,1-4.62-2.38c-2.14-2-1.82-3.82-3.57-6.56-1.47-2.28-3.16-3.32-5.21-4.76-5.24-3.68-11.88-9.37-15.78-14.3-2.3-2.89-1.17-2.39-6.11-11.31-6.51-11.75-9.76-17.63-15.19-22.93a89.58,89.58,0,0,1-7.44-8,36.11,36.11,0,0,1-4.92-8.79,6.22,6.22,0,0,1-.59-3.72c.33-1.51,1.39-2.63,3.13-4.47A6.36,6.36,0,0,1,4.71,385c1.62-.8,3.23.06,4.92.45s3.65,0,7.59-.89a34.78,34.78,0,0,0,8.34-2.68c4.77-2.32,7.54-5.27,10.42-8.34,3.54-3.77,5.31-5.71,5.07-8-.15-1.37-1.49-2.9-4.17-6A30.82,30.82,0,0,0,31.22,354c-1.94-1.37-2.89-1.61-4.77-3.27a20.06,20.06,0,0,1-3-3.28c-2.52-3.58-1.7-7.1-2.24-13.85a55.84,55.84,0,0,0-1.49-9.53c-1.69-6.79-3.54-8.34-4.76-15a33.49,33.49,0,0,0-1-4.61,54.65,54.65,0,0,0-2.83-6.7c-1.71-3.77-2.57-5.66-2.53-6.11.27-3.75,5.11-4,6.7-8.78.78-2.36-.35-2.45-.3-7.89,0-4.54.08-8.91,3-11.62A10.8,10.8,0,0,1,22.73,261c2.57-.62,3.74.07,6.25-.6A12.47,12.47,0,0,0,33.45,258c4.89-4.3,2-15.12,1.49-17-1.89-7-4.22-7.12-8.49-17.13A61.55,61.55,0,0,1,22,210.5c-1.95-9.93.3-13.68-3.28-18.16-2.87-3.6-6.57-4-6.55-6.7,0-.87.4-1.68,4.91-5.81,4.7-4.3,5.71-4.76,7.3-6.7,1.94-2.38,2.69-4.47,4-8.19,3.34-9.33,1.31-12.2,4.91-16.68,1.74-2.15,3.12-2.62,4.17-5.21a13.17,13.17,0,0,0,.45-7.59c-1.18-6.42-4.85-7.69-6.26-14.6-.5-2.45.07-1.8-.44-5.06-1.37-8.73-5.06-11-5.06-18.31a16.49,16.49,0,0,1,.59-4.92c1.09-3.86,3.06-5.2,7-10.12,1-1.3,0,0,7-9.83,4.17-5.82,4.73-6.51,5.66-7.44,3.39-3.44,5.83-6.25,9.23-6.26,1.91,0,2.8.85,4.91.3.56-.15,3.11-.81,4-2.83,1-2.21-1-3.62-.15-6.55a6.3,6.3,0,0,1,2.39-3.28,7.12,7.12,0,0,1,5.8-.59c3.94,1.29,3.78,5.13,7.15,5.8,2,.4,2.23-.89,5.51-1,2.69-.12,3.49.71,7.3,1.49,4.75,1,7.13,1.47,8.63.3,3-2.34,0-8.92,2.68-10.42,1.16-.65,2.07.38,5.06,1,6.29,1.38,9.78-1.54,11.17.15,1.6,1.94-3,5.94-1.19,10.57,0,.13,1.26,3.19,3.72,3.72,1.89.41,2.93-1,6.7-2.68s4.16-.83,6.55-2.08c3.78-2,3.27-4.25,7.3-7.89,2.3-2.08,5.91-5.34,9.83-4.77,3,.44,3.23,2.71,8.78,4.62a17,17,0,0,1,3.73,1.49c1.16.67,1.67,1.18,4.31,3.57,3.53,3.19,3.56,3.11,4,3.72a18.58,18.58,0,0,1,2.54,5.21c1.46,3.89,1.35,5.37,2.82,6.26s2.28,0,3,.74c1.53,1.69-.56,8.19-4,11.41-.26.25-.69.63-.65,1.1.16,1.88,7.59,2.59,8.63,2.68,6.1.54,9.91-2.18,10.87-.75.16.24-.09,1.7-.59,4.62-.36,2.1-.53,3,0,3.57.67.8,1.7.29,2.38,1s.17,2.13-.15,4c-.29,1.71-.9,5.36.45,6.55,2,1.72,7.2-2.55,8.78-.9.58.61,0,1.29.3,4.62.08.83.1.67.6,3.72.73,4.5.7,5,1.34,5.66a9.07,9.07,0,0,0,3.12,1.79c.13,3.34,1.18,5,2.24,5.81,1.68,1.35,3.79,1.1,4.17,2.38.27.94-.8,1.36-1.2,3.12s.55,2.23.75,4.92c.22,3-.89,3.61-.15,5.36.66,1.56,1.62,1.24,2.53,3s0,2.5.89,5.06a12.71,12.71,0,0,0,2.39,4,15.43,15.43,0,0,0,2.23,2.23,17.23,17.23,0,0,0,4.62,2.68,13.73,13.73,0,0,0,5.65,1.49c2.15,0,2.3-.68,4.17-.59s2.53.7,5.36,2.08c4.19,2,4,1.41,6.85,3a42.69,42.69,0,0,1,5.81,3.87c1.72,1.31,2.93,2.41,5.36,4.62,3,2.68,4.44,4,4.91,4.76,1.51,2.34,1.66,4.69,1.94,9.38s-.3,7.27,1.49,10.28c.08.14.08.12,1.34,1.93,2.88,4.14,2.75,5,4,5.81,2.05,1.36,3.68.34,4.32,1.49.88,1.6-2.1,4-1.19,5.8.36.75,1.24,1,3,1.49,2.09.59,4,.73,8.79.75,3,0,2.82,0,3,0,3.68.95,3.79,5.25,8.19,9.23a15.87,15.87,0,0,0,4.91,3.13c5.27,2.09,11.09.91,12.66.59a19.37,19.37,0,0,1,5.21-.74c2.36.07,4.17,0,5.06,1,1.83,2.22-1.51,7.52-.59,8,.7.4,2.6-2.83,4.61-2.38a3.08,3.08,0,0,1,1.79,1.64c.38.68.56,1.51.3,4.31-.29,3.05-.63,3.36-.3,3.88.7,1.1,2.77.58,7.29.15,6.56-.63,7.66-.06,11.32-1.2,2.95-.92,2.15-1.26,4.32-1.78,4.62-1.11,8.67.38,13.1-.45a10.5,10.5,0,0,0,2.39-.74,9.62,9.62,0,0,0,3-2.09,9.36,9.36,0,0,0,2.09-4.32,40,40,0,0,0,1.49-8.63c.53-8.79.82-13.23,2.08-15.64,1.13-2.15,2.49-3.52,5.21-6.25,4.06-4.08,5.88-4.39,7.75-7.45,1.2-2,1.54-4,2.23-8,1.23-7.24,0-7.94,1.19-13.1a57.64,57.64,0,0,1,3.72-10.13c1.7-3.5,2.87-5,2.39-7.14s-2.12-2.5-3-5.51a8.73,8.73,0,0,1-.15-4.92c1-3.19,4.24-4.72,6.55-5.8,3.71-1.75,4.91-1,10.57-3.13,1-.39,2.08-.85,4.17-1.79,5.83-2.6,8.73-3.93,11.47-5.8a33.56,33.56,0,0,0,8.48-8.79,48,48,0,0,0,7.15-15.34,38.52,38.52,0,0,0,1.49-8c.31-3.92-.19-5.13-.45-5.65-1.25-2.56-3.43-2.65-3.57-4.32s2-2.65,4.32-5.06c1.63-1.7,2.67-3.76,4.76-7.9,4.87-9.64,3.82-11.59,7-15.18,1.79-2,4.17-3.19,8.93-5.51,7.13-3.48,14.63-7.15,20-4.32,1.39.74,2.47,1.84,4.91,2.38,1.74.39,3.27.21,6.25-.15a33.79,33.79,0,0,0,7.6-1.49,26.13,26.13,0,0,0,6.1-3.12c6.46-4,18-.23,24.13,5.8,3.38,3.33,3.06,5.41,6.7,7.3s5.63.8,10,3.13c3.27,1.74,2.66,2.64,5.81,4.46,4.16,2.42,8.27,2.61,12.95,2.83a36.8,36.8,0,0,0,10.28-.74c3.52-.79,6.39-1.42,9.38-3.58,1.69-1.21,2.07-1.94,3.57-2.38s3.27-.32,7.45,1.49a75.75,75.75,0,0,1,7.59,4,91.92,91.92,0,0,0,8.79,4.47,76.59,76.59,0,0,0,9.82,3.42c3.26.91,3.13.66,7,1.64,7.69,2,8.23,3,12.81,3.57a24.59,24.59,0,0,0,9.23-.14c2.41-.54,5.58-1.24,8.19-4A11.5,11.5,0,0,0,677.3,67c.33-3-.77-5.47-2.09-8.48s-2.18-3.57-2.38-5.66S673,47.7,674.76,47c1.94-.77,4.55,1.87,5.36,2.68,4,4,3.7,8.58,5.22,8.64s2.84-4.36,3.87-7.75c1.35-4.44,2-6.67,1.63-9.08-.25-1.58-.84-3.21,0-4.91a3.81,3.81,0,0,1,1.94-1.94c2.14-.79,4.2,1.51,4.91.89,1-.83-2.78-5-1.34-7.59.49-.87,1.52-1.37,3.58-2.38,2.46-1.21,3.11-.91,3.57-1.64,1.39-2.17-3.15-6.67-2.23-7.59.53-.54,2.66.32,3.87,1.63,0,0,.24.27,1.64,2.39a6.91,6.91,0,0,0,4.76,1c1.59-.3,3.41-1.89,7-5.06.93-.83,1.4-1.24,1.49-1.34,3.69-4.25-.28-10,2.68-13.26,1.77-1.94,5.14-2,7.3-1.34a8.72,8.72,0,0,1,3.87,3c2.57,3,1.5,4.53,3.87,7.15,1.86,2.06,3.47,2.19,3.72,3.87.11.74-.07,1.57-1.19,3.28-1.9,2.91-3.33,3.51-4.91,5.36a15.54,15.54,0,0,0-3.43,10.27c.07,1.92.13,3.65,1.34,5.06s4,1.53,9.68,1.94a35.33,35.33,0,0,0,9.83-.75,6.61,6.61,0,0,0,1.49-.59,4.4,4.4,0,0,0,1.78-1.49c.54-1.17-1.07-2.51-3.57-6.4a14.85,14.85,0,0,1-2.23-4.62c-.21-.82-.85-3.35.14-4,.64-.43,1.67.09,3,.75A15,15,0,0,1,757.25,26c2,2,3,3,3.13,4.32.14,1.79-1.29,2.11-1.64,4.77a8.17,8.17,0,0,0,.45,3.87c.29.76.72,1.49,3.57,4.17,4,3.77,5,4,5.81,4a4.75,4.75,0,0,0,2.83-1c.5-.4,1.65-1.52,1.94-4.62.5-5.37-2.45-7.68-1.2-9.38.67-.91,3.08-.75,7.9-.45,4.18.27,5,.7,5.36,1.34.85,1.37,0,3.56-.9,4.77-1.08,1.5-2.17,1.51-4.46,3.42-1.28,1.06-1.18,1.36-2.54,2.53-2,1.73-2.55,1.61-3,2.39-1.09,2,.77,6.49,4,7.59,3.59,1.22,7.26-2.24,7.89-2.83A26.58,26.58,0,0,0,789.71,47c1.28-1.83,1.59-2.74,2.54-3,1.71-.43,3.63,1.8,3.87,2.09,2.59,3.09,1.29,6.39,2.08,10,.94,4.28,4,5,12.66,12.21,10.65,8.88,9.38,10.59,15.19,13.4,6.07,3,6.87.79,15.48,4.32a77.09,77.09,0,0,1,13.85,7.74c3.23,2.15,3.28,2.42,10.72,7.9,11.07,8.14,12.56,8.72,13.7,9.08,2.93.93,3.08.28,16.23-.15,8.36-.28,12.17-.14,18.61-1.34,5.47-1,8-2.1,10-4.17s2.63-4.51,3.42-8c3.42-15.22,3.54-21.11,6.11-21.74,1.79-.44,4.21,1.81,6,3.43,1.91,1.77,1.78,2.5,3.73,4a10.5,10.5,0,0,0,5.8,2.53c2.09.15,2.35-1,4.62-.9.48,0,3.81.09,4.76,1.94s-1.42,4.42-.44,5.51,3.33-.61,4.32.45-.9,3.21,0,4.46c1.22,1.72,5.73-.91,7.44.9,1.37,1.45-.88,3.84.45,7.14.64,1.6,1.82,2.53,4.17,4.32a39.1,39.1,0,0,0,7.14,4.32,64.94,64.94,0,0,0,12.81,4.91,60.21,60.21,0,0,0,15.78,1.79c6.74-.12,10.11-.11,13.7-1.79,5.2-2.43,8.33-9.56,12.06-16.67,1.35-2.59,2.41-4.9,4-4.92,2.65,0,4.73,6.14,4.92,6.7a20.48,20.48,0,0,1,.89,6.41,34,34,0,0,1-.89,8.19c-1.41,6.17-3.43,8.07-2.39,9.38s3-.24,8.19.14c4.53.34,5.61,1.66,7.3.75,3.22-1.73,2.36-8.1,3.27-8.19,1.2-.11,2.32,14,3.73,14,1,0,1.31-7.42,2.53-7.45.76,0,1.8,2.84,1.49,5.51a10.63,10.63,0,0,1-3.13,6c-1.68,1.72-3.11,2.15-3,2.53.26.75,5.53-2,11.91-.75,2,.41,3,1,6.26,1.49a36.87,36.87,0,0,0,5.36.45c4.12,0,6.18,0,7.44-.89,2.11-1.59,1-3.87,3.13-9.68.73-2,2.38-6.5,4.17-6.41,1.3.07,2.15,2.52,2.83,4.47,0,0,1,3,1.49,10.42a12.81,12.81,0,0,0,4.61,2.39c3.11.85,7.71.79,8.79-1.34.75-1.49-.64-3.08,0-3.58.81-.62,3.18,1.85,7.89,4.47a18.84,18.84,0,0,0,4.77,2.23c5.82,1.28,11.11-3.17,11.91-3.87,2.4-2.08,2.27-3.18,4.46-5.8,3.58-4.29,8-6.06,11.32-7.6,4.39-2,6.58-3,9.68-3.13,5.45-.17,9.59,2.45,13.25,4.77,5,3.16,4.45,4.32,10.28,8.64,6.35,4.7,7.24,3.5,12.35,7.59s4.22,5.19,10.72,10.87c3.2,2.79,5.7,4.94,9.68,6.85,4.43,2.12,7.35,3.52,11,3,2.09-.31,3.67-1.14,6-.45a8.35,8.35,0,0,1,3.87,2.68c3.31,3.73,7.34,6.88,10.12,11,.61.9,13.74,19.36,29.19,19.5,4.21,0,8.62-1.28,14.29-3,4.22-1.27,6.78-2.05,9.83-3.88,4.13-2.46,4.08-3.8,10.27-9.23,6.4-5.6,7.28-4.91,10-8.34,1.32-1.67,4.8-6.08,5.36-12.21.67-7.32-3.51-9.65-1.49-14.29s7.79-6.42,8.64-6.7c3.54-1.15,4.38,0,8.19-1.34a16.32,16.32,0,0,0,7.59-5.36,15.32,15.32,0,0,0,2.68-7.3c1.17-7.33,7-15.48,14.15-18.46,1.35-.56,5.76-2.39,9.53-.45,2.19,1.13,3.2,3,5.21,6.85,1.62,3.07,3,5.77,3.27,9.53.17,2.71-.36,4.74.6,5.21s2.31-.77,3-1.34c1.21-1,2.56-2.67,3.72-6.1,1.45-4.29.61-5.48,1.94-6.55.41-.34,1.21-.81,7,0,4.49.62,6.76,1,8.19,2.08,1.59,1.24,1.42,2.13,3.43,5.81,3.61,6.61,5.6,6.36,5.66,9.08.05,2.16-1.21,2.28-4.47,9.83-1.19,2.74-1.31,3.39-1.19,4.17.4,2.62,3,3,7.15,6.55,3.85,3.36,3.39,4.67,7.59,8a32.5,32.5,0,0,0,5.51,3.57c3.77,1.92,8.56,4.35,13.1,2.83,3-1,2.71-2.71,5.66-3.27.8-.15,2.61-.37,9.08,2.08,3.33,1.26,3.61,1.61,5.66,2.38,3.23,1.22,8.41,3.18,14,1.94,2.13-.47,4.59-2,9.53-5.06,4.52-2.81,5.49-4,6.1-4.92a12.68,12.68,0,0,0,1.94-8.19c-.42-3.35-2-4.06-3.43-7.89a21,21,0,0,1-1-9.38c1.29-7.74,9.81-14,17.27-15,1.77-.24.94.16,10.87.15,4.06,0,5.31-.07,7.15.6.65.23,5.28,2,7.15,6.25,2.47,5.66-2,10.86.3,12.81.6.5,3.18.14,8.33-.6,4-.57,5.13-.83,6.7-.3,2.66.9,4.3,3.67,4.62,4.17.64,1,.66,1.39,1.79,3.28a16.26,16.26,0,0,0,2.08,3.13c1.85,1.6,4.23,0,10.28-.6,4.59-.44,5,.33,8.93-.45,2-.38,2.27-.65,5.66-1.49,1-.23,3-.73,7.15-1.49,7.45-1.37,7.6-1,13.25-2.08,6.47-1.23,7-1.82,9.38-1.49,3.16.43,5.22,1.82,8.93,4.32,4.17,2.8,7.52,5.06,10.13,9.23s1.51,5.44,4.76,10.28a37.14,37.14,0,0,0,5.07,6c2.88,2.83,3.31,2.46,7.59,6.26,3.24,2.87,3.66,3.67,5.66,4.61s2,.34,6.1,1.49,6.19,1.72,8.34,3c1.7,1,2.54,1.81,3.57,1.49,1.4-.44,1.12-2.33,2.68-3.43,1.83-1.28,5.26-.84,6.56.9,1.09,1.47-.21,2.72.44,6.7.32,1.95.65,4,2.24,4.91a4.31,4.31,0,0,0,4.46-.15c1.23-.85,1.12-2,2.24-7.89.84-4.49,1.42-6.55,2.53-8.79.57-1.15.62-1,1-1.93a15.44,15.44,0,0,0,1.34-8.34c-1-5.16-6.84-4.81-9.08-10.13-2-4.8,0-11.62,2.83-12.35,3.55-.93,10.36,7.61,13.4,16.08,2.29,6.39,2.13,11.88,6.25,14,1.58.81,4,1.63,5.21.6,1.47-1.28-.11-4.35-1.93-13.1-1.34-6.44-1.36-8.94-.6-11.47.17-.58,1.65-5.5,3.72-5.51,3.33,0,8.45,12.66,9.53,15.34a4.5,4.5,0,0,0,2.09,2.53,4.58,4.58,0,0,0,4.17-.45c1.77-1.1,1.76-2.74,3.42-5.66a13.38,13.38,0,0,1,3.13-4.16c2.29-1.84,6.87-3.29,10-.9s3.24,7.07,1.63,10-4.22,2.21-10.72,6.4c-3.44,2.22-7.09,4.64-6.85,7.45.18,2,2.29,3.33,2.68,3.57,2.29,1.42,5,1,8.94.3,3.76-.66,3.71-1.25,5.36-1,3.25.4,4,2.77,7.14,3.57.74.18,4.56,1,6.56-.89,2.24-2.15,1.16-6.77-.15-12.36-.91-3.9-1.46-4.13-1.64-6.7-.13-1.88-.52-7.52,2.68-9.38,1.93-1.13,4.31-.38,5.51,0a11.86,11.86,0,0,1,5.36,3.87c1.67,1.84,3.45,3.8,4,6.85,1,5.64-3,10.23-3.13,10.42-2.28,2.53-3.93,2.09-4.91,4.32-1.51,3.41,1,7.52,1.34,8,1.43,2.27,2.63,2.3,6,5.51,2.54,2.46,2.86,3.42,4.31,4.91,5.52,5.64,11,1.95,17.28,7,1.79,1.44,3.58,4.38,7.14,10.27,3.07,5.07,3.18,6.27,3.13,7.15-.14,2.59-1.7,3.3-4.77,10-1.21,2.66-1.65,4-1,5.21.33.62,1.13,1.48,3.87,1.93,4.46.73,6.82-.81,13.7-2.23a33.94,33.94,0,0,1,8.19-1c4.23.08,4.52,1.67,9.38,1.93,2.46.14,4.1-.12,5.07,1.05.53.65.73,1.59.44,3.72a22.93,22.93,0,0,1-2.53,7.74c-3,5.49-5.25,6.54-4.76,8.94.28,1.39,1.09,1.23,2.23,3.57,1.43,2.93.53,3.93,1.49,6.25.79,1.93,1.7,1.93,7.29,6.85,3.57,3.14,4,3.81,4.17,4.62.7,2.66-.79,6-3.27,7.59a8.62,8.62,0,0,1-6,1c-1-.1-2.07-.35-6.7-2.68-4.85-2.43-5.07-2.87-7.29-3.57-4-1.26-6.19-.71-7-.45a5.65,5.65,0,0,0-3,1.79c-1.73,2.25-1,6.29,1,8.64,2.23,2.56,4.41,1.26,7,4,1.45,1.55,3.06,4.4,2.38,7-.55,2.12-2.21,2.41-2.53,4.46-.28,1.78.67,3.48,1.94,5.07,6.26,7.82,25,18.87,35.29,30.37a146.52,146.52,0,0,0,10.42,10.87c2.32,2.18,3.7,5.64,6.4,5.66,1.84,0,2.4-1.4,5.21-1.94,2.19-.42,3.58.11,6.11.6,3.61.7,4.82.42,9.38.74,7.47.54,11.23,1.8,18.91,2.83,9,1.22,7.2-.08,22.93,1,11.36.82,14.58,1.66,18.61-.29a115.19,115.19,0,0,0,10.13-5.66,21.8,21.8,0,0,1,2.38-1.49c3.67-1.72,6.14-.41,12.51,0,5.14.33,7.71.5,10.42-.89s2.6-2.65,5.36-3.58c3.35-1.12,4.71.35,7.45-1,.88-.45,2-1.69,4.17-4.17,2.45-2.77,2.69-3.43,4.61-5.36a18.41,18.41,0,0,1,3.87-3.28c1.9-1.11,2.65-.93,5.51-1.93a29.56,29.56,0,0,0,7-3.43,26.11,26.11,0,0,0,5.06-4.46c2.35-2.67,2.09-3.47,3.73-5.36,2.46-2.86,4-2.12,9.67-5.51a80.79,80.79,0,0,0,8.49-6.11c1.88-1.45,3.85-2.78,5.66-4.32a13.9,13.9,0,0,1,4-2.82,16,16,0,0,1,4.47-.9,36,36,0,0,1,4.76-.3c3.71.07,7.42.14,9.83,2.39,1.1,1,1.36,2,2.83,7.14,1.54,5.44.86,8.16,2.53,8.94.81.38,1.37-.05,4.17-1,6.2-2.2,6.86-1.29,8.93-2.83,2.74-2,1.62-3.63,4.62-6a10.94,10.94,0,0,1,7.15-2.38c1.15.08,2.7.79,5.8,2.23a49.63,49.63,0,0,1,7,3.58c1.52,1.06,2.09,1.71,3.13,1.63,1.44-.1,1.86-1.46,3.72-3a12.82,12.82,0,0,1,6-2.54c1.44-.18,3.34-.11,7,1.49,5.49,2.41,5.63,4.18,11.47,7.6,5.34,3.12,6.38,2.31,9.68,5.21,2.51,2.21,2.87,3.52,5.06,4.17,3.37,1,5.77-1.14,7.59.44a3.58,3.58,0,0,1,1.05,3.58c-.49,1.36-2,1.3-2.39,2.68a3,3,0,0,0,1.05,3.12c1.61,1.05,3.78-1.08,5.21-.14,1,.69,1.12,2.57.89,3.72-.46,2.39-2.4,2.72-3.72,5.51a10,10,0,0,0-.89,4c.06,5.27,5.84,8.48,4.91,10-.18.29-1.61.44-4.47.75-2.39.25-2.52.22-2.83.45-.46.35-1.12,1.19-.89,7.59.09,2.56.22,3.16-.3,3.72-1.24,1.34-3.69-.2-5.21,1-.78.64-.88,1.66-.74,5.22.28,7.27.42,10.91,1.78,12.5a8.69,8.69,0,0,1,2.24,3.73,3.42,3.42,0,0,1,0,2.38c-.43.88-1.18,1-2.24,2.23a10.8,10.8,0,0,0-.89,1.34c-1.74,3.09,1.49,8.5-.45,10.42-1,1-2.33.19-3.12,1.34-.58.84-.2,1.71.14,3.73.47,2.77.94,5.54-.29,7.59a5.76,5.76,0,0,1-2.68,2.23c-3.13,1.37-5.23-.85-7,.45s-1.82,4.5-.6,5.81c.55.58,1,.33,2.24,1.19a11.28,11.28,0,0,1,2.38,2.38c1.34,1.6,2,2.4,2.08,3,.13,1-.43,1.43-2.08,4.32-1.75,3.06-1.76,3.7-1.64,4.17.36,1.38,1.84,1.26,2.23,2.53s-1,2.38-3.12,5.81c-1.32,2.15-2.35,3.84-2.68,6.1-.44,3,.86,3.23.44,5.36-.81,4.17-5.92,3.92-8,9.08-.87,2.13-.23,2.73-1.49,5.51a21.25,21.25,0,0,1-3.42,5.07c-3.66,4.4-5.23,3.92-6.4,6.55-1.47,3.29.19,5.54-1.19,6.55-2.34,1.7-7.85-4.18-10-2.68s3.08,8.85-.15,14.59c-.67,1.19-.7.53-6.55,5.81-5,4.5-5.78,5.71-6.25,7.15-.76,2.3.16,2.61-.3,7a24.08,24.08,0,0,1-1.94,7.9c-2,4.29-3.82,3.91-4.91,7.59-.77,2.6,0,3.26-1,6.7-.72,2.36-1.23,4-2.68,5.06-2.73,1.9-5.52-.86-7.6.45-4,2.56,2.53,15.62-2.08,19.36-1.72,1.39-3.14,0-6.85.59-10.15,1.68-18.1,15.27-15.64,20.25a5.42,5.42,0,0,0,2.68,2.68c1.89.68,3.38-.55,4,.15s-.91,2.58-1.49,6c-.42,2.49.27,2.67,0,4.91-.29,2.52-1.73,4.61-4.61,8.79-2.25,3.26-2.54,3.11-4.32,5.95a27.85,27.85,0,0,1-2.53,3.72,20.56,20.56,0,0,1-3.43,3.28c-3,2.18-6.82,1.93-12.5,1.49-6.78-.53-8.6-1.72-10.13-.3s-.22,3.44-2.08,7.89c-1.19,2.84-2.14,2.95-3,5.36-.35,1-1.11,3.61-.15,8,1.52,7,6,12.5,8,15.19,10.07,13.52,10.77,29.88,11,35.89.27,6.33.48,11-1.34,15.93-1,2.74-2.78,7.5-7.3,10.42-3.6,2.33-5.09,1-10.27,3.58-2.47,1.22-6.28,3.11-8.93,7.29a18.75,18.75,0,0,0-2.24,13.7c.54,2.46,1.27,5.76,4,7.89,2.22,1.72,4.31,1.56,4.77,3.13s-1.21,2.21-2.68,5.66c-.73,1.69-1.8,4.21-1.19,7,.18.86.92,2.16,2.38,4.76,1.28,2.28,1.92,3.41,2.38,3.72,2.61,1.76,5.65-1.1,7.89.45,1.48,1,1.57,3.24,1.64,6.1.13,5.17-1.11,7.18-1.34,10.13-.33,4.36,2.21,8,7.3,15.34,5.47,7.87,6.56,5.94,10.87,12.8a11.86,11.86,0,0,0,4.91,5.06,10.81,10.81,0,0,0,7.15.6c2.37-.67,4.06-2.16,6.85-4.62,2.11-1.86,2.21-2.35,3.42-2.82,3.14-1.24,6.38.48,6.85.74a9.77,9.77,0,0,1,4,4.47c1.79,3.61.05,4.85,1.64,8.34,1.16,2.54,3.12,4.16,5.66,6.25a15.24,15.24,0,0,0,3.72,2.53,14.16,14.16,0,0,0,7.29,1,14.32,14.32,0,0,0,7-2.08c1-.66,2.69-2.39,6-5.81,1.94-2,1.91-2.06,2.23-2.23,2.63-1.41,5.07.71,11,2.38,4.45,1.25,7.25,2,10.72,1.34,3.75-.75,5.11-2.6,7.45-1.94s3.7,3.32,4.46,5.51C2176.35,868.43,2177.75,872.4,2179.7,874.45Z"/></g></g></svg>