<svg xmlns="http://www.w3.org/2000/svg" viewBox="0 0 2193.89 2309.99"><g id="Layer_2" data-name="Layer 2"><g id="Botswana"><path d="M0,1756.68a31.14,31.14,0,0,1,8.81,6.71c3,3.34,2.48,4.26,5.75,8.37,4.72,5.91,6.43,4.73,11.23,10.83,2.35,3,2.89,4.46,5,5.18,2.75.92,4.53-.64,8.21-.44,2.67.14,4.57,1.26,7.45,2.75s3.21,2.17,7.14,4.28c2.77,1.49,2.59,1.14,4.25,2.13a29.05,29.05,0,0,1,7.13,6.1c2.37,2.8,1.63,3,3.34,4.88,4.17,4.52,7.88,2.47,10.93,6.26,2.59,3.2.88,5.84,4.24,9.13,1.69,1.65,2.31,1.18,4,2.9,2.09,2.2,2.22,4.18,3.63,8.37a43.31,43.31,0,0,0,4.08,9.28c2.77,4.51,4.06,4.11,6.37,8.23,1,1.75,1.7,3.51,3.64,4.57.78.42,1.47.58,1.67,1.22.33,1-1,1.84-1.83,3.8a7.93,7.93,0,0,0-.47,3.65c.17,2.17,1.29,3.73,4.7,7.61s3,3.18,4.7,5.18c4.37,5.23,4.33,6.89,7.28,8.53,1.49.83,2.43.93,3.35,2.14,1.51,2,1.15,4.68,1,5.48-.45,3.34-2.21,3.81-2.3,6.23-.07,2,1.1,2.4,3.18,6.09,3.2,5.65,2.29,8,5.3,10.81a9.36,9.36,0,0,0,4.4,2.74,8.83,8.83,0,0,1,2.44.62c1.22.57,1.15,1,2.58,1.83s1.68.57,2.73,1.37a6.77,6.77,0,0,1,1.37,1.37,6.43,6.43,0,0,1,1.05,3.65,151.69,151.69,0,0,0,1.63,19.32,15.2,15.2,0,0,0,2,5.94c1.28,2.06,2.52,2.71,4.85,4.72,4.62,4,7,6,7.28,8.84.38,3.31-2.05,6.81-4.58,8.5s-5.17,1.62-5.17,2.42c0,1.08,4.75.79,6.53,3.82.26.44.42,2,.75,5,.41,3.92.39,4.43.74,5.48a11.71,11.71,0,0,0,2.88,4.41c3.79,4.06,2.9,5.76,8.34,13.56,4,5.76,6,8.64,8.79,11.12,1.47,1.32,2.73,2.23,3.34,4.11,1,3-1,4.49-.17,8.52a7.44,7.44,0,0,0,2.72,4.87c1.63,1.14,2.61.23,3.5,1.07,2.5,2.34-3.67,10.29-.64,14.44.67.93,1.46,1.18,2.27,2.75,1,1.88.51,2.76,1.21,4.56,1.11,2.87,3.06,2.51,3.64,4.57.63,2.24-1.4,3.61-3.36,8.36a34.85,34.85,0,0,0-1.84,6.38,38.21,38.21,0,0,0-1.1,14c.45,3.48.67,5.22,2,6.39,2.58,2.34,6.31.62,8.51,3.21a6.22,6.22,0,0,1,1.21,4.11c.07,3.57-2.15,5.83-5.5,10.48,0,0-1.53,2.12-5.34,8.2-3.29,5.25-4.3,8.39-6.87,14.13-5.7,12.71-8.68,19.34-15,25.66-2.72,2.74-8.45,7.83-10.06,9.26a72.92,72.92,0,0,0-8.08,7.74,46,46,0,0,0-5.64,8c-2.17,4-3.31,6.12-3.37,9.12-.07,3.49,1.4,3.89,1.5,8.37.08,3.44-.78,3.37-.62,7a20.23,20.23,0,0,0,1.81,7.76c1,2.2,1.52,2.06,2.27,3.65,1.82,3.85-.19,6.32-.33,12.63-.13,5.48,1.35,5.22,1,10.34-.3,4.91-1.63,4.65-2.3,10.18-.58,4.74.48,4.22.57,13.69a15,15,0,0,0,1.06,5.93,13.63,13.63,0,0,0,2.12,3.51c1.74,2,2.9,2.07,4.55,3.81.31.32,1,1.12,2.58,4.41,2.83,6,4.28,9.11,4.07,13.24-.11,2.26-.66,3.55-.16,3.8,1,.5,3-4.56,7.93-7.89,5.06-3.43,7.24-1,13.54-4.22,5-2.59,3.92-4.29,10.66-8.5,3-1.89,6.81-4.18,12-4.84,1.21-.15,2.55-.22,8.51.33,7.21.65,10.83.75,12.32,1.39,4.87,2.12,9.08,6.75,10,7.78,1.39,1.53,1.56,2,2.58,2.59,2.58,1.52,4.58.41,10.49.94a15.58,15.58,0,0,1,4.56.77c2.92,1.19,3.41,3,6.37,4.27a12.08,12.08,0,0,0,4.72.92c3.79-.06,5-2.15,9.13-3.47,3.44-1.12,3.36.1,8.52-.75,1.38-.22,3.08-.59,11.71-3.77,7.76-2.86,6.86-2.74,8.07-3,4-.95,5.39-.24,15.36.34,6.57.39,9.86.58,14,.64,6.09.09,7.91-.14,10.49,1.24s3.39,3,6.22,3.51c2.09.37,3-.28,5.94-.74a31.6,31.6,0,0,1,9.88.17c4.55.59,5.32,1.55,10.64,2.91,5,1.28,8.22,2.11,12.16,1.86,5.7-.37,9.77-2.79,17.05-7.11a45.8,45.8,0,0,0,8.22-6.07c2.49-2.32,4-3.74,5.19-6.22.41-.87,3.08-6.45.78-11.1-1.24-2.51-2.73-2.34-3.64-5a10.54,10.54,0,0,1,.32-6.84,13.07,13.07,0,0,1,4.27-5.77c4-3.27,8.57-3.73,12.63-4.08,5.78-.49,5.74.72,13.39.49a58.94,58.94,0,0,0,11.56-1.34,95.64,95.64,0,0,0,9.28-2.87c5.38-1.83,8.07-2.74,9.59-3.63,1.73-1,2.89-2.06,8.84-9.71,8.1-10.41,8.35-11.56,11.43-13.66,3.64-2.49,5.23-2.22,7.16-4.85,2.09-2.85,1.57-5,3.22-10.19,1.25-3.94,1.84-3.59,4.12-9,3.66-8.57,2.48-10.19,5.51-15.5a26.24,26.24,0,0,1,7.32-8.65c5.6-4.11,12.7-5.35,15.83-5.89a58.35,58.35,0,0,0,8.52-2.27,11.59,11.59,0,0,0,4.26-2.12c1.43-1.21,2-2.48,3.51-5.61,1-2,2-4,2.91-6.08,2.6-5.74,4.92-10.72,9.46-14.88a12.54,12.54,0,0,1,4.26-3c3.53-1.35,5.69.16,11.71.78a41.43,41.43,0,0,0,10.8-.28c5-.82,7.79-1.27,9.74-3.47,3.22-3.65-.13-7.32,2.76-13.23,1.06-2.16,1.22-1.06,8.84-9.25,3.63-3.89,5.08-5.74,6.41-8.2a21,21,0,0,0,2.6-6.69c1.07-6.14-2-9.07-.28-11,2.13-2.34,7.41,1.65,11.56-1.34a8,8,0,0,0,2.9-4.71c.71-3.18-1-4.61-2.26-9.13a29,29,0,0,1,0-14.14c.59-2.71,1-4.71,2.6-6.84,2-2.69,3.53-2.51,6.7-5.46,2.5-2.31,5.34-5,5.34-8.19,0-3.45-3.2-3.76-5-9-.43-1.23-2-5.94.17-10.19a12.65,12.65,0,0,1,5.18-5c2.57-1.25,4.2-.75,5.48-2.27,1.13-1.34.76-2.78.93-4.87.54-7,6.09-8.94,5-12.91-.85-3.24-5-3.74-4.7-5.79.34-2.24,5.37-2,6.09-4.7.65-2.39-3.06-3.65-3.17-7.76a9.28,9.28,0,0,1,2.29-5.93c1.42-1.62,2.16-1.22,3.51-2.58,1.68-1.69,1.42-3.24,2.75-9.87a45.42,45.42,0,0,1,1.85-7.3,38.76,38.76,0,0,1,3.2-6.38c3.93-6.77,5.89-10.15,7.78-11.54,3.77-2.75,5.32-1.11,8.68-4.24,1.49-1.38.87-1.41,5.19-7a42.27,42.27,0,0,0,3.66-5,19,19,0,0,0,2.44-5.17,12.37,12.37,0,0,1,1.38-3.95c.71-1.18,1.2-1.44,1.37-1.51,1-.48,2.15,0,3.8.76s3.17,1.27,4.71,2c3.91,1.82,5.87,2.72,7.14,2.6,2.1-.2,2.16-1.42,5.18-2.72s3.69-.31,7.61-1.35a20.15,20.15,0,0,0,8.83-4.7c2.3-2.2,1.88-3.09,3.66-4.25,2.84-1.85,5.9-.89,9.88-.43,7.58.86,7.13-1.44,15.82-1a54.72,54.72,0,0,1,15.65,3.23c4,1.45,6,2.18,7.9,3.66,2.35,1.81,3.25,3.39,4.86,3.21,1.29-.15,2.3-1.47,4.27-4.1,2.13-2.85,2.24-3.83,3.35-4.1,1.73-.41,3.56,1.44,5,2.9,2.62,2.65,2.77,4.25,4.7,6.7,1.73,2.22,3.47,3.28,6.83,5.34,5.86,3.6,7.31,2.57,11.24,5.65,3.27,2.57,2.07,3.13,5.91,6.25s6,3.25,8,6.41a27.82,27.82,0,0,0,2.58,3.8,12,12,0,0,0,3.18,3c2.31,1.31,3.64.14,8.37.48,2.66.19,4.63.33,6.68,1.53,1.32.78,2.52,2.26,4.86,5.18s2.18,3.07,3.94,5.18c2.36,2.83,3.54,4.25,5.46,5.34a20.23,20.23,0,0,0,5.93,2c3.25.71,3.56.21,4.71.92,2.27,1.4,1.45,3.54,3.79,6.55,1.85,2.38,2.83,1.63,5.61,4.42s1.76,3.41,4.4,6.24c3.28,3.53,6.21,4,6.37,6.56.09,1.32-.66,1.95-.16,3,.21.44.73,1.2,3.8,2.14s4.5,1.54,5.47,1.07c1.58-.76.94-2.44,2.6-3.79,2-1.62,5.36-1.21,7.6,0,1.89,1,1.86,2.13,3.49,3.81,5.09,5.25,14.42,4,15.81,3.84a29.37,29.37,0,0,0,5.93-1.51c3.19-1.13,3.47-1.79,5.63-2.57,4.17-1.5,5.13.23,11.26-.58,4.78-.64,5.78-1.9,8.21-1,.9.32,2,.92,4.86,4.73,2.28,3,3.77,5.54,7.57,11.87,1.83,3,2.78,4.6,4.4,6.1s1.83,1.22,5.16,3.51c4.35,3,4.48,3.71,7.75,5.64a53.26,53.26,0,0,0,5.62,2.75c4.71,2.12,7.1,3.18,8.51,2.91,2.5-.49,2.34-2.33,6.7-4.85a17,17,0,0,1,5.63-2.27c4-.65,7.21,1.26,10,2.76,13.11,7,20.07,6.35,28.41,11.77a32.29,32.29,0,0,0,5.32,2.9c3.29,1.4,3.77.92,6.53,2.14,4.12,1.82,4.52,3.53,7.29,4,.46.08,4.29.72,6.09-1.35,1.32-1.53.47-3.32,1.83-4.41.86-.68,2-.58,4.41-.14,4.57.82,7.66,1.73,10.34,2.3a50.9,50.9,0,0,0,6.08.93,45.67,45.67,0,0,0,15.36-.57,28.13,28.13,0,0,0,9.13-3.33c4.56-2.76,4.42-4.79,12.34-12.29,3.19-3,5-4.34,7.16-5.46a23.92,23.92,0,0,1,7.76-2.41c2.44-.3,9.75-1.2,13.38,3.22,1.17,1.43.82,2,1.66,3.35,4.64,7.2,22.15-1.06,36.8,2.82a23.34,23.34,0,0,0,10.64.78c2.68-.48,2.81-1.07,5.78-1.66,6.08-1.19,7.4.93,11.26-.28,3.32-1,2.81-2.75,8.83-7.28a69.35,69.35,0,0,1,8.07-5c5.17-2.92,6.69-3.34,12.34-6.2,8.14-4.13,12.3-6.28,16.44-10a43.66,43.66,0,0,0,6.86-7.9c6.74-9.95,4.38-15.52,11.17-29.32,2.61-5.31,2.79-4.13,4.73-8.51,3.81-8.58,4.55-16.32,5.23-24,1-11.44-.27-14.23,2.62-19.61,2-3.78,3.33-3.66,6.71-8.2,2.16-2.89,3.31-5.18,8.72-19.9,2.49-6.8,4.77-13.19,8.11-22.64s2.82-8.1,3.36-9.57c7.46-20.47,13.61-34.49,13.61-34.49,1.77-4,3.56-7.94,3.83-13.53a29.42,29.42,0,0,0-1.34-10.8c-1.42-4.36-2.66-4.51-6.21-12.33-2-4.3-2.75-6.85-2-9.58.21-.72.83-2.83,2.59-3.65s3.16.61,6.54,1.08c3.21.45,3.83-.64,8.82-1,4-.33,4.93.28,7.75.17,5-.21,5.15-2.3,12.48-4.69,6.4-2.09,9.6-3.14,13.24-3,1.42,0,3.83.28,5.78-1.21,1.22-.93,1.33-1.82,2.59-2.42,1.43-.68,2.56-.15,5,.31,3,.56,6.09,1.13,9,0,2.23-.86,1.67-1.7,4.27-2.73,1-.38,1.85-.59,6.84-1.2,2.5-.3,2.89,0,3.8-.45,1.91-1,1.7-2.67,3.36-3.64,1-.61,1.71-.29,5.47.17,4.73.57,7.13.84,8.82.17,1-.4,1.47-.82,4.11-2,1.1-.48,1.8-.78,2.59-1.06,2.66-.93,4.06-.72,7.15-1.2a40.39,40.39,0,0,0,5.17-1.2,38,38,0,0,0,8.07-3.18c4-2.38,5.9-6,7.32-8.65,9.57-17.91,14.36-26.86,19.53-31.59,2.33-2.13,4.83-3.9,7.93-7.89,4.17-5.37,3.35-7,6.41-9.26,4.66-3.53,8.32-1.15,12.48-5.14,2.09-2,1.17-2.63,3.81-5.77,2.95-3.51,4.64-3.39,9.29-7.28,5.21-4.35,4.16-5.4,7.17-6.83,4.3-2,6.06.29,12-1.49,3.35-1,5.57-2.57,8.38-4.55,2.51-1.77,4.62-4,8.84-8.34,2.45-2.55,3.49-3.82,4.11-5.77a11.94,11.94,0,0,0,.32-5.47c-1.28-9.88-2.11-11.33-2.25-15.37a33.73,33.73,0,0,1,2-12.16c1.63-4.49,2.8-4.59,4.73-9.72,1.56-4.15.93-4.44,2.76-10.79,2-6.78,2.77-6.7,3.68-11.24,1-5,0-5.11,1.09-10.8a52.66,52.66,0,0,1,3.21-10.64c1.77-4.18,2.64-4.69,4-7.59,3.08-6.7,1-9.56,2.78-22.81.94-7,1.44-5.64,2-11.24.64-6.41.25-11,2.77-16.88,1.56-3.66,2.88-4.66,4-4.7.73,0,1.14.38,3.8,2.44,3.59,2.77,4,2.94,4.4,3.05a6.7,6.7,0,0,0,6.24-1.36,6.63,6.63,0,0,0,2.14-4.55,8.45,8.45,0,0,0-2-5c-.13-.19-.39-.53-.9-1.22-1-1.33-1.47-2-1.52-2.14-.61-1.82,2.92-5.38,7-6.82,2.26-.8,3.71.2,4.41-.75,1.12-1.53-1.62-4.45-.59-5.63.63-.74,2.4-.34,5.93.47,2.69.61,3.75,1.11,4.71.46a3.58,3.58,0,0,0,1.22-2.58,4.58,4.58,0,0,0-.75-3c-1.33-1.86-3.46-1.3-4.1-2.75s.7-3.1.76-3.19c2-2.59,7.21-2.82,9.89-.59,1.32,1.1,1.54,2.39,2.12,2.29,1.29-.22-.2-6.34,3.07-9.12,1.08-.92,1.46-.43,4.26-1.51,4.2-1.62,4.11-3,7.92-4.69,3.13-1.39,3.41-.54,8.21-2.42a16.31,16.31,0,0,0,5.18-2.88c1.38-1.18,2.7-2.32,3-4.1.5-2.54-1.53-3.75-.75-5.47a4,4,0,0,1,4.57-1.82c1.42.51,1.17,1.83,3.18,3.51,1.11.92,3.23,2.23,4.41,1.53.47-.28.67-.9,1.07-2.13a23.15,23.15,0,0,1,.77-2.89,5.33,5.33,0,0,1,1.52-1.82c1.12-.89,3.41-2,5-1.2,1,.5,1.66,1.72,2.58,3.35.47.83.62,1.27,1.06,1.37.9.21,1.95-1.24,2.59-2.12,1.59-2.22,1.39-3.17,2.14-4.11,1.85-2.29,6.37-.64,13.08-.27,7.22.4,8.53.37,9.73-.43,1.73-1.16,1.73-2.42,4.12-7.29,3.45-7,4.35-6.2,5-9.12,1.35-5.66-2.37-7.29-1.34-13.53a19.08,19.08,0,0,1,4.89-9.42,24.14,24.14,0,0,1,11.42-7.28,21.62,21.62,0,0,1,6.69-.74c2.33.1,3.84.17,5.17,1.23,1.71,1.35,1.11,2.74,2.88,4.11a7.81,7.81,0,0,0,4.86,1.23,11.19,11.19,0,0,0,10-5.76,12.24,12.24,0,0,0,2-6.84c-.1-2.55-1.08-2.95-1.06-5.63a10,10,0,0,1,1.23-5c1.63-2.66,4.36-2.85,8.83-4.7,4.85-2,4-2.73,8.68-4.84,8.55-3.86,12-1.7,15.37-5.44,1.34-1.49,2-3.78,3.21-8.36a67.53,67.53,0,0,0,2.16-12c.24-3.61,0-5.71,1.54-8.21a11.56,11.56,0,0,1,3.2-3.34c2.57-1.83,4.13-1.49,7.91-2.87a21.34,21.34,0,0,0,7-3.78,16.56,16.56,0,0,0,4.88-7.45c1.62-5.28-.9-7.54,1.1-13.83.9-2.86,1.82-3.63,2.28-4,2.25-1.55,4.5,0,7.91-.74,2.1-.46,3.61-1.78,6.55-4.4,4.74-4.21,7.11-6.32,8.39-9.56,2.14-5.44-.78-7.81,1.85-13.68a19.39,19.39,0,0,1,4.43-6.07c3.71-3.62,6.42-2.4,10.35-5.76,2.93-2.51,1.83-3.36,5-6.53,3.36-3.32,5.26-3.07,10.21-6.51s3.89-4.35,7.77-6.83c5.77-3.69,11.91-4.13,15.37-4.38,6.16-.44,6.3,1,12.62.34,2.27-.24,4.49-.65,7.14.32a43,43,0,0,0,4.26,1.68,14.26,14.26,0,0,0,4,.77,12.82,12.82,0,0,0,5.78-1.36c2.61-1.17,2.6-1.92,4.42-2.73,2.5-1.1,3.67-.18,8.21-.13,4.21.05,7.75.09,11-1.95,1.73-1.1,2-1.93,5-3.94a35.07,35.07,0,0,1,4.26-2.43c5.48-2.57,7.72-1.48,11.87-3.92,2.52-1.49,1.56-1.81,4-3.19,2.06-1.18,3.33-1.27,12.78-3a33.31,33.31,0,0,0,5.33-1.36,15.1,15.1,0,0,0,4.41-2.12,30.89,30.89,0,0,0,3.36-3.34,19.57,19.57,0,0,1,2.89-2.88c1.27-.9,2.26-1.6,3.5-1.51,1.06.08,1.26.65,4.26,2.44,1.67,1,2.05,1.08,2.43,1.07,1.28,0,2.11-1.27,3.2-2.73,3.3-4.46,2.33-2.49,4.42-5.62a39.52,39.52,0,0,0,4.27-7.29,31,31,0,0,0,2-8.66c.62-5.1-.12-5.27.33-10,.39-4.17.78-8.29,3.37-12.46.9-1.45,2.43-3,5.49-6.22,2.63-2.74,3.91-3.75,5.48-4.55a19.9,19.9,0,0,1,4.87-1.51,81.85,81.85,0,0,1,8.67-1.5c5.18-.61,7.76-.91,10.95-.74,2.57.15,3.42.43,4.87-.14,2.31-.91,2.24-2.46,5.18-4.7,1.35-1,1-.46,5.63-3,3.21-1.8,3.54-2.18,4.72-2.27a11.34,11.34,0,0,1,5.17,1.23c1.34.56,1.41.79,2.58,1.22a13.4,13.4,0,0,0,4.41.77c3.68.08,6.55-.78,9.43-1.2,6.8-1,10.38,1,10.95-.28.47-1.06-2-2.44-6.52-7.46-.88-1-2.81-3.39-6.67-8.23-4-5-3.84-4.91-5.46-6.85-4.2-5-6.35-7.58-8.65-8.84-2.87-1.58-5.5-1.92-9.73-2.46a61.57,61.57,0,0,0-9.43-.32c-10.21.12-12.55,1.09-15.5-.95a24,24,0,0,1-4.25-4.27,43.68,43.68,0,0,1-3.64-4.87c-4.18-6.26-6.27-9.39-7-12.18a24.85,24.85,0,0,1-.44-8.52,28.35,28.35,0,0,1,2.31-9.88,44.92,44.92,0,0,1,3.35-5.92,32.4,32.4,0,0,0,2.9-4.56c.6-1.31,1.72-3.83,1.23-6.08-.61-2.86-3.64-4.35-7.13-6.1-15.93-8-13.27-7.13-16.25-8.24-4.44-1.65-4.55-1.32-17.33-5.06-6.44-1.88-9.65-2.82-12.15-3.68-2.95-1-7.51-2.66-21.43-9-12.53-5.72-10.52-5.15-16.1-7.48-16.28-6.82-16.28-4.53-21.12-7.65-.92-.6-2.91-2-5.17-1.54-1.89.36-2.47,1.7-5,3.49a22.29,22.29,0,0,1-6.09,2.88c-2.15.73-5.71,1.95-9.13,1.5-4.36-.59-6.34-3.61-10-6.72-4.2-3.54-8.27-5-16.41-7.94-9-3.25-17.34-3.81-34-4.94-7.24-.49-13.64-.62-14.75-.64-9.76-.19-9.06.29-13.23,0-5.24-.41-15.85-1.37-23.7-8.27a20.89,20.89,0,0,1-4.85-5.94c-1.49-2.87-1.9-5.56-2.42-9.13s-.14-3.42-.59-7a48.06,48.06,0,0,0-2.71-11.41,76.61,76.61,0,0,0-3.33-7c-2.21-4.35-4-7.54-4.39-8.22-5.7-10.1-5.9-11.49-9.7-18s-7.24-12.34-13-18.73c-3.34-3.69-6.43-6.32-12.6-11.58-6.76-5.78-11.25-9-16.39-15.55-2.3-3-3.46-4.48-4.24-6.7-1.91-5.48.14-8.9,2.17-18.55,2.35-11.15,3.52-16.73,2.33-23-.66-3.47-1.92-7-1-12.17.49-2.86,1.14-3.33,2.61-7.44a67.7,67.7,0,0,0,3.69-19.15,75.67,75.67,0,0,0-.59-10.5c-1.1-11.63-2.54-12.08-2.24-17.79.36-6.92,2.47-6.35,3.08-14.75a40.27,40.27,0,0,0-1.49-14.45c-.94-3.14-1.78-5.84-4.24-8.22a15.79,15.79,0,0,0-7.9-3.82,61.32,61.32,0,0,0-19.16-1.11c-15,1.17-14.7,2.24-24,2.38-7.79.13-11.68.19-16.27-.79-3.38-.73-5.41-1.55-9.12-1.39-2.67.11-5.11.78-9.89,2.11-7.25,2-8.2,2.8-9.28,2.1-2.32-1.48,0-6.4,1.1-17.33,1.35-13.14-.74-18.1.52-27.07a16.89,16.89,0,0,0,0-5.32c-.47-2.86-1.51-4.22-3-7.46s-1.09-3.16-3.33-9c-2.1-5.44-2.73-6.14-3.93-9.28-3.31-8.62-1.13-10-3.77-16.58-1.28-3.21-4.1-10.27-11.07-13.26-5-2.15-6.64,1-12.62-.48-7.54-1.85-7.17-7.09-15.94-11.6-6.22-3.19-7-.88-18.09-4.6-8.75-3-8-4.33-15.49-6.42-2.59-.73-7.8-1.47-18.09-2.93-8.89-1.26-10-1.31-12.77-2-6.84-1.71-8.21-5.22-14.29-5.66-3-.23-4.83.33-5.77-.93-1.54-2.06,1.84-5.47.17-9.88a5.26,5.26,0,0,0-2.27-2.9,5.72,5.72,0,0,0-4.11-.16,42,42,0,0,1-10.64.28c-2.3-.29-3.92-.49-5.47-1.68-2.32-1.78-2.82-4.49-3.34-6.4a36,36,0,0,0-7.72-13.24c-5.15-5.71-12.22-7.73-15.64-8.71-6.29-1.79-7.86-.53-11.71-2.91-4.28-2.65-6.52-6.81-8.19-9.9-3.65-6.78-2.55-9.79-5.9-11.73-1.45-.84-3.71-1.27-8.21-2.14-3.18-.62-4.88-.72-5.32-1.84-.33-.85.39-1.48,2-4.71,1.3-2.63,2-4,1.84-5-.27-2.5-2.94-4.14-4.4-5a16.85,16.85,0,0,0-6.38-2.15,66.33,66.33,0,0,0-10.19-.78,34.17,34.17,0,0,1-13.22-3.37c-.41-.22-10.34-5.6-12.89-16-1.4-5.68.63-7.84-1.64-15.06-.76-2.41-.95-2-3.64-8.07a149.76,149.76,0,0,1-6-15.37c-2.45-7.63-1.22-7-3.17-12.47-1.06-3-2.07-5-8.78-16.45-4.29-7.33-6.43-11-6.82-11.57-8.23-12.09-13.57-13.58-13.49-19.8a18,18,0,0,1,2.91-9.73c1.26-1.7,2.5-2.5,3.36-4.85a14.23,14.23,0,0,0,.62-5.93,26.82,26.82,0,0,0-1.2-5.94c-2.07-7.56-1.64-6.93-2.27-8.67-.37-1-1.45-3.82-5.91-9.74-4.74-6.31-7.12-9.45-10.92-12.35-1.93-1.47-10.34-7.25-17-7.18a4.54,4.54,0,0,1-3.19-.92c-1.08-1-1.12-2.46-1-6.24.13-7.38.4-8.51-.59-10-1.14-1.75-2.36-1.59-2.88-3.35s.3-2.62.77-5.32a26.46,26.46,0,0,0,.16-5.47c-.21-9.52-.31-14.28-1.63-17.19-.72-1.58-2-3.64-7.13-7.92-9.31-7.72-13-7.43-19.74-12.52-6.51-4.89-10.41-10.77-18.2-22.54a114,114,0,0,0-8.94-12.49c-3-3.58-3.93-4.14-7-7.93a62.73,62.73,0,0,1-8-11.72c-2.92-5.86-2-7.58-4.53-15.37-1-2.91-3-7.11-7.12-15.38-5.66-11.43-8.54-17.22-11.2-20.4-4.84-5.78-7.57-9-12.6-11.13-3.77-1.56-7-1.7-8.51-4.58-1.24-2.36-.13-4.28-1.5-8.21A12.15,12.15,0,0,0,1243.9,59c-1.79-1.84-2.94-1.61-3.65-3.2s.13-2.18-.44-5a17.14,17.14,0,0,0-.91-2.89,25.49,25.49,0,0,0-2.72-5.33c-1.72-2.5-3-3.07-4-4.26-2.13-2.62-1.3-6.19,1.1-16.73s3.54-15.76,1.41-18.55a8.51,8.51,0,0,0-4.7-2.9c-2.73-.55-4.56.72-8.37,2.42a74.84,74.84,0,0,1-13.85,4.38c-4.78,1.14-4.21.5-9.13,1.65-6,1.39-7.07,2.39-13.69,4.07-9,2.27-10.5,1.36-11.11.89-2.72-2.08-.83-5.86-3.93-8.07-2.57-1.83-6.6-1.19-8.21-.93a15.91,15.91,0,0,0-3.35.91A102.06,102.06,0,0,0,1139.52,15c-4.25,2.92,2.5-2-27.25,16.51-9.5,5.89-17,10.62-21.63,16.22-2,2.44-2.57,3.92-6,7.75-2.44,2.75-3.93,4-4.43,6.52-.35,1.79.08,2.73-.77,4.11-.51.83-1.35,1.61-4.26,2.73a26.93,26.93,0,0,1-7.46,2c-4.76.53-7.55.85-9.57-.78s-1.67-3.7-2.72-8.07c-1.51-6.23-2.87-5.33-4.69-11.42-1-3.45-1.1-5-2.58-5.78-1.92-1.05-3.73.51-6.23-.93-1.29-.74-1.34-1.46-2.73-2a6.79,6.79,0,0,0-4,0c-4.87,1-5.31-.23-7.91.59s-3.36,2.53-8.08,7.74c-3.66,4-5.5,6-6.25,6.37-4.95,2.27-8.75-1.37-18.86-.19a12.9,12.9,0,0,0-2.89.45c-3.51,1.07-5.5,3.8-6.55,5.15A66.44,66.44,0,0,1,974.1,72.56c-.32.26,0,0-11,7-3,1.89-5.25,3.34-7.76,2.72-1.62-.41-2.19-1.39-3.65-1.23-1.75.19-2.73,1.81-4.42,4s-3.71,3.89-5.48,5.91c-6.55,7.45-9.82,11.17-11.89,12.14s-3.91,1.33-4.88,3.19a53.94,53.94,0,0,0-1.22,5.47,9.7,9.7,0,0,1-.92,2.88,8.15,8.15,0,0,1-1.83,2.28c-6.23,5.52-21,14.65-29.26,25.33,0,0-8.76,11.3-14.32,15a7.81,7.81,0,0,1-3.2,1.37c-1.66.26-2.28-.26-4.11-.17a8.92,8.92,0,0,0-4.1,1.21c-1.88,1.21-2,2.77-3.51,5.32a22.91,22.91,0,0,1-4.43,5c-3.78,3.16-10.93,5.51-16.58,2.39a13.23,13.23,0,0,1-5.31-5.79c-1.93-3.85-1.53-7.46-1.34-10.34a106.85,106.85,0,0,0-1.32-22.06c-1.23-7.36-2-12.14-5.89-16.43-3.14-3.48-6.88-5.06-13.67-7.94-8.78-3.72-9.7-2.35-13.07-4.9-4.81-3.63-3.64-7-9.39-18.42-4.45-8.88-6-8.5-10-17.2-5.3-11.43-3-12.62-5.89-14.92-9.51-7.41-38.5,1.53-42.58,1a16.79,16.79,0,0,1-2.89-.61,14.41,14.41,0,0,0-2.13-.77,5.88,5.88,0,0,0-3,.45c-1.56.51-3.17.85-4.72,1.36a51.56,51.56,0,0,1-7.15,1.81c-1.34.23-1.12.12-6.85.74l-4,.45c-6,.69-9,1-9.89,1.2-3.43.64-4,1.26-8.21,2.56a82.09,82.09,0,0,1-17.2,3.16c-5.36.47-6.71.1-11,1-3.36.75-3.84,1.28-7.91,2.57-6.59,2.08-8.67,1.73-17.5,3.76-4.32,1-6.45,1.68-10.19,2.71C609.1,78.88,606,78.8,582,83.85c-10.69,2.25-15.47,3.4-20.24,4.67-8.45,2.25-8.36,2.61-13.54,3.92-13.75,3.49-18.8,2.08-33.47,4.64-6.8,1.19-5.64,1.48-19.17,4.67-32.22,7.61-34.2,4.89-51.27,10.53-5.26,1.74-10.63,3.84-18.86,4.83-4.39.52-7.16.44-14.61,1.18,0,0-6.52.66-12.93,1.65-16.86,2.59-23.27,6.4-44.27,10.69-3.49.72-6.3,1.23-7.91,1.51l-106.91-.24-2,915.45-235.25-.53Z"/></g></g></svg>