<svg xmlns="http://www.w3.org/2000/svg" viewBox="0 0 2242.44 2356.81"><g id="Layer_2" data-name="Layer 2"><g id="Brazil"><path d="M1124.7,2219.87c9,7.66,7.73,9.43,12.85,12.54,5.32,3.24,9,2.73,11.63,6.65a15.78,15.78,0,0,0,2.87,3.48c2.45,2.14,3.84,1.82,5.44,3,3.68,2.74.77,7.68,4.39,15.26a26.08,26.08,0,0,0,4.53,6.5c3.16,3.51,4.46,3.37,9.22,7.7,4.21,3.84,4.25,4.91,6.8,6.05a13.85,13.85,0,0,0,8.61.75c2.33-.62,3.38-1.72,11.94-13,7.85-10.35,8.51-11.46,8.91-13.6.24-1.27.58-4,1.81-4.23,1.07-.23,2.28,1.44,2.87,2.26,1.13,1.56.76,2.24,2.12,5.9.2.53.54,1.36,1.21,3,1.21,3,1.16,2.73,1.36,3.32.94,2.84.31,3.43,1.21,5.14,1,1.87,1.89,1.51,2.42,2.87.76,2-.94,3.39-2.57,7.86-1.46,4-.58,4.11-2,7a20,20,0,0,1-4.68,6c-1.87,1.73-2.9,2.68-4.53,3.18s-3.44.37-8.62-1.67c-7.35-2.89-8.88-4.65-10.42-3.77-1.18.67-1.12,2.17-2,8.91-.61,4.9.18,6.48-1.06,7.56-1.9,1.66-4.51-.8-7.25.75-1.79,1-2.07,2.87-3.78,8.62-2.51,8.46-2.68,7-3,9.36-1.13,7.94,2.65,11.25,0,15.27-1.62,2.46-3.8,2.37-4.38,5-.65,2.93,1.48,5.75,1.81,6.2a7.87,7.87,0,0,0,3.63,2.87c3.21,1,6.7-2.23,10-5.29,11.81-11,15-14.51,15-14.51,11.23-12.09,11.43-11.87,13.9-15.26a92.74,92.74,0,0,0,8.77-14.65,106.82,106.82,0,0,0,4.83-12.24c3.32-9.62,2.77-10.77,5.9-19.65,2.54-7.23,4-11.18,7.25-15.41a58.86,58.86,0,0,1,6.34-7.25c2.86-2.52,5.14-3.75,4.84-4.84-.39-1.41-4.41-.09-6.95-2.42-1.62-1.48-1.22-3.13-1.81-10.12-.72-8.37-1.63-9.93-.16-12.54a11.26,11.26,0,0,1,4.84-4.53c2.58-1.21,4-.48,5.14-1.82,1.3-1.5.07-3.06.9-6.65.5-2.13,1-2,2.42-5.29,1.49-3.53,1-4.07,2.57-8.15s2.29-6.05,4.08-6.65c1.12-.38,1.34.22,5.14.75,2.83.4,4.27.58,5.89,0a6.92,6.92,0,0,0,3.48-2.57c1.71-2.59,0-4.81,1.66-6.65,1.33-1.51,2.8-.37,4.23-1.66,2.66-2.38-1.11-7.49,1.51-12.54,1.41-2.71,2.79-1.8,4.23-4.53,2.47-4.69-1.32-7.91.91-12.69,1.58-3.4,3.72-2.29,5.59-6.2s.57-6.89,3-8.76c1.58-1.21,3.2-.81,3.78-2.12.19-.43.45-1.44-1.21-4.08-2.94-4.68-5.77-4.72-6.65-7.86-.55-2-.15-4.54,1.21-5.29,1.67-.92,4.38,1.15,6,2.42s3.43,3,7.71,8.92c2.83,3.88,3.79,5.49,5,5.29,1.44-.24,2.3-2.94,2.57-3.78.74-2.34.14-3.35.75-4.23,1.17-1.71,4.34.37,10.13.45,5.12.07,6.42-1.43,8.61-.15,3.11,1.82,4.12,7,2.72,8.16s-5.79-2-6.8-.76c-.37.45,0,1,.15,2.42a10.37,10.37,0,0,1-1.06,4.84c-1.49,4.11.49,6.06-.45,10.27-.55,2.46-1.89,4.14-4.53,7.41-5.41,6.66-9.33,5.79-11,10.57-.55,1.57-.78,3.41-2.41,5.75a8.31,8.31,0,0,1-3.18,3c-2.64,1.27-4.17-.34-5.44.6-2.78,2.08,3.22,11-.45,16a21.78,21.78,0,0,0-2.72,3.78c-1.19,2.24-1,3.08-1.66,4.23-1.78,3-6,1.91-10,3.62-4.59,2-3.35,5.4-8.77,11.79-2,2.41-8.49,10-17.38,12.69-2,.59-5.52,1.39-7,4.23-.66,1.33-.37,2.13-1.36,4.39-1.33,3.05-2.92,4-2.56,4.53.5.72,4.27-.43,7.1-3a16.48,16.48,0,0,0,2-2.27c2.82-3.49,7-4.31,9.52-5.14,4.71-1.57,4.16-3.48,14.36-12.09,7.59-6.4,7.77-5.23,13-10s6.44-7.21,12.69-14.66c9.92-11.8,10.74-10.13,16.93-18.13,2.49-3.22,3-4.28,13.75-23.42,11.19-19.87,11.14-19.56,12.09-21.76,5.33-12.41,3.7-15.06,9.67-29.16,2-4.66,4.23-9,8.76-17.53,6.37-12.06,9.55-18.1,13.15-23.27,4.51-6.49,3.74-3.78,23.27-24.63,14.58-15.57,15.78-17.9,21.15-19.79,2.72-1,9.11-2.72,9.37-5.9.08-1-.51-1.32-1.51-3.32a21.75,21.75,0,0,1-2.12-10.43c.2-2.9.08-5.94,2-7,1.61-.86,3.94.09,4.08.15a3.66,3.66,0,0,1,1.81,1.36,3.9,3.9,0,0,1,.4,2.74,6.52,6.52,0,0,1-1.15,2.85c-1.31,1.92-2.36,1.89-3.18,3-1.94,2.7.14,8.34,1.82,8.46.88.06,1.67-1.44,2.26-2.57.9-1.71,1.09-3.06,1.51-6.2.75-5.59.88-6.88,1.67-8.91.67-1.75.8-1.37,1.36-2.87,1.43-3.88.53-6.24.9-10.13.32-3.28,1.2-4,2.12-7.4,1.24-4.58.7-7.18.3-15.11-.56-11.12-.81-16.8.75-23,1.15-4.52,5.17-6.81,4.08-10.12-.41-1.27-1-1.35-3.77-5.14-2.09-2.87-3.14-4.3-3.48-5.59-.83-3.17,1-4.5,1.21-8.46.15-2.37-.43-2.66-2.27-9.22-3.28-11.74-2.2-13.64-1.36-14.36,1.12-.94,2.24-.14,3.18-1.2,1.71-2-1.45-5.22,0-8.32,1.18-2.52,3.89-1.65,5.74-4.53,2.06-3.21.7-7.41.6-7.7-1.45-4.3-5-4.46-5.59-8-.2-1.27.62-3.08,2.27-6.65,2.65-5.73,3.38-5.94,5.29-10.43,1.39-3.26,1.36-4,2.72-6.34,1.94-3.36,2.83-3.28,3.17-5,.8-4-3.56-6.08-2.57-9.22.88-2.79,5.16-3.76,5.9-3.93,4-.91,5.52,1.21,8.31.31,3-1,3.47-4.24,6.19-9.07,2.18-3.87,2.86-3.49,10.28-12.09s6.79-9,11-13.6c4.89-5.3,9.06-8.35,15.41-13,14.53-10.64,18.76-10.32,24.93-18.29,3.42-4.41,3-5.67,6.65-9.37,3.16-3.22,5.35-4.19,17.23-10.12,32.63-16.3,20.63-11.26,23.72-12.69a26.85,26.85,0,0,0,4.08-2.57,5.54,5.54,0,0,0,2.12-2.12c.45-.94.27-1.51.75-2,.87-.81,2.7-.16,3.17,0,4.52,1.51,7.91-1.12,16.63,0,6.21.8,7,2.45,9.82,1.51,3.18-1.06,2.78-3.76,6.65-7.71,3.43-3.5,4.59-2.4,11-7,4.41-3.11,3.85-3.61,9.67-7.85,6.16-4.5,8.5-5.18,10.57-5.29s2.67.42,5.59.15c2.58-.24,6.6-.61,7.41-2.87.52-1.46-.76-3.26-2-5-1.56-2.24-2.43-2.18-2.87-3.63a5.93,5.93,0,0,1,2-5.89c.58-.48.82-.44,5.14-1.51a40,40,0,0,0,5.89-1.66,9.87,9.87,0,0,1,3.17-1.36c1.65-.26,2,.33,3.17,0,2-.6,1.89-2.81,3.48-3.18,1.76-.4,4.06,1.81,5.14,3.78s.71,3.21,1.51,3.48c1.13.38,2-2.14,5-4.08,3.16-2.07,4.42-.7,7.85-2.87,2.7-1.71,2.82-3.14,4.69-3.33,1.56-.16,2.51.74,5.29,2.42,3.79,2.3,4.59,3.43,6.64,3.48,1.19,0,1.57-.33,2.57,0,1.68.54,1.64,1.87,3.33,2.87a6,6,0,0,0,4.83.45c1.51-.52,1.32-1.27,3.18-2.27a11.69,11.69,0,0,1,5-1.21c2.29-.15,2.3.34,3.93.16.38,0,4.89-.6,5.89-3.48.82-2.33-1.11-4.9-1.51-5.44-1.91-2.55-4.12-2.47-4.53-4.38a4.15,4.15,0,0,1,1.36-3.63c2-1.81,4.46-.19,8-2.11,1.4-.76,1.94-1.52,2.11-1.36.38.33-1.39,4.38-4.53,5.29-1.48.42-2.78,0-3.17.75s.23,1.43.75,2.27c3,4.88,2.36,5.77,3.93,6.8s2.3.4,6,.6a48.26,48.26,0,0,1,7.7,1.21c5.64,1,8.47-.11,16.93-.3,2.59-.06,8.32.21,19.79.75,5.5.26,9,.47,12.39-1.81a17.53,17.53,0,0,0,5-5.74c1.21-2.09,2.17-3.76,1.81-5.74s-1.76-2.27-2.11-4.39c-.24-1.42.29-2.68,1.36-5.13,1.55-3.59,2.33-5.39,3.92-6.65,2.63-2.09,4.83-1.25,5.75-3.17.81-1.72-.57-3.14.45-4.54.68-.93,1.68-.82,3.78-1.36,2.75-.71,2.9-1.39,6.8-3,1.51-.64,1.74-.64,6.19-2.12,6.17-2,9.28-3.08,10.73-3.92a83.25,83.25,0,0,0,6.65-5.14c4.67-3.78,5.13-4,5.89-4.84a18.12,18.12,0,0,0,4.53-8c.69-3.25-.51-4.47-2.41-11.33-2.43-8.76-4-14.53-1.36-18.74.87-1.38,2-2.31,3-4.83.88-2.23.7-3.35,1.66-5.74a18.61,18.61,0,0,1,2.57-4.38c3.34-4.58,4-7.27,7.1-12.09a65.15,65.15,0,0,1,11.79-13.6c7.41-6.67,8.89-5.12,12.24-9.82.74-1,.57-1,6.5-15.27,1.66-4,2.26-5.42,3.62-8.76,2-4.95,3-7.43,3.78-9.37a98.94,98.94,0,0,1,5.59-13,12.14,12.14,0,0,1,3.93-4.54,13.38,13.38,0,0,1,3.17-1.51c2.74-.84,3.7-.05,4.54-.9,1.15-1.18-.43-2.93.6-5.75.57-1.55,1.27-1.63,2.42-3.47a15.54,15.54,0,0,0,2-5.89c1.48-8,2.12-7.16,2.72-12.24,1-8.63,1.63-13.75-1.21-18a13.13,13.13,0,0,1-2.72-5.75,12,12,0,0,1,.46-5.13c1.84-7.27.41-7.39,2.26-14.51a78.23,78.23,0,0,1,3.63-10.12c.77-1.91,2.23-5.13,5.14-11.49,3-6.58,3.3-7.16,3.93-8.16,1.56-2.49,3.25-4.38,6.64-8.16s4.92-5.47,7-6.95c2.56-1.85,3.6-2,4.69-3.47,1.51-2.09.32-3.3.91-8.77.49-4.61,1.49-5.93.45-8-.87-1.73-1.91-1.5-3-3.17-1.81-2.7-1-6.18-.15-9.82,1.66-6.94,3.62-6.63,3.92-11,.32-4.63-1.8-5.8-.75-10,.71-2.84,1.9-3.18,3.17-6.2,1.54-3.67.94-5.92,1.06-11a65.52,65.52,0,0,1,3.17-18.28,107.25,107.25,0,0,1,4.08-10c1.34-2.87,2.09-4.16,3.48-7.4,1.81-4.22,2.71-6.34,2.87-8.16.38-4.35-4.09-5.82-4.08-10.88,0-1.2.69-1.79.45-3-.41-2.12-2.25-2.44-3.47-4.38-1-1.62-.63-2.79-.46-8,.1-2.72,0-5.44,0-8.16.06-6.6.08-9.92,0-10.58-.56-4.85-1.87-5.59-3.32-11a51.33,51.33,0,0,1-1.51-13.6,54.23,54.23,0,0,1,2.11-18c1.49-4.77,2.14-4.13,3.48-8.77a50.49,50.49,0,0,0,1.66-16.47c-.33-6.53-1.39-6-2.11-13.29a66.8,66.8,0,0,1,.75-19c1.36-7.18,3.39-11,3.93-11.94,2-3.67,3.57-3.56,4.68-6.5,2-5.2-1.45-7,.31-12.24,1.49-4.41,4.54-4.73,5.13-9.36.36-2.81-.52-4.48.46-5.14,1.18-.79,3,1.24,8,3,3.78,1.36,3.83.59,5.28,1.51,4.8,3,3.11,10.8,6,11.64,1.33.37,2.74-.92,5.89-4.08,7.86-7.89,10-10.43,10-10.43,11.22-13.47,11.75-13.69,13.6-16.92,2.32-4.05,1.21-3.19,5-10.73,4.38-8.74,5.75-9.65,9.67-17.68,2.74-5.62,2.14-5.3,5.44-12.09,2.54-5.2,3.61-6.87,6.65-12.84,3.51-6.91,4.57-9.6,6-12.54,7-14,18.2-23.2,24.18-28.11a112.7,112.7,0,0,1,17.23-11.94c5-2.77,6.38-3,9.52-5.44,5.11-3.93,6.51-7.21,11.93-15,.34-.48,4.86-6.21,13.9-17.68,9.3-11.78,10.54-13.24,11.79-14.65,6.11-7,8.16-8.26,13.15-13.75a107.48,107.48,0,0,0,14.5-19.19c2.5-4.33,4.88-10.35,9.52-22.22,3.87-9.86,5.8-14.8,7.56-19.94,5.57-16.28,8.35-24.42,8.61-35.21.19-7.86-1.17-6.28-1.36-18.13-.21-13.54,1.54-17.48-.91-25.24a73.21,73.21,0,0,1-2.72-10.12,79.39,79.39,0,0,1-1-8.61c-.77-8-3.37-14.26-6.05-20.7-4.63-11.13-6.33-9.58-8-16.47-1.47-6.09-.15-7.3-1.81-17.38-.83-5-1.4-8.49-3.17-13A52.72,52.72,0,0,0,2209,604a36.07,36.07,0,0,0-7.26-7.4,23.59,23.59,0,0,0-8.31-4.38c-2.84-.77-3.56-.28-8.46-1.36-3.26-.73-3.27-1-5.14-1.21s-3.77-.08-8,.75c-3.92.78-6.18,1.42-7.85,1.82-3.77.89-7,1-13.3,1.05-10.84.18-16.26.27-19.64-1.51-5.37-2.81-4-5.56-9.37-8-7.11-3.24-11.75.58-16-3.17-3-2.66-1.61-5.39-5-8.76-3.63-3.62-8.64-3.85-10.58-4.08-8-1-9.53-6.2-28.26-23.27-.54-.49-4.47-4-12.39-10.88-16-13.92-24-20.88-30.52-26.14-10.4-8.34-18.47-13.87-34.61-24.94-9.79-6.71-16.07-10.73-25.08-14.05a156.2,156.2,0,0,0-16.17-4.68c-8.54-2.17-12.9-3.25-17.68-3.18-7.29.11-7.34,2.17-16.31,3.33-8.31,1.08-8.43-.66-22.67-.45-10.2.14-15.3.22-18.59,1.05-5,1.27-9.09,3.21-13.29,1.21a28.77,28.77,0,0,1-5.29-3.78c-3.53-2.86-3.87-3.84-5.9-4.83-1.73-.84-3.74-.88-7.7-.91-4.64,0-7.69-.06-11.64.76-6,1.23-5.86,2.71-9.37,3-4.59.41-7.55-1.88-14.5-6s-11.65-7-17.38-9.37c-10-4.19-10.59-1.77-21-6.35-4.13-1.82-6.49-3.27-10.43-3.17a22.27,22.27,0,0,0-11,3.78c-4,2.81-4.3,5.22-7.4,5.74s-3.68-1.66-7-1.36c-4.4.39-7.48,4.69-9.22,7.1-2.38,3.31-1.27,3.95-3,5.74-2.48,2.54-5.14,2-13.6,3.78-4.89,1-7.34,1.53-8.31,2.27-4,3-2.66,7.28-7.26,14.95-.52.89-4.16,7-5.89,6.35-1.54-.54-1-6.18-.45-11.63a83.43,83.43,0,0,1,1.21-8.31c1.42-7.31,2.28-11.67,4.68-16.63,2.26-4.66,3.67-5.27,6.5-11.63,1.29-2.9,2.47-6.1,1.21-9.07-.21-.47-1-2.25-2.27-2.41-1.51-.19-2.36,2-4.83,4.23-3,2.69-6.85,4.28-7.41,3.62s2-3.91,6.2-9.06c3-3.67,3.42-3.93,3.93-5.29a12.73,12.73,0,0,0-1.52-10.88c-4-6-9.94-2.85-16.47-9.07-4.62-4.4-3.45-7.74-8.16-10.12-3.38-1.72-8.46-2.27-11.18.15-2.07,1.85-3.08,5.71-3.32,6.65-.58,2.2-.36,3.06-1.21,3.78-1.64,1.37-5.3.57-7.25-1.52-1.14-1.21-1.48-2.63-1.82-5.44-.84-7-.46-12.48-.9-12.54s-.7,6.17-2.87,6.65c-1.54.34-2.94-2.43-7.86-8.16a57.22,57.22,0,0,0-4.84-5.29c-6.79-6.05-15.8-7.6-16.47-7.7-4.69-.76-7.36-.09-9.06-2.27s-.74-5-2.27-5.59c-1.08-.43-2,.82-5.89,2.57-2.08.92-3.12,1.38-3.78,1.36-3.3-.13-3.56-4.62-8.46-7.1a18,18,0,0,0-6.35-1.67c-3.17-.2-5.19.58-5.89-.45-.85-1.24,1.28-3.53.6-4.23-.88-.91-4.5,2.9-7.86,2-1.73-.48-2.13-1.87-3.77-3.92-3.76-4.7-9-6.53-13.6-8.16-4.23-1.49-6.34-2.24-9.22-2-5.15.48-5.89,3.4-11.63,3.78-2.2.15-5.52.37-8.47-1.51a31,31,0,0,0-4.53-3c-1.86-.92-3-1.47-4.23-1.21-1.76.36-2.12,2-4.38,5-2.08,2.75-4.57,6-7,5.75-2-.25-2.28-2.94-4.69-3.33-1-.16-2.36.07-4.68,2a23.67,23.67,0,0,0-6.65,9.06c-4,10-10.11,8.22-18,21-5.75,9.34-5.16,14.6-11.18,17.52-3.77,1.83-8.68,2.05-9.67.31-.87-1.53,1.8-3.59,5.74-10,.34-.55,2.6-5,7.1-13.9,2.61-5.15,3.54-7,5.44-9.52,3.33-4.42,4.25-3.59,5.74-6.19,3.47-6.07-1.71-9.77.91-18.59,1.09-3.67,2.62-5.17,3.62-10.58s0-6.69-.6-7.25c-1.24-1.07-3.11-.57-5.29-.15-2,.39-10.21,1.84-16.92.6-2.55-.47-1.42-.69-10-3.32a44.54,44.54,0,0,0-8.16-2,50.81,50.81,0,0,0-6.65-.3,42.36,42.36,0,0,0-5.75.3c-3.23.45-4.55,1.17-7.4,2-2.37.66-3.13.63-10.27,1.51-11.54,1.41-10.48,1.61-11.64,1.51-5-.41-5-2.35-15.56-6.65-7.3-3-8.26-2.45-10.73-4.68-3-2.7-3-4.76-7.1-8.46-2.55-2.31-5.1-4.62-7.26-3.93-.58.19-2.12.91-3.92,9.06-1.17,5.27-1,7.31-1.52,9.52-1.44,6.85-7.23,9.3-13.75,15.27-5.52,5.05-8.72,10.52-15.11,21.45-7.25,12.41-6.81,15.87-14.05,25.24a47.88,47.88,0,0,1-22.67,16.92c-8.12,3.06-14.49,3.45-22.06,4.08-14.45,1.21-21.68,1.81-27.2,2.87-10.34,2-11.07,3.73-35.35,11.33-11.29,3.54-18.69,5.84-19,5-.42-1,9.31-6.56,19.64-10.73,15.87-6.4,18.89-3.82,33.85-10.12,11.15-4.7,11.22-6.87,20.4-9.37,10.41-2.84,13-.77,20.4-4.23,2.92-1.36,13.42-6.25,16.47-16,2-6.28-.72-9.59,2.57-17.22.94-2.19,1.51-2.73,5.28-8.32,5.55-8.2,5.11-8.21,10.13-15.71,5.64-8.43,8.45-12.65,12.69-17.53a86.14,86.14,0,0,1,12.84-12.54c8.56-6.63,10.32-5,16.17-10.43,3.62-3.32,6.44-7.75,12.09-16.62,6.08-9.54,6.3-11.51,9.82-13.45,4.6-2.52,6.87-.62,13.9-3.92,3.36-1.58,7-3.34,8.62-7,1.42-3.15,0-4.8-.61-10.87-1.17-11.78,3.11-16.32-.75-22.22a16,16,0,0,0-4.23-4.08c-4.78-3.6-7.43-2.82-15-6.19-4.14-1.85-3.55-2.18-9.22-4.84-6.19-2.9-7.16-2.63-9.52-4.08-1.4-.85-4.6-3.11-9.37-14.35-4.38-10.33-3.3-12.26-7.55-22.52-3.25-7.83-3.94-6.86-6.2-13.29-2.31-6.59-1.67-7.84-4.68-18.89-2.52-9.23-3.18-9.13-3.33-12.69-.18-4.31.73-6,1.06-14.36.27-6.82-.21-8.6-.45-8.61-.42,0,0,5-3.18,7.4-1.16.89-3.06,1.61-3.92.91-1.34-1.09.94-4.67,2-9.37,2.35-10.78-3.5-20-3.78-20.4-1.65-2.51-4.22-4.55-9.37-8.61-1.44-1.14-2.65-2-4.08-1.82-2.13.31-3.38,2.82-4.83,5.9-2.93,6.21-4.39,9.32-5.14,11.63-1.29,4-2.17,4.17-16.17,22.67-8.61,11.37-9.77,13.27-10.73,15-1.58,2.77-2.23,4.28-7.85,17.22-4.71,10.85-7.09,16.31-8,18.14a120.74,120.74,0,0,1-11.79,18.73c-5.4,7.08-8.2,10.67-13.14,13a31,31,0,0,1-13.91,2.57c-5,0-8.37-.05-10.72-2.27a13.06,13.06,0,0,0-3.78-2.87,7.17,7.17,0,0,0-3.78-.91c-2.23.21-2.76,1.74-4.83,2.42-.93.31-2.15.43-6.2-.91-7.22-2.38-7.74-4.24-10.43-3.93-1.36.16-3.34,1.93-7.25,5.44-5.67,5.11-6,6-8,6.65s-4.61.09-9.67-1.05a59.27,59.27,0,0,1-11.18-3.33c-4.07-1.73-7.69-3.27-11.33-6.65-2.83-2.61-3.36-4.19-6-5.13-2.44-.87-3.2,0-7.4-.46a19.17,19.17,0,0,1-8.16-2.26c-4.24-2.55-3.93-5.7-6.8-6.2-1.74-.3-2.38.77-8,3.93-4.5,2.53-6.75,3.79-8.91,4.08-4.75.62-5.82-2-9.22-.76-3.58,1.3-4.25,4.87-7.1,4.69-1.18-.08-2-.74-3.33-1.82-2.93-2.37-2.57-4.25-5-5.59a6,6,0,0,0-4.39-.6c-1.41.45-2.21,1.51-3.32,3.17-3.17,4.73-4.75,7.1-4.84,8.46-.06,1.07,1.22,3.9,3.78,9.52a28.54,28.54,0,0,1,2.27,6c.51,2.23.84,3.76.3,5.59a7.74,7.74,0,0,1-4.68,5.14c-3,.93-3.94-1.55-8.92-2.42-6-1-8.82,1.79-12.39-.61-1.67-1.12-1.47-2-3-2.56-2.62-.91-4.48,1.22-8.61,2.26-2.13.54-4.14.41-8.16.15a57.4,57.4,0,0,1-11.64-2c-6.24-1.73-6.87-3-11.18-3.33a22.14,22.14,0,0,0-7.71.76,20.07,20.07,0,0,0-10,6.5c-2,2.47-1.25,3-3.78,6.49-2.23,3.14-3.82,5.37-6.49,6.35s-3.38-.3-9.52-.75c-5.27-.39-8.17-.61-10.28,1.2-1.93,1.67-1,3.12-3.63,6.2-.85,1-3.38,3.93-5.89,3.47-1.71-.31-1.54-1.85-3.47-2.56-2.66-1-4.1,1.51-7.56.9-2.63-.46-3.34-2.16-4.38-1.66-1.59.77.21,4.65-2,9.07a11.42,11.42,0,0,1-3,3.77c-2.48,2-6.82,3.81-10,2.27-1.67-.81-2-2-3.17-2-1.72.11-1.74,2.58-3.78,3.77-3.66,2.15-10-2.1-12.09-3.47-1.86-1.24-1.62-1.4-3.63-2.87-5.51-4-7.68-3-12.08-5.9s-3.23-4.63-10.28-10.57c-1.95-1.65-1.84-1.34-5.59-4.38-6.29-5.11-7.64-6.82-8.46-8a17.59,17.59,0,0,1-3.18-6.8c-1.07-5.44,1.74-7.67.46-14.06a10.09,10.09,0,0,0-2-4.68c-1.47-1.8-2.86-1.95-4.53-3.32-.53-.44-2.21-1.91-3.78-6.65-1.82-5.52-2.06-11.12-2.11-16.47-.11-12.28-.17-18.42,2-21.91,2.23-3.66,4.75-4.88,4.84-8.46.07-2.92-1.55-4-2.12-9.07a14.61,14.61,0,0,1,.15-6c1-3.46,3.8-4.78,7.41-7.55,5.22-4,11.29-8.65,11.33-13.9,0-2.83-1.72-5.26-5-9.82-2.9-4.05-4.15-4.18-4.83-6.8-.91-3.51.87-5-.46-8.92a8.93,8.93,0,0,0-3-4.53c-1.68-1.24-3.45-1.38-5.59-1.51-11.15-.72-12.59-.72-13.6-2-1.52-1.88-.91-5.18-.15-6.95,1.19-2.76,3.2-2.88,3.48-5,.36-2.76-2.94-3.76-2.87-6.35.09-3.73,7-4.07,7.85-8.31.72-3.61-3.46-7.57-6.8-10.73A14.34,14.34,0,0,0,789,.91c-3.23-1.37-5.05-.36-10-.16-7.84.32-10.76-1.95-16.47.16-2.06.76-2.81,1.47-3,2.26-.57,2.12,2.9,3.71,4.08,7.1s-.49,6.71-2,9.68c-4.39,8.84-12.67,7.18-17.23,16-1.25,2.43-1.39,4-3.17,5-2.42,1.38-4.49-.15-11.94-.61-4.54-.27-6,.16-7.1.91-1.63,1.09-1.59,2.16-3.32,4.53a23.76,23.76,0,0,1-7.1,6.2A32.15,32.15,0,0,1,703,55.76c-6.16,1.74-7.33.38-11.63,2.26-3.71,1.63-3.13,2.76-7.26,4.84-2.69,1.35-7.39,3.72-12.08,2.42-4.16-1.16-4-4-8.47-4.84-3.21-.61-7.23.1-8.16,2.12-.34.75-.1,1.34-.75,2.72a5.67,5.67,0,0,1-1.81,2.41c-1.58,1.07-2.59-.11-5.75.61-1.16.26-1.1.44-3.32,1.06s-2.49.5-3,.75c-2.13,1-1.62,4.67-2.27,8.16-.92,5-4.36,11-8.46,11.64-2.78.42-5.28-1.74-8.16-4.23-4.25-3.69-4-5.92-8.31-9.22-2.49-1.92-4.41-3.39-6.95-3.33-5,.13-6.53,6-10,5.44-3.78-.56-4.17-8-7.55-8.16-2.52-.14-3.08,3.91-7.71,5.9a12.56,12.56,0,0,1-8.31.45c-6.21-1.91-5-8.1-11-11.79-4.47-2.74-5.76.32-19.49-2.26-5.3-1-8-1.5-10-2.87-2.23-1.52-4.21-3.77-6.35-3.18A3.45,3.45,0,0,0,524.37,58c-1.91,2.69-.12,7.82,2.41,11s4.55,2.69,10.73,6.35a44.85,44.85,0,0,1,12.54,10.43c2.65,3.27,1.9,3.48,7,10.57,2.59,3.64,3.25,4.24,3.77,6,.92,3.2.18,6-1.36,11.48-1.92,6.86-3,6.92-2.72,9.37.44,4.25,3.63,4.41,6.8,10.28,2.89,5.33,3.33,10.89,3.63,14.65.56,7.06-.89,9.07.91,11,2.06,2.26,5.49,1.27,14.05.46,1.82-.18,21.73-2,22.51,1.05.25,1-1.75,1.35-2.41,3.78-.92,3.34,2.16,5.21,1.36,8.46-.69,2.78-3.62,4.23-3.93,4.39-3.28,1.57-5.2-.67-8.92.9a32.33,32.33,0,0,0-4.23,3.18c-4.91,3.94-4.44,4-5.59,4.53-2.23,1-2.89.26-9.37,1.06-4.21.51-4.78.93-5.14,1.36-1.55,1.85.47,4.4.46,8.61,0,4.57-2.4,8-4.69,11.18-1.14,1.62-4.75,6.6-10.73,8.76-1.74.64-3.69,1.32-5.44.46s-1.92-2.33-3.62-2.72a4.73,4.73,0,0,0-3.33.75c-3.35,1.83-3.29,4.38-6.49,8-.54.61-5.1,5.79-8.16,4.69-1.46-.53-1.79-2.2-3.33-2.27-1-.05-1.76.68-2.87,1.66a79.81,79.81,0,0,1-7.1,5.29,19.73,19.73,0,0,1-5,2.87c-3.28,1.09-4.4.05-5.74,1.21-2.11,1.82,0,5-2.27,7.71-1.51,1.85-2.8.84-5,3-.89.89-.88,1.26-3.33,5.89-1.94,3.68-2.28,4.08-2.56,4.38-.68.72-3.2,3.4-6.5,2.87-1.81-.28-4.25-1.59-4.38-3.32-.21-2.56,4.87-3.41,5.28-7.1a6,6,0,0,0-1.66-4.38,7.64,7.64,0,0,0-5.14-2.27c-1.24-.14-2.94-.12-8.31,2a80.74,80.74,0,0,0-8.91,4.08,66.64,66.64,0,0,0-7.25,4.39c-3.42,2.39-3.2,2.75-4.39,3.32-5.21,2.52-14-2.27-19.34-8-5.66-6.13-3.91-9.66-9.21-12.69-3.32-1.9-6.35-1.85-9.52-5.14a5.79,5.79,0,0,0-3.18-2.11c-1.55-.27-2.48.53-5,1.51-3.18,1.24-4.93,1.92-6.2,1.36-1.43-.64-1.9-2.7-2.27-10.58-.22-4.85-.32-10-.45-13.9-.28-8.57-.66-9.89-1.66-11.18-2.64-3.41-5.79-1.65-8.61-4.69-4.66-5,.54-13.42-3.48-16.47-2.49-1.89-6.74-.33-10.12.91-3.17,1.16-5.49,3-10.13,6.65-4.84,3.82-7.26,5.73-8.76,8s-2.08,4.07-3.78,4.38c-.52.09-1.56.12-5.29-2.87-4.22-3.39-4.61-4.81-7.1-5.59a6.69,6.69,0,0,0-5.44.3c-2.14,1.27-3.47,4.16-2.72,6,.57,1.42,2,1.41,3.78,3.93.77,1.09,1.16,1.63,1.06,2.12-.51,2.43-12.51,1.88-14.06,1.81-13.84-.62-27.7,1-41.55.6-8.79-.22-22-.5-38.53-.6a2.12,2.12,0,0,0-1.66,0c-2.43,1.28,1.17,8.64,1.2,18.43,0,10.2-3.81,17.18-.75,19.19a3.12,3.12,0,0,0,1.66.46c16.7.6,27.52,1.78,32.49.15a1.92,1.92,0,0,1,1.66,0c1.15.85-.68,3.74.76,6,.58.93,1,.7,1.81,1.67,1.32,1.62,1.08,3.53,1.06,6.19-.05,6.62,1.37,7.43.15,9.07-1.77,2.37-5.81,2.06-7.1,2a12.34,12.34,0,0,1-7.41-3.32c-2.5-2.46-2.41-4.74-3.77-4.84-1.72-.12-1.92,3.47-5.44,5.89-2.07,1.42-2.89.81-7.71,2.42s-3.73,2.1-6.8,2.87c-3.86,1-8.23.86-12.24.76-1.51,0-1.5-.08-1.66,0-5.28,2.55,3.45,34.93,1.36,39.59-.08.17-.55,1.16-.15,1.66.62.79,2.71-.43,3.32.3s-1,2-.75,3.78c.17,1.21,1.22,2.07,3.32,3.78a25.11,25.11,0,0,0,4.23,2.87,45.39,45.39,0,0,0,5.44,2.27c4.14,1.71,6.21,2.56,7.56,4.38,1.22,1.64.85,2.71,1.36,8.16.59,6.47.89,9.7,2.11,11.63,2.62,4.14,6.28,3.39,7.86,7.56.78,2.07-.05,2.43.45,6.19.69,5.13,2.35,5.21,3,9.52a21.23,21.23,0,0,1-2.11,12.39c-.91,1.85-1.24,1.82-2.12,3.48-2.26,4.3-1.9,8-2,13.14a113.51,113.51,0,0,1-2.72,22.82c-.2.95-.59,2.55-1.36,5.74-2.44,10.1-3.1,11.77-3.93,16-.94,4.82-.39,4.17-1.51,12.09-.88,6.23-1.81,10.77-3.17,17.38-1.63,7.88-1.82,7.83-3.93,17.67-.82,3.83-2,9.33-3.33,16.47-1.44,7.76-2.17,11.63-2.72,15.72-1.29,9.59-.87,11.76-2.87,16.62s-4.56,7.75-7,9.52c-2,1.52-4.95,3.66-7.25,2.72-3.06-1.25-1.8-6.57-6.5-10.43a12.48,12.48,0,0,0-3.47-2c-3.49-1.41-6-.91-12.85-.15-9.58,1.07-11.27.84-13.3,2.72s-1.25,2.93-3,5.44c-5.2,7.37-18.21,7.28-22.51,7.25-5.57,0-5.77-1-10.73-.6-3.19.27-6.5,1.24-13,3.17-6.1,1.82-9.21,2.76-12.24,4.38a48.92,48.92,0,0,0-7.55,5.29c-9.91,7.53-12.93,5.13-22.36,11.94C79,584,79.89,586.09,73.17,589.61c-3.78,2-6.19,2.42-9.37,5.44a24.4,24.4,0,0,0-5.89,9.06,29.68,29.68,0,0,0-1.66,9.52c-.13,3.55.41,3.83,0,6.2-.16.91-.56,2.74-3.78,8.16a64.29,64.29,0,0,1-5.29,8c-4.34,5.44-5.68,4.87-7.25,8.16A17.39,17.39,0,0,0,39,655.34a31,31,0,0,0,4.53,9.37c1.05,1.43,1.42,1.66,1.67,2.56,1,3.61-2.69,7.87-5.59,10.13-1.72,1.33-2.13,1.16-9.22,4.23-7.26,3.15-8.61,4.1-9.37,4.68-3.25,2.51-2.34,3.76-6,7.41-4.14,4.06-5.79,3.3-7.11,6-1.94,4-.08,9.23.46,10.73.64,1.79,1.26,2.6,2.26,5.59s1.5,4.34,1.36,5c-.8,3.76-7.59,3-10.73,8.46A8.14,8.14,0,0,0,0,734.37c.36,3.41,3.27,4.58,6.64,8.15,4.28,4.54,6.08,9.51,7.56,13.6,2,5.46.77,5.49,2.87,10.73a39.28,39.28,0,0,0,6.65,11.49c2.58,3,3.78,3.36,5.89,6.65,2.27,3.53,1.51,4.11,3.48,6.19s4.17,2.94,5.44,5.89c.34.79.22.81.6,1.67a13.19,13.19,0,0,0,3.93,4.83c2.23,1.85,3.61,3.63,6.2,6.95,2.74,3.53,4.73,6.08,5.13,9.67s-1,6.63-2.11,8.77c-3.59,7.18-9.7,10-8.92,11.48.34.61,2.24.51,6.05.3,1.64-.09,2.38-.19,3.62-.3a43.46,43.46,0,0,1,11.79.15c1.27.23,2.42.53,4.53.76a25.63,25.63,0,0,1,3.33.3c2.44.63,2.76,2,5,2.87,1.68.68,1.88.08,5.29.45a31.92,31.92,0,0,1,7.41,1.82c3.15,1.08,4.74,1.64,5.59,2.87,1.19,1.72.32,2.93.75,5.89.75,5.12,3.82,4.74,4.69,9.82.54,3.18,1,5.82,0,8.77-.21.62-.56,1.49-.15,2.11.9,1.37,4.68.31,5.89,0,12-3.09,37.69-1.67,42.61-.3a3.69,3.69,0,0,0,2.27,0c1.9-.7,2.25-3.08,3-4.68,2.25-4.67,8.16-2.77,15.11-8,1.52-1.15,3.13-3,6.35-6.8,2.21-2.59,5-6.09,9.51-8.92,1.29-.8,2.43-1.37,3.63-1.06,2.67.7,3.44,5.2,3.48,5.44.36,2.31-.51,4.86-2.27,10,0,0-.14.41-1.66,4.68v2c0,.62.62,66.58.6,65.57l14.81,1.21A69.15,69.15,0,0,0,218.08,934c2.35-.47,3.21-.78,6.19-1.36,0,0,5.71-1.1,11.19-1.51,8.26-.62,9.72,1.67,19.94,2.27a103.48,103.48,0,0,0,20.4-.91c5.31-.87,9-2,13.45-.15,1.54.66,4.8,2,6.65,5.29,1.59,2.8,1,5,2.72,5.89,1.3.69,2.84.06,5.89-1.21,2.82-1.16,3.62-2,6.95-3.62,2.33-1.14,2.51-1,4.53-2a45.14,45.14,0,0,0,12.4-8.76A41.47,41.47,0,0,0,332,924c3.33-4.13,3.26-5.73,5.44-7.1,2.85-1.78,6.29-1.14,7.56-.91,4.95.92,6.08,4.12,8.91,3.78,2.66-.32,3.6-3.38,6.35-7.71,2.2-3.46,7.71-12.14,15.86-15.11,5.9-2.14,7.86.64,13.45-2.26,3.84-2,3.54-3.63,8.77-8,4.94-4.15,6-3.34,13.29-8.31,8.53-5.8,7.77-7.35,12.55-9.22,5.32-2.09,6.54-.27,15.41-1.66,10.27-1.61,9.34-4.15,17.07-4.69a70.57,70.57,0,0,1,19,1.21c2,.46,6.45,1.65,8.31-.45,1-1.13.84-2.77,2.27-3.63,1.16-.69,2.85-.88,3.47-.15s-.08,1.47-.3,3.63a14.55,14.55,0,0,0,.3,4.53c.42,2,1.07,2.74,2,4.84a30.82,30.82,0,0,1,1.81,6.34c1,4.74,1.85,8.48,1.06,12.09-1.71,7.79-9.62,9.08-8.92,14,.42,3,3.3,2.77,4.54,7.26.94,3.4-.41,4.66.9,8.31.79,2.19,1.37,2,2.88,5.14,1.67,3.5,2.51,5.26,2.26,7.25-.46,3.72-4,4.24-4.83,8.76-.13.68-.19,1.39.15,4.38a105,105,0,0,0,2,11.64c2.22,9.51,2.9,7.68,3.63,12.84.41,2.91.39,4.9,2,6s4.25,1.17,6.2.75c1.68-.36,2.71-1.06,3.17-.6s-.21,1.84-.6,2.87a13.27,13.27,0,0,0,.9,10.88c1.23,1.87,2.54,1.54,8.77,3.78,5.22,1.87,11.71,4.26,15.86,8.61.55.57,2,2.2,3.18,3.47,2.06,2.31,3.1,3.46,4.08,4.69,2.34,2.93,2.25,3.44,4.08,5.59a21.31,21.31,0,0,0,4.38,4.23c2.28,1.5,3.82,1.28,12.39,1.66,8.25.38,9.05.68,11.48,0,3.39-.94,3.52-2,7-2.72,2-.41,6-1.25,9.67.61,3.1,1.56,2.91,3.49,7.41,6.19a27.53,27.53,0,0,0,4.08,2,36.17,36.17,0,0,0,8.91,2.57c5.78.8,6.67-.92,9.22.45s1.9,3,5,7.4a32.67,32.67,0,0,0,9.21,8.62c3.35,2,3.5,1.16,8.77,3.77,6.26,3.11,6,4.35,10.27,5.75a35,35,0,0,0,10,1.51c4.61.15,5-.58,7.7.15.87.23,5.89,1.6,7.71,5.29a29.84,29.84,0,0,0,1.51,3,28.23,28.23,0,0,0,2,2.87c3.56,4.53,10,8.46,10,8.46,3.27,2,4.94,3,7.55,3.78,4,1.14,6.11.5,11.49.45,9-.08,8.18,1.68,14.35,1.21,7.68-.59,9.73-3.37,15.26-2,1.92.48,3,1.15,6.5,3.32,10.2,6.29,10.28,8.34,15.11,9.22,2.64.48,4.81.18,7.25,2a14.3,14.3,0,0,1,3.18,3.63,19.47,19.47,0,0,1,3.32,6.5c.53,2,1,3.57.3,5.29-.74,1.94-2.16,2.15-3.17,3.62s-1.09,3.73.76,9.52a126.25,126.25,0,0,0,6.49,16,35.32,35.32,0,0,1,2.72,7.25,39.36,39.36,0,0,1,.91,5.44c.48,4.53.78,7.36.15,10.58-.71,3.67-3.17,10.61-7.55,11.48-4,.79-6.2-.3-6.2-.3a3,3,0,0,0-1.81-.45c-1.23.16-2.5,1.38-2.42,2.41.1,1.34,2.38,1.51,4.83,3.18,3,2,2,3.44,5.44,7.4,3.13,3.62,5.2,3.92,7.56,7.86a11.12,11.12,0,0,1,1.36,3.17c.44,1.8.15,2.74-.15,5.9-.61,6.4.06,7.91.45,8.61.66,1.19,1,1,1.66,2.27,1.19,2.35.71,4.72.46,6.34-.81,5.2-.23,8.89.75,15.11a7.69,7.69,0,0,0,2.27,5,6.94,6.94,0,0,0,3.47,1.36c3.91.72,6.22,0,10.58-.15,1.33,0,2.91,0,6,.15,5.8.25,10.09.77,11.33.9,11.29,1.25,16.94-1.84,32.79-.9,9,.53,16.17,1.66,16.17,1.66,9,1.41,11.32,2.62,15.41,1.21,1.82-.63,4.11-1.82,5.89-.76,1.43.86,1.86,2.77,2.12,3.93a11.81,11.81,0,0,1-.3,5.59,22.54,22.54,0,0,1-1.82,4.84c-3,6.22-4.84,7.07-5.74,10.88a19.94,19.94,0,0,0-.3,5.14c0,1.74.18,5.49,2.11,12.69,1.31,4.88,2,7.32,2.87,8.91,2.34,4.13,5,5.44,10.13,9.67,7.54,6.28,6.36,8.51,10.12,9.83,3,1.06,6.56,1,9.22,3.32a10,10,0,0,0,2.87,2c1.93.85,2.66.36,3.48,1.06,1.29,1.12.22,3,.6,6.65.17,1.61.82,3.34,2.12,6.8,1.67,4.47,1.9,4,2.72,6.5,1.88,5.73.35,7.23,2.41,10.88,1.66,2.93,2.83,2.28,4.08,5a11.79,11.79,0,0,1-.45,10.73c-1.94,3.11-4.24,2.61-5.29,5.44s.65,4.31.76,7.86-1.56,3.5-3.63,9.82a51.12,51.12,0,0,0-2.27,11c-.37,4.12.17,3.91-.3,6.2-.88,4.26-3,6.07-5.89,10.73-2.42,3.89-1.82,4.06-4.69,9.52-6.65,12.68-11.27,14.49-10.57,20.09a14.75,14.75,0,0,0,3.93,8c2.21,2.27,3.8,2.22,6,5,.94,1.16,3.3,4.07,2.57,6.8-.41,1.51-1.52,2-4.38,4.08-5.63,4-8.45,6-9.07,8.76A7.49,7.49,0,0,0,907,1490c1.12,1.23,2,1.11,3.18,2,3.24,2.3,3.28,7.67,3.32,12.24,0,5.94-1.21,7.85.3,11.79.85,2.21,1.29,1.72,2.12,3.77,2.75,6.82-2.23,11.89.9,16.32,1.08,1.53,1.67.92,2.72,2.57,2,3.18,1.06,7.29,0,11.49-1,4-1.42,3.37-2.56,7.7-1.19,4.49-2.31,8.95-.16,11.34,1,1.1,1.75.71,2.57,2,1.67,2.54,0,6.36-.3,7.1-.92,2-1.54,1.71-2.27,3.48-1.2,2.92.28,4.28-.45,7.1-1,3.8-4.41,4.14-4.23,6.19.22,2.5,5.45,4,11.18,5.59,4.34,1.21,5.89,1.28,13.15,2.72,2.31.47,6,1.27,13.3,2.88,11.31,2.48,11.13,2.53,12.23,2.56,7,.21,11.39-2.1,13.75.46,1.44,1.55.82,3.45,2.27,4.08s3-.71,6.65-3.33c5-3.62-4.51,3.53,9.52-6.49,5.47-3.91,6.59-4.76,8.16-4.39,1.37.33,1.67,1.24,5.14,3.78,1.48,1.09,2.76,1.9,3.62,2.42a15.67,15.67,0,0,0,4.08,3.17,18.44,18.44,0,0,0,10.28,1.82c4-.32,4.29-1.42,6.5-.91,1,.23,2,.71,6.64,5.89,5.16,5.78,6.52,8.15,7.11,9.22a28.29,28.29,0,0,1,2,4.23c1.87,5.29,1.53,10.48,1.06,17.68-.14,2.1-.39,4.86.75,7.55.2.47.59,1.28,1.06,2.57a38.66,38.66,0,0,1,1.21,4.08c.93,4,.38,10.15.45,18,0,.87,0,.25.15,7.41a68.57,68.57,0,0,1,0,7.86c-.3,1.19-.78,2.43-.15,3.17a3.26,3.26,0,0,0,2.72.6c1.07-.16,1.36-.63,1.67-.45.73.44-1.12,3.09-.31,6a9.93,9.93,0,0,0,1.67,3c1.24,1.81,1.72,1.79,2.41,3,1.19,2.12.37,3.26,1.21,4.38,1.24,1.65,4.37.94,7.56.61,8.4-.89,8.19,1.74,14.5.6,3.21-.58,6.27-1.9,12.39-4.53a56.23,56.23,0,0,1,5.44-2.12c4.24-1.38,6.63-2.12,9.07-1.21.88.33.46.39,4.23,3.33,3.38,2.62,4.15,2.91,4.84,4.23,1,1.84,0,2.37.6,5.14.79,3.75,2.81,4.06,4.53,8.76a23.58,23.58,0,0,1,1.21,5.14,33.3,33.3,0,0,1,0,8.76,66.7,66.7,0,0,1-3,15.72c-1.43,4.26-2.27,5.09-4.08,10.88a53.58,53.58,0,0,0-1.81,6.64c-1.56,8.31,1,9.78-1.06,13.91-1.81,3.64-4.46,3.81-5.59,8.15-.46,1.77-.12,2.13-.76,4.39-1,3.63-2.25,4-3,6.8a10.93,10.93,0,0,0,.45,7.7c1.37,2.71,3.8,3.89,5.75,4.84,1.79.87,5.27,2.57,9.06,1.66,4.56-1.1,4.81-4.83,10.13-5.89a14.15,14.15,0,0,1,4.53-.15c2.62.36,2.55,1.18,6.35,2.11a6.31,6.31,0,0,1,3,1.21,5.27,5.27,0,0,1,1.51,2.42c1.31,4,2.47,15.64,3.47,20.55.16.76.44,2,1.36,2.42s2-.5,4.54-.46a4.5,4.5,0,0,1,1.51.15c1.57.63,2,2.91,2.72,7.56.68,4.29,1,6.43,1.06,7a48.72,48.72,0,0,1-.46,11.48c-1.5,9-4.32,8.12-4.23,13.75a47.72,47.72,0,0,0,2.72,13.45,9.92,9.92,0,0,1,.76,3.33c.1,3.47-2,6.34-3.93,8.46-8,8.64-15.74,6.5-22.36,14.5-1.8,2.17-2.71,4.11-5.6,6.2a30.61,30.61,0,0,0-6,4.84c-.92,1-.93,1.2-1.51,1.81-2.91,3.08-7.42,3.32-8.92,3.47s-6.51,3-16.32,8.77c-17.16,10-19.2,11.62-20.7,12.84a119.33,119.33,0,0,0-9.82,8.92c-5.71,6-6.84,8.88-11.33,10.42-2.52.87-4.2.66-7,2.42-1.35.87-4.14,2.65-4.69,5.59a13.31,13.31,0,0,0,.46,5.14c.45,1.64,1,2.43.6,3.17-.56,1.08-2.57,1.06-3.62,1.06-2.73,0-3.76-1.09-4.69-.45s-.19,2-.91,3.77c-1,2.38-3.54,2.58-6.34,4.39-2.08,1.33-2.61,2.47-5.74,6.8-2.6,3.57-5.47,6.93-8.16,10.42-8.32,10.78-8.93,9.67-14.51,17.38-4.9,6.77-4.54,7.78-9.67,14.35-4,5.07-3.85,4.06-8.61,10-6.18,7.67-7,10.12-12.39,15.71-.67.69-3.07,3.13-6.5,6.05-8.06,6.83-11.48,7.48-13.3,12.08-1.24,3.15-.23,4.35-2,7.26-1.88,3.14-4.57,2.38-7.1,5.74-.72.95-2.91,3.86-2,6.8.86,2.68,3.81,3.73,3.93,3.78,3.29,1.12,4.72-1.48,10.12-1.67,3.89-.13,5,1.15,6.65,0,1.52-1,1.2-2.51,3.33-5.74a19.43,19.43,0,0,1,2.87-3.47c3.69-3.18,10-1.61,11.63-1.21,4.66,1.15,7.76,3.53,20.25,15.86,7.54,7.45,5.83,6,8.76,8.77,8.3,7.8,12.61,10.52,17.38,17.53a25.86,25.86,0,0,1,3.93,7.85c1.39,4.91-1.82,8.16.3,11.79a6.1,6.1,0,0,0,3.63,3c.93.2,3.46.39,11.33-7.86,5.25-5.5,6.56-8.14,8.77-7.85,1.59.2,1.77,1.68,5,5.89,4.65,6.07,5.83,5,8.46,9.52a42.55,42.55,0,0,0,4.54,6.95,12.43,12.43,0,0,0,2.26,2.27,12.26,12.26,0,0,0,6.8,2.11c2.92.12,3-.75,4.54-.3,1.7.49,1.55,1.53,5.29,6,2.72,3.3,3.74,3.89,4.23,5.9a3.13,3.13,0,0,0,.75,1.81c1,.89,2.17.29,4.84.45,1.78.11,1.77.41,4.38.76,1.12.15,2.09.22,2.84.26s1.43,0,1.54,0c2.86.06,7.59,8.14,12.84,13.3C1121.34,2217.53,1120.82,2216.55,1124.7,2219.87Z"/><path d="M1456.53,1937.91a4.41,4.41,0,0,1,4.83-1.36c.57.25,1.73,1,2.42,3.93,1.86,8-2.73,18.72-5.74,18.43-1.51-.14-2.44-3-2.72-3.93-.72-2.23,0-2.71,0-7.25a34.93,34.93,0,0,1,.3-7.55A4.59,4.59,0,0,1,1456.53,1937.91Z"/><path d="M1632.72,1706.42c-.38,1.81.93,3.64,2.26,4.53,2.06,1.38,5.22,1.24,6.8-.6,2.26-2.64.21-7.51-2.11-8.16-.89-.25-1.71.14-3,.75C1635,1703.73,1633.09,1704.6,1632.72,1706.42Z"/><path d="M1394.12,297.07a61.3,61.3,0,0,1,7.26-.76c1.95-.14,2.57-.14,3,.31,1.47,1.48-.83,5.9-1.21,6.65a13.37,13.37,0,0,1-2.87,3.92c-5.14,4.47-16,2.56-17.23-1.2-.72-2.29,2.14-5.26,3.78-6.5S1390.32,297.9,1394.12,297.07Z"/><path d="M1395,282.56c-.66-1.36-3.11-1.46-4.23-1.51-2.14-.08-3.1.49-5.44,1.06a33.42,33.42,0,0,1-9.07.76,42.58,42.58,0,0,1-5.89-.46c-3.21-.48-3.14-.87-4.38-.75-3,.27-3.16,2.43-7.11,4.08-2.93,1.22-3.9.48-5.59,2a7.15,7.15,0,0,0-2.26,4.38,7.34,7.34,0,0,0,1.36,4.84,9.65,9.65,0,0,0,5,3.93c5,1.51,7.12-3.39,13.91-2.87,3.11.23,3.75,1.34,6.64.9a17.8,17.8,0,0,0,6.65-2.87,26.64,26.64,0,0,0,4.23-3.17,24.36,24.36,0,0,0,4.23-5.29C1394.71,284.93,1395.54,283.61,1395,282.56Z"/><path d="M1357.4,259.75a12.88,12.88,0,0,1,6.35,2.26,8.41,8.41,0,0,1,3,2.57c2,3.47-2.14,9.23-6.5,15.26-4.54,6.31-7.67,8.6-10.87,9.83-3.36,1.28-4.7.59-5.14.3-2.29-1.5-1.79-5.89-1.66-7,.25-2.22.91-3.09,2-5.9,1.87-5,1-5.54,2.27-8.46C1348.45,264.9,1352.51,259.73,1357.4,259.75Z"/><path d="M1324.16,300.55a11.28,11.28,0,0,0-7.4,1.36c-1,.59-3.87,2.31-4.54,5.74a7.31,7.31,0,0,0,.76,5,8,8,0,0,0,8.91,3.33c2.24-.67,3.37-2.3,5.44-5.29s3.76-5.42,2.88-7.4S1326,300.77,1324.16,300.55Z"/><path d="M1301.8,311.27c1.29-.09,2.66,1.37,3,2.72.11.42.19,1.07-.76,3.63a15.45,15.45,0,0,1-1.81,4.08c-2.13,2.56-6.61,3.18-7.4,2-.39-.58.27-1.32,2-4.38C1300,313.48,1300.3,311.38,1301.8,311.27Z"/><path d="M1290.92,331.37c4.36-.87,6.57-1.3,8.31-1.06s3.27.46,4.08,1.66c.68,1,.42,2.16-.3,5.6-1.4,6.56-1.22,6-1.36,6.49-1,3.19-2.43,6.3-6.05,11.94-4.54,7.08-6.82,10.62-10.12,13.75s-6,4.66-11.64,8c-6.44,3.81-8.78,4.26-10,3.32a2.82,2.82,0,0,1-.91-1.81c-.36-2.34,1.8-4.34,4.54-7.1,3.86-3.9,5.8-5.85,6.65-7.1,2.26-3.36,2.72-6.63,3.47-11.94,1.05-7.44-.28-9.43,2-12.24,1.5-1.89,2.84-1.92,4.83-4.84,1-1.45,1.5-2.66,3-3.62A9.38,9.38,0,0,1,1290.92,331.37Z"/><path d="M1257.07,379c-1.43-1.52-4.77,1.35-13.9,3.32a28,28,0,0,0-7,2c-3,1.39-6.07,3.66-5.73,4.47.22.51,1.74.19,4.22-.09,7.12-.8,7.49.4,12.54-.45,3.75-.64,7.41-1.26,9.22-4.24C1257.31,382.56,1258.1,380.06,1257.07,379Z"/><path d="M1711.29,438.5c-2.28-1.27-5.38.45-10.28,3.18a23,23,0,0,0-4.83,3.17c-3.8,3.47-2.78,5.73-6.35,10.73-3.12,4.37-5.27,4.53-6.65,8.61-.79,2.35-1,5.08-.45,5.29s1.13-1.09,3-3.93c2.84-4.24,4.26-6.36,5.14-6.95,3-2,4.67-.06,8.61-2.42,2-1.18,2-1.9,4.23-3,2.67-1.31,3.46-.69,5.44-1.81a8.91,8.91,0,0,0,4.39-5.74C1714,443.21,1713.47,439.73,1711.29,438.5Z"/></g></g></svg>