<svg xmlns="http://www.w3.org/2000/svg" viewBox="0 0 2368.83 1922.04"><g id="Layer_2" data-name="Layer 2"><g id="Brunei"><path d="M1775.28,767.15a10.92,10.92,0,0,0,1.8,3c1,1.08,1.57,1.25,2,2.1.61,1.39-.19,2.93-.45,3.6-1.24,3.13,1.51,7.17,3.89,11.24,5.91,10.08,3.48,9.89,8.7,17.83,3.9,6,5.73,6.76,6.89,11.1.9,3.33.47,5.29,2.4,7.94,1.17,1.61,2.77,2.87,2.85,5.1,0,1.48-.62,2.14-.15,2.69.8,1,3.1-.6,6.74-.3a11.92,11.92,0,0,1,2.85.6,11.39,11.39,0,0,1,3.3,1.8c3,2.49,1.89,9.51,1.2,13.94-.85,5.41-2.09,8.51-.75,9.45s3.25-1.31,5.84-.15a35.79,35.79,0,0,1,3,2.24c1.38,1,1.72,1.22,2.1,1.8a5.64,5.64,0,0,1,.75,3.15,8.69,8.69,0,0,1-.6,3.3c-1.38,3.72-3.6,4-3.6,5.84s2,2.37,4.65,5.1a18.29,18.29,0,0,1,4.35,6.14c1.69,4.66-1.67,6.59-1.5,15.29,0,1.17.11,2.73.15,6,0,4.35-.08,4.34,0,5.39a17.93,17.93,0,0,0,6.89,12.3c3,2.26,4,1.31,6.75,3.89,1.53,1.45,1,1.57,4.49,6.3,2.38,3.23,3.31,4.11,4.35,6.44a21.62,21.62,0,0,1,1.35,4.2c1.06,5.09-.73,7.3-1.35,13.79s.92,6.44-.15,11.54a39.53,39.53,0,0,1-3.15,8.84c-2.58,5.39-4.42,6.49-3.89,9,.46,2.21,2.45,4,4.19,5.54a22.44,22.44,0,0,0,3.3,2.4c2.64,1.7,5.25,4.86,10.34,11.09,3.88,4.75,4.62,6,5.1,6.9a29.2,29.2,0,0,1,2.85,7.64,28.28,28.28,0,0,1,.15,10.34,52.8,52.8,0,0,1-3.45,11.55c-1.49,3.67-2.16,4.38-2,6.14.35,2.93,2.88,6.59,5.85,7.2a11.25,11.25,0,0,1,4,1.19,12,12,0,0,1,1.35.9c3.34,2.69-.33,15,.75,25.64.11,1.09.35,2.93-.75,4.19-1.71,2-4.77.37-7.34,2.4-1.38,1.08-1.8,2.55-2.4,4.65-.43,1.49-1.84,6.39.6,9.44,1.25,1.58,2.76,1.68,3,3.15s-.9,2.55-1.5,3.29c-2.3,2.82-2.68,6-3.3,11.4-.58,5-1.12,8.89,1,12.29s4.19,2.06,9.14,7.19a48.31,48.31,0,0,1,5.1,6.45c.45.68,1.3,2.1,3,4.94s2.6,4.38,3.29,5.7a51.15,51.15,0,0,1,2.55,5.54c1.89,5.54-2.08,12-8.09,21.59a105.18,105.18,0,0,1-7.2,10.34c-6.65,8.4-10.54,10.61-9.89,14.09.53,2.83,3.69,4.56,7.94,6.9a34.41,34.41,0,0,0,10,4,12.51,12.51,0,0,1,4.64,1.65,16.17,16.17,0,0,1,3.3,3c1.82,2,1.72,2.37,3.15,3.9,2.63,2.81,3.71,2.27,4.2,3.74s-.39,3.44-2.1,7.5c-.68,1.59-1.12,2.44-.75,2.85.56.62,2.32-.6,4.79-1.05a13.87,13.87,0,0,1,6.75.75c3.35.88,8.08.39,17.54-.6,6.58-.69,9.87-1,13.79-2.25a64.36,64.36,0,0,1,7-2.1c4.8-1,5.49-.21,9.44-.9,1.53-.26,11.24-2,13-6.9,1.63-4.46,2-5.54,2-5.54a9.48,9.48,0,0,1,.75-1.8,5.58,5.58,0,0,1,1.2-1.65c1.13-.85,2.94.13,5,.75,4.51,1.41,5.4-.39,7.64.9,2.82,1.63,2,4.81,4.8,9.29a21.14,21.14,0,0,0,5.69,5.7c6.21,4.82,9.36,3.62,28.18,8.24,2.5.62,6,1.5,8.55-.3,2.1-1.46,2.14-3.66,3.89-4.19,1.92-.58,3.8,1.44,7,4.34,10.06,9,11.15,6.72,15.89,12.29a11,11,0,0,0,5.54,4c1.33.36,1.67.1,4.35.15,4,.08,4.38.71,9.14,1.05s4.33-.25,6.3.3c2.55.72,3.31,1.77,6.74,2.7,2,.53,3,.8,3.9.6,2.62-.57,3-3.15,6.44-6.3,1.69-1.56,2.81-2.59,4.5-3.15,5.46-1.8,9.56,3.75,13.94,1.5,1.06-.54,1.17-1,3.3-2.25a49.67,49.67,0,0,1,4.64-2.09c2.17-1,3.25-1.42,4.65-2.1,3.21-1.56,2.93-1.71,3.6-1.8,1.72-.24,2.82.8,8.24,5.1,4.21,3.33,4.6,3.54,5.4,4.64a14.56,14.56,0,0,1,2.7,7c.37,4-1.4,5-1.95,10.34-.31,3,.26,2.54.3,7.79.06,8-1.23,10.25.6,12.29,1.06,1.19,1.59.52,5.39,2.55,3,1.58,3.34,2.36,5.7,3.75a22.34,22.34,0,0,0,9.14,3.15,19.9,19.9,0,0,0,10.19-2.1c3.36-1.51,3.67-2.52,11.54-8.1,4.94-3.49,5.74-3.74,6.45-3.89,6-1.26,11.7,3.4,12.29,3.89,3.2,2.69,2.55,4.15,5.55,6,3.74,2.31,8,2,9.59,2,4.51-.28,5.82-2,10.49-1.5,3.61.35,4.33,1.49,4.5,1.8.59,1.08,0,2.06-.15,5.09a32,32,0,0,0,.15,3.75c.38,6.53-1.33,8.67-.45,13a16.51,16.51,0,0,0,3,6.45c2.89,4.13,6.12,5.36,9.89,7.79,6.66,4.29,11,9.68,19.48,20.39a46.09,46.09,0,0,0,4.65,5.39c3.78,3.64,5.51,3.8,10.64,8.25,3.28,2.83,3.17,3.29,4.5,3.74,3.93,1.34,8-1.57,12.89-4.79,14.54-9.66,12.33-6.67,17.84-11.1,6.17-5,5-5.48,19.48-21.73,6.2-7,13.72-15.11,17.69-22.93a61,61,0,0,0,3.9-10,49.2,49.2,0,0,0,1.34-6.6c.84-6.13,1.35-9.92-.59-12.59-1.7-2.33-3.48-1.33-8.55-3.6-4.74-2.12-7.62-5-13.19-10.49a96.38,96.38,0,0,1-7.64-8.54c-6.8-8.59-12.77-16.06-15.74-26.68-5.45-19.46-5.7-21.74-5.7-21.74-.13-1.22-.36-3.7-2.1-4.79-2.92-1.84-6.81,2.34-10.79.45-1.17-.56-.87-1-3.74-4a38.74,38.74,0,0,0-6.6-6c-3.25-2.09-4.55-1.16-10-2.69-6.63-1.86-6.13-3.61-14.09-6.45-6.25-2.23-7.57-1.5-10-3.75-3.55-3.21-4.38-7.9-4.65-9.44-.87-4.91.89-5.91.3-9.74-.43-2.82-1.85-5.37-10.34-13.19-6-5.54-7.69-6.46-12.74-10.94-6.46-5.73-10.06-8.93-13.94-14.09-3.4-4.53-5.77-9.47-10.49-19.34-2.8-5.84-3.35-7.61-3.6-9.74-.67-5.73,1.62-7.37,3.6-15.44,3.32-13.61-.95-18.1,3.89-25a19.21,19.21,0,0,0,3.6-7,12.52,12.52,0,0,0-.3-8.09c-.89-2-1.77-2.09-4.8-5.4-2.88-3.15-4.75-5.19-5.54-7.79-1.08-3.51.94-4.35,1.5-10,.82-8.33-2.89-12.63.15-16.79.79-1.09,1-.77,2.09-1.95,5-5.55,4.52-17.3-.3-20.08-3.43-2-7.09,1.74-10-.6-1.72-1.37-1.87-4-2.1-9.15-.32-7.34,1.07-8.28.15-12.89-1-4.85-2.72-4.83-2.69-8.69a20.48,20.48,0,0,1,2.69-9.14c1.29-2.3,2-2.57,2.85-4.8a14.92,14.92,0,0,0,.9-6.44,18.07,18.07,0,0,0-2.25-6.75c-2-4-3.35-4.62-3.14-6.59.13-1.29,1-2.33,2.69-4.35a50.56,50.56,0,0,1,4.65-4.65c2.15-2.19,2-4.62,2.55-12.29.67-9.16,1-13.79,2.4-16.49a20.89,20.89,0,0,1,7.34-8.39c2.84-1.79,5-2,9-4.95a19.65,19.65,0,0,0,4-3.59,18.85,18.85,0,0,0,3.9-9c.23-1.39-.07-.45.15-6.74.13-3.69.27-5.14-.3-7.35a15.77,15.77,0,0,0-1.5-3.74c-1.08-1.91-2-2.43-3.3-4.2a22.4,22.4,0,0,1-2.7-4.8c-2.08-5.43,7.34-10.62,11-22.18,1-3.14,2.87-9.23.44-15.29-2.28-5.71-6.17-5.77-7.79-11.54-1.15-4.08.44-5.32.6-13.49.09-4.4.17-8.48-.9-12-1.89-6.23-6.33-7.1-19.63-16.79-13.75-10-16.28-14.38-22.79-13.94-4.69.32-8.31,2.93-9.89,1.2-1.43-1.56.08-5.27,1.65-9.14a61.56,61.56,0,0,1,4.65-8.85c3-5.13,5.53-10.54,8.69-15.58a14.17,14.17,0,0,0,2.55-6.15c.3-2.51-.47-3.25-.15-5.84s1.31-3.36,2.55-6.45c.83-2.08,2.32-5.8,1.79-8.84-.23-1.36-1.12-4.12-9.89-9.15a104.27,104.27,0,0,0-18.43-8.09c-7.48-2.49-10.2-2.69-13-5.85-.52-.58-4.42-5-3.29-9.44.45-1.79,1.44-2.44,4.19-5.54,1.69-1.91.12-.31,6.15-7.8,9-11.21,8.84-10.19,9.89-12.29,2.61-5.23,1-6.07,4.2-12.14a16.49,16.49,0,0,0,2.4-6.6,11.74,11.74,0,0,0-.9-6.14c-1-2.15-2.45-3.1-6.15-5.7-9.24-6.47-7.94-5.89-9.74-6.89-6.07-3.4-7.38-2.52-10.64-5.4-1.57-1.38-4.53-4-5.4-8.09-.9-4.26,1.28-6.3-.15-10.49a12.32,12.32,0,0,0-3.3-5c-5.12-5-10.89-2.62-14.53-6.45-2.8-2.93-2.39-7.54-2.25-9.89.19-3.36,1.2-4.09,2.69-10a70.18,70.18,0,0,0,1.65-9,108.25,108.25,0,0,0,.75-13.79c0-4.16-.25-6.08.6-9.15a44.11,44.11,0,0,1,1.95-5.24c.94-2.14,1.5-3,2.4-4.8a50.19,50.19,0,0,0,3-7.34c1.11-4,.58-7.17-.3-12.44-.83-5-1.38-8.28-3.3-11.7-3.22-5.72-8.4-8.44-10.49-9.59-13.07-7.21-11.63-12.29-34-28-1.94-1.36-28.26-19.8-35.37-27a24.34,24.34,0,0,1-4.65-6.14c-1.56-3-1.16-3.88-2.69-6.9-2.27-4.44-3.62-3.49-5.25-7.19-1.76-4-1-6.92-3-9.14a10.09,10.09,0,0,1-1.8-2.7,3.5,3.5,0,0,1-.6-2.1,3.6,3.6,0,0,1,1.5-2.1,26.41,26.41,0,0,1,2.4-1.5c.91-.73,1.21-1.68,1.8-3.6.69-2.24,1.28-4.14.45-6.14a5.35,5.35,0,0,0-1.2-1.8c-2.42-2.31-7.09-1.32-10.94-.45-5.06,1.14-6.8,2.51-9.6,1.5A11.57,11.57,0,0,1,2018,329c-2.76-2-2.88-3.49-4.5-4.65-2-1.38-3.62-.56-8.24-.45a50.33,50.33,0,0,1-11-1.12c-6.86-1.22-7.51-2.51-11.47-2.25-2.48.17-6.09.4-8.54,2.92-3,3.14-1.2,6.61-4.72,13.72-1.32,2.65-2,4-3.37,4.72-4.53,2.4-9.62-3.72-12.82-1.8-2.86,1.72-.64,7.72-1.8,17.54-1,8.59-1.24,12-3.15,12.59a2.8,2.8,0,0,1-2.69-.67c-1.29-1.29-.23-3.46.22-7,.41-3.18-.4-7-2-14.62-.46-2.15-.72-3.07-1.58-3.6-1.8-1.11-4,1-8.32,1.13a13.21,13.21,0,0,1-4.94-.68c-4.65-1.64-4.82-5.25-9.44-6.74-.69-.22-3.55-1.15-4.5,0-1.25,1.5,2.53,4.46,2.25,9.22-.15,2.38-1.18,3-3.6,8.09-2.71,5.64-1.7,6.21-3.15,7.65-3.06,3-9.16,3.56-13.26,2a19.56,19.56,0,0,0-5-1.58,14.09,14.09,0,0,0-4.72,0c-3.58.95-3.9,5.69-7.19,12.37-4.44,9-9.23,11.26-7.87,14.61.91,2.26,4,3.53,6.07,3.83,2.7.38,3.34-1,5.62-.68,3.2.39,4,3.29,8.32,7.42a41.46,41.46,0,0,0,8.76,6.3c6.91,4,8.1,2.43,11.47,5.17,2.94,2.39,4.47,6.87,7.42,15.74.89,2.68,4.29,12.9,3.37,13.26-.64.26-3.18-4.69-5.17-8.54-3.69-7.16-4-9.13-7-13.72s-4.71-7.14-7.64-7.64c-2.18-.37-3.41.65-7.2,0-2.15-.37-3.36-.58-4.49-1.58-1.79-1.57-1.45-3.39-3.6-5.17a9.55,9.55,0,0,0-2.47-1.35,72.72,72.72,0,0,0-8.1-2.92c-6.9-2-8.08-2-8.77-3.37-.5-1-.06-1.36-.22-4.72-.19-4-.83-4-.68-5.62.45-4.6,5.56-5.2,6.07-9.9.19-1.68-.21-4-1.57-4.72s-2.64.58-5.84,1.13c-2.4.41-3-.08-5.4,0-6.48.2-11.86,3.91-13,4.72a29.78,29.78,0,0,1-4.72,3.15c-2.53,1.22-4,1.26-4,2-.14,1,2.24,1.74,6.52,4.72,3.51,2.45,3.75,3.23,3.82,3.6s.18,1.57-3.59,6.74c-2.32,3.18-2.51,3-2.93,4-.5,1.27-.67,2.66.45,8.54,1,5,1.46,7.53,2.48,7.87,2.4.81,5.27-4.76,8.09-3.82.29.1.93.38,2,2.47.9,1.72,4,7.71,1.8,10.57-1.28,1.65-3.24.86-9.44,1.35-8.71.68-9.15,2.57-13.27,1.8-2.76-.52-5.59-2.74-11.24-7.2-3.76-3-8.08-5.18-11.69-8.31-.6-.52-2-1.78-2.92-1.35-.49.23-1,1-.68,4.72.41,4.84,1.54,6.86,2,10.12.39,2.61-.14,2.66-.45,8.31-.29,5.13-.55,10.63.9,17.09a40.79,40.79,0,0,0,2.92,8.55c1.34,2.84,2,4.3,3.6,5.84,2.36,2.33,3.62,1.78,6.74,4.5,2.22,1.93,1.62,2.24,4,4.27.69.58,1,.74,5.39,3.82,2.7,1.88,2.64,1.84,2.93,2,3.52,2.23,5.29,3.34,6.74,3.15,3-.4,2.64-5.09,8.32-10.11,2.64-2.34,4.53-2.93,6.15-2.78a7,7,0,0,1,3,1.2c7.28,4.13,7.72,3.66,11.55,6.45a40.07,40.07,0,0,1,3.74,3c1.8,1.64,3.33,3.38,8.25,10.65,3.46,5.12,5.19,7.67,5.69,8.69a30,30,0,0,0,4.35,7c1.46,1.71,2.21,2.58,3.45,2.85,2.53.57,3.82-2.14,7.49-2.4,2.27-.15,3.29.43,5.7.9,5.76,1.14,6.72-.87,11.69-.3,5.87.68,12.62,4.42,14.54,9a31.83,31.83,0,0,0,1.95,3.89c2.18,3.78,3.26,4,3.59,4.05,1,.13,1.74-.6,3.3-2,2.76-2.38,5.71-4.92,8.84-6.14a9.94,9.94,0,0,1,5.25-.9c4,.61,5,4.33,9.44,9.29,6.41,7.12,13.32,9.43,12.59,11.24-.33.83-2,.89-2.39.9-1.32.05-2.67-.48-6-3.45-3.86-3.42-3.18-3.71-5.1-4.79-1.76-1-3.07-1.17-5.09-2.85-1-.87-1-1.1-1.65-1.35-1.41-.58-2.94,0-6.6,1.95-4.61,2.44-4,2.47-4.94,2.7-3.06.74-5.94-.5-9.3-2a14.31,14.31,0,0,1-3.89-2.1c-2.94-2.47-2.38-4.81-5-6.29-1.53-.88-1.82-.11-5-1.2a33.15,33.15,0,0,1-4.64-2.25,43.65,43.65,0,0,0-6.15-2.7c-1.77-.58-6.56-2.15-11.24-.75a15.37,15.37,0,0,0-3.15,1.35c-2,1.17-1.92,1.87-3.29,2.55a6.64,6.64,0,0,1-6.3-.3c-.67-.44-1-.91-2.4-3.15-2.07-3.41-3.3-5.7-3.3-5.7-2.15-4-3.22-6-4-7.19-2.28-3.27-2.79-2.6-4.8-5.4-3.33-4.64-2.19-6.88-5.84-11.24a14.06,14.06,0,0,0-3.75-3.3c-1.33-.75-2.91-1.11-6-1.79-4.32-1-5-.75-5.39-.6-1.08.41-1.93,1.58-3.6,3.89-2.31,3.21-1.95,3.44-3,4.35-2,1.76-4.62,1.94-6.89,2.1a20.3,20.3,0,0,1-6.3-.6,24.5,24.5,0,0,1-11.09-5.85c-3.57-3.37-4.41-6.44-8.24-9.14-1.57-1.1-2.85-2-2.85-2-2.43-1.6-2.91-1.76-4.35-2.85a28.35,28.35,0,0,1-2.85-2.39c-1.63-1.6-1.76-2.16-2.39-2.25-1.55-.22-3.08,2.78-4.35,4.94,0,0-.47.8-7.5,9.75-5.42,6.91-10.09,5-23.08,13.79-6.16,4.17-9.27,6.34-10.79,10.19-1.76,4.45.08,6.45.3,16.34.19,8.44.36,15.88-3.75,18.43-2.83,1.76-5.36-.25-9.59,2.4-1.2.75-3.78,2.37-4.2,5.25-.37,2.59,2.06,3.15,3.45,6.89,1.66,4.46-.79,6,.6,12a22,22,0,0,0,3,6.9c.6.92,4.88,7.43,8.09,6.59,2.83-.74,2.23-6.48,5-7,2.11-.44,3.11,2.9,8.24,5.39,3.56,1.73,5.42,1.27,5.7,2.4.4,1.63-3.19,3.59-11.24,10.34-3,2.51-3.71,3.26-3.6,4.2.41,3.39,11,3.56,11.69,7.8a3.9,3.9,0,0,1-.75,2.69c-1.37,2.28-3.8,2.17-8.54,4.8-2.93,1.62-3.11,2.27-3.15,2.55-.25,1.59,2,2.62,5.54,6.29,2,2.14,4.77,5.43,4.2,6.15s-2.62-1.24-6.59-1.2a9.56,9.56,0,0,0-3.45.6,9.1,9.1,0,0,0-3.3,2.25c-.4.43-3.43,3.78-2.4,7.79a7.82,7.82,0,0,0,2.7,4c1.92,1.53,3.07,1,6.9,2.55,2,.86,4.44,1.86,4.49,3.29,0,.84-.74,1.56-1.65,2.4-1.64,1.53-2.73,1.46-3.14,2.4-.55,1.25.74,2.89,1.35,3.75,3.87,5.42,1.26,8.14,5.39,15a54.89,54.89,0,0,0,4.8,6.44c2.83,3.4,4.18,4.39,4,6.15-.18,2.35-2.79,3-2.69,5.54,0,1.08.55,1.86,1.5,3.3,1.76,2.69,3.14,2.84,3.44,4.5a4,4,0,0,1-1.2,3.59c-1.91,1.64-4.41-.52-6.89.9-1.71,1-2.22,3-2.85,5.4-.48,1.89-1.46,5.65.45,8.39,1.28,1.84,2.62,1.45,3.3,3.15.9,2.27-1.18,3.74-.3,5.85a4.91,4.91,0,0,0,5,2.69c2.32-.41,2.62-3.13,4.94-3.29a4.49,4.49,0,0,1,3.15,1.35,6.48,6.48,0,0,1,2,5.84c-.52,2.79-2.92,3.42-5.85,6.3-1.41,1.38-3.06,4.64-6.29,11.09-4.78,9.52-5,11.26-5,12.59A23,23,0,0,0,1775.28,767.15Z"/><path d="M1772.13,416.27c-1.25.42-1.23,2.49-2.25,8.69-1.41,8.57-2,8-1.8,10.34.55,5.84,4.06,6.33,4.35,11.84.27,5.1-2.59,7.36-1,9.45,1.23,1.65,3.3.59,9,1.49,2.34.38,5.45,1.35,11.69,3.3a64.81,64.81,0,0,0,7.94,1.5c1.68.25,2.83.39,3.15-.15.5-.86-1.77-2.37-3-5.55a13.41,13.41,0,0,1-.75-4.94c-.17-6.15-.45-12.29-.6-18.44-.09-3.78-.17-5-1.2-6-1.89-1.79-4.48.79-8.84,0-2.94-.53-5.31-2.56-10-6.6C1774.49,417.59,1773.4,415.84,1772.13,416.27Z"/><path d="M1836.43,386.44a13.28,13.28,0,0,0-5.84.3c-1.53.49-3.82,1.22-4.8,3.44a5.61,5.61,0,0,0,1,6c.41.41.89.71,3,1.35,4,1.2,5.93,1.8,8.24,1.5a12.35,12.35,0,0,0,5-1.8c1.49-.9,2.76-1.67,3.15-3.15a4.89,4.89,0,0,0-.9-3.75c-1.14-1.71-2.87-2.34-4.65-3A15.88,15.88,0,0,0,1836.43,386.44Z"/><path d="M1821.14,395c-3.74-.53-7.9,1.51-10.34,4.8-.52.7-2.85,4-2,7.94.17.73.68,2.47,3.3,5.1a27.92,27.92,0,0,0,8.69,5.69c9,4.25,8.1,6.72,13.64,8.7,9.73,3.46,20.2-1.37,20.09-2.85s-8.84,0-11.84-4.95c-.44-.73-.52-1.2-1-6.89-.81-8.74-.84-9.87-2-10.79-2.18-1.82-4.23.73-8.39-1.2-2.43-1.13-2.77-2.48-6.45-4.2A12.54,12.54,0,0,0,1821.14,395Z"/><path d="M1971.33,252.59c4.31,1,6.27,9.36,6.6,14.39.24,3.86-.5,5.23.3,9.74.6,3.37,1.62,6,1.35,6.15s-1.18-4-4.5-7.2c-3.13-3-5.14-2-9.44-4.95-1.92-1.3-7.33-5-6.9-9.29.41-4.11,5.93-6.65,8.1-7.64S1970.06,252.3,1971.33,252.59Z"/><path d="M1949.15,259.63c-7-3.36-12.12.82-26.53,3-9.49,1.44-9.55,0-14.24,1.8s-5,3.39-15.29,11.09c-8.07,6.06-9.84,6.62-10.34,9.29-.84,4.49,2.69,10.56,7.34,13,2.63,1.4,4.5,1.07,5.25,2.7,1.21,2.62-3,4.89-2.7,9.44.22,3.56,3.06,6.67,5.85,7.95,1.18.54,2,.58,5.09.75,12.87.7,15.08.93,16.19,1.05,4.93.54,4.57.88,6.45.75,2.75-.2,4.38-1,11.24-4.2,7.61-3.55,5.28-2.42,8.69-4.05,6.41-3.06,9.61-4.59,9.89-4.79,7.22-5.25,4.37-10.49,11.54-15.44,2.54-1.75,5.37-2.81,6.9-6.15a7.88,7.88,0,0,0,.75-4.79c-.59-2.83-3-3.74-7.65-7.05-6.1-4.32-5.59-5.3-14.08-11.39C1950.93,260.79,1949.65,259.87,1949.15,259.63Z"/><path d="M1919.47,322.14a5.86,5.86,0,0,0-2.55,3.29c-1.16,4.92,6.83,10.82,12.74,13a13.76,13.76,0,0,0,5.1,1,16,16,0,0,0,8.09-2.55c2-1.22,2.25-1.94,4.2-2.69a8.63,8.63,0,0,1,4.5-.75c2.26.34,2.63,1.71,6.29,4,2.75,1.76,4.13,2.63,5.55,2.25.82-.22,1.55-.83,3.9-6.29,2.13-5,3.2-7.48,3.59-10,.46-3,0-3.82.9-6.29,1-2.7,2-3,2.1-4.95a7.2,7.2,0,0,0-3.15-6.29,8.15,8.15,0,0,0-6-.9c-5.3.85-6.26,4.45-12.59,7.94-2.94,1.62-2.16.54-9.45,3.45-9.49,3.8-9.25,5-12.89,5.25C1925.16,322,1922.49,320.11,1919.47,322.14Z"/><path d="M1978.53,286.76c-1.5.5-1.52,1.68-3.3,3.75-2.87,3.34-5,2.77-6,5.25a5.5,5.5,0,0,0,.75,5.54c1.61,1.74,4.41,1.39,7,1.05a9.7,9.7,0,0,0,4.49-1.35,8.9,8.9,0,0,0,3.75-5.54c.09-.43.94-5-2.1-7.5C1983,287.84,1980.74,286,1978.53,286.76Z"/><path d="M1989.47,297.4c1.58-.19,2.89,2,5.84,6.45,3.9,5.92,5.88,8.91,7.35,10.34,3.16,3.08,5.72,4,5.39,5.1-.42,1.43-5.14,1.24-6.29,1.2a28.6,28.6,0,0,1-7.2-1.35c-9.09-2.42-14.77,1.19-16.48-1.65-.64-1.05-.28-2.35.45-4.95s1.86-4.21,4.19-7.64a71.11,71.11,0,0,1,4.5-5.55C1988.51,297.85,1988.88,297.48,1989.47,297.4Z"/><path d="M1892.64,5.57c8.8-3.07,11.72-1.43,22.48-3.14,6.83-1.09,12.16-2.78,19.34-1.35.84.16,3.62.72,3.6,1.35s-4.25,1.12-8.25,1.64c-4.52.59-10.31,1.9-21.88,4.5-4.74,1.07-9.15,2.14-15.29,1.95-1.66,0-6.26-.2-6.44-1.35S1891.24,6.06,1892.64,5.57Z"/><path d="M1840.63,45c-2.27.94-2.27,10.27,2.25,16.79,2.82,4.06,4.54,2.92,8.54,8.09,2.74,3.54,2.43,4.71,6.45,10.8,2.64,4,4,6,5.84,7.34,2.73,1.93,4.92,2,11.69,3.15,8.84,1.48,6.87,1.62,13.19,2.55,9.06,1.32,13.59,2,18.59,1.5,9.21-.91,15.21-4.36,19.64-1,.84.63,2.18,1.91,3.29,1.5,1.48-.56,1.59-3.71,1.65-5.4s-.13-3.18-1-7.64c-.77-3.77-1.16-5.66-1.35-6.15-1.3-3.38-2.6-3.75-4.64-7.79-1.75-3.47-1.15-3.91-2.1-5.25-3.06-4.31-11.77-3.28-22-2-6.47.84-12.55,2.17-19.63,1.8a26,26,0,0,1-6.75-1.2,28.69,28.69,0,0,1-7.34-3.75c-9.6-6-13.12-3.45-20.83-9.44C1842.68,46.29,1841.72,44.54,1840.63,45Z"/><path d="M1811.7,117.84c1.28-1.22,4.31-.79,5.85.9,2.08,2.28.58,5.91.3,6.59-1.22,2.94-4.27,5.47-5.7,4.8-.56-.26-.57-.87-.9-7.64C1811.1,119.26,1811.06,118.45,1811.7,117.84Z"/><path d="M1826.69,105.1c2.29-4.87-5.15-9.95-6.59-19.34-.6-3.84.6-3.33,1-10.79.85-14.21-3.37-18.41-.75-25.93,1.57-4.5,4.44-6.92,9.75-11.39,6-5.06,13-8.42,27-15.14,0,0,2.8-1.35,9.74-6.89,1.75-1.4,3.14-2.61,2.85-3.45s-2.66-.94-5.55-.9a56,56,0,0,0-9,.9c-3.51.58-5.27.88-8,1.35-10.65,1.87-19.57-.29-25.18-1.65-6.2-1.51-7.63-2.74-8.39-4-1.27-2.2-.89-5.06-3.3-6.74a5.86,5.86,0,0,0-2.1-.9,8.66,8.66,0,0,0-5.69.9c-4.49,2.1-6.88.67-18.29,3.89-5.48,1.55-5.46,2-13.49,4.8-7.67,2.64-12.25,3.77-17.38,5.25a297.31,297.31,0,0,0-32.53,11.69c-14.43,5.9-15.65,7.46-27.58,11.69-8.68,3.07-9.94,2.92-19,5.84C1666,46.88,1662.7,48.4,1635,60.13c-23,9.74-28.26,11.89-31.47,13.19-16.16,6.56-15.18,5.8-26.23,10.34-19.25,7.91-21.27,9.82-52,23.24-20.6,9-18.66,7.68-20.84,9-8.58,5.18-16.09,11.88-21.88,9.29-2.07-.92-3.39-2.78-5.7-2.39-1.62.27-2.25,1.4-5.54,4.94-5,5.37-6,5.43-6.45,5.4-3-.2-4.26-6.16-5.84-5.85-1.79.36-.41,8-3.6,9.44-1.29.59-2.86,0-5.85-1.19-3.69-1.45-3.83-2.51-5.24-2.4-3.69.27-4.7,7.56-7.65,7.49-2.09-.05-2.42-3.72-4.79-4.05s-4.57,3.38-8,7.65c-.28.35-3.58,3.68-10.19,10.34a188.68,188.68,0,0,1-18.14,16.19c-6.81,5.22-10.56,7-17.23,11.09-3.75,2.32-8.29,5.31-29.53,22.33-23.54,18.87-24.59,20.51-37.32,30.28-8.08,6.2-11.61,8.57-28,20.24-36,25.59-37,26.9-51.56,37-19.84,13.76-23.31,15-61,38.82-40.29,25.5-60.43,38.26-72.69,47.66-23.68,18.16-21.15,19.92-67.6,61.91-20.74,18.74-18,15.43-69.1,60.1-44.8,39.14-43.88,39-61.91,54.11-16.14,13.52-40.23,33.62-73.44,57.86-15.25,11.13-35.74,26-64.15,43.77-17.33,10.81-44.2,27.49-79.59,44.36-17.34,8.27-29.8,13.28-76.15,30.73C534.11,758.2,498,771.79,472.6,780.19c-7.32,2.43-43.15,13.06-114.81,34.33-16.46,4.88-33,9.73-55.61,14.09-25,4.81-47.36,7.34-47.36,7.34-8.14.92-21.23,2.22-40.77,4.95-5.9.82-10.49-.38-11.39,1.65-.54,1.19.46,2.72,1.5,4.19,3.71,5.28,5.57,7.92,10.34,12,5.74,4.91,9.09,9.62,13.34,15.59,5.77,8.12,8.66,12.17,10,17.09a18.06,18.06,0,0,0,3.45,7.49,20.9,20.9,0,0,0,6.89,5.1,28.83,28.83,0,0,0,5.4,2,42.53,42.53,0,0,0,12,1.8c4.44,0,3.23-.86,16.34-3.6,3.61-.75,5.42-1,7.19-2.7,2.18-2,2.76-4.67,3.45-7.79.62-2.82,1.36-6.18.15-9.89-1.12-3.44-2.68-3.42-3.6-6.9-.33-1.27-1.3-5,.45-7.64,1.14-1.76,2.68-1.93,11.09-3.9s9.15-2.33,10.94-1.8c3.37,1,3.08,3,8.1,6.75,2.28,1.69,2.58,1.45,11.24,5.84,5.75,2.92,8.63,4.38,9.89,5.4,2.33,1.87,2.44,2.63,8.7,10.79,1.64,2.14,3.44,4.42,7,9,5.22,6.62,6.46,8.06,8.25,11.09,1.06,1.82,5,8.42,3.59,9.6-.9.78-3.86-1.09-5.54-2.4-6.39-5-5.5-10.6-10.95-18.59-1.77-2.6-4.33-5-9.44-9.74-3.36-3.13-3-2.49-13.79-11.39-5-4.17-6.67-5.6-9.89-7.35a28.39,28.39,0,0,0-9.74-3.44c-2.79-.41-5.61-.81-8.7.6a11.27,11.27,0,0,0-5.39,4.94c-2.42,4.92,1.89,8.14,1.95,16.79,0,2.38.06,9.07-4.35,13.64-2.09,2.16-4.33,3-8.69,4.5a61,61,0,0,1-14.54,3.14c-14.46,1.32-21.7,2-26.53-1.65-5.43-4.06-2-7.7-8.7-19.18-2.33-4-7.2-9.39-16.93-20.24-3.56-4-5.17-5.63-9-10-9-10.35-10.41-13-11.24-14.69a48.31,48.31,0,0,0-3.9-7.49c-2-2.95-4.55-6.72-7.64-6.6-1,0-1,.45-4.2,1.5-2,.68-3.48,1-4.34,1.2-4.3,1-7,2.72-10.2,3.9-2.59,1-3.66.92-13.79,1.8-11,.95-9,.93-14.54,1.35-14.79,1.1-30.07,1.29-36.27,1.35-23.93.19-24.78-.83-42-.15-7.44.29-10.9.62-18.58.59-11.65,0-13.16-.85-20.09,0-7.47.92-8.67,2.23-13.34,1.5-2.4-.37-6-1.31-7.19.3a6.5,6.5,0,0,0-.75,3,6.35,6.35,0,0,0,0,2.85c.27.75,1.12,2,5.09,2.85a28,28,0,0,0,8.7.3c3.88-.28,4.8.59,13.19,2.39,0,0,8.14,1.75,17.68,2.85,8,.92,7.79.31,17.84,1.35,9.43,1,9,1.46,14.39,1.65,6.19.22,8.38-.36,14.24.45,3.82.53,3.21.82,8.54,1.65,3.92.61,4.92.56,12.59,1.5,3.06.37,2.73.36,7,.9,6.31.78,9.46,1.18,10.19,1.2,8,.22,9-2.26,13.79-.75,2.55.79,3.15,1.75,6.9,2.69,3.44.87,4.5.45,5.39,1.5,1.45,1.7-.44,3.82-.6,9.75-.08,3,.41,2.7.45,7.19s-.43,5.17.15,6.9c.95,2.79,3.29,4.08,5.7,5.69,3.15,2.12,5.85,4.71,11.24,9.89,6.35,6.11,4.57,6.91,11.54,13.94,4.36,4.4,5.91,4.94,9.89,9.6,3.66,4.26,3,4.54,6.3,8.54,7.76,9.38,12.22,8.81,13.79,14.69.86,3.22.21,6,2.4,9a32.61,32.61,0,0,0,3.74,4,9.32,9.32,0,0,0,2.25,1.8c2.2.88,4.28-.95,7.8-2.7,2.75-1.38,5.73-2.12,11.69-3.6,4.1-1,6.15-1.53,7.79-1.35,4.07.46,6,3,10.34,6.75,6.43,5.57,5.64,3,20.09,13.19,5.46,3.86,6.63,5,9.44,5.39,6.17.91,12.13-2.81,13.34-3.59,4.25-2.77,4.6-5,8.4-6a13.36,13.36,0,0,1,7.79.6c4.72,1.69,7.32,5.24,9,7.35,9.61,12.07,14.7,9.22,21.59,20.08.2.33,0,0,6.29,13.94,6.38,14.12,7.06,15.48,8.4,17.69,3.7,6.09,4.34,5.27,10.19,14.39a56.63,56.63,0,0,1,6.59,13,28.4,28.4,0,0,1,1.8,6.89c.67,6.82-2.21,10.06-.3,15a12.73,12.73,0,0,0,2.85,4.2c11.94,12.94,17.91,19.41,21.13,23.68,8.25,10.92,4.22,13.88,12.74,25.78a64.18,64.18,0,0,1,8.4,15c.82,2.1,1.4,4,1.95,5.69,3,9.54,2.2,11,4.64,15.89,1,2,1.58,2.62,3.9,7.05,2.08,4,2.37,4.9,2.55,5.84.61,3.16-.44,4.22,0,7.35.49,3.54,2.79,4,2.4,6-.47,2.36-3.36,2.12-4.95,5.1-1.31,2.46.17,3.51-.6,7.19-.84,4-2.92,4.3-4.65,8.7-1.56,4-.13,4.42-1.35,9-1.92,7.23-6,7.93-5.69,12.44.18,2.8,1.92,4.76,5.4,8.69a20.53,20.53,0,0,0,7.64,6c2.91,1.22,3.21.37,6,1.35,4.39,1.54,4.42,3.9,12,9.74,4.28,3.3,5.8,3.72,6.74,3.9,2,.38,3.28-.05,4.65,1,1.2,1,1,1.92,2.85,3.75,1.15,1.17,1.52,1.09,1.94,1.79,1.15,1.92-.27,4.73-.75,5.7,0,0-2.71,5.52-7,19.19-1.69,5.32-.28,3.81-2.7,13.94a94,94,0,0,1-4.79,15.28c-2,4.81-2.28,4.08-3.15,6.75-2.26,6.93-.26,10.76-.75,18.13-.4,5.94-1.83,5.44-3.6,13.79-2.55,12.06.3,13.69-1.8,26.09-.93,5.47-1.48,5.12-4.34,18.58-1.26,5.91-2,10.1-.6,15.14a23.9,23.9,0,0,0,4,7.94c1.55,2.07,5,6.72,10.35,8.1,3.8,1,5.72-.43,11.84-1.8,5.2-1.17,10.16-1.23,20.08-1.35,10.22-.12,15.33-.19,19.34,1.2,2.54.88,5.65,2.32,11.84,4.2,4.16,1.26,6.47,1.73,9.14,1a15.45,15.45,0,0,0,6.15-3.6c2.94-2.46,2.65-3.57,5.54-6.6,1.94-2,4.73-4.93,8.7-5.84,3-.69,4.15.31,8.24.75,6.69.71,7.16-1.57,13.64-1.5,8.3.09,8.58,3.84,17.84,3.89,2.67,0,4.91-.28,8.39.6,1.8.46,2.7.92,7.34,3.15,6.21,3,9.35,4.49,11,5.1,5,1.87,4.74,1,9.29,2.7,7.43,2.81,9,5.6,11.84,4.64,2.07-.7,3-2.79,5-6.89,1.37-2.95,1.28-3.89,3.29-10.19,1.33-4.17,2-6.28,2.85-7.65,2.14-3.5,3.45-3.1,6.3-7s3.18-6.62,4.64-6.6c2,0,2.89,4.87,4.35,4.65.88-.13.92-2,2.25-4.65a21.47,21.47,0,0,1,3.3-4.64c3.58-3.82,11.33-5.92,15.88-3,2.07,1.32,2.18,2.84,5.1,9.14,3.59,7.74,4.67,8.1,6.15,11.69,2.39,5.84,1.54,13.83-.15,29.83-.41,3.79-1.16,10,1.05,16.79a37.65,37.65,0,0,0,1.94,4.79c2.28,4.45,4.29,5.62,6.6,9.75a29.75,29.75,0,0,1,2.55,6.14c1.87,6.23.27,8.63.6,20.69.13,5,.5,7.67,1.35,10.49a33.37,33.37,0,0,0,3,6.89c5,8.87,9.81,11.54,15.59,19.49a74,74,0,0,1,6.45,11.09,119.8,119.8,0,0,1,7.94,20.23c1.44,4.93.89,4.16,3.15,12.45,2.18,8,3.31,12.09,5.24,16.18,2.74,5.78,3.43,4.6,7.5,12,4.94,9,3.81,10.54,8.24,16.64,2.38,3.27,2.78,2.94,7.35,8.85,2.29,3,2.95,4,4.64,4.94,2.84,1.53,5.77,1.11,9.9.45a60.23,60.23,0,0,0,10.94-3c5.47-1.89,7-2.9,9.59-2.39,1.91.36,3,1.26,5.7,3.44,11.92,9.6,11.73,8.87,13.79,11.24,2.59,3,2.85,4.13,6.59,8.25s5,4.73,6,5.09c2.86,1.1,4.21.14,7.79,1.5a28.75,28.75,0,0,1,4.65,2.7c4,2.58,6,3.87,7.94,6a17.68,17.68,0,0,1,4,6.14c1.12,3.15.19,4.29-.3,11.84-.47,7.17.16,9.23-.9,13-1.34,4.85-1.65,5.55-1.65,5.55-.79,1.81-1.45,2.66-1,3.3s1.44.37,5,.6a14.93,14.93,0,0,1,2.85.3c1.52.48,2.54,1.74,4.34,5.24,2.25,4.38,2.11,5.26,4.35,9.89,1.27,2.65,1.65,3.06,2,4.5a14.06,14.06,0,0,1-.6,7c-1.57,5.16-4.17,6.31-3.45,9a5.71,5.71,0,0,0,2.55,3.15,6.51,6.51,0,0,0,3.45.6,22.13,22.13,0,0,1,10.64,3.14,26.46,26.46,0,0,1,3.75,2.85c9.31,7.62,10.09,7.2,13.64,10.94a82.16,82.16,0,0,1,6,7.5c1.71,2.28,2.89,4,5.25,7.49,3.87,5.71,4.39,6.81,4.79,8.1,1,3.14.16,3.53.9,6.89a23.93,23.93,0,0,0,6.6,11.39,27.15,27.15,0,0,0,8.24,5.85,28.1,28.1,0,0,0,12.14,2.25c5.15,0,4.77-1.16,9.9-1.2a43.2,43.2,0,0,1,13.34,2.25,33.58,33.58,0,0,1,7,2.69c3.27,1.77,4.82,3.46,7.64,6,8.56,7.71,10.84,7.1,15.29,12.74a49.9,49.9,0,0,1,4.5,7.19c1.61,2.87,1.92,3.82,2,5,0,2.13-1,2.47-2.1,6-.95,3-.43,3.6-1.35,6.59a26.3,26.3,0,0,1-2.55,5.55c-2.72,4.32-5.08,3.89-10.19,8.54-1,.89-.3.37-7.94,9.59-3.79,4.58-5,6-4.5,7,.61,1.32,3.28,1.15,8.24,1.05,11.86-.25,8.92.44,14.84,0,8.66-.64,9.31-1.7,18.74-2.85,9.28-1.13,9.76-.23,18-1.2,7.7-.9,13.1-2.37,20.39-4.35a183.26,183.26,0,0,0,26.53-9.14c3.92-1.71,7.89-3.63,22.78-12.14,21.08-12,31.63-18.07,40.62-24.73a240.82,240.82,0,0,0,21.89-18.44,326.67,326.67,0,0,0,32.22-35.22c10.6-13.35,7.66-12.24,26.83-39,16.33-22.77,20.43-26.54,24.58-29.68,8.4-6.35,13.17-7.24,17.54-14.54,5.1-8.52,4.12-16.54,10.49-19.33,3-1.33,5.25-.41,10.19-3,3.28-1.72,3.44-2.72,6.3-3.6,3.71-1.13,5.53-.09,8.09-1.8a9.56,9.56,0,0,0,3.15-3.9c1.73-3.24.85-4.62,2.25-9.59a20,20,0,0,1,2.85-6.59c1.7-2.42,3-2.86,4.94-4.65,4.08-3.77,2.67-5.91,7-12.44,2.69-4,3.39-3.46,7.19-8.84,2.8-4,4.2-5.94,4.8-8.4a15.65,15.65,0,0,0-3.15-13.64c-.84-1-3.28-3.79-6.29-3.59-.93.06-1.87.54-3.75,1.49-3.06,1.56-3.32,2.24-5.25,3-1.28.51-4.34,1.72-5.84.45s-.82-4-.15-7a34.72,34.72,0,0,1,2.85-8.25c4.8-9,3.21-11.23,10-25.63,2.62-5.53,5.06-9.85,6.59-12.44s6.1-10.15,21.14-28.48c6.32-7.7,6.79-7.92,13.64-16.33,6.67-8.2,10-12.3,12.59-15.89,5.42-7.55,6.1-10.25,21.58-41.52,6.82-13.78,7.94-15.79,9.74-18.59,6.33-9.84,9-10.77,12.74-19a50.31,50.31,0,0,0,3.45-21.14c-.08-1.76-.36-5.42-2.1-6-2.11-.7-4.35,3.86-9.29,4-1.89.07-1.83-.59-3.15-.45-5.12.55-4.45,10.34-12.59,18-1.66,1.57-3,2.4-6.44,5.7-3.65,3.5-3.53,3.91-5,4.64-3.84,2-6.31-.19-10.94,1.2-2.23.67-3.72,1.91-6.6,4.35-8.84,7.5-9.45,12.46-13.34,12.59-3.34.11-6.73-3.42-7.79-7.2-.92-3.29.59-6.29,3-10.34,6.06-10.21,11.89-16.49,17.23-23.38,2.57-3.31,1.11-1.72,9.15-13.19s10.73-14.83,21-29.08c8.94-12.41,13.4-18.62,14.84-21,8.31-13.66,8.48-18,16.19-27.13,6.27-7.38,7.53-6.1,12.74-13.19,5.32-7.25,8.26-14.37,11.24-21.74,2.52-6.22,4-11,5.4-15.58a210.52,210.52,0,0,0,7.49-31.18c1.11-7.48,1.24-14.58,1.5-28.78.52-28.24-1.53-30.39,1.35-41.37,1-3.63,2.73-9.31,4.35-18.28,2.18-12.1,1.7-17-1.2-20.09a9.68,9.68,0,0,0-6.15-3c-2.53-.1-3.6,1.2-7.94,3-1.75.73-1.82.62-8.4,2.55-7,2-8.47,2.64-10.34,3.15-5.18,1.41-10.61.9-21.28-.15-9.93-1-14.89-1.48-21.29-3.45-7-2.14-11.19-3.45-15.44-7.2-7-6.14-9-14.52-10-18.58-2.3-9.31.25-12.07-3.3-21-1-2.59-1.92-4.06-3.89-9.14a104.14,104.14,0,0,1-3.75-10.94c-2-7.84-.7-10.86-1.5-19-.78-8-2.79-12.69-4.2-17.38-5.18-17.4.24-27.48.45-59.36.1-14.29-1-9.7-1.49-32.23-.56-25.44.9-29.23,0-50.06-1.23-28.11-4-24.34-2.7-35.82,0,0,.49-4.31-1.8-33.73a3.51,3.51,0,0,0-.6-1.79c-1.76-2.55-6.23-.09-9-1.5-4.66-2.39-1-13.75-2.7-31.33-.18-1.75-.68-6.35-1.65-12.14a72.41,72.41,0,0,0-1.65-8.39c-1.63-5.24-3.39-5.8-9.14-15.14-4.35-7.06-5.38-10-5.7-13.19a23.14,23.14,0,0,1,.3-6.3c1.92-12.9-.11-29.72-1.5-37.17a18.83,18.83,0,0,1,0-9.44c.73-2.44,1.49-2.72,3.15-7a25.38,25.38,0,0,0,2-7.49c.15-2.59.28-4.7-1-6.3-1.92-2.3-6-2.46-8.84-1.5-5.34,1.79-6.2,7.31-8.7,6.9-1.8-.3-1.48-3.18-5.09-9.45-2.29-3.95-3.19-4.13-4.35-7.19-1.64-4.31-.47-5.55-2-7.34-2.83-3.44-7.9.14-11.54-3-1.43-1.24-1.72-6.34-2.25-16.49-.11-2.11-.15-3.41.75-4.35,2.36-2.44,7.61,1.41,10.34-1,1.88-1.68,2.08-5.88,1.35-8.39a11.29,11.29,0,0,1-.6-3.15,10.49,10.49,0,0,1,.45-3.29c1.07-3.95-1.71-11.8-6.74-16-1-.84-1.62-1.15-3.15-2.55-2.64-2.41-4-3.62-4.5-5.4-.77-2.54.3-4.84,1.95-8.39a8.51,8.51,0,0,1,2.85-3.75,8.42,8.42,0,0,1,2.25-1,10.58,10.58,0,0,1,3.89-.45c2.58.17,3.75,1.1,5.85,1.8a17.09,17.09,0,0,0,8.54.45c1.86-.33,5.71-1,8.25-4,1.85-2.21,1-3.22,2.55-4.94,2.93-3.17,8.63-2.63,12.59-2.25,6,.57,7,2.21,10,1.2,3.3-1.1,3-3.31,7-5.4,1.65-.84,2.21-.74,9.3-2a109,109,0,0,0,10.79-2.09c4-1.19,3.84-1.72,9.44-3.6,5.21-1.75,5.78-1.43,8-2.55,4.17-2.16,6.3-5.55,7.79-7.79,10.21-15.38,21.89-24.19,19.78-30.88a18.06,18.06,0,0,1-.89-3.75,18.33,18.33,0,0,1,.75-7.64c2.32-8.07-2.59-12.78.14-22.33a30.24,30.24,0,0,1,6.15-10.95c2.13-2.63,5-5.43,10.94-9.29,6.28-4.06,11.12-6.15,19-9.59,14.65-6.38,22-9.57,23.68-10.49,11.9-6.47,17.85-9.71,20.53-12,1.84-1.56,4.47-4,8.55-4.64,2.34-.37,3.93,0,10.19,1.35,9.29,1.92,8,1.47,9.74,1.95,10.72,3,12,7.43,19,7.34a21.34,21.34,0,0,0,8.54-2.1c5.1-2.3,6.8-5.29,12.59-7a24.62,24.62,0,0,1,4.65-.9c15.59-1.8,26.71,9.19,41.22,5.69,4.17-1,11.28-3.84,14.39-.9a15.38,15.38,0,0,0,3.3,2.85c1.53.93,2.38,1,4.79,1.8,5.23,1.72,5.37,2.76,7.35,2.55,2.32-.24,3.94-1.86,5.09-3,.86-.85,1.61-1.84,3.75-6.14,1.23-2.48,1.85-3.72,2.55-5.4,4.65-11.15,6.63-20.43,12.29-29.08,3.5-5.35,8.42-6.45,7.79-9.14-.41-1.76-3-3-8.09-5.55A27.21,27.21,0,0,0,1662,378c-2.09-.51-3.75-.58-8.84-.45-7.92.21-7.13.45-8.24.3-6.21-.79-10.5-5.63-13.34-8.84-1.68-1.89-2.06-2.67-6.75-10.34-10.82-17.71-12.25-19.19-14.39-20.09-.94-.39-3.74-1.4-5.09-4a7.26,7.26,0,0,1-.75-3.15c-.35-8.36-.07-14.58-1.8-20.54-.76-2.62-1.36-3.3-1.65-3.59-3.63-3.71-11.76-.9-13.49-.3-4.65,1.6-7.53,4.11-11.09,7.19a56.44,56.44,0,0,0-9.3,10.49c-2.38,3.47-1.82,3.45-4.34,7.35a50.06,50.06,0,0,1-11.24,13c-3.37,2.65-5.51,4.34-9,5.39-5.19,1.58-8.18.17-12.29,2.85-2.29,1.5-1.66,2.14-4.34,4.35-4.43,3.65-6.58,2.29-12.45,5.55s-5,5.32-10,7c-3,1-5,.86-7.34,2.85a11.7,11.7,0,0,0-3.45,5.09c-1.52,4.55,1.21,6.32-.15,10.35-.56,1.66-2.37,3.35-6,6.74-4.75,4.45-6.3,4.52-6.89,4.5-1,0-2.45-.77-5.4-2.25s-2.8-1.66-3.89-1.95a9.52,9.52,0,0,0-6.75.9,6,6,0,0,0-3.15,3.3c-.69,2.42,1.07,4.73,1.35,5.09,1.43,1.86,2.62,1.47,3.45,3.15a6.63,6.63,0,0,1,.15,4.5,7.51,7.51,0,0,1-1.65,3.45c-2.52,2.74-7,2-8.24,1.79-2-.34-6.5-1.58-6.6-3.74-.07-1.7,2.56-3.74,5-3.75s3.85,2,4.8,1.35c.51-.36.45-1.29.3-3.15a28.12,28.12,0,0,0-1-5.54c-1.13-3.78-1.57-3.46-1.5-4.5.16-2.49,2.67-4.21,6.14-6.6,2.58-1.77,3.87-2.66,5.85-3,1-.17,2.08-.21,7.79,1.2,5.9,1.45,6.23,1.88,7.35,1.49,3.19-1.09,4.39-5.87,5.24-9.29,1.22-4.85.16-5.8,1.5-9.89a21.18,21.18,0,0,1,4.65-8c3.9-4,6.4-2.58,11.84-6,2.87-1.8,1.86-2,12.29-13.49,1.24-1.36,3.91-4.29,7.5-7.95,0,0,2.89-2.94,7.19-6.89,6.34-5.82,7.86-6.55,9.44-6.3.78.13,2.17,1,5,2.85,3,2,3.12,2.36,4,2.55.6.13,2.59.4,7.79-4.2a38.43,38.43,0,0,0,8.09-9.29c2.77-4.47,2.26-5.58,4.5-9.14a29.8,29.8,0,0,1,9.14-9c3.79-2.56,10.78-7.3,15-4.64,1.68,1,.69,2.33,3,5.69,2,2.87,3.42,3.09,7.19,6.9,2.62,2.64,2.31,2.91,4.2,4.79,2.15,2.14,6.46,6.44,11.69,6.75,6.18.37,11.1-5,14.09-8.24,4.35-4.74,3.3-6.4,7.5-10.65,4.42-4.47,6.73-3.79,12.44-7.94,7-5.06,5.38-7.44,12.74-14.09,5.13-4.64,9.88-7.08,17.09-10.79,9.5-4.9,11.41-3.23,16-6.9,2.51-2,3.54-3.62,10.2-16.33,7.65-14.63,9.15-17.95,13-23.54,4.41-6.35,4.4-4.83,7.79-9.89,9.24-13.79,5.87-19.93,14.54-31.33a87,87,0,0,1,10.49-10.94c6.12-5.7,6.33-4.83,12-10,9.56-8.79,7.21-9.65,16.19-20.38.6-.72,2.24-2.67,1.65-3.75-.13-.24-.59-.84-3.6-.75-4.83.14-6.19,1.76-7.79.9-.7-.38-1.23-2.21-2.25-5.85-1-3.38-1.79-7-1.8-7-.48,0-11.57,1.88-12.44-.3-.53-1.31,1.92-3.79,4.35-5,1.24-.59,2.84-1,8.84-.6,6.31.44,8.55,1.18,9,.3s-1.84-3.22-4.79-6c-2.5-2.35-2.88-2.3-5.1-4.35-3.39-3.12-5.49-5-6.44-8.24a12,12,0,0,1-.15-6.3,12.13,12.13,0,0,1,7.19-8.39c4.54-1.63,5.62,2.08,13.49,2.1,6,0,10.17-2.15,12.59.29a9,9,0,0,0,3.15,2.55,5.73,5.73,0,0,0,3.15.6c2.55-.34,3.06-2.77,4.79-2.85,1.23,0,2.29,1.11,4.35,4.35a55.44,55.44,0,0,1,5.39,9.89c2.41,5.75,3,9.17,4.45,9.17C1825.91,106.76,1826.59,105.32,1826.69,105.1Z"/><path d="M1789.67,230c-1.23-1-3.93-.15-5.4,1.35s-1.34,3.33-1.5,7.35c-.32,8.39-1.27,11.76-.45,12s2.54-3.13,3.45-4.95c.84-1.67.75-1.87,2-4.79,1.82-4.45,2.79-5.91,2.7-8.55C1790.35,230.61,1789.88,230.13,1789.67,230Z"/><path d="M1737.81,230.55c1.65,1.58,2,3.11,3.29,7.8,2.29,8.25,2.83,9.29,3.45,13.34.45,2.9.67,4.36.45,5.84-.54,3.73-2.67,6.59-5.39,9.3-5.12,5.08-10,7.37-13.49,9.29-12.62,7-9.91,11.43-25.64,22.18-5,3.42-8.08,4.9-13,9.45-8.16,7.49-9,11.93-9.14,13.94a22,22,0,0,0,1.2,7.94c1.09,3.66,2.09,4.38,3.75,8.24,2.38,5.56,4,9.41,2.55,12.44-1.17,2.4-2.83,1.32-9.45,6.15a60.78,60.78,0,0,0-6.14,5.4c-3,2.86-3.38,3.55-3.45,4.34-.15,1.81,1.59,3.53,5.1,6.9,3.17,3,4.57,3.78,5.24,6,.63,2.05.27,4.22-.3,4.35s-1.55-2.15-4.79-6.6a4.64,4.64,0,0,0-2.55-2.09c-1-.22-1.59.14-3,.45a27.73,27.73,0,0,1-4.2.3c-2.08.07-4.6.16-7.64,0-5-.27-7.55-.4-10.64-1.5a20.46,20.46,0,0,1-8.1-4.95c-1.48-1.53-1.5-2.09-4.34-6.74-4.2-6.87-4.76-6.61-6.15-9.75a23.16,23.16,0,0,1-2.4-10.19c.12-5.07,2.32-8.73,4-11.54,1.12-1.82,3.57-5.42,16.49-15.59,6.64-5.23,6.56-4.72,9.89-7.64,1.22-1.08,4.28-3.82,12.89-13.79,6.62-7.67,10.72-12.89,16-16a23.7,23.7,0,0,1,7-3c1.07-.25,2.66-.46,5.85-.9,4-.55,3.85-.44,4.65-.6,5.08-1,8.58-4.52,10.34-6.29,2.26-2.28,1.73-2.54,4.79-6.3,4.22-5.17,5.31-4.78,7.8-8.09s3.57-6.88,5.69-13.94c1.93-6.42,2.19-9.57,4.35-10.19S1737.32,230.09,1737.81,230.55Z"/><path d="M1541,328.43a8.53,8.53,0,0,1,5.85,0,6.54,6.54,0,0,1,3,2.25c2.3,3.28.11,7.87-.3,8.69a12.82,12.82,0,0,1-4.5,4.8c-5,3.4-7.77,2.3-14.39,4.8a45.67,45.67,0,0,0-10.49,5.84c-5.42,3.76-5.57,5.19-10,7.8-5.47,3.18-10.9,4.34-11.09,3.89s2.48-1.42,7.49-4.79a55.14,55.14,0,0,0,6.6-4.95,43.86,43.86,0,0,0,5.69-6.15c3.2-4.24,2.41-5,4.8-7.94,3.19-4,4.59-2.63,9.59-7.34C1537.13,331.63,1537.63,329.52,1541,328.43Z"/></g></g></svg>