<svg xmlns="http://www.w3.org/2000/svg" viewBox="0 0 2328.17 1512.12"><g id="Layer_2" data-name="Layer 2"><g id="Bulgaria"><path d="M2241.12,243.58c9.63,2.49,14.45,3.74,15.12,4a44.26,44.26,0,0,0,8.37,2.06,45.22,45.22,0,0,0,5.72.44c1.82,0,4.09,0,12.33-1.32,6-.92,6.78-1.19,9.54-1.32a55,55,0,0,1,7.05.14c5,.43,9.62,1.49,12.92,1.32l2.79-.14a24.81,24.81,0,0,1,1.91,6.16c.42,2.49,1.21,7.15-.88,11.6-1.58,3.35-3.21,3.21-4.26,6.61a15.15,15.15,0,0,0-.29,6.6,25.62,25.62,0,0,0,3.23,9.84c1.45,2.56,1.74,2.09,2.34,3.67,1.59,4.18-.07,8.58-.88,10.72-1.31,3.48-2.13,3.19-2.79,5.87-.6,2.47-.25,4.53.44,8.66a41.64,41.64,0,0,0,2.5,9.54,47.08,47.08,0,0,0,4,7.34c1.45,2.35,3.87,6,5.14,7.93,2.29,3.45,2.78,4.14,2.79,5.43,0,2-1.2,2.7-2.49,6.17-.89,2.37-.45,2.39-1.33,5.43-1.31,4.55-2.53,5.31-3.67,9.25-1,3.43-.22,3.44-1,6.46-1.24,4.69-3.32,5.62-8.08,13.21-1.55,2.48-.8,1.54-4.55,7.93-3.65,6.21-4.94,8.1-6.9,10.13-.84.86-2.27,2-5.14,4.4-4.83,4-5.65,4.32-7.92,6.31-4.25,3.72-6.37,5.58-7.78,8.66a89,89,0,0,0-4.26,12.48c-.18.67-.51,2-1.18,2.06-1.19.15-1.39-3.89-4-6.9-4.13-4.83-10-1.87-15.85-7.34-1.75-1.62-1.29-1.94-3.38-3.82-1.86-1.67-3.94-3-9.69-5.28a77.6,77.6,0,0,0-11.3-4c-4.57-1.13-8.39-2.08-13.22-1.76-4.53.3-7.62,1.56-13.5,4-8.53,3.49-9.24,5.34-15,6.32-1.38.23-4.1.3-9.54.44-5.2.13-7.48,0-10.13-.88s-2.73-1.57-4.55-2.21c-5.57-1.93-11.74,2-17.32,5.58a39.29,39.29,0,0,0-11.75,10.57c-2.58,3.63-3.81,6.83-5.87,12.19-1.81,4.71-2.28,7-3.82,12-1,3.17-1,2.92-7.48,21-4.18,11.57-6.27,17.36-6.32,17.62-.69,3.69-1,7.1-3.67,10.42a16.56,16.56,0,0,1-7.34,5c-6.32,2-10.42-1.37-13.8,1.61-1.4,1.25-1.23,2.31-3.08,3.38-1.58.92-2.37.53-5.87,1.47-2.18.59-3.29.9-4.4,1.76a9,9,0,0,0-2.65,3.67,13.18,13.18,0,0,0-.88,7.93c.32,1.62.81,4,2.35,4.55,1.07.35,1.7-.52,3.82-.73a8.06,8.06,0,0,1,3.82.44c3.66,1.71,4.63,11.42.44,17.91-1.51,2.33-1.9,1.48-3.53,4-2.75,4.19-3.16,8.93-3.67,15.71a35,35,0,0,1-.59,6c-.51,2.29-1,2.76-2.78,7.48-2.13,5.52-1.86,5.77-2.94,7.34-2.09,3.05-3.39,2.51-4.85,5.14-.57,1-1.09,2.42-1.32,8.22-.1,2.76-.07,4.63,0,8.66.18,9.44.23,10.68.44,12.78s.49,3.78,1,7.19c.37,2.31,1,6.25,2.06,11.3.57,2.74,1.06,5.49,1.61,8.22.61,3,.88,4.35.44,6-.67,2.55-2.13,2.63-3.52,5-2.78,4.71-1.66,12.32.73,16.44a9.83,9.83,0,0,1,1.47,3.67c.08.47.23,1.58-.44,5-.72,3.66-1.08,5.5-2.05,6.46-1.33,1.3-2.58,1.09-3.38,2.64a6.08,6.08,0,0,0-.44,2.79c-.11,3.37-.17,5.05-.15,5.43.23,5,.4,8.9,2.5,13.07a21.21,21.21,0,0,1,1,1.91c1.34,3.39-.32,5.17.45,9.39.35,1.92.76,1.95.88,3.67a13.76,13.76,0,0,1-.74,5.14c-.71,2.27-1.22,2.31-1.47,3.67-.41,2.31.74,4,1.47,5.72.82,1.9.5,2.34.74,10.87.27,9.78.77,12-.74,12.92-1.2.74-2.09-.3-6.16-.3-2.76,0-3.4.48-6,.74-4,.39-4.27-.55-10.28-.88-3.73-.21-3.31.16-9.83,0-3.91-.1-4-.24-6-.15-4.1.18-4.87.8-7,.29-2.53-.59-2.8-1.73-5.29-2.64-1.21-.44-5-1.74-7.92-.15s-1.5,4-4.85,7.64c-2.83,3.09-5.67,3.45-5.72,5.58,0,1.27,1,1.4,1.76,3.52.24.65,1.36,4-.29,6.9-1.55,2.72-4.63,3.56-5.58,3.82-1.86.5-2.2,0-3.23.58-2.57,1.43-1.21,4.88-3.23,6.76-3.32,3.07-11.53-2-13.66.88-.67.93-.13,1.86-1.32,3.37-1,1.33-2,1.35-2.64,2.5a4.87,4.87,0,0,0,0,3.67c1.67,6.1.63,13.52.44,14.83-.49,3.49-1.27,4.22-.59,5.87,1,2.4,3.22,2.26,5.14,5.14,1.57,2.34,2.28,5.71,1.18,6.6-.83.68-2.15-.45-7-2-2.17-.71-1.44-.34-5.28-1.47-4.44-1.31-6.37-2.09-8.67-1.61-.38.07-1.24.29-2.2.58a19.66,19.66,0,0,0-3.08,1.18,20.27,20.27,0,0,0-2.35,1.47,28.8,28.8,0,0,1-3.67,2.34,8.11,8.11,0,0,1-4,.59c-3.3-.42-3.58-3.21-6-3.52-1.23-.16-2,.44-8.37,6-4.21,3.7-4.66,4.16-5.29,5.14a18.78,18.78,0,0,0-2.49,7.78c-1,6,.47,7.76-1.32,10.71a11.67,11.67,0,0,1-4.55,4c-3.64,2-5.28.91-7.78,2.49-2.72,1.71-5,5.66-4.11,9.4,1.27,5.35,8.5,7.81,11.89,6.16,1.33-.65,1.63-1.72,2.64-1.61,1.57.17,1.87,2.92,4.7,7.34,1.41,2.21,2.12,3.31,2.93,3.52,2.85.72,4.42-4.82,10.87-7.19,1.35-.5,4.34-1.56,7.34-.44,2.2.82,2.19,2,4.25,3.08,2.87,1.52,4.31,0,11.16-.15,5.45-.13,6.92.77,10.13-.14,4.17-1.19,4.84-1.47,4.84-1.47,1.64-.69,2.35-1.19,2.79-.88.77.53-.57,2.49-.73,5.28-.06,1,0,2.15,4.4,11.16,1.31,2.69,1.52,3,2.06,3.23,2.48.88,4.67-4.07,10.13-4.84.87-.13,3.55-.51,5.43,1,1.72,1.41,1,3,2.2,6.61,1.53,4.69,3.78,5.36,5.87,11.45a8,8,0,0,1,.59,3.23c-.15,2.84-2,4-2.93,6-1.93,4.25,1.5,9.7,2.79,11.74,2.19,3.48,7.26,9.12,11.3,8.08,1.76-.46,3-2.1,6.17-2.79.66-.15,1.43-.25,2.78-.44,2.47-.35,2.74-.26,2.94-.15,1,.56.57,2.06.73,5.29.25,4.62,1.28,6,.15,7.78a9.56,9.56,0,0,1-1.91,2.05,11.29,11.29,0,0,1-2.2,1.32,17.7,17.7,0,0,0-3.82,3.09c-2.77,2.79-3.64,6.94-4.4,10.57-.88,4.21-1.33,6.32-.44,8.8a13.94,13.94,0,0,0,4.7,6c3.12,2.42,5.61,2.43,5.87,4.11s-2,2.45-1.91,4.41,2.5,3.37,3.52,4c7.14,4.12,13.57,8.1,16.15,9.84,4.83,3.24,10.39,7,10.13,11.45-.13,2.26-1.73,4.31-.59,6.46a5.31,5.31,0,0,0,2.79,2.2c5.74,2.47,10.24,7.34,11.45,8.66s6.45,7,6.32,12a4.32,4.32,0,0,0,.58,2.79c1,1.38,2.36.92,4.56,2.49,1.64,1.18,1.26,1.72,2.64,2.35s2.19.32,3.67,1.18a6.66,6.66,0,0,1,1.61,1.32,11.48,11.48,0,0,1,2.65,5.58c.67,3.53,4.56,7.69,12.33,16,8.49,9.08,9.49,8.32,10.27,11.3,1.22,4.62.19,11.61,2.94,12.77a4.23,4.23,0,0,1,2.2,1.47,4,4,0,0,1,.59,2.2c.22,4.43,1.5,5.23.73,6.9a5.38,5.38,0,0,1-3.23,2.5c-5.45,2.08-8.64-2.88-14.68-1.32-1.9.49-2,1.09-6.16,2.49-4.36,1.47-5.46,1.22-6,1-2.77-.93-2.79-4-4.7-4.11s-2.51,3.3-5.73,4.11a6.77,6.77,0,0,1-4.4-.59c-2.93-1.28-3.25-3.52-5.87-6.75-1.16-1.43-5.43-6.69-10.13-6.46-2,.1-2.14,1.11-6,3.23-7.09,3.87-10.5,2.57-11.74,5.29-.49,1.06.31,4,1.9,10,.44,1.6.72,3.25,1.18,4.84.79,2.79,1.36,4,.73,4.85s-1.58.63-3.08.59c-7.84-.23-8.61.57-10.13-.59s-.69-1.68-2.79-4.85c-1.65-2.49-3-4.49-5.14-5.13-2.88-.86-3.88,1.72-7.19,1.17s-3.11-3.12-7.19-4.11a20,20,0,0,0-5.44-.29,28.75,28.75,0,0,0-4.4.44c-4.1.8-4.69,2.49-10.28,5a27.15,27.15,0,0,1-6.75,2.35c-3.75.68-4.85-.13-7.05,1-2,1-1.63,2-4.69,4.85-2,1.84-3.41,3.2-5.58,4-1.64.58-1.8.16-8.08.15,0,0-.66,0-7.92.15a12.08,12.08,0,0,1,.88,5.43c-.08,1-.71,7.31-5.14,8.51-3.14.86-7.1-1.16-9-5.14a107.48,107.48,0,0,1-5.57-9.68c-1.49-2.93-2.75-5.73-3.82-8.37l-15.56.73a17.37,17.37,0,0,1-5.73-3.52,21.41,21.41,0,0,1-4-5.29,42.19,42.19,0,0,1-2.06-4.11c-2.05-4.47-1.59-4.46-2.35-5.43-1.35-1.73-2.6-1.43-9-3.82-5-1.86-5.71-2.6-6.17-3.23-1-1.34-.94-2.42-1.76-6.16,0,0-.59-2.64-1.61-6.17-1.79-6.16-2.73-9.27-5.44-11a11.93,11.93,0,0,0-3.81-1.47c-2.24-.45-3.25,0-5.43-.29a13.4,13.4,0,0,1-4.7-1.61c.85-5.79-.47-8.62-1.91-10.13s-2.77-1.17-6.46-3.67-3.65-3.78-6.17-4.7c-1.86-.68-2,0-7.34,0-5.85,0-8.77,0-11-1.32-1-.59-1.86-1.36-3.08-1.18-1.44.22-2.2,1.59-3.08,2.79-3,4.13-5.22,3.28-6.9,6-2.74,4.48,1.5,9.4-.74,11.45-1.56,1.44-4.24-.42-10.12-1.76-10.19-2.32-11.62,1.09-17.33-1.61-4.17-2-3.67-3.93-11.89-9.25a18.3,18.3,0,0,0-6.75-2.94,15.16,15.16,0,0,0-7.05.15c-2.44.67-1.91,1.26-7.19,4.26-3.53,2-5.34,2.63-6.17,4.69a10.82,10.82,0,0,0-.58,2.65c-.22,2.07.28,2.67.14,4-.17,1.69-1.19,2.18-3.23,4.84-2.95,3.86-2,4.33-3.52,5.44-2.85,2-5.42-.1-8.66,2.34-.43.33-2,1.5-1.91,2.94,0,.7.42.91.73,1.62.51,1.14.22,2.2-1,6a36.81,36.81,0,0,1-1.62,4.56,10.39,10.39,0,0,1-3.82,3.67c-.47.25-4.48,2.37-7.92.73-2-.94-2.07-2.32-3.67-2.64-1.8-.37-3.46,1.1-5.29,2.64-2.72,2.29-2.4,3.24-4.4,4.4a8.66,8.66,0,0,1-6.17,1c-2.77-.73-3-2.8-5.14-2.79s-3.67,2-4.4,2.94c-1.61,2-1.07,3-2.5,5-.31.45-2.36,3.26-5.43,3.82-2.24.4-4.12-.66-7.78-2.79-4.54-2.65-5.09-4-8.81-5.58-2.84-1.19-4.63-1.93-6.31-1.18-2.55,1.15-1.62,4.29-4.84,8.67a14.15,14.15,0,0,1-6.32,5.13c-3.17,1.19-6,.62-9.1,0-4.75-.95-4.57-2.15-9.69-3.23-3.46-.72-3.67-.2-8.51-1.17a49,49,0,0,0-6-1.18,34.72,34.72,0,0,0-6.61.15c-3.23.3-4.84.45-6.16,1.18-1.85,1-1.84,1.92-4.11,3.67a24,24,0,0,1-4.85,2.64c-3.24,1.64-2.68,2.32-11.16,10.13-1.4,1.29-2.75,2.5-3.23,4.55a7,7,0,0,0,.3,4.11c.94,2.33,2.53,2.27,4.55,5.28,1,1.42,1.54,2.3,1.47,3.53-.13,2.08-2.08,3.77-2.65,4.26-1.25,1.08-1.68.86-1.9,1.46-.67,1.82,3.31,3.56,3.23,6.9a6.21,6.21,0,0,1-.88,2.65,13.33,13.33,0,0,1-4,4.55c-4,3.33-2.23,7.77-5.87,13.8a21.52,21.52,0,0,1-6.61,6.75l-60.33.15a26.78,26.78,0,0,1-2.65,8.07c-.52,1-.59,1-2.79,4.7-1.63,2.77-2.46,4.19-3.08,5.43a40.93,40.93,0,0,0-2.49,6.17c-1.94,6.24-.45,7.48-2.5,11.3-1.36,2.54-2.66,3.19-2.35,4.7.36,1.73,2.25,1.7,4.26,4.55a31.59,31.59,0,0,1,2.05,4.11c.87,1.82,1.59,3.29,2.06,4.26l-22.61.58a23.25,23.25,0,0,1-6.6-2.93c-1.7-1.12-2-1.68-3.38-2.06-2.78-.78-4.07.87-5.87-.15-.27-.15-.21-.17-2.79-3.67-1.1-1.49-1.47-2-2.2-2.34a5.16,5.16,0,0,0-3.09-.44c-1.71.21-2,1-3.81,1.17a6.64,6.64,0,0,1-2.21-.15c-2.06-.52-2.54-2-4.69-3.81a13.32,13.32,0,0,0-4.7-2.65,11.59,11.59,0,0,0-6,.15c-3,.7-9.7,2.23-14,7.78-1.64,2.15-2.49,4.34-5.43,6.61a11.29,11.29,0,0,1-3.52,1.91c-2.1.65-3.39.26-5.14.29a14.29,14.29,0,0,0-13.36,11l.15,14.24a47.65,47.65,0,0,1,10.13,11.45c1.72,2.79,3.18,5.86,6.16,6.46,1.73.35,3.65-.19,5.58-.73a51,51,0,0,0,5.14-1.77c1.86-.77,2.51-1.2,3.23-.88,1.34.61,1.45,3.16,1.47,3.53.09,2.17-.89,3.33-.3,4s1.84-.14,2.5,0c1.87.39,2.44,8.51.29,31l9.1.14a13,13,0,0,0,2.35,6.61,9.82,9.82,0,0,1,1.62,2.2c.86,2-.06,3,.44,5.87.37,2.15,1,2.22.88,3.53-.14,1.85-1.42,2.38-2.79,4.4-2.88,4.23-1.14,7.54-3.67,9-1.32.74-2.45.2-3.82,1.46a3.94,3.94,0,0,0-1.32,2.35c-.13,1.57,1.21,2.65,3.08,4.7a42.54,42.54,0,0,1,4,5c3,4.65,1.88,6.84,4.4,8.37a12.2,12.2,0,0,1,3.53,2.64c.51.6.83,1.1.73,1.62-.16.86-1.4,1.29-1.91,1.46-1.72.61-6.5,2.31-8.66,4.12-1,.84-1.75,3-3.23,7.48a46.86,46.86,0,0,0-2.35,8.81c-.46,3.2-.14,3.91-1,5.29-1.49,2.31-4.54,3.64-5.28,4-1.65.71-1.84.44-2.5,1-1.75,1.56-1.66,4.7-1.61,6.46.07,2.4.57,3.06,0,3.81-.84,1.1-2.57.59-5.29.88s-4,1.21-6.16,1.91c-7.1,2.27-10.58-2.33-18.94-.58a42.72,42.72,0,0,0-5.87,1.76,27.37,27.37,0,0,0-4.7,2.2,27.88,27.88,0,0,0-5,4c-2.71,2.68-2.2,3.15-3.82,4.41-2.46,1.92-5.29,2.12-8.66,2.35-3.12.21-3.14-.26-8.66-.3s-6.92.45-7.93,1.18c-2.12,1.53-1.23,2.94-3.23,4.4-1.28.94-4.49.79-10.86.44-2.32-.12-3.16-.21-4-.88s-.94-1.67-2.34-5.28c-1.13-2.91-1.5-3.3-1.77-3.53-1.38-1.21-2.52-.48-5-1.17s-4-2.1-6.75-4.55c-2.52-2.24-3.06-3.34-4.26-3.23s-1.66,1.39-3.37,3.23c-1.36,1.45-1.81,1.42-5.44,4-5.91,4.14-5.65,4.89-8.07,5.73-.92.31-2.91.4-6.9.58a63,63,0,0,0-10.42,1,7.66,7.66,0,0,0-2.79,1c-.48.3-1.81,1.23-3.23,4.11-1.73,3.5-1,4.67-2.35,5.72-1.8,1.43-4.7.56-5.58.3-3-.92-3.21-2.61-7.19-5.29-2.61-1.75-4.67-3.13-7.34-3.08s-3.39,1.59-7,2.5a17.63,17.63,0,0,1-7.34.14c-7.11-1.54-9.19-8.3-13.21-7.34-1.52.36-1.5,1.39-4.26,2.35s-3.39.21-5,1c-2,1-2.78,3.08-4.11,6.6-1.25,3.31-1,4.56-2.64,7.34a8.64,8.64,0,0,1-2.21,2.94,8.07,8.07,0,0,1-8.07.88c-1.72-.82-1.43-1.61-3.52-2.64-.61-.3-1.15-.49-5-1.18a29.39,29.39,0,0,0-5.29-.73,11.1,11.1,0,0,0-5.14,2.06c-4.84,3-7.5,4.94-9,5.87-5.29,3.38-5.68.93-15,5-4.31,1.88-6.23,3.29-10.57,4.4-.89.23-2.42.59-4.55,1.33a51.84,51.84,0,0,0-5.87,2.49c-1.61.75-2.72,1.06-14.24,3.08-7.4,1.3-7.82,1.33-8.51,1.32-2.46,0-7.45-.11-11.9-3.37a17.06,17.06,0,0,1-4.11-4.41c-4.67-6.93-1.76-12-6-15.85-2-1.8-2.77-.83-6.16-3.52a46.92,46.92,0,0,1-5.43-5.44c-2.65-2.91-2.34-2.88-3.23-3.67-3.3-2.9-6-1.92-9.84-3.52-6.09-2.57-4.34-7.31-10-9.83-4.75-2.13-6.66.93-13.8-1.62a17.31,17.31,0,0,1-6.75-4c-1.4-1.38-1.63-2.15-3.23-4a32,32,0,0,0-5.88-5c-3.89-2.53-5.52-1.77-17-4.84-3.58-1-3.64-1.09-6.9-1.91-7.15-1.8-7.41-1.3-9.55-2.35-2.85-1.39-2.47-2.31-8.51-7.49-5.36-4.59-6.77-4.83-7.78-4.55-2,.54-1.63,2.73-4.26,4.85-2.2,1.76-4.6,2-8.51,2.35a27.36,27.36,0,0,1-10.43-.59c-5-1.4-7.36-3.89-9.69-2.64a4.57,4.57,0,0,0-1.9,2.49c-2,4.31-1.56,8.33-1.33,14.39.35,9-.16,10.11-.88,10.42s-1.49,0-5.87-3.52c-3.39-2.71-4.82-4.09-6.61-5.58-6.14-5.14-7.26-3.94-10.12-7.34a27.76,27.76,0,0,1-4.7-9c-1.51-4.28-1.33-6.44-3.38-8.07-1.26-1-2.56-1.16-6.31-1.32-12.12-.52-14.87.4-16.88-1.76-1.4-1.5-1.45-3.43-3.82-4.7a8.23,8.23,0,0,0-3.08-.88,12.12,12.12,0,0,0-5.29.73c-5.28,1.67-5.37,2.87-6.9,2.64-4-.59-6-9.1-6.6-11.89-1.36-5.77,0-6.32-1.62-9.39-2.22-4.32-5.28-4.15-8.37-9.1-1.25-2-1.76-3.84-2.79-7.49-1.54-5.49-1.46-7.77-2.64-14.83-1.37-8.24-2.11-12.4-4.4-14.68-3.34-3.31-7.89-3.66-9.84-3.82-7.42-.57-12.94,3.53-15.71,5.58-2.38,1.77-5.05,3.75-6.9,7.34-1.64,3.19-1.18,4.81-2.93,6.17-2.08,1.61-4.94,1.06-10.13,0-7.39-1.51-8.11-3.22-11.6-2.5a54.69,54.69,0,0,0-7.19,2.65c-3.31,1.33-2.8,1.27-3.53,1.46-5,1.3-7.49-1.72-11.3-.14-.36.14-.17.1-2.94,2.2-6.86,5.2-7.71,5.24-8.07,5s-.62-1,.15-3.52l-1.47-11.31a16.64,16.64,0,0,0-4.85-6.9c-2.33-1.91-3.51-1.65-6-4.11-1.86-1.82-2.38-3.12-3.81-3.23-1-.07-1.7.47-3.67,2.06-4.44,3.56-4.3,3.59-5.43,4.4-2.45,1.76-4.18,3-6.76,3.53-1.54.31-2.3.15-3.37.88-.61.41-1.24,1-2.5,4-1.52,3.54-1.22,4-2.35,5.87a14.7,14.7,0,0,1-2.93,3.38c-1.9,1.67-2.84,2.51-3.82,2.49-3.14,0-2.95-7.68-8.37-10.42-.58-.29-3.08-.59-8.07-1.17-2-.24-1.4-.13-7.34-.74-2.45-.24-4.9-.32-7.34-.58s-3.85-.5-5.29.29a6.83,6.83,0,0,0-2.35,2.5,27.83,27.83,0,0,0-3.52,6.16c-1,2.49-2.7,6.82-1.76,11.89a19.28,19.28,0,0,0,2,6.31,12.48,12.48,0,0,1,1.76,4,9.67,9.67,0,0,1,.15,3.23,9.5,9.5,0,0,1-1.91,4.4,11.12,11.12,0,0,1-5.58,4.41c-3.62,1.08-5-1.3-11.59-1a13.31,13.31,0,0,0-4.26.73c-2.15.79-3.25,1.92-5,3.38-4.36,3.67-6.54,5.5-8.81,5.43-1.17,0-1.39-.48-6.46-4.11-6-4.26-6.37-4.16-7-5.43-1.89-3.52,0-6.72-2.2-8.22a6.6,6.6,0,0,0-3.52-.74,8.57,8.57,0,0,0-3.38.59c-2.83,1.43-.07,7.17-2.49,9-1.46,1.07-2.74-.6-6.17.29-2.29.6-2.62,1.58-5,2.5a13.9,13.9,0,0,1-6.75.73,5,5,0,0,1-1.18,3.67,5.18,5.18,0,0,1-3.52,1.32c-6.18.55-7.53-1-10.87-.15a13.7,13.7,0,0,0-6.31,4.26,25.78,25.78,0,0,0-2.79,4c-2.37,3.77-2.09,4.25-3.67,6.31a18.9,18.9,0,0,1-5,4.55c-2,1.27-3.56,2.21-5.43,2-2.57-.22-2.88-2.27-5.87-3.81-2.38-1.24-3.07-.39-10.28-.88-6-.41-6.43-1.06-9.39-.59-2.32.37-5.77.91-7.64,3.52-1.54,2.16-.51,3.63-2.2,6.17a10.67,10.67,0,0,1-5.14,3.81c-1.87.79-3.15.85-11,.59s-9.58-.43-11.45-1.76c-1.59-1.13-1.47-1.78-3.23-2.79-2.4-1.38-3.66-.78-8.22-1.47s-7.1-1.07-9.25-3.08a11.92,11.92,0,0,0-2.49-2.2,9.63,9.63,0,0,0-5-1.18c-3.81,0-7.65-.38-11.45,0-9.64,1-9.91-1.5-15.12-.14-2.83.74-2.38,1.22-9.1,4.4-7.37,3.49-9.11,3.48-13.51,5.73a48.59,48.59,0,0,0-12.33,9.1c-4.34-6.74-5.61-10.3-5.87-12.33a6.15,6.15,0,0,0-1.47-3.53,6.23,6.23,0,0,0-2.79-1.61,14.21,14.21,0,0,0-7.63-.3,19.51,19.51,0,0,0-3.38,1c-4.81,2-5.17,4.38-9.39,6.76-3.83,2.14-4.92.95-7.78,3.08a14.12,14.12,0,0,0-4.7,6.6q-.22,7.05-.44,14.1a12.86,12.86,0,0,1-5.14,5,13.92,13.92,0,0,1-5.43,1.32A96.86,96.86,0,0,1,301,1469c-11.81-.23-12.24,3.14-21.58,2.21-4.61-.46-8.71-1.71-14.24-3.38-6.71-2-6.8-2.71-10.13-3.08-6-.69-7.28,1.36-14.82,1-4.92-.21-4.1-1.06-9.4-1.32-7.24-.34-10.49,1.16-12.92-1.17-1.37-1.32-2.16-3.55-1.47-4.85s2.13-1,4.55-2.05a15.62,15.62,0,0,0,4.7-3.08l.3-20.56c-.72-1.48-1.62-3.37-2.65-5.57-1.74-3.74-1.9-4.15-1.91-4.85,0-1.59.74-2.61,4.85-7.63,3.65-4.46,4.53-5.47,4.55-7.2,0-1.51-.64-2.63-1.76-4.55-2-3.45-3.32-3.46-4.7-5.72-1.82-3-1.53-6.25-1-11.75a42.16,42.16,0,0,1,1.32-7.19c1.27-4.81,2.06-4.77,2.5-7.19,1.33-7.25-5-11.6-2.64-15.42,1.37-2.26,4.23-1.81,4.69-4,.33-1.52-.9-2.62-3.22-5.87a46.06,46.06,0,0,1-4.85-8.08c-1.2-2.94-.57-4-.88-10.27-.53-10.83-2.71-14.4-.29-16.59.8-.74,2.69-1.27,6.46-2.35,3-.86,3.09-.62,4.11-1,3.66-1.46,3.71-5,7.78-11.74a89.38,89.38,0,0,1,6.46-9c3.16-4,4.5-5.29,5.13-8.07.24-1,.16-3.09,0-7.2a73.38,73.38,0,0,0-.44-7.63c-.9-4-2.26-3.62-4.69-9.84-.75-1.91-2.53-7.2-2.51-7.2a.62.62,0,0,1,.16.45c-.23.75-5,.21-17.77-2.64.74-2.51,1.19-5.6-.44-7.49-1.13-1.32-2.49-1.12-4-2.35-2.33-1.94-2.34-5.28-2.5-8.22a84.17,84.17,0,0,0-2.49-16.44c-1.08-4.06-2.25-8.45-5.73-12.77-2.84-3.54-4.67-3.85-6.75-7.64-1.7-3.08-1.1-4-2.79-9.25s-2.9-6.12-5-11.45a67.31,67.31,0,0,1-3.38-12c-3.37-16.68-.58-33.18-.58-33.18a4.78,4.78,0,0,0-1.18-3.23c-3.37-3.43-11.47,2.79-16.88-.88-2.27-1.55-1.34-3-4.11-5.43-2.28-2-4.65-2.59-11.75-3.67-11.71-1.79-14-1.59-17.32-3.67-2.45-1.56-4.9-5-5.87-6.32a17.73,17.73,0,0,1-2.39-3.9.71.71,0,0,0-.11-.21c-.75-1-3.91,1-7,1.76-.48.13-6,1.45-10.28-1-2.38-1.37-2.35-2.73-5.14-5.88s-5.42-4.75-8.66-6.75c-7-4.32-9.09-3.07-15.41-6.31-8.73-4.48-6.4-7.7-18.5-16.15-5-3.49-7.76-4.59-8.81-8.07s.75-5.89-1-11c-.08-.25-.94-1.93-2.64-5.29-2.85-5.62-3.34-6.39-4.4-6.75-2-.71-3.46,1-6,0a6.61,6.61,0,0,1-2.2-1.62,19,19,0,0,1-4.26-6.75c-2-4.75-1.63-5.07-2.94-7.93-.82-1.81-1.55-3-4.7-7.48-3.26-4.72-4.9-7.08-6.6-9.4C15,987.33,11.18,982.07,10.13,981.12c-2-1.83-5.16-4.3-6.31-8.51-.24-.87-.87-3.3.29-4.4.9-.85,2.36-.47,3.82-.3,3.62.42,4.37-.79,9.25-1.47,7.13-1,7.59,1.31,12.33-.14A13.64,13.64,0,0,0,37,961.16c1.26-1.9,1.64-3.79,2.2-6.61.86-4.28,0-4.53.88-7.19,1.24-3.93,3.16-3.81,4.26-7.63,1-3.61-.34-4.88,1-6.46,1.12-1.31,3.6-1.48,8.51-1.77,4.58-.26,5.55.08,6.75-.88s1.26-2.23,2.21-6.46c.23-1,1.08-4.06,2.79-10.13,2-7,2-5.93,2.34-8.07.85-4.66.29-6.48,1.91-9.54,1.23-2.32,2.08-2.27,2.79-4,.94-2.25.63-5.17-2.49-11-1.66-3.1-5.07-8.81-12.78-16.73-5.76-5.93-5.93-4.87-8.36-8.22-2.6-3.57-4.36-7.47-7.78-8.37-.66-.17-3.82-.88-3.82-.88-.28.09-5.22,1.69-6.9-.44-.35-.38-.78-1.16,0-5.29a28.86,28.86,0,0,1,1.76-6.6c2.68-6.47,3.61-16.13,4.11-20.85,1-9,.05-12.23,2.94-15.27,1-1,2.51-2.17,2.64-4.11.1-1.47-.7-2.12-2.5-5.87-1.22-2.56-1.83-3.86-1.76-5,.18-2.62,2.74-4.34,4-5.29,5.54-4.27,8.42-11.59,9.1-14.82C52.77,754.3,44,741.86,37,736a18.6,18.6,0,0,1-6.17-8.07c-.46-1.32-1.83-5.17,0-9.1a12.11,12.11,0,0,1,3.67-4.26c4.29-3.46,6.74-2.85,10.87-5.14s6.72-5.84,10-10.42A55.28,55.28,0,0,1,62,690.6c2.13-2.16,3.74-3.38,5.57-3.23.33,0,1.24.15,3.82,2.35,3.94,3.37,5,5.77,6.75,5.58.63-.07,1.11-.54,2.06-1.47a14.3,14.3,0,0,0,3.52-6.31c.63-2.13.38-2.66,1.18-4a7.75,7.75,0,0,1,2.49-2.49,9.48,9.48,0,0,1,9-.88,11,11,0,0,1,2.93,2.2,32.53,32.53,0,0,1,2.5,2.93c2,2.42,2.28,2.83,2.79,2.79,1-.07,1-1.63,2.64-2.49a4.55,4.55,0,0,1,2.64-.44c4.38.36,6.19,7.19,8.81,6.75,1-.17.95-1.23,2.64-2.79a12.53,12.53,0,0,1,6.17-2.79c12.07-2.83,11.67-2.47,13.07-3.08A21.78,21.78,0,0,0,150,675c.54-.9.15-.42,2.93-7.64s3.26-7.89,3.09-9.83a35.73,35.73,0,0,0-1-6.61c-.34-1.1-.77-2.17-.29-2.64.71-.72,2.5,1,3.67.44,2.19-1-1.54-8.1,1-13.36,2.08-4.25,6.11-2.88,15.27-8.66,6.11-3.86,4.67-4.69,11.45-9.1,8.19-5.33,11.16-4.67,13.65-9,1.15-2,1.89-4.78,3.38-10.42.9-3.43,1-4.68,2.06-6.75a22.09,22.09,0,0,1,5.57-6.9c6.12-5.39,9.72-4.74,17.62-10.87a19.66,19.66,0,0,0,4.26-4.11c2.5-3.43,3-6.91,3.52-10.27a43.21,43.21,0,0,0-.44-14.24c-.75-3.44-1.4-4.1-1-6,.74-3.84,3.95-4.36,4.85-8.37.07-.3.91-4.33-1.32-6.9-1.7-2-4.48-2.11-10-2.35-5-.22-5.64.4-8.22,0-4.67-.73-7.8-3.6-10.13-5.73-22.81-20.84-26.7-23.36-28.62-30.53-1.85-6.86-2.65-11.3-2.65-11.3-.75-4.18-.94-6.62-2.34-10.43a22.14,22.14,0,0,0-3.38-6.6c-2.43-3.05-4.09-2.89-8.37-5.88s-10.26-7.15-11.45-13.35c-.37-2-.16-3.49-1.47-5.14-1.18-1.49-2.43-1.61-6.16-3.09-4.89-1.92-4.44-2.38-8.22-3.67a41.62,41.62,0,0,0-7.34-1.76c-4.69-.66-7.05,1.52-10-.14a6.22,6.22,0,0,1-2.2-2.06c-1-1.53-.82-3-.88-4.4,0-.87-.24-5.92-2.94-8.52-1.15-1.11-3.08-1.54-6.9-2.35-3.09-.65-4.53-.71-6.6-1-6-.92-11.11-1.7-13.8-5.28-1-1.34-2-3.53-3.82-7.34A8.5,8.5,0,0,0,81,389.94c-1.47-1.4-3.19-1.6-6.75-2.05-4.87-.62-6.09.11-7.78-1a7.35,7.35,0,0,1-2.65-4.11c-2.64-8.07-3.84-13.22-5.13-17.18-.23-.7-2.07-5-5.73-13.5-2.68-6.25-2.91-6.69-3.23-8.08-1.58-6.84,1.25-8.05.44-15-.91-7.73-4.78-9.06-4.11-16a59.69,59.69,0,0,0,.59-6,29.88,29.88,0,0,0-.59-8.22,22.55,22.55,0,0,0-3.67-8.22c-1.73-2.36-3.4-3.48-8.22-6.61-12-7.76-14.08-8.86-16.15-12.18a28.91,28.91,0,0,1-2.94-7.2,50.61,50.61,0,0,1-2-11.59c-.93-12.27,1.78-14.74-1-19.82-1.21-2.2-1.67-1.65-5-6.46a49.17,49.17,0,0,1-5-8.81c-1.34-3.15-2-4.72-2.06-6.75-.07-2.81.93-4.95,2.94-9.11,2.14-4.42,2.41-3.76,4-7.19A34.48,34.48,0,0,0,10,183.68c.2-2.37-.06-2.77,0-5.13.16-6.73,2.62-7.63,2.79-12.63.18-5.4-2.36-5.6-1.47-10.13.63-3.23,2.5-6.11,4-8.37a39.1,39.1,0,0,1,3.08-4.11q.52-16.59,1-33.18a11.37,11.37,0,0,1,5.87-4.25c1.84-.51,2.84-.17,5.44-.3,3.52-.17,4.34-.94,8.36-1.76a48.72,48.72,0,0,1,11-.88c6.23.15,7.43,1.35,9.69.3,4.09-1.91,5.13-9.14,5.29-10.13.37-2.31.2-4,1.61-5.73.53-.64,1.32-1.31,4-2.35a49.5,49.5,0,0,1,9.1-2.35c6.67-1.34,6.6-1.36,7.49-1.47,5.77-.67,6.33.4,7.78-.58,4.54-3.11,1.64-15.55,1-18.21C95.23,59,94.73,58.76,94.4,56a34,34,0,0,1,1-12c1.33-5.85,2.45-6.11,2.2-9.11-.38-4.46-3-5.4-2.35-8.22.72-3.05,3.9-2.4,7.49-6.9a25.93,25.93,0,0,0,4.4-9.54c1-3.66.37-4,1.32-5.58,2.36-3.84,8.68-5.75,12.63-3.81C123,1.68,122.67,2.64,126,5a27.4,27.4,0,0,0,5.58,3.09c3.65,1.46,5.7,1.2,8.81,1.76,5.4,1,9.17,3.55,12.33,5.72,5,3.45,4.77,5.14,10,10C165.58,28.29,170,31,179,36.44c9.8,6,11.53,6.39,15.12,9.84,2.3,2.2,4.61,4.39,6.9,6.6,3.61,3.5,4.31,4.23,5.87,5.14a21.65,21.65,0,0,0,9,2.64c4.4.5,5.29-.41,10,0a52.88,52.88,0,0,1,7.78,1.62c8.27,2,12.45,3.12,14.68,5a17.7,17.7,0,0,1,5.28,7.93,18.71,18.71,0,0,1,.74,8.07c-.62,6.21-3.65,10.53-5.58,13.21-2.9,4-6.25,8.68-12,10.43-4.58,1.37-6.7-.27-13.65,1.76a62.53,62.53,0,0,0-6.31,2.49c-12.92,5.49-11.95,6.6-16.89,7.64-3.14.66-5.41.6-6.75,2.49-1.17,1.66-1,3.84-.59,5.43-.29,2.08-.78,5.15-1.61,8.81a133.85,133.85,0,0,1-5.73,18.21c-4.87,13-5.51,11.65-5.87,15.12-1,9.77,4.4,17.61,6,20s5.51,8,12.33,10.87c2.1.87,2,.44,9.69,2.93,2.75.89,5.91,1.91,9.69,3.38,5.25,2,5.49,2.53,8.51,3.67,10,3.75,13.14.55,21.59,4.4,4.2,1.92,4.23,3.08,7.63,3.82,4.46,1,7.52-.36,12.77-1.47,7.43-1.57,7.78-.3,14.83-1.47,9.66-1.59,17-5.3,26-9.83,1.33-.67,6.44-3.28,13.36-6.61a73.66,73.66,0,0,1,7.78-3.38,56.8,56.8,0,0,1,10.72-2.64l60.19-3.37c7,5.69,12.72,7.12,16.73,7.34,3.08.16,6.19-.34,10.57,1.32a25.71,25.71,0,0,1,7.34,4.4c3.58,3,3.06,4.23,6,6.46,2.71,2.05,3.42,1.25,9.25,3.82,4.95,2.17,5.44,3.19,9.69,4.84,4.89,1.9,7.12,2.16,7.93,2.2,2.15.13,2.19-.26,6.6-.58,5-.37,5.68.07,8.23-.44,3.24-.66,5-2,6.9-2.94,5.32-2.78,10.77-2.56,15.85-2.35,10.69.44,11.83,6.82,29.65,14.54,8,3.48,8.26,2.37,20.12,7.34,11.27,4.72,11.13,5.74,16.15,6.75,9.39,1.89,12.73-1.13,22.6,1,2.58.56,4.21,1.17,12.19,4.69,24.23,10.71,36.34,16.06,40.22,18.21,5.57,3.07,8.36,5.07,12.77,5.28a16.27,16.27,0,0,1,7.34,1.47c2,1,2.21,1.74,4,2.5,2.41,1,4.33.65,7.93.29,6.94-.69,6.31.1,11.59-.59a62.52,62.52,0,0,0,10.13-2.2c16.54-4.8,28.74,2.64,41.7-4.55,10.39-5.77,9.52-14.44,22-19.09,1.09-.4,4.3-1.44,10.71-3.52,11.92-3.86,11.23-3.44,14.1-4.55,8.5-3.29,9.07-4.83,13.65-5.14,2.05-.14,4.65.25,9.83,1,2.45.37,5.91.89,10.43,1.91,9.69,2.18,14.82,3.33,20.55,6.6.55.32,4,3,11,8.23s8.35,6.42,9.69,7.63c5.1,4.58,4.78,5.4,8.66,8.51,4.4,3.53,7.91,6.34,12.33,6.32,3.94,0,5.7-2.27,12.19-6.32,8.4-5.23,10.59-6.62,14.53-7.34,1.89-.34,3.9-.27,7.93-.14,9.9.32,12,1.76,17.61,1.32,2.34-.19,5.51-1.25,11.75-3.38,14.4-4.9,14.69-6.41,19.52-6.9,8.34-.84,15.18,2.86,19.68,5.29,8.45,4.57,10,9,19.81,13.5,2.86,1.32,5.77,1.12,9.69,3.38,2.12,1.21,4.75,1.93,7.34,4.11a21.84,21.84,0,0,1,2.65,2.64c4,4.78,2.9,8.77,5,12,3,4.76,10.76,4.88,17.32,5,10.17.17,9.59-3.2,20.85-3.23,4.43,0,8.71.51,13.5-2,3-1.62,2.91-2.67,4.85-3.23,5.54-1.62,8.86,7.18,19.82,12a75.87,75.87,0,0,0,23.63,6.45c7.06.64,10.54-.21,11.89-.58,3.91-1.09,5.36-2.49,11.16-5.29,5-2.4,7.92-3.81,11.6-4.7,8.29-2,10.72,1,20.84-.29a41.91,41.91,0,0,0,11.75-3.08c6.84-3,7.66-5.7,18-12.48a99.94,99.94,0,0,1,10.57-6c8.37-4.1,11.82-4.3,13.66-4.26,4.15.09,4,1.49,8.07,1.77,4.92.34,9.07-1.83,17.18-6.17,6.28-3.37,9.48-5.12,11.89-8.22,3.45-4.44,2.11-6.45,4.7-11,4.43-7.85,10.76-6.14,21.87-15.12A61.9,61.9,0,0,0,1318,220.09c5-7.47,4.81-10.88,9.84-18.79A73.41,73.41,0,0,1,1339,187.94c15.14-15.08,21.54-11.79,32.74-22.9,12.63-12.52,13.35-25.48,25.55-34.65,3.34-2.51,9.46-7.11,15.41-6a18.26,18.26,0,0,0,13.21-1.46c5.76-2.5,3.39-.83,13.95-5,7.91-3.12,8.34-3.7,11.74-4.41,5.17-1.07,5.57,0,8.22-1.32,4.06-2,4.39-5,9.25-9.1a29.34,29.34,0,0,1,6.17-4l40.81-1c1.07-.54,2.81-1.38,5-2.35,9.16-4.07,19.41-8.63,31.56-8.66,5.07,0,7.79,0,11.6.73,4,.8,6.29,1.86,9.84,1.18,2.71-.53,3.22-1.5,6.16-2.79,3.54-1.55,7.35-1.69,14.83-1.91,5-.15,7.64.06,12.92-.59,4.41-.54,7.23-1.26,7.49-2.64s-2.57-2.59-2.21-3.82c.46-1.56,5.68-2,6.46-.44.59,1.16-1.64,2.78-1.17,3.67s4.06.78,11.45-2c5.77-2.22,19.09-8.05,47.27-25.11l14.39-1.17q3.39-2.13,6.9-4.26c.85-.52,1.86-1.89,3.67-2.2a5.76,5.76,0,0,1,2.93.29c2.11.7,6.55.42,15.42-.15,7.87-.49,11.81-.74,14-1.61a39.39,39.39,0,0,1,6.6-2.35c4.84-1.17,6.73-.49,7.49-.15,1.78.81,1.71,1.72,3.37,2.65,1.11.61,2.82,1.14,8.52,0,6.12-1.23,7.08-2.43,12-2.94,3.88-.4,5.5.12,6,.29,2.51.87,3.37,2.31,6,4.56,2.93,2.48,5.2,4.4,8.22,5.13,5.42,1.31,8.52-2.37,12.18,0,1.34.87,1.76,1.9,3.38,2.21s2.89-.55,5-1.47c3.75-1.65,3.61-.42,9.1-2.2,3.3-1.08,4.9-2,7.34-1.47a7.73,7.73,0,0,1,2.2.88,25.56,25.56,0,0,0,.88,13.8,26.63,26.63,0,0,0,1.91,4,31.18,31.18,0,0,0,6.76,7.64c6.66,5.25,10.75,2.69,17.32,7,8.28,5.5,14.54,18,15,18.94.78,1.58,2.16,4.64,5,5.43s5.35-1,6.9-1.91c5.88-3.42,11.9-3.31,23.49-3.08,3.52.07,1.23.32,20.11,3.23,6.94,1.07,12.28,1.81,19.24,1,5.26-.59,8.1-1,10.57-3.23,3-2.78,2.67-5.83,6.9-9.84,2.23-2.12,3.45-3.28,5.13-3.37,5.67-.33,12.88,11.66,15.12,22.9.72,3.59,1.32,9,4.41,15.85,1.22,2.69,2.36,4.56,4.4,5.87,2.34,1.51,4.89,1.65,10.28,1.18,6.42-.56,8.38-1.25,14.24-2.06,7.61-1,8.27-.43,15.41-1.61,5.63-.93,8.45-1.4,11.16-2.79,1.59-.82,2.14-1.34,10.42-9.1,4.92-4.61,7.44-6.92,10.87-7.78a10.14,10.14,0,0,1,6.16-.15c3.31,1.21,5.33,4.86,8.08,16s1.95,12.56,4,19.82c3.31,12,5.88,9.65,7.78,19.08.49,2.45,3.48,18.32,4.7,23.49a8.44,8.44,0,0,0,1.91,3.82,8.31,8.31,0,0,0,3.37,2.2c6.43,2.37,12,6.71,18.35,9.25,13.93,5.56,20.76,11.81,41.55,21.14a273.28,273.28,0,0,0,30.24,11.45c8.54.38,15.89,1.07,21.73,1.76C2225.83,240.57,2232.52,241.36,2241.12,243.58Z"/><path d="M1028.81,280c-.88,3.71,4.41,8.35,6.6,10.27a27.58,27.58,0,0,0,9.11,5.14A33.91,33.91,0,0,0,1057,297c4.26-.06,9.2-1.36,19.09-4,5.34-1.41,7.38-2.1,7.93-3.81.85-2.69-2.56-6-3.82-7.2-9.37-9-23.91-8.71-29.8-8.51C1045.73,273.69,1030.17,274.22,1028.81,280Z"/></g></g></svg>