<svg xmlns="http://www.w3.org/2000/svg" viewBox="0 0 2313.64 1697.5"><g id="Layer_2" data-name="Layer 2"><g id="Burkina_Faso" data-name="Burkina Faso"><path d="M1943.23,502c3.15,1,4.84.08,8.8,1.85,1.66.74,1.37.91,3.27,1.85,2.19,1.08,3.89,1.51,10.23,2.84,5.74,1.2,5.85,1.16,7.1,1.56a20.43,20.43,0,0,1,7.1,3.41c.81.65,5.82,4.65,4.69,7.81-.79,2.19-4.25,3.24-6.82,3-3.46-.34-6.29-3.17-9.66-6.53l-1.7-1.7a26.48,26.48,0,0,0-3.84,5.82c-2.41,5-1.67,7.43-3.69,8.8-1.2.82-2.42.61-11.08-2-9.62-2.88-11-3.48-12.07-4-4.54-2.12-7.82-4.12-7.82-4.12a39.15,39.15,0,0,0-4.54-2.56,34.24,34.24,0,0,0-5.12-1.84c-2.85-.77-9.73-1.42-18.74-.43l.42,79.68c1.59-.52,3.39-.94,3.84-.28s-.68,1.45-.43,2.56c.32,1.43,2.5,1.72,5.26,3,2.24,1,2,1.39,5.54,3.55a83.25,83.25,0,0,0,7.52,4s6.58,3.32,12.65,7c4.39,2.64,7.39,4.78,9.09,6,6.54,4.57,13.92,8.84,28.4,17.19,17.41,10,16.75,9.25,30,16.9,19.33,11.18,18.42,11.51,33.1,19.75,16.56,9.29,18.47,9.3,31.25,17,13.38,8.11,12.1,8.59,23.86,15.62,11.48,6.87,11.81,5.87,37.07,19.46,19.72,10.61,21.56,12.32,23.3,14.49,1.21,1.53,2.82,3.83,5.11,3.84,3,0,4.37-3.9,11.65-14.06,3.18-4.46,4.82-6.73,7-8.67,4.25-3.86,5.62-3.17,8.38-6.68,1.43-1.82,2.49-3.82,5.82-8,1.21-1.5,2.33-2.79,3.69-2.7s1.71,1.44,3.55,2.42c.6.32,1.44.64,5,.71,5.83.11,6.32-.7,8.81,0,1.65.46,1.27.77,4.69,2.13,2.62,1,3.93,1.56,5.11,1.56,3.2,0,3.71-2.26,6.68-2.27,2.5,0,5.34,1.59,6,3.69.55,1.83-.8,3.36,0,4.12.59.55,1.5-.09,3.55-.14,1.21,0,3.23-.09,4.55,1,2.25,1.85,1.51,6.25,1.42,6.82-.4,2.42-1.38,3-1,4.69a5.61,5.61,0,0,0,2.55,3.26c2.26,1.42,3.5.16,5.83,1.28,1.77.86,1.37,1.75,4.4,5,2.1,2.25,2.46,2,4.54,4.26a22,22,0,0,1,3.7,5,18.36,18.36,0,0,1,1.84,7.1c.45,4.54-.61,5.39-.42,11.5.13,4.31.71,5.56,1.28,6.39,1.3,1.94,2.59,1.76,5,3.7.88.71,4.29,3.49,5.25,7.67.88,3.82-.63,7.38,1.28,9.09a2.42,2.42,0,0,1,1,1.56,2.57,2.57,0,0,1-1,1.85c-2.63,2.45-7,2.7-7,2.7-9.13.52-12.54-1.9-19.88-.71a22.49,22.49,0,0,0-5.4,1.42c-4.84,2-5.18,4.19-9.94,6.39a34.1,34.1,0,0,1-7.82,2.27c-4.75,1-5.95.49-7.38,1.56s-3.07,3.91-2,11.22l96.73,133.52c1.73,5.54.83,8.38-.29,9.94-1.56,2.19-3.71,2.12-6.25,5.68a12.72,12.72,0,0,0-2.13,4.55,12,12,0,0,0-.14,4.54c.35,2,1,2.15,1,3.56a6.3,6.3,0,0,1-2.13,4.68c-2.1,1.86-3.89.52-6.81,1.56-2.7,1-4.88,5-9.24,13.21a18.61,18.61,0,0,0-2,5.26,21.89,21.89,0,0,0-.29,5.11c.15,6.43,1.24,7.73.14,10.51a11,11,0,0,1-2.41,3.56c-.92,1-3.23,3.47-6.53,4-3.58.55-5.26-1.69-6.68-.57s.07,4.2-2,6.68a5.8,5.8,0,0,1-2.56,1.7c-4.31,1.72-14.95,10-22.44,15.91,0,0-11.29,8.84-32.1,35.51-2,2.54-4.51,4.58-6.67,7a9.76,9.76,0,0,1-3.56,2.7c-.8.34-1.62.53-4.4.71a44.27,44.27,0,0,1-6.53.14c-4.25-.32-4-1.18-7-1.13s-3.21.94-6.82,1c-2.44,0-4.17,0-5.26-1.14s-.55-2.11-1.84-3.69a7.38,7.38,0,0,0-2.42-1.84c-2.24-1.23-3.88-1.21-6.25-1.71-3.4-.72-3.38-1.46-5.82-2s-6.64.74-15.06,3.27a26.19,26.19,0,0,0-5.82,2.27c-3.41,1.89-3.05,3.14-5,3.69-3.34,1-4.79-2.44-11.22-3.12a10.28,10.28,0,0,0-5.83.57c-1.38.65-1.61,1.28-4.11,2.84a41.74,41.74,0,0,1-3.7,2,57.65,57.65,0,0,1-5.54,2.55c-2.57.93-5.73.83-11.93.57s-7.11-.71-7.67-1.13c-2.19-1.67-2.83-4.6-3.69-8.53-1-4.36-.34-5.67-1.85-7.24-1.29-1.35-2.06-.72-5-2.84-1.77-1.29-2.81-2.49-3.55-2.13-.4.19-.28.63-1,2a5.93,5.93,0,0,1-1.28,1.84c-.61.52-1.36.68-3,.71a16.38,16.38,0,0,1-7.24-1,26.34,26.34,0,0,1-2.84-1.56c-2.91-1.6-6.84-3.75-11.22-3.27-1.31.14-3.13.34-4.26,1.7s-.5,2.53-1.56,3.56-2.62.27-5.83.71a16.59,16.59,0,0,0-6,2.13c-2.29,1.2-4.64,2.45-4.83,4.4,0,.24,0,.53,1,2.84,1.49,3.39,2,4,2,5.26a4.23,4.23,0,0,1-1.28,3c-2,1.63-4.58-.74-7.24.85-1,.57-1.51,1.41-2.56,3-1.18,1.78-.89,2.09-1.85,3.41-1.47,2-2.47,1.74-3.69,3.55a6.16,6.16,0,0,0-1.28,4.26c.4,2.35,2.69,2.48,3.7,5.26a7.82,7.82,0,0,1,.14,4.26c-.6,3.13-2.91,6.77-4.83,6.53s-1.92-4.15-4.26-4.54c-1.58-.26-2.13,1.44-4.69,1.56-.4,0-2.87.09-4-1.42-.92-1.26,0-2.4-.85-3.55a3.87,3.87,0,0,0-4.83-.71c-1.85,1.36-1.32,5.36.43,7.53,1.29,1.6,2.42,1.16,3.26,2.7,1.46,2.63-.58,6.22-.85,6.67a6,6,0,0,1-2.55,2.7c-1.83.85-3.72.21-6.68-.85-3.7-1.32-3.8-2.14-6.39-2.7-1.6-.34-1.58,0-5.83-.14-4.48-.11-6.75-.18-8.23-1.14-2-1.31-2.07-2.87-3.55-3-1-.07-1.5.53-4.27,3.12-3.86,3.62-4.5,4.05-4.54,5.12a4.39,4.39,0,0,0,2.84,4.12c1.43.4,2.32-.64,3.27-.15,1.42.75,1.09,4,1,5.12-1,10.85,2,17.53-.43,18.46-1,.4-1.27-1.12-3.69-1.7-1.78-.43-3.25,0-11.65,3.12l-2.27.86c-6.1,1.92-9.1,0-11.08,2a4.46,4.46,0,0,0-.71,5.12c1.26,1.79,4.19.41,7,1.7,4,1.89,4.88,8.3,5.12,9.8.5,3.21-.17,4.72,1.27,6.82,1,1.49,1.83,1.41,3,3.41a16.62,16.62,0,0,1,1.56,4.54c.32,1.27.3,1.54.14,1.71-.68.7-3.46-.84-5-1.85-2.75-1.84-2.61-2.8-4.83-3.83a11.31,11.31,0,0,0-4.69-1,19.93,19.93,0,0,0-4,.57c-5,1-5.14,1.32-6,1-2.53-1-3.43-5.15-3.55-5.69-.47-2.16,0-3.48-1-4.26-.73-.59-1.57-.27-3.27-.14-4.52.36-5.47-1.2-7-.28-1.76,1.08-.39,3.23-2.42,7.81-1,2.27-1.57,2.26-3.12,5.54s-1,3.35-2,4.83c-1.29,1.94-2.61,2.38-7.53,5.54-1.87,1.2-3.36,2.21-4.26,2.84l-75.7.57L1758.29,1244l-.42-4.83a16.11,16.11,0,0,0,2.27-2.41c1.09-1.45,1.78-2.35,1.56-3.27-.17-.74-.81-1-3-2.27-2.4-1.46-3.6-2.2-3.7-2.84-.25-1.74,3.47-2.94,3.13-4.55-.18-.83-1.33-1.29-2.7-1.84a9.71,9.71,0,0,0-3.12-.71l-210.93-44c-1.06-2.38-2.36-3.13-3.13-3.41-1.31-.47-1.93.09-5.82.29-2.24.11-2.46-.06-3,.28-1.75,1.14-1.77,4.55-1.28,6.82.62,2.84,2,3.49,1.56,5.11s-2.4,2.68-4,3.41c-3.52,1.64-5.27.75-8.81,2a16,16,0,0,0-5.26,3.13c-4.24,7.75-5.93,8.47-6.67,8.23-1.29-.4-1.56-4.29-1.71-6.39-.23-3.31.31-5-1-7a4.86,4.86,0,0,0-2.13-1.84c-1.31-.54-2.15-.08-5,.42-3.58.63-3.88.18-5.54.85a10,10,0,0,0-3.7,2.7l-3.12,22.3a91,91,0,0,0-13.35,4.26c-3.45,1.42-5.29,2.46-6.11,4.41-.65,1.54-.32,2.84-1.42,3.69s-2.32-.06-4.4.43c-3,.69-3.13,3.28-5.4,3.69-2.92.53-4.29-3.47-6.39-3.13-4.32.71-2.11,18.12-10,22a8.26,8.26,0,0,1-4.68.71c-2.85-8.91-6.2-11.46-8.81-12.07-1.89-.45-4.31-.1-5.11-1.56-.91-1.67,1.39-3.61.42-5.54-.55-1.11-1.62-1.11-4.12-2.42a24.37,24.37,0,0,1-4.26-2.84l-47.58-.57c-.2.75-2.28,8.2-6.82,8.81-.69.09-2,.1-6.1-2.42a50.88,50.88,0,0,1-8.53-6.53l-56-.71c-.14,1.66-.28,3.31-.43,5l-80,.14-10.37-9.94-55-.71q-.07,5.33-.14,10.65l-23,.43c.19,1,.38,2,.56,3l-16.76.57c-.19-1.42-.37-2.84-.56-4.26l-316.18-5.11c-.84,2.39-2,6.83-.71,11.22a19.76,19.76,0,0,0,2.41,5.54c1.09,1.51,1.95,2.05,2.13,3.41.16,1.14-.29,1.92-1.42,4.11-2.75,5.38-2.36,5.27-3,5.83-2.44,2.22-4.73.47-7.39,2.41-2.1,1.55-2.6,4.07-3.26,7.39-1.21,6.08.9,7.15-.71,11.79-.85,2.43-1.74,3-2.84,6.67-.69,2.28-.66,3.1-1.14,5a27.74,27.74,0,0,1-4,8.67c-3.09,4.32-5.41,4-9.37,9.37-2.42,3.3-2.23,4.34-2.13,4.69.83,3,7.12,2,8.8,5.68,1.28,2.76-.89,6.4-1.56,7.53-1.88,3.16-3.59,2.84-5.4,6a13.89,13.89,0,0,0-1.7,7.24c0,3.8,1.55,6.46,3.13,9.37,2.46,4.57,6,11.09,8.52,17.19,2.7,6.47,4,9.7,4.83,13.49a23.64,23.64,0,0,0,2.41,7.25,18.12,18.12,0,0,0,4,5.25c3.87,3.34,9.33,4,16.62,4.83,1.55.19,3.31.88,6.81,2.28.78.31,1.66.67,1.85,1.42.38,1.44-2.1,3.19-2.41,3.41-2.59,1.81-4.26,1.07-7.11,2.13s-4.51,3.07-6.53,5.54a23.77,23.77,0,0,0-4.54,8.66c-.65,2.42-1.76,6.57,0,10.94,1.27,3.16,3.45,4.94,5.39,6.53,1.77,1.45,3.46,2.42,13.21,6.82,3.9,1.76,4.75,1.92,5.68,3.12a9.91,9.91,0,0,1,.43,10.8c-2.09,3.14-4.84,2.42-7.81,6.39a14.2,14.2,0,0,0-2.13,4.12l1.28,43a16,16,0,0,0,3.69,9.09c.89,1,1.08.92,2.56,2.41,2.28,2.31,4.82,4.88,6,8.67a15.2,15.2,0,0,1,.29,7.38c-.84,3.92-2.58,4.07-3.84,8.38a20.52,20.52,0,0,0-.57,8.24,21.77,21.77,0,0,0,3,8.24c2.47,4.32,4,4.17,4.82,6.82,1.16,3.71-.82,7.35-2.84,11.08-2.22,4.09-3.53,4.46-8.8,11.64-4.06,5.52-4.61,7.1-4.83,7.81-.43,1.35-2.09,6.6.57,11.65.66,1.27,2.36,4.5,5.54,5.4,1.47.42,2.18,0,3.12.71s1.43,2.14,1.42,7c0,5.33,0,8-.85,10.51-1.25,3.77-2.5,3.78-2.84,6.53-.42,3.36,1.1,6.11,2.55,8.67,1.58,2.77,4,5.2,8.81,9.94,3.83,3.79,4.9,4.57,7,7.1.56.69,1.33,1.95,4.4,6.39.54.78,1,1.42,1.28,1.85l-22.16,22.87a38.71,38.71,0,0,1-6.67-3.27,26,26,0,0,1-3.55-2.55,24.26,24.26,0,0,1-3-3.13l-37.07-39.91a25.55,25.55,0,0,0-1.13-6.11,49.83,49.83,0,0,0-2.84-6.25,62.33,62.33,0,0,0-3.56-6.67,45.32,45.32,0,0,1-2.69-4.12c-.39-.69-.81-1.51-1.42-2.84-.32-.7-1.58-3.48-2.56-6.4-3-8.85-2.47-16.16-6.11-17.89-2-1-4.76.55-7.81,2.13-3.89,2-4.74,4-6.82,3.69-1.17-.16-1.64-.88-5-5-4.73-5.81-5-5.79-5.54-7.1-1.24-2.82-.58-3.79-1.42-8.53-.73-4.09-1.22-6.84-2.84-9.37-3.24-5.06-10-7.79-16.19-7.24a18.15,18.15,0,0,0-8,2.69q-.13-13.77-.28-27.55-12,12.5-24,25a16,16,0,0,1-8.23-2.7,11.66,11.66,0,0,1-5-7.24c-.82-3.82,1-5.35,0-6.68-1.36-1.87-5,1-10.36-.14-3.9-.86-3.86-2.79-10.94-5.54-3.66-1.42-4.94-1.4-5.82-1.28-3.17.44-4.09,2.64-6.68,2.84-1.49.12-3.68-.42-6.53-3.55l-44-1.28c-.15-.37-2.64-6.25-6.67-6.39-2.23-.08-4.09,1.64-7.25,4.54a36.17,36.17,0,0,0-3.69,4l-31-.57-8.67,8.53-27.41-1L462.33,1559l-12.21-.42-.43,14.2-10.65-.71c-.24-.65-.9-2.14-2.13-2.42-.81-.18-1.83.18-3.84,2.28-4.17,4.38-4,7.37-6.39,8.09-.51.16-1.1.2-5.54-1.84-4.93-2.27-7.39-3.41-9.51-4.83-3.32-2.23-4.5-3.74-7.25-4a5.92,5.92,0,0,0-3.41.57c-2.21,1.2-2.83,3.84-3.26,5.25-2.18,7.12-9.07,14.36-14.63,15.2-.89.14-2.32.2-4.83.71-2.79.58-2.95.9-4.83,1.14-2.69.34-2.9-.25-5.68.14a12,12,0,0,0-4.55,1.42,5.45,5.45,0,0,0-2.55,2.42c-.23.51-.53,1.53.14,3.83,1.18,4.07,3.18,4.52,3.12,6.68,0,1.7-1.31,2.13-3.26,5a29.53,29.53,0,0,0-3.27,7c-2.3,7,.84,9.47-1.71,15.76-.76,1.9-1.86,4.5-4.26,5.26a7.94,7.94,0,0,1-6.67-1.56c-1.1-.87-1.59-1.78-3.27-2.56a8.23,8.23,0,0,0-2.56-.71c-.57,0-3-.28-4.68,1.14s-.76,2.64-2,4c-1.65,1.79-5.55,2.19-7.53.57-2.45-2,.1-5.42-2.27-10.79-.4-.89-2.45-5.53-6.82-6.68a8.64,8.64,0,0,0-6,.57,12.86,12.86,0,0,0-1.84,1.42c-2.78,2-6.35,1.55-9.66,1.14s-5-.63-6.54-2.13c-1-1-1.36-2.23-2-4.55-.9-3.34-2.48-9.23.14-11.5.92-.8,1.75-.64,2.41-1.71.44-.71.55-1.57.14-4.12-.5-3.16-.76-4.74-1.42-5.4-2.1-2.09-7-1.5-8.94,1-.69.86-.84,1.76-1.14,3.55-.75,4.45.58,5.62-.43,8.1-.05.13-1.45,3.41-4.68,4.11a6.27,6.27,0,0,1-5.12-1.13c-2.26-1.81-1.42-4.2-3.69-5.4a6,6,0,0,0-3.55-.43,8.34,8.34,0,0,0-2.42,1c-2.83,1.52-2.75,2.19-3.83,2.41-2.47.52-3.93-2.74-5.68-2.13-1.34.47-.81,2.5-2.7,5.12a10.51,10.51,0,0,1-4,3.26c-.59.29-4.78,2.22-8.52.29-3.3-1.7-4.4-5.46-5-7.39-1.14-3.85-.07-5.66-2-8.66a7.94,7.94,0,0,0-3.13-3,8.44,8.44,0,0,0-5.39-.56c-2.7.49-2.89,1.68-5,1.7a7.2,7.2,0,0,1-4.69-2c-.54-.47-2.93-2.56-2.7-5.11.17-1.83,1.49-1.86,2.41-4.4.67-1.83.57-3.42.43-5.69a23.19,23.19,0,0,0-.85-5,21.51,21.51,0,0,0-5.82-9.51c-1.85-1.72-3.55-2.57-7-4.27-5-2.48-5.94-2.13-12.65-4.82-7-2.81-8.46-4.19-10.51-3.27-3.23,1.45-2.56,6.23-5.25,6.82-1.69.37-3.59-1.56-7.39-5.4-3.18-3.23-4.77-4.87-4.69-6.53.12-2.29,2.28-2.44,3.84-6.54.74-1.93.32-2.07,1.28-4.83,1.19-3.42,2.09-4,1.7-5-.67-1.69-3.64-.71-7.24-2.84-.49-.29-4.61-2.73-4.4-5.4.24-3.11,6.13-3.21,7.38-7.38.88-2.94-1.12-6-1.7-6.82-2.08-3.12-4.18-2.74-10.23-7.39-3.57-2.74-4.3-4-4.4-5.25-.22-2.51,2.05-4.52,1.56-5s-2.1,1.45-5.11,2.41c-1.35.43-4.75,1.51-7-.28-1.88-1.53-2.81-4.62-1.71-6.11,1.38-1.87,5.54-.7,5.68-1.42s-3.92-1.09-6.25-4.26a9.7,9.7,0,0,1-1.7-4.69c-.29-3.15,1.25-4.16.42-5.82-.72-1.46-2.6-2.07-5-2.84s-3.68-.66-3.83-1.28c-.25-1,2.86-1.6,4.12-4.26,1.1-2.34.55-5.76-1.14-6.68-2.11-1.15-4.65,2.37-6.53,1.28-.89-.52-1-1.68-1-10.8a9.09,9.09,0,0,1,.29-2.69c.46-1.67,1.13-2,1-2.7-.26-1.43-2.8-1.07-3.83-2.84-.19-.33-.51-1,.42-5.4.79-3.68,1.34-4.72.85-5.11s-1.23,0-5.68,2.69c-4,2.41-3.66,2.39-4.4,2.7a12.3,12.3,0,0,1-9.52,0,12.52,12.52,0,0,1-6.25-6.1l-24.28.28a13.33,13.33,0,0,1-4.27,4,9.69,9.69,0,0,1-5.54,1.7c-3-.19-3.77-2.15-5.82-1.56-.33.09-.52.2-3.12,2.41s-2.62,2.28-2.84,2.42c-1.44.89-4.57.41-12.08-5.83l-18.46-16.47L0,1394.39a26.26,26.26,0,0,1,1.28-7.67,28.32,28.32,0,0,1,3.41-6.82,83.3,83.3,0,0,0,8.8-19.74c1.73-5.24,1.87-7.34,1.14-9.38-1.14-3.19-3.28-3.07-4.26-6.1s.8-4.35,2.27-11.94a66.13,66.13,0,0,0,1-7.81c.53-7.15-.55-7,.14-11.36.72-4.64,2.34-7.5,2-11.22a12.39,12.39,0,0,0-1-4.26c-.76-1.69-1.38-1.92-1.28-2.56.32-1.91,6-.64,9.38-3.83,1.81-1.7,1-2.78,3.41-9.66,2-5.72,2.8-5.57,3.26-8.52a16.22,16.22,0,0,0-2-11.23,16.19,16.19,0,0,0-10.52-7q-.63-11.85-1.27-23.72l-8.95.57c.57-2.79,1-5.17,1.28-7,1.21-7.51,1-9.25.28-10.79-.92-2.09-1.71-1.75-2.7-4-1.16-2.62-1.76-6.9.29-9.37,1-1.24,2.11-1.33,9.37-2.42,8.62-1.3,10-1.62,10.94-1.85a52.71,52.71,0,0,0,9.66-3.4,59.05,59.05,0,0,0,8.94-5.4c4.34-3,6.51-4.46,7.39-6.11,1.29-2.43.51-3.48,1.28-10.37.51-4.57.77-6.86,1.42-8.09,2.05-3.88,6.45-5.94,12.92-9,2.51-1.17,5.15-2.2,6.25-4.83a7,7,0,0,0,.43-3.55c-2.21-20.44-2.08-27.55,0-32.81,1.56-4,4.64-6.88,5.82-8.1a34.34,34.34,0,0,1,8.24-6.25q-.13-20-.28-39.91L79,1045.83c-2.85.62-8.12,1.33-12.5-1.14-.89-.5-2.92-1.65-3-3.27,0-1.06.82-1.3,1.85-3.26.61-1.17.57-1.59,1.56-5.12.57-2,.86-2.9,1.14-3.83,2.24-7.7,4-23.4,1.42-30.11a9.23,9.23,0,0,0-1.57-2.7c-1.62-1.92-3.48-2.41-5.11-3.13-5.28-2.33-4.5-5.5-9.66-7.67A30.4,30.4,0,0,0,47,984.33c-5.32-.86-6.92-.48-10.08-1.71-2.12-.82-4.89-1.91-5.11-3.83-.28-2.44,3.6-5.42,6.1-4.83.52.12,1.68,1.07,4,3,1.73,1.43,1.83,1.56,2.27,1.7,1.9.6,4.26-.53,5.69-2,2-2.08,1.66-4.29,3-4.55,1-.2,1.36,1,3.83,2.27,1.48.75,3.08,1.57,4.41,1,1.16-.51.89-1.54,2.55-2.84a5.45,5.45,0,0,1,2.84-1.28,4.83,4.83,0,0,1,3.55,1c1,.88,1,1.91,1.71,2s1.13-.63,1.42-1c1.25-1.58,3.08-2.61,4.4-4.12,5.77-6.61,8.89-10.19,13.35-11.22a12,12,0,0,1,4.55-.15q1.27-4.26,2.56-8.52,2.55-1.79,5.25-3.55a203.63,203.63,0,0,1,25.28-14.06l21.31-.43,8.66-3.26,28-.29,6.81-5.11,30.54.85,7-1c-.18-.86-1.24-6.43,2.42-10.94.65-.81,3.08-3.8,6.67-4.12,2.63-.23,3.16,1.21,6.82,1.14a35,35,0,0,0,5.68-1c2-.43,3.67-.84,4.83-1.13l.57-14.92,6.82-6.53,15.62.14a39.51,39.51,0,0,0-2.7-6.68c-1.83-3.53-3.35-5.11-4.4-8.8-.56-2-.91-3.27-.43-4.69.87-2.55,3.74-3.5,6.11-4.54,3.83-1.69,9.18-6.34,19.89-15.63,1.67-1.46,3-2.66,3.83-3.41q-.07-7-.14-14.06l10.65-.14a72.94,72.94,0,0,1,3.84,6.39c.89,1.68,1.35,2.72,2.41,3,1.39.35,3.05-.82,3.84-2.13a5.83,5.83,0,0,0,.42-4.26c-1.09-5-3.75-9.36-5.25-12.07-2.94-5.31-5.41-9.78-5.26-15.34a76.66,76.66,0,0,1,1.71-8c1.59-6.72,2.4-10.12,3.41-11.64,1.93-2.95,3-2.27,8.66-7.82,5.25-5.12,5.42-6.73,5.4-7.52-.09-3-3.15-5-6.11-6.82a29.56,29.56,0,0,0-3.69-2L321.57,744a45.37,45.37,0,0,0-8.66-5.12c-4.86-2.16-8.26-2.62-9.52-5.54a8.46,8.46,0,0,1-.28-4.4c.35-3.42,1.76-4.14,2-7.53a13.43,13.43,0,0,0-.43-4.4c-.95-3.48-2.92-4.74-2.41-5.54.27-.43,1.13-.53,7.38,1,4.67,1.14,5.35,1.47,7,1.28,1.88-.22,1.91-.8,5.4-2,3.86-1.31,4-.66,6.53-1.7,1.51-.61,3.39-1.88,7.11-4.4,3.54-2.41,4.09-2.94,5-2.7,1.75.48,1.17,3.06,4.12,6.25a35.78,35.78,0,0,0,3.69,3.12c.66.52,2.42,1.91,3.41,2.56a14.81,14.81,0,0,0,12.64,1.28,15.3,15.3,0,0,0,7.24-6c1.21-1.7,1.91-3.76,3.27-7.81,1.81-5.39,1.55-5.91,3.27-11.08s2.22-5.34,2.27-7.24c.1-4-1.92-5.81-3.27-9.52-1-2.77-.91-4.6-.14-14.06,1.47-17.91,1.83-19.73.43-22.3-2.85-5.23-8.69-2-12.79-7.67-1.52-2.12-2.52-6-4.54-13.64-1.14-4.34-1.4-6.2-3.27-7.67-2.53-2-5-.85-7-3.26-1.21-1.48-.67-2.36-2.27-5a18.6,18.6,0,0,0-3.13-3.69,19.84,19.84,0,0,1-4.68-9.09c3.29-8.52,8.32-11.7,10.37-12.78a30.62,30.62,0,0,1,18.18-3.13c2.37.38,5.09,1.16,6.1-.14s-.32-4.06-1.13-5.68c-2.91-5.81-6.69-6.89-6.25-9s4.77-1.22,9.09-5.11c3.06-2.77,2.14-4.37,4.69-6,4-2.51,7.35.79,12.07-1.28,2.06-.9,1.77-1.68,6.39-7.1,6.47-7.59,8.33-7.56,10.09-11.79,1.34-3.22.51-3.84,2-9,2.34-8.1,3.51-9.54,4.41-10.22s3.44-2.32,8.52-1.42a23.19,23.19,0,0,1,8.52-6.11c4.57-1.85,6.19-.67,9.09-2.84,3.05-2.28,2.71-4.66,6.82-8.95,2-2.12,3.58-1.93,4.12-3.55,1-3.16-2.62-6.72-2-7.25.39-.32,2.19.7,3.55,2.42,2.13,2.69,1.17,4.57,3.27,8.81,1,2,1.6,3.23,3,3.83,1.85.8,3-.4,5.26.43,1.67.62,3.36,2.2,3.12,3.41s-2.81,2.05-4.54,2.13c-2.08.09-3-.75-3.7-.15-1.05.88.32,3.07-.85,4.27-.56.57-1.42.58-3.12.56-3.15,0-4-.79-4.83-.42-2.13,1-3.6,7.4-.14,10.93,2.62,2.69,7.42,3,11.07.29l13.36.85c5.56.55,8.09,1.92,9.37,3.13a4.09,4.09,0,0,0,2.42,1.27,4.82,4.82,0,0,0,3.26-1.42c2.81-2.09,6.69-3,8.81-2.55,2.52.55,3.52,3.27,5.25,6.39,0,0,6.49,11.66,18.61,18.32,5.13,2.82,4.82.87,9.8,3.55,12.39,6.67,21.69,22.71,26.71,23l2.13.14a27,27,0,0,1,5.11.57c2.42,1.09,3.32,4.13,3.69,5.4.71,2.4,0,2.86.52,4,1.69,3.61,9.84.41,21.92,2.71,5.36,1,7.29,2.31,10.09,1,3.32-1.57,5.46-5.71,5.54-9.37.06-3-1.31-3.24-3.27-9.95a65.73,65.73,0,0,1-1.7-8c-1.32-7.42-.74-8.3-.29-8.67,1.21-1,3,.42,6.54,1.28,4,1,7.42.42,14.34-.71,7.52-1.22,6.82-2.07,12.22-2.7,6.49-.75,8,.41,13.78-.14a41,41,0,0,0,13.63-3.83l-1-17-5.83-3c-.18-8.38-.41-16.79-.71-26.14-.35-11.07-.49-14-2.41-17.32a19.61,19.61,0,0,1-3-7.82,17.89,17.89,0,0,1,.14-5.54l7.67-8,.71-31.11a7.29,7.29,0,0,1-5.26-5.54c-.11-.67-.46-2.74.71-3.83,1.51-1.42,4.75-.19,11.22,2.27a26.39,26.39,0,0,1,5.83,2.7c3,2,2.87,3.09,5.11,4.4,1.23.73,1.83.73,9.52,1.42,6.19.56,7.53.71,9.09-.28,1.93-1.23,1.69-2.62,3.26-3.12,3-1,6.83,3.05,8.53,4.82,1.15,1.21,1.15,1.42,7,9.81a22.08,22.08,0,0,0,6,6c2.08,1.37,2.83,1.31,3.27,1.14,1.58-.64.73-3.48,2.56-6.54a10.81,10.81,0,0,1,5.25-4.26c.77-.32,5.52-2.21,9.09,0,1.42.88.92,1.34,4,4.55,3.3,3.46,4.55,3.62,5.25,3.55s1-.42,2.7-1.56c0,0,1.25-.83,4.41-2.56,1.65-.91,4.33-1.77,8.8-1.42a11.2,11.2,0,0,0,1.56-7.1c-.38-2.57-1.62-3.22-4.26-8.1-1.89-3.52-3-5.64-3.26-8.52a14.59,14.59,0,0,1,.85-6.25q-.42-12.36-.85-24.72L774,351.54c.67-1.7,1.48-3.91,2.27-6.53a47.08,47.08,0,0,0,1.42-5.4c.89-4.85,0-5.8,1.28-8.38.9-1.81,1.89-2.45,1.56-3.41-.46-1.31-2.65-1-3.83-2.69-.44-.64-.66-1.44-.57-3.27a17.61,17.61,0,0,1,2.41-8.95,18.64,18.64,0,0,1,8.24-6.82c18.43-8.71,28.7-11.58,39.63-19.17,2.33-1.62,4.44-3.4,8.66-7,11-9.3,17-16.07,21.88-20.88a126.7,126.7,0,0,1,28.69-21,70.41,70.41,0,0,0,10.94,2c4.36.44,6.33.22,9.51,1.57,2.16.91,2.65,1.61,5.68,3a40,40,0,0,0,6.54,2.27c20.21,5.42,30.3,6,37.64,12.5a43.45,43.45,0,0,0,7.1,5.4,41.57,41.57,0,0,0,8.24,3.83c4.19,1.48,11.27,4.78,23.86,12.93,7.58-3.62,12.18-5.14,15.06-5.82a36.86,36.86,0,0,0,7-2.13c2.4-1,2.57-1.46,4.26-1.85,2.44-.56,4-.11,5.25-1.28a4,4,0,0,0,1.14-2.13q.42-24.15.85-48.29,1-18.12,2-36.22l2.41-3,70.17-1a6.2,6.2,0,0,1,3.13-3.27c2.57-1,4.59.86,8.94.29a15.44,15.44,0,0,0,3.27-.85,24.63,24.63,0,0,0,9.23-6c3-3,24.86-17.58,96.45-62.21l9.37-4.55,48-11.22,16.9-2.84L1397.23.43,1481.17,0l12.36,23.58,8.38-2.56Q1520,11,1538.13,1L1680,50.85,1663.41,71l15.48,28-18.75,38.35-1,33.1,64.34,142.74,7.1,2.28a28.09,28.09,0,0,1,2,8.09,29.51,29.51,0,0,0,.71,6.11,13.25,13.25,0,0,0,2,4.69c1.58,2.15,3.21,2.46,5.68,4.12,2,1.36,3.3,2.85,5.83,5.82,5.78,6.79,6,10,12.21,18.47a97.37,97.37,0,0,0,6.54,8,107.17,107.17,0,0,0,10.79,10.79c2.12,1.78,3.6,2.84,4.83,5.12,1.31,2.43.89,3.61,2.41,5,1.86,1.65,4.7,1.89,5.83,2,2.27.19,3.28-.3,3.69.28.65.93-1.41,2.88-2.84,5.4-2.57,4.53-3.32,11.3-.43,16.19a14.45,14.45,0,0,0,5.83,5.26c1.25.67,3.61,1.72,8.38,2s5.91-.56,13.07-1.42c1.54-.19,0,0,14.48-.57,3.16-.13,5.69-.24,8,1.42a8.49,8.49,0,0,1,3.12,4.54c.33,1.31,0,1.73,0,4.83,0,2.77,0,4.16.29,4.83.92,2,3.58,2.46,10.79,3.55s10.74,1.63,11.65,1.71c7.17.61,8.53,0,12.5,1.28a37.17,37.17,0,0,1,7,3.26c4,2.29,4.28,3.22,7.24,4.83,5.34,2.9,6.69,1.11,9.66,3.27,5.54,4,5.54,13.69,5.54,15.62,0,5.93-2,9.26,0,10.94,1.49,1.27,3.16-.17,7.1,1,2.58.77,2.51,1.58,6.11,3.41,4.91,2.5,6,1.49,9,3.55,2.47,1.75,1.76,2.54,5.25,6.4C1938,498.75,1940,500.93,1943.23,502Z"/></g></g></svg>