<svg xmlns="http://www.w3.org/2000/svg" viewBox="0 0 2287.38 2680.1"><g id="Layer_2" data-name="Layer 2"><g id="Burundi"><path d="M2024.31,1303.43c1.58,2.1,6.57,8.72,10.16,14.06a12.12,12.12,0,0,1,1.69,3.22c1.18,3.56-.4,5.07.68,8.3.22.66,1.41,4,3.9,4.57,1.39.34,2-.45,4.74-.85a18.58,18.58,0,0,1,4.91,0c3.1.51,4.2,2.55,7.45,5.25s6.58,4.29,13.22,7.46c3.91,1.86,5.38,2.27,6.26,4.06.8,1.62.62,3.34-.67,8.13-1.72,6.37-3.22,10.34-3.22,10.34-5.15,13.58-6.76,15.34-8,16.43a13.62,13.62,0,0,1-1.81,1.38,18.85,18.85,0,0,1-5.65,2.68c-2.06.65-6.29,4.06-15.92,16.77l-47.77,32.86a53.82,53.82,0,0,0-11.85,4.4,60.52,60.52,0,0,0-6.44,3.9c-7.19,4.83-10.09,7.47-14.06,10.33a89.63,89.63,0,0,1-19.14,10.34,117.25,117.25,0,0,1-16.26,5.25c-9.37,2.39-9,1.24-14.23,3a48.11,48.11,0,0,0-19,12c-1.32,1.4-2.85,3.47-5.93,7.62-4.29,5.8-6,8.8-10.16,13.72-1.69,2-3.14,3.6-4.06,4.58l-14.06-13.38a44.12,44.12,0,0,0-16.43,7.79c-3.88,3-5,5-11.18,10-7,5.62-7,4.21-9.83,7.12-7,7.18-4,12.79-11.68,21.17a32.93,32.93,0,0,1-7.29,6.27c-5.57,3.44-8.84,2.93-10.33,5.92a8.13,8.13,0,0,0,2,9.15c2.63,2,6.21.64,7.12,2.54.27.57.19,1.22-.85,3.56-2.19,4.91-3.44,5.59-4.4,8.47-.59,1.75-1.7,5-.17,7.28,1.24,1.84,3.11,1.33,5.25,3.56a10.32,10.32,0,0,1,2.37,4.57c.11.38,2,6.92-1,12.37-2.13,3.88-8.42,6.65-21,12.19a27.37,27.37,0,0,0-8.13,5.59c-1.93,1.92-3.86,3.9-3.56,6.1.38,2.7,3.75,3,4.24,5.76.31,1.78-.81,3.3-3,6.27-2.76,3.63-4.56,4.82-7.29,7.79a55.59,55.59,0,0,0-5.59,7.45c-3.38,5.49-3.92,9.43-5.59,14.91-3.53,11.6-6.4,10.43-12.53,26.08-2.45,6.26-5.25,13.89-5.25,13.89s-5,13.51-9,14.74a16,16,0,0,1-4.71.34h0c-.65,0-1.45,5-1.7,7.62-.45,4.89.64,5.83,1.53,14.23.74,7,.14,7.72,1.35,10.5,1.81,4.13,3.52,3.33,6.1,7.79,3,5.22,1.36,7.5,4.91,13.72,1.45,2.53,1.44,1.66,3.56,5.08a55.28,55.28,0,0,1,5.76,12.71,49.47,49.47,0,0,1,1.52,6.09,53,53,0,0,1,.68,11.86c-.3,7.08-.45,10.62-2,13.38-2.27,4-7.31,8.43-12.7,8.13-4-.22-4.75-2.91-15.25-10.67-8.46-6.25-10.79-6.57-12.19-6.61-5.33-.12-6.22,3.67-12,3.73-5.44.06-10-3.19-12.7-5.08-5.08-3.6-5.34-6.08-8.47-6.44-2.53-.28-4,1.14-10,5.25-9,6.17-8.61,4.9-12.53,8.13-5.3,4.38-8.66,7.16-10.5,11.86-2.9,7.37,1.55,10.26-1.36,17.62-2.26,5.72-5,4.16-9.48,12.19-1.65,3-3,6.61-5.59,13.89-2,5.56-1.64,5.1-2.88,8.3-1.71,4.4-3,6.9-7.46,15.59-5.59,11-5.27,10.54-5.59,11-4.1,6-8.81,9.52-14.9,14a64.14,64.14,0,0,1-10.67,7c-8.62,4.28-12,3.06-17.11,7.45a23.37,23.37,0,0,0-6.61,9.32c-2.17,5.77.13,7.36-1.86,14.23-1.48,5.1-2.94,4.89-5.08,11.51-1.68,5.22-.8,5.43-2.37,9.49s-3.45,6.59-6.78,11.18c-2.73,3.77-3.17,3.83-5.93,7.79-4,5.74-4.53,7.73-4.74,8.64-.9,3.94.66,4.39-.17,8.13-1.13,5.13-4.26,5.12-5.25,10-.82,4.08,1.2,4.94,0,8.81-1,3.27-2.58,3.06-4.06,6.78-1.3,3.24-.38,4.1-1.36,8.8-.72,3.47-1.33,6.39-3.39,9-3.34,4.2-6.83,2.92-9.14,6.61-2.06,3.28-1.18,7.28-.51,10.33,1,4.41,2.35,4.89,6.77,13.21s5.22,12,5.42,14.74a20.1,20.1,0,0,1-.34,6.27c-1.13,5-4,7.57-8,12-9.22,10.45-8.58,13.75-15.24,17.79-2.57,1.56-5.85,3.48-9.49,2.71-2.69-.58-3.83-2.25-5.42-1.7-2.15.76-2.31,4.64-3,8.3-1.22,6-3.19,7.24-6.6,14.74-5.57,12.22-3.15,15.22-8,26.59-2.67,6.31-5.48,10.29-9.83,16.43-8.28,11.72-16.15,18.76-26.42,28-8.66,7.75-13,10.59-17.11,12.71-4.83,2.51-7.25,3.76-11,4.91-6.09,1.85-9.8,1.64-13.55,5.08a14.46,14.46,0,0,0-3.56,4.74c-1.54,3.4-.33,4.62-1.69,6.78-1,1.57-2.11,1.67-9.15,4.57-4.58,1.89-3.81,1.73-6.77,2.88a76.19,76.19,0,0,1-10.17,3.39c-5.48,1.34-5.86.19-7.62,1.35-3.48,2.3-2.58,6.6-5.08,12.71-1.88,4.59-4,6.2-7.45,10.5-10.29,12.91-7.12,18.79-19,37.6-2.25,3.57-3.86,5.72-5.42,9.83a52.38,52.38,0,0,0-3.05,18c-.25,9.76,1.58,14-1.53,16.94-2.21,2.08-4.72,1.41-5.59,3.56-1.09,2.7,2.57,4.56,2.88,9.65.16,2.55-.68,4.58-2.37,8.64a57.44,57.44,0,0,1-4.4,8.13c-3,4.88-4.49,7.32-5.59,8.47-2.59,2.68-4.2,2.72-14.23,6.94-10.43,4.39-10.21,5-12.7,5.09-7.88.3-13.25-5.49-14.91-3.73-1.13,1.2,1.62,3.62.85,8.47a16.15,16.15,0,0,1-3,6.77,14.36,14.36,0,0,1-2.88,3c-2.53,1.91-5.08,2.11-9.32,2.54-4,.41-8,1-12,1.36-6.58.64-9.87,1-10.51,1.18-7.9,2.68-12.23,10.25-13.55,12.88-2.31,4.62-1.19,5.64-3.72,11.68a53.84,53.84,0,0,1-7.62,12.37c-6.09,7.18-13.41,10.13-23,13.89-11.8,4.6-13.71,3.2-31.68,9.48a124.94,124.94,0,0,0-14.56,5.93c-8.55,4.19-12.82,6.29-16.77,10.34-2.44,2.49-3.6,4.46-6.78,5.92a35.31,35.31,0,0,0-6.77,3.39,10.06,10.06,0,0,0-2.2,1.7c-1.7,2.28-.34,4.84-.85,10.84-.21,2.49-.53,3-.85,3.38-1.33,1.52-3.73,1.17-7.45.85-9.28-.8-8.56.15-13.72-.85-4.92-.95-7.37-1.42-9-2.88-4-3.58-1.37-7.94-4.91-12.53-.64-.83-1.77-2-12.7-5.76-13.09-4.45-15.44-4.07-16.77-3.73-1.14.3-4,1.21-10,8.3a95.87,95.87,0,0,0-13.21,20.84c-5.72,11.74-4.63,13.23-9.15,19.14-4.31,5.65-7.38,9.66-12.87,11.52-3.73,1.25-7.37,1.11-10.67,4.4-1.75,1.74-1.17,2.22-3.22,4.91-4.45,5.85-8.65,5.52-9.48,9.15-.7,3,2.17,3.55,2,7.79-.15,4.65-3.65,5.82-3.22,10.16.1,1.05.86,2.57,2.37,5.59,2.26,4.52,3.31,5.22,3.9,8a12.08,12.08,0,0,1,0,5.59c-.69,2.62-2.17,4-5.59,7.46-7,7.11-6.17,6.92-7.46,7.62a16,16,0,0,1-13.88.68,18.91,18.91,0,0,1-7.63-6.95c-1.6-2.68-1.49-4.24-3.22-5.08-2.42-1.18-5.7.42-7.62,1.36-2.76,1.34-2.41,2-4.23,2.71-3.87,1.48-8-.54-11.69-2.38-2.5-1.23-4.94-2.47-6.1-5.08-.58-1.3-.26-1.65-.84-2.88-1.21-2.53-4.37-4.86-7.29-4.74-4.48.19-5.27,6.06-9.31,6.1-3.26,0-3.45-3.77-7.8-4.74s-6.08,2.38-11.51,1.52c-1.69-.27-1.26-.55-5.93-2.37a61.22,61.22,0,0,0-11.35-3.56c-3.5-.67-4.75-.46-8.47-1.52-3.19-.91-4.79-1.39-5.25-2.54-1-2.48,3.93-5.09,7.11-10.34,3.81-6.27,3.16-13.06,2.54-19.47-.67-7-2.67-11.68-6.6-20.67-4.72-10.79-7.09-16.18-11-21.17-8.41-10.69-18.92-16-27.1-20.16-2.67-1.35-.8-.26-13.89-6.1-15.9-7.08-19.9-9.24-24.22-13.38a54.72,54.72,0,0,1-8-9.82,63.72,63.72,0,0,1-5.59-11.35c-2-5.3-1.82-6.79-3.38-12a85.93,85.93,0,0,0-7.46-17.11,112.34,112.34,0,0,0-10.33-15.92,108,108,0,0,0-16.77-17.11q-.07-18.8-.17-37.6-9.48-10.92-19-21.85.42-26.34.85-52.68l-36.25-20.32q-1.27-18.81-2.54-37.61c-3.61.51-5.26-.38-6.1-1.18-2.33-2.25-.22-5.63-2.71-10.84-1.24-2.6-2.14-2.56-2.88-4.92a13.23,13.23,0,0,1,.34-8c2.35-7.7-9.06-22-13.89-28.11-15.39-19.45,5.56,6.06-28-36.76-8.85-11.32-12.26-15.59-14.56-23.21-2-6.65-1.34-9.76-4.75-16.09-4.54-8.46-8.25-7.56-11-14.9-2.87-7.66-.21-12.3-4.57-16.26-1.15-1.05-1.55-.92-6.77-4.75a37.91,37.91,0,0,1-5.26-4.23c-1.64-1.74-4.24-4.49-4.4-8-.11-2.43,1-3.9,2-5.93,3.14-6.35.27-8.72,1.87-21.85.79-6.5,1.72-7.74.84-11.18-.29-1.17-1.76-7-6.43-9.15-4.5-2.1-7.86,1-11-1.18-2.44-1.72-2.43-5-2.88-8.81-1.35-11.32-5-11.25-9.15-27.95a128.5,128.5,0,0,1-2.71-14.23l-58.95-104q-9.39-14.91-18.8-29.81-.75-15.07-1.52-30.15a5.08,5.08,0,0,1-5.93-2,4.82,4.82,0,0,1-.17-3.9,57.34,57.34,0,0,0-.85-24.56c-1.88-7.21-4.71-11.92-8.8-18.63-9.55-15.64-16.34-19.18-26.6-36.42-.7-1.19-3.39-3.48-4.06-7.28-.92-5.15,1.94-9.58,2.71-10.84,14.62-24,17.45-53.38,27.44-79.61,5.29-13.88,12.56-34.09,20.15-59.46q-4.65-50.73-9.31-101.46c-1.73-33.69-.4-46.5,1.52-51.15a46.68,46.68,0,0,0,2.37-7.12,54.67,54.67,0,0,0,1.53-11.51,67.61,67.61,0,0,0-.17-8.3q.09-28,.17-56.07l8-1.53c.65-8.62,1-25-4.91-40-2.57-6.52-5.18-9.85-7.79-12.2-3-2.72-7.32-4.33-15.76-7.45a138.48,138.48,0,0,0-19.31-5.93c-4.05-.9-1.85-.2-13-2.2-8.09-1.45-9.74-1.9-12.19-1-4,1.43-4.58,4.4-8.64,8.46-5.05,5-10.68,7-14.4,8.3-12.72,4.43-24.23,1.29-27.78.17-8.3-2.62-6.79-4.88-14.74-7.11-12.33-3.47-18,1.4-24-3.73-5-4.22-6.05-11.7-6.1-12a21.61,21.61,0,0,1,.17-6.44c.82-4.43,2.58-5.66,3.39-9.49.29-1.38.52-3.37-.34-8.3-1.27-7.3-3.31-11.75-4.74-15.92-2.23-6.5-6.75-19.65-1.53-25.24.66-.69,4.62-2,12.54-4.74,4.92-1.67,7.09-2.3,9.48-4.4,1-.86,2.31-2.24,4.75-7,4.3-8.31,6.46-12.47,5.76-16.94s-2.91-3.92-5.25-10.67c-1.83-5.24-.63-6-2.21-12-2.17-8.39-4.81-8.42-5.76-14.91a29.92,29.92,0,0,1,1.36-13.38c2.41-7.68,5.41-7.43,5.59-11.86.26-6.44-6.07-8-8.81-18.29-.53-2-.69-4.27-1-8.81-.74-10.44-1.16-16.37,1.36-22.53s5-4.94,6.94-10.67c1.56-4.55.41-6.47-.5-19.65-.86-12.34-.15-15.09,1.69-17.1,2.58-2.83,4.53-1.06,8.13-4.07,5.69-4.75,2.74-10.76,8.47-14.74,2.07-1.43,3.86-1.62,7.11-4.23a28.51,28.51,0,0,1,3.73-2.88c1.77-1.06,2.63-1.2,3.39-2.2.36-.48,1-1.59.85-4.07-.31-4.24-2.76-8-5.09-10.67-4.39-5.11-6.9-4.94-7.11-7.45-.26-3,3.14-5.89,6.77-9s4.51-2.67,5.93-4.74c2.67-3.9,1.86-8.82,1.53-10.84-1-6.24-3.81-6-4.91-11.69s1.49-7.1.17-13.72a17.47,17.47,0,0,0-3.22-8c-3.29-4.12-6.22-2.81-11.86-7.28-1.34-1.07-3.27-3.31-7.11-7.8-5.14-6-5.36-7-5.42-7.62-.54-5,5.5-7.76,4.23-11.18-.64-1.73-2.71-2.42-5.59-3.38a29.11,29.11,0,0,0-10.67-1.36c-13.05.36-12.59,1.07-16.26.68a34,34,0,0,1-14.57-5.25c-4.21-2.7-6.76-5.85-11.69-12-8.79-11-8.81-14.57-13.38-15.75-5.05-1.31-9.67,1.83-12.7-1.19a5.47,5.47,0,0,1-1.7-3.55c0-1.22.56-2,1.53-3.73a41,41,0,0,0,2.37-4.91c1.14-3.43-3.09-5.16-4.4-10.34-.56-2.18-.15-3,.34-8.13.78-8.38,1.17-12.57.33-15.07-2.52-7.53-12-11.18-15.92-12.7s-5.05-1.18-11.18-3.39a88.74,88.74,0,0,1-10.5-4.58,130.26,130.26,0,0,0-50.81-29c-1.72-9.15-4.82-13.92-7.46-16.6-.92-.94-2.79-2.65-2.71-4.91.1-2.58,2.63-3.55,4.41-6.44,1.22-2,1.58-4.07,1.35-10.33a143.37,143.37,0,0,0-1.86-18.13L84.86,684a38.84,38.84,0,0,0-.34-10.5c-.66-3.9-1-5.85-2.54-7.79-2.57-3.23-5.25-2.35-7.45-5.42-1.65-2.3-.46-3.23-1.69-7.79-.7-2.59-1.07-2.24-6.78-12.37-1.75-3.1-2.33-4.23-3.9-5.25a10.55,10.55,0,0,0-7.11-1.35,13.3,13.3,0,0,0-4.4,1.69c-3.13,1.56-5.93,1.66-11.52,1.86a59.6,59.6,0,0,1-16.94-2c-6.85-1.61-10.27-2.42-13.55-5.08a22,22,0,0,1-6.78-10L0,586.77l31.84-29.48,12.88.51q1.77-20.07,3.55-40.14l16.6-18.12q-1.35-4.67-2.71-9.32c-.9-2.32-1.8-4.63-2.71-7A24.59,24.59,0,0,0,63,475.65c1-3.68.21-4.33,1-8.64,1.25-6.7,3.7-8.21,2.54-11.35-.91-2.43-3.33-4-4.41-4.74-2.82-1.86-4.31-1.3-5.42-2.88-1.69-2.4-.06-6.27.51-7.62,1.06-2.51,2.29-3.53,6.27-7.79,3.81-4.08,5.71-6.12,6.27-7.12.3-.55,3.64-6.75,1.69-13.38-.83-2.8-1.65-2.47-4.4-8.13-1.84-3.77-2.76-5.66-3.22-8.13-.79-4.16.15-7.43,1.86-13.21s2.38-5.27,4.4-11.52c2.49-7.66,2.33-11,4.58-11.69,1.8-.55,2.72,1.34,8.13,2.55,2.53.56,3.8.84,5.08.5,2.92-.77,3.34-3.24,7.62-6.6a25.65,25.65,0,0,1,3.9-2.54c4.38-2.17,8.54-.85,14.23.17,13.38,2.38,14.59-.64,21.85,2.71a27.78,27.78,0,0,1,9,5.92c3.73,3.81,4.06,6.67,7.46,8s6.68-.05,8.3-.68c1.89-.74,3.62-1.84,10.84-9.32,4.64-4.81,5-5.48,6.77-6.26,5.41-2.4,10.92,0,11.35.16,3.51,1.58,4.8,4,7.79,7.8,5.42,6.9,9.32,11.88,14.91,14.22,2.47,1,8.36,1,20.16.85,5.37-.06,8.41-.25,12.53,1.19,3.8,1.32,5.63,3,9.15,5.59,7.71,5.6,13.39,9.72,20.49,11,5.06.91,9.42,0,18.13-1.87,5-1.05,8.22-1.77,12.19-3.89,4.95-2.65,5.08-4.3,8.81-5.42,4.31-1.3,8.07-.27,13.38,1.18a36.34,36.34,0,0,1,12.54,5.59c4.72,3.43,4.48,5.28,10.16,9,2.4,1.56,3.18,1.71,6.77,4.07,4.45,2.91,5.1,3.88,7.12,5.08,2.81,1.66,4.74,1.65,14.57,2.2,14,.78,16,1.13,18.46,2.71a19.11,19.11,0,0,1,6.6,7.79c1.8,3.8.69,4.76,2,10.33,1.57,6.55,3.55,7.07,5.76,15.42,1.27,4.84,1.19,6.86.67,8.64a22.41,22.41,0,0,1-3.38,6.26c-2.16,3-3.37,3.59-3.39,5.08,0,2.12,2.34,3.59,4.4,5.09,8.28,6,6.08,8.49,14.57,14.73,4.71,3.47,6.76,3.72,8.47,6.95.88,1.66,1.15,3.14,1.35,8.3.44,11.15.6,16.79-2,19.81-.87,1-.55.23-6.27,4.24-4.45,3.12-6.71,4.72-8.64,6.94s-5.45,6.3-4.23,9,6.64,2,7.79,5.42a5.74,5.74,0,0,1,.17,2.37c-.19,2.25-1.27,2.86-1.86,5.08a20,20,0,0,0-.17,4.41c0,3.15.05,4.72.51,5.25,1.27,1.48,3.54.2,8.47.85,3.09.4,4.64.6,5.59,1.52,3,2.88-.93,8.55.84,16.77a18,18,0,0,0,2,5.76c1.13,2,1.91,2.31,2.37,3.72.67,2.09-.16,4-1.36,6.78-4.35,10.25-4.26,11.28-4.06,12,.67,2.62,2.77,2.5,5.92,6.43,1.56,1.94,2.44,3.71,4.41,8.81,0,0,4.75,12.34,11.69,26.09a3.53,3.53,0,0,0,2,2c2.13.53,4.59-2.5,6.1-4.41,9.87-12.44,11.18-15.27,14.9-17.95,2.36-1.7,3.18-1.53,11.86-4.23a228.37,228.37,0,0,0,22-7.8,118.47,118.47,0,0,0,15.58-7.45c5.21-3.06,8.8-5.81,15.25-7.45a18.3,18.3,0,0,1,8.64-.51c2.38.49,3.69,1.36,8,4.07,10.1,6.41,11.58,7.21,13.89,8,3.3,1.07,6.52,2.11,9.48.67,1.57-.76,2.19-1.79,5.42-3.55a24.17,24.17,0,0,1,4.07-1.87,16.55,16.55,0,0,1,7.62-1c3.48.56,5.74,3,7.28,4.57,4.47,4.63,9.66,8.53,14.06,13.21a90.66,90.66,0,0,0,18.13,14.74l31.84-.17c-.41-.88-2.93-6.57-.17-11,2-3.3,5.89-4.1,9.82-4.91,8.81-1.83,9.87,1.65,16.27-.34,5.35-1.67,6.52-4.71,13.55-7.12a30.23,30.23,0,0,0,4.91-2c3-1.6,3.51-2.55,5.42-3.39,2.84-1.25,5.56-.81,8.3-.33,5.14.89,6.33,2.65,10.84,4.23a31.1,31.1,0,0,0,14.74,1.19c5.46-.75,9.09-2.69,14.22-5.42,4.69-2.5,10-5.33,14.91-10.85,5.61-6.28,4.9-9.55,9.15-11.17,1.87-.72,2.81-.39,13.55,1.18,9.73,1.43,9.59,1.25,11.18,1.7,6.42,1.79,8.29,4.57,14.73,8.63,10.36,6.53,12,3.4,25.07,10.84,6.72,3.81,10.07,5.72,13.55,9.49,4.27,4.62,4.9,7.7,8.47,8.64,1.93.5,3.92.18,12.87-4.58,9.47-5,8.71-5.44,13.05-7.28,5.44-2.31,11.31-4.8,17.95-3.39,4.42.95,5.56,2.85,8.3,2,3.42-1,5-5,7.28-10.51,1.12-2.74,1.3-3.79,3.73-12.53,2.3-8.24,2.07-7,3.22-11.35,2.82-10.56,2.34-10.88,3.73-13.55.79-1.53,4-7.69,10.5-10.67,4.48-2,5.67-.37,16.43-2,7.54-1.17,7.35-2.06,10.84-1.87,1.1.06,10.89.74,15.58,7.8,2.9,4.35.78,6.51,3.73,10.33,4.72,6.11,14.11,5.66,15.24,5.59a21.62,21.62,0,0,0,12.54-5.25c3.84-3.26,3.82-5.54,6.6-8.47,4.35-4.6,8.81-3.67,19.14-6.1,15-3.52,15.28-7.75,31.34-12.7a38.06,38.06,0,0,0,10.67-5.42c2.79-2,4.49-3.29,5.25-5.59,1.19-3.62-1.42-5.34-.34-9.66.36-1.44,1.49-3.07,3.73-6.27,2.67-3.82,4.92-6.54,5.25-6.94,0,0,.79-1,9-11.69,9.1-11.93,14.13-27.71,15.07-30.66,3.66-11.47,1.1-9.88,5.25-23.71,4.34-14.43,6.51-21.64,8.81-26.26,2.45-4.91,5.2-9.31,3.73-14.22-1.08-3.6-3.23-3.54-5.59-7.46-3.6-6-2.64-12.85-1.36-22,.83-5.88,1.9-8.27,2.37-15.58,0,0,.25-3.85.17-7.28-.32-14-7.28-22-11.51-39.47a99.33,99.33,0,0,1-2.21-12.53l18.64-35.57c-1.65-5.77-.94-9.7,0-12.2,1.7-4.54,4.31-4.86,5.76-10.16,1-3.76.2-5.41,2-8.47a15.89,15.89,0,0,1,4.4-4.58c2.14-1.6,3.85-2.25,7.12-3.55,10.35-4.14,12.11-5.13,13.55-6.1a29.25,29.25,0,0,0,5.42-4.74q-.35-25-.68-50l-2.2-1.53a103.55,103.55,0,0,0-1.87-37.6c-2.91-12-5.67-23.42-13-34.21-1.28-1.88-3.9-8-9.14-20.16-.62-1.42-1.8-4.29-.85-7.28.85-2.67,2.87-3.8,4.91-5.59a29.71,29.71,0,0,0,7.79-12.71c1.44-4.84.92-9.33,0-17.28-.62-5.42-1.44-8.08,0-9.14s3.56.73,9.83,2.71c2.84.9,2.74.63,10.33,2.37,5.79,1.33,8.85,2,12.36,3.05a151.64,151.64,0,0,1,21.52,8.3c5.83,2.68,5.45,2.85,7.45,3.39,6.71,1.79,9.26-.63,18.12.17a29.76,29.76,0,0,1,11.52,2.87,28.29,28.29,0,0,1,8.64,7.12c10.5,11.8,15.74,17.7,21.34,25.58,5.32,7.48,4.85,7.39,9.32,13.72,4.65,6.59,11.62,16.45,20.15,25.23,15.1,15.55,30.93,23.41,41.67,28.63,12.79,6.21,19.18,9.32,26.26,9.49,16.23.37,19.58-9.69,37.77-9.15,10.49.31,15.55,3.83,22.87,0,3-1.55,5.63-4.76,11-11.18,6.48-7.76,9.73-11.73,9.82-16.26.11-5.31-3.25-5.88-3.22-12.2,0-1,.16-9.43,5.42-12.7,3.28-2,5.81-.38,10-3.05a16,16,0,0,0,4.57-4.74c4.79-6.81,9.31-13.23,12.36-23.72,1.69-5.77,1.8-8.91,4.24-9.82,1.55-.58,3.82.51,8.3,2.71a54.81,54.81,0,0,1,9.65,5.59,71.67,71.67,0,0,1,8.13,7.45c5.95,5.93,6,6.78,8.13,8,5.09,2.85,10.89,1.38,13.89.68,18.69-4.35,14.19,1.37,52-6.61,19.95-4.2,20.61-5.67,33.87-7.45,5.77-.77,11.37-1.26,20.84-3,13.69-2.58,10.32-3.13,19-4.4,3.91-.58,6.87-.8,10-3.05a17.59,17.59,0,0,0,5.93-8.3c2.38-6.23.7-9.88,1-15.58a32,32,0,0,1,11-21.85c1-.82,13.09-10.7,26.76-5.76,1.76.63,10,3.57,13,10.84,1.91,4.49.55,7.52,3.22,9.65,1.37,1.1,2.69,1.08,12.19.51s10-.65,10.84-1c5.47-2.37,4.89-6.32,10.51-8.46a12.81,12.81,0,0,1,9.31-.17,12.89,12.89,0,0,1,6.1,5.76c1.81,3,2.17,5.83,2.88,11.51s.85,9.15.85,9.15c.13,3.47,0,5.24,1.18,7.28,1.31,2.21,2.48,1.82,3.73,3.73,2.24,3.43-.46,6.34.85,10.33,1.53,4.67,7.2,6.75,9.14,7.46,7.09,2.59,10.16-1.08,14.74,1.52,4.31,2.45,2.46,6.19,7.28,13,5.52,7.84,9.49,5.14,15.08,13.21,2.72,3.94,3.42,7,8.3,13.22a19.59,19.59,0,0,0,4.91,4.91c1.16.75,3.74,2.22,10.84,3.05,6.8.79,6.67-.3,10.5.51,1.55.32,10.1,2.11,12.37,8.13.56,1.49.94,3.79-1.19,9.82a62.06,62.06,0,0,1-8.81,16.09c-11.92,16.87-14.53,21.54-16.6,25.92-2.47,5.25-3.71,8-4.06,11.85-.79,8.81,3.73,11.66,1.52,17.45-1.92,5-6,4.66-8.64,11.35-.81,2.08-1.05,4.1-1.52,8.13-1.21,10.32.68,11.53-1.19,14.4-2,3.12-4.39,1.87-12.36,7.79-3.44,2.56-4,3.52-4.24,4.4-1.11,3.9,3.16,6.63,1.87,10.34-1,2.79-4.34,3.93-4.74,4.06-2.68.87-4-.4-7.46-.17a14.56,14.56,0,0,0-6.6,2.2q.08,20,.17,40l-76.73,120.94q-.18,7.46-.34,14.9a48.63,48.63,0,0,0,10.84,11.69,11.48,11.48,0,0,0,5.25,2.54c3.08.49,4.17-.93,7.45-1a14.48,14.48,0,0,1,9,3.21c3,2.57,2.43,4.73,5.76,8.13a18.64,18.64,0,0,0,5.59,3.9l44.38-26.93,27.1-18c5.9,2.62,9.74,2.24,12.19,1.36,1.78-.64,3-1.61,4.07-1,2,1.1,1.24,6.35.84,9a47.54,47.54,0,0,1-1.86,7.28c-1.67,5.61-2.36,8.53-2.71,9.66-2.55,8.33-17.53,20.41-23.54,25.07-3.81,4.85-5.3,8.49-5.93,11a26.26,26.26,0,0,1-1.36,4.23,22.55,22.55,0,0,1-3,5.42c-2.66,3.26-4.58,2.2-9.65,5.76-4.06,2.85-4.43,4.66-6.61,4.57-1.88-.07-3.52-1.5-6.26-3.89-2.52-2.2-2.64-3-3.9-3.22s-2.66.33-6.61,3.56-5.78,4.73-6.6,5.93c-3.78,5.5-1.08,9.59-4.74,13-1.5,1.41-1.72.5-6.78,2.71s-5.28,3.28-11.86,6.6c-4.24,2.15-4.42,1.84-6.43,3.22s-6.85,4.72-6.78,8.81c0,1,.3,1.74,3.22,5.59,5.46,7.2,7.64,8.62,9,12.7a14,14,0,0,1,.84,5.42c-.3,5.36-3.84,7-6.09,12.54-1.85,4.55,0,4.67-1.53,12a52.62,52.62,0,0,1-5.76,14.74c-4.17,7.76-5.18,6.09-8,11.86-3.88,8-1.86,11.16-6.6,20.83-1.25,2.54-2.57,4.73-3.9,6.95-3.57,5.94-4.93,7.13-7.62,11.51-3.6,5.86-5.4,8.79-6.27,13.22a28.68,28.68,0,0,0,1.36,15.07c1,3.13,2.81,8.76,5.75,9,2.07.15,2.76-2.52,6.78-3.9a13.19,13.19,0,0,1,6.1-.5c.55.06,7.45,1,10.5,6.26,1.41,2.43,1.34,4.65,1.35,7.79.07,11.83.11,17.74,1.7,21,3.27,6.73,8.46,5.3,11.86,13.38.73,1.75,1.7,4.7,3.55,4.91s2.68-2.23,5.42-2.54c.66-.07,1.74-.07,4.24,1.19a26.89,26.89,0,0,1,7.62,5.76,67.42,67.42,0,0,1,7.28,9.48c7.32,12,11.92,19.5,19.82,24.39a118.06,118.06,0,0,0,10.67,5.42,73.07,73.07,0,0,0,9.32,3.9c3.87,1.24,6.58,2.11,9.31,2,5.14-.14,6.8-3.48,14.23-8.81,10-7.13,12.9-5.37,21.85-12.87a56.94,56.94,0,0,0,8-8c5.58-6.83,5.26-9.76,11.18-18.3a88.52,88.52,0,0,1,9.49-11.34c6.67-7,10-10.5,13.21-10.51,4.68,0,5.09,4.93,16.26,15.25,7.36,6.8,8.78,6.13,14.4,12.36,4.5,5,5,7,8.3,8.3,5.92,2.39,9.44-1.85,15.24.17,3.78,1.32,3.49,3.53,9.66,10.67A132.82,132.82,0,0,0,2027.35,791c4.87,3.8,7.24,5.07,8.64,8.64,1.53,3.9,0,5.68,1.36,10.67.87,3.23,2.15,4.84,6.27,10.68,8,11.29,6.58,10.09,9,13a74.17,74.17,0,0,0,17.28,15.41,103.81,103.81,0,0,1,27.78-23.88c2.18-1.28,4.93-4.7,9.15-4.74s6.62,2.95,13.89,9.48c9.53,8.57,14.3,12.86,19.47,14.57,6.7,2.21,9,.19,14.74,3.56,5.13,3,5.68,6,9.82,6.94,4.3,1,6.52-1.58,13.05-4.06,7.19-2.74,8.68-1.22,24.73-3.56,7.74-1.13,11.61-1.7,16.6-3,9.15-2.48,14.3-5.33,30.15-11,2.48-.89,4.32-1.53,6.77-2.2,5.33-1.47,6.79-1.27,11.86-2.71,5.27-1.5,4.81-2,7.45-2.37,5.46-.72,11.65,1,12,3.38.21,1.34-1.54,1.82-3.9,5.08-2.16,3-2.28,4.8-3.72,8-2,4.37-4.39,6.69-6.78,9.48-7.28,8.52-5.72,11.15-17.45,29.3-4.5,7-7.65,11.11-6.77,15.93a14.23,14.23,0,0,1,.17,6.43,10.76,10.76,0,0,1-3.22,5.76c-.42.37-1.42,1.18-6.61,2.54-5.34,1.41-6.75,1.21-9.14,2.71a13.49,13.49,0,0,0-3.39,3.05c-4.16,5.83,1,18.07,7.79,25.58,2.33,2.56,5.68,4.87,12.37,9.48,4.71,3.25,7.8,5.36,12.36,7.29,7.16,3,8.29,1.53,10.5,3.56,3.33,3,1.78,7.35-1.52,31.84-1.63,12.1-1.89,15.79-4.91,20a32.06,32.06,0,0,0-4.92,8.3,40.92,40.92,0,0,0-2,8.64c-.81,4.85-1.19,7.3-.34,8.3,2.13,2.46,9,1.47,12.37-2.21,2.31-2.54,2.25-5.62,3.39-5.59,1.34,0,2.6,4.37,3,6.61s.28,3.14,1.18,4.57,1.82,1.39,3,2.71c2.14,2.31,1.11,4.49,2.88,9.83.89,2.68,1.13,2.06,1.86,4.4.69,2.19,2.14,6.82.34,10.67-1.46,3.14-3.67,2.72-5.42,5.59-2.33,3.82,1.87,7.11-.17,11.18-1.3,2.59-3.17,2.19-3.56,4.07-.79,3.92,7.31,6,8.13,12.36.55,4.2-2.47,7.54-2.71,7.79-1.87,2-4.09,2.55-7.79,3.39-6.09,1.38-7.89.2-13.89,1.86-3.94,1.1-5.36,2.23-5.92,2.71a14.32,14.32,0,0,0-4.07,6.78,23.16,23.16,0,0,0-1,6.27c0,6.78,4.82,22.64,17.11,29.3,4.67,2.53,10.64,4.73,10.67,8.47a4.12,4.12,0,0,1-.67,2.2c-3.38,5.85-14.76,7.63-17.11,8l-54,27.78a52,52,0,0,0-12.53,3.9,52,52,0,0,1-7.28,2.88c-3.29,1-5,1.5-7.12,1s-3.1-1.66-6.1-4.4c-6.12-5.59-6.15-4.49-7.62-6.44-4.89-6.5-1.06-14.2-4.74-16.09-1.92-1-4.41.35-6.27,1.36-4.89,2.63-7.45,7.07-9.82,12.19-6.49,14-3.67,16.23-8.47,22-3,3.62-6.63,5.74-13.89,10a85.83,85.83,0,0,1-10.5,5.25,63.84,63.84,0,0,1-13.89,4.23c-6,1-7.09.23-12.54,1.69a57.41,57.41,0,0,0-8.3,3.05,89.5,89.5,0,0,0-10.5,5.42Z"/></g></g></svg>