<svg xmlns="http://www.w3.org/2000/svg" viewBox="0 0 2068.3 1919.91"><g id="Layer_2" data-name="Layer 2"><g id="Cape_Verde" data-name="Cape Verde"><path d="M1878.37,783a33.43,33.43,0,0,1,5.92,3.17c3.53,2.36,4.76,4.17,7.78,6.58a39.17,39.17,0,0,0,8.69,5.14c3.66,1.56,7.85,2.2,16.07,3.42,3.69.55,5.53.86,7.77,1.06a110.91,110.91,0,0,0,12.64.13c11.68-.21,11-.09,13.57-.26,7.5-.52,11.31-.82,13.83-2.9,2.31-1.9,1.43-2.77,5.67-7.38a27.29,27.29,0,0,1,6.58-5.53,14,14,0,0,1,4.88-2.11c4.24-.63,6.54,2.79,13.3,6.85,2.37,1.42,5.92,2.88,13,5.8,6.86,2.81,10.35,4.21,12.91,4.08,5.19-.27,6.62-3,10.8-2,3.82.92,6.17,4,7.11,5.27a19.12,19.12,0,0,1,3.43,9c1.14,6.92,3.28,14.63.39,21.21a4.65,4.65,0,0,0-.66,3.16c.67,2.63,4.43,2.3,8.56,5.92,1.87,1.64,1.13,1.73,4.22,5,1.58,1.68,1.93,1.82,6.06,5.66,3.61,3.36,4.45,4.29,5.27,5.8.9,1.67,1.76,3.26,1.31,5-.61,2.42-3,2.41-3.55,4.88-.26,1.17.14,2.36.92,4.74a26,26,0,0,0,1.45,3.56c1.08,2.12,2,9,2,27.13-5.28,4.6-6.51,8.38-6.58,11.06-.06,2,.48,4.23-.66,7.12a12.09,12.09,0,0,1-3,4.34c-3.44,3.33-16.44,11.56-34.64,21.61l-33.59,19-15.67,20.81a46.37,46.37,0,0,1-7-1.84c-3-1.06-4.1-1.77-6.05-2.37a20.84,20.84,0,0,0-10-.26c-4.32.66-11.93,1.07-26.48,0,.31.83.61,1.66.92,2.5l-15.41-.26c-5.1-9.52-10.39-15.58-12.64-16.6a10.73,10.73,0,0,0-3.69-1.06,11.65,11.65,0,0,1-2.64,0,6.73,6.73,0,0,1-2.63-1.31c-1.68-1.12-3.08-1.22-5.27-1.71-2.8-.64-7-2.05-15.28-4.88-7.8-2.65-11.7-4-13.7-5.4-7.52-5.37-10-13.55-10.67-15.8a33.09,33.09,0,0,1-.52-15.81c2.1-10,7.77-13.06,6.19-20.15-.55-2.45-1.77-4.53-.66-6.72.84-1.67,2.15-1.67,5.93-4.08s3.57-3.11,6.58-4.88c3.17-1.85,4.34-1.64,7.51-3a31.38,31.38,0,0,0,9.75-7c2.8-2.76,6.73-6.62,8.43-12.64.89-3.18.51-6.9-.27-14.36-.83-8-1.24-12-3.16-15.67-2.76-5.26-5.24-5.23-5.79-9.23-.43-3,.91-3.76,2.37-11.45.78-4.11,1.17-6.17.92-8-.67-5-3.4-5.5-3.82-10.54,0-.63.18-2.93.66-7.5C1878,786.59,1878.21,784.45,1878.37,783Z"/><path d="M2046.31,830.15c-1.25.62-1.43,3.48-.66,5.66,1,2.93,3.17,3,7.24,6.72,4.33,4,5.46,7.16,7.12,6.72,1.09-.3,1.72-2,1.71-3.29,0-2.1-1.72-2.8-4.88-6.46-2.8-3.25-2.72-4.15-5.26-6.45C2049.85,831.49,2047.63,829.49,2046.31,830.15Z"/><path d="M1737.5,1544.65c-.1.39-.86,1.89-2.38,4.87a8.65,8.65,0,0,0-.85,1.91c-.52,2.21.71,4.26,1.32,5.27,1.42,2.4,4.12,7.13,5.13,9.49.41.94,1.19,3,1.19,9.88,0,13.8-3.15,24.48.39,26.47a7.86,7.86,0,0,1,3,2.11,6.72,6.72,0,0,1,1.32,2.9c3,13.54-.66,22.65-.66,22.65a35.87,35.87,0,0,1-2,4.09c-3.42,6-7.72,9.47-14,14.48a38,38,0,0,1-5.27,3.69,31.2,31.2,0,0,1-6.58,2.9c-1.56.47-1.77.39-2.64.66-4.87,1.52-5.63,6.42-10.8,10.93a23.13,23.13,0,0,1-5.53,3.56c-16.57,3.59-24.2,1.81-28-.79a54.16,54.16,0,0,0-8.3-5c-4.81-2.31-5.65-1.78-8.3-3.55-4.6-3.09-3.36-5.55-7.9-9.36-4.69-3.92-7.76-2.77-10.15-6.32-1.57-2.33-1.5-4.7-1.31-9.22,1-23.76,1.89-21.4,1.58-27.53-.26-5-.94-8.09.92-11.85.65-1.33,2.06-3.21,4.87-7,3.37-4.52,3.51-4.33,4.22-5.67,1.75-3.31,1.84-6.3,2-10.67.13-4.18.2-7.85-2-11.46a9.42,9.42,0,0,0-2.24-2.76c-3.28-2.66-6.66-1.2-7.64-3-.62-1.15.6-2,2.11-7.11.86-3,.55-3,1.18-4.35a13.36,13.36,0,0,1,5.53-5.66c3.75-2.16,4.86-.7,8-2.51,1.68-1,1.81-1.6,6.45-7.9,4.26-5.77,5.49-7,5-8.69-.73-2.47-4.63-3.5-4.48-3.82s4.26,2.09,6.59.52a12.61,12.61,0,0,0,2-2.5,17.59,17.59,0,0,0,1.71-2.63c1-2.14-.17-3,.27-5.54.31-1.82,1.22-3.06,3-5.53,1-1.36,2.74-3.74,3.42-3.42s-1.15,3.56.13,7c.83,2.2,2.95,4.37,4.88,4.21,1.64-.13,1.75-1.85,3.55-2.24.55-.11,1.8-.22,6.46,3.3,3.93,3,4,3.73,6.06,4.48,1.59.56,1.66.15,5.13,1,1.4.36,1.63.49,4.48,1.32a37,37,0,0,0,4.48,1.18c2.92,0,5.65-1.76,6.59-2.37,1.42-.93,1.88-1.56,2.76-1.45,1.13.15,1.34,1.32,2.77,3,2.4,2.88,4.06,2.3,5.53,4.87.58,1,.16.83,1.19,3.56,1.1,2.92,1.47,2.86,2.23,5.14.63,1.87.5,2.29,1.32,4.61.52,1.46.66,1.55,1.06,2.63C1737.25,1539.87,1738.11,1542.24,1737.5,1544.65Z"/><path d="M1476,1748.62c1.53,1.42,4.54-.62,5.8.92,1,1.21.1,3.66-.66,5.79-.94,2.6-1.74,3-1.85,4.88-.08,1.42.25,3.59,1.45,4.08,1,.42,1.75-.8,3.16-.53a3.79,3.79,0,0,1,2.77,3.3c.07,1.67-1.54,2-4.35,5.53-1.86,2.38-2.44,3.9-3.55,3.82s-1.3-1.59-2.51-1.71-1.88,1.1-3.29,2.5c-3,3-4.2,1.94-5.8,4.08-.57.77-.75,1.36-2,8.17-.81,4.51-.74,4.31-.79,4.48-1.92,5.84-7.52,5.35-9.48,10.53-1.39,3.67,1,4.92-.66,9.22-1.36,3.48-3.06,3-4.88,6.72-1.53,3.15-.6,4.07-2.24,10.54-1,4-1.53,6-3,6.85-2.39,1.41-6,.29-8.16-1.19-1.58-1.1-1.44-1.79-4-3.68-2.66-2-4-2.11-4.48-2.11a6,6,0,0,0-3.43,1.18c-2.68,1.79-3.87,5-4.61,7-.67,1.83-.62,2.38-1.31,2.9-1.44,1.08-3.45.07-5.93-.52-6.16-1.48-7.3,1.52-12.51,0-3.74-1.1-3.32-2.68-7.51-4-2.61-.79-3.68-.45-9.22-.52-3,0-6.37-.29-13.17-.79-5-.37-7.22-.64-10.41-.93-18.5-1.64-19,.84-25-1.31-6.57-2.35-4.92-4.92-16.59-12.78-6.87-4.62-7.75-3.93-17-9.48-10-6-14.94-9-19.76-14s-11.93-14.23-16.6-18.7c-2.53-2.42-3.79-3.62-5.79-4.48-1.54-.65-2.76-.83-2.9-1.58-.2-1,2-1.79,4.21-3.69,2.72-2.32,5.23-6.19,5.14-9.87,0-.67-.13-1.83-2.9-6.46a71.84,71.84,0,0,0-11.19-14c-2-2-3.35-3.11-5.14-3.16-2.28-.07-3.21,1.62-5.53,1.71-2.78.11-5-2.15-6.06-3.29-4.7-4.87-2.17-9.3-6.72-13.44-1.35-1.23-1.66-.91-5.27-3.69-2.94-2.25-4.41-3.38-5-4.47-1.53-2.81.23-5.12,1.84-12.12.4-1.75.88-5.64,1.84-13.44,1-8.12.87-8.75,1.59-11.59,1-3.87,1.59-4.11,4.08-10.54,3.67-9.49,5.47-14.31,3.82-18-1.33-3-3.18-2.58-4.88-6.46-.6-1.39-1.18-3.31-1.18-9.48,0-5.75,0-8.62.66-11.46,1.8-7.75,5.44-7.94,7.9-16.46,1.41-4.9.19-4.77,1.85-10a62.06,62.06,0,0,1,5.79-12.52c1.64-2.66,1.91-2.62,2.5-4.08.25-.62,2.65-6.81-.26-11.59-1.51-2.49-2.72-1.73-6.72-5.53-2.86-2.73-4.66-4.44-5.27-7.12-.16-.73-.3-1.79,1.58-9.48,1.33-5.44,1.64-5.88,1.19-6.72-1.5-2.81-6.49-.74-11.33-4.48-.78-.6-3.72-2.87-3.29-5,.54-2.67,5.67-1.7,7.9-5.53,1.57-2.69,0-4.84,2.24-8.17.35-.53.95-1.31,2-2.9a31.17,31.17,0,0,0,1.84-3c1.74-3.59-.87-6.09.53-8,1.23-1.71,3.52-.16,9.74-1.32,4.57-.85,5.44-2.08,7.64-1.32,2.43.85,2.72,2.8,5.4,3.43,1.39.32,2.3,0,4.75-.53,5.53-1.28,8.3-1.92,9.88-1.71s3.92,1.86,8.43,5.14c4.07,3,5.15,4.34,5.79,5.92.37.92.45,1.54.66,4.61.59,8.59.32,8.38.66,11.59.46,4.47,1,5.45.39,7.78s-1.59,2.65-2.5,4.61c-2.36,5.07-.36,12.29,3.56,16.46.85.91,2.58,2,6.06,4.08,5.14,3.14,9.3,5.2,10.53,5.8,10.07,4.92,10.58,3.67,14.36,6.72,3.11,2.49,5.35,4.3,7.38,7.5,1.34,2.13,1.57,3.26,3,4,2.11,1,3.66-.4,8.29-.14a10.1,10.1,0,0,1,4,.66c3,1.51,3,5,4.87,9.36,2.49,5.69,4.42,3.94,8.17,10.66,3,5.38,2.28,7.44,5.79,12,.84,1.09,1.93,2.33,3.43,4.61,2.09,3.19,1.94,3.78,3.29,5.8,3.15,4.71,5.49,3.76,7.9,7.9,2,3.42.7,4.58,2.77,6.72,1.16,1.2,3.54,1.94,8.3,3.42,3.45,1.08,4.46,1.15,5.53.92,2.32-.49,2.3-1.82,4.48-2.5,3.31-1,7.17.86,9.35,3a11.39,11.39,0,0,1,2.37,3.56c1.79,3.9.5,5.89,2.37,9.22a9.61,9.61,0,0,0,2.9,3.29c2.53,1.73,4.32.88,8.17,2,2.62.74,4.9,1.39,6.32,3.29,2.41,3.22-.4,6.37,2.11,10.27,1.37,2.14,2.51,1.67,4.21,4.09,1.88,2.67,1.68,5,2.24,7.9.6,3.19,2.81,6.69,7.24,13.7,3.51,5.54,5.26,8.32,7,10,4.73,4.64,7,3.7,13.31,9.22a52.16,52.16,0,0,1,7.24,7.77c3.56,4.55,5.35,6.83,5.8,9.75C1477.46,1743.28,1474.17,1746.94,1476,1748.62Z"/><path d="M519.31,427.88c-.08,2.7,2.1,5.54,2.1,5.54,3.59,4.66,4.79,4.87,8,8.82,2.15,2.61,2.93,4.12,5.13,4.87.3.11,3.1,1,4.35-.26s.13-4.32-.66-6.32c-2-5-5.15-8-7.64-10.28,0,0-4.83-4.44-8.56-4.61a2.92,2.92,0,0,0-2.24.66A2.26,2.26,0,0,0,519.31,427.88Z"/><path d="M583.32,466c-1.41,1.83.09,5.18,1.19,7.64,1.17,2.62,2.22,5,4.74,6.59,4.31,2.73,10.32,1.52,14-1.45.53-.43,4.87-4,3.95-7.64-.64-2.57-3.5-3.81-5.66-4.74-2.55-1.11-5.29-1.19-10.67-1.32C584.57,464.88,583.78,465.36,583.32,466Z"/><path d="M475.44,376.25c3.85,2.12,7-.27,15.28-1.32,5.33-.67,8-1,11.59-.52,2,.26,4.41.79,7.38-.13a9.74,9.74,0,0,0,4.08-2.38c.3-.29.77-.82,2.24-3.82,2.33-4.72,2.14-5.43,2-5.79-.66-1.48-2.87-1.83-3.82-2-1.81-.28-2.7.17-6.85,1.19-3.46.85-5.22,1.27-6.72,1.18a50.07,50.07,0,0,1-5.27-1.05c-3-.66-4.45-1-4.61-1.05-2.71-1.08-2.89-2.93-7.11-8.7-2.68-3.65-3.24-3.77-5.53-7.24-1-1.53-1.69-2.7-3-5-3.58-6.16-3.26-6.37-4.61-8-1.71-2.1-1.84-1.3-7.38-5.8-4.1-3.33-4.87-4.45-7.37-5.27-1.31-.42-4.18-1.35-6.33,0-1.88,1.19-1.33,3-3,6.46-1.95,4-3.6,3.59-6.58,8.43-2,3.17-3.27,5.3-2.77,7.77.66,3.26,4.06,5.09,6.59,6.45,4.31,2.33,5.51,1.18,10.67,3.43a36.28,36.28,0,0,1,8.69,5.53c3.25,2.65,4.87,4,5.93,5.93,1.93,3.59,1.08,6.14,3.82,9.35A9.83,9.83,0,0,0,475.44,376.25Z"/><path d="M310.93,318.56c2.13.94,1.95,3.52,3.82,7.11,1.23,2.37,2.48,4.78,4.74,5.67,2.51,1,3.89-.83,11.33-2.9,4.7-1.32,4.73-.76,7.51-1.85,4-1.56,5-3.13,9.22-5.92,3.67-2.43,7.53-5,12.25-5.8,5.88-1,7.52,3.3,13.43,2.24,1.5-.27,5.51-1,7.51-4.08,2.25-3.49-.35-6.45,2.24-12.25.87-2,1.61-2.62,1.31-3.82-.68-2.79-5.49-2.57-6.32-5.4-.29-1,.46-2.48,2-5.4,2.66-5.12,3.94-6.05,3.69-8a5.88,5.88,0,0,0-3.17-4.21c-2.76-1.4-5.1.49-9,1.18-6.8,1.23-13.83-2.09-17.65-5.66-2.34-2.18-1-2.14-6.19-8.83-3.08-4-4.36-5-4.74-7.51-.55-3.6,1.31-6.87,2-8,2-3.54,3.79-3.46,4.61-6.06a9.37,9.37,0,0,0-2.11-8.56c-4.14-4.63-12.47-3.21-17.25-.53-1.38.78-5.87,3.3-6.85,7.77-.68,3.09.67,5.56-.4,6.19-.91.55-2.15-1.13-6.05-3.29-3.54-2-4.14-1.47-7.91-3.69-.93-.54-2.48-1.5-4.08-2.5-3.17-2-3.7-2.35-4.61-2.37-1.95-.05-2.76,1.63-5.14,3.56-5.13,4.14-8.56,2.14-10.4,5.27-.87,1.47-.63,4.1-.14,9.35.28,3,.64,4.24,0,6.06a9.33,9.33,0,0,1-3.82,4.47c-7.13,5-16.65,2.68-18.3,2.24-3.66-1-6.62-1.74-8.57-4.34-.85-1.15-1.25-2.29-2.37-2.51-1.6-.31-2.71,1.67-5.27,3.43s-3.55,1.28-6.84,2.63c-4.57,1.87-7.46,4.73-10,7.25a31.68,31.68,0,0,0-6.32,8c-3.79,7.16-1,9.9-4.87,14.49-2.15,2.59-4.37,3.34-5.27,6.59-.17.62-1.05,3.76.4,5,1.86,1.61,5.29-2,10.53-.79a7.91,7.91,0,0,1,4.22,2.11c1.79,1.9,1,3.56,3,6.32,1,1.39,1.24,1,3.29,3.3,2.55,2.8,2.3,3.49,3.56,4.47,2.75,2.18,5-.31,9.35,1.06,3.52,1.09,2.94,3,9.22,7a24.73,24.73,0,0,0,6.58,3.29c4,1.2,4.48,0,7.91,1.06a19.34,19.34,0,0,1,9.35,6.32c1.4,1.78,1.73,2.95,3.42,3.82,1.46.74,3.07.83,5.67.39,4.25-.71,7-2.15,10.14-3.55,0,0,4.84-1.67,9.75-3.82a7.72,7.72,0,0,0,2.24-1.52,4.67,4.67,0,0,0,1.45-2.24,4.38,4.38,0,0,0-.14-2.43c-.38-1.28-1-1.46-1.58-2.84a20.38,20.38,0,0,1-.66-2.5c-.9-2.67-2.84-3.59-2.5-4.28C308.42,318.18,309.81,318.06,310.93,318.56Z"/><path d="M213.19,153.12c3-1.39,4.76-.23,9.49-.26,3.59,0,6.21-.77,11.46-2.24a66.22,66.22,0,0,0,9.88-3.56c6.19-2.89,9.77-6.21,13.83-9.61,12.28-10.3,12.46-7.52,22.91-16.73a113.09,113.09,0,0,0,15.15-16.07c3-3.86,4.46-5.8,5.93-8.69,4.79-9.48,6.46-22.7,1.32-26.35-.58-.4-2.76-.75-7.12-1.45-5.12-.81-6.69-.71-9.74-1.71a26.12,26.12,0,0,1-5.67-2.63c-2.34-1.49-4-3.22-8.3-9.22-4.48-6.28-6.72-9.43-7.5-11.59a61.11,61.11,0,0,1-2.64-11.46c-.48-3.55-.39-5.16-1.71-6.85-1.55-2-3.89-2.6-7.9-3.3-11.11-1.91-12.87-.72-18.18-2.5a28.67,28.67,0,0,1-10-5.66c-3.28-2.9-4.54-5.47-9.88-10-2.75-2.34-3.95-3-5.4-3.16a9.92,9.92,0,0,0-8.43,3.55c-1.82,2.16-1.15,3.39-2.77,4.48-2.21,1.49-4.28-.25-8,.26-2.32.32-2.44,1.11-7.38,3.82-6.52,3.59-7.27,2.73-11.72,5.67-4.72,3.11-3.95,4.12-6.72,5-4.7,1.5-7.5-1.25-11.59.79-1.24.62-1.39,1.09-4.08,3.95-4.82,5.14-7.22,7.71-9.75,9.09s-1.86.16-12.91,2.64c-3.16.71-5.7,1.28-9.09,2.37-3.78,1.21-3.89,1.55-7.11,2.5-6.46,1.92-7.7,1.07-8.69,2.5-2.19,3.15,2.85,8.63.13,12.25a6.6,6.6,0,0,1-1.71,1.45c-2.49,1.71-4.41,1.54-6.85,2.24-4.08,1.18-3.35,3-6.72,3.82-4.16,1-5.7-1.67-9.22-.39-2.11.76-2,1.89-5.4,4.87-2.23,2-4.68,4.11-7.9,5.14-4.54,1.44-5.45-1-12.12,0a44.61,44.61,0,0,0-8.43,2.37,56.09,56.09,0,0,0-6.45,2.63c-4.1,2-4.17,2.7-7.12,4.09-5.62,2.63-7,.83-9.74,3-2.1,1.68-1.51,2.9-4.75,10.15-2.05,4.58-3.07,6.87-4.74,9-3.37,4.21-5.54,4-7.77,8.17a18.13,18.13,0,0,0-2,6.59,20.07,20.07,0,0,0,.66,7,23.7,23.7,0,0,0,3,6.45A23.55,23.55,0,0,0,9,142.06a23.62,23.62,0,0,0,4.08,2.63c3,1.65,4.31,1.86,7.12,3.16,3.09,1.43,4.89,2.27,6.72,4a18.86,18.86,0,0,1,5.26,9.75,30.39,30.39,0,0,1,.66,5.8,40.56,40.56,0,0,1-.13,8.56c-.79,5.56-2.54,6.09-2,9.22.33,1.8.94,1.84,3.43,6.32,2.2,4,3.31,6,3.56,7.51.62,3.91-1.67,4.95-3.43,12.25-.86,3.57-1.44,6-1,9.09.63,5.15,3.46,8.64,6.06,11.85,3.51,4.35,5.35,6.62,8.16,6.85,3.81.31,4.52-3.52,11.86-7.24a26.9,26.9,0,0,1,12.38-3.43c3.91,0,4.44,1,9.09.92,5.36-.12,5.59-1.53,9.35-1.18,4.22.39,7.66,2.52,10.41,4.21,2.27,1.41,3.86,2.77,7.11,4a15.79,15.79,0,0,0,3.82,1c4.86.5,7.47-3.2,12.64-5.27,5.45-2.18,6,.58,11.07-1.19,2.35-.82,3.8-2,13.7-13,5.57-6.24,8.35-9.36,9-10.27,3.24-4.91,4-8.08,7.77-9.88,3.07-1.48,4.23-.16,7.12-1.58,3.77-1.85,3.74-5.06,7.24-10.8s7.88-9.57,12.65-13.7c3.84-3.32,4.59-3.34,8.29-6.85.68-.64,3.52-3.36,7.64-7.51C211.62,154.15,212,153.66,213.19,153.12Z"/><path d="M883.77,492.69c4.3,2.36,8.54,2,14.49,1.58,10.13-.73,15.22-1.09,16.33-.79,1.7.45,1,.5,13.43,7.11,6.16,3.27,7,3.61,8,4,5.72,1.91,7.68.79,10.54,3.16,1.28,1.07,2.43,2.87,4.74,6.46,1.85,2.89,1.87,3.37,2.9,4.48,1.89,2,4.33,3.06,7.5,3.82,6.67,1.59,8.42.06,15.68.79,8.78.87,10.32,3.52,14.88,1.84,3.27-1.2,3.69-3,7.64-3.82,3-.62,3.55.27,8.17-.13,5.16-.44,5.29-1.62,7.77-1,2.64.6,2.81,2,7.38,3.95,2.33,1,3.52,1.48,4.74,1.18,1.42-.34,1.78-1.27,5.14-5.92,2.64-3.66,3.22-4.2,3.82-5.93a9.53,9.53,0,0,0,.65-4.87c-.59-3.56-3.64-5.65-5-6.59-2.51-1.73-4.85-2.23-8.83-3-6.13-1.24-6.68-.22-8.43-1.45-3.33-2.35-1.34-6.12-4.87-11.85a21.49,21.49,0,0,0-7.77-7.25c-2.51-1.46-5.05-2.3-11.86-3.29-10.62-1.55-16.36-2.39-24.1-2.11-4.67.17-7.53.65-10.54-1.18-1.39-.86-3-2.32-5.79-2.77a7.87,7.87,0,0,0-3.82.13c-3,1-3.36,3.71-5.54,5.27-2,1.46-3.28.12-10-.13s-7.06.88-9.61-.13c-1.64-.65-2.86-1.65-7.64-7.91-3.89-5.08-3.61-7.33-6.45-8.82-1.68-.88-2.08-.37-7-.92-6-.69-9.31-1.06-12.51-3-4.29-2.64-3.83-5.32-6.72-5.67-3.55-.42-4.82,3.59-10,3.69-2.37.05-3-.77-5.27-.26-3,.66-2.84,2.26-5.4,3-3.68,1.1-5.46-1.76-10.27-.92-1.09.18-.81.3-4.22,1.58-5.44,2-8.17,3.06-10.4,3-.34,0-6.95-.21-9.75-4.48-1.16-1.78-.77-2.9-2.24-4.09-1.94-1.56-3.8-.55-6.19-1.71s-3.1-3.23-4.08-5.14c-.52-1-5-9.41-11.59-12.77-6-3-10.13-.19-13.31-4.09-1.5-1.84-1.71-3.88-3.82-4.61s-4.43.54-5.13.93c-2.32,1.28-2.56,2.75-4.48,4.61a15.34,15.34,0,0,1-7.51,3.68A23.25,23.25,0,0,1,756,430c-1.65-.51-2.28-.95-3.55-.79-1.65.21-2.72,1.21-5.93,4.74-4.22,4.65-4.7,5.49-6.19,5.8-1.91.4-2.19-.76-5.4-.79a11.27,11.27,0,0,0-6.33,1.58c-1.53,1-1.64,1.82-3.68,4.48-3.07,4-4,3.67-5.27,5.79-1.14,1.88-1,3.13-1.06,10.8,0,10.41-.26,10.84.4,12.65,1.36,3.71,3.76,5.89,6.85,8.69s4.12,2.84,12.38,8.3c5.85,3.87,5.43,3.92,8.3,5.53A60.53,60.53,0,0,0,758,502c4,1.32,4.63,1,6.32,2.24,4,2.91,4.89,7.87,5,8.56a36.38,36.38,0,0,1,0,5.93c-.16,3.9-1.25,5.24-.4,6.19,1.25,1.4,3.84-.77,6.32.66,1,.56,1.43,1.38,3.43,6.72,1.39,3.7,1.58,4.41,2,5.4,2.52,6.35,6.06,6.25,9.35,12.51,1.44,2.72,2,5,2.9,9.09,1.94,8.41,2.37,11.19,2.37,11.19.36,2.26.46,3.42,1.45,4.61,2.25,2.71,6.44,2.41,6.85,2.38a9.23,9.23,0,0,0,5-2c3.68-3.08,1.74-7.28,4.48-16.07,1.29-4.16,1.71-3.16,4.08-9.75,1.57-4.38,1.78-5.92,3.82-11.19a58.06,58.06,0,0,1,3.16-7.12c1.45-2.68,1.75-2.64,2.77-4.74,2.06-4.27,1.16-5.17,2.89-7.64,1.45-2.06,2.13-1.52,5-4.61,2.54-2.72,1.72-2.83,3.82-4.87,2.79-2.7,4.76-3,5.93-5.66.3-.68.38-1.16.92-1.59,1.1-.87,2.33-.13,4.87-.65.58-.12.39-.14,2.11-.66,2.29-.71,4-1.09,4.35-1.19,3.47-.88,5.29-4.66,10-7.37.7-.41,7.68-4.3,13.83-1.72C882.14,491.36,882,491.73,883.77,492.69Z"/><path d="M1835,297.62A11.57,11.57,0,0,0,1831,301c-6.29,7.29-9.44,11-9.88,12.91s.09,1.6-.53,8.3c-.44,4.79-.65,4.24-.66,5.92,0,4.64,1.58,8.48,3.3,12.65,1.81,4.38,2.45,4.5,2.5,6.45.08,2.91-1.31,3.9-1.32,7.77,0,1.84,0,4.41,1.45,5.27,1.69,1,3.88-1.17,5.27-.13.59.44.71,1.23.66,4.08-.09,4.75-.14,7.12-.79,8.57-.94,2.09-1.6,1.67-4,5.26-1.81,2.77-2.72,4.16-2.51,5.54.43,2.72,3.89,2.57,5,5.66,1,2.74-.65,5.88-1.84,8.17-1.87,3.56-3.39,3.76-3.56,5.92-.25,3.07,2.47,6.57,4.87,6.59,1.77,0,2-1.86,4.61-3.16,2.78-1.41,4.09-.05,9.62-.13,6.26-.09,9.63-1.9,10.93-.13.63.85-.08,1.38.53,2.89.91,2.29,3.11,2.55,5.79,4.75a14.77,14.77,0,0,1,3.69,4.34c2.95,5.7-.64,12.63-.79,12.91-1.41,2.64-2.21,2.24-5.79,7-2.77,3.66-4.16,5.49-4.48,7.38-.89,5.15,3.66,10,6.32,12.91,5.37,5.77,8.81,5.45,10.54,10,.83,2.19.55,4.7,0,9.74-1,8.9-3.1,12-1.06,14.76a6,6,0,0,0,5.27,2.37c2.17-.31,2.41-2.16,5.27-4.09s5.89-2.24,8.43-2.5a31.89,31.89,0,0,1,8.17.4c4.21.59,6.08,1.43,6.45.79.46-.79-2.15-2.33-4.87-6.33a45.48,45.48,0,0,1-5.93-15.67c-.36-2.79-1.19-9.29,2.11-11.72,1.18-.88,1.67-.32,3-1.32,1.82-1.35,2.16-3.27,3.29-7.24,1.26-4.42,1.89-6.62,2.63-7.91,1-1.65,2.49-3.25,5.54-6.45,2.41-2.54,3.18-3.08,3.68-4.61a9.81,9.81,0,0,0-.26-5.93c-.87-3.07-2-3.81-3.42-6.59-3-5.79-.81-7.9-4-13-1.13-1.84-1.09-1-4-4.87A43.91,43.91,0,0,1,1895,390c-1.19-2.62-2.18-4.79-2.37-7.77-.2-3.23.8-3.33,1.71-9a59.79,59.79,0,0,0,1.19-11.59c0-2.21-.22-3.95.92-4.87s2.74.15,4.88-.53c3.26-1,4.53-5.29,4.74-6.06a10.17,10.17,0,0,0-2.24-9.61c-2.62-2.62-4.81-1-7.51-3.3-2.28-2-2.66-5.84-3.42-13.56-.45-4.57-.67-6.9,0-9.09.7-2.35,1.46-2.67,3.55-7.77,1.4-3.43,1.66-4.75,1.58-6.2a8.64,8.64,0,0,0-1.71-5c-1.65-2.05-3.53-1.93-7.64-3.69a22.6,22.6,0,0,1-6.58-3.69c-4.74-4.26-3.89-10.37-5.93-10.53-1.68-.14-2,4-6.85,8a19.52,19.52,0,0,1-5,3,15.36,15.36,0,0,1-5.13,1.32c-3.71.22-4.43-1.34-6.72-.66-2.11.63-1.76,2-4.87,4.21a18.88,18.88,0,0,1-6.2,2.77C1838.12,297.26,1837.25,296.6,1835,297.62Z"/><path d="M681.58,1774.43a99,99,0,0,1,12.65-14.09,74.32,74.32,0,0,1,16.2-11.86c7.83-4.12,10.38-3.4,19.89-8.82,3.32-1.9,4.38-2.77,7.9-4.48,6.33-3.08,7.81-2.65,12.64-5.4,5.22-3,5.29-4.48,8.43-5.4,4.32-1.26,5.46,1.6,13,2.63,6.42.88,7.24-.77,12.91.66a30.66,30.66,0,0,1,8.43,3.69c2.73,1.67,3.71,2.82,7.91,5.4,2.65,1.64,3.09,1.69,4.34,2.5,1.08.71,4.24,2.94,8,10.28,3.43,6.62,6.46,12.5,6.32,20.28-.09,4.79-1.34,8.29,1.05,11.07,1.68,1.94,4,2.17,4.61,4.48.32,1.11.06,2.05-1.05,5.13-2.28,6.34-2.43,5.88-2.63,7-.94,5.16,4.06,6.09,4.61,13.44.21,2.89-.43,4.63.52,8.43a24.09,24.09,0,0,0,1.58,4.35c2.83,6.26,1,11.29,2.24,22.65.91,8.54,2.17,7.94,1.71,12.12-.61,5.61-3.19,9.5-6.84,14.88a74.2,74.2,0,0,1-13.18,14.75c-6.21,5.28-11.38,8-19.23,12-9.86,5.08-17.28,8.91-28.18,10.93a74.13,74.13,0,0,1-17.65,1.19,67.83,67.83,0,0,1-18.58-3.69,65.89,65.89,0,0,1-12.64-6.19c-9.89-6.08-11.8-9.88-27.53-24.37-12.26-11.29-18.4-16.94-19.89-17.78-3.82-2.15-8.79-4.35-10-9.09-.27-1.06-.26-1.89.39-9.88.48-5.74.54-6.15.66-7.77.82-10.9-.66-11.19.53-16.86.51-2.42,1.57-5.26,3.69-10.93,1-2.75,2.07-5.36,2.76-7A123.28,123.28,0,0,1,681.58,1774.43Z"/><path d="M514.17,1783.52c2.23-1.7,5.7-2.15,6.58-.92.41.56,0,1.16-.39,3-1,4.33,0,5.21-1.05,7.37-.83,1.68-2.77,3.83-4.61,3.56-2.25-.33-3.45-4.1-3.43-6.72A8.22,8.22,0,0,1,514.17,1783.52Z"/><path d="M556.71,1782.86c-4.9,2-6.37,1.57-7.24,3-1.66,2.78,1.1,8.74,3.95,9,1.9.15,3.39-2.28,6.19-6.85,1.26-2,4-6.59,3-7.51C562,1780,560.7,1781.21,556.71,1782.86Z"/><path d="M489.93,1854.65c1.92-.7,2-2.87,3.3-3s1.69,2.15,3.55,2.77c1.46.48,3.81-1.12,8.43-4.35,5-3.47,5.7-4,7.25-4.35a15.31,15.31,0,0,1,6.85.27c3.27.64,5.25,1,6.58,2.76,1.83,2.37,1.19,5.63.92,7-.66,3.36-2.13,3.38-2.76,6.32-.77,3.53.3,8.32,3.16,10,1.76,1,3.33.39,4.48,1.84a5.05,5.05,0,0,1,.66,3.82c-.85,6.35,1.21,6.85.13,14.62-.93,6.67-1.93,13.92-7.38,18.44-2.39,2-2.44.79-9.35,4.87-5.16,3-7.13,4.9-9.09,4.09-2.19-.91-1.46-3.94-4.48-5.8-1.62-1-3.28-1-5.4-1.05-4.72-.08-5.71,1.66-7.77.92-2.84-1-1.71-4.6-5.14-9.22-3.19-4.3-5.82-3.41-8.95-7.77-1.68-2.33-2.22-4.54-3.3-9-1.58-6.47-3.24-13.27,0-16.07a11.46,11.46,0,0,1,5.27-2.11c2.27-.32,2.85.29,3.56-.26,2.28-1.76-2.92-8.81-.13-12.38,1.23-1.58,4.23-2.73,6.71-2.5C488.25,1854.63,488.89,1855,489.93,1854.65Z"/></g></g></svg>