<svg xmlns="http://www.w3.org/2000/svg" viewBox="0 0 2223.18 1890.45"><g id="Layer_2" data-name="Layer 2"><g id="Cambodia"><path d="M955.19,943.2c1.44-.24,2.85,1.33,3.59,2.16a9.6,9.6,0,0,1,2,3.58c2.12,6.44,3.17,9.66,2.87,12.91-.12,1.39-.55,6-2.58,6.45-1.36.32-3-1.31-3.73-2.44-1.46-2.16-.4-3.37-1.58-6.59-1-2.62-1.87-2.44-2.86-5.31a11.31,11.31,0,0,1-.72-5.31C952.21,948.44,952.86,943.59,955.19,943.2Z"/><path d="M763.87,729.79c.67-.17,1.44.7,1.72,1s1.34,1.51.86,2.72a2.52,2.52,0,0,1-3.3,1.15C761.83,733.76,762.66,730.1,763.87,729.79Z"/><path d="M764,742.27c1.84-1.13,4.25.56,4.88,1,1.73,1.22,3.78,3.84,3,6.46-.4,1.34-1.61,2.91-2.87,2.87s-1.28-1.47-3.87-4c-1.61-1.58-2.35-1.79-2.58-2.87A3.39,3.39,0,0,1,764,742.27Z"/><path d="M767.45,758.76c1.33-1.19,5.92.7,7.89,4a5.72,5.72,0,0,1,1,3.73c-.29,2-2,2.94-1.57,3.73.22.43.87.41,3.58.57,3.44.2,3.93.32,4.16.72.58,1-1.28,2.31-.72,3.87.32.86,1.06.94,2.16,1.86a7.81,7.81,0,0,1,2.58,4c.59,3.35-3.69,5.44-2.73,8.18.42,1.18,1.51,1.58,1.29,2.43s-1.83,1.35-2.72,1.44c-2.41.22-5.13-1.37-5.74-3.59a5.4,5.4,0,0,1,0-2s.32-2.64,2.73-7.88h0a4.51,4.51,0,0,0,.57-2.87c-.17-.67-.49-.58-.86-1.58s-.13-1.13-.43-1.43c-.56-.56-1.36.1-2.44-.43-.23-.12-.19-.15-1.29-1.15-.79-.72-1.18-1.08-1.29-1.15-1.09-.67-2,0-4,0-1.43,0-2.55,0-3.15-.72-1.1-1.25.9-3.24,1-7.6C767.51,760.24,766.79,759.37,767.45,758.76Z"/><path d="M810.33,841.37a1.48,1.48,0,0,1,1.58.29c.69.73.29,2.44.29,2.44h0c-2.56-.6-2.73-1-2.73-1A1.51,1.51,0,0,1,810.33,841.37Z"/><path d="M2184.46,1.93c1.76-.75,3.18.25,6-1,1.29-.56,1.8-1.11,2.44-.86s1.1,1,1.29,5c.15,3.12-.08,4.47-.14,8-.05,3.14-.07,4.73.29,6,.79,2.89,2,3.37,2.29,5.45.32,2.58-1.27,4.75-2.44,6.31-5.25,7-11.69,5.86-13.62,11-1,2.75-.17,5.64.28,7.17,1.2,4,3.42,4.82,4.45,8,.85,2.66,0,5.21-1.58,10.19-3,9.11-5.38,10-7.74,18.35-1,3.4-.82,4.13-2,7.61-1.49,4.34-2.49,5.43-3.73,9.75-.24.84-.18.73-1.43,6.45-1.74,8-2,8.83-3,9.76a8.49,8.49,0,0,1-7.89,1.57c-2.11-.73-2.71-2.21-4.88-2.29a5.26,5.26,0,0,0-3.73,1.29c-2.45,2.49.73,6.67-1.72,10.47-.79,1.23-1.06.69-3.73,3s-3.61,4-6.31,7.17c-3.64,4.3-3.75,3.4-6,6.31s-5.84,7.49-5.31,12.62c.33,3.2,1.95,3.55,3.87,7.6.91,1.93,2,4.87,2,17.65,0,4.39-.1,10.14-.57,16.92a56.56,56.56,0,0,0-5.88,7.17c-6.55,9.49-6.11,15.18-12.48,22.23-.53.58-2,2.19-3.87,4.59-3,3.94-4.57,5.91-4.88,8-.56,3.89,2.14,7.33,4.16,9.9,3.85,4.9,7.21,5.27,7.89,9.18a13.92,13.92,0,0,1-.29,5c-.67,2.79-1.61,2.77-1.86,4.73-.42,3.27,2.05,4.39,1.43,7.46-.34,1.71-1.15,1.54-2,3.73-.16.42-1.62,4.3-.14,7.74,1.11,2.58,2.69,2.14,6.74,6.17,3.36,3.34,2.93,4.29,4.73,5,3.1,1.25,4.82-1.39,10.76-2.15,2.22-.29,6.9-.89,10.9,1.72a14.61,14.61,0,0,1,4.88,6c1.14,2.17,2.92,5.54,2.29,9.47-.43,2.71-1.63,3.23-1.58,6a8.21,8.21,0,0,0,1.58,5.16c1.81,2.22,3.81,1.46,5.16,3.59.66,1,.68,2.22.72,4.59a22.81,22.81,0,0,1-.86,6.6,16.7,16.7,0,0,1-2.87,6.16c-2.32,2.95-4.54,3.2-4.44,4.59.06.83,1.71,1.86,5,3.88,2.52,1.53,3.75,2.14,3.87,3.29.06.61-.23,1-1,2.3s-1.45,2.81-2.29,4.16c-2.46,3.95-4,9.56-4.59,11.9-1,3.9-1.55,5.88-.86,7.75.46,1.25,1.39,2.62,5.16,5,5.37,3.42,7.37,3.12,13,6.16a46.9,46.9,0,0,1,8.47,5.74,49.32,49.32,0,0,1,5.73,6,43.28,43.28,0,0,1,5.88,8.17c1.89,3.6,1.29,4.11,3.3,8.75,2.51,5.77,3.58,5.25,5.17,9.46,1.5,4,.51,4.4,2.15,12.77a78.54,78.54,0,0,0,2.58,10.18,87.1,87.1,0,0,0,3.73,9c2.89,6.62,2.24,6.67,5.88,16.2,3.17,8.31,6.74,16.35,6.74,16.35l2.44.72-1.29,37.72,1.72,1q.36,19.07.71,38.15-26.88,70.2-53.78,140.41c-1.49,6.22-1.24,11.27-.43,13.62a12.11,12.11,0,0,0,1.87,3.73c.91,1.07,1.49,1.19,1.57,1.86.13,1.09-1.27,1.78-3.73,4-1.89,1.73-2.84,2.59-3.29,3.59-.94,2-.46,4.1.14,6.74a24.59,24.59,0,0,0,2,5.45c1.46,2.92,2.11,2.9,2.58,4.59.57,2.07-.19,2.92-.72,6.59-.4,2.8-.81,5.6,0,8.75.46,1.8,1.36,3.45,3.16,6.74,1,1.77,1.82,3.19,2.43,4.16l22.23,29.26q.87,19.65,1.73,39.3c1.81,3.66,3.23,6.49,4.3,8.46a7.33,7.33,0,0,1,.86,2.44,8.08,8.08,0,0,1-.43,3.73c-.49,1.69-.23,2.27-.14,7,.12,6.91-.43,6.32-.15,9.47.36,4.1,1.23,4.48,2.87,11.47.49,2.11.9,4.47,1.72,9.18,2,11.35,1.75,12.75,1.29,14.06-1.07,3.1-3.33,5.35-5.73,7.74-3.41,3.4-5.56,4-5.88,6.46-.23,1.66.66,3.16,2.43,6.16,1.91,3.23,3.17,3.89,3.88,6.46a12.25,12.25,0,0,1,.28,4.3c-.45,5.13-3.11,9-4.87,11.76a112.23,112.23,0,0,0-7.61,14.06q.15,13,.29,26l-21.22,18.21c-.69.12-1.57.3-2.59.57a27.48,27.48,0,0,0-3.3,1.15,22.06,22.06,0,0,0-4.87,3c-2.95,2.32-4.4,3.87-6.89,6.17-6,5.55-6.44,4.72-7.17,6.46-1.79,4.28,1.85,7.12-.28,11.33a8,8,0,0,1-4.88,4c-3.86,1-8.65-1.49-11.47-6.45L2110,1022.23l-37,.29a19.22,19.22,0,0,1-5.45,5.88c-1.14.79-1.73,1-6.17,3-7.48,3.38-7.29,3.45-8.46,3.73-4.1,1-4.56-.28-9.18.71-3.36.73-2.59,1.29-7.6,2.73-3.6,1-5.42,1.15-7.74,2.87a9.58,9.58,0,0,0-2.73,2.87c-1.19,2-1,3.53-1.29,5.73-.13,1-.9,6.66-4.59,10-1.49,1.37-1.9.93-5.73,3.3a51.94,51.94,0,0,0-5.45,3.87l-10.19,18.79-12.91,6.46-3.72,11.33L1962.59,1114c-.77,5.81-2.71,8-4.45,8.89-1.52.77-2.67.43-5.74,1.72a29.79,29.79,0,0,0-4.59,2.58c-4.73,3-5.28,3.61-6.74,4.45-3.16,1.82-6.17,2-12.19,2.44a36.88,36.88,0,0,1-12.33-.72,32.6,32.6,0,0,1-6-2.15l-27.25-1.58c-1.18-.32-2.47-.62-3.87-.86a40.4,40.4,0,0,0-7.31-.57l-25.53,41.88a12.32,12.32,0,0,1-4.16,4.59,12.79,12.79,0,0,1-8.18,1.86,16.69,16.69,0,0,1-7.74-3c-4.64-2.92-5-5.29-7.17-5.16-2.56.15-2.53,3.56-7,6.16-2.82,1.64-6.89,2.66-8.17,1.15a2.18,2.18,0,0,1-.43-1.58l-43.61-.71a8.67,8.67,0,0,0-5.59-1.15,7.93,7.93,0,0,0-1.58.43c-2.52.94-3.07,2.39-4.3,3-.54.27-2.23.9-10.76-4.59-4.95-3.19-5.42-4.07-7.17-4-3,.09-4,2.82-8.17,4.87a17.83,17.83,0,0,1-8.32,1.72l22.23,43.75a6.86,6.86,0,0,1-3,2.15c-2.28.77-3.64-.33-4.73.43-1.53,1-.61,4.36-.29,7.6.47,4.78-.45,8.42-1.44,12.33-2.21,8.77-6.9,9.75-10.47,20.08-1.67,4.85-2,6.36-1.86,7.46.33,4.07,2.73,4.92,7.6,12.34,1,1.55,2.83,5.57,6.46,13.62.73,1.64,1.55,3.53.86,5.45a6.88,6.88,0,0,1-5.74,4c-4.23.35-5.27-3.88-12-7.17A28.84,28.84,0,0,0,1700,1293a29.21,29.21,0,0,0-12.76,2c-7.36,3-8.41,7.48-12.77,7.17-1.34-.1-3.64-2.07-8.17-6-7.2-6.27-10.11-8.83-13.77-11.62-3.91-3-4.32-3.65-5.59-4-2.73-.78-4.34.15-11.77.58-3.74.21-4.47,0-5.16-.43-2.22-1.54-1.07-4.19-3.44-7.32-1.4-1.84-3.9-3.71-6.45-3.58s-3.38,2.16-5.74,3.72c-4.74,3.14-11.1,1.34-19.36-1a74.79,74.79,0,0,1-14.06-5.74c-6.06-3.09-6.58-4.2-10.18-5.59-4-1.55-11.52-4.39-16.78-1.29-3.94,2.32-5.59,7.86-8.89,18.93a29,29,0,0,1-4,9.18,52,52,0,0,1-4.45,5.31c-3.46,3.73-3.87,3.41-4.87,5-2.27,3.62-.45,5.7-2,9.75-1.29,3.34-4.54,7.15-8.46,7.89-3.32.62-7-1.88-14.34-6.89s-8.63-6.89-12.2-7.31c-2.3-.27-5.08,1.06-10.61,3.44a47.06,47.06,0,0,0-9,4.59,32.17,32.17,0,0,0-9.33,9.61c-1.15,1.87-6.27,10.13-4.16,19.79.52,2.35,1.46,6.68,5,8.89,2.09,1.3,4.25,1.36,7.75,1.44,6.82.16,9-1.66,11.19-.15,1.6,1.1,1.53,2.79,2.43,8.61,1.91,12.27,3.23,11.33,2.87,15.78-.09,1.18-.78,5.09-2.15,12.9-.37,2.11-.65,3.67.14,5.31,1,2.15,2.86,2.24,6.17,5.16,2.21,2,3.32,2.93,3.73,4.31,1.37,4.55-4.25,10-5.45,11.18-3.17,3.09-4.26,2.4-5.88,4.88-2,3.06-2.86,8-.86,11.47,1.39,2.44,3.18,2.48,4,5,.71,2.19,0,4.13-.58,6-3.23,10.17-.91,9.32-4,18.07-1.32,3.7-2.6,6.28-1.3,8.46a5.43,5.43,0,0,0,2.87,2.15c4.43,1.64,7.54-2.48,10.76-1.15,1.76.73,2.54,3.13,4,7.89,1.76,5.68,1.37,7.6,2.72,12.19a29.14,29.14,0,0,0,4.59,10c5.18,6.85,12.8,8.78,15.06,9.33,3.72.89,4.37-.31,10,.57,5.17.8,7.75,1.2,9.46,2.87,2.88,2.8,1,5.75,3.73,15.34,1.54,5.39,2.85,7,3.3,7.46,2.39,2.69,4.77,2.88,9.47,4.73,6.78,2.68,11.34,4.48,14.48,8.61s2.7,7.43,7.18,10.76c1.42,1.05,2.57,1.91,4.15,1.86,3.46-.1,4.57-4.41,9.18-7.46,1.64-1.08,4.9-3.19,8.32-2.72,4.73.65,7.48,5.94,11.62,13.91,2,3.78,3.36,7.59,6.17,15.2,4.86,13.21,1.41,7,4,16.21a7.81,7.81,0,0,1-.14,5.59,5.78,5.78,0,0,1-1,1.44l-22.23-1.58q-1.42,13.49-2.86,27,10,17.22,19.93,34.42-.21,9.54-.43,19.08l-9.61-7.6-41.73-1.44q-25.11-22-50.2-44c-.64,0-1.41.08-1.72.58s0,1.49,1.43,3.58c2.56,3.8,3.67,4.25,4,5.88.21,1,.16,2.55-1.29,4.74a79.22,79.22,0,0,1-6.89,10c-1.24,1.52-2.94,3.48-2.44,5.45.45,1.72,2.32,2.31,2.16,2.72-.32.8-7.24-2.07-16.07-3.87-6.21-1.27-10.11-1.35-15.06-4.45-2.94-1.84-4-3.33-4-4.73-.06-1.7,1.33-2.38,3.3-5.45,1.47-2.31,3.11-4.89,2.86-7.32-.42-4.17-6.32-6.58-7.45-7L1448.13,1580a3.39,3.39,0,0,0-2.44-1.72c-1.06,0-1.71.93-2.43,1.57-2.07,1.86-4.28.88-9.9,1.44a42.53,42.53,0,0,0-7.89,1.58,47.36,47.36,0,0,0-7.17,2.72c-8.23,3.82-11.34,6.54-18.21,10a89.34,89.34,0,0,1-11.48,4.88,136.9,136.9,0,0,1-21.22,5.3,45.25,45.25,0,0,0-8.32,2c-2,.72-2.28,1-5.74,2.44-5.86,2.49-8.8,3.74-11.76,4-2.18.2-4-.06-7.75-.58-4-.56-6.06-.86-7.45-2-1.95-1.6-1.94-3.29-4.31-4.44a7.22,7.22,0,0,0-3.44-.72c-4.06.2-5,4.1-8.32,4a6.76,6.76,0,0,1-4.87-3c-1.39-2-.8-3.8-1.87-4.15-1.36-.47-3.56,2-4.44,3.29a10.53,10.53,0,0,0-.86,1.44q-17.58,21.15-35.14,42.31l-34.71-15.64a16.49,16.49,0,0,1-8.75,2.44,9.53,9.53,0,0,1-4.3-1,10.16,10.16,0,0,1-2.87-2.58c-3.83-4-9.73-1.91-10.9-4.74-.63-1.52,1.06-2.23,1-5.3,0-2.56-1.23-3.33-2.43-6.46a22.34,22.34,0,0,1-1.3-9.75c.52-4.26,2.21-3.64,3.16-8.17,1.2-5.72-1.15-8.35,1.15-13.06.84-1.73,1.1-1.25,2.15-3.15,2.49-4.53,1.11-7.44,2-14.49a50,50,0,0,1,2.58-10.47,94.45,94.45,0,0,1,3.87-9c4.94-10.93,4.28-10.17,5.88-13.2,4-7.66,5.15-6.6,7.75-12.33,2.26-5,.94-4.75,4.3-14.77,1.71-5.11,2.58-6.75,3.87-11.62a81.76,81.76,0,0,0,1.87-8.75c1-6.76.31-9.34.43-20.94.07-7.31.13-11,1-12.48,3.79-6.41,11.17-3.29,16.49-9.89,4.47-5.53,5.44-15.33,1.72-19.36-1.26-1.38-3.11-2.14-3.72-4.45-.58-2.15.42-3.74,1-5.59,1.6-5.1.33-12.75-4.16-15.64a10.74,10.74,0,0,0-10.33-.14c-2.65,1.47-2.77,3.42-4.73,3.59-3.31.27-5-5.13-7.89-4.59-2,.37-3,3.43-3,3.58-1,3.3,1.41,5.94.57,6.6s-2.85-1.39-7.6-3.87c-1.75-.93-2.81-1.36-3.58-1.72-8.36-4-27.59-20.15-46.76-31-3.08-1.75-5.86-3.18-8.6-4.59-9.92-5.12-15.21-7.84-21.52-9.9-9.2-3-8.31-.59-17.92-3.59-7.67-2.39-16.42-5.25-20.94-13.19-1.56-2.73-2-4.94-2.73-8.89a50.42,50.42,0,0,1,2.58-28.26c2.15-5.24,5.6-9.47,12.48-17.92,11.47-14.1,14.1-13.44,15.63-18.94,3.55-12.74-9.12-21.44-4.44-28.54,3.84-5.83,16.21-5.77,23.66-5.73,6.07,0,8,1,13.2,0a31.18,31.18,0,0,0,14.63-6.89c5.25-4.69,4.17-7.75,10.47-19.79,5.46-10.45,8.41-15.91,14.34-17.64,6.12-1.79,12.48,1.24,13.48,1.72,5.09,2.43,4.19,4.57,8.6,6.6,6.88,3.16,15.9,1.1,21.37-1.72,2-1,3-1.89,5.45-2.59,1.48-.41,5-1.19,10.9.15a41.09,41.09,0,0,1,14.92,6.88c5.43,3.93,6.66,6.7,11.47,7.75,1.34.29,2.84.42,6.6,0,8.33-.94,13.41-1.51,18.07-4.45,8.43-5.3,10.82-15.36,11.33-17.93,2.2-10.92-3.65-14.91.29-24.23.73-1.73,3-7.19,8.17-9.33a21.78,21.78,0,0,1,5.89-1.29c3.94-.36,5.08.5,7.31.15,3.64-.58,6.94-3.88,8.17-6.89,2.87-7-5.8-11.2-5.88-22.66,0-3.81,1-2.28,4-16.21,1.55-7,2.32-10.59,2.58-15.2.21-3.67-.15-7.75-.86-15.78-1-11.79-1.73-13.71-.43-17.49,1.49-4.31,4.13-6.91,6.89-9.61,2.55-2.52,9.35-9.19,18.78-10,6.21-.56,6.23,2,18.22,4.3,12.16,2.28,13.31-.19,19.36,2.73,6.65,3.2,7.29,7.16,14.06,9.46,4.31,1.47,7.46,1,12.33.72,9.08-.51,18.17.71,27.25,1,14.17.46,21.26.69,29.54,1.29,22.27,1.62,25.81,3.64,33.85.72,7.43-2.69,12.29-7.27,17.21-11.9,5.55-5.22,12.32-11.6,15.78-21.37,6.65-18.79-2.9-39-6-45.61-2.45-5.19-4.63-8.22-7.46-15.92-2-5.51-4.62-12.71-5-21.51-.36-7.92,1.39-9.84,3.15-21.37,1.16-7.52,1.3-14.43,1.58-28.26.37-17.83.49-26.87-2.58-32.56-1.64-3-1.76-2-10.47-14.48-7.46-10.66-8.17-12.8-8.46-15.06-.44-3.4,1.66-8.53,5.88-18.64,4.36-10.46,6.34-13.55,7.31-20.37.72-5-.13-4.87.43-9.47,1.41-11.45,7.47-20,11.48-25,8.65-10.73,11.72-9.7,15.63-17.36a40.12,40.12,0,0,0,4-20.08c-.72-15.32-9.34-18.26-8.32-31.26.71-9.15,5.09-9.19,5-17.21-.11-11.1-8.57-19.59-16.64-27.68-13.84-13.88-20.31-12.51-23.66-21.52-3.73-10,3.73-13.13,1.14-27.1-2.55-13.77-10.48-14.43-11.61-27.83-.79-9.26,2.93-9.83,1.86-21.08-.8-8.34-3.08-10.53-4.16-20.22-.32-2.85-1.21-10.9.14-17.07,4.22-19.16,29.46-17.09,41.74-40.87,1.87-3.63,7-13.9,4-24.67-1-3.51-1.62-2.77-8.75-14.78-8-13.5-8.15-16-13.48-22.23-4.74-5.52-5.93-5.06-7.89-8.89-4.61-9-1.72-18.73-1.29-20.08,2.11-6.77,4.68-5.74,8.74-14.63a45.27,45.27,0,0,0,4.74-18.35c.18-8.27-2.47-12.5-.43-13.92s5.23,2.61,14.34,5.17a72.14,72.14,0,0,0,11.19,1.86c3.49.43,7.22-.27,12.62,1,.91.21,1.65.42,2.15.57l.57-32.84,19.36-14.49c5,1.51,7.36.28,8.32-.43,1.63-1.2,1-2.13,3.73-7.6,1.68-3.31,2.78-4.65,3.16-7.46a9,9,0,0,0,0-3.58c-1.12-4.22-7-4.07-15.06-9-3.2-2-7.15-4.45-9.75-9.18a39.43,39.43,0,0,1-2.44-7c-2-6.53-2.92-9.79-3.44-13.34-1.42-9.59,2.26-11.69,0-14.77-3.19-4.31-9.75.3-20.08-4.73a26.74,26.74,0,0,1-9.61-7.75,26.37,26.37,0,0,1-4.16-8.46c-3.11-10.52,1.76-15.78-1.58-26.53-1.07-3.44-2.26-5.13-3.59-6.31-3.31-3-5.94-1.42-8.31-3.87-2.53-2.61-2-6.83-.86-14.78.43-3.17.8-5.69,1.86-5.88,2-.33,3,7.87,8.61,9.61,1.68.53,2.62.1,6.16-.43,9.12-1.36,10.21.85,13-.71,3.82-2.1,2.36-5.39,7.32-9.33.76-.6,5.52-4.38,8.46-2.87s1.54,6.82,3.87,7.61,4.47-4.25,9.61-5.17c.9-.16,5-.93,6.74,1.15,1.42,1.69,0,3.71,1.29,5.16.54.6,1.6,1.17,8.9-.14,7.5-1.34,10.11-2.61,10.9-3a25.35,25.35,0,0,0,4.44-2.87,27.33,27.33,0,0,0,2.44-2.29c4.52-4.89,6.88-13.69,7.31-15.35.65-2.46,1-4.27,1.58-7.89,1.74-10.09,2.61-15.14,2.73-16.21a22,22,0,0,1,2.29-6.74c.47-.93.77-1.38,1.29-1.57,1.67-.61,3.83,2.06,6.17,4.3,3.48,3.33,3.44,2,10.47,7.17,7.56,5.6,7.21,6.89,10.47,7.74s6,.24,11-.86,5.06-2,9.76-2.86a70.7,70.7,0,0,1,10.75-.87c8-.31,7.53.18,8.89-.28,6.73-2.29,12.3-12.39,9.9-18.65-1-2.55-3.18-4.19-2.87-7.45.06-.6.27-2.87,1.87-3.88s3.14,0,8,1.15c4.16,1,6.26,1.41,7.31.57,2-1.62,1.11-6.47,0-9.32-1.62-4.16-3.85-4.61-3.58-6.6.43-3.15,6.11-2.41,11.47-7.6,4.08-3.95,3.22-6.73,6.89-8.17,2.29-.91,2.82.11,8.6-1,2.41-.46,3.32-.83,4.45-.28,1.6.78,1.94,2.61,3,5.73.88,2.6,2.13,5.06,3.15,7.6,3.93,9.74,4.68,9.36,4.59,11.62-.13,3.62-2,5.21-1,8.61a6.8,6.8,0,0,0,2.15,3.44c3,2.41,7.85,1,8.46.86,1.51-.45,1.67-.84,2.44-.72,2,.32,2.66,3.14,4.45,7.32,2.47,5.79,2.88,4.5,5,9.75,1.74,4.3,1.89,6.21,4.16,8.61a13.7,13.7,0,0,0,3.87,2.86c3.89,1.9,6.53.64,11.33.72,5.33.09,4.23,1.68,15.63,4,4.07.83,5.82,1,9.32,2.15a30.32,30.32,0,0,1,7.75,3.58,23.21,23.21,0,0,1,7.46,9.33c4.42,8.92,8.88,15.79,17.78,29.54,8.77,13.55,11.91,14.82,14.2,14.63,5-.41,10.9-8.17,10.9-8.17,9.62,2.42,12.47,1.87,13,.71.18-.35,0-.52.14-1.72a9.88,9.88,0,0,1,1.73-5.16,6.86,6.86,0,0,1,4.73-2.15c3.32-.24,4,1.94,8.75,3.44,4,1.24,4.47,0,8.32,1.43,4.17,1.51,5,3.44,6.45,2.87,1.84-.72,1-4,3.59-10.9a15.09,15.09,0,0,1,3.58-5.59c.74-.72,2.44-2.31,3.87-1.87.7.22.71.72,1.29.86,1.47.37,3.75-2.14,4.88-4.87s.2-3.31,1.29-6.17a14.79,14.79,0,0,1,3.3-5c2.38-2.49,3.62-2.21,6.45-4.45,1.8-1.41,4.59-3.61,5.6-7,0,0,.51-1.74-.72-10a17.87,17.87,0,0,1,4.73,1.43c2,.9,2,1.36,4.16,2.44,3.17,1.59,4.29,1.23,5.31,2.58.48.65.45,1,.86,3.87.58,4,.88,6,1.58,7.32.47.9,1.68,3.16,3.87,3.73,2,.51,3-.83,6.74-1.87s3.62,0,6.17-.86,2.71-2,8.89-6.31a8.8,8.8,0,0,1,3.3-1.72c2.52-.56,3.72.7,5.88.72,2.78,0,4.81-2,7.6-4.88a24.45,24.45,0,0,0,6-9.18c1.13-3.15.66-4.09,2.59-11,.78-2.82,1.26-4.14,2.58-5.16,1.73-1.36,4.61-1.94,6.59-.86,1.3.7,1.25,1.57,2.73,2.15a6.44,6.44,0,0,0,3.87,0,10.4,10.4,0,0,0,4.16-2l.86-16.21c6.54-1.58,9.17-5,10-6.31a23.78,23.78,0,0,0,2.73-6.88c.64-2.32,1.33-5.7,1.72-7.6.74-3.64.72-4,1.29-4.59,1.48-1.49,3.14-.4,8-1.44,2.85-.6,3.09-1.15,5-1.15a12.15,12.15,0,0,1,5.45,1.44c3.39,1.64,2.77,3.38,5.88,4.88,2.47,1.19,3.71.59,5.16,2.15a9.27,9.27,0,0,1,1.72,3.44c1.16,3.11.65,3.65,1.44,4.73,1.11,1.55,3.1,1.8,6.88,2.3,4,.52,4.91-.07,7.17.86,1.23.5,1.54.91,4,2.87,4.71,3.71,7.1,5.56,8.89,5.45,2.68-.18,4.53-2.94,5.45-4.31,2.47-3.67,1-5.5,3-10.9,1.71-4.56,3.14-4.26,4.74-9a46.7,46.7,0,0,0,1.57-8.46c1-7.31.61-9.16,2.16-10.19,2.08-1.38,4,1.09,7.45.15,2.88-.79,4.54-3.5,7.75-8.9a67,67,0,0,0,5.59-10.9C2182.18,4.79,2182.53,2.75,2184.46,1.93Z"/><path d="M612.13,1832.85c-2,1-2.14,4.11-2.16,4.59a4.82,4.82,0,0,0,.86,3.44c1.3,1.49,3.58,1.22,6.6.86,2.32-.27,4-.49,4.59-1.72a3.51,3.51,0,0,0-.28-2.87c-.82-1.69-2.43-2.39-4.59-3.3C614.6,1832.79,613.33,1832.26,612.13,1832.85Z"/><path d="M593.91,1799.29c1.89-1,3.68-.65,7.17,0,3,.56,4.49.83,5.88,1.72s1.67,1.52,4.74,5.31c3.33,4.11,3.13,3.56,3.44,4.16,2.25,4.34.92,10.71-2.58,14.48a12,12,0,0,1-11.19,3.59,11.53,11.53,0,0,1-8.18-6.46c-1.45-3.53.86-4.42,0-9.89-.81-5.24-3.41-7.46-2-10.33A6,6,0,0,1,593.91,1799.29Z"/><path d="M523.06,1801.87c1.63-2.38,6.41-2.48,7.89-.57.51.66.2,1,0,5.3-.16,3.45,0,4.63-.86,6.31-.53,1.06-1.1,2.19-2,2.3-2,.23-4.2-4.68-5-8.18C522.53,1804.75,522.16,1803.19,523.06,1801.87Z"/><path d="M355.26,1662c-1.06,0-2.17,2.29-2.3,4.31,0,.78-.17,2.69,1.15,3.87,1.83,1.65,5.37.91,5.88-.43.3-.79-.64-1.28-2.58-4.59C356.05,1662.88,355.88,1662.06,355.26,1662Z"/><path d="M309.36,1631.06c1,1.82,2.42,1.94,4.45,3.58.34.28,3.68,3,3.15,4.3-.76,1.86-10,1.23-11-2.15-.19-.61.21-2,1-4.73.89-3.07,1.24-3.31,1.44-3.3C308.75,1628.78,308.71,1629.84,309.36,1631.06Z"/><path d="M369.89,1692.44c1.64-.06,3.11-.22,3.58-1.15s-.52-2.08,0-2.72,2.16,0,4.45.43c4,.66,4.74-.67,6.16.14,2.14,1.21,1.33,4.67,2.44,13.2.89,6.79,1.82,7.81,2.44,8.31,2.28,1.87,4.33.06,9.32,1.44,1.54.42,5.77,1.66,8.32,5.45,1.23,1.83,3.08,5.75,1.58,7.6-2.13,2.63-8.67-1.8-11.62,1.15-2.26,2.26-.14,6.6-3.3,9.18a3.17,3.17,0,0,1-2.29,1c-2.32-.31-2.28-5-6-10.9-1.75-2.76-2.62-4.14-4.45-5.16-2.16-1.2-5.16-1.66-9.32-2.3-1.88-.28-2.78-.35-3.59-1.14-1.2-1.19-.57-2.39-1.43-5.31a10.92,10.92,0,0,0-3.44-5.74c-.17-.13-.05,0-2.87-1.72s-2.93-1.79-3.16-2.15c-1.09-1.72-.09-4.15.43-5.45.61-1.5,1.37-3.37,3.16-4.3C362.47,1691.16,363.88,1692.65,369.89,1692.44Z"/><path d="M335.18,1880.18c-.48,0-.8.67-1.46,1.73-2.84,4.57-5.5,5.2-5.14,6.59.42,1.6,4.51,2.83,6.6,1.15a5,5,0,0,0,1.43-3.45C337,1883.41,336.17,1880.25,335.18,1880.18Z"/><path d="M411.48,1762.14c-2.11-.55-5.12-.15-5.88,1.29-.64,1.22.25,3.27,1.58,4.45,1.87,1.67,3.58.63,7.88,2,2.22.7,3.81,1.21,4.88,2.72,1.92,2.71.57,6.39.43,6.74-1.17,3-3.89,4.47-6,5.6-1.88,1-2.82,1.48-3.88,1.43-3.19-.15-4-4.09-9.75-11.76-3.53-4.72-4.69-5.17-5.16-7.74-.24-1.28,0-3.68.43-8.47.19-2,.29-2.61.72-3.29,1.59-2.59,5.46-2.8,6.74-2.87,4.08-.23,10.14,1.28,11.18,5,.56,2-.24,4.73-1.57,5.16C412.56,1762.59,412.25,1762.35,411.48,1762.14Z"/><path d="M279.53,1367c-.86,2.51-3.45,3.8-4.45,4.3-2.3,1.15-3,.57-3.58,1.29-1.44,1.83,3,5.91,6.31,13.05a93.58,93.58,0,0,1,6.17,19.08c.47,2.29.77,4.23,2.29,5,2.75,1.42,8.53-1.43,10.18-5.6.9-2.26.33-4.29,1.73-5,1.15-.6,2.14.46,4.3,0a7.05,7.05,0,0,0,3-1.58c.45-.35,4-3.18,3.44-5.88-.12-.57-.47-1.37-6.17-4.73-4-2.36-4-2-4.58-2.72-2.68-3-.31-6-2.59-10.19-1.15-2.1-3.06-3.26-6.88-5.59-1.47-.9-7.22-4.4-8.75-2.87C279.64,1365.91,279.83,1366.12,279.53,1367Z"/><path d="M281.11,1414.06c-2.64,3.54-7,2.29-10.18,5.3-1,.9-1.5,2.23-2.59,4.88-1.46,3.58-3.44,8.45-1.72,13,.74,2,1.28,1.55,2.58,4.45a26.17,26.17,0,0,1,2,7.89,39.82,39.82,0,0,1-.14,8.32c-.43,5.24-1.06,6.36-.43,9.17.19.87.16.35,1.72,4.74,1.29,3.63,1.93,5.44,2.29,6.59,1.2,3.83,1.21,4.72,2.3,5.45a6.46,6.46,0,0,0,4,.72c1.38-.14,1.52-.56,3-.72,2.14-.22,2.63.56,3.58.15,1.5-.65,1.1-2.94,2.3-5.74s2.66-3.15,4.16-5.16c1.3-1.76,1.26-3,1.43-14.92.1-7.23.16-10.11-1.72-13.48-1-1.79-1.23-1.35-2-2.87-2.76-5.36,1.09-8.83-.14-16.2a20.57,20.57,0,0,0-3.87-8.75c-.95-1.38-3.29-4.78-5.17-4.31C281.86,1412.8,281.61,1413.39,281.11,1414.06Z"/><path d="M1528.59,360.19c-2.53,5.19-2.07,6.72-3.73,9.76-2,3.6-3.26,2.64-5,6.31-1.09,2.27-1.39,4.3-1.86,7.46s-.72,4.78-.29,6.45c.62,2.42,1.66,2.38,3.87,6.17s1.64,4.69,3.59,7c1.63,1.95,2,1.32,5,4,2,1.84,2.36,2.58,6.17,6.45,2.82,2.88,3.53,3.37,4.16,3.16,1.08-.37,1.57-2.74,1-4.59s-1.83-2.46-3.59-3.87c-2.44-2-4.11-4.19-7.45-8.61a35.6,35.6,0,0,1-4-6,26.22,26.22,0,0,1-2.72-9.32c-.28-3-.5-5.51,1-7.61,1.14-1.59,2-1.23,3.3-3,.78-1.09.75-1.65,1.86-6.45a35.2,35.2,0,0,0,1.15-5.74c0-.6.33-4.26-.43-4.44C1530.32,357.26,1529.83,357.66,1528.59,360.19Z"/><path d="M1546.66,435.35c2.58,1.75.77,5.85,2,14.34.5,3.45,1,4.35.86,7-.25,3.84-1.69,7.54-2.58,7.45-.57-.05-.58-1.61-1.58-4.58a48,48,0,0,0-2.29-5.17c-1.56-3.71-1.32-7.11-.86-13.91.24-3.57.63-5.1,1.72-5.59A2.94,2.94,0,0,1,1546.66,435.35Z"/><path d="M1505.07,521.69c1,7.54.57,9.08,2.15,10.9,1.87,2.15,3.94,1.71,4.59,3.73.52,1.6-.58,2.52-1.29,5.59-.54,2.35-.25,3.33-.29,6.74,0,4.52-.59,5.29-.86,9.47-.64,9.91,2,12.35-.43,17.35-1,2-2.9,4.81-4.73,4.59s-1.56-3-4.59-5.45c-2-1.62-2.88-.92-6.88-3.16-2.43-1.35-3.64-2-4.31-3.29-.37-.72-.71-1.81.43-7.46.79-3.87,1.18-5.8,1.87-7.32,1.55-3.39,2.92-3.73,4.59-7.17a26.12,26.12,0,0,0,1.86-6c1.72-7.45,1.52-9.87,2.87-15.92.43-1.93,2.18-9.73,3.44-9.61C1504.13,514.72,1504.45,517,1505.07,521.69Z"/><path d="M1519,588.23c-2.52-.08-4.34,3.44-5.16,5a16.1,16.1,0,0,0-1.72,6.89c-.25,7.22,3.77,12.51,5.59,14.91,2.53,3.33,5.71,6.11,6.46,5.6s-1.08-2.59-.86-6.31c.15-2.67,1.1-2.92,1.43-5.6.4-3.3-1-3.62-1.29-8s1-5.55-.14-8.32C1523.19,592.16,1521.57,588.32,1519,588.23Z"/><path d="M1558.85,666.11c-3.67-.81-7.84,2.66-9.46,6.31-1.55,3.48.23,4.79-.72,10.9-.76,4.89-2,4.44-2.72,9-1.18,7,1.47,9-.58,13.62-.8,1.8-1,1.16-4.73,6.17-3,4.14-4.55,6.2-5,8-1.08,4.24.56,8.24,2,11.76,1.83,4.46,3.08,4.56,4,8.47a24.08,24.08,0,0,1,.43,8c-.28,3.23-.43,4.85-1.57,6.59s-2.51,2.38-2.3,3.45,1.86,2,3.16,1.72c1.12-.24,1.54-1.3,3.3-4.74,2.45-4.8,2.3-4.06,3.29-6.31a44.35,44.35,0,0,0,2.44-6.74c.48-1.76.72-3.12,1-4.73.47-2.65.45-3.34.86-6,.63-4.21.94-6.31,1.57-7.6,1.11-2.27,1.91-2.17,4-5.74a23.82,23.82,0,0,0,2-4,18.47,18.47,0,0,0,.86-8c-.85-11.79-3-14.44-1.58-20.36.4-1.67.49-1.15,1.87-5.6,2.56-8.29,2.26-10.24,1.43-11.62A6.19,6.19,0,0,0,1558.85,666.11Z"/><path d="M1563.59,704.41c.51-.08,1.25,1.81,2.72,5.59a45.54,45.54,0,0,1,2.3,6.74c.61,2.77,1.17,5.33.57,8.32-.54,2.68-1.61,3.62-4.73,8.89-2.12,3.57-2.14,4-3.73,6.74-4.18,7.24-10.52,15.82-11.62,15.21-.47-.27.27-2.07,3.3-11.77,1.29-4.12,2.3-5,2.29-7.45,0-2.79-1-4.2-.14-6.6.48-1.33.85-1.1,2.58-3.73a34.82,34.82,0,0,0,4.59-10.33C1563.54,709.2,1562.73,704.54,1563.59,704.41Z"/><path d="M1533.47,762.21c-1.56.88-2,2.64-2.44,4-1.47,4.59-2.67,4-6.17,10.76-2,3.81-1.6,4-5.88,15.34-3.43,9.1-3.48,8.46-4.3,11.33-.58,2.05-4.52,15.84-.72,17.93,1.47.81,3.88-.25,5.17-1.58,2.37-2.43.41-5.16,2.43-10a20.63,20.63,0,0,1,4.45-6.32c2.89-3,4.15-2.9,5.31-5.16,1.36-2.65,0-3.59,1-7.31,1.2-4.53,3.56-4.53,4.3-8.32s-1.61-4.51-1.29-8.75c.45-6,5.45-8.51,4.16-10.9C1538.61,761.58,1535.38,761.12,1533.47,762.21Z"/><path d="M1552.4,1007c-1.06-6.88-1.76-6.77-3.16-13.92-2.15-11.05-4.44-31.52-7.88-35.13-.09-.1-.92-1-2-2.15-1.61-1.78-2.76-3.17-2.87-3.3-3.91-4.8-3-15.21-3-15.21,1.64-18.46,11.44-24.41,7.74-33.27a83.34,83.34,0,0,0-5.16-10.33c-2-3.28-3.24-4.61-3-6.74.33-3.1,3.26-3.21,4.59-7,.83-2.39.36-4.66-.58-9.18a44.72,44.72,0,0,0-2.43-7.89,60.49,60.49,0,0,0-5.17-9.9,81.32,81.32,0,0,0-5.45-7.46c-4.08-5.2-12.12-15.45-13.91-27.1a79.69,79.69,0,0,0-1.86-9.9c-1.33-5.06-2-5.52-2.44-7.6-1.16-6,3.1-10.79,14.63-26.53,2.51-3.43,4.84-7,7.45-10.33,4.62-5.89,6.41-7.34,6.75-10.61.3-2.91-.76-5.34-2.87-10.19-1.87-4.29-2.57-4.25-4-7.88-1.58-4-3-7.41-2-11.19,1-3.93,3.55-3.64,7.17-8.46,2.28-3,3.85-8.62,6.89-19.65,1.2-4.36,1.8-6.54,2-7.6,2.08-10.75-.48-13.65,1.14-25.1.62-4.37,1.2-5.4.43-7.32-1.9-4.77-8.59-4.83-14.19-7.31-8.25-3.65-12.39-11.88-16.07-19.65-3.2-6.78-4.57-13.59-5.73-19.36-.75-3.72-1.44-8-1.44-8-.77-4.84-.76-5.88-1.15-8.18-1.14-6.86-2-12.1-5.73-15.63-3.26-3.08-5.29-1.65-10.76-6.17-2-1.67-3.63-3-4.73-5.45a13.73,13.73,0,0,1-.15-10.33c1.29-3.13,2.6-2.58,5-6.31s1.55-4.81,4.45-11.76c1.68-4,2.06-3.79,3.44-7.17,2.31-5.64,2-8,3.16-11.9,1.25-4.11,2.76-5.26,13-17.64,8.42-10.14,6.57-8.36,9-11.05,4.55-4.95,13.4-13.78,18.65-20.51a22.91,22.91,0,0,0,3.15-6.16c1.28-3.73.72-5.17.43-5.74-.67-1.34-1.53-1.13-2.58-2.44-1.33-1.65-.84-3.08-1.14-8.17s-.92-5.3-.43-7.32,1.32-2.49,2.86-5.73c1.34-2.81,2.24-4.71,2.3-6.46.16-4.85-6.26-6.4-15.2-15.92-4-4.31-3.23-4.51-6.89-8-5.08-4.88-8.11-5.86-9.46-9.61-1.12-3.08-.38-6,.57-9,6-19.18,14.53-23.89,12.91-33.13-.78-4.45-3-4.61-4.88-12.63-1.25-5.25-.91-7.72-3.15-9.46-1.78-1.38-3.37-.92-10.19-1.72-2.86-.34-5.19-.73-6.74-1l-49.34-38.72q-.78-12.84-1.57-25.67c-9.68-1.08-14.91-3.62-17.93-5.88a21.16,21.16,0,0,0-7.75-3.45c-1.6-.35-4.26-.89-5.45.43-1,1.1-.1,2.51-1.29,4a4.67,4.67,0,0,1-3,1.58c-.94.11-2.3-.05-5.88-2.87s-3.81-3.92-6.6-5.59c-1.89-1.14-3.33-2-5-1.72-2.74.45-2.91,3.38-5,4.3-2.51,1.09-6-1.45-19.36-13.48-5.13-4.63-9-8.24-15.49-10a27.4,27.4,0,0,0-4.44-.86l-40.16,24.38-26.1-.72a30.43,30.43,0,0,1-14.78-3.87,31.41,31.41,0,0,1-8-6.6c-4.28-5-4.26-8.44-9.32-13.05a29.09,29.09,0,0,0-4.45-3.3c-8.08-4.87-12.41-2-16.78-5.59-2-1.65-.87-2.07-5.59-13.77-2.53-6.28-3.84-9.48-5.88-12.19a68.33,68.33,0,0,0-8-8.61,38.73,38.73,0,0,1-5.6-6c-.69-.94-1.22-1.74-1.57-2.3l-1.44-25.67-10.75-.43a14.48,14.48,0,0,1-.86,7.46c-.67,1.59-1.88,3.16-4.31,6.31-2.61,3.39-2.75,3.17-3.44,4.45a16.83,16.83,0,0,0-1.86,8c-.05,4.45,1.44,4.8.86,7.6-.29,1.4-1.92,3.34-5.17,7.17-5.37,6.35-5.62,6.63-6.31,7.31a62.5,62.5,0,0,1-7.17,6.17l-25.67-.28-12.62-13.2c0-8.76-1.69-11.95-3.3-13.19a15.42,15.42,0,0,1-1.86-1.58c-1.86-1.85-2.3-3.27-3.45-4.88-1.65-2.33-2.44-1.78-4.44-4-.61-.68-4-4.43-3.73-9,.11-2,1-3.55,2.72-6.6,3-5.16,4.8-5.66,4.88-8.32,0-1.61-.83-3.08-2.58-6s-2.88-4.84-5.17-6.17c-1.6-.93-2.12-.57-6.74-1.29-1.8-.28-5.07-1-11.61-2.58-3.36-.79-5-1.18-5.88-1.43-3.09-.93-4.33-1.61-9.9-4-8.42-3.64-9.84-3.93-11.62-3.87a17.73,17.73,0,0,0-6.59,1.58c-3.42,1.59-3.17,2.91-4.88,3.15-2.38.34-4.74-1.94-14.63-12.05a7.66,7.66,0,0,0-3.73-2.29c-.56-.13-2.24-.44-5.45.86-1.55.63-3.56,1.67-7.46,5-4.57,3.93-4.12,4.48-5.73,5-4.28,1.44-9.24-1.86-10.76-2.87-4.44-3-5.15-6-7.75-5.74-1.66.14-2.91,1.49-4.73,3.45s-1.85,2.83-3.58,5c-2.09,2.63-3.47,4.36-5.6,4.87-3.48.83-7.95-1.86-10-5.16-1.4-2.22-1.31-4.07-2.87-4.59-1.39-.47-2.94.52-4.58,1.58-2.5,1.59-2.77,2.65-4.45,3.87-3,2.18-4.75.71-7.89,2.15-2.74,1.26-4.4,4.44-7.6,10.76-3.62,7.13-2.92,7.92-4.88,9.46-3.79,3-9.26,2.25-14.2,1.58-3.73-.51-6-.82-8.46-2.44-5-3.31-4.78-8.11-7.74-8.32-3.6-.25-7.57,6.59-7.75,6.89-1,1.77-.89,2.31-1.86,3.15-2.74,2.37-7.36,1.26-9,.86-2.19-.52-1.85-.93-4.87-2-3.78-1.35-5.14-1.06-8.9-2.15-3.41-1-4.1-1.76-6.45-2.59-5.1-1.79-9.69-.93-17.78.58-6.71,1.25-11.4,3-14.2.43-.48-.44-.39-.53-1.15-1.29-2.84-2.87-6-3.44-7.89-4.16-6.52-2.46-5.07-9-11.9-11.62a11.9,11.9,0,0,0-7.75-.43c-3.85,1.22-6.1,4.53-7.31,6.31-2.38,3.5-1.67,4.75-3.87,6.88a11.44,11.44,0,0,1-7,3.16c-3.92.17-4.75-2.31-11.19-4.16-2.85-.82-6.68-1.92-8.46-.14-1.31,1.31-.15,2.83-1.29,5.3-1.51,3.29-5.91,5.75-9.18,4.88-1.29-.34-2.69-1.95-5.45-5.16-3.63-4.22-3.42-4.72-4.73-5.45-3.4-1.9-9-.92-11.91,2.15-2.12,2.24-1.18,3.87-4.3,9-1.52,2.52-2.28,3.77-3.59,4.59-3.35,2.12-5.75-.48-12,0-6.46.5-8.36,3.58-11.62,2-2.7-1.3-2-3.71-5-5.59-2.21-1.39-3.57-.7-10.47-.58-8.73.16-12.07-.85-13.77,1.44-.94,1.28-.3,2.12-1.58,4.16a10.13,10.13,0,0,1-5,4c-3.57,1.26-5.58-1.27-12.62-3.58-8.65-2.85-10.87-.75-15.63-4.16-3.64-2.61-3.09-4.37-6.31-5.59-3.74-1.43-7.85-.32-12.19.86s-5.23,2.18-8,2-4.49-1.32-7-2.72c-4.37-2.41-9.18-3.92-13.77-5.88-11-4.69-12.3-5-14.2-4.59s-3.93,1.4-6.88.86a11.27,11.27,0,0,1-4.73-2.15V110.35l-19.8-.86c-2.63,1.92-4.41,3.78-4,5.17.44,1.54,3.25,1.35,3.73,3,.52,1.82-2.24,4.22-4,5.3a11.9,11.9,0,0,1-8.17,1.44c-2.53-.53-3.09-1.6-7.89-5.16-7.76-5.77-10.56-6.17-12.19-6.17a13.2,13.2,0,0,0-4.59,1c-6,2-11.21,5.66-17.93,10.47a10.68,10.68,0,0,1-4.88,2.3c-2.57.36-3.34-.76-5.73-.29-2.17.42-3.62,1.75-5.31,3.3-2.16,2-2,2.7-4.3,5-2.58,2.59-3.87,3.89-5.31,3.73-2.75-.31-2.65-5.31-7.31-7.46a5.63,5.63,0,0,0-3.45-.72c-2.34.41-3.09,2.66-7,8.18-3.07,4.29-4.27,5.25-5.6,5.88a10.22,10.22,0,0,1-5.16.86l-56.37,1.43-13.48,9c-6,2.09-10.1,1.55-12.76.57-1.95-.71-3.06-1.62-5.74-2a13.21,13.21,0,0,0-8.17,1.15c-3,1.63-2.63,3.37-5.6,5.16-2.73,1.65-3.81.63-7.74,1.73-4.73,1.31-4.59,3.18-11.48,6.59a57.32,57.32,0,0,1-8.31,3.3c-6,2-6.6,1.23-9.47,2.44-4.06,1.71-6.68,5.23-11.76,12.19-4.53,6.21-4.29,7.27-7.75,10.76-2.78,2.81-5.14,5.19-9,6.59s-5.54.41-10.61,2.44a30.49,30.49,0,0,0-5.88,3.16,30.06,30.06,0,0,0-6.32,5.73c-2.42,3-4.3,5.35-4,8.18s2.23,3,3.15,5.74c.83,2.46.19,5-3.58,12.33-2.48,4.82-4.29,7.77-7.6,13.48-5.06,8.71-5.73,10.24-6.17,12.62a21.23,21.23,0,0,0,.43,10.9c1.69,5.07,4.63,6.34,4,9-.54,2.35-3.21,3.4-7.75,5.45-4.79,2.16-9.38,4.77-14.2,6.88-16.57,7.26-26.15,22.1-29.11,26.68-2.15,3.33-3.54,5.51-4.59,8.89-1.7,5.45-.81,8.5-2.44,17.79a47.08,47.08,0,0,1-1.29,6.16c-3.48,10.34-12.16,12.89-16.92,23.09a11.61,11.61,0,0,0-1.44,5.74c.2,4.07,3,5.56,2.3,7.89-.6,2.11-3.33,2.6-7.46,4.3-4.49,1.86-4.46,2.59-11.19,6.31a196,196,0,0,1-26,11.91c-10.88,3.87-17.44,4.72-20.94,9.89a72.38,72.38,0,0,1-4.16,6.6c-2.6,3.5-4.12,4.6-4.16,6.88a8.82,8.82,0,0,0,2,5c.49.71.87,1.09,3.44,3.45,4.4,4,5,4.42,5.45,4.73,2.49,1.62,3.08,1.22,5.17,2.44,4,2.31,7.62,7.15,6.45,9.61-1,2.17-5.72,2.26-7,2.29-3.39.07-5.29-1-6.16,0s.51,2.39.14,4.59-2,3.36-4.88,5.45c-5.47,3.95-8.21,5.93-9.46,6.46-5.14,2.16-8.13.58-16.5.14-15.1-.8-18.84,3.63-31,1.43-5.92-1.07-9.75-2.15-9.75-2.15-4.06-1.15-5.84-2-10-2.87-3.86-.82-5.79-1.23-7.31-1C5.93,482.81.13,488.87,0,495.44c0,.47,0,6.44,3.87,9.9,1.81,1.59,4.2,2.43,5,5a6.23,6.23,0,0,1,.15,3L7.6,558l-2.29-.57c-.15,16,0,27.66,0,30.55a7.57,7.57,0,0,0,1.58,5.16c1,1.1,1.66.9,2.29,1.72,1.6,2.07-1.08,5.42-2,10.19-.66,3.39-.1,5.94,1,11,.9,4.17,1.78,8,4.73,11.62A19.49,19.49,0,0,0,16.35,631C26.87,639.36,33,667.87,32.7,677.3a12,12,0,0,0,1.44,6.6c1,1.66,2,2.41,3.58,3.87a38.82,38.82,0,0,1,5.88,7,4.63,4.63,0,0,0,3.3,1c1.56-.25,2-1.5,2.87-1.43,1.62.11,2.33,4.34,3.58,8.17.45,1.37,1.93,4.21,4.88,9.9,6.14,11.82,8.06,13.56,10,14.48A15.25,15.25,0,0,0,74,728.64c1.61,0,2.71-.42,3.87.29,1,.61,1.88,2,1.58,3s-1.72,1.44-6.74,2.59c-6.19,1.4-7.27,1.56-8.18,2.72a6.25,6.25,0,0,0-.57,6.17c1,2.14,3,2.17,3.15,3.73s-1.92,2.15-2.72,4.59a6.93,6.93,0,0,0,.14,4.3,14.44,14.44,0,0,0,1,6.31c.82,2,1.55,2.38,2.87,4.73s2.73,4.85,2.73,7.75c0,1.08-.19,1.47-2.73,8.17-1.23,3.26-1.84,4.9-1.86,5.16-.34,5.11,4.79,9.76,7.17,11.91,2.85,2.57,4.24,2.86,5.59,5.31a13.58,13.58,0,0,1,1.44,6.74c.43,15,2,20-1.15,22.08a35.52,35.52,0,0,0-3.44,1.87,23.13,23.13,0,0,0-4.16,4,24.77,24.77,0,0,0-3.3,4.16c-1.29,2.79-.81,5.6-.29,8.61s1,2.8,1.72,6.45c.36,1.69.58,3.54,1,7.17.69,5.92.62,6.84,1.58,8.32s2,2.23,4,3.59a18.7,18.7,0,0,0,6,3c3.65.91,4.82-.6,8.74-.57,5.47,0,9.66,3,11,4,4.23,3,3.49,4.94,8.75,8.61a58.12,58.12,0,0,0,6,3.3c2.87,1.47,4.09,2,5.59,1.72,1.33-.21,1.61-.78,2.44-.58.34.08,1.73.52,3,5.74,1.07,4.33.92,7.34,1.72,7.46s1.11-2.11,2.44-2.3,2.71,1.87,3.16,2.58a105.14,105.14,0,0,1,6.88,12.2c1.77,3.54,4.31,8.67,9.47,12.47,3.94,2.91,8,4,9,7.6a8.7,8.7,0,0,1,.15,4.31c-.5,1.77-1.38,2-1.44,3.15-.09,1.81,2,2.56,4.59,5.31,3.47,3.67,2.38,5.14,4.88,6.6s3.66.1,7.6,1.72a16.21,16.21,0,0,1,4.45,2.72c1.92,1.71,2.43,3.15,4.87,8.32,3.38,7.15,3.82,7.42,3.88,9.18.08,2.43-.59,6.65-3.3,8s-4.23-1.31-8.61-.57a13.83,13.83,0,0,0-7.31,4.16c-1.9,1.94-1.86,3-4.16,5.73a26.61,26.61,0,0,1-4.45,4.16q-.08,18.22-.14,36.43l-3.44,4.59-.15,26.25a10.47,10.47,0,0,0-2.15,3.15,22.77,22.77,0,0,0-1,3.59c-.49,2-.54,1.9-1,3.73-.39,1.53-.91,3.71-1.43,6.45l19.65,31.7,7.74,7.6c.57,1.85,1.45,4.75,2.58,8.32l1.15,3.58c1,3,1.52,8.8-.14,21.09a25.79,25.79,0,0,0,4.59,8.6c1.6,2,2.13,2,3.3,3.73,2.5,3.73,1.5,5.74,3.44,9.32,2,3.76,3.88,2.91,5.59,6,2.42,4.38-.84,6.77,0,13.77.33,2.74,2.28,6.75,6.17,14.77,1.15,2.37,2.52,5.2,4.16,8.17,5.3,9.64,9.79,14.33,18.21,25.53,2.5,3.33,6.06,8.17,10.19,14.2l1.57,2.3q-.71,22-1.43,44a8.18,8.18,0,0,1,3.44,3.29c.85,1.62.67,2.85.86,4.31.42,3.16,2.15,3.91,5,8.32,2.45,3.75,1.22,3.25,4.73,9.61,2.13,3.83,3.29,5.3,3.73,8.17a12,12,0,0,1,0,5.31c-.4,1.52-1.07,2.55-.71,2.87s1.78-.33,2.72-1.3,1.6-2.29,1.87-6.74a37.69,37.69,0,0,0,0-5.45c-.4-5.32-1.51-6.76-.58-9.61.21-.63.93-2.84,2.3-3,1.16-.14,2.21,1.27,2.87,2.15a8.13,8.13,0,0,1,1.72,4.16c.14,1.82-.58,2.1-2.59,7.46a35.71,35.71,0,0,0-1.57,4.88c-.43,1.83-.27,2-.72,3.44a13.93,13.93,0,0,0-1,3.73,6.66,6.66,0,0,0,.14,2c.74,2.9,4.3,4.24,5.59,4.73,1.81.68,3.8,1.43,5.6.57,1.59-.76,1.31-2,3.15-3.3a9.44,9.44,0,0,1,5.31-1.43,14.31,14.31,0,0,1,6.6,1.15,15.11,15.11,0,0,1,4.15,2.87,26.92,26.92,0,0,1,5.17,6.45,40.13,40.13,0,0,1,3.58,6.88c1.21,3,1.08,3.94,2.16,4.59,2,1.23,4.24-.88,6.59.58,1,.64.66,1.08,2,2.29,2,1.76,3.19,1.21,5.59,2.73,2.56,1.6,2.21,2.87,3.88,3.3s2.6-.58,6.31-2.59c4.89-2.65,7.43-4,9.18-3a3.47,3.47,0,0,1,1.57,3.59c-.41,1.64-2.32,1.52-5.45,3.73-2.39,1.69-2,2.27-5.3,5a24.47,24.47,0,0,1-4.88,3.44c-3.17,1.58-4.43,1-7.74,2.87-1.82,1-2.72,1.48-3.45,2.44-3,3.95-.19,10.66.29,11.76,1.41,3.21,2.54,3.19,3.16,5.88s-.39,3.36-.58,7.6c-.14,3.1-.33,7.33,2.3,10.61a11.36,11.36,0,0,0,3.87,3c1.61.83,3.84,2,6,1.29,2.38-.74,2.68-3,4-2.87s1.3,2.9,3.58,5.89c2.72,3.55,6.07,3.73,6,5.45,0,.3-.15,1.62-4.88,3.44-8.48,3.26-12.87.87-14.91,3.73-1.39,1.92.25,3.5-1.15,9.46-.37,1.57-.86,2-1.28,4,0,.2-.05.31-.16.4-1.11,1-6.69-5.67-8.46-4.59-.92.57-1,3.37.58,4.44,1.06.75,2.43-.83,3.58-.14s.78,3.21,1.72,3.44c.68.17,1.44-1,1.58-.86s-.51,1.9-2,3.3c-2.8,2.61-5.73,1.33-8.6,4.16a4.44,4.44,0,0,0-1.44,2.15c-.55,2.28,1.64,3.71,1,5s-3.63.3-5.45,2.3c-.83.9-1.38,2.4-.86,3.15.66,1,2.6.07,5.73.29a17,17,0,0,1,5.45,1.43c.91.44,2.81,1.55,7.46,11.76a62.59,62.59,0,0,1,4,10.33c.21.8.1.45,1.43,7,1.71,8.42,2.56,12.64,2.73,13.34a24.43,24.43,0,0,1,.86,4.3c.13,2.06.39,5.94-1.87,8.46-1.85,2.06-3.79,1.45-5.3,3.87a7.16,7.16,0,0,0-1,3.3c-.36,4,2.32,5.66,3.73,10.18,1.12,3.58-.2,3.71.57,9.47.75,5.6,2.2,7,2.73,10.33.56,3.54,0,8.73-5,15.77q-.57,11.19-1.15,22.38c1.39,1.21,3.5,3,6.17,5.16,2.9,2.31,3.08,2.31,3.58,3,2.86,4,.21,8.63,2.59,10.19a18.66,18.66,0,0,0,3.87.14c4,0,4.83-.11,6.45.14a14.52,14.52,0,0,1,3.73,1c3.48,1.51,3.86,3.68,5.6,4.3,2.49.89,5.34-2.31,12.76-9.75,17.45-17.49,12.88-11,16.21-14.92a10,10,0,0,1,4.44-3.3c2.68-.91,5-.16,8,.72,11.09,3.21,10.17,1.89,15.21,4,5.22,2.21,7.83,3.31,9.89,5.6,5.43,6,2.59,12.83,6.89,14.91,2.49,1.21,5.62,0,10.61-2,4.27-1.7,4-2.59,7.89-3.88,4.73-1.56,6.51-.68,9-2.58a10.67,10.67,0,0,0,3.73-6c1.32-5.71-3.08-8.77-4.59-15.78-1-4.57-.13-8,1.44-14.34,2.61-10.55,5.95-11,11-24.38,3.66-9.67,1.84-9.21,5.31-16.93,2.53-5.62,5.39-10.07,3.58-12.62-1.5-2.12-4.81-.94-5.88-2.87-.94-1.7.57-4.6,5.88-10.9,9.34-11.06,14.22-13.44,14.06-18.5-.13-4-3.37-6.61-2.44-7.46s5.09,1,6,3.88c.49,1.51-.21,2.32.43,3.15,1,1.27,3.36.37,7.46,0,3.72-.33,7.84-.7,11.19,1.44,1.41.89,2.13,1.88,3.59,3.87,2.33,3.18,2.81,5.34,4.58,9.32a78.68,78.68,0,0,0,4.88,9c3.23,5.41,4.88,8.13,7.17,9.32,3,1.58,3.67-.13,9.32,1.15,4.1.92,8.84,2,11.76,5.73,1,1.22,1.78,2.81,3.88,3.88.93.47,2.53,1.28,4,.86,3.88-1.12,2.91-9.54,6.46-10.47a3.72,3.72,0,0,1,4,2c.67,1.82-2,3.11-2.29,6.89-.17,2.1.52,3.24-.15,3.73-1.15.84-3.79-2.11-5.45-1.15-1,.56-.36,1.73-1.43,2.87-1.5,1.61-3.59.26-5.88,1.72a5.76,5.76,0,0,0-2.58,4.3c-.14,2.46,1.94,3.56,3.3,5.88,2.9,5-1.69,8.55-.29,14.78s6.37,4.67,10.76,13.62c.63,1.3.18.62,4.3,11.9,2.24,6.15,2.14,5.7,2.72,7.46,1.92,5.76,2,7.45,3.88,13.77,2.34,7.82,2.63,6.56,3,9.18.13.88,1.65,12.31-4.73,17.5-3,2.44-5.06,1.29-9.9,5a14.31,14.31,0,0,0-4.73,5.16c-1.64,3.39-.63,5.89-.72,9.9,0,2-.22,9.29-4,12.9-4.27,4.07-9.88.42-26.67,2.87a30.75,30.75,0,0,0-6.74,1.58c-2.54.94-9.3,3.45-12.62,9.47s.16,9.63-3.88,14.2c-1.64,1.85-3.22,2.4-6,5.88-1.61,2-1.44,2.26-3.16,4.59-3.1,4.2-4.38,4.33-7.31,8.17-2.62,3.43-4.35,5.69-3.73,7.89s2.84,2.67,6.45,4.44c3.78,1.86,8.95,4.4,12.34,8.32s1.79,5.39,7.31,14.49c1.73,2.85,3.18,4.83,5.74,5.88,2.12.87,5.56,1.31,7.32-.43s.42-4.7,1.86-5.45,4.82,1.67,6.45,4.44a12.61,12.61,0,0,1,1.44,5c1.26,8.78-.21,10.7,1.72,13.63.56.85.29.09,5.31,4.45,3.23,2.81,3.94,3.64,5.16,3.58,2.09-.1,2.25-2.66,5.16-4.88,2.15-1.63,3.27-1.15,10.76-2.72,7.65-1.6,7.29-2.28,9.46-2,5.35.66,7.21,4.68,10.19,3.59,1.9-.7,2.68-2.91,3.44-5a14.37,14.37,0,0,0-.29-10.33c-1.89-4.17-5.48-5.85-5.16-6.31s6.3,2.25,10,4.45a16.26,16.26,0,0,0,3,1.43,19.77,19.77,0,0,0,5,.86c6.09.66,5.66,1.1,7.31.86,2.46-.35,3.36-1.3,5-.72s1.56,1.67,2.59,1.87c2.25.44,4.16-3.3,7.88-7.75,5.09-6.06,7-5.55,10.62-10.75.75-1.07,2-3.65,4.44-8.75a58.49,58.49,0,0,0,3.59-8.18c1.29-4.11,2.09-6.66,1.43-9.61-1.21-5.48-6.43-7.63-5.59-9.32.6-1.21,3.64-.85,7.17-.43,4.85.58,7.55.9,10.47,2.58s3.17,3,8.89,9.76c0,0,1.86,2.19,6,6.74,1.43,1.56,6.08,6.47,18.64,14.34,11.66,7.3,17.49,11,23.24,12.33,4.36,1,2-.2,26.82.43,6.51.17,9.77.33,13.62-1.57,3.18-1.58,5.24-3.81,9.61-5,1.82-.51,3.61-1.13,5.45-1.58,2.38-.58,2.88-.56,3.44-1.15,1.14-1.19.33-2.59.72-6.6.24-2.47.47-4.54,1.86-5.3a3.49,3.49,0,0,1,2.73,0c2,.69,2.61,2.37,5.45,6.6,2.45,3.64,3.41,4.48,4.59,4.58,1,.1,1.39-.39,2.58-.71,2.65-.71,4,.84,6.74,1.29,4.28.7,5.13-2.22,8.18-1.29,2.27.69,2.11,2.41,6.74,7.46,2.74,3,2.78,2.36,4.16,4.15,1.85,2.42,2.24,4.15,4.44,10.9,2.76,8.47,2.76,7.62,3.16,9.61,1.39,6.93-.24,8.87,1.58,10.62,3,2.84,11,1.32,15.34-3,2.68-2.69,2.53-5.07,4.88-6,3.82-1.56,8.79,2.73,10.47,4.16,6.23,5.3,4,8.55,9.46,12.34a25.84,25.84,0,0,0,13,4.87c1.41,0,2.87-.13,4.16.86,2.55,1.94.69,5.41,2.73,7.46,1.49,1.5,3.48.66,14.63.14,3.49-.16,6-.21,7.31,1.44,1.09,1.41.34,2.9,1.44,3.87,1.57,1.4,5.26.22,7.6-1.29,4.31-2.78,4.23-6.79,7-12.77,1.08-2.32,7-14.41,17.64-20.22,2.41-1.32,8-4,8.46-7.6a10.44,10.44,0,0,1,1.15-4.3,17.39,17.39,0,0,1,1.72-2.3l116.89,1.44,32.41-44.61a26.31,26.31,0,0,1,7.89-7.6c2.26-1.37,3.29-1.47,6.59-3.44,3.94-2.35,4.19-3.23,6.89-4.88,5.16-3.15,6.77-1.44,12.33-4.16,2.12-1,.77-.73,9.47-7.17a77.59,77.59,0,0,1,10.61-7c3.66-1.94,3.62-1.44,4.59-2.3,4.89-4.33,3.85-15.11-.14-22.66-3-5.59-4.8-4.24-9-10.18-7.8-11-2.16-16.4-9.89-28.4-1.72-2.66-4.31-6-5.17-11.33a20.72,20.72,0,0,1,.29-8.18c.4-1.57,2.63-9.37,8.61-11.61,2-.75,3.91-.69,7.17-2.44,2.06-1.11,2.68-1.87,3-2.58a12.71,12.71,0,0,0,.72-4.31c.08-1.35,0-1.88.43-2.29.62-.62,1.69-.38,3-.14,2.14.37,4.67.58,9.75,1,.94.08,1.69.12,2.15.14q-.78,6.39-1.58,12.77l23.24.86a3.62,3.62,0,0,0,2.44,2c2.12.34,3.78-2.7,3.87-2.87,1.75-3.26-.69-5.77-1.43-12.19-.23-2,0-5,.57-11.19.39-4.49.76-7.34,1.29-11.62,1.36-11,2-16.55,2.29-19.36.81-8.72.75-12.38,3.73-16.21,1.56-2,1.93-1.44,4.45-4.15.87-.94,3.56-3.94,7.74-13.2,3.08-6.81,4.62-10.21,4.59-12.91-.06-5.41-2.76-7.17-1.29-10.75.53-1.28,1-1.49,6.46-6.6,3.12-3,4.68-4.42,5-4.88,2.74-3.67,1.71-5.95,3.58-13.34,2-8,3.86-7.87,3.73-12.33a22.19,22.19,0,0,0-3.73-10.9c-2.62-4.22-3.91-3.58-6.16-7.6a21.5,21.5,0,0,1-2.87-11.19c.1-3,.8-2.8,1.57-7.46.63-3.73,1.29-7.72.15-12.47a24.61,24.61,0,0,0-3.73-8.18,35.81,35.81,0,0,0-7.17-7.17c-1.36-1.12-2.87-2.24-5.6-4.59-1.32-1.14-2.27-2-2.43-2.15-29.8-26.87-54.65-36.29-54.65-36.29a187.92,187.92,0,0,0-21.94-6.59c-11.5-2.61-17.5-3.73-17.5-3.73-9-1.7-11-1.7-14.2-3.73a26.36,26.36,0,0,1-9.61-11.62,30.93,30.93,0,0,1-1.86-6.6,34.27,34.27,0,0,1-.43-6.74c-.19-7.41-15.18-9.17-25.53-20.79-5.38-6-7.51-12.52-11-23.24a69,69,0,0,1-3.73-18.21c-.37-6.59.32-13,.86-13.05.31,0,.36,2.13,1.43,7.74.94,4.92,1.28,5.32,1.58,8.18.33,3.15,0,3.24.29,7a40.68,40.68,0,0,0,1.14,7.46,36.72,36.72,0,0,0,3.45,8.46,43.19,43.19,0,0,0,4.15,6.31c1.81,2.28,2.48,2.67,4.45,5.17,2.35,3,2.11,3.35,3.59,5.16,3.93,4.81,6.3,3,10.9,7.89,1.58,1.68,3,3.67,5.59,4.16a3.79,3.79,0,0,0,2.58-.15c1.92-1,1.4-4.07,2.15-9.89.22-1.68.72-4,1.72-8.61a80.93,80.93,0,0,1,2.16-8.89c1.55-3.85,3.38-4.26,15.2-14.48a83.5,83.5,0,0,0,8-7.75c3.17-3.53,4.77-5.35,5.45-7.74.58-2,.13-2.53-1.43-12.34-.73-4.57-1.19-7.92-2.3-8-.36,0-1,.6-2.29,1.86-1.49,1.46-1.71,1.91-2.16,1.87-1-.1-1.54-2.41-1.72-3.87a12.16,12.16,0,0,1,.72-5.6,25.74,25.74,0,0,1,9.75-12.19,19.2,19.2,0,0,1,3.88-2.15c8.22-3.29,17.35.35,22.23,2.3,3.12,1.24,3.4,1.71,5.3,2,6.36,1,11.66-3,12.62-3.73a21.19,21.19,0,0,0,5.31-6.45c3.65-6,3.3-9.17,6.17-15.63a34.1,34.1,0,0,1,6.31-10.33c4.89-5.18,12.87-9.3,20.94-8.89,3.91.2,4.48,1.29,12.62,2.15,4.28.45,5.4.28,8.75.72,6.85.88,7.82,2.32,13,3.3,7.57,1.41,8.17-1.08,20.8-.29a26.28,26.28,0,0,1,10.9,2.72c1.49.78,2.15,1.77,4.15,2.73a19.36,19.36,0,0,0,7.61,1.72c4.12.23,8.63.49,11.9-2.29,1.06-.91.69-1,3.59-5.6,2.52-4,3.79-6,5.73-8,3.42-3.6,4.46-2.72,6.46-5.45s1.68-4.41,3-9.9a68.9,68.9,0,0,1,3.87-11.61c2.57-5.47,4.3-5,9-11.62,5.76-8,3.38-8.94,10.32-20.08,2.37-3.79,4.11-6,4.45-9.9s-1.11-4.77-2-9.6c-.85-4.58,0-9.56,1.72-19.51a73,73,0,0,1,2.3-10.76c1.73-5.21,3.17-6.61,3.87-11.18.6-3.92-.28-4,.29-8.32.34-2.58.92-7,3.72-11.05a20.56,20.56,0,0,1,9.18-7c6.55-2.81,9.13-.56,21.09-2.73,6.1-1.1,5.53-1.71,8.46-1.72,1.42,0,5.08.12,17.64,5.16,5.28,2.12,4.31,2,5.88,2.44,6,1.79,8.4.51,17.21,1.72a36.33,36.33,0,0,1,8,1.72c2.22.79,3.31,1.47,7.89,3.73,3.86,1.91,5.78,2.86,6.88,3.3,5.19,2.08,6.94-.38,20.94-1.86,6.72-.72,11.18-.67,15.64-4,1.41-1.06,1.22-1.26,2.29-1.86,4.28-2.41,7.67.54,17.5,1.57,3.86.41,5.09.14,8.32,1,3.46.93,4.74,2,6.88,2.72,6.26,2.24,12.7-.36,14.63-1.14,10.54-4.27,14.1-14.82,14.63-16.5C1554.66,1021.66,1553.9,1016.78,1552.4,1007ZM818.94,815.7c.5-2.33.87-4.06,1.15-6.17.79-6,0-9.15,1.72-10,.71-.37.93.13,2.44-.15,2.51-.46,3-2.06,4.59-2.29,2.51-.39,5,3.25,5.73,4.3,1.76,2.55,2.25,5.22,3.16,10.47.66,3.79,1,5.68.86,8.17-.19,3.8-.39,7.61-3,9.47s-6.2.73-9.47-.29c-2.83-.88-7.61-2.37-8.6-5.88C817.11,821.91,817.69,821.53,818.94,815.7ZM973.69,972.61c-.94,2.68-1.73,4.94-3.73,5.73-2.44,1-4.24-1.24-8.6-1.86-1.09-.16-2.65-.26-8.32,1-12.09,2.69-14.67,5.29-18.36,3.59-2.06-1-1.5-1.88-5-5.45-5-5.1-7.2-4.3-11.62-8.18-5.94-5.21-4.26-8.66-10.9-15.06a28.16,28.16,0,0,0-7.88-5.73c-8.19-3.79-12.19.38-29.26-.58-.41,0,.15,0-12-1.43-7.44-.87-9.18-1-10.47-2.58-2.89-3.5,1-8.6-2-11.48-1.11-1.07-3.48-1.26-8.17-1.57-3.79-.26-4.91,0-7.32-.15-3.92-.16-7.45-1.26-14.34-3.44-6.08-1.93-5.54-2.09-10.47-3.59a132.26,132.26,0,0,0-12.91-3.29c-9.21-1.85-11.5-1.18-13.19-3.45-2-2.72.26-5-.57-11-.72-5.13-3.1-8.57-6.89-14.06-1.81-2.61-1.52-1.78-10.47-12.76a39.35,39.35,0,0,1-5.88-8.75c-1.34-2.86-2.52-5.39-2.29-8.6.31-4.48,3-4.84,3.15-8.75.18-3.69-2.71-3.82-4.73-10.9-1.38-4.82-1.34-7.8-3.87-9.76-1.09-.83-2-1-6.89-1.43-8.19-.71-12.29-1.07-16.49-.86-3.37.17-2.32.32-8.75.86-7,.59-10.58.89-14.49.57-5.84-.47-8.76-.71-11.61-2.58-5.38-3.53-4.69-8.49-9.61-10.18-2.38-.82-2.81.24-8.32.14a49.12,49.12,0,0,1-10.9-1.57c-4.47-1-7.71-2.31-14.2-4.88-4.18-1.66-6-2.54-7.46-4.45-.34-.43-1.57-2.05-2.44-6-1.6-7.4.87-10.19-.86-17.64a18.52,18.52,0,0,0-2-5.31,17.92,17.92,0,0,0-4.74-5.31c-2.57-1.9-3.73-1.63-8.6-3.58-5.4-2.16-8.1-3.24-8.89-5.16-1.2-2.88,1.75-4.47,1.86-10.62a18.33,18.33,0,0,0-1.29-7.31c-1.86-4.5-4.22-4.2-7.17-8.61-3.48-5.19-1.34-7.29-5.17-13.34-1.73-2.74-2.08-2.16-5.59-6.74s-3.39-5.43-6.45-9.75c-5.28-7.44-7.25-7.21-9.76-12.33-1.37-2.82-1.82-5.27-2.72-10.19-2.18-11.92.39-13.78-2.58-18.64-1.38-2.26-3.43-4.3-3.73-8-.14-1.71.21-2.32.43-4.16.84-7.19-3.13-9.56-2.58-16.93a22.91,22.91,0,0,1,1.29-5.88c.91-2.69,2-5.92,4.3-7.88,1.29-1.11,3.42-2.21,16.35-1a122.34,122.34,0,0,1,12.48,1.58c6.93,1.29,9.15,2.36,17.21,4.3,7.47,1.81,7.41,1.33,14.05,2.87,13.23,3.06,14.82,5.24,28.12,8.46,5.76,1.4,4.06.65,15.92,3.16,11.21,2.37,17,3.6,23.23,5.73,7.34,2.5,12.91,4.45,19.07,9.18a48.77,48.77,0,0,1,9.18,9.18c5.48,7.34,3.54,9.47,8.61,17.5,5.78,9.15,10.18,9.34,11.47,16.21.44,2.31.34,4.41,1.44,9.46.79,3.65,1.25,4.44,1.43,7a41.6,41.6,0,0,1-.43,8c-.57,5-1.13,6.31-.29,7,1.22,1,4.33.07,5.88-1.86,1-1.31,1-2.61,1.3-4.59.39-3.08,1.72-10,3.72-10.33,1.08-.19,2.14,1.54,5.17,6.88,4.2,7.42,9.27,16.61,9.61,17.21,2.88,5.22,4,7,4.44,7.75,2.86,4.58,4.1,5.88,6.31,9.18,3,4.51,2.54,4.79,8.61,16.2,5,9.32,5.29,9.15,6.31,12.2,2.43,7.25.64,8.59,3.15,13.91,3.15,6.64,6.9,6.53,7.61,11.47.74,5.22-3.3,6.31-2.3,11.48.79,4.09,3.46,4.06,6,11,.48,1.29.89,2.65,2,5.59,2,5.14,2.54,5.73,2.87,6,1.83,1.62,3.81.8,9.75.57,8.69-.34,9.26,1.2,14.35,0,3.84-.91,3.8-1.86,8-2.73,3.1-.63,4.8-.46,9.75-.43,11.16.08,10.7-.74,15.06-.14,3.57.49,6.3,1.47,11.76,3.44,7.48,2.7,11.23,4,13.91,6.6,2.38,2.26,3.88,5.57,6.89,12.19,2.61,5.75,3.91,8.69,3.87,12.05,0,1.86-.92,4.78-2.73,10.61-1.54,5-2.11,6-3,9.61a76.17,76.17,0,0,0-1.58,8.61c-.7,5.56-2.62,20.78,2.3,22.94a10.17,10.17,0,0,0,3.87.43,10.54,10.54,0,0,0,4.45-1c2.67-1.34,2.83-3.22,4-3.15s1.88,1.83,4,7.6c2.34,6.31,2.78,7.75,4.3,8.46,1.73.8,2.7-.34,6.31-.86,6.75-1,10.16,2,11.48.43,1.13-1.38-.54-4.8-3.88-11.62-2.16-4.42-3.39-6.18-2.58-7.46,1-1.64,4.59-1.15,6.74-.86a19.94,19.94,0,0,1,9.33,3.59c3.5,2.52,5.25,5.78,8.6,12.19a98.42,98.42,0,0,1,5.88,13.91c1.91,5.42,2.88,8.21,3.3,12.19A26.59,26.59,0,0,1,973.69,972.61Z"/></g></g></svg>