<svg xmlns="http://www.w3.org/2000/svg" viewBox="0 0 1728.89 2589.85"><g id="Layer_2" data-name="Layer 2"><g id="Cameroon"><path d="M1728.78,2468.87c-.86,4.89-6.39,7-7.7,7.54-2.08.8-4.89,1.89-7.22.64-2.54-1.36-2.51-4.47-5-5.13a4.8,4.8,0,0,0-3.69.8q-.15,12.75-.32,25.5a4.41,4.41,0,0,0-3.37,1c-2.88,2.89,2,10.91-.64,13-1.2.94-2.67-.34-3.69.65-1.44,1.44.94,4.73,1.77,10.74.53,4-.3,4,.16,6.9.85,5.37,4.14,8,7.86,12.83a56.06,56.06,0,0,1,7.7,13.95,9.34,9.34,0,0,1,1.12,12.51c.91,2.76,2.73,9.41.64,15.08a6.83,6.83,0,0,1-1.92,3.05c-1.66,1.36-3.16.91-8.67,1.44-3.68.35-3.9.64-5.61.48-.45-.05-4.06-.4-5.93-1.92-4.84-3.93,2.8-15-1.45-19.41-4.06-4.2-18.34-1.66-24.06-.64a7.11,7.11,0,0,1-7.53-2.89c-1.93-2.54-14.2-13.42-36.09-32.08l-39.62-5.45a37.44,37.44,0,0,0-12.19-5.29,11.77,11.77,0,0,0-1.92-.32c-1.1-.11-5.27-.32-11.07,3.53-3.87,2.56-2.89,3.26-7.06,6.25-3.18,2.27-6.54,4.68-9.94,3.85-1.42-.35-2.33-1.15-5-4-3.16-3.42-4.76-5.13-7.54-8.66-4.33-5.45-8.9-11.23-15.72-13.15-1.15-.32-4.6-.16-11.55.16-12.8.59-16.12,1.41-17,3.53-.83,1.95,1.1,3.44,0,5.29-1.31,2.19-5.48,2.46-8.5,1.76-3.31-.74-4-2.35-9.94-6.73-7.73-5.7-9.6-5.24-10.27-5-2.11.82-1.49,3.26-3.85,5.45-4.41,4.09-14.08,2.62-15.23-.64-.86-2.44,3.5-4.71,2.56-7.54-.51-1.55-2.19-2.09-8.18-3.85-12.43-3.69-13.36-3.85-15.07-3.53-5,.91-6.29,3.93-9,2.89s-2.08-4.07-5.93-7.54a18.73,18.73,0,0,0-5.77-3.37c-6.13-2.48-8.05-.32-11.55-2.4s-2.11-4.34-7.06-10.27c-2.73-3.29-4.94-6-8-6.09-2.73-.11-4,1.87-8.34,4.81a49.88,49.88,0,0,1-11.87,5.77c-6,2.22-13.63,5-17.48,1.77-1.79-1.53-1.23-3.08-3.85-5.3a13.3,13.3,0,0,0-6.74-2.88c-1.41-.22-3-.3-9,1-2.3.48-5.45,1.2-9.14,2.24l-224.7-1.76-.81-11.87c-.77-1.07-1.73-2.32-2.88-3.69a14.86,14.86,0,0,0-2.89-2.89,11,11,0,0,0-4.49-1.6,29.71,29.71,0,0,0-7.22-.32c-8.45.56-10-3.31-15.88-1.92-3.37.8-3.1,2.11-8.34,4.81a50.11,50.11,0,0,1-13,4.17c-13.79,2.35-16.55-5.3-28.71-2.89-7.7,1.52-9.92,5.27-15.56,3.69-4.38-1.2-5.74-4.2-10.58-4.65-3.64-.35-5.35,1.12-9.63,2.56-8.92,3-17.05,2-22.13,1.29-2.22-.3-1-.27-15.88-4-11.92-3-13.07-3.08-14.59-3.05-7.49.19-8.77,3.29-16.36,3.05-2-.06-5.06-.86-11.07-2.41-7.75-2-10.91-3.34-17.16-4-4.95-.53-7-.13-8.82.8-2.86,1.5-3.18,3.48-5.46,4.33-3,1.15-5.18-1.73-10.58-3.68a30.18,30.18,0,0,0-9.79-1.77l-96.23.8c-1.82-3.15-5.93-9.22-11.55-9.46-1.92-.08-3.71.53-6.89,1.6-4.79,1.61-6.18,3.13-9.63,3.53a14.94,14.94,0,0,1-6.25-.64l-34.16-.8,1,3.85-20.37-.32q.07,12.83.16,25.66l-309.23.16-4.33-3.85-27.59-14.27q-.4-6.42-.8-12.83a64.14,64.14,0,0,1-3.53-10.75c-2-8.66-1.12-13.26,1-41.22a100.32,100.32,0,0,1,1.29-10.75c.77-4.41,1.68-7.86,2.56-11.22,2-7.68,2.35-7,3.37-11.55,1.58-7,.59-7.27,2.25-14.6,1.44-6.33,2.24-6.36,2.56-10.42.27-3.5-.19-5.56.64-9.63a33.87,33.87,0,0,1,1.77-5.77c5.16-13.5,4.06-17.08,8.5-25,.72-1.28,2.11-3.61,3.85-7.22,1.12-2.3,1.39-3.13,2.72-6.09,4-9,4.52-8.64,4.66-10.43.24-3.34-1.69-4.12-5.78-11.71a90.85,90.85,0,0,1-5.77-13.31,67.08,67.08,0,0,1-3.05-14.27l-46.19-52.61c-.32-.08-6.28-1.82-7.86-7.54-.11-.35-1.26-4.78,1.28-8.34.72-1,1.42-1.5,6.74-4.17,3.15-1.6,6.28-3.29,9.46-4.81a19.41,19.41,0,0,0,5.94-3.85c1.36-1.34,2.48-2.43,2.24-3.53-.4-1.92-4.44-1.28-7.54-4.33a11.29,11.29,0,0,1-2.72-5.13c-1.85-5.94,1-8.82-.81-11.07-2.7-3.39-11,1-12.83-1.92-1-1.63,1.26-3.32,3.05-10.27,1.28-5,.51-5.77,1.93-7.86,2.64-3.9,6.76-3.34,7.21-5.93.27-1.55-1.17-2-4.65-7.22-2.59-3.88-2.27-4.38-3.85-5.77-2.94-2.6-5.77-2.38-5.93-3.85-.19-1.66,3.31-2.12,4-5,.24-1-.08-1.44-1.77-6.09-1.73-4.81-1.95-6-2.08-6.9a11.39,11.39,0,0,1,0-5c.93-3.34,3.45-3.26,6.73-7.54,2.3-3,1.64-3.69,4.17-6.73,2.73-3.24,4.74-3.91,4.5-4.49-.51-1.21-9.41-.25-11.39,4.49-.43,1-.06,1-.48,1.92-1.79,3.66-7.84,2.35-10.11,6.26-.43.74-.16.69-.64,1.76-2.08,4.49-7.75,6.74-12.35,6.9a13.49,13.49,0,0,1-7.38-1.61c-.85-.5-2.14-1.39-6.25-7-1.34-1.85-2.3-3.27-4.33-6.26-4.92-7.27-5.75-8.55-7.06-8.5s-1.47,1.15-5,5.61a43.87,43.87,0,0,1-5.78,6.58c-2.21,1.9-4.14,2.83-7.86,4.65-5,2.41-6,2.19-9,4s-3.34,2.91-6.73,5.78a43.29,43.29,0,0,1-14.44,8.17c-2.59.83-9.92,3.13-11.87.49-1.65-2.25,1.85-6.34-.48-9.95a6.26,6.26,0,0,0-2.4-2.08c-5.72-3.29-10.94-.59-18.13-1.93-2.06-.37-6.12-3-14.27-8a81.65,81.65,0,0,1-8.66-6.57c-2.62-2.22-4.31-3.91-5-6.42a10.56,10.56,0,0,1,0-4.65c1.29-8.61,1.93-12.91.49-16.2-.91-2.08-1.5-1.28-5.94-5.93-3.23-3.37-6.49-6.77-8.5-11.39-2.49-5.7,0-6.28-2.57-12.83-2.13-5.54-4.38-6.42-5.61-11.71-.29-1.34-.67-3.42-.32-8.66,1-15.51,5.69-22.19,2.25-27.27a49.06,49.06,0,0,1-3.53-5.29c-1.39-2.43-1.23-2.62-2.41-4.65-2.14-3.72-3.93-6.87-7.06-7.7-1.92-.54-3,.21-3.69-.64-.82-1.1.54-2.94,1.61-6.26.88-2.72.53-3.29,1.28-8.18.94-6.15,2.59-9.57,2.09-9.78s-1.15,2.14-4,5.26c-1.58,1.69-2.14,1.85-2.54,3-.61,1.82.35,2.73-.48,4.81-.32.86-.48.67-1.34,2.41-.72,1.55-.53,1.49-1.2,2.78s-.94,1.49-1,2.27c0,.48.13,1.44.13,1.44a6.42,6.42,0,0,0,1.34,2.89c.19.24.35.4.83,1,.72.88,1,1.28,1.33,1.69a9.41,9.41,0,0,0,2.28,1.81,34.65,34.65,0,0,1,4.09,3.34,17,17,0,0,1,2.54,2.78c1,1.48.72,1.93,1.79,4.71,1.28,3.31,2.11,3.88,1.79,5.27s-1.39,2.72-2.41,2.64c-1.47-.08-1.6-3.39-4.44-5.53-.26-.19-.77-.56-1.55-1.18-1.09-.88-1.44-1.31-2.16-2-1.58-1.31-1.77-1-2.89-2-.51-.43-.24-.29-2.67-3.37-.72-.93-1.42-1.92-2.17-2.89a7,7,0,0,1-.72-1.09c-.61-1.34-.16-2.3-.59-2.51,0,0-.26-.14-2.27,1.33a4.53,4.53,0,0,0-.13,1.18,7.59,7.59,0,0,0,1.09,3.5c.72,1.52.8,1.39,1.31,2.51a8.31,8.31,0,0,1,1,3c0,.94-.38,1.9-1.21,3.85l-.83,1.93c-2.3,0-3.47-.67-4.09-1.31s-.4-.83-1.81-2.89c-.81-1.18-.83-1.1-1.45-2.06a7.54,7.54,0,0,0-1.2-1.68,5.88,5.88,0,0,0-1.44-1c-1.1-.62-1.45-.75-2-1.07a5.61,5.61,0,0,1-2.43-1.95c-.83-1.61.38-3.77,1.1-5.06a4.7,4.7,0,0,1,1.68-2,3.67,3.67,0,0,1,4.2.35c.72.77.21,1.39,1.23,2.78,0,0,.08.13,1.31,1.55a19.17,19.17,0,0,1,1.31-3s.24-.43,1-1.69c1.39-1.5,1.68-2.27,1.47-2.65a1.07,1.07,0,0,0-.77-.34,8.08,8.08,0,0,0-1.9.1,26.8,26.8,0,0,0-3.1.73l-5.91-.62a39.49,39.49,0,0,1-2.17,3.4c-1.2,1.63-1.15,1.89-1.68,2-1.42.35-2.62-2.19-3.61-1.82-.59.24-.35,1.18-1.1,3.64-.53,1.79-.82,1.87-1,3a7.16,7.16,0,0,0,.51,3.23c.54,1.53,1,1.55,2.14,3.64,1.28,2.24.85,2.41,1.92,4s1.61,1.55,2.3,3c.46.94.3,1.07,1,2.54.54,1.18.81,1.47.83,2.16a3.45,3.45,0,0,1-.72,2.17,5.08,5.08,0,0,1-3.47,2.65,2.64,2.64,0,0,1-2-.38c-.27-.19-.51-.48-1-2.38a8.92,8.92,0,0,1-.51-3c.25-1.25.94-1.17,1.23-2.3s-.53-1.57-1.47-4.92a17.14,17.14,0,0,0-.72-2.53c-.32-.83-.53-1-1-2.17-.27-.7-.43-1.28-.59-1.79-.21-.72-.35-1.18-.48-1.79,0,0,0-.35-.24-1.34a4.44,4.44,0,0,1-.72-2.51,6.93,6.93,0,0,1,.59-2.3c.5-1.2.91-1.52.75-1.82s-1.66-.29-2.68.27a3.73,3.73,0,0,0-1.92,3.23c0,.67.29.57.61,1.93.19.8.14,1,.35,2.27.11.56.16.78.37,1.82,0,0,.3,1.47.59,3,.7,3.48-.85,5.4,0,9.52a19.3,19.3,0,0,0,1.1,3.37c1.36,3.5,2.62,4.7,2,5.77s-2.25,1.07-2.89,1.07c-1.52.08-1.92-.59-4.78-1.31-1.63-.4-1.58-.21-2.78-.59a12.66,12.66,0,0,1-3.85-2c-1.42-1-2.14-1.6-2.27-2.51-.24-1.63,1.52-3.18,2.27-3.85a10.87,10.87,0,0,1,1.68-1.2,23.13,23.13,0,0,0,2.3-1.21c.48-.42.67-.85,1.18-2.64.61-2,.91-3,1.57-5.78a26.23,26.23,0,0,1,0-5.18c0-.11.14-.83.25-1.79a9.92,9.92,0,0,0,.1-1.31c.08-1.69-.4-1.8-.21-2.78a5.75,5.75,0,0,1,1.17-2.3c.38-.51.51-.56.86-1.07a11.2,11.2,0,0,0,1.1-2c-2.49-.27-3.56.32-4.09.93s-.38,1-1.1,3.74c-.32,1.23-.35,1.1-.83,2.89a33.64,33.64,0,0,0-.85,3.37c-.32,1.71-.14,1.87-.35,3.37a21.27,21.27,0,0,1-2.54,7,12.5,12.5,0,0,1-1.1,1.82c-1.12,1.45-1.89,1.5-2.75,2.86a7.35,7.35,0,0,0-.83,2.06c-.56,1.79-.21,2.06-.61,3.26-.67,2.06-2,2.06-2.28,3.85a4.89,4.89,0,0,0,.35,2.51,7.58,7.58,0,0,1-1.07-4.33c0-.64.14-1.09.22-2.64a8.72,8.72,0,0,1,.13-1.21c.24-1,.69-1.25,1.07-2,.69-1.44-.16-2.16.51-3.85a4.83,4.83,0,0,1,1-1.57,55.22,55.22,0,0,0,3-4.92c1.87-3.37.43-3.72,2.41-8.45a22.34,22.34,0,0,0,1.92-6c.3-1.9.08-2.46-.24-2.64-.64-.38-1.92.48-2.64,1.31-.59.64-.43.85-1.1,1.92-1.18,2-2,1.84-2.38,3.26-.21.64,0,.75-.37,2.14a11.64,11.64,0,0,1-.48,1.71c-.59,1.58-1.07,1.55-1.31,2.62a10.69,10.69,0,0,0,0,2.43c0,1.21,0,1.82,0,2-.22,1.53-1.13,3-1.58,2.89s-.08-.91-.72-2.06-1.29-1-1.69-1.89-.18-1.53.14-3a19.54,19.54,0,0,1,.58-2.16,17,17,0,0,1,1.21-3.26c1-1.58,1.79-1,2.75-2.38,1.28-1.82.13-3,1.58-5.32.37-.59.75-.94.72-1.55,0-1.12-1.31-2.27-1.92-2.06-.41.16-.35.75-.62,1.58-.45,1.44-1.36,2-3.1,3.61a17.75,17.75,0,0,0-3.37,3.61,10.38,10.38,0,0,0-1.58,5.4c0,1.87.57,1.73.49,3.5-.11,2.43-1.18,3.29-.59,4.81.34.91.77.72,1.41,1.92.78,1.37.49,2.17.86,3.85.64,2.81,2,3.18,1.68,4.23-.58,1.81-5.5,2.54-9.38,1.07a9.21,9.21,0,0,1-4.57-3.48c-1.74-2.7-1.92-6.63-.61-7.35s3.87,1.2,4.81,2.16c.37.38.75.73,1.09,1.07,1.07,1.1,1.23,1.39,1.45,1.34.64-.13.5-2.91.48-3.37L8,1940.84a12.91,12.91,0,0,0,.24-6.52,5.94,5.94,0,0,1,0-3.34,7.29,7.29,0,0,1,.58-1.21c.62-1.09,1.21-2.19,1.82-3.26,2.14-3.66,1.39-3.71,2.54-4.92,1.34-1.44,2.59-1.55,4.2-3.63.43-.54.83-1.15.59-1.55s-1.21-.38-1.42-.35c-1.31.11-2.09.88-3.26,1.79-2.35,1.85-2.38,1.23-3.37,2.27-1.58,1.69-.86,2.54-2.65,5.19-1,1.44-1.23,1.23-2.54,3.13s-1.63,3-2,2.88c-.61-.1-.72-2.59-.48-4.46a17.51,17.51,0,0,1,1.34-4.2,7.66,7.66,0,0,1,1.17-2.16,10.41,10.41,0,0,1,1-1c2.24-2,2.32-2.78,4.33-4.33.8-.62.88-.57,1.68-1.21,1-.83,1.2-1.15,2.17-1.92a5.48,5.48,0,0,1,2.05-1.2,3.14,3.14,0,0,1,2.3.1c.83.54.4,1.31,1.55,2.92a4.89,4.89,0,0,0,1.45,1.41c.4.24,1.2.62,1.2.62a1.36,1.36,0,0,1,1.2-.14c.65.38.3,1.45,1.07,2.3a3,3,0,0,0,1.34.72,5,5,0,0,0,2.54.14,1.85,1.85,0,0,0,2.14-.14c.48-.56.08-1.55,0-1.68-.64-1.47-2.14-1.1-4-2.89a22.54,22.54,0,0,1-1.68-2,19,19,0,0,0-1.34-1.68,7.9,7.9,0,0,0-2.51-2.06,6.74,6.74,0,0,0-3.26-.72,5.73,5.73,0,0,0-2.38.61c-1,.48-1.15.94-2.41,1.69-.64.34-.88.4-1.58.72a20.83,20.83,0,0,0-3.23,1.92c-2.11,1.47-2.38,2.44-5.56,5.16-1.18,1-1.5,1.21-1.66,1.1-.61-.38.46-3.56,1.79-5.91a17.22,17.22,0,0,1,3.72-4.46,15.34,15.34,0,0,1,2.67-1.79,16.83,16.83,0,0,1,7.22-1.69,32.08,32.08,0,0,1,5.64.32l-3.8-3.63a3.62,3.62,0,0,1-.88-.3,5,5,0,0,1-2.3-2.88c-.48-2,1-2.62,1.1-4.92.08-3.1-2.54-4.71-1.82-5.8s3.21.45,5.4-1c.91-.53.78-1,1.93-2.51,2.11-2.73,3.34-2.48,4.78-4.49.24-.35,2.17-3.07,1.6-6.09s-3.18-3.35-3.52-5.94c-.19-1.31.26-2.91,3.85-6.9a69,69,0,0,1,8-7.37,46.37,46.37,0,0,0,11.55-15.4c3.29-7,1.34-7.67,4.33-11.71,4-5.35,7.43-4.09,12.35-10.59a50.27,50.27,0,0,0,5-8.5,60.15,60.15,0,0,0,2.56-6.25c-1.74-13.5-.21-22.94,1.61-29.19,1.17-4,2.78-7.83,3.2-14.28s-.8-8.26.32-13.79a37.39,37.39,0,0,1,5-11.87c4.27-7.24,6.17-6.52,9-11.71,3.34-6.2,5.58-16.41,1.12-22-2.19-2.75-4-1.82-8.5-6.26-2.86-2.78-5.32-5.21-5.61-8.66-.16-1.84,1.12-4.67,3.69-10.26,2.35-5.16,2.83-5.51,2.72-6.9-.35-4.22-5.08-5.18-5.45-8.82-.19-1.76.64-4.44,5.77-8.18l75.39-70.41a60.93,60.93,0,0,0,7.37-3.69c4.31-2.54,7.76-4.57,10.91-8.5a36,36,0,0,0,5.29-9.78c.35-.89.11-.32,1.77-5.46,0,0,1.15-3.5,5.29-12.83.64-1.41,1.1-2.43,2.09-2.72,1.52-.46,2.64,1.25,5.93,2.4a22.54,22.54,0,0,0,4,.8c4.54.7,6.84,1.05,7.86.32,1.74-1.23.77-3.44,2.4-9.14.81-2.8,1.23-2.91,1.93-5.13,2.62-8.29-.8-14.68,1.28-15.72.62-.29,2.27.64,5.62,2.57,3.5,2,5,3.23,7.05,2.88.78-.13.8-.34,2.41-1.12,3.61-1.76,4.76-1.36,7.38-2.56,1.73-.81,4.43-2.06,5.61-4.66,1.34-2.94-.59-4.65,1-7.21a6.72,6.72,0,0,1,5-3c3.27-.24,3.91,2.67,7.86,3,2.76.26,2.81-1.13,6.74-1.13,3.15,0,4.28.91,5.61,0,1-.66,1.31-2,1.93-4.65.77-3.39.32-4.11,1.12-6.25.75-2,1.31-1.85,2.57-4.17a22.86,22.86,0,0,0,2.24-7.38,46.85,46.85,0,0,0,.48-7.86c.11-3.47.73-4.52,3.21-13.31,3.61-12.83,3.56-15.16,5.94-16.2,2.11-.91,2.75.64,9.3,1.12,3.45.27,6.79.51,10.42-.8a18,18,0,0,0,7.7-5.45l55.82-52.61a10.69,10.69,0,0,1,3.85,3.85,13.64,13.64,0,0,1,1.28,7.86,22.71,22.71,0,0,0-.32,2.56s0,1.79,2.08,6.58a7.57,7.57,0,0,1,3.37,3.53c.64,1.55.27,2.51.8,4.17a8.81,8.81,0,0,0,3.37,4.33l63.68-1.77a90.05,90.05,0,0,0,8.66-8.5c3.23-3.63,4.86-5.42,5.61-7.53,2-5.51-2.22-7.36-3.05-16.52-.16-1.88,1.45-8.69,4.66-22.3,0,0,.53-2.24,1.12-2.24,1.25.08-.75,11.76,5.45,16.68a17.11,17.11,0,0,0,3.05,1.6c7.88,4,10.29,7.4,17.64,12.19,4.2,2.73,3,1.34,9.95,5.45a86.88,86.88,0,0,1,15.07,10.75c4.12,3.74,6.18,5.61,6.74,8,1.44,6.07-4.68,8.71-3.69,14.59s8.63,10.35,13.31,13c5.19,2.94,8.37,3.26,9.47,6.41s-1.1,5.13.32,8.82a10,10,0,0,0,4.65,5.13c3.85,1.82,6.49-.8,16.2-1.92,3.5-.4,5.32-.59,7.7-.16a20.54,20.54,0,0,1,10.26,5.45l.48,36.89,21,1.45a7.51,7.51,0,0,1,2.89-5c2.59-1.65,5.1.11,14,1.93,6.1,1.26,6.34.72,11.71,2.08,4,1,4.68,1.5,7.38,1.77s7.24.69,10.42-2.09c.49-.4,1.18-1.12,2.57-4,3.9-8.07,2.59-11.06,5.29-13,2.49-1.76,4.23.32,9.63-1.12a22.27,22.27,0,0,0,7.54-3.85c7.67-5.48,11.14-13.45,14.75-22,2-4.68,3-7,3.37-10,1.15-8.34-2.43-12-3.37-19.4-1.6-12.57,6-23.05,6.9-24.22,2-2.68,2.24-2.09,24.54-15.88a44.32,44.32,0,0,1,12.51-5.78c1.55-.4,2.11-.45,5.29-1.28,7-1.82,9.38-2.94,10.27-3.37,2.35-1.15,4.14-2,5.77-4a14.16,14.16,0,0,0,2.41-4.49,20.25,20.25,0,0,0,.48-11.87c-1.07-3.85-2.22-3.2-2.89-6.25-1.23-5.62,2.7-7.73,1.6-12.83-1-4.49-4.35-4.57-4.33-7.86,0-3.9,4.87-4.2,9.79-11.23a39.78,39.78,0,0,0,5.29-11.87c1-3.34,1.52-5.13,1.6-7.7.22-7-3.28-9.11-1.76-12.83,1.26-3,4.76-4.52,7.86-5.77,4.52-1.85,5.75-.67,8-2.09,4.49-2.78,4.49-10.4,4.49-18.6,0-9.57-4.2-12.81-2.09-18.45a15.41,15.41,0,0,1,5.78-7l40.42-58.71a66.05,66.05,0,0,1-.81-24c.81-4.68,1.23-7.25,3.05-10.27,1.31-2.19,3-4,5.45-8.5a11,11,0,0,0,1.77-5c.08-1.61-.35-2.43-.32-4.49a14,14,0,0,1,.64-4c.67-2.44,1.12-14.87,1.12-47.16,4.09-6.68,7.59-8.26,10.11-8.34,2,0,2.75.8,5.45.64,3.29-.21,4.22-1.65,8.5-3.52,6.31-2.78,7.78-1.15,10.59-3.69s1.52-4.12,4.49-6.58c3.2-2.67,6-1.82,7.05-4.17.83-1.84-.1-4-1-5.93-1.47-3.37-3.1-3.64-4.33-6.9-.61-1.63-1.18-3.15-.8-4.81.77-3.37,4.92-4.92,11.55-7.38,4.76-1.76,6.47-1.68,7.21-1.6a15.47,15.47,0,0,1,6.9,2.72c1.47,1,1.36,1.23,3.37,2.73,3,2.22,4.44,3.31,5.61,3.37,4.2.16,4.6-8.93,10.75-10.59,3.23-.88,5,1.15,10.26-.32a9.7,9.7,0,0,0,4.17-1.92c.81-.73,2.38-2.46,3-10.11.56-6.23-.32-7,.8-9.62.16-.38,2.54-5.78,6.42-6.1,4.33-.34,6.9,5.94,9.62,5,.62-.22,1-.73,2.73-5.62,1.47-4.14,2.19-6.23,2.57-7.86a42.82,42.82,0,0,0,1-10.9c-.24-12.33-.43-22.94,5-31,3.53-5.26,5.93-4.14,8.34-9.46,1.63-3.66,1.26-5.83,3.05-16,.08-.48.72-4.14,1.6-8.18,1.5-6.92,2.49-9.54,5.45-20.69,2.3-8.61,2.7-10.8,2.57-14-.11-2.81-.4-9.73-4.33-11.71-2.59-1.31-5.21.29-7.06-1.61-1.39-1.44-1.17-3.71-1.12-4.33.48-5,7.86-7.75,13.31-10.58,17.7-9.23,14.68-19.06,28.23-22.78,7.08-1.95,9.44.32,19.89-2.89,5-1.52,9-2.8,12.83-6.41,6.42-6,7.51-14,7.86-16.68.88-7.11-2.81-7.73-1.76-14.6.88-5.69,3.95-10.56,5.77-13.47,1.28-2,2.62-3.82,4.81-6.74,5.32-7.08,6.39-7.48,6.26-9.14-.24-3.37-4.68-3.53-10-10.42-2.14-2.81-3.47-4.63-3.21-6.9.43-3.56,4.25-3.64,6.1-8,1.71-4,.45-8.47-.32-11.23-1.23-4.41-2.78-5.1-2.57-8.18a12.43,12.43,0,0,1,3.21-6.89c2-2.46,3.07-2.14,6.26-5.14s2.59-3.68,4.65-5.29c1.87-1.47,3.23-1.55,10.9-2.89,9.23-1.6,10.4-2,11.71-3,2.17-1.66,1.82-2.65,5.13-6.9s4.33-4,6.9-7.22c3.85-4.76,5.35-9.86,7.06-15.72,1.6-5.45,1.07-6.17,2.72-9.62,2.44-5.13,4.23-4.89,5.3-8.66,1.36-4.76-.24-9.6-1.29-12.83-1.25-3.82-2-3.8-2.4-6.42-.56-4.11,1.17-5.45,1.92-10.42,1.13-7.35-1.84-10.13.16-12.19,3-3.13,11.07,2,13-.64,1.13-1.55-1.17-4-3-10.59a35.77,35.77,0,0,1-1.61-9.3c0-1.5-.08-11,6.26-18.12,2.75-3.11,3.95-2.65,6.73-6.26a27.12,27.12,0,0,0,4.66-9.62c2.13-8.32-1.39-11.28,1.12-15.08,3.07-4.62,9.11-1.36,12.51-5.61,3.85-4.82-2.25-11-.32-24.7.64-4.49,1.33-9.55,4.81-11.23,4.41-2.14,9.68,2.89,13.15,0,1.53-1.28,3-4.36,3.69-5.77a24.23,24.23,0,0,0,1-2.25q16.85-23.9,33.68-47.8l4.34-11.06c8.84-1.87,12.88-1.39,14.91-.48.38.16,2,.93,4.33,1.76,2.14.78,3.08.94,4,1.28,3.61,1.31,3.61,3.8,6.42,5.62,5.64,3.69,13.84-1,16.36,2.72.42.65.53,1.26,1.12,1.45,1.58.45,4-2.92,5.77-5.94l86.45-54.69a26.35,26.35,0,0,0,5.3-7.54c3.5-7.59,2.24-14.75,1.63-17.91-.72-3.74-1.18-6.23-3.08-8.87-4.57-6.45-11.22-5.16-13.15-10.59-1.31-3.69.51-7.78,1-8.82.89-2,2-3.23,4.17-5.61,3.91-4.28,4.9-4,6.26-5.94,3.42-4.76-1.26-8.26.8-16.68,1.18-4.76,2.94-4.7,5.93-13.63,1.39-4.09,1.58-5.8,1.61-7.22,0-2.57-.48-3.93-2.09-10.1-1.25-4.84-1.87-7.27-1.92-8a24.17,24.17,0,0,1,3.21-12.51c2.56-4.74,4.84-5.62,5.13-9.31a10.87,10.87,0,0,0-1.28-5.77c-3-6.12-8.77-5.85-15.88-10.91-8-5.66-11.44-13.63-12.83-16.86-2.81-6.45-.08-10.64-3.53-14.73-2.68-3.18-6.71-4.25-9.79-4.65l-57.58-1.93a26.13,26.13,0,0,1-4.49-5.13,25.52,25.52,0,0,1-3-6.26,19.58,19.58,0,0,1-1.13-8.66,22.3,22.3,0,0,1,1.61-5.45c1.47-3.9,2.19-5.86,3.85-9.78,1.52-3.59,1.87-9.74-3.37-20.86-.54-4.25-1.34-10.21-2.57-17.32-.53-3.15-1-5.58-1.6-8.66-1.1-5.21-2.38-10.29-7.22-26.14-3.58-11.76-3.37-10.61-3.69-12-2.06-9.28-.85-11.9-3.21-22.62-1-4.35-1.49-5.45-2.08-9.46A67.36,67.36,0,0,1,1257.88,0l84.68.64c-.29,1.61-.4,3.72.8,5.29a11.17,11.17,0,0,0,2.09,1.77,22.89,22.89,0,0,1,3.69,3.85c2.22,3.13.67,4.94,2.73,8.82,1,1.82,1.28,1.36,3.2,4,2.49,3.39,4.79,6.55,4.33,9.46-.74,4.63-8.2,6.26-7.69,8s7.32,0,9.14,3c1,1.76-.88,2.94-.48,6.57.48,4.6,3.87,5.81,3.2,9-.48,2.22-2.35,2.62-2.24,4.49s2.22,3.23,3.69,4.17c7.46,4.81,5,4.94,11.22,8.5a64.91,64.91,0,0,0,16.2,6.41c6.5,1.66,7.22.81,10.43,2.57,4.54,2.49,4.22,4.79,9.78,9s8.56,4,8.82,6.26c.43,3.45-6.92,4.3-8.82,9.94-2,5.88,3.34,12.94,7.86,18.93s5.83,5.24,10.43,11.87a42.57,42.57,0,0,1,6.73,13.95,56.26,56.26,0,0,1,1.13,7.06c2,15,3.5,13.9,3.36,19.24-.1,4.49-1.36,9.31-3.84,18.93-.67,2.57-1.29,4.76-.65,7.54.3,1.23.91,3,6.74,9.14,4.52,4.78,6.84,7.19,9.14,8,3.13,1.1,4.07.08,8.82,1.44,2.78.8,5.19,1.47,7.06,3.21,2.25,2.09,2.62,4.68,3.37,13,1.42,16,.72,14.49,1.44,17.48,1.47,6.05,4.09,11.1,1.93,13.16-1.05,1-3.05,1.12-3.69,2.88a2.77,2.77,0,0,0,0,2.09c.67,1.39,2.64,1.34,5.61,2.08,3.21.81,4.81,1.23,5.94,2.41,2.32,2.43,1.63,6.84,1.12,10.26-.48,3.19-1,2.89-1.44,6.1-.67,4.92.53,5.72-.65,8.5a15.1,15.1,0,0,1-4.17,5.29c-1,.86-1.73.78-2.24,1.61-.78,1.25-.35,2.83.64,5.61,1.34,3.77,2.25,5.75,3,7.86a59.42,59.42,0,0,1,2.08,7.06c1.71,6.76,1.45,9,3.37,10.1,1.47.86,2.33,0,4.33,1.12a7.16,7.16,0,0,1,3.21,3.85c.64,2.36-.72,4.52-2.25,6.9-4.19,6.5-6.81,10-9.14,13.63-2.43,3.77-4,6.2-5.29,9.95a49.66,49.66,0,0,0-1.93,7.86,52,52,0,0,0-1,8.34c-.08,6,1.85,6.38,2.89,13.63.88,6.12-.38,6.79.8,14.59.43,2.84,1,5.35,1.28,6.74,1,4.52,1.5,6.76,2.41,8.82,1.68,3.74,2.78,3.88,3,6.42.21,2.11-.4,3.47.64,5,.91,1.34,1.9,1,2.56,2.08.91,1.5-.29,3.21-1.92,7.7-2,5.38-1.47,6.29-2.89,7.38-2.46,1.9-4.73-.16-6.89,1.61-2.62,2.13-2.46,7.69-.32,11.22,1.14,1.9,1.73,1.37,3,3.21,3.13,4.41-.08,7.73,2.57,13.95,1,2.44,2,3.13,2.08,5.3,0,.61,0,2.22-1.92,5.77-2.35,4.41-3.58,4.41-4.17,6.42-.88,3.07,1.36,5.13,4.33,10.9,4.41,8.58,1.84,8.74,5.61,14.6,1.23,1.92,4.95,7.27,8,12a12.36,12.36,0,0,1,1.45,3,13.07,13.07,0,0,1,.32,5.93c-.94,6.17-3.08,6.87-3.53,11.39-.14,1.23-.48,6.31,2.56,9.94,1.77,2.11,3.16,1.93,7.06,4,4.09,2.17,6.68,4.65,11.87,9.62,4.73,4.52,7.08,6.77,8,8.67,2.94,5.93.45,9.3,3.37,16.68a32.7,32.7,0,0,0,4.65,7.69c9.17,12.3,15.5,13.16,25.34,24.7a134,134,0,0,1,10.27,14.12c5,8.07,8.9,16.33,12.35,15.72,1.47-.27,1.6-1.93,3.36-2.09,2.17-.21,3.29,2.17,7.06,5.45a37.83,37.83,0,0,0,7.54,5.14c4,2.06,4.84,1.36,8.34,3.21.61.32,8.13,4.35,7.54,7.37-.46,2.28-5.24,2.57-12.35,4.17-10.88,2.46-10.61,4.23-21.49,7.22-12,3.29-18,4.92-25.35,3.69-5.74-1-9.51-3.07-24.86-8.18l-5.29-1.76c-7.67-2.57-7.62-2.54-7.7-2.57-6-1.77-7.3,1-17.48,1-7.08-.05-10.56-1.47-13,1a15.79,15.79,0,0,1-4,3.69,25.78,25.78,0,0,1-3.53,1.61s-1.55.58-2.89,1c-3.39.93-8.12-.59-11.54-1.6-6-1.77-9-2.65-11.23-2.73a28.82,28.82,0,0,0-11.23,2.08c-3.93,1.53-4.84,2.78-8.82,3.69-2.43.54-3,.27-6.74.64-6.31.62-7.24,1.63-10.9,1.93-4.63.37-6.37-1-13-2.57-6.87-1.63-11-1.6-15.88-2.08-7.17-.72-19.22-2.86-40.58-9.31l-58.54-1.44-21.18,41.7q-12.83,12.68-25.66,25.34L1232.86,787a16.8,16.8,0,0,0,6.89,4.49c2.25.72,3.77.61,5.3,1.92a8.08,8.08,0,0,1,2.4,5.14c.54,3.69,10.21,14.51,42.18,41.54,2.78,8.5,5.51,10.53,7.54,10.74,1.82.19,3.58-1,6.58-.16a9.17,9.17,0,0,1,3.53,1.93c2.56,2.3,1.65,4.3,4.33,7.38,1.2,1.39,1.52,1.15,3.05,2.88a23.84,23.84,0,0,1,2.88,4.33c2.17,4.41.48,8.56.16,18-.08,2.67,0,4.81,0,6.09l38,37.05,69.77,48,12,.8c-1.25,5.13-.53,7.08.48,7.86s2.6.35,3.53,1.6.14,2.17,1,3.21c.66.83,1.68.86,3.52,1.12,3.24.46,5.51.78,7.06,1.77,1,.67,2.33,2,3,5-1,5.27,0,7.65,1.28,8.82,1.87,1.79,3.82.48,11.23,1.93,2.27.42,1.47.45,8.34,2.08,3.93.94,4.62,1,5.77,1.6a14.45,14.45,0,0,1,6.26,6.26l40.58,76.51q9.7,21.89,19.4,43.78,3.86,16.77,7.7,33.52l11.07,26,10.26,13,14.76.16q.07,12.59.16,25.18l-10.1,25.18-70.74,73-.48,31L1494,1383q-.88,11.07-1.76,22.14l-18.29,36.25-22.61,4.49q-23.65,55.1-47.32,110.18a10.21,10.21,0,0,1-5.61,4.82,10.39,10.39,0,0,1-6.42,0,49,49,0,0,1-15.55,6.25c-3.08.62-5.59.78-9.31,2.41a33.46,33.46,0,0,0-8.5,5.61c-6.89,5.88-5.88,7.46-11.06,11.87-6.77,5.75-10.43,4.68-14.44,10.42-1.26,1.8-3.29,4.71-3.21,8.51.06,2.48,1,3.87,8.18,13.15,10.27,13.26,10.13,12.7,10.59,13.79.59,1.42,1.23,3.42,3,4.17s4-.08,7.53-1.44c2.86-1.1,2.54-1.37,4-1.77.86-.24,5.75-1.57,9.47,1.45a10,10,0,0,1,3.36,7.37l-.64,48.6a17.13,17.13,0,0,0-3.69,7.38c-.4,2-.42,3.82.32,9,.54,3.66.83,5.86,1.77,9.95,2.35,10.45,4.09,12.77,2.89,17-.35,1.23-.59,1.36-3.21,5.61-3.42,5.53-6.07,10.48-11.39,20.37-2.51,4.68-3.37,6.44-4,9.14-.69,2.92-1.66,7,.32,10.59,1.28,2.32,3.61,3.45,8.18,5.61,7.35,3.48,9.49,2.94,13.47,5.46a24.15,24.15,0,0,1,8,8.82c4.84,8.36,4.09,17.43,3.53,24.38-.21,2.64-.83,7.69-1.28,11.06-.48,3.69-.88,6.26-1,6.74-.64,4.41.34,12.86,7.7,30.47q.08,24.39.16,48.76l4,9,39.13,33.52c10.77-.5,14.92,2,16.68,4.5a24,24,0,0,0,2.57,3.68c2.86,3.19,4.94,3.13,7.7,5.3s1.71,3,6.41,10.1c3.29,5,4.12,5,5.61,8.18a28.77,28.77,0,0,1,2.57,9.62c1.66,13.61-2.4,21.58.8,29.2a13.77,13.77,0,0,0,3.69,5.45c1.5,1.28,2.38,1.36,5.13,3.21a31.68,31.68,0,0,1,4.33,3.36c1.5,1.42,6,5.67,5,8-.56,1.29-2.73,1.55-7.06,2.09-4.06.51-4.12,0-6.26.48-1.12.27-6.89,1.55-8.66,6.26a8.72,8.72,0,0,0-.16,5.45l47.64,72.82L1595,2215l45.87,53.41,19.89-.48a6.47,6.47,0,0,0,1.28,4,7.31,7.31,0,0,0,3,1.93c2.59,1.23,2.83,3.44,5.45,8,3.47,6.06,6.84,8.79,8.18,9.78,1.17.88,4.14,3,5.61,2.08s.54-3.66,1.77-4.17c.42-.18,1.25-.13,3,1.61a22.48,22.48,0,0,1,5.46,9.14c1.6,4.6.26,7.24,2.08,8.34,1.55.94,2.84-.59,4.17.32,2.33,1.58-.85,6.66,1.93,10.91,1.31,2,2.78,2,3.37,4,.66,2.27-.57,4.49-1.29,5.77-2.75,4.87-6.28,4.25-7.7,8.18a10.68,10.68,0,0,0,.16,6.74c.62,1.9,1.31,2.38,2.57,4.65a22.63,22.63,0,0,1,2.73,7.38,19.26,19.26,0,0,1-1.45,11.06c-.69,1.45-.93,1.39-1.12,2.25-.59,2.86,2,4.33,3.85,9.3a15.71,15.71,0,0,1,1.28,5.78c0,2.86-1,4.43-1.92,7.05-.56,1.5-4,11.26-1.12,18,.29.69.93,1.95,1.92,4.33,1.12,2.67,1.82,4.7,1.92,5,1,2.67,6.58,14.35,22.3,45.23A8.2,8.2,0,0,1,1728.78,2468.87Z"/><path d="M856.06,1280.88a13.15,13.15,0,0,0-3.84,3.85c-3.62,5.1-2.52,6.85-5.54,11.07-2.43,3.4-4.62,4.31-4.21,5.89.34,1.3,2,1.38,5,2.89,5.35,2.62,5.19,4.71,8.66,5.77,2.87.88,3.43-.4,9.87-1.08,7.22-.76,11.45.34,11.79-.84.49-1.71-8.12-4.82-7.58-8.3.09-.62.37-.54,1.2-2.41,1.24-2.76.88-3.5,1.69-4.33,1.58-1.63,4.92-.81,5.77-.6,3.89,1,5,3.6,6.38,3,1.64-.72,1.14-5.24,1-6.86-.29-2.62-.44-3.93-1.33-4.57-2.42-1.73-6.41,3.1-11.42,1.57a33,33,0,0,1-3.37-2c-6.68-4.15-7.72-4.74-9.38-4.69A9.41,9.41,0,0,0,856.06,1280.88Z"/><path d="M868.3,1285.3c-1.91,1.58-1.11,3.55-2.41,6.25s-2.9,2.13-5.53,5.78c-1.57,2.18-3.12,4.32-2.41,6,.93,2.23,5.16,2.2,8.66,2.17,1.79,0,2.63-.24,3-.84.54-.86-.35-1.74-.48-4-.08-1.26.17-1.53.48-3.85s.16-2.6.36-4.69c.48-5,1.69-7.13.84-7.7C870.2,1284,869,1284.74,868.3,1285.3Z"/><path d="M861.76,1282.71a7.05,7.05,0,0,0-3.49.72c-2.41,1.38-3.4,4.59-3.13,7.1.18,1.73.85,2,1.2,3.85.59,3.07-1.24,3.89-1,6.37a7.72,7.72,0,0,0,6.38,6.38,8.1,8.1,0,0,0,4-.84c1-.5,1.07-.84,2.4-1.69,1.94-1.24,2.7-1.14,3.61-1.8,1.83-1.34,2-4.08,2-5.9,0-.59.32-9.75-5.9-13A12.69,12.69,0,0,0,861.76,1282.71Z"/><path d="M847.13,1277.57c.24,4.5,2.16,7.38,3.61,10.71a37.18,37.18,0,0,1,2.52,9.14c.86,4.89.35,6.64,1.57,11.67.54,2.25,1.53,6.36,2.88,6.37s1.15-4.27,4.57-6.61c1.77-1.21,2.15-.29,6.38-2,2-.84,2.33-1.21,5.17-2.4s2.9-1,3.85-1.57c1.44-.9,4.32-3.3,4.09-5.77-.3-3.34-5.95-3.53-6.61-7.46-.36-2.1,1.14-2.69.6-5.41a12.36,12.36,0,0,0-2.41-4.69c-1.21-1.73-1.81-2.6-2.64-3.13-2.13-1.36-3.85-.35-9.15-.6-1.08-.06-2.24-.2-4.57-.48-6.09-.75-8.3-1.47-9.38-.25C847.19,1275.52,847.05,1276.16,847.13,1277.57Z"/><path d="M865.4,1294.88v.11h-1.9A8.15,8.15,0,0,1,865.4,1294.88Z"/></g></g></svg>