<svg xmlns="http://www.w3.org/2000/svg" viewBox="0 0 2347.2 1594.68"><g id="Layer_2" data-name="Layer 2"><g id="Central_African_Republic" data-name="Central African Republic"><path d="M2268.24,1063c3.6-1.79,6.49-2.6,11.93-4.12,3.61-1,5.44-1.52,6.72-1.52,4.17,0,6,1.89,10.85,4.12,7.29,3.33,8.12,1.29,16.26,4.77a78.86,78.86,0,0,1,10,5.42,145,145,0,0,0,13.23,7.59c5.11,2.47,7.52,3,8.89,2a3.32,3.32,0,0,0,1.08-2.82c-.2-2.18-2.6-3.07-6.29-5.64a59.54,59.54,0,0,1-8.67-7.59c-2.93-2.93-2.6-3.12-5.42-5.85-4.32-4.17-4.91-3.55-6.94-6.07-.91-1.13-.77-1.23-4.77-10.2-2.12-4.73-2.61-5.73-3-7.8s-.25-2.69-.65-6.73c-.57-5.74-1-5.21-1.09-8-.1-3.22.51-6.05,1.74-11.71.66-3,1-4.54,1.52-6.29,2.36-7.57,4.92-9,4.12-12-.76-2.84-3.13-1.83-5.35-5.64-2.62-4.48-1.31-9.22-4.19-10.55-.74-.34-.84,0-1.59-.44-2.18-1.13-1.85-3.89-3.33-7.23A52,52,0,0,0,2299,961c-2.91-3.7-4.36-5.55-5.21-6.22-2.2-1.74-4.53-2.34-9.11-3.47-7.23-1.79-8.28-.7-10.55-2.46-3.37-2.6-1.87-5.6-5.35-8.24-2.81-2.13-4.18-.47-9.25-2.46-5.47-2.14-5.2-4.58-9.83-5.49-2.34-.46-2.85.07-7.38-.58-3.45-.5-5.19-.77-5.93-1.74-1.88-2.46,1.2-6.45-1-8.81-.47-.51-.6-.32-2.31-1.6a29.68,29.68,0,0,1-3-2.6,21.07,21.07,0,0,0-10.26-4.91c-3.49-.54-3.2.75-8.39.72a41.37,41.37,0,0,1-10.7-1.74c-4.19-1.08-3.45-1.35-7.8-2.45-4.76-1.21-6.07-1-7.23-2.46-1-1.25-1.38-3.1-2-6.22a8.37,8.37,0,0,0-1-3.18c-.33-.54-1.48-2.39-3-2.46-1.92-.08-2.15,2.63-4.78,3.18,0,0-.61.13-4.62-.57,0,0,0-4.3,1.59-6.94,1.83-3,4.69-2.14,8-5.06.78-.7,4.68-4.09,3.9-6.8-.37-1.29-1.5-1.37-5.78-4-3.41-2.13-5.13-3.22-5.64-4.48-1.08-2.67.72-5.17-.87-6.65a3.2,3.2,0,0,0-1.88-.72c-1.68-.26-4.11-1.53-9-4-2.79-1.45-4.75-2.71-8.67-5.21-5.2-3.31-6.82-4.68-8.24-6.79a17.58,17.58,0,0,1-1.74-3.33c-1.5-3.58-4.14-9.87-2.6-15.32,1.75-6.2,6.92-4.38,11.42-12.87,2.13-4,2-6.33,5.06-9.25,2.77-2.63,4.75-2.52,5.64-4.77,1.22-3.09-.85-7.43-3.76-9.69-2.39-1.85-4.24-1.45-9.54-2.46-3.89-.74-8.61-1.63-12.58-3.9-5.65-3.23-3.81-5.82-11.28-12.29a88.64,88.64,0,0,0-11.56-8.24c-4.34-2.54-5.65-2.74-6.94-4.77-2.53-4-.48-7.83-3.33-10.27-1.93-1.65-3.34-.29-5.06-1.73-3.77-3.16,1.27-11.12-2.46-15.47-1.35-1.58-2.18-.72-8.53-2.75s-10.34-3.31-13.73-6.8c-2.63-2.69-2.52-4.32-5.64-6.36a23.47,23.47,0,0,0-6.36-2.74c-3.43-.85-4.57-.2-5.64-1.31-1.87-1.92.55-4.95-1-7.08-1.78-2.41-5.93,0-12.15-1.45-5-1.2-4.32-3.28-10.41-5.63-6.92-2.68-8.78-.36-14-3.18-4.35-2.35-3.29-4.06-8.53-7.67-4-2.78-4.67-1.76-13.16-5.93-2.63-1.29-1.58-.9-9.69-5.2-6.7-3.56-7-3.61-8.24-4.63-1.8-1.5-5.64-4.7-7.08-9.83-.67-2.36-.37-3.53-1.59-5.49a11.8,11.8,0,0,0-5.06-4.19c-6.17-3.23-9.24-4.1-13.59-6.22-5.13-2.5-7.69-3.75-9.4-6.36-2.1-3.22-3.13-8.13-1.16-12,1.2-2.35,3.1-3.53,6.51-5.64,4.53-2.81,5.48-2,8.53-4.19.6-.44,6.83-5.09,6.36-10.7-.16-2-1-1.82-2-4.92-1.8-5.23-.07-7.21-1.3-12.14a22,22,0,0,0-4.63-8.53,26.71,26.71,0,0,0-8.82-7.52,25.68,25.68,0,0,0-8.1-2.6c-7.32-1.07-11.18,1.66-15.32-1a8.87,8.87,0,0,1-2.6-2.6L1889,539.83a80,80,0,0,1-3.18-7.67,74.73,74.73,0,0,1-2.31-7.8c-.48-1.74-1-3.47-1.45-5.21-8.68,2.4-13.5,1.08-16.34-.72a27.59,27.59,0,0,0-4.48-2.89c-3.36-1.6-5.48-1.46-10-2.46-5.27-1.17-4.42-1.82-7.67-2.31-6-.91-8.22,1.4-14.89,1.15a28.9,28.9,0,0,1-8-1.44,22.71,22.71,0,0,0-11.13-9.83c-2.3-.9-6.16-2.4-10.12-1-3,1.05-3.26,2.78-6.22,3.76s-5,.16-9.83-1.15c-12.75-3.5-12.19-2.06-15.18-3.91-5.54-3.42-8-8.69-9.4-11.71-1.31-2.82-3.69-7.93-2.89-14.46.71-5.85,3.64-10.05,5.49-12.72a58.1,58.1,0,0,1,7.09-8.53c2.69-2.51,4.36-3.39,4.62-5.49s-1.12-2.54-2.31-6.65c-.82-2.85-1.35-4.68-.72-6.8.56-1.89,1.61-2.5,2.46-5.35a15.82,15.82,0,0,0,.57-2.89l-38.74.29a20.93,20.93,0,0,0-7.23-3.76,26,26,0,0,0-8.82-.72,80,80,0,0,0-8.68,1c-10.09,1.21-10.86-1.09-19.66.29-2.56.4-4.4.89-7.23.43s-3.09-1.29-7.37-3c-5.52-2.26-5.54-1.06-12.87-3.62a8,8,0,0,0-3.61-.72c-1.62.13-2.76.86-6.37,3.47-4.1,3-3.94,3-4.48,3.18a9,9,0,0,1-9.25-2.17c-2.28-2.52-2-5.83-1.88-7.81.33-4.4,2.59-7.59,4.48-10.26.4-.56,1.86-2.3,4.77-5.79,3.73-4.45,3.62-4.24,3.76-4.48,2.66-4.58-.45-6.9,1.3-14.45.8-3.45,2.2-6.24.87-7.52a2.58,2.58,0,0,0-1.73-.58c-1-.07-2.67.17-6.8,4.05-2.64,2.47-2.91,3.27-4.19,3.47s-2.27-.42-4.77-2c-7.29-4.66-7.44-4.7-7.81-5.35-1.9-3.3-.78-7.29-.14-9.54.71-2.54,1.25-2.36,2.89-6.22,2-4.82,1.65-6.19,3.32-9.83a27.86,27.86,0,0,1,4.63-6.94h9.25l17.64-17.2a44.21,44.21,0,0,1-1.45-8.24,48.49,48.49,0,0,1,.44-10.7c1.08-7.23,2.76-8,2.17-12-.53-3.58-1.88-3-3.33-8.1a28,28,0,0,1-.72-12.29,22.28,22.28,0,0,1,1.73-5.78c1.83-4,3.72-4.8,5.35-8.39a20.86,20.86,0,0,0,1.59-6.65c.87-6.95.25-10.59,0-20.24-.22-9,.16-12-1.88-16.77a26.49,26.49,0,0,0-2.74-4.91L1598,95.1l-36.72-31.81c-2.69-.34-8.63-1.48-13.3-5.92-1.85-1.76-3.42-3.25-3.9-5.64-.46-2.22.33-3.65-.58-6.22a10.5,10.5,0,0,0-2-3.32c0-.07-1.91-3.13-5.63-9.26-7.81-12.84-8.33-14.62-11.57-16.62-1.64-1-3.26-1.49-6.51-2.46-8.83-2.63-11.46-.82-17.93-3.18-4.72-1.73-3.47-2.76-9.68-5.5-4.68-2.06-8.35-2.78-14-3.9C1467-.52,1463.56,0,1462.36.26a25.53,25.53,0,0,0-6.22,2l-56.53,19.09c-1.23-.5-3.1-1.28-5.35-2.32-4-1.87-4.07-2.15-5.2-2.31-4.07-.58-5.6,2.79-8.68,1.88-2.48-.74-2.5-3.24-5.06-3.9-2.07-.54-4.17.55-5.64,1.59l-24.57,15.18-8.53-.15q-3.76,4.2-7.52,8.39l-.87,21.11-9.54,6.07-1.74,26.89c-.73.15-1.59.44-1.73,1-.21.81,1.1,1.72,2,2.46a20.71,20.71,0,0,1,6.22,8.39,11,11,0,0,1,.58,5.92c-.9,4.52-4.44,4.7-6.08,9.11s1.23,5.6-.28,9.83c-.61,1.7-3.26,4-8.53,8.53-4.62,4-6.12,4.89-7.81,5.64a17,17,0,0,1-6.94,1.74c-3.14,0-3.24-1-6.94-1.16a13.44,13.44,0,0,0-8,1.59,11.1,11.1,0,0,0-3,2.75q-6.95,14.59-13.88,29.2c-5.41,3.16-7.8,6.45-9,9-.59,1.26-1.25,3.17-3,3.9-1.4.57-2.13-.12-5.49-.58-4.29-.58-4.73.32-6.8-.58-2.82-1.22-3-3.32-4.63-3.18-1.09.1-1.45,1.06-4.77,4.49-.77.79-1.42,1.44-1.88,1.87q-9,10.28-17.92,20.53c.66,2.78,1.07,6.62-1,9.4-1.27,1.7-2.3,1.44-6.21,3.76-6.38,3.79-6.41,6.11-10,6.51-2.66.29-4.6-.77-5.93.58a4,4,0,0,0-.86,2.89c-.12,7.39,1.06,9.12.43,12.14s-2,2-5.2,8.24c-.7,1.35-.52,1.17-3.47,7.67-2,4.43-2.56,5.5-3.91,6.5-1.63,1.21-2.44.82-5.35,2.17a20.9,20.9,0,0,0-5.35,3.47c-3.71,3.46-4.57,7.88-8,10.7a3.65,3.65,0,0,1-2.17,1c-1.66.08-2.35-1.42-3.32-1.16-1.26.35-.72,3-2.32,5.06-1.11,1.42-2.75,1.87-4.91,2.32-10.07,2.1-12.7.46-14.6,2.6-2.23,2.51.39,5.84-2.75,10.27-.72,1-1.65,2.32-3.18,2.6-2.57.47-3.63-2.58-7.38-4a11.26,11.26,0,0,0-15.32,7.81c-.52,1.64-1.29,4.1-.43,6.65a10.87,10.87,0,0,1,.86,2.6,6.07,6.07,0,0,1-.72,4c-1.64,2.27-4.73.38-7.52,2.75-1,.89-1.62,2.09-2.75,4.48-1.27,2.7-.89,3.1-1.73,4.19-1.37,1.77-3.14,1.68-7.08,2.89-4.24,1.3-3.84,1.91-7.81,3.18a26,26,0,0,1-9.4,1.74c-3-.12-6.07-1.38-12.29-3.91-5.08-2.06-5.07-2.4-6.79-2.6-4.74-.55-5.67,1.94-10.41,1.59-4.22-.31-5.07-2.4-9-2.17a12.35,12.35,0,0,0-6.07,2.17l-25,13.16c-3.75.27-6.75.46-8.82.58-1.7.1-2.66.14-4.19.29-3.35.31-5.79.73-6.51.86-2.49.45-4.28.92-5.78,1.3-3.81,1-7.63,1.88-11.42,2.9-4.16,1.11-11.85,2.41-27.33,3a202.83,202.83,0,0,1-23.86,1.88c-14.1.27-30.19.58-45.1-1.44a41.18,41.18,0,0,0-14.32.29,40.17,40.17,0,0,0-10.55,3.75l-5.93,2.61-25.74,18.07v2.31l44.54,36.58L832.43,450c-.19,1.88-.39,3.76-.58,5.64l-17.06,14.89a13.09,13.09,0,0,1-1,5.21c-.5,1.17-1.67,3.42-6.65,7.08-5.83,4.29-7.32,3.49-9.69,6.51-2.15,2.74-1.05,3.56-3.47,7.23a23.93,23.93,0,0,1-8,7.37c-3.2,1.89-3.73,1.24-9.11,3.76-3.77,1.76-5.65,2.64-7.66,4.34-3.8,3.2-5.46,7.07-6.94,10.55-2.57,6-1.39,7.06-3.91,11.71-1.43,2.65-3.32,6.15-7.37,8.24a15.88,15.88,0,0,1-10.7,1.16l-85.73,4.34L636,557a71.11,71.11,0,0,1-12.15.58c-2.45-.1-3.36-.27-7.08-.43-4.08-.19-7.16-.17-9.69-.15-10.51.08-12.5.8-15.18-1a7.46,7.46,0,0,0-3.18-1.59c-2.23-.39-5.27.46-6.07,2.31-.45,1,0,2-.87,3.47a6.74,6.74,0,0,1-.87,1.16c-2.41,2.53-12.93-.16-17.93,3.9-3.37,2.74-2.62,7.25-5.49,7.67-1.37.19-1.83-.78-5.78-1.88a17,17,0,0,0-4.49-.87c-2.94-.05-4.72,1.32-7.95,3-4,2.14-5,2-8.82,3.76-9.42,4.31-22,13.65-24.29,15.33a18,18,0,0,1-2.89,6.65c-1.2,1.69-2.49,3.51-4.34,3.61s-3.07-1.75-3.75-1.3c-1,.69,1.78,4.85,0,7.67a4.49,4.49,0,0,1-1.59,1.44c-1.81,1-3.59.58-5.5.44a19.71,19.71,0,0,0-7.37,1c-4.33,1.23-3.79,3-7.23,4-5.21,1.58-8-2-14.17-.29A15.47,15.47,0,0,0,455.8,617l-17.64,16.34c-5.48,1.1-8.21-.06-9.69-1.3-3.17-2.66-2-6.86-6.36-10.41a20.56,20.56,0,0,0-4.48-2.6c-3.48-1.64-4.7-1.39-6.65-2.46-3.57-2-5-5.8-5.49-7.09-2.44-6.48,1.41-10.28-1.16-13.44-2.28-2.8-6.06-.75-9.4-3-2.66-1.82-5-6.36-3.32-18.36-9.57-.12-13.22,2.38-14.75,4.77-1.23,1.92-1.49,4.38-4.34,7.23-1.06,1.06-3,2.94-5.06,2.6-1.71-.27-2-1.82-3.18-1.73-1.85.13-3.7,4.11-3.76,8s1.71,4.49,1,7.23c-.79,3.14-3.81,5.08-5.34,6.07a16.3,16.3,0,0,1-4.63,2l-38.31,15c-3.81.45-6.88.71-9,.87-3.71.27-5.69.31-8.1,1.59a7.93,7.93,0,0,0-3.61,3.18c-1.31,2.46.05,4.14-.43,6.22-.92,3.89-7.47,5.5-17.35,7.8-8.3,1.94-8.5,1.1-14.89,3-3.8,1.15-5.13,1.88-8,1.88-1.78,0-7.91,0-11.13-3.9-1.31-1.6-2-3.64-4.77-5.79a13.64,13.64,0,0,0-1.74-1.15H192.52l-1.88,3.32a75.59,75.59,0,0,1-10,14.46c-5,5.63-8.14,7.74-16.63,14.75-4.61,3.8-11.07,9.39-18.51,16.77Q145.1,701,144.67,713L133,725.18q-.37,3.54-.73,7.08-1.08,5.06-2.17,10.12Q123.2,758.22,116.33,774c-4.17.77-7.44,1.28-9.69,1.6a18.11,18.11,0,0,0-6.07,1.59,15.33,15.33,0,0,0-3.9,2.74q-13.89,30.43-27.76,60.87c1.21,1.72,2.47,4.16,2,6.8s-2.45,3.4-5.06,6.65c-4.79,5.94-2.54,9.3-7.08,13.44-1.67,1.52-3.53,2.32-7.23,3.91A66,66,0,0,1,40.86,875c-13.36,3.41-14.76,3.58-17.06,5.35-3.56,2.74-2,3.68-6.07,7.66C11,894.53,5.88,892.74,2.11,898.82c-.65,1-2.81,4.54-1.88,8.53a9.1,9.1,0,0,0,1.45,3.18l14.17,20.82c4.82,1.73,7.37,1.08,8.82.14s2-2.29,4-2.75a5.2,5.2,0,0,1,4,.73,5.23,5.23,0,0,1,1.74,3.47,91.79,91.79,0,0,1,1.44,12.58c.19,9.06,3.43,8.41,2.89,15.18-.13,1.69-.33,1.69-4.33,14-2.46,7.57-2.56,8.09-2.61,9-.36,6.32,3,8.59,4,14.75,1,5.4-.53,9.61-2.6,15.47-3.28,9.3-7,10.87-11.28,22.56-2.27,6.13-2.47,9-1.15,11.13.76,1.25,1.74,1.8,8.38,4.91,7.9,3.71,7.9,3.59,9.11,4.34,1.77,1.1,6.64,4.11,9.25,9.11,1,1.81,1.57,3.83,1.59,13.16,0,12.82-1.11,18.57-.29,30.36.06.73.1,1.22.15,1.88a260.07,260.07,0,0,0,5.35,34.7c2.38,10.87-.58,17.17,4.34,22a13.58,13.58,0,0,0,3.47,2.46,81,81,0,0,0,12,12.72,82.9,82.9,0,0,0,26,15,10.92,10.92,0,0,1,6.51,2.75c2.72,2.63,1.92,5.38,3.9,9.39,2.94,6,6.82,4.19,9.4,9.4,2.35,4.74-.28,7.39,1.88,16.19a39.42,39.42,0,0,0,2,6.08c-.69,3-1.22,7.73,1,12.14.84,1.65,2.91,5.76,6.22,7.52a7.9,7.9,0,0,1,3.18,2.75c.56.88,1,1.55.87,2.17-.58,3-13.24.79-15.47,5.63-.73,1.59-.23,3.67.14,5.21a15.62,15.62,0,0,0,2.32,4.91,27.28,27.28,0,0,0,3.47,4.49c2.42,4.42,5.76,10.29,10,17.06a286.52,286.52,0,0,0,20.68,29.64c1.76,2.18,2.44,2.93,23.27,25,16,17,18.26,19.33,22.7,24.29,6.68,7.45,9.58,11,18.51,21.54,6.52,7.67,15.91,18.62,27.61,31.95a14.48,14.48,0,0,0,7.09,1.88c3.19,0,4.44-1.26,6.79-.58.91.27,1.81.76,5.06,4.63s3.69,5,6.37,8.1c2.49,2.93,3.77,4.41,5.63,5.49,3.33,1.92,5.06,1.06,7.81,2.17,3.64,1.46,5.41,5.43,8.82,13.3,3.82,8.83,6.09,14.27,3.61,18.07-1.41,2.17-3,1.78-4.33,4.48-1,2.14-.06,2.52-.44,9.4-.14,2.57-.39,4.65.87,5.64.5.39.91.36,1.88,1a9.05,9.05,0,0,1,2.17,2.17c1.26,1.92-.74,4.85-1.59,8.1-1.55,5.88,2.13,7.29,1.59,16.19-.19,3.08-.61,2.69-1,7.37-.63,7.34.27,10,.86,11.28a14.48,14.48,0,0,0,3.33,4.63q8.53,17.49,17.06,35L351,1535.4l25.16-46c3.1-5.68,3.08-9.69,2.31-12.43-1-3.44-2.73-3.55-3.61-7.38-.5-2.15,0-2.48,1.15-12.14.57-4.65.57-5.5,1.45-6.8,2.1-3.12,5.37-3.06,5.49-4.91s-3.45-2.49-5.35-6.36a11.63,11.63,0,0,1-1-4.92c-.25-6,1.65-8.94,3.76-17.78.77-3.23,1.53-7.1,3.18-12.72a21,21,0,0,1,2.17-5.21c1.83-3.08,3.45-3.87,4.77-5.49,3.33-4.08.14-7.69,1.74-16.63.59-3.31,1.74-9.31,6.5-13.45,1.65-1.43,3.32-2.16,6.65-3.61,5.79-2.53,9.63-4.2,14.32-3.9,1.7.1,1.09.32,13.44,4.33,4.66,1.52,5.86,1.85,7.66,1.59,4-.56,4.32-3.09,9-4.62a18.87,18.87,0,0,1,10.55-.15c4.57,1.23,4.43,3.12,8.68,4.05.8.18,7.45,1.55,11-2,2.28-2.31,1.09-4.48,3.19-5.93,2.29-1.59,4.5.46,11,1,3.78.32,7.63.65,11.43-1.3,2.41-1.24,2.59-2.25,5.92-3.9,2.2-1.09,4.17-2.07,6.65-2.17,5.19-.22,6.84,3.6,10.56,2.6,1.25-.34,2.52-1.62,5.06-4.19a62,62,0,0,0,4.91-5.79c3.79-4.76,5.68-7.14,6.22-7.51,3.89-2.7,9.41-2.77,13.45-1.31s3.6,3.29,9,6.22a34.67,34.67,0,0,0,10.7,3.62,36,36,0,0,0,14.17.29c3.89-.77,4.27-1.64,7.23-1.6s5.41.92,9.39,2.32a13.45,13.45,0,0,1,3.91,1.73c2.11,1.7,2.71,4.08,3.47,7.23,2.39,10,2.34,11.15,3.18,11.42,3.16,1,8.52-13.8,14-13,3.2.46,2.63,5.67,7.52,8,3.73,1.75,8.2.65,14.31-.86,4.26-1,5.82-2,9-1.59a12.22,12.22,0,0,1,6.79,3c4,3.83,2,8.31,5.79,11a7.33,7.33,0,0,0,6.5,1c2.79-1.07,2.51-3.75,6.22-9.25a76.66,76.66,0,0,1,6.51-7.52c4.62-5,5.79-5.73,7.22-6.07a10.88,10.88,0,0,1,6.8.87c3.27,1.47,3,3.21,5.49,3.9,3.62,1,7.47-1.8,9-2.89a40.64,40.64,0,0,0,4.91-4.77c3-3.18,3.37-4,4.34-4.05,2.55-.23,4.85,4.78,6.65,8.38.72,1.44,10.52,20.86,13.59,20.1,2.78-.69,2.42-18.51-.72-33.69-1.19-5.75-2.72-10.84-2.17-18.5.14-2,.23-1.47,1.88-12.73,1.57-10.75,1.47-11.07,2.17-12.86,2.5-6.42,5.46-6.5,6.94-12.44a24.77,24.77,0,0,0,.14-9.83c-.62-4.83-1.92-7.76-4.48-14-6.83-16.73-5.2-14.54-7.66-19.38-4.55-8.93-7.27-10.79-6.36-14.74,1.16-5.1,7-7.94,8.38-8.53,3.17-1.41,6-1.42,10.27-1.45,6,0,7,1.07,10,.58,5.57-.92,9-6,11.28-9.25,7.66-11.17,3-17.69,10.27-26,3.83-4.4,5.3-2.78,10.41-8.53,5.63-6.34,4.14-8.66,9.39-13.59,4.69-4.4,7.73-4.3,11-9.25,1.44-2.19,1.68-3.47,3-7.37,2.59-7.42,5.66-16,11.71-23.28,3.09-3.71,5-6,8.53-7.09,5.75-1.72,8.79,2.1,12.87,0,4.51-2.31,2.41-7.83,7.8-12.43,3.71-3.17,5.2-1,11.28-4.48,5.42-3.13,5.6-5.66,12.14-10a49.22,49.22,0,0,1,8-4.19,55.43,55.43,0,0,1,22.7-5.21c9.75,0,10,3.17,18.94,2.32,6.1-.58,8-2.22,13.59-2a27.5,27.5,0,0,1,13.73,4.05c8.84,5.68,6.51,12.84,15.62,18.36,2.56,1.56,5.17,2.46,9.1,5.64,2,1.65,3,2.73,5.21,3.91a22.61,22.61,0,0,0,7.52,2.16c2.91.51,6.08,1.54,12.43,3.62a60,60,0,0,1,21.83,12.29c5.27,4.78,3.89,5.57,8.68,9.25,5,3.82,7.58,3.85,16.91,8.82,6.31,3.36,9.46,5,11.14,6.8,5.15,5.41,6.66,12.73,8.24,20.38,1.17,5.71,1,8.29,3.32,12.43,1.44,2.57,2.48,3.32,6.51,7.67,9.72,10.49,8.72,11.57,12.29,13.44,3.12,1.65,7.38,1.77,15.9,2a134.66,134.66,0,0,0,14-.29c15.75-1.18,15.72-3.75,25.45-3.33,7.35.32,9.13,1.86,16.19,1.16a34.13,34.13,0,0,1,9-.29,27.24,27.24,0,0,1,9.11,2.89c14.64,19.51,22.65,22.57,27.32,21.11,4.87-1.52,8.15-8.6,13-7.52,1.89.42,1.84,1.58,5.21,4.2a33.48,33.48,0,0,0,12.29,5.78c5.26,1.43,5.21.15,11.42,1.44,7.36,1.54,7.58,3.37,13,3.91a28.56,28.56,0,0,0,12.87-1.88c6.68-2.49,6.68-5.18,11.85-7.09,7.12-2.62,14.21-.15,19.23,1.59,9.39,3.27,8.63,6.6,18.22,9.55a43.82,43.82,0,0,0,16.34,2.16c5-.34,6.63-1.42,10.7-1.15,2.63.17,6,1,13.3,5.35,10.61,6.32,9.62,8.37,16.34,11.56,7,3.35,13.63,3.74,19.08,4.05,3.48.2,7.76-.15,16.34-.87,8.81-.73,13.27-1.12,16-2.31,1.77-.76,9.36-4,12.72-11.42,1.3-2.88.34-2.79,2.46-12.72,2-9.16,3.09-10.72,4-11.71,3.73-3.85,8.83-3.25,9-5.21.17-2.36-7.25-3.34-7.66-7.37-.1-.94.37-2.5,1.3-5.64a20.48,20.48,0,0,1,.86-2.6,9.7,9.7,0,0,1,5.79-5.06c1.61-.44,2.11,0,8.67,1.3,4.69.9,5.18.79,5.64.58,1.89-.89,2.41-3.27,3.76-10.56,1.43-7.75,1.59-8.82,1.59-8.82,2.44-16.67,2.81-19.31,5.35-21.11,2.82-2,7-2,7.23-2,3.39,0,4.8,1.39,7.23.72.95-.26,2.58-1,5.06-4.91,5.13-8.16,3.47-13.6,7.8-16.2a9.13,9.13,0,0,1,5.35-1c5,.26,8.44,3.77,11.43,6.8,3.86,3.91,3,4.72,6.21,7.23a21,21,0,0,0,9.69,4.19,21.84,21.84,0,0,0,6.36-.15c3.55-.59,4.29-1.6,6.22-1.88,4.45-.64,8.53,3.61,12.14,7.38,6.9,7.18,5.8,10.5,11,13.16,3,1.55,3.12.25,10,2.6,5.4,1.85,6.93,3.19,9.54,2.46,3.55-1,5.4-4.85,5.64-5.35,1.19-2.58.31-3.52,1.15-5.5,1.66-3.86,6.26-3.14,11.86-6.5,6.49-3.9,4.66-7.47,10.55-10.56,2.59-1.35,3-.67,14.32-2.31a97.72,97.72,0,0,0,13.3-2.46,45.74,45.74,0,0,0,11.71-4.63c4.59-2.7,4.64-4,7.66-4.77,2.56-.63,5.5,0,11.28,1.45,7.18,1.73,8.62,2.73,10,1.73,3-2.23-.65-9.84,2.16-11.56,1.87-1.14,3.84,2,9,1.73.41,0,2.64-.64,7.08-1.88,4.82-1.34,5.34-1.5,6.22-2,3.32-2,3-3.87,5.06-4.48,4-1.16,7.34,5.07,10.26,3.9,2.41-1,.6-5.39,4.05-8.82,2.56-2.54,7.29-3.82,10.41-2.31,1.43.69,1.72,1.58,2.6,1.44,2-.29,1.4-4.86,4.49-9a14.9,14.9,0,0,1,7.51-5.06c5.17-1.43,9.23,1,10.13-.72.56-1.06-.34-3.31-1-4.49a6.89,6.89,0,0,0-.44-.68c-2.16-3-4.73-3.47-5-5s2-3.87,4.34-4.63c3.83-1.22,8.62,1.3,10.7,4.63,1.19,1.92,1.2,3.65,2.16,3.75s1.68-2,4.34-4.62c1.58-1.52,2.37-2.29,3.47-2.6,2.94-.85,7.16,2.6,15.47,9.54a18.66,18.66,0,0,0,4.48,3c3.18,1.46,4.26.68,5.64,2,1.93,1.87.44,4,2.75,6.5.83.93,1.22.87,2.75,2.46,1.35,1.42,2,2.13,2.31,3,.7,2.28-1.19,3.56-.43,5.2.47,1,1.48,1.15,4,2.17,4.22,1.67,4.38,2.47,6.08,2.89,3.61.91,5.49-2.07,10.84-4.33,8.76-3.72,12.19.66,17.35-3.33,4-3.06,3.32-6.7,7.52-8.1,2.7-.9,5.61-.27,7.52.15a23.24,23.24,0,0,1,6.21,2.46c5.09,2.81,4.59,4.54,6.94,5.06,3.84.84,8.09-3.13,16.34-10.85,3.29-3.07,3.28-3.39,4.48-3.9,5.46-2.29,9.08,2.88,16.63,1.88a19.08,19.08,0,0,0,9.83-4.77c1.23-1.05,5.3-4.51,6.65-10,1.81-7.3-3.34-9.67-2.89-20.09a23.94,23.94,0,0,1,2.89-11.28,23.43,23.43,0,0,1,8-8.24c1-.66,5.19-2.09,13.45-4.92,3.45-1.18,5.2-1.76,7.52-2.46,2.63-.78,2.8-.76,6.65-1.88,5.19-1.5,5.14-1.63,5.78-1.59,3.54.24,3.91,3.92,9.11,8.39a30.44,30.44,0,0,0,12.58,6.8c2.68.64,4.08.49,5.92,1.87,2.91,2.19,3.43,5.58,5.21,5.5.75,0,.78-.65,2.46-1.74,1.4-.9,2.83-1.82,4.19-1.59,2.45.43,3.94,4.5,4.63,6.37a11.11,11.11,0,0,0,1.44,3.32c.45.62,1.6,2.2,3.18,2.46,2.08.34,2.67-1.95,5.35-2.89,3.19-1.12,4.59,1.33,11.28,1.73,2.74.17,4.66.26,5.93-1,1.75-1.75.44-4.26,1.88-5.35s4.05.83,9.68,3,9.24,3.56,12.44,2.17c1.1-.49.7-.65,5.06-4.2,3.07-2.5,4.64-3.76,5.92-4,2.54-.56,4.94.82,8.39,3.33,11.42,8.32,12.42,13.09,19.52,15.18,1,.3,3.19.68,7.52,1.45,8.07,1.42,8.32,1,10.12,1.88,4,1.83,3.74,4.11,9,8.81,3.88,3.5,5.94,5.36,9,6.08,7.72,1.83,10.26-6.45,20.1-5.79,4.63.32,8.17,2.43,12.58.44a37.16,37.16,0,0,1,4.19-1.88c3.45-1.25,5.18-1.87,6.94-1.45,3.12.75,2.78,3.79,7.23,6.8a16.87,16.87,0,0,0,5.78,2.46c1.72.39,6.68,1.54,10.41-.73,4.16-2.52,2-6.37,6.8-11.71,1.27-1.42,3.93-3.16,9.25-6.65A71.11,71.11,0,0,1,2268.24,1063Z"/></g></g></svg>