<svg xmlns="http://www.w3.org/2000/svg" viewBox="0 0 1577.18 2493.14"><g id="Layer_2" data-name="Layer 2"><g id="Chad"><path d="M1576.1,635.41,379.65,0,230,72.82l-.93,10.63,27.87,150.27.15,82.52c1.41.26,11.09,2.14,13.09,6.16a20.28,20.28,0,0,1,1.54,3.7c.35,1.44.34,2.6,1.23,3.84a5.5,5.5,0,0,0,1.23,1.24l28,66.82A38.86,38.86,0,0,1,299,408.47c-1.49,3.13-3.23,6.31-3.23,6.31-2.39,4.37-3.19,5.27-2.93,6.93.22,1.36.88,1.45,2.62,5.23,1,2.15.69,1.93,1.23,2.93,1.24,2.28,3,3.7,6.62,6.46,1.15.89,2.16,1.62,2.93,2.16q8.93,16.93,17.86,33.87A21.16,21.16,0,0,1,337,476.52l40.49,21.71a31.3,31.3,0,0,0-6.31,8.62c-.28.57-.54,1.14-.77,1.69l-31.1,62.05q-.84,11-1.69,22L318.06,739.8l-2.77,8.08c.16,1.92.31,3.85.46,5.77q-.79,52.89-1.61,105.78-1.39,12.35-2.77,24.71l.69,134.18c-1.39,2.07-2.77,4.15-4.16,6.23l-1.38,44.57L155,1204.46,54.55,1342.79c.36,3.63.15,8.28-2.77,11.55-2.56,2.88-5.28,2.53-6.23,5.08-1.15,3.1,2.26,5.26,4.39,12.24,1.47,4.82,2.26,7.42,1.15,9.93-2.37,5.37-10.43,3.51-16.86,11.09a9.53,9.53,0,0,0-2.54,4.85c-.65,4.34,3,6.11,2.54,9-.6,3.87-7.92,6-19.86,9.46-8.86,2.54-12.22,2.85-13.86,6-.39.76-.92,2.15,0,10.39.5,4.47,1.12,8.18,1.62,10.86Q15,1495.91,27.76,1548.57l63.75,87.06L149,1637l12.24,22.86q.24,11.55.46,23.1l42.5,22.17q.57,13.27,1.15,26.56l9.47,10.62q-.92,16.86-1.85,33.72l23.79,21.25a40.33,40.33,0,0,0-2.54,12.24c-.23,4.88-.42,8.79,1.85,12.47,2.7,4.39,5.69,3.23,7.16,6.93,1.73,4.36-.76,10.29-2.54,14.54-1.24,3-2,3.86-1.85,5.78.31,3,2.68,4.28,5.08,7.62a27.38,27.38,0,0,1,3.93,9.47c1.4,6.89-1.17,13-4.16,20.09-2.78,6.59-3.46,6-4.62,10.39-1.45,5.51-1.31,10.58-1.15,15.94.12,4.5.19,6.75.69,9,2.07,9.32,7.22,11.32,6,16.62-.53,2.34-2.25,5.09-3.69,7.39-1.53,2.45-1.72,2.2-2.54,3.7-.45.81-3.43,6.41-1.62,11.78,1.17,3.46,3,2.86,4.39,6.46s.19,5.63.23,10.4c0,2.62.39,3.95,2.31,11.31,3.33,12.81,5,19.22,5.08,20.09.85,9.35-1.71,13.44,1.62,16.86,2.12,2.19,4.08,1.47,7.39,3.7,3.88,2.61,2.82,5,7.16,11.32,4.2,6.1,6.63,6.35,6.92,9.93s-1.95,5.26-.69,7.85c1.17,2.4,4.26,3.31,5.54,3.69,3.89,1.15,6.41-.16,7.63,1.39.78,1,.5,2.49.23,3.46l44.57,37.88c-.37,1.76-1.12,3.69-2.77,4.62-2.26,1.26-4.42-.34-8.55-.23-2.2.05-3.54.56-7.16,1.84-8.44,3-12.66,4.5-14.08,4.85-2.36.59-11.46,2.85-20.1-.92-5-2.18-5.79-4.62-11.31-5.77a25.21,25.21,0,0,0-9.7,0c-5.91,1.07-6.29,3.14-10.86,3.92-4,.69-4.58-.74-14.78-2.77-7.35-1.46-11.09-2.17-14.32-1.15-4.23,1.34-4.31,3.44-9.47,5.08a26,26,0,0,1-10.16.92c-5.48-.37-8.08-1.78-13.62-3.46-3.26-1-2.21-.46-19.4-3.7-13.77-2.59-14.22-2.89-17.55-3-6.24-.21-8.11.73-16.4,1.15a121.63,121.63,0,0,1-16.17-.23l-37.41,53.58,59.12,54.27-6,15,73.44,58.19a20.67,20.67,0,0,1,10.39,2.08,21.74,21.74,0,0,1,8.31,7.62c2.45,3.88,2,6.07,5.09,9a9.69,9.69,0,0,0,4.85,3c4,.82,6-2.33,9.46-1.15,1.7.57,2.76,1.84,3.93,3.23a14.77,14.77,0,0,1,2.77,5.08q5.66,6.46,11.32,12.94,20.33,51,40.64,102.07a11.25,11.25,0,0,0,4.39,6.93,14,14,0,0,0,5.31,1.85c3.13.49,4.73-.22,6,.92a4.47,4.47,0,0,1,1.15,3.47l-.69,25.17-12.7,12,33.95,1.85c4.36,7.38,8.14,9.1,10.85,9.23,2.42.13,3.29-1.05,9.93-2.54,1.71-.38,1.49-.26,7.85-1.38,9.36-1.64,10.13-1.94,11.09-2.54,2.78-1.74,2.17-2.91,6.47-7.16,3-2.93,4.75-4.7,7.39-5.77,5.28-2.15,7.23,1.26,14.55.23,1.47-.21.71-.25,12.47-4.62,5.82-2.17,6.7-2.41,8.77-3.47a32.21,32.21,0,0,0,9.24-6.23c4-4.07,6.16-9.25,7.62-12.7,1.83-4.32,2.53-7.43,4.39-7.63s2.91,2.82,5.08,2.54c1.06-.13,1.27-.9,3.93-3.92a42.36,42.36,0,0,1,4.62-4.62c2.17-1.83,3.26-2.75,3.92-2.54,2.34.73-.44,9.15,4.16,13.63,1.25,1.21,1.79.91,3.69,2.07,7.08,4.3,5.09,11.63,12.24,19.86,1.45,1.67,3.74,3.5,8.32,7.16,5.87,4.7,7.12,5,7.85,5.09,2.95.4,5.21-1.11,12.47-6.47,4.86-3.59,8.94-6.67,12-9l27-3,21.48-26.1c11.87-5.35,20.63-7.43,26.56-8.31a37,37,0,0,0,12.24-3.47c5.64-2.82,5.78-4.93,10.16-6.92,1.43-.66,4.09-1.64,18.71-.47,9.55.77,14.33,1.16,18.47,1.85,7.48,1.26,9.69,2.26,12.47.69,3.73-2.1,3.71-6.12,8.32-8.54a13,13,0,0,1,6.46-1.39l78.53-3.69,19.16-27.25a34.21,34.21,0,0,0,19.86-14.32c4-5.92,14.76-19,40.42-47.35q.69-3.69,1.39-7.39l-37-26.32c.47-2.16.93-4.31,1.39-6.47l23.1-14.32,29.79-4.16,87.29-4.15,14.55-4.85,18.71-8.09,56.12-3.23,11.32-7.39,6.46-17.55a29.29,29.29,0,0,0,10.86.46c2.35-.35,3.65-.57,4.85-1.62,2.62-2.29,1.16-5.42,3.23-8.31,1.66-2.31,4.18-2.54,9.24-3.69a125.41,125.41,0,0,0,14.78-4.39l20.55-23.79c3.14-4.75,3.76-8.6,3.7-11.32-.08-3.36-1.21-5.52.23-7.85,1-1.67,2.79-2.46,5.54-3.69s4.31-1.3,6.47-3a12.94,12.94,0,0,0,2.08-2.07q13.05-15.48,26.09-30.95a24.28,24.28,0,0,0,8.32,3.46c4,.84,6.68,1.63,8.54.23,3-2.23,0-6.94,3.24-10.85,2.73-3.35,6.17-1.47,8.54-4.85,2.06-2.93-.15-4.86,2.08-10.39a14.14,14.14,0,0,1,4.16-6,13.77,13.77,0,0,1,5.54-2.54c7-1.88,12.34-5.35,18.71-9.47,3.76-2.43,5.65-3.65,7.39-5.54,5.3-5.76,6.41-12.53,6.92-15.7a30.18,30.18,0,0,0-1.38-16.4,27.43,27.43,0,0,0-2.08-4.16v-21.94l8.31-1.61q.58-10.17,1.16-20.33c8.67-3.3,15.54-6.44,20.32-8.77,7.44-3.63,9.91-5.31,15.24-6.24,4.6-.8,5.49,0,14.79-.69,5.83-.43,9-.66,12.93-1.62,8.08-2,7.64-4.08,14.78-6,10.12-2.73,12.92,1,19.4-2.77,4.19-2.45,4.55-4.91,9-6.24,1.69-.5,4.11-.88,10.62.46,5.81,1.2,7.76,2.31,19.17,6.24,12.37,4.26,9.82,2.88,12.7,4.15,3.4,1.52,5.52,2.81,8.78,2.54.64-.05,5-.41,6.92-3.46,1.36-2.13.2-3.46,1.16-6.93.91-3.3,2.56-4.23,4.16-6.93,2.81-4.75.3-6.28,2.3-12,2.28-6.49,5.91-6.62,6.24-11.54.12-1.8-.37-1.75-2.54-9-1.79-6-2.69-9-2.77-10.85-.17-3.91.73-6.35-.69-10.4-.77-2.16-1.48-2.75-2.08-3-1.73-.71-3.18,1.07-6.24,1.16a10.34,10.34,0,0,1-4.16-.93c-3.51-1.28-7.49-2.72-12-4.39L1362.4,1859v-26.1a79.11,79.11,0,0,0,6.7-37.41l-18.48-.23c3.11-9.13,2.3-15.47.93-19.63-.84-2.53-1.06-1.75-5.78-10.86a160.67,160.67,0,0,1-7.39-16.16c-2.58-6.66-2.74-8.58-2.77-9.7a24,24,0,0,1,2.77-11.32c2-4.08,3-3.84,5.54-8.31,2.39-4.3,4.78-8.59,3.47-12.24-.94-2.63-3.1-3-10.39-6.93-7.48-4-6.39-4.3-14.32-8.55-8.64-4.63-13-6.91-15.48-5.54-3.8,2.11-1.09,8.53-5.77,12.24-2,1.6-3,.83-11.78,1.85-9.9,1.16-11.4,2.48-15.93,1.38a22.88,22.88,0,0,1-7.86-3.69c-1.4-1-2.63-2.09-7.39-7.85-4.26-5.17-6.39-7.78-6.69-9-.86-3.52.7-5.92,4.15-13.63,3.91-8.71,1.71-5.17,6.24-15.24,6.35-14.1,9.52-21.15,12.93-22.86,4-2,5.79-.42,16.4-3.93,4.73-1.56,6.21-2.49,7.39-3.46,3.52-2.91,3.31-5.39,6.93-10.86,3.38-5.1,4.32-4.07,7.62-9,2.63-3.94,5.6-8.38,5.08-13.4-.44-4.24-3-4.9-6.7-11.08-4.43-7.35-2.55-9.19-6.46-17.33-4.63-9.59-7.77-8.11-11.32-16.62-1.49-3.57-5.13-12.33-1.39-19.86,1.74-3.5,4.66-5.91,7.86-8.55a48.16,48.16,0,0,1,8.77-5.77c17-8.88,18-16,34.64-23.56,6.58-3,11.67-4.23,13.86-9.24,1.6-3.64.91-7.57.46-10.16-.36-2.1-1.38-7.95-6-12.24-3.86-3.59-6.55-2.66-7.85-5.54-1.42-3.13,1.38-5,2.31-11.55.35-2.51,1.34-9.49-2.31-14.55-3.08-4.25-6.62-3.25-8.09-6.93-1.59-4,.93-9.32,4.16-12.24,2.78-2.51,4.46-1.76,11.09-4.15,8-2.88,7.39-4.64,14.54-7.16,8.89-3.14,11.82-1.16,13.86-4.16s-.23-6,0-16.63c.08-3.59,0-5.41.46-6.7,2-5.4,6.7-5,9-10.39,1.5-3.5.08-5,2.08-9a17.18,17.18,0,0,1,4.16-5.31l28.17-29.79c6.59-23.85,3.38-31,1.39-33.49-.34-.41-2-2.41-3.7-4.38-6.38-7.49-7.93-7.56-8.31-9.47-.86-4.32,6-6.14,15-16.17,8.09-9,9.89-15.7,16.63-16.63.31,0,2.44,0,6.69,0,7.81.06,9.66.25,11.09.46,4.35.66,4.41,1.47,7.85,2.08,5,.88,6.47-.54,16.63-2.08,6.13-.92,5.57-.4,14.09-1.61a110.3,110.3,0,0,0,11.78-2.08c5.68-1.4,5.69-2,8.77-2.31s4.9.18,12,1.39c0,0,4.52.76,10.39,1.61a155.9,155.9,0,0,0,18,1.85,118.69,118.69,0,0,0,12.47-.23l2.54-.69Z"/></g></g></svg>