<svg xmlns="http://www.w3.org/2000/svg" viewBox="0 0 608.75 3502.16"><g id="Layer_2" data-name="Layer 2"><g id="Chile"><path d="M140,2013.22c-4.05,3.28-4.16,6.94-7.15,7.4-1.67.25-2.05-.82-4.94-1a11.87,11.87,0,0,0-5.67,1c-5.69,3-1.74,14.09-7.89,18.24-2.45,1.66-4.46.82-5.91,3-1.69,2.48-.49,5.85.24,8.38a57.37,57.37,0,0,1,1.48,24.17c-1.51,8.69-5.14,8.54-4.68,15,.43,6.15,3.83,8.24,3.2,14.54-.26,2.62-.9,2.78-3.45,9.12-2.4,6-2.37,7.17-5.92,17.76-3.46,10.33-5.48,10.82-4.68,13.31,2.13,6.63,16.45,10.66,24.41,5.67,3-1.9,5.93-5.61,7.64-9.12,2.19-4.5,1.68-7.16,4.19-8.63,2.79-1.63,5.09.66,8.88-1,1.63-.7,4.4-2.51,4.93-4.93,1.57-7.11-17.14-15.32-15.53-19.23.71-1.74,5-1.5,5.42-1.48,6.36.35,9.69,6.19,11.34,5.18,1.18-.72.44-4.29-.49-6.66-.85-2.17-2.17-4.07-8.63-10.11-5-4.7-5.12-4.37-5.92-5.67-2.66-4.34-2.39-9.23-2.22-12.57.2-3.69.31-5.65,1.48-7.89,2.82-5.37,9.17-7.39,13.07-8.63,6.62-2.11,9.81-1.1,11.34-3.7,1.3-2.21.27-5.12-1-8.63-1.88-5.26-3.6-5.59-5.43-9.86-2.53-5.93-2-11.8-1.72-14.79.63-7,3-10.37,1.48-11.59S142.39,2011.3,140,2013.22Z"/><path d="M217.43,2054.39c3.38,3.48,5.58,9.78,3,12.83a5.51,5.51,0,0,1-4.44,1.72c-3.41-.22-5.48-3.73-7.64-7.4-2.33-3.95-5.09-8.63-3.45-10.6C206.68,2048.76,213.52,2050.38,217.43,2054.39Z"/><path d="M545.6,3428.44c7.83-4.36,13-1.47,40.68,2,10.85,1.35,13.91,1.39,17,4.44,5.94,5.83,6,16.71,2.22,24.16-2.71,5.42-8.42,11.07-11.84,9.86s-1.39-8.84-7.39-13.56c-.56-.44-4.11-3.15-8.14-2.46-3,.51-3.19,2.37-6.16,3.7-3.5,1.56-5.66.08-15.78-1.73-8.47-1.52-8.49-.76-10.85-2-4.42-2.28-9.37-7.55-8.88-13.32C537,3433.22,543.8,3429.44,545.6,3428.44Z"/><path d="M529.57,3484.9c7.3,2.34,14.23,9.22,12.82,13.56-.69,2.12-3.42,3.82-5.92,3.7-4.5-.23-4.57-6.21-10.6-9.86-6.76-4.1-12.38,0-16.27-4.44-2.54-2.88-2.93-7.77-1.23-9.12,2-1.63,6.16,2.61,18,5.42C528.56,3484.68,528.47,3484.55,529.57,3484.9Z"/><path d="M519.22,3467.64c2-2.19,1.17-7.67-1.73-10.11-3.14-2.64-6,.55-19.48,1.23-1.81.1-3.79.14-5.67,1.48-2.37,1.7-3.22,4.49-4.19,7.65-.18.58-1.48,4.84-.74,5.18s2.65-5.55,7.4-7.16c2.24-.75,3.63,0,8.13,1C511,3468.72,517,3470.08,519.22,3467.64Z"/><path d="M505.66,3443.23c-6.16,3.49-9.33,5.24-12.09,3.95-.62-.3-1.65-1.51-3.69-3.95-2.81-3.33-4.21-5-3.95-5.92.52-1.78,4-.76,8.63-3.2,4.14-2.17,3.76-4.21,7.64-5.92,1.05-.46,6.4-2.81,9.87,0a7.79,7.79,0,0,1,2.21,7.89C513.54,3438.71,510.9,3440.25,505.66,3443.23Z"/><path d="M459.55,3442c6.14,1.47,6.09,4.91,17,10.11,3.93,1.87,6,2.39,5.92,3.45-.09,2-7.62,4.77-12.82,2.22-3.18-1.56-2.74-3.77-5.67-4.69-3.24-1-4.74,1.39-11.1,2-3.17.29-5.48.47-7.39-1-2.14-1.63-3.34-5-2.47-7.4C444.6,3442.31,453.05,3440.45,459.55,3442Z"/><path d="M416.65,3448.66c3.48-3.62,10.57-1.57,11.09.49.33,1.26-1.95,1.9-2.95,5.18-.84,2.73.22,4-.74,4.93-1.57,1.48-6.85.45-8.63-3.21A6.73,6.73,0,0,1,416.65,3448.66Z"/><path d="M423.31,3427.45a38.83,38.83,0,0,1,5.42-2.46c1.08-.26,6.75-1.46,11.59,2.22,1.06.81,5.09,3.87,4.44,6.65-1.05,4.44-13.53,6.31-22.93,3-.91-.32-6.28-2.23-6.17-4.44C415.69,3431.86,416,3431,423.31,3427.45Z"/><path d="M477.05,3409.21c2.9,1.74,10,6,10.11,10.85,0,2.46-1.75,4.73-3.45,5.91-4.79,3.35-12.15.36-18.49-2.22-7.4-3-7-4.59-14.05-6.9-5.12-1.68-6.75-1.32-9.87-3.45-3.66-2.52-7.76-7.39-6.41-10.85.81-2.06,3.27-2.89,4.2-3.2,5.42-1.84,8.46,2.56,12.57.74,2-.9,1.43-2,6.16-6.66.79-.78,1.47-1.39,4.2-3.7,9.42-8,10.67-8.57,12.32-11.34a15.09,15.09,0,0,0,2.47-7.4c0-1,.06-4.88-3.45-9.86-7.78-11-25.36-16.67-28.85-17.75-16.91-5.26-21.31-2.18-26.87-8.14-5-5.38-2.52-9-9.87-17.75-3.59-4.26-6.46-6.08-8.63-11.34a19.21,19.21,0,0,1-1.72-10.36c1.17-7.86,8.23-12.49,9.86-13.56,7.05-4.63,11.38-2.43,19.72-7.39,3.23-1.92,2.26-2.09,8.14-6.66,11.05-8.6,13.83-7.85,16.77-12.33,3.58-5.47,4.52-14.37.24-20-4.14-5.42-11.6-5.7-17.26-5.92-7.61-.29-14,1.78-21.45,4.19-7.83,2.54-9,3.9-13.8,4.2-3.09.19-9.53.59-15.29-3.7-5-3.75-8.53-10.34-7.89-16.77.48-4.83,3.14-8,8.14-13.81,8-9.38,13.61-10.94,14.3-17.25a14.61,14.61,0,0,0-1.48-7.65c-2.52-4.65-6.56-4.6-8.63-9.12-1.42-3.1-1.49-7.4,0-8.14,3-1.47,9.11,12.8,19.72,12.83a14.43,14.43,0,0,0,5.43-1.24,27.17,27.17,0,0,0,15.53-15.78c3.56-9.64-1.22-15.14,3.21-19.23a10.47,10.47,0,0,1,11.58-1.23c3.55,2.16,5.05,7.57,6.17,11.59.87,3.15.86,4.77,2.46,6.16.54.47,2.23,1.74,7.15,1.48a31.1,31.1,0,0,0,10.11-2.47c12.06-4.63,13.52-6.21,17-5.42a14.45,14.45,0,0,1,6.91,4.19,13.8,13.8,0,0,1,2.71,4.69q.12,125,.25,250c-2.65,3.31-4.24,3.68-5.18,3.45-1.51-.35-1.54-2.25-3.7-4.68a12.25,12.25,0,0,0-6.41-3.95c-4.25-.78-9.15,1.75-9.12,3.7C472.63,3407.09,474.17,3407.47,477.05,3409.21Z"/><path d="M439.83,3362.12c5.21-1,12.05,3.92,13.8,10.1.49,1.73,1.17,4.1,0,6.17-2.33,4.13-9,1.65-13.31,6.41-2.76,3-1,5-3.45,6.9-4.53,3.46-11.37-2.52-17,1.24a32,32,0,0,0-3.69,4.19c-4.72,5.71-5.12,7.56-6.66,7.64-3.56.19-6-9.36-8.14-8.88-1.4.32-.37,4.41-3,8.14-2.95,4.27-9.19,6-10.6,4.44s2.62-5.52,1.48-12.08c-.45-2.59-1.27-3.09-1.48-3.21-2.28-1.25-7.56,1.91-9.61,6.41-1.45,3.15-.29,4.73-1.73,6.17-3.27,3.26-13.59-.55-13.56-3.21,0-2.94,12.74-4.66,12.82-8.88a23.32,23.32,0,0,1,0-4.93c.18-1.4.34-1.4.25-1.72-.82-2.74-11.69,1.05-16.27-3.45-3.49-3.43-2.91-11.21,0-12.82,2-1.14,3.8,1.58,10.84,4.43,9,3.67,15.35,2.92,16.77,6.91.57,1.61-.13,2.69,1,4.19,1.44,1.95,4.82,3.1,6.65,1.72s1.25-5.11.25-7.15c-.85-1.71-1.82-2.1-4.93-4.68-2.26-1.87-1.08-1.11-6.66-6.16-5-4.52-5.56-4.79-6.66-6.41-.61-.91-4-5.89-2.46-7.89,2-2.58,12.43-.72,16,5.17,1,1.68,1.33,3.42,3.46,5.43,1.76,1.66,4.6,3.34,5.91,2.46s.13-3.65,1.48-4.44c1-.56,2.58.3,3.45,1,2.44,1.92,1.43,4.14,3.21,7.4,2.53,4.62,6.92,4.44,7.4,8.13.27,2.11-1,3-.25,4.2,0,0,.76,1.13,7.64,1.23a53,53,0,0,1,.74-10.85c.39-2.19.61-2.56.5-3.7-.37-3.61-3-4.34-4.94-9.12a20.1,20.1,0,0,1-1.23-5.18c-.37-3-.64-5.18.25-5.67,1.64-.9,7.72,3.81,10.85,10.11,1,2,1.33,3.47,2.71,3.94C434.2,3366.68,435.87,3362.84,439.83,3362.12Z"/><path d="M398.4,3345.84c1.51-.53,3.7,1.44,4.69,3.21.21.38,2,3.58.25,5.67a4.4,4.4,0,0,1-5.43.74C395,3353.49,396.11,3346.66,398.4,3345.84Z"/><path d="M345.15,3356.2c1.64-1.94,6-2,8.38,0,3.51,3,2.45,10.4-.49,13.56a15.39,15.39,0,0,0-2,2.22,10.6,10.6,0,0,0-2.22,5.42,9,9,0,0,0,2.71,7.15c1.46,1.31,2.45,1.07,4.93,3.21,1.41,1.21,1.84,1.94,2,2.71a4.34,4.34,0,0,1-1,3.2c-2.39,3.12-9.05,3.66-12.58.74-2.31-1.91-1.12-3.52-3.2-5.42-3.63-3.31-8.48.47-15.29-2.47-.51-.21-5.87-2.59-5.67-5.42.16-2.23,3.71-3.85,5.92-4.44,4.64-1.23,6.57,1.23,10.11-.24,2.94-1.24,4.39-4.11,5.17-5.67,2-4,2.39-9.59,2.47-10.85C344.54,3357.88,344.44,3357,345.15,3356.2Z"/><path d="M311.62,3366.31c3.38-4.59,14.27-1.76,15,1.48.49,2.1-3.19,4.64-4.69,5.67-2,1.41-6,4.13-8.87,2.46S309.62,3369,311.62,3366.31Z"/><path d="M324.93,3335.24c1.32-.09,2.51,1.31,3,2.47a4.78,4.78,0,0,1-1.48,5.17c-1.54,1.34-4.17,1.85-5.18.74s0-3.4.74-4.93S323.51,3335.34,324.93,3335.24Z"/><path d="M309.4,3318c3.77,2,4.85,8,3.94,12.33-.34,1.64-.9,4.31-2.46,4.68-2.83.69-5.11-7.06-10.11-7.15-2.19,0-4.1,1.41-5.18,2.22-2.53,1.91-2.39,3.42-4.19,4.93-3.47,2.92-10.27,2.61-11.59,0-1-1.91.81-5.5,3.45-7.15,3.93-2.44,8.29.32,9.62-1.72.91-1.39-.31-3.93-1.73-6.9-1.61-3.39-2.89-4.23-2.46-5.43.57-1.62,3.75-2.53,6.41-2,3.77.79,3.85,4,8.13,5.42C306.4,3318.29,307.18,3316.81,309.4,3318Z"/><path d="M265.51,3302.45c-1.58,1-1.09,2.67-3.2,4.19-2.5,1.8-4.6.45-5.92,2-1.54,1.78-.42,5.59,1.23,7.89,2.45,3.42,7.06,4.94,7.89,3.95,1-1.17-3.28-5.93-2.71-6.41s4,3.5,10.11,6.65c2.58,1.33,3.89,2,4.93,1.48,2.77-1.34,3.11-9.76-1-15C273.86,3303.28,268.24,3300.78,265.51,3302.45Z"/><path d="M267.48,3325.87c1.2.75,1.17,1.75,2.47,4.19s1.89,2.54,1.73,3.21c-.44,1.8-5.71,3.47-8.14,1.23-2.6-2.39-.94-8.35,1.48-9.12A3.26,3.26,0,0,1,267.48,3325.87Z"/><path d="M361.67,3273.36a6.48,6.48,0,0,0-3.7,3c-.09.16-1.75,3.33,0,5.67a4.19,4.19,0,0,0,3.45,1.72c3.89-.31,6.84-8.35,4.93-10.35C365.17,3272.12,362.14,3273.19,361.67,3273.36Z"/><path d="M359.2,3295.79c1.76.79,1.47,1,10.85,9.87,3.41,3.2,4.82,4.47,4.44,5.42-.54,1.34-4.53,1.71-7.64.25-4.89-2.3-5.47-8.13-7.65-7.89-1.4.15-2.76,2.76-2.71,5.17.08,4.27,4.48,5.23,8.38,11.84.91,1.53,4.48,7.57,2.47,10.11-1.89,2.39-7.18-.25-9.37,2.71-.89,1.2-.23,1.93-1.48,4.68-.68,1.52-1.46,3.23-3,4.19-3.64,2.34-9.76-.91-9.61-2,.09-.67,2.72-.12,4.93-2.22a8.73,8.73,0,0,0,1.72-2.46,9.37,9.37,0,0,0,1.24-3.95c0-2.84-3.18-3.57-5.43-7.15-1.16-1.85-1.43-3.69-2-7.39-.64-4.36,0-5.09,0-13.32,0-5.41-.3-6.08.49-7.15C347.33,3293.26,354.4,3293.65,359.2,3295.79Z"/><path d="M206.83,3266.21c1.19.18,7.25,1.1,8.38,4.68.67,2.1-.89,3.43,0,4.69,1.24,1.72,4.5-.41,7.65,1,3.9,1.73,6.16,8.21,4.68,12.82-1.12,3.51-3.51,3.14-4.93,7.15-1.62,4.56.68,7.28-1.23,9.13s-6.71,1.24-8.14-1c-1.07-1.67.55-3,0-6.66-.3-2-1.1-3.47-2.71-6.41a56.2,56.2,0,0,0-3.94-6.16c-4.59-6.27-6-6.18-7.4-9.62-.54-1.34-2.37-5.87-.25-8.38C200.76,3265.29,204.45,3265.85,206.83,3266.21Z"/><path d="M178.48,3255.11c1.49-1.61,6.4-.57,7.89,2.47.73,1.5.81,3.84-.5,4.93-1.62,1.35-4.61.16-6.16-1.48S177.33,3256.36,178.48,3255.11Z"/><path d="M163.19,3225.28c3.42.58,6.81,3.29,6.41,5.18-.24,1.13-1.77,1.66-2,1.72-4,1.32-9.87-4.28-9.12-6.16C159,3224.87,161.88,3225.06,163.19,3225.28Z"/><path d="M185.87,3179.42c.82,3.88,3.56,4.51,3.7,8.88a7.05,7.05,0,0,1-1.23,4.68c-1.67,2.19-5,3.26-6.16,2.22-1-.85.24-2.48,0-7.4-.12-2.46-.48-3.31-1-3.94-.91-1.14-1.88-1.05-3.7-2a10.8,10.8,0,0,1-4.68-4.2c-1.2-2.3-.75-4.74-.25-7.39s.94-2.55,1.73-5.43c1.16-4.27.38-5.14,1.48-9.86.84-3.62,1.31-5.51,2.95-6.66.74-.51,2-1.1,7.15-.24a42.53,42.53,0,0,1,15.54,5.67c3.22,2,4.83,3,4.93,4.44.21,3.11-5.56,7.16-9.86,6.16-3.82-.89-5.15-5.45-6.66-4.93-1.16.4-.58,3.13-1.23,7.89C187.55,3175,185.06,3175.53,185.87,3179.42Z"/><path d="M186.86,3215.17c-2.58,1.09-4.83,4-4.44,6.66s3.34,2.68,11.59,8.63c4.57,3.29,6.86,4.93,7.15,5.17,2.4,1.95,3.74,3.26,6.17,3.7a6.77,6.77,0,0,0,4.93-.74c1.51-1,1.56-2.37,2.46-3.94,2.6-4.54,7.82-3.28,8.88-6.17,1.65-4.52-9.12-13.3-9.12-13.31h0s-3.78,1.79-4.2,4.19c-.35,2,1.92,3,1.48,5.43a3.14,3.14,0,0,1-1.23,2.21c-2.86,1.62-10.05-5.4-11.83-7.15s-2.32-2.53-3.95-3.45C193.35,3215.61,190.12,3213.79,186.86,3215.17Z"/><path d="M212.75,3204.07c4.63,2.09,4.79,4.33,8.14,6.17,5.54,3,13.75,1.66,14.79-1.23.73-2-1.89-5.33-4.69-6.66-2.38-1.14-5-.91-9.86-.49-3.54.3-5.5.81-5.92,0s.75-2.17,1.73-3a7.45,7.45,0,0,1,4.44-1.48c8.05-.41,9.69-4.23,14.55-2.71.26.08,2.48,1.45,6.9,4.19a51.09,51.09,0,0,0,4.44,2.71c4.45,1.69,10.52-.07,14-3.7,2.9-3,1.52-4.59,4.19-8.63,1.26-1.9,2.86-3.5,14.06-9.61,9-4.93,11.55-5.83,13.8-9.37.37-.58,3.88-6.21,1.73-9.37-.59-.86-1.92-2-9.86-2-7.63,0-10.7,1.12-17.51,1.47s-6.07-.62-11.83-.24c-7.14.46-15.8,1-19.24,6.41-3,4.67.6,8.86-2.71,12.08-2.75,2.68-7.75,2.23-13.31,1.73-6.39-.58-7.61-2.13-10.85-1a10.65,10.65,0,0,0-6.9,7.89c-.15,1,.31,2.79,1.23,6.41,1.62,6.39,2.41,7.35,3,7.89C208.65,3203.16,209.73,3202.72,212.75,3204.07Z"/><path d="M205.11,3131.1c1.62.36,3.76,1.6,3.69,3-.07,1.55-3,3.07-5.42,2.47-2-.5-3.87-2.53-3.45-3.95S203.16,3130.66,205.11,3131.1Z"/><path d="M127.93,3101c3.53.52,7.2,3.66,6.66,6.41-.48,2.48-4.26,3.9-7.15,3.69-3.87-.28-7.89-3.62-7.39-6.41C120.5,3102.17,124.64,3100.52,127.93,3101Z"/><path d="M134.1,3133.56c2.77-.27,5.18,2,4.93,2.71-.4,1.2-8,.37-8.14-1C130.81,3134.6,132.6,3133.71,134.1,3133.56Z"/><path d="M151.6,3100.28c1.48,5.54.33,6.72,1.24,11.34.78,4,1.66,3.18,5.67,12.08,4.38,9.71,4.59,13.48,3,15.78a7.91,7.91,0,0,1-.76.86c-3.42,3.47-7.36,2.48-8.12,4.32-.55,1.31.71,3.68,2.47,4.43,3.86,1.67,11.83-3.76,13.31-10.35,1-4.37-1.57-6.2,0-9.62,2.11-4.61,9.32-6.85,11.34-4.93,2.24,2.13-2.07,9.19-.49,10.11.44.26,1.27,0,5.18-3.45,5.49-4.85,6.43-6.62,9.61-8.63s3.62-1.13,7.15-3a26.53,26.53,0,0,0,10.85-10.6c3.76-7.3,3.44-17.46.25-18.74-2.61-1.05-8.17,3.4-9.62,8.63s1.81,8.56-.25,10.85c-2.21,2.46-8,.77-10.6,0-5.74-1.69-6.11-3.88-12.08-5.67-3.45-1-4.23-.58-9.12-1.48a57.29,57.29,0,0,1-12.58-3.7c-3.54-1.48-5.74-2.83-6.65-2C150.67,3097.23,151.18,3098.69,151.6,3100.28Z"/><path d="M157.27,3044.55c4.57,4,1.54,11,5.18,21.7.94,2.77,2,4.77,2.22,8.38.21,3.23-.21,7.82-1.72,8.14-1.26.27-2.37-2.61-6.17-7.89-4.12-5.72-4.63-4.85-6.41-7.89-3.3-5.64-4.46-13.63-1.23-19.23.46-.81,2.6-4.5,5.42-4.44A4.22,4.22,0,0,1,157.27,3044.55Z"/><path d="M175.27,3041.84c2.26-.44,8.31,8.61,5.18,13.81-1.31,2.17-4.28,3.79-5.92,3-1.86-1-1.55-4.87-1.23-8.88C173.61,3045.9,173.91,3042.11,175.27,3041.84Z"/><path d="M181.93,3072.42c4.57-1.49,10.45.13,10.85,2.46.31,1.85-2.81,4.21-5.67,4.93-4.52,1.14-9.8-1.47-9.86-3.7C177.19,3074.35,180.39,3072.91,181.93,3072.42Z"/><path d="M181.44,3035.68c-.13,2.5,3.89,3.75,11.83,8.38s9.57,6.66,13.56,6.41c2.29-.14,5.76-1.07,6.41-3.2.19-.61.28-1.76-4.68-7.65-3.32-3.93-5-5.94-7.65-7.64-2.23-1.45-4.09-2.66-6.9-3a13.77,13.77,0,0,0-10.11,3.45C182.33,3033.85,181.49,3034.57,181.44,3035.68Z"/><path d="M127.93,3008.8c1.6-.79,5.57,3.5,7.89,7.4,2.14,3.58,5.16,10.65,2.72,12.82-1.47,1.31-4.77.72-6.41-1-1.26-1.31-.69-2.38-1.48-5.68-1.21-5-3.4-6.06-3.45-10.35C127.18,3010.67,127.16,3009.19,127.93,3008.8Z"/><path d="M115.61,2987.85c2.15-.21,5.66,4,4.19,6.9-1.22,2.42-5.38,3-6.91,1.48C110.84,2994.22,113.16,2988.09,115.61,2987.85Z"/><path d="M156.53,3032.23s1.5-.47,8.39-2c7.39-1.61,11.78,2.74,13.8.5,1.36-1.5.64-4.79-.73-6.91-3.48-5.33-11.62-3.79-12.33-6.41-.84-3,5.7-10.08,12.82-10.1,7.43,0,8.05,7.62,19,10.35,5.81,1.45,8.81.09,12.82,3.21,2.41,1.86,3.93,4.37,5.92,7.64,2.57,4.23,2.46,5.36,4.19,8.38,4,7,7.45,5.81,10.85,11.59,2.82,4.78,4.35,12.16,1.23,16.52-.81,1.13-1.44,1.38-8.38,4.93-9.35,4.79-10.13,5.33-10.35,6.41-.62,2.9,3.83,4.64,10.84,13.31,3.81,4.7,5.71,7.11,5.67,10.11,0,4.55-3.91,5-6.65,11.34-2.07,4.77-1.71,9.18-1,18,.48,5.84.84,9.66,3,10.36,1.89.62,4.8-1.36,6.16-3.7,1-1.66.34-2.38,1-3.21,2.19-2.79,10.22,3.33,21.45,3.7,6.16.21,6.46-1.55,15.29-1.48a47.28,47.28,0,0,1,12.08,1.24,42.54,42.54,0,0,1,19.23,11.34c5.36,5.26,3.83,6.23,10.85,14.05s9.57,7.89,11.34,12.33c3,7.65-1,15.94-2.71,19.48-5,10.32-14.06,16.17-21.45,20.95-10.44,6.76-12.87,5.4-15,9.62-3.95,7.67,3.06,14.2-1.24,26.63-1.77,5.14-4.1,7.29-5.67,8.38-3.34,2.33-6.91,2.4-10.11,2.47-4.26.08-11.82-.73-12.32-3.46-.15-.8.34-1.69,4.68-5.42,6.52-5.61,7.14-5.09,8.88-7.15,4.17-4.93,4.46-12.36,2.46-17.51-.21-.55-2.24-5.79-4.68-5.67s-5,5.51-4.69,10.36c.24,3.89,2.19,5.22,1.24,7.15-.65,1.31-2.12,1.81-9.13,3-10.42,1.7-11.33,1.27-11.58.74-.68-1.4,2.53-4.54,4.19-6.17,2.65-2.59,3.85-2.72,4.44-4.43a6.57,6.57,0,0,0-2-6.66c-3.62-3.08-9.86.11-11.09.74s-7,3.6-7.89,9.37c-1.19,8,8.31,14.19,8.87,14.54,2.53,1.61,3.39,1.27,5.92,3.21,3.49,2.68,3.66,4.71,6.66,8.63,2,2.55,6.43,8.39,13.31,10.35,3.9,1.11,5.1,0,7.65,1.73,3.41,2.32,2.83,5.4,6.16,7.64,1.59,1.07,2.42.84,8.38,1.48,7.63.82,11.44,1.23,13.56,2.47,4.34,2.54,3.62,5.37,7.89,7.15.22.09,5.25,2.1,9.86-.25,2.41-1.22,4-3.27,6.66-9.61,3.08-7.34,5.2-12.41,6.17-20.47.23-2,.49-4.93-.25-18.49-1-18.44-1.67-16.17-1.48-21.45.38-10.87,3.15-20.36,5.92-29.83a119,119,0,0,0,3.2-11.59c1.67-8.25.88-10.68,2.71-15.53a28.5,28.5,0,0,1,8.39-11.59c5.73-4.79,9-3.39,22.93-8.14,7.82-2.67,12.56-4.28,18.73-7.64,7.36-4,10.76-7.23,16.52-6.91a38,38,0,0,0,7.89,0c2.71-.31,4.88-.58,6.91-2,2.28-1.56,2.8-3.44,4.43-6.41,2.06-3.72,2.76-3.51,7.15-9.37,6.07-8.07,9.1-12.11,8.14-14.3-1.59-3.63-9.34-.45-16.52-6.16-3.34-2.66-2-3.66-5.92-7.64-1.06-1.1-8.95-9-20.71-9.13a27.32,27.32,0,0,0-8.38,1.24l-125.74.24a120,120,0,0,1-6.16-10.35c-2.59-4.87-2.55-5.59-4.94-10.11-2.83-5.36-5.08-9.63-9.12-14.06a90.81,90.81,0,0,0-8.87-8.13c-2.78-2.33-5.09-4.06-7.4-7.4-1.46-2.1-2.54-3.7-2.71-5.92-.29-3.63,2.8-5.09,4.43-8.87,1.76-4-.21-5.59-.49-13.07-.44-12,4.28-16.37.74-22.19-1.59-2.62-2.75-2.05-4.19-4.93-2.62-5.24-1.92-13.45,2.47-15.53,2.46-1.17,4.48,1.36,5.91.24,2.49-1.92-3.94-8.8-2.46-18.49.57-3.74,2.06-6.16,2-11.83-.07-4.63-1.1-5.72-1.73-6.17-2-1.43-5.29-.1-8.63,1.24-5.18,2.08-5,3.53-7.39,3.7-5.14.35-7.2-6.14-11.59-5.43-1.88.3-3.31,2.18-6.16,5.92-4.29,5.62-3.24,6.7-5.92,9.12-2.95,2.66-6.45,3.36-13.07,4.69-3.25.65-4.88,1-6.16.74-3.58-.66-4.83-3-11.59-8.88-3.19-2.75-4.78-4.13-6.16-4.69-5-2-12.26-1.13-14.55,2.72-1.81,3,1.32,4.91.49,13.06a30.26,30.26,0,0,1-2.22,8.63c-1.1,2.83-1.68,4.27-3,5.18-1.65,1.19-4.16,1.14-9.12,1-4.2-.13-5.46-.49-6.41.49s-.82,2.85-.49,5.42c.36,2.82.62,4.88,2.22,5.92s3.84.49,5.67,0a20,20,0,0,0,3.94-1.72,12.88,12.88,0,0,1,10.36,0c3.14,1.6,4.17,4.75,5.92,10.1,1.12,3.47,3.14,9.65.74,15.29a23.76,23.76,0,0,1-2,3.7c-2.3,3.35-4.43,4.13-4.44,6.16a4.64,4.64,0,0,0,1.48,3c2.1,2.43,4.31,1.85,6.17,3.45,2.77,2.39,2.18,7.36,2,9.13-.75,6.37-4.9,9-3.45,11.34,1,1.63,4,2,5.42,2A8.76,8.76,0,0,0,156.53,3032.23Z"/><path d="M155.55,2906.24c3,1.45,5.56,5.25,4.44,7.64-1.38,2.93-7.47,2.07-8.14,2-4.15-.62-8.9-3.42-8.63-5.91.23-2.11,3.93-3.3,5.18-3.7C149.81,2905.78,152.69,2904.85,155.55,2906.24Z"/><path d="M108.21,2918.07c3.65-3.73,12-3.48,16.27,1a11,11,0,0,1,2.72,5.18c.44,3-.94,5.38-2,7.15s-3.64,6.18-7.64,6.16a5,5,0,0,1-3.7-1.48c-.39-.47-1-1.52-.25-7.89.36-2.89.75-3,.5-3.45-1.21-2-6.37.38-7.65-1.48C105.66,2922.05,106.77,2919.54,108.21,2918.07Z"/><path d="M85.28,2866.3c3.47.25,6.29,7.93,4.19,10.11-1.28,1.32-4.65.87-6.65-1-.16-.14-2.73-2.61-1.73-5.67C81.72,2867.83,83.58,2866.17,85.28,2866.3Z"/><path d="M77.88,2947.66c1.48-.74,4.94,1.44,5.43,4.44.32,2-.61,4.4-2,4.68-1.76.37-4.29-2.85-4.44-5.92C76.88,2950.42,76.77,2948.22,77.88,2947.66Z"/><path d="M28.82,2854.71c1.63-.9,5.8.84,5.92,3.94.11,2.93-3.44,5.06-5.18,4.44C27.2,2862.25,26.72,2855.86,28.82,2854.71Z"/><path d="M8.85,2807.12c3.42-2,8.89.8,9.12,3.46.17,1.87-2.29,3.35-2.46,3.45-3.21,1.87-8.4.49-9.13-2.22C5.93,2810.11,7.26,2808.05,8.85,2807.12Z"/><path d="M43.37,2806.88c2.13,3.74-.31,6.81-.25,13.31.05,5.4,1.78,8,.74,8.63s-4.43-1.92-5.92-5.18c-.68-1.49-.42-1.9-1-7.15-.59-5.51-1-6.45-.25-8.13s2.73-3.75,4.44-3.46C41.39,2805,42.39,2805.16,43.37,2806.88Z"/><path d="M75.91,2834.24c1.34.16,2.67-1.71,3.21-2.95a7.27,7.27,0,0,0,.24-4.44c-.59-3.24-2-3.45-2.71-6.66-.57-2.61.17-3.42-.74-4.44-1.26-1.41-4.15-1.52-6.16-.24a5.15,5.15,0,0,0-2.47,4.19c0,1.53,1,1.84,3,5.18.43.71.2.39,2.47,4.68C74.8,2833.52,75.18,2834.16,75.91,2834.24Z"/><path d="M68,2803.67a4.27,4.27,0,0,0,.83.41c.41.16,4.15,1.65,6.57-.41a4.44,4.44,0,0,0,1.48-2.46c.3-1.58-.58-2.45-1-4.2-.27-1.19,0-1.51.5-5.17.67-4.72,1-9.13,1-9.13-2.71-1.44-3.77-1.39-4.19-1-.91.89,1.35,3.29.49,5.67s-3.69,1.65-5.91,4.19C64.77,2795,65.21,2801.8,68,2803.67Z"/><path d="M59.39,2771.87c2.64,3.3,8.18,3.26,9.37,1.48.85-1.28-.81-3,0-3.95,1.42-1.69,8.73.76,8.88,3.45.13,2.4-5.48,3.78-5.18,5.43.34,1.89,6.42,4.21,9.62,2,5.26-3.69,1.54-19.05-2.22-27.86-1.82-4.25-2.55-4.42-3.7-8.14-1.89-6.11-1-9.09-2.71-18.24-1.32-7-2.46-8.44-3.7-9.37-2.74-2.06-7.42-2.48-9.37-.25-1.58,1.81-.87,4.8-.49,6.41.61,2.58,1.72,3.78,3.45,6.66a32.37,32.37,0,0,1,3.94,8.14c1.39,5.29-1.49,6.42-1.23,13.8.21,6,2.21,8.67.49,10.36s-5-.47-7.15,1.48C57.43,2765,57.3,2769.24,59.39,2771.87Z"/><path d="M52.49,2760.28c1.84-1.2,1.64-6.49-1-8.88-1.94-1.76-3.64-.52-6.65-2.46s-3.46-4.44-4.2-4.19c-1,.32-1.06,5.3,1.24,9.36a13.11,13.11,0,0,0,8.13,6.17C51.68,2760.7,52.23,2760.45,52.49,2760.28Z"/><path d="M75.67,2701.84A61,61,0,0,1,73,2688.78c-.15-1.71-.31-4.35-1.48-4.69s-2.09,2.39-4.68,3c-3.46.77-7-3-7.15-3.2-1.9-2.09-1.34-3.27-3-4.44-2.77-2-7.86-1.07-8.63,1-.16.44-.2,1.1,2.22,4.94a37.33,37.33,0,0,0,3.95,5.67c3.58,3.72,5.73,2,9.36,5.17,3.89,3.43,3.51,7.19,6.41,7.89C72.11,2704.57,74.28,2703.06,75.67,2701.84Z"/><path d="M33.5,2683.85c3.41-.71,7.09,3.63,6.41,5.67-.46,1.39-3,1.78-4.43,1.72-2.09-.08-5.24-1.24-5.43-3.45C29.9,2686,31.7,2684.22,33.5,2683.85Z"/><path d="M163.69,2634c1.08.66,3.21,1.94,3.45,4.19a4,4,0,0,1-1.24,3.46c-3.14,2.28-12.37-3.4-11.83-6.41.31-1.76,3.91-2.42,4.19-2.47A7.72,7.72,0,0,1,163.69,2634Z"/><path d="M98.1,2646.62c1.49-1.33,1.12-4.36-.49-5.92-2-1.88-5.66-1.56-6.66.25-.77,1.39.24,3.38,1.23,4.43C93.65,2646.94,96.55,2648,98.1,2646.62Z"/><path d="M88.49,2656.73a4.31,4.31,0,0,1,3.94,4.93c-.61,2.43-4.39,3.78-6.41,2.22a4.14,4.14,0,0,1-.74-5.18A3.86,3.86,0,0,1,88.49,2656.73Z"/><path d="M47.56,2643.9c.92.58-.46,3,.49,6.17a10.33,10.33,0,0,0,2.22,3.7,21.28,21.28,0,0,0,8.38,6.16c3.27,1.38,3.75.77,7.89,2,3.79,1.11,11.34,3.95,11.1,6.17-.2,1.82-5.63,3.24-10.36,3-6-.36-6.69-3.2-12.82-3.7-5.57-.46-9.18,1.55-10.11,0s2.54-3.87,1.73-6.91c-.71-2.62-3.67-2.25-4.93-5.17-1.37-3.17.6-7.09,2.46-9.13C44.72,2644.92,46.7,2643.37,47.56,2643.9Z"/><path d="M81.83,2630.59c4,.49,5.64-.33,5.92.25.67,1.42-8,8.71-10.61,6.9-1.67-1.17-1-6.33,1.24-7.4C79.15,2630,79.65,2630.33,81.83,2630.59Z"/><path d="M99.09,2615.8c-.34-1.38,1.63-3.36,3.7-4.19,1.86-.76,2.74-.17,9.61,1.23,4.39.89,6.22,1.09,7.15,2.71a2.85,2.85,0,0,1,.25,2.71c-.53.85-1.69.82-4.44,1-5.28.33-4.85.71-6.66.49A24.21,24.21,0,0,1,103,2618C99.4,2616.64,99.16,2616.08,99.09,2615.8Z"/><path d="M98.59,2555.15c3.33,1,4.13,13.23.5,15-1.66.82-4.15-.56-5.43-2-2.57-2.83-1.26-6.87-1-7.64C93.73,2557.6,96.68,2554.56,98.59,2555.15Z"/><path d="M10.33,2504.85a5.92,5.92,0,0,1,3.94,0c5.27,1.56,9.67,8.22,8.14,10.6-1.22,1.91-6.1.83-8.38,0-.68-.25-7.07-2.55-6.91-6.41A5.14,5.14,0,0,1,10.33,2504.85Z"/><path d="M42.38,2477.73c1.55-2.22.6-3.63,1.73-10.11.6-3.51,1.07-4.17.49-4.93-1.51-2-7.37-1-11.34,2-2.86,2.16-2,3.35-5.18,6.41-4.61,4.5-8.12,3.62-9.62,7.15-1,2.47-.58,5.85,1.24,7.15.38.27,1.33.82,7.39-.74a45.33,45.33,0,0,0,9.87-3.45C40,2479.66,41.56,2478.9,42.38,2477.73Z"/><path d="M11.81,2486.85c.28.57,1.25,2.76.24,4.68-1.46,2.8-6.15,3.32-7.64,1.73-2-2.17,1-9.26,3.95-9.37C9.92,2483.84,11.29,2485.8,11.81,2486.85Z"/><path d="M113.88,2876.65a4.93,4.93,0,0,1-1,9.62c-2.54.3-5.19-1.36-5.67-3.45C106.51,2879.67,110.72,2875.71,113.88,2876.65Z"/><path d="M119.06,2889.72c-.31.53-4.12,7.16-.74,12.08a9.93,9.93,0,0,0,5.92,3.7c.29.08,6.74,1.77,9.61-1.48,1.35-1.52.42-2.44,2-5.18,1.66-2.9,3.23-2.8,4.44-5.18,1-1.93.15-2.39.5-7.15s1.24-5.45,1.47-10.6c.11-2.42-.1-2,0-4.19a31.9,31.9,0,0,1,2.47-11.59c1.45-3.27,2-2.74,4-6.9,1.35-3,2.19-4.86,2.21-7.4,0-2.93-1.07-3.76-1.72-7.15-.58-3-.17-4.67.24-8.87,1-10.11,1.5-15.16-.49-19-1.86-3.57-3.87-3.53-4.93-7.39a17.22,17.22,0,0,1,.25-8.63,27.82,27.82,0,0,1,3.45-8.39c11.37-18.83,10.42-24.1,18-28.6,3.18-1.89,5.74-2.38,8.63-5.67,2.55-2.91,2.57-4.83,5.17-9.12,1.61-2.64,4-6.58,7.65-9.12,6.87-4.79,11.93-.24,17.75-4.44,1.21-.88,1.73-1.6,6.9-14.3,5.7-14,6.18-15.78,5.67-18.49-1.05-5.69-5-7.65-3.69-11.1,1-2.86,4-2.41,8.38-5.91a24.56,24.56,0,0,0,7.89-12.33c.87-3.19.35-7.35-.74-15.54-1.16-8.68-1.73-13-3.45-16-3.09-5.38-5.81-4.91-8.14-10.36-.6-1.41-2.89-6.74-1-12.32,1.35-4,4.27-6.45,7.4-9.13,5-4.26,7.84-4.47,8.14-6.9.32-2.68-3-3.44-5.18-8.14a16.79,16.79,0,0,1-.49-12.57c1.38-3.59,3.86-5.13,10.6-9.62,16.87-11.25,18.12-12.86,19-14.3,1.23-2,1.5-7.72,2-19,.56-13.25.42-20.19,3.94-27.62,2.16-4.56,4.34-6.45,5.67-7.39,3.57-2.54,6-1.81,8.38-3.7,3.25-2.57,3.18-7.4,3-15s-.58-20.34-7.15-28.6c-1.9-2.39-3.6-4.94-5.42-7.4-3.28-4.4-4.08-5.37-3.95-6.9.29-3.41,4.87-5.74,7.15-6.9,4.66-2.38,6.15-1.13,7.65-3,2.14-2.62.79-7.22-1.73-15.78-1.1-3.76-1.38-3.78-2-6.41a47.87,47.87,0,0,1-1-11.59c.1-6.47.15-9.95,1.48-14,2.06-6.36,6-10.2,10.11-14.3,6.95-6.88,10.42-10.32,15.78-12.58,1.51-.64,3.62-1.38,4.19-3.2.66-2.1-1.08-4.44-4.93-8.63a159.39,159.39,0,0,0-14.3-13.81c-5.85-4.94-8.78-7.41-10.11-7.89-6.86-2.5-11.23.58-17-3.2-2.06-1.35-3.17-2.83-4.93-5.18-1.4-1.86-7.37-9.82-4.69-13.81.44-.65,1.6-1.93,4.93-2.22l58.44.25c.87-5.47,1.4-10.15,1.72-13.81a31.09,31.09,0,0,0-.24-9.37c-.49-2.46-.84-4.25-2-5.67-3.84-4.77-13.92-1.91-14.54-1.72l-27.12-1,.24-36c.7-.08,6-.82,8.63-5.42a11.25,11.25,0,0,0,1-7.89c-.87-3.83-3-4-4.93-8.38-.82-1.84-2.83-6.41-1.24-10.36,2-5,8.24-5.21,8.14-8.14-.07-2.16-3.56-4.08-6.16-4.68-4-.92-5.41,1.33-8.39,0s-4.31-4.9-4.68-5.92a12.38,12.38,0,0,1-.74-4.44q.24-10,.49-20l10.11-1-.24-10.11L246,2118.25a29.35,29.35,0,0,1-2.21-8.63,33.9,33.9,0,0,1,0-5.67c.38-8.26.58-12.38,1-14a51.32,51.32,0,0,1,3.95-10.36c1.72-3.48,2.8-4.75,2.95-7.39a13.89,13.89,0,0,0-2-7.4c-2.09-4.05-3.46-3.42-5.67-7.15-.48-.81-3.57-6.2-2.46-12.33a21.15,21.15,0,0,1,1-3.45c.94-2.61,1.69-4.67,3.45-6.16s3.86-1.75,5.92-2a15.74,15.74,0,0,1,8.63,1.24c2.64,1.27,3.84,2.94,5.67,2.46a3.54,3.54,0,0,0,2-1.48c2.61-3.44,1.46-8.86,1.73-16.27.24-6.62,1.35-7.74.74-13.31-.59-5.33-1.95-7.41-2.47-8.14-2.24-3.16-4.25-2.69-5.17-5.18-.48-1.28.41-4.32,2.22-10.35,1.24-4.18,1.39-4.68,1.47-5.67a16.52,16.52,0,0,0-2-8.63c-3-6.64-2.17-13.81-1-24.17s4.27-9.83,3.45-15.53c-1-6.73-5-8.7-6.41-17.26a34.63,34.63,0,0,1,0-9.86c1.05-10.6,1.57-20.55,8.13-25.64,3.32-2.57,6.42-2.6,6.91-5.18.36-1.91-1.11-3.11-3.95-8.63a38.33,38.33,0,0,1-2.71-5.91c-.21-.69-2.51-8.41,1.23-14.3,3.23-5.1,7.67-3.65,9.62-8.39,1.44-3.5.62-8.23-2-10.6-1.91-1.74-3.33-.91-5.18-2.22-5.64-4-4.46-20.23,3-24.9a33.86,33.86,0,0,1,6.16-2.47c6.2-2.14,6.7-1.44,8.38-2.46,6.14-3.73,5.19-16.63,4.69-23.42-.41-5.54-1-4.79-1.23-9.62-.25-6.08-.57-14.1,4.19-20.71,2.58-3.59,5.77-5.52,10.11-8.14a80.11,80.11,0,0,1,10.84-5.17c8.14-3.46,8.26-2.83,10.61-4.44,4.05-2.79,9.35-8.57,8.38-14.06-.52-2.94-2.43-3.44-5.92-8.13a48.09,48.09,0,0,1-6.41-12.33c-6-15.26,1.68-22-4.93-34.27-1.39-2.59-2.91-4.46-5.42-9.62-3.77-7.7-4.06-11.05-3.95-13.31.17-3.31,1.26-4.9,2.22-7.64,2.74-7.81-.37-11.22-1.23-25.64-.39-6.5-.09-11.33.49-20.72.2-3.23.56-8.86,1.48-16,1.73-13.52,2.6-20.29,5.92-28.11,1.95-4.6,4.91-11.59,11.58-18,6.46-6.2,8.16-4,16.52-11.59,4-3.64,4.79-5.23,13.81-14.05,3.93-3.85,4-3.78,4.69-4.68,4.42-6.06,3.45-13.18,2.71-22.19-2.13-26,.71-31.4-5.43-38.71a26.1,26.1,0,0,0-8.13-6.41c.12-3.46.88-8,4.19-10.85,3.59-3,7.22-1.51,10.35-4.69,2.62-2.65,2-5.72,3-12.08.15-1,1.66-6.21,4.69-16.52,5.6-19.1,6-20.23,7.15-22.43,3.05-5.74,6.79-9.53,10.85-13.81,9.46-10,10.44-8.08,12.08-10.85,4.42-7.46-1.24-22.68-1.24-22.68-2.84-7.52-4.7-19.86.5-40.68a69.78,69.78,0,0,0,4.19-6.66c2.67-4.84,4.33-7.84,3.2-9.37-1.45-2-6.73-.43-7.39-.24-3.31,1-3.72,2.3-6.17,2.71a9.51,9.51,0,0,1-8.13-2.71c-1-1.13-1.67-2.59-1.73-17,0-2.12,0-3.18,0-3.69.26-10,2.39-12.31,1.73-17-.7-5-3.31-4-5.67-10.35-2.81-7.55.35-10.28-1.48-20.22a50.66,50.66,0,0,0-4.93-13.81c-3.36-6.79-5.75-8.53-9.37-16.52-4.2-9.24-2.9-11.1-2.47-11.58,1.91-2.17,6.21.43,9.62-2.47,1.54-1.32,3-3.83,2.22-5.42-1.51-3.19-10.19.5-13.57-3.7-2-2.51.41-4.65-1.47-8.63-2.39-5-7.54-4.29-10.11-9.12-1.24-2.33-.66-3.66-.5-9.62.36-13-2.19-13.31-.74-20a29.3,29.3,0,0,1,7.89-14.3c4-3.82,5.19-2.52,8.14-5.67,4.52-4.82,2.23-8.49,6.41-21.7,1.45-4.57,1.92-4.75,4.69-13.06,1.9-5.72,2.84-8.57,3.2-10.36,2.17-10.92-1.26-16.4,2.22-19.23,2.21-1.8,6.16-1.68,7.89,0,2.23,2.17.16,6.38,2,7.4s5.36-2.25,6.41-3.21a17.46,17.46,0,0,0,4.44-6.66c1-2.68,1.52-4,1-5.42-1.25-3.25-6.32-2-8.39-5.67-1.48-2.62-.31-5.8,0-6.66a10.25,10.25,0,0,1,5.43-5.67c1.28-25.33-.32-33.81-2.22-36.49a54.69,54.69,0,0,1-3.95-6.41,19.29,19.29,0,0,1-2.22-4.93,13.92,13.92,0,0,1,.25-7.15c.29-.95,1.07-3.07,4.69-6.9,4.18-4.44,5.8-4.4,7.64-6.66,3-3.67,1.58-7.3,1.72-15.53a78.16,78.16,0,0,1,4.69-24.66c1-2.69,2.9-6.56,6.66-14.3,2.7-5.56,4.05-8.35,4.93-9.86,3.57-6.18,6.41-8.43,17.5-20,7.29-7.59,11-11.42,12.08-13.32,3.35-5.64,1.78-6.13,7.15-21.45,2.64-7.51,3.7-9.33,6.41-17.75.39-1.2,1.33-4.25,3.21-10.35,2.94-9.54,4.08-13.38,7.4-17.51,1.53-1.91,4.17-5.12,6.9-4.68,1.88.3,2.14,2.06,4.93,3.45,2.32,1.15,4.45,1.07,7.15,1s5.88-.19,9.12-2c.57-.31,6.81-3.84,7.65-9.86.38-2.73-.58-4.33-6.66-14.55-2.88-4.84-5.56-9.81-8.63-14.54-5.62-8.68-6.81-9.2-7.15-12.33a16.61,16.61,0,0,1,6.41-14.55c2.53-1.9,4.08-1,5.92-2.71,2.68-2.56,2.14-6.51,1.72-13.31-1.09-17.78.71-21.24-3.2-27.37-2-3.16-2.49-2.23-4.44-5.43-5.41-8.86-3.63-19-3-22.93a59.84,59.84,0,0,1,5.92-17c3-5.37,5.85-8,4.93-11.59-.77-3-3.2-3-5.67-7.64a18.5,18.5,0,0,1-2.22-8.38c0-4.69,2.49-8.09,4.44-10.85,13.48-19.07,11.31-19.29,16.27-23.18,4.17-3.26,8.53-5,17.26-8.38,7.24-2.83,14.41-4.85,20-6.41,6.29-1.77,9.58-2.48,15.29-4.68,6.16-2.39,9.29-3.63,11.34-5.92,3.19-3.57,2.13-6.12,4.68-17.26.9-3.91.5-1.28,5.43-18,2.24-7.62,2.87-10,4.93-13.56,3-5.11,4.27-4.63,5.92-8.38,2.63-6,1.3-11.93,0-17.75-1.14-5.06-2.9-12.88-6.91-13.56-2.45-.42-3.32,2.24-7.89,3.94-2.87,1.07-4.25.66-12.57.25-11.64-.59-12.26.05-17-1-5.21-1.13-7.81-1.7-10.11-3.7-3.91-3.39-3.46-7.54-5.43-20-2.09-13.23-3.14-12-4.44-22.68s-.23-11.91-1.72-18.74c-1.88-8.61-4.88-12.76-7.64-18.74-10.59-22.92,1.52-31.34-8.63-45.12-3-4.13-9.46-10.59-21.21-22.43a16.63,16.63,0,0,1-4.44-6.91c-2.18-7,5-11.79,3.46-17-.73-2.51-3.46-5.61-12.82-7.64q-.63-18.62-1.24-37.23c.9,0,8.63-.17,11.1-4.93,2.69-5.21-2.45-12.91-3.21-14.06-2.67-4-5.27-5.06-4.93-7.39s3.28-2.75,6.41-5.92c2.53-2.56,4.63-6.4,4.93-9.62.94-10-15.11-19.72-23.67-29.09-.2-.22-1.36-1.49-2.95-3.2-2.77-3-4.62-4.85-4.94-5.18-3.85-4.09-2.23-14.94-1.72-25.4.49-10.14.85-17.48-1.73-26.38-1.48-5.13-3.11-10.75-7.89-16-5.87-6.48-10.29-5.56-12.57-11.1-2.37-5.74,1.3-9.32-2-15.53a13.56,13.56,0,0,0-6.17-6.17c-5.88-2.67-13.79-.18-16.76,4.69-.65,1.06-1.16,2.39-1,11.09.23,12.06,1.25,11.78.49,14.8C419.67,41.29,408.76,46.61,408,47c-4.41,2.08-6.26,1.39-11.1,4.44a37.37,37.37,0,0,0-7.88,6.9,39.12,39.12,0,0,0-5.68,8.63L390,147.55l5.43.49q1.35,58.31,2.71,116.62l3.34.71-1.62,33.56h-5.42C393,308,391,322,389.77,339.37c-.85,12.35-1.27,18.52-1.23,25.64.15,24.13,4.06,38.2-3,44.62-5.76,5.28-10.6,6.91-10.6,6.91-3,1-4.33.77-5.92,2.22-3.93,3.58-2.37,11.11-2.21,11.83,1.07,4.9,3.31,5.09,6.65,13.07A34.45,34.45,0,0,1,376,451.3a31.77,31.77,0,0,1,0,11.1c-1.34,8.1-4.64,12-7.15,17.75-1.59,3.65-1.17,4.2-3.21,23.91-2.07,20.08-3,24.07-2.46,32.8a54.6,54.6,0,0,0,3.7,18c1.26,3.14,1.63,3.11,2.95,6.41a57.83,57.83,0,0,1,3.95,18.5c.29,6.13.57,12.13-2.22,18.73-3.1,7.34-6.21,6.43-10.36,14.55a46.28,46.28,0,0,0-4.68,19.73A61,61,0,0,0,358,648.05c1.39,6.26,2.55,6.86,3.2,10.85,1.12,6.77-1.4,9.82-3.94,19.48-4.07,15.49.16,16.2-4.19,26.87-3.44,8.43-6.63,9.32-7.4,16.52-.6,5.61.91,9-1.72,12.82s-6.1,2.94-7.4,6.17c-1.38,3.43,2,5.78,4.19,13.8,1.41,5.07,2.39,8.6,1.23,12.33-2.08,6.7-8.53,5.79-12.32,13.31-1.31,2.58-1.61,6.49-2.22,14.3-.63,8-.06,8.39-.5,13.07-1,10.48-4.13,11.64-8.87,29.84-.76,2.9-1.37,5.52-2.71,9.61-2.23,6.76-3.34,10.14-5.43,13.07-4.81,6.74-9.42,5.4-12.08,10.85-2.33,4.76-.81,9.91.49,14.3,3,10.06,8.21,11.72,12.08,20.46.94,2.11,2.07,5.26,2.72,20.46.84,20,1.27,30-.74,36.49-5.31,17.05-18,28.1-19.73,29.59-5.08,4.33-6.24,3.74-8.38,6.9-5,7.4-.71,13.33-.49,35.51.07,7.85-.43,10.88.74,17.26a119.08,119.08,0,0,0,3.94,14.54c1.88,6,3,8.76,3.95,11.59,3.44,10.23,3.95,18.77,4.68,31.07.72,12.14,1.08,18.21,0,22.27-1.25,4.69-3.41,9.26-1.23,13.72,1.51,3.1,3.57,3,5.42,5.92,3,4.7-.15,8.48-.49,17-.52,13.24,6.47,19,2.22,25.65-1.4,2.2-2.55,2.18-4.44,5.42-2.66,4.56-1.84,7.07-3.21,11.34-2.7,8.49-9,8.17-10.84,15.53-.36,1.44,0,.81,1.48,11.84,1.93,14.85,1.47,18,3.45,22.43a10.25,10.25,0,0,1,1,3.7,12.29,12.29,0,0,1-2.46,7.65c-5.06,7.42-11.49,15-14.8,20-5.07,7.7-6.52,15.18-7.88,22.19-1.49,7.63-1,11.08-1.48,19.47a167.39,167.39,0,0,1-4.94,30.08c-5.42,19.9-15.54,35.38-18.73,40.19-5.61,8.44-9.47,12.31-12.58,21.45a150.63,150.63,0,0,0-4.44,18.25c-1.77,9.54-1.4,12.06-3.94,17a47.78,47.78,0,0,1-8.38,11.09c-5.38,5.6-6.42,4.57-8.14,7.4-3.87,6.38,1.67,11.24,1,24.41a54.07,54.07,0,0,1-4.19,17.51,51,51,0,0,1-7.15,13.06c-4.81,6.24-6.47,5.07-9.13,9.13s-2.25,7-2.71,28.35c-.18,8.61-.33,12.35-3.2,14.79s-6.67,2.29-9.87,2.22c-5.8-.12-7.92-2.22-15.78-2.71-5.37-.34-6.16.54-6.41,1-1,1.81,2.83,3.91,4.19,8.13,2.6,8-7.15,13-5.91,23.18.46,3.8,1.75,2.47,5.18,11.34,1.75,4.53,2.2,6.92,4.93,17.5,3.47,13.48,3.41,12.24,3.69,14.06,1.72,10.84-2.36,15.87-3.94,25.64-3.18,19.72,7,39.11,10.6,45.86,3.8,7.21,8.73,14,8.88,24.65.06,4.49-.81,3.81-1.24,10.85-.87,14.38,2.64,18.59.25,27.37-1.49,5.47-2.78,3.59-6.41,11.83-6.49,14.76-4,24.55-10.35,27.62-2.88,1.39-4.33-.16-8.14,1.72-.33.17-5.93,3.08-7.89,9.13-1.28,3.94-.14,6.57,1,12.32,1.24,6.37,4.15,21.2-1.24,32.06-1,2.06-3.33,6-3.45,6.16-3.26,5.5-6,9.22-6.41,9.86-4.87,7-5.9,29.53,4.19,64.85,6.26,21.89,10.39,26.3,14.8,27.36,5,1.2,12-1.39,17-3.2,3.48-1.27,5.89-2.18,8.38-4.44,3.42-3.1,5.45-7.35,6.66-9.86,1.94-4.06,1.76-5.25,3.45-6.66,3-2.53,7.39-1.93,8.88-1.72,8.24,1.13,14.18,8.1,16.51,10.84,4.13,4.85,5.14,8.27,8.88,8.88a9.44,9.44,0,0,0,6.16-1.48c2.14-1.28,4-3.42,5.43-7.4,4-11-.79-20,2.46-21.69,1.82-1,4.81,1,5.92,2a10.32,10.32,0,0,1,3.21,5.42c2.4,8.69,6.07,21.93-.74,28.11-.49.44-.58.44-9.62,4-9.76,3.78-11.21,4.39-13.31,5.67s-10.05,6.11-9.13,10.11c.43,1.81,2.52,2.76,3,3,3.58,1.52,6.32-1.69,14.55-2.46,1.74-.16,2.63-.24,3.21,0,4.44,1.83.44,12.76,1.47,27.61,1.12,15.93,7.1,24.33,2.22,30.33a29.44,29.44,0,0,1-6.65,5.67c-3.16,2-4.84,3-7.15,3.2-5.84.42-8.75-5.31-12.58-3.94-1.72.61-2.52,2.27-3.45,4.19-2.91,6-.7,12.49,0,14.55,1.49,4.38,4,7.73,6.41,10.85,2.11,2.77,2.21,2.36,3,3.69,3,5.43,2.28,13.9-2,17-1.86,1.36-3.1.76-6.41,3a18.08,18.08,0,0,0-4.19,3.69c-4.45,5.58-1.27,11.4-5.18,14.55-2.21,1.77-3.63.26-5.43,2-3.64,3.47-1.53,13.17,3.46,19.48,2.42,3.07,3,2.11,5.91,5.42,5.63,6.37,6.8,13.56,7.65,18.74.92,5.67,1.56,9.63-.74,11.84s-4.75.48-9.13,1.72c-7.41,2.11-11.13,9.87-11.83,11.34-3.12,6.52-4.26,16.94.74,21.21,4.05,3.46,8.51-.23,13.56,3.7s4.92,10.94,7.4,10.84c1.67-.06,1.64-3.28,5.67-5.91a9.06,9.06,0,0,1,5.42-1.73,8.83,8.83,0,0,1,3.45,1c5.74,3.14,7.64,21.44.5,25.89-2.46,1.52-3.67,0-5.92,1.48-5.68,3.76.39,14.65-5.67,21.94-1.67,2-1.72.68-11.1,6.9-6.29,4.18-5.68,4.38-8.63,5.92-6.44,3.36-8.62,2-14,5.42-2.91,1.83-6.14,3.87-6.66,7.15s2,4.09,4.69,10.11c3.1,7.07,1.34,9.71,4.44,12.82,2.19,2.21,4.82,2.64,9.86,3.45,9.77,1.59,14.13-1,16.76,2,1.88,2.13,1.37,5.41,1,7.89-.16,1-1.3,8.35-6.66,10.35-3.69,1.38-7.42-.5-9.86-1.72-5-2.52-4.92-5-10.36-8.14-3-1.76-6.37-3.68-9.61-2.71-3.44,1-3.15,4.23-7.64,10.11-5.58,7.28-10.62,8.37-10.36,12.57.13,2.08,1.51,4.25,3,4.44.8.1,1.49-.41,4.68-3.7,3.64-3.74,3.52-3.89,4.2-4.19,2.18-1,3.6.41,10.1,2.46,5.89,1.86,8.13,1.81,8.63,3.46s-1,3.14-2.71,5.17a24.51,24.51,0,0,1-9.37,6.66c-5,2-6,.61-9.61,2-6.73,2.53-12,10.45-11.84,18,.12,6,3.58,11.11,4.93,10.85,1.12-.21.28-4,3.21-7.64a10.31,10.31,0,0,1,4.44-3.21c2.84-1,7.27-1,8.87,1.48s-.19,5.8-1.23,7.89c-3.29,6.62-7.22,6-10.11,11.34s.48,6.88-2.71,14.06a32.05,32.05,0,0,1-7.15,9.86c-3.34,3.19-3.82,2.33-5.67,4.44-5.55,6.3-1.13,13.9-6.17,18.24-1.63,1.41-4,1.76-8.87,2.47-4.63.67-9.22,1.34-10.85-1s.49-6.44,1.23-7.89c1.16-2.26,2.07-2.69,5.92-7.15,3-3.49,4.51-5.26,4.44-6.41-.16-2.33-2.91-3.15-10.11-7.64-8.43-5.27-8-6.26-10.85-6.66-5.38-.75-7.19,2.84-13.31,1.73-1.79-.33-1-.52-6.91-2.72-5-1.87-7.64-2.82-11.09-3.2-2.8-.31-5.3-.58-8.14.49a14.37,14.37,0,0,0-6.9,5.92c-5.58,9.07,2.63,18.5-2.71,24.65-2.48,2.86-5.1,1.84-7.65,5.43-1.87,2.65-3.86,7.35-2,10.6,2,3.49,7.52,3.6,12.58,3.7,5.6.11,6.49-1.12,14.05-1.48a69.7,69.7,0,0,1,10.35.25c6.9.69,11.44,1.15,15.78,3.69,5.77,3.39,4.08,6.28,13.56,16.52,4.57,4.93,6.11,5.5,7.15,8.63,1.41,4.21-.3,6.34-2,15a93.82,93.82,0,0,0-1.23,20.71c.62,11.6,3.12,12.46,3.7,12.58,1.64.34,3.19-1.92,4.44-1.24.92.52.84,2.21.73,4.69-.44,10.15-.33,10.49-1,11.34-2.3,3-5.63,1.36-7.64,4.44-1.55,2.35-.89,5.29-.25,8.14.71,3.15,2.8,9,5.18,8.87,1.74-.07,1.69-3.24,5.91-8.63,1.25-1.59.9-.86,4.93-5.42l5.18-5.67c2.17-2.38,3.27-3.56,4-3.46,1.71.28,2.72,4.28,2.71,7.4,0,3.58-1.34,4.62-1.23,6.66.23,4.35,6.89,3.57,11.34,9.37,3.58,4.66,1.47,7.56,4.93,10.11s6.32.24,12.08,2.71c1.76.75,5.25,2.25,7.15,5.42,5.61,9.38-8.06,24.5-8.88,25.4a12.54,12.54,0,0,1-4.68,3.45c-2.38,1-3.91.6-8.14.49-8.34-.21-8.94,1-11.34-.24-2.83-1.52-2.35-3.45-5.67-6.41s-4.92-2.15-9.12-4.44c-8.42-4.6-9.16-11.74-14.3-11.59a7.3,7.3,0,0,0-4.69,2.22c-5.13,5-1.2,15.64-.24,18.24a28.42,28.42,0,0,0,6.65,10.85c5.32,5.28,10.5,5.82,10.61,9.12.05,1.69-1.29,1.81-3.95,6.91-1.65,3.16-2.47,4.77-2.22,6.41.49,3.24,3.82,3.51,4.19,6.41.43,3.29-3.3,7.3-5.67,6.9-1.57-.26-1.51-2.29-4.68-5.67a16.24,16.24,0,0,0-4.19-3.45c-4-2.11-9.51-1.89-10.11-.25s2.95,5.19,6.66,6.66a12.73,12.73,0,0,1,4.43,2.22,6.45,6.45,0,0,1,2.22,3c.71,2.5-1.25,5.81-3.7,7.39-5.05,3.28-10.12-2.15-16,.74-3.68,1.81-5.21,5.62-5.92,7.4-2,5-.63,9.92,2.22,19.48,2.47,8.26,3.78,12.43,7.4,14,1,.46,1,.19,7.64,1.73,5.82,1.35,6.5,1.72,6.9,2,3.53,2.17,2.89,5.37,5.43,9.37,4.88,7.68,14,6.45,14.3,10.6.25,3.29-5.21,7.35-8.39,6.41-2.3-.68-2.34-3.68-4.43-3.94s-5.14,2.69-5.43,5.91,1.92,5.7,4,6.91c3.11,1.85,5.21,0,7.64,1.72s1.27,4.29,3.21,8.88c2.42,5.74,5.76,5.18,9.36,11.83,1.67,3.08,3.49,6.43,2.22,9.62-1.81,4.56-9,6.53-10.84,4.68-1.46-1.48,1.51-4.48,0-8.13-.89-2.15-3.07-3.27-7.4-5.43-7-3.49-8.17-2.49-12.08-5.17-4.18-2.87-4.16-4.91-7.15-5.43s-7,.71-8.39,3.95c-.54,1.27-1,3.77.25,5.17,1.68,1.81,4.44-.26,11.34.5a13.48,13.48,0,0,1,6.91,2.46c1,.74,2.2,1.69,2.22,3,0,1.89-2.65,3.53-4.69,4.19-4.75,1.55-7.33-1.73-9.86-.24-3,1.77-4,9.22-.25,13.06,3.34,3.4,8.68,2.23,9.86,2a11.08,11.08,0,0,0,6.17-3.46c1.46-1.66.85-2.91,2.46-5.17,1.13-1.59,3.23-3.67,4.2-3.21s-.51,3.59-.25,8.38c.3,5.56,2.7,6.46,3.2,13.07.22,2.86.34,4.89-1,6.66-2.33,3.1-7.29,2.74-7.65,2.71-3.87-.32-5.37-2.65-14.3-8.38-4.35-2.8-5.25-3.05-5.67-2.71-1,.81,3,4.49,4.93,12.08.67,2.65.7,4.25,2.22,5.91s2.74,1.49,5.43,3.21c2.44,1.56,2.11,2.1,5.18,4.68,4.62,3.89,6.44,3.54,7.64,6.17.88,1.93,1.06,4.67-.25,6.16-.91,1-1.9.73-3.7,1.73A10.55,10.55,0,0,0,119.06,2889.72Z"/><path d="M173.55,2264.46c1.37-1,5.54,2.11,9.61,5.18a41.29,41.29,0,0,1,4.19,3.45c3.2,3,9.1,8.66,8.14,14-.24,1.33-.59,1-3.45,5.43-3.9,6.07-3.53,7.18-6.17,10.1-1.74,1.95-3.94,4.32-7.39,4.94s-7.52-.81-7.64-2.22c-.14-1.58,4.52-2.16,4.93-4.93.29-2-1.77-3.8-2.22-4.2-3.63-3.2-7.48-.68-10.6-3.45-2.41-2.13-3.14-6.28-1.73-7.89.8-.91,2-.63,6.9-.49,8.49.23,9.31-.55,9.62-1,.86-1.23-.25-2.78-2-7.64C174,2270.75,172.13,2265.51,173.55,2264.46Z"/><path d="M135.58,2277c1.52-.26,3.29,2.25,3.94,4.19.9,2.69.43,6.57-1.72,7.4a4,4,0,0,1-4-1.23C131,2284.4,133.25,2277.44,135.58,2277Z"/><path d="M107,2282.7c3.37-1.31,7.77,2.5,8.38,6.17a4.41,4.41,0,0,1-.49,3.2c-1.79,2.71-7.93,3.38-10.36,0C102.34,2289.05,103.92,2283.89,107,2282.7Z"/><path d="M104.76,2310.07a5.28,5.28,0,0,1,3.94,1.73,4.69,4.69,0,0,1,.5,5.42c-1.43,2.13-4.65,2.1-6.66,1s-3.66-3.84-2.71-5.92C100.9,2310,104.48,2310.06,104.76,2310.07Z"/><path d="M118.57,2322.65c4.11-1.53,10.26-1.25,12.32,2,1.4,2.18-.44,3.6.74,7.39,1.4,4.49,5.09,6,4.44,7.4-.46,1-2.57.74-6.41.49-9.43-.6-8.91-.07-10.6-.49-3.36-.84-10-3.43-10.11-7.15-.08-2.11,2-3.93,4.44-6.16A15.47,15.47,0,0,1,118.57,2322.65Z"/><path d="M116.35,2346.56c3.8-2,9.81-2.31,11.58.74,1.15,2,.3,4.93-1.23,6.66-4.09,4.6-14.63,2.13-15.53-1.24C110.58,2350.53,114,2347.75,116.35,2346.56Z"/><path d="M141.5,2368.26c1,.51,1.23,2.08,1.47,3.94.21,1.6.74,5.68-1.23,6.91-2.24,1.39-7.45-1.08-7.89-4.44C133.35,2370.82,139.29,2367.15,141.5,2368.26Z"/><path d="M120.54,2380.34c1.79.4,3.36,3.83,2.22,6.41-1.57,3.55-7.33,3.36-8.39,1.72C113,2386.41,117.7,2379.7,120.54,2380.34Z"/><path d="M92.68,2407.71a4.1,4.1,0,0,1,4.68,2,3.51,3.51,0,0,1,0,3.45c-1.52,2.18-6.8,1.52-7.64-.74C89.17,2410.9,90.4,2408.34,92.68,2407.71Z"/><path d="M72.21,2387.49c3.54-1.74,8.15-.08,8.63,2,.8,3.37-9,10-11.59,8.14C67.47,2396.29,67.69,2389.72,72.21,2387.49Z"/><path d="M71.72,2412.88c2.55-.63,5.68.84,6.41,3,.65,1.9-1.09,2.89-.49,4.93.5,1.72,2.18,2.56,4.93,3.95a25.82,25.82,0,0,0,7.4,2.46c3.19.52,2.53-.2,7.89.25,6.68.56,8.2,1.72,8.61,1.72h0c.06.13-8.9,2-10.35,6.41-1.13,3.47,2.72,7.32,2,7.89-.48.36-2-1.2-5.18-3.7a59.91,59.91,0,0,0-8.63-5.92c-.45-.25-2.19-1.07-5.67-2.71-5.84-2.76-6.66-3.08-7.15-4.19-1.11-2.54,1.65-4.25.5-7.4-.92-2.51-3.29-3.15-3-4.68C69.31,2413.49,71.43,2413,71.72,2412.88Z"/><path d="M48.05,2426c1.89-2.29,8.11-.13,8.14,1.23s-6.81,3.69-8.39,1.73A2.58,2.58,0,0,1,48.05,2426Z"/><path d="M66.3,2433.1c3.3-1.2,6.86,1.67,6.65,3-.3,1.87-8.94,3-9.86,1C62.59,2436,64.29,2433.83,66.3,2433.1Z"/><path d="M123.5,2439c3-2.2,7.74.72,7.89,2.71.18,2.49-6.66,6.05-8.88,4.19C121,2444.7,121.16,2440.73,123.5,2439Z"/><path d="M130.89,2425.7c1.93-1.82,8,.63,8.14,3.21.11,2.05-3.47,5.2-6.41,3.94S129.41,2427.11,130.89,2425.7Z"/><path d="M107.72,2532.46c2.23.86,5,2.66,4.68,3.7-.11.41-.81,1.09-12.82.49-9.92-.49-10.33-1-10.35-1.23-.09-.87,4.55-2,6.65-2.46C100.76,2531.8,104.08,2531.07,107.72,2532.46Z"/><path d="M110.18,2561.31c-1.89,2.68-3.76,3.56-4.44,6.66a9.82,9.82,0,0,0,.25,5.17c1.11,3.25,3.44,3.82,3.21,5.18-.47,2.68-9.83,2.61-9.87,3.95,0,.68,2.44,1.7,5.18,1.72,6.73.05,12.82-5.92,12.82-5.92h0s-.53-4.77-.74-8.13c-.44-7.44.7-8.8-.24-14.3-.09-.51-1.09-6.2-2.22-6.17S114.17,2555.67,110.18,2561.31Z"/><path d="M93.66,2752.88c-1.41.7-1,3.26-.74,11.59.17,6.16,0,8.89.74,14.05.57,4.08,1.26,6.73,3.46,8.39a5.84,5.84,0,0,0,3.45,1.23,6,6,0,0,0,5.67-4.44c.37-2.11-1.42-2.64-1.23-4.68.32-3.59,6.07-4.29,6.16-7.4,0-1.25-1.21-2.56-3.7-5.18-2.09-2.19-2.39-1.91-3.7-3.45-2.48-2.93-1.82-4.46-3.94-6.9C98.3,2754.33,95.3,2752.07,93.66,2752.88Z"/><path d="M90.21,2791.59c-2.34,1.49-2.36,8.1,1.23,10.11,2.7,1.51,7.08.22,7.89-2.22.55-1.64-.65-3.37-1.23-4.19C96.2,2792.58,92.21,2790.31,90.21,2791.59Z"/><path d="M127,2951.85c.14-.86-3.93-2.21-5.67-2.71a21,21,0,0,0-8.39-1c-.67.07-6.69.75-6.9,2.71-.13,1.26,4.05,1.13,5.43,3.95.38.78.46,1.6-.25,5.18-1.09,5.48-1.85,6.39-2.22,9.61-.34,3-.69,6.1,1,7.4s3.74-.85,7.39-.49c6,.59,8.3,7.4,11.34,6.65,2.51-.62,4.72-5,3.46-7.39-2.31-4.28-14.94.71-17.51-3.95-1-1.79.73-2.83,1-9.12.22-5.3-.92-6.48.24-8.14C118.45,2950.86,126.75,2953.07,127,2951.85Z"/><path d="M10.08,2703.82c.34.94,1.74,4.81-.24,7.15-2.41,2.84-8.49,1.88-9.62-.5-1.53-3.21,5.33-10.36,8.14-9.36C9.21,2701.41,9.58,2702.43,10.08,2703.82Z"/><path d="M8.36,2754.85c1.26,3.33.69,6.88.24,6.91-.71,0-2.15-8.94-1.48-9.13C7.43,2752.55,8.15,2754.3,8.36,2754.85Z"/></g></g></svg>