<svg xmlns="http://www.w3.org/2000/svg" viewBox="0 0 2296.64 1871.59"><g id="Layer_2" data-name="Layer 2"><g id="Layer_1-2" data-name="Layer 1"><path d="M2295.57,251.32c-.64,4.3-1.63,7.44-4.12,9.75-2.29,2.12-3.56,1.43-5.36,3-3.89,3.44-2.76,10.93-.82,22.8,1.43,8.77,2.43,10.06,1.92,14.69s-1.64,4.74-2.47,11.13c-.66,5.06-1.17,9.37,1,13.6,1.23,2.46,2.05,2.29,2.88,4.67.09.25,1.89,5.69-1,10.44-1.41,2.35-2.76,2.52-5.91,5.22a35.86,35.86,0,0,0-6.86,8q-.42,13.32-.83,26.64l-47-1a36.67,36.67,0,0,1-4.13,7.56c-.8,1.12-2,2.54-4.39,5.35s-3.6,4.24-4.26,5c-6.12,6.56-10,6-12.22,10.58a12.64,12.64,0,0,0-.83,7.41c.7,5,3.73,7.82,9.07,13.6,7.41,8,11.11,12,12.77,15.52,2,4.19.9,4.85,2.2,17.86.61,6.09,2.27,20.08,2.06,32.69,0,1.86-.14,4.94-2.2,7.42-2.33,2.81-4.62,1.81-8.1,4.12-5.84,3.87-4,9.71-9.34,12.36-2.67,1.32-5.46,1-8.52.69-.79-.09-3.12-.38-9.2-2.75-7.34-2.85-9.18-4.46-10.3-3.57-1.59,1.26,1.68,4.8.82,11.4-.16,1.2-1.07,7.34-5.49,10.72-.81.61-1,.61-2.2,1.51a24.37,24.37,0,0,0-5.5,6c-4.6,6.85-6.93,6.06-10.3,12.09-3.46,6.19-2,8.9-5.22,10.85-2.09,1.29-5,1.13-10.85.82-3.89-.2-6.32-.75-9.48.55a6.29,6.29,0,0,0-3.43,2.48c-.58,1-1.14,3.07,1.92,9.2,3.5,7,5.41,6.71,6.18,10.3,1,4.76-1.16,10.73-5.08,12.91-.74.42-.66.2-9.2,1a50.61,50.61,0,0,1-8.52.41,41.45,41.45,0,0,1-5.63-.83,90.14,90.14,0,0,0-16.21-1.78,39.1,39.1,0,0,0-10.58,1.1c-4.78,1.22-7.28,1.85-9.2,4-3.45,3.82-.61,7.57-3.57,16.48a33,33,0,0,1-4.81,9.34c-3.47,4.65-6.7,6.08-11.4,9.48-3.06,2.21-7.35,6.65-15.93,15.52-7.78,8-7.89,8.6-14,15-14,14.62-18.32,16.78-31,29.94-1.22,1.26-3.91,4.07-7.83,7.55a146.3,146.3,0,0,1-11.54,9.21c-14.76,10.52-22.12,10.3-37.77,21.56-4.52,3.26-3,2.58-11.26,8.93-17.35,13.24-14.8,9-25,17.17-3.45,2.77-5.58,4.72-7,4-3.3-1.71,3-14.79-2.75-20.06-2.24-2.07-5.08-1.78-7.28-5.22a11.7,11.7,0,0,1-1.64-5.22c-.49-5.34,2.15-9.28,5.08-14.56,4.62-8.34,2.56-6.7,7.28-15.25,5-9,7-10.32,12.77-21,2.38-4.38,4.46-8.62,4.67-14.29.09-2.41.17-5.36-1.51-8.38-3-5.4-9.28-6.74-11.12-7.14-4.45-1-7.87,0-14.7,1.79a69.23,69.23,0,0,0-14.7,5.77c-3.93,2.08-7.25,3.84-10.85,7.14-3.3,3-5.91,7.37-11.13,16.07-3.35,5.59-5,8.43-5.22,10.71-.24,3,.47,6.35-1.64,8.11a5,5,0,0,1-2.48,1s-3.78.77-9.61,4.67c-3.29,2.21-3.11,4.56-7.28,13.74-3.06,6.73-4.59,10.1-7.42,13.87-2.41,3.22-5.78,6.27-12.5,12.36a57.38,57.38,0,0,1-6.87,5.5c-3.29,2.2-5.21,3.49-8,4.25-2.94.82-3.33.06-12.09-.13-3.62-.08-5.86,0-10,.13s-6.41.23-7.42.69c-3.18,1.45-4.54,4.44-7.14,10.17a39.82,39.82,0,0,0-3.71,11.4c-.32,2.13-.55,5,.28,12.22,1.37,12.08,2.06,18.12,5.08,21,1.54,1.47,5.6,2.91,13.73,5.77a13.35,13.35,0,0,0,6.05,1.1c2.91-.28,3.63-1.57,8.1-3.71a22.81,22.81,0,0,1,17.45-2.48c4.71.86,7.06,1.28,8.65,2.48,5.1,3.82,5.59,14.6,1.79,21.56-1.69,3.09-3.31,3.75-4.95,8-.91,2.35-2.14,5.65-1.23,9.61.25,1.14,1.17,5.16,4.39,7.15,1.85,1.14,5.07,2,14.15-1.65a80.87,80.87,0,0,0,16.35-9.07c19.07-12.93,28.6-19.4,29.25-19.91a30.58,30.58,0,0,1,9.21-5.5c2.34-.83,9.59-3.42,16.48-.41,3.7,1.62,2.92,2.94,7.55,5.63,4,2.3,7.5,3,14.56,4.26,6.18,1.14,9.35,1.7,13.19,1.1,3.45-.54,6.86-1.08,9.62-3.71,1.26-1.2,1.71-2.21,3.29-2.88,3.18-1.37,6.64.42,6.87.54,4.79,2.57,5.33,9,5.5,11a15.21,15.21,0,0,1-1.52,8.52,14,14,0,0,1-4.67,5.22c-2.44,1.58-3.81,1.27-6.86,2.2-1.91.58-2.52,1-11.4,7-7.62,5.11-7.61,5.06-8.25,5.63-3.94,3.59-4.08,5.4-8.1,8.11a20.65,20.65,0,0,1-6.46,3.16c-2.94.79-4.22.34-7,1.37a14.91,14.91,0,0,0-5.36,3.3c-2.69,2.67-2.23,4.66-5.22,9.89a57.77,57.77,0,0,1-3.57,5.22c-5.49,7.55-7.41,8.27-8.24,8.51-1.14.34-.92,0-5.5,0s-6.91,0-8.79.69a13,13,0,0,0-7.14,5.91,12.21,12.21,0,0,0-1.37,6.18c.08,2.53.89,3,1.78,6.59,1,4.06,1.69,6.72.41,8.66s-3.27,1.17-7.41,3.29c-1.73.89-4.77,2.44-6.6,5.36s-1.89,6.53-1.92,12.77c0,3.39.26,6.5-1.51,7.56-.84.5-1.37.09-2.47.69-2.42,1.29-2.74,4.79-2.75,4.94-.31,3.9,3,6.58,3.16,6.73,2,1.6,3.39,1.1,8.38,2.47a56.57,56.57,0,0,1,6.87,2.48,40.61,40.61,0,0,1,9.89,6.31c8.52,7.11,14.74,18.29,15.79,20.2,7,12.82,10,19.61,14.84,29.39,0,0,8.87,17.79,26.51,43.68,3.16,4.65,6,8.7,11.12,12.5,3,2.24,5.32,3.33,19.78,9.62,12.84,5.58,13.8,5.93,15.53,7.55,7,6.63,7.75,16.5,8.1,21.43a53.5,53.5,0,0,1-11.13,33.65c-1.79,2.3-4,4.67-4,4.67-4.59,5-6.64,5.9-10.85,9.89a86,86,0,0,0-10.85,12.78c-3.18,4.44-3.4,5.55-6,8.24-3.68,3.75-6.88,5.31-6.45,6.59.37,1.12,3.19,1.12,5.63,1.1,4.91,0,7.22-1,12-1.78a108.76,108.76,0,0,1,12.36-1.24c4.42-.28,6.28-.23,9.21-1.24,2.38-.81,2.2-1.21,6.18-3.15,6.16-3,6.63-2.07,10.44-4.4,2.92-1.79,3.65-3,6.31-3.57.71-.16,4.41-.93,5.5.69.87,1.29-.35,3.52-1.24,5.08-4.16,7.34-7,11.93-8,13.6-3.64,6.35-6.23,16.59-2.34,20.6,2.21,2.28,5.2,1.23,7.56,4.53a8.49,8.49,0,0,1-2.07,12c-1.22.94-1.47.55-3.57,1.79-2.47,1.45-4.46,2.63-5.77,4.81-1,1.7-1.16,3.27-1.37,5.63-.36,4.08.64,5.1.14,7.55-.69,3.41-3.11,3.82-4.81,6.6-4,6.47,3.52,13.47,1.1,21.84-.78,2.68-2.82,6.37-8.79,9.89a54.5,54.5,0,0,0-14.56,11.67c-5.75,6.53-11.23,12.77-11.54,21.16-.13,3.54.58,8.36-2.2,10.44-1.18.88-2.15.64-4.53,2.19a17.38,17.38,0,0,0-3.71,3.3,15.5,15.5,0,0,0-3,7.69c-1.16,6.83-5.23,12.36-8.38,16.62a40.85,40.85,0,0,1-13.19,11.4q-.4,16.14-.82,32.28a24.38,24.38,0,0,1-.41,7.28,17.18,17.18,0,0,1-1.65,5c-1.69,3.15-3.33,3.35-5,6.18-.91,1.6-1.09,2.77-1.64,5.49-1.44,7-2.33,11.45-3.85,15.11-.5,1.22-.79,1.65-5.36,8.38-11,16.14-11.58,17-12.64,19.65-1.49,3.79-1.79,6.09-4.25,10.71-2.57,4.81-4.59,6.73-5.36,7.42a23.56,23.56,0,0,1-8,4.53c-5.26,2-5.72.61-9.06,2.06-4.55,2-4.55,4.86-13.19,14.15-2.13,2.29-1.79,1.74-4.53,4.67-5.6,6-6.3,7.46-9.48,9.75a26.16,26.16,0,0,1-7.14,3.71,24.71,24.71,0,0,1-8.66,1.1c-11.94-.09-26.49,26.72-42.44,44.92a116.65,116.65,0,0,1-8.24,8.37c-4.39,4.06-7.25,6.66-11.54,8.93a43.27,43.27,0,0,1-12.5,4.12c-7.84,1.64-9.71.42-16.62,2.61-.64.21.07,0-7.83,3-8.26,3.16-8.64,3.24-10.44,4.12-4,2-4.16,2.56-5.49,2.47-3.81-.26-4-5.26-8.8-7.56-4.65-2.22-11.22-.74-12.77,2.34-.92,1.83.49,3.13-.55,4.94-.31.54-1.4,2.12-8.79,2.75-6.61.57-9.92.85-13-1.1s-2.11-3.33-5.49-5.49c-1.3-.83-5.7-3.34-10.72-1.92a10.9,10.9,0,0,0-5.36,3.29c-.3.36-1.23,1.5-2.61,5.77-1,3.09-.94,3.86-1.64,6.32a30.14,30.14,0,0,1-3.85,8.93,22.06,22.06,0,0,1-6.18,6.32,24.23,24.23,0,0,1-5.91,2.74,38.54,38.54,0,0,1-7.14,1.65c-4.94.91-9.43,4.36-18.41,11.27-2.18,1.68-4,3.16-7.14,5.22s-5.62,3.34-6.59,3.84a82.34,82.34,0,0,1-10,4.26c-11.45,3.8-28.25,2.19-29.53,2.06l-19.23,11.81-28.71.41L1455.47,1717c-.79,15.56-1.08,27.31-1,32.28a44.25,44.25,0,0,0,.41,6c.8,5.31,2.1,6.2,1.38,7.69-.88,1.8-3,1-14.43,2.61-2.13.29-4.47.65-7.14-.41a12.71,12.71,0,0,1-3.85-2.61c-3.31-3.31-4.72-10.36-3.57-18.54-.45-.92-.91-1.83-1.37-2.75q-4.31-8.55-8.79-16.62l-1-24.86-35.58-1a32,32,0,0,1-4.81-.69,24.69,24.69,0,0,1-4.12-1.24,19.88,19.88,0,0,1-5.49-3.57c-4.11-3.36-8.13-6.66-11.82-6-2.65.44-2.43,2.45-7.83,5.49a29.85,29.85,0,0,1-5.63,2.47c-4.58,1.42-8.37,1.11-12.91.69a58.66,58.66,0,0,1-11.81-2.33l-62.64-29.54,3.57-38.32c-6.3-1.51-11.33-2.37-14.83-2.88a45.76,45.76,0,0,1-8.93-1.93,32.36,32.36,0,0,1-7.28-3.29c-6.27-4-4.74-7.65-10.71-12.09a19.77,19.77,0,0,0-12-4.12,17.42,17.42,0,0,0-5.21,1c-11.3,3.93-11.27,17.63-21.71,21-.84.28,0-.09-10.57,1-9,.9-9.49,1.15-11.54.82-5.89-.94-6.57-3.71-11.68-3.57-2.66.07-2.77.83-7.55,1.65a65.23,65.23,0,0,1-9.21.68c-6.41.38-11.06.65-15.52,3-6.3,3.35-6.76,8-11.81,8.37a11.34,11.34,0,0,1-6.73-2.06c-6.81-4-7.16-10.92-11.81-11.26a8.65,8.65,0,0,0-3.85.83,8.54,8.54,0,0,0-3.71,3.15c-1.2,1.92-.59,2.93-1.51,5.09a12.29,12.29,0,0,1-3.57,4.25c-6.55,5.19-24.49-6-31,.14-1.47,1.38-1.85,3.48-2.61,7.69-.89,5,.27,6.32.55,16.08.18,6-.17,8.65-.82,11.12a34.8,34.8,0,0,1-2.34,6c-4.62,9.22-16.05,18.26-18,19.78a15.82,15.82,0,0,1-11.4,3.29,15.25,15.25,0,0,1-7.69-3.29q-.62-12.37-1.24-24.73c-5.1-.07-18.17-.24-25.41-.27h-3c-8.1.15-9.46,1.41-11.27.27-1.11-.7-1.79-3.53-3.16-9.2a53.91,53.91,0,0,1-1.51-7.56c-.28-3.43.2-4.55-.82-5.77-1.68-2-4.6-1.87-6.59-1.78-3.25.15-3.64,1.23-6,1.51s-3.45-.66-15.11-8.11c-2.26-1.44-3.55-2.26-4.39-4-.71-1.45-.8-2.91-.28-7.55a62.27,62.27,0,0,1,1.24-8.52c1.86-6.91,4.56-6.77,6.73-13.19.84-2.48,3-8.86,0-13.87-1-1.68-2.5-2.72-5.49-4.81-3.31-2.31-5.32-2.92-11.54-6.18-2.1-1.1-3.78-2-4.81-2.61l-1-29.67a15.89,15.89,0,0,0-2.61-7.14,14.29,14.29,0,0,0-4.81-4.53,17.77,17.77,0,0,0-4.67-1.65c-3-.79-3.79-.62-6-1.24a23.57,23.57,0,0,1-5.5-2.33c-2.71-1.45-9.13-2.77-25.41-2.2-2.7-26.44-1.78-34.42.27-34.89a4.71,4.71,0,0,0,1.93-.55c2.16-1.32,2.38-4.68,2.47-6,.15-2.23-.31-2.61-.41-5a22,22,0,0,1,1.1-7.42c.53-1.89,1.18-3.51,3.71-8.38s3.73-7.2,4.53-8.37c6.12-9,16.6-5.36,29-15.8a26.32,26.32,0,0,0,6-6.87c2.46-4.22,2.59-7.53,3.7-13.46,1.55-8.21,2.19-6.65,4-15.38,2.07-10.09.94-10.82,3.16-20.47,1.12-4.89,1.75-6.17,2.33-10.44,1.2-8.83-.24-12.55-1.23-14.42-.59-1.11-.87-1.27-1.79-3a50.42,50.42,0,0,1-3.16-8.1,49.85,49.85,0,0,0-3.3-7.69c-2.52-4.61-3.71-4.45-5.49-8.38-1.44-3.18-.84-3.68-2.34-7a30.89,30.89,0,0,0-4.67-7.14c-4.06-5.09-4.91-4.36-9.2-9.61a54.47,54.47,0,0,0-5.22-5.91,15.89,15.89,0,0,0-4.53-3.3c-1.32-.61-3.42-1.54-5.5-.82a5.9,5.9,0,0,0-2.19,1.51c-2.68,2.36-6.29,2.52-11.27,2.75a36.69,36.69,0,0,1-8-.55,23.56,23.56,0,0,1-6.05-1.51c-5.44-2.44-5.39-6.35-10.44-8-.2-.07-1.92-.27-5.35-.69-6.77-.82-8.49-.91-8.66-1.65-.23-1,2.92-1.53,5.91-4.67a18.34,18.34,0,0,0,4.53-9.89c.57-3.73-.58-3.69-.27-9.75.22-4.29.86-5.65-.14-6.59-1.49-1.41-4,.59-8.93-.41-2-.41-3.28-.67-4.12-1.79-1.37-1.83.23-3.64-.14-8.24a16.9,16.9,0,0,0-1.78-6.46,11.17,11.17,0,0,0-4.12-4.81c-1.34-.78-2.62-1-6.32-1.23-4.79-.26-7.19-.39-8.93-.14-4.47.65-8.77,4-17.17,10.58-4.79,3.76-6.71,5.62-8.79,4.94-1.88-.61-2-2.66-4.4-6.59a28.48,28.48,0,0,0-7.41-8.52c-4.3-3.09-8.64-3.64-13.6-4.26-3.6-.44-5.25-.15-6.6.42a16.6,16.6,0,0,0-4.67,3.29c-.26.27-.6.61-1.37,1.51-2.16,2.53-3.48,4.43-4,5.09-2,2.67-3.63,1.89-10.72,5.9-4.48,2.54-4.65,3.3-7.14,4-3.58,1-6.47.29-8.79-.14-4.55-.84-18.61-3.43-26.65,2.61a22.78,22.78,0,0,0-4.94,5.36c-2.5,4-1.44,5.44-3,7-4.48,4.42-16.62-3.82-20.33.41-.4.47-.74,1.82-1.37,4.54-.9,3.9-.65,5-1.37,7.69-.66,2.43-1.23,4.52-2.61,5.91-2.72,2.72-6.54.66-16.35.13-7.6-.41-10.42.56-17-1-2.39-.55-5.36-1.44-7.42-4-1.65-2-1-3-2.2-4.53-2.28-2.87-6.48-1.82-18.68-2.2-6.53-.21-8.49-.61-10.57-1.65-3.09-1.54-2.75-2.64-6.74-5.5-4.17-3-5.28-2.31-12.08-6.18-5.66-3.21-4.76-3.6-6.87-4.12-4-1-6.31.61-13.46-.14a15.53,15.53,0,0,1-3.16-.54c-4-1.26-4.75-3.76-7.28-5.09-3.38-1.77-7.39-.11-13.33,2.34a40.64,40.64,0,0,0-10.44,6.32c-3.68,3.08-3.36,4-6.59,6.32-5.46,4-7.34,2.19-10,5.08-4.37,4.69-.72,10.86-5.49,14.7a13.33,13.33,0,0,1-6,2.33,12.84,12.84,0,0,1-7.56-.27,12,12,0,0,1-6.18-5.91,13.31,13.31,0,0,1-1.37-4.67,15.6,15.6,0,0,1,1-8c2.34-5.5,6.64-4.72,7.55-9.06.56-2.67-1.07-3.55-.27-8.11.38-2.19.9-2.84.55-4.12-.25-.88-1-2.32-6.87-5.08a38.93,38.93,0,0,0-7.28-2.89c-6.6-1.73-9.07-.07-15.52-.55-9.34-.68-8.93-4.49-18.82-5.21-5-.37-5.3.58-12.91.13-4.22-.25-2.74-.46-11.68-1.37-5.63-.58-6.92-.56-8.65-1.79-2.18-1.53-2.58-3.26-5.22-4.39a10.87,10.87,0,0,0-4.81-.69c-11.59.12-12.16-1.45-16.07,0-4.19,1.55-6.23,4.33-7.14,3.57-.44-.36-.22-1.22.82-7,.49-2.69.53-3,.28-3.44-1-1.6-4.12-.56-10-.82-1.73-.08-.92-.14-6.87-.83-8.69-1-11.32-1-11.4-1.64,0-.2.13-.72,8.79-3.71,5.22-1.8,5.95-1.88,7.28-2.89,3.39-2.54,5.79-7.34,4.4-9.47-1-1.56-3.15-.32-8.38-1.79-3.75-1-3.54-1.93-7.56-3.16-5.32-1.62-6.93-.45-8.51-2.2-2.26-2.48-1.26-7.35-1-8.79.67-3.26,2-4.68,1.24-6.45-.63-1.41-2.16-2-3.57-2.48a58.41,58.41,0,0,0-13.46-2.74L268,1158.59l-1-24.45-3.44-2.61-20.32-.42q-.63-8.92-1.24-17.85l-20.88-13.19a8.32,8.32,0,0,1-2.61-2.33c-.77-1.08-1.15-2.2-1.92-6.73-.71-4.15-.72-5.13-1.65-5.77-1.29-.89-2.26.31-4.12-.28-2.82-.89-2.2-4.17-5.63-7.14-2.6-2.25-4.21-1.46-5.64-3.57-.94-1.39-.85-2.64-.68-6.87.39-10.07.24-12-1.1-13.05-.61-.5-.6-.12-4.4-1.65-2.79-1.12-2.59-1.24-3.84-1.65a17.62,17.62,0,0,0-7.69-.55,23.57,23.57,0,0,0-4.68,1.1c-6.88,2.22-10.32,3.33-14.69,5.63a86.58,86.58,0,0,0-8.52,5.22c-3.42,2.41-6,4.67-6.45,4.26s1.9-2.23,2.19-4.81c.45-3.92-4-7.09-7.83-10.43-5.79-5.07-2.12-3.53-14.14-16.49-7.7-8.29-9.42-9.16-15.25-16.21a105,105,0,0,1-6.6-8.51c-4.62-6.79-5-9.36-8.51-13s-6.31-4.42-10.17-6.73c-4.83-2.91-11.07-8.15-16.62-18.41l-1-34.61a7.2,7.2,0,0,1-1-4.81c.68-4,4.77-5.57,4.95-5.63q.2-14.29.41-28.57l6.18-.69L90,907.22H109.2l1.51-41.62c-.6-.68-1.24-1.37-1.92-2.06a55.24,55.24,0,0,0-4.67-4.26q.06-14.56.14-29.12A28.74,28.74,0,0,0,118,821.64a20.51,20.51,0,0,0,4.12-7.55c.51-1.74,1-3.61.28-5.63a9.72,9.72,0,0,0-2.75-3.58c-1.57-1.53-2.1-1.53-4.39-3.43a18.93,18.93,0,0,1-3.58-3.43,12.55,12.55,0,0,1-2.19-5.5,9.29,9.29,0,0,1-5.09-4.81c-.85-2.19-.38-4.33.42-8a30.43,30.43,0,0,1,1.37-4.54,31.68,31.68,0,0,1,3.3-6.31l.27-17.59c-.57-.19-1.43-.49-2.47-.82a43.06,43.06,0,0,0-6.59-1.79c-2.11-.33-2.32-.05-4-.27a16.68,16.68,0,0,1-7.42-3l-11-12.09-2.07-7.42-14-12.09L47,713c0-1.65.09-3.3.13-5l8.52-17.44L55.91,663c-.42-1-.83-2.11-1.24-3.16L0,620.82v-2.33c.18-2,.37-3.94.55-5.91l26.78-.83a10.38,10.38,0,0,0,1.1-1.92c1.82-4.08.07-6.92,1.38-10.44A9.27,9.27,0,0,1,33,595.27q1-5.43,2.06-10.85.34-11.26.68-22.53c.19-1.65.37-3.29.55-4.94l-22.8-13.46-1.65-19.78L19,513.27q.54-11.13,1.09-22.26a27,27,0,0,1,3.3-6,29.89,29.89,0,0,1,8.24-7.42C42,470.6,42.48,470.64,47.8,467a94.46,94.46,0,0,1,13.33-8.11c2.82-1.38,4.57-2,6.73-1.92,5,.27,8.46,4.58,9.61,6.18l17.31,2.47q6.93,11.2,13.87,22.39l38.88,1.65a46.1,46.1,0,0,1,14.56-11.54c4.42-2.14,5.86-1.73,10.43-4.53,2.8-1.71,5-3.57,6.74-2.75,1.24.61,1.23,2.21,1.78,3.3,1.16,2.28,5.64,4.07,20.47,1.65l15.66-11.4,34.34.55a37.29,37.29,0,0,0,7.41-.42,47.63,47.63,0,0,0,7.83-2.06,83.91,83.91,0,0,1,12.09-2.74L299.45,451l19.36-23.21,25-19.51q-.19-16.89-.41-33.79a40.71,40.71,0,0,1,1.65-5.63c3.18-8.46,8.33-13.38,13.32-22.8a16.33,16.33,0,0,0,1.51-3.85,17.56,17.56,0,0,0-.27-9.06,23.36,23.36,0,0,0-2.89-6.05,62.78,62.78,0,0,0-6.73-9.06c-9.5-10.91-10.71-11.65-10.3-12.91,1.15-3.56,12.4-2.94,19-1.51,3.86.83,9.56,2.15,12.36,7a11.44,11.44,0,0,1,1.37,3.85L405.49,316l20.88,10.57c4.5.87,6.53-.16,7.55-1.09,2.86-2.63.62-7.24.55-20.47,0-7.49.65-10.47,2.2-13.19,1.15-2,2.51-3.4,5.22-6.18a73.31,73.31,0,0,1,8.51-7.42c8.28-6.26,8.5-4.73,12.09-8.1,4.4-4.12,2.83-5.24,10.44-15.25a91.6,91.6,0,0,1,7.69-8.65c3.74-3.72,5.64-5.58,7.15-5.5,4.36.24,4.16,9,12.08,14.84,2.71,2,5.1,2.7,9.89,4.12a70.27,70.27,0,0,0,19.92,2.75c13.91.17,26.44-.3,35.85-.83a6.33,6.33,0,0,0,3.44-1.51c2.08-1.91,1.81-4.77,2.33-7.42.49-2.45,1.87-5.87,6.05-9.61a30.48,30.48,0,0,1,1.92-9.34c1.85-4.89,3.45-5.18,6.18-10.3a45.5,45.5,0,0,0,5-17.59,49.1,49.1,0,0,0,0-8.65c1.76,0,4.43,0,7.69,0,7.69.11,11.54.16,14,.28,5.92.27,8.47.61,10.85-1.24,1.07-.83,1.11-1.34,2.47-3.16,3.32-4.44,5.23-4.34,8.79-8.1,4.57-4.82,3.26-6.92,7.15-9.34.94-.6.5-.15,7.14-2.48,5.22-1.83,6.62-2.5,8.79-2.19a9.9,9.9,0,0,1,5.22,2.61l-1.65,29.12a23.54,23.54,0,0,0,5.77,5.22c6,3.77,9.78,2.17,14.7,5.21s7.09,8.58,8.1,11.27c2.55,6.78,1.31,12.31,5.91,17a11.16,11.16,0,0,0,2.2,1.79c4.28,2.55,8.51.59,11.53.82,3.25.24,7.78,3.19,12.78,16.21q13.39,24.58,26.78,49.17l.69,35.44a25.32,25.32,0,0,1-.55,5.91c-1,4.59-3,7.85-6.18,12.77-1.72,2.69-2.08,2.93-4.81,7.15-1.53,2.37-3,4.8-3.43,5.49-1.22,2.13-3.44,7.8.69,21.43l39.14,29.53,31.05,1.38a105.88,105.88,0,0,1,9.61,4.67c11.38,6.25,15.91,11.51,29.4,20.74,4.59,3.14,8,5.26,11.12,7.14,17.12,10.48,22.77,11.66,30.5,19.51,3.72,3.77,6.78,6.88,8.65,12.08,2.2,6.13,2.12,13.41,2.06,19.23-.06,5.29-.52,6.64.41,9.62,1.38,4.39,3.39,4.66,6,10.3,2.09,4.44,1.37,5.4,3.43,10a40.18,40.18,0,0,0,5.91,9.34c9.89,12.28,24.44,16.71,25.55,17,6.34,1.85,6.82.6,19.64,2.75,8.08,1.35,14.59,3,18.82,4.12l40.24,19,95.88-.14,28.16,20.88,43,23.35,42.86,1.65q.62,5.63,1.24,11.26h27.2l34.06-23.9,56-9.34,10.58-1.1,7.83-5,50.82.28a32.91,32.91,0,0,1,6.73-3.85,33.73,33.73,0,0,1,13.88-2.61c35.15-31.56,56.66-49.86,65.93-56,1.94-1.29,9.07-5.86,8.38-10.44-.16-1.07-.75-2.17-4-4.94-6.69-5.74-8.67-4.88-11.27-7.83-3.63-4.13-3.41-10-3-20.47.16-4.18.23-6.28,1.1-8.38,1.94-4.72,5-5.34,13-11.54,9.34-7.18,11.67-11.27,16.21-10.57,1.9.29,2.81,1.21,5.35,3.16,2.83,2.16,10.73,8.22,17.59,10.57,4.3,1.48,10,1,21.56.14,5.12-.4,9.37-.94,12.36-1.37L1598.88,462l27.88-1a33.76,33.76,0,0,0,6.18-2.33c3.44-1.71,4.85-3.15,9.75-6.46a69.6,69.6,0,0,1,6.73-4.26c7.06-3.63,9.89-2.38,11.54-5.08,1.88-3.08-1.26-5.59.28-10.3,1.2-3.71,3.58-3.52,6.87-7.56,6.07-7.47,2.91-14.22,8-17,2.58-1.43,3.41.32,9.48-1.1a26.2,26.2,0,0,0,9.07-3.71c3.77-2.57,3.58-4.28,9.61-11.12,3.54-4,5.31-6,7.28-6.87,3.71-1.61,5.43-.21,12.23-1.79a29.75,29.75,0,0,0,6.73-2.2c5.68-2.74,6.15-5.66,10.16-7.28,2.51-1,3.2-.22,11,.42,11,.89,18.82.08,19.51,2.61.22.83-.52,1.32-.14,2.33.7,1.85,4.2,2.78,6.45,1.92,1.94-.73,2.56-3.54,3.3-8.65,1.53-10.54,2.3-15.81,1.37-17.86-2.32-5.14-6.33-4.11-15.24-12.36-1.82-1.68-1.19-1.29-7.83-8.65-12.34-13.67-14.78-15.29-17.31-16.49-1.77-.83-5.35-1.56-12.5-3-8.83-1.8-13.33-2.68-17.86-1.78-4.9,1-8.3,3.19-11.81,5.49-7.63,5-7.06,7.69-13.74,11-2.69,1.33-8.2,4-13.18,2.06-.83-.32-.77-.43-4-2.06a76.79,76.79,0,0,0-7.82-3.71c-5.24-1.83-6.7,1.15-14.84.69-3.79-.22-7.92-.45-11.26-3.44a14.32,14.32,0,0,1-4.26-8.38c-1.22-6.57,2-11.78,2.88-13.32a24.43,24.43,0,0,1,3.85-4.67c7.62-8,4.77-14,11.67-24.31,5.11-7.6,8.2-6.59,10-12.64,1.14-3.76-.16-3.81,1-14.56.57-5.41.65-3,1.93-12.22.63-4.59.69-5.73,1.78-7,2.62-3.07,7.91-3.09,11.4-2.2,4.56,1.17,5.56,3.77,9.34,5.91,7.33,4.15,16.19,1.55,17.72,1.1,12.87-3.78,23.5-19.38,31.6-27.34a5.42,5.42,0,0,1,1.23-1c3.21-1.78,6.28,1.1,9.62.41,3.18-.66,4.92-4.23,5.63-5.63,1.31-2.58,1.47-5.29-.55-16.21-1.87-10.07-2.72-11.68-2.75-16.48a48.82,48.82,0,0,1,1.51-11.26c2.77-10.4,8.43-12.84,18.55-26.38,11.38-15.23,6.41-15.09,16.07-29.12,1.12-1.62,4.58-6.56,2.88-10-1-2-2.59-1.5-4.26-3.58-3.67-4.57-.92-13.22-.41-14.83,1.18-3.72,2.7-5.6,1.65-7.42a4.43,4.43,0,0,0-4-1.92c-2.06.12-2.68,1.74-5,3.3-3.8,2.6-9.35,3-10.57,1.23-.66-1,0-2.47.55-3.71,1.73-3.93,4.52-5.15,6.73-7.41,3.81-3.92,2-7,4.67-12.23,1.58-3.08,3-3.54,15.52-11.81,11.45-7.57,12.39-8.58,17.85-11.54,6-3.25,9-4.87,12.92-5.91,5.68-1.51,7.81-.71,19.64-1.51,7.17-.48,10.76-.72,13.74-1.37,8.92-2,10.08-4.58,21.29-7.28,4.64-1.12,8.13-1.56,12.08-.83A32.28,32.28,0,0,1,1895.71,3a70.81,70.81,0,0,1,11.4,6.46c9.07,6.45,20.86,9.4,31.05,14.7,14.9,7.75,23.34,19,33,31.73,7.45,9.88,4.72,8.85,21.29,35.71,12.81,20.76,13.94,20.7,19.1,31,6.42,12.9,6.24,16.15,14,30.36,6.94,12.69,7,10,12.63,20.88,2.61,5.05,3.63,7.66,6.87,9.89,1.5,1,4.34,2.57,16.62,3.57,4,.32,6,.35,11.13.55,18.4.71,16.25,1.26,23.9,1.24,10,0,12.12-1,16.62,1,2.46,1,3.28,1.94,9.2,6.45,7.8,5.94,7.34,5.12,13.19,9.62,9.13,7,13.69,10.54,17,15.11a55,55,0,0,1,7.42,14.7c3.89,10.95,2.31,15.65,6.73,18.95,1.06.79,4.89,1.27,12.5,2.2,8.74,1.06,12.66,1.3,17.31,1,4.95-.36,7.26-1.09,9.2-2.33,2.25-1.44,3-2.85,5.22-4.95,3.17-3,5.46-3.73,9.62-6,6.71-3.73,11.4-7.75,18.4-13.74,4.51-3.85,4.31-4.11,7.83-6.87a90.92,90.92,0,0,1,12.5-8.24c7.06-3.82,7.26-2.61,11.95-5.49,8.05-5,10.32-10.27,12.64-9.34,2.07.83.71,5.21,2.88,12.08,1.78,5.64,3.67,5.79,6.32,11.27C2298.08,234.41,2296.65,244,2295.57,251.32ZM1477.72,1781.38c-6-.47-7.18,0-7.83.27-2.73,1.27-3.41,3.51-5.08,3.3-1.42-.17-2.35-2-2.88-3.3l-53.85-.41-4.67,3.57a39.61,39.61,0,0,1-4,5.91c-2.35,2.9-3.7,3.72-8.66,8.52-3.43,3.32-2.86,3-6,6-2.86,2.73-4,3.64-8,7.28-1.73,1.59-3.87,3.58-6.31,5.91l-.42,35.44a12.47,12.47,0,0,0,3.3,7.14c3.68,3.65,7.56,1.76,15.52,5.08,5.72,2.39,5.28,4,9.89,5.08,2.94.68,6.08.36,12.36-.27,5.54-.56,8.31-.84,10.72-1.79,3.36-1.32,5.09-3,10-7.83,9.5-9.23,14.25-13.84,16.62-16.07,1.12-1.06,4.76-4.46,9.34-9.2,4.16-4.31,5.11-5.58,5.9-7,2.8-5,2.31-9.43,2.61-12.63.5-5.14,3.54-12.19,15-20.33a13.08,13.08,0,0,0,4.67-7,12.82,12.82,0,0,0-.14-6.73C1482.58,1781.82,1479.81,1781.54,1477.72,1781.38Z"/></g></g></svg>