<svg xmlns="http://www.w3.org/2000/svg" viewBox="0 0 1986.58 2741.68"><g id="Layer_2" data-name="Layer 2"><g id="Colombia"><path d="M471.93,521.84A33.91,33.91,0,0,0,463.79,533c-2.57,5.49-2,7.66-3.54,12.58-2.27,7.29-7.18,12.59-17,23.19-4.6,5-7.32,7.27-11.34,12.93-3.51,4.94-2.79,5.1-5.31,8.15-5.84,7.08-9.39,5.87-15.58,12.75-4.33,4.8-3.69,6.61-7.44,9.38-3.27,2.43-9.56,5.41-13.46,3.9a8.14,8.14,0,0,0-3.36-.71c-.68,0-2.66,0-3.72,1.06-2.06,2,1.4,5.79-.18,9.74-1.33,3.34-5.78,5.61-9.2,5.14-2.78-.39-3.22-2.34-5.67-2.31-3,0-3.53,2.94-6.91,4.79-5.22,2.86-8.6-1.5-15.05.88-.49.18-7,2.67-7.61,7.79a8.7,8.7,0,0,0,3,7.26c3.9,3.42,8.08.64,11,3.72,2.58,2.76.11,5.92,3,9.39,2.39,2.87,5.06,1.86,6.73,4.42,1.4,2.16.4,4.26-.89,10.27-1.93,9-2.91,13.52-1.24,18.24,1.41,4,3,3.19,4.25,7.44,1.62,5.37-.58,7.63,1.42,12.57,1.48,3.68,2.91,3,4.07,6.38,1.45,4.29.84,10.3-3,13.81a10.86,10.86,0,0,1-4.07,2.3c-19.52,2.16-24.65.93-25.15-.88-.37-1.35,1.59-3.89,2.84-5.49,2.37-3.08,4.33-3.9,4.07-4.79-.46-1.56-6.53,1-10.1-1.77-3.17-2.45-1.92-7.19-3-16.46-1.06-9.06-1.06-11-2.65-12.75-2.83-3-7.61-3.15-11-2.84Q292,663,266.35,632.87a14.25,14.25,0,0,0-6.38,3,14.55,14.55,0,0,0-3.36,4.07,17.79,17.79,0,0,0-2,9.74,23.6,23.6,0,0,0,1.24,7.08,25,25,0,0,0,3.9,7.09c4.25,5.91,2.35,9.57,5.13,16.46,4.2,10.44,10.76,8.06,14.52,18.07,2.37,6.3-.07,7.69,3.19,16.64,1,2.77,2.35,5.68,5,11.33,3,6.42,3.59,7.26,4.25,10.1a29.66,29.66,0,0,1,.35,11.33c-.43,2.93-.64,4.4-1.42,5.14-1.59,1.5-4,1.25-15,.88-2.3-.08-3.75-.1-4.6.89-1.39,1.6.28,4.13.53,7.08.44,5.22-3.91,7.86-10.09,16.29-1.91,2.6-.34.78-8.86,14.7-6.63,10.84-8.16,12.9-10.62,15.23-2.31,2.17-9.43,8.9-13.64,6.9-3.45-1.63-1.13-7.32-5.31-14.69-3.89-6.86-11.46-11.78-14.52-10.1-1.32.73-1.73,3.92-2.48,10.27-.4,3.4-.6,6.26-.71,8.32q-.44,10.63-.88,21.25l-14.7-2.3a44.28,44.28,0,0,0-4.43,13.11c-1,6.3,0,8.91-2.3,13.45-2.11,4.14-4.35,4.65-4.78,7.62-.57,4,2.8,7.79,5.84,10.45l30.11,29c-4.6,4.62-6.15,8.77-6.73,11.68-.52,2.62,0,3.09-.53,8.33-.69,7.16-2,10.16-.89,10.8,1.43.82,4-4,10.09-5.14a9.48,9.48,0,0,1,5.32.18c2.75,1,4.18,3.39,6.19,6.73a32.8,32.8,0,0,1,2.84,6c1,2.82.71,3.12,1.77,6.73,1.47,5,2.85,7.15,3.72,8.32,1.14,1.55,2.17,2.9,3.72,3,1.28.09,2.31-.71,4.07-2.12,2.62-2.1,2.7-3.16,4.07-3.72,2.42-1,5.37,1,6.55,1.77,5.07,3.38,3.76,6.75,9.21,13.46,3.26,4,5.66,5.19,6,8.67a10.2,10.2,0,0,1-1.06,5.32c-2.24,5.08-6.14,5.3-8,9.91a12.84,12.84,0,0,0-.71,5.31c.33,23,.69,31.83-2.3,33.12s-7.54-5.66-9.74-4.25.39,8.79,1.06,10.8a51.61,51.61,0,0,0,7.44,14c8.35,11.68,8.86,9.5,12.22,15.4,4.2,7.39,7.18,17.47,6.9,24.62a36.51,36.51,0,0,0,.18,6.2c.47,4,1.43,6.14,2.13,8.85.49,1.94,1.84,7.19.71,12.22-2.22,9.81-12.91,14.52-14.17,15a29.52,29.52,0,0,1-9.21,2.12c-8.51.75-12.81-2.16-15.23.36-.51.53-.46.81-1.24,8.14-.66,6.23-.78,6.9-.17,7.8,1.54,2.26,4.44,1,9.2,3.36a20.77,20.77,0,0,1,5.67,4.25c4.33,4.83,4.35,11.91,4.25,21.6-.05,5.26-1.47,9,.89,11.34a6.33,6.33,0,0,0,4.07,1.59l.18,52.42c.63,1.82,1.59,4.53,2.83,7.79,1.64,4.32,2.43,6.06,3,7.61,1.05,2.85,1.78,6.14,2,15.41a195.17,195.17,0,0,1-.89,22.49c-.19,1.93-.13,1.05-3,20.18-1.8,12-2.36,15.9-5.49,20a34.78,34.78,0,0,1-6.9,6.73c-2.81,2-6.06,3.47-6,3.54s5.78-4.31,9.74-2.48c2,.91,1.28,2.55,3.9,5.14a17.71,17.71,0,0,0,7.61,4.43,28.06,28.06,0,0,0,4.79.88c2.9.24,4.17-.19,4.6.53.57,1-.8,3.4-2.3,3.54-1.1.11-1.62-1.07-3-2.12-2.09-1.57-3.48-.83-8.68-1.59-3.05-.45-8.38-1.23-9-3.72-.21-.81.22-1.23-.18-2-1-1.73-4.91-2-5.66-.71-.46.78.3,2,.7,2.66,1.12,1.8,2.76,2.84,5.49,4.07a31,31,0,0,0,8,2.83c2.44.44,4.38.42,7.09,1.77.36.19,2.26,1.14,2.12,1.6s-3.18-.47-8.15-.36c-2.62.07-3.32.39-5.13,0a12.72,12.72,0,0,1-4.6-2.12c-5.43-3.65-6.74-7.54-8.33-7.08-.73.21-1.08,1.73-1.77,4.78-.81,3.58-1.2,5.42-.53,7.43a8.65,8.65,0,0,0,2.48,3.72,5.85,5.85,0,0,0,2.83,1.6c2.24.34,3.27-1.73,8.68-4.61a8.31,8.31,0,0,1,4.43-1.06c.78,0,1.75.26,1.77.53s-1.37.32-3,1.24-1.27,1.38-3,2.48c-1.24.78-1.58.65-3,1.59a6.27,6.27,0,0,0-1.95,1.6c-.85,1.26-.45,2.68-.18,4.78a41.44,41.44,0,0,1,.18,6c0,4.87-.88,5.57-.18,8a18.54,18.54,0,0,0,2.48,4.25,33.19,33.19,0,0,0,5.84,6.73c2.22,1.9,3,2,3.37,1.94,1.26-.06,2.25-1.08,4.07-3.71a72.42,72.42,0,0,0,3.9-6.38c5.23-9.42,3.85-5.87,6.37-10.62a6.89,6.89,0,0,1,1.77-2.48,7.21,7.21,0,0,1,8.33-.18c1.71,1.21,3.4,3.67,2.83,5.84-.48,1.82-2.63,2.83-6.91,4.78s-5.24,1.68-6.73,3.19-2,3.3-3,6.38c-.85,2.75-1.28,4.12-1.06,5.84.17,1.37,1.36,3.23,3.72,6.91,2.06,3.2,2.77,4,3.54,4.6a14.51,14.51,0,0,0,4.07,2.3c4.33,1.45,7.83-1.26,13.64-3,8.34-2.51,15.2-1.19,15.23-.88s-6.08-.26-11,3.71a12.75,12.75,0,0,0-4.25,5.67c-1.78,5.11,1.92,7.26,1.59,15.58-.23,6-2.28,8.3-3,9a9.93,9.93,0,0,1-3.72,2.3l-28.68,27.62c1.6,9-.16,12.65-2.13,14.34-1.2,1-1.67.63-5.49,3a46.83,46.83,0,0,0-6.9,5.14c-1.52,1.38-1.62,1.67-3,2.83a45.19,45.19,0,0,1-5,3.37c-5.16,4.12,6.94,21.47.71,30.63-1.14,1.67-3.57,4.07-5.49,3.54s-2.62-3.77-2.84-4.78c-1-4.53,1-7.66.18-8.14s-2.54,2.37-7.44,6.55c-2.54,2.17-3.38,2.53-4.6,4.25-.79,1.11-3.47,4.89-1.95,7.08,1.32,1.91,5.43,1.2,6.2,1.06,3.7-.63,4.94-2.68,6.55-1.94s2.22,3.26,1.42,4.25c-.57.7-1.78.43-3.72.17a37.14,37.14,0,0,0-12.75.36c-2.28.56-3.49.86-4.07,2-1.33,2.47,1.5,7.22,4.42,9.91,1.41,1.29,2,1.38,2.84,2.66.27.43,2.35,3.87.53,7.08a6.94,6.94,0,0,1-5,3.19l-22.84,25.14c-.28,3.91-1,10.19-3.19,15.23a3.9,3.9,0,0,1-2,2.3c-2.21.87-6-1.37-7.61-4.42-.91-1.71-.8-3.06-1.77-3.37-1.29-.41-3,1.5-3.37,2-2.62,3-2.07,5.61-3.36,9.92-.46,1.54-.48,1-7.79,12.92-2.35,3.83-2.86,4.71-4.08,5-3.8.8-9.26-5.6-9.91-6.37-1.68-2-2.45-3.57-3.9-3.54-1.28,0-1.68,1.26-4.25,2.83-1.41.86-3.4,2.07-4.43,1.42-.79-.51-.46-1.79-.35-5.67.1-3.62.15-5.42-.35-7.44a17.13,17.13,0,0,0-2.66-5.49c-1.82-2.77-3.67-5.6-5.31-5.31-2,.34-3.43,5-2.84,9s3,5.21,2.66,8c-.25,1.93-1.75,4-5.67,6l-15.4,25.5-27.8-28.69q-15.31,20.55-30.64,41.08c.18,7.67-1.67,12.86-3.54,16.3s-4.9,7.14-3.54,10.09c.77,1.66,2.53,2.23,3.19,4.78a8.54,8.54,0,0,1,0,3.54c-.43,3.36.25,8.07,2.3,10.8,2.34,3.13,4.88,1.56,10.27,5.67,2.05,1.57,3.5,2.67,4.6,4.6,3.46,6-1.4,11.34,2,15.59,2.13,2.69,5.49,2.35,5.85,4.78.3,2.07-1.93,3.91-2.13,4.07-1.11.89-2.36,1.25-6.37,1.42-6.54.27-8-.47-11.69.53-1.9.52-1.48.72-3.9,1.42a22.66,22.66,0,0,1-9.21,1.06c-1.49-.18-1-.32-4.25-.89-3.54-.63-3.81-.41-6-.88-4.09-.88-4.57-1.94-6.19-1.6-2.63.56-3.93,3.85-4.61,5.32C13.66,1772.27.67,1772,0,1779.09c-.31,3.45,2.67,4.47,12.93,16.82,3.21,3.87,1.85,2.49,8.32,10.63,11.27,14.18,17,21.34,21.6,24.79,3.87,2.9,8.25,5.18,17,9.74,10.17,5.29,12.28,5.47,15.76,9.21a123.82,123.82,0,0,0,9,9.38c3.37,3.1,4.49,3.72,5.84,3.72,3.23,0,4.44-3.55,9.38-5.49a18.78,18.78,0,0,1,5.85-1.06c2.68-.21,4-.31,5,.35,2,1.42.67,4.53,1.41,8.68.78,4.37,3,5.37,7.09,11.51,4.79,7.25,3.34,8.39,6.55,12.75,4.52,6.15,7.88,4.54,18.59,11.69,10.51,7,10.24,10.54,18.95,14a48.87,48.87,0,0,0,13.63,3c6.7.72,10.71,1.14,15.05-.88,1.81-.84,2.71-1.66,5.14-2.3,2.08-.55,6.06-1.61,8.85.35,2,1.42,2.58,3.84,3.72,8.68.92,3.89.38,4.2,1.24,5.84,1.71,3.27,5.18,4.62,8.32,5.85,5.4,2.1,6.28.67,10.63,2.83,3.48,1.73,4,3.18,6.9,3.89,4,1,5.77-1.84,7.62-.7,2.84,1.73,1.64,9.44-.18,14.52-1.51,4.22-2.51,4-3.89,7.79-.4,1.1-4.21,11.61.53,16.64,2.29,2.43,5.73,2.69,12.39,3.19,5.91.44,6.6-.6,10.27.35,5.23,1.36,5.28,3.84,10.1,5.49,2.69.93,6.9.52,15.23-.35,9.19-1,11.39-1.7,14.16,0a13.13,13.13,0,0,1,5.14,6.55c1.29,3.66.23,6.46,2.48,8.68a6.47,6.47,0,0,0,3,1.59c7.36,2.09,13-1.46,21.07-.35,6.07.84,7.64,3.52,13.81,3.54a32.91,32.91,0,0,0,7.26-.89c2.45-.62,3-1.1,4.61-1.59,2.45-.73,4.08-.49,13.1,1.06,7.95,1.37,8.61,1.51,9.92,2,4.2,1.43,4.47,2.42,8.32,4.07,3.29,1.42,10.69,4.61,18.06,2.13a27.1,27.1,0,0,0,8.32-5,13.85,13.85,0,0,0,2.66-2.66c3.87-5.77-3.52-13-.36-18.59.85-1.48,1.28-.77,10.27-5.49,7.12-3.73,7.85-4.7,10.45-4.78,2.79-.09,5.32,1.24,10.27,3.9a92.75,92.75,0,0,1,9.74,6A74.07,74.07,0,0,1,482.74,2002c3.91,3.11,3.08,3.12,12.21,11.87,18.85,18,18.73,14.51,22.85,20.71,1.58,2.38,4.18,6.8,9.21,8.33a14.8,14.8,0,0,0,5.84.35c10.47-.59,19.64,4.57,22.84,6.38,7,3.94,5.39,5.79,12.57,9.56,4.1,2.15,3.82,1.13,15.23,5,9.79,3.28,12.42,4.85,17.89,4.6a34.32,34.32,0,0,0,8-1.42,37,37,0,0,0,11.15-5c2.81-1.88,2.9-2.57,4.43-2.83,2.82-.48,4.8,1.46,9.21,4.07,4.89,2.9,5,2,8.67,4.25,8.49,5.15,15.06,14.23,16.3,15.94,1.35,1.88,3,4.32,6,5.31a10.75,10.75,0,0,0,6.55-.17c3.7-1.35,3.81-3.85,6.55-4.61,3.31-.91,6.73,1.77,9.21,3.72,5.23,4.11,7.68,9.65,8.85,12.4,2.4,5.59,1.46,6.9,3.54,8.67,3.5,3,6.91-.08,13.11,2.48,1.5.62,2.22,1.18,9.2,7.26,4.86,4.23,7.43,6.18,8.5,7.44,2.33,2.74,2.87,4.22,5,5,3.14,1.11,4.66-1.24,7.26-.36,4.82,1.64,5.76,11.77,5.85,12.75.45,5.44-1.11,8.09,1.06,10.81a9.9,9.9,0,0,0,4.43,3.18c1.61.48,2.24.06,3,.71,1.59,1.35,1,4.93.17,7.08-1,2.56-2,2.71-2.12,4.61a5.52,5.52,0,0,0,2.12,4.6,6.46,6.46,0,0,0,3.37.89c5.51.8,8.84,8.34,9.21,9.21.72,1.7,1,3.12,1.24,9.56.53,13.82-.3,16.75,2.12,19.3.85.9,1.22.82,9,3,8.42,2.36,13.16,3.91,15.23,4.6,5.56,1.87,8.4,2.84,11.69,4.78,3.77,2.24,4.57,5.8,7.61,5.85,2.12,0,2.67-1.4,5.49-1.42a9.67,9.67,0,0,1,5.67,1.95c2.17,1.71,1.59,3.06,4.07,7.61,2.12,3.91,2.68,3.16,5.14,7.62,1.34,2.44,1.64,3.5,3,4.43,1.91,1.29,4,1,6,.88a48.08,48.08,0,0,1,14.87,1.77c5.63,1.38,5.32,2.53,9.74,3,2.82.31,4.59,0,6.55,1.42,1,.7,1.85,1.95,3.54,4.43.52.75,1.92,2.8,2.84,4.42,3.39,6,1.79,9.09,4.95,15.58,1.76,3.62,2.64,3.44,5,8.33,1.37,2.87,1.15,3.11,2.84,6.55,1.42,2.91,2.27,4.17,3.54,7.26a18.72,18.72,0,0,1,1.41,4.07c.57,4.07-1.71,7.55-2.83,9.21-3.6,5.34-6.66,4.66-7.44,7.61-1.59,6.1,10.16,13.87,11.16,14.53a39.28,39.28,0,0,0,13.46,5.31c4.77,1,5.1.12,10.8,1.41,4,.92,5.66,1.75,7.26.71,1.93-1.25,3.35-4.94,3.9-6.37.46-1.2.54-1.7,1.06-1.95,1.3-.62,3.25,1.35,6.73,4.25,4.5,3.76,4.15,2.88,6.37,5,2,1.89,6.13,5.71,8.15,11.33,1.5,4.18-.18,3.7,1.24,12.22a74.78,74.78,0,0,0,3.54,13.46c1.71,4.6,2.05,4,2.12,5.31.38,7-10.33,8.48-12.57,18.06a22.18,22.18,0,0,0,.53,10.45,16.56,16.56,0,0,0,2.48,5.31c1.83,2.52,3.94,3.81,6.73,5.49a29.15,29.15,0,0,0,6.2,3c5.57,1.87,6.33,0,9.38,1.59,2.59,1.39,2.6,3.07,8.15,10.63a13.17,13.17,0,0,1,1.42,2.3c1.15,2.45.72,3.63,1.41,4.43,1.24,1.42,4.79.19,9.21-1.42,9.84-3.57,14.75-5.36,15.76-5.84,4.9-2.37,7.48-4.14,9-3s.25,3.77,2.3,5.84a6.09,6.09,0,0,0,5.67,1.42c2.55-.68,3.89-3.08,5.13-5.31,2-3.53,1.48-5.24,2.84-5.85,1.87-.83,3.69,2,8.14,4.43,5.79,3.11,7.84,1,13.82,3.89,4.7,2.26,3.44,3.55,8.85,6.73,2.53,1.49,8.47,4.88,16.11,4.43a27.41,27.41,0,0,0,8.5-2c4.48-1.84,4.27-3.25,7.79-4.07s5.17.25,9-1.24a15.93,15.93,0,0,0,3.36-1.77c4.07-2.83,3.55-5.43,7.26-8.5a19.8,19.8,0,0,1,6-3.19,30,30,0,0,1,7.26-1.77c8-.84,9.76,3,15.23,2,6-1.14,9.71-6.89,10.62-8.32,3-4.76.94-6,4.43-13.11.56-1.13,3.6-7.11,9.39-10.27a5.24,5.24,0,0,1,3.36-.88c3.4.5,6,5.66,6,5.66a4.15,4.15,0,0,0,1.06,3.37c1.33,1.22,3.32.59,7.62.35,0,0,2.11-.11,5.84,0a43.49,43.49,0,0,1,11.69,2.13,104.17,104.17,0,0,1,10.27,4.07c3.78,1.62,5.4,2.14,7.61,3.36,3.2,1.77,4.84,2.58,5.85,3.9,2.1,2.75.8,4.66,2.3,9.74.94,3.21,3.31,8.74,5.84,8.68,1.4,0,1.68-1.75,4.43-5.14,2.37-2.91,5.69-7,9.74-7.08,1.37,0,2.92.74,6,2.3,4.8,2.41,5.56,3.92,7.79,3.72,2.4-.22,4.13-2.21,5.14-3.37,1.81-2.08,1.4-3.09,3.54-6.19,1.49-2.18,2.26-3.3,3.72-4.08,3.89-2.08,8.81.33,9.2.53,3.44,1.75,4,4.16,5.85,3.9s3-3.14,3.89-5.31c1.92-4.89.82-7.48,3-9.21a6.4,6.4,0,0,1,3.9-1.06,14.59,14.59,0,0,1,8.32,2.48c5.45,3.22,4.22.82,17.53,6.73a139.21,139.21,0,0,1,14.17,7.26c3.57,2,5.27,3.12,6.91,5.13a26,26,0,0,1,4.25,8.86c1.73,5.37.78,5.93,2.12,7.61,2.09,2.61,6,2.86,13.81,3.36,5.33.35,8,.52,10.45.18,3.67-.5,6.17-1.48,8.15,0,.76.58,1.27,1.62,2.3,3.72,1.8,3.68,1.46,4.54,2.48,5.31,2,1.53,6,.11,8.32-1.41,4.5-2.91,4.48-6.94,7.08-7.09,1.64-.09,3.16,1.71,6.2,5.31a57.59,57.59,0,0,1,4.25,5.85c5.48,8.25,4.89,7.53,5.49,8.32,5.49,7.26,8.33,6.2,11.51,12.22,1.08,2.05,2,4.52,3.19,4.43.69-.06,1.35-1.22,2.65-3.55,1.41-2.51,1.42-3,2.13-3.36,1.59-.76,4.09.69,5.49,2.3,1,1.13,1.48,2.43,2,5.31,1,6,1.5,9.33-.36,12.93a13.37,13.37,0,0,1-4.78,5.14l-99.16,156.53a10.9,10.9,0,0,0,.17,3.72c.25,1.09.8,3.53,2.48,4.78,3,2.26,6.74-1.51,11,.71,1.75.92,1.31,1.65,3.54,3,2.58,1.57,4.85,1.61,7.62,1.95,6.77.83,6.34,2.2,10.8,2.48a26.65,26.65,0,0,0,13.28-3c6.77-3.29,7-6.57,11-6.55,3,0,5.63,2.07,10.8,6.19a76,76,0,0,1,5.67,5.14c1.11,1.13,2,2.11,2.65,2.83l45.87,51.35q43.11-232.23,86.23-464.47c-.32-13.85-.71-25.93-1.06-36.48a80.1,80.1,0,0,0-2-16.29,77.8,77.8,0,0,0-3.89-12.22l-25.5-35.41a33.54,33.54,0,0,1,2.48-9c1.4-3.22,2.59-4.51,3-7.62.26-2-.17-1.77-.18-6,0-4.53.48-5.36,0-7.61a13.47,13.47,0,0,0-2.48-5.32c-.41-2.53-.83-5.07-1.24-7.61l-70.65-51.18c-.42-1.35-.83-2.71-1.24-4.07q.09-59.67.17-119.35l37.9-.35c-.59-4.78.44-6.74,1.59-7.62,1.43-1.09,3-.43,6.56-2.12a24,24,0,0,1,2.83-1.42c1.92-.64,3.12-.43,5.49-.53,3.64-.16,3.2-.77,5.49-.71,2.55.07,3,.84,8.14,2.13a19.49,19.49,0,0,0,4.61.88,11.07,11.07,0,0,0,8.14-5c2.54-3.78.61-6.11,3.37-9.38a8.64,8.64,0,0,1,5.84-3.19c1.5-.06,3.13.41,6.55,3a52.64,52.64,0,0,1,7.44,7.09c5.46,5.85,8.2,8.78,11.86,9.91,4.18,1.29,4.2-.94,12-.35,7.16.53,9.56,2.58,12.92.71.18-.1,2-1.43,5.49-4.08,2-1.51,2.29-1.72,2.48-2.12,1.32-2.8-6.17-5.8-8.32-11.69-1.29-3.52-.07-6.86,1.95-12.75,2.25-6.59,4.45-7.59,4.42-12a17.4,17.4,0,0,0-2.83-8.85c-2.15-3.65-3.53-3.51-6.91-7.44-4.58-5.34-3.66-7.48-8.14-12.75a24.88,24.88,0,0,0-7.44-6.55c-4.47-2.35-8.06-1.74-20-.71,0,0-6.41.55-19.66,1.42-10.89.71-14,3-18.23.7-3.81-2.12-4.57-5.32-8.5-5.66-1.47-.13-1.24.32-8,2-4,1-3.47.65-7.26,1.59a29.17,29.17,0,0,1-5.31,1.06,19.8,19.8,0,0,1-4.61-.18l2.13-104.65,39.84-.18a19.42,19.42,0,0,1,5.49-6c1.57-1.11,6.05-4.29,11-3.36,3.54.67,4.19,2.87,9,5.67a30.87,30.87,0,0,0,9.56,3.54l201.87-.36-19-20a36.61,36.61,0,0,0,8-12.39,17.17,17.17,0,0,1,3.36-5.85c1.3-1.44,2.91-3.24,5.14-3.36,3.76-.2,6.63,4.55,7.08,5.31,2.06,3.53.67,5,3,8.15.77,1,.8.7,4.25,4.07,2.95,2.89,2.63,2.82,3.9,3.9s1.8,1.29,6.55,4.25c4.27,2.65,4.23,2.72,4.78,2.83,3.43.68,6.66-1.77,9.39-3.9a37.85,37.85,0,0,0,6.9-7.26c4.22-5.34,7.53-9.79,9.92-12.92,7-9.25,8.6-10.61,11-11,1.47-.23,2,.11,7.61-.18,2.86-.15,2.92-.25,5.31-.35,6.13-.27,6.55.35,7.62-.36,2.57-1.7.41-5.42,2.83-11.15.44-1,2.32-5.49,6.55-7.79,3.7-2,5.06-.13,11.69-1.6,3.62-.8,7.91-1.75,11.33-5.13,2.88-2.85,2.83-5.12,5-5.49,2.73-.48,5.85,2.73,7.26,5.66.78,1.62,1,3.11,1.06,7.44.11,11.17-1.35,14.42.89,19.13.62,1.29.93,1.47,2.12,3.89,2.46,5,2,6,3.55,7.79,1.21,1.42,3.16,2.24,7.08,3.9,4.64,2,4.93,1.35,6.73,2.65,2.78,2,2,3.4,5.49,6.73,2.21,2.11,3.06,2.07,4.78,4.08a19.47,19.47,0,0,1,3,5.31c3.61,9.76-3.73,29.35,2.12,33.64.68.5,1.83,1,4.08,2.66,3.3,2.42,3.85,3.53,4.07,4.25a6.54,6.54,0,0,1-.53,4.25c-1.49,4.5.82,6.51,2.12,16.82.7,5.49,1,8.24,0,9.92-2.55,4.12-7.89,2.36-10.27,6.55-2,3.58-.13,8.41.53,10.09,1.15,2.91,3,3,4.08,6,1.13,3.24-.26,4.22.71,6.38,1.84,4.12,9.37,6,15.22,4.43,3.8-1,3.25-2.52,7.09-3.55,6.5-1.74,9.77,2.09,13.81-.35,2-1.18,2.82-3.07,4.25-6.2a28.35,28.35,0,0,0,2.3-9.21c1-8.88,1.57-14.47-1.24-20.71a26,26,0,0,0-6.2-8.5q-18.4-38.43-36.83-76.86.36-17.09.71-34.17L1926.1,1684c-.95-2-1.88-4.86-.71-7.26.76-1.58,1.67-1.4,2.65-3.19a9.21,9.21,0,0,0-.53-9.21,8.28,8.28,0,0,0-1.59-1.77l-45.86-47.28c-1.33.2-6.4.77-10.45-2.48a13.38,13.38,0,0,1-3.72-5c-1.53-3.36-.76-5.06-1.77-8.33a17.1,17.1,0,0,0-4.61-7.08c-2.83-2.39-7.85-2.42-17.88-2.48-6.83,0-10.25-.06-12.93.71-3.14.9-5,2-6.37,1.06-2-1.44-1.12-6.14-.36-8.5a17.55,17.55,0,0,1,2.31-4.42,36.67,36.67,0,0,1,5.84-6.91l80.39-72.07q-8.4-15.85-16.82-31.7c-.77-3.07-1.52-5.64-2.12-7.61-1.14-3.69-1.91-5.65-2.13-6.2-.43-1.09-1-2.51-1.77-4.07a42.56,42.56,0,0,0-4.6-7.09c-3.53-4.62-5.29-6.93-7.8-8.5a22.4,22.4,0,0,0-6.9-2.65c-7.39-2-9.4-.14-12-2.3-1.59-1.31-2.36-4.06-3.9-9.57-.79-2.83-1.28-5.22-1.59-6.9q-9.73-28.43-19.48-56.84c-1.23-1.92-3.44-6-2.13-9.57a22.27,22.27,0,0,1,2-3.54c1.29-2,2-2.45,3-4.07a12.81,12.81,0,0,0,2.3-4.78c.39-2.72-1.81-4.1-6-9.74-2.77-3.72-4.94-6.68-6.37-11a24.94,24.94,0,0,1-1.24-7.61,10.34,10.34,0,0,1,.53-4.43,9.29,9.29,0,0,1,1.95-3c1.31-1.53,2.07-4.88-.53-12.93q.18-27.36.35-54.71a22.81,22.81,0,0,0,4.07-6.56c1-2.41,1.63-4,1.42-6-.4-3.76-3.38-4.56-5.31-9-1.09-2.52-.36-2.77-1.24-7.61-1.76-9.73-5.36-12.41-3.54-16.47.56-1.26,1.67-2.43,3.89-4.78a43,43,0,0,1,4.43-4.07,59.37,59.37,0,0,0,32.58-29.93,17.51,17.51,0,0,0,1.07-5,17.93,17.93,0,0,0-.54-5.49c-2.22-9.58-3.55-14.32-3.71-15.58-1.3-9.72,4.2-18.14,5.66-20.37,1.34-2,.7-.55,8.32-9.56,4.66-5.5,5.77-7.09,8.68-9.38,3.37-2.66,4.25-2.4,7.08-5,3.16-2.85,6-5.38,6.38-8.5,1-7.68-13.26-12.16-12.22-20.19.49-3.74,3.91-5.22,3-8.5-.67-2.43-2.8-2.48-5.84-5.49-4.94-4.88-2.86-8.26-6.73-11-3.15-2.21-4.56,0-13.11-2.12-2.56-.64-1.89-.7-8.85-2.83-7.33-2.25-6.74-1.77-8.85-2.66-5-2.09-6.09-3.84-9.39-3.72a9.87,9.87,0,0,0-5,1.6c-2.39,1.6-2.57,3.4-4.25,5.84-1.92,2.8-4.88,4.4-10.8,7.61-3.78,2.05-5.67,3.08-8.14,3.72-3.27.85-5,.54-12.58.36-6.86-.17-10.3-.26-12,0-3.87.56-3.34,1.13-13.81,3.89-1.2.32-3.68,1-7.26,2-3.87,1.07-3.71,1.07-4.43,1.24-5.68,1.36-7.62-.71-15.23-.53a55.06,55.06,0,0,0-8.85,1.06c-5.69,1-5.26,1.53-9.38,2.13-6.18.89-7.92-.19-12.93,1.41a48.14,48.14,0,0,0-4.6,2c-5.45,2.29-9.3,3.81-13.46,3.9-7,.13-8.21-4-16.65-3.72-2.64.09-3,.51-5.31.35-5.81-.42-6.55-3.75-11.69-5.13-6.86-1.85-10.26,2.61-14.52-.36-2.47-1.72-2.36-4-5-4.6s-4.18,1.42-6.9.53c-2.06-.67-2.26-2.22-4.07-3.54-1.66-1.21-4.61-2.22-10.28-.71l-20.54,27.27L1578.14,1044a10,10,0,0,1-5.31,4.43c-4.5,1.41-8.7-1.55-10.27-2.66a16,16,0,0,1-3.37-3.19L1453.12,907.34q-4.81.45-9.74,1.41c-2.52.5-3,.69-5.84,1.24a59.65,59.65,0,0,1-9.74,1.42,39.51,39.51,0,0,1-9.21-.71,39.12,39.12,0,0,1-5.67-1.59l-39.31-20.72-37.18-.53L1306.32,905c-5,.71-8-.25-9.91-1.24-1.34-.71-4.51-2.74-6-3.72a24.44,24.44,0,0,0-2.84-1.77,12,12,0,0,0-7.43-.71l-140.78.71a5.51,5.51,0,0,1-6-3.19Q1123,874.57,1112.78,854a27.22,27.22,0,0,1,.18-11.69c.22-.88.57-2,0-2.66-1.17-1.28-4.68,1.13-9,2.31-4.82,1.3-5.37-.35-18.06-1.24-8.13-.58-10.39-.07-12-2.13s-.47-4.24-2.83-8.32c-1.5-2.59-2.52-2.63-3.9-5a15.65,15.65,0,0,1-1.95-9q1.6-32.24,3.19-64.46a26,26,0,0,0,9.92-6.19c1.91-1.94,4.94-5,5.31-9.39a11.29,11.29,0,0,0-.53-4.43c-2.51-8.3.09-23.35-.18-32.58-.45-15.76-9.62-27.8-11.51-30.28-8-10.45-25.45-25-31.34-28.51a10.51,10.51,0,0,1-3.54-3.19c-.52-.76-1.16-1.95-2.13-7.61-.61-3.61-.52-4.12-1.06-6.38a41,41,0,0,0-1.59-5.13c-2.07-5.51-1.65-12.72-2.66-19.3-2.32-15.12-10.72-17.44-8.32-26.39.82-3.08,2.69-6,1.24-9-.62-1.27-1.71-2-5.85-4.07a90.27,90.27,0,0,0-8.85-4.25c-6.18-2.39-9.32-3.55-11.69-2.13-1.78,1.08-1.52,2.59-3.36,3.37-2.25,1-5.55-.07-7.44-2-3.6-3.6-.09-8.45-2.3-18.59-.36-1.67-2.15-9.87-5.67-10.27-1.47-.17-2.16,1.15-5.49,3s-5,1.89-7.43,2.83c-7.82,3.06-7.13,9.47-14.35,12.4-2,.82-1.37,0-9.91.88-11.27,1.13-14.7,2.74-16.83.53-1.86-1.94-1.28-5.32-.88-7.61.48-2.79,2.09-3.76,6.37-10.45.77-1.19,1.38-2.18,1.77-2.83l27.81-39.49c5.87-1.41,7.71-3.6,8.32-5.31,1.08-3-1.37-5.36-.36-9.56.53-2.18,1.4-2.46,3.9-6,5-7.11,3.77-9.26,8.5-15.22,2.67-3.38,3.33-3,4.6-5.49.4-.76,3.2-6.39,1.24-12.22-.81-2.42-1.55-2.23-3.54-6.55-1.53-3.33-2.29-5-2.3-6.56,0-4.53,4.72-5.45,8.32-11.51,2.77-4.66,1-5.79,3.72-14.34,2.87-8.86,4.9-7.88,6.2-13.81,1.59-7.24-1.31-9.29-1.24-20.72a72.48,72.48,0,0,1,1.42-13.46,94.58,94.58,0,0,1,7.61-23.37c12-26.36,21.55-29.64,28.86-49.23,1.48-3.95,2.61-7.89,6.2-12.39,4.48-5.63,8.2-6.39,13.28-13.46.48-.67.17-.28,4.61-7.79,7.13-12.09,7.94-13.12,9.56-14.35,3.39-2.57,7.34-3.73,11.51-5,2.72-.8,6.28-1.59,7.08-1.77,4.05-.9,4.9-.9,6.91-1.41a41.71,41.71,0,0,0,9.38-4.08c5.68-3.26,24-32.52,42.68-76,1.46-2.26,3.83-5.08,7.26-5.67,2.8-.48,3.3,1,6.73.89,3-.15,4-1.39,11.51-4.78,1.72-.79,3.15-1.39,4.07-1.77l75.26-22.67,26.21-25.15c1.72-.34,6.47-1.54,9-5.66,1.48-2.39,1.69-4.89,1.94-7.79a33.27,33.27,0,0,0-.35-7.79c-1.52-8.28-8-13.41-20.19-29.4-4-5.29-5.13-7.07-8.14-8.85-4.06-2.41-6.76-2-13.28-5.67-2.11-1.2-2.22-1.47-5-3a78.91,78.91,0,0,0-9.21-4.43c-6.69-2.68-10-4-12.75-3.36-4,1-4.11,3.92-8.14,4.25-3.27.27-4.33-1.56-7.8-.89C1199.05,4,1199,5,1196.18,6c-4,1.41-5.29-.2-9,.71-4.8,1.17-7.82,5.08-8.68,6.2-3.35,4.34-3,8-5,8.32s-2.61-3.47-6.73-5.13a11.38,11.38,0,0,0-8.5.35c-3.59,1.57-7.16,5.36-6.38,8,.35,1.15,1.29,1.23,5.14,3.54,4.37,2.62,6.56,4,7.08,6,.37,1.44-.17,2.73-1.24,5.31-1.3,3.15-2.3,5.57-4.6,6.38-2.58.91-5.22-.75-6.55-1.6-.39-.24-5-3.22-5.14-7.79-.07-1.95.75-2.26.35-3.36-1.13-3.13-8.73-3.38-13.45-2.66a31,31,0,0,0-8,2.48c-4.23,1.87-5.07,2.22-5.49,3-1,1.86.21,3.5.88,7.62a33.69,33.69,0,0,1,.18,8c-.06,1.28-.34,5.89-4.6,15.94-4.1,9.65-6.62,15.6-12.75,20.72a42.25,42.25,0,0,1-6.91,4.43c-23.85,13.65-23.78,16.35-34.17,20-5.69,2-5.38,1.08-19,5.13-7.67,2.29-11.5,3.44-14.35,4.6-13.6,5.6-15.91,12.94-30.28,23-9.05,6.36-7.81,3.22-20.18,11-15.7,9.86-32.42,24.16-35.24,26.57,0,0-4.86,4.15-17.35,10.8a20.45,20.45,0,0,1-9.39,2.65,18.55,18.55,0,0,1-4.78-.53l-73.84-.35a99.49,99.49,0,0,0-10.8-8.5c-4-2.71-6-4.06-7.8-4.78-7-2.78-14.06-.91-28.15,2.83A16.08,16.08,0,0,0,788,186.1c-3.36,1.72-5.53,4.58-9.56,13.81-5.75,13.15-4.78,15.22-4.08,16.12,1.53,1.94,3.91,1,5.14,3.18.74,1.33.53,2.86-1.77,9.57a70.2,70.2,0,0,1-2.66,7.26c-3.16,4.51-8.85,5.6-14.7,6.72a45.32,45.32,0,0,1-11.33.71,57.58,57.58,0,0,1-11.33-1.77c-6.51-1.55-6.53-2.41-12.57-3.89-6.68-1.64-6.59-.58-13.46-2.31a85.79,85.79,0,0,1-12.58-4.25c-1.39-.58-3.35-1.5-7.26-3.36-10.1-4.8-13.69-6.77-17-5.14-.33.17-.18.13-1.78,1.24a96.1,96.1,0,0,1-8.14,5.14l-34.53,34.18c-1.77.65-4.44,1.58-7.79,2.47s-4,.86-5.49,1.6a16.75,16.75,0,0,0-6.73,6.2c-2.39,3.69-1.36,4.93-3,8-2,3.67-4.94,4.51-15,9.57-8.92,4.46-9.48,4.67-11.16,5.84-5.12,3.57-8.94,6.25-10.27,11-1,3.57-.32,7.43.89,14.34.38,2.18.86,2.5.7,3.54-.78,5.25-10,5.73-10.44,9.92-.32,2.68,3.35,3.26,5.66,8.68.6,1.4,3,7,.36,10.62-2.17,3-7.17,3.85-12.22,2.13q.43,32.13.88,64.28c-2.58,1.46-5.79,3.89-7.26,7.79-.85,2.28-.36,3.09-.88,8.85-.71,7.89-1.78,8.15-1.24,11.33.62,3.67,2.07,3.53,5.13,9.92a40.05,40.05,0,0,1,4,11.9,27.9,27.9,0,0,1-.64,12.71,21.18,21.18,0,0,1-2.83,6.2c-3.62,5.28-8.92,7.34-11.67,8.36-2.21.82-5.2,1.3-11.18,2.27-4.84.78-4.15.47-9.21,1.24-9.08,1.38-12.24,2.51-14.52.53-1-.9-1.14-1.8-2.65-2.66a8.26,8.26,0,0,0-5.49-.71c-7,1.2-9.14,10.85-20.19,18.42C475.46,519.42,474.37,519.69,471.93,521.84Z"/></g></g></svg>