<svg xmlns="http://www.w3.org/2000/svg" viewBox="0 0 2091.94 1803.57"><g id="Layer_2" data-name="Layer 2"><g id="Comoros"><path d="M189.73,1.42c3.17-2.27,7-1.28,11.9-.7A72.44,72.44,0,0,0,215.36,1,54.6,54.6,0,0,1,226.7,8.28c2.62,2.21,4.25,4.06,7.28,4.48,2.34.32,3.56-.49,5.74.56,1.66.8,2.24,1.89,4.06,2.1a8.54,8.54,0,0,0,2.8-.42c2.59-.59,3.29-.91,5.88-1.54a21.51,21.51,0,0,1,4.06-.7,18.85,18.85,0,0,1,2.24,0c2.35.16,3.56.85,6.72,2,2.13.74,1.63.45,4.9,1.54,4.1,1.37,4.82,1.81,5.47,2.38a11.26,11.26,0,0,1,2.52,3.78,21.52,21.52,0,0,1,1.68,4.76c1.11,5,.11,7.07.7,11.63.69,5.41,2.41,4.85,3.5,11.34.87,5.19-.15,6,1.26,8.54,1.54,2.74,3.09,2.31,7.28,6.58.59.61,2,2.32,4.76,5.74,3.57,4.4,4.1,5.23,4.62,6.3,1.08,2.23,1.11,3.5,1.82,6.58.41,1.77,1.39,4.48,3.22,9.94a56.46,56.46,0,0,1,2,6.45,26.85,26.85,0,0,1,.84,5.6c.12,5.86-2.62,8.34-1,10.92.68,1.07,1.18.67,2.8,2.52a12.46,12.46,0,0,1,2.66,4.48c.45,1.37,1.43,4.41,0,6.58-1,1.49-2.19,1.21-2.94,2.8-.58,1.24-.13,2-.14,3.92a12.69,12.69,0,0,1-1.54,6,10.55,10.55,0,0,1-6.16,4.48q-.34,14.43-.7,28.85c-1.55,2.22-3.17,4.74-4.76,7.56-1.15,2-1.93,3.59-2.8,5.32a82,82,0,0,0-3.78,8.12c-1.54,4.1-1.06,4.43-2.24,6-1.75,2.35-3.44,2.47-4.06,4.48-.52,1.66.29,2.68.84,4.9,1.05,4.27-.86,4.87-.7,10.65.17,6.19,2.39,6.8,1.26,10.5-.4,1.3-1.22,3-.56,4.9a6.06,6.06,0,0,0,1.68,2.38c2.2,2.14,3.62,1.28,4.9,2.94,1.14,1.49.44,2.75,2.1,4.62a12.39,12.39,0,0,0,1.26,1.12c.7.67,1.72,1.95,2.66,8.54a23.26,23.26,0,0,1,.42,5.74c-.13,1.33-.31,1.45-1.12,4.62-1.26,5-1,5.42-2,7.85-.81,2.08-1.1,2-1.82,4.06a25.12,25.12,0,0,0-1.26,5.6,64.48,64.48,0,0,0,.14,14c.64,6.46.82,6.05,1.4,11.76a150,150,0,0,1,.84,15.54,41.9,41.9,0,0,1-.84,9.95,40.11,40.11,0,0,1-2.24,6.72c-2.34,5.81-3.51,8.72-6,9.8-2.09.9-4,.27-4.62,1.54-.48.95.21,2.05.7,3.22,1.05,2.53.84,4.67.42,9a41.93,41.93,0,0,1-3.08,11.48,14.79,14.79,0,0,0-1.12,3.5,16.4,16.4,0,0,0,.14,5.74c.91,7.2-2.71,10.39-.56,14.71.17.34.8,1.54,1.4,2.66,1.87,3.49,2.13,3.69,2.1,4.34,0,.4-.18,1.42-4.76,4.76-3.18,2.31-4.46,2.8-4.49,3.92,0,1.36,1.86,1.4,2.53,3.36.87,2.55-1.65,4.45-.56,6.86.41.93.79.66,1.68,1.82,1.6,2.12,1.23,4.17,1.82,7.84a51.75,51.75,0,0,0,1.4,5.46c1.43,5.08,2.15,7.62,3.5,9.39s2.27,2,2.94,3.78a9.85,9.85,0,0,1,.28,5,17.16,17.16,0,0,1-1.54,4.62c-1.39,3.11-2.33,4.49-2.94,5.74-2.08,4.23-1.23,8.61-.14,14.14.8,4.1,1.36,6.78,3.78,8.68,1.55,1.23,2.7,1.2,4.48,1.82,4.44,1.55,5.62,4.69,14.14,15.83,3.13,4.09,4.72,6.15,6,7.14,3.21,2.43,5.49,2.64,9.38,6.16,2.86,2.58,3.33,4,3.5,4.76.34,1.52-.14,2.11-.42,5.88-.19,2.68-.29,4,0,5,.71,2.45,2.38,2.21,6,5.74,4.32,4.19,4.67,7.14,7.29,9.38a2.18,2.18,0,0,1,.84,1.26c.15,1-.91,1.61-1.54,3.22a7.32,7.32,0,0,0-.42,2.38c0,2.14,1.35,3,2.38,5.05,1.67,3.33-.2,4.62,1.4,9.1.12.34.82,1.62,2.24,4.2,3.22,5.87,4.08,7,5.46,7.28,1.55.35,2.26-.63,3.22,0,1.17.76.66,2.57,1,6.44a18.21,18.21,0,0,0,2,7.84,12.51,12.51,0,0,0,2.8,3.36q7.07,10,14.14,20a34.78,34.78,0,0,1,3.36,9,53.26,53.26,0,0,0,1.26,5.46c.75,2.42,1.21,3,2.24,5.6a36.32,36.32,0,0,1,2.66,9.24c.23,2-.05,1.79-.28,7.14-.2,4.75-.09,7.56.14,13.16a24.73,24.73,0,0,0,.7,5.6c.53,2.07,1,2.65,1.4,4.21.7,2.72,0,4-.14,7.14-.33,6.87,2.54,8.62.84,12.74-.07.18,0,0-2.38,3.78-3.2,5.12-3.43,5.62-3.5,6.44-.13,1.56.75,3.28,2.52,6.72a35.48,35.48,0,0,0,2.94,4.9c1.72,2.37,2.55,2.82,5,5.74a30.22,30.22,0,0,1,3.5,4.48c2.49,4.7-.12,7.37,2,14.71.44,1.57.67,1.82,1.54,4.76,1.15,3.91,1.11,4.67,2,6.44,1.21,2.53,1.91,2.22,3.36,4.76a19.51,19.51,0,0,1,2.38,8c.44,5.08-1.47,5.91-.42,8.12,1.52,3.22,5.57,1.47,11.06,5.46a24.25,24.25,0,0,1,7,8.68,30.74,30.74,0,0,1,2.24,5.89c1.25,4.23,2.17,7.36,1.12,10.36-.75,2.14-2.11,3.11-4.48,5.18-6.07,5.27-12.51,12.22-11.9,13,.4.53,4.14-1.36,7.14-3.78a41.71,41.71,0,0,0,4.06-4.06c4.93-5.33,6.11-7.27,8.4-7.28a3.56,3.56,0,0,1,2.52.84c1.72,1.68-.4,4.54,1,9a10.16,10.16,0,0,0,2.1,3.78,11.06,11.06,0,0,0,3.78,2.52c3,1.5,2.53,2.53,9.1,9.1,3.39,3.39,3.8,3.41,4.2,4.62,1.05,3.14-.95,5.25.56,8.26.81,1.6,1.48,1.24,2.67,3.22,1.63,2.75.66,4,1.82,6.17.7,1.33,1.62,2,7.7,5.18,4.42,2.34,5.11,2.87,6.16,3.22,3.16,1,3.82.4,5,1.4,1.48,1.21,1.27,2.79,2.24,9.24.64,4.25,1,6.4,1.68,7.42.87,1.25,1.36,1.22,5.88,5.6,1.21,1.17,2,2,2.1,3.22.08,1.4-.91,2.44-1.68,3.36-2.86,3.44-2.29,4.74-4.34,7.42-.92,1.21-1.64,1.73-10.78,6.58-5.24,2.79-7.39,3.88-9.8,6.45-2.66,2.83-3,4.61-2.94,5.74,0,1.95,1.5,2.19,2.24,4.76a11.15,11.15,0,0,1-.42,6.72c-1.22,3.21-3.08,3.41-3.36,6-.26,2.28,1.09,2.75.7,4.34-.49,1.93-2.82,2.63-10.65,5.46-6.1,2.21-7.06,2.65-8.26,3.36-3.66,2.17-3.19,3.1-6.72,5.6-5.83,4.13-9.28,3.11-13.58,7.28a18,18,0,0,0-3.5,4.76l-31.79-1.68L343.9,952q-5.32-8.19-10.64-16.38c.11-2-.06-4.66-1.83-6.16a5.92,5.92,0,0,0-3.08-1.12c-3.51-.72-8.19-1.66-11.48-3.92a13.64,13.64,0,0,1-3.36-3.37l-40.46-36.54a69.29,69.29,0,0,0-7.57-15.4C264,867,262.34,865,262.4,862c.05-2,.92-3.58.28-6a8.62,8.62,0,0,0-1.68-3.22c-3-3.85-12.5-10.4-22-9.94a27.88,27.88,0,0,1-8.68-.7,26.66,26.66,0,0,1-3.08-1c-3.53-1.38-3.69-2.38-5.6-2.94-2.63-.77-3.72.69-8.41,1.26-3.2.39-3.49-.45-6.16,0-2.92.5-2.74,1.3-5.74,2-3.71.83-4.48-.3-8.54.7-1.49.37-1.64.59-3.78,1.12a41.74,41.74,0,0,1-5.32,1l-44.53-1.82L96.76,819.16,73.79,791l-7.28-18.48a34.46,34.46,0,0,1-4.06-13c-.21-2.19-.07-3.3-.42-5.46-.44-2.73-1.41-5.11-4.76-11.07-1.53-2.71-3.53-6.1-6-9.94-2.83-8.8-6.29-11.36-9-12-3.59-.91-6.9,1.28-10.23-1.12-1.82-1.32-2.12-2.91-4.48-3.64-1.59-.49-2.88-.2-3.92-1.26a4,4,0,0,1-1-2.38c-.76-6.34.27-10.52-1.26-14.42s-3.87-3.34-4.2-6.44,2.22-4.14,2.8-8.83c.15-1.2.58-4.65-1.26-7.56s-4-2.13-7.42-5.18a18.15,18.15,0,0,1-5.46-9.38c-.29-1.45-.1-1.62.56-9.66.61-7.46.58-9-.42-10.64-1.51-2.5-3.21-1.91-4.76-4.34-2.58-4-.47-9.67,0-10.93,1.3-3.46,4-6.09,9.24-11.34,3.77-3.73,4.57-4,6.3-6.44,2.44-3.44,1.74-4.2,4.34-8.82,2.7-4.78,3.86-4.71,7-10.22,1.51-2.64,1.09-2.38,3.22-6.44,4-7.5,4.84-7.33,5.89-10.64,1.57-5-.42-5.53,1.26-10.79,1.06-3.35,1.76-2.78,4.76-9.24,2.17-4.68,2.07-5.55,3.78-7.84.54-.73,1.2-1.52,5.6-5.46,5.71-5.13,5.53-4.64,6.16-5.46,2.54-3.31.78-5.15,2-14.7.46-3.76,1.72-11.49.7-16.11a6.34,6.34,0,0,0-1.54-3.08c-1.3-1.35-2.73-1.41-3.64-1.82-4-1.78-4.52-13.1-1.68-23,1-3.59,1.83-4.62,3.22-9.94,2-7.52,1.58-10.17.28-11.76a31.31,31.31,0,0,1-2.66-3.09,10.48,10.48,0,0,1-1.82-3.22,7.18,7.18,0,0,1,.14-5c.53-1.15,1-1,1.68-2.24.87-1.48.92-2.86,1-5.32.06-2.71.1-4.34-.56-6.3-.93-2.75-2-2.63-2.94-4.9-1.06-2.66.15-3.61.56-9.66.34-5.05-.4-6,.56-9.1a18.18,18.18,0,0,1,2.52-5c3.75-5.83,2.74-9.53,6.3-22.13,2.43-8.6,3-7.11,3.92-12.18a47.26,47.26,0,0,0,.42-17.64c-.44-2.45-.94-3.9-1.4-7.56-.54-4.31-.31-6-.56-8.83-.59-6.54-2.62-6.4-3.64-12.6-1.21-7.29.46-14.3,1.26-17.64.24-1,.8-3.21,1.4-6.44.49-2.63.7-4.33,1-6.3.35-2.45,1.08-7.52,1.82-10.5,2.17-8.76,6.82-9.22,11.06-20.45a58,58,0,0,0,2.1-6.86,64.83,64.83,0,0,0,2-14.28,52.69,52.69,0,0,0-.7-10.22A64.06,64.06,0,0,0,74.35,205c-2.13-4-3.14-5-3.92-8.12s-.6-5.83-.14-10.92c.76-8.44,2.13-10.87.84-15.82a23.23,23.23,0,0,0-1.68-4.34c-3.4-7.38-6.93-8.87-9.1-15.41a11.19,11.19,0,0,1-.84-5.18c.23-2,1.37-3.81,3.64-7.42,3.38-5.36,3.3-5.19,3.36-5.32.63-1.31,1.06-2.65,1.82-14.28.25-3.78.31-5.3.28-7.28a65.48,65.48,0,0,0-.42-6.58c-.8-7.67,4-19.37,12.46-39.21a58,58,0,0,0,2.24-5.6c1.26-3.89.94-4.73,2.1-6.16,1.7-2.08,3.26-1.38,5.6-3.64,2-1.92,1.34-2.89,2.94-4.76,2.78-3.26,5.72-1.51,10.93-4.62,2.05-1.23.76-1,6.58-5.89,3.76-3.15,4.93-3.78,6.44-6,1.17-1.74,1.26-2.55,2.52-3.64.94-.81,2.36-1.62,6-2.1,4.6-.59,7,.09,12.88-.42a7.52,7.52,0,0,0,4.2-1.4c1.27-1,1.48-2,2.24-2.94,1.74-2.23,4.73-2.37,7.7-2.8,7.93-1.13,6.82-2.93,12.05-3.22,7-.39,10,2.69,13.86.28a20.67,20.67,0,0,0,3.36-2.94c1.86-1.87,2.39-2.86,4.48-5A23.15,23.15,0,0,1,189.73,1.42Z"/><path d="M1528.4,1362.66a20.89,20.89,0,0,0-4,2.73c-1.34,1.13-1.34,1.36-1.33,1.47.19,1.22,5,1.33,5.32,1.33a14.32,14.32,0,0,0,4-.49c1.41-.38,2.11-.57,2.66-1.19,1.23-1.4,1.11-4.24-.28-5.18-1-.66-2.35-.23-4,.28A13.81,13.81,0,0,0,1528.4,1362.66Z"/><path d="M1542.34,1373.09c-2.81.83-6.12,1.8-6.58,3.92-.22,1,.25,2,2.66,4.9a105.32,105.32,0,0,0,7.42,8.12c3.24,3.3,2.45,3,6.3,7.15,4.16,4.44,7.47,7.94,12.46,11.2a73.08,73.08,0,0,0,7.28,4.06c5.41,2.67,7,2.7,9.52,5,2.09,1.92,2.13,2.9,4.2,4.06,2.36,1.32,4,1,6.45,1.54,3.24.73,4.11,2.17,8.26,4.9,7.71,5.08,9,3,13.86,7.14,3.84,3.25,3.43,4.85,7.56,7.42a48.18,48.18,0,0,0,7.42,3.5c3.27,1.34,4.87,1.74,7.42,3.36,2,1.28,1.93,1.61,3.5,2.52,3.11,1.81,5.63,1.8,8,2.25,4.09.78,3.52,2.18,11.06,6,7,3.57,8.41,2.81,13.3,6.16,3.41,2.33,3.19,3,6.3,4.9,4.52,2.73,6.35,2.12,11.34,4.06,8.62,3.34,7.67,6.9,16.39,9.94a74.19,74.19,0,0,1,8.54,3.08c3.5,1.59,3.84,2.17,6.58,3.5,5.26,2.56,9.7,3.18,16,4.06,6.54.92,8.27.39,9.24,0,2-.81,2.17-1.6,5.88-4.06,4-2.67,6-4,8.12-3.78,3.06.33,3.11,3.15,7.15,5.32,3.6,1.94,4.65.27,10.64,1.68,4.2,1,7.24,2.65,11.9,5.18,4.21,2.29,4.09,2.72,7.84,4.62a84.32,84.32,0,0,0,9.94,4.06c10.68,3.93,10.73,3.21,13.44,5,3,2,4,3.64,7.85,5.46a32.38,32.38,0,0,1,4.2,2.24,27.25,27.25,0,0,1,4.06,3.22c3.86,3.67,4.89,6.65,9.38,12.6,2.79,3.71,2.69,3,4.76,5.88,1.81,2.56,2.26,3.66,6,10.78,6.45,12.2,6.23,11,6.58,12.32.63,2.3,1.07,5,3.36,6.45,1,.59,1.4.41,3.64.84,5.18,1,5.84,2.51,9.52,2.8,2.85.21,2.56-.69,5.61-.56a17.27,17.27,0,0,1,9,3.08c2.88,2.1,2.27,3.33,5.6,7.56,5.2,6.61,9.78,7.5,10.5,11.9a39,39,0,0,0,.84,4.34,34,34,0,0,0,1.26,3.92,28.35,28.35,0,0,0,2.38,4.62c3.9,6.28,5.84,9.43,7.7,10.64,2.45,1.61,4.81,1.87,8.12,2.24,6.68.75,9.75-1.33,12.47,1,1.33,1.14.88,1.9,3.08,4.06,1,1,1.19,1,4.48,3.37s3.36,2.63,4.48,3.08c2,.78,2.29.25,4.34,1a13.08,13.08,0,0,1,5,3.36c2.11,2.24,1.75,3.48,3.78,5.18a11.43,11.43,0,0,0,3.92,2c6.9,2.7,10.71,12.39,11.34,14a27,27,0,0,0,4.34,7.84c.39.47.75.87,1,1.12,2.28,2.5,3.76,4.12,5.88,4.9,1.93.71,2.16-.1,4.06.7.77.32,1.45.75,3.79,3.08a63.21,63.21,0,0,1,4.9,5.32,25.94,25.94,0,0,1,3.08,4.34,22,22,0,0,1,1.54,3.79c.73,2.4,3,9.69,0,16.1-.44.94-.5.82-1.82,3.36-1.83,3.51-2.76,5.25-3.08,6.44-.7,2.51-.86,6.72,1.4,9.52.83,1,1.52,1.29,8.82,3.78,7.75,2.64,8.49,2.88,10.08,3.78,2.07,1.18,2.68,1.86,5.74,3.5a31.29,31.29,0,0,0,5.46,2.52c2.74.87,4.8.76,8.82.56,13.38-.64,15.84-.61,17.79-2.8a39.78,39.78,0,0,0,2.38-3.36,26.58,26.58,0,0,0,3.08-5.18c.66-1.77.27-1.86,1.12-4.9a23.73,23.73,0,0,1,1.54-4.34c1.32-2.68,2.45-3,3.36-4.62,1.87-3.22-.76-5.33-.56-10.78.14-3.91,1.68-7,4.76-13,1.66-3.28,2.51-4.27,3.64-7.43,1.22-3.41,2.2-6.29,1-8.82-.88-1.82-2.15-1.88-4.62-4.2a21.77,21.77,0,0,1-4.48-6q.14-25.2.28-50.41a17.23,17.23,0,0,1-4.9-7.42,18.37,18.37,0,0,1-.84-6.44c.2-5,2.21-6.56,1.12-9.52-.66-1.77-1.42-1.34-2.8-3.64s-1.44-4.12-2.1-9.38c-1-7.77-1.21-6.67-1.12-8.12a25.28,25.28,0,0,1,3.92-11.35c.89-1.45,1-1.25,1.68-2.52,1.74-3.06,2.22-5.72,2.8-9.24,1.65-10,1.56-11.33,3.08-12.46,1.27-.94,1.5-.14,5.74-1.82a16.88,16.88,0,0,0,5.46-3.36c1.38-1.3,1.64-2,1.68-2.66a3.11,3.11,0,0,0-1.4-2.8c-1.32-.77-2.48.33-4.62.14a6.86,6.86,0,0,1-3.92-1.82c-2-1.91-2-4.81-2-7,.07-5,2-5.61,2-10.09a20,20,0,0,0-1.54-6.72c-.36-1-.8-2.06-4.34-8.54-2.58-4.71-3-5.32-3.22-6.86-.36-2.29.23-3,.14-6.16a31.08,31.08,0,0,0-1.12-6.72c-2.41-8.61-8.06-9-9.66-16.8-.45-2.19-.25-3.31-1.12-7.15-.76-3.29-1.22-3.83-1.69-6.58a36.28,36.28,0,0,1-.42-7.28c.1-3.61.56-4,.7-8.26a25.68,25.68,0,0,0-.14-5.6,18.68,18.68,0,0,0-3.08-7.42c-6.95-10.83-3.94-23.6-12.18-28.71a17,17,0,0,1-4.76-3.64c-1.38-1.58-1.68-2.62-3.64-7.14-2.93-6.74-3.42-7.09-4.2-9.94-.84-3.07-.21-2.89-1.12-6.58-.78-3.16-1.29-3.67-2.52-8-.62-2.18-1.09-3.83-1.54-6.16-.82-4.27-.47-5.18-1.54-7.29s-2-2.31-2.1-3.78,1-1.92,2.38-5c.81-1.81,1.34-3,1.26-4.62a8,8,0,0,0-1.4-3.92c-1.2-1.88-2.08-1.9-4.76-4.48-1.88-1.8-2.82-2.7-3.36-4.06s-.38-2.35-.14-5.88c.32-4.93.47-7.43-.28-8.68-1-1.72-2.15-1.2-5.74-3.5-2.93-1.88-5.92-3.8-6.72-7s1.06-6.63,1.68-7.7a51.93,51.93,0,0,1,3.36-4.49c1.66-2.16,2.48-3.25,2.66-3.5,3.75-5.4,1.52-14.43.14-20-.54-2.15-1.09-3.84-1.4-4.76L1981,1206.32a54.54,54.54,0,0,0-7-1.26,42.1,42.1,0,0,0-12.32.14,39.23,39.23,0,0,0-8,2.38c-14.74,6.21-15.9,18.16-28.15,21-3.28.76-5.91.53-9.94,2.66-3.05,1.6-4.18,3.13-8.4,5-2.19,1-2.21.73-5.74,2.1-5.41,2.1-8.11,3.15-9.24,4.76-2.38,3.37-1.16,8.15-.42,11.06a22.85,22.85,0,0,0,2.8,6.44,32.07,32.07,0,0,0,7.7,8.54c3.45,2.79,5.35,3.34,7.84,6.58a18.67,18.67,0,0,1,2.1,3.37c.25.51,2.65,5.72,1.4,11.06-.8,3.43-3.86,6.39-9.94,12.18-5.22,5-6.51,5.31-8,8.26a24,24,0,0,0-2.1,10.08c-.27,5.88,1.19,6.44.28,10.78-.56,2.68-1.21,2.9-2.66,8-1.24,4.29-.84,4.34-1.54,6.16-.18.46-3.09,7.62-9.25,9.38-3.39,1-4.16-.73-11.62,0-1,.1-2.7.3-4.76.7-3.4.66-5.41,1-7.56,2.1a18.9,18.9,0,0,0-8.4,8.54c-1.42,3-.49,3.13-1.82,6.16-1.87,4.24-5,6.74-8.82,9.8-4.59,3.64-4.79,2.7-8.68,5.88-4.81,3.94-4.23,5.15-9,8.83-2.81,2.18-5.66,4.34-9.8,5-1.85.31-1.45-.1-6.72,0-4.53.08-7.13.14-10.22,1-2.93.79-2.65,1.29-6.16,2.52a33.64,33.64,0,0,1-11.2,2.1c-5.44,0-5.11-1.77-11.63-2-4-.12-3.84.54-9.1.42-2.47-.06-3.81-.24-5.46.56s-2.13,2-4.06,4.2a20.76,20.76,0,0,1-6.3,5.46,17.39,17.39,0,0,1-9.24,1.4,33.47,33.47,0,0,1-5.32-1c-6.84-1.41-12.15-2.5-16.66-.28-2.86,1.4-2.52,2.7-5.75,3.92-2.58,1-4.77.88-8.12.7a31.17,31.17,0,0,1-10.22-1.82c-3.35-1.28-6.8-2.59-9.24-5.88s-1.91-6.06-5.74-11.62a6.68,6.68,0,0,0-2.8-2.66c-3.1-1.39-6.7.63-7.56,1.12a16.72,16.72,0,0,0-4.2,3.64c-2,2.18-1.8,2.62-2.66,3.22-2.35,1.61-5.55-.64-13.17-3.5-4.69-1.77-7.92-3-12.46-3.64-3.53-.52-4.68-.23-9-.84-5.17-.75-4.64-1.39-9.38-2.1-5-.76-7-.33-9.66-2.1a12.33,12.33,0,0,1-3.22-3.23c-3-4-2.16-6.73-4.34-10.22-1.53-2.43-3.52-3.62-5.89-5-2.13-1.28-4.89-2.49-18.9-3.92a127.43,127.43,0,0,0-14.84-.7A31.44,31.44,0,0,0,1542.34,1373.09Z"/><path d="M730.36,1682.4c-3.78,1.32-5.45,5.45-5.74,6.16-1.39,3.45-1.88,9.4,1.26,11.21,2.56,1.47,6.88-.18,9-2.66,1.47-1.76,1.59-3.63,2.52-3.64s1.49,2,2.94,4.62a27.81,27.81,0,0,0,3.92,5.46c1.92,2.1,2.88,3.15,4.35,3.5,2.25.53,3.64-1,7.42-2.94,2.84-1.45,5.68-2.23,11.34-3.78a54.2,54.2,0,0,1,9.52-2.1c5.71-.59,6,.73,14.14.84a91.63,91.63,0,0,0,13.17-.42c4.1-.49,6-1.07,7.14.14s.55,3.89-.42,9.38c-.63,3.57-1,4.69-.28,5.88.88,1.42,2.65,1.75,5.46,2.24,3.74.65,6.91,1.2,8.26-.42,1.75-2.12-1.57-5.54.28-8.12,1.29-1.8,4.24-2,7.14-2.24,2.06-.16,2.33.15,5.18,0,3.26-.18,3.85-.64,5.32-.56,1.77.09,4.29.92,7.28,4.48,2.27,1.83,5.1,4.1,8.4,6.72,2.06,1.62,3.09,2.43,3.78,2.1,1.84-.87-1.53-7.39,1.69-12.6a8.63,8.63,0,0,1,4.34-3.64c2.78-1,5.4.09,8.54,1.4a41.42,41.42,0,0,1,7.42,4.34c3.84,2.56,4.82,3.63,8,5.18a16.59,16.59,0,0,0,4.62,1.82c3.55.58,5.47-.87,7.7.42.74.42,1.12.92,2.24,2.66,3.35,5.19,4.76,8,4.76,8,1.25,2.47,2.75,5.58,4.34,9.24q-.14-8.74-.28-17.5a7.34,7.34,0,0,1,4.48-3.5c3.2-.72,5.88,1.4,6.59,2,1.58,1.25,1.17,1.79,2.66,2.8,2.12,1.45,3.18.5,6,1.82,2.16,1,2.14,1.83,4.2,2.52a9.84,9.84,0,0,0,4.06.42c11.86-.89,16.63,2.22,29.4,0,2.21-.38,4.84-1,6,.42s-.28,3.86,1,8.4c.16.55.86,3.07,1.83,3.08.65,0,.84-1.16,2-2.1a6.19,6.19,0,0,1,4.06-1.12c3.14-.09,3.78,1.11,8.26,2,2.66.51,2.67.13,4.62.7s2.67,1.15,5,1.82a27.52,27.52,0,0,0,3.22.7c4.78.84,8.61,3.11,15.54,5.6a51.65,51.65,0,0,0,7.56,2.38,63.17,63.17,0,0,0,18.77.56,8.89,8.89,0,0,1,5.46.42c1.73.85,1.79,1.85,4.2,3.93,1.91,1.63,4,3.42,5.88,2.94,1.26-.32,1.89-1.5,3.08-3.78a28.77,28.77,0,0,0,2.66-8.13c.61-3.08.47-3.64,1-7,.67-4.39,1.06-4.43,2-9.24,1.69-9,.8-11.44.42-12.32a13.22,13.22,0,0,0-3.64-4.62c-2.35-2.23-11.49-10.91-16.38-21-.28-.56-.32-.68-4.34-9.24-2.13-4.51-3.23-6.79-5.32-7.7-1.84-.8-2.69,0-6.59-.14a28.62,28.62,0,0,1-8.12-1.4c-2.38-.89-3.24-2-9.94-9.24-6.26-6.8-7.12-7.62-8.68-8.68-2.08-1.42-4.66-2.39-9.8-4.34-2.31-.88-7.59-2.82-15-4.9-4.14-1.17-6.23-1.76-9.39-2.38-4.89-1-7-1-12.32-2-3.82-.71-6.85-1.47-8.68-2-3-4.28-12.53-17.68-18.48-21.29-.34-.2-1-.61-3.08-1.82-6.36-3.78-7-4.3-8.68-4.76s-1.48,0-6-.56c-3.85-.47-5.77-.71-6.58-1.26-2.78-1.9-3.77-6.41-4.76-10.92a8.58,8.58,0,0,0-1.54-3.5,8.77,8.77,0,0,0-1.54-1.54c-2.38-1.8-6.72-1-9.52-.84-2.53.17-7.93.53-12-2.1-2.26-1.45-1.45-2.08-8.12-9.52a17.74,17.74,0,0,0-4.48-3.92c-2.5-1.46-4-1.37-6.16-2.1-1.6-.55-2.26-1.09-9.39-7.71-5.86-5.44-6.85-6.4-8.26-8.26a40.39,40.39,0,0,1-3.78-6,57.31,57.31,0,0,1-20.3.7c-5.22-.76-5.39-1.54-12-2.8-5.82-1.1-6.31-.63-9-1.68-3.13-1.24-4.06-2.55-8.4-6-7-5.64-10.56-8.46-14.42-9.1-4.88-.81-6.54,1.35-10.78-.56-2.51-1.14-3.35-2.53-6.44-3.22-1.15-.26-1.44-.15-6-.14-6.67,0-7.45-.2-8.12-.84-1.53-1.46-.78-3.46-2.66-4.62a4.89,4.89,0,0,0-2.81-.56c-2.18,0-3.44.89-6,2.1a38.22,38.22,0,0,1-6.16,2.38c-3.33.91-5.48,1.49-6.86.42-1.63-1.27-.35-3.41-2.24-7.42-.8-1.71-1.54-3.29-3.08-3.78-2.16-.71-4.89,1-6.3,2-1.92,1.23-2.42,2.16-3.36,2-1.3-.29-1.14-2.27-2.94-3.36a5.09,5.09,0,0,0-3.78-.42c-1.34.37-2.55,2-4.9,5.18-2.84,3.85-3.07,4.17-3.78,4.62s-1.54.79-6.58,1c-5.64.2-7.24-.19-9.67,1a21.32,21.32,0,0,0-2.8,2c-6.93,5.06-8,5.71-9.1,7.42a14.51,14.51,0,0,0-1.82,5.6c-2.09,12.43,4.34,20.43.28,25.06-1.07,1.23-2.41,1.68-3.64,3.92-.55,1-1.87,3.42-1.12,5.75.81,2.48,3.08,2,5.18,5.18,1.5,2.26.64,2.94,2.38,5.46,1.34,1.93,1.83,1.51,3.64,3.92s1.6,3.13,3.08,4.2,2.24.75,3.22,1.82a5.92,5.92,0,0,1,1.26,3.78c.66,6.7-.5,8.51,1,11.06,1,1.73,1.65,1.1,2.66,2.94,1.33,2.42.37,3.77,1.12,8.26a15.43,15.43,0,0,0,1.68,5.46,14.21,14.21,0,0,0,3.93,4.35c1.28,1,1.66.91,4.9,2.8,2.45,1.42,2.44,1.57,3.22,2,5.35,2.68,10.31-2,14.42.84a6.78,6.78,0,0,1,2.24,2.66c1.52,3.16-.48,5.55.7,6.86,1.89,2.1,8.44-2.46,10.64-.14.45.47.17.65,1,4.2.57,2.48.85,3.72,1.4,4.62,1.22,2,2.4,1.49,4.48,3.5a13.69,13.69,0,0,1,3.64,7.14c.24,1.07.17,1.29.28,5.46.19,7.2.45,8.68-.7,9.66S732.67,1681.6,730.36,1682.4Z"/><path d="M846.44,1738.41c-.92.66-.2,3.62,1,5.74,1.93,3.47,6.19,6.74,9.24,5.61a3.58,3.58,0,0,0,2.1-2.11c.67-2.39-3-5-3.64-5.46a29.8,29.8,0,0,0-3.92-2C847.41,1738.42,846.86,1738.12,846.44,1738.41Z"/><path d="M693.12,1766c-2.35,1.47-2.84,4.31-3.08,5.74s-.65,3.74.42,4.48c1.72,1.2,6.22-2.39,8.68-5.32,1.28-1.53,2.35-2.8,2-3.92C700.45,1765.12,696,1764.21,693.12,1766Z"/><path d="M723.22,1768.38a14.75,14.75,0,0,0-3.64,3.22c-4.64,5.5-8,9.53-6.86,13.44.55,1.82,2.1,3.68,3.78,3.78,1.32.08,2-1,5.32-4.62,4.39-4.77,5.73-5.62,5.46-7.14-.32-1.84-2.56-2.21-2.66-4.48a4.05,4.05,0,0,1,.84-2.52c.79-1,1.86-1.16,3.64-1.54,5.62-1.19,5.83-1.52,6.44-1.12,2.15,1.4,1.07,6.47.84,7.56s-.45,1.53-2.1,5.46c-2.63,6.27-2.74,6.78-2.66,7.56.19,1.7.94,1.45,4.48,6.72,1.81,2.69,2.44,4,4.34,6,.64.68,3,3.22,3.64,2.8.35-.23,0-1.27-1.82-6.16s-2.13-5.63-2.24-6.86,0-2.5,1.68-7a114.76,114.76,0,0,1,5.33-11.76c2.65-5.09,3.56-6.24,3.08-8.12-.63-2.45-3.24-4.61-5.18-4.34-.91.12-.85.66-3.37,2a20.5,20.5,0,0,0-2.8,1.4c-1.47,1-1.44,1.59-2.38,1.82-1.25.31-1.83-.57-2.94-.14-.82.32-.73.89-1.54,1.54-1.26,1-2.38.35-4.76.84A11.55,11.55,0,0,0,723.22,1768.38Z"/><path d="M798.27,1769.36c-.23-2.62,5.1-4.45,4.62-6.44-.21-.9-1.42-1-1.68-2.38a2.83,2.83,0,0,1,.28-1.82c1.26-2.25,6.27-1.19,6.4-1.91s-3.26-2-7.1-2.43a13,13,0,0,0-5.32.14c-2.16.58-6.1,2.41-6.44,5.32-.23,2.06,1.43,3.87,3.64,6.3,1.8,2,2.57,2.09,4.06,4.2,1.66,2.35,1.86,3.82,1.68,4.9a4.47,4.47,0,0,1-.56,1.54c-.42.77-2.92,5.47-3.5,9.24a15,15,0,0,0,1.26,8.12,11.68,11.68,0,0,0,2,3.22c.2.23,3,3.4,4.62,2.66a2.17,2.17,0,0,0,1-1.54c1.06-4,.49-7.83.29-12.32-.12-2.54,0-3.31-.29-5.6-.29-2.61-.45-4-1.26-5.46-.24-.46-.25-.39-2.1-3.22A19,19,0,0,1,798.27,1769.36Z"/><path d="M824.88,1799.88c.08-3.56-.89-3.85-1-7.14-.11-3.9,1.25-4,.56-6s-2.52-3.47-4.34-4.9c-1.6-1.26-2-1.16-2.94-2.24a13.19,13.19,0,0,1-2.38-4.2c-1-2.42-1-3-1-3.22.21-1.44,1.45-2.89,2.52-2.8.83.06,1,1,2.1,2.38,1.75,2.21,3.08,2,5.74,4.2a19.45,19.45,0,0,1,3.5,3.92c1.49,2.06,3,4.18,3.36,7.14a19.46,19.46,0,0,1-.28,3.92c-.5,4.16-.77,6.27-2.1,8.26-1.07,1.6-2.8,3.17-3.5,2.8C824.75,1801.77,824.85,1801,824.88,1799.88Z"/><path d="M827.82,1770.34a2.15,2.15,0,0,1-1-2.1c.12-.59.61-1.27,1.12-1.26s.61.71,1.68,1.82c.84.87,1.31,1,1.26,1.26C830.8,1770.59,829,1771.13,827.82,1770.34Z"/></g></g></svg>