<svg xmlns="http://www.w3.org/2000/svg" viewBox="0 0 2335.83 2311.62"><g id="Layer_2" data-name="Layer 2"><g id="Congo"><path d="M43.45,1355.37l-28.74.15a9.34,9.34,0,0,1-3.33,3.33c-1,.56-1.61.64-5.14,1.51-3.94,1-4.68,1.24-5.29,2a5.09,5.09,0,0,0-.91,3.78q11.34,13.38,22.69,26.77c1.45.19,3.71.49,6.5.91,2.5.37,3.13.5,4.24.6a30.13,30.13,0,0,0,7.71-.3c4.23-.68,4.7-1.63,10.28-2.87.48-.11.39-.08,5.15-.91,8.93-1.56,10.49-1.87,12.55-2.42.7-.19,1.35-.38,2-.56,1.56-.48,3.63-1.23,4.1-1.41,2.18-.82,14.58-6.3,31.46-14.06a7,7,0,0,1,5.14.75c1.1.71,1.24,1.4,2.73,2.27a5.83,5.83,0,0,0,3.63,1.06c1.37-.17,1.75-1,3.63-2.12a16.08,16.08,0,0,1,4.08-1.66c2.45-.74,5.89-1.77,9.07-.46,2.89,1.19,2.58,3.08,4.84,3.33,1.5.16,3.27-.65,6.81-2.27a11.07,11.07,0,0,1,2.72-.9,10.67,10.67,0,0,1,2.73-.16h109.5c2.07,2.9,3.95,3.73,5.29,3.94.67.1,1.16,0,3.94.15,1.35,0,2.45.11,3.17.15l44.92-.3a9.31,9.31,0,0,1,3.63-2.57c1.85-.71,3.28-.5,5.9-.46a58,58,0,0,0,7-.3l204.79-.45a15.94,15.94,0,0,0,0,8.92,33.35,33.35,0,0,1,1.67,4.84,24.27,24.27,0,0,1,.45,5.75c-.1,2.54-.49,2.36-.3,3.32.39,2,2,2.6,6.81,6.36,2.85,2.23,2.17,1.94,4.23,3.48,3,2.26,4.08,2.57,4.69,4.08a5.79,5.79,0,0,1-.45,5c-.88,1.42-1.72,1.17-2.58,2.27-2.16,2.79,1.82,6.31,0,10.13-1,2.08-2.8,2.39-4.08,5.75a5,5,0,0,0-.45,2.12c.08,2.37,2.75,2.56,3.78,5,1.2,2.85-1.06,5.51.3,6.65.81.68,1.7-.17,2.87.46,2,1.06,2,4.79,2,6.5,0,3.58-1,4.49-.45,7.26a17.1,17.1,0,0,0,1.36,3.33c1.82,4.27,1.7,5.77,3.17,9.68,1.37,3.62,1.76,3.08,2.88,6,3,7.88.82,13.24,4.38,15.88.48.35.9.54,2.27,1.51a29.29,29.29,0,0,1,4.24,3.48c1.47,1.5,2.21,2.25,2.42,3,.59,2.17-1.33,3.1-1.51,6.35a11.73,11.73,0,0,0,.9,4.69c.86,2.59,1.5,2.72,2.73,5.9a41.13,41.13,0,0,1,1.36,4.38c.42,1.65.7,3.11.9,4.39,1.36,8.54-.33,11.59,2,13.91,2,2,4,.45,7,3.18,1.7,1.58,1.2,2.27,3.33,4.24,1.74,1.61,2.61,1.64,4.84,3.63a13.1,13.1,0,0,1,2.72,2.87c1.71,2.74.68,4.6,2,8.32a26.39,26.39,0,0,0,2.27,4.23c3.16,5.35,4.73,8,6.2,9.68a45.49,45.49,0,0,0,8,7c2,1.31,3.22,1.85,4.24,3.48,1.39,2.25.56,3.67,1,6.81.83,5.24,4.38,9,7.26,12.1a30.8,30.8,0,0,0,4.39,4.08c3.13,2.32,5.21,2.79,5.29,4.23.11,1.67-2.58,2.24-2.57,4.24,0,1.34,1.23,1.83,2.57,3.78s1.41,3.44,2.12,5.6c1.49,4.49,3.24,3.64,7.72,10.89,1.57,2.54,2.44,4.4,4.84,6a9,9,0,0,0,3.47,1.66c3.12.63,5.25-1.15,8.32-2.27,2.65-1,4.3-.82,10.14-.75,16,.17,13.85-.81,22.84-.31,10.44.59,14.79,2,18.6-1.21,1.67-1.4,1.36-2.1,3.93-4.53a22.23,22.23,0,0,1,10.74-6,22.52,22.52,0,0,1,11.34.9c4.52,1.41,5.5,3.13,8.93,2.88.63,0,2.6-.59,6.5-1.67,4.64-1.28,4.39-1.29,5-1.36,4.49-.53,7.18,1.35,8.32,0a2.34,2.34,0,0,0,.3-2.12c.11-3.07.21-6.15.31-9.22l30.1.45q.67,5.6,1.36,11.19h70.18c-2.57-10.51-2-15.39-1.21-17.84.94-2.79,2.11-6,2.11-6,1.26-3.49,1.4-3.72,1.67-4.69a26.58,26.58,0,0,0,.76-8.32c-.11-5.77,0-8.66-1.37-10.89-1-1.58-2.35-2.68-2-3.33s2.07.2,4.69-.6c1.24-.39,1-.64,2.42-1.06,2.16-.67,2.73,0,4.23-.76a6.56,6.56,0,0,0,2.42-2.12,9,9,0,0,0,1.21-2.26c1-2.49,2.27-3.37,3.18-4.84,2.76-4.48.35-11-.15-12.41-1.2-3.27-2.12-2.94-3-5.9-1-3.14-.71-6,.15-10.43,1.44-7.37,2.4-8.11,3.48-13.31,2.15-10.34.16-16.23,3.78-18.3a5.82,5.82,0,0,1,3.94-.46c6.88,1.18,39.88,1.07,89.08.15l-.3-11.64,39,.45-10.59,31.76q1,7,2,13.92l150.8.6a21.42,21.42,0,0,0,2,5.9c1.23,2.42,2.18,3.14,3,5.3a15,15,0,0,1,.91,6c-.12,12.09,3.52,16.16.75,23.89t-5.29,9.53c-4,7.25-4.31,7.75-4.69,8.93-1.56,4.84.19,5.63,0,14.67-.19,8.74-1.93,12.67.91,15.88,1.13,1.28,1.81,1.11,3.17,2.87,2,2.58,1.5,4.17,3.18,8.17s2.59,3.47,3.48,6.5c1,3.36.06,4.66.6,7.57.92,4.86,5.35,4.89,5.6,8.62.18,2.68-1.75,3.55-1.36,6.35a8.21,8.21,0,0,0,3.17,5q.16,19.14.31,38.27a31.42,31.42,0,0,0-3.33,7.71c-1.79,6.43,0,8-2.12,13.16-1.16,2.8-2.45,4.19-3,7.71a20,20,0,0,0-.15,4.69c.47,10.36-4.21,13.7-2,20.27,1,3,2.27,3.23,2.72,6.35s-.36,5.31-1.36,8.17c-1.57,4.51-3,5.76-6,12.86a17.32,17.32,0,0,0-1.36,4.38,17.13,17.13,0,0,0,.45,7c3.1,12.44,4.76,19.09,10.59,24.81,3.62,3.54,5.92,3.87,9.83,8.77,1,1.21.77,1.11,4.84,6.65,4.58,6.22,4.38,5.73,5,6.81,2.38,4.17,2.54,6.63,4.69,7.26a16.19,16.19,0,0,0,3.78.45c1.26,0,1.61-.12,2.27.16,1.26.52,1.22,1.55,2.42,2.26s2,.17,3,.46c2.51.7,3.25,5.63,3.63,8.32.8,5.7-.19,7.6.45,12.7.38,3,2.07,4.38,1.82,7.41-.17,2-.81,2.5-.61,4.39s1,3.16,2.57,5.75c1.07,1.74,1.47,2.11,2.57,3.78a52.74,52.74,0,0,1,3.33,5.9c1.37,2.67,2,4,2.27,5.29a12.58,12.58,0,0,1-.45,5.45c-.39,1.64-.22,5.65.15,13.61.54,11.87.73,10.59.6,12.1-.54,6.45-2.3,9.36-.3,12.55,1,1.52,2.4,2.55,2.27,4.39-.07,1-.59,1.9-2,3.33a25.88,25.88,0,0,1-5.9,4.53c-4.61,2.67-7.89,4.57-9.68,7.87-.11.21-2.61,5-.75,9.22,1.27,2.91,3.2,2.42,4.38,5.45.43,1.09.39,3.62.31,8.62-.07,3.82-.15,4.06.15,4.84,1,2.61,2.92,2.58,4.08,5.6.62,1.62.22,2,1.06,3.78,1.08,2.25,2.09,2.25,2.12,3.33.06,2.25-4.35,2.88-4.84,6a3,3,0,0,0,.75,2.72c1.07.85,3,.15,5-.61A29.57,29.57,0,0,0,1238,2034c2.36-1.23,2.72-1.54,3.94-2.12a27.41,27.41,0,0,1,4.84-1.66c3.72-1.19,6-4.36,8.31-7.56,4.17-5.78,2.61-7.47,6.05-10.74.74-.7,5.08-4.69,9.68-3.78,1,.19,2.78,1.54,6.36,4.23,4.88,3.68,6.08,4.82,8.47,5.14a12.55,12.55,0,0,0,4.69-.45c3.38-.74,4.49-1.84,7.56-2.87,1.13-.39,2.27-.67,6.8-1.21,11.24-1.35,16.92-2,20.12.3,1.81,1.28,1.58,2,3.63,3.17,1.57.86,3.07,1.16,9.68,1.06,8.39-.12,9.83-.65,11-1.36a43,43,0,0,0,4.09-3.33c2.61-2.24,3-2.76,5.14-4.53,1.76-1.44,1.7-1.24,4.39-3.33,3.41-2.66,3.58-3,5.14-4.08a22.09,22.09,0,0,1,6.35-3c2.13-.6,7.19-2,11.5.3,2.79,1.51,3.12,3.44,5.89,3.78,1.79.23,2.67-.45,4.39.31,1.18.52,1.45,1.13,3.18,2a11.72,11.72,0,0,0,2.57.91,12.13,12.13,0,0,0,7.56-1.06c2.19-1,1.93-1.62,3.18-1.81,1.72-.27,2.87.75,7,3.48,4.78,3.18,5.55,3.33,6.21,3.32,1.8,0,3.11-1.22,6-4.53,7.54-8.53,9.1-12.11,12.85-12.56a15.64,15.64,0,0,1,4.54.3c2.38.5,2.89,1.17,4.84,1.67,3.93,1,5.37-.83,6.81.15,3.13,2.15-2.5,11.89.9,14.82,1,.87,4.2.68,10.59.3a17.47,17.47,0,0,1,5.75.46,20.44,20.44,0,0,1,3.17,1.21c4,1.81,6.33,2.84,8.32,5a14.55,14.55,0,0,1,2.73,4.39c.23.54,4.73,11.3-.46,20.41-3,5.28-7.38,6.73-6.8,10.44a8.69,8.69,0,0,0,2.26,4.08c1.63,1.87,2.8,2,5.75,4.09,3.36,2.41,2.66,2.87,4.54,3.78,3.41,1.65,7.1.8,9.23.3a24,24,0,0,0,5.44-2.12,36.71,36.71,0,0,0,7.56-4.53c5.11-4.12,4.38-6.65,8.93-9.53,1.75-1.11,1.71-.64,6.5-2.57,6.82-2.76,7.75-4.06,12.13-5.76a41.59,41.59,0,0,1,13.58-2.71c3.4-.15,11.3-.08,15.43-.31a14.54,14.54,0,0,0,4.24-.75c.76-.27.94-.42,2.26-.91a21.79,21.79,0,0,1,3.33-1.06c1.43-.28,2.07,0,4.24.15,3.37.29,5.06.43,6.5-.15,2.12-.84,1.89-2.07,4.39-3a5.54,5.54,0,0,1,4.23-.31,4.37,4.37,0,0,1,2.72,3.63c0,.77-.24,1.24-1.36,3.18-2.49,4.35-2.19,3.88-2.42,4.24-3.33,5.33-3.2,5-3.32,5.29a15.16,15.16,0,0,0-.91,11c1.21,3.71,3,3,4.23,6.35,2.24,6-2.87,10.45-.15,14.52.86,1.29,1.26.69,4.84,3.33,4.09,3,4.07,4.17,7.11,6.5,5.57,4.29,8.3,2.47,10.29,5.75s0,6.46,2.57,8.62c1.16,1,3,1.57,4.23.91s.79-1.9,2-3.33a6.87,6.87,0,0,1,4.69-2.11c.63-.06,2.87-.16,7.71,3.17,3.47,2.39,3.38,3.17,5.14,4.24,6.81,4.1,15-3.44,20,.6,1.61,1.32.75,2.14,3.48,5.14,2.26,2.49,3.7,2.86,6.05,5.3a23.14,23.14,0,0,1,3.78,5.29c21.71-.14,37.36-.26,41.44,0,1.41.09,5.05.46,6.81-1.51a4.74,4.74,0,0,1,5-2c2.91.43,3.45,2.37,7.41,4.69.84.49,2.32,1.14,5.29,2.42,2.48,1.07,3.72,1.61,5.15,2.12,3.48,1.24,6.25,1.58,11.79,2.27,3.73.46,5.43.48,6.51-.61.66-.66.77-1.43,1.81-2.27a6.15,6.15,0,0,1,3.18-1.21c4.94-.61,14,1.82,18.6,0,5.06-2,6.45-9.79,8.17-19.51,2.4-13.51-.47-18.22,3.78-22.08,3.21-2.91,5.64-.95,14.22-5.44,5-2.6,6.24-4.35,7.86-3.63,2.85,1.25,3.14,8.5,3.48,17.24a23.14,23.14,0,0,0,1.06,6.2,15.83,15.83,0,0,0,1.82,4.08,15.14,15.14,0,0,0,5,4.84,20.58,20.58,0,0,0,4.69,1.82c4.93,1.79,4.71,4.43,10.58,8.47,5,3.42,7.36,3,8,5.44.71,2.61-1.79,4-1.06,7.87.33,1.7.84,1.56,2,4.84.93,2.72.81,3.5,1.51,5.59a23.87,23.87,0,0,0,3.18,6c5,7.59,8.39,7.42,12.7,13.16a7,7,0,0,0,3.48,2.73c.76.23,1.36.23,3.63,0a57.79,57.79,0,0,0,6.81-.91c1.88-.43,1.72-.55,5-1.51,4.09-1.21,6.13-1.81,7.86-1.82,2.42,0,2,.61,6.81,1.21,3.25.41,4.16.21,4.84,1.06,1,1.25-.1,2.8.3,6.05a16.18,16.18,0,0,0,1.21,4.08c1,2.56,1.47,3.83,2.27,4.24,1.69.86,4.22-.56,7.56-2.42,2.42-1.35,2.87-2,3.94-1.82,1.36.22,1.57,1.4,4.23,4.09a12.37,12.37,0,0,0,4.08,3.17,10,10,0,0,0,4.24.61c6.91-.06,7.55-1.56,10.44-.76s2.31,2.25,6.35,3.63c2,.69,2.92.6,4.38,1.67a20.3,20.3,0,0,1,3.18,3.32c1.11,1.31,1.89,2.32,2,2.42,2.37,3.08,5.71,4.92,10.13,8.62s6.6,5.59,6.81,8c.22,2.64-1.44,5-2.57,6.66-2.66,3.81-5.56,4.6-5.3,6.5.18,1.31,1.58,1.1,3.18,3.33,1.44,2,1,3.08,2.42,6.2a39.1,39.1,0,0,0,2.42,3.93c3.26,5.42,3.07,7.25,4.54,7.56,2.14.46,5.23-2.92,6.5-4.69.94-1.31,1.61-2.74,3.18-3.17a4.06,4.06,0,0,1,2.42.15c5,1.68,7.43,9.8,14.67,15.28a12.91,12.91,0,0,1,4.38,4.68,13.36,13.36,0,0,1,1.21,5.3c.52,6.27-.49,7.92,0,10.43.72,3.65,5,7.81,9.08,8.93a4.92,4.92,0,0,1,2.87,1.51c.67.83.76,1.75.76,4.69,0,5.08-.28,5.58.3,6.65,1,1.84,2.33,1.36,3.18,3.18.92,2-.49,2.94.15,5.75a10.74,10.74,0,0,0,2.57,4.54c1.6,2,2.46,3,3.78,3.17.73.1,1.5-.07,6.81-3.93,2.31-1.68,3.54-2.65,4.84-2.27.8.24.77.74,2,1.36,1.9,1,3.08.3,3.63,1.06.72,1-1,2.46-.75,4.39a4.9,4.9,0,0,0,3.78,3.93c2.73.33,3.65-3.63,8.47-7.26,3.49-2.63,4.13-1.39,11.19-4.84a111.73,111.73,0,0,0,10.89-6.5c5.84-3.73,8.76-5.59,10-6.66,1.93-1.69,3.26-3.16,5.9-4.08,1.12-.39,4.11-1.44,6.51,0,1.24.75,2.07,2,2.72,4.08,2.09,6.65-1.43,9.6-.15,15.28.93,4.15,4.16,8.56,8.77,10a12,12,0,0,0,9.83-1.36,11.06,11.06,0,0,0,3.48-3.93V2148.68c-3.34,1.55-6,3-7.71,3.93-3.16,1.76-3.9,2.37-5.9,3s-4.83,1.57-7.87.61c-2.61-.83-2.77-2.25-4.84-2.57-1-.16-2.93-.14-6.8,3-4.42,3.6-9.49,7.74-9.08,12.71.47,5.66,7.62,7.26,7,11.8-.39,2.63-3.2,4.73-5.6,5.44-4.53,1.34-6-2.75-16-5.14-2.8-.67-5.26-1-8.32-2.88a19.22,19.22,0,0,1-4.39-3.78H2057.2a30.06,30.06,0,0,0-6.51-13.76c-2.42-2.8-3.52-2.85-6.8-6.5-3.93-4.37-3.46-5.52-7.72-11.2a71.14,71.14,0,0,0-10.43-11.19,85.39,85.39,0,0,0-7.87-5.9c-2.68-1.82-4-2.5-9.23-5.75-8.27-5.09-6.94-4.51-8.47-5.29-7.36-3.75-11.74-3.52-15-8a12.51,12.51,0,0,1-1.36-2.42l-.3-22.38a6.17,6.17,0,0,1-3.78-2.12c-1.7-2.19-1-5.27-.61-7,3.62-15.17,4.84-18.6,4.84-18.6,3.69-10.33,4.71-12.45,5.6-17.54a77.79,77.79,0,0,0,.9-8.63c.94-13.08-.74-15,1.21-21.17,1.32-4.15,2.08-3.27,4.69-9.83,2.8-7,1.78-7.67,4.09-13.61,2.93-7.57,5.39-13.93,11-16.64,1.62-.78,3.83-1.42,4.69-3.48.75-1.82.1-3.89-.61-6a28.22,28.22,0,0,0-2.42-5.14c-1.75-3.33-3.11-5.91-3.63-8.62-.76-4,1-4.13,1.21-10.29a26.59,26.59,0,0,0-1.66-10.89,60.66,60.66,0,0,0-3.33-6.2c-2.82-4.94-3.65-5.77-3.78-7.87a10.4,10.4,0,0,1,1.81-6.2c1.6-2.42,3-2,4.24-3.78,1.75-2.46.08-4.56-.45-12.1s.74-10.53,1.36-11.8a16,16,0,0,1,2.57-3.78l3.63-16.48-16.49-33c-2.91-2.72-3.59-5-3.63-6.65-.08-3.24,2.31-4.65,1.67-8.32a40.08,40.08,0,0,0-1.21-4.24c-2-5.25-4.72-7.67-7.26-8.77-4.23-1.82-8.25-.07-9.53-2.27-.93-1.59.15-4.26,1.51-5.74,1.91-2.08,4.07-1.5,7.71-3.79a16.89,16.89,0,0,0,3.33-2.72,217.59,217.59,0,0,0,24.65-18.75c6.39-5.63,15.65-13.87,19.82-22.09a71.2,71.2,0,0,1,3.63-6.65c2.67-4.31,3.89-5.18,6.2-9.23,2-3.54,3-5.36,3.18-7.86a13.11,13.11,0,0,0-2-7.72c-1.09-1.64-1.65-1.51-3-3.63-1.08-1.66-2.15-3.32-2.11-5.59a7,7,0,0,1,1.81-4.69c2.65-2.77,6.73-1.87,7-1.82l120.85-18.45,94.53-15a4.43,4.43,0,0,0,3.18-1.51c1.34-1.85.08-4.73-.76-6.66a14.56,14.56,0,0,0-3.48-5.44c-2.78-2.88-11.47-18.58-32.22-61.26q-3.54-11.37-7.41-23-5.57-16.74-11.34-32.67l-6-10.59L2183,1490.89l-25.41-15.28-13.62-12.7c-13.85-18.21-18.11-27.21-19.21-32.07-.64-2.85-1.13-8.46-3.93-13.76a16.3,16.3,0,0,1-2-5.14c-.46-2.51,0-3.63-.31-6.51a24.65,24.65,0,0,0-1.36-5.29,48.78,48.78,0,0,1-2-11.8,28.61,28.61,0,0,1,3.32-13.76l11.35-16.34q-.76-6.35-1.52-12.7l-29.19-80.47a36.15,36.15,0,0,1-3.32-10.74c-.52-3.56-.34-6.08,0-10.58.51-7,.85-11.6,3.32-16.79a30.6,30.6,0,0,1,4.84-7.26q-1-23.52-2-47a7.22,7.22,0,0,1-3.78-3.33c-2.06-4.17,1.11-10.73-.16-14.07-.06-.15-.37-1-.75-2.11-.44-1.34-.69-2.33-.76-2.57-.54-2-2-3.57-3.63-5.75-4-5.46-2.88-6.82-5.59-8.62a8.8,8.8,0,0,1-3.18-2.73,7.16,7.16,0,0,1-1.06-3l.15-47.49-3.93-5.6,1.51-34a35.83,35.83,0,0,0,1.82-5.45c.79-3.2,1.41-5.8.75-8.92a9.68,9.68,0,0,0-2.57-5.29c-1.68-1.61-3.43-1.74-5.14-2.27-5.32-1.65-8.33-6.54-12-12.4-2.52-4.09-3.78-6.14-3.93-8.93-.19-3.41,1.2-5,0-8a12.4,12.4,0,0,0-3.78-4.69,19.43,19.43,0,0,0-4.24-2.57c-3.35-1.69-4.51-1.65-7.11-3.18a21.49,21.49,0,0,1-3.17-2.27l-.46-32.67,13.31-11.49c5.15.24,7.7-1.17,9.08-2.58,1-1,.95-1.59,2.87-3.78s2.61-2.4,4.09-4.23a22.91,22.91,0,0,0,2.57-4.09c1.63-3.18,2.66-5.18,2.57-7.56-.15-3.82-3-3.91-3.63-8.32-.49-3.55,1.25-4.38.15-7.11-.89-2.2-2.36-2.5-3.18-5.14a10.78,10.78,0,0,1-.3-4.08,26.59,26.59,0,0,1,2.12-8.77,30.69,30.69,0,0,1,4.54-7.57c3.89-4.87,11.06-15.22,21.47-30.85l3.48-2.72c5.7,2.09,8.33,1.4,9.68.3.6-.49.65-.82,3.33-3.94,1.26-1.46,1.89-2.19,2.57-2.87a30,30,0,0,1,4.69-3.78c3.21-2.15,4.81-1.56,5.6-3,.45-.85.65-2.31-.76-5l.3-54.9,5-2.12q.15-14.22.31-28.43c1.48-9.48,2.27-14.83,2.72-18,.32-2.3.56-4.13,1.06-7s.74-3.8,1.06-6,.47-4.26.6-6.2c.79-12.19.25-14.25,1.82-18.15,1.39-3.46,2.08-2.48,3.32-5.6,3.68-9.2-3.54-14.79-.15-24a32.76,32.76,0,0,1,4.24-7.41c2.05-2.76,3.31-3.61,5.9-7a53.71,53.71,0,0,0,4.08-6c4.36-8-.18-11.89,3.78-19.82,1.89-3.79,3.6-7.22,7.11-9.07,1.18-.63,3.58-1.62,4.84-4.09a7.28,7.28,0,0,0,.76-2.72l.75-38.57,6.51-5.14h12.7a24.93,24.93,0,0,1,5.29-7.56c1.57-1.52,2-1.52,3-2.73,2.91-3.38,3.27-7.66,3.48-10.58.48-6.77-1.61-8.12,0-10.89,1.22-2.11,3.44-2.92,7.86-4.54a64.73,64.73,0,0,1,10.89-2.72c2.54-.44,4.29-.61,6.51-1.82a14.58,14.58,0,0,0,3.93-3.17q18.9-20.43,37.81-40.84l21.78-17.55q15.21-17.16,30.4-34.33a37.73,37.73,0,0,0,7.42-10.59,53.11,53.11,0,0,1,2.57-5.75c1.81-3.29,2.94-4.14,2.72-5.59-.3-1.93-2.67-2.91-5.45-4.24,0,0-4.91-2.34-11.49-6.35-6.18-3.76-10.44-8.83-13.31-12.25-4-4.73-5.76-8.13-8-7.72-1.91.36-1.85,3-5.29,5.15-.71.43-3.33,2-6,1.51-3.29-.65-3.29-3.75-6.81-6.5-5.47-4.29-11.44-1.47-12.85-4.69-.56-1.26.44-1.49,2-8.32.63-2.81.66-3.67,1.36-5.9a56.52,56.52,0,0,1,2.12-5.29c1.61-3.8,1.26-3.35,3.18-8,1.32-3.23,2.49-5.89,3.63-8.47,1.3-3,1.56-3.48,1.81-4.08,1.51-3.61.77-5.55.61-15-.11-6.13.09-7-.91-8.32-1.91-2.44-4.76-1.92-7.11-4.69a9.88,9.88,0,0,1-2.12-5.74c-.31-4.3,2.3-5.12,4.69-12.56,1.2-3.7,1-4.87,2.57-8.16,1.4-2.91,1.85-2.61,3.18-5.3,2.42-4.89,1.15-6.34,3.48-10.89,1.6-3.13,2.42-2.87,3.48-5.75.71-1.92,1.87-5.06.45-8a9.26,9.26,0,0,0-5-4.24c-2.69-1-3.92-.08-5-1.21-1.47-1.54.52-3.67-.61-7.11-.84-2.58-2.21-2.11-3.93-5.59-1.48-3-.93-4.26-2.42-5.3a5,5,0,0,0-5.29,0c-1,.68-1.1,1.46-1.67,2.27-1.49,2.15-4.63,2.28-10.43,2.42-10.74.28-11.83.24-12.41-.75-1-1.64.36-4.43,2.12-8.17,1.42-3,2.13-3.29,2.27-5,.09-1.07-.08-2.27-2.57-7-2-3.75-2.9-5.68-3.48-6-3.18-2-6.05,1.33-10.74-.45-2.18-.84-1.45-1.53-5.59-4.24-3-2-3.38-1.6-8-4.23-4.2-2.39-4.2-2.86-5.9-3.18-1.87-.35-2.63.07-6.65-.15-2.46-.14-3.69-.2-4.09-.61-2-2,2.69-6.94.76-11.79-.82-2.06-1.77-1.43-4.24-5-2.88-4.17-2.26-6-4.08-6.81-2.93-1.3-5.91,2.84-9.08,1.66-2.07-.77-3-3.37-3.47-5.29l-16-21.63c-.55.13-4.52,1-7.56-1.51a7.71,7.71,0,0,1-2.12-2.88q-.53-12.09-1.06-24.2l-36-14.82a11.63,11.63,0,0,0-4.69,5.75c-.8,2.31-.17,3.43-1.06,7a26.17,26.17,0,0,1-2.12,5.44,39.89,39.89,0,0,1-5,7.72,56,56,0,0,1-6.35,6.65,43.72,43.72,0,0,1-7.11,5.75,35.21,35.21,0,0,1-7.11,3.33c-2.35.79-3.55,1.18-4.69.9-2.45-.6-2.58-2.94-5.44-5.9-2.58-2.65-3.53-1.85-7.72-5-4.91-3.68-3.88-5-6.8-6.35-3.89-1.8-5.29.71-13.62-.15-3.51-.36-3.47-.83-7.71-1.21-5.07-.45-5.86.15-7.86-.91-2.24-1.19-3.11-2.93-5.6-3.17a6.18,6.18,0,0,0-2.57.3c-5.1,12-9,14.65-11.8,14.67-1.25,0-3.17-.53-5.6.45-2.11.86-2.26,1.91-4.84,3.18-2.77,1.37-3.27.47-5.14,1.66-2.21,1.42-3.26,3.8-4.38,6.36-1.23,2.77-.86,3.31-1.82,4.23-1.91,1.84-6,2.24-8.17.45-1.22-1-1.26-2.2-4.23-7.56A3.32,3.32,0,0,0,1974,123c-1.6-.93-3.66.1-5,.61-5.6,2.11-11.66,0-14.37-.91a18.92,18.92,0,0,1-5.14-2.57,25.58,25.58,0,0,1-4.24-4.09,33.52,33.52,0,0,1-3.33-4.08,18.85,18.85,0,0,1-2.87-9.23,8.9,8.9,0,0,0-5.14-3.78,11.94,11.94,0,0,0-3.63,0c-3.75.31-4.65,1-7,.91a12,12,0,0,1-4.39-1.06c-5.15-2.19-5.58-6.35-9.22-6.65-2.17-.18-4,1.12-4.39.45s.74-1.42,1.06-3.48a8,8,0,0,0-.05-2.46s-.35-3-.4-7.22.63-4.61,0-6.2c-.88-2.19-3.94-3.78-3.94-3.78a67.57,67.57,0,0,1-7.41-4.69c-5.4-3.69-4.95-5.39-8-6-2.72-.59-4,.55-6.81-.61a10.35,10.35,0,0,1-3.78-2.87c-7.59-8.2-13-8.56-13.46-13.46-.29-3,1.58-4.15.45-6.5-1.27-2.65-4.79-3.6-6-3.94-2.82-.76-3.33.08-5.9-.45-3.88-.8-3.61-2.88-8.47-5.14-4.11-1.92-5.21-.85-8.92-3.18-1.69-1.06-2.15-1.71-3.94-2.42a14.58,14.58,0,0,0-6.35-.91c-1.23.06-2.64.26-7,1.67-5.91,1.93-8.92,2.94-11.49,5A15.88,15.88,0,0,0,1801,30c-2.33,3.64-1.62,6.27-3.94,7.72a5.5,5.5,0,0,1-4.53.45c-2.37-.83-2.16-3-4.69-3.78-1.54-.49-2.28.08-3.93-.76-1.23-.62-1.15-1.1-2.12-1.66-.54-.31-2.1-1-7.11.45-3.38,1-3,1.42-4.84,1.82-4.55.95-6-1.7-9.68-.61-2.51.75-2,2-5.75,3.78-1.9.88-4.48,2.07-7.11,1.21-1.39-.45-2.24-1.31-3.93-3-2.43-2.46-2.16-3.25-3.93-4.84a13,13,0,0,0-6.66-3c-3.64-.55-4.59,1.61-6.8.76s-1.78-3.31-5-6.81c-1-1.07-1-.76-5.75-4.23-5.42-3.93-6.11-4.82-7.72-4.69s-1.86.95-5.29,3.33a46.7,46.7,0,0,1-6,3.63c-4.9,2.17-7-.73-17.09-.61-4.55.06-5.48.66-8.62,0-1.43-.3-2.88-.76-8.32-3.78-8.46-4.69-12.7-7-15.58-9.68A23.08,23.08,0,0,0,1642,2.28a19.6,19.6,0,0,0-3.78-1.66c-3.58-1.09-6.7-.55-10.43.15A25.85,25.85,0,0,0,1621,2.59c-4.79,2.22-7.46,5.92-10.59,10.28a30.7,30.7,0,0,0-3.78,6.05c-3.8,9.06,1.42,15.62-2.27,20.27-1.71,2.15-4.41,2.53-8.32,3.17-7.45,1.23-11.84-1.77-14.82,1.06-.83.79-.33.87-2.12,4.24-2.17,4.08-3.9,7.35-6,7.41-1.3,0-1.55-1.15-4.69-3.93-2.63-2.33-4.49-4-7.26-4.69-.59-.15-4.78-1.17-8,1.06-1.24.85-.85,1.15-2.27,2.27-2,1.52-3.43,1.54-7.71,2.87-1.84.57-1.1.42-4.39,1.51-7.11,2.36-7.93,2.18-8.47,2-2.06-.83-1.67-2.9-4.08-6.05-1.74-2.28-2.86-2.41-7.26-5.45-.71-.48-4.1-3.19-10.89-8.62-3.36-2.67-5.21-4.17-8.32-5.14-1.61-.5-3.84-1.17-6-.3-2.76,1.07-4,3.94-4.54,5.14-4.38,9.29-15.45,15.44-18.15,16.94-6.19,3.44-11.32,6.29-16.94,5a28.12,28.12,0,0,0-10.59-.76,4.71,4.71,0,0,0-3.33,1.52c-1.2,1.65.27,3.46-.9,5.14-.86,1.23-2.49,1.48-4.69,1.81a19.92,19.92,0,0,1-5.14,0c-3.79-.3-5.67-.54-6.51-.6-4.42-.34-5.4,2.22-16.94,7.41a31.34,31.34,0,0,1-8.62,2.87c-3.76.59-4-.22-6.2.46-3.38,1-3.38,3-9.68,8.77a68.69,68.69,0,0,1-6.5,5.29c-2.43,1.74-3.23,3.2-4.84,3.18-1.77,0-1.94-1.45-4.39-2.42-3.1-1.23-4.26.48-7.26-.6-1.19-.43-2.5-1.7-5.14-4.24-3-2.84-3.08-3.45-5-4.84s-3.17-2.32-5.14-2.57c-3.15-.4-4,1.61-6.5,1.06-1.72-.38-1.52-1.34-5.45-4.69-1.3-1.11-1-.69-5.74-4.39a36.39,36.39,0,0,0-3.63-2.72c-1.44-.8-4.08-2.28-7.26-1.81a10.69,10.69,0,0,0-5.9,3.32c-2.41,2.29-2.94,4.2-4.24,6.36-3.49,5.79-6.93,4-11.34,9.52-1.1,1.37-5.66,7.07-5.6,14.22,0,2.34.54,4.76-1.06,6.66-1.35,1.61-3.65,2.16-4.69,2.42-2.49.6-3.23-.07-5.44.75-1,.38-3.08,1.15-3.33,2.57-.18,1,.7,1.51,2.12,4.24a12,12,0,0,1,1.21,2.72c.53,2.43-1.23,4.58-3.33,7.56a61.43,61.43,0,0,0-5,7.87c-3.23,6.57-1.41,9.74-4.39,11.65-1.93,1.23-3.27.26-7.41,2.26-1.7.83-1.82,1.17-3.32,1.82a18.66,18.66,0,0,1-7.11,1.36c-7.48.34-11.22.47-12.1.3-1.87-.34-5.2-1.85-11.8-4.84-7.4-3.35-6.41-3.08-7.56-3.48-7.44-2.52-9.73-.5-16.64-3.32-1.5-.62-2.69-1.24-5.75-2.42s-3.19-1.08-6.35-2.27c-5.4-2-5-2.33-7.41-2.88-3.21-.74-4.05-.24-6.05-1.36-2.17-1.2-2.1-2.29-3.78-2.72s-3.08.29-6,1.66c-2.77,1.28-2.75,1.62-4.84,2.58a30.77,30.77,0,0,1-7.26,2.11,55,55,0,0,1-15.43.76,30.37,30.37,0,0,1-6.66-1.21,21.15,21.15,0,0,1-7.56-3.93c-2.23-1.88-2.54-3.08-4.84-4.09a7.8,7.8,0,0,0-4.23-.75c-2.38.33-3.14,1.85-5,2.72-2.66,1.23-5.53.18-8.78-1.06-1.51-.58-4.84-2-14.21-9.23-4.23-3.26-6-4.87-9.23-5.29-2.63-.34-4.42.35-6.5.91-7.25,1.94-9.13,0-21.94.45-10.72.42-9.62,1.81-13.31,1.06-8.89-1.82-14.35-9.75-18.15-15.28-9.22-13.41-5.26-18.75-13.61-25.86-5.37-4.58-8-3.22-15.43-9.83-3.25-2.9-5.36-5.5-10-7.56-2.14-1-2.5-.77-9.07-2.42-7.6-1.92-11.4-2.87-14.22-4.39a32,32,0,0,1-9.38-7.41c-1.79-2.11-2.39-3.43-5.14-6.35-2.41-2.56-3.62-3.84-5.6-4.84-2.46-1.25-4-1-8.77-1.67-4.27-.58-5.44-1.09-8.62-1.66-4.31-.77-13.69-2.43-23.9.76a46.58,46.58,0,0,0-11.49,5.59c-6.69,4.23-6.28,5.9-11.8,9.08-6.78,3.89-8.64,2.08-15.13,6.35a33,33,0,0,0-8.32,7.71c-2.66,3.64-2.48,5.22-5,10.44A67.69,67.69,0,0,1,829,81.84c-5.71,6.42-6.59,4.48-10.89,10-2.39,3.07-6.43,8.25-8.47,15.58-.63,2.3-1.12,5-3.33,7.87a15.71,15.71,0,0,1-5.29,4.53c-4.73,2.44-6.91.18-12.1,2.12-1.38.52-6.23,2.33-7.86,6.66-1.37,3.61.17,7.25,1.51,10.43,1.94,4.62,3.53,4.6,5.59,9.53a25.77,25.77,0,0,1,2.12,8.47c.19,2.74-.15,4.89-1.36,10.14-1.27,5.52-2,7.92-3,11.94-2.19,8.6-3.28,13-3.18,17.85.1,5.05,1.13,4.17,1.66,10.29,1.09,12.46-3,18.68,1.36,23.89,1.41,1.69,1.73.92,3,2.58,2.52,3.21,2.11,7.12-.51,22.61-1.29,7.57-1.52,8.6-2.06,10.21-1.79,5.3-3.89,7.91-6.35,12.25-3.71,6.52-4.55,10.45-6.81,16.33-1.35,3.51-2.57,6.09-17.55,30.71-15.89,26.13-16.73,26.88-16.78,30.55,0,2.73.28,12-4.39,14.67-.63.36-1.17.51-3,1.51-3.79,2-5.68,3.07-6.65,4.84-.39.71-1.36,2.83-.15,6.51l-.3,37.66a7.72,7.72,0,0,0-4.69,3.48c-.39.72-1.06,2.33-.15,6.5,1.12,5.18,2.76,5.48,4.08,10.29a18.64,18.64,0,0,1,.45,9.68c-.63,2.55-1.26,2.27-2.27,5.14-2,5.67,0,8.2-2,13.61a20,20,0,0,1-2.57,4.84c-2.83,4.29-7,14.56-13.31,38.72a40.21,40.21,0,0,0-6,10.74s-.89,2.65-2.57,14.22q.6,23.15,1.21,46.28c2.49.38,6.24,1.35,7.71,4.24.81,1.58.52,3,.3,5.14-1,9.47,1.57,11-.15,16.48a19.06,19.06,0,0,1-5,7.87l-13,16q-.82,7.41-1.66,14.82a15.6,15.6,0,0,0-3.18,5.6c-.81,2.62-.43,4-.91,6s-1.88,4.84-6.2,7.71l-.9,24.2,4.08,2.58q-.3,15.65-.61,31.3l-50.36,55.51c-3.41.3-6.17.49-8,.61-5,.31-7,.32-9.68,1.36a18.16,18.16,0,0,0-4.38,2.42c-3.92,3-7.92,6.3-12,9.83a252.23,252.23,0,0,0-25.56,25.86c-10,11.06-13.65,20.79-15.13,27.68-1.2,5.64-.8,8.67-3.33,14.83-2.09,5.11-4.33,7.81-11.49,18.15-6,8.69-4.24,7.24-8,11.79-3,3.59-8,7.64-18,15.73a20.41,20.41,0,0,1-7.26,4.09,19,19,0,0,1-6.8.75l-.76,46.59a13.57,13.57,0,0,1,3.33,7.41,10.33,10.33,0,0,1-.3,4.08,10.52,10.52,0,0,1-3.48,5.15c-1.49,4.78-2.56,9-3.33,12.4a137.31,137.31,0,0,0-2.57,14.67c-.29,2.44-.43,3.67-.46,5-.11,5.54,1.13,8.29,1.82,13,.46,3.21.27,4.56.15,10.89-.37,20.15,1.35,21.85-.45,28.89-.44,1.7-2.67,6-7.11,14.52-9.6,18.41-9.9,18.06-14.67,27.68-3.19,6.42-7.64,12.33-9.68,19.21-.8,2.68-2.09,7.81-6.51,10.89a24.21,24.21,0,0,1-4.84,2.26,59,59,0,0,1-11,3.18c-5.51,1.07-5.48.43-9.07,1.21-3.1.67-9.08,2-13.77,6.5s-6.69,11.2-7.26,13.16a52,52,0,0,1-2.72,7.57c-1.62,3.57-2.57,4.54-3.33,5.14-1.49,1.17-3.1,1.57-6.5,2-5.5.65-6.33.21-10,.61-4.07.45-9.13,1-12.71,4.69a13.24,13.24,0,0,0-2.72,4.23l-39,46.29c1,5.58-.2,8.11-1.52,9.37s-2.5,1.09-5.59,2.42c-2.8,1.21-3.9,2.22-7,4.24-6.73,4.44-10.09,6.66-12.71,6.5-4.38-.26-4-4.24-11-7.26-1.73-.74-9.6-3.87-14.21-.15a7.88,7.88,0,0,0-2.12,2.72v-29.34a12.57,12.57,0,0,1-5.6-5.29c-.59-1.09-2.2-4.07-1.36-7.26.64-2.43,2.55-4,6.35-7.26,3.06-2.59,4.65-3.32,4.84-5.15,0-.31.09-1.16-1.66-4.08-2.45-4.09-3.63-4.21-4.84-6.81-1.64-3.52-.36-5.22-1.82-6.2-1.94-1.31-5.63.8-9.52,3a70.59,70.59,0,0,0-5.9,3.93c-3.48,2.32-12.85,8.57-21.18,7.11a12,12,0,0,0-5.9,0,9.29,9.29,0,0,0-4.53,2.72c-2,2.3-1.08,4-2.73,5.75-2.39,2.59-7,1.87-7.26,1.81-4.46-.76-5.3-4.35-9.22-6.5-2.62-1.43-6.93-2.39-14.22.15q-.45,16.79-.91,33.58a42,42,0,0,0-7.11,5.44c-1.86,1.8-2.48,2.75-4.23,3.48-.32.14-4.3,1.75-7.11-.15-1.67-1.12-1.58-2.57-2.72-2.72s-2.34,1.54-4.39,4.23c-2.95,3.89-4.42,5.83-5.6,6.51-4.71,2.73-11.59-1.2-12.85-2a18.79,18.79,0,0,1-7-7.56L120,1217a32.24,32.24,0,0,1-3.33,6.81,11.15,11.15,0,0,1-2,2.57c-.66.59-2.31,1.87-7.87,2.57-4.18.53-3.91-.11-5.9.46-3.47,1-3.94,2.86-7,3.78s-4.17-1.17-6.81-.3c-.91.29-1.82.85-4.84,5-2.47,3.39-2.58,4-6.2,9.53-2.36,3.59-3,4.37-3.78,6.35-1,2.51-.72,3.1-1.67,4.08-1.51,1.57-3.87,1.73-8.16,2-3.41.19-3.89-.17-4.84.45-2.4,1.55-.76,4.63-2.88,7.26s-5.15,1.07-11.64,4.09c-2.13,1-5.72,2.65-5.6,4.53s3.63,2.19,5.44,5.75a8.61,8.61,0,0,1,.91,3.33Z"/></g></g></svg>