<svg xmlns="http://www.w3.org/2000/svg" viewBox="0 0 2366.02 2220.1"><g id="Layer_2" data-name="Layer 2"><g id="Costa_Rica" data-name="Costa Rica"><path d="M2120.2,2194.07c2.41,2.52,4.24,3.33,5.24,6.26,1.1,3.21.65,7.39.14,12.21-.27,2.61-.58,4.16.44,5.38.88,1.06,2.26,1.29,4.94,1.75s4,.68,4.66,0c1.07-1.08-.3-3.33-1.17-7.13-1.3-5.7.57-6-.58-10.9-1-4.17-3.17-7.64-5.23-10.91a37.75,37.75,0,0,1-2.91-4.94,31.11,31.11,0,0,1-2.18-6.4c-1.56-6.38-3.72-7.28-5-12.8a21.12,21.12,0,0,1-.58-3.64c-.25-4.13,1.05-5.72,1.6-9.3.19-1.28,1.08-7.1-1.89-11.35-1.4-2-2.39-1.83-6-4.36-4.41-3.12-8.6-6.1-10.18-11.05-.16-.49-2.15-7,.87-11.93.72-1.17,1.54-1.94,1.89-3.63a9.3,9.3,0,0,0-1.45-6.55c-2-2.94-4.05-2.18-4.8-4.36s1.29-3.6.58-7.42a5.35,5.35,0,0,0-1.16-2.76c-.27-.3-1.14-1.17-4.37-1.75-3.49-.62-4.16.09-5.09-.72-.65-.58-.5-1.09-1.45-5.38-.57-2.54-.78-3.1-1.31-3.35-1-.48-1.79.93-3.78,1.16-.42.05-1.38.11-5.67-2-3.47-1.72-3.87-2.27-4.8-2-1.5.37-1.81,2.08-3.49,4.66a22,22,0,0,1-4.66,5.09c-12.81-14.82-21.58-25.16-23.56-28.07a8.83,8.83,0,0,0-3.49-3.2,10.56,10.56,0,0,0-3.92-.87c-4-.42-5,.36-6.55-.44a6.52,6.52,0,0,1-2.91-3.93c-1.77-5.49,3.27-11.23,3.64-11.63,1.57-1.74,5.09-3.46,12.07-6.84,5.55-2.68,5.36-2.41,7.56-3.63a92.6,92.6,0,0,0,10.62-7.13c4.87-3.57,4.76-3.82,8-6,3.6-2.38,4.3-2.44,6.83-4.36a34.73,34.73,0,0,0,6.69-6.4c3.57-4.57,2.18-5.78,5.38-10.76,2.19-3.41,5.76-9,11.78-10.77,2.26-.66,4.44-.68,5.53-2.47.89-1.46.26-2.82,1.6-5.52a5.17,5.17,0,0,1,1.74-2.33,5,5,0,0,1,4.8-.15c2.38,1.27,1.82,3.86,3.93,4.8,1,.46,1.88.18,4.51-.58,2.8-.81,5.63-1.51,8.43-2.33a69.5,69.5,0,0,1,8.58-1.89c7.46-1.22,9.33-.31,11.35-2.32.74-.75.65-1,3.34-4.51,1-1.25,1.78-2.25,2.33-2.91,4.07-4.49,12.79-14.66,18-25.89a41.08,41.08,0,0,0,3.35-10c.61-3.24,1.52-8.11,0-13.67-1-3.72-2.06-3.84-2.91-7.85-.56-2.64-1.24-5.86-.15-9.31,1-3.24,2.53-3.23,6.55-9.31,2-3.08,3.06-4.65,3.34-6.4.46-2.8-1.23-3.82-4.22-10.61-1.85-4.21-2.77-6.35-2.47-8.29.52-3.39,2.92-3.71,3.78-7.27.68-2.78-.55-3.56-1.6-9-.78-4.06-.15-3.87-1.16-13.09-.49-4.48-.89-6.84-2.76-8.73-.94-1-1.41-.92-3.49-2.32a36.4,36.4,0,0,1-6.26-5.38,39,39,0,0,1-6.54-9.46c-2.66-5.15-4.72-9.12-4.66-14.39,0-2.48.52-4.07-.58-5.09-1.77-1.66-4.66,1-8.58-.15s-6-5.4-6.83-7.12c-1.89-3.86-.51-4.71-2.18-8.29-1.47-3.14-3.79-5-8.44-8.73-4.14-3.33-5.44-3.58-7.71-6.4-1.44-1.79-3.64-4.54-2.9-7.12.51-1.81,2-1.85,2.76-4.22.54-1.66,0-2,.29-4.8.28-2.33.48-4,1.6-5.09s2.58-.73,6.54-.87c5-.19,7.54-.28,8.87-1.75,1.86-2-.47-4.11,1.17-8,.95-2.25,3.1-4,7.41-7.41,2.66-2.13,4.22-3.2,4.22-3.2,3.51-2.43,4.52-2.57,4.95-3.78,1-2.74-2.7-6.36-3.35-7-3.69-3.53-6.88-2.71-8.29-5.38s.41-6.24,1.31-8c3.33-6.46,9.92-9.16,14.54-11.06a40.85,40.85,0,0,1,14.55-3.49c4.43-.16,6.39.6,10-.72,2-.74,4-2.2,7.85-5.09,6.51-4.89,6.08-5.47,8.15-6.11,4.68-1.46,6.48,1.66,11.92.29,1.88-.48,1.79-.88,7.27-4.07,8.52-5,8.76-4,11.2-6.26,1.74-1.6,3.54-4.65,7.13-10.76,2.63-4.48,3.14-5.85,5.23-7.42a20.66,20.66,0,0,1,7.57-3.2c4.22-1,5.65-.29,7.41-1.74,2-1.65,2.29-4.35,2.48-6.11a20.51,20.51,0,0,0-3.35-12.8c-5.78-8.72-12.95-6.41-15.56-12.94-2.36-5.9,2.65-9.87-.73-15.27-1.85-3-5-4.43-7.7-5.67-1.54-.71-4-1.69-9.89-2.47-11.44-1.54-14.42.51-18.91-2.48-1.38-.91-.29-.57-5.24-5.52-4.51-4.53-6.24-5.63-8.72-8.87-2.67-3.49-2-4-3.78-6.11-4.73-5.73-10-2.79-19.2-7.71-8-4.27-6.78-8-14.1-10.32-2.59-.83-5.73-1.32-7.57-4.08-.91-1.37-.55-1.87-2.18-5.81-.88-2.12-1-2-2.62-5.53-2-4.37-1.91-4.73-2.61-5.23-1.65-1.19-3.9-.48-9.75,1.6-9.2,3.26-10,3.75-12.8,4.36-1.11.24-10.5,2.24-11.78-.44-.6-1.28.87-3.14,1-3.34,3.06-4.24,3.58-86.19.44-276.75a73.93,73.93,0,0,0,21.38-3.93c5.07-1.76,5.72-2.66,11.2-4.22,7-2,11.4-3.24,17.3-3.63a19.83,19.83,0,0,0,7.27-1.6c1.87-.84,4.07-1.86,5.24-4.22a7.79,7.79,0,0,0,0-6.83c-1.87-3.54-5.62-2.41-11.78-6.55-3-2-5.57-3.74-6.4-6.69-1.19-4.21,2.51-5.88,2.62-12.21.07-4.27-1.5-9.7-4.66-10.77-2.21-.74-3.95,1.08-5.23,0-1.12-.94-.7-3.11.14-7.12a48.77,48.77,0,0,1,2.77-8.73c1.15-2.89,1.74-4.36,2.61-5.09,2.21-1.84,4.14-.66,7.57-1.74,4.28-1.35,3.6-3.94,8.14-6.26,5.29-2.7,10.87-1.56,12.51-1.16,2.34.58,1.89,1,6.11,2.62,6.14,2.38,9.64,3.75,12.65,2.32,2.82-1.33,2.78-4,5.38-4.36,2-.29,3.63,1,5.52,2.47.65.51,2.74,2.2,8.29,9.31,1.11,1.42,1.91,2.48,3.2,2.62s2.8-.7,4.66-1.75c1.43-.8,1.57-1.07,2-1,1.78.22,1.45,4.3,3.49,5.23,2.5,1.14,5.18-4,8.87-3.2,2.64.55,4.65,3.85,5.39,6.11.8,2.48.1,3.82,1.3,4.8,1.49,1.2,3.46-.11,5.24,1.31.24.19.52.46,1.45,2.47,1.83,3.91,1.61,4.65,2.77,6.4a13.92,13.92,0,0,0,3.34,3.34,11.05,11.05,0,0,0,4.66,2.62c.42.09,4.13.85,5.67-1,1.71-2.08-.42-6,.14-6.25s1.6,3.84,5.24,8.14c1.27,1.51,2.14,2.2,2.33,3.64s-.41,1.87-1.31,5.09c-.65,2.31-1,3.47-.73,4.22.68,2.07,3.17,1.87,4.94,4.07a8.47,8.47,0,0,1,1.46,5.82c-.14,1.49-.58,1.8-.29,2.47.77,1.82,5.06,2.09,8.29,1.45,1.79-.35,2-.73,8.43-3a14.09,14.09,0,0,1,2.76-.87c3,0,4,3.42,8.88,7.56,2.05,1.76,5.36,4.6,7.41,3.63,1.72-.81.81-3.47,2.77-4.79s3.73.57,8.58.58c1.59,0,4.69,0,7.27-1.6,2.2-1.38,3.72-3.73,4.8-7.56,3.91-13.88-4-25.21,1.31-30.4a7.78,7.78,0,0,1,3-1.74c5.88-2,12,2.52,12.51,2.9,4.59,3.52,3.7,6.67,8.87,9.89,1.36.86,4.45,2.78,6.4,1.6,2.27-1.37,1.56-6.07,1.45-6.83-.6-4-2.78-6.45-7-11.49-7.67-9.21-6.25-8.17-8.14-10-9.6-9.46-14.84-5.52-22.55-14.1-3.63-4-7.67-10.72-8.58-15a38.25,38.25,0,0,0-1.6-5.53,16.25,16.25,0,0,0-1.89-4.21c-3-3.86-9.46-3.44-10.9-3.35-1.09.07-1.24.17-8,2-7.62,2.09-8.6,2.29-10.18,2a16.4,16.4,0,0,1-7.13-3.34c-2.77-2.21-3-3.86-4.8-4.07-2.23-.27-3,2.14-6.25,3.34-2,.72-4.22.33-8.73-.44a40.22,40.22,0,0,1-18.61-7.27c-6.91-4.62-6.09-6-9.16-7-5.57-1.72-8.77,2.75-14.84,1a13.63,13.63,0,0,1-6.25-4.07l-22.83-30.11a46.23,46.23,0,0,0-2.62-8.14c-1.43-3.33-2.47-4.63-2-6.54.51-2.21,2.22-2,3.93-4.8a12.38,12.38,0,0,0,1-9.46c-.41-1.46-.88-3.17-1.89-3.34-1.32-.22-2.32,2.39-6.26,7.27-2.84,3.53-3.87,4.09-4.79,4.36-1.15.34-2.17.24-6.11-1-5.58-1.78-8.37-2.67-10-4.08a15.92,15.92,0,0,1-4.65-6.1c-.65-1.59-1-3.45-2.76-5.24a10,10,0,0,0-2-1.6L2041.38,894.38a21.13,21.13,0,0,1-3.2-4.21,22.83,22.83,0,0,1-2.18-5.39c-.2-.77-.16-.76-.73-4.5-.68-4.46-.86-5.24-.29-5.82.93-1,2.32.21,3.93-.73a5.24,5.24,0,0,0,1.89-5.81c-.68-2.06-2.66-2.95-4.22-3.64-3.48-1.56-4.65-.27-8.29-1.45-3.41-1.11-2.73-2.35-7-4.08-3.25-1.32-3.77-.64-7.42-2.18-3.22-1.36-3.6-2.22-5.09-2-1.26.16-1.71.87-5.52,4.5-3.33,3.17-3.84,3.44-4.37,3.64-1,.36-2.33.61-7.12-.58a65.35,65.35,0,0,1-8.15-2.62,1568.83,1568.83,0,0,0-104-131.76c-26.15-29.66-48.3-52.37-78.09-92.05A902.78,902.78,0,0,1,1746,552.48l-32.58-58-22.83-47-31-88-10.91-50.9c1.68-10.43.31-14-1.6-15s-3.72.47-6.39-1.16a9.14,9.14,0,0,1-3.64-5.09,10.65,10.65,0,0,1-.29-3.35,57.09,57.09,0,0,0-.87-9c-.69-4-2.4-5.71-4.37-9.45-4.41-8.38-3-15.5-4.5-15.56-.79,0-1.72,1.73-1.75,3.2,0,1.24.61,1.79,1.16,3.35.62,1.72.41,2.63.59,4.5s.51,2.22,2.18,7.57a63.13,63.13,0,0,1,2,7.27,16.31,16.31,0,0,1-.29,7.85c-.66,2.13-1.37,2.59-1.74,2.76-1.75.81-4.09-1-4.51-1.31-3-2.32-2.46-5.1-4.8-11.34-2.07-5.52-3.79-6.75-5.09-11.78a27,27,0,0,1-.58-7.12c0-1,.09-2.43.43-2.48s.8,1.48,1.89,4.66c1.58,4.57,1.65,4.18,2.19,6.1.89,3.24.35,3,1.3,6.69,1.2,4.56,2.38,6.08,2.77,6.55a23.76,23.76,0,0,1,1.74,2c1.49,2.1,1.6,3.44,2.33,3.5s1.59-1.33,1.89-2.48c.21-.79.16-1.43-.58-4.51-.52-2.15-.78-3.22-1.31-4.94s-.55-1.56-1.16-3.49a49.68,49.68,0,0,1-1.6-5.82c-.32-1.58-.49-2.88-.59-3.63-.11-.95-.23-1.85-.29-3.06,0-.53-.07-1.81,0-3.49a19,19,0,0,0,.15-3.2,9.52,9.52,0,0,0-1-2.91,29.68,29.68,0,0,0-6.25-9.45c-2.82-3.31-2.85-6.09-4.36-10-4-10.35-13.4-16.19-16.15-17.89a49.48,49.48,0,0,0-7.41-3.64c-5.5-2.32-13.2-5.57-14.84-3.49-1.51,1.92,1.85,8.72,6.4,12.95,2.24,2.08,4.17,3,4.36,5.09.27,2.83-3,3.68-3.05,6.69s2.92,3.81,6.25,8.87a24.32,24.32,0,0,1,3.49,7.56,23.92,23.92,0,0,1-1.6,15.27c-1.88,3.81-3.49,4-3.49,6.4,0,3.58,3.65,4.36,6,9.31,1.34,2.87,1.33,5.6,1.3,11,0,6.61,0,9.92-1.89,13.23-3.06,5.5-9.07,7.46-12.5,8.58-6.86,2.24-8.23,0-20.36,2a72.73,72.73,0,0,0-10.76,2.47c-6,1.89-5.46,2.63-11.78,4.65-5.33,1.72-7.78,1.86-11.35,4.37-2.88,2-2.07,2.49-3.92,3.34-4.46,2-8.37-1-14.84.58a5.92,5.92,0,0,0-2.91,1.46c-1.47,1.47-1,2.95-2,5.09-.64,1.29-1.94,2.33-4.51,4.36-3.12,2.46-4.68,3.69-6,4.07-3.44,1-4.53-1.12-9.75-1.31-2.56-.09-6.55-.23-9.45,2.19-3.15,2.63-1.75,5.57-5.53,8.43-1.76,1.34-3,1.36-4.36,3.2s-1,2.85-2.33,4.07c-1.47,1.42-3.46,1.5-5.67,1.6-2.8.13-3.54-.45-8.72-1.16a24.26,24.26,0,0,0-6.11-.44c-1.24.16-1.79.39-6.4,2.18-6.39,2.49-5.52,2.11-7.13,2.77-3.28,1.34-4.16,1.8-6.54,2.61a26.12,26.12,0,0,1-4.36,1.31c-4,.48-9.26-1.26-10.76-4.8-.8-1.87.15-2.61-.73-3.92-1.52-2.26-5-1.06-10.33-2-2.83-.52-8.87-1.63-11-5.67-1.92-3.56.82-6.32-1.6-9.31-1.46-1.8-3.82-2.49-6.25-3.2-2.68-.78-3.86-.56-5.53-.87-6.36-1.19-10.39-8.33-11.92-11-2.9-5.14-1.86-6.8-5.24-11.05-1.6-2-4.13-5.19-7.56-5.09-3,.08-5.15,2.57-5.82,3.34-3,3.41-1.69,6.13-3.78,7.27-2.82,1.54-5.88-3.05-11.78-2a6.5,6.5,0,0,0-3.93,1.74c-2,2.12-.44,4.44-2,7.13-1.71,2.87-5.66,3.94-8.44,3.78-1.85-.11-2.85-.75-6.4-2.77-11-6.29-12.66-6.57-14.25-6.39a58.72,58.72,0,0,0-7,2.61c-3.86,1.55-5,2.17-6.54,1.75-2.41-.65-3.75-3.19-4.37-4.36-1.87-3.57-.86-6.06-2.9-7.71a5.1,5.1,0,0,0-3.06-1l-32.57.15c-1.79-2.88-2.93-3.32-3.64-3.2-1.38.22-1.27,2.59-3.34,3.92-1.8,1.15-4.8,1.25-6.11-.14-1.9-2,.81-6-1.17-7.86-.83-.8-1.76-.54-3.78-.72a22.2,22.2,0,0,1-10-3.93c-1.82-1.35-4.93-3.66-5.53-7.71,0-.28-.62-4.68,2.18-7.7,2.15-2.32,4-1.39,6.69-3.64s3.51-5.61,3.93-7.42c.31-1.32.54-3.06-1.16-12.36-1.39-7.62-2-8.74-2.77-9.74-2.07-2.59-4.58-3-8.58-4.37-14.6-5-15.17-11.61-23.27-11.05-3.39.24-6.75,1.63-9.59-.43-.57-.41-.82-.75-2.91-3.49-3-3.93-4.49-5.9-4.66-6.11a29.23,29.23,0,0,0-7.27-7.13c-2.15-1.37-4.73-2.12-9.89-3.63-7.23-2.12-7.29-1.45-8.43-2.48-4.07-3.68-.58-10-5.24-14.25a21.22,21.22,0,0,0-4.21-2.91c-2.62-1.32-3.63-1-5-2.32-1.16-1.13-2.38-3.27-1.89-5.24.53-2.13,2.58-2,4.07-5.09a21.36,21.36,0,0,0,1-3.34c.72-2.69,1.08-4,.87-5-.32-1.44-1.27-1.87-3.49-4.07-2.9-2.88-2.4-3.47-3.92-4.51-.33-.22-3.65-2.41-6.55-1.31-2.38.91-2.13,3.15-4.51,6.11-3.72,4.63-9.64,5.73-10.9,6-5.63,1-7.13-1.46-10.76.29-2.89,1.39-2.49,3.24-6.55,7.42-2.13,2.2-4.84,5-8.87,6.4-5.29,1.85-10.12.36-14.11-.87-3.19-1-7.75-2.4-10.76-6.55a16.54,16.54,0,0,1-2.33-5.09c-3.65-10.69-15.7-17.17-21.37-20.21-4.61-2.47-3.59-1.17-12.22-5.24-10.8-5.09-10.3-6.15-16.72-8.58-8.44-3.19-11.07-2-17-6-3.27-2.17-5.83-3.86-7.12-7.13-1.09-2.75-.7-5.16-2.62-6.39-1.54-1-3.5-.55-4.66-.3-2.65.6-3.62,1.95-6.1,3.49a24.87,24.87,0,0,1-7.86,2.91,20.78,20.78,0,0,1-10.76-1L883.63,97.87,725.84,194.29a36.93,36.93,0,0,1-9-.73c-3.51-.72-6.1-1.8-10.76-3.78-3.18-1.34-5.76-2.58-7.56-3.49L600,148.63l-94.82-34.91-62.1-32L413.17,66.46l-46.83.29L306.57,41l-9.16-2.47L273.26,8.73q-2.46-1.83-4.94-3.64a24.71,24.71,0,0,1-9.74.15,50,50,0,0,1-5.09-1.46c-5.33-1.67-6.39-2.38-9.46-3a32,32,0,0,0-6.1-.73L179.75,97.73c6.33,3.79,8.75,6.85,9.75,9a18.53,18.53,0,0,0,2.76,4.51,18,18,0,0,0,3.06,2.91c.61,1.45,3.54,8.71.14,15.42a12.82,12.82,0,0,1-4.51,5.23c-1.67,1.06-2.73,1.11-8.43,1.89-7.41,1-9.14,1.42-12.65,1.17s-4.92-.87-6.11-1.75a11.74,11.74,0,0,1-3.2-4.22c-2.38-4.24-1.81-5.9-3.49-6.83-2-1.12-4.78.22-6.4,1-1.13.55-2.61,1.3-3.06,2.76-.38,1.26.42,1.69.15,2.62-.8,2.7-8.32,1.5-9.6,4.65a3.73,3.73,0,0,0,0,2c.39,2.55,1.92,5,5.67,8.14a53.49,53.49,0,0,0,8.29,5.38c7.18,4.08,7,3.28,9.6,5.24,4.32,3.24,3.81,4.65,8.58,7.85a62.92,62.92,0,0,1,5.38,3.64c2.67,2.08,4,3.11,4.66,4.5a9.85,9.85,0,0,1-1.89,10.18c-2.34,2.47-4.83,1.92-6,4.22-.87,1.77.43,2.63.58,5.82.21,4.27-1.76,7.59-4.07,11.49-1.53,2.59-2.34,3.9-4.07,4.8-2.38,1.23-5.87,1.35-6.83-.15-1.33-2.06,3.07-5.66,1.89-7.56-1.06-1.69-5.26,0-12.37.44a65,65,0,0,1-12.07-.59c-8-.86-10.74-2.18-17.3-1.74-3.31.22-5.89.77-7.42,2.76a7.32,7.32,0,0,0-1.31,4.51c.11,4.09,3.34,5,3.35,8.73,0,1.9-.86,4.35-2.62,5.23-1.33.67-2.95.32-9.16-3.34-11.3-6.68-11.17-8.62-11-9.17.28-1.37,2.27-2.87,2.9-3.34,1.44-1.08,2.21-1.08,2.48-1.89.21-.65,0-1.36-2-4.22a33.69,33.69,0,0,0-2.33-3.2c-3.15-2.6-8.4,1.71-16.14,1.46-1.42,0-3.51-.64-7.71-1.75-6.68-1.77-8.31-2.86-12.94-3.49s-8.4-.24-8.44.15,5,.88,10.91,4.07c2.36,1.27,3.14,2,3.49,3,.86,2.4-1,5.08-2.47,7.13a21.83,21.83,0,0,1-5.82,5.67c-3.64,2.35-6.84,3.08-14.25,4.51-14.47,2.78-15.42,2.51-18.32,4.22-3.55,2.08-2.81,2.88-9.16,7.56C4.36,232.75-.17,235,0,235.3s3.69-1.43,10.9-3.92c2.26-.79,4-1.35,6.11-1.89,4.86-1.28,7.29-1.92,9-1.17,3,1.29,2.32,4.24,5.67,6.11,2.27,1.27,3.31.33,7.12.87s6.55,2.11,11.93,5.24c4.84,2.81,7.26,4.22,8.29,5.82,2.49,3.85,1.14,7,4.65,11.48a9,9,0,0,0,3.35,2.77,9.56,9.56,0,0,0,5.38.58c3.82-.51,13.58-1.8,20.65,1.6,2.44,1.17,4.19,2.73,6.25,2,1.29-.43,1.51-1.33,3.93-3.34,1.73-1.44,3.79-3.15,4.65-2.62,1.17.71-1.35,4.54.44,7.13,1.33,1.92,3.83,1.42,4.07,2.76s-1.7,1.91-4.51,5.53a7.64,7.64,0,0,0-1.74,2.91c-.57,2.57,1.22,4.93,1.89,5.81a12,12,0,0,0,6.69,4.22c2.32.57,2.55-.1,4.07.58,2.38,1.07,2.27,2.91,4.94,5.38,1.47,1.36,3.16,2.91,5.24,2.91,2.49,0,2.93-2.21,7.42-4.94a27.26,27.26,0,0,1,6.83-2.91c3.54-1.07,5.6-1.69,8.15-1.16,2.72.55,2.69,1.74,6.25,2.76,2.89.82,3.22.13,6.11.87,4.05,1,3.82,2.52,7.27,3.35,4.41,1.05,6.3-1,8.29.72,1.58,1.37,1.55,3.67,3.49,4.22a3.09,3.09,0,0,0,1.6,0c3.45-.71,8.43,6.59,16,18.76,1.23,2,2.49,4.08,2.61,7,.11,2.74-.88,4-1.89,7-1.53,4.61-1.36,8.7-1,16.87a35.27,35.27,0,0,0,1,8,51,51,0,0,0,1.75,5.09c1.11,2.91,2,4.64,2.32,5.53,1.13,2.63.87,4.06.44,16.43-.23,6.54-.24,8.71-2,10.32-1,.91-1.45.63-4.36,2.33a39.94,39.94,0,0,0-5.67,4.07,29.69,29.69,0,0,0-5.24,5.68c-1.43,2.08-2.36,3.46-1.89,4.65.71,1.77,3.81,1.37,4.08,2.62.38,1.78-5.84,3.51-5.68,5.81.11,1.55,3.08,3.32,5.82,3.06,3.67-.36,4.16-4.1,10.47-7.56a26.06,26.06,0,0,1,4.37-1.89c3.07-1,5.46-1.82,8.28-1.17a11.16,11.16,0,0,1,6.4,4.51c1.88,2.78,2.89,7.05,1.17,10.18-1,1.75-2.62,2.85-5.53,4.8-2.57,1.72-3.27,1.65-4.07,2.91-.92,1.44-.47,2.26-1.46,6-.55,2.08-.84,3.13-1.45,3.64-2,1.65-5.8.25-7.27-.3-2.73-1-2.67-1.82-4.36-2a7.71,7.71,0,0,0-7.42,4.36c-.87,1.93,0,2.72-.29,5.24-.45,3.88-2.82,4.72-6.55,10.32s-2.54,6.51-5.67,9.75c-1.4,1.45-5,5.18-8.72,4.5-2.61-.47-3.2-2.74-5.09-2.47-2.55.37-2.24,4.57-5.38,6-3.31,1.48-6.26-2-8.73-.29-1.65,1.15-.64,2.93-2.76,5.38-1.37,1.58-2,1.15-4.95,3.2-3.65,2.59-3.75,4.09-5.67,4.37-1.56.22-3-.82-6-2.91-4.19-3-5.17-4.89-8.44-5.67-1.44-.35-2.21-.53-3-.15-2.62,1.18-1.16,5.6-4.36,9.6a15,15,0,0,1-4.66,3.64c-2.94,1.58-4.77,1.45-6,3.19-.56.82-.62,2-.73,4.22-.23,5.06-.36,8,1.6,10,1.21,1.27,2.33.67,2.91,1.74,1.21,2.24-2.77,5.21-1.74,7.27.81,1.64,3.62.33,7.41,2.33a14.66,14.66,0,0,1,5.38,5.38,20.77,20.77,0,0,1,2.77,6.55,17.55,17.55,0,0,1,.14,9.16,16.29,16.29,0,0,1-2.91,5.67c-1.18,1.5-4,5.06-7.27,4.8-1.75-.14-2.49-1.27-3-.87-1.21.85,2.9,5.54,1.74,10.61-.58,2.56-1.78,2.05-4.8,7.42-2.2,3.93-2,4.92-3.63,6.25-2.07,1.65-5.63,2.66-8.15,1.31-2.9-1.56-2.48-5.24-4.79-5.67-1.68-.31-3.29,1.35-4.37,2.47a13.44,13.44,0,0,0-3.49,7.85q-9.67,11.64-19.34,23.27c-3.45-.8-6.73.63-7.85,3.06-1.4,3,1,6.61,3.34,8.14,3.06,2,5.09,0,8.73,1.75,2.28,1.12,3.75,3.66,6.69,8.72A50.51,50.51,0,0,1,76.35,640c.92,2.62,1.38,3.92,1.31,4.8-.28,3.68-3.63,4.38-6.54,10-1.28,2.49-2,3.79-1.89,5.67.12,3.91,3.23,5.73,2.33,8.58-.33,1-.7.74-2.33,3.06s-2.56,3.63-2.76,5.23c-.33,2.48,1.62,2.74,4.07,8.15,1.79,4,1.36,5.19,3.34,7.42,1,1.07,1.75,1.56,2.33,2.9a8,8,0,0,1,.14,5.09c-1.43,6.47,1.18,13.74,2.77,18.18A44.18,44.18,0,0,0,82,725.4c6.46,12.38,11.22,14.83,15.41,25,1,2.52.29,1.26,2.47,7.56,4.16,12,5.73,13.26,7.86,20.94,1.12,4,2.27,9.43,2.91,12.36,1,4.55,1.6,8,4.21,11.35a17.84,17.84,0,0,0,4.22,3.92c3.84,2.69,11.13,11,26,34.62A111.5,111.5,0,0,0,169.43,865c1.54,2.43,4,6.23,7.27,10.76,5.58,7.75,6.16,7.49,8.14,11.2,3.77,7,2.59,9.65,6.55,14.68.73.94,2.36,2.86,4.51,6a41.17,41.17,0,0,1,2.91,4.51c.84,1.69,3.76,7.53,1.74,12.65-.59,1.48-1.24,2-2.18,4.65-.87,2.43-1.41,3.94-.73,4.8,1.28,1.62,6,0,7.13-.44,2.69-.94,2.92-1.73,5.52-2.32a14,14,0,0,1,4.8-.29,11.8,11.8,0,0,1,4.66,1.45c1.95,1.16,2.35,2.38,4.65,5.53,2.73,3.74,4.1,5.61,5.53,6.1,2.74,1,3.65-1.34,9.45-1.59a25,25,0,0,1,7,.72,31,31,0,0,1,5.24,1.89c4.8,2.06,4.93,2.76,7.7,3.78,3,1.09,5.4,1.24,9,1.46,4.82.29,6.23-.35,9,.87,2,.86,2,1.51,4.07,2.18a13.53,13.53,0,0,0,6.83.29c3.14-.58,3.22-1.58,7.13-2.61,2.59-.69,4.1-1.09,6-.59a8.12,8.12,0,0,1,5.24,4.51c1.84,4.48-1.91,9.63-1.17,10s3.63-6.43,9.17-7.42a8.8,8.8,0,0,1,6,1.16c2.76,1.83,1.71,4,4.65,6.84,1.69,1.63,3.65,2.4,7.56,3.92,2.11.83,3.19,1.24,4.22,1.17.69,0,2.12-.27,6.69-3.93,3.3-2.64,3.36-3.17,4.51-3.34,2.18-.34,3.12,1.39,7,3a26,26,0,0,0,6.69,1.75c5.6.91,8.1,0,10.18,2,.83.83.86,1.4,1.89,2,2,1.22,4.32.66,5.38.43,5.66-1.2,11.13-.79,15.85-.43,3.94.29,5.91.44,8.15,1.74,2.69,1.57,2.53,2.87,6.25,5.24,2.09,1.33,2.84,1.36,5.82,3.2,2.19,1.35,3.67,2.5,4.22,2.91,5.57,4.18,19.07,10.53,25.3,13.38,10.34,4.73,13.69,5.8,18.76,9.89a40.23,40.23,0,0,1,7.13,7.41c3.23,4.11,7,8.93,5.52,12.07-1.27,2.68-5.46,2.16-5.81,4.22-.29,1.66,2.16,3.48,6,5.82a74.92,74.92,0,0,0,13.23,7c12.42,5,19.36,19.89,24,29.81,2.52,5.4,4.21,10.61,9.16,19a67.67,67.67,0,0,0,6,8.87c3.62,4.42,5.73,5.61,10.18,10.47,3.76,4.11,2.66,3.7,7.13,8.87,4.65,5.39,9.21,10.86,13.81,16.29a9.45,9.45,0,0,1,2.33,4.51c.41,2.28-.55,2.82-.73,5.82,0,.92,0,.88,1.6,8.58.56,2.73.76,3.77,1.75,4.65a16.69,16.69,0,0,0,3.2,1.75l2.62,1.31c3.67,1.85,3.6,5.44,7.41,8a11.57,11.57,0,0,0,6,1.89c2.42.11,4.13-.6,7.13-1.89,4.22-1.8,6.33-2.7,7.71-4.65,1.79-2.54.62-4,1.74-9,1-4.55,2.43-5.31,4.37-10.32,1-2.62,1.27-4.09,2.76-12.22,3.33-18.16,3.82-20.59,6.25-23.56.63-.77,0,.08,7.71-6.4,4.78-4,6.78-5.85,11-9.3,6.48-5.23,7.91-5.9,8.73-6.26,2.4-1,4-1.24,8.14-3a52.93,52.93,0,0,0,5.09-2.47c3.3-1.89,10.64-6.09,10.33-11.2-.24-4-5.17-7.7-9.31-8.73-2.73-.67-3.9.11-4.94-1-.7-.75-1.16-2.15,2-12.8,1.32-4.4,1.63-4.94,2.18-5.53,3-3.2,8.58-3,12.07-1.89,2.64.8,4.46,2.29,8,5.24,3.83,3.18,4.4,6.88,7.71,7.41,1.13.19,1.16-.18,3.05,0,3.41.34,4.24,1.62,6.11,1.46a5.85,5.85,0,0,0,4.8-3.93c1-3.81-5-6-4.94-11.34a8.45,8.45,0,0,1,3.2-6.4c4.37-3.2,10.11,1.14,13.23-2,1.44-1.47.3-2.48,2.47-5.67,1.33-2,2.14-2.14,3.93-4.8a19.34,19.34,0,0,0,2-3.78c.83-2.07,1.36-3.42.88-4.8-.56-1.58-2-1.82-1.89-2.91.08-1.3,2.2-2.13,2.32-2.18,2.88-1.09,4.62,1.18,7.71.73,2.55-.37,4.22-2.33,5.09-3.35,3.7-4.32,1.24-8.35,4.22-10.47,2.64-1.87,7.83-1,9.74-.72,1.63.26,2.36.58,3.35.14,1.71-.75,1.74-2.66,3.49-6.69s3-4.81,2.47-5.82c-.57-1.17-2.45-1-9.74-1.16s-7.67-.47-9.31.15c-2.63,1-3,2.24-7,3.92-2.29,1-3.44,1.45-4.95,1.46-3.41,0-5.9-2.18-8.72-4.66-2.09-1.83-3.15-2.78-3.49-4.36-.67-3,1.62-5.76,2-6.25,1.19-1.42,2.75-2.23,5.82-3.78,3.53-1.8,4.29-1.7,4.51-2.48.49-1.71-2.9-3.09-8.73-9-3.3-3.36-2.89-3.61-5.67-6.11-2.61-2.35-3.79-2.87-4.07-4.36-.58-3.08,3.41-6.23,4.36-7,5.52-4.37,9.39-2.1,11.49-5.24,3-4.46-2.29-12.87-4.07-15.71a10.32,10.32,0,0,0-2.62-2.9,11.06,11.06,0,0,0-4.8-1.89,62.57,62.57,0,0,1-8.87-2.77c-6.4-2.48-6-5.16-10.61-6-2.09-.36-1.66.27-8.44.87-2.85.26-5.54.32-10.91.44-6.32.14-7.13,0-7.85-.15-3.09-.67-5.16-2-8.14-3.92-1.67-1.08-2.16-1.53-9-7.13-4.58-3.73-6.06-4.93-8.29-6.54-2-1.45-3.26-2.37-5.09-3.49-5.24-3.22-8.33-5.12-12.36-5.09-.76,0-2.59.29-6.25.87-1.72.27-2.17.37-5.24.87s-4.71.77-5.67.87a28.1,28.1,0,0,1-6.55.15c-2.94-.38-2.9-1.31-9.74-4.65-3.93-1.92-5.38-2.32-8.73-4.37-1.46-.89-2.37-1.54-3.49-2.32-5.64-3.93-7.22-4.53-11.05-7.13a87,87,0,0,1-15.12-13.52,24.93,24.93,0,0,1-3.49-4.8c-1.12-2.1-1-2.82-2.18-4.22-.76-.93-1.19-1.08-4.08-3.2a41.23,41.23,0,0,1-3.78-2.91c-1.71-1.89-1.21-3.2-2.47-7-1.57-4.74-3-4.54-4.22-9-.78-2.82-.22-2.84-1-6.25-.75-3.2-1.56-6.69-3.78-9-2.55-2.68-4.52-1.23-11.19-3.49-3.27-1.1-11.19-3.77-13.67-10.18-.69-1.77-.14-1.7-.88-3.63a17.5,17.5,0,0,0-11.34-10c-5-1.4-8.45.23-10-2.18A5.2,5.2,0,0,1,475,773a5.77,5.77,0,0,1,2-3.2c3.34-2.59,7.58.57,10.91-2a6.13,6.13,0,0,0,1.74-2.33c2.13-4.27-.71-8.5-2-13.82s-.26-11,1.89-22.25c.33-1.77.76-3.77,2.18-11.05,1.38-7.1,1.58-8.3,1.45-10.33a19.58,19.58,0,0,0-4.07-11.34c-1.64-2-2-1.44-5.67-4.65-5.39-4.75-4.27-5.65-7.71-8-3.93-2.69-6.67-2.39-9.89-6.11-.89-1-1.78-2.09-1.45-2.76.76-1.55,7.95-1,12.5,2.91,2.69,2.32,1.88,3.61,5.09,6.25s4.38,1.61,7.13,4.36c1.86,1.86,2.23,3.23,4.8,5.09.79.57,1.34.87,2.47,1.75a26.41,26.41,0,0,1,3.49,3.2c2.81,3.23-.55,8.45.44,16a25.6,25.6,0,0,0,3.05,8.73c1.51,3,4.89,9.64,12.07,14,4.5,2.71,8.69,3.43,13.24,4.22,8.46,1.46,9.45-.49,14.25,1.6,3.92,1.71,4.14,3.39,11.2,7.12,4.93,2.61,6.42,2.63,7.56,2.33,2.8-.74,2.69-3.21,6.83-6a22.83,22.83,0,0,1,7-2.91,63,63,0,0,1,7.42-1.31l6.69-1c3.3-.27,10.26-.84,11.63,2,.54,1.13,0,2.36-1,4.8-2.15,5.06-4.7,5.89-4.37,7.85.43,2.51,4.68,1.76,8.29,5.82,2.9,3.24,1.58,5.29,4.37,7.27s6.47,1.66,9.16,1.45a31.5,31.5,0,0,0,5.52-1c3.32-.89,4-1.59,5.82-1.6,2.06,0,3.41.87,5.82,2.32,7.56,4.56,6.2,3.06,10.76,6.11,5.29,3.54,7.94,5.31,9.16,7.42a52.92,52.92,0,0,0,3.78,6.25c1,1.31,1.84,2.38,2.19,2.76,3.86,4.33,10.28,2,17.59,5.24,4.22,1.86,10.82,6.5,11.2,12.22.19,2.89-1.28,4.9.15,7.27.68,1.14,1.4,1.29,5.38,3.49s5.76,3.18,7.12,4.36c1,.87,1,1.08,5.09,6,1.87,2.26,3.47,4.15,3.78,4.51,4,4.71,9.55,6.18,13.82,8.14,7.47,3.45,4.53,5.29,15.85,13.24,11.06,7.77,20.27,10.52,25.09,11.65.22,0,.64.12,1.23.27,6,1.5,7.28,4.67,11.31,5.89,1.93.59,1.21-.26,8.29-.32,5.45,0,4.61.46,9.82.43,4.25,0,6.6-.37,9.27,1.2.93.56,2.14,1.48,2,2s-2.3,0-6.33,0c-.81,0-2.35.06-5.45.21-5.15.26-5.09.36-6.76.33-2.81,0-2.82-.33-6.22-.43-.42,0-.27,0-5.78.1-2.91.06-4.18.09-5.78.77A5.74,5.74,0,0,0,769,881c-.55.67-1.43,2.08-1,2.73s1.73.13,3.92-.22c4.32-.68,4.58.34,9.17-.32.84-.13,2.37-.38,4.58-.55l1.85-.11c2.08-.09,3.2,0,4.91,0,2.12,0,2.15-.09,4.14-.11,5.88,0,6.41.87,9.06.11a42.3,42.3,0,0,0,4-1.53,27,27,0,0,1,4.58-.21,24,24,0,0,1,9,1.82,16.18,16.18,0,0,0,2.56,1,27,27,0,0,0,3.38.66,30.06,30.06,0,0,1,3.92.87,39.8,39.8,0,0,1,4.15,1.85c3.61,1.53,3.94.82,4.69,1.64,2.17,2.36-1.75,7,.65,10.47.86,1.25,1.57,1,2.84,2.84s.91,2.63,2.18,4.25c.81,1,1.11.92,3.27,2.73a44.93,44.93,0,0,1,3.6,3.38c2.46,2.49,3.68,3.74,4,4.58,1.36,3.23-2,5.81-5.35,14.72-2.6,6.81-2,8.82-1.63,9.71a9.84,9.84,0,0,0,6,5.45c1.88.53,3.12.09,4.69,1.2.92.65,1.21,1.3,2.3,3.28.77,1.41,3.11,5.59,5.56,9.16a26.88,26.88,0,0,1,1.74,2.51c1.74,3.26.88,5,2.4,7.19.41.59,1.58,1.34,3.93,2.84,3.22,2.06,4.23,2.3,6.43,3.93a22.7,22.7,0,0,1,3.39,2.94c3.63,4,2.44,6.41,6,10.91,1.42,1.79,1.89,1.76,4,4.47a46.49,46.49,0,0,1,3.27,4.69c3.17,5.15,3.46,7.45,6,12.22a61.54,61.54,0,0,0,7.09,10.47c2.93,3.43,4.8,4.76,6.87,8.61,1.24,2.31,2.21,4.16,2.18,6.66s-1.29,4.63-3.81,8.51a36,36,0,0,1-6.66,8.18c-4.59,4-5.76,2.45-8.61,5.34-5.46,5.53-2.86,12.92-7.86,15.27-1.91.9-3.14.22-5,1.75a7.57,7.57,0,0,0-2.73,6.21c.18,1.86,1.21,1.74,1.64,3.82.64,3.13-1.23,5.1-.11,6.33.82.91,2.21.21,2.61,1,.55,1-1.87,2.5-2.83,5.67a10.18,10.18,0,0,0-.33,3.82c.22,3.81,2.18,9.11,4.91,9.38,1.81.17,2.63-2,4.69-1.75s3.27,2.62,3.38,2.84c1.32,2.74-.27,5.66-.65,6.32-1.62,2.76-3.89,2.74-4.26,4-.65,2.34,5.41,4.68,16.8,12,0,0,1.94,1.25,4.47,3.16,4.07,3.08,6.12,4.66,7.09,6.87s-.09,2.47.76,7.09c.48,2.56,1.09,5.69,3.28,8.29a13,13,0,0,0,4.9,3.49c5.37,2.49,9.87,6.51,14.84,9.71,13.7,8.8,29.46,27,34,28.36l3.27,1c2.79.84,2.88.88,3.27,1a19,19,0,0,0,6.11.44,16.13,16.13,0,0,0,6.44-1.31c1.91-.92,2.17-1.65,4.25-2.29,1.43-.44,1.92-.29,3.6-.77a17.67,17.67,0,0,0,3.82-1.63c4.13-2.22,11.5-1.93,16.68-.77a31.81,31.81,0,0,1,7.09,2.51c6.07,3,29.63,9.78,92.93,24.65a27.4,27.4,0,0,0,9.27,1.75c3.68,0,5.39-.77,8.29-.11,3.19.72,3.77,4,6.87,4.14,1,.05,1.08-.2,2.73-.18,2.41,0,2.91.58,4.65.58a18.51,18.51,0,0,0,4.66-1.16c3-.94,3-1.14,4.8-1.6,2.65-.68,2.67-.24,5.09-.87,3.21-.84,3.74-1.75,5.38-1.46.74.14,1.31.44,3.34,2.19,1.82,1.56,5.37,4.75,5.09,5.08s-5.84-5.48-9.74-3.92c-1.71.68-1.93,2.33-4.07,2.76-1.32.27-1.41-.32-4.37-.73a12.25,12.25,0,0,0-6.54.59c-.6.25-1.34.55-1.31.87.05.49,1.87.46,7,1.16a22.69,22.69,0,0,0,4.37.44,11.29,11.29,0,0,1,2.47,0c1.24.17,1.46.47,2,.29,1.08-.34,1.13-1.63,2-1.75.41-.05.71.18,1.31.59,1.24.84,2.49,1.6,3,1.89,1.53.79,1.7.11,3.93.87,2,.69,2.83,1.58,3.49,1.16s.23-1.43.87-1.89c.84-.61,2.56.42,3.06.73a58.24,58.24,0,0,1,8.72,6.25c5.3,5,5.32,5.63,7.56,6.84,2.54,1.37,2.8.72,6.26,2.32a35.78,35.78,0,0,1,8,5.24,43.47,43.47,0,0,1,6,6c2.59,3.22,4.45,8,8.18,17.59a3,3,0,0,1,.25,1.17c0,3.06-6.78,3.5-7.27,6.55-.31,1.94,2.06,3.76,2.47,4.07,1.94,1.48,4.23,1.47,6.55,1.45,3.4,0,3.4-.88,4.94-.43,2.83.81,2.37,3.57,6.26,5.81,1.45.84,1.94.71,3.78,1.89s2.43,2.07,3.2,1.89c1.55-.35,1.26-4.14,2.32-4.36,1.9-.38,4.14,11.34,8.44,11.64,2.12.14,2.44-2.65,6-4.22,2.1-.94,5-1.31,14.11,1.74a95.55,95.55,0,0,1,12.5,5.09c20.3,10.61,22.87,12.79,29.67,15.56,8.72,3.56,11,2.61,21.38,5.39,20,5.33,33.93,14.79,44.94,22.25,13.38,9.07,13.58,11.67,35.19,28.35,0,0,17.79,15,25.3,18.47a8.78,8.78,0,0,1,1.9,1.17c4.06,3.32,3.21,9.11,4.21,12.21,1.22,3.78,9.24,5.39,24,9.17a29.61,29.61,0,0,1,6.83,2.47c1,.54,2.59,1.42,7.71,5.38,2.12,1.64,3.52,2.72,5.67,4.51,6.74,5.6,10.11,8.45,10.62,11,.61,3.16-1.25,4-.29,7.56a10.68,10.68,0,0,0,4.36,6.26c3,1.82,4.58.11,8.58,1.89,2.18,1,2.39,1.77,5.53,4.07a47.51,47.51,0,0,0,8,4.65c8.89,4.52,23.53,22.64,32.14,32.43,4.45,5.07,14.14,15.87,19.63,20.07a73.47,73.47,0,0,1,5.82,4.95,34.06,34.06,0,0,1,4.5,4.65c2.69,3.73,2.33,5.93,5.38,9,1.25,1.25,1.55,1.13,2.48,2,3.26,3.17,2.88,7.88,2.61,21.23-.14,7.14-.21,10.73.08,12.3.85,4.74,2.21,6.55,1.23,9.81s-3.15,4.53-2.47,6.83a4.1,4.1,0,0,0,2.76,2.77c2,.47,3.55-1.5,4.37-.87.63.48.5,2.29-.44,3.34-1.32,1.48-3.37,0-6,1.31-2,1-3.31,3.16-2.91,3.78s2.77-.06,3.78-.44,1.21-.61,1.6-.72c2.63-.78,7.71,3.76,7,6.1-1,3.14-12.2,2.1-12.21,3.06,0,.37,1.72.52,4.79,1.74,2,.8,4.43,1.77,4.37,2.77,0,.66-1.14.67-3.2,2a15.91,15.91,0,0,0-3.49,3.2c-1.51,1.78-2.28,2.69-2,3.64.36,1.39,2.69,2.14,4.51,1.89,2.11-.3,2.09-2.23,3.78-2.62s3,1.39,8.29,5.53c4.19,3.29,4.18,2.73,5.67,4.36,2,2.23,2.54,3.79,5.09,5.67a17.08,17.08,0,0,0,3.35,1.89c2.54,1.1,4.91,2.12,7.12,1.46,3.34-1,3.2-4.91,7.13-6,1.24-.33,2.71-.33,2.91.15s-1.79,1.42-3.78,3.93c-1.76,2.21-1.37,3.08-2.91,4.36a9.19,9.19,0,0,1-4.66,1.74c-2.3.42-3.83.25-7.27,0-5.54-.39-4.39-.16-7.27-.43-6.78-.64-8.93-1.53-9.74-.44-1,1.28.81,4.07,1.74,5.53,9.3,14.49,9.56,18.76,13.24,19a7,7,0,0,0,4.65-1.46c2.42-2,3.2-6.39,3.2-6.39a15,15,0,0,1,3.93,3.92c1,1.82,1.35,5-.29,6.69-1.15,1.2-2.83,1.25-5,1.31-2.65.08-3.46-.78-5.53-.87-.68,0-4.92-.12-6.54,2.18-1.88,2.68,1.66,5.93,0,8.73-1.09,1.84-3.08,1.18-9.74,3.19-2,.6-4.12,1.47-8.44,3.2-5.13,2.07-7.73,3.13-9.16,4.22a21.31,21.31,0,0,0-6.25,8,18.07,18.07,0,0,0-2,7.27,19.11,19.11,0,0,0,1.75,8.58c1.59,3.6,3.06,4.1,2.76,5.82-.45,2.5-3.73,2.26-5.09,5.38-.8,1.82-.39,3.68.44,7.42.85,3.91,1.7,4.45,1.89,6.83.25,3.24-1.06,5.46-2,7.71-4.29,9.89.56,14.17-4.07,21.81-.86,1.42-3.16,5.1-7.42,6.69-3.65,1.36-6.14.22-10.18-.14-.56,0-14.16-1.12-20.07,5.67-3.41,3.92-.6,6.26-5.38,19.2-2,5.55-3.43,7.44-4.94,8.87-2.79,2.62-4.76,2.49-6.69,5.38-1,1.49-1.06,2.4-2.33,7.71s-1.77,6.69-2,8c-1.21,5.9-.23,16.2,6,21.09a35.56,35.56,0,0,0,11.49,5.38,13.89,13.89,0,0,1,3.49,1.31,14.57,14.57,0,0,1,5.52,5.67l71.26,66.9a8.66,8.66,0,0,1,2.62,5.38c.18,2.85-1.53,4.79-.44,6.4.37.54.71.53,2.48,1.31a31.09,31.09,0,0,1,6.54,3.78c1.86,1.49,1.41,1.76,3.2,3.2a20.8,20.8,0,0,0,5.82,3.05c3.53,1.39,6.23,2.45,9.74,2.62,2.77.14,3.12-.42,7.13-.87,7.45-.85,7.93.88,13.23,0,5-.84,4.85-2.44,11.49-3.93a33.42,33.42,0,0,1,9.31-1c4.73.23,5,1.45,12.94,3.06,4.74,1,5.48.7,9.74,1.74a68.15,68.15,0,0,1,8.29,2.62l105.87,44.79a33.32,33.32,0,0,0,12.37-6.11,8.14,8.14,0,0,0,2.18-2.61c1-2.14.57-4-.15-8.44-.77-4.86-1.16-7.3-1-9a52.84,52.84,0,0,1,1.31-7.12c.71-2.78,1-3,.87-3.93-.36-2.85-3.19-3.42-5.09-6.54a12.07,12.07,0,0,1-1.45-7c.3-8,7.93-9.59,7.71-15.85-.08-2.31-2-5-6-10.48a79.67,79.67,0,0,0-5.53-6.83c0-.83-.13-11.22.58-18.91.46-4.9.68-7.35,1.75-9,.39-.62,1-1.46.72-2-.53-1-3.36-.12-6.1-.14-3.92,0-6.83-1.93-9.46-3.64-8.57-5.58-6.37-13.06-14.69-18.32-2.5-1.59-4.84-2.27-8.58-3.35-5.48-1.58-8.66-1.51-13.23-2.18a57.7,57.7,0,0,1-15.71-4.51c-10.47-4.94-17.83-13.83-20.94-17.59a48.68,48.68,0,0,0-6.25-6.84c-3.76-3.29-5.25-3.38-7.13-6a16.63,16.63,0,0,1-2.91-9.6c.07-5.9,3.39-8,2.33-12.65a10.55,10.55,0,0,0-2.62-4.8c-16.62-14.45-22.11-20-22.83-21.67a26.3,26.3,0,0,0-1.89-3.2c-.84-1.32-1.18-1.74-1.74-1.89-1.27-.34-2.58,1-2.77,1.16-1.45,1.46-1.25,3.18-1.74,3.2s-1.55-2.47-1.46-5.23a20.15,20.15,0,0,1,1-4.66c1-4,.61-4.33,1.16-5.81,1.44-3.87,5.54-5.78,6.69-6.26,2.12-.88,5.76-.5,13,.29,6.36.71,7.43,1.16,8.43,1.89,2.75,2,2.59,4.26,5.24,5.24,2.42.89,4.91-.14,6.69-.87a13.1,13.1,0,0,0,5.81-4.37c2-2.76,1.63-4.92,4.08-6.54a7.24,7.24,0,0,1,2.47-1c2.5-.58,3.3.48,6.4.58a15.43,15.43,0,0,0,6.25-1.16c2-.84,1.63-1.22,3.2-1.75,2.9-1,5.77-.17,8,.44,1.28.35,1,.4,2.91,1,4,1.32,6.07,2,8.43,1.74,3.25-.32,3.66-2,6-1.6.48.09,1.74.39,4.51,3.49,3,3.33,4.89,5.47,5.53,8.73.2,1,0,.86-.73,8.14-.59,5.74-.6,7-.29,8.73a19.32,19.32,0,0,0,2.18,5.82,20.52,20.52,0,0,0,5.67,6.25,27.65,27.65,0,0,0,6.69,3.64s.86.34,4.8,1.74c.32,1.08.84,2.65,1.6,4.51,1.11,2.68,1.66,4,2.48,4.51,1.65,1,3.11-.43,8.43-1.6a27.71,27.71,0,0,1,7.27-.87c2.85.08,3,.62,7.42,1.16,5.33.65,5.55-.1,6.83.73,3.22,2.06,1.06,6.28,4.8,10,2,2,3.49,1.58,4.87,3.85,1.67,2.76,1,5.8,1.68,5.89.46.07.75-1.18,2.61-4.21a15,15,0,0,1,2-2.77c1.14-1.17,1.77-1.82,2.62-1.89,1.3-.09,1.75,1.26,4.36,3.49a32,32,0,0,0,4.65,3.2,24.4,24.4,0,0,0,4.37,2.33c2.33.85,2.79.4,5.67,1.31,2.32.73,2.44,1.15,4.07,1.6,3.3.9,5.55-1.15,6.55,0a5.33,5.33,0,0,1,.72,2.33,10,10,0,0,0,3.64-3.5c.7-1.18,1-2.29,1.89-7.7.68-4.09.76-4.91,1.45-5.24.53-.25,1.87-.42,6,3.64,4.8,4.75,4.79,6.79,8.72,11.34,1.77,2,4.43,4.32,9.74,8.87,2.32,2,4.44,4.2,6.69,6.26,3,2.69,3.94,3.5,3.93,4.79,0,2.31-3.19,4-6.25,5.68a20,20,0,0,1-7.42,2.61c-2.31.29-7.68,1-9.6-1.74-1.71-2.41,1-5.15-.29-10.33a13,13,0,0,0-2.47-5.09c-.38-.47-3.94-4.78-6.84-3.78-1.87.65-2.53,3.19-2.76,4.07-1.09,4.19,1,8.14,2.91,11.78s2.57,3.46,4.8,7.57c2.7,5,1.67,5,3.49,7.7,2,3,5.26,5.09,11.78,9.31a16.84,16.84,0,0,0,3.34,1.75,18.6,18.6,0,0,0,6.69,1,31.11,31.11,0,0,0,6.77-.72,12.09,12.09,0,0,0,3.41-1.31c.6-.38,1.22-.88,1.22-.88a7,7,0,0,0,1-.87,42.92,42.92,0,0,0-10.47,8.44c-1.46,1.68-3.16,3.16-4.5,4.94-.79,1-1,1.48-1.6,1.6-2.29.48-4.36-5.09-6.4-4.65-1,.22-1.59,1.82-1.75,2.91-.51,3.55,2.73,6.29,5.53,9.74,4.38,5.4,2.62,6.34,7.12,13.38,5.32,8.32,7.44,6.5,13.38,15.27,2.36,3.47,4.09,7.26,7.57,14.83,2.74,6,3,7.31,2.76,8.88-.7,4.71-4.84,5.06-7,11.48-1.21,3.65-.22,4.56-1.89,7.71-1.26,2.38-2.87,3.84-5.53,6.26a58.89,58.89,0,0,1-6.54,5.09c-4.27,3-12.49,8.82-13.67,16.72-.41,2.74.4,5.6,2,11.34,1,3.58,1.82,6.29,3.93,9.16,1.26,1.71,1.62,1.64,6.25,5.82,5.08,4.59,5.21,5.2,8.29,7.71a67.49,67.49,0,0,0,8,5.53c4.24,2.59,5.68,3,12.94,7,0,0,2.17,1.19,5.68,3.2,10.35,5.93,19.36,12.38,32.43,21.08,10.78,7.19,8.7,5.5,12.65,8.29,10.78,7.64,24.57,17.58,35.48,33.6,2,2.88,4.41,7.05,9.31,15.41,5.13,8.76,7.7,13.14,9.89,17.6a226.3,226.3,0,0,1,10,24.43C2115.48,2186.06,2116.14,2189.84,2120.2,2194.07Z"/><path d="M1449.92,1774.81c-1.87-2-6.66-.11-8.87,1.16-1.37.79-2.76,1.59-2.91,2.91-.2,1.89,2.33,3.49,3.93,4.51,1.82,1.15,4.92,3.11,6.84,1.89,1.35-.87,1.45-2.9,1.6-6C1450.62,1776.85,1450.68,1775.62,1449.92,1774.81Z"/><path d="M1603.35,1530.34c-1.51-.77-3.45-.9-3.78-.29s1.2,1.76,2.62,3.64c2,2.71,2.22,4.85,3.2,7.85,1.49,4.61,2.68,4.52,5.52,10.32a60.11,60.11,0,0,1,4.95,15c1,5.12,1.55,8.18,1,12.36-.84,6.57-3.65,9.83-1.75,12.37,1.14,1.52,3.57,2.22,4.94,1.45,1.12-.62,1.42-2.14,1.6-5.53a96.22,96.22,0,0,0-.14-10.9c-.29-7,.61-6.68,0-11.49a55.83,55.83,0,0,0-2-9,23.6,23.6,0,0,0-2-5.53c-1.94-3.23-3.46-2.87-6-6.1-.92-1.2-1.92-3.37-3.92-7.71C1605.86,1533,1605.26,1531.32,1603.35,1530.34Z"/><path d="M732.38,1024.4c2.11-1.17,4.58,0,6.25.87,1.19.58,1.88.92,2.33,1.74a4.36,4.36,0,0,1-1.45,5.38c-1.52,1-3.3.44-4.22.15-2.27-.7-5.28-2.86-4.94-5.38A4.1,4.1,0,0,1,732.38,1024.4Z"/><path d="M732.53,897.87c-1.6-.09-1.82,2.78-4.51,5.09-4.12,3.54-9.24,1.67-10.18,4.22-.5,1.34.41,3.2,1.6,4.07,1.9,1.4,4.19,0,10-.29,2.72-.14,3.21.58,4.22,0,2.49-1.42,2.75-6.17,1.6-9.45C735,900.65,734.05,898,732.53,897.87Z"/><path d="M655.16,868.5c.78-.93,3,.46,8.58,1.45,1.57.28,1.14.13,5.23.73,3.84.56,5.76.84,6.4,1,5.76,1.53,7.54,4.68,10.18,3.63,1.4-.55,1.9-1.83,3.06-1.6a2.92,2.92,0,0,1,1.89,2.47,4,4,0,0,1-1.31,3.2c-.7.64-1.91,1.3-6.84.88a55.84,55.84,0,0,1-8.43-1.46c-.88-.21-2.6-.62-6.55-1.74-8.5-2.41-10.17-3.22-11.34-5C655.32,871.07,654.52,869.26,655.16,868.5Z"/><path d="M622.29,858.32c1.06-1.07,2.93,1.26,8.29,1.45,2.34.09,3.72-.29,5.38.73,1.43.87,1.28,1.68,2.62,2.18,1.78.66,2.76-.5,4.94.15a6.89,6.89,0,0,1,2.33,1.3c1.34,1,3.37,2.5,3.2,4.37a2.94,2.94,0,0,1-1.74,2.47c-1.84.58-3.12-2.18-7-3.35a18.45,18.45,0,0,0-4.08-.43c-4.7-.24-6.83.51-9.89-.87a7.3,7.3,0,0,1-1.3-.73C622.38,863.65,621.1,859.52,622.29,858.32Z"/><path d="M615.46,869.81a47,47,0,0,1,6.1,1.74,31.42,31.42,0,0,1,8.15,4.07c1.45,1.06,3.69,2.7,3.34,3.64s-3.27.73-5.09.58c-3.53-.29-4.28-1-7.27-1.45-3.9-.56-4.11.49-8.14,0-3.08-.38-6.43-.78-7.42-3.06-.81-1.87.16-4.58,1.89-5.82S610.92,868.84,615.46,869.81Z"/><path d="M532.13,819.2c3.09,2.95,2.38,5.25,5.09,7.7a29.83,29.83,0,0,0,4.36,2.48c3.46,1.81,4.59,2.08,5.53,2.18,1.61.17,1.67-.24,3.63-.15s4.44.22,5.53,1.75c1.39,2,.25,5.79-2,7.12-1.12.66-2.54.49-5.38.15a29.57,29.57,0,0,1-5.67-1.31,23.92,23.92,0,0,1-3.49-1.31,11.56,11.56,0,0,1-3.35-2c-1-.91-1.47-2-2.47-4.08-.75-1.57-.71-1.75-1.6-3.78-1.32-3-1.57-3-2.18-4.65s-1.63-5.15-.73-5.67C530,817.21,531.56,818.66,532.13,819.2Z"/><path d="M532.71,780.22c4.21-1.78,4.71-3.56,7.42-4.07,1.06-.2,2.26.06,4.65.58,4,.87,4.73,1.57,8,2.47,5.68,1.57,6.37.25,10.47,2,2,.87,2.49,1.47,4.94,2.33,2,.68,2.43.56,6,1.31a60.61,60.61,0,0,1,10.18,3.49c.75.32,1.76.76,1.74,1.3,0,.73-1.89.89-4.51,2.19-2.18,1.07-3.7,1.82-4.22,3.34a4.75,4.75,0,0,0,2,5.24c2.88,1.66,6.71-1.52,7-1.75,1.38-1.17,1.11-1.73,2.33-2.47,2.22-1.35,5.95-1.2,7.27.87a3.14,3.14,0,0,1,.44,2.47c-.67,2.17-3.86,1.5-6,4.08-1.52,1.86-.67,3.22-2,4.5-1.64,1.55-3.45,0-7.42.44s-4.16,2.06-10.18,3.64a31,31,0,0,1-5.53,1c-3.34.28-5.28-.22-11.48-1.45-9.26-1.84-9.84-1.7-12.66-2.76-3.87-1.46-6-2.28-7.7-4.51-2.09-2.79-.7-4.17-2.77-9.16s-4.23-5.58-3.92-8.58a7.82,7.82,0,0,1,3.2-5.38C530.81,780.78,531,780.93,532.71,780.22Z"/><path d="M490.24,769.31c1.38.23,2.2,1.3,3.78,3.35.39.5,3.42,4.42,2.48,5.53-.15.17-.55.46-3.35-.29s-3.39-1.65-5.52-2a20.85,20.85,0,0,0-3.64,0c-5.29.11-6.16.08-6.4-.44-.32-.7.65-1.94,1.6-2.61,1.49-1,2.58-.44,4.8-.88C487.62,771.22,488.06,769,490.24,769.31Z"/></g></g></svg>