<svg xmlns="http://www.w3.org/2000/svg" viewBox="0 0 2242.14 2186.57"><g id="Layer_2" data-name="Layer 2"><g id="Croatia"><path d="M1330.35,1862.63c2.66,3,4,4.54,3.84,6.06-.18,1.75-2.15,1.8-3.84,4.13a10.62,10.62,0,0,0-1.48,8.27c1.25,5.15,7.41,7.49,11.82,9.16,7.08,2.69,9,1,19,3.84,6.19,1.74,5.77,2.46,10.19,3.25,5.93,1.06,6-.36,15.81.15,5.42.28,8.25.86,13.29,0,3.82-.65,3.34-1.18,5-1.18,7.35,0,8.22,10.12,18.76,15.07,3.06,1.43,3.34.75,12.12,4,4.65,1.72,7,2.58,8.41,3.55,5.47,3.69,4.8,7,10.49,10.19,3.94,2.17,6.65,1.88,7.39,1.77,1.84-.26,2.43-.94,4.13-1.47,1.5-.47,3.65-.76,9.75,1,7.52,2.21,11.28,3.31,13.15,6.35,1.37,2.23,2.38,6,.88,8-.49.66-1.05.84-4,3.39-1.42,1.24-1.47,1.35-1.48,1.48-.23,1.95,7.19,3.63,17.28,8.13,7.27,3.23,6.47,3.72,11.67,5.61,2.87,1,7,2.09,15.21,4.13,6.2,1.55,6.16,1.47,8.87,2.22a92.2,92.2,0,0,1,12.85,4.28c7,3,5.64,4,10.19,5.47,6.89,2.21,9.34-.16,14.77,2.81,2.39,1.3,1.94,1.78,6.35,4.57,3.19,2,5.42,3.42,8.57,4.14,2,.45,7.16,1.65,8.71-.74,1.44-2.21-.24-6.45-3-8.27a9.35,9.35,0,0,0-3.69-1.18c-5.91-1.44-9.4-7.55-9-8s2.3,2,7.09,4.14c3.16,1.39,3.65,1,6.94,2.36,3.47,1.45,7.73,3.24,8.27,6.35.22,1.26-.37,1.57-1,4.29a29.27,29.27,0,0,0-.59,7.82c.22,3.71,1.49,10,3.54,10.2,1.61.12,4-3.55,4.14-7.24.12-5.33-4.73-8.53-3.11-12,.14-.28.61-1.27,1.33-1.32,1.64-.13,2.37,4.61,5,5a3.74,3.74,0,0,0,2.21-.59c2.87-1.33,2.93-3.42,4.88-4.43s3.07.67,7.09.73c5.07.09,6.47-2.62,8.71-1.47s1.08,3.91,4.14,8.27c1.28,1.82,2.67,3.8,4.87,4.28,4.22.93,7.79-4.43,9.31-3.4,1.23.84-1.27,4.28-.74,8.87.59,5.16,4.66,8.68,8.27,11.81,2.23,1.93,3.37,2.46,12.26,7.69,5.69,3.34,8.54,5,9.45,5.61,12.27,8,11.1,11.73,19.5,15.21,1.76.73,7.21,2.81,12.26,4.73,4.45,1.69,6,2.25,6.65,3.84,1.49,3.5-3.32,6.73-2.07,11.23.8,2.86,3.54,4.41,4.87,5.16,5,2.81,8.17.2,15.51,2.07a29.81,29.81,0,0,1,8.13,3.55c7.34,4.34,9,8.91,12.55,8.27,2.08-.38,2.33-2.12,6.35-3.4a12.47,12.47,0,0,1,4.14-.74c3.88.12,8.38,2.93,9.45,6.65,1.14,4-2.48,5.81-3.1,11.52-.57,5.22,1.82,9.4,3.55,12.41,4.35,7.61,10.84,10.81,22,17,8.7,4.81,22.64,12.57,36.18,21.71,4.65,3.13,2.68,2,15.81,11.23,19.6,13.77,19.76,13.33,21.86,15.95,3.25,4.07,5.84,8.85,11.23,10,1.72.38,5,.67,5.76-.74.53-1-.36-2.33-1.33-4-4.19-7.1-2.75-7.46-5.62-11.23-1.94-2.56-4-4.07-8.12-7.09s-5.67-3.49-10.78-7.24c-5.58-4.08-6-5.19-6.21-5.91-1-3.93,3.54-5.45,4-10.78.5-5.93-4.91-6.56-5.17-14.33-.08-2.45.38-4.72-.15-9.6a26.78,26.78,0,0,0-.59-4c-1.4-5.26-6.17-6.43-12-11.52-6.31-5.54-4.32-7.36-10.64-12.26a28.39,28.39,0,0,0-11.52-5.76,27,27,0,0,0-11.08-.15c-4.46.92-4.5,2.2-10.63,4.29-5.07,1.72-8.49,2.89-12.7,1.92a17.58,17.58,0,0,1-7.54-4,55.45,55.45,0,0,1-4.28-5.32c-2.07-2.71-3.1-4.07-4-5.46-2.51-4-2.1-4.76-3.4-6.5-3.62-4.87-9-1.52-15.06-6.06-4.9-3.7-3.28-7.42-8.42-9.9-2.83-1.36-4.57-.83-7.83-3.1a12.61,12.61,0,0,1-4.43-4.87c-1.29-2.73-.7-4.66-.89-6.8-.3-3.39-6.8-8.51-19.79-18.61a25.67,25.67,0,0,0-7.24-4.43c-4.07-1.51-5.45-.59-8.12-2.21-3.27-2-2.69-4.27-5.91-7.69s-5.06-2.23-10.19-5.76c-6.9-4.74-5.43-8.22-10.64-10.19-3.68-1.39-5.13.08-11.81-1.92-3.39-1-5.32-1.62-5.91-3.25-.86-2.35,2-4.24,2.07-9.3a6.35,6.35,0,0,0-.6-3.55c-1.45-2.49-4.47-2-7.82-4a13.68,13.68,0,0,1-5.17-5.76c-2.62-5.31.59-8.58-2.07-14.92a21,21,0,0,0-3-4.72c-2.89-3.91-6-8-10.78-8.72-.93-.13-4.19-.58-6.35,1.33-2.89,2.56-1.28,7.08-3.55,8.13-1.33.61-3-.44-5.76-2.22-4-2.62-5.09-4.44-7.68-6.35-1.1-.82-2.3-1.51-10-3.84-9-2.72-13.56-4.06-15.66-3.55-5.63,1.38-8.88,6.48-11.52,10.64-2.33,3.65-3.81,6-3.1,8.42,1.14,3.89,6.46,2.78,13.44,7.53,6.68,4.55,5.29,7.67,13.59,14,4.82,3.7,8.89,5.41,8.57,6.21s-3.88.15-6.95-1c-4.29-1.66-6.34-4.08-9.6-6.94-.64-.56-.57-.47-12.26-8.42-14-9.52-13.28-9.1-13.88-9.45-9.19-5.4-10.86-4.32-21.42-10.49-3-1.72-6-3.29-8.86-5.17-4.77-3.15-7.71-5.72-8.86-4.87-.61.44-.13,1.4-.3,5-.13,2.83-.2,4.25-.89,4.87-1.39,1.27-4.36-.34-9.6-2.51-10.65-4.4-11.4-3.09-13.88-5.61-2.67-2.7-1.66-4.06-5.91-11.37a66,66,0,0,0-4.73-7.09c-4.43-5.48-8.69-5.77-24.22-12.41-6.77-2.9-5.54-2.66-17-7.68-8.57-3.76-12.85-5.64-15.36-6.5-3.73-1.28-6.21-1.88-25.7-5.62-11.07-2.11-16.64-3.17-18.61-3.24-9-.33-19.52,1.13-23,1.62-7.93,1.1-12.46,2.25-15.81-.59-1.87-1.59-1.16-2.55-4.58-6.5a23.24,23.24,0,0,0-8-6.2c-1.51-.69-3.84-1.52-4.13-1C1328.08,1860.3,1329,1861.05,1330.35,1862.63Z"/><path d="M1468.9,1857.46c4.94,4.12,5.49,7.48,7.09,7.24,2.84-.43,3.58-11.41,3.84-11.37s-2.55,14.27,1.18,16c2.9,1.3,7.18-5.59,12.41-4a5.55,5.55,0,0,1,3.4,2.81c.8,2.06-1,3.25-1,5.9,0,3.69,3.45,4.36,4.88,8.87,1.26,4-1.06,4.75-.15,8.71s3.69,4.56,10,11.67c4.78,5.35,3.75,5.67,6.8,8.27,2.23,1.91,7.55,6.45,14,6.06,4.88-.3,5.53-3.09,11.23-3,3.12.08,4.05,1,7.23.45,2-.31,2.12-.71,6.8-2.22,3.85-1.24,4.14-1.09,6.2-1.92,3.22-1.29,3.42-2,6.06-3.25,4.82-2.25,6.12-.75,11.08-2.8,2.73-1.14,6-2.47,6.94-5.17,1.13-3.11-1.46-5.91-4-10.49-5.55-10-1.79-12.19-7.24-23.49-2.5-5.17-3-4.13-8.86-14.18-5.74-9.84-5-10.36-7.53-14-4.58-6.56-8.21-6.58-27.33-17.72-7.38-4.31-13.85-8.39-20.68-12.71-16.18-10.22-15.93-10.75-19.79-12-2.77-.87-5.44-1.39-7.09-3.84-2.36-3.49.34-6.43-.89-13a26.35,26.35,0,0,0-5.61-11.37c-2.11-2.78-4.54-6-8.72-8-6.29-3-9.79-.1-15.21-3-3-1.61-4.77-4-7.53-8.87a202.68,202.68,0,0,1-14.63-32.94c-5.52-15.38-4.88-14.8-6.5-17.72-4.56-8.27-8.78-11.3-8.27-17.14.16-1.8,1.83-4.77,5.17-10.63,5.17-9.07,6.31-9.44,6.94-12.7,1.22-6.24-1.63-11.66-3-14.18-1-1.83-4.72-8.75-12.41-11.82-2.61-1-6.06-1.1-12.85-1.18-13.19-.15-17.79,1.16-23.93-1.77a22.57,22.57,0,0,1-5.46-3.7l-44.76-34.71-36.93-43.13-39.43-46.82c-.84-1.43-2.06-3.53-3.55-6.06-1.68-2.87-2.53-4.31-2.66-4.43-3.74-3.51-9.5.83-15.8-2.07-2.11-1-3.33-2.42-5.76-5.32-1.71-2-6.41-7.62-7.68-15.51-1.49-9.18,3.24-11.78.29-18.76a23,23,0,0,0-5.91-7.82,25.24,25.24,0,0,0-7.68-4.73l-47.56-40.77a9,9,0,0,1-4.43-3.54c-1.4-2.32-.84-4.37-1-7.39-.29-4.7-2.17-8.14-3.69-10.93-2.91-5.34-4.73-4.59-7.83-10-3.22-5.68-1.81-7.47-4.28-9.16-3.38-2.31-6.48.72-14.92-.74-3.68-.64-5.53-1-6.65-2.22-3.19-3.59,1.11-9.16-1-19.64-.58-2.85-1.45-5.1-3.4-6.35s-4-.91-5.91-.74c-4.94.45-12.07.13-16.39-1.92-1.83-.87-4.27-4.37-9.16-11.37-6.08-8.72-5.83-9.69-9.45-13.59-1.29-1.4-3.46-3.58-6.5-7.24-1.48-1.78-2.64-3.28-3.4-4.29l-30-29.68a20.69,20.69,0,0,1-.89-4.29c-.38-3.93.67-5.38.59-8.12s-1.09-3.26-4.43-9.6a69.39,69.39,0,0,1-4.58-9.75,29.38,29.38,0,0,1-1.92-13.3c.64-5.47,3.12-9.71,5.47-13.73,3-5.15,4.39-5.56,4.72-8.42.67-5.77-4.21-10.58-5.17-11.52-4.25-4.19-9.51-5.25-12.26-5.76-7.71-1.45-10.68,1.18-14-1.48s-4.23-8.14-2.51-9.75c1.13-1.07,2.92,0,5.91,0,4.7-.08,10-2.38,10.19-4.73.11-1.41-1.74-1.76-4.87-5.46a33.68,33.68,0,0,1-3.7-5.47,30,30,0,0,1-3.1-10.19,36.32,36.32,0,0,1,0-13.15c1-5.37,2.58-6,2.07-8.86-.67-3.71-3.45-4-7.24-8.71-5.4-6.71-3.53-10.79-8.42-15.22-1-.95-3.92-2-9.6-4.28-7.31-2.9-10.15-3.34-13.44-6.5a22.44,22.44,0,0,1-3.84-5c-2.13-3.58-3.76-6.31-3-8.86.9-2.84,3.86-2.46,7-6.5a19.38,19.38,0,0,0,2.8-5.91c1.58-4.42,3.08-8.64,2.37-13.3-.79-5.16-3.93-8.47-6.95-11.66a44.33,44.33,0,0,0-15.65-10.34c-5.84-2.25-8.5-1.82-10.49-4.73-.93-1.35-1.32-4.12-2.07-9.6-.9-6.64-.7-7.76-1.92-8.86-2.43-2.22-5.27.37-9-1.78-1.62-.93-1.23-1.5-5.76-7.83-3.19-4.45-4.29-5.44-5.61-6.2a11.85,11.85,0,0,0-6.06-1.62c-5.89.15-7.71,5.55-15.21,8.86-3.62,1.59-5.94,2.87-8.57,2.07-4.35-1.34-6-6.94-6.35-8.28L841.28,936.2a11.78,11.78,0,0,1,4-5.61c.64-.47,1.58-1.05,7.24-2.66,5-1.42,5.65-1.38,7.09-2.22s4.83-2.81,5-5.61-3.26-4.25-8.57-10.19a58.7,58.7,0,0,1-4.72-6.06q.28-8.19.59-16.39c-.24-4.58-1.72-7.25-3.1-8.87-1.71-2-3-2.06-4-4.13-1.5-3.13-.34-6.66.14-8.13.82-2.46,1.45-2.27,3.11-5.76,2.35-4.94,1.45-6.08,3.1-7.24,1.81-1.26,3.25-.12,8.42-1.62a7.85,7.85,0,0,0,2.36-.89c2.78-2,2.89-7.15,1.63-10.78-1.05-3-2.32-2.91-5.32-6.94-2.76-3.69-4.15-7.29-6.94-14.48-1.73-4.45-2.6-6.72-2.66-8.71-.16-5.23,2.27-9.43,3.69-11.82,2.48-4.17,3.58-3.7,6.06-7.68A31.15,31.15,0,0,0,862.7,778c.43-3.09,1.22-8.75-1.18-14.77-1.59-4-3.32-5-4.43-9.75a17.63,17.63,0,0,1-.45-7.38c.61-3.55,2.3-5.91,4.14-8.42a31,31,0,0,1,9-8.57c5.67-3.46,8.08-2.19,11.08-5.76,1.85-2.2,2.16-4.14,4.13-4.58,1.26-.28,2,.31,5.76,1.63a34.51,34.51,0,0,0,4.73,1.47c3.16.51,8.13-.07,10.19-3.1,1.25-1.83.69-3.45,1.92-4s3.39.6,4.58,2.07c2.54,3.13.45,6.85,2.51,8.27,1.59,1.1,4.25-.11,5.62-.74,2.37-1.08,3.06-2.32,4.87-3.84a19.24,19.24,0,0,1,10.64-4.13,17.17,17.17,0,0,1,9.6,2.8c1.44.87,8.57,5.13,8.71,11.23.12,4.87-4.29,8.31-3.25,9.45s4.73-2.66,7.83-1.33c2.81,1.21,1.65,5.12,5.47,10.94,2.33,3.55,3.14,2.65,5,6s1.57,5.09,4,9.31c1.67,2.91,1.93,2.31,2.66,4,2.27,5.29-1.43,8.82.59,12.7,1.22,2.36,3.74,3.25,6.64,4.28,6.18,2.19,8.49-.46,13,1.92.56.3,2.45,2.12,6.21,5.76,3.56,3.46,5.34,5.18,5.61,5.62,3,4.8.07,7.54,3,13.88a14.92,14.92,0,0,0,5.32,6.65c2.37,1.56,3.6.55,6.65,2.21,2.21,1.21,2,1.88,5.61,4.58,2.72,2.06,4.07,3.08,5.46,3.4,3.72.84,4.78-2,9-1.48a12.12,12.12,0,0,1,7.38,4c1.25,1.58,1.06,2.42,2.51,3.69a9.35,9.35,0,0,0,5.47,2.07c3,.29,5.09-.57,8.42-1.77,10.38-3.74,10.21-2.66,11.52-4,4-4,0-8.38,4.28-14.92,2.5-3.82,5-4.06,6.06-8,.85-3.07-.45-3.72-.15-7.83.43-5.8,3.13-6,4.14-12.12s-1.34-7.85.73-10.78c1.1-1.54,3.39-2.6,8-4.72,2.9-1.35,4.35-1.83,5.61-2.37,8.25-3.55,12.67-11.87,13.74-13.88a37,37,0,0,0,4-13c.75-6.78-.86-10.34,1.92-14.62a63.58,63.58,0,0,1,5-4.88c4.69-4.38,7.06-6.58,8.12-7.09,1.84-.88,2.17-.47,12.26-.59,9.94-.12,11.76-.55,13.59-1.77,2.15-1.43,3-3,4.58-2.81,2.06.29,2.05,3.08,4.73,5.61s4.29,1.11,9.9,3.84c3.43,1.68,3.15,2.39,8.56,5.32a30.36,30.36,0,0,0,5.76,2.66,19,19,0,0,0,8.42,1,25,25,0,0,0,5.76-1.77c5.62-2.12,5.59-3,7.68-3.1s2.12.59,8.87,3.4c4.78,2,5.11,1.8,8,3.25,4,2,3.63,2.53,6.06,3.39a17.35,17.35,0,0,0,9.9.45c2-.51,3.76-1,5.31-2.51a9.89,9.89,0,0,0,2.37-8.87c-.45-1.91-1.39-2.92-1-3.25.89-.82,7.58,5.16,8.27,4.44.21-.22-.35-.8-.2-1.75.18-1.18,1.31-1.85,1.83-2.24,2.08-1.57,1.19-3.68,3.25-8.72a29.53,29.53,0,0,1,3.4-6.05,21.39,21.39,0,0,1,3.69-4.29c1.48-1.23,1.79-1.06,3.25-2.21,1-.81,1.84-1.67,4.28-5,3.45-4.74,3.37-5.16,4.29-5.47,2.62-.89,6.55,1.41,8,4.58a9.35,9.35,0,0,1,.3,5.76c-.82,4.43-3.15,5.45-3,8.12.17,2.39,1.87,5.2,4.29,5.62,2.7.46,5.53-2.21,6.2-4.73.6-2.27-.74-3.7.3-5s3.56-1.51,4.28-.59-.84,2.22-1.18,5.76c-.15,1.54-.29,3.18.74,4.58a4.33,4.33,0,0,0,3.25,1.77c1.27-.07,1.66-1,3.69-2.51s3.76-2.85,5.46-2.51,3,2.19,3.4,3.84c.54,2.4-.93,4.43-.44,4.72s2.44-3,4.72-2.8c.26,0,.93.14,2.22,1.47a14.15,14.15,0,0,1,3.1,5c1.7,4.86,7.54,8.54,13.44,12.26,3,1.88,2,.89,8.72,4.58a125.58,125.58,0,0,1,12.26,7.38c6.47,4.53,5.77,5.3,9.45,7.09,1.57.77,2.69,1.1,13.44,3,9.67,1.66,11.34,1.83,13.89,1.18,1.34-.35,6.78-1.73,8.12-5.62.71-2-.5-2.5,0-5.61.19-1.19.5-1.91,4-8.12,2.1-3.74,2.33-4.09,3-4.29,2-.61,4.29,1.51,8.87,5.76,1.89,1.76,3.29,3.21,4.87,4.88,5.54,5.83,6.08,6.69,8,8.57,3.67,3.63,6.66,6.6,11.22,8.27,8.12,3,15.93-.08,19.5-1.48,2.88-1.12,5.37-2.1,7.53-4.58s2.84-5.17,3.84-5,1.44,3.27,1.63,4.87c.84,7.11-1.19,10.19.59,11.82,1.45,1.33,4.64,1,6.2-.44,1.38-1.24,1-2.8,2.22-3.4s3.79.25,4.87,1.92c1.8,2.77-1.3,5.76.45,8.72.91,1.55,2.57,2.09,4.72,2.8,1.07.35,5,1.65,8.72.3,6.1-2.21,7.41-10,9.75-9.46,1.55.36.92,3.76,3.84,5.62,1,.65,1.6.54,4.72,1.33.42.1,3,.79,5,1.47,5.33,1.78,5,2.82,6.79,2.81,3.12,0,3.62-3.16,9.9-7.53a34.42,34.42,0,0,1,6.35-3.55c2-.85,5.55-2.33,9-2.21s6,1.89,11.23,6.05c12.68,10,13.93,11.64,18.46,14.33,7.07,4.2,6.66,1.85,12.41,5.61,7.67,5,8.6,9.34,18.31,15.81,4.15,2.76,6.44,3.61,8.72,4a19.94,19.94,0,0,0,12.11-2.07c3-1.61,2.54-2.43,9.16-8,4.38-3.67,4.64-3.36,6.2-5.17,1.16-1.34,4.6-5.34,5-10.78.45-5.76-2.81-8.85-1.33-10.34,2-2,7.79,3.42,11.53,1,1.91-1.22,1.17-3.16,4.43-9.45,1.35-2.61,2-3.92,3.25-5,3.85-3.47,9.42-2.87,9.89-2.81,3.51.43,5.1,2.18,13.3,9.9,12.75,12,11.79,10.5,14.18,13.29,4.6,5.4,5.42,7.77,9.3,9.45,3.37,1.46,6.62,1.35,11.08,1.19,7.08-.26,8.14-1.95,12.7-1s5.69,3.07,8,2.22c.6-.23,2.15-1,4.87-9.46,2-6.37,1.61-7.3,3.25-10.63,1.3-2.61,3-6,6.5-8,5.26-2.91,11.36-.77,13.15-.14,5.54,1.94,5.48,4.52,14.92,10.48,5.87,3.71,8.32,4.24,9.89,4.43,3.73.46,5.31-.66,10.64-1.92,6.9-1.62,14.19-3.34,20.53-.44,2.13,1,4.22,3.11,8.42,7.39,5.75,5.85,5.83,7.54,10.49,11.67,4.1,3.63,6.76,6,10.93,6.64,1.09.17,1.41.09,12-1.92,5.74-1.09,7.72-1.46,8.13-2.8.63-2.1-3.38-3.78-3-6.65.39-2.59,4.17-4.84,6.06-4,1.47.66.9,2.79,3,6.8.29.56,2.37,4.59,3.55,4.28s1.11-5.65,1-8c-.13-4.1-.74-6,.15-6.5s2.11,1,5.32,2.22a23.19,23.19,0,0,0,5.91,1c6.57.67,8.76,0,9.15.89.8,1.87-8.12,5.43-7.53,9.45.35,2.41,4,4.15,6.79,4.43.91.09,3.63.37,5.62-1.33,2.91-2.47.81-6.22,4.13-10.78a6.89,6.89,0,0,1,3.7-2.95c2.32-.64,5.28.27,6.35,2.21.61,1.13.12,1.74-.3,5.91-.46,4.63,0,5.25-.74,5.91-2.11,1.9-6.84-2.37-9.74-.3-1.45,1-2.1,3.41-1.33,4.44,1.3,1.74,5.61-1.8,10.48,0,.85.31,1.1.55,6.35,5.31,3.75,3.39,5.62,5.09,5.91,5.32,6.23,5,8.44,3.6,10.19,6.5,3.07,5.05-1.75,12.32.45,13.59,1,.6,2-1.1,5.32-1.48,2.6-.3,3,.65,7.38,1.33,4.84.75,6.56-.07,8,1.48a6,6,0,0,1,1.18,4c.09,3-1.37,3.69-1.77,6.2-.15.92-.21,2.4,4.43,12.41,1.47,3.18,1.94,4,1.47,4.72-.92,1.41-4.18.13-10.93,0-3.7-.06-7.42-.13-8,1.33s2.27,2.24,4,6.06c1.29,2.88.44,4,1.62,9.16a29.31,29.31,0,0,0,1.77,5.76c1.21,2.56,3.22,4.61,10.79,8.86,9.78,5.5,13,5.79,16.24,10.05,1.68,2.21.93,5.1,3.11,6.35,1.69,1,3.77.54,5.31,0l55.54.29a14.22,14.22,0,0,0-.88-8.86c-1.15-2.36-2.24-2.55-4.14-5.32-1.29-1.87-4-5.86-3.69-10.78,0-.83.53-6.46,4.87-9.31,5-3.27,12.08-.87,16,2.22s3.63,6.23,6.06,6.5c.81.09,2.62-.05,12.7-12.85,2.7-3.42,4-5.2,6.65-6.21,3.28-1.23,5.13,0,7.09-1.62.76-.63,1.34-1.55,2.22-8.42,1-8,.5-9-.15-9.45-1-.67-2.2.25-5.32,1-2.23.56-4.25.62-8.27.74a85.42,85.42,0,0,1-18.76-1.92c1.75-1.06,11.61-7.11,15.95-14.62a15.52,15.52,0,0,0,2.37-7.09,16.91,16.91,0,0,0-1-6.21c-1.07-3.83-1-7.13-.74-13.73.29-8.48,1.83-9.94.74-15.66a25.19,25.19,0,0,0-2.07-6.5c-2-4.25-3.47-4.08-5.17-7.53-2.3-4.68-1.74-9.22-1.32-12.56.33-2.7.69-5.61,2.36-6.2s2.41,1.49,5.76,2.21,4.41-1.05,7.09,0c2.44,1,2.37,2.73,4.87,3.4a7.26,7.26,0,0,0,4.58-.44c3-1.3,3.32-3.93,5.62-7.09,4.62-6.38,10.34-5.24,11.52-10.05a9.23,9.23,0,0,0-1.18-6.35c-1.85-3-4.33-2.53-6.06-5.46-1.48-2.52-1.64-6.2-.15-7.24,1-.71,2.56,0,7.09,2.36,7.87,4.11,11.52,6.2,11.52,6.2,6.93,4,8.44,4.77,10.93,5.62a29.49,29.49,0,0,0,7.09,1.62c4.06.38,11.36.11,12.12-2.51s-5.22-4.4-5.32-9.45a7.76,7.76,0,0,1,2.21-5.32c3-3.19,8.64-3.57,11.52-1.33s.84,4.92,4.44,10a30.56,30.56,0,0,0,4.87,5.17c2.5,2.26,3.76,3.39,5.17,4,4.28,1.79,6-1.3,12.26-.44,3.76.52,4.37,1.82,8.27,1.77,2,0,5-.06,6.21-1.92s-1-4,.29-6.64c1-2,2.7-1.61,4-3.7,1.57-2.54.64-5.81.15-7.53-1.15-4-2.93-3.95-4.43-8.72a32.82,32.82,0,0,0-1.33-4.43,16.87,16.87,0,0,0-3.55-5l-51.84,1.77a9.19,9.19,0,0,1-5.91-4.28,8.88,8.88,0,0,1-.89-6.2c.82-3.34,3.22-3.49,4.43-6.65,1.47-3.83,0-8.92-2.07-9.45-1.76-.46-2.82,2.77-7.38,5.46a22.77,22.77,0,0,1-8.27,2.66,41.56,41.56,0,0,1-16.25-.59,60.92,60.92,0,0,1-8.13-2.22,55.81,55.81,0,0,1-17.72-9.74c-3.59-3-4.41-4.52-4.73-5.17-.92-1.91-.88-3.21-1.33-10.05s-.61-7.58-1.33-8.57c-1.69-2.34-4.13-2.13-8.71-3.39-9-2.48-7.91-5.57-17-8.28-4.88-1.45-7.26-1.17-11.52-3.69a18.23,18.23,0,0,1-5.46-4.72c-.23-.31-4.75-6.4-2.81-9.16.86-1.22,2.19-.68,7.68-1.77,3.77-.75,5.68-1.15,7.24-2.37a9.81,9.81,0,0,0,3.69-7.09c.15-3-1.32-5.22-2.95-7.68-1.81-2.71-2.82-3-5.17-5.76a25.4,25.4,0,0,1-5.32-8.57c-1.41-4.32-.66-8,.44-13.29,1.07-5.18,1.66-8,4-9.16,1.52-.73,3.67-.34,8,.44,2.59.48,4.52,1,5.17,1.19,9.14,2.54,9.58,4.23,13.14,4a12.79,12.79,0,0,0,8.27-4.13,12,12,0,0,0,2.81-6.5c.09-.81.58-5-1.92-8.12-1.35-1.67-2.77-2-10.49-4.14-8.53-2.36-10.44-3-11.37-4.88s.24-3.1-1-5.76c-.24-.49-1.94-3.93-4.88-4.28-2.28-.27-4.17,1.45-6.94,4s-2.25,3-4.14,4.43-4.42,2.09-9.15,3.1c-5.19,1.11-7.81,1.64-9,.59-1.59-1.39-.2-3.27-1.48-7.53a19.07,19.07,0,0,0-5.17-8.12c-2.3-2.19-3.13-1.86-6.65-5s-3.69-4.39-3.69-5c0-1.48,1-1.58,2.66-5,1.28-2.64,1-3.35,2.21-4.43a7.66,7.66,0,0,1,3.84-1.77c1.66-.33,1.94.11,4-.15a7.25,7.25,0,0,0,3.84-1.18c2-1.63,2.45-5.27,1.33-6.06-.78-.55-1.8.64-5.46,1.48-2.09.48-3.2.72-4.29.14-1.62-.84-2.63-3.18-1.92-4.43.43-.74,1.57-.89,3.84-1.18,2.51-.31,6.35-.44,6.35-.44,1.49-.05,2,0,2.37-.44,1.19-1.17.18-4.08,0-4.58-.65-1.78-1.35-1.88-1.63-3.4a4.61,4.61,0,0,1,.45-3.25c.3-.47.82-1,4-2.07,3.4-1.13,4.24-1,4.88-1.92.16-.24.46-.77.29-3.69a32.47,32.47,0,0,0-.59-4.88c-1-4.15-4.81-7.16-9-11.52-4-4.18-4.06-8-7.23-8.56-1.6-.31-3.27.15-3.4-.3s1.44-1.72,3.25-1.92,3.61.82,6.64,2.66c1.28.77,1.21.83,1.92,1.18,1.33.64,3.44,1.67,5.62,1,3-.86,4.14-4.3,4.58-5.61.37-1.13.56-1.7.29-2.21s-.91-1.27-9.16-.74a43.56,43.56,0,0,0-4.87.44c-3.21.66-4.47,1.67-7.39,1.63-1,0-3-.05-3.39-1-.3-.73.41-1.7,1.33-2.95s1.45-2,2.21-2.37c1.24-.61,1.84,0,6.65.6a21.6,21.6,0,0,0,3.25.14,12.47,12.47,0,0,0,2.51-.29,10.66,10.66,0,0,0,3.1-1.33c3.3-2,5-3,5.76-4.29,1.07-1.74.91-4,.59-8.56-.19-2.71-.55-3.72-1.18-4.58a6.77,6.77,0,0,0-3.54-2.37,8.76,8.76,0,0,0-8.72,2.22c-1.64,1.79-.76,2.78-2.21,4.43-2.71,3.07-8.21,2.42-11.23,2.07a30.84,30.84,0,0,1-8.86-2.66c-6.2-2.56-9.29-3.84-10.34-6.5-1.53-3.89.62-9.65,4.43-11.22,4-1.66,9,1.69,10.19,2.51,3,2,3.75,4,5.61,4,2.57-.07,4.33-3.84,5.17-5.62,1.17-2.46,1.37-4.74,1.78-9.3.5-5.7-.12-6.79-.59-7.39-.9-1.12-2.18-1.58-4.73-2.51-2.14-.78-3.21-1.16-4.58-1-2.16.2-2.82,1.48-5.47,3.1a15.62,15.62,0,0,1-7.68,2.66c-3.86,0-8.29-2.23-8.42-4.58-.09-1.82,2.48-2,4.44-5.47,1-1.71,1.24-4,1.77-8.42.69-5.86.39-7.82,1.62-8.42,1.74-.84,3.59,2.42,6.5,1.78,2-.44,3.15-2.41,4.43-4.58,1.41-2.39,3.39-5.28,2.37-6.8s-3.28.07-5.62-1.47-3.22-4.89-2.66-7.54c.73-3.4,4-5.6,5.62-6.64,2.21-1.47,3.62-1.64,3.84-2.81.29-1.58-1.87-3.42-3.55-4.28a11.12,11.12,0,0,0-13,2.8c-1.16,1.49-.58,1.87-1.62,3-3.37,3.53-9.36-.48-12.85,2.65-1.83,1.65-.52,3.07-3.1,7-1.23,1.84-2.59,3.88-5,4.72-4,1.4-8.22-1.46-9.75-2.51a16.06,16.06,0,0,1-3.84-3.69l-21.13-12c-9.18-1.87-12.77-.26-14.32,1.62-.89,1.07-.81,1.86-3,5.32-2.38,3.83-3,3.65-3.69,5.61-1.3,3.54.33,4.93-1,7.53s-3.33,2-5.62,4.29c-3.68,3.66-1.1,7.62-3.84,12.85s-6.42,3-10.93,8.86-2.33,9.91-7.68,14.92a22,22,0,0,1-6.2,4c-3.93,1.66-4.91.68-10.64,2.36-4.68,1.38-5.07,2.35-8,2.36-3.31,0-4.56-1.22-6.06-.29-2.21,1.37-.4,4.64-2.51,7.24-2.78,3.42-8.15.53-11.52,4.28-1.26,1.39-1.61,3-2.22,5.76-1.09,4.94.32,6.69-1.18,8.57-1.91,2.39-6.09,1.95-7.83,1.77-1-.11-5.84-.61-8.57-4.28-2-2.71-.64-4.13-2.51-7.68s-5.87-7.15-9.16-6.5c-1.22.24-1.46.89-5.17,4.72-3.53,3.66-5.33,5.5-6.64,5.91-3.09,1-4.36-1.4-10.49-3.1-4.86-1.35-9.13-1.26-13.44-1.18-7.19.14-9,1.41-11.37-.3-1.73-1.21-1.36-2.22-4.88-7.09-2.15-3-3.22-4.45-4.43-5.17-4.13-2.44-9.59-.7-12.26.15-3.57,1.14-3,1.86-5.47,2.22a16.37,16.37,0,0,1-11.66-3c-1.22-.93-1.88-1.76-3.25-1.92-2.15-.24-4,1.39-4.88,2.22-10.92,10-11,10.31-12.11,10.78-6,2.56-13.9-1-17.73-4a63.3,63.3,0,0,1-6.35-5.76c-2.22-2.36-3-3.64-5-4.73a12.55,12.55,0,0,0-6.5-1.32c-5.29.1-17.56-.51-34.71-1.48a29.58,29.58,0,0,1-5.76,7.68,16.76,16.76,0,0,1-6.35,4.14,7.51,7.51,0,0,1-4.43.44c-2.57-.72-3.86-3.21-5.32-6.06-1.06-2.06-1.11-3.07-2.36-6.94-.87-2.67-1.67-4.81-2.22-6.2-14.54-3.57-20.15-3.67-22.45-3a7.42,7.42,0,0,1-4.58.15,6.55,6.55,0,0,1-3-2.07c-1.45-1.83-.8-3.23-1.93-5a7.4,7.4,0,0,0-4.13-2.81c-3-1.07-4.76-.1-11.52.89s-8.62.51-9.75,0a10.7,10.7,0,0,1-4.73-4.58l-18-36.48-16.54-14.48-23.19-.29c-1.54-3.53-3.42-4.89-4.88-5.47-3.08-1.23-5.62.48-10.48-.74a16.64,16.64,0,0,1-3.84-1.48c-8.23-1.52-10.5-.85-10.93.15-.34.77.46,1.67,0,3.1a5,5,0,0,1-2.66,2.66c-.81.45-9,5-12.71,1.63-1.93-1.75-.41-3.66-2.36-5.76-2.14-2.31-4.79-.91-10.78-2.81-2.48-.79-6.82-2.55-6.65-4,0-.37.39-.76,5.32-2.51,4.17-1.48,4.62-1.45,5.46-2.21a7.11,7.11,0,0,0,1.92-7.39c-.3-.83-.79-2.15-1.92-2.51-2.81-.91-6.33,5.19-8.12,4.28-.65-.32-.34-1.18-1.33-3.69-.79-2-1.3-3.28-2.07-3.4-2.07-.32-3.67,8.28-6.79,8.27-1.44,0-2.8-1.82-3.25-3.25s.05-2.25.15-3.69a10.09,10.09,0,0,0-3-7.38c-3.57-3.45-8.62-.64-10.34-3.4-.86-1.39.31-2.27.89-8,.4-4,.64-6.67-.89-8s-3.82.09-4.87-1.19c-1.48-1.79,2.38-5.24,1-9-.9-2.51-3.64-3.82-4.28-4.13-2.69-1.29-3.84-.19-5.62-1.48-1.6-1.17-1-2.33-3-6.2-1.82-3.64-2.82-3.55-3.54-6.21-.62-2.24.1-2.27-.6-5.31a20.5,20.5,0,0,0-2.21-5.62c-.88-1.54-1.32-2.31-2.07-2.8a6.26,6.26,0,0,0-7.09.59c-1.29,1.11-1.45,2.43-1.92,2.36-.79-.11-.81-4-.89-6.65-.27-10-.41-14.94-3.1-18.61-1.19-1.63-1.41-1.1-5.46-5.46-2.67-2.88-3.14-3.72-4.58-4.14-2.62-.76-4,1.16-7.09.89a9.26,9.26,0,0,1-5.61-3l-41.22-24.81-10.33-3-3.25-7.38-9.31.59-22.9-22.89L1276.14,116l-22.9-20.83a13.26,13.26,0,0,1-7.09-2.21c-2.15-1.5-2.2-2.65-3.84-3-2.31-.43-3.54,1.61-7.24,1.48a12.14,12.14,0,0,1-2.06-.29c-2.15-.44-6.16-1.25-8-4-1.52-2.29-.35-4.18-1.62-5-1.6-1.06-3.85,2.73-6.8,2.51-2.55-.2-3.69-3.13-6.94-8.42-6.15-10-7.59-8.52-10.05-14.48-2.58-6.27-1.5-9.16-4.72-11.67-.75-.58-3.27-1.18-8.27-2.36-6.74-1.59-9-1.91-12.56-3.55-2.21-1-2-1.17-4.14-2.21a38.33,38.33,0,0,0-13.14-3.55c-10-.88-14.28,3-16.84.3-1.92-2,.25-4.47-1.92-8.42-.6-1.09-1.63-2.48-8-6.2-4.62-2.71-7.2-3.81-11.52-6.06-7.44-3.88-6.8-4.76-9.89-5.61-5.84-1.62-7.9.76-11.82-1.48-3-1.7-2.11-3.26-6.35-6.79-2.23-1.87-5.88-4.91-9.31-4-.91.24-1.42.66-4.58,3.84s-4.81,5-5.61,5.76a28,28,0,0,1-11.08,6.5c-7.74,2.15-13.19-1.21-15.66,2.07-.92,1.22-.23,1.8-1.47,4.13-1.86,3.49-3.92,3.19-5.47,5.76-2.46,4.1-.27,9.89.74,12.56.85,2.23,1.22,2.21,2.51,4.87,2.55,5.28,3.29,10,4,14.62,1.33,8.84,0,10.29,2.22,13.15a19.73,19.73,0,0,0,6.79,5.47c2.21,1,4,1.15,4.87,2.8.48.9.37,2,.15,4.29-.28,2.86-.42,4.29-1.33,5.61-.32.46-1.34,1.79-4.43,2.81-6.83,2.23-13.66-.41-14.47-.74-4.61-1.86-5.32-3.85-8.42-3.55a20.08,20.08,0,0,0-6.06,2.07c-2.47,1.25-2.74,1.92-3.84,1.92-2.3,0-3.25-3-6.06-6.35-1.26-1.53-5.55-6.72-11.66-7.83A17.44,17.44,0,0,0,993,81.11c-3.19,1.24-3.74,2.48-8.27,4.43a24,24,0,0,1-6.21,2.07c-5.49.87-7.7-1.37-10.78.44-1.29.77-2.87,2.32-2.81,4,.06,1.29,1.06,1.67,3.55,4.73a20.54,20.54,0,0,1,2.95,4.28c.59,1.22,1.65,3.43,1.33,5.47-.37,2.36-2.48,3.72-7.53,6.64-11.07,6.43-11.66,6.15-13,8-3.34,4.57-1.36,8.57-4.73,10.49-2.37,1.35-3.79-.39-8.56.44-2.34.41-3.74,1.13-8.57,3.69-10.2,5.42-9.42,5.11-10.78,5.76-5.81,2.82-11.15,4.26-17.28,5.91-4.37,1.18-7.64,1.84-11.38,4.58-2.92,2.14-2.26,2.73-4.28,4-7.15,4.47-16.4-2.17-19.65,1.77-.39.48-.6,1.75-1,4.29-.81,4.83-.17,6.23-.59,9.3-.2,1.45-1.1,8-6.06,10.93-.75.45-4.19,2.55-7.24,1.33-1.76-.71-2.07-2-3.54-3.4-2.31-2.19-5.15-2.43-10.64-2.8a60.23,60.23,0,0,0-15.65,1.18c-6.17,1.19-9.28,1.83-10.49,3.84-1.81,3,.88,5.54-.59,10.93-.88,3.24-2.67,5.32-4.43,7.39-4.48,5.23-7.15,4.4-10.78,9.15-1.13,1.47-4.38,5.74-3.25,9.9.65,2.42,2.14,2.39,3.69,4.87,3.54,5.68-1.46,10.27,1.33,17.14,1.94,4.77,6.47,7.76,7.24,8.27,3.3,2.18,5.1,1.89,7.38,4.43,2.77,3.09,1.63,5.22,4,6.8,2.77,1.85,4.77-.81,9.75.59,3,.83,2.41,1.82,7.68,4.13,3.4,1.5,4.49,1.46,5.46,2.81s1,2.69.45,7.24a67.19,67.19,0,0,1-2.07,11.37c-1.05,3.73-1.6,4.68-3.4,9.9-2.13,6.16-3.19,9.24-3.54,11.22-2.06,11.55,5.74,16.1,3,27a29.81,29.81,0,0,1-3,7.24c-3,4.92-5.11,4.57-6.5,8s0,5.31.88,13.44c.66,6.37-.93,7.42.45,9.31,2.25,3.08,6.82,2.59,8.12,6.2a2.74,2.74,0,0,1,.15,2.07c-.54,1.19-2.31,1.46-8.57,2.07-4.56.43-5.1.43-5.91,1-2.34,1.73-1.28,4.31-3.39,6.35-2.7,2.61-7.64,1.51-8.42,1.33-4.11-.92-4.63-3.22-10.93-7.68-5.3-3.76-8.18-5.79-10.79-4.88-3.64,1.29-3.53,7.18-7.68,8a6,6,0,0,1-3.39-.44c-3.21-1.42-3.75-5.2-4.73-5s.07,4.56-2.51,8.12A9.68,9.68,0,0,1,763,394c-.73.28-4.38,1.68-7.39,0-2.23-1.25-2.1-3.06-3.54-3.25-2.12-.27-4.76,3.33-5.91,6.79-1.77,5.31.83,7.63-1,10.34s-6.23,2.89-12.4,3.11c-6.58.22-9.49-1-13.3,1a12.53,12.53,0,0,0-4.13,3.69,171.44,171.44,0,0,0-51,31.17c1.46,2.32,2.78,4.12,3.69,5.32,1.22,1.59,2.17,2.69,6.94,8.12l3.25,3.69c6,7.23,7.71,14.3,8.57,14,.56-.18.25-3.32-.15-7.39a24.24,24.24,0,0,1-.15-3.84,15.23,15.23,0,0,1,.45-3.4c1.1-4,4.66-6.12,5.76-6.79a8.91,8.91,0,0,1,3.54-1.48,8.17,8.17,0,0,1,5.76,1.33c4.54,3.35.29,11,5,15.66,2.21,2.14,3.62.95,5.77,3.54,1.78,2.15,1.14,3.36,3.84,8.27a9.89,9.89,0,0,1,1.47,3.25,7.32,7.32,0,0,1-1.33,5.76,7.09,7.09,0,0,1-6.35,2.66,28.1,28.1,0,0,1-3.69-1.47c-2.09-.91-3.13-1.36-4-1.78-3.22-1.57-3.66-2.19-4.43-1.92-1.45.51-.6,3-2.22,4.73-2.36,2.6-6.35-.25-9.3,2.22-.91.75-.56,1-3.25,7.68-1.59,3.91-1.92,4.34-2.36,4.72-2.86,2.5-6.88.52-7.83,2.07s2.63,4.31,4.72,8c5.88,10.3-4.59,19.93,1.19,30,1.18,2.07,3.4,4.18,7.82,8.42,3.76,3.6,5.64,5.4,8.13,6.94,5.68,3.54,9.18,3.25,12.26,7.39.9,1.22,1.83,2.46,1.77,4.14-.09,2.75-2.73,3.46-6.5,8.12-3.12,3.85-2.69,5.06-5,6.65-2.81,1.9-5.93,1.84-8.27,1.77-7.81-.25-9.72-4.51-16.55-4a17.9,17.9,0,0,0-6.64,1.92,21.46,21.46,0,0,0-8,7.24c-2.22,3.23-1.92,4.52-4.28,6.65a10.06,10.06,0,0,1-5.17,2.8c-3.56.55-4.54-1.93-8-1.62-3.59.32-3.73,3.14-7.24,3.54-1.66.19-2.9-.29-9-3.69-2.29-1.28-5.09-2.86-8.27-4.73-12.38-18.47-17.87-23.46-20.53-24.22a23.64,23.64,0,0,1-6.35-2.07c-1.74-.9-2.52-1.63-4-1.62-1.64,0-2.37.94-4.28,1.92a15,15,0,0,1-6.65,1.62c-3.23-.05-4.95-2.37-8.57-5.46-8.46-7.25-10.78-4.63-16.25-10.64-4-4.34-4.74-7.92-7.68-8s-5,3.25-5.17,3.55c-1.78,2.82-.59,4.77-1.18,10A25.53,25.53,0,0,1,532.42,577a22.34,22.34,0,0,1-7.24,7.09,33.75,33.75,0,0,1-17.28,5.61c-5,.4-7.47.6-9.6-1-2.54-1.94-1.88-4.33-4.58-11.67-2-5.51-3.08-8.41-5.91-10.63-3-2.38-4-.84-9-3.55-4.76-2.59-4.74-4.51-9.6-6.79a30.4,30.4,0,0,0-7.23-2.22c-7.65-1.61-10.41-.13-11.82-2.07-1.19-1.62.32-3.23,1.77-10.48,1.17-5.84,1.73-8.9.3-12-1.26-2.69-3.46-4.09-5.62-5.46-5.38-3.43-8-1.86-12.85-4.88-2.58-1.6-1.61-1.9-7.09-7.24-6.54-6.38-8.25-6.27-9.45-9.45-1-2.56-.64-5.25,0-10.63.68-5.67,1.81-7.35.59-9.9-1.61-3.37-5.44-4.36-5.76-4.43-.6-.15-3.94-.95-6.06.88-1.39,1.21-1.39,2.8-1.92,5-.35,1.46-.64,2-4.43,9-6.63,12.32-6.69,12.52-7.53,13.14-3.91,2.91-6.82,1.62-9.9,5-1.76,2-2.27,4-2.95,6.8-1.69,6.89.13,8.93-.67,16.84-.42,4.22-.88,8.3-3.54,12.41-.71,1.09-1.4,1.91-7.09,6.86-6.82,5.94-10.23,8.91-12.19,10-5.59,3-6.85,1.68-12.41,5.1-5,3.08-4,4.21-8,6.2-5.89,3-9.19,1-14.62,4a18,18,0,0,0-6.21,5.54c-1.29,1.86-2,3.67-2.44,3.55-.76-.22,1.56-5.44-.88-8.87-1.48-2.07-4.06-2.61-5.32-2.88s-3-.4-8.86,1.11c-6.28,1.63-8.6,2.92-9.75,1.77-.79-.78,0-1.72-.44-4.21-.12-.68-1.05-5.93-4.66-7.09-3-1-6.26,1.72-6.87,2.22-5.91,4.91-2.75,11.9-6.86,14.84-4.3,3.08-9.38-3.37-22.6-4.65-10.11-1-10.66,2.46-18.84.44-3.43-.84-12.34-3-17.94-10.19-1.49-1.89-2.89-4.32-6.21-6.64-1.7-1.2-4.63-3.19-8.19-2.88-2.24.19-2.3,1.07-5.77,2.21-5.38,1.77-7.57.4-8.64,2s.45,4.79,3.55,11.07c1.57,3.19,1.92,3.38,2.44,5.1s1.87,6.23-.23,9.53c-.93,1.46-2.56,2.69-7.09,3.76-11.15,2.65-14.75-1.62-20.6,1.33-5.29,2.67-3.49,6.72-9.53,9.75-3,1.5-6.8,1.52-14.4,1.55-6.19,0-8.8-.64-11.08-1.77-2-1-4-2-5.09-4.21-1.31-2.69,0-4.7-1.78-7.09a9.34,9.34,0,0,0-3.32-2.44,20.66,20.66,0,0,0-6-2.21,23.87,23.87,0,0,0-8.64,0c-2.57.41-3.42.86-9.75,3.1-9.25,3.27-7.63,2.38-11.74,4-5.71,2.23-6.65,3.09-9.09,2.88-2-.18-2.39-.83-7.75-3.77S52,590.88,48.9,590c-4.35-1.16-4.78-.15-8.2-1.55a26.59,26.59,0,0,1-7.53-5.09c-3.18-2.73-3-3.31-6.21-6a69.08,69.08,0,0,0-6.2-4.43c-4.1-2.73-6.16-4.1-7.54-4.43-.32-.07-6.68-1.48-10.63,2.66-.26.27-3.3,3.54-2.44,6.87.58,2.24,2.28,2,4.43,5.09.8,1.13,1.58,3.51,3.11,8.2,1,3.21,1.57,4.84,2,6.65.94,4,1.4,6.08.66,8.42-.79,2.52-1.95,2.22-2.43,4.21-.74,3.07,1.47,6.08,5.76,11.74,1.62,2.15,3,3.82,4,4.88q.21,18.16.44,36.33c-.08,1.91.12,4.18,1.55,5.1,1.05.68,2.05.16,5.1-.44a34.84,34.84,0,0,1,10.85-.45c2.2.3,3.34.47,3.77,1.33.85,1.7-1.55,5.17-4.43,7.09s-5.27,1.61-5.54,2.88c-.39,1.82,4.28,3.19,4.43,6,.11,2-2.16,3.75-4,4.88-.08,1.28-.52,9.5,2.22,11.74a28.62,28.62,0,0,0,2.43,1.77c1.78,1.15,2.3,1.18,2.89,1.78,1,1.07,1.09,2.73.88,5.09-.59,6.63-.88,9.95-3.32,13.07s-4.69,3.24-4.65,5.1c0,2.05,2.76,2.76,6,6.65,1.63,2,3.11,3.09,3.1,4.87,0,1-.42,1.26-.74,2.37-.76,2.66.54,5.23,2.51,9a23.83,23.83,0,0,0,3.4,5.46c3.42,3.73,5.57,2.47,11.37,6.65a28,28,0,0,0,5.76,3.54c1.34.59,1.95.71,1.92.89-.08.62-7.22.33-14-1.33-2.92-.71-3.7-1.17-4.28-1.63-3.24-2.51-3-6.79-4.73-6.94-.94-.08-2,1.1-2.36,2.22-.87,2.56,2,4.18,3.69,8.86s-.17,5.9,1.92,9.75c.52,1,3,5.2,6.65,5.46,2.14.16,3.47-1.14,4-.59.78.85-2.37,3.78-3.84,8.57s-1,10.3.88,10.93c1.6.55,2.87-3.1,6.21-3.25.55,0,2,0,6.64,3.84,4.27,3.54,6.41,5.3,7.09,7.39,1.44,4.38-1.89,6.58-.15,10,1.53,3,4.33,1.86,7,5.47,2.42,3.34,1,5.67,3.54,8,1.69,1.52,2.47.65,6.06,2.37,1.15.54,2.17,1.16,7.38,5.31,3.43,2.73,5.14,4.1,5.47,4.44a30.2,30.2,0,0,1,7.09,12.4c.52,1.68.27,1.39.88,3.55a59.15,59.15,0,0,0,4.29,10.49c2.77,5.42,3.7,5.7,4.58,9a22.79,22.79,0,0,1,.74,6.05c-.15,6-2.85,8.31-1.33,10.78.82,1.34,2.44,2,4.28,2.81,2.16.92,2.85.59,4.14,1.33.6.35,2.11,1.37,3.54,5.76.86,2.66.93,4.19,1.63,10.64.66,6.19.84,7,1.33,8.12.84,2,1.94,3.4,4.13,6.2s3.16,4,4.43,4.73c2.23,1.19,4.38,1,8,.74,2.71-.21,5.36-.42,5.61-1.48.39-1.61-5.38-3-5.32-5.46s6.19-5.62,9.46-3.7c1.12.66,2.35,2.18,2.07,3.4-.17.73-.73.7-1.33,1.63-1,1.57-.21,2.85-.89,4.58-.56,1.43-1.54,1.6-2.51,2.65-2.2,2.4-.72,5.35-1,11.53s-2,8.24-.73,9.3c1.5,1.24,6,.08,7.82-2.81,2-3.11.54-7.56.6-17,0-.83,0-2.56,1-3.1s2.88.52,3.69,1c1.64,1,1.94,1.88,2.81,2.51,1.67,1.21,2.85-.38,7.83-.59a34.59,34.59,0,0,0,3.69-.15,9.94,9.94,0,0,0,4.14-1c2.74-1.69,2.94-5.78,2.95-6.06,0-1.09-.14-2.15-3.25-8.86-1.77-3.83-2.1-4.32-2.07-5.47.08-2.69,2-3.31,4-6.64,2.78-4.64,3.23-10.39,3.55-14.48.15-1.95.17-3.95,1.47-6a12.24,12.24,0,0,1,3.55-3.55c1.88-1.25,2.49-.94,4-1.92,1.26-.83,1.75-1.66,4-5.46,3.64-6.19,3.73-6.33,3.84-6.95.55-3-.81-3.42-.59-7.53a18.41,18.41,0,0,1,1.63-6.65,15.39,15.39,0,0,1,5.46-6.64c2-1.29,2.93-1.06,3.55-2.22s.08-2.26-1.33-6.79c-1.64-5.25-1.41-5.53-2.22-6.36-2.17-2.2-4.6-1-6.2-3.24-1-1.37-1.28-3.52-.3-4.73a3.77,3.77,0,0,1,3-1c1.92.14,2.56,1.5,8.12,7.83,1.36,1.55,2.55,3.26,4,4.73,1.25,1.27,1.77,1.64,1.92,2.51s-.33,1.57-2.21,5c-1.2,2.19-1.15,2.26-1.78,3.25a34.81,34.81,0,0,1-2.66,3.55c-2,2.55-4.45,5.78-3.84,9,.07.35.36,1.87,1.19,2.07s1.47-.92,4.28-4c.88-1,.43-.45,2.21-2.37,2.12-2.28,3.2-3.44,4-4.43,2.09-2.59,1.66-2.69,2.37-3.1,3.37-1.94,9.62,2.55,10,2.82,2.57,1.87,3.17,3.34,5.23,3.53a6.6,6.6,0,0,0,4.28-1.47c4.71-3.14,5.9-8.88,6.21-10.49s.07-1.23.15-7.83c.09-8.24.42-8.44,0-10.78-.48-2.63-1.3-4.66-3-8.72-1.51-3.7-2.05-4.24-2.66-6.64a19.71,19.71,0,0,1-.59-7.69,17,17,0,0,1,3.55-8.56c.73-.89.86-.84,3.69-3.4,0,0,2.26-2,5.46-5.17,6.56-6.39,11.93-20,13.3-23.49,1.44-3.66,2.37-6.52,4-11.52,0,0,2.23-6.91,4.13-13.88,3.48-12.78,6.16-29.48,10.05-48.45,1.56-7.63,6.2-29.53,15.95-39.14,4-3.94,7.24-4.24,8-4.29,3.78-.24,4.92,2.08,12.11,4.73,2.87,1.06,2.69.69,10.63,3,3.44,1,7.19,2.12,8.87,2.66,3.23,1.06,19.91,6.5,30.13,19.06,1.57,1.93,3.21,4.3,6.5,5.76s7.05,1.47,11.08,1.47c5.15,0,6.29-.67,7.68.45,1.88,1.51,1.09,3.82,2.51,8.42a29.76,29.76,0,0,0,3.69,7.38c4.39,7.15,10.18,9.74,16.54,15.36,6.52,5.76,4.21,6.36,12.12,14.78,12.94,13.77,17.92,10.88,25.84,22.15,2.4,3.41,4.32,7.06,9,9.6,2.23,1.21,3.7,1.42,11.23,3.4,6.43,1.69,9.64,2.53,10.78,2.95,9.35,3.46,14.59,11.69,16.84,15.22,1.16,1.81,3.72,6.12,7.24,20.68,5.88,24.35,3.68,32.91,11.08,38.11,3.23,2.27,7.23,3.15,9.16,7.53,1.57,3.58.72,7.15.14,9.45-4.16,16.62-6.41,24.88-7.68,28.07-5.51,13.81-8,16.23-9,24.81-.34,2.87.09,1.26,0,12.71-.1,12.65-.73,27.53,1.78,34.41.14.39.93,2.5,1.92,5.47.93,2.8,1.63,5.12,1.77,5.61,1.94,6.85-4.86,11.9-3.84,19.5.67,5,4.43,9,11.52,16.39,2.66,2.8,7.14,7.06,6.2,8.57-.52.85-2.41.26-2.8,1.18-.51,1.18,2,3.38,3.1,4.29a27.94,27.94,0,0,0,4.28,2.95c3.6,2.27,3.19,6.58,5.76,15.51,1.33,4.6,2.41,8.34,4.88,12.41s5,6.36,9.15,10c8.6,7.64,12.89,11.46,16.25,14.18,8.33,6.74,10.29,10.13,23.19,24.08,9.39,10.15,11.65,11.92,28.22,28.65,6.85,6.93,37.26,41.68,46.82,48.6,2.4,1.74,4.87,3.25,4.87,3.25a78.92,78.92,0,0,0,9.75,5c8.28,3.68,12.41,5.51,14.33,6.5,10.45,5.39,17.93,13.55,22.3,18.32,2.29,2.49,5.08,4.86,10.64,9.6,2.28,1.94,4.46,3.72,7.53,4,.13,0,.13,0,5.32-.15a43,43,0,0,1,5,0c2.83.23,4.25.35,4.88,1.18,1.29,1.71-4,4.71-3.55,8.72.15,1.28.72,1.44,3.1,4.57,4.46,5.86,4.32,7.72,7.54,10.34,1.8,1.47,3,1.83,5.31,3,4.07,2,12.25,6,16.4,12.85,3.77,6.23.75,9.09,5.47,15.06,2,2.58,3.71,3.47,4.72,6.5,1.23,3.69.85,8.76-1.48,9.75-2.54,1.09-6.44-3.12-7.23-4a13,13,0,0,1-3.55-6.79,15.76,15.76,0,0,1,.59-7.09,8,8,0,0,0,.89-3.69,5.29,5.29,0,0,0-1.18-3.1c-1.29-1.45-2.65-.78-5.47-1.78-2-.69-1.66-1.14-6.05-3.69-3.65-2.11-4.37-2.1-4.73-2.07-1.37.13-1.82.94-5.17,3.7-2.45,2-3.68,3-4.58,3.24-2.39.58-4.56-.94-8-3.39-4.62-3.33-8.38-6-8-9.31.26-2.12,2.18-3.58,3.1-4.28,2.88-2.19,4.66-1,7.53-2.81,2.63-1.63,5-5,4.58-8.12-.19-1.5-1.41-2.92-3.84-5.76-2-2.35-3-3.56-4.73-4.58-2.47-1.51-3.67-1-7.53-1.92-6.68-1.61-6.55-4-11.37-4.29a20,20,0,0,0-8.27,1.48c-2.54,1.1-2.87,2-4.73,2.36-2.2.47-4.47-.18-8.57-2.65-4.78-2.9-6-4.63-11.08-8.57-6.91-5.39-7.1-4.09-10.19-7.39-2.31-2.46-2.64-3.65-7.83-9.75a21.43,21.43,0,0,0-5-4.57c-1.94-1.24-4.11-2.62-6.65-2.07-1.6.35-3.6,1.52-4.13,3.39-.31,1.1-.12,2.43,1.77,5.32,4.09,6.27,8.21,7.79,7.68,10,0,0-.1.43-4,3.54,1.33,4,2.47,7.2,3.25,9.31.86,2.31,1.43,3.71.74,4.87-1.09,1.86-4.5,1.67-5.32,1.63s-4.34-.36-9.74-4.88c-5-4.14-4.54-5.94-8.72-8.27a27.22,27.22,0,0,0-6.94-2.51c-4.08-1.06-6.12-1.59-6.94-.74-2.21,2.26,5.93,10.26,3.25,14.92-1.51,2.62-5.86,3.2-8.72,2.66-4.18-.79-6.93-4.32-9.9-8.13-3.52-4.51-4.08-7.22-7.09-8a7.22,7.22,0,0,0-5.17.88c-3.66,2.16-3.83,6.7-3.84,7.09-.07,3.75,3.39,6.41,7.09,9.46,4.39,3.6,7,4,8.57,7.53a13,13,0,0,1,1,4.73,15.28,15.28,0,0,1-1.78,8c-1.71,3.14-3.1,2.85-3.39,4.58s.68,3.15,8.27,10.19c4.59,4.27,6.06,5.39,8.12,8.28a28.7,28.7,0,0,1,3.25,5.76,32,32,0,0,1,1.92,7.53c1.72,10,.81,10.23,2.07,12.26.87,1.41,3.68,3.06,9.3,6.35,5.87,3.44,9,5.17,9,5.17,2.91,1.61,4.29,2.31,5.9,4,1.4,1.45,3.35,3.48,3.25,6.06-.06,1.75-1,2.49-.59,4,.2.66.66,1.42,2.51,2.66,4,2.7,5.8,1.75,7.09,3.55,1.44,2-.32,3.79,1.33,6,.32.44.63.7,4.14,2.51,4,2,4.84,2.37,6.2,3.4a16.18,16.18,0,0,1,3.1,3.1l32.35,38.85c.28-.17,2.33-1.45,4-.59.44.23,1.26.81,1.77,3,1.17,4.87-1.84,7-.59,9.75.48,1.06,2.53,2.08,6.65,4.14,2.08,1,3.69,1.73,6.2,2.81,3.34,1.43,5,2.14,6.5,2.65,4.87,1.68,5.86,1.23,7.24,2.66,1.68,1.74.76,2.95,2.36,5.62,1.73,2.87,3.57,2.74,6.8,5.61,2.94,2.61,1.77,3,5.76,7.68,2.17,2.54,4.3,4.3,8.57,7.83a11.52,11.52,0,0,0,4.28,2.66c2.24.66,3.1-.06,5.91.29a20.62,20.62,0,0,1,6.2,2.07c.1-.19-4.71-2.92-4.87-2.66S806,1450,815,1459.68a35,35,0,0,0,3.54,4.14c2.77,2.47,5,3.14,4.88,4.13-.21,1.34-4.43.86-5.32,3-.5,1.18.31,2.61,1.33,4.13a46.31,46.31,0,0,0,8.86,9.6c7.28,6.25,8.18,6.7,9.16,7.09s3.6.78,9,1.63c4.41.69,6.44.87,8.57-.15,1.88-.91,1.68-1.72,3-2.21,3.65-1.42,8.46,4.07,16.84,11.22,5.09,4.34,6.47,6.91,10.49,8.27,1.8.61,5.56,1.89,8.42-.15a7.59,7.59,0,0,0,2.81-7.08c-.4-2.58-2-2.93-5.77-8a28.12,28.12,0,0,1-4.43-7.39c-.66-1.82-2.76-6.34-1.18-7.83a20.62,20.62,0,0,1,2.88-.84,6.81,6.81,0,0,0,3.27-1.57s.19-.2.35-.39c1.79-2.24-.72-8.54-.84-8.85-1.06-2.61-1.28-2.21-3.15-6.22-2.09-4.47-2.22-5.83-1.92-7.09.08-.33.7-2.73,2.66-3.54,2.25-.94,4.79.82,6.8,2.21a22,22,0,0,1,4.72,4.73,24,24,0,0,1,2.81,4c1.23,2.28,2.58,4.77,2.07,7.83a8,8,0,0,1-2.51,4.72c-2,1.73-3.81,1-6.65,1.77-3.36.94-7.65,3.78-8.42,7.54-.68,3.28,3.14,4.34,7.24,11.22,1.95,3.29,5.79,9.73,3.54,13.74-2,3.5-7,2.29-7.68,4.88-.64,2.31,4,5.82,13.3,12.85a59.24,59.24,0,0,0,9.3,5.61c5.93,2.89,7.12,2.27,7.53,1.92,1.83-1.54-.91-6.66.45-7.39.85-.45,2.75,1.1,3.69,2.66a5.58,5.58,0,0,1,.89,3.4c-.49,3.49-5.8,3.26-7.09,6.65-1,2.57,1.35,5.84,6,12.38a16.38,16.38,0,0,0,4.47,4.6c2.2,1.44,4.2,1.85,4.14,2.07-.11.41-6.64-1.65-14.62-.74-4.35.5-5.25,1.43-5.62,1.92-1.86,2.48.94,5.67,2.07,11.38,2.21,11.2-4.78,18.27-.44,23.33.93,1.09,1.63,1.21,4,3.7,2.12,2.24,2.68,3.34,4.87,5.31,1.65,1.5,2.48,2.24,3.69,2.66,2,.69,2.72,0,6.06.15,2.71.16,4.53.27,5.46,1.48,1.22,1.57.59,4.53-.73,6.5-2.84,4.21-8,2.6-9.75,6.2a6.46,6.46,0,0,0,1.47,7.09c2.31,2.11,5.89,1.32,7.83.89,3.11-.69,3.23-1.78,5.47-2.37,4.36-1.14,7.3,2.1,14.92,5.17,4.33,1.75,3.62.8,10,3,13.13,4.41,15.41,8.14,20.38,6.65,3-.9,3.29-2.58,8.72-4.44,2-.67,3.33-.93,6.06-2.06,3.52-1.48,5.79-2.46,6-4.14.3-1.86-2.1-2.95-1.62-4.73s2.89-1.83,2.87-2.5c-.07-2-20.77-1.8-21-4.44-.08-.81,1.77-1.7,3-2.07,3.06-.94,5.72.38,8,1.18,1.7.61,7,.8,17.58,1.19,5.47.19,7.18.12,9.15-.15,3.86-.53,3.9-1.16,6.8-1.33,5-.3,6,1.52,10.34.89a18.41,18.41,0,0,0,6.2-2.22,24.46,24.46,0,0,0,6.21-4.73c5.58-5.65,15.78-10,23.48-11.52,1.34-.27,6.26-.28,16.1-.29,12.73,0,17.5.4,20.53,3.84.49.54,2.54,2.87,1.92,5s-3.06,2.33-10.63,5.46c-5.39,2.24-8,3.67-9.16,6.36a3.7,3.7,0,0,0-.44,2.8c.79,2.15,4.59,2.25,11.52,3,12.69,1.29,11.11,2.08,14.92,1.77,5.73-.47,8.38-2.2,13.29-.89a17.13,17.13,0,0,1,5.17,2.37l39.29,25.4a71.65,71.65,0,0,1,10.05,1.77c5,1.27,7.82,2.59,11.52,1.48,2.34-.7,2.22-1.53,3.54-1.48,3.6.15,4.16,6.25,10.93,13.3a17.23,17.23,0,0,0,6.65,4.73,15.49,15.49,0,0,0,6.35.88l45.94,1.33,73.41,86.12a4.08,4.08,0,0,0,1.48,2.65c.67.52,1.31.57,3.84.89,2.1.27,3.15.4,3.25.44,1.49.68,1.63,2.07,3.69,6.65,1.6,3.56,2.17,4.16,2.66,4.58,1.62,1.38,3.29,1.39,4.87,1.77,2.81.68,4.22,2.27,8.42,6.5,12,12.13,14.08,12.9,16,13.15s2.84-.19,6.79.29a40.38,40.38,0,0,1,7.53,1.63,26.74,26.74,0,0,1,10.34,6.94c13.79,13.77,37.69,27.59,40.77,38.26a16.3,16.3,0,0,0,3.1,6.2C1465.18,1855.15,1466.33,1855.32,1468.9,1857.46Z"/><path d="M1679.24,2042c2.49,2.63,3.79,4.07,5.31,5.47s2.47,2.25,3.55,2.51c1.76.41,2.4-.48,5-.89a12.72,12.72,0,0,1,7.53,1c1.54.8,3.89,2.54,3.55,3.7s-4.09,1.82-7.09,1c-2.46-.65-3-1.79-5.76-2.21a24.84,24.84,0,0,0-4,0c-5,.18-4.93.49-6.06.29a8.5,8.5,0,0,1-6.5-5.91c-.78-3.07.61-6.75,2.07-6.94C1677.33,2040,1677.65,2040.28,1679.24,2042Z"/><path d="M1626.65,2014.62c-1.15,1.37,2,5.61,2.22,5.91a14.82,14.82,0,0,0,3.84,3.55c2.52,1.62,4.18,1.7,6.5,2.51,1,.36,1.66.67,9.3,6.2,5.37,3.89,6.7,4.92,9.31,5.61,1.93.52,4.43,1.19,6.5-.14a7,7,0,0,0,2.51-7.54c-1-3.23-4-2.84-9.31-7.38-4.22-3.64-3.67-5.11-7.53-7.68-3.64-2.43-8.73-4.19-10-2.66-.9,1,.1,3.38.73,4.87a16.35,16.35,0,0,0,3.11,4.58,98.23,98.23,0,0,0,8.27,8c2.3,2.09,3.07,2.79,3,3-.23.33-3.68-1.71-5.61-3a40,40,0,0,1-5.76-4.28c-2.16-2-1.84-2.16-3.84-3.85-2.31-1.94-2.82-1.75-4.73-3.54s-1.9-2.51-3.4-3.4S1627.44,2013.69,1626.65,2014.62Z"/><path d="M1575,2019.2c5.84,1.15,6,5,13.89,8.87,2.22,1.09,5.06,2.18,8.57,3.54,5,2,6.76,2.38,7.53,4.14,1,2.26-.2,5.44-2.22,7.09-3,2.48-7.45,1-9.16.44-5-1.69-6.76-5-9.89-7.68s-4.44-1.77-20.09-4.58c-11.33-2-12.32-2.66-19.65-3.55-7.07-.85-6.23-.28-12.26-1-11.69-1.46-18.76-2.34-26.14-6.65-4-2.33-5.52-4.17-9.6-4.87-5.48-.94-6.58,1.71-11.23.74-5.42-1.14-5.25-5-13.59-8.42-4-1.65-6.14-1.57-7.09-1.48-3,.29-3.71,1.61-6.2,1.48-1.39-.07-2.45-.55-6.94-3.84-7.31-5.35-7.32-6.14-7.24-6.5.36-1.67,4-.71,8.86-3.4s5.61-6.1,8.42-5.76c2.12.26,4.36,2.49,5.47,4.14.8,1.19.74,1.66,1.47,2.21,1.68,1.26,3.91.25,6.8-.29a26.36,26.36,0,0,1,10.93.59c3.45,1,3.41,2.27,7.38,4.43,6.78,3.68,9.23,1.3,17.88,4.73,5.35,2.11,5.06,3.28,9.6,4.43,3.52.89,4.42.37,10.93,1.33,5.39.79,8.12,1.21,9.9,2.51,3,2.23,2.58,4.37,6,6.79a15.28,15.28,0,0,0,6.8,2.51c4.46.66,6.18-.86,13.14-1.62C1571.2,2019.07,1573.17,2018.85,1575,2019.2Z"/><path d="M1255.31,2001.18c-4.06.17-5.55,1.15-6.35,2.22-1.83,2.44-1,6.6.29,6.94s2.3-3.24,4.29-3.1c1.82.12,3.35,3.27,3.84,5.76.69,3.5-.78,5.15.44,6.65.48.59,1.31,1.07,5.47,1.18,6.35.17,6.55-.9,9-.3,4.29,1.06,4.51,4.53,8.56,5.17,2.35.37,4.22-.49,6.36-1.47,7.87-3.64,10.41-11.55,10.63-12.26.76-2.49,2-6.67,0-8.87-1.55-1.68-4.09-1.18-11.37-.29-9.53,1.16-14.29,1.74-16.25,1.47C1264,2003.45,1262.18,2000.9,1255.31,2001.18Z"/><path d="M1189.88,1889.81c4-1.51,7.39-.93,11.26-.41,3.67.5,8.89,1.09,15.47,1.44a41.32,41.32,0,0,0,10.05,6.06,45,45,0,0,0,6.2,2.07,64.45,64.45,0,0,0,10.19,1.62c4.33.52,7.32,1.09,13.29,2.22,11.32,2.14,9.75,2.82,13.45,3,4.33.16,5.4-.8,19-4.28,6.86-1.75,10.3-2.62,12-2.81,9.15-1,11.15,1.46,20.38.3,6.13-.77,6.13-2,10.93-1.92,5.15,0,9.35,1.48,13.59,3,7.43,2.58,6.19,3.52,10.49,4.43,7.54,1.61,12.08-1.12,15.51,2.22.73.72.27.6,2.51,3.84a72.42,72.42,0,0,0,5.17,6.65c3.95,4.48,5.93,6.72,8.71,7.38,2.54.61,4.7,0,4.88.59s-1.44,1.43-3.55,2.66c-5.94,3.45-6,4-7.68,4.73-6.47,3-9.62-3.07-21.71-2.51-3.74.17-6,.86-10.49.14a41.58,41.58,0,0,1-7.68-2.21c-7.58-2.67-8.87-3.54-11.67-4.43-9.59-3.07-18.61-.55-21.12.15-2.07.57-5.81,2.4-13.3,6-10.91,5.33-10.43,5.62-13.88,6.8s-10.57,3.52-19.2,2.21c-6.74-1-5.56-3-13.3-4.58-10.21-2.13-13.22,1-21-2.36-3-1.3-4-2.39-8.27-4-4.94-1.83-5.26-.76-10.05-2.51-3.77-1.38-5.8-2.79-9.89-3.1-1.89-.14-3.17,0-4.14.88-1.44,1.28-.18,3.36-1.33,4.44-1.38,1.29-4.9.19-7.09-1.48-2.77-2.12-4.84-6.21-3.54-8.27,1-1.63,3.14-.39,6.64-2.37,2.67-1.5,2.3-2.7,5.17-4.58,1.6-1,2.57-1.22,7.39-2.65,7-2.1,8-2,8.12-2.52.41-2.79-26.89-6.93-26.73-12.11C1184.76,1891.73,1188.26,1890.42,1189.88,1889.81Z"/><path d="M1206.42,1834c6.39,0,9.71,0,12.7,2.36.58.46,3.15,2.53,2.66,4.13-.43,1.4-3,1.76-6.2,2.07-6.48.63-17.76,1.71-18.17-.44-.25-1.3,3.82-2,5.46-5.47a4.58,4.58,0,0,1,2.07-2.36A3.55,3.55,0,0,1,1206.42,1834Z"/><path d="M1080.28,1797.05c4.65.53,5.33,3.07,9.89,3.54,2.59.27,3.55-.42,4.43.45,1.58,1.55.87,6.1-1.62,7.68-2.75,1.73-6.83-.69-9.16-2.07-.58-.35-2.31-1.86-5.76-4.87-2.71-2.38-3.44-3.08-3.25-3.7C1075.14,1797,1078.12,1796.8,1080.28,1797.05Z"/><path d="M1154,1774.74c-2.2,0-3.07-1.2-5.46-2.36-4.58-2.22-8.16-1.1-8.42-2.36-.2-.94,1.68-2.13,2.8-2.66,2.07-1,3.37-.55,6.5-.59,5.76-.08,7.32-1.6,9.6-.15.28.17,2,1.31,2.07,3,.08,2.16-2.76,3.71-3.54,4.14A7.3,7.3,0,0,1,1154,1774.74Z"/><path d="M994.31,1649.78a13.52,13.52,0,0,1,6.2-1.33,9.86,9.86,0,0,1,5.91,1.33c.46.31,3.29,2.2,3.25,5,0,2.11-1.63,3.54-2.95,4.73-.74.66-3.44,3-9,4-2.52.47-9.56,1.78-11.08-1-.7-1.29,0-2.88,1.18-5.32A14.34,14.34,0,0,1,994.31,1649.78Z"/><path d="M1020.75,1676.07a8.18,8.18,0,0,0,1.18,8c1.29,1.68,2.93,2.34,5.47,3.25a93.36,93.36,0,0,0,11.52,3.69c5.55,1.25,9.36,3.54,17,8.13,9,5.39,9.06,7.55,18.61,13.14,6.1,3.57,12.3,7.13,14.78,5,1.85-1.58,1.09-5.87,0-8.42-1.52-3.54-3.75-3.84-6.5-7.68s-1.73-5-3.7-8.57c-2.39-4.35-6.62-6.69-15.06-11.38-1.54-.85-5.36-2.63-13-6.2-5.56-2.59-7-3.18-9.16-3.69a27.27,27.27,0,0,0-12.26-.15C1025.77,1672.1,1022.17,1672.94,1020.75,1676.07Z"/><path d="M1253.1,1705.76c11.12,4,13.55,5.07,16.1,6.5,7.87,4.43,9.66,7.68,10.34,9.16a14.41,14.41,0,0,1,1.18,8.27c-1.16,6.91-7.5,10.53-8.72,11.23-3.54,2-4.31.95-14.47,3.69-5.1,1.38-5.23,1.73-9.6,2.81a102.47,102.47,0,0,1-12.41,2.21c-9.24,1.06-11-.18-20.68.3-9.21.45-8.21,1.61-16.84,2.07-5.46.29-11.23-.25-22.75-1.33-9.87-.93-14.91-1.41-20.53-2.66a89.46,89.46,0,0,1-14.47-4.28c-11.92-4.76-11.44-8-23.49-13.45-8.87-4-14.54-4.7-15.21-8.56-.33-1.88.76-3.72,3-7.39,3-5.09,4.77-5.19,6.5-9.16.87-2,2.29-5.24,1.33-8.71-.82-3-2.67-3.58-4.58-7.68A22,22,0,0,1,1106,1683c18.91.08,31,1.4,38.7,2.66a113.82,113.82,0,0,0,14.47,1.77c9.89.49,11.37-.9,17.87.29,7.07,1.3,6.9,3.24,15.37,5,6.51,1.37,6.77.26,13.88,1.62,7.94,1.52,8,3,15.81,4.58s8.44.24,16.24,1.92C1240.85,1701.43,1245,1702.88,1253.1,1705.76Z"/><path d="M1300.36,1824.82c7.43-.2,18.74-.18,41.36-.15,13.5,0,15.4.06,18.91.74,5.44,1,8,2.34,13.14,1.77,1.13-.12,7.77-1,12.12-5.91.81-.92,2.29-2.66,1.77-4s-3-1.65-5.61-1.77c-5.24-.23-7.85-.34-13.74.89-1.84.38-10.85-.63-28.81-2.66-3-.34-7.78-.88-14-1.63-10.69-1.26-13.58-1.68-15.21-1.92-7.11-1-8.83-1.55-13.89-2.36s-7.07-.89-21.71-2.07c-28.15-2.26-28-2.52-31.17-2.06-5.75.84-9.59,2.25-15.06.73-2.73-.75-5.35-2.1-10.49-2.8-2.72-.38-3.3-.18-5-.74a17,17,0,0,1-8-6.06c-2.83-3.62-1.78-4.67-4.87-8.56a57.85,57.85,0,0,0-5.17-5.17c-3.37-3.18-5.05-4.77-5.76-5.17-2.1-1.21-6-1.36-13.59-1.63a44.84,44.84,0,0,0-8,.15c-4,.51-7.26.94-8,2.81-1,2.74,4.71,5.54,3.84,9.3-.54,2.3-3.33,4.08-5.76,4.14-3.12.07-4.1-2.73-8.72-6.35-2.23-1.75-8.41-6.12-16.1-6.65-.81-.06-1.74-.08-9,.88-8,1.07-11.51-.38-13.29,1.93-1.63,2.09,0,4.39-1.63,5.61-1.89,1.46-4.9-1.27-11.08-2.66-5.69-1.28-12.13-1-12.55.59-.28,1,2.07,2.49,3.54,3.4,10.14,6.22,19.61,3.64,22.31,8.86.86,1.66.37,2.85,1.77,4.14s3.36,1.46,7.68,1.18c7.68-.5,7.89-1.46,10.34-1,4.48.77,4.3,4.06,10,7.68,4.84,3.06,5.84,1.27,15.66,4.88,7.95,2.92,7.54,4.17,12.26,4.87,3.87.58,6,0,11.67,1a55,55,0,0,1,6.5,1.62c9.14,2.69,19.77,1.59,27.92.74,12.24-1.27,12.51-3,21-2.81,2.9.05,4.14.27,16,2.22,21.84,3.6,25.53,4.16,30.87,4.43C1287.1,1825.48,1286.29,1825.19,1300.36,1824.82Z"/><path d="M947,1887.59c-1,.13-.85,3.45-1.62,12.12-.36,4-.59,5.54.44,6.35,1.31,1,3.83.28,5.32-.89,2.66-2.09,2.91-6.21,2.21-8.86-.14-.57-.18-.48-5-7.39C947.71,1888,947.41,1887.55,947,1887.59Z"/><path d="M842.32,1868.39c-1.26,1.21-1.3,3.54-.59,5.17,1.08,2.53,4.1,3.7,6.49,3.55,2.16-.14,3.56-1.32,5.32-2.81,2.32-2,4.71-5,4-6.06-.25-.35-.66-.16-1.62-.44-2.07-.61-2.1-2.06-3.55-2.66-1.76-.72-2.54,1.08-7.83,2.37A4.18,4.18,0,0,0,842.32,1868.39Z"/><path d="M973.19,1862.78c2.94.38,4.42.59,4.87,1.48,1.1,2.16-3.73,5.06-5.32,12.11-.53,2.35-.88,3.9,0,5,1.1,1.39,5.63.8,14.63-.44,5.36-.74,6.07-.85,7.23-1,5.11-.82,6.51-1.25,10.2-1.92,10.06-1.81,11-.66,16.83-2.51,3.61-1.13,6.16-1.94,8.72-4.28,1.67-1.53,3.08-4.42,5.91-10.19,2.55-5.21,3-7,2.36-8.72a6.48,6.48,0,0,0-3.1-3.25c-5.2-2.63-10.28,3.27-15.36.74-2.23-1.11-1.63-2.44-4.14-4-3.55-2.19-6.83-.79-12.41-.29-11.87,1-15.13-3.7-20.82-.3-3.18,1.9-2.57,3.62-6.35,5.47-4.64,2.25-7.25.49-10.34,2.95-2.85,2.26-4.27,6.63-3,8.27C964.27,1863.29,966.78,1861.94,973.19,1862.78Z"/><path d="M969.94,1648.9c-4.64,1.61-7,2.42-7.09,3.69s2.21,1.59,8,5.32c3.77,2.43,5.57,4.1,7.39,3.39.8-.31,1.21-.93,1.92-2.06,1.33-2.13,3.67-5.86,2.07-8.72-1.8-3.19-7.12-2.85-7.83-2.81A16.76,16.76,0,0,0,969.94,1648.9Z"/><path d="M1022.82,1630.28c1,2.76,5,3.58,7.68,4.14a24.11,24.11,0,0,0,9.6.3c4.78-.84,5.23-2.42,8.71-2.37,3.21.05,4.27,1.41,7.68,2.51,4.53,1.46,6.71.37,13.3.15,10.47-.34,17.58,2,17.72,1.33s-4.81-1.41-10.93-4.87c-1.2-.69-.95-.65-8-5.76-6.32-4.61-7.58-5.43-9.75-6.21a19.9,19.9,0,0,0-8-1.18c-2.54.16-5.78.36-7.24,2.51s.34,4.11-1,5.91c-.54.71-1.67,1.55-8.86,1.33-6.7-.2-10.3-1.07-11.08.44A2.17,2.17,0,0,0,1022.82,1630.28Z"/><path d="M794.46,1534.13c-.85,1.65,4.45,4.35,14.18,14.32,6.36,6.53,8,9.35,12.41,10.2,1.61.3,1.8,0,10.34-.74,8.06-.71,10.22-.64,10.34-1.33.17-1.07-4.89-2.18-13.89-6.21-5.79-2.58-8.68-3.87-11.67-6-5.65-4.12-5.82-6.55-10.63-8.86C801.07,1533.31,795.27,1532.54,794.46,1534.13Z"/><path d="M820.9,1512.27c-2.46,1.88,3.22,13.08,7.53,19.49,2,2.93,6.83,10.16,9.75,9.16,2.09-.71,2.33-5.35,2.22-7.53-.07-1.31-.47-5.63-5.47-11.52C830.72,1516.9,823.07,1510.59,820.9,1512.27Z"/><path d="M850.29,1520.09c1.84-.08,2.19,2.45,6.65,6.5,2.13,1.94,3.47,2.65,3.25,3.4-.29,1-3.13,1.18-5.17.89-3-.44-8.2-2.46-8.27-6.06C846.7,1522.66,848.5,1520.17,850.29,1520.09Z"/><path d="M864.32,1496.31c-1.65.49-2,4-1.92,5.62.09,4.35,3,9.09,5.32,8.86,1.73-.17,3-3,3.25-5.17C871.46,1500.63,866.58,1495.65,864.32,1496.31Z"/><path d="M880.72,1519.06c-1.61,1-1,4.59-.89,5.47,1,6.52,7.3,9.57,7.69,9.74.81.39,4.55,2.13,5.9.74,1.18-1.2-.06-4.12-.88-6a18,18,0,0,0-4.73-6.5C886.46,1521.27,882.64,1517.92,880.72,1519.06Z"/><path d="M782.64,1455c.75-.61,1.35-.37,5.91-.29,4.89.08,5.4-.17,6.06.44,2,1.9-1,6.07,1.18,8.42,1.32,1.45,3.77,1.31,5.91,1.18,4-.23,4.68-1.88,7.68-1.62,2.56.22,5.63,1.73,6,3.84.38,1.84-1.61,2.44-2.21,5.32-.13.62-.43,2.41,2.07,8.27s4,7,3.39,8c-1.28,1.89-9-1.4-12.4-3.1-3.71-1.86-6.81-3.43-8.42-6.79-.75-1.56-.72-2.55-1.92-4.14-1.53-2-3.12-2.47-5.47-3.84s-6.41-3.73-8.12-7.68C781.2,1460.3,780.84,1456.42,782.64,1455Z"/><path d="M688.7,1482.28a16.33,16.33,0,0,1,11.52,3.1c1.32,1,3.77,2.95,3.4,5-.27,1.49-1.89,2.56-3.25,3-2.37.7-4-.61-10.49-4-5.71-3-7.48-3.56-7.39-4.58C682.67,1483,688.42,1482.31,688.7,1482.28Z"/><path d="M697.41,1452.59c1.62-.35,2.44-3.71,2.37-6.2-.19-6.33-6.26-10.55-7.24-11.23a23.68,23.68,0,0,0-8.57-3.54c-4.23-.81-6.62,0-8.12-1.78-1.64-1.95-.1-4.47-1.63-5.46s-4.89.35-6.05,2.51c-.65,1.19-.16,1.77-.89,2.81-1.31,1.85-4.2,1.9-4.87,1.92-3.54.06-4.66-2-6.21-1.33-2,.83-2.56,5.2-1.77,8.56.7,3,3.17,8.13,7.39,10.79.67.42,2.11,1.23,2.36,2.66a3.54,3.54,0,0,1-1.18,3.1c-2.79,2.37-8.72-1.51-9.46-.3-.45.74,1.32,2.94,3.4,4a7.49,7.49,0,0,0,5.91.3c2.79-1.2,2.73-3.72,4.58-4s3.43,2.08,6.2,5.31c0,0,2.33,2.71,8.27,8.28a73.67,73.67,0,0,0,12.26,9.15c4.57,2.71,5.29,2.42,10.64,5.32,3.15,1.71,3.43,2.1,12.7,8.27a167.87,167.87,0,0,0,18.76,11.08c3.57,1.78,5.23,2.42,5.47,2.07.36-.55-2.79-3.44-5.47-5.47-6.37-4.82-9.17-4.13-15.36-8.12-3.88-2.5-2.46-2.56-10-8.71-6.65-5.4-7.3-5-11.07-8.57s-3.33-4.21-9.16-10.78c-4.88-5.5-7.32-8.25-10.49-10.64-5.45-4.1-8.11-4.16-11.82-8.71-1.17-1.45-4.45-5.48-3.1-8.13a4.34,4.34,0,0,1,2.81-1.92c3.11-.71,5.21,2,10.63,5.61,7.56,5.1,9,3.65,13.15,7.83C694.81,1450.31,695.88,1452.92,697.41,1452.59Z"/><path d="M623,1407.69a89.27,89.27,0,0,1,10.49,8.86c3.29,3.25,4.79,4.38,6.49,5.32,2.07,1.14,3.9,2.12,6.06,1.62a6.8,6.8,0,0,0,4.88-5c.88-4.17-3.32-7.9-4.73-9.16-3.78-3.35-6.12-2.55-10.49-5.76-3.38-2.48-2.54-3.38-6.5-7.38-7.14-7.24-12-6.5-15.51-12.12-1.38-2.24-3.07-4.3-4.28-6.64a6,6,0,0,0-1.92-2.66c-1.81-1.19-3.52-.15-6.06-.3-3.35-.19-5.77-2.3-7.53-3.84-2.87-2.5-1.6-3.13-5.91-8.27-1.11-1.32-2.12-2.38-1.77-3.1s2.25-.88,3.69-.44c2.37.7,2.45,2.46,5,4,1.89,1.12,4.74,1.9,5.62.89s-.28-3.06-1.19-4.87c-1.37-2.75-2.27-4.55-4.13-5.47-3.39-1.67-5.78,1.69-9.75.15-2.18-.85-3.45-2.63-4.73-4.43a20.86,20.86,0,0,1-3-6.65c-3.26-10.75-2.89-12.07-4.73-14.33-1.24-1.52-1.53-1.06-7.68-4.58-6.73-3.84-10.49-6-14-9.75-4-4.26-2.26-4.76-6.06-8.42-5-4.83-8.84-4.64-11.37-9.45-1.38-2.61-.53-3.2-2.22-6s-2.91-2.91-6.94-6.8c-4.7-4.54-6-7.39-8-6.94a3.27,3.27,0,0,0-2.07,2.36c-.16.6-.19,1.41,2.21,5.76,1.1,2,2,4.13,3.26,6,.4.58.73,1,.58,1.24-.48.71-5.27-1.73-7.38-2.81-3.76-1.91-5.63-2.86-6.21-3.25-1.2-.8-2-1.46-3.25-1.47-1.61,0-3.6,1-3.69,2.21-.12,1.64,3.58,2.22,9.9,6.06,4.73,2.88,4.6,3.73,8,5.17,4.54,1.92,5.7.77,8.57,2.36,4.12,2.28,4.3,6.09,7.24,10.78,3.18,5.1,5.4,4.52,13.15,11.08,3.85,3.27,9,9.37,19.2,21.57,4.66,5.56,7,8.38,8.42,10.49a111.35,111.35,0,0,1,9.6,18.61c2.42,5.81,2.86,8,5.46,12a46.14,46.14,0,0,0,6.95,8.13c8.4,8.31-.82-.17,21,21.86,10.35,10.46,10.44,10.36,11.67,12.11,3.82,5.43,5.18,9.56,8.12,9.6,2.6,0,5.41-3.12,5-5.32-.31-1.76-2.48-1.83-7-4.58-4.27-2.63-3.24-3.16-9.45-7.68-3-2.21-4.28-2.81-5.17-4.72-1.16-2.53-1.07-6,.15-6.5C621.68,1406.81,622.5,1407.36,623,1407.69Z"/><path d="M596.68,1326.45c-2.38,2-.52,8.11,1.18,11.67,3.3,6.91,6.79,5.88,14.62,14.47,5.44,6,7.57,10.64,14.18,13.15,1.05.4,3.68,1.37,4.43.44.93-1.15-1.62-4.47-6.05-10.63-3.07-4.27-7.18-10-10.2-14.48-5.93-8.86-7.19-12.4-12-14.33C601.89,1326.34,598.45,1325,596.68,1326.45Z"/><path d="M668.76,1359.39c-3.88-.42-5.83-.61-6.35.29-1.06,1.83,4.39,5.73,11.67,14.18,9.59,11.14,7.34,12.75,13.58,17.43,5.84,4.38,11.12,5.47,12.12,10.34.59,2.91-.76,5.08.88,7.09,1.34,1.64,3.25,1.42,7,2.22a45.62,45.62,0,0,1,10.48,4c6.37,3.37,6.67,6.15,10.64,6.5,3.59.33,7.64-1.56,7.83-3.54.21-2.29-5-2.86-11.38-8.42a42,42,0,0,1-8.71-10.64c-3.64-6.45-3-9.74-7.09-13.14-2.19-1.81-2.74-1.17-6.35-3.55s-5.12-4.28-8.72-8.12c-6.62-7.08-9.94-10.61-12.41-11.82C678.21,1360.39,674.77,1360,668.76,1359.39Z"/><path d="M660.78,1352.3c1.32-.59,1.3-4.69,0-8-1.79-4.53-5.81-7-9.89-9.45-5.89-3.53-6.63-2.21-9-4.58-4.37-4.35-1.78-8.68-6-13.89-1.92-2.34-2.52-1.55-9.45-5.91s-6.4-5.16-13.45-9.74c-8.32-5.43-9.25-4.43-12.26-7.83-3.38-3.85-4.63-7.89-6.94-7.68-2,.18-2.3,3.34-4.43,3.54s-3.26-2.43-6.35-5.91c-3.36-3.78-8-7.58-8.57-7.09-.83.68,4.45,10.92,13.94,18,2.33,1.73,2.5,1.48,5.56,3.74,5.76,4.25,9,8,12.55,11.81,12.5,13.39,13,10.5,17.43,17.28,3,4.63,6.24,9.14,9.31,13.74,1.75,2.62,4.17,6.27,6.65,5.91,1.79-.26,2.44-2.46,5-2.81a6.75,6.75,0,0,1,3.54.74c2.29.89,4.22,2.38,8,5.32C659.69,1352.1,660.24,1352.54,660.78,1352.3Z"/><path d="M569.94,1282.28c4.1,1.61,8.3,5.23,9.16,9.9,0,.27.72,4.11-.89,5-1.08.61-2.7-.36-3.54-.89-9.71-6-14.56-9-17.28-12.11a33.65,33.65,0,0,1-7.54-12.7c-.93-3-1.68-7.29-.74-7.68.77-.32,2.1,2.13,6.95,8.27s6.88,8,9.89,9.16C568,1282,567.84,1281.46,569.94,1282.28Z"/><path d="M532.57,1265.3c3.23-.55,6.08,2.55,7.68,4.28,1.93,2.09,4.4,5.68,3.55,6.65-.62.69-2.83-.07-4.29-1-2.46-1.63-2-3.35-4.28-5.17-2.65-2.11-5.51-1.59-5.61-2.66C529.54,1266.56,531.08,1265.55,532.57,1265.3Z"/><path d="M530.8,1275.49a24.71,24.71,0,0,1,5.91,1.77c4.07,1.87,10.3,6.37,9.74,10.78-.14,1.12-.74,2.5-1.62,2.66-1.13.21-1.91-1.76-4.28-4.13-.49-.49-2.25-1.71-5.76-4.14-2.13-1.47-4.21-3-6.36-4.43-2.79-1.86-3.82-2.41-3.69-2.81C525,1274.34,530.29,1275.38,530.8,1275.49Z"/><path d="M505.69,1252.15c-.42,2.2,2.68,3.49,2.21,5.61a3.4,3.4,0,0,1-2.95,2.37c-2.57.16-4.54-3.55-5.32-5-2.61-4.92-.73-6.72-2.81-11.67-.68-1.64-2.77-4-6.94-8.86s-5.77-6-7.38-5.76-2.35,1.91-4.14,1.77c-1.43-.1-2.27-1.27-3.4-2.51-4.62-5.1-8.39-5.2-8.27-7.38.07-1.26,1.33-1.33,4.43-4.14,4.1-3.71,4.2-5.68,5.91-5.76,2.28-.11,3.14,3.36,7.39,8,2.2,2.39,2.36,1.89,8,6.5,6.92,5.67,10.37,8.51,12,11.37,2.83,5.08,2.66,9.82,5.17,10.19,1.59.24,2.56-1.54,5-1.18,1.83.27,1.9,1.34,3.54,1.48,2.39.19,3.06-2,5.47-1.92,1.36,0,2.29.77,4.14,2.21,2,1.6,3.42,2.68,3.84,4.43.66,2.79-1.43,5.9-3.84,7.39a8.6,8.6,0,0,1-9.75-.59c-1.72-1.52-1-2.66-3.25-5.47-1.13-1.38-3.35-4.1-5.91-3.69A3.82,3.82,0,0,0,505.69,1252.15Z"/><path d="M453.1,1212.42c4.36-.67,4.83-.87,5.62-.45,2.26,1.22,2.33,5,2.36,6.5s-.19,5.66-1.77,6.06c-1.33.33-2.14-2.29-6.21-6.06-3.2-3-5.47-3.91-5.17-4.87C448.1,1213.06,448.9,1213.06,453.1,1212.42Z"/><path d="M409.23,1180.36c1.27-1,4.21.8,9.46,4.14,9.42,6,12.08,7.84,15.51,10.49,3.94,3,6.7,5.43,7.82,9.3.09.28,1,3.42,0,4s-2.52-1.68-5.46-3.4c-4.18-2.43-5.94-.89-9.6-2.51-5.4-2.38-3.3-6.47-9.9-11.67-3.93-3.09-7.52-3.88-8.27-7.38C408.72,1183,408.32,1181.1,409.23,1180.36Z"/><path d="M449.71,1148.9c1.11.47,5.34,2.23,6.94,6.35,1.42,3.68-.94,4.87.29,10.93a13,13,0,0,0,2.51,6.21c1.22,1.46,2.07,1.62,3.11,3.25,1.31,2.07,1.93,5,1,5.61-.35.24-1,.22-4.58-2.22a39,39,0,0,1-6.35-4.87c-4.24-4.4-2.62-6.45-6.94-11.82-2.7-3.35-4.16-3.57-4.88-6.2s-.45-6.3,1.92-7.83C444.94,1146.91,447.82,1148.11,449.71,1148.9Z"/><path d="M480.43,1148.61c-1.08,2.12-1.51,5.25-.15,7.53,1,1.61,2.22,1.78,2.36,3.1.21,1.89-2.14,3.62-3.25,4.43-4,3-6.79,2-7.68,3.84-1,2,1.49,5.12,4.14,8.42,2,2.54,4.26,4.3,8.71,7.83,4,3.2,5,3.59,6.06,3.4s1.54-.73,5.17-5.76c3.32-4.6,3.47-5,3.4-5.62-.37-3.09-5.66-2.72-7.54-7.09a10.56,10.56,0,0,1,.45-8.12c.88-1.87,1.66-1.91,2.36-3.84a10.46,10.46,0,0,0,0-6.65c-.38-1.14-1.76-5.33-5.46-6.2C485.48,1143.05,481.92,1145.67,480.43,1148.61Z"/><path d="M528.58,1127.34a14,14,0,0,0-1,8.12c1.06,5.21,5.67,8.22,9.6,10.78,2.66,1.74,2.06.82,12.11,5.61,4.17,2,6.1,3,6.5,2.52.72-.9-4-5.79-4.87-6.65-6.93-7.12-9.29-6.15-13.3-11.08-4.61-5.68-5.44-11.83-7.38-11.52C529.55,1125.23,529.19,1126,528.58,1127.34Z"/><path d="M494.61,915.67c.93-.28,2-.46,6.79.15,3.08.39,4.63.59,5,1,2.49,2.8-2.4,12.7-5.62,12.41-1.14-.11-1.14-1.4-3.54-4.29-3.6-4.31-6.65-5.06-6.35-6.79C491.17,916.72,493.57,916,494.61,915.67Z"/><path d="M476.29,899.72c2.9,2.14,1.17,5.94,3.7,10,2,3.23,4.73,3.57,4.43,4.58-.46,1.49-6.73,1.49-11.82-.74a11.67,11.67,0,0,1-4.14-2.66c-2.57-2.68-4.45-7.6-2.36-10a20.54,20.54,0,0,1,4-1.48c2-.67,2.74-.86,3.69-.74A6,6,0,0,1,476.29,899.72Z"/><path d="M481.17,873.42c-1.78,1.45-1,5.66.59,8.42,1.49,2.57,2.89,2.47,8.12,6.65,3.92,3.13,3.91,3.8,6.8,5.61,2.42,1.52,7.26,4.07,8.42,2.81.6-.66,0-2.13-.74-3.84a21.27,21.27,0,0,0-4.29-6.35c-2.95-3.22-3.33-2.88-6.05-5.76-3.46-3.66-3.39-4.74-5.76-6.21C487.92,874.54,483.25,871.72,481.17,873.42Z"/><path d="M465.81,917.29c2.14-1,5.42,1.72,6.2,2.37,1.33,1.09,2.87,2.37,2.95,4.13.13,2.7-3.28,3.41-4.13,6.5-.63,2.27.81,4.56,3.69,9.16,2.5,4,5,7.82,9.6,10.93,2.71,1.82,2.86,1.17,5.91,3,4.74,2.78,8.2,7.21,14.92,16,2.09,2.72,3.16,4.11,4.43,6.05,2.53,3.86,1.82,3.57,6.35,12.11,1.51,2.86,2.13,3.89,1.63,4.73-1,1.73-5-.34-8.42,2.07-1.24.87-1.86,2-3.11,4.14-2.13,3.72-2,5.8-2.95,5.9-1.28.14-1.63-3.86-5-8.42-2.88-3.86-4.39-3.33-6.5-6.94-.9-1.53-1.5-3.65-2.66-7.83-2-7.11-1.26-6.51-2.07-8.12-1.26-2.52-2.24-2.44-11.67-9.6-3.08-2.34-5.08-4-6.35-3.25s-.38,3.16-2.07,4.58c-1.29,1.08-2.79.45-6.2.44-4.68,0-5,1.15-7.53.89-1.28-.14-3.36-.66-10.05-8-5.57-6.09-8.33-9.18-7.53-11.37s4.3-3.68,6.94-3.1c2.87.62,3.11,3.29,7.54,5.31,1.48.68,3.55,1.62,4.87.74s.46-2.59,1.77-5.76c1.24-3,2.64-3.06,2.66-4.73,0-2.06-2.11-2.59-5.17-6.2-1.91-2.26-4.37-5.16-4.13-8.71.1-1.63.85-4.5,2.65-5,3.45-1,7.56,7.5,10.2,6.5C464.75,924.88,463,918.58,465.81,917.29Z"/><path d="M467.58,996.61c-1,.71-.17,3.56,1.62,7.83,4.7,11.19,10.26,17.72,16.4,26,9.25,12.48,11.76,18.07,19,26.14,4.88,5.4,7.32,8.1,9.75,9.46,2.77,1.54,5.53,2.36,6.5,5,.83,2.27-.64,3.18-.29,6,.38,3.16,2.54,5.27,6.64,9.16,4.61,4.38,6,4.13,7.39,6.94.28.56,2.56,5.2.59,8.87-1.71,3.18-5,2.59-5.61,4.87-.84,3.09,4.2,7.8,9.45,10,5.5,2.35,6.77.07,11.67,1.77,8.56,3,7,10.73,17.43,17.13,5.31,3.26,8.84,3.17,10,6.65s-1.59,5.38-.74,10.49c.14.78,1.09,6.47,5.47,8.56,4,1.94,9.38,0,12.26-2.66,1.86-1.71,1.8-2.91,3.4-3.39,2.93-.88,7.08,2,8.71,5.61a10.08,10.08,0,0,1,.59,6.2c-1.21,5.07-5.85,5.68-5.91,9.31,0,2.62,2.37,2.65,3.4,6.35,1.29,4.6-1.79,6.84-.44,10.49.91,2.46,2.61,2.26,6.5,5.46,6.21,5.11,5.11,8.27,10.48,11.82,3,2,8.36,4.3,10.79,2.22a4.37,4.37,0,0,0,1.18-4.29c-.82-2.81-4.37-2.39-9.9-6.5-4.58-3.4-4.74-5.61-4.72-6.35,0-.32,0-1.89,1-2.51,1.55-.95,3.9,1.33,8.42,3.69a34.24,34.24,0,0,0,9.45,3.55,28.3,28.3,0,0,0,10.93-.15c3.39-.57,5.5-.93,5.91-2.21.55-1.71-2.35-3.64-6.2-7.39-5.81-5.65-10.06-11.81-9.6-12.26s5.67,7.07,13.59,10.78c1.78.84,5.34,2.25,6.35,5.32a6.09,6.09,0,0,0,1,2.51c1.31,1.6,4,2.4,5,1.48s.29-3-.59-5.76a22.25,22.25,0,0,0-3.54-7.39c-2.44-3.16-4.3-3.4-8.42-6.35-4.45-3.18-3.88-4-13.15-13-2.89-2.79-4.33-4.18-6.5-6-9-7.74-11.6-7.59-14-12.12s-.38-5.9-3.25-10c-3.06-4.41-8.15-6.85-9.9-7.68a56.76,56.76,0,0,1-8.12-4.14c-2.55-1.63-3.11-2.36-3.4-2.8-2.17-3.31-.34-6.95-1.77-7.68-1.07-.55-3.28.92-4.43,2.65-1.26,1.91-.7,3.27-1.92,8.13-.7,2.78-1.09,3.18-1.48,3.4-1.82,1-5-1.25-6.65-2.81-2.16-2-2.37-3.54-4.28-6.79-1.09-1.86-2.8-3.9-6.2-8a105.9,105.9,0,0,0-8-9c-7.3-6.9-9.51-5.06-12.26-9.75-2-3.38-1.17-4.91-4.58-11.52-1.3-2.53-2.39-4.17-2.07-4.43.5-.4,3.57,3.21,9.75,8.27a46.4,46.4,0,0,0,7.09,5.17c5,2.82,6,1.75,8.27,3.84,3.79,3.49,2.16,7.48,5.77,9.6,1.23.73,3,.74,6.64.74,6.88,0,10.19-1.18,10.78,0,.39.75-.9,1.59-2.8,4.73-1,1.55-3.6,5.94-2.51,7.09.76.8,3.27-.07,4.87-1.19,2-1.41,1.79-2.66,3.4-3.39,2.47-1.12,4.72,1.11,5.61.14,1.09-1.17-.77-5.17-3.25-7.82-1.6-1.72-2.44-1.78-4.28-3.55-2.84-2.73-2.19-4.23-4.14-5.91-2.47-2.13-4.12-.57-8.71-2.21-3-1.08-5.07-2.84-9.16-6.35a63,63,0,0,1-6.2-6.06c-7-8-4.94-11.86-10.93-20.09-.14-.18-4.67-4.3-13.74-12.55-3-2.71-5-4.52-8.12-4.73-3.37-.23-7.51,1.47-8.42,4.28-.59,1.81.58,2.74,2.95,9.31,1.29,3.57,2.45,6.85,1.62,7.38-.62.41-2.18-.93-3.1-1.77-5-4.58-7.57-6.87-10.34-12.26-7-13.61-14.49-12.29-23.33-29.1-3.42-6.48-4.73-11.29-10.49-17.43C474.5,1000.07,469.09,995.5,467.58,996.61Z"/><path d="M379.25,844.47c-1.57.86-1.67,5.52.29,8.72,2.33,3.79,5.63,2.36,10.49,7.09,2.54,2.47,3.1,4.27,4.58,4.13,1.93-.17,3.67-3.47,3.54-6.35-.08-1.81-.94-3.1-2.65-5.61-2.38-3.47-3.57-5.21-5.76-6.35-2.68-1.4-3-.1-9-1.63A2,2,0,0,0,379.25,844.47Z"/><path d="M476.44,868.55c.81-1.5-3.72-3.64-4.28-8.27-.28-2.26.36-5.33,2.36-6.65,1.36-.9,2.67-.54,9.45.74,6.47,1.22,7.78,1.37,9.16.59a7.2,7.2,0,0,0,3.25-5.91c.08-3.8-3.18-6.07-11.82-13.44-11.72-10-12.77-11.87-13.44-13.44-2.63-6.22.48-8.5-2.51-14.33-2.78-5.42-7.92-8.22-11.81-10.34-7.49-4.07-10.79-2.76-15.22-7.24-1.27-1.29-4.12-4.17-4.58-8.42-.66-6.19,4.1-12.05,4.88-13,2.31-2.85,4-3.49,4.13-5.62.16-2.64-2.28-4.76-4.28-6.5-1.48-1.28-5.54-4.81-10.64-4.43-1.25.09-.8.29-6.64,1.92-5.25,1.47-6.27,1.49-6.95.89-1.18-1.06-1.08-3.83.15-5.61,1.84-2.66,5.14-1.6,6.8-4,1.18-1.71.65-3.9,0-6.5-1.18-4.65-2.9-5.66-6.65-12.56-2.53-4.65-3.8-7-4.43-9.3-.72-2.65-.76-4.36-2.36-6.21a9.27,9.27,0,0,0-5.47-3,7.26,7.26,0,0,0-5.46,1c-1.68,1.28-2.07,3.18-2.66,6.06-.75,3.62.68,5.28-.45,6.35s-3.41.75-4.87-.29c-2.87-2.06-2.16-6.95-2.51-6.95-.57,0-.6,12.75.59,21.13a13.39,13.39,0,0,0,1.18,4.57c1.36,2.72,3.07,3.22,3.69,5.91a4.91,4.91,0,0,1-2.21,5.76c-4,2.89-1.36,10.7-6.06,16.1a10.26,10.26,0,0,1-5.17,3.4c-5.13,1.29-8.66-3-11.37-1.18-1.3.85-.61,1.89-2.66,6.94-1.21,3-1.82,4.48-3.25,6.06A16.12,16.12,0,0,1,358,787c-2.36.86-2.74.4-3.55,1-2.76,2.19-1.88,10.48,2.37,16.25,3.74,5.07,6.93,3.9,12.26,10.34,3.46,4.19,2.3,4.91,5,7.09,2.15,1.71,6.38,2.89,14.77,5.16a29.85,29.85,0,0,0,4.43,1c2.16.26,6.6.8,10.49-1.18a9.28,9.28,0,0,1,3.1-1.18,9.18,9.18,0,0,1,3.54.14c4.75.81,11.28-10.31,12.26-9.75.64.37-2.58,4.73-1.62,10.2a16.16,16.16,0,0,0,2.07,5.17c2.9,5.35,6.06,6.73,5.46,8.86-.45,1.61-2.4,1.34-3.25,3.4-1.08,2.64,1.05,5.72,1.18,5.9,1.64,2.31,4.14,3,8.87,4.29,5.66,1.52,6,.63,8.12,1.92,3.42,2.12,2.43,4.56,6.35,8a82.61,82.61,0,0,0,7.39,4c4.61,2.39,6.38,3.18,8.71,3,1.25-.12,1-.38,3.4-.89C474.08,868.7,475.93,869.5,476.44,868.55Z"/><path d="M312,947.43c-3.68-.38-6.61,4.38-7.09,5.17-3,4.86-3.3,12-.44,13.88a2.76,2.76,0,0,0,2.66.3c1.21-.71.71-2.68,1.47-5.77a19.21,19.21,0,0,1,2.07-4.87c2.35-4.3,4.68-5.55,4.14-7.09C314.46,948,312.94,947.52,312,947.43Z"/><path d="M289.15,1009.61c-5,.36-10.2,3.89-10,6.94.09,1.82,2,1.88,3.4,5.17a13.05,13.05,0,0,1,.88,6.21,21.66,21.66,0,0,1-2.06,7.23c-1.56,3.73-2.57,4.59-2.07,5.47.72,1.27,3.25.26,8,.59,5.78.41,8.42,2.36,9.15,1.33,1-1.37-2.93-5.93-4.43-7.68-3.1-3.63-4.58-4-5.17-6.35s-.13-5.28,1.77-6.94c2.91-2.54,7,.22,9-2.07,1.56-1.78.89-5.51-1-7.68C294.25,1009.24,290.75,1009.49,289.15,1009.61Z"/><path d="M300.67,1089.52a5.51,5.51,0,0,1,5.46,2.37c.77,1.09.68,1.86,1,4.72.73,5.88,1.67,7,.88,7.68-1.45,1.29-6.55-.75-7.53-3.84-.39-1.22.18-1.62-.3-3.1-.83-2.58-3.05-2.82-3.1-4.43S298.92,1089.92,300.67,1089.52Z"/><path d="M398,1120.39c2.13.28,3.06,2,5.17,4.29,3.87,4.25,6.26,4.62,6.05,6.35s-2.61,2.64-3.39,3c-4.36,1.75-8.88-.72-11.08-1.92-2.64-1.43-4.55-2.48-4.88-4.43-.48-2.89,2.81-6,5.76-6.94A5.22,5.22,0,0,1,398,1120.39Z"/><path d="M355.32,1069c1.18,2.44.14,3.28.89,7.68a29.8,29.8,0,0,0,3.69,9.75c2.33,4.33,4.78,7,8.42,10.93,7.67,8.27,9.93,7.91,11.81,12.7,1,2.42,1.15,4.48,3.11,5.62a6.89,6.89,0,0,0,7.38-.89,7.79,7.79,0,0,0,2.66-5.47c.09-1.09.11-3.82-4.73-10.19-3.41-4.49-5.8-7.63-10.19-10.34-3.63-2.23-5.36-2.15-12-6-2.48-1.46-4.1-2.57-5.17-4.58-.7-1.3-.56-1.84-1.92-5.76a19,19,0,0,0-1.78-4.29c-1.64-2.28-3.15-1.85-5-3.69-2.31-2.27-.94-3.84-3.25-8.27-1.84-3.54-3-3.07-4.87-6.8-1-2-.36-1.47-2.36-7.23-.46-1.3-1.09-3.48-2.37-7.83a6.06,6.06,0,0,1-.29-3.84c.53-1.55,1.71-1.9,2.66-3,.79-.89,1.15-2,.73-9.45a56.84,56.84,0,0,0-1.77-11.52,7.65,7.65,0,0,0-1.18-2.51,9.33,9.33,0,0,0-4-2.81c-1.45-.7-3.13-1.74-6.5-3.84a37.77,37.77,0,0,1-5.91-4.13c-3.12-2.85-3.65-4.78-4.72-4.58-1.78.32-2.12,6-2.22,7.68a25.75,25.75,0,0,0,1.92,13c2.52,5.47,4.75,4.36,6.5,9.15,2.09,5.72-.43,9,2.51,12,1.81,1.82,3.62,1.42,5.32,4,1.14,1.72.71,2.47,2.07,4.43,1.63,2.35,3,2.32,3.54,3.84s-.39,3.46-2.21,6.2c-5.43,8.14-7.62,8.69-8.57,12.56-.3,1.22-1.06,5.14,1.18,8.42.37.54,2.58,3.62,5.91,3.54,2.4-.05,4.07-1.72,5-2.66s1.16-1.94,3.84-6.35c.51-.83.6-1,.8-1.1C346.6,1061.6,353.09,1064.37,355.32,1069Z"/><path d="M339.51,998.53c.91,3.29,2.42,5.08,9.46,14,2.48,3.16,3.74,4.75,4.13,5.31,3.26,4.6,4.22,7.12,6.95,12,3.88,6.91,5.82,10.36,8.27,12.26,1.05.82,7.67,5.76,15.36,3.54,4.65-1.34,9.88-5.36,10.19-10.19.14-2.15-.77-3.31-4.13-8.71-7-11.21-5.62-10.31-8.72-14.48-5.67-7.65-7-6.29-10.63-12.26-2.62-4.25-5.83-9.48-4.88-15.51.74-4.67,3.23-5.12,3.84-10.49a18.28,18.28,0,0,0-1.92-10.93c-2.93-5.24-7.63-6.21-7.24-9.45.22-1.74,1.8-3.4,2.37-4,1.54-1.61,2.39-1.43,3.25-2.36,2.1-2.28.07-6.66-1.63-14-.13-.6-.63-3.55-1.62-9.46a174.47,174.47,0,0,1-2.37-17.58c-.5-7.82.71-6.84,1-19.79s-.81-16.52,2.36-20.09,6.83-2.59,8.27-6.2c1.75-4.37-1.94-9.87-4.43-12.41-1.48-1.51-3.44-3.51-5.76-3.25-3.33.37-4.22,5-6.65,5s-3.95-4.3-5.17-7.23c-5.05-12.19-5.88-8.33-11.37-21.57-4.65-11.22-2.58-10.42-6.65-19.2-4.56-9.85-7.25-11-7.83-17.43a27.18,27.18,0,0,1,2.81-15.36c2.24-4.11,4.19-4.64,4.58-7.83.71-5.89-5.13-10.84-6.35-11.82a16.51,16.51,0,0,0-11.82-3.84c-1.58.16-6.14.62-8.71,4-3.26,4.26.46,8.19-2.51,13-2.81,4.55-7.63,3.47-9.16,7.68-.32.87-.7,2.54,1.92,9.16a80.21,80.21,0,0,0,7.53,14.47c4.38,6.7,6.57,10,9.45,12,4.89,3.24,8.33,2.57,11.08,6.5,1.58,2.25,1.84,4.47,2.22,7.68,1,8.91-2.54,11.63-.3,16.1,1.77,3.52,4.13,2.1,7.54,6.94,2.93,4.17,1.54,5.72,4.72,9.6,2.46,3,4.41,3.44,5,6.2.48,2.16,0,4.83-1.33,5.32-1.11.43-2.15-1-2.81-.59-1.31.83,1.35,7.4,1.77,8.42,2.17,5.27,3.35,5.72,3.25,8-.14,3.16-2.63,6.06-5.32,7.38-4,2-8.13.27-10.93-.88-1.28-.54-7.37-3-10.63-9.31-2.57-4.93-1.43-8.43-4.29-9.9a6,6,0,0,0-6.05.74c-2.24,1.73-2.33,4.66-2.36,5.62-.13,3.88,2.12,5.24,5,11.07a49.22,49.22,0,0,1,3.84,11.08c.66,3.09.78,5.75,1,11.08.31,6.66.3,13.15.3,13.15,0,7.78-.35,10.76,1.77,12.4,1.32,1,2.46.66,4.73,2.22,2.1,1.45,1.82,2.77,3.69,4,2.31,1.51,3.54.34,4.87,1.47,2.13,1.81-.36,5.3.3,13,.32,3.79,1,3.86,1.18,8,.13,3-.18,4.28.74,6.06s1.88,1.89,4,4.13a23.22,23.22,0,0,1,3.54,4.88c2.17,4.17.31,6.9.59,16A31,31,0,0,0,339.51,998.53Z"/><path d="M96.53,875.64c-2.48.43-4,5.45-3.84,9.45.2,4.19,2.41,10.07,5.91,10.34s6.36-5.33,6.94-6.5c.88-1.75,2-3.93,1.18-6-.38-1-1-1.35-5.17-4.29C97.6,875.83,97.23,875.52,96.53,875.64Z"/><path d="M116.62,904a4.3,4.3,0,0,0-2.66,3,4.14,4.14,0,0,0,1.48,3.55c1,.85,2.18.86,4,.88,2.35,0,4.28,0,5-1.18s-.27-3.32-1-4.28A6,6,0,0,0,116.62,904Z"/><path d="M580.43,1195c-1.68,1.19-2.51,3.12-3.25,4.87-.87,2-1.31,3.06-1,4.14.66,2.6,4.12,2.15,6.5,5.61,1.54,2.23.55,3.08,1.92,4.43,2.73,2.7,8.69,1.35,12,0s3.07-2.44,5.17-2.66c3.53-.37,5,2.53,10.93,4,1.82.45,4.7,1.15,5.32.15.82-1.35-2.66-5.34-6.21-7.83-2.37-1.66-2.77-1.25-7.09-3.69-1.13-.64-1.41-.85-6.94-4.44-6.15-4-6.57-4.23-7.53-4.57C588.36,1194.34,583.68,1192.67,580.43,1195Z"/></g></g></svg>