<svg xmlns="http://www.w3.org/2000/svg" viewBox="0 0 3614.18 1239.5"><g id="Layer_2" data-name="Layer 2"><g id="Cuba"><path d="M614.33,545.87A54.07,54.07,0,0,1,608.85,556a89.14,89.14,0,0,1-5.9,7.17c-5.33,6.26-7.93,9.45-8.65,11.17-1.68,4-.3,4.41-2.53,13.49-1.28,5.24-1.79,5.29-1.47,6.75.8,3.74,4.39,4.84,8.22,11.38.8,1.37,1.21,2.29,1.05,3.38-.38,2.64-3.68,3.11-4,5.48-.16,1.17.57,1.62,2.74,4.85.13.19,1.56,2.59,4.43,7.38,2.68,4.48,3,5.19,4.21,5.69.7.3,2.15.41,5.06.63s3.13.11,3.8.42c1.72.81,2.11,2.63,3.16,5.49,1.62,4.4,2.95,8,5.9,10.75a18.23,18.23,0,0,0,5.06,3.16,21,21,0,0,0,5.27,1.48c7.71,1.19,10.83-.4,18.56.63,1.73.23.88.22,6.74,1.26,5,.89,6.59,1.08,9.07,1.9a42.22,42.22,0,0,1,5.69,2.53c1.9.86,4.94,1.94,14.76,2.11,7.83.14,12.4.22,18.34-.84,8.58-1.53,10.22-3.69,26.14-9.7,3-1.14.51-.14,17.08-5.91s21.59-7.64,28-11c4.53-2.33,4.2-2.5,9.28-5.06,8.22-4.14,11.07-4.68,14.34-8.22,1.39-1.52,4.72-5.13,4.21-9.28-.41-3.31-3-5-6.11-7.8-2.38-2.16-11.83-10.78-13.71-21.5-1.06-6.07.62-11,1.9-14.76.65-1.9,2.89-8.49,5.69-8.43.37,0,.82.13,3.38,2.53,3.54,3.32,4.1,4.42,4.64,4.21,1.1-.42.5-5.8-1.48-10.33-.33-.75-.35-1.64-1-2.11-1.53-1-3.45,1.09-6.12,1.27-.77,0-2.65,0-9.06-5.69-2.78-2.47-3.22-3.17-8-7.8-5.15-5-6.15-5.64-7.59-6.12-3.7-1.23-5,.48-7.8-1.05s-4-4.95-4.85-7.8-1.64-5.24-.63-7.8c1.18-3,3.46-2.68,4.43-5.49a8.12,8.12,0,0,0-2.53-8.43c-.46-.36-1.27-.91-5.27-1.69-3.68-.71-5.66-.76-8-1.05a54.85,54.85,0,0,1-10.33-2.53c-5.23-1.61-7.84-2.42-9.91-3.79-4.14-2.76-4-4.8-8-7-.68-.36-2.79-1.44-7.81-2.11-6.83-.91-8.82.31-15.17.21-10-.15-11.25-3.26-17.08-1.69-3.76,1-5.16,2.82-10.12,6.75-9.3,7.37-11.33,6.55-18.55,12-1.88,1.42-2,1.64-19.61,22.13C617.83,539.9,616.14,541.82,614.33,545.87Z"/><path d="M583.34,526.26c-1.36.65,1.31,10.27,6.75,16.45.76.87,2.4,2.7,3.16,2.31s.45-2.35,0-3.79c-.87-2.73-2.34-2.69-4-5.48s-.91-4.26-3-7C586,528.41,584.1,525.89,583.34,526.26Z"/><path d="M785.1,499.06c-.68.81-.05,1.7.43,5.06.62,4.44,0,6.56,1.05,7,.83.33,2-.77,2.74-1.48a9.17,9.17,0,0,0,2.53-6.32,5.45,5.45,0,0,0-1.05-3.58C789.32,498.05,786.17,497.81,785.1,499.06Z"/><path d="M817.36,565.47c0,.52,2.89.44,6.33,2.53,1.38.85,1.3,1.1,2.74,2.11,1.83,1.3,2.94,1.58,8.85,3.59,4.8,1.63,6.3,2.21,7,1.47s.15-1.86,0-2.32c-.63-1.86-2-2.3-4.43-4.21-3.49-2.78-3.26-4-5.48-4.64a13.58,13.58,0,0,0-4.22-.21,33.68,33.68,0,0,0-4,.42C818,565.08,817.37,565.24,817.36,565.47Z"/><path d="M833.59,614.39c-1.41,1.43,0,5.45,2.11,7.8a8.92,8.92,0,0,0,6.33,3.16,6.78,6.78,0,0,0,4.21-1.26c1.82-1.37,3.18-4,2.32-5.7-.24-.47-.62-.78-2.1-1.47a29.78,29.78,0,0,0-7.17-2.32C835.93,614,834.26,613.72,833.59,614.39Z"/><path d="M882.93,611.65c-4.3.75-7.38,5.9-7.38,5.9h0s4,1.57,5.69,2.11c5.59,1.8,13.66,1.37,15.39-2.11a4.36,4.36,0,0,0,.21-2.95,5.32,5.32,0,0,0-3.58-3.38c-2.08-.61-2.89.55-6.75.64C884,611.91,884.27,611.41,882.93,611.65Z"/><path d="M918.77,607.85c-2.94-.72-7.41,2.63-7.17,6.33s5.45,6.3,6.54,5.48c.66-.5-.6-1.9,0-4.22.74-2.86,3.4-3.5,3.16-5.27A3.33,3.33,0,0,0,918.77,607.85Z"/><path d="M951.66,606.38c3.8,2.07,5.08,1.61,5.9,3,1.12,1.83.22,5.16-1.53,6.41-.42.29-.82.42-.79.54.1.39,4.26-.3,7.59-1,4.49-1,5.14-1.58,10.12-3,7-1.93,6.91-1.12,10.12-2.53,3.6-1.58,2.61-2.11,8.65-5.48,2.61-1.46,4.56-2.34,6.53-4.64s2.07-3.69,2.11-4.22a6.6,6.6,0,0,0-1.9-4.85c-.54-.57-2.2-2.32-3.58-1.89-1.58.48-.87,3.21-3,6.74a14.11,14.11,0,0,1-5.27,5.06c-1.14.63-.95.3-6.12,1.9-2.31.72-4.65,1.37-6.95,2.11s-3,1-4.22.84c-1.59-.18-2.57-.93-4-1.9-3.65-2.44-5.47-3.66-7.16-4-4.37-.87-9.56,2.86-9.28,4.85C949,604.92,949.89,605.41,951.66,606.38Z"/><path d="M1021,595c-1.25.93-3.48,2.59-4,5.27-.4,2,.14,4.88,1.47,5.27,1,.29,1.9-.93,6.33-5.69a52.36,52.36,0,0,1,5.69-5.69c2.74-2,3.54-1.55,7.59-3.8,3-1.65,7.83-4.83,7.38-5.9s-5.49.18-7.38.63a22.44,22.44,0,0,0-6.32,2.11c-3.62,2-3.75,3.83-8.23,6.33A19.1,19.1,0,0,0,1021,595Z"/><path d="M526.2,478.82c-5.75.06-6.86,0-8.85.64-3.7,1.14-7.29,3.58-7,4.63s4.68.62,6.54.43c4.21-.44,4.33-1.26,7.8-1.69,5.26-.65,7.24.94,10.54-.84,1-.52,2.75-1.71,2.53-2.53S535.14,478.73,526.2,478.82Z"/><path d="M452,474c-1.65,1.14-3.56,3.38-2.95,4.85.35.85,1.42,1.19,2.74,1.48a33,33,0,0,0,9.28.63c7.26-.31,10.85,1.63,11.38.42s-2.67-3.62-4-4.63c-1.94-1.48-6-4.48-11.39-4.22A9.38,9.38,0,0,0,452,474Z"/><path d="M810.61,232.57c-.28.26.67,1.44,3,6.75.92,2.13,1.25,3.07,1,4.22-.33,1.91-1.85,2.85-2.74,3.79-4.4,4.62-.73,16.62,1.26,16.66.76,0,.72-1.72,3.38-6.12,2.06-3.41,2.65-3.31,3-4.85.5-2.58-1.08-3.4-1.69-8-.39-3,.24-3-.21-4.85C816.38,235.22,811.17,232.08,810.61,232.57Z"/><path d="M1134.45,595c-2.19,1.54-.85,7.19.84,10.54,1,1.92,2.16,4.29,4.43,4.85,1.8.45,2.59-.67,7.59-2.53,3.48-1.29,3.7-1,6.54-2.11A45.33,45.33,0,0,0,1161,602c6.91-4.18,10.36-6.26,10.76-6.54,5.74-4,5.4-5.19,12-10.75,9-7.54,14.78-9.72,14.13-11.81-.44-1.4-3.55-2-5.9-1.47-2.15.45-3.55,1.78-8.86,8.64-4.59,5.94-5,6.85-7,8-2.68,1.62-3.28.74-8.43,2.53a36.94,36.94,0,0,0-10.12,5.06c-4.77,3.52-4.85,5.79-7.38,5.91-2.71.13-3.44-2.45-9.06-5.06C1138.27,595.11,1135.88,594,1134.45,595Z"/><path d="M1175.14,441.09c.33,5.38,7,8.81,10.75,10.75a22.07,22.07,0,0,0,7.17,2.53,63.34,63.34,0,0,0,8.22-.21c4.33-.23,5.16-.34,6.12-1.06,1.45-1.09,3-3.48,2.1-5.69a4,4,0,0,0-3.58-2.53c-2,.11-2.16,2.34-4.64,4a10.61,10.61,0,0,1-10.12.42c-1.62-.79-1.71-1.44-4.85-4.85-4.08-4.44-7.72-8.4-9.69-7.59C1175.37,437.38,1175.05,439.65,1175.14,441.09Z"/><path d="M1226.37,446.36c.36-.73,2.67,1,6.33.21s4.42-3.05,7.59-2.95c1.35,0,3.51.53,4,1.89.71,2-2.5,4.46-2.74,4.64a10.22,10.22,0,0,1-7.59,1.69C1229.4,451.05,1225.9,447.3,1226.37,446.36Z"/><path d="M1841.15,776.09c-1.54,2.1-.27,6.24,2.11,7.8,1,.69,1.41.29,5.48.85s5.19,1.18,6.12.42c1.45-1.2.4-3.93,1.47-4.43.85-.39,1.51,1.75,3.8,2.53s3.66-.66,5.48.42c1.08.65,1,1.36,1.9,2.32,2,2,4.55,1.07,7.37,1.69,1.95.43,2.37,1.23,9.49,8.43,5.36,5.42,6.91,6.76,8.44,6.33s2.34-2.4,2.53-3.8c.51-3.93-3.65-7.31-5.28-8.64-4.73-3.86-7.48-2.62-11.17-6.75a14.91,14.91,0,0,0-3-3c-1.74-1.21-3.31-1.6-6.33-2.32a24.65,24.65,0,0,0-7.16-1c-3.33.11-3.43,1-5.91.84-3.06-.22-3.48-1.66-7-2.53C1848.18,774.9,1843,773.6,1841.15,776.09Z"/><path d="M1915.15,818.68c-.7,2.71,3.33,6.08,4.64,7.17a24.53,24.53,0,0,0,4.43,2.74c2.27,1.22,3.41,1.82,4,1.48,1.69-1-1-6.83.64-7.8.75-.46,2.06.46,4.64,2.32,4,2.84,5.93,4.26,6.32,6.32.48,2.51-1.54,3.2-1.48,5.9.07,3.11,2.8,5.17,7,8.65,7.64,6.39,2.18,2.56,10.75,9.48,4.86,3.93,10.32,8.32,18.14,13.71,2.88,2,5.5,3.57,10.75,6.75,7.68,4.64,9.87,5.6,12.23,4.84a7.61,7.61,0,0,0,5.06-6.74,7.07,7.07,0,0,0-1.9-4.64c-2.58-2.78-5.76-1.76-11-3.37-1.38-.43-1.19-.51-9.07-5.06-7-4-6.72-3.74-12.23-7s-9-5.42-10.75-6.54c-7.86-5-9.76-6.76-11.39-9.06a32.6,32.6,0,0,1-3.37-6.12c-1.22-3.13-.91-4.15-2.11-6.11-.91-1.5-1.88-2.2-5.9-4.85-5.33-3.52-8-5.28-9.07-5.48C1921.32,814.49,1915.87,815.93,1915.15,818.68Z"/><path d="M2027.53,893.32c-2.42,2-3.6,6.23-1.69,8.43,1.31,1.52,3.7,1.64,5.27,1.26a7.43,7.43,0,0,0,4-3c1-1.24,3.32-4,2.53-5.9C2036.65,891.72,2030.82,890.57,2027.53,893.32Z"/><path d="M2063.58,917.56c-3.29,1.38-4.63,1.22-4.85,2.11-.08.3-.08.93,3.58,4,2.74,2.3,4.13,3.45,5.06,3.16,1.78-.55,2-4.13,2.11-5.27.05-.68.35-4.93-1.48-5.7C2067.11,915.5,2066.55,916.32,2063.58,917.56Z"/><path d="M2102,909.76c-.26,4.83,4.53,9,5.69,8.43.81-.4-.79-2.81.63-5.69.54-1.08,1-1.17,3-3.79,1.36-1.81,2-2.72,1.89-3.17-.55-1.7-7.13-2.68-9.91.64A5.91,5.91,0,0,0,2102,909.76Z"/><path d="M2112.49,875.18c-2.48.64-2.83,12.37.21,13.5,1.06.39,2.68-.44,3.59-1.27a5,5,0,0,0,1.47-2.53c.62-2.37-.56-4.46-1.26-5.69C2116.15,878.59,2114,874.8,2112.49,875.18Z"/><path d="M2094.78,942.65c3.94-1.42,5.7,1.22,10.75.42,3-.47,2.7-1.45,7.38-2.74,3.09-.84,5.35-1.46,8.22-1.05,1.2.17,6.2,1.05,8.86,5.27.55.87,2.18,3.45,1.26,5.06s-4.32.82-11.38,0c-6.18-.72-14-1.27-19.19-1.48-6.72-.26-9.95,0-10.33-1.26S2092.31,943.54,2094.78,942.65Z"/><path d="M2153.39,902c-1,1.76,1,4.8,4.43,9.91a17.24,17.24,0,0,1,1.69,2.74c.39.9,2.07,4.59.84,7.17-1.08,2.24-3.94,2.77-8.65,3.58-6.68,1.15-10.68-1.33-12,.63a3.2,3.2,0,0,0,.42,3.59c1.49,1.7,4.17.23,9.49,0,7.67-.34,11.09,2.3,14.12-.21.8-.66,1.21-1.38,3-2.74a14.28,14.28,0,0,1,4.22-2.53c1.86-.64,2.78-.31,5.27-.42a32.7,32.7,0,0,0,7-1.27,40.79,40.79,0,0,0,9.06-3.16c5.93-3.06,10.25-8.1,9.7-8.86-.4-.55-3.14,1.61-9.27,3.59-1.39.44-2.39.7-10.76,2.32-10.51,2-11.43,2.11-12.86,1.68-5.29-1.57-8.11-7.75-8.64-8.85-2.06-4.25-1.88-7.92-4-8.44A2.88,2.88,0,0,0,2153.39,902Z"/><path d="M2193.66,933.8c-.58.37-3.39,2.18-3.8,5.06-.36,2.54,1.59,3,2.75,7.16.51,1.84.14,1.81.63,8,.3,3.91.44,3.87.63,6.75.39,6,.59,9-.63,9.7-2.09,1.15-7.08-4.26-7.8-5.06,0,0-1-.5-10.12-4.64-3-1.35-7.26-2.65-15.81-5.27-8.1-2.47-11.37-3.26-14.76-1.69-.13.06-3.17,1.5-2.95,2.74.23,1.39,4.28,1.28,10.75,2.53a67.48,67.48,0,0,1,12.44,3.59,54.29,54.29,0,0,1,11.59,6.75A106.91,106.91,0,0,1,2189,980a72.42,72.42,0,0,0,8.22,7.38,30.08,30.08,0,0,0,7.38,4.21c3.58,1.36,6.78,2.58,8.44,1.27,3-2.37,1.24-13.16-4.85-16.87-4.42-2.69-9.94-.94-10.76-3.37-.37-1.13,1-1.72,1.69-4.85a19.92,19.92,0,0,0,.21-5.06c0-.51-.07-2.59-.42-5.69-.4-3.64-.71-4.3-.21-5.49.67-1.6,1.68-1.47,2.53-3,.68-1.17.72-2.43-.42-7.59-1.69-7.62-2.53-8.22-3.16-8.43C2196.32,932.08,2194.86,933,2193.66,933.8Z"/><path d="M2318.26,939.91c-1.1.26,0,3.68-1.69,10.33-.65,2.6-1.25,3.75-.84,5.69.14.68.38,1.3,2.74,5.06,2.54,4,2.86,4.27,3.16,4.22,1.24-.19,1.49-4.73,1.69-8.22.23-4.08.36-6.34-.42-9.28C2321.88,943.87,2319.52,939.61,2318.26,939.91Z"/><path d="M1367.63,45.36c-5.58,1.09-10.75,4.61-10.33,6.11.31,1.13,3.48,0,9.06,1.9,3.67,1.24,4.19,2.36,7,2.53,2.59.16,2.9-.77,6.75-1.27,5-.64,7.33.53,7.8-.42.62-1.27-3-4.73-6.75-6.74A20.57,20.57,0,0,0,1367.63,45.36Z"/><path d="M1506.14,48.31c0,1.52.7,3.91,2.32,4.43,1.23.39,2.6-.65,5.27-2.74,2.92-2.29,4.37-3.43,4.22-4.43-.33-2.14-6.39-4.47-9.7-1.9A5.82,5.82,0,0,0,1506.14,48.31Z"/><path d="M1493.7,26.59c-2.3,2.31-1.46,4.48-3.16,6.54-1.84,2.24-5.46,2.87-8,2.32-4.29-.93-3.73-4.81-8.43-7.38-5-2.76-7.79.52-14.34-2.53-3.39-1.58-2.89-2.57-6.11-3.8a20.15,20.15,0,0,0-12.44-.21c-5,1.46-5.1,3.5-10.12,4.85-2.7.73-5.07.64-9.7.42-6.88-.31-8.33-1.07-16.45-1.89s-7.77-.18-12.86-1.06c-3.48-.6-2-.62-12.86-3.37-5.61-1.42-7.15-1.71-8.64-3.37-2.44-2.72-1.26-5.23-3.59-6.75-2.89-1.9-6.14,1.06-8.64-1-1-.83-.54-1.34-2.53-4.85-1.23-2.18-1.85-3.27-2.74-3.8-2.66-1.57-7.49-.12-8,2.11s3.26,4.76,4.64,5.69c3.16,2.15,4.45,1.56,7.38,3.16,4.87,2.69,3.72,5.68,8,8.23,4.07,2.42,5.64,0,11.8,2.32,4.28,1.58,3.71,2.79,9.49,5.48,4,1.88,4.13,1.19,10.12,3.58,6.23,2.49,6.91,3.54,9.07,3.16,3.74-.65,3.54-4.13,7.8-5.69,4.66-1.7,9.83.68,12,1.69,4.39,2,4.15,3.66,7,4,4.3.53,5.52-3.21,11-3.37,2.18-.06,4,.59,7.8,1.9a78.28,78.28,0,0,1,7.59,3.37c2.86,1.24,3.55,1.12,16.65,3.8a90.57,90.57,0,0,0,9.7,1.68c7.06.75,9.06-.09,10.33-1.05a9.51,9.51,0,0,0,3.16-5.27c1.33-4.36.63-9.91-1.47-10.54C1495.79,24.52,1494.24,26.06,1493.7,26.59Z"/><path d="M1586.68,60.12c-3.36,4,.23,11,1,12.65.32.62,3.65,7.13,6.54,6.53,1.78-.37,2.71-3.31,3.79-6.75.78-2.46,1.17-3.7,1.06-5.27-.33-4.46-4.26-9.55-8.43-9.27A6.12,6.12,0,0,0,1586.68,60.12Z"/><path d="M1604.39,69.18a6.11,6.11,0,0,1,5.06,1.06c2.31,1.9,2.48,5.43,1.26,7.8-1.34,2.6-4.12,3.29-5.27,3.58s-3.71.92-5.27-.42c-2.24-1.93-.8-6.24-.63-6.75C1599.85,73.53,1601,70,1604.39,69.18Z"/><path d="M1629.06,75.93c-2.31,1.28-2.38,8.25,1.26,11,1.25.93,3.43,1.73,4.85.84,2.18-1.36,2-6.35-.42-9.27C1633.35,76.75,1630.63,75.06,1629.06,75.93Z"/><path d="M1646.77,89.63c-3,2.52-.55,9.61,1.47,9.91.91.14,2.08-1.52,4.43-4.85,2.06-2.91,2-3.49,1.9-3.79C1654,89,1649.05,87.68,1646.77,89.63Z"/><path d="M1623.79,94.06c3.85-.87,8.66.54,9.06,2.74.35,1.9-2.67,3.83-2.95,4-4.67,2.92-12.16,1-12.65-1.48C1616.87,97.43,1620.49,94.8,1623.79,94.06Z"/><path d="M1662.58,107.76c-.32.62.22,1.95,3.79,5.06.35.19,4,2.05,7,.21.61-.37,1.72-1,1.69-1.89C1674.93,108.46,1663.61,105.79,1662.58,107.76Z"/><path d="M1673.33,119.15c-1,1-.1,3.3.42,4.64,1.35,3.47,4.44,8,6.33,7.37,1.39-.44,1.6-3.5,1.47-5a8.14,8.14,0,0,0-4.85-7C1676.32,119,1674.26,118.23,1673.33,119.15Z"/><path d="M1685.14,114.3c-3.11,2.91-1.11,11,2.32,12a2.94,2.94,0,0,0,3-.64c1.48-1.81-2.11-5.27-.63-8.85.73-1.79,2.17-2.24,1.89-3C1691.25,112.77,1687.16,112.41,1685.14,114.3Z"/><path d="M1594.48,97.85c-.41.27,0,1.28,2.11,7.8,1.75,5.29,1.93,5.86,2.74,6.75,1.8,2,3.51,2,4.22,4s-.52,3.71,0,4c.75.43,4.33-2.56,5.06-6.74a8.72,8.72,0,0,0-.64-5.27c-1.3-2.71-3.24-2.68-8-6.33C1596.36,99.31,1595.08,97.47,1594.48,97.85Z"/><path d="M1812.9,189.14c-3.34,1.43-3.5,12.26.63,14.76,1.35.82,2.21.18,5.91,1.27a22.56,22.56,0,0,1,5.48,2.32c4,2.39,3.77,4.25,7.17,5.69a15.39,15.39,0,0,0,5.48,1,31.46,31.46,0,0,0,5.9-.42c3.44-.15,5.49,2.35,11.81,8.22,8.29,7.71,5.5,4.08,13.49,11.39,3.71,3.39,6.37,6.05,9.49,5.48.19,0,2.68-.53,3.37-2.32,1.57-4.08-7.66-11.19-12-14.55a108.47,108.47,0,0,0-14.33-9.06c-4.49-2.51-4.55-2.28-10.75-5.7-4.94-2.72-9-5.13-12.44-7.16-6.15-3.65-9.23-5.47-9.91-5.91C1815.33,189.86,1814.25,188.57,1812.9,189.14Z"/><path d="M1916.84,231.31c-.19,2.39,3.34,3.42,3.16,5.9-.11,1.59-1.58,1.64-3.58,4.43-2.29,3.19-1.41,4.58-3.16,6.11-2.93,2.55-7.32.41-7.8,1.69-.56,1.48,4.68,5.87,7.37,4.64,1.06-.49.92-1.47,2.53-3.59a15,15,0,0,1,4.22-3.79c2.29-1.23,3.35-.43,8.43-.84a29.86,29.86,0,0,0,8-1.48,16.88,16.88,0,0,0,7.16-4.22c3-3.21,4.75-8.31,3.38-9.48-1.71-1.47-8.5,2.88-9.91,3.79a16.13,16.13,0,0,1-4.85,2.53c-2.2.62-5.24.82-5.69-.21-.29-.66.62-1.48,3-4.22,3-3.57,3.71-3.81,3.58-4.42-.4-1.9-7-3.15-12-.64C1919.52,228.08,1917,229.35,1916.84,231.31Z"/><path d="M1966,221.82c-.68,1.41,1.62,4.16,3.17,5.48a7.77,7.77,0,0,0,2.74,1.69c2.53.84,3.68-.52,7.8-.84a18.71,18.71,0,0,1,6.53.63c2.17.56,3.5.92,4.22,2.11a11,11,0,0,1,1,4.15v.06a31.48,31.48,0,0,1-.21,5.7c-.61,4.23-5.69,8-5.9,14.12a12,12,0,0,0,1.9,7.38c1.63,2.29,3.56,2.77,3.79,4.85s-1.45,2.57-1,4.64a8.93,8.93,0,0,0,2.53,4h0c7-.35,9.27-.21,9.27-.21a35.48,35.48,0,0,1,8,1.48c10.61,3.09,13.92,9.07,18.76,7.38,1.56-.55,2.91-1.76,4.85-1.27,1.34.35,1.75,1.2,3.16,2.53,2.44,2.3,5,3.27,9.07,4.85,2.44.94,3.66,1.41,5.06,1.48a11.66,11.66,0,0,0,7.59-2.53c1.38-1.1,3.62-2.87,3.37-5.27a4,4,0,0,0-2.11-3.16c-1.34-.63-2.58,0-6.74,1.68-5.92,2.37-6.57,2.34-7.17,2.11-2.41-.91-1.82-4.19-4.64-5.48-1.47-.67-2.4-.13-4.85,0-2.89.15-4.35-.47-9.07-1.69-4.22-1.09-1.77-.26-11.59-2.53s-11.85-3-14.13-4.21a27,27,0,0,1-5.9-4.22,17.31,17.31,0,0,1-4.43-5.9,10,10,0,0,1-1-5.91c.36-1.95,1.33-2.65,2.74-4.85a27.37,27.37,0,0,0,3.37-8.22c1.14-5.68-1.31-8.41.63-10.33,1.64-1.62,3.93-.21,5.7-2.11a5.12,5.12,0,0,0,.84-5.48c-1-1.76-3.29-2-13.07-2.32-15-.47-10.59.09-15.39-.21C1969.42,221.06,1966.59,220.53,1966,221.82Z"/><path d="M2071,266.31c2.05-.59,4,1.11,4.42,1.47,2.38,2.16,3.45,6.63,1.27,8.65s-6.71,1.13-8.43-1.9S2068.27,267.07,2071,266.31Z"/><path d="M2346.09,334.19c6.53,1.65,9.47,8.25,10.12,9.7,1.1,2.46,2.6,7.17,1.26,8s-4.87-2.62-9.9-7.59-8.23-8.14-7.38-9.69C2340.94,333.23,2344.54,333.8,2346.09,334.19Z"/><path d="M2367.81,348.74c-1.91,1-2.51,4.44-1.27,6.12,1.38,1.85,3.94.11,6.75,1.68,2.09,1.17,2.53,3.18,5.27,12.86,2.26,8,2.69,9.2,3,9.91a54.63,54.63,0,0,0,5.27,11c3.27,5.1,6.93,10.79,13.28,12.43,4.8,1.24,10.37,0,10.75-1.89.29-1.38-2.38-2.5-6.95-5.91a74.36,74.36,0,0,1-12.23-11.59c-4.9-5.63-7.39-8.49-9.07-13.28-1.81-5.19-1.1-8.15-4.21-14.13a14.71,14.71,0,0,0-5.27-5.9C2371.7,349.17,2369.52,347.83,2367.81,348.74Z"/><path d="M2408.5,499.27c2.29-.32,5.45-.76,7.16,1.27s1.49,5.38,0,6.32c-.59.38-1.35.32-4.21-.84-5-2-8.17-3.31-8-4.64S2407.54,499.41,2408.5,499.27Z"/><path d="M2416.3,485.78c3.59,4.4,2.45,8.8,5.48,10.12,1.75.77,3.74,0,4.85-.42,2.34-.9,2.73-2.2,5.06-4,3.79-2.94,5.31-1.45,7.59-3.79s2.53-5.42,2.95-9.28c.5-4.63-.52-5.73.84-8,.73-1.22,1.45-1.63,3.59-4.64a22.79,22.79,0,0,0,1.68-2.53c.92-1.9.89-4.23-1.05-10.12-1.7-5.13-2.54-7.69-3.59-8.85-3.23-3.6-6.88-1.35-16-3.16-10.1-2-16-6.67-18.76-4-1.37,1.34-.78,3.41-2.32,4-1.89.72-4.61-1.66-5.91-3.17s-1.39-2.43-2.31-4a17,17,0,0,0-7-6.12c-5.87-2.68-10.16,1-12.44-1.68-1.84-2.16-.6-6.34-.42-7,.86-2.93,2.44-3.33,2.74-5.9,0-.24.37-3.6-1.69-5.7-2.23-2.27-4.89-.58-10.54-2.53-1.52-.52-5.76-2-5.9-4.21-.1-1.44,1.58-2,2.53-3.8,2.05-3.91-1.51-9.47-1.9-10.12-1.3-2.15-2.31-2.63-2.32-4.21,0-2.44,2.34-4.11,1.9-4.64-.31-.37-1.44.42-3.59,1.05-2.58.76-2.9.19-5.9.84-3.26.72-4.25,1.69-5.06,1.06s-.7-2.69,0-4c.52-1,1.32-1.6,3.16-2.53,4.65-2.35,6.41-1.88,7.17-3.37.87-1.69-.47-4.1-1.47-5.27-1.84-2.13-4.49-2.37-6.33-2.53s-5.63-.5-7.59,1.69c-2.66,3-.07,8.5-1.05,8.85-.82.29-2.84-3.5-6.75-10.33s-4.91-8.31-6.75-9.91c-.65-.57-6.33-5.42-9.69-3.58-1.36.74-1.89,2.32-2.53,4.21-1.43,4.23-.28,6.74-1.48,7.38-.82.44-2.07-.37-5.9-3.37-4.2-3.3-6.3-5-6.75-5.48-2.84-3.41-1.62-5.65-3.8-18.77-1.06-6.43-1.83-8.78-3.16-11.17a25.79,25.79,0,0,0-5.48-6.75,30,30,0,0,0-11.81-6.74,32.37,32.37,0,0,1-5.06-1.69c-2.38-1.05-3.81-1.71-4.84-3.16-1.66-2.33-1.86-6.06-.43-7s4.53,1.34,5.27,1.9c3.33,2.49,3.59,5.12,5.7,5.27a3.07,3.07,0,0,0,2.95-1.69c.39-1.15-.82-1.91-4.64-7.17a10.3,10.3,0,0,0-1.69-1.89,6.41,6.41,0,0,0-3.58-1.9c-.55,0-1.54,0-5.06,3-3,2.45-2.47,2.56-3.58,3.16-3,1.64-4.87-.21-7.81,1.27-.39.19-.86.48-4,4.42-3.9,4.9-4.21,5.76-5.48,6.12-2.1.59-4-1-7.38-3.37-8.53-5.95-8.35-4.13-12-7.38-8-7.07-5.4-12.68-12.44-16.45-2.14-1.14-4.88-2-6.53-4.85-.73-1.25-.67-1.9-2.11-5.27a21.93,21.93,0,0,0-2.32-4.64c-1.16-1.46-2.55-2.1-7.17-3.58-6.73-2.15-10.14-3.22-12.44-2.74a16.37,16.37,0,0,0-6.32,3.16c-3.93,2.75-5.16,5.16-7,7-9.85,9.85-35.28,0-36.47-.42-1.95-.78-3.8-1.69-3.8-1.69a58.82,58.82,0,0,1-6.75-4c-1.78-1.17-4-2.69-7.16-5.06a89.76,89.76,0,0,1-7.59-5.9c-4.27-4.32-3.79-6.51-7.8-9.49-2.77-2.06-6.23-3.42-6.75-2.74s1.68,3.13,3.37,5.06c4,4.54,6.29,5.51,7,8.65.1.49.56,2.65-.42,3.37s-2.56-.28-6.75-2.53c-6.45-3.46-7.1-3.64-7.8-3.37-2.46.94-3.74,6.78-1.9,11.17,1.91,4.55,6.39,5.69,5.91,8s-4.51,1.76-5.49,4.43c-.91,2.51,1.48,6.14,4.22,8,2.56,1.75,3.81.84,10.54,2.11,6.46,1.21,6.27,2.22,10.76,2.53,4.07.28,7.53-.33,7.8.63.16.6-1.11,1.1-2.32,3.38-.67,1.26-1,1.89-.85,2.53.41,1.59,3.34,1.21,7.8,3.16a27,27,0,0,1,5.91,3.58c2.61,2.08,2.36,2.7,3.79,3.38,2.64,1.24,4.6-.36,9.49-1.27,3.84-.71,6.82-.5,11-.21,7.19.5,7.33,1.87,10.33,1,3.69-1,4-3.21,9.49-5.27,2.76-1,4.58-1.7,6.11-.84,1.87,1,1.33,3.27,3.8,7.59.95,1.66,2.54,4.43,4,4.22s1.15-3.09,3.37-4.22c1.38-.7,2.87-.29,5.48.42,3,.82,3.32,1.59,5.9,2.11a10.21,10.21,0,0,0,4.64.21c.68-.16,1.88-.54,7-4.43,2-1.5,2.29-1.83,2.74-1.68,1.6.52,2.48,6.23,0,9.91-1.64,2.43-3.8,2.56-4.22,4.84a4.75,4.75,0,0,0,1.48,4.22c1.52,1.34,3.37.82,5.69,1.06,3.17.32,5.29,1.89,8.43,4.21,5.93,4.38,4.37,7.21,11.6,14.76,2.42,2.52,4,3.64,6.11,6.75,1.51,2.18,1.69,3,3,3.79s2.45.95,8.85.42c5.53-.45,5.92-.7,7.59-.42,3.07.51,3.32,1.59,6.75,2.74,2.64.89,5.38,1,10.75,1.06,8.25.15,7.7-.6,9.7,0,5.9,1.76,9,7.74,10.54,10.75a19.77,19.77,0,0,1,2.53,8.85c.07,2.46.14,5.08-1.48,7.17-2.73,3.54-7.19,1.55-9.27,4.64-1.95,2.89-.59,8.39,2.32,10.12,2.38,1.42,4.38-.55,7.38,1.05,1.08.59,1.74,1.34,4,5.06,4.56,7.51,3.86,7.76,5.27,8.86,2.1,1.63,3,.56,11.81,2.32,5.34,1.06,6.74,1.8,7.59,2.32a15.88,15.88,0,0,1,5.69,6.32c2.73,5.33.22,7.6,1.69,16.87.7,4.41,1.48,9,5.06,12.23,1.4,1.28,1.71,1,5.69,3.16,8.6,4.73,10,7.74,12.65,7,2.84-.85,2.16-4.72,6.54-6.75,1.8-.84,2.56-.48,4.42-1.69,2.62-1.7,2.74-3.46,4.22-3.58,2-.16,3.9,2.84,4.64,5.06,1,3,.42,6.5-.63,6.75s-1.7-2.39-3.38-2.32a2.67,2.67,0,0,0-2.32,2.32c-.08,1.52,2,1.74,3.38,4.21,1.06,1.88.24,2.4,1.47,5.91s2.41,4.07,2.74,4.21a4.58,4.58,0,0,0,3,0c1.6-.32,3.74-.21,8,0a28,28,0,0,1,12.65,3.38A16.42,16.42,0,0,1,2416.3,485.78Z"/><path d="M2454.88,484.09c2.2,1,2.93,4.43,2.74,6.75,0,.55-.43,4.54-3.37,5.9-3.55,1.65-8.73-1.46-9.28-4.84C2444.26,487.52,2451.28,482.45,2454.88,484.09Z"/><path d="M2465,491.47c-4.92.8-9.81,5.33-9.49,9.28.22,2.62,2.66,4.17,7.17,7.17,10.52,7,15.78,10.48,18.13,12.44,9.76,8.13,9.08,14.2,15.81,15.6,5.6,1.17,12.13-1.77,12.44-4.64.27-2.47-4.22-3.51-9.91-8-9.63-7.62-7.7-13.32-17.92-23.19C2476.56,495.61,2471.24,490.46,2465,491.47Z"/><path d="M2475.75,521.41c-1.82,1.74,3.57,12.08,6.54,11.6,1.57-.26,2.62-3.56,2.1-6.12C2483.43,522.12,2477.06,520.15,2475.75,521.41Z"/><path d="M2511.38,529.63c-2.61.86-2.92,7.8-1.48,12.65.51,1.71,1.89,6.34,5.7,7.59a7.12,7.12,0,0,0,4.21,0c.25-.08,3.14-1,4-3.37.23-.61.82-2.65-3.37-8.43C2517.11,533.46,2513.77,528.85,2511.38,529.63Z"/><path d="M2508.64,549.87c-8.2-2.91-9.7-2.39-10.33-2.1-1.63.73-3.44,2.59-3.16,4.21.4,2.37,4.84,1.88,12,5.27,6.09,2.88,8.06,5.67,10.76,4.64a4.73,4.73,0,0,0,2.95-4.43c-.23-2.19-3-3.53-7-5.48A45.69,45.69,0,0,0,2508.64,549.87Z"/><path d="M2532.89,549.24c-4.77,2.49-6.45,8.91-5.91,13.49.58,4.88,3.74,8.22,6.75,11.39,4.06,4.28,5.05,3.11,8.22,7,4,4.81,2.78,7.1,7,11,2.61,2.41,3.88,2.26,5.69,4.85,2.33,3.32,1.59,5.49,3.37,6.75,2.61,1.83,5.8-1.67,10.76-2.32,9.9-1.32,21.19,9.45,27.19,15.18,3.4,3.23,6.19,6.5,9.91,6.11,1.17-.12,2.58-.63,6.54-4.64,6.66-6.75,10.15-10.28,9.27-13.7-.66-2.6-3.11-2.21-8.64-7-5.23-4.49-3.93-5.6-8-8.64-6.39-4.76-10.14-2.46-13.7-7.17-1.54-2-2.19-4.22-4.64-5.06-1.69-.58-2.83,0-4.64.21-5,.66-9.35-1.83-13.49-4.22a39.12,39.12,0,0,1-7.81-6.11c-7.45-7.06-6.78-9.83-11.8-13.49C2547.56,551.84,2539.36,545.86,2532.89,549.24Z"/><path d="M3141.55,902.59a13.94,13.94,0,0,0-4.85,3.59c-2.11,2.68-3.29,7.33-1.26,9.48a5.3,5.3,0,0,0,3.79,1.27c4.42.22,5.29-2.61,9.07-2.95,2.54-.24,5.56,1.25,11.59,4.21a10.18,10.18,0,0,0,5.7,1.48c.56,0,3.31-.3,4-1.9.59-1.35-.65-2.85-4-7.38-4.74-6.4-4.1-5.87-5.91-8-4.15-4.91-6.23-7.37-8.22-7s-1.73,3.15-5.27,5.27C3144.46,901.73,3144,901.3,3141.55,902.59Z"/><path d="M875.34,41.77c.89-2.62,5.52-5.08,26.77-4.21,20,.82,24.15,3.35,37.32,1.89,5.5-.6,3.78-.93,16.45-3,21-3.34,25.63-2.42,28.67-1.47,7.27,2.25,6.44,5,15,7.8,6.61,2.2,10.43,1.68,21.29,2.11,6,.23,1.07.24,26.57,2.31,17.88,1.46,26.87,2.17,29.72,1.27,6.84-2.16,12.43-6.22,18.13-3.58,2.82,1.3,3.38,3.17,6.75,3.79,3.06.56,4.64-.61,10.75-1.69a63.6,63.6,0,0,1,7-.84c6.71-.37,16.66,2.53,21.93,10.54.65,1,6,9.14,3,14.76-2.38,4.38-7.83,3.52-11,9.28-1.34,2.45-2.25,6.1-.85,7.38s3.86-.8,9.91-2.11c7.31-1.58,8.44.38,11-1.48,3.44-2.54,1.5-6.31,6.33-13.49,2.48-3.69,4-4.23,5.06-4.22,1.91,0,2.37,1.9,4.64,2.74,1.84.68,4,.37,9.91-2.74s6.52-4.28,10.33-6.32,7-2.88,13.28-4.43c4.24-1,5.93-1.19,16-3,8-1.41,9.26-1.55,10.12-1.78l.42-.12c3.07-1,4.51-4.09,5.06-5.06,1.86-3.21,5.9-3.67,10.55-5.27,14-4.81,21.07-15.76,23.82-13.49,1,.79.85,2.64.63,3.58-.62,2.68-3.81,4-5.27,4.64-13.57,5.65-22.9,7.17-28.25,13.91-2.64,3.33-2.59,5.76-2.53,6.54.29,3.69,3.61,6.12,5.48,7.59,8.88,7,4.76,7.47,19.19,20.45,10.61,9.55,13.9,10.22,16.44,10.12a16.1,16.1,0,0,0,8.44-3.16c2.64-2,3.83-4.39,5.9-8.65,3.72-7.65,3.73-11.79,6.75-12.65.69-.19,2.07.08,4.84.64,4.24.84,4.53,1.49,6.54,1.47,2.58,0,2.75-1.1,6.32-1.9a16,16,0,0,1,7.38-.21c.78.2,5.71,1.58,7.59,5.7,1.27,2.77.2,4.7,1.9,6.11,1.18,1,2.74.92,4.43.84,3-.14,4.49-1.09,6.53-1.68,6-1.75,8.07,2.19,13.92.42,2.22-.67,1.77-1.2,5.9-3a51.26,51.26,0,0,1,7.8-2.53c9.7-2.19,12.12,2,19.19-.64,3.46-1.26,3.66-2.54,8.64-4.21,3-1,5.4-1.82,8.44-1.48,4.32.48,4.75,2.71,9.06,3.38,3.75.57,4-1,9.07-1.27,7.21-.34,9,2.76,12.86,1,3-1.32,2-3.17,6.53-6.11,2.58-1.66,4.24-1.93,6.12-4.22.66-.81,2.06-2.56,1.68-4.42-.16-.83-.55-1.06-1.47-2.32-1.55-2.12-3-4.15-2.53-5.7s2.68-2.47,4.43-2.1c2.83.59,3.86,4.72,4,7,.08,1.22-.06,2.76-1.26,5.7-2.64,6.41-5,6.53-5.48,9.48-.8,5.34,6,12,12.22,14.76,3.71,1.64,5.58,1.14,8.23,3.59,2.43,2.24,1.32,3.07,5.06,8,2.06,2.72,3.59,4,4,6.74.22,1.45-.08,2,.42,2.74,1.26,1.94,4.76,1.09,8.44,1.27,5.58.27,9.74,2.83,13.7,5.27,5.33,3.28,5,5,10.12,7.38a28.58,28.58,0,0,0,9.07,2.53,29.87,29.87,0,0,0,11-1c3.49-1,6.64-1.89,7.17-4,.59-2.37-2.64-4.07-1.9-6.11.55-1.53,2.8-1.8,6.54-2.75,0,0,2.88-.73,9.69-3.16,7.49-2.67,6.73-4.37,13.92-7,6-2.13,7.31-1.27,9.91-3.58,3.32-3,3-6.13,5.9-7,2.46-.71,5.46.84,7,3,2.53,3.58.39,8.26,0,9.07-1.77,3.64-4.21,3.22-5.06,6.33s1.27,4.43.21,7.8c-.17.53-1.13,3.37-3.37,4.21-2.59,1-4.77-1.53-8.86-3.58a27.73,27.73,0,0,0-19.61-1.69c-2.34.67-7.27,2.09-7.8,5.06s3.53,6,9.07,10.12c3.85,2.88,5.82,4.35,9.06,5.48,5.94,2.07,11.13,1.24,15,.64a47.71,47.71,0,0,0,12.23-3.8c4-1.77,5.15-2.88,10.54-5.06,3.37-1.36,3.73-1.25,4.85-2.11,4.38-3.32,3.71-8.5,6.12-8.85,1.78-.27,3.84,2.32,5.69,4.64,1.61,2,1.36,2.43,2.32,3.16,2.56,1.94,5.15-.45,10.12-.21,6.16.29,7.16,4.21,12.65,3.58,3.41-.39,4.28-2.05,6.11-1.26,2.54,1.08,1.61,4.57,4.64,9.06,2,2.93,2.79,2.06,6.32,5.91,4.75,5.14,3.91,7.37,7.17,9.06,3.73,1.93,5.47-.63,9.28,1.48,3.2,1.78,2.75,4,6.75,6.53,1.72,1.08,4.19,2.63,6.53,1.9,2.8-.87,2.06-4,5.48-7,3.23-2.82,5.41-1.41,9.07-4.64,1.68-1.48,3.38-3,3.58-5.06.52-5.42-9.89-8.15-9.48-13.28.25-3.14,4.2-2.75,7.16-8.43,2.24-4.3,1.69-7.83,3.8-8.43,1.5-.44,3.14,1,4.22,1.89,1.39,1.2,4,4.13,3.16,6.33s-3.85,1.22-5.91,4a6.25,6.25,0,0,0-1,5.49c1,2.66,4,2.14,6.11,4.63,3.15,3.65,2.54,11.39-1,14.13-2.85,2.17-5.76-.18-8.85,2.32-1.89,1.52-2.35,3.63-3.17,7.38s-1.81,8.3.64,12.65a10,10,0,0,0,4,4.21c3.82,2,7.45.05,11.6-.42,5.51-.62,9.62,1.69,17.5,6.12,12.6,7.08,15.84,14.64,20.87,13.07,3.11-1,3.52-4.4,8.64-5.91,1.8-.52,4.22-1.24,6.33-.21,3.89,1.91,2.92,7.93,5.9,17.29,1.27,4,2.6,6.52,5.27,11.6,3.79,7.21,7.48,12.16,13.07,19.6,6.92,9.21,7.05,8.26,10.75,13.92,7.62,11.63,8.86,13.7,8.86,13.7,3,5.06,4.76,8.36,8,8.86,2.38.36,3.38-1.11,6.33-.84,3.34.3,5.75,2.54,7.38,4.21,10.65,10.91,20.54,30.27,31.83,34.58a112.43,112.43,0,0,0,11,3.58c2.85.73,3.91.85,6.33,1.69a45,45,0,0,1,8.43,4c4.61,2.81,4.75,4,8.43,5.49a12.92,12.92,0,0,0,6.54,1.26c2.64-.29,2.91-1.37,5.69-2.11,3.51-.92,6.59-.12,9.49.64,5,1.3,4.57,2.59,8,3.16,6,1,11.21-2.35,11.81-2.74,3.85-2.55,3.41-4.64,5.9-5.06,3-.51,4.29,2.4,11.6,5.48,2.81,1.19,4.22,1.78,5.48,1.69,4.4-.34,4.82-4.86,11.38-8,1.69-.81,5.16-2.42,8.65-1.26,1.37.46,1.56.95,3.37,2.11,1.57,1,6.42,3.83,11.6,3.58.41,0,2.8-.79,7.59-2.32,6.09-2,7.23-2.33,9.06-2.32,2.46,0,3.35.71,7.38,2.11,6.21,2.16,10.56,3.67,15.6,3.37s5-1.95,9.91-1.89c2.37,0,7.36.09,10.54,3.16,3.57,3.44,1.14,7.06,3.8,13.91,2.5,6.45,8.67,13.57,13.91,12.65,3.73-.65,5.8-5.14,6.54-6.74.27-.59,2.92-6.57.21-11.81-1.89-3.65-5-4.22-4.64-5.69.45-2,6.43-3.11,11.39-1.48,3.84,1.27,6.29,4,8.64,6.54,3.69,4,2.86,5,5.48,7.17,3.94,3.2,6.24,1.31,12.44,4.21,5.37,2.52,4.59,4.39,10.12,7,5.75,2.68,6.83.77,11.39,3.37,2,1.17,2,1.66,9.69,9.28,5.08,5,5.78,5.49,6.54,5.9,3,1.66,4.83,1.33,12.23,2.11,7.22.77,10.84,1.15,14.12,2.53,2.25.95,3.57,1.93,9.7,7.38,12.12,10.79,18.18,16.18,19.61,18.13,3.13,4.3,5.34,8.6,8.64,8.44,1.84-.1,2.4-1.5,5.91-2.32,1.72-.41,4.51-1.07,6.74.21s1.67,3,3.59,5.48c2.3,3,6.79,5.59,10.54,4.85,3-.59,3-2.81,8-5.69,2.77-1.61,4.63-2.69,6.75-2.75,5.47-.13,7.21,6.75,18.13,16.66,4.36,4,6.73,6.08,10.75,7.59,5.6,2.11,7.73.56,11.6,2.95,3.35,2.08,2.85,3.94,8,12a113.92,113.92,0,0,0,9.7,13.49c2.86,3.37,4.8,5.18,5.48,8.65.44,2.29.22,4.7,1.26,5.06s1.64-1.63,3.16-1.9c3-.55,6.17,6.06,11.39,13.49,4.24,6,5.8,5.75,7.17,9.07.48,1.16,1,2.69,2.11,2.95,1.59.36,3.59-1.9,4.63-3.8,1.64-3,.7-4.69,1.27-9.69.49-4.31.93-8.14,3.58-10.12,1.7-1.27,4-1.13,8.65-.85,5.53.34,9.49.64,12.44,3.59.39.39,3.09,3.09,2.32,4.85-1.15,2.59-8.31-.45-11,2.74s1.12,10.41,2.95,13.91c2.39,4.55,4.27,8.12,8,9.28s6-1.26,10.54.21a13.26,13.26,0,0,1,5.9,4c4.73,5.55.7,10.82,4.85,17.93,2.39,4.09,6.07,6.35,8.43,7.8a32.47,32.47,0,0,0,9.7,3.79,87.46,87.46,0,0,0,20.87,2.53c14.06,0,16.87-2.72,21.72.42,3.7,2.4,3.51,4.93,8.85,7.8,3.16,1.7,5.42,2,7.8,4.64,1.33,1.47,1.12,1.92,3.17,5.48,2.82,4.91,4.23,7.37,6.53,8.44,3.16,1.46,7.81.84,9.7-1.69,2.52-3.39-.52-9.4-.21-9.49s5.08,13.26,6.32,16.87c2.27,6.56,2.45,7,3.17,7.8,3.81,4.27,7.92,2,16.65,6.75,4.12,2.21,4.24,3.26,8,4.63,4.63,1.69,8.45,1.58,8.65,3,.13.91-1.42,1.9-2.32,2.32-2.83,1.29-5.16-.46-5.9.42-1,1.17,1.43,6.27,5.9,9.48,3.05,2.2,4.35,1.57,10.54,4.85,3.56,1.89,3.22,2.15,5.27,2.95,3.81,1.51,7.25,1.51,11,1.48,6.07,0,7.88-1.11,9.91.42,1.83,1.38,3,4.26,2.11,5.69-1.65,2.56-8.46-1.92-13.28,1.48-3.11,2.19-3.61,6.4-3.8,8-.58,5,1.68,8.65,4,12.44,1.61,2.62,5.29,8.63,8.64,8,2-.36,1.91-2.63,4-3.16,3.53-.88,5.41,5.13,9.91,5.06,1.46,0,4.35-2.12,10.12-6.32,1.53-1.12,2.29-1.68,2.53-1.9,1.95-1.89,3.69-4.86,4.64-14.13.81-8-.26-7.86.84-10.54,1.76-4.27,4.37-4.3,8.85-9.49,5.79-6.68,4.59-10.25,7.59-11.17,2.72-.83,5.57,1.53,21.3,18.55,16.79,18.18,13.92,15.9,15.81,17.5,4.88,4.12,8.54,6.25,9.07,10.54.61,5-3.5,9.48-5.06,11.18-4.76,5.15-11.68,7.22-12.23,7.38a27.78,27.78,0,0,0-5.9,2.1c-.44.23-5.67,2.9-5.28,4.22.34,1.12,4.71,1.17,8.44.21,2.78-.72,4.94-1.93,11.38-7,8.45-6.59,9-7.85,11.81-8.22,2-.26,2.25.31,10.75,2.95,4.38,1.36,8.12,2.52,12.65,3.59,7.92,1.86,8.6,1.15,11,2.74,3.39,2.27,4.74,5.55,7,11,1.86,4.53,3.23,7.85,1.69,10.12-.82,1.21-2.3,1.88-6.75,2.32-11,1.07-14.25-1.84-17.08.42-3.73,3-2.06,11.36.22,16,1,2,2.84,5.83,5.48,5.9,1.8,0,2.67-1.69,9.27-10.54,2.86-3.83,4.31-5.78,5.7-7.38,3.46-4,4.16-4,5.48-6.33,2.66-4.6,1.78-7.91,3.58-8.43s2.7,2.59,6.75,4c2.64.92,4,.23,8,.21,2.93,0,5.47.47,10.54,1.47a104.48,104.48,0,0,1,16.87,4.85c8.83,3.35,10,5.1,10.54,6.12a9.92,9.92,0,0,1-.63,9.9c-3.12,4.41-9.61,4.15-13.07,4-9.8-.39-14.7-5.67-16-4.22-1.67,1.83,4.58,11.74,13.5,18.14,8,5.71,14.11,5.76,16,5.69,3.73-.14,7.77-1.34,7.8-2.53s-3.21-1.13-7-3.8c-1.22-.87-6.63-4.71-5.9-9.06a7.18,7.18,0,0,1,5.69-5.48c3.8-.59,5.06,3.28,11.6,5.06,4.21,1.14,4.09-.35,8,.84,5.69,1.73,6,4.91,11.8,6.53,3.71,1,5.58.31,6.33,1.69,1,1.9-1.11,5.86-4.22,8-4.27,2.95-7.44.46-13.49,3.38-1.91.92-5.75,2.77-5.9,5.69s3.64,6.25,6.95,6.32c1.74,0,2.11-.81,7-2.53,2.42-.85,5-1.75,5.48-1.05s-2.65,2.66-2.32,5.06c.3,2.1,3.16,3.67,5.49,4a9.34,9.34,0,0,0,5.27-1.05,21.49,21.49,0,0,0,9.06-7.38c2-2.86,4.29-6.09,3.16-8.22-1.5-2.86-7.26-.17-11.17-3.8-3.19-3-3.52-8.63-1.9-9.69,1.8-1.18,5.14,3.84,9.28,2.74,1.9-.51,2.14-1.81,5.27-4.64a32.05,32.05,0,0,1,7-4.85c5.53-2.6,11.76-.45,23,3.58,3.49,1.26,6.4,2.49,8.85,3.59,11,5,14,7.86,23.83,13.07,11,5.84,10.29,3.78,22.13,10.12,11.48,6.15,11,7.47,16.87,9.28a30,30,0,0,1,10.75,5.48,11.48,11.48,0,0,1,3.59,4c2,4.15.37,9-.43,11.39-1.5,4.52-3.47,6.18-2.53,7.8.78,1.32,3.05,1.85,4.64,1.26,2-.74,1.81-2.83,3.8-4.64,2.46-2.23,6.05-2,8-1.89,4.43.27,5.19,2.16,10.75,4.21,7.63,2.82,12.62,1.64,13.28,4,.61,2.17-3.31,4.22-2.53,5.9s5.22,2,7.17,0c2.22-2.27-.6-5.84,1.27-8,2.8-3.26,10.73,3,16.86-.84,2.27-1.44,2.28-3,5.91-5.06a15,15,0,0,1,6.53-2.11c2-.13,3.46-.22,4.85.63,2.23,1.38,1.63,3.6,4.43,7.59,1.12,1.6,2.37,3.39,3.58,3.16s2.26-2.72,2.11-4.84c-.18-2.68-2.06-3.93-1.47-4.85s2.42.13,4.85-.43c3.12-.71,3.28-3.18,6.11-4.84,2.22-1.31,5.51-.89,12,0s6.09,1.35,9.91,1.68c6.6.57,7.4-.89,13.07-.42,4.43.37,9.76.81,13.28,4.43,4.55,4.69,1.28,9.79,5.69,13.07,1.83,1.36,5.65,1.68,13.28,2.32,5.07.42,4.66.09,5.91.42,6.76,1.81,11.59,9.79,12.86,16.87,1.22,6.82-1,12.33-2.53,16.23-1.76,4.41-2.57,4.09-9.49,14.55-6.53,9.87-7.69,13-11.38,13.7s-7.34-1.61-9.07-2.74c-5.54-3.62-4.86-7.62-9.7-9.91-3.41-1.61-8.27-1.76-10.33.63-.77.9-1.13,2.13-.21,8.65,1.19,8.4,1.78,12.6,3.8,13.28,2.61.88,4.52-3.49,10.33-4.64,2.81-.55,3.89.18,8.43.85,11.42,1.67,13.82-1.5,20.87,1a26.53,26.53,0,0,1,8.86,5.69c2.82,2.49,8,7.08,9.06,14.13.13.88,1,7.52-1.9,9.06s-7.81-2.48-10.12-4.85c-3.43-3.52-3.24-5.91-7.8-10.33-.9-.88-4.13-4-5.48-3.16-1.18.7-.05,3.83-1.26,4.43-.68.33-1.35-.46-3.8-1.69s-3.81-1.91-5.06-1.47c-1.69.59-1.42,2.62-2.74,2.95-2.13.53-3.68-4.54-7-4.64-1.21,0-2.58,1.1-5.27,3.37-4.49,3.8-4.46,4.93-5.9,5.06-3.37.31-4.39-5.79-9.49-6.74-2.52-.47-5.76.37-6.74,2.32-1.51,3,3.76,5.64,3.58,10.75-.22,6.22-8.22,7.47-8.64,14.12-.07,1.1.11,1.55,4,9.91,4.88,10.49,5.22,11.15,6.33,12.23,3.89,3.82,10.79,6.6,15.18,4.22,3.05-1.66,1.9-4.22,5.48-9.49,4.17-6.15,7.18-4.8,14.12-12.23,4.54-4.85,5-7.31,7.8-7.59,4.55-.46,8.6,5.53,9.28,6.54,1.84,2.71,2.87,6.41,4.85,13.7,1.39,5.11,1.76,7.27,3.16,7.59,2.53.57,4.86-5.64,7.59-5.06,2,.42,1.4,3.85,4.64,6.75.16.14,3.83,3.33,7.8,2.53,2-.4,2.14-1.39,6.75-4.85,3.37-2.53,5.09-3.8,6.53-3.58,2.91.42,3.35,4.41,5.91,4.42a4.35,4.35,0,0,0,3.79-3.58c.22-1.57-.89-2.39-2.95-5.69-2.23-3.57-3.67-5.88-2.95-7.38.18-.39,1-1.81,6.53-1.69,6.52.14,8.65,2.21,14.55,3.58,9.42,2.2,13.17-.92,17.08,2.75,2.12,2,3.56,5.27,2.53,7-1.39,2.28-6.47.28-7.38,2.11-.83,1.66,3,3.93,8.85,11.39,2.92,3.7,3.49,5.08,5.7,5.9,2.69,1,7,.86,9.27-2.11,1-1.27,2.26-3.84,1.27-5.9-1.45-3-6-1.38-10.12-4.85-3.51-3-4.86-8.08-3.59-9.28s4.31,2.1,9.7,1.69c2.37-.18,3.56-.95,5.91-1.9,3.09-1.26,10.68-4.33,16.86-2.74,5.3,1.36,4.11,4.74,12,8.64.69.35,4.26,1.43,11.38,3.59,6.51,2,8.65,2.52,11,1.47s2.4-2.55,4.64-3c3.48-.61,6.69,2.48,7,2.74,2.83,2.81,2.16,5.61,4,6.12,1.69.47,2.79-1.73,7-4.22.59-.35,1.63-.94,7.59-3.16,6.16-2.3,9.24-3.45,10.12-3.59,10.36-1.63,19.62,6.67,21.29,8.23.85.8,2,2.47,4.64,5.48,1.39,1.58,2,2.22,2.95,2.32,2.17.23,2.94-2.71,5.06-2.74,1.89,0,2.37,2.26,6.11,5.9a28.43,28.43,0,0,0,13.92,7.59c12.39,2.81,33.64-5.41,36.89-.21.31.49,0,.37.22,8.22.06,2.4.16,5,.21,5.69.47,7.08,8.76,13.64,10.75,15.18,13.44,10.42,18.39,9.66,28.88,17.5,10,7.51,16.42,16.35,22.56,24.88,6.7,9.3,10.05,14,11.6,17.5,2.62,6,3.62,11.17,7.8,12.65,3.21,1.14,4.38-1.27,8.85-1.06,5.72.28,7.7,4.42,16.66,10.55,5.73,3.92,8.7,6,13.28,7.16,7.51,2,14.43.44,21.08-1,4.1-.92,4.13-1.31,13.07-3.58,8.44-2.14,10.49-2.32,12.23-2.32a29.8,29.8,0,0,1,13.28,3.16c10.26,5.13,14.25,14.88,16.45,20.24,2.47,6,4.09,10,2.95,14.76-.49,2.06-1.52,4.43-14.12,16-9.06,8.33-10.47,8.89-13.08,12.86-3.35,5.11-2.76,6.83-6.32,11.18-1.44,1.76-6.09,7.43-12.44,8.85-6.62,1.48-10.66-2.68-17.5-5.27-11.5-4.36-16.41,1.2-52.5,7-3.68.59-11.74,1.82-22.13,2.95-4,.43-15.23,1.6-31.21,2.32-16.3.73-14.2,0-27.4.63-22.49,1.16-32.88,3.65-39.64,8.22a53.88,53.88,0,0,0-9.7,8.22c-3.58,4.14-3.13,5.33-5.69,7-1.77,1.14-3.06,1.25-14.34,2.53-4.36.5-6.56.77-7.59,2.11-1.68,2.2.18,4.52-.63,8-1.05,4.5-5.61,7-9.91,9.28-3.09,1.66-6.31,2.9-17.5,5.27-7,1.49-11.09,2.35-17.28,3.16-17.91,2.34-20.49-.1-21.3-1-1.9-2.22-2.45-6-1.05-8s3.62-.91,8.64-3.17c2.3-1,1.68-1.2,7.8-5.06,4-2.49,5.15-3,5.06-3.79-.23-2.1-8.8-1.2-10.12-4.85-.9-2.49,2-5.77,2.53-6.33,2-2.22,3.37-1.91,5.91-4a16.67,16.67,0,0,0,4.84-7c.8-2,3-7.66.43-11-3.75-4.78-15.33-1.89-16.24,1.68-.44,1.75,1.78,3.18,1.06,4.43-.83,1.43-4,0-9.28,1.06-2.67.52-4.78.93-5.69,2.53-1.84,3.21,2.54,8.89,3.16,9.69,3.47,4.5,7,5.18,6.75,7.17-.31,2.59-6.34,2.31-7.38,5.91-.81,2.78,2.2,5,.84,7.38-.51.89-1.47,1.36-3.37,2.31-2.53,1.27-3.27.9-4.43,1.9-1.54,1.33-1.17,2.79-2.11,4.43-1.27,2.21-3.91,2.94-8.43,3.79-9.85,1.87-11,1-15.81,2.32-6.74,1.86-6.06,4-11.6,5.06s-6.55-1.06-15.6-1.68c-10.74-.74-12.22,2.1-18.13-.21-5.29-2.07-6-5.1-10.54-5.49-4.91-.41-8.67,2.77-10.76,4.22-12,8.35-32.49,4.19-42.37.21-11.1-4.46-12.24-10.06-31.84-20a52.86,52.86,0,0,0-9.91-4c-8.48-2.43-14.59-1.76-22.56-1.48-7,.25-31,1.11-32-3.58-.7-3,8.63-6.7,7.59-11.39a3.42,3.42,0,0,0-2.11-2.53c-.72-.2-2.62-.3-7.59,6.12-3.91,5-4.7,7.64-6.11,9.48-3.08,4-9.31,4.76-30.36,2.32-13.4-1.55-24.2-2.79-40.48-6.53-9.23-2.12-11.07-2.94-18.56-4.22-20.56-3.52-27.66-.93-29.93,0-4.85,2-4.18,3.19-11.81,6.75-5.44,2.53-10.77,5-17.29,5.48-9,.63-10.61-3.26-20-3.8-8-.46-11.54,2.08-20.45,4.43s-16.82,2.32-32.89,2.32c-28.23,0-27.93-4.12-45.33-2.32-13.89,1.44-12.42,3.9-31.83,6.33-15.3,1.91-19.08.75-27.83,4.42-6.54,2.75-9.54,5.55-19,8.65a93.67,93.67,0,0,1-14.12,3.37c-10,1.75-18.5,3.22-28.46,1.69-14.37-2.22-14.88-8.08-24.67-7-3.59.41-9.76,1.91-13.49-1.48-1.35-1.22-2.09-2.8-3.8-3-2.18-.18-3.2,2.2-5.9,3.59s-5.45.86-9.07.21c-18.13-3.28-22-2.55-24.24-1.9-3.61,1.05-7.49,3.24-7.38,5.27s4.31,2.58,4.85,5.48c.4,2.2-1.57,4.25-2.74,5.48-3.5,3.66-7.82,4.72-12,5.7a36.92,36.92,0,0,1-14.55.84,88.22,88.22,0,0,1-10.12-2.53c-4.8-1.39-5.31-1.81-7-1.9-5.1-.28-8.33,3.24-11.59,5.27-11.26,7-22.75-3.83-41.32-.21a108.84,108.84,0,0,0-12.23,3.16c-5.7,1.92-5.8,2.61-8.65,3.17-5,1-14,.61-17.71-5.06-2.89-4.41-1.28-9.94,0-14.34a33.09,33.09,0,0,1,9.28-14.55c4.49-4.4,5.49-3.41,10.12-7.38,4.88-4.19,6-7.25,16.23-24,4-6.56,6-9.83,6.54-10.54,1.89-2.39,6.42-7.69,21.72-17.92,6.46-4.33,5.87-3.52,11-7,9.74-6.57,11.65-9.33,25.3-20.24,14.88-11.88,18.79-13.54,20.87-14.34,3.15-1.2,2.88-.73,16.45-4.84,12.67-3.85,15.21-5,17.07-7.81,1.63-2.49,3.43-7.37,4.43-11.59.64-2.69.83-4.6,2.53-5.9,2-1.53,5.41-1.78,7.38-.22,2.2,1.76,1.17,4.7,3.16,5.7,1.5.74,3.4-.26,5.27-1.27a24.45,24.45,0,0,0,7.17-6.11c5-5.88,6-7.23,7.8-9.28,4.2-4.7,6-5,10.12-8.85a53,53,0,0,0,11.39-15.6c3.66-7.49,7.9-16.17,4.84-24-3.4-8.77-13.2-9.63-13.49-17.71,0-.56-.11-4.69,2.53-6.75,1.56-1.21,3.42-1.2,8-.63,10.55,1.31,13.13,2.78,17.5,1.48,1.45-.43,5.14-1.53,5.69-4.22.6-2.89-3.25-5.8-4.21-6.53-7.61-5.78-21.65-5.62-26.36.84-2.06,2.83-1.58,5.85-4.85,8a10.6,10.6,0,0,1-6.74,1.48c-4.78-.46-6.12-3.68-12.86-6.33a22.35,22.35,0,0,0-4.85-1.47c-8.84-1.47-14,4.64-16.66,2.53-2.27-1.82-.38-7.87.64-10.34,1.24-3,2.41-3.7,6.95-9.48,4.37-5.57,6.56-8.4,6.54-10.76,0-4.5-4.24-7.78-7-9.9-1.24-1-6.92-5.41-9.91-3.59-2.19,1.33-1.58,5.2-3.16,5.48-1.11.2-2.2-1.55-3.37-3.16-.13-.17-2.69-2.85-7.8-8.22-3.34-3.5-7.63-8-13.29-9.49-1.89-.5-3.11-.44-13.7,1.69-12.71,2.55-19.13,3.86-22.56,5.48-5.47,2.58-6.25,4.2-10.33,4.85-6,1-10.67-1.57-13.91-2.95-6.7-2.86-15.22-2.75-32.26-2.53-5.8.07-19.41.53-32.47,1.47a35.16,35.16,0,0,1-11.6-.63c-4.81-1.15-5.83-2.6-14.12-6.11a116.14,116.14,0,0,0-12.23-4.43c-6.76-2-10.14-3-14.55-2.74a22.69,22.69,0,0,0-11.8,3.58c-3.87,2.64-3.55,4.56-6.75,6.33-3.59,2-6.67,1-13.7.21-13.05-1.55-12.85.45-20.24-1.27-4.92-1.14-8.69-3.15-16.24-7.17-11.6-6.18-17.41-9.27-21.92-15.39-.95-1.28-3.84-5.4-7-10.75-2.63-4.51-2.39-4.71-3.8-6.53a29.64,29.64,0,0,0-11.59-8.86c-5.13-2.34-5.51-.63-8.22-2.53-1-.72-2.42-2-8-13.7-1.74-3.67-2.67-5.79-5.06-7s-3.06,0-5.69-.63c-5.38-1.27-5.3-6.63-12.44-11a24.48,24.48,0,0,0-6.53-2.74c-6.12-1.54-8,.64-11.39-1-2.91-1.44-2.75-3.59-7.17-10.12a82.72,82.72,0,0,0-6.32-8c-8.89-9.9-17.21-6.67-22.35-13.71-2.59-3.55-.72-4.71-1.26-24.87-.37-13.51-.61-20.36-3.38-25.3-3.17-5.67-6.31-6.56-8.64-13.5-.75-2.23-3.41-10.12.21-14.12,2.12-2.34,4.59-1.37,6.33-4s1.44-7.33-.85-9.27c-1.83-1.56-3.59-.31-6.74-1.69a12.61,12.61,0,0,1-5.49-5.27c-4-6.32-1.11-11.72-2.53-20.24-1.06-6.41-3-5-9.06-18.56-5.2-11.55-3.77-12.48-8.22-20.66-2.08-3.81-5.33-8-11.81-16.44-5.79-7.52-8-9.74-11.6-11.18A25.31,25.31,0,0,0,2088,622.4c-4.51,0-8.37.05-12.22,2.32-2.5,1.47-4.1,3.36-8,4.43-1.73.47-2.73.72-3.58.21-2.67-1.64-2.06-9.93,2.32-15,.87-1,3.43-3.95,7.17-4.22,1.51-.11,2.05.31,9.7,3.8,6.53,3,4.06,1.73,7.59,3.37,4.07,1.89,5.42,2.66,5.69,2.32.49-.64-4.21-3.43-7.38-9.49-2.29-4.37-1.43-5.95-3.8-8.64-.52-.6-2.67-2.93-8.43-4.43-4.9-1.28-8.68-1-16.23-.21-12.58,1.3-18.91,2-20.88,3-4.23,2.12-5.14,4-13.49,8.43-4.55,2.43-6.9,3.28-9.28,2.53-3.27-1-3.44-4.12-6.53-5.69-3.9-2-9.22-.24-12.44,2.11-4.43,3.24-3.14,6.57-7.17,9.28-5.36,3.6-13.72,1.78-14.12-.22s7.76-4,7.38-6.11c-.43-2.33-11.42-4.26-20.24.42-2.83,1.5-2.25,2-6.54,4.85-1.68,1.12-5.44,3.49-16.87,7.8-7.09,2.68-10.64,4-13.07,4.43-6.78,1.15-12,.05-18.13-1.27-7.06-1.5-18.27-3.88-28.46-12.22-4.93-4-5.22-5.86-9.07-7.17-6.71-2.29-9.75,1.92-19.82,2.11-3.66.06-12.52.23-19.81-5.06-6.26-4.54-8.7-11.17-12-10.33-2.07.52-1.91,3.29-4.43,4.21-3,1.09-5.41-2-10.12-4.21-9-4.29-13.65.58-18.13-3.59-4.08-3.79-1.36-8.87-6.11-12.23-1.56-1.09-3.78-1.5-8.23-2.32a53.71,53.71,0,0,0-9.69-1.05c-10.59-.06-12.39,4.05-17.08,2.11-4.46-1.85-3.27-5.75-9.07-8.86a18.93,18.93,0,0,0-11-1.89c-2.89.3-7.1.75-9.49,3.79-3.16,4-.44,9.24-2.53,10.33-2.77,1.46-9.76-6.64-10.75-7.8-7-8.26-6.28-12.71-11.38-15.39-3.94-2.07-4.79.37-13.5-.63-9.57-1.11-10.28-4.26-20.45-5.48-7.25-.88-8.37.55-11-1.27-5.26-3.68-2.24-10.66-7.59-16-2.17-2.18-4.18-2.53-13.49-4.64-9.13-2.06-17.94-4.15-20.67-4.85-10.79-2.76-18.3-7.32-24.66-11.17-23.21-14.07-21.86-26.26-43.43-39.85-6-3.75-11.21-8.55-17.08-12.44-3.62-2.4-8.2-5.28-11-11-1-2.09-2.72-5.59-1.27-8,2.17-3.63,9.06-1,11.81-4.64,2.1-2.82.32-7.45-.63-9.91-2.16-5.56-5.2-7.58-16.87-17.71-8.25-7.15-10.46-9.38-15.39-11-3.5-1.13-9.89-2.41-11.39,0-.48.78-.5,2,1.69,6.11,3.47,6.47,7,9.87,11.6,15.6,1.75,2.19,3.27,4.34,6.32,8.65,7.34,10.36,8.14,12.71,7.38,14.75a6.87,6.87,0,0,1-6.33,4c-2.83-.1-3.62-2.5-7-4.43-1-.59-3.82-2-12.86-1.47a56.5,56.5,0,0,0-15,2.32c-10.43,3-17.29.92-44.28.21-17.89-.48-26.84-.71-38.37.21-19.53,1.56-24.65,4.34-38.58,2.32-7-1-13.41-2.83-22.77-5.48-13.47-3.82-17.26-5.94-19-7a50.13,50.13,0,0,1-15.61-14.55c-5.56-8.29-7.13-16.6-8.22-22.35-1.67-8.84-.75-12.68-4-21.08a23.69,23.69,0,0,0-7-10.33c-1.6-1.3-5.66-4.62-10.12-3.59-.8.19-3.6,1-4.43,3.17s.87,4,2.53,7.38a39.92,39.92,0,0,1,3.59,14.54c.22,5.32-1.27,6.08-1.9,11.39-.72,6,.65,7.26,2.53,20.45,2,14,1.19,17.87-.85,20.87s-5.29,5.23-6.11,4.64,1-3.45,2.53-8.64c1.57-5.52,3.39-11.92.42-16.45-1.83-2.79-4.85-3.93-8.43-5.27-3.41-1.28-6.07-2.28-8.64-1.48-4.93,1.54-4.1,8-8.65,13.29-6.47,7.53-21.12,9.53-26.77,4.21-2.8-2.62-1.29-5.05-5.49-20.66-2-7.54-3-9.16-4.63-10.33-4-2.77-7.26.37-15.82-1.26-4.84-.93-4.05-2-12.22-4.22-5.88-1.61-8.93-2.41-12.87-1.69-1.89.35-1.18.53-8.43,2.95-5.67,1.9-7.27,2.18-9.06,2.11-3-.1-2.88-1-7-1.89-6.88-1.5-9.57.54-12.86-1.9-2.14-1.58-1.35-2.7-3.16-4-4-2.91-8.36,2.26-18.77,2.95-12.6.85-17.5-.21-17.5-.21-.91-.19-3.13-.71-4.21.42-1.77,1.85,1.47,5.94,0,7.8-1.28,1.62-5,.13-13.5-2.31-11.32-3.25-14.31-3.35-15.81-6.33-1.25-2.48.35-3.39-.21-8.64-.17-1.59-.94-8.83-5.48-12.86-2.89-2.57-5.64-2.37-12.86-3.38-8.59-1.2-14.74-2.05-20.24-4.42-8.86-3.83-6.36-7.4-18.77-15-7.88-4.81-11.82-7.22-17.28-8-4.19-.62-8-.26-9.49-2.75-1.94-3.11,1.49-7.69,0-8.85-1.72-1.33-6.12,4.78-10.75,3.79-4.11-.87-7.24-7.07-6.75-12.43.62-6.86,7-10.56,8.43-11.39,6.5-3.77,13.2-2.6,19.4-1.9,11.47,1.31.36-1.35,34.58,0,28.51,1.13,28.9,2.69,43,1.9,13.91-.78,22.36-2.78,30.15-6.32a90.81,90.81,0,0,0,13.71-8c8.27-5.57,12.44-8.38,15.81-13.91,1.57-2.58,6.13-10.07,3.58-17.5-1.25-3.67-3.8-6-5.69-7.8-4.24-3.95-6.93-3.87-11.8-7.38-4.08-2.94-4.8-4.88-8.23-8.43-10-10.36-23.12-13.86-28.88-15.39-2-.53-6.09-1.2-14.34-2.53-10.76-1.75-16.14-2.62-20.66-2.95a106,106,0,0,0-31.62,2.74c-9,2.05-14,4.37-23.41,4a70.57,70.57,0,0,1-10.33-1.26c-8.84-1.68-12-3.79-18.34-5.7-7.49-2.24-14.06-2.26-27.2-2.31-8.86,0-11.57.49-20,.84-12.48.51-27.88,1.13-45.75-1.48-5.66-.82-27.67-4.32-30.15,1.27A4.76,4.76,0,0,1,807,218c-2.3,1.5-6.1.13-8.43-1.48a14.94,14.94,0,0,1-2.32-2.11c-3.67-3.37-10.67.55-17.29,1.27-11.26,1.23-12.4-7.78-27.41-8A43.83,43.83,0,0,0,737.25,210c-4.63,1.55-6.94,2.32-8.65,4.21-5.22,5.8,1,13.29-3.16,21.72-1.52,3-6.09,5.86-15.18,11.38-7.9,4.8-14.11,8.09-18.76,10.54C676.11,266,668.41,270.05,666,271.16c-12.64,5.75-14.58,5.24-26.14,11-10.32,5.11-15.49,7.67-19,11.81-2.44,2.89-2.78,4.39-10.33,25.08-4.58,12.53-5.78,15.62-9.49,18.56-1,.8-7.45,5.75-15.39,4.85-6.81-.78-8.61-5.15-14.34-4.85-4.58.24-7.79,3.26-11.17,6.53-8.48,8.21-7.45,14.25-16.66,28a60,60,0,0,1-8.85,11.18,56.82,56.82,0,0,1-22.35,12.86c-8.81,2.7-20.32,6.24-30.15.84-12.12-6.66-15.81-14.76-15.81-14.76-.7-1.53-1.66-4.1-3.8-4.63s-4.17,1.11-8.64,5.48c-8.49,8.29-9.17,10.52-13.7,13.07-3.83,2.15-9.22,3.87-11.18,1.9-1.1-1.11-.33-2.59-1.47-3.59-1.74-1.52-5.2.41-10.12,2.11-7,2.4-6.39.71-14.13,3.16-6.84,2.17-8.89,4-12.44,2.95-2.78-.81-2.52-2.23-5.48-3.16-4.1-1.29-6.57.82-12,1.48-4.94.6-6-.77-11.38-1.06a35.52,35.52,0,0,0-18.34,3.8c-1.48.79-14.32,7.89-15.18,19-.5,6.34,3.11,11.53.21,14.34-1.79,1.72-4,.6-5.7,2.74-2.22,2.82-.54,7.56-.21,8.43,1.13,3,2.54,3.23,3.59,5.27,2.17,4.24-1.15,8.42-4.22,17.29-4.08,11.82-1.59,14.25-5.27,17.5-4.46,3.94-11.35,3.21-17.71,2.53-6.94-.74-7.81-3.77-13.91-3.79-3.78,0-4.9,1-12.23,2.74-6.42,1.55-10,1.87-13.71,2.53-13.6,2.38-25.8,8.47-29.93,10.54a125.45,125.45,0,0,0-27,18.13c-5,4.51-6.45,6.58-14.76,13.91-11.09,9.79-14.7,11.49-17.29,12.44-.89.33-16.13,5.77-21.29-.84-4.29-5.48,1-15.91,1.26-16.44,1.88-3.61,3.26-3.76,9.49-11.81,3.37-4.35,5.06-6.56,5.69-8.43,1.9-5.63.93-13.3-3.79-17.71-1-.9-3.32-2.83-11.81-4a75.06,75.06,0,0,0-21.29.21,103.42,103.42,0,0,0-27.62,7.8,113.81,113.81,0,0,0-18.55,11c-5.81,4-9.1,6.93-19.19,13.92-4.34,3-6.51,4.51-7.17,4.85-12.74,6.55-27.16,2.11-35.42-.42C9.64,522,3.13,520,.82,513.82c-2.41-6.48.8-14.73,5.9-18.76,1-.75,4.64-3.68,7.8-2.53,2.89,1.05,2.3,4.42,5.06,7,5.37,4.93,18.94,2.56,22.56-4,1.63-3,.89-6.16,2.32-6.54,1.86-.49,3.17,5,6.74,6.33,5.4,2,11.34-7.12,20.88-13.92,10.81-7.7,12.88-2.87,35.42-12,12.31-5,20-8.13,29.72-14.55,7.15-4.73,15.61-11.4,18.13-9.28,1.52,1.28-.71,4.39,1.27,7.38,2.62,4,9.85,3.51,12,3.37,3.37-.21,6-1.13,10.54-2.74,5.52-1.94,5.43-2.62,7.59-2.74,5.68-.31,10.39,4.15,11.8,5.48,5,4.72,4.78,8.74,7.81,9.07,2.63.29,3.16-2.72,9.06-4.64,1.95-.63,2.3-.44,5.9-1.47s5.5-1.58,6.33-2.32c4.15-3.7,1.23-15.3-1.69-15.6s-5.4,10.65-8.22,10.12c-1.31-.25-1.9-2.83-2.32-4.64-1.2-5.23.84-6.83-.21-9.7-1.73-4.74-8.41-3.48-10.12-8-1.49-4,3-6.51,1.48-10.12-2.09-4.88-12.59-5.54-15-5.69-4.56-.29-5.25.58-6.75-.43-3.58-2.4-1.5-8.57-3.16-19-1.06-6.62-2.29-6.55-3.16-11.6-1.76-10.11,1.78-18.48,8.64-34.15,4.07-9.31,6.11-14,10.12-19.61,7.88-11.1,11.28-9.58,20.24-22.14,4.46-6.25,6-9.93,11.38-13.49,4.26-2.8,6.28-2.46,10.76-5.9A29.28,29.28,0,0,0,249,275.79c3.83-8.74-.86-13.08,3.17-17.71,3.52-4,11.33-5.56,16.23-3.16,1.93,1,2.34,2,3.79,1.9,3.42-.19,3.24-6,8.86-10.75,3.48-2.95,5.52-2.39,8.22-5.91,1.66-2.16,1.07-2.6,2.95-5.69,1.66-2.71,4.43-7.24,8.86-8.22,2.89-.64,3.49.9,6.53,0a13.16,13.16,0,0,0,6.12-4.43c2.64-3.15,2.66-5.54,4.21-5.69s2.17,2.59,4.64,3c1.85.27,3.5-1,5.48-2.53s2.31-2.34,4.22-4.22c3.59-3.52,4.79-2.88,9.07-6.74,3.05-2.76,2.82-3.43,4.21-3.8,4.32-1.15,8,4.89,10.54,3.59,1.79-.9.48-4,3-7.8a13.19,13.19,0,0,1,5.06-4.43c3.87-1.86,5.78,0,13.28-.42a43.08,43.08,0,0,0,9.91-1.69c3.18-.94,4.15-1.67,8.43-3.58,10-4.5,10.26-3,16.45-6.33,5.48-2.95,6.6-4.82,9.9-4.64a56.13,56.13,0,0,1,7.59,1.48,32.49,32.49,0,0,0,3.59.84c3.94.34,9.06-1.65,9.91-4.85.65-2.45-1.75-3.61-1.06-6.11.92-3.28,5.94-4.5,6.54-4.64,1.68-.39,2.66-.22,11.81,1.06,3.7.51,3.83.53,4.21.42,3.91-1.12,3.42-6.31,8.65-10.76,1.35-1.15,3.92-3.33,6.53-2.74,2.36.54,2.42,2.82,4.85,3.8,3,1.2,6.3-.8,9.91-3,3.45-2.06,8-4.79,8-8.44,0-2.39-2-3.25-1.47-5.48a5,5,0,0,1,4.63-3.79c2.21.11,2.74,2.61,5.7,5.27s6.85,4.26,9.48,4.21c5.31-.08,8-7.2,12.86-14.12,10.66-15.21,25.18-20.14,44.07-26.57,2.27-.77,6.34-2,10.12-.21,3.56,1.73,6.46,6,5.9,9.7-.27,1.79-1.11,1.74-1.9,4.22-.37,1.17-1.93,6.1.85,9.28,1.76,2,5.33,3.38,7.38,2.1,1.32-.82,1.63-2.51,2.31-15.81.21-4.07.2-4.2.43-4.64,2.71-5.2,12.2-1.14,26.35-5.69,5.35-1.72,6.74-3.18,12.23-4,6.51-1,13.3-.23,13.7,1.69.45,2.12-7.22,4.15-7,7.8.1,1.44,1.4,2.5,4,4.64,2.27,1.86,3.64,3,5.48,3.37,3.35.71,6.25-1.43,10.75-4.85,2.13-1.61,9.36-7.1,8.23-9.48-.86-1.8-5.75-.37-6.54-2.32-.48-1.2.84-3,2.11-4,3.78-2.94,9.88-.59,13.7.42,19.88,5.27,40.56-8.07,46.18-2.1.42.44,1.86,2,1.47,3.37s-2.17,1.31-4,3.37c-.55.61-2,2.27-1.69,3.8.46,2.13,4.13,3.95,5.9,2.95,3-1.69-1.88-10,1.69-14.13,2.79-3.2,7.77-.44,17.71-.42,6.67,0,6.18-1.23,28.46-6.11,10.51-2.31,12.08-2.35,19-4.22,11.71-3.17,16-5.44,18.55-7,2.15-1.28,5.25-3.89,11.38-9.06C842.88,55.49,844,54,848.56,51.47c5.39-2.94,9.47-5.16,15-4.85,6.32.36,10.85,3.86,12.44,2.11C877.31,47.26,874.44,44.41,875.34,41.77Z"/><path d="M1118.22,404c-4.19.16-9.11,7.23-9.07,13.91,0,3.27,3.81,8.41,11.38,18.56,3.29,4.4,5.23,6.75,8.65,8.64,1,.57,7.59,4.19,11.17,1.48.26-.2,1.81-1.42,1.69-2.95-.16-2-3-2.69-8.43-5.7-4.16-2.31-6.61-3.71-8.86-6.32a18.31,18.31,0,0,1-4-7.59c-1-4.08-.29-8.09.21-11,.7-4,1.72-6.23.42-7.8A4.32,4.32,0,0,0,1118.22,404Z"/></g></g></svg>