<svg xmlns="http://www.w3.org/2000/svg" viewBox="0 0 2707.94 1633.52"><g id="Layer_2" data-name="Layer 2"><g id="Cyprus"><path d="M687.4,788.39c14.54-5.37,16.29-5.63,20.58-8.32.93-.59,4-3,10.12-7.84,8.8-6.94,8.9-7.31,13.55-10.78,7.12-5.3,7.64-5,10.78-8,3.6-3.43,4.27-5.12,8.65-10.45,6.82-8.27,7.51-7,10.45-11.26,6.35-9.22,6.64-20.3,6.86-28.25.13-5-.36-5.31-.17-12.24a164.06,164.06,0,0,1,1.47-17c1.78-14.06,2.67-21.09,3.76-25.64,2.85-11.86,4.78-11.35,8.65-25.3a196.34,196.34,0,0,0,4.74-23.51c2.22-14,3.34-20.92,3.26-29.23,0-4.54-1.71-14.4-5.06-34.12-2.33-13.76-3.18-17.6-5.06-22.7-4.26-11.53-6.82-10.58-9.31-18.77-3.35-11.06,1.11-13.48,1.15-35.6,0-12.83-1.48-20.88,1.79-22.2,1.61-.65,2.75,1,7.67,3.59,9.56,5,12.84,2.85,19.11,7.18,5,3.48,2.92,4.89,9.14,10.29,2.24,1.94,3.32,2.46,16,9.47,9.73,5.38,10.29,5.73,12.25,6.53,5.8,2.37,9.61,2.82,16.16,4.08,0,0,9.8,1.89,25.63,6.37a185.58,185.58,0,0,1,23.84,8.16c19.5,8.37,24.32,15.3,34.13,13.23,3.87-.82,2.69-1.81,11.1-5.72,6.91-3.21,10.11-3.66,28.24-8.49,16.49-4.39,17.36-4.95,21.23-4.9,7.11.11,11.08,2.12,20.9,5.88,0,0,17.47,6.7,37.55,12.08,14.47,3.88,21.71,5.82,30.21,5.23,10.27-.72,11.86-3.55,24.32-4.41a79.48,79.48,0,0,1,25.31,2c11.27,2.81,11.8,5.86,25.63,10.45a129.4,129.4,0,0,0,24.17,5.39c14.3,1.95,19.45.47,32.65,3.75,6.37,1.58,5.37,2,12.41,3.92,15.74,4.35,22.66,2.92,42.29,5.55,14.68,2,12.18,3,24.65,4.41,6.55.77,17.54,1.7,35.76.82,15.3-.74,24.21-2.2,43.92-4.9,15.27-2.09,34.63-4.74,54.69-6.86,32.21-3.4,48.31-5.1,59.93-5.22,24.83-.27,35.18,2.14,45.06-6,5.63-4.67,9.82-11.7,19.43-13.56,3.29-.63,4.17-.07,14.37.66,11.7.84,17.63,1.26,23.51.65s6.3-1.71,24.32-8.49c10.73-4,18.43-6.93,28.25-10,15.13-4.66,18.44-4.43,24.82-8.49,2.25-1.43,4.49-3.24,14.86-15.35,17.7-20.67,17-22.35,22.85-26,7.35-4.51,7-1,26.13-8.65a186.62,186.62,0,0,0,19.75-9c9.54-5.07,9.16-6,13.06-7,7.65-1.94,14.4.4,25.47,4.24,6.82,2.37,14,3.68,20.74,6.21,1.78.66,4.82,1.84,6.37.49,2.5-2.19-2-8.35.32-10.94,3.2-3.64,14.52,5.55,22.37.82,3.1-1.87,2.07-3.75,5.55-5.88,5.26-3.22,10-.39,18-1,3.58-.26,4.35-.95,14.7-4.74,14.54-5.31,14.6-4.53,30.53-10.28,11.31-4.08,9.92-4,18.45-7,18.1-6.45,24.32-6.87,44.41-13.39,9.43-3.06,16.42-5.69,20.41-7.19,31.69-11.93,36.75-17.77,65-28.24,13.9-5.16,15.89-4.94,25-9.31,10.6-5.09,22-10.57,31.51-22,5.43-6.54,4.77-8.42,9.31-11.59,7.54-5.27,12.64-2.37,27.59-5.72,6.4-1.43,14.25-3.26,22.7-8.81a51.41,51.41,0,0,0,15.83-16.17c2.72-4.56,1.81-4.85,4.74-10.94,3.88-8.07,6.39-9.48,21.39-29.22,1.66-2.19,3.16-4.19,5.55-7.19,6.57-8.23,9.91-12.38,12.9-13.87,5.38-2.69,9.75-.44,18.45,1,11,1.77,19.23.66,30.2-.82,21-2.84,20.15-11,40.82-15,19.18-3.74,24,2.49,37.23-3.59,6.24-2.87,7-5.11,22-20.74,32.78-34.13,33.22-27.82,40-39.67,2.73-4.78,10.71-19.9,19.43-21.07a20.32,20.32,0,0,0,7-2c4.16-2,4.84-4.29,7.35-6,4.78-3.32,9.52-.17,22.85,1.15,8.15.8,12.23,1.21,16.82,0,8.17-2.16,11.64-7.3,18.78-13.55a102.89,102.89,0,0,1,26.12-16c25.12-10.1,38.57,7.3,55.84-3.75,8-5.13,5.28-9,20.57-22.21,11.62-10,18.82-12.69,21.39-13.55,8.11-2.69,8.79-.5,19.43-3.26,9.65-2.51,17-4.42,23.67-10.45,5.28-4.79,7.38-9.68,14.37-11.76,1.65-.49,5.2-1.54,7,.17,2.12,2-.13,5.81-1.47,14.53-1.48,9.64.44,10.4-1.47,17.79-1.27,4.94-2.23,5-4.73,12.41-2.37,7-2.78,10.68-3.59,13.55C2692,72.51,2676.34,80,2668.87,83.55c-14,6.67-17.5,3.33-34,8.65-8.61,2.79-18.16,8.59-36.9,20.09-17.73,10.87-18.16,12.11-43.27,28.08-18.11,11.52-18.82,11.47-23.67,15.51-7.37,6.14-20.64,17.44-27.27,35.76-3.64,10-.83,9.91-3.92,18.45-6.76,18.7-23.72,29-47,42.77-13.2,7.8-13.43,6.37-26.94,14.7-13,8-23.05,14.21-33.47,24.49-17.63,17.38-14,24.47-27.6,32.49-10.57,6.24-13.49,2.38-34.61,10-14.87,5.34-13.63,7.32-29.55,13.71-21.61,8.67-27.39,6.42-45.55,14.21-10.68,4.58-19.95,11.07-29.56,17.31-9.1,5.9-13.66,8.85-17.47,12.08-14.18,12-15.5,20.34-29.38,35.92-7.69,8.62-7.18,5.94-20.9,19.26-20.67,20.07-31,30.1-36.25,43.6-1.35,3.46-4.27,14.71-10.12,37.22-2.38,9.16-3.6,14.15-8.33,18.45-7.33,6.67-18.32,7.32-24.33,7.68-2.23.13-6-.13-13.38-.66-15.26-1.08-23-1.65-29.56-2.94-10.73-2.11-10.13-3.63-18.28-5.22-4-.78-23.93-4.67-39.19,4.08-3.22,1.85-5.91,4.08-22.53,33-13.21,23-13.87,25.68-23,40.66-10.28,16.83-10.91,15.81-13.55,22.36-2.08,5.14-9,22.27-5.39,42.46,1.5,8.38,3.56,10.29,4.73,20.89.83,7.47,1.57,14.85-1.63,22.86-1.69,4.24-2.83,4.51-3.43,8-1,6,1.67,9.23,2.94,17.31,1.12,7.13-.55,7.36.33,12.24,1.54,8.51,7.39,12,19.59,24.33,4.66,4.71,8.38,9,15.84,17.47,6.6,7.53,13.87,15.84,20.41,25.47,15,22.17,11.08,29.12,24.65,43.76,1.54,1.66,7.51,6.44,19.43,16,25.73,20.62,24.35,18.6,31.18,24.65a254.75,254.75,0,0,1,35.11,38.7c8.59,11.68,9.72,15.41,17.79,23.67,8.34,8.53,12.51,10,16.17,17.47,3.18,6.46,1.21,7.7,4.24,23.51,2.53,13.2,3.89,19.92,8.49,26.13,6,8,12.65,9.73,11.92,12.41-.92,3.4-13,5.38-24.32,2.12-19.84-5.71-20.46-22.62-42.78-30.21-3.48-1.18-8.15-1.82-17.47-3.1-20.73-2.84-23.82-.41-40.66-2.61-21-2.75-22.29-7.35-31.83-4.74-10.38,2.85-10.46,8.71-24,13.56-12.5,4.47-14.91.36-23.83,5.06-8.21,4.32-6,7.71-19.92,20.57-10,9.29-12.55,8.78-16.33,15.18-4.36,7.39-3.47,12.21-8.49,15.52-5.48,3.6-12.54,1.81-14.53,1.3-8.14-2.07-10.17-7.17-21.72-17-5.12-4.35-10.14-8.62-17.3-12.41-8.09-4.27-10-3.24-27.27-9-14.9-5-14.92-6.22-21.71-7.51-11-2.08-16.58.1-28.09,1.14-11,1-27-1.13-59.1-5.38-9.33-1.24-17-2.41-27.43-.49-8.35,1.53-14.24,4.26-20.08,7-11.8,5.56-25.07,11.82-34.45,24-6.09,7.89-8.14,17-12.25,35.27-6.44,28.61-9.66,42.91-4.57,59.92,3,10,6.89,14.49,5.88,24.16-1,9.88-6.4,17.22-11.59,24.33-8.87,12.13-13.24,11.6-20.9,23.67-6,9.4-4.56,11.68-8.82,14.53-6.85,4.59-12.89.31-31.67-.32-13.54-.46-20.31-.69-25.8,3.43-9.14,6.84-2.73,16.34-10.45,28.24-10,15.47-26.38,7.92-53.06,28.25-4.55,3.46-7.35,6.18-13.56,9.63-4.91,2.74-13.73,6.93-29.38,9.47-24.8,4-26-2.69-37.39,2.29-13.24,5.77-11.72,14.84-28.74,23.51-9.55,4.86-10,2-21.39,6.85-20,8.53-18.85,17.46-37.22,24.33-9.4,3.52-15.89,5.94-25.15,6.37-6.9.32-15.35-.48-18,4.08-1.3,2.28,0,3.93-1.63,5.88-.53.64-2.79,3-14.2,1.3-6.22-.93-8-2-13.72-3.26-5.08-1.12-10.42-2.29-16.33-1.8-12.42,1-20.89,8.88-22.37,10.29-7.55,7.21-4.44,10.62-10.93,17.14-9.16,9.19-24.85,12-36.41,8.82-5.07-1.38-6-3-13.23-4.73a65.4,65.4,0,0,0-18.77-1.64c-32.08,1.25-33.7,3.17-44.41,2.12-15.6-1.52-13.85-5.75-30.7-7.18-10.37-.88-23-2-34.45,4.9-8.83,5.29-6.65,9.13-18,18.12-6.27,5-9.36,5.73-27.1,14.53-13,6.45-19.48,9.67-25.8,13.39-18.22,10.75-27.33,16.12-33.14,26.29-6.89,12-9.87,30.5-4.25,44.57,1.51,3.77,4,8.2,5.23,15.84,1.54,9.81-1.26,11,0,18.12.65,3.72,1.85,5.87,17.14,27.27,5.68,8,9,12.58,7.35,15.51-.44.76-1.3,1.54-6.7,2.61-8.28,1.65-12.78,2.54-18,1.14-6.08-1.64-5.19-4.31-13.06-8.32-2.57-1.31-10.21-5.1-19.1-4.57s-8.5,4.75-18,6.36c-9.28,1.59-9.32-2.54-27.11-3.59-6.49-.38-11-.1-12.57-2.94-1.11-2-.46-4.71.82-10.12.89-3.77,1.76-5.27,1.47-8.33-.17-1.78-.49-1.52-1-4.73-.55-3.58-.26-4.56-1.14-6.53-.6-1.33-.91-1.28-2-3.27a26.29,26.29,0,0,1-1.8-4.24c-1.16-3.44-9.66-23.29-19.92-41.8-9.61-17.34-14.42-26-22.2-32.17-3.54-2.79-7-4.8-14.37-10.93-9.22-7.66-10-9.67-14.7-12.09-6-3.11-11.54-3.15-22.36-3.1-16.22.07-14.9,3-30,2.94-1.27,0-14.58-.09-22.53,2a41.15,41.15,0,0,0-7.18,2.61c-2.27,1.13-3.07,1.86-5.55,3.27a67.93,67.93,0,0,1-7.68,3.59c-9.26,3.66-23.66-4.46-35.59,0-9.52,3.56-6.4,11-20.41,19.1a55.37,55.37,0,0,1-19.1,6.53,58.64,58.64,0,0,1-19.92-.16,57.42,57.42,0,0,1-19.59-7.84c-4.37-2.62-5.4-2.71-60.09-20.57-46.7-15.25-51.07-16.86-57.14-23.35s-9.51-13.17-21.06-22.69c-6.17-5.08-13.11-10.7-23.68-14.21-10.24-3.4-20-3.52-26-3.59-8.76-.11-12.87,1-21.55-.49-5.8-1-8.68-2.21-13.71-3.75-21.07-6.48-26.88-1.9-44.58-8.49-9.28-3.46-13.91-5.19-17.14-10.13-4.86-7.43-1.76-14.74-7.84-20.9-.81-.82-1.91-1.74-11.43-5.22-18.41-6.73-23.31-6.56-26.77-11.76-3-4.44-1-7-4.41-10-5.17-4.45-11.86-.41-15.51-4.08-3.38-3.38-.63-9.81.49-17,2-12.64-3.11-15.14-6.7-35.26-4.14-23.23,1.57-25.79-3.92-43.6a90.78,90.78,0,0,0-11.1-23.18c-8.63-13.41-18.29-21.51-26.45-28.25-10.46-8.63-17.77-7.23-21.22-14.86-2.76-6.08.13-8.86-3.11-17.14-2.6-6.66-5.66-7.9-10.93-15.67a81.59,81.59,0,0,1-9.31-19.11c-4.54-14.52.86-18.92-2.12-34.94-2.37-12.7-6-11.16-9.15-24.16-4.57-18.88,3.06-22.27-.32-40.66-3.21-17.42-13.16-31.19-17.64-37.38-5.8-8-8.3-9.17-13.39-17.47A100.22,100.22,0,0,1,4.28,958.85c-2.61-9.68-3.19-26.29-4.25-59.1a183.75,183.75,0,0,1,.65-18.62c.89-10.81,1.33-16.21,3.43-18,7.37-6.12,29.37,8.88,45.56,19.92,14.56,9.93,29,19.78,45.87,36.41,11.32,11.15,12.61,14.4,19.6,17,8.67,3.21,13.75.83,43.75-1.63,16.59-1.36,15.65-.68,20.09-1.63,8.69-1.87,17.26-5.54,37.39-20.74,24.75-18.69,37.28-28.36,44.73-43.76,5.47-11.3,1.18-9.56,7.19-23.83,12-28.43,28.9-35.11,37.87-60.58a91,91,0,0,1,5.72-13.22c5.25-9.91,8.76-16.51,15.84-19.92,9.15-4.41,20-1.43,24.65-.17,7.07,1.94,8.27,4.12,13.23,3.76s6.25-2.75,16.32-8.33c6.79-3.75,10.59-5.85,15.84-7.18,7.27-1.84,10.44-.45,18.45-.82,9.49-.43,16.87-3.27,23.35-5.39,13.14-4.29,12.91-6.37,18.12-6.2,7,.23,8.19,4,22.86,11.1,9.42,4.54,14.24,6.8,19.26,6,8.43-1.26,9.73-8,16.82-9.47,8.82-1.84,15.65,6.73,25.64,14.37,13.66,10.46,28.26,14.32,57.47,22C611.38,774,625.81,777,641,782c7.37,2.43,11.06,3.65,13.72,4.73,10.18,4.13,12.07,6.32,17.31,6.53C674.62,793.4,675.18,792.91,687.4,788.39Z"/></g></g></svg>