<svg xmlns="http://www.w3.org/2000/svg" viewBox="0 0 2330.73 1335.96"><g id="Layer_2" data-name="Layer 2"><g id="Czech_Republic" data-name="Czech Republic"><path d="M1471,299.36c5.27-5.14,4.85-5.25,6.8-6.66,3.88-2.8,6.87-3.32,6.81-4.88,0-1.2-1.85-1.33-3.41-4-.52-.89-1.48-2.55-.88-3.7.67-1.31,2.58-.48,4.14-1.63,2.48-1.83-.06-5.63,2.36-10.5a12.57,12.57,0,0,1,5.48-5.62c2-1,2.93-.58,3.69-1.48.5-.58,2-2.89-3.1-11.23-4.24-7-7.27-8.69-12.87-15.09-8.73-10-10.41-16.18-17.15-19.22-2.17-1-5.56-2.51-9.32-1.63-1.77.41-2.37,1.06-4.29,1.18-2.43.15-3.45-.77-7.1-2.07a25.22,25.22,0,0,0-9.31-1.92c-2.17.05-4.42.1-6.07,1.63s-1.32,2.94-2.22,6.35c-.82,3.14-1.79,6.81-4.28,9.32s-6.94,4.22-10.65,3.11c-3.38-1-3.07-3.42-8-7.84a30.1,30.1,0,0,0-12.27-6.8c-2.75-.72-5.39-1.4-8.58-.59-6.65,1.68-9.82,8.35-10.06,8.87-2.56,5.6.13,8.37-3.25,13.6-.62,1-2.83,4.37-5.62,4.29-1.53,0-2-1.09-3.25-.88-2.44.38-2.28,4.54-4.74,5.76-3.24,1.61-10-2.4-10-6.06,0-3.14,4.89-3.26,6.65-7.84,1.15-3-.3-4.64-4-15.67-3-8.84-2.92-10.46-5.32-13.17-1.35-1.52-4.32-4.87-8.73-5.47-6.14-.83-8,4.66-17.75,6.95-3.22.76-7.78,1.83-12.27-.29-3.78-1.79-5.59-4.93-7.69-8.58a53.21,53.21,0,0,1-6.21-19.23c-.43-4.6,0-8-2.66-10.5a7.64,7.64,0,0,0-5.18-2.07c-2.92.13-3.22,2.34-7,3.85-3.51,1.42-4.74.06-9.17,1.33-3.3.94-4.51,2.23-6.36,3.1-6.64,3.15-15.61-1.81-25.44-7.39-11.22-6.38-9.74-7.86-16.86-10.65-3.1-1.21-2.34-.52-20.7-4.29-16.17-3.31-6.92-1.83-17.3-4-4.81-1-7.12-1.38-10.21-3.1-3.52-2-4-3.38-8.13-5.62-3.51-1.89-6.59-3.54-9.47-2.52-1,.38-2,1.07-5.32,6.51-4.5,7.29-4.74,9.07-6.8,9.91-2.86,1.15-7.58-.18-9.76-3.26-4.78-6.73,6-17.06.74-26.62a51.42,51.42,0,0,0-4.14-4.88,144.69,144.69,0,0,0-11.39-11.38C1100,94.69,1100,97.15,1097.57,93.35c-4-6.37-7.2-18.21-2.51-26,1.57-2.62,4.2-5.09,3.85-8.87-.22-2.32-1.29-2.34-2.67-6.36-1.71-5-.77-7.13-2.81-8.88-1.66-1.42-2.67-.34-4.73-1.62-3.92-2.45-2.18-7.59-5.47-9.47-2.79-1.59-6.88.47-9.47,1.78a20.37,20.37,0,0,0-6.35,5s-5.92-1.63-6.07-10.95c-.09-5.63-.93-8-2.21-8.38-.64-.17-1,.46-3,1.58-2.92,1.65-3.64,1.15-4.74,2.07-2.57,2.17.07,6.09-2.21,9-1.9,2.43-6.42,3.19-9.17,1.63-3.51-2-1.68-6.32-5-9-3.86-3.11-7.91,1.32-15.23-.89-6.5-2-7.73-6.78-12.13-6.06-1.85.3-1.85,1.18-6.66,4.88-6.4,4.91-8.07,4.64-9.31,7.24-2,4.11-.36,10.18,2.36,11.09,3,1,5.81-4.55,8.88-3.55,2.83.93,3.33,6.65,3.55,9.17.32,3.79,1.24,12.07-3.7,18.79-2.25,3.06-4.61,4.3-4.59,7.24,0,2.26,1.42,3.06,2.22,6.07s.23,5.08-.29,8.28c-1.91,11.6.57,13.55-1.93,16.56-3.74,4.53-12.05,3.42-13.31,3.25-8.6-1.14-11.56-7.42-18-5.91-1.66.38-3.36,1.23-6.06.89S957,100.34,955,99.56c-4.36-1.7-10.11,0-13.31,2.66-2,1.65-2.27,3.1-5.91,14.49-3,9.45-3.76,11.4-5.77,12.43-2.35,1.19-5.31-.09-11.09-2.37-5.37-2.11-8.26-4.3-10.65-3-1.61.91-1.76,2.72-2.81,2.67-1.47-.08-1.5-3.64-3.85-6.22-1.91-2.1-3.87-1.89-8-3.1-8.26-2.43-7.93-5.48-17-8.43-5.34-1.74-6.57-1-7.39-2.52-1.73-3.06,2.65-7.78,9.17-21.88a19.79,19.79,0,0,0,1.92-7.69c0-1.31.25-7.24-2.37-8.43-2.78-1.27-5.41,4.37-12.42,6.21-5.52,1.44-12.78.28-14.2-3.11s3.94-5.88,7.69-15.23c1.56-3.9,4.46-11.13,1.63-18.34-.34-.87-3.11-7.92-8.87-9.31-3.74-.91-5.95,1.25-8.88-.15-3.18-1.52-1.4-6.07-4.58-8.14-2.63-1.71-4.89.33-6.66-1.33-2.58-2.42,1-7.89-1.77-10.64-1.14-1.12-3.14-1.6-4.14-.89-2.08,1.46,1.09,7.27-.89,8.72-.72.53-1.63.14-7.54-2.07-5.13-1.91-5.72-2.09-6.66-1.92-3.33.6-3.14,4.18-6.5,5.77-4.59,2.16-11.31-1.5-14.65-4.14-4.3-3.41-4.72-6.5-8.13-6.95-3.18-.43-4.06,2.1-7.1,1.77-5.06-.54-5.57-7.89-9.91-8.43-4.13-.52-9.46,5.45-10.64,11.24-.86,4.2,1,5.92-.15,10.06-1.27,4.76-5.12,4.39-6.36,8.57-1.42,4.81,1.4,11,4.58,11.69,1.17.26,1.46-.41,6.51-1.92,4-1.2,4.85-1.09,5.47-.89,2.4.75,4.44,3.66,3.85,5.62-.8,2.62-5.77,1.75-6.66,4.14-1,2.63,3.51,7.88,9,10.5,5.73,2.72,9.52,1.17,17.75,4.88,1.65.74,3.58,1.74,4.29,3.7s-.5,3.41-1.33,6.8c-1.54,6.27,1,8.69-.89,10.5-2.37,2.31-6.56-1.55-11.53.89-3.11,1.52-2.38,3.46-5.62,5.47-4.69,2.9-10.68,1.59-13.91.89-6.85-1.5-8.33-4.31-12-3.26-2.49.72-3.91,2.66-6.66,6.51-4.07,5.69-3.77,7.81-6.06,10.94-3.28,4.48-6.13,3.24-17.45,8.58-10.08,4.75-11.21,7.33-18.93,9.46-5,1.4-8.93-1.06-11.69,1.63-2.3,2.25-1.07,4.66-3.4,7.25-3.78,4.22-11.54,2.89-12,2.81-8-1.47-9.28-8-15.52-7.84-3.18.08-5.45,1.83-8.43,4.14-7.54,5.83-7,11.82-12.13,13-3.92.93-5.29-2.39-9.17-1.18-4.33,1.35-7.71,7.07-7.39,12,.24,3.8,2.52,4.51,2.36,8.58,0,.27-.31,6-3.7,7.54s-6.83-2.13-8.57-.59c-1.57,1.38.88,4.72-.89,7-1.46,1.84-4.73,1.57-7.69,1.33-3.82-.31-5.8-1.22-8.43-1.92-10-2.66-12.93,2.14-22.92-.3a9.9,9.9,0,0,0-5.62-.29c-2.94.88-3.29,3-6.36,4.58a12.67,12.67,0,0,1-7.84,1c-5.29-1-5.26-5.22-9.32-5.77-2.19-.3-5.93,2.11-13.31,7-4.28,2.81-4.46,3.16-5.76,3.4-4.18.79-5.93-2.08-12.13-2.37a15.15,15.15,0,0,0-6.95,1c-1.39.59-5.07,2.14-6.06,5.47-.68,2.26.18,4.32,1.77,8.14,1.93,4.62,3.17,4.88,3,6.65-.44,3.61-5.67,3.31-7.54,7.84-1.41,3.41,1,4.84-.45,10.2a10.57,10.57,0,0,1-3.25,5.77c-2.5,2-4,.62-6.66,2.22-3.71,2.26-2.23,6-6.65,10.5-1.26,1.27-3.19,3.23-5.92,3.55-3.89.45-7.14-2.7-10.2-5.77-6.19-6.19-6.19-10.14-12.72-16-2.86-2.55-5.89-4.51-6.65-3.85-1.19,1,4.58,6.89,2.66,12.13-1.08,2.93-4.14,4.55-5.33,5.18-3.16,1.67-4.82.85-8.72,2.81-2.34,1.17-3.56,1.78-4.44,3.1-2.86,4.3,2.44,9.26-.15,13.9-1.54,2.77-5.11,4-7.83,4-.83,0-3.85-.06-5.33-2.07s.19-4.19-1.33-6.51a6.51,6.51,0,0,0-5.37-2.56c-3.2,0-5.34,2.59-7.79,5.52a28.25,28.25,0,0,0-5,9.17,27.26,27.26,0,0,0-1.63,6.95c-.36,4.1.61,4.74-.14,7.24s-1.9,2.26-4.74,6.51a42.53,42.53,0,0,0-4,7.69c-1.55,3.91-1,4.19-1.92,5.32-3.06,3.61-11.72,3.91-15.83,0-2.1-2-2.33-4.44-4.58-4.88-1.07-.2-2.05.15-4.44,1.48-4,2.24-5.29,3.49-6.95,4.44-5.35,3.06-12,1.4-14.64.74-5.88-1.47-7-4-9-3.11-3,1.36-1.53,7.61-3.11,19.67-.93,7.16-1.53,11.79-4.28,17-1.49,2.81-5.79,11-14.79,13.75a23.46,23.46,0,0,1-13.31-.15c-6.43-1.72-8.56-4.76-20.71-14-11.79-9-15.33-10.38-17.3-9.17-2.92,1.79-1.59,8.72-3.85,9.17-1.23.24-1.73-1.81-4-2.67-2.75-1.05-5.49.66-10.5,3.26-9.6,5-8.89,3.52-10.79,5.17-7.54,6.53-6,18.17-9.17,18.34-.79,0-.92-.67-4-3.84-3.64-3.77-5.46-5.66-7.54-6.07-2.86-.56-3.4,1.5-8,1.92-3.75.35-4.54-.92-8.29-1-3.21-.1-5.84,1-11.09,3.11-8.12,3.3-8.3,4.95-12.86,5.47-2.65.3-3.41-.16-8.29.29-3.71.35-5.56.52-7.09,1.19-5.11,2.2-7.27,8-7.84,9.76-2.32,7.19.78,12.89-1.63,14.19-1.81,1-3.93-2-6.51-.88s-2.37,4.68-4.88,5.17c-1.3.26-1.71-.63-2.66-.29-2.37.84-.4,6.66-3.1,9.46-3.16,3.27-9.33-1-12.13,1.92s2.12,8.64-1.33,13.61c-1.79,2.58-5.32,4.23-5.77,4.44-2.33,1.06-2.75.55-4.14,1.33-3.75,2.08-5.66,8.55-4.44,13.75,1,4.23,3.62,5.67,2.67,8s-4.7,3.05-5,3.1c-3.15.52-4.21-1.23-5.77-.59-3.13,1.3-3.76,10.39-1.48,18.19,1.61,5.51,3.73,7.16,2.81,10.5s-4.25,5.68-7.1,6.51c-4.88,1.41-10.76-.73-12.42-4.44-.39-.87-.68-2.13,2.22-11.83,2.24-7.49,2.68-7.64,2.36-8.87-1.71-6.69-16-6.86-16.26-11.39-.12-2.32,3.6-2.73,4.73-6.8.93-3.36-.23-8.06-3.11-9.91-5.14-3.31-12.37,4.62-16.26,1.77-3.54-2.58,1.32-9.91-3-20-1-2.39-2.56-5.88-6.21-8-5.09-2.93-10.88-1.21-13.46-.44-3.61,1.07-8.16,2.43-9,5.62-1.42,5.24,8.78,9.14,7.84,16.12-.54,4-4.46,7.25-6.22,8.72-4,3.32-6.26,2.8-6.8,4.74C-1,436.87,6.64,443.93,14,447.54c3.43,1.68,6.23,2.33,7.55,5.18s-.22,4.63,1.18,7.39,3.6,2.69,7.1,4.88c1.17.73,8,5,9.76,12.42a18.63,18.63,0,0,1-1.48,12c-1.25,2.41-1.9,2.11-3,4.14-2.73,5.22-1.36,12.71,2.22,17.6,1.13,1.55,1.58,1.59,10.06,7.25,10.25,6.84,12.69,8.85,12.71,11.53,0,3-3.07,4.14-2.36,6.36.39,1.24,1.73,2.06,10.5,4.44,6.73,1.82,7.87,1.86,8.87,3.25,2.19,3-.45,6.73,1.78,8.87,1.6,1.55,3.44.08,6.8.74,6,1.19,5.4,6.93,13.46,11.69,3,1.77,4,1.54,9.31,4.58,3.9,2.25,3.61,2.54,5.62,3.4,5.28,2.27,7.13.24,12.13,2.22a19.63,19.63,0,0,1,7.69,5.77c2.2,2.57,3.53,4.13,3.55,6.21,0,4.88-7.18,6-7.69,11.09-.41,4.11,3.79,8.06,6.51,9.76,4.26,2.68,6.55.91,12.57,3.85,3.17,1.55,6,2.94,7.09,5.77.74,2,.13,3.38-4.88,14-4.21,9-5,10.53-7.09,12.58-3,2.92-4.25,2.4-5.62,4.88-2.39,4.29-.35,8.69-3.27,10.87-.49.37-.89.5-2.94,1.84-1,.64-2.44,1.62-2.81,1.93-3.3,2.64,2.75,12-.45,19.67-1.41,3.37-4.17,5.33-7.69,7.83-5.32,3.79-7.9,3.08-11.39,6.81-.93,1-4.17,4.46-4.28,9.17-.11,4.36,2.52,7.49,6.8,12.42,3.8,4.38,7,8.11,12.57,11.09,10,5.39,16.09,2.21,20.55,7.84,2.38,3,2.65,6.42,3,10.5.67,8.65-3,12.53-1,20.7.86,3.65,2.09,5.07,3.4,5.62,1.93.81,3.24-.6,5.17.15,2.11.82,2.67,3.32,4,7.1,2.28,6.49,2.92,5.68,4.43,10.35,3.13,9.66-.2,11.33,2.67,17.89a25.63,25.63,0,0,0,10.79,11.54c6.3,3.4,9.29,1.13,11.54,4.14,2.71,3.64-1.08,7.73-.89,20.41,0,2.19.22,4.07.59,7.84.94,9.48,1.45,14.28,3.7,16.86,1,1.16,4.34,2.42,10.94,4.88,9.7,3.61,10.78,3.52,13.46,5.47a29.27,29.27,0,0,1,7.69,8.87c.68,1.11,1.26,2.16,4.44,9.91,3.68,9,4.25,10.83,6.36,14,2.27,3.49,3.41,5.23,5.47,6.36,4.43,2.42,6.55-.72,14.49,1a66.32,66.32,0,0,1,9.61,2.67c2.23.9,3.78,1.75,4.88,1,1.68-1.09.09-4.35,1.78-5.91,1.47-1.37,4-.12,8.28.73,7.08,1.42,7.85-.49,12.72.74s8,4.13,12.13,8c4.9,4.58,5.69,7.32,11.24,10.94,2.65,1.74,3.07,1.5,4,2.67s2.1,3.38,1.77,15.23c-.08,2.88-.2,4.58.89,5.32,1.74,1.19,4.43-1.52,6.36-.29,1.58,1,.34,3.21,2.22,6.21.1.16,2.39,3.72,5.47,3.69,2,0,2.71-1.58,3.7-1.18,1.89.77-.72,6.47,2.07,10.21,2.21,3,5.49,1.56,7.39,4.58,1.78,2.83-.66,4.75.74,8.43.7,1.84,3.53,3.91,9.17,8,3.59,2.59,4.68,3.15,6.21,5a21,21,0,0,1,3.4,6.22c2.54,6.53.95,8.45,3.11,12.57,1,1.88,2.92,3.52,6.8,6.8,5.21,4.41,7.82,6.61,11.39,7.54s6.72.53,11.09,0c5.29-.64,5.46-1.52,7.69-1.33,5,.42,6.59,5,13.16,12,8.51,9,11.26,7.09,16.42,14.64,1.07,1.56.07.35,6.5,13.16,4,7.92,5,9.55,5.48,12.87.93,5.91-1.17,7-.15,11.83s4.15,7.91,9.17,12.72c5.92,5.67,6.13,3.37,17.74,12,2.91,2.15,5.31,4.08,6.81,3.25,2-1.11-.11-5.75,2.81-10.35a11.08,11.08,0,0,1,5-4.29c3.6-1.44,5.33.5,13.31.74,4.25.13,4.52-.4,5.77.29,2.67,1.48,2.4,4.37,6.07,10.36,2.72,4.44,3.88,4.49,4.28,4.43,1.85-.25,2.16-4.32,3.41-4.29s1.78,3.32,3,7.55c.14.5,1.78,6.32,3.4,10.35a46.67,46.67,0,0,0,7.55,12.27c3.65,4.31,5.48,6.46,8.72,7.4a17,17,0,0,0,11.69-1c2.18-1.09,3.64-2.53,4.88-1.92s1.07,2.33,1.33,4.14c.9,6.38,4.7,6.67,8,15.53,1.13,3,1,3.79,2.22,5.91a23.1,23.1,0,0,0,5.47,6.07c3.32,2.76,4.23,2.42,6.07,4.43,2,2.23,2.69,4.62,3.4,7.25,2.11,7.89-.45,10.72,1.92,13.31,1.74,1.9,3.75,1.06,10.5,2.22a50.82,50.82,0,0,1,11.39,3.1c1.78.8,4.71,2.38,15.82,15.68,7.07,8.46,7,9.18,9.32,10.2,5.62,2.52,10.08.1,15.08,4,1.16.9,2.15,2.23,4.14,4.88,4.58,6.1,4.37,8.44,7.4,10,3.27,1.75,5.11-.11,7.24,1.78,2.69,2.39,3,8.21.45,10.5s-5.85-.48-9.17,1.92c-2.39,1.73-3.95,5.54-2.66,8.58,1.12,2.65,4.1,4,6.36,4.14s3-1,4.14-.44c2.29,1.22-.31,6.65,2.51,10.35,1,1.33,1.59.94,6.21,3.1,7.3,3.42,8.91,5.82,11.83,5,2-.54,1.78-1.83,4.14-2.36,2.19-.5,4.17.2,7.25,1.33,3.28,1.2,3.09,1.6,4.73,2.07,4.48,1.27,6.31-1.61,11.69-1.63,3.1,0,5.33.93,9.76,2.81,5.48,2.32,6.44,4,10,4.14,3,.07,3.81-1.07,6.36-.59,3,.55,4.59,2.62,6.51,4.58,3.45,3.53,10,10.25,15.53,9.47,3-.43,5.47-3.05,9.17-7,2.11-2.23,3.24-4,5.91-4.88,2.16-.7,3.24-.13,4.44-1.18,2-1.75.32-4.47,2.07-6.07.84-.77,3.18-.67,7.84-.44,3.1.15,4,.32,5.17-.3,1.63-.86,2.3-2.48,3-4.14,5.27-13.19,5-14.84,4.59-16-.87-2.58-2.55-3.69-1.93-4.88,1-1.8,5.66-1,6.07-.89,1.61.3,4.45,1.13,9.17,5.33,5.85,5.2,4.94,7,8.28,8.28,3.94,1.5,6.4-.57,9.61,1.77,2.14,1.57,1.87,3.09,3.7,3.7,2.87,1,6.33-1.92,8.28-3.55,4.88-4.07,4.76-7,7.25-7.25,2.8-.24,6.78,3.18,8.43,6.66.6,1.28,1.26,3.36,2.95,3.84.77.22,1.17,0,2.22.15a6.39,6.39,0,0,1,3.25,1.92c2.83,2.78,2.3,5.58,4.44,7.84,2.88,3,8.44,2.85,12,1.63a13.76,13.76,0,0,0,6.06-4.29c1.29-1.51,3.1-4.34,3.7-10.35,1-10-3-12.37-2.22-22.33a39.24,39.24,0,0,1,2.22-10.06,43.5,43.5,0,0,1,10.5-16c6.13-6,9.11-5.42,14.35-12,2.55-3.2,3.85-4.82,4.58-7.54,2.12-7.85-3.43-13.75-.59-17.16.51-.61,1.09-.91,6.51-1.62,15.42-2,17.72-.6,18.78.29,1.74,1.47,1.52,2.64,3.84,4.14,2,1.27,3.56,1.38,7,1.92,7.13,1.16,6.41,1.7,10.65,2.08,5.09.44,7.74.63,9.76-1.19a5.63,5.63,0,0,0,.3-8.87c-2.54-2.81-4.05-2.66-5.33-4.29-2.19-2.81-.87-7.26-.44-8.72,1.19-4,3.14-4.23,4.88-7.7,1.24-2.46.76-3.37.59-16.26-.09-7.16,0-9.88,1.48-13.16,1.34-3,2.07-2.58,3.25-5.18,2.18-4.79.57-8.38-.74-18.63-.37-3-.59-6.16-1-12.58-.78-11.33-.5-13.69.25-16.16,1.39-4.63,2.67-3.85,4.33-9.42,1.39-4.64,1.22-7.59,3.85-9.76a7.19,7.19,0,0,1,4.44-1.77c3.17,0,4.15,2.7,7.24,2.51,1.81-.11,1.79-1,4.29-1.48,1.15-.2,4.12-.71,5.62.74,2.11,2-.74,6,1.18,8.13,1.4,1.58,4,.8,8.14.6,6.94-.35,7.16,1.67,12.72,1.33,4.3-.27,5.81-1.3,7.09-.15,1.77,1.58-.41,4.16,1,8.13,1.6,4.39,5.72,5.23,5.32,8-.2,1.37-1.24,1.33-2.51,3.55-1,1.83-2.42,5.52-1,7.39,1.73,2.32,7.37,1.4,11.1-.59s3-3.6,6.8-5.47a16.05,16.05,0,0,1,10.06-1.48c3.12.66,3.3,1.9,5.47,1.77,4.38-.25,7.37-5.6,7.54-5.91,2.12-3.9,1-6.6,3.11-7.84,1-.61,2.52-.36,5.47.15,4,.69,4.64,1.58,6.65,1.33,2.55-.32,2.65-1.87,5.18-2.81,4.36-1.62,9.25,1.07,12.12,2.66,1.54.85,1.49,1,7.4,5.62,4.86,3.79,7.32,5.7,8.58,6.21,3,1.24,5.9,1.42,11.53,1.78,4.46.28,4.7-.09,6.21.44,4,1.39,5.21,4.9,8,9a48.3,48.3,0,0,0,14.2,13.16c4.53,2.63,8.66,3.66,14.78,5.18,8.32,2.07,8.69.9,13.31,2.81,5.11,2.11,8.84,5.26,13.46,9.17,3.88,3.28,4.69,4.56,8.28,6.95a32.21,32.21,0,0,0,8.88,4.58c1.35.41,11,3.18,19.22-1.77,5.12-3.09,4.39-6,9.17-7.84a16.94,16.94,0,0,1,13.61,1c6,3.27,6.68,9,11.09,9,2.79,0,4.22-2.29,6.06-1.33,1,.5,1.06,1.37,2.81,6.06,1.55,4.15,2,5,3,5.32,1.23.43,2.08-.51,4-1.18,4.13-1.45,8.19.1,9.47.59,1,.4,6.68,2.56,7.84,7.1.45,1.79-.27,2.09.29,5.18a11.21,11.21,0,0,0,2.37,5.76,9.21,9.21,0,0,0,3.7,2.37c4.49,2,6.25,6.34,8.42,9.32,2.36,3.23,8,5.6,19.23,10.35,9,3.8,13.53,5.65,19.52,6.65,8.06,1.36,8.65-.36,19.37,0,15.2.52,17.85,4.08,33.87,4.44,8.42.19,7.66-.8,14-.29,4.48.35,7.86,1.07,10.94-1,1.53-1,2.39-2.38,3.41-2.07,1.7.51.77,4.74,3.25,6.21,1.05.63,2.2.44,4,.15a17.81,17.81,0,0,0,6.51-2.51c3.87-2.4,7.07-4.39,10.65-8.29a36.15,36.15,0,0,0,8-12.71c2.77-7.91.64-12,3.85-14.2,1.78-1.24,4.64-.83,10.35,0,7.7,1.11,8.42,2.59,11.39,1.77,5-1.39,6.06-6.6,9.17-6.06,1.13.2,1.42,1,5,5.47a61.31,61.31,0,0,0,4.74,5.62c4.36,3.78,10,4.06,11.53,4.14,4.35.22,4.33-1.12,9.61-1,3.52.06,7.22.17,10.21,2.66,1.89,1.57,2.65,3.4,3.7,5.91a36.62,36.62,0,0,1,2.36,11.83c.44,5.71-.08,8.39,1.33,9,.9.4,1.65-.43,5-2.07s5.15-2.51,7.1-2.67c.78-.06,2.29,0,8.58,3.7,5,3,6.08,4.21,10.35,6.66,3.41,2,5.12,2.93,7.1,3.55,3.4,1,7.94.45,17-.74s10.75-2.14,11.53-2.67a5.89,5.89,0,0,1,3.11-1.33c2.69-.13,4.8,2.34,6.36,4.14a17.37,17.37,0,0,1,4.28,8.88c.44,3-.36,3.35-.29,7.1.08,4.45,1.23,5.28,2.07,10.2.54,3.18.46,6.41.29,12.87-.17,6.92-.67,9.72,1,10.79s4.24-.34,4.44-.44c2.23-1.24,3-3.61,3.55-5,2.86-7.85,4.12-6,7.09-14.49,2.09-5.94,1.35-6.51,3.11-12.13s3.27-7.61,7.1-15.08c9.77-19.07,8.06-21.69,13.9-26.77,2.23-2,4.28-3.13,10.35-8.28,4.32-3.67,6.48-5.5,7.4-6.81,4-5.68,1.55-8.87,5.32-17.15,1.67-3.67,3.36-7.38,7.25-9.76,4.55-2.79,6.88-.54,10.79-3.26,4.76-3.3,2.88-7.73,7.84-11.38,3.88-2.87,8.52-2.73,10.65-2.66,4.89.14,8.36,2.14,10.94,3.54,21.68,11.76,26.54,8.47,32.24,16.42,2,2.84,3.63,6.36,8,8.43a14.59,14.59,0,0,0,8.57,1.33c5.56-.93,6.67-4.91,16.42-11.68,3.49-2.43,5.27-3.64,7.1-3.85,7.14-.79,14.08,7,15.53,8.58,4.11,4.59,4.34,7.49,7.54,8.13,1.88.38,4.11-.53,8.58-2.36,4.18-1.72,4.58-2.49,7.39-3.11,3.66-.81,4.47.17,6.66-.74,3.21-1.33,3.78-4.4,5.76-7.39,3.53-5.33,9.4-7.2,15.09-9,10.32-3.3,12.16.43,19.37-3,5.75-2.71,9.16-7.31,13.16-12.72,5.23-7.06,5.33-10.46,10.65-14.79a30,30,0,0,1,9.76-5.17c5.25-1.65,16.53-3.55,25.14-1.63.91.2,3.22.77,4.59-.44,1.19-1.06,1-2.88,1-5.18a65.34,65.34,0,0,1,1.48-9.32c1.2-5.89,3-5.49,4.44-10.79,2-7.77-1.36-10.75,1.48-16.27a15.81,15.81,0,0,1,5.91-6.06c6.16-4,13.21-3.49,19.52-3,8.43.7,10,2.65,14.64,1.18,1.67-.53,2.63-1.16,9.17-6.36,7.19-5.72,10.79-8.57,11.54-9.46,3.33-3.95,4.64-8.6,7.25-17.9,2.77-9.87,4.15-14.81,2.66-19.67-1.21-3.93-3.19-5.63-2.37-8.72.89-3.35,3.8-3.62,6.06-8.28,1-2,1.24-3.69,1.78-7.1.94-5.94,0-7.73,1.63-11.54.94-2.23,1.37-1.88,2.66-4.43a26.84,26.84,0,0,0,2.66-11.54c.31-8.6-2.89-10.14-1-14.05,1.53-3.22,3.59-1.93,7.4-6.95a22.45,22.45,0,0,0,4.58-8.58c.56-2.24.39-3.44,1.48-4.58,1.92-2,5.45-1.47,6.66-1.33,3.36.38,11.07-2.6,26.47-8.58,9.22-3.58,5.89-2.69,19.08-8,9.3-3.73,12.59-4.81,16.56-8.43,2.16-2,6.09-5.53,7.84-11.23,3-9.75-2.71-18.08.29-20,2.05-1.29,5,2.38,10.36,1a14.39,14.39,0,0,0,4.43-2.22,30.65,30.65,0,0,0,8.73-8.14c3.81-5.49,1.52-7,4.58-12.12,3.63-6,7.47-4.87,14.64-13.46,4-4.76,4.25-6.84,4-8.28-.59-3.39-4.18-4.05-4.29-7.25-.11-3,3-5.68,5-6.8,2.25-1.25,3-.54,7.54-1.63,6-1.42,6.63-3.08,8.72-2.36,3.3,1.12,2.79,5.61,6.51,7,1.41.5,2.46.21,5.47-.45,6.09-1.33,10.84-2.13,11.39-2.22,6.39-1,11.75.59,16.12,1.93,8.36,2.55,9.27,5.45,13.46,4.73,3.58-.62,3.41-2.84,10.94-8.13,5.21-3.67,7.82-5.5,11.68-5.92,5.62-.61,8.45,2.34,10.36.59,2.17-2-1.33-6,.88-11.68,1.52-3.86,4.22-4.66,3.7-6.8s-3.31-2-6.8-5.48a19.15,19.15,0,0,1-3.4-4.58c-2.75-5.42,0-9.41-.74-17.9a75,75,0,0,0-1.78-8.43c-3.3-13.86-4.85-13.54-5.62-20.26-.88-7.69.79-11.2-2.07-13.6-2.62-2.19-7.1-1.83-7.84-1.78a11.9,11.9,0,0,0-5.32,1.63c-1.77,1.09-2,2-3,2.51-2.91,1.7-8.8-.66-11.53-4.73s-1-7.75-3.85-9.46c-1.48-.91-2.4-.14-5.47-.15-4.87,0-8.5-2-14.49-5.18-4.19-2.24-6.28-3.36-7.25-4.58-3.68-4.62-1.19-9.44-2.51-17.45-.62-3.73-2.63-7.51-6.66-15.09-7.85-14.76-12.9-18.24-11.24-23.66.36-1.16,2.31-3.93,6.21-9.46,3.3-4.67,4.16-5.44,4-7-.44-4.09-7.24-3.81-9.76-9.47-1.09-2.44-.83-5-.3-10.2.47-4.57,1.4-6.26.74-9.91-.38-2.1-.86-4.53-3-5.77a6,6,0,0,0-5.91.15c-1.93,1.15-2.56,3.15-3.11,4.88-1.33,4.18.1,6-1.18,7.39-2,2.06-7.34-.07-9.76-1-7-2.79-6-5-13-8.14-2.38-1.07-9.53-4-11.53-6.21-.08-.08-.84-.94-1.92-2.07-.61-.63-1.39-1.44-1.78-1.77-1.62-1.4-4.13-1.08-6.06-.89-7.19.71-10.78,1.07-13.46-.29-2.52-1.28-3.43-3.28-4.59-2.81s-.71,2.59-1.47,5a12.49,12.49,0,0,1-8.14,7.84c-5.55,1.43-12.3-3.13-15.08-8.43-3.3-6.27-.17-11.92-4.44-15.38-1.25-1-2.7-1.36-5.62-2.07-6.84-1.66-8.87.4-11.09-1.48-2.67-2.26-.38-5.77-3.85-10.35a13.18,13.18,0,0,0-4.14-3.55c-4.34-2.37-10.86-2.65-13,.3-1.7,2.34.1,5.67-1.63,6.65-1.31.75-3.35-.61-3.55-.74-2.53-1.72-1.65-4.36-3.69-5.62s-4,.94-6.81-.15c-2-.76-2.93-2.6-4.14-5-1.61-3.24-1.57-4.83-3.1-11.24-1.65-6.88-2.52-8.45-3.85-9.76-1-1-1.08-.62-4.14-2.81-4.07-2.92-4.23-3.81-6.65-5.18-2-1.14-4.37-2.47-7.25-2.07a9.71,9.71,0,0,0-7.84,7.54c-.09.46-1,5.07,1.63,7.25,2.84,2.38,6.85-.66,9.46,1.92,1.94,1.91,1.51,5.3,1.48,5.47a5.41,5.41,0,0,1-1.33,3.11,5.66,5.66,0,0,1-3.7,1.63c-2.93.27-3.93-1.48-6.8-2.22-4.65-1.2-9.13,1.56-10.2,2.22-3.55,2.18-2.75,3.78-6.66,6.36s-5.51,1.47-7.69,3.84c-2.77,3-1.34,6.08-3.7,7.39-2,1.1-3.59-.66-8.28-1.18-3.44-.38-4.21.39-8.72.74-6.66.52-10.8.83-13.46-1.33-4.74-3.85-.12-11.77-4.73-15.68-4-3.34-8.88,1.13-13.9-2.07-3.78-2.4-3-6.18-6.51-17.74-3.3-10.73-5-16.1-8.87-19.82-5.18-4.91-10.19-4.9-13.61-11.09-.62-1.12-1.82-3.59-3.4-3.55s-1.93,2.39-4.14,3.7-5.37.89-7.1.14c-5.67-2.44-2.71-10.29-9.32-16.26-3.09-2.8-4.94-2.17-9-6.21-3-3-5.18-5.14-4.73-7.1.69-3,7.34-3.92,30.61-8.88,4.61-1,9.94-2.18,11.54-6.06,1.15-2.81-.19-5.75,1.77-7.69.77-.76,1.57-.77,5.62-1.18,7.51-.76,7.87-.9,8.28-1.19,3.53-2.39,4.08-10,.89-14.05-.82-1-1.1-.84-3.84-2.81-4.71-3.37-7.76-5.56-8.73-8.72-.4-1.31-.37-2.54,1.77-9.17,2.27-7,1.81-9.5,4-11.24,1-.79,2-1.16,2.07-2.07.09-1.23-1.65-1.83-4.29-4a44.44,44.44,0,0,1-5.92-6.21c-2.2-2.63-2.31-3.22-3.55-3.85-2.07-1.06-5.29-1.23-6.5.3-1.39,1.75,1.2,4,.74,8.13-.34,3-2.12,5-5,8.28a39.69,39.69,0,0,1-9.47,7.54c-2.69,1.7-1.12.39-9.9,4.88-2.37,1.22-3.66,1.91-5.18,1.48-2.25-.63-2.29-3-4.73-3.84-1.54-.55-2.6,0-5.77.74-2.58.61-5.23.84-7.84,1.33-11.07,2.08-28-5.91-32.39-.3-1.39,1.81-.65,3.95-3.1,6.07-.18.15-3.29,2.77-5.62,1.77-3.23-1.38-.58-7.84-4.73-11.53-2.33-2.08-5.69-2.3-9-2.52-2.62-.17-4-.26-5.32.59-2.51,1.59-1.74,4.33-4.44,6.21-1.3.92-3.58,1.74-5.17.89-2.35-1.25-2.28-5.65-2.22-9.46.08-4.95,1.17-5.56.44-8.58-.79-3.29-2.32-3.54-2.51-6.21-.28-4,3-6.32,2.22-7.4-1-1.34-6,2.33-12.28,3.41-11.59,2-21.83-5.87-24.4-7.84-5-3.84-10.22-7.85-10.94-13.9-.26-2.16-.07-5.62-1.63-10.65-1.06-3.43-2-4.44-3-4.73-1.72-.51-2.81,1.36-5.91,2.66a15.52,15.52,0,0,1-9.47.59c-2.57-.64-4.75-2.46-9-6.06-6.19-5.24-5.75-6.09-8.13-6.95-4.89-1.77-6.75,1.8-12.72.59-1.6-.33-1.21-.53-10.94-6.07-6.1-3.46-8-4.39-10.65-4.14-1.73.17-1.79.65-5.92,1.63-3.92.93-5.88,1.4-7.39,1-2.76-.66-3.11-2.77-7.25-7.54s-6.12-7-9.32-7.54c-4.28-.66-8,2.53-9.9,4.14-1.45,1.24-6.76,5.78-6.36,11.54.19,2.82,2.84,5.91,8.13,12,5,5.79,5.57,5.41,6.8,7.84,2.94,5.78.22,8.27,3.11,13.31s6.34,3.81,7.84,8.14c1.73,5-2.15,8.88.59,12.71.48.68,1.5,1.34,3.55,2.67a33.52,33.52,0,0,0,9.32,4.58c4.91,1.41,6.33.22,8.57,2.07,1.66,1.37,2.21,3.11,3,5.47.58,1.84,2.15,6.79,0,11.54-1.44,3.18-3,2.81-3.25,4.88-.52,4,5.27,5.5,6.36,11.53a11.11,11.11,0,0,1-1,6.81c-1.16,2.22-4,5.65-7.1,5.17-1.53-.23-1.56-2.26-5.17-9.76-1.12-2.31-1.65-3.26-2.37-3.25-1.55,0-1.59,4.44-5,7.39-1.5,1.3-3,1.72-5.32,2.37-8.27,2.28-11.14-.81-15.83,1.77a18.07,18.07,0,0,0-5.91,6.07c-2.22,3.43-2.25,5.72-3.85,6.06-2.46.53-3.91-4.55-7.39-4.58-1.33,0-2.44.71-6.8,5.47a86.34,86.34,0,0,0-6.81,7.84c-3.59,5.25-3.23,7.28-8.13,15.38a23,23,0,0,1-3.85,5.17c-2.89,2.81-4.74,2.86-8,4.88-5.13,3.2-8.13,7.82-10.35,11.24-3.11,4.79-3,6.6-5.48,7.84s-5,.61-9.46-.59a40.74,40.74,0,0,1-14.64-6.66c-2.28-1.66-2.73-2.36-9.17-9.16-11.51-12.19-12.46-12.51-13.9-15.68-.81-1.78-1.44-6.48-2.66-15.82-1.86-14.18-1.62-15.3-3.11-18.34-1.25-2.57-2.15-3.29-11.39-12.57-8.24-8.3-12.39-12.48-13.31-13.76a114.6,114.6,0,0,1-10.79-19.52c-1.93-4.59-2.78-7.6-5.47-8.43-3.94-1.2-7,3.73-11.39,2.37-1.68-.52-3-2.38-5.62-6.06-3.41-4.83-5.11-7.25-6.36-10.65-2.92-8-.07-11.5-3.25-14.35-.84-.74-4-1.14-10.21-1.92-6.09-.77-8.06-.66-9.61.59s-1.19,2.28-2.81,3.25a6.66,6.66,0,0,1-6.8-.14c-2.22-1.55-1.21-3.62-3.85-9.62a32.23,32.23,0,0,0-3.55-6.06c-1.89-2.57-3-4-4.73-4.29-2.26-.35-3.27,1.65-5.18,1.19-1.6-.39-2.48-2.18-3.55-4.89-2.7-6.83-4-10.24-3.69-12,1.17-5.62,8.51-10.12,15.67-14.5a10.89,10.89,0,0,0,4-3.55c1.62-2.58.84-4.37,2.36-5.47s3.58-.46,6.36.3c4.26,1.16,5.44,2.72,6.51,2.07,1.53-.93-.49-4.32,1-8.88.76-2.25,2.77-5.91,5.33-6.06,3.21-.18,4.23,5.36,7.84,5.47C1464.42,305.15,1465.31,304.89,1471,299.36Z"/></g></g></svg>