<svg xmlns="http://www.w3.org/2000/svg" viewBox="0 0 2194.56 1831.78"><g id="Layer_2" data-name="Layer 2"><g id="Denmark"><path d="M920,266.62c-2,.78-3.51,2.14-6.56,4.85-4.76,4.23-4,4.77-7.13,7.27-5.07,4.1-8.07,3.47-11.26,7.84a8.27,8.27,0,0,0-1.85,4.13c-.37,4.36,4,7.73,4.56,8.13,5.05,3.77,8.35.23,14.11,3.28,4,2.13,2.93,4.14,10.27,10.55,3.31,2.9,5.07,4.23,7.84,4.84,4.94,1.11,9.44-1.11,12.68-2.7.17-.09.1-.05,8-5.42,5.41-3.69,6.74-4.58,7.7-6.42a20.76,20.76,0,0,1,2.42-3.85c.94-1.17,1.38-1.43,1.85-2,2.45-2.93,1.42-8.77-.43-12.69-1.62-3.45-3.09-3.74-2.85-5.42.46-3.17,6.11-4.89,9.7-6,3.95-1.21,3.53-.36,9.83-1.86,4.22-1,6.06-1.77,9.41-1.57a11.52,11.52,0,0,1,5.28,1.29c2.66,1.49,3.14,3.49,4.13,3.28,1.35-.29,1.51-4.22,1.71-9.27.25-6.29-.41-7.4-1.14-8-1.24-1-2.13,0-5.13-.72-3.87-.87-4-2.84-7.13-3.13-1.28-.12-1.53.19-6.13,1.28-2.7.64-3.89.17-5.27,1.14s-1.22,2-2.28,2.85c-2.1,1.73-5-.36-11-1.28a37.59,37.59,0,0,0-12,.28c-4.6.64-6,1.48-6.84,2.29-2,1.84-1.52,3.47-3.42,5-1.42,1.12-2.73,1-8,1.14C922,265.93,920.89,266.28,920,266.62Z"/><path d="M938,321.22c2.54-.77,3.81-1.15,4.7-.57,1.52,1,1.8,4.13.57,5.28s-3.15-.58-5.27.71c-1.57.95-1.48,2.48-3,2.85a2.73,2.73,0,0,1-2.71-.86c-1.11-1.49.38-4.5,2.28-6A9.77,9.77,0,0,1,938,321.22Z"/><path d="M1105.94,607.05c6-1.59,8.31,1.2,14,.43,1-.13,3.79-1.42,9.4-4,8.64-4,10.72-5.08,11.25-4.44s-1.44,3.42-5.12,8.15c-5.72,7.36-6.4,6.65-8.41,10.4-1.29,2.41-1.92,4.42-4.27,6.7a13.07,13.07,0,0,1-4,2.86c-5.88,2.48-12.42-1.83-14-2.86-2.72-1.79-6.35-4.18-6.55-8.12-.2-3.76,2.83-6.57,3.13-6.84A10.41,10.41,0,0,1,1105.94,607.05Z"/><path d="M2071.07,1424.07c-4.15,1.71-5,3.31-5.13,4.42-.2,2.46,3.46,3.7,3.57,6.7.07,2.19-1.82,3.64-3.57,5.41-2.75,2.79-5,7.8-9.55,17.82-2.57,5.68-3.85,8.51-4.56,11.27-1.08,4.16-1.23,7.43-.43,22.52.87,16.4,1.24,16.07.71,18.68-1.42,7.07-4.15,9.55-4.42,17.67-.11,3.4-.18,6.68,1.72,10s3.91,3.6,8.83,7.7c6.1,5.07,4.91,6.14,8.84,8.84,5.09,3.49,8.13,2.42,16.54,5,4.23,1.29,7.57,3,14.26,6.41,19.92,10.18,18.95,13.35,29.93,17.25,11.34,4,12.58.72,23,5.56,7.61,3.56,10.18,6.85,15.82,6.28s10.56-4.56,13.26-8.7a21.36,21.36,0,0,0,3-7.84c1.44-7.23-1.44-9.15.29-14,1.56-4.39,4.36-4,7.41-9.13,2.34-3.94,2.67-7.51,3.14-12.54,1.11-12-2.78-14.45-.29-23.1.74-2.56,1.51-3.84,1-5.84-1.1-4.28-6.6-6.19-11.41-8-12.5-4.67-18.75-7-21.81-9.13-4.75-3.31-9.67-9.53-19.53-21.95a61,61,0,0,0-4.42-4.56c-2.58-2.52-3.35-3-4.27-3-2.07,0-2.53,2.53-4.71,3.14-2.59.72-5.24-1.92-7.7-4-5.17-4.37-4.23-1.8-14.25-8.7-6.73-4.63-10.42-7.17-14.69-11.69-3.86-4.09-7.26-7.7-10-13.54-2.61-5.64-3.23-10.43-6.13-11C2073.85,1421.76,2072.22,1423,2071.07,1424.07Z"/><path d="M86.63,1327.41c3.25-1.08,4.33.3,9.56.21,3.92-.06,5.2-.87,7.26.22a7.37,7.37,0,0,1,2.85,2.85c4.06,6.65-1.24,14.32,2.14,17.25a5.5,5.5,0,0,0,6.56-.14c1.32-1.3.73-3.4,1.71-3.71s2.64,1.82,3.71,3.28a16.74,16.74,0,0,1,3.28,6.56,17.56,17.56,0,0,1,0,6.7c-.75,5.57-2.19,6.07-2.28,9-.15,4.58,3.37,5.21,6.13,11.83,2.36,5.67,3.23,13.52.28,15.4-1.51,1-3.61.09-5.84-.86-8.43-3.59-12.9-10.88-14.12-13-4.13-7.13-1.67-7.84-6.13-16.25a70.93,70.93,0,0,0-9.41-13.4c-4.52-5.07-5.74-4.92-7.84-8.56-2.3-4-4.93-11.28-1.71-15.11A8,8,0,0,1,86.63,1327.41Z"/><path d="M746.26,1046.57c-1.79,1.74-.79,7,2.42,9.41a8.06,8.06,0,0,0,4.7,1.42c4.16.21,8.94-1.87,9-4,0-1.28-1.7-2.24-4.42-3.71C754,1047.57,748.35,1044.53,746.26,1046.57Z"/><path d="M794.87,1024.33c-3.22-1.28-8.76,4.06-11.26,9a21.92,21.92,0,0,0-2.14,10.12,21.21,21.21,0,0,0,2,10.69,15.85,15.85,0,0,0,6.28,7c2.68,1.49,3.53.71,6.13,2,3.8,1.89,5.6,5.35,7.27,8.56,1.48,2.84,3.91,7.53,3,13-.5,3-1.39,2.53-2.28,6.7-1,4.51-.28,6.66-2.14,8.7a8.39,8.39,0,0,1-4,2.14c-4.12,1.35-6.06,0-8.7,1-3,1.11-4.31,4.22-5.27,6.42-4.32,9.91,2.1,17.52,1.14,29.37a16.39,16.39,0,0,0,.57,6.41,18.83,18.83,0,0,0,3.56,6.27c2,2.6,3.49,4.45,6,5.71,1.2.6,1.94.71,11.55,1.14,4.49.2,4.92.2,5.7-.15,3.69-1.64,4.84-6.59,5.56-9.69.54-2.33.71-4.27.71-10.12,0-9.55-.44-11.82.15-17.54.61-6,1.59-8.31,3.13-10.12s2.2-1.49,4.28-3.85a18.79,18.79,0,0,0,4.28-8.12c.34-1.49,1.14-4.91-.15-5.71s-2.92,1.52-6.84,1.57a9.43,9.43,0,0,1-2.57-.28c-3.45-.92-5.33-4.19-7.12-7.42-2.12-3.79-4.56-8.2-2.85-10.69.72-1,1.67-1,3.27-3a7.64,7.64,0,0,0,1.86-3.28c.35-2.48-3.06-4.56-6.27-7-6-4.49-9.55-7.21-11.27-11.12-1.86-4.24.39-5.59-.28-15.53C797.71,1030.08,797.39,1025.33,794.87,1024.33Z"/><path d="M959.67,1071.94c-.37,3.36,3.56,5.71,9.26,10.84,3.15,2.83,5.67,5.54,10.7,11,5.71,6.18,7.57,8.87,12,10.27,2,.64,5.7,1.37,6.56,0,.43-.69.29-2.24-5.13-8.27s-7.34-6.7-13-12.26-8-7.63-13.11-12c-1.3-1.12-3.78-3.21-5.56-2.43A3.53,3.53,0,0,0,959.67,1071.94Z"/><path d="M1022.11,1144.51a17.6,17.6,0,0,0,1.14,4.56,11.26,11.26,0,0,0,2.57,4.27c.38.38,3.08,3,4.84,2.14,1-.53,1.35-2.08,1.29-3.13-.15-2.24-2.11-3.7-3.85-5A17.35,17.35,0,0,0,1022.11,1144.51Z"/><path d="M987.47,1491.78c-4.38,3.5-6.58,5.28-7.13,6.56a12.38,12.38,0,0,0-.43,7.13c.41,2.54.66,4.13,1.57,4.42,2.33.72,7-7.7,9-14.83.39-1.44,1.23-4.6.29-5.13C990.24,1489.64,989.41,1490.23,987.47,1491.78Z"/><path d="M990,1449.73c.78,6.23-1.7,8.19-.71,14.68.61,4,1.69,4.26,1.57,7.56-.11,2.84-1,3.8-.29,5.27,1.31,2.88,6.82,4.25,8.56,2.42s-.23-5.93-1-7.69c-1.06-2.44-1.67-2.37-2.85-5a19,19,0,0,1-1.85-7.13c-.17-3.79,1.17-4.48.42-7.13s-3.06-5-3.7-4.7C989.82,1448.19,990,1449.15,990,1449.73Z"/><path d="M1323.48,1557.22c-1.65.16-4.56.46-6.13,2.56-2.63,3.54,0,10.17,2.28,10.41.71.08,1.09-.51,4.85-5.56,3.46-4.64,4.29-5.7,3.85-6.56C1327.67,1556.79,1324.75,1557.09,1323.48,1557.22Z"/><path d="M1335.74,1555.65c-.55.27-4.48,2.18-4.85,5.27-.22,1.92,1.08,2.94,5,7.84,3.65,4.59,5.48,6.88,5.85,8.42,1,4-1.31,5.61-.71,11.12.36,3.35.52,5,1.71,6.13,2.71,2.5,8.29,1,15.39,2.7.5.13,1.27.33,1.43.86.25.86-1.28,2.08-7.84,6s-7.58,4.19-8.27,3.7c-1.55-1.09-1.16-6-1-8.12.1-1.24.26-2.13-.28-2.57-.94-.75-3.34.36-4.85,1.57-1.74,1.39-1.73,2.45-3.56,3.42a12.86,12.86,0,0,1-2.57.86c-1.91.52-2.75.56-4.13.85-4,.83-4.07,1.9-6,1.71a7.68,7.68,0,0,1-4.28-2.28c-2.66-2.36-3.29-5.14-3.85-5-.79.21,1.23,5.63-.85,7.42-1.73,1.48-4.33-1.21-9.13-.57-3,.39-7.1,2.1-8,5.27-.7,2.53.88,5.26,1.14,5.7,1.38,2.38,3.05,2.67,3,4-.06,1.55-2.36,2-4.56,4-2.73,2.53-3.45,5.88-3.85,7.69-1.06,4.9.46,8.8,2.14,13.12,1.29,3.32,2,5.16,4,6.7.53.41,2.53,1.89,8.27,2.28,3.85.26,8.36.56,13.12-1.43,2.93-1.22,6-4.58,12.11-11.26a139.47,139.47,0,0,0,10.27-12c3.27-4.49,4-6.26,7.13-9.41a34.44,34.44,0,0,1,21.24-10.27c2.59-.31,1.83,0,10.26,0,8.9,0,10.3-.44,13.4.57,2.74.9,1.64,1.21,7.56,4.14,2.73,1.35,5.76,2.52,11.83,4.85a23.57,23.57,0,0,0,5.56,1.71c1.92.26,5.21.72,7.7-.86,3.15-2,3.54-6.31,3.85-9.69a30.83,30.83,0,0,0-3-15.54c-1.81-4.23-4.16-9.7-9.26-12.26-.6-.3-1.88-.82-4.42-1.86a79.5,79.5,0,0,0-7.7-2.85,51.06,51.06,0,0,0-5.42-1.28,146.39,146.39,0,0,0-20.1-2,184,184,0,0,1-23.52-1.85c-4.39-.59-7.91-1.21-10-4-1.26-1.7-2.13-4.41-3.42-8.41-.92-2.85-1.27-4.55-2.71-5.13S1336.88,1555.09,1335.74,1555.65Z"/><path d="M1252.34,1611.82c-.19.07.72,2.22,1.43,5.84,1,5.06.09,6.73,1.57,11a10,10,0,0,0,1.71,3.56c1.85,2.25,4,2.29,9,3.85,6.58,2.07,6.89,3.28,9,2.71,3.15-.85,5.31-4.36,5.7-7.55.1-.77.57-4.59-2.28-7.27-2.56-2.42-6.14-2-7.13-1.86-2.7.32-3,1.45-7.12,2.71-3.06.92-4.88,1.47-6.28.57s-1-2.41-2.28-6.41S1252.59,1611.73,1252.34,1611.82Z"/><path d="M1064.16,1608.4c.17,2,.37,3.26.52,4.75.29,2.85.43,4.28-.09,4.51-.86.38-2.09-3.08-5.41-3.85a5.25,5.25,0,0,0-3.43.29,6.13,6.13,0,0,0-3.42,5.84c.25,1.88,1.6,2.11,5.85,6.13,3.8,3.6,4.18,4.79,5.56,4.71.71,0,1.39-.41,6-6.13,2.48-3.09,2.51-3.27,3.14-3.57,2.3-1.07,4,.37,8.55-.28,1.68-.24,2.52-.37,3-1,1.44-1.88-.6-6.67-3.85-9.12a34.89,34.89,0,0,0-5.56-2.57c-1.46-.61-3.07-1.24-5-1.85-4.66-1.49-5.35-1.35-5.7-1S1064,1605.77,1064.16,1608.4Z"/><path d="M1096.67,1597.7c-.22,3.08,1.53,5.47,2.85,7.42,5.42,8,5.39,11.64,7.41,11.54,1.28-.06,2.66-2.51,5.42-7.41,1.79-3.17,1.85-3.86,1.85-4.27,0-2.06-1.28-3-5.7-7.85s-5.22-6.14-6.84-6c-2.33.22-4,3.29-4.14,3.56A7.59,7.59,0,0,0,1096.67,1597.7Z"/><path d="M1090.68,1644.32c-1.93.15-4,3.4-3.28,5.13,1.19,2.74,9.95,2.79,11.26,0,.68-1.42-.44-4-1.56-4.13-.57-.09-.75.48-1.57.71C1093.66,1646.56,1092.41,1644.19,1090.68,1644.32Z"/><path d="M1167,1615.38c-.46.25-4.91,2.73-5.27,7.42-.08,1-.28,3.48,1.28,4.84,2.5,2.19,6.63-1.14,9.69,1.14a6.34,6.34,0,0,1,2.14,4.14c.68,3.88-2.21,5-2.56,9.41-.22,2.73.86,2.56,2.28,10a40.5,40.5,0,0,1,.85,5.71c.31,6-1.51,7.84-.14,9.55s3.82.07,8.13,2c1.91.86,3.22,2.14,5.84,4.71,3.85,3.76,5.77,5.65,5.56,7.84-.19,1.93-1.72,1.94-3.56,5.42-.86,1.61-2.28,4.3-1.71,6.7.66,2.79,3.51,3,8,6.13,2.07,1.44,5.13,5.1,11.26,12.4,4.31,5.14,5,6.33,5.7,7.84.95,2.15,2.6,5.94,1.71,10.27-.84,4.09-3.33,5.59-2.42,7.41.77,1.55,2.77.84,6.13,3,1.17.75,3.58,2.3,4.13,4.56.63,2.57-1.43,4.84-3.27,7.42-3.62,5-5,9.36-7.84,18-2.06,6.3-3.08,9.81-1.43,13.26,1.46,3,3.23,2.29,6,6.41s1.71,6.06,4.84,10.55c2.36,3.38,3.21,2.67,4.28,5.13,1,2.21.55,3.41.71,11,.11,5,.32,5.52.57,6,1.39,2.51,3.36,1.86,9,5.42,3,1.87,4.37,3.29,5.7,2.71,1-.46,1.36-1.86,1.57-2.86,1.48-7.31.71-11.54.71-11.54-2.26-12.46,1.67-14-1.28-26.8-1.06-4.57-2.19-7.14-3-13.26-.86-6.51-.33-9.37.86-11.69,1.37-2.68,2.38-2.22,4.42-5.56,2.79-4.57,1.33-6.13,3.85-9.7,2.14-3,3.61-2.48,6.55-6.13a27.1,27.1,0,0,0,3.71-6.55c4-8.7,6-13,6.56-14,3.81-6,5.73-5.15,10.83-12.41a35.62,35.62,0,0,1,5.13-6c1.22-1.12,1.49-1.2,4.14-3.27,7.8-6.11,8.35-7.66,8.55-8.42.76-2.85-.92-4.08.29-5.7,1.61-2.17,5-.55,7.7-2.85a7.83,7.83,0,0,0,2.28-5.42c.1-5.18-5.54-5.63-9.41-13.82a49.33,49.33,0,0,1-3.71-10.41c-.44-2.27-.46-3.53-1.57-4.71-1.88-2-4.91-1.57-8.84-1.56-4.46,0-2-.56-12.54-1.43-11.55-.95-13.35-.19-16.25-2.28a15.79,15.79,0,0,1-5.28-7.7c-2.45-6.75.31-11.52-3-14.4-.93-.81-2.1-1.06-4.42-1.57s-9-2-11.26,1c-1.67,2.18.69,4.66-1.43,8.7-.45.86-1.29,2.47-2.85,2.85-2.14.53-4.31-1.6-5.42-2.71-3.36-3.38-2.67-5.62-6-11.12a21,21,0,0,0-5.85-6.7c-1.6-1.11-4.41-3.07-6.56-2.14-1.75.77-1.21,2.66-3.7,6.13-1.2,1.68-2.92,4.08-5.42,4.28a6.28,6.28,0,0,1-4.28-1.71c-3.85-3-2.48-6.5-5.56-8.7s-7.92-.77-9-.42A13.24,13.24,0,0,0,1167,1615.38Z"/><path d="M904.07,1509.32a21.22,21.22,0,0,1,7.7-9.41c1.28-.83,3.53-2.26,5-1.43s1.35,3.36,1.28,5.28a132.6,132.6,0,0,1-1.42,17c-1.14,7.91.22,6.7-.86,13.69-1.3,8.42-2.92,8-4.7,17.82-1,5.5-.88,7.75-2.57,12.54-1.48,4.2-2.15,4.09-3.42,7.84-2.45,7.23-.38,8.8-2.43,14.4-.64,1.77-3.13,5.08-8.12,11.69-4,5.37-5.12,6.41-6.84,9.55a56.35,56.35,0,0,0-3.85,9.41,150.09,150.09,0,0,0-4.71,16.4c-1.75,7.61-1,6.67-2.28,11.54s-2.31,7.2-8.27,21.82c-2.4,5.88-3.6,8.82-3.7,9.12-3.81,10.49-3.36,14.14-7.27,29.37-2.44,9.48-2.38,7.15-3.85,13.54-2.54,11-2.37,16.38-6.85,19.53a11.68,11.68,0,0,1-6.84,2c-.58,0-5-.26-7.7-3.57-1.52-1.85-1.56-3.53-2.28-8.84-.53-4-1-7.68-1.71-10.83-1.17-5.46-2.06-5.43-4.85-14.4-2.57-8.29-1.69-7.93-3-9.84-.88-1.29-1.87-2.32-10.41-10.69-1.08-1.06-2.3-2.26-2-2.85.51-1,5.09,0,9.55.86,1.76.35,2.64.58,3.71.14s1.83-1.25,3.27-4.56a28.28,28.28,0,0,0,2.14-6.13c1.38-6.44-.31-8.52,1.71-12.55.73-1.45,1.71-3.4,3.28-3.56,2.23-.23,3.19,3.39,7.56,4.85a6,6,0,0,0,4,.28c2.25-.78,3.52-3.32,3.85-5.27.15-.9.13-1.84-3.28-9.56-1-2.29-1.79-4-2.42-3.84-.85.14-.33,3.18-2,4.13-1,.6-2.39,0-3.85-.57-2-.84-4.6-1.92-5.42-4-1.05-2.69,1.35-5.81,6-11.84,1.33-1.72,3-3.66,6.42-7.55,4.59-5.27,4.27-4.69,5.13-5.85,4.64-6.24,3.07-8.32,6.7-11.54,2.41-2.14,5.41-3.26,9.27-4.71,3.44-1.29,3.7-.93,5.27-1.85.86-.51,3.57-2.26,6.7-9.55,2.79-6.49,1.86-7.93,4.42-12.55,2.09-3.77,3.18-3.65,5.56-7.13.91-1.33,2.82-4.38,5.7-18.39,2.29-11.11,1.81-12.74,4.14-17.1s3.61-4.14,5.41-8.41C903.56,1517.48,901.39,1515.71,904.07,1509.32Z"/><path d="M830.79,1560.35c2-2,6.4-1.45,9.13.43a10.05,10.05,0,0,1,3.85,6.56c.28,1.51.58,3.05-.15,4.42-2.08,4-11.45,4.24-13.82.57-.73-1.13-.58-2.89-.29-6.42C829.77,1562.81,829.9,1561.27,830.79,1560.35Z"/><path d="M830.94,1591.29c-1.56.86-1.37,2.08-3.14,4.85s-3.2,3.49-2.85,4.56c.28.85,1.43,1.17,2.85,1.57s3.24.9,4.7,0c1.16-.72,1.49-1.94,2-4s1.53-6.09-.28-7.27C833,1590.19,831,1591.24,830.94,1591.29Z"/><path d="M830.79,1610.11c1.1-1.36,3.91-.63,5.28,0a4,4,0,0,1,2.14,1.71c1.12,2.29-1.21,6.28-3.42,6.27-1.76,0-3-2.52-3.43-3.42S829.76,1611.39,830.79,1610.11Z"/><path d="M819.1,1562.78c1.44,1.11,2,2.44,2.86,4.27a13,13,0,0,1,1.42,6.56c-.23,2.32-1.27,3.29-2.71,5.85-2,3.58-4.46,8-3.56,12s4.63,4.44,5.13,9.13a12.78,12.78,0,0,1-.57,4.56c-.78,3.33-1.58,6.76-4.56,9.26a12.51,12.51,0,0,1-8,2.71c-2.13,0-4-.7-7.55-2.14a48.82,48.82,0,0,1-10.84-5.56c-3.85-2.69-5.77-4-6.55-5.7-2.51-5.33,2-10.37-1.29-15.39-1-1.58-1.91-1.74-2-2.86-.21-2.65,4.78-3.83,12.26-8.41s11.07-6.77,13.83-10.69c1.36-1.94,2.39-4,4.84-4.85A8,8,0,0,1,819.1,1562.78Z"/><path d="M680.11,1606.4c-1,1.1,2.47,5.13,10.4,18.11.61,1,1.38,2.25,2.29,4a80.44,80.44,0,0,1,4.27,10.26c1.14,2.79,4.11,5.7,10,11.41,7.3,7.08,8.22,7.08,14.12,13,4.18,4.17,8,8.43,9.83,10.55,3.82,4.35,5.7,6.83,9.55,10.41,5,4.61,7.5,6.9,9.84,6.27,3.44-.94,2.21-6.76,7.41-10.55,2.76-2,5.92-2.44,9-2.85,5.2-.71,6.55.58,10.13-.71,1-.36,5.92-2.28,6.41-5.71.27-1.84-.82-3.73-6.84-9s-13.66-11-14.26-10.26,8.21,9.19,7.27,10.26c-.64.74-5.12-2.9-7.41-1.28-1,.69-.67,1.72-1.71,2.42-2,1.36-5.63-.76-6.27-1.14-4.37-2.56-6.21-7.19-6.7-8.55-1.36-3.79-1-6.61-2.14-6.85-.83-.16-1.22,1.22-3.57,3a10.8,10.8,0,0,1-5.13,2.42c-1,.13-2.75.11-5.56-1.42a22.9,22.9,0,0,1-8-7.56c-8.39-12.74-12.59-19.11-18.11-21.1-4.61-1.66-6.64.22-10-2.42s-2.86-6-7-9.55C685.06,1607.06,681,1605.43,680.11,1606.4Z"/><path d="M763.65,1605.12c1.6-2.58,10.4-1.41,11.26,1.71.49,1.78-1.55,4.44-4.13,5.13-3.17.84-6.09-1.54-7-4C763.52,1607.25,763.08,1606,763.65,1605.12Z"/><path d="M739.7,1598.7c1.41-2.47,9.21-.91,14.11,2.43,1.55,1,2.15,1.83,2.28,2.7.39,2.53-3.07,5.89-6.56,6-3.18.09-5.35-2.56-7-4.56C741.39,1603.85,738.66,1600.51,739.7,1598.7Z"/><path d="M807,1634.77c2.82-1.74,6.89-.78,7.84,1.14s-1.72,4.31-.43,6.7c.72,1.34,2,1.36,2,2.28,0,1.35-2.66,2.88-5.14,2.85a7.18,7.18,0,0,1-5-2.42,7.32,7.32,0,0,1-2.13-4.7C804.12,1640.34,804,1636.59,807,1634.77Z"/><path d="M720,1578.32c-1.21,0-2.07,1-2.85,2s-1.54,1.88-1.42,3c.24,2.27,4.44,4.5,6.56,3,1.45-1,1.48-3.52.85-5.13C722.74,1580.08,721.6,1578.31,720,1578.32Z"/><path d="M694.93,1567.62a4.27,4.27,0,0,0-3.27,3.57c-.5,3.2,3.36,5.69,4.27,6.27,3.25,2.09,8,2.77,8.84,1.28.67-1.16-1.23-3.32-4.7-7.27C696.74,1567.69,695.61,1567.55,694.93,1567.62Z"/><path d="M660.15,1557.5c3-.79,5.64,1,8.27,2.85,2.12,1.48,3.76,2.62,3.7,4.14-.08,2.25-3.86,3.87-6.41,4.27a9.51,9.51,0,0,1-5.13-.57c-.36-.15-5.44-2.36-5.13-6C655.65,1559.8,658.12,1558,660.15,1557.5Z"/><path d="M634.35,1515.59c.15.61,2.16-.17,7.27.43,3.76.44,5.52,1.2,7.7.14.94-.46,2.42-1.48,2.28-2.42-.21-1.4-3.87-2.07-6.28-2.14C639.48,1511.42,634.08,1514.57,634.35,1515.59Z"/><path d="M610,1492.64c-1.3,1,.51,5.78,1.14,7.41,1.06,2.76,1.74,3.1,1.71,4.56-.06,2.82-2.61,3.4-3,5.85-.54,3.41,3.41,8.51,8.55,9,2.71.25,6.31-.74,7.84-3.42,1.79-3.14-.2-7-2.71-11.84a25.59,25.59,0,0,0-6.84-8.55C616.06,1495.15,611.4,1491.48,610,1492.64Z"/><path d="M812.4,1242.16c-1.6.36-2.57,5-1.56,9.12s3.15,4.34,5.13,9.13c1.76,4.27,2.23,9.32.71,10.12-.33.17-.73.13-6.56-2.28-1.48-.62-2.14-.89-2.56-.57-.89.67,0,3.32.85,5.56a64.07,64.07,0,0,0,2.85,6.27c1.4,3,2.36,5.12,2.71,7.7.52,3.81-.28,8.91-2.28,9.41s-3.41-4.44-7.55-4.85c-2.54-.25-5.5,1.25-5.85,3.14-.28,1.51,1.18,2.84,3.71,5.13a17.49,17.49,0,0,0,7.55,4.56c2.43.63,3,.08,4,.86,2.5,1.85,2.82,7.45.29,10.26-1.19,1.32-3.27,1.74-7.41,2.57-3.23.64-4.06.5-7.56,1.14-4.93.9-7.4,1.35-7.7,2.56-.47,1.9,4.15,4.63,8.13,7,2.89,1.71,2.89,1.38,8.84,4.42,5.39,2.75,6.22,3.45,8.69,4s5.46,1.18,8-.29c3.22-1.87,1.87-5,5.13-8.26,2.43-2.47,5.62-3.21,11.4-4.57,4.47-1,6.19-.78,8.27-2.56.44-.38,3.17-2.78,3.14-6,0-3.87-4.07-4.34-7.41-9.69-2.74-4.37-1.34-6.09-4.28-14.69a71.2,71.2,0,0,0-4.14-9.55c-6.39-12.73-9.79-11.48-13.68-21-1.41-3.42-2.77-8-6.56-14.11C814.16,1242.64,813.11,1242,812.4,1242.16Z"/><path d="M712.47,1149.35c-.78,4.22,0,6.63-2,8.84a6.44,6.44,0,0,1-2.14,1.57c-4.93,2.36-9.45-2.72-13-.71-2.52,1.44-3.45,5.9-2,7.7.47.58,1.2.88,4.42,1,7.68.27,9.33-1.24,14-.28,1.7.35,2.29.73,3.42.43,3.4-.91,4.63-6.12,4.7-6.42.67-3-.33-4-2.42-12.83-1.05-4.43-1.29-6.23-2-6.27C714.39,1142.31,713,1146.32,712.47,1149.35Z"/><path d="M667.14,1223.63c.94-.63,2.17,1.13,5.55,1.56,2.7.35,3.61-.54,4.42.15,2,1.7-.14,10-3.56,10.4-2.86.35-5.41-4.94-5.7-5.56C666.77,1227.9,666,1224.41,667.14,1223.63Z"/><path d="M1491.63,1214.5c1.87-1,4.11-.65,5.78-.42a12.79,12.79,0,0,1,5.13,1.71c3.81,2.68,1.41,8.28,2.56,21.59.55,6.3,1.44,9.21-.42,10.7s-5.52.54-7.7-.86c-1.69-1.08-2.69-2.49-6-11.12s-3.44-10.21-3.42-11.55S1487.65,1216.55,1491.63,1214.5Z"/><path d="M323.14,503c-1.16-.33-3.22,1.74-3.71,3.84-1.27,5.5,8,12.15,9.12,11.27.75-.57-2.57-3.72-4-11.12C324.18,504.94,324.06,503.25,323.14,503Z"/><path d="M289.35,539.77c2.75-.66,3.43.93,6.7.71,2.21-.15,2.31-.9,7.41-2.71,3.16-1.12,4.74-1.68,5.85-1.57,3.75.36,7.27,4.11,8,8.27.21,1.22.73,4.21-1,6-2.82,2.92-8.64-.52-10.83,2.28-1.22,1.56.15,3.2-1.57,5.84a6.4,6.4,0,0,1-3.28,2.71c-2.4.78-4.68-.49-5.84-1.14-.92-.51-2.83-1.73-7.42-9.55-2.86-4.89-3.06-6-2.7-7.13C285.31,541.4,287.65,540.17,289.35,539.77Z"/><path d="M272.1,466.49c-.23-.15-1.85,3.89-5.7,6.13-4.53,2.64-7.3-.05-11.69,2.14-2.61,1.3-4.31,4.38-7.7,10.55-4,7.22-3.53,8.7-6.56,11.83a20.25,20.25,0,0,1-8.27,5.42c-3.88,1.27-5.48.3-9.83,1.71-3.21,1-3.87,2.07-7,3.71a37.49,37.49,0,0,1-16.68,4c-8.28.1-11.39-2.87-13.83-.57-1.64,1.55-1.66,4.45-1.71,10.26,0,5.22.74,5.11.29,7.56-.78,4.2-3.16,4.85-7.13,11.54-2.66,4.49-4.36,7.34-3.28,9,1.52,2.3,6.76-.48,12.55,3,1.24.74,2.65,1.62,3,3.14.65,2.87-2.92,6.37-6.13,8.12-4.12,2.25-6,.71-15.54,2.28-6.73,1.11-8.65,2.34-9.69,3.14-.83.63-4.33,3.31-5.13,7.7-.88,4.79,2.36,6.78.85,10-.78,1.65-2.8,2.67-6.84,4.7-4.49,2.26-5.19,1.76-6.7,3.14-4,3.6-3.87,11.29-2,12.11.74.33,2.36-1,5.56-3.56,4.12-3.34,4.71-4.46,6-4.28,2.48.36,2.61,4.92,5.56,5.28a11,11,0,0,1,3.71.43c.62.22,1.17.43,1.28.85a.78.78,0,0,1,0,.43c-.39,1-2.9,2.67-3,2.71-2.48,1.64-3.4,7.47-.85,9.83a5.08,5.08,0,0,0,6.41.15c1.94-1.65,1.29-5.29.43-7.27s-2.28-2.81-2-4.28a3.65,3.65,0,0,1,2.13-2.28c2.31-.92,4.78.91,5.28,1.28,1.86,1.38,1.76,2.53,4.13,7.41,2.49,5.14,3.74,7.7,5.28,9.41a5.54,5.54,0,0,1,1.71,2.71c.44,2.25-1.44,3.3-1.57,5.56-.15,2.71,2.27,5.71,4.85,6.56s4.2-.94,9.12-2.71c6.16-2.22,6.62-.41,15.4-2.71a41.33,41.33,0,0,0,10.83-4.27c2.69-1.58,4.39-2.57,5.85-4.57,2.9-4,.91-6.43,3-11.12,2-4.46,4.34-3.46,10.27-10.4,3.15-3.7,5.09-6,6.27-9.7.81-2.57.4-3.11,2-10.55.89-4.14,1.51-6.26,3.28-7.12s3.48,0,4-1c.6-1.12-1.57-2.62-1-4.14.47-1.25,2.2-.93,3.42-2.28s1-3.8.71-5.56c-.57-3.58-2-5.31-4.7-10.12-.38-.69-2.06-3.74-3.57-7.13a83.91,83.91,0,0,1-4.13-12c-2.53-8.71-2.19-10.27-1.71-11.41a11,11,0,0,1,5.13-5.13c.76-.43,6.21-3.48,9.55-1.28s2.3,7.63,4.14,7.84c1.34.16,2.64-2.72,2.7-2.85,1.32-3-.25-4.52.15-8.27.07-.7.16-1,3.28-8.13,2.27-5.2,2.43-5.55,2.85-6.7,1.64-4.56,2.46-6.84,1.85-9.12-.77-2.93-2.7-2.85-3.42-6-.5-2.18,0-4,.85-6.7C269.92,469.89,272.33,466.64,272.1,466.49Z"/><path d="M169.46,642.41c4.83-1.87,11.18.47,11.69,3.28.4,2.24-3.26,3-3.71,6.56-.55,4.36,4.37,7.3,3.14,9.4-.74,1.26-3.09,1.26-4.42,1s-2.85-1-7-7c-3.24-4.72-4.84-7.12-4.27-9.13C165.65,643.88,168.68,642.71,169.46,642.41Z"/><path d="M183.43,690c-4.44,1.32-6.62,6.6-7.84,9.56-1.07,2.57-1.87,4.52-1.86,7.27,0,2.3.92,4.66,2.71,9.26,1.34,3.42,2.5,6.4,3,6.28s-1-5.18-.43-12.69a25.9,25.9,0,0,1,2.14-9.41c.75-1.62,2.29-2.76,4.13-6,1.54-2.71,1.66-3.65,1.29-4.13C185.89,689.29,183.7,689.94,183.43,690Z"/><path d="M121.7,633.43c-2.37.28-5.49.65-8.41,3-1.73,1.39-3.06,2.45-3.28,4-.7,4.78,10.1,7.86,21,19.68a28,28,0,0,1,3.85,5c2.32,4,2.16,6.23,4.42,14,2.56,8.81,3.87,9.65,4.7,9.69,1,0,1.91-1.07,3-2.42,2.11-2.63,1.67-4.17,3.14-5.28,1.28-1,2.51-.47,6.56-.14,5.62.47,8.44.7,9.55-.57,1.48-1.69-1.05-4-1.57-10.26-.41-5,1-6,.29-12.12-.47-4.22-1.33-5.72-2.29-6.7-1.48-1.54-2.87-1.52-3.27-2.85-.5-1.65,1.29-2.75,2.85-5.85a18.33,18.33,0,0,0,1.85-8.69c-.07-2.54-.38-7.62-2.14-8-1.42-.29-1.92,2.89-5.27,4.28-2.89,1.2-4.09-.5-7.13.71-1.74.7-2.87,2-5.13,4.56-3.49,4-3.56,5.55-5,5.71-2.39.25-2.89-4.09-7.42-6.56C128.42,632.64,124.68,633.08,121.7,633.43Z"/><path d="M717.6,451.52c5.74-2.31,8.6-7.9,11.41-13.4a63,63,0,0,0,5.13-14.54c3.3-13.41,4.68-22.54,6.56-32.5,2.28-12.15,3.42-18.22,5-23.1,4-12.46,7.41-23.18,16.82-31.79,13.27-12.15,20-16.54,20-16.54,1.38-.91,5.38-3.47,6.55-8a11.91,11.91,0,0,0-.14-6c-1.86-7.78.35-11.18-.28-24.66A129.7,129.7,0,0,0,785,256.93c-2.56-11.05-4.31-12.69-5.13-21-.65-6.5-.14-11.24.57-18,.91-8.52,2.65-14.62,6.13-26.8a17.28,17.28,0,0,1,1.85-4.57c2.14-3.5,4.38-3.93,4.85-5.84.65-2.6-2.68-5.05-5.84-8.27-8.66-8.78-6.83-13.77-15.83-24.09-.87-1-3.07-3.46-5.84-7.13-.73-1-2.48-3.31-4.14-5.84a67,67,0,0,1-7.27-13.83,49.84,49.84,0,0,1-2.56-21A60.3,60.3,0,0,1,756,82.86c3.44-9.3,7.9-15.69,16.68-28.08,5-7.12,7.5-10.72,11-14.69,7.56-8.64,12.52-14.3,20.81-19.24C810,17.52,816,15.15,819.67,8.73c2-3.46,1.56-5.16,1.14-6S819.09.29,813.26,0a40.23,40.23,0,0,0-20.67,5.14c-4.89,2.71-8.17,5.69-14.54,11.54-6.22,5.71-8.55,8.53-13,13-6.94,7-7.74,6.59-24.37,20.67C726.72,62.19,726.62,63,719,68.75a175.28,175.28,0,0,1-20,13.4,169.18,169.18,0,0,1-30.08,13,63.78,63.78,0,0,1-10.84,2.42,69.86,69.86,0,0,1-11.26.43c-19.33-.17-27.25,3.65-32.93-.85a19.2,19.2,0,0,0-4.85-3C607,93.25,604,92,601.27,93c-2.12.81-2.65,2.51-6,8.27-2.45,4.23.66-1.57-4.56,7.41-4,7-6,10.67-8.55,15.12-5.35,9.45-8,14.18-10.55,17.1-3.65,4.22-4.2,3.53-10.69,10.12-5.43,5.53-8.15,8.29-10.55,12.12-3.55,5.67-2.91,7.64-8,20-1.34,3.24-2.46,5.67-4.71,10.55a317.56,317.56,0,0,1-16,31.08c-3.18,5.35-2.58,3.89-5.13,8.27-8.68,14.88-9.43,21.11-17.39,33.36-3.12,4.79-2.56,3.16-6.56,9.12-7.93,11.83-9.15,16.82-15,25.09-2.78,4-6,7.34-12.54,14.11-9.1,9.47-18.13,18.87-31.79,28.23-8.59,5.89-13.74,9.42-22,12-4.73,1.47-6.29,1.32-20.81,4.13-14.72,2.85-12.89,3-19.39,4-10.22,1.62-20,3.09-31.93,1.14a96,96,0,0,1-14.54-3.7c-9.35-3.12-13-5.83-21-6.56a40,40,0,0,0-9.84.28c-9.59,1.57-14.06,6.63-23,12.69-8,5.45-15.54,8.53-30.65,14.68-13.13,5.36-17.61,6-21.81,5.85-7.51-.21-13.86-2.75-17.68-4.28-9.39-3.75-11.28-7-18.67-8.69-5.21-1.2-10.34-2.45-14.83,0-5.61,3.05-3.88,8.38-10.69,20.67-3.94,7.11-7.06,12.73-13.55,16.68-4.24,2.58-6.84,2.57-11.54,6.27a37.37,37.37,0,0,0-8.27,9.41c-9.77,14.64-10.23,21-17.68,30.79-4.7,6.17-5.38,4.78-11.26,11.55-4.91,5.66-7.85,10.57-19.1,35.21C63,531.81,59.6,541,58.26,544.76a192,192,0,0,0-6.56,20.52s-3.72,15-2.56,40.35c0,0,.34,7.51,4.56,12.4.32.37,1.29,1.5,1.71,1.28s-.06-2.12-.29-3.13c-.85-3.75.08-6.5.57-9.84,1.31-8.73-1.74-11.87,0-22.81.77-4.76,1.61-5.85,2.57-6.27C61.13,576,66,580.32,68.67,584c2.18,3,2.25,4.56,5.27,14.11,2.44,7.72,3.69,11.64,5.42,15,3,5.85,4,5.17,5.84,9.84,2.25,5.82,1.56,9.12,4.57,11.12,2,1.32,2.78.19,6.27,2,2.89,1.5,3.8,3,5.84,2.86a5.7,5.7,0,0,0,3.28-1.72c1.42-1.3,1.46-2.38,2.57-4.27a16.23,16.23,0,0,1,4-4.42c1.54-1.28,3.73-3.1,6.56-3.57,2.6-.42,5.24.81,10.41,3.28s6.32,3.71,8.83,3.42a8.25,8.25,0,0,0,5.28-3c2.36-3,2-7.2.43-10A10.48,10.48,0,0,0,137.1,614c-4.7-1.42-7.36,1.13-9.13-.57-2.34-2.25.44-8.54.57-8.84,1-2.19,1.71-2.35,3.42-4.85s5.65-8.24,4-12.54c-.84-2.18-2.19-1.59-5.14-5.28-1.56-2-3.67-4.58-3.7-7.69,0-1.57.48-3.46,4-7.56,5.52-6.46,11.09-13,18.53-13,3.36,0,5.13,1.33,8,0,1.72-.81,2.42-1.93,5.27-5.42,3.42-4.2,2.15-2.27,5.84-6.84,5-6.24,7.56-9.35,8.13-10.84,1.54-4,1.25-7.75.71-14.54-.48-6.11-1.47-8-.14-11,1.61-3.62,4-2.89,6.56-6.27,5.13-6.69-.59-14.18,4.85-21.1a13.4,13.4,0,0,1,6-4.27c4.88-1.82,11.27-1,14.4,2.42a10.29,10.29,0,0,0,1.71,1.85c3,2.18,7.05,1.24,8,1,3.54-.91,3.5-2.66,9.55-7.27,4.58-3.49,6.87-5.24,10-5.85,2.81-.55,4.75-.08,5.84-1.56s.72-3.92-.14-5.56c-1.16-2.2-2.9-2.29-3-3.71-.13-1.95,3-3.58,3.56-3.85,2.88-1.48,5.72-1.16,8.13-.85,4.07.51,7.31.93,8.69,3.27,1.07,1.83.24,3.47,2,7.56.71,1.66,1.05,1.87,1.28,1.85.89-.06.78-3.63,2.28-7.55a21,21,0,0,1,4-6.42c3.69-4,9.69-7,13.55-7a4.54,4.54,0,0,0,2.56-.57c1.43-.89,1.21-2.18,2.57-3.28,1-.78,1.53-.52,3.71-1.14,2.95-.84,2.79-1.56,4.7-2,2.82-.64,6.85.08,8.27,2.43.71,1.17.59,2.46,1.42,2.7s1.73-.73,2-1c2.63-2.66,6.41-3.83,9.55-5.85,4.55-2.92,3.82-1.73,14.26-7.41,3.41-1.86,3.74-2.12,4.7-2.14,4.13-.07,5.42,4.63,12.4,11,5.26,4.77,6.13,3.57,10.84,8.41,3,3.12,3.82,4.8,6.84,6.56,1.54.89,5.12,3,9.27,2.42,3.4-.46,4.14-2.28,13.26-9.27,2.88-2.21,4.32-3.31,6.27-4.56a61.59,61.59,0,0,1,13.26-6.27c11.53-4.17,18.35-6.63,28.79-8.7,12.27-2.42,18.4-3.64,23.1-2.28s8.28,3.79,12.69,2.14c3.42-1.29,3.95-3.8,8.27-5,3.93-1.09,5,.6,7.69-.71,3.47-1.67,2.44-4.73,6.42-8.41.47-.44,5.21-4.71,10.55-3.85,1.3.21,1.11.47,4.7,2,4.84,2,7.26,3.07,10,3,1.71-.05,1.22-.42,7.56-2.43,5.48-1.73,6.54-1.68,7.84-3,1.59-1.61,1.6-3.32,2.28-7.27,1.42-8.27,2.2-12.77,4.56-13.83s6.1,1.93,11.41,6.56c9.17,8,9.31,11.53,16.11,15.39,1.76,1,5,2.1,11.54,4.28,7.52,2.52,11.33,3.76,13.4,2.85,4.38-1.9,3-7.13,9.41-12.4a13.94,13.94,0,0,1,6.85-3.56c4.05-.63,7.71,1.27,13.54,5.56,7.17,5.26,9.78,8.35,15.11,13,9.35,8.09,9.65,5.78,18.1,13.26,6.24,5.51,7.26,7.82,16.26,15.68,7,6.09,9,7,10.69,7.55,4.51,1.47,6.07.18,17.53.15C714.32,451.78,714.8,452.65,717.6,451.52Z"/><path d="M131,1481.23c-5.08,9.47,2.54,15.14-1.29,29.94-2.11,8.19-5,8.68-5.27,15.82a29.62,29.62,0,0,0,6,18.39c2.59,3.52,5,6.84,9,7.28,5.46.59,10.24-4.74,12.26-7,2.18-2.44,3.73-3.85,4.13-6.27.61-3.72-2.07-4.73-2.56-9.84-.47-4.84,1.8-5.38,1-9.69s-3.11-4.61-3.28-8.41c-.11-2.47.78-4.25,2.29-7.28,2.28-4.59,3.7-4.78,6.41-9.55,2.12-3.71,3.42-6,3.28-9.12-.19-4.21-2.86-7.15-4.13-8.55-1.1-1.21-5.71-6-12.26-6C139.63,1470.93,133.72,1476.09,131,1481.23Z"/><path d="M159.91,1423.78c-2.73-.21-5.57,1.68-5.85,3.71-.32,2.27,2.83,2.94,4.42,7.27,1.21,3.29.29,5.33,1.28,5.7,1.41.53,4.63-3,5.56-7a8.29,8.29,0,0,0-.28-5.56C164.8,1427.39,163.28,1424,159.91,1423.78Z"/><path d="M581,1647.89a9,9,0,0,0-5,7.84c.08,3.65,3.19,6,6.27,8.26,1.43,1.07,5.84,4.15,15.11,5.85,3.2.59,14.59,2.68,15.68-.14.53-1.37-1.78-2.76-10.12-10.12s-13.9-12.95-19.39-12.41A7.84,7.84,0,0,0,581,1647.89Z"/><path d="M592.43,1645.18a35.61,35.61,0,0,1,12.12,6.41c2.55,2.08,5.06,4.12,7.13,7.7,1.94,3.37,2.2,5.85,3.85,6.13s2.29-2.36,5.27-4.13c5.4-3.21,11.12,1.06,14.12-2,1.15-1.18,1.2-2.72,1.28-5.13.2-6-2.29-10.28-4.13-14.4-2.74-6.11-1.5-6.21-4.57-15.54-2.24-6.83-5.94-17.81-14.25-28.94-4.26-5.7-8-10.56-14.69-13.54-5.61-2.5-6.54-.67-12-3-6.48-2.77-7.11-6.19-18.68-17.67-5.12-5.09-7.68-7.63-10.83-9.7a50.57,50.57,0,0,0-20.1-7.55c-4.41-.72-7.88-1.26-12.41-.29-5,1.06-8.29,3.31-11.4,5.42-5,3.35-8.2,5.54-9.69,9.84a15.52,15.52,0,0,0,0,9.55c1.94,6.25,7.09,9,6.41,10s-4-1.88-10.83-2.85c-3.74-.54-4.92,0-6.7-1.29-2.22-1.55-1.72-3.25-4.42-6.41-1-1.2-3.8-4.44-6.13-3.85-1.64.41-1.56,2.32-3.42,3.85-2.25,1.82-4.9,1.13-8.7,1-9.65-.34-13.93,3.39-15.68,1.15-1.57-2,.88-6.27,1.14-6.71,2-3.43,4.52-3.41,9-6.84,3.2-2.46,6.92-5.32,7.84-9.83,1.09-5.35-2.33-10.1-2.57-10.41-2.85-3.84-5.86-3.33-6.84-6.42-1.08-3.4,2.27-4.91,1.43-9-.46-2.22-1.55-2.19-5.42-7.84-2.13-3.12-3.2-4.7-3.28-6.13-.2-3.59,2.91-6.48,5.13-8.55,2.66-2.48,3.37-2.11,8.41-5.42,6.63-4.35,7.86-6.6,11.12-6.42,1.1.07.95.32,5.28,2,4.68,1.81,7,2.72,8.55,2.85,3.09.27,6.15-1.15,12.26-4,4-1.85,5.95-2.77,6.56-3.42,4.77-5.15-.63-12.15,4-19.1,2.34-3.53,4.31-2.6,6.27-6.42,3.18-6.17.29-12.94.15-13.26-1.67-3.74-4.33-5.62-8.27-8.41a48.24,48.24,0,0,0-13.69-6.7c-1.45-.39-3.6-.87-3.56-1.28.08-.87,9.86.77,11.26-2.43.82-1.86-1.55-4.66-2.42-5.7-3.57-4.21-7.48-3.84-8-6.27s3.29-3.2,4.42-7.41c1.09-4-1.14-8-3.13-11.55-1.88-3.34-3-5.36-5.42-6.84-5.39-3.32-10.32.25-14.11-3.43-1.64-1.58-2.49-4-1.86-4.7.48-.56,1.67,0,6.13.86,3.24.62,3.79.56,4.28.42,2.1-.59,3.21-2.6,4.13-4.27,1.21-2.19,3-5.42,2.14-8.84-.9-3.62-3.74-3.44-6.41-8.41-1.12-2.08-2.65-4.93-1.71-7.56.53-1.51,1.63-2.26,8.27-5.56,4.5-2.24,10.4-5.13,10.4-5.13,7.19-3.52,7.68-4,8.13-4.71,2.71-4.51-1.42-11.54-3.85-15.68-2.18-3.71-7.6-12.94-13.4-12.26-2,.24-2.26,1.43-10,5a9.93,9.93,0,0,1-4.71,1.14c-2.09-.06-2.35-.86-4.7-1.42-3.84-.93-7.7.08-9.55.57-2.61.68-3.43,1.35-4,.85-1.13-1-.06-5.61,2.71-7,2.22-1.11,3.72.8,9.4.85,2.56,0,4.48,0,5.56-1.28,1.23-1.47.73-3.82.29-5.85-.93-4.32-3-5.91-2.28-6.84.82-1.11,4.74-.19,7.7,1.86s2.65,3.73,5.27,5.13a10.08,10.08,0,0,0,8.84.14c3-1.5,2.81-3.74,6-5.85a13,13,0,0,1,6.7-2c2.2,0,3.95.59,7.13,1.71,3.51,1.23,3.55,1.72,4.84,1.71,3.18,0,6.95-2.94,7.27-6.13.35-3.44-3.57-4.58-3.28-8.27.26-3.16,3.4-5.45,4.71-6.41,3.29-2.41,4.81-1.35,6.7-3.28,2.58-2.65.81-5.72,2.42-10.55,1.21-3.61,3.44-5.64,7.27-9.13,5.75-5.22,8.84-5.18,14-10.69,2.61-2.8,4.64-5,4-6.41-1.17-2.59-9.66.19-24.38-1.29-7.73-.77-10.39-2-11.41-4.13-1.31-2.71,1-5-.57-9.41a12.93,12.93,0,0,0-4.27-5.7c-4.11-3.21-6.39-1-9.84-3.71-3.69-2.85-2.32-6.28-7.13-10.12a16.63,16.63,0,0,0-3.85-2.28c-3-1.28-5.93-1.4-12.26-.71-9.78,1.06-13.77,2.53-15.68.28-.88-1-.65-2.06-2.14-3.42-1.91-1.75-3.92-1.53-4.13-2.57s1.27-2.47,3-3c3.32-1,5.1,2.44,9.7,2.14a34.73,34.73,0,0,0,4.84-1.43c4.32-1.4,4.84-1.84,6.56-2.28.81-.2,2.91-.67,9.27.14,5.74.74,8.61,1.11,11,2.14,7.31,3.2,6.12,8.3,13.69,12a31.05,31.05,0,0,0,10.83,2.71c5.32.22,8.51-1.25,10.7.85,1.85,1.78,1,4.23,3,5.42,1.38.82,3.21.5,5.56-.43,5.68-2.25,7.93-5.5,11.26-8,2.62-1.94,8.21-3,19.39-5,11.91-2.16,11.1-.89,16-2.57,2.76-1,5.26-2.13,8.55-1.42,3.62.77,5,3.14,6.56,2.42,2-.9,2.73-5.88.71-8.27-1.38-1.64-3.09-.9-5.42-3-.48-.43-2.83-2.55-2.42-4.56.33-1.61,2.2-2.09,5.7-4,4.81-2.62,3.84-3.11,7-4.57,5.74-2.65,9.68-1.34,11.12-4.13a3.81,3.81,0,0,0,.28-3.14,3.1,3.1,0,0,0-1.56-1.42c-2.18-1.09-4.15-.55-5.85-.57-3.65,0-6.42-2.66-7.84-4-.84-.8-5.52-5.2-4.56-10,.62-3.1,3.33-5,7.55-8s5.47-2.58,6.7-4.56c2.42-3.88,1-10.52-2.7-12.83-1.68-1-3.37-.93-5.28-.86a88.71,88.71,0,0,1-20.53-1.56c-7-1.53-5.38-3.38-13.11-5.14-7.39-1.67-10.81-.42-14.12-3.56-2.38-2.26-4.09-6.23-2.71-8.7,1.1-1.95,3.77-2.33,5.42-2.56,4.73-.67,7.37,1.27,16.4,3.42,5,1.2,5.82,1,6.41.57,3.7-2.56-.37-12.51,2.57-14,1.28-.64,2.29,1.13,6.13,2.28,3.45,1,6.27.69,10.83.14a46.5,46.5,0,0,0,10.12-2.28c4.08-1.42,4.8-2.33,7.7-2.56,1.8-.15,5.37-.44,7.56,1.71s1.72,5.24,3.13,5.41c.53.07,1.12-.47,2.28-1.56,2.1-2,2.44-3.08,3-3,.93.14.69,3.34,1.71,7.41A25.28,25.28,0,0,0,669.56,1115c3.28,2.26,6.14,4.24,8,3.27,2.26-1.18,1.86-6.18,1.43-11.54-.67-8.33-2.47-10.28-1.14-14.12.5-1.44,1-2,6.84-7.55,9.5-9.12,10.91-10.39,12-13.26.47-1.26.3-1.26,1-10,1.09-13.53,1.45-12.64,1.29-15.4-.55-9.46-4.22-10.44-3.14-16.82.94-5.57,3.86-5.57,5.84-11.69,1-3.11,1.41-6.67-1.28-20.24-2.22-11.22-3.34-16.83-5.13-21.24-5.09-12.54-12.63-20.12-10.26-26.66a17.24,17.24,0,0,1,2.28-4.42c2.75-3.51,6.21-4.16,6.13-6.13-.06-1.16-1.31-2-1.57-2.14-2.5-1.61-5.14.87-7.27-.28-1.92-1-2.38-4.46-2-6.85.72-4.43,4.54-6.41,9.55-10.69,6.22-5.3,4.25-5.57,11.41-12.4,11-10.49,14.83-9.05,17.68-15.54,2.53-5.79.46-9.16,4.41-13.54,2.39-2.64,3.88-2.23,7.7-6.28A26.85,26.85,0,0,0,738.7,864c2-4.28,1-5.72,2.71-6.85,2.48-1.68,4.82,1.37,11,.58,2.88-.38,4-1.26,5.27-.43,1.92,1.2,1.31,4.14,3.56,5.41a5,5,0,0,0,2.86.43c.61,0,7.86,0,11.12,3.42,2.19,2.33,2.94,6.64,1.28,9.13s-4.35,1.11-7.41,3.56c-3.47,2.78-4.9,8.44-4,12.83,1,4.93,4.53,6.3,3.71,10.12a8.41,8.41,0,0,1-2.85,4.42,8,8,0,0,1-5.13,2c-4.43-.23-5.11-5.86-9.55-6.42-2.46-.3-2.65,1.36-7,2.43-5.94,1.46-8-1-10.69.71-4.21,2.8-3.91,12.54-.86,14.11,1.41.73,2.78-.6,3.85.29,1.75,1.44-1.24,5.48.57,8.41,1.67,2.69,6.25,2.59,7.13,2.57,3.26-.08,5.69-1.59,8.41-3.28,3.87-2.41,3.74-3.49,6.27-4.42,2.06-.76,4.4-.47,9,.14,6.35.85,9.56,1.32,11.26,3.56,1.49,2,1,3.85,2.14,4.14,1.46.38,3.11-2.65,6.27-7,6.36-8.74,7.64-7.41,9.41-11.83,1.57-3.93,1-6.12,3.7-11a13.39,13.39,0,0,1,3-4.13c3.5-3,8.07-2.84,11.12-2.71,3.83.16,8.34.35,12,3.85.87.84,5,5.1,4,9.41-1.28,5.27-9,5-10.26,10.55-.58,2.66.7,5.09,1.85,7.27,2.28,4.3,4.32,3.71,8.27,8.69,3,3.73,2.91,5.43,6.27,8.42,2,1.74,3.55,3.15,5.28,2.85,1.43-.25,3.17-1.71,5.56-10.27a85.34,85.34,0,0,0,2.85-14.68c1.24-15.94-2.23-20.48,1.81-25.81,1.61-2.12,2-1.23,8.45-6.12a111.87,111.87,0,0,0,11.41-10.13c11.37-12,7.45-19.17,18.67-29.93,2.94-2.82,5-4,8.42-8.13a58.14,58.14,0,0,0,8.26-13.26c7.2-17.47-5.25-31.31,2.86-42.62,3.44-4.81,5.55-7.7,5.55-7.7,4.88-6.66,6.16-8.16,6-10.41-.09-1.25-.63-2.69-6.84-8-7.14-6.09-9.32-6.66-14-11.12a47.57,47.57,0,0,1-7.41-8.7c-4.89-7.5-3.13-10-7.13-14.54-4.15-4.71-9.75-6.23-13.55-7.27-1.47-.4-5.71-1.46-14.39-1-5.75.31-10.22,1.1-19.39,3.14-15.09,3.35-26.66,6.41-26.66,6.41-14.24,3.77-14.36,4.24-18.39,4.57-5.89.47-11.76-.49-23.24-2.43-10.44-1.76-15.67-2.64-19-4.27-9.13-4.54-14.53-12-17.68-16.26s-4.77-6.54-6-10.4c-1.69-5.36-.62-8-3.28-12.69-1.13-2-3.14-5.55-6.7-6a7.7,7.7,0,0,0-5.71,2c-2,1.91-1.49,3.84-2.7,6.84-1.67,4.13-3.73,3.3-7.27,8.13-4,5.46-2.55,8.11-6.71,12-2.59,2.42-3.71,1.88-5.13,4-1.87,2.79-.67,4.83-.57,11.69.13,8.31-1.56,9.76-.71,17.82.21,2,.48,3.52.28,3.57-.44.1-2.65-7.24-4.13-14.26-1.3-6.14-1.94-9.29-1.43-13.11.38-2.78,1.18-5.1,3.43-9.7,3.58-7.33,6.55-13.42,12.54-20.67s9-10.92,14.54-13.83c5.2-2.74,9.32-3.15,12.12-7.55a18.41,18.41,0,0,0,2.42-8.7c.45-5.43-1.27-6.89-.57-12.55.48-3.8,1.3-3.54,1.57-6.84.22-2.63.67-8.2-3.28-12.26a12.61,12.61,0,0,0-11-3.56c-3.67.67-3.56,2.7-7.13,3.56-6.12,1.48-9-3.83-13.69-2.14-3.83,1.39-3.08,5.38-8.27,7.84a12.2,12.2,0,0,1-7,1.14c-5-.81-4.27-7-10.55-11.12a18,18,0,0,0-8.13-2.7c-2.59-.28-7.19-.77-9.55,1.85-1.83,2-.5,3.92-2.71,7.13a9,9,0,0,1-4.42,3.7c-4.42,1.39-6.91-3.61-11.54-2.7-3.42.66-5.73,4.11-7.56,6.84-2.85,4.25-2.53,6.87-5,7.84s-4.09-1.23-6.7-.14c-2.43,1-2.47,3.5-4.28,5.7-2.41,2.94-5.95,2.9-13.4,3.71-9.3,1-15.52,1.67-22.66,3.56A55.2,55.2,0,0,1,561.36,657c-3.3.19-7.91.12-8-.57,0-.23.39-.91,13.12-3.71,6.42-1.41,9.3-1.8,17.25-3.42s11.75-2.41,13.4-3.42c5.82-3.55,5.71-7.49,11.55-9.69a51,51,0,0,0,7.41-3.28,23.31,23.31,0,0,0,3-1.86c2.28-1.68,2.73-2.69,5-4.84s3.58-3.39,5-3.71c2.67-.6,3.74,1.33,7.27,2a13.44,13.44,0,0,0,10.27-2.28c3.84-3,2.21-6.62,6.41-9.7a11.62,11.62,0,0,1,7.27-2.14,12.45,12.45,0,0,1,7.13,3.14c3.06,2.58,2.82,4.62,4.7,5s3-1.57,7.28-4.28a34,34,0,0,1,6.41-3.28c6.18-2.1,10,2.75,22.67,5.56,5.57,1.24,9.8,2.13,11.83-.14,2.55-2.85.13-9-.14-9.69a20.5,20.5,0,0,0-5-7c-2.57-2.78-3.65-5.58-6.56-18.53-2.72-12.09-4.49-21.71-5.84-28.94-3.21-17.09-3.08-15.36-3.28-17.25-1.92-17.52,2.77-17.42,1.14-34.07-.7-7.15-2.23-13.94,1.71-19.53,1.27-1.82,2.45-2.55,3.56-5.14,2.21-5.14-.12-7.71,2.14-12.26,1.7-3.41,4.27-4.46,3.71-6-.46-1.24-2.48-1.52-4.85-1.86s-4.9-.33-10.41.57c-4,.66-3.81.86-5.27,1-4.38.43-8.21-1.15-12.55-3.56a89.93,89.93,0,0,1-16.11-11.69c-12.65-11.2-10.53-10.59-17.25-16-10.91-8.74-14.13-8.45-17.39-14.54-1.75-3.27-2.57-6.63-6.13-8.55a12.43,12.43,0,0,0-9-.72c-2.34.75-4.44,2.79-8.55,6.85-4.48,4.41-3.7,4.31-4.71,4.84-5.93,3.15-11.37-4.7-20.81-3.13-5.37.89-6.19,3.85-10.41,3.13-5.72-1-9.07-7.23-9.55-6.84-.31.25,1,2.92,3.28,5.42,3.1,3.37,6,4.22,5.7,5.27s-4.1,1.15-4.7,1.14c-2,0-2.68-.43-6.28-1.14-3.44-.67-3.18-.35-5.13-.85-3.73-1-4.11-2-6.41-2.28-2.09-.28-3.22.38-7,1.71-2,.69-4.68,1.46-10.12,3-8.39,2.37-9.17,1.89-11.41,3.56a16,16,0,0,0-5.27,7.28c-1.31,3.74.09,4.61-1,8.26-.64,2.17-2.72,4.61-6.84,9.41s-4.73,5-6.84,8c-2.39,3.41-2,3.73-3.71,5.56a20.51,20.51,0,0,1-8.55,5.27c-3.16.95-3.55.18-4.57,1-4.22,3.42,2.82,16.63-.42,18.67-.87.55-2,0-3.71-.71a12.47,12.47,0,0,1-7.27-11.69c0-.64.3-4.89,2.85-6.13,1.57-.76,2.65.28,4-.57,1.71-1.08.89-3.35,2.14-6.56,1.59-4.06,4.25-3.87,4.7-6.55.73-4.33-5.55-8.71-6.55-9.41-3.09-2.16-5.12-2.32-12.55-4.71s-6.5-2.59-10.12-3.56a55.87,55.87,0,0,0-30.08.71c-2.36.73-1.36.6-5.42,2-16.95,5.84-20.54,3.36-25.52,8a53.12,53.12,0,0,0-8.41,11,11.5,11.5,0,0,1-3.85,4.56c-2.19,1.4-3.61,1-5.41,2.28-2.38,1.7-2.89,4.55-3.28,6-2,7.29-9,8.2-15.26,16.68-1.67,2.28-9.3,12.65-6,20.24,1.72,3.94,5.31,4.66,10.12,12.69a20.73,20.73,0,0,1,2.42,4.85c2,6.47-.53,12.59-1.57,15-4.22,9.71-10.42,9.82-10.69,16.4-.16,3.9,1.84,8.15,2.57,9.69,1.87,4,3.4,4.68,3.85,7.84.58,4.1-1.51,6.21-.15,7.7,1,1.14,2.47.13,7.13.86,2.38.37,4.21.68,5.85,2a9.17,9.17,0,0,1,2.85,4.56c1.58,4.8,1.34,11.78-2.28,18.25-2.38,4.24-5.4,6.85-8.56,9.55-6,5.16-8.6,5-10.69,9-1.78,3.4-2.69,8.85.14,11.69a6.18,6.18,0,0,0,5.28,1.71c3-.57,3.67-3.55,6.27-6.7,4.29-5.19,10.34-6.73,17.54-8.56,5.53-1.4,8.3-2.11,10.83-.71.77.43,3,1.83,5.7,12.54,2,7.92,3,11.89,2.57,16.4-.52,5-1.92,5.35-4.42,15.54-1.26,5.13-.83,4.76-2,9.69-3.2,13.62-6.65,17.23-4.42,21,2.44,4.07,9.14,4.13,9.41,4.13,6.9,0,10-6,13.55-4.42,2.62,1.18,3.15,5.43,3,7.7-.31,4.4-3.65,8.21-7.13,9-2.51.56-3.47-.84-5.56.15-2.61,1.23-2.3,4-4.7,5.13s-5.16-.36-6.13-.86c-3.63-1.86-3.79-4.52-8.13-11.69-4-6.61-5.65-7.31-6.41-11.4a12.61,12.61,0,0,1,.57-8c.88-1.84,1.84-2.32,7.27-7,4.89-4.21,5.46-5,5.7-6.13.76-3.59-2.48-7-3.28-7.84a15.84,15.84,0,0,0-8.84-4.42c-5.69-1.13-11.52.14-17.39,1.42a14.21,14.21,0,0,1-4.56.57c-2.41-.17-3.44-1-8.7-3a23.16,23.16,0,0,0-4.42-1.43c-3.34-.37-7.58.76-8,2.86-.22,1.14.74,2.45,1.71,3.13,2.39,1.68,4.91-.38,6.7,1.14,1.52,1.29,1.12,4,1,4.85-.27,1.88-1.45,5-3.57,5.42-2.72.57-4.14-3.87-7.69-4-2.71-.1-5.43,2.34-6.7,4.7-3.45,6.39,3.41,12.69-.29,19.39a12.29,12.29,0,0,1-4.13,4.27c-.8.47-3.45,2-5.42,1.43-2.2-.69-3-4-4.13-13.54-2.1-18.37-1-23.85,1.56-27.8a26.09,26.09,0,0,1,2.71-3.42,27.18,27.18,0,0,1,9.27-6.13c2.11-.76,3.13-.76,3.56-1.71.51-1.13-.49-2.11-1.28-5.56-.42-1.86-.63-2.81-.29-3.57.69-1.51,2.4-1.41,4.71-2.85a14.35,14.35,0,0,0,3.85-3.85c3.68-4.68,2.41-7.51,5.13-12,3.52-5.8,8.32-5.42,8.55-9,.17-2.6-2.32-3.42-6.27-8.27a46.29,46.29,0,0,1-8.12-15.4c-2-6.33-.58-6.81-2.71-13-1.24-3.57-3-8.51-7.42-12.69-4.86-4.61-12.56-7.94-15.54-5.56-.62.5-1.26,2.09-2.56,5.27-1.59,3.91-1.54,4.73-2.43,5.14-1.47.68-3-1-8.12-4.14-4.11-2.51-6.21-3.78-8.7-4.13a13.38,13.38,0,0,0-8.41,1.57c-2,1.2-2.46,2.3-6.13,7-3.18,4.06-4.77,6.09-6,7.13-4.94,4.21-7.73,2.57-11.26,6.41-1.71,1.87-.9,2.09-4.13,8.7-2.47,5-3.43,5.92-5.7,11-2.85,6.3-2.84,8.24-2,9.55a5.83,5.83,0,0,0,3.42,2.14c2.23.66,3.22-.09,7.13-.43a34,34,0,0,1,7,.14c3,.33,4.57.51,5.71,1.57,1.75,1.63,2.51,4.75,1.42,5.85-1.44,1.44-4.74-2-9.55-.86-1.92.47-1.64,1.09-5.27,2.71-2.78,1.24-4.71,2.1-7.13,2.28-4.81.36-6.59-2.31-9.84-1.14-1.51.55-2.48,1.62-3.85,3.56-5.66,8-4.84,11.88-9.26,17.82-3.16,4.24-4.11,3-7.7,8-2.78,3.85-3.32,6.13-6.42,7.84a11.67,11.67,0,0,1-6.84,1.57c-2.83-.32-4-1.75-6-1.14a5.84,5.84,0,0,0-3.28,3.13c-.89,2.15,0,4.25,3.42,10.84,3.65,7,5.51,10.49,7.28,12.54.75.88,2.92,2.82,7.27,6.7a37.14,37.14,0,0,0,6.55,4.71c3.13,1.76,4.17,1.73,4.85,1.42,1.63-.73,1-2.9,2.85-4.13,1.62-1.07,2.72.17,5.42-.71s3.69-2.76,4.13-2.43-.45,3.38-2.56,5.56a10.61,10.61,0,0,1-5.71,3.14c-3.69.65-5.45-1.28-7.84.14a6.64,6.64,0,0,0-2.13,2.42,14.48,14.48,0,0,0-2.14,6.13c-.86,6.28-2.38,6.92-3,12.41-1.2,10.67,3.89,14.07.72,20.53a15,15,0,0,1-4.57,5.27c-1.92,1.49-4.54,2.87-16.25,4.13-7.44.81-11.19,1.19-12.83,0-3-2.16-4.46-7-6.13-12.4-.94-3.09-1.43-5.66-3-6-1.87-.39-3.43,2.82-4.71,2.29s-1.35-3.77-.28-6.42c1.15-2.84,2.89-2.82,3.42-4.7.85-3-3.08-5.12-6.42-10.7-2.41-4-3.14-7.61-4.41-13.82-1.56-7.6-1.31-12.78-2.14-12.84-1-.06-.93,7.5-6.13,15.12-1.86,2.72-3.83,5.51-6.85,5.84-2.31.25-3.77-1.1-9.55-4.7,0,0-3.51-2.2-7.7-4.57-9.18-5.19-11.84-3.66-23-9.12-4-2-4.68-2.66-7-3-4.07-.58-7.5.82-13.55,3.28-3.54,1.44-5.33,2.19-6.27,3.42-3.38,4.44-.41,11.74-.85,11.83s-.32-5.28-3.71-10.41c-1.24-1.87-2.73-3.4-2.57-5.7a6.32,6.32,0,0,1,1.43-3.42c2-2.31,4.42-1.64,5.13-3.28.6-1.38-.46-3.42-1.71-4.56-2-1.83-4-1-9.41-1.71-4.61-.65-6.91-1-8.84-2.85a11.88,11.88,0,0,1-3.42-7.56c-.05-1.38.24-2.05-.28-3-1-1.78-3.53-2.16-5.42-2.43-4.07-.56-5,.69-6.56-.28-2.19-1.32-2.76-5-2.14-7.56a10.46,10.46,0,0,1,3.42-5.13C42.61,649,44,649,45,647.11c.15-.27,1.31-2.45.43-3.7s-3.63-.43-4-1.29c-.44-1,3.42-2.48,5.84-6.27a15.4,15.4,0,0,0,2-9.69c-.18-2.44-.49-6.78-3-7.7-2.66-1-6,2.55-6.28,2.85-1.87,2-2.31,4.14-3,6.56-1.35,4.76-1.39,2.62-4.71,11.83-1.55,4.33-3.1,9.12-4.7,15-3.1,11.35-3.36,15.52-6.13,28.08C17.85,699.21,17.42,696,15.92,705a110.39,110.39,0,0,0-1,33.65c.84,6.31,1.44,6.31,2,11.54.51,4.83-2.66,18.32-2.82,28.41-.17,11.24,3.45,15.55.54,21.63-.48,1-2.09,4.06-1,5.28.7.78,2.3.58,3.28.14a4.76,4.76,0,0,0,2.42-3.28c.44-1.67,0-2.9-.57-5.13a57.79,57.79,0,0,1-1.42-6.84c-.44-3.78.78-3.93,1-9.13s-1-7.53.43-8.55,4,.08,5.42,1a8.21,8.21,0,0,1,2.71,3.13c3,5.82,2.22,12.79,4.84,20a36.27,36.27,0,0,0,7.42,11.69,52.53,52.53,0,0,0,8.12,7.41c6.46,4.7,9.63,4.64,10.27,7.56s-2,4.37-1.28,9.12a8.33,8.33,0,0,0,1.14,3.57c1.54,2.48,4.24,3.47,6.55,4.28,3.86,1.34,5,.63,5.71,1.71,1.48,2.28-2.43,7.52-5.42,10.4s-8.26,6.53-10,5.14c-2.11-1.72,3.61-9,.43-13.41-.88-1.2-2.54-1.85-5.85-3.13-4.87-1.89-5.45-.94-8.69-2.43-4.87-2.22-5-5-8.84-5.41-1.42-.15-1.36.24-5.28.28-4.14,0-5.11-.37-5.7-.71-.15-.09-2.92-1.73-3-4.13,0-.75.23-.92,1.71-5.56l.14-.46c.49-1.67.6-3.49,0-7-.49-2.79-.73-4.19-1.43-5.13-1-1.4-3-2.87-4.13-2.28s-.87,3.29-.86,3.42a8.25,8.25,0,0,0,1.57,3.42c1.5,2.67.26,5.35-.28,9.13-.5,3.46,0,4.83.57,10.55.79,8.5.45,14.5.57,22.52.38,25.56,5.14,50.07,1.14,60.16a31.18,31.18,0,0,0-1.71,5.7,34.78,34.78,0,0,0-.29,11.12c.54,5.56-.79,7.6-3,18.82-1.89,9.64-2.64,17-3.28,23.24-1.43,14-2.12,21.23-.43,30.93a107.72,107.72,0,0,0,4.28,16.11c2.53,7.34,4,9.29,6.13,15.54,2,6,2.66,10.36,3.85,18.39,2.3,15.61.53,15.92,2.85,29.51.63,3.71,1.5,8,3.14,17.82.74,4.45,1.11,6.67,1.28,8,1.23,9.48.56,13.13,1.28,20.82s1.81,8.11,2.57,14.54c.45,3.81.94,11-3.28,30.22-1.56,7.09-2.19,8.68-7.27,27-8,28.59-7.08,27.16-9,31.93-3.56,8.94-5.34,18.76-10.41,26.94-1.19,1.92-4.33,6.76-2.57,10,.73,1.34,2.54,2.15,6.13,3.71s5.19,1.8,8.13,3h0s3.77,1.76,7.7,4.14c2.78,1.68,20.55,14.93,44.19,33.93.25.12,5,2.5,7.84.28,1.69-1.33,1.78-3.58,1.86-6.84.11-5,.23-9.91-2.86-12.26-3.37-2.58-7,.66-11.69-2.57-.3-.21-3.55-2.51-3.13-4.7.33-1.74,2.67-1.86,2.85-3.42s-2.29-2.36-4.85-5.71a17.43,17.43,0,0,1-2.56-4.7,14.81,14.81,0,0,1-.29-9.55c.25-.73.73-1.91,3.42-5.28,5-6.21,7.45-9.31,10.41-9.26,2.78,0,5.17,2.26,6.27,4.27,1.69,3.1.7,6.42.15,8.27-.69,2.31-1.35,2.44-1.72,3.85-.85,3.33,1.85,6.38,7.27,13,8.56,10.41,7.52,9.72,11.12,13.55,4,4.26,4.12,3.84,9.41,9.12,8.78,8.76,13.17,13.14,16.54,18.11,3.49,5.15,4.31,7.81,7.7,9,2.75,1,4-.17,10.55.71,3.88.53,4,1,6.41,1,5.09,0,5.89-2.22,9-1.85,4.59.54,4.15,5.53,10.27,8.55,4.81,2.37,7.16.32,10.83,3.28,2,1.64,3,3.6,4.42,6.7a44.18,44.18,0,0,1,3.28,10.26c1.16,5.31,2.9,13.35,4.56,19.39,2.08,7.52,2.39,6,4.28,13.12,2.65,9.93,4,15.45,1.43,20.53-1.32,2.55-2.7,3.12-3.71,6.41a19.12,19.12,0,0,0-.14,9.55c1.06,5.11,3,7.15,4.56,10.55,2.88,6.46-.19,8.26.28,22.38A125.72,125.72,0,0,0,193,1484.8c1.44,7.48,1.88,6.92,2.42,10.69,1.92,13.4-3.07,25.22-5.56,30.93-4.47,10.27-7.49,10.84-9.26,19.39-.43,2.08-.48,6.47-.57,15.26-.17,15.76.69,19.68,2.14,23.23,1.53,3.77,2.31,3.69,3.7,7.7a36.87,36.87,0,0,1,1.86,15.54c-.72,7-3.11,8.45-6.85,23-.86,3.36-1.7,7,0,8.41,1.18,1,2.58,0,7.27-.14,3.39-.1,5.73-.18,8.13,1s2.53,2.49,5.13,4.42a19.66,19.66,0,0,0,7.41,3.14c4.23,1.1,11,2.91,17.11-.15,5-2.53,5.11-6.15,8.84-6.27,3.21-.1,4.17,2.55,9.41,4a24.56,24.56,0,0,0,7.84.57c7.91-.34,10.84-2.25,16-3,13.5-2,26.33,6.43,27.8,7.41a96.24,96.24,0,0,0,9.4,5.85,44.86,44.86,0,0,0,7.42,3.56c4.07,1.3,5.51.44,19-.28,5.46-.3,8.53-.33,12.26,1a30,30,0,0,1,5.27,2.71c11,6.12,18.1,2.86,21.1,7.84,1.66,2.76-.71,3.43,1.14,9.7.9,3,1.49,3,4.28,10.12a7.27,7.27,0,0,0,1.28,2.56c1.32,1.48,3.33,2,9.7,2,7.44,0,8.45-.74,10.69.43,2.65,1.39,2.83,3.26,5,3.56s4-1.31,6.56-3.7c3.85-3.56,8.49-7.84,9.55-14.26.27-1.65.24-3,1.28-3.71s2.15-.36,7.84,1.86c4.53,1.76,4.95,2.07,6.27,2.13,1.52.07,3.19-.24,7-2.28a39,39,0,0,0,9.12-6.13c8.64-7.88,8.53-14.49,14.69-17,1.9-.76,5-2,7.41-.71a4.8,4.8,0,0,0,2.42,1c1.86,0,3.23-1.94,3.57-2.42,2-2.75.53-4.31,2-8,.9-2.25,2.26-3.76,4.28-6,2.43-2.69,2.92-2.36,4-4,2.42-3.68.47-6.15,2.28-8.13,2.79-3,10.82-1,15.54,2.85.32.26,4.15,3.4,3.42,5-.64,1.41-4.53,1-5.84.86-3.7-.39-4.61-1.64-7.84-1.43a5.65,5.65,0,0,0-3.85,1.29,5,5,0,0,0-1.28,4.27c.64,3.56,5.36,4.36,11.83,10.55a4.9,4.9,0,0,1,1.85,2.85c.37,3-3.71,4.1-4,7.13-.32,3.46,4.5,7.62,9.12,8.7,3.55.83,4.37-.77,8.27.42a14.68,14.68,0,0,1,6.84,4.28c2.16,2.49,1.68,3.89,3.28,4.71,2.63,1.33,7.65-.55,9.13-3.85,1.58-3.53-2.3-5.51-1.43-12,.31-2.28,1-3.54.71-6.27-.26-2.54-1.06-3.55-.42-4.42.9-1.23,3.59-.7,7.13,0,1.27.25,2.14.49,6.84,1.85l4.42,1.29c6,1,9.5-7.32,21.24-12.69,3.26-1.5,5.34-1.92,7.41-1.85A15.79,15.79,0,0,1,592.43,1645.18Z"/><path d="M535,1433.62a6.27,6.27,0,0,1,6.42,5.13c.22,1.69-.58,3-1.43,4.42-.36.6-3.68,6.1-6.84,5.27-2.34-.61-3.33-4.35-3.28-6.84C529.9,1438.79,531.34,1434,535,1433.62Z"/><path d="M551.23,1410.24a7.38,7.38,0,0,0-2.13,3.56c-.86,3.66,1.84,6.67,2.13,7,2.91,3.14,8.34,4,9.84,2.14s-1.79-4-2.42-11.41c-.16-1.82-.09-3.1-1-3.71C556.11,1406.79,553,1408.47,551.23,1410.24Z"/><path d="M521.15,1383.44c-2.62-.48-6.14,5.26-5.13,6.55.53.68,1.87-.42,4.85-.14,3.21.3,4.73,1.87,5.27,1.28.72-.78-1.61-4-2.56-5.27C522.45,1384.33,521.86,1383.57,521.15,1383.44Z"/><path d="M523,1327.55c-1,2.08,6.14,4.44,9.12,11.84,1.26,3.13,1.08,5.41,3.28,6.84,1.16.75,1.73.45,5.27.85,6,.69,7.92,2,9.84.57a3.12,3.12,0,0,0,1.43-2.28c-.06-1.73-2.78-2.21-6.56-4.7s-3-3.27-7.7-6.56c-3.43-2.43-3.39-1.7-5.84-3.71s-3.66-3.73-5.85-3.84C525.8,1326.54,523.52,1326.45,523,1327.55Z"/><path d="M516.45,1309.88a5.65,5.65,0,0,0-2.42,2c-1.8,2.71-.67,6.75,1.42,9,3.48,3.73,10.21,3.07,10.84,1.43.32-.86-1.09-1.79-4-5A67.19,67.19,0,0,1,516.45,1309.88Z"/><path d="M518,1300.61c-1.38.28-3.45,1.15-3.71,2.57-.11.6.1,1.38,4,4.84,3.23,2.87,4.88,4.31,6.56,4.56,2.5.38,3.48-1,4.7-.14,1.64,1.11.17,3.68,1.86,7a10.53,10.53,0,0,0,4.42,4.27c2.92,1.67,4.77,1.09,7.27,1.86,3.85,1.18,5.8,4.56,8.12,8.12s3.63,5.56,3.57,8.56c0,2.47-1,3.74-.14,5.27,1.17,2,3.73,1.31,4.56,3.14.66,1.47-.74,2.47-1,5.42a11.47,11.47,0,0,0,1,5.55c1.79,4.31,4.92,4.77,5,7.56,0,2-1.54,3.55-2.14,4.13-2.9,2.83-6,1.3-9.7,3.57-1.88,1.14-5,3.92-4.7,6.56.59,4.89,12.93,8.21,20,9.26,5.15.77,7.15.28,8.69,2.14,2.54,3.06-.47,7.32,1.14,14.83.79,3.67,1.81,4,3.14,7.7,3.89,10.67-1.55,16.26.86,31.36a21.72,21.72,0,0,0,3.7,9.55,14.35,14.35,0,0,0,6.13,5.28c2.52,1,3,.18,6.85,1,2.62.56,6.19,1.32,9,4.28a13.05,13.05,0,0,1,3.13,6,7.82,7.82,0,0,1,.15,4.7c-.47,1.32-1.24,2-1,2.28s2.12-.57,5.13-1.42c2.7-.77,5-1.44,6-.43.74.79-.13,1.83.43,4.7.3,1.59.47,2.43,1.14,3,1.52,1.31,3.57-.6,7.12-.14,2.73.34,2.55,1.59,6.13,2.56,2.15.59,5.15,1.4,7.42,0,2.64-1.63,2.16-5,4-5.42,1.33-.33,2.91,1.09,5.27,4.14,5.21,6.7,5,9.41,9.13,15.39,3.56,5.13,5.65,5.9,5.56,8.84-.13,4.06-4.27,7.1-5.28,7.84-2.92,2.15-4.12,1.44-9,3.57a27.82,27.82,0,0,0-10,6.7c-2,2.19-5.62,6.22-4.27,10a6.58,6.58,0,0,0,5.41,4.13c2.33.17,3.24-1.44,7.84-3.28a23,23,0,0,1,5.14-1.56c7-1.07,13.13,3.66,13.54,4,2.14,1.7,2,2.44,7,7,2.89,2.65,3.81,3.22,4.71,3,1.29-.33,1.83-2.14,3.42-8.7,1.93-8,2-8.7,2.85-9.27,3.43-2.19,11.26,3.2,15.68,7.42,5.62,5.34,5,8.06,10.41,11.54,1.49,1,7.76,5,12.12,2.71,3.17-1.65,3.08-5.47,5.13-5.56s2.65,4.15,7.27,8.84c2,2,4.68,4.75,8.55,5.42,4.79.83,6.08-2.43,11.55-2.14,3.17.17,4.19,1.34,10.27,4.13,6.92,3.19,10.38,4.79,12.54,4.85,9.14.27,11.72-11,27.37-16.68a28.78,28.78,0,0,1,7.42-1.85c2.79-.28,5.13-.07,16.1,1.85,5.83,1,7.22,1.32,9.27.57,1.72-.63,2.72-1.56,6.27-5.7,5.71-6.65,8.6-10,9.84-13.12,1.08-2.66.88-3.5,1.85-9.12,1.76-10.1,4.27-18,7.56-28.37,1.37-4.32,2.79-8.43,3.28-9.84,1.49-4.28,2.28-6.34,2.71-7.55a48.81,48.81,0,0,0,.57-28.94c-1.54-5-2.07-3.25-5.56-12.12-3-7.66-4.58-14-3.57-20.67.31-2,.86-5.66,2.71-6.13s4.55,2.62,8.27,7c3.15,3.7,4.47,6,6.13,5.7a3.15,3.15,0,0,0,2.14-2.43c.37-1.65-.75-3.09-2-4.84-1.63-2.3-2.82-4.91-4.56-7.13-3.46-4.43-4.7-10.07-6.84-17-4.66-15-7-22.46-12.83-29.36-6.12-7.23-9-5.58-13.83-13.12a88.66,88.66,0,0,0-9.69-12.54c-1.27-1.44-3-3.39-5.42-3.42s-3,1.92-5.85,2.28c-1.56.19-3.53-.68-7.41-2.43-4.55-2-4.36-2.4-7-3.28-2-.68-2.46-.56-6.55-1.71a42.8,42.8,0,0,1-4.71-1.42c-4.74-2.71-3.27-9-7.41-10.84a6.27,6.27,0,0,0-5.13.29c-2.77,1.46-2.28,4.41-4.28,5.13-3.28,1.19-7.71-5.65-9.55-4.56-1.16.69-.35,4-.29,4.28,1.49,5.87,7.43,7.53,6.85,10.12-.33,1.45-2.49,2.12-4.85,2.85-3.27,1-4.77.47-9,.71-6.63.39-8.41,2-10,.71-1.73-1.46-1.1-4.74-.43-8.26.25-1.33,2.91-15.19,9.55-16.11,2.23-.31,3,1.1,5.14.42,3-.93,5-4.67,5.13-8s-1.62-5.79-3.71-8.84c-2.86-4.16-5.58-6-5-7.13s3.44.32,5.56-1.42c1.33-1.1,1.58-2.79,1.85-4.71a16.23,16.23,0,0,0-.85-8.55c-1.91-4.45-5-4.09-12.12-9.84a83.12,83.12,0,0,1-10.41-10.26c-2.54-3.1-3.88-5.28-7.12-7-2.54-1.33-3.25-.8-7.13-2a40.75,40.75,0,0,1-12-6.13c-4.74-3.54-5.42-5.83-8.69-6.13-2.27-.21-5.1.6-5.71,2.28-.16.46-.36,1.55,3.85,6.84,3,3.82,4,4.36,5.42,6.84.48.86,3.12,5.55,1.71,7-.85.87-2.5-.17-6-.71-1.61-.26-4.33-.08-9.69.28-3.1.21-6.27.47-10.69.71-5.06.28-6.7.25-6.84-.28-.28-1,5.33-2,7.84-6.7,1.11-2.1,1.69-5.1.57-6-1.43-1.13-5.35,1.31-8.27,3.14s-2.55,2.09-4.28,2.85c-3.53,1.56-4.73.18-8.27,1.57a17.11,17.11,0,0,0-5.7,4c-2.45,2.39-1.89,3-3.42,4-2.91,1.94-5.07-.09-10.12,1.14a19.2,19.2,0,0,0-6.56,3.14c-4.19,2.87-3.58,4.49-6.56,6.27-4.25,2.54-6.92.09-12.54,2.14-1.29.47-2.87,1.22-7.42,5.13-10.27,8.81-10.86,12.34-18.24,17.25-2.94,1.95-5.93,3.9-10.41,4.85-2.13.45-10.8,2.29-17.11-2.71a20.2,20.2,0,0,1-7.13-12.26c-.36-2.62-.07-5.29-2-6.84-.75-.61-1.78-1-4.42-1-4,0-6.34.85-10.27,1.85-7.44,1.89-9.38,1.46-10.12,3.14-.86,2,1.43,3.27,1,7.13a11.8,11.8,0,0,1-2.28,5.41c-1,1.42-2.92,4.35-6.42,5.42-2.17.67-4,.32-6.41-.14C522.19,1301.83,521,1300,518,1300.61Z"/><path d="M780.9,936.08c-2.72,1.29-1.78,4.37-5,6.85s-6.32.75-7.56,2.7c-1.66,2.62,3.76,5.73,5.71,14.55.91,4.17.53,7.22,2.7,8.41,1.27.69,2.68.36,4.85-.15,2.52-.58,5.71-1.33,7.7-3.56,2.32-2.61.83-4.83,1.14-15.54.19-6.67.84-8.33-.71-10.41C787.76,936.29,783.6,934.8,780.9,936.08Z"/><path d="M969.79,1288.92c-3.25-2.68-8.28.66-8.55.85-1.86,1.28-4.92,4.4-3.85,7.42s5.11,3.63,7.7,3.28c1-.14,4.33-.79,5.84-3.85C972.11,1294.21,972,1290.72,969.79,1288.92Z"/><path d="M1067.59,1475.25a5.08,5.08,0,0,0-.43,6.41c1.13,1.4,2.9,1.47,5.13,1.57,1.8.08,6.42.27,7.41-2.14.88-2.13-1.68-4.82-1.85-5a7.93,7.93,0,0,0-5.7-2.14C1070.75,1473.94,1068.91,1473.91,1067.59,1475.25Z"/><path d="M1142.72,1489.64c.63-1.65,7.56-2.27,9.4,1.14a4.61,4.61,0,0,1-.42,4.85,4.15,4.15,0,0,1-3.85,1.71c-.81-.18-1.1-.66-4.14-5.56C1142.75,1490.24,1142.59,1490,1142.72,1489.64Z"/><path d="M1161.11,1478.24c-2.1-.12-3.59,1.63-4.14,2.28-1.5,1.78-3.15,5.43-1.28,8a5.47,5.47,0,0,0,4.13,2,6.14,6.14,0,0,0,5-3,6.62,6.62,0,0,0-.71-7.7A4.56,4.56,0,0,0,1161.11,1478.24Z"/><path d="M1196.89,1136.09c-1.64,5.53,1,9-.86,10.7-1.15,1.07-3.36.91-4.7.14-2.58-1.48-2.1-5.31-3.28-5.42s-2.76,3.78-3.28,7.13a16.73,16.73,0,0,0,.14,6.56c1.2,5.14,5.39,11.44,9.41,11,1.81-.2,3.06-1.72,4.56-3.56,1.94-2.36,1.63-3.42,4.14-7.84,1.74-3.06,2.17-3,2.42-4.42.38-2.08-.54-2.66-1.71-7.13-.93-3.55-.75-4.68-2-7.41-.7-1.51-1.55-3.32-2.57-3.28C1197.93,1132.58,1197.12,1135.31,1196.89,1136.09Z"/><path d="M923.46,1398.26c-4.45.29-8.79,9.37-7.13,11,1.12,1.09,5.36-.89,7.56-3.56a10.78,10.78,0,0,0,1.85-3.57c.44-1.3.76-2.27.28-3C925.38,1398.14,923.66,1398.25,923.46,1398.26Z"/><path d="M636.63,1099.17c-3.77.28-6.19,5.71-6.85,9.13-.28,1.5-.67,3.52.43,4.56s2.94.48,6.7-.57c6.62-1.85,8-3.69,8.41-4.28a4.16,4.16,0,0,0,1-3.14c-.14-.66-.62-1.54-4.56-3.56C638.9,1099.84,637.47,1099.11,636.63,1099.17Z"/><path d="M639.19,1118.27c-1.72-.16-4,.68-4.27,2-.38,1.71,2.7,3.65,7.12,6.42,2.21,1.38,4.11,2.55,4.71,2s-.52-2.89-1.28-4.42a12.91,12.91,0,0,0-2.29-3.42C642,1119.55,640.89,1118.43,639.19,1118.27Z"/><path d="M472.83,1516c-2.22.43-3.24,3.36-3.14,5.41,0,.35.21,3.38,2.71,4.57a4.58,4.58,0,0,0,4.13-.15c1.93-1.29,1.85-4.16,1.29-5.84C477.15,1518,475.09,1515.58,472.83,1516Z"/><path d="M1008.28,1429.77a21.24,21.24,0,0,1,2.71,6,24.58,24.58,0,0,1,.57,9.26c-.48,5.85-1.76,5.75-1.57,9.41.21,4.06,1.78,4.18,2.71,9.55s-.52,6.36.86,8.7c1.05,1.79,2.19,1.76,11.26,5.42,5.44,2.19,6.82,2.92,8.27,2.13,2.53-1.37,2.1-5.66,4.13-6,1.52-.25,2.32,2.07,4.28,1.85,1.35-.15,1.37-1.3,3.42-2.28.61-.29,2.71-1.29,4.56-.57s1.66,2.64,3.28,3.14,2.42-.92,5.85-2.43c2.69-1.18,2.86-.66,5.41-1.71,4.22-1.73,3.89-3.2,7-4.28a11.93,11.93,0,0,1,9.69.86c2.39,1.44,2,2.67,4.42,4.42,2.88,2,4.64,1.2,9.27,2.42,6.08,1.6,5.72,3.77,11.4,5.14,3.07.73,2.83,0,9.7.57s10.48.83,12.68,2.42c3.48,2.5,3.74,5.82,7,6.27,1.46.21,2.64-.3,4.28-1,1.17-.5,4.7-2,6.27-5.41,1.27-2.76-.12-3.81,1.14-5.71,1.39-2.1,4.17-2.45,8.55-3,4.94-.61,7.41-.92,9.55.57a8.94,8.94,0,0,1,3.57,8.13c-.6,4.69-5.28,5.19-5.85,9.69a9.55,9.55,0,0,0,4.42,8.84c3.34,1.89,5.37-.71,13.4.43,2.62.37,2.72.69,6.13,1.14,4.93.65,6.2.17,7.27,1.28,1.95,2,1.32,7.23-1.42,9.27-2.38,1.77-4.3-.4-8.13,1-4.5,1.64-4.18,5.5-8.55,6.85-2.23.68-6,.82-8.13-1.71-1.3-1.58-.07-3-.71-7.27-.51-3.43-1.9-6.94-2.71-6.85s-.94,3.22-1,4.14c-.24,3.94.41,7.4,2.29,13.26,2.47,7.73,4.35,11.14,5,12.26,3.35,5.87,5.3,6.5,6.42,6.55,1.35.07,2.2-.68,4.28-.42a9,9,0,0,1,3.7,1.42c5.22,3.1,8,4.76,11.27,8.27,2.16,2.35,2.62,3.46,2.85,4.28.51,1.86.6,5-1.14,6.27-1.9,1.42-5,0-7.56-1.14-3.36-1.52-3.8-2.74-7.41-4.85a54.87,54.87,0,0,0-7.7-3.28,80.78,80.78,0,0,0-10.84-3.56c-1.26-.3-3.69-.63-8.55-1.28-1.67-.23-2.85-.37-3,0-.08.2.08.78,4.13,3.13a75.22,75.22,0,0,0,8.84,4.42c5,2,9.86,4.18,12.4,5.42,5.48,2.67,9.11,5.32,14.12,9,7.38,5.4,5.42,5.1,13,10.69,7.08,5.25,10.24,6.57,10.83,10.12a21.18,21.18,0,0,0,2,6.85c.71,1.42,1.42,2.39,1.71,2.28.67-.25-2.15-5.89.14-8.7.3-.37.94-1,3.42-1.57a18.93,18.93,0,0,1,10.27,0c4.28,1.38,4.18,3.5,11.83,9.56a54.14,54.14,0,0,0,8.13,5.41c5,2.73,9.23,4.92,14.11,4,2.48-.46,4.19-1.56,6.42-3,1.62-1,2.85-2.08,9.12-7.84,3.08-2.83,4.24-3.92,4.85-3.56s.27,2.93-.43,4.7c-1.72,4.34-5.31,5.77-4.71,7.56.24.69,1,1.24,2.14,2,.85.58,1.27.87,1.71.86,1.62,0,2.79-3.61,3.28-5.14,1.49-4.56.72-6.31,2.57-9.4a7.53,7.53,0,0,1,2.28-2.71c.54-.37,1.93-1.18,7.27-1.29,3.41-.06,3.63.26,4.13-.14,2.25-1.75,0-9.55-3.7-15.68-4-6.63-6.36-6-8.84-11.69-.79-1.81-4-9.75-.29-15.11.5-.72,2.09-3,4.71-3.57,2.23-.44,3.18.82,5.13.43,3.58-.72,5.31-5.93,5.42-6.27,1.77-5.56-1.39-10.35.71-11.83,1.15-.81,2.75.15,3.14-.57.58-1.11-2.87-4-3.71-4.71a27.6,27.6,0,0,0-5.7-3.7c-3.87-1.87-7.92-3.83-11.69-2.43-1.71.64-1.43,1.25-3.57,2.57-2.41,1.5-4.58,1.84-13.25,2.28s-9.92.27-10.7-.71c-1.53-1.94.8-4-.42-8s-4.25-4.11-4.85-7.84a8.1,8.1,0,0,1,2-6.7c1.62-1.67,2.56-.73,6-2.71,2.87-1.65,3.13-2.84,6.13-4.13a8.87,8.87,0,0,1,3.85-1c2.18,0,5.11,1.1,5.85,3.14.59,1.66-.73,2.67-2.28,6.56-1.38,3.43-3,7.62-1.29,10,1.38,1.84,4.74,2.42,6.42,1.15.85-.65,1.07-1.63,1.28-6.14.33-7,0-9,1-12a20.08,20.08,0,0,1,2.42-4.7c3-4.85,6-7.36,9.7-11,5.57-5.51,5.38-6.43,8.55-9.41,9.23-8.68,21.16-10.6,25.23-11.26,10-1.62,17.18-2.78,25.38-.72,1.94.49,7.06,1.94,9.27-.42,1.24-1.34.84-3.12,3-6.28a7.62,7.62,0,0,1,2.42-2.7c3-1.72,5.47,1.41,8.7.42,3.78-1.15,2.57-6.12,7.55-9.41,3.18-2.08,5.06-1,7-3.27,1.71-2,1.67-4.59,1.57-8-.23-7.5-3-8.93-2.28-14.54.43-3.63,1.63-3.5,1.85-7.13a19.87,19.87,0,0,0-2.71-10.69c-2.06-3.88-4.16-5.06-8.84-9.41-10.49-9.75-9.23-12.08-15.68-15.54a42.88,42.88,0,0,0-12.12-4.13c-3.33-.52-4.09-.15-7.27-.86-3.41-.75-5.21-1.78-10.83-4.56-10.47-5.17-9.89-4.42-11.83-5.84a33.68,33.68,0,0,1-8.84-10c-1.94-3.33-4.19-7.2-2.71-10,1.1-2.07,3.6-2.3,3.71-4.14.08-1.43-1.4-2.14-2.43-3.7-1.52-2.3-1.31-5.3-.14-9.7a92.28,92.28,0,0,1,8.84-21.81c6.37-10.57,11.84-19.65,22.24-27.09a144.22,144.22,0,0,1,12.83-7.84c2.41-1.31,6.62-3.61,12.26-6.13,6.21-2.76,6.46-2.36,8.84-4,2.22-1.52,3.54-2.91,5.7-2.85,1.59.05,2.23.85,4.56,2.14a29.27,29.27,0,0,0,8.13,3c2,.37,7.1,1.27,9.26-1.28,1.15-1.35.17-2.11,1.43-6.42.9-3.06,1.51-3.06,2.14-5.84.69-3.05.19-4.08,1.14-4.85,1.46-1.19,4.85-.5,6,1.43.48.81.6,1.92-.72,5.56-2.13,5.9-3.62,6.26-4.27,9.41-.89,4.3,1,8.08,1.85,9.83,1.18,2.38,2.87,6,6.41,7.27,3,1.09,4.29-.52,6.28.86,2.35,1.63,1.15,4.31,4,7.27a7.9,7.9,0,0,0,4.56,2.57c3.31.42,6-2.07,7.7-3.57,3.78-3.44,2.42-4.91,5.84-7.7a21.49,21.49,0,0,1,8.7-4.13c2-.42,2.49-.2,3.42-.86,1.3-.91,1.86-2.42,2.85-8.55.4-2.46.65-4.3.86-5.84,1.11-8.37,1-8.94.71-9.7-1.09-2.5-2.89-2.09-6.41-6a27,27,0,0,1-3.71-5.27c-2.12-3.81-4.52-8.12-3.42-12.55.58-2.33,1.71-2.95,2-5.84a11,11,0,0,0-.57-5.13c-.91-2.42-3.36-6-6-5.7-2,.23-3.38,2.63-4,3.7-1.33,2.32-1,3.89-1.71,4-1.07.16-3.58-3.78-2.56-6.84.38-1.16,1-1.25,4.42-4.7a28.64,28.64,0,0,0,3.28-3.57c.49-.73,3.23-4.79,2-7-1.54-2.75-7.6.46-10.41-2.43-2-2.06-.38-5.21,1.14-15.54,1.71-11.51.8-15.1.43-16.39-1.38-4.82-3-4.15-5.13-9.27-3.49-8.42-.08-12.63-2.57-23.52-.54-2.41-1.64-5.12-3.84-10.55-5.14-12.67-8.24-15.86-10.55-25.23a40.55,40.55,0,0,1-1.57-9.7c-.12-5.15,1-8.64,7.41-24,8.55-20.23,10-22.07,12.26-23.66a28.25,28.25,0,0,0,7-6.7,17.07,17.07,0,0,0,3.42-7.41,14.06,14.06,0,0,0-.57-7.42c-2-4.95-6.19-3.76-13.69-10.12-2.88-2.44-2.9-3.16-10-10.12-.53-.53-2-2-4-4-3.36-3.42-3.33-3.55-3.85-4-4.1-3.48-9.61,1.46-20.81.85a44.68,44.68,0,0,1-12.26-2.57,53.07,53.07,0,0,1-8-3.56,74.19,74.19,0,0,1-10.69-7c-3.48-2.77-3.59-3.4-5.7-4.42-2.53-1.23-4.67-1.41-8.84-1.71-8.06-.6-12.09-.9-12.54-.86-4.69.39-8.12,1.73-15,4.42-.89.35-6.44,2.53-11.12,5-10.62,5.56-18,13.12-24.67,19.24s-2.32,1.42-34.35,26.81c-18.89,15-19.62,16-24.09,17.67a108.52,108.52,0,0,0-20.11,10c-3.24,2.06-5.51,3.76-6.55,6.7-1.75,4.89.53,11.37,5.13,14.54,4.92,3.4,10.82,1.86,13.54,1.14,3.12-.81,3.5-1.65,10.84-5.7,6.8-3.75,10.27-5.63,13.68-6,1-.1,8.94-.92,12.4,3.57,1.67,2.15.67,3.41,2.57,8.12,1.82,4.51,3,4.12,4.71,8,1.48,3.44.51,3.74,2.28,13.54,1.07,6,1.74,7.58,2.28,8.7,1.9,3.92,3.34,3.94,3.56,6.13.42,4.18-4.76,5.51-6.27,11.26-.82,3.1-.07,5.6,1.28,10.12,2,6.63,4.39,8.86,6.84,14,2.6,5.4,3.16,9.66,4.28,18.11,1.83,13.83-.51,18.79,3.85,23,2.43,2.32,6,3.46,5.85,5.84-.1,1.82-2.18,2.11-3,4.85-.55,1.87.06,2.93.57,6.42s.78,5.33.43,7.12c-.83,4.19-4.42,6.7-9.69,13.83a3.37,3.37,0,0,0-.86,2.14c.1,2.48,4,3.1,4.13,5.28.1,1.69-2.16,3.31-4,3.85a5.83,5.83,0,0,1-5.41-1c-2.12-1.94-.79-4.7-2.71-6-1.43-1-2.53.31-5.56-.29-2.43-.48-5.09-2-5-3.13.11-1.36,3.8-1.14,5.13-3.85.4-.82.76-2.25.14-2.85-1.11-1.09-4.14,1.81-6.84.57-1.29-.59-1.14-1.49-2.42-1.86a4.37,4.37,0,0,0-4.85,2.29c-.62,1.64,1,2.67.43,3.84-.94,2.1-6.1-.7-10,1.86-2.87,1.89-3.5,5.7-7.56,8.84-.39.3-1.06.78-1.42.57-.8-.47.38-3.84,1-5.56a60.59,60.59,0,0,1,6-12.12c3.65-5.79,3.64-4.89,5-7.41,5-9.36,3.58-18.69,6-19,1-.11,2.33,1.3,2.85,1.85,1.09,1.15,1,1.74,1.71,2.42,1.48,1.37,4,.89,6.42.43,4.16-.79,4.24-2,6.41-1.71,2.34.33,3,1.86,5.28,1.57a19.47,19.47,0,0,0,2.85-1c2.91-1,3.51-.92,3.7-1.43.4-1-1.88-2.25-3.85-4.84a16.91,16.91,0,0,1-3-7c-1-4.7,1-5.59,1-12,0-4.27,0-8-2.43-10.84-2-2.33-4.21-2.38-5.27-5-.82-2-.24-3.83.14-5.56,1.09-5,1.3-12.66-1.57-18-.92-1.71-.76-.57-7.27-8.27-3.47-4.11-4.15-5.18-4.27-6.7-.23-2.65,1.48-3.66,4.56-9.12s4.7-8.36,3.71-10.84c-.9-2.21-2.93-1.74-8.42-5.13-1.81-1.12-1.44-1.08-8.83-6.84-6.17-4.81-7.38-5.58-9.41-6-1.17-.24-4.79-1-7.84,1.14s-3.74,6.15-3.85,7c-.73,5.34,2.76,7.39,7.27,17s2.41,10.37,6.41,16c2.89,4,5.49,5.71,5.28,9-.16,2.35-1.58,2.67-4.42,7.55-3.46,6-2.52,7.48-4.71,8.84-3.39,2.12-6.15-1.24-12,.43-.93.27-5,1.44-7.41,5-2.49,3.72-.57,6.31-2.29,13.54-1.1,4.67-1.88,3.47-3.13,8.42-1.63,6.39-.2,7.87-1.43,16.1a12.59,12.59,0,0,0,0,5.28c.58,2.36,1.57,2.84,1.57,4.42,0,2.28-2.1,2.71-3.85,5.56-2.08,3.38-.58,5.14-2.28,11.12a56.16,56.16,0,0,1-2.57,6.27c-4.46,10.11-6.24,11.33-7.12,11.83a12,12,0,0,1-6,1.43c-.5,0-4.66,0-5-1.28s3.35-2,6.56-5.85c.65-.79,3.87-4.69,3.42-9.55a15.52,15.52,0,0,0-1.28-4.13c-2-5.09-3.11-7.86-5.85-10.27a17.29,17.29,0,0,0-8.55-3.85,26.76,26.76,0,0,0-7.42,0c-6,.57-7.78,1.55-14.25,2.43-7.66,1-9,.17-9.55-.58a4.83,4.83,0,0,1,.28-5.7c1.52-1.75,3.73-.85,9.7-1.28.27,0,.27,0,11.4-2,4.81-.85,5.86-1,7.27-2,.4-.27,4.51-3.14,4.42-7-.09-3.6-3.73-3.4-5.42-8.27a29.48,29.48,0,0,1-1-12.11,3.92,3.92,0,0,0-.42-3c-1.21-1.58-4.09-1.23-4.85-1.14-3.65.44-5.79,2.52-8.84,4.85-4.34,3.32-8,6.12-12.54,7.13-5.68,1.26-11.92-.5-12.26-2.57-.22-1.33,2.15-1.9,6.55-6.41,2.66-2.73,4.12-4.23,5.14-6.7,1.6-3.93.22-5.8,2-7.42s5.57-1.46,8-.28c2.89,1.42,3,3.66,5.13,3.85,1.2.1,2.62-.93,5.41-3,2.55-1.88,3.83-2.82,4.28-3.7,1.08-2.09.17-4.44-2.42-10-4.29-9.15-6.43-13.73-8.56-16.11-4-4.54-5.73-4-7.69-7.84a17.61,17.61,0,0,1-1.29-11.84c.59-2.38,1.47-6,4.28-7.12,3-1.23,6.67,1.06,8.84,2.42a40.92,40.92,0,0,1,5.7,4.42c1.75,1.67,2.44,2.67,3.42,2.57,1.67-.19,2.6-3.41,3-4.85,2.24-8.09-1.24-11.36,1.14-16.82,1.11-2.56,3-4.32,5.27-6.56,3.87-3.72,5.88-3.82,6.7-6.27,1.18-3.53-1.19-8.62-4.28-9.41-1.71-.44-2.46.76-7.84,3.7-5.87,3.22-7.06,2.94-10.55,5.56-3.32,2.51-2.47,3-5.13,4.85-3.33,2.39-7.35,3.1-15.25,4.42-5.07.85-7.64,1.26-9.41.85a17.56,17.56,0,0,1-10.55-7.41c-1.84-2.91-1.76-5-3.56-5.56s-3.15,1-6.28,2.57a28.77,28.77,0,0,1-9.41,2.42c-5,.41-6.45-1.45-14.39-3-2.24-.44-2.84-.43-10-1.14-22.76-2.27-26.74-3.36-30.8-5.85-2.75-1.68-2.11-1.91-6.7-5-8-5.33-10.21-4.86-13.25-8.55-3.36-4.07-4.07-8.83-5.42-8.55-.61.12-1.18,1.23-1.28,2.13a3.23,3.23,0,0,0,.28,1.71c1,2.29,2.61,3.39,3.56,4.85,1.58,2.44,0,4,1,6.56,1.09,2.88,3.74,2.74,8.7,5.7,8,4.78,9.11,10,14.4,10.55a34.84,34.84,0,0,1,5.27.86c2.06.5,3.19,1,4.14,1.28,3.69,1.15,5.93-.16,9.83-.43,5.79-.4,10.46,1.79,14.54,3.71,1.3.6,3.57,2.07,8.13,5,7,4.51,7.62,5.34,8,6.27,1.5,3.87-2.41,5.66-1.28,11.12.65,3.14,2.18,3.7,3,8.13a14.9,14.9,0,0,1,.29,5.41c-.71,4.5-3.43,4.64-5.42,10.13-1.08,3-.65,4-2.14,6.13a9.68,9.68,0,0,1-4.42,3.7c-2.53,1-3.9,0-8.55-.14a26.49,26.49,0,0,0-6,.43c-7.69,1.71-9.2,9.18-13.68,8.55-2.65-.37-3.79-3.2-7.27-2.85a3.92,3.92,0,0,0-2.28.71c-2.35,1.92-.85,7.47,1.42,15.54,1.36,4.84,1.76,5.16,1.85,7.27a21.22,21.22,0,0,1-2.28,10.12,26,26,0,0,1-4.13,6.13c-3.06,3.6-5.22,6.14-8.7,7.13-3.71,1.06-5.13-.72-9.12.86a15.89,15.89,0,0,0-4.56,3c-5.29,4.39-4.91,7.22-8.13,8.27-3,1-6.53-.42-8.55-2-2.71-2.1-3.42-5.09-4.42-4.84s-.15,3-1.71,4.7c-2.35,2.59-9.31,1.92-11.69-1.57-1.91-2.8.6-5.27-1.14-7.7-2.55-3.55-11.45-3.17-17.11.43-2.2,1.4-2.62,2.47-6.7,5.13a37.61,37.61,0,0,1-6.42,3.57c-2.73,1.13-7.07,2.94-11.83,2.14-4-.67-3.59-2.36-9.83-5-3.35-1.41-6-2-11.27-3.14a68.46,68.46,0,0,0-9.83-1.71,49.7,49.7,0,0,0-15.83,1.28c-5,1.13-7.68,1.73-8,3.28-.46,2.41,5,6.12,10.41,7.27,1.57.34,2,.22,8,.29,6.9.08,10.35.12,11.55.43,4.06,1,6.7,3.83,12,9.4,6.54,6.91,5.16,7.85,9.55,11.12,2.52,1.88,7.68,5.08,11.69,7.42,2.69,1.56,5,2.79,5.13,4.84.18,2.2-2.16,4-2.56,4.28s-2.59,1.79-7.84,1.14c-3.42-.42-4.82-1.31-8.56-2.56-1.8-.61-4.86-1.26-11-2.57-7.46-1.6-9.9-1.89-13-1.57-2.5.27-4.88.55-5.84,2.28-1.09,2,0,5.16,2,6.85,2.58,2.21,5.73,1,12.4.85a61.55,61.55,0,0,1,13.83,1.14c6.16,1.41,10.18,4.26,15.82,8.27,4.27,3,9.45,6.71,14.4,13.26,4.15,5.5,6,10.32,9.69,20,2.11,5.5,3.16,8.3,2.71,10.4-1.14,5.34-6.2,6.45-10.12,15.11-1.77,3.91-1.54,5.44-1.28,6.28.95,3.14,4.33,3.63,8,6.84,1.94,1.71,3.32,4.2,6,9.12,5.61,10.34,9,16.52,10.12,25.38a31.78,31.78,0,0,1,.43,7.55c-.6,6.72-3.56,10.06-1.71,12.84,1.21,1.81,3,1.1,4.13,3.13,1.33,2.32.22,5.27-.85,8.13a20.85,20.85,0,0,1-4.71,7.84,20.15,20.15,0,0,1-9.34,5.34c-5.72,1.43-7.37-1-12.4.65-1,.33-6.85,2.22-7.91,6.62-1.24,5.16,4.63,11.29,10.26,12.19,1.2.19,3.33.54,5.13-.64,2.89-1.87,1.71-5.51,4.92-8.12a7.89,7.89,0,0,1,10.27,12c-2.46,2.24-6.78,1.09-11.76,0-2-.42-4.39-1.14-6.85,0-.58.27-1.86.86-1.92,1.71-.12,1.69,4.72,2.5,10,5.13,6.31,3.12,4.87,4.61,16.47,13.26A22.78,22.78,0,0,1,1008.28,1429.77Z"/><path d="M989.61,1611.53c4-2.83,7.23-1,23.23.43,3.92.34,5.87.42,8.41,1.71a22.79,22.79,0,0,1,7.42,6.7c2.16,2.78,1.76,3.24,4.13,6.13s3.57,4.36,5.85,5.28c3.26,1.31,5-.18,6.84,1.28s1.31,4.16,1.71,6.84c1.17,7.79,10.22,12.83,14.83,15.4.53.3,5.77,2.62,16.25,7.27,3.36,1.49,5.91,2.62,6.56,5,1,3.62-3.52,6.4-2.43,9.27.79,2.05,3.67,2.12,9.27,3.42,10.35,2.4,10.47,4.47,18.25,5.41.53.07,11.58,1.34,12.54-1.56.36-1.11-1-1.93-3.42-6.13-2.11-3.69-3.17-5.54-2.57-6.85,1.15-2.49,7.58-3.15,12.12-1.14,1.71.76,2.25,1.49,3.85,1.57a7.08,7.08,0,0,0,6.56-4c.81-2-.4-2.57-.14-5.85.33-4.29,2.5-4.54,2.28-7.84-.17-2.44-1.4-2.92-1.86-6.84-.23-2-.33-3,.29-3.56,1.82-1.58,8,2.88,9,3.56,4.64,3.38,4,4.78,7.7,7,4,2.33,5.49,1.22,9,3.84a14.39,14.39,0,0,1,4.7,5.56c2.1,4.67-.2,7.53,2.29,10.84.9,1.2,2,1.8,4.27,3,5.41,2.88,8.25,1.9,9.41,4,1,1.8-.83,3-1.14,7.13,0,.42-.38,6.15,2.85,10.41,2.48,3.26,4.35,2.09,9,5.56,1.48,1.11,4,4.41,8.84,11,4,5.42,5.29,7.35,5.42,10.26a12.3,12.3,0,0,1-1,5.28c-.31.75-2.33,5.67-6.84,7.12-3.19,1-4.6-.65-6.42.72s-1.9,4.6-1.85,7.84.08,5.49,1.57,7c1.93,1.94,4.07.56,7.55,2.71,2.08,1.28,4,3.43,3.57,4.42-.65,1.39-5.6-.46-6.56,1.28-.48.88.56,1.71,1.28,4.85.48,2.09.72,3.13.43,4.28-.78,3-4.13,2.75-5.13,5.84-.71,2.2.61,3.5-.57,5.28a5.14,5.14,0,0,1-2.71,1.85c-1.73.65-3.82.78-9.41-.71-2.76-.74-3.75-1.17-5.13-1.57-9.44-2.72-15,2.52-19.39-1-2.13-1.71-1.44-3.45-4.13-5s-5.46-1.18-7.13-1c-3.5.39-3.61,1.46-6.56,2-5.32,1-7.32-2.06-14.68-2a17.38,17.38,0,0,0-5.28.57c-8.14,2.45-7.55,10.82-15,13.26-2.63.87-3-.07-9.83,1.29-3.6.71-5.4,1.07-6.56,1.85-4.49,3-3,8.07-7,10.55-3.22,2-7.4.66-8.12.43-5.73-1.86-6.08-7.21-12.26-12.55-4-3.41-5-2.25-11.12-5.84-8.38-4.92-10.07-9.23-20-18.68a105.59,105.59,0,0,0-14.26-12c-9.72-6.53-14.51-6.07-39.2-14.26-1.17-.39-11.37-3.8-24.38-9.41-12.17-5.25-18.67-8.92-22.1-15.82-1.28-2.59-3.29-6.65-1.85-10.55,1.54-4.17,6.2-5.94,5.56-9.13a8.84,8.84,0,0,0-1.85-3.42c-1.18-1.39-2.24-1.78-2.14-2,.2-.46,4.45,2,11.12,3.7,1.87.49,3.85.9,4.85,2.57.78,1.32.21,2.18,1,3.13,1.33,1.62,4.86,1.52,7.42.29s2-2.66,5.7-6.13c3-2.77,4.78-3.2,5.27-5.42a4.94,4.94,0,0,0-.71-3.85c-1.78-2.31-4.93-.56-6.84-2.56-1.61-1.69,0-3.59-1.14-8.7a16.58,16.58,0,0,0-2.57-6.27,16.16,16.16,0,0,0-7.7-5.7c-4-1.43-5.46-.25-7.12-1.71-2.58-2.26-1.55-7.33-.86-10.7.43-2.09,2.11-9.43,9.27-18.39,3.35-4.19,8.67-10.86,13-9.69,1.6.43,2.07,1.69,4.7,2.42a12.89,12.89,0,0,0,6.56-.14,24.76,24.76,0,0,0,11.12-6.13C988.56,1613.11,987.81,1612.81,989.61,1611.53Z"/></g></g></svg>