<svg xmlns="http://www.w3.org/2000/svg" viewBox="0 0 2271.69 2532.64"><g id="Layer_2" data-name="Layer 2"><g id="Djibouti"><path d="M2051.64,1762.39q-200,325.81-399.92,651.62a58.1,58.1,0,0,1-15.1,4.41c-4.6.67-7.31.46-13.4,1.87-3.4.78-6.25,1.7-8.31,2.37-5.27,1.71-7.9,2.57-10,3.73-7.91,4.38-6.54,9.68-13.57,12.72-4.23,1.83-5.36.2-9.84,2.55-4.23,2.22-4,4.09-8.31,7s-8.77,3.7-12.89,4.41a51.27,51.27,0,0,1-13.06.51c-24-1.62-33.13,5-39.18-1.36-4.1-4.32-1.73-9.31-7-12.89-3.54-2.42-7.09-1.81-12.38-1.86-10.17-.1-11-2.49-23.75-4.41-4.41-.67-12.89-.74-29.68-.85-21.74-.14-24.68.11-28.32-2.88-4.66-3.84-6.33-9.85-9.67-21.88-1.46-5.27-1.69-8.09-1-11,1.16-5,3.81-5.25,5.26-10.34,2.13-7.46-1.49-14.27-2-15.27-1.16-2.13-2.58-3.62-5.42-6.61-4.37-4.6-5.71-4.75-7.64-7-5.22-6-.91-11.42-4.91-21.37-.8-2-3.58-5.55-9.16-12.72-9-11.59-7.61-7.46-13.74-15.6-2.45-3.25-4.05-5.74-6.28-5.6-2.52.17-4.41,3.64-5.76,6.11-2.56,4.68-1.43,6-3,7.8-3.19,3.56-8.77,0-19.34,1.19-2.77.31-6.65,1.56-14.42,4.07-7.16,2.31-8.33,3.06-17.13,5.94-7.42,2.42-10.61,3.21-14.58,3.56-7.31.64-10.29-.81-11-1.19-3.87-2-4.81-5.06-7.12-8.31-7.69-10.82-18.09-6.22-30.53-18.32a93.52,93.52,0,0,1-7.8-8.48,100.45,100.45,0,0,0-7.46-9.16c-1.36-1.43-2.48-2.49-2.72-2.71-5.47-5-20.85-2.39-21.88-2.21a61.12,61.12,0,0,0-15.77,5.26,56.17,56.17,0,0,0-13.23,8.48c-3,2.65-4.59,4-5.26,6.28-1.53,5.18,2.87,8.65,1,11.53-1.38,2.15-4.49,1.24-11.19,2.71a46,46,0,0,0-9.5,3.23l-139.42,46.64-96.84,71.23-88.19-21a23.67,23.67,0,0,0-14.59-4.24c-4.92.35-8.64,2.42-12.21,4.41-5.8,3.23-6.27,5.16-10.35,7.29-1.64.86-4.72,2.2-17,2.21-19.16,0-20.66-3.28-26.63-.34-3.19,1.57-6.57,4.39-12.55,4.92-3.12.27-3.26-.4-5.08.17-4.65,1.45-4.56,6.11-10.86,12.72-4,4.22-6.49,4.88-7.46,5.09a12.13,12.13,0,0,1-7.13-.85l-60.2,12.89-37.49-.17c-.93-3.57-3-8.86-7.63-12.55a11.53,11.53,0,0,0-3.39-2c-4.45-1.63-8.23.51-12.38,1.53-5.06,1.24-7.1-.07-14.59-.68-6-.49-6.66.18-31,2.88-11.26,1.25-16.89,1.88-20.52,2.21,0,0-6.65.61-23.57,3.39-6.66,1.09-10.53,1.85-11.88,4.75-1.75,3.77,2.38,7.66.51,10-1.3,1.63-4,.61-13.74-.34-5.51-.54-8.33-.81-11.36-.51a38.09,38.09,0,0,0-11.53,3.05c-4.4,1.94-6.6,2.91-8.14,4.92-4.13,5.38,1.36,10.72-1,21.37-.53,2.39-2.26,9.62-8.65,14.25a22.18,22.18,0,0,1-9.84,3.73c-3.55.6-6.82.45-21.71-2.72-8.23-1.75-7-1.66-8.48-1.86-13.22-1.81-25.2,3.21-33.07,6.61-8.78,3.8-9.7,5.69-15.09,6.11-6.36.49-11.73-1.61-16.29-3.39-7.23-2.83-9.65-5.5-18-7.64-5.08-1.3-7.53-1.16-9,.17-1.62,1.48-.79,3.28-2,7.64-.9,3.15-2,7.07-5.43,9.15a10.94,10.94,0,0,1-10.85,0c-2.07-1.26-1.88-2.42-3.56-2.88-2.44-.67-4.08,1.42-9.33,4.07-4.36,2.2-6.54,3.31-8.48,2.55-.71-.28-2.2-1.12-4.24-9.33-2.09-8.38-3.13-12.56-1.19-15.61a20.29,20.29,0,0,1,6.45-6.1c1.23-.69,2.9-1.39,3.22-2.88a3.24,3.24,0,0,0-.85-2.72c-1.64-1.75-5.16-.06-8.31.51-4.74.86-7.25-.89-13.74-2.71-11.46-3.23-13.72-.6-30.7-3.73-4.67-.87-8.41-1.79-10.68-2.38l-116-29.85a12.83,12.83,0,0,0-4.41-4.75c-3.63-2.23-6.09-.89-10.18-2-4.9-1.38-3.75-4-11.87-9.67-4.86-3.41-7-3.7-10.51-7.46-2.4-2.57-3.59-3.86-4.08-5.94-1.29-5.58,3.63-11.57,7.64-16.45,3.09-3.77,4.5-4.41,5.59-7.46a22.84,22.84,0,0,0,.85-9.33,34,34,0,0,0-1.19-7.3c-12.78-46.36,5.43-103.62,5.43-103.62,9.12-28.26,16.81-104.6,10.86-314.79a380,380,0,0,0-8-71.74c-1.39-6.53-4.43-19-10.52-44.1-4-16.39-6.14-25.27-9.33-37.65-5.75-22.34-6.39-23.22-11.19-42.4-11.54-46.1-5.89-33.34-8.82-41.22-2.23-6-5.77-14.11-2.55-21.88,1.27-3.06,3.09-4.84,5.6-10.51a64.79,64.79,0,0,0,3.9-11.87c6.52-27.19,6.46-40.81,15.61-56.82,3.08-5.4,3.79-5.08,6.44-10.35,4.18-8.3,6.09-16.39,7.8-30.87a280.73,280.73,0,0,0,2.21-28.83c.55-23-2-27.12,1.86-38,2.51-7.06,4.41-7.64,7.47-17s3.16-14.88,4.41-22.73c1.4-8.82,2.41-8.91,11-35.78,6.17-19.25,9.25-28.87,10.52-34.26,5.07-21.65,3.57-28.9,10.51-33.75,5.82-4.07,9.79-1,21.88-6.79,7.15-3.41,6.2-4.68,13.74-8.48,9-4.52,11.45-3.29,24.42-8.48,12.21-4.89,14.42-7.74,15.27-9,1.78-2.61,1.49-3.83,3.56-15.26,1.26-7,2.25-11.28,4.24-19.85,1.89-8.18,3-12.29,4.75-14.24,4.27-4.8,11.44-6.85,15.94-8.14a48.91,48.91,0,0,1,5.09-1.19l43.75-15.94,28.5-38.34a26.27,26.27,0,0,0,9.33-3.9c5.94-4,7.41-8.83,11.7-16.79,4.81-8.92,4.37-5.47,19.16-28.32,3.81-5.89,6.48-10.19,7.64-12,13.49-21.66,31.67-47.95,41.89-63.1,31.5-46.69,23.78-41.57,42.91-67.5,18.34-24.85,22.77-26,52.07-64.62,8.07-10.65,14.22-19.49,19.55-27.85,1.64-2.57,5.37-8.48,9.79-16.24a399.65,399.65,0,0,0,19.67-39.52,9.44,9.44,0,0,1,6.28,2.71c1.81,2,1.41,3.95,3.05,4.92,2,1.17,5.66.16,7.63-2,3.22-3.58.08-8.29,1.19-16.11.77-5.43,3-8.31,5.43-12.72,9.74-17.86,3.48-27,12.72-42.23,3.71-6.13,3.65-2.91,14.75-15.77,3.65-4.23,8.87-10.62,22.39-30.7C586.86,766.82,593,757,593,757c27.63-44,29.14-50.66,46.48-76.16C658.91,652.31,671.09,640,676.15,635c2.24-2.18,8.67-7.9,21.54-19.34,24.32-21.6,36.47-32.4,38.16-33.41,4.78-2.84,10.76-5.9,14.93-12.89,1.73-2.9,2.5-5.4,5.25-15.77,2.69-10.13,3.84-14.86,4.75-18.32,4-15.3,5.79-14.95,11-32.73,3.07-10.42,3-12.46,6.1-21.2,0,0,3.11-8.82,7.13-17.3,9.59-20.27,27.32-39.55,29-41.39,27.4-29.87,19.54-32.47,54.1-72.93,24-28,30.65-30.2,47.66-52.06,6.88-8.85,15.74-16,22.73-24.77,5.8-7.26,11-14.68,17.47-14.07,2.92.27,4.18,2,7.46,4.58,9.42,7.34,14.32,4.86,32.57,12.38,8.71,3.59,7.09,3.95,17.13,8.14,10.25,4.28,16.58,5.84,22.55,7.8,14.15,4.63,24,10.72,34.6,17.3,15.33,9.49,25.5,18.84,36.3,29,28.82,27.15,38.17,37.66,58.17,57,43.73,42.25,42,33.52,58.35,53.09,13.15,15.76,32.11,25.89,45.79,41.21a6.85,6.85,0,0,0,3.9,2.37,5.91,5.91,0,0,0,3-.34c4.5-1.62,11-9.41,12-10.68,3.27-3.87,2-1.23,15.44-13.06,6.23-5.48,7.73-7.13,10.85-7.46,4.15-.44,5.11,2.08,11.71,4.24,2,.65,14.09,4.61,20.69-1,2-1.7,2.73-3.64,4.07-7.12,3.6-9.4,1-15.51,4.07-17.13,2.79-1.49,5.86,3.1,9.33,1.52,2.47-1.13,2.24-4.07,5.25-10.17a42,42,0,0,1,4.75-7.64c5.09-5.72,14.42-5.4,28.16-4.74s15.7,2.64,21.37.5c3.76-1.41,4.12-2.73,14.58-12.38,13.15-12.12,14.82-12.09,16.46-16.28,1.92-4.93.83-10.63-1.36-22.05S1450,351,1446.16,347s-5.75-2.38-16.29-9c-6.38-4-9.61-6.08-11.36-9.83-2-4.23-1-7.68.17-15.61,2.68-18.32,0-17.54,2.2-23.57,4.83-13.13,14.78-9.25,22.9-23.92,5.72-10.32,4-18.06,12.21-23.91a25.88,25.88,0,0,1,9.67-4.07c10.26-2.23,15.67,2.7,23.07-1.19a17.15,17.15,0,0,0,5.76-5.09c3.78-5.06,1.77-7.91,4.41-14.75,2.87-7.42,6.52-7.37,9.67-16a46.18,46.18,0,0,0,2-8.65c3-16.9.3-23.21,4.41-26.12,4-2.79,8,2,13.22-1.35,1-.63,1.88-1.46,7.3-11.2,2.56-4.6,3.84-6.91,4.24-7.8,4.41-9.94,2.37-14.64,5.93-16.79,2.78-1.67,6.46-.29,12.22,1.87a50,50,0,0,1,11.53,6.44c3.45,2.64,3.46,3.42,5.09,3.73,1,.19,4.42.57,13.23-8.65,5.55-5.81,4.57-6.38,7.29-8.65,7.69-6.42,14.29-.8,26-5.93,7.3-3.22,12.68-8.93,15.77-12.21,4.67-5,5.68-7.68,10.18-10.52,5.81-3.67,11.56-3.82,14.58-4.07,13.07-1.1,18-7.86,38.5-18.32,11.32-5.77,10.21-3.91,37.49-14.92,10.14-4.1,10-4.24,45.11-19.51,36.86-16,55.41-24.08,60.89-25.78,10.08-3.12,18.89-4.33,23.91-9.16.72-.68,2.82-2.85,5.26-2.54s3.82,2.72,4.92,4.58c6.5,11,7.63,14.25,7.63,14.25,4.29,12.39,6.44,18.59,6.62,19.16,3.57,11.34,7.12,19.49,14.24,35.79,4.36,10,6.54,15,8.65,18.82,7.13,13,13.28,18.38,24.77,31.55,14.89,17.1,25.22,31.8,36.12,47.32,11.16,15.89,8.65,13.8,16.62,24.59,14.37,19.44,20,22.73,35.28,43.42,3.16,4.28,7.71,10.94,16.79,24.26,12.42,18.2,15.74,23.68,24.08,34.76,10.39,13.8,9.31,10.72,14.42,18.32,11.35,16.88,22.39,35.79,22.39,35.79,3.24,5.55,6.2,10.78,9.84,10.51,3.26-.24,5.39-4.8,7-8.14,5.41-11.6,1.44-18.48,7.29-26.29,1.79-2.38,5.44-6.11,8-5.25,2.82.95,3.22,7.2,3.74,16.45.39,7.07.19,12.37.17,13.23-.31,9,1.23,13.63,4.74,30.7,6.45,31.27,3.74,27.79,6.11,32.56,5.24,10.53,10.57,11.65,26.63,32.73,5.15,6.77,6.27,8.12,7.29,10,5.65,10.5,3.85,17.18,5.94,32.06,1.14,8.12,1.48,4.75,8,31.37,3.46,14.19,5.18,21.29,5.93,26.29,3.07,20.39-.7,25.68,1.19,40.88,1.82,14.6,7.13,24.42,14.93,38.83,14.73,27.24,24.5,28.36,33.07,52.07,3.79,10.5,5,19,6.28,27.48,3.46,23.75-.14,33-1.19,34.94a23.3,23.3,0,0,0-1.87,4.58c-.58,2-1,3.55-.68,5.25.43,2,1.75,3,3.74,4.92,2.23,2.13,4.18,4.53,6.27,6.79,5.91,6.38-.62,18,.51,38.33.22,3.93.44,3.06,1.36,11.19,1.18,10.46,3.45,30.6,1.52,52.92a195,195,0,0,1-6.1,34.09c-11.24,42.83-27.43,51.36-37.49,85.65-3.27,11.18-9.57,21.24-13.9,32.05a24,24,0,0,1-16.79,15.27c-7.46,2.2-14.91,2.65-27.14,2.2-18.12-.65-27.17-1-33.58-2.71a18.78,18.78,0,0,0-7.63-.85c-1.51.18-7.15,1.07-15.78,10.35-7.07,7.6-6.1,10-10.51,13.23-6.75,4.89-15.23,3.72-19.68,3.22-13.84-1.55-35.26-1.78-67.67-.51a19.73,19.73,0,0,1-5.43,5.26c-1.55,1-6.29,4.09-11.53,3-4.48-.88-4.56-3.84-8.31-4.07-4.21-.26-4.78,3.41-10.18,4.24-5.16.8-7.27-2.16-10.51-.34-2.59,1.45-1.7,3.59-4.58,5.26-3.69,2.13-8.66.66-9.16.51-2.72-.84-3.56-2.1-5.09-1.7-1.86.49-2.85,2.93-3.39,4.92l-47.32,49.7c-.93,1.25-2.27,3.16-3.73,5.59-2,3.4-2.47,4.74-3.73,6.62a23.44,23.44,0,0,1-7.47,6.78c-13.42,8.73-20.75,13.49-24.93,19.51-7.51,10.8.84,17.42-7,28.66-4.27,6.16-8,5.94-20,15.09-4.86,3.71-3.73,3.42-17.3,15.61-15,13.44-14.85,12.7-17.3,15.77-7.48,9.37-6.42,13.48-13.91,20-4.67,4.07-9.1,6-13.74,8-8.3,3.57-10.94,2.89-25.78,6.27-18.85,4.29-20.93,6.83-28.15,5.26-7-1.53-7.4-4.44-15.44-5.77-5.73-1-10.45-.08-19.67,1.7-11.08,2.13-16.61,3.2-22.56,6.78-3,1.82-9.65,5.82-14.08,13.57-4.93,8.64-1.79,12.6-7,19.5-.75,1-6.54,8.54-15.26,9.33-3.13.29-4.84-.45-19.34-6.44-8.24-3.41-12.37-5.11-12.89-5.26-10-2.88-12.21-.17-25.44-1.87-8.25-1-8-2.18-21.2-4.24-10.1-1.56-13.69-1.44-17.3-.5-3.43.89-4.21,1.82-13.06,7.29-11.67,7.21-17.62,10.84-23.24,12-8,1.71-8.55-.91-13.73,1.36-7.57,3.31-6.23,8.81-16.29,16.62-3.92,3-8,5.19-13.23,8a71,71,0,0,1-10,4.75c-1.7.6-6.1,2-20.18,2.37-12.91.33-15.68-.71-20.53,1.7-1.8.89-4.53,2.58-8.82,8-12.76,16-8.9,26.68-20.52,39.35-5,5.48-7,4.8-9.67,9.67-3.54,6.34-1.73,10.09-4.91,22.89-1.38,5.52-2.17,8.71-4.41,12.72-.73,1.31-4.09,7.11-11.88,13.06-6.92,5.29-8.66,4.05-15.94,8.65-7.53,4.76-11.94,10-19.84,19.51-4.69,5.61-8.1,10.5-11.54,15.43-4.81,6.9-7.21,10.35-8.48,12.89-5.32,10.69-5.62,21.41-5.93,32.9-.21,7.55.34,11.43-1.19,18.83a49.59,49.59,0,0,1-4.07,12.55,57.31,57.31,0,0,1-9.67,13.74c-4.14,4.5-5,4.15-6.1,6.44-.73,1.46-2.44,5.74,2.37,18,4.51,11.47,7.94,20.19,16.11,22.73,4,1.26,7.48.44,12.22-.68,10.51-2.49,11-6.82,22-11.53,10.29-4.39,14-2.39,25.61-7.13a33.29,33.29,0,0,1,8.48-2.71c5.81-.88,8.25.65,10.35-1.19,2.88-2.52,0-6.92,2.71-9.49,3.23-3,10.94-.36,13.91.67,5.45,1.91,6.14,3.83,9.33,3.4s4.48-2.8,8.31-2.55c1.89.13,2.44.75,4.24.51,2.32-.31,3.69-1.65,5.09-2.71,4.21-3.2,6.33-2.07,9.84-4.24,4.56-2.83,3.2-6.14,7.63-12,.9-1.21,6.67-8.68,15.94-10.52,6.27-1.24,11.85.54,14.93,1.53,7.93,2.53,11.21,6.52,13.9,4.92s.56-5.8,4.07-9.33a10.21,10.21,0,0,1,8.14-2.89c4.71.62,5.54,5,10.86,5.6,1.35.15,3.44.39,5.09-.85,2.89-2.17.92-6.26,4.07-10.34.49-.64,2.76-3.58,5.43-3.4,3.45.25,3.36,5.45,8.48,9.33,1.79,1.36,2.82,1.5,12.72,4.07,11.5,3,10.39,2.88,11.53,3.06,3.15.48,8.42.83,22.73-3.06,10.21-2.78,11.41-4,17.8-5.76,10.15-2.77,11.21-.76,29-2.38,11.53-1,27-3.34,39.51-3.22a31.23,31.23,0,0,1,7.64.85c6.11,1.51,8,4.11,12.72,5.59,4.24,1.35,7.08.62,12.89,0,22.4-2.37,26.39,3.6,37.65-1.52,4.14-1.89,6.06-3.82,11.19-4.75,1.72-.31,5.68-.86,14.08.85,5.11,1,6.56,1.82,17.13,5.26,12.55,4.07,15.81,4.68,19.34,3.22,2.24-.93,1.78-1.53,6.27-5.09,3.79-3,9.6-7.53,17.47-9.5,4.32-1.08,8.87-2.22,12.89,0s3.89,5.55,7.12,11.2c1.35,2.35,8.32,14.52,18.66,16.11,7,1.07,13.51-3,18.32-5.94,6.41-3.95,6.49-6.44,12.38-8.48,4.06-1.41,6.25-1,12.21-3.22,3.88-1.45,5.83-2.18,7.29-3.39,6.88-5.71,1.44-15.31,8-22.73,3.25-3.69,8.83-6.13,13.23-4.75,2.91.91,4.38,3.2,7.13,7.46,2.61,4.06,6.07,9.45,6.61,17,.51,7.17-2.17,8.7-1,15.44.72,4.18,2.36,7.07,4.41,10.51,9,15,13.3,19.56,18.66,29a126.86,126.86,0,0,1,8.48,18.31c3.08,8.34,4,13.58,8.65,24.6a57.37,57.37,0,0,0,7.8,12.55c3.8,4.66,5.89,5.71,7.8,5.76,2.17.07,2.89-1.17,6.62-2.37a28,28,0,0,1,8-1.19c4.79.08,7.56,3,14.08,8.14,12.94,10.2,14,8.13,17.81,13.4a41.8,41.8,0,0,1,6.44,15.61c1.12,5.64.25,7.44,2,12.21s4.44,7.8,7.12,10.85,4,3.86,12.89,11.53C2048,1759.17,2050.2,1761.13,2051.64,1762.39Z"/><path d="M1955.6,1399.68c-1.89,1.35-4,4.17-3.22,5.94,1.08,2.39,6.28.21,15.26,2.71,3.87,1.08,8.83,2.47,10.35,6.28.71,1.79.33,3.3,1.7,4.41,1.69,1.38,4.37.72,5.93.34a15,15,0,0,0,6.62-3.73,19.32,19.32,0,0,0,5.08-8.14c.87-2.66,2.19-8.52.17-9.67-1.61-.92-4.71,1.56-5.08,1.86-2.12,1.7-1.88,2.89-3.91,4.75a11.86,11.86,0,0,1-5.76,2.89c-3,.48-5.36-.62-8-1.87-6-2.89-5.92-5.34-10.35-6.61C1963.18,1398.48,1959,1397.28,1955.6,1399.68Z"/></g></g></svg>