<svg xmlns="http://www.w3.org/2000/svg" viewBox="0 0 2281.86 1563.89"><g id="Layer_2" data-name="Layer 2"><g id="Dominican_Republic" data-name="Dominican Republic"><path d="M242.64,1554.65c3.43-.2,3.84,0,4.13.28,1.31,1.26.36,4.51-1.11,6.46-.47.63-2,2.71-3.85,2.48-1.5-.2-2.33-1.87-3.71-4.68-.9-1.82-1.33-2.75-1-3.44C237.33,1555.38,237.81,1554.93,242.64,1554.65Z"/><path d="M307.71,1480.5c-2.85,4.14-4.67,7.37-6.88,11.28-5.14,9.12-5.54,12.07-5.64,13.75-.11,1.92-.38,6.43,2.62,9.22a7.11,7.11,0,0,0,4,1.93c2.37.27,3.3-1,7-2.62a38.48,38.48,0,0,1,9.77-2.47c4.13-.64,3.83,0,5.78-.55,6.2-1.59,5.75-6.62,13.07-11,3.94-2.36,6.65-2.45,8.12-5.5.78-1.63,1.14-4,.13-4.82-1.32-1.12-3.7,1.48-6.19.55-1.63-.61-1.72-2.14-4-7-2-4.28-3.07-6.57-5.22-8.81-1.36-1.4-2.83-2.31-5.78-4.13-4.61-2.83-7.55-4.64-9.36-3.57-1.1.64-1,1.9-1.65,4.12C312.5,1474.36,311.1,1475.58,307.71,1480.5Z"/><path d="M1864.41,974.48c-1.11,1.66,0,3.19.14,6.88.15,4.55-1.49,4.85-.82,7.43,1.24,4.81,7.7,6.69,8.39,6.88,1.83.51,5,1.37,6.88-.28,2.68-2.32.93-7.88.55-9.08-.45-1.42-2.14-3.72-5.51-8.25-3-4.1-4-5.22-5.64-5.37A4.52,4.52,0,0,0,1864.41,974.48Z"/><path d="M2018.64,1092.8c-4.25.4-6.37.6-7.71,2.06-2.87,3.15-.56,9.11-.41,9.5,1.27,3.16,2.74,3.15,6.74,7.7,2.62,3,5.63,6.4,7.71,11.42,1.57,3.79,1.4,5.57,3.44,7.15s4.39,1.29,7.43,1.52c3.75.28,3.62,1.12,14.72,5.36,11.9,4.55,14.48,4.52,16,4.4,1-.07,1-.15,9.35-2.61,7.38-2.17,11.1-3.27,12.8-3.58a51.58,51.58,0,0,1,14-.68c3.66.36,2.84.73,11.56,2.47,9.78,2,10.31,1.38,12.65,2.89,2.69,1.73,4,3.75,8.12,5.37,3.12,1.21,4.16.76,4.54.55,2.43-1.36,1.84-6.48,1.65-8.12-.41-3.57-1.88-6.37-4.81-11.83s-4.28-6.79-5-7.43a19.43,19.43,0,0,0-6.46-4c-11.55-4.49-26.71,1.73-36.87-1.24a13.14,13.14,0,0,1-5.51-2.61c-2.1-1.84-2.36-3.57-5.09-5.51a13.41,13.41,0,0,0-3.16-1.65,12.29,12.29,0,0,0-8.67.28c-2.6,1.2-2.23,2.41-4.13,3-2.66.86-5.14-1-10.32-4.13a108.56,108.56,0,0,0-11.28-6.33,40.62,40.62,0,0,0-12.93-4A36.13,36.13,0,0,0,2018.64,1092.8Z"/><path d="M2013,1113c.74,2.52.5,5.48,0,11.42-.31,3.69-.65,5.33.41,6.19,1.26,1,3.9.45,5.23-1,1-1,1.14-2.38,1.51-5.09s.11-3.49.83-4c.93-.66,2.75-.08,3.71,1,1.27,1.38,1.07,3.6,1,4.68-.16,1.66-.67,2.4-.28,2.75s1.18,0,3.72-1.24c3.54-1.67,3.66-1.73,4-1.79,2.14-.4,3.08.87,5.77,1.65,1.66.48,1.75.13,8.4-.13,6.14-.25,7.16,0,9.08-1,2.33-1.18,1.83-2.07,4-3.16,4.85-2.45,11,.24,11.41.41,1.86.84,3.12,1.88,6.06,2.62,1.76.44,2.66.65,3.44.27,2.35-1.15,1.72-6.6,1.51-11.14a108.43,108.43,0,0,1,1.1-18.3c.93-6.48,2.29-16,8.94-23.66,2.62-3,4.48-3.94,7.16-8.12a35.53,35.53,0,0,0,4.81-11.7c1-4.61,2-9.17.14-14s-4.85-5.5-5.36-10.18a11.15,11.15,0,0,1,1.78-7.57c3-4.26,8.45-4.51,9.5-4.54,4.25-.09,6.89,2,12,5.23,0,0,5.67,3.6,16.51,9.08,8.09,4.1,7.29,2.35,20.77,8,11.56,4.83,15.1,7.36,20.22,5.78,1-.32,3.35-1.72,8-4.54,5.4-3.28,8.1-4.92,9.63-6.6,3.85-4.24,4.44-9.48,4.82-12.8,1.07-9.4-3-12-1.65-21.74a34.75,34.75,0,0,1,2.75-9.49,41.92,41.92,0,0,1,13.07-16.37c6.52-4.9,9.48-4,12.93-8.94,1.15-1.63,2-4.16,3.85-9.22,3.71-10.4,2.89-11.22,5-14.17,4-5.71,7.49-3.34,11.55-8.94,3.73-5.15,1.54-8.19,5.92-14.86,2.35-3.58,3.18-3,6.6-7.16,5.11-6.18,4.52-9,9.36-17.33,5.92-10.25,8.75-9.48,9.63-14.86.73-4.48-1.3-8.86-5.37-17.61-4.17-9-6.26-13.49-10.86-17.34s-9.47-5.51-14.86-7.42c-6.24-2.21-9.22-2.25-14.17-5.37-1.9-1.2-3.46-2.45-7.3-6.19-6.31-6.15-7.7-8.48-13.75-14.58-5.1-5.15-5.1-4.37-9.77-9.08-7.85-7.94-7.19-9.47-12-14-8.66-8.28-12.86-5.17-25.18-15-5.86-4.68-8.8-7-10.45-11.42-.91-2.41-1.41-5.39-3-5.64s-2.71,2.82-6.33,3.85a10.61,10.61,0,0,1-4,.14c-6.09-.89-11.42-9.79-12.24-11.15-3.32-5.48-11.94-13.83-29.17-30.54-8.36-8.11-7.24-6.08-12.52-11.56-12-12.4-12.47-17.36-22.29-27.51-4-4.13-9.72-8.39-21.18-16.92a312.3,312.3,0,0,0-26-17.89c-13.11-8-19.66-12-26.27-14-3-.93-18.59-5.58-24.08-8.81-.29-.17-2.4-1.42-5.37-2.89a34.16,34.16,0,0,0-4.26-1.92c-1.1-.37-2.63-.77-8.67-1-5.26-.17-5.46.09-7.29-.27a20.06,20.06,0,0,1-6.74-2.75c-10-6-15.62-10.79-23.94-15a54.89,54.89,0,0,0-12.11-4.4c-2-.56-9.75-2.64-11.14-.28-.34.57-.12,1.09-.69,1.65-1.07,1.06-3.26.64-4.54.14-1-.4-.88-.63-1.92-1.1a7.8,7.8,0,0,0-4.82-.55,7.68,7.68,0,0,0-4,2.34c-2.72,3.05-1.17,6.56-3.3,8-.82.55-1.5.33-5-.28-9.5-1.67-11.82-1.38-13.21-.13a2.81,2.81,0,0,0-1.1,1.92c-.05,1.66,2.21,2.14,3.57,4.54a8,8,0,0,1,.83,5.09,9.29,9.29,0,0,1-3.71,5.78c-3.34,2.52-7.27,2.08-11.15,1.93-16.39-.64-24.8,4.22-28.34-.55-.93-1.25-.74-2.11-2.2-3.58-1.69-1.69-3-1.65-7.84-4.26-1.89-1-2.79-1.64-3.3-2.76-.69-1.48.09-2.14-.42-3.3-.87-2-3.83-1.54-9.49-3.44-2.8-.94-4.23-1.43-5.37-2.61-1.53-1.58-1.18-2.62-3-6.33a32.82,32.82,0,0,0-3.58-5.64c-.86-1.09-4.38-5.51-5.78-4.82-.76.38-.89,2.28-.14,3.44s1.75.92,2.76,1.65c2,1.44,1.78,4.84,1.65,7.3-.27,4.86-2,5.51-2.2,10.18a8,8,0,0,1-.55,2.75c-.23.56-1.25,3.05-3,3.3-2.23.32-4.24-3.06-4.54-3.58-1.29-2.24-.69-3.37-1.79-4.4-1.48-1.38-4-.71-6.88-.14,0,0-1.55.31-12.11,1.52-7.34.83-11,1.25-13.62-.28-3.91-2.3-2.57-5.5-7.43-9.08-1.07-.79-5.4-4-9.76-2.89-1.78.45-1.64,1.13-6.74,4.4-4.6,3-5.85,3.13-6.61,3.17-2.84.13-5.06-1.44-6.33-2.34-3.77-2.67-2.76-4.54-5.64-6.6-4.19-3-7.62.06-12.66-3.44a38.53,38.53,0,0,1-3.57-3c-2.72-2.58-3-3.6-4.82-4.4a8.88,8.88,0,0,0-5-.55c-2.82.37-3.45,1.62-6.33,2.61a14,14,0,0,1-7.57.55c-4.1-1.06-3.62-4-8-6.05s-6.92,0-10.73-2.2c-2.33-1.36-3.47-3.69-5-6.33s-2.9-4.31-2.61-6.33c.1-.72.26-.68.48-1.79s.66-3.4-.31-5.26c-.4-.77-1.41-1.45-3.41-2.79s-2.92-1.81-4.33-2.68c-3.24-2-3.43-2.66-5-3.51-2-1.12-3.7-1.11-9.91-.82-11.51.52-12.19.76-12.79,1.54-2.15,2.79,1.6,6.18-.62,11.56-.24.57-2.14,5-6,5.68-2.69.47-5.15-1.09-5.88-1.55-2.53-1.61-2.24-3-4.13-3.72-2.1-.79-3,.71-7.32,1.34a16.62,16.62,0,0,1-8.26-.51c-3-1.1-2.82-2.35-5.67-3.41-3.27-1.21-6.34-.59-9.08,0-5.63,1.21-5.36,2.92-9.39,3.72a21.61,21.61,0,0,1-17.34-4.85c-2.23-2-3-3.72-5-3.82-2.68-.14-3.25,2.76-6.71,4.95-6.85,4.34-14.81-.56-20.22,2.89a6.45,6.45,0,0,1-7.64,0c-1.22-.93-2-2.45-2.58-6.91-1-8.08.76-10.87-1.55-14.24-1-1.54-1.52-1.11-2.89-3.1a17.05,17.05,0,0,1-2.68-7.94,28.14,28.14,0,0,1,.21-7.84c.53-3.48,1.12-4,4.23-13.62,1.27-3.94,1.8-5.78,2.27-7.64.16-.64,1-3.87,1.44-6.71.91-5.44.28-7.68.42-18.47.07-6.2.32-8.39,2-9.49.68-.46,1.72-.81,5.57-.2a55.41,55.41,0,0,1,10.32,2.88,114.52,114.52,0,0,0,11.45,3.2c3.38.8,6.05,1.26,9.91,1.86,10,1.57,15.7,2.46,23.21,3.2,4.8.47,13.07,1.27,23.84,1.34,7.78.06,21.67-.23,25.28,4.33a32.21,32.21,0,0,0,3.71,4.13c2,1.84,2.54,2.94,3.72,3s1.19-.7,3.2-1.44a26.68,26.68,0,0,1,8.15-.72c2.41.35,3,1.23,4.23.93s1.69-1.62,2.58-2.58c2-2.23,5.72-1.42,11.24-.93,6.55.57,4.51-.29,14.86.31,7.28.42,7.84.82,10.22.2,4.43-1.14,8.67-2.47,8.67-2.47,1.7-.54,2.63-.86,3.81-.52,2.4.7,2.23,3.11,4.54,4,.75.29,1,.15,6.71-.83,3.38-.58,3.73-.61,4.33-.52,2.06.33,3.13,1.51,5.27,3.2a42.07,42.07,0,0,0,6.6,4.34c2.57,1.27,3.67.94,11.45,1.65,8.73.79,8.39,1.31,11.56,1.13,4.39-.25,8.34-.47,11.45-3,4-3.26,4.87-8.92,6.5-20.12a39.77,39.77,0,0,1,2.69-10.94,37.91,37.91,0,0,1,3.09-5.78c6-8.7,14.5-6.18,23.53-15.06,3.31-3.26,5-6.37,7.22-10.53,3.25-6,3.19-8.46,2.79-10.11-.13-.52-1-3.95-3.72-5.16-3.19-1.4-7.21,1-11.55,3.51-3.51,2.05-3.46,2.75-5.47,3.2-3.7.83-7.83-.63-8.88-1-2.5-1-3.23-1.84-4.43-1.45-1.84.6-1.47,3.06-3.1,5.16-3.36,4.35-12.15,3.16-16.71,1.65-2.16-.71-4.88-1.64-6.92-4.33a10.88,10.88,0,0,1-2.27-6.19c0-3.41,2-4.33,9.8-14.34,4.88-6.23,4.72-6.67,7.33-9.29a16.26,16.26,0,0,0,3.41-4c1.49-2.82,2.49-7.44.3-9.6-1-1-2.39-1.11-5.15-1.34a14.33,14.33,0,0,0-5.68.51,8.48,8.48,0,0,0-3.61,1.76c-2.42,2.27-.85,4.89-2.89,7.22-1.51,1.72-2.63.59-7.12,2.68-2.3,1.08-2.09,1.41-6.5,3.92a43.45,43.45,0,0,1-5.16,2.69c-3.64,1.49-5.09,1.15-7.53,2-3.76,1.25-3.35,3.07-8.67,7.32-6.18,4.95-9.13,4.4-11.87,8.88a19.72,19.72,0,0,0-2.27,5.78c-1,5,.74,7.68-.82,9-1.75,1.45-5.63-.57-6.91-1.24a12.88,12.88,0,0,1-5.68-5.36c-1.65-3.17-.64-5-2.37-6.3-1-.75-2.54-.68-5.57-.51-5.28.3-6,1.27-7.74.51-2.62-1.14-1.88-3.77-4.54-5.15-2.82-1.47-4.37,1.1-8,.1-3.88-1.08-3.81-4.58-8.56-6.09a12.27,12.27,0,0,0-4.54-.51c-3.86.21-5.2,2-7.95,2.47-3.42.63-5.38-1.37-9.28-3-4.23-1.76-5.56-.93-20.44-1.24-4.06-.08-7.94-.26-15.68-.62-6.46-.3-13-.16-19.4-.72-7.18-.62-12.12-1.49-14.65,1.44-1.07,1.25-1.43,2.85-3.51,4a13.25,13.25,0,0,1-5,1.34c-2.51.25-3.07-.22-3.92.41-1.29.95-.67,2.47-1.86,4.44-.57.93-1.32,1.6-3.51,2.89a34.54,34.54,0,0,1-8.87,4.13c-4,1.07-5.07.28-13.62.2-6-.05-10.39-.06-16,1.14-3.69.79-6.09,1.3-9.08,2.89-4,2.1-4.67,3.82-8.56,5.16-1.86.63-2.63.56-7.43,1.13-5.64.67-7,1.07-10.11,1.45-7.36.91-14.48,1.79-21.78-.73-1.09-.37-.87-.37-13-7.53-10.23-6-9.94-5.78-10.93-6.5a64.68,64.68,0,0,1-14.66-15.37c-3.64-5.1-2.55-4.84-6.6-10.53a161.44,161.44,0,0,0-11.45-13.93c-5.62-6.27-7-7.24-8.26-10.42-1.79-4.72,1.09-6.66-.62-11.66-.62-1.82-2.51-4.17-6.29-8.87-4.32-5.37-5.39-6-6.71-8.88-1.19-2.64-.79-3.21-2.17-7.63-1.9-6.14-3-6-3.81-9.39-1.49-6,1.53-7.5,1.85-18.37.11-3.51-.24-2.33-.31-8.67-.11-10.7.88-13.07-1.13-15.37-2.55-2.92-5.65-.83-8.77-4.54-1.12-1.33-1.4-2.4-4-5.78-1.21-1.56-1.28-1.51-2.06-2.58-1.71-2.37-3.11-4.3-3.4-6.5-.11-.79-.06-1.53,2.58-7.64,2.22-5.15,2.55-5.45,2.88-7.12.49-2.37,0-2.55.11-7.22.1-4.08.16-6.64,1.24-9.49,1.23-3.27,2.33-3,3.61-5.88,2.52-5.58.59-11.65-.11-13.83-1.57-4.94-3-4-6.08-11.35-1.77-4.2-1.86-5.84-3.72-6.91-2.66-1.54-4.59.59-9-.42-2.83-.65-4.65-2.14-7.32-4.33-2.51-2.06-2.94-3-7.43-8-3.44-3.82-5.16-5.74-6.09-6.29-2.22-1.33-6-1.56-13.62-2-6.52-.35-8.57-.08-9.7.1-3.48.56-4.1,1.26-7.12,1.75-4.26.7-4.9-.4-10.93-.61-3.6-.13-7.7.36-15.9,1.34a52.31,52.31,0,0,0-5.77.82c-7.87,2.39-12.07,9.5-12.59,10.42-3,5.23-1.54,7.58-5.16,11.87a21,21,0,0,1-5.68,4.54c-1.9,1.17-6.73,3.88-19.6,5.88-1.55.24-5.32.8-10.94,1.24-11.15.87-17.6,1.37-25.49-.31-3.6-.77-6.91-2-13.51-4.44-7.74-2.86-8.57-3.74-13.52-5.26a80.3,80.3,0,0,0-16.51-3c-11.74-1.27-12.5,1.1-19.4-.62-6-1.51-10.24-4.34-15.58-7.95-3.77-2.54-6.09-4.57-13-10.83-11.25-10.19-16.87-15.28-18.06-16.61-7-7.92-12.56-14.1-15.37-21.67-1.3-3.49-2.89-5.9-6.09-10.73-1.35-2-2.33-3.33-4-3.92-2.66-.94-4.33.78-7.33.31-.86-.14-2.56-.57-6.09-4.13-5.62-5.67-5-8.31-9.08-12a22.47,22.47,0,0,0-10.32-5.06c-1.24-.29-3.27-.68-14.75.31a131.86,131.86,0,0,0-13.93,1.86c-7.15,1.36-9,2.36-9.91,4-.7,1.25-.3,1.79-1.75,6.61-.95,3.17-1.39,3.8-1.75,4.23-.65.75-1.91,1.79-6.3,2.37-5.51.73-10.25,1.37-13.41-1.44-2-1.75-2-3.62-4-4.23-1.48-.44-2.72.15-4.95,1.13-6.22,2.75-9.38,4.13-11.56,4.34-2.57.24-4.45-.37-7.73-1.45-3-1-6.6-2.16-9.6-5.26-2.34-2.41-2.63-4.25-4-4.23-2.36,0-3.25,5.34-5.57,5.26-.75,0-1-.59-3.3-3.2-2.49-2.79-3.75-4.18-4.75-4.43-2.66-.68-4.22,2-6.39,1.13-1.11-.47-.94-1.28-2.69-3.92-1.3-2-2.74-4.16-5.15-5.47-1.83-1-2.34-.46-5.06-1.44a22.25,22.25,0,0,1-5.68-3.2c-4.48-3.1-7.63-2.49-12.79-4.44-7-2.65-11.4-7.64-14-10.63-5.67-6.43-7.11-12-11.77-12.38a16.18,16.18,0,0,0-4.23.62c-2.92.63-3.7,1.22-7.94,2.68-5.61,1.94-7.55,2.06-9.08,1.24a3,3,0,0,1-1.34-1.24c-.72-1.38.3-2.76.62-4.74.27-1.7-.11-3-.73-5.06-1.22-4.14-4.35-5.34-8.56-9.91-5.64-6.1-3.94-8.17-8.46-11a25.77,25.77,0,0,0-9.19-3.61c-1.89-.26-2.66-.08-4.12-.72-3.37-1.47-5-4.89-5.47-5.88-1.69-3.56-.71-5.16-2.58-6.81a7.39,7.39,0,0,0-4.75-1.55c-1.51,0-2.66.39-4.95,1.24-2.88,1.06-3.15,1.58-5.16,2.17a17.34,17.34,0,0,1-5.16.61c-4.26,0-4.47-1.15-8.15-1.23-3.85-.09-4.43,1.17-8,.82A16.81,16.81,0,0,1,678,18.42c-4.89-2.26-6.3-5.28-10.94-6.19a3.28,3.28,0,0,0-2.07,0c-1.84.81-1.28,3.63-3.71,7.12a6.12,6.12,0,0,1-2.06,2.06c-1.45.77-2.33.24-4.23.42-3.8.34-5,2.9-6.92,2.06-.88-.4-1.53-1.4-1.34-2s.78-.52,3-.93c3-.56,3.55-.74,4-1.24a3.47,3.47,0,0,0,.51-4c-.88-1.66-2.9-1.82-4.95-2.68-2.42-1-3.26-2.35-4.75-3.51-4.06-3.2-7.77-1.19-14.75-2.79-9.28-2.13-10-7.35-16.72-6.71a64.31,64.31,0,0,0-8.35,2.07c-2.24.62-3.11.92-7.12,2.16C586.92,7.61,586.94,7.41,586,8.1c-3.76,2.72-2.47,4.73-7.23,9-3.89,3.48-5.55,2.84-6.6,5.26-1.72,4,2.06,7.14,0,10.94-.48.88-1.81,1.8-4.44,3.61-3.94,2.7-5.91,4.06-8.46,5.16-4.89,2.12-5.59.77-11,2.89-5.29,2.05-4.67,3.33-7.94,3.92-4.54.82-5.32-1.7-12.9-1.86a21.29,21.29,0,0,0-7.74.93c-1.18.4-2.4,1-4.85,2.06-3.93,1.79-4.12,2.08-5.06,2.17-2.16.2-3.74-1.13-7-3.82-8.52-7-10.2-8.11-10.94-7.63s-.11,1.65,0,5.88c0,.89.06,2.95-.1,5.06-.29,3.7-.5,6.47-2.27,8.77-1.24,1.61-2.71,2.29-4.65,3.2s-4.42,1.67-10.93,2.16a65.43,65.43,0,0,1-10,.31c-4.51-.29-9.19-.59-14.14-3.09-3.4-1.72-2.84-2.41-8.05-5.47-4.08-2.4-6.39-3.76-9.39-4.13-4.65-.58-6.39,1.76-11.14,2.89-3.31.78-6.81.67-20.54-4.23-7.26-2.6-10.66-4.13-18.77-7.43-21.18-8.61-22.12-8-28.69-12-5.45-3.32-6.8-5-15.17-9.91-11-6.45-14-6.72-16.3-6.5-4.25.42-6.49,2.58-11,1.45-1.8-.45-2.7-1.09-6.3-2.07a55.72,55.72,0,0,0-5.88-1.23c-4.57-.65-6.21.25-13.51.82-5.55.44-4.75-.07-10.74.41-3.23.26-3.82.44-10.73,1.14-5.91.6-5.37.46-7.32.72-6.44.87-9.72,1.34-12.8,3.41a13.1,13.1,0,0,0-5.26,5.78c-1.42,3.4-.19,5.64-1.75,6.81-1.75,1.29-5.55.2-7.54-2.07s-.7-4.49-2.89-6.81c-1.69-1.8-4.74-2.88-7-1.86a5.93,5.93,0,0,0-2.79,3.31c-1.65,3.81,0,6.13.1,11.66.06,2.56.17,7.25-2.37,11.66-1.55,2.69-3.5,4.24-6.09,6.29-4.68,3.72-5.78,2.82-9.7,6-4.89,4-4.26,6.28-8.35,8.16-2.79,1.28-3.27.3-7.95,1.75s-4.27,2.41-8.46,3.82c-6,2-8.79.71-11.14,3.3-1.35,1.48-.89,2.41-1.86,4.75-2.62,6.34-8.86,6.58-17.44,15.16a11.44,11.44,0,0,0-3.4,5.78c-.55,2.69.08,5.78,1.13,6,.71.14,1.16-1.1,2.89-2.79s2.69-1.81,4.75-3.2c4.9-3.3,5.19-6.48,7.43-6.29,1.51.13,2.56,1.7,3.71,3.4a14,14,0,0,1,2.17,5.58c.85,5.45-2,7.67-.21,10.42,1.06,1.67,2.64,1.7,2.89,3.4.22,1.49-.89,2.21-.52,3.92.22,1,.92,2.22,1.76,2.27.44,0,1-.25,2.17-2.16,2.17-3.58,2.15-5.8,3.19-6,.89-.16,2,1.27,2.58,2.58,1.15,2.75-.68,4.22-1,9a44.34,44.34,0,0,0,.41,7.84c.22,2,.46,3.26-.1,5-.69,2.07-1.78,2.37-1.65,3.41.32,2.46,6.64,2.39,7,4.74.25,1.58-2.24,3.7-3.61,3.31-1.19-.35-.9-2.39-3.2-5-1.14-1.27-1.79-1.41-2.07-1.44-1.22-.15-1.73.87-3.3,1.34s-2.18-.33-4.23-.31a7.57,7.57,0,0,0-7.84,7.84,14.28,14.28,0,0,0,1,6.4,21.64,21.64,0,0,0,5.16,7.43c5,5.09,7.11,4.17,8.56,7.33,1.89,4.08-.11,8.91-.82,10.62-1.21,2.93-2.35,3.46-3.82,5.89-1,1.61-1.77,3.5-2.58,15.27-.84,12.17-.35,15.2,1.45,18.05a28.68,28.68,0,0,0,2.68,3.31c4,4.55,5.55,5.07,9.08,8.87,3.8,4.08,5.69,6.13,5.67,8.77s-1.72,3.73-1.13,6.81a8.42,8.42,0,0,0,2.27,4.33,9.57,9.57,0,0,0,3.3,2.07c2.3.95,2.88.38,3.72,1.13,1.1,1,.58,2.42.82,6.81.26,4.69,1,5.47,1.34,5.78,1.2,1,3-.75,4.85.31a3.73,3.73,0,0,1,1.45,1.55c1.27,2.34-.6,5.21-1.55,8.05-2.58,7.68,2.6,12.13,1.24,19.6a11.55,11.55,0,0,0,.2,5.26,8.16,8.16,0,0,0,1.45,2.79,9.68,9.68,0,0,0,1.24,1.24,26.9,26.9,0,0,0,2.27,1.75c2.52,2.13-.61,10.35-1.35,12.28-.4,1.06-.48,1.17-1.75,4a145.53,145.53,0,0,0-5.78,14.13c-1.34,4.12-2,6.18-2.06,7.95-.16,5.26,2.19,6.86,2.27,13.62.07,5.69-1.57,6.83-2.07,7.12a3.22,3.22,0,0,1-2.88.2c-1.48-.71-1.07-2.47-2.79-4.64a5.68,5.68,0,0,0-3.2-2.37c-1.84-.34-3.09,1.08-6.09,3a51.58,51.58,0,0,1-6.5,3.3c-6.36,2.94-8.43,2.7-9.28,4.75s.73,3.44-.42,5.57c-.66,1.23-1.75,1.8-4,2.78-5,2.17-7.48,3.26-10.22,3.82-6,1.24-8.61.24-9.08,1.45s2.52,3.18,8.26,8.46c9.68,8.91,9.65,11.6,9.39,12.79-.35,1.58-1.55,2.47-1.86,5.37a6.33,6.33,0,0,0,.52,3.82c.71,1.3,1.46,1.16,2.78,2.47,2.46,2.43,1.87,4.84,3.61,5.37,1.07.33,2.23-.3,3.2-.83,1.92-1,2.36-2.34,2.89-2.16,1,.33-.82,4.9,1.45,7.53.76.89,2,1.59,2.68,1.24.88-.49-.11-2.51,1.13-4.75.26-.46,1.08-1.94,2.17-2,1.37,0,1.88,2.26,4.23,5.06,1.55,1.83,2.08,1.73,3.92,3.5,3.87,3.73,2.8,5.43,6.19,9,2.05,2.15,4.14,3.31,7.64,5.26a45.56,45.56,0,0,0,6.19,2.89c1.1.41,2.57.83,5.47,1.65,6.29,1.79,7.14,1.84,7.74,1.86,2.94.08,2.91-.76,5.78-.52A13.46,13.46,0,0,1,226,461.7a7.84,7.84,0,0,1,2.89,2.78c.58,1.09.49,1.77,1.34,3,.65.95.9.83,1.75,1.85a7,7,0,0,1,2,4.13,4.77,4.77,0,0,1-.82,3.1c-1.07,1.41-2.26.91-3.3,2.06-1.38,1.52-1.26,4.55-.11,6.5s2.64,1.83,3.1,3.51c.38,1.39-.32,2.7-.93,3.82-1.79,3.24-3.65,3.16-6.4,6.39-1.51,1.78-3.4,4-3,6.4.32,1.92,1.78,2,3,4.65.86,1.88,1.72,5.34.31,6.6-1.73,1.55-5.51-1.43-7.53.41a2.56,2.56,0,0,0-.83,2.38c.36,1.13,1.94,1,3.92,2.78a4.06,4.06,0,0,1,1.45,1.86c.41,1.4-.39,2.78-1.14,4a18.38,18.38,0,0,1-2.47,3.1c-3.41,3.81-3.11,5-5.27,6.19-.25.14-3,1.57-4.33.52-1-.77-.45-2.22-1.34-2.69-1-.55-3,.82-4.23,2.27s-.81,2.3-2.17,4.13a6.45,6.45,0,0,1-3.61,2.79,7.06,7.06,0,0,1-3.82-.62c-2.28-.79-2.67-1.59-4-1.45a4,4,0,0,0-2.48,1.34,4.1,4.1,0,0,0-.93,2.27c-.17,2.46,2.31,3.17,2.89,6.09a6.5,6.5,0,0,1-.51,4c-1.64,3.16-6,3.37-5.88,4.43s4.46.73,5.15,2.69c.14.36.26,1.16-1,3-2.12,3-4,3-7.22,5.67-3.85,3.15-3.78,5.19-6.81,6a20.78,20.78,0,0,0-3.61.82c-2.39.92-2.47,1.78-4.13,2.27-2.65.78-3.64-1.07-6-.41-1.78.5-1.65,1.69-4.44,4.44a44.44,44.44,0,0,1-6.71,5c-3.67,2.44-4,2.32-5.26,3.61s-3.37,3.53-3.2,6.3c.1,1.62,1,2.41.41,3.4-.38.71-1.07.79-3.19,1.55-2.67.95-4,1.43-4.23,2.06-.57,1.51,2.29,2.76,2.27,5.68,0,.12-.05,2.43-1.45,3.2-1,.57-2.07-.17-6.4-1.55a25.66,25.66,0,0,0-3.2-.93c-2.55-.36-4.76.32-7.32,1.13s-3.53,1.48-5,1a3.81,3.81,0,0,1-2.17-1.65c-1-1.74.43-3.47-.31-4.13s-2.79.47-4.33,1.34c-2.41,1.36-2.87,2.11-5.06,3.61-3.9,2.67-4.83,1.91-5.78,3.51-1.33,2.25.41,3.94-1.24,6.71-.71,1.19-2,2.51-3,2.27-.82-.21-.7-1.31-1.75-1.86-1.23-.64-2.9.05-3.82.72-.5.37-1.06.92-2,2.89a41.22,41.22,0,0,0-2,5.68c-1.1,3.58-1.35,4.18-2.07,4.64-1.39.9-2.5,0-3.4.93s-.82,3.54.21,5c.31.43.55.55.72,1,.48,1.37-.63,2.6-.31,2.89s1.62-1.31,3.92-2.06c.42-.14.62-.16,5.47-.52,1.88-.14,2.19-.16,2.68-.41a6,6,0,0,0,2.58-3.61c.84-2.56.12-4.11.83-4.44,1-.48,2.72,2.91,4.85,2.58.82-.13,1-.71,2.47-2.27,2-2.13,4.1-4.37,5.88-4,1.38.26,1.23,1.82,3.1,2.68,1.52.7,2.44,0,4.64,0,3.4-.06,3.47,1.47,7.64,2.06,3.37.48,3.7-.47,6.91.21,2.63.56,2.53,1.22,5.26,1.86,4.08.94,5.33-.29,6.81.92,1,.84.79,1.73,1.65,7.12,0,0,.57,3.5,1.45,7.43a47.5,47.5,0,0,0,1.55,5.88,42.09,42.09,0,0,0,2.78,6.2c1.66,3,2.49,4.57,3.92,5.67,2,1.52,2.53.67,5.27,2.27,2.25,1.32,1.76,1.83,6.08,5.47,2,1.69,2.58,2,3.2,3.1a21,21,0,0,1,1.55,4.33c.52,1.82.49,2.17.93,2.48,1.25.86,3-.94,4.54-.21,1.05.51,1.35,2,1.55,3.3.64,4.38,0,6.31,0,11.35,0,1.75.09,4.13.31,8.87,0,.66,0,1.08.1,1.66a28.42,28.42,0,0,0,1.55,6.91c.55,1.68.35,2.2-.11,13.62-.32,8.07-.21,7.78-.41,9.18-.64,4.63-1.47,5.63-2.17,10.94-.54,4.13,0,3.65-.61,7.43a75,75,0,0,1-2.58,10.94c-1,2.94-1.4,3.56-1.66,5.57-.34,2.67.2,3.3-.41,5.88-.53,2.24-1,2.11-1.44,4.44-.31,1.68-.23,2.68-1,3.3-.57.44-1.15.36-2.38.41-1.48.07-1,.21-4.23.62-7.49,1-8.81.06-11.25,1.55s-1.75,2.89-4.74,4.64-4.22.66-5.88,2.38a10.35,10.35,0,0,0-2.38,7.22,4.56,4.56,0,0,1-.1,2c-.63,1.91-2.76,2.77-3.3,3-2.63,1.07-3.65-.14-5.16.62-2.72,1.36-2.64,6.85-2.58,11.35,0,3.85.48,4.51.93,10,.58,7.09.83,10.66-.83,12.07-.76.65-3.5.85-9,1.24a23.51,23.51,0,0,0-4.65.52c-2.11.52-2.83,1.11-5,1.44a15,15,0,0,1-3.71.1A23.49,23.49,0,0,1,94,852.25c-4.06-1.56-5.37-4.28-7.33-3.61a6.56,6.56,0,0,0-1.34.93c-1.68,1.3-2,2.07-3.41,3.2a5.59,5.59,0,0,1-2.16,1.34c-1.69.3-2.81-1.44-5.89-4.23a48.54,48.54,0,0,0-8.46-6,8.82,8.82,0,0,0-3.4-1.44,9.28,9.28,0,0,0-5.26.82c-2.51,1.1-2.21,2.05-5.06,3.3-.14.07-1.37.49-3.82,1.35a20.66,20.66,0,0,1-2.89.92c-2.28-.13-2.37-3.33-5.67-5.88-2.27-1.74-2.7-.6-6.3-2.89-2.22-1.41-2.94-2.4-4.74-2.58a7.28,7.28,0,0,0-3.92.93A13.22,13.22,0,0,0,20,842c-5.86,6.79-5.56,7.09-7.22,8.26a55.64,55.64,0,0,1-6.6,3.09C1.84,855.29.11,855.82,0,857s1.62,2.55,3,3.09c2.44,1,4.09-.43,6.7.83a8,8,0,0,1,1.76,1.24c2.8,2.3,2.65,3.72,4.54,5.36s2.84.67,6.4,2.89a21.35,21.35,0,0,1,3.71,3,22.3,22.3,0,0,1,4.13,5.88A163.36,163.36,0,0,0,38.91,894c7.25,11.22,12.61,7.22,18.77,17.75,2.26,3.85,4.12,8.78,9.29,11.86a48.64,48.64,0,0,1,4.23,2.58c4.63,3.26,6.3,6,6.91,7.12,1.36,2.49,1.28,3.88,1.24,4.23-.11,1.24-.58,1.41-1.13,3.41-.72,2.58-.22,3.28-.93,4.23-.87,1.15-2.47,1.24-4.75,1.34-4.81.21-6.57-1.43-8.87-.1-1.07.61-1,1.11-2.37,1.85-2.18,1.14-3.52.53-4,1.35s.95,2.39,2.89,6.08c1.58,3,2.42,4.62,2.48,6.81.08,2.88-1.25,4.18-.42,5.16s2.54-.15,5.68.21c1,.11,2.24.39,7.53,3.3,3.47,1.91,3.78,2.25,5.88,3.41a119.38,119.38,0,0,0,16.41,7.22,9.33,9.33,0,0,1,3.4,1.86,10.47,10.47,0,0,1,3.2,6.29c.32,2.92-1,3.39-.31,6.09a16.22,16.22,0,0,0,1.76,3.92,14.79,14.79,0,0,0,1.75,2.68c1.26,1.42,2.92,2.07,6.81,2.89,6.36,1.34,6.14.47,7.84,1.34,3.5,1.78,2.72,4.55,6.71,8.05,1.22,1.07,1.37.88,8,4.13,5.58,2.76,5.2,2.76,10.52,5.36,2.49,1.22,5.57,2.73,9.7,4.54s7.15,3.15,11.25,4.54c2.74.94,5.33,1.69,8.77,2.69s6.55,2.76,9.9,3.92c.8.27,2.23.75,2.69,2,.54,1.42-.56,3.05-.93,3.61-3.46,5.22-5.64,11.21-9,16.51-4.74,7.52-3,7.16-8.15,15.48-3.69,6-4,5.15-8.36,12.07-4.9,7.71-7.38,11.68-8.67,17.23-1,4.34-.39,5.44-1.85,9.6-1.33,3.77-3,6.13-6.09,10.52-5.52,7.77-9.06,10.62-10.63,16.72a11.17,11.17,0,0,0-.31,4.23c.4,3.13,2.38,7.28,5.57,8.05,2.45.59,3.92-1.21,5.16-.21s-.1,3.14,1.45,6.19c.15.3,0,0,2.06,2.89,1.67,2.35,1.84,2.66,2.48,3.4,1.5,1.75,2.26,2.62,3.2,2.79,2.61.48,5-3.54,5.88-3,.57.36-.1,2.37-.21,2.68-1.36,4.06-4.43,13.22-2,19.09a22.92,22.92,0,0,0,3.82,5.47c2.44,2.92,3.19,2.94,3.92,4.64.92,2.14.05,2.82.31,7.84.21,4,.79,4.28.51,6.3-.37,2.74-1.73,4.25-3.71,7-1.75,2.44-4,7-8.67,16.1-1.72,3.41-2.6,5.32-1.75,6.61s3,.84,5.67,1.23c2,.3,4.31,1.1,13,9,7.6,6.89,6.58,6.95,10.12,9.49,5.81,4.18,7.05,2.91,11.86,6.71,3.07,2.42,5.28,5.43,9.7,11.45a89.33,89.33,0,0,1,7.12,10.84c3.31,6,5,9,5.26,13.21.29,3.86-.8,4.28-.41,9.9.21,3.09.66,4.66-.41,5.88-1.31,1.5-3.14.47-6.4,2-1.89.87-4.68,2.77-4.44,4.34s3.29,1.13,6.61,3.3c3.5,2.29,4.95,5.94,7,11.14,1.8,4.53,1.38,5.58,3.41,9.39,1.05,2,1.39,2.12,3.92,5.88,3.42,5.09,5.13,7.63,6.09,10.12,1.26,3.25,2.95,7.74,1.13,11.76-1.3,2.9-3.11,2.63-5.88,7.43-1.17,2-1.54,3.29-2.68,3.51-2.23.41-4.14-3.82-5.47-3.31-1,.39-.43,3-.93,6.2a23.84,23.84,0,0,1-3.4,8.15c-5.48,8.78-16.91,9-16.72,12.79.1,1.94,3.12,3.61,5.16,4.75a18.62,18.62,0,0,0,4.85,1.75,29.48,29.48,0,0,0,8.05.62c8.12-.2,12.17-.31,16.2-1.13a39,39,0,0,0,7.32-2.17,53,53,0,0,0,5.06-2.58c4.06-2,7.64-1.51,14.24-1.13,12,.67,10.7-.45,15.17.3,9,1.53,14.73,6.16,26.21,15.38,6.56,5.27,9.89,8,12.59,12.59,2.28,3.9,2.25,5.73,6.08,12.28,3.23,5.51,4.05,5.56,5.37,9,2,5.19,1,7.27,2.78,12.21.83,2.25,1.8,3.8,5.37,8.64,7.34,9.94,8.21,10,12.79,16.4.92,1.27,4.91,6.88,10.53,14,2.76,3.52,3.85,4.78,5.57,5,3.25.32,6.13-3.49,12.18-12.9s9-13.94,10.73-17.44c5.09-10.07,10.61-21,15-36.42,5.61-19.92,2.69-24,9.49-37.87,3.43-7,4.41-6.43,9.08-15.89,3.73-7.55,6.57-14.9,11.56-16.51a24.54,24.54,0,0,1,6.5-1.44c1.62,0,2.76.26,4.13-.42a6.46,6.46,0,0,0,2.68-3,17.54,17.54,0,0,0,2.79-8.46c.16-5.1-2.4-7.88-1.24-8.77,1-.78,4.4.28,5.84,1.6a1,1,0,0,0,.45.26c1.35.24,3.07-3.68,3.61-4.85.75-1.6,3.46-5.13,8.88-12.18,1.52-2,6.54-6.5,16.51-15.48,7.14-6.43,9-8.05,11.76-11.35a84.35,84.35,0,0,0,7.33-10.52c11.35-18.14,12.61-22.26,19.39-31.27,5.2-6.89,5.31-5.61,8-10,2.4-3.83,3.93-7.4,7.23-8,2-.4,2.81.72,3.92,0,2.5-1.63-1.15-7.59,1.85-13,.58-1,1.76-2.17,4.13-4.44,3.84-3.68,4.5-3.32,6.3-5.26,4.84-5.25,2.49-10.51,7-13.11.81-.46.93-.32,4.54-2a30.08,30.08,0,0,0,4.75-2.37c2.53-2,2.1-4.94,3.09-8.77,1.82-7,5.77-6.79,9.81-15.58.89-1.94,1.59-4.5,3-9.6,2.47-9,3.7-13.48,3.61-18.06a33,33,0,0,0-3.92-15.47,60.42,60.42,0,0,0-4.75-6.61c-4.36-5.67-6.48-7.46-8.35-11.86-2-4.7-1.25-6.52-.83-7.23.68-1.15,1.57-1.24,2.17-2.68a6.46,6.46,0,0,0-.42-5.06c-.68-1.29-1.52-1.76-3.4-3.19,0,0-2.87-2.2-4.95-4.23-4.06-4-4.26-10.16-4.34-12.59a24,24,0,0,1,1.86-9.91c.87-2.19,1.86-3.82,5.16-8.36,4.36-6,6.54-9,7.84-10.32,2.72-2.74,8.52-8.47,17.44-10.21a31.79,31.79,0,0,1,8.77-.31,58.14,58.14,0,0,1,26.93,9.91,22.23,22.23,0,0,1,5.57,5.26,26.33,26.33,0,0,1,3.41,7c2.12,6,1.15,6.78,2.68,10.53.79,1.94,3.22,7.87,8.36,9.6,1.25.42,2.6.56,10.42-1.14,6.42-1.4,9.63-2.09,11.66-2.89,2.41-.94,4.32-2,14.55-10.73,10.73-9.12,13.46-12,16-15.27,3.28-4.19,4.93-6.36,5.68-9.49,1-4.08,0-6.88,2.27-9.5,1.69-1.93,2.82-1.07,4.85-3.2,2.53-2.65,1.48-4.73,3.92-7.73a13,13,0,0,1,5.36-3.72c2.22-1,3.6-1,10-1.44.44,0,3.8-.25,13.31-.52,2.87-.08,6.51-.16,6.92,1.14.26.84-1,1.74-.62,2.47s2.21.6,3.51.41a30.06,30.06,0,0,0,7.42-2.06c4.42-1.9,5.81.37,14.14,0a45.13,45.13,0,0,0,13.93-2.89c4.22-1.62,7.56-2.9,10.32-6.19,2.46-2.94.93-3.28,4.54-9.8,2.33-4.21,4.77-7.33,3.61-9.8-.25-.54-.49-.65-1.13-1.86a19.54,19.54,0,0,1-1.66-4.34c-1-3.83-1.52-5.75-.61-6.81.73-.85,1.56-.35,4.43-1.13a12.8,12.8,0,0,0,4.95-2.17c1.75-1.4,1.16-2.15,3.82-5.67,2.06-2.73,3.21-3.34,4.13-3.61a7.6,7.6,0,0,1,2.89-.11c2.13.12,4.27,0,6.4.11,8.56.33,8.79.32,9.8.51,2.72.52,2.54.88,5.57,1.45,3.55.66,4.07.22,7.22.72s2.87.94,8.46,2.48c4.77,1.3,5,1,7.33,2a32.71,32.71,0,0,1,6.5,3.81c4.42,3,6.62,4.55,7.53,5.89,2.94,4.29,3.18,10.52,1.66,14a3.93,3.93,0,0,0-.42,1.24c-.36,2.9,3.5,4,4.54,7.53.43,1.41-.06,1.72-.93,6.71-.48,2.77-.88,5.84-1,7.94s.31,6,1.24,13.62c.61,4.94,1,7.61-.72,9.8-.78,1-1,.61-2.68,2.07-2.34,2-3.63,4.7-6.2,10.11-.57,1.22-.91,2-.62,2.79.42,1.14,1.78,1.37,4.24,2.57a42.85,42.85,0,0,1,3.71,2.17c3.65,2,8.47-.13,17.33-1.65a139.91,139.91,0,0,1,14.76-1.75c5.17-.27,6.79,0,9.18-1.34,3-1.76,4.63-4.68,7.12-4.24a2.46,2.46,0,0,1,1.76,1.14c.47,1.13-.82,2.61-1.24,3.1-1.71,2-3.38,2.09-7.43,3.81s-3.77,2.2-5.88,2.69-3,.2-7.22-.11a81.65,81.65,0,0,0-10.74-.31c-4.32.24-3.49.76-8,1-5.08.3-7.44-.27-9.5,1.54a5.87,5.87,0,0,0-1.85,3.2c-.42,2.23.79,4.1,2,5.88a10.3,10.3,0,0,0,3.5,3.72c1.87,1.07,2.94.66,6,1.13,3.33.52,6.28,1,8.25,3s.74,3.56,3.41,6.92c.49.61,1.56,1.65,3.71,3.71,1.93,1.85,2.89,2.77,3.41,3.2,4.73,3.88,8.65,2.89,9.39,5.37.48,1.61-.76,3.44-1.76,4.33-1.39,1.23-3.11,1.33-4.85,1.34-7.89.07-12.56.12-13.62-2.37s2.31-5.56,1.24-6.6c-.81-.8-3.25.46-4.54,1.13a14.89,14.89,0,0,0-5.57,4.95c-.26.41-3,4.73-1.75,6.09.59.64,1.63.18,3.81,0,3.22-.26,4.2.48,7.33.72,5.55.44,5.71-1.6,9-.93,5.21,1.09,5.12,6.39,11.24,8.36,1.89.61,3.77.51,7.54.31a48.88,48.88,0,0,0,12.59-2.37,59,59,0,0,0,13.72-6.91c7.66-5,6.67-6.29,12.17-9.81,10.48-6.68,22-7.18,27.55-7.43a90.36,90.36,0,0,1,10.94.42c2.75.19,11.62.88,34.16,4,5.07.71,8.7,1.24,12.89-.41,3-1.17,4.15-2.62,8.16-3.92a27.27,27.27,0,0,1,8.66-1.34,28.55,28.55,0,0,1,16.82,5.67c3.14,2.46,4.31,4.66,6.71,4.44,1.52-.14,1.8-1.1,5.36-3.72,2.72-2,4.53-3.33,7.23-4.12a19,19,0,0,1,6.09-.62c2.39,0,3.91,0,5.36,1,1.18.8.94,1.29,2.17,2.17,1.57,1.11,4.11,1.82,5.67.82,1.21-.77.69-1.83,1.86-3.2,2.17-2.55,6.63-2,6.91-2,3.51.48,3.79,2.64,6.92,2.89a9.17,9.17,0,0,0,6.29-2.27c3-2.58,2.31-5.64,3.82-9.8,2.33-6.43,5.9-4.67,11.86-13.21,3.69-5.28,4.68-9.32,8.36-13.83a54.9,54.9,0,0,0,4.23-5c1-1.42,1.41-2.27,2.58-3,1.55-1,2.52-.53,4.13-1.24s2.65-2.17,3.61-3.61c2-3,4.39-5.65,6.09-8.77,7.22-13.33,10.83-20,11.87-21.26,4.94-6,8-6.61,11.45-13.31,1.52-2.94,1.08-3.11,3.3-7.84a68.11,68.11,0,0,1,8.46-13.93c4.07-5.06,6.39-8,9.7-8,3,0,3.82,2.38,7.22,2,2.53-.31,3.19-1.76,6.71-2.37a20.91,20.91,0,0,1,4.44-.1c4.44,0,5.62-1.83,12.38-4.13,5.78-2,5.94-1,9.6-2.79a33.34,33.34,0,0,0,7.73-5.47c6.47-5.54,5.62-7,9.7-9.39,4.82-2.78,6.16-.79,10.32-3.92,2.3-1.72,3.79-3.75,6.71-4,.34,0,2.7-.25,3.4.93.46.76-.07,1.63.52,2.27a2.33,2.33,0,0,0,2,.41c1.91-.25,2.52-1.73,3.92-2.48,2.19-1.16,5,.17,6.09.62,4.12,1.64,9.63.74,41.58,1.45,15.62.34,20.21.69,24.46,1.13,5,.52,8.86,1.11,15.17,2.07,20.13,3.05,13.75,3.34,18.77,3.61,2.48.13,5.48.14,7.54,2.27,1.45,1.5,1.79,3.39,2.27,6.09,1,5.47-.54,6.66.82,9.69.86,1.92,1.45,1.4,5,5.47,3.36,3.91,3.3,4.93,5.26,6.4,1.73,1.3,2.3.77,8.25,2.37s6.42,2.33,8.36,2c3.11-.58,6.21-3.23,6.71-6.19.25-1.48-.37-1.76-1.45-6.6a27.73,27.73,0,0,1-.93-5.57c0-.88.13-6.15,3.51-8.77,1.55-1.2,3-1.22,7.43-1.45,11.55-.58,9.9-.84,15.48-.82,8.73,0,10.38.64,11.76,1.55,1.87,1.22,2.84,2.71,4.65,6,7.27,13.17,7,17,10.83,18.68.61.27.41.08,10.63.31,7.23.16,6.55.23,8,.2,6.2-.12,10.84-1.3,16.71-2.78a112.91,112.91,0,0,0,12.18-3.72c6-2.22,8-3.59,13-4.75a48.1,48.1,0,0,1,8.77-1.13c12.48-.64,22.7.54,37.87,1a142.38,142.38,0,0,0,16.3-.51c10-.88,14.57-2.35,15.89-5.47a9.49,9.49,0,0,0,.52-3.82c-.28-3.7-2.73-5.25-2-7.12.48-1.16,2.06-2.12,3.09-1.75,2.11.73.18,6.36,3.2,9.39,1.7,1.69,4.12,1.74,6.91,1.75,7.52,0,8.75-3.51,16.72-4.54,4-.51,3.92.34,11.76-.21,5-.35,4.06-.64,8-.82,5.82-.28,8.83.32,10.63-1.76,1-1.1.58-1.83,1.44-2.68,2.15-2.13,7.71-1.62,10.84,1.24s1.55,5.92,4.84,11.45a24.75,24.75,0,0,0,5.37,6.09c11.49,10.24,28.83,10.7,31.26,10.73,7.11.1,8.48-1.25,13.21.21,6.34,1.95,7.2,5.41,13.42,6.81,3.91.88,4.94-.19,13.1-.83,2.47-.19,7.25-.13,16.82,0,15.28.21,17.35.56,20.84-1.24a21.72,21.72,0,0,1,6.71-2.68,17.13,17.13,0,0,1,8.46.21c1.89.58,2.1,1.08,3.1.93,2.4-.39,2.34-3.53,5.47-5.68,1.38-1,3-1.22,6.08-1.75a26.78,26.78,0,0,1,7.12-.42c2.85.25,3.11.81,9.29,2.38,4.85,1.23,4.35.8,6.5,1.55,2.38.82,4.14,1.74,8.15,3.09,2.48.83,3.05.9,3.72.72,2.89-.75,3.57-4.93,4.64-4.74s0,5,2.58,7.84c1.57,1.73,3.34,1.47,6.81,2.37,5.55,1.45,5,3.16,12.38,6.4,7.06,3.11,8.82,2.09,12.07,5.16a15.2,15.2,0,0,1,4.54,7.12c1,3.68-.36,5.23,1.14,7.94,1,1.83,2.21,2.18,5.47,4.54a77.57,77.57,0,0,1,7,6c4.86,4.62,4.32,7.92,9.29,16.82,3.14,5.62,3.17,4,8,11.66a119.3,119.3,0,0,1,9.39,17.64c2.91,7,2.72,8.64,5.57,12.49C2010.2,1109.4,2012,1109.59,2013,1113Z"/></g></g></svg>