<svg xmlns="http://www.w3.org/2000/svg" viewBox="0 0 1409.78 2637.76"><g id="Layer_2" data-name="Layer 2"><g id="Dominica"><path d="M338.67,0c-.21,2.75-1,13.87,1.34,18.07.34.62,1.22,2.24,2.43,2.25.69,0,1-.51,2.08-1.39.61-.49,2.77-2.24,5-2.42a6.12,6.12,0,0,1,3.13.69,79.91,79.91,0,0,1,9.89,5c5.61,3.61,8.42,5.42,8.85,6.25,1.76,3.43-.23,5.76.17,10.76.48,6,3.93,10.2,6.08,12.84,6.79,8.35,12.3,5.2,22,13.54,5.92,5.07,9.24,10.84,11.8,15.27,2.85,5,4.88,8.47,5.9,13.71,1.42,7.32-.86,9.07.87,15.45,1.59,5.86,3.66,4.91,7.11,12.49,4.11,9,2.23,12.64,7.12,18.75,1.8,2.25,3.73,4.66,6.94,5.38,4.89,1.09,8.1-2.8,10.93-1,1.6,1,1.35,2.67,3,8.33,1.31,4.62,2,5.45,3.12,8.85,2.43,7.61,1,10.26,2.26,16.48,2,9.82,8.31,16.44,12.32,20.66,2.81,3,6.38,5.5,13.53,10.58,5.49,3.91,7.31,4.69,9.38,5,1.49.25,2.53.18,3.64,1,2.14,1.65,2.68,5.31,1.91,8.15-1.23,4.56-5.19,4.76-5.38,7.64s3.55,4.21,11.11,10.07a120.86,120.86,0,0,1,13,11.8c4.07,4.11,6.13,6.21,7.29,8.68,1.62,3.42,3.2,6.76,3.3,11.28,0,1.64-.14,2.77.69,3.64.43.45,1.72,1.45,8.33-.17a33.87,33.87,0,0,0,8.33-2.78c8.56-4.44,9.09-10.59,13.89-10.59,3,0,5.37,2.4,7.11,4.17,2.29,2.31,2.49,3.95,6.42,9.89,2.64,4,3.37,4.49,4.17,4.51,2.26.07,4.6-3.77,5.21-7.29.89-5.19-2-9.5-1.57-9.71s2.68,3.26,4.52,6.94c1.29,2.59,2.77,5.09,4.16,7.63.82,1.5,1.27,2.3,2.08,2.43s1.82-.39,4.69-4.34c3.51-4.81,3.4-5.94,5.21-6.94a7.36,7.36,0,0,1,7.11,0c3.25,2.11,2.17,6.84,5,8,.82.33,2,.37,4.16-.7,8.48-4.18,9.15-14.1,18.57-20.13,3.12-2,4.8-2,5.9-1.56,2.61,1.12,2,5.12,4.34,6.25,2.09,1,4.35-1.26,9.55-4.34,8-4.74,9.44-3.51,14.92-7.47,6.13-4.43,5-7.55,8.5-8.5,4.22-1.14,9.29,3,19.27,11.28,9.43,7.85,7.75,8.19,13.19,11.63,4.52,2.85,8,4.1,9.2,7.81s-1.22,6,.34,8.16c1.74,2.36,6.09,1.41,12,1,5.5-.35,2.14.46,17.7.86,14.93.4,22.53.55,29-1.73A34.34,34.34,0,0,0,791.06,277c8.58-6.53,11.08-15.49,13.54-14.75,1.32.4,1.8,3.36,2.26,6.25.65,4.08-.13,6,1,6.77s2.38-.42,5.9-1.74c2.07-.78,1.78-.47,6.94-1.91,10-2.79,11.23-4,13.36-2.95s1.86,2.6,4.69,3.82c1.86.81,2.71.46,5.21.87,2.22.37,6,1,8.33,3.47,1.47,1.57.62,2,3.29,8.68,1,2.53,1.17,2.53,2.43,5.72,1.13,2.85,1.32,3.63,2.26,5.73a23.88,23.88,0,0,0,2.6,5c.31.39,3.63,4.27,8.16,4.17,3.21-.07,4.39-2.09,5.55-1.39,2.39,1.43-2.49,9.87.7,13,2.41,2.38,8.41.69,10.24.17,3.58-1,3.73-2.12,5.72-2.08,4.2.08,5.62,5.05,10.07,8.15,3,2.09,4.69,1.49,16.14,2.09,17.23.9,22.12,2.72,27.42-.52a28.7,28.7,0,0,0,6.77-5.73c.68-.85,2-2.66,3.47-4.86,2.15-3.27,2.08-3.71,2.78-4,2.27-.94,5.19,2.8,11.62,8.33,4.11,3.52,7.17,6.16,11.11,8.16,4.86,2.46,9.07,2.95,13.89,3.47,13.08,1.4,17.64-2.35,25,1.56a44.6,44.6,0,0,1,6.59,4.68c4.22,3.41,6.33,5.11,6.77,7.29.38,1.88-.32,3.26-4.17,10.24-4.53,8.24-4.38,7.83-4.51,8.16-2.67,7.06.67,10-1,21.17a77.44,77.44,0,0,1-1.73,8c-2.18,7.78-4.45,10.73-3.13,12.32,1.83,2.19,7.41-2,10.41.69,2.21,2,.42,5.28,3.48,9,1.32,1.62,2,1.43,3.64,2.95,3.26,3,3.39,6.49,4.86,11.1,1.53,4.81,3.27,10.25,7.29,13,6,4.18,12-1.36,16.49,2.43,1.88,1.58,2.32,7.67,3.12,19.79.6,9.09.48,11.46,2.26,15.27,2.2,4.72,4.14,4.85,4.85,8.67,1,5.6-2.71,7.43-1.73,13.37.64,3.89,2.32,3.52,3.82,8.85s0,6.27,1.39,10.93c1.57,5.2,3.64,4.65,5.55,9.9,2.49,6.84-.24,10,2.6,12.49,1.4,1.25,4.52,1.82,10.76,3,3,.54,3.64.51,4.17,1.22,2,2.66-4.13,7.43-3,13,.7,3.35,3.67,5.27,8.68,8.51s6.71,2.88,13.36,6.59c5.81,3.24,8.71,4.86,9.37,7.46,1.24,4.91-4.86,8.84-3.12,12.33.76,1.54,2.62,2.1,6.42,2.77,8.43,1.51,12.65,2.26,19.78,1.56,9.71-.94,9-2.73,17.7-3.47,3.27-.27,8.26.11,18.23.87,13.28,1,15.13,1.67,17,3.12,3.62,2.82,2.15,4.64,7.64,10.59,3.77,4.09,5.6,4.46,8.16,8.33a26.31,26.31,0,0,1,3.64,8.68c1.6,6.65-.06,9.94-1,19.61-1.3,12.84,1,13.12-1,19.61-2.35,7.48-5,5.75-9.55,15.1-5.86,12-2.31,16.62-8.85,26.55-1.28,2-2.7,3.73-3,6.6-.22,2.66.66,5.27,6.25,12.67,5.94,7.85,8.91,11.77,14.06,15.1,4,2.6,6.73,4.34,10.76,4.68,9,.76,17.46-6.12,20-8.15,4.41-3.6,5.31-5.88,8.5-6.08s4.4,1.84,10.59,4.17a49.07,49.07,0,0,0,8.33,2.25c2.33.47,5.23.89,15.79,1s13.26-.17,14.75,1.91c1.35,1.89.56,4.27-.17,7.47-.14.62-.56,9.61-1.39,27.59-.73,15.75.08,13-.52,16.49a108.73,108.73,0,0,1-9.55,28.11c-2.23,4.26-4.19,7.18-2.95,9.72,1.52,3.09,6.31,2.64,11.11,4,10,2.81,15.61,12.13,19.27,18.22,4.34,7.25,10.56,22,11.28,32.81.1,1.49.27,5.6,3.12,8,1.22,1,1.7.69,6.42,2.08a39.19,39.19,0,0,1,10.76,4.69c1.38.9,2.07,1.37,2.43,2.08,1.14,2.27-.43,5.33-4,10.59-6.83,10.09-8.7,10.15-8.85,13.19-.32,6.39,7.66,12,9,13,3.24,2.3,5.49,2.65,11.11,6.77,3.77,2.77,4.51,3.89,4.86,5,.52,1.69.28,3.65-3.65,10.59-4.91,8.69-6.61,9.27-6.76,12.67s1.48,3.43,2.43,9.54c.57,3.68.08,4.33.34,9.55.4,8,.61,12,2.78,13.36,3,1.86,6.1-2.22,12.67-.86,1.73.35,5,1,6.25,3.47,1.14,2.28-.36,4.52-3.82,12.32-2.66,6-4,9-4.51,11.63-.57,2.86-2.06,10.39,1.91,14.23,1.76,1.7,4.18,2.06,9,2.77,7.32,1.09,9.44-.3,11.28,1.57,2.45,2.48,2,8.24-.87,11.1-.7.72-1.49,1.18-7.46,2.43-5.23,1.1-10.4,2.51-15.62,3.65a7,7,0,0,0-3.47,1.56c-2,1.84-2.14,4.69-2.26,6.77-.72,13.48-2.25,14.07-.69,16.49,2.84,4.42,8.11,2.71,9.55,6.42,1.13,2.92-1.42,5.82-5.91,13.36,0,0-3.14,5.29-7.28,13.71-8.34,16.94-5.78,24.44-12.67,28.12-2.19,1.16-4.76,1.64-10.07,4.68a47.71,47.71,0,0,0-5.9,3.82c-6.14,5-7.81,12.63-10.59,25.34a83.71,83.71,0,0,0-1.91,11.63c-.79,9.23.86,9.9-.34,14.4-1.78,6.68-5.74,6.41-11.28,16-3.54,6.09-5.43,9.35-5,13.71.52,5.63,4.11,4.91,13.19,18.22,1.33,2,3.25,4.88,6.25,5.21,1,.1,1.86-.07,5.55-1.57s6.31-2.73,6.77-3c5.75-2.7,9.53-4.47,11.8-3.47,5.45,2.41,3.39,21.23-.17,34.54-2.71,10.13-4.9,11.86-6.42,21.87-.89,5.84-1.84,12.5.17,20.65,1,4,2.79,11.2,8.68,17.18,3.32,3.37,5.83,4.21,12.67,10.93,3,2.9,4.51,4.74,5.21,7.47.58,2.31,0,3-.7,9.37-.77,7.41-.13,8.28-1.39,10.58-1.1,2-1.87,1.87-6.77,5.91-7.12,5.87-7.06,7.48-9.89,8-4,.71-5.4-2.39-10.06-1.39-2.56.55-5.64,2.23-5.73,4.17-.1,2.16,3.61,2.71,3.82,5.2.22,2.68-3.79,5.19-6.6,6.94-3.41,2.14-4.32,1.76-7.11,3.82-2.35,1.74-4.36,3.23-5,5.56-1.42,4.94,4,11,8.86,13.88a22.32,22.32,0,0,0,8,2.6c10.08,1.62,12.45-2.54,23.95-2.6,8.45-.05,10.73,2.18,15.62-.17,3.72-1.8,5-4.35,8-4,1.51.19,2.19,1,7.46,6.6,4.92,5.23,5.53,5.82,6.25,7.46.64,1.44,2.5,5.68.7,8.85s-5.37,2.25-6.08,4.52c-.84,2.7,4.1,4.5,7.64,12a33.85,33.85,0,0,1,2.43,7.64c.9,4.1,1.35,6.16.52,8-1.4,3.06-5.53,3.74-10.07,4.69-12.64,2.62-7,2.81-19.78,5.2-14.66,2.75-17.77,1.7-24,5.38a28.29,28.29,0,0,0-8.51,7.64c-1,1.34-7,9.9-4.33,17.7,1.44,4.15,3.92,3.9,4.51,7.81.63,4.17-1.63,8.28-3.47,11.63-2.55,4.63-4.24,5.37-3.82,7.11.59,2.49,4.47,2.91,11.28,5.38,4.56,1.66,2.28,1.28,13.19,6.08a168.38,168.38,0,0,1,17,8.33c3.67,2.09,4.81,3,5.38,4.51,1.53,4.2-2.36,10.11-7,13-1.79,1.13-3,1.36-11.1,2.77-13.34,2.32-14.48,2.45-16.32,3.65-5.42,3.52-7.1,9.89-8,13.19-2,7.61-.41,13,.69,20.3,2.15,14.27-.64,16.06-.17,48.25.31,21.09,1.31,7,1.39,15.27,0,4.18-.21,8.81,2.43,10.41,1.32.81,2.33.23,4,1.22,2,1.17,2.87,3.35,3.47,5.73,1.27,5,.66,8.81,0,16.66s-1,11.78-.69,13.53c.72,4.27,2.2,7.27.52,9.55-1.51,2-3.93,1.33-4.69,3.12s1.64,3.42,3.82,8.68a22,22,0,0,1,1.91,8c.11,3.94-1.18,4.31-1,6.77.37,6.59,9.79,7,13.88,16.49,1.32,3,.83,4.13,2.78,7.81,2.24,4.22,4.35,5.57,6.25,8,4.75,6,1,9.81,4.68,22.39,1.69,5.84,4,10.3,6.6,15.27,2.45,4.72,3.69,7.1,6.07,10.07,4.62,5.76,6.86,5.4,10.07,10.06,1,1.51,4.62,6.73,4.34,13.19-.2,4.4-2,6.29-8.33,17.19-2.73,4.71-4.83,8.35-6.25,11.28-5.51,11.31-3.82,18-6.77,33.67-.35,1.84-.23,1-6.07,21.86-8.49,30.32-9.92,36.32-11.11,44.6-1.26,8.79-1.85,17.35-1.91,18.23-1,14.59.15,17.19-1.74,26.55-1.64,8.15-2.47,12.23-3.81,15.45-1.82,4.34-3.38,6.33-2.43,8.5,1.23,2.82,5,2,11.45,5.73,3.83,2.2,6.85,3.94,7.29,6.77.49,3.12-2.68,4.35-5.9,11.62-1.76,4-2.64,6-1.91,8,1.38,3.81,6.5,3.06,8.33,7.29.65,1.49.32,3.54-.35,7.63-.81,5-1.24,7.67-3.12,10.42-1.78,2.59-3.89,3.88-7.29,5.9a54.22,54.22,0,0,1-10.76,4.86c-16.8,5.66-27.41,22.61-28.11,23.77a37,37,0,0,0-4.86,10.76c-1.14,4.46-1,7.66.17,22,1,12.37,1.22,14.64-.35,17.88-2.15,4.46-4.3,3.68-8.68,9.37a39.51,39.51,0,0,0-7.46,18.4c-.7,6.09.81,7.82,1.74,16.31.41,3.79.1,10.1-.52,22.56-1.76,34.91-3.27,30.07-2.43,34.88.48,2.79,1.88,9.55-1.22,11.81-1.73,1.26-3.66.22-5.72,1.73-1.7,1.25-2.08,3.18-2.78,8-1.64,11.29-1.51,14.13-4,16.32-.73.64-.49.17-4.52,2.25-4.45,2.31-5.48,3.27-8.67,5-7,3.87-8.17,2.68-11.28,5.38-2.84,2.46-3.49,4.88-5.21,8.33a58.85,58.85,0,0,1-12.5,15.79c-8,7.09-16.9,9.43-24.64,11.46-2.41.63-.3,0-15.1,2.6-13.91,2.48-17.17,3.32-22.39,2.08-3.59-.85-4.36-1.8-9.37-2.78-4.36-.84-6.27-.61-10.76-1.9-3.55-1-3.54-1.52-5.73-1.91-4.13-.74-7.65.39-10.76,1.56a117.93,117.93,0,0,0-16.31,7.81c-10.28,5.65-12.71,7.21-17.18,7.29a15,15,0,0,1-8.5-1.91c-3.72-2.31-4.18-5.45-8.16-10.94a48.35,48.35,0,0,0-6.94-7.63l-72.37.17a114.62,114.62,0,0,0-18.23,7.46c-6.36,3.29-8.37,5.11-9.71,6.6-3,3.3-3.33,5.69-6.08,13.19-6.38,17.42-9.61,18.61-8.5,24.64.54,3,1.86,5.6,1.39,10.24a22.51,22.51,0,0,1-2.09,7.29c-4.88,10.76-3.31,14.67-9.37,28.81-3.92,9.15-5.88,13.72-9.37,16.14s-5.08,1.6-20.83,4.86c-7.38,1.53-11.17,2.33-16,4a123.63,123.63,0,0,0-13.71,5.9c-3.45,1.67-4.53,2.32-12.5,6.6-15.5,8.33-16.08,8.39-17.7,10.24-3,3.44-4.32,7.9-6.94,16.83s-1.82,11.22-1.22,12.32c2.21,4.05,6.83,3.3,8.33,7.29,1.17,3.11-.31,7.11-2.6,9.37-2.82,2.78-5.41,1.5-13.36,3.13-4.82,1-8.65,2.51-16.32,5.55-7.06,2.81-6.6,3.16-10.24,4.17-4.26,1.18-9.32,2.58-15.27,1.38-3.87-.78-4.45-1.92-6.59-1.38-3.42.86-3.5,4.18-8.16,8.67-1.84,1.78-6.33,6.11-10.07,5-2.62-.76-2.1-3.38-5-5.38-4.48-3.07-11.28-.75-17,1.21-5,1.72-5.59,2.76-10.06,4.51a59.2,59.2,0,0,1-17,3.3c-5.72.31-5.62-.49-12.15-.52-15.26-.08-18.8,4.23-26.55,1-2.3-.94-3.53-1.95-8.51-4-1.51-.62-4.32-1.72-8.85-3.12-8.87-2.75-8.77-1.82-13.19-3.47-2.94-1.11-6.82-3.69-14.58-8.86-6.72-4.47-8-5.66-7.81-6.94.37-2.61,6.21-1.78,10.07-6.59.56-.7,1.46-2,3.3-9.55,1.46-6,1.75-8.72,2.25-10.93,2.33-10.1,9.16-9.21,15.62-21.69,3.07-5.94,2.22-7.47,7.12-17.36,3.15-6.36,3.68-6.09,5-9.2,6.1-14.05-.3-29.88-2.6-35.58-2.22-5.49-4.52-11.17-10.07-16.31-7.38-6.83-11.64-4.49-21.52-9.89-12.68-6.94-19.49-18.38-28.81-34a89,89,0,0,1-6.94-14.23,74.72,74.72,0,0,1-3.3-10.93,71.89,71.89,0,0,1-1.38-17c-.06-7.36-1.87-8.28-12.15-36.27-8-21.81-5.57-17.59-8.68-24.65-5.33-12.08-9-16.41-7.64-23.6.92-5,3.2-5.67,6.25-14.58.67-1.94,1.72-5.29,3.3-14.75,3.74-22.35,1.62-26,6.07-34.36,3.2-6,5.17-5.83,6.25-10.59,1.59-7-1.8-11.11-3.47-20.65-1.19-6.79-.12-8.38-.17-18.22-.09-16.49-3.18-28.93-5.56-38.53-3.28-13.23-5-19.95-10.24-25.34-2.77-2.87-3.82-2.81-17.87-10.06-15.24-7.87-23-11.9-29.51-17-6.77-5.32-6.47-6.5-12.67-10.59-6.7-4.43-10.81-5.53-13.36-10.24-1.63-3-1.7-5.81-1.56-10.76.4-14.06,1.93-25.71,2.43-29.85,1.75-14.43,0-12.16,1.56-22,3.24-20.7,10.05-25.54,7.12-37.31-1.6-6.41-5.07-10.81-7.64-14.06-7.78-9.85-14.35-9.86-22.21-20.65a43.4,43.4,0,0,1-6.43-12c-3.05-9-.4-11.75-1.38-25.16-1-14.12-4.35-16.13-2.78-26.21a58.37,58.37,0,0,1,4.16-13.71c3.64-8.64,6.42-10.46,9.2-16.31s2.93-12.41,3.3-25.69a175.83,175.83,0,0,0-1.74-30.37c-.75-5.18-.79-3.85-3.64-18.74-3.15-16.45-4.72-24.67-5.21-29.68-1.05-10.84-.31-14.38-2.77-22.39a67.17,67.17,0,0,0-5.73-13c-6.77-12.56-14.67-21.16-23.08-30.2-6.32-6.8-7.61-7.46-14.06-14.75s-9.93-11.26-12.32-16.14c-1.28-2.62-2.72-8.61-5.56-20.48-2.6-10.94-3.06-13.81-5.38-18.57-2.16-4.45-4.35-7.28-7.63-11.46-10-12.74-15.64-14.09-20.13-24.12-1.21-2.68-.72-2.4-2.78-7.46a123,123,0,0,0-8.16-16.49,77,77,0,0,0-7.46-10.93c-7.22-8.44-15.9-12.09-27.94-17-14.95-6.1-16.12-4-22.56-8.68-5.83-4.23-9.1-9.18-15.62-19.09-3.74-5.68-7.78-11.9-11.11-21-2.32-6.34-4.07-11.13-4.34-17.35-.69-16.09,9.53-18.92,9.72-36.1.07-5.88-1.13-5.43-2.26-20.83-.64-8.86-.37-10.68-.86-16.31-.23-2.55-1.34-15.21-5.38-26-4.33-11.58-7.47-8.92-21.35-29.85-8.68-13.1-8.43-15.61-17.53-28-5.84-7.91-7-8.31-8.33-12.14-4.31-12.45,3.8-20.17-1.73-28.81-2.21-3.45-3.81-2.71-10.24-10.07a103.11,103.11,0,0,1-6.77-8.85c-7.61-10.1-15.33-8.16-29-18.22-10-7.37-6.31-8.73-16.84-16.32-7.77-5.59-14.51-8.26-18.4-16.14-2.07-4.2-2-7.16-1.73-8.85.65-4.27,3.47-7,5-8.67,0,0,5.41-5.77,11.46-19.79,1.05-2.44,6.69-16.92.34-27.59-2.49-4.21-5.45-5.46-10.06-8.68-8.27-5.77-15.52-15.94-30-36.27-9.83-13.8-14.75-20.69-15.79-25-1.78-7.39-1.33-15-7.46-21.7-2.13-2.31-4-3.4-4.69-6.25-1.2-5.08,3.29-8,4-14.23.47-4.15-1.17-6-4-13-6.16-15.35-2.62-17.31-8.15-27.6a64.92,64.92,0,0,0-11.29-14.75c-5-5.14-6.84-5.52-9.89-8.5-8.6-8.43-5.54-16.54-13.36-42.35-3.06-10.1-4.66-15.24-8.33-19.61C68.27,889,64,888.78,59.72,881.3c-1.41-2.48-5.3-9.29-3.12-15.79,1.07-3.2,2.44-2.82,5.73-8.33,2.73-4.58,2.3-5.71,5.38-12C71,838.46,72,838.77,73.44,835c1.86-4.93,1.48-8.8,1-15.61-1.26-19.36-.09-17.1-1-23.09-2.71-17-9.62-19.55-17.36-44.25-2.06-6.58-1-4.57-3.64-13.54C49,726.9,45.85,718.8,36,693.87c-4.69-11.8-7-17.7-7.12-17.88C20,658.19,6.1,639,6.1,639c-3-4.16-6.42-8.64-6.08-14.58.2-3.39,1.58-6.19,4.34-11.63a98,98,0,0,1,6.94-11.63C21.21,587,26.17,579.9,32.48,576.9c5.41-2.57,8-1.7,14.58-5.73,3.89-2.38,4.79-3.79,9.19-5.9,4.72-2.27,6.37-1.93,10.59-4a39,39,0,0,0,9.2-6.6,152.41,152.41,0,0,0,25-29c7.91-12.77,11.64-23.9,19.09-46.16,8.29-24.77,5-21.75,11.63-39.23,5-13.22,8.28-18.41,7.46-27.76-.41-4.7-2.7-11-7.29-23.61-3.46-9.51-5.19-14.27-6.94-17.7-4.51-8.85-9.89-19.4-21.69-26a43.66,43.66,0,0,0-22.22-5.56c-6.43.19-11.29,1.89-16.83,3.82-10.4,3.63-10.28,5.79-18.75,8.68-6.26,2.13-17.13,5.84-26.55.87-1.48-.79-8.25-4.6-9.2-10.94-.58-3.87,1.57-5,2.95-10.58,2.71-10.83-3-16,.35-20.48,2.05-2.7,4.66-1.54,16.66-3.3,13-1.91,12.81-3.7,21.52-4.16,11-.59,12.07,2.23,18.57.34,4.53-1.31,8.63-5.17,16.66-12.84,8.49-8.1,12.73-12.15,15.45-17.7a42.61,42.61,0,0,0,4-19.27c.22-25.73-16.81-31.36-14.58-52.41,1-9.12,4.72-13.23,2.26-21.69-2.26-7.77-6.37-7.55-10.59-15.79-5-9.83-4.11-19.78-2.6-36.1a160.33,160.33,0,0,1,3.29-20.48C86.33,95.4,89.52,86.4,94.78,71.69c5-13.83,4.34-10.44,7.64-20.13,5.51-16.18,6.83-24.49,14.58-33.32,4-4.6,7-6.11,8.5-6.77,5.06-2.19,7.8-.83,19.09-.35A124,124,0,0,0,167,10.26,113.54,113.54,0,0,0,178.26,8C192.73,4.63,198,1.64,207.94,1.75a50.58,50.58,0,0,1,6.59.52Z"/></g></g></svg>