<svg xmlns="http://www.w3.org/2000/svg" viewBox="0 0 3626.8 1495.12"><g id="Layer_2" data-name="Layer 2"><g id="Ecuador"><path d="M262.76,242.12c-.65.45-3.88,2.71-4.35,6.63-.4,3.37,1.48,5.91,3.2,8.24,1.33,1.8,2.67,3.6,5,4.35,1.16.37,2.1.33,6.63-.69,8.7-1.94,9.78-2.8,10.53-3.66a8.63,8.63,0,0,0,2.06-5.26c.12-5.42-5.6-8.77-6.64-9.38a15.76,15.76,0,0,0-7.32-2.06C269.45,240.11,266,239.87,262.76,242.12Z"/><path d="M204.63,180.56c1.85-.43,4,2.22,5,3.43a17.84,17.84,0,0,1,2.75,5.27c1.64,4,2.44,6.09,1.83,8.46a5.92,5.92,0,0,1-1.6,3c-2.31,2.17-6.7,2-9.15,0-2.75-2.22-2.44-6.18-2.06-11C201.63,187.13,202.1,181.14,204.63,180.56Z"/><path d="M34.83,309.85c-4.36,4-6.19,4.71-13.73,11.45-2.85,2.54-4.64,4.27-5.26,7.09-.23,1-1,5.14,1.83,7.78a6.79,6.79,0,0,0,5,1.83c2.51-.26,2.95-2.1,5.95-3.89,3.71-2.2,7.6-2.11,9.84-2.06a18.07,18.07,0,0,1,8.24,1.83c3.07,1.61,5.64,4.39,7.78,9.16,4.47,9.95,2.18,17.74,3.43,28.37.33,2.8,3.7,28.67,19.91,36.85,5.77,2.9,10.71,2.34,15.56,7.78,3.39,3.79,2.71,6,5.72,12.81,3.41,7.71,7.84,12.69,16.71,22.66,3.91,4.39,8.21,8.42,12.36,12.58,4,4,5.83,5.79,5.49,8-.26,1.71-3.76,3.83-10.76,8-2.2,1.32-4.55,2.66-7.55,4.12a29.85,29.85,0,0,1-5.95,2.52c-4.33.94-7-1-11.21-2.06a29.74,29.74,0,0,0-16,1.14c-7,2.68-6.63,7.19-14.19,13.73-9.25,8-13.36,4.25-23.11,11.9-1.29,1-15.47,12.39-13,22.43,1,4.14,3.65,3.18,9.16,12.59a60,60,0,0,0,6.63,10.07,34.25,34.25,0,0,0,3.67,3.89c6,5.26,13.65,6,16.24,6.18,8.66.47,9.18-3.41,15.79-2.29,7.18,1.21,7.79,6,14.19,6.63,5.44.56,6.82-2.7,15.11-5.72,12.36-4.51,15,.65,24.25-3.66,9.44-4.4,9.13-10.94,17.39-12.36,6.68-1.14,8.38,2.86,14.19,1.15,5.37-1.59,8.29-6.3,13.73-15.11,2.81-4.53,5.09-8.21,6.64-13.73,1.36-4.81.91-6.58,3-9.84,2.72-4.29,5.64-4.61,6.63-8,.88-3-.53-5.79-2.29-9.15-3.94-7.53-7.31-7.31-16-17.39-3.21-3.72-4.26-5.5-7.09-6.41-4.83-1.55-8.29,2-10.53.23-1.86-1.47-.6-4.75.46-13.27.92-7.38,1.53-12.57.46-18.54a35.75,35.75,0,0,0-4.35-11.9c-3.45-5.57-7.51-8.83-12.59-12.81a99.39,99.39,0,0,0-11.67-7.79c-.77-.47-16.15-10.17-23.11-25.63-1.87-4.15-3.38-15.65-6.41-38.67-.87-6.6-1.23-9.94-3.66-14-5.47-9.05-12.54-6.88-18.08-15.56-4.62-7.25-1.9-12.23-8.24-18.54-1-1.05-4.81-4.79-8.23-3.89-1.71.45-2,1.69-4.58,3.89a25.89,25.89,0,0,1-7.78,4.35c-5.16,2.05-6.38.88-10.07,2.29C40.78,302.42,41.06,304.14,34.83,309.85Z"/><path d="M195.25,361.57c-3.59,2.26-1.84,6.16-6.87,14.19-3.07,4.91-4.63,4.91-5,7.78-.23,1.64,0,3.49,6,13.27,3.1,5.13,4.68,7.72,5.95,8.93a25.17,25.17,0,0,0,13.5,6.41c.74.1,4.32,0,11.44-.23s7.48-.24,8.24-.23c9,.11,10.06,3,14.42,2.06,5.24-1.09,10-6.24,11-11.9.85-5.06-1.6-9.19-3.2-11.9a27.87,27.87,0,0,0-7.55-8c-6.54-5-9.05-4.07-17.63-8.7s-8.2-6.62-15.56-9.61C204.29,361.36,199,359.21,195.25,361.57Z"/><path d="M40.55,386.75c-4.37.12-5.39,3.16-10.53,5.26-4.24,1.73-5.44.43-13.73,1.14-8.93.77-13.4,1.15-15.56,3.66-.91,1.06-1.89,2.86,3.21,25.64,1.38,6.2,2.37,10.13,5.72,13.95a24.51,24.51,0,0,0,7.78,5.73c6,3.11,11.36,3.48,18.08,3.89,7.95.47,11.92.71,15.79-1.61,4.9-2.94,6.85-7.85,7.55-9.61,1.32-3.34,1.17-5.36.46-17.85-.8-13.93-.87-16-2.75-19.22a24,24,0,0,0-8.24-8.24C46,388.08,43.61,386.66,40.55,386.75Z"/><path d="M317.22,423.59c-.67.22,1.36,4.27-.46,8.24-1,2.27-2.52,2.72-2.29,4.12.29,1.73,2.9,3.2,5.27,3a4.24,4.24,0,0,0,3.2-1.6c.41-.67.73-1.87-2.74-8.93C317.87,423.69,317.39,423.53,317.22,423.59Z"/><path d="M323.17,441c3.33,2.2,1.13,6.4,4.58,9.84,3.65,3.66,7.87.67,12.13,4.35S344,465,344,466.61c0,3.54-1.1,6-3.2,10.76-2.44,5.52-3.32,5.21-6,11s-2.29,7.34-4.35,8.7c-2.44,1.61-3.84.1-10.29.91a24.8,24.8,0,0,0-9.62,2.75c-3.69,2.07-3.46,3.58-6.17,5-5.42,2.91-12.3.1-15.34-1.14-7.94-3.25-7.1-6.74-14.64-9.84-7.23-3-9.8-.5-14-3.89-4.72-3.85-5.39-10.27-5.72-13.5a26.86,26.86,0,0,1,3.2-15.56,27.8,27.8,0,0,1,10.3-10.53c2.87-1.66,3.81-1.48,16-4.35,9.8-2.31,10.14-2.65,15.56-3.66,5.62-1,3.44-.35,12.81-1.83C319.82,440.3,321.44,439.84,323.17,441Z"/><path d="M369.4,514.21c-2.61-.33-5.44,2.81-5.27,5.72.22,3.69,5.2,6.3,7.55,5,1.75-.94,1.93-3.93,1.61-5.72S371.74,514.51,369.4,514.21Z"/><path d="M458.19,641.9c-4.09-.6-11.11-.38-11.9,2.29-.61,2,2.62,4.81,4.35,5.95,1.91,1.27,2.94,1.2,6.63,2.29,7.16,2.12,9,4.1,10.53,3,1.91-1.45.52-6,.46-6.18a10.61,10.61,0,0,0-5.5-6A13.91,13.91,0,0,0,458.19,641.9Z"/><path d="M482.44,529.54c-5.79,2.74-10.69,9.38-9.38,12.36,1,2.26,4.8.7,12.59,3.43,6.17,2.17,5.81,3.87,10.07,4.81,6.48,1.43,13.4-1.15,17.85-4.81,4.14-3.4,2.74-5,7.78-11.67,4.5-6,9.43-9.82,16.25-15.1,4.58-3.56,6.35-4.46,10.06-8,5.6-5.35,7.26-8.71,7.78-9.84,1.8-3.88,3.73-7.46,2.29-10.3-1.34-2.66-5.77-3.14-14.64-4.12-8.54-.94-11,0-12.59,1.37s-1.15,2.15-2.75,4.58c-2,3.13-3.92,3.7-11.67,8.7-8.21,5.3-9.31,6.72-10.07,8-2.15,3.68-1,5.41-3,7.09-4.07,3.4-11.14-1.87-14,1.15-2.15,2.29.93,6.47-1.83,9.84C486,528.55,484.75,528.46,482.44,529.54Z"/><path d="M273.28,613.53c-5,2.52-6.11,9.08-7.09,15.1-.9,5.55.21,7.53.69,8.24.77,1.17,1.9,2,6.86,3.89,6.27,2.33,9.41,3.49,11.44,3.2,6.46-.91,10.11-7.58,11.22-9.61,1.49-2.73,3.9-7.15,2.28-11.44s-6.11-5.81-11.67-7.78C281.13,613.05,277.1,611.62,273.28,613.53Z"/><path d="M2452.78,981.51c-1.72,9.44-2.58,14.16-3,17.39-2.13,17.33-3.2,26,1.37,31.12,4.21,4.73,10.56,5.16,12.13,5.26,6.44.44,13.73-2.33,17.39-8,4.39-6.81,2-15.36.23-21.51-1.93-6.82-5.13-11.67-4.12-12.35.65-.45,2.54,1.18,6,4.11,4.68,4,5.14,5.26,7.32,6a10.27,10.27,0,0,0,8.47-1.37c4.18-2.79,2.72-6.74,6.64-12.36,2.84-4.06,6.47-6.08,10.75-8.46,8.23-4.58,11.9-3.29,14.19-7.1,2.16-3.59,1.48-9-1.14-12.13-2.44-2.87-4.81-1.71-12.13-4.57-7.68-3-7.68-5.3-13.05-6.41-3.34-.69-6.85,0-13.73,1.37-8.64,1.74-13,2.6-18.08,4.81-6.58,2.85-12.51,5.42-16,11.44C2455,970.42,2454.55,971.78,2452.78,981.51Z"/><path d="M2487.56,906.9c2.66-6.86,1.8-6.71,3.44-9.84,3.87-7.39,7.75-6.42,11.67-13.73,2.87-5.35,1.42-7,4.58-10.3,2.9-3,5.64-3.14,7.32-6.63,1.13-2.35.26-3,1.14-6.18s2.75-5.28,6.41-9.38c4.81-5.4,7.22-8.09,9.38-7.55,2,.49,3.47,3.23,3.43,5.49s-6.26.6-7.32,3.2-5.94,3-6,7.32c0,8.18-4.4,5.05-3.43,9.39,1.07,4.78,7.74,8.15,8.7,13.5.19,1.11,3.62.49.68,3.66-1,1,.14,2.56-.23,2.75-.94.46.66,9.29-1.83,8.69-.71-.17,0-3.92-.46-5.49-.58-2.16-.76-8.17-1.37-9.84-.49-1.34-4.94-5.48-6.86-5.26-2.65.29-3.92,2.61-7.1,3.2-1.77.33-1.68,8.44-3.2,8.92-.47.15-.19,2.14-1.37,3.67-1,1.24-.92,2.28-1.15,6.86-.26,5.31-.5,7.36-.69,8.7a28,28,0,0,1-.68,3.89c-1.06,3.81-2.85,5.58-3.89,7.55-2,3.8-2.61,9.86-.23,11.67,1.25,1,3.59.94,7.52.93h.95c3.47-.06,4.17-.2,6.18-.23a38.51,38.51,0,0,1,6.4.45c2.06.32,2.26.53,2.29.69.11.71-2.86,2-5.72,2.29-1.69.15-2.37-.16-4.58-.46-2.66-.35-8.23-1.1-8.92.46s3.29,4.54,4.8,5.72,2.7,2.07,4.35,2.29c1.81.24,3.27-.39,5-1.14,2.14-.92,2-1.36,4.8-2.75,2.3-1.13,2.72-1,3.43-1.83a7,7,0,0,0,1.38-4.35c0-1.39-.32-1.41-.23-2.52a7.14,7.14,0,0,1,2.29-4.35c2-1.85,3.35-1,4.35-2.51s-.14-2.25.45-5.27a17.67,17.67,0,0,1,1.83-4.57c1.65-3.35,2-2.64,2.79-4.68.08-.23.19-.53.42-.59.8-.18,2.87,2.73,2.29,5-.36,1.4-1.34,1.21-2.29,3-1.11,2-.12,2.9-1.15,5.5-.22.57-.24.44-2.29,3.66-1.37,2.16-2.07,3.26-2.51,4.12a13.16,13.16,0,0,0-1.83,4.8c-.31,2.86,1,5.14,2.74,8.24.9,1.58,1.36,2.37,2.06,2.75,1.55.82,2.73-.14,6.87-.23a27.61,27.61,0,0,0,3.2,0,9,9,0,0,0,5-2.06c2.25-2.26,1.71-6.07,1.37-8.47-.39-2.72-1-2.61-2.06-7.09-.43-1.82-.67-3.35-1.14-6.41a38.6,38.6,0,0,1-.69-6.64c0-2.43.37-2.28.23-3.66-.33-3.13-2.06-3.72-2.75-6.64-.29-1.24-.12-1.75.46-6.17.56-4.24.83-6.35.91-7.78.25-4.27-.68-5.24-1.83-13.28-.57-4-.82-7.16-.91-8.46a94.12,94.12,0,0,1,.23-14.88c.57-6.37,1.38-8.45,3-9.15a2.62,2.62,0,0,1,2.29,0c1.59,1.05.42,4.6,0,9.61a51.68,51.68,0,0,0,.23,9.61c.81,9.5,3.22,10.13,2.29,15.1-.89,4.74-3.35,5.69-2.75,9.39.46,2.78,1.87,2.38,4.12,6.86,2.62,5.23,1.53,7.45,4.58,11.44.87,1.15,1.41,1.56,2.52,3.21,2.15,3.21,2,4.53,3.2,5,2.44,1,5.26-3.58,7.09-2.74,1.33.6,1.21,3.61.23,12.35-.9,8.1-1.36,12.17-2.06,13.5-3.43,6.61-8.84,5.26-12.13,11s1,9,.23,19c-.87,11.17-6.62,11.39-9.84,25.4-1.19,5.21-1.33,10.57-1.6,21.29-.32,12.72.55,20.63-4.12,23.57-2.53,1.59-5.17.75-6.86,3.2-1.57,2.25-.54,4.69-.46,8.24a26,26,0,0,1-4.12,13.27c-4.8,7.45-11.39,5.22-17.16,12.13-1.15,1.37-2.08,2.89-5,14.65-5.39,21.45-5.13,27.72-10.75,31.35-1.24.79-4.41,1.37-10.76,2.52-10.2,1.84-12.78,1.05-19.91,3-6.8,1.83-11.86,3.19-12.81,6.64-1.13,4.07,4.71,6.7,8,15.56,1.8,4.86,1.75,8.65,1.83,13.5.32,21.7.49,32.54,3.2,42.34,4.49,16.19,12,18.32,9.84,27.46-.89,3.71-5.78,8.5-15.56,18.07-8,7.81-12.81,11.16-18.77,11.45a24.7,24.7,0,0,1-5.26-.46c-7.06-1.12-9.26-3.51-16.7-5-3.42-.71-5.13-1.06-6.87-.69-6.94,1.46-10.25,9.67-10.76,11-2.14,5.59-1.28,10.68-.45,15.56,1.13,6.72,2.71,6.88,3.43,12.82,1,8.57-1.86,11.36.23,13.5,4.21,4.32,17.46-5.48,23.11-.23a7.24,7.24,0,0,1,2.06,4.58c.38,4.55-4,8.19-7.09,11-10.49,9.33-15.73,14-17.85,19.45-3,7.75-1.12,19.32,6.4,24.49,8.72,6,20.48.29,21.52-.23,4.64-2.33,3.7-3.79,15.79-16.25,8.5-8.76,9-8.09,12.81-13,4.79-6.24,5.28-9,8.93-10.53,4.86-2,10.12.39,15.56,3,11.52,5.48,11.22,9.83,21.28,15.1,9.75,5.12,11,1.51,21.05,7.1,5.71,3.16,6.23,4.81,17.62,12.35,6.85,4.53,10.32,6.81,12.82,7.1,8.88,1,18.54-5.48,21.28-7.33,3.37-2.27,3.77-3.18,6-3.66,7-1.52,14.13,5.32,16.71,7.78,7.16,6.85,6.46,11.23,11.9,13.28,5.82,2.19,9.44-1.79,12.12.68,3.75,3.46-2.55,11.86.92,22.2,1.16,3.45,2.74,5.16,4.81,8,12.07,16.68,6.66,24.73,16.7,36.84,9,10.81,16.33,8.11,20.6,18.54,2.83,6.92,2.06,14.16,6.18,15.56,2.35.8,3.78-1.15,8.23-2.06,5.24-1.06,7.17.85,14.42,2.06,13.08,2.19,16.76-2.35,23.34,1.83,1.86,1.18,2.91,2.39,7.1,5,4.62,2.92,6.94,4.38,8.24,3.89,3.74-1.41.16-11.24,6.4-20.6,1.34-2,2.76-4.13,5.5-5.49,6.16-3.06,11.53,1.53,14.41-1.15,2.07-1.92.19-5.1-.46-15.1-.31-4.88-.61-9.64.46-14.87a36.42,36.42,0,0,1,7.78-16c5.16-6,11.11-8.41,19.45-11.67,15-5.86,20.5-3.6,24.49-9.39,2.85-4.14.53-6,4.58-15.56a103,103,0,0,1,6.18-11.67c4.55-7.81,7.07-10.73,5.95-14-.69-2-2-2-4.12-4.12-7-6.92-5.41-19-5.27-19.91.72-4.9,2.08-3.54,6.18-14.41,2.34-6.2,2.27-7.61,5-15.11a116.38,116.38,0,0,1,4.8-11.67c6.22-12.64,12.37-16.75,10.53-20.82-1.32-2.91-5-1.86-7.09-5.72a10.29,10.29,0,0,1,.68-10.76c2.87-3.6,7-1.73,11.44-5.26.73-.58,2.55-2.17,5.27-9.61,5-13.82,2.62-19,8-25,3.07-3.41,4.29-2.23,6.4-5.49,1.21-1.85,2.27-4.48,2.75-18.31.23-6.45,0-5.72.23-7.55.79-6.07,2.72-8.9,5.26-15.79a112.51,112.51,0,0,0,3.66-12.36,170.56,170.56,0,0,0,3.89-20.36c1.83-13.86.74-17.69,3.89-19.68s7.43-.4,13.74,1.83c5.85,2.06,8.93,3.15,11,6.18,4.07,6-.58,12.84,3.43,16,2.06,1.64,4.94,1.14,7.55.69.77-.13,9.57-1.77,11.45-8,1.44-4.82-2-9.9-3.67-12.36-3.18-4.69-6.3-5.6-6.63-9.38a10.48,10.48,0,0,1,1.83-6.18c1.72-3,3.79-4.11,6.86-6.63,0,0,.76-.62,7.56-7.55,10-10.24,21.72-32.37,38.44-48.06a108.48,108.48,0,0,1,28.61-19c10.65-4.85,15.77-5,37.76-12.81,9.39-3.33,11.51-4.38,21.74-8.24,20-7.56,29.23-10,48.28-16.48,30.08-10.15,25.75-10,48.74-17.62,35-11.5,35.66-8.64,61.11-18.3,8.11-3.08,19.1-7.57,36.61-13.28,15.93-5.18,14-3.82,19.22-6,16.6-6.82,19.53-14.09,45.31-34.09,13.31-10.33,13.81-9.39,25.86-19.23,13.12-10.7,13.31-12.46,26.55-23.8,18.2-15.58,22.26-16,37.76-29.75a229.75,229.75,0,0,0,24-24c17.79-20.86,18.24-29.86,38.44-53.1l13.73-15.1c24.15-26.53,24.6-26.86,25.63-29.52,1.43-3.68,3.7-11.13,8.7-12.13,2.23-.45,4.07.59,5.95-.68,2.32-1.58,2.31-5.06,2.51-7.56.45-5.47,1.76-4.5,6.41-18.3,2.12-6.28,3.31-10.83,5.27-18.31,6.81-26.12,10.21-39.18,11.21-43.25,3.78-15.44,10.41-30.25,12.59-46,.41-3,1.65-12.58,5.49-13.27,2.11-.38,4.52,2,6.86,4.35,3.17,3.15,3.3,4.89,6.64,7.78,2.18,1.87,4,3.47,5.72,3,2.67-.79,1.85-5.92,4.81-7.09,1.48-.59,2.24.48,7.09,2.06,4.39,1.43,7.57,2.42,9.84.91a4.86,4.86,0,0,0,2.06-3c.74-4.08-5.85-6-7.78-12.13-1.19-3.77.82-4.62.91-10.3.09-4.89-2.08-9.73-6.4-19.22s-6-11.24-6.18-16.25c-.1-2.27-.26-7.34,3-10.76,2.6-2.73,4.94-1.82,7.55-3.66,6.66-4.67,6.93-21.38-.68-30.66-.43-.53-4.87-3.4-13.73-9.16-5.43-3.52-13-8.34-16-10.29-6.24-4-6.18-3.94-6.41-4.12-3-2.39-6.23-5.92-12.58-20.14-4.43-9.9-9.39-21.28-9.39-21.28a41.89,41.89,0,0,0-5-8.47c-2.41-3.16-3.61-4.74-5.49-5.49-3.43-1.37-8.43-.54-11.68,0a5.43,5.43,0,0,1-6.86-3.66c-1.45-3.42-.8-8.73,2.06-11,1.87-1.47,4.65-1.61,20.37,4.12,12.84,4.69,13.47,5.69,19.22,6.87,7.74,1.58,13.32,1.13,19,.68,7.5-.59,12.61-1.07,14.42-4.57,1.26-2.44.56-5.64-.69-7.78-3-5.22-9.93-5.29-21.28-7.79a144.36,144.36,0,0,1-19.45-5.72c-16.66-6.4-29.59-16.94-33.18-19.91-5.34-4.41-5.2-5-7.55-5.95-10.36-4-18.7,6-29.75,3a20.67,20.67,0,0,1-11-8c-1.8-2.78-1.66-4.43-3.66-8.47a44.49,44.49,0,0,0-7.32-10.07c-9.58-9.8-17.66-6.17-22.89-14.64-.22-.37.06.06-4.34-10.07-3-6.82-3.55-8-5-9.61a21.49,21.49,0,0,0-9.61-5.49,38.33,38.33,0,0,0-7.55-1.38c-4.06-.32-5,.26-6.87-.68s-2.84-2.39-4.8-5.27c-2.4-3.52-1.82-3.91-3-5-3-2.94-6.78,0-14-1.6a24.34,24.34,0,0,1-10.75-5.5c-2.8-2.54-2.6-3.74-5.5-6-3.32-2.52-8.39-4.59-10.06-3-1.36,1.31.81,3.74-.23,7.32-1.25,4.28-6,6.35-6.64,6.64-7.68,3.26-13.63-4-17.16-1.37s-2.35,13.82-.23,32.95c.11,1,.3,2.64-.69,3.66-3.3,3.41-17.62-2.29-21-3.66a9.51,9.51,0,0,0-5.72-.69,12.16,12.16,0,0,0-3.66,1.83c-3.83,2.41-4.18,3.46-6,4.12s-4.92.88-6.87-.68c-2.65-2.14-.85-5.64-3.2-7.79-1.9-1.72-4.08-.38-10.3-.22-7.95.19-8.76-1.89-14.19-.92-5.13.92-4.53,2.8-9.84,4.12s-6.52-.43-17.16-.69c-7.43-.18-7.59.66-12.13,0-5.89-.84-6.48-2.37-13.27-4.34-9-2.62-10.51-.66-20.14-3.44-6.48-1.87-9.72-2.8-11.9-5.72-3.36-4.5-.89-8.47-4.81-12.81a14.82,14.82,0,0,0-8.92-4.35c-3.19-.42-5.7.32-10.07,1.6-3.62,1.07-5,1.87-6.87,2.52-8.27,2.86-16.92-.6-20.59-2.06-7.77-3.11-6.83-5.59-14.65-8.47a51.18,51.18,0,0,0-14.87-2.75c-11.46-.81-13.58,1.72-17.17-.68-5.94-4-5.86-14.77-4.8-20.37a37.55,37.55,0,0,1,4.12-10.75c3.23-6.06,5.67-7.36,6.86-12.36.27-1.13,1.78-7.48-1.14-9.84-2.08-1.68-4.81-.06-8.93.46-5.24.65-11.73-2.62-24.71-9.16-8.66-4.36-11.36-6.38-12.82-9.84a11,11,0,0,1-.91-7.09c1.14-4.47,5.3-5.33,5.49-9.38a7.87,7.87,0,0,0-1.83-5c-2.14-2.84-5.32-3.48-7.32-3.89a20,20,0,0,0-8.7.46c-4.4,1-6.47,2.55-9.84,4.12a58.74,58.74,0,0,1-14,3.89c-12,2-22.7-2.9-25.4-4.12-15.42-7-17-17.43-32-22.66a85.52,85.52,0,0,0-11.21-3.2c-8.83-1.62-11.67-.06-14.19-2.52-3.84-3.74.86-9.16-2.75-15.33-3.94-6.74-13.33-6.71-13.27-10.76,0-2.66,4.15-4,3.66-7.09-.2-1.31-1.11-2.23-2.29-3.43-2.21-2.26-3.39-2-5-3.44-2.2-1.91-3.07-5.54-4.81-12.81-.51-2.15-.68-3.18-1.6-3.66-1.71-.9-4,1.18-7.78,3.2a48.19,48.19,0,0,1-9.84,3.66c-.35.09-8.47,2.09-16-1.14-10.57-4.53-14.6-17-22.42-19.45a14.81,14.81,0,0,0-5.27-.69c-3.41.31-4.23,1.91-6.18,1.83-3.23-.13-4.28-4.68-8.23-9.84-4.4-5.74-6-3.93-12.59-10.75-6-6.23-5.21-8.3-10.3-12.13-2.75-2.08-6.83-5.15-12.59-5a17.41,17.41,0,0,0-14,7.78,11.59,11.59,0,0,0-2.29,6.41c0,4.46,3.23,5.56,3.43,9.38.23,4.34-3.64,9.1-7.78,11-5,2.28-8.79-.35-12.59,3-2,1.78-1.81,3.29-3.43,3.66-2.61.61-4.15-3.09-9.84-5.95-2.53-1.26-5.81-2.91-8-1.6-2.63,1.56-2.72,6.73-1.6,10.3,1.66,5.34,6.35,8.21,5.95,8.7s-3.14-2-8-3.66c-2.23-.79-3.31-1.27-4.12-1.15-3.34.52-3.66,5.06-8.47,10.53a40,40,0,0,1-5.72,5,70.82,70.82,0,0,1-11.67,7.55,52.94,52.94,0,0,1-9.38,3.89,50.94,50.94,0,0,1-13.5,2.06c-13.31.39-13.9-3.66-22.2-2.51-7.6,1.05-13.62,5.35-19.91,9.84-5.94,4.24-7.72,6.91-13.5,8.92-1.1.39-2.79.9-12.13,1.83-11.89,1.19-13.54.8-18.31,1.6a58.42,58.42,0,0,0-17.16,6c-14,7.06-13.59,13.06-26.09,17.62-5.54,2-7.64,1.58-13.73,4.58-7,3.43-6.89,5.32-12.81,7.78-2.07.86-2.56.83-16.94,3.66-8.48,1.68-9.56,1.94-11.21,3-.32.2-7.12,4.64-8.24,12.36-1.64,11.23,9.8,22.22,11.44,23.8,2.22,2.13,4.64,3.92,6.64,7.78a23.15,23.15,0,0,1,2.52,10.29c0,1.47-.12,4.26-4.12,14.42-3.84,9.72-4.93,10.22-4.58,13.05.56,4.55,4,8,7.78,11.9,4.52,4.6,6.1,4.19,7.32,7.09,2,4.76-1.75,7-.45,13,1.26,5.87,5.35,6.31,5.72,11.45s-3.51,10.65-5.5,10.29c-1.83-.33-1.47-5.49-4.34-18.53-2.76-12.53-4.2-12.81-4.58-12.82-1.45,0-2.72,4-3.2,6.64-1,5.54.53,9.59,1.37,13,2,8.13.24,15.34-3.21,29.75a111.88,111.88,0,0,1-22,44.85c-4.94,6.44-11.12,14.49-19.68,20.6-7.46,5.31-15.34,8.17-18.08,11.21a2.9,2.9,0,0,1-2.06,1.15c-1.57-.09-1.87-2.45-3.21-3-2.28-.91-7.18,3.72-10.52,9.84-4.1,7.51-2.19,10.54-6.18,16.94-.53.85-1.28,1.93-8.47,8.69-12.59,11.84-14.92,12.84-15.33,16.25-.61,5,4.16,5,8.24,15.1,4.17,10.32.46,13.51,5.49,22.66,1.92,3.5,3.87,5.59,3.2,8.47-.76,3.33-4.14,3.89-7.78,7.09-1.45,1.28-2.92,3-8.46,17.85-4,10.8-4,11.8-6.64,18.08-3.46,8.1-3.91,7.21-5.95,12.59-5,13.07-2.13,17.82-6.64,21.28-2,1.55-7.22,1.64-17.62,1.83-5.32.09-6.92-.16-11.9.23a76.28,76.28,0,0,0-11.44,1.6c-3.62.81-3.87,1.17-10.3,3-9,2.54-8.4,1.8-10.3,2.75-5.25,2.64-7.93,7.31-11.21,13s-4.78,8.36-5.26,11.9c-1.3,9.61,5.66,18,14.41,28.61,6.22,7.51,9.1,9,14.42,17.16a64.22,64.22,0,0,1,6.64,12.36c2.64,6.72,6.19,15.79,3,24.49-1.3,3.52-1.91,2.1-8.46,11.67a166.59,166.59,0,0,0-9.62,16c-3.85,7.29-5.78,10.94-6,12.58-.83,8.12,5.83,10.59,16.71,30.44,4.4,8,5.94,12.43,6.64,17.16s-.1,5.58.91,10.76c1.61,8.25,4.13,8.85,4.35,15.1.07,1.87.33,9.36-3.89,12.13-1.36.89-2.51.85-3.2,2.06-1.21,2.1.72,5,2.05,7.78,3.17,6.71,3.44,14.43,1.84,19.45-1,3.17-2.74,5-6.18,8.7-5.91,6.32-11.95,9.45-20.83,14-5.87,3-8.8,4.46-11,4.57-5.46.28-8.14-2.49-18.77-4.34-6.54-1.15-7.34-.42-7.55,0-.42.83.62,2.18,6.64,8.23,5.28,5.32,8,8,10.3,9.84,4.8,3.78,5.89,3.53,10.29,6.64,10.86,7.66,10.67,13.67,19.68,18.31,1.48.76,1.35.52,11.45,3.2,23.54,6.24,27.17,8.29,30,10.3,2.23,1.59,5,4.49,10.53,10.3,6.45,6.76,6.76,8,13.5,15.1,5.05,5.34,3.42,3.13,13.05,12.82,5.7,5.74,6.5,6.75,8.92,7.78,5.4,2.3,8.15.12,13.27,3,1.34.74,3.18,2.63,6.87,6.41,6.69,6.85,6.09,7.23,8.7,8.92,3.71,2.41,4.69,1.48,10.06,4.81,2.76,1.71,3.72,2.71,4.58,2.29,1.79-.89-.7-6.13.92-13.27a24.52,24.52,0,0,1,3.2-7.56c2.79-4.62,5.73-6.33,11.67-11,8.37-6.56,12.56-9.84,15.33-14.19A68.42,68.42,0,0,0,2487.56,906.9Z"/><path d="M2761.2,9.79c-6.06-.28-12.58,6.83-12.53,13.73,0,.58.12,5.81,3.61,7.89.94.56,2,.81,5.32.69,7.08-.26,10.62-.39,12.18-2.4s1-5-.17-10.65c-1.12-5.25-2.75-6.77-3.26-7.2A9.07,9.07,0,0,0,2761.2,9.79Z"/></g></g></svg>