<svg xmlns="http://www.w3.org/2000/svg" viewBox="0 0 2058.17 2061.07"><g id="Layer_2" data-name="Layer 2"><g id="Egypt"><path d="M1563,99.6c6.76-2.35,10.14-3.52,11.42-3.65,5.92-.59,6.72,2.65,13.85,2.68,5.17,0,9.79-1.68,9.72-2.43s-4.45-.34-12.88-1.46c-7.46-1-8.27-1.87-12.15-1.94-6-.12-10.67,1.83-15.06,3.88-12.4,5.8-20.38,11.34-28.19,16-9.14,5.5-17.58,10.57-29.15,14.09-12.26,3.73-22,6.69-31.1,2.43-8.5-4-6.85-9.83-20.65-22.84-6.23-5.87-15.4-14.51-21.63-11.9-3.41,1.42-4.51,5.63-6.07,11.9-2.26,9.08-1.29,14.65-.49,34.75.39,9.71.17,8.48.49,14.09.22,3.81.77,12.19,2.67,27,2.26,17.54,2.63,14.66,2.92,20.16.63,12.4-1.91,14.42-3.16,34.26-1,16.25.32,20.68,1.21,23.08a59.22,59.22,0,0,0,9.72,16c5.61,6.36,11.17,9.52,10.69,14.58-.27,2.82-2.2,3.93-1.46,6.07s3.59,2.88,9,4.86a92.27,92.27,0,0,1,10,4.13c10.14,5.86,7.76,29.31,7.28,34-2,19.37-4.13,28.42-4.13,28.42-.71,3-1.95,7.73.49,11.42,2.58,3.9,6.91,3.12,8.5,6.81,1.72,3.95-2.6,6.47-1.45,11.42,1.09,4.71,5.52,4.64,9.23,10.2,2.34,3.51,2.7,7.36,3.4,15.06,1.14,12.44-1.32,14.13,1,20.66,2.42,6.9,5.59,6.23,7,12.39,2,8.66-3.66,12.42-1,18,2.89,6,10.25,3.15,14.82,9.47,5.25,7.27-2,14.56,3.64,21.63,3.77,4.76,9.65,4.77,11.18,10.44.69,2.59-.37,3.16.48,5.59,1.54,4.4,6,5.42,10.94,8.75,4.53,3.06,3.48,4.05,10.45,11.18,2.44,2.5,7.25,6.48,16.76,14.33s11.57,9.38,12.88,13.12,0,4,1.46,11.66,3,8.34,2.91,12.88c-.07,6.48-3.13,7.08-2.67,11.66.72,7.27,8.61,7.81,10.69,15.07,2,6.89-4.24,9.55-5.59,19.92-1.67,12.81,5.85,23.67,7.29,25.75,4.2,6.07,14.31,16.86,20.41,19.2.71.27,3.56,1.27,4.37,3.64a5,5,0,0,1,0,2.92c-1.63,7.36,19.2,20.65,19.2,20.65,13.55,8.65,13.83,6.11,17.73,10.45,6.33,7,4,12,10.94,23.57,2.56,4.3,2.37,2.78,11.66,14.33,12.08,15,12.77,18.08,20.17,24.78,2.83,2.57,6.09,5,12.63,9.72,7.66,5.59,11,6.88,18.47,12.64,3.84,3,7,5.72,8.66,7.21,9.67,8.6,8.92,9.9,12.8,11.82,8,4,12-1.16,18.62,2.92s6.52,11.77,10.37,11.66c3.18-.09,6.61-5.4,5.51-8.43-.41-1.13-1.43-1.85-2.92-2.91-2.69-1.91-5.09-2.45-5-2.75s3.27,1.15,5.83-.17c1.4-.72,2.31-2.65,4-6.48,1.85-4.06,1.6-4.42,2.59-5.5,2.15-2.35,4.31-1.74,7-3.4,3.24-2,3.52-5.13,5.34-8.91,3.92-8.11,8.94-6.93,13.29-13.77,1.82-2.88,1.15-3.41,3.24-20.9,1.79-15,2.59-17.08,1.29-21.86-1.66-6.16-3.76-5.6-5.67-12.8-.82-3.1-2.63-10.28-.16-18.14,1.34-4.27,2.63-4.56,5.51-10.37,3-6.15,3.4-9.48,5.5-16.52a125.57,125.57,0,0,1,10.7-25.92c5.3-9.34,7.2-8.93,11.17-17.49a85.1,85.1,0,0,0,5.67-17.49c.76-3.22,1.19-5.6,3.4-22.19,2.36-17.67,2.29-18.06,3.08-21.71,2.4-11,3.8-10.86,4-17.17.29-7.36-1.51-10.19.32-17a79.73,79.73,0,0,1,3.24-8.91c1.51-3.49,2.48-5.06,3.4-7,3.55-7.27,2.39-10.86,5-20.9a70.94,70.94,0,0,1,4-11.66c6.49-14.11,14.75-15.86,19-27.37,1-2.67,1.77-6,1.78-15.23a186.34,186.34,0,0,0-6.32-47.62c-9.31-32.25-12.88-28.23-22-59-5.39-18.11-13.9-35.53-16.36-54.26-.64-4.9-1.42-14.32-7.93-18.79-2.64-1.81-5.75-2.49-8.1-6.16a15.63,15.63,0,0,1-2.27-8.58c.11-4.82,2.36-5.87,2.27-9.23-.14-4.88-5-5.83-8.1-10.86-5.48-8.73,3.4-14.85-.81-29-1.32-4.44-3.66-8.73-7.45-15.71-2.43-4.46-4.39-7.57-5-8.59-6.79-11-10.87-25.42-16.36-43.41-7.58-24.78-6.45-18.79-10.86-34.17-6.54-22.86-9.73-39-15.06-39-1.19,0-1.5.79-5.83,4.21,0,0-2.62,2.07-11.83,8.1-16.63,10.89-36,18.79-36,18.79-9.72,4-22.78,9.21-40.81,12-19.84,3-30.86,4.74-40-1.79-4.17-3-7.79-7.53-16.69-12.47-.62-.35-7.37-4-14.25-2.91-.65.1-2.67.42-2.75,1.13s2,1.31,5.67,2.91c4.95,2.17,4.47,2.57,9.71,4.86,2.2,1,4.64,1.92,4.54,2.27s-4-1.16-6,.65c-1,.85-.57,1.61-1.46,2.92-1.25,1.82-3.27,2.18-6.32,3.07,0,0-3.38,1-7.61,2.76-3.48,1.44-4,2.51-9.07,6-4.12,2.83-12.14,8.34-14.26,6.48-.93-.82.22-2.25-1-4.21-1.29-2.15-3.41-1.67-5.34-3.57-2.79-2.72-2.64-7.84-1.62-8.26s3.26,4,4.21,3.57c.75-.35.18-3.53-.81-6-.73-1.82-1.88-4.69-4.54-6.15-2.13-1.18-4.47-.75-9.07.16-6.23,1.23-10.24,2-13.6,5.35-2.4,2.37-1.54,3.12-4,5.5-1.61,1.52-4,3.18-11,5s-6.93.81-11,2.11c-8.33,2.64-9.22,7.16-17.66,9.07-3.34.76-7.37,1-7.61.16s2.46-2.12,6.8-4.21c9.37-4.51,15.59-7,19.6-8.75,6.29-2.79,10.48-5.39,17.17-9.55,7-4.36,12.44-8.34,20.09-11.18C1559.29,100.89,1562.51,99.78,1563,99.6Z"/><path d="M984.39,89.12a4.43,4.43,0,0,1,2.08,1.33c2.3,2.39,5,4.43,7,7.12,3.37,4.66,6.41,3.06,19.76,10.37,7.52,4.12,6.46,4.57,10.36,6,4.62,1.68,6.32,1.14,17.82,2.76,4.13.58,7.74,1.1,12.31,2.1a77.62,77.62,0,0,1,12.8,3.57c9.51,3.83,15.71,10.24,23.81,18.62.93,1,2.83,3.08,6.64,7.29,12.59,14,11.39,13.33,14.09,15.71,8.79,7.76,13.15,7,16.36,13.12,3.58,6.88,4,10.37,4,10.37.33,2.41.14,4.06,1.13,4.54,1.59.76,4.89-2,6.48-5a11.19,11.19,0,0,0,1.3-5.51c-.12-3-1.55-5.33-3.4-8.26-2.27-3.61-3.41-4-3.4-5.83,0-2.54,2.25-3,2.26-5.35,0-3-3.46-3.45-4.37-7.13-.82-3.3,1.7-4.15,1.13-7.61-.67-4.14-4.46-4.12-6-8.91-1.23-3.88.9-5-.48-8.26-1.26-2.91-3.31-2.66-8.75-6.8a60.1,60.1,0,0,1-9.07-8.75,45.69,45.69,0,0,1-5.18-6.48c-1.75-2.84-1.83-3.93-3.24-4.7-2.75-1.47-4.93,1.31-7.94.17-3.4-1.3-4.42-6.28-4.7-7.62-.36-1.74-.28-2.94.81-9.88,1.24-7.89,1.8-10.56.16-12.15-.4-.38-.56-.34-2.91-1.13-5.48-1.82-8.24-2.76-9.4-4.21-1.47-1.84-.61-2.91-2.59-5.18-1.42-1.63-2-1.25-2.91-2.6-1-1.52-.39-2.18-1.14-7-.18-1.14-.38-2.2-.47-3-1.23-2-.92-4.27-1.57-6.41a24.6,24.6,0,0,0-2.28-5.07,8.12,8.12,0,0,0-4.1.53c-3.07,1.36-3.46,4.64-5.67,10.69-1.29,3.54-5.22,13.56-11.66,21.22-2.62,3.1-6.38,7.58-13,10.2-9.74,3.89-18.31.79-21.22-1.13-.74-.49-2.42-1.59-2.43-3.08s1.59-2,1.62-3.89a3.16,3.16,0,0,0-1.13-2.59c-1.18-.76-3,0-6.32,2a72,72,0,0,0-7.94,5c-4.6,3.64-7.84,6.52-10.36,8.75l-.12.1a12.48,12.48,0,0,1,.87,1.19Z"/><path d="M1069.81,45.62c.23,1.44.15,2.85,1,4.12a1,1,0,0,1,.14.85,8.49,8.49,0,0,1,2.21,1.14,13.35,13.35,0,0,1,4.86,7.78c.63,3.4-.7,4.95.81,7.29a5.13,5.13,0,0,0,2.43,2.1c1.78.68,2.77-.34,4.53-.16,2.89.31,4.75,3.54,5.51,4.86a14.09,14.09,0,0,1,1.62,8.75c-.39,2.93-1.37,3.2-2.75,8.91a8.63,8.63,0,0,0-.17,5c.14.41.93,2.81,2.92,3.4a5.21,5.21,0,0,0,2.59-.16c2.58-.52,3.14-1.32,4.38-1.3,1.74,0,3.05,1.66,3.88,2.76,4.74,6.2,5.77,10.26,9.4,14.74a52.39,52.39,0,0,0,8.91,8.09c4.28,3.35,5.16,3.33,6.15,5.19,2.47,4.63-1.1,8.35,1.78,12,.86,1.08,1.69,1.41,4.38,4.38,1.42,1.57,1.94,2.31,1.94,3.24,0,1.77-1.87,2-2.43,3.72-1.25,3.78,6.18,8,4.86,11.66-.56,1.54-2.22,1.74-2.27,3.41,0,.75.3,1.37,1.78,3.4s2.54,3.29,2.76,3.56c2.5,3.12,3.07,9.24.65,13-2.11,3.23-6,3.87-5.67,5.34.18.89,1.57.78,2.91,1.79,2.69,2,2.11,6.19,2.43,11.5.08,1.2,0-.36,2.27,12.47,1.94,11.1,1.88,12,3.24,13.77s3.43,3.6,2.91,5.67c-.42,1.69-2.31,2.26-2.1,3.4.25,1.34,3,1,3.89,2.75.7,1.35-.38,2.49-.81,5.51-.14,1,0,1.58.16,5.51.28,5.44.66,5.8.81,9.88.22,6-.54,6.51.48,8.26,1.48,2.5,3.75,2.6,4.54,5.34a5.2,5.2,0,0,1-.32,4.05c-1.89,2.87-7.44,1.35-7.78,2.76-.22.9,1.81,2.64,3.89,2.75,1.69.09,2.18-1,5-1.78,2.13-.62,3.26-.94,4.37-.49,1.94.79,1.71,3.09,4.21,7.78a43.93,43.93,0,0,0,2.43,3.88c3.64,5.43,4.61,5.24,5.84,7.94,1.94,4.29.31,6.6,2.26,7.94,1,.68,3.1.34,7.29-.33,3.52-.56,4.5-1,6.81-.81a11.57,11.57,0,0,1,4.21,1c1.89.88,2.85,2.05,3.24,1.78s-.42-2.21-.81-3.24c-2.46-6.41,1.7-10.07-.17-18.47a12.19,12.19,0,0,0-1.78-4.86c-2.85-4.11-7.83-4.43-7.77-6.48,0-.58.76-1.21,2.27-2.43a44.9,44.9,0,0,1,5.34-3.56c2.86-1.82,4.29-2.73,5.18-4.05,1.8-2.66.63-4.88,1.14-7.61,1.1-5.95,8.65-6.24,15.06-12.31,5.54-5.24,7-11.76,9.07-20.57,1.38-6,3-13.05,1.14-21.55s-6.83-16.33-7.78-25.59a19.91,19.91,0,0,1,.33-6.48c.85-3.86,2.38-5,3.72-7.93,3.86-8.39-1.06-15.71,2.92-18.47,1.39-1,2.88-.67,4.37-2.43a7.92,7.92,0,0,0,1.62-4.21c.8-5,4.57-5.8,12.31-16.2,1.62-2.17,3-4.25,4.21-6,3.87-5.7,4.55-7.27,7.13-9.88a32.18,32.18,0,0,1,5.34-4.38,38,38,0,0,1,5.67-2.91,33,33,0,0,1,4.7-1.78c4.83-1.31,6.34.37,11.18-.49a14.1,14.1,0,0,0,7-2.75c2.64-2.17,2.1-3.84,5.67-9.07,1.84-2.7,2-2.33,4.37-5.67a56.65,56.65,0,0,0,4.54-7.45c2.55-5,3.82-7.56,3.89-9.4,0-.09,0-.23,0-.37a1,1,0,0,1-.34-.85c.13-2.66,1.93-4.42,3.45-6.38a44.77,44.77,0,0,1,2.71-4.06,31.7,31.7,0,0,1,4.21-4.7c1.3-1.18,1.4-1.07,4.7-3.72s3.76-3.22,4.21-3.89c1.17-1.76.79-2.39,1.78-4.54a15.79,15.79,0,0,1,3.32-4.65,1.56,1.56,0,0,1,.2-.38,12.61,12.61,0,0,0,2.11-5,84.93,84.93,0,0,0-9.36,3.54c-12.39,5.13-13.22,7-20.24,9.08-5.21,1.56-9.2,1.85-17.17,2.42-8.8.64-13.25,1-18.47-.64-5.7-1.76-8-4.49-13.28-8.43-11.25-8.4-22.06-11.91-37.74-17-9-2.93-13.51-4.39-19.28-5-13.43-1.49-24.35,1.41-33.36,3.88-2.79.77-9.85,3.37-24,8.59-13.76,5.08-15.44,5.9-21.54,7.77-14.38,4.41-12.79,2.21-22.35,5.67-10.36,3.75-17.66,8.3-22.36,5-1.39-1-1.4-1.83-3.56-3.24a17.17,17.17,0,0,0-3.85-1.83c.27.57.54,1.14.79,1.72A16.61,16.61,0,0,1,1069.81,45.62Zm28.43,7.09c2.52-3.51,8.37-.22,14.74-4.86,2.7-2,2-2.79,4.86-5,4.63-3.56,7.89-2.52,14.41-4.7,8.48-2.84,6.62-5.82,14.09-7.78,6.52-1.7,10.08,0,14.26-3.4a23.82,23.82,0,0,1,4.86-3.72,21.63,21.63,0,0,1,6.31-2.11c3.51-.73,6-1.26,9.07-.65,3.68.75,3.33,2.21,8.59,3.89,3.2,1,4.74.93,5.18,2.11.66,1.74-1.7,4.72-3.24,4.53-.93-.11-1.07-1.34-2.91-2.1a12.28,12.28,0,0,0-1.78-.49,10.63,10.63,0,0,0-2.76-.49c-1.34.26-1.32,1.92-3.4,5.19-1.48,2.32-2,2.25-2.59,3.88-.67,1.82-.33,2.67-1.13,3.41s-1.66.66-4.38.32c-4.69-.59-7.35-1.39-7.61-.81-.14.3.54.6,1.13,1.78a7.12,7.12,0,0,1,.65,3.24,8.48,8.48,0,0,1-.49,4c-.63,1.45-1.67,2.19-3.4,3.4-1,.66-4.69,3.28-5.83,2.27-.21-.19-.31-.49-.16-2.27.31-3.63,1-5,.49-5.34s-2,.58-2.6,1.94c-.71,1.66.51,2.77-.16,3.73s-2.56,0-6.15.64c-2.47.46-2.76,1.2-4.38,1a7.19,7.19,0,0,1-3.88-2.11c-1.6-1.55-1.19-2.4-2.6-3.56-1.72-1.45-4.42-1.9-5.18-1-.4.49-.18,1.28,0,2,.73,2.65,2.61,3,2.75,4.37.25,2.41-4.9,6-8.74,5a15.71,15.71,0,0,1-2.11-1c-3-1.49-4.49-2.23-5.5-3.24-2-2-2.29-4.34-2.92-4.21-.4.08-.38,1-.65,1.94-.71,2.47-3.13,3.54-5.34,4.86-6.18,3.69-6.55,6.79-8.59,6.32C1098.26,63.05,1095.83,56.05,1098.24,52.71Z"/><path d="M1530.07,1485.24c2.77-7.3,4.19-11,4.53-15.88.31-4.21-1-9.45-3.72-19.76-2.57-9.86-3-9.49-4.05-14.58-1.51-7.07-.88-8.36-2.11-21.86-1.53-16.88-3.1-21.18-4.86-24.62a30.46,30.46,0,0,0-7-9.56c-3.2-2.87-5.18-3.26-12-7.45-4-2.44-6.78-4.45-9.39-6.32-7.61-5.43-9.59-7.68-15.23-10.2-3.41-1.53-3.32-1-4.7-2-4.1-2.85-4-7-6.8-19-3.33-14.3-4.47-12.71-4.7-18.46-.15-3.81.24-7.39-2.1-11.18-1.9-3.06-3.41-2.75-5.35-5.35-4.53-6.07-3.36-17.32,1.95-21.21,1.48-1.1,1.67-.42,7.12-2.27,3.29-1.12,7.35-2.5,10.53-4.7,3.83-2.64,5.55-5.89,8.26-11,5.31-10,4-14.49,8.43-16.85,3.52-1.89,5.55.33,9.55-2.27,2.61-1.69,5.44-5,5-8.42-.18-1.53-1-2.68-2.26-4.54-1.87-2.69-3-3-3.89-4.53-1.58-2.72-.4-6.14.65-9.07,5.83-16.29,7.17-17.44,7.61-22.19a29.85,29.85,0,0,0-1.94-13.28,30.88,30.88,0,0,0-8.43-11.83c-3.76-3.47-7-6.42-10.85-6-2.17.23-4,1.88-7.77,5.18-5.3,4.67-5.43,6.36-9.07,8.26a19.3,19.3,0,0,1-7.62,2.11c-2.87.16-3.91-.23-11.34-1.3-2.64-.38-4.32-.68-5.83.33-1.93,1.29-1.22,3.18-3.08,5.66-2.73,3.67-7.72,4.17-8.26,4.22-4.39.37-5.27-2.2-8.42-1.46-4.39,1-4.25,6.37-8.1,7.13-3.69.72-8.12-3.37-10-7.13s-.41-4.9-2.27-8.26c-2.12-3.84-4.47-3-8.91-7.29-3.29-3.17-2.7-4.3-8.58-11.5-3.53-4.33-4.92-5.36-5.83-5-1.39.51-.2,3.65-2.27,7a9,9,0,0,1-7.61,4.38c-2.18-.09-5.08-1.19-6.32-3.57-2.2-4.24,3.15-8.18,1.62-13.6-.79-2.81-2.82-3.86-7.61-7.46,0,0-3.19-2.38-13.93-11.82-10-8.79-15-13.18-16.36-18.79-.78-3.23-.19-4.57-2-17-.43-3.06-1-7-2.91-7.45-1.52-.34-2.3,2-5.35,2.92-2.46.73-5.88.39-7.94-1.62-3.13-3.07-1.85-8.84-1.61-9.88.77-3.47,2.44-4.82,1.61-6.32-.17-.33-.66-1-5.5-1.94-4.47-.87-5.72-.62-7.45-1.78a8.94,8.94,0,0,1-2.76-3.24c-2.7-4.71-.64-8.13-3.24-11.51-.9-1.17-1.24-.87-3.88-2.75a40.72,40.72,0,0,1-8.43-8.26c-2.73-3.74-3.74-7.09-5.5-13s-1.26-6.62-2.92-10.85a31.54,31.54,0,0,0-5.18-9.39c-5.59-6.58-10.53-4.59-17.17-11.51-2.16-2.24-3.33-4.25-5.67-8.26a59.09,59.09,0,0,1-6.8-15.55c-1.33-5.06-.72-6-2.27-7.93-2.28-2.88-5.82-3.75-11-5-4.86-1.2-6-.69-10.2-2.27a20,20,0,0,1-6.16-3.4,18.16,18.16,0,0,1-4.37-5.83c-2.38-4.7-1.21-6.56-3.56-9.24-1.39-1.58-2.94-2.23-5.35-3.24-5.43-2.27-6.79-.56-9.72-2.43-4.07-2.6-2-6.3-6.64-9.39-2.14-1.44-4.67-2-5.34-4.37-.31-1.07.08-1.41-.33-2.43-.73-1.86-2.73-2.52-5-3.57a48.56,48.56,0,0,1-6.32-3.56c-.4-.28-6.66-4.72-7.77-12a23.59,23.59,0,0,1,.16-6.48c.47-4.41,1.27-5,1.46-7.61.38-5.39-2.74-6.16-2.92-11.34-.13-3.91,1.54-7,3.89-11.34,2.62-4.83,5.91-8.45,4.7-11.34a18.71,18.71,0,0,1-1-2.26,15.85,15.85,0,0,1-.81-4.21c-.3-4.77,1.12-6.47.64-10.21-.19-1.51-1-3.27-2.59-6.8-1.72-3.79-2.49-4.53-3.72-7.62a36,36,0,0,1-2-6.47c-.92-5.11.73-6.55,1.46-14.1.44-4.48.81-8.82-.81-13.93a21.48,21.48,0,0,0-4.21-7.77c-1.88-2.13-2.62-2-4.86-4.05-1.62-1.5-2.39-2.65-6.8-10.21-4.59-7.84-4.75-8.3-4.86-9.23-.41-3.45,1.07-4.2,1.46-10.36a72.67,72.67,0,0,0-.17-7.29c-.38-7.88-.84-8.36-.81-12s.06-7.51,1.79-11.82a31.52,31.52,0,0,1,7.77-10.86c2.3-2.22,4.11-3.37,6.64-6.64a27.66,27.66,0,0,0,3.08-4.7,9.1,9.1,0,0,0,.28-6.86,12.37,12.37,0,0,1-2.22-5.93,3,3,0,0,1,0-.32,27.9,27.9,0,0,1-1.45-7.62c-.07-1.44,1.2-7,3.72-18a36.59,36.59,0,0,1,3.08-9.39c.87-1.7,1.47-2.48,3.73-6.48,1.67-3,2.51-4.46,2.91-5.35,2.61-5.73.74-8.47,2.76-18a31.32,31.32,0,0,1,1.78-5.83,36.54,36.54,0,0,1,2.43-4.7,53.2,53.2,0,0,1,5.18-7.45c4.73-5.58,6.77-5,9.72-9.71.69-1.11.31-.71,2.75-5.84a109.28,109.28,0,0,1,5.19-10.2c2.24-3.61,2.76-2.86,9.23-9.88,5.1-5.54,7.7-8.4,10.2-13,1.35-2.44,1.54-3.34,3.4-6.48,3.16-5.31,4.17-5.41,5.51-8.26,2-4.18,1.75-8.14,1.46-13.12-.42-7.3-2.21-8-1.13-12,1.14-4.21,3.53-4.78,3.56-8.42,0-3.23-1.85-3.63-2.75-7.94a20.31,20.31,0,0,1,.64-9.88c.87-3.22,1.82-4.2,5-10.2,3-5.65,4.53-8.47,5-10.21,2.13-7.48-1.36-8.94,1-16.19,1.36-4.24,3.22-5.84,2.75-9.56a29.7,29.7,0,0,0-1.94-6.16c-1.27-3.36-2-4.77-2.43-5.83-2.14-5.62,2.85-9.37,4.21-18,.9-5.73-.34-10.26-2.27-17.33a79.53,79.53,0,0,0-5.51-14.41c-1.94-3.73-2.75-4.38-3.4-7a19.5,19.5,0,0,1,1.3-13c2.56-5.08,6.44-6.23,6.15-10a6.71,6.71,0,0,0-1.45-3.56c-1.7-2.16-4.1-2.47-7.45-3.4a58.91,58.91,0,0,1-8.59-3.24,45.58,45.58,0,0,1-12.15-9.07c-3.15-3.21-3-4-4.86-4.7-2.06-.83-3.53-.36-11.17.48-5.22.58-5.91.52-6.64,0-2.25-1.56-1-4.49-3.24-8.91-1.46-2.88-2.42-2.5-4.86-5.83-4.7-6.38-2.75-9.95-6-11.82-3.95-2.28-8.13,2.27-12.31-.49-1.94-1.28-3.4-3.82-2.75-5.34,1.06-2.49,7.22-1,7.94-3.08s-5-3.75-5.67-8.75c-.32-2.29.74-2.85.48-7.12a19.3,19.3,0,0,0-.81-4.86c-1.11-3.6-2.36-3.49-2.59-5.51-.44-3.9,4-6.1,2.92-8.75-.45-1.09-1.24-.77-2.59-2.75-.63-.92-1.87-2.72-1.3-4.21.43-1.13,1.55-1.15,1.62-1.95.11-1.14-2.14-1.84-3.56-3.07-2.25-2-2-4.78-2.43-10.05-.84-9.32-2.45-8.4-2.43-14.74,0-6.61,1.78-8.49,0-10.85-2-2.61-5.22-1.71-7.62-5.18-.25-.36-.54-.85-1.78-4.7-1.33-4.13-2-6.79-2.27-7.61-1.61-5.35-7.33-8.36-10.85-10.53s-9.27-8.09-21.06-20.09c-10.09-10.27-12.34-14-20.4-19.76a53,53,0,0,0-10.86-6.15c-5.23-2.16-9.66-2.92-15.22-3.89a80.82,80.82,0,0,0-12.15-1.46c-5-.17-6.44.32-10-.48-2.88-.65-4.91-1.62-8.59-3.4-4.42-2.15-4.74-2.77-8.75-4.86-8.44-4.42-9-2.74-12.79-5.84-3.25-2.67-4.58-5.4-7.94-7.61-1.39-.91-2.61-2.07-4-2.91-1.14-.68-1.86-1-1.94-1.62,0-.06,0-.12,0-.18a10.39,10.39,0,0,0-1.72-1.26c-5.47,4.81-8.38,7.37-9.49,8.24-6.07,4.78-7.88,5.46-8.91,8.42-.62,1.81-.91,4.35-3.08,5.83-.82.57-2.2,1.17-2.91.65-.92-.67,0-2.65-.81-3.24-1-.7-3.5,1.28-3.73,1.46a95.61,95.61,0,0,0-15.87,15.87c-1.78,2.4-8.23,6.66-21.06,15.07-17.75,11.64-26.63,17.46-36.6,23-12.19,6.76-18.46,10.19-26.86,12.31-8.23,2.07-7.09.33-22.22,3.24-6.73,1.29-11.42,2.49-17,.65a33.73,33.73,0,0,1-8.42-4.22c-2.14-1.56-2.78-2.52-5.62-4.51-1.81-1.28-2.09-1.27-6-3.58-7.81-4.58-6-4.22-10-6.32-2.9-1.52-4.29-1.95-4.7-3.4-.63-2.26,1.93-4,1.14-5.35s-4,.21-8.26-1.29a14.36,14.36,0,0,1-3.57-2c-4.71-3.2-10.57-7.16-16.36-8.42-7.28-1.58-11.33,1.81-14.25-1.3-1.66-1.76-.75-3.28-2.75-5.34-1.71-1.75-3.67-2-9.24-2.92-6.77-1.12-10.16-1.68-11-2.1-5.46-2.69-5.23-6.83-9.4-7.29-1.78-.2-2,.54-8.09,1.94,0,0-2.4.55-5.84,1.14a88.52,88.52,0,0,1-20.89.64c-8.65-.89-7.93-2.38-15.87-3.07-3.14-.28-3.89-.1-16.53.64s-18.71,1-25.1-1.78c-3.35-1.44-4.62-2.77-5.35-3.89-2-3-.49-5.12-2.27-10.52-1.2-3.68-2.12-3.42-2.59-6.32-.56-3.49.64-4.64-.32-7.45-.67-2-2.33-4.57-4.38-4.7-1.77-.11-2.82,1.69-4.69,3.56-1.27,1.27-5.24,3.08-13.12,6.65-5.36,2.42-8.24,3.64-12.15,4.37-2.8.52-4.86.55-6.64-.49-1.49-.86-1.71-1.85-3.24-2.59-2.4-1.16-5-.28-6,0-6.13,1.77-18.66.25-27.37-4.7a33.3,33.3,0,0,1-10.53-9.55,27.32,27.32,0,0,1-4.05-7.94,26.61,26.61,0,0,1-.81-12c-.33-1.74-1.08-4.13-3.07-5.5-3.25-2.24-6.66.35-14.42,1.45-7.36,1.05-14.08.12-20.73-.81-5.19-.72-6.08-1.31-9.4-1.13s-5.33.88-7.13-.49c-1.55-1.18-1-2.48-2.75-3.88s-2.9-.71-5.51-1.78c-2.05-.85-2.67-1.8-4.69-3.41a37,37,0,0,0-8.1-4.53c-8-3.28-11.55,2.77-22.36.32A39,39,0,0,1,399,43.8a40.67,40.67,0,0,1-6.16-4.21c-7.88-6.26-22-3-42.27-4.22a152.27,152.27,0,0,1-16.69-1.94c-15-2.58-18.47-5.48-37.41-10.2-14.73-3.67-13.44-2.12-22.52-5-12.86-4.1-15.94-7.37-26.4-8.9a68.15,68.15,0,0,0-19.44.16c-9.06,1.1-13,2.93-28.67,8.1-31.26,10.29-30.09,7.78-46,13.28-4.53,1.57-8.3,3-13.61,2.91a111.5,111.5,0,0,0-11.17-.32c-3,.12-2.91.3-5,.32-3,0-8.27.12-12.31-1.94S105.47,26,103,21c-4.11-8.63-2.47-12.24-6.8-16.69-2.91-3-7.39-5.2-9.23-3.88-1.46,1-.44,3.71-.65,7.93-.26,5.31-2.28,9.13-4.21,12.8-4,7.51-9.13,7.52-24.62,18.79C46.65,47.82,44.08,51.53,43.11,53a39.47,39.47,0,0,0-5.83,16.36c-.83,6.79.68,9.2,2.27,21.38,2.07,15.9-.17,14.28,1.78,21.06,2.88,10,7,10.79,12.31,24.94a70.08,70.08,0,0,1,3.73,12.31c2,10.31,0,14.09,2.75,21.87,2.39,6.81,4.29,5,6.32,11.18,3.17,9.68.74,20.85-4.21,28.5-1.46,2.26-1.64,1.89-2.92,4.05-3.84,6.49-2.51,10.25-5,18.95-1.75,6.06-2.7,5.31-4.37,11.51-1.74,6.44-1.24,9.19-2,13.28-1.48,8.53-5.86,9.15-16.68,25.1-6.55,9.66-5.18,9.78-11.5,18.47C15.48,307.91,13,310.37,8,317.86c-3.84,5.7-9.42,14.06-7.61,15.88.78.78,2.34-.24,4.86-.49,6.78-.66,12.23,5.09,13.12,6,3.6,3.68,3.86,7.1,6.32,16.2A175.62,175.62,0,0,0,31,375c3.37,8.77,4.91,10.4,4.86,15.07-.06,6.09-2.71,6.33-2.75,12.47,0,5.6,2.14,10,5.35,16.52s3.62,5.25,5.18,9.07,2.4,8,1.62,23.49c-.63,12.55-1.27,10.68-1,13.77,1,10.52,6.5,12.3,13.28,27.37a114.69,114.69,0,0,1,7.29,23,125.64,125.64,0,0,1,3.07,20.09c.54,7.91-.1,10.45-1.29,32.07-.49,8.9-.73,13.35-.81,16.84-.33,14.72.9,22,1.62,33.69,1.25,20.47-1.3,18.16-.81,48.76.22,13.69.77,16.6.81,32.72,0,11.69-.25,12.54-.32,25.92-.1,18.16.4,19.94.48,39.68.06,13.46-.18,11.66-.32,36.77-.09,16-.14,24.2,0,35.63.26,21.72.76,20.88.64,33.7-.17,18.73-1.25,20-1.13,36.6.09,12.13.67,11.83,1.13,29.16.36,13.2.28,22.88.17,36.77-.26,31-1.08,28.54-.49,40.33.47,9.41,1.28,16.6,1,29.32-.2,8.71-.66,8.72-1,16.84-.85,22.69,2.44,30.15,1.62,54.91-.07,2.29-.08,1.66-.65,11.67-1.64,29.11-2.45,43.66-2.75,57.34-.59,27.25,1.09,32.32.49,74.83-.06,4-.12,7.29-.17,9.39l1.62,738.46,1163.17.13a20.27,20.27,0,0,1,1.7-4.13,1,1,0,0,1,.25-.31l.06-.2a1.8,1.8,0,0,1,.71-1.74c-.26-1.8,1.74-3.47,3.27-5.41,2.9-3.68,5.32-9.92,3.56-14.42a13.19,13.19,0,0,0-6.31-6.48c-1.63-.76-3-.92-4.38-2.43s-2.19-3.61-1.46-4.53c.54-.67,1.42,0,2.92-.65,1.92-.82,1.87-2.51,3.24-2.75s2.9,1.3,3.56,2.27c1.42,2.06.39,3.39,1.62,4.69s3.56,1.17,6,1c2.62-.21,3.93-.32,4.85-1.29,2-2.13-.5-5.41,1.62-8.1.5-.63.59-.39,3.89-2.27a58.13,58.13,0,0,0,5.67-3.56c2.44-1.77,2.35-2.14,4.7-3.89a59,59,0,0,1,5.51-3.4c4.74-2.82,7.14-4.25,8.26-5.35.33-.32,1.63-2,4.21-5.5,3.91-5.24,4.11-5.58,4.37-6.16,1.52-3.34.61-4.35,2.43-7.29a10.15,10.15,0,0,1,3.4-3.72c2-1.17,3.12-.74,4.38-2.11a4.17,4.17,0,0,0,1.13-3.72c-.33-1.11-1.16-1.21-2.33-2.43-1.34-1.41-2.91-4.06-2.21-6,.42-1.14,1.63-1.73,4-2.91,3.35-1.63,4.5-1.33,5-2.43.44-.93-.4-2.63-2.11-6-1.33-2.62-2-4-3.08-4.86-1.65-1.42-2.74-1.25-3.24-2.43-.8-1.89,1.39-3.66.65-4.7-1-1.36-5,1.22-7.29-.65a3,3,0,0,1-1.13-2.91c.28-.88,1.24-1.2,5.34-2.6,2.83-1,4.24-1.45,4.21-1.78,0-.49-2-.76-4.69-1.13s-2.94-.21-3.73-.65a7.36,7.36,0,0,1-2.91-3.73c-.72-1.77-.39-2.62-1.14-3.07s-1.67.36-3.56.48c-2.15.14-4.38-.8-4.37-1.45s2.08-1.06,5.66-1.79c4-.8,6-1.19,7.78-.81a24.48,24.48,0,0,1,4.86,1.79,18.75,18.75,0,0,0,2.75,1.29c2.89.75,4.6-.87,5.51,0s-.26,2-.16,4.7a10,10,0,0,0,1.78,5.51,9.71,9.71,0,0,0,6.32,3.56c3.88.4,5.55-2.2,7.45-1.13s.52,4.22,2.75,6.8c2.45,2.83,8,3.39,10,1.29,1.83-1.85.32-5.15,2.27-6.31,1.5-.89,3.5.37,3.89-.33.3-.53-.82-1.42-2.11-3.4s-2.49-3.82-1.94-5.18c.76-1.88,4.68-2.69,6.32-1.3,1.25,1.07.47,2.82,1.62,3.57s2.66-.57,5.83-1.79c5.21-2,8.34-1.18,8.91-2.91.46-1.42-1.51-2.41-1-4,.62-1.91,3.66-1.74,4.05-3.56.26-1.18-.93-1.63-.81-3.08a4.33,4.33,0,0,1,3.41-3.57c2.48-.34,3.52,2.79,6.8,2.76,1,0,2.75-.34,3.08-1.3.56-1.68-3.8-3.5-3.41-5.83a3.34,3.34,0,0,1,3.41-2.43c3,.48,3.31,7.74,5.67,7.78.57,0,1.08-.54,2.1-1.62,2-2.11,1.9-3.38,3.08-4.54,2.25-2.21,6.66-1.63,6.8-1,.18.82-6.16,2.18-6,3.4s5.85,2.14,11.5.81c6.58-1.55,9.76-5.5,11.5-4.21,1,.7.23,2,.49,6.32a46.47,46.47,0,0,0,1.78,9.39c1.13,4.53,1.72,6.83,3.07,8.42a12.47,12.47,0,0,0,6,3.73c6.1,2,14.62.36,16.68-4.21,1.42-3.15-1.19-5.58.65-8.1s4.49-.61,8.26-3.08c4.29-2.81,3.56-7,7.45-8.1,2-.58,3.29.25,5-1,.87-.61,1.29-1.33,2.43-3.72,1.55-3.25,2.33-4.87,2.92-6.48,1.37-3.77,2.06-5.65,2.1-7.94a15.14,15.14,0,0,0-1-6.16c-.71-1.78-1.65-3-1.94-5.5-.11-.93-.31-2.6.48-3.08s1.41.33,3.41,1,3.42,1.1,4.21.49c1.57-1.21-1.25-5.71.48-7.29,1.17-1.06,3.22.26,4.7-1.14a3.58,3.58,0,0,0,1-2.26c.54-4.81-6.92-9.36-6.32-10.21.25-.35,1.44.56,3.57.65,1.67.07,4.69-.32,5.67-2.11,1.12-2-1.58-3.85-.65-6.47.67-1.89,2.23-1.45,4.7-4.38,1.15-1.37,2.72-3.23,2.43-5.34-.16-1.11-.81-2-2.11-3.73s-2.53-2.75-2.27-3.24.89-.06,2-.16c2.35-.21,3-2,5.5-3.08a19.14,19.14,0,0,1,4-.65c3.07-.35,4.22-.18,7.45-.48,3.59-.34,5.4-.53,6.32-1.62a4.37,4.37,0,0,0,.33-5.18c-1.09-1.35-3.13-1.23-4.86-1.14-4.89.27-6.43,2.84-9.56,1.94a5.72,5.72,0,0,1-3.08-2.26,6.15,6.15,0,0,1,1-7.45c.85-.75,1.69-.88,5.67-1.14,7.23-.47,7.37-.23,8.91-.65,2.45-.66,7.07-2.63,7.45-5.66.33-2.53-2.48-4.24-1.62-5.84.48-.88,1.47-.6,3.89-1.62,1.78-.74,4.44-1.86,4.7-3.56.12-.79-.33-1.44-3.57-4.86-3.58-3.79-3.84-3.79-3.88-4.37-.2-2.61,3.07-3.83,8.1-10,3.21-4,3.86-5.93,3.72-7.78-.15-2.09-1.34-4.27-2.27-4.21s-.83,2-2.1,3.89c-1.94,2.92-6.31,5-9.4,4-3.79-1.15-2.67-5.93-7-8.43-4-2.36-10.33-1.17-13.28,2.11-1.58,1.75-.87,2.62-2.76,6.32-1.09,2.13-4.21,8.26-8.1,8.26-2,0-3.62-1.61-6.8-4.7a43.65,43.65,0,0,0-3.72-3.73,25.52,25.52,0,0,0-5.19-2.91c-4.37-2.32-6.59-6.44-8.1-9.23s-2.1-5.41-3.24-10.53c-1.22-5.5-1.8-8.29-.81-10.53,1.71-3.83,6-5.52,7.13-6a11,11,0,0,1,4.86-1,11.77,11.77,0,0,1,7.29,3.4c2.9,2.79,2.58,5.11,4.37,5.51,2.41.54,5.17-3.16,6.32-4.7,3.84-5.14,2.61-8.11,6.15-11.5,2.15-2,5.63-3.85,7.29-2.75,1.38.92.31,3.22,1.46,8.91.75,3.69,1.33,3.38,1.78,6.64.42,3.06.08,4.59,1.3,6.16.84,1.07,1.87,1.47,3.56,2.1,3.52,1.31,8.38,1.86,11.5,0a6.83,6.83,0,0,0,2.43-2.27,6.38,6.38,0,0,0,.79-1.82c.81-2.86,1.64-5.77.83-9.51a16.72,16.72,0,0,0-2.43-5.67,14.68,14.68,0,0,0-2.59-3.24c-2.52-2.33-5-2.73-4.86-3.24s2.18-.3,4.54-.33c4.91,0,9.37-.11,10.69-2.26,1.11-1.83-1.19-3.25-1.3-8.27-.08-3.81,1.22-4.27,1-7.61a15.24,15.24,0,0,0-3.56-8.42c-2.35-2.7-3.85-2.28-9.56-6.64-4.13-3.17-4-3.87-3.88-4,.42-.88,4,1.13,8.09-.16a11.46,11.46,0,0,0,4.86-3.41c4.6-4.7,5.41-10.68,5.67-12.79.38-3.1-.11-3.52-.48-9.56-.25-4-.12-8.89.16-18.46.21-7.42.32-11.12.49-13.12a129.58,129.58,0,0,1,3.4-19.77c3.63-16,6-19,4.37-25.91-.45-1.88-.58-1.47-3.08-9.4-3.34-10.61-3.41-12.34-3.4-13.44C1525.43,1494.29,1526.94,1493.48,1530.07,1485.24ZM1122.86,474.66c-3.29,1.33-4.58,1.2-6.64,1.94-3.83,1.39-3.57,3.37-7.13,5.51s-7.4,2.16-13.61,2.1c-3.36,0-3.34-.37-9.88-.64-5.5-.23-5.39,0-7-.33a18.06,18.06,0,0,1-10.21-6.64c-1.11-1.52-2.56-4.1-1.94-4.7.83-.8,4,3.32,9.39,3.73,2.91.22,5.31-.73,7.94-1.78a37.22,37.22,0,0,0,7-3.89c4.12-2.7,3.66-3,5.67-3.89s2.34-.4,8.26-1.62c3.66-.75,3.66-.95,4.54-.81,2.63.42,3.65,2.34,6.48,2.27a3.68,3.68,0,0,0,2.11-.48c1.94-1.34,1.22-4.78,2.26-5,.81-.19,1.33,1.87,2.59,2,1.81.1,2.32-4,4.7-4.54,2-.44,2.64,2.15,6,3.4,4.76,1.78,8.31-1.58,10.7.65a4.56,4.56,0,0,1,1.13,4.05c-.51,2.58-3.45,3.94-6.48,5.35a15.16,15.16,0,0,1-4.21,1.45c-3.48.6-4.66-.64-7.78.17C1125.19,473.28,1125.51,473.58,1122.86,474.66ZM1244.18,1782a24.62,24.62,0,0,1-1,4c-.78,2.24-1.48,4.25-3.24,6a11.29,11.29,0,0,1-7.94,3.08c-1.94-.12-2.15-.76-7-2.75-3.47-1.44-6.46-2.39-7.61-2.76-6.38-2-7.91-1.66-8.75-3.24-.92-1.75.67-2.75.33-7.61-.16-2.24-.59-3.3,0-3.72.82-.6,2.29,1,6,2.43,2.27.85,3.7,1.38,5.51,1.13,2.57-.36,2.82-1.88,5.18-1.94,2-.06,2.39,1,4.7,1.13,1.73.07,2.4-.5,4.53-1.13,1.26-.38,7.46-2.21,9.24,0C1244.86,1777.48,1244.63,1779,1244.18,1782Z"/><path d="M2047.43,1604.13c-4.12-1.22-5.51.17-12.15-1.46-3.5-.86-5.6-1.4-7.13-3.24-2.36-2.82-.51-5.26-1.78-9.72-1.74-6.11-8.07-11.56-14.26-13-3.91-.88-6,.26-8.74-1.78-1.91-1.41-2.67-3.26-4-6.8-2.86-7.37-3.66-10-4.54-12.15-2.16-5.4-5.38-9.11-11.82-16.52-4-4.6-6-6.91-9.23-9.56-9.69-7.93-14.62-6.37-18.31-12.79-2.39-4.18-1.23-6.44-4.7-10.37-2.87-3.26-5.66-4-5.83-6.48-.19-2.9,3.36-3.7,3.41-7,0-2.63-2.27-2.79-4.7-7.45-2.24-4.3-2.16-7.77-4-8.1-1.23-.22-2.15,1.08-2.76.64s0-1.9.65-5c1-4.83.52-5.64.16-6-.77-.76-1.7-.12-2.75-.65-2.23-1.12-1-5.57-1.78-9.72-.45-2.47-3.92-6.65-10.85-14.9-4.52-5.37-5.49-6.26-6.32-8.75-1.65-4.92.59-6.07-1.13-10.2-2.23-5.35-7.17-6.27-7.62-10.85a17.71,17.71,0,0,1,.16-4.54c.34-1.74.76-2.13.81-3.24.11-2-1.15-3.51-2.42-5.18-2.48-3.25-4.42-5.79-5.51-8.59-1.55-3.94-.09-5-1.62-8.9-1.06-2.7-2.21-3.35-5-6.81a75,75,0,0,1-9.88-16.36c-1.17-2.46-1.1-2.64-3.08-7.45-5.55-13.47-8.33-20.2-12.47-25.91-5.29-7.28-7.55-6.9-9.07-12-1.63-5.45.21-8.39-2.27-14.42-1.61-3.9-2.6-3.19-5.67-8.42-3.83-6.51-3-8.85-7-16.85-2.2-4.47-2.3-3.41-5.34-9.07-5-9.37-4-10.84-7.94-17.33a75.67,75.67,0,0,0-10-12.63c-5.42-5.87-5.68-4.89-7.61-7.78-4.63-6.9-2.08-10.89-6.32-18-2.67-4.46-4-3.4-8.42-8.74-5-6-5.46-9.93-9.88-19.76-4.53-10.07-5-8-10.53-19.6-4.67-9.69-3.81-10-10.37-24.3a168.35,168.35,0,0,0-8.58-16.85c-3.62-6.1-4.31-6.23-6.81-10.53-5.44-9.33-3.86-11.53-9.23-23.81-6-13.71-11.35-18.72-13.28-20.4-1.56-1.37-6.26-1.82-7.45-5.19a7.52,7.52,0,0,1-.17-3.24c.33-7.23-3.65-11-2.26-12.31s6.22.85,8.42,4.38c1.16,1.86,1.1,3.39,1.62,3.4,1,0,3.21-5.58,1.29-10-1.59-3.71-4.61-3.26-7.45-7.61-2.33-3.58-3.35-8.58-1.62-10s4.88,1.92,7.62.48c3.55-1.86,4.08-10.64.65-14.25a21.49,21.49,0,0,0-4.54-3.24,24,24,0,0,0-2.75-1.29c-6.66-2.79-9.9-15.66-10.86-19.44a5.88,5.88,0,0,1,0-3.4,9.45,9.45,0,0,1,1.3-2.11c1.36-2.46-1.27-6.44-1.62-7-2.9-4.3-5.94-2.93-8.75-6.81a13.85,13.85,0,0,1-2.26-8.74c.07-1.14.24-1.36,1.78-6.81,1.16-4.14,1.75-6.21,1.78-6.8a14.11,14.11,0,0,0-4.54-10.69c-1.83-1.67-2.32-1.12-8.26-4.05a59.41,59.41,0,0,1-8.74-5c-4.11-2.93-6.32-4.5-7.78-7.29-2.63-5,.64-7.29-1.46-13.28-1.74-5-4.14-3.86-8.26-11-3.37-5.85-2.61-8.08-5.83-10.53-3.62-2.75-6.39-1.3-8.1-3.88-2.12-3.21,1.66-6.2-.16-11-.53-1.39-2.56-3.46-6.64-7.61-3.11-3.17-4.74-4.49-4.37-6,.3-1.27,1.9-2.17,3.23-2.27,3-.24,5.79,3.45,6.48,4.37,1.28,1.7,1.61,2.91,2.76,3.08,1.36.2,2.59-1.26,2.75-1.46,1.73-2.12,1.43-5.76,0-8.26-1.68-3-5.29-5-5.34-5a18.28,18.28,0,0,1,0-5.83c.61-3.84,2.19-5.75,1.29-6.81s-3,.49-6.15-.48c-1.52-.47-2.43-1.28-4.05-2.75-.7-.64-6.79-6.17-5.67-7.94.81-1.28,5.3-.45,8.42,1.46,2.06,1.25,1.83,1.95,4.54,3.56,2.47,1.47,3.25,1.25,5,2.75s2,2.5,2.91,2.43c1.13-.08,2.13-1.82,2.27-3.4.18-1.93-1-3.13-1.94-4.86-2.42-4.28-.65-6.2-2.59-12.31a32.34,32.34,0,0,0-3.24-6.8c-2.34-4.06-4.36-6.21-8.75-11.34-8.54-10-7.31-9.29-8.59-10.2-3.27-2.34-7.76-4.23-16.19-7.78a11.11,11.11,0,0,1-4.38-2.91c-1.89-2.18-1.64-3.93-2.91-6.65-.75-1.58-2.55-3.32-6.16-6.8-4.56-4.4-6.84-6.59-8.74-7.61a7.26,7.26,0,0,1-2.43-1.95,7.37,7.37,0,0,1-1.46-3.4c-.59-2.94-3.31-4.74-6.64-8.42-6.54-7.22-4.59-9.7-9.88-13.93a15.94,15.94,0,0,1-4.38-4.7,15,15,0,0,1-1.78-5c-1.25-6.39-6.61-7.72-11.18-16.2-3.92-7.28-2-10-6.64-15.22-.86-1-2.52-2.48-5.83-5.51-4.17-3.81-5-4.27-7.45-6.8-3.53-3.58-3.14-3.87-4.7-4.86-4.49-2.88-7.46-.34-10.2-2.43-3.32-2.54-.53-7.51-2.27-19.28a73,73,0,0,0-3.08-12.31c-2.12-6.72-3.18-10.09-5.34-12.15s-3.56-2-10.21-7a31.19,31.19,0,0,1-2.91-2.27c-3.64-3.75-2.87-7.48-6.48-10.2-1.53-1.16-1.63-.46-2.75-1.46-3.55-3.15-.36-8.07-3.57-12.8-1.53-2.26-2.6-1.64-5.18-5a16.88,16.88,0,0,1-3.08-5.51c-2-6.71,2.1-13,2.92-14.25,1.82-2.67,2.34-2,3.4-3.89,2-3.63.66-7.12-2.11-17.81-1.24-4.81-2.1-8.49-3.07-12.64-1.93-8.21-1.87-8.87-3.08-13.61-2-7.75-3-11.63-4.7-15.06s-5.34-7.43-12.63-15.55c-6-6.7-9-10-10.86-11.5-7.57-6-10.88-5.14-15.55-10.85-1.86-2.29-5.51-6.75-5-12.15.42-4.58,3.35-4.83,3.89-10.21.46-4.56-1.46-6.37-.16-10.69.27-.9.62-1.72,2.91-5.18,4.22-6.37,8-11.11,9.07-12.47,3.18-4,4.77-6,6.65-8.1,5.49-6.25,7.34-7.31,7.12-9.56-.14-1.47-2.31-3.68-6.64-8.1-2.48-2.52-3.37-3.22-3.56-4.69-.22-1.68.66-3,3.4-6.64,3.47-4.58,5.28-6.81,6-7.62,4.56-5.2,6.63-10.67,8.1-14.57a51.7,51.7,0,0,0,3.24-20.58c-.29-5.87-.73-15.06-6.8-19.92-1.22-1-4.24-3.4-7.45-2.75-1.93.38-2.33,1.56-4.86,2.1a10.16,10.16,0,0,1-6.16-.65c-2.41-1.14-3-2.9-4.53-4.69-3.43-4-6.83-2.65-12-5.51-5.71-3.16-10.7-9.88-10.2-15.87.29-3.51,2.18-3.42,4.53-8.59,3.79-8.31,2.65-16.81,1.78-23.32-1-7.22-2.1-6.34-2.26-11.18-.32-9.24,3.88-10.55,4.69-19.92.68-7.82-2.15-8-2.1-20.09,0-5.85.69-6.69.48-12.15a71.32,71.32,0,0,0-2.59-16c-3.22-13.25-2.58-25.33-2.27-31.26.67-12.53,3.22-18.68.81-31.1-.22-1.18-1.94-3.31-1.45-6,.69-3.84,4.5-4.68,4.53-7.45,0-.59-.14-2.7-6.8-6.64-5.64-3.33-9.2-4-13.61-5.83-4.89-2-7-3.94-13.12-8.26-12.56-8.87-16.21-8.44-23.81-15.07,0,0-7.19-6.27-7.94-13.12-.07-.7-.25-2.34.33-2.59s2.36,1.34,3.08,3.24c.5,1.33.31,2.2.64,2.27.55.12,1.93-2,1.95-4.05s-1.35-4-4.54-6.48c-3.79-3-11-8.55-20.81-7.81a18,18,0,0,1-2.55,6.54c-.12.58-.26,1.25-.45,2.08a20.5,20.5,0,0,1-.65,2.59c-.61,1.63-1.18,1.89-2.59,4.21-1.16,1.93-.83,1.83-1.62,2.92a20.62,20.62,0,0,1-3.24,3.24,18.76,18.76,0,0,1-2.59,2.11c-1.67.95-2.41.71-3.4,1.62s-.58,1.4-1.46,2.75c-.59.91-1.12,1.24-4,3.24l-.42.29c-.57.77-1.27,1.53-1.9,2.31,0,0,0,0,0,.06a12.58,12.58,0,0,1-.46,2.58,1.07,1.07,0,0,1-.16.34c-2.33,8.44-3.22,10.13-3.22,10.13-2.22,4.19-3.58,3.55-4.7,7s-.1,5.32-1.78,7.12-3.34.68-5.35,2.27c-3,2.39-.84,6.13-3.4,9.39-2.34,3-6.82,3.25-12.31,3.57s-6.66-.84-10.69,0c-1.43.3-4.48,1.11-8.91,4.37-10.43,7.68-8,13.86-18.14,22.84-2.93,2.6-6.22,4.83-7.78,9.4-.87,2.55-.5,3.79-1.94,6-2.26,3.44-4.84,3-6.48,6-.8,1.49-.3,1.83-.65,7.61a65.09,65.09,0,0,1-1.13,9.56c-.93,4.47-1.78,4.81-2.43,7.78-.84,3.82-.26,7,2.92,17.49,3.36,11.14,3.4,9.86,4,12.8,3.13,14.18-1.59,26.46-2.92,29.8-2,5.11-3.86,9.68-8.26,13.77a107.94,107.94,0,0,1-8.26,7.13c-3.12,2.28-5.28,3.44-5.67,5.83-.36,2.2,1.15,3.21.32,5.18-.71,1.7-2.07,1.51-3.4,3.73-1,1.75-.42,2.25-1.29,3.72-1.77,3-5.35,2.69-5.51,4.21s3.06,1.67,4.7,4.38-.32,5-.17,10.52c.11,3.85,1.1,3.31,2.43,10.21,1.47,7.61.35,8.73,2.27,11.5a22.32,22.32,0,0,0,6.64,5.67c1.28.76,2.68,1.44,3.73,1.94,2.52,1.22,3.15,1.34,5.51,2.43s2.13,1.15,5.34,2.76c4.85,2.41,5.59,2.41,6.16,2.26,2.41-.62,3.37-4.36,3.72-5.67a157.26,157.26,0,0,1,11-27.37c4.08-8.06,9.35-13.09,13.28-16.85,6.11-5.83,6.89-4.61,18-13.12a248,248,0,0,0,22.19-18.46c3.8-3.62,6-6,10.2-7.78,3.18-1.35,5.14-1.38,14.58-2.75,9.69-1.4,8-1.43,12.47-1.94,2.54-.3,5.1-.53,19.76-1.14,11-.46,9.94-.35,11.83-.48,11.61-.86,11.8-2.12,19.76-2.27a155.05,155.05,0,0,1,16,.81c5.88.49,7,.94,8.9.65a6.08,6.08,0,0,1,2.76.16c1,.3,2.33,1,2.27,1.46-.13.86-5,.86-8.43.81-10.53-.17-18.65-1-20.41-1.14-8.59-.78-8.2,1-25.91,2.59s-18.27-.26-30.29,1.62c-8.84,1.39-16.11,2.53-24.3,6.81-10.7,5.58-9.64,9.55-23.65,19.92-12.49,9.24-15.16,7.44-23,15.23-6.9,6.85-10.5,13.87-14.09,20.89-6.65,13-5.22,16.59-12.47,27.86-3.27,5.07-5,6.54-7.45,11.83s-6.65,14.11-3.08,20.4c1.91,3.38,4,2.36,6.64,6.32.69,1,2.52,4,2.75,15.55a85,85,0,0,1-.64,15.07c-.76,5.27-2,9.85-1.46,15.22.27,2.83.43,4.43,1.46,6.32s2.14,2.65,2.1,4.21-1.11,2.06-2.27,3.73c-1.28,1.85-1.66,4.74-2.43,10.52-.35,2.66-.54,4.14-.64,6.32-.32,6.75.87,7.28,0,10.37-1,3.55-2.53,2.69-4.86,7.93-1.58,3.55-1.21,4.67-3.08,7.78-1.73,2.87-2.64,2.91-3.24,4.7-1.1,3.25,1.09,5.51,2.27,9.39,2.14,7.09-2.33,9-1.78,19.6.35,6.79,2.2,6.55,1.78,11.66-.36,4.3-2.4,7.94-6.48,15.23a83.44,83.44,0,0,1-8.75,13c-1.24,1.46-1.21,1.31-5.83,6.15-7.14,7.49-10.75,11.29-12.47,14.09-2.71,4.41-1.51,4.39-5,10.86a88.31,88.31,0,0,1-7.94,12c-6.3,8.24-8,8.14-10,13a45.24,45.24,0,0,0-2.59,11.34c-.1.95-.21,2.35-.53,4.51a34.3,34.3,0,0,1-1.42,7c-.89,2.45-1,1.75-3.24,6.64-1,2.25-1.39,3.29-3.89,9.56-2.58,6.48-2.39,5.91-2.59,6.48-.9,2.63-1.3,4.43-2.91,12.63-1.13,5.74-1.74,8.89-1.79,10.05.78,2.35,1.67,4.36,2.23,6.25,1.06,1.66,2.07,3.07,2,5.73-.16,4.84-3.77,8.7-5.19,10.21-2.64,2.82-3.44,2.09-5.67,4.53-2.6,2.87-2.13,4.57-5.18,13.44-2.41,7-3.36,7.85-3.24,11a39,39,0,0,0,1.3,7.45c.74,2.69,1.12,2.95,1.45,4.37,1.13,4.78-1.87,7.32-2.42,11.5-.59,4.45,2.2,8.21,7.77,15.72,7.36,9.91,9.08,8.06,11.34,13.28,3.83,8.84,1.65,20.48,1.29,22.35a26.68,26.68,0,0,0-.48,10.21,30.82,30.82,0,0,0,2.27,7c4.28,10.58,5.4,9.7,5.83,13.12.8,6.47-3.23,9.27-.81,13.61,1.09,2,2.66,2.71,2.59,4.69-.06,1.74-1.31,2.42-2.75,5.19a23.38,23.38,0,0,0-1.79,5c-3.25,11.2-6.19,13.69-4.53,16.76.92,1.73,2.77,2.69,2.91,5.27a7.32,7.32,0,0,1-.32,2.27c-1.21,5.07-1.66,6.21-1.86,7.53-.42,2.75.49,4.95,1.46,7.29a25.28,25.28,0,0,0,11.82,11.76l.81.39c3.87,1.72,8.11,2.47,8,3.64-.07.78-2,.87-2.19,1.94-.24,1.23,2,2.35,3.89,3.89,4.57,3.77,2.75,6.66,6.32,9.23s5.93.14,11.41,3.16a15.83,15.83,0,0,1,4.86,3.89c3.81,4.66,1.87,8.6,4.54,12.55,1.28,1.9,2.9,2.11,12.15,5.51,11.75,4.31,16.69,3.35,20.08,7.94,2.83,3.81.49,5.94,3.08,13.77a39.71,39.71,0,0,0,8.91,14.57c8.12,8.81,12.83,6.22,19.27,14.26,3.49,4.35,5,8.74,7.46,15.71,3.55,10.17,1.46,10.19,4,15.22,5.72,11.14,15.67,10.48,17.65,20.09.73,3.54.09,7.12,2.43,8.42,2,1.12,4.09-.61,7.94.65,1.51.5,3.14,1,4,2.43,2.11,3.26-2.36,7.71-1,13a6.81,6.81,0,0,0,2,3.42,4.23,4.23,0,0,0,2.26,1.28c2.81.32,4.23-4,8.42-4.22a6.12,6.12,0,0,1,3.72,1c3.1,2.23,1.87,7.58,2.11,14.25.12,3.4.36,10,3.24,15.71,1.67,3.33,6.53,7.39,16.2,15.39,3.31,2.74,6.58,5.51,9.88,8.26,7.69,6.42,8.94,7.44,9.55,9.72,1.42,5.27-2.94,8.45-.64,12.63,1.35,2.47,4.39,4.12,6,3.41.72-.32,1-1,2.43-6.16.79-2.79.67-4.33,1.94-5.18a4,4,0,0,1,2.56-.51c3.13.12,5.41,2.09,6.19,2.61,6.42,4.33,4.89,9.06,11.5,15.88,4.61,4.75,6.58,3.71,8.59,7.61,2.91,5.66,0,10.29,3.07,12.63,2.33,1.78,6.62,1.1,9.07-.81,2.8-2.17,2.12-5.73,4.38-6.31.91-.24,1,.33,5.17,1.6,2.71.83,3.67.9,4.55.83a5.8,5.8,0,0,0,3.4-1.14c2-1.61,1.11-3.78,2.27-5.83,2.34-4.15,10.69-3.83,13.6-3.72,5.35.2,6.45,1.66,11,1a17.27,17.27,0,0,0,7-2.43c4.79-3.08,3.94-6.57,7.78-9.56,4.48-3.49,11.13-3,15.38-1.46,4.49,1.64,6.9,4.68,9.88,8.43a38,38,0,0,1,7,13.93c.86,3.25,2.36,8.93.81,15.55-.34,1.43-2.23,5.29-6,13s-5.25,10.54-3.89,12.8c1.15,1.93,3.09,1.09,5,3.24,2.92,3.26,2.66,9.82-.49,13.28-1,1.1-3,1.88-7,3.4-6.29,2.42-6.64,1.94-8.24,2.85-5.65,3.2-2.72,10-8.44,19.51-1.8,3-5.31,8.78-11.83,11.17-4.9,1.8-7.53.22-11.18,2.92a12.64,12.64,0,0,0-5,10.2c.23,5.14,4,6.59,7.78,12.15,4.89,7.29,2,10.35,7,30.78,1.9,7.87,2.89,11.87,4.86,14.9,1.06,1.62,4.21,6.08,20.09,14.58,13.41,7.17,16.31,6.75,21.86,12.31a45.59,45.59,0,0,1,8.75,12.63,49.53,49.53,0,0,1,4.21,14.74c1.76,11.65-1.13,13.85.81,24.62.76,4.19,1,2.79,3.89,13.77a170.75,170.75,0,0,1,3.89,17c1.61,9.92,2.42,14.88.81,20.08-1.68,5.44-3.61,4.85-6.64,13-3.49,9.31-2.18,13.35-1.79,14.42,1.2,3.25,2.7,3,4.54,6.48,2.2,4.2,1.87,8.26,1.13,16.2a83.86,83.86,0,0,1-3.07,16.68c-2.31,7.89-3.61,8-3.89,12.63-.34,5.64,1.53,6.89,1.13,13.29-.35,5.7-1.85,4.9-2.26,10.52-.41,5.44,1,6.36,1.62,17.34.15,2.63.11,3.25.32,5.67.58,6.64,1.32,6.84,1,9.71a33.79,33.79,0,0,1-1.94,7.78,7,7,0,0,0-.81,3.24c.07,1.63.85,2.33,2.1,4.53a51.8,51.8,0,0,1,2.92,6.81c.83,2.13,1.24,3.2,1.62,4.53,1.19,4.22.46,5.34,1.13,8.1s1.68,2.36,7.13,10.37c2.37,3.49,3.35,5.26,3.89,7.61a12.26,12.26,0,0,1,.32,5.51c-.51,2.53-1.57,2.74-1.78,5.18-.19,2.18.58,3-.16,4.54a4.59,4.59,0,0,1-2.27,2.1c-2.29.91-4.77-.64-5.83-1.29-2.58-1.6-3-3.28-4-3.08-1.48.28-2,3.76-2.11,4.86-.24,1.8-.63,4.63,1,7,1.13,1.65,2,1.18,5,3.73a16.56,16.56,0,0,1,3.88,4.21c.83,1.33,2.09,3.38,1.46,5.51a3.38,3.38,0,0,1-1.29,1.94c-1.44.94-3.42.2-4.38-.16-2.26-.85-3-2.15-3.72-1.78s-.65,1.73-.33,2.75c.6,1.9,2.14,1.77,2.76,3.24,1,2.38-2.35,4.41-1.46,7.13.48,1.45,1.52,1.14,2.59,3.24.9,1.76.34,2.33,1.13,4.37,1,2.5,2.93,4.46,3.41,4.21.23-.12,0-.73-.17-2.1-.46-3-.83-5.26,0-5.84,1.43-1,4.33,1.23,5.67,2.6,2.64,2.68,4.31,7.29,2.59,9.88a4.44,4.44,0,0,1-2.59,1.94c-1.22.26-2-.33-2.27,0-.41.54.89,3.23,3.24,4.21,2.6,1.09,4.19-.85,7.62.33a8,8,0,0,1,2.59,1.45c2.13,1.84,3.6,5.29,2.43,7.46-.18.33-.68,1.1-4.54,2.42-5,1.7-7.62,1.61-7.77,2.6-.13.79,1.46,1.72,4.05,3.24s3.52,1.58,4,2.59c1,1.86-.08,5.09-1.78,5.67s-2.92-2-6.16-1.95a13.54,13.54,0,0,0-3.4,1,30.17,30.17,0,0,0-5.89,2.42c.45.81.7,1.49.54,1.62s-1.08-.29-1.13-.81c0-.26.2-.53.59-.81-.82-1.49-2.39-3.42-3.67-3.24-.23,0-.32.12-1.46,1-.8.6-1.62,1.18-2.43,1.78-1.25.94-3.12,1.2-7.61,1.29-6,.13-7-.26-7.77.65-1.4,1.58-.72,5.16,1,6.16.9.53,1.68-.19,5.18-.49,2.08-.18,2,.06,4.21-.16,1.32-.13,2.48-.33,4.38-.65,1.39-.23,1.44-.27,2.75-.48a17.21,17.21,0,0,1,4.54-.49,7.89,7.89,0,0,1,3.4,1.78,8.5,8.5,0,0,1,3.24,3.57,7.47,7.47,0,0,1,.16,4.53,11.92,11.92,0,0,1-1.56,3.77.69.69,0,0,1,.26.44c.06.72-1.13,1.43-1.29,1.3s.4-.71,1-1.74c-.72-.65-3-1-7.19-2.31-1.71-.53-3-1-5.67-2-5.79-2.06-6.81-2.76-7.29-2.26-.65.68,1,2.24,4.7,9.39.93,1.8,2,3.94,4.05,4.86a14,14,0,0,0,2.59.81c1.67.33,2,.07,2.76.32,1.16.43,1.64,1.7,2.75,5.51,1.26,4.32,1.88,6.5,1.62,7.29-.9,2.72-3.83,3.2-3.73,5.35a3.65,3.65,0,0,0,1.46,2.43c3.08,2.4,7.44-1.58,11,.64,1.78,1.12.91,2.24,3.24,4,2.1,1.64,4.59,2.1,7.28,2.6s3.28.21,5,1a16.23,16.23,0,0,1,3.72,2.43,33.21,33.21,0,0,1,3.73,3.4,44.84,44.84,0,0,1,3.56,4.21c.47.63,1,1.4,3.56,5.51,3.3,5.32,3.11,5.22,4,6.48,1.1,1.47,1.87,2.3,3.24,4.37a26.39,26.39,0,0,1,1.78,2.91c1,1.85,2.85,5.58,1.46,7.13-.78.88-2.28.7-2.75.65a6.17,6.17,0,0,1-3.89-2.59c-1.11-1.33-1.26-2.12-2.59-5-.44-1-1.21-2.48-2.75-5.51s-2.38-4.67-3.08-5.83a53,53,0,0,0-5.83-7.29c-6.49-7.36-7.88-7.94-9.24-7.94-1.86,0-2.12,1.14-4.53,1.14s-3.41-1.2-6.16-2.11c-1.45-.48-5-1.64-7.93-.49-4.41,1.72-4.21,7.18-7.94,7.62a5.32,5.32,0,0,1-4-1.46c-1-1-1.09-1.95-1.62-3.56s-2.07-6.27-5.18-7.62c-2.12-.91-2.86.6-5-.32-2.41-1-1.74-3-5-6.16-.37-.35-1.87-1.47-4.86-3.72-2.69-2-2.79-2-3.08-2.43-2.46-3.28-.34-8.56-.49-8.59s-1.89,3.71-1.62,9.08c.23,4.59,1.69,5.1,1.3,8.42-.53,4.5-3.67,7.58-4.86,8.74-1.92,1.89-3.61,3.54-6.16,3.89-4.29.59-5.85-3.25-11.33-2.91-2.39.14-4.87,1-4.86,1.78,0,.5,1.2.83,1.13,1.13-.13.53-3.72-.71-4.86.65-.9,1.07-.13,3.62,1.13,5.18s2.82,1.79,2.76,2.6-1.81.85-3.73,2.75a4.72,4.72,0,0,0-1.46,2.1c-.26,1,.17,1.61,1,3.89a57.18,57.18,0,0,1,1.45,6c.23,1,.42,2,0,2.27s-1.09-.57-2.1-.48c-1.31.1-2.2,1.73-2.75,2.75-1,1.83-.55,2.27-1.46,3.89-.57,1-1.44,2.54-2.92,2.91-1.79.45-2.75-1.24-4.37-.64-1.24.45-1,1.68-2.27,1.94-1.61.34-2.52-1.2-4-.81a3.25,3.25,0,0,0-2.27,3.08c.1,1.31,1.42,1.42,2.6,3.4.76,1.29,1.63,3.66.64,4.7a2.8,2.8,0,0,1-3.07.16c-.88-.46-.84-1-2.11-2.59-1.08-1.31-1.81-2.21-2.59-2.11-.94.12-1.57,1.62-2.11,2.92s-.44,1.88-1,2.26c-1,.73-2.23-.39-3.24.33-.48.34-.35.69-1,2.43s-1,1.83-1.3,3.07a9,9,0,0,0-.32,3.41c.24,2.07,1.19,2.61.81,3.88-.18.61-.7,1.5-1.46,1.62-1.33.23-1.78-2.16-3.72-2.59s-3.53,1.86-4.86,1.14c-1-.56-.42-2.1-1.62-2.92s-3.07-.28-4.21.65a3.25,3.25,0,0,0-1.3,1.94c-.22,1.31.83,1.77.65,3.08s-1.34,1.66-1.14,2.43,1.95.74,2.27,1.78c.08.25,0,.4-.48,1.78-.82,2.22-.93,2.49-.81,2.92.22.82.93.88,1,1.62a2.31,2.31,0,0,1-1,1.62,8,8,0,0,1-3.08,1.62c-3.73,1.32-4.08,1.38-4.38,1.13-.66-.56-.26-2.06,0-3.08.72-2.73,2.2-3.63,1.79-4.37s-2.8-.82-4,.32c-.35.32-.61.73-1.14,2.6-1,3.39-.73,4.23-1.45,4.69-1.19.76-3.74-.27-4-1.62s1.45-1.72,1.78-3.4c.62-3.23-5-5.65-4.38-7.77.47-1.57,3.72-.82,8.75-3.24,3-1.44,5.64-3.53,5.35-4.21-.22-.51-1.81.34-4.22-.17a9,9,0,0,1-6-4.37c-.95-1.84-.36-2.79-1.46-3.72-1.6-1.37-4.31-.59-4.37-1s3-.84,3.08-1.78-2.32-.82-4-2.75-1-4.08-2.59-5-2.84.67-4.38-.17c-2.23-1.21-1.25-5.47-2.91-6-1-.31-1.56,1.16-4.05,2.11-2,.75-2.52.16-4.7.65a12.86,12.86,0,0,0-6.48,3.88,15.81,15.81,0,0,0-3.08,5.35c-.55,1.83-.42,2.86-1.29,3.4s-1.85-.25-4.37-.49c-1.6-.15-3.78-.35-4.86.81-1.32,1.41-.47,4.2-.17,5.19,1.07,3.48,3.29,4.3,2.92,6.31-.19,1-.8.9-2.27,2.92-1.64,2.26-1.17,2.86-2.91,5.83s-2.61,3.18-2.43,4.37c.24,1.62,2.07,1.6,3.07,3.73,1.11,2.36.23,5.29-.32,5.34-.33,0-.32-1-1.13-1.78-1.74-1.74-6-1.47-7.29.49-.76,1.13.12,1.87-.65,3.24-1.06,1.9-3.15,1.19-4.37,3.08-.93,1.43-.67,3.28-.49,4.53.15,1,.3.93.81,2.92,1,3.79.54,4.67.32,5a2.44,2.44,0,0,1-1.62,1.13c-1.2.15-2.18-1-2.43-1.29-1-1.15-.81-2.17-1.29-2.27-.67-.15-1.74,1.63-2.43,3.4-1.23,3.12-.65,4.53-1.78,8.42-.58,2-.88,3-1.78,3.73-1.93,1.6-4.89,1.08-5.51,1-2.08-.36-2.17-1.15-4-1.3-1.65-.12-2.13.44-4.37.81a11.77,11.77,0,0,1-5.51,0c-3.15-1-2.93-3.51-5.83-4.37-2.12-.63-4.07.18-6,1s-5.07,2.1-6,5a8.08,8.08,0,0,0,.81,5.84,7.43,7.43,0,0,0,2.11,2.75c2.4,1.86,4.35.58,7,2.43.53.38,2.26,1.6,2.11,2.91-.21,1.8-3.88,3.31-7.13,3.08-2.46-.17-2.79-1.2-7.29-2.75-3.52-1.22-5.32-1.81-7-1.14-1.94.8-2.92,2.77-4.22,5.35a10.36,10.36,0,0,0-1.45,4.37c-.1,1.84.5,2.63,0,3.89a5,5,0,0,1-2.76,2.43c-3.88,1.75-6.36-.8-9.88.32-1,.34-1.3.72-5.18,5-7.38,8.18-8,8.51-8.75,10.52-1.17,3.16-.17,3.72-1.78,8.1-.26.72-.52,1.4-.78,2a4.46,4.46,0,0,1-.07,2.1,1,1,0,0,1,.22.72c-.13,1.68-.33,3.34-.57,5l324.35,0,69.32,53.62,85.2-8.59q7.22-22.67,14.42-45.35,5-20.33,10-40.66l66.57-14.09,27.38-5.83a26.29,26.29,0,0,0,10.69-15.23q15.55-36.43,31.1-72.89,6.79-12,13.61-24l40.65,12.31c5-3.63,6.84-4,7.45-3.4.41.36.19,1,.33,1.13,1.2,1.2,36.65-32.75,76.29-71.43a58.08,58.08,0,0,1-5.83-11.17c-1.38-3.53-2.28-6.87-4-16.85-1-5.52-1.29-9.08-2.92-18.3-1-5.93-1.54-8.11-3.4-10.37-2.44-3-5-3.35-5.83-6.32-.45-1.55,0-2.22,1.3-7.12,1.54-6,2.31-9,2.1-11.83-.28-3.74-1.49-4.17-1.3-7.61s1.38-4,2.11-7c1.76-7.21-3.65-9.92-2.27-17.65.7-3.89,2.27-4.36,2-7.45-.41-3.88-3.07-4.85-5.35-8.59-4.82-7.91-2.26-18.88,1.94-24.94,1.28-1.85,2-2.89,3.41-3.24,4.62-1.19,7.4,7.69,15.87,9.72.86.2,4.68-.24,12.31-1.14,6.8-.79,9.65-1.35,12.8-3.08,2.61-1.43,5.27-2.89,5.67-5.34C2058.77,1610.79,2053,1605.78,2047.43,1604.13ZM1337.64,35.7c1.45-1,4.07.95,4.53,1.29,1.75,1.29,2.07,2.5,3.41,4.38,2,2.82,3,2.58,5.67,5.34s2,3.58,5.18,7.94c3.79,5.22,6.74,6.84,6.15,7.94s-3.5.82-5.5-.49c-1.14-.74-1.46-1.52-2.43-2.92-1.71-2.43-2.13-2-6-6.15a37.93,37.93,0,0,1-4.69-5.51c-1.78-2.79-1.57-3.7-3.24-5.18s-3.12-1.54-3.73-3.08C1336.51,38.05,1336.7,36.34,1337.64,35.7Zm29.8,45.19c0,.24-.45,3.68-1.78,3.89s-2.34-3.56-4.21-3.24a4.19,4.19,0,0,0-2.27,1.78c-1.37,1.7-1,2.59-1.94,3.4-1.36,1.15-4.1,1-5.83-.48-1-.9-2.16-2.68-1.62-4s2.37-.94,5.18-3.08a8.31,8.31,0,0,0,2.75-3.24c.32-.72,1.14-2.6.33-3.73-1.06-1.48-4.37-.87-6.32,0a12,12,0,0,0-3.56,2.76c-1.82,1.74-3.19,3-3.89,5.18a17.26,17.26,0,0,0-.49,3.89c-.25,3.86.19,4.27-.32,5.34a5.83,5.83,0,0,1-6.64,2.76c-3.38-1.09-3.84-5.33-3.89-5.83-.15-1.58.55-3.18,2-6.32,1.65-3.72,2.48-5.58,4-6.64a34.45,34.45,0,0,1,5.19-2c3.15-1.07,4.08-1.27,4.21-1.94.2-1-1.74-2.53-3.56-3.24-3.81-1.49-6.23.68-8.43-1-1.51-1.14-2.22-3.57-1.45-4.54.59-.75,2-.51,9.07,1.46,7.59,2.11,8.76,2.59,10,3.24a37.88,37.88,0,0,1,6.32,4.21c5.23,4,6.16,6,6.47,6.8A9.27,9.27,0,0,1,1367.44,80.89Zm27.43,19.37a6.3,6.3,0,0,1-1.83,1.53c-1.63.65-3.81-.3-5-1.46-2.45-2.35-1.29-5.88-2.59-6.32-1.75-.59-3.7,5.95-7.29,6.16-3.94.22-8.66-7.3-7-10.37a7.28,7.28,0,0,1,2.43-2.11,7.74,7.74,0,0,1,3.56-1.45,7.62,7.62,0,0,1,3.08.48,27,27,0,0,1,5.18,2.27,13.7,13.7,0,0,1,3.24,1.94c1.52,1.87.31,3.56,1.3,5.67.88,1.89,3,3,4.91,3.66a1.82,1.82,0,0,1,1-.49,2.67,2.67,0,0,1,2.33,1C1398.15,101,1396.62,100.84,1394.87,100.26Zm4.64-7.71c-1.86,3-2,4.4-2.75,4.38-1.15,0-1.14-3.4-3.89-8.1a16.13,16.13,0,0,0-3.4-4.54c-1.33-1.17-2-1.31-7.45-4.53-1.54-.92-1.89-1.15-2.1-1.3-2.18-1.46-2.3-2-2.92-1.94-1.74,0-2,4-4,4.37a3.59,3.59,0,0,1-3.4-2.11c-1.17-2.48,1.79-4.63.81-7.61-.73-2.22-3-3-2.92-3.24.24-.38,7.26,2.53,14.9,8.1,3.69,2.68,5,4.14,8.59,5.83,4.52,2.13,6.64,2.92,6.64,2.92,3.41,1.27,4.89,1.48,5.18,2.59S1401.64,89.19,1399.51,92.55Z"/></g></g></svg>