<svg xmlns="http://www.w3.org/2000/svg" viewBox="0 0 2334.58 1270.83"><g id="Layer_2" data-name="Layer 2"><g id="El_Salvador" data-name="El Salvador"><path d="M2165.09,1044.39c-1.29.73-1.85,2.21-2.92,5.15-1,2.7-1.06,3.89-.84,4.87a5.48,5.48,0,0,0,.7,1.67,4.77,4.77,0,0,0,1.39,1.4c1.77,1.06,5.87-1.67,7.66-4.46a2.69,2.69,0,0,1,1.25-1.25c1.39-.54,2.42,1,3.48.55,1.41-.56,1.38-3.92,1.12-5.71-.21-1.39-.31-2.08-.84-2.64-.38-.4-1.21-1-8.49-.14A6.14,6.14,0,0,0,2165.09,1044.39Z"/><path d="M2259.78,1113.46c-2.45.7-3.68,1-3.76,1.11-4.2,3.43,1.58,15.55-.69,20.75-.11.25-.47,1-.14,1.53.57.88,2.49-.13,5.71,0,2.94.12,3.44,1.06,5.29.56.14,0,2.89-.84,3.48-2.93.41-1.47-.42-3-1.67-5.29-1.08-2-1.62-2.23-1.53-3.06.13-1.26,1.46-1.61,4-3.48,3.3-2.42,2.72-3,5.57-4.88,2.52-1.63,3.7-1.61,4.17-2.92.55-1.51-.24-3.7-1.53-4.18-.53-.2-1.18-.12-5.57,2.51-2.55,1.52-3.39,2.13-4.32,1.81-1.16-.41-.83-1.71-2.08-2.51C2265.83,1111.9,2264.77,1112,2259.78,1113.46Z"/><path d="M2280,1140.75a4.61,4.61,0,0,0-3.2,5,4.66,4.66,0,0,0,2.37,3.2c.17.1,2.88,1.6,5,0a4.38,4.38,0,0,0,1.53-4.31C2285.22,1142.26,2282.63,1140,2280,1140.75Z"/><path d="M2256.44,1178.21a13.54,13.54,0,0,1,6.27,3.48c2.2,1.84,1.8,2.26,6,7.38,2.82,3.46,3.77,4.21,3.76,5.85,0,1.82-1.21,3.38-2.23,4.73-1.71,2.25-2.44,1.88-3.34,3.48-1.58,2.79.14,4.76-1.4,6.55-.91,1.06-2.37,1.22-5.29,1.53s-4.68.5-6.68-.14a11.2,11.2,0,0,1-7.24-7.38c-1.07-4,1.69-5,.55-9.47-.81-3.2-2.61-4.28-2.23-7.24a13.42,13.42,0,0,1,1.26-3.76,11,11,0,0,1,2.09-3.2C2250.89,1177.15,2255.8,1178.08,2256.44,1178.21Z"/><path d="M2302.39,1211.63c2.3-.51,7.8-1.72,12.26,1.39,3.16,2.2,4.13,5.41,6,11.56a40.56,40.56,0,0,1,2,10.86c.19,5.6-1,6.77,0,11.14,1.25,5.45,3.93,7.14,4.59,7.52a4.19,4.19,0,0,0,3.34.7c2.22-.8,2.25-4.51,2.93-4.46.92.06,2,7,0,7.94-1.48.68-3.47-2.45-6-1.67-1.15.35-1.45,1.22-2.37,2.08-2.45,2.3-4.87,0-8.91,1.54-2.21.87-3.29,2.13-3.9,1.67-.87-.66,1-3.44-.14-4.88-1-1.2-3.53-.64-3.9-.55-3,.67-3.63,3-5.43,2.92s-3.11-2.69-3.76-4c-2.19-4.52-.23-6.29-2-10.72-1.55-4-3.53-3.55-4.45-7.38-.22-.9-1.22-5.08,1-8.22,1.49-2.13,3.48-2.39,3.48-3.89s-2-1.74-2.78-3.9c-1-2.59.74-5.35,1-5.71C2297,1212.81,2300.07,1212.14,2302.39,1211.63Z"/><path d="M2311.31,645.57a36.57,36.57,0,0,1-1.81,7.38c-2.26,6.38-4,5.83-5.3,10.86-.78,3.09-.85,6.13-3.2,8.5a11.75,11.75,0,0,1-1.67,1.39c-2.34,1.51-3.92.93-5.29,2.09-.7.58-.79,1.14-1.53,3.76-2.16,7.56-3,8.28-3.48,8.63-2.05,1.3-4.09-.28-4.88.84-1.09,1.53,2,5.66,4.32,8.77,2.81,3.76,3.62,3.88,4.32,6a13,13,0,0,1-.14,7.66c-.75,2.39-1.42,2.25-3.07,5.84s-1.27,4.28-2.5,6.69c-1.09,2.16-2.14,3.11-5,6.13-5.33,5.61-8,8.4-9.88,11.41a33.12,33.12,0,0,0-3.62,8.36c-2.88,9.19-1.91,16.36-1.26,28.13.86,15.5-.32,12.14.56,21.72,0,0,1.81,19.59-1,30.36a7.61,7.61,0,0,1-2.23,4c-1,.86-1.51.74-3.76,2a13.6,13.6,0,0,0-3.9,2.64c-.91,1-1.35,2.3-2.23,4.88-1.32,3.92-1.11,4.8-2.37,7-1,1.65-1.16,1.32-1.81,2.64-1.51,3.11-.07,4.46-1.39,6.83a11.33,11.33,0,0,1-4.18,3.76c-1.69,1-2.48,1.11-2.78,2-.54,1.53,1.72,2.46,1.81,4.73.09,2.07-1.74,2.69-3.34,6a19.14,19.14,0,0,0-1.54,5.57c-.79,4.43-1.34,7.61.28,10.3,1,1.63,1.86,1.61,2.23,3.07.56,2.23-1,4.43-2.09,6-3.41,4.73-7,5.29-6.82,7.52.09,1.5,1.83,2.73,3.06,3.2,2.28.86,3.6-.72,5.71.28a4.38,4.38,0,0,1,2.51,3.2c.16,1.72-1.42,2.58-1,3.62s2,1.11,3.62,1.25c3.62.33,4.2-.76,6-.14,2.37.84,2.11,3,4.46,3.62a5.22,5.22,0,0,0,4.59-1.11c1.84-1.62.79-3.46,2.51-5.29a6,6,0,0,1,6.82-1.25c1,.58,1.42,1.5,2.23,3.34,1.81,4,1.21,6,2.79,7,1.25.72,2.85.14,3.62-.14,2-.72,2.15-1.93,4.59-3.62,1.65-1.16,2.48-1.72,3.62-1.81,1.88-.14,2.62,1.18,7.24,4.73,3.41,2.65,4.11,2.77,4.6,4,.69,1.79-.05,3.14-1,6.69a41.21,41.21,0,0,0-1.53,8.91c0,4.27,1.65,4.41,3.34,11.14a50.15,50.15,0,0,1,1.4,12.11,38.09,38.09,0,0,1-.84,10c-.95,4-2,8.73-4.87,9.47-2.44.63-3.69-2.3-8.22-2.23-1.16,0-3.36.05-4.73,1.53s-.51,3.28-2,4.74c-1.84,1.83-5.34,1.11-6,1-2.92-.6-3.23-2.13-5.57-2.64-1.76-.4-2.92.21-7.66,2.36-9.21,4.2-10.1,4.32-10.86,5.85-1.63,3.25.28,6.78-1.25,7.52-.75.35-1.33-.39-4.6-1.53-2.32-.81-3.5-1.21-4.59-.84-1.75.61-2.44,2.72-2.79,3.63-2.48,6.56-9.56,11.25-10.86,12.11-5.36,3.55-11.49,3-16.85,2.51-4.83-.44-5-1.44-17.13-4.88a16.27,16.27,0,0,1-4.46-2c-1.67-1-3.1-1.95-3.75-3.34-1.35-2.88,1.92-5,4.31-12.67,1.35-4.32,1-5.83,2.79-7.38s2.83-.79,6.82-2.23a21.93,21.93,0,0,0,8.22-4.87c1.46-1.47.6-1.12,4.59-6.27,1.53-2,2.6-3.25,2.23-3.76s-2.07,0-2.79.28a11.57,11.57,0,0,0-5.43,3.48c-2.87,3.39-1.53,6.06-4.17,7.8a6.7,6.7,0,0,1-3.9,1c-2.25-.07-2.88-1.18-5.29-1.67-.86-.18-3.6-.74-5.44.42-2.43,1.56-1,4.73-2.92,9.89-.77,2.11-2.65,4.52-6.41,9.33s-4.24,4.82-6.4,7.8-2.16,3.62-6.27,11.27c-6.38,11.89-7.15,11.72-7.38,14.63-.35,4.13,1,6.89-1.11,10.3-1.37,2.23-2.9,2.58-2.93,4.18,0,2.92,4.9,3.48,5.85,7.24.82,3.25-2.43,4.59-2,7.94.33,2.34,2.14,3.11,10.17,8.63,6.36,4.39,7.47,5.43,12.25,8.36a41.21,41.21,0,0,0,7,3.76c3.82,1.39,5.22.9,10,2.5,3.48,1.16,5.22,1.72,6.82,3.2,2.42,2.21,2.23,4.11,4.6,8.36a44.14,44.14,0,0,0,5,6.82c5.34,6,10.42,6.76,21.73,14.07a31.05,31.05,0,0,1,6.12,6c1.49,1.81,2.21,3,1.81,3.75-.51,1-2.39.19-4,1.12-2.42,1.34-2.19,5.38-2.65,6.4a100.36,100.36,0,0,1-11.42,19.08c-12.81,16.32-27.62,19.94-32.72,29.94a9,9,0,0,1-3.21,3.9c-3.11,2-5.61.16-12.39,1A21.44,21.44,0,0,0,2170,1197c-2.74,1.16-3.79,2.41-7.8,6-5.36,4.76-8.06,7.13-10.59,8.08-3.34,1.25-3.69.21-8.49,1.81a45.26,45.26,0,0,0-7.94,3.62c-5,2.74-4.8,3.44-7.66,4.46-4.73,1.69-6.33.11-8.07,1.81-2.21,2.16,0,5.08-1.53,11.56-1,4.29-2.23,3.89-2.79,7.24-.72,4.34.35,10.46,4.32,13.92,3.41,3,5.94,1.3,10.16,5,1.07.92,4.48,3.94,3.76,6.54-.9,3.25-7.73,3.71-8.49,3.76-2.88.16-2.48-.63-8.5-1.11-2.53-.21-3.92-.17-7.24-.56-1.16-.14-2.36-.28-3.9-.56-4.29-.79-5.24-1.55-8.49-2.23a36.25,36.25,0,0,0-7.8-.55c-5.15,0-5,.53-8.63.41-6.76-.23-7.43-2.22-11-1.11-2.6.81-4.25,2.51-6.13,1.67a5.73,5.73,0,0,1-2.09-2,13.45,13.45,0,0,1-1.81-3.62c-.44-.93-1.74-2.74-7.94-3.76-5.82-1-7.63.19-13.78.14-7.54,0-7.08-1.76-15.88-1.95-5.29-.11-6.52.47-11.28-.14-4.59-.6-4.82-1.32-9.19-1.81-6.68-.74-6.43.93-11.83,0-6.55-1.11-9.82-1.67-11.28-2.23-.58-.21-2-.79-3.07-.14-1.25.77-.76,2.44-1.53,3.63-1.72,2.62-8.33.83-16-.28-6.73-1-5-.1-13-1.12-12-1.55-16.25-3.59-19.5-.83-1.74,1.48-1.27,2.76-4,5.15-1,.86-3.76,3.25-7.24,3.34-3,.07-4.27-1.67-7.1-2.92-4.9-2.16-7.31.39-16.85,1.11-3.66.28-8.35-.05-17.68-.7-7.24-.51-9.33-.92-12.4.42-2.13.93-3.87,2.32-7,2.37-2.18,0-2.41-.65-5.29-.84a16.26,16.26,0,0,0-7.38,1c-3.13,1.3-3.34,2.88-5.85,3.34s-4.32-.58-5.57-1.11c-5.36-2.35-11.37-1.7-23.39-.42-5.25.56-8.06,1.3-10.73-.56-2-1.34-2.18-2.95-4.45-4-2.69-1.27-5.15-.41-7.8,0-4.41.7-4.57-.62-14.76-1.95-5.39-.69-4.81-.27-16.71-1.25-8.26-.67-7-.76-12-1.11-11-.77-16.52-1.16-21.72-.84a35.21,35.21,0,0,1-10.44-.83c-2.35-.56-5.76-1.4-6-3.07-.19-1.46,2.16-3,4.45-4.45,3.72-2.39,6.13-2.56,7.11-4.88.53-1.25.07-1.74.69-2.36,1.91-1.91,7.68,1,8.5,1.39,3.27,1.67,4.89,3.55,5.29,3.2s-.35-2.55-2.09-3.9c-2.14-1.67-4.27-.81-8.29-2.83-1-.49-1.37-.79-1.6-1.21-1.23-2.11,1.44-5.52,1-5.84-.3-.21-1.51,1.2-2.79,2.36-.69.63-5.54,4.9-10,4.18-2.32-.37-1.93-1.67-5.3-3.2-3.66-1.67-4.78-.44-9.6-1.81-2.58-.75-5.85-1.67-8.08-4.46-1.74-2.18-1-3.2-2.51-6.13-2-3.87-6.54-8.49-10.3-7.79-3.18.58-3,4.45-7.38,6-2,.7-5.34,1-7.24-.69-2.42-2.21-.28-5.78-2.51-7.52s-6.75,0-9,1.39-2,2.27-4.18,3.48c-3.11,1.72-6.36,1.42-9.88,1.12-3.25-.28-4.9-.42-6.41-1.26-3.78-2.06-3.83-5.82-6.68-11.28-2.26-4.29-4.81-6.82-9.89-11.83-1.7-1.67-5.36-4.69-12.67-10.73-6.25-5.15-7.13-5.75-8.5-7.79-2.83-4.27-2.53-7-5.43-8.5a8.16,8.16,0,0,0-8.35.84c-1.91,1.48-2.49,3.55-3.07,5.71-1.2,4.43.21,5.59-.69,10.3-.44,2.3-1,5.5-3.62,7.94-1.86,1.76-3.9,2.32-6.69,3.06-1.18.33-1.37.28-9.19,1-4.11.37-5.45.51-7.38-.14a12.58,12.58,0,0,1-3.9-2.23c-3-2.48-3.71-5.27-5.29-8.49-.3-.61-2.34-3.44-6.41-9.06-7.21-9.95-8.19-11.09-10.16-12.39a22.86,22.86,0,0,0-8.36-3.48,68.23,68.23,0,0,0-13.36-1,6.3,6.3,0,0,1-4.18-.83c-1.37-1-1.44-2.35-2.79-2.79-1-.32-1.53.24-3.06.56-2,.42-3.5,0-6.41-.7-3.41-.85-3-1.34-5.29-1.81-4.43-.9-5.82,1-9-.41-1.67-.72-1.37-1.26-3.76-2.37-2-.91-4-1.86-5.71-1.11s-1.67,2.66-3.2,2.92-3.16-1.58-3.48-2c-1.74-2.07-.86-3.55-2.51-5.57-1.11-1.35-3.08-2.65-4.31-2.09s-.61,2.76-2.23,3.9c-.91.63-1.42.14-3.9.56-2,.35-3.27.55-4.18,1.53-1.25,1.37-1.58,3.85-.56,5.15.89,1.14,2.39.86,2.65,1.81.19.7-.49,1.28-1.25,2.37-1.77,2.53-1.16,3.8-2.23,5.15s-2.6,1.44-7.66,1.53c-7.61.14-8.82-.16-12,.14-6,.56-5.38,2-9,2-7.94-.16-11.37-7-15.45-5.15-1.88.83-1.54,2.46-5.44,5.29-1.94,1.42-2.92,2.14-4.31,2.23-3.34.23-5.2-3.16-7.24-2.37-1.07.42-1.47,1.7-1.81,2.79-1.12,3.57-.82,9.63,3.2,12.39,4.34,3,10.81.6,11.28.42a15.7,15.7,0,0,1,4.32-1.26,12.65,12.65,0,0,1,4.73.28c2.51.7,2.81,1.93,6.54,4.74,3.07,2.32,5.55,4.13,7.94,3.48,1.09-.3.91-.77,2.51-1.53.67-.33,4.2-1.93,7.24-.56,2.32,1,2.85,3.18,4.18,2.92,1-.18,1.48-1.5,1.67-1.95.65-1.55,2.67-4.31,14.34-8.49,10.33-3.71,9.52-1.83,18.1-5.15,3.55-1.37,7-3,12.4-3.62a33.88,33.88,0,0,1,6.68-.14c3.48.28,8.47.69,12.12,4,1.64,1.51,1.44,2.16,3.48,5.15,2.85,4.18,5,5.52,8.63,9,6,5.9,4.48,6.59,11.7,14.48,4.9,5.34,8.93,8.68,8.35,9.47-.28.4-1.48-.23-3.34-.69-4.41-1.12-5.92.3-12.11.55a54.58,54.58,0,0,1-11.7-.83c-3-.56-4-1.12-6.41-1-1.41.07-2.39.35-3.2-.28-1.23-.92-.32-2.5-1.25-4.17s-3.74-2.16-9.33-3.07c-3.07-.48-4.25-.46-5.29.28s-2,2.32-1.54,3.06c1.07,1.75,8.27-3.2,12.54-.27,2.13,1.46,1.06,3.2,3.2,5.43,3.16,3.32,7.36,1.51,15.6,3.06,5.59,1,4.61,2.07,11.83,3.9,7.71,1.95,8.59.74,15.74,2.37,6.54,1.48,11.37,3.76,17,6.4,9.47,4.46,8.72,5.6,13.64,6.83,7.82,2,11.19-.58,14.9,2.64,3.14,2.72,1.77,5.39,5.85,8.91.93.82,4.13,3.58,8.36,3.48a15.81,15.81,0,0,0,6.82-1.94c2.18-1.21,3.48-2.63,4.73-2.09a2.25,2.25,0,0,1,1.26,1.81c.14,1.41-1.39,2.11-1.12,2.92s2.67.88,3.58,1.07a3.56,3.56,0,0,0-.93.74c0,.09,1.28-.28,1.25-.56,0-.09-.11-.13-.3-.18,1.77-1.16,5.69-3.27,7-2.18s.16,6.8-3.21,8.49c-1.74.88-3.29.35-7.79-1,0,0-8.66-2.53-17-4.46-4-.93-6.25-1.07-9.05-1.67-13.65-2.88-21.7-6.2-31.2-9.19-4.27-1.35-12-3.13-27.57-6.69-14.41-3.29-26.15-5.8-45-9.74-23.95-5-35.95-7.52-46.51-9.61-33-6.52-49.48-9.8-58.9-11a282.93,282.93,0,0,1-29.52-5c-10.72-2.43-18.71-5-20.61-5.57a297,297,0,0,1-31.75-12.25c-3-1.37-4.64-2.27-6.15-3a5.14,5.14,0,0,0,1-.67,13.05,13.05,0,0,1-3.11-2l-5.85-5.1-2.07-1.79a12.86,12.86,0,0,1-2.43-2.86c-3.3,5.06-4.18,6.62-5.9,7.13a1.33,1.33,0,0,1-.37.07c-1.93.39-3.36-1.19-7.66-3.55-9.77-5.34-11.51-2.42-18.61-7-4.41-2.85-5.73-5.43-11.26-8.68a49.45,49.45,0,0,0-5.45-2.92,24.54,24.54,0,0,1-5.22-2.39,7.59,7.59,0,0,1-2.39-2.21,5.23,5.23,0,0,1-1-4.15c.14-.47.28-.93.65-1.07.63-.21,1.37.88,3.35,2.83a11.48,11.48,0,0,0,3.34,2.72,7.67,7.67,0,0,0,3.34.62c1.83,0,4.8-.69,5-2,0-.23,0-.68-3.16-3.44-2.22-2-3.34-2.64-3.48-4a4.41,4.41,0,0,1,.28-1.81c.84-2.71,2.55-2.92,3.2-4.87.44-1.32,0-2.74-1-5.57-.16-.51-1.39-4.18-2.09-4s.12,2.67-1.11,5.71c-.33.79-1.63,4-3.48,4.18-2.16.18-2.81-3.95-7.39-8.77-1.9-2-4.59-4.85-8.77-6.13-4.69-1.44-6.38.6-10.16-1.25-3.39-1.68-2.32-3.46-6.13-6.13-5-3.55-9.45-2.18-11.42-5.85-.23-.42,0-.12-1.11-3.34s-1.63-4.34-1.12-5.57c.35-.84.72-.68,1.26-1.67a5.51,5.51,0,0,0,.14-4.6c-.77-1.67-2.74-3.41-4.32-2.92-1.32.39-1.77,2.13-2.23,3.9-.37,1.44-1,3.62.14,4.73s2.27.16,3.06,1.11.24,2.44-.55,4.88c-.65,2-1,3.06-1.54,3.48-1.3,1-2.8.23-9-1.11-4.15-.89-4.8-.82-5.43-1.68-1-1.32-.23-2.66-1.11-6.82-.19-.88-.63-2.92-1.12-2.92-.69,0-.18,4-2.64,6.12a6.62,6.62,0,0,1-3.62,1.4,16.6,16.6,0,0,1-8.77-1.12c-7.5-2.92-8.8-5.08-14.35-7.38-6.57-2.74-13.57-3.36-13.92-2.36-.1.3.3,1,6.26,4.17a186.13,186.13,0,0,0,21.45,9.47c14.36,5.64,14.23,5.92,18.52,7.1,8.49,2.35,9,1.26,14.2,3.35,7.52,3,6.59,5.31,16.85,11.14a160.64,160.64,0,0,0,16.43,8.35c4.48,1.83,8,2.93,8.08,4.87s-3.18,3.88-5.57,4.6c-7.94,2.41-14.3-6.29-28.13-14.9-12.18-7.59-11.49-3.48-34.25-14.9-10.56-5.29-13-7.31-24.37-12.53-6.73-3.09-11.82-5.09-20.06-8.36-13.76-5.45-18.21-6.66-29.52-11.56,0,0-5.92-2.55-12.81-5.84-25-12-47.27-27.44-76-43.45-.56-.3.23.14-39.27-20.19,0,0-20.91-10.77-52.22-26.6-4.11-2.09-9.54-4.83-16.85-8.35-9.79-4.74-16.13-7.57-28.82-13.23-12.23-5.46-15-6.55-19.08-7.66-7.8-2.14-12.14-3.34-18.1-2.79-8.26.77-11,4-19.08,3.21-2.11-.21-1.42-.4-9.47-2.37-7.7-1.9-8-1.65-16.43-3.62-6-1.42-8.59-2.16-16.43-3.9a67,67,0,0,0-7.38-1.39c-6.43-.75-7,.39-12.12-.28-5.89-.77-6.47-2.49-11.83-2.65-3.09-.09-3.35.47-8.08,1a67.91,67.91,0,0,1-16.29-.14c-6.9-.95-7.5-2.35-12.54-2.09-3.94.21-4.48,1.11-8.07,1-5.32-.18-5.8-2.2-10.72-2.64-5.41-.47-5.81,1.88-12.26,1.81-4.66-.05-4.06-1.28-10.3-1.67a29.92,29.92,0,0,0-12.4,1.25c-2.27.79-2.16,1.14-4.17,1.67-3.72,1-5.55.21-9.89.28-5.52.07-5.62,1.37-9.19,1.11-4.2-.32-5.87-2.27-10.17-4.45-7.91-4-9.68-1.21-22.42-5.29-6.66-2.14-6.1-2.9-12-4.46-4.13-1.09-7.31-1.48-16.43-2.37-16.25-1.55-14.65-1.09-17-1.53-2.79-.51-9.56-3.36-23-9.05-8.17-3.46-13.6-5.83-21.86-7.66-2.58-.58-4.55-.9-5.85-1.11-10.72-1.77-11.91-.44-24.93-1.53-4.73-.4-7.93-.86-12.25.41-2.65.79-2.9,1.37-5.43,2.23-5.06,1.7-8.66.84-14.62.42-7.8-.53-6.18.63-16.16.28-7.56-.26-8.93-1-17.4-1.12-3.46-.07-6.34-.11-10,.14-7.73.56-9.61,2-17.13,3.07-9.79,1.41-15.55,2.25-22.42,0-2.8-.93-7.54-2.49-11.28-6.83-3.59-4.17-4.59-9-6.4-17.82-1-4.92-.6-5-1.81-10.58-.91-4.25-1.65-6.53-3.48-13-3.83-13.42-3.14-12.21-3.9-14.07-2.88-6.94-7.34-11-14.62-17.41a144.25,144.25,0,0,0-18.66-13.78c-12.28-7.82-21.17-12-42.89-23.53-3.74-2-7.22-4.53-11.14-6.13a30.89,30.89,0,0,1-6-3.48c-2.2-1.63-2.85-2.56-3.2-3.48-.61-1.61-.28-3.07-.84-3.21s-.9,1.07-2.09,1.81a5.69,5.69,0,0,1-4.31.28c-5-1.16-13.16-7.26-19.5-10.72-7.54-4.13-8.21-2.16-14.34-6.27-4.18-2.81-6.13-5.22-10.31-6a22.32,22.32,0,0,1-6.4-1.67c-.91-.41-1.46-.74-3.48-1.67s-2.14-.88-3.48-1.53c-2.53-1.23-2.42-1.51-4.18-2.23s-2.9-.81-2.93-1.25,1.14-1,2.23-1.11c1.83-.19,3.44.92,4.74,1.81.53.37.67.51,1.78,1.3a13,13,0,0,0,2.12,1.34c1.16.58,2.06,1,2.5.7.72-.56-.14-2.9-.83-4.32a8.17,8.17,0,0,0-2.09-2.64,9,9,0,0,0-6-1.81c-3.16.11-3.83,1.64-7.66,1.94a18.82,18.82,0,0,1-3.48-.13c-5.92-.79-11.74-6.5-13-7.66-3.16-3-3.16-1.74-24.65-11.28-13.81-6.13-11.49-5.62-19.35-8.91a288,288,0,0,0-28.13-10.45A159.74,159.74,0,0,1,7.11,697c-4.73-2-7.29-3.22-7.1-4s2.67-1.16,4.73-.7c1.51.32,1.51.86,3.21,1.25,1,.26,3.08.75,4.59-.28,1.26-.85,1.23-2.15,2.09-2.22.63-.05,1,.6,2.09,1.81,1.79,2.06,3.36,3.9,4.46,3.62.88-.23.62-1.67,1.81-2.23.79-.37,1.39.05,3.34.56s4.13,1.06,4.73.27c.44-.58-.37-1.36-.42-2.78s.86-2.83,2.65-4.73c4.34-4.65,7.36-6.18,7-7.25-.23-.62-1.46-.72-2.78-.83-2.9-.26-4.18.81-4.88.14s.07-2.88.84-4.88c1-2.64,1.9-3.36,1.67-4.73-.12-.7-.58-1.11-2-2.65-3.09-3.48-5.5-3.41-6.26-5.84-.65-2.05.53-3.86-.42-4.46-.61-.37-1.51.07-1.95.28-2.65,1.3-2.9,4.31-3.9,4.31-.49,0-1.05-.72-1.95-4.17-1.44-5.46-2.16-8.2-1.11-10.73A42.66,42.66,0,0,1,20.62,642c1.41-2.09,2.41-3.39,1.95-4.32s-1.42-.51-2.09-1.53a2.43,2.43,0,0,1,0-2.78c.79-.77,2,.39,3.48-.14,1.65-.63,2.09-3,2.79-5.85a10.48,10.48,0,0,0,.14-5.85,9.5,9.5,0,0,0-1.4-2.79c-1.09-1.48-1.83-1.48-2.64-2.5-1.05-1.3-.63-2.23-1.12-5.85-.6-4.43-1.53-5.06-.83-6.41.6-1.18,2-1.69,4.87-2.64,4-1.35,5-.81,7.38-2.09a9.91,9.91,0,0,0,4.18-3.62c1.58-2.67.18-4.11,1.53-8.63a16,16,0,0,1,2.23-4.88c1.69-2.39,2.95-2.53,5.15-5a17.35,17.35,0,0,0,3.34-5.15c2-5.13-1.13-7.76.7-10,1.32-1.62,3.6-1.14,12.67-3.2a3.52,3.52,0,0,0,2.51-1.4c.83-1.53-.91-3.31,0-5.29a3.54,3.54,0,0,1,1.39-1.53c2.58-1.58,5.38,1.51,9.05.56,1.6-.42,1-1,3.9-2.65a30.16,30.16,0,0,1,8.63-3.06c3.07-.63,3.93-.37,4.6-1.25,1-1.33-.23-2.86-.7-6.55-.18-1.48.12-4.06.7-9.19.63-5.48,1-6.36,1.81-7,1.65-1.21,3.41,0,4.6-1.39s.74-3.51.55-4.74c-.25-1.81-.93-3.09-.42-3.48s1.12.37,1.81,0,.68-1.18.84-1.95c.23-1,.88-1.9,2.23-3.76.74-1,1.44-1.79,6.54-6.13,3.18-2.69,3.44-2.85,3.9-3.06,2.62-1.14,4.39-.42,5.43-1.81s-.11-2.39.84-3.62c1.18-1.53,3.18-.26,5.43-1.81,1.93-1.32,1.58-3,3.2-3.48s2.07.86,4.18.83c1.44,0,2.11-.62,5.15-2.36,2.79-1.61,1.37-.63,5.15-2.79,4.34-2.48,4.9-3,7.38-4.46,8.15-4.64,11.7-4.1,12.82-7.24a19,19,0,0,1,2.08-4.45,4.87,4.87,0,0,1,1.68-1.81c1.34-.77,2,0,3.62-.42,2.27-.63,3.66-3,4.31-4.18.88-1.53.56-1.76,1.26-2.5,1.37-1.42,3.52-1.49,5.57-1.54,3.08-.07,3.94.68,4.59,0,.84-.88-.25-2.48.28-6.26.07-.49.26-1.77.7-1.81s.62,1.53,1.53,1.81c1.27.39,3.11-2.16,3.76-3.07,1.16-1.62,2.09-2.92,2-4.59-.14-1.51-1.07-2.46-.56-3.07.26-.3.6-.18,1.67-.41s1.3-.47,2.09-.7c2.41-.74,3.67.28,4.46-.56.46-.51.09-.92.41-2.22,0-.14.77-2.88,2.51-3.49,1.58-.53,2.46,1.19,4.55,1.07,1.62-.09,2.76-1.23,4.08-2.6a17.3,17.3,0,0,0,4.6-7.66c1.76-6.19-1.21-8.42,1.11-12,1.26-1.93,3.28-3,5.71-4.32s2.67-.88,5.85-2.37c4-1.9,4.57-3,7-3.34,1.19-.16,1.72.05,5.16.84,9.6,2.23,11.69,2.16,13.36,1.11a8.15,8.15,0,0,0,2.23-2.23c1-1.39,1.16-2.46,1.81-4.73.95-3.32,1.42-5,2.09-5.85a9.63,9.63,0,0,1,5.43-3.2c2.21-.54,2.76.07,5.71,0a27.15,27.15,0,0,0,8.36-1.81c4.31-1.44,4-2.11,7.52-3.07,2.41-.65,5.17-1.39,8.21-.55a12.61,12.61,0,0,1,5,2.92c4.6,3.81,6.69,3.37,13.23,7.1,7.8,4.44,6.94,6.11,17.55,13.51,7.31,5.08,9.26,5.83,10.86,6.27,6.5,1.81,8.1-.89,19.91-1,7.55-.07,14.46,1,14.9-.69.12-.45-.23-1-.55-1.54-.68-1.09-1.58-1.48-3.07-2.36a14.49,14.49,0,0,1-3.06-2.09c-1.32-1.49-1.25-3.53-1.25-4.88,0-5.94-1-3.78-1-11.55,0-4.88.05-8.5,1-12.68,1.32-5.89,3.29-7.47,6.4-14.06,2.93-6.2,2.51-7.61,6.27-19.63,3.41-10.94,5.13-16.41,7.24-20.47,7-13.49,18-22.28,20.89-24.51,3.53-2.76,6.7-4.74,11.69-9.47s4.76-5.55,8.64-8.5c4.87-3.73,7.26-4,9.19-7.38s.23-4.73,2.37-7.52c2-2.53,3.76-2.43,9.74-6,3-1.81,2.46-1.77,8.22-5.43a75.87,75.87,0,0,1,6.82-4,60.72,60.72,0,0,1,7.24-3.07c2.93-1,4.37-1.57,6-1.67a14.91,14.91,0,0,1,6.82,1.4c4.32,1.6,4.95.13,17.55.41,7,.17,9.21.68,14.76.14a27.63,27.63,0,0,0,7.38-1.53c3.83-1.42,3.58-2.39,7.24-3.9,4.57-1.88,5.94-.76,10.73-3.06a12.09,12.09,0,0,0,4.17-2.65c2-2.09,1.7-3.67,4-5.57a14.64,14.64,0,0,1,3.06-1.81c1.47-.69,2.21-1.07,3.07-1,1.18.11,1.69.88,2.92,1.81a16.31,16.31,0,0,0,4.88,2.36,13,13,0,0,0,7.24-.13,9.86,9.86,0,0,0,4-2.23,5.39,5.39,0,0,0,1.39-1.81c.88-2-.49-2.93,0-5.29.42-2,1.53-2.07,1.67-4,.09-1.28-.35-1.6-.56-3.07-.42-2.92,1-3.64.84-5.71-.19-1.85-1.46-2.18-6.41-7.1a51.65,51.65,0,0,1-4.18-4.45c-2.73-3.53-2.55-4.81-4.87-7-2.11-1.95-2.46-1.06-5-3.2-1.81-1.51-3.07-3.34-5.57-7-1.67-2.39-2.49-3.6-2.65-4.32-.72-3.32,1.88-5,3.62-9.75.56-1.5,2.86-7.84.28-13.23-1.55-3.24-4.69-5.66-6.54-7.1-2.14-1.64-3.09-1.88-4.88-3.76-2.18-2.29-2.11-3.39-3.9-4.87s-3.36-1.74-6.4-2.37a23.5,23.5,0,0,0-10.45-.14c-2.71.63-5,1.16-6.12,3.07s-.42,3.73-1.54,4.31-3-.48-4.17-1.81c-2-2.34-.88-5-.14-12.67.72-7.22.11-8.7,1.39-14.06,1.14-4.83,2.32-6.59,3.76-7.8.88-.74,2.3-1.37,5.15-2.65a33.9,33.9,0,0,1,5.85-2.23,57.64,57.64,0,0,1,5.85-.83c5.2-.65,6.31-.84,6.68-1.67.47-1-.44-2.37-1.25-3.48-3.5-4.74-7.19-6.78-9.33-8.64-6.43-5.64-6.85-16.8-5.71-23,1-5.22,2.9-6.08,2.93-11.42,0-4.62-1.42-7,0-10.31A11.45,11.45,0,0,1,536.55,33c6.68-3.29,14,.51,21.72.7a11.1,11.1,0,0,1,2.23.25,10.93,10.93,0,0,1,5.15,2.67c.77.77,1.35,1.65,2.37,4.32,1.51,4,2.83,7.4,2.92,12.12,0,.62-.05,2.36-.14,5.84-.11,4.16-.18,4.76.28,5.57,1.37,2.42,5.18,3.11,7.94,2.65a10.44,10.44,0,0,0,6.54-4.32c2.69-4.15.33-7.89,3.07-10,1.78-1.42,4-.72,4.73-2.37.44-.95-.16-1.42-.28-3.34-.16-2.63.7-5.94,2.51-6.55.28-.09.6-.14,2.09.28,4.13,1.14,4.73,2.21,6.12,2,1.23-.23,1.07-1.14,3.76-4s3.18-2.41,4-4c1.3-2.43.47-4.17,1.81-5,1-.6,1.81,0,3.48,0s3.14-.7,6-2.64c7-4.76,7.66-6.9,10-6.55,1.27.19,1.51.72,5.29,3.06s5.94,3.69,8.77,4.74c4.81,1.79,5.62.49,9,2.37s3,3.29,6.13,4.59c.53.23,5.22,2.07,8.77-.14,1.58-1,1.12-1.6,3.21-3.76a19,19,0,0,1,8.21-5.15c1.7-.46,3.23-.58,4.74-1.95a5.53,5.53,0,0,0,1.53-2.09c.86-2.18-.4-3.67.42-4.59s2.43.39,4-.28c2.51-1.05,1.07-5.36,4-10.45a14.44,14.44,0,0,1,5.57-5.43C704.13.63,706-.37,708,.14c3.51.93,4.83,6.15,5.3,7.94,1.83,7.19-1,12.51.83,13.37.93.44,2.69-.54,3.34-1.82,1.12-2.15-1.34-4.36-.28-6.26.75-1.32,2.81-1.83,4.32-1.67,3.34.35,4.13,3.92,8.08,8.21a32.77,32.77,0,0,0,12.81,8.36c4,1.46,4.43.72,11,2.92,3.16,1.07,3.57,1.42,7.94,2.93A85,85,0,0,0,770.77,37c5.06,1.14,8,1.81,11.83,1.25,5.16-.76,6.27-2.94,11.28-2.92a19.15,19.15,0,0,1,6.41,1.25c7.66,2.65,9.37,7.78,16.29,11.28,4.11,2.09,3.5.28,12.12,2.79,4.45,1.3,4.59,1.76,20.6,8.21a77.45,77.45,0,0,0,11.14,3.35,17.73,17.73,0,0,0,5.3.69c3.29-.23,4.24-1.55,8.21-1.81,3.18-.18,4.27.56,4.74,1a4.55,4.55,0,0,1,1.39,2.78c.53,3-1.21,5.22-3.06,8.91-3.9,7.78-3.83,13.28-3.76,14.76.09,1.93.46,4.3,1,4.32s.91-2.3,2.23-6.82c2.09-7.2,3-8.13,3.76-8.64,2.3-1.6,5.27-1.09,6.82-.83,3.2.53,4.83,2,7,3.2,3.76,2.14,9.43,2.58,20.75,3.48A21.68,21.68,0,0,1,923,85.08c1.37.65,1.86,1.07,5.29,3.62,8,6,9.59,6.71,11.56,6.55a8.78,8.78,0,0,0,4.59-2.09c2.83-2.18,3.65-5,4.88-8.08a73,73,0,0,1,6.4-11.83c4.27-6.39,5.6-4.67,9.47-10.59s3.39-9,7.8-12.53a19.31,19.31,0,0,1,6.54-3.34c2.26-.65,4.55-1.3,7-.42.55.21,1.81.72,5.57,5.43a43.83,43.83,0,0,1,4.45,6.13c1.74,3.09,2.09,5.17,3.35,10,2.9,11.23,4.73,14.66,4.17,19.49a12.94,12.94,0,0,1-2.09,6.55c-1,1.34-1.64,1.53-1.81,2.5-.32,2,2.12,3,4.74,6.55s1.88,4.8,3.9,6.68,4.27,2,8.77,2.51c22.28,2.25,13.37,2,21.58,2.5,6,.4,7,.31,8.08,1.4,3.88,3.87-1.18,12.51,2.51,15.45,2.57,2.07,6.7-.81,8.63,1.53,1,1.23.33,2.56.14,6.27-.3,5.76,1.18,5.57,1,11-.17,4.06-1,4.37-1.4,10.72-.16,2.49,0,2.72-.28,4.32-.62,4.29-1.85,5.62-1.11,7.52.53,1.37,1.69,2,3.48,3.06a22.26,22.26,0,0,0,7.66,2.51,39.49,39.49,0,0,1,11.14,3.76c4.06,2.21,3.62,3.6,12.25,11.7,4.6,4.31,4.34,3.55,6.27,5.71,4.11,4.59,3.06,5.54,8.5,13.5,2.41,3.53,4,5.32,3.48,7.66-.31,1.47-1.12,1.77-2.23,4.6-1,2.48-1.56,4-1,5.43s2.19,2.2,5.16,3.48c2.15.93,2.6.84,4.45,1.53,4.69,1.79,4.43,3.44,7.66,4.32,3.64,1,4.6-1,7.94.28,3,1.09,2.57,2.76,5.29,3.62,1.67.53,4.27-.16,9.47-1.53a16.45,16.45,0,0,0,5.15-2,32.37,32.37,0,0,1,3.06-2.23,10.86,10.86,0,0,1,4.74-1.11c5.2-.35,10.44-.7,13.79,2.78a9.63,9.63,0,0,1,1.25,1.67c3.09,5.27-.93,10.19,1.25,12.53,1.44,1.54,3.41-.27,9.75.56a31.69,31.69,0,0,1,7.8,2.09,38.16,38.16,0,0,1,9,5.29c3.8,2.79,6.89,5,9.61,8.91a33.63,33.63,0,0,1,4.59,10.31c2.23,7.19,1.77,11.49,5.43,14.06,1.65,1.16,2,.49,3.07,1.53,3.78,3.83-1.51,12.54,2,15.32a16.78,16.78,0,0,0,4,1.81,24,24,0,0,1,2.93,1c1.95,1.09,2.25,3.2,3.48,6.68,1.62,4.57,2,3.64,3.06,7,1.79,5.83.63,9.15,2.51,10,1,.49,1.9-.3,4.6-1.25,3.36-1.19,4.92-1,8.35-1.54,9.08-1.53,9.7-5,16.71-5a21.28,21.28,0,0,1,7.24,1.25,24,24,0,0,1,6,3.35c2.46,1.83,3.09,3,5.71,4.31a7.14,7.14,0,0,0,3.62,1.12c2.81-.12,4.8-2.51,5.15-2.93.58-.72.4-.76.84-1.25,1.11-1.3,2.9-1.72,8.21-1.81,4.71-.09,5.67.21,7.11-.7s1-1.53,2.78-3.2c2.6-2.44,4-1.55,6.41-3.76s2.34-4.08,4-4.32c.84-.11,1.56.26,3.62,1.81,3.3,2.46,5,3.72,5.57,4.6,2.4,3.41-.16,5.73.56,15.46.3,4,.81,4.87.28,7.38-.44,2.09-1.56,4-3.76,7.79-2.09,3.63-2.85,4.37-4.18,7.25a31.6,31.6,0,0,0-1.81,4.73,20.35,20.35,0,0,0,.7,12.53c3,7.41,10,10.38,11.83,11.14,1.61.68,4.83,1.35,11.28,2.65,4.25.86,6.36,1.3,8.36,1.53,8.63,1.05,10-.65,13.09,1.25,2.27,1.4,1.3,2.12,6.4,7,1.79,1.69,2.74,2.41,3.07,3.9.46,2.15-1,3.24-1.67,6a12.87,12.87,0,0,0,1.11,8.36c2,4.13,7,7.84,10.72,6.68a7.41,7.41,0,0,0,3.35-2.64c1.67-2,1.32-3.09,3.06-6.27,1.18-2.18,2.41-4.43,4-4.46,1,0,1.32.84,3.2,2.37a13.69,13.69,0,0,0,5.71,3.2c3,.63,3.6-1.13,6.82-.41,2.21.48,2.6,1.44,4.32,1.25a6.9,6.9,0,0,0,3.9-2.23c2-2,1.86-3.41,3.06-3.9s2.53.56,6.13,3.35c8.75,6.77,9.89,7.45,11.84,10,1.3,1.72,1.3,2.11,2.22,2.79,3.51,2.57,9.26,1.32,10.87,1,.32-.07,1.25-.28,2.64-.56s2.74-.51,3.2-.55c.77-.1,2.51-.1,7,3.06,3.8,2.72,6.75,4.8,8.77,8.77a25.79,25.79,0,0,1,1.81,5.16c1.39,5.08.72,6.66,2.37,8.77.16.21,2.5,3.13,5.43,2.92,2.11-.14,2.5-1.81,6.54-3.62a9.86,9.86,0,0,1,3.9-1.25c3.2-.09,4.32,2.3,7,2.09,1.63-.12,1.86-1.07,4.32-2.65.93-.6,7.15-4.62,12.25-2.78a38.25,38.25,0,0,1,4.18,2.92c5.09,3.74,5.62,4.18,6.41,4.74,5.94,4.2,8,2.25,12.81,5.7a18.14,18.14,0,0,1,7.24,10.31c1.18,5.13-.63,9.65-1.53,12a17.16,17.16,0,0,1-2.09,3.89c-1.67,2.33-2.79,2.6-3.9,3.9-2.13,2.51-.74,4.74-1.39,14.07-.28,4-.42,6.06-1,7.66-1.18,3.43-3,5.22-2.22,7.38a5.37,5.37,0,0,0,2.64,2.64c3,2,3.3,4.13,7.1,11.28,5.55,10.42,8.17,11.91,7.8,16.57-.14,1.6-.42,1.07-1.11,4.88-1,5.2-1.63,8.65,0,12,.53,1.07,1.58,3.23,3.76,4,1.34.49,2.18-.07,3.9.14a19.15,19.15,0,0,1,7,2.09c3.76,2,3.67,4,7.66,5.71,1.2.51,2.94,1.2,4,.42s1-2.28,1.11-3.76c.09-2-.39-2.49-.14-4.32.12-.77.37-2.55,1.25-2.79.58-.16,1,.51,2.09,1.26a9.48,9.48,0,0,0,4.74,1.39c1.48.09,2.92.21,4-.7.9-.74.55-1.3,1.53-2.22a6.32,6.32,0,0,1,4-1.4c1.27-.09,2-.16,2.64.28,1.35.88,1,2.67,2,3.07s2.34-1,2.93-1.54c1-.95,2.06-2.39,3.2-5.85s.72-4.2,2-6.68c.95-2,1.51-3.11,2.78-3.62s2,.09,5.57-.14a4.81,4.81,0,0,0,2.23-.42c1.21-.67,1.32-1.83,2.23-3.48,1.07-2,2.9-4,3.62-3.76,1,.37-1,4.37.7,6,1.32,1.28,3.59-.12,9-.42,2.78-.16,2.76.16,5.71.14a60.72,60.72,0,0,0,17.54-3.2c3.27-1.16,4.53-2,5.85-1.25,2.14,1.16.81,4.31,3.06,8.07s6.27,5.08,9,6c2.21.72,4.67,1.51,6.55.28a5.59,5.59,0,0,0,2-2.93c3.25-7.86,4.87-11.81,4.87-13.92,0-1.93-.34-3.18.56-4.46,1-1.46,2.92-1.88,4.46-2.09,4.36-.58,8.28.21,13.64,1.68,6.8,1.85,10.19,3.22,11.56,1.67a5.33,5.33,0,0,0,.84-2.93c.21-2.34-.75-3.11-.28-4.31.42-1,1.44-1.26,4.31-2.37a42.26,42.26,0,0,0,6.55-2.93c2-1.23,2.16-2,4.87-4.73,4.46-4.48,6.71-6.73,9.33-6.69,2.83.05,2.93,2.53,8.08,4a17.36,17.36,0,0,0,5.71.7,14.52,14.52,0,0,0,6.13-1.53,9.8,9.8,0,0,0,3.76-3.07,9.46,9.46,0,0,0,1.53-3.89c.53-2.84-.44-3.28-.28-6.83.14-3.15,1-3.62.42-5.57s-1.56-2.5-1.26-3.48c.47-1.48,3.44-1.81,4.74-2a116.11,116.11,0,0,1,15.87-.42c17.78.54,7-.9,13-.83a4.57,4.57,0,0,0,2.93-.84c1.11-.9,1-2.06,1.67-4,1-3.25,2.11-2.92,3.06-6,.47-1.47,1.19-3.81.14-5.85-.53-1-1.21-1.4-2.64-2.51,0,0-1.35-1-5.16-4.73a21.9,21.9,0,0,1-5.15-9.06c-1.09-3.17-1.07-7.42-1-15.87,0-3.27.16-5.2,1.53-7a8.46,8.46,0,0,1,5.57-2.93c2-.14,3.55.61,5.71,1.67,3.32,1.65,3.25,2.67,5.15,3.07s2.69-.61,7.38-2.09c3.85-1.23,5.85-1.86,8.36-1.53s2.32,1.16,6.68,2.92a90.09,90.09,0,0,0,9.19,2.79c4.48,1.23,5.34,1.32,6.82,2.36,2.18,1.54,2,2.53,4,3.49s4.13.78,6.69.55c2.39-.23,2.32-.55,5.57-1.11,5.15-.88,5.8-.14,7.79-1.25,2.21-1.23,2-2.49,4.18-3.21,1.18-.39,2.48-.28,5,0,3.51.37,4.09.88,6,.7a11.66,11.66,0,0,0,4.18-1.39c3-1.42,6.06-2.74,9.05-4.18,5-2.42,7.57-3.62,11.14-4.18,3.23-.51,5.69-.18,10.58.42,4.72.58,7.18.9,10.31,2.23,4.36,1.85,4.48,3.34,7.8,3.9,4.1.69,6.5-1.14,7.79.27.77.84.28,1.86-.27,6-.7,5-1,7.54-.28,10.17a25.25,25.25,0,0,0,2.5,5.43c1.14,2,1.72,2.67,2.37,3.76,2.55,4.25.74,6.45,2.79,14.2a41.33,41.33,0,0,0,2.22,6.27c1.26,2.78,1.88,4.18,2.93,5.15,2.78,2.6,5.34,1,8.63,3.62,1.65,1.3,2.42,2.79,3.48,4.87a26,26,0,0,1,2.65,8.92c.49,3.94,3.39,10.14,14.06,19.91,3.23,2.9,5.67,5.11,8.22,7.38,1.62,1.46,2.78,2.48,3.48,4.32s.16,2.27.42,6.12.83,3.88.83,7-.51,3.55.14,4.59c1.12,1.81,4.09,2.3,6.27,1.81,1.67-.37,2.51-1.2,4.46-2.78,4.71-3.83,4.5-2.76,7.52-5.43,4.54-4,4.94-6.41,8.21-7.11.35-.07,0,0,3.9-.27,4.55-.35,5.43-.51,6.13-1.26,1.13-1.2.23-2.32,1.39-3.62,1-1.14,2.67-1.27,5.57-1.53,2.14-.19,2.92,0,4.46-.56a5.36,5.36,0,0,0,2.36-1.53c.86-1,.61-1.55,1.4-3.06.25-.51,1.67-3.09,2.92-2.93.53.07.84.61,1.67,2.37,2,4.29,2.07,4.94,2.93,5.57,1.83,1.35,4.5.49,4.73.42,2.58-.86,2.58-2.9,4.6-3.34,1.57-.35,2.22,1,6,2.64,5.13,2.18,5.5,2.11,7.11,3.07,4.34,2.57,6,5.68,7,5.15s-1-3.46.55-6.13c.68-1.18,1.21-.93,3.9-3.2,2.49-2.09,2.3-2.55,3.9-3.62a16.21,16.21,0,0,1,5.57-2.09c4-1,4.09-.23,6.83-1.25,1.9-.7,2.83-1.44,3.9-1s.71,1.21,1.94,2.51a6.39,6.39,0,0,0,3.9,2.09,5.7,5.7,0,0,0,3.21-.84c2.41-1.28,2.41-2.85,4.17-3.2a4.37,4.37,0,0,1,3.21.83c1.44,1.14.79,2.37,2.09,3.62,1.5,1.47,4.15,1.49,5.84.84.77-.28.63-.44,1.95-1.11a11.63,11.63,0,0,1,3.9-1.4c2.58-.18,3,2.35,6.27,3.21,2.09.55,1.86-.49,6.54-.56,3.3,0,5,.44,6.55-.84a4.27,4.27,0,0,0,1.25-1.81c.79-2-.37-3.29-.14-5,.26-1.88,1.91-2.18,4.46-4.6,4.48-4.22,3.64-7.21,7.1-8.63,1.56-.63,1.28.14,5.43-.42,4.69-.62,5.15-1.64,8.63-1.67,2.4,0,2.81.47,5,.14,1.67-.25,2-.6,4.59-1.25,2.93-.72,4.39-1.09,5.29-.7.75.33,1.21.91,3.21,7.1a40.78,40.78,0,0,1,1.95,7.25,22.74,22.74,0,0,1,.28,4.45,29.15,29.15,0,0,1-1.4,7c-1,3.58-1.58,4.23-1.11,5.3.32.74.83,1,4.46,2.78,4.31,2.16,4.64,2.34,5.15,2.79a20.37,20.37,0,0,1,3.48,4.59c1.62,2.53,1.79,3.27,2.92,3.9.44.26.77.3,4,.56,3.58.28,4.09.25,5,.55a11.79,11.79,0,0,1,3.49,2.09c3,2.3,3.52,3.37,6.54,6,1.6,1.37,1.28.93,4.46,3.48.88.72,2.9,2.37,5.29,4.46,3.64,3.2,5.45,4.8,5.71,5.29,1.71,3.29-.19,6-.56,16.57-.05,1.39-.09,3.23,1.11,4.6,1,1.13,2.16,1.11,4.88,2.22a20.76,20.76,0,0,1,4.73,2.51c3.34,2.58,2.49,4.87,5.16,6.27,2.15,1.13,3-.19,6.26,1a14.38,14.38,0,0,1,4.88,3.2,22.57,22.57,0,0,1,5.43,6.83C2312.65,635.68,2311.82,641.9,2311.31,645.57Z"/><path d="M1265.39,1175.84a5.14,5.14,0,0,1-1,.67h0a22.08,22.08,0,0,0-3.86-1.37c-3.57-.92-6.77-1.16-7.1-2.64-.23-1.07,1.14-2.21,1.67-2.65l1.35-1.13,5.85,5.1A13.05,13.05,0,0,0,1265.39,1175.84Z"/><path d="M1591.93,1249.5c0,.28-1.2.65-1.25.56a3.56,3.56,0,0,1,.93-.74h0C1591.82,1249.37,1591.93,1249.41,1591.93,1249.5Z"/><path d="M1499.61,1171.24a117.61,117.61,0,0,0,7.8,9.75,70.08,70.08,0,0,0,12.11,9.89c3.3,2.28,4.58,2.87,5.43,2.37,1.53-.9,1.24-5.07-.41-7.94a11.81,11.81,0,0,0-2.65-2.92c-1.94-1.82-4.4-4.69-9.33-10.45-2.3-2.68-2.91-3.51-3.34-4.87-.68-2.14-.21-3.35-1.26-4.32-1.31-1.22-3.61-.72-5-.42-1,.23-5,1.1-5.71,3.62C1496.83,1167.51,1497.87,1169,1499.61,1171.24Z"/><path d="M1535,1199.1c-3,.89-3.62,1.36-4,1.81-2.07,2.19-2,6.61,0,8.91,1.31,1.47,2.36.87,7.38,2.36,5.51,1.65,6,2.91,9,2.79,1.26,0,1-.26,6-1.53a48.87,48.87,0,0,1,6.82-1.53c2.2-.14,2.84.34,10,2.5a74.08,74.08,0,0,0,9,2.37,26.06,26.06,0,0,0,7.66.42c2.94-.37,3-1,6.13-1.67,6.12-1.26,9.28.66,10.3-1,.87-1.39-.41-4.36-2.37-5.29-1.15-.55-2-.13-6.68,1-3.55.83-5.33,1.24-6.13,1-2.28-.78-1.91-2.83-5.57-6-1.63-1.41-1.67-1-3.62-2.64-2.69-2.32-3-3.48-4.59-3.76-1.13-.2-2.15.19-4.18,1-2.28.88-2.23,1.37-3.2,1.39-2,.06-2.68-2-5.29-3.2-1.42-.64-2.47-.58-5.16-.56-9.86.09-9.53-.55-14.06,0A40.13,40.13,0,0,0,1535,1199.1Z"/><path d="M1564.22,1189.21c-2,3.38-2,4.22-2,4.87a5.45,5.45,0,0,0,4.6,4.18c3.61.32,5.21-4.45,8.49-3.9,1.2.2,2.15,1.3,4,3.48,2.63,3,2.43,4.09,4.6,6.55,1.74,2,3.82,4.33,6.54,4.31,2,0,3.4-1.24,5.85-3.34,2.26-1.94,3.44-2.94,4-4.59,1.7-4.7-2.85-10.07-3.76-11.14-2.33-2.75-3.11-2.11-8.64-6.27-5.92-4.46-8.88-6.68-9.74-10.3-.67-2.8.23-4.62-1.4-6.41a5.21,5.21,0,0,0-5.29-1.53c-2.23.81-2.95,3.57-3.48,5.57-1.75,6.64,1.52,9.34-.83,13.78C1566.62,1185.74,1566.05,1186.09,1564.22,1189.21Z"/><path d="M1618.67,1224c-.14,2,.75,3.66,1.95,5.85s1.9,2.72,1.81,3.9c-.11,1.44-1.29,3-2.23,2.92-1.39-.14-1-3.81-4.18-6.68a4.47,4.47,0,0,0-2.36-1.39c-2.28-.37-4.52,1.74-5.43,3.06-2.88,4.14-.85,12.26,3.89,17.13,4.43,4.53,7,1.92,14.63,7.38,5.42,3.88,6.65,7,11.28,7.66,2.41.34,2.77-.41,7.93-1.26,6.32-1,6.87-.08,14.9-.83a86.55,86.55,0,0,0,13.23-2.51,29.91,29.91,0,0,0,8.08-4c1.66-1.13,2.19-1.73,2.09-2.22-.23-1-3.33-1.74-6-1.26-2.08.38-2.74,1.25-4.6,1a8.56,8.56,0,0,0-2.5-.42c-1.18.09-1.72.56-2.51.28s-.94-.81-1.25-1.26c-1-1.39-2.17-1.41-5.29-2.78-3.9-1.72-3.51-2.33-4.88-2.37s-2,.7-5.85,2.79c-3.16,1.71-5,2.7-5.43,2.23-.57-.62,1.39-3.48,3.07-5.3a16.48,16.48,0,0,1,4.59-3.62c3-1.51,5.47-1.11,11.42-.69,11.24.78,14.14.18,16.29-.56.73-.25,6.31-2.16,6.27-4.6,0-1.41-1.91-1.74-5.57-5a23.05,23.05,0,0,1-5-5.57c-1.68-2.78-1.28-3.89-3.35-6.54a7.33,7.33,0,0,0-3.9-2.93,5,5,0,0,0-2.22-.14c-2.06.39-2.64,2.09-4.46,3.48a9.06,9.06,0,0,1-5.85,1.81c-2.56-.16-4.63-1.72-8.07-4.31-1.73-1.3-2-1.69-2.93-2-1.31-.35-2.67-.12-6.68,1.67-4.69,2.09-4.14,2.35-5.57,2.65-4.25.85-7.3-1.8-8.36-.56-.82,1,.42,3.23.56,3.48,2.58,4.66,9.61,5.48,11.56,5.71,5.89.69,9.39-.91,12.53,1.67.33.27,1.3,1.07,1.11,1.67-.42,1.32-6.15.58-8.49.28-1.38-.18-4-.78-9.05-2-3.94-.91-4.17-1-4.6-1.25-2.22-1.38-2.38-3.06-5.71-6.13-2-1.85-2.72-2-3.2-1.81C1619.19,1221,1618.75,1222.92,1618.67,1224Z"/><path d="M1980.17,1254.1c-1.16.42-3,1.32-2.93,2.09.14,1,3.87,1.35,4.32,1.39,2.94.24,4.23-.42,6.54-.56,2.83-.16,4.36.62,7.24,1.4,4.76,1.29,5.48.49,13.65,1.39s7.12,1.63,14.34,2.37c8.72.88,8.75-.34,13.79,1,2.08.54,5.26,1.57,10.72,2.79,1.86.41,4.49,1,7.1-.28.27-.13,2.65-1.25,2.51-2.37s-3.3-1.81-8.22-2.51c-9.45-1.33-16.15-1.81-16.15-1.81-8.85-.63-13.28-.94-15.73-1.25-6.76-.85-8.34-1.49-14.62-2-6.69-.49-5.86.17-9.47-.42C1987.53,1254.42,1984.34,1252.59,1980.17,1254.1Z"/><path d="M1265.39,1175.84a5.14,5.14,0,0,1-1,.67h0a8.52,8.52,0,0,1-8.24.21l-10.07-5.2a2.19,2.19,0,0,1-.4-.25,1.33,1.33,0,0,0,.37-.07c1.72-.51,2.6-2.07,5.9-7.13a12.86,12.86,0,0,0,2.43,2.86l2.07,1.79,5.85,5.1A13.05,13.05,0,0,0,1265.39,1175.84Z"/></g></g></svg>