<svg xmlns="http://www.w3.org/2000/svg" viewBox="0 0 2183.91 2167.51"><g id="Layer_2" data-name="Layer 2"><g id="Equatorial_Guinea" data-name="Equatorial Guinea"><path d="M1181.41,1208.2c-6.39-3.08-11.07-5.76-14.22-7.68a75.22,75.22,0,0,0-7.68-4.12,34.09,34.09,0,0,0-7.39-2.7c-3.43-.74-4.71.6-7.11-.57-1.59-.78-1.39-1.4-3.84-3.13a16,16,0,0,0-5.26-2.7c-2.35-.59-2.81.23-8,.71a23.46,23.46,0,0,1-8-.14,15.86,15.86,0,0,1-4.84-1.85c-3.48-2.13-4.42-5.15-6.4-8.53-2.74-4.69-6-7.45-9.52-10.52a51.51,51.51,0,0,0-13.23-8.25c-8.1-3.43-10.26-1.73-13.36-4.83s-1.38-5.58-4.41-15.07c-2.75-8.64-5-9-6.54-16.78a48.74,48.74,0,0,1-.85-10.66c.07-2.17.25-2.8,1.28-10.24,1.25-9,1.36-10.81.43-12.94-1.07-2.42-2.36-1.75-5.12-5.4-3.07-4.06-2.7-6.09-4.41-6.54s-4.32,2-9.53,7c-3.5,3.33-4.11,4.22-6,4.84-3.18,1.06-4.17-.61-8-.14a14,14,0,0,0-10.52,7.25c-.37.73-1.27,2.75-1.14,7,.23,7.21,3.29,10.3,5.83,16.92,3.66,9.56,3.6,19,3.55,24.89,0,3.32-.25,6,0,11.37.27,5.57.71,6.43,1.14,11.66.74,9,.5,19.41.43,22.6a30,30,0,0,0,1.14,10,40.22,40.22,0,0,0,2.41,5.68c2.11,5.09.79,10.93-1.85,22.61a106.83,106.83,0,0,1-3.27,11.66c-1.86,5.46-2.8,8.19-4.4,10-4.61,5-9.72,2.68-12.37,6.83-2.06,3.22-.79,7.46,1.7,15.35a114.86,114.86,0,0,0,5.41,13.37c6.24,14.59,2.45,18.16,8.81,34.4,1.91,4.87,2.38,4.88,6,13.65,2.77,6.76,4.82,12.45,6.26,16.64,2.15,6.28,3.23,9.42,3.84,12.08.86,3.78.91,5.47,1.7,21.9.52,10.73.63,12.63-.85,15.21-2.48,4.33-5.25,3.28-9.81,7.82-7.16,7.14-3,12.41-10.09,19.62-3.92,4-6.31,3.51-12.37,9.81-2.62,2.72-2.66,3.32-5.26,5.69-3.54,3.22-5.8,4.26-9,8a29.17,29.17,0,0,0-2.56,3.41c-5.09,8.32,1.91,17.2-1.42,28.16-.41,1.33-1.93,3.78-5,8.67-9.11,14.63-13.67,22-20.76,26.73-5.38,3.63-7.57,3.15-14.5,8.39a44.08,44.08,0,0,0-9.24,8.53c-5.88,7.56-4.19,11.78-9.81,18.34-1,1.2-3.74,3.19-9.1,7.11-9.7,7.08-12.66,8.92-18.91,13.79-9.61,7.49-11.7,10.34-12.8,13.79-.65,2-.81,4.17-1.13,8.39a79.41,79.41,0,0,0,0,13.79,54.24,54.24,0,0,0,7.53,23.32c5.48,9,12.19,13.71,18.34,18,4.44,3.13,8.83,6.17,15.5,7.82,4.71,1.17,9.47,2.35,14.5.43,4.63-1.77,4.7-4.34,13.65-10.52,5.9-4.08,7.75-4.26,9.1-3.7a6.2,6.2,0,0,1,3,7.25c-1.1,2.73-4.45,2-10.1,5.26-4.33,2.51-3.75,3.75-9,7.4a35.67,35.67,0,0,1-11.23,5.68c-2.36.66-8.48,2.38-15.07.29-5.12-1.63-8.48-5.07-15.21-11.94s-6.93-8.79-10.38-9.67c-5.75-1.48-11.63,2.26-14.79,4.26s-5.53,3.52-6.54,6.4c-1.37,3.93,1.22,6.17.43,11-.55,3.33-2.17,4.35-5,8.53-2.45,3.66-4.38,8.79-8.24,19-4.65,12.34-3.36,11.28-5,13.65-3.46,5-9.85,10.65-14.08,14.36a20.07,20.07,0,0,0-3.12,3.13c-3.45,4.45-2.72,8-4.41,11.94-1,2.42-4.41,4.87-11.09,9.67-6.09,4.37-11.29,7.67-15.21,10.09-10.84,6.71-10.3,5.78-14.51,8.82-6.36,4.6-11.46,8.38-14.21,15.07-.94,2.27-1.34,4.41-2.14,8.67a86.21,86.21,0,0,0-1.42,14.22c-.17,9.44,1.3,9.65,1.14,18.77-.13,7.57-.25,11.43-2.84,14.93s-7.06,6.26-8.39,7.11c-3.75,2.38-4.78,2.16-6.12,4-2.16,2.95-.53,5-2.27,10.23a19,19,0,0,1-4.41,7.54c-3.08,3.12-6.69,4.21-9.81,5.12-6.37,1.85-7.58.14-11.09,2.13-3.12,1.77-6.3,5.47-6.68,9.67s2.17,5.5,1.14,9.24c-.72,2.58-2,2.3-4,5.83-.48.88-1.19,2.32-2.84,10.09-1.59,7.48-1.14,7.15-1.85,8.68-2.13,4.61-4.53,4-6.68,8.67-.72,1.56-1.19,4-2.13,8.82-.86,4.44-.88,5.93-2.28,7.53-1,1.2-2.54,1.75-5.54,2.84a82,82,0,0,1-10.81,3c-2.7.53-3.47.54-3.69,1.14-.62,1.64,4.41,3.48,8.24,8.95a25.72,25.72,0,0,1,4.13,10.38c1.15,7-1.48,9.92.71,12.23s5.86-.21,10.09,2.7c2.12,1.46,3.16,3.45,4.55,6.12,2.69,5.14,1.47,6.8,3.7,9,1.6,1.55,2.44.91,8.81,3,6.14,2,6.2,2.88,8.25,2.7,4.27-.37,4.42-4.21,9.67-6.54,4.4-2,5.94,0,13.36-1.14a46,46,0,0,0,11.66-3.69c8.79-3.69,8.82-5.75,15.5-8.39,5.12-2,9.14-2.4,17.2-3.13,8.31-.76,12.57-1.1,17.63.71,1.87.67,4.64,1.91,10.1,6.54A94.71,94.71,0,0,1,859,2018.19c2.39,4.45,4,8.65,7.25,17.06,4.07,10.58,1.1,4.87,5.68,18.34,1.18,3.47,1.73,4.87,1.14,6.69-.87,2.66-3.55,4.22-8.67,10.09-.56.64-1.25,1.45-1,2,.45,1,3.54.4,7.11-.28,8.76-1.67,13.14-2.5,13.37-2.56,2.77-.72,3.44-1,14.78-4.55,9.53-3,10.24-3.2,11.95-4.12,3.71-2,6.08-4.26,10.66-8.68,8.07-7.77,8.29-10,12.65-12.37,2.18-1.17,4.51-1.9,13.65-2.41,21.29-1.2,21.69,2,36.54.71,5.07-.46,9-1.19,13.37,1,3.87,1.92,3.32,3.69,9,8.67,6.58,5.81,9.54,5.35,13.37,10.67a33.47,33.47,0,0,1,3.7,7.11c2.36,5.58,1.94,7.32,4.26,12.37,1.86,4,3.08,6.59,5.83,8,1.28.64,2.88,1,8.25.28,8-1.09,10.21-2.72,15.35-3.27,4.24-.44,7.3.18,11.95,1.14,8.82,1.82,14.92,5.25,19.9,8.1,6.4,3.67,9.6,5.51,11.23,8.39,3.55,6.26-.5,10.38,3,16.5,1.43,2.51,5.17,4.66,12.65,8.95,10,5.74,10.9,4.67,16.21,8.82a42.52,42.52,0,0,0,8.25,5.69,25.29,25.29,0,0,0,7.53,2.7c5.48.84,6.64-1.73,14.5-3s11.13.66,14.22-2.27c1.83-1.74,2.44-4,3-6.12a22,22,0,0,0,0-9.95,56.73,56.73,0,0,0-3.27-11.09c-.89-2.08-1.5-3.11-1.57-5s.54-2.45,1.71-6.54c.66-2.3.75-3.13,1.85-7,.73-2.57,1.13-3.73,2.27-4.55a5.34,5.34,0,0,1,3.27-.86c3.59.1,419-.16,1000.09-.56q-.36-439.7-.71-879.38Z"/><path d="M147.91,87c1-8.21,10.45-11.3,18.77-18.77A50.06,50.06,0,0,0,178.05,53a62.62,62.62,0,0,1,5.26-8.82,72.49,72.49,0,0,1,8.11-9.38c4.89-4.79,5.87-4.46,7.25-7.11,1.72-3.3.43-4.26,2.13-10.09,1.06-3.64,1.9-6.52,4.41-9,1.71-1.68,2.22-1.2,7-4.27S216.54.76,218.43.25c2.61-.71,5.15.14,10.24,1.85,2.49.83,3.57,1.45,4.12,2.56.63,1.28.06,2.23,0,4.12A11.61,11.61,0,0,0,235.21,16c1.1,1.37,3,2.69,9.52,3.27,5.8.53,8.43-.15,16.35-.71a150.89,150.89,0,0,1,15.22-.28c9.31.3,11.41,1.28,12.94,2.41,2.89,2.17,3.69,4.9,6,4.84,2-.06,2.31-2.26,4.83-3.84,3.63-2.27,6.32.26,15.36.43,1.26,0,.06,0,11.09-.72,5.88-.35,6.58-.35,8.24-.71A25.36,25.36,0,0,0,345,16.46c3.94-2.91,3.57-4.76,6-5.4,4.26-1.15,9.09,3.68,12.23,6.82,4.81,4.81,3.75,6.24,9.95,12.94,2.05,2.22,3.28,3.26,4.69,5.69,2.44,4.18,1.26,5.36,3.41,8.24,2.71,3.62,5.92,3.59,6.69,6.83a6.49,6.49,0,0,1-.29,3.55c-1.32,4.38-.69,11.45.57,25.59.79,8.83,1.46,11,1,16.64a37,37,0,0,1-1.71,9.38,37.54,37.54,0,0,1-8.67,13.79c-6.31,6.9-9.46,6.59-12.37,12.51,0,.06,0,0-2.85,6.83a94.39,94.39,0,0,1-3.83,8.67c-2.09,3.51-4.26,5.06-7,7.54-5.17,4.73-8.26,9.11-11.94,14.36-3.54,5-5.49,9.13-9.39,17.34-4.18,8.81-4.68,11.27-8.53,19.62a157.54,157.54,0,0,1-9.1,17.63,103.85,103.85,0,0,1-18.48,22.18l-3.27,25.17c-2.72,8.82-6.79,11.94-9.38,13.22a55.87,55.87,0,0,1-7.82,2.7c-4.33,1.21-5.93,1.2-8.54,2.71-2,1.16-4.11,2.38-5,4.69s.06,3.78,2.13,10.66c.23.76,1.31,4.38,1.85,6.54A47.73,47.73,0,0,1,266.2,330a59.61,59.61,0,0,1-3.13,13.37,66.45,66.45,0,0,1-14.07,23c-8.09,8.56-10,5.86-19.62,15.64-7.92,8-11.88,12.07-13.08,18.2-.94,4.74-.27,10-4.27,14.93-1.13,1.4-1.11.89-3.84,3.69-5.88,6.05-6.08,8.54-9.1,9.67-2.26.86-4.54.1-9.1-1.42-4.3-1.43-5.91-2.79-13.5-6.82-4.07-2.16-6.1-3.24-7.25-3.7-4.15-1.65-6.23-1.62-17.63-3.27-9.72-1.41-10.72-1.8-12-2.56-4.52-2.83-4.48-6.08-8.67-7.25-1.9-.53-4.4-.07-9.38.85-2.2.41-4.07.89-7.82,1.85-5.83,1.49-5.37,1.56-6.4,1.71-4.41.61-6-1.64-14.36-4.84a136.27,136.27,0,0,0-13.79-4.12c-3.89-1-6.82-1.72-7.4-1.85-12.37-2.85-14.4-1.95-22.89-4.26a110.5,110.5,0,0,1-13.08-4.7c-7-2.8-10.54-4.25-13.08-6.54-1.61-1.44-6.78-6.09-7.53-12.94-.6-5.43,2.09-7.68.28-12.36-1-2.59-1.9-2.14-4.83-6.26s-4.38-7.89-6.4-13.22c-.38-1-1.47-3.92-2.56-7.82-2.4-8.58-1.86-11.31-1.14-13.08.85-2.09,1.4-1.5,2.14-3.42,2-5.32-2.66-8.74-1-14.07.06-.19.05-.14,3.41-5.4,2.57-4,3.85-6,4-6.26,3.54-6,1.51-8.82,4.27-15.78,1-2.61,2.87-5.15,6.54-10.24,4.12-5.7,5.93-7.12,9.24-12.08,2.5-3.74,2.33-6.24,5.12-9a17.33,17.33,0,0,1,6.25-3.84c6.22-2.12,10.38.95,19.2,2.42,1.76.29,1,.07,15.64.28s22,.32,23.17.43c9.57.87,12.82,2.23,17.21-.14,3.56-1.93,5.46-5,7.11-7.68,1.47-2.39,5-8.06,4.26-14.93-.34-3.27-2.07-6.73-5.54-13.65-2.9-5.78-3.7-6.24-3.56-8.1.31-4.07,4.36-5.25,11.52-11.95a58.91,58.91,0,0,0,10-11.51,49.86,49.86,0,0,0,6.54-15.93c1.2-5.46,1.13-9.6,1-17.34-.11-6.33-.52-6.48-.71-12.23-.51-14.69,1.94-19.58,1.56-36A17.78,17.78,0,0,1,147.91,87Z"/><path d="M814.87,2090.28c-2.66-.15-8,13.29-4,16.77,1.82,1.57,5.47,1,7.39-.71,3.17-2.9,1.21-8.75.71-10.23a13.27,13.27,0,0,0-2.41-4.27C815.71,2090.81,815.27,2090.3,814.87,2090.28Z"/><path d="M684.21,2137.05c1.15.49,1.7,1.91,2.56,6.26.51,2.6.53,3.18.85,4.83.82,4.26,1.23,6.4,2.42,8.11,2.43,3.51,5.83,3.15,6.25,5.68.37,2.22-1.94,4.25-2.13,4.41-1.77,1.51-3.48,1.28-12.51.85a64.9,64.9,0,0,1-11.38-1.13c-3.91-.81-4.67-1.43-5-1.71-3.57-3.21-1.94-10.36-1.42-12.65,1.09-4.8,2.42-4.41,3.41-9.39.91-4.59,0-6.27,1.7-8.95,1.18-1.9,3.83-4.64,6.12-4.13,3.23.73,3.58,7.45,7.11,7.82C683.14,2137.15,683.43,2136.73,684.21,2137.05Z"/></g></g></svg>