<svg xmlns="http://www.w3.org/2000/svg" viewBox="0 0 2318.34 2025.38"><g id="Layer_2" data-name="Layer 2"><g id="Eritrea"><path d="M2275,1837.1c7.44,9,8.22,7.66,11.13,12.46a12.76,12.76,0,0,0,3.56,4.3,12.57,12.57,0,0,0,4.3,1.93c4.64,1.29,6.36-.14,8,1.19s.77,3.09,1.34,7.56c.82,6.6,3,6.24,3.41,11.72.44,5.23-1.38,7,.29,10.83a17.41,17.41,0,0,0,3.12,4.3c5.08,5.92,8.39,6.87,8.16,8.9-.17,1.51-2.13,2.26-7.72,4.6-3.82,1.61-7.56,3.38-11.42,4.9-10.31,4-9.4,5.45-20.47,10.09-9.07,3.8-9.85,2.93-13.8,5.78-4.64,3.36-5.48,5.95-10.08,7.27-3.05.87-4.93.38-8.16,2.22-2.32,1.33-3,2.51-4.45,2.38-2.76-.25-3.29-4.6-5.34-4.6-1.42,0-2,2.07-5.19,7.71-3.51,6.26-4.13,6.17-4.6,8.46-1,4.87,1.44,7.08-.3,9.05-.64.73-3.21,1.19-8.31,2.08-3.29.57-3.49.54-4.15.89-1.4.74-2.07,1.73-4.9,7s-3,5.87-3.26,6.67c-.66,2.41-1.24,4.55-.45,6.83.54,1.55,1.21,1.72,6.24,7.12,1.9,2,2.3,2.55,2.67,3.41.11.26,1.53,3.75-.15,6.82-.33.59-.81,1.25-5.19,3.86-4.09,2.43-6.14,3.65-7.87,4-2.76.57-3.56-.13-5.93.89a10.42,10.42,0,0,0-4,3c-2.16,2.66-1,4.22-2.67,5.49-2.33,1.84-5.26-.94-8.9,1a21.85,21.85,0,0,0-3.11,3c-3.65,3.76-4.19,5-5.64,5.19-1.93.27-3.65-1.55-4.6-2.52-4-4.15-9.24-7.06-13.2-11.28-.13-.14-7.46-7.16-22.1-21.21-4.95-4.75-6.08-6.15-8.9-8.46-3.88-3.16-10.64-8.68-16.92-9.64a31.23,31.23,0,0,1-5.19-1.19,20.72,20.72,0,0,1-4.89-2.07c-2.52-1.52-2.66-2.47-4.16-2.82-1.21-.28-2.72,0-5.19,1.63-3.31,2.22-5.28,4.91-9.49,11.13-3.61,5.32-4.9,7.38-7,7.41-1.59,0-2.81-1.16-3.56-1.92-6.94-7.06-12.5-16.59-14.53-20-2.38-4-3.81-6.42-6.09-9.79-3.17-4.7-4.93-6.72-9.79-13.2-4.69-6.27-7-9.41-8.3-11.43-5.64-9-4.08-10.34-9.94-19.73-2.84-4.54-4.22-5.85-5.64-9.79-.23-.64-.38-1.12-2.82-10.23-1.3-4.88-1.91-7.16-4-8.46a7.37,7.37,0,0,0-4.31-.89s-2.13,0-17.2-1.78c-2.5-.3-6.31-1.34-13.95-3.41-11.93-3.24-15-4.83-17.06-6.08-3-1.81-5.22-3.15-7.41-5.79-4.93-5.92-3.28-10.66-7.57-18-1.57-2.66-2.17-2.68-7.71-8.6-9.32-10-14.36-15.34-18.55-23-3.35-6.14-2.46-7-7.56-16.76-2.18-4.17-3.38-6-6.68-11.57-10.56-17.8-9.91-18.61-14.39-24.92-4-5.68-7.87-9.47-15.57-17.06-11.44-11.27-14.55-12-22.11-21.21a132.54,132.54,0,0,1-10.08-14.1c-3.89-6.36-2.93-6.17-5.2-9.19-6.77-9-12.84-7.43-16.46-15.14a47.4,47.4,0,0,1-3.12-9.79,33.23,33.23,0,0,0-1.93-7.27,15.14,15.14,0,0,0-2.82-4.89c-2.8-2.95-6.89-3.26-8.3-3.41-12.72-1.38-30.29-14-37.09-18.84-4.46-3.2-5.58-4.52-11.27-8.31a158.5,158.5,0,0,0-14.69-8.6c-14.76-7.9-22.14-11.85-27-15.28-13.23-9.34-10.65-12-22.1-18.55-8.13-4.66-12.58-5.14-18-11.12-3.56-4-4.13-6.55-8-14-4.41-8.39-5.81-9.13-12.91-20.47-11.63-18.59-10.42-20.7-20.17-35.16-6.49-9.62-6.31-7.62-13.2-17.8-1.62-2.38-4.27-6.38-18.55-31.74-5.88-10.45-9.4-16.81-15.43-25.52a115.81,115.81,0,0,0-8.75-11.42,126.06,126.06,0,0,0-15.43-14.54c-2.89-2.4-6.46-5.2-11.86-9.05a285,285,0,0,0-36.94-22.69c-7.93-4.06-13.71-6.53-22.4-10.24-13.63-5.82-16.44-6.29-35.31-13.94-18.67-7.57-16.91-7.51-23.29-9.5-14-4.37-18.12-3.32-29.07-8.45-4.69-2.2-8.67-4.68-16.62-9.65-9.19-5.73-9.7-6.73-16.91-11-8.66-5.1-17.45-9.27-18.25-9.65-6.88-3.25-11.13-4.82-16.31-9.34a36.82,36.82,0,0,1-5.79-6.08c-4.79-6.46-3.57-9.61-8.31-16.17-.22-.31-2.37-2.68-6.67-7.42-5.25-5.78-5.94-6.43-7.12-7.27-3.92-2.78-5.24-2-8.75-4.89-2.7-2.24-2.4-3.1-5.2-5.64-1.63-1.48-4.76-4.33-8.6-5.19-5.67-1.28-10.77,2.25-15.87,5.78-3.08,2.13-7.43,5.15-10.39,10.68-1.69,3.18-1.33,4.19-4.45,11.13s-4.28,7.69-4.89,8c-3.79,2-7.75-1-10.68,1.63-.77.7-.45.86-1.78,2.82a30.28,30.28,0,0,1-5.64,5.93c-4.63,4.1-7,6.16-7.27,6.23-3.7.87-7.32-2.46-13.65-8.45s-7-8.31-13.2-13.06c-4.13-3.17-6.38-4.09-8-4.6-4.22-1.3-5.39-.12-9.64-1.33-2.14-.61-7.21-2.06-9.79-6.23s-.29-7-3.27-10.53a12.2,12.2,0,0,0-5.93-3.56c-5.31-1.81-7.14.41-12.31-1.34a14.75,14.75,0,0,1-6.53-4c-1.53-1.7-1.55-2.67-4.15-6.23-1.63-2.22-2.46-3.34-3.56-4-2.13-1.28-3.62-.67-7.27-.89-3.32-.2-2.82-.75-11.13-2.52-3.37-.72-5.88-1.15-7.86-1.49-6-1-9-1.52-10.68-1.33-4.26.48-7.11,2.6-11.43,5.79a32.82,32.82,0,0,0-8.9,9c-2.32,3.66-4.23,6.67-3.56,10.09.77,3.88,4,4,4.75,8.46a10.45,10.45,0,0,1-1.93,7.71c-.63.8-2.46,3.11-4.45,2.82-2.25-.32-2.31-3.63-5.64-5.49a10,10,0,0,0-4.45-1c-6.32-.56-10.2-.9-13.05-2.22-6.53-3-5.52-10.27-11.42-11.43a34.78,34.78,0,0,0-6.08.3c-5.78.5-6.85,1.18-7.27,1.48-2.54,1.83-3.05,5.13-3.27,6.53-.81,5.27,2.12,7,.89,10.39-1.12,3.06-4.62,4.43-7.71,5.63-5.61,2.19-7.37.39-11.87,2.67a18.62,18.62,0,0,0-7,6.38c-2.84,4.62-1.51,7.72-4.45,9.94-2.62,2-6,1.31-6.68,1.19-5.8-1.14-10.13-7.94-8.75-11.87.94-2.69,3.82-1.91,8.31-6.08,1.69-1.57,5.43-5,5.64-9.64.07-1.61-.36-1.69-2.82-8.31-1.24-3.34-1.79-5.09-3.71-10.09-2-5.15-2.41-5.92-3.41-6.53-2.46-1.48-4.31.46-8.16-.29-1.35-.27-2.61-.8-8-5.34-5.82-4.89-8.72-7.33-9.35-8.76-1.06-2.4-.3-2.88-2.22-12.9-.46-2.4-.83-4.08-2.08-4.6-1.63-.67-3.41,1.19-6.08,2.67-2.94,1.63-5.67,1.93-11.13,2.52-10.36,1.13-12.32-1.83-19.88.15-3.27.86-6.11,1.6-8.16,4.15-2.74,3.43-.9,6.16-3.11,13.06a21.93,21.93,0,0,1-15.43,15.87c-8,2.87-10.18.34-13.94,3.26-3.23,2.52-2.2,4.84-7.27,9.8-2.11,2.06-3.33,3.22-5.34,3.7-3.86.93-5.4-1.93-9.64-1.78-2.15.08-4.68,1.74-9.65,5.05-9.82,6.54-9.64,6.45-9.79,6.52-7,3.53-10-.84-24.33-.29-7.62.29-13.87.53-20.17,4a55.27,55.27,0,0,1-9,4.45,48.44,48.44,0,0,1-8.9,2.38c-8.83,1.41-10.32-1.18-16.62.74a40.38,40.38,0,0,0-8.9,4.3c-4.19,2.57-4.7,3.76-7.27,4.3-1.23.26-2.16.21-9.64-1.63-7.24-1.78-8.09-2.15-9.79-1.63-2.73.84-3,2.55-6.08,3.11-.73.14-3.65.67-5.79-.89s-1.69-3.85-3.11-8.3a28.61,28.61,0,0,0-4.6-8.9c-3.24-3.84-5.94-3-11.27-6.09-4.16-2.38-7.38-6.53-13.8-14.83-4.86-6.28-7.28-9.41-8.31-12.16-2.15-5.79-1.57-10.06-5.63-14.25a30.93,30.93,0,0,0-4.45-3.56c-5.29-3.67-6.55-2.77-8-4.59-3.49-4.34,2.59-10.7-1-16.47-1.06-1.69-2.69-2.61-5.94-4.45a31,31,0,0,0-11.87-4c-3.9-.43-8,.45-16.16,2.23-8.82,1.93-9.25,2.67-11.43,2.08-6.16-1.68-5.29-8.24-12-11.43-5.75-2.72-8.48,1.08-15.13-1.93-1.84-.83-4.37-3.33-9.35-8.3-6.94-6.94-10.85-11.41-12-12.76-6.7-7.74-7.91-10.21-8.45-11.42-1.82-4.05-.95-4.46-3-8.75-1.78-3.79-2.35-3.25-7.56-11.13-2.27-3.43-3.29-5.23-5.79-7.12-1.46-1.11-4-3-6.08-2.23-1,.36-1.61,1.2-3.27,5.64-1.41,3.79-2,6-2.67,8a50.28,50.28,0,0,1-4.15,8.75c-4.18,7.74-3.58,7.77-8.6,17.51-4.88,9.45-5.15,8.8-10.68,19.13-7.07,13.2-7,15-12.61,24.33-4.55,7.57-4.59,6.35-9.2,14-5.78,9.51-7,13.53-13.5,26-3.77,7.21-5.65,10.25-10.09,18.1-5.48,9.68-15.81,28-25.66,48.5-5.29,11-15.06,32.36-20.92,42.88-5.6,10.06-6.61,8.4-8.45,13.64-.52,1.49-1.39,4.3-3.71,5.2-1.29.49-2.66.14-5.34-.6a20.7,20.7,0,0,1-7-2.82,14.14,14.14,0,0,1-5.2-5.48c-2.59-5.51,1.76-9.65-.74-13.8-1.09-1.83-2.27-1.59-7.12-4-5.89-2.93-11.05-5.5-14.39-10.68a22.64,22.64,0,0,1-3.41-11.86c0-1.72,1.16-3,.45-4.16-1.34-2.15-5.75-.17-7.27-2.22-1.35-1.83,1.38-4.4,1.33-9.2a15.76,15.76,0,0,0-2.37-7.57c-2.55-4.8-4.53-4.25-11.42-11.57-3.12-3.3-4.14-4.92-7-6.08a15.76,15.76,0,0,0-6.82-.89c-12.73.21-10.57-.71-17.65-.15a67.92,67.92,0,0,0-15,2.38c-6.07,1.78-5.75,2.79-12,4.59-8.28,2.39-10.36,1.06-13.35,3.71-1.07,1-1.72,1.93-4.9,10.83-2.23,6.25-3.34,9.38-4,11.72-2.24,7.95-3.48,12.36-3.86,18.54-.3,4.88.16,7.26-1.63,8.61s-3.38.25-9.79.59a27,27,0,0,0-5.64.6c-5.76,1.59-6.35,5.54-10.53,5.78-2.55.15-4.58-1.19-6.38-2.37-3.14-2.06-3.72-4.05-6.23-6.68-2.77-2.9-5.61-4.2-9-5.78-7.51-3.45-8.65-.94-17.06-4-6.29-2.3-8.13-4.61-13.5-4.6-2.75,0-3.32.62-6.68,1.19-5.17.89-10.29.06-20.32-1.63s-11.49-2.57-15.13-1.63c-1.24.31-1.31.47-9.35,3.85-5.45,2.3-8.18,3.45-8.75,3.56-5.61,1.14-11.93-.18-16-1a10.42,10.42,0,0,0-6.08,0c-1.56.58-2,1.32-4.16,2.38a21.59,21.59,0,0,1-4.89,1.63c-8.53,2-9.84.63-12.76,2.67a21,21,0,0,0-4.75,4.9c-1.15,1.72-1.49,2.87-2.07,2.81-1-.08-1.17-3.6-2.23-7.86s-2.11-5.65-3.56-9.49c-1.56-4.16-2.35-8-3.26-15.28-2.55-20.3-3.12-35.6-3.12-35.6,0-1,0-.47-4.3-47.62-4.19-46.2-3.93-43.64-4.15-45.84-3.49-34.58-4.63-34.58-8.31-69.87-2.43-23.27-2.44-28.13-5.34-54.44-1.73-15.74-3.34-28.64-4.45-37.24a112.59,112.59,0,0,0,17.06-14.68c3.63-3.86,7-8.05,11.87-8,3,0,5.76,1.62,6.67.45s-1.26-2.92-.74-5.64c.46-2.38,2.5-3.08,4.15-5,3-3.52,2.23-8.22,2.23-11.28,0-7.07,3.92-8.79,9.79-20.91,6-12.32,3.09-13,11.27-33.82,2.59-6.58,3.56-8.25,4.6-12.76,2-8.41.81-12.14,2.53-20.47,1.15-5.6,2.58-8.38,4.89-14.24,8.07-20.53,5.87-25.64,14.39-48.07a149.68,149.68,0,0,1,6.82-16c6.89-13.61,11.39-16.6,19.29-32.19a125.41,125.41,0,0,0,6.38-14.54c2.13-5.93,2.08-7.31,4.74-17.06,3.31-12.1,4.35-13.48,8.31-27.74,2.37-8.52,1.75-7.13,3.41-12.9,3.45-12,5.49-15.75,10.24-29.52,3.72-10.79,5.58-16.18,7.42-23,3.38-12.57,4.72-21.62,10.83-25.07,7.47-4.23,3.36-2.09,7.41-4.6,3.76-2.33,4.88-3,5.34-4.45.63-1.93-.44-3.59-2.52-7.56-2.78-5.32-4.17-8-4.89-10.24-1.66-5.2-2-12.72,1.18-14.69,1.72-1,3.4.12,5.34-1.48,1.1-.9,1.49-2,2.23-4.3a27.34,27.34,0,0,0,1.33-7c.24-4.42.36-6.62-.89-8.16-2.09-2.58-5.24-.88-7.86-3.86-1.69-1.92-1.43-3.84-2.82-4.15s-2.31,1.65-4.6,2.52-5.59.57-7.26-1c-2.35-2.24.23-5.34-.75-12a25.29,25.29,0,0,0-5.34-12.47c-2.74-3.27-5.45-4.44-5-6.08.46-1.86,4.19-1.34,6.38-4.3a8.72,8.72,0,0,0,1.33-5.49c.06-5.2.55-10.38.75-15.57.22-5.86,1.38-10.09,3.7-18.55s3.69-10.2,4.75-11.27c2.8-2.85,6.4-4.08,10.53-5.49,5.72-2,6.29-1,9.5-2.67,3.37-1.8,5.21-4.22,8.75-8.9s5.38-7.1,5.93-9.35c1.74-7-3.43-10-1.18-16.76,1.12-3.38,2.94-4.24,2.67-7.12-.29-3.05-2.43-3.28-4.31-7.12-2.89-5.94-1.23-12.54-.89-13.8.85-3.09,1.73-3.25,1.93-5.78.31-3.7-1.35-6-2.52-8.9-1.75-4.44-1.47-8.1-.89-15.43.67-8.45,1-12.68,4.15-16.32,2.31-2.66,4.62-3.32,4.9-5.93.24-2.31-1.43-3-2.67-7.57-.75-2.77-.21-2.78-1-6.23-1.05-4.39-2-4.69-1.78-6.67.32-2.81,2.59-5.59,5.19-6.09.57-.1,1.15-.11,4.16.89,4.13,1.38,5.59,2.23,9.34,3.56.65.23,0,0,5.2,1.64,5.4,1.7,6,1.93,7,1.63,2.71-.86,2.23-4,4.89-5.34,1.27-.62,2.93-.66,9.35,2.22,8.4,3.78,8.62,5.24,12.46,5.94,2.2.4,3,.07,11.13-1.19,11-1.7,9.43-1.09,13.64-1.93,10.52-2.11,11.53-4.21,19-4.6,4.87-.25,7.92-.41,11.28,1.34,4.29,2.24,4.49,5.21,10.38,8.75,2.71,1.62,5,2.95,7.86,2.67,3.27-.32,5.44-2.51,8.16-5.34,6.18-6.42,5.09-10.14,9.64-12.17,2.89-1.28,5.25-.63,7.12-3,.75-.93,1.1-2.07,1.78-4.3,1-3.2,1.07-4.72,1.49-6.38,1.19-4.8,3.31-4,5.63-9.65,1.86-4.51,1.28-6.91,3.86-8.9,1-.77,1.89-1,2.52-2.22.92-1.74.4-3.78,0-5.34-.69-2.71-1.49-2.73-1.63-4.6s.75-2.17,1-4.9c.34-3.23-.82-4,0-5.34.94-1.57,2.63-.87,5-3a6.16,6.16,0,0,0,2.23-3c.15-.58.46-2.34-3.41-7.71-2.94-4.08-3.8-4-4-5.64-.29-2.3,1.2-4.3,3.86-7.86A22.58,22.58,0,0,1,375,237.8c4.07-3.29,7-1.54,15-3.86,5-1.46,4.66-2.37,10.53-4a94.24,94.24,0,0,1,9.94-1.92c4.36-.71,8-1.28,12.61-1.78a187.43,187.43,0,0,1,21.66-1.34,44.65,44.65,0,0,0,11.12-1.19,14.58,14.58,0,0,0,2.67-.74c3.91-2.11,3-8.19,4.6-22.55,1.5-13.29,2.06-6,3.41-15.57.2-1.39.51-3.85,2.38-5.19,1.3-.94,2.6-.8,6.52-.45,9.53.86,10.85.84,12.76,2.23a12.55,12.55,0,0,1,3.41,4c2.64,4.25,1.68,6.81,4.6,11.28,1.86,2.84,3.14,3.18,3.71,3.26,1.76.25,3.2-1.07,4.3-1.93,2.64-2,6-2.95,12.76-4.75,7.37-2,9.51-.84,12-3.41.86-.89.85-1.26,2.82-5.93,4-9.4,4.23-8.35,5.34-12,1.57-5.2,1-7.23,3.41-10.09.65-.77,2.54-3,4.45-2.67,2.08.38,2,3.43,4.45,4.16,1.95.59,4.08-.78,5.64-1.78,2.85-1.84,2.66-3.22,4.3-3.56,3-.62,6.28,3.31,7.86,5.19,1.35,1.61,1.24,1.93,4,5.78,3.35,4.68,4,4.81,4.31,4.75,1.23-.21,1.82-3.36,3-9.64,1-5.28.83-6.17,1.93-7.42.79-.89,1.37-1,7.42-3.26,5.08-1.88,5.22-2,6.08-2.08s6.22-.63,8.9,2.52c1.56,1.83,1.17,3.71,3.56,5.64a5.69,5.69,0,0,0,2.23,1.19,6.88,6.88,0,0,0,4.3-.6c2.34-.93,2.16-1.73,3.26-1.78,2.18-.09,2.81,3,5.94,3.86a6.48,6.48,0,0,0,3.56-.15c3.42-1,5.07-4.49,6.52-7.56,1.26-2.65,1.83-5,3-9.65.37-1.51.63-2.55.89-4,1.32-7.19,0-8.52,1.34-9.94,2.54-2.72,7.79,1.66,13-1.63,1.52-1,2-1.89,4.3-3,2.66-1.24,4.45-1.13,5.79-1.48,3.1-.81,5-4.38,8-13.5,3.93-11.87,3.78-15,7-22.7,1.88-4.51,2-3.57,5.19-10.23,4.61-9.61,4.89-12.66,10.54-26.71,5.25-13.08,7.19-15.86,9.34-18.24,4-4.39,4.77-3.12,10.24-8.46,4.26-4.16,4.88-6,14.24-17.35C729.27,2.52,731.5,0,734.75,0a8.65,8.65,0,0,1,6.38,3c1.52,1.78,1.06,3,2.37,5.93,1.71,3.84,3.09,3.2,5,6.83,2.65,4.92.88,7.53,3.85,10.23a17.05,17.05,0,0,0,4.31,2.67c2.28,1,3.19.82,4.15,1.78,1.44,1.44,1,3.53,1.19,5.64.2,3.05,1.42,4.3,4.59,9.79,4,6.94,2.6,5.87,8.46,16.61,0,0,2.63,4.82,5.49,9.65C787.89,84.41,795.32,94,808,111.7c8.9,12.4,12.93,18.39,15.58,22.4,11.51,17.44,13.43,22.47,14.54,26,2.4,7.56,1.79,10.37,5.19,17.81,3.3,7.22,6,9.2,9.94,15.28,5.52,8.47,7.53,15.93,11.57,30.85,4.13,15.29,3,18.53,7.56,28.48,1.66,3.63,3,5.89,4,10.24,1.73,7.75-.32,11,1.78,17.65,1.59,5,3,4,5.64,9.94,3.26,7.37,2,11.25,4,21.21,1,5,1.93,7.29,4.6,15.28,5.74,17.18,10.23,30.59,13.35,45.4s1.8,16.28,5.34,27.89c2.07,6.77,4.16,13.63,8.61,22.1,5.76,11,9,12.22,9.94,19.43,1.11,8.23-2.4,11.37.74,16.47,2.61,4.25,6.89,5.08,8.3,10.38a13.29,13.29,0,0,1,.15,5.64c-2.41,17.39-4,29,.74,36.2a19.83,19.83,0,0,1,3.71,7.86,14.66,14.66,0,0,1,0,6.53c-1,4-3.24,4.63-3.41,7.26-.18,2.81,2.23,4.27,4.9,7.57,2.52,3.12,4.05,7.72,7.12,16.91,2.51,7.53,3.77,11.3,3.85,13.95.29,8.6-3.66,11.17-1.63,17.94.46,1.54,1.28,3.45,2.82,8.46.87,2.84,1.31,4.26,1.48,5.19a31.25,31.25,0,0,1-.29,11.72c-.7,3.82-1.23,3.73-1.19,5.79.07,3.58,1.7,5.11,2.82,8.6,1.23,3.87.69,6.57.59,9.79-.21,7,1.83,11.41,4.3,19.88,4.53,15.46,1.89,15,6.09,29.82,5.76,20.38,10,18.66,10.53,30.11.29,6-.51,13.34,4.3,17.8,1.75,1.63,3.86,2.5,5.34,5.49,1,2,1.24,4.12,1.78,8.46.48,3.83.29,4.75,1.19,6.52a9.27,9.27,0,0,0,3.86,4.16c2.28,1.19,3.34.25,5,1.18,2.59,1.42,2,4.6,3.71,8.16,1.5,3.12,2.94,2.72,10.23,8.46,7.63,6,6.35,6.67,11.28,9.64a47.59,47.59,0,0,1,8.6,5.79c3.28,2.89,3.71,4.28,3.86,5,.46,2.38-1,3.37-2.37,8-.76,2.53-1.49,5-1.19,7.57.15,1.31.65,1.5,5.34,8.75a12.9,12.9,0,0,1,1.78,3.26c.8,2.52.17,4.22-.15,7-.42,3.66-.91,7.85,1.19,10.23s5.23.77,7,3.12c1.46,2,.6,4.89-1,10.23-1.32,4.3-2.16,5.39-3.41,8.9s-2.73,7.67-2.67,12.46c0,1.85.13,11.7,7.12,16.17,3.79,2.43,7.93,2.21,10.24,2.08,6.52-.36,7.92-3.34,13.49-4.6a24.31,24.31,0,0,1,22,6.83c2.14,2.33,1.7,3.1,6.08,15.57,4.93,14,5.82,14,7.27,20.47,1.05,4.69.37,3.76,2.52,16.47,1.62,9.55,2.61,13.67,6.08,16.17,2.4,1.72,3.61,1,6.09,3.11s3.14,4.43,5,10.09c4.18,12.43,4.28,11.63,4.6,13.8.66,4.54.17,7.76-.74,13.79-1.57,10.32-3.51,11.69-4.16,19.88-.49,6.24-.79,10.08,1.49,14.09,3.31,5.85,10.13,8.61,11.72,9.2,3.85,1.45,5.84,1,9.64,3.41,2.5,1.58,2.85,2.53,5.34,3.56,1.2.5,5.25,2.18,8.45.45,1.46-.79,2.27-2,3.57-4.75,2.79-5.88,3.73-10,5.34-14.68,1.91-5.56,2.2-4.42,3.85-9.35,1.9-5.65,3.46-10.3,3-15.87-.51-5.82-2.62-5.41-4.9-14.84-1.74-7.21-1-9.4-3.11-11-4.29-3.15-11.15,2.86-14.24,0-1.91-1.77,0-4.65.29-12.76.19-6-.68-11.17-1.63-16.77-1.18-7-2.21-9.19-1.18-13.2a14.85,14.85,0,0,1,4.15-7.56c1.85-1.7,2.62-1.32,3.86-2.82,2.86-3.47.75-7.89,2.67-8.9s5.23,3.2,7.12,2.07c1-.56.5-1.86,1-4.74.22-1.18,1.17-6.29,5-9.5a12.44,12.44,0,0,1,4.15-2.22c5.23-1.6,10.18.89,12.17,1.93,7.56,3.94,6.53,8.54,14.09,12.46,4.61,2.39,5.24.8,9,3.11,6.71,4.08,4.63,8.93,11.12,14.69,4.37,3.87,10,5.84,17.06,8.31,3.58,1.25,4.49,1.28,6.68,2.52,1.37.77,9.78,5.5,9.64,12.46,0,2.49-1.17,4.37-2.37,6.38a23.75,23.75,0,0,1-6.83,7.12c-10.81,7.94-16.21,11.92-15.57,14.68.37,1.6,2.37,1.47,9.2,6.83,1.73,1.36,3.09,2.54,2.81,3.41-.46,1.47-5.09.58-5.63,2.08-.41,1.13,1.79,2.77,3.56,4.3a52.19,52.19,0,0,1,11.27,14.39,52.85,52.85,0,0,1,4.16,9.2,39.72,39.72,0,0,1,2.52,10.82c.54,8.11-2.53,11-.3,13.65,2.44,2.85,9.11,2.83,9.64,2.82,1.78,0,3.26-.34,4.9.59,1.31.75,1.67,1.68,3,3.56,2.87,4.19,4,3.83,4.89,5.94,1.4,3.27-.93,5-.89,9.2,0,6.23,5.35,10.94,7.57,12.9,1.88,1.68,2.55,1.77,14.53,7.27,11.81,5.42,12.6,6,13.65,7.12,2.3,2.47,3.75,5.3,7.86,7.42,1.9,1,3.13,1.6,4.75,1.48,4.45-.33,4.57-5.73,10.39-8.9,4.46-2.43,7-.69,9.49-3.56,1.13-1.31.93-2.07,2.37-7.12s2.73-9.54,4-9.49c1.46,0,.76,6.12,4.89,9a9.54,9.54,0,0,0,6.68,1.33c2.69-.34,6.59-1.89,6.82-4.15.18-1.7-1.87-2.13-2.07-4.31-.32-3.36,4.2-6.18,4.74-6.52,1.13-.7,5-3.09,7.42-1.63s.51,5.45,3.86,10.38a16.8,16.8,0,0,0,4.89,4.6,14.27,14.27,0,0,0,6.08,2.52c.73.1,6.17.75,9.2-2.52,1.38-1.49.68-2.08,3-7.27,1.67-3.79,2.21-3.86,2.08-5-.24-2.09-2-2.66-5-7.12-1.18-1.74-1.76-2.61-1.48-3,.47-.6,2.69.93,9.94,4.45a10,10,0,0,1,2.82,1.93,7.27,7.27,0,0,1,2.22,3.41c.61,2.77-2.17,3.81-2.22,7.12,0,1.45.77,2.85,2.37,5.64,2.09,3.64,3.14,5.48,5,5.93s2.49-1.2,5.64-1.63c.83-.11,1.91-.15,9.35,2.37,4.8,1.63,5.13,1.91,5.34,2.38,1.3,3-6.1,6.33-5.64,11.27s8.79,9.23,11.87,7.57c.47-.26.84-.66,3.11-2.23a19.72,19.72,0,0,1,2.52-1.63c1.85-.56,3.61,1.33,8.61,5.78,5.62,5,5.63,4.61,7.86,7,1.88,2,2.62,3.06,5,5.34s2.65,2.13,3.27,3.11c2.08,3.33.91,7.65.44,9.35-.89,3.29-1.87,3.22-3.26,7.41a19.66,19.66,0,0,0-1.34,7c0,2.09.12,6.55,2.82,8.3s5.71-1,8.46,1c.94.69.85,1.2,2.67,5.19,2.1,4.62,3.18,6.94,4.45,7.27,2.35.62,3.65-2.82,7.42-2.52,1.82.15,2.7,1,3.7.45,1.36-.81.41-2.83,1.64-4.16,1.5-1.62,4.48-.24,9.79,0,3.82.18,4.37-.44,7.41-.44,5.61,0,9.71,2.07,15.58,5,5.66,2.87,9.77,5,14.09,9.2,2.9,2.84,4.33,5.12,7.72,5.93,2.63.63,3.21-.4,7.86-.59,1.84-.07,3.14,0,11.57,1.33,5.51.86,8.26,1.28,9.35,1.49,7.16,1.36,12.35,3.06,21.06,5.93,11.25,3.72,8.83,3.6,13.06,4.6,6,1.42,10.6,1.59,11.71,4.45.57,1.46-.14,2.69-.44,4-.92,4,1.89,9.14,11.42,17.35,13.67,11.78,20.85,12.38,27.59,21.81a37.82,37.82,0,0,1,5.05,9,104.93,104.93,0,0,1,3.11,11.72c1.46,6.18,1.47,6.81,2.38,8.16,2.08,3.09,3.79,2.41,7.86,6.08,3.34,3,2.58,3.83,6.82,8.31,3.83,4,4.53,3.45,6.83,6.52a25.51,25.51,0,0,1,4.3,9.2c.9,3.79.22,5.06.59,7.57,1,6.89,7.9,9.3,19,18.84,5.22,4.48,7.82,6.72,10.53,10.23,6,7.74,5.69,12.19,12.91,25.81a85.65,85.65,0,0,0,6.82,11.57c6.2,8.53,13.49,14.46,19.88,19.59,2.2,1.76,5.16,2.29,6.82,5.19,1.81,3.14.65,5.36,2.23,9.49,1.25,3.27,2.64,3.59,5.34,7.27,3.92,5.35,5.49,10.79,6.82,15.43,2.06,7.14,1.91,11.45,4.6,12.31,1.16.37,2.61,0,4.6-.44,3.38-.81,3.89-1.92,5.19-1.49,1,.35,1.17,1.21,3.86,5.64.89,1.47,1.34,2.2,1.48,2.37,2.51,3,8.09,1.47,15.88.75,8-.75,12-1.12,14.24.14,4.39,2.49,3.62,6.57,11,13.65,2.07,2,3.14,3,4.9,3.71,4.14,1.67,6.86-.17,12.91,0,2.28.06,1.25.31,9.34,1.78,9.87,1.79,13,1.72,14.54,4.3,1.06,1.83.2,3.12,1.78,4.75,1.1,1.13,2,1,5.19,2.82a14.16,14.16,0,0,1,2.82,1.78c2.5,2.75-.88,6.44,1,10.53.84,1.78,2.93,3.27,7.12,6.23a16.41,16.41,0,0,1,3.71,3c1.78,2.13,2,4,2.67,5.93,1.34,3.74,3.32,4.3,8,9.5a52.48,52.48,0,0,1,7,9.19c2.27,3.92,5.7,9.82,7.57,15.88.28.92,1,3.19,2.82,4a5.38,5.38,0,0,0,3.41,0c3.31-.73,4-2.36,5.78-2.52,2.69-.25,5.06,3.22,6.23,4.89,6.9,9.86,1.78.89,13.06,16.32a93.82,93.82,0,0,0,9.19,11.13s1.25,1.65,1.49,1.48-5-5.73-3.56-10.53c.32-1.09.58-.77,1.78-3.12,1.33-2.6,2.44-4.78,2.37-7.56a11.19,11.19,0,0,0-2.22-6.23c-1.2-1.65-2.58-2.48-5.34-4.16a37.35,37.35,0,0,0-8.61-4c-3.66-1.14-5.62-1.09-5.64-1.63,0-.74,3.53-1.79,7-1.63a15.59,15.59,0,0,1,6.52,1.78c.88.45,2.81,1.56,6.38,5.63a58.13,58.13,0,0,1,4.9,6.38c1.37,2.09-1.06-1.72,13.35,18.1,7.62,10.48,7.89,11,8.31,12.16.89,2.51,1.49,7.2,2.67,16.47.92,7.29.92,8.51,2.22,10.38,2.61,3.75,5.62,3.22,9.2,7.42,2,2.39,2.81,4.61,4.15,8.6a68,68,0,0,1,3.12,15.73c1.21,11.23,1.82,16.85,2.37,20.32a177.85,177.85,0,0,0,4.6,22.4,41.73,41.73,0,0,1,1.93,8.9c.45,4.77-.42,5.29.44,6.83,2,3.46,6.85,1.73,16.17,5,5.25,1.86,5,2.85,9.2,3.86,3.24.76,8.79,2.08,13.8-.45,4.52-2.27,8.11-7.44,9.64-9.64,1.7-2.44,2.82-4.65,4.15-4.45.87.13,1.62,1.72,3.12,4.9a11.54,11.54,0,0,1,1.33,3.56c.2,2.12-.81,2.67-.44,4.45a7,7,0,0,0,2.22,3.41,15.93,15.93,0,0,0,3.86,3c2.71,1.48,3.14,2.55,10.09,8.46,8.62,7.34,8.11,5.82,11,8.9a47.54,47.54,0,0,1,8,12c3.19,7,2.48,10.42,5.48,11.86,1.13.55,1.87.37,9.65-1.18,8.09-1.62,9.59-1.89,11.12-.89,2.37,1.54,2.92,4.89,3.27,7,.48,2.89-.68,3.52-.3,6.53s1.41,3,2.37,6.38c.4,1.41,2.11,7.48-.74,10.53-1.53,1.64-3.1,1-3.56,2.22-.85,2.21,4.35,4.89,9.35,11.57,3,4,5.56,7.45,4.74,11.13-.78,3.52-3.91,3.72-4.45,7.42-.42,2.89,1.13,5.35,3.27,8.75,2.29,3.65,3.44,5.47,5.63,6.38,4.38,1.81,10.51-.67,14-3,1.9-1.27,2.88-2.41,4.15-2.07,1.92.5,1.41,3.56,3.41,7,1.88,3.19,4.12,3.54,12.76,8.9,2.85,1.77,4.73,2.07,6.38,4.15,2.17,2.74,1.33,4.43,2.82,5.34,3.18,1.94,7.45-5.52,18.1-8.45,4.29-1.18,6.88-.88,8.6-3.27.43-.6,1.12-1.8.89-8.45-.16-4.76-.61-6.91-.74-11.87-.19-6.91.55-7.46.89-7.57C2272.35,1833.75,2273.22,1834.93,2275,1837.1Z"/><path d="M2220.57,1801.2c-1.11.5-1.25,3.06-1.48,8.16-.16,3.45-.07,5.14,1,6.67.25.35,1.19,1.66,2.08,1.49,1.24-.24,1.71-3.25,1.78-4.9.14-3-.9-3.31-.59-5.93.26-2.27,1.16-3.06.59-4.15A3,3,0,0,0,2220.57,1801.2Z"/><path d="M2220,1783.55c-3.38,1.64-3.19,10.21-.45,11.57,1.81.89,3.82-1.79,7.12-.74,1.84.58,2.32,1.77,3.27,1.48,1.49-.47,2.33-4.11,1.18-6.82-1-2.46-3.41-3.49-5.64-4.45S2221.43,1782.84,2220,1783.55Z"/><path d="M2241,1815.14c-1.67,4.12-4.24,5.09-3.71,7.12a4,4,0,0,0,2.08,2.23c1.69,1,2.93.46,5,.59,3.66.23,6.74,2.19,9.35,3.86,2.3,1.47,3.06,2.42,3.71,2.08s.47-1.8-.3-7.12c-1-6.87-1.11-7.74-2.08-8.76s-1.21-.53-6.23-2.67c-3.94-1.68-5-2.5-6.08-1.92S2242.16,1812.39,2241,1815.14Z"/><path d="M1286.44,527.07c-2.8,1.66-4,4.07-6.08,8.45s-3.45,7.16-2.22,8.9c1.82,2.59,8.19.82,11.12,0,4.73-1.31,9.13-2.53,11-6.67,1.39-3.11,1.29-7.79-1.63-10.53C1295.06,523.89,1289.41,525.31,1286.44,527.07Z"/><path d="M1189.13,598.42c2.95-2,7.19-.45,9.49,1.19,1.89,1.34,2.82,3.19,4.6,6.82.37.76,4.69,9.61,3.41,10.39-.62.38-1.85-1.6-6.37-5.19-3.94-3.14-5.91-4.7-8.76-5.49-2.65-.74-4-.34-4.74-1.49C1185.76,603.05,1187,599.88,1189.13,598.42Z"/><path d="M1240.9,642.78c-2.46-.56-5.61,3.68-6.67,7.41-.55,1.92-.88,4.86.08,5.3.68.3,1.42-.91,5.55-4.85,2.49-2.37,3.36-3,3.42-4.3A3.65,3.65,0,0,0,1240.9,642.78Z"/><path d="M1261.82,651.38c-2.11-.68-5.69,4.68-7.27,8.75-.75,2-1.37,3.61-.59,4.6,1.31,1.68,6.21,1,8.3-1.78a7.38,7.38,0,0,0,1.19-4.15C1263.62,656.82,1263.64,652,1261.82,651.38Z"/><path d="M1252.32,683.72c1.75-.35,3.1,3.15,9,8.46,2.17,1.93,3.3,2.63,4.75,2.81,2.2.28,3.22-.9,5.19-.29a5.39,5.39,0,0,1,3.41,3.26c1,3-1.5,6.71-4.15,8.46-3.46,2.28-6.12.65-7.56,2.67-1.58,2.19-.24,6.66,2.22,9.34,3.24,3.54,6.77,2.17,8.9,5.64,1.25,2,1.68,5.18.15,7s-4.42,1.47-5.64,1.34c-4.28-.49-5.13-5.31-8.16-5-1.67.15-1.74,1.52-3.41,1.49-2.41-.05-5.15-3-5.64-5.94-.19-1.21.09-1.79-.44-2.37s-1.56-.78-5.34,0c-4,.83-4.32,1.34-6.38,1.48-1.73.12-4,.27-5.79-1-2.63-1.94-2.56-5.92-2.52-8.6.06-3.08.12-6.84,2.38-8.16,2.9-1.69,6.31,2.48,10.53.74a8,8,0,0,0,3.71-3.56c2.2-3.6.58-6.06,2.22-12.46C1250.54,686,1251.07,684,1252.32,683.72Z"/><path d="M1291.93,702.71c-2.9-.14-7.64.53-8.16,2.67-.27,1.13.87,1.75,4.31,5.78,3.74,4.4,4.07,5.65,5.63,5.79,2.5.22,4.74-2.72,5.64-4.6.37-.77,1.76-3.67.44-6.23C1298.2,703,1293.86,702.8,1291.93,702.71Z"/><path d="M1331.24,720.66c-1.28,1.07,2.34,5.67.75,9.94-.16.41-.5,1.19-.15,1.63.57.73,2.75.16,4.15-.74a6.21,6.21,0,0,0,3-5C1338.83,722.1,1332.54,719.57,1331.24,720.66Z"/><path d="M1293.12,656.57c-2.88.84-3.66,4.38-3.71,4.6a6.77,6.77,0,0,0,1.48,5.64c1.61,1.67,3.75,1.72,6.38,1.78s5.3.12,6.23-1.34c1.52-2.36-1.82-7.8-6.08-9.93A5.8,5.8,0,0,0,1293.12,656.57Z"/><path d="M1291,669.48c1,.43,1.28,1.53,1.63,12.61.17,5.18.17,7.26-1.33,8.45-1.08.86-2.51.93-4.75,1-2.46.12-4,.2-4.74-.74-1.18-1.49,1.19-3.69,0-6.23-.59-1.24-1.28-1-2.53-2.82-.58-.86-2.06-3-1.33-4.3s2.4-.27,4.3-1.63c1.37-1,1.17-1.93,2.37-3.41C1286.21,670.54,1289.28,668.7,1291,669.48Z"/><path d="M1253.36,737.72c-2.35-1.06-4.39,2.84-13.64,7.42-1.25.61-2.79,1.32-2.67,1.78s3,.12,7.86,0c7-.19,8.58.58,9.79-.75C1256.62,744.06,1255.72,738.78,1253.36,737.72Z"/><path d="M1225.92,766.79c4.89-1.66,9.73.39,12.91,1.78,5.28,2.33,5.77,4.22,11.27,5.94,2.74.85,2.7.4,5.34,1.33a25.3,25.3,0,0,1,9.64,5.94c2.13,2.14,3.35,3.38,3.56,5.34.24,2.27-1.16,2.92-2.37,7.12-.69,2.39-1.34,4.62-.59,7.12.14.49,1.46,4.72,4.45,4.89,1.73.11,2.4-2.34,3.85-2.07,1,.18.94,1.32,2.52,3s2.72,1.49,3.86,2.82c1.28,1.49,1.29,3.34,1.34,5,.16,5.86.36,12.61,2.22,18.09.31.9.84,2.32,1.49,4.6.81,2.9,1.22,5.16,1.33,5.79,1.28,7.25-.2,8.49,1.48,10.83,1.12,1.54,2.68,2.21,5.79,3.56a50.28,50.28,0,0,0,6.82,2.07c4.16,1.17,4.28,1.38,6.83,2.08,7.27,2,11.77,3.23,13.79,1.19,1.74-1.75-.23-4,1.78-8a11.39,11.39,0,0,1,5-5.05c4.2-1.94,8.26.16,8.45-.44.26-.8-6.48-6.06-13.5-4.75-3.08.58-4.64,2.12-8.16,1.63-1.13-.16-4-.55-5.19-2.82a4.88,4.88,0,0,1-.15-4.3c1.59-3.23,7.18-3.25,8.9-3.26,4.49,0,4.82,1.55,11,1.93,1.28.07,2.83.1,5.94.15,5.31.08,5.77,0,6.67.44,2.6,1.43,1.46,4,4.3,7.86a17.76,17.76,0,0,0,7.72,5.64c4.38,1.69,7.38.77,8,2.37s-2.39,3.13-2.08,5.94c.29,2.54,3.2,4.83,4.6,4.3,1.65-.62.15-4.75,2.52-6.68,1.8-1.45,5.29-1.22,7.27.45s1.23,4.06,1.78,13.35c.4,6.68,1.05,9-.44,10.09-1.29.91-2.63-.25-7.13-.74a36.29,36.29,0,0,0-8.15.14c-3.3.31-3.8.69-10.83,2.08-7.91,1.56-8.88,1.4-9.65,1.19-3.49-1-3.57-3.19-8.3-6.68a28.59,28.59,0,0,0-11.28-5.19c-2.59-.5-6.16-.14-13.2.59-4.59.48-5.54.73-10.53,1.19-8.4.78-10.86.56-12.76-1-1.27-1.07-1.63-2.19-3.41-3a7.71,7.71,0,0,0-5.49-.14c-3,1.19-2.84,3.86-5.79,5.63-1.19.72-1.81.63-6.37,1-9.59.86-11.34,1.61-12.91.15s-.5-3-2.37-5.19c-.56-.63-1.86-1.88-7.57-3-6.39-1.22-7.21-.12-10.53-1.48a14.33,14.33,0,0,1-6.53-5.19c-2.12-3.15-.13-5.52-2.37-8.31-1.52-1.89-2.76-1.48-4-3.56-.67-1.13-.85-2.65-1.18-5.64-.43-3.85-.11-4.18-.6-6.38-.62-2.81-1.62-4.44-1.33-4.6s.75.6,3,3.42c3.24,4.12,3.41,4.34,3.71,4.89,1,1.8,1,2.48,2.23,4.15a18,18,0,0,0,2.07,2.38c3.25,3.28,4.88,4.92,5.49,5.34,1.8,1.21,2.31.75,8.46,2.08,7.14,1.53,7.92,2.47,10.23,1.78,2.11-.64,3.43-2.11,6.09-5,3.29-3.65,4.94-5.48,4.89-7.42-.08-2.94-3.18-3.29-12.16-11.42-4-3.6-6.83-6.38-6.83-6.38-3-2.94-2.92-3-3.85-3.71-3.34-2.43-9.08-4.65-11.72-2.52-1.4,1.13-1.26,2.94-3.56,4.3a5.31,5.31,0,0,1-2.08.75c-1.64.19-2.34-.62-3.41-.75-3.17-.36-5.3,5.73-7.12,5.2-1-.3-1.49-2.5-1.19-4.16.41-2.27,2.07-2.39,2.52-4.45.5-2.22-1.28-2.71-1.63-6.23-.13-1.3.17-.64.74-6.08.22-2.07.27-3.06,1-4.15A5.16,5.16,0,0,1,1213,804c2.89-.94,6.08,1.42,7.57,2.52,2,1.47,1.9,2.12,3.41,2.67,1.92.7,2.73-.09,4.75.59,2.4.82,3.29,2.64,3.71,2.38.59-.39-1.93-3.78-2.53-8.9a20,20,0,0,1,.45-6.83c.73-3.3,1.51-6.87,3.86-7.71,1.9-.68,2.89,1.14,7.41,1.48,2.07.16,3.47.27,4.6-.59,2-1.56,2.14-5.48.89-8.16-1.44-3.1-4.63-4.39-8.45-5.93a45.48,45.48,0,0,0-5.64-1.64c-8.92-2.3-11.41-2.55-11.57-3.7S1224,767.46,1225.92,766.79Z"/><path d="M1269.09,770.35c-1.55,1.89-.79,5.53,1.18,7.42a6.92,6.92,0,0,0,2.67,1.48,6.19,6.19,0,0,0,4.16.45c1.7-.56,3.34-2.32,3.11-3.86-.06-.43-.25-.66-2.67-2.82a24.35,24.35,0,0,0-3.26-2.67c-1.31-.83-2.09-1.31-3.12-1.18A3.39,3.39,0,0,0,1269.09,770.35Z"/><path d="M1275.17,795.42c2.18-2.36,7.3-2.42,9.49.6,1.64,2.24,1.5,6-.59,7.56-1.81,1.38-4.31.58-5.19.3-.42-.13-4.58-1.53-4.9-4.9A5,5,0,0,1,1275.17,795.42Z"/><path d="M1299.2,819.9a7.74,7.74,0,0,1,6.08.45,7.37,7.37,0,0,1,3.12,8.45c-.72,1.8-1.91,1.45-3,3.71a9.18,9.18,0,0,0-.44,6.23c.66,2.09,1.84,2.68,1.48,3.41-.56,1.13-3.35-.27-6.38,1.34-1.5.79-1.39,1.45-2.82,1.93a5.37,5.37,0,0,1-5-.75,4.8,4.8,0,0,1-1.48-4.89c.69-2.24,2.89-1.82,4.15-4.15.86-1.61.58-3.7,0-7.87-.41-2.94-.81-3.59-.3-4.74C1295.55,820.88,1298.23,820.16,1299.2,819.9Z"/><path d="M1229.78,886.06a19.46,19.46,0,0,1,6.82,1.93c1.72.85,2.58,1.29,3,2.23a3.65,3.65,0,0,1-1,4c-1.75,1.39-4.47.11-5.64-.44-1.33-.63-2.12-1.47-3.71-3.12-1.88-1.95-3.38-3.51-3-4.3C1226.54,885.75,1227.83,885.87,1229.78,886.06Z"/><path d="M1351.12,906.68c2.54-2.39,8-.58,11.13,1.49,2.81,1.84,5.16,4.81,4.6,5.63s-4.12-2.16-10.54-2.37c-3.3-.11-5.4.61-6.23-.59S1350,907.77,1351.12,906.68Z"/><path d="M1429.3,882.21c1-.58,2,.77,5.79,1.92,2.77.85,4,.65,4.15,1.34.31,1.13-2.84,1.92-5.34,5.49-1.71,2.44-1.7,4.15-2.52,4.15-1.35,0-2.36-4.61-2.67-7.12C1428.41,885.64,1428.06,882.92,1429.3,882.21Z"/><path d="M1490.57,902.68c3.24.32,3.79,2.24,6.67,2.67,1.87.27,3-.32,3.56.44.38.56.1,1.37-.15,2.08a9.24,9.24,0,0,1-2.22,3.26c-2.66,3-2.65,3.25-3.27,3.41-1.71.45-3.41-.91-4.3-1.63a8.86,8.86,0,0,1-3.11-5.63c-.16-1-.53-3.38.74-4.31C1488.67,902.84,1489.16,902.54,1490.57,902.68Z"/><path d="M1504.66,876.72c4.51,1.81,8.52-1.69,10.68.29a3.13,3.13,0,0,1,.89,2.23c0,2.36-3.07,4.39-5.79,4.75a6.91,6.91,0,0,1-5.34-1.49c-2.2-2-2.8-5.48-1.92-6.08C1503.53,876.17,1504.06,876.48,1504.66,876.72Z"/><path d="M1513.71,895c3.21-1.25,8.34,0,9.64,3.42a3.63,3.63,0,0,1,.15,3c-1.41,2.65-7.09.39-9.94,3.71-1,1.23-1,2.33-2.08,2.67-1.46.45-3.65-.84-4.15-2.52-.17-.58,0-.83,2.08-5.34.9-1.92,1.36-2.93,2.52-3.86A6.9,6.9,0,0,1,1513.71,895Z"/><path d="M1440.28,760.41c3.22-1.84,8.3-.25,9,2.23.86,2.86-4.2,6.33-5.79,7.42-2,1.35-3.72,2.55-4.89,1.93C1436.41,770.81,1435.93,762.9,1440.28,760.41Z"/><path d="M1474,787.26c1.53-.12,2.87,1.72,3.41,3,1.35,3.13-.14,7.55-2.07,7.86-1.76.29-4.27-2.77-4.31-5.78C1471,790.17,1472.17,787.42,1474,787.26Z"/><path d="M1496.35,811.3c2.11-.56,5.14-.2,6.08,1.63a3.31,3.31,0,0,1,.15,2.37c-.89,3-5.71,4.6-9.49,3.86-1.6-.31-4.09-1.26-4.16-2.52,0-.82,1.46-1.8,4.45-3.71A12.51,12.51,0,0,1,1496.35,811.3Z"/><path d="M1312.11,620.82c-1,0-.84,1.64-3.86,6.23a8,8,0,0,0-1.78,4.16,3.44,3.44,0,0,0,.74,2.67c1.24,1.16,3.66.38,4.9-.3a7.47,7.47,0,0,0,3.41-5C1316.14,624.83,1313.8,620.75,1312.11,620.82Z"/><path d="M1105.17,750.62c2.82-1.93,7-1.75,9,.15,1.34,1.26.77,2.53,2.67,5.34,1.74,2.6,3.16,2.91,3,3.71-.36,1.52-5.67-.36-14.09,1-1.5.25-2.52.51-3.28-.12C1100.64,759.21,1101.37,753.22,1105.17,750.62Z"/><path d="M1038.41,669.48c-2,3.13,2.36,7.14,6.23,16.76,3.54,8.79,3.74,14.92,5.94,15,1.54,0,2.76-2.93,3-3.42.79-1.91.93-4.08-.74-9.94-.91-3.2-1.19-3.38-7-15.87-.95-2-1.94-4.19-3.71-4.45A4.11,4.11,0,0,0,1038.41,669.48Z"/><path d="M1149.67,903.86c-1.11,0-2.07,3-2.37,4-1.63,5.22-.29,9.91,1.48,15.87.7,2.36,1.63,5.43,2.37,5.34.34,0,.65-.72,1-4.6a51.6,51.6,0,0,0,.45-10.08C1152.36,911.1,1151.35,903.93,1149.67,903.86Z"/><path d="M1318.78,996.58c-.26.47-3.93,7.34-.74,10.23,2,1.81,5.82,1.31,8.16-.44a7.42,7.42,0,0,0,2.52-3.56c1.64-4.61-.59-11.08-3.71-11.57S1319.05,996.09,1318.78,996.58Z"/><path d="M1320.56,1018.68c5-5.52,6.53-6.15,7.72-6.52,3.14-1,7-.49,7.41.89.26.75-.64,1.37-1.63,3-1.44,2.33-1.24,3.74-2.07,7.72-1.3,6.18-2.34,5.42-2.67,9.19-.39,4.31,1,5.52-.3,8.16-.82,1.68-2.63,3.77-4.9,3.86-1.67.07-2.88-1-5-2.82-1.93-1.65-3.3-2.82-4.3-4.75-2.81-5.38-.07-11.4.29-12.16S1317.19,1022.43,1320.56,1018.68Z"/><path d="M1350.83,1031.89c-3.21-1.12-8.42,5.09-7.42,7.26.33.73,1.33.93,2.67,1.19s5.23,1,6.82-1.33S1353,1032.63,1350.83,1031.89Z"/><path d="M1342.22,1061.55a8.6,8.6,0,0,1,5.19,3.12c.82.87,1.14,1.47,3.12,5.64,2.78,5.85,3.19,6.85,2.67,7.86-.75,1.43-2.26.72-4,2.52s-1,3.25-2.67,5.93a10.23,10.23,0,0,1-3.71,3.71c-2,1.11-3.22.56-9.79.3-5.24-.21-6.6.06-7.12-.89-.29-.54-.24-1.35,3.27-6.82,3.26-5.09,3.55-4.9,4-6.38,1-3.34-.43-4.37.74-8.61a8.78,8.78,0,0,1,2.38-4.6A7.88,7.88,0,0,1,1342.22,1061.55Z"/><path d="M1377.38,1068.08c-1.71-.71-5.51,2-5.34,4.75.12,1.88,2,3.07,2.52,3.41,3.79,2.41,9.46.73,9.64-.74.15-1.21-3.52-1.47-5.49-5.19C1378.07,1069.08,1378.08,1068.37,1377.38,1068.08Z"/><path d="M1399.93,1055.47c-1,.7-3,2.45-2.52,3.71.52,1.52,4.25,1.43,8.75,1.34,3.5-.08,5.77-.16,6.23-1.34.52-1.34-1.61-3.26-1.78-3.41A9,9,0,0,0,1399.93,1055.47Z"/><path d="M1471.28,1110.8c3.13-1.1,6.88,3.3,9.5,6.38.76.91,3.42,4,2.67,5-.47.62-2,.23-4.16-.3a47.83,47.83,0,0,1-4.75-1.63c-4.17-1.4-5.27-.7-6.08-1.78C1467,1116.6,1468.57,1111.76,1471.28,1110.8Z"/></g></g></svg>