<svg xmlns="http://www.w3.org/2000/svg" viewBox="0 0 2309.46 1485.74"><g id="Layer_2" data-name="Layer 2"><g id="Estonia"><path d="M2103.77,1090l-51-83.55q-.91-28.85-1.84-57.68l23-38.45-70.83-291.93,139.11-135.57V451.46a19.88,19.88,0,0,0,5.51-4.38,22.62,22.62,0,0,0,2-2.69,29.76,29.76,0,0,0,3.11-6.36c1.15-3.36.8-4.66,1.55-10,.24-1.68.68-3.85,1.56-8.2,1.48-7.3,2.22-11,3.39-15,1.59-5.46,2.05-5.37,3.68-11.31.84-3.07,1.67-6.59,2.12-8.48,1.73-7.34,1.5-7.32,2.12-8.63,2.07-4.4,4.43-4.12,7.91-8.76,3.13-4.16,2.38-5.93,5.09-11,3.74-7,6.19-5.57,9.33-11.17,3.78-6.71.39-8.7,4.39-21.91a77.87,77.87,0,0,0,2.82-10.32c1-5.13.35-5.42,1.28-8.62,1.93-6.7,5.26-7.79,4.52-11.17-.64-3-3.36-3-4.38-6.93-.09-.34-1.14-4.62.85-5.93,1.51-1,4.28,0,5.79,1.69,2.51,2.74,1.39,6.94,2.69,7.21.41.09.7-.29,2.26-2a36,36,0,0,1,4.95-4.8,19,19,0,0,1,3.53-1.84c6.16-2.87,5.61-2.88,8.48-4.1,5.47-2.33,5.34-1.24,9-3.11s3.82-2.87,7.49-4.52a28,28,0,0,1,6.93-2.12c4.08-.67,4.64.32,13.29,1a41.11,41.11,0,0,0,11.87-.42,12.83,12.83,0,0,0,3.82-1.13c2.75-1.46,3.81-3.74,6.65-8.91,3.13-5.72,1.62-2.4,4.24-7.49,4.56-8.86,4.83-10.73,8.76-18.66,2.78-5.6,3.82-7,6.79-13.43,3.62-7.82,3.81-9.43,3.81-10.74,0-6.44-4.32-11.55-6.64-14.28s-4-3.78-6.5-5.94c-10.92-9.36-9.44-15.69-20.64-25.73-4.12-3.69-3.79-2.36-9-6.92-8.31-7.22-11.42-12.53-16.12-12-1.71.18-2.8,1.05-4.66,2.54-8.13,6.51-5.56,14.43-13.15,20.5-1.46,1.17-2.6,1.71-4.95,3.82-3.29,3-3.44,4-6.08,6.5-3,2.76-3.87,2.43-8.76,5.94-5.55,4-4.4,4.43-7.07,5.8-3.2,1.64-8.26,1.49-18.23,1.13-4.94-.18-6.46-.4-9.19.28-4.4,1.1-4.49,2.66-8.49,4-7,2.26-13.67-.3-15.83-1.13a21.47,21.47,0,0,1-7.63-4.67,14,14,0,0,1-3.54-4.66c-1-2.41-.56-3.59-1.55-4.24-1.55-1-3.51,1.33-7.49,2.12-2.85.56-3.92-.23-9.33-1a89.46,89.46,0,0,0-9.9-.71c-11.32-.21-23.25,3.6-26.58,1.7l-3.39-2s-1.68-1-1.7-1l-60.93-19.94-67.43.15-25,6.22-74.22.14a10.27,10.27,0,0,0-4.1-2.26c-2-.55-3-.14-5-.71a9.6,9.6,0,0,1-3.95-2.41L1784,112.74c.18-3.22.12-9.12-3-10.74a16.91,16.91,0,0,0-3.11-.85c-3-.7-4.87-.93-5.94-1.13-2.65-.5-3.82-1.49-8-4s-2.85-1.34-10.18-5.37c-9.91-5.44-9.42-5.83-12.58-6.93-1.46-.5-11-3.81-13.86-.28-1.36,1.69.19,3.22-.42,8.34-.28,2.36-.9,7.51-4.38,10.18-1.56,1.19-2.84,1.24-8.49,1.84-11.85,1.25-10.35,1.44-12.44,1.41-4.32-.06-10.7-.16-16.25-4-3.91-2.67-3.65-4.6-9.33-10-4.13-4-6.2-5.92-8.34-6.65-7-2.37-12.36,2.52-16.54-1-1.28-1.07-1.69-2.3-3.82-3.39a12.17,12.17,0,0,0-5.51-1.13,42.18,42.18,0,0,1-10-1.7c-5.81-1.89-10.29-7.84-17.39-17.25a7.51,7.51,0,0,0-2.83-2.4,8.66,8.66,0,0,0-5.79-.28c-3.74.93-21.21,1.26-52.87,1-4-10.51-7.12-13.25-9.33-13.57a8.67,8.67,0,0,1-3-.85c-1.57-.79-2.55-1.93-4.1-4.1-2.19-3.06-3.74-5.66-3.82-5.8-2.59-4.38-2.84-5.5-4.1-5.79-1.87-.43-3.88,1.42-5.09,2.54-1.52,1.41-1.54,2.14-3.67,4.53-1.79,2-2.75,3.06-3.54,2.82-1.08-.32-.5-2.7-2.12-6.08a15.18,15.18,0,0,0-2.54-3.67c-1.26-1.44-2.91-2.51-6.22-4.67-.68-.44-1.2-.76-1.56-.56-.86.47,0,3.49.28,4.66,1.61,6,1.91,12.36,3,18.52,1.27,7.34,1.66,10.78-.14,12-1,.7-3,.84-3.82,2.54-.39.78-.15,1.11-.42,1.7-1,2.18-6.21,2.24-10,1.41-1.25-.27-8-1.73-8.48-5.09-.09-.61.6-2.15,2-5.23,1.2-2.68,1.54-3.14,1.7-4.38a10.73,10.73,0,0,0-.43-4.38c-.43-1.51-.73-1.47-1.41-3.39-1-2.67-.55-3.27-1.27-4-1.17-1.12-2.59.07-5.66-.29a13,13,0,0,1-7.35-3.67c-2.12-2.1-2.34-3.93-2.83-3.82-1.41.32-1.48,16.29.29,28.13.22,1.49.75,4.79-1.14,6.93-.9,1-2.58,1.63-5.93,2.83-3.2,1.14-3.78,1-5.23,2-2.1,1.39-2,2.42-3.54,3.11s-3.31.16-6.64-1c-9.45-3.28-10.12-3.67-10.6-4.67-1-2,.6-2.9,1.13-7.63.42-3.83-.2-7.08-1.42-13.43-.8-4.18-1.46-6.09-.28-8.06.89-1.48,2.35-2.21,2.26-3.67-.07-1.15-1-1.83-2-2.69a21.93,21.93,0,0,1-4.94-7.63c-1.66-4.28.23-5.57-1.7-7.92-.85-1-1.15-.7-4.81-3.82a18.4,18.4,0,0,1-2.53-2.42c-1.4-1.68-1.29-2.29-2-2.53-1.81-.6-3.52,3.1-5.8,2.69-1.09-.19-1.73-1.23-2.54-2.54-1.94-3.14-1-5.21-2.69-6.65A5,5,0,0,0,1405,.07c-3.17.46-5.37,3.77-5.66,6.79a8.52,8.52,0,0,0,1.7,5.65c1.51,2,3,1.89,3.39,3.54.34,1.47-.5,3.05-1.13,4.24-.8,1.5-1.2,1.43-1.56,2.4-.63,1.74.34,2.82.85,5.37.74,3.73-.72,4.45.14,6.93.68,1.95,1.74,1.94,4.39,4.67,2.19,2.27,5.72,5.91,5.65,10.17,0,1.76-.63,1.54-1.7,5.38-1.38,5-.56,6.13-1.55,8.9-1.19,3.32-4.25,7-8.2,8.06-3.06.84-6.37-.65-12.86-3.67-7-3.28-10.56-4.91-11.74-7.64C1374.65,56.08,1378,51,1375,48.7a8.3,8.3,0,0,0-2.69-.84c-5.91-1.37-7.68,0-9.19-1.56s-1.93-4.71-2.12-5.94c-.13-.83-.2-1.74-.85-2.12s-1.51,0-3,.71c-4.4,2.09-4.32,2.09-4.52,2.12-3.28.41-6.54-4.37-7.78-6.93a9.13,9.13,0,0,1-1.13-4.1c0-2.19,1-2.53,1-4.66,0-1.37-.55-2.75-1.69-5.52a18.29,18.29,0,0,0-1.84-3.81c-2.06-2.62-5.78-4.08-6.79-3.11-.53.51-.2,1.62,0,2.4,1.13,4.34.71,8.27-.14,16.12-.57,5.33-1.41,5.15-1.13,8.2.16,1.74.56,3.24,3,8.9,2.31,5.44,3.46,8.16,4.38,9.76,3.87,6.74,6.75,8,6.5,11.73-.17,2.66-1.69,3.31-1.13,5.23.85,2.88,4.52,2.26,7.35,5.66,3.17,3.8,2.39,9.13,2.27,9.89-.28,1.69-1.46,3.76-3.82,7.92-2,3.59-3.08,5.39-4.1,6.08-2.74,1.83-5.25.52-11.17.14-6.55-.43-12.3-.8-15,2.26-3.15,3.59.8,8.61-3.11,13.15a15,15,0,0,1-5.8,3.67,21.07,21.07,0,0,1-7.07,1.56c-7.3.34-8.62-3.36-16.25-3.68-4.93-.2-4.83,1.31-9.19.71-3.18-.44-6-1.94-11.6-5-6.71-3.59-4.8-3.51-9.33-5.65-2.76-1.31-5.15-2.14-5.93-4.39-.64-1.82.22-3.3-.43-3.67-.92-.52-3.34,2-5.79,4.66-3.91,4.18-3.78,4.88-5.52,5.8-3.91,2.07-8.25.48-8.76.28a11.92,11.92,0,0,1-5.37-4.24c-1.85-2.68-1.29-4.46-3.4-6.5-1.41-1.38-1.93-.82-3.81-2.12-4.11-2.83-3.36-6.62-7.64-9.61-.83-.59-2.74-1.93-3.81-1.28-1.44.87-.55,4.76.14,7.78.88,3.89,1.47,6.45,3.39,9.19,3.27,4.64,6.37,4.08,7.63,7.77,1,2.82,0,5.47-1.13,8.34-.94,2.48-3,8-7.35,8.91-1.74.37-3.33-.32-6.5-1.7-4-1.74-7.75-3.36-10.6-7.07-3.31-4.28-2.78-7.93-5.52-8.62-1.15-.29-1.6.27-5.37,1.27a46.61,46.61,0,0,1-6.36,1.28,25.09,25.09,0,0,1-10.89-1.28c-4.56-1.64-5.07-3.48-6.92-3-3,.85-2.25,6-6.65,9.33a12.66,12.66,0,0,1-5.93,2.27c-.8.14-9.36,1.57-15.41-4.1a18.76,18.76,0,0,1-4.67-7.64c-1.27-3.5-.76-4.89-1.84-8.2-1.59-4.9-3.85-4.2-5.23-8.48-1.27-4,.08-5.54-1.83-9a9.91,9.91,0,0,0-3.54-4c-2.76-1.65-4.74-.55-8.34-1a10.39,10.39,0,0,1-1.77-.37,30.15,30.15,0,0,1-9.26-5.15c-2-1.47-9.27-6.82-11.73-5.09-1.07.75-.66,2.44-.28,6.93.86,10.36-.53,10.75.7,18.52.68,4.27,1.07,6.69,2.41,9.9,1.88,4.5,3.57,5.6,8.2,13.43,2.48,4.21,3.73,6.31,4,7.77.8,5.16-2,9.6-5.94,15.83-1.41,2.23-.64.66-6.79,8.91-3,4-3.6,5-5.09,5.37-2.83.77-4.22-1.8-10.46-4.66-3.86-1.77-4.19-1.18-11.87-4.1-6.91-2.63-7.84-3.56-7.78-4.24.15-1.65,6-1,7.49-4.1,1.23-2.58-.77-7.06-4.1-8.63-2.75-1.3-5.51-.18-8.05.85-1.59.64-9.33,3.77-9.62,9.76a8.74,8.74,0,0,0,2.41,6.36c2.22,2.21,4.86,1.86,5.37,3.67.3,1.06-.41,1.9-1.7,4.1-2.16,3.71-1.69,4.87-3.39,6.93a5.55,5.55,0,0,1-3,2.26,5.38,5.38,0,0,1-3.82-.85,31.42,31.42,0,0,1-7.35-5.79c-7.55-8.3-9.62-10.58-12.86-10.89a6.29,6.29,0,0,0-2.83.28c-2.94,1.07-3.45,4.12-5.8,7.21a16.45,16.45,0,0,1-6.64,5.23c-5.79,2.11-12.18-1.91-16.54-4.66a53.06,53.06,0,0,1-9.9-8.48c-5.83-6-4.84-6.73-7.63-8.48-5.56-3.51-8.34.3-20.21-1.56-7.24-1.13-11.42-3.37-14.42-.85a12.09,12.09,0,0,0-2.83,4.53,21.65,21.65,0,0,0-1.7,7.21c-.55,6.92,1.68,8.46.43,13.28a18,18,0,0,1-2.69,5.52c-2.47,3.84-5.25,6-9.19,8.9A66,66,0,0,1,899.75,185c-.28.13,0,0-9.62,3.68a48.66,48.66,0,0,1-8.9,2.82c-3.21.62-4.81.93-6.5.43-4.59-1.36-5.63-6.51-7.36-6.08-1.35.33-2.22,3.85-1.41,6.93.91,3.44,3.38,4.23,8.48,8.62,4.11,3.54,8.92,7.77,10.89,14.14,1.16,3.74.62,5.92.28,6.92a10.87,10.87,0,0,1-4.52,5.38c-3.73,2.6-10,4.67-15.41,2.4-1.72-.72-1.94-1.3-9-10-6.22-7.65-8.46-10.17-12.44-12-2.06-1-1.77-.43-5.94-1.84-8.53-2.89-9.94-5.19-15.83-7.07-4.51-1.44-13.08-3.1-14.84-.14-1.26,2.1,2.26,4.26,4.52,11.45,2.57,8.18-.2,11.05,3.11,16,1.19,1.78,1.45,1.24,8.06,6.51,5.54,4.41,8.36,6.68,10.6,9.61a25,25,0,0,1,5.23,10.89,26,26,0,0,1,0,8.19c-1.19,8.91-5.59,17.82-8.06,17.39-1.4-.24-1-3.31-4.38-5.93a10.92,10.92,0,0,0-3.53-1.84c-5-1.55-8.44,1.42-10.32-.43-1.31-1.28-.44-3.48-1.84-4.1-.63-.28-1.22,0-2.83.57-3.34,1.2-2.95.8-4.8,1.55-3.74,1.52-7.23,3.89-12.16,6.65s-7.52,4.19-9.76,4.24c-1.58,0-3.83-.54-8.34-1.7-5.14-1.32-5-1.61-6.64-1.69-4.51-.25-5.47,2.05-9.61,2.4-5,.42-9.25-2.49-11.6-4.1-5.31-3.65-6.05-7.31-9.89-7.49-1.05-.05-.83.23-5.23,1.41-6.19,1.67-6.43,1.06-8.2,2.12-2,1.21-3.29,2.94-5.8,6.36-1.89,2.58-2.38,3.8-3.67,4-1.55.19-2.11-1.39-4.81-2.68-.77-.37-4.57-2.2-6.5-.85-2.43,1.7-1.33,8.06.28,12,1.2,3,2.19,3.33,2.4,5.66.34,3.7-1.79,6.71-2.54,7.77a15.51,15.51,0,0,1-5.23,4.53,13.11,13.11,0,0,1-6.36,1.84c-6.13-.05-10.29-5.6-10.75-6.22-2.7-3.72-2.47-6.92-4.1-7.07-1.36-.13-1.94,2.07-5.51,6.08a45.65,45.65,0,0,1-5.37,5.08c-1.88,1.56-2.67,2-8.06,5.52-7.69,5-8.06,5.46-9.76,5.79-2.55.52-2.26-.35-9-.7-6.29-.33-7.9.34-9.76-1.13-2.66-2.13-2.46-6-3.39-5.94-.66.06-.7,2-2.26,6.08a11.75,11.75,0,0,1-1.56,3.25c-1.94,2.36-4.13,1.44-5.93,3.11s-1.66,4.91-1.14,11.17c.32,3.79.68,2.74,1.28,7.91.42,3.67.38,5.48,1.83,6.93,1.27,1.26,2.17.77,3.68,1.84,1.79,1.26,2.67,3.46,3.39,9.05.78,6,.17,6.8.71,11.31.83,7,2.37,5.87,3,12.15.49,5.23-.22,9.65,2.54,12a7.65,7.65,0,0,1,1.7,1.7,7.8,7.8,0,0,1,1,5.79c-.24,1.1-.71,3.25-2.26,3.82s-3.08-.54-4.67-1.56c-2.12-1.35-2.18-2.17-3-2.12-1.69.11-1.75,3.93-5.23,8.91a8.92,8.92,0,0,1-9,4.66c-7.66,0-9.94-1.45-11.88,0-1,.79-1.2,1.83-1.84,5.8-2.27,14.06-2.77,15.89-1.27,18.1s2.76,1.61,4.81,4.66c.84,1.25,3.32,5,1.83,7.35-1.11,1.8-4.08,2.22-6.22,1.7-3.66-.89-4.88-4.52-6.07-4.1s-1.08,4.94-.29,8.76a37.45,37.45,0,0,0,8.2,16.12,50.87,50.87,0,0,0,5.66,5.8c3.07,2.83,4.64,4.25,6.36,4.52,2.13.34,2.41-.76,7.77-1.84,2.77-.56,4.25-.84,6.08-.42s2.78,1.28,5.09,3c5.47,4,8.2,6,10.75,5.51,1.9-.36,3.08-1.84,4.66-3.82a17.67,17.67,0,0,0,3.54-8.06c1.05-6.5-1.87-11.16-.57-11.87.87-.48,2.71,1.31,3.53,2.12,3.91,3.81,3.36,7,7.07,10.89.25.25,3.59,3.74,5,3,1.09-.62-.14-3.44.42-8.62.14-1.24.31-2,.43-3.82.14-2.13,0-2.51.28-2.68,1-.64,3.83,3.66,9.9,9,3.05,2.71,4.15,3.22,4.52,4.94.65,3-1.55,6.41-4.24,8.06a10.47,10.47,0,0,1-8.2.85c-4.29-1.45-5.18-5.3-8.48-5.09a5.29,5.29,0,0,0-3.25,1.56c-2.48,2.36-.92,5.25-2.69,9.61a12.2,12.2,0,0,1-5,6.08c-2.81,1.64-7.06,2.32-10.18.56-2.12-1.19-2.59-2.89-4-2.68-1.52.23-2.5,2.58-3.26,4.38-1.13,2.71-.77,3.73-1.69,4.24-1.7.94-3.79-2-5.94-1.13-1.73.69-1.29,3-3.11,4.1-1.62,1-3.55.16-6.64-.85-7.08-2.29-10.65-3.45-13-2.12-.56.32-1.51,1-3.25,8.76-1.83,8.12-2.7,12.23-1,14.42,2.18,2.8,5.8,1.58,7.07,4.53.64,1.47-.14,2.08-.14,6.36,0,3,0,4.52.56,5.8,1.58,3.55,5.24,2.54,8.48,6.07,2.3,2.5,1,3.6,3.82,10.18,1.78,4.16,2.92,6.85,5.51,9.47,3.51,3.56,6.07,3.37,7.64,6.79.94,2.06,0,2.09.85,6.36a58.9,58.9,0,0,0,3.53,10.75c1.15,2.66,1.67,3.4,1.27,4.38-.84,2.06-4.75,2.7-7.63,2.4-3.63-.38-4.17-2.13-8.34-2.54-2-.2-4-.4-5.37.84-1.65,1.5-1.68,4.48-1.7,6.37,0,2.42.5,3.19-.14,3.95-1.26,1.51-4.37-.12-5.23,1.14-.63.92.72,2.24,1.69,5.08,1.57,4.57,0,6.7,1.42,7.78,1.65,1.25,3.88-1.53,10.46-2.83a28.7,28.7,0,0,1,9.75-.14c2.41.4,3.79.63,5.23,1.7a10.43,10.43,0,0,0,2.83,2,6.57,6.57,0,0,0,3.25.28c3.19-.44,5.27-2.74,7.64-4.67a34.1,34.1,0,0,1,8.34-4.8c6.93-2.59,14-.85,16.25-.28,2.81.69,3.71,1.33,9.05,2.68,5.7,1.44,6.86,1.27,7.49,1.13,4-.85,4.41-3.9,8.2-4.24a10.27,10.27,0,0,1,5.52,1.41c1.73.84,4.94,2.38,6.22,5.66s0,6.24-1.27,9.19a17.2,17.2,0,0,1-5.52,7.49,16.87,16.87,0,0,1-7.91,3.11c-8,1.2-13.73-2.93-15.41-.71-1,1.27.53,3-.85,5.23a6.2,6.2,0,0,1-3.11,2.27c-4.29,1.89-6.06,1.33-10.6,2.68-3.9,1.17-4.12,2-7.21,2.41a20.11,20.11,0,0,1-6.08-.29,18.45,18.45,0,0,1-8.48-3.11c-2.77-2.05-2.65-3.58-4.81-4.52-2.75-1.19-6.5-.92-7.49.85-.36.63-.06,1.94.56,4.52s.89,3.71,1.42,4.52c1,1.6,2.34,1.92,5.79,3.4,8.71,3.72,9.12,5.42,9.19,5.94a4.2,4.2,0,0,1-1.13,3c-1.29,1.8-3.07,2.51-7.35,3.82-4.65,1.42-6.29,1.73-9.76,3-3.87,1.39-4.8,2.08-5.51,2.83a10.09,10.09,0,0,0-2.54,6.36c-.27,4.62,2.59,5.24,3.67,10.6.77,3.79-.6,3.78-.42,12.44a32.85,32.85,0,0,0,.56,6.79c.83,3.87,2,4.94,3.4,8.76.9,2.46,1.36,5.32,2.26,11s1.34,8.61,1.13,11.87a36.84,36.84,0,0,1-1.84,8.77c-1.22,4.25-2.2,5.87-3.67,6.36-.93.3-1.54,0-2.13.56-1.32,1.27,0,4.52.15,4.81a8,8,0,0,0,4,4.24c3.78,1.59,8.83-.75,11.17-4.1s.7-5.66,3.25-8.34c2.41-2.52,6.52-3.22,7.35-2.12.4.53,0,1.35-3.11,7.64-1.35,2.78-2,4.2-1.83,5.37.1.61.46,2,4,4.8a54.74,54.74,0,0,0,5.65,3.82c4.27,3,2.89,5.36,7.35,10.32,4.28,4.76,6.13,3.24,9.19,7.78,1.44,2.14,2.22,4.24,4.38,4.8a5.66,5.66,0,0,0,4.24-.85c3.13-2.13,2.46-6.6,4-6.92s3,2.94,4.53,5.79a21.93,21.93,0,0,1,2.12,5.23,19.41,19.41,0,0,1,.28,7.21c-1.1,8.73-2.6,15.34-3.39,21.63a66.13,66.13,0,0,0-.71,9.47c0,2.34.23,11.33,6.64,26.72a125.33,125.33,0,0,0,8.49,17.25c5.14,8.63,9.65,13.67,8,19.37-.57,2-1.61,3-2.12,6.36-.34,2.22-.94,6.13,1.42,9.05a10.32,10.32,0,0,0,4.1,2.82c1.25.56,2.07.93,2.68.57,1.47-.86.11-5,.85-5.23.53-.18,1.42,1.84,3.25,4.24,2.06,2.69,4.82,5.25,5.51,4.81s-1.13-3.1-.42-7.07c.19-1,.39-2.08,1.13-2.41,1.15-.5,2.2,1.29,4.95,1.7a5.9,5.9,0,0,0,3.45-.37,6.89,6.89,0,0,0,2.77-2.88c1.25-1.92,1.12-2.59,2.12-4.38s2.17-3.89,3.53-4c1.94-.1,3,4.18,6.51,11.17a62.28,62.28,0,0,0,8.48,12.86c2,2.32,6.58,7.55,8.76,6.5,2.34-1.11-.44-8.26,2.83-10.32a5.13,5.13,0,0,1,5.66.71c1.54,1.48.85,3.62,2.26,4.24s3.45-1.06,3.53-1.13c2.09-1.82,1.69-4.42,2.55-4.52,1.06-.13,1.37,3.93,4.8,7.63a42.35,42.35,0,0,0,3.82,3.25c3.81,3.08,4.11,2.83,4.81,4,1.46,2.37.69,4.28,2.54,5.66.44.32,1.28.94,2,.7,2.63-.89.07-12.53,1.84-13,.8-.22,2.06,2,3.39,4.24a32.72,32.72,0,0,1,3.39,7.07c2.33,6.71,6,7.73,9.9,15.69,4.82,9.8,3.43,16.73,8.62,19.79.73.43,2.91,1.56,4.95,2.54a39.36,39.36,0,0,0,6.22,2.69c2,.53,5.62,1.53,9,0,2.09-.93,3.56-2.88,6.5-6.79,2.26-3,2-3.31,3.39-4.66a17.15,17.15,0,0,1,7.92-4.24c5.28-1.4,5.87.67,11.88-.71,1.45-.33,3.51-1.07,7.63-2.54a29.89,29.89,0,0,0,4.66-2,16.07,16.07,0,0,0,4.39-3.11c1.81-2,2.13-4.17,2.68-6.79.79-3.69,2.15-7.24,3.11-10.88,2.47-9.31,3.86-8.35,5.38-15a67,67,0,0,0,1.27-19.22,32.42,32.42,0,0,1,.42-9.62,14.08,14.08,0,0,1,2.12-5.51,13.54,13.54,0,0,1,4.1-3.82c3.93-2.43,7.78-2.38,15-2.68,6.82-.29,10.23-.43,12.15-.71,8.68-1.25,12.59-3.68,16.54-1.27a22.88,22.88,0,0,1,3.68,3.11c3.08,3.11,3.83,5.38,5.23,5.23,1-.11.94-1.4,2.83-3.25.82-.81,2.35-1.59,5.37-3.11,3.55-1.79,4.42-2,5.37-2.12,1.61-.16,3.6.06,3.68.56.09.66-3.21,1-8.2,3.68l-4.53,2.54a24.2,24.2,0,0,1,4.81,1.84,25.09,25.09,0,0,1,4.67,3.11c4.69,3.79,7.66,2.59,12.86,5.94a27.35,27.35,0,0,1,9.61,11.45c1.77,3.82.93,4.43,3.11,8.9,2.4,4.92,4.13,5.65,5.23,9.19a18,18,0,0,1-.14,10c-2.52,10.5-11.56,16.88-15.69,19.79a159.46,159.46,0,0,1-15,9.19,25.27,25.27,0,0,0-8.34,7.49c-1.36,2-1.57,3-1.42,3.82.48,2.7,4.38,3.15,4.67,5.65.14,1.23-.76,1.48-2,3.82-1.75,3.34-.81,4.5-2.41,9.19a34.32,34.32,0,0,1-2.54,5.65c-2.15,3.9-3.5,4.72-3.39,6.79s1.54,2.11,2,4.67c.24,1.45-.26,3.24-1.28,6.78s-1.58,4.63-1,5.66c.72,1.22,2.12.93,3.54,1.69,1.17.63,3,2.33,3.67,13.43.56,9.15-.59,9.58.57,15,.64,3,1.24,4,1,6.36-.29,2.67-1.31,3.54-3.39,8.9-1.28,3.29-1.91,4.93-1.84,5.94.27,3.79,3.54,4.26,5,9.19a15,15,0,0,1,.28,6.5,19.18,19.18,0,0,1-3.39,8.06c-1,1.54-1,1.8-7.78,23.89-2.86,9.31-3.28,10.62-4.38,13-2.7,5.86-3.78,5.82-7.21,12.3a76.22,76.22,0,0,0-7.21,18.8c-1.17,5.1-.43,4.59-2,12-1.13,5.42-2.4,9.82-3.68,14.27-1.57,5.47-2.35,8.21-3.25,10.61-2.62,7-4.66,9.69-5.37,15.69-.57,4.81.37,6.21.71,6.64,1.11,1.47,3.84,2.2,9.29,3.68,1.83.49,3.69.92,4,1,.63.14,2.94.67,4.1.85,4.5.69,8.71-1.18,9.89-1.7,2.71-1.2,5.81-2.58,7.35-5.8.69-1.44.75-3,.85-6.22.14-4.3.22-6.6-1.27-8.48s-3.2-1.36-4-3.11c-1-2.22.84-5.1,2.26-7.35a14.53,14.53,0,0,1,3.4-4,16.47,16.47,0,0,1,6.22-2.83c4.88-1.3,5.24,0,8.34-1.13s7.17-3.9,7.91-7.77c.37-1.92-.3-3,.57-3.82,1.44-1.3,3.87,1.23,6.93.28,2.44-.75,1.94-2.71,5.65-5.23.3-.2.26-.16,5.23-2.54,4-1.91,4.36-2.11,5.23-2.12a8.53,8.53,0,0,1,5.8,2.68c1,1,.76,1.3,2,3s3.55,4.91,5.51,4.53c1.09-.22,1.05-1.39,3.39-4.81,1.44-2.1,2.16-3.15,3.4-4a9.47,9.47,0,0,1,6.22-1.27,11.11,11.11,0,0,1,6.07,2.69c2.46,2.21,2.69,4.64,4.25,4.66.23,0,.7,0,2.26-1.55a29,29,0,0,0,3.81-4.67c3-4.27,2.87-4.34,3.26-4.52,2.56-1.2,5,1.53,7.35.14a4.75,4.75,0,0,0,1.69-2.41c2-4.36.07-7.09,1.84-9.47.52-.69,2-1.21,5.09-2.26,2.42-.83,3.83-1.17,8.76-2.4,6.28-1.57,7.21-1.82,8.2-1.13,1.47,1,.57,2.36,2.69,5.37,1.25,1.77,1.77,1.61,3.68,4.1,1.55,2,1.6,2.66,2.4,3,2,.77,4.77-2,6.22-3.4,5.88-5.52,6.7-2.84,20.21-12,8.36-5.68,6.32-5.53,9.48-6.93,8.37-3.72,12.56-.24,21.77-4.52a44.6,44.6,0,0,0,8.48-5.37,51.31,51.31,0,0,0,6.93-6.79,72.94,72.94,0,0,0,10-16.82,16.19,16.19,0,0,1,3.4-5.23,12.7,12.7,0,0,1,3.53-2.69c4.23-2.12,7,0,8.76-1.84,1.94-2-.42-5.46,1.42-7.07,1.32-1.15,3,.22,7.35.71,5.22.59,5.39-1.11,12.86-1,3.54.06,4.42.45,6.22-.28,2.91-1.18,4-3.56,5.66-3.11.73.2,1.24,1,2.26,2.68a21,21,0,0,1,1.84,3.82,30.45,30.45,0,0,1,1.41,6.93c.26,2.19.44,4.42.57,7.49.22,5.61-.09,5.21.14,8.2a37.73,37.73,0,0,0,2.12,10.6c.38,1,.76,1.9,3.39,6.65,5.58,10.06,7.9,13.42,11.31,15.83a12.46,12.46,0,0,0,4.38,2c1.38.32,3.83.88,5.8-.42a6,6,0,0,0,2.26-3.4c1.28-3.93-1.11-5.4-.56-9.61.45-3.5,2.21-3.37,3.11-7.92a13.51,13.51,0,0,0,0-6.78c-.35-1.16-.74-1.72-4.95-7.35-2.13-2.85-2.49-3.32-3.25-4.39-2.68-3.74-4-5.63-4.24-6.92-.12-.65-.2-1.67,2.4-8.2,2.54-6.38,3.24-7,4-7.07,1.24-.12,2.06,1.43,4.24,4.1,3.1,3.79,3.83,3.56,7.35,7.35,2.62,2.82,4.34,5.37,7.77,10.46,5.35,7.92,6.31,10.63,10.32,12.72a31.62,31.62,0,0,0,5.24,1.7c9.33,2.64,12,1.57,15.4,4.38,2.25,1.85,1.72,2.82,4.39,4.67,3.52,2.44,6,1.8,6.5,3.39.93,2.69-5.49,5.93-4.52,9.76a7.59,7.59,0,0,0,1.41,2.26,21.84,21.84,0,0,0,4.66,4.38c3.83,3,5.76,4.45,6.37,4.81,3,1.78,4.54,2.68,6.08,2.4,2.6-.47,3.46-3.16,5.79-2.83a3,3,0,0,1,2,1.13c.86,1.31-.42,2.68.28,3.68.5.7,1.48.51,5.23.56s4.33.28,4.67.57c1.49,1.28.51,3.56,2,4.52a3.52,3.52,0,0,0,3,0c3.68-1.43,3.67-7,5.37-7.06.61,0,.89.73,3.11,4.94,2.31,4.39,2.57,4.63,2.54,5.52-.07,2.63-2.38,3-3,6.36-.06.39-.59,3.68,1.14,5.09,1.19,1,2.29.08,4.66.28,4.83.41,5.23,4.52,11.59,6.93a6.35,6.35,0,0,1,3,1.83c1.1,1.31,1,2.51,1.56,4.1.69,1.94,1.89,3,3.81,4.81a23.74,23.74,0,0,0,9.33,5.09c3.61,1.17,5.38,1.95,7.21,1.41s2.37-1.58,5.09-4.38c4-4.08,6-6.12,7.64-6.36,2.39-.34,3.14,1.48,11.59,7.63,5,3.68,5.85,3.81,6.93,5.66,1.83,3.15.67,4.83,2.82,9.19,1.25,2.53,1.68,2,4,5.79,2.77,4.56,2.18,5.36,4.24,7.78a17.38,17.38,0,0,0,6.51,4.66c2.53,1.11,4.33,1.9,6.36,1.42,4.05-1,5.51-6.14,6.78-5.66.53.2.37,1.1,1.27,5.8a7.09,7.09,0,0,0,1.14,3.25,6.17,6.17,0,0,0,2.82,2c1,.4,2.37.76,5.52.56,3.32-.2,3.24-.69,6.08-.84a27.87,27.87,0,0,1,6.36.42,16.17,16.17,0,0,1,4.24,1c1.27.58,1.14.83,2,1.13,2.89,1,6.22-1.3,6.78-1.7,1.66-1.16,1.3-1.57,3.11-3.11,1.38-1.16,4.26-3.6,6.65-3s1.51,3.51,4.52,5.51a12.37,12.37,0,0,0,9.05,1.27c1.54-.37,2.52-.95,3.53-.42,1.34.69,1.6,2.71,1.7,4a66.07,66.07,0,0,1-5.51,29.26,66.19,66.19,0,0,0-2.69,6.78c-.38,1.13-1,3-1.56,5.52-1,4.37-1.48,6.59-.56,8.2.57,1,1.7,1.66,4,3,2.61,1.51,3.92,2.27,5.51,2.54,4,.69,4.82-2.28,10.46-2.69a12,12,0,0,1,7.07,1.28c1.68,1,1.66,1.65,3.68,3.25,3.41,2.69,5,2,6.92,3.67,3.3,3,.07,7,2.69,10.89,3.07,4.59,9,1.45,17,7.35,1.86,1.39,4.51,3.41,5.52,6.93s-.2,6.93-.85,8.62c-2.48,6.43-7.24,8-6.51,10.32.87,2.7,7.46.84,9.9,4.81,1.81,3-.74,5.77,1.7,8.76.82,1,2,1.8,4.52,3.39,2.21,1.43,2.41,1.29,3.11,1.84,4.24,3.34-.13,10.6,4.24,16.26,1.52,2,3.09,2.45,3.25,4.38.2,2.36-2,3.38-1.83,5.8.06,1,.52,1.54,3.39,4.8,5.08,5.79,5.86,6.79,6.64,7.92,2.16,3.11,1.58,3.18,2.69,4.1,2.91,2.41,5.72,1,9.33,3.39,2.26,1.51,1.47,2.29,3.39,3.54,4.63,3,8.9-1.68,14.14,1,2.51,1.27,2.32,2.75,6.36,4.94a19.74,19.74,0,0,0,5,2c3.9.94,5.27-.33,11.73-1,4.91-.49,2.84.37,11.88.15,2.27-.06,4.18-.16,5.37,1.13s.62,2.49,1.41,5.09c.74,2.41,1.66,2.94,2.83,5.09,2,3.74.65,4.73,2.4,10.88a32.08,32.08,0,0,0,3.68,8.48,30.72,30.72,0,0,0,3.53,4.53,17.82,17.82,0,0,0,4,3.53c2.84,1.67,7.18,2.5,10.6.71,1.32-.7,2.08-1.61,3.54-3.4,4.61-5.67,5.67-11,7.21-10.74.45.07.71.57,1,1.13,2.52,5.19,2,8.28,3.67,10.89,1.81,2.84,5.87,4.6,7.49,3.53,2.11-1.38-1.64-6.34.71-12.3.15-.36,2.74-3.17,7.92-8.76,2.94-3.18,4.46-4.78,6.64-5.09,1.49-.22,2.62.16,4-.71a6,6,0,0,0,2.26-3.67c.8-3.09-1.31-4.61-.56-5.66,1.39-2,8.3,3.29,14.27.57a13.79,13.79,0,0,0,4.25-3.4,19,19,0,0,0,4.1-6.64c.91-2.58.49-3.26,1.27-3.82,2.44-1.76,10.44,2.06,10.88,7.21a6.69,6.69,0,0,1-1.27,4.53c-1.48,1.82-3.74,2-3.82,3.25a2.18,2.18,0,0,0,1.13,1.69c2.31,1.43,7.49-.51,9.62-4.1,1.78-3,.23-5.15,2.4-7.35a9.06,9.06,0,0,1,4.67-2.12c2.19-.5,2.74,0,6.08-.56,1.79-.3,1.76-.46,3.53-.71,2.7-.38,3.31-.09,4.66-.42a8.77,8.77,0,0,0,4.53-3.11c4-5-1-11.52,3-16.83.54-.72.29-.14,4.1-3.11,7.28-5.67,7.54-7.27,10.46-7.91,4.41-1,8.3,1.69,8.9,2.12a12.67,12.67,0,0,1,4.39,5.65c2,5,0,9.32,1.41,9.9.92.37,1.67-1.51,5-3,1.64-.73,3.78-1.69,5.94-1,1.11.36,1.43.91,3.81,1.84a16,16,0,0,0,2.12.7,18.1,18.1,0,0,0,4.24.29,24.39,24.39,0,0,1,5.8,1.27,21.18,21.18,0,0,1,3.68,1.27c1.88.93,3.66,1.8,4.24,3.25,1.26,3.18-4.23,6.58-3.11,9,.63,1.41,2.73,1,7.63,2,3.37.69,8.24,1.68,12.44,4.81,3.58,2.65,2.65,3.86,6.08,5.93,3.69,2.23,7.66,2.58,10.46,2.83,4.17.37,4.76-.35,8.06.28s4.26,1.65,7.49,3c1.56.64,9.22,3.76,17.53,2.41,4.7-.77,6.07-2.39,8.62-1.28s2.38,3.15,5.8,6.22c1.93,1.74,3.64,2.57,7.07,4.24,6.21,3,8,2.45,10,4.95,1.78,2.17,1.07,3.35,3,5,2.39,2,6.56,2.71,8.2,1,1.23-1.28.63-3.63-.56-8.34-.87-3.42-1.37-3.9-2.69-8.2-1.57-5.12-1.12-5.27-2.4-8.77-1.73-4.69-2.72-4.89-3-7.35-.38-3.69,1.49-6.64,3.11-9.19,1.29-2,5.73-9,12.16-9.47,2.46-.17,4,.69,5.94-.56,1.66-1.11,1.21-2.33,3.39-4.38,2-1.92,3.81-2.19,3.81-3.4,0-.64-.5-.9-1.41-2-.52-.62-2.31-2.73-2.54-4.52-.36-2.72,3-3.37,3.11-6.22,0-2.16-1.87-2.48-4.67-7.49a38.56,38.56,0,0,1-2-4.24,45,45,0,0,1-2.26-8.63c-.51-2.62-.76-4-.56-5,.36-1.88,1.35-2.82,4-5.65,6.53-7.1,7-8.47,7.21-9.61.42-2.45-.57-3.46.43-4.81,1.37-1.86,3.75-.61,6.78-1.84,5.43-2.19,5.63-9.35,8.91-9.33,2,0,2.26,2.72,4.38,2.83,3.79.19,5.61-8.36,9.61-8.2a4.6,4.6,0,0,1,3.4,2.26c.68,1.17.37,2.06.85,5.8.31,2.49.54,2.83.84,3,1.21.54,3.53-2.16,4.1-2.83a13.05,13.05,0,0,0,2.12-3.25c2.18-5-1.2-8.1,0-14.42.83-4.33,2.85-5.11,2.12-8.06-.49-2-1.66-2.52-3.67-5.8a39.44,39.44,0,0,1-3-6.36c-4.6-11-6.76-13.67-5.51-15.12.66-.77,1.31-.09,7.35-1a18.84,18.84,0,0,0,4.52-1.13c1.65-.67,3.11-1.26,3.82-2.55.9-1.63-.07-3.17-.43-5.37-.71-4.39,1.53-8.2,3.11-10.89,1.38-2.33,3.92-6.64,8.63-8.19,3-1,3.67.21,8.2-.57,3.91-.68,3.86-1.66,9.19-3.39,5-1.64,9.86-3.22,13.85-1.28.7.34,1.56.88,3.39,1.7,2.92,1.3,4.38,2,5.52,1.7,2.62-.6,2.41-4.45,4.66-5.8,3.28-2,10.62,1.84,13.86,6.22a6.54,6.54,0,0,0,3.39,2.83c1,.29,2,.21,4.1-.43a24.48,24.48,0,0,0,7.35-3.11c1.52-1,3-2.56,5.94-5.65a80.83,80.83,0,0,0,7.63-10,4.59,4.59,0,0,0,1-3.53c-.25-1-.89-1.21-1.41-2-1.18-1.75-.06-3.84,1-8.34.85-3.65,1.27-5.47.84-7.21-.56-2.29-2.29-5-4.8-5.66-.5-.13-1.06-.19-5.37.85-5.08,1.23-5.17,1.53-6.37,1.42-.78-.08-1.44-.27-6.5-3.4-4.74-2.93-4.92-3.22-5.94-3.25a40.76,40.76,0,0,0-6.5,1.27,3,3,0,0,1-2.26,0c-1.1-.63-1.53-2.49-1.13-4,.48-1.78,1.83-1.69,3-3.82.19-.37,1.54-2.89.56-4.52-.63-1.07-1.81-1-4.8-1.84a25.34,25.34,0,0,1-5.94-2.12c-1.61-.93-2.84-2.75-5.23-6.36-3.91-5.89-4-7.56-4-8.63,0-.61.2-3,1.84-4.1a7.11,7.11,0,0,1,2.82-.85c2-.33,2.31,0,2.83-.28,1.59-1-.63-4.75.14-9.47.65-4,2.64-3.92,3.82-8.62a19.16,19.16,0,0,0,.14-8.63,18,18,0,0,0-7.35-10.88c-.3-.19-1.52-.79-4-2-2.08-1-2.44-1.16-2.83-1-.92.42-.67,2.11-1.13,6.36-.43,4-.86,4.46-1.13,4.67-1.67,1.32-5.46,0-7.63-2.27-1.65-1.68-2.16-3.64-2.69-5.65-.67-2.57-.35-3.49-.85-7.21-.25-1.88-.54-3.19-1.13-5.8-2-9-3.07-9.34-3.25-12.58-.11-2.1,1-5.17,3.25-11.31,2.36-6.43,3.61-8.47,5.94-15C2102.48,1094.27,2103.27,1091.7,2103.77,1090Z"/><path d="M516.08,1281.71a10.62,10.62,0,0,0-.85,6.93c.43,2.2,1,2,3.11,6.5,1.81,3.92,1.68,4.8,3.11,6.22,1.14,1.14,2.33,1.62,4.66,2.55,4.73,1.87,7.7,3,9,1.83s-.4-3.34-.85-9.75c-.39-5.55.68-7.13-.85-9s-3-.89-6.78-3c-4.62-2.54-5.55-5.84-7.78-5.37C517.54,1278.89,516.78,1280.36,516.08,1281.71Z"/><path d="M143,1052c7.21-.49,9.17-1.48,10.88,0,.87.75.49,1.11,2.55,5.51,1.69,3.61,2,3.56,2.12,4.53.3,3.19-3.33,5.16-6.79,9-2.34,2.64-3.68,5.48-6.36,11.17-3.91,8.31-6.15,13.07-6.36,19.65-.16,5,.95,8.81-1.41,10.6-1.8,1.37-4.45.73-5.09.57a7.72,7.72,0,0,1-5.52-5c-.91-3,1.32-4.65.29-6.36-1.42-2.34-7.07-1.79-10.75-.42a17.52,17.52,0,0,0-8.34,6.78c-1.78,2.69-2.19,4.79-3.53,12.44-2.52,14.36-3.22,19.11-6.51,20.5-2.17.92-4-.27-5.08,1.13-1.66,2,1.6,5.21,0,8.91-.59,1.36-1,1-4.1,4.66-1.79,2.16-2.68,3.24-3,4.1-1.1,3.21.94,5-.43,7.78a6.86,6.86,0,0,1-2.4,2.54c-3.08,2.26-5.64,1.45-7.49,2.55-2.89,1.71-2.48,6.51-2.12,12.86.23,4.07.41,6.71,2.26,8.06a21.49,21.49,0,0,1,3.67,2.83c1.06,1,1.21,1.45,1.28,1.69.49,1.79-1.61,2.72-1.7,4.53-.14,2.74,4.56,3,6.79,7.63,1.37,2.82.44,4.46,2.26,6.08a6.82,6.82,0,0,0,4.8,1.41c3.72-.14,6.14-2.57,9.48-5.51,8.39-7.39,8.17-5.22,12.58-9.9,1.87-2,4.45-5.52,9.61-12.58,3.11-4.25,4.06-5.72,6.36-6.78,3.95-1.83,5.93.27,10.18-1.28s6.64-5.38,8.34-8.2,5.14-8.51,3.11-13.14c-1.35-3.09-3.84-2.81-5-6.08-.95-2.83.09-5.49,1.42-8.91,1.47-3.78,2.52-4.3,6.22-11a40.84,40.84,0,0,0,3.11-6.37,23.08,23.08,0,0,0,1.41-9.47c-.27-3.51-1.23-3.74-.85-5.79.59-3.19,3.11-3.87,5.52-7.07,1.9-2.53,2.44-5.51,3.53-11.45,1.59-8.68,0-9.51,2-13.57s4.42-4.78,4.66-8.34c.16-2.23-.69-3.08-1.83-6.93a50.92,50.92,0,0,1-1.7-9.61c-.34-4.88.53-8.72,2.26-16.4,1-4.62,1.57-6.93,2.12-8.06,2.09-4.27,6.28-7,14.56-12.3,4.91-3.14,2.26-1.07,14.42-8.06,4.87-2.79,6.46-3.79,9.05-3.67,3.52.16,4.62,2.18,9.9,3.39,3.29.76,5.37,1.23,7.63.56,4.21-1.24,4.88-5.22,12-14.41,4.2-5.42,5.5-6,6.5-5.8,2.09.42,3.23,4.33,4.66,9.19,1.54,5.22,1.28,7.12,2.83,7.91,2.06,1.06,5.9-.52,7.92-3.25,3.47-4.69-.6-9.84,3.25-15.12.19-.27,2.46-3.33,4.24-2.83,1.95.54,2.39,5.08,2.83,9.47.63,6.41-.12,9,1.13,9.61,2.29,1.11,6.53-6.84,10.6-5.79,2.89.74,2.67,5.23,5.8,5.94,2.47.55,5.75-1.54,7.07-4.25,2.17-4.46-2.1-8.4.14-11.59,1.6-2.29,5.55-2.73,8.34-1.69,3,1.13,5.49,4.31,4.8,5.93-.62,1.47-3.35.55-4.52,2.27-1.8,2.63,2,8.64,3.25,8.34.6-.15.34-1.72,2-3.82.53-.68.8-1,1.13-1.13,1.78-.57,3.5,3.63,8.34,7.35a36.87,36.87,0,0,0,6.08,3.53c4.19,2.15,6.28,3.22,8.06,3.25,4.13.08,9.21-3.17,10-7.21.7-3.46-2.34-4.48-8.77-15.55-1.82-3.14-3.19-6.61-5.94-13.57-1.35-3.44-1.78-4.8-1.13-6.08,1.67-3.27,8.93-3.19,13.86-2s4,2.72,8.76,3.81c6.7,1.54,10.09-1.07,14.56,1.84,1.22.79,2.08,1.71,3.4,1.56,2.43-.29,3.89-3.9,4.38-5.09,1.06-2.62.87-4.13,1.27-6.93a26.48,26.48,0,0,1,3-9.47c1.34-2.32,4.14-4.51,9.75-8.91,2.92-2.28,4.52-3.33,5.23-2.83,1,.71-1,3.51.15,6.08s5.12,3.69,8.05,3.4c4.42-.45,8.36-4.18,8.49-7.5.06-1.69-.88-3.08,0-4.24.75-1,1.82-.45,2.82-1.13,2.73-1.84-1.24-8.45,1.7-14.56a12.18,12.18,0,0,1,3.25-4.1c3.49-2.77,6.5-1.68,7.35-3.39,1.23-2.47-4.68-5.41-6.08-12.16-1-5,.76-10.37,2.55-10.6s2.26,5.51,7.91,10.46c1.59,1.39,5.92,5.18,11.74,4.66.88-.08,5.12-.45,7.91-3.67,3.77-4.34,1.42-9.82,4.1-11,2.38-1.07,4.71,3,9.9,2.55a6.82,6.82,0,0,0,4.67-2c2-2.36,1.43-6.49-.15-9.19-2.3-4-6.67-4.67-6.36-6.36.26-1.42,3.34-1,4.53-3.4.65-1.29.35-2.64-.15-4.94-.87-4-2.34-5.24-1.69-6.22.82-1.24,4.4-1.19,6.64.56,2.7,2.11,1.87,5.42,4.24,6.36,1.88.75,4-.68,4.24-.85,1.5-1,1.79-2.37,3.68-8.05,1.66-5,2.07-5.87,3.11-6.65,1.95-1.45,3.71-.77,4.24-2,.7-1.59-2.3-3-2.83-6.78-.15-1.09.09-2.43.57-5.09a36.92,36.92,0,0,1,1.27-5.09c1.09-3.2,1.64-4.8,2.55-5,1.78-.29,4.6,4.33,5.51,8.91.68,3.41.22,6.47.56,6.5s.53-3.23,2.83-6.5c.86-1.22,1.42-2,2.12-2,1.58.08,1.64,4.24,4.24,9.75,1.46,3.07,3,5,5.8,8.63,3.43,4.37,4.76,5.06,5.51,5.37,2.75,1.14,6.79,1.19,8.06-.85,1-1.62-.1-4-.42-4.67-2.82-6-10.62-6.29-10.61-9,0-1.51,2.35-2.89,4.1-3.4,4.82-1.39,11.56,2,16.69,4.53.72.36,2.66,1.35,4.1.56,1-.54,1.12-1.6,1.41-1.55,1.07.17-2.06,14.55,1.84,16.4a3.21,3.21,0,0,0,3.11-.57c2.21-1.76-.15-5.19,1.27-10.46,1.17-4.33,3.54-4.88,3.25-8.06-.21-2.27-1.49-2.78-3.11-5.79-2.78-5.19-1-7.43-2.83-10.89-1.4-2.64-2.84-2.09-14.56-7.49-11.28-5.2-11.36-6.37-15.55-6.93a10.81,10.81,0,0,1-5.65-1.84c-2.87-2.14-2-4.38-4.39-6.07-2.91-2.08-5.38.44-10.74-1.28a15.42,15.42,0,0,1-5.8-3.39,16.79,16.79,0,0,1-4.94-10.89c-.15-4.29,1.75-5.47.7-8.76-.24-.75-1-2.69-3.95-5.09-4.34-3.5-8.52-4-12.73-5.23-5.61-1.58-14.63-4.13-19.22-10.89-3.67-5.39-1.9-9.65-6.37-12.58-2.81-1.84-4-.45-8.62-2.54-4.92-2.21-4.57-4.2-9.61-6.65-1.1-.53-4-1.29-9.76-2.82L406.94,736c-4.61-1-6.17-1.1-7.92-2.68-2-1.8-1.8-3.39-3.39-3.82-1.23-.33-2.16.41-6.64,3.25-3.19,2-4.8,3-5.52,3.11-1.24.15-2.06-.18-8.48-3.39-4-2-4.35-2.22-5.23-2.26-4.28-.24-7.74,4.24-8.06,4.66-4,5.38-.15,8.87-3.95,15.83-1.67,3-2.31,2.19-6.93,8.77-2.47,3.52-2.89,4.61-4.38,5.09-3.49,1.11-8.45-2.49-11-6.22-2.1-3-2-5.23-5.37-9.33-1.15-1.39-2.65-3.19-3.68-2.83-1.21.43-.44,3.44-1.69,7.92-.7,2.48-1.38,4.9-3.26,6.5-3.65,3.11-10.35,1.82-14.56-.85-2.49-1.58-3.76-3.48-6.22-7.21-3-4.62-3.49-6.65-7.21-14.28-4-8.29-6-11-8.34-13.43s-5.46-5.55-8.76-4.8c-.47.11-1.95.52-4,3.39-3.37,4.8-2.35,8.08-4.38,13.85-.79,2.24-2.65,5-6.36,10.61-3.57,5.35-5.41,8.07-8.2,10.18a26.69,26.69,0,0,1-9,4.24c-5.13,1.52-7.15,1-17,1.55-5.39.31-10.09.86-19.5,2a51.88,51.88,0,0,0-8.91,1.56c-4.77,1.33-5.19,2.31-9.19,3.11-5,1-6.87,0-8.2,1.55-.9,1.09-.49,2.08,0,7.78.6,6.94.22,8.28,1.56,9.47,2,1.77,4.24,0,6.5,1.69.62.46,2,1.75,2.26,9.62.19,5.86.32,10-1.7,15.12-1.13,2.86-2.33,5.78-5.23,7.35-1.82,1-2.39.42-6.07,1.42-5.36,1.45-6.41,3.3-8.35,2.54-1.75-.68-2.43-2.81-3.53-6.22a35.43,35.43,0,0,1-1.55-7.77c-.59-6-1.25-12-2.12-17.11-1.09-6.35-2-8-3.4-9.33-2.25-2-5.94-3.06-7.49-1.69-.83.73-.74,1.89-.42,5.37.87,9.62,1.16,11.27.42,13.71a10.27,10.27,0,0,1-3.53,5.65c-3.65,2.65-7.14.25-9.62,2.69-2.69,2.65-.78,7.69-2.68,8.34-1.54.53-3.1-2.64-5.8-2.26-.76.11-1.49.48-3,2a21,21,0,0,0-5.09,7.21c-2.08,5.06-2,10.46-1.69,15.27.91,17.07,3.11,21.14-.15,26.15-.46.71-3.32,5.11-7.2,5.09a9.26,9.26,0,0,1-4.39-1.56,21.38,21.38,0,0,1-5.37-4.38c-4.65-5.54-3.18-15.58-7.92-27.28-3.63-9-6.95-9.13-8.2-16.83-.44-2.73-.53-5.89-3-8.76a13.56,13.56,0,0,0-7.64-4.24c-2.46-.42-2.79.29-5.94.28A27.17,27.17,0,0,1,60,808.55c-4.92-2.2-6.74-4.43-8.35-3.53-.9.51-.61,1.39-1.69,4.66-1.59,4.82-3,5.2-2.69,7.36s1.74,2.2,2.41,5.37c.25,1.19.6,2.86-.29,4.1-.51.72-1.3,1.08-4,1.55a28.88,28.88,0,0,1-8.48.71c-2.73-.24-4.33-.38-6.08-1.27-5.18-2.66-5.86-9.06-7.35-8.77-1.19.24-1.32,4.44-1.41,7.35s-.14,4.45.56,6.22c.14.35,2,4.9,5.52,5.38,1.78.24,2.23-.81,5.09-1.7.63-.2,6.89-2.07,10,.56,1.53,1.28,1.12,2.61,2.27,7.07a41.16,41.16,0,0,0,4.8,11.6c2.26,3.6,4,6.44,7.49,8.48,1.5.88,2.43,1.09,3.12,2.26,1.3,2.22-.44,4.16-.43,8.48,0,2,0,4.82,1.7,6.93,1.82,2.28,3.74,1.44,8.76,4,3.52,1.76,5.44,2.72,6.51,4.8,2,4-1.61,7.1.7,10.46.77,1.12,1.27.93,5.09,4.67,1.83,1.79,2.09,2.2,2,2.54-.58,1.75-10.11-1.21-11.45,1.42-.54,1,.72,2.09,2.12,5.23.39.88,4,9.15,1.27,11.87-1.65,1.65-5.44,1.06-7.91-.28-4.33-2.34-3.68-6.45-8.34-9-1.9-1.05-5-2.05-6.23-.85-1.55,1.54.6,6,1.56,8.06,2.63,5.52,5,6,6.36,10.46.51,1.74,1.58,5.38-.42,8.06-2.13,2.85-7,3.64-9,1.84-1.8-1.57.1-3.75-1.27-7.92s-4.78-6.5-10.18-10.18c-3.4-2.31-4.09-2.12-4.38-2-2.11,1-2.24,8.18,1.13,13,2.53,3.63,5.19,3.28,6.22,6.5s-.3,7.55-3.11,8.91c-2.08,1-4.37.09-6.36-.71-6.15-2.45-6.86-6.65-10.47-6.64-2.77,0-5.81,2.51-6.07,5-.35,3.24,4.42,4.57,4.24,8.48-.11,2.22-1.69,2.58-2.26,5.79a13.66,13.66,0,0,0,.42,5.66c2.1,7.28,12.54,11.72,21.2,15.41,1.84.78,4.27,1.73,8.06,3.53,5.54,2.62,5.09,2.83,7.21,3.54,6.29,2.1,8.17-.37,12.16,2.12a17.81,17.81,0,0,1,5.65,6.08c1.1,1.92,1.48,3.46,1.84,3.39,1-.19-2-12.39,1.13-13.85,2-.94,5.94,2.78,7.92,5.37a19.35,19.35,0,0,1,2.83,5.23c4.87,12.85,8.51,12.75,9.33,20.07.67,6-1.49,8.68,1,11.88,1.41,1.83,3.33,2.52,6.22,3.53,5.34,1.87,7,.78,13,2,5.28,1,9.94,2,12.44,5.65,2,3,.94,5.2,3.25,6.93C135,1051.77,136.26,1052.44,143,1052Z"/><path d="M288.05,1013.82a5,5,0,0,0-3.67,1.84c-1.6,2.34-.4,6.77,2.54,7.63,2.36.69,4.8-1.21,5.8-3.11.19-.37,1.32-2.51.28-4.38C291.72,1013.51,288.4,1013.79,288.05,1013.82Z"/><path d="M260.77,1048c4.43.28,4.5-.33,5.65.14,3.19,1.31,3.9,6.46,4.1,7.92a10.65,10.65,0,0,1-.14,4.52c-.54,2-1.56,3.11-3.68,5.52-5.37,6.11-5.93,7.14-6.92,6.92-.62-.13-1.19-.7-2.69-6.08-2.39-8.6-2.15-11.6-2-13,.24-1.89.68-5.09,2.69-5.94C258.43,1047.76,258.8,1047.91,260.77,1048Z"/><path d="M786.94,1054.11a16,16,0,0,0-4,5c-1.43,2.45-5.83,10-3.25,16.54,1.21,3.07,2.68,2.66,4,6.36,1.44,4.19.1,6.29,1.83,7.92,2,1.9,6,1,8.2,0,3-1.37,4.44-3.79,5.8-6.08,1.46-2.48,2.58-5.33,3.53-10.47,1.73-9.33,2.83-15.31-.7-19.22a10.42,10.42,0,0,0-6.08-3.11C791.6,1050.34,788,1053.24,786.94,1054.11Z"/><path d="M847.44,1001.1c-3.18.71-5,4-7.91,8.9-4.55,7.69-5.76,9.27-5.24,9.76.74.69,4-1.6,5.8-3.11,2.27-1.95,3.43-3.82,5.66-7.5s4.18-7,3.25-7.91C848.87,1001.11,848.52,1000.85,847.44,1001.1Z"/><path d="M531.77,793.57c.93,0,1.65,1.84,1.84,3,.69,4.13-4.13,8-5.23,7.35C526.93,803.11,529.63,793.55,531.77,793.57Z"/><path d="M590.58,721.05c-3.18,1.25-4.35,6.16-2.12,8.62,1.78,2,5.35,2,7.49.14a5.21,5.21,0,0,0,1.84-4.8A5.68,5.68,0,0,0,590.58,721.05Z"/><path d="M442.28,720.62a5.39,5.39,0,0,0,.85,4.81,5.14,5.14,0,0,0,5.66,1.27,5.68,5.68,0,0,0,3.39-5.37c0-2.16-1.26-4.77-3.54-5.37C445.82,715.22,443,718,442.28,720.62Z"/><path d="M482.86,731.23c-3.28,0-4.19-1.63-7.36-2a11.5,11.5,0,0,0-6.64,1.41c-5.67,3.19-6.07,10.69-6.08,11-.19,5.14,2.64,8.78,5.37,12.3,3.67,4.72,6.85,9.16,11.45,9.33,3.4.12,5.78-2.11,10.61-1a12.83,12.83,0,0,1,2.82,1c3.51,1.7,5.36,4.63,6.93,7.35,5,8.69,3.71,9.05,6.36,12.3,3.9,4.76,6.18,3.28,10,8.2s4.16,9.85,5.94,9.75c.36,0,1-.26,3.11-5.37,2.59-6.35,2.35-7.86,4.24-9.76,1.55-1.55,4.45-3.28,7.21-2.68,1.38.3,2.22,1.07,7.21,6.64,3.42,3.82,4.2,4.76,4.95,4.53,1.43-.46.47-4.57,3.25-9.9.48-.92,1.4-2.69,2.12-2.54,1.39.28-.82,7.27,2.54,10.17,2,1.69,4,.42,8.34,3,1.55.9,2.65,1.56,2.83,2.69.34,2.17-3.24,3.14-3.39,5.94s3,4.77,3.67,5.23c1.06.7,3.86,2.57,6.51,1.27,1.6-.79,3.08-2.72,2.82-4.52-.42-2.94-5.08-3.07-5.65-6.08-.34-1.77,1-3.37,2.68-5.52,3-3.7,5.11-3.66,7.07-6.5a12.78,12.78,0,0,0,2-7.35c0-2.74-.68-5.48-6.36-14.14-.46-.71-4-6.45-11.17-18-.88-1.43-2.25-3.7-1.84-6.36.36-2.24,1.69-3,2.69-5.37,1.09-2.64.82-5,.42-8.06-.55-4.31-1.48-11.56-6.5-15.13-3.43-2.44-5.08-.54-11.45-2.12-5.53-1.37-5.87-3.2-18.09-10.6a99,99,0,0,0-14.71-7.64c-6.13-2.49-9.08-2.86-11.59-2.82a19.21,19.21,0,0,0-10.6,3c-1.5,1-5.31,3.46-6.65,7.91-.57,1.94-.06,5.23,1,11.74.8,4.91,1.12,5.78,1.14,8.34,0,3.45,0,7-2.41,8.9A7.58,7.58,0,0,1,482.86,731.23Z"/><path d="M597.5,587.6c3-1.58,12,6.76,10.61,10.46-.46,1.22-2,1.84-2.69,2.12a7.08,7.08,0,0,1-6.22-.57C594.92,596.91,595.13,588.83,597.5,587.6Z"/><path d="M524.56,482.42c4.21,2.12,4.61,5.26,11.59,13.15,1.56,1.75,3.1,3.36,4,3,1.36-.63-.9-5.4,1.27-7.5.86-.82,1.66-.51,8.91-1,2.79-.18,3.81-.3,4.66-1.13,1.53-1.48.43-3.19,1.7-4.66,2-2.31,8-1.89,11.31,1,1.5,1.3,1.68,2.45,2.83,2.54,2,.16,4.05-3.27,4.8-5.79a11.59,11.59,0,0,0-.7-8.35c-1.3-2.45-2.46-2.11-4-4.8-1.39-2.48-1-3.76-1.84-6.79a23.12,23.12,0,0,0-4.38-7.91c-3.33-4.38-5.88-7.75-9.47-8.06s-4.37,2.79-13.15,6.5c-5.46,2.31-7,1.9-7.92,1.41-2.53-1.4-1.43-4.69-4.1-6.92s-5,.1-10-1.28c-4-1.07-3.74-2.84-12.16-7.49-3.69-2-5-2.4-6.51-2.26-2.81.28-3.87,2.21-7.06,4.81-6.95,5.65-10.9,3.78-13,7.91-1.62,3.18-.57,6.78.42,10.18a28.55,28.55,0,0,0,5.94,10.32c2.88,3.55,3.95,3.69,7.78,8.34,4.76,5.8,4.39,7.16,4.1,7.64-.89,1.44-4.18-.09-5.52,1.69-.93,1.24-.25,3.2.71,5.94s1.91,5.49,3.25,5.51c2.25.05,2.38-7.82,6.08-8.62.87-.19,3.37,1,8.34,3.25,2.35,1.09,3.12,1.48,3.54,1.13,1.37-1.17-4.47-7.92-2.27-11.17.77-1.13,2.24-1.41,3.68-1.69A11.5,11.5,0,0,1,524.56,482.42Z"/><path d="M481.72,581.66c-1.23,0-3.75,6.9-1,9.05,2.17,1.67,6.76-.16,6.93-1.7.13-1.15-2.27-1.54-4.38-4.81C482.22,582.56,482.17,581.65,481.72,581.66Z"/><path d="M433.94,596.79c-1.57.49-1.69,5.93-1.69,5.93h0s1.92,1.93,4.24,4c1.31,1.16,1.66,1.39,2,1.27.8-.29.78-2.53.56-4C438.43,600.09,435.41,596.32,433.94,596.79Z"/><path d="M392.24,592.69c-3.66.79-3.71,3.95-6.65,4.52-4,.78-6.93-4.57-9.33-3.39-1.2.59-.76,2.09-2.12,6.5-1.06,3.45-1.84,6-3.95,8.06a12.26,12.26,0,0,1-7.5,3.25c-3.43.17-6.54-1.34-9.61-2.83-2.77-1.34-4.21-2.49-4.81-2s.33,3.14,1.28,4.81c3.68,6.49,10.33,7.86,12.58,12.44a5.46,5.46,0,0,0,1.13,1.7c1.78,1.77,3.74,1,4.81,2.26,1.49,1.72-.58,5.23,0,5.51s2.83-3.89,6.64-8.48c2.77-3.34,4.16-5,6.5-6.5,5.34-3.42,8.77-1.66,11.31-5.09,1.27-1.72,2.13-4.47,1.13-6.36s-3.58-1.88-3.67-3.11c-.12-1.53,3.69-2,6.5-5.8.75-1,2-2.66,1.41-4C397.25,592.72,394.42,592.21,392.24,592.69Z"/><path d="M442.14,522c-.52.5-1.82,2.17.57,9.9,1.75,5.67,2.62,8.51,4.24,8.62,2,.15,4.55-3.93,4.52-7.63,0-2.15-1.05-3.79-3.11-7.07-1.43-2.29-3-4.7-4.8-4.52A2.44,2.44,0,0,0,442.14,522Z"/><path d="M447,544.76c2.28,3.9-.71,6.59.7,10.32,1.7,4.48,7,3.13,10,8.63,1,1.78.24,1.55,1.84,7.63,1.94,7.38,3.28,8.56,2.54,11.31-.81,3.05-3.32,4.83-5.08,6.08-.3.21-7.08,4.92-10,2.68-3.12-2.35.19-10.77-2-11.59-.47-.18-1.59.45-3.82,1.7-2.83,1.58-2.69,1.86-3.39,2-2.77.46-3.86-4-8.62-6.08-2.81-1.21-6.9-1.56-8.34.28-1.29,1.64-.34,4.82.42,7.35.85,2.86,1.75,3.74,1.27,4.38-1.16,1.57-7.13-2.64-10.18-.28-1.35,1.05-.94,2.46-2.4,3.11-1.3.58-2.33-.21-5.65-1.27a28.62,28.62,0,0,0-6.23-1.41c-1.72-.15-2.44,0-6.64.56,0,0-3.54.44-7.77.85-6.06.58-6.41.25-9.76.71-2.88.39-2.92.67-9.33,2.26-10.06,2.49-13.27,2.6-14.28,5.09-.76,1.88.44,3.42-1,5.23a8.25,8.25,0,0,1-3.67,2.26c-2,.76-2.36.39-3.25.85-2.74,1.41-.82,5.78-3.4,11.59-1.59,3.59-3.66,5-3,7.07.49,1.45,1.66,1.39,2.55,2.83.63,1,1.57,3.51-2,10.46-2.3,4.51-3.57,5.15-7.21,10.46-4.32,6.3-6.49,9.45-7.35,13.71-.72,3.54-.18,5.25-1.56,10.32-.93,3.47-1.4,5.2-2.68,6.64-2.82,3.2-7,2.44-14.28,3-12.22.9-11.7,3.87-20.5,3.54-4.07-.16-8.13-1.38-16.26-3.82-12.2-3.67-14.46-6-15.69-7.92-.45-.7-3.27-5-1.69-9.47.16-.47,1.48-4.2,4.38-4.95,1.76-.45,3.11.45,4.38-.56a3.13,3.13,0,0,0,1.13-2.4c0-2-2.42-2.87-5.09-5.23a20.45,20.45,0,0,1-5.65-8.35,15,15,0,0,1-.57-8.62c1.14-4.39,4-5.48,3.4-7.92-.37-1.43-2-2.38-5.23-4.24-4.84-2.76-6.86-2.74-7.36-4.38-.55-1.82,1.6-3.09,3.26-6.22,1.76-3.33,1.59-6.55,1.27-13a66.76,66.76,0,0,0-3-16.12,54,54,0,0,0-4-10.46c-1.48-2.9-1.81-2.82-4.38-7.07-4.73-7.81-4.39-9.33-7.92-13.85a32.48,32.48,0,0,0-6.78-6.65c-2.83-2-5.19-3.67-8.34-3.67s-5.62,1.72-8.77,3.95c-4.87,3.47-6.21,6.38-8.76,6.08-1-.11-1.81-1-3.54-2.68-2.81-2.73-3.42-4.65-4.66-4.53-.92.09-1.15,1.18-2.27,2.55-1.56,1.92-3.47,2.66-6.07,3.67-6.84,2.66-16.74,2.23-18.81,2.12-4.81-.25-9.74-.54-15.69-2.82-4.32-1.66-7.15-2.75-9-5.66-2.29-3.52-.93-6.18-3.67-9.33-1.59-1.82-3.41-2.49-6.79-3.67-5.41-1.91-7.16-1.17-13-2.55-6.15-1.44-9.65-2.26-11.45-5.37s-1.29-7.46.7-10.46a11.41,11.41,0,0,1,6.79-4.53c4.76-1.25,8.63.52,12.86,2,9.1,3.15,16.63,3.78,23.89,4.39,4.75.39,9.34.12,18.52-.43,7.46-.44,10.27-.94,13.15-2.83,4-2.62,3.47-4.86,6.79-6.22,2.05-.83,3.32-.41,15.41,2.83,12.37,3.32,9.6,2.49,10.74,2.83,4.82,1.42,5.8,1.91,8.06,2,1.51,0,6.37.18,10-2.83,2.43-2,3.88-5.52,6.79-12.58.88-2.14,1.95-4.94,2.83-4.81s.33,2.63,2,4c1.28,1,3.08.73,6.5.14,2.84-.49,4.26-.73,4.81-1.55,1.7-2.55-2.38-8.17-3.11-9.19-2-2.83-3.67-3.67-5.23-7.07-.57-1.23-1.58-3.42-.85-4.1,1.21-1.13,5.36,3.69,9.61,2.4,1.13-.34,1-.72,3.82-3,4.64-3.66,6.26-3.58,6.78-5.38s-.6-3.56-2.54-6.64c-2.14-3.38-3.5-3.79-4.53-6.65-.16-.45-1.47-4.21-.14-5.23.85-.65,2.13.31,5.23,1.28a28.4,28.4,0,0,0,7.21,1.27c3.5.1,3.7-1.07,8.63-2,6.27-1.16,7.89.36,10.6-1.41,1-.64,2.33-1.86,4.1-6.93a52.69,52.69,0,0,0,2.83-14.56c.42-7.91-2.33-16.46-.29-21.07a2.53,2.53,0,0,1,1.42-1.55c1.12-.35,2.2.72,5.65,3.53,3.23,2.63,3.79,2.93,4.53,3.11.52.14,1.56.33,5.37-.7,5.11-1.39,5.64-2.38,7.91-2.27.48,0,.91.1,5.52,2.27,6.24,2.94,7,3.56,7.77,4.52a9.2,9.2,0,0,1,2,5.09c.15,3-1.54,3.75-2.4,7.78a18.8,18.8,0,0,0-.14,6.78c.53,3.93,1.68,4,2.68,8.34s0,4.89,1.13,9.61c.8,3.41,1.23,5.27,2.83,6.93,2.35,2.43,5.63,2.78,8.77,3.11,5.17.55,6-.9,10.32,0a25.31,25.31,0,0,1,7.21,3c3.9,2.13,4.47,3.38,7.77,4.52a12,12,0,0,0,5.94,1c3.42-.45,4.39-2.54,8.2-3a10.69,10.69,0,0,1,4.1.29c3.82,1.09,6.11,4.54,9.47,9.75,2.55,4,2.72,5.13,4.52,5.94,2.08.93,3.11-.06,6.65.85a19.22,19.22,0,0,1,5.37,2.4,31,31,0,0,1,5.09,4.1c2.55,2.33,3.82,3.49,4.38,4.67a11,11,0,0,1,.43,7.49c-1.12,3.52-3.44,4.08-3.26,6.36.14,1.64,1.39,2,3.68,4.52,3.86,4.33,2.74,6.16,6.22,9.47,1.13,1.08.73.39,5.94,4,4,2.74,6,4.13,6.92,5.38,1.79,2.4,1.38,3.54,3.82,6.78C445.8,543.73,446.16,543.41,447,544.76Z"/><path d="M569.94,257.93c-1.82,1.9,2.53,9.4,7.21,14,3.36,3.31,6,4.28,7.49,4.67,2.55.68,7,1.11,7.78-.57.61-1.24-1.71-3.81-6.37-8.9-5-5.43-6.7-6.55-7.91-7.21C577.25,259.42,571.52,256.27,569.94,257.93Z"/><path d="M756,225.27c.34-.36,2.13-2.24,4-1.84a3.12,3.12,0,0,1,1.55,1c2,2.11,2,4.44,2.83,6.37,1.23,2.93,3,2.09,8.48,7.2,2.56,2.4,3.85,3.64,4.67,5.8a14,14,0,0,1,.42,7.07c-.39,3-.85,6.55-2.69,7.21-2,.73-4-2.68-10.32-8.62-6.44-6.1-8.88-6.8-12.72-12.16-.47-.66-4.82-6.82-3.25-8.63,1-1.18,4,.17,5.94-1.83C755.39,226.26,755.23,226.06,756,225.27Z"/><path d="M775.49,223.86a6.32,6.32,0,0,0,.7,4.52c2.36,4.8,6.51,4,9.33,8.77,1,1.65,2.84,4.82,2,8-.25,1-.72,1.83-.28,2.69.59,1.17,2.39,1.36,4.52,1.56,3.24.29,4.85.44,6.08-.43,1-.74,1.28-1.9,1.56-8.2.38-8.63.07-9.93-.85-11.17-1.07-1.43-1.92-1.41-3.39-3.53s-1.25-3.2-2.27-4.81a10,10,0,0,0-10.17-4.1c-2.92.7-4.71,2.88-5.94,4.39A5.8,5.8,0,0,0,775.49,223.86Z"/><path d="M1147.85,19.72c2.69,1.71,5.14,0,6.36,1.42,1,1.13.1,3.09-1.56,8.48-1.77,5.77-2.75,9-1.69,9.75,1.44,1.09,4.53-3.83,9.47-3.25,2.23.27,3,1.44,6.93,2,2.43.34,3.64.51,4.24-.14,1.76-1.94-2.61-9.43-7.64-14.42a29.62,29.62,0,0,0-5.09-4.1c-5.43-3.43-12.63-5.39-13.57-3.82C1144.78,16.51,1146.15,18.65,1147.85,19.72Z"/><path d="M1068.82,54.64a5,5,0,0,0-3.32,5c.15.88.84,1.61,2.19,3,2,2,2.92,3,4,3.25,3.28.68,8.07-4.09,7.21-7.07-.48-1.65-2.59-2.42-5.65-3.53C1071.16,54.6,1070.09,54.23,1068.82,54.64Z"/><path d="M983.72,46.16c4.15,2.73,4.07,7,7.07,16.82,2.75,9,4.12,13.51,5.94,17,1.61,3.07,3.37,5.74,2.26,7.63-.92,1.56-3.43,2-6.93,2.54a12.52,12.52,0,0,1-4.66.29c-2.23-.45-3.23-1.69-6.93-5.37-5.22-5.2-5.71-5.22-7.49-7.64-2.14-2.9-3.33-4.57-3.26-6.78.1-2.81,2.15-4,4.1-6.65,5.88-8.06,2-17.74,5.8-19.08C981,44.39,982.54,45.39,983.72,46.16Z"/><path d="M675.54,631.42c.51,3.45,5.26,5.39,6.64,4.38.74-.53.54-2,.14-4.8-.45-3.28-.73-5.31-1.83-5.66C678.83,624.82,675,628.05,675.54,631.42Z"/><path d="M.37,926.88c1.69-1.57,11.28,4.4,10.6,6.78-.37,1.32-4,1.9-6.64.71C.55,932.7-.7,927.87.37,926.88Z"/><path d="M13,893.94c-2.15,2.34-.7,8.38,2.26,9.61,1.54.64,2.26-.51,5.37-.7,3.77-.23,4.3,1.35,8.49,1.69a21.86,21.86,0,0,0,8.9-1.41,16.56,16.56,0,0,0,6.51-3.25c1.27-1.11,3.45-3,3.11-5-.46-2.54-5-3.55-6.23-3.82-3.72-.83-4.81.28-12.72,1-6.08.55-9,.71-9,.71C15.06,893.05,13.87,892.93,13,893.94Z"/></g></g></svg>