<svg xmlns="http://www.w3.org/2000/svg" viewBox="0 0 1841.68 2449.12"><g id="Layer_2" data-name="Layer 2"><g id="Eswatini"><path d="M495.27,2273.68c13,3.85,33.4,10.26,58.09,19.53,26.31,9.89,45.07,18.65,51.41,21.2Q702,2353.5,794.9,2383.68l163.92,61.43,667,4L1622,2144.48q9-91.3,18-182.61l15-81.63,8.84-110,13.86-82.13-6.18-16.36.84-3.67c8.77-2,16.19-3.26,21.87-4,5-.66,8.54-.94,11.35,1.17,2.24,1.68,2.38,3.64,5.67,6.68a26.18,26.18,0,0,0,6,4c6.25,2.95,12.42,2.16,18.2,1.34,3.66-.52,3.81-.88,11.35-2.67,13.3-3.17,12.68-2,17.52-3.67,11.89-4.07,13.61-10.32,20-9.19,3.82.68,6.3,3.42,9.85,7.35s3.71,5.8,8.85,14.52c3.71,6.31,3.09,4.4,8.85,13.69,4,6.5,5.39,9.14,9,12.35,4,3.58,7,4.39,8.51,4.68a16.4,16.4,0,0,0,7.18-.34,16.58,16.58,0,0,0,4.51-2q.25-238.79.5-477.57l-78.29-181.62-3-170.76,36.39-193,2.67-3.17-24-214.33q.09-15.27.17-30.55l-87.8-12.18L1659.06,422q-17.85-32.22-35.72-64.44l-148.23,69.61L856.49,0,719.61,37.89,655,127.2l-60.42,58.59-136,124.52q-9.09,45.92-18.19,91.81L233.19,825.78l-86.3,85.46-11.35,11.19q-17.94,37.73-35.89,75.45l-24,35.05q-11.85,12.6-23.71,25.21Q34.47,1101.86,17,1145.6,8.68,1221.72.33,1297.84L0,1550.56l16,143.89,15.36,27,45.91-37.22,20-1.67,33.55-24a66.68,66.68,0,0,0,5.84-19.36c.28-2.09.67-6,1.5-6s1.54,3,1.84,4.67a21.25,21.25,0,0,1,.17,5.35c-.26,3.47-.86,4.07-1,6.67-.12,2,.21,2.06.66,6.18.6,5.51.14,6.73.84,10.85a39.19,39.19,0,0,0,1.33,5.51l11.52,61.93,57.59,56.92,35.22,26.37q2.76,6.09,5.51,12.19v67.1l-23.7,49.75,37.05,70.1,78.12,70.45,42.4,36.72,49.08,70.78Z"/></g></g></svg>