<svg xmlns="http://www.w3.org/2000/svg" viewBox="0 0 2463.43 1917.16"><g id="Layer_2" data-name="Layer 2"><g id="Ethiopia_Map" data-name="Ethiopia Map"><path d="M825.67,12.93c2.31,3.49,3.61,6.2,7.21,10.4a39,39,0,0,0,7.21,6.86A35.36,35.36,0,0,0,849.67,35l21,.71q.36,4.13.71,8.27c.36.62.91,1.54,1.66,2.6C876.15,51,879.16,53,882,55.37a50.58,50.58,0,0,1,8.15,9.46c4.66,6.4,4.93,9,8.63,11.11,2.17,1.21,4,1.37,7.69,1.66a47.56,47.56,0,0,0,20.69-2.37c6.61-2.37,7.61-4.52,13.83-5.43,3.37-.5,3.62,0,7.92-.48a54.09,54.09,0,0,0,13.6-3.66c4.43-1.82,3.88-2.27,11.7-6.51,11.12-6,14.2-6.2,16.22-10.26,1.38-2.77.89-4.64,3.08-6.5,1.08-.93,2-1.19,8.27-2.24,7.3-1.24,8.55-1.3,10.17-.71.62.22,1.62.67,4.85,3.78,7.57,7.32,8,10.6,12.17,14.66a8.71,8.71,0,0,1,2.37,3.55,6.44,6.44,0,0,1,.35,3.31c-.41,2.23-2,2.41-3,5.08a5.19,5.19,0,0,0-.36,3.78,4.6,4.6,0,0,0,5.2,2.6c1.43-.47,1.39-1.79,2.84-3.66,2.43-3.14,4.45-1.93,8.28-5.08,3-2.49,2.52-3.88,5.79-6,1.65-1.09,3.14-2.08,5.2-2.13s2.51.76,8.16,3.31c2.9,1.31,2,.75,4.49,1.89,3.19,1.45,4.49,2.26,6.27,1.89a3.56,3.56,0,0,0,2.36-1.42c.78-1.26.18-2.91-.47-4.61-1.33-3.46-2.84-4.11-2.48-5.44.14-.51.55-1.1,4.25-2.6,3-1.21,4.16-1.4,6.51-2.24,4.71-1.7,4.72-2.63,6.85-2.84,1.94-.19,3.66.41,7.81,2.95,6.6,4.06,8.3,6.23,12.76,9,5.47,3.38,5.62,1.79,10.41,4.73,9.15,5.61,9.4,11.91,15.49,12.77,3.14.44,5.61-.88,9.93-3.19,3.69-2,7-4.94,13.36-10.76,4-3.65,5.74-5.46,8.86-5.8.75-.08,4.2-.35,6.51,1.78.78.72.73,1.07,2.83,5.32,1.62,3.27,1.7,3.15,2.37,4.73a39,39,0,0,1,1.89,5.43c.65,2.44.59,3.21,1.42,4.73.52,1,1.47,2.71,2.72,2.72,1,0,1.16-1.1,2.83-2.13a8.29,8.29,0,0,1,4.26-1.06,11.33,11.33,0,0,1,4.73,1.06c7.85,3.19,1.2-.16,8.75,3.32,5.42,2.49,8.14,3.74,10.88,5.2,7,3.74,8.56,3.76,32.63,14.42,5,2.22,9.69,4.36,19,8.63,13,5.94,15,7,18,8.87a84,84,0,0,1,16.43,14,108.28,108.28,0,0,1,9.34,12.18c3.35,4.77,4.11,6.29,10.53,16.55,9.83,15.74,9.84,15.07,13.71,21.87,3.09,5.43,4.1,7.64,7.33,12.65a76.33,76.33,0,0,0,9.81,12.65,32.38,32.38,0,0,0,7.92,6.38c3.2,1.74,5.23,2,7.81,2.84,6.55,2.14,6.79,4.8,15.25,10.17,5.16,3.27,4.8,2.11,16.9,8.51,5.84,3.08,8.75,4.63,10.88,6.15,5.91,4.22,9.63,8.67,14.07,14.07,4.27,5.18,7.06,9.28,8.16,10.87,8.63,12.5,16.67,20,22.22,26.13,7.47,8.28,17.36,21.86,27,44.69a15.12,15.12,0,0,0,3.66,4.14c2.36,1.82,4.59,2.4,8.28,3.31a84,84,0,0,0,10.29,1.77,25.7,25.7,0,0,1,5,.83c2.25.63,4.65,1.31,5.32,3.08.54,1.42-.67,1.92-.47,3.9.24,2.41,2.16,2.75,3.93,6.32.88,1.76.54,1.93,1.39,4a21.89,21.89,0,0,0,4.25,6.39c3.17,3.56,5.56,7.75,8.4,11.58,2.33,3.15,5.64,7.69,9.58,13.4-.62,1.42-1.59,3.56-2.87,6.12-5.48,10.92-10.79,17.85-15.38,24.27-5.26,7.37-9.89,15.17-14.83,22.75-17.93,27.48-16.54,25.81-20.32,31.11-11,15.48-16.56,23.22-24.1,29.22-3.18,2.53-6.1,4.46-9.17,8.63-5.72,7.77-7,16.61-7.15,23a98.13,98.13,0,0,0-3.17,30.26l1.32,24.7q.77,25.63,1.54,51.26a52,52,0,0,1,6.72,1.23c3.06.77,3.28,1.11,5.32,1.62,6.66,1.66,10.36-.48,12,1.62.48.63.92,1.84.15,4.33,0,0,5.11.31,7.49.38,4.58.15,8.73.28,12.27-.85,2-.62,7.06-2.69,11.27-10.34l47.4-.39a49.62,49.62,0,0,0,5-1.93c4.85-2.15,6-3.55,11-6.4,8-4.62,7.81-2.61,12.81-6.18,2.29-1.63,4.5-3.6,6.72-2.93a37.63,37.63,0,0,1,3.55,2.39c2,1.4,2.66,1.9,3.7,1.93.85,0,1.1-.29,2.63-.93,2.1-.87,4.92-2,7-1a6.23,6.23,0,0,1,1.46,1.39,15.59,15.59,0,0,1,3,4.63c1.15,3-.14,4,.62,5.87,1.75,4.23,11,4.37,13,4.4,7.37.11,11.54-2.32,14,.23a5.16,5.16,0,0,1,1.24,2.78c.57,3.2-1.45,6.18-4.23,9.3-5,5.59-8.25,7-12.14,10.46a38.59,38.59,0,0,0-9.32,13.07s-4.55,4.7-12.47,15.83c-4.31,6-5.48,8.39-5.1,11.16.56,4.06,4.19,7.16,9,11.28,4,3.38,5.31,3.52,7.16,6.18s2.3,5.07,3,10c2.22,14.85,1.89,19.46,4.66,27.21a34,34,0,0,0,2.28,5.42c5.7,10.51,13.6,10,23.31,20.82a64.24,64.24,0,0,1,7.7,10.84,59.21,59.21,0,0,1,5.63,12.14c2.4,7.45.94,8.71,3.15,11.5,2,2.59,6.2,3.68,14.42,5.74,8.53,2.14,11.12,1.9,14,4.77a16.27,16.27,0,0,1,3.91,7.16c.76,3,.19,4.29.21,8,0,4.31.79,4.1,2.17,12.79,1.35,8.5.85,10.09,2.71,11.71,1.68,1.46,2.71.7,8.35,2.82a27.42,27.42,0,0,1,6.29,2.93c1.47,1,5,4,6.18,11.6q2.76,7.1,5.53,14.2l6.39,1.3,25.7,8.57,58.21,58c273.6,89.52,390.47,127.2,412.4,133.51,1,.29,6.59,1.89,14.18,4.19,22.65,6.87,42,13.58,57.5,19.27l51.06-1.48q55.8-1.59,111.58-3.09c-2.23,2.18-5.47,5.46-9.15,9.67-7,8-9,11.74-14,18.3-2.88,3.76-2.14,2.39-25.85,27.21-7.8,8.16-9.67,10.18-12.31,13.41-3.21,3.91-5,6.47-8.9,10.63-3.08,3.29-4.83,4.73-8.51,8.12-10.25,9.47-17.9,17.81-22.43,22.76-3.7,4-2.93,3.37-7.28,8.19-12.8,14.14-15.56,15.58-26.18,27.26-.58.64-5.73,6.6-16,18.51-6,6.93-9,10.4-9.92,11.47-10.6,12.38-12.89,15.54-20.63,24.17-3.08,3.44-5.13,5.72-8.19,8.9-7.82,8.12-9.91,9.24-16.05,15.66-5,5.19-4.63,5.54-12.44,14.44-4,4.5-7.05,7.86-13.86,15.09-14.86,15.78-17.67,18.49-25.72,27.07-10.37,11.06-9,10.07-25.27,27.79-12.17,13.24-18.25,19.87-24.56,26.3-12.73,13-15.58,14.8-26.82,26.88-3.25,3.49-8.84,9.6-15,16.44-5.69,6.35-5.72,6.53-10.19,11.54-16.73,18.75-18.15,18.4-25.66,28.17-4.57,6-5.79,8.35-10.76,13.86s-7.48,7.25-12.31,11.79c-7.32,6.87-6.73,7.65-24.63,28.11-5.82,6.65-8.74,10-13.21,14.82-6.61,7.15-8.44,8.73-13.8,14.83-7,8-6.92,8.74-10,11.73-3.87,3.7-10.22,8.48-20.5,11.86-4.68.16-11.65.34-20.12.33-25.67,0-44.15-1.81-53.05-2.52a506.57,506.57,0,0,0-71.75-.32,133.17,133.17,0,0,0-19.59,3.67c-13.29,3.57-17,6.84-32.49,11-8.31,2.22-8.35,1.57-14.83,3.61s-8.67,3.4-22.37,9.8c-18.23,8.53-20.86,9.17-31.2,14.7-6.28,3.36-5.92,3.45-9.09,4.9-10.32,4.72-15.41,4.33-23.14,9.35a42.9,42.9,0,0,0-7,5.67c-6.7,6.53-8.94,12.43-15,24.88-5.54,11.33-8.3,17-9.8,18.57-5.87,6.17-13.15,8.52-27.46,13-6.34,2-11.17,3-20.82,5.23-13.59,3.05-22.94,5.12-35.33,6.18-6.33.55-5.26.13-14.83.84-12.27.92-13.59,1.58-25.46,2.45-9.06.66-9.72.38-13,1.23a36.86,36.86,0,0,0-15.92,8.31c-7.29,6.75-9.15,15-16.44,23.92a14.48,14.48,0,0,1-7.15,5.09,13.14,13.14,0,0,1-4.32.45c-3.88-.22-5.46-2-12.7-5.2-3.71-1.66-5.12-2-6.5-1.45-1.56.64-1.68,1.86-3.49,3.25a11.32,11.32,0,0,1-6.73,2c-2.39.09-3.06-.51-10-2.52-5.25-1.52-6-1.49-6.67-1.32-3.4.79-3.51,3.93-6.8,5.95-3.57,2.19-6.83.58-13,.12s-8.13.83-16.54,1.86a110.2,110.2,0,0,1-24.42.19l-56.54-45.84a28.34,28.34,0,0,0-9.14-7.82,10.18,10.18,0,0,0-3.61-1.26c-3.57-.44-6.41,1.48-8.24,2.59-4,2.42-8.66,3.48-12.87,5.47-1.35.64-8.14,3.35-21.71,8.78-17.21,6.89-15.87,6.26-19.85,7.94-3.6,1.52-6.11,2.63-10.23,4.15-6.65,2.47-7.95,2.49-12.81,4.21-7.82,2.77-13.47,5.91-20.27,9.69-6.54,3.63-4.73,3.09-11.49,6.85-9.33,5.2-14.68,7.28-20.57,11.37a45,45,0,0,1-4.63,3c-2.83,1.57-4.23,1.89-6.79,3.61a16.56,16.56,0,0,0-3.25,2.52c-2.65,2.84-1.65,4.82-4,9.81-1.7,3.64-2.77,3.74-4,7.39-.82,2.48-.35,2.51-1.2,4.64-1.32,3.29-2.53,3.46-3.91,7a14.67,14.67,0,0,1-1.45,3.49,9.93,9.93,0,0,1-3.24,3c-7.11,4.31-16.73,20.18-25.09,24.12-.87.41-2.88,1.23-3.48,3.06-.5,1.51.35,2.48-.37,4.27-.48,1.21-.95,1-1.84,2.46-1.36,2.26-.63,3.41-1.94,4.7a4.06,4.06,0,0,1-2.83,1.15c-1.55-.1-2.57-1.38-3.37-2.41a14,14,0,0,1-2.71-7.76l-26-.6a18.36,18.36,0,0,1-1.14-3.25c-.52-2.07-.42-3.14-.9-3.31s-1.29.38-3.37,3.91l-20.48.1c-2.13-1.34-3.91-2.36-5.15-3-5-2.77-5.52-2.56-7-4-1.71-1.67-2.46-3.3-3.72-3.15-.75.09-1,.74-1.72,1.36-1.86,1.65-4.61,1.15-6.72,1-1.26-.09,0,.11-10.37,1.43-6.43.83-9.64,1.24-11.3,1.15-3.28-.18-5.71-.83-10.09-2-3.63-1-3.31-1.15-8.94-2.79-4.59-1.34-5.49-1.43-7.8-2.44-2.68-1.17-4.56-2-6.36-3.79-3.26-3.24-3.37-6.78-4.79-6.72s-1.23,3.59-3.87,4.86c-1.18.57-1.56,0-6.29-.35-3.77-.31-4.41,0-5.87-.72-1.13-.53-1.65-1.11-3.57-3.15-5.47-5.79-5.95-6-6.51-6.08-2.13-.27-3.07,1.78-7.44,4.51a32.54,32.54,0,0,1-7,3.29l-53.86-.5-1-.89a103,103,0,0,1-9.15-9.93c-5.34-5.53-8-8.3-11.11-10.85-7-5.81-9.91-5.78-21.24-13-5.13-3.28-8-5.52-12-8.37-12-8.73-23.69-16-47.06-30.59-22-13.69-32.93-20.53-38.44-23.79-6.72-4-12.93-8.8-19.67-12.75-4.53-2.65-8.58-4.81-12.49-9.47-1.93-2.31-2.43-3.56-4.77-5.69-1.18-1.08-3.7-3.16-10.52-6-5.23-2.15-7.29-2.24-13.32-4.42q-5.72-2.07-11-4.23l-131.39-2.15c-.61-.21-1.37-.5-2.21-.87a24.66,24.66,0,0,1-2.93-1.54c-3.31-2.08-4.11-3.86-7.11-6.52-3.94-3.51-4.8-2.41-5.86-4.4-1.61-3,.46-5.34-.15-10.55a18.77,18.77,0,0,0-2.12-6.67l-18.54-22.28a14.89,14.89,0,0,1-2.79-6.23,15.9,15.9,0,0,1,2.42-11.36q-.18-17.81-.37-35.61a21.51,21.51,0,0,0,5-8.28,13.19,13.19,0,0,0,.8-7,19.13,19.13,0,0,0-2.56-5.79c-1.8-3.16-2.77-3.77-2.57-5.21s1.51-1.61,2.28-3.88a11.47,11.47,0,0,0,.29-4.18,36.59,36.59,0,0,0-.59-5.49,23.71,23.71,0,0,0-3.95-2.35c-4.29-2-7.35-1.84-11.29-2.34-1.05-.14-6-1.66-16-4.69-3.31-1-6.69-1.87-10-3-4.44-1.55-6.76-2.65-10.48-2.71a22,22,0,0,0-5.94.81c-5,1.24-9.73,3.46-22.06,10.18-2.92,1.6-5,2.78-7.18,2-2.36-.88-3.64-3.8-4-5.94-.23-1.57.35-3.48,1.53-7.25,1.13-3.59,1.71-4.6,2.2-7.4a9.72,9.72,0,0,0-.07-5.13,8.08,8.08,0,0,0-1.91-3.08L351.87,1548q-12.36-22.49-24.7-45a11.41,11.41,0,0,1-2.34-5.94c-.22-3.14,1.27-4,2.34-9.16a18.47,18.47,0,0,0,.22-8.86c-.5-2-1.1-2.58-2-4.55-1.73-3.88-.91-4.9-2.2-11-.15-.73-.14-.61-4-14.14a37.59,37.59,0,0,1-.88-3.67,36.15,36.15,0,0,1-.58-7.33q4.93-7.11,9.89-14.21-.15-11.43-.29-22.87l-17.52-19.49-22.86-.51-20-23.67-18.54-1.47a100.73,100.73,0,0,1-1.1-12.53,27.13,27.13,0,0,0-.36-5.64,18,18,0,0,0-6.38-9.68l-21.47-2.27c-.79-.45-1.89-1.09-3.15-1.9a65.47,65.47,0,0,1-12-9.9c-3.78-4-5.67-6-7-8.72-2.72-5.86-.47-8-3.15-12.68-1.05-1.82-1.6-1.85-9.6-8.2-9.34-7.41-7.47-6.48-10.63-8.65-5.07-3.49-9.09-5.34-8.72-7.26.25-1.27,2.18-1.26,3.3-3.66a7.66,7.66,0,0,0,.59-3.66,11.51,11.51,0,0,0-1.25-4.33s-.88-2-2.49-7.11a39.63,39.63,0,0,1-1.61-7.69,53,53,0,0,1-5.5-3.23c-1.61-1.08-1.8-1.33-5.94-4.32a20,20,0,0,1-2.56-1.9c-2.14-2.53-.8-5.12-2.2-8.14-.79-1.7-2.16-2.64-4.87-4.45-7.75-5.16-11.62-7.75-12.2-8.08-8.85-5.08-10.3-4.79-13-8-2.16-2.51-2.22-3.81-4.25-4.69-3.2-1.4-5.41.81-10.55-.51-1.85-.48-1.88-.85-3.89-1.25-3.44-.69-4.41.19-6.74-.29s-2.5-1.74-6.89-4.76c-2.76-1.91-4.95-3.42-7.69-4-3.53-.79-6,.34-9.53,1.31a53,53,0,0,1-16,1.84l-22.13-13-21.25-.22a23.7,23.7,0,0,1-2.42-2.71,27.54,27.54,0,0,1-5-12.16C.05,1160-.38,1157.76.48,1155c.75-2.39,1.85-3.13,3.73-5.64,6-7.94,3.78-12.35,8.8-15.83,2.8-2,4.63-1.38,5.86-3.59,1.7-3.06-.55-6.37,1.1-7.63.87-.66,1.67.13,6.52.44,2.84.19,3.79,0,4.4-.66a3.81,3.81,0,0,0,.58-3c-.18-2.17-1.14-2.88-2.27-5.64-1-2.5-1.53-3.75-1.17-4.84.77-2.32,3.91-2.08,4.76-4.69a5,5,0,0,0-.14-3.08c-1-3.38-4.09-4.36-3.74-5.57.3-1,2.52-.22,4.32-1.68,2.36-1.92,2.46-6.48,1.18-9.53-.65-1.54-1.12-1.41-1.69-3a10.26,10.26,0,0,1,.07-6.82c1.24-3,4-4.18,7-5.5,2.55-1.13,7.68-3.41,13.55-2,4.53,1,5.4,3.32,10.7,3.89a18,18,0,0,0,5.79-.22c6.89-1.46,8.6-6.48,13.34-5.94a14.33,14.33,0,0,1,4.18,1.61c4.2,2,4.81,3.58,6.88,3.52s2.16-1.78,5.28-2.78a10.86,10.86,0,0,1,12.17,4.17c3,4.33.93,8,3.29,10.12,1.11,1,2.34.82,9.09-.22,10.18-1.58,13.26-2.15,17.15-4.18,3.72-1.94,4.71-3.41,5.06-4.69.42-1.59-.21-2.67.36-4.69a8.47,8.47,0,0,1,2.49-3.88l20.82-.66,16.41-18.32c1.33-19.14,1.8-35.69,1.91-49,.17-21.33-.56-36.82-.74-40.3-.51-10.51-1.21-19.44-1.83-26.24l-.29-40.82,2.49-12.24,5.4-24.58q5.34-10.62,10.66-21.24l1.74-24.42A8.74,8.74,0,0,1,207.1,801c1.79-2.59,4.2-2.53,8.62-5.29,2.38-1.49,4.16-2.61,5.67-4.69,2-2.74,2.32-5.56,2.8-10a62.58,62.58,0,0,0,.15-10.06c-.16-3.47-.47-8.13-1.14-13.68L216.93,719l3-5.89,10.13-14.52q7.68-11.76,15.35-23.51L269,661.54l27.67,21a5,5,0,0,1,2.57,3.25c.22,1.36-.41,2.48-1.13,3.78a11.61,11.61,0,0,1-2,2.65l11.87.3,3.93-5.74c.07-3.08.15-6.15.22-9.23l18.53-14.82q-2.24-4.8-4.46-9.6L334,614.52l-11-12.1,18.52-26.54q3.4-9.37,6.8-18.75l-.15-23c-1.19-1.19-5.33-5.62-5.14-11.79a16.9,16.9,0,0,1,2.65-8c.86-1.52,2.81-4.58,8-8.54,4.45-3.39,7.42-4.49,11-6.43a59.69,59.69,0,0,0,14.89-11.64l72.73-121.65,4.54,2.5,48.23-10.89,23.14,4.69q0-12.36.07-24.73c.66-3.15,1.31-6.3,2-9.45l-4-7.1-.07-4.84q11-33.15,21.92-66.31l19.28-29.48q.2-8.66.38-17.32l15.12-26.76v-8.17L579,155.75l1.13-9.15q7.79-23.7,15.58-47.4a262.75,262.75,0,0,1,30.39-4.69c6.9-.66,13.47-1,19.66-1.13L668.23,104l14.65-2.43q2.72-11.35,5.42-22.69l17.05-3.37,14.21-1,10.69,11.93c.12,3.6.25,7.2.37,10.8l20.27,18.4L814.56,0A69.09,69.09,0,0,1,825.67,12.93Z"/></g></g></svg>