<svg xmlns="http://www.w3.org/2000/svg" viewBox="0 0 2178.87 1693.26"><g id="Layer_2" data-name="Layer 2"><g id="Fiji"><path d="M1441.87.27c-.83,1.08,1.93,5.32,5.84,7.7a19,19,0,0,0,4.12,1.73c6.71,2.36,10.07,3.54,11.28,4.38,5,3.44,4.05,7.62,8.49,8.89a7.1,7.1,0,0,0,5.71-.66c1.52-1,3-2.94,2.79-4.91-.09-.84-.53-2.17-6-5.45-3.77-2.26-7.17-4.31-12.48-5.7-4.37-1.15-4.23-.33-7-1.46-3.12-1.26-4.8-2.89-9-4.12C1443.58.08,1442.29-.28,1441.87.27Z"/><path d="M1255.1,232.18c-1.91,1.7-2.86,2.55-3.06,3.58a4.16,4.16,0,0,0,1.33,3.85c1,.81,1.87.33,2.79,1.2,1.18,1.11.87,2.92,1.06,2.92s.26-3.1.27-8.76c0-2.05,0-3.63-.67-3.85C1256.61,231,1256.3,231.1,1255.1,232.18Z"/><path d="M1200.54,264.3c.81-1.12,4.76,2.16,9.16,1.07,1.34-.34,2.49-1.16,4.78-2.79,3.69-2.64,4.54-4.34,5.7-4,.67.2.82.89,2.53,5.7,1.14,3.24,1.3,3.57,1.72,3.85,1.83,1.25,4.75-.88,8.9-2.65,4-1.7,3.23-.59,12.87-3.19,7.16-1.93,10.8-2.94,14.07-5.17,2.66-1.82,5.46-3.74,7-7.31,2.07-4.69-.1-7.43,2.39-10.75,2.12-2.83,6.33-4.35,8.23-3.05s0,5,1.86,6.5c2.21,1.85,7.14-1.74,19.11-6.1,5.22-1.9,9.13-3,10.36-1.46.57.71.06,1.37.26,4.38.15,2.21.29,4.37,1.46,6.1a8.5,8.5,0,0,0,4.78,3.06,21.21,21.21,0,0,0,11.68.13c7.7-1.81,14.51-6,17.13-7.7,4-2.53,5.88-4.24,7.7-3.45,2.11.92,3.2,4.84,2.92,7.83-.22,2.26-1.14,3.21-.8,5.58.22,1.54,1,3.7,1.86,3.71,1.34,0,.88-5.15,4.25-9.82,2.63-3.65,4.31-2.43,9.69-7.17,5-4.4,5.83-7.46,8.76-7.43,2.63,0,2.92,2.51,5.84,2.79,3.43.32,4.11-3,10.09-5.71,4.18-1.88,5.45-1,9.42-3.32,2.92-1.73,2.41-2.33,4.91-3.72,3.72-2,5.62-1.17,11.42-2.65a27,27,0,0,0,8.1-3.06c5.44-3.35,4.19-6.24,8.63-8.49,3.24-1.65,4-.13,13.14-2,3.55-.72,4.54-1.18,4.91-.67,1.12,1.56-5.12,10-14.07,14.74-2.62,1.38-6.48,2.91-14.21,6a35.42,35.42,0,0,0-6.23,2.79c-2.7,1.65-4.89,3.78-9.16,8-2.76,2.7-3.35,3.46-5,4.52a22.61,22.61,0,0,1-6.37,2.52c-5.94,1.68-7.59,1.7-9.82,2.39-9.63,3-15.45,14.18-16.2,15.66-1.23,2.45-2.27,5.31-5.31,8.1a16.27,16.27,0,0,1-5.57,3.58c-3.67,1.37-5.11.23-6.64,1.6-.71.63-1.25,1.63-1.19,9.16,0,6.28.43,8.46-1.2,10.35-1,1.2-1.65.86-3.05,2.26-2.39,2.36-2.76,5.44-3.06,7-1,5.38-4.14,9.41-7.56,13.81-4.84,6.21-6.86,4.71-11.29,11.15-1.64,2.39-1.62,3-5.31,8.89-2.93,4.71-3.12,4.63-4.91,7.57-3.06,5-3,6.12-7.3,14.34-4,7.59-5.19,8.92-6,9.69-2,2-4.67,3.32-9.82,5.84-5.62,2.74-9.35,4.56-14.74,6-5.57,1.46-6.71.86-10.09,2.66-3.13,1.66-5.13,3.76-7.7,6.5-5.15,5.5-4.17,6.51-7,8.89-5.76,4.8-10.51,1.34-16.6,5.58-4.93,3.43-6.6,9-7.43,11.81-3.24,10.87,2.44,17.61-2.12,22.44-1.21,1.28-1.14.3-7.57,4a60.46,60.46,0,0,0-9,6c-3.37,2.77-5.14,4.22-6.63,6.77-2.08,3.54-1.06,4.79-3.06,11.69-1.59,5.48-2.38,8.23-4.51,10.22-4.14,3.86-9.12,2.29-10.09,5.31-.63,2,.81,4.7,2.79,6.1,1.46,1,2.37.31,3.32,1.2s1.23,2.22-.27,9a69.24,69.24,0,0,1-2.12,8.1c-1.82,5.41-3.31,7.69-2.52,8.37.57.49,1.78-.36,4.91-1.73,0,0,1.42-.62,6.9-2.52,6.42-2.23,9.63-3.34,13.27-2.66s3.88,2.41,8.5,3.06c2.31.32,5.29.73,6.9-.93s0-3.82,1.6-7.57c.31-.74,1.62-3.89,4.51-5.18,3.09-1.38,4.91.75,9,.14,3.15-.48,5.23-2.2,7.56-4.12,3.66-3,4.49-5.37,8.37-11s6-8.71,8.36-10.62c4.2-3.35,5.68-2.22,15-7.7,3.89-2.28,5.6-3.64,7-5.7,1.24-1.8,1.87-3.88,3.06-8,3-10.3,2.87-10.05,3-10.49,2.1-5.18,6-6.36,12.88-11.41,1.15-.84.75-.6,21.5-20.84,5.62-5.48,8.5-8.27,12.08-10.62a68.29,68.29,0,0,1,14.34-7c9.79-3.45,11.49-1.54,15.53-4.91,3.25-2.71,3.3-4.9,8.76-9.42a35.16,35.16,0,0,1,5.71-3.85c4-2.18,6.43-3.51,8.1-2.66,3,1.55,1.8,9.41,1.19,13.28-.73,4.64-1.6,10.2-5.84,14.86-3.32,3.65-4.86,2.52-7.17,5.84-2.49,3.59-.81,5.05-3.18,14.21-.67,2.56-.33.64-3.72,10.62-1.08,3.16-1.46,4.39-2.79,5.57-2.5,2.22-5,1.28-6.24,3.32-1.05,1.73-.29,4.1.4,6.24,1.17,3.64,2.83,4.51,2.39,5.71-.72,1.95-5.42.41-9.82,2.12-7.15,2.79-11.6,13.42-8.9,17,2.1,2.77,9.55,2.69,14.34,1.46,1.88-.48,3.19-1.1,4.51-.39,2.25,1.19,1.34,4.51,3.32,8.49.52,1,.89,1.44,6.77,6.77s8.76,7.94,9.56,8.5c5.15,3.61,7.1,3.45,8,6,1,2.91-.5,6.42-1.32,8.36-.73,1.7-1.09,2.55-1.86,2.92-2.54,1.23-5.25-7.18-10.76-7.56a7.26,7.26,0,0,0-4.64,1.46c-2.34,1.79-1.83,4-3.72,7.17-.23.39-3.22,5.26-7,5.7-3.51.41-4.66-3.28-10.89-8-8.71-6.55-12.2-3.66-17-9.56-2.23-2.74-3.47-5.83-6.9-6.64-1.15-.27-1.9-.13-4.91.4-7,1.24-10.56,1.86-11.55,1.86a27.81,27.81,0,0,1-10-2.12c-4.32-1.56-4.72-3.57-7.17-3.45-2.77.13-4.77,2.45-7.56,5.7-3.64,4.24-2.53,6-4.78,7.17-3.76,1.89-7.72-2.1-11.42.4-1.21.82-1.22,1.55-2.65,2.12-2.25.91-3.72-.27-6,.14s-3.38,1.93-4.78,3.45c-6.08,6.65-7.87,5.13-14.47,12.48-3.9,4.34-3.43,5-6,6.77-.71.47-7.46,4.9-12.88,2.39a20.06,20.06,0,0,1-7-6.38c-.91-1.32-1.32-2.27-2.26-2.39-1.75-.21-2.66,2.81-6.1,5a15.11,15.11,0,0,1-4.65,1.86c-7.32,2-9.37-.68-17.12.79-2.63.5-5.95,1.49-10.36,2.79a27.74,27.74,0,0,0-3,.93c-2.92,1.21-3.55,2.49-5.18,2.66-1.31.13-1.9-.65-4.51-2.26,0,0-1.86-1.15-5.84-3-6.77-3.24-15.35-1.18-19.12-.27-2.85.69-3.51,1.19-6.1,1.46-4.53.48-6.45-.63-8.1.8-2,1.75-1.5,5.45-2.13,5.44-.47,0-.41-2.12-2.12-4.12-.24-.28-.52-.54-1.06-1.06-1.28-1.21-1.94-1.82-2.66-2a3.47,3.47,0,0,0-2.39.53,16.14,16.14,0,0,0-4.91,4.38c-2.52,3-4.46,5.29-6.9,5.58-3,.34-6.65-2.28-7-5.18-.18-1.41.4-3,5.71-8,5-4.66,7.35-7.12,10.89-8.9,5.08-2.55,8.13-2.23,10.35-5.57a21.2,21.2,0,0,0,1.86-4.65c1.41-4.2,1-5.11,2.39-8.23.88-2,1.38-2.35,1.19-3.19-.46-2.11-4.29-2.82-6.77-3.45-9.18-2.31-8.22-5.57-21.63-10.48a44,44,0,0,0-10.09-2.79c-5-.69-8.26-.13-11.68.13-15.89,1.21-20.45-5.26-26-1.33-3.83,2.71-2.11,6.07-8.36,12.88-1.78,1.94-2,1.72-7,6-12.23,10.27-10.51,11-16.46,14.74-4.22,2.64-7.18,3.56-8.36,6.77-.54,1.44-1.39,5.16-1.73,6.64-.29,1.27-.52,2.33-.66,3.05H998.77c-5.9,4.48-7.52,8.21-7.84,10.88a28.31,28.31,0,0,1-1.32,7,29.33,29.33,0,0,1-1.73,4,37.08,37.08,0,0,1-3,4.65c-2.57,3.82-3.86,9.77-2,11.28,1.12.91,2.78-.26,6-.93a22.08,22.08,0,0,1,11.68.93q-.39,7.44-.8,14.87h-14.2a20.25,20.25,0,0,0-3.58,5.57c-1.11,2.6-1.13,4.24-2.66,5.31a5.8,5.8,0,0,1-4.25.67c-3.1-.58-4.19-3-8.62-7.3-2.51-2.42-3.77-3.63-4.78-4.12-6.36-3-12.11,3-16.6-.26a9.55,9.55,0,0,1-3.18-4.52c-.71-2.22,0-3.29-.93-4.64-1.12-1.65-3.4-1.9-5.71-2.13-5.63-.55-6.6,1.52-9.29.4-1.92-.8-3.27-2.92-6-7.17-1.73-2.73-1.79-3.41-2.78-4-2.86-1.63-7.21,1.2-10.09,3a30.18,30.18,0,0,0-9.69,9c-3.52,5.33-3.22,9-7,10.75-1.39.66-1.7.3-4.64,1.46-3.57,1.41-4,2.27-6.38,2.79-3.21.7-5.12-.3-5.44.4-.53,1.19,5.37,3.15,6.77,8.23.12.44,1.14,4.37-1.33,7.17-.89,1-1.93,1.5-4.38,2.25-6.71,2.07-11.08,2.18-11.15,3.06s4.86.81,6.91,4.25c.93,1.57.87,3.21.79,5a17.44,17.44,0,0,1-2.52,7.83,12.58,12.58,0,0,1-2.66,3.85,11.15,11.15,0,0,1-4.91,2.52c-10.77,2.91-23.63.62-24.82.4a16,16,0,0,1-4.51-1.46,16.41,16.41,0,0,1-5.45-4.51l-20-43.28c-.66-2.87-1.33-5.75-2-8.63l-25.89-6.63a11.31,11.31,0,0,0-2.78-2.39c-1.49-.9-2.42-1-2.39-1.2.06-.6,7.29-1.84,14.86.53,3,.94,4.77,2,5.71,1.2s-.14-3.08-1.06-7.3c-1.52-7,.2-7.88-1.46-13a24.42,24.42,0,0,0-4.78-8.36c-1.86-2.22-4.28-5.1-8.36-6.38-1.77-.55-3.57-.5-7.17-.39-6.43.18-9.64.27-12.35,2.12s-2.13,3.23-5.17,5.18c-.59.37-2.67,1.64-7.3,2.25-4.37.58-12.36,1.64-14.74-2.12-1.46-2.32.73-4-.26-9-.77-3.83-2.31-4-3.72-7.83-2.68-7.2-.09-14.35.53-16.06s2.29-4.25,5.57-9.16c4-5.93,5.79-7.62,8.24-8.36.78-.24,3.61-1.1,5,.26,2.4,2.29-1.34,8.72.26,9.69.65.39,2.22-.7,5.31-2.92,3.85-2.75,3.84-3.24,5.85-4.25,2.88-1.45,4-.95,4.91-2.25,1.22-1.67-.07-3.08.26-6.11.48-4.37,3.5-4.68,4.91-10,.43-1.57,1.5-5.58-.53-7.3-1.31-1.11-3.63-1-5.17-.26-1.09.52-1.11,1-2.13,1.72a7.71,7.71,0,0,1-7.17.53c-2.3-1-3.2-3-4.51-6-1.15-2.58-2-4.55-1.19-6.37.73-1.59,2.41-2.26,4.77-3.19s3.3-.82,5.85-1.46c3.72-.92,3.9-2,6.37-2.25a9.43,9.43,0,0,1,5.17.66c1.91.91,2.07,2,5.45,6.77,3.15,4.42,4.57,5.64,6.37,6.24a5.38,5.38,0,0,0,2.92.4c3.41-.7,3.75-5.44,6.5-5.71,1.49-.15,2.78,1.09,3.85,2.12,1.87,1.8,1.69,3.15,3.45,5.18a13,13,0,0,0,3.72,2.79c5.17,2.49,8.4-1.49,13.81.79,2.07.88,2.67,1.92,4.91,2.13.79.07,3.62.34,5.31-1.33,2.4-2.37-.08-6.1,2.39-10.75,1.16-2.2,1.65-2.83,2.25-2.92,1.44-.23,2.11,1.9,4,2.12,1.6.19,2.29-1.22,5.17-3.32a82.52,82.52,0,0,1,7.7-4.11c3.74-1.88,4.4-2.09,5.58-3.19a10.48,10.48,0,0,0,3.18-4.64c1-3.2-.59-4.93.8-6.64A4.83,4.83,0,0,1,861,430.9c1.67,0,2.3,1,4.38,1.86a15.55,15.55,0,0,0,5.17,1.06c3.6.09,6.3-1.62,8.37-2.92a19.25,19.25,0,0,0,7-7c3.05-5.6.61-9.1,3.72-11.94,1.62-1.49,2.33-.57,8-2.66,2.82-1,2.73-1.31,8-3.72,4.2-1.93,5.09-2.14,10.22-4.51,4.06-1.87,6-2.87,7.83-4.91,1-1.1,2.82-3.12,2.39-5.18-.27-1.28-1.16-1.38-2-3.05a8.2,8.2,0,0,1-.53-5.58c.56-2,1.87-2.58,5.31-5.57a53.41,53.41,0,0,0,7.3-7.3c3-3.8,3.56-6.23,5-6.11s2.53,2.51,2.92,3.85c.78,2.65-.4,3.95.67,5.31a3.55,3.55,0,0,0,4.25.93c1-.7.43-1.94,1.46-2.79.62-.51,1.26-.39,5.31,0,2.86.28,3.61.33,4.51-.13s1-1.05,2-1.59c1.37-.75,2.66-.42,4.25-.27,5.47.54,7.44-1.66,9.56,0,.86.68.9,1.33,2.12,2a6.67,6.67,0,0,0,3.32.67c4.43-.28,5.29-8.14,11.55-10.49,3.24-1.22,5.33,0,10.22-2.26,1.12-.52,1.55-.84,2.92-1.46a30.88,30.88,0,0,1,8.36-2.39c9.94-1.5,14.58,2.7,20.71-.66a46.62,46.62,0,0,0,4.78-4c5.45-4.8,6.08-6.26,9.29-7.83a37.72,37.72,0,0,1,6.24-2.13s3.16-.91,6-1.46c9.38-1.82,19.75.28,23.63,1.06a44.48,44.48,0,0,1,8.1,2.13c4.87,1.88,5.46,3.3,8.1,3.32s4.85-1.63,9.16-4.92c4.67-3.55,5.37-5.25,8.36-6.1,3.44-1,5.57,1.49,6.9.26,1.76-1.61-1.59-5.47.27-8.63,1.41-2.39,3.94-1.2,8.1-4.51,2.54-2,2.2-3,4.38-4.11,2.33-1.24,4.63-1.18,7.56-1.07,5.48.21,7.56,1.72,8.63.54s-.45-2.65-.13-6.91a17.51,17.51,0,0,1,.93-4.51c.62-1.77,2-5.68,5.31-7.3,2.56-1.25,3.64.16,7.17-.93a14.15,14.15,0,0,0,5.84-3.72c3.53-3.47,4.85-7.94,5.84-11.28,1.16-3.94,1.32-6.66,2.39-6.77s1.52,3,4.38,4.11a5.18,5.18,0,0,0,4,0c1.83-.91,1.38-2.6,2.79-3.31,1.66-.85,3.54.91,9.42,3.58,4.6,2.09,5.13,1.78,5.31,1.59,1.22-1.26-3.31-8-3.58-8.36a40.45,40.45,0,0,1-3.59-6.9C1200.53,265.28,1200.27,264.68,1200.54,264.3Z"/><path d="M1129.12,301.34a8,8,0,0,0-4.38,5c-.26.92-.94,3.34.27,4.65,1.37,1.49,3.64-.11,10.62-.27,2.64-.05,3.31.15,4.64-.39,2.79-1.15,5.23-4.24,4.52-6.11-.2-.5-.69-1.1-6.51-2.26C1131.07,300.57,1129.73,301.07,1129.12,301.34Z"/><path d="M1026.77,325.5c.26-.74,2.17-.81,6-.93,4.63-.15,6,.27,7,1.14a3.42,3.42,0,0,1,1.27,2.05c.25,2.14-2.45,4.65-5,4.77-1.6.08-2.88-.92-5.44-2.92C1028.25,327.86,1026.45,326.46,1026.77,325.5Z"/><path d="M841.06,407.8c-.7.09-5.35.71-6.77,4.25a5,5,0,0,0,0,4c1.12,2.15,3.94,2.44,4.78,2.52,3.23.33,7.75-1.2,8.63-4.64a5.32,5.32,0,0,0-1.46-5.18C844.64,407.33,842.55,407.6,841.06,407.8Z"/><path d="M862.57,395.06c2.88-1.39,4.32-2.09,7.56-3.59,6.34-2.91,8.61-6.14,9.7-5.31.67.52.27,2.2-.54,5.58-.54,2.27-.81,3.41-1.46,4.25-1.59,2.05-3.18,1.19-5.57,3.45-1.65,1.55-1.7,2.72-2.92,2.92s-1.75-.65-3.45-1.73c-3.84-2.43-6.7-2.1-6.77-3.18C859.07,396.77,860.16,396.22,862.57,395.06Z"/><path d="M775,420.15c3.3-2.35,6.07.05,16.72.13,2.27,0,3.79-.08,4,.53.34,1-3.13,3.7-7,4.91-3.73,1.16-5.68.29-8.36,2.26-1.51,1.1-1.24,1.63-2.66,2.39-1,.52-1.74.62-7.3.53-2.93,0-4-.1-5.44-.66-.8-.32-2.72-1.07-2.66-1.86.1-1.27,5.11-.48,9.16-3.72C773.88,422.66,772.87,421.63,775,420.15Z"/><path d="M642.34,528.07c1.22-.44,1.5,0,6,.13,2.58.1,3.64,0,4.64-.66s1.13-1.49,1.6-1.46c1.32.08,2.44,6.25,1.59,12.21-.42,3-.77,5.2-2.39,6s-3.74-.38-7-2.25a16.28,16.28,0,0,1-5.44-4.25c-1.16-1.5-3.08-4-2.26-6.51A5.7,5.7,0,0,1,642.34,528.07Z"/><path d="M704.34,1170.56c1.27,2-3,5-3.59,9.69-.54,4.24,2,9.68,5.44,10.75,5.4,1.67,14-7,18.06-15,2.51-5,2.26-7.63,5.44-9.69,4.39-2.84,10.68-1.49,13.27-.93,5.72,1.23,5.88,3.12,8.23,2.66,7.4-1.47,8.45-20.71,13.94-21,.48,0,2.9,0,3.59,1.33a2,2,0,0,1,.13,1.33c-1.17,6-9.56,15.53-9.56,15.53-7.58,8.59-8.76,11-8.1,13.14.46,1.45,1.64,2.28,2.92,3.19,1.51,1.06,3.43,1.86,11,2.25,4.85.25,7.31.37,8.63-.26,3.07-1.46,2.49-3.47,6.37-6.77,4.08-3.47,6.27-2.58,7.44-5,1.88-4-2.58-9-1.07-10.22,1-.84,3,1.41,7.44,1.86a16.09,16.09,0,0,0,6.24-.66,16.26,16.26,0,0,0,9.42-6.64c1.61-2.51.91-3.45,2.26-10.22a88.73,88.73,0,0,1,3.32-12.08,96.3,96.3,0,0,1,5.31-12.48c2.37-4.6,4.23-7.26,4-7.43s-4.52,4.22-8,9.15a30.88,30.88,0,0,1-3.85,4.52c-2.09,2-3.15,3-4.12,2.79-1.7-.44-1.19-4.27-3.19-10.89a24,24,0,0,0-3.71-8.23,18.21,18.21,0,0,0-6.64-5.44c-5.2-2.46-9.31-1.13-10.09-3.19-.42-1.11.7-1.73,1.2-4.51a15.44,15.44,0,0,0-.27-5.71c-1.19-5-4.92-4.84-7.17-9.56-2-4.24.58-5.26-1.06-13-1.13-5.35-3-7.74-1.72-9s4.63-.76,6.5.93c1.44,1.3,1.49,2.9,2.39,2.92s2.16-1.77,1.86-3.19-1.89-1.37-2.79-2.92c-1.09-1.87-.63-5.09,1.06-6.37s3.52.4,7.17-.93a6.29,6.29,0,0,0,3-1.86c2.12-2.66.63-7.24-.93-9.82-.91-1.53-1.9-2.44-4.24-4.38-8.36-6.9-9.37-6.43-10.89-8.9-3.11-5.07-2-12.3.13-13.14.71-.28,1.2.26,1.86-.13,1.57-.94,1.49-5.51-.79-8.23-1.11-1.32-2.38-1.78-4.78-2.66-2.85-1-4.21-1-9-2-5.46-1.15-6.3-1.77-6.5-2.52s.19-1.31,2.12-3.85c3.22-4.25,3.41-4.11,3.85-4.91,2.18-4-2.57-6.82-1.73-12.88.54-3.84,3.06-7.09,6.11-11a32.29,32.29,0,0,0,3.72-5.44,30,30,0,0,0,2.12-5.17c1.16-3.8,3.83-12.54,0-16.73-1.17-1.28-1.93-1-6.24-2.52a80.17,80.17,0,0,1-13.67-6.51c-7.91-4.39-7.3-5.41-12.35-7.3-2.69-1-4.12-1.19-5.84-2.79-1.16-1.08-1.82-2.22-4.38-8.23s-2.29-5.79-2.79-6.37c-2.6-3-4.66-1.59-9.69-5.31-2.18-1.62-3.31-3-4.77-2.65s-1.42,1.82-3.32,2.65a6.56,6.56,0,0,1-4.25.13,10.85,10.85,0,0,1-4.91-2.78c-6-5.49-12-2.67-16.73-8.37-1.65-2-1-2.36-4.64-8.09-1.7-2.64-3.05-4.42-5.31-5.31-1.64-.65-2.52-.35-4.12-.53-5.68-.66-9.51-6.21-10.09-7-3.73-5.39-3.4-11.83-3.32-13.54.2-4,1.3-5.7,0-7.83-.6-1-1.48-1.66-6.77-3.72-4.25-1.65-7.38-2.66-9-3.18-8-2.55-9.69-2.79-11.15-1.86-.84.52-1.08,1.1-2.26,3.45-5.22,10.38-6.94,12-8.76,12.74a7.24,7.24,0,0,1-4.12.4,7.14,7.14,0,0,1-4.51-3.19c-1-1.92-.12-3-.27-6.37-.19-4.41-1.93-4.42-2.12-8.49a13.19,13.19,0,0,1,2.52-8.63,6.94,6.94,0,0,1,3.72-2.92c3.21-.77,5.37,2.34,7.17,1.33,1.22-.69,1.32-2.63,1.46-5.58a22.87,22.87,0,0,0-1.06-8.89,24.65,24.65,0,0,0-4.92-8.23c-3.28-4-4.22-3.37-9.16-8.37-3.53-3.57-3.52-4.35-7.16-7.7-.61-.55-.14-.1-6.11-4.91-4.31-3.47-5.79-4.7-7.7-4.38a3.92,3.92,0,0,0-2.65,1.73c-.18.34-.52,1.18.66,5.17.78,2.65,1.13,3,.93,3.85s-.87,1.42-3.32,3.32c-4.1,3.19-3.83,3.22-5.31,4.12-2.45,1.48-3.68,2.23-4.91,2.25-3.46.08-4.72-3.46-7.57-2.92-.75.15-1.56.9-3.18,2.39a60,60,0,0,0-4.92,5.45,32,32,0,0,1-3.71,4c-3.27,2.08-9,2.32-12.22-.4-1.79-1.51-2.32-3.5-4.64-4a16.35,16.35,0,0,0-2.79,0c-2.87,0-3.49-.18-4.78-.14-2.19.09-2.77.73-5.71,1.6-5.39,1.59-6.3.26-8.49,1.72-.5.34-1.14.86-4,7-2.74,5.94-3.4,8.17-5.58,8.89-.91.31-1,0-3.32.4a33.9,33.9,0,0,0-4.78,1.33c-4,1.31-3.43,1.31-4.64,1.59-3.77.88-5.2-.09-6.24,1.06-1.3,1.45.32,3.63-.8,5.05s-4.38.56-7.7,0c-4.38-.75-11.86-.54-26.81-.13a5.11,5.11,0,0,1-1.86-.27c-1.71-.6-2.23-1.93-3.58-3.45-.86-1-.74-.53-4.92-3.59-3.43-2.51-3.62-2.88-4.38-2.92-2-.09-3.1,2.5-6.1,6.77-3.77,5.35-6.8,9.67-9.69,9.3-2.07-.27-3.52-2.85-4-4.52s0-3.51,1.07-6.9c1.1-3.59,1.43-3.18,2-5.44.45-1.83,1.44-6.08-.67-9.56a4.28,4.28,0,0,0-1.85-2c-1.8-.78-3.57.61-7.31,2.12-3.28,1.33-3,.71-5.84,1.86a30.08,30.08,0,0,0-8.63,5.44c-2.72,2.46-4.72,4.26-5.7,7.3-.44,1.37-.15,1.35-.8,7.17-.57,5.14-.89,6-1.19,6.64-.42.9-2.14,4.55-5.45,5a6.78,6.78,0,0,1-4.38-1.06c-1.74-1.12-1.76-2.33-3.32-3-1.36-.63-2.44-.21-4.11,0-5.3.66-6.27-2.09-11.28-1.33a11.19,11.19,0,0,0-5.31,2c-1.37,1-1.68,1.83-3.32,3.06a17.54,17.54,0,0,1-4.12,2.12c-6.78,2.44-21.58-2.31-23.1.66-.41.81.46,1.57-.13,3.46a6.68,6.68,0,0,1-2,2.92c-3.48,3.22-.32,1.55-7.57,8.09,0,0-10,9.05-19.11,14.47a22.56,22.56,0,0,1-3.45,1.86c-1.77.66-2.66.58-3.45,1.46-1,1.15-.49,2.33-1.2,2.66-1.11.5-4-1.75-4.78-4.65-.46-1.78.07-3-.53-3.32s-2.18,1-3.05,2.39c-1.18,1.87-.6,2.78-1.33,5-.5,1.57-.9,1.5-4.38,6.51-2.26,3.25-2.46,3.81-2.52,4.51-.15,1.8.82,2.17,1.59,5.31.57,2.3,1.1,4.46,0,5.84-.81,1-1.73.64-3.32,2.13-1.24,1.16-1.06,1.77-1.86,2.12-1.59.71-3.83-1-5.57-2.39-3.26-2.53-3.83-5.28-4.78-5-.46.11-.58.79-1.2,4.38-.73,4.31-.88,5.24-1.19,6.5a17.86,17.86,0,0,1-1.73,5,14.27,14.27,0,0,1-6.37,5.44c-4.87,2.47-6.33.79-9.29,3-.57.44-.39.4-4.78,6.91-2.1,3.11-3.15,4.62-5.18,6a6.92,6.92,0,0,1-4.11,1.59c-3.1-.11-4.29-3.34-5.44-2.92-1.49.55.31,6,.66,15.93.15,4.3-.1,5.79,1.2,7.17,1.5,1.59,3.46,1.33,9.42,3.05,2.42.7,3.21.57,4.12,1.33,1.92,1.62,2.11,4.38,2.25,6.5.29,4.17-1,4.87-.4,8.23a16.64,16.64,0,0,0,2.13,5.31c2.2,4,3.74,4.12,3.85,6,.08,1.45-.84,2-5.45,7-4,4.33-4.45,5.22-6.5,6.38a15.39,15.39,0,0,1-5.44,1.85c-3.39.46-4.85-1.16-9.56-1.85a27.34,27.34,0,0,0-5.31-.27v25.09c-.74,1-1.83,2.57-3.19,4.38a66.3,66.3,0,0,1-4.38,5.57c-2.6,2.6-5.27,3.91-10.62,6.51a17.91,17.91,0,0,1-3.45,1.46c-2.73.63-4.12-.18-9-1.06-4.06-.74-6.14-1.09-8.63-.53a11.2,11.2,0,0,0-5,2.39c-1.54,1.32-1.49,2.09-3.05,4.24-3.18,4.37-5.84,4.53-5.84,6.64,0,1.71,1.74,1.7,3.45,4.91.31.59.62,1.28,1.86,6.77a54,54,0,0,1,1.19,5.84c-.14,3.22-1.93,5.71-4.11,8.76-2.73,3.81-4,4.11-4,5.85s1.17,2,4.51,6.63c2.73,3.81,2.89,4.87,2.79,5.71-.24,1.93-1.82,2.25-2.53,4.25-1.08,3.07,1.17,6.44,1.73,7.3,2.81,4.27,6.37,3.71,10.62,7.83,1.82,1.77,1.13,2.13,4.38,6.51,3.41,4.6,3.73,4,4.38,5.57,1.7,4.14-1.07,6.73-1.06,13.67a27.77,27.77,0,0,0,1.19,7.84c3.4,10.94,13.7,16.24,15.93,17.39a34.87,34.87,0,0,0,7.44,2.78,38,38,0,0,0,12.61.93c5.62-.53,6.66-1.91,9.56-.93,2.3.79,2.69,2,6.1,5.18,1.47,1.36,4.36,3.4,10.09,7.43,6.18,4.35,9.28,6.53,10,6.91,6,3.3,10.56,2.9,21.63,3.45,0,0,10.34.51,26.82,2.52,8.52,1,14.23,2.24,25.09,4.51,30.44,6.38,27.44,8.46,48.05,12.08,13.25,2.33,18.58,2.19,25.09,6.91,3.19,2.31,6.41,5.59,12,6.5a49.69,49.69,0,0,0,10.88.66c2-.15,2.71-.37,4,0,1.59.48,2.68,1.47,6.77,6.11,2.7,3.08,3.15,3.7,4.11,3.72,1.65,0,3.6-1.76,5.44-3.45,1-1,1.32-1.38,1.86-1.33,1.18.1,1.31,2.27,3.05,5.31a16.24,16.24,0,0,0,4.92,5.44,7.35,7.35,0,0,0,3.58,1.59c2.39.22,3.52-1.34,5.71-2.25,4.49-1.88,6.46,1.87,12.34.93,4.22-.68,7.5-3.3,9-4.52,3.77-3,5.19-6,7.17-5.57,1.13.26,1.13,1.36,3.18,3.18a17.67,17.67,0,0,0,4.39,2.66c3.84,1.65,7.73,1.07,9.69.8,17.46-2.43,18.25.61,24.55-2.66,5.53-2.86,7.79-6.68,12.61-6.11a57.5,57.5,0,0,1,5.71,1.6c5.38,1.62,6.48,2.29,7.17,2.79,2.36,1.67,1.93,2.56,4,3.58s3.77.89,6.37.8a11.78,11.78,0,0,0,5.18-.93,9.48,9.48,0,0,0,3.59-3.32c1.44-2.13,9.42-13.91,18.85-19.91a57.45,57.45,0,0,1,9.16-4.52c7-2.9,9.74-2.74,11.68-5.71,1.3-2,1.25-3.86,3.58-6a22.57,22.57,0,0,0,2.79-2.52c1.18-1.35,2-2.26,2.26-3.59.47-2.34-1.21-3.61-.54-4.91s2.73-1.24,4.25-1.32a50.15,50.15,0,0,0,17.52-5.18,37.17,37.17,0,0,0,4.65-2.79c4.29-2.91,6.44-4.36,7.83-7,1-1.83.86-2.84,2-3.46,1.55-.84,3.91-.17,5.45,1.07,2.66,2.14,1.76,5.14,4,6.37,1.55.86,3.4.17,5.31-.53.68-.25,7.22-2.79,9-9,.9-3.14-.09-4.82,1.19-5.71.59-.41,1.35-.43,8.63,2.52s5.77,2.68,7.83,3.32C703.38,1169.89,704,1170,704.34,1170.56Z"/><path d="M333.71,1353.22c-3.85-1.77-10,1.66-12.08,6.37a11.08,11.08,0,0,0-.66,5.84c.9,9.31,5.95,10.93,10.48,22.43,1.73,4.37,2.42,7.75,5.84,10.75.79.7,4.13,3.63,6.51,2.53a3.59,3.59,0,0,0,1.72-2.13c.91-2.76-1.87-4.53-3.85-9.82-1.44-3.87-.2-3.58-1.85-8.36-1.07-3.07-2.16-4.88-1.6-7.44.31-1.38.74-1.36,1.2-3.18a14.68,14.68,0,0,0,.13-6,19.05,19.05,0,0,0-1.86-6C336.45,1355.84,335.51,1354,333.71,1353.22Z"/><path d="M560.44,1289c-4.13,4.39-3.44,7.15-6.77,12.34-3.49,5.43-6.33,5.65-6.37,9a8.35,8.35,0,0,0,4.11,6.9,9.65,9.65,0,0,0,5.05,1.06,23.56,23.56,0,0,0,10.75-2.39c3.71-1.8,4.13-3.18,6.77-3.31,1.74-.1,2.93.43,4.38-.4a5.5,5.5,0,0,0,2.26-3.06c.94-2.85-.59-4.5-1.2-8.09-1-6,2.11-8.21.27-10.62-1.16-1.52-2.25-.46-8.23-2.53-3.56-1.22-4.72-2.13-6.77-1.72C563.35,1286.45,562.12,1287.18,560.44,1289Z"/><path d="M619.11,1584.19c-3.11.45-3.89.84-7.56,1.6-3.52.72-3.69.54-10.23,1.59a80.42,80.42,0,0,0-9.29,1.72c-2.84,1-7.39,2.54-9.82,6.24-3.84,5.86,1,11.12-1.86,21-.57,2-1.38,3.89-2.65,8.49a39.44,39.44,0,0,1-1.46,4.38c-.93,2.3-1.42,3.5-2.53,4.65-1.34,1.39-2.05,1.11-4.11,2.52-2.87,2-2.4,3.12-4.51,4.52s-4.29,1.34-8.77,1.32c-2.33,0-2.85-.2-7.3-.53-2.55-.19-5-.37-7.3-.4-8.8-.11-9.62,2.16-15.13,1.2-4.36-.76-5.55-2.48-7.57-1.46-2.24,1.13-1.82,3.94-4.38,7.56a21.68,21.68,0,0,1-5.84,5.58l-24.69-.13.93,15c1.87,4.12,3.52,5,4.65,5,1.81.09,2.73-1.87,6.5-3.18a16.47,16.47,0,0,1,3.58-.8c4.68-.63,7.46.86,13.41,2.12,6.52,1.38,5.74.14,9,1.33,5.69,2.07,5.79,5,11.15,6.24,1.31.31,5.07,1.19,8.63-.53,2-.94,1.83-1.7,4.11-2.92,2.8-1.5,4.12-1,8-2,3.11-.83,5.59-1.49,7.83-3.45,2.47-2.17,2.27-3.83,5.71-6.91,1.75-1.57,2.86-2.53,4-2.25,2,.5,3.17,4.76,3,8.09-.09,2.81-1.06,4.2-.13,6.38a4.41,4.41,0,0,0,2.26,2.52c1.66.6,3.37-.57,6.24-2.52,2.16-1.48,3.43-2.35,4.64-4.12a12.72,12.72,0,0,0,2.13-5.71,9.9,9.9,0,0,0-.4-4.78c-1.21-3.2-4.35-3.16-4.91-5.57-.35-1.51.64-2.29,1.59-4.52,2.78-6.5-1.18-10.42,2-15.13a7.1,7.1,0,0,1,3.85-3.18c1.55-.42,2.4.17,3.85-.4,1.7-.67,2.08-2.09,3-3.19,2.59-2.93,6.58-.45,12.75-2.12,1.81-.5,7.78-2.12,9.69-6.64,1.18-2.81.06-5,2.25-8.63a10.74,10.74,0,0,1,2.53-3c2.23-1.8,3.66-1.3,5.44-2.92s1.1-3,2.52-4.25c2.39-2.16,8-1.69,11.15,1.2,4.06,3.78,2.54,10.59,4.78,11,1.58.3,2.39-3.07,4.65-3,2,0,2.67,2.59,7.3,8.1a28.89,28.89,0,0,0,3.71,4c3,2.45,4.44,2,7.3,4.51,2.48,2.14,2.64,3.49,3.85,3.45,1.8,0,1.85-3,5.18-6.23,1.61-1.57,1.51-.79,6.37-4.38a51,51,0,0,0,4.52-3.59c1.87-1.72,1.88-2.06,2.92-2.65,1.32-.76,2.39-.82,6-1.07,5.77-.4,5.64-.43,5.84-.39,4.05.71,4.42,3.67,7.83,4.24,2.88.49,5.35-1.17,7.57-2.65,1.75-1.17,5.89-4,7.17-9.43.09-.39,1.58-7.33-3.19-12.74-2.7-3.07-7.38-5.6-11.41-4.91a9.53,9.53,0,0,1-4.12.26,9.24,9.24,0,0,1-4.38-2.52c-2-1.7-5-2.73-11.15-4.78-5.2-1.74-4.67-.92-10.22-2.65-8.36-2.61-9-4.29-13.67-4.38-3.31-.07-4.32.74-7.31,0-3.68-.92-4-2.6-7-3.45-3.86-1.09-9.44-.1-11.82,3.18s.11,6.47-2.78,10a9.38,9.38,0,0,1-4.78,2.92c-4.22,1-5.85-1.89-12.21-2.26A33,33,0,0,0,619.11,1584.19Z"/><path d="M733,1541.05c-3.84-1.43-8.93.27-11.68,3.72-3.14,3.92-2.15,8.73-1.46,12.08.87,4.23,3.54,10.64,7,10.75,1.09,0,1.5-.57,3.72-2.12,6.65-4.66,9.28-3.71,10.75-6.64,1.31-2.62.35-5.63-.53-8.36A16.68,16.68,0,0,0,737,1544,10.94,10.94,0,0,0,733,1541.05Z"/><path d="M1498,1574.77c-3.38,3.32,3.09,11.23-.66,17.65-1.06,1.81-3,3.58-4.12,3.19s-1-2.33-1.46-6.11c-1-8.39-2.12-8.39-1.59-11.41a15.46,15.46,0,0,1,5.71-9c5.26-4,11.45-3.16,15-2.66a20.09,20.09,0,0,1,10.75,4.39c1,.86,6.45,5.5,5,9.69-.54,1.64-2.22,3.44-3.85,3.31-2.46-.19-2.41-4.64-7-8.36a12.22,12.22,0,0,0-5.18-2.65c-2.46-.54-4.56-.1-7.56.53S1498.54,1574.26,1498,1574.77Z"/><path d="M1322.27,1681.63c-3.82,1.61-5,8.71-2.39,10.88,1.67,1.41,4.56.47,5.57.14.67-.22,5.42-1.78,5.58-5.31.11-2.63-2.37-4.66-4.25-5.45A6,6,0,0,0,1322.27,1681.63Z"/><path d="M1630.1,1437c-1.9,2.25-.62,5.73-.53,6,.28.74.36.52,3.32,4.51.89,1.21,1,1.45,1.46,1.6,1.77.62,4.85-1.75,5.84-4.65.84-2.44.49-6.09-2.25-8C1635.54,1434.81,1631.86,1434.9,1630.1,1437Z"/><path d="M1388.51,1406.45c-3,3.46-6.8,3.44-6.77,4.78,0,1,2.3,2,4.11,2.25,3.85.61,6.13-1.66,7.17-.66.84.8-.46,2.44-1.2,7.17-.52,3.35,0,3.57-.66,5.84a12.22,12.22,0,0,1-3.58,6.24c-.83.72-3.24,2.83-5.58,2.25-1.62-.4-2.12-1.83-4.11-5.31a59.49,59.49,0,0,0-8-11.41c-1.59-1.7-3.83-3.75-4.38-4.25-3.73-3.42-5-4-5.18-5.71-.34-2.65,2.29-5,2.79-5.44,1.42-1.26,2.57-1.46,5.18-2.52,2-.82,2-1,6.64-3.32,11.83-6,17.79-7.93,20.57-8.76,4.25-1.28,6.42-1.56,8.63-.67a12,12,0,0,1,5.44,5.18c1,1.79,1.51,2.69,1.2,3.45-1.11,2.67-9.27-1-15.4,3.19a23.68,23.68,0,0,0-4.78,4.51C1389.28,1405,1389.55,1405.24,1388.51,1406.45Z"/><path d="M2170.38,1664.24c-1.18,1.72-.23,2.66-.67,7.43s-1.62,6.17-.53,8.5a5.89,5.89,0,0,0,2.92,2.92,5.79,5.79,0,0,0,5.45-.53c.91-.69,1.77-1.94,1.06-14.87-.2-3.57-.35-5-1.46-5.71C2175.34,1660.81,2171.89,1662,2170.38,1664.24Z"/><path d="M2091.13,1660.39c-2.61,1.29-3,5.16-3.05,5.57-.31,3.27,1.43,6.87,4.11,8.1s7,.64,7.83.53a4.83,4.83,0,0,1,1.86,0c2.35.54,3.6,3.07,4,3.85a12.91,12.91,0,0,1,1.07,4.65c.31,2.64.52,4.48-.14,4.78-1.09.49-2.74-4.12-6.9-4.91-1.25-.24-1.49.1-3.32-.27-2.09-.43-2.76-1.08-4.51-1.06-1.58,0-1.67.55-2.52.4-1.86-.35-2.22-3-4.39-7.84-2.28-5.09-3.41-5.52-3.18-7.69.07-.71.93-2.38,2.65-5.71,2.12-4.1,2.35-4.36,2.66-4.65,3.16-2.9,7.95-1.73,8.49-1.59s3.49.9,3.59,2.25-2,2.35-3.19,2.79C2093.76,1660.53,2092.77,1659.58,2091.13,1660.39Z"/><path d="M2056.08,1523.79c10.69,1.23,12.46,3,17.66,2.79s8.65-2.43,9.29-1.33-2.48,4.11-3.05,4.65a14,14,0,0,1-6.37,3.72c-3.52.81-4.47-.85-10.09-1.73-7.17-1.12-10.14.88-12.22-1.46-1.43-1.62-1.7-4.47-.53-5.84C2051.81,1523.38,2053.78,1523.53,2056.08,1523.79Z"/><path d="M1946.83,1530c-4.56,2.39-7.42-.09-9.69,2.13-1.16,1.13-1.3,2.74-1.59,6-.23,2.62-.42,4.73.66,5.44.64.42,1.51.24,7.31-3,4.22-2.4,5.72-3.41,7.3-5s3-3.14,2.52-4.52-2.23-1.85-3.59-1.86A6,6,0,0,0,1946.83,1530Z"/><path d="M1919,1561.63a13.35,13.35,0,0,0-9.83,7.16c-1.81,3.9-.71,7.55,1.33,14.34.51,1.69.14,0,4.51,9.69.82,1.81,1.38,3.06,2.53,3.32s2.13-.8,5.84-3.58,3.57-2.31,4.11-3.06c1.52-2.09,1.25-4.83.67-10.22a58.23,58.23,0,0,0-1.46-8.23c-1.31-5-2.21-8.3-4.78-9.29A5.38,5.38,0,0,0,1919,1561.63Z"/><path d="M2121.93,1424c1.31-2.31,6.06-2.65,9.29-.93a6.14,6.14,0,0,1,2.92,2.79c.63,1.39.22,2.34-.93,7.17s-1.19,5.68-2.13,6.1c-1.69.77-4.11-1-5-1.72a10.28,10.28,0,0,1-2.79-3.19c-1.11-2-1.23-3.72-1.46-6.9C2121.66,1425.46,2121.61,1424.53,2121.93,1424Z"/><path d="M2145.82,1320.83c.43.62-.29,1.76-1.73,4-3.14,4.86-3.29,5-3.71,5.31-2.52,1.63-6.3,1.42-6.77.26-.38-.93,1.75-1.6,5.71-6.1,1.68-1.93,3-3.71,5-3.85C2144.65,1320.41,2145.49,1320.35,2145.82,1320.83Z"/><path d="M1973.65,1215.82c.57,4.35,4.85,4.17,9.29,10.09s3.84,11.1,6.77,11.55c1.57.24,2.09-1.19,6-4.11,6.31-4.76,8.84-3.93,12.35-8.1a15.46,15.46,0,0,0,3.32-6.11,15.23,15.23,0,0,0-.8-10c-1.23-2.7-3.23-4.27-7.17-7.3-5.69-4.39-9.62-7.42-13.14-6.24-2.19.73-1.51,2.19-4.91,4.24-3.58,2.17-5.65,1.35-7.83,3.72-.92,1-1.32,2.08-2.13,4.25C1974.34,1210.65,1973.33,1213.38,1973.65,1215.82Z"/><path d="M1867.05,1090.64c-1.74.95-4.2,3.12-4.11,5.58.12,3.41,5,3.37,7.17,8.76a13.18,13.18,0,0,0,2.39,4.38,6.65,6.65,0,0,0,2.65,2.13c1.27.49,1.88.13,5.58-.27,3.19-.35,3.71-.18,4-.66.71-1.26-2.59-2.88-3.32-6.91-.41-2.24.42-2.84-.27-5.17a11,11,0,0,0-2.38-4.12c-1.37-1.63-3.66-4.37-7.31-4.64A8.24,8.24,0,0,0,1867.05,1090.64Z"/><path d="M1974.05,941.57c1.84-1.75,6.85-.47,9.55,2.39.72.76,1.72,3.21,3.72,8.1a30.25,30.25,0,0,1,1.46,4.25c.71,2.75,1.07,4.13.53,5.57-.77,2.07-3.21,4-5,3.59-2.21-.55-1.35-4.09-4.91-8.1-2-2.29-3-2-4.38-4.25a13.43,13.43,0,0,1-1.6-6.24C1973.19,944,1973.08,942.49,1974.05,941.57Z"/><path d="M1833.47,841.61c-2.11-2.55-2.1-3.65-3.85-6-1.45-1.92-2.18-2.88-3.45-3.45-3.24-1.44-8.2.3-9.16,3-.77,2.21,1.62,3.4,1.06,6.77-.44,2.68-2.18,3.33-1.72,4.91.38,1.35,1.75,1.23,5.17,3.46,2.94,1.9,3.24,2.83,4.65,2.92,1.73.1,3-1.24,5-3.32,1.72-1.75,4.28-4.36,3.59-6.64C1834.63,842.79,1834.43,842.77,1833.47,841.61Z"/><path d="M1956.79,793.29c-2-.79-9.43,8.86-7.3,12.08,1.12,1.7,5,1.79,6.9.14,1.69-1.47,1.51-4,1.2-8.5C1957.42,794.67,1957.34,793.51,1956.79,793.29Z"/><path d="M1825.77,746.3a27,27,0,0,1,4.78,1.86c2.25,1.88,1.79,4,4.51,5.84.62.42,1,.57,1.2,1.06.47,1.42-1.68,3.69-3.85,4.65a7.63,7.63,0,0,1-6,0c-2.32-1.09-3.18-3.18-4.78-7-1.12-2.73-2.74-6.65-1.46-7.69C1820.48,744.74,1820.93,744.63,1825.77,746.3Z"/><path d="M1898.25,752.54c-2.63,4.78,1.76,8.61.13,15-1.33,5.23-4.9,5.13-4.78,8.9.11,3.17,2.63,3.11,9.69,11.94a24,24,0,0,0,5.84,5.58,11,11,0,0,0,3.46,1.86c2,.47,3.19-.25,11.68-4.12,1.33-.6,2.18-1,2.12-1.33-.15-.89-6.5-.57-7.43-.53-5.82.29-7.16,1.22-9.56.14a10.41,10.41,0,0,1-4-3.59,16.53,16.53,0,0,1-3.06-7c-.47-2.31-1.09-5.36.14-8.37.73-1.8,1.85-2.88,8-7,8.35-5.68,8.39-5.11,10.09-6.9,2.24-2.37,1.58-2.73,6.5-10.23,3.47-5.28,3.75-5,4.39-6.77,2.2-6.07-.2-11.93-.8-13.4-.85-2.07-2.5-6.11-6.51-8.5-.88-.53-1.91-1-10.08-2.26-8.68-1.34-8.64-1-10.09-1.72-2.15-1.09-4.44-3.56-9-8.5-2.77-3-2.73-3.17-3.72-3.85-4.86-3.34-11.69-2.73-12.08-1.32-.16.61,1,1,4.78,4.11,1.5,1.23.67.64,6.51,6,3.37,3.09,4.83,4.37,5,6.51.12,1.18-.25,1.54.13,2.12,1.16,1.78,5.18-.59,9.69.67a12.12,12.12,0,0,1,6.51,4.91c3.41,5.07,1.61,11.07,1.46,11.55-1.23,3.9-4.5,6.76-11,12.47C1899.15,751.53,1898.85,751.44,1898.25,752.54Z"/><path d="M1761.52,627.36c1,2.08.4,3.29.8,5,.9,4,6.44,7.42,9.69,6.24a6.23,6.23,0,0,0,2-1.46c1.08-1,3.3-3,3-4.92-.18-1.38-1.56-1.51-5.31-4.11s-4.09-3.7-6.37-4.25-5-.21-5.31.8C1759.84,625.36,1760.76,625.84,1761.52,627.36Z"/><path d="M1653.33,745.37c-3.17.94-7.21,3.22-6.9,4.92.19,1,1.71.76,6.51,2.92,2.83,1.27,3.63,1.95,5.31,1.85a5.56,5.56,0,0,0,4.11-2c1.6-2.18.9-5.72-1.06-7.43C1659.06,743.68,1655.82,744.64,1653.33,745.37Z"/><path d="M1574.48,503.25c-.16,1.48,1.15,2.75,1.6,3.18,1,1,1.5.79,2,1.46.91,1.28.15,3.31-.53,5.05-1.57,4-3.44,5-2.92,6.63a3.23,3.23,0,0,0,2.52,2c1.46.26,2.63-.69,4.38-2.12s3.34-2.72,4.11-4.91c.64-1.8.06-2.27.8-4.91a32.49,32.49,0,0,1,1.46-3.59c1.09-3.1,1.09-7.78-.93-8.89-.64-.35-.83,0-6,1.59-2.34.72-4,1.16-5.45,2.66A3.17,3.17,0,0,0,1574.48,503.25Z"/><path d="M1546.21,498.86c4,2.06,3.76,9.51,6.24,9.56.47,0,.47-.26,2.12-.93a21.58,21.58,0,0,1,3.72-1.06c4.91-1.12,6.54-3.51,8.36-2.52a3.17,3.17,0,0,1,1.33,1.72c.72,1.81-.39,2.9-.67,5.71-.25,2.53.56,2.61.27,5.05-.07.57-.54,4.58-2.12,4.91-2,.41-3.19-5.48-7.7-6.37-.36-.07-2.62-.52-3.72.66-.75.81-.38,1.76-1.19,2.39-1.12.86-2.75-.22-3.19.4s1.14,1.76,1.59,4c.29,1.4.22,3.71-.93,4.38-1.43.84-3-1.81-6.77-2.12-2.81-.23-3.06,1.12-5.44.66-2.89-.56-3-2.65-6.37-3.58-2.5-.7-4,0-4.38-.8s.77-2.3,3.05-5.31c1-1.34,1.34-1.64,1.33-2.26,0-1.62-2.36-2-3-4-.61-1.74.4-3.55.79-4.25,1.42-2.54,4-3.46,7.44-4.64C1541.86,498.76,1544.33,497.91,1546.21,498.86Z"/><path d="M1414.52,566.17l-29.73,28-2.52,1.46.66,18.18c1.93,3.16,3.33,5.55,4.25,7.17a18.64,18.64,0,0,0,3.58,4.91,14.75,14.75,0,0,0,2.39,1.86c3.57,2.09,8.29-1.65,15.8-4,8.46-2.63,9.86-.19,15.93-3.45a21.45,21.45,0,0,0,8.1-7.3c1.81-2.94,1.64-4.53,2.65-7.3,1.3-3.58,6.77-8.14,17.66-17.13,5.3-4.38,7-5.75,9.55-8.23a82.87,82.87,0,0,0,7.57-8c5.1-6.27,4.58-7.91,7.17-9,5.38-2.33,10.7,3.46,13.27,1.19,1.7-1.49-.32-4.26-.13-13.27.13-6.12,1.14-8.27,2.12-9.69a12.32,12.32,0,0,1,5.05-4.25c2.69-1.18,3.67-.28,4.78-1.33,2.58-2.42-1.67-8.16.93-11,1-1.08,3.13-1.52,7.43-2.39,2.34-.48,3.21-.46,3.45-1.07.7-1.77-5.28-5.77-6.37-6.5-3.75-2.51-5.39-2.63-7.57-5.18-1.14-1.34-2.13-2.49-2.39-4.25-.36-2.51,1.18-3.45,2.39-8.09.69-2.64,1-4,.67-5.58-.65-2.84-2.55-2.63-5.18-6.37-1.48-2.11-1.35-2.84-5-9.42-.78-1.39-1.22-2.12-2.13-2.53-1.51-.66-3.42,0-7.3,2.53s-5.83,4.49-9.82,7.83c-4.29,3.58-4.18,3.12-7.3,5.84a92.69,92.69,0,0,0-8.5,8.36c-5.71,6.47-4.51,7.35-10,13.54a106.26,106.26,0,0,1-9.69,9.43c-4.75,4.23-4.51,3.51-6.77,5.7-2.08,2-9.36,9.3-11.68,19.92-.49,2.27-.17,2-1.19,8.23C1415.87,559.76,1415.08,563.61,1414.52,566.17Z"/><path d="M1157.13,745.37c-5.26,3.52-9.91-.4-18.32,2.39-2.56.85-4.76,1.59-5.71,3.59-1.5,3.2,1.62,6.63,4.38,12.48,2.2,4.65,3.06,9.56,4.78,19.38,1.58,9,2.37,13.5,2,19.51-.58,9.38-3.36,14.66-1.46,15.8,1,.62,2.58-.55,11-6.11,7.67-5,7.22-4.63,7.7-5,5.7-5,7.4-11.66,9.56-20.18a87.3,87.3,0,0,0,2.39-16.06c.85-11,1.2-16.53-2-21.64-2.27-3.63-6.71-7.84-10.49-7C1159.21,742.83,1159.26,744,1157.13,745.37Z"/><path d="M1388,445.9c-1.46,1.14,1.89,4.89.53,8.23-1.51,3.7-7.23,3-8.37,7a3.56,3.56,0,0,0,.27,2.92c.36.48,1.27,1.24,7.57.53,3.77-.43,5.67-.66,6.77-1.46,2-1.47,1.3-2.75,3.71-6.38,2-2.93,2.85-2.75,5-6,1.13-1.65,3.63-5.31,2.65-6.5-.62-.76-2.16.57-6.77,1.46-3.08.59-5.29,1-8.1.53C1389.31,446,1388.58,445.42,1388,445.9Z"/><path d="M1456.87,358.55c-5.62,1.92-5.61,4.49-16.19,12.88-4.55,3.6-5.35,3.76-6.24,5.57-1.84,3.73.47,5.16-.27,14.21-.16,2-.44,3.93.8,5.44s2.87,1.65,4.24,1.86c3.85.57,5.26-.83,9.43-1.2s4,.89,8.5.67c3.23-.16,7.73-.38,9.42-3.19,1.31-2.18.39-5.05-.66-8.36-1.46-4.57-3-4.95-3.06-7.83a10,10,0,0,1,3.32-7.3c2.46-2.17,3.91-1,6.64-3.19,2.22-1.78,4.59-5.23,3.58-8.23a5.25,5.25,0,0,0-2.12-2.65c-2-1.33-4.31-.85-7.57-.27C1457.52,358.61,1458.72,357.92,1456.87,358.55Z"/><path d="M574.24,777.23c-3.93-1.39-9.41-1.21-10.08.8-.31.9.46,1.87,1.72,3.45.72.9,3,3.75,6.64,4.12a4.37,4.37,0,0,0,2.52-.27,4.89,4.89,0,0,0,2-6.24C576.82,778.71,576.28,778,574.24,777.23Z"/><path d="M595.88,759.71c-.43,1.69,1.62,3.3,7.57,8.5,2.94,2.56,3.82,3.38,4.51,3s.56-1.33.53-6.77c0-4.34,0-5.12-.66-5.71-1.18-1-2.3.45-6,0-2.47-.3-4-1.19-5.18-.26A2.27,2.27,0,0,0,595.88,759.71Z"/><path d="M843.59,982.19c1.44-.52,3.11,5,9.55,10.62,1.7,1.49,3.34,3,5.05,4.51,2.66,2.3,3.83,3.18,4.25,4.92.32,1.35.25,3.45-1.07,4.51-1.68,1.36-4.42.23-5.31-.13s-2.21-1.06-6-5.71a39.49,39.49,0,0,1-4.65-6.51,17.82,17.82,0,0,1-2.52-7C842.82,986.41,842.42,982.61,843.59,982.19Z"/><path d="M848.5,955.91c.46,4.3,1.68,7.62,4.11,14.07.86,2.28,3.87,10.11,8.9,15.66a6.34,6.34,0,0,0,3.85,2.39c2.11.26,2.67-1.23,6-2.25,3.52-1.1,4.76,0,7.43-1.46a12.09,12.09,0,0,0,2.92-2.53c5.15-5.34,7.74-8,8.37-9a25.91,25.91,0,0,0,3.32-8c1.52-7.11-.84-13.42-3.32-20-1.74-4.63-2.8-5.61-3.85-10a10,10,0,0,0-1.46-3.85,10.55,10.55,0,0,0-6.64-3.85c-1.56-.26-1.45.1-4,0-4.3-.16-5.3-1.23-7.84-1.06s-4.15,1.34-6.23,2.79c-4.1,2.84-6.14,6.53-8.1,10.09a24.66,24.66,0,0,0-3.45,17Z"/><path d="M968.63,915.29c-1.1-.1-4.65-.43-5.57,1.19-.51.89-.07,2.08,1.19,4.38a43.13,43.13,0,0,0,5.18,7.84c7.41,8,11.16,14.24,11.81,13.8.27-.18-.36-1.24-2-5.71,0,0-1-2.71-1.86-5.44-.47-1.47-1.58-5.06-3-10.22-.71-2.49-1.15-4.09-2.66-5A6.35,6.35,0,0,0,968.63,915.29Z"/><path d="M1033.15,1001.44a14.49,14.49,0,0,0,1.46,10c.33.56,2.16,3.61,3.85,3.31,1.45-.25,1.32-2.74,3.45-3.58,1.28-.51,1.64.28,3.85-.27a5.8,5.8,0,0,0,3-1.59,3.76,3.76,0,0,0,1.06-1.72c.55-2.58-3.47-5.2-3.85-5.45a11.37,11.37,0,0,0-6-1.72,27.47,27.47,0,0,0-5,.66C1034.23,1001.19,1033.59,1001.34,1033.15,1001.44Z"/><path d="M1082.93,1107.9c-1,4.81-2.23,4.77-2.53,8-.36,3.89,1.13,7,2.53,10,.55,1.16,2.54,5.34,3.58,5,1.61-.45-1-11,1.46-11.95.62-.24,1.36.23,3.45,2.12,4.48,4.06,6.93,7.22,10.09,10.62,3.35,3.61,3.34,3,5.44,5.58a43.8,43.8,0,0,1,5.58,8.63c1.4,2.92.92,2.88,4,12.08,1.65,5,2.55,7.25,4.78,8.89a11.88,11.88,0,0,0,4.65,2,11.19,11.19,0,0,0,3.18,0,11.73,11.73,0,0,0,4.51-1.59c1-.65,3.08-2.28,4.52-7.43,1-3.52,3.38-12.09-.8-19.78-2.1-3.88-5.17-6.23-5.31-11.15,0-1.48.22-1.64.13-3.32-.21-4-1.92-6.8-3.71-10-2.09-3.68-3.86-7.54-5.84-11.28-3.43-6.47-5.14-9.7-5.58-10.62-3.65-7.73-4.13-10.86-7.43-12.35a10,10,0,0,0-5.58-.53c-3.84.54-6.37,2.8-8.36,4.65-2.28,2.11-1.8,2.42-5.71,7.3-4.14,5.16-5.2,5.46-6.11,8.1S1083.82,1103.73,1082.93,1107.9Z"/><path d="M1150.89,1015.11c.68,3.74,3.4,3.93,4.25,8.5.48,2.58,0,4.58.66,4.78,1.08.31,2.4-4.84,5.31-5.05,1.46-.1,3.11,1.06,4,2,1.11,1.2,1.2,2.28,2,2.39,1.16.16,2.34-2,2.39-2.12,1.67-3.18-.71-5,0-9.69,0,0,.07-.5,2.52-7a10.14,10.14,0,0,0-1.2-1.06c-.79-.61-3.42-2.45-13.14-2.65a6.11,6.11,0,0,0-2.26.13C1152.33,1006.32,1150.17,1011.13,1150.89,1015.11Z"/><path d="M950.05,838.16c-1.1,1.46-2.23,3-2.26,5.18a6.72,6.72,0,0,0,1.33,4.11c.57.76,1.5,2,2.79,2.13,3,.29,5.38-5.77,6.77-9.29.49-1.27.8-2.29.39-3.32a4.48,4.48,0,0,0-4.51-2.39C952.6,834.78,951.43,836.32,950.05,838.16Z"/><path d="M1742.94,980.33c-1.12,1.33-4.34,5.16-4.25,10.49a8.11,8.11,0,0,0,.93,4.38c1.14,1.92,2.54,1.93,6.24,4.38s3.34,3.11,5.31,3.72a9.72,9.72,0,0,0,7.3-.8c.7-.42,1-.76,3.58-3.85s4-4.85,4.12-5c1-2.39.12-5.44-1.6-11.55-1.1-3.92-1.55-4.38-1.85-4.65-1.61-1.38-3.09-.56-10.23-.93-2.65-.13-3.42-.3-4.77.14A10.34,10.34,0,0,0,1742.94,980.33Z"/><path d="M7.69,687c-3,3-4.45,2.83-6.11,5.31C.81,693.43-.57,696,.25,696.92c1,1.16,5.53-.45,7.83-3.32a7.73,7.73,0,0,0,1.33-2.25c.59-1.57.24-2.22.67-4.52.37-2,.9-2.91.66-3.05S9.48,685.15,7.69,687Z"/><path d="M89.86,756.13a71,71,0,0,0-1.6,16.32c.12,5.5.86,8.21,1.46,8.23.75,0,.82-4,2.92-4.64,1-.31,2.17.36,4,1.46a9.27,9.27,0,0,1,2.92,2.39,9.74,9.74,0,0,1,1.59,4.25c.58,2.6.9,4.09.13,5.57-.86,1.65-2.53,1.53-2.52,2.26,0,1.65,8.24,4.48,10.75,1.46a4.14,4.14,0,0,0,.8-2.66c-.06-1.84-1.34-3.17-2.92-4.78-2-2-2.63-1.83-3.32-3.18a6.7,6.7,0,0,1-.4-4.52c.55-2,1.73-2.34,3.32-5a18.44,18.44,0,0,0,1.73-4,22.58,22.58,0,0,0,.66-9.69c-.39-4-1.19-4.58-1.59-4.78-.9-.44-2,0-2.92.4-3.1,1.28-3,3.18-5.18,3.71a6.51,6.51,0,0,1-5.58-1.72c-1.19-1.16-1.45-2.48-2.39-2.52C91,754.63,90.28,755.45,89.86,756.13Z"/><path d="M146,667.85c-2.67,3.47,1.14,7.74-1.33,11.68a20.39,20.39,0,0,1-3.45,3.19c-2.42,2-3.13,2.22-4.38,3.32a16.73,16.73,0,0,0-4.52,7.3c-1.41,3.9-2.58,6.91-1.19,9.16,2.49,4,11.9,3.68,14.87-.14.89-1.14.65-1.9,2-3.58,1.62-2,3.21-2.49,5.71-4,3.59-2.15,5.74-3.43,7-5.84,1.51-2.82.32-4.35,2.39-8.76,1-2.08,1.28-1.84,1.59-3.06.91-3.53-1-8-4.38-10.09a11.23,11.23,0,0,0-4-1.32c-2.15-.47-5-1.1-7.83.26A6.45,6.45,0,0,0,146,667.85Z"/><path d="M170.43,661.61c-1,1.15-1.5,2.39-2.25,5.71-1.16,5.12-1.94,8.57-.67,9.29.8.45,2-.36,2.92-.93,1.86-1.21,2.7-2.91,3.85-5.31a15.35,15.35,0,0,0,1.73-4.64c.31-2.16.21-5.91-1.46-6.51S170.66,661.34,170.43,661.61Z"/><path d="M194.59,599.88c-1.58,3-2.37,4.45-2.25,5.45.36,3.14,4.65,3.26,5.31,6.37.26,1.26-.3,1.92-3.85,7.57-4.32,6.85-4.48,7.47-6,8.62-2.76,2.13-4.29,1.67-5.31,3.59-1.45,2.73-.18,7.2,2,7.83,1.63.47,3.48-1.29,4.92-2.66,2.6-2.47,2.07-3.67,4.51-6.23,2.62-2.77,4-2.19,5.31-4.65a8.22,8.22,0,0,0,.93-5.44c-.29-1.29-.8-1.59-1.06-3.19a11.83,11.83,0,0,1,.13-3.72,38.76,38.76,0,0,0-.27-6c-.31-3.88-.5-3.49-.79-7-.27-3.29-.17-4.52-.67-4.65S195.89,597.44,194.59,599.88Z"/><path d="M227,572.14c-.21,0-5.11.34-5.57,2.26-.35,1.44,2.08,2.65,1.59,4-.35,1-1.73.59-2.79,1.86-1.3,1.56-.71,3.94-.66,4.11.28,1,.59.79,2.92,3.85,1.09,1.43,1.58,2.22,2.65,2.52a3.36,3.36,0,0,0,1.73,0c2.41-.55,4.3-3.14,6.64-6,3.3-4,4.95-6,6.63-7a14.37,14.37,0,0,0,3.19-2.53,10.78,10.78,0,0,0,2.12-3.05c1.09-2.59-.43-4.11-.79-8-.49-5.26,1.83-7.88.4-9-1.28-1-4,.3-5,.8a10.34,10.34,0,0,0-3.58,2.92,12.71,12.71,0,0,0-2.26,4.24c-1.66,5.18.45,8.23-1.19,9.43C231.79,573.39,230.65,571.92,227,572.14Z"/><path d="M246.1,536.43c-1.25,0-4.58,8.08-.53,12.21,2.83,2.91,7.55,2.1,8.09,2a8.32,8.32,0,0,0,3.32-1.33c1.5-1,2-2.24,3.45-5,.63-1.21,2.17-4.19,3.72-6.77,1.84-3,2.75-4.56,3.72-5.17,2.65-1.69,4.51-.25,8.1-2.26a9.85,9.85,0,0,0,3-2.52c1.6-2.08,1.36-3.75,2-5.71.8-2.46,2.24-3.07,10-9,3.75-2.9,5.63-4.35,6.63-5.31,1.74-1.65,3.46-3.59,7.7-9.95,4.41-6.61,8.88-13.31,8-14.07-.47-.4-2.21.91-3.45,1.85a25.83,25.83,0,0,0-4.92,5.05,67.4,67.4,0,0,1-6.77,7.17c-4.09,3.87-4.47,3.19-7.3,6.24s-2.65,4-5.57,6.9c-2.36,2.38-2.63,1.95-5.84,4.78a91.25,91.25,0,0,0-8.37,8.89c-4.35,5-3.42,4.29-4.64,5.44-5.33,5-7.68,3.79-11,8.1-.89,1.15-1.9,2.76-3.58,2.92a4.9,4.9,0,0,1-3.19-1.19C246.71,538.15,246.68,536.41,246.1,536.43Z"/></g></g></svg>