<svg xmlns="http://www.w3.org/2000/svg" viewBox="0 0 1181.68 2640.33"><g id="Layer_2" data-name="Layer 2"><g id="Finland"><path d="M322,735.2c.05,1.72-.76,3.94-2.4,8.38a83,83,0,0,1-5.47,12.49c-1.23,2.24-1.25,2-6,9.75-4,6.52-4.55,7.63-4.27,9.23.66,3.82,5.36,6,8.21,7.36a17.54,17.54,0,0,0,8.55,2.05c3.31-.15,4.55-1.36,7.87-.85,1.06.16,1.37.35,4.79,1.71,7.48,3,8,2.86,8.55,3.76,1.65,2.63-2,4.67-2.05,10.95-.09,5.64,2.7,11.65,3.25,12.83,1.3,2.81,2.21,3.75,1.88,5.47-.56,2.94-3.76,3-5.13,6.67-1.1,2.92.38,4.4-1,6-1.14,1.28-2.41.63-6.33,1.71-2.56.7-4.9,1.34-6.33,3.08-1.21,1.47-1.08,2.9-1.19,7.18-.2,7.22-.3,10.82-1.37,14.37-1.47,4.84-3,4.65-2.91,7.18.25,5.19,6.77,5.36,10.43,12.32,2.64,5,.31,6.89,3.25,15.73a59.31,59.31,0,0,0,3.94,8.73c7.08,13.67,11,16.21,16.76,27.88,3.17,6.39,5,10.77,5,10.77,1.77,4.32,1.73,4.88,3.08,7.53,2.44,4.77,3.74,5.27,4.1,8a13.07,13.07,0,0,1-1.88,7.87c-1.19,2.23-2.19,2.85-5.47,6.67-1.91,2.21-3.36,4.09-4.28,5.3l1.71,49.26a43.85,43.85,0,0,1-9.23,14.88c-4.43,4.63-8.55,6.69-12.32,13.34a24,24,0,0,0-2.91,7.53,22.75,22.75,0,0,0,1.2,12c1.22,3.1,2.08,3.13,2.57,5.13,1.12,4.57-3.54,6.41-4.79,12.49-.46,2.21.18,1.63,1,10.61.79,8.38.32,9.85,1.54,13.51a26.49,26.49,0,0,0,4.45,8c6.07,7.82,16.41,13.08,18,13.85s2.88,1.34,3.76,2.74c2.11,3.35-.85,6.78-.17,12,.38,2.85,1.33,2.26,4.79,8.9,3.25,6.23,2.73,7.36,6.84,15.9,2.15,4.46,2.35,4.27,2.74,5.82,1.36,5.43-1.1,7.69.34,12.83.46,1.62.7,1.4,3.59,6.67,0,0,2.49,4.53,4.79,9.41,5.74,12.13-2.52,30.33,1,31.81,1.27.53,3.59-1.28,4.62-2.91,1.15-1.81.4-2.91,1.37-5.64.4-1.15,1.64-4.64,3.93-5.13,1.66-.36,2.46,1.17,7.36,4.27a38.42,38.42,0,0,0,6,3.25c2.57,1.09,4.95,2.09,7.87,2.06,4.73-.06,8.32-2.82,8.55-2.4s-3,1.6-3.76,4.45c-.53,1.93.07,4.56,1.71,5.64s3.33-.3,5.65.69c1.82.78,2.68,2.47,3.42,3.93,3.42,6.76,8.06,12.9,11.11,19.84.47,1.07,1.31,3,2.57,3.08,1.68.09,2-3.28,4.62-4.45s3.81,1.19,9.06,1.89,6.55-1.13,9.24.51c1.45.88.86,1.29,4.1,4.62a44.79,44.79,0,0,0,4.79,4.27c2.89,2.2,3,1.67,4.11,2.91a14.54,14.54,0,0,1,3.25,6.67,6.35,6.35,0,0,0,1,3.08,5.31,5.31,0,0,0,2.39,1.71c3.68,1.45,7.7.58,10.43,1.2,3.42.77,5.18,3.92,7.87,8.55,2.18,3.75,1.91,4.87,5.13,15.91,2.62,9,3.71,11.37,2.23,14-1.18,2.11-2.44,1.59-6,4.62-2.74,2.34-6.93,5.92-7.35,11.12a13.78,13.78,0,0,0,3.93,10.26c1.71,1.74,2.56,1.53,3.76,3.25a11.12,11.12,0,0,1,1.2,9.24c-1.2,4-3.75,4.13-5.82,8.72-.3.67-.86,2-1.54,7.53-1.25,10.17-1.88,15.26.52,17.27s4.74-.21,8.38,2.23c1.85,1.24,1.52,2,4.62,6,4,5.2,5.47,5,6.16,7.7.79,3.1-.37,6.37-1,8.21-1.18,3.31-2.31,3.64-2,5.3.39,2.58,3.51,4.52,6.15,6.16,2.45,1.52,3.6,1.69,3.94,2.91.45,1.63-.86,3.92-2.74,4.62-1.61.6-3.17-.14-4.27-.69-2.6-1.28-3.64-3.07-5.14-4.79-3.29-3.77-9.06-7.47-12.14-6-1.13.54-1.55,1.61-2.4,3.76-.72,1.84-3.19,8.14-.34,12,2,2.72,4.73,1.56,9.07,5a13.67,13.67,0,0,1,4.27,4.79c3,6.2-1.09,14.94-3.42,14.88-.88,0-.84-1.28-3.08-4.1a62.35,62.35,0,0,0-6.32-5.82,39.27,39.27,0,0,0-5.65-4.44,24,24,0,0,0-3.76-1.89c-3.58-1.35-6.62-1.12-11.8-.68-4.7.4-7.05.61-9.58,1.71-3.68,1.61-3.67,3-6.84,4.62-5.63,2.88-7.78-.4-13.52,1.71-6.14,2.27-5.32,6.65-12.65,9.92a35.45,35.45,0,0,0-6.16,3.42c-2,1.38-3,2.07-3.76,3.25-2,3-1.17,6.8-.69,9.07,1.26,5.88,3.95,6.81,3.25,9.58-.6,2.39-2.79,2.32-7.35,6a39.6,39.6,0,0,0-8.39,9.41,33.56,33.56,0,0,0-5,10.43c-2.08,8,1,11-1.88,19.16-1.38,3.94-2.8,5.23-3.59,5.82-3.06,2.29-5.86,1-8.72,2.56-3.62,2-1.5,5.66-5.13,11.29-.9,1.39-1.25,1.54-8.9,8.38-5.08,4.55-7.63,6.83-8,7.36-4.49,5.83-2.28,8.46-6.84,15-3.53,5.1-5.73,4.79-6.67,8.55-1.27,5.09,2,8.79,0,10.78-1.79,1.8-4.8-.85-7.7,1-3.18,2.06-1.25,6.38-4.79,9.24-2.21,1.8-3.64.64-6.67,2.74a14.7,14.7,0,0,0-4.44,5.47c-3.45,6.11-1.08,8.56-3.77,12.32-3.17,4.43-7.7,3-8.72,6.5-.39,1.32.25,1.59,3.59,10.94a13.82,13.82,0,0,1,.86,7.36c-.23,1.18-.44,2.2-1.2,2.56-1.67.78-3.39-2.8-7.53-3.76-3.32-.77-4.17,1.08-6.67.17-4.23-1.53-4.24-7.73-6.33-7.7-2.39,0-4,8.22-4.27,9.58-.54,2.75-.84,4.24-.35,6.16,1,3.76,3.55,3.72,4.45,7s-.71,6.3-2.56,9.92a20,20,0,0,1-4.28,6,18.63,18.63,0,0,1-7.7,4.28c-7.91,2.06-11.42-3.56-16.25-1.2-2.62,1.28-1.87,3.08-7,11.12-3.71,5.8-6.26,9.69-9.06,9.4s-4.71-4.5-5.31-5.81c-1.81-4-.65-6-2.73-8.21-1.64-1.7-4.58-2.72-6-1.71-1.94,1.38.65,5.36-1.71,8.55-1.49,2-4.08,2.55-5.82,2.91-4.67,1-6.49-1.15-8.89.34-2.12,1.31-2.91,4.32-2.74,6.5.26,3.24,2.57,3.72,4.11,7.36,1.08,2.56.72,5.64,0,11.8-.82,7-1.27,10.44-3.25,11.12-2.54.86-5-3.56-7.36-2.57s-.61,5.77-4.1,9.41c-2.19,2.28-3.63,1.18-5.13,3.25-2.24,3.07.43,6.21-1,12.31-.62,2.58-1.07,1.91-2.39,5.65-1.82,5.11-1.19,7-2.91,14.19-1.64,6.87-2.76,7.52-3.42,7.7-1.88.5-4.63-1.56-5.82-4.1-2.59-5.56,3.47-10.92.86-14.71a5.91,5.91,0,0,0-7-1.71c-2.37,1.29-2.47,4.9-2.56,8.21-.09,2.91-.24,8.22,3.08,12.65,1.43,1.92,3.22,3.28,5.3,7,.33.59,1.63,2.91,1.2,3.25s-2.55-1.85-7-5c-3.15-2.2-4.22-2.58-5.13-2.23s-1.1,1.18-2.39,3.42c-1.83,3.16-2.28,3-2.57,3.94-1,3.11,3.54,6.23,9.58,13.85,3.81,4.8,5.72,7.28,6.33,11,.26,1.57,1.26,7.22-1.88,10.43-3.77,3.86-9.56.2-14.54,4.79-1.89,1.74-1.79,2.94-4.11,4.45-2.68,1.74-5.36,1.78-8.21,1.88-15.73.56-16,2.35-20.52.69-2.91-1.07-4.38-2.38-8-2.74a12.61,12.61,0,0,0-7.19.85c-3.48,1.74-3.07,4.31-7,6.67-1.29.78-4,2.43-6.16,1.37s-2.9-4.81-2.22-7.52c.79-3.12,2.91-3.11,5-6.85,2.13-3.89,2.61-9,1-9.92-1-.61-2.86.53-3.77,1.37-1.43,1.34-1.78,3.11-2.22,5.48-.68,3.7.06,4.62-1,6-.8,1-1.94,1.43-4.1,2.23-2.42.89-2.91.56-3.76,1.19-1.79,1.34-1.5,4.2-1.54,7-.12,6.81-2.12,7.11-2.06,11.63.06,4.06,2.89,8.41,8.56,16.93,5.28,8,8.36,11.42,7.35,12.66s-5.8-.2-8.55-1.54c-1.56-.76-1.91-1.22-3.25-1.54-2.47-.6-3.89.31-6.67.85-5.61,1.1-7.23-1.18-9.58.52s-3.14,5.32-1.88,7c1.6,2.15,6.2.31,7,2,.56,1.2-1.41,2.5-2.39,5.48s.82,4.25,0,7-2.59,2.6-3.94,5c-3,5.18,2.52,11.15.17,13.51-2.12,2.13-7.15-2.15-12.83.69a5.53,5.53,0,0,0-2.9,2.56c-1.31,2.94,2,5.51.85,7.7-1.2,2.37-6.87,3-9.23.68-1.94-1.88-1.21-5.28-1.71-5.3s-1.24,3.56-1.54,7.19c-.23,2.6,0,2.86-.18,6.32-.25,6.35-.92,6.69-.34,8.73,1.08,3.75,3.59,3.39,4.28,6.5s-1.1,5.78-4.45,11.12c-2.51,4-3.27,4.07-4.1,6.5-.31.87-2.33,6.74.34,9.57s6.88.16,9.41,3.08c1.16,1.35,1.17,3,1.19,5.82s-.53,9.82-3.59,10.6c-1.4.36-2.8-.69-5.3-2.56-3.72-2.79-4.8-5.11-5.47-4.79-.82.38-.56,4.33,1.71,7,1.4,1.67,2.44,1.49,3.93,3.08,2,2.1,2.22,4.63,2.57,6.67,1.18,6.9,3.28,6.85,4.27,12.32,1.85,10.16-4.18,17.15-.68,20.18,1.08.93,2.13.69,4.45,2.57s2.47,3.12,3.76,3.24c1.48.15,2.12-1.4,5.47-3.93,2.58-1.94,4-3,5-2.56,2.4,1,.65,10.11.52,10.77-.47,2.34-.89,3.11-2.57,9.58-1.13,4.33-1.4,5.73-.68,6.33,1.54,1.29,5.65-2.88,7.69-1.54,1.47,1,.85,4.12.34,7.7-1.42,10,1.16,12.46-1.19,15.73s-4.85,1.33-7,4.11c-4.65,6,4.78,17-.34,23.94-1,1.4-2.26,2.12-2.91,4.28a9.89,9.89,0,0,0,1.54,8.38c2.89,3.88,6.69,2.25,10.44,6,1.45,1.45.8,1.62,3.76,8.38,1.56,3.56,3.2,7.56,6.5,15.56.79,1.93,1.4,3.45.68,4.62-1.45,2.39-6.81.74-7.35,2.23s4.93,3.17,8.55,9.23c.86,1.43.61,1.44,2.74,5.48,2.21,4.19,2.67,4.55,2.74,5.81.17,3.21-2.63,4-3.25,7.36-.53,2.82.91,5.09,3.76,9.58s4.71,5.58,8.55,11.28c2.25,3.34,4,6,3.25,6.85s-4.37-.64-9.41-2.91c-5.29-2.38-7.1-3.73-8.21-2.91s-.57,3.7,0,6.16c.52,2.22,1.24,5.35,3.77,7.87,3.38,3.37,7,2.63,7.35,4.61s-2.51,4.78-5.64,5.31c-5.17.86-9.48-4.91-10.1-4.28s2.23,5.95,7.53,8.55c2.27,1.12,4.09,1.28,4.11,2.06s-1.88,1.39-8,3.76c-4.49,1.72-5.15,2-5.31,2.74-.36,1.65,2.77,2.91,7.87,7.86,3.15,3.06,4.73,4.59,5,6.33.42,3.09-2.29,4.36-6.33,11.29-2.83,4.86-4.22,7.34-3.42,9.75.59,1.76,1.75,1.89,6.16,6.5,3.7,3.88,3.53,4.46,3.42,4.62-.68,1.07-6.42-3.23-10.6-1-.89.47-1.74,1.24-2.91,3.42a30.26,30.26,0,0,0-3.25,15.23c.47,8.39,3.52,11.34,1.2,15.73-.21.39-1.82,3.35-3.77,3.25-2.43-.12-3.21-4.91-5.13-4.79-1.4.09-2.66,2.77-2.73,5.14-.06,1.9.67,3,2.39,6.15,0,0,2.37,4.36,5.13,10.27,1.89,4,.88,2.41,2.74,6.5,1.35,3,2.05,4.19,1.54,4.78-.67.78-3.07.11-4.79-1-2.66-1.74-2.65-3.87-5.13-7.36-2.06-2.88-5.22-5.85-6.16-5.3-1.53.9,4.27,10.36.85,14-1,1.1-2,.71-4.44,2.73-1.56,1.29-3.46,2.85-3.25,4.62.19,1.62,2,2.6,3.59,3.42a14.25,14.25,0,0,0,6.33,1.54c2.41,0,2.82-.52,3.59,0,1.37.94,1,3.42.34,8.21-.21,1.53-.44,2.49-1.2,2.91-1.16.66-2.58-.53-3.07,0s.45,2.77,2,4.45c2.31,2.43,3.91,1.71,5.3,3.42,1.94,2.38.93,6.32,0,9.92-1,3.86-2,4.21-2.74,8.21a17,17,0,0,0-.34,6.16c.42,2.66,1.62,4.76,3.59,7.35,4.83,6.32,6.73,5.52,10.1,10.09,2.47,3.37,4.31,7.68,6.5,12.83a13.54,13.54,0,0,0,4.44,5.82,7.38,7.38,0,0,0,3.08,1.37c1.38.23,4,.22,5-1.2,1.24-1.83-1.73-3.89-1.37-7.53.26-2.6,1.89-2.7,5.48-7.87,3-4.38,2.81-5.67,5.47-8.21.75-.71,4.44-4.22,6.16-3.25,1.89,1.08-1,6.27,1.88,10.78a15.84,15.84,0,0,1,1.71,3.25c.7,1.86,1.21,3.19.68,4.11-.94,1.64-4.06-.06-8,1.53-.68.28-4.5,1.8-5.31,5.31-.48,2.09.08,5,1.88,6,2.66,1.43,6.11-2.43,7.7-1.19,1.3,1-.71,3.84-.85,9.92-.09,3.69-.16,6.57,1.54,9.4,1.09,1.83,2.3,2.61,3.07,5.14.7,2.26.1,2.86.86,3.93,1,1.47,2.75,1.15,8.38,1.88,4.81.62,5.76,1.14,7.87.51.57-.16,4-1.18,4.1-2.9.14-1.9-3.86-2.31-8.38-7a28.21,28.21,0,0,1-3.76-5,21.22,21.22,0,0,1-2.74-5.81c-.78-2.9.06-3.08-.34-7.87-.37-4.5-1.25-6-.17-8.38.3-.66,1-2.2,2.39-2.57,2.19-.58,4.72,2.08,5.82,4.28,1.53,3,1.32,7.24-.34,8-1.18.57-2.41-.9-3.08-.34-1.08.9,2.47,4.45,2.91,10.26.06.87.05,1.76.68,2.22,1.16.86,2.67-1.09,5.82-1.54,3.49-.5,4.51,1.49,9.23,1a16.47,16.47,0,0,1,2.23-.17c1.9,0,5.15.51,5.47,1.88.2.84-.9,1.23-1.37,2.74s-.39,3.65.69,4.27a2.63,2.63,0,0,0,1.85.05,4.38,4.38,0,0,0,1.65-.82c1.79-1.28,1.77-2.21,2.57-2.31,1.21-.15,2.86,1.75,2.56,3.08a1.84,1.84,0,0,1-.68,1c-2.59,2.16-4.91,2-5.73,3.37s-.26,3.67,1,4.37c2.6,1.4,6.49-5.51,13.85-5.65a32.33,32.33,0,0,1,3.34.26c5.84.6,6.06,1.43,8.72,1.28,3.9-.22,5.09-2.09,6.93-1a22.09,22.09,0,0,1,2.82,3.33c-4.53,1.85-6.5,4.24-7.44,6.16a25.53,25.53,0,0,0-2.31,11c.05,1.2.25,3.33-1,4.36a3.13,3.13,0,0,1-2.1.58c-3.89-.1-8.47-2.2-9.44-2.63-6.09-2.66-13.8-2.1-14.88.26-.57,1.23.59,3.15,1.79,4.1,2.44,1.92,6.41.91,6.42,1a10.68,10.68,0,0,1-2.06.25,11.41,11.41,0,0,1,7.19.26,11.27,11.27,0,0,0,4.36,1.28,9.31,9.31,0,0,0,2.57-.25c5.52-1.3,12.1-7.65,15.13-6.16,1.53.75,2.3,3.55,1.54,5.39-1.66,4-10.25,2.52-11.29,6.15a3.58,3.58,0,0,0,1,3.34c1.64,1.55,5.56.37,13.34-2.05,11.45-3.57,11.42-3.56,11.55-3.59,7.43-1.94,9.06-1.5,11.8-3.6s2.41-3.6,5.64-7.44c2-2.4,3.28-3.14,9.5-7.69,10.77-7.89,13.78-10.64,14.88-9.75.8.65.16,2.93-.52,4.36-3.87,8.28-17.34,7.26-18.72,13.6-.21.92-.87,9.12-.52,5.38a43.71,43.71,0,0,0-.25,12.06c.37,2.67,1.07,7.21,4.61,10.78,1,1.05,2.35,1,2.57,2.05.32,1.48-1.77,2.46-3.59,6.16a19.9,19.9,0,0,0-1,2.57,30.23,30.23,0,0,0-1.43,7.28c-.09,1.09-.1,1.85-.11,3,0,3.87-.08,7.34.51,7.44.87.15,4.3-6.69,4.62-14.37a12,12,0,0,1,1-5.39c1.28-2.58,4.08-5.22,5.9-4.62,2.23.74,2.29,6.08,2.31,8.47,0,4.22-1,5.11-1.54,11.8-.31,3.68,0,3.82-.51,4.62-2.36,3.89-9,.71-13.09,4.62-2.95,2.83-3.7,8.57-1.28,11.55,2.08,2.55,6.06,2.56,7.7,2.56a15.62,15.62,0,0,0,5.9-1.28c1.95-.79,3.14-1.26,4.1-2.31,2.92-3.18-.15-7.33,2.57-11.29,1.24-1.81,3.69-3.57,5.64-3.08,2.37.6,3.27,4.32,4.88,11,.66,2.78,1,4.19.77,5.65-.75,4.87-5.26,7.72-5.65,7.95-4.91,3-8.38.3-12.31,3.59-1.52,1.27-3.43,3.7-2.83,5.65.94,3,7.48,3.26,9.5,3.33a18.5,18.5,0,0,0,7.7-1.28,15.34,15.34,0,0,0,5.13-3.33c1.82-1.84,1.36-2.39,3.08-4.37,2.5-2.87,3.88-2.14,6.92-5.13,2.48-2.43,2.28-3.61,4.11-4.36,1.58-.64,3.11-.32,6.41.77,8.69,2.87,9.11,4.29,11.29,3.85,3.79-.77,2.95-5.14,8.21-7.95,4.38-2.35,9.74-1.89,10.78-1.8,2.94.25,4.47,1,7.69.51a9,9,0,0,0,5.14-2c1.86-1.77,1.37-3.52,2.56-5.9,2.42-4.86,8.93-6.67,9.49-5.9s-6.37,4.65-5.64,9c.62,3.64,11.2,9.61,8.21,7.44a96.46,96.46,0,0,1,3.34-9.49c2.06-5.05,3.75-8,6.15-10.52,1.78-1.9,3-2.54,4.11-2.83,1.87-.46,2.59.3,5.39.26,1.75,0,1.84-.32,5.64-1,4.06-.75,4.38-.49,6.67-1a32.86,32.86,0,0,0,6.67-2.57c6.58-3,7.79-4.54,9-3.85,1.52.88.16,3.69,1.29,9.75a18.37,18.37,0,0,0,2.82,7.7c2.17,3.11,5.85,5.73,7.18,4.87s-.75-4.34,1.28-8.72a5.68,5.68,0,0,1,1.54-2.31c2.44-2,5.21.31,8.21-1.28,1.76-.93,2.55-2.64,3.6-4.88a26.55,26.55,0,0,0,1.79-6.67c.22-1.14.39-2.06.52-3.33a58.74,58.74,0,0,0,0-6.93c-.05-3.65-.06-5.47.51-5.64.78-.24,1.48,2.48,4.1,4.61a12,12,0,0,0,8.21,2.57c4.74-.4,7.82-4.54,9.5-6.41,2.49-2.79,3.93-2.41,27.71-9.5,7.77-2.31,16.19-4.89,16.16-8.21,0-.81-.52-1.05-.51-2.05,0-4,8.28-8.81,12.31-6.67,1.87,1,1.79,2.92,5.39,5.64a6.42,6.42,0,0,0,2.82,1.54c1,.19,2.33.08,6.67-2.82a47.77,47.77,0,0,0,7.44-5.64c1.44-1.38,2.45-2.54,2.83-2.31.67.41-2.3,4.15-1,6.67,1.37,2.72,7.44,3.56,10,1.28.93-.83.86-1.59,2.56-3.33,1.26-1.29,2.06-2.11,3.34-2.31a4.53,4.53,0,0,1,4.62,2.31c.87,2-1,3.89-.26,4.61s3-.55,6.67-2.56c2.08-1.14,3.38-2,3.85-2.31,3.63-2.42,5.45-3.63,5.39-4.88-.1-2-4.25-2.3-4.37-4.36-.08-1.59,2.27-3.42,4.62-3.59a5,5,0,0,1,4.36,1.8c1.1,1.6,0,3,.77,6.92.35,1.75.55,2.67,1.29,3.08,1.57.89,4.5-1.14,6.15-2.82,4.11-4.18,4.28-10.31,4.37-13.34a30.54,30.54,0,0,0-.52-6.41c-1.57-8.41-5.74-11.9-4.36-13.6,1.22-1.5,5.45,0,7.19.77a17.15,17.15,0,0,1,5.9,4.87c1.2,1.4,2.34,3,5.38,6.67a5.18,5.18,0,0,0,2.83,2.05,4.61,4.61,0,0,0,3.59-.76c3.07-2.25,2.07-8.33,1.79-10-.49-3-1.52-5-1.28-5.13s2.4,3.48,4.36,6.92c1.66,2.9,2,3.68,3.08,4.37,2.42,1.57,4.91-.79,6.42.51s-.23,4.13,1,5.9c2.18,3.07,10.17,2.67,11.29,0,.63-1.5-1-3.56-1.79-4.62-1.51-1.93-3.38-3-5.91-4.36-2.82-1.54-4.72-2.17-4.61-2.82s2.1-.32,3.59-1.8a5.06,5.06,0,0,0,1.28-2.56c.35-1.39,2.77-11.11,5.13-11.29.59-.05.86.52,2.31,2.31,4,5,5,4.36,6.16,6.92a11.05,11.05,0,0,1,.77,7.44c-.61,2.06-1.7,2.8-1.28,3.6.68,1.3,4.69,1.4,7.18-.52,1.93-1.48,1.36-3,3.59-4.87,1.85-1.59,2.62-.89,4.62-2.31,2.43-1.72,2.46-3.56,4.88-7.18,2-3,3.63-5.7,4.61-5.39s-.2,3.74,1.8,5.64a5.32,5.32,0,0,0,5.9.52c.91-.55,1.47-1.4,2.57-3.08,1.22-1.88,1.29-2.63,2-2.83,1.14-.29,2.82,1,3.08,2.31.17.89-.24,1.42-.77,3.08a18.59,18.59,0,0,0-.77,3.59c4.66-1.3,6.12-3.31,6.67-4.61a15.42,15.42,0,0,0,.77-3.6c.52-3.71.58-4.39,1-5.38a7.39,7.39,0,0,1,2-2.83c1.56-1.23,3-.88,9.49-.51,5.86.34,6.94.18,9.24,1a29.26,29.26,0,0,0,3.33,1.28c2.8.76,4.55.45,6.67.51,2.43.07,4.61.82,9,2.31a82.68,82.68,0,0,1,8.73,3.59c8.31,3.77,23.21,4,28-2.56,4.22-5.84-.54-15.67,2.31-16.68,1.81-.64,5.82,2.55,6.16,2.82,1.34,1.09,1.53,1.63,2.31,1.8,2.84.62,6.39-5.29,6.93-6.16,3.88-6.27,26.54-33.21,69.27-82.36h17.45q8.21-18.47,16.42-36.94a222.19,222.19,0,0,0,22.58-16.42c6.53-5.43,9.34-8.45,18.47-15.65,8.86-7,8.77-6.18,10.26-8.21,5.8-7.89,3.69-15.44,10.78-22.84a45.13,45.13,0,0,0,3.59-3.85c1-1.2,2.25-3,6.16-10,2.17-3.91,2.27-4.26,3.08-4.88,2.82-2.17,4.74-.33,7.95-2.56a13.56,13.56,0,0,0,4.5-6.35,10.29,10.29,0,0,0,.37-1.35c.6-2.71,23.49-33.77,79-106.22q13.22-19,26.42-38c2-8.52,4-10.62,5.65-10.78,1.25-.12,2.57.9,4.36.26a5.18,5.18,0,0,0,2.57-2.31l8.46-10.26,47-59.79c10.78-36.66,18.3-53.16,23.35-61.32a70.8,70.8,0,0,0,7.7-16.42c2.62-8.19,4.41-13.25,3.33-19.24-.35-2-1.21-5.18-17.19-23.86-7.44-8.7-8.9-9.93-11-14.11a83.51,83.51,0,0,1-5.9-16.93c-1.87-7.42-1.29-8.45-3.08-12.06-.81-1.64-2.76-5.12-10.26-11.29-10.21-8.41-12-6.38-16.93-11.8-6.18-6.76-3.89-10.38-10.52-16.42-.89-.82-.65-.49-12.06-7.19-10.54-6.18-12.06-7.23-15.65-8.21-6.27-1.7-7.18,0-10.52-2-4.27-2.6-4.23-6.23-9-13.09-2.4-3.45-4.17-5.07-8-9-25-25.82-21.88-31.51-37.2-45.15-1.63-1.45-5.39-4.71-4.62-7.44.67-2.35,4.15-2.43,11.81-5.39a78.75,78.75,0,0,0,12.57-6.16c5.1-3.15,8.34-5.15,10.77-9,3.43-5.4,1.12-8.36,2.83-15.39,2.46-10.16,8.64-9.49,17.44-24.89,3.29-5.76,5.91-10.46,6.42-17.19.41-5.56-.77-10.53-1.8-14.88-1.53-6.46-2.64-7.24-4.36-13.6-3.07-11.35-.4-12.07-2.82-16.68-4.06-7.72-10.72-4.13-24.12-15.13-4.24-3.49-5.54-5.46-12.57-11-3.85-3-4.82-3.53-6.16-5.38-3-4.15-2.33-7.48-3.34-16.42-1.34-12-3.21-11.89-2.82-19.25a32.31,32.31,0,0,1,3.08-13.34c2.35-4.74,3.86-4.37,5.9-8.72.69-1.47,4.57-9.75,1.28-16.42-2.48-5-7.29-5.56-7.18-9.24.08-2.73,2.76-3.26,3.34-6.67a9.75,9.75,0,0,0-3.34-8.72c-4.44-3.47-9.3,1.43-20.52,0-3-.39-7.25-1-11.29-3.85-3.23-2.3-5.55-5.48-7.7-10.52-5.36-12.57-1.2-16.91-4.11-37.72-1.07-7.71-2.45-12.87.77-16.67,1.87-2.21,4.55-3.09,9.24-4.62,3-1,6.6-1.78,13.6-3.85,2.66-.79,4.24-1.3,4.62-2.57.58-2-2.13-4.69-3.6-6.15-2.49-2.51-4.23-3-4.1-4.11.17-1.39,3.12-1,4.87-3.08,2.28-2.73,1.25-8.18-1.28-11.54-1.76-2.35-4-3.32-6.93-4.62-3.21-1.42-4.36-.92-10-2.57-3.46-1-5.21-1.54-6.16-2.56-2.53-2.75-2.19-7.46-1-10.52.8-2.1,1.67-2.6,4.88-6.67,3-3.79,5-6.91,5.39-7.44,6.07-9.46-3.76-18.69,1.79-31.31a120.34,120.34,0,0,1,5.9-10.52c3.69-6.16,4.31-6.52,4.88-8.72,1.91-7.33-2.16-14.22-2.57-14.88-3.42-5.6-7.22-5.49-7.44-8.72-.25-3.67,4.48-6.59,13.34-12.06,6.48-4,9.8-6,13.6-5.39a25.9,25.9,0,0,1,9,3.08c1.67,1,3.14,2.32,4.11,1.8s.82-2.24.77-3.6c-.44-10.91.3-8-.26-11a90.06,90.06,0,0,0-4.1-14.88c-3.15-8.25-1.6-10.46-3.85-27.71-.89-6.78-3-16.41-7.19-35.66-2.33-10.71-3.66-16.14-6.67-23.09a139.59,139.59,0,0,0-6.93-13.35c-6.36-11.3-10.71-17.88-13.08-21.8-5.05-8.35-9-21.13-16.93-46.7-4-13.06-5.6-19.27-10.52-29-3.85-7.6-4.66-7.28-10.27-16.94-9.49-16.34-9.76-21.72-20-41.56-8.76-17-8.75-13.41-11.8-21.3s-10.67-27.62-3.08-45.41c.37-.86,4.35-7.07,12.32-19.5,6.65-10.38,7.51-11.58,10.26-15.9,9.27-14.58,16-26.9,21.55-36.95,8.59-15.69,8.89-17.42,14.11-25.4,5.8-8.87,6-7.58,13.86-19,7.07-10.26,11.56-18,18.47-30,5.72-9.9,6.57-12,7.18-13.59,1.76-4.68,5.14-14.05,3.08-25.66a34,34,0,0,0-3.33-10.52c-4.23-8.09-9.79-9.95-19.76-18.73a119.45,119.45,0,0,1-12.06-12.32c-7-8.49-10.42-16-15.65-28-7.49-17.1-13.34-32.59-13.34-32.59-1.82-4.82-3.35-9.05-7.44-13.08-4.64-4.58-8.86-5.25-16.16-8.72-10.14-4.83-8.57-6.67-18.22-11.81-16.5-8.77-25.39-5.67-35.66-16.42a40.12,40.12,0,0,1-3.6-4.36c-8.89-12.16-7.46-21.74-11.8-48.23-1.67-10.21-2.13-10.33-5.64-29.25-1.07-5.78-1.67-9.22-3.08-14.37-1.64-6-2.24-6.47-2.31-8.72-.21-6.36,4.3-10,9.49-16.94,3.57-4.77,6.57-11.13,12.57-23.86,3.76-7.95,2.12-5.54,9-21.55,4.64-10.82,9.13-20.65,7.19-29a9,9,0,0,0-2.82-5.13c-2.16-1.8-4.67-1.7-10.27-1.54-11.59.33-13.42.26-15.9-.52-2-.61-7-2.18-7.7-5.64-.32-1.54.2-3.58,3.59-7.18,5.63-6,11.3-7.94,15.65-10.27,9.66-5.17,6.41-9.2,15.91-15.14a82.8,82.8,0,0,0,10.52-7.69c4.07-3.49,4.95-5,4.87-6.42-.16-3-4.21-3.57-6.92-7.18-2.88-3.82-1.81-7.78-1.54-15.14.62-17.23-4.38-18.75-1.29-27.19,1.44-3.91,4.46-7.31,10.52-14.12,5.84-6.55,7.75-7.22,12.06-12.05,1.41-1.59,2.71-3.2,12.32-19.76,12.6-21.73,12.57-22.75,15.65-24.89,1.52-1.06,4.64-3,4.83-5.88.18-2.62-2.16-3.69-4.32-7.2-3-4.89-1.42-7.61-3.33-14.88-1.42-5.36-2.43-4.44-5.52-12.17-2.23-5.54-4.93-11.84-6.29-20.16-1-6.23-.46-8.29-2.56-11.55-2.58-4-6.51-5.69-9.5-6.92-11.72-4.87-21.61-7.85-23.6-8.47-22.24-6.9-25.46-18-41.82-24.63-1.76-.72-7.7-3-9-7.44a20.1,20.1,0,0,1-.77-5.13c0-1.94.38-2.9,0-4.62A10.43,10.43,0,0,0,834,66.15c-2.56-3.64-8.26-5.26-9.49-5.64-5.9-1.85-10.86-9.87-20.79-25.92-3.79-6.12-5.68-9.19-6.15-11.54-1.49-7.39,1.72-12.31-1.8-18.73-.77-1.4-1.92-3.45-4.1-4.11-3.78-1.14-8.25,2.59-9.75,3.85-2.51,2.1-2.32,3-4.37,4.11-2.83,1.61-5.75,1.44-7.95,1.28-7.47-.53-9.42-4.21-13.08-2.82-1.43.54-2.58,2.15-4.88,5.39-4.06,5.7-3.16,7.05-5.64,9-3.26,2.53-5.33.62-10,3.59-2.38,1.51-1.61,1.86-5.13,4.62-4.25,3.34-5.91,3.25-8.21,6.15-.52.65-3.1,3.92-2,5.91.6,1.14,2,1.14,2,1.79,0,.94-3,1.41-6.93,2.82a34.72,34.72,0,0,0-9,4.37c-2.81,2-2.72,2.81-4.87,3.84a13.74,13.74,0,0,1-7.7,1s-6.44-.71-21.3-11.55c-1.56-.07-3.87-.22-6.67-.51-4.58-.48-5.83-.86-7.69-1-3.15-.28-5.58.31-14.37,3.59-8.38,3.12-12.57,4.68-13.09,5.13-7.63,6.7-1.2,16.14-9,26.17-4.46,5.76-7.74,4.15-12.06,11-2.91,4.65-2.14,6.54-5.9,13.6-3.06,5.75-4.59,8.62-7.69,11-6.19,4.8-10.6,1.84-17.71,7.44-1.94,1.54-4.61,3.7-5.38,7.19-.64,2.85.47,4.45,2.3,10,2.54,7.68,3.81,11.52,3.08,15.4-.42,2.23-2,4.9-5.13,10.26s-3.44,4.81-4.62,7.44c-1.61,3.59-1.95,7.14-2.56,14.11-.48,5.41-.2,6.08-.77,11.29-.42,3.85-.82,5.78-1.28,8.72-2.15,13.72-.05,14.41-2.06,21-2.24,7.42-5,7-7.18,14.63-1.54,5.34-1.23,9.16-1,15.13.67,19.61-1.32,18.17-.51,42.34.28,8.54.77,16.42.77,16.42,1.2,19.53,2.29,20.55,1,26.17-.25,1.1-3.51,7.67-10,20.78a17.59,17.59,0,0,1-4.62,5.9c-1.57,1.28-3.81,3.11-6.41,2.82-3.1-.34-3.67-3.35-6.42-3.84-3-.54-5.68,2.39-8,4.61-10.45,10.26-13.37,7.42-23.86,18.73a89.3,89.3,0,0,0-6.93,8.47l1.8,22.84-.77,24.63a70.22,70.22,0,0,0-9.5,2.3c-7,2.25-10.56,3.38-12.31,6.42-2.26,3.93.4,7.24-2.31,10a6.62,6.62,0,0,1-6.93,1.53c-3.34-1.52-2.65-6.47-4.87-12.31s-5.81-8.87-11.55-13.86c-4.1-3.56-10.35-6.74-22.83-13.08-7.53-3.83-11.38-5.76-15.4-6.93-4.86-1.41-6.77-1.27-10.77-3.33-2.88-1.49-9-4.64-9.75-9.75-.35-2.31.59-3.71-.52-4.88-1.33-1.41-3.43-.14-6.92-1.28a13.19,13.19,0,0,1-4.62-2.82c-3.58-3-3.14-4.93-5.65-7.19-2.93-2.64-6.7-2.85-10.77-3.08-4.22-.23-8.09-.44-11,1.8-1.74,1.32-2.93,3.32-4.62,14.88-1.78,12.19-1.33,15.93-4.62,18.73-.94.8-3.19,1.56-7.7,3.08a107,107,0,0,1-11,3.08c-10.39,2.28-11,.8-14.63,2.82-4.09,2.25-3.32,4.06-8.72,8.47-4.13,3.38-8.67,7.08-13.08,6.41-6.37-1-5.43-10-13.09-14.88-8.82-5.61-14.49,3.57-27.19-1-6.89-2.49-17.88-9.76-24.12-14.88-1.33-1.08-4-3.33-6.93-2.82-1.71.3-2.56,1.35-7.7,5.39-3.56,2.8-3.95,2.92-4.36,2.82-2.34-.56-1.73-7.13-3.33-17.45a111.15,111.15,0,0,0-4.37-17.7,120.24,120.24,0,0,0-6.41-15.91c-9.83-20.48-24.6-42.19-37.2-65.42-15.88-29.26-18.23-42.32-30.28-47.72-1.74-.78-12-5.14-25.14-10-2-.74-4.91-3.21-9.24-3.33s-7.63,1.82-12.57,4.87a67.45,67.45,0,0,0-13.6,11.29c-5.35,5.5-8,8.33-9,12.31A20.88,20.88,0,0,0,46.3,283c.61,1.69,1.78,3.61,4.11,7.44,3.2,5.27,3.93,5.68,4.62,8,.6,2,.48,4.16.25,8.46-.28,5.18-.79,5-1.54,12.06-.47,4.48-.39,5.76-1.28,6.16-1.59.72-3.86-2.49-8-6.16-6.24-5.59-7.41-4-17.19-11-7.47-5.4-8.31-7.45-11.29-7.18s-5.63,3.5-11,10C-.29,317-.19,318.39.12,319.13s1.23,1.37,9.49,3.08c5.67,1.17,6.4,1.17,8.47,1.79a31.1,31.1,0,0,1,9.49,4.62c1.93,1.45,9.68,7.23,9.24,14.11-.41,6.3-7.31,7.91-6.67,13.35.36,3.11,2.93,5.18,6.67,8.21,5.24,4.23,7.45,3.5,12.31,7.18,3.51,2.65,2.74,3.31,9,10.26,7.68,8.55,8.38,7,11.29,11.55,4.68,7.24,4.14,13.12,8.21,14.11a39,39,0,0,0,6.16-.26c4.57-.32,5.27-.6,5.9,0,1.43,1.37-.85,4-.51,10.27a13.16,13.16,0,0,0,1.28,5.38A10.39,10.39,0,0,0,93,426.12a10.13,10.13,0,0,0,2.56,1.54c2.42,1.07,4.61,2.59,6.93,3.85a70.13,70.13,0,0,1,10,6.92c4.62,3.58,7,5.41,8,7.45,2.06,4.19.21,6.6,1.8,9.23,2.57,4.28,9.27.23,17.44,3.08,8.62,3,16.89,12.69,16.17,20.78-.36,4-3,7.78-1,10,.93,1.06,2.37,1.19,3.85,1.28a68.66,68.66,0,0,0,13.6,0c8.21-.84,15-1.53,20.27,2.05,1.86,1.28,3.81,3.3,7.95,5.14,2.08.92,2.25.7,4.62,1.79,3.88,1.79,4.71,2.95,7.7,4.11a21.13,21.13,0,0,0,5.64,1.28c9.57,1.27,15.74,16.81,32.33,26.17,3.34,1.89,8.84,4.5,14.11,10,2.43,2.53,3.78,4,4.87,6.41,1.72,3.86,1.21,6.7,3.6,9a8.21,8.21,0,0,0,4.36,2q-.25,14.37-.52,28.74l14.12,1c2.54,1,5.57,2.57,6.41,5.39s-1.17,4.73-1,8,2.58,5.61,7.19,9.75c12.42,11.14,17.45,15.53,20.78,21.55a31.13,31.13,0,0,1,2.57,6.16c1,3.28,2,6.77,1,10.26-.79,2.78-2.3,3.58-6.67,8.21s-6.36,5.53-7.44,8.72a12.28,12.28,0,0,0-.51,5.39q.12,25.79.25,51.57C317,725.21,321.84,729.5,322,735.2Z"/><path d="M434.41,1418.7c-4.77,2.27-5.74,8.64-5.82,9.24-.72,5.2,1.85,9.22,3.93,12.48s3.62,5.66,6.5,6.5c4.06,1.18,7.66-1.68,8.9-.17,1.06,1.29-1.33,3.67-.17,5.65,1.05,1.79,4.26,2,6.33,1.54,4.59-1,6.53-5.9,6.84-6.67a13.42,13.42,0,0,0,.85-5c.05-1.92-.23-3.35-1.71-9.93-.81-3.62-1-4.35-.51-5s1.43-.8,8.72,1c4.23,1.06,6.69,1.85,9.24.69.35-.17,1.58-.73,1.54-1.37-.06-1-2.91-1-6.5-2.74-2.49-1.21-2.54-1.89-5-3.25-.78-.44-2.78-1.49-7.7-2.57-1.82-.39-4.89-1-20.18-1.19C437.21,1418,435.92,1418,434.41,1418.7Z"/><path d="M158.51,1846.15c3.35-1.23,5.49-5.2,4.62-8a4,4,0,0,0-1.89-2.4c-1.71-.85-3.65.2-5.81,1.37s-4.76,2.57-5,5a3.83,3.83,0,0,0,.51,2.22C152.29,1846.49,155.9,1847.1,158.51,1846.15Z"/><path d="M152.35,1850.08c-1.86,1.76-1.35,5.1-1,7.18.28,1.78.51,3.28,1.71,4.28s2.12.34,5,1.37c2.15.78,2.28,1.4,3.93,1.71a9.52,9.52,0,0,0,4.1-.34c5-1.09,7.49-1.63,8.39-2.23,2.67-1.77,1.76-3.17,4.44-5.3,3.75-3,7.83-2.07,8-3.42s-3-3.29-6.5-3.93c-5.21-1-6.59,2-12.66,1.54-3-.25-3.17-1-8-1.54C153.89,1848.77,152.72,1849.73,152.35,1850.08Z"/><path d="M84.79,1842.38c-4.89,2.36-7.75-.9-13.17.86a15.68,15.68,0,0,0-6,3.93c-2.62,2.39-3.89,4.69-6,8.55-2.54,4.69-3.81,7-3.76,9.41,0,1.86.58,2.63,3.93,9.24,4.21,8.28,3.9,8.12,4.62,8.89,3.71,4,10,6.2,15.23,4.79.41-.11.44-.14,6.32-3.42,7.17-4,7.63-4.21,8.21-5.13,2.35-3.66,1.1-9.55-2-13-.55-.6-3.56-3.91-6.67-3.25-2.54.54-4.39,3.59-5.64,5.65-1.39,2.28-1.38,3.26-2.4,3.59-1.91.62-5.17-1.83-5.81-4.79-.46-2.13.58-3.87,2-6.33,1.33-2.22,3.19-5.33,6.67-6.5,2.77-.93,3.52.38,5.82-.69a8.76,8.76,0,0,0,4.61-8.21c-.08-1.51-.69-4.22-2.39-4.78C87.21,1840.8,86.26,1841.67,84.79,1842.38Z"/><path d="M55.54,1927.56c.57-1,3.33.41,7.7,0,3.26-.3,3.89-1.31,5-.68,2.28,1.36,1.79,7.43-.86,11.29-1,1.39-2.46,2.9-3.25,2.56s-.15-2.26-1.37-5a8.68,8.68,0,0,0-1.54-2.39c-1.87-2-3.57-1.71-5-3.76C55.82,1929,55.22,1928.14,55.54,1927.56Z"/><path d="M79.66,2459.86c-3.7-.27-8.08,2.56-8.9,6.33-.39,1.78.31,3.52,1.71,7a33.56,33.56,0,0,0,3.76,7.19c2.77,3.92,3.93,3.59,8.56,8.55,4.35,4.66,4.47,6.2,6.84,6.84,3.39.92,8.1-.89,9.41-4.28,1.18-3.06-.87-6.26-2.23-8.38a23.31,23.31,0,0,0-8-7.18c-2.75-1.66-3.7-1.65-5.64-3.42-1.4-1.29-3.7-3.4-3.59-6s2.27-3.49,1.71-5S80,2459.88,79.66,2459.86Z"/><path d="M69.74,2478.85c-.17.14-.64.67.68,4.27,1.61,4.4,3,5.59,6,10.78,1.92,3.38,2.43,4.85,3.76,5a3.25,3.25,0,0,0,3.08-2.4c.13-.62,0-1.16-.69-2.56a26.49,26.49,0,0,0-2-3.94c-3.26-4.85-2.44-6.17-5-8.55C73.58,2479.56,70.64,2478.06,69.74,2478.85Z"/><path d="M108.05,2543c-1.33.59,0,3.24-1.37,6.84-1.14,3-3.08,3.87-2.91,6.5,0,.65.11,1.52.69,1.88,1.62,1,5.74-2.89,7.87-5.47,1.72-2.09,3-3.66,2.56-5.3-.38-1.42-1.85-2.25-3.93-3.43C109.43,2543.15,108.66,2542.72,108.05,2543Z"/><path d="M78.12,2553.25c4.61-.39,5.88-.83,9.58-.68,2.08.08,3.32.29,3.93,1.19.39.58.16.9.34,2.4.33,2.77,1.29,3.26,1,5a4,4,0,0,1-1.37,2.56c-1.46,1.1-3.75.65-5.13-.34-1.84-1.3-1.21-2.91-2.57-3.59-2.31-1.15-5,3.06-8.21,2.05a4.78,4.78,0,0,1-2.91-3.25,4.53,4.53,0,0,1,.86-4.27C74.5,2553.44,75.41,2553.48,78.12,2553.25Z"/><path d="M140.38,2535.8c.44-.44.93-.5,4.62-.51,4.29,0,4.79.07,5.13.51.86,1.14-.32,3.35-1.37,5.31-.94,1.75-3.77,7-6,6.5-1.41-.34-1.89-2.88-2.56-6.5C139.7,2538.43,139.42,2536.76,140.38,2535.8Z"/><path d="M122.76,2563c-2.87,1.7-5.07,3-8,3.25-1.13.11-1.45,0-3.42.17a14.1,14.1,0,0,0-4.62.86c-1.91.89-2.66,2.61-3.59,4.27-3.74,6.65-8.27,8.27-7.53,9.75.62,1.24,4.08.71,9.75-.17,3.41-.52,4.1-1,4.45-1.2,2.16-1.5,1.81-3.4,4.45-6.5,1.43-1.68,2.52-3,3.93-2.9,1.89.07,2,2.46,5.3,4.27a12.77,12.77,0,0,0,4.79,1.37c1.79.23,2.69.34,3.25-.17,1.44-1.29-.91-4.58.52-6.16,1-1.15,2.63.26,5.3-1,.29-.14.47-.25,3.59-2.91,1.72-1.47,2.58-2.2,2.74-2.4,1.63-2.08,2.35-5.86.85-7.35-.95-1-4-.19-10.09,1.37a29.75,29.75,0,0,0-7,2.39C125.21,2561.07,125.61,2561.32,122.76,2563Z"/><path d="M156.8,2559.24a25.69,25.69,0,0,0-5.65,3.76,34.78,34.78,0,0,0-3.93,3.93,19.93,19.93,0,0,0-3.76,5.65c-.55,1.34-1.17,2.88-.52,3.59s2.21.25,4.11-.34c3.95-1.22,6.47-3,6.67-2.74s-1,1.23-1,1.2,2-2.05,4.62-5.47c1.56-2.05,2.55-3.59,3.08-4.45,2.2-3.57,3.6-5.83,2.91-6.67C162.37,2556.57,158.21,2558.56,156.8,2559.24Z"/><path d="M194.94,2526.23c-2.81.05-4.21.07-5.47.85-1.09.67-1.11,1.22-3.08,3.76-1.77,2.29-2.65,3.43-3.25,3.77-2.65,1.48-4.71-1-10.61-.69-2,.1-3.31.16-4.79,1-3.14,1.85-5.25,6.37-3.76,9.24a3.81,3.81,0,0,0,1.71,1.71c1.22.56,2.75.34,7.19-2.06,4-2.17,3.64-2.47,5.81-3.42s5.48-2.39,8.55-1.19c.83.32,1.92,1.23,4.11,3.07,2.75,2.32,3.75,3.57,4.45,3.25s.32-1.52.51-3.25c.32-3,1.87-5.14,5-9.4,2.47-3.41,3.89-4.58,3.42-5.48-.2-.38-.63-.5-4.62-.85C197.35,2526.33,196,2526.21,194.94,2526.23Z"/><path d="M173.39,2553.59c-.78.63.52,3.85,2.22,6.33s2.36,2.08,3.77,4.28c1.16,1.83,1.68,3.67,2.73,7.35.85,3,.92,4,1.54,4.11.93.19,1.77-1.82,4.28-5.48,2.63-3.83,3.07-3.59,5.13-6.84,1.6-2.52,4.2-6.61,3.08-7.87-.54-.6-1.41.05-4.62,0-.7,0-.53,0-5.13-.51a32.07,32.07,0,0,0-4.79-.34c-2.07.09-2.09.42-3.42.34C175.27,2554.78,174,2553.09,173.39,2553.59Z"/><path d="M201.23,2564.88c-.07.43.8.77,1.75,1.54,1.69,1.39,3.52,4.12,2.91,5.82-.67,1.88-3.72,1.08-6.67,3.76a11.17,11.17,0,0,0-2.74,4.28,20.05,20.05,0,0,0-1,11.63c.59,3.59,1.22,7.45,3.77,8.38,1.92.7,4.49-.43,5.47-.86,1.15-.5,1.12-.71,2.91-1.71,2.85-1.59,4.28-2.38,5.47-2,1.85.51,1.19,2.74,3.76,4.62.92.67.89.31,5.31,2.05,2.39.95,2.6,1.13,3.42,1.2a8,8,0,0,0,5-1.54c2-1.32,3-2.91,4.62-5.65,2-3.39,3.47-5.83,4.27-9.4.43-1.88.51-3.35,1.71-5.13,1-1.46,1.6-1.46,2.57-2.91a11,11,0,0,0,1.71-5.65c.16-2.81-.69-4.36-1.37-6.84-1.67-6.14.94-8.29-.68-10.09-.45-.49-2-1.83-13.52,1-5.72,1.41-5.51,1.78-14.19,4.1-6.19,1.66-9.28,2.49-10.44,2.57C203.78,2564.13,201.36,2564.19,201.23,2564.88Z"/></g></g></svg>