<svg xmlns="http://www.w3.org/2000/svg" viewBox="0 0 2276.9 2236.74"><g id="Layer_2" data-name="Layer 2"><g id="France"><path d="M559.65,1521.09c.82.16,2.46-4.29,6.82-10.59.07-.11.79-.3,5.22-7.54h0c1.38-2.22,1.51-2.67,2.18-2.9,2.37-.82,4.16,3.6,11.75,9.72,2.72,2.19,5,4.92,7.55,7.26.92.84,1.92,1.72,1.74,2.61-.11.55-.78,1.68-6.24,2.32-10.5,1.23-14.28-2.24-17.85.44-2.2,1.65-3,4.66-3.92,7.83a24.55,24.55,0,0,0-.87,6c-.19,8.38-5.21,23.88-8.56,45.56-1.63,10.56-.7,8.59-4.21,36.71-.9,7.28-1.37,11-2,15.38-2,13.22-3.7,20.25-6.67,34.54-6.35,30.57-4.25,26.22-7.84,40.33-4.75,18.71-7.5,22.63-6.38,29.46.29,1.76,1.5,7.77-1.45,13.64a19.16,19.16,0,0,1-2.32,3.48c-3.23,4-5.78,9.42-10.89,20.17-4.78,10.07-5.78,13.39-10,17.85a25.93,25.93,0,0,1-5.22,4.49c-5.14,3.27-8.4,2.56-13.21,5.23-3.32,1.84-6.94,3.59-7.25,6.53-.24,2.26,1.73,2.6,2.61,7,.59,2.92,0,4.22,1.31,6.1a7.34,7.34,0,0,0,3,2.46,5.48,5.48,0,0,0,3.78.58c2-.6,1.93-2.6,4.06-3.48a6,6,0,0,1,4.21.15c1.78.61,2.57,1.66,5.22,4.64,3,3.36,4.5,5,5.37,5.22,2.49.54,5.19-1.43,8-3.48,2.5-1.83,2.42-2.46,3.92-2.9,2.11-.62,4.1.11,7.4,1.3a21.42,21.42,0,0,1,4.35,2,19,19,0,0,1,4.35,3.77c3.54,4.4,3.07,10.21,2.9,12.19-.11,1.45-.59,7.32-4.78,11.9-2.31,2.51-3.86,2.59-4.94,5.07-1.65,3.81.14,7.88.44,8.56,1,2.28,3.1,4,7.25,7.4,3.77,3.07,5.71,4.63,6.53,4.07,1.52-1-3.16-7.74-.72-10.59,1.55-1.83,5.18-1.13,7.25-.73,4.7.9,7.52,3.15,11.17,5.66a131.52,131.52,0,0,0,13.5,8c5.41,2.7,7,2.59,16.69,6.09,13.22,4.79,10.68,5.14,15.23,6.1,15.12,3.18,26.41.58,26.41.58,1.78-.41,4-1,5.66.14,3.23,2.28-.37,7.84,2.9,12.63,2.8,4.1,7,2.32,11.61,8,1.65,2,1.6,2.88,3.33,4.2,2.84,2.16,4.48,1.07,8.57,3.34a33.82,33.82,0,0,1,5.22,3.77c2.24,2,2.48,2.8,3.63,2.91.52,0,1.48,0,6.09-3.92,1.33-1.13,1.54-2,2.32-2,1.16,0,1.38,1.65,3.19,3.33s2.36,1,5.37,2.76c3.28,1.93,3.76,3.36,4.79,3,1.5-.46.65-3.54,3.19-7a9.09,9.09,0,0,1,3.34-2.9c1.41-.66,3-.81,7.69.15a43,43,0,0,1,18.14,7.25,53.22,53.22,0,0,1,8,6.39c7.29,7.19,6,11,11.75,14.22a21.13,21.13,0,0,0,8.56,2.46c2.39.17,4.22-.13,7.84-.72a25.42,25.42,0,0,0,5.95-1.45c1.76-.71,1.75-1,4.93-2.76a74.1,74.1,0,0,1,7.26-3.48c3.81-1.67,4.4-1.68,4.93-1.6,1.51.23,1.9,1.11,5.22,4.21.41.38,2.84,2.64,5.66,4.79,2.57,2,3.85,2.93,4.5,3,4.64.8,7-7.1,13.2-7.4,1.89-.08,2,.63,6.82,2.33a72.73,72.73,0,0,0,12.48,3c6.59,1.2,11.41,2.08,17.7,1.6a49.35,49.35,0,0,0,12-2.47q-.3-15.74-.58-31.48a16.12,16.12,0,0,1,10.3-3.49,17.09,17.09,0,0,1,5.08,1.16c5.09,1.77,6.93,4,10.88,6.24,2.79,1.55,2.18.59,10.59,3.49,9.38,3.22,10.28,4.47,16,5.51,1.19.22,3.17.53,7.11,1.16,6.19,1,7.22,1.08,8.71,2,1.21.78,1.07,1.06,5.08,5.81,2.59,3.07,3.89,4.6,4.64,5.07,3.43,2.16,7.53,1.54,11,1,4.33-.65,4.64-1.66,9.28-2.32,4.43-.63,6.64-1,8.71.14,2.29,1.22,2.45,3.06,6.53,12.63,2.47,5.79,3.55,7.77,5.8,9.43s5.39,2.9,6.82,1.74-.12-3.62,1.31-5.66c.88-1.26,2.47-1.76,6.67-2,8.83-.57,13.24-.85,17.71,1.74,2.66,1.55,3.22,2.86,6.24,3.77a14.45,14.45,0,0,0,7.25.44c2.45-.52,2.87-1.37,3.77-1s2.11,1.61,1.6,12.48c-.42,9-1.43,10.59,0,13.64,2,4.38,6.62,6.31,7.54,6.68,6,2.36,8.95-1.17,14.51,1.45,1.66.77,3.28,2.4,6.53,5.66a59.64,59.64,0,0,1,7.4,8.7c4.46,6.45,3.85,8.53,6,9.14,4,1.18,6-6.43,15-9.57,6.9-2.42,9.79.66,14.94-2.91,3.48-2.4,4.21-5.23,7.69-5.8,2.57-.42,4.61.71,7.11,2,11.3,6,8.53,3.34,15.24,7.4,10,6.05,10.09,8.2,16.54,10.3a79.43,79.43,0,0,0,9.58,2,40.58,40.58,0,0,0,11.89.88c3-.29,4.48-.46,5.66-1.6,2.27-2.17.72-5,2.47-8.71,1.4-3,3.93-4.42,7.11-6.24,5.57-3.18,7.52-1.8,12.91-4.49,6-3,4.74-5.22,9.44-7.11,5.85-2.36,7.78,1.12,17.26,0,7.27-.86,9.93-3.36,12.34-1.45,2.7,2.13,1.31,6.82,4.93,9a8.76,8.76,0,0,0,3.34.87c5.1.77,10.15,1.53,11.75-.72,2-2.89-2.52-9.38-4.5-12.19a35.23,35.23,0,0,0-5.51-6.1c-3.84-3.37-5.57-3.49-7.55-5.36-2.8-2.66-2.48-5.43-3.77-15.24-2-15.49-4-17.77-2.32-24.38,1.13-4.42,2.1-3.75,3.19-8.56,1.28-5.67,0-7.07.73-17.41.23-3.5.58-6.47-.15-6.67s-1.38,2.14-3.92,4.64-6.12,4.33-6.82,3.63.89-3,2-4.79a24.67,24.67,0,0,1,3.49-4.35,16.75,16.75,0,0,1,2.9-2.47c1.69-1.11,2.3-1,3.19-1.74,1.55-1.28,1.84-3.34,2-4.94.66-5.54,1-8.31.73-11a54.39,54.39,0,0,1,2.46-22.06c2.16-5.93,5.5-9.69,9.15-13.78,7.08-8,9.18-6.16,16-13.79s6.79-11.82,12-13.35c2.76-.8,5.41-.42,10.45-2.46,2-.8,2.72-1.34,4.5-1.6,3.3-.49,4.53.78,8.27,1.16,1.88.19,5.59.58,8.85-1.3s2.31-4.54,5.37-7.55,5.87-2.3,10.15-4.21c5.39-2.4,5.79-5.77,11.61-12.33,5.28-6,5.29-3.56,18.14-14.51,8.87-7.56,9.87-9.56,15.09-11.9,3.58-1.61,5.73-1.84,10.3-4.5s5.21-4,8.27-4.64c3.82-.8,7.08.45,10.45,1.74,2.76,1.06,6.09,2.34,8.7,5.51,1.58,1.92,1.19,2.46,3.49,5.81,2.13,3.12,3.39,4.95,5.37,5.95,3.22,1.63,4.86-.74,10.44-.87,7-.17,8.3,3.44,16.4,3.19,2.7-.08,2.12-.47,6.09-.73,5.09-.32,5.81.33,12.92.44,5.09.08,6-.23,7,.72,1.74,1.67.44,3.92,2.76,8.13a32.39,32.39,0,0,1,1.88,3.19c1,2.19.85,3,1.75,4.79a11.5,11.5,0,0,0,2.75,3.48,12.65,12.65,0,0,0,6.39,2.9c5.26.72,6.75-2.84,12-1.88a20,20,0,0,1,4.64,1.59c2.79,1.39,2.87,2.29,4.79,2.91,1,.33,1.56.23,6.82-.44s5.8-.7,6.24-1.3c1.27-1.77-1.36-3.86-.72-8.13a8.37,8.37,0,0,1,2.75-5.37c1.73-1.34,2.7-.53,6.1-1.74,3.79-1.36,4-2.89,6-2.76s3.4,2.08,6.09,6a54.66,54.66,0,0,1,4.79,8.56c2.64,5.77,1.94,6.13,3.19,7.26,1.78,1.6,4.25,1.82,16.54,0,7.84-1.16,7.72-1.38,12.33-1.89a56.38,56.38,0,0,1,15.38.15c3,.46,4.44.71,5.23,1.45,1.89,1.78,1.84,4.8,1.3,18-.14,3.54-.19,4.61.58,5.8,2.11,3.26,7.49,2.93,12.63,2.91,6.8,0,20.76-.11,32.5,4.35,2.64,1,5.87,2.84,12.33,6.53a80.31,80.31,0,0,1,15.53,11c4.39,4.08,5,5.84,5.22,6.82a18.6,18.6,0,0,0,1.74,5.8c.79,1.45,1.06,2.25,1.6,2.32,1.73.24,4.26-5.35,7-11.32,1.36-3,1.85-4.38,3.33-4.93,1.7-.63,2.5.66,6.53,1.45,3,.6,3.64.09,7.55.73a34.35,34.35,0,0,1,4.5,1c3.1.94,3.95,1.72,8.12,3.48,3.14,1.33,4.71,2,5.66,2,1.24,0,2.65-.19,8.85-3.92,2.39-1.44,4.41-2.74,7.84-4.79,4.69-2.8,5.84-3.3,7.11-2.9,1.44.45,1.07,1.44,4.35,4.5,2.27,2.12,3.7,2.82,5.22,2.9a3.11,3.11,0,0,0,1.6-.15c2.59-1.18.88-6.68,3.92-9.28a5.67,5.67,0,0,1,2.61-1.16c12.33-3.1,24.32-8.36,37-9.29,1.81-.13,5.11-.32,6.82-2.61.67-.9.83-1.79,1-7.26.25-7.34,0-7.85-.43-8.27-2-1.87-5.65.76-9.43-1.74-1.26-.83-1.42-1.49-1.45-1.74-.1-.66.19-1.65,4.06-4.5,2.36-1.74,3.81-2.52,6.82-4.5,2.18-1.43,3.27-2.14,3.63-2.46,1.82-1.63,2.54-3.17,6.67-11.61.91-1.85,1.38-2.78,2.32-3.34,1.51-.88,2.71-.26,7,.15,3.6.34,5.44.5,7.4-.29.85-.35,1.79-.89,3.91-3a51,51,0,0,0,6.68-8.42c3.67-5.69,2.93-5.45,5.37-9s4.43-5.52,8.41-9.43c2.79-2.75,4.56-4.17,6.82-4.07,1.47.07,1.72,1,3.2,1.16,3.58.53,7-3.46,7.69-4.35,3-3.78,1.5-5.72,4.78-11.17a24,24,0,0,1,4.65-5.66c2.78-2.44,4.68-2.82,7.4-4.35,6-3.37,4.65-5.95,10.15-9.72,4.91-3.37,6-1.33,14.66-5.66,5.42-2.71,5.6-3.8,9.14-4.65,6-1.45,8.38,1.05,11.17-1,3.6-2.67,3.23-9.42,2.32-13.06-.73-3-2.47-3.27-2.75-6-.08-.7-.26-3.39,2.9-8.13a35.62,35.62,0,0,1,7.69-8c10.77-8.9,11.7-8,13.78-11.46,1.94-3.19,1.19-4,4.65-10.74,2.4-4.65,2.83-4.38,3.48-6.53,1.28-4.23-.53-4.88-.87-13.93-.13-3.41,0-6.33-1.74-9.28-1.27-2.13-2.42-2.41-2.9-2.47a3.9,3.9,0,0,0-2.76,1.16c-2.7,2.14-4.68,1.5-10.88,3.34-3.76,1.11-3.48,1.48-9.14,3.63-6.89,2.61-10.34,3.91-13.5,4.2-5.2.48-9.22-.77-17-3.19-4.55-1.42-6.82-2.13-9.86-3.77-5.85-3.16-7.42-5.94-13.93-9.72a42.84,42.84,0,0,0-7.55-3.63c-8.52-3.06-12.47-1.2-16.83-4.79-2-1.61-1-1.81-4.35-6.38-4.7-6.31-7.44-7-11-11.9-3.3-4.48-5.39-7-5.08-10.45.33-3.61,2.85-3.68,4.21-8.7a19.57,19.57,0,0,0-.43-11,26.08,26.08,0,0,0-3-6c-3-4.71-4.26-4.62-4.79-6.82-.92-3.79,2-7.62,4.35-10.59,4-5.13,5.79-4,7.84-7.84,2.22-4.15.1-5.49,2.76-12.19,1.13-2.85,1.91-3.59,2.61-6.52.85-3.59.35-5.23,1.45-5.81s2.58.75,8.41,2.76c1.29.44,1.88.6,2.33.29,1.31-.94,0-5.13-1.17-7.69-1.6-3.54-2.65-3.32-4.49-6.82a25,25,0,0,1-2.76-9.14c-.42-4.39.78-5.33-.29-7.11-.59-1-1.81-2.11-9.72-3.34s-9.82-.59-13.35-2.47c-1.59-.84-1.08-.9-5.37-4.35-7.19-5.78-8.93-5.85-10.88-8.85s-2.19-5.89-2.47-9c-.78-8.78,2.91-13.33.58-15.38-1.18-1-2.59-.27-9.28-1.74a4.9,4.9,0,0,1-2.62-1.3c-1.06-1.1-1.13-2.48-1.3-3.92-.26-2.16-.66-5.52-1.89-8-1.74-3.48-4.54-3.92-4.21-5.23.41-1.62,4.59-.5,9.29-3.48,2.22-1.4,1.67-1.89,4.21-3.48a20.32,20.32,0,0,1,8.41-2.9c2.2-.25,3.61-.42,5.37.14,3.25,1,3.5,3.19,6,3.48.63.08,2,.1,6.1-2.75a53.86,53.86,0,0,0,6.23-5.08c8-7.31,8.38-8,10.31-8.56,1.27-.38,3.36-.49,7.54-.73,2.92-.16,4.47-.11,6.53-1a14,14,0,0,0,3.77-2.61,27.7,27.7,0,0,0,5.37-6.24c3.75-6.84-2.78-12.08.58-21.19a20,20,0,0,1,3.34-6.24c2.55-3.1,4.74-3.57,5.08-5.66.24-1.5-.6-3.14-3.63-6.09-4.2-4.08-7.43-5.65-11.75-8.42-6.8-4.36-10.2-6.54-11.9-10.15-1.06-2.25-1.06-5.45-1-11.76.08-11.75,1.44-14.84-.87-17-2.7-2.51-5.93.45-10.59-2.32-3.39-2-2.82-4.28-7-9-4.73-5.39-6.64-3.79-9.43-7.84-4.13-6-2.72-13.46-1.89-17.84s2.08-5.66,2.61-6.1c2.3-1.91,4.27-.5,9.29-1.88,2.62-.73,4.65-1.89,8.7-4.21a60,60,0,0,0,5.52-3.48c4.89-3.54,8.88-6.42,9.86-10.45.7-2.84-.36-5.16-3.33-10.88-6.91-13.31-7.59-12.46-10.16-18.58-3.62-8.6-4-15.3-9-17.7a20.56,20.56,0,0,0-3.62-1.3c-4.83-1.16-6.85.57-8.71-.87-2.23-1.73-1.63-6-1.45-7.26.3-2.16,1-3.12,2.47-6.24a65,65,0,0,0,3.48-9c1.24-4.36,2.22-7.81.87-11.31-.83-2.15-1.59-1.85-4.94-6.24-3.2-4.21-4.8-6.31-4.93-8.71-.19-3.65,2.53-4.06,3.34-9.14a13.76,13.76,0,0,0-1.6-9.43,12.52,12.52,0,0,0-5.8-4.93c-3.23-1.32-6-.75-8.56-.44-5.34.65-3.67-.58-17-1-11.41-.37-15.43.44-18.57,1.46-1.1.35-2.28.81-4.64,1.74-2,.79-7.26,2.83-12.34,5.37-8.85,4.41-13.28,6.61-15.81,10.15-1.79,2.5-2.76,5.09-6.53,9.58-2,2.44-3.31,2.45-3.49,3.77-.45,3.36,5.71,4.79,8.86,11.9a10.67,10.67,0,0,1,1.16,5.66c-.14,1.21-.65,3.42-4.21,7.11-4.1,4.25-5.82,3.79-10.88,8.12-4.26,3.64-4,4.76-7,6.24-.89.44-2.05.91-9.87,1.6-8.69.77-11.37.56-14.22-.44-1.77-.62-3.13-1.11-4.2-2.46-2.35-3-1.7-8,.58-11,1.16-1.57,3.16-2.52,7.11-4.35,4.91-2.28,6.12-2.17,9.86-4.07s5.68-2.88,7.26-4.78c3.56-4.31.57-7,3.77-14.08,2.24-4.94,5.2-6.88,4.64-10.88a7,7,0,0,0-1.45-3.63c-3.31-4.06-9.59-.92-13.2-4.64-2-2-2-4.93-2-6.24-.05-2.93,1.11-4.83,6.38-12.91,4.42-6.78,5.14-7.8,5.37-10a14.54,14.54,0,0,0-1.89-9.14c-1.29-2-2.25-2.14-2.32-3.34-.16-2.68,4.56-4.18,10-8.41.93-.73,1.09-.92,7.54-7.55,13.82-14.21,14.45-14.74,16-15.67,4.31-2.64,6.56-2.81,11.61-6.67a49.14,49.14,0,0,0,6.09-5.52,47.28,47.28,0,0,1,1.6-16.39c1.46-5.13,3.38-8.22,2.18-12.48s-4.1-5-3.63-7.4c.4-2.12,2.91-3.24,12.48-7,8.91-3.48,8.44-3.17,9.43-3.63,8-3.76,9.85-10.17,17.7-21.19A107.71,107.71,0,0,1,1835.5,960c12.72-12,22.28-13.92,23.51-22.78.37-2.69-.15-5.11,1.31-9.43a21.84,21.84,0,0,1,5.66-9.43c4.8-4.49,9.25-3.67,10.88-7.84.27-.7,1.13-2.9.14-4.35-3.27-4.82-22.79,4.48-24.23,1.6-.41-.84,1.1-1.84,3.19-5.52.9-1.58,1.45-2.84,3.49-8.85,3.68-10.84,3.69-11.94,5.51-13.93a16.6,16.6,0,0,1,6.82-4.35c3.93-1.4,6.33-.66,12.91-.15,10.83.85,16.32-.2,17,1.89.43,1.38-1.71,2.67-2.32,7.11-.17,1.26-.34,1.88-.15,2.32.57,1.27,2.68,2,14.8,1.16,7.19-.49,7.64-.82,11.32-.72,5.08.14,5.63.81,8,.29,1-.22,4-1,10-8.13a113.59,113.59,0,0,0,9.58-13.64c1.8-3,3.31-5.76,6.38-8.12a7.35,7.35,0,0,0,1.6-1.45c1.9-2.45,1.82-6.24.73-9-1.67-4.19-4.65-3.38-6.82-7.69-1.69-3.34-1.37-6.74-1.16-9a21.2,21.2,0,0,1,2.46-8.12l3.63-39.18a46.39,46.39,0,0,0,6.38-9.72c2.23-4.55,3.53-6.73,3.49-9.72-.06-4-2-7.53-3.78-10.59s-2.28-3-3-5.08c-.85-2.32-.7-3.88-.44-9.58.41-8.89.23-8.8.58-10.3.75-3.17,2-5.2,4.36-9.14,9.08-14.95,9.37-15.1,10.15-17.12,2-5.23.93-6.48,2.32-15.68,1.19-7.83,3.11-13.54,5.23-20.45,3.47-11.38,4.31-11.15,6.53-19.88,1.41-5.57,1.5-7.4,3.33-13.64,1.54-5.25,3-9.34,4.21-12.48.81-2.17,3.35-9,5.52-13.64,2.8-6,7.18-11.27,15.81-21.62,10.88-13,16.33-19.57,20.9-22.35a28.83,28.83,0,0,0,8.12-6.67c3.13-3.79,2.48-5.18,5.51-10.59,5.12-9.11,10.24-11,9.87-16.54a8.82,8.82,0,0,0-1.88-5.08,9.69,9.69,0,0,0-4.79-2.9c-3.09-1-5.09-.71-7.26-.87-3.28-.25-5.62-1.62-10.3-4.36-9.5-5.55-9.57-8.88-16.69-11.32-2.78-.95-6.41-2.13-9.28-.43-2.16,1.27-2.43,3.31-4.65,3.77-.74.16-1.74.15-5.8-2-5.22-2.8-5.22-3.67-7.54-4.21a12.27,12.27,0,0,0-7.55.87c-2.67,1.29-2.73,2.71-4.93,3.49s-4.25.23-7.55-1.16c-4.63-2-8.12-3.45-12.48-7.41-7.56-6.87-9.29-13.56-14.65-17.7-2-1.55-3.44-1.9-6-4.35-1-1-1.69-1.84-2.76-1.89-1.62-.07-2.67,1.72-4.06,3.2-2.5,2.65-4.46,2.54-9.29,4.78-5.4,2.52-6.35,4.24-10.15,6.39-10.3,5.8-21.38,3.38-33.52.72-3-.66-6-1.54-7.11-3.91-1.17-2.56.88-4.62-.73-8.13a29.61,29.61,0,0,0-2.75-4.06c-.39-.52-1.52-2.07-2.47-3.19-2.1-2.48-4.78-5.64-8.42-6.39-.94-.19-3.15.35-7.54,1.45-7.43,1.86-8.38,2.43-9,3.48-.29.51-.19.58-1,6-.52,3.38-.6,3.62-.87,3.92-1.83,2-6.68.54-10.31-.58s-5.28-1.62-6.67-2.76c-4.16-3.39-2-7.69-4.93-15.67-.92-2.52-3.86-10.56-11-15.67-2.59-1.84-5-2.82-7.26-6.09-.63-.95-1.63-2.65-2.75-7.55-2.3-10-.45-13-3.34-16.54-1.54-1.9-1.74-.65-6.82-4.21-6.22-4.34-7.9-7.59-10.88-7.11-2.09.35-2,2.07-4.65,2.62s-5.23-.8-7.4-2c-3.74-2.12-3.3-3.29-6.24-4.93-3.43-1.92-6.86-1.9-10.59-1.88a32,32,0,0,0-9,1.3c-1.05.32-2.69.89-11.18,5.66-6,3.37-5.85,3.47-7,3.77-.33.09-8.34,2.19-13.64-2.17-2.27-1.87-2-3.23-4.64-4.94s-4.18-1.12-7.11-2c-6.53-2-6.52-7.32-13.79-10.74a25,25,0,0,0-7-1.88c-4.17-.75-9.12-.27-18.87.72-3.08.32-5.14.57-7.25,2-2.39,1.66-2.1,3-4.06,4.36-2.45,1.73-4.73,1-12.34.43-9.15-.65-9.73.15-10.88-1-3.56-3.61,2-11.24-2.32-16.4-1.3-1.55-2.32-1.48-4.21-3.92-2.13-2.75-1.91-4.23-3.34-6.67-2.19-3.74-4.13-2.69-9-7.26-4.43-4.15-4.25-6.37-7.84-7.83-1.07-.44-1.91-.58-6.53-.73-10.94-.35-11.14.27-12.62-.43-5.32-2.52-2.86-10.62-7.4-16.25s-13.54-.91-24.38-4.79a38,38,0,0,0-7-2.32c-3.74-.75-5.77-.37-7-1.89-.87-1.11-.67-2.42-.43-4.93.7-7.44-.11-5.75.58-10.31,1.4-9.35,3.87-10.18,2.61-13.34-1.4-3.53-5.8-5.84-7.69-6.82-3-1.57-5.73-2.09-6.24-4.21a4.47,4.47,0,0,1,.44-2.61c1-2.94.42-2.95,1.45-8.27a78.8,78.8,0,0,1,2.32-9.29c1.12-3.45,2.5-6.22,5.22-11.61,3.9-7.72,5-8.92,4.94-11.9-.11-2.79-1.33-7-4.5-8.27-3.54-1.37-7.55,1.77-9,2.9-2.65,2.08-2,2.91-5.37,6.24-2.81,2.77-3.61,2.52-7.25,6.1a21.44,21.44,0,0,0-3.92,4.93,20.6,20.6,0,0,0-1.31,2.76q-.13,10.74-.29,21.47a78.77,78.77,0,0,0-12.18,3.05c-4.29,1.46-6.44,2.62-13.79,5.22a46.22,46.22,0,0,1-7.54,2.33,31.76,31.76,0,0,1-12.19-.88c-2.53-.59-3-.94-6.82-2.17A92,92,0,0,0,1438.8,278c-10.34-1.72-14,1.76-17.41-1.46-2.45-2.28-2.88-6.15-2.46-8.7.45-2.77,2-4.58,4.06-7,3.58-4.16,5-3.59,6.82-6.24,3.32-5,2.28-13.12-1.16-15.09-.71-.4-.82-.14-5.23-.72-5.29-.69-5.82-1.15-6.09-1.45-1.3-1.47.1-3.29.58-8.27.63-6.57-1.33-8.19.43-10.89,1.44-2.19,2.94-1.41,6-4.64,1.46-1.56,3.44-3.68,3-5.95-.23-1.36-1.22-2.25-4.21-4.35-4.42-3.11-5.69-3.59-7.54-4.93-5.91-4.29-4.66-7.93-10.74-11.76a17.84,17.84,0,0,0-5.95-2.46,17.61,17.61,0,0,0-8.7.58c-2,.63-2,1-3.78,1.74-2.45,1-4.15.94-13.78.43-7.94-.41-8.29-.46-9.14-.72-3.58-1.1-5.84-2.9-7.26-1.89-.94.68-.4,1.81-1.16,3.77-1.26,3.29-5.06,6.14-7.54,5.37-.53-.16-1.8-.73-3.2-5.08-1.28-4-1.33-7-1.45-11.89-.47-19.64-.56-6.89-.72-14.66-.09-4.39,0-6.21-1.45-7.54s-2.73-1-7-3.2c-1.26-.65-1.69-1-2.32-1.3-3.7-2-7.88-1.73-11.46-1.45-13,1-12.51,1.15-15.09,1.16-8.48,0-11.39-1.47-12.92-2.47-1-.69-1.67-1.3-4.64-4.64-5.25-5.91-7.87-8.86-8.42-9.72-2.88-4.57-1.52-7.25-2.61-29.89a17.9,17.9,0,0,0-2.17-8.86c-1.94-3.27-3.59-3.08-7.26-7.25-4.48-5.09-3.58-7.13-6.53-8.42-1.21-.53-4.44-.2-10.88.44a37.54,37.54,0,0,0-5.51.87,29.8,29.8,0,0,0-5.23,1.74c-5.14,2.47-4.88,6.57-11.32,12-2,1.68-3,2.53-4.64,2.91-1.11.25-3.13.45-9.87-2.76-4-1.9-6-2.84-8.12-4.5-2.61-2-4.48-4.41-8.13-9.14-3.44-4.47-5.16-6.7-6.82-9.29-2.64-4.12-3.33-6-5.8-7.11a18.2,18.2,0,0,0-6-1.45c-2-.1-2.34.26-3.19-.14-2.32-1.11-3-5.39-2.32-8.71.54-2.54,1.45-2.38,2.75-5.8a28.54,28.54,0,0,0,1.6-8.71,44,44,0,0,0,0-8.12c-1.14-10.14-7.27-10.77-8.56-20.32-.61-4.51.18-8.64-2.18-9.86-.82-.43-1.72-.34-3.48-.15a24.73,24.73,0,0,0-6.82,1.74c-3.41,1.56-43.23,12.9-118.55,33.81-6.32,3.71-13.84,8.42-21.18,13.78-2.18,1.6-5,3.74-5.22,6.82s2.52,4,3.33,8.71c.26,1.47,0,1.36-.58,8.56-.45,5.79-.25,5.58-.58,7.4a32.89,32.89,0,0,1-3,9.14c-2.32,4.45-3.39,3.72-3.92,6.24-.93,4.42,1.81,9.35,2.9,11.32.34.62.65,1.11.87,1.45l.73,56.44a18.68,18.68,0,0,0-3.34,8,36.55,36.55,0,0,0-.29,4.07c-.12,2.85,0,4.4,0,6.24a37.31,37.31,0,0,1-.58,8.56c-1.18,5.39-3.43,6.05-2.9,9.14.28,1.65.86,1.14,3.62,5.95,2.07,3.6,2.11,4.52,3.78,6.38s2.13,1.53,3.77,3.34c.61.67,4.31,4.75,3.19,6.82-1,1.87-5.93,2-9,.14-1.1-.68-1.68-1.45-4.06-2.9-1.71-1-2.58-1.56-3.34-1.45-1.83.28-2.71,3.15-3.91,6.53s-2.86,6.82-4.07,10.3c-2,5.8-6.32,10-14.94,18.43A176.59,176.59,0,0,1,964.91,267c-8.75,6.95-16.18,12.77-26.84,17.7a126.43,126.43,0,0,1-14.66,5.37,243.68,243.68,0,0,1-35.69,9.29c-12.71,2.2-23.88,2.92-32.22,7.25-4.16,2.16-8.41,4.79-8.41,4.79-4.15,2.56-5.93,4-8.85,6-12.92,8.78-16.51,7.38-23.65,14.36-2.41,2.36-3,3.46-5.23,4.65-5.3,2.78-9.12.37-13.64,2.61-1.78.88-2.8,2.06-6.53,8.41C782,359.73,782.38,361.14,777,370.6c-3.85,6.77-5.56,8.68-5.23,12.33s2.17,4.36,2.9,10c.54,4.13-.17,5.79,1.31,7.4,1.29,1.41,2.86,1.26,7,2.18,3.68.83,3.74,1.24,7.25,2.18,9.15,2.44,14.25,1.36,14.66,3s-4.34,4.13-4.79,4.36c-4.67,2.36-7.48,1.17-12.77,2.75-2.67.8-4.49,1.94-8.13,4.21a60.19,60.19,0,0,0-12.48,10c-3.27,3.49-4.21,5.42-7.54,7-1.58.74-2.15.66-5.95,1.74-5.51,1.57-5.85,2.16-9.14,3.05-4.77,1.28-5.68.48-13.35,1.45s-6.4,1.7-9.87,1.74c-5.75.07-7.74-2-18.42-5.22,0,0-4.76-1.44-9.44-2.47-9.35-2.07-13.77-1.29-22.63-1.89-19.59-1.32-24.61-6.9-36.57-6.38-3.72.16-7,.76-10.73-1.16-3.06-1.59-5-4.18-9-4.36a13.29,13.29,0,0,0-3.34.44c-3.72.67-5.15.21-13.2-.15-9.34-.41-10.77.06-11.9.59-1.86.87-1.77,1.38-5.51,3.62-3.57,2.14-6.91,4.14-8,3.19-.83-.72.46-2.46,1.3-7,.53-2.81,1.18-6.53-.14-10-.76-2-1.83-3-3.78-5.08-4.17-4.46-.82-1.53-13.34-17.27-2.26-2.83-3.62-4.5-3.34-6.67s2-3.92,4.06-5.95c2.62-2.64,3.38-2.34,4.21-3.92.55-1.05.8-2.31-.15-8.12a64.94,64.94,0,0,0-1.59-8c-1.68-5.94-2.51-8.91-5.08-10.6-.64-.41-2.51-.81-6.24-1.59-4.61-1-6.91-1.45-8.56-1.6-3.24-.29-6.51-.58-10.3.58-2.64.81-4.42,2-8,4.35-3.29,2.18-4,3.16-7,4.65a25.49,25.49,0,0,1-5.66,2.17c-.89.22-4.92,1.14-11.61-.14a47.19,47.19,0,0,1-9.57-3c-11.81-4.77-17.71-7.16-21.91-9.72-6.07-3.7-10.5-7.53-12-6.24-.3.24-.32.52-.59,2.9-.68,6-.73,5.86-.72,6.68.05,3.57.06,5.49,1.31,6.53,2.63,2.2,8-1.83,9.72.14,1,1.13-.62,2.59,0,5.95.53,2.89,1.93,2.93,2.75,6.1.57,2.17.37,3.88,0,7-.32,2.72-.54,4.59-1.74,6.67-.86,1.51-1.31,1.52-2.17,3.2a13.42,13.42,0,0,0-1.46,5.08,12.29,12.29,0,0,0,1.89,6.67c.57,1.07,2,5.11,4.93,13.2,4.43,12.32,2.19,16.4,6.82,20.32,2.92,2.46,3.58.66,7.26,3.34,7.47,5.42,10.55,17.05,11,18.86a18,18,0,0,0,2.46,5.51c1,1.55,2.44,3.63,4.79,4.21,1.63.4,2.26-.27,3.19.44,1.63,1.22,1.23,4.41,1.16,4.93a8,8,0,0,1-.58,2.17q1.25,20.69,2.47,41.36l5.51.58-.87,67.76a21.87,21.87,0,0,1,6.39,6.82c2.1,3.6,1.66,5.47,4.35,8.27,1.08,1.13,3.72,3.49,4.35,4.06,2,1.76,2.84,2.46,2.91,3.63a4.09,4.09,0,0,1-2,3.34c-2,1.24-3.66.1-7.84-.29-5.21-.49-5.07,1-9.87.43-3.69-.47-5.6-1.62-7.11-.43-1.21.95-.47,2.07-1.45,3.33-2.59,3.34-10-1.6-16.68,2a17.46,17.46,0,0,1-3.2,1.74c-.61.21-5,1.74-8.12-.29s-1.79-5.25-4.79-7c-2.47-1.41-4.79-.06-5.37-1.16-1-1.85,5.72-5.4,4.93-9.43a4.48,4.48,0,0,0-3.19-3.34c-1.37-.3-2.47.49-3.77,1.16s-3.79,1.14-9,2.18c-7.51,1.5-8.43.93-9.57,2.32s-.8,2.9-2.91,5.81a13.56,13.56,0,0,1-2,2.32c-4.33,3.61-11.21-2.45-16.25.58-.88.53-.31.5-5.8,8.56-2.63,3.86-3.46,4.89-4.64,4.93-1.81.06-3.06-2.22-5.66-6.53-7.5-12.43-8.93-13.16-9.87-13.49-2.46-.86-3.45.42-12.33,2.61-7.11,1.75-7.47,1.17-10.89,2.18-13.68,4-22,17.4-22.49,18.28-2.32,3.86-3.3,7-7.4,11.61-2.5,2.8-5.91,6.6-8.56,5.8-3.5-1.06-.84-8.75-6.09-12.91-3.54-2.81-7.94-1.85-10.3-5.95a13.12,13.12,0,0,1-1-2.76s-1.17-3.41-3.63-9.72c-2.38-6.12-3.76-9.11-6.24-11.9a110.81,110.81,0,0,0-8.7-8.12c-1.66-1.43-2.72-2.27-3.34-3.92-1.05-2.79.47-4.37-.58-7.11a8.62,8.62,0,0,0-3.92-4.21c-3.06-1.73-4.59-.23-8.7-1.89a18.06,18.06,0,0,1-8.71-7.83c-2.77-5.67,1.08-10.6-1.31-12.48-.66-.52-.94-.13-6.81.44-4.87.46-7.3.69-8.86.29a12.07,12.07,0,0,0-4.06-.58,7.46,7.46,0,0,0-2.9.58,7.54,7.54,0,0,0-3.19,3.19c-1.68,2.46-3.79,1.77-13.35,5.08-4.65,1.6-7,2.41-8.85,3.77s-2.48,2.35-3.78,2.32c-2.24,0-2.89-2.83-7.25-5.66-1.56-1-2.33-1.51-3.48-1.59-2.07-.15-3.69,1.15-6.82,3.77-3.82,3.18-3.15,3.64-5.95,5.51-1.58,1.06-2.59,1.44-2.76,2.47-.2,1.22,1.06,1.71,2.47,4.35.87,1.63.53,1.71,1.74,4.5,1.33,3.06,1.73,2.95,1.89,4.06.26,1.91-.84,3-3.05,6.68-3.5,5.77-2.8,6.37-4.21,7.11-2.14,1.12-3.32-.48-11.46-2-4.25-.82-5.09-.6-7.69-1.6-2-.77-2.18-1.15-6.24-3.19-3.65-1.83-5.47-2.75-7.11-3a14.49,14.49,0,0,0-8.27,1c-5,2.3-4.3,6-9.72,9.72-2.89,2-7.85,4.13-9.73,2.46-2.53-2.25,2.39-9.81-.43-12.18-.92-.78-2.35-.62-5.22-.29A27.15,27.15,0,0,0,118,586.8c-7.79,3.21-13.48,3.73-31.35,10.3-5.35,2-8,2.95-8.7,3.48S76,602.22,75,601.89s-.78-1.35-2.47-3.92a8.09,8.09,0,0,0-1.89-2.18,7.83,7.83,0,0,0-1.88-1c-3.28-1.18-9.58,3.62-9.58,3.62-10.89,8.29-13.35,6.77-23.36,14.51a25.67,25.67,0,0,1-6.09,3.63,28.54,28.54,0,0,1-6.24,1.74c-9,1.65-11-.29-13.5,1.89-1.88,1.67-.71,2.87-3.92,7.4-1.27,1.8-1.92,2.27-3.19,4.21a28.28,28.28,0,0,0-2.9,5.8l.87,38.6a49,49,0,0,0,8.27.29c4.44-.23,6-.94,12.19-1.31a35.33,35.33,0,0,0,4.21-.29c3.1-.51,4.3-1.4,8.12-2.9,6-2.35,6.15-1.36,8.13-2.9,2.38-1.86,2-3.16,5.22-5.81.65-.53,4-3.32,5.23-2.46.67.49.31,1.94.14,3-.69,4.5.76,10.11,3.48,12.92,4,4.11,11.87,3.38,12.34,3.34,1.78-.19,3.76-.71,6.53,0,2.39.61,2.15,1.31,4.2,1.88,3.61,1,5.36-.91,10.89-.29,1.59.18,2.37.45,2.61,1C93,684,90.5,686,90,686.48c-4,3.41-9.82,2.79-16.54,2.61-16.28-.43-16.25,2.32-22.49.15-8.08-2.82-11.8-8.72-13.93-7.26-1.42,1,.24,3.56-.29,10.74-.36,4.95-1.33,6.1-1,10.16,0,.36.64,7.69,2.76,8s2.24-6.5,7.55-10.16c5.16-3.56,13.61-3.09,19,1.16,1.66,1.3,1.64,3.43,3.92,4.64,2.74,1.46,4.22-.15,6,1.16,2.81,2.14-.08,7.17,3.34,10.74.77.81,1.75,1.41,1.74,2.47,0,1.34-1.62,2.37-2.47,2.9a13.32,13.32,0,0,1-5.22,1.74c-3.75.72-5.7,2.66-8,4.06C57,734,48,732.07,30.33,736.68c-2.12.56-5.33,1.73-11.76,4.07-6.06,2.21-7.35,2.85-7.4,3.77-.05,1.19,2,2.18,13.21,6.24,8.36,3,12.58,4.55,14.65,4.93,9.12,1.69,11.27-.64,14.66,2,3.05,2.41,4.05,6.46,5.8,13.5,1.28,5.17.62,5.69,2,8.7s2.88,4.25,5.23,9.15a23.2,23.2,0,0,1,1.59,3.77c1.53,5.31-2,8.28-.58,10.3.46.65,1.14.82,10.88.29,9.54-.52.65-.24,10.74-1.16,2.44-.22,3.48-.29,4.35-1.16,1.91-1.91,0-4.69,1.75-7.55,1.45-2.44,4.45-3.16,6.38-3.62,1.47-.36,1.74-.18,10,.29a50.62,50.62,0,0,0,8,0,13.59,13.59,0,0,0,3.77-.58c4.49-2.18,3.6-10.19,5.66-10.45,1.25-.16,1.85,2.73,5.08,7.4,3,4.36,3.93,3.9,7.4,8.7s3,6,5.23,7.4c1.69,1.09,2.77.94,11,1.17,6.85.18,4.65.25,11.61.43a62.57,62.57,0,0,1,8.13.44,35,35,0,0,1,7.83,1.88c3,1.15,3.65,2,8.42,4.94,8.35,5.16,8.56,3.91,11.17,6.53,3.63,3.63,3.61,6.42,7,7.4,1.07.31,1,0,5.8.43,4,.36,4.17.58,5.37.44,3.71-.45,4.08-2.79,6.53-3.05,3.39-.36,5.31,3.86,12,10.45,5.19,5.08,4.85,3.35,8.27,7.11,3.86,4.23,7.34,9.76,11.9,13.63a12.9,12.9,0,0,0,3.48,2.18,14.21,14.21,0,0,0,5.52,1c3.18,0,3.78-.8,7.69-1.45a45.16,45.16,0,0,1,8.27-.44c5.15,0,5.3.52,8,.15,2.16-.31,3.9-1,7.4-2.33,3.68-1.41,5.51-2.12,6.53-3.19,2.17-2.29,1.6-4.32,3.77-5.66a6.66,6.66,0,0,1,4.79-.58c6.31,1.56,9.58,13.19,6.82,15.67-.3.27-.61.38-3.92.58-3.6.22-5.4.34-7.11.29-6.95-.16-8.88-1.46-9.43-.58-.86,1.39,4,4.25,11.16,13.19,2,2.53,2.79,3.75,4.36,3.94,3.05.35,4.32-3.75,10.6-6.68a27.21,27.21,0,0,1,5.94-1.89,48.11,48.11,0,0,1,10.45-.87c1.85,0,1,0,7.26.15,6.73.12,8.07,0,9,1.16,1.34,1.6-.2,3.25,1.31,5.8,1.24,2.1,2.66,1.65,4.06,3.63,1.76,2.49,1.26,5.66.87,8.13a12.9,12.9,0,0,1-3.34,7.54c-1.1,1.1-1.78,1.26-4.2,2.61-4.95,2.77-7.43,4.15-8,5.52-2.11,5.16,7.91,14.62,12.39,18.86.17.16.55.54,1.1,1,4.12,3.59,10.23,6.8,12.19,5.07,1-.84.45-2.47,1.31-2.75s2.09,1.22,2.9,2.17c2.91,3.47,5.09,6.07,7.4,7.26,4.49,2.32,10.15-.3,10.73-.58a34.31,34.31,0,0,0,6.1-4.21c2.3-2,3.19-3.27,4.35-3.05s1.78,1.74,2.61,4.5c1.69,5.59,2.54,8.38,2.57,12.49,0,4.86.06,9-2.71,11.45a17.49,17.49,0,0,1-3.77,2.18c-3.87,1.91-6.06,2.14-6.1,3.05,0,.58,1.15,1.12,3.48,2.17,5.33,2.41,7.21,2.08,8,1.89s.71-.37,1.6-.58c2-.47,3.83.07,7,1.45s3.08,1.63,5.07,2.47c4.62,1.92,5.66.88,7.84,2.32,1.62,1.07,2.6,3.68,4.5,8.85,2.94,8,2.47,9.58,2,10.45-.81,1.59-2,1.72-4.64,3.62-3.15,2.24-3.34,3.31-7.26,7.26-7.23,7.29-10.87,8-12,12.77a19,19,0,0,0-.44,4.06,24.76,24.76,0,0,0,1.45,8.13c2.05,6.58,3.08,9.87,3.78,10.88,2.5,3.6,4.3,3.11,9.57,8.41a59,59,0,0,1,4.65,5.37c4,5.07,10.33,12.48,22.92,27.28,4.14,4.87,5.78,6.72,6.68,10.16,1.43,5.51-.89,8,.29,13.06,1,4.32,3.95,7,9.86,12.33,8.22,7.42,12.64,11.41,19.59,12.62,6.53,1.14,10.29-1,15.53,2.33,1.54,1,2.91,2.4,5.66,5.22,5,5.14,5.38,6.91,8.12,8.56,1.86,1.12,3.42,1.3,10.3,1.6,8.72.38,13-1.49,15.24.43.44.38,1.4,2.38,3.34,6.39,1.5,3.12,2.11,4.69,3.91,6a5.86,5.86,0,0,0,3.78,1.3c2.64-.22,4.7-2.94,5.65-4.21,1.12-1.48,1.1-2,1.89-2.32,1.75-.66,4.21,1.12,5.51,2.76.91,1.14,1.33,2.5,2.18,5.22a21.3,21.3,0,0,1,1,3.78c.19,4.41-5.87,5.85-10.31,13.49-1.66,2.86-2.49,4.3-2,6,.94,3.35,5.91,3.11,10.6,8.85.53.65,1.07,1.5,2.17,3.19,2.17,3.35,2.32,4.12,5.6,10,1.9,3.45,2.17,3.76,2.24,4.76.15,2.26-1,2.93-2.47,7.11a25,25,0,0,0-1.45,6.82,23.72,23.72,0,0,0,.44,5.52c1.37,7.63,4.33,9.41,3.19,12.76-.35,1-1.39,2.13-3.49,4.36s-3,2.58-4.64,4.64-2.42,3-2.76,4.64c-.6,2.91,1.19,3.9.88,7.84a7.21,7.21,0,0,1-1.17,4.06c-2.05,2.76-6.35,2.76-6.82,2.76-2.59,0-3.89-1.08-4.78-.29s-.49,2.44-.29,3.48c1.46,7.9-2,10,.29,14.8,1.3,2.74,3.48,4.25,5.95,6,3.17,2.19,3.93,1.56,8.7,4.21a49.6,49.6,0,0,1,8,5.51,47.35,47.35,0,0,1,4.65,4.5c5.51,6,15.25,11.84,19.58,14.8,12.72,8.7,19.61,20.9,24.53,29.6a94.31,94.31,0,0,1,10,24.38c1.44,5.79,2.07,11.11,3.33,21.76.56,4.64,1.83,16.41,1.77,18.22a6.36,6.36,0,0,0,.12,1.66c.2,1,.53,1.38.44,1.45s-2.95-2.18-4.94-5.51a21.86,21.86,0,0,1-2.61-7c-.49-2.32-.07.35-8-22.2-2.94-8.38-3.34-9.73-4.93-12.19-2.63-4-5.22-6-9.43-9.57-3.58-3-11.87-11.29-28.44-27.86A14.59,14.59,0,0,1,591,1330c-1.72-3.69-.71-6.33-2.32-7.26-1.44-.83-3.85.33-5.23,1.6s-1.23,2-3,8c-1.27,4.15-2,6-3.34,8.12a20.5,20.5,0,0,1-1.74,2.32l-1,56.45q-2.46,18.86-4.93,37.72C558.94,1505.5,558.17,1520.81,559.65,1521.09Z"/><path d="M245.65,901.81c-2.14,2-1,6.92.44,9.86s2.95,3.57,4.5,7.55c.81,2.08.47,2.11,1,3,2.47,4.23,11.07,6.25,15.53,2.61a10.64,10.64,0,0,0,2.9-4.21c.5-1.27,1.19-3,.73-4.64-.85-3-4.61-2.2-8.57-5.66s-2.69-6.68-6.67-8.71a12,12,0,0,0-7.26-.87A4.79,4.79,0,0,0,245.65,901.81Z"/><path d="M395.83,982.48c3.4-1.6,7.57,1.92,9.29,4.07a6.68,6.68,0,0,1,1.59,3c.58,3.09-1.65,6-3.62,7.4-1.11.8-2.59,1.87-4.07,1.45s-1.51-2.19-4.35-7c-1.34-2.25-1.82-2.63-1.89-3.77A5.72,5.72,0,0,1,395.83,982.48Z"/><path d="M528.89,1175.46c.36-1,2.52-.65,11.17-.72,6.61-.06,8.37-.31,9.72,1.16s1.39,3.39,1.6,6.53c.17,2.66.26,4-.44,4.5-1.64,1.19-4.6-3.18-11.75-4.94-2.16-.52-3.24-.46-5.22-1.45C531.45,1179.29,528.41,1176.82,528.89,1175.46Z"/><path d="M537.45,1210.72c3.77-2.6,12.62,4,16.68,7.69,1.18,1.08,2.09,2.08,3.92,4.07,4.7,5.11,7,7.67,8.71,11a31,31,0,0,1,2.9,12,35,35,0,0,1-.58,10.15c-.92,4.17-3.18,10.33-5.22,10.16-.74-.06-1.22-.93-1.75-1.89-1.39-2.53-.7-4.39-1.16-7.4-.31-2-1-3.4-2.32-6.09a30.06,30.06,0,0,0-4.5-6.82c-1.64-1.85-4.35-3.87-9.72-7.83-3.39-2.51-3.68-2.63-4.35-3.49-1.35-1.72-1.29-2.68-3-9.14-1.33-4.9-1.84-6.09-1.45-8.27C535.85,1213.32,536.16,1211.62,537.45,1210.72Z"/><path d="M2211.31,1944.35c-1.8.82-2.34,2.92-2.9,4.49-2.69,7.54-9.31,12.06-11.61,13.79-1.72,1.29-1.83.89-13.78,4.5-6.13,1.85-10.76,3.25-16.11,5.22-8.66,3.19-13,4.78-15.81,7.4-4.19,3.88-3.77,6.26-9.44,11.32-4.83,4.31-5.92,3.27-7.25,5.8-3,5.64,2.26,11.12-1.31,17.41a17.92,17.92,0,0,1-3,3.49c-6,6-10.64,6.53-11.32,10-.31,1.56.38,2.78,1.74,5.22,3.62,6.48,10.31,10.25,14.36,12.48,2.67,1.46,4.66,2.29,4.5,3.05-.21,1-4.24.31-9.28,2a18.19,18.19,0,0,0-7.11,4.06c-5.23,5.31-5.67,16.18-1,20,1.72,1.43,3.9,1.68,8.27,2.18,6.22.72,7.49-.71,9.29.73,3.08,2.47.68,7.76,4.5,10.59,1.1.82,2.13,1,2.61,2.17.74,1.85-.72,4.05-1.31,4.94-.89,1.34-2.25,2.78-5.8,4.79-5.11,2.88-6.67,2.37-7.84,4.06-2.13,3.07,3,8.28,1.31,9.87-.8.77-2-.29-3.19.58-1.63,1.19-1.12,4.45-.58,7.83.4,2.59.61,3.89,1.45,4.35,1.2.68,2.6-.43,7.83-3.19a42.88,42.88,0,0,1,6.82-3.19c2.46-.77,6.5-2,8.42-.29,1.34,1.21.92,3.24.29,8.13-1.75,13.49-.85,15.46-3.34,18-1.88,1.9-2.5.89-7.54,4.21-1.88,1.23-7.8,5.13-7.11,7,.42,1.12,2.88.3,8.41,1.31,3.7.67,6.54,1.19,9.43,3.19,2.09,1.45,2.52,2.51,5.23,3.92a21,21,0,0,0,4.64,1.74c2.86.68,3.94.25,6.53,1,2.14.63,3.25.82,3.63,1.6.87,1.79-1.72,5.09-4.21,7-2.23,1.68-3.13,1.29-7.26,3.34-3.79,1.89-5.69,2.84-6.38,4.35-1.16,2.57,1.12,3.88,2.32,11.32.55,3.38.27,4.32,1.31,5.37,1.88,1.92,4.56.6,8.41,1.6,3.38.87,3.85,2.54,7.84,5.37s8.28,4.24,17.12,7.25a29.81,29.81,0,0,1,9.29,5.08c1.4,1.16,2.7,2.5,2.61,4.06s-1.37,1.71-1.6,3.19c-.38,2.42,2.44,5.35,5.37,6.39,1.35.48,1.35.07,3.77.58,4.09.86,5.12,2.24,6.24,1.59s.46-2.63,1.6-5.8c.71-2,1.67-3,3.19-4.93,0,0,2-2.52,6.53-9.29,3.28-4.9,2.52-5,6.67-11.9,3.56-5.9,3.86-5.41,6.24-9.72,3.77-6.83,2.37-6.9,5.66-12.48,3-5.1,5.71-7.62,4.79-10.59a5.62,5.62,0,0,0-2.32-2.9q1.51-28.23,3-56.44c6.88-9,10.1-14.37,11.75-17.71,1.45-2.93,3-6.92,6.24-8.85a6.91,6.91,0,0,0,2.47-2.17,7.56,7.56,0,0,0,1-4.79c-.47-6.05,1.44-12.08,1.31-18.14-.49-21.22.06-16.28-.58-30.33-1.76-38.23-3.93-33.79-3.2-41.49.23-2.31.85-7.24-1.74-11.9a38.9,38.9,0,0,0-4.79-6.24c-2.28-2.62-3.32-3.39-5.22-6-2.24-3-3.36-4.56-3-6.24.45-2.4,3.08-2,4.36-4.64,2-4-2.6-8-.58-12,.8-1.59,1.59-1.09,2.9-2.75,2.65-3.37.94-7.2.29-17.13-.46-6.92.27-6.61-.44-11.17-.9-5.82-2-6-2.61-11.46s.32-7.29-1.45-9.14-5-2-6.82-2c-2.93,0-3.14.9-7.69,1.16-2,.11-2.7,0-3.19.58-1,1.19.74,3.15,1.3,6.67a17.13,17.13,0,0,1-.87,8c-1.17,4-2.33,3.77-3.91,8.27a28,28,0,0,0-1.6,8.42,23.21,23.21,0,0,0,.58,6.38,29.9,29.9,0,0,0,3,7.26c2.5,4.8,3.61,5.47,3.33,7.25s-1.64,1.69-3.77,5.08c-1.69,2.7-1.24,3.48-3.19,6.39-1.27,1.89-2.17,3.2-3.77,3.62a5.9,5.9,0,0,1-4.5-1c-4.32-3-2.27-9.11-5.95-11-1.24-.64-1.19.2-5.37-.29S2213,1943.59,2211.31,1944.35Z"/></g></g></svg>