<svg xmlns="http://www.w3.org/2000/svg" viewBox="0 0 2039.52 2200"><g id="Layer_2" data-name="Layer 2"><g id="Gabon"><path d="M929.72,35.36V49.62l-9.42.71L921,461.76l-469.9-.14Q451,472.2,451,482.86v2.29c-1.79-.49-4-.76-5.42.42-1.11.94-.85,2-2,3.14-1.76,1.69-4.71,1.3-5.84,1.14-1.52-.2-3-.72-8-4-2-1.29-3-1.94-4.85-3.28-6.95-5-10.7-4.71-11.26-7.42-.45-2.11,1.41-3.37.42-5.56a6.19,6.19,0,0,0-2.71-2.57,15.9,15.9,0,0,0-5.7-2c-4.22-.87-5.07-.65-7.84-1.29a34.78,34.78,0,0,1-6.14-2.13c-5.13-2.16-8.82-3.72-12.26-6.71-4.8-4.17-3.66-6.39-9-11.12a25.37,25.37,0,0,0-7.85-5.13c-5-2-10.32-1.23-21,.28a19.48,19.48,0,0,0-6.42,1.71c-3.48,1.73-3.73,3.43-7.27,6.42a35.29,35.29,0,0,1-12.12,6.42c-5.35,1.72-6,.59-7.7,2.14-3.83,3.47-.49,9.1-4.71,14.11-2.33,2.77-4.35,2.25-5,4.57-.83,3,2.25,4.78,3.14,10.12.55,3.3-.51,3.34-.29,7,.43,7.11,4.49,7.95,5.42,15,.65,4.91-1.16,5.8.14,10.27.88,3,1.9,3.26,4.42,7.56a55.87,55.87,0,0,1,6.14,15.83,71.62,71.62,0,0,1,1.42,9,124.17,124.17,0,0,1,.14,24.39c-1.29,14.22-3.35,13-3.42,22.25-.05,7.53,1.33,6.74,2.85,22.1,1,9.87,1.07,16.87-2.42,23.53-.93,1.77-2.93,5.49-5.56,5.42s-4.43-3.73-4.85-4.56c-1.45-2.88-1-4.75-1.43-7.85-1-7.77-5.28-7.88-5.27-13.54,0-4.79,3.05-5.63,2.71-11.41-.19-3.24-1.35-6.33-2-6.28-.48,0-.26,1.72-1.28,4.14-.28.66-.63,1.32-4.14,5.56-2.44,3-2.78,3.25-3.42,3.42a5.25,5.25,0,0,1-5.71-2.71c-1-2.28,1.06-4.25,0-5.56-1.37-1.7-5.93.29-6.27-.57-.21-.54,1.31-2,3.28-2.71,3.52-1.29,5.59.8,7.41-.57s1.54-4.41,1.43-6.27c-.05-.85-.17-1.46-1.14-4.85-1.59-5.53-1.71-5.43-2.28-7.7-1.22-4.84-.69-5.41-1.71-6.42-2.16-2.14-6.5-1.53-9.13-.43-1.95.82-2,1.5-5.56,4a36.54,36.54,0,0,1-6.13,3.71A25.72,25.72,0,0,1,253,588c-5.69-.24-6.59-1.79-9.27-.72-3.81,1.52-2.84,5-6.56,6.56-4.23,1.8-8-1.6-11.27,1-1.21,1-.93,1.64-2.28,2.43-2.42,1.41-4.48-.06-7.13.57-3.12.74-4.88,3.88-5.42,4.85-3.92,7,3.48,13.5-.14,22.24-1.21,2.92-3,4.48-2.28,5.42,1.25,1.7,7.43-2.77,14.69-.85a17.9,17.9,0,0,1,4.84,2.28c1.51.87,7.07,4.25,13,12.55,1.6,2.24,1,1.67,5.56,9.27,2.85,4.7,3.35,5.33,7.13,11.41,9.73,15.6,8.69,15,10.56,16.82,3.71,3.63,7.23,5.42,7.84,9.7.31,2.13-.49,2.25-.43,5.28a18.58,18.58,0,0,0,4.85,11.83c1.49,1.57,3.76,4,5.85,3.43,2.78-.73,3.09-6.14,5.13-6.14,1.33,0,1.71,2.29,3.85,2.71a4.66,4.66,0,0,0,3.14-.71c5.12-2.79,11.87-10.87,12.12-10.7s-4.48,4.88-3.71,9.84c.35,2.21,1.66,3.78,4,6,5.05,4.79,9.75,9.25,18.25,12.7,6.76,2.74,10.11,2.47,12.12,6,1.31,2.28,1.34,4.89,3.43,5.7,1.81.7,4-.42,4.84-.86,2.72-1.39,3.09-3.3,5.14-3.42a3.85,3.85,0,0,1,2.71,1c1.33,1.39.13,3.08.85,5,1.06,2.8,4.65,1.89,10.13,5.42,3.25,2.1,3.18,3.19,5.85,4.14s3.76.14,7.13.42c6.52.55,7,4,12.4,4,1.28,0,.72-.2,8.42-2.14,3.79-1,5.68-1.44,7.84-1.86,6.23-1.21,6.87-.63,10.55-1.85.1,0,2.06-.83,6-2.42,4.76-1.93,5.68-2.31,7-2,2.12.5,2.27,2.08,5,3.56,1,.54,2.58.83,5.71,1.43,4.94.95,7.43,1.42,8.84.86,2.24-.9,2.26-2.37,4.56-2.86,1.84-.38,4.31,0,4.85,1.29.69,1.62-1.75,4.8-4.71,6.13-2.64,1.19-4.7.43-13.4-1.71-9.67-2.38-11-2.4-12.27-2.28-3,.28-4,1.2-11.4,5-8,4.11-12,6.17-16.83,7.7a48.08,48.08,0,0,1-13.69,2.71c-8.79.32-12.4-2.3-16.12.57-.85.66-3,2.62-6.27,5.56-1.42,1.28-2.5,2.28-3.57,2-1.46-.38-1-2.67-2.71-3.71-2.27-1.41-4.83,1.68-7.7.43-2-.87-1.5-2.66-4-4-.39-.21-3-1.57-5-.57-3.12,1.59-2.17,7.83-3.57,8-.18,0-.83,0-3-5s-2.15-6.39-3.85-7.7a7.64,7.64,0,0,0-4.71-1.43c-.61,0-2.84.1-6.27,2.71-2.47,1.88-6.24,4.74-7.28,9.27-1.09,4.78,2,6.51,3.85,17.26.37,2.12,1.25,7.16.43,7.41s-3.59-4.88-5.13-10.12c-1.06-3.62-.46-3.52-1.86-9.56-1.3-5.62-1.69-5.13-2.71-10-1-4.59-.75-5.67-2-7-1.8-1.9-3.4-.87-7.85-2.42-5.47-1.92-5.86-4.46-9.84-4.57a8.77,8.77,0,0,0-6.13,2.14,8.92,8.92,0,0,0-2.28,4.57c-.77,3.31,0,5.13,1.14,12.4.85,5.4.79,6.72.57,8-.47,2.79-2,7.06-4,7.13s-4.09-3.62-4.56-7.13c-.75-5.55,3.18-7.8,1.85-12.26-.62-2.1-1.4-1.29-4.42-5.57s-2.71-5.76-6.28-10.84c-1.3-1.85-1.2-1.45-3.13-4.13-2.27-3.14-2.56-3.9-3.57-4.14-1.2-.28-1.8.55-5.56,2.43-2.92,1.46-4.39,2.18-5.28,1.71-1.48-.78-.6-3.32-2.71-5a3.08,3.08,0,0,0-2.42-.86c-1.72.44-1.25,3.39-3.42,6-1.91,2.29-5.07,3.39-5.71,2.71s1.26-3.51,3.14-6.27c3.65-5.36,5.49-6.16,6.27-9.13.41-1.55.2-2.4-.85-7.56-2.08-10.2-3.12-15.31-3.14-16.54-.07-4.8.88-7.51-1.14-10.55-.75-1.13-1.12-1.12-2.85-3.43-2.64-3.5-2.86-5-4.28-5.42-1.71-.53-3.54.93-5.42,2.43-5.05,4-4.55,7.24-9.41,10.69-1.67,1.19-2.36,1.26-3.14,2.43s-1.55,3.33-.14,8.7,2.79,5.49,3.71,9.12c1.43,5.66-1.65,6.4-1.14,15a52.37,52.37,0,0,0,2,10.84c.8,2.87,1.55,4.75,2,6,2.67,7.3,2.31,11.8,4.13,24.67,1.24,8.7,1.39,6.59,2.29,13.55,2.05,16-.53,13.5.85,24.52.29,2.32.77,5.35-1,7.56-1.35,1.7-3.19,1.88-4.7,4.28a9.79,9.79,0,0,0-1.29,3.71c-1.28,8.07,4.1,21,1.14,32.8a74.78,74.78,0,0,1-3.56,9.84,85,85,0,0,1-4,8q-.51,27.47-1,54.91A114.91,114.91,0,0,1,206,950.91a125.5,125.5,0,0,1-12.27,23.24,164.71,164.71,0,0,1-26.24,30.66c-.16,2.71-1,3.73-1.71,4.14-1,.53-1.7.16-3.14.57a7.3,7.3,0,0,0-4,3.28c-1.52,2.71.52,4.27-.43,7.56-.45,1.57-2.1,3.13-5.42,6.27a86.6,86.6,0,0,1-6.7,5.7c-3.31,2.5-3.72,2.37-4.56,3.57a10.12,10.12,0,0,0-1.14,8.7c.54,1.64,2,3.35,5,6.7s4.23,4.31,4,5.42c-.46,2.2-5.55,2.76-6.42,2.85a20.37,20.37,0,0,1-10-1.71c-3.21-1.22-8.11-3.08-11.83-7.7-2.12-2.63-2-3.86-5.42-8.27-2.09-2.69-3.13-4-4.28-4.85-5.62-4-16.32-2.27-21.25,4-1.56,2-2.09,3.86-3.14,7.56a38.17,38.17,0,0,0-1.28,14.12c.2,2,1.74,6.21,4.7,14.69,2,5.78,3.27,9.08,1.72,10.69a3.08,3.08,0,0,1-3.14.72c-1.84-.71-1.8-3.43-3.14-7.85a37.38,37.38,0,0,0-3.42-8c-1.85-3.09-4-6.74-8.13-7.85-4.33-1.16-9.74.8-10.84,3.86-.6,1.67.55,2.39,0,4.42-.79,2.92-3.7,3.3-6.27,5.84-3.58,3.54-4,8.73-4.14,11.27-.39,5.36,1.55,7.89-.14,13.26-.16.51-1,3.21-1.85,3.14-1.37-.11.15-7.18-3.86-11.69-2.9-3.28-5.8-1.92-8.69-5.42-1.8-2.18-1.75-4-2.71-8.85a116.38,116.38,0,0,0-4.57-15.68c-2.2-6-2.68-5.11-6.41-14.12-3-7.19-2.85-8.14-4.71-10.41-.55-.67-7.09-8.44-13.69-6.28-4.35,1.43-6,6.26-6.13,6.71-.42,1.29-.95,3.8,1.85,12a79.71,79.71,0,0,0,4.42,10.55c7.51,14,12.6,15.15,16.26,25.24,2.23,6.15.14,5.2,2.57,12.55,3.74,11.35,10.7,19.67,13.26,22.67,3.83,4.51,4.55,4.3,7.41,8.28a40.28,40.28,0,0,1,7.28,14.68c1.1,4.64.2,5.34,1.71,9.27.93,2.46,2.47,6.3,6.42,8.85,1.79,1.15,4.25,2.74,7.13,2.28,1.65-.27,2.92-1.13,4-.43.73.48.9,1.38,1.14,2.71.41,2.29.69,3.87-.14,5.13-1.29,1.94-3.78,1-6.28,3.57-.72.76-1.08,1.14-1.14,1.71-.19,1.94,3.1,2.86,5.71,6.85a17.56,17.56,0,0,1,1.28,2.42,88.74,88.74,0,0,0,7.41,12c7.79,11.15,9.67,10,11.56,15.54,1.72,5,.12,5.8,2.28,10.41,2.82,6,6.14,5.95,7.27,10.7,1.32,5.55-2.06,10.5-.28,11.55.62.37,1.46,0,2.42-.43s2.94-1.51,5.28-6.41c1.62-3.41,1.79-5.31,2.42-5.28.78,0,.5,2.87,2.57,6.84.88,1.71,1.37,2,1.57,3.28.1.65.21,2.15-1.29,5.14a32.62,32.62,0,0,1-3.28,4.85,19.07,19.07,0,0,0-2.71,8.27c-.5,6.07,3.8,11,6,13.55,6,7,9,4.33,19.83,12.83,4,3.17,6.66,5.91,11.83,7.27,2.16.57,6.2,1.64,8.84-.42,3.15-2.46,2-7.54,4-8,1.36-.31,3.3,1.73,4.13,3.85,1.46,3.73-1.27,5.74-1.71,11.41-.05.67-.63,9.6,4.42,13,1.54,1,3.31,1.2,6.85,1.56a19.13,19.13,0,0,0,8.27-.42,18.8,18.8,0,0,0,6.27-3.71,37.51,37.51,0,0,0,6.42-6.56c3.45-4.3,3.13-5.27,5.28-6.7,2.61-1.74,6.77-2.74,8.84-1,1.82,1.53.46,3.86,2.28,5.56,2.19,2,7.21,1.53,9.84-1.14,1.63-1.66,1.93-3.72,2.28-6.13a24.47,24.47,0,0,0-.43-8.27c-.62-3.5-1.24-4.16-1.14-6.71a14.54,14.54,0,0,1,1.14-4.85c.39-.91,1.33-3.11,2.14-3,.65.1,1.27,1.7.86,2.85-.29.82-.93.95-1.28,2a3.78,3.78,0,0,0-.15,1.57c.18,2.21,1.14,3.88,1.57,5.42s0,2,0,4.84c-.09,6.67,2.11,8.17.72,11.27-.89,2-1.84,1.49-3,4-1.35,2.9-.46,4.37-1.71,5.85s-3.07,1.14-6.56,1.57c-3.71.45-10.8,2-11.12,4.28-.25,1.76,3.67,2.2,6,6.27,2,3.58,2.16,8.78.14,10s-6.92-1.57-9-5.28c-1.47-2.65-.61-4.07-2.28-5.71-2.18-2.14-6.55-2.56-8.7-.71-2,1.71-.83,4.3-2.56,5.14-2.24,1.08-6.4-2.14-7.71-3.14-1.5-1.16-2.18-2-2.42-1.86-.49.35,1.58,4.43,3.71,7.7,2.39,3.69,4.81,7.41,9.27,10.27a58.52,58.52,0,0,0,7.7,4c3.28,1.42,4.85,1.76,5.7,3.42s.08,2.42.43,5.7c.2,1.89.47,1.89,1.28,5.28,1.4,5.82.9,7,2.43,9.55a7.39,7.39,0,0,0,3.28,3.28c2,.9,4.13.33,6-.28,7.43-2.45,7.32-4.34,12.12-5.56a40.39,40.39,0,0,1,12.12-1,9.18,9.18,0,0,0,3.14-.14c2.85-.69,3.72-2.56,6.13-4.42,4.16-3.22,6.25-1.3,8.56-4s2.22-6.85,1.42-9.55c-.93-3.16-2.56-3.19-3.28-6.13-.77-3.15,0-7.66,2.71-9.27,3.61-2.13,9.45,1.49,12.27,5.27,1.55,2.09,2.05,4.66,3,9.7,1,5.25,2.64,14.13.29,15.12-.43.18-.7,0-3.71-1.43-5-2.35-5.73-2.46-6.27-2.14-1.23.73-1.46,3.54-.29,4.85.89,1,2.1.57,4,1.14,1.54.46,2.25,1.2,5.14,4,6.5,6.29,7.52,7,8.7,7.7a22.81,22.81,0,0,0,4.27,2.14c2.51.87,4.28.85,5.14,2.29.1.17.69,1.2.28,1.85-.63,1-3.11.18-7.27-.43a44.7,44.7,0,0,0-9.27-.57c-4,.25-4.1,1.06-7.56,1-2.65,0-5.26-.09-7.56-1.71-2.9-2.06-3.06-5.09-4.56-5-1.15.07-2.29,1.92-2.28,3.56,0,2.13,1.93,2.68,2.57,5,.49,1.8-.29,2.86-1.57,6.42-2.48,6.92-1.86,9.42-3.43,9.84-1.78.48-4.54-2.23-5.56-5-.7-1.9-.19-2.77-.42-7.84-.17-3.51-.26-5.27-1-5.57-1.36-.54-2.67,3.29-7.42,6.14-1.33.79-3.88,1.62-9,3.28-3,1-4.54,1.47-5.71,1.71-3.81.78-7.59,1.55-10.69-.15-2.65-1.44-1.77-3-5.56-7.41s-6.1-4.3-6.56-6.85c-.7-3.79,3.81-6.35,2.56-9-.61-1.28-1.85-1-4.7-2.71a22.55,22.55,0,0,1-5.85-5.13c-4-4.65-3.75-7.56-6.42-8.13-1.27-.27-2.38.16-4.7-.57a12.2,12.2,0,0,1-2.29-1l-28.09-32c.73-5.39-.48-8.61-1.71-10.55-.57-.89-.6-.67-4.28-4.85-1.5-1.7-2.71-3.13-5.13-6-4.3-5.07-3.62-4.37-4.57-5.42-3.86-4.28-6-6.64-9.55-8.27-1.56-.72-2-.66-4.14-1.71-3.15-1.56-4.43-2.81-5.27-2.28s-.72,1.92-.43,2.85a4.07,4.07,0,0,0,1.28,1.86,45.8,45.8,0,0,1,4.57,5.56c1.44,1.9,1.54,2.64,2.85,4.85,3.3,5.57,5.36,5.37,9.41,11.26,2.28,3.33,1.55,3.28,4,6.7a90.54,90.54,0,0,0,6.56,7.85c1.73,1.92,3,3.29,3.43,3.71a207.67,207.67,0,0,1,14.83,18.25c4.28,5.71,7.36,10.16,8.13,11.27,6.41,9.3,10.36,15,14.26,23.24a118,118,0,0,1,5.27,13.26,112,112,0,0,1,5.71,27.81c.85,12-.91,17.41.42,27.53,1,7.86,2.55,8.06,3.14,14.11.09.89.31,3.51,1.29,3.71.53.11,1-.55,1.71-1.28a28.71,28.71,0,0,1,4.42-3.71,9.87,9.87,0,0,1,8.84-.85c2,.75,5.17,2.79,5.13,5.27s-3.18,2.73-4.7,6.56c-.85,2.14-1.2,5.62.37,6.81l.06,0c1.29.9,3.12-.16,5.7-1,3.13-1,4.72-1.56,6-2.71a11.85,11.85,0,0,0,2.85-4.56c1.72-3.93.85-4.81,2.28-7.71.72-1.46,2.39-4.83,5.71-5.56,2.89-.63,5.36,1.13,6,1.57a9.59,9.59,0,0,1,4,8.42c-.23,2-1.19,2.63-.71,4.13.33,1.06,1.41,1.86,3.56,3.42s3.18,2.31,3.85,2.14c1.49-.37,1.1-2.74,3.43-6.13a10.51,10.51,0,0,1,3.56-3.56,9.61,9.61,0,0,1,7-.86,9.38,9.38,0,0,1,4.7,3.28,9.13,9.13,0,0,1,2.29,5.42c.08,3.07-1.9,3.55-1.57,5.7s2.68,2.46,7.27,7a16.22,16.22,0,0,1,3.14,3.57c2.22,4.28.49,9.6-.14,11.55-1.28,3.91-2.67,4.71-2.14,6.7.73,2.81,4.28,4.21,5.56,4.71,2.54,1,5.66,1.21,8.84,1.42.26,0,.81,0,1.57.15,2.42.28,3.64.43,4.28.85,2.89,1.91-3.28,11-.29,18.54a3.26,3.26,0,0,1,.29,2.57c-.95,2-5.88,2.73-8.7.71-1.29-.92-1.08-1.64-3.14-5.56-1.93-3.67-2.9-5.52-4.85-7.13s-3-1.27-5.7-3a18.38,18.38,0,0,1-6-5.84c-3-5.22.59-9.22-1.14-17.83a36,36,0,0,0-2.29-6.7c-2.22-5.53-3.27-6-3.85-6-.32,0-.74,0-3.13,2.28-2.94,2.74-3.18,3.45-4.42,4-.78.34-1.2.29-5.28-.14-2.89-.3-5.83-.25-8.7-.71-1.63-.26-2.77-.53-3.85.14-1.43.89-1.65,2.76-1.85,2.71-.35-.09,1.73-5.46.42-11.12-.23-1-.51-3.5-1.28-3.57-1.11-.09-2.77,4.94-3.42,7.27s-.68,3.32-1.71,4.28a5,5,0,0,1-4.57,1.14c-3-.75-4.67-4.38-3.85-6.27s3.43-1.2,4.28-3.14c.78-1.77-.42-4.52-1.85-4.85s-1.89,1.57-4.57,2.43a9.4,9.4,0,0,1-4.42.14,12.63,12.63,0,0,1-6.84-2.85c-2.91-2.61-2.31-5.24-5.42-6.85-.41-.21-2.13-1.1-3-.43-1.21.95,0,4.35.29,5,1.18,3.19,2.52,3.39,4.7,6.71,2.81,4.27,2.29,6.53,5.28,8.84a10.72,10.72,0,0,0,2.85,1.57l82.43,90.84c1.74,5.59,4.3,8.64,6.42,10.41,1.41,1.18,3.64,2.64,4.42,5.42a8.16,8.16,0,0,1,0,4.13v27.53l8.27,11.55c1.09,5.76,3.38,8.3,5.28,9.55s3.16,1,7.84,3.14c3.05,1.39,4.57,2.08,6.13,3.42,3.31,2.84,2.31,4.62,5.56,8.56,2.18,2.64,2.74,2,8.28,7,2.25,2,3.87,3.69,5,4.85,4.27,4.39,6.41,6.59,7.56,8.55,1.88,3.23,2.26,5.57,4.7,6.56,1.34.55,1.82.09,3,.86,1.4.93,1.51,2.13,3.7,4.42.91,1,1.3,1.17,1.72,1.14.77-.06,1.35-1,2-2.57a36,36,0,0,0,1.86-7.13,30.38,30.38,0,0,1,1.85-6c1-2.3,1.56-2.47,3.71-5.84,3.42-5.39,3.15-6.69,5.42-8.56a13.36,13.36,0,0,1,5.7-2.57c6.72-1.68,10.07,1.44,12.41-.71s0-6.36,2.85-8.41c1.54-1.13,3.84-1.05,4.14-.43s-1.48,1.31-2.71,3.56c-.89,1.63-1,3.23-1.14,6.42-.15,2.84-.23,4.27.42,5.56.83,1.64,2.1,2.14,4.14,3.43,6.16,3.86,4.79,5.68,9.41,7.84,2.52,1.18,4.82,1.51,6.42,3.85.45.66.62,1.14,1.14,1.28,2,.55,3.91-5.64,6.7-5.56,1.92.06,1.94,3,5.56,6.28,1.71,1.55,3.81,2.55,8,4.56,5.18,2.48,7.55,3,7.56,4.28,0,1-1.38,1.75-3.57,3-2.62,1.49-3.52,1.31-5,2.28a10.07,10.07,0,0,0-3.85,6.14c-.81,4,.75,9.35,4.71,11,3.54,1.45,7.32-.78,8.41-1.43,1.48-.88,2.58-2.12,4.71-4.56,4.25-4.88,4.05-6,6.13-7.13,3.28-1.84,8.12-1.58,9.55.57.91,1.35-.25,2.39-.14,6.27.07,2.36.17,6,2.28,7.42,1.94,1.26,3.42-.82,7.13.14.35.09,4.48,1.22,5.71,4.42.61,1.6-.08,2.22.57,3.28,1.65,2.71,8.65,2.71,9.7.43.79-1.74-1.95-4.65-4.28-7.13-2.76-2.93-3.89-3-6.28-5.56-1.52-1.65-1.33-1.93-4.7-7.42-3.05-5-4.32-6.54-6-10.27-2.15-4.77-1.73-5.89-1.43-6.41,1.18-2,4.9-2.09,7.27-1.57,2.74.59,2.87,1.79,7.13,4.28,4.55,2.64,5.94,2.16,8.56,4.56,1.33,1.21,1.2,1.54,3.57,4.85,4.8,6.72,7.2,10.07,10.83,11,1.73.43,3.25.24,4,1.43s.19,2.67-.43,4.42c-1.09,3-2,5.49-3.85,6-1.45.38-2.21-.73-8.56-3.43-1.52-.64-2.56-1-3.13-.57-.86.71.41,2.47-.43,5a6,6,0,0,1-2,2.86,6.15,6.15,0,0,1-3,1.14c-1.78.25-2.79-.18-8.42-1.57a10.28,10.28,0,0,0-2-.43c-3.18.08-6.49,3.79-6.85,7.56-.15,1.61.39,1.58.14,3-.46,2.71-2.72,4.44-5.56,6.56-2.43,1.82-3.65,2.73-4.7,2.86-4.74.57-9.94-5.53-10-5.57-1.23,1.88-2.19,3.46-2.85,4.57a70.06,70.06,0,0,0-3.71,6.7c-1.28,2.87-1.24,3.7-2.28,4.28-1.69.94-4.55.24-5.42-1.43-.69-1.32.07-2.88,1.29-5.27,2.28-4.51,4.41-5.32,4.7-8.42.07-.75.24-2.55-.85-3.71s-2.71-.42-5.28-1.42c-1.86-.73-4.38-2.46-4.56-4.57-.2-2.27,2.4-4.31,2.28-4.42s-3,4.34-6.28,4.14c-.75,0-1.1-.31-2.71-1.14-4.1-2.12-4.95-2-6.27-2.85-4.09-2.61-1.58-7.26-5.56-11.55-3.11-3.36-7.83-4-10.41-4.28a45.07,45.07,0,0,0-10.41.28,101.52,101.52,0,0,1-6.71-10.69,51.67,51.67,0,0,1-4-8.27c-1.27-3.92-1.4-6.84-2.57-7s-1.58,3-4.42,4c-1.58.54-1.89-.3-4.56.29a10.37,10.37,0,0,0-4,1.71,16,16,0,0,0-1.72,1.57c-2.81,2.67-2.78,2.61-2.85,2.71-1.52,2,.73,6.84,3.43,10.55,3.25,4.48,5,4.48,11.12,10.27,4.56,4.34,3.63,4.42,8.41,9,5.94,5.67,7.76,5.9,10.27,9.56,2.92,4.24,2.84,7.39,4,11.12,1.77,5.73,5.8,10.77,26.1,24,8.65,5.62,13,8.43,21.53,13.12,24.12,13.21,22.2,18.57,62.61,47.77,20.94,15.13,31.41,22.7,38.65,27.38,1.42.92,5.08,3.27,9.69,6.85A150.4,150.4,0,0,1,590.88,1889c16.32,16.29,24.48,24.43,28.81,27.53A55,55,0,0,1,632,1927.92a53.42,53.42,0,0,1,5,7.7c4.15,7.88,2.75,10.29,5.85,14.83,2.41,3.53,3.89,3,12.12,8.84,7.37,5.24,6.18,5.66,13.55,11.12,10.41,7.72,14.08,7.82,16.54,13.27a22.91,22.91,0,0,1,1.71,10.27c-.25,4.2-1.54,5.35-2.42,10.41-.67,3.81-1.38,7.88-.15,11.69,1.66,5.11,5.75,6.44,13.41,12.41,4.5,3.5,4.16,3.88,12.69,11.83,13.3,12.4,20.44,17.37,43.78,37.37,9.18,7.86,13.89,11.9,19.83,17.39,9.46,8.76,5.71,6,27.66,29.95a32.34,32.34,0,0,1,6.7,10.13,44.66,44.66,0,0,1,2.43,9.12c.93,5.94.18,8.81,2.57,11.41,1.49,1.64,2.22,1,3.56,2.57,2.79,3.29.15,6.72,2,11.12.57,1.37,3.43,3.55,9.12,7.85,2.61,2,5,3.78,8.56,6.27,5.1,3.58,5.7,3.74,7.42,5.42,3.24,3.17,2.78,4.24,5.7,6.85,1.52,1.35,5.59,5,9,4.13,3.16-.79,4.09-5.07,5.84-9.41,6.35-15.72,17.43-17.19,20.4-30.8.59-2.74,1.32-6.33-.43-9.7-1.88-3.6-5.28-4.43-5-6.56.26-2,3.21-2,6.27-5.56a18,18,0,0,0,2.71-4.57,77.41,77.41,0,0,0,6.13-21.1c.73-6.4,0-8.28,2-11.55a15.15,15.15,0,0,1,6.42-5.85c4-1.85,4.5.18,11-1.28s8.83-3.82,11.83-2.29c2.17,1.11,2.76,3.39,3.43,3.14,1.24-.45-2.42-7.72.71-12.12,1.7-2.39,3.39-1.09,7.27-4.56,3.11-2.78,3.07-4.54,5.71-5.42A31,31,0,0,1,948,2071c3.71-.59,4.55-.08,5.13-.85,1.26-1.65-2.2-4.59-1.14-8.84a4.32,4.32,0,0,1,1.43-2.57c1.4-1.06,3-.35,5.85-.29,2,0,5.83.13,6.84-1.56,1.14-1.92-2.61-4.1-2.85-8.42-.27-4.74,3.79-10.31,8.56-11.12,3-.52,5.64,1,8.7,2.85,5.34,3.18,5,5.55,9,7,4.53,1.63,8.06-.31,9.13,1.57.88,1.56-1.35,3.29-.72,5.84s3.89,4,5.28,4.57c2.8,1.19,20.5,8.77,25.38,20.53.86,2.06,1.15,3.85,1.72,7.42,1.07,6.72.1,8.61,1.14,15.54.68,4.58,1.09,3.75,1.85,8.84.73,4.91.54,7,2.14,9.7.23.4,2.88,4.85,5.42,4.42,1.56-.26,1.69-2.12,4.56-5.27a13.83,13.83,0,0,1,4.14-3.57c2-1,3.25-.48,11.12.14,4.51.36,5.92.34,7.56-.42,1.11-.52,2-1.4,3.85-3.14,3.78-3.62,4-5,6.13-5.56a7.18,7.18,0,0,1,4.42.28c2.26.85,2.25,2.13,4.85,3.85,1.46,1,3.79,2.51,6.13,1.86,2.55-.71,3.71-3.62,3.85-4,1.43-3.73-1.12-6.31.43-8.7.9-1.38,2.54-1.72,4.57-2.14,6.52-1.34,9.91,2.25,13,.15,1.83-1.26,2.34-3.72,2.57-4.85a8.32,8.32,0,0,0-.43-5.42c-1.93-3.61-6.59-1.62-11.69-5.42-3-2.27-4.39-5.22-5.85-8.41-1.7-3.74-3.5-7.67-1.85-9.84s6-2.2,9.27-2.29c2.26-.05,3.93.19,5.13-1,.93-.92,1-2.11,1.14-3.43.64-4.85,2.34-5.09,3.57-10.41a34.72,34.72,0,0,0,.71-7.84c.13-6.71-1-8.12.14-10.7.92-2,2.05-2.06,6.85-5.41,6.65-4.65,10.22-8.59,12.55-12.13,2.51-3.81,2.64-5.77,2.14-7.13s-1.62-1.46-2.86-3.28-1-3.29-1.56-8.27c-.73-6.29-1.47-6.11-1-8,.87-3.51,3.29-3.47,4.42-7.13a10.84,10.84,0,0,0-.86-8.13c-2.6-4.35-8.24-4.94-10.12-5.14-1.58-.16-3.9.08-8.56.57-4.27.45-5.24.77-7.13.29s-2.41-1.21-5.85-3.14a64.4,64.4,0,0,0-6.13-3c-3.26-1.53-11.37-7.47-30.94-24.68a19,19,0,0,1-10.7-2.28,31.86,31.86,0,0,1-3.28-2.28c-2.9-2.16-4-3.36-6.42-5.42-5.25-4.48-6.07-4-6.84-5.56-2-4.16,2.08-9.81,3.71-12.12.62-.89,5.57-8.1,7.7-7.13,1.6.73.53,5.67,1.85,6,.7.17,1.07-1.2,2.71-2.28,2.43-1.62,4.22-.34,6.84-1.43,2.43-1,2-2.54,4.71-5,3.74-3.33,6.13-1.84,9-4.56a11.26,11.26,0,0,0,3.13-10c-1.07-4.66-5.54-5.11-7.13-11.26-.5-2-.27-2.76-1.14-3.57-1.69-1.57-4.27-.2-11,.43a25.34,25.34,0,0,1-7.7,0,14.37,14.37,0,0,1-7.42-3.28,13.82,13.82,0,0,1-3.56-5.42c-.87-2.19-.74-3.23-1.28-5.85-.88-4.19-1.86-4.56-2.86-8.13-1.69-6,.41-7.54-1.14-11.83-.28-.79-.87-2.18-6.7-7.85-8.85-8.59-10.77-8.58-14-13.4-2.6-3.92-3.62-7.38-4.7-7.13s-.58,3-2.14,7.84c-1.06,3.34-1.59,5-3.14,6-2.77,1.77-6.71.11-9-.85-2.08-.88-4-1.68-5-3.57-1.2-2.21-.43-4.47.42-7.84,2.39-9.5.61-9,2.57-14.26,1.14-3.06,3.14-6,7.13-12,4.77-7.1,5.52-7.06,6.28-9.7,1.72-6-1.71-7.8,0-13.26,1.61-5.16,5-4.68,7.55-10.84.72-1.73,2.71-6.53,1.14-11.41-1.28-4-3.84-4.5-9.12-10.69-2.53-3-4.65-5.45-6.28-8.85-2.67-5.56-1.35-8-3-21.1-.71-5.67-.92-4.93-2-13-1-7.5-1.5-11.24-1.71-14.4-.57-8.69.09-12.08-2.71-15.26-1.31-1.5-3-2.49-2.71-3.71s2-1.31,5.56-2.57c5.88-2.07,6.34-3.51,8.84-3.28,1.71.16,3.26,1.39,6.28,3.85a78.12,78.12,0,0,1,8.41,8.13c3.57,3.92,2.26,3,6.71,8.13,3.15,3.61,4.4,4.73,4.7,7,.39,2.94-1.32,4.23-.43,5.56,1.44,2.14,6.08-.88,10.41,1.57,2.36,1.33,1.79,2.66,5,5.56,3.91,3.54,5.4,2.12,7.55,4.56,3.42,3.88.41,8.25,4.43,15.69,1.11,2.07,2.07,3.08,3.28,3.28,2,.35,3.89-1.7,5.7-3.71,3-3.32,5.2-5.54,5.42-8.84s-1.84-3.66-2.14-7.84c-.07-1-.31-6,3.14-9.56a12.26,12.26,0,0,1,6.7-3.28c5-.87,7.76,1.53,9.85-.36,1.09-1,.68-1.93,2.41-3.77a10.22,10.22,0,0,1,3.14-2.28c2.73-1.18,4.44.21,8.7.57,2.46.2,5.88.49,9-1.29a13.05,13.05,0,0,0,5.28-6.56c1.71-4.15.18-5.73,2.14-9.27a13.28,13.28,0,0,1,4.56-4.7c4.06-2.57,6.65-1.2,9.7-3.14,3.66-2.33,1.47-6.44,4.71-8.7,2.83-2,7.26-1.19,10,.43,2.88,1.71,1.86,3.18,6.27,7.41,2.24,2.15,3.31,2.55,5.85,5.28,1.77,1.91,1.84,2.34,3.28,4a28,28,0,0,0,10.13,7.7,24,24,0,0,0,8.41,1.86l151-1.29c1.56-6.13.59-9.32-.71-11.12a13,13,0,0,1-1.85-2.85,9.43,9.43,0,0,1-.72-6.42c.54-1.8,1.38-2,1.29-3.14-.16-2-2.93-3.34-4-3.85-4.94-2.35-7.25-.19-9.55-2.14-2.95-2.49-1.93-8.41-1.14-11a15.78,15.78,0,0,1,3.42-5.84c2.47-2.69,3.55-2,4.85-3.85,2.33-3.4-.73-6.35,1.43-11.13,1.1-2.44,2-2,3.7-5.13,1.24-2.33,2.85-5.38,2-8.27-.94-3.23-4-2.94-8-8.13-1.58-2-2.6-3.37-2.71-5.13-.3-5.14,7.46-9,8.28-9.42-7.21-5.68-8.82-10.28-8.85-13.54,0-2.29.75-4.28-.42-7-1-2.32-2.24-2.43-5.57-6-3.15-3.38-5-5.4-5-8s1.77-3,2.85-6c1.35-3.64.08-6.45-.71-10.41-2.55-12.9,3.88-18.72.29-26.81a18.47,18.47,0,0,1-1.57-6c-.17-1.87-.48-5.33,1.14-6.27,1.9-1.12,5.85,1.64,8,4.13,1.41,1.65,1.29,2.31,3.56,5.14,1.78,2.21,2.7,3.33,4,3.7s2.93-.18,6.28-1.28c2.18-.71,2.79-1.11,3.28-1.57a6.37,6.37,0,0,0,1.85-3.56c.41-4.08-5.29-6.09-4.85-9.27.28-2,2.65-3.4,4.28-3.85,2.78-.78,4.09,1.11,7.7.42a7.09,7.09,0,0,0,4-1.85c2-2.06.5-4,2.13-6.42s3.39-1.13,7.42-4.42c1.79-1.46,2.08-2.23,3.71-2.85a7.38,7.38,0,0,1,5.13-.14c2.2.83,2,2.22,3.71,2.56s3.77-.78,5.85-2a14,14,0,0,1,2-1.14c1.14-.48,3-1.29,4.14-.57,1.3.84.13,2.9,1.57,4.7.79,1,1.64,1,3.85,1.86,3.58,1.37,3.12,2,5.85,3,4.16,1.52,5.73.22,8.41,2.14.19.14,1,1,2.57,2.71,2.84,3.08,3.37,3.89,5,5.13,1.22,1,1.18.69,2.71,1.86s2.06,1.84,3.7,3c.83.58,1.45.94,2.29,1.43a9.53,9.53,0,0,0,3,3.85c2.57,1.9,6.27,2.38,11,3,1.7.22,2.44.25,3.28.88,1.93,1.43,1.35,3.73,2.28,6.25,1.91,5.18,7.41,3.85,9.13,8.42,1.33,3.54-1.22,6.32.29,11.12a7.3,7.3,0,0,0,2,3.42c1.1,1,1.8.89,2.71,1.72s1.32,2,1.71,5c.73,5.57-.08,5.78.72,8,.58,1.63,1.67,2.94,3.85,5.57,1.53,1.84,3.39,2.28,3.42,3.7s-1.3,2.14-1,2.57c.42.61,2.83-1.29,4.42-.43,1,.56.65,1.7,1.86,5,1,2.72,1.58,2.84,1.71,4.42.18,2.28-1,2.71-.72,4.28.52,3.29,5.92,4.09,5.71,5.85-.14,1.15-2.47,1-5.72,3.65-1.37,1.11-2.47,2-2.55,3.34-.07,1.13.68,1.63,2.71,4.13,2.75,3.39,2.59,4,4.85,6.28,1.69,1.71,1.74,1.35,2.56,2.42,2.2,2.88,1.4,5,3.14,6a4.18,4.18,0,0,0,4.71-.71c1.26-1.33.45-3.11,1.28-3.57.67-.37,2.22.23,7.13,5.71,6.28,7,4.9,7.33,8.84,11,2.21,2,4.11,3.29,4.57,5.85.39,2.16-.65,3.09.14,4.42.59,1,1.67,1.31,7.7,2.56,3.68.77,4.73,1,5.13,1.86.59,1.3-.65,3-1.42,4.13-.63.88-2.12,3-4.57,3.43s-3.64-1.22-4.85-.43c-1.38.9-1.51,4.18-.14,6.13,1,1.49,2.38,1.38,2.57,2.42.26,1.46-2.31,2-3.85,4.71,0,0-.67,1.18-1.14,8a5.54,5.54,0,0,0,2-1.57c1-1.29.79-2.31,2-3.85.42-.54.33-.27,1.28-1.29,1.62-1.72,1.8-2.42,2.86-3.13a6.14,6.14,0,0,1,2.14-.86c3.18-.59,5,3,10.83,5.85.8.39,2.25.92,5.14,2,3.1,1.15,4.65,1.63,7,2.43,10.36,3.55,11.24,4.94,15.4,5a33.18,33.18,0,0,1,5,0c3,.37,4.83,1.28,6,.29.64-.56.25-1,1-2,1.08-1.47,2.28-1,4.13-2.43,1.59-1.2,1.27-2,2.71-2.85a6.51,6.51,0,0,1,3.85-.85c3.3.27,6,3.2,8.27,5.7a11.41,11.41,0,0,0,3,2.57,10.27,10.27,0,0,0,3.14,1.14c7.29,1.49,10.6,1,15,2.85,3.24,1.35,3.31,2.39,5.85,2.71,3.15.4,4.36-1,6.7-.14,1.38.54,1.27,1.16,4.42,4.42a34.28,34.28,0,0,0,4.85,4.42,26.16,26.16,0,0,0,6.13,3.28c1.82.72,2.75,1.08,3.85,1,1.41-.11,2.09-.71,4.71-2a34.88,34.88,0,0,1,3.85-1.71c3.17-1.07,4.22.47,9.41.71s7.46-1.16,9.27.57c1.07,1,1,2.23,2.42,2.86,1,.42,1.93.29,3.85-.29,3.83-1.15,5.74-1.72,7.42-3.14,1.88-1.58,1.58-2.37,4.28-6.13a28.6,28.6,0,0,1,4.56-5.42c4.37-3.76,7.33-2.63,10.55-6.56a26.35,26.35,0,0,0,2.14-3.14c1.92-3.26,1.72-4.46,3.14-5.56.63-.49.83-.37,5-1.14,5-.92,4.48-1,6.56-1.28,2.73-.31,3.35-.06,4.42-.71,1.57-1,2-2.61,2.57-4a38.6,38.6,0,0,1,5.85-9.84c2.75-3.35,3.7-2.71,7-6.84,1.55-2,1.61-2.43,3.43-4.57,2.25-2.65,3.19-3.12,5-5.27,2-2.38,1.78-2.94,3.71-5.71,4.18-6,6.57-5.43,8.7-10.12a37.86,37.86,0,0,0,2-6.42c.5-2,.55-2.68,1.29-5.56.39-1.54.72-2.83,1.28-4.57.7-2.16.93-2.44,1.43-4.13.76-2.6.45-2.68,1-4.42,1-3.34,2.28-3.26,3.43-6.56,1-2.78.44-4.06,1.42-4.57,1.41-.72,3.9,1.15,5.28,2.57,3.19,3.28,1.77,5.53,4.56,9.13,2.52,3.25,4.11,2,7.13,5.85a24.13,24.13,0,0,1,3.71,6.84,18.28,18.28,0,0,0,4,8.41,32.78,32.78,0,0,1,4.14,7.14c1,2.77.39,3.49,1,6,1.32,5.41,4.89,4.48,8,10.56,1.7,3.33,1.49,5.3,4.65,13.33.14.37.3.75.49,1.21,2.12,5.14,3.17,7.72,4.42,8.85,2.75,2.49,5.17.2,9.55,3.13,1.64,1.1,3.09,2.07,3.43,3.71.5,2.51-2.18,3.87-8.42,11.55-3.08,3.8-3,4.18-4.56,5.42-2.71,2.16-4.89,2.54-6.13,5a8.33,8.33,0,0,0-.72,4c-.18,10.17-2.25,10.33-1,14,1.62,4.68,6,7.34,8.56,8.84a13.84,13.84,0,0,0,5.28,2.28c6.94,1.12,13-4.85,13.4-5.27,2.88-2.92,2.63-4.66,4.71-5.14,3.37-.77,7.66,3,9.46,4.53.93.81,1.67,1.6,1.67,1.6,1,1.08,1.25,1.54,1.85,2.15a8.36,8.36,0,0,0,3.42,2c1.88.52,3.46.07,5.56-.57a39.65,39.65,0,0,0,4.71-2c4.91-2.19,5.86-2.39,7-2.29a10.47,10.47,0,0,1,3.57,1.29,16.61,16.61,0,0,1,5.13,3.56c1.47,1.55,1.07,1.83,2.57,3.57.38.44,3.81,4.4,5.71,3.56.66-.29.92-1.24,1.42-3.13.74-2.8.25-3.12.86-5a10.93,10.93,0,0,1,3.13-4.84c.21-.18.76-.6,1.86-1.43s1.82-1.38,2.14-1.57c1.78-1,2.66-.43,3.56-1,2.25-1.4-.13-7.08,1.14-15.26a8.42,8.42,0,0,1,1.57-4.13c1.42-1.82,2.65-1.48,5-3.14,2.78-2,2-3.1,5.71-6.42a17.19,17.19,0,0,1,4.42-3,16.24,16.24,0,0,1,3.71-1.14c7.07-1.57,7.73-5.14,14.11-6.14,2.21-.34,3.67-.15,4.43-1.28.22-.34.91-1.58-.72-5-2.26-4.74-4.74-4.75-9-10-3.19-3.94-2.86-5.27-5.71-7.28-1.88-1.33-3.17-1.55-4.13-3.28s-.35-2.68-1.57-5.41a6.68,6.68,0,0,0-2.14-3.14c-1-.72-1.8-.66-4.28-1.14-3.52-.68-3.85-.85-4.13-1-1.26-.68-3.2-2.33-3.14-4.14.07-2.15,3-3.58,8.13-6.13a30.87,30.87,0,0,1,6-2.42c2.1-.58,2.89-.53,5.13-1.29s3.44-1.16,4.71-2.28c.82-.72,3-2.53,2.85-5a5.51,5.51,0,0,0-1.57-3.28c-1.64-1.86-3-1.35-3.85-2.71-1.44-2.2.51-5.8,1-6.7a8.29,8.29,0,0,1,3.71-3.85c1.41-.66,2.36-.48,4.42-.57,3.88-.18,7.21-.34,8.13-1.86,1.75-2.89-6.28-9-4.28-12.83.74-1.41,2.11-1.07,3.85-3.28a11.19,11.19,0,0,0,2.14-5.56c.63-4.49-.47-11-3.85-12.13-1.72-.59-2.85.57-3.85-.28s-.32-2.94.42-8c.9-6.09.28-7.09,1.72-9.27a11.79,11.79,0,0,1,4.56-3.85c1.52-.8,3.3-1.75,5-1.14,1.26.46,1.24,1.33,2.14,1.43,1.4.16,2.45-1.82,5.28-5.56,2.08-2.77,3.13-4.15,4-4.71,1.2-.77,1.94-.81,8.41-1.57,5.83-.68,6.42-.8,7.42-1.28,2.1-1,2.39-1.94,4.85-2.85,1.6-.6,1.69-.29,4.7-1a24.12,24.12,0,0,0,6-2,13.56,13.56,0,0,0,3.57-2.42,12.23,12.23,0,0,0,3.28-10.84c-.49-2.3-1.22-1.83-1.86-4.14-1.74-6.33,2.69-13.85,3.85-15.83a9.51,9.51,0,0,0,1.43-3.13c.36-1.66.19-3.4-1.14-7.28s-1.8-4-2.14-5.42c-1.86-7.6,8.64-18.91,12.55-22.1a10.47,10.47,0,0,0,3.57-5,6,6,0,0,0,.28-2.85c-.65-3.74-5.44-5.3-5.85-5.42-.67-.21-.94-.22-4.7-.43-6.19-.35-6.62-.4-7-.86-1.74-2.13,3.06-6.9,1.14-9.69-.76-1.11-2.28-1.47-5.13-2.14-3.17-.75-4.38-.27-5.14-1.29-1.11-1.49.27-4.25.72-5.13a9.8,9.8,0,0,1,4.13-4.14,17.13,17.13,0,0,1,2.71-1c4.3-1.82,3.49-7.08,7.84-10.13.76-.53,2.31-1,5.42-1.85,5-1.43,7.56-2.15,9.68-2a3,3,0,0,0,2.3-.3c1.13-.94.82-3.32.29-4.85-.85-2.46-2.21-2.63-4.85-6.14-1.79-2.37-2.69-3.56-2.57-5,.2-2.41,2.81-2.48,4.42-5.56s-.24-4.28.86-9.27a18.73,18.73,0,0,1,3.42-7.56,64.47,64.47,0,0,1,6.42-6.13c2.44-2.19,2.73-2.35,3.14-3.14a9.47,9.47,0,0,0-.29-8.41c-1-2-2.13-2.16-3.28-4.85-.77-1.8-.51-2.24-1.14-2.71-2-1.46-5.69,2.1-7.84.57-.77-.54-.42-1.07-1.43-2.14-1.35-1.43-2.88-1.44-4.42-2-2.76-1-5.62-3.78-5.85-6.56-.19-2.42,1.64-4.37,3.71-6.56s2.92-2,6.28-5.14c2.13-2,3.25-3,4.13-4.85.53-1.08.78-2.67,1.28-5.84.23-1.42.44-3.56.86-7.85.24-2.49.3-3.16,0-4.13-.62-2-1.79-2.19-2.85-4-1.79-3-.91-6.8-.4-9,1-4,2.47-4.26,2.11-5.88-1-4.32-11.87-3.3-13.12-7.84-.37-1.34.53-1.58,2.85-7.84,0,0,1.19-3.22,2.28-7.13,1.73-6.21,2.57-9.35,1.29-11.13-1.57-2.17-4-.47-6.56-2.56-4-3.22-.08-8.7-4.42-14.69-1.22-1.68-2.6-2.74-4.57-6-1.47-2.43-1.85-3.74-1.85-5A8.35,8.35,0,0,1,2007,1167c4.83-7.1-3-18,1.71-30.24.54-1.38,1.31-3,2.14-4.7,2.69-5.56,4-8.34,5.85-9.7,2.28-1.7,4-1.52,5.28-3.71.31-.54.35-.79,1-3.56,1.36-5.84,1.5-6.06,1.43-7a11.23,11.23,0,0,0-2.42-5.7c-2.16-3.17-4.29-2.49-6-5.42-.35-.6-1.81-3.12-.86-5,.59-1.16,1.58-1.09,3.28-2.57a11.24,11.24,0,0,0,2.71-3.57c1.2-2.59.17-4.52-.14-8.13a26.27,26.27,0,0,1,1-9.27c1.35-4.34,3.92-7.24,6.84-10.55,3.5-3.95,4-3.28,6-6a25.24,25.24,0,0,0,4.56-12.83,27.5,27.5,0,0,0-2.13-14.12c-3.66-8.08-8.37-6.93-12.27-15.69-1.26-2.83-2.88-5.5-4.28-8.27s-2.41-4.85-4.13-5.13c-1.48-.24-2.08,1-4.28.85a5.44,5.44,0,0,1-3.71-1.57c-1.27-1.46.53-3.12.14-6.84-.16-1.55-.35-3.46-1.71-4.56-1.59-1.31-3.23-.25-6.27-1-2.31-.58-3-1.59-5.14-2.86-5.89-3.47-8.53-.42-13-3.42-3.21-2.16-1.93-3.82-6.71-8a18.25,18.25,0,0,0-6.84-4.14,16.51,16.51,0,0,0-7.27-.57,19.85,19.85,0,0,0-8.13,3.42c-3.19,2.08-3.09,3-4.71,3.28-3.27.58-4.24-3.08-8.84-4.42-5.07-1.47-6.63,2.17-13.26.71-.3-.06.06,0-6.71-2.42-4-1.44-5.08-1.8-5.42-2.85-.17-.56-.06-1.05,2.29-5.71a30,30,0,0,0,1.71-3.56,10.39,10.39,0,0,0,.57-5.71c-.57-2.31-1.86-2.26-3.42-5.27a18.84,18.84,0,0,1-1.72-5.71c-.56-3-.25-3.63-.57-7.7a69,69,0,0,0-1.42-9.55c-.77-3.57-1.16-5.36-2-6.7-1.71-2.74-3.05-2.35-6-5.85-2.41-2.87-2.7-4.56-4-4.57-1.61,0-1.74,2.63-4.56,4.14a7.74,7.74,0,0,1-6.28.43c-2-.81-2.07-2.11-5.13-5.42-1.6-1.73-4.9-5.3-6.42-4.56-1.14.55-.11,3-1.85,5.56a7.64,7.64,0,0,1-3.14,2.56c-3.9,1.91-6.59-.4-12.55.15a9.46,9.46,0,0,1-3-.15,6.94,6.94,0,0,1-3.42-1.56c-1.4-1.41-.69-3-1.28-5.14-1.29-4.73-7.36-7-9.56-7.84-3.15-1.19-3.18-.06-6.41-1.29-3.52-1.32-4.74-3-7.85-3-.89,0-2.71,0-3.56,1.14s-.05,2.16-.86,3.57a4.81,4.81,0,0,1-2.85,2c-.59.19-2.4.6-6.42-1.42a27.07,27.07,0,0,1-7.13-5.28c-3.38-3.46-2.42-4-5.42-6.85s-4.62-3-6.84-5.84c-1.77-2.28-2.79-3.39-2.57-4.71.49-2.87,5.81-2.18,11.41-6.56,1.28-1,5.67-4.42,7.13-10,1.11-4.22-.34-6.37,1.57-8.13,1.72-1.59,3.67-.56,8-2.57a21.63,21.63,0,0,0,3.57-2.14c2.9-2,6.14-4.21,8-8.12.89-1.89,1.64-3.48,1-5-.9-2.14-3.65-2-4.56-4.42a5.33,5.33,0,0,1,.14-3.56c.86-2.46,2.75-2.64,3.57-4.42.48-1.06.55-2.6-2-7.42-4-7.67-5.9-7-7-11.12s.49-5.94-1.57-9.7c-1-1.78-2-2.54-1.85-4,.19-2.51,3.37-3.56,4.71-5,3-3.26-1.77-9.43-8.42-25.82-1.69-4.15-2.72-7-2.56-10.83a18.36,18.36,0,0,1,3.42-10.41c3.52-4.69,6.67-3.37,10.27-8.13,2-2.64,2.67-5.23,3.85-9.7,1.31-5,.73-5.94,1.85-10.55a35.4,35.4,0,0,1,4.56-11.41A30.91,30.91,0,0,1,1850,678.38c5.84-3.12,8.29-2.35,15.26-6.13a57,57,0,0,0,7-4.57c1.76-1.34,17-13.13,14.4-19.68-1.44-3.65-7.33-2.86-8.13-6.41-.51-2.27,1.62-3.8,5.56-8.7,7.72-9.61,7.09-13.15,12-15.12,3.39-1.36,6.72-.89,10-.43,4.54.65,5.56,1.94,10.69,3.43,4,1.14,7.15,1.37,13.55,1.85,6.8.51,6-.12,14.83.29,7.66.35,8.77.85,10-.29,3.23-3-1.39-9.52,2.71-15.26a13.41,13.41,0,0,1,4.28-3.71c2.23-1.14,3.17-.69,6.13-1.57a24,24,0,0,0,7.42-3.85c2-1.4,1.27-1.26,5.7-5.13,3.5-3.05,4.34-3.49,4.57-4.85s-.51-2.86-2-5.7-1.8-2.46-2.28-3.85-.32-2.29.71-8.56c.67-4,.76-4.62,1.28-5.56a10.15,10.15,0,0,1,4.43-4c3.1-1.63,11.3-9.92,31.94-35.94,3,1.26,4.25.64,4.71.28,2.09-1.62.95-7.39-1.14-11.26-1.08-2-2.32-3.3-3.86-6.85-1.06-2.46-1.27-3.69-.71-4.42s1.68-.51,3.71-.85a15.44,15.44,0,0,0,4.56-1.57,21.43,21.43,0,0,0,1.57-8.56,18.63,18.63,0,0,0-1.57-7.56c-3.74-7.51-13.39-4.64-19.25-12.26-1.3-1.69-.47-1.37-3.85-11.41-2.79-8.28-3.88-10.09-6.56-17.68-4.48-12.71-2.75-11.44-5.13-16.55-4.56-9.76-9.27-11.06-16.69-22.67-3.77-5.9-2.69-8.72-6.84-13-2.8-2.86-4.32-2.95-5.85-5.56-2.23-3.8-.9-6.83-.43-14.55.51-8.3.86-14-2.14-19.25-1.72-3-4.14-4.81-9-8.41-4.46-3.32-8.88-6.6-15.4-8.56s-11-1.35-12.55-4.56c-1-2.11.29-3.64-1-5.42s-4.17-1.92-9.56-1.86c-3.81.05-9.32.16-15,2.57a23.47,23.47,0,0,0-4.28,2.28c-2.73,1.85-2.93,2.85-4.42,3.71-3.77,2.18-9.13-.39-11-1.28-3.67-1.77-5.74-4.16-8.84-7.85-4.85-5.74-4.32-10-7-10.41-2.35-.34-3.24,2.64-8.56,4.85a25.06,25.06,0,0,1-6.56,1.57c-6.52,1-12.13,1.9-16.54-1-2.18-1.43-1.91-2.37-4.71-4a14.47,14.47,0,0,0-7.7-2.14c-3.57.16-3.84,2.25-7.27,2.85-4,.71-5.82-1.66-9.84-2.28-2.84-.44-7.17,0-13.12,4.28,0,.24.82,5.3-2.71,8.13-1.55,1.24-2.43.49-4,1.57-3.87,2.66-1.13,8.89-5.14,12.26a6.81,6.81,0,0,1-5,1.57c-4-.66-4.27-6.07-7.7-6.56-2.59-.37-3.59,2.55-8.7,5-2.51,1.2-4.37,1.49-8.13,2.14-12.85,2.22-19.28,3.33-21.67,4.42a48.23,48.23,0,0,0-12.41,8.7c-2.21,2.12-4.63,4-6.7,6.27-2.35,2.57-3.34,4.1-5.28,4.28-2.21.21-3.2-1.56-5.27-1-1.55.43-1.59,1.57-3.28,2.86-2.06,1.55-3.65,1.11-7.71,1.85-5.87,1.07-5.52,2.54-8.12,2.28-2.83-.28-3.61-2.05-9.84-7.27-4.42-3.7-6.62-5.55-8.13-5.85-5-1-6.28,3.51-14.69,4.28-3.48.32-5.64-.23-7.13,1.43-1.83,2-.07,4.51-1.57,6.27-2.79,3.28-11.32-2.43-14.55.71-2.73,2.66,1.55,8.52-1.57,12-.61.68-1.53,1.3-9,1.86-5.78.43-11.49.53-15,.57a56.22,56.22,0,0,0-8.7.43c-3.94.57-3.83,1.09-7,1.56a28.31,28.31,0,0,1-15.4-2.28c-1.55-.73-3.9-1.87-3.85-3.28s2.09-1.46,3.85-3.28c3-3.15.55-6.45,3.13-10,2.15-2.93,6.12-3.73,9.56-4.42,3.79-.76,4.21.09,7.27-.86a18.64,18.64,0,0,0,7.7-4.85c2.18-2.13,4.14-4.06,4.71-7,.6-3.11-.62-6-2.71-11-1.41-3.36-2.68-5.32-1.85-7.42.57-1.47,1.75-1.74,2.42-2.57,2.65-3.24-5-8.89-7.84-18.54-2.32-7.85.35-11.6-3.28-14.83-2.77-2.46-5.45-1.28-8.13-4.42-1-1.17-1.06-1.84-3.14-8.13-2.3-7-2.83-8-3.85-8.27-2.33-.64-3.69,3.64-7,3.71-4,.09-8.56-6.08-8.84-12-.17-3.59,1.37-4.59,2.57-10,1-4.32.82-7.46.57-13-.6-13.05-3.6-15.61-1.57-23a29,29,0,0,1,3.56-7.84c3.12-4.71,5.11-4.49,7.85-8.42s1.94-5.87,4.56-13.26c2.21-6.21,5.06-6.93,5-10.84-.06-3.32-1.7-3.81-1.57-7.41.17-4.5,2.78-5.31,2.29-8.56-.54-3.47-4-5.88-5.85-7.13-3.59-2.47-5.48-1.9-6.42-3.85-1.49-3.12,1.91-7.52,2.28-8,2-2.55,3.66-2.55,6.42-4.7a21.59,21.59,0,0,0,6.56-9.13c3-7.46-1.07-10.4,2-15.4.26-.43,3.65-2.76,10.41-7.42a77.51,77.51,0,0,1,8.27-5.27c4.68-2.45,5.13-1.81,6.84-3.14,4.47-3.48,4.59-10.3,4.71-16.69A41.18,41.18,0,0,0,1608.25,67c-1-2.73-1.77-3.75-2.14-6.42a22.28,22.28,0,0,1,1.57-11.12c2-5.15,3.62-4.77,4.13-8.13.6-3.87-1.15-7.14-3.28-11.13-1.45-2.72-2.67-5-5.27-6.84s-3.56-1-6.56-2.85c-4.4-2.74-4-5.63-7.13-6.28s-6.75,1.81-7.42,2.28c-2.23,1.58-2.28,2.76-3.85,3-2.28.35-5-1.72-6-4.14-.65-1.63,0-2.14-.57-3-1.22-1.73-4.74-.73-14.83,1-4.78.81-5.16.79-6.7,1.28a22.64,22.64,0,0,0-9.13,5c-2.77,2.63-2.4,3.91-4.71,5.42-3.08,2-6.64,1.62-8.55,1.43-18.54-1.88-20.16,2-33.94-1.57-5.66-1.46-9.08-3.07-14.69-2.28-3.88.54-4.31,1.59-9.13,2.42s-8.75.46-14.69-.14c-1.8-.19-5.86-.74-14-1.86-4.69-.64-6.56-.91-9-.14-3.84,1.22-4.4,3.55-7.41,5.71-7,5-17.76,2.22-27.38-.29-5.62-1.47-4.79-1.93-10.41-3.28-11.09-2.66-12.61-.45-19.4-3.14-6.42-2.54-8.26-5.8-13-5.13-3.08.43-4.89,2.19-6.41,3.28-6.05,4.31-12.23,1.62-26.39.28-18.43-1.73-19.89,1.42-32.94-1.56-11.4-2.61-13.55-3.28-13.55-3.28-8-2.54-10.78-4.5-14.83-3.28-3,.89-2.58,2.28-8.27,6-4.7,3.06-7.62,5-10.84,4.57-4.55-.57-4.22-5.08-9.41-8.13-8-4.67-14.15,2.72-24.24-2-3.8-1.77-4.59-3.6-8.42-4.13-4.72-.66-7.61,1.56-11.55,3-8.58,3.13-12.73-.88-27-1.57-4.46-.21-9.77.38-20.39,1.57-14.72,1.65-24.46,2.74-37.23,5.56A85.32,85.32,0,0,1,1085,19.23c-10.1,0-12.63-1.82-13.82-3.41-2.15-2.88-.89-6.25-3.85-8.41-1-.75-2.48-1-5.41-1.43-5.61-.87-7,0-9.13-1.43s-1.36-2.76-3.28-4c-1-.63-2.65-1.22-11.55,1.14a82,82,0,0,0-9,2.71c-5,1.88-5.55,2.77-7.84,2.71-3.43-.09-4.36-2.15-8-3.14-4.32-1.17-8,.36-10.41,1.14C991.07,9,974.18,7.54,966.08,6.84c-10.32-.9-15-.55-24.24.14-1.56.12-5.38.45-6.42,2.71-.76,1.66.62,2.93,1,6.27a15,15,0,0,1-1.57,8.56c-2.44,4.29-6.66,4.81-6.7,7.7A4.55,4.55,0,0,0,929.72,35.36Z"/><path d="M210.4,485.43c-2.79,2.05-1.81,7.38-1.57,8.7a7.6,7.6,0,0,0,1.14,3.42c3,4.12,12.41,3.55,14.12,0,.66-1.36.25-3.34,0-4.56a10.24,10.24,0,0,0-1.28-3.42c-2.42-3.95-7.1-4.63-7.71-4.71C213.43,484.64,211.76,484.43,210.4,485.43Z"/></g></g></svg>