<svg xmlns="http://www.w3.org/2000/svg" viewBox="0 0 4494.15 1161"><g id="Layer_2" data-name="Layer 2"><g id="Gambia"><path d="M1996.46,358.43Q1224.71,365.08,453.13,355c-17.54-.23-41-.54-58.5-.79-2.5,7.83-1.29,12.18.26,14.69,1.69,2.75,3.26,2.47,5.77,6,3,4.3,2.23,6.81,4.72,11.8,2.06,4.13,4.28,5.77,6.56,8.4,8.22,9.46,9.26,22.58,10.23,34.89a105.67,105.67,0,0,1,0,16c-.61,8.44-1.89,25.91-11.54,42.24S389,509.59,391.22,515c2.18,5.27,13.47.86,21,9.19,5.75,6.37,4.18,14.54,10,16.52,2.42.83,3.05-.47,8.14-1,.92-.1,11.41-1.17,21,4.2,3,1.7,1.71,1.66,10,8.13,8.1,6.35,8.88,6,12.07,9.19,6.11,6.08,3.34,7.43,9.44,13.9,1.93,2,6.34,6.28,13.64,13.64,1.14,1.14,2.24,2.28,2.37,3.94.27,3.54-4.23,5.14-5.25,10a11.43,11.43,0,0,0,.52,5.78c1.84,6.79,4.59,24.38.79,38.56-1.75,6.54-4.55,11.07-7.61,16-3.76,6.08-6.46,8.62-14.69,17.84-18.67,20.92-19.56,24.38-18.62,25.71.62.89,1.79.44,8.13.79,3.33.18,3.23.32,10.49,1,12.62,1.26,14.6,1,21.51,1.83a163.54,163.54,0,0,1,18.89,3.41c12.28,2.86,10.78,3.82,26,7.87,9,2.41,12,2.73,16.53,5.77,2,1.33,2.32,1.9,10,9.71,10.06,10.28,11.81,11.72,13.9,13.12a45.3,45.3,0,0,0,12.86,5.77c2.46.67,10.64,2.67,27.54-.53,6.88-1.3,8.21-2.13,18.63-5,29.8-8.14,32.09-4.88,44.07-11.28,5.76-3.08,9.4-6.06,17.05-7.87,4.51-1.07,10.86-2.57,17.32,0,7.34,2.92,6.23,7.69,13.11,10.23,6.11,2.25,12.33.48,20.47-1.84,9.53-2.71,10.64-3.42,11-4.19,2.49-5.15-6.52-12.74-3.67-16.79,1.17-1.66,3.68-1.8,4.46-1.84,4.1-.22,5.67,3.23,10.23,4.72,3.63,1.19,6.87.38,9.45-.26,6.54-1.63,8.45-5.46,14.95-10,5.85-4.06,8-3.51,15.48-7.08,6.7-3.19,9.61-5.83,21.51-15.22,23-18.14,34.52-27.22,39.87-31.21a86.81,86.81,0,0,0,12.86-11.55c3.12-3.43,4-3.77,4.2-5,1-6.63-12.37-17.75-13.12-18.37-.54-.44-1.45-1.16-1.28-1.74.44-1.5,8.09-1.31,14.92.7,3.88,1.14,4.24,1.9,6.3,1.83,5-.17,8.55-5,10.49-7.34.68-.82,7.62-5.62,21.51-15.22,18.17-12.55,27.26-18.83,33.58-19.94a75.7,75.7,0,0,0,15.74-4.46c4.26-1.72,6.4-2.58,7.87-4.19,5.39-5.91-.14-13.44,4.2-19.68s16.28-7.93,20.72-3.67c4.14,4-.47,10.93,3.94,16,3,3.4,6.43,1.88,15.74,3.41,9.83,1.62,10,4,33,11.28a62.25,62.25,0,0,0,9.45,2.36,65.11,65.11,0,0,0,15.48.53c9.66-.55.41.56,24.13-.27,13.53-.46,20.29-.7,36.47-1.83,41.36-2.9,52.09-.2,103.62-3.41,29.11-1.82,26-2.7,38-2.63,20.5.12,36.12,2.72,56.92-1.57a91.9,91.9,0,0,0,15.48-4.46c11.69-4.63,13.94-8.58,22.83-12.33,8-3.39,8.76-1.22,27-4.2,20.64-3.36,22.12-6.54,32.26-6.29,11.56.28,14.33,4.5,29.38,9.7,28.91,10,55.16,7,63,6,12.25-1.52,8.95-2.9,34.1-7.61,18.42-3.45,24.14-3.45,32.79-8.13,10.6-5.74,8.82-9.42,22-20.46,12.67-10.58,24.65-15.85,43.55-24.14,9.86-4.33,14.79-6.49,21-7.87,6.92-1.54,21.79-4.65,38,1.31A67.36,67.36,0,0,1,1751.43,508c7.69,6.8,8.94,10.77,17.58,17.32,8.49,6.43,12.73,9.65,17.58,8.91,9.22-1.39,8.88-15.11,24.39-34.36a99.69,99.69,0,0,1,19.94-18.89c10.18-7.15,19.52-10.65,26.23-13.12a111.58,111.58,0,0,1,19.94-5.24c10.07-1.69,17.32-2.8,20.73,1.31,1.9,2.3,2.62,6.25,1,8.92-1.09,1.85-3.94,4.19-24.93,3.41-15.5-.58-22.91-2.19-29.38,2.88a22.89,22.89,0,0,0-3.93,4.2c-2.55,3.19-6.47,9.15-8.4,19.94-1.74,9.77.42,10.77-.52,20.46-.53,5.39-1.62,16.63-9.18,27.28A49.88,49.88,0,0,1,1801,567.77a51,51,0,0,1-27.28,4.2c-11.49-1.53-19.2-6.86-26-11.54-11.53-8-20.8-18.62-24.92-23.35a81.44,81.44,0,0,0-14.69-13.9c-4.94-3.57-7.4-5.35-9.18-5.51-12-1.12-15.07,27.14-38.83,39.87-3.86,2.07-10.45,3.83-23.61,7.35-12.91,3.45-21.37,4.86-30.17,6.56-38.55,7.43-39.31,11.74-66.63,15.21-11.29,1.44-10.21.58-31.48,2.89-20.14,2.18-22.1,3.06-27.55,1.57-12.3-3.36-13.7-10.91-28.07-14.16-2-.46-7-.66-16.79-1.05-19.52-.78-23.57.45-26.76,2.1-3.47,1.79-6,4.16-11,8.91-6.84,6.46-6.74,8.28-10.5,10.76-5.86,3.87-10.26,2.19-20.46,3.15-12.48,1.18-12.27,4.3-26,6.82-9.38,1.72-12.41.8-31,1.05-12.57.16-15.2.64-31.22,1.31-54.46,2.28-84.45-.71-103.62,7.61a134.39,134.39,0,0,1-14.69,5.51,147.57,147.57,0,0,1-21.25,4.72c-29,4.89-28.75,7.42-40.14,7.61-7.82.13-14.92-1.58-29.12-5-36.35-8.73-54.52-13.09-64.79-24.92-2.52-2.9-7.87-9.84-12.59-8.66-2.07.52-3.17,2.38-6.56,7.87-2.6,4.21-5.58,8.21-7.87,12.6-5.5,10.48-25.44,33-51.16,52.73-18.28,14-23.48,14.29-29.64,24.65-3.08,5.18-5.38,13.42-10,29.91a310.28,310.28,0,0,1-11.28,33.84,32.66,32.66,0,0,1-8.4,12.86A31.57,31.57,0,0,1,855,778.17c-16.59,4.75-28,4.06-42.24,6.82a127.3,127.3,0,0,0-39.61,15.21c-11.9,7-11,9.33-19.94,13.12-16,6.82-21.38.53-37.51,6C703,823.71,693.79,831.92,685.82,839c-12.49,11.15-18.48,21.07-26,19.41-3.48-.77-6.53-3.87-8.66-6-5.38-5.47-4.27-8.56-7.6-11-4-2.92-9.63-1.58-26.76,4.2-11.14,3.76-13.9,4.93-20.2,7.08-18.77,6.4-17.53,3.92-40.93,10.76-12.82,3.75-17.89,5.87-21.51,2.88s-4.85-10.78-4.46-16c.34-4.54,1.72-5.93.79-8.13-2.1-5-12.19-5-17.32-5.25-20.13-.86-17.7-6.77-50.36-12.33-20.58-3.5-16.91-.36-35.68-3.67-21.26-3.75-42.32-7.75-54.31-24.4-.58-.82-2.57-4.92-6.55-13.12-11.32-23.3-17-35.12-16.79-43.54.14-7.17,2.3-19,3.14-23.61,1.07-5.85,2-9.73.53-14.43-2-6.44-7.09-9.74-10-12.07-17.78-14.36-7.17-36.06-24.92-50.89-6.92-5.79-10.13-3.82-22-13.12-8.06-6.3-10.72-15-14.69-14.17-2.54.57-2.17,4-5.51,8.27-4.56,5.8-14.05,10.49-22.82,7.87-10.18-3-13.56-14.19-13.77-15-3.1-10.85,3.48-21,7.47-27.15a76.2,76.2,0,0,1,9.84-11.8c8.26-8.5,13.38-10.79,14.56-17.32a13.6,13.6,0,0,0-1.18-8.65c-1.76-3.32-4.85-5.2-8.66-6.69-13.12-5.17-17.85.79-26.36-3.54-6.07-3.09-4.83-6.71-16.14-16.53-4.65-4.05-6.94-6.12-8.65-6.69-8.3-2.76-16,5.1-40,23.48-18.15,13.88-20.7,14.69-26.76,21.77a98.09,98.09,0,0,0-14.95,23.61c-6.87,15.6-3.11,18.84-9.45,29.65-5.47,9.33-8.72,7.68-21.51,21.77-13.58,15-10.72,17.73-20.2,25.45s-20.1,11.25-32,15.21c-15.67,5.21-19.34,3.76-23.09,8.66-4.78,6.25-.41,10.7-5,29.64-1.93,8-3.11,12.63-7.08,17.32-4.74,5.58-8.6,5.52-10,10s1.44,7.36,6.55,18.1c4.25,8.92,6.81,14.29,7.87,20.46,1.51,8.73-1,13.31-2.88,23.61-3.35,18.13-4.31,27.31-.79,34.1,4.05,7.8,9.25,6.5,17.05,15.74,7.3,8.64,9.49,17.75,11.55,26.76,4.27,18.73.17,23.39,1.05,50.63,1,30.64,6.39,31.86,2.09,45.13-2.38,7.36-6.8,15.48-9.44,30.69-1.84,10.61-.93,13.77-.26,15.48,3.89,10,13.89,7.94,20.72,18.88,2.49,4,.94,3.9,6.3,21.52,3.82,12.56,4.08,10.85,5,15.21,2.22,10.64.51,19.88-2.62,35.94C60,1125.89,58.14,1130,60.94,1135c1.57,2.77,2.33,1.77,11.54,9.18,5.23,4.21,10.58,8.28,15.74,12.59,3.64,3,5.47,4.67,7.61,4.2,3-.67,2.52-4.63,6.56-8.14,4.74-4.11,9-1.7,12.33-5.5,2.15-2.45.78-3.86,2.36-10.76.77-3.36,2.69-8,6.55-17.31,2.33-5.61,3-7,2.37-8.92-1.38-3.93-6.33-3.74-7.35-7.61-.74-2.83,1-6.39,3.41-7.87,1.75-1.07,3-.51,10-.53,6.07,0,6.58-.44,6.82-.78,2-2.87-6.65-10.36-4.46-13.91.63-1,1.56-.78,5.77-2.1,4.54-1.42,6.81-2.13,8.4-3.41,4.68-3.75,1-9.77,5.24-14.69,4-4.67,9.55-1.76,11.81-5.51,3.21-5.32-7.17-12.36-5.51-22.82.77-4.86,3.74-7.86,9.44-13.64,3.76-3.8,10.67-10.8,21.25-13.38,5.64-1.38,6.85-.16,20.73-.52,7.09-.19,12.9-.67,16.79-1l1273.38,5.24q-.92-138.65-1.84-277.29l91.3-1.31a210.23,210.23,0,0,1,29.11-4.72c10.6-.95,16-.58,23.09-4.46,6-3.29,5.81-5.59,12.85-9.44a50.36,50.36,0,0,1,19.16-5.78,60.67,60.67,0,0,1,22.56,2.1c26.23,6.57,26.2,1.14,58.76,8.4,18.52,4.13,19.7,6.14,37.25,9.18,21.81,3.77,30.82,2.52,37.25.79,6.64-1.8,14.35-5.15,19.42-7.35,0,0,8.91-3.87,16.26-7.87,26.83-14.58,31.3-38.46,57.45-47a94.82,94.82,0,0,1,16.53-3.41c6.54-.8,16.28-1.92,28.07.53,6.64,1.38,11.15,3.31,18.1,6.29,11.66,5,16,8.41,23.61,12.33,14.29,7.4,16.83,4.67,43.81,13.64,14.35,4.78,12,5,29.38,11,19.93,6.9,29.87,10.42,41.19,11.81,8.62,1,18.25.26,37.51-1.31,24.54-2,22.38-3.25,45.13-5.25,29.09-2.57,36.57-.9,48-7.87,2.46-1.5,1.72-1.33,16.53-11.81,11.22-7.93,14.08-9.74,20.73-14.42,14.07-9.92,23.17-16.33,34.1-26a312.57,312.57,0,0,0,22.3-22c9.16-9.74,13.74-14.61,16-18.63,5.61-10,4.21-15,9.44-35.41,2.34-9.1,2.36-7.07,6.83-22.3,7.53-25.67,11.29-38.5,12.59-52.21,1.06-11.21.31-16.63,3.15-28.33,3.5-14.46,7.8-19.24,11-21.77,4.47-3.52,6.58-2.49,14.69-6s12.87-7.53,21.52-14.69c11.4-9.44,8.34-9.4,21.77-21.25,9.54-8.42,13.58-10.64,16-17.31,1.84-5.07,1-7.77,3.94-11.81.83-1.12,3-3.69,13.9-8.13,10.11-4.1,12.63-3.67,20.2-7.34,7-3.41,5-3.85,11-6.56,7.06-3.19,13.1-4.05,25.18-5.77,3.37-.49,3.94-.48,4.73-.27,6.86,1.86,8.28,13.8,11,23.61,2.56,9.17,7.3,16.95,16.79,32.53,6.92,11.36,13.18,17.62,32.27,36.21,52.39,51,59.27,56.45,66.37,61.64a301,301,0,0,0,38.3,24.14c2.63,1.37,5.12,2.62,31.48,14.17,57.1,25,54.26,23,57.72,25.18a66.28,66.28,0,0,0,20.72,9.18c3.89.94,8.42,1.25,17.32,1.84,12.69.84,19.53,1.29,28.85.79,8.44-.46,10.53-1.25,19.68-1.32,10.82-.07,14.72,1,17.84,3.41,2.72,2.13,2.37,3.39,6.82,8.14a74.88,74.88,0,0,0,9.44,8.13c16.39,12.76,15.47,11.94,16.53,12.85,8.32,7.11,8.91,9.24,13.9,11.28,4.72,1.94,8.52,1.81,13.12,1.84,18.66.12,16.33,2.55,32.27,2.36,10.3-.12,11.61-1.14,31-1.84,5.46-.19,7.09-1.34,9.45-.26,7.81,3.57,3.82,15.92,12.85,29.91,3.49,5.4,4.26,3.83,13.38,14.69,6.91,8.22,10.1,13.44,12.59,16.79,10.25,13.75,23,15,52.47,28.86,11.3,5.3,22.2,11.41,33.06,17.57a69.86,69.86,0,0,0,11,5.51c8.31,3.12,14.82,3.36,29.65,3.41,20.48.07,30.72.11,37.77-.79,10.95-1.38,16.77-2.11,24.66-5,16.28-5.91,25.05-9.1,33.32-16.26,2-1.7,5.92-5.39,10-4.46,2.41.54,3.81,2.49,6,5.51,3.11,4.22,6.8,8.06,9.45,12.59,5,8.55,19.33,26,34.89,39.09,9.39,7.9,23.22,19.29,44.07,24.66a108.36,108.36,0,0,0,14.95,2.62c4.94.6,16.81,1.8,47.75.52,12.4-.51,18.1-1,22.82,3.15,3.88,3.42,3.93,7.2,6,13.38,3.23,9.49,9.94,16.91,23.34,31.74,9.06,10,14.09,15.59,22,21.78,18.54,14.43,24.47,10.09,59.81,28.59a96.73,96.73,0,0,0,21,8.66c8.33,2.26,15.18,2.82,22.82,3.41a204.6,204.6,0,0,0,26.5.26c13.58-.72,29.54-1.57,47.22-7.87a117.85,117.85,0,0,1,13.64-4.46,104,104,0,0,1,23.35-2.88c8.08-.22,12.12-.33,16,1,6.25,2.21,8,5.6,15.22,12.33,7.94,7.37,15.68,14.56,26.23,17.31,5.34,1.39,10.82.84,21.77-.26a119.66,119.66,0,0,0,27.81-5.77c8.84-3,9-4.34,16-6,6.07-1.46,13.25-3.19,21.25-1.31,10.68,2.51,10.21,8.49,22.3,11.81,4,1.08,8.76,1.24,18.37,1.57,8.59.29,12.21-.21,15.74-1.31a34.48,34.48,0,0,0,9.18-4.46c4.61-3.21,5.61-5.69,11-12.07,7-8.22,7.64-6.86,12.06-12.85a44.92,44.92,0,0,0,7.87-15c1.64-5.76,1.5-10.44,1.32-14.95-.53-13.11-4.54-17.34-1.32-23.87a17.29,17.29,0,0,1,5.25-6c6.13-4.83,13.11-4.88,18.89-5.24,15.94-1,12.08-3.71,35.68-6.3,3.87-.43,6.25-.6,24.13-1.57,28.71-1.56,43.06-2.34,44.34-2.36,22.84-.36,28.88,1.25,40.4-3.15,5.86-2.24,10.35-5,16-8.4,12.78-7.76,13.85-11.09,27-19.41a136,136,0,0,1,21-11,89.09,89.09,0,0,1,17-5.51c11.65-2.19,18.63.68,32,3.15,18.45,3.41,32.92,3.07,51.68,2.62,16-.37,25.1-1.81,28.34-2.36a160.39,160.39,0,0,0,26-6.56c23.12-8.37,37.38-27.63,52.46-48a242.14,242.14,0,0,0,32.27-58.77c9.14-24.46,16.41-43.93,9.71-66.37-2.69-9-5.3-20.48-14.95-26.49-6.27-3.91-11.8-3.34-18.37-9.71-3-2.92-4.93-6.62-8.66-13.9L4438,521.86c-5.29-9.49-10.89-19.55-21.51-28.06-6.56-5.27-7.84-4.17-16.26-10.24a105.49,105.49,0,0,1-21.78-21.25c-17.44-22.12-18.92-41.34-32.53-53.51a33.12,33.12,0,0,0-15.21-8.13,31.5,31.5,0,0,0-8.92-.53c-12.5.63-23.8-2.77-37.26-6.82a183.82,183.82,0,0,1-22.82-8.66c-13.17-5.86-12-6.91-18.36-8.92-13.46-4.25-25.76-1.75-35.68.27-6.72,1.36-14.44,2.93-23.35,7.87-2.92,1.61-6.39,3.83-24.92,19.67-4.85,4.15-8.84,7.61-11.54,10l-102.05-1.84c-9.78,4.72-18,8.43-23.87,11-13.84,6.1-21.31,9.36-32,12.86s-16.24,5.3-23.87,6.29c-9.54,1.24-13.21.21-21.25,2.36-6.72,1.8-9.73,4-17.84,8.4-23,12.47-28.19,10.59-43.55,21.25a100,100,0,0,0-14.69,12.06c-3.08,3.1-20,20.1-27.54,36.47-.88,1.91-3.33,7.53-8.92,10.49a18.89,18.89,0,0,1-5.51,1.84,25.41,25.41,0,0,1-12.59-1.05c-4.65-1.49-11.82-1-57.19,10.76-29.65,7.66-31.76,8.78-34.37,11-2.25,1.94-6.51,6.12-12.59,6.3-4.47.13-7-2-12.07-4.2-6.78-3-8.49-1.92-19.68-4.46-6-1.36-4.78-1.47-23.08-7.08-16.09-4.94-17.84-5.11-23.87-7.61a128.24,128.24,0,0,1-17.05-8.65c-19.45-11.51-18.64-16.92-32.27-22.3a182.13,182.13,0,0,1-17.84-7.35,98.26,98.26,0,0,1-8.92-4.72,78.28,78.28,0,0,1-19.94-17.32c-5.67-7-3.66-7.31-8.92-14.16-5.93-7.73-13.65-13.13-28.85-23.61-11.69-8.06-11-6.71-11.81-7.87-10.35-14.1,2.39-40.87-3.94-56.67-1.25-3.13-2.88-6.29-2.88-6.29a73.75,73.75,0,0,0-8.4-12.86c-14-17.52-23.48-44-49.31-62.17-3.25-2.28-12.31-6.33-30.44-14.43-33.65-15-45.5-17.36-53-18.36-4.13-.56-3.89-.31-27.54-.79-46.89-1-42.33-1.84-50.37-1.31-18,1.19-43.54,2.86-64.8,18.89-5.8,4.37-18.16,15-21.77,18.1a192.42,192.42,0,0,1-23.61,18.1c-9.74,6.21-13.66,7.23-17.32,7.34-5.81.18-10-2.2-17.57-6.55-13-7.46-19.5-11.18-25.19-14.69-15.54-9.6-29.37-16.52-36.73-20.2-7.79-3.91-13.85-6.68-23.61-12.33-5.82-3.38-10.51-6.36-13.64-8.4q-5.9-48.27-11.8-96.54a194,194,0,0,0-40.93-57.19c-16.54-15.82-33.43-26-51.94-37.25-10.83-6.55-18.07-10.94-29.12-15.74-20.36-8.85-38.45-12.51-52.2-15.22a200.91,200.91,0,0,0-21.78-3.41c-19.32-1.82-32.25-3-43.55,3.15a48.55,48.55,0,0,1-11.8,5.25,51.29,51.29,0,0,1-14.17,1.57c-13.79-.58-21.2-8.86-38-15.21-16.16-6.11-17.34-1.51-37.77-8.66-10.29-3.6-8.63-4.29-24.92-10.76-25.16-10-33.29-10-37.52-9.7-4.38.3-9.91,2.34-21,6.29-13.89,5-20.09,8.27-32.52,13.38-19.37,8-17.93,5.57-31,11.28-18,7.91-18.63,11.57-44.34,25.19-15.6,8.26-17.34,8-29.38,15-16.56,9.63-13.57,10.81-29.38,19.94-9.15,5.28-17.5,9.21-33.58,19.15-1.78,1.1-3.24,2-4.2,2.62-18.72,6.39-29.93,3.84-36.72.26-11.41-6-13.6-16.56-33.58-30.16a117.81,117.81,0,0,0-12.33-7.35c-3.77-1.93-12.66-6.23-30.69-10.76-12.44-3.12-18.75-4.7-26.76-5.24-13.75-.94-22.59,1.86-59,13.11-32.25,10-31.93,9.82-32.27,10-30,13.51-48.68,35.57-57.71,46.44-2.26,2.71-6.32,8.28-14.43,19.41-16.43,22.54-24.64,33.8-31.48,45.65-10.19,17.65-15,32-20.46,48.53-8.88,26.71-12.42,48-17.32,77.39C1999.34,335.92,1997.58,349.13,1996.46,358.43Z"/><path d="M303.34,576.17c4.77,3.21,9.52-1.61,19.41-1.31a40.89,40.89,0,0,1,13.11,2.88c6.71,2.58,8.4,5.14,11,4.2,3.9-1.4,6.14-9.21,3.68-14.43-1.34-2.83-3.28-3.23-10-7.34-8.91-5.47-8.37-6.54-16-11a82.41,82.41,0,0,0-14.69-7.09c-12.74-4.57-22.08-4-26.75-1.31-2,1.14-2.1,2.06-2.1,2.36,0,1.37,2,2.17,7.08,5,3.78,2.11,5.69,3.2,6.82,4.46,1.79,2,1.28,2.64,3.67,5.51,2,2.41,3.29,3.07,3.15,4.2-.19,1.54-3.46,1-4.46,2.88-1.09,2.13,1.3,5.49,2.62,7.35A14.4,14.4,0,0,0,303.34,576.17Z"/><path d="M291.53,568.56c3.36,2.27,3,4.72,6.3,9.45,2.74,3.87,5,5,4.46,6.55-.41,1.21-1.94,1.1-4.2,2.63a14.67,14.67,0,0,0-4.46,5.24c-4.56,7.66-2.26,17.07-5,17.84-1.61.46-2.46-2.83-6.29-3.41-3.15-.48-4.81,1.41-6.56.26-1.38-.9-.66-2.28-2.1-5-1.63-3.06-3.34-2.78-5.25-5.77-.65-1-.41-1-2.09-6.56-1.27-4.18-1.72-5.24-2.63-8.66-.76-2.87-1.14-4.33-1.05-5.24.35-3.49,3.12-6.41,5.77-7.87,1.69-.94,1.56-.3,11.28-1.32,3.27-.34,5.5-.64,8.4.27A12.53,12.53,0,0,1,291.53,568.56Z"/><path d="M271.85,542.06c-.65,1.32,3,2.85,3.68,6.83.29,1.71-.16,3.24-1,6.29-1.29,4.4-2.52,5.51-1.84,6.56.22.34.74.84,7.08.79,4.42,0,4.4-.28,5.78,0,3,.62,3.75,1.94,5.77,1.57a4.41,4.41,0,0,0,3.41-2.62c.56-1.8-.93-3.63-2.89-6a22.29,22.29,0,0,0-4.72-4.46c-3.75-2.61-5-1.8-6.82-3.93s-1.25-3.78-3.15-5S272.37,541,271.85,542.06Z"/><path d="M258.21,577.48c-1.32.07-1.34,2.33-3.93,6s-3.83,3.13-5.77,6.3c-1.7,2.77-.84,3.32-3.15,8.92-1.52,3.68-2,3.57-2.36,5.51a16.19,16.19,0,0,0,.78,8.66,19.17,19.17,0,0,0,4.46,7.34,11.71,11.71,0,0,0,5,3.41c2,.63,3.58.4,6.29,0,3.62-.52,5.6-.81,7.61-2.36a12.16,12.16,0,0,0,3.94-6,12.32,12.32,0,0,0,.78-6c-.76-4.83-4.8-4.93-7.6-11.28a21,21,0,0,1-1.84-7.08c-.24-3.16.47-3.94,0-6.56C261.84,581.13,259.93,577.39,258.21,577.48Z"/></g></g></svg>