<svg xmlns="http://www.w3.org/2000/svg" viewBox="0 0 2513.93 1233.81"><g id="Layer_2" data-name="Layer 2"><g id="Georgia"><path d="M1413.08,490.78c4.1-.44,7.54-.61,9.67-.71,9.9-.49,9.64-.55,10.13-.47,3.5.53,4.91,1.85,9.91,4.71,11.85,6.8,12.75,4.45,19.33,9.43a57.54,57.54,0,0,0,9.67,5.9c2.17,1.13,3,1.45,4,1.41,4.24-.14,7-6.22,8.72-9.19,5.84-10,17.12-14.14,26.18-17.45s21-7.65,30.89-2.83c2.64,1.29,4.93,3.13,7.78,2.36,4.42-1.21,4.56-7.21,11.08-10.38a12.5,12.5,0,0,1,5-1.41c6.22-.35,9.95,4.68,12,3.3,1.16-.77.65-2.78.7-5.66.08-4.3,1.4-7.26,4-13.2,1.85-4.19,5.29-12,13.21-18.63,4.94-4.13,9.85-8.23,16-7.78,3.82.27,4.52,2,12.73,3.53,3,.56,2.81.3,8.26,1.18,6.5,1.06,7.05,1.47,8.49.95,4-1.48,3.7-6.19,7.3-7.31,1.79-.56,2.79.31,7.55,2.35,11,4.72,11.5,2.61,19.1,6.61,2.45,1.28,3.89,2.29,5,1.65,1.7-1,1-5.46.24-10.38s-1.31-4.66-1.18-6.36c.46-6.43,7.88-10.64,9.9-11.79,3.06-1.74,7.88-4.48,11.32-2.6s2.18,6.56,5.66,8.25c2.51,1.23,4.79-.41,9.67-1.65,6.21-1.57,6.24.13,13.67-.94,10-1.43,13-4.77,17.45-2.59,2,1,1.34,1.65,5.19,4.71,4.81,3.83,5.85,2.77,9.67,5.9,4.35,3.56,3.81,5.61,8.72,9,1.82,1.24,2.51,1.38,3.54,2.59,2.16,2.55,2.2,5.61,2.35,9.2.33,7.68.89,11.49,1,13.44.24,7.57-.07,7.38.39,8.41,2.17,4.79,6.83,4.2,10.85,10.53,1.11,1.75,1.3,2.66,2.67,3.77,2.73,2.22,7.25,2.88,9.27,1a4,4,0,0,0,1.1-2.2c1.42-6.95,1.31-13.42,2.68-19.5,1.11-4.95,2.66-7.18,3.46-8.17a28.81,28.81,0,0,1,3.61-3.62c1.19-1,2-1.45,2.36-1.73,3.92-2.87.48-11.75,3.46-19.8.77-2.09,2-5.41,5.18-7.55,2.69-1.8,5.38-1.85,9.91-1.88,8.18-.06,10,2,17.13,1.25,4.62-.46,4.32-1.36,6.29-.94,5.78,1.24,5,8.27,13.68,16.19,2.57,2.36,3.69,2.7,8.33,6.92,3.2,2.91,3.44,3.45,4.56,3.61,4.11.6,5.93-6.12,12.89-8.49,1.16-.39,3.44-.42,8-.47,7.11-.08,12.66-.09,19.18,2.2a20.19,20.19,0,0,1,5.19,2.36c4.45,3,4.87,6.57,8.17,12.26,3.81,6.59,4.88,4.69,11.48,14.31,1.77,2.58,3.12,4.8,6.6,9.74,2.25,3.2-.13-.3,6,7.39,1.61,2,2.39,3.05,3.93,3.62,1.23.45,1.72.17,5.19.78,2.57.45,3,.73,3.3.95.69.52,1.26,1.5,2.36,3.46a22.1,22.1,0,0,1,1.1,2c1.07,2.66.11,3.92,1.1,5.5.56.9,1.42,1.28,3.14,2,2.94,1.31,4.17.74,5.51,1.73s1.33,2.45,1.88,5.66c.22,1.26-.12-.89,4.4,14.78.71,2.46,1,3.5,2,4.09,1.69.95,3.89-.16,8-2.2,3.4-1.69,6.87-3.24,10.21-5,9-4.8,9.3-5.38,11.48-5.65.83-.11,4,.45,10.37,1.57,6.06,1.06,8.05,1.54,10.38,2.36,3.8,1.33,3.34,1.75,5.66,2.35,5.63,1.47,10.89-.39,13.67-1.41,5.92-2.17,6-4.16,9.59-4.4,4.56-.3,8.21,2.59,10.69,4.56,7.55,6,6.06,11,11.95,14,1.83.92,5.57,1,13.05,1.1,11.25.17,13.88-.74,15.87,1.41,3.17,3.42-.43,9,2.67,11.48,1.86,1.45,5.06.55,11.48-1.26,7-2,10.44-4.1,14.15-2.36a7.65,7.65,0,0,1,2.36,1.73c2.07,2.29,1.79,5,2.35,10.85.49,5.08.82,4.25.79,6.13,0,2.32-.57,5.81-7.39,16.66-4,6.36-4.19,5.76-5.5,8.65a29.65,29.65,0,0,0-3,13.83c.14,3,.64,2.17,1.26,7.39.8,6.74,0,8.28,1.26,12.73,1.16,4.05,2.13,3.75,2.2,6.13.15,4.91-3.87,9.42-7.86,11.32-1.48.7-3.22,1.53-5,.94-2.27-.74-2.5-3-4.72-3.46-1.63-.32-3.1.6-4.4,1.42-3.21,2-2.77,4-5.19,5a6.71,6.71,0,0,1-7.07-1.26c-1.1-1.18-.82-2.28-1.57-2.51-1.52-.49-4,3.57-6.76,7.7-6,8.88-6.19,7.44-7.86,10.85-.91,1.84-5.57,11.85-1.73,19.8,1.34,2.79,2.85,3.49,15.72,10.69,27.36,15.31,24.82,14.52,25.15,14.62,1.89.59,8.42,2.52,8.65,5.66.1,1.49-1.26,2.48-.79,4.4a5.87,5.87,0,0,0,2.83,3.3c1.9,1.2,3,.82,4.87,1.42a12.49,12.49,0,0,1,7.86,9.27c.4,2.4-.33,4,.47,4.4s2.16-1.18,5.51-3.3a28.82,28.82,0,0,1,4.4-2.36c.88-.34,3.49-1.24,11.47.16,5.88,1,5.2,1.65,9.12,2,5.23.53,6.54-.56,9.59.78,1.42.63,2.83,2,5.66,4.72,3.39,3.27,5.09,4.93,5.34,6.6.42,2.72-1.63,3.23-1.73,7.23,0,.72-.12,5.06,2.36,6.6,1.62,1,3,0,3.77,1,1.41,1.68-2,5.58-.47,7.54.4.51.63.25,2.52,1.26a18.24,18.24,0,0,1,3.3,2.2c2.51,2.26,2,4.67,3.14,4.87,1.78.33,2.49-6.08,7.55-9.27,2.78-1.76,5.74-1.83,8.49-1.89,3-.07,6.61-.15,9.43,1.89,4.85,3.51,3.28,10.28,6,11,3.7,1,8.14-11.34,11.95-10.53,4,.85,5.33,15.77,11.32,23.11a3.73,3.73,0,0,0,2.67,1.73c2.12-.05,2.81-3.52,7.07-6.92,1.44-1.14,2.17-1.71,3.15-1.73,2.79,0,3.39,3.95,6.6,5.82,4.44,2.58,11-.61,15.25-2.68,6.49-3.15,6.68-5.57,11.79-6.75,4.81-1.12,10.75-.41,11.79,2.2.14.36.34,1.14-2.2,6.44-2.32,4.81-3.6,6.49-3,7.23.91,1.1,4.31-1.94,7.39-.47,2.06,1,2.93,3.52,3.46,5,.8,2.34.35,3.22.78,5.35.68,3.32,2.67,5.47,4.87,7.85a23.37,23.37,0,0,0,9,6.14c2.22.8,3.34,1.2,4.55.78,3.76-1.29,3.55-8.18,5.66-8.33,1.79-.13,2,4.78,5.66,6.13,1.18.44,1.79.16,7.86-1.1,5.85-1.21,6.76-1.26,7.7-.79,2.38,1.21,1.05,4.56,3.15,7.55,2.52,3.6,9.24,2.32,9.43,4.09.1,1-1.95,1.29-3.14,3.61a7.63,7.63,0,0,0-.63,4.4c.21,2.61-.86,6.35-3,13.84-2.63,9.23-12.6,19.77-17.29,24.68a138.75,138.75,0,0,1-32.38,24.36c-7.34,4-13.58,6.49-17.61,3.93-2.88-1.83-4.18-6-7.86-6.29a6.69,6.69,0,0,0-4.24,1.26c-3.23,2.21-2.93,5.95-4.88,15.09-1.86,8.76-2.8,8.46-2.35,11.16.86,5.27,4.25,5.39,6.13,12.42,1.15,4.31,0,4.85,1.57,9,1.15,3.09,2.55,4.86,1.88,7.23-.39,1.42-1,1.34-2.35,3.46-.61,1-3.37,5.48-1.89,7.86,1.23,2,4.49,1,5.19,2.83.61,1.61-1.65,3.13-1,4.72.4.9,1.41,1,3.62,1.73,3.79,1.2,5.87,1.86,7.23,3.3,2.37,2.51,1.44,6.22,2.2,6.28s1.48-3.46,3.15-8.48c1.79-5.4,3.15-9.49,4.55-9.44.72,0,1.19,1.12,4.41,9.59,1.56,4.12,2.18,5.79,3.61,6.13s1.82-.78,5-2.2c2.25-1,4.63-2,7.39-1.57A8.08,8.08,0,0,1,2363,973c1.41,1.76.83,2.94,1.89,6.13,1.47,4.45,3.7,5.47,3.14,6.61-1.19,2.43-11.26-2.62-14.77,1.25-2,2.19-1,6.28-.63,8a15.43,15.43,0,0,0,3.93,7.08c2.64,2.7,4.44,2.48,6,5.18.76,1.33.92,2.46,1.26,4.72.83,5.57-.63,7.27.78,9,1,1.14,3,1.34,6.92,1.73,3.19.31,4.23,0,6.92.63,2,.49,4.14,1,4.56,2.35.57,1.88-2.43,4-1.89,4.72s4.64-2.06,6.6-.63c1.47,1.08.82,3.9,1.73,4.09s1.19-2.08,2.83-2.67c2.26-.82,6.3,1.74,7.23,5,.79,2.79-1,4.93.16,6,.94.84,2.26-.45,4.72.16a7.49,7.49,0,0,1,4.24,3.14c1.53,2.43,0,3.7,1.1,6,1.37,2.93,4.46,2.15,10.53,6.14,3.16,2.06,2.53,2.4,5,3.77,3.55,1.93,6.88,2.37,10.53,2.83,4.46.55,4.24,0,8.34.47,4.88.58,8.06,1,11.31,3,3.86,2.39,3.68,4.51,7.55,5.81,2.17.73,3.31.43,5.19,1.73,2.14,1.48,2.81,3.36,3.93,3.14s1.68-2.76,2-2.67-.59,2.41.47,3.78c.48.61,1,.59,3.93,1.41,3.11.87,3.26,1.1,3.3,1.26.42,1.5-6.48,3.5-6.28,5.81.11,1.43,2.81,1.6,7.38,3.93,5.49,2.81,4.93,4.28,9.44,6.29,5.57,2.49,9,1.39,9.9,3.46.79,1.85-2.94,3.17-3.93,7.39a10.64,10.64,0,0,0,1.57,8.33c4,5.53,13.66,3.81,14,6.44.06.48-.23.65-2.83,3.31-4.43,4.53-4.39,4.85-5.81,5.81-3.44,2.32-4.84,1.24-5.82,2.83-2,3.28,3.44,8.57,1.41,11.16-1,1.23-2.46.4-5.5,2.2a14.7,14.7,0,0,0-3.46,3c-2.63,2.83-4.93,5.31-5.34,8.33-.58,4.19,3,5.33,3.93,10.53.48,2.77-.35,3.5-2.67,11.48-1.8,6.16-3.66,12.56-5.19,20-1,4.92-1.15,6.76-3,8.49-3.2,3-8.25,2.59-11,2.36-5.32-.45-6.28-2.27-14.62-4.09-3.82-.83-5.73-1.24-7.07-.94-4.61,1-7.39,5.71-12.27,14.15-3.1,5.38-4,8.11-7.54,10.06-.89.49-4,2.19-6.92,1.1-1.79-.66-3-2.13-4.4-4.88-4-7.76-2.17-10.5-4.72-13.51-3.53-4.19-11.25-3.75-18.86-3.31-6.53.38-11.24,1.89-14.93-1.1a9.09,9.09,0,0,1-2.52-3.3l-32.22-37.41a32.56,32.56,0,0,1-13,1.89c-2.83-.2-4.62-.72-13.68-3.62-14.16-4.54-15.09-5-17.44-4.56-4.65.78-9.75,3.88-13.21,7.23-2.55,2.48-3.8,4.71-7.07,5.66a12.2,12.2,0,0,1-7.08-.31c-5.16-1.69-5.65-5.3-9.74-6.45-2.43-.68-3.47.26-9.28,1.89-9.37,2.63-9,.85-19.33,3.46-6,1.51-8.28,2.65-11.48,1.41-1.65-.64-2.11-1.36-5.81-4.24-2.33-1.81-4.28-3.15-8.18-5.82-6-4.13-9-6.19-12.26-7.39a36.35,36.35,0,0,0-9.27-1.88c-9.91-1.19-14.58.58-20.13-2.83a17,17,0,0,1-2.82-2.2,77.25,77.25,0,0,1-34.43-33.64l22.32-27-29.24.94-15.09-12.1-26.25-1.89c0-7.3-2.22-10.92-4.24-12.89-2.82-2.73-4.92-1.94-10.22-5.66-4.32-3-3.6-4-8.18-7.23-4.16-2.91-4.64-2-9.74-5.34-4.82-3.15-5.58-4.73-7.86-4.56-2.73.2-4.9,2.71-6.76,4.87-2.34,2.72-2.21,3.93-4.25,5.5-1,.77-2.52,1.63-6.28,2.2-5,.77-10.62,1.62-15.57-1.1-3.58-2-2.17-3.24-8.17-9.27-3.33-3.34-6.84-6.8-12.42-8.65a30.69,30.69,0,0,0-7.7-1.25c-6.41-.57-12.43-1.11-14.93,2.2-1.06,1.39-.38,2-1.58,4.87s-2.93,4.67-5.5,7.23a48.35,48.35,0,0,1-12,8.65c-3.26,1.68-4.34,2.83-6.13,2.67-2.77-.26-3.69-2.55-5.81-2.52-3,0-5.23,4.79-6.13,6.61-3.94,7.9-11.77,13.18-17.61,19.8-9.13,10.35-13.69,15.53-16.35,18.08-1.58,1.52-7.19,5.93-18.39,14.78-6.81,5.38-14.81,9.24-21.22,15.09a12.68,12.68,0,0,1-14.78,3c-4-1.52-4.23-3.22-7.39-4.87-2.66-1.39-3.48-.7-12.89-1.41-9.61-.74-11.14-1.64-11.94-2.2a27,27,0,0,1-6.13-6.29c-1.42-2-2-3.43-2.52-3.3-1,.23.76,4.93-.78,10.69-1.27,4.73-3.4,5.21-3.46,8.64-.07,4.24,3.11,7.49,4.56,9,5.28,5.39,12.64,6.33,15.09,6.6,6.73.77,9.75-1.19,11.94,1.1,2,2.08,2.1,6.4.16,8.34-2.13,2.12-5.25-.13-15.72-1.73-10-1.53-13.45-.44-16.82-3.78-2.43-2.41-2.41-4.76-4.56-5.18s-3.4,1.8-9.11,6-8.43,4.86-10.69,5c-1.07.08-4.07.31-5-1.26-1.08-1.74,1.17-4.35.15-5.34-.59-.57-1.86-.18-4.4.63-3.08,1-3.12,1.5-4.4,1.57a6.9,6.9,0,0,1-6.13-3.62c-1.19-2.39.25-4.08-.94-5.66s-4.06-1.37-6.29-1.25c-12.22.61-16-3.55-19.81-.32-1.38,1.18-1.92,3-3,6.76-2.19,7.61-1.45,13.9-2.36,14-.65.07-.87-3.14-3.78-5.5a5.27,5.27,0,0,0-2-1.26c-2.72-.69-4.63,2.45-10.37,5.66-2.55,1.42-4.7,2.59-6,1.73s-1-3.88-.94-4.4c.56-4.06,3.75-5.78,3-7.55-.5-1.15-2.27-1.38-2.52-1.41-3.75-.49-7.1,4.41-8.17,6-1.18,1.72-.82,1.75-2.52,4.4-1.86,2.91-2.85,4.46-4.56,5.51-1.44.89-2.85,1.08-6.6,1.1-5,0-8.32,0-11.16-.47-12.06-2.19-24.45-15.44-33-19.5-1.08-.51-2.92-1.26-4.25-.47-1,.6-1.32,1.87-1.57,3.46-.85,5.56.86,7.59-.31,9.12-1,1.34-3,.56-10.22,0-8-.62-9.5,0-12.58-1.58-.15-.08,0,0-5.34-4.24-5.63-4.47-6.18-4.85-7.39-6.13-1.81-1.92-1.93-2.49-3.3-3.3a11.35,11.35,0,0,0-6.29-1.42c-2.78.18-3,1.22-4.87,1s-2.19-1.47-5.34-3.46c-2.46-1.55-4.38-2.76-6-2.2-.65.23-1.69.91-3,6.29-1.18,4.9-1,7.28-2,12.89-.69,3.77-1.06,5.69-2,6.76-1.49,1.62-3.28,1.78-11.63,2.2-10.61.52-12.84.51-14.47-1.26-1.79-2-.89-3.94-2.83-5-2.83-1.6-7.35,1.18-8.48,1.88a22.49,22.49,0,0,0-3.93,3.31c-2.54,2.25-4.08,2.2-11.95,4.87-8.3,2.81-12.45,4.22-15.41,5.5s-3.85,1.83-5.34,1.57c-3.9-.67-5.39-5.64-9.43-5.5a8.91,8.91,0,0,0-1.57.32c-7.17,1.6-6.9,1.47-9.28,2-7.17,1.71-9,2.75-15.4,4.24-7.31,1.7-7.08.85-10.38,1.89-13.16,4.16-15.88,17.52-30.18,23.11a11.93,11.93,0,0,1-4.87,1.1c-5.75-.16-7.88-5.43-15.41-8.49a28.71,28.71,0,0,0-7.07-1.73c-9.24-1.47-13.12.9-26.88.94-5.67,0-7.85-.37-9.91-1.73-3.27-2.14-3.41-4.83-6.6-6-1.73-.62-3.22-.37-8.33,1.1-6.87,2-10.31,3-12.42,3.93-6.36,2.9-8.65,5.54-13.2,5.19a6.35,6.35,0,0,1-3.62-1.26c-1.76-1.39-1.63-3.4-2.36-6.6-.65-2.87-1.69-5.11-3.77-9.59a37.79,37.79,0,0,0-3.93-7.23c-4.1-5.54-9.58-7.95-12.58-9.28a31.13,31.13,0,0,0-11.79-3c-4-.16-6.3.66-12.57,2.36-10.43,2.82-7.44,1.45-24.68,5.81-4.17,1.06-8.52,1.41-12.58,2.83-2.75,1-5.42,2.16-6.44,1.1-.76-.78.1-2.06.31-4.24.4-4.14-2.12-5.49-4.4-12.11-.52-1.53,0-.47-2-8.33-1.68-6.63-2.13-7.83-3.3-9.12-.31-.33-3.39-3.62-7.55-3.45s-4.75,3.54-9.43,4.4c-3.66.67-8.31-.48-9.12-2.83-1.15-3.38,5.88-8.45,6.6-9,8.88-6.29,16.23-3.13,20.44-9.12,1.5-2.13,2.6-5.43,1.42-7.86-.71-1.45-2.23-2.59-8-3.93-10.75-2.48-13.12-.29-17.14-3-3-2-1.74-3.27-7.07-9.11a36.42,36.42,0,0,0-7.86-6.92c-4.31-2.67-7.58-2.93-12.42-4.09-7.63-1.81-13.48-3.21-18.08-6.76-7.29-5.63-10.44-15.92-13.36-25.46-1.35-4.41-2.19-8.47-6-11.63-2.42-2-3.92-1.91-9.75-3.93-10-3.46-15.6-5.42-17.13-9.75-1.67-4.72,2.52-9.44.47-11-1.62-1.24-5.49.76-6.13,1.1a11.68,11.68,0,0,0-3.14,2.35c-3.53,3.81-2.12,7.8-4.88,9.75-1.27.9-2.67.81-5,.63-2.12-.17-10.92-.85-16.66-8.33-1.51-2-4.65-6.06-3.77-10.53.35-1.83,1.1-2.29,5-7.55,3.63-4.87,5.45-7.3,6.28-9.27,1.15-2.7,1.5-5.68,2.21-11.64.54-4.59.29-5.29-.16-5.81-1.15-1.34-4.86-.95-12.26-.16a13.17,13.17,0,0,0-3,.63c-2.32.79-3.07,1.82-4.4,2.51-3.5,1.82-8-.23-9.59-.94-3.25-1.47-3-2.71-6.6-4.72-2.46-1.36-4.43-1.83-8.18-2.67a48.31,48.31,0,0,0-12.57-1.57c-3.36.09-6.74,1-13.36,2.83-8.38,2.31-12.66,3.51-17.14,6.13-4.74,2.77-7.11,4.16-8.33,6.45-3.81,7.15,3.6,14.08-.16,24.36a19.34,19.34,0,0,1-3.14,5.66c-1.63,2-3.08,3-8.17,6.29-5.45,3.55-8.19,5.35-8.81,6.44-1,1.7-1.07,4.46-1.26,9.91-.22,6.83.36,7.62-.62,9-1.86,2.52-5.88,2.39-13.68,2s-11.66-.53-14-2.2c-4.5-3.24-4.87-8.38-10.85-10.53a14.48,14.48,0,0,0-2.51-.63c-13.28-2.45-21.35,2.42-28.61-2a34.36,34.36,0,0,1-5.66-4.87c-3.39-3.32-4.28-5-6.92-6.29a13.33,13.33,0,0,0-6.29-1.1c-17.3.19-21.4,1.15-26.56-1.1-4.25-1.85-2.8-3.07-7.55-5.34-6.3-3-8.93-.9-21.22-1.73-11.07-.75-16.69-3-20.12.31a11.83,11.83,0,0,1-4.56,3.3c-1.84.68-2.87.43-5.34.79-3.45.5-4.31,1.42-6.45,1.89-4.6,1-10.4-1.14-13.67-4.72-3.75-4.1-2.74-8.51-6-9.43-1.37-.39-3,.11-6.29,1.1a35.18,35.18,0,0,0-4.55,1.73l-48,42.91c-5.6-10-12.25-13.44-15.09-14.62a47.53,47.53,0,0,0-13-3.3,60.32,60.32,0,0,1-8.17-1.1c-5.13-1-5.83-1.87-6.13-2.36-1.51-2.42,1.14-5.5-.79-7.86a3.65,3.65,0,0,0-2-1.25c-2.11-.4-3.1,1.76-6.76,3.61-1.82.92-4,2-6.6,1.57-1.66-.3-2.14-1-4.4-1.57a13.9,13.9,0,0,0-4.41-.31l-34.26-16.35a78.62,78.62,0,0,1,3.45-19.65A64.27,64.27,0,0,1,587,974.55a60.07,60.07,0,0,1,4.25-5.66A362.38,362.38,0,0,1,617,941.53c16.58-15.61,24.89-23.45,26.09-25.15a87.12,87.12,0,0,0,13.68-31.75c1.24-5.88,1.32-9.36,1.26-34.11-.06-21.11-.09-31.66-.16-33.17-.14-2.82-1.61-30.11-7.7-52a105,105,0,0,0-6.76-18.39,90.94,90.94,0,0,0-4.88-9.12c-2.07-2.93-3.64-4.31-3.14-5.5.68-1.64,4.14-.31,8.49-2.2,3.38-1.48,7.26-4.88,6.76-8-.37-2.25-2.85-3.53-3.93-4.09-4.57-2.35-11.16-1.35-12.42,1.57-1,2.23,1.69,4.38.47,6.61-1.09,2-4.26,2.18-4.56,2.2-6.29.3-13.64-9.75-16.19-19.81s2.21-10.51.94-23.89c-.91-9.7-3.57-11.21-7.38-30-1.53-7.51-.82-5.91-2.05-11.47-4.55-20.74-9.45-21-10.37-33.8-.36-4.92,0-9.38-3.15-12.1-2.58-2.21-5.42-1.5-8.17-4.25-2.46-2.45-2.78-5.61-3.14-7.86-2.19-13.55-9.17-15.64-10.54-28.61-.49-4.64.5-3.53.79-12.89A126.83,126.83,0,0,0,567.52,510c-2-8-3-7.94-7.07-19.8-8.52-24.71-7.15-33.39-16.35-53.29-4.2-9.09-6.8-12.28-7.86-13.52-10-11.68-23.82-15.16-27.51-16-16-3.78-20.92,2.42-29.71-3.77-4.24-3-6.82-7.06-13.52-8.65-2.38-.56-4.78-.63-9.59-.78-6.5-.2-9.43.18-12.26.16a40.15,40.15,0,0,1-18.71-6c-11.16-6.89-14.41-20.23-17.44-32.69-5.15-21.14.25-25.79-6.76-39.46-5.31-10.35-14.72-20-21.07-18.39-2.64.66-4.12,3.11-9.59,4.4a19.89,19.89,0,0,1-7.54.47c-5.64-1-8.87-5.91-12.58-11-3.85-5.3-9.33-11.44-20.28-23.74a70.24,70.24,0,0,0-14.62-12.1,17.26,17.26,0,0,0-7.38-2.83,18.12,18.12,0,0,0-10.22,2.2c-5.52,2.64-16.54.54-38.36-3.78-21.54-4.25-20.39-5.24-26.25-5-6,.23-11.54,1.43-18.7-1.25-2.67-1-3.6-1.8-9.91-6.13-12.37-8.5-18.7-12.81-25.15-15.72-5.41-2.44-8.91-4-14.15-5-8.53-1.65-14.13-.32-18.55-4.56-1-.93-2-2.25-3.93-2.67-2.26-.51-4.37.51-7.54,2.51-7.95,5-8.23,7.07-10.85,7.23-2,.12-4.16-1-10.69-9-5.73-7-8.59-10.5-11-15.09-7.13-13.55-3.95-20.65-10.06-39.93a71,71,0,0,0-5.5-14.14A38.74,38.74,0,0,0,83,136.53c-4.94-6.15-10.51-5.22-23.73-10.21-3.05-1.16-.91-.51-21.22-9.91-5.71-2.64-7.6-3.87-11.64-5.34-3.23-1.18-4.89-1.53-14.3-4.4C4.44,104.32,2,103.48.67,101c-.28-.52-.83-1.67-.63-6.92A57.57,57.57,0,0,1,2.25,79.16a66.81,66.81,0,0,1,4.4-11.48C15,50.61,19.4,46.8,24.57,35.46c7.43-16.3,4.63-22.21,11.79-27,4.35-2.94,5.09-.55,19.65-3C72.5,2.67,78.33-1.52,90.9.56a61.21,61.21,0,0,1,6.61,1.57c14.6,4,17.44,8.05,27.35,11.16,9.41,3,18.3,2.89,26.25,2.83,5,0,11.4-.43,19.18,2.2,5.57,1.89,8.06,4.05,9,4.88,4.4,4.08,3.46,7,6.76,9.9,5.09,4.42,13.42,2.66,18.55,1.57a46.81,46.81,0,0,0,17.76-8.33c5.69-4.11,7.15-6.85,14-10.53,3.61-2,8.48-4.51,10.85-2.67s0,5.86,3,9.74c.49.62,1.39,1.6,5.66,3.62a48.06,48.06,0,0,0,10.38,3.93c13.11,3.37,15,11.23,28.45,13.52,5.09.86,14.88,1.44,17,1.57A64.69,64.69,0,0,1,321,47.09c4.63,1,6,1.79,6.91,3,.45.57,1,1.63.95,7.07-.08,6.93-1,7.47-.16,8.8,2.26,3.39,9.08.8,11.16,4.56.28.51.12.49,1.42,3.93a29.42,29.42,0,0,0,1.41,3.46c.59.95,1.25,1.58,4.56,3.93a32.85,32.85,0,0,0,4.24,2.83c2.25.57,3.4-.76,8.34-2.83,4.6-1.93,7-2.91,9.9-2.36a11.18,11.18,0,0,1,5.5,3c2.8,2.61,2.52,4.8,4.4,7.86,2.45,4,6.22,5.64,10.85,7.7,5.14,2.29,10,4.45,13.36,2.36s1.81-6.44,5.35-8.33c1.13-.61,4.23-.1,10.37.94,4.7.8,6.17,1.24,7.7,2.36,1.83,1.33,1.61,2.07,3.62,4.09,1.38,1.39,4.66,4.68,8.64,4.87,4.37.21,5.76-3.49,9.44-2.52,2,.54,3.44,2.17,4.55,3.46,2.2,2.55,1.78,3.84,3,5.19,4,4.55,15.94-1.91,18.24,1.57,1,1.54-1.06,3.15,0,6.76a8.62,8.62,0,0,0,3.77,5c1.14.61,2.87,1,10.22-1.41,6.91-2.31,10.37-3.47,12.1-5.82,2.83-3.84,1.08-7.18,3.62-8.65,3-1.72,8,1.45,10.37,3.46,2.84,2.44,4.13,5.28,6,9.43,2.1,4.73,1.87,6,3,8.49,3,6.81,10.07,10,20.44,14.62,8.64,3.88,9.74,2.94,15.09,6.45,4.83,3.16,4.88,4.55,10.69,8.33,5.64,3.68,6.58,3,12.57,6.92,4.47,2.91,7.21,4.7,10.06,8,4.45,5.16,4.24,8.29,7.39,9.12,4.16,1.09,9.06-3.17,9.75-3.77,3.39-3,3.58-5.61,5.66-5.66s4.82,2.74,6,5.19a7.35,7.35,0,0,0,1.73,2.83,5.74,5.74,0,0,0,3.14,1.41c3.89.33,5-6.28,11.32-8.8a11.21,11.21,0,0,1,6.76-.63c3.59.89,3.69,3.25,7.86,6.44,4.6,3.52,6.35,2.09,14.15,6.76,3.52,2.11,3.17,2.41,4.87,3,6.89,2.34,13.83-2.14,14.62-2.67a21.63,21.63,0,0,0,5.82-6c4.76-6.73,3.88-11.71,6.76-12.41,2-.51,4.33,1.59,7.54,4.55,3.53,3.26,2.79,4.09,5.19,5.82,4.51,3.26,8,1,11.32,4.4,2,2.08.93,3.18,2.83,4.72,3.32,2.7,9.83,1.91,14.14-.47,1.92-1.06,2.74-2.07,4.88-2.36a8.44,8.44,0,0,1,6,1.41c1.07.81,1.12,1.34,3.77,5.82,2.07,3.48,2.43,3.82,2.83,4.09,1.47,1,3.55,1,8-.48,6.26-2.09,8.61-4.34,14.15-6.91a41.47,41.47,0,0,1,9.27-3.3,52,52,0,0,1,10.22-1c7.14-.24,9.23.37,13-1.1,1.34-.51.88-.51,4.56-2.35,5.53-2.78,8.3-4.17,9.74-4.25,4.88-.26,5.53,4.29,13.83,6.92a19.71,19.71,0,0,0,8.18,1.26c6.27-.57,7.69-4.43,13.2-4.25,4.05.14,5.09,2.28,7.71,1.26,2.24-.87,2.18-2.72,5.34-6.6a26.18,26.18,0,0,1,6.76-6.13c2-1.22,4.78-1.88,10.22-3.15,7.67-1.79,9.33-1.52,10.37-1.26a13.75,13.75,0,0,1,6.29,3.78c2.33,2.3,2.3,3.73,6.6,12.1a27.31,27.31,0,0,0,2.83,4.87,20.34,20.34,0,0,0,7.08,5.51c17,8.68,18.72,11.42,27.82,13.36,7.92,1.68,6.87-.35,12.73,1.41,4.86,1.46,17.84,6.53,22,14,.42.76,1.67,3.18,3.3,3.15,1.15,0,2-1.27,2.52-2.05,1.77-2.65,1.16-4.47,2-7.39A15.41,15.41,0,0,1,999.5,207a19.47,19.47,0,0,1,7.38-4.09c5.32-1.84,6.78-.64,15.25-2,5.82-1,5.9-1.66,8.65-1.42,4.15.37,7.57,2.28,10.53,3.93,5.29,3,5.51,4.45,7.86,4.4,3.83-.07,4.58-4.08,9-4.4a9.76,9.76,0,0,1,7.07,2.68c2.46,2.33,1.9,4.57,4.56,6.75,1.18,1,2.42,1.45,4.88,2,9.89,2.41,15.18.87,16.5,3.46.63,1.23-.48,1.77-.47,6,0,2.89,0,4.33.63,5.34,2.7,4.43,13.84-2.11,23.26,3.46,2.25,1.33,1.93,1.89,6,4.56,4.28,2.84,6.54,3.47,9.11,6.45,1.59,1.82,2.61,3,2.68,4.71.14,3.62-4.21,4.46-6,9-2,5.22,1.1,11,1.89,12.42,1,1.8,1.74,2.44,9.12,9.43,6.15,5.84,5.49,5.26,6.28,6a121.23,121.23,0,0,0,20,14.46c11.21,6.45,13.78,5.38,18.23,10.53,4.25,4.9,2.7,6.77,6.92,11,1.5,1.5,5,4.62,18.71,8.34,6.72,1.82,10.14,2.23,15.4,3.3,23.33,4.74,23.23,10.41,35.21,9.9,9.42-.4,12.66-4,22.17-2,3.58.75,6.26,2,11.63,4.4,12.54,5.68,12.74,8.66,19.81,9.74,4.41.68,6.74-.11,12.26,1.58a25.61,25.61,0,0,1,7.54,3.3c1.36.95,2.14,1.74,5,5,7.81,8.84,8.49,10.19,9,11.32,1.77,4.22.24,4.69,1.89,7.54,2.68,4.63,9.29,7.9,15.09,7.07,4.27-.61,5.83-3.12,9.9-2.35a10.77,10.77,0,0,1,5.19,2.67c4.58,4.24,2.86,10.18,6.29,11.47,1.48.57,2-.48,4.72-.31,3,.19,4.74,1.56,7.38,3.14,6.72,4,8.88,3.29,15.41,7.86,2.37,1.66,3.46,2.73,3.77,4.25.61,3-2.14,5.79-1.26,6.6.45.41,1.49,0,2.36-.31,2-.74,2.6-1.91,3-1.73s.48,2.56-1.89,8.8c-2,5.21-3.61,9.54-7.23,14.62-6.83,9.6-15.13,14-20.28,23.26-.68,1.24-1.6,3.07-.94,4.72,1.09,2.72,5.09,1.51,9.12,4.87a15.55,15.55,0,0,1,5,8.33c.59,2.83,0,4.49,1.1,5.19s2.31-.43,6.91-1.1C1411.5,490.94,1412,490.89,1413.08,490.78Z"/></g></g></svg>