<svg xmlns="http://www.w3.org/2000/svg" viewBox="0 0 1846.8 2501.4"><g id="Layer_2" data-name="Layer 2"><g id="Solid_Map" data-name="Solid Map"><path d="M1845.23,1278.94c-1.47,4.92-2.52,4.63-4.33,9.43-2.81,7.49-1.44,11.35-2.47,21.48a100,100,0,0,1-3.55,17.46c-3.31,10.93-5.81,11.18-10.51,23.65-5.14,13.61-2.66,14.63-7.11,21.32-4.91,7.39-8.64,7.2-13.14,15.92-1.93,3.74-4,7.68-4.63,13.29-.63,5.21.5,7-1.08,8.81-3.89,4.54-15.82.15-17.93-.62a39.75,39.75,0,0,1-9.58-5.25c-5.35-3.75-8-5.62-8.5-8.35-.92-5.35,6.39-8.44,5.1-13.91-.53-2.26-2.46-4.61-4.64-4.94-3.78-.58-6.29,5.23-9.11,4.32-1.81-.58-2.57-3.53-2.63-5.4-.1-3.2,1.8-4.4,4.33-9.74,2-4.33,3.07-6.5,2.47-8.5-.78-2.58-3.29-2.88-10.82-6.64-9.68-4.84-9.46-6.3-13.13-6.49-4.53-.24-6.13,1.91-11.75,1.08A24,24,0,0,1,1716,1344c-5.18-2.21-5.51-4.13-9.58-5.56-1.93-.68-5.46-1.92-8.81-.46-4,1.74-5.3,6.27-6.34,9.89-.73,2.55-2,7.17,0,9,1.89,1.64,4.69-.78,6.65.77,2.83,2.23-1.09,8.74,2,11.75,1.19,1.16,2.06.45,6.49,1.54s7.61,1.87,9,4.17c1.95,3.34-.23,9.22-4,11.9-1.73,1.23-3.36,1.48-11,1.55-13.36.12-16-.58-17.92,1.54-2.75,3-.06,7.55-3.4,10.2-1.39,1.1-2.44.8-6.19,1.55a55.85,55.85,0,0,0-9.58,3.09c-8.72,3.65-8.08,7.53-14.21,8.5a20,20,0,0,1-9.74-1.08c-2.85-1.43-2.67-2-4-2-3.54,0-4,5.51-9,7.72-4.28,1.92-6.92-.87-9,1.09-2.9,2.77,2,8.83-.93,14.37-1.78,3.38-5.46,4.66-8,5.56-8,2.78-10.74-1.8-19.93.46-5.1,1.26-6.13,3.13-10.35,2.79-3.55-.3-5-1.8-8.66-1.39-2.88.32-3,1.39-6.8,2.78-5.5,2-7.14.44-13.75,2.47-2.76.85-6.56,2-6.8,4.17-.16,1.42,1.43,1.82,2.16,3.86,1.05,2.9-.74,6-3.4,10.51-1.84,3.16-2,2.58-6,8.5-2.94,4.29-3.09,4.92-4.18,5.26s-2.72.31-11.59-6c-4.34-3.11-5.67-4.35-7.26-3.86-2.08.64-1.41,3.29-4.17,6-3.36,3.33-7.06,2.1-8.19,4.79-1.06,2.51,1.58,4.93.31,6.34-1.12,1.24-4.09.38-5.41,0-3.1-.89-3.27-2.11-4.64-2.16-3.37-.13-5.37,7.22-11.59,17.92-2.94,5.07-4.41,7.6-5.41,8.19-6.7,4-14.79-3.2-29-.15-1.09.23-2,.47-2.47.62,1.29,3.16,3.56,10.12.31,15.6-.95,1.61-3.17,3.26-7.57,6.49-6.2,4.56-9.34,6.83-11.44,6.65-4-.35-4.07-4.44-10.82-9-2.72-1.83-7.45-5-13-4.33-2.79.34-5.62,2.34-11.28,6.34-4.37,3.09-6.56,4.64-8.5,7.26-2.25,3-2.49,5-4.17,5.25-2.58.46-3.61-3.75-8-5.25-2.26-.77-3,0-10,1.08-8.16,1.27-8.76.51-12.67,1.7a26.64,26.64,0,0,0-9.89,5.25c-2.13,1.84-1.88,2.29-8.35,11.59-3.67,5.28-5.42,7.54-6.18,8.5-2.72,3.46-4.58,5.49-5.72,6.8a53.46,53.46,0,0,0-9.89,17c-2.09,6.14-4.09,12-2.93,19,.3,1.82.9,4.24-.16,4.94-1.31.89-5.08-1-6.8-4-2.5-4.45.95-8.7-1.7-11.44-1.64-1.7-3.44-.55-5.4-2.63-1.51-1.59-.94-2.78-2.17-6.18-.79-2.2-2.27-6.28-5.56-7.88-3-1.47-4.79.49-6.49-.93-3-2.49,1.4-9.56-1.55-12.2-1.17-1.06-2.06-.1-9.27-.16-4.55,0-6.36-.43-7,.62-.77,1.37,1.17,4.1,2.16,5.25,1.5,1.74,2.35,1.59,2.78,2.79.17.45.52,1.78-2,6-2.42,4.07-3.47,4-3.55,5.41-.15,2.61,3.55,3.8,9.74,8.81,4,3.2,7,5.67,9.11,9.73a24.33,24.33,0,0,1,2.63,9.59c.9,9.48-3.23,13.72-.46,17.15,1.56,1.93,3,.74,7.57,4,1.72,1.23,5.23,3.74,4.79,6-.32,1.66-2.5,2.06-2.47,3.71,0,1.2,1.18,2.09,1.7,2.47,2.42,1.84,5,1.26,7.72,1.55,3.07.32,5.09,1.66,9.12,4.33,4.49,3,4.37,4.38,11.13,9.58,3.47,2.67,4.8,3.29,6,3.71,3.13,1,4.19.24,7.27,1.54,1.44.61,4.36,1.84,5.4,4.64a7.77,7.77,0,0,1,.16,4.17c-.62,3.93-2.7,5.1-2.32,6.8.48,2.14,4.45,1,7.42,3.55,3.35,2.88,3.15,8.19,3.09,9.89-.15,4-1.61,5.28-5.87,13.91-4.06,8.21-6.08,12.31-6.8,15-1.09,4.07-1.37,7.41-4.17,9.12-2.19,1.33-3.55.23-5.41,1.7-2.91,2.28-2.79,7.41-2,10.51.54,2.16,1.45,3.48,3.09,5.87,3,4.32,5.49,8,9.73,9.12,3.37.89,4.67-.66,6.8.77s2.61,4.14,3.25,8c1.1,6.74-.44,9.25,1.7,11.74,1.76,2,3.33,1,5.25,2.94,2.66,2.72.8,5.94,1.86,13,.29,1.93,1.73,11.55,6.8,13.13,2.22.7,3.17-.77,4.79.16,2.64,1.51,2.48,6.81,2.16,14.52-.25,6-.82,6.86,0,9.12.41,1.12,1.51,3.58,7.57,7.88,7.5,5.33,8.72,3.63,12.06,7,5,4.94,2.67,9.11,8.19,14.06a20.19,20.19,0,0,0,8.19,4.33c6.61,1.87,8.81-.92,16.69-.47,2.7.16,10,.67,16.53,5.72a28.36,28.36,0,0,1,8,10.2,31.89,31.89,0,0,1,2.62,9.89c.87,5,7.81,10.3,19.94,21.17,3.3,3,5.72,5,6.34,8.5.45,2.53-.27,4.66,1.23,7.26a9.64,9.64,0,0,0,3.56,3.4c5.52,3.5,10.32,3.78,15.45,5.56a39.21,39.21,0,0,1,12.67,7.42c3.64,3.11,5.8,6.09,9.89,11.75a16.36,16.36,0,0,1,2.47,4.17c1.29,3.4.42,5.14.93,10.2.4,3.89.59,5.83,1.85,7.57,2,2.76,4.33,2.15,8.66,4.48,6.81,3.67,9,9.44,10.66,8.66,1.53-.71-.65-5.31,1.55-8,2.42-3,8.45-3,12.51-.93,1.55.8,1.86,1.42,5.57,5.72,7.41,8.6,7.6,7.8,11,12.36,3.1,4.19,3,5,4.94,6.18,3.81,2.34,6.44.46,10.2,2,1.9.79,3,2,8.35,11.9,7.7,14.18,6.94,14.32,9.42,16.85s5.14,4.34,4.64,6.33c-.43,1.71-2.69,1.34-4.79,3.71s-2.26,5.52-2.47,9.89a32.24,32.24,0,0,0,.31,6.18,36.43,36.43,0,0,0,2.31,8.35,31.54,31.54,0,0,1-1.7,24.1c-1.88,3.48-2.51,2.42-6.33,8.35-2.76,4.27-3.66,6.73-6.65,10.35-2.64,3.21-3.9,4.87-5.25,5.26-3.24.93-5.95-1.77-18.85-11.44a59.7,59.7,0,0,0-7.11-4.94c-4.9-2.73-9.72-5.42-14.53-4-2.56.74-4.64,2.86-8.81,7.11-2.45,2.5-3.68,3.75-4.32,5.1-2.39,5,1.18,7.69.61,15-.49,6.43-3.45,6.66-4.32,14.52-.64,5.76,1,5.58.31,10.36-1.49,10.89-10.59,17.83-11.13,18.23-2.84,2.1-3.75,1.86-6.8,4.48-4.41,3.8-4.4,6-7.42,8.66-1,.91-3.6,3-15.14,4.79-9.25,1.46-9.56.45-16.23,1.54-5.87,1-13.94,2.28-21.63,7.73a79.05,79.05,0,0,0-12.21,11.13c-3.19,3.68-3.61,5-5.87,5.87-5.42,2.15-10-2.5-14.22,0-1.77,1.06-1.83,2.42-3.4,5.41-2.35,4.46-4,4.74-16.69,17.3-3.57,3.54-7,7-6,9.59a2.64,2.64,0,0,0,.61.92c3.34,3.54,5,9.92,8,14.68,4.68,7.33,8.89,5,12.21,11.75,2.3,4.72.24,5.79,2.62,10.51,2.78,5.48,6.19,5.21,11.29,11.59,2.29,2.86,1.12,2.32,5.87,10.35,5.72,9.68,8.22,11.84,7.88,16.23-.15,2-1.08,3.67-2.94,7.1-2.74,5.07-4.6,6.39-9.89,13.6-4.7,6.43-5.55,8.56-5.41,11a9,9,0,0,0,2.32,5.88c3.62,3.6,8.37.22,18.39,2.93A24,24,0,0,1,1445,2373a17,17,0,0,1,7.73,10.82c.74,2.8,2.36,8.91,0,14.37-1.49,3.43-2.86,2.68-5.41,6.49-5.45,8.11-3.93,18.55-3.71,19.93.88,5.56,2.75,6.82,1.7,10.2-1.19,3.8-5.18,7.44-8.5,7-3.75-.55-5.36-6.18-8.19-5.57-1,.22-1,1-2,1.39-2.61,1-5.8-3-12.21-8.65-4.91-4.37-7.37-6.56-10.2-7.88-4.1-1.92-5.88-1.47-8.34-3.87-2.15-2.08-4.31-5.83-3.25-8.8.74-2.08,2.35-1.84,4.33-4.64.46-.65,2.7-3.83,2.32-7.11-.25-2.1-1.46-3.23-9-9.42-7-5.8-7.55-6.13-8.65-6.49-4-1.31-4.86.4-12.67.3-7.29-.09-8.79-1.61-11.44,0s-2,3.67-5.56,7.58a18,18,0,0,1-7.26,5.25c-5,1.74-11.72.8-15-3.09-1.35-1.6-.73-2-3.09-7.57-2-4.76-3.06-7.14-4.48-8.19-2.65-2-5.82-.82-16.85,2-13.75,3.52-16.83,3.81-18.23,2.16-1.19-1.38-1-4.17-.47-9.74.33-3.86.92-5.46,0-6.18-1.35-1.06-4.56.93-7.57,2.78-4.54,2.81-6.81,4.22-8.19,6.8-2.63,4.93-.76,10.64,0,13,2.25,6.92,6.68,9.5,5.41,12.21-.25.54-1,1.67-5.26,2.48a32.66,32.66,0,0,1-14.21-.62c-10.44-2.75-19.62-2.17-26.89-1.7a58.4,58.4,0,0,0-19.47,4c-5.22,2.12-5,3-9.43,4.63-7.36,2.68-13.82,2.28-21.94,1.7-14.46-1-18.16-4-22-.93-2,1.65-1.26,2.74-5.87,12.21-2.75,5.65-4.16,8.5-5.72,9.58-4.08,2.83-6.68-.18-17.15,1.7a35.94,35.94,0,0,0-10.51,3.71c-3.08,1.67-5.44,3-5.87,5.26-.63,3.32,3.45,5.72,2.47,7.57-.58,1.1-2.39.93-6.8,1.08-6.44.21-9.66.32-11.28,1.24-2.2,1.25-3.73,3.82-6.8,9-1.46,2.45-2.18,4.06-4.17,5.1-2.21,1.15-5.1,1.13-5.56.15-.68-1.42,4.25-3.82,3.71-7.11a3.69,3.69,0,0,0-1.7-2.47c-2.12-1.24-5,.53-8.66,2.17-1.07.47-4.32,1.5-10.82,3.55a85.23,85.23,0,0,1-15.6,3.24c-10,1.35-15,2-17.62-.61-2.74-2.82.06-5.61-2.78-11.44-1.66-3.41-4.46-5.88-10-10.82-4.14-3.66-6.74-5.35-6.33-7.26s3.42-1.79,4.48-4.48c.82-2.08.13-5-1.55-6-1.23-.78-2.57-.29-6.49.78,0,0-1.63.44-8,2-5.53,1.36-8.53,2.09-11.75,1.24-4.48-1.18-4.21-4.06-11.74-8.81a37.57,37.57,0,0,0-7.88-3.86c-4-1.38-9.26-3.16-12.67-.77-1.65,1.15-1.24,2.13-4.18,5.25a20.47,20.47,0,0,1-4.48,3.86c-5.9,3.48-13,1-14.83.31-2.72-1.06-4.86-1.9-5.87-4-1.94-4,2.17-8.54.46-10.19-1.17-1.14-4.59-.46-6.34,1.54-1.53,1.76-1.43,4.16.93,15,1.61,7.43,2.42,11.14,3.25,14.22,2.25,8.42,3.08,9.59,2.47,12.21-1,4.39-4.18,4.41-9,9.89-6.63,7.59-4.11,11.59-11.43,20.86a51.14,51.14,0,0,1-8.65,8.5,45.77,45.77,0,0,1-15,8.34c-4.27,1.34-14.39,3.73-16.23.47-.93-1.66.86-4.48,4.48-10.05,5.43-8.35,8.4-10.06,8.66-14.68,0-.31.26-5.9-2.63-7.42s-6.65,2.22-13.76,2.94a9.56,9.56,0,0,0-2.47.46c-1.45.5-2.25,1.18-5.56,3.56-1.78,1.27-2,1.43-2.47,1.39-1.66-.17-2.63-3-3.4-5.41-1.43-4.37-2.65-8.11-.78-10.82,1.38-2,2.89-1.21,4.49-3.24a9.24,9.24,0,0,0-.31-10.82c-1.92-2.18-3.38-.75-7.58-3.4-3.71-2.35-4.25-4.53-7.26-4.95-2.3-.31-2.75.86-4.48.31-2.56-.8-2.85-3.76-5.41-7.57a21.15,21.15,0,0,0-5.87-6c-6.07-3.67-10.24,1.74-17.15-1.39-.69-.31-8-3.71-9.43-9.89-.39-1.64-.48-3.92-2.16-4.94a4.94,4.94,0,0,0-3.87-.16c-4,1.24-4.53,5.09-9.42,11.44-2.88,3.73-4.61,5.92-7.73,7.26a15.1,15.1,0,0,1-10.2.47c-7.41-2.53-6.89-10.22-14.37-16.23-4-3.22-5.31-1.93-16.38-5.56-15.28-5-16.62-8.72-29.36-12.52-9.77-2.92-7.84-.4-21-3.55-12.71-3.05-20.78-6.9-34.62-9a30.7,30.7,0,0,0-13.29.47c-2.14.59-2.54,1-9.11,4-10.33,4.75-12.18,5.06-14.22,4.64-3-.61-6.54-2.81-6.95-5.56-.32-2.09,1.39-3.15,1.23-6.65a6.33,6.33,0,0,0-1.08-4c-2.12-2.54-6-.53-7.88-2.78-1.66-2,.55-4.95-.77-6-1.83-1.49-9,1.79-9.58,6.18-.58,4,4.5,6.48,3.55,8.34-1.09,2.14-9.59,2.26-13.44-2.78a10.82,10.82,0,0,1-.93-11.13c1.68-3.12,4.53-3.54,4.33-5.25-.26-2.22-5-1.46-8.35-5.56-1.7-2.1-1.53-3.62-4-5.88-1-.93-2.74-2.49-4-2-2.09.79-1.09,6.34-2.48,6.65-1.07.24-1.89-3-5.56-6.34-1.65-1.48-2.91-2.62-4.64-2.93-3.21-.57-5.19,2.26-10.35,5.87-7.73,5.41-9.47,3.38-13.29,7.57s-2.07,6.18-6.34,10.67c-4,4.15-6.66,3.7-7.88,6.95-1.77,4.73,2.34,10,2.94,10.82s4.67,5.87,10.35,5.56a11.5,11.5,0,0,0,4.48-1.39c5.74-2.61,6-5.49,10.82-7.73,1.07-.49,6.45-3,9.43-.62,1.35,1.08,1.65,2.7,2,4.64.24,1.34,1.05,6.86-2.63,11.44-1.25,1.54-3.11,3.86-5.41,3.7-3.22-.21-3.83-5-7.73-5.71-1.76-.32-3.16.4-5.4,1.54-3.5,1.78-9.17,5.29-8.5,7.57.51,1.77,4.37,1.35,5.25,4a3,3,0,0,1,0,2c-1,2.49-6.32,2.48-10.35,2.47-4.77,0-4.81-.75-9.27-.92-7.63-.31-8.67,1.63-11.9.15-1.74-.79-3.64-3.21-7.42-8-3.36-4.28-3.09-4.53-4.33-5.4-5.26-3.71-12.76-.94-13.6-.62s-2.87,1.2-7.88,5.72c-8,7.21-7.59,9.12-11.43,11.43-2.95,1.77-3.73,1-17.47,2-13.36,1-16.08,2-19.16-.31-3.83-2.91-2.46-6.65-6.49-8.81-5.11-2.74-12,.79-13.13,1.39-4.83,2.49-4.07,4.63-8.81,7.42-6,3.54-12.26,3.06-15.76,2.78-4.06-.31-9.81-1.53-9.89-3.24s6.18-2.45,6.33-4.95c.12-2-3.75-4.33-7.42-5.1-6.34-1.33-9.63,2.52-12.51.47-2.09-1.48-.76-3.75-2.94-10.05a39.84,39.84,0,0,0-5.1-9.73c-3.72-5.38-5.62-5.48-6-8.19-.59-4,3.26-5.21,5.57-10.82,2.84-6.92-1.06-9.8,0-20.86.63-6.64,2-5.18,3.71-14.68,2.12-11.86-.08-13.72,2.78-21,1.6-4.1,2.59-4.26,5.87-11.9,2.91-6.78,3.4-9.59,2.47-12.21s-2.09-2.17-4.48-5.71a26.58,26.58,0,0,1-4.17-11.6c-.43-4.23.71-4.74.93-11.74.17-5.42-.49-5.91-.31-9,.21-3.75,1.39-6.28,8.65-17.93,7.93-12.72,8.48-12.84,9.74-16.38,1.41-4,1.5-6,3.86-13,1.89-5.58,2-7.46,3.71-9.74,3.05-4,5.49-3.24,7.57-6.49,1.49-2.33,1.06-4,.31-14.06-.91-12.13-.63-14.52-.16-16.69.18-.82.36-1.45,3.87-9.89,5.21-12.53,5.55-12.88,6.33-15.61,1.27-4.38.57-4.07,2.32-15.14,1.43-9,2.18-13.59,3.71-17,2.53-5.63,6.07-9.56,9.27-13.13,3.59-4,4.2-3.77,8.81-8.81,4.33-4.74,6.49-7.11,8.35-10.67,3.35-6.43,1.52-8.29,4.48-11.28,3.88-3.91,7.54-1.23,12.67-5.56,3.08-2.6,2.2-3.93,6.33-8,3.82-3.79,5.21-3.3,7.58-6,3.22-3.73,2.47-6.78,4.32-13.45,1.78-6.38,4.43-10.67,7.58-15.76,6.13-9.91,13.29-12.65,12.2-15.14-.83-1.9-5-.61-13.13-1.86A57.63,57.63,0,0,1,447,1983c-4.85-2.33-9.16-5.83-17.77-12.83-6-4.86-9.11-7.83-12.67-7-2.29.56-2.47,2.16-6.18,3.71-1.27.53-5,2.07-8.81,1.23-5.06-1.1-5.06-5.19-9.73-6.49-3.68-1-4.89,1.17-11.13,2.16a35.59,35.59,0,0,1-15.92-1.39c-5.44-1.54-7.11-3.3-14.21-7.1-12.26-6.57-15-4-17.78-7.89-4.19-5.87.26-11.94-5.1-18.23a16.49,16.49,0,0,0-6.49-4.48,21.16,21.16,0,0,0-15.14-.16c-3.15,1.27-6.16,4.37-12.05,10.51-6.08,6.33-5,6.13-6.8,7.42-9.42,6.67-27.15,4.06-31.22-3.4-.78-1.44-1.55-4-3.86-4.79a6.37,6.37,0,0,0-5.41.93c-3,2-2.21,5-5.25,7.26-.5.37-3.1,2.31-5.26,1.54-2.86-1-2.31-5.81-5.72-16.68-1.56-5-2.44-6.42-3.4-7.58-2.8-3.37-6.59-4.75-8.8-5.56a26.58,26.58,0,0,0-8-1.55c-4.24-.23-7.62-.41-9.74,1.7-.41.42-1.05,2.09-2.31,5.41s-1.85,4.87-2.32,6.34c-1.63,5.09-1.16,5.48-2,6.18-2.74,2.24-8.91-.78-13-2.78a26.57,26.57,0,0,1-6.18-3.71c-2.64-2.24-4.67-5.17-8-14.84-4.19-12-3.11-13.43-6.18-17.3-2.63-3.33-3.28-2.12-9.43-8-5.2-5-8.19-8-8.34-12.05-.14-3.74,2.26-4.2,2-8-.18-2.68-1.41-3.22-6.18-10.51-3.53-5.37-3.63-6.25-5.88-8.65a33.78,33.78,0,0,0-6.18-5.1c-5.66-3.89-9.77-6.72-15.14-6.8-4.69-.06-6.47,2-8.81.62s-2.55-4.41-2.94-9.43c-1.67-21.82-.27-25,.62-26.73,2.08-4,2.89-2.53,7.11-8.35,6.27-8.63,4.61-11.95,9.74-20.09,6.12-9.72,10.44-8.08,13-15.76,2.12-6.42.71-12.44-.47-17.46-1.31-5.62-2.44-10.43-6-11.9-3.77-1.55-5.83,2.42-12.37,1.55-.4-.06-7.92-1.15-9.58-5.72-.7-1.93,0-3.47-.92-4-1.65-1-4.28,3.55-7.27,2.94-2.13-.44-2-3-6.33-8.35a27.8,27.8,0,0,0-3.71-4c-3.89-3.35-6-2.94-8-5.56-.91-1.17-1.33-3-2.16-6.64-1.7-7.42-.86-9.17-2.63-10.82-2.41-2.27-5,0-8.34-2-2.73-1.66-3.36-4.67-5.1-12.36-3.68-16.2-3.49-14.4-3.71-16.07-.7-5.38-.41-11.16.15-22.72.46-9.28,1-12.28,3.4-14.37,1.58-1.37,3.57-2,4.79-4.48,1-2.06.62-3.57.62-6.19,0-1.35,0-9,3.86-13.29,1.87-2.08,2.65-1.15,8.5-4.17s9.12-4.7,10.82-8c2.62-5.14-.53-10,2-11.59,1.93-1.24,3.66,1.6,8.5.92,2.89-.4,3.28-1.55,7.42-2.16,2.54-.38,3.23-.06,4-.77,1.74-1.58,1.44-5.84-.47-8.81-2.39-3.72-5.69-2.88-7.57-6.65a10.88,10.88,0,0,1-.77-6.33c.41-3,1.62-3.36,2.47-6.49.28-1,.39-1.88,0-9.12-.27-5-.42-7.54-.77-8.5-.31-.81-2.13-5.45-6.65-7.57-.79-.37-2.35-1-12.36-.62-6.62.25-7,.42-8.19-.15-3.69-1.72-5.55-6-7.42-10.36a12.18,12.18,0,0,1-1.23-3.86c-.39-3.76,1.57-6.77,2.93-8.81,2.37-3.54,3.44-3.17,7-7.42,2.75-3.32,4.23-5.1,4.63-7.88.1-.66.82-6.25-3.24-9.12a8.46,8.46,0,0,0-8.66-.46c-3.78,2.11-4.35,7.14-5.1,7s.85-4.68-.31-10c-.77-3.59-2.39-5.9-5.41-10.2-3.39-4.83-5.08-7.25-8.34-8.65a30.88,30.88,0,0,0-7.42-1.7c-4.55-.71-6.18-.93-6.18-.93-3.09-.41-3.39-.37-3.86-.77-2.42-2-.56-8.25-.16-9.58,1.15-3.81,2.63-5.17,1.86-6.49-.66-1.12-2.07-.72-5.38-1.66-2.89-.83-7-2.6-6.83-3.91.1-.94,2.29-.67,5.25-2.47a13.16,13.16,0,0,0,5.26-5.72c1.61-3.76-.34-5.72,1.54-7.72,1.73-1.84,5-2,6-2,1.94-.08,2.19.4,3.09.15,3.21-.87,5.8-8.48,3.4-14.37-1.87-4.58-6.88-2.79-10.35-8a20.26,20.26,0,0,1-2.78-8.49c-.82-5.55.55-8.34-1.24-9.74-.89-.7-1.67-.34-6.49.31a73.94,73.94,0,0,1-10.66.77c-3.49,0-5.25-.09-6.19-1.08-1.56-1.65,0-3.52-1.23-8.34a17.67,17.67,0,0,0-2.63-6c-1.6-2.29-2.59-2.41-2.94-3.87a6.51,6.51,0,0,1,3.71-6.79c4.49-1.62,8.09,6.13,13.45,5.1,2.48-.48,2.83-2.36,8.19-9.43,5-6.6,7.5-9.9,11.59-13a65.87,65.87,0,0,1,11.9-7.11c2.93-1.28,4.23-1.53,5.87-3.09,3.71-3.54,5-9.91,2.94-11.75-1.49-1.29-4.75-.36-7.11.31-2.87.82-4,1.86-5.72,1.39a5.77,5.77,0,0,1-3.25-2.78c-1.8-3-1.09-6.41.47-12.67,2.15-8.64,3.23-13,3.86-14.22,2.13-4.22,2.94-3.5,10.66-13.44,5.83-7.49,4.94-7.35,7.89-10.35,4.28-4.37,6.9-5.44,7.72-8.81s-1-5.68-2.16-9c-4.77-13.32,8.35-22.6,3.09-34.61-.41-.94-2.39-3.36-6.34-8.19-5.85-7.16-12.36-14.37-12.36-14.37-5.12-5.67-6.67-7.08-7.26-10.2a19.64,19.64,0,0,1,.31-8.5c.84-2.82,2-3.73,1.7-5.87-.27-2-1.67-4.29-3.71-4.95s-3.17,1-5.57.31a6.82,6.82,0,0,1-3.7-3.09c-1.73-2.69-.74-4.54-1.4-7.73-1.09-5.32-5.65-8.89-7.72-10.51-4.24-3.3-7.68-3.65-7.73-5.71,0-1.63,2.1-1.83,3.4-4.79a10,10,0,0,0,.16-7.11c-1.18-2.88-3.17-2.76-3.87-5.1-.92-3.09,1.61-6.4,2.63-7.73,2.53-3.3,4.44-3,10-7.42,4.56-3.54,3.81-4.11,5.72-4.79,3.26-1.15,5.1.61,16.38,4.79,6.07,2.26,6.9,2.25,10,3.87,2.11,1.08,2.5,1.48,8.19,4.79,6.4,3.73,8.38,4.67,10.2,3.86,1.19-.53,2.3-1.81,2.16-2.93-.1-.84-.92-1.8-8-4.18-4.88-1.63-4.33-1.12-6.49-2-4.47-1.84-4.34-3-9.42-5.25-2.51-1.11-3.35-1.19-4.18-2.32a6.35,6.35,0,0,1,.16-7.26c2-2.43,5.87-1.94,9-1.55,4.29.55,5.11,1.81,12.52,4.48a60.3,60.3,0,0,0,10,3.1c4.84.87,6.48.29,8.66,2s2.06,3.68,4.79,5.26c.61.35,3.37,1.95,5.1.93,2.71-1.61-.14-7.91,2.32-9.59,2.67-1.81,7.4,4.73,13.75,3.25,1-.24.77-.38,5.72-3.4,2.15-1.32,4.94-2.89,10.51-6,5-2.84,7.58-4.27,8.49-4.63a32.72,32.72,0,0,1,11.29-2.48c6.8-.18,7.85,2.23,12.36,1.4,1.31-.25,3-.78,10.66-7.58,12.31-10.9,12.38-13.4,11.9-14.52-.68-1.59-2.8-1.25-3.55-3.25-1-2.63,2.15-4.69,1.39-7s-3.95-1.58-9.43-3.71c-4.11-1.6-3.44-2.36-11.44-6.95-5.9-3.4-7.58-3.74-7.72-5.26-.21-2.24,3.31-3.5,9-8.65,4.91-4.47,5.64-5.41,6-6.34,1.83-4.36-.67-7.18,1.23-9.12,1.42-1.44,3.23-.32,11.13-.3,5.83,0,7.43-.6,8.19-.93,2.7-1.19,4.11-3.08,6-5.57,9.42-12.25,3.46-3.36,13.29-16.68,4.71-6.4,4.92-6.87,6.33-7.89,4.15-3,6.93-2.24,10.67-5.87,1-1,4.27-4.15,3.55-7.11-.55-2.27-2.9-2.18-3.86-4.63s.69-3.94,2.16-8.81.32-5,1.85-11.28c1.37-5.58,2.26-5.41,2.79-9.43.39-3,.95-7.28-1.39-10.82-1.59-2.39-2.74-1.77-4.79-4.48-1.47-1.94-1.65-3.27-3.25-8.81-2.58-8.92-3.32-9.63-4-9.73-1.43-.21-2,2.28-5.72,5.41-2.27,1.89-4.38,3.66-7.1,3.86-3.37.25-4.44-2.13-11-4.94a38.52,38.52,0,0,0-7-2.32c-8-1.79-9.76,1-14.37-1.24-3.55-1.69-3.31-3.71-8-5.72-3.29-1.39-4.18-.74-5.41-2-2.67-2.75.68-6.77-.92-12.82s-6.51-8.48-5.57-9.89c.77-1.15,3.91.68,9.89.46,2.15-.08,7.17-.26,7.73-2.16.48-1.64-2.78-3-7.73-9-3.89-4.67-4.09-6.47-4-7.58.18-2.72,2.27-4.76,3.24-5.71a14.27,14.27,0,0,1,5.41-3.25c5.49-2,12.63-4.57,22.87-3.4,4.35.5,3.13,1,9.12,1.86,5.3.78,9.42.78,17.46.77,8.28,0,9.46-.37,10.66-1.24,4-2.87,4.47-8.62,4.64-10.66a20.09,20.09,0,0,0-1.55-9.43q1.78-24.5,3.56-49l25.5-48.06q.3-18,.61-36c-3.38-3.22-7.08-7.71-6-11.75.66-2.54,2.58-2.49,5.56-6.49.51-.68,6.63-9.09,3.71-15.29-.61-1.29-.83-.84-1.86-2.63-.22-.4-4-7.25-1.23-12.36,1.26-2.31,2.45-1.67,3.55-4,1.34-2.86-.12-4.41.62-8.35.58-3.09,1.6-2.76,2.78-6.49.44-1.37,2.7-8.46-.31-10.81-.42-.33-1.89-1.32-5.25-.31l-42.34-2q.15-18.71.31-37.4l8.34-20.09c2-2.91,4.72-5.8,8.19-6,2.91-.19,4.76,1.58,5.56.78,1.49-1.49-5-7.24-4.17-15.3a16.19,16.19,0,0,1,1.55-5.26c2.49-5.59,6.8-8.57,9.42-10.5,12.49-9.25,9.68-12.09,18.39-16.69,3.44-1.82,8.58-2.91,18.86-5.1,10.86-2.32,16.21-2.55,20.09-2.48,10.45.2,13.76,2.67,14.68,3.4,1.86,1.5,2.35,2.7,4.32,3.25,2.89.79,5.17-.85,11-3.71a82.33,82.33,0,0,1,9.42-4.17c4.55-1.59,6.61-1.48,13.91-2.78s7.42-1.81,12.83-2.79c11.62-2.09,11.51.16,26.58-1.54.37,0,9.23-1,15.91-.15a28,28,0,0,1,6.18,1.54c2.72,1,4.08,1.44,4.64,2.32,1.68,2.66-2.54,5.57-2,11,.3,3,2.11,7,5.1,8.19,1.34.54,2.43.33,5.1,1.39a23.32,23.32,0,0,1,3.09,1.55c3.39,2.11,4.11,6,6.34,10.81,2.78,6,3.76,4.41,6,9.74A27.58,27.58,0,0,1,461.23,518c-.29,3.08-.44,4.62-1.54,6-3.46,4.42-10.18.51-14.53,4.17-5,4.24-4.23,16.39.77,19.63,3.15,2,5.95-.74,10.67,1.7,2.08,1.08,2.31,2,6.79,7.26,5,5.82,7.52,8.74,9.59,9,3.08.34,5.76-2,11.12-6.8,2.67-2.36,4-3.55,4.95-5.25,2.25-4.07.29-5.71,1.54-13.75.75-4.83,1.79-6.35,1.55-10.67-.17-3-.26-4.58-1.24-5.87-3.34-4.39-11.38.15-15.3-3.71-3.58-3.53-1.24-11.67.93-15.91,3-5.82,9.77-12.42,16.54-11.28,3.87.65,6.74,3.67,9.11,6.18,3.95,4.16,2.68,5.37,5.72,8s7.43,3.67,16.07,5.57c2.36.51,3.48.86,5.72,1.54,3,.91,4.46,1.38,5.41,2.16,2.83,2.35,2.54,5.85,3.71,5.88,1,0,2.24-2.61,2.47-5.26.24-2.84-.81-4.13-3.09-10.2-2-5.28-1.53-5.22-2.78-7.72-2-4-3.59-5-5.26-7.73-1.16-1.92-2.25-4.5-2.93-13-1-12.18-1.47-18.28.62-24.11,1.21-3.38,1.14-1.3,9.58-15.91,3.84-6.65,5.41-9.78,5.87-14.22.43-4.24-.64-5,.15-8.66,1.35-6.32,5.79-10.33,7.58-11.89,2.64-2.33,9-7.92,14.68-6.19,3.2,1,3.14,3.37,11.12,12.06,2.91,3.16,4.36,4.74,5.87,5.72,4.95,3.17,10,2.67,17.47,2.31,19.85-.95,17.12.95,24.88-.46,10-1.82,10.57-4.27,22.71-6.49a91.89,91.89,0,0,1,15.3-1.55c10-.08,17.69-.15,24.88,4.18,8.3,5,11.77,14.46,14.06,20.4,3.79,9.77,3.57,17.44,8.81,19.31,1.58.56,3.75.65,5.1-.46,2.92-2.39.83-9.39-.15-12.67-1.78-6-3.38-5.76-4.33-11-.6-3.3-.25-4.94-1.7-7.41-.8-1.37-1.73-2.28-4.79-4.64-4.91-3.8-8.34-6-8.34-6-5.79-3.75-8.68-5.63-10.67-6.49-3.47-1.5-6.53-2.13-12.67-3.4a79.5,79.5,0,0,0-9.89-1.7c-10.35-.74-11.84,3-19.78,1.7-5.17-.87-5.27-2.59-12.21-3.7-5.65-.91-7.11,0-9.42-1.09-7-3.24-3.68-18.81-6.8-19.31-1.46-.24-2.63,2.9-4,2.47-.77-.24-1.09-1.41-2-8-.58-4.18-.67-5.23-1.55-6.64-1.07-1.73-2-1.81-3.86-3.56-3.22-3-6.2-7.86-4.94-9.73.48-.73,1.42-.71,4.94-.77,5.76-.1,8.65-.15,10.2-.31,3.64-.39,7.16-.76,10-3.4a12.48,12.48,0,0,0,3.71-7c.92-5-1.5-9-3.86-12.82-.8-1.32-6.91-11.12-11.28-9.89-1.84.51-1.73,2.52-4.33,3.55a7.51,7.51,0,0,1-7-.77c-3.15-2.39-.93-6.16-4.33-10.51-2.28-2.92-4.13-2.32-5.1-4.79-.33-.85-.78-2.62,2.17-9.58s4-6.69,4.48-9.74c.81-5.57-2.59-7.91-.78-10.81,1.15-1.83,3.55-2.4,8.35-3.56,3.68-.88,4.81.12,7-1.08,1.5-.83,2.46-2.32,4.33-5.25,2.61-4.1,3.91-6.15,3.25-7.89-.75-1.94-3.41-3.35-5.26-2.78s-1.64,2.83-4,5.41c-.37.4-1,1.08-6,3.56-5.3,2.63-8,3.94-10,3.86s-1.75-.72-6.33-2.16a48.71,48.71,0,0,0-10-2c-3.93-.44-5.93-.64-7.73.15-2.7,1.19-2.62,2.91-4.79,3.4s-4.3-.94-8.19-3.71a26.87,26.87,0,0,1-6.64-6.18c-2-2.67-4-5.4-3.09-7.57.49-1.21,2.55-2,6.64-3.4,2.44-.86,4.73-1.53,8.19-2.78,3.71-1.34,4.49-1.81,4.48-2.32,0-1.27-4.89-.91-6.64-3.86-1.4-2.37,0-5.55.31-6.34,2.21-5.14,8.11-7.06,12-8.34a41.93,41.93,0,0,1,13.76-1.86c2.84,0,4.93.3,12.36.47a45.93,45.93,0,0,0,4.63,0c1-.14,4.78-.73,11.59-6.19a52.4,52.4,0,0,0,9.89-10c3.49-4.67,6.23-8.33,6.49-13.6.1-2,.31-6-2.47-8-2.06-1.47-5.43-1.57-6.95,0s.19,3.63-1.24,7c-.44,1-2.05,2.55-5.25,5.56-2.77,2.61-4.17,3.92-5,4.33-1.86,1-4.15,1.19-8.65,1.54-3.93.32-5.93.46-7.57-.15-2.13-.79-5.39-2.84-5.41-5.41,0-1.06.53-2.07,5.1-5.87,4.89-4.08,6.08-4.11,7.57-6,1.23-1.57,1.44-2.82,2.32-10.51,1.61-14.13,1.69-17.07-.31-19.93-.42-.6-1.36-1.64-3.25-3.71-4-4.44-4.51-4.37-5.71-6.18-2.28-3.43-1.12-4.51-3.25-7.73-1.63-2.46-2.33-1.87-6-5.41-3-2.86-6.17-5.91-7.41-10.51-.67-2.46-.1-2.87-.93-4-2.55-3.5-8.89-1-10.35-3.71-.87-1.58,1.18-2.69,2-7.73a30.29,30.29,0,0,0,0-8c-.28-3.51-.42-5.26-1.08-6.65-1.62-3.42-4.16-3.2-7.72-6.49-2.34-2.15-1.69-2.66-6.65-11.13-4.29-7.32-5-7.31-5.72-10-.31-1.19-2.36-8.88,1.55-13,5.21-5.48,17.71-1.1,21,.07s3,1.6,5.54,2.25c6.62,1.68,9.63-1,18.54-1.86,3.86-.38,7.57-.09,15,.47a119.39,119.39,0,0,1,13.29,1.54c10.5,1.9,9.9,3.7,18.24,5.1,10.48,1.76,13.2-.79,19.78,2.63,2.55,1.32,3.35,2.33,7.72,4.63a29.47,29.47,0,0,0,4.36,1.9c4.06,1.37,6,2.38,6.15,2.59,2.74,3.07-2.31,8.75.16,12,.86,1.15,2,1.12,10.66,2s8.66,1,9.43.77c7.18-2.39,7.68-14.75,11.12-14.53,1.17.08,1.37,1.51,7.27,8.5,1,1.19,1.84,2.16,3.24,2.48,2.72.62,5.35-1.72,6-2.32,2.65-2.36,2.23-4.18,4.32-7,1.19-1.56,2.07-2,7.73-5.25,8.87-5.12,11.34-6.77,12.05-6s-1.23,2.59-1.54,6.34c-.18,2.18-.3,6,1.24,6.64,1.07.43,1.92-1.12,3.7-1.39,2.59-.39,3.94,2.47,7.27,5,2.53,1.89,5.81,2.76,12.36,4.48,6.25,1.64,6.11.87,9.12,2.16a24.09,24.09,0,0,1,9.89,7.42c1.51,2,1.57,2.87,4.32,6.65C801,99.72,802,100,802.59,100c1.31,0,2.27-1.2,5.41-6,4.52-6.93,4.53-7.52,5.57-7.89,4.9-1.73,15.44,7.73,14.37,14.84-.41,2.7-2.51,5.18-1.24,7.11.93,1.41,2.8,1.2,3.71,3.09.68,1.4-.07,2.1.62,3.09,1.27,1.84,4.62.57,5.25,1.85s-2.09,2.55-3.4,6.49a9,9,0,0,0-.46,5c.84,3.58,4.43,5.34,5.25,5.72q-.3,19.47-.61,38.94a53,53,0,0,0-7.89,9.27c-2.7,4.08-3.78,7-7.41,9.27-.69.43-1.46.83-5.88,2.17-10.63,3.2-13.83,3.19-14.52,5.25s1.21,5.1,3.71,6.34c3.74,1.85,7.18-1.39,18.23-4.18,2.42-.6,1.66-.3,6.65-1.39,17.86-3.89,23.36-6.88,29.2-4a12.91,12.91,0,0,1,4.64,3.7c1.84,2.39,2.3,4.85,2.78,7.58a27.36,27.36,0,0,1,.16,9.11c-1.38,9.17-6.18,10.64-6.49,18.55-.1,2.45.16,7.19,2,7.72,2.9.85,8.65-9,11.44-13.75,2.55-4.36,2.62-5.31,4.64-7.73,1-1.17,4.83-5.8,10.35-7.72,5.72-2,10.76-.22,20.55,3.4,2.21.81,5.44,2.1,19.16,9.11,9.25,4.73,11,5.64,12.21,6.34,8.26,4.94,6.56,5.4,14.37,10,5.85,3.47,9.46,4.8,11.59,9.11.92,1.85.83,2.75,2,3.71,2.33,1.87,5.58.74,13-.46,6.28-1,6-.53,8.19-1.08,11.3-2.81,11.6-13.65,25.35-20.71a38.16,38.16,0,0,1,10.35-3.56c3.72-.69,8.27-1.53,13.45,0,4.74,1.41,5.66,3.53,8.65,2.94,3.64-.72,5.46-4.52,7.26-3.71,1,.47,1.22,2.12,1.24,2.32.08.77-.06,2.11-2.63,4.79a35.75,35.75,0,0,1-4.48,3.71c-3.06,2.76-2.26,8.42-1.54,12.83,0,0,4.87,30.15,3.55,38.78a5.16,5.16,0,0,1-1.08,2.48,4.88,4.88,0,0,1-2.47,1.39c-3,.81-5.71,5.22-6.8,6.8-4.59,6.6-11.27,6.73-22.1,17.3-5.62,5.49-5.51,7.1-9.74,9.58-6.33,3.73-10.29,0-15.91,3.71-4.65,3.09-6.72,8.27-7.73,10.82-1.08,2.71-2.08,5.21-1.86,8.5.4,5.89,4.42,9.94,8.5,14.06,3,3.07,4.62,4.66,7.42,5.87,2.49,1.08,4.27,1.13,5.72,2.94,1.15,1.44,1.32,3,1.54,5.41.36,3.86.61,6.54-.92,8.34-2.3,2.7-5.86,0-10.36,3.09-2,1.39-2.3,2.61-4.32,3.1-2.93.7-5-1.22-5.57-.47-.73.93,2,4.46,5,6.49,1.4,1,1.93,1,2.16.93,1.91-.16,1.95-3,4.79-4.95,1.42-1,1.74-.52,4.64-2a35.53,35.53,0,0,0,3.55-2.17c2.14-1.49,9-13.34,13-18.23s8.56-7.37,14.22-10.36a50.09,50.09,0,0,1,16.69-5.87c8.53-1.28,18.45-.29,24.11,3.4a46.3,46.3,0,0,1,7.26,6.18c.88,1,1.57,1.77,2,2.32.17,1.38.42,3.29.77,5.56.92,5.85,1.44,7.18,2.63,7.88a4.56,4.56,0,0,0,3.4.31c2.31-.59,2.66-2.45,5.41-4.63,1.78-1.42,3-2.42,4.63-2.47,3-.11,5.58,3.06,9.43,7.72,1.47,1.78,2.35,3.09,4.33,4.17a12.92,12.92,0,0,0,4.63,1.4c2.14.29,4.17.56,6.34-.47.47-.22,3.76-1.85,4.32-5.25a7.63,7.63,0,0,0-1.23-5.1,11.49,11.49,0,0,0-6-5.26c-3.65-1.26-5,.71-7.72-.61a8.54,8.54,0,0,1-4.33-7.73c.13-4.52,4.11-7.06,5.87-8.19a12.78,12.78,0,0,1,6.65-2.16c.84,0,5.64-.19,8.49,2.93,1.38,1.51,1.45,2.83,2.48,2.94,1.36.14,1.71-2.1,4.32-4s3.75-.89,6.19-2.78c.69-.55,3.2-2.49,3.24-4.95.06-3.41-4.71-4-5.25-7.26-.59-3.5,4.55-5.29,12-13.6,4.17-4.62,3.86-5.48,8.65-10.51,4.32-4.52,6.47-6.78,9.59-7.88,4-1.42,5.42.11,14.37.47.77,0,5.31-.19,14.37-.62,10.4-.5,12.52-.64,15.61-2,3.29-1.47,3.19-2.35,6.49-3.56,4-1.46,7.39-1.33,12.36-1.08,8.12.41,9.13,1.81,14.68,1.24a23.76,23.76,0,0,0,8.5-2.17c5.19-2.56,7.6-6.79,10.82-12,6.44-10.54,9.66-15.82,12.51-19,8.33-9.31,19.89-14.28,22.72-11.74.53.48.29.81,1.7,3.55a23.89,23.89,0,0,0,3.4,5.41,55.11,55.11,0,0,0,6.18,4.64c2.25,1.59,2.63,1.82,3.09,1.7,2.27-.6,2-8.44,2-10.2.27-12.12,18.31-17.46,39.41-30.75,2.56-1.62,5.25-3,7.72-4.79,4.15-3,5-4.21,7-4.18,1.8,0,2.14,1.06,7.72,4.49a56.23,56.23,0,0,0,5,2.78c4.81,2.29,6.31.88,8,2.62,2.54,2.56.73,6.5,3.1,7.73,1.26.66,2.79.07,4.17-.46a12.72,12.72,0,0,0,5.56-4.48c4.21-5.65,3-7.86,5.87-11.59,3-4,5.09-2.38,12.67-7.73,6.44-4.54,7.2-7.26,9.59-6.8,4.3.82,6.65,10.56,7.72,15,1,4,.88,5.85,2.63,8.65,2.49,4,4.48,3.13,6.95,6.34,4.92,6.38.81,14.71,5.88,21.17a18,18,0,0,0,9.89,6.34c4.73,1.57,4.27,3.9,11.28,9,9,6.49,11.73,4.1,15.91,9.43a44.11,44.11,0,0,1,5.88,9.89c1,2.56,1,3.36,2,4.32,3.76,3.47,11.64-.08,12.21,1.39.36.91-2.81,1.86-3.24,4.48-.47,2.86,2.52,6.28,5.56,7.73,1.89.9,2.28.32,3.56,1.24,2.3,1.65,2.23,4,3.7,7.42,1.85,4.21,5.44,8.11,7,7.57s-.35-5.32,2.63-9.27c1.34-1.8,3.08-2.5,4.94-3.4,5.62-2.74,7.78-.09,13.75-2,4.39-1.42,8.13-4.43,10.51-6.34,3.24-2.6,4.8-4.6,7.26-4.33,2,.23,4,1.94,5,2.79a15.61,15.61,0,0,1,2.47,2.78c3.25,4.23,5.84,3,10.2,7.41a32.61,32.61,0,0,1,5.1,7.27,9.47,9.47,0,0,1,.93,2c.59,1.88.5,3.82-.31,6.8-.72,2.63-1.18,3.07-2.47,6.49-1.46,3.85-2.19,5.77-2.32,7.88a16.39,16.39,0,0,0,1.7,8.19c1.46,2.88,3,3.62,6.18,6.64,5.92,5.65,4.77,7.12,12,15.3a38.84,38.84,0,0,1,4.33,6c1.42,2.4,2.12,3.63,2,4.79-.25,2.56-3.14,3.32-8.19,7.26-4.44,3.47-6.74,5.26-7.42,8.19-.79,3.41,1,6.52,2.94,9.74,1.47,2.49,2.93,4.15,9,9.89,5.39,5.13,8.09,7.69,10.66,9.73,7.61,6,11.27,7.12,12.37,7.42,1.28.35,1.91.41,5.1,1.24,4.31,1.12,7.54,2.16,8.49,2.47,7.72,2.52,7.28,3.27,11.75,4.33,4.12,1,6.81,1.61,10,.77,5-1.3,5.19-4.57,10-5.72,3.94-.94,9.17-.05,10.35,2.63,1.11,2.5-1.52,6.16-4.32,10-3,4.11-5.4,5.87-4.79,7.11.71,1.47,4.58-.14,7.41,2.32a7.32,7.32,0,0,1,2,3.4c2.39,6.59-1.56,10.68,1.24,15.61.87,1.53,1.21,1.05,2.47,3.09a19.62,19.62,0,0,1,2.63,9.27,60.44,60.44,0,0,1-.16,11.13c-.71,7.76,1.74,14,6.65,26.42,4.12,10.45,6,11.09,6.8,17.46.41,3.43.24,6.39,1.23,12.21.75,4.33,1.48,6.39,2.32,9.74,3.93,15.54,3.33,31.11,7.73,34.77a4.35,4.35,0,0,1,1.54,2.16c.63,2.17-1,4.4-1.7,5.41-5,6.85-8.88,9.31-11.28,13.6-2.88,5.15-2.35,10.66-2,14.22.78,8,4.19,9.4,3.87,16.07-.17,3.45-1.45,6.21-4,11.59-3.28,6.86-5.6,11.74-10,16.38-5.52,5.76-7.89,4.45-20.7,13.29-9.12,6.29-10.64,7.48-11.59,9.58-2.21,4.89-1.33,10.75-.31,17.46s2.17,7.46,1.39,10.66c-1.38,5.69-6,6.58-5.87,11,0,3.37,2.8,7,6,8.19,4.78,1.81,8.61-2.35,11.9,0,1.63,1.15,1.11,2.46,3.09,5.56a21.33,21.33,0,0,0,6.49,6.18c7.1,4.94,15.54,11.52,19.47,15,4.59,4,3.35,4.13,11.29,13,12,13.36,18,20,25.65,24,4.69,2.39,9.5,3.89,13.75,9.12,1.42,1.75,4.11,5.14,4,9.58,0,2.62-1,4.72-2.47,7.73-2.52,5.32-4.68,6.67-4,8.81s3.1,1.76,4.48,4c2.25,3.66-1.15,9.59-2.47,11.9-4.58,8-8.76,7.22-11.59,13.76-1.71,4-1.64,7.61-1.55,12.36.09,4.36.72,5.19,2,12.83,2.1,12.4,1.26,15.07,4.17,20.7s5.82,7.05,6.65,7.42c1.6.73,1.79.31,7.26,1.39,6.44,1.28,7.93,2.2,9,3.09a10.57,10.57,0,0,1,2.93,4.17c.31.86.91,2.87-.31,8.81a54.82,54.82,0,0,1-1.54,5.88c-2.32,7.12-1.65,13.61-.62,23.64.56,5.5,1.22,7.62,2.93,9.12,1.49,1.29,2.85,1.31,5.1,3.24a18,18,0,0,1,3.71,4.64c2.36,4.47-.85,9.28-3.4,18.23-1.72,6.06-2.28,11-3.24,19.47-.91,8-.71,11.13-3.09,15.77-1.46,2.84-3.19,4.68-6.65,8.34-8.63,9.16-12.77,9.92-14.68,15.76-.53,1.64-2,6.12.16,9.28,2.33,3.42,6.84,2.2,10.66,6.64a13.84,13.84,0,0,1,2.78,5.41c1.53,6-2.2,8.82-.46,13.29.38,1,.69,1.19,5.25,5.41,5.64,5.21,8.46,7.81,9,8.5,3.81,5.13,4.53,10.86,5,14.21a40.75,40.75,0,0,1,0,9.12c-.48,4.29-.92,8.26-3.4,12.21-2.76,4.38-5.37,4.47-5.56,7.26-.24,3.4,3.4,6.28,6,8.35s4.21,2.49,10.67,5.56c8.07,3.84,6.84,3.81,10.81,5.41,7.28,2.93,9,2.06,13.14,4.94a28.94,28.94,0,0,1,6.18,6.34c4.18,5.22,6.33,7.79,7,11.28,1.11,6.21-3.43,8-3.09,16.38a28,28,0,0,0,2.17,9.12c1.7,4.63,4,8.2,8.65,15.14,3.3,5,3.31,4.54,3.86,5.87C1848.14,1268.91,1846.19,1275.74,1845.23,1278.94ZM1044.9,205.4c6.59,3.73,7.27,4.95,7.57,5.88.66,2-.1,3.67,1.4,5.71a6.63,6.63,0,0,0,2.16,1.86c2.15,1.23,4.54,1.27,7.88.77,5.95-.88,6-2.14,10-2.47a20.78,20.78,0,0,1,9.12,1.23c5.12,2,7.1,5.35,9.12,4.49,1.26-.54,1.59-2.31,1.85-3.71.89-4.7-1.17-8.73-2.93-12.21-5.19-10.24-7.78-15.37-9.89-17.77-3.2-3.65-6.36-7.26-11.75-9.27-1.73-.65-.83-.06-10-2.17-4.61-1.05-6.29-1.53-8.81-1.08a14.53,14.53,0,0,0-6.34,2.94c-3.5,2.68-4.91,6.05-6,8.8-1.72,4.27-3.58,8.88-1.55,12.21C1037.64,202.13,1038.34,201.69,1044.9,205.4Zm262.25,49.92c1.6,1,4.87-1.85,5.4-2.32.83-.73,3.56-3.31,5.72-10.82,1.78-6.15,1.09-8.38,3.25-9.89,1.84-1.28,2.85,0,7.11-1.08,3.6-.9,3.51-2,7.88-3.4,4.19-1.37,4.63-.49,7.11-1.85,2.66-1.47,2.67-2.77,5.71-4.79a20.3,20.3,0,0,1,5.88-2.63c4.94-1.5,9.06-1,12.36-.77,9,.73,6.12-.42,19,.31,11.36.64,17.05,1,19.16,1.23,5.29.69,10,1.61,11.43-.62.66-1,.6-2.84.47-6.49a7.8,7.8,0,0,0-.31-2.78c-1.47-2.27-7.07-.12-15,.77-4.75.54-9,.31-17.46-.15-1,0-6.48-.36-13.14-1.24-2.34-.3-4-.57-5.72-.92-3.13-.64-4.34-1.1-7.26-1.86-8.37-2.16-8.27-.9-10.35-2.32-1.28-.87-.89-1-6.8-7.88-1.76-2-2.67-3-3.4-2.78-1.09.36-.53,3-1.39,6.65-.57,2.37-1.78,4.34-4.18,8.19-3.36,5.39-3.68,4.77-6.33,9.11-3.39,5.56-3.1,7-5.87,9.43-2,1.76-2.87,1.69-5.1,3.86a24.58,24.58,0,0,0-4.49,6.18,36.73,36.73,0,0,0-4.17,12.68C1306.27,252.15,1306,254.6,1307.15,255.32Zm145.1-65.52c1.33-1.35,1.4-1.88,4-6.34s3.59-5.69,3.86-8.35c.09-.89,0-.71,0-2.47.1-6.2,1.59-7.72.62-10-.89-2.13-3.42-3.93-4.94-3.4s-1.4,3.22-2.48,10.51a86.7,86.7,0,0,1-2.31,12c-2,6.78-4.47,10.29-3.56,11S1450.9,191.15,1452.25,189.8Zm22.1-25.19c1.39.08,2.65-2.53,5-7.42.94-2,1.64-3.7,2.47-5.72,1-2.43,2.06-4.84,3.09-7.26.9-2.13,1.25-3,2.16-3.86.12-.12,2.79-2.74,4.64-1.86,1.29.62,1.48,2.64,1.54,3.25.25,2.59-1,3.79-3.24,8.8-.49,1.12-1,2.71-2.17,5.88-1.24,3.52-1.61,4.89-.92,6a4,4,0,0,0,2.47,1.55c4.12,1.2,8.2-1.72,8.81-2.16,2.27-1.68,1.71-2.37,5.41-6.34,3.06-3.29,3.57-3,4.63-4.79,2.07-3.58.41-5.38,2.32-7.57,2.11-2.42,4.68-.86,7.11-3.56.84-.93,1.33-2.48,2.32-5.56s1.44-4.52,1.08-5.72c-.7-2.36-3.57-3.86-5.87-4.33-5.78-1.15-7.49,4.35-16.54,5.57-2.95.4-4.73.07-8.19,1.23-2.11.71-4.59,1.58-6.33,3.87-.69.9-1.16,1.88-2.17,6.18-1.27,5.42-1,5.73-1.54,7.57-2.28,7.38-9,8.77-8.35,13.14C1472.26,163,1473.33,164.54,1474.35,164.61Zm7.26,65.83c-5.08,2-7.89-.59-16.38.31-4.48.47-5.6,1.4-6.18,2.16-1.26,1.66-.86,3.86,0,8.19.94,4.72,1.61,8.13,4.17,11.59,1.72,2.33,2,1.58,5.57,5.56,2.66,3,2.66,3.57,5.41,6.65,2.5,2.81,3.92,4.4,6.18,5.87,2.94,1.92,3.7,1.29,8.19,3.25,4.26,1.85,4,2.58,10.2,5.87,5.57,2.94,8,3.51,9,3.71,2.72.57,5,1,7.57.15,3.49-1.19,7.23-4.71,7.11-8.34-.14-4.52-6.12-5.61-6-10.05,0-2.12,1.58-3.78,4.64-7.11,2.42-2.63,3.52-3.11,7-6,7.21-6.11,7.85-8.52,12.52-10.2a13.49,13.49,0,0,1,6-.93c3,.29,4.2,1.6,7.57,3.09,3,1.32,6.91,3.05,10.82,2.32,5.67-1.06,8.44-6.77,9.89-5.87.79.49.38,2.48,0,4.32-.46,2.21-1.28,4.31-4.33,9.58-1.63,2.83-3.13,4.25-2.78,4.64.57.63,4.19-3.41,7-2.32s3.48,6.29,3.71,7.73c.31,1.87.19,3.06.46,3.09.55.07,1.56-4.65,2.48-9a82.81,82.81,0,0,0,1.7-9.12c.18-3.1.45-7.89-2.17-12.52a21.84,21.84,0,0,0-3.4-4.32,31.63,31.63,0,0,0-7-5.88c-3.88-2.35-4.45-1.33-8.35-3.71a17.11,17.11,0,0,1-6.33-5.71c-1.3-2.12-1.64-4-2.16-6.8s-1.05-5.67-.31-9.12a18,18,0,0,1,3.86-7.88c3-3.53,5-3,8.19-6.18a20.06,20.06,0,0,0,4.79-9.12c1-3.56,3.06-10.73-.62-15.45-3.52-4.53-10.42-4.42-15.76-4.33-6.89.11-7,2-15.14,2.63-8.52.62-13.9-1.06-14.84,1.08-.53,1.21.62,3.06,1.7,4,2.59,2.29,5.76.32,8.35,2.47,1.07.89,1.45,2.15,2.16,4.64a29.14,29.14,0,0,1,1.08,9.89c-.27,3.35-1.06,13.28-6.34,14.83-2.85.84-6-1.11-6.64-1.54-1.82-1.15-2.71-2.51-4.17-4.8a63.62,63.62,0,0,1-5.41-11c-.76-2.08-1.13-3.45-2.32-3.86-1.93-.66-3.86,1.94-4.94,1.24-.21-.14-.83-.67.3-5.88.9-4.1,1.34-6.15,2.48-7,2.4-1.71,5,.88,7.26-.77s2-6.15,1.39-8.35a7.05,7.05,0,0,0-2.78-4.48,5.51,5.51,0,0,0-5-.62c-.82.36-1.12.81-2.62,2.78-3.31,4.35-3.16,3.83-5.26,6.8-1,1.48-1.16,1.73-2.16,3.09a28.15,28.15,0,0,1-3.09,3.87,12.21,12.21,0,0,1-5.25,2.78c-3.6.86-4.41-1.21-9-1.39-2.78-.12-5.25.75-10.2,2.47-4,1.38-4.58,2.07-4.94,2.63-1.56,2.42-.85,6.75,1.54,8.5,2.7,2,5.57-.79,9.89,1.54a10.61,10.61,0,0,1,3.4,2.94,8.1,8.1,0,0,1,1.55,3.24,8.27,8.27,0,0,1-1.08,5.57c-1.64,3-4.37,4.42-8.5,6.49-5.09,2.55-7.23,2.6-7.42,4-.16,1.19,2,2.92,6.34,6.33,2.07,1.63,2.22,1.62,4,3.09a41.28,41.28,0,0,1,5.41,5.1c2.05,2.39,3.07,3.58,2.94,5C1486.3,228.59,1482.34,230.15,1481.61,230.44Zm113.28,90.25a17.23,17.23,0,0,1,2,5.4c.25,1.21.73,4.19-2.16,15.92-.81,3.28-1.48,5.63-.46,8.35.11.29,1.31,3.42,2.93,3.4,2.46,0,3.55-7.27,5.26-7.11,1.54.14,1,6.13,4.63,8a5.92,5.92,0,0,0,3.56.47c3.6-.49,5.57-3.74,6-4.49,1.75-2.86.53-3.92,2.17-6.49.23-.36,2.66-4.05,6.49-4.17,3.17-.1,5.46,2.3,7.11,4a12.41,12.41,0,0,1,3.09,4.64c1.43,4.12-.52,7,1.08,8.19.48.34,1.76.28,4.33.15s2.85-.34,3.24,0c1.08.95-.86,3.36-1.23,7.88-.34,4,1,5.06-.16,7-1.29,2.2-4.14,2.72-6.18,3.09-1.35.24-6.08,1.1-9.27-1.86-.77-.72-1.74-1.38-1.7-2.32.07-1.82,3.63-2.2,4.17-4.63a3.61,3.61,0,0,0-.93-3.09c-2.07-2.22-7.6-1.42-9.89,1.54-1,1.32-1,3.66-.92,8.35.07,5.57.91,7.62,1.23,8.34,1,2.32,1.85,2.44,2.78,4.17,2.42,4.53,1.44,12.28-2.62,15.15-4.32,3.05-10.15-.81-12.21,2.16-1.21,1.74-.16,4.42.46,6,.23.58,2,5,6.34,6.49,1.39.49,3,.68,9.89-1.24a109.61,109.61,0,0,0,11.12-3.71c10.38-4.27,8.93-5.31,13.45-6.33,1.55-.35,6.85-.18,17.46.15,2.52.08,5.06-.08,7.57.16,3.11.29,4.1.68,4.79,0,1.53-1.5-1.83-4.83-.77-9.58.68-3,2.36-3.06,2.94-6,.67-3.48-1-6.56-2.32-8.81a31.55,31.55,0,0,0-8.81-9.58c-10.36-7.94-7.15-8.51-21.48-20.4-5.85-4.85-9.08-7.53-14.22-10.82-2.48-1.59-10.21-6.38-18.69-12.05a22.41,22.41,0,0,1-6.65-6c-1.26-1.8-2.2-4.11-4-8.65-2.3-5.75-2.42-6.89-4-8.19a8.7,8.7,0,0,0-7.1-1.7c-2.81.67-5.58,3-5.88,5.87-.19,1.83.71,3.22,2.32,5.72C1591.82,317.43,1593.2,317.79,1594.89,320.69Zm-1429,189a6.69,6.69,0,0,0,5.87-1.24c2.61-2.11,1-4.62,3.4-6.95,1.53-1.51,2.63-.9,9.58-3.25,3.6-1.21,3.95-1.6,4-2,.33-2-6.08-5.79-9-4-1.1.67-.71,1.55-1.7,2.31-2.6,2-6.83-2.77-13.14-2.31-3,.22-6.87,1.63-7.57,4.17-.12.43-.29,1.4,2.94,6.64C164,509,165.33,509.5,165.92,509.68Zm56.25-34.31c3-1.22,3.48-2.12,6.49-2.78,4.17-.91,6.37.18,11.74-1.08,1.64-.38,4.55-1.09,4.64-2.32.07-.88-1.32-1.64-1.7-1.85-3.49-1.93-6.72.23-15.14,1.54-3.69.57-4,.3-8.81,1.08-3.84.63-4.17.88-6.65,1.09-3.24.26-4.26-.05-6.33.61-1.68.54-4.79,1.95-4.64,3.09C202,476.81,213,479,222.17,475.37Zm51.77-11.43a25.72,25.72,0,0,0,6.33.15c2.79-.36,3.09-1,7.11-2.16,5.66-1.64,8.58-1.43,9.12-3.09a3,3,0,0,0-.77-2.47c-1.68-2-4.69-1.06-15.46-.16-5.36.45-7.83.49-10.51-.62a6,6,0,0,0-2-.62c-4.22-.38-7.57,4.76-7.89,5.26-1,1.61-1.53,2.41-1.23,3.09C259.45,465.17,264.5,463.16,273.94,463.94Zm53.77-11.59c4.77-.6,10.75-1.3,13.45-1.55,9.21-.85,12.89.42,14.37-2a4.41,4.41,0,0,0-.46-4.94c-1.84-1.9-5.1.18-12.06,0-3.33-.09-2.78-.58-7.26-.93-6.54-.51-10.65-.84-13.44,1.7-2.27,2.06-3.43,5.8-2.17,7.42C321.08,453.24,323.09,452.93,327.71,452.35Zm37.09-11.28c1.51,1.24,3.6,1.75,12.37.61,6.12-.79,8.12-1.43,9.58-2,1.12-.44,6.28-2.46,6-3.87-.14-.77-1.83-.94-10.5-1.7-7.78-.67-9.25-.78-11.59-.15-2.8.74-7.3,2.64-7.27,4.94A3.21,3.21,0,0,0,364.8,441.07ZM520.88,205.4c0,2.32,2,4.31,5.87,8.19,4.13,4.12,5,4.1,5.41,4,2.38-.44,4.18-5.32,3.09-9.12-.9-3.17-3.59-4.77-6.49-6.49-2.08-1.23-3.69-2.16-5.25-1.54C521.74,201.16,520.85,203.54,520.88,205.4Zm3.4-16.07c.45.25,2.92-3,4.48-6.64.82-1.94,1.36-3.26,1.24-5.1a7.52,7.52,0,0,0-2.47-5.26c-.83-.68-2.75-1.89-3.71-1.23-.44.29-.73,1,.15,6.18s1.48,6.31,1.08,8.81C524.73,188.11,524,189.19,524.28,189.33Zm23.18-22.1c.17-.35-.59-.84-1.54-2.16-1.66-2.29-1-3.11-2.17-4.33-1.85-2-5.3-1.67-6.8-1.54a11.12,11.12,0,0,0-3.24.77c-2,.82-4.64,2.65-4.33,3.86.11.44.59.77,4.79,1.55,4.39.81,4.89.63,8.19,1.24C545.48,167.18,547.22,167.74,547.46,167.23Zm8.5,6.49c-.73,1.5-.84,2.91-2.16,3.56-2,1-3.9-1.17-5.26-.31-1.55,1-1.39,5.22.47,8.19,1.07,1.73,3.2,2.87,7.41,5.1,3.76,2,5.66,3,6.8,2.47s1.22-1.71,3.25-8.65c1.48-5.07,2.22-7.6,2.78-8.5.94-1.52,2-2.73,1.85-4.48a4.35,4.35,0,0,0-1.7-3.09C566.27,165.84,558.4,168.71,556,173.72ZM561.37,132c-1.79-1.32-4.91,4.19-12.83,5.41-2.34.36-4.35.23-6.95,1.7-1.23.69-3.51,2-3.86,4.33-.28,1.83.63,4.3,2.31,4.94,3,1.13,5.11-4.77,12.37-6.64,3.58-.93,5.15,0,7.1-1.7C562.15,137.77,562.83,133.08,561.37,132Zm-66.3,12.05c.56,1.16,3.17,6.27,7.73,6.8,1,.12,2.48.29,3.4-.61,1.83-1.8-1.1-5.47-2.63-14.07-.63-3.58-.52-5.15-1.54-10.51-.34-1.74-.79-3.27-1.7-6.33s-1.19-3.52-1.55-3.71c-2.62-1.43-10.76,4.44-10.35,9.74.2,2.68,2.4,2.68,4.33,6.79C495.1,137.18,492.71,139.08,495.07,144.05Zm19.78-39.4c-3.12,2.7-4.61,7.72-2.93,11.28.5,1.07,1.57,1.95,3.71,3.71,2.72,2.24,5.24,4.31,9.11,5.72a19.31,19.31,0,0,0,7.11,1.39,18,18,0,0,0,10.2-3.4c1.92-1.4,5-3.66,5.72-7.42.38-2.05-.16-3.89-1.24-7.57-.92-3.18-1.39-4.77-2.16-5.57-2.19-2.26-4.67-.73-15.61-1.08-3-.09-5.13-.28-8.19.47A12.41,12.41,0,0,0,514.85,104.65Zm-30.9.15a4.13,4.13,0,0,0,4.94-.31c1.94-1.82-.18-5.26-1.08-12.82-.72-6.07.56-4.54.16-14.84-.17-4.25-.49-7.09,1.39-9.58,1.05-1.39,2-1.53,2.93-3.4,1.37-2.61.76-4.48,2.17-5.56s3.25-.51,4-.31c4.65,1.19,4.44,5.67,8.19,6.8,2.16.65,2.55-.73,10.67-3.09,4.13-1.2,6.83-1.66,6.8-2.32s-2.25-.42-5-1.7c-3.06-1.45-2.77-2.88-6-5.41-4.12-3.2-6.48-2.36-8.65-5.41-.68-1-1.1-2-1.7-4.63-1.47-6.59-1-9.81-1.24-19.78-.13-5-.32-6.9,1.09-8,1.56-1.27,3.24-.08,7.1-.77,1.66-.3,6.75-1.21,7.89-4.48,1.06-3.07-1.56-7.57-5.41-8.81A8.52,8.52,0,0,0,504,2.5c-.54.51-1.33,1.4-3.09,6.8-.58,1.77-1.33,4.21-2.63,9.43-.65,2.61-.77,3.21-2.16,9-.85,3.5-1.28,5.26-1.39,5.56-1.32,3.49-2.55,3.93-6.19,9.74-2.65,4.23-3,5.59-3.09,6.8-.17,2.11.48,2.92.93,5.56.48,2.82.22,5-.31,9.27-.84,6.88-1.94,7.5-2,11.9-.05,3.66.69,4.17,1.08,8C486.34,95.91,481.06,102.45,484,104.8Z"/></g></g></svg>