<svg xmlns="http://www.w3.org/2000/svg" viewBox="0 0 1691.38 2461.64"><g id="Layer_2" data-name="Layer 2"><g id="Ghana"><path d="M973.71,65.57,910.08,66c-2.19,3.81-4.21,6.83-5.75,9-2.33,3.3-3.21,4.15-4.34,4.19-2.12.08-2.47-2.72-6.37-5-3.25-1.87-4.62-.84-6.2-2.63-2.17-2.45-.57-5.42-2.49-6.68-1.45-1-3,.3-6.21.62A16,16,0,0,1,870.34,64h-58.2l-1.86,5.28L705.05,70.54,693.56,56.42l-70.77.15-.93,13H593.77c-.16,2.22-.31,4.45-.47,6.67H570.18c-.37-2-.73-4-1.09-6L404,69.92A91.57,91.57,0,0,0,358,69.14L266.75,69A192.42,192.42,0,0,1,229,66.19c-5.56-1-10.79-2.13-15.68-3.41l-55.56-.31c-2.48,8.37-1.49,12.83,0,15.36.34.58,1.75,2.86,3.72,6.37,1.5,2.66,2.25,4,2.33,4.65.5,4-3.53,5.21-3.57,9.78,0,3.09,1.8,3.79,1.09,5.9-1.17,3.43-6.91,4.29-7.3,4.34-4.5.63-6.39-1.62-7.76-.46-2.49,2.11,3.36,9.89,0,14.59-1.39,1.94-2.75,1.12-3.88,3.1-2.16,3.8,2.21,7.92,0,12.26-.88,1.73-1.59,1.12-3.1,3.26-2.66,3.77-1.07,6.54-2.64,10.71-1.49,4-3.34,2.57-7.61,8.54-2.83,4-1.83,4.33-5.89,11-2.37,3.9-3.49,5.05-3,6.21,1.16,2.5,7.67-.27,10.86,3.26a7.5,7.5,0,0,1,.93,7.76c-1.06,2.18-2.68,1.9-5.74,5a22.68,22.68,0,0,0-4,5.59c-.62,1.17-2.74,5.13-2.79,9.16-.06,5,3.15,8.68,5.28,11.48,5.33,7,8.16,16.13,13.81,34.3,2.43,7.81,2.92,11.17,6.36,15.83a37.11,37.11,0,0,0,11.18,9.78c4.79,2.82,8.48,5,13.5,5,2.7,0,5.52-.66,9.31.77,1.21.46,3.63,1.38,3.73,2.8.13,1.83-3.67,3.49-6.67,4.81-5.75,2.52-6.8,1.52-9.47,3.41-1.81,1.28-3.2,3.88-5.9,9a85.22,85.22,0,0,0-4.5,9.62c-2.64,6.76-4,10.15-3,13,.52,1.51,1.33,2.27,8.07,6.83,9,6.12,13.59,9.19,16,9.78,4.88,1.21,7.9.35,9.93,2.95,1.42,1.81,1.33,4,1.24,6.21-.32,8.27-6.51,13.82-7.76,14.9a23,23,0,0,1-5.28,3.41q.94,32.28,1.87,64.57c2.34,6.53,5.2,9.91,7.45,11.79a31.3,31.3,0,0,1,4.34,4.19c1.75,2.08,2.91,3.46,3.57,5.44.26.77.77,2.62-1.08,11.33-.47,2.16-.92,4-1.4,5.89-2.32,9-2.86,8.5-3.1,11-.75,7.61,4,14.07,4.34,14.59,1.88,2.52,3.26,3.09,5.9,7,2.1,3.11,3.15,4.66,3.26,6.21.07,1.11,0,3.82-10.56,13.65-4,3.77-3.6,3-5.12,4.66a32,32,0,0,0-8.07,14.9c-.31,1.47-.36,4.09-.46,9.31-.22,11.3.84,12.81,1.86,13.5,1.7,1.17,3-.14,7.29,1.4,2,.7,3.52,1.27,4,2.64.71,1.86-1.4,2.87-1.09,5.9a10.55,10.55,0,0,0,1.86,4.5c.94,1.44,1.28,1.36,1.71,2.17,1.41,2.65-.65,6.42-2,8.85-2.59,4.62-3.89,4-5,7-1.35,3.7-.29,7.3.62,10.4a26,26,0,0,0,4.34,8.54c3.42,4.35,5.35,3.78,11.18,9a63.12,63.12,0,0,1,7.91,8.69c3.36,4.27,5.06,6.38,6.06,8.85,3,7.55,1.19,15.85,1.08,16.29-.88,3.76-2.41,6.52-.93,9.32.81,1.53,1.86,1.81,2.95,3,4.2,4.36,1.74,12.42,1.55,13-1.1,3.67-3.54,6.33-8.69,10.25-5.52,4.2-6,3.63-6.83,5.27-1.87,3.68-.27,8.07.47,10.09a18.32,18.32,0,0,0,4.81,7.14c1.58,1.44,3.13,2.25,6.21,3.88,4.51,2.38,5.31,2.13,7,3.73.62.59,3.63,3.45,3.11,6.67-.18,1.1-.77,2.23-4.66,5.43a51.67,51.67,0,0,1-6.52,4.81c-7.48,4.72-12.32,13.93-17.07,23-1.4,2.66-2.08,4.26-4,5.75-4.71,3.58-10.38,1.61-11.33,4-.76,1.94,2.88,3.23,3.11,7.45.19,3.51-2.17,5.37-.93,7.45.89,1.51,2.6,1.33,3.1,2.79s-.58,2.8-1.55,4.2c-2,2.94-3.47,2.81-4.5,4.81s-.61,4.26-.16,6.36c.41,1.91,1.31,6.1,4.5,7.92,3,1.71,4.7-.6,9.78.46,4.52.95,4.14,3,8.38,3.88,4.39.94,5.35-1.12,12.11-.77,3.23.16,5.28.29,7.45,1.7a11.81,11.81,0,0,1,4.81,7.45c.46,2.63-.46,3.17-1.24,7.92-.73,4.43-1.66,10.07,1.39,14a16.29,16.29,0,0,0,2.64,2.32c5.18,4.07,7.14,3.32,8.54,5.28,2.87,4-3.91,9.12-1.24,15.52,1.35,3.24,3.9,3.86,4.5,7.92.36,2.43-.46,2.83.15,5.27.49,1.92,1.18,2.39,3.42,6.68,1.24,2.36,1.85,3.56,1.71,4.19-.55,2.36-4.42,1.79-7.61,5.28-.5.54-3.11,3.4-2.33,5.89s4.95,3.88,7.92,3.88c2.54,0,3.69-.93,5.28-.15,1.15.57,1.51,1.63,2.63,4.19,1.9,4.3,2.7,5.6,3.11,6.67,1.62,4.25,5.66,28.86,9.15,62.86L275,1040q4.89,24.36,9.77,48.73,2,25.62,3.88,51.22l-20.17,20.64-25.92.16a23.08,23.08,0,0,0-2.95,13,40.23,40.23,0,0,0,3.1,11c.65,1.49,1.23,2.59,2,4.81a40.06,40.06,0,0,1,1.86,7c.83,5.08,1.4,8.57-.15,10.56-3.76,4.79-15.59-4.79-24.52.77-1.69,1-.84,1.12-10.25,12.42-5.11,6.13-4.62,5.23-5.74,6.83-4.67,6.67-4.71,10.38-9.62,15-2,1.86-4,3.78-5.9,3.26-2.95-.79-2.45-6.4-6.36-8.07a5.6,5.6,0,0,0-5.44.47c-2.57,2.14-.3,6.78-.15,15.52a47.49,47.49,0,0,1-1.55,13.34c-2.17,7.32-6.63,11.37-9.94,15.06-7.14,8-4,8.74-21.41,44.85-2.91,6-4,8.05-8.85,18.16-4.43,9.2-8.27,17.34-9,18.94-9.13,19.79-7.79,45.53-10.25,72.17-.65,7.11-9.36,37.65-9.46,51.68,0,4.68-.06,8,1.24,12.26,1.88,6.23,4.61,8.1,4,12-.5,3.38-2.85,3.66-7.6,9-5.41,6.08-4.48,8.08-11.33,17.39-5.53,7.51-5.78,5.71-7.3,9-4.27,9.24,1.38,15.29-3.41,22.66-2,3.12-5,5-7.92,6.83-5.07,3.19-7.78,3.07-11.17,5-6.2,3.47-8.22,10.07-10.25,15.21-4.83,12.29-14.07,22.35-21.1,33.53-12.44,19.76-18.65,29.64-19.71,30.73-5,5.08-9.92,8.88-9.78,14.74.16,6.58,6.69,13.33,7.91,14.59,4.24,4.38,7.15,5,7.45,7.92.35,3.41-3.35,4.2-6.52,9.93-4,7.19-.45,10.12-4.5,17.23-2.86,5-5.25,4.65-7,9.62a16.69,16.69,0,0,0-.16,11c1.62,4.3,4.26,4.55,6.68,7.92,4.58,6.38.62,13.2.77,25.45.07,5,1.29,9.89,3.73,19.71,8.09,32.54,14.1,31.89,15.83,49C29.68,1866,24,1874.15,31.3,1884c3.53,4.73,6,4.34,11.18,10.87,2.93,3.67,5.59,8.08,10.71,23.28,3.78,11.21,6.55,19.43,9,31.82,1.8,9.11,1.21,9.25,3.73,28.55.49,3.79,5.86,43.93,13.34,44.08,1.19,0,3.43-.93,4.35.16.58.69.12,1.6.15,3,.07,2.8,2.18,4.39,3.42,6.2,1.84,2.7,1.61,5.69,1.24,10.56-1,12.6.26,25.41-1.86,37.87-.52,3.06-1.54,8.41.93,10.09.88.6,1.71.39,4,.15.47-.05,5.23,0,14.75.16,3.62,0,5.32.11,5.74,1.08s-.67,1.84-1.4,3.26c-2.13,4.19,1.61,7,1.4,13.35-.19,5.82-3.49,8.24-1.71,11,.36.56,1.59,1.26,4,2.64,3.4,1.92,5.11,2.88,7.14,3.41a18.18,18.18,0,0,0,6.36.47c4.3-.46,6-2.34,13.35-6.36,4.89-2.69,7.33-4,8.69-4,5.72,0,6.32,6.1,14.28,9.78,6.77,3.13,9.39.11,16.61,4,2,1.11,5.6,3.05,7.76,6.83,2.77,4.87,1.43,9.68.62,15.68-2,14.94,2.42,13.9,2.17,36.47,0,4.69-.3,10.26,3.1,15.06,1.15,1.61,2.32,2.59,3.57,5.12,1.52,3.05,1.88,5.79,2.18,9.78.74,10,1.11,15-.62,16-3.15,1.75-8.69-5.16-13-2.79a5.45,5.45,0,0,0-2,2.17c-3.32,5.29,1.46,10.06-1.24,15.68-1.3,2.7-2.88,2.58-3.41,5.27a8.76,8.76,0,0,0,2.32,7.61c2.33,2.32,4.14,1,5.9,2.79,3,3-1,7.87.47,16.61a33.44,33.44,0,0,0,3.26,9.47c1.78,3.6,3.19,5,5.27,9.93a28.57,28.57,0,0,1,1.87,5.74c.54,2.69.87,4.27.46,6.06-.9,4-4.76,6.19-7.76,7.91a19.5,19.5,0,0,1-7.76,2.79c-4.35.51-7.66-.84-10.09-1.7-5.15-1.84-10.42-2.57-20.95-4-11-1.53-9.27.18-19.4-1.39-7.1-1.11-10.53-2.35-14.59-.32-3.23,1.62-3.44,3.6-7.29,5.13a17.8,17.8,0,0,1-10.09.62c-6.37-1.27-6.71-4.48-12.88-7.3-6.46-2.95-12.69-2.12-25.15-.46-5.2.69-7.18,1.39-8.22,3.1-1.91,3.12,0,8.41,3.26,11.18,3.82,3.27,9.16,2.78,11.17,2.63.7-.05,12.52,2.14,36.16,6.52,6.24,1.16,17.09,3.67,38.8,8.69,16.26,3.77,14.08,3.38,19.25,4.51,28.81,6.25,30,3.72,47.34,8.22,21.36,5.55,23.08,10.3,39.88,11.64,10.52.84,11.15-.91,22.51.16,14.8,1.39,16,4.59,35.85,9,20.24,4.5,24.15,2.32,36.47,8.07,6.71,3.13,6.29,4.12,15.68,8.54,12,5.66,17.45,6.26,20.33,11.79,2.51,4.81-.08,7.21,3.11,11.64,2.08,2.89,3.49,2.3,12,7.61a65.27,65.27,0,0,1,10.4,7.45c4.6,4.19,4.2,5.39,6.83,6.52,5.09,2.18,7.81-1.78,13.19.15a14.64,14.64,0,0,1,8.07,8.23c2,5-.23,8.43,2.33,10.71,1.75,1.56,4.33,1.32,6.51,1.08,5.84-.62,8.86-3.53,12.27-5.28,11.57-5.93,21.15,4.88,29.49-1.39,2.75-2.08,1.7-3.26,7.6-9.62a76.84,76.84,0,0,1,8.23-7.61,108.94,108.94,0,0,1,18.62-12.42,123.52,123.52,0,0,1,12.57-5.58c4.92-2,8.55-3.12,14.28-5,6.62-2.14,12.89-5.48,19.71-6.83,1.37-.27,3.62-.66,5.12-2.48,1.71-2.08.86-4.1,1.87-7.61.93-3.24,2.73-5.27,4.81-7.6,3.15-3.55,6.09-5.06,9.47-7.14,5.08-3.14,4.58-3.52,13.5-10.09,12-8.82,18-13.23,24.83-16.61,5.85-2.87,5.93-1.86,29.8-7.45,22.69-5.31,34-8,37.09-9.62,5.69-3.07,12.1-7.64,20-6.21,3.38.61,5.07,2,8.38,1.4,6.13-1.05,5.91-6.68,11.79-9.47,7.53-3.57,12.49,3.44,24.83.47a37.31,37.31,0,0,0,8.39-3.26c5.6-2.83,7.58-5.25,15.21-10.56,1.79-1.25,4-2.64,8.38-5.43,6.2-3.94,11.77-7.48,16.76-10.24,8.28-4.59,14.67-8.14,23.12-9.93,6.12-1.31,7.11-.38,25.46-.15,6.12.07,15.28.18,25.61-.32,10.92-.53,19.79-1,31.19-3.57,11.09-2.53,18.57-4.32,26.08-10.24,5-3.91,3.84-4.82,12.26-13.82,10.13-10.81,15.19-16.22,22-18.16,8.8-2.48,12.78,1.64,21.26-2.17,5.26-2.36,4.6-5.51,10.56-8.69,2-1.08,3.7-1.64,15.52-3.73,13.06-2.3,14.76-2.28,18.15-3.88a33.53,33.53,0,0,0,11.49-9.31c3.43-3.92,21.69-24.32,40.35-34,3.31-1.71.31.19,34.15-9.47,18.74-5.34,27.75-8.23,33.37-10.08,14.83-4.9,22.24-7.34,26.38-9.47,16.09-8.27,19-15.28,33.37-18.63,8-1.86,9-.13,14.44-2.63,10-4.66,8.92-11.74,19.71-21.11,3.19-2.78,2.78-1.71,23.59-13.5,15.46-8.77,13.41-8.06,16.76-9.63,9.1-4.25,11.08-3.3,35.85-9.62,12.4-3.16,16-4.44,26.23-6.52,4.78-1,9.8-2,16-2.79a165.42,165.42,0,0,1,45.32,0c10.5,1.5,13.1,3,23.12,3.41,9.06.36,9.29-.77,18.63-.31,13,.65,20.28,3.23,21.88.31.93-1.69-.47-4.51-1.71-7-2-4-3.83-4.28-4.34-6.83-.8-4,2.57-9,5-8.85,1.5.09,1.71,2.16,5.58,8.07a55.58,55.58,0,0,0,5,6.68,47.8,47.8,0,0,0,6.67,6.05c7.37,5.4,23.7,1.1,42.06,1.55,15.42.38,29.82,4.05,38.18,0,.35-.17,4-1.93,8.7-4.34,3.07-1.57,6.75-3.45,8.07-4.19,10.09-5.73,14.27-20.71,16.29-27.94,2.46-8.79.87-8.54,3.42-16.76a85.79,85.79,0,0,1,10.24-21.27,124.41,124.41,0,0,1,17.69-21.88c8.84-9,18-18.42,32.91-25.14a84.78,84.78,0,0,1,18.47-5.9q-.63-10.1-1.24-20.18a23.58,23.58,0,0,0-2.64-1.55c-4.91-2.45-9.3-2.37-16-2.33-7.14.05-10.84.08-14.12,0-5.74-.13-10.42-.57-13.51-.93a30.37,30.37,0,0,0-3.25-12c-3.51-6.76-7.16-7.06-14.44-14.9-4.67-5-10.91-11.93-12.26-21.73a29.36,29.36,0,0,1,.47-10.4l-41-1.24q-8.61-10-17.23-20c-11.14-.7-16.61-4.37-19.55-7.76s-4-7.32-9.31-11.33c-4-3-5.08-2.06-7.76-4.66-4.23-4.08-2.41-7.21-6.21-14.74-4-8-8.12-8.55-7.92-13.5.18-4.45,3.68-8.56,4.19-9.16,2.4-2.82,3.71-2.55,5.12-5,1.85-3.16,2.08-7.8,0-10.71s-5.54-3.16-8.84-3.72c-14.55-2.49-19.41-6-21.27-7-3.73-2-7.15-3.94-8.22-7.6-.84-2.86.48-4.36,1.71-9.16.59-2.31.53-2.95.62-20.95,0-8.07,0-9.69-1.4-11-2.18-2-4.47-.44-11.18-1.86a37,37,0,0,1-10.08-3.88c-3.09-1.75-8.93-5.06-8.54-8.38.29-2.48,3.74-2.46,5-5.9a9.15,9.15,0,0,0-1.56-8.07c-3.42-4.57-8.65-1.92-12.26-6.06-3-3.49-2.88-9.46-1.08-13.34s4.35-3.38,7.6-8.23c.69-1,5.37-8.17,2.8-12.88-.78-1.43-1.61-1.5-6.68-4.5-5.81-3.44-8.72-5.19-9.31-6.83-1.49-4.13,2.72-11.13,8.38-13.81,5.5-2.62,9.87,0,15.21-3.73a15.06,15.06,0,0,0,4-4.35c4.84-7.52-.5-12.42,3.41-21.57,1.62-3.78,3.92-6.21,2.79-8.85-.69-1.61-2-1.73-3.57-3.88a13.62,13.62,0,0,1-2.32-7.13c-.08-4.65,3.3-5.35,6.36-12,2.42-5.21,1-6.34,3.72-13.65,2.13-5.78,3-5.2,4.66-9.63,4.2-11.49-1.54-16.48,3.26-25.92,1.2-2.36,2.67-4.23,3.88-8.22a17.76,17.76,0,0,0,.78-9.47c-.66-2.77-1.62-2.81-3.11-6-.85-1.85-1.28-3.46-2.64-15.06-.74-6.35-.78-7.31-1.86-8.53-2.53-2.86-7.59-3.54-11.33-2.18-3.16,1.16-2.92,2.88-6.52,4.5-1.12.51-5.75,2.61-10.24.63-3.88-1.71-2.19-7.1-6.67-9.94-1.61-1-2.08-.57-3.57-1.32-7.71-3.88-6.77-21.44-6.52-26,.43-8,1.61-6.69,1.7-13,.22-13.75-5.33-19-1.86-23.9,1.74-2.47,3.31-1.42,12.88-6.21.7-.35,7.2-3.6,9.78-5.59,4.24-3.26,3.73-9.3,4-16.15.39-9.79-1.69-13.39.8-15.66,3.48-3.19,9.87,1.73,12.73-1.25,3.08-3.2-3.42-9.82-1.09-20,1.11-4.83,2.94-5,3.42-9.62.58-5.7-1.78-9.19-3.42-14.12-2.28-6.87-.62-8.87-1.08-21-.31-8-2.07-17.08-5.59-35.23-2.28-11.74-2.12-9.39-3.88-18.78-6-31.67-3.77-37-2-39.89a71.1,71.1,0,0,0,6.68-12.26c2.1-5.13,2.41-7.83,1.39-10.24-1.21-2.87-3.54-2.34-4.65-4.66-3-6.3,9.57-18,10.24-18.62,2.57-2.35,5.36-4,10.86-7.3,6.43-3.87,9.65-5.81,12.89-6.51,7.54-1.65,11.16,1.53,14.28-1.25.58-.52,2.26-2.24,2.17-9.77a56.09,56.09,0,0,0-3.73-18.78c-4.13-11.61-6.2-17.42-11-21-6.66-4.9-10.87-1.57-14.59-5.89-6.25-7.28,3.55-19.13-2.79-27.79-2.27-3.09-3.79-1.94-13.5-6.67-3.71-1.8-6.61-3.49-23.59-15.21-11.5-7.94-17.25-11.9-18.47-12.88-6-4.86-15.46-12.51-24.21-24.83-8.26-11.62-4.54-11.35-12.11-21.11,0,0-8.32-10.74-7.45-16.3a5,5,0,0,1,1.4-3.1c1.35-1.25,2.85-.71,3.41-1.71.45-.79.09-1.9-1.4-4.66-2.63-4.87-3.76-5.66-3.41-6.36.92-1.83,8.82,3.35,14.43,0,2.88-1.72,2.9-4.34,7.14-6.21a8.91,8.91,0,0,1,5.12-.93c2.45.39,2.72,1.79,5.28,2.64a10,10,0,0,0,7.61-.62,9.81,9.81,0,0,0,4.5-6.05c.8-3.41-1.1-4.45-.31-7.14,1.06-3.64,4.93-3.17,7.29-6.83,1.46-2.26.67-3.49.31-12.89-.34-9.12.31-10.47-.93-14.43-.65-2.07-1.39-3.51-4.19-8.07-6.7-10.92-8.72-12.92-11.64-18.16s-5.57-10-6.36-15.83c-.16-1.15-1.87-17.15,7-24.37,1.81-1.47,3.75-2.33,4.66-4.81,1.43-3.9-1.81-6-.93-10.24.63-3,2.57-3,8.07-9.31a40.48,40.48,0,0,0,6.36-8.7c1.89-3.71,4.45-8.76,2.64-13.19-1.22-3-3.29-2.91-5.9-7.76-1.14-2.12-1.92-3.57-2-5.59s.49-4.39,4.5-9.62,5.08-4.93,7-7.76c4.42-6.57.28-10.5,4-23.9.2-.71,1.12-3.94,2.49-8.85,2-7.39,2.38-8.76,1.7-10.4-1.36-3.28-5.53-4.55-9.46-5.74-6.64-2-11.53-1-13.2-4.19a8.6,8.6,0,0,1-.46-1.71c-1.29-5.7-.18-7.94-1.24-11.33a12.21,12.21,0,0,0-3.11-5c-2.89-2.94-6.66-3.83-11-4.35-7.19-.85-11.47-.15-17.69.16-16.48.81-22.35-2.31-25.92,2a20,20,0,0,0-3.57,8.54c-.53,3.12.06,4.4-1.09,6.36-1.24,2.14-3.32,3-6.67,4.35-5.17,2.07-5.7.77-10.24,2.79-3,1.32-4.15,2.5-6.37,2.18-1.36-.2-1.65-.76-4.19-1.71-3.17-1.2-3.66-.68-5.12-1.4-4.31-2.11-4.94-8.95-5.12-10.86-.28-3-.49-5.34.93-6.52,2.28-1.89,5.52,1.91,11.33.93,2.84-.48,2.29-1.42,9-4.19,4.45-1.84,5.83-1.89,6.21-3.1.72-2.32-3-6.31-7.29-8.23-7.54-3.38-12.56,1.58-16.61-1.71-3.9-3.16-4-11.57-.47-14.9,1.72-1.63,3.47-1.25,10.09-2.17,7.52-1,6.77-1.73,12-2.33,10.34-1.18,13.08,1.6,21.11-.77,2.77-.82,5.15-1.56,7.3-3.73,4.19-4.26,4-10.5,3.88-13.35-.26-7.39-3.61-13-5.44-16-3.92-6.52-6.54-6.85-8.07-12.42-1-3.47-.45-5.26-2.33-7.91-2.28-3.24-4.54-2.75-6.05-5.75s-.75-6.12-.15-8.84a24.12,24.12,0,0,1,2.48-6.52c1.67-3.13,2.87-9.07,5.28-21,2-10,3-15,3.1-17.23.3-9.48-1.88-16.24,2.17-19.71,1.33-1.14,2.07-.85,4.19-2.64,1.28-1.08,5-4.25,5.13-8.07,0-2.41-1.41-3-5.9-9.63-2.67-3.93-4-5.94-4.5-8.22-.07-.33-1.47-7.26,2.17-10.24,1.4-1.15,2.58-.92,8.85-1.25,9.73-.5,10.71-1.26,11.17-1.7,2.91-2.79,2.25-9.42-.62-13.51-2.68-3.81-7.08-5.11-10.24-6.05-5.52-1.63-7.41-.34-9.78-2-3.73-2.64-3.33-8.89-3.11-14.59,1.05-26.56-2.17-32.75,1.87-44.39,2.54-7.31,3.81-11,7-13.65,1.12-1,2.68-2,3.26-4,.81-2.83-.46-6.77-3.1-8.22-3.23-1.78-5.71,1.68-10.25.62-3.78-.89-6-4.21-8.38-7.92-2-3.08-3.6-6.53-5.9-14.59-3.79-13.33-3.27-17.62-7.45-20.33-.39-.26-4.47-2.82-7.91-1.4-2.72,1.13-2.92,3.88-5.43,4.35-1.43.27-2.23-.46-6.21-2.8-7.77-4.54-9.16-4.34-9.93-4-1.58.64-1.13,2-3.57,4.19-.6.54-3.48,3.14-5.9,2.79-2.75-.39-3.91-4.43-5.9-9.31-6-14.77-10.2-14.17-11.33-23-.85-6.64,1.31-8.78-1.09-12.73-1.07-1.76-2.48-2.94-10.71-6.82-13.09-6.18-14.49-5.54-18-8.85-3-2.85-2.78-4.08-7.91-9.47-3.28-3.44-4.93-5.16-7-6.52-4.1-2.7-5.75-1.9-19.86-5.74a31.06,31.06,0,0,1-9.47-3.88,22.2,22.2,0,0,1-5.28-4.5c-2.08-2.5-2.37-4.17-4.81-11.64-3.11-9.5-3.9-10.63-3.26-13.19.82-3.32,2.49-2.9,4.35-7.14,1.94-4.45,1-6.87,1.86-13.51.79-5.89,1.21-8.83,2.64-10.86,3.3-4.72,7.61-3.36,11.48-7.61,2-2.18,2.37-4.2,3.73-14.12,3.05-22.36,2.1-19.46,3.1-24.06,1.7-7.85,3.42-11.6,2.17-16.6a7.86,7.86,0,0,1-.15-4.19,9.39,9.39,0,0,1,7.14-6.21c2.47-.47,3.24.53,4.65-.16,2.08-1,2.46-4.16,2.8-9.62.7-11.38,1-17.15-1.09-21.57-.46-1-.1,0-4-6.21-4.14-6.49-5.24-8.64-8.07-11.18-2.29-2-4.37-3.91-6.83-3.57-1.33.19-2,.91-6.06,4.35-2.74,2.32-4.12,3.48-4.5,3.72-4.4,2.85-9.63,2.22-12.57,1.87-1-.12-4.46-1.33-11.33-3.73-5.84-2-6.95-2.48-7.91-3.88s-.62-2.17-2-8.22c-1.09-4.71-1.59-5.42-2.18-5.9-1.87-1.57-4.19-.52-7.76-.31s-3.68-.69-17.22-4.66c-8.22-2.4-5.42-1.27-10.4-2.79-3.89-1.19-6.74-2.23-10.71-1.86-3.27.3-4.64,1.31-5.12,1.7-1.57,1.27-3.27,3.78-2.8,6.21.56,2.88,3.66,3.09,4.81,7a4.15,4.15,0,0,1,.16,3.1c-.8,1.6-3.1,1.73-8.38,2.48-2.72.39-5.29.81-6.83,1.09-6.57,1.2-9.85,1.79-11,3.72-1.61,2.67,1,5.13-1.09,8.7-.74,1.29-2.27,3.06-3.57,2.79-1.73-.36-2.3-4.24-2.79-7.76-1.13-8.14.42-11.2-1.71-13-.88-.76-3.13-.67-7.6-.46-8.78.4-10.42,1.54-11,2-1,.8-1.83,1.84-3.42,5.9-3.69,9.45-5.79,14.82-5,21.73.42,3.53,1.42,5.89,0,7.3-1.2,1.19-2.72.3-7,.77a20.82,20.82,0,0,0-8.69,2.64c-2.14,1.3-2,1.92-5.27,4.5a53.73,53.73,0,0,1-5.59,3.73c-2.52,1.53-3.38,1.9-12.73,6.51-4.24,2.1-6.19,3.07-7.91,2.18s-2.12-2.83-2.8-2.64-.43,2.43-.77,4.81c-.42,2.92-1.51,4.25-3.26,7.61-4.55,8.68-3.24,11.18-6.21,12.72a8.56,8.56,0,0,1-8.54-.93c-2.69-2-1.31-4.17-4.19-7-2.29-2.24-3.82-1.54-8.38-4.81-2-1.43-3-2.14-3.41-3.11-1.59-3.51,2-7.09.31-9.16-.75-.91-1.67-.49-4-1.39A14.27,14.27,0,0,1,973.71,65.57Z"/></g></g></svg>