<svg xmlns="http://www.w3.org/2000/svg" viewBox="0 0 2375.63 2129.02"><g id="Layer_2" data-name="Layer 2"><g id="Greece"><path d="M367.85,386.42c-.73.95-5.42,7-11.87,7.13-3.07.07-3.53-1.27-7.91-1.27a18.1,18.1,0,0,0-6.34,1c-5.71,2.12-8.4,7.77-10.13,11.4a24.45,24.45,0,0,0-2.85,10.13c-.15,4.65,1.37,6.33.32,10-.34,1.19-.79,2-4.59,6.65-6.51,8-7.52,8.51-8.87,11.4a27.18,27.18,0,0,0-2.21,9c-.67,5.78.58,7-.32,13a23.21,23.21,0,0,1-2.37,8.08c-2,3.72-3.37,3.39-4.59,6-2.15,4.64,1.2,7.69.79,14.41a22.57,22.57,0,0,1-3.8,10.76c-.73,1.16-6.8,10.59-16.78,11.88-8.05,1-10.55-4.27-17.89-1.9-4.3,1.38-5.24,3.78-9.18,3.64-4.29-.16-5.5-3.08-9.5-2.69-4.19.4-6.92,4-7.12,4.27-3,4.07-.38,7-3,12.82-.64,1.39-3,6.64-7.44,7.6-3.74.82-6.45-2-8.55-.47-1.39,1-1.52,3.17-1.42,5.22.54,11.78,8.78,22.67,9.49,23.59,4.95,6.39,7.83,7.66,8.24,12.19.23,2.59-.44,5.24-1.43,9.18-.93,3.69-1.42,5.56-2.85,7.12-3.06,3.34-7.92,3.34-8.55,3.33-7.42-.12-10.92-7.05-13.77-5.54-1.88,1-2.26,5-1.27,7.75,1.15,3.14,3.61,3.18,4.75,6.65a10.6,10.6,0,0,1,0,6c-.61,2.45-1.8,3.95-4.11,6.8-3.74,4.62-4.74,4.22-6.49,7.29-1.85,3.22-1.17,4.39-3,6.33s-4,2.39-6.65,3c-2.22.52-7.86,1.82-13.61-.47-1.57-.62-2.39-1.21-3-.79-1.36.93-.45,5.92,2.06,9.65,2.36,3.52,4.8,3.93,4.9,6.34.07,1.61-1,2-2.69,4.9a21,21,0,0,0-3,10.45,12.1,12.1,0,0,0,1.74,7,11.7,11.7,0,0,0,6.17,4.59c2.85.83,3.77-.24,7.92.63,2.33.49,3.61.76,4.59,1.9,2,2.32,1.5,6.81-.64,8.39-1.64,1.22-3.79.36-4.11,1.27s1.37,2.22,2.53,3.16c2.77,2.26,4.1,2.11,5.07,3.8.56,1,1.09,2.81.31,4-1.09,1.62-3.6.28-5.85,1.9a6.65,6.65,0,0,0-2.38,5.7c.31,3.86,4.34,6.43,6.17,7.6,2.84,1.81,4.17,1.54,5.07,3.16,1.09,2-.17,3.61-.32,6.65-.19,3.91,1.6,6.85,3.8,10.45a29.31,29.31,0,0,0,9.18,9.34,45.89,45.89,0,0,0,6.49,3.17c4,1.72,6,2.59,8.24,3a28.47,28.47,0,0,0,11.39-.47c4.35-1,5.46-2.24,6.81-1.43,1.84,1.11,1.71,4.55,1.43,10.14-.38,7.45-1.52,7.64-.8,10,1.36,4.35,5.37,3.77,11.88,10,1.31,1.25.88,1,8.07,10.13,4.92,6.24,7.41,9.38,8.55,10.45,1.75,1.64,5.65,4.21,13.45,9.34,5.19,3.41,7,4.5,8.87,7.12a21.3,21.3,0,0,1,3.48,8.71c1.94,9.77-2.47,14.82.48,21.05a30.39,30.39,0,0,0,3.95,5.7c2,2.48,2.64,2.64,3,2.54,1.41-.39.36-4.83,2.38-5.86.94-.49,1.47.34,4.43.95s3.45,0,6.65.63c2.45.51,3.4,1.13,3.64.79.42-.61-2-3.56-5.23-5.69-4.05-2.71-5.92-1.82-8.54-4.44-.76-.75-3.08-3.05-3-6,.06-2.65,2-3,4.91-8.71a33,33,0,0,0,2.21-5.7c1.09-3.76.74-5,.32-5.7-.71-1.21-1.56-.92-2.22-2.06-1.14-1.94-.12-5.37,2.06-7.12,1.47-1.17,3.09-1.29,4.91-1.42s4-.3,5.86.95c2.81,1.91,3.1,5.77,3.16,6.65.23,3.09-1.08,3.78-.47,6,.69,2.56,3.36,5.13,5.38,4.75,2.82-.53,2.38-6.42,6-7.6,1-.31,2.39.16,5.23,1.11,5.85,2,8.77,2.94,9.5,4.91,1,2.69-1.65,5.46-.48,6.49s3.46-1.1,5.07.16a6.31,6.31,0,0,1,1.42,2.37c.6,1.31.51,1.6.79,2.06,1,1.56,3.64.89,7.28,1.26,5,.52,6.9,2.53,8.08,1.43s-.65-3.15.63-5.86c.61-1.29,1.83-2.13,4.28-3.8s3.7-2.53,4.9-2.69c4.16-.54,7.79,4,8.23,4.59,2.87,3.7,1.12,5.48,4.12,9.34,2.34,3,4.39,3.21,4.91,5.86a10.21,10.21,0,0,1-.79,5.22c-.78,2.28-1.57,3-2.22,4.44-1.38,3.16-.55,6.39,0,8.54,1.12,4.4,3.2,5.77,6.65,13.62.52,1.19,1.26,2.94.47,4.27a3.83,3.83,0,0,1-3.64,1.59c-2.77-.35-3-3.73-6.8-7.29-2.25-2.09-6.29-4.78-8.08-3.64s.55,5.92-2.06,8.55c-1.39,1.4-3.43,1.42-5.22,1.43-4.78,0-11-2.62-11.87-6.81-.65-3,1.81-5.46.63-6.65s-4.22,1.12-6.17-.32c-1.68-1.23-.32-3.59-1.9-5.22-1.9-2-6.1-.88-10.77.32-.8.2-2.81.87-6.8,2.21-6.64,2.23-8.6,2.94-10.29,1.9s-1.58-2.66-3-2.85-2,1.47-4,2.53c-3.77,2.11-6.76-1.39-10,.48a7.42,7.42,0,0,0-3,7.6c.65,2.57,3,3.21,2.69,5.06-.16,1.11-1.1,1.62-3.64,3.49a49.34,49.34,0,0,0-5.22,4.11c-3.32,3.4-2.87,9-2.69,11.08.2,2.55.78,9.69,6.33,12.67,4.17,2.23,9.46,1.22,12.82-.95,4.76-3.08,5.17-8.17,8.07-8.08,2.08.07,3.58,2.75,4.44,4.28.66,1.19,2.38,4.77,1.26,8.55-.78,2.64-2.51,3.89-1.9,4.9s2.64.08,3.8,1.27,0,2.5.16,5.54c.2,3.24,1.69,5.82,3.64,9.18.32.55.79,1.32,1.43,2.22,1.31,1.85,2.12,3,3.16,3.64,1.94,1.21,3.34-.12,7,0,1.62.06,5.87.2,7.75,2.69,2.16,2.84-.87,6,1.27,9.82,1.4,2.51,3,1.71,5.54,4.59,2.9,3.26,4.53,8.39,3,12.34-.83,2.15-1.76,1.79-3,4.12-2.54,4.73-1.74,11.83,2.22,14.88.41.32,2.76,2.13,4.9,1.43s1.92-2.83,4.75-6.34c1.5-1.84,3.52-4.35,5.54-4a3.84,3.84,0,0,1,2.7,3.32c.19,2.23-2,3.08-3,5.86-.66,1.89-.17,3,.63,7.12,1.93,9.84.54,10.64,2.53,13.3.77,1,3.13,4.18,7,5.06,1.62.38,3.14.27,4,1.43a3.3,3.3,0,0,1-.16,3.8c-1.61,1.72-5.08-.44-6.49,1.26-.79.95-.51,2.57-.32,3.65.33,1.86,1.06,2,1.11,3.16.09,2.09-2.28,2.61-3.8,5.54A8.61,8.61,0,0,0,400,1041a7.93,7.93,0,0,0,5.86,5.23c2.3.46,4.43-.38,6.64-1.27,2.61-1,2.66-1.71,4.12-1.74,2.46-.06,4.86,1.78,5.86,2.53,1.42,1.08,1.63,1.65,2.53,1.74,1.71.18,3.21-1.62,4-2.53,1.91-2.31,1.72-3.73,3.16-6.33.69-1.23,2.09-3.75,4.44-5.07,4.57-2.56,9,1.59,11.71-.79,1.42-1.23.29-2.38,1.74-8.07,1.24-4.84,2.44-5.52,2.06-8.07-.21-1.46-1.2-3-3.17-6-2.58-4-3.32-4.19-4.11-6.33-.22-.59-2-5.46,0-7.13s6.51.88,8.23,2.06a14.8,14.8,0,0,1,4.43,4.91,15.55,15.55,0,0,1,2.22,7.6c.05,4.07-1.75,4.43-1.58,7.91.13,2.92,1.59,6.77,4.59,8.55,3.18,1.89,5.38-.18,7.91,1.9s1.73,5.27,3.8,5.86c1.68.47,2.57-1.53,5.38-1.27a9.22,9.22,0,0,1,3.49,1.27,10.24,10.24,0,0,1,3,2.21,8.84,8.84,0,0,1,1.9,5.07c.68,5.72-2.07,7.93-.47,10.45,1.18,1.86,3.66,2.16,4.11,2.21,2.31.28,4.12-.87,6.81-2.69,6.13-4.14,6.34-4.65,8.55-6,3.77-2.32,7-3.23,12.51-4.75,5-1.39,7.51-2.09,9.34-1.9,5.83.61,7.23,4.59,14.08,5.22,2.25.21,4.22.39,6-.79,3.16-2.08,1.39-5.51,4.59-9.65,3.79-4.92,10.4-5.48,11.4-5.55a9.12,9.12,0,0,1,2.69.16c3.6.9,3.84,3.95,6.33,5.07,4.86,2.18,13.09-5.28,14.25-6.33,3.54-3.21,3.63-4.82,6-5.39,3.43-.81,5.54,1.94,10.61,4,6.16,2.46,7.24.07,14.09,1.74s11.94,5.53,19.31,11.08c5.88,4.43,7.75,6.8,10.61,6.18,3.4-.74,3.26-4.64,8.7-7.6,1-.53,5.82-3.16,9.19-1.27,2.14,1.21,1.38,2.94,3.48,4.59,3,2.37,5.68-.31,13,.8,4.12.62,5.43,1.8,7.6.79a6.64,6.64,0,0,0,3.64-5.07c.19-1.92-.89-2.28-1.11-4.75-.12-1.39.11-2.4,1.43-6.33s1.76-4.93,2.37-6.81c2.15-6.55,1.18-8,2.37-8.7,3.59-2.22,16,8.16,23.75,20.89a132.55,132.55,0,0,1,7.12,13.93c3.93,9.1,5.16,15,7,14.88s2.71-5.59,3.17-8.07c1.16-6.38-.32-8.08,1.42-12,1.06-2.41,2.52-3.84,5.07-6.33,3.63-3.57,5.52-5.42,8.07-5.39,4.45.07,7.56,5.9,8.39,7.44,2.81,5.27.66,7,3,10.93.73,1.24,1.9,2.7,14.09,9.18,6.46,3.44,9.73,4.94,9.65,7.12-.06,1.89-2.56,2.41-3.32,5.7a7.29,7.29,0,0,0,.47,4.91c1.87,3.36,7.56,4.21,11.72,3.32,4.79-1,5.91-4,9.49-3.32a7.39,7.39,0,0,1,4.6,3c.75,1.12.75,1.92,1.26,4.75s1.43,7.16,1.9,7.12-.76-4.43,1.58-7.12c1.5-1.73,3.76-2,7.44-2.38a33.85,33.85,0,0,1,9.66.32c5.5,1,8.83,1.58,10.77,4.27a36.4,36.4,0,0,1,3.32,6c.62,1.46.77,2.12,1.42,2.37,1.48.58,3.68-1.6,6.5-4.43,3.48-3.5,3.85-4.73,5.22-4.75,2.17,0,4.49,3,5.07,5.86s-.86,4.21.15,5.54,2.5.65,6.81,1a46.22,46.22,0,0,1,8.87,1.58c4.14,1,6.22,1.58,6.64,3,.49,1.64-1.16,3.81-2.69,4.91-2,1.46-4,1.1-4.11,1.9-.21,1.11,3.58,1.63,5.06,4.43,1.27,2.38.42,5.61-.79,7.6-2.08,3.43-5.35,3.38-12.19,6.65s-5.35,4.12-9.65,5.69c-6.19,2.27-11.84,1.42-20.27.16-4.55-.68-6.82-1-9.18-2.21-4.77-2.42-6.17-5.62-9.18-5.23-1.77.23-1.54,1.37-5.22,4.12-4.51,3.36-7.19,3.41-8.24,6.17a6.39,6.39,0,0,0-.15,3.64c.57,2.84,2.75,5.38,14.24,13.3,2.48,1.71,3.77,2.55,4.28,4.27,1.1,3.76-2.65,7.83-3.17,8.39a15.8,15.8,0,0,1-7.28,4.28c-2.54.81-10.89,3.48-19.79.16-2.06-.77-4.63-2-16.94-15.2-10.22-10.93-10.25-12-14.88-15.67a86.88,86.88,0,0,0-17.09-10.29c-6.57-3.23-10.62-4.45-18.21-8.87-4.13-2.4-6.19-3.6-7.76-5.06-3.35-3.14-4.45-5.86-7.44-6.18a23,23,0,0,0-4.59.8c-3.3.71-4,1-5.22,1.26-3,.56-3.81-.38-10.29-1.58-6.82-1.26-7.5-.51-9.18-1.9-2.34-1.92-1.74-4-4.59-6.65a14.43,14.43,0,0,0-5.23-3c-6.68-2.51-9.27.06-16.78-1.42-3.33-.66-5.91-1.86-11.08-4.28-5.35-2.49-8-3.74-9.5-5.38-4.34-4.83-2.39-9.64-7.12-13-1.3-.91-2.6-1.3-5.22-2.06-6.22-1.81-7.3-.15-10.77-1.58-2.36-1-2.09-1.84-9.81-9.81a43.6,43.6,0,0,0-4.75-4.6c-4.34-2.8-6.65-1.12-14.09-2.85-6.65-1.54-7.5-3.5-12.51-3.32a24.63,24.63,0,0,0-7,1.43c-3.74,1.2-4.47,2.17-9.82,4.74-6.12,3-6.56,2.35-8.54,4-2.91,2.36-3.65,5-5.55,9.82a172.55,172.55,0,0,1-9.34,19.15c-3.56,6.33-5.41,9.55-8.86,11.87-3.82,2.58-7.92,3.41-11.4,4.12a33.16,33.16,0,0,1-11.08.79c-2.32-.27-6.59-2.19-15-6-9.68-4.39-10.86-5.3-12-6.81-1-1.3-2.27-3.42-3.48-3.17-1,.21-.94,1.83-2.53,4-.83,1.1-2.15,2.87-4,3.17-3,.48-4.69-3.42-7.28-2.85-2,.42-2.92,3-3,3.32-1.94,5.55,5.45,11,3.16,15.51-.57,1.16-1.53,1.77-1.74,3.49-.27,2.2,1.05,3.24.48,4.27-.86,1.55-4.09-.27-6.49,1.43-1.68,1.18-1,2.73-3,7.75-1.47,3.72-2,3.28-2.69,5.7-1.22,4.22.22,6-.48,9.5s-2.75,5.45-5.54,8.23c-7.51,7.5-12.45,5.58-17.25,12-3.15,4.24-2.09,6.5-4.91,7.92-4.84,2.43-9.94-3.25-14.25-.64-1.82,1.11-2.43,3.28-3.64,7.6s-2.55,9.11-.79,13.78c.49,1.28,1.87,4.32,9.82,9.18,11.62,7.11,15.8,5,23.11,10.92a35.52,35.52,0,0,1,9.5,12.51c2.51,5,7.07,14.16,3.64,21.68-1.28,2.8-3.3,4.59-2.54,5.86.9,1.49,4.16-.22,9.19.32,6.28.66,10.88,4.36,13.14,6.17,3.68,3,3.37,4.12,7.75,8.07a58.75,58.75,0,0,0,9.34,6.65c4.4,2.79,13.44,8.52,20.42,16,4.29,4.59,6.55,8.5,10.13,14.72,1.82,3.15,3.88,7,10.61,23.59,5.29,13,7.94,19.57,8.55,23.43,1.22,7.8,2.61,16.68-2.06,24.38s-11.19,7.14-19,17.09a45.86,45.86,0,0,0-6.8,12.19l3.48,33.09a59,59,0,0,0,7.28,11.87c3.24,4.09,4.68,4.73,10.93,12,.2.24,3,3.58,6.33,8.39,3.72,5.46,4,7,3.95,8.23-.19,3.42-3,4-4.9,7.92-2.6,5.36-.8,11.22.47,15.35,1.53,5,3.45,11.21,8.55,13.3,4.71,1.93,7.26-1.7,15.51,0,2.91.6,6,1.24,7.92,3.8,2.6,3.53-1.08,7.7,1.42,10.92,1.9,2.45,4.48,1,6.81,3.65,2.8,3.23,1.38,8.06,2.85,8.39.5.11,1-.38,2.69-2.54a60.18,60.18,0,0,0,5.54-8.07c2.06-3.59,2-4.1,3.48-6,1-1.35,1.49-1.63,1.9-2.69a8.68,8.68,0,0,0-.31-6.17c-.7-1.74-1.37-2.06-2.22-3.48-1.64-2.77-1.51-5.65-1.42-7.92.45-12,.67-18.06.31-22.79-.73-9.67-3.38-12.19-1.1-17.26,1.42-3.18,3.69-4.93,7-7.44s8-4.42,17.41-8.07c5.72-2.23,6.63-2.43,7.76-2.54,3-.28,4.37.36,12.51,2.22,7.68,1.76,8,1.54,8.86,2.37,4.25,4,2.29,13,1.43,16.94-1.7,7.81-4.54,9.86-3.17,14.41.13.41,1.56,4.94,5.7,6.49,1.71.64,4.78,1.1,6.49-.48,1.25-1.14,1-2.63,1.74-2.85,1.64-.46,4.73,5.81,5.22,6.81,5.41,10.83,8.84,9.08,15,19.79,4.44,7.66,9.22,15.92,10,26.12.17,2.41.28,6.92,3.32,9.34.9.71,4.21,3,7.76,2.22,1.11-.24,1.69-.65,2.06-.32.86.77-.91,4.43-3.17,9-1.38,2.81-1.92,3.61-1.58,4.75.65,2.23,3.69,2.56,3.64,4.12,0,1.26-2,1.43-2.85,3.48a5.43,5.43,0,0,0,0,3.48c.79,3,3,3.43,4,6.81a11.74,11.74,0,0,1,.31,1.9c.39,3.36-.24,5.18-.63,8.39-.69,5.66.33,7.71-1.27,8.86-1.1.8-1.95.07-3.16.95-1.68,1.22-1.73,3.8-1.74,6.34,0,4.28,0,7.16,1.89,8.86,2.37,2.08,4.73-.19,8.71,1.74,2.26,1.1,1.9,2,6.33,6.49,5.45,5.5,7.58,5.69,8.39,5.7a6.33,6.33,0,0,0,4.75-1.9c1.69-2,1.14-5.11-2.85-17.57-2.38-7.46-2.16-6.28-2.53-7.76-2.79-11.07-.58-19,1.11-25,.94-3.37,2-5.77,3.64-6,1.25-.19,2.84.84,3.64,2s.64,2.67.95,2.69,1.7-2.69,1.27-5.69c-.49-3.37-2.57-3.56-2.69-6.65,0-.36-.11-3.93,2-5.7.57-.46,1-.6,1.43-1.27.7-1.2.24-2.58,0-3.64a15,15,0,0,1,.16-6.49c1-3.49,4.85-2.67,7.91-6.17,3.7-4.23.49-8.22,4.28-16.94,1.23-2.85,2.17-5,4.43-6.65,2.73-2,5.14-1.61,13.61-1.43,10.23.23,12.07-.22,20.58.48,5.25.43,7.9.66,9.18,1.58,4.67,3.36,1.37,8.25,6.33,18.37,2.1,4.27,5.26,8.63,4.12,12-.47,1.41-.84,2.85-1.27,4.27-.76,2.56-.94,3.07-.63,3.48.88,1.19,4.87.58,5.86-1.42.68-1.39-.27-3.06,0-3.17s1.22,2.4,3,4.75c2.65,3.49,4.36,2.76,6,5.54.73,1.23,1.07,3.36,1.74,7.6.51,3.2.42,4,1.27,5.23,1,1.46,2.1,1.54,4.59,3.16a22.48,22.48,0,0,1,4.75,4c2.06,2.48,1.32,3.9,3.32,10.45,1.76,5.71,3.12,7.21,3.64,7.75.29.3,3.82,3.83,6.65,2.85,1.25-.43,1.3-1.36,2.54-1.74,1.64-.49,3.15.67,5.69,2.38,6.91,4.63,8.08,4.34,9,6.49.63,1.44,0,1.31.79,5.7.6,3.26.89,4.89,1.9,6.49,1.11,1.76,2.45,2.66,5.06,4.43a20.28,20.28,0,0,0,5.55,2.85,19.65,19.65,0,0,0,4.59.79c7.67.63,11.53.93,12.19-.16,1-1.63-1-5-3.17-7-3.34-3-6-1.61-9.18-4.75-.43-.42-3.34-3.31-2.85-6.49.36-2.39,2.27-2.54,2.85-4.91.74-3-1.59-6.09-3.48-8.55s-2.74-2.65-7.29-6.81c-4.29-3.93-3.79-4-7.91-7.75-5.16-4.69-5.8-4.42-7-6.49-1.48-2.64-.34-2.85-2.06-10.29-1.1-4.77-2-6.48-.94-8.55a13.62,13.62,0,0,1,2.84-3.8c1.1-1,1.82-1.19,1.9-1.9.14-1.09-1.39-1.75-3-3.32-.88-.86-3.76-3.67-3.49-6.34.13-1.24,2.15-2.85,6.18-6,3.08-2.43,3.83-2.77,4.75-2.69,2.46.2,3.35,3.21,4.75,2.85,1.06-.28.8-2.11,2.37-5.7,1.37-3.15,2.31-3.43,2.06-4.44-.75-3-9.67-2.46-10-4.74-.12-.86,1.12-1.18,3.32-3.8,2-2.4,3.05-3.64,2.85-4.91-.4-2.52-5.27-2.11-8.39-5.86-1.78-2.13-2-4.47-2.38-7-2.24-16.49-3.36-24.74-7.44-29.61-1.56-1.87-4.07-4.1-4.59-7.91-.29-2.17.38-2.47.48-5.86a29.06,29.06,0,0,0-1.74-10.29c-1.52-4.11-2.42-3.34-3.8-7-1.89-5-.3-6.67-2.22-13.3-1-3.38-1.49-5.09-3-6-2.15-1.32-4.25-.12-8.54-1.26-2.21-.59-3.32-.89-4-1.59-3.23-3.46,3.6-11,1.58-19.78-.64-2.83-1.65-3.39-4.43-7.92-5.22-8.49-4.34-10.82-11.4-27.7-4.28-10.24-6.47-15.4-8.86-17.41-3.45-2.9-9.3-5.89-8.87-9.5.1-.8.43-1,.95-3.17a30.34,30.34,0,0,0,.79-5.54c0-1.55-.08-4-2.21-9.81-1.88-5.15-2.49-5.26-3.49-8.24-.67-2-.81-3.2-1.26-13.61-.28-6.43-.41-10.25.47-15.36.68-3.9,1.45-5.7,3-6.49,2.17-1.09,4.9.25,6.33,1s3.64,2.08,6.65,6.18c4.17,5.68,3.35,7.72,7,11.24a13.73,13.73,0,0,0,6.49,4c3.88.92,9.2,0,11.39-3.17,1.28-1.87.88-3.63,2.22-4.12,1.79-.64,4.25,1.87,4.59,2.22,1.65,1.69,1.32,2.59,2.38,3.8,2.93,3.34,8.65,0,11.08,2.85,1.31,1.55-.2,2.73,1.26,7.91,1,3.45,2.12,4.58,2.69,5.07,1.15,1,3.36,2.19,4.91,1.42,1.35-.67,1.22-2.36,2.22-2.53s1.69,1.36,3.16,3c.47.52,3.29,3.68,7,4.59,3.17.78,4.19-.8,6.81.32a8.19,8.19,0,0,1,3.95,3.95c1.92,4.21-.56,9.51-3,12.51-3.67,4.51-7.68,4.37-7.92,7.28-.21,2.52,2.6,5.07,4.75,6.17,2.7,1.4,3.64.16,5.86,1.43,3.39,2,2.31,5.51,6,7.91,1.47,1,4,1.94,5.38.95s.37-3,2.06-4.59c.6-.54.71-.27,4-1.58a16.26,16.26,0,0,0,3-1.42c1.25-.84,2.41-1.62,2.53-2.7.21-1.88-3-2.7-2.85-4.43.11-1.21,1.76-1.47,4.75-3.64a33,33,0,0,0,4-3.48c4-3.85,4.68-5.9,6.17-5.7,1.66.22,1.85,2.9,3.48,3s2.12-2.06,4-3.49,3.84-1.25,10-.79c10.13.78,12.76.86,15.52.79a39.4,39.4,0,0,0,7.6-.79c3.56-.74,5.43-1.13,7.28-2.53,3.91-3,6-9,4-11.87-.63-.88-1.39-1.09-3-1.74-6-2.45-5.22-3.58-11.4-6.34-3-1.35-5.22-2-9.66-4.27-1.43-.75-3.83-2-3.64-3.17s2.8-1,3.8-3.16a3.2,3.2,0,0,0,.32-1.74c-.22-1.72-2-2.74-2.53-3-2.7-1.51-5.08-.16-12.67.79a25.65,25.65,0,0,1-6.33.32c-.88-.11-7.07-.88-8.23-4.28-.25-.74,0-.88-.48-3.32-.33-1.82-.51-2.74-.95-3.33-1.05-1.43-3.05-1.31-4.9-1.58-2.18-.32-4.25-1.64-8.39-4.27-5.92-3.77-8.88-5.65-10-8.87-.85-2.5.15-3.14-.95-7.6-1.06-4.31-2.07-4-2.05-6.17,0-4.43,4.36-5.89,4-10.45a7.42,7.42,0,0,0-1-3c-1.7-3-4.45-2.75-7-4.74-3.62-2.88-5.12-9-3.17-11.56,1.75-2.25,5,0,7.92-2.22,4.13-3.12,4.34-12.91-.32-17.73-1.9-2-4.8-2.63-10.61-4-4-.92-6-1-14.72-2.38-7.25-1.13-8.93-1.54-10.13-3.16-1.75-2.37-1.19-5.56-.63-8.71a16.72,16.72,0,0,1,4.27-9.18,12.81,12.81,0,0,1,6-3.8c3.35-.88,4.92.48,9.18,1,1.88.21,8.07.89,12.82-2.06s3.33-6.78,8.23-9.81c2.69-1.67,3.54-.79,11.56-2.38,8.28-1.65,7.88-2.69,12.66-3.17,8.28-.82,9.2,2.33,15,1,5.38-1.26,4.66-4,13.14-8.23,6.15-3.1,7.26-2.06,13.14-5.38s5.15-4.5,9.66-6.49a24.84,24.84,0,0,1,15-1.74c3.24.7,7,1.5,8.7,4.75a9.54,9.54,0,0,1-1.42,10.29c-2.61,2.86-5.76,1.77-7.28,4.59a6.44,6.44,0,0,0,.63,6.65c.78,1,2,1.67,10.92,2.53,3,.29,4.82.46,7.92.63,8,.45,8.35,0,9.81.79,2.24,1.25,3.53,4.28,6,10.29,2.19,5.31,1.76,5.7,3.32,8.71,2.79,5.36,4.49,4.72,7.12,9.34,4.06,7.1,2.43,12.76,5.86,13.93a5.65,5.65,0,0,0,4.75-1c1.88-1.38,1.29-3,2.53-3.8,3.54-2.15,13.75,8,17.1,11.4,2.24,2.24,2.88,2.54,3.32,3.48,2.41,5.11-2.74,10.48-.15,13.93.61.82.7.27,4,2.38s5,3.22,5.7,4.75c.29.59.46,2.88.79,7.44.15,2,.17,2.55.64,3.16.65.86,1.54,1,5.85,1.9,4,.8,4.09.83,4.44,1,2.92,1,3.46,2.18,4.9,1.9.92-.17,1.21-.72,3.17-2.85,3.19-3.46,3.41-3.09,4-4.11,1.4-2.64-.33-4.58-.48-8.55-.12-3.23,1-3.28,3.33-10.77,2-6.48,3.09-10,2.06-14.09-.58-2.28-1.07-1.83-3-6-3.68-7.9-1.91-9.43-4.91-14.56s-6.36-6.46-5.7-9.19c.6-2.43,3.64-2.66,3.8-4.9s-2.66-2.73-4.91-6.18c-3.36-5.14-2-11.44-1.9-11.87s1.17-2.89,3.33-7.92c1.72-4,2-4.53,1.9-5.54-.22-3.27-3.22-3.57-5.7-7.75-2-3.31-.6-4-2.85-12.19-1.5-5.45-2.24-5.66-2.06-7.92.24-2.91,1.9-5.1,5.23-9.49,3.11-4.11,4.66-6.16,7.28-7.45,3.7-1.81,5.4-.45,7.28-2.21,2.66-2.5,2.47-8.28.32-12.35-2.67-5-6.78-4.48-12.83-10.13-5-4.68-3.32-6.13-7.75-10.76-2-2.12-4.11-3.63-24.7-11.88-9-3.58-11.63-4.53-14.25-5.38a111.93,111.93,0,0,0-14.4-4c-5.67-1.1-6.09-.64-9.18-1.74-3.86-1.37-6.27-3.18-11.08-6.81-5.93-4.46-6.48-6.11-6.65-7.12-.4-2.37.89-3.47,0-5.54-.78-1.81-2-1.44-5.07-4.12a81,81,0,0,1-5.54-6.49c-1.11-1.35-1.44-1.78-1.58-2.53-.4-2.1,1.38-2.94,2.06-5.7.59-2.45.14-5.7-1.9-7.6a6,6,0,0,0-3.64-1.58c-1.14-.05-2.1.39-4,1.27-2.11,1-2.46,1.47-4.12,2.21a16.58,16.58,0,0,1-4.11,1.27c-4.08.58-5.17-2.67-11.24-4.27-3.32-.88-3.6-.07-8.23-1.27-2.81-.73-3.08-1.12-5.55-1.58a18.13,18.13,0,0,0-7.75-.32c-3.1.68-4.26,2.13-5.38,1.42s-1-3-.95-4.11c.2-3.11,1.6-3.6,1.58-5.54,0-3.06-3.56-5.46-6-7.13-4-2.73-6.65-2.75-6.8-4.27s2.37-2.08,5.38-5.22c1.72-1.81,4.67-4.9,4.59-8.71-.09-4.11-3.68-8.26-7.6-9.18-4.14-1-5.62,2.36-9.66,1.11-1.34-.42-3.42-2.24-7.59-5.86-3.22-2.8-3.36-3.12-4.12-3.17-3.64-.23-4.64,6.87-10,7.92-2.88.56-4.88-1-6.18.31s.14,3.62-1.26,5.07c-1.17,1.21-3.53,1.07-5.07.48-2.08-.8-3-2.55-5.54-8.24-3.29-7.43-4.93-11.15-5.38-13.61-1-5.34.2-6.14-1.27-9.34-.29-.63-2.87-6.05-8.23-7.6-4.48-1.3-5.87,1.56-12.35.63a17.84,17.84,0,0,1-7.6-2.53c-4.09-2.62-4.69-5.78-7.12-5.7-2,.07-2.07,2.23-5.38,3.8-.36.17-5,2.29-8.08.32-1.93-1.23-1.35-2.79-3.48-4.59s-4.72-1.95-6.65-2.06c-5.87-.35-7.83,2.48-10.13,1.11-2-1.19-.88-3.54-3-8.23-.64-1.43-2.57-5.7-6.64-8.08-3.57-2.08-7.21-1.8-12-1.42-4.06.31-4.25.94-11.55,2.06s-9,.75-10.29.15-2.89-2.55-5.86-6.33c-4.83-6.15-4.86-7.22-4.75-7.91.22-1.33,2.21-2.86,6.18-5.86,2.93-2.22,4.4-3.33,5.85-4a20.63,20.63,0,0,1,9-1.42,30.15,30.15,0,0,1,9.34,1.58c5.59,1.9,4.84,3.48,10,5.22a28.63,28.63,0,0,0,13,1.11,26.28,26.28,0,0,0,4.27-1c8.46-2.67,9.25-8,17.42-10.92,1.37-.49,3-.91,6.33-1.74,4.06-1,5.88-1.3,7.76-1.74,3.91-.92,11.34-2.65,16.46-8.23.63-.7-.07,0,4.75-7.44,2.21-3.4,4.29-6.88,6.49-10.29,2.7-4.19,3.46-5.24,3-5.86-.81-1.12-5.23-.44-7.6,2.06-1,1-1.24,1.93-2.69,2.85a8.79,8.79,0,0,1-3.33,1.1c-6.17,1.22-7,1.9-7.6,1.27-1.4-1.44,1.61-6.42,1.75-6.65,2.4-3.93,4.53-3.74,5.54-6.65.29-.84-.12-3.32-.95-8.23-.78-4.56-1.25-6.45-2.69-8.39-.9-1.21-1.35-1.81-2.22-2.21-3.81-1.77-8.31,3.68-10.45,2.21-.79-.54-.55-1.53-.63-6.49-.13-7.56-.74-9-1.74-9.66s-2.06-.51-3.64-.31c-4.81.61-6.72,3.86-8.55,3-1-.45-1.22-1.7-1.59-3.49-.73-3.58.61-4.87.16-7.6s-2.06-2.65-4-6.33a20,20,0,0,1-2.06-9.81c.09-3.83,1.17-6.48,2.53-9.82,1.18-2.89,1.79-4.35,3-5.06,2.51-1.48,4.35.79,9.34.47.91-.06,6.49-.41,8.86-4.11.5-.78.74-1.51,1.11-4,1.3-8.5.22-11.19,1.9-12.82,2.2-2.14,7-.47,8.87.15,9.16,3.16,9.23,10.49,16.3,11.88,4.75.93,5.67-2.19,12.35-1.11a20.89,20.89,0,0,1,9.34,4c3.26,2.55,4.79,5.5,6.17,8.23,3.22,6.37,1.77,8.41,5.07,14.88,1,2,.69.9,4.91,7.6,5.22,8.3,6.1,10.59,5.54,13-.5,2.1-3.14,2.25-3.65,4.91a3.7,3.7,0,0,0,.48,3c1.18,1.33,3.8.73,6.81,0a49.19,49.19,0,0,0,6-2.05c6.23-2.33,6.48-2.44,7.44-2.7,4.21-1.11,4.78-.44,5.86-1.42,2.11-1.91,1.46-5.81.47-11.71a52,52,0,0,0-2.53-9.66,56.94,56.94,0,0,0-4.75-9.66c-9.75-16.53-8-18.21-13.77-24.53-4.68-5.17-6.21-4.49-10.13-9.82-4.22-5.73-2.94-7.19-6.65-13.45-6.5-11-12.6-10.16-16.78-20.43-1.08-2.66-1.39-4.48-3.32-7.12-3.13-4.27-7.22-6.2-10.61-7.76-18.72-8.58-18.51-8.44-18.68-8.54-9.47-6-12.92-16.62-17.1-29.45A125.94,125.94,0,0,1,804.13,618c-1.14-9.72-.13-12.82-2.69-19a38.28,38.28,0,0,0-10.76-14.24c-7.75-6.62-11.22-4.65-15.36-10.13-3.51-4.66-1.33-6.53-5.22-17.26-2-5.41-4-10.93-8.71-16s-6.85-4.16-12-8.55c-7.58-6.41-10.38-14.6-13.14-22.63-2.44-7.14-5.16-15.06-3.48-24.7,1-5.88,2.43-5.2,5.38-15.2,3.62-12.22,1.43-12.93,4.75-21.05,1.92-4.68,5.27-10.87,8.39-16.62,2.25-4.15,3.63-6.48,3.48-9.82-.21-4.75-3.35-7.76-5.54-10.6-.61-.8-6.76-11.33-7.28-23.11-.1-2.25,0-4.1,1.27-5.39,2.65-2.74,7.2.38,9.65-1.9,2.65-2.45-1.08-7.5,1.27-16.46,1-3.94,2.2-4.67,2.85-4.91,1.58-.58,3.16.55,8.07,3.64,7.37,4.64,8.52,5.07,9.34,4.59,1.87-1.06-.55-5.25,2.06-9,1.64-2.36,4.33-3.22,6.65-4,4.18-1.33,5.39-.1,10.13-1.58a28.23,28.23,0,0,0,5.38-2.37c3-1.65,4.75-2.62,6.18-4.44,2-2.58,1.09-4,3.32-9.65,1.35-3.45,2-5.18,3.33-6,4.05-2.61,12.49.74,15.51,6.65a11.6,11.6,0,0,1,1.27,6.33c-.48,4.7-3.87,5.61-3.64,8.39.4,5,11.75,6.25,11.71,10.45,0,1.09-1.38,2.33-4.12,4.75-3.15,2.79-5.1,4.52-7.59,5.7-4.84,2.29-7,.3-15.84,1.11-6.72.61-10.87,1-11.87,3.32-1.68,3.93,8.27,7,13.14,19.47,2.21,5.64,2.51,11,6.65,12.67,1.4.57,2,.23,6,1.1a44.52,44.52,0,0,1,7.44,2.22,28.67,28.67,0,0,1,10.76,7.76c2.91,3.47,2.56,5,4.59,8.23,1,1.51,4.08,5.91,21.37,12.19,12.68,4.6,11.79,2.52,18.36,5.86,9.42,4.76,10.38,8.58,17.73,9.65,2.92.43,6.25.34,8.39,2.85.7.82,1.24,1.87,1.9,6.18.78,5,1.17,7.51.95,11.23C913.79,484,912.08,487,914,489c1.13,1.19,2.67,1.15,2.85,2.22.21,1.34-2.13,2-3.31,3.79-2.77,4.12,2.14,12.28,4.1,15.52,3.34,5.55,5.93,7.07,7.6,12.67.25.85-.1,2.8,1,4.9.91,1.84,1.73,1.82,2,3.17.47,1.93-.73,3.9-2.21,6.33-1.33,2.18-2,2.49-1.9,3.49.11,1.58,2,3.29,4,3.64,3,.51,4.26-2.43,9.66-3.49a19.8,19.8,0,0,1,3.17-.31c5.7,0,9.3,4,13.93,7,2.46,1.6,1.44.47,16.14,5.7,11.68,4.16,12.65,5,17.1,5.54,4.81.6,7.92.16,13.46-.63,1.24-.18,4.57-.69,4.59-1.43,0-1-5.79-.47-9.5-4.43-1.16-1.24-.67-1.37-2.69-4.75-1.6-2.66-3.54-5.91-6.65-8.23a18.81,18.81,0,0,0-6.17-2.85A138.21,138.21,0,0,1,965,530c-4.12-2-14.1-6.76-20.42-16.62-2.55-4-1.68-4.36-5.07-9.65A70.18,70.18,0,0,0,929,490.43c-2.68-2.63-4.33-3.75-5.69-6.65-1.09-2.31-1-3.6-1.75-7.44-1.33-6.71-2.44-6.62-3-10.61-.28-1.91-1.29-9.07,2.85-14.4,3.31-4.26,8.35-5.34,10.13-5.7,7-1.41,14.49,1.95,29.12,8.71,5.4,2.49,9.58,4.67,16,5.06,4.56.28,6.86-.55,9-.63,9.46-.34,9.82,11.77,25.48,28,3.07,3.18,6.24,6.08,8.39,11.4s.57,6.27,2.69,11.87c1,2.51,4.09,9.72,11.09,14.4,3.66,2.46,4.41,1.56,7,4s4,5.35,6.81,10.92c1.44,2.88,2.06,4.46,4,6a9,9,0,0,0,5.38,2.22c.81,0,3.62.13,4.91-1.59s-.18-3.36.15-6.33c.23-2,1.07-3,4.91-7.91,4.82-6.1,7.22-9.17,6.65-10.14-.92-1.55-5.51.6-7.12-1.58-.59-.78-.4-2.17,0-4.91.62-4.35,1.5-5,1-6.64-.65-2-2.1-1.9-2.54-4-.32-1.53.35-2.12.48-4a10.59,10.59,0,0,0-1.74-6c-1.94-2.88-5.49-3.31-8.71-4.11-7.15-1.78-5.24-3.53-20.9-10.92-3.16-1.5-5.87-2.67-11.39-5.39-6.88-3.38-8.4-4.38-9.82-6.17-3-3.82-1.15-5.68-4-10.76-3.53-6.41-7.56-5.37-9.49-10.77-1.33-3.68-.5-7.07.95-13,.78-3.22,1.79-5.52,3.64-7.44a8.27,8.27,0,0,1,3-2.22c3.16-1.23,4.77,1,8.39.8,3.34-.21,3.22-2.17,9.34-4.6a26.3,26.3,0,0,1,7.13-1.9c2.63-.27,4.57,0,8.39.64,6.8,1.13,10.2,1.69,11.55,2.06,7.54,2,12.72,5.83,17.73,9.49,9.37,6.85,10,10.25,15.2,10.77,4.91.48,5.84-2.38,12.19-1.9a22.58,22.58,0,0,1,12,4.75c2.76,2.2,4.1,4.4,6.65,8.7,4.59,7.75,3.91,10.19,7.91,15.36,1.69,2.18,3.56,3.77,7.29,7,7.24,6.19,11.93,8.3,12.19,12.66.1,1.87-.68,2.94.15,4,1.8,2.2,7.74,0,8.55-.32,2.5-.93,6.46-2.41,7.92-5.7,3.22-7.26-8-18.34-9.44-19.82-5.23-5.19-8.08-5.25-12.41-10.73-4.68-5.92-2.12-7.85-5.86-11.08-4.21-3.65-10.72-4.58-15.67-8.87a6.13,6.13,0,0,1-1.58-1.9c-1.56-3,.88-5.42,0-7.91-1-2.85-5.59-3.69-9.66-4.43-5.78-1.06-6.65.31-11.24-.8-2.21-.53-6.79-1.64-10-5.38-2.68-3.15-4.11-7.9-5.54-12.66-.87-2.88-1.16-4.54-2.22-4.75-1.57-.31-4.25,2.74-4.43,5.86-.16,2.72,1.68,3.8,1.11,5.85s-3.2,3.16-4.43,3.64c-1.39.54-5.07,1.72-15.36-1.1-6-1.66-9.08-2.49-12.35-4.91a27.82,27.82,0,0,1-7.44-8.87,32,32,0,0,1-4.74-13.29,30.18,30.18,0,0,1,.31-8.39c.48-3.22.74-4.84,2.06-6,1.11-1,2.26-1,6.81-1.27,7.82-.4,9.34-.53,10-1.58,1.06-1.76-1.19-4.9-1.43-5.22-4.57-6.25-12.23-2.24-20.73-8.39-2.4-1.74-6.34-4.58-8.08-9.5-.93-2.64-1-5.2-3.32-8.07a16.51,16.51,0,0,0-4.12-3.49c-4.35-2.83-6.36-2.11-8.39-4.11s-2.11-4.86-2.21-8.55a26.66,26.66,0,0,1,3.48-14.72c2.84-4.78,6.7-7.09,14.41-11.72,7.51-4.51,11.27-6.92,16.3-6.8a24.54,24.54,0,0,1,10.45,3c4.26,2.16,4.64,3.67,9.5,6.81,2.4,1.56,5.35,2.83,11.24,5.38,9.18,4,12.57,4.63,14.88,4.91a55.78,55.78,0,0,0,15.51-.47,38.49,38.49,0,0,0,13.93-5.86c4.62-3.2,4-4.44,8.39-7.92,7.9-6.29,11.33-3.4,16.31-8.07,6-5.63,2.09-10.86,9-20.9a45,45,0,0,1,10.13-10.13c5.38-4.23,5.46-2.8,17.41-10.29a41,41,0,0,1,10-5.06,26.11,26.11,0,0,1,7.75-1.59A23.74,23.74,0,0,1,1205,244a34.39,34.39,0,0,1,5.69,8.87,22.5,22.5,0,0,0,2.85,5.7,14.73,14.73,0,0,0,4.12,4c3.32,2,7,1.57,8.55,1.43,11.36-1,13.1,3,25.8,1.42,6.77-.86,13.11-1.66,16.78-6.49,2.07-2.72,1.31-4.11,3.8-7.12s4.49-3.31,12.66-7c7.74-3.45,11.65-5.22,13.93-7.44,2.94-2.84,2.95-4.33,6.81-8.23,3.54-3.57,5.28-5.37,7.92-6.33,4.47-1.62,10.11-.93,12.5-.63s4.34.75,4.59.16c.15-.36-.36-.94-3.48-3.49-4.35-3.54-4.94-3.69-5.86-5.06a10.59,10.59,0,0,1-1.74-5.86c0-1.88.61-3,1.74-5.54,3.63-8.06,3.75-9.83,5.07-10,1.48-.17,2.78,1.91,4.75,5.06,3.8,6.08,2.91,8.75,6.49,12.19a10.29,10.29,0,0,1,2.53,2.85,9.93,9.93,0,0,1,.63,6.49c-1.46,8.48-5.77,11.7-4.27,14.41.82,1.48,2.82,1.78,5.7,2.21,5.08.77,7.16-.63,11.4-.79,5.79-.22,5.58,2.29,14.4,3.8,7.64,1.31,8.75-.42,12.83,1.58,4.84,2.38,3.69,5,8.86,7.6,3.83,1.92,5.26.87,12,3.33a53.33,53.33,0,0,1,6.49,2.85c7.43,3.78,8.52,6.29,13.3,8.23,2.63,1.06,5.64,1.2,11.56,1.42l20.73.79c15,1.12,17.19,4.43,30.08,4,5.46-.2,4.77-.78,10.76-.95a76.7,76.7,0,0,1,23.91,2.85,41.07,41.07,0,0,1,12.82,5.7c4.18,2.9,6.53,4,7.28,6.65.83,2.9-.56,5.54,1.43,7.91a5.7,5.7,0,0,0,2.21,1.59c2,.77,3.71.07,8.24-1.59,5.67-2.07,4.52-1.54,6.17-2.21,4.19-1.71,6.29-2.56,8.86-4.28a35.1,35.1,0,0,0,6.81-6,37.11,37.11,0,0,0,4.12-5.7c4.56-7.82,2.58-11.32,6.65-15.83.83-.93.35-.16,6.64-4.59,4.24-3,3.51-2.67,10.29-7.76,6-4.46,7.31-5.3,7.6-7.28.4-2.63-1.64-3.45-1.11-6.33.6-3.23,3.41-3.56,3.8-6.65.24-1.83-.54-3.25-1.9-5.7-2.51-4.55-4.39-4.43-5.38-7.28-1.28-3.72,1.64-4.73.95-9.34-.77-5.19-4.78-6-4.43-10.45.08-1.1.64-2.63,1.74-5.7,1.3-3.59,1.78-3.92,1.74-5.22-.1-3.21-3.17-3.46-3.8-6.49-.8-3.88,3.88-5,4.75-11.56a42.47,42.47,0,0,0,.16-7.44c-.13-2.11-.37-3.48.32-5.22a8.22,8.22,0,0,1,2.69-3.49c1.76-1.33,3.48-1.5,9.5-1.74,7.09-.28,8.63-.2,10.76-1.26a13.42,13.42,0,0,0,4.43-3.8c8.75-10.43,8-15.09,13.14-17.89,3.87-2.11,8.57-1.8,14.25-1.43,5.29.35,6,1.39,8.39.64,5.7-1.82,9.23-10.34,8.86-17.57-.3-6-3-6.46-6.17-14.89-3.85-10.25-3.82-20.09-3.8-25.32,0-10.92,2.22-16.29-1.58-20.11-2-2-4.13-2-7.28-2.85-12.37-3.41-14.73-13.89-25.65-21.37-2.35-1.61-9.22-3.22-22.64-7a99.27,99.27,0,0,1-10.44-3.17c-7.77-3-8.68-4.9-13.78-5.54-4.43-.56-5.27.68-10.13-.32s-5.07-2.51-7.91-2.37c-4,.2-4.24,3.22-11.4,7.12-4.43,2.42-6.55,2.46-7.28,4.59-.58,1.68.24,3.46,1.9,7s2.64,5.58,4.59,7.76c5.24,5.84,10.29,4.32,13,9.65a19.75,19.75,0,0,1,1.58,5.38c.61,4-.53,4.66.32,6.81,1.38,3.51,5,3.28,5.7,6.49.36,1.66-.59,1.78-.95,4.91-.48,4.08,1,5.35.47,8.55-.54,3.39-2.71,3.08-2.85,5.7-.1,1.9,1.36,4.14,4.28,8.54,1.94,2.94,2.25,3,2.37,4,.33,2.59-1.85,3.62-4.43,8.39a37.25,37.25,0,0,0-3,7.6c-1.44,5.09-.55,6-2.06,8.07-1.13,1.58-1.78,1.27-6.65,4.59-3.45,2.37-3,2.45-5.22,3.8-3.19,2-5.81,3.58-9.18,3.64s-3.49-1.36-6.65-.94a15.81,15.81,0,0,0-6,2.37c-1.76,1-1.89,1.43-4.27,3a49.46,49.46,0,0,1-4.91,2.85,38.44,38.44,0,0,1-8.54,3.48c-3.18.8-5.71.74-10.77.63-6.14-.13-9.23-.23-10.45-1.9-1.54-2.11.07-4.68-1.9-6.49a5.71,5.71,0,0,0-4.11-1.11c-2.89.07-4,1.41-8.23,3.65-4.75,2.53-7.13,3.8-10.29,4.43-2.21.44-4.19.5-5.23,2.06-.89,1.33-.12,2.3-1,3.64-1.23,2-4.8,2.87-7.44,1.9-2.84-1.05-2.59-3.53-5.86-4.75a12.15,12.15,0,0,0-4.59-.48c-3.82,0-4,.84-6.64.64-3.07-.24-3.59-1.44-6.34-1.27a10,10,0,0,0-4,1.11c-8.21,3.91-19.69,3.2-33.41,10.92a86.55,86.55,0,0,1-9.65,5.22A42.23,42.23,0,0,1,1378.3,155a31.65,31.65,0,0,1-19.63-2.85,32.26,32.26,0,0,1-9.5-7.6c-3.74-4.19-3.15-5.52-7.13-10.45-2.46-3.05-5.72-7.09-10.92-9.5-4.53-2.09-5.32-.54-12.5-2.21-4.19-1-8.55-3-17.26-7.13-5.89-2.77-7.35-3.68-12.5-5.85-7.56-3.19-10-3.55-11.88-3.65a18.57,18.57,0,0,0-11.55,2.7c-1.48,1-4.75,3.13-5.86,7-.82,2.83.18,4.4-1,5.38-1.76,1.54-6.34-.42-9.34-2.53-3.28-2.3-3.42-3.88-9.66-11.24-3.29-3.88-4.41-4.8-5.85-5.54-3.33-1.71-6.29-1.38-8.87-1.42-1.09,0-10.26-.6-16.15-4.91-5.38-4-7.06-10.34-8.7-16.62-3.51-13.39-3.64-16.78-3.64-16.78-.07-1.65-.09-4.42-1.9-5.7-2-1.44-5.21-.19-6.49.31-5.21,2-4.76,5.15-9.34,7.44-1.92,1-5.19,1.23-11.72,1.75-2.36.18-4.63.27-8.39.79a38.77,38.77,0,0,0-4.75.79c-4.33,1.17-4.9,2.74-9.18,4-2.65.75-4.53,1.28-5.86.31-1.6-1.16-.68-3.26-1.74-7.91-.7-3.11-1.53-6.78-4.27-8.08s-6.29.59-6.65.8c-2.38,1.39-2,2.77-5.06,5.7a32.62,32.62,0,0,1-5.39,3.79c-3.23,2-4.87,3-6.17,2.85-2.08-.3-2.27-2.19-4.75-4.27-3-2.5-8.16-4.38-12.51-2.53a10.82,10.82,0,0,0-5.38,5.54c-.57,1.32-.47,1.9-.95,8.23-.4,5.29-.55,6-1,7-1,2.31-2.5,3.62-4.59,5.39-3.11,2.63-5.77,4.87-10,5.54-1.17.18-6.57,1-10.29-2.06-2.1-1.74-1.64-3.06-3.64-4.12-3.34-1.76-7.67.25-9.18,1-3,1.38-2.53,2.19-5.39,3.8-4,2.26-5.65,1.1-12.66,3.33a29.43,29.43,0,0,0-6.33,2.53c-4.85,2.75-4.9,5-8.55,6.81-2.49,1.23-5.14,1.19-10.45,1.1-7.41-.11-11.14-1.56-12.66.48-1,1.39.1,2.86-1.11,4.43s-3.34,1.69-6.65,1.59A61.4,61.4,0,0,1,968.93,110c-7.6-2.24-6.74-2.76-10.61-3.64-9.63-2.19-18.16.3-23.11,1.74-5.36,1.56-8,2.34-10.92,4.43-2.47,1.79-3.46,3.26-5.07,3-2.9-.45-2.48-5.63-6.49-7.6-3.31-1.62-7.24.11-8.07.48a13.43,13.43,0,0,0-4.91,4c-7,8.12-7.09,11-11.08,13.93-3.1,2.28-6.15,2.8-10.13,3.49-6,1-7.48-.32-16.47-.48-9.2-.16-9.16,1.22-15.35.48-6.54-.79-6.49-2.31-14.09-3.64-5.89-1-5.68-.08-16.62-1-7-.57-9.19-1.13-14.73-1-7.29.23-9.73,1.4-11.39,2.85-2.08,1.8-3.12,4.18-4.12,6.49a17.14,17.14,0,0,0-1.9,7.28c.06,4,2.16,4.41,3.48,9,1.61,5.59.2,10.74-.63,13.77a31.32,31.32,0,0,1-3.48,8.08c-2,3.19-7,11.74-12.35,11.24-4.94-.47-7.08-8.41-9.81-7.6-1.29.38-1,2.17-3,5.85a25.24,25.24,0,0,1-5.7,7c-1.92,1.67-4.8,4.18-8.71,4.91-4.95.92-6.29-2-12.5-2.69-6.63-.74-7.55,2.31-15,2.53-4.9.14-5-1.15-15.83-3.64-13.58-3.14-13.65-1.17-19.16-3.8-7.58-3.63-8.22-7.76-14.88-8.55A23.53,23.53,0,0,0,656,178.42c-2.72.91-5.5,1.85-7.6,4.43-1.78,2.2-1.07,3.14-2.69,4.91-3.2,3.51-9,3.07-9.81,3-2.73-.21-5.3-1.35-10.45-3.64-3.58-1.59-4.18-2.14-5.7-2.06-3.1.18-3.89,2.66-7.6,5.23-5.21,3.62-7.3,1.26-13.29,4.91a21.21,21.21,0,0,0-7.44,7.28c-2.19,3.7-2,6.3-2.7,9.18-3.51,13.73-25.14,18.88-24.22,26.44a13.18,13.18,0,0,1-.15,5.85,11.64,11.64,0,0,1-1.74,3.64c-1,1.25-3.15,3-10.93,3.17-9.68.21-13-2.37-16,.16-1.38,1.16-.92,1.93-3.64,5.06a30.59,30.59,0,0,1-4.75,4.44,33.35,33.35,0,0,1-9.18,4.75c-5.72,2.11-8.58,3.17-11.24,2.05-2.87-1.21-2.73-3.65-5.22-6.65-6.83-8.19-21.36-6-22.16-5.85-4.35.71-4.74,1.93-14.57,7.12-14.69,7.76-22,11.64-29,10.77-6-.76-10.11-3.86-13.14-1.43-2,1.64-1.27,3.95-4.59,7.76-2.13,2.45-3.32,2.49-4.11,4.43-1.17,2.87.4,5.36.79,7.6,1.22,7-8.67,14.3-11.08,16.3-17.38,14.41-13.82,43.88-13.46,46.86a6.9,6.9,0,0,1,0,1.9c-.15,1.12-.74,3.52-4.27,6.49-2.72,2.28-3.73,2-6,3.64-1.38,1-2.83,2.39-9.18,14.72C368.61,385.27,368.59,385.47,367.85,386.42Z"/><path d="M401.1,281a4.06,4.06,0,0,1,3.8,1.74c.61,1,.48,2.07.15,3.8a42.17,42.17,0,0,1-1.74,7.12,107.64,107.64,0,0,1-5.54,11.4c-4.62,8.1-5.34,7.49-6.65,11.39-.66,2-1.1,4.05-2.05,4.12s-2.25-2.47-2.7-4.27-.27-3,0-5.54c.06-.55.23-2,1.11-6.18,1.07-5.09,1.41-5.75,2.06-6.33,1.53-1.36,2.66-.4,4.12-1.58,2.11-1.72.62-4.46,2.21-9.18C396.26,286.33,397.92,281.4,401.1,281Z"/><path d="M1232.5,273.08a2.75,2.75,0,0,0-1,2.69c.29,1.69,2.1,2.73,3.64,2.85,1.28.1,3.11-.4,3.48-1.58.46-1.46-1.53-3.15-3-3.8C1235,273,1233.59,272.32,1232.5,273.08Z"/><path d="M1219.36,287.17c-2.57-.3-4.23,2-10.13,7.76s-5.33,4.49-8.87,8.23c-5,5.27-7.47,7.9-9,12.19-1.28,3.55-1.34,6.45-1.42,10.29-.11,4.87-.18,8.58,1.9,9.81s4-1.24,7.91-.32c1.92.46,3.11,1.42,5.23,3.17,3.75,3.11,3.89,4.72,7.12,7.92,3,3,5.9,5.84,8.86,5.38,3.52-.55,3.11-5.07,7.6-7.13s7.17,1.29,11.72-1a12.24,12.24,0,0,0,5.38-6c2.6-5.52-.81-7.68,1.58-14.41,1.1-3.09,2.64-4.92,1.74-7.12-.57-1.4-1.51-1.43-2.85-3.64-.83-1.39-1.89-3.15-1.58-5.07.41-2.5,2.81-3.13,2.53-4.59-.24-1.3-2.25-1.3-4.59-2.69-4.18-2.49-3-5.65-6.33-7.6-3.71-2.16-6.3,1.1-11.08-1.11C1221.62,289.69,1221.79,287.46,1219.36,287.17Z"/><path d="M1429.74,376c-10,2.83-13,1.85-16.46,4.75-1.15,1-3.13,2.63-3.32,5.06s1.4,3.65,9,11.24c4.71,4.69,5.82,5.91,8.39,7.6,3.34,2.2,5,3.3,7.12,3.48,5.55.47,6.71-4.83,14.09-5.7,3.5-.41,5.45.53,7.28-1.11,1.65-1.46,1.78-3.75,1.9-5.85.09-1.51.46-7.76-4-12.51-1.26-1.35-3.75-2.48-8.71-4.75-6.94-3.16-9.94-3.42-12.51-3A28.7,28.7,0,0,0,1429.74,376Z"/><path d="M1315,533.65c-4.37.12-6.07-.21-6.81,1-.44.68-.18,1.33.63,5.22.6,2.86.9,4.29,1,4.91.37,4.49-1.71,5.44-.79,7.75,1.16,2.93,5,2.8,5.22,5.07.11,1.35-1.22,1.86-2.37,4-1.3,2.35-1.16,4.53-1.11,7.28.22,11.81-1.49,14.13.63,15.83,2.6,2.08,7.45.43,8.24.16,4.15-1.42,5.17-4.27,7.75-3.8a5,5,0,0,1,3.8,4c.25,1.83-1.21,2.57-1.11,4.9a6.35,6.35,0,0,0,1.43,3.64c1.72,1.87,3.93.9,9.5,1.43,5.87.55,7.52,2,9.49.63a6,6,0,0,0,2.22-5.06c-.19-3.2-3.05-3.87-4.43-7.76a11.86,11.86,0,0,1-.32-6.49c1-4.25,4.25-6.47,10.29-10.61.43-.29,1.8-1.22,2.06-1,.55.57-5.49,4.81-5.54,10.45,0,2.74,1.36,4.82,3,7.28,3,4.46,4.82,3.76,7.91,8.39,1.86,2.79,1.89,4.07,4,5.7a13.47,13.47,0,0,0,5.54,2.38c3.45.86,6.16,1.53,8.39.31,3.46-1.89,4.46-7.63,3.48-11.87-1.31-5.71-5.56-5.89-6.17-10.61-.43-3.27,1.54-3.88,6.33-13.29,4.22-8.29,3.8-10,7.12-13.46s4.74-2.89,6.65-6,2-6.24,2.06-12.35.12-9.35-1.74-10.29-3.66,1.8-9.5,2.53c-3.38.43-3.94-.36-5.38.48-3.06,1.77-1.09,5.63-4.12,10.29-1.74,2.68-2.33,1.3-9.81,7.59-2,1.73-3,2.69-4.43,2.54-2.29-.25-4.27-3.26-4.59-6-.27-2.26,1.06-3,.47-4.27-.77-1.66-3.14-1-7.44-2.38-5-1.56-6.11-3.78-8.39-3-2,.67-1.58,2.61-3.8,3.65-3.58,1.67-9-.16-9.66-2.7s3.45-5.11,2.54-6.49c-.42-.63-1.6-.54-2.38-.47-3.2.27-5.4,3-6.33,4.12-2,2.47-1.17,3-2.53,4.27C1323.92,533.34,1320.91,533.47,1315,533.65Z"/><path d="M1296.93,675a13.46,13.46,0,0,0-1.27,12.82c.6,1.36,1.27,2.89,2.69,3.33,2.92.88,6.58-3.6,8.08-6a12,12,0,0,0,2.21-7.12c-.11-2.48-1.22-7-4.27-7.76C1300.85,669.39,1297.49,674.21,1296.93,675Z"/><path d="M1612,725.35l-32.61.79c-2,.32-4.26,1-4.75,2.53-.33,1,.39,1.65.79,3.33a10.59,10.59,0,0,1-1.58,7.75c-1.06,1.57-2.46,2.48-5.38,3.8a62.85,62.85,0,0,1-11.4,4c-7,1.53-12.47,3.07-21.21,5.54-10.66,3-10.55,3.68-13.46,3.48-5-.34-8.32-2.55-13.45-.94a14.57,14.57,0,0,0-4.75,2.53c-5.54,4.24-6.64,10.73-7,12.66a24.25,24.25,0,0,0,2.06,14.09,30.17,30.17,0,0,0,11.24,12.82c2,1.32,1.25.53,11.87,6.18,5,2.64,5.24,2.87,6.65,3.32,4.63,1.48,6.75.56,11.71,2.22,1.17.39,2.15.63,4.12,1.11,2.8.68,3.33.67,3.8.47,1.64-.69,1.52-3.2,2.22-5.54,1.61-5.39,6.17-4.94,10.92-11.24,4-5.29,2.16-7.44,5.38-9.66,2.94-2,4.45-.22,15-.31,6.7-.06,9.85-.81,13.77,1.42,1.16.66,3.64,2.07,3.64,4,0,2.22-3.42,3.19-8.86,6.81-4.87,3.23-3.85,3.59-9.66,7.75-5.59,4-8.38,6-12.19,7-6.42,1.61-10-.68-11.55,1.58-1.84,2.64,1.41,8,2.37,9.66,1.83,3.06,3.23,3.62,5.86,7.28,2.88,4,2.06,5.72,3.8,6.65,3.16,1.68,6-2.9,11.71-3.48,5.17-.53,5.91,2.87,18.36,8.39a90.4,90.4,0,0,0,14.57,5.06,84.9,84.9,0,0,0,10.29,1.9c3.35.42,8.82.34,19.63.16,4.72-.08,7.12-.15,8.55-1.74,2-2.19,1.63-5.88.79-8.23-.73-2-1.67-2.56-5.54-6.49-6.13-6.22-7.12-8.27-7.44-10.29a6.51,6.51,0,0,1,.79-4.91c1.54-2.15,4.4-2.32,5.38-2.37.81-.05,4.19-.25,6,1.89,1.39,1.64.5,3,1.42,8.55.47,2.86.72,4.31,1.58,5.54,1.41,2,3.42,2.77,6.65,4s5.32,2,7.13,1a5.62,5.62,0,0,0,2.37-3.48c.92-3.17-.13-6.43-3.32-12.19-4.65-8.39-5.47-7-7.44-11.72-2.46-5.88-1.37-8.5-4.75-13.61-1.37-2.07-1.76-2-4.28-5.06-4.59-5.67-4.38-7.38-7.44-11.4-1.56-2.06-6.48-5.91-16.3-13.62,0,0-1.23-1-5.54-4.9-4.58-4.19-5.13-5-5.07-6,.11-1.82,2.17-2,6.33-6.49,2.71-2.89,3-4,3-4.91a5.88,5.88,0,0,0-2.69-4.59c-3.68-2.47-8,.62-9.82-1.58-.86-1-.13-1.93-.79-5.38A21.42,21.42,0,0,0,1612,725.35Z"/><path d="M1420.09,980.85a2.74,2.74,0,0,0-1.11,5.06,2.91,2.91,0,0,0,4-1.26A3.08,3.08,0,0,0,1420.09,980.85Z"/><path d="M1421.2,963.75c-.67,1.37,1.49,3.31,5.69,9,2.79,3.78,2.94,4.43,3,4.9.5,3.31-2,5.07-1,7.76a4.3,4.3,0,0,0,3,2.69c1.51.22,2-1.08,4.59-1.74,2.28-.57,3,.15,4-.63,1.2-1,.4-2.2,1.42-4.59,1.13-2.62,2.67-2.5,3.49-5.07a6.31,6.31,0,0,0,.15-3.8c-.64-2.07-2.14-2.09-3.16-4.27s.12-3-.79-4.44c-1.92-3.1-8.52-2.2-9.5-2.05-1.88.28-2.42,1.29-4.28,1.26-1.58,0-2.32-.6-3.95-.31C1423,962.64,1421.62,962.87,1421.2,963.75Z"/><path d="M1586.46,982.43c3,.89,7.38,2.16,11.08,6,1,1,5.07,5.27,3.8,7.75-1.09,2.15-5.58,1.83-6.8,1.75-4.49-.32-5.74-2.29-15.36-7.76-4.3-2.45-6.41-3.4-6.33-4.91.1-2,4.08-3.32,4.59-3.48C1580.69,980.79,1583.51,981.57,1586.46,982.43Z"/><path d="M1563.35,975.78c3.12.73,4.68,1.1,5.23,1.59,2.58,2.32,1.19,7.87.47,10.76-.13.53-.77,2.36-2.06,6-2,5.6-2.12,5.8-2.06,6.65.27,3.62,3.38,4,3.65,7.91.09,1.42-.26,2.79-.95,5.54-.53,2.09-.85,2.62-1.27,4.12a25.64,25.64,0,0,0-.79,8.07c.41,5.07,2.6,4.55,2.85,8.87s-2,7-.16,10.13c.59,1,.87.84,1.42,1.9,1.4,2.7.79,6.41-.79,9-1.84,3.05-3.79,2.61-6.33,6.65-.68,1.08-1.39,2.47-1.58,2.85a36.94,36.94,0,0,0-2.06,4.75c-1.69,5.33,2.09,8.38,0,11.71-.42.68-1.5,1.4-3.64,2.85-1,.67-1.6,1-5.54,3.17a39.21,39.21,0,0,0-4.91,2.85,20.51,20.51,0,0,0-3.64,3.48c-3.88,5-1.65,10.11-4.12,11.4-1.37.71-3.14-.32-8.23-3.65-7.13-4.65-10.7-7-12-8.07-4.64-3.81-11.37-9.44-15.83-18.68-2.6-5.39-2.21-7.42-1.74-8.55,1.13-2.7,4.29-3.95,10.13-6.17,5.5-2.09,6.61-1.66,9-3.32,4-2.76,5.44-7,6.18-9.19,2.4-7,.79-13.27-1.43-21.84-1.76-6.81-2.64-10.22-4.9-13.46s-3.31-3.17-15.84-13c-4.44-3.48-7.38-5.89-9.81-10.13-1.34-2.34-3-5.39-2.22-8.71.5-2,1.76-3.41,6.18-6.8,6.63-5.1,9.94-7.64,12.66-8.55,5.22-1.74,6,.06,16-1.9,4.51-.88,4.64-1.3,6.81-1.27,4.76.08,8.3,2.19,13.14,5.07,4.38,2.61,5.1,4,5.38,4.59.92,2.08.32,3.65,1.74,4.91a4.35,4.35,0,0,0,4.27.79c1.57-.64,1.41-2.06,3-2.69C1560.1,975.25,1560.74,975.17,1563.35,975.78Z"/><path d="M1698.54,1207.54c-3.94,4.63-8.81,6.46-22.32,11.55-5.83,2.2-8.77,3.33-10,4.75-3.49,4.12-3.22,9.93-3,14.57a21.36,21.36,0,0,0,2.85,10.92c1.43,2.33,3.11,5.06,5.54,5.22,3.69.25,4.54-5.74,10.92-9.49a19.9,19.9,0,0,1,12.51-2.38c5.91.89,13,5,14.72,10.77a40.08,40.08,0,0,0,3.17,9.49,6.64,6.64,0,0,0,1.42,2.22c1,.82,2.92,1.39,13.62-1.58,1.38-.39,2.07-.58,2.21-.64,5.65-2.25,5.82-7.56,10.29-11.55,1.75-1.57,1.32-.39,10-4.12,10.6-4.56,11-6.21,15-6.17,2.62,0,4.86.74,9,0,2.36-.42,4.17-.77,4.75-2.06s-.76-2.71-3.49-8.55c-1.68-3.59-1.76-4.4-1.58-5.22.49-2.2,2.72-2.57,3.32-4.91a5.91,5.91,0,0,0-.69-4.16l-12-.59a5.29,5.29,0,0,1-3-.16c-1.17-.44-1.46-1.12-2.85-2.21a9,9,0,0,0-4-2.06c-2-.35-4.54,1-4.75,2.53s1.7,2,3.8,4.91c1.29,1.8,3.11,5.11,2.37,5.86-.58.58-2.68-.43-16.46-9.5-5.17-3.4-7.74-5.14-12-6.81a55.18,55.18,0,0,0-8.39-2.37c-9.49-2.2-15.5-3.5-19.32-.32A14.12,14.12,0,0,0,1698.54,1207.54Z"/><path d="M1547.68,1264.53c-6.5,3.45-10,7.93-14.56,13.77-5.7,7.3-9.9,12.67-8.08,17.25,1.57,4,6.83,5.29,10.29,6.18,2.09.53,9.67,2.46,15-1.59,3.28-2.47,2.11-4.43,5.38-7.12,3.64-3,6.88-2,15-3.48,4.39-.78,9.31-1.65,14.09-4.12,3.43-1.77,6.92-5.58,13.77-13.14a151.56,151.56,0,0,0,12.67-16c4.87-7.07,5.13-8.7,4.59-10-1.63-3.82-10.77-5-14.88-1.42-1.3,1.13-1,1.78-2.69,4.11a23.28,23.28,0,0,1-8.55,7c-3.73,1.9-6.81,2.3-12.67,3-5,.6-6.53.33-10.29.63S1555.22,1260.53,1547.68,1264.53Z"/><path d="M1646.62,1262c-.24,1.41.42,2.63,1.74,5.07.36.66,1.61,2.35,4.12,5.7.9,1.21,1.36,1.81,1.74,1.74.88-.17,1.68-3.1,1-5.7-1.09-3.85-4.8-4.39-5.23-8.23-.13-1.16.11-2-.31-2.22C1648.93,1258.05,1647,1259.87,1646.62,1262Z"/><path d="M1631.74,1276.72c-1.48,2.67,1.27,7.76,2.85,7.59,1.11-.12,1.64-2.88,2.06-5.06.34-1.82.53-2.93-.16-3.64a3.11,3.11,0,0,0-3.49-.16A3.48,3.48,0,0,0,1631.74,1276.72Z"/><path d="M1643.61,1280.2c-.8,1.07.29,3.06,1,4.27.94,1.73,1.48,1.65,1.9,2.85.81,2.32-.58,4.24,0,4.59s2.66-.9,3-2.69c.45-2.29-2.41-3.26-2.54-6.81,0-1.19.26-2-.31-2.53A2.31,2.31,0,0,0,1643.61,1280.2Z"/><path d="M1645.67,1298.56c-1.53.71-2,3.33-.79,4.75a2.78,2.78,0,0,0,3.16.79c1.57-.81,1.77-3.79.32-5.06A2.59,2.59,0,0,0,1645.67,1298.56Z"/><path d="M1658.81,1297c-1.36-.45-3.2.45-3.33,1.74a2.47,2.47,0,0,0,2.54,2.37,2.39,2.39,0,0,0,2.37-2.21A2.23,2.23,0,0,0,1658.81,1297Z"/><path d="M1698.07,1344.47c-3.49.07-5.08-2.57-6.18-1.9s-.93,4.31,1.11,6.17c.87.79,2.5,1.65,3.64,1.11.82-.39.72-1.17,2.06-2.37.77-.69,1.25-1.12,1.9-1.11,1.19,0,1.45,1.53,2.85,1.74a2.89,2.89,0,0,0,2.06-.63c1.22-1,1.07-2.91,1-4.59a12.27,12.27,0,0,0-1.59-5.54c-2-3.42-5.95-6.26-7.28-5.39-1,.69-.77,3.84.48,5.86.33.54.86,1.2,2.37,3.48.65,1,.94,1.43.79,1.9C1701,1344.13,1699.19,1344.45,1698.07,1344.47Z"/><path d="M1659.44,1340.83a9.54,9.54,0,0,0-5.54,4.59c-2.26,3.88-1.3,8.6.63,18,1,4.7,1.13,3.17,1.9,7.12.38,1.9.55,3.33,1.74,4.59,1,1,2.65,2,3.49,1.42s.06-2,.79-4.59c.6-2.11,1.36-1.91,1.74-3.48.65-2.69-1.48-3.76-1.74-7.76,0-.76-.27-4.14,1.26-4.9.81-.4,2,.05,4.44,1,1.56.58,2,.92,2.85.79a4,4,0,0,0,2.53-1.9c1.77-2.86-.38-7.34-1.9-9.5a13.84,13.84,0,0,0-7.76-5.22A8.71,8.71,0,0,0,1659.44,1340.83Z"/><path d="M1701.07,1360.77c-1,.57-1,3.06-.15,4.75,1.3,2.56,4.86,3.92,5.85,3s-.47-5.29-3.32-7.12C1703,1361.09,1701.83,1360.37,1701.07,1360.77Z"/><path d="M1712.16,1365.52c-1,.62-1.19,2.63-.48,4,1.09,2,4.28,2.62,5.22,1.58.7-.76.12-2.38-.31-3.16C1715.65,1366.2,1713.4,1364.77,1712.16,1365.52Z"/><path d="M1747.93,1310.28c3.7-1.52,5.75,1.81,12.35,1.42,1.72-.1,2.73-.4,3.64.32,1.59,1.25,1.61,4.61.32,6.8-2.15,3.65-7.55,3.51-8.39,3.49-5.77-.16-12-4.45-11.56-8.08C1744.5,1312.37,1746.43,1310.89,1747.93,1310.28Z"/><path d="M1781.49,1364.89c-.3.23,0,.85,1.27,4.75s1.44,4.43,1.74,4.43c.79,0,2.18-3.45,1-6.17C1784.49,1365.77,1782.08,1364.43,1781.49,1364.89Z"/><path d="M1718.33,1401a10.4,10.4,0,0,1,6.17,2.22c1.63,1.2,3,2.24,3,3.8a4,4,0,0,1-3.32,3.48c-1.9.31-2.66-1.29-5.86-2.85-4.35-2.11-7.35-1.29-7.6-2.53s2.52-2.95,4.59-3.64A9.59,9.59,0,0,1,1718.33,1401Z"/><path d="M1728.14,1410.16a2.7,2.7,0,0,0-2.69,1.75,2.94,2.94,0,0,0,1,2.85c.21.19,1.21,1.13,2.22.79s1.22-1.63,1.26-1.9C1730.18,1411.71,1728.27,1410.26,1728.14,1410.16Z"/><path d="M1731.15,1418.08c.26,1.74-.39,2.11-.16,3.8a4.45,4.45,0,0,0,1.43,3c.64.51,1.88,1.1,2.69.63,1.2-.69,1.09-3.49,0-5.22-.39-.62-.5-.48-2.06-2.06s-2.33-2.66-2.53-2.53S1730.94,1416.64,1731.15,1418.08Z"/><path d="M1722.29,1415.39c-.9.76-.87,1.57-1.74,4.91-.36,1.34-.51,1.77-.32,1.9s1.08-.79,3.16-2.54c1.77-1.48,2.29-1.66,2.38-2.37a2.42,2.42,0,0,0-1.9-2.53A2.16,2.16,0,0,0,1722.29,1415.39Z"/><path d="M1778.64,1438c2.13-1.51,5.51.86,5.86,1.1,1,.74,3.15,2.59,2.69,3.64-.78,1.79-8.86,1.31-9.81-1.58A3.06,3.06,0,0,1,1778.64,1438Z"/><path d="M1748.41,1437.55c2.95,1.07,4.55,3.66,7.12,7.92,1.77,2.94,1.69,3.47,3.64,6.49,2.26,3.48,3.42,5.23,5.07,5.54,3.07.56,4.94-3.52,7.12-2.69,1.91.72,2.92,4.79,1.58,7.28-1.1,2.05-3.12,1.75-3.8,3.64-.9,2.51,2.08,4.76,1.27,6-1.27,2-9.32-2.56-11.4-.15-1.56,1.8,1.93,5.58.32,7.75s-7.49,1.65-11.08-1.42c-3.26-2.79-4.7-7.75-3.17-11.08,1.18-2.56,3-1.81,5.54-5.39a14.06,14.06,0,0,0,2.69-8.39,13.49,13.49,0,0,0-.79-4.11,17.69,17.69,0,0,0-4.27-7c-3-2.9-5.73-3.34-5.54-4.11S1745.81,1436.61,1748.41,1437.55Z"/><path d="M1794.79,1470.16c1.93-.39,3.73,2,4.43,3.48.19.41,1.68,3.67,0,5.39s-5,1-6.49-1a5.08,5.08,0,0,1-.63-4.12C1792.17,1473.63,1792.8,1470.57,1794.79,1470.16Z"/><path d="M1820.75,1489.79c4.6-.07,7.11-.11,9.34,1.43,3,2.06,3.14,5.35,5.22,5.38,1.4,0,1.75-1.46,3.33-1.43,1.8,0,3.36,2,4,3.64a6.44,6.44,0,0,1-.64,5.54c-2.14,3.16-6.33,1.49-14.88,3.33-3.65.78-6.86,2.1-13.29,4.75-5.41,2.22-8.11,3.33-10.14,4.9-4.73,3.68-3.88,5.88-8.39,9.19-1.76,1.29-6.3,4.63-11.55,4-5-.63-6-4.29-10.29-3.8-3.5.4-5.48,3.1-7.28,2.06-1.25-.72-1.39-2.63-1.43-3.16-.27-3.77,3.33-7.57,16-16.94,9.58-7.09,15.91-11.13,22.32-14.25a44.54,44.54,0,0,1,11.56-4A37,37,0,0,1,1820.75,1489.79Z"/><path d="M1759.49,1530c-4.13-.73-6.64-1.18-8.55.32-1.36,1.06-1.75,2.57-2.22,4.43a17.88,17.88,0,0,0,.16,8.86c1.09,4.34,2.5,4.59,4.43,10.29,1.19,3.49,1.4,5.58,1.75,5.54.6-.06,1.3-6.76.63-14.09-.31-3.32-.85-6.28,1-8.07.74-.73,1.22-.62,3.32-2.06s3.85-2.63,3.64-3.64S1761.77,1530.4,1759.49,1530Z"/><path d="M1804.45,1553.43c-1.66.45-2.79,3.09-2.06,4.75,1,2.36,5.78,2.55,6.8,1,.92-1.43-.85-4.67-3.16-5.54A2.49,2.49,0,0,0,1804.45,1553.43Z"/><path d="M1791.94,1557.07c-2.19-.1-3.69,1.54-4.59,2.53-1.9,2.09-4.06,6.19-2.53,8.08s6.62,1.11,9.18-1.75c1.44-1.61,2.87-4.74,1.42-7A4.45,4.45,0,0,0,1791.94,1557.07Z"/><path d="M1770.73,1581.76c-1.4,1.34-1,4.4.79,5.7.76.56,2.17,1.08,3,.48,1.56-1.14.84-6.1-1.43-6.81A2.51,2.51,0,0,0,1770.73,1581.76Z"/><path d="M1775.79,1592.21a4.6,4.6,0,0,0,5.23,3.33c1.88-.46,3.49-2.4,3.16-4.12a3.55,3.55,0,0,0-1.9-2.22c-1.92-1.13-5-1.23-6.17.48A3.27,3.27,0,0,0,1775.79,1592.21Z"/><path d="M1798.11,1580.5c-1.16,1.44-1.14,3.07-1.1,6.33,0,2.46,0,4.59,1.42,5.54.77.54,1.64.47,3.64.16,5.26-.83,7.9-1.24,8.71-2.22,2-2.43,1.56-6.9-.79-9.5a8,8,0,0,0-4.59-2.37C1804.92,1578.36,1800.42,1577.63,1798.11,1580.5Z"/><path d="M1753.16,1611.37a2.13,2.13,0,0,0,.47,1.74c1.71,2.39,6.74,2.29,7.44.79.44-1-.8-2.57-2.06-3.33C1756.84,1609.28,1753.62,1610,1753.16,1611.37Z"/><path d="M1839,1628.15c-2.39,3.31-5.69,3.34-5.7,4.59,0,1,1.89,2.15,3.8,2.21,3.36.11,5-3.42,7-2.69,1,.38,1.43,1.62,1.9,3,1,3-.19,4.29.95,6,.83,1.25,2.52,2.17,3.64,1.74s1.32-2,1.74-4.44a16.89,16.89,0,0,0,.32-5.06c-.46-4.35-2.66-7.06-4.91-9.82-.74-.91-1.15-1.28-1.74-1.42-2.58-.62-5.72,3.85-6,4.27C1839.27,1627.49,1839.48,1627.41,1839,1628.15Z"/><path d="M1856.84,1641.13c1,0,5,.07,5.7,2.21a3.3,3.3,0,0,1-1,3c-1.67,1.79-4.82,1.49-6.8.32-1.48-.88-3.21-2.77-2.7-4.12S1855.64,1641.11,1856.84,1641.13Z"/><path d="M1868.4,1650.31c-1.7.49-2.45,3.49-1.74,5.7s3.15,4.16,4.59,3.64c1.8-.65,2.5-5.26.47-7.76C1871,1651.05,1869.64,1650,1868.4,1650.31Z"/><path d="M1685.09,1657.12c-1.23,1.62,1.61,5.47,1.9,5.85,1.23,1.65,4.16,4.65,6,3.8s2.26-5,.48-7.6C1691.36,1656.08,1686.28,1655.53,1685.09,1657.12Z"/><path d="M1701.23,1674.53c-1.23,1.38.19,4.25,1.43,5.7.55.64,1.67,2,2.85,1.74,1.65-.3,2.9-3.5,1.9-5.7a4.2,4.2,0,0,0-1.9-1.9C1704.21,1673.71,1702.16,1673.5,1701.23,1674.53Z"/><path d="M1724.82,1796.9c-.91-.09-1.93,1.9-2.22,3.48-.33,1.83.11,4.22,1.11,4.43.84.18,1.93-1.2,2.38-2.37C1727,1800.07,1725.9,1797,1724.82,1796.9Z"/><path d="M1622.4,1739.27c-2.79.52-4.31,5.09-2.85,6.81.87,1,2.74,1,4,.48,2-.83,3.62-3.41,2.69-5.39A3.67,3.67,0,0,0,1622.4,1739.27Z"/><path d="M1584.09,1804.18c-1.32.15-2.48,2.35-1.9,4.11s2.68,2.78,3.8,2.22c1.28-.64,1.33-3.45.16-5.07C1586,1805.25,1585.13,1804.06,1584.09,1804.18Z"/><path d="M977.79,1907.23c-4.38-10.5,2.16-20.59-.16-21.84-1.65-.9-7,3.19-8.23,8.55-.95,4,1.3,4.88,1,10-.47,6.81-4.7,8-4,13.61.45,3.32,2.06,3.78,1.9,7.13s-1.71,3.48-2.37,7.44c-.62,3.73.6,4.59-.16,8.39a20.3,20.3,0,0,1-2.06,5.38c-3.42,7.06-5.13,10.59-5.38,11.55-2.21,8.59,5,12.95,1.74,19.16-1.36,2.56-3.34,3.22-4,6.49a10.41,10.41,0,0,0,1.11,6.81c2.6,4.47,7.06,3,10,7.12s0,7.17,2.53,9.66,6.62.61,16.3-.64c2.76-.35,7.85-.55,18.05-1,15.09-.58,15,.07,19.15-1,4.84-1.18,7.15-2.58,11.09-1.9,4.87.85,4.62,3.79,9.34,5.54,7.44,2.78,12.5-2.59,20.73,0a14,14,0,0,1,6,3.33c1.57,1.56,1.66,2.55,3,3.64,2.44,2,5.73,1.58,7.59,1.42,7.48-.63,4.91,1.27,19,1.11,10.74-.12,11.84-1.22,15.83.32,4.61,1.78,4.87,3.91,9.34,4.91,3.44.76,3.79-.39,12.51-1.27,9.12-.92,8.43.37,13.45-.79,2.93-.68,4.94-1.53,7.13-.48,1,.48,2,1.75,4.11,4.28,2.67,3.25,2.79,3.81,4,4.75,1.63,1.32,3.35,1.81,6.33,2.37,10.19,1.91,11.44.11,14.41,2.06,3.38,2.23,1.81,4.61,6.65,8.55a32.34,32.34,0,0,0,6.17,3.8,33.1,33.1,0,0,0,4.12,1.58c5.44,1.66,8.13.47,12.66,1.11,1.07.15,7.84,1.19,12.66,6.17,3.09,3.2,3.11,5.66,7.13,9a22.94,22.94,0,0,0,5.7,3.48l-2.22,23.59c-2.72,1.53-4.31,3.79-4,5.69s2.24,2.68,4.28,3.65a20.49,20.49,0,0,0,11.39,1.58c3.29-.43,4.84-1.29,7.29-2.06,9.92-3.14,14.44,1.43,26.91-.47,4.29-.66,2.76-1,9.18-2.38a120.48,120.48,0,0,1,24.69-2.06c3.35.06,9.41.29,13.3-1.74a14.83,14.83,0,0,1,3.17-1.26,12.44,12.44,0,0,1,5.85-.32c3,.62,3.15,2.08,5.55,2.53,1.76.33,2.67-.3,6.17-1.58,7.62-2.79,9.3-2,11.4-4.28,1.33-1.46.49-2.19,2.37-5.69a21,21,0,0,1,3-4.44c2.1-2.1,5.24-2.67,13.45-2.21,7.38.41,8.32,1,16.31,1.74,7.18.61,7.77.21,13.93,1,8.1,1,7.66,1.74,10.92,1.58,7.46-.37,9.41-4.37,16.31-5.7,5.36-1,5.87,1.07,16,2.53,2.7.4,16.85,2.3,31.18-1.42,5.11-1.33,10.13-2.85,10.13-2.85,6.11-1.85,7.69-2.57,11.56-3.32a36.49,36.49,0,0,1,9.66-.95c2.29.12,2.73.4,10.92,2.21,5.52,1.22,8.28,1.83,9.34,1.9,6.1.4,9-1.22,10.61.64,1.13,1.35-.09,2.66,1.1,5.69.26.67,1.54,3.9,4,4.75,1.37.48,3,.18,11.24-5.7,5.93-4.23,6.84-5.34,10.13-6.8,4.12-1.83,4.49-.91,6.81-2.38,3.09-2,4-4.62,7.6-13.14,5.25-12.56,5-11.1,5.38-12.66,2-8.23.83-15.4,4.43-16.94,1.15-.49,2.24-.18,2.85-1.11.84-1.27-.16-3.44-1.42-6.17a27.83,27.83,0,0,0-1.74-3.17,31.86,31.86,0,0,0-2.85-3.64c-2.29-2.8-1.89-7-1.59-10.13a30.12,30.12,0,0,1,4-11.87c1.77-3.06,3.35-4.6,4-8.07.24-1.37.73-4.21-.64-5.23-1.72-1.28-5.94.68-8.39,3.48s-1.56,4.74-3.79,6.18c-2.77,1.78-5.59-.22-7.13,1.58-.87,1-.28,2-.31,5.38-.05,3.59-.08,6.59-1.75,8.55-2.14,2.53-4.63.54-8.39,3.33-3,2.2-2.68,4.39-5.38,5.22a7.9,7.9,0,0,1-5.7-.79c-2.34-1.25-2.26-2.69-4.11-4-2.44-1.67-4.21-.3-9.5-.47-7.12-.24-8.4-2.88-12.35-1.43a16.32,16.32,0,0,0-5.7,4.12c-2.71,2.78-2.72,4.43-4.75,5.06-2.49.78-4.46-1.1-6,.16-1,.81-.37,1.72-1.27,2.53-1.63,1.49-4.43-.84-9.5-.31-1.57.16-2.62.28-3.48,1.1-1.69,1.62-.32,3.72-1.58,5.7-1.91,3-6.46.44-9.18,3.64-1.71,2-1.09,4.37-3.49,7a7,7,0,0,0-1.26,1.74c-.9,1.81-.33,2.86-.79,3.64-1.15,1.91-7.68.79-13.3-1.9-4.43-2.12-7.68-3.67-9.18-7.12-1.62-3.71.93-4.69,1.58-14.56.4-6.08-.36-8.85,1.9-11.09,1.93-1.91,4.59-2,4.75-3.64.09-1-.84-1.15-2.38-4.27-.48-1-.57-1.35-1.26-2.69-1-2-1.16-1.84-1.27-2.38-.2-1,.23-1.91,2.22-5.22,1-1.66,1.5-2.49,1.74-2.85,4.33-6.43,7-8.33,6.33-10.29a3.44,3.44,0,0,0-1.9-1.74c-3.16-1.72-5.64.27-10.29.47-4.24.19-4.3-1.38-11.87-2.37a55.78,55.78,0,0,0-7.12-.48c-5,.06-9,1.46-26.44,10-5.88,2.86-7.59,3.76-10.77,4.27-3.74.6-9,1.67-13-1.11-4.51-3.17-3.1-8.32-7.75-10.6-1.78-.87-3.08-.66-7.13-.48-4.9.22-9.82-.19-14.72,0-22.56.9-25.05-4-41-1.42-5.26.84-12,2.48-15.67-1.11a8.24,8.24,0,0,1-2.53-5.22c-.14-3.09,2.13-4.13,2.21-7.76a8.65,8.65,0,0,0-1.58-5.38c-2.24-3-6.34-3.38-8.87-3.64-3.73-.39-4.58.56-6.64-.48-2.77-1.39-3.59-4.27-4.44-4-.69.26-.17,2.19-1.26,5.54a4.7,4.7,0,0,1-1.11,2.22c-1.63,1.47-4.47.68-5.23.47-1.69-.47-2.24-1.11-4.27-2.37-3.32-2.06-6.15-3.81-8.39-3-1.76.63-1.5,2.23-3.32,3.64-2.55,2-6.19,1.27-9.66.48-9.09-2.09-10.76-3.41-16-4.59-4.45-1-11.52-2.61-19.15.16a22.61,22.61,0,0,0-9.34,5.54c-2.85,3-3.22,5.31-6.34,7-2,1.05-2.77.61-7.44,1.11-9.72,1-10.38,3.35-14.56,2.22-3.56-1-4.84-3.14-7.91-2.54-1.63.32-2,1.07-4.12,2.06-3.07,1.43-5.57,1.4-8.07,1.58-2.71.2-6.14,1-13,2.7-8.77,2.12-11.09,3.53-15.2,2.37a9.73,9.73,0,0,1-5.23-3.17c-1.94-2.45-1.93-5.42-1.9-7.75.06-3.61.95-4.41,1.59-8.08.27-1.6,1.66-10.41-2.85-16-.64-.8-2-2.47-4-2.54-1.65,0-2.86,1.11-3.64,1.74-3,2.42-6.66,2.61-11.4,2.85a29.07,29.07,0,0,1-15-3.48c-1.79-.89-3.94-2-3.8-3,.18-1.19,3.41-1.72,9.34-2.69a53,53,0,0,0,7.6-1.42c2.72-.81,4.08-1.22,5.23-2.22,2.89-2.53,2.77-6.94,2.69-10.13-.09-3.34-.24-9.2-4.75-14.09a19.3,19.3,0,0,0-10.29-5.54c-2.92-.71-8.24-2-10.77.63-1.68,1.76-.68,3.74-2.53,7.6-1.09,2.29-1.91,4.07-3.8,5.07s-2.82.31-4,1.42-.66,2.75-1.42,4.91a9.17,9.17,0,0,1-4.59,5.07c-4,1.78-6.2-2.32-13.14-1.59-2.54.27-4.2,1-5.22,0s-.22-2.87-1.75-5.54c-.36-.64-1-1.83-1.74-1.74-.94.12-.77,2.41-2.53,4.12a6.19,6.19,0,0,1-2.69,1.42c-4.22,1.3-7-1.22-14.09-1.9-3.53-.34-5.55,0-8.07-1.58a10.54,10.54,0,0,1-2.69-2.53c-5.44-7.09-6.49-19.16-6.49-19.16-.79-9,.77-11.89-1.75-18.52-2-5.43-4-6-4.74-6.17-3-.58-6.14,3-7.6,5.54-1.81,3.08-2.12,6.27-1.43,14.24,1.33,15.4,2.85,24.7,2.85,24.7.78,4.75,1.43,8.13-.63,10.6s-5.81,2.64-7.6,2.7c-7.28.21-12.24-5.06-13.14-6A19.75,19.75,0,0,1,977.79,1907.23Z"/><path d="M1065.65,2092.29c-.68,3.25,5,7.82,7,6.81,1.19-.62,1.17-3.38.32-5.23-1.15-2.49-4.25-4.23-6-3.32A2.7,2.7,0,0,0,1065.65,2092.29Z"/><path d="M1085.44,2117.77c-2,2.19-.73,5.65-.48,6.34.12.32,1.92,5,5.54,4.9a5.62,5.62,0,0,0,4.59-3.32,6.67,6.67,0,0,0-2.21-8.23C1090.7,2116,1087.25,2115.8,1085.44,2117.77Z"/><path d="M1200.84,2070.13c-.91.79-.5,3.38.79,3.95.58.26,1.29,0,2.69-.63,1.83-.78,3-1.29,3-1.9-.06-1-3.55-1.44-4.75-1.58S1201.1,2069.9,1200.84,2070.13Z"/><path d="M1465.36,2105.9c-2.6.81-4,2.82-6.17,6a5.25,5.25,0,0,0-1.27,3.16,4.48,4.48,0,0,0,2.69,4c1.87.69,3.73-.57,5.7-1.9.89-.6,1.29-1,4.43-4.27s3.57-3.72,3.49-4.28C1474,2106.61,1469.16,2104.72,1465.36,2105.9Z"/><path d="M1563.83,2087.7c-2.27,1.37-4.76,2.87-5.54,5.7s.19,6.29,1.74,6.65c.89.2,1.51-.77,4.11-3.33,4.77-4.7,6.55-5.26,6.33-6.81s-2.6-3.15-4.59-3A4.37,4.37,0,0,0,1563.83,2087.7Z"/><path d="M1609.1,1986.86c-1.67,1.17-1.53,4.11-.32,5.86,1.41,2,4.62,3,6.18,1.58s1-4.17-.32-5.86S1610.76,1985.7,1609.1,1986.86Z"/><path d="M1572.06,1964.86a6.88,6.88,0,0,0-4.12,4.74c-.16.72-.58,2.55.48,3.8a3.65,3.65,0,0,0,2.21,1.11c.42.09,3.45.7,5.39-1.11,2.57-2.4,1.74-7.73-.64-8.86A4.19,4.19,0,0,0,1572.06,1964.86Z"/><path d="M1734.32,1936.36c-5,.24-6.38.05-7.6,1.27s-1.91,3.73-1,4.9c1.28,1.56,4.8.32,5.22.16,2.83-1,2.89-2.7,6.18-4.59,2.83-1.63,5.12-1.73,5.06-2.06S1739.61,1936.11,1734.32,1936.36Z"/><path d="M1740.33,1948.39c-3.49,3-4.6,6.68-5.7,10.29a11.93,11.93,0,0,0-.63,5.23c.19,1.41.31,2.35,1,2.84,2.15,1.66,8.42-3,11.56-5.38,6.65-5,5.48-5.94,10-8.39,3.33-1.81,6.06-2.42,6.81-4.9.38-1.27.25-3.08-.79-4-1.64-1.38-3.76,1-9.19,1.58-4.87.56-7.12-.87-10.76,1.11A12.12,12.12,0,0,0,1740.33,1948.39Z"/><path d="M1811.41,1826c-1.64-.76-4.42,1.35-5.7,2.7a10.49,10.49,0,0,0-2.37,4.43c-1.1,3.53-.73,6-.79,8.39-.11,4.1-1.34,4-4.28,13.3-1.6,5.06-1.1,4.68-3.16,11.55-2,6.65-3,10-4.44,11.72-3.49,4.21-6.89,3.67-8.39,7.59-1.14,3-.19,6,.32,7.6,1.45,4.59,3.74,4.63,5.86,8.55,4.19,7.74-.5,15.43,1.9,22.64a8.39,8.39,0,0,1,.47,4.27c-.31,1.77-1.09,2.25-1.9,4.28-.65,1.62-1.6,4-.79,5.85,1.28,2.95,6.78,4.24,9.5,2.38,1.66-1.13,1-2.55,3.16-4.75,1.8-1.82,2.68-1.28,5.23-3.17,3.21-2.38,2.45-3.72,5.22-5.54,3-2,5-1.08,6.18-3a4.67,4.67,0,0,0,0-4.9c-2.32-3.16-9.4,0-10.61-2.22-1-1.81,3.51-4.17,4.91-10.29.36-1.6,1.27-5.55-.64-8.86-2.53-4.42-7.32-2.91-10.6-7.76a13.58,13.58,0,0,1-2.06-7.6c-.07-4,1.41-6.82,3.17-10.29,4.53-9,6.8-13.44,7.59-15.67,1.39-3.89,1.88-8.51,2.85-17.73C1813.23,1828.28,1812.46,1826.52,1811.41,1826Z"/><path d="M1816.48,1807.34a1,1,0,0,0-.8.18c-3.85,2-5.78,3-5.69,4.73a3.26,3.26,0,0,0,1.9,2.53,3.87,3.87,0,0,0,3.95-.47C1818.26,1812.45,1817.66,1807.77,1816.48,1807.34Z"/><path d="M1901.8,1693.05c-2.8-.66-4.06,1.26-9.34,3-3.46,1.14-5.64,1.23-5.7,2.06s1.94,1.52,2.54,1.74c1.39.5,2.76.66,9.65-.32,2.09-.3,3.22-.49,4.28-1.42.19-.18,1.78-1.58,1.42-3S1902.1,1693.12,1901.8,1693.05Z"/><path d="M1911.62,1687.51a2.87,2.87,0,0,0,2.05,3.32c1.65.5,3.68-.68,3.8-2.21a2.87,2.87,0,0,0-2.21-2.69C1913.92,1685.55,1912.06,1686.07,1911.62,1687.51Z"/><path d="M1926.34,1681c-.85,1.15.94,4.75,2.85,4.75a1.94,1.94,0,0,0,1.58-1c.69-1.17-.09-3-1.42-3.8C1928.38,1680.46,1926.85,1680.33,1926.34,1681Z"/><path d="M1924.6,1696.22c-1.62.61-2,2.65-1.9,3.8.1,1.7,1.28,3.59,2.53,3.64,1.87.06,4.38-4,3-6.18A3.22,3.22,0,0,0,1924.6,1696.22Z"/><path d="M1941.85,1683.08c-1.39-.84-5.88,1.73-5.54,4.43a3.45,3.45,0,0,0,3.48,2.85c1.92-.32,2.42-3.3,2.54-4S1942.79,1683.64,1941.85,1683.08Z"/><path d="M1998.21,1653.63c-2.71,2.7-6.56,2.78-8,2.89-10.66.82-20.6,12.88-21.57,14-5.65,6.87-5,11.77-10.44,13.62-1.94.65-4.6.9-7.6,3.16a16,16,0,0,0-4.28,4.91c-3.06,5.61,0,9-2.85,13.61-1.19,2-3,3.05-6.49,5.23-6.55,4-9.21,3-10.6,5.7-1.88,3.57,1,9.14,3.8,12.18,3.14,3.37,4.9,2.15,7.44,4.91,4.11,4.47,3.26,11.74,2.21,20.74a104.63,104.63,0,0,1-2,11.24c-2.74,12.46-4.39,14-3.65,18.68.27,1.65,1.73,9.44,7.92,12,4.94,2.07,10-.4,11.08-.95,5.14-2.53,7.42-7,10-11.87,7.76-14.67,11.64-22,16.78-27.86a54.53,54.53,0,0,1,17.1-12c3.48-1.58,7.13-2.74,9.5-1.11,1.93,1.32,1.74,3.61,3.32,4,2.14.47,5.74-3,5.7-6.33,0-2.89-2.74-3.57-4.27-7.6a15.16,15.16,0,0,1-.48-8.07c1-6.68,5.52-8.17,11.72-16.62,4.11-5.61,8.35-11.39,9.81-19.63.85-4.78.36-8.15,3-12.35,2.54-4,5.69-3.1,7.44-6.65,2.09-4.22-1.19-6.62.47-12.34,1.25-4.31,3.39-3.93,5.23-8.55,2.27-5.7,1.85-13.36-1.27-14.88-1.79-.88-3.17.91-9.65,3.32-1.36.5-1.53.52-10.93,3-7.72,2-10.59,2.84-14.24,4-6,1.83-9.25,3.09-11.88,6.17C1999.39,1651.36,1999.46,1652.39,1998.21,1653.63Z"/><path d="M2337.45,1717.27c-1.11,1.21-.42,4.15,1.27,5.54,3.06,2.53,8.69-.68,8.7-2.53C2347.43,1718.06,2339.42,1715.11,2337.45,1717.27Z"/><path d="M2359.45,1718.7c-2.78-.38-6.09,4-6.65,8.23-.62,4.65,2,10,4.59,10.13,2.91.09,5.1-6.63,5.7-10,.54-3,0-4.55-.47-5.55C2362.39,1721.11,2361.25,1718.93,2359.45,1718.7Z"/><path d="M2371,1733.73c-.52.61-1.58,2.13-1.11,2.85.73,1.15,5.31.46,5.7-1.26.26-1.14-1.26-2.93-2.69-2.85A2.89,2.89,0,0,0,2371,1733.73Z"/><path d="M1153.67,1102a17,17,0,0,1,3.79-.32c3.88.2,4.88,2.51,8.87,3.64.64.19,1.39.35,6.33.32s7.33,0,10.92-.32c11.58-.89,14.77-2.91,16.94-.79,1,1,1.06,2.22,1.11,7,.21,19.22.28,17.53.16,20.89-.29,8.05-.43,12.08-.63,12.67-1.69,4.89-5.61,8.43-13.46,15.51-3.53,3.19-5.71,4.77-6.81,4.12s.12-2.9-.63-6.49c-1.14-5.49-5.75-8.79-7-9.66a18.85,18.85,0,0,0-6.8-3c-2.39-.58-4-1-5.7-.16a6.58,6.58,0,0,0-3.48,5.07c-.27,2.44,1.19,3.6.47,4.59-.83,1.16-3.73.84-5.86-.16-2.47-1.16-2.39-2.55-6.33-6.8-2.85-3.09-3.71-3.25-4.11-4.91-.5-2,.53-2.84.47-6a15.36,15.36,0,0,0-1.11-5.38,15.62,15.62,0,0,0-6.17-7,22.88,22.88,0,0,0-8.71-3.33c-5.08-1-6.82.07-8.55-1.42-2-1.75.55-4.36-1.42-8.71-1-2.1-2.06-2.79-1.9-4.43.18-2,1.86-2.21,2.69-4,1.79-3.75-3.86-6.91-4.59-14.41-.47-4.77,1.48-7-.16-8.54-2.37-2.27-7.75,1.18-9.81-1.27-.85-1-.68-2.46-.48-4.27.31-2.71,1.34-3.44,2.53-7,1-3,1.66-4.89.8-6-1.38-1.78-5.54-1.84-7.13,0a2.88,2.88,0,0,0-.36.55c-1.9,3.53,1.39,8.31-.11,9.59-.7.59-2,0-2.06,0-1.59-.72-1.93-3.06-2.06-4-1-6.87,5.09-11.74,3.17-15.36-.94-1.76-3.42-2.34-8.39-3.48-5.24-1.21-6.56-.29-7.6-1.58-2.15-2.66,3-7.16,1.58-14.57-.24-1.28-1-5.3-3.64-6-1.69-.46-2.69,2.13-4.75,1.74-1.49-.28-2.73-1.88-3.48-2.85-1-1.3-1-1.84-1.58-2.06-1.36-.47-2.9,1.71-4.75,3.17-2.83,2.22-6,2.42-10.13,2.69-2.6.17-8.22.53-13.46-2.53-2.55-1.49-3.07-2.67-5.38-3-2.46-.37-5,.51-7.6,1.42-2,.7-2.24,1-3.48,1.43a16.73,16.73,0,0,1-10.61,0c-6-2.09-6.1-6.93-10.6-7a18.26,18.26,0,0,0-5.86,1.43c-2.55,1-3.13,1.69-4.59,1.74-1.73.06-3.22-.86-5.86-3.33-5.7-5.32-8.82-8.24-8.07-11.08.7-2.66,4-2.11,5.38-5.38,1.16-2.71-.35-4.84-1.27-9.66-1.18-6.15.83-6.64-.31-11.08-.39-1.48-1.77-6.86-6.18-9.34-1.28-.72-1.84-.65-8.86-1.58-5.56-.74-8.36-1.11-8.87-1.42-4.48-2.73-2.54-8.43-7.12-15.36-1.62-2.45-2.28-2.37-7.76-7.28-3.15-2.83-8.06-8-17.89-18.36-6.43-6.79-9.65-10.19-11.08-11.72-6.46-7-6.95-7.7-9.34-9.65-4-3.3-4.38-2.61-13-8.71-4-2.84-6-4.26-8.23-6-4.39-3.46-4.73-4.16-6.81-5.06-2.57-1.11-5.23-1.18-10.44-1.27-5.89-.1-5.61.42-8.87.16-2.83-.23-10.86-.87-12.35-4.91-1-2.61,1.31-5.28.16-6.17-1-.75-2.64,1.13-6.17.95a5,5,0,0,1-3.64-1.27,3.81,3.81,0,0,1-.8-4.11c.82-1.46,2.64-.89,5.39-2.22.84-.41,1-.63,4.75-4.12,5-4.69,5.64-5.17,6.8-5.38,2.69-.47,4.15,1.27,5.39.32s0-3,.47-6.18c.33-2,2.6-4.75,7.12-10.13,2.6-3.08,3.52-4,5.07-4.43a9.44,9.44,0,0,1,5.54.32c4.08,1.21,5,3.52,7.28,3.32,2-.17,3.14-2.06,4.43-3.64,5.22-6.37,15.28-10.45,21.53-8.23,1,.36,2.74,1.61,6.18,4.11s5.34,3.89,6.17,5.07c3.47,4.93.18,9.66,3.17,12,2.73,2.17,6.73-.8,9.18,1.58,1.22,1.2,1.06,2.77,1.11,6.18,0,3,.16,11.4,2.37,17.73a27.84,27.84,0,0,0,4.28,7.75c3.46,4.7,6.33,6,13.93,12.51,2.53,2.17,4.42,3.8,6.8,6.17,9,9,11.83,15.53,17.26,15.52a35.3,35.3,0,0,0,3.8-.48c3.78-.56,4.51-.93,7.75-1.42a25.08,25.08,0,0,1,6.81-.48,10.26,10.26,0,0,1,5.38,1.59c1.6,1.14,1.87,2.32,3.33,4.59a36.37,36.37,0,0,0,4.91,5.7,45.78,45.78,0,0,0,10,8.07c5.31,3,5.92,1.25,15.83,4.75,6.58,2.32,7.51,3.53,12.5,4.43a38.47,38.47,0,0,0,10.14.48c6.66-.61,6.82-2.5,13.29-3.49,2.07-.31.93.05,16.47,1a13.78,13.78,0,0,1,7.28,2.06c1.17.78,3,2,3.32,4,.42,2.51-2.1,3.72-3.8,7.76-.65,1.56-1.84,4.36-1.26,7.12,1.18,5.71,8.63,5.07,13.77,13,1.07,1.64,1.64,3,3.48,4.59,2.63,2.21,4.64,2,5.7,4.12a7,7,0,0,1,.16,4.75,8.88,8.88,0,0,1-2.69,4.9c-1.13,1-1.6.78-2.38,1.43-2.08,1.73-1.28,5.28-.79,11.55.43,5.5.64,8.24.32,10.61-.68,4.91-2.28,7-.95,10.13a45.82,45.82,0,0,0,2.69,4c2.7,3.8,3.24,4.18,3.32,5.38.16,2.25-1.63,2.76-1.42,5.22.1,1.17.54,1.52,1.74,4s1.42,3.47,2.06,4.91c2.46,5.57,5.58,4.93,6.65,8.71,1.14,4-2.17,5.62-1.11,11.87a27.46,27.46,0,0,0,1.11,4.11,23.27,23.27,0,0,0,3.16,7c1.52,2,3.86,3.17,8.55,5.54s5.84,2.34,6.57,3.78c1.56,3.11-1.62,6.54.08,8.25,1.1,1.11,3.47.7,4.75.48C1151.24,1102.92,1151.64,1102.39,1153.67,1102Z"/><path d="M1098.58,1092.45c-.39.64,1.39,1.94,4.9,6,2.54,2.94,3.26,4.17,4.12,4,1.27-.31,1.5-3.45,1.58-4.59.13-1.79.25-3.49-.79-4.43-.87-.78-1.76-.29-4.75-.47C1100.19,1092.72,1098.9,1091.92,1098.58,1092.45Z"/><path d="M1125.8,1146.59c-2,1.61-1.87,4.67-.63,6.49a4.58,4.58,0,0,0,3.64,2.06,4.68,4.68,0,0,0,4.12-3.8,4.76,4.76,0,0,0-2.06-5.07A4.54,4.54,0,0,0,1125.8,1146.59Z"/><path d="M1229.81,1162c-3.25,9.48-2.17,13.23-.48,14.88,1.25,1.2,3.18,1.62,4.28,4s.32,4.06,1.58,4.91c1,.69,2.18-.07,3.64-.16,3.28-.18,6,3.18,8.08,5.86,6,7.86,6.31,9.79,10,14.41,2.71,3.41,5.76,6.23,11.87,11.87,5.71,5.26,6.61,5.53,7.76,7.91,1.79,3.73,1.22,6.45,4.11,11.88,2.14,4,3.3,4.11,3.64,4.11,1.75,0,2-3,5.07-6.8,3.71-4.58,6.76-4.44,7.44-7.76.47-2.29-.41-5.11-2.06-5.86s-2.91,1-4.27.32c-1.89-1-2.27-5.76-.48-9.34,1.44-2.88,3.44-3.28,3.17-4.75-.07-.37-.35-1.16-7.12-5.07-1.08-.61-1.6-.9-1.9-1.58-.69-1.55.78-3,1.9-6a20.31,20.31,0,0,0,1.1-6.65c0-2.3-.1-5.27-1.9-7.13-2.76-2.85-7.1-.44-15.67-1.9-3.55-.6-5.38-.76-7-1.9-4.16-3-.61-8.82-4.44-12.82-2.85-3-6-1.36-8.23-4.91-.4-.63-2.28-3.58-1.42-6.49.28-1,.69-1.35.47-1.74-.66-1.18-5.81.18-9.34,1.9A24.87,24.87,0,0,0,1229.81,1162Z"/><path d="M1293.6,1248.7a15.81,15.81,0,0,0-.31,6.8c.92,4.5,5.83,7.76,13,13.62,10.25,8.39,15.37,12.59,17.1,15.83a12.26,12.26,0,0,0,4.9,5.54c1,.56,1.56.57,3.33,1.42a31.92,31.92,0,0,1,4.9,3c.64.43,5.69,3.82,10.45,3,3.65-.63,5.76-3.66,8.55-7.6a31.46,31.46,0,0,0,4.91-11.71c.8-3.32,1.2-5.08.47-7.13s-2-3-6.33-5.86c-8.23-5.39-12.4-8.08-15.35-7.91s-4.45,1.53-6.81.47-3.13-3.2-5.38-3.16c-.67,0-.58.2-2.54.79a14.3,14.3,0,0,1-4.75,1,7.51,7.51,0,0,1-5.06-2.37c-2-2.5-.25-5-1.9-6.5s-4.14,1-8.87.32-6.7-3.73-8.7-2.53C1294.35,1246.19,1294.08,1247.1,1293.6,1248.7Z"/><path d="M1386.53,1312c-1.52-.12-.73-5.39-3.8-7.92-2.31-1.9-6.54-2-8.55,0s-1.28,5.42-1.11,6.33c.65,3.47,2.68,4.13,2.38,6.34s-2.34,2.23-4.12,4.9c-2.25,3.38-2.64,8.74-.32,10.93.89.82,2.07,1.11,7.13.79,6.5-.42,9.76-.62,11.87-1.43,7.94-3,9-9.42,15.2-11.08a9.77,9.77,0,0,0,4.59-2.53c.77-.79,1.76-1.8,1.74-3,0-2.87-5.73-5-8.55-6-4-1.5-4.43-.74-7.91-2.38-2.4-1.13-3.61-2.14-4.59-1.58-1.17.66-.54,2.68-2.38,5.22C1387.49,1311.46,1387.05,1312.06,1386.53,1312Z"/><path d="M1351.54,1326.58a2.68,2.68,0,0,0-.63,3.33c1,1.68,4.31,1.51,5.07.15a2.65,2.65,0,0,0-.64-2.69C1354.49,1326.39,1352.74,1325.69,1351.54,1326.58Z"/><path d="M1353.76,1336.87c-.45.91.49,2.43,1.58,3.17,1.7,1.15,4.41.85,4.91-.32.38-.89-.56-2.2-1.43-2.85C1357.14,1335.6,1354.33,1335.71,1353.76,1336.87Z"/><path d="M1430.38,1329.11c-1.19.7-2.14,2.34-1.59,3.33s2.5.81,2.7.79c2-.25,3.94-2,3.64-3.17S1432.13,1328.09,1430.38,1329.11Z"/><path d="M1412.81,1316.29c1.79.14,4,4.93,2.21,7.28a3.36,3.36,0,0,1-3.8,1.11c-1.64-.81-1.55-3.44-1.26-4.75C1410.32,1318.3,1411.57,1316.2,1412.81,1316.29Z"/><path d="M1275.56,1305.53c-2.57,2.57,5.58,11.88,2.69,15.83-1.31,1.78-3.44.52-6.17,3a10.52,10.52,0,0,0-3.17,6.81c-.23,3.26,1,7.64,4.59,9.5a7.81,7.81,0,0,0,4.59.79c2.58-.38,4.34-2.31,7.76-6.17,1.89-2.14,2.84-3.23,3.16-4.44.69-2.58-.75-3.59-1.42-7.75-.72-4.43.58-5.25-.16-9-.47-2.39-1-5.14-3.32-7.13a8.78,8.78,0,0,0-5.86-2.06C1276.87,1305,1276.09,1305,1275.56,1305.53Z"/><path d="M1235.35,1263.1c-3.32-.08-5.71,4.39-4.91,7.28a3.12,3.12,0,0,0,1.27,1.9c2.47,1.51,8.29-1.26,8.23-4.75A5,5,0,0,0,1235.35,1263.1Z"/><path d="M1172.19,1397.18c-3.43,5-3.37,6.91-6.65,13.62-1.51,3.09-2.21,4.07-1.9,5.7a7,7,0,0,0,3.32,4.27c3.82,2.21,6.45-.82,10.29,1.11,3,1.51,2.76,4.06,5.7,4.75a7.71,7.71,0,0,0,5.38-1.11c4.77-2.54,6.25-7.89,6.65-9.34,1.75-6.32-.5-11.74-1.74-14.72s-1.92-4.62-3.8-6.18c-4.46-3.68-12.12-3.6-15.83,0A12.68,12.68,0,0,0,1172.19,1397.18Z"/><path d="M1225.38,1450.06c3.49-.3,3.75,7.09,11.39,13.29,2.59,2.1,4.78,3.05,5.23,5.54.4,2.23-.86,4.18-2.06,6-1.59,2.44-5.78,7.65-8.71,6.65-1.93-.66-1-3.25-4-7.92-2.65-4.21-4.8-4.33-5.23-7.28-.39-2.74,1.39-3.17,1.11-6.65-.26-3.21-1.91-4.21-1.27-6.33C1222.32,1452,1223.73,1450.19,1225.38,1450.06Z"/><path d="M1259.73,1562.93c.44,4.58,3.72,9.42,8.55,12.19,5,2.85,8.94,1.93,10.29,5.06.76,1.78,0,3.24,1.26,4.43s3.56.9,5.23.64c2-.33,5.18-.83,6.33-3,1.6-3-1.73-7.49-3.48-9.82-2.17-2.88-4.38-4.46-8.08-7.12a40,40,0,0,0-8.86-5.22c-3.07-1.25-8.33-3.39-10.45-1.27C1259.43,1559.9,1259.61,1561.68,1259.73,1562.93Z"/><path d="M1302.47,1568.31c-2.49,1.55-2.49,6.08-.63,7.28,1.25.81,3.28.06,4.43-.95,1.5-1.31,2.6-4,1.27-5.7A4,4,0,0,0,1302.47,1568.31Z"/><path d="M1323.21,1555.64c-3.63,2.94-5.47,4.47-6.18,7.13-.56,2.1-.53,5.22,1,6,1.14.61,2.57-.44,7.44-3.8,7.76-5.34,8.51-5.68,10.45-7.59,2.43-2.4,6.09-6,5.07-8.55a3.43,3.43,0,0,0-2.06-1.74c-1.9-.61-3.66.7-7.12,3C1325.21,1554.45,1325.76,1553.58,1323.21,1555.64Z"/><path d="M1363.26,1528.26a15.62,15.62,0,0,0-1.59,8.39s0,.44.1.88c.29,1.77,1.38,4.45,6.08,11.62,5.8,8.86,8.41,11.26,10.45,12.83.81.63,6.31,4.87,8.07,3.48.74-.59.19-1.67.16-5.23,0-2.88,0-5.86,1.26-8.86,1.16-2.63,2.15-2.53,2.38-4.27.39-3-2.11-6-4.28-7.6-4.59-3.42-7.8-.63-10.44-3.64s-3.21-9.49-3.33-10.61-.14-2.13-.79-2.53C1369.7,1521.7,1365.3,1524.56,1363.26,1528.26Z"/><path d="M1412.33,1403.67c-5.21,6.29-4.29,7.54-7.12,8.87-3.52,1.65-9.16,1.81-11.72,4.11-2.75,2.48-1.51,4.06-5.22,7.6a32.24,32.24,0,0,1-6.17,4.59c-2.47,1.34-3.5,1.39-4,2.38-1,2.08,3,3.54,4.59,8.23,1.08,3.2-.23,3.79,1,10.61a19.49,19.49,0,0,0,1.42,4.9c.85,1.9,1.21,1.8,2.38,4,2,3.65,1.43,4.77,3.32,7,.46.53.38.33,2.22,2.21,1.18,1.21,2.3,2.35,2.85,3,1.88,2.25,1.31,3.81,2.85,8.39,1.3,3.87,2,5.81,3.48,6.33,1,.35,2.32.05,8.39-4.75,6.66-5.26,7-6.36,9.34-6.8,4.23-.8,6.77,2,9,.31,1.27-.95,1.33-2.49,1.74-5.22,1-6.67,1.87-5.68,2.85-11.87,1.76-11-1.16-12.86,1.59-16.78,2.52-3.6,6.22-3.81,6.65-7.13.26-2.06-1-3.1-2.22-5.54-3.84-7.86,1.94-12.7-1.58-19-2-3.48-3.74-2.06-8.39-7.76-3.51-4.3-3.49-6.34-5.54-6.81C1420.6,1393.7,1416.58,1398.55,1412.33,1403.67Z"/><path d="M1347.74,1418.55c3-.44,4.23,2,7.6,3,5.27,1.53,9.6-2.35,10.45-1.11s-4.84,5.17-6.49,12.51a18,18,0,0,0-.48,4.91c.18,3.72,1.43,4.23,1.27,6.33-.2,2.67-2.34,3.17-7.76,8.86-3.94,4.15-3.6,4.74-5.69,6a15.64,15.64,0,0,1-10.45,1.9c-.62-.12-7.31-1.5-10.45-7.76a15.38,15.38,0,0,1-1.27-9c.25-2.34.55-5.08,2.54-6.49,1.57-1.11,2.56-.23,4.43-1.43,2.2-1.4,3-4,3.32-5.22,1-3.55-.44-4.33.64-6.17,1.22-2.11,3.27-1.32,8.54-4.28C1346.47,1419.2,1346.5,1418.74,1347.74,1418.55Z"/><path d="M1315.93,1447.05c-2.1-.72-5.53,3.89-7.13,6.81-1.2,2.19-3.32,6.05-2.06,10.29.57,1.9,2.11,4.81,3.8,4.74.68,0,1.4-.53,4.59-8.07,2.27-5.34,2.85-7.32,2.54-9.81C1317.51,1449.8,1317.22,1447.49,1315.93,1447.05Z"/><path d="M1299.46,1466.36c2.56,1,4.09,1.58,4.12,2.38.06,1.52-5.31,4.12-7.13,2.37-1.28-1.23-.79-4.59.64-5.22C1297.32,1465.79,1297.72,1465.69,1299.46,1466.36Z"/><path d="M1407.27,1502.77c-3-1.07-8.84,4.61-7.76,7.44.79,2.07,5.74,3.76,8.55,1.11a5.83,5.83,0,0,0,.79-7A3.31,3.31,0,0,0,1407.27,1502.77Z"/><path d="M1416.29,1491.37c-2.64,2.38,0,8.27,2.53,13.93.6,1.34,1.17,2.4,2.22,2.7,2,.57,4.7-2.06,5.85-4.44a9.76,9.76,0,0,0-.79-9.5,7.68,7.68,0,0,0-3.16-2.84C1421,1490.31,1417.93,1489.9,1416.29,1491.37Z"/><path d="M1433.54,1479.66c-1.9,3.36-4,3.07-5.22,6-1,2.28-1,5.3.16,5.86.7.36,1.76-.3,5.86-4,3.6-3.21,5.57-5.19,7.59-7.12,5.88-5.6,7.84-6.6,7.44-7.76-.56-1.64-5.22-1.58-8.07-1a9.76,9.76,0,0,0-5.7,3C1434.18,1476.48,1434.92,1477.23,1433.54,1479.66Z"/><path d="M1449.37,1491.06c-2.2,1.54-4.84.82-4.9,1.26s2,.53,3.64,2.22c.66.66.55.83,1.11,1.27.26.2,1.35,1,4.11.79,2-.15,4.67-.34,5.07-1.59.64-2-4.84-6.52-7.44-5.38C1450.27,1489.93,1450.34,1490.38,1449.37,1491.06Z"/><path d="M1453.81,1504a3.75,3.75,0,0,1,4.75.47,3.69,3.69,0,0,1,.63,3.17,3.85,3.85,0,0,1-3,3,3.62,3.62,0,0,1-3.8-2.06A3.75,3.75,0,0,1,1453.81,1504Z"/><path d="M1479.93,1518.76c-2.32,1.81-3.72,5.62-2.54,7,1.87,2.14,7.94-4.43,16.47-2.69,2.33.48,4,1.41,6,.48,1.76-.84,2.29-2.48,4-5.7.2-.38,1.66-2.78,4.59-7.6,3.48-5.72,5.26-8.6,7.12-10,.93-.68,3.16-1.62,7.6-3.48,3.14-1.32,4.84-2,7.28-2.85,2.91-1,4.06-1.16,9.19-2.69,5.35-1.61,5.77-1.92,5.85-2.38.38-2.15-7.41-5.1-11.71-6.33-2.07-.59-7.67-2.21-8.55-.63s4.22,5,3.17,7.44c-.57,1.3-2.26.81-6.18,2.84a51.51,51.51,0,0,0-4.59,3c-3.74,2.6-4.5,3.33-5.7,4.12-6.8,4.5-13.44,1.86-14.56,4.91-.74,2,1.54,4.82,1.74,5.06,1.74,2.1,3.7,2,4,3.48s-1.34,3.18-3,4c-2.14,1-3.27-.14-8.07-.16a35.18,35.18,0,0,0-5.54.48C1482.93,1517.52,1481.18,1517.78,1479.93,1518.76Z"/><path d="M1633.52,1452.31a9.69,9.69,0,0,0-4,4.28c-1.15,1.94-2.13,3.59-1.66,5,1.16,3.46,11.18,5.23,16,.83.41-.37,2.72-2.46,2.37-5s-3.34-4-4.75-4.63C1640.43,1452.31,1636.91,1450.69,1633.52,1452.31Z"/><path d="M1599.09,1460.5c-5.46.82-5.91,1.54-6.06,1.9-.26.67.18,1.6,1.07,3.45a11.82,11.82,0,0,0,2,3.44c2.32,2.19,8.29,2.42,10.21-1.07,1.5-2.72,0-6.81-2.37-8C1603.19,1459.9,1601.81,1460.1,1599.09,1460.5Z"/><path d="M1567.15,1484.13c1-1.69,6.2-1.43,7,.71.51,1.37-.69,3.76-2.62,4.16s-3.38-1.43-3.56-1.66C1567.45,1486.65,1566.58,1485.1,1567.15,1484.13Z"/><path d="M1488.63,1415.86c-2.43-.74-6.63,1.85-7.12,5.07-.18,1.16.72,2.79,2.53,6,2.75,4.89,3.76,5.36,4.28,5.55a5.85,5.85,0,0,0,5.38-1.11c3.6-3,2.61-10.24,0-12.35-.55-.44-2.26-1.55-3.64-2.38A11.53,11.53,0,0,0,1488.63,1415.86Z"/><path d="M1460.93,1427.1c-1.4,0-3,2.23-2.53,4,.57,2.3,4.55,3.12,5.54,2.06s-.7-3.8-.79-4C1462.66,1428.34,1461.94,1427.12,1460.93,1427.1Z"/><path d="M42.86,564c-.69.83.21,2.86,1.58,3.8.64.43,1.89,1,2.54.47.81-.64.52-2.88-.8-3.95C45.16,563.52,43.45,563.33,42.86,564Z"/><path d="M2.65,576.23C1,576.94.5,579,.28,580s-.58,2.6.15,3.16c1.52,1.18,7.71-2.47,7.29-4.9C7.46,576.79,4.64,575.39,2.65,576.23Z"/><path d="M27.66,599.18c-2,3,3.19,11.5,6.65,11.08,1.42-.17,2.63-1.84,2.85-3.32.2-1.31-.61-2.53-2.22-4.91-1.77-2.62-2.68-3.93-4.11-4.11A3.44,3.44,0,0,0,27.66,599.18Z"/><path d="M68.35,598.39a10.52,10.52,0,0,0-3.8,4.28,10.86,10.86,0,0,0-.16,9c.79,1.74,1.32,1.46,3.48,4.75,1.53,2.33,2.3,3.5,2.69,4.9,1.28,4.61-2.15,7.08-.63,9.34,1.32,2,4.19.52,8.07,3.49a13.94,13.94,0,0,1,2.38,2.37c2.62,3.17,2.64,5.38,4.43,8.39,2,3.4,3.11,2.26,4.75,5.23,2,3.58,1,5.76,3,7.28,1.58,1.18,2.72.25,5.38,1.26a12.15,12.15,0,0,1,5.22,4.28c2,2.48,2.24,4.28,4.43,13.3,2.54,10.41,2.56,9.6,2.7,11.08.55,5.84-.52,9.11,1.74,10.92.45.36,2,.78,5.22,1.58,3.81,1,4.12.9,5.23,1.27,3.51,1.19,4.19,3.27,7.28,5.7,4.15,3.26,5.84,1.8,11.39,4.75,4.69,2.48,3.89,3.73,9.82,8.07s13.89,8.34,15.35,6.65c.38-.43.23-1.12.08-1.8-.68-3.17-4.18-3.19-5-5.8s2-3.84,1.11-6.65a7.37,7.37,0,0,0-3.17-3.48,6.88,6.88,0,0,0-4-1.58c-1.81,0-2.23,1.06-4.11,1.26a7.51,7.51,0,0,1-4.28-1.11c-3.44-1.65-3.47-3.36-6.81-5.06a19.53,19.53,0,0,0-4.27-1.43c-4.72-1.23-5.51-.42-7.44-1.42-2.78-1.45-3.85-4.55-4.91-7.6-.69-2-1-3.68-1.42-8.23-1.25-13.14-.11-13.3-1.58-17.1-1.31-3.37-3-5.14-2.06-7.28.58-1.41,1.89-2.09,3.32-5.06.83-1.73.75-2.24.64-2.54-.54-1.39-3-1.35-5.39-1.9a19.49,19.49,0,0,1-8.55-4.9c-4.6-4.67-4.46-11.23-4.43-12.51,0-2.08.15-6.83,3.33-9.5,1.07-.9,1.32-.58,4.75-2.21s3.8-2.24,7.28-4.12c5.85-3.16,6.45-2.37,7.75-4,2.4-2.94,2.71-8.53.16-11.4-2.93-3.3-7.43-.5-11.08-4.27-2.26-2.34-1.43-4.35-4.11-6.17-2-1.34-5.07-2.07-7-.8-1.49,1-.93,2.37-2.69,4.44a10.07,10.07,0,0,1-4.91,3c-2.77.83-4.27,0-8.39-.31-1.13-.1-.7,0-8.39.16C72,597.16,70.43,597.07,68.35,598.39Z"/><path d="M168.87,771.26c.67,7.5,7,12.07,8.39,13a16.67,16.67,0,0,0,8.7,3c1.75.06,4,.13,5.23-1.27,2.14-2.37,0-7.26-.32-8.07-1.65-3.82-5.34-6.24-12.66-10.93-5-3.16-6.34-3.56-7.44-3C168.32,765.21,168.79,770.41,168.87,771.26Z"/><path d="M191.5,793.89c-.74,1.25,2,4.21,3.49,5.54,3,2.79,8.52,5.85,10.45,4.12,1.44-1.3.8-5.21-1.27-7.28-1.08-1.08-2.63-1.42-5.7-2.06C194.75,793.43,192.11,792.88,191.5,793.89Z"/><path d="M371.18,1035.15c-.94.95-.61,3.42.63,4.27,1.53,1,3.2-1.24,6-.63,2.57.56,2.58,2.77,5.85,3.8,1.49.46,3.77.73,4.28-.16s-.82-2.63-2.06-3.64c-1.6-1.31-3-1.33-5.86-1.9C373.91,1035.66,372.2,1034.12,371.18,1035.15Z"/><path d="M376.09,999.53c-.78.84.7,3.36,1.42,4.59a21.07,21.07,0,0,0,6.33,6.49c3,2.08,5.26,3.7,6.65,2.85s1.6-3.37.63-5.07c-1.3-2.27-4-1.15-7-3.95-1.54-1.47-1.28-2.22-3-3.49S376.83,998.72,376.09,999.53Z"/><path d="M329.86,1001.11c-1.05.29-2.66.2-3-.63s.7-2.39,2.06-2.69,3,.64,3,1.58S330.68,1000.89,329.86,1001.11Z"/><path d="M356,958.05c-6.13,3.42-9.2,5.13-9.66,4.59s.66-1.92,2.7-4.9,3.18-4.66,4.59-5.7c2.78-2.06,7-3.15,7.91-1.9s-1,4.32-3,6.17A11.7,11.7,0,0,1,356,958.05Z"/><path d="M353.76,965.65c-1.44,1.2-.94,2-3.32,7.76-1.05,2.54-1.48,3.22-1.58,4.75-.13,1.92.31,4.89,1.58,5.22,2,.52,5.25-5.8,6.33-7.91,2.42-4.73.91-4.48,3.17-9,.24-.48.63-1.23.31-1.74C359.6,963.62,356,963.82,353.76,965.65Z"/><path d="M305.64,976.26c-.64,2.61-1.06,4.28-.16,5.86.65,1.13,2.12,2.48,3.49,2.21,1.84-.37,2.92-3.61,2.21-6s-3.56-4.4-4.75-3.8C306.26,974.61,306,974.81,305.64,976.26Z"/><path d="M295.67,1001.27c.8.59-.35,2.09.47,4.27.7,1.87,1.94,1.82,4.44,4.28a13.39,13.39,0,0,1,4.11,6.33,10.84,10.84,0,0,1,0,4.75c-.15.86-1.18,6.74-5.38,8.39a3.58,3.58,0,0,1-2.53.32c-1.58-.56-1.84-2.57-3.49-6.34a45.66,45.66,0,0,0-2.05-4.11c-3-5.16-5.29-5.63-5.39-8.23-.07-1.95,1.16-3.4,2.85-5.39C290.92,1002.93,294.47,1000.4,295.67,1001.27Z"/><path d="M307.86,1037.68c-4.49,1.49-6.39,1.13-6.81,2.37-.49,1.44,1.93,2.23,2.85,5.54.87,3.14-.79,4.29.32,6.81.79,1.82,2.8,3.82,5.06,3.64s3.6-2.49,3.8-2.85a7.27,7.27,0,0,0,.63-4.9c-.52-3.26-2.31-3.54-2-5.7.08-.71.26-.62,2-4.75.7-1.61.83-2,.64-2.22C313.82,1035,311.71,1036.4,307.86,1037.68Z"/><path d="M322.74,944.6c-2.69-.84-5.88,4-6.18,4.43-.53.82-2.84,4.39-1.42,6.49.36.54,1.15,1.25,1.9,1.11,1.44-.28.8-3.38,3.16-5.23.73-.57,1.24-.61,3-1.89,1.25-.91,1.49-1.23,1.59-1.59A3.16,3.16,0,0,0,322.74,944.6Z"/><path d="M306.59,896.16a9.45,9.45,0,0,0-3.32-2.38c-3.44-1.48-8.18-1.12-10.61,1.43s-.11,5.23-2.53,9.81c-2.14,4.05-4.65,3.19-7.13,7.6-1.34,2.39-.71,2.84-2.53,8.87-1.23,4.07-1.64,4.26-3,8.39a84.49,84.49,0,0,0-3.16,12.5c-.61,3.65-.27,3.38-1.11,12.51-.51,5.51-1.08,10.52-.63,10.6s1-3.65,3.95-7.91c1.13-1.62,2.11-3,3.17-2.85,1.3.17,1.49,2.47,4.43,5.7a4.86,4.86,0,0,0,1.74,1.42c1.52.62,2.6-.2,5.07-.79,3.36-.8,3.72.14,6.65-.79a8.17,8.17,0,0,0,3.95-2.06c1.73-1.85.84-3.38,2.85-6.33,1.07-1.56,1.6-1.55,1.9-2.69.46-1.72-.55-2.47-.63-4.75-.05-1.5.38-1.23,1.11-4.75.66-3.21.41-3.94,1.27-5.7.69-1.43,1.09-1.41,1.58-2.53,1.07-2.49.17-5.08-.16-6.18s-.41-6.73-.63-18.2C308.7,901.55,308.77,898.66,306.59,896.16Z"/><path d="M267.33,1006.65c-1.61,10.26-2.32,7.34-2.69,13.3-.85,13.66,3.61,16.64.48,23-1.88,3.77-5.78,7.36-9.19,7-1.79-.21-2.06-1.36-6.33-4.59-3.61-2.74-5.82-4.41-8.86-5.07-1.19-.25-6.23-1.34-9,1.27-3.62,3.38,1.1,8.69-2.21,18.2-.12.34-1.24,3-3.49,8.24-2.18,5.11-2.43,5.65-2.84,6.64-3.46,8.36-5.56,13.44-4,18.84a17.21,17.21,0,0,0,10.6,10.77,14.3,14.3,0,0,0,7.92.63c1.24-.27,4.72-1,6.65-3.8,1.58-2.27,1-4.33,1-9.34-.12-7.78,1-14.1,1.42-14.09s.05,2.86.95,7.44c.55,2.78.94,3.3,1.74,6.81.85,3.7.71,4.38,1.27,7a41.11,41.11,0,0,0,4.12,10.93c2.14,4.06,3.53,6.69,6.49,9.18,1.61,1.35,6.92,5.82,12.34,4.59,4.49-1,4.91-5,9.66-5.38a11.66,11.66,0,0,1,6.65,1.74c2.16,1.26,2.47,2.34,5.22,5.06a30.27,30.27,0,0,0,6.49,5.23c2.69,1.46,3.53.9,10.93,2.06,8.27,1.29,9.88,2.42,12.66,1.1a11.15,11.15,0,0,0,4.91-5.22c.91-1.76,1.48-3.82,1.42-9.81-.06-6.61-.1-9.91-1-11.88-2.47-5.72-7.15-5.42-12-11.4-1.85-2.27-.49-1.61-5.38-12.18-1.69-3.66-3.29-6.46-6.49-12-2.32-4-3.59-6-6-7-1.38-.55-2.29-.43-4.9-1.43a13.6,13.6,0,0,1-4.59-2.37c-2.33-2.23-1.89-6-1.75-8.71.34-6.32-.77-11-2.37-17.88-2.23-9.53-4.83-8.68-6-16.94-.86-6,.17-8.86-2.37-11.56s-7.51-3.9-9.82-2.06C267.76,1003.77,267.56,1005.21,267.33,1006.65Z"/><path d="M398.09,1051.77c-1.57-.35-3.56,2.55-4.27,4.91-.38,1.25-.93,3.07.15,4.59a4,4,0,0,0,4.59,1.42c2.22-1.07,1.75-4.93,1.59-6.33C400,1055.47,399.64,1052.11,398.09,1051.77Z"/><path d="M406.32,1048.44c-.66.54.26,3.54,2.38,5.39,2.34,2,6.11,2.62,7,1.42.58-.81-.13-2.52-1.11-3.48s-1.77-.72-4.11-1.58C407.6,1049.14,406.77,1048.08,406.32,1048.44Z"/><path d="M296.14,1179.36c-2.36,2.63-3.53,4-4.43,6.17-1.15,2.86-1,5.22-.79,9.82.31,5.5.46,8.25,1.74,10.76,2.15,4.22,4.41,3.55,7.44,8.87.45.79,1.3,2.74,3,6.65a40.6,40.6,0,0,0,3.64,7.12,21,21,0,0,0,6.81,6.65c2.57,1.73,4.18,3.41,7.12,6.49s2.7,3.59,8.07,10.29c3.81,4.74,5,5.81,6.49,5.7a4.64,4.64,0,0,0,4-4.28c-.15-2.9-5.08-3.46-5.22-6.17-.11-2,2.56-2.28,5.7-6.33s2.45-6.13,5.06-7.44c.7-.35,1.25-.48,6-.32,9.38.31,10.38.87,11.08,1.43,2.42,1.93,2.13,4.54,4.11,4.9a3.91,3.91,0,0,0,4.12-2.69c.4-2.18-3.37-3.28-8.55-8.86-3.38-3.64-2.26-3.69-5.38-6.81-3.47-3.46-6.24-4.79-7.12-8.23-.49-1.87.32-2-.16-3.48-.33-1-1.5-3.42-12.35-6.34-4.12-1.1-4.35-.86-8.87-2-5.49-1.46-8.24-2.19-10.28-3.49-4.72-3-6.75-7.76-8.24-11.24-3.41-8-2.13-13.08-4.59-13.77C302.58,1172.17,300.12,1174.91,296.14,1179.36Z"/><path d="M371.49,1377.71c-.56.43.21,2.47,1.11,3.8.56.83,1.26,1.86,2.06,1.74s1.51-1.48,1.27-2.53c-.17-.73-.75-1.12-1.9-1.9S371.91,1377.4,371.49,1377.71Z"/><path d="M534.86,1520.82c-.51.17-1.71.92-1.9,10.13-.12,6.16-.18,9.24.95,9.66,1.78.65,5.36-3.95,6.81-8.08a9.84,9.84,0,0,0,.63-4.91,8.73,8.73,0,0,0-3-5.22C537.28,1521.53,536,1520.44,534.86,1520.82Z"/><path d="M547.84,1537.12c-.57,5.55-.56,6.73-.47,7.92.22,3,.38,5,1.74,5.7,1.57.82,3.76-.59,4.27-1s2.14-1.58,3.33-6c1.13-4.21,1.93-7.23.16-9.65-1.9-2.59-6.13-3.68-7.92-2.22C548.42,1532.33,548.29,1532.84,547.84,1537.12Z"/><path d="M575.86,1550.58c-.62.67-.12,2.44.95,3.32,1.42,1.17,3.94.9,4.43-.16.35-.73-.34-1.71-.47-1.9a4,4,0,0,0-2.85-1.42C577,1550.28,576.26,1550.15,575.86,1550.58Z"/><path d="M820.44,1655.37a20.54,20.54,0,0,0-2.85,10.14c0,3,.7,2.89,1.58,8.23A58.78,58.78,0,0,1,820,1685c-.09,3-.36,3-1,9.18a84.36,84.36,0,0,0-.63,8.71c.36,5.06,3,12.91,8.87,15.51,2.9,1.3,5.5.8,11.08,2.37a34.24,34.24,0,0,1,4.43,1.43c1.89.83,2.29,1.31,2.85,1.11.91-.34,1.2-2.15.95-8.87s-.67-8,.16-10.45c.45-1.34,1.39-4.16,3.95-5.7,2.87-1.71,5.2-.28,6.34-1.74,1.44-1.85-.72-6.23-2.85-9-3.57-4.65-6.44-4-11.56-8.87a35.62,35.62,0,0,1-6.49-8.54c-2.22-3.81-2.6-5.79-6.33-13.14-2.56-5-3.58-6.48-4.91-6.49C823.15,1650.45,821.84,1652.83,820.44,1655.37Z"/><path d="M902.28,1803.23c-1.08,1.73.16,4,1.74,7,2.87,5.32,6.93,8.54,7.28,8.24s-3.09-3.07-2.53-6.49c.31-1.89,1.53-2.18,1.9-4.44.08-.48.56-3.44-1.26-5.06C907.4,1800.65,903.52,1801.26,902.28,1803.23Z"/><path d="M1349.17,1932.88c-1.46.68-2,3.6-.63,5.22s4.69,1.45,5.54,0-.54-3.57-2.06-4.59C1351.67,1933.28,1350.29,1932.36,1349.17,1932.88Z"/><path d="M1346.16,1686.09c-1.65,1.86-3.49,5.72-1.58,8.07,1.19,1.47,3.7,2.17,5.22,1.26,3.18-1.88,1.79-10.6-.63-11.23C1348.09,1683.9,1346.89,1685.26,1346.16,1686.09Z"/><path d="M1374.34,1637.64c1.52,3.13,5.33,5.23,7,4.28.22-.13.65-.45,1.59-4.43.41-1.77.6-2.86.79-3.8,1.14-5.79,2.35-6.75,1.58-8.23s-3.07-2.25-4.75-2.06c-3.36.38-5,4.27-5.7,6S1372.75,1634.39,1374.34,1637.64Z"/><path d="M1390.49,1640.81c-.48.59.51,2.27,1.58,3.17,2.32,1.94,6,1,6.17.15C1398.51,1642.82,1391.45,1639.62,1390.49,1640.81Z"/><path d="M1388.11,1654c1-1.06,4.77,2.59,8.39,1.11a6.18,6.18,0,0,0,2.69-2.38c1.41-2,1.47-3.92,1.58-7.44a18.71,18.71,0,0,0-.79-7.12,22.05,22.05,0,0,0-1.26-2.85c-4.41-9-5.21-10-5.86-10.61-2.24-2.28-4.33-3-4.12-3.48s2.67-.11,4.75,1c1.48.75,1.94,1.41,4.75,4,2.19,2,1.88,1.55,3.64,3.16a42.93,42.93,0,0,1,5.39,5.55,31,31,0,0,1,3.16,5.06c2,4.09,3.93,7.91,2.85,12.19a14.21,14.21,0,0,1-4.12,6.49,11.32,11.32,0,0,1-4.59,3.17,11.81,11.81,0,0,1-4.27.47c-2.75-.1-7.69-.28-10.61-3.8C1388.46,1656.89,1387.46,1654.65,1388.11,1654Z"/><path d="M1476.92,1643.5a12.2,12.2,0,0,0-8.87,10.13,13.58,13.58,0,0,0,1,5.7,10.75,10.75,0,0,0,2.06,3.64c2.08,2.12,5.16,1.51,10.61,1.27,10.8-.49,14.41,1.21,16.46-1.58a5.8,5.8,0,0,0,.95-4c-.3-2.81-2.53-3.6-7.44-8.23-4.49-4.24-4.59-5.43-7.28-6.49A12.09,12.09,0,0,0,1476.92,1643.5Z"/><path d="M1491.64,1679.59c-1.89,1-2.56,4-1.42,6a3.43,3.43,0,0,0,2.21,1.74,4.09,4.09,0,0,0,1.27-8.07A3.21,3.21,0,0,0,1491.64,1679.59Z"/><path d="M1502.25,1681.49a2.88,2.88,0,0,0-.48,2.7c.67,2.3,4.11,3.8,5.86,2.53a3.22,3.22,0,0,0,.95-3.48C1507.74,1680.83,1503.69,1680,1502.25,1681.49Z"/><path d="M1560.5,1594.74c-2.5,2.43-1.24,6.84-.79,8.39.4,1.4,1.35,4.69,3.32,4.91,1.79.2,3.31-2.24,3.49-2.53,1.39-2.24,1-4.65.47-7.76-.39-2.34-.6-3.52-1.58-4.11C1564,1592.78,1561.75,1593.54,1560.5,1594.74Z"/><path d="M1581.71,1595.22c-1.13,1.23,0,4.92,2.38,5.86,1.05.4,2.63.4,3.32-.48,1-1.31-.12-4.31-2.21-5.38C1584.17,1594.69,1582.46,1594.41,1581.71,1595.22Z"/><path d="M1594.85,1591.58c.05,4.06,2.2,5.53,4.91,12a9.83,9.83,0,0,0,2.06,3.64,9.28,9.28,0,0,0,4.75,2.38c2.84.66,6.62.54,7-.64.22-.77-1.27-1.1-2.06-3.16a6,6,0,0,1,.32-5.07c.66-1,1.19-.89,1.58-1.74.78-1.68-.32-4.34-2-5.86-2.21-1.94-3.64-.45-7-2.37-2.62-1.52-2.89-3.11-5.06-3.33a4.58,4.58,0,0,0-3.65,1.27A4.22,4.22,0,0,0,1594.85,1591.58Z"/><path d="M1610.53,1578.6c.69-.24,1.53.74,1.8,1.05a2.24,2.24,0,0,1,.73,1.8,1.46,1.46,0,0,1-.79,1.11c-.85.32-2.07-.64-2.38-1.75C1609.66,1580,1609.89,1578.82,1610.53,1578.6Z"/><path d="M1619.86,1570.68c2.61-1.36,6.86,1.35,9.19,3.49,4.09,3.75,3.21,6.61,7.6,9.65,1.56,1.08,2.94,1.6,2.84,2.38s-1.38,1.06-6.17,2c-6,1.24-8.76,1.73-11.24.48-.87-.44-1.22-.85-1.27-1.27-.16-1.4,3-3,3.17-2.85s-1.07,1.14-1.11,1.11,2.08-1.56,2.06-3.48a4.67,4.67,0,0,0-1-2.22,16,16,0,0,0-3.17-4.11c-1.68-1.54-2.56-1.62-2.69-2.54A3.06,3.06,0,0,1,1619.86,1570.68Z"/><path d="M1632.69,1597c-.12.3,1.53.65,2.85,2.38.62.81.61,1.21,1.74,4.27s1.34,3.24,1.74,3.48a3.62,3.62,0,0,0,4.59-1.26c.89-1.67-.56-3.63-1.27-4.59a9.17,9.17,0,0,0-3.8-2.85C1635.79,1597,1632.84,1596.56,1632.69,1597Z"/><path d="M1456.66,1570.21c-.81.3-1.13,2.83,0,4.59.88,1.38,2.93,2.72,4.27,1.9a2.8,2.8,0,0,0,.79-3.48c-.41-.7-1-.57-2.69-1.59S1457.1,1570,1456.66,1570.21Z"/><path d="M1124.85,1515.44c3.2,1,4.75,4.08,5.07,6.49.38,2.85-.66,6.94-3.64,7.91-3.26,1.06-6.49-2.39-7.76-4.43-.39-.63-3.07-4.94-.79-8.08C1119.35,1515.11,1122.56,1514.73,1124.85,1515.44Z"/><path d="M1193.24,1512.74c-.92,1.81-1.38,2.71-1.27,3.65.27,2.13,2.61,2.32,3.65,5.38.37,1.09.22,1.52.63,1.74,1.28.67,4.41-2.64,6.17-5.38,1.26-2,2.14-3.34,1.9-5.23a5.73,5.73,0,0,0-3-4.27c-2.86-1.33-5.64.78-5.85.95A8.49,8.49,0,0,0,1193.24,1512.74Z"/><path d="M1212.24,1528.89c-.62,2,.15,5.27,2.21,5.86,1.65.46,3.44-1,4.28-2.22,1.8-2.71,0-6-.16-6.33-1-1.88-3.15-3.49-4.12-3-.69.35-.27,1.55-1.42,4.12C1212.55,1528.39,1212.42,1528.29,1212.24,1528.89Z"/><path d="M1165.85,1531.9c-.78,2.44,2.54,5.63,4.91,7.91s3.69,2.72,4.75,4.91c.43.88,1.56,3.2.63,5.07-1.27,2.57-5.94,3.17-9.18,1.9-1.61-.64-2.31-1.51-6-6-5.8-7.06-6.83-8.25-8.08-8.07s-1.6,1.37-3.95,7.12c-3.87,9.46-4.65,11.23-4,13.93.24,1,.93,3.67,3.16,4.91s4-.31,10-1c5.14-.56,5.46.48,9.34-.48,3.18-.78,3.46-1.59,6.49-2.05,3.66-.56,4,.53,7.28,0a18.36,18.36,0,0,0,8.07-3.64c1.85-1.38,2.88-2.15,3.64-3.49,2.5-4.35-1.6-8.1-2.37-18.2-.31-4.06.09-6.81-1-7.13-1.57-.47-3.25,5.54-8.55,7a7.49,7.49,0,0,1-5.06-.16c-3-1.36-3-4.53-5.39-5.06A4.44,4.44,0,0,0,1165.85,1531.9Z"/><path d="M939.64,1478.71c-1.12.75-.54,5.16,2.06,6.65,1,.59,2.67.88,3.32.16.84-.93-.26-3.15-1.11-4.28C942.75,1479.67,940.54,1478.11,939.64,1478.71Z"/><path d="M1037.79,1505.62c-.57,1.36,1.86,4.32,4.59,4.59,1,.1,2.76-.07,3.32-1.27.49-1-.19-2.33-.79-3C1043,1503.77,1038.41,1504.13,1037.79,1505.62Z"/><path d="M1202.58,1379.3c-.11,1.41,1.9,2.72,3.48,3.16s4.79.45,5.7-1.58a3.9,3.9,0,0,0-1.42-4.43c-2.35-1.7-5.64.58-6.18,1C1203.46,1377.89,1202.65,1378.45,1202.58,1379.3Z"/><path d="M1162.06,1311.7c-.87.49-7.29,4.21-7.92,10.61-.43,4.33,2.27,5.06,3.48,12.82a25.29,25.29,0,0,1,.32,8.07c-.69,4.89-2.59,5.91-5.07,13-1.68,4.81-2.78,8.07-1.26,9.66,1.81,1.91,6.32.3,7.6-.16,4.5-1.61,7-5,8.54-7A21.08,21.08,0,0,0,1172,1350c1.12-5.43-.69-9.29,1.11-10.29,1.24-.7,2.59.9,5.22.16a6.16,6.16,0,0,0,2.85-1.74c2.41-2.91.74-9.51-3-13.14-2.85-2.77-5-2-6-4.43-.85-2.07.2-3.67-1-7.76-.52-1.83-.93-2.22-1.11-2.38C1167.91,1308.56,1163,1311.16,1162.06,1311.7Z"/><path d="M1136.73,1252c-4.21,3.75-5.34,8.68-6,11.87-1.88,8.79,1.73,10.74,1.11,21.69-.49,8.73-3.1,13-1,14.56,2.7,2,9.34-3,9.81-3.32,1.89-1.42,2.87-2.66,7.92-10.13,6.15-9.1,6-9.22,7.91-11.56,3.63-4.48,4.41-4.4,5.39-6.8,1.18-2.92.91-6,.31-12.19-.52-5.43-.82-8.16-2.21-9.34-2.44-2.06-6.28-1.06-12.19.47C1142.8,1248.57,1139.7,1249.37,1136.73,1252Z"/><path d="M1099.05,1231.44c-1.76.38-2.57,2.84-4.11,7.76a64.52,64.52,0,0,0-1.75,7c-.82,4.14-1.32,6.61-.79,6.81s3-3,4-6.65c.53-2,.13-2.25.79-4.11a27.64,27.64,0,0,1,3-5.39c1.62-2.54,2.17-3.18,1.9-4A2.8,2.8,0,0,0,1099.05,1231.44Z"/><path d="M1010.88,1220.36c-.73,1.12.25,3.55,1.9,4,1.84.45,4-1.78,3.64-3.17-.28-1.19-2.33-1.77-3.8-1.58A2.32,2.32,0,0,0,1010.88,1220.36Z"/><path d="M1049.66,1309.33c-1.14.46-1.6,3.49-.16,4.59a2.37,2.37,0,0,0,3-.16,2.41,2.41,0,0,0,.16-2.22C1052.18,1310.13,1050.58,1309,1049.66,1309.33Z"/><path d="M943.44,1220.36c5.94.44,6.48-1.17,17.1-.79,1.81.06,3.22.16,3.8,1.11s0,2.38-1.59,5.38c-3.24,6.1-3.72,5.84-4.75,8.39-1.33,3.3-.69,4.16-2.53,8.39-1.23,2.83-2,3.62-2.85,4.11-2.17,1.3-5.53,1.07-6.49-.47s1-2.79.48-6a8.78,8.78,0,0,0-1.75-4c-2-2.6-3.65-2-5.38-4.28a9.59,9.59,0,0,1-1.58-6c0-1.58,0-4,1.58-5.23C940.65,1220.07,942.12,1220.26,943.44,1220.36Z"/><path d="M916.05,1239.51c-.86.53-.85,1-2.85,5.55-.79,1.79-1,2.13-.79,2.53.66,1.34,4.79,1.65,7.13-.48,2.12-1.93,2.77-5.87,1-7.44A4.08,4.08,0,0,0,916.05,1239.51Z"/><path d="M897.53,1238.56c-1.91-1-4.79,1-4.75,2.7,0,1.25,1.61,2.45,3.17,2.53a3.1,3.1,0,0,0,3-1.58A3,3,0,0,0,897.53,1238.56Z"/><path d="M891,1208.65c.17.84,2.51,1.21,4.28.79.16,0,2.5-.63,2.53-1.74,0-.7-.88-1.34-1.58-1.59C894,1205.31,890.83,1207.58,891,1208.65Z"/><path d="M918.43,1263.89c1.37-.48,4.44-1.58,7.6-.16,3.63,1.64,6.14,6,5.06,8.55-.77,1.79-2.71,1.09-4.11,3.33-1.27,2-.19,3.41-1.59,6.8-.55,1.34-1.2,2.93-2.21,3s-1.51-1.27-4-5.06c-1.86-2.88-1.93-2.71-3.8-5.7-2.92-4.69-2.92-5.4-2.85-5.86C913,1265.82,917.32,1264.29,918.43,1263.89Z"/><path d="M948.19,1294.6c.42.07,1.24.29,3.8,3,1.68,1.79,2.51,2.69,2.37,3.17-.38,1.29-4.11,1.2-8.07,1.11-4.52-.11-4.94-.71-5.07-1-.73-1.43,1.47-4.26,3.8-5.54A4.89,4.89,0,0,1,948.19,1294.6Z"/><path d="M947.87,1153.71c-2.62,1.37-5.2,4.12-4.59,5.39,1,2,9-.81,9.82,1.11.4,1-1.58,1.86-3.33,5.38s-.82,4.52-2.21,5.7c-2,1.67-4.17-.23-9,1-2,.49-4.23,1-5.38,2.85-2,3.2,0,9.09,3.8,10.76a6.35,6.35,0,0,0,3,.48c3.51-.23,4.32-2.79,9-5.7,3.9-2.42,5-1.68,7.12-4a11.92,11.92,0,0,0,3-6c.14-.81-.22-3.24-1-8.07-.62-4.13-.85-5.17-.47-7,.18-.88.37-1.25.16-1.74C957,1152,951.73,1151.7,947.87,1153.71Z"/><path d="M813.32,1304.42c-.59,1.25.58,3.36,2.21,4.27,1.81,1,4.47.73,5.54-1a3.16,3.16,0,0,0,.16-3.16C819.83,1302.16,814.25,1302.43,813.32,1304.42Z"/><path d="M826.45,1323.73c-.22,1.7,1.43,3,1.59,3.17,1.7,1.34,3.9.92,5.38.63.81-.16,4.85-.93,5.07-2.69.24-1.95-4.24-5.08-8.08-4.27C829,1320.86,826.7,1321.87,826.45,1323.73Z"/><path d="M863.66,1373.75c1.14-.91,4.28,1.37,7,3.33s2.87,2.61,2.85,3.17c0,1.24-1.48,2.42-2.85,2.69-3,.59-6.32-3-7.12-6.34C863.31,1375.84,863,1374.32,863.66,1373.75Z"/><path d="M872.52,1362.52c-.7,1.38,1.33,4.35,3.8,4.74.93.15,2.43,0,3-1,.73-1.22-.38-3.21-1.74-4.11C875.84,1361.05,873.12,1361.33,872.52,1362.52Z"/><path d="M904.5,1357.45c2.19,2.61,7.68,3.17,11.08.63.92-.69,2.42-2.16,2.06-3s-2-.37-8.08-.16c-3.46.11-5.38,0-5.7.95C903.66,1356.45,904.24,1357.14,904.5,1357.45Z"/><path d="M899.43,1374.39c-1.78,1.23-1.3,5,.32,5.7,1,.45,2.3-.25,3-.95.87-.87,1.67-2.59.79-4A3.1,3.1,0,0,0,899.43,1374.39Z"/><path d="M930,1360.14c-1.82,2.11-2.91,5.33-1.9,6.33s3.88-.41,8.24-2.53c3.49-1.7,4.14-2.42,7.28-4,3.72-1.82,3.81-1.3,8.07-3.16,2-.86,4.92-2.54,10.77-5.86,4.91-2.79,5.47-3.18,5.38-3.48-.31-1-7.66.19-13.3,1.74-.6.16-2.89.8-5.86,1.9-5.53,2.05-5.64,2.82-11.71,5.38C932.65,1358.31,931.44,1358.46,930,1360.14Z"/><path d="M1148.28,887.13c-.94.19-2.5,5.55.48,7.76,2.51,1.86,6.7.34,7.75-2.37.62-1.58.3-3.9-1-4.59-1.64-.92-4,1.51-6,.31C1148.72,887.75,1148.64,887.06,1148.28,887.13Z"/><path d="M1163.8,890.78c-1,.51-1.39,3.37.15,4.74a3.52,3.52,0,0,0,3.8.32c1.62-.79,2.59-2.8,2.06-3.64-.39-.63-1.32-.14-3.64-.79C1164.61,891,1164.27,890.53,1163.8,890.78Z"/><path d="M1174.72,877c2.9,4.22,7.36,6.15,12.35,8.23,4.58,1.93,6.88,2.89,8.39,3.33,2.13.62,3.41.84,4.59,2.06a7,7,0,0,1,1.74,6.17c-.38,1.56-1.89,3.21-4.91,6.49-1.59,1.74-2,2-1.9,2.53.22,2.17,6.31,3.69,10.77,3.8,1.16,0,1.49-.05,3.48,0,2.83.08,4.2.3,6.49.48,5,.39,7.44.58,8.07-.32.49-.7.24-1.62-2.69-8.71-1-2.41-1.49-3.61-1.58-3.79-3.91-7.92-13.15-12.33-14.56-13-3.8-1.76-6.53-2.19-7-4.27-.32-1.51,1-2,1.58-4.59.66-2.78-.47-3.79-1.42-9.66-.8-4.91-.14-5-1-6.33-1.47-2.41-3.48-1.94-9.5-4.75-5.11-2.38-5.8-3.72-8.55-3.64s-5.8,1.39-6.17,3.33,2.39,2.58,3.8,6.49c.33.91,1.52,4.2.16,7.12-1.18,2.51-3.29,2.72-3.65,4.91C1173.2,873.45,1173.14,874.71,1174.72,877Z"/><path d="M1102.69,717.75c-1.15,1.13-1,2.8-.79,5.7.12,1.51.19,2.28.63,2.69,1.28,1.19,4.72.51,6.18-1.74a5.06,5.06,0,0,0,.16-4.91c-.15-.3-1.37-2.63-3.65-2.69A3.68,3.68,0,0,0,1102.69,717.75Z"/><path d="M1140.68,729.31c-2.37,1.53-5.46,5.37-4.11,8.55a4.3,4.3,0,0,0,3.48,2.69c1.73.05,2.92-1.43,3.8-2.54,1.56-2,3.2-5.53,1.74-7.91a3.4,3.4,0,0,0-2.06-1.58A3.72,3.72,0,0,0,1140.68,729.31Z"/><path d="M1099.53,731.21c-.86-.29-2.52,1.34-2.85,3.16-.4,2.18,1.14,4.54,2,4.44.71-.08,1.06-1.62,1.27-2.54C1100.42,734.45,1100.52,731.53,1099.53,731.21Z"/><path d="M1084.49,735.32a6.29,6.29,0,0,1,4.59,3.33c1,2,1,5.1-.64,6.17s-4.63-.8-5.54-1.42c-.45-.32-4.59-3.27-3.64-5.86C1079.91,735.77,1082.58,735.09,1084.49,735.32Z"/><path d="M1059,761.44c.72,3.44-3.12,5-6.33,11.24-3,5.89-.92,7-4.12,12.35a21,21,0,0,1-9.18,8.39c-2.85,1.27-6.37,2-6.81,1.11-.28-.56,1-1.43,2.7-3.8a33.86,33.86,0,0,0,3.16-5.54c2-4.45.81-5.45,2.53-8.71,1.14-2.15,1.55-1.5,4.75-5.38a49,49,0,0,0,5.86-8.39c1.83-3.41,2.06-5,3.32-5.23C1056.41,757.25,1058.54,759.23,1059,761.44Z"/><path d="M1056.31,774.42c-1.74.74-1.88,3.42-1.9,4-.06,1.94.83,2.28,1.9,5.7.89,2.84.56,3.49,1.42,4.27,1.5,1.35,4.75,1.46,6-.31a4.22,4.22,0,0,0-.32-4.59c-1.66-2.38-5.08-2-5.22-3.33-.12-1.08,2.19-1.56,2.22-3.16a2.94,2.94,0,0,0-1.75-2.38A3,3,0,0,0,1056.31,774.42Z"/><path d="M1060.27,803.08c-2.08,1.62-1.8,6,.79,7.75,1.79,1.19,4.76,1.11,6.17-.79a4.67,4.67,0,0,0-.16-5.22C1065.57,802.57,1062.11,801.63,1060.27,803.08Z"/><path d="M1055.68,815c-.87-.08-2.13,2.07-2.06,4.11.09,2.67,2.42,5.08,3.32,4.75s.44-4,.32-4.75C1057.1,818,1056.66,815,1055.68,815Z"/><path d="M1090.19,810.67a47.86,47.86,0,0,0-.8,7.29c0,3.87.38,4.88-.47,5.69-1,1-2.16.08-3.8,1-2.58,1.38-3.8,5.78-2.37,7.29a2.49,2.49,0,0,0,1.74.63c.57,0,1.68-.12,5.22-3.64,1.28-1.27,1.22-1.34,1.9-1.9,2.16-1.78,3.15-1.41,4.12-2.38,1.72-1.71-.22-4.09,0-10.44.12-3.58.81-5.16-.32-6.18a3.45,3.45,0,0,0-4.12,0C1090.61,808.54,1090.42,809.32,1090.19,810.67Z"/><path d="M981,778.38c7,6.49,2.36,1,18.2,14.56,3.5,3,5.35,4.66,8.39,5.07,1.73.23,3,0,6.49.47,2.63.4,4,.61,5.07,1.43a8.15,8.15,0,0,1,2.85,7c-.26,3.44-2.68,5.58-5.86,8.39-3.7,3.28-6.55,5.8-10.13,5.55-4-.29-4.14-3.71-9.34-4.75-4-.82-5.66.92-8.07-.64-2.2-1.41-2.84-4.1-3.49-6.8-1.24-5.21.48-6.26-.79-9.5-1.44-3.7-3.88-2.89-7.44-7.76a19.24,19.24,0,0,1-3.8-10.13c0-.89-.32-6,1.74-6.81C976.28,773.83,978.19,775.8,981,778.38Z"/><path d="M937.9,784.24c-1.64.43-4.5,1.18-5.38,3.16-1,2.17.85,4.79,1.26,5.39a7.69,7.69,0,0,0,5.23,3.32c3.19.32,5.67-2,7.12-3.32s1.06-1.56,2.53-2.85c2.66-2.33,4.41-2.08,5.07-3.64s-.55-3.62-1.27-4.75c-.35-.56-2.87-4.53-7-4.44-2.75.07-5.6,2-5.54,3.49,0,1.18,1.8,1.74,1.58,2.53S939.9,783.71,937.9,784.24Z"/><path d="M949.14,801.33a3.37,3.37,0,0,0,0,4.28c1.39,1.39,4.34.7,5.38-1.11a3.17,3.17,0,0,0-.16-3.48C953.17,799.59,950.42,799.74,949.14,801.33Z"/><path d="M881.7,797.06c-1.79-.12-2.67,1.51-5.85,4-2,1.55-1.75.94-4.12,2.69a21.63,21.63,0,0,0-6.17,6.33c-.78,1.28-1.43,2.35-1.11,2.69,1.07,1.14,11.21-8.16,15-5.54.77.53,1,1.34,1.9,1.43,1.64.14,3.39-2.3,4-4.44.14-.52.9-3.41-1-5.54A4.1,4.1,0,0,0,881.7,797.06Z"/><path d="M855.74,797.85c-1.25.52-1.76,1.81-2.37,3.48-1.89,5.13-2.82,7.72-2.22,8.87a4.8,4.8,0,0,0,4,2.53,3,3,0,0,0,1.9-.47c1.07-.77.86-2,1.58-5.86.51-2.76.84-3.29,1.11-3.64,1.07-1.41,2.31-1.38,2.37-2.22.09-1.14-2.13-2.31-3.8-2.69A4,4,0,0,0,855.74,797.85Z"/><path d="M855,789.94c-1.45-.31-3,1.53-2.69,2.69s2.16,1.64,3.32,1a2,2,0,0,0,.95-1.43A2.13,2.13,0,0,0,855,789.94Z"/><path d="M807.46,881.28c-1.61.8-4.55,2.28-5.07,5.06a4.15,4.15,0,0,0,.48,3.17c1.7,2.24,5.79-.13,13,0s10,2.66,12.82.47a6.21,6.21,0,0,0,2.22-5.7,6.57,6.57,0,0,0-2.85-3.95,10.42,10.42,0,0,0-4.75-1.74c-3.66-.59-6.59.09-11.4,1.26A19.82,19.82,0,0,0,807.46,881.28Z"/><path d="M1108.39,685c-1,.29-2.56,1.1-2.53,2.06,0,1.34,3.25,3,5.7,2.06,1-.4,2.34-1.42,2.21-2.38C1113.6,685.39,1110.69,684.31,1108.39,685Z"/><path d="M1003.59,510.38a3.46,3.46,0,0,0-.47,4.27c1.49,2.36,6.29,2,7.12.32.62-1.25-.78-3.47-2.53-4.44C1007.33,510.32,1005.08,509.16,1003.59,510.38Z"/><path d="M1045.23,427.11c-1.64,1.33-1.73,3.93-.79,4.75,1.49,1.3,6.53-1.12,6.49-3.17,0-1.19-1.76-2-1.9-2.06A3.67,3.67,0,0,0,1045.23,427.11Z"/><path d="M1948.86,1577c-3,1.11-6.85,4.07-6.53,7s4.38,3,12,8.67c5,3.69,5.84,5.55,7.36,5.1,3.2-.94,5.62-11,.71-17A12.45,12.45,0,0,0,1948.86,1577Z"/><path d="M1955.78,1565.3l.64,2.06h0l2.21-1.58"/></g></g></svg>