<svg xmlns="http://www.w3.org/2000/svg" viewBox="0 0 1905.32 2499"><g id="Layer_2" data-name="Layer 2"><g id="Grenada"><path d="M972.65,920.76c-1.5,1.09-1.54,3.49-1.62,8.3a27.51,27.51,0,0,0,2.28,10.25,3.09,3.09,0,0,0,1.46,1.79c1.36.59,2.65-.66,5-1.79,4.51-2.12,6.68-.83,8-2.76.9-1.36.55-3,.16-4.89a14.12,14.12,0,0,0-4.07-7.16C981.08,921.85,975.49,918.71,972.65,920.76Z"/><path d="M959.64,978.2c-.95,1.8,1.56,3,3.09,8.63,1.26,4.63.34,6.67,2.44,9.27,1.59,2,2.85,1.7,3.58,3.09,1.8,3.43-3.5,9.47-6.51,13-14,16.47-9.63,16-17.57,23.27-12.17,11.17-21.39,11.48-22.13,18.88-.4,3.89,1.74,8.09,4.39,10.41s5.35,2.09,12.86,4.39c0,0,4.06,1.25,9.6,3.58,14.85,6.27,19.08,23.25,23.92,22,2.32-.62,1.61-4.62,5.69-16.76,2.38-7.09,3.58-10.64,6.18-14.81,3.63-5.79,6.23-7,10.09-14.15,2.26-4.18,3.39-6.26,3.42-8.3.1-6.94-7.2-8.31-10.09-17.74-.61-2-2.44-8,.49-13.34a15.86,15.86,0,0,1,8.46-7.16c3.53-1.12,5.39,0,7.49-1.79s2.34-5,2.44-6.67c0-1,.37-6.73-2.28-8s-4.91,3.25-12.86,5c-4.32,1-6.41.29-7.16,0-2.43-.95-2.41-2.23-4.88-3.26-4-1.65-6.78.51-8-1-1.61-2,2.92-6.62,1.14-9.12-.73-1-2.11-1.12-4.72-1.3C966,976.22,960.87,975.86,959.64,978.2Z"/><path d="M1152,975.6c-5.38-1.41-13.84,10.46-12.2,12.69.85,1.15,4.73.2,7.16-1.14,2-1.09,2.06-1.93,4.56-3.25s3.74-1.11,4.23-2.12C1156.56,980,1154.55,976.27,1152,975.6Z"/><path d="M1115.2,973.16c3.52,1,5.17,2.6,6,3.9,1.92,2.93.41,5.17,2.44,10.58,1,2.75,2,3.74,1.46,4.56-.83,1.25-3.83-.06-8.46-.65-8.41-1.08-13.5,1.32-14.32-.49-.55-1.23,1.84-2.19,2.93-6.35.75-2.87-.07-3.6,1-5.69a10.58,10.58,0,0,1,4.39-4.24A13.59,13.59,0,0,1,1115.2,973.16Z"/><path d="M968.1,1106.91c-3.21,1.29-4.31,6.41-4.23,9.77.11,4.64,2.58,10.31,7.16,13.18,3.63,2.27,7.33,2,9.27,5.53.57,1,.81,2,2,2.77,2.09,1.3,5,.13,5.69-.17a11.32,11.32,0,0,0,5.53-5.37c1.14-2.16.6-2.61,2.12-6.83,1.18-3.29,1.8-4.94,3.09-5.37,2-.66,3.51,1.83,5.53,1.14,1.22-.42,1.72-1.68,2.61-3.91,1.35-3.39,1.41-6.24,1.46-9.92.05-3.5-.29-3.89-.49-4.07-1.69-1.53-6.13.5-10.74,2.6-2.76,1.27-2.41,1.35-3.9,2-7.61,3.09-16.18.74-18.23.16C971,1107.25,969.91,1106.19,968.1,1106.91Z"/><path d="M870.63,1381.59c.37-1.87,3.69-2.76,5.86-2.77a5.88,5.88,0,0,1,4.23,1.3c2.61,2.56,1.31,8.52-1,9.28-1.19.39-2.49-.68-5-2.77S870.34,1383.06,870.63,1381.59Z"/><path d="M918.79,1377.36c1.12-.58,2.52,1.81,7.16,4.06,1.9.92,2,.69,5.37,2.12,3.91,1.66,5.87,2.51,6.19,3.58.73,2.48-2.93,6.77-6.67,6.83-1.48,0-2.58-.68-4.72-2.11-2.62-1.74-5.89-3.92-7.33-8C918,1381.47,917.58,1378,918.79,1377.36Z"/><path d="M960.45,1406.16c.66-.42,1.78,0,6.84,3.74,4,3,6,4.49,6.34,5.53,1.74,5.32-6.65,13.36-9.27,12.21-2.16-1-.7-8.21-3.91-10.74a3.81,3.81,0,0,1-1.46-2,4.75,4.75,0,0,1,.48-2.92C960.67,1408.49,959.47,1406.78,960.45,1406.16Z"/><path d="M831.74,1384.68c15.74,4.33,30.1,13,30.1,13a52.94,52.94,0,0,1,16.6,13c.9,1,1.95,1.6,2.44,2.93,1.75,4.71-4.24,9.69-10.9,18.88-5.82,8-9,12.46-10.58,19-.6,2.59-.25,9.41.49,22.94.67,12.25.84,13.12,1.3,14.48,3.19,9.43,8.78,8.81,12.21,17.9,1.41,3.74-.13,2.29,2.27,18.88.09.63,0-.18,2.44,13.18,1.3,7,1.54,8.39,2.93,10.09,2.79,3.39,5.77,2.69,8.14,6.51a11.62,11.62,0,0,1,1.63,6.67c-.31,3.85-2.72,5.85-4.23,8.3-2.84,4.56-1.14,8.34-.49,17.89,1,15.31-2.61,16.49-.82,30.92a116.05,116.05,0,0,0,2.28,12.37c2.63,10.49,4.83,11.89,4.72,17.74,0,2.27-.44,5.18.81,8.78a40.05,40.05,0,0,1,1.31,3.91c.83,3.12,1.29,4.85.48,5.86-1,1.29-3.23.18-6.5.48a15.12,15.12,0,0,0-8.47,3.91c-4.5,4.27-1.58,11.39-1.95,22.45-.15,4.45-1.5,9.58-4.07,19.86-3,11.9-4.34,13.68-7.48,25.87-2.41,9.36-3.62,14-4.23,19.53-1.29,11.5.62,14.19-.33,30.42-.48,8.18-.94,7.17-1.3,14.81-.56,12,.72,11.8.81,26.85.08,12-.7,17.08,3.26,21.81a20.25,20.25,0,0,0,5.21,4.23c6.2,3.78,9.88,2.27,15.78,6.18,1.89,1.25,4,2.67,5.21,5.37,1.86,4.1,1.11,9.74-1.31,10.74-.46.19-1.4.38-7.64-3.58-2.41-1.53-4.13-2.74-6-4.07-8-5.62-9.05-6.25-10.58-6-2.51.37-1.83,2.36-6,4.56-3,1.57-4.25,1-9.44,3.25-2.47,1.06-2.32,1.24-3.09,1.3-2.23.18-3.89-1.26-9.6-5.86-2.13-1.71-3.2-2.56-3.26-2.6-6.09-3.61-16.67-1.85-20,3.58-1,1.63-.92,2.88-2.77,5.37a21.84,21.84,0,0,1-4.39,4.23c-3.06,2.59-3.53,5.48-5.86,12-.42,1.19-2.39,5.84-6.34,15.14-3.84,9-5.81,13.17-6.51,14.64-3.39,7.08-3.28,6-4.23,8.46-1.22,3.08-6.3,16,0,26.69,1.47,2.51,3.68,6.25,8,8.13,3.33,1.47,6.25,1.07,8.62,3.58.53.56,2.55,2.7,2.28,5.21-.43,4.1-6.42,4.23-10.74,10.09-2.42,3.28-3,6.58-3.58,9.76a35,35,0,0,0,1.3,15.95c1.46,4.89,2.6,5.55,6.19,12.85A117.54,117.54,0,0,1,805.87,2051c1.19,5.67.69,6,2,10.25,2.12,7.13,3.86,13,8.95,16.76,2.83,2.11,5.87,3,8.3,6.84a7,7,0,0,1,1.46,4.06c-.18,4.72-7.07,7.51-8.62,8.14-2,.81-3.71,1.5-5.7,1-1.77-.47-2-1.45-5-3.26-2.41-1.44-3.63-2.16-5.21-2.11-2.21.06-2.52,1.56-5.86,3.25s-4.62.88-7.65,2.44a13,13,0,0,0-5.53,5.05c-.7,1.33-1.48,3.69,1.79,19,.69,3.21.91,4,.65,5.37-1,5.41-6.72,6.26-6.67,9.93,0,2.21,2.12,2.4,6.35,9.11,1.8,2.86,1.9,3.58,1.79,4.23-.37,2.19-2.91,2.55-7.32,6.51-1.94,1.74-2.91,2.61-3.58,3.91-2,3.85,0,6.8-1.79,8.13s-5.26.23-6.84-1.79c-1-1.28-.71-2.39-2.11-3.74-.43-.41-1.75-1.68-3.1-1.46-2.79.46-3.64,7.08-3.74,7.81a32.87,32.87,0,0,0,0,5.53c.16,3.64.24,5.47.65,6.51,1,2.58,2.65,3.45,2.77,6.18a3.48,3.48,0,0,1-.16,1.79c-1.4,2.66-8.18-.46-17.09,1.63-5.39,1.26-6.79,3.31-7.16,3.9-1.29,2.09-1.64,5.28-.16,7.16,1.31,1.67,2.92.85,6.83,2.28,1.59.58,6,2.25,8.3,6.35.54.95,2.25,4,1.14,5.37-1.23,1.55-5-.13-12.85.32-1.42.08-2.25.19-2.93.82-1.87,1.71-.91,5.69,0,9.27,1.53,6.07,3.09,6.72,2.44,8.79-.93,2.91-4.14,2-8,6.35a24,24,0,0,0-4.23,7.48c-1.75,4.5-.8,5.24-1.95,6.35-4.14,4-16.74-5.38-20.5-1.47-1,1-1.05,2.53-1.14,3.91-.29,4.37,2.64,7.18,1.95,7.81-.36.33-1.44-.21-6.83-3.91-2.49-1.7-3.94-2.74-6-4.07-3.68-2.33-5.54-3.48-6.68-3.09-1.48.52-1.19,2.16-3.74,7.33-2.41,4.88-3.94,6-4.88,6.5-1.81,1-3.43,1-3.42,1.31s2.74.38,7.81,1.13c2,.3.78.19,8.3,1.63,1.57.3,1.7.32,2,.49,1.4.93,1.78,3.16-.17,14.65-1.16,6.83-1.81,9.1-3.58,9.76-1.06.4-1.41-.21-4.23,0a12.12,12.12,0,0,0-5.37,1.3c-1.95,1.11-1.66,2-3.58,3.25a11,11,0,0,1-5.86,1.63,15.65,15.65,0,0,1-7.32-1.63c-5.07-2.42-7.15-6.37-8-5.85-.38.24-.18,1.24.81,4.55a75.86,75.86,0,0,0,2.77,8.46s3.89,7.79,3.59,9.37v.07s-46.94,1.4-49.14,1.47c1.15,1.42,2.8,3.48,4.72,6,5.06,6.72,5.49,8.18,5.2,9.6-.48,2.37-2.89,4.3-4.88,5s-2.72,0-4.56,1-1.82,2-3.74,3.74c-2.09,1.88-2.93,1.38-5.53,3.09-4,2.67-3.78,5-5.86,5.37-3.16.49-6.52-4.61-8.62-7.81-4.29-6.52-4.7-11.12-7-11.23-1.53-.06-2.77,1.91-4.56,4.72-1.5,2.37-3,4.82-2.92,8,.08,2.3,1,2.71,1.46,6.83.29,2.37.42,3.57-.16,4.23-1.34,1.53-4-.42-8.3,1a8.93,8.93,0,0,0-3.74,2.11c-1.85,1.82-1.47,3.31-2.93,4.88-1.66,1.8-5.09,3-6.51,2-3.09-2.35,5.36-13.94.49-21a12.86,12.86,0,0,0-2.44-2.44c-2.84-2.45-8.9-6.51-11.56-4.72-1.76,1.19-.06,3.62-2.11,7.64-1.44,2.81-3.69,4.39-6,6a26.93,26.93,0,0,1-7.49,3.74c-3.67,1.15-5.22.72-5.86,2-.25.5-.5,1.52,2.77,7,2.63,4.4,2.92,4,3.74,5.86,1.43,3.29.42,4.36,1.3,10.25.83,5.5,2.21,7.86,1.47,8.3-1.15.67-5.42-4.41-7.16-6.68-.35-.45-.58-.77-4.4-6.34-2.95-4.32-3.13-4.59-3.74-5.05-2.14-1.61-4.55-1.69-9.27-1.79-6.55-.13-8.21,1-10.25-.48-2.32-1.74-1.73-4.38-3.91-5.21-1.37-.52-2.74.09-5.86,1.79-7.46,4.06-7.53,4.84-10.57,6a19.38,19.38,0,0,1-10.26,1.3c-3.22-.55-3.07-1.56-7.16-2.93-3.11-1-6.79-1.29-14.15-1.79-5.46-.37-6.19-.2-8-1-3.74-1.62-4-3.82-6.83-4.24s-5.15,1.33-8.46,3.75c-3.57,2.6-5.44,4-5.86,6.34-.76,4.32,3.94,8.48,7,10.25a16.89,16.89,0,0,0,5.69,2c8.78,1.66,11.39-1.11,17.9-.17,5.65.82,12.54,4.19,15,10.09a11.42,11.42,0,0,1,.33,8.46,9,9,0,0,1-4.88,5.21c-.54.21-4,1.51-6.51-.16-3.44-2.24-1.36-7.26-4.72-9.6-.88-.62-3.26-.64-8-.65-6.33,0-6.72.3-8.63-.16-3.46-.85-5.74-2.79-7.81-4.56a30.16,30.16,0,0,1-6.67-8.3,46.11,46.11,0,0,1-4.72-12c-1.85-7.5-1.13-11.6-3.09-12.21-1.42-.43-2.19,1.61-6.51,3.91s-6.12,1.55-7.32,3.42c-1.76,2.74.08,7.33,2,9.92,2.2,3,3.67,2.28,5.7,5,2.78,3.8.73,6.22,3.09,11.55,1.54,3.5,2.4,2.39,6.34,8.3,2.61,3.91,2.41,4.65,5.86,10.09,1.74,2.74,3.46,5.18,4.39,6.51,4.4,6.24,5.16,6.56,5.54,8.62.65,3.6-1.24,5,.16,7.81,1.08,2.17,2.63,2.21,3.09,4.23a5.81,5.81,0,0,1-1.95,5.54c-2.8,2.16-6.15-.74-8.79,1.13-1.94,1.38-1.35,3.82-2.28,8.3-1.38,6.65-5,12.68-6.34,12.37-1.61-.38,1.82-10.08-2.12-22.13a75.23,75.23,0,0,0-4.23-9.44c-3.82-7.76-5-8.68-8.13-14.64-4.11-7.89-7.63-14.65-9.93-23.76-.64-2.52-1.34-5.84-4.07-8.95-.24-.27-5.2-5.8-9.44-4.56-1.46.43-1.76,1.35-4.72,2.77a11.31,11.31,0,0,1-3.9,1.46c-1.88.17-3.45-.61-5.53-2-4.17-2.69-6.32-4.21-9.6-8-4.93-5.65-5.72-8.93-7-8.63-2.28.55-1.24,11.36-1.14,12.37.69,7.2,2.65,9.82,3.25,10.58a16.08,16.08,0,0,0,4.89,3.9,22.2,22.2,0,0,0,11.55,3.42c5.72-.06,7.44-2.75,9.93-1.3,2.22,1.29,2.67,4.49,3.25,8.62.63,4.48-1.4,6.21,0,8.79,1.31,2.41,3.74,2.71,3.58,4.07-.18,1.57-3.44,1.39-5.21,4.07-.76,1.15-.64,1.91-1,4.71-.6,5-1.12,9.32-2.93,9.93-.54.18-1.23.05-4.88-3.09a73.46,73.46,0,0,1-8.79-8.3c-2.18-2.53-2.57-3.41-4.07-3.91a7.54,7.54,0,0,0-6.51,1.31c-2.57,1.9-1.94,4-3.74,4.72-3.47,1.35-8.87-5.35-9.28-5.86-1.61-2.05-3.38-4.28-3.41-7.32s1.7-3.81,1.46-7a9,9,0,0,0-2.76-5.86c-2.43-2.18-5.55-2.14-7.49-2.11-3.81,0-4,1.43-6.18,1.13-4.21-.57-4.11-6-10.25-11.06-.69-.57-3.55-2.06-9.28-5-4.69-2.44-6.54-3.25-8.95-2.92-.41,0-4.34.63-5,2.92-.62,2,1.89,3.32,4.39,8.95,1.06,2.39,1.59,3.59,1.63,5.21.06,2.71-1.23,4.25-4.4,9.11-5.21,8-4.48,8.06-6.51,9.93a28.31,28.31,0,0,1-8.62,5.21c-3.56,1.46-3.65.79-5.53,1.79-3.9,2.06-4.49,5.49-9.11,14-3.26,6-4.93,9-6.68,9-2.78-.06-6-6-5.85-11.39.14-4.33,2.38-5.71,2.93-12.53.32-4-.32-5.42-.66-6-2-3.57-6.66-4.45-8.13-4.72a19.67,19.67,0,0,0-5.86,0c-4.9.43-7.35.65-8.62,2.28-.39.49-1.13,1.7.32,8.62,1.61,7.71,3,8.47,2.61,11.88s-1.86,3.52-3.58,8.46c-.34.95-1.16,3.46-1.79,11.07a116.66,116.66,0,0,0-.49,16.43c.41,9.31,1.77,13.77.16,14.49-.63.28-1.36-.17-8.79-5.54-3.39-2.45-4.61-3.35-5.86-2.93-1.74.6-1.31,3.06-3.41,5.86-1.4,1.86-2.46,1.94-7.16,4.56-6.92,3.85-9.17,6.21-10.25,5.37-.64-.5-.33-2,.32-4.88,1.48-6.65,2.22-10,2.44-10.74,1.29-4.51.6-3.92,2.44-13.35,1.9-9.67,2.84-14.51,4.4-18.22,2.74-6.55,5.2-8.48,4.07-11.23-1.54-3.7-7.89-4.76-9.61-5-5.51-.92-7.32,1.06-9.76-.65-1.67-1.18-2.38-4.16-3.74-10.09-1.42-6.16-1.32-8-2.6-8.46-2-.74-5.41,2.72-7.16,5.85a18.06,18.06,0,0,0-2.12,8.63c-.5,13.55,2.53,20.14-.65,28.64-1.27,3.39-2.32,3.86-2.93,3.9-1.92.12-4.1-3.9-4.88-7.48-1-4.63.85-6.18-.49-10.42-.67-2.14-2.36-5.58-4.23-5.53s-1.85,3.92-5.53,6.51c-1.62,1.13-3.79,1.46-8.14,2.11s-6.69,1-9.11.49c-1.21-.26-5.85-1.24-8.46-5-2.2-3.2-.69-5.09-2.28-7.81-.67-1.14-2.59-3.64-17.25-5.05-9.42-.9-18-1.64-19.85,2.12-.72,1.47.14,2.49-1,5.21-.27.67-1.73,4.21-4.55,5-2.34.68-3.52-1.1-6.84-2.12-6.17-1.89-8.4,2.35-14.81,1-4.53-1-3.66-3.15-9.43-4.88-2.17-.65-2.24-.33-11.88-1.3-6.11-.62-7.84-.93-9-1.14a78.27,78.27,0,0,1-8.46-2.28c-4.61-1.4-4.91-1.74-5-2.12-.65-1.86,3.13-4.09,9.93-10.41s6-6.8,9.44-9c1.58-1,3.1-1.72,13-5,5.3-1.78,7.61-2.49,9.93-3.26a130.44,130.44,0,0,0,28.15-12.53c2.33-1.42,4.7-3.12,9.44-6.51,11.61-8.29,12.5-10,19.53-14.15a120.18,120.18,0,0,1,11.55-6.35c4.15-1.87,6.82-2.65,9.27-5.53a27.48,27.48,0,0,0,3.58-5.86,12.53,12.53,0,0,0,1.31-3.74c.41-4.37-3.72-8.53-7-10.58-3.61-2.26-6.75-2.32-6.67-2.77s5.5-.43,10.74.66c1.77.36,3.18.77,5,1.3,4.12,1.18,6.72,2.18,8,2.6,4.73,1.6,9,1.31,14,1,2.82-.19,10-.89,21.15-5.54,10.81-4.48,20-8.31,28-17.73,3.42-4.05,9.13-10.8,9.76-20.18.3-4.43-.81-5.29-1.3-13.5-.13-2.18-.21-4.74.65-18.55,1.11-17.76,1.72-21.41,4.88-24.09.64-.54,3.59-3,6.84-2.44,2.11.39,3.72,2,6,4.23,3,2.92,2.67,3.28,4.07,4.07,3.21,1.82,8.07,1.16,11.22-1.46.24-.2,4.18-3.57,3.42-7.16a3.92,3.92,0,0,0-.81-1.79c-1.54-1.83-4-1.28-6.51-1.79-3.82-.8-6.93-4-8.3-7-1.23-2.68.06-3.63,0-10.09,0-4.59-.09-9.73-2.28-10.58-2-.76-5,2.31-6.67,4.07-3.77,3.9-3.36,6.07-6.67,9.11-1.85,1.7-6.13,4.85-8.63,3.58-2-1-2.26-4.42-1.62-13,.78-10.47,2.17-17.8,3.41-27.18,1.81-13.54,1.43-17.17-1-19.85-2.23-2.49-4.65-2.44-6.84-6-.31-.51-3-5-1.62-9.93,1-3.61,3.36-4.52,6.83-8.46a40.06,40.06,0,0,0,7.16-12.2,43.69,43.69,0,0,0,2.93-21.16c-.76-6.24-1.51-12.35-6.18-16.27-4.15-3.47-7-1.56-12.53-6.18-2.11-1.77-3.79-3.89-7.16-8.14-3.51-4.42-3-4.33-4.88-6.51-5.79-6.54-10.16-6.62-10.42-9.92-.28-3.64,4.89-4.86,4.56-9-.28-3.34-3.87-4.19-4.07-7.81-.07-1.37.35-3,2.6-5.86,4.11-5.26,9.45-8.56,14.49-11.07,8.34-4.14,12.37-4.35,12.85-7.15.54-3.15-4.17-4.9-3.42-8.47.65-3.08,4.89-5.21,6.51-6,2.48-1.24,3.43-1,4.88-2.28.88-.78,2.26-2.42,2.77-6.18,1-7.16-3-9.19-3.09-15.46-.11-6.66,4.34-6.07,8.13-19a37,37,0,0,1,3.75-9.6c2.75-4.69,5.35-6.28,6-6.67a18.54,18.54,0,0,1,6.18-2.11c3.45-.57,4.31.24,5.53-.65,2.35-1.73,1.78-6.61,1-9.44-1-3.37-2.49-4.71-4.56-7.81-1.35-2-2.85-5.8-5.85-13.35-4.45-11.16-4.52-13-7.33-15.29-3-2.52-5.27-2.35-6-4.72s.9-4.29,3.91-10.25a60.11,60.11,0,0,0,3.9-8.63c2.65-8.45-2-11.58.17-19.36.72-2.63,2.92-5.5,7.32-11.23,4.1-5.34,5.92-6.56,11.39-13.5a70.21,70.21,0,0,0,5.53-7.49c1.21-2.19,3.08-6.15,4.56-20.18,1.2-11.41.57-14.42,3.41-19.2a24.43,24.43,0,0,1,6.19-6.83c7.79-6.08,12.77-3,19.2-7.49,2.52-1.75,2.61-2.82,10.9-19.36,7.15-14.26,7-13.34,8-16,2.78-7.63,3.14-14.14,3.75-26.85.93-19.48-1-25.45,4.07-30.42,2.61-2.56,4.17-2,10.9-7a74.82,74.82,0,0,0,10.25-9.11c11.89-13.17,11.62-37.44,11.55-43.45-.05-4.66-.5-11.56,3.74-18.06.62-1,1.23-1.72,5.86-6.19,10.72-10.33,12.29-10.86,16.6-15.62,6.65-7.34,4.86-8.23,10.09-12.85a46.55,46.55,0,0,1,15.62-8.79c9.44-3.49,10.46-1.29,18.55-4.07,11.29-3.86,18.57-11.31,22.46-15.29a81.08,81.08,0,0,0,11.39-15.14,120.61,120.61,0,0,0,7-13.34c7.94-16.88,7-20.64,12.21-24.41,3.67-2.66,3.93-.64,15-5.2,7.44-3.08,11.22-4.69,14.15-8.14,2.18-2.55,1.86-3.54,6-14.48,4.78-12.53,6.21-13.89,7.16-14.65,4.1-3.25,7-1.48,15.14-4.23,4.78-1.62,7.72-3.58,13.34-7.32,5.05-3.36,5.82-4.55,21.32-17.09,4.88-4,6.81-5.46,10.09-6.83,3.75-1.58,5.92-1.57,9.43-3.74,3.14-1.94,4-3.57,6.51-6,4.57-4.51,9.31-6.65,18.39-10.74,7.37-3.33,9.92-3.58,11.55-6.67,1.87-3.54-.21-5.61,1.63-8.63s6.69-3.71,16.27-4.88c10.33-1.27,14.27-.18,16.93,1a41.78,41.78,0,0,1,4.23,2.44c8.82,5.32,13.23,8,15.45,9.6,6.53,4.75,5.15,5.31,12.37,10.57,5.6,4.08,6.24,3.61,9.93,6.84,6.06,5.31,5.5,7.64,9.76,9.6s8.85,1.42,12.53,1c5-.62,4.72-1.7,8.62-2.12,7.52-.81,10.16,3,18.07,3.26,1.83,0,5-.73,11.39-2.28,10.53-2.57,15.8-3.85,22-6.67,8.26-3.79,6.24-4.88,13.18-7.82,6.52-2.75,12.7-3.3,25.06-4.39a57,57,0,0,1,13.83.16A54.13,54.13,0,0,1,831.74,1384.68Z"/><path d="M1367.74,254.58c-2.36,4.36-2.42,8.6-2.2,16.84.21,7.47.31,11.2.49,12,2.26,9.22,8.78,14.77,11,16.6a36.34,36.34,0,0,0,14.88,7.32c12.87,3,19.08-2.84,26.12,2.2,3,2.13,4.35,4.95,5.86,8.06,1.23,2.52,4.6,9.43,2.44,18.06-.38,1.54-2.72,10.9-10.5,14.64s-13.08-2.15-21.72,2.44c-2.72,1.45-4.7,3.37-8.3,6.84s-4.47,5-8.3,9.27c-6.84,7.57-7.57,6.51-9.52,9.52-4.73,7.36,1.09,11.42-1.46,23.92-2.14,10.51-7.77,15.07-5.61,22.46a10.46,10.46,0,0,0,3.66,5.61c1.92,1.42,5.44,2.82,7.32,1.47,2.51-1.8-.58-6.58.24-14.65.74-7.21,4.14-12.45,6.35-15.86a47.12,47.12,0,0,1,10.74-11.48,61,61,0,0,1,19-10.25c8-2.64,14.42-2.92,20.26-3.17,8.61-.37,14.62-.63,22,1.71,8.18,2.6,9.28,5.64,18.07,7.56,3.48.77,8.41,1.85,13.66.74,6.08-1.29,8.8-4.69,20.51-17.33,17.69-19.11,20.6-21.18,24.65-22.95,5.82-2.53,8.58-2.06,13.67-5.85,6.52-4.87,7.36-9.64,12.69-10.74,2.51-.52,5.45.62,11.23,2.92,8.51,3.4,10.09,5.52,17.33,7.82,5.14,1.62,7.77,2.42,10.49,1.46,4.8-1.69,4.23-6.11,9.52-8.79a15.53,15.53,0,0,1,13.43,0c3.15,1.62,3.07,3.36,6.83,5.37a19.31,19.31,0,0,0,9,2.2c8.1-.27,8.58-7.29,16.6-8.54,6.67-1,10.26,3.2,15.62.24a11.73,11.73,0,0,0,3.91-3.66c1.66-2.34,4.31-7.7.73-21.24-2.27-8.57-5.23-13.57-7.08-17.57-7.08-15.34-4.23-30.08,1.47-59.56,2.16-11.2,4.21-17,9.27-21.23,2.76-2.28,4.18-2.21,14.16-6.83,11.17-5.18,16.76-7.83,17.33-10.74,1.12-5.82-9.23-8.51-10-18.31-.2-2.54,1-6,3.42-12.94,2.53-7.26,3.79-10.9,6.1-13.67,5.62-6.74,11.53-5.44,12.93-10,1.56-5-4.29-11-8.54-15.38-6.46-6.61-13.84-10.23-20.5-13.42-7.81-3.75-7.77-2.64-9.76-4.4-5.14-4.53-5.1-11.69-3.42-39,.06-1,.12-12,.24-33.93,0-5.83,0-14.19-3.41-15.37-2.06-.71-3.44,1.81-9.28,3.66-3,1-7.23,2.29-11.47.73s-6.38-5.14-7.57-7.08c-3.89-6.36-2.83-12-4.39-12.2-2-.28-2.35,8.69-9.52,15.62-1,.91-1.32,1.12-11.23,6.83-12.87,7.42-13.44,7.76-15.38,8.79-11.89,6.35-11.38,4.88-13.42,6.83-9.17,8.77-6.6,26.05-6.1,29.05,1.36,8.1,4.15,10.29,4.88,20.5a76,76,0,0,1-.24,12c-.77,10.17-1.17,15.5-3.67,21.24-3,6.87-5.61,6.59-14.88,19-5,6.71-7.5,10.06-8.55,12.7-6.44,16.23,6.69,28.17-.73,41a83.63,83.63,0,0,1-6.83,9.28,101.41,101.41,0,0,1-8.3,8.78c-10.3,9.84-15.44,14.75-21.73,18.07a57.05,57.05,0,0,1-18.79,5.85c-7.82,1.24-15.49.68-30.51-.48-12.9-1-19.79-2-21.24,1s3.72,6.21,2.45,11.23c-.65,2.54-2.39,3.4-8.06,7.57-11.88,8.72-12.83,11.28-16.6,11-4.49-.35-4.72-4.1-10-4.88-4.93-.73-6.07,2.33-13.43,4.15-2.56.63-11.83,2.58-20.5-1.71A24.22,24.22,0,0,1,1378,258c-3.46-3.76-4.23-7.3-6.34-7.32C1369.87,250.66,1368.52,253.15,1367.74,254.58Z"/><path d="M1389.71,190.39c-2.62,1.25-6,2.86-8.54,6.83-1.53,2.37-4.36,8.07-2.45,10s8.65-1,12.45-4.39a11.35,11.35,0,0,0,3.66-5.37c.79-2.93.32-7-1.7-7.81C1392.54,189.41,1391.76,189.41,1389.71,190.39Z"/><path d="M1860.46,20.43c-4.6,3-7.39,5.92-12.2,11.06-5.48,5.85-8.22,8.77-8.63,10.42-1.35,5.41,2.66,8,10.9,23.75,5,9.67,5,11.6,8.63,14.49,6.54,5.28,14.63,5.35,16.27,5.37,3.87,0,6.86-.85,12.85-2.61,5.67-1.66,8.5-2.49,10.74-4.39,4.54-3.84,5.41-9.62,6-14.16,1-7.39-.79-13.77-4.39-26.52-2.54-9-4.61-13.85-8.46-18.39-3.55-4.19-6.19-5.24-7-5.53-4.92-1.79-9.72-.13-14.8,1.63A45.32,45.32,0,0,0,1860.46,20.43Z"/><path d="M1475.3,445c-7.44,1.28-11.27,1.94-12,4.39-1.21,3.81,5.88,9.09,7,9.93a21.35,21.35,0,0,0,6.34,3.25c3.17,1,6.71,2.12,9.6.49.59-.33,1-.67,5-8.14,1.8-3.3,2.11-3.93,2-4.88-.56-3.32-5.92-4.85-7.16-5.21C1485,444.5,1482.12,443.79,1475.3,445Z"/><path d="M1444.87,514.94c-.45,6.38-.75,10.54-1.95,15-1.68,6.15-3.66,7.46-2.61,9.6,1.32,2.68,5.65,3.08,11.07,3.58a34.25,34.25,0,0,0,11.72-.82c5.08-1.33,8.39-2.2,9.11-4.55,1.24-4.08-6.63-8.39-5.37-14.65.17-.84.59-2.18.16-2.44-.75-.44-2.53,3.33-6,4.07a7.27,7.27,0,0,1-6-1.63c-2.17-1.9-1.39-3.92-3.26-8.3-1.5-3.53-4.29-7.57-5.69-7.16C1445.09,507.88,1445.23,509.92,1444.87,514.94Z"/><path d="M1408.42,553.5c2.76,6.15,3.45,4,9.11,14.16,4.43,8,4.38,9.93,4.23,11.06-.36,2.81-2.07,6.38-5.37,7.81a9.76,9.76,0,0,1-6.34.17c-3.83-.9-5.6-2.92-9.93-6.19-1.25-1-4-2.69-9.44-6.18-10-6.39-12.46-7.14-12.36-9,.11-2.17,3.7-1.85,11.39-7.16,9.76-6.75,10.41-7.32,10.41-7.32,1.55-1.36,3-2.74,4.56-2.44C1406.55,548.8,1407.39,551.2,1408.42,553.5Z"/><path d="M275.72,2438.78c-1,2-1.68,1.7-5.21,5.54-2.55,2.77-3.82,4.18-3.58,5.2.46,1.91,4,1.25,8.63,4.56,2.67,1.89,2.27,2.64,4.07,3.42,5,2.15,11.07-2.27,12.2-3.1,2.33-1.69,5.38-3.9,5.7-7.64.25-3-1.24-6.65-3.75-7.49-2.88-1-5.3,2.45-7.16,1.3-1.6-1-1.44-4.55-.65-7,1.41-4.3,4.88-5.34,4.4-6.68-.69-1.89-8.57-2.25-11.39,1.47a14.32,14.32,0,0,0-1.47,3.74C276.13,2436.42,276.64,2436.92,275.72,2438.78Z"/><path d="M327.79,2448.71a19.53,19.53,0,0,0-3.58,8.62c-.55,3.87.71,7.51,3.26,14.65,3.58,10.05,5.35,11.14,6.18,11.55,3.49,1.76,7.59.4,10.25-.49,2.33-.77,6.38-2.11,6.51-4.23.12-2-3.27-2.87-9.76-8.62-3.1-2.74-4.17-4.16-3.91-5.53.32-1.64,2.21-1.53,3.58-3.75,2-3.17.48-7.27.16-8.13-.51-1.44-1.42-3.93-3.9-5.21S330.57,2446.74,327.79,2448.71Z"/></g></g></svg>