<svg xmlns="http://www.w3.org/2000/svg" viewBox="0 0 2209.34 2321.63"><g id="Layer_2" data-name="Layer 2"><g id="Guatemala"><path d="M1723.12,12.55,729.08,0Q722,154.05,714.87,308.09L487.64,321.56a119.83,119.83,0,0,1,20.86,15.51c4.9,4.57,10.08,10.25,19,12.55a49.21,49.21,0,0,0,5.91.92c19.51,2.44,25.18-.06,29.35,4.25,1.53,1.59,2.25,5,3.69,11.81,2,9.64.48,10.66,2.21,15.51,2.06,5.75,6.05,9.13,14,15.87s9.28,5.12,13.29,9.6c5.69,6.35,3.69,9.73,9.6,19.94a71.38,71.38,0,0,0,12.92,15.87c5.32,5.21,9.84,8.34,17,13.29,11.73,8.14,12.72,7.23,18.09,12.19a67.35,67.35,0,0,1,12.92,16.61,73.84,73.84,0,0,1,6.64,14.77c1.14,3.62,1.21,4.94,2.59,7.38a24.29,24.29,0,0,0,10,9.23c6.81,3.71,8.61,1.39,17,4.8,7.89,3.21,9.77,6.68,12.55,5.54,4.89-2,2.21-14.1,5.91-15.14,3.54-1,10.13,9,12.92,14,2.22,4,2.67,6.15,5.54,9.23,3.35,3.6,5,3.17,8.49,6.28,6,5.35,4.69,9.89,8.86,13.29,5.14,4.18,9.56-.76,17.72,1.1,14.93,3.41,15.59,23,29.53,24.74,5.86.74,8.36-2.37,14.4,0,4.4,1.73,5.8,4.45,11.08,9.23,3.75,3.4,7.18,5.59,14,10,16.83,10.78,19.22,7.66,24.36,13.66,6.52,7.61,1.95,11.8,9.23,23.26,6,9.5,9.94,7.81,14.77,17,1.26,2.4,6,11.39,4.8,22.52-1,8.92-5.24,14.61-3,16.61s8-3.1,11.07-.74.88,10.73.37,12.56c-2,7.06-5,8-4.43,11.44s3.89,3.95,12.18,10.71c6,4.91,9,7.43,9.23,10.34.38,6.13-9.34,9-8.49,13.29.24,1.18,1.55,3.9,19.57,7,14.11,2.43,14.74,1,22.89,2.95s17.63,4.21,25.1,11.82c1.58,1.61,7.42,7.87,13.66,15.5,1.9,2.32,2.71,3.39,4.43,4.43,6,3.63,10.76-.52,18.09.74,7.81,1.35,15.46,8.31,17,15.51.89,4.22-1.17,4.49-1.11,15.5,0,7.07.9,9.66,1.47,11.08,1.31,3.22,2.54,3.93,2.22,5.54-.69,3.46-6.88,2.73-12.55,7-6.17,4.66-8,12.47-8.86,15.88-1.75,7.27.35,9.56-2.59,15.87-.17.38-1.47,2.84-4.06,7.75-3,5.69-3.63,6.83-3.32,8.5.68,3.7,5,4.29,4.8,7-.16,2.36-3.44,2.36-5.54,6.28a10.5,10.5,0,0,0-1.11,7.38c1.11,4,4.72,4.16,5.17,7.75.1.77,0,1.25-1.47,5.54-2.46,7.17-2.39,6.45-2.59,7.39-1.25,5.84.82,11.21,1.48,12.92,1.08,2.8,1.53,2.51,2.21,4.8,1.13,3.8.27,6,0,10.7-.31,5.52.7,5.11.74,12.92,0,5.49,0,8.23-.74,10.34-.63,1.71-3.15,7.35-13.66,10.71L301,976.87,26.71,1433.92q33.59,51.69,67.19,103.37c.32,23.61-4,30.23-8.12,31.75-3,1.11-5.93-.46-15.88,1.11-4.55.72-6.81,1.5-8.86,2.95a17.36,17.36,0,0,0-5.91,8.13c-4.87,12.44-5.68,31.93-6.27,41.34-.9,14.44-1.35,21.65-3,26.22-5.23,14.9-13.64,18-14.39,29.53-.43,6.56,2.16,7.59,7.38,21.41,5.38,14.25,11.63,30.82,8.49,48.74-1.32,7.52-3.94,13.27-8.49,23.26-5.43,11.9-6.91,11.32-12.18,22.15-9.7,19.91-9.07,30.88-19.2,36.18-3.86,2-6.71.56-7.38,2.21-1.76,4.28,15.1,13.52,33,27.51,11.58,9,11.44,10.54,34.52,32.3,0,0,20.27,19.12,45.59,41,15.25,13.16,33.14,27.35,68.3,55.19,33.92,26.86,33.16,25.82,50.95,40.24,30.52,24.76,31.35,26.7,47.07,38.4,19.61,14.6,34.72,23.8,57.78,37.84,21.95,13.37,40.71,24.82,67.19,38.21a847.75,847.75,0,0,0,79,34.52c36.74,14,55,21.23,80.86,26.4,5.8,1.16,24,4.63,67.74,6.46,19.71.82,57.47,1.85,120.91-1.29,63.18-3.13,75.34-6.6,105.77-1.85a274.22,274.22,0,0,1,62.4,17.54l25.28,1.1a65.14,65.14,0,0,0,27.32,11.08c14.8,2.42,45.43,19.47,68.49,31,30.15,15.09,28.19,11.17,86.2,37.84,14.59,6.71,26.39,12.33,33.78,15.88-.08-5.22-.1-12.91.37-20.68a27.44,27.44,0,0,1,1.11-7.38c1.31-4.09,3-5.27,3.88-9,.61-2.59.22-3.71.18-7.2s-.12-10.29,2.4-15.69c2.18-4.67,5.48-6.4,10.15-10,7.4-5.67,7.13-7.7,18.65-20.31,10.53-11.53,10.16-9.18,23.81-23.26,16.51-17,17-20.39,26-25.47,4.59-2.58,8.16-3.78,16.61-8.86,9.17-5.51,8.45-6.18,14.4-9.41,7.48-4.07,11-4.32,25.47-9.42a171.55,171.55,0,0,0,16.06-6.09c2.62-1.23,4.41-2.21,7-2,1.91.13,3.57.84,10.34,5.91,6.23,4.66,7,5.74,9.22,5.9,4.28.33,7.79-3.31,8.87-4.43,5.09-5.29,4.4-11,6.64-19.2,1.62-5.9,4.28-10.21,9.6-18.82a120,120,0,0,1,33.23-34.71,108.08,108.08,0,0,1,39.5-17.35c22.16-4.61,38.77-.15,41.35-7,1.19-3.18-1.25-7.1-4.43-12.19-4.28-6.84-7.12-6.85-13.29-14.39a67.25,67.25,0,0,1-13.66-28.8c-2.41-11.2-8.58-39.85,3.69-48.36,2.49-1.74,6.83-1.9,15.51-2.22,13.11-.49,18.29,1.58,27.31,1.48s15.23-2.36,25.48-5.91c20.9-7.24,24.35-14.2,33.59-12.18,10.37,2.25,13.53,12.62,19.2,10.7,2.75-.93,4.91-6.4,9.23-17.35,3-7.63,3-9,5.17-11.81,3.8-5,7.44-5.57,12.92-9.23,7.07-4.73,5.45-6.77,16.25-18.46,10.17-11,12.3-10,18.09-18.09,7.07-10,4.9-13,9.6-15.88,10.11-6.27,22.92,6,31.75,0,4.87-3.33,5.45-10.15,5.9-14.76,4.64-46.88,11.64-41.56,10-60.92-1.1-12.74-2.44-28.23-12.55-43.56-8.6-13-16.58-15.4-21-29.17a50.74,50.74,0,0,1-.36-29.53c5-16.51,15.21-15.81,20.67-32.12,3.47-10.36.3-13.39,2.21-32.49,1.63-16.22,2.34-24.33,5.91-29.91,2.9-4.52,8-9.74,35.81-19.19,26.19-8.9,28.12-6.25,42.46-11.82,8.21-3.19,10-4.92,47.26-30.64,28.81-19.89,28.07-19.07,43.93-30.27,10.58-7.48,21.2-15.11,38.39-27.69,33.42-24.46,50.12-36.69,70.52-52.43,16.41-12.66,42.92-33.16,75.68-61.28,33.22-28.51,38.88-35.68,67.56-58.33,14.33-11.32,21.25-16.11,38.4-30.28,30-24.81,28.76-26.59,36.92-30.27,2.38-1.08,9.08-3.9,13.66-10.71a28.24,28.24,0,0,0,4.43-12.18,279.32,279.32,0,0,0-26.22-21c-16.56-11.73-22.43-13.17-45.77-28.06-14.19-9-23.49-15-35.08-24.74-13.43-11.25-11.85-12.36-25.47-24-11.34-9.69-21.35-16.06-41.35-28.8-21.59-13.75-26.57-15.41-28.43-13.66-2.38,2.23.6,9.78,3,13.66a23.36,23.36,0,0,0,7.75,7.75c3.68,3.8,6.62,6.79,8.49,8.68,4.83,4.88,5.61,5.59,6.46,7.38,2.45,5.18-.22,7.45,2.22,11.45,2.72,4.46,8.54,5.73,10.15,6.09,3.67.8,4.77-.14,8.31.55,1.71.34,4.07,1.13,9.41,5,5.07,3.66,14.28,10.3,12.92,13.47-.25.59-.89,1.1-3.88,1.66-4.64.88-11.24,2.13-18.64-1.1a51.23,51.23,0,0,1-11.63-7.57c-2.39-2.14-3.84-3.9-5.91-3.7-2.58.26-4.61,3.45-5.35,6.1-1.18,4.21.81,7.27,1.85,10.89.72,2.53,1.22,6.17-7,29.9-4.68,13.49-4.29,10.74-5.53,15.32-3.15,11.6-2.56,17.93-8.13,24.55-1.54,1.84-3.58,4.2-7,5.17-5.91,1.67-13.79-1.39-16.43-7.57-2.56-6,.93-12.17,1.48-13.1,2-3.47,3.87-3.4,4.43-5.72,1.19-5-6-10.76-11.08-14.77-7.4-5.89-14.9-9.55-20.67-12.37-7.52-3.67-8.58-3.45-12-6.09-4.15-3.2-5.84-6-10.34-7.2-3.74-1-4.34.51-7.2-.37-5.55-1.71-5.77-8.1-11.44-15.51-3.92-5.1-8.17-7.75-12.92-10.7-7-4.33-13.18-8.19-20.86-7.57-2.58.21-3.2.75-11.63,2-4.86.74-7.29,1.11-8.31,1.11-6.64,0-16.81-3-21-10.52-2-3.52-2.13-7-4.8-7.76-.82-.21-1.53-.08-5.36,1.11-3.4,1.06-5.11,1.59-6.27,2-5.66,2.14-16.17-1.4-34.52-7.2-20-6.31-2.73-.61-14-4.06-4.47-1.36-8.34-2.61-13.66-2.58a43.31,43.31,0,0,0-5.91.55c-6.48.87-9.72,1.3-16.24,2.49a134.76,134.76,0,0,1-21.6,2.22c-12,.11-14.78-2.26-29.9-3a155.7,155.7,0,0,0-16.06,0l18.27-289.62q2.49-51.93,5-103.84,4-53.16,8-106.32,4.43-64.94,8.86-129.87,3.87-57.31,7.75-114.63c1.46-21.53.5-37.64.28-69.77-.45-63.76-2.17-93.41-3.14-139.56C1722.47,112.64,1722,67.75,1723.12,12.55Z"/></g></g></svg>