<svg xmlns="http://www.w3.org/2000/svg" viewBox="0 0 2384.95 1783.35"><g id="Layer_2" data-name="Layer 2"><g id="Guinea"><path d="M577.06,1182.43c-2.11.86-2.82.74-5.19,1.92-3,1.5-3.44,2.48-4.75,2.38-2.45-.19-5.18-4-4.59-7,.47-2.44,2.78-2.49,6.52-6.67,2.12-2.38,2.05-3.12,4-5.64,3.64-4.7,6.41-4,8.6-7.71a14.63,14.63,0,0,0,1.78-6.23c.34-2.84-.27-5.5-1.48-10.82-.37-1.62-.69-2.79-1.19-2.82s-.84,1.56-2.07,4a15.12,15.12,0,0,1-3.86,5.34,10.25,10.25,0,0,1-4.59,2.23,7.47,7.47,0,0,1-5.79-.75,6.44,6.44,0,0,1-2.81-4.74c-.11-1.31.31-2,1.92-5.64,1.36-3.06,2-4.6,2.38-5.63a23.57,23.57,0,0,0,1-8c-.16-2.78-.88-4.1-2.81-9-4.46-11.37-4.34-13.79-4.16-15.13.58-4.23,3.08-7.63,4-7.41.61.14.3,1.81,1.63,3.7a8.45,8.45,0,0,0,2.82,2.38c4.22,2.62,6.33,3.93,7.11,4,4.55.41,8.91-4.39,8.46-5.34-.17-.35-1.08-.27-2.52-.15a13.15,13.15,0,0,0-3.56.89c-1.52.58-1.43.78-2.13.93-1.81.4-3.5-.69-4.55-1.37s-3.94-2.56-4.3-5.34c-.4-3.16,2.58-5.23,1.78-6.23s-3.7.1-5.63,1.19c-2.39,1.35-2.21,2.3-5,4.15-2.43,1.59-3.18,1.29-4,2.52-.93,1.39-.53,2.62-.59,5.49-.05,2.6-.11,5.28-1,7-2.3,4.21-11.93,5.82-16.61,1.78-2-1.7-2.64-4.4-4-9.79a47.06,47.06,0,0,1-1.48-8.9c-.57-8.76,1.78-11.91-.74-15.27-.61-.8-2-1.62-4.9-3.26-4.88-2.8-7.09-3.24-9.78-4.75a25.23,25.23,0,0,1-8.75-8.75c-3.79-5.66-4.09-10.28-8.46-16.9a10.1,10.1,0,0,0-3.85-3.71c-2.28-1.17-3.7-.6-5.64-1.18-3.66-1.11-5.46-5.25-6.67-8-3.49-8-.75-13.16-3.71-14.83-1.33-.75-2.25.09-8.89,1.93-8.15,2.25-7.76,1.25-10.23,2.52-4.74,2.42-4.07,5-10.83,10.08-2.51,1.9-6.53,4.87-8.6,3.56a3.1,3.1,0,0,1-1.19-2.67c.1-2.14,2.39-2.87,5.64-5.93,1.79-1.68,1-1.35,5.19-6.23,4-4.61,4.38-4.53,5-6.08,1.41-3.31-.16-4.2,1.34-7.86a20.23,20.23,0,0,1,4.15-5.93c2.26-2.54,2.83-2.42,3.85-3.71,2.82-3.56.46-7,1-16.75a34.69,34.69,0,0,1,1.93-10.38c1.24-3.28,2-5.28,4-7.12,2.56-2.35,5.09-2.54,7.12-5.78.6-1,1.31-2.1.89-2.82-.9-1.54-5.43,1.4-10.23-.3-3.52-1.24-6.43-4.7-5.93-7,.24-1.12,1.18-1.29,1.63-3,.33-1.24,0-1.73-.3-4a19.91,19.91,0,0,1,.15-7c.42-1.86,1.05-2.89.89-3s-2,1.8-2.82,4.45c-.94,3.16.4,4.58-.89,6.52-.79,1.2-2.44,2.39-3.85,1.93s-2.14-2.48-1.93-3.85a8.94,8.94,0,0,1,.89-2.38c1.9-.58,2.32-1.19,2.37-1.63.16-1.31-2.89-2-3.11-4-.1-.87.36-1.06,1.63-3.26,1.67-2.89,1-3.47,2.37-5.19s3-2.11,2.82-3a1.75,1.75,0,0,0-2.08-1c-.43.19-.43.63-.89,1.34a5.75,5.75,0,0,1-1.78,1.63,9.69,9.69,0,0,0-3.56,6.82c0,.38,0,.06.3,2.82.28,2.91.24,3.35,0,3.85a4.17,4.17,0,0,1-3,2.08c-1.44.26-1.86-.55-4.15-.45-1.19.05-1.75.29-1.92,0s.8-1.31,2.37-3.56a33.58,33.58,0,0,0,2.82-4.89c.07-.17.74-1.63.74-1.63-5.28,2.35-7,4.87-7.57,6.82-.29,1-.43,2.56-1.63,3.26s-1.95-.26-4.15.45c-1,.32-1.55.74-2.52.59-.72-.11-.82-.41-1.48-.44-1.3-.08-1.87,1-2.38.74s-.22-1.43-.14-4c.05-1.86-.07-1.85,0-2.52.26-2.51,2.19-3.57,4.15-6.08,1.35-1.73,1-1.89,3-5.48,4-7.12,6.06-7.61,7-11.87.59-2.71.5-6.08-.44-6.37s-3.64,3.11-4.15,6.82c-.14,1,0,1-.15,1.78-.57,2.52-2.47,3.28-5.19,5.93s-1.73,2.55-4.89,5.63a26.25,26.25,0,0,1-7.86,5.64,18.22,18.22,0,0,1-6.68,1.78,18.87,18.87,0,0,1-6.67-.89c-5.35-1.74-8.14-5.46-14.24-12.16-3.67-4-7.13-7.61-8.89-9.34-3.49-3.44-8-7.22-32-21.5-3.73-2.22-8.4-2.48-11.12-6.53-2.32-3.46-2.76-8-3-10.23-.5-5.3.52-8.78,0-8.9s-2.93,3.81-3.26,8.6c-.17,2.48.26,4.26-1,5.64a3.8,3.8,0,0,1-3.26,1.18c-2.68-.46-3.78-4.67-4.3-6.67a19.75,19.75,0,0,1-.15-8.9c.16-.83.21-.84,2.67-7.56,1.86-5.07,2.15-6,3.26-6.82,2.56-2,5.71-1,5.93-1.93s-6.1-1.14-8-4.74c-1.64-3.09.59-7.48,2.81-11.87,2-3.84,3.89-5.86,5.34-10.82.73-2.49.95-3,.74-3.11-.7-.45-5.23,3.57-8,9a32.26,32.26,0,0,1-3.7,6.23c-1.6,2.06-2.61,2.78-3.71,2.82-1.43,0-2.17-1.11-3.11-.74s-1.18,1.92-1.34,3.26a61.7,61.7,0,0,0-.59,9.49c0,4.87,1.81,6.82.74,7.71s-2.34-.41-5.19.44c-1.45.44-1.44.86-2.37.89-1.41.06-2.24-.86-4.9-3-1.83-1.46-3.8-3-4-2.82s1.14,2.8,3.71,4.45c4,2.57,8.23,1.06,9,3.11a2.63,2.63,0,0,1-.29,2.08c-.68,1.31-2.06,1.68-5.64,2.67-5.3,1.46-5.24,1.46-5.48,1.48a16.78,16.78,0,0,1-7.57-1.19,19.76,19.76,0,0,1-5.63-3.26,17.36,17.36,0,0,1-5.34-6.23c-1.09-2.25-1.88-3.83-1.48-5.63.69-3.14,4.05-2.86,9.49-8.16a29.36,29.36,0,0,0,4.45-5.63c.26-.43,2.79-4.61,2.07-5.19-.51-.42-2.67,1.07-4.15,2.82-1.73,2-1.32,3-2.82,4.74-1.73,2-2.73,1.3-5.34,3.41-2.95,2.39-2.3,3.86-4.89,5.49-.49.31-3.57,2.19-6.52,1.18-1.29-.43-.87-.85-4.6-4.3-2.85-2.63-4.27-3.94-5.19-4.59s-1.49-.95-1.48-1.34c0-1.67,8.43-2.74,10.23-3,7.62-1,12-.3,12.31-1.49.16-.72-1.27-1.83-2.67-2.22-2.21-.62-3.15.89-6.38,1.63-4.44,1-5.91-1.09-9.79.45-2.12.83-3,2-3.41,1.63-.67-.56.66-4.16,3.41-6.23,1.44-1.08,2.52-1.18,4.45-1.78,6.84-2.12,7-5.12,11-5.19,3.32-.06,7,2,8.15,4.75,1,2.37-.08,4.65.59,4.89s3-2.15,3-4.75c-.09-4.35-6.7-6.82-7.12-7-1.4-.5-4.65-1.67-7.71-.29-3.52,1.59-4,5.31-6.67,5.19a2.91,2.91,0,0,1-2.52-1.49,2.13,2.13,0,0,1,.21-1.64c1.34-2.83,4.66-6,5.72-7.1,2.93-3,4.75-6.41,4.45-6.68s-2.7,3-8.16,7.42c-2.35,1.89-3.83,2.82-4.89,5-.77,1.61-.47,2.11-1.48,4.45a15.75,15.75,0,0,1-3.27,5c-1.32,1.33-2.64,2.65-4.59,2.67-1.43,0-3.22-.67-3.27-1.48-.08-1.33,4.57-1.16,7.42-4.9.19-.25.87-1.6,2.22-4.3,1.63-3.25,1.77-3.71,1.63-4.3-.45-2-3.51-3.39-5.93-3.41-1.5,0-1.88.51-3.85.45a9.74,9.74,0,0,1-3.71-.75c0-.14,5.45,1.51,8.3,2.38a2.85,2.85,0,0,1,1.93,1.33c.12.27.31.89-.44,2.67a10.61,10.61,0,0,1-1.93,3.26c-1.39,1.61-4.65,5.39-8.9,5.19-1.58-.07-2.88-.89-5.48-2.52-4.3-2.69-7-4.36-7.42-7.26-.39-2.52.92-5.64,2.82-6.08s4.25,2.23,5.34,3.56c2.38,2.89,2,4.56,4.15,6.07,2,1.36,4.52,1.53,4.74,1,.08-.15-.07-.4-2.07-2.22-2.19-2-2.24-1.92-3-2.67a15.24,15.24,0,0,1-2.82-3.86c-.92-1.86-.56-2.26-1.33-3.11a5.28,5.28,0,0,0-4.6-1.48c-2.27.36-2.46,2.07-5.48,3.26a8.41,8.41,0,0,1-3.86.74c-3.05-.25-3.76-2.59-7.12-4.15-1.46-.68-3.39-.8-7.26-1-5-.31-7.51-.46-9.79.45-3.58,1.42-3.26,3.39-7,4.89-.61.25-5.76,2.25-8.9,0-2.63-1.89-2.56-5.88-2.37-11.86.28-8.67,2.18-11.36,2.37-19.13a37.72,37.72,0,0,0-.89-10.68c-2.67-10.42-9.93-11.15-28.17-29.36-4-4-6.11-6.42-10.23-7.71-5-1.57-8,0-14.68-2.22-3-1-5.06-1.72-7-3.56-5.34-5.15-5.48-15.43-1.48-21.8,1.81-2.9,4.34-4.75,9.19-8.31,5.42-4,9.29-5.52,9.05-7.71-.17-1.49-2.05-1.41-4.45-4.15-.37-.41-4.65-5.4-2.82-8.6a4.53,4.53,0,0,1,4.74-2.07c2.23.67,2.26,3.78,4.45,4.15a2.51,2.51,0,0,0,2.67-1.19c.41-1.25-1.77-3-3.26-4.15-3.41-2.69-4.46-2.09-5.78-3.56-2.7-3-1.15-8.67.29-13.94.87-3.17,1.45-5.3,3-7.71,4.07-6.47,8.66-5,12.6-9.79,6.67-8,.25-20.14,6.38-23.57,1.64-.92,4.15-1.2,7.56-3.86,1-.76,3-2.32,2.67-3-.47-1-6.35.11-11.27,3.11-3.2,1.95-5.09,4.16-7.86,7.41a43.34,43.34,0,0,0-6.37,9.35c-1.42,2.87-1.55,4.06-3.12,9C147.8,642,146,647.39,141.69,652c-.08.09,0,0-5.34,4.75,0,0-2.18,1.94-9,7.56-2.32,1.9-3.21,2.6-4.75,3-.43.11-4.14.94-6.37-1.18-2.78-2.65-1.64-8.35,1.18-11.27a9.2,9.2,0,0,1,4.15-2.37c5.76-1.78,9.41,1.8,12.61-.3a5,5,0,0,0,2.37-3.86c0-1.65-1.42-2.14-2.07-3.7-1-2.46.73-5.32,3.55-9.79,3.12-4.92,5-6.29,6.68-10.83.22-.61,1.3-3.54.74-3.85-.32-.18-1.14.53-4.75,5-3.45,4.33-5.18,6.49-6.08,8.16-2,3.77-3.34,6.2-3,9.34.26,2.18,1.17,3.32.44,4.6-.5.88-1.42,1.18-5.19,1.92-7,1.38-7.86,1.12-8.45.89a8.26,8.26,0,0,1-4.3-4.3c-1.13-2.85,0-5.52,1.19-8.45a20.68,20.68,0,0,1,5.19-7.41c2.56-2.31,3.15-1.62,6.67-4.3a23.05,23.05,0,0,0,6.67-7.42c1.22-2.34,2.26-5.59,1.49-6.08-.33-.2-1,.06-3,1.78-4.08,3.54-4.3,5.06-6.67,7.12s-2.53.94-9.2,4.74c-4,2.26-4.73,3.12-5.19,3.71s-1.8,2.46-2.37,7.86c-.71,6.71.8,9.43-.59,10.38-1.76,1.2-6.16-1.82-8.75-4.45-1.36-1.38-8.53-8.84-6.67-16.75,1.45-6.2,7-6.59,8.89-14.54.5-2.09,1.4-5.85-.44-7.56-3.55-3.29-13.83,4.24-16.16,1.48-1.13-1.33,1-3.34,1-8,0-4.15-1.75-4.9-3.26-10.24-1-3.53-2.84-10,.15-15.27,1.3-2.28,3-3.45,6.52-5.78,4.31-2.89,7.2-3.69,11.72-5.64a73.55,73.55,0,0,0,13.94-7.56,44.6,44.6,0,0,0,12.45-13.49c1.63-2.76,2.91-5,2.08-6.08s-5.57.61-14.83,4.3c-1.83.73-4,1.63-4.6,3.56-.47,1.55.59,2.18.6,4.3,0,4.19-4.16,7.27-4.75,7.71a14.09,14.09,0,0,1-5,2.22c-2.61.74-9.31,2.15-10.53-.15-.79-1.47.88-4.11,2.37-5.63,4.6-4.7,11.2-2.65,13-6.67.12-.25.7-1.58.15-2.23-.42-.49-1.5-.58-7.41,1.48-4.42,1.54-4.92,2-6.08,1.64-1.33-.39-1.48-1.19-4.9-3.86-1.56-1.22-2.34-1.83-2.66-1.78-2.76.43-.4,12.19-6.68,16.91a16.11,16.11,0,0,1-5,2.22c-3.35,1-5.91,1.85-8.45.89-4.57-1.74-6-8-6.23-8.9-.69-3.13-.1-5.57-.89-5.78s-2,1.78-2.67,3.26c-.94,2.08-.93,3.58-1.18,8.75s-.39,6.08-.89,7.27c-1.16,2.72-2.23,2.31-2.67,4.3-.37,1.62,1,4.31,3.7,9.63.47.92.87,1.67,1.34,1.64,1.11-.08.53-4.31,3.11-6.83a6.77,6.77,0,0,1,7-1.48,6.47,6.47,0,0,1,4,6.67c-.6,3.22-4.87,5.26-7.12,5.94-1.59.48-2.56.4-3.26,1.33-1.09,1.43-.56,3.9.29,5.49.94,1.74,1.84,1.61,2.52,3.11.76,1.67.33,3.33-.29,5.64-.73,2.65-1.33,4.88-3.27,7-.45.48-4.4,4.74-8.45,3.7-4.69-1.2-5.79-8.58-6.08-10.53-.37-2.51-.79-5.32.74-7.85,2.11-3.48,6-3.41,6.38-6.08.21-1.61-1-3.5-2.22-3.71-1.06-.18-2,.83-5.94,5.78s-4.59,6.05-5.93,6.08c-2.78.07-4.75-4.84-5.19-4.6s1.43,5.7,4.75,12.46c1.37,2.8,2.24,4.29,1.63,5-1.36,1.66-8.09-2.78-9-1.48-.74,1,2,5.46,6.23,8,3.17,1.9,5.76,1.88,6.23,3.7.35,1.39-.72,3-1.78,3.86-2,1.67-4.52,1.09-11.57-.15C17.73,618.12,16,618.14,14,616.13s-1.09-2.81-3.26-6.83c-4.22-7.8-9.31-8-10.53-13.19-.92-3.87,1.09-7.34,3.11-10.83,2.35-4.06,4.18-4.77,14.24-13.64,3.21-2.83,5.68-5.1,9.49-8.6,0,0,4.55-4.19,8.89-8.3,20-19,41.52-75.63,41.52-75.63,16.08-42.28,17.24-53.35,31.59-72.36a150.87,150.87,0,0,1,20.46-22.1l52.2,1.19,44.93-26.1c7.8-1.28,12.14-4.32,14.68-7s2.8-4.31,9-15c4.61-7.86,5.42-8.59,6.53-9.19,4.42-2.4,9.85-.68,17.65,1.78,8.15,2.58,9.51,4.65,13.93,4s5.41-3.19,9.35-2.81c3.64.34,6.32,2.83,9.34,5.63,4.88,4.53,4.52,6.73,7,7.27,4.34.94,6-5.88,13.64-7.57,4-.88,8.06,0,12.9,1s5.37,1.88,8.3,1.78a18.52,18.52,0,0,0,10.53-4.15c4-3.25,3.61-5.84,7.71-8a9.56,9.56,0,0,1,5.79-1.48c4.93.62,6,6.23,9.34,5.93,1.33-.12,2.78-2.11,5.63-6.08s4.41-6.13,4.45-7.71c.12-4.53-4.87-6.78-3.7-9.79a4.21,4.21,0,0,1,2.81-2.22c3.29-1,7.37,1.85,8.16,4.89.57,2.23-.87,3.58.15,4.75s3.44,1.08,5,.59c1.28-.39,1.51-.91,2.07-.74,1.4.43.57,3.83,2.23,6.23,1.56,2.25,4.6,2.62,6.08,2.81,3.89.51,4.5-1.27,11-2.66,5.29-1.14,7.64-.54,10.38-2.82a10.4,10.4,0,0,0,2.52-3.12l-2.82-70.73q2.39-12.75,4.75-25.5c-10.11-1.82-24.38-5.62-29.51-13.35a127.26,127.26,0,0,1-7.71-12.9c-1.8-3.68-1.79-4.31-3-5.34-4.94-4.32-12.22.56-16.16-3.41-2.57-2.59-.41-5.63-3.11-8-3.11-2.72-6.73.59-12.76-1.33-5.61-1.79-8.61-6.64-10.38-9.49-.82-1.33-4.29-7-2.52-9.05,1.12-1.31,3.2,0,6.38-1.63a11.48,11.48,0,0,0,3.86-3.56c2.27-3.05,1.41-4.39,3-5.93,2.23-2.2,4.75-.16,10.38-1.63,2-.53,6.13-1.59,8.45-4.89,2.63-3.73,1.14-7.68,3-8.31s3.3,3.1,8,3.86a7,7,0,0,0,4.15-.3c4-1.85,4.46-8.66,4.74-8.6s-1.3,4.47.15,9c.4,1.25,1.08,3.39,2.82,4,2.14.75,4.64-1.27,5.63-2.07,3.09-2.51,2.87-4.79,4.6-5.05s2.39,2.13,6.53,4.16c1.73.85,3.12,1.53,4.59,1.33,3.26-.44,4-4.78,7-9.19,5.78-8.5,12.69-6.43,15-13.05.67-1.94.25-5.4-.59-12.31-.71-5.82-1.47-7.48-.75-10.82.54-2.46,1.7-4.4,4-8.16,3.1-5.07,5.27-5.51,6.23-8.9.23-.83.75-3.08-.3-7.26-1.5-6-4.44-8.93-9.79-16-5.57-7.39-8.41-11.2-11-16.9a58.49,58.49,0,0,1-3.86-12A58.55,58.55,0,0,1,438,.59L531.68,0l-.44,3.41,25.06,1c.45,1.93,1.49,5,4,6.08,1.78.79,3.32.2,8.45-1.34,7-2.09,10.53-3.13,12.16-2.81,4.14.79,4.65,3.66,8.9,3.7,2.81,0,3.08-1.22,5.78-.89s5.16,2,7.27,3.56c2.77,2,2.9,2.84,4,2.82,2.77-.05,3-5.35,6.53-6.38,1.18-.34,3.87.81,9.19,3.12a36.7,36.7,0,0,0,5.49,2.22c2.75.75,5.28,1.43,7.56.3,2.09-1,2-2.63,4-3.12a6,6,0,0,1,4.45,1c.88.56,2.55,1.89,3.71,5.49s.46,7.85-.89,16.46c-.64,4.08-1.07,5.92-2.22,8s-1.91,2.31-2.23,3.85c-.62,3,1.64,4.11,2.23,8.31.52,3.8-1.09,4.64-.15,6.37,1.29,2.39,4.86,1.73,13.05,2.67,7.6.87,8.6,1.91,15.57,2.23,5.68.25,8.53.38,9.78-.89,4.2-4.28-4.25-15.4.3-20.17,1.06-1.11,3.37-1.68,8-2.82,4.11-1,6.13-1.77,7.71-1.33,3.41.94,2.62,3.71,6.82,5.63,2,.92,3.4.84,7.56,2.67,1.36.6,2.07,1,2.52,1.78.77,1.34,0,2.48,0,5.49,0,2.14-.05,3.22.45,4.15,1.4,2.62,5.66,3,7.86,3.11,4.83.37,5-1.25,8.3-.44s3,2.31,7.56,3.7c2,.62,3.18.69,3.56,1.64.5,1.23-1,2.33-1.48,4.89a8.4,8.4,0,0,0,.3,4l41.81-.15,19.28,22.54a13.26,13.26,0,0,0,6.52,0A14.21,14.21,0,0,0,816,96.68c3-2.61,2.4-3.88,4.59-5.63,3.21-2.56,7.53-2.22,11.27-1.93A41.8,41.8,0,0,1,841,91.2c4,1.17,4.14,1.58,7.11,2.22,3.82.82,4.89.43,6.82,1.48,1.25.68,2,1.51,4.45,5A79.47,79.47,0,0,1,867,112.7c1.88,4.11,1.11,5.24,2.52,6.22,2.88,2,7.78-.21,13.49-2.81,5-2.29,5.71-3.38,10.38-5.49a62.48,62.48,0,0,1,11.27-3.71c10.65-2.71,12.14-1.31,21.5-3.85,6.7-1.82,10.12-2.79,13.35-5.93,2.78-2.7,2.54-4.2,6.52-8.16,2.44-2.43,5-4.88,9-6.38a23.11,23.11,0,0,1,9.49-1.18c2.47.11,4.23.19,6.23,1.18,3.12,1.55,2.74,3.31,5.63,5.19,3.65,2.39,7.94,2,10.38,1.78a25.23,25.23,0,0,0,7.56-2.07,76.44,76.44,0,0,0,13.5-7.12c5.79-3.7,8.12-5.86,9.93-4.89,1.37.73.7,2.31,2.67,5,1.63,2.25,2.49,1.74,5.49,4.6s2.9,4,5.34,5.33a11.05,11.05,0,0,0,4.15,1.19c3.1.34,5.66-.51,8.89-1.63s3.25-1.56,4.45-1.48c2.78.17,3.58,2.58,6.82,4.15,1,.46,2.38,1,7,1,7.77.1,12.54.16,17.8-2.23,5.09-2.31,4.65-4.2,11.56-7.56a52.67,52.67,0,0,1,8.31-3.11,90.82,90.82,0,0,1,19.13-3.71c8.07-.72,6.74.38,13.34-.45,12.11-1.51,16.61-2.52,16.61-2.52a14.79,14.79,0,0,1,5-.44c1.33.13,2.12.41,7.12,2.37,4.47,1.75,5.3,2.11,5.93,2.37,3.32,1.42,5,2.14,6.08,3,2.77,2.12,1.77,3.69,4.15,5.19,1.53,1,2.07.48,6.23,2.07,2.93,1.13,3.27,1.59,3.26,1.93,0,1-2.82,1.6-3,1.63-3.32.74-4.92-.72-8.16-1-.51,0-6.49-.56-9.19,2.81-1.54,1.92-1.39,4.33-1,9a57.12,57.12,0,0,0,1.48,8.75c1.58,7.46,2.08,11.3,1,14.23-.35,1-1.82,2.89-4.74,6.68-3.53,4.55-5.29,6.83-7.86,9-3.77,3.24-4.73,2.71-6.23,4.89-2.61,3.81-1.83,8.54-1.34,11.57.29,1.76,1.83,9.88,8.6,15.13a37.35,37.35,0,0,0,8.75,4.59c1.19.5,3,1.13,6.68,2.37,4.42,1.52,6.55,2.2,9.78,3.42,6.46,2.42,7.36,3.23,7.86,4.3,1,2.11-.5,3.17.15,6.37.24,1.18.77,2.67,4.6,7.12,1.61,1.88,2.9,3.24,7.12,7.41s6.28,6.21,7,6.53c4.32,2,6.26-.24,11.42,2.22,1.27.61,2.37,1.32,4.9,2.38a18.79,18.79,0,0,0,4.74,1.63c4,.34,7.41-2.36,8.75-3.41,2.2-1.73,1.9-2.32,3.41-3,3.16-1.35,5,1,7.56-.15,2.27-1,1.72-3.18,4.75-6.37,2.13-2.26,3.64-2.5,5.19-3.71,2.82-2.21,2.91-7.25,4-15.13a2.63,2.63,0,0,1,.89-1.92c1.45-1,3.5,1.45,5.78.74,1.46-.46,2.22-1.93,2.82-3.12,1.46-2.86.33-4.33,1.49-6.22,1.28-2.11,3.5-1.64,6.22-3.12,3.33-1.8,4.66-5,6.53-9.49,3.42-8.21,1.51-12,5.34-15.27a11.73,11.73,0,0,1,5.78-2.52c5.72-1,7.74,2.56,12.6,1.63,4.26-.82,3.94-3.79,8.46-4.9,4.88-1.19,9.41,1.26,12,2.67a29.19,29.19,0,0,1,10.38,10.09c2.6,4,2.31,5.48,5.33,9,2,2.39,2.34,1.94,6.38,5.79,5.69,5.41,5.74,6.93,8.45,7.71,3.42,1,5.09-.93,7.57.59,1.5.92,2.11,2.6,3.26,5.93,1.74,5,3.21,9.29,1.63,13.64-.92,2.54-1.92,2.48-2.08,4.45-.21,2.71,1.61,3.79,4,8.6,1.4,2.83.69,2.3,2.81,7.27,2.47,5.79,3.35,6.31,3.12,8.3-.34,2.93-2.46,3.76-2.08,6.38.13.89.53,1.88,2.38,3.85a30.17,30.17,0,0,0,7.41,5.79c5.31,2.88,9.15,4.95,15.42,6.67,8.43,2.3,12.64,3.46,15.87,1.33s4.2-6.22,5.78-12.45,1-9,3.71-11.42c.72-.63,1-.61,6.37-2.67,7.35-2.8,8.21-3.35,8.46-4.3.65-2.48-3.81-4.11-3.41-7.41.3-2.52,3.23-4.46,5.48-5.19,4.19-1.36,6.65,1.3,9.2-.15,2-1.14,2.13-3.73,2.81-8.6,1.68-12,2.59-18.08,5.79-19.58,2.2-1,3.71.57,9.49-.74,1-.22,1.91-.48,3.56-.74,3.1-.48,3.81-.16,5.78-.44a16.62,16.62,0,0,0,7.71-3.41c1.81-1.4,3.24-2.5,4-4.45,1.43-3.65-1.08-6.15.6-8.31,1.4-1.81,4.43-1.66,4.89-1.63,2.87.19,3.22,2.11,5.19,1.93,2.5-.23,2.71-3.41,6.67-5.93.4-.25,1.55-1,3.12-2.08,1-.75,1.57-1.13,1.78-1.33,2.18-2.21.83-5.16,2.52-6.38.85-.61,1.91-.38,3.7,0,1,.22,4.45,1,6.08,3.71,1.37,2.3.64,4.59,1.34,4.74s1.35-3.07,4.15-5a8.8,8.8,0,0,1,4.89-1.48c4,.08,4.7,3.41,9.79,4.74a16.69,16.69,0,0,0,6.53.3c3.87-.67,5.62-2.6,7.56-1.63,1.15.58.76,1.38,2.52,3.11,1.25,1.24,2.17,1.55,4.45,2.82,3.68,2.06,3.42,2.44,5.19,3.26a15.52,15.52,0,0,0,9.49.89c5.12-1.24,7-5,9-4,1.1.54,1.39,2.05,1.78,4.15.87,4.64-.81,6.16.15,7.86,1.51,2.68,6.43.26,14.53,2.23,2.61.63,5.6,2,11.57,4.89,4.34,2.06,4.37,2.32,8.9,4.45,6.46,3,9.74,4.56,12,4.45,3.42-.18,5.42-1.73,8.45-.45a9.3,9.3,0,0,1,3.11,2.37c5,5,5.35,6.66,7.57,8.6a17.85,17.85,0,0,0,13.19,3.86c4.84-.54,6.07-3,9.64-2.08,1.26.34,3,1.66,6.53,4.3,3.68,2.77,3.8,3.2,5.19,3.86,3,1.43,5.22.82,8.89.74,10.27-.23,14.2,4.05,16.91,1.48,1.39-1.32.36-2.46,2.67-8,1.13-2.72,1.4-2.5,2.37-4.9a31.32,31.32,0,0,0,2.22-10.08c.24-5-1.08-4.81-.59-7.71.78-4.58,4.51-7.51,10.23-12a42.56,42.56,0,0,1,8.75-5.79c6.43-3,13.09-3.81,17.2-4.3,5.09-.59,7.27-.33,10.09-2.22,1.65-1.11,1.51-1.61,5.19-5.78a65.38,65.38,0,0,1,8-8,33,33,0,0,1,6.23-4.3c6.61-3.35,13.4-2.76,19.57-2.23,2.34.21,6.46.7,11,1.49,5,.87,5.88,1.3,8,1,.46-.06,7.38-1,10.08-6.08,1.7-3.2-.15-4.53,1.63-12.16.61-2.64,1.43-5,1.48-5.19.41-1.2.94-2.61,2.82-7.27,1.44-3.58,1.66-4.07,1.48-4.89-.44-2.09-2.65-2.82-5.34-4.45-2.91-1.77-5.55-4.69-10.82-10.53-4.86-5.39-3.63-5.11-6.38-7.56-4.89-4.38-8.33-4.83-9.19-8.31a7.42,7.42,0,0,1,1.33-6.08c2-2.57,4.36-1.33,8.31-4,3.49-2.36,4.25-5.09,5.93-4.75s1.76,3.6,3.56,3.86c1.46.21,1.92-1.86,4.6-3a9.44,9.44,0,0,1,6.08-.14c3.11.9,3.26,2.7,5.78,3.26,2.27.5,3.27-.71,6.82-1.78a28.16,28.16,0,0,1,11.57-.74c4.69.47,5.16,1.64,9.63,2.52,7.64,1.51,9.12-1.32,14.83-.45,8.19,1.26,7.22,7.39,19.13,12.9a119.53,119.53,0,0,0,14.53,5.34c4.52,1.31,7.89,2,10.38,5,1.47,1.82,1.24,2.75,3.27,5.79a30.6,30.6,0,0,0,5.78,6.37c5.8,5,7.86,3.76,11.71,7.57,1.1,1.08,5.77,5.7,5.34,11.12-.33,4.13-3.28,4.52-8.15,11.71-2.61,3.85-6.12,9.16-6.53,16.31a23.93,23.93,0,0,0,1.19,8.9c1.1,3.3,2.36,7.05,5.48,8.45s4.92-1.17,11.57-1.18c3.09,0,7.18,0,9.79,2.67,2.24,2.31,2.31,5.49,2.37,8.74,0,2.29-.19,5.51-3.26,14.54-2.93,8.6-3.6,8.27-3.71,11-.2,5.05,1.91,12.11,7.42,14.53a11.52,11.52,0,0,0,7.41.6c2.76-.75,3-2.11,5.49-2.82a11.35,11.35,0,0,1,9.63,2.22c3.63,2.89,1.74,5.48,5.34,10.38,3.84,5.22,8.33,5.47,8.6,9.2.13,1.7-.76,2.39-1.92,4.89-2.07,4.42-1.73,7.44-2.23,13.64-.55,6.84-.89,11.14-2.52,15.87-3.47,10.07-8.59,9.95-8.75,17.05-.07,3.31,1,6.17.15,12.31-.22,1.62-.46,2.65-.89,4.6-3.51,15.72-3,15.71-4.45,20.16-2.85,8.9-4.71,8.69-4,11.42,1.49,5.73,10.33,9.23,18.09,12.31a56.25,56.25,0,0,1,6.67,2.82c4.91,2.54,5.36,3.9,7.71,4,3.21.13,5.94-2.26,8.6-4.6,3.87-3.39,4.13-5.49,5.93-5.48,2.68,0,4.78,4.61,6.53,8.45,2.1,4.6.83,5.35,2.67,8,2.12,3.06,4.06,2.82,6.82,6.67,1.3,1.82,2.23,3.11,2.52,5,.61,4.07-2.41,5.82-2.08,9.64.09,1,.43,2.38,3.41,6.08,4.88,6,9.1,11.25,16.46,13.05,2.81.68,5.54,1.35,8.6.29,4.39-1.5,5.75-5.24,9.79-5.19.66,0,2.81,0,4,1.49,2,2.38-1.17,5.63.14,10.82a12.78,12.78,0,0,0,3.56,5.93,15,15,0,0,0,6.82,3.56c3.69,1,4.65.18,8.16.89s4.39,2,8.45,3.86c5.52,2.57,6.52,1.44,13,3.7,7.44,2.58,13.08,6.45,12.75,7.27-.23.58-3.18-1.05-7.26,0a13,13,0,0,0-6.23,3.86c-1.45,1.53-3.38,3.58-3,5.93a5.71,5.71,0,0,0,2.82,3.56c4.79,2.79,10.47-1.72,12.46.29.87.88.11,3.25-1.34,7.86-1.53,4.87-2.29,7.3-3.7,8.31-2.05,1.45-5.45.88-12.16-.3-6-1.05-6.5-1.67-9.79-1.78-4.14-.15-8.38-.29-10.68,2.22-3.39,3.72,1.28,9.05-2.22,14.39-2.74,4.16-8.56,5.44-9.49,5.63-4.34.89-6.4-.61-8.9,1.19-2.15,1.54-2.71,4.16-3.26,6.67-1,4.68.43,6.39-.59,12.16-.47,2.61-.7,3.91-1.64,4.75-3,2.65-7.91-1.5-10.82.74s.62,7.75-3.11,13.05c-1.7,2.4-2.69,1.62-5.05,4.3-4.07,4.63-1.8,7.76-5,13.05-3.46,5.64-7.38,4.25-10.38,10.38-1.12,2.29-1.44,4.29-2.07,8.3-.73,4.56-1.13,7.29.44,9.19.74.9,2,1.73,5.49,2.08,6.5.65,9.72-1.52,17.05-3,8.39-1.65,8.09.41,12.9-1.48,1.18-.46,2.48-1.09,12.61-8.9,4.47-3.45,6.72-5.19,7.11-5.93,2.91-5.43-.53-10.92,3.27-15.57a9.44,9.44,0,0,1,2.66-2.22l41.38.15a37.6,37.6,0,0,0,11.86,11.71c4.35,2.64,8.07,3.53,9.79,7.41.61,1.38.6,3.64.59,8.16,0,6.24-.66,7.61,0,11.27a28.52,28.52,0,0,0,2.07,6.38c3.29,7.87,6.22,8.71,5.64,11.41s-3.85,2.53-11.12,8.75c-2.3,2-3.45,3-4,4-2.65,5,1.72,8.92-.89,13.79-1.43,2.68-4.77,5.23-5.48,5.78-2.1,1.61-3.29,2-3.56,3.26-.41,2,1.76,4.63,4.15,5.79,2.68,1.29,4.25.09,7.27,1.78,1.16.65,2.32,1.3,2.67,2.52.47,1.68-1.14,2.56-2.67,6.37-.76,1.89-1.88,4.78-.6,6.53.27.35.37.31,1.34,1,2,1.51,3.85,2.88,3.85,4.15,0,1.11-1.4,1.68-4.15,3.41-3.94,2.48-6.1,3.85-7.26,5.78-1.42,2.36.21,3-.15,9.19-.25,4.27-1.27,8.34-.89,14.24a3.31,3.31,0,0,0,.59,2.08c1.81,2.12,6.12-1.11,10.83.74a10.64,10.64,0,0,1,4.89,4.3,14.12,14.12,0,0,1,1.78,5.63,92.36,92.36,0,0,0,2.67,10.23c2.4,7.49,4.88,7.16,6.23,13.35.17.78.31,3.54.59,9,.46,8.94.38,10.84,1.93,12.3,1,1,1.84.69,8.75,1,8.86.45,9.12,1,11.12.3,3.43-1.16,2.42-2.61,8.75-6.53,2.59-1.61,4.74-2.3,9-3.7,1.61-.53,2.56-.77,3.41-.3,2.13,1.16,1.77,5.63,1.63,7.27-.25,3.08-1,3.52-1.48,6.37a18.35,18.35,0,0,0,.89,10.08c.9,2.06,3,3.93,7.12,7.57,4.68,4.12,7,6.19,8.75,6.52,4.37.85,5.6-2.48,12.9-3.11,3-.27,6.71-.58,9.19,1.63.92.82,1.28,1.63,3.12,8.9s1.86,8,2.81,9.78c1.57,2.89,2.57,3,4,6.08a22.6,22.6,0,0,1,1.92,7.12c.34,4.45-2.53,9.45-8.3,19.28a92.34,92.34,0,0,1-4.89,7.86c-4.12,5.61-5.73,5.78-6.53,8.89-1,4.12,1.18,6.14-.59,9.79a10.39,10.39,0,0,1-3.71,4c-4.44,3.15-7.51,1.58-15,3.56a38.42,38.42,0,0,0-10.08,4.3c-3.44,2.12-6.32,3.9-8.45,7.42-2.84,4.68-1,6.9-3.41,13.79a5.57,5.57,0,0,0-.3,3.41,6.71,6.71,0,0,0,3,3.56c2.1,1.35,3.25.78,3.85,1.78.87,1.43-.34,4.51-2.52,5.93s-3.44.14-7.71,1.33c-2.13.6-3.33.93-4.15,2.08-1.49,2.08-.43,5.07.3,7.12.49,1.39,1.17,3.3,2.52,3.56.8.15,1.12-.42,2.67-1,.39-.16,3.86-1.54,5.19-.3.65.61.54,1.65.29,3.71a44,44,0,0,1-1.48,6.23c-.81,3-.78,3.32-.59,3.56,1.07,1.36,4.85-1.42,9,0a8.54,8.54,0,0,1,3.12,1.92l-.89,26.4c-3.43.21-4.61,1.19-5,2.07-1,2.11,1.88,4.31,1.19,8.16-.37,2.11-1.32,1.86-2.07,4.3-1.12,3.61.55,5.46.44,9.64s-1.71,3.64-2.22,7.86c-.85,7,3.29,10.06,1,14.08-1.08,1.94-2.26,1.63-3.26,4s-.15,3.72-1.48,6.37c-.79,1.57-1.31,1.55-1.93,3.12a10.4,10.4,0,0,0-.59,4.6c.17,4.8-.36,2.37-.15,9.63.23,7.72.78,8.75,1.48,9.49,1.64,1.73,3,.79,4.3,2.38,2.18,2.67-1,6.26.45,11.27.32,1.13,1.55,2.73,4,5.93a138.33,138.33,0,0,0,9,10.53c1.82,1.94,3.51,3.75,5.93,6.08,4.93,4.75,7.45,7.14,10.08,8,2.48.82,2.29,0,10.08.15s8.75,1.09,11.57,0c3.43-1.32,3-3,7.27-5,2.28-1.09,2.78-.8,8.75-2.22,7.95-1.91,8.3-2.74,10.38-2.23,3.93,1,7.4,5.1,7.56,9,.07,1.9-1.14,4.09-3.56,8.45-2.27,4.09-3.47,5.16-4,8.15a9.93,9.93,0,0,0,.14,5.49c.89,2.39,2.47,3,2.67,5a6.28,6.28,0,0,1-1.33,4s-2.8,4.44-6.08,9.93c-2.75,4.6-1.55,4.43-5.19,11.12-1.5,2.75-2.24,3.78-2.67,5.93-.17.85-1.14,5.72,1.48,8.46.93,1,1.35.66,3.12,2.07a21.65,21.65,0,0,1,3.56,4c1.29,1.55,4.84,5.81,7.71,5.19,1.36-.3,1.18-1.41,4.15-4.16,2.06-1.9,3.3-3,5-3.11,2.43-.08,4.28,2,4.75,2.52,2,2.22,1.39,4,3.11,7.12.48.88,1.15,1.9,3.85,4.6,7.49,7.47,11.23,11.2,15.87,12.9a12.85,12.85,0,0,1,5,3.26c.95,1,1.77,1.88,1.63,2.82-.31,2.14-5.5,3.57-9.83,3.55-1.09,0-4.33-.65-10.78-1.92-2.87-.57-4.06-.82-5.78-.6a13.94,13.94,0,0,0-6.53,3c-4.23,3.31-3.06,5.58-6.22,8.16-4.72,3.84-9.25.35-12.76,4.15-2.57,2.79-.64,5.22-3.85,8.3-1.75,1.68-3.3,1.89-5.64,4.6-1.32,1.53-2,2.3-2.07,3.41-.19,2.33,2.18,3,3.41,6.82a13.4,13.4,0,0,1,.59,4.45,12.63,12.63,0,0,1-1.18,5.93c-1.43,2.75-3.11,2.69-3.86,5.34a5.17,5.17,0,0,0,0,3.41c.77,1.88,2.59,2,3.41,3.11,1.68,2.32-.76,7.52-4,10.83-4.62,4.7-8.77,3.36-9.79,6.52-.25.78-.12,1.24,5.93,11.87a10.53,10.53,0,0,0,4,4.44,12.33,12.33,0,0,0,4,1.19c2.35.44,3.95.75,5.78.3,2.47-.61,2.42-1.86,4.9-2.67a10.34,10.34,0,0,1,6.37.15c3.72,1.41,3.11,4.24,6.53,5.93,2.36,1.16,2.79-.13,9.78.44,5.73.47,7.35,1.49,8.31,2.37a11.84,11.84,0,0,1,2.52,3.71c1.34,3,.79,4.77,2.07,5.49s2.43-.9,4.16-.3c2.61.92,3.19,5.79,3.26,6.38.28,2.36-.39,2.73.15,4.59.45,1.58,1.12,2,2.67,4.3,2.13,3.17,1.63,3.53,3.11,5.49a16.42,16.42,0,0,0,5.78,4.75c3.38,1.64,4.14.44,7.86,2.22a17.66,17.66,0,0,1,5.49,4.15c1.33,1.42,2.31,2.49,2.37,4,.05,1.24-.57,1.77-1.33,3.7a22,22,0,0,0-1.19,4.9c-1.26,6.34-4.76,7.27-4.89,12.16a13,13,0,0,0,2.81,8c1.54,1.93,2.36,1.7,4.3,3.71.64.66,4.06,4.19,4.45,8.75.21,2.41-.95,5.16-3.26,10.68-1.71,4.08-2.71,5.53-2.22,7.86.27,1.3,1,2.44,2.37,4.74a46.57,46.57,0,0,0,3,4.3,57.46,57.46,0,0,1,6.23,10.38l-32.32-.59c-6.11-17.4-13.38-29-16.61-31.29-.73-.51-3.1-1.86-4.6-2.67-2.94-1.6-3.9-1.92-5-1.78a4.42,4.42,0,0,0-3,1.48c-1.71,2.3.15,6.72,1.19,9.2.76,1.79,1.27,2.42,1.19,3.7a6.55,6.55,0,0,1-2.52,4.31c-1.29,1-2.7,1.37-8,1.63-4.28.2-6.43.31-7.27.14-4.89-1-10.47-4.79-10.38-8.6.06-2.48,2.49-2.7,2.82-5.93a8.67,8.67,0,0,0-3.41-7.56c-1.29-.89-1.93-.59-3.71-1.93-1.47-1.1-1.86-1.93-3-2.07s-1.74.49-3,1.18c-1.89,1.07-2.44.76-6.82,1.93-4,1.08-4.33,1.55-6.08,1.93-4,.86-6.88-.59-11.57-2.23-9.52-3.32-20.43-5.37-22.09-2.52-.4.69-.22,1.58-1.19,3.27a11,11,0,0,1-2.07,2.52c-3.39,2.87-12,.66-17.37-1.9a23.91,23.91,0,0,0-5.47-2c-2.13-.47-3.86-.85-5.49-.15-2.34,1-1.64,3-4,5.49-3.41,3.54-7.62,2.17-9.93,5.93a7.16,7.16,0,0,0-.89,2.22v16.91a100.61,100.61,0,0,1,2.66,9.79c.41,1.84.76,3.45,1,5.63.49,3.77.15,4.35.45,8.45.46,6.37,1.45,7.34.74,10.53-.49,2.21-1.28,3.16-2.52,5.49-2,3.72-7,13-4.15,17.2,2.26,3.37,7.32,0,11.41,4.15,2.84,2.87,2.41,6.52,6.38,8.75a13,13,0,0,0,3.26,1.19,23.85,23.85,0,0,0,8.31.59c5.27-.31,12.11.59,17.05,3a72.77,72.77,0,0,1,6.82,3.42,7.45,7.45,0,0,0,3,1.48,7.27,7.27,0,0,0,4.59-.74,8.21,8.21,0,0,0,3.12-2.82c1.78-2.6.86-4.09,2.22-5s2.84.27,6.53.15a16.21,16.21,0,0,0,4.3-.75q.36,11.87.74,23.73c-3.21,2.7-3.53,4.19-3.26,5,.93,3,10,1.07,12.15,5.49.91,1.86.11,3.84,1.93,6.67.31.47.75,1.06,1.63,2.23a12,12,0,0,0,2.52,2.81c1.15.81,1.44.48,1.93,1,.92,1,.27,2.54-.29,6.08-.64,3.94-.21,4.36-.89,5-1.64,1.63-6,1.16-8.6-1-3.27-2.69-2.63-6.81-5.64-7.71a15.76,15.76,0,0,0-3.11,0c-2.72.11-3.93.36-5.19.45-4.9.35-6-1.89-9.35-1.19a9.15,9.15,0,0,0-5,3.26l-11.56,28.92a50.68,50.68,0,0,0-9.35,16.31,17.48,17.48,0,0,0-1,6.23,18.63,18.63,0,0,0,3.41,9.79c.95,1.4,1.07,1.2,3.26,3.85,3.09,3.74,4.63,5.61,5.34,7.27,1.29,3,.3,5.3-3.12,16.75-2.59,8.72-1.85,6.82-3,10.24-4.11,12.55-6.16,18.83-10.53,21-1.64.84-3.91,1.44-5.93,3.86-.89,1.06-1.45,2.4-2.52,5-2.15,5.27-3.21,7.94-2.23,9.79.51,1,1.25,1.35,1.63,2.81a6.47,6.47,0,0,1,0,3.12c-.42,2-1.38,3.69-3.26,6.23-2.87,3.88-4.34,5.84-6.23,6.67a9.45,9.45,0,0,1-5,.74c-6.3-.91-6.4-8.53-13.64-10.82-2.41-.77-3.88-.4-7-1.93a12,12,0,0,1-4.89-3.71c-1.77-2.46-1.06-4-2.67-5s-3.46-.4-5.49.15a19.57,19.57,0,0,0-4.15,1.78c-4.43,2.3-4.31,3-6.08,3.41-2.38.61-6,.3-7.56-1.78-1.44-1.93.12-3.75-1.63-6.68-.45-.74-1.5-2.5-3.27-2.66-1.54-.15-3.16,1-4.15,2.81l-19.72,18.39-29.06-21.65c-1-1.5-2-3.53-1.34-5.19.51-1.22,1.57-1.35,2.52-2.67,1.14-1.57,1-3.32.89-5.93s-.27-5.51-.44-9.79l-37.67-.44a12.16,12.16,0,0,1-2.37,7.41c-1.73,2.18-3,1.92-5.78,4.6-.7.68-5.35,5.24-4.15,8.3.45,1.17,1.43,1.27,1.92,2.82a5.93,5.93,0,0,1-.29,3.86c-1.7,4.67-4.29,6.26-5.49,9.49-1.92,5.14.72,11.72,2.37,15.86.89,2.23,1.87,4,1.49,6.53-.32,2-1.34,3.27-3.42,5.78-9.4,11.4-9.7,12-11.56,12.75a12.18,12.18,0,0,0-5,2.82,8.31,8.31,0,0,0-2.23,3.56c-1,3.41,1.44,5.22.3,7.27-.52.92-1.29,1-5.34,2.52-3.35,1.22-5,1.83-5.78,2.22-4.67,2.4-7,7.06-8.75,10.53a35.85,35.85,0,0,0-2.23,5.63c-.93,3-1.4,4.46-1,6.23s1,2.19,2.22,4.15c1.55,2.62,2.76,4.8,2.82,7.12.12,4.94-5.14,8.87-7,10.23a20.21,20.21,0,0,1-4.15,2.38c-2.79,1.22-5.49,2.41-8.16,1.48a8.22,8.22,0,0,1-4-3.56c-2.51-3.7-1.17-6.18-3.26-7.71-1.82-1.33-5.33-1.28-6.68.74-1,1.46.83,3,0,4.45-1.32,2.32-6.62.09-8.6,2.67-1.48,1.92.49,4.46-.89,5.63-1.55,1.32-4.29-1.68-9.64-1.48a15.74,15.74,0,0,0-5.93,1.48,17.76,17.76,0,0,0-5.48,4c-3.6,3.84-2.59,6.07-5.79,8.6a11.66,11.66,0,0,1-6.08,2.37,11.37,11.37,0,0,1-7.56-1.78c-1.82-1.3-2.42-2.77-4.75-8.3-3.48-8.29-2.85-8.46-4-9.49-3.69-3.32-7.71,0-13.64-3.41-2.51-1.47-4-3.35-6.38-6.38a41.42,41.42,0,0,1-5.19-8.6l.15-20.76c-13.87-3.15-18-2.19-18.83-.45-.4.81-.12,1.84-1,2.82-1.4,1.5-4.4,1.64-6.38.45-1.58-1-2.07-2.53-3-5.34-.46-1.46-1.12-4-2.37-9.79a3.57,3.57,0,0,0-.89-1.93c-1-1-2.43-.84-5.64-.59-6.27.48-5.91.31-7.41.59-3,.56-4.49.84-5.93,1.78-2,1.29-1.68,2.15-4.6,5.19-2.19,2.28-3.48,3.58-5.49,3.86-.14,0-3.22.4-4.45-1.34-1.47-2.09,1.18-5.21-.14-6.52-.91-.9-3-.24-4.6.3a19.14,19.14,0,0,0-5.49,3c-8.63,6.1-9.52,7.07-10.38,8.31-1.61,2.31-1.89,3.81-2.37,3.7-1-.22-.87-7,1-13.34a27.58,27.58,0,0,1,4-8.6c3.44-4.83,6-4.66,9.34-8.16,4.88-5.09,2.23-8.29,7.27-20a92,92,0,0,1,7.71-14.09c4-5.83,6.51-7.7,7-12,.4-3.73-1.22-4.74-2.82-10.52-.67-2.44-3.12-11.32-.74-20.17,2.21-8.22,6.51-8.63,6.38-14.68-.1-4.59-2.65-8.07-6.53-13.35-4.12-5.61-5.63-5.37-9.78-11.12a57.8,57.8,0,0,1-6.38-11.42,65.12,65.12,0,0,1-4.3-16.75c-1.15-9.11-2-15.84,1.33-22.1a68.55,68.55,0,0,1,5.34-8.15c2.76-3.64,3.33-3.67,4.3-5.49,2.46-4.6,2.69-11.83-.29-13.79-4.41-2.89-14.84,6.27-15.87,4.89-.45-.59,1.52-2.31,3.71-7.11,1.81-4,1.6-5.32,1.33-6.08-.72-2-2.42-1.62-3.41-3.56-1.47-2.89,1.61-5,.59-9-.69-2.73-2.26-2.34-3.26-5.49-1.19-3.75.68-5.49-.74-7.71-.52-.8-1.28-1.38-6.23-2.81-7.51-2.18-8.89-1.76-9.93-3.27-1.3-1.86-.58-4.5.74-9.34s3.21-8,2.07-9c-.77-.71-2.45,0-2.52-.3s3.51-.75,5.34-3.11c1-1.35,1.11-2.81,1.19-5,.11-3.35.29-8.61-3-11.41-2.59-2.24-5.4-1.21-5.78-2.52-.82-2.79,12-6.73,11.71-12.16-.12-2.37-2.68-4.2-4.89-5.79-2.86-2.05-4.52-1.84-7.86-3.11-4.73-1.8-8.27-4.72-15.12-10.38-3-2.48-4.61-4.05-6.38-3.56-2.06.57-3,3.53-3.41,5.34l-19-1.19a75.87,75.87,0,0,1,7-7.56c3.36-3.19,4.93-4.09,5.48-6.38.79-3.2-.8-7.47-3.55-8.6-3.08-1.26-6,2-7.86.6s.28-5.31-1.78-7c-1.26-1-3.4-.68-4.75,0-2.33,1.17-2.15,3.34-4.74,7.41-1.88,2.94-3.06,4.8-5.19,5.49-3.52,1.13-7.51-1.61-9.49-3.86a10.94,10.94,0,0,1-3-7.26c.11-4.89,4.26-6,4-10.24s-4.45-6.7-4.89-7c-5.27-3.13-10.85,0-11.27.29-.71.42-4.37,2.59-4.89,6.23-.41,2.9,1.54,4.11.89,5.78-.88,2.25-5.21,2-13.2,2.52-10.82.64-9.08,1.37-20.31,1.93-5.48.28-6.56.14-8.9.89-6.2,2-9.68,6.51-11.27,8.31-8.6,9.69-24,14.82-28.62,11-2.29-1.93-2.3-6.51-1.63-9.2,1-3.86,3.4-4.24,3.71-7.41.36-3.79-2.7-7.77-5.94-9.64-3-1.75-4-.37-11.27-2.07-4.62-1.09-4.74-1.76-8-2.08a19.2,19.2,0,0,0-9.34,1c-1.21.48-1.19.65-6.23,4.15-6,4.13-6,3.94-7.86,5.49-4,3.37-3.59,4.27-5.34,4.74-3.8,1-5.56-3.25-11.27-3.56-4.12-.22-4,2-8.3,1.78-3.71-.15-4.6-1.83-11.87-4.45-3.38-1.21-5.07-1.82-6.37-1.92-8.39-.66-14.86,7-15.72,8-2.18,2.64-2.65,4.41-4.15,7.42-3.41,6.82-8.95,12-20,22.39-5,4.68-5.5,4.74-13.79,12.31-1,.89-2.85,2.6-5.49,4.74-3.09,2.5-5.75,4.4-7.56,5.64l-7,2.81c-2.79-5.84-6.26-8.08-8.3-9-2.41-1.13-3-.56-11.27-1.78-7.5-1.11-8.41-1.78-10.83-1-4.79,1.47-7.35,6-7.56,6.38-2.87,5.22-.69,9.92-4.45,13-.74.61-1.56,1.29-2.22,1-3.23-1.26,1.41-23.21,8.6-28.32,3.6-2.56,5.19-3.56,5.19-3.56,3.43-2.15,4.18-2.25,4.89-3.26,1.79-2.56-.56-5.55-1.34-10.23-.91-5.54,1.57-6.34,5.19-21.21,1.53-6.27,1.3-7,2.67-10.82,2-5.63,3.31-9.27,6.82-12,3-2.38,5.23-2.1,6.83-4.9,1.46-2.56.35-4.07,1.78-6.37,1.17-1.89,2.61-2,7.85-4.15,2.34-1,6-2.77,13.2-6.38,4.18-2.08,4.71-2.45,5.34-3a18.31,18.31,0,0,0,5.78-9.34,17.75,17.75,0,0,0-.15-10.82c-1.89-5.15-4.94-4.52-8.3-10.38-2.63-4.59-1.11-5.6-4.3-12.16a30.82,30.82,0,0,0-5.63-8.6c-4.44-4.6-6.54-3.25-9.35-6.53-3.43-4-1.31-7.22-3.55-20.61-.75-4.44-.85-3.3-2.53-11.71-1.84-9.28-2.77-13.93-2.81-17.5a69.69,69.69,0,0,1,2.07-17.8c1.24-4.39,2.38-6.3,1.34-8.6-1.36-3-5-3.41-11.27-5.48-9.33-3.06-8.93-4.54-15.13-6.38-4.59-1.36-12.08-2.69-22.39-.74a35.08,35.08,0,0,0,2.82-15c-.25-6-2.12-9.74.3-13.49,1.3-2,3.26-3.12,5.93-4.6,5.2-2.89,6.82-1.66,8.89-3.85s2.13-5.17,2.38-11.27c.23-5.78-.67-5.4-.15-8.75,1-6.28,4.17-7.94,3.26-12-.47-2.11-1.73-3.43-3.41-5.19-4.1-4.3-6.56-3.19-10.38-6.38-5.4-4.5-3.52-9.23-9.34-13a17.16,17.16,0,0,0-6.23-2.37c-8.33-1.79-13.08,2.22-16.61-.74-1.2-1-1.66-2.32-2.52-4.75-1.45-4.09-.25-5.23-1.19-7.86-1.87-5.28-8-4.33-10.08-9.78-.13-.35,0-.08-.44-6.82-.42-6.35-.57-7.28.14-8.6,1.67-3.07,5.16-3,5.34-4.75.25-2.51-6-4.92-6.67-5.19-2.74-1.06-3.31-.55-4.6-1.48-2.35-1.7-1.77-4.33-3.11-9.49-.77-3-2.15-8.28-6.23-12.16-3-2.84-4.14-1.82-5.93-4.15-4-5.18.23-12.2-2.67-14.09-2.54-1.66-6.54,3.19-10.53,1.33-1.42-.66-2.26-1.91-3.85-5.63a64.64,64.64,0,0,1-4.45-12.9c-1.33-5.56-3.7-9.59-8.45-17.65-4.4-7.45-8.42-12-16.46-21.2-6.74-7.68-9.79-10.2-13.5-10.09-2.6.08-4.34,1.42-7.86.6-2.27-.54-3.24-1.49-6.67-2.52a29.34,29.34,0,0,0-4.89-1L1252.65,889a22.28,22.28,0,0,0-6.68-3.41c-4.49-1.39-7.21-.6-8.6-2.37-.78-1-1.28-3,.74-7.57l-219,.89c2.89,7.61,1.55,15.12-3,18.54a10.77,10.77,0,0,1-6.08,2.08l-65.39,21.2c-5.4-2-9.26-3.37-11.87-4.3a37.25,37.25,0,0,1-6.52-2.82,23.43,23.43,0,0,1-5.93-4.3c-2.81-2.92-2.82-4.87-6.38-8.15a5.71,5.71,0,0,0-3.11-1.78,6.22,6.22,0,0,0-4.75,1.78l-57.38,15.12-18.84,11-3.55.89q-4.4,20.82-8.77,41.66a2.25,2.25,0,0,1-.28,1.34c-1.53,2.47-7.88-1.1-11.27,1.63-1,.84-1.54,3.23-2.52,8-.76,3.67-.57,4.18-1.34,7.86-.81,3.88-1.1,3.67-1.92,7.41-1.41,6.35-.82,8-2.38,9.49-2.36,2.19-5.66-1.1-8,.74-3,2.35.7,8.46-3.12,12.75-1,1.16-1.63,1.09-3.7,3.27-1.43,1.49-1.49,1.87-3.71,4.45s-2.36,2.43-2.52,3.11c-.56,2.34,2,3.45,1.93,6.23,0,.78-.24,1.32-3,5.19-3.41,4.83-3.92,5.18-4.75,6.82s-1.25,3.52-1.92,7c-1.61,8.19-.63,10.24-2.52,11.71-2.62,2-6.74-.11-7.71,1.78-.58,1.13.77,2.08.44,4.6a6.1,6.1,0,0,1-1.78,3.71c-2.06,1.85-5.76,1.88-7.12.29-1-1.18-.27-2.75-1.18-3.26s-3,.37-4,1.93c-1.91,2.93,1.38,6,0,11.71-.61,2.54-1.59,3.38-2.07,3.71a5.9,5.9,0,0,1-4.9.44,28.41,28.41,0,0,1-3,9c-1.22,2.3-2.25,4.22-4.3,5.49-2.31,1.41-4.57,1.18-8.45.89-15.5-1.19-17.62-.44-19,.89s-1,2.58-3.55,5.19c-1.88,1.94-3.44,3.57-5.34,3.55-3.8,0-4.64-6.53-9-7-3-.29-5.46,2.47-5.63,2.67-2.1,2.45-1.22,4.85-2.52,9.49-1.37,4.87-3,4.18-3.27,7-.7,6.29,6.7,9.79,5.05,14.39a8.54,8.54,0,0,1-3.41,3.85c-1.87,1.15-3.05.83-4.45,1.93-.94.74-2,2.13-2.38,5a27.11,27.11,0,0,1-19,21.8c-.49-.21-5.87-2.42-8.74.15a6.75,6.75,0,0,0-1.78,3.26c-1.19,3.74.33,5.73-.89,7.27-.22.26-1.11,1.26-5.19,1a27,27,0,0,1-11.72-3.55,32.08,32.08,0,0,1-9.64-7.27c-2-2.28-2.56-3.73-4.3-4s-2.78,1-7.26,3.41a30.53,30.53,0,0,1-5.34,2.52c-4.94,1.54-6.15-.62-10.09.74C581.39,1178.36,582,1180.39,577.06,1182.43Z"/><path d="M405.79,1034.14c-2.6.32-4.16,3-6.23,6.53-1.52,2.59-2.68,4.57-3.11,7.56s-.21,7.72,1.63,8.3a2.26,2.26,0,0,0,1.78-.44c2.32-1.39,2.2-4.07,4-9.49,1.06-3.19,1.59-4.79,2.67-6.38,1.67-2.46,3.32-3.45,3-4.6S407.31,1034,405.79,1034.14Z"/><path d="M421.8,1038.66a4.36,4.36,0,0,0-1-.59c-1.09-.47-2.73-.63-3.25,0-1.63,1.93,3.44,9.14,3.92,8.92.23-.11-.48-2-.45-2s.92,2.84,1.78,6.22a15.51,15.51,0,0,1,.67,3.34c.05,2.09-.61,2.73-.22,4,.43,1.44,2,2.89,3.11,2.67,2.39-.45,2.45-8,2.45-8.45a6.16,6.16,0,0,0-.45-2.67c-.54-1.22-1.14-1.28-1.56-2.44s.07-1.34-.22-2.9a6.19,6.19,0,0,0-1.33-3.11c-.6-.67-1-.68-2.45-2C422.39,1039.23,422,1038.89,421.8,1038.66Z"/></g></g></svg>