<svg xmlns="http://www.w3.org/2000/svg" viewBox="0 0 2294.46 1340.61"><g id="Layer_2" data-name="Layer 2"><g id="Guinea_Bissau" data-name="Guinea Bissau"><path d="M2287,158.62c-3.48-4.92-5.6-9.65-9.83-19.11-3.1-6.91-4.34-10.8-7.9-11.78-2.75-.76-4.59.84-7.07-.55s-3-4.26-3.88-7.21c-1.39-4.9-4.18-9.31-5.81-14.13-3.9-11.46-8.39-20.76-13.44-31.58-2.62-5.62-4.87-10.08-6.24-12.75V8.59L1123.39,0,1066,40.45c-11,7.22-19.06,9.68-24.53,10.53A39.07,39.07,0,0,0,1027,55.83a35.09,35.09,0,0,0-5.4,3.88c-3.68,4.2-8.54,9.47-14.55,15.24A248.72,248.72,0,0,1,980.7,96.84c-8.85,6.31-18.6,12.18-44.75,24.52-28.76,13.57-34,14.51-65.53,29-13.09,6-14.4,6.86-41,19.53C803.77,182.06,783,191.75,769.57,198l-165-17.32-46,6.65-56.94-24.94-27.71-.69L411.87,179.4l-35.05-8.31L273.33,223.46a196,196,0,0,1-18.14,9.7,10.55,10.55,0,0,0-5.27,3.87c-.93,1.47-.68,2.18-1.94,4.44-1.06,1.91-1.91,3.43-3.6,4.15a6.6,6.6,0,0,1-5.27-.41l-46.4.41-43.78,7.48-23.28-6.64-34.49,8.86c-9.62.59-16-1-20.23-2.63a83.73,83.73,0,0,0-8-2.91,63.69,63.69,0,0,0-10.67-2.36c-3.78-.46-7.69-.22-15.38.28-6.22.41-9.33.61-12.33,1.25a55.43,55.43,0,0,0-12.33,4.29C6.83,255.83.14,259.05,0,263.5c0,.31,0,2,1,2.63s2.26-.12,7.62-2.91A31.77,31.77,0,0,1,13.16,261a16.58,16.58,0,0,1,6-1c4,.24,6.86,2.85,11.08,6.79,4,3.69,5.86,6.58,6.79,6.1.4-.21.39-.91.14-4.16-.49-6.34-.77-7.49-.14-7.9,1.1-.7,4.2,1.35,6,4,1.59,2.42,1,3.63,2.35,5.4,1.89,2.41,4.76,2.35,7.76,3.19,5.36,1.51,4.11,3.92,11.08,7.9,5.52,3.14,7.67,2.68,9.56,5.68,1,1.5,1.2,2.87,3,5.26,1.58,2.05,2,1.83,3.46,3.6,3,3.63,2.17,5.72,4.71,8.18a11,11,0,0,0,5.13,2.63c4.28,1.11,6.1-.74,10.94-.28,2.06.2,3.59.78,6.65,1.94a64.21,64.21,0,0,1,12.06,6.37,102.85,102.85,0,0,1,13,9.15c3.76,3.2,6.12,5.87,10.67,11.08,8.71,10,12.6,15.87,21.33,25.49a84.37,84.37,0,0,0,6.37,6.37,81,81,0,0,0,9.7,7.48c7,4.46,14.38,9.23,22.86,8.45s9-6.35,18.7-6.65c4.78-.14,8.22,1.1,10.39-1.24,1.66-1.79,2.16-5.22,1.39-7.9s-2.48-3.64-1.94-4.85,3.11-1.69,4.85-1c2.81,1.18.59,5.93,3,8.18,2.61,2.39,6.34-1.31,13.58-.56,6.14.64,6.36,3.59,13.3,4.44A24.78,24.78,0,0,0,278.6,372c1.06-.4,3.21-1.3,11.77-8.59,7.26-6.18,7.48-7,10.12-8,5.19-2,7.53.16,12.46-1.1,5.39-1.38,8-5.27,12.75-11.09a201.6,201.6,0,0,1,24.52-24.52c8.67-7.06,14.52-9.94,17.87-11.5A77.16,77.16,0,0,1,382.92,302c10.76-2.53,20.1-2.23,27.7-1.94,13.78.52,16.37,2.45,20.64-.28,3.11-2,3-3.8,9.84-16.21,4.48-8.12,6.78-12.24,9.28-14.82,5-5.14,10.45-6.77,20.23-9.56,10.39-3,22.49-6.41,37.4-3.74,2.62.47,8.77,2.76,21.06,7.34,22.79,8.5,22.89,9.56,31.31,11.64,15.64,3.86,17.46.74,24.94,5,10.7,6.07,8,13,19.25,22.72,12,10.31,18.19,5.06,31.45,15.93.77.63.18.18,18.15,20.78,8.46,9.69,15,17,21.89,16.07,2.19-.31,6.16-1.69,6.79-.56.31.58-.34,1.56-.84,2.08-2.38,2.54-7.57,1.28-9.42.83-9.14-2.21-15.14-11-29.5-25.76-8.54-8.75-11-10.33-13.3-11.5-9.36-4.78-12.52-1-20.37-5s-6.29-8.63-20.5-22.58c-6.83-6.71-9.95-8.33-11.36-9-6.49-3.1-10.94-2.43-19.26-3.46-6.89-.85-12.21-2.55-22.86-6-21.44-6.85-19.52-10.51-29.64-11.49-7.75-.76-15.83,1.71-32,6.65-8.8,2.68-13.25,4.08-15.79,6.64-6.71,6.8-4.11,14.49-11.91,24.25a36.91,36.91,0,0,1-9.56,8.31c-10.84,6.48-18.91,3-33.39,5.68-11.36,2.11-19.4,6.66-24.66,9.7a90.52,90.52,0,0,0-28.67,26.46c-2.68,3.75-5.37,8.14-5.13,8.31s6.57-8.52,7.34-8-4,6.41-8,16.9c-3.55,9.13-4.12,15.06-9.56,18.28-1.86,1.1-4.24,1.87-4.71,1.25-.73-1,3.63-4.61,2.77-6.1-.77-1.31-5.14-.12-6.51.28a49.8,49.8,0,0,0-15.8,8.18c-14.5,10.46-19.36,6.93-23,13.71-3,5.63.9,7-2.36,18.84-2.08,7.57-3.12,11.36-6.09,15.1-2.2,2.77-4.91,5-4.85,8.59,0,2,.88,3.28,1.94,5.13,2.24,3.9,3.83,8.15,5.82,12.19,3.41,7,3.73,13.55,4,19.39.1,2.07.75,17.56-4.29,19.12-1.45.45-3.22-.3-3.88.69s.66,3.2,1.11,3.88c2,3.11,4.17,3.5,10.66,7.76,1.51,1,3,2,5.68,3.88,2.85,2,3.64,2.56,4.16,2.91,5.23,3.5,10.53.76,17,2.35,1.5.37,5.68,3.76,14,10.53,9.48,7.72,11.21,9.26,13.58,11.92,3.56,4,6,6.79,7.48,11.22,2.09,6.2-.3,7.83,1.39,12.61,1.46,4.14,6.72,7.43,17.17,13.85,11.68,7.17,15.37,8.07,17.46,8.45,4.54.83,8.37,1.53,12.53-.07,1.46-.56,2.43-1.21,4.09-1.18,3.57.07,5.13,3.15,7.9,5.13,6.25,4.48,11.51-1.74,20.5,1.8,4.65,1.83,7.84,5.29,11.64,9.42,5.12,5.56,6.34,9.33,10,9.7,1.9.19,3.89-.61,7.89-4.16,7-6.17,9.81-11.58,12.61-15.24,7.11-9.31,17.86-12.51,20.5-13.3,7.65-2.27,18.86-.54,41.29,2.91,5.64.87,11.9,2,18.14-1.24,3.81-1.95,3.24-3.25,9.42-8.59,9-7.79,13.6-8,16.91-14,2.33-4.26.22-5.1,2.35-9.14,3.33-6.3,8.54-5.58,17.32-12.19,7.81-5.88,6-8.2,13.16-12.75,5.44-3.45,7.63-2.84,16.48-6.51,11.58-4.79,9.9-6.69,16.77-8.86,14.77-4.68,21.58,4.38,34.91-1a31.93,31.93,0,0,1,10.67-2.77,23.27,23.27,0,0,1,10.52,1.38c1.53.59,5.5,2.14,8,5.4,5.67,7.3-1.44,16,3,20.78,1.81,2,8.81,1.38,22.72.14,9.26-.82,10.79-1.3,11.91-2.77,3.48-4.52-1.84-12,2.22-18a15.16,15.16,0,0,1,4.45-4.14c1.36-.83,3.61-1.9,4-1.4.21.27-.18.92-.69,1.66-2.36,3.38-4.33,4.26-5.41,5.82-1.4,2-.32,3.88.14,8.59.38,3.83,1.17,12-2.49,15.38-1.27,1.18-2.51,1.27-11.36,1.11-14.62-.26-17.56-.61-21.06-1.39-5.54-1.23-8.31-1.84-10-3.6-5.32-5.62.54-14-4.3-19-4-4.16-12.49-3-17.45-.83-3.47,1.55-3.37,2.81-8,6.23-5.4,4-8.33,4.34-17.87,8.59-8.69,3.88-13,5.81-16.07,8.18-4.83,3.75-5,6-13.58,19.53-2.09,3.31-8.33,13.08-16.48,23.83-5.15,6.78-7.73,10.17-10.12,12.33-8.23,7.42-13.6,7.47-17,14.54a32,32,0,0,0-3,10.53c-.33,4.55.74,7.38-1.11,9.15s-4.15-.05-6.24,1.52c-2.3,1.73-1.25,5.24-1.38,15.93-.09,7-.57,8.53-1,9.56-1.25,3.2-3,4.71-6.51,8.45-5.28,5.65-7.93,8.47-9,10.53-2.53,4.82-2,11.34-1.11,24.38.21,2.8.51,4.83,1.11,8.87,1.55,10.38,2.57,11.28,3.33,11.5,1.66.47,3.16-2.07,6.65-5.27A48,48,0,0,1,581.58,709c10.93-4.59,14.63,2.64,25.76-1.94,3.62-1.49,7.81-4.13,10.95-2.36a21.93,21.93,0,0,1,3.88,3.47c2.19,2.35,2.11,3,2.91,3.46,3.28,1.93,11.88-4.81,17.31-12,5.66-7.56,3-9.17,8-17.88S659,672.94,670.65,658c3.87-4.95,5.81-7.42,6.52-9.42,3.77-10.6-3.57-17.59.83-25.07,3.13-5.33,9.78-6.76,11.22-7.07,5.21-1.11,9.42.38,13.3,1.81,9.25,3.41,9.41,7.28,19.67,11.91,5,2.25,9.23,4.1,14.41,3.19,6-1.06,10.08-5.26,10.39-4.85s-2.26,3.14-5.82,5.12a21.91,21.91,0,0,1-11.36,2.63c-3.93-.15-6.7-1.32-22-10.52-8.21-4.93-11.4-7-15.79-6.24a11.73,11.73,0,0,0-7.34,4.16c-3.73,5,.58,10.06-.84,20.5a39.14,39.14,0,0,1-4.43,13c-2.14,4.26-3.76,5.92-12,16.63-4.76,6.15-7.14,9.22-7.48,9.83-.74,1.33-9.56,17.73-1.94,27.16,5.16,6.38,14.85,5.85,15.38,5.82,7.92-.55,9.62-5.61,24.52-14.83,3.27-2,7.86-4.39,17-9.14,10.69-5.53,16-8.3,19.81-9.56,4.49-1.51,7.31-1.92,24.93-3.88,24.74-2.75,24.41-2.52,25.63-3,14.6-6.25,13.06-18.38,27.43-23.13,9.25-3.06,12.46,1.1,18.84-3.19,6-4,4.42-8.59,12.47-22.16,4.85-8.18,8.5-14.15,15.52-17.32,5-2.28,6-.49,14-2.36,3.65-.85,14.36-3.5,23.41-12.33,7.64-7.45,4.19-13.53,11.5-19,4.35-3.23,8.84-3.87,15.66-4.84,13.66-2,16.07,2.16,24.1-.84,4.21-1.57,2.69-2.37,16.07-11.63,8.78-6.08,11.34-7,12.61-7.48,2.18-.75,5.68-1.68,17.73-1.11a146.26,146.26,0,0,1,26.05,3c10.46,2.23,15.69,3.35,19.94,6.78a37.61,37.61,0,0,1,10.53,14c1.9,4.91,1.44,7.61,4,9.56,3.06,2.31,6.7.76,12.88-.14,4.61-.67,2.88.15,27.3,1.38,12.91.65,13.27.42,16.76,1.11,8.22,1.63,10.12,3.72,17.73,5.13,3,.55,11,2,17.87.27,8.51-2.16,11.51-8.22,23.14-23.13,13.16-16.88,19.75-25.33,28.68-30.48,4.92-2.84,12.61-4.67,28-8.31,26.29-6.24,33.2-4.35,37.4-2.5,1.7.75,11.57,5.12,13.44,13.58,1.19,5.38-1.58,9.14-4.85,16.62-5.18,11.88-2.57,12.43-8,30.21-3.45,11.23-4,9.24-12.47,32-6.52,17.42-8,23.22-7.07,30.61.54,4.42,1.56,12.8,7.76,17.6,7.77,6,14.49-.69,23.83,3.74,12.33,5.85,7.9,21,22,31.17,5.91,4.25,17.45,9.34,24.24,4,6.09-4.77-3.9-17.8,2.22-24.25,5.07-5.33,16.72-2.27,23.27-.55,4.8,1.26,8.36,2.25,10.12,5.4s.08,5.48.13,14c0,5.81.06,10.33,2.22,11.23,2.83,1.17,9-4.06,10.11-6,.08-.13.44-.68.56-.62s-.31,1.72-.7,2.63a11.16,11.16,0,0,1-8.45,6.37c-1.39.21-2.55.38-3.6-.28-2.07-1.28-2-4.7-1.94-8.31.28-15.41-.17-16.61-.83-17.59-2.38-3.6-7.27-4.2-12.61-4.85-3-.37-12.44-1.53-14.4,2.35s5.58,7.83,5,15c-.5,6-6.53,11.06-11.63,13-10.36,4-22.59-2.48-29.23-8.87-7.37-7.09-6.53-12.83-14-17.32-3-1.79-4-1.13-16.9-3-18.42-2.73-20.68-4.4-22-5.68-6.16-5.88-6.12-16-6.1-17.46.1-6.13,2.4-7.65,1.39-12.74-1.09-5.45-4.26-6.49-7.07-11.78-4.73-8.91-2.5-18.73-1.94-21.2,2.39-10.53,10.82-17.47,15.79-21.75,5.8-5,7.94-4.94,9.7-8.72,4.32-9.31-3.49-20.59-4-21.34-2-2.74-6.26-8.8-12.6-9.14-5.74-.31-10.05,4.22-16.77,11.5-11.25,12.19-10.25,17.51-19.25,23.13-1.85,1.16-5.85,2.85-13.86,6.24-9.45,4-11.09,4.18-14.82,6.65-6.76,4.47-6.29,7.13-11.5,10.39-5.44,3.4-10.35,3.25-20.64,3.46-13.34.28-24.38.93-28.81,1.25-18.37,1.31-35.19,4.15-35.19,4.15a59.78,59.78,0,0,1-16.63,1.11,56,56,0,0,1-15.37-3.6c-8.8-3.47-9.19-6.31-18.43-10.11-5.06-2.09-8.92-3.68-14.13-3.74-11.86-.15-20.55,7.74-21.75,8.86-7.06,6.6-5.14,10.88-14.13,19.95-4,4.08-6.17,6.23-10,7.76-7.23,2.91-11-.21-21.33,2.63-3.34.93-6.28,1.74-9.56,4-5.87,4.08-6.27,8.3-12.47,13.85a42.3,42.3,0,0,1-9,6c-13.77,7.85-20.08,22.49-22.72,27.85-5,10.13-3.73,13.1-9.28,19.67-3.26,3.85-5.68,5.16-8.18,10-3.36,6.47-4.33,14.35-2.63,15.1.82.36,2.14-1,3.32-2.21,4.5-4.63,3.65-8.63,7.62-11.5,1.21-.88,3.54-2.13,4.44-1.39,1.95,1.63-3.93,11.93-4.71,13.3-4,7.09-5.83,7.3-6,10.67-.16,4.16,2.51,5.27,2.08,10.67-.2,2.55-.92,3.88,0,5.54.53,1,1.93,1.76,4.71,3.32,2.48,1.4,3.73,2.09,4.71,2.22a7.62,7.62,0,0,0,6.09-1.94,8.47,8.47,0,0,0,2.22-5c.71-4.07,2.48-14.12,7.62-16.76,1.87-1,4.71-.5,10.39.41.92.15,2.62.46,2.77,1.25.2,1-2.52,1.63-2.91,3.6-.23,1.21.6,2,1.8,4.16a53.43,53.43,0,0,1,2.36,5.54c2.39,6.17.83,16.27-3.6,18.15-1.34.56-2.82.33-3.33,1.38-.66,1.37,1,3.44,1.25,3.74,1.5,1.87,3.6,2.76,13.85,4.16,6.67.91,8.32.89,9.42-.28,1.5-1.58,1-4.23,2.77-4.85a2.46,2.46,0,0,1,2.36.42c.57.59.29,1.34.69,1.52.62.3,1.68-1.36,3.46-2.77,1.24-1,2.85-2.25,4.71-2.21,2.71,0,4.93,2.85,6,4.15,1.27,1.6,1.34,2.42,2.77,3.47s2.49.92,2.91,1.8c.77,1.6-1.07,4.88-2.91,5-1.68.09-2-2.54-5.4-4.16-1.19-.57-3-1.41-4.16-.69-2.07,1.22-.14,5.61-2.77,7.75-.89.73-1.4.47-2.91,1.67a4.85,4.85,0,0,0-2.21,3,3,3,0,0,0,.55,2.36c1.52,1.61,5.17-.37,6,.83.53.81-.64,2.42-.7,2.49-2.14,2.91-5.78,1.25-9.14,3.33-3.77,2.34-4.72,7.87-4.57,11.08.09,1.93,1.26,4.52,3.6,9.7a48.94,48.94,0,0,0,3.6,7.06c2.39,3.72,3.39,3.84,5.13,6.93a27.5,27.5,0,0,1,2.77,7.62c1.57,6.57.17,8.5,2.22,11.08s6.13,4,7.75,2.64c1.12-.91,1-3,.7-4.3-1-3.77-4.63-3.79-6.51-8-.82-1.85-1.4-4.73-.14-5.82.95-.82,2.59-.34,3.74,0s3.81,1.29,8.45,6.51c2.15,2.42,2.82,3.64,3.19,3.46.56-.26-.49-3.29-2.78-12.33a25.14,25.14,0,0,1-1.1-5.68c-.16-3.79,1-4.42.69-7.75-.32-3.75-1.95-5.2-1-6.52.82-1.1,2.79-1.19,4.16-.69a4.2,4.2,0,0,1,2.77,3.6c0,1-.5,1.17-.7,2.22a5.85,5.85,0,0,0,2.08,5.13c2.32,1.89,4.41-.11,7.34,1.66a6.9,6.9,0,0,1,3.33,5.12c.2,3-2.37,5.15-1.94,5.55s3.52-4,7.48-3.88c3.52,0,5.12,3.63,7.48,2.77,1.08-.4,1.6-1.47,2.63-3.61.89-1.82,1.7-3.49,1.39-5.4-.24-1.44-.91-1.8-3.33-5a55.26,55.26,0,0,1-3.6-5.26c-.63-1.09-3.61-6.2-2.63-7.06s5.82,4.64,15.38,8.86c4.05,1.79,9.5,3.56,10.11,2.5s-2.85-4-3.19-4.3c-2.57-2.29-3.6-1.91-4.57-3.6a7.46,7.46,0,0,1-.27-6.1c.45-1.18.78-1.07,1-1.8.59-2.28-2.47-4.22-9.28-10.8-3.47-3.36-4.25-4.38-6.51-5.55s-4.38-1.68-4.29-2.21,1.79-.23,4.57-1.11c1.71-.54,2.75-.87,3.46-1.8a5,5,0,0,0,0-5.54c-2.3-3.18-9.11-1.78-9.14-2.36,0-.34,2.29-.62,5.54-2.08,2.26-1,2.44-1.44,2.49-1.66.46-1.8-3.94-3.31-3.88-5.68.06-2,2.57-4.17,4-3.74s1.15,3.39,3.74,9.28c1.19,2.69,1.67,3,2.08,3,2.1.1,4-8.26,4.3-8.17s-.94,4.11-1.53,9.42c-.31,2.86-.46,4.32-.14,5.82.53,2.42,1.81,4.22,4.85,7.48,4.75,5.08,5,4.32,7.9,7.62,4.28,4.91,6.42,7.36,7.89,11.08.46,1.14,1.09,3,2.78,3.74,1.48.66,3.66.42,4.29-.69,1.18-2.07-3.54-6.31-2.63-7.35.66-.75,3.22,1.5,5.4.42a3.52,3.52,0,0,0,1.94-3.46c-.68-2.93-8.12-2.91-8.17-4.71,0-1.11,2.77-1.91,2.63-2.36-.24-.74-8,1.55-8.59.14-.22-.49.63-.95,1.39-2.63.31-.7,1.49-3.35.55-5-1-1.8-3.58-.62-6-2.77-1.32-1.19-2.41-3.25-1.8-4.29,1.12-1.91,7.67,0,8,.13,5.18,1.58,7.08,4.23,8.59,3.33s1-4.41.69-6.23c-.34-2.2-.82-5.31-3.19-6.93-1.71-1.18-2.85-.49-5.54-2.08-.21-.12-3.06-1.82-2.77-2.63.44-1.26,7.62,1.94,10.67-1.11a5.54,5.54,0,0,0,1.11-5.13c-.67-2.5-3-3.63-5.82-5-2.24-1.08-6.41-3.09-8.59-1.39-1.54,1.19-1.32,3.61-2.5,3.74a1.88,1.88,0,0,1-1.66-1.25c-.75-1.86,1.73-4.43,5.82-8.58,3.12-3.17,3.86-3.34,4.43-3.33s1.56.29,6,5.27c2.18,2.46,2.34,2.81,3.88,4.43,2.41,2.53,2.67,2.35,4.16,4,2.17,2.43,4.53,5.08,4.15,7.89-.33,2.47-2.42,2.34-3.18,5.13-.4,1.42-.07,2.23,2.07,8.86a49.79,49.79,0,0,1,2.08,7.76c.78,4.88.09,7.63.69,7.76s2.74-3.68,3.33-8.17c.52-3.94-.45-4.94-.56-11-.09-5.23-.1-7.87,1.53-8.86,2.19-1.34,6,1.1,7.76,2.63,2.41,2.12,1.43,3.72,3.88,6.65.69.83,3.88,4.64,7.34,4a6.2,6.2,0,0,0,3.74-2.77c3.18-4.83-.57-11.84-2.91-16.21a5.36,5.36,0,0,0-1.52-1.94c-2.83-2.13-6.89,0-7.49-1s2.71-2.79,5.13-6.1c2.22-3,1.89-4.74,4.85-19.53.28-1.41.71-3.5,1.38-6.24,1.73-7,2.94-9.33,4.71-11.22.47-.49,3-3.17,4.44-2.49,1.59.74.88,5.13.83,5.4-.45,2.65-1.54,3.75-2.63,6-1.53,3.08-.81,3.75-2.22,10.39-1.56,7.34-3,8.93-1.94,10,1.75,1.8,7.87-.84,11.78-3.46,6-4,8.77-9.28,10.52-8.45a2.08,2.08,0,0,1,.84,1.8c0,2.56-3.82,4.11-12.47,9.14-5.47,3.19-6.47,4-7.21,5.55-1.68,3.44-.49,7.28,0,8.86.54,1.74,2.09,7.53,5.27,7.76,1.82.13,3.75-1.6,4.57-3.33,1.34-2.82-.7-4.83,1-7.2.63-.89,1.05-.79,2.77-2.77,1.12-1.29,1.56-2,1.8-1.94s-.24,1.92-.69,4.71c-.53,3.21-.79,4.81-.28,6.51.09.29,1.13,3.6,4,4.71,4.48,1.73,9.29-3.43,9.7-3.88,2-2.18,4.8-6.55,3.32-9.69-1.25-2.67-4.87-2.95-4.71-4.44.11-1,1.89-1.91,3.46-1.94,2.79,0,4.13,2.68,5.41,2.08,1-.45,1.15-2.44.83-3.88-.61-2.66-3.1-3.88-2.77-4.43s2.6,1,5.68.41a5.08,5.08,0,0,0,3.18-1.38c2.17-2.52-1-7.48.7-8.73,1-.7,2.15.7,3.88,0,2.2-.88,2.74-4.13,2.77-4.29.65-4.21-3.08-7.07-2.22-8s4.12,2.18,10.53,3.05c.61.08,2.36.3,2.35.55s-3.16,0-5.95,1.8c-.63.42-2.26,1.49-2.5,3.19-.18,1.28.61,1.61.83,3,.46,2.93-2.38,4.23-1.93,6.51s3.63,3.29,4.15,3.46a9.38,9.38,0,0,0,8.73-1.8c1.24-1.09,1.63-2.16,2.49-2.08,1.16.12,2.35,2.23,1.8,3.47s-2.44.74-6.23,1.94c-3.61,1.14-3.13,2-5.26,2.21-1.41.17-1.92-.16-8.32-1.66-1.83-.43-3.31-.76-3.46-.41s1.93,1.14,3.19,3.32c.16.28,1.66,3,.69,4.3-1.35,1.88-5.94-1-8.31,1.24a5,5,0,0,0-1,4.71,6.13,6.13,0,0,0,2.63,3.33c2.06,1.46,4.19,1.53,4.15,1.8,0,.44-5.52-1-8.31,1.66-1,.93-1.86,2.6-1.38,3.88.66,1.81,3.58,1.53,4,3.19.3,1.14-.76,2.49-1.66,3.18-1.6,1.23-3.14.68-7.2,1.11-1.89.2-2.27.4-4.16.69-7.17,1.13-9-.53-14.54.56-2.84.56-7.56,1.49-8.59,4.71-.71,2.21.59,4.72,1.94,6.09,2.26,2.31,5.43,2.25,7.06,2.22,4.14-.08,4.34-1.93,8.73-2.63,5.58-.9,8.19,1.63,10.53-.42,1.61-1.41,1.22-3.34,3.18-4.15a6.88,6.88,0,0,1,3.88,0c2.35.4,2.64,1,3.74,1.1,3.32.27,4.33-5,8-5.81,4.05-.95,9.49,3.75,9,6.37-.41,2.25-5,1.8-7.06,5.82a6.91,6.91,0,0,0-.69,4.57c.58,2.51,2.47,2.47,4.57,5.68,1.95,3,1.21,4.43,3,6.09,1.59,1.44,3.53,1.63,5.68,1.8,7.36.61,11.54-2.84,15.37-1a5.37,5.37,0,0,1,2.5,2.36c.09.19.87,1.78.27,2.49s-2.35-.22-4.71-.55c-4.44-.63-5.06,2-10.25,1.94-3.13,0-4.62-1-6.37.14a4.06,4.06,0,0,0-1.8,2.77c-.19,2.43,2.87,4.49,5.26,6.09,4,2.69,6.39,2.82,6.51,4.3s-1.78,3.06-3.46,3.05c-1.48,0-1.85-1.33-4-2.5s-5.28-1.75-6.09-.69,1.67,2.66,2.63,7.2c.7,3.35-.13,4.93,1.38,6.93,1.22,1.6,2.79,2,2.64,2.49s-2.87,1.06-5,0c-2.68-1.33-4-4.73-4.16-7.34-.16-2.38.65-3.43,0-4-1.64-1.49-8.7,3.58-8.86,3.33s5.19-2.3,6.23-6.51a8.84,8.84,0,0,0-3-8.45,5,5,0,0,0-1.24-.7c-2.34-.88-4.66.29-4.71.14s4.23-1,7.2-4.15a9.09,9.09,0,0,0,2.49-5c.12-.92.39-3-.83-4.29s-2.5-.35-4.85-1.25c-1.68-.64-1.72-1.37-5.26-4.71-4.21-4-5.1-3.83-5.4-3.74-1.49.41-2.25,3.1-2.22,5.12.05,3.41,2.34,5,1.52,6.24-.66,1-3,1.1-4.15.14-1-.81-.58-1.83-1.39-4.16-.5-1.45-1.4-4.07-3.6-5a4.94,4.94,0,0,0-4.57.42c-2.42,1.75-.91,5.14-3.33,6.93a4.73,4.73,0,0,1-4.71.41c-1.75-.93-1.21-2.72-3-3.88a5,5,0,0,0-5.55.28c-1,.92-.63,2-1.52,2.35-1.15.51-3.22-.62-3.6-2.07-.34-1.29.84-2.13.41-2.77-.55-.86-2.7.43-5.95.13-2.8-.25-4-1.46-4.44-1-.74.8,1.42,5,5,8,4.09,3.5,9.19,4.82,13.58,6,3.32.86,5.28,1,7.76,2.77,1.66,1.17,2.08,2,4,2.91,2.87,1.29,5.08.83,5.27,1.66s-1.3,2-2.91,2.35c-.93.24-2.68.39-7.76-2.63-4.36-2.59-4.61-3.61-6.65-3.88-3.33-.43-6.89,1.78-6.79,3.19.15,2,7.74,2.41,7.9,5,0,.66-.46.8-.69,1.94a6,6,0,0,0,1.24,4.71c.43.51,1.77,1.91,11.09,2.07,4,.07,3.53-.19,5,0,5.58.74,10.9,4.39,10.53,6.79-.19,1.27-2,2.22-2.49,2.5-1.69.9-2.54.37-3.19,1-2,1.81,3.72,8.83,1.94,10.94-1.31,1.56-6.81.55-9-2.77-2.89-4.36.69-11.56,0-11.78-.48-.14-1.33,3.65-4.85,6.51-1.2,1-1.42.79-2.77,1.94-3,2.54-3.49,4.74-4.44,4.58-1.26-.22-1.66-4.33-1.8-5.68-.32-3.25.27-4.57-.83-6.38-.25-.41-.35-.45-2.21-2.21-3.6-3.39-4.07-4-4.71-3.88-1.6.37-1,4.74-2.22,5-1.57.31-5.33-6.46-3.33-9.43.6-.87,1.47-1.08,1.39-1.66,0,0-.11-.8-6.37-2.08a7.91,7.91,0,0,1-1.39-4.84c.15-2.06,1.22-2.94.69-4.58a4.73,4.73,0,0,0-2.21-2.49c-1.2-.59-1.69-.07-2.36-.55-1.56-1.13.45-4.46-1.11-6.24-1.16-1.33-4-1.37-5-.28-.73.78-.2,1.76-1.11,2.78-.75.82-1.35.45-2.36,1.1-1.83,1.2-1,3.22-2.91,5.27-1.28,1.38-1.95.78-2.77,1.94-1.67,2.36.6,5.61-.69,6.65-.72.58-1.69-.26-3.6-.56-3.11-.48-5.66,1-9.42,3.05-3.91,2.19-6,3.38-6,5,.1,2,3.51,3.57,6.1,3.88a11.19,11.19,0,0,0,10-4.3c.83-1.19,1.06-2.22,1.94-2.35s1.69,1.06,4.3,4c1.59,1.81,3.33,3.49,5,5.26a4,4,0,0,0,1,1.25c2.31,1.9,5.48-.58,8.87.41s5.8,5.3,5,6.65c-.54.89-2.25.24-7.35,1-3,.43-3.4.8-3.6,1.11-.95,1.46,1,3.73,2.63,7.9,2.14,5.49,2.26,6.5,1.81,7.2a4,4,0,0,1-4.3,1.11c-3.27-1.11-5-7.08-4.16-11.5a7.86,7.86,0,0,0,.42-3.32c-.29-1.76-1.37-2.93-3.32-5s-3-3.11-3.75-3c-2.4.2-2.34,5.85-5.26,6.51,0,0-1,.22-6.51-3.19a5,5,0,0,0-.69,2.5c0,3.57,4.52,5.84,4,6.79-.28.53-2,.36-3.6-.28-3.22-1.3-3.55-3.65-6.65-6.79-1.12-1.13-5.6-5.67-9-4.43a4.82,4.82,0,0,0-2.77,3.46c-.66,3,2,5.8,2.77,6.65,1.77,1.89,2.91,1.83,3.18,3.05.39,1.72-1.69,2.71-3.6,5.68-.26.4-4.08,6.51-2.08,11.08,1.32,3,4.36,3.59,4,4.57-.4,1.18-4.93.92-8.45-.41-1.8-.68-3.35-1.27-4.16-2.77-1.15-2.15.43-3.86-.13-6.24-.66-2.78-3.69-5.48-6.51-5.54-3.06-.06-4.38,3-7.35,2.36-1.58-.36-2.34-1.51-3-1.11-1.1.62.41,3.59-.83,4.71-1,.9-2.84-.23-7.34-1.39-4.32-1.1-6.63-1.67-7.76-.55-1,.95-.59,2.85.14,6.65.82,4.22,1.79,5.17,1.53,8-.16,1.73-.58,2.1-.28,3.19.46,1.66,1.93,2.57,4.85,4.16,5.93,3.23,6.11,2.9,7.48,4,2.77,2.26,5.24,6.25,4.15,8-.61,1-1.94.63-8.58,1.38-4.24.49-3.92.67-4.72.56-4.08-.57-6.69-4.49-10-9.42-2.12-3.19-3.19-4.79-3.88-7.21-.79-2.76-.56-4.44-1.94-5.4a4.77,4.77,0,0,0-5.54.69c-1.77,1.73-1.29,4.73-.69,8.45s1.4,4.33,1.94,8.32c.38,2.8.57,4.2.14,5.68-1.52,5.24-8.7,7.7-9.29,6.92s6-5.22,4.85-9a3.87,3.87,0,0,0-2.35-2.36c-.7-.23-2.16-.47-6,2.08a38.14,38.14,0,0,0-5.13,4.3c-4.11,3.76-7.5,6.86-10,6.09-2.78-.87-1.74-5.85-4.85-7.2-2.8-1.22-7.69,1.08-9.42,5.12-.76,1.78.53,4.8,2.91,10.67,2.92,7.2,3.92,8,4.57,8.45,3.77,2.52,8.71.68,9,1.94.19.8-1.69,2.06-2.91,2.63-2.07,1-3,.39-3.88,1.25-1.37,1.39.62,3.52-.42,5.68-1.17,2.44-4.38,1.08-8.73,4.43a21.7,21.7,0,0,0-3.74,3.88,17.6,17.6,0,0,0-2.49,4c-1.35,3.33.35,4.09-.41,8.59a18.66,18.66,0,0,1-4.13,8.78c-.48.54-.47.46-.86.92-3.32,3.82-2.45,8-4,15.37a36.55,36.55,0,0,1-1.8,6.38c-2.13,5.45-3.95,5.87-4.85,9.83a19.76,19.76,0,0,0,.42,9c.83,3.89,1.33,6.18,3.18,8,5.24,5.23,15.81,1.43,17,1a13.45,13.45,0,0,0,4.71-2.49c4.13-3.64,2.71-8,6.51-10.53,1.81-1.23,2.25-.32,6.38-1.8a30.12,30.12,0,0,0,7.75-4.16c6.24-4.51,6.4-8.2,10.53-8.86,2.7-.43,3.55,1,5.41,0,2.06-1.11,1.71-3.23,4.29-7.9,1.55-2.79,2.52-4.49,4.43-5.4,2.34-1.11,3.84,0,6.65,0,4.57,0,5.24-3,13.3-7.62,6.43-3.66,8.39-3.1,11.64-6.51,1.76-1.85,2.56-3.46,4.43-7.48,5.23-11.23,7.83-17.6,12.33-24.8,1.89-3,3.47-5.16,6.1-6.93,3.29-2.21,5.1-1.76,8.73-3.46a24.8,24.8,0,0,0,10-9.15c4-5.95,1.74-8,5.4-15a34.26,34.26,0,0,1,10.12-11.77,27,27,0,0,0-2.64,3.6A25.64,25.64,0,0,0,1055,907c-2,4.8-5.29,13.29-7.62,18.57-2.11,4.79-3.16,7.19-4.29,8.31-3.29,3.27-5.91,2.58-12.47,6.51-3.78,2.26-5.85,3.51-7.48,6-2.74,4.12-1,6.79-1.94,14.27-1.35,10.35-5.54,11.37-5,19.25a19,19,0,0,0,4.16,11.23,18.14,18.14,0,0,0,16.48,6.09c5.79-1.09,7.85-5.36,15.38-14.68,3.49-4.32,15.84-19.61,31.31-32,5.5-4.4,8.29-6,12-10.66,4.26-5.32,5.16-8.93,10.81-14.27,3.16-3,4.74-4.48,7.06-5.68a27,27,0,0,0,6.1-3.6c1.66-1.39,2.59-2.19,2.77-3.47.33-2.37-2.39-3.2-2.22-5.95a6.34,6.34,0,0,1,2.5-4.16c1-.73,1.66-.37,2.08-1,1.07-1.56-2-5-1.39-5.54s2.3,2.13,4.85,2.21c2.85.1,6.28-2.9,6.37-5.81.1-3.33-4.22-4.47-3.88-7.48.31-2.72,4.17-4.93,5.41-4.16s-.72,3.57.69,7.9c.32,1,1.24,3.8,3.32,4.29a4.34,4.34,0,0,0,3.33-1c4.46-3.2,2.36-9.82,5.68-11.36,1.87-.87,4.25.45,5.4,1.52,3.08,2.9,2.46,9-.14,10.39-1.11.59-2.58-.05-2.63.14s4.74.71,5.54,3c.55,1.59-1.25,2.67-3.35,6.92a1.17,1.17,0,0,1-.67.7c-1.14.31-2.75-2.37-2.9-2.63-1.57-2.64-1-4.17-1.81-4.57-1.76-.82-7.45,4.16-6.65,8.17.59,2.91,4.38,4.27,4.16,4.71s-4.61-3.45-10.39-3.6c-1.08,0-5.11-.13-6.37,2.08-1.18,2,1.24,4,.27,6.37s-3.83,2.28-8.45,4.29a34,34,0,0,0-9.14,6c-1.3,1.25-1.48,1.72-7.76,12.19-2.67,4.46-4.05,6.73-6.37,8.59a23.15,23.15,0,0,1-6.51,3.46c-4,1.7-7.62,5.62-15,13.44-4.94,5.26-8.72,9.29-12.89,15.52-2.25,3.37-2.85,4.74-6,9.14-4,5.69-6,8.53-8.73,10.67-1.31,1-6.91,5.43-14.41,5.54-6.66.09-7.62-3.31-18-5.4-4.87-1-8.71-1.76-13-.56-5.28,1.47-8.26,5.07-13.44,11.64-10.52,13.36-15.78,20-19,25.35-11.7,19.48-9.87,24.89-9.14,26.46a21,21,0,0,0,5,6.51,19.52,19.52,0,0,1,4.85,2.91c2.08,1.72,3.44,3.6,5.55,7.35,4.79,8.5,4.47,10.68,7.06,11.77a7.82,7.82,0,0,0,7.9-1.52c2.73-2.59.73-5.65,3.32-10.53.35-.66,2.67-4.88,6.93-6.51,3.36-1.29,6.7-.49,13,2.08,16.59,6.72,19.36,7.7,19.4,9.69s-2.15,2.76-1.67,4.57,3.29,2,7.07,4.3c2.89,1.73,2.28,2.28,5.82,5,3,2.28,9.13,7,14,5.12,1.49-.57,1.28-1.16,2.63-1.52,3.91-1,9.14,3,11.92,7.34s1.74,7,5,9.56c1.39,1.11,2.69,1.53,5.27,2.35a24,24,0,0,0,9.42,1.39c2.46-.16,5.74-.38,8.59-2.49,3.2-2.38,2.44-4.64,5-7.76,4.09-5,11.92-6.39,17.46-5.54,4.73.72,4.12,2.5,11.91,4.71a47.41,47.41,0,0,0,12.47,1.8c5,0,7.54.15,9.7-1.39,3.45-2.45,4.12-7,4.57-10.11a22.69,22.69,0,0,0-.55-9.14c-1.1-4.07-2.48-4.27-5.27-10-4.71-9.65-4-13.63-3.74-14.68.53-2.36,1.78-4.66,2.08-4.57s-.07,1.12.14,2.91a13.21,13.21,0,0,0,.55,2.49,18.1,18.1,0,0,0,2.5,5c1.93,2.73,3.66,7.46,5.68,13,.81,2.24,6.91,19-1.39,28.4-3.16,3.58-8.61,6.3-13.71,6-1.29-.08-1.25-.27-6.38-1.66-3.24-.87-7.85-2.12-12.46-2.91-7.67-1.31-11.5-2-13.44.14-1,1.13-1.16,2.58-.56,9.15.68,7.35,1,11,1.67,14,1.46,6.63,2.76,12.56,6.92,18.7,3,4.4,5.12,5.51,6.38,9.84a20.54,20.54,0,0,1,.13,10c-2.38,12.58-7.33,19.29-11.36,30.76-2.21,6.3-6.14,11.32-4,15.93a8,8,0,0,0,2.63,3.18c2.49,1.75,5.6,1.64,13,0,7.9-1.74,7-2.2,10.81-2.77,5.91-.89,11-.2,16.62.56,6.42.86,7.16,1.63,9.7,1.1,4-.81,7.64-5.78,10.8-9.42a8.46,8.46,0,0,1,2.77-2.35c3-1.46,5,.19,6.52-1.11,1.75-1.46-.16-4.1,1.66-7.06,1.63-2.66,4.07-2,4.85-3.88,1.66-4-7.89-10.54-6.65-12.47.67-1,3.73.51,9.28.55,4.37,0,6.56.34,7.34-.83,1.33-2-2.55-5.09-2-9a15.68,15.68,0,0,0,5.59,5.53,13.28,13.28,0,0,0,4.85,1.52c2.51.33,4.49-.06,16.35-5.82,3.59-1.74,5.66-2.79,6-4.71.22-1.41-.76-1.8-1.39-3.88-1-3.18.33-6.23,2.91-12.33,1.42-3.34,1.92-3.73,2.36-3.74,1.35,0,1.22,3.63,4.57,7.49,1.59,1.83,3,2.58,2.77,3.74-.27,1.51-2.88,1.57-3,2.9-.11.89.93,1.66,4.71,4.3,4.17,2.91,5.06,3.48,5.4,4.71.41,1.46-.34,2.52-1.38,4.85-2.67,5.94-1.16,6.48-3.19,10.25-.57,1.07-1.13,1.83-8.31,8.87-3.68,3.6-3.65,4.42-5,4.85-4.65,1.47-8.26-4.13-11.08-2.64-2.54,1.34,0,6.05-3.33,13.16-1.54,3.26-2.69,3.55-3.46,6.65-1,4.21.51,5.85-1,8-1.32,1.94-3,1.27-8,3.6-3,1.38-5.6,2.58-7.48,5-2,2.57-4.09,6.9-2.5,9.42,1.07,1.68,2.86,1.13,4.16,2.77,2.05,2.59.15,7.19-.56,9.14-1.89,5.22.26,3.35-1.38,21.2-.62,6.78-1,10.21-1.94,12.19-1.19,2.38-3,4.69-4.85,9.56a22.4,22.4,0,0,0-1.25,3.74c-.83,4.82,2.71,8.57,9,16.76,8.55,11.12,8.38,12.48,11.5,13.58,4.09,1.44,8.12.42,14.68-1.25a52.33,52.33,0,0,0,10.81-4c7.55-3.89,9.74-7.66,16.21-13.3,5.53-4.82,5-3,23.69-15.1,9.27-6,14-9.07,17.17-12.19,5.68-5.53,8.7-10.63,13.58-18.84,4.47-7.53,5.08-10,12.61-23.69,0,0,2.21-4,5.4-9.56,14.9-25.91,26.13-40.14,38.1-63.31,4.24-8.21,2.8-6.56,10.66-23,9.07-19,16.27-32.54,17.88-35.61,13.7-26.14,19.5-47.46,37.12-88.38,33.42-77.6,56.35-102.62,67-113.33a236.43,236.43,0,0,1,22.72-20l43.51-.55,44.6,4.71,26,1.66,55.69-36,54-27.43,31-16.07,39.62-57.9c6.35,3.12,8.88,6.36,10,8.86.38.88,1.2,3.07,2.77,3.33,1,.16,1.51-.56,3.18-1.53s1.91-.74,6.65-2.35,4-1.65,5-1.8c4.43-.68,5.7,2.13,10,1.8,3.78-.3,3.74-2.57,7.34-2.77,1.22-.07,2.41.13,9.56,3.88,5.1,2.67,5.74,3.22,8.72,4.57,3.83,1.72,5.74,2.58,7.62,2.77,2.92.29,6.19-1,12.61-3.46,4.93-1.93,6.52-2.89,9.7-2.91a10.45,10.45,0,0,1,6.09,1.38c2.39,1.56,1.8,3.06,4.85,7.62,3.54,5.29,6.63,6.71,7.48,7.07a28.14,28.14,0,0,0,2.91.83c6.77,2.19,7.47,7.62,14.27,10.53a11.2,11.2,0,0,0,6.1,1.24c4.08-.52,4.68-3.58,9.69-7.2,5.92-4.28,14-6.46,15.24-6.79,2.35-.62,5.18-1.16,7.07-3.6,1.32-1.71,1-2.89,2.35-3.74,1.85-1.2,4.1,0,8.32,1.24,5.82,1.66,5.56.43,10.53,1.94,2.32.71,5.05,2,10.52,4.71,5.75,2.81,7.13,3.75,9.56,3.47s2.81-1.44,6.38-2.77c3.38-1.27,4.9-.92,9.14-1.53,3.56-.5,7.17-1.72,14.41-4.15,8.47-2.86,9.37-3.76,10-4.57,1.21-1.65.6-2.12,2.63-10.39,1.19-4.83,1.94-6.92,3.88-8.32a6.56,6.56,0,0,1,3.88-1.38c3.43.06,5.05,3.57,8.73,6.92,2.41,2.2,5.21,3.45,10.8,6,9.12,4.09,13.67,6.13,16.21,4.44,4.43-3-.3-12.64,6-18.29,1.68-1.52,2.63-1.38,4.16-3.33,1-1.28,1.85-3,3.32-10.53,1.07-5.52.65-4.77,1.11-6.09,1.37-3.93,3.4-5.62,3.6-9.56,0-.17.12-2.59-.55-2.77s-1,1.17-2.5,2.49c-.8.69-2.28,2-3.88,1.8-2.05-.21-3.24-2.69-3.87-4-.54-1.12-1.85-3.84-.7-5.68.75-1.2,2.17-1.46,2.08-2.22s-1.25-.67-1.52-1.39c-.59-1.57,3.55-5.56,5.68-4.71,1.68.68,1.3,4.05,2.77,4.3.73.12,1.22-.65,2.35-1.52a10.9,10.9,0,0,1,5.54-2.22c2.31-.14,2.25,1.26,9.29,5.4,1.33.79,2.46,1.4,2.77,2.63.47,1.86-1.25,3.73-1.39,3.88-1.52,1.62-2.92,1.14-4.29,2.63a6,6,0,0,0-1.39,3.75c-.16,3.31,2.39,5.74,5.82,9,2,1.85,2.83,2.21,3.6,2.36,1.43.26,2.07-.32,5.13-1.39,5.09-1.79,6.1-1.18,7.2-2.63s.84-2.74,2.36-3.6a3,3,0,0,1,1.94-.42c1.25.17,2.52,1.24,2.49,2.22,0,1.4-2.72,1.36-3.32,3.18s1.73,2.59,2.07,5.82c.27,2.53-1,3.75,0,5.4a4.71,4.71,0,0,0,2.08,1.67c6,3.28,7,5.48,8.87,4.85s1.64-2.75,3.05-2.78c1.06,0,2.08,1.21,3.6,3,1.12,1.36,1.19,1.78,1.8,1.94,1.28.35,1.83-1.24,4-1.8s3,.79,4.71,0,1.8-2.61,3-2.63c.86,0,1.14.82,1.94,1.25,2,1,5.35-1.28,9.15-4.58,7-6.09,6.63-7.9,9.14-8.17,3.51-.37,5.45,3.05,10.67,2.49a11.49,11.49,0,0,0,2.91-.69q.48-22.31,1-44.61c4.61-3.64,4.89-6.54,4.85-7.75a31.17,31.17,0,0,0-1.25-4.58s-.47-1.52-1.8-5.4q-.08-23.68-.14-47.38-2.49-9.13-5-18.29,1.59-19.8,3.19-39.62,3.18-26.8,6.37-53.61c.63-.9,4-5.86,2.36-11.22a12.12,12.12,0,0,0-2.5-4.3,15.2,15.2,0,0,0-8.86-5.12c-.61-.09-2.16-.11-5.27-.14-2.86,0-3,0-4.29,0a29.41,29.41,0,0,1-8.59-1.25c-.83-.27-2.58-1.15-6.1-2.91s-4.15-2.19-6-2.77-2.36-.47-5-1.11a54.66,54.66,0,0,1-6.1-1.94c-5-1.9-15.72-6-18.7-14.4-.95-2.68-.87-5.11-3-6.51-2.41-1.56-5.63-.6-5.82-1.39s3.58-1.43,4.3-3.88-1.81-5.07-2.5-5.82c-2.3-2.51-3.75-1.84-4.71-3.6-1.6-3,1.85-6,.42-9-.53-1.11-1.83-2.4-5.26-3.05a31.34,31.34,0,0,0-8.32-3.74c-6.5-1.84-9-.18-17.45-1.11-5.8-.64-13.09-1.43-15.52-6.1-.27-.52-.55-2.56-1.11-6.65-.89-6.54-.73-7.83-1.94-10a10.66,10.66,0,0,0-4.84-4.71c-2.62-1.13-3.78,0-7.35-1.25-2.52-.86-2.28-1.53-4.71-2.35-3-1-3.84-.13-7.76-.69-1-.16-3.38-.89-8-2.36-4.88-1.54-5.58-1.87-6.93-1.52-2.13.55-2.51,2-5.12,2.35a7.24,7.24,0,0,1-3.88-.41c-1-.43-2-1.17-3.6-3.47a22.48,22.48,0,0,1-4-8.59c-1-4.57.52-4.93-.69-7.62-1.72-3.8-5.4-4.54-5.13-6.92.15-1.32,1.28-1.25,2.22-2.91,2.15-3.86-1.87-7.92,0-10.67.93-1.37,2.75-1.56,6.37-1.94,5.52-.57,6.78,1.07,9.42-.14,1.82-.83,3-2.91,5.26-7.06a57.13,57.13,0,0,0,3.74-8.45c1.89-5.14,1.38-5.34,2.22-6.65,1-1.54,3.3-3.78,17-4.58,4.19-.24,13.55-.58,22.58-1.93a9.8,9.8,0,0,0,5.4-2.22c2.11-1.91,2.57-4.47,3.47-9.42.65-3.59,1-5.41.14-7.07-.49-1-1.72-2.06-4.16-4.15-3.14-2.71-3.93-3-4-4-.19-2.19,3.26-4.14,4-4.57,2-1.14,3-1,7.48-1.8,6.29-1.19,7.82-2.18,10.25-1.11a5.72,5.72,0,0,1,3,2.77c.78,1.81-.2,3.08-.55,5.54-.56,3.89.7,9.08,3.74,10.39a5.55,5.55,0,0,0,4.29-.28c1-.49,1.75-1.26,3.47-4.15a52,52,0,0,0,2.77-5.13c3.9-9,3.25-11.44,6.23-14.13.26-.24,3.78-3.35,6.23-2.22,2.1,1,2.26,4.52,2.36,6.65.23,5-1.52,11.37-5.09,14.72a36,36,0,0,0-3.22,3.57c-1.64,2-2,2.6-1.94,3.33.06,1.7,2,2.88,2.77,3.32,2.61,1.57,5.32,1.53,8,1.39,7.24-.39,10.85-.58,12.06-1.39,5.27-3.55,2.53-10.49,9.14-15.79,2.81-2.26,4.84-2.23,5.26-2.22,1.15,0,2.67.45,7.62,5.68,5.57,5.89,8.36,8.83,9,11.64a6.63,6.63,0,0,0,1.94,3.74,6.3,6.3,0,0,0,3.18,1.38,8.19,8.19,0,0,0,4.44-.55c4.72-1.81,7.48-6.94,9.14-10.11a57.68,57.68,0,0,0,3.19-7.76,78.11,78.11,0,0,0,2.77-8.31c.64-3.08.64-5.09,2.35-6.65.5-.46.81-.57,2.36-1.8a28.1,28.1,0,0,0,2.91-2.5c2-2.15,1.25-3.87,3.6-8.86.86-1.83,1.23-2.17,1.66-2.36,1.87-.8,3.46,1.91,6.24,2.36,4,.65,8.86-3.75,10.66-8.32a15.1,15.1,0,0,0,.28-9.42c-1.39-5.31-4.3-5.77-4-8.72.39-4,5.86-3.93,8.73-10.26.5-1.1,2.14-4.72.83-8.17-.78-2.07-1.84-2-3.88-5-.95-1.39-1.23-2.15-3.46-7.62-3-7.39-3.06-7.35-3.19-8a19.42,19.42,0,0,1,1.25-10.39c.59-1.66,3.47-9.25,10.39-12.89a40.36,40.36,0,0,1,6.37-2.63c3.75-1.12,4.87-.76,5.82-1.94,1.65-2-.76-4.38.42-8.45.8-2.78,2.3-3,4-6.09a17.6,17.6,0,0,0,2.08-9.15C2294.14,166.32,2291.27,164.74,2287,158.62Z"/><path d="M953.27,641.28c7.16.36,11.81-5,12.47-5.82,4.35-5.22,5.66-13.73,2.63-16.07-1.1-.85-4.63,0-11.64,1.67a81.92,81.92,0,0,0-8.73,2.49c-5.19,1.84-7.79,2.75-8.45,4.43-1.33,3.39,2.77,8.15,5.82,10.39A14.58,14.58,0,0,0,953.27,641.28Z"/><path d="M1162.32,1226.18c-3-1.26-5.71-1.14-10.67-.55-7.12.84-10.39,1.52-10.39,1.52-8.87-.18-14.69,1.88-18.43,3.88a38.49,38.49,0,0,1-5.95,3c-6.39,2.36-8.16.33-13.44,2.07-1.12.37-4.78,3-12,8.18-6.33,4.52-6.23,4.55-7.35,5.12-5.65,2.9-9.15,2.56-10.25,5.27-.52,1.3,0,2.8,1,5.82a31.17,31.17,0,0,0,4.57,8.86c2.44,3.23,5.61,7.42,8.87,6.93,1.67-.25,1.75-1.49,3.74-1.8s3.7.68,6.65,2.49c3.64,2.24,3.53,3,6.1,4.16a17.68,17.68,0,0,0,6.09,1.52,21.75,21.75,0,0,0,6.65-.55c2.7-.63,5.65-1.33,7.9-3.46,2.75-2.62,1.49-4.57,4.57-11.5,1.45-3.27,2.61-5.81,5.13-8s4.71-2.6,7.48-3.74c4.56-1.87,7.65-5,13.85-11.22,6.78-6.82,11.5-11.57,10.11-15C1165.84,1227.68,1164.16,1227,1162.32,1226.18Z"/><path d="M992.33,1095.82c-1.44-1.25-2.93.18-6.23-.42a13.9,13.9,0,0,1-7.07-4c-2.12-2.25-2-3.8-4.15-4.72-1.44-.62-3.49-.78-4.16.14s.48,3,1.53,4.71c1.77,2.85,3.6,4.58,7.62,8.18,5.08,4.56,5.67,5,6.65,5.4,3.55,1.63,8.15,2.09,9,.55.46-.82-.57-1.5-1.66-5C992.86,1097.47,993.29,1096.65,992.33,1095.82Z"/><path d="M1003.56,1093.6a34.15,34.15,0,0,0,8.45.28c3.62-.35,4.24-1,7.06-.83,3.21.23,3.68,1.19,5.54.69a7.51,7.51,0,0,0,4.85-5.26,5.17,5.17,0,0,0,0-3.61c-.77-1.67-2.5-1.66-5.68-3-1.07-.47-3.35-1.93-7.89-4.85-3.61-2.32-4-2.67-5.27-3-1-.28-4.12-1.21-6.93.28-.73.39-1.09.76-3.6,4.15-3.81,5.17-4.55,6.44-5,8.31-.37,1.61-.6,2.57-.13,3.61C996,1092.55,999.31,1093,1003.56,1093.6Z"/><path d="M1082.52,1193.07c6.3-2.69,6-2.9,7.2-3,2.32-.26,2.64.58,8.73,1.94,3.59.8,5.38,1.2,6.79,1a11.67,11.67,0,0,0,8.31-6.51c1.36-2.92,0-3.64,1.11-8.59,1.15-5.34,3-6.07,2.91-9.28-.11-3.48-2.37-4.79-4.85-8.59-1.78-2.74-3.06-8.74-5.54-20.64-1.82-8.72-2.31-12.19-5.4-14-.54-.32-.75-.34-6.24-1.53-6-1.29-9-1.93-9.83-2.21-4.92-1.6-8.32-2.7-10.25-5.82-1.29-2.09-.94-3.47-3.33-7.62a15.77,15.77,0,0,0-2.35-3.33c-.73-.72-3.46-3.46-6.65-3.18-2.29.19-2.53,1.73-4.85,2.35-3,.81-5.93-.94-8-2.21-5-3-4.82-5.81-10.53-9.29-2.7-1.65-4.16-1.89-5.4-1.66-1.77.32-2.07,1.41-4.71,2.77a20.33,20.33,0,0,1-5.82,1.8,32.69,32.69,0,0,1-6.93.7c-1.59,0-1.74-.14-7.75-1a77.05,77.05,0,0,0-9.15-.7c-2.72,0-3.87.08-4.29.83s.19,2,1.38,4.16c1.58,2.82,2.44,3.17,2.77,4.85a5.11,5.11,0,0,1-.55,3.88c-1.3,1.74-4.1,1.56-9,1.24-3.44-.22-5.16-.33-7.48-1.1-4.3-1.44-5.42-3.38-7.62-2.77s-3.2,3-3.61,3.87-.78,2.18-.55,7.07c.14,3,.33,3.64.55,6.65.48,6.35-.18,6,.42,8.17a17.21,17.21,0,0,0,5.4,8,24.31,24.31,0,0,0,4,2.77c1.63,1,6.42,4.75,15.93,12.19,1.8,1.41,3.81,2.53,5.54,4s2.68,2.59,4,2.49a4,4,0,0,0,3.19-2.63,2.06,2.06,0,0,0,.14-1.39c-.67-1.7-4.94-1-5.13-1.8-.13-.55,3.92-.48,6-3.18.6-.81.81-1.56,1.24-1.53.71.06,1.25,2.19,1.25,4s-.46,2.2-.83,4.43a12.35,12.35,0,0,0-.28,4.3c.23,1.21.85,2.31,5.27,6.23,3.94,3.5,3.87,3,5.12,4.44,2.77,3.16,2.38,4.77,4.57,6.37,2,1.43,4.11,1.47,6.51,1.52a20.41,20.41,0,0,0,13.44-4.85c2-1.71,1.11-1.7,4.44-5.26,4.56-4.89,7-5.79,6.78-7.76-.25-2.65-4.82-2.92-5-5.68-.09-1.41,1.08-1.78,4-6.23a20.78,20.78,0,0,0,2.36-4.16c1.19-3.19-.79-5.14.55-6.93,1-1.37,3-1.63,3.19-1.38s-2.09,1.83-1.8,2.35c.16.29.91-.07,1.25.28.51.53-.5,2.17-1.25,3.74-1.7,3.54-.61,3.64-2.08,6.24a33.63,33.63,0,0,1-3.32,5.12,2,2,0,0,0-.7,1.39c.07.9,1.63,1,3.33,2.35a4.5,4.5,0,0,1,1.52,1.66c.73,1.94-2.26,4.07-5.68,9-2.12,3.07-3.77,5.51-2.91,7.2.72,1.42,2.56,1.07,3.6,3,.62,1.17.21,1.72.84,3.46a10.79,10.79,0,0,0,1.94,3.19c3,3.34,7.43.55,13,3.74,2.38,1.36,2.65,2.48,4.71,2.77C1077.53,1195.06,1078.63,1194.73,1082.52,1193.07Z"/><path d="M1118,1155.53c-1,0-1.83,1.32-2.08,2.35s.19,1.58,1.24,4.3c1.29,3.3,1.35,4.32,2.36,4.71a2.39,2.39,0,0,0,2.35-.42C1124.12,1164.32,1120.56,1155.45,1118,1155.53Z"/><path d="M1119.23,1170.35c-.33,0-.4.76-1.11,3.46-.77,3-.9,2.88-1.1,4.16a12.84,12.84,0,0,0,0,4.57c.17.87.52,2.6,1.1,2.63.8,0,1.57-3.05,2.08-5.12a14.43,14.43,0,0,0,.7-5.68C1120.65,1172.42,1119.82,1170.3,1119.23,1170.35Z"/><path d="M824.57,756.54c1.27-1.46,1.1-3.32.83-6.37-.2-2.2-.31-3.42-1.25-4.15-1.62-1.27-4.66-.31-6.37,1.24-2.43,2.2-2.14,5.51-2.08,6.24a5.49,5.49,0,0,0,1.52,3.88C819.19,759.06,822.86,758.51,824.57,756.54Z"/><path d="M904.5,858.92c1.51,3.21-1.44,6.84-.41,7.48.77.49,3.27-1.11,4.43-3.32.74-1.43.53-2.35,1.25-2.63,1.06-.43,3,1,3.88,2.77.62,1.3.38,2.22.83,2.35.82.25,1.43-3,4-4.15,1.51-.7,2,.05,5.13-.42,2-.31,3.25-.49,4.29-1.25,3.55-2.56,2.11-9.62,1.81-10.94-.53-2.31-1.08-4.72-3.05-5.82s-3.64.32-6-1.11a9,9,0,0,1-3.05-3.88,14.23,14.23,0,0,1-1.24-3.6c-.72-3.32-.21-4.9-.28-8.31-.11-5.36-1.49-8-.55-8.45,1.23-.66,3.79,3.75,5.68,3.05,1.58-.59.37-3.94,2.9-8.32.91-1.56,1.43-1.76,2.78-4.15,1.17-2.1,1.78-3.18,1.93-4.71.27-2.72-1-5.86-2.35-6S924.1,800,924,800.18c-.73,1.64-.25,2.46-1,4.16a8.12,8.12,0,0,1-1.8,2.49c-2.52,2.26-5.23.37-10,1.8-2.74.83-2,1.5-6,3-3.4,1.33-3.87.8-7.62,2.22-3.54,1.34-3.62,2-6.09,2.49-3.14.62-3.8-.29-5.54.56-2.25,1.09-1.75,2.89-4.3,6.09a24.62,24.62,0,0,1-7.34,5.82c-3,1.77-4.11,1.74-5.68,3.46a11.87,11.87,0,0,0-2.63,5.13c-1.39,5.16.64,9-.69,9.7-.66.33-1.3-.51-3.33-1.39-1.83-.79-3.34-.94-6.37-1.25-3.91-.39-8.06-.8-9,1-.25.48-.18.93-.69,1.53a3.84,3.84,0,0,1-2.49,1.11c-5.51.65-7.28,0-8.59,1.1-1.48,1.24-.19,2.86-1.66,7.21a13.92,13.92,0,0,1-3,5.54c-3.16,3.24-6.77,2.55-7.48,5-.47,1.6.94,2.41.27,4-.59,1.45-2.24,2-4.57,2.78-2.08.69-3.85,1.28-5.82.69s-2-1.57-3.18-1.53c-2.14.09-3.58,3.3-4.16,4.58s-2.27,5-.69,6.78c.79.88,1.75.52,4.57,1.11s3.1,1.23,5.26,1.8c5.25,1.4,6.78-1.46,10.67.14,2.18.9,1.72,1.8,5.27,3.6,1.28.66,1.14.44,4.84,2.08,2.87,1.28,3,1.45,4,1.66,2.12.47,3.1.06,3.74.84.84,1-.32,2.38.42,3.32s2.69.1,5.82.14c2,0,1.56.41,6.78,1.38a21.11,21.11,0,0,0,7.49.42c2.31-.35,2.83-.91,3-1.25,1-1.51-.95-3.27-.13-4.71,1.05-1.86,5-.24,6.64-2.35.85-1.11.56-2.62.28-4-.63-3.21-3.12-6.9-6.23-7.2-1.39-.14-1.75.52-4.16,1.38-4.61,1.65-9.68,1.54-10,.56-.07-.23.1-.57,4.85-3.88,3.5-2.45,4.57-3.07,4.71-4.3s-.57-2-1.94-3.74-2.3-2.15-3.74-4.15c-.71-1-1.72-2.39-1.39-2.78.48-.55,3.62,1.23,5.82,2.91,1.59,1.22,1.67,1.6,3.88,3.33,1.83,1.43,2.77,2.16,3.88,2.49.45.14,3.27,1,5.4-.41s1.32-3.45,3.19-4.3c1.6-.72,4.1-.07,5.68,1,1,.63,1.31,1.24,1.94,1.11.86-.18.76-1.47,2.21-2.91.81-.8,1.06-.62,1.8-1.38a6.9,6.9,0,0,0,1.67-3.19c.55-2.11-.14-2.58.13-5.26.2-2,.36-3.49,1.39-4.16,1.23-.8,3.06.05,5.54,1.25C901.8,856.59,903.77,857.36,904.5,858.92Z"/><path d="M784.67,899.51c-.94-1.13-4.84,0-7.48,1.67-2.14,1.32-2.64,2.44-4.71,2.9-1.53.35-1.87-.13-4,0-1.77.12-3.9.25-5.54,1.53-1.37,1.06-2,3.17-3.33,7.34-.67,2.18-.55,2.19-1,3.46-.73,2.26-2,6.19-5.4,9-2.7,2.25-7.22,4.2-9.56,2.63-.72-.48-.64-.9-1.38-1.25-2.12-1-5.16,1.34-7.35,3.05-3.65,2.86-5.48,4.29-5.95,6.51-.89,4.17,2.37,9.29,6.23,10.67,2.51.9,4.44-.07,6,1.52s.36,3.36,1.66,4.58c1.94,1.8,7.27.51,10.67-2.5,2.74-2.42,2.42-4.36,4.43-4.85,2.74-.66,6.6,2.12,8,5.41.88,2,.41,3.25,1.24,3.6,1.57.66,5.26-2.89,7.07-6.93,1.05-2.34.68-3.09,2.08-5.4.85-1.41,2-3.39,4.29-4.3,1.76-.7,2.22,0,4-.83s1.63-1.63,3.6-2.77c2.14-1.23,3-.7,3.46-1.52,1-1.72-1.65-5.94-5-8.45-2-1.51-3.42-1.76-3.88-3.33s.78-2.67.55-4.43c-.16-1.25-1.1-3-4.71-4.71,1.06-1.63,2.49-4,4-6.93C785.1,900.62,785,899.87,784.67,899.51Z"/><path d="M626.18,1019.35c1.89.89,2.09,1.48,3.19,1.66,1.78.3,3.28-.89,4.71-1.94,6.62-4.86,7.29-3.48,9-5.82,2-2.81.61-4.15,2.21-11.5,1.4-6.42,3.25-8.8,2.22-9.7-1.36-1.18-5.84,1.92-11.08,5.55-6.05,4.18-9.53,6.59-13,11.08-3.89,5-2.36,5.59-5.95,9.42s-6.36,4.59-10,9.42c-2,2.65-3.43,4.58-2.77,6.1,1.21,2.78,8.88,2.62,14.27,0,2.41-1.18,5.06-3.19,4.71-4.44s-4-1-4.29-2.35,2.8-2.24,3-4.71c.19-1.92-1.5-3.09-1-3.74C622.2,1017.48,625.82,1019.17,626.18,1019.35Z"/><path d="M587.67,1048.85c-1.32.67-1.46.91-1.52,1.11a1.82,1.82,0,0,0,1,1.8,2.44,2.44,0,0,0,3-.55c.88-1.07.6-2.82-.13-3.19C589.67,1047.85,589,1048.18,587.67,1048.85Z"/><path d="M696.28,1025.16c1.2.82,4.52-1.36,6.24-4.15.94-1.53,1.59-3.55,1.11-3.88s-1.16.82-3.61,2.49-3.78,2-4.15,3.33C695.67,1023.67,695.69,1024.76,696.28,1025.16Z"/><path d="M724.13,1064c.21.62,2,.86,3.46.27.61-.25,1.06-.61,3.33-3.88,1.54-2.22,1.73-2.62,1.66-3.18-.18-1.41-1.84-2.79-2.91-2.5-1.45.4-.48,3.52-2.91,6.51C725.41,1062.85,723.93,1063.35,724.13,1064Z"/><path d="M746.85,1035c.67-.71.17-1.37.55-2.91.55-2.21,2-2.41,3.05-4.57s1-5,.42-5.26-1.35,3.46-5.13,6.65c-1.78,1.5-3.29,2.06-3.46,3.6a8.65,8.65,0,0,0,.69,3.32C741.65,1036,745.94,1036,746.85,1035Z"/><path d="M652.37,1092.49c-2-1.56-5.07-.9-6.79.42-.69.53-.63.75-1.8,2.35-2.07,2.82-3,3.16-5.4,6.24-1.6,2.07-2.39,3.12-2.08,3.74.39.79,1.92.54,7.34.14,6-.44,6.76-.33,7.9-1.25,2.42-2,2.48-5.45,2.49-6.37C654.05,1096.26,654.09,1093.87,652.37,1092.49Z"/><path d="M657.08,1053.43a10.7,10.7,0,0,0-5.41-2.22,12.06,12.06,0,0,0-5.68.14c-.73.21-2.83.89-5.68,3.74-3.49,3.49-3,5.12-5.4,7.76-3.93,4.27-7,1.83-10.94,5.68s-1.5,6.77-6,12.19c-3.35,4.07-5.79,3.7-6.93,7.06-1.33,4,1.71,5.43.56,9.7-1,3.6-4.12,6.17-7.76,9.14-3,2.42-4.13,2.64-5,4.58-1.61,3.61.36,7.65.56,8,.71,1.41.91,1,4.71,5.27,2.42,2.74,2.69,3.32,4,4.15a9.75,9.75,0,0,0,5.41,1.66c3.08-.08,3.71-1.9,5.82-1.52,2.36.43,2.1,2.82,5,4.43s5.87,1,9,.42c2.32-.42,2.3-.75,6.23-1.94,6.91-2.1,9-1.69,10.53-3.74.65-.89.46-1.26,1-5.4,1-8,2.16-10.37.69-11.78-.74-.72-1.92-.71-4.29-.69-4.37,0-5.28,1.54-10,1.8-1.9.1-3.34-.05-3.46.41-.16.61,2.2,1.09,3.74,3.33.11.15,2,3,1,5-.58,1.13-1.58,1-5,2.49s-5.14,2.8-5.54,2.35.83-2.11,1.11-2.49c2.63-3.6,6-4.19,5.82-5.4-.1-.79-1.53-.69-4-2.22-1.38-.85-3.68-2.21-3.88-4.15-.12-1.19.46-2.12,1.66-3.74,3.69-5,5.58-6.11,8.73-10.12,1.87-2.38,1.94-2.92,3.19-3.74,2.9-1.91,5.68-1.06,6.23-2.49.45-1.16-1.3-1.9-1.94-4.71a8.85,8.85,0,0,1,.56-5.41c1-2.07,2.74-2.46,5.54-4.15,2.63-1.59,6.37-3.85,8.31-7.62a14.38,14.38,0,0,0,.69-10.39A10.36,10.36,0,0,0,657.08,1053.43Z"/><path d="M815.7,1240.45c-5.38-3.35-8.72,0-14.55-2.63-.88-.4-3-1.48-5.12-.7a5.24,5.24,0,0,0-1.39.84c-2.86,2.46-2.45,10-1,16.07,1,4,1.7,6.83,3.74,7.48,1.45.45,2.51-.49,6.38-2.77,7.39-4.36,8.45-3.83,11.36-6.65,1.84-1.79,4.77-4.64,4.15-7.62C818.88,1242.43,817,1241.26,815.7,1240.45Z"/><path d="M748.23,1266.36a3.52,3.52,0,0,0-.69-2.5c-1-1.09-3.21-1.09-4.57-.28-2.42,1.46-2.89,5.87-1.39,8.59,1,1.79,2.06,1.46,4.85,4.3,2.32,2.35,3.3,4.32,3.6,4.15s-1.23-2.25-1.66-5.68C748.12,1272.93,748.41,1271.63,748.23,1266.36Z"/><path d="M776.08,1295.59c-.87-2.33.25-3.43,1.11-9.42,1-6.72-.1-7.82-.56-8.18a3.16,3.16,0,0,0-3.32-.27,3,3,0,0,0-1.11,1.66c-1.3,3.48-2,5.33-1.25,7.34.52,1.37,1,1,1.67,2.49.94,2.22-.06,3.33.41,6,.21,1.15.83,2.29,2.08,4.57,2,3.61,2.58,3.5,3.19,5.41,1,3.08,0,5.17.83,5.54s2.6-1.11,3.18-2.91c.82-2.52-.92-5.17-2.35-7.34C777.77,1297.11,776.82,1297.58,776.08,1295.59Z"/><path d="M784.53,1052.59c-.87-.52-1.95.39-4.29,1.25a27.23,27.23,0,0,1-6.79,1.25,44.41,44.41,0,0,1-9.7-.14c-11.32-1.07-16.39-2.86-17.46-1-.7,1.26,1.26,2.53.56,4.71s-3.16,2-6,4.71c-2.22,2.18-1.24,2.9-4,6.51a25.58,25.58,0,0,1-6,5.54c-2.36,1.69-3.57,2.53-5.13,2.36-2.08-.24-2.62-2-4.15-1.8s-1.69,1.78-3.61,4.43c-3,4.16-4.85,3.72-5.4,6.1-.74,3.23,2.41,5.21,1.25,7.2-.49.84-1.24.81-5.82,2.22s-5,1.8-5.27,2.35c-.76,1.84,2.05,3.65,1.39,6-.17.58-1.11,1.26-2.91,2.63-2.52,1.92-3.56,2.32-3.74,3.46-.14.88.26,2,.83,2.08,1.23.29,2.25-3.92,4-3.88,1.46,0,2.84,3,2.91,5.41a7.72,7.72,0,0,1-2.36,5.68c-1.24,1.17-1.88.87-3.88,2.49a15.84,15.84,0,0,0-2.77,2.91c-1.12,1.56-2.67,3.74-2.35,5.82.51,3.29,5.2,2.9,7.2,7.06.59,1.22.22,1.32.42,7.62.24,7.54.83,9.23,2.08,10.39.2.19,2.08,1.9,3.87,1.39,2.64-.76,1.85-5.41,4.58-6.79,2.06-1,3.54,1.1,9,2.35,2.59.6,7.66,1.7,11.64-.83.58-.37,3-1.93,3-4,0-1.48-1.25-1.88-1.67-3.61-.48-2,.69-3.54,1.94-6.09a43.23,43.23,0,0,0,2.77-8.17c1.15-4.12,2.79-10,.56-11.64-1.28-.92-3.62-.26-5,.69-2.22,1.55-1.78,3.79-3.46,4.43-2,.75-4.58-1.52-5.68-2.77-2.18-2.46-3.55-6.65-1.8-9.42.83-1.31,2.47-2.47,3.46-2.08s.44,1.84,1.8,3.88A7.91,7.91,0,0,0,732,1116c1,.5,1.94,1,2.63.56.91-.52,1-2.25.69-3.46-.66-2.76-3.38-3.71-3.05-4.58.1-.24.51-.68,4.16-.41,4.21.31,6.31.47,7.34,1.38,2.56,2.29.09,5.94,2.77,9,1.37,1.56,4,2.91,6.24,1.94,1.85-.82,1-3.11,2.77-6.51,2.16-4.21,4.73-3.49,7.62-8a13.72,13.72,0,0,0,2.49-8.17c-.15-2.87-2.73-3.76-3.19-7.62,0-.21-.35-3.08.42-3.33s2.43,2.07,3.32,4.44c1.11,3,.23,4,1.25,7.48a21.07,21.07,0,0,0,2.22,4.85c2,3.64,3.32,5.89,5.12,6,1.57.06,2.81-1.56,4.16-3.32a19.85,19.85,0,0,0,3.19-6.51c1.77-5.8,3.42-11.2.83-14.41-1.23-1.52-2.63-1.59-3.19-3.33s.31-3,1.25-5.26c1.28-3,1.82-5.43,2.91-10.25a57.13,57.13,0,0,0,1.1-8.45C785.4,1054.42,785.32,1053.07,784.53,1052.59Z"/><path d="M777.88,1035.28c-.59,1.35,3.48,5.1,4.71,4.43.8-.44,1-3.1-.69-4.43C780.44,1034.14,778.23,1034.46,777.88,1035.28Z"/><path d="M785.22,1028.91c-2.36,3.72,3.54,10.92,4.57,10.52.43-.16-.21-1.54.42-4.29.29-1.25.54-1.5,1.39-4,.74-2.21,1.1-3.33.83-3.74C791.55,1026.07,786.78,1026.46,785.22,1028.91Z"/><path d="M696.42,995.38c-.86-.59-2.31,1.22-5.82,2.77-4.82,2.14-6.29.56-10.11,2.08-2.08.83-4.7,3.89-9.84,10-3.7,4.38-5.56,6.61-6.23,8.32-1.35,3.42-.93,5.48-3.19,8.86-1.3,2-1.81,1.82-3.18,4a14.26,14.26,0,0,0-2.64,7.34c0,1.1-.14,5.26,2.36,6.93,2.19,1.46,4.34-.39,6,1.11s0,4.17,1.94,6.23a4.94,4.94,0,0,0,4.15,1.39c1.31-.18,2.17-1.06,3.88-2.77s2.59-2.59,2.63-3.75c.08-1.88-1.84-3.06-1.38-3.74.34-.5,1.39.15,2.91-.13a5.29,5.29,0,0,0,3.88-3.33c.75-2.18-.19-4.85-1.8-5.68-1.19-.61-1.9.21-3.19-.41-1.68-.82-2.78-3.3-2.08-4.71s2.46-.7,4-2.08c1.72-1.53,1-3.62,1.66-6.51s3-5.36,7.9-10.53c3.77-4,4.64-4.3,6.09-6.79C696.31,1000.61,697.6,996.19,696.42,995.38Z"/><path d="M603.19,870.42c-1.05-.16-1.88,1-1.94,1.11a2.92,2.92,0,0,0-.14,2.91c.49,1,1.67,2,2.63,1.66,1.12-.35,1.37-2.25,1.11-3.46C604.81,872.44,604.41,870.61,603.19,870.42Z"/><path d="M594.18,833c-.28-.15-1,1.58-2.63,3-2.28,2.1-3.69,1.25-7.62,3.47-2.58,1.46-2.76,2.27-4,2.21-1,0-1.79-.66-5.12-4.71a49.07,49.07,0,0,1-4.85-6.37c-1.75-3.29-2.22-6.16-2.5-6.09,0,0,0,0,0,0-.22-1.71-.73-3.52-1.91-4-2.5-1.1-7,4-8.73,6a36.66,36.66,0,0,0-5.13,7.9c-2.36,4.49-2.77,6.79-2.91,8.17-.32,3.21.46,4.78.83,5.41,1,1.7,2.83,3,3.33,2.63.3-.21-.12-.84.14-1.66.52-1.65,3.38-2.62,4-1.94s-2.42,3.27-1.66,6.09c.33,1.22,1.13,1.51,4.16,4.16,3.54,3.09,2.8,3,4.15,3.88,3.8,2.49,6,.9,9.15,3.46a13.42,13.42,0,0,1,3,3.88c2,3.31,1.44,4.65,3.32,6.65s3.09,1.62,3.46,3c.48,1.83-1.51,3-1.1,4.85.34,1.6,2.13,2.47,3.32,3,4,1.93,9.94,1.79,11.36-1a3.56,3.56,0,0,0,.14-2.78c-.84-2.13-3.65-1.89-4.3-3.87-.3-.93,0-1.79.56-3.05,1.08-2.7,2.64-2.89,2.77-4.44.14-1.79-1.91-2.11-2.49-4.43s1.19-3.34,1.8-6.65a11.58,11.58,0,0,0,.16-2.6,1.48,1.48,0,0,0,.67.39,1.94,1.94,0,0,0,1.52-.56c1.27-1.06.9-2.77,1.11-6.65.11-2.12.23-1.79.55-6.23.28-3.76.22-4.41-.27-5-1.3-1.53-3.75-.37-4.71-1.8S594.56,833.21,594.18,833Zm-26.6-5V828S567.59,828,567.58,828Z"/><path d="M521.17,882.06c.35,5.74,1.34,7.33,2.56,8.05.81.48,2.64.68,6.31,1.09,1.72.19,2.57.29,2.91.28,3.46-.11,4.7-2.5,8.87-5,4.69-2.8,5.54-1.21,8.72-3.88a39.34,39.34,0,0,0,5.13-5.68c1.19-1.61,2.21-3.25,4.29-4a7.5,7.5,0,0,1,2.5-.41,8.89,8.89,0,0,1,4.85,1.25c1,.6.93.9,2.91,3.18a38,38,0,0,0,4.57,4.57c2,1.64,3.18,2.62,4.15,2.22,1.2-.5,1.25-2.77,1.25-2.91,0-2.07-1.2-3.94-4.43-6.93a55,55,0,0,0-7.07-5.54,129.55,129.55,0,0,1-11.36-8.17c-6.54-5.44-10.15-8.44-12.19-13.72-1.2-3.09-1.43-5.87-3.46-6.51-1.77-.55-4.22.71-5.27,2.5-.94,1.61-.17,2.67-.69,4.57-.81,2.94-3.64,3.94-6,5.68-3.7,2.77-5,6.59-6.92,12.19C520.54,871.58,520.86,876.86,521.17,882.06Z"/><path d="M599,907.41c.22-9.35.15-11.38-1.38-13.72-.42-.62-2.46-3.72-5.55-4-1.28-.12-1.77.33-5,1.52-4.67,1.73-7.2,2.64-8.18,1.66-.81-.81.25-2.15-.55-5.12a10.69,10.69,0,0,0-1.11-2.63c-1.79-3.22-4.23-3.6-10.25-7.76-2.67-1.85-4-3-4.43-2.63-.66.54.94,3.79,1.66,5.26,1,2.09,1.93,3.36,1.66,3.6s-1.65-1.58-4-1.94c-1.29-.19-3.39,0-4.29,1.39s-.33,3.32.55,4.57c2,2.8,5.5,1.51,7.35,4.29.84,1.27,1.2,3.21.41,4.3-.61.84-1.65.81-7.06,1-3.87.11-4.57.17-5.41.27a31.64,31.64,0,0,0-5.4,1.25,33.78,33.78,0,0,1-12,1.11c-3.2-.32-2.33-.9-12.33-3.46-2.46-.63-5.15-1.28-8-.14a9.85,9.85,0,0,0-3,1.94,63.11,63.11,0,0,1-10.11,20.09c-3.15,4.09-5.14,5.44-6.23,6.09-3.83,2.29-5.45,1.27-12.19,3.88-4.39,1.7-3.75,2.15-8.18,3.74-4,1.44-5.62,1.47-6.92,3.19-1.85,2.42-1.71,6.44-.28,7.2.92.49,2.61-.25,3.46-1.38,1.36-1.8.08-3.83,1.39-5a2.8,2.8,0,0,1,3.18-.28c1.84,1.33-.62,5.37,1.53,7.9.57.67.78.42,3.46,1.66,4.58,2.12,4.31,3,6.93,3.74s3.39,0,6.09,1.11a6.57,6.57,0,0,1,2.91,1.8c1.8,2.15.32,4.43,1.53,6.23,1.31,2,4.69,1.73,9.56,1.39,6.95-.49,10.92-2.39,13.16-3.74,3.36-2,3.57-3.29,3.6-3.74.15-2.33-3.28-3.83-2.77-5.54.36-1.22,2.42-1.58,2.91-1.67,3.57-.63,8,1.8,9.83,5.41,1.1,2.19.5,3.35,1.8,4.43,2,1.64,6,1.14,6.79-.55,1.08-2.23-3.45-6.26-2.77-6.93.41-.4,1.92,1.16,4.85,1.8,1.48.32,1.8.08,4.57.14,4.44.09,6.75.14,7.62,1.52.75,1.2.19,3-.41,4-2,3.39-7,3-7.07,4.29,0,.94,2.7,2.22,5.54,2.22,3.07,0,4.06-1.5,8.59-3.18,3.91-1.46,4.26-.75,8-2.08a35.34,35.34,0,0,0,8.72-4.71c3.48-2.38,4.56-3.74,11.23-8.73a11.82,11.82,0,0,1,5-2.63c2.94-.59,4.49.61,5.54-.42,1.25-1.21.74-4.53-1-6.51s-3.63-1.36-4.84-3c-1.41-2-.08-4.56.83-8.31C598.72,920.54,598.82,916.16,599,907.41Z"/><path d="M520.76,991.22c-3.75,2.33-3.65,3.25-3.6,3.47.34,1.57,5.3,1.64,6.51,1.66,3.7,0,7,.1,9-2.36,1.64-2,2.35-5.41,1-6.78C531.18,984.75,523,989.82,520.76,991.22Z"/><path d="M418.24,991.22c2.62,2.76.64,5.9,3.19,9.84.51.79,1.85,2.86,3.46,2.77s2.91-2.69,4.16-5.54c2.15-4.94,2.65-8.92,3.18-8.87s-.55,5.17,2.36,8.18a7.68,7.68,0,0,0,4.43,2.07,10.89,10.89,0,0,0,7.21-1.8c2.52-1.42,2.16-2.08,5-4.15,4.37-3.22,6.37-2.5,8.32-5.27a8.68,8.68,0,0,0,1.66-5.26c-.16-3.05-2.26-4.58-1.53-5.68.63-.93,2.77-.79,4.3-.14,2.29,1,2.16,2.66,4.43,4.85.38.36,3.82,3.57,8.45,3.32,1.39-.07,4.05-.21,5.13-1.94,1.61-2.57-2.43-5.28-3.47-12.33-.75-5.15.81-7.73-1.1-9.28-.94-.76-2.85-.73-6.65-.69-4.38.05-4.4.52-6,.14-3.37-.82-3.45-3-6.79-3.74a8.43,8.43,0,0,0-5.54.69c-2,1.07-2.16,2.46-4.16,5.13a27.46,27.46,0,0,1-6.23,6,28.61,28.61,0,0,1-8.59,4.16c-8.15,2.65-11.58.73-17,4.29-2.7,1.77-3.36,3.21-3.6,4.16-.88,3.49,2.27,6.84,2.49,7.07C416.72,990.58,417.12,990,418.24,991.22Z"/><path d="M406.6,1020.87c-4.41-2.36-5.94-2.64-7.48-2.35a5.18,5.18,0,0,0-3.74,2.35c-.74,1.35-.89,3.43.14,4.43,1.31,1.27,3.24-.44,6.24.7,1.25.47,1,.82,3.46,2.49,3,2.08,4.6,3.17,6.23,2.77a4.54,4.54,0,0,0,3.19-4.29C414.52,1025.13,411.88,1023.69,406.6,1020.87Z"/><path d="M488.2,1037.77c-1.27.25-1.77.26-2.08.69-.58.85-.06,2.7,1.11,3.47s2.22-.06,4.57.14a11.71,11.71,0,0,1,4,1.24c3.59,1.4,8.92-.12,12.19-2.63,5.63-4.31,5.48-11.77,5.41-15.65-.07-3.08-.18-8.88-4.16-11.64a10.25,10.25,0,0,0-5.82-1.52c-4.72-.17-5.56,2-11.5,3-4.49.76-5.44-.26-8,1.11-.81.43-2.16,1.29-5,5.4-4.67,6.78-5,10.23-7.34,10.53-1.74.22-1.89-1.62-5.27-3.32-3.94-2-5.66-.44-12.46-2.08a39.16,39.16,0,0,1-6-1.94c-6.16-2.59-8.55-5.59-9.56-4.85-1.35,1,3.22,6.12,1.52,12.33a10.79,10.79,0,0,1-4,6.24c-1.63,1.09-2.64.88-3.47,1.94-1.94,2.49.63,7.51,1,8.17,2.91,5.53,6.41,4,13,10.8.89.92,2.6,2.76,4.16,2.36,1.24-.32,1.45-1.81,3.33-2.63,1.11-.49,1.67-.25,2.77-.42,2.88-.44,3.85-2.87,6.51-5s3.48-1,7.06-3c5.18-3,8.21-8,9.7-10.53,2.46-4.13,2.43-5.9,4.43-6.65,3.43-1.28,8.15,2.17,7.9,3.18C492.1,1037,490.69,1037.29,488.2,1037.77Z"/><path d="M354.52,1118.81c4.29-1.39,4.72-2.35,7.61-3.18a19.55,19.55,0,0,1,7.21-.56c5.52.4,6,2.33,10.94,2.91,1.66.2,6.88.82,11.22-2.21,2.77-1.93,5.36-5.48,4.44-7.35s-5.57-1.57-5.54-1.93,3.38.31,6.37-1.39c1.78-1,1.55-1.77,3.46-3.46,2.83-2.51,4.52-1.88,9.15-4.44,2.48-1.37,3.88-2.14,5.26-3.74.18-.21,4-4.72,3.05-10.25-.4-2.37-1.37-3.21-4-7.2-4.77-7.2-3.56-7.41-6.79-11.64s-6.56-8.6-11.91-9.14c-1-.1-4.83-.49-7.62,1.8-2.36,1.93-2.38,4.47-4.85,5.26-1.28.41-3.24.37-4-.69-1.4-1.9,2.52-5.07,1.25-8.45-.89-2.37-3.8-3.43-4.3-3.6-1.73-.6-2.51-.11-5.12-.7a22.07,22.07,0,0,1-3.88-1.38c-1.46-.58-8.58-3.39-9.56-1.94-.43.64.74,1.51,1.8,4.29.78,2.06,1.83,4.8.83,7.07-1.49,3.41-6.9,4.1-7.34,4.16-3.18.36-5.23-.8-6.23.41s.31,2.9-.7,3.74-3.12.18-4.43-.83c-.78-.6-.77-1-1.38-1.25-1.42-.62-3.38.57-4.16,1.25-3.29,2.88,1.15,8.5-1.25,16.35-.32,1-2.38,7.8-7.2,9.14-2.43.68-4-.44-6.1,1-2.36,1.62-2.7,4.78-2.77,5.4s-.43,4,1.66,6.1c2.43,2.45,5.24.19,10.26,2.22a18,18,0,0,1,7.2,5.68,60.94,60.94,0,0,1,5,7.48,5.28,5.28,0,0,0,2.21,2.63c1,.47,2,.41,5.13-.28A50.11,50.11,0,0,0,354.52,1118.81Z"/><path d="M246.73,1059.8c-1.71-.61-1.36-.94-6.51-3.88-4.65-2.66-5.41-2.66-5.82-2.36-.9.68.34,2.56.56,7.49.13,3-.29,3.42.28,4.84.77,2,2.71,4.1,5.12,4.3a6.8,6.8,0,0,0,3.33-.83,21.66,21.66,0,0,0,4.85-3c4.56-3.42,4.25-3.81,6.65-5.13.78-.43,1.44-.73,1.38-1C256.42,1059.57,251.59,1061.51,246.73,1059.8Z"/><path d="M218.2,1058c-5-1.92-7.57.36-11.23-1.66-1.09-.61-2.27-2.27-4.57-5.55-4.64-6.61-5.73-9.75-7.89-9.69-1.4,0-2.67,1.38-3.19,1.94-1.53,1.62-1,2.6-2.08,3.46-1.3,1-2.68.14-7.76-.14-2.33-.13-3.5-.19-4,.14-2.32,1.48.19,5.47-1,12.88-.71,4.48-2.3,7.38-.7,10.81a3.65,3.65,0,0,0,1.39,1.8c1.78,1,4.82-.89,10.81-4.71,6.33-4,8-5.13,10.87-5.58a10.08,10.08,0,0,1,6.58.87c1.47.83,1.25,1.4,2.63,2.22,3.17,1.86,6.85,1,9.84.27,2.75-.65,5.33-1.27,5.54-2.63C223.7,1060.83,220.56,1058.9,218.2,1058Z"/><path d="M299.1,952.85c-2.35.82.4,11.85,1.66,16.9.23.91.68,2.6,1.39,2.63s1.34-1.61,1.66-2.49c1-2.75,2.42-6.57.69-10.95C303.34,956,300.56,952.34,299.1,952.85Z"/><path d="M333.73,945.92c4.52-.82,6.11.21,18.29,1.8,8.14,1.07,9.48.88,11,.28,3.28-1.35,5.88-4.23,8.31-6.93,2.89-3.21,2.93-4.23,5.12-5.54,3.3-2,4.91-.66,7.07-2.63,1.08-1,1.69-3.19,2.91-7.62.83-3,.95-4.37.28-5.54a5,5,0,0,0-2.22-1.8c-3.48-2-2.95-5.21-7.07-12.47-2.17-3.84-3.25-4.6-2.77-5.68.94-2.08,6.58-2.88,9.84-.69,1.26.84,1.81,1.89,3.6,2.35,1.61.41,2.24-.17,3.6.42a4.17,4.17,0,0,1,2.63,3.18c.09,1.57-1.46,1.76-1.93,3.61-.72,2.75,2.22,4.3,1.52,6.92-.59,2.2-3.16,2.95-2.91,3.47s2.89.16,5.13-1.25c1.95-1.23,2.47-2.57,4.57-6,3.78-6.12,6.18-8.39,5.26-9.83-.58-.93-1.85-.48-2.35-1.39-.86-1.57,2.25-4.13,4-7.2,3.54-6.15,2.17-15.17-.83-16.35-1.39-.55-3.42.93-7.48,3.88-4.86,3.54-5.05,4.79-7.62,6.09-3.77,1.91-6,.51-12.6.56a50.89,50.89,0,0,0-16.63,3c-7.58,2.56-11.58,3.91-14.54,7.89-2.54,3.41-2.75,6.62-6.79,9.29-2,1.33-3.29,1.39-4.3,3-1.76,2.9.37,5.59-1.38,7.62-1.42,1.65-3.14.26-5.68,1.94-2.82,1.86-1.82,4.3-4.71,6.65-1.81,1.47-2.53.8-6.51,2.5a60.74,60.74,0,0,0-6.93,4c-6.85,4.26-7.61,5.06-8.17,6.24-1.31,2.7-1.08,6.25.27,6.92s3.91-1.7,4.16-1.38-3.29,2.52-3.33,5.68a2.82,2.82,0,0,0,.7,2.21c1.47,1.21,4.26-1.37,9.42-3,4-1.31,4.47-.43,10.66-1.8C330.71,947.21,330.36,946.54,333.73,945.92Z"/><path d="M300.49,915.17c.79-.22,1.31-.89,2.35-2.22,2-2.5,1.64-3.51,2.91-4.85,2.24-2.35,6-2.11,6.37-2.08.85.07,2.56.79,6,2.22,3,1.27,3.51,1.56,4.57,1.52,1.66,0,4-.88,4.71-2.63.87-2-1.16-3.45-.83-6.09.28-2.25,2-3.32,4-5.27,6.39-6.17,9.07-14.67,9.56-16.21,1.17-3.7.86-5,2.49-6.65,2-2,4.46-1.93,6.51-4.84a4.3,4.3,0,0,0,1.11-3.05c-.29-1.95-2.59-2-4-3.74-3.16-3.74,2.39-10-.14-17.6a10,10,0,0,0-3-4.71,9.94,9.94,0,0,0-3.6-1.8c-2.84-.88-4-.23-8.73-.69-3.62-.35-4.38-.86-4.71-1.11-1.9-1.43-1.66-3.4-2.91-3.88-2-.77-5.31,3.24-6.37,4.57-7.2,8.94-7.44,13-12.2,18.57-3.21,3.74-6.31,5.62-11.91,9s-10.43,6.31-17.32,6.93c-3,.27-7.39.66-11.77-1.66s-3.72-4.53-7.62-6.51c-5.9-3-12.71-.65-15.38.27a27.43,27.43,0,0,0-10,6.24c-2.81,2.57-5.87,5.39-7.07,10.11a17.29,17.29,0,0,0,.28,9.14c1.7,5.72,4.88,5.56,7.2,12.19,1,2.93.95,4.5,2.63,5.82a6.78,6.78,0,0,0,7.07.7c2.55-1.45,1.8-4.14,4.43-5.55,1-.52,2.56-.44,5.68-.27,4.24.23,6.36.34,7.9,1,3.48,1.4,4.6,3.69,6.93,3.18a4.79,4.79,0,0,0,2.07-1.11c1.19-1.07,1.09-2.14,1.67-3,1.68-2.64,7.7-1.61,9-1.39a19.53,19.53,0,0,1,7.76,3.19c2.87,2,2.75,3.06,8,8.31C297.41,914.43,299,915.57,300.49,915.17Z"/><path d="M265.44,867.37c.63-.4,0-2.94-1.11-4.71-2.29-3.5-7.39-4.82-8-3.88-.78,1.15,4.92,5.77,7.21,7.62C264.27,867,265.05,867.62,265.44,867.37Z"/><path d="M533.23,664.83a54.22,54.22,0,0,0,5.4-6.23c3.54-4.45,4.14-5.55,4.43-6.1,1.11-2.09,3.15-6,1.8-7.48s-5.16,0-6.92.7a14.55,14.55,0,0,0-7.62,5.81c-.87,1.42-1.24,3.14-1.94,6.51-1.17,5.61-2,9.7-.7,10.4C528.75,669,530.78,667.11,533.23,664.83Z"/><path d="M578,620.64c.24-1.81-1.31-3.84-2.35-3.74-.6.06-1.19,1.47-2.36,4.29-1,2.42-1,2.64-.83,2.78C573.14,624.74,577.61,623.44,578,620.64Z"/><path d="M542.51,593.63c-7.54.51-7.27,2.74-12.47,2.63-4.46-.1-6.07-1.77-11.36-1.11-1.67.21-2.09.44-3.88.55a24.51,24.51,0,0,1-8.73-1.1,59,59,0,0,0,14.13,3.46c5.85.79,8.77,1.18,11.23.41a18.86,18.86,0,0,1,7.51-1.41,7.91,7.91,0,0,1,3.29.72c2.29,1.13,2.24,2.74,3.88,3.19,2.11.58,5.19-1.26,5.4-3.33a3,3,0,0,0-.69-2.07C549.71,594.13,547.51,593.29,542.51,593.63Z"/><path d="M482,618.29c-4.53,1.89-9.58,2.32-19.67,3.18-6.49.55-9.81.82-14,.14-5.54-.9-6.19-2.24-12.6-4.16-6.85-2-17.4-5.2-23-.41-2.5,2.14-3.06,5-3.88,9.28-1.13,5.88.26,7.45,2.5,23.55.74,5.38,1.08,8.76,2.77,13.72,1.22,3.59,1.83,5.38,3.18,7.34,3.61,5.22,9.13,7.24,17.73,10.25,4.16,1.46,9,2.82,11.36,3.46,6.08,1.7,7.94,2,10.67,3.74,1.84,1.21,6.58,4.3,6.65,8.46.07,3.91-4.07,6-3.05,8,.94,1.87,5.08,1.56,5.54,1.52,2.27-.17,3.54-1,5.82-2.07a28.24,28.24,0,0,1,8.32-2.77c5.61-.58,6.88,3.53,13.16,3.6a14.31,14.31,0,0,0,8.45-2.5c3-2.26,3.68-5.37,5.54-15.65,2.82-15.58,3-18.26,5.12-23.14a71.33,71.33,0,0,1,5.68-10.11c4.72-7.48,6.28-8.09,10.39-14.82,3.32-5.44,1.84-4.29,6.65-12.89,3.56-6.35,5.23-8.52,5.13-12.33,0-1.05,0-5.86-3-8-2-1.45-3.28-.2-8.59-.83-5.71-.69-7.81-2.56-9.83-1.11a5.28,5.28,0,0,0-1.8,3.88c-.1,2.62,1.85,3.55,3.6,7.2a21.22,21.22,0,0,1,1.8,6.79c.56,4,1,6.95-.69,9.7-1.77,2.93-5.6,5.13-7.9,4.15-1.41-.59-1.07-1.88-3.46-4.57a14.38,14.38,0,0,0-4.3-3.46,13.45,13.45,0,0,0-6.47-1.35,19.18,19.18,0,0,0-7.1,1.63c-.11-.25,6.08-5.12,11.49-3.33a15.24,15.24,0,0,1,5.68,3.74c1.47,1.53,2.23,3,4.3,3.74A3.89,3.89,0,0,0,517,632c1.16-.51,1.66-1.75,2.08-3,1.24-3.85,1.91-5.94,1.52-9a17.63,17.63,0,0,0-5.13-9.84c-2-2.17-3.62-4-6.23-4.71-3.2-.88-6.18.34-13.58,4.57C484.7,616.26,486,616.61,482,618.29Z"/><path d="M285.11,644.47c.36.7,2,.65,3.05.28,1.67-.6,2.42-2.23,2.91-3.33,1.61-3.63.47-6.21,1.52-6.65s2.4,2.5,6.37,3.46a10.15,10.15,0,0,0,2.36.28c1.44,0,5.29.17,6.92-1.94,1.18-1.52.08-2.75,1-3.6,2-1.88,7.26,4.24,16.35,5.26a17.67,17.67,0,0,1,6.24,1.39,15.94,15.94,0,0,1,5,3.32c1.35,1.38,1.5,2.11,2.36,2.22,1.53.21,2.24-2,4.71-3.32a9.91,9.91,0,0,1,5.4-1c5.19.13,6.11,3.16,10,3.6,6.54.74,12.68-7,14-8.59,3.29-4.13,2.26-5.48,5.68-8.73a24.62,24.62,0,0,1,9.83-5.54c4.67-1.21,6.36.09,8.59-1.8s2.91-5.11,2.63-7.62c-.12-1.14-.41-3.84-2.35-5.26-3.23-2.38-7,1.79-14.41,1a23.65,23.65,0,0,1-9-3.19c-3.52-1.92-3.68-2.93-8.73-6.65-5.55-4.09-9-6.56-11.5-5.4-1.58.72-1.39,2.24-4.43,4.29-1.44,1-2.18,1.1-2.63,2.08a4.09,4.09,0,0,0,1.1,4.57,5.55,5.55,0,0,0,2.12.82,24.08,24.08,0,0,0,3.43.57c1.13.19,2.15.8,4.57,3.46,2.27,2.5,6.48,7.14,5.54,8.31-.5.62-1.77-.53-4.3,0-1.65.35-1.7,1-3.87,1.66-2.56.82-3.31.24-3.88,1-1.18,1.51,1.81,4.21.69,6.79-.77,1.77-3.15,2.76-3.88,2.22s.2-1.65.42-4.85c.2-3-.39-3.59.27-4.71.2-.33.76-1.14,4.85-2.49s5.12-1.12,5.54-2.08c.64-1.45-1.12-3.88-2.91-5.13-1.33-.92-1.8-.58-4.85-1.8a23.3,23.3,0,0,1-4.43-2.22c-2-1.34-4.31-2.84-4.29-4.71,0-1.24,1-1.23,2.35-3.87,1-2.08.71-2.68,1.66-3.75,1.33-1.46,2.54-.95,3.47-1.93,1.9-2,.07-7.53-2.77-11.5-2.35-3.29-4.19-3.83-7.35-6.51-5.68-4.84-8.56-10.62-12.19-17.88-2-4.07-3.56-8-7.62-12.33-2.76-3-4.32-3.59-5.68-3.46-2.81.27-5.19,3.84-5.54,7.07s1.59,4.42,2.36,8.86c.46,2.69,0,3.74-.56,8.73-1.17,10.45.28,10.74-1.1,18.15-1,5.54-1.56,8.31-2.36,9.83s-1.66,2.7-1.25,4.16c.17.61.57,1.27,4,3.74a41.5,41.5,0,0,0,3.46,2.36c2.65,1.44,3.65,1.17,7.07,2.49,3.11,1.2,5.34,2.06,5.4,3.33s-2.25,2.46-5.4,4a33.08,33.08,0,0,1-5.4,2.08c-3,.9-4.57,1.35-6.24,1.11-3.16-.45-5.11-2.68-5.4-2.36-.43.49,4.77,4.36,3.88,7.48a3.64,3.64,0,0,1-1.94,2.08c-2.51,1.18-5.39-1.12-5.54-1.24-1.77-1.46-2.09-3.31-2.5-3.19-.61.18,0,4.37.14,5.4.37,2.55.79,4,.42,4.16s-1-1.67-2.91-2.63a7,7,0,0,0-5.13-.14,6.87,6.87,0,0,0-4.57,3.6,5.49,5.49,0,0,0-.14,4.29c1.16,2.48,4,2,4.57,3.74C291.11,639.09,284.27,642.86,285.11,644.47Z"/><path d="M577.42,1116.18a4.07,4.07,0,0,0-4.43,1.39c-2,3.31,4.28,11.54,6.65,10.8,1.45-.45,1.52-4.34,1.1-6.65C580.49,1120.32,579.88,1117,577.42,1116.18Z"/><path d="M615.52,1231.17c-.31-3.31,2.35-5.47,1.52-6.38-.3-.32-.94-.22-2.22,0-5.71,1-5.82,1-6.09,1-.83-.21-2.69-1.31-3.6-12.46a72.87,72.87,0,0,1-.28-13.72c.68-7.84,2.57-13.56.55-14.68a2.64,2.64,0,0,0-1.8-.14c-1.87.49-2,2.94-2.91,2.91-2.62-.09-5.17-8.07-5.4-15.1-.14-4.33.72-4.46.14-7.48-.51-2.64-1.57-4.68-6.24-11.23-3.07-4.31-4.61-6.47-6.23-8.45-6.63-8.06-14.75-17.94-19.81-16.07-.57.21-.36.3-3.6,4-4.88,5.6-6.47,6.68-6.24,8.59.16,1.28.92,1.14,2.36,4.43.91,2.08,1.36,3.14,1,4-.62,1.4-2.45.95-4.85,2.63a7.43,7.43,0,0,0-2.91,3.33c-.76,2.36,1.38,4.14,5.54,10.67,3,4.63,4.43,7,5,9.14.8,3.15.63,5.88,2.08,6.37,1.11.38,2.43-.81,2.77-1.11,2.26-2,1.09-4.31,2.91-7.34a11.87,11.87,0,0,1,5.54-4.43,16.91,16.91,0,0,1,6.37-1.53c2.46-.11,5.49-.24,6.79,1.67.48.7,1,2.1.42,2.91-1.34,1.8-6.3-2.09-11.64-.28-2.29.78-3.65,2.26-5.13,3.88-3.16,3.45-3.65,6.51-5.54,11.36a66.24,66.24,0,0,1-6.65,12.74c-5,7.29-9,8.89-8.45,12.61a5.93,5.93,0,0,0,4.16,4.71c1.86.4,3.45-.75,6.65-3,2.51-1.81,4-2.89,5-5,.65-1.38.66-2.37,1.53-2.77,1.2-.55,2.4.78,4.15,1.53,5.19,2.2,10.45-2.8,12.47-.69.9.93.52,2.59.42,3-.51,2.26-2.67,3.49-6.79,5.54-8.69,4.33-8.85,3.72-10.94,5.41-3.81,3-2.93,4.77-6.65,6.92a15.05,15.05,0,0,1-8.59,2.08c-2.85-.23-3.17-1.22-6.38-1.52-.62-.06-6.61-.57-7.48,1.66-.66,1.71,1.83,4.58,4.44,6,2.36,1.25,3.22.41,7.62,1.38,3.5.78,3.39,1.41,8,2.64,2.82.74,3,.53,6.37,1.38,4.62,1.15,4.34,1.52,7.07,2.08a34,34,0,0,0,10.94.28c3-.35,2.58-.64,6.38-1.11,6.49-.81,9-.09,9.69.14,2.28.71,1.83,1.21,4.57,2.21,2.28.84,6.42,2.35,9.43.56,1.65-1,1-1.8,3.32-3.88,2.72-2.42,5.08-2.62,5.13-4,0-.77-.69-1-1.81-2.49A10.81,10.81,0,0,1,615.52,1231.17Z"/><path d="M483.91,1165.22c.09,3.79,2.3,6.52,4.43,9.15,3,3.68,3.28,2.3,7.76,7.06,2.56,2.72,4.19,5,7.48,5.82a8,8,0,0,0,2.49.28c3.83-.21,7-3.43,8.59-6.37,1.88-3.52.7-5.22,2.22-12.06,1.14-5.13,1.6-6,1.94-6.51,2-2.73,4.15-2.19,8.86-5.12,3.46-2.15,5.76-3.58,7.07-6.38s.4-4.62,2.36-10.25c1.21-3.49,1.85-3.62,2.07-3.6,1.06.11.88,4.72,1.94,4.85.82.1,2.21-2.53,2.22-5.27,0-1.66-.51-2-1.11-4.43-1.16-4.67.08-6.13-1.25-7.34-1.57-1.44-4.7-.62-7.06,0a15.42,15.42,0,0,0-4.3,1.66c-1.86,1.1-2.56,2.12-3.74,1.94s-1.21-1.3-2.35-1.66c-1.65-.53-3.28,1.27-5.68,2.91-1.39.95-4.33,3-7.34,3.32-5.36.64-8.09-4.3-11.22-2.77-1.61.79-2.24,2.75-2.91,4.85-1.09,3.39-.09,4.92-1.53,7.9-1.11,2.3-2.25,3-2.77,3.18a4.27,4.27,0,0,1-2.77.28c-2.19-.62-2.12-3.15-4.71-7.06a21.35,21.35,0,0,0-5.4-5.68c-1.69-1.17-1.79-.8-5.13-2.64-4.42-2.43-5-3.49-6.65-3.32-2.07.21-2,2-4.71,3.32-3.13,1.57-7.72,1.42-10.39-.83-2.05-1.73-1.29-3.31-3.46-4.71a7.55,7.55,0,0,0-7.34-.14c-1.48.78-3.66,2.59-3.33,4.16s2.91,1.47,3.46,3.46a4.86,4.86,0,0,1-.69,3.33c-.73,1.46-1.32,1.37-1.94,2.63-.88,1.81,0,2.66-.69,4.16a5.62,5.62,0,0,1-4.16,2.77c-2.68.39-3.74-1.56-7.06-1.11a3.31,3.31,0,0,0-2.22,1c-.66.76-.4,1.45-.83,2.35-.63,1.32-2,1.63-3.74,2.36-3.48,1.49-3,2.56-5.26,3.32-4.13,1.41-6.54-2-10.12-.55a7.81,7.81,0,0,0-3.88,4c-3.64,7.3,3.74,16.9.14,20.22a17.33,17.33,0,0,0-2.35,1.94,12.46,12.46,0,0,0-2.5,4.16c-1.34,3.43-3,3.39-9.42,11.36-2.77,3.44-3.23,4.4-5,5.12-2.13.88-4.23.61-6.79.28-2.75-.35-5.72-.73-6-1.94s2.53-2.33,8-6c0,0,4.17-2.74,8.17-6s9.86-7.71,9.14-9c-.4-.72-2.76-.31-4.43.42-2.62,1.14-3.36,3-5.13,4.85-1,1.08-1.57,1.32-10.39,5.26-5.81,2.6-7.77,3.48-9.83,4.43-5.16,2.38-7.73,3.56-8.59,4.16-1.93,1.34-8.2,5.71-8.87,12.75a15.09,15.09,0,0,0,1.53,7.75c1,2.31,2.3,4,10.66,11.64,3.61,3.3,5.41,4.94,6.65,6,6,4.89,8.06,5.31,12.33,8.73,7.15,5.7,4.84,7.26,10.67,11.49,5.3,3.85,6,1.68,18.29,7.49,4.24,2,6.1,3.18,8.59,2.49,3.64-1,6.11-5.35,6.92-8.87,1.22-5.27-1.48-8,.69-13.16,1.13-2.68,2.45-3.43,2.78-3.6,2.13-1.12,3.66.28,5.4-.83,2-1.29,2.16-4.61,2.21-6,.16-3.84-1.58-5.21-.69-6.37,1.3-1.7,6.65-.87,10.25,1,1.35.69,2.8,1.7,5,1.66,1.61,0,1.65-.58,2.91-.55,2.48,0,3.33,2.21,7.07,4.57a16.48,16.48,0,0,0,4.29,2.08c3,.88,4.33.22,8.45.69a45.71,45.71,0,0,1,5,1c7.8,1.76,9.08,3.1,10.39,2.22,2.72-1.84-.9-8.89,2.08-11.09,2.21-1.64,5.38,1.43,7.75-.41.39-.3.72-.7,2.22-8.32a25.22,25.22,0,0,0,.69-4.71c.08-2.59-.4-3.39-.55-5.4-.33-4.51,1.79-5,1.8-9.7a12.32,12.32,0,0,0-1.94-7.34,12.14,12.14,0,0,0-5.82-4.29,17.55,17.55,0,0,0-5.4-1c-6.71-.54-8.63.25-13.58-.56-2.22-.36-5.72-1.15-5.68-1.8s2.72-.91,4.57-1c2.47-.07,3.33.4,7.9.7a8.56,8.56,0,0,0,3.46-.28c.83-.27,2.4-.78,2.91-1.8,1.23-2.45-4.87-5.4-6.65-12.47a13.73,13.73,0,0,1,.14-7.9c.9-2.55,1.88-2.36,3.6-5.82,2.06-4.1,1.85-6.72,3.61-7.2a2.36,2.36,0,0,1,2.49.83c.94,1.62-2.42,3.94-4.85,9.84C484.49,1161.56,483.86,1163.1,483.91,1165.22Z"/><path d="M521,1226.87c2.94-.52,4.47-2.17,9.55-6.92,6.32-5.91,5.54-4.84,6.65-6.1,6.09-6.87,3.84-9.8,9.42-16.62,3.84-4.68,7.17-6.08,7.07-9.7-.05-1.74-.84-2.48-2.22-5.13-2.76-5.31-2.21-7.4-4-12.19s-4-10.68-9.15-12.74c-6.3-2.54-15,1.41-17.59,6.92-.66,1.41-.81,3.48-1.11,7.62-.57,8,.68,8.76-.55,11.22-2.09,4.15-6,2.64-9.56,7.62-1.25,1.73-1.94,4.11-3.33,8.87-1.25,4.3-1.87,6.45-1.66,9,.24,2.91,1.26,4.83,3.19,8.46,2.55,4.8,4,7.58,7.34,9A10.69,10.69,0,0,0,521,1226.87Z"/><path d="M479.61,1242.8c-3.7-1.74-2.92-2.53-5.68-3.6-5.89-2.27-9.76,1.21-14.54-1.38-.89-.48-1.51-1.94-3.47-3.19a14,14,0,0,0-2.49-1.25c-3.06-1.21-4.31-.89-6.37-1.52-4.49-1.37-4.89-4.83-7.76-4.57a5.46,5.46,0,0,0-3.6,2.35c-2.18,3.09.48,6-1.39,9.29-1.53,2.69-3.74,1.54-5,4.15-.62,1.32-.1,4.4,1,10.53.31,1.75.36,1.94.56,2.22,1,1.5,3.28,1.64,11.77,1.8,3.35.06,3.78,0,4.58.41,2.9,1.33,2.82,4,5.4,5.41,1.67.89,2.89.4,7.06-.14,8-1,7.81.21,11.92-.83a26.55,26.55,0,0,0,10.53-5.68c.74-.61,9-7.43,7.48-10.67C488.69,1244.25,485.41,1245.54,479.61,1242.8Z"/><path d="M563.43,1245.71c-.7-.39-1.72.31-2.64.84-2.47,1.42-2.46.55-7.75,2.35-5.71,1.94-6.81,3.32-9.15,2.63-1.54-.45-1.5-1.18-2.91-1.38-2.52-.37-3.51,1.84-7.06,3.46-2.17,1-2.26.38-9.42,1.8-3.89.78-5.84,1.16-5.82,1.53,0,.74,8.2.79,13.58.83a68.1,68.1,0,0,0,9.83-.42c3-.39,3-.64,6-1,5.25-.59,5.9.14,9.28-.69,1.69-.41,5.63-1.37,6.51-4a7.26,7.26,0,0,0,.28-1.94C564.21,1248.44,564.35,1246.24,563.43,1245.71Z"/><path d="M601.59,1130.8c.91,0,2.06-.54,2.19-1.35a1.85,1.85,0,0,0-.63-1.35c-.7-.83-2.41-2.29-3.43-1.67s-1,2.57,0,3.64A2.61,2.61,0,0,0,601.59,1130.8Z"/></g></g></svg>