<svg xmlns="http://www.w3.org/2000/svg" viewBox="0 0 1730.55 2568.7"><g id="Layer_2" data-name="Layer 2"><g id="Guyana"><path d="M563.92,38.29c.79-5.18-2.78-8.07-2.4-16.81.13-3.07.2-4.68,1.28-5.28,3-1.69,8.19,7.7,20.65,13,4.9,2.07,4.74.89,11.68,3.52,11.14,4.22,16.17,9,17.29,7.84s-2.65-7.74-8-13c-4.33-4.23-7.51-5.48-20.33-12.65C571.67,8,569.43,6.23,569.68,4.52c.41-2.71,6.87-4.25,11.69-4.49C592.81-.53,601.05,6,610.82,12.84c0,0,12.27,8.66,38.1,23.85,18.05,10.62,16.93,7,36.17,17.77C706,66.13,708,70.75,737.12,88.23c11,6.64,9.78,5.4,22.73,13.13,20,11.93,31.46,18.79,45,29.13,22.17,16.95,37.48,28.66,42.26,42.74a51.47,51.47,0,0,0,8.81,16.65A49.86,49.86,0,0,0,866,199.32c20.2,14.61,62.41,61.68,67.39,67.23,8,8.92,12.46,14.48,20.81,16.49,6.24,1.49,13,.59,17.45,5.76,1.09,1.26,1,1.67,4.16,7.52,0,0,1.92,3.56,6.24,10.89,5.61,9.51,11.2,14.28,18.09,23.69,9.34,12.75,5.19,12.35,13.6,23.37,8.79,11.5,15.08,14.26,19,25.61a50.94,50.94,0,0,1,2.4,11.84c1.69,13.53-.87,19.29-1.6,34.1-.64,13,1.2,11,.8,27.21a160.73,160.73,0,0,1-2.72,28.49,127.65,127.65,0,0,1-7.68,26.25c-3.2,7.66-6.29,12.84-10.57,20-9.5,15.93-13.46,18.54-17.92,29.61-2.33,5.78-3.28,10.08-4.65,16.33-4,18.2-3.77,33.23-3.36,53.46.17,8.27.38,8.09.48,13.93.5,27.11.82,40.87-4.48,51.06-3.07,5.9-3.6,3.73-12.8,17.13-1.65,2.4-3.38,5-6.25,5.44-3.23.49-4.54-2.28-9.44-4.8-9.1-4.68-18.35-2.18-20.49-1.6-3.49.94-6.45,1.74-7,3.84-.84,2.93,3.77,5.37,12.8,14.25,8.09,7.94,8.85,10.37,12.65,10.88,5.89.8,11.3-4,13.92-6.4,5.55-5,5.76-9,12.33-13.45,2.84-1.91,5.45-3.66,7.2-2.72,3.26,1.75-.86,10.36,1.6,22.57,1.22,6,2.43,4.9,4.8,12.81a88.56,88.56,0,0,1,3.37,28c-.37,6.53-1.17,10.07.64,15.68a28.6,28.6,0,0,0,5,9.13c-.29-2.15-.68-5.43-1-9.45-.44-6.21.43-10.15-.32-15.52-.39-2.82-.48-10.69-.64-26.41-.09-8,0-10.34-1-14.41-1.8-7.49-4.11-7.61-5.77-13.29-4-13.79,7.23-20.89,2.57-34.41-1.09-3.16-2.56-5.25-2.24-9,.45-5.29,4-8.12,6.72-12,3.79-5.44,4.29-10.67,5.28-21.13,1.88-19.79-5.23-27.52,1-37.29,1.83-2.89,2.19-1.8,6.88-6.73,11.9-12.48,10.06-20,20-32.33,4.07-5.06,8.74-8.71,18.09-16,10.2-8,15.31-12,19.69-13.28s9.06-1.61,41.94,8.32c16.84,5.09,18.74,6.09,20.81,8.48,8.69,10,5.47,27.16,3.84,35.86-.81,4.27-.88,2.75-5.45,17.77-7.79,25.63-6.7,27.18-11.36,37.93-4.21,9.73-8.76,16.91-7.52,17.77.74.52,3.17-1.5,4.64-3.2,2.51-2.92,3-5.93,3.84-9,1.25-4.76,1.48-3.18,4.64-12.17,5.32-15.11,3.71-16.82,7.53-24.65,4.27-8.77,6.13-6.31,9.12-13.61.89-2.18,2-5.46,4-26.25.84-8.65.91-10.71,2.88-12.64,2.54-2.49,6.68-3.22,18.57-1.28,11.24,1.83,17.66,2.87,27,6.88,3.59,1.53,15.34,6.79,33.14,22.25,6.63,5.77,12.21,11.69,23.37,23.53,25.57,27.14,30.71,35.59,44.17,41a58.71,58.71,0,0,1,11.69,5.6c5.9,3.78,8.75,7.27,18.25,18.09,13.38,15.23,12.55,13.79,14.88,17a140.77,140.77,0,0,1,12.81,21.45c7.1,14.58,4,15.82,8,20,8.64,9,26.25,8.06,43.06,7.2,7-.36,13.14-1.22,19.21,2.57,5.27,3.28,4.65,6.41,9.28,11.68,11.47,13,26.45,6.53,37.78,20.17a70.7,70.7,0,0,1,6.4,9.92c5.29,9.17,4.76,11.06,8.49,16.81,6,9.26,9.19,7.09,12.64,14.41,2.78,5.88,1.24,8.38,4.16,18.4,1.76,6,4.68,7.62,4.65,12,0,3.75-3.93,5.3-4.65,10.72a16.88,16.88,0,0,0,0,4.17c1.06,10.07-.3,33.46-1.44,53.14-.19,3.26-.52,8.94-1.12,16.49-1.73,21.79-2.57,20-2.56,27.85,0,13.48,2.5,17.39-1,24.65-1.36,2.86-3.12,5.14-6.56,9.6-5,6.53-6.4,6.92-10.73,12.17-8.25,10-8.39,14.83-14.56,25.29a14.61,14.61,0,0,0-2.24,6.88,12.19,12.19,0,0,0,.16,2.72c.64,4.27-.74,12.83-4.81,20.17a42.4,42.4,0,0,1-9.76,11.53c-6.56,5.86-11.72,7.67-11.21,9.6.57,2.1,7.33,2.43,9.93,2.56,5.15.26,7.36-.7,8.32.64,1.35,1.86-2.13,4.76-1.44,9.45.38,2.56,1.71,3.61,3,5.76,5,8.06,1.84,18.28,2.88,18.41.77.09,1.65-5.44,5.93-12,1.5-2.31,2.15-2.79,2.88-2.88,2.73-.33,3.5,5.25,9.12,11.2,5,5.24,8.6,5.42,11.21,11.05a13.94,13.94,0,0,1,1.44,5c.57,7.44-5.87,15.9-11.21,15.69s-5.22-9.07-13.6-12c-5.72-2-13.4-.55-15.21,3.2a5.24,5.24,0,0,0-.32,3.21c.94,5.12.84,22.29-.48,53.94A14.33,14.33,0,0,1,1443,1198c-.83-1-1-1.56-1.92-1.92-1.7-.72-3.51.38-7,2.24-2,1-4.11,1.91-6.08,3-1.29.74-9.55,5.5-12.8,7-4.57,2.16-9.11,2.64-18.09,2.24-13.48-.59-19-2.35-33.62-4.32-30.49-4.09-42-1.19-43.22-.8a18.18,18.18,0,0,1-5.28,1c-.68,0-1.16,0-1.28,0-4.42-.1-13.5,13.73-22.73,23.21-3.71,3.81-5.3,4.72-6.72,5.28-3.42,1.36-7.24,1.07-14.89.48-3.54-.27-5.74-.61-9,.16a21,21,0,0,0-5.28,2.08c-5.19,2.9-6.6,6.61-12.17,13.77-5.27,6.78-5.45,5.32-7.84,9.28s-5.88,9.76-4.16,16.33c.93,3.57,3.2,5.79,6.56,9.12,5.74,5.71,8,4.62,10.88,8.81,2.25,3.29.72,3.8,3.85,13.28,1.64,5,2.29,5.53,4,11,1.47,4.75,2.21,7.13,2.4,9.92a30.58,30.58,0,0,1-2.08,12.81,45.94,45.94,0,0,1-5.92,10.88c-4.59,6.92-2.61,5.85-12.17,24.33-5.29,10.23-9,16.64-10.56,19.21-1,1.64-3.61,4.48-5.61,9.13a38.36,38.36,0,0,0-2.56,9c-1.71,10.88,2.12,17.24.32,27.85a9,9,0,0,1-2.56,5.44c-2.27,2-4.39,1.09-7.36,2.25-2.59,1-3.86,2.84-9,11.68-3.63,6.3-5.45,9.45-6.08,10.72-7,14.26-4.42,16.5-9.92,24.82-4.3,6.49-7.68,7.82-7.53,12.32.12,3.44,2.25,7,4.33,10.56,2.32,3.94,2.76,3.32,4,6.09,2,4.35.92,6,3.2,10.56,1.25,2.52,1.94,2.75,2.24,4.48.55,3.13-1.09,5.63-2.08,7.53-3.28,6.29-4,14.66-1.76,19.53,1.63,3.54,4.67,4.9,8.8,7.2a140.68,140.68,0,0,1,26.89,20.33c4.82,4.76,1.3,2.71,16,22.57,8,10.82,10.94,14,13.13,21a113,113,0,0,1,3.2,15.52c.61,4.37.56,5.66,1.44,12.17,1.5,11.1,2.46,13.25,4,15,.73.85,1.74,1.8,8.32,4.81,9.56,4.36,11.3,4.13,16.33,6.72,5.61,2.88,9.2,6.11,13.61,10.08a100.65,100.65,0,0,1,11.2,12.17c6.13,7.47,7.32,10.38,7.84,13.12a22.78,22.78,0,0,1,0,7.37c-.58,5.63-2,7.59-4.64,16.16-2.06,6.63-3.08,10-2.88,13.61a20.6,20.6,0,0,0,3,10.4c3.06,4.59,6.68,4.66,22.09,10.41,11.92,4.44,12.69,5.49,16.33,5.12,4.49-.46,12.22-3,14.4-3.68,4.19-1.36,5.81-2.14,7.69-1.28,3.08,1.41,2.26,5.15,6.24,8.32.68.55,3.63,2.89,6.88,2.4,3-.45,3.91-2.94,8.17-7.68,3.12-3.47,6.31-7,10.4-8.8,3.86-1.69,5.2-.37,13-.48,13.9-.21,19.43-4.6,27-.8a17.47,17.47,0,0,1,4.32,3q-.32,36.88-.64,73.79c4.31-.37,7.72,1.08,8.32,3.2.51,1.77-1,3.9-1.6,4.8-1.83,2.64-4,3.34-3.84,3.84.41,1.13,11.35-1.48,16.65.64a3.16,3.16,0,0,1,1.76,1.45c.51,1.07.11,2.51-1.44,5-3.14,4.94-6,6.19-5.6,7.52s2.9.27,6.24,2.24c2.58,1.53,2.21,2.76,4.8,3.84a8,8,0,0,0,5.44.64c.91-.27,1.23-.62,1.76-.48,1.36.37,1.65,3.23,1.93,5.61,1.26,10.79,2.38,11.65,1.12,13.44-1.85,2.61-4.74,1.52-6.57,4.48-1,1.58-.77,2.91-.64,6.73.38,10.8-.8,11.18.48,13s4.61,3.08,11.21,5.6c2.58,1,3.89,1.35,4,2.24.23,1.79-4.76,2.38-9,7.21-1.06,1.21-.2.54-4,6.56-2.53,4-3.71,5.57-3.2,7.36.38,1.31,1.15,1,2.4,2.89,1.12,1.68,1.51,3.86,2.24,8.16.47,2.72.35,2.79.64,3.2,1.47,2.06,5.08,1.39,11.53,1,12.26-.82,14.21.61,15,1.44,2.26,2.24,2.24,5.9,2.24,6.56,0,3.3-1.69,4.08-2.24,8.33-.31,2.32-.72,5.48,1,6.88,1.39,1.17,3,.12,9,0,3.54-.07,5.32-.09,5.76.8.84,1.68-4.2,3.92-4.8,8.64-.2,1.61.15,3.19,2.88,8.17,3.25,5.91,4.89,7.58,6.72,10.72,5.7,9.77,3.68,17.41,7.37,18.25.73.17.77-.15,9.28-2.24,1.63-.4,2.28-.55,2.72-.16,1.42,1.23-2.12,5.32-1.92,11.68a12.49,12.49,0,0,0,1.6,6.41c1.77,2.88,3.9,3,7.37,5.92,1.84,1.53,4.62,3.85,5.76,6.88,2.64,7-5.06,13.77-2.56,16.65,2.12,2.44,8.64-1.3,13,1.76.41.29,1.83,1.36,4,2.72,1.58,1,2.43,1.41,2.73,1.6,4.88,3.1-6,25.34,1.6,33.62,1.44,1.57,1.47.38,5.12,3,7.57,5.53,6.67,10.14,13.12,13.76,1.53.86,3.36,1.6,3.85,3.37.32,1.16-.21,1.8-.8,5.28-.22,1.29-.14,1.16-.48,3.68-.8,5.9-1.1,5.55-1,6.24.67,3.48,6.63,3.85,17.29,9.45,4.82,2.52,5.33,3.36,5.6,4,1.89,4.44-4.06,9.22-2.24,14.72a8.74,8.74,0,0,0,3.21,4.17l43.53,66.26,56.51,1.12a93.09,93.09,0,0,1,2.08,14.41,18.91,18.91,0,0,0,1.44,6.88c1,2.28,1.82,2.27,2.24,3.85.94,3.52-1.48,8.41-4.64,9.28-1.84.51-2.74-.67-4.8.16-1.46.58-1.32,1.29-3.37,2.72a9.73,9.73,0,0,1-5.12,2.08,7.46,7.46,0,0,1-4-1.12c-7.7-4.27-10.91-7.91-16.49-9.44-2-.55-6.5-1.8-9.28.48s-1.09,6-3.68,8c-2.43,1.85-5.26-.43-13.61-1.44-5.73-.69-9.33-1.13-12.64.8-2.79,1.62-2,2.95-6.57,8.8-4.33,5.56-4.83,4.1-10.24,10.57-2.55,3.05-3.72,4.9-5.76,5-2.4.07-4.23-2.4-5.12-3.52-5-6.31-7.88-4-22.89-14.57-10.33-7.26-10.75-9.59-15.37-9.92-2.82-.21-6.52.93-13.93,3.2-6.79,2.08-8.19,3.11-12,3a19,19,0,0,1-10.25-3,18.67,18.67,0,0,1-4.64-4.64c-12.38-16.31-12.19-12.76-17-20.65-2.11-3.49-3.61-6.61-6.56-7-1.3-.2-2.37.21-5.44,1.6-7.37,3.32-8.8,4.16-8.8,4.16-7.4,4.34-15.07,8.19-22.57,12.32-9.75,5.38-10.78,5.77-12.65,5.93s-2.33-.1-17.29-4.81c-4.81-1.51-9.93-2.15-14.56-4.16a9.58,9.58,0,0,0-5-1.12c-4.07.41-6.7,4.23-7.84,5.76-8.43,11.4-17.34,9.25-26.41,22.41-2.18,3.17-.67,1.85-5.76,11.53-4.93,9.37-6.74,11.34-15.21,25.45-6.44,10.72-7.07,12.38-12.48,21-3.48,5.51-6.46,10-8.49,13l-79.87-5a131,131,0,0,0-27,13.61,60.46,60.46,0,0,1-15.37,7.68c-5.21,1.7-8.66,2.83-13,1.92-5.48-1.16-7.23-4.53-11.84-4.32-3.46.16-6.17,2.23-7.84,3.84l-11.37,47.06-37.78,1q-5.43-7.84-10.88-15.68a84.47,84.47,0,0,0-13.13-5.13c-4.51-1.34-8.55-2-16.64-3.36-15.33-2.55-18.81-2.12-22.73-5a6.21,6.21,0,0,0-3.52-1.44c-3.39-.1-6.16,3.42-7.85,5.92-8.79,13.05-6.42,25.58-15.52,34.1-6.18,5.78-15.3,7.52-17,7.84-4.18.8-7.36.63-15.37,2.24-8.45,1.7-10.14,2.94-10.88,4.48s-.43,3,2.72,10.25c3.5,8.05,5.35,11.25,7.68,17.28,1.82,4.7,2.73,7,2.72,8.49,0,5.72-3.84,6.94-9,18.09-1.69,3.68-1.94,5-3.68,6.24-3,2.15-6.9,1.54-12.49.32-11.34-2.47-12.14-3.6-18.41-4.8-10.72-2.07-10.78.76-20.8-1.6-6.49-1.54-9.5-3.44-13.29-1.76-1.6.7-3,1.92-6.4,7.84-6.47,11.39-5.08,13.87-9.61,19a37.11,37.11,0,0,1-11.2,8.32c-2.83,1.37-3.75,1.35-8.33,3.52-5.87,2.8-6.27,3.75-8.48,4-3.1.36-6-1.62-11.52-5.6a110.14,110.14,0,0,1-14.57-12.8c-3.2-3.27-4.82-4.94-5.76-6.57-1.09-1.87-4.62-7.95-3.52-15,.45-2.94,1.52-4.95.32-6.57-1-1.39-3-1.53-4.49-1.6-7.57-.34-13.89.93-18.24,1.44a56,56,0,0,1-11.37.16l-36.81-13.44-48-16.17L732,2466.53l-1.44-19.37-17.6,2.08-6.09-5L658,2375.61l-54.9-15.85q6.79-15.6,13.6-31.21l-36.17-7L590.65,2177l-60.5-31.86-1-45.3-17.13-34.41L501.81,2064l-5.28-104.85q7.77-20.4,15.53-40.81a12.52,12.52,0,0,1-3.52-5.45c-1-3.21-.06-5.53.8-9.6,2.29-10.82-.37-12.42,2.24-15.37,3.07-3.47,7.35-1.93,10.72-6.4a11.9,11.9,0,0,0,2.08-4.64q.33-18,.64-36,17.7-23,35.38-46.1a33,33,0,0,0-2.56-15.68c-2.35-5.27-4.68-6.22-5.12-10.73-.49-4.93,1.71-9.74,3-12.64,1-2.28,2.08-3.9,3.52-7.69,1.61-4.23,1.61-5.62,1.28-6.72-.82-2.74-3.75-4-5.28-4.8-7.81-3.9-16.9-12.81-16-18.41.36-2.26,3.61-4.36,10.09-8.48a78.37,78.37,0,0,1,11.36-6.41c6.32-2.86,19.46-11,48.34-32.65q1.61-15.45,3.2-30.89l21.93-.8q3-18.49,6.08-37,11.61-8.16,23.21-16.33c.09-1.21,0-3-1.12-4a4.21,4.21,0,0,0-3.2-.64c-5.54.61-13.54-2.09-17.77-5.44a16.69,16.69,0,0,1-4.48-5.6l-19.69-31.7q4.34-10.25,8.65-20.49l-36-18.08-1.92-39.86,22.25-29.29-45.62-32.34c-8.27-2.69-12-1.49-13.92.16-1.72,1.5-1.64,3.12-3.85,4.48-3,1.89-8,1.77-9.92-.64-2.38-3,1.24-8.35-.64-9.6-.85-.56-2.71.36-6.4,2.24-2.28,1.16-4.12,2.24-5.45,3-8.37-5.36-13-9.27-15.68-12,0,0-2.39-2.41-3-1.92s2.21,4.32.8,6.88c-.34.61-.89,1.1-2.4,1.76s-8.95,3.89-14.57.16c-2.05-1.36-1.47-2.06-3.36-3-3.29-1.71-5.64.08-10.25-.48a15.59,15.59,0,0,1-7.52-2.88c-5.14-4-3.46-10-6.88-11.21-2.58-.88-3.9,2.41-11.85,5-5.23,1.69-7.37,1.14-8.32.81a10.11,10.11,0,0,1-5.44-5c-3-6.14,2.11-12.92,2.4-13.28,1.17-1.52,1.81-1.72,10.08-6.41,1.6-.9,8.16-4.62,13.77-8,5.8-3.49,6.19-3.29,6.72-4.16,3.36-5.57-4-12.68-.48-17.77,1.25-1.8,2.37-1.18,6.4-5.12a51.46,51.46,0,0,0,4-4.48c3-3.62,4.46-5.43,4.81-6.56,1.15-3.81-1.59-5.63-2.4-12.33-.32-2.63-.12-4.13.16-7.84.32-4.47.66-11,.64-19.53q10-42.25,20-84.52l-42.41-31.37-5.13-16.81-11.68-9.28a81.11,81.11,0,0,0-13.93-4c-1.7-.33-3.36-.6-5-.8q-1.28-6.57-2.56-13.13l-38.58,23.69-36-.48-9.45,9.76L255.31,1124c-9.16,3.28-14.58,6.91-17.93,9.76-1.23,1-3.9,3.46-6.24,2.72-1.6-.51-2-2.16-4.32-5a27.48,27.48,0,0,0-4.32-4.16L0,869.37l44.5-58.43c5.91.7,13.92.59,19.69-4.32,5.54-4.73,3.83-9.5,9.76-15.37,7.62-7.53,14.52-3.71,20.17-10.4,5.1-6,5.24-16,2.72-22.73-1.86-5-7-10.84-17.45-22.57-1.83-2.07-2.6-2.88-3.36-4.48-3-6.28-.14-12.64,2.88-22.57,3.19-10.48,4.78-15.72,4.65-18.73-.72-15.58-20.08-17.38-24-33.61-1.64-6.76,1.41-7.68,11.52-36,8.08-22.65,11.3-36.55,16.81-36.5,1.68,0,3.84,2.1,8.16,6.25,4.7,4.5,6.12,7.06,7.68,8.48,6.2,5.62,14.56-5.34,32-5.6,6.78-.1,6.7,1.34,12.32.64,2.12-.27,17.14-2.35,21.93-12.49,3.64-7.68-1.66-13.54,2.08-16.8,1.92-1.67,4.89-1.54,22.09,3.2,7.35,2,12.84,3.66,13.45,3.84,24.49,7.3,29.07,8.34,33.29,5.92s2.58-5,7-10.56c9.66-12,21.47-5.39,39.37-17.29,7-4.62,8.1-7.56,19.05-14.41a107.11,107.11,0,0,1,13.13-7.2c21.08-9.48,32.43-3.75,39.69-13.13,3.65-4.7,1-6.43,5.61-13.28,5.94-8.87,11.79-8.1,17.76-15.21,8.58-10.2,7.06-24.29,6.73-26.89-1.89-14.72-12.07-23.31-15.37-26.09-11.09-9.36-28.6-15.09-43.22-9.44A47.72,47.72,0,0,0,312.13,437c-4.76,5.7-4.5,8.35-7.68,9.61-9.69,3.82-31-13.32-31.05-29.94,0-6.61,3.31-15.06,4.32-17.6,2.64-6.68,4.52-8.23,5.44-13.29.85-4.65.21-8.49-2.08-16.81-3.7-13.45-5.63-20.15-8.32-25.45-12.28-24.21-37.68-30.24-35.38-37.77.92-3,4.74-1.47,13.93-7.53A63,63,0,0,0,267,283,72.15,72.15,0,0,0,274,271.67c4.51-9.12,4.31-13.85,7-24,2-7.33,5.87-21.32,16-34.25,3.77-4.82,6.67-8.52,11.68-11.85,16.47-10.95,30.76-1.33,57.79-7.84A92.65,92.65,0,0,0,387.21,186c33.89-17.53,40.22-48.85,64.5-56a93.15,93.15,0,0,0,15.53-5.76c5.18-2.48,12.09-5.79,17-10.57,13.82-13.53,3.68-31.29,17-42.42,4.78-4,10.64-5.52,16.49-7,11.14-2.89,14.18-.19,22.73-3.84,6.62-2.82,11-7.08,15.37-11.36C560.87,44,563.43,41.53,563.92,38.29Z"/></g></g></svg>