<svg xmlns="http://www.w3.org/2000/svg" viewBox="0 0 2284.35 1756.7"><g id="Layer_2" data-name="Layer 2"><g id="Haiti"><path d="M1043.9,964.76c5.42,4.2,7.49,4.13,14.3,8.21,4.67,2.8,5,3.64,11.19,7.23a40.82,40.82,0,0,0,5.95,3.11,29.43,29.43,0,0,0,12.89,1.56c8.9-.37,7.43,2.13,27.63,5,8.77,1.23,11.34,1.08,16.29,3.12a54.42,54.42,0,0,1,11,6.37c4.7,3.49,3.63,4.06,6.37,5.53,5.84,3.12,10,.48,15.72,3.82a16.1,16.1,0,0,1,4.39,3.82c7,1.09,10.8,3.76,13,6.1,2.73,2.84,3,5.06,6.37,8.64a31.48,31.48,0,0,0,9.35,6.51c11.21,5.74,22.88,10.83,27.34,12.75,9.2,1.3,14.81,3.67,18.27,5.67a20.39,20.39,0,0,0,7.56,2.68c1.59.21,4.89.61,7.88-1.12,1.11-.65,1-.91,1.7-1.14,2.91-.95,5.73,3.45,9.92,6.23,2.63,1.76,7.18,2.4,16.29,3.69s12.7,1,14.3,3.68c1.15,2,.17,3.53,1.85,6.94a15.61,15.61,0,0,0,3.82,4.82c5.62,5.11,8.5,4.16,12.75,7.79,1.4,1.2,4,5.91,9.06,15.3,2.56,4.71,3.84,7.07,4,7.36,6,13.36,1.27,19.85,6.52,27.63,2,3,3.11,6.52,4.95,9.63a5.19,5.19,0,0,1,.85,3,5.45,5.45,0,0,1-1.41,3.26c-1.93,2.33-4,2.14-9.07,4.53-2.54,1.19-3.83,1.81-4.67,2.84a8.93,8.93,0,0,0-1.42,8.35c1.8,4.91,7.72,4.73,7.93,7.94.11,1.55-1.27,1.79-6.8,7.65-3,3.23-3.73,4.33-5.24,4.39-1.82.07-3.17-1.46-5.8-4.54-3.2-3.73-5.23-6.09-6-9.77-.82-4.13.8-6-.71-7.79s-4.73-1.52-7.65-1.42c-.71,0-6.85-1.07-19.12-3.26-10.32-1.83-15.47-2.75-18.28-3.82-7.61-2.89-10.78-6.06-20.82-9.07-2.56-.76-4.7-1.26-6.09-1.55l-55.53-1.42-34.14-13.88-25.21-24.37a14.21,14.21,0,0,0-6.8-5.8c-3.81-1.4-5.67.24-9.92-.15-6-.54-10.46-4.61-15.44-9.2s-5.57-7-10.2-9.21a24.65,24.65,0,0,0-7.79-2.13c-20.9-3.19-19-4.74-31-5.66-7.07-.54-9.1-.11-12.32-2-4.3-2.5-6.27-6.52-9.49-6.1-2,.27-2.08,2.75-3.83,2.84-1.91.1-3.59-2.54-6.65-7.51-2.15-3.48-2.57-4.81-4.54-6.23a14,14,0,0,0-4.53-2c-3.77-1.16-5.59-.87-8.22-1.41a19,19,0,0,1-8.35-4.25,80.58,80.58,0,0,0-9.35-14.59,61,61,0,0,0-10.63-10.91c-9.53-7.39-16.2-7.15-20.68-15a23.24,23.24,0,0,1-2-4.68c-.45-1.39-3.5-10.71-.28-18.27,1.93-4.55,3.72-2.77,18.69-14.59,3.85-3,7-5.7,12.33-8.36a46.46,46.46,0,0,1,8.21-3.26c5.26-1.49,8.93-1.45,15.44-1.7,12.17-.47,10-1,16-1,9.31.08,18.39.27,25.78,5.81C1041.66,962.65,1041.36,962.79,1043.9,964.76Z"/><path d="M618.52,1682.51c-4,2.2-4.52,11.64-1,14.87,1.51,1.38,2.72.68,7,2.69a22.88,22.88,0,0,1,6.65,4.54c1.79,1.82,2.63,3.55,4.25,6.94,3.33,7,3.42,10.44,6.66,12.18a7.48,7.48,0,0,0,3.26.85l41.36.85,25.92,1.56c1.35-1.06,3.37-2.58,5.95-4.25,4.8-3.12,5.91-3.13,6.52-4.54,1.51-3.5-3.13-8.68-7.65-13.74-3.26-3.64-5.69-6.35-10.06-8.64a29.08,29.08,0,0,0-12.18-3.25l-22.52,12.18a86,86,0,0,1-30-9.49C629.45,1688.16,623,1680,618.52,1682.51Z"/><path d="M851.11,1579.67c-1.8.72-2.49,5.3-.57,7.51.82.93,1.8,1.1,5.53,1.56,9.52,1.15,10.29.9,10.9.28,1.38-1.4,1-3.77.43-8.08-.1-.71-.89-6.21-2.13-6.23s-1,5-4.81,7.65c-.71.49-1.9,1.31-3.12,1-1.45-.37-1.56-2-3.68-3.11A3.24,3.24,0,0,0,851.11,1579.67Z"/><path d="M530.69,1252.31c-4.09,1.62-5.27,7.46-3.11,10.2,2.44,3.1,9.09,2.14,11.33-1.42a5.7,5.7,0,0,0,.56-4.81A7,7,0,0,0,530.69,1252.31Z"/><path d="M564.83,1233.19c-6.66,4.2-6.54,9.43-12.47,12.18a18.17,18.17,0,0,0-3.82,1.84,13.83,13.83,0,0,0-4.39,5.38c-.36.77-3.48,7.55,0,13.46a12.87,12.87,0,0,0,5,4.68c6.93,3.86,11-1.35,19.26,1.7a34.09,34.09,0,0,1,11.19,6.94,14.36,14.36,0,0,0,4.53,3.4,13.3,13.3,0,0,0,6.8,1c3-.42,4.16-1.87,9.21-5.67,3.94-3,8.13-5.56,12.18-8.36,6.26-4.31,6.56-4.5,7.23-5.38,3-3.91,4.52-10.31,1.84-15.86a14.88,14.88,0,0,0-5.38-6c-4.34-2.83-7.54-1.85-13.32-3-7-1.37-5.55-3.45-15.58-6.8-11-3.66-16.17-2.3-18.56-1.41A20.61,20.61,0,0,0,564.83,1233.19Z"/><path d="M602.23,1298.35c-.64,2.63.72,4.89,2.55,7.93,1.43,2.4,3.29,5.48,6.94,6.8a11.72,11.72,0,0,0,5.66.43c6.33-.76,6.63-4.51,14.31-7.94a5.46,5.46,0,0,0,3.12-2.69,3.78,3.78,0,0,0-.29-3.54c-1.74-2.27-6.87-.63-6.94-1s5.57-3,12.75-2.41c.73.06.53.07,8.22,1.7,6.78,1.44,8.36,1.72,8.5,2.55.28,1.66-7.28,3-7.09,4.53.14,1.08,3.94,2,7.09,1a11.34,11.34,0,0,0,4.25-2.83c2-1.9,1.94-2.84,3-3.68,2.35-1.93,6.21,0,13.17,2.26.08,0,5.25,1.3,15.59,3.83,7.42,1.82,9,2.15,11.61,2a25.85,25.85,0,0,0,10.34-3.11c4.37-2.38,6.65-5.24,10.06-9.49,3.81-4.76,5.74-7.25,5-9.92-.88-3-4.57-4.31-4.82-4.39a8.48,8.48,0,0,0-5.38,0l-43.63.42L660.73,1290c-9,1.41-15.14.62-19.12-.42a60.6,60.6,0,0,0-7.51-1.56c-3.69-.53-6.64-.92-10.2-.14-2.66.58-2.29,1.08-6.09,2.26-5.35,1.66-6.3.73-9.49,2.27C606.67,1293.19,603.05,1294.94,602.23,1298.35Z"/><path d="M654.92,1333.19c-3.1,1.61-4.73,5.76-3.68,7s4.59-.46,6.23-1.42,4.94-3.43,4.39-5S657.59,1331.82,654.92,1333.19Z"/><path d="M648.69,1317.47c2.51,1.72,6.37,5.44,5.52,8.36-.46,1.61-1.91,1.38-4.67,4.11a18,18,0,0,0-4.39,6.65,13.29,13.29,0,0,0-.71,7.94c.1.4,1.64,6.25,6.66,8.07,3,1.09,5.79.2,10.34-1.27,4-1.3,3.75-2,6.23-2.55,3.6-.82,4.9.48,13.46,2.4,7.82,1.77,11,1.64,13,1.42a34.73,34.73,0,0,0,5.38-1.13c8.78-2.17,11.82-.35,18.56-1.42,5.6-.88,10-3.52,18.84-8.78,6.52-3.89,7-5.11,12.6-7.79a55.93,55.93,0,0,1,14-4.82,60.07,60.07,0,0,1,15.86-.71c8.17.43,12.28.64,17.71,2.41,4,1.32,7,2.89,11.05,2,2.88-.64,2.95-1.76,5.95-2.69,3.83-1.18,6.88-.31,13.6,1.28,4.19,1,8.42,1.82,12.6,2.83,10.36,2.51,12,1.75,21.53,3.68,13.56,2.75,12.08,4.63,25.08,7.23,5.86,1.17,12,1.95,22.24,3.26s12.45,1.32,16,3.25c5.43,3,6,6,12.89,10.2a38.86,38.86,0,0,0,11.19,5c12.29,3.08,17.71-3.28,26.07,1.28,2.38,1.29,3.54,2.68,6.94,3.68,3.83,1.12,7,.73,10.34.28,10.7-1.44,16-2.15,18.41-2.83,13-3.71,12.2-7.66,20.4-8.5,1.68-.17,2,0,20,4.25,11.36,2.71,14.52,3.44,19.41,5.52,6.07,2.6,9.1,3.89,11.9,6.8,5.24,5.46,3.79,9.7,9.35,15.16a26.07,26.07,0,0,0,10.2,6,33.61,33.61,0,0,0,20.54.28c6-1.7,9.94-4.52,14.73-7.93,3.91-2.78,6.22-9.06,10.2-8.78.57,0,.84.18,2,.28a17.74,17.74,0,0,0,6.8-.71c5.5-1.53,22.71-.06,36.26,1.14,8.94.78,13.41,1.18,16.72,1.7,11,1.71,10.74,2.89,26.2,6.09,7.72,1.59,15.22,4.69,23.09,5.1,1.82.09,6.57.26,7.09,2.12.56,2-4.5,3.62-4.68,7.37-.16,3.39,3.79,6.3,5.81,7.79a17,17,0,0,0,6,3c6.76,1.75,13.88-1.55,18.13-5.66,3.81-3.7,2.56-5.39,6-7.94,2.19-1.64,4.55-2.31,16.29-2.55,11.26-.22,17-.3,19.41,1.28,3.71,2.38,4.7,5.48,10.34,7.79a25.31,25.31,0,0,0,6,1.56c5.47.9,7.28-.13,15.72-.43,7.93-.27,11.49.45,13.17.85a41.61,41.61,0,0,1,5.67,1.85c8.13,3,16.66,1.64,23.37.56,8.72-1.4,16-2.58,22.67-7.93,2.56-2.07,4-3.93,10.76-15.87,10.57-18.69,15.9-28.22,18.42-37.11,2.77-9.82,1.22-10.32,4.1-16.71,4.79-10.62,12.59-17.1,18.28-21.82,5.19-4.31,10.11-8.39,18-11.33,7.52-2.81,13.62-3,23.09-3.4,6.88-.26,10.39-.36,13.59,1.27,2.17,1.11,5.27,3.86,11.48,9.35,3.3,2.92,4.12,3.78,6,4.25,3.68,1,5-1.29,10.48-1.84,5.85-.58,5.87,1.81,11.9,1.14,4.62-.52,6.24-2.11,9.49-1,1.43.5,1.44.91,5,2.55,2.53,1.18,3.83,1.78,5.38,2,1,.14,4,.53,6.23-1.14,1.28-.94,1-1.54,2-2.4,1.92-1.67,4.88-1.09,13.88.85,5.72,1.22,5.43,1.18,6,1.27,5.34.89,8.9,1.48,12.75.57,4.21-1,4-2.69,12.46-6.8,3.83-1.88,5.75-2.81,6.66-2.84,7.1-.17,8.73,10.37,21,16.44,4.74,2.34,7.65,2.32,8.79,2.26,3.46-.19,6-1.73,11-4.81,4.44-2.71,6.69-4.11,8.08-6.66s1.5-5.15,1.56-7.93c.16-7.34-2.54-10.87-.57-12.75.76-.73,1.21-.25,5.52-1.84a21.81,21.81,0,0,0,3.12-1.28c3.69-2.3,5.19-10.74,1.28-16.15-2.12-2.92-4.11-1.67-6.8-4.53-1.37-1.45-2.46-3.42-3.54-14.59-.83-8.45-1.21-12.73.14-15.44,1.58-3.18,4-4.89,8.35-7.93,4.63-3.25,7.36-3.76,12.05-7.94a18.65,18.65,0,0,0,3.68-3.82c3.3-5.16,3-13.22-.85-17.71-2.29-2.63-4.23-2.19-14.45-5.1a151,151,0,0,1-17.57-6.09c-9.42-4-14.13-6-16.57-10-1.36-2.28-2.16-5-5.24-7.09a13.48,13.48,0,0,0-6.37-2.12c-13-1.39-20.86,4-30.6.56-1.66-.59-2.09-1.26-5-2.54-6-2.69-8-2.17-10.76-4.11-3.49-2.48-4.62-6.47-5.25-8.64-1.89-6.65,1.21-9.25-1.13-15.44a14.47,14.47,0,0,0-4-6.09c-2.92-2.57-5.07-2.06-10.2-4.25-5.88-2.52-5.1-4.07-9.07-5.25s-5.13.37-14,1c-5.94.42-9.69.64-14.31-.85a29.61,29.61,0,0,1-8.36-4.39,19.28,19.28,0,0,1-5-4.82c-2.34-3.51-1.23-5-3.11-7.51-2.42-3.17-5.21-1.94-8.93-4.67-2.23-1.65-2.94-3.36-6.09-10.77-2.11-5-4.3-9.89-6.37-14.87-4.75-11.44-5.56-13.17-7.93-15-3.35-2.61-4.72-1.48-8.08-4.67a58.33,58.33,0,0,1-6.94-8.5c-1.23-1.81-2.48-3.83-4-3.68-1.25.12-1.58,1.65-2.41,1.55-1.36-.15-1.52-4.32-3-9.2a58.76,58.76,0,0,0-3-7.23,96.35,96.35,0,0,0-7.23-13.6c-2.32-3.48-3.38-4.21-14.87-15.86-9.37-9.49-8.54-8.88-9.63-9.77a72.71,72.71,0,0,0-21.82-11.9,34.51,34.51,0,0,0-5.95-1.85c-7.1-1.16-11.45,1.66-15.29-1.13a26.18,26.18,0,0,0-2.55-2c-2.21-1.38-3.39-1.35-5.25-2.41a14.1,14.1,0,0,1-3.68-3.26c-2.52-3.22-2.64-7-2.69-9.35-.11-5.38,1.55-7.46,1.84-10.48.16-1.59.29-7-12.75-18.27-13.58-11.76-28.16-18.38-34.28-21.11-5.26-2.35-10.37-5-15.58-7.51-7.35-3.48-9.78-4.56-12.32-7.5-.91-1.06-5.6-6.47-5-13.74.39-4.42,2.54-7.34,5.38-11.19a42.66,42.66,0,0,1,12.18-10.91c5.24-3.17,9.65-4.38,14.88-5.81,5.66-1.55,10.44-2.86,16.71-2.69,7.65.21,7.74,2.35,16.43,2.69a42.36,42.36,0,0,0,15-1.84,28.51,28.51,0,0,0,10.06-5.38,26.57,26.57,0,0,0,7.79-11.48c1-3,2.51-7.39.85-12.32a16.49,16.49,0,0,0-4.82-6.94c-3.72-3.46-6.72-3.85-15.58-7.08-7-2.56-10.48-3.83-14-5.95a46.28,46.28,0,0,1-11.76-9.92,49.57,49.57,0,0,1-7.22-12.18c-4.75-10.34-2.33-11-5.67-16-4.85-7.24-10.42-6.58-14.59-15-1.47-3-2.44-6.41-1.28-7.37,1-.79,2.64.7,7.09,1,2,.14,3.49.22,5-.56,2-1.09,1.55-2.51,3.4-4.54,2.62-2.85,5.33-1.94,10.91-5.8,1.35-.94,2-1.53,2-2.27,0-1.47-2.61-2.33-5.8-4-4.8-2.45-7.2-3.68-8.22-5.38-3-5.06,4-10.73,1.28-18.84a9.45,9.45,0,0,1-.85-4.53c.18-1.64.76-1.76,3.25-6.8.68-1.37.93-2,1.56-2.13,1.27-.34,2.33,1.46,4.11,2.55,2.93,1.8,4.7-.83,7.93.57,2.4,1,2.59,2.77,4.54,2.83.31,0,1.28,0,3.68-1.84,3.74-2.86,3.77-4.66,6.09-5.52,1.51-.57,1.7.12,5.24.14,3.72,0,7.27,0,8.5-1.84,1.1-1.68-.77-3.14-.57-8.36.11-2.81.67-2.95.29-4-1.56-4.08-11.05-2.89-11.48-5.38-.18-1,1.46-1.46,4.11-4.82,1.88-2.38,3-3.84,3-5.8a6.17,6.17,0,0,0-4.25-5.53c-1-.24-1.44.09-5.39,1.28-3.33,1-5,1.5-6.09,1.41-2.11-.16-3.5-1.25-6.23-3.4-3.35-2.63-5-3.94-5.67-6.23-1-3.6,1.56-5.78.14-7.65s-4.14-.07-6.79-2.12c-2.42-1.87-2.7-5.29-2.84-6.94a14.37,14.37,0,0,1,1.42-7.23,18.19,18.19,0,0,1,6.09-7.51c1.58-1.09,6.35-4.38,10.48-2.83,2.29.86,2,2.32,6.09,5.67,3,2.49,4.53,3.73,6.38,3.68,2.61-.07,3.06-2.49,8.92-8.22,3.12-3,4.59-3.92,6.94-7.08,2.77-3.72,2.89-5.4,2.69-6.51-.29-1.69-1.44-2.75-3.11-4.25,0,0-1.71-1.53-7.65-4.54a24.68,24.68,0,0,1-2.69-7.08c-1.13-5.35-1-13.94,3-15.72,1.27-.57,3.18-.55,4.11.42,2,2-1.73,6.81.42,9.35.43.5,1.47.81,3.55,1.42,4.8,1.4,6.81,1.19,7.08,2.12.35,1.23-3,2-3.83,5s1.27,5.85,1.85,6.66,2.28,3.2,4.81,3.68c4.69.89,8.88-5,10.48-7.22,1.81-2.53,4.31-6,3.26-9.35-.65-2-2.17-2.48-5.66-5.53s-5.45-4.74-6.66-7.08c-3.13-6,1.92-10.57-.85-20.26-1-3.45-2.12-4.57-2.55-4.95-3.47-3.13-9.7-2.36-13.74-.43-2.66,1.27-2.23,2-6.23,4.39a41.7,41.7,0,0,1-8.36,3.69c-3.52,1.12-6.64,2.12-10.77,1.84a21.92,21.92,0,0,1-6.37-1.42,17.17,17.17,0,0,1-8.08-6.37c-1.79-2.79-1.69-4.79-3.25-8.5a30.78,30.78,0,0,0-6.38-9.49l-26.63-30.32a7.46,7.46,0,0,0-2-.85,8.23,8.23,0,0,0-4,.15c-3.16.55-6.35-2.19-8.92-4.4-2.18-1.86-1.66-2.12-5.81-6.23a16.81,16.81,0,0,0-4.67-3.68,13.22,13.22,0,0,0-5.25-1.28l-75.92-35.13a15.23,15.23,0,0,1-5.38-.42c-3-.8-4.73-2.34-7.51-4.53-6.68-5.27-6.65-4.15-10.77-7.79-5-4.45-4-5.15-7.5-7.94-2.68-2.12-4.13-2.39-15.44-6.37-10.4-3.66-12.66-4.66-15.16-6.09-3.72-2.13-3.12-2.42-8.64-6.24-6.18-4.26-6-3.26-20-11.19-2.83-1.6-5.08-2.91-8.49-3.54-2.64-.48-3.34-.07-6.38-.71-2.67-.55-2.91-1-7.65-2.69-4-1.39-6-2.09-8.5-2.26a16.37,16.37,0,0,0-6.8.7,16.87,16.87,0,0,0-6.23,4.11c-5.58,5.51-4.37,9.95-8.36,11.62-1.46.61-3.53.31-7.65-.29a47.91,47.91,0,0,1-8.35-2c-8.76-2.93-9.12-5.53-17.14-7.93-3.08-.92-4.18-.88-6.66-2.13-2-1-2.94-1.83-7.65-6.09-3.7-3.34-7.71-6.34-11.33-9.77-1.57-1.48-2.47-2.4-4.11-2.83-3.83-1-7.51,1.73-8.36,2.4-2.87,2.29-4,5.38-5,8.08-.83,2.33-.51,2.48-1.7,6.23s-1.84,5.76-3.25,6.8c-2.14,1.58-5,.93-6.94.57-6.92-1.3-14.08,0-21.11-.14-1.49,0-9.26-.16-17,.42-13.44,1-14.09,3.17-29.32,5.1-15.41,1.95-11.15-.73-25.78.85-3.93.42-9.56,1.19-13.32-2.12-1.85-1.64-1.86-3-4.39-4.82-1.58-1.11-2.95-1.52-8.78-2.83-7.31-1.65-7.1-1.44-8.22-1.85-4.17-1.51-6.16-4-9.34-7.22-2.71-2.7-8.61-7-20.4-15.58-4.76-3.47-6.86-4.86-9.64-7.93-4.77-5.3-6-9.46-6.37-10.91a22.36,22.36,0,0,1-.57-7.23s.65-10.33.29-28.18c-.36-17.41-4.27-19.69-.85-24.65s8.44-4.69,12.75-12.18c.49-.87,1.41-3.13,3.25-7.65,3.93-9.65,4.64-12.62,6.66-12.89s2.94,2.71,7.65,4.25a15.45,15.45,0,0,0,5,.7c1.1,0,5.11-.05,12-3.68,2-1.06,2.77-1.62,8.36-5.38,9.26-6.23,8.64-5.64,9.35-6.23,8.52-7.18,10.88-19.18,9.91-19.69-.19-.1-.4.28-2.83,2.55-.56.52-2.84,2.64-4.68,4.1a21.25,21.25,0,0,1-5.66,3.69c-2.46.89-3.66.13-10.63-1.28-7.15-1.44-8.53-1.17-13.45-2.69a48.56,48.56,0,0,1-6.52-2.69c-2.53-1.26-3.81-1.91-4.11-2.69-1.19-3.12,4.63-9.79,11.48-11.19a13.85,13.85,0,0,1,7.65.42c3.62,1.35,3.86,3.46,6.37,3.54,2.67.09,3.25-2.28,8.22-4.1a23,23,0,0,1,4.67-1.14c3.67-.6,7.08-1.17,10.62,0,3.37,1.11,3.47,2.68,9.35,5.24a14.76,14.76,0,0,0,3,1.14c4.64.51,6.67-5.27,13.17-9.35,3.44-2.16,3.55-1,12.47-4.11,7.08-2.5,9-4,14.59-6.23,8.87-3.63,12.58-3.44,20.4-5.67,13.79-3.93,23.41-10.56,31.3-16a142.8,142.8,0,0,0,22.38-18.41,127.21,127.21,0,0,1,20.54-16.43,16.22,16.22,0,0,1,8.36-2.83c3.65-.1,5.58,1.34,9.21,2.4,4,1.17,4.76.37,13.45.57,10.89.25,16.45.37,23.09,2.41,2.56.78,4.53,1.62,7.79,1.7,4.46.11,6-1.33,9.78-1.14,4.11.21,4.41,2,9.06,3.4,6.36,1.9,7.9-.84,18.7,0,5.29.42,8,.66,10.2,2.41,2.06,1.63,2.85,3.57,6.66,6.38,2.56,1.88,3.64,2.07,4.11,2.12,2.8.33,6.52-1.34,7.36-4.53.07-.26.82-3.08-.71-4.53-2-1.87-5.45.64-8.07-1.42-1-.81-2-2.39-1.56-3.12,1.22-2,12.34,4,21.25,2.84a31.19,31.19,0,0,0,6.09-1.42c2.13-.8,2.61-1.33,5-2.13a14.93,14.93,0,0,1,5.52-1.13c1.95.1,3.38.86,6.66,3.12s4.46,4,8.5,6.37c1.19.71,2.33,1.3,3.11.85s.59-2,1.28-4.39a14.6,14.6,0,0,1,2-4c2-2.8,6.15-3,9.78-3.4a133.71,133.71,0,0,0,17.28-3.11c6.13-1.55,5.92-2.39,14-4.53,10.3-2.73,12.59-1.89,13.88-1,3.68,2.56,2.54,7.86,5,8.36s4.21-5.21,10.34-8.92c2.95-1.78,5.58-2.23,8.78-2.84,4.38-.82,5.81-.31,16.15-.7,6.14-.23,8.14-.51,9.49-2.13,1.67-2,.74-4.14,2.41-5.95s4.34-1.47,8.64-1.27c13.43.61,17.19-1.29,24.51.85.73.21,2.15.66,4.25,1.13a64.55,64.55,0,0,0,8.78,1.28c4.58.51,4.62,1.66,13,4.39,2.73.88,6.26,1.77,13.32,3.54,6.71,1.68,8.46,2,11.9,3.26a64.31,64.31,0,0,1,8.64,4c10.26,5.5,17.77,3.69,32.44,8.93,10.54,3.76,23.77,10.81,29.88,15.44a36.33,36.33,0,0,0,8.36,4.81,35.86,35.86,0,0,0,7.51,2.13c5.41,1,8.61,1.57,11.33-.14,2.2-1.39,1.8-2.83,4.11-3.83a7.2,7.2,0,0,1,7.22.85c1.65,1.43,1.25,3,2.41,5.38,1.52,3.15,4.14,4.53,7.23,6.38,7.84,4.71,12.7,7.63,16.57,12.18,3.26,3.83,2.74,5.2,7.51,10.77,4.5,5.26,6.7,6.07,7.79,6.37,1.5.42,2.87.41,4.25,1.56,2.13,1.76,1.2,4.46,2.4,5,2.16.89,5.79-6.92,9.07-6.24,1.4.3,2.13,2.14,3.54,5.81,2,5.28,1.58,7.19,3.54,11.47.68,1.47,2.8,6.1,4.54,5.81s2.58-4.89,2.83-7.22c.23-2.15,0-3.58.42-3.68s1.18,1.83,3.12,5.09c1.59,2.68,2.42,4,3.82,5,.35.23,3.53,2.27,5.67,1.14,3.29-1.75.65-9.19,3.4-10.49,2.38-1.11,7.2,3.1,9.35,5.53a32.5,32.5,0,0,0,3.68,4.11,13.07,13.07,0,0,0,5,3.11,9.88,9.88,0,0,0,8.64-1.41c3.75-3,2.85-8.7,4.25-8.79,1-.06,1.58,3.09,4,8.08,1.88,3.94,3.18,6.65,5.8,9.06.94.86,5.37,4.93,11,4.68,4.09-.18,5.06-2.43,9.64-2.84a16.77,16.77,0,0,1,8.35,1.56c5.6,2.55,4.88,6,11,11,4.3,3.48,5.07,2.13,11.48,6.94a81.38,81.38,0,0,1,7.22,6.24,29.23,29.23,0,0,1,4.25,4.53,22,22,0,0,1,3.4,7.93c.67,3.11,1.42,6.56-.43,9.07-1,1.33-1.61.94-2.55,2.26-2.09,3-.68,7.36-.14,9.07,1.09,3.4,2,2.93,3.54,7.08,1,2.67.64,3,2,6.8a51.94,51.94,0,0,0,2.26,5.38c1.59,3.39,2.13,3.92,2.55,4.25,1.34,1.05,2.8,1.2,5,1.42,2.63.27,4,.41,5.24-.28,2.6-1.42,3.26-5.45,3.12-8.08-.28-5.1-3.75-7.25-2.41-10.06.5-1,1-.79,2.83-3.11,1.54-1.94,2.3-2.9,2.55-4.11.52-2.51-1.66-3.37-3.54-8.22-1.13-2.92-.46-2.92-1.84-7.22s-2.73-6.29-2.12-6.8c.91-.76,3.95,3.44,9.06,3.54a17.76,17.76,0,0,0,4.25-.85c7.39-1.93,7.9-2.95,10.91-3.26,5.18-.51,5.57,2.34,9.77,1.56,5-.91,4.91-5,9.78-6.09,5.42-1.23,8,3.23,11.9,1.28,2.92-1.49,4.26-5.54,5.09-8.08,1.31-3.95.65-5.77,2.13-6.66,2-1.21,5.83.75,8.07,2.84,3.06,2.84,2.91,5.6,4.68,5.81,2,.23,2.62-3.41,6.8-5.67,1.48-.8,3.3-1.06,6.94-1.56,5.9-.82,8.9-1.19,10.91.43a6.69,6.69,0,0,1,2.4,5.1c0,3.27-2.89,3.91-5.38,8.07-2.06,3.43-2.22,7.34-2.55,15.16-.2,4.91.25,6.2,1.13,7.08,1.12,1.12,3.21,1.26,7.37,1.56s3.49-.29,7.65,0c2.45.16,3.77.44,4.67-.43,1.1-1,0-2.49.71-3.54,1.69-2.38,9.18,2.26,18.84.85,1.86-.27,4.25-.64,4.54-1.84.68-2.86-11.44-7-10.77-9.49.32-1.18,3.44-1.73,6-1.13,3.39.81,3.48,3.22,7.65,5.09,2.88,1.3,3.77.57,5.95,1.85,2,1.19,1.56,2.21,4.81,6.51,2.64,3.48,3.23,3.33,4,5.24.9,2.34.4,3.52,1.7,5.1.82,1,1.65,1.31,3.68,2.27,0,0,2.78,1.32,6.24,3.26a22.59,22.59,0,0,1,7.5,6.94c2.24,3.44,1.21,4.47,4.11,10.2,1.05,2.07.93,1.43,3.26,5.52,3.71,6.52,3.69,7.56,5.52,8.93s3.58,1.58,7.37,2.26a32,32,0,0,0,9.06.71c1.53-.14,11.44-1.05,16.58-8.07,1.76-2.41,3-5.61,5.1-5.53a12.68,12.68,0,0,1,3,1.28c1.44.71,2.52,1.29,3.26,1.7a39.77,39.77,0,0,0,4.67,2.4c2.67,0,3-3.91,6.24-4.53,1.46-.28,2.86.43,5.66,1.84,4,2,4.33,3.29,6.94,4.11a12.76,12.76,0,0,0,6.66,0c3.59-.71,5.09-2.06,10.06-5,7.75-4.52,6.42-2.6,13.31-6.65,3.44-2,5.8-3.7,8.22-2.84,1.84.66,2.37,2.31,4.11,2.27,1.43,0,1.66-1.15,4.25-2.83a13.29,13.29,0,0,1,6-2.41c2.57-.27,3.37.7,4.25,0,1.7-1.37-1-5.4.85-7.79.82-1.1,2.4-1.27,5.52-1.56,3.85-.36,8.44-.78,13.88,1.27,3,1.13,2.61,1.64,5.53,2.7a27.72,27.72,0,0,0,10.76,1.41c18.85-.43,21.17,0,23.52,1.56.64.42,5.24,3.52,5.38,7.93.06,1.94-1.28,4.18-4,8.64-2,3.33-3,5-4.1,5.53-3.76,1.81-7.44-2-9.78,0-1,.85-.42,1.65-2.12,5.66-1.12,2.64-1.7,4-2.69,4.11-1.49.22-2.19-2.44-5-4.39-1.83-1.28-3.75-1.53-7.51-2-6.42-.77-11.46-1.37-12.89,1.13a4.54,4.54,0,0,0,.85,5c1.37,1.39,3.06.7,8.5,1.84,3.11.65,3.66,1.11,4,1.42,1.17,1.18.71,2.27,1.7,6.23s2,5.08,2.55,5.52a5.45,5.45,0,0,0,2.83,1.28c.35,0,1.84.19,4.39-1.28a20.35,20.35,0,0,0,3.68-3c2.56-2.06,4.86-.58,10.63-1,7.23-.52,9.19-3.25,13.59-1.84a14.85,14.85,0,0,1,4.68,2.55,16.78,16.78,0,0,1,2.55,2.83,14.41,14.41,0,0,1,2,3.11c1.34,3.24-.6,5.36.43,6.95,1.43,2.2,6.57,2.59,7.93.7.95-1.31-.12-4.42-2.27-10.62-.7-2-1.2-3.27-.56-4.25,1-1.58,3.74-.58,5.24-2.27,1.21-1.37.8-3.57.56-4.81-1.12-5.94-6.83-9.31-7.64-9.78-6-3.39-9.59,1.14-13.75-1.55-5.33-3.47-6.67-14.81-2-19.13,1.66-1.52,3.63-1.76,6.52-2.12,6-.75,9.89.93,16.29,2.26,2,.42,5.76.8,13.31,1.56,7.19.73,14.31,2.35,21.53,2.55,3,.09,6,0,7.79,2.13,1.06,1.25,1.1,2.61,1.14,7.08.09,10.72-.06,11.92,1,13.74.33.57,2.25,2.17,6.09,5.38,4,3.36,7.08,5.81,7.08,5.81,3.72,3,4.11,3.18,4.68,4.11,1.83,3,.8,8.32.71,8.78-1.46,6.81-7.29,12.92-8.36,14q-.15,21.26-.28,42.5c8.12,8,14,13.25,18.69,16.71,1.74,1.3,4.91,3.55,5.39,7.09.38,2.82-1.35,3.57-.85,6.8.55,3.59,2.91,4.14,2.83,7.5-.05,2.1-1,3-.28,4.25s2.31,1.65,3.68,2c2.81.7,3.41-.19,4.39.42,2.55,1.61-1.14,7.9,2.12,12.61a14.37,14.37,0,0,0,3.83,3.4c3,2,4.55,1.86,5.52,3.26.83,1.18,1.17,3.36-1,7.79a20.28,20.28,0,0,0-2.69,6.37,22.47,22.47,0,0,0,.71,11.76c1.54,5.1,3,4.55,3.68,8.64.7,4.28-.72,6.16,1,9.21.85,1.51,1.36,1.34,3.4,4a22.52,22.52,0,0,1,3.54,5.67c2.08,5.47-.54,11.13-1.13,12.32-1.59,3.22-2.47,2.42-5,6.8-1.89,3.33-3.27,5.77-3.25,9.07,0,2.23.65,3.25,0,5.38-.31,1-.66,1.47-2.27,4.11-1.52,2.48-2.27,3.72-2.55,4.25-1.14,2.18-2.83,5.42-2.13,8.78.41,1.92,1.19,1.95,2.7,5.95,0,0,.65,1.75,1.13,3.54.95,3.58,2.36,12.86-1.42,14.87-1.88,1-4.57-.06-6-1-2.29-1.53-1.86-3.26-4.67-5.8-1.1-1-3-2.74-5.1-2.41-1.64.26-2.25,1.64-3.54,3-3.09,3.2-5.85,1.75-12,4.25-3,1.2-7.29,2.95-10.06,7.08-1.83,2.74-1.22,3.9-3.68,7.37-1.6,2.25-3.19,4.49-6,5.52-3.55,1.33-4.71-1-8.5.43-2.93,1.08-3.22,2.81-6.23,3.26-2.38.35-4.14-.44-4.39.14s1.33,1.46,3,3.26c2.13,2.33,1.71,3.26,3.68,6.23,1.11,1.66,2.77,3.28,6.09,6.52s3.74,3.28,4.4,4.53c.92,1.78.81,3,.84,7.93.05,6.16.09,9.27.71,10.63,1.25,2.72,2.3,2,5.39,6.65,1.73,2.64,2.19,4.08,3.54,4.25s1.74-.91,5-2.26c1.77-.75,2.66-1.13,3.25-.85,1.42.66.75,3.24,2.69,7.22,1,2,1.51,2.1,1.7,2.13,1.4.14,2.87-2.87,3.83-4.82,1.6-3.28,1.75-5.1,2.41-5.1s.88,2.22,2.55,6.37a23,23,0,0,0,2.83,5.53,17.45,17.45,0,0,0,4.11,4c5.28,3.84,6,7.63,11.61,13a43.9,43.9,0,0,0,15.58,9.49A50.07,50.07,0,0,0,2254.6,733a114.72,114.72,0,0,0,12.32.28c4.29-.22,6.61-.67,7.93.85s0,3.47,1.7,6c1.36,2,2.7,1.44,4,3.4,1.56,2.4.94,5.4.57,7.22a10.63,10.63,0,0,1-2.55,5.53c-2.08,2.14-3.92,1.67-4.25,3-.56,2.19,4.13,5.65,6.65,7.51,2.29,1.68,3.29,2,3.4,3.11.17,1.65-2,3.16-5.24,5.39-4,2.77-5.35,2.73-6.8,4.67-1,1.29-1.26,3-1.84,6.23-1,5.76-1.82,10.39.57,12.47,1,.9,2.12.85,2.55,2a3.68,3.68,0,0,1-1.42,4c-1.69,1.13-3.29-.43-7.36.14-1.5.21-2.66.37-3,1.13-.49,1.19,1.33,3.15,3.68,5.67,1.76,1.88,2.05,1.86,2.41,2.69.91,2.08,0,4.32-1.13,6.94-1.3,3.06-2.19,5.14-4.39,6.94-2.45,2-4.91,2.36-9.21,3-3.87.55-7,1-9.21-.85-1.55-1.32-1.79-3.09-2.41-3s-.57,2.68-1.27,7.09c-.6,3.79-.93,5.7-2.12,6.23s-2.14-.83-6-2.13c-2.57-.87-4.7-1.59-6.8-.7a6.68,6.68,0,0,0-3.26,3.4c-.09.18-1.89,4-.14,6.51,1.17,1.69,2.81,1.16,3.82,3a4.32,4.32,0,0,1,.14,4c-.87,1.62-2.49,1.2-4.81,3-.22.16-3.52,2.74-3,4.53.66,2.15,6.36,1.41,6.8,3.26.27,1.11-1.56,2.4-2.69,3.26-7.1,5.34-5.28,7.4-12.18,12.46-3.48,2.55-6.3,4.62-10.63,5.53-4.63,1-6.66-.3-11,1.13-.78.25-2.44.85-7.94,5.1-7.21,5.57-6.42,6.13-15.3,14-2.51,2.24-6.29,5.5-5.52,7.08.48,1,2.5.78,3.26,2.41a2.86,2.86,0,0,1,0,2.41c-1.06,2-4.45.31-6.38,2.13-2.36,2.22.71,6.61-2.12,10a5.46,5.46,0,0,1-3.12,2c-2.7.47-4.17-2.06-8.07-3.26-1.8-.56-3.23-.51-6.09-.43-8.2.25-11.18,3.21-13.6,1.42s-1.09-5.85-2.83-6.37-2.57,3-6.66,5.52c-4.83,3-9.22,1.64-10.34,4.39-.38.92.18.9,0,3.54a13.34,13.34,0,0,1-1.7,6.24,6.06,6.06,0,0,1-2.69,2.83c-1.81.75-3.77,0-5.39-.57-2.54-.94-2.74-1.82-3.82-1.7-2.34.26-3.71,4.62-4.39,6.8-1.71,5.45-.43,7.34-2.55,9.63-1.55,1.68-2.95,1.44-4,3.4-.64,1.24-.37,1.89-.56,5-.28,4.42-1.06,6.53-.43,6.8s1.55-2,4.39-3.12a9.22,9.22,0,0,1,2.69-.56c5.93-.56,7.88,1,9.49,0,3.17-2,.42-11.35,1.56-11.62.81-.19,1.81,4.5,4.68,5a4.27,4.27,0,0,0,2.69-.71c2.55-1.31,2.8-3,5.1-5.52,1.4-1.51,3.64-3.93,6.51-4,.84,0,1.67.17,4.82,2,4.56,2.62,4.93,3.44,7.08,4.54s5,1.37,10.34,1.84c4.39.38,5.54.17,9.78.42s7.62-.64,11.19,1.28a12.25,12.25,0,0,1,1.55,1,31,31,0,0,0,1.85,12.89c1.6,4.21,3.35,5.74,4.67,11,.3,1.21.63,3.31,1.28,7.51,1,6.34,1,8.15,2.69,9.77.27.26.33.28,4.81,2.55,3.45,1.74,5.18,2.62,5.53,2.83,2.55,1.57,1.9,1.81,6.66,5.67a47.13,47.13,0,0,1,5.38,4.82,7.88,7.88,0,0,1,2,2.69c1,2.78-.85,4.56.14,5.8s2.73.19,7.51.57a29.69,29.69,0,0,1,3.26.43q.63,32.43,1.27,64.87-5.66,32.45-11.33,64.88l-26.35,8.36a32.15,32.15,0,0,0-10.48,5.52,11.83,11.83,0,0,0-2.55,2.69c-1.18,1.8-1.21,3.06-2.12,6.52s-1.38,5.21-2.13,6c-1.44,1.42-2.95,1.12-7.36,2.12a50.82,50.82,0,0,0-5.81,1.7l-.57,44.48c-17.73-2.59-22.83-1.13-23.8,1a5.23,5.23,0,0,1-1.55,2.27,6,6,0,0,1-6.52.42c-2.2-1.41-1-3.54-3-5-2.86-2.09-6.91,1.4-10.06-1-1.19-.9-1.48-2-2.41-2-1.14.09-1.32,1.91-2.83,3.4a7.64,7.64,0,0,1-6.09,2c-3.16-.46-3.19-3.41-8.08-7.5a34.84,34.84,0,0,0-7.65-4.68,50.23,50.23,0,0,0-8.92-3.4,18.89,18.89,0,0,0-8.22,5c-1.43,1.53-2.8,3.59-5.66,4.67a6.32,6.32,0,0,1-3.12.57c-2.78-.33-3.92-3.07-6.23-5.66-2-2.25-5-3.72-11-6.66-5.52-2.69-8.32-4-10.48-3.12-.66.27-2.15,2-5.1,5.38a58.49,58.49,0,0,0-3.83,4.68c-2,2.85-2.11,3.82-3.11,5.24-3.74,5.3-10.37,3.2-17.71,9.49-1.27,1.09-2.42,2.31-2.12,3.26s2.27,1,6.09,2a35.81,35.81,0,0,1,6.65,2.27c3,1.47,4.07,3.19,6.38,5.52,5.69,5.75,7.63,4.06,13.88,9.92a38.38,38.38,0,0,1,7.08,8.78c1.76,3.06,1.64,3.93,3.4,8.07,2.76,6.51,6.59,15.53,14,17.85a12.88,12.88,0,0,0,3.54.57l38.81,43.35c-1.08,6.79-1.32,10.55-1.13,12.6a2.06,2.06,0,0,1-.29,1.42c-.9,1.24-3.25.25-6.65.28-3.07,0-2.57.83-7.51,1.42-2.68.32-3.69.18-6.52.71s-4.13.78-4.53,1.55c-.94,1.81,2.58,4,4.53,8.79,2.13,5.23-.2,7.18,1.42,11,1.27,3,3.64,4.07,14.59,8.92,6.82,3,13.39,6.66,20.4,9.21,5.72,2.08,9.19,2.93,12.46,6.51,1.87,2,1.14,2.21,4.82,7.37,4.32,6.06,6,6.83,6.23,9.77.17,2.63-1.09,3.75-.28,6.66a8.63,8.63,0,0,0,2.41,4.11c2.06,1.85,4,1.23,8.92,2,4.38.66,8.69,1.32,11.9,4.39.17.17,1.2,1.43,3.26,4a61.94,61.94,0,0,0,4.39,5.24,16.68,16.68,0,0,0,9.63,5.38c3.62,1,5.5,2.06,9.07,3.69,6.09,2.77,13.75,6,19.07,8.23,13.93,5.87,20.89,8.8,26.25,10.18,5.54,1.43,12.66,2.79,12.89,5.67a2.73,2.73,0,0,1-.85,2,16.52,16.52,0,0,1-.56,2.83,18.18,18.18,0,0,1-3.26,6.24c-1.85,2.37-12.38,21.39-41.36,76.06a32.74,32.74,0,0,1-.85,7.37c-.8,3.43-1.34,5.72-3.26,7.08-2.16,1.53-3.51.07-5.24,1.28-3.43,2.39.58,9.07-3.12,16-.85,1.6-2.12,3-4.67,5.67-4.14,4.41-6.35,5.35-6.8,8.22-.17,1,.27,2.54,1.13,5.52,1.19,4.1,1.79,6.15,3.4,7.22,2.09,1.4,3.45-.13,6.09.85,1.84.69,2.87,2.06,6.52,9.07,4,7.78,4.61,9.64,6.51,10.06,3.12.68,6-3.32,7.37-2.27.7.56.18,1.93,0,4-.33,3.79,1,4.61,1.84,9.35.68,3.91,1.52,8.76-1,12.46-1.31,1.93-2.52,2.07-3.12,4.11-.86,3,.8,5.83,1.28,6.66a10.56,10.56,0,0,0,4.82,4.39c2.83,1.22,4.14.12,5.52,1.27,1.58,1.33,1.09,3.86.71,8.64-.76,9.45.4,9-.57,13.18-.63,2.69-2.31,5.62-5.66,11.47-5.74,10-6.46,8.76-8.93,14.45-1.52,3.5-1.9,5.46-3.68,6.09-2.81,1-6.26-2.34-9.07-5-1.31-1.22-17.21-16-28.61-24.5-4.87-3.64-7.17-4.83-8.5-8.22-2.23-5.66,1.3-9.62-2-14.87a60.26,60.26,0,0,0-5.24-6c-2.09-2.24-3.71-3.85-4.11-4.25-7.2-7.18-14-16.09-25.5-27.06a98.15,98.15,0,0,0-12.32-10.34c-4.68-3.22-5.13-2.83-10.77-6.37-10.68-6.7-16-10-19.26-15.58-2.24-3.81-3.08-7.45-6.52-8.5-2.07-.63-3.19.25-6.66.14-3.66-.12-5.87-1.23-8.78-2.27-6.28-2.25-7.29-1.14-15.72-3.11a63.65,63.65,0,0,1-15.3-5.1c-9-4.6-14.5-11-16.86-9.35-1.08.76-.53,2.51-2.26,3.82-.65.49-1.84,1.09-4.54.85a19.59,19.59,0,0,1-9.2-3.54c-1.78-1.2-4.68-3.35-11.48-10.62-5.13-5.49-5.06-6-7.08-7.23a26,26,0,0,0-12-3.54,33.17,33.17,0,0,0-8.5.43c-15.16,2.68-37.35,6.6-56.95,4.67-4.53-.45-9.69-1.28-17.13-.28-3,.4-7,1.59-15,4,0,0-10.11,3-23.94,5.67a14,14,0,0,1-6,0,15.18,15.18,0,0,1-6.94-4c-6.61-5.81-22.73-3.08-40.94,0a38.84,38.84,0,0,1-13,.29,35.35,35.35,0,0,1-8.78-2.55c-5.14-2.28-6.24-4.32-9.21-6-5.9-3.25-9.16.66-23.09,1.41-9.32.51-10.35-1.1-21.67-.28-1.8.13-3.7.31-11.47,1.42-26.29,3.73-25.25,4.62-33.58,5-1.47.06-11.3.43-19.26,1a29,29,0,0,0-10.91,2.41c-.84.39-1.51.76-2.83,1.27-2.37.91-6.9,2.63-8.93.85-1-.92-.32-1.8-1.27-3-2.09-2.6-8.5-2-12.75.85-2.1,1.39-1.81,2.08-3.82,3.11-3.12,1.59-6.28,1.18-8.79.85a21.09,21.09,0,0,1-8.49-2.69c-7.83-4.92-8.61-16.66-16.15-27.62-.26-.38-1.46-2.09-2.13-1.84-1.13.41.11,6.07-.14,15-.06,2-.16,3.33-1,4.68-1.35,2.18-3.1,2-4.82,4.53a8.77,8.77,0,0,0-1.56,4.39c-.11,2.6,1.33,3.55,2.41,6.23,2.39,6-1.3,9.78,1.42,12.47,1.24,1.23,2.32.73,4.82,2.83a13.18,13.18,0,0,1,2.69,3c2.08,3.32,2.65,8.75.14,11.19-1.1,1.06-1.78.59-4.82,2s-3.93,2.57-5.38,3.4c-5.08,2.89-12.92-1.12-18.27-3.83-5.58-2.81-6.09-4.36-10.34-5.24-.66-.13-1.68-.31-9.21-.28-9.21,0-9.29.3-11-.14-5.19-1.3-4.82-3.7-10.2-5a23.7,23.7,0,0,0-10.48.14,63.45,63.45,0,0,0-6.66,2.27c-6.58,2.43-6.47,2.77-7.93,2.83-4.6.2-5.51-3.2-9.63-3-3.79.2-3.57,3.1-8.5,4.81-3.81,1.33-4.62-.17-14.17.57a30.63,30.63,0,0,0-6.23.85c-5.21,1.43-5.45,3.46-8.78,4-1.15.17-2,.06-11.9-4-5.36-2.19-6.63-2.78-8.78-2.55-.45,0-5.31.63-7,4.11-1.74,3.7,1.08,8.73,1.28,9.06,1,1.66,2.17,2.81,2.27,5a3.9,3.9,0,0,1-.57,2.83c-2.06,2.24-8-3.09-16.29-2.12a16.1,16.1,0,0,0-6.66,2.12c-3.49,2.12-3.86,4.4-8.07,7.8a18.15,18.15,0,0,1-5.67,3.54c-4.79,1.64-6.14-1.09-13.6-.71-4.43.23-6.11,1.3-9.35.14-2-.72-1.86-1.32-4.53-2.69-2.35-1.21-6.6-3.39-10.62-2.27-3.13.88-3,2.88-6.8,4.39-2,.78-3.8.82-7.37.85-4.68,0-8.82.1-13.74-1.55-2.47-.83-1.87-1-7.65-3.55-3.83-1.69-6.75-2.79-9.49-3.82a141.36,141.36,0,0,0-13.74-4.68c-5.46-1.45-6-1-13.6-2.4-7.15-1.35-12.79-2.93-24.08-6.09-8.42-2.36-9.17-2.8-12.32-3.12-5-.52-7.22.18-10.34-1.56-3.84-2.13-3-4.55-6.52-6.37-2-1.07-3.94-1.07-12.89,0-5.52.66-8.29,1-9.91,1.27-12.52,2.2-21.42-2.64-44.63-4.11-10.84-.68-14.87,0-23.23-2.4-5.9-1.7-9.24-3.58-14.3-6a177.94,177.94,0,0,0-32-11.48c-11.94-2.84-21.65-2.46-41.08-1.7-16.67.66-25.15,2.5-30.73-3.11A63.18,63.18,0,0,0,962,1581.94c-2.44-1.67-3.73-2.53-5.81-3.12-4.06-1.16-5.57.29-14,1-5.56.46-6.44,0-9.35,1-2.2.79-2.9,1.5-6.66,3.54a72.4,72.4,0,0,1-8.21,4c-3.75,1.41-5,.84-16.57,1.27-9.45.35-11.63.84-12.89-.84-2.16-2.88,1-8.63,1.69-9.92,3.19-5.81,6.86-5.32,11.76-12.61,1-1.55,1.51-2.51,2.83-3.26,3.68-2.06,9.09.27,10.77,1s1.55.93,3.68,1.84a20.63,20.63,0,0,0,6.52,2c3,.3,5.11-.34,7.79-1.13,2.27-.68,2.48-1.05,2.55-1.28.41-1.43-2.86-4.11-6.37-5.24-2.72-.87-3.26-.07-8.79-.42-2.19-.14-4.39-.48-8.78-1.14-4-.6-4.52-.79-6.8-1-3.94-.34-4.46,0-6.51-.28-3.11-.5-4.63-1.82-8.65-4.39-5.89-3.78-5-2.49-11.47-6.52-7.23-4.53-9.94-7.2-11.33-6.23-1.17.81.27,3-.28,6.23-1.11,6.42-9.28,11.54-16.44,12.47-5.68.73-10.61-1.21-13.31-2.27-5-1.95-4.54-3.2-8.08-4-2.73-.59-4-.08-15.15,2a75.73,75.73,0,0,1-7.79,1.27c-5.83.24-6.79-1.36-12.19-1.13a22.72,22.72,0,0,0-10.34,2.83c-2.18,1.23-5.06,2.86-5.52,5.81a6.29,6.29,0,0,0,1,4.39c1.09,1.47,2.23,1.25,2.69,2.41.68,1.69-1,4.09-2.55,5.38a9.92,9.92,0,0,1-5.8,2c-6,.57-10.82,1-15.59-2.26a16.21,16.21,0,0,1-6.23-8.08c-1.56-4.89.85-7-1-9.77-2.8-4.15-11-3-13.6-2.69a17,17,0,0,0-9.35,3.82c-1.54,1.35-2.66,2.32-3.11,4-.82,3,1.25,5.23,5.38,12.89,2.18,4,2.65,4.31,2.83,5.52a11.51,11.51,0,0,1-5.66,11.19c-2,1.17-5.82,2.38-7.37.85-1.24-1.21-.1-3.22-1.42-7.93-.37-1.32-.83-2.93-1.56-3s-1.08,2.13-2.69,4.53a14.4,14.4,0,0,1-6.8,5.24,15.91,15.91,0,0,1-7.22.85c-3.69-.22-11.37-.67-12.89-5.1-1.4-4.07,3.84-9.37,4.11-9.63,3.37-3.34,6.69-3.34,7.65-6.52.42-1.4.13-2.58-.43-4.81-.73-3-1.46-5.9-4.11-7.37a8,8,0,0,0-7.65.28c-2.22,1.35-1.76,2.83-4.25,4.54-2.8,1.92-4.4.72-5.8,2.26-1.76,1.93,0,4.61,0,10.49,0,3,0,6.07-1.56,9.2a15.46,15.46,0,0,1-11.76,8.22,11.9,11.9,0,0,1-6.51-.85c-1-.43-4.93-2.23-5.81-6.37s1.69-8.41,4.67-9.5c1.53-.55,2,.18,4.11-.42a10.37,10.37,0,0,0,5.52-4.11c2-3,1.65-6,1.42-8.21-.19-1.86-.87-5.32-2-5.39-.69,0-1,1.26-2.55,4.25a42,42,0,0,1-5.1,7.94,13.06,13.06,0,0,1-7.79,5.09c-2.51.72-4.39,1.26-6.38.71s-1.79-1.7-3.68-2.41c-4.06-1.51-7.62,2.94-10.76,1.14-1.42-.81-1.58-2.22-2.41-2.13-1.39.16-1.88,4.22-2.27,6.09-.56,2.69-2.06,6.18-19.55,20.12-7.33,5.84-5.4,3.9-13.17,10.06-11,8.74-12.26,10.54-16.29,11-4.94.62-8.3-1.43-13.17,1.13-1.56.82-1.9,1.38-4.54,3.54a97.44,97.44,0,0,1-10.62,7.37,214.7,214.7,0,0,0-26.21,20s-3.89,3.53-8.78,9.06c-3.22,3.64-4.84,5.5-5.52,7.37-.45,1.23-1.89,5.88,4.1,16.29,8.45,14.66,21.36,22.87,26.07,30a26.34,26.34,0,0,0,3.4,4.25,29.63,29.63,0,0,0,5.1,4.11c3.51,2.23,5.23,2.29,7.08,4.67a11.73,11.73,0,0,1,1.27,2.13c2.42,5.4-.86,13-5.09,17.7a18.28,18.28,0,0,1-6.1,4.68c-5.06,2.32-10,1.53-12.6,1.13a73,73,0,0,1-8.08-2c-3.46-1-4.65-1.48-6.51-1.28-2.88.32-4.38,2-6.24,3.26-3.69,2.5-10.25,2.14-23.37,1.42a56.61,56.61,0,0,1-9.91-1.14c-3.85-.83-6.93-1.54-10.2-3.82a16.62,16.62,0,0,1-6.38-7.37c-1.76-4.44.62-5.63-.56-10.34-1.41-5.56-5-5.1-8.93-13.45-1.45-3.13-2.55-6.38-2.55-6.38-1-3-1.18-4.27-2.41-7.36-1.38-3.49-2.24-4.6-2.83-5.24a12.69,12.69,0,0,0-4-2.84c-7-3.68-10.09-12.57-10.35-13.31-1.25-3.73.1-3.31-1.27-9.92-1.21-5.82-1.91-9.19-4.67-11.76-.88-.81-3.61-2-9.07-4.39-3.8-1.66-4.95-2-6.66-3.26a14.75,14.75,0,0,1-5.24-5.94c-1.43-3.26-.25-4.7-1.84-10.35-.64-2.25-1-3.39-1.7-4-2.68-2.09-6.25,1.8-11.19.42-3.63-1-5.84-4.26-7.08-6.09-2.33-3.42-1.74-5.07-3.55-7.79-.62-.93-1.7-2-9.77-6.09-6.23-3.19-5.71-2.6-7.37-3.68-4.47-2.93-4.15-4.58-9.49-9.35-4.7-4.22-5.66-3.57-9.34-7.51-2.39-2.55-2.15-3-5.39-6.51a11.2,11.2,0,0,1-2.41-3.4c-.93-2.22-.29-3.13-1-4.25-1.34-2.15-4.67-.41-9.2-1.85-4.12-1.3-7-4.51-9.92-7.79-2.78-3.11-2.65-4-4.53-5-3.33-1.69-5.6.13-9.35-.85s-5.22-3.65-7.51-6.1c-3.22-3.43-8.61-5.45-19.41-9.49-15-5.62-17.74-4.29-22.24-8.92-3.33-3.43-2.78-5.14-7.5-9.63-2.61-2.48-6.38-6-12-7.51-4.7-1.26-5.1.36-10.91-.85a28.67,28.67,0,0,1-12-5.1c-4-3.06-4.25-5.29-7.93-6.66-2.06-.76-3.62-.68-7.51-.42-10.48.68-15.76,1-17.28,1.56-2.74.92-2.18,1.26-11.62,7.5-7.41,4.91-11.22,7.41-15.86,9.35a41.6,41.6,0,0,1-12.19,3.54c-3.16.36-5.59.19-20.25-3-11.26-2.43-15-3.45-18.56-4.53-7.71-2.36-11.62-3.6-14.16-6.24-4.59-4.75-3.09-8.92-7.51-11.47-4.87-2.82-10.24.2-11.76-2.41-1.23-2.12,2.15-4.42,1.14-7.79-.35-1.14-1.34-2.87-9.07-6.23a84.21,84.21,0,0,0-10.06-3.68c-11.58-3.25-14.16-1.6-17.42-4.82-2.48-2.45-4.32-6.68-3.68-10.48.52-3.13,2.35-3.69,2.12-6.24-.31-3.43-3.73-3.52-5.38-8.21-.27-.77-1.64-4.64.14-7.65,1-1.76,2.22-1.65,2.55-3,.56-2.28-2.74-3.63-5.38-7.93s-.88-5.53-3.83-10.2c-1.39-2.2-3.14-5-6.37-6.09-2.68-.92-4.66-.1-5.38-1.27s.92-3.46,2.12-5.53c3-5.14,1-6.78,3.4-16.57,1.34-5.53,2.32-9.62,5.38-14s4.74-4,6.24-7.65a16.9,16.9,0,0,0-1.14-14.88c-2.19-3.41-4.73-3.72-4.67-5.95.05-1.93,2-2.7,6.8-6.94,3.73-3.28,5.6-4.92,6.51-6.65,1.86-3.53.3-4.92,1.42-12,.15-1,.06-.19,2.83-10.62,1.39-5.22,2-7.64,3.54-11,.78-1.71,1.43-2.89,2.27-4.39,3.39-6.07,5.21-7.62,8.92-13.6,2.65-4.26,4-6.45,4.68-9.2s1.76-7.1-.43-10.63-5.49-2.49-7.65-6.23c-2-3.38-1-7.24-.7-8.36,1.08-4.35,4.3-6.78,6.8-8.64,7.3-5.45,14.69-1,18.13-6a24.1,24.1,0,0,0,2.55-5.52c1-3.16.93-4.93,2.4-5.81a4.62,4.62,0,0,1,3.83,0c2.8,1.22,2.07,4.13,4.25,5.52,2.45,1.58,6.73-.41,15.3-4.39,2.17-1,2.8-1.39,4.67-2.12a72.72,72.72,0,0,1,8.78-2.69c3.81-1,3.59-.74,4.4-1.14,3.86-1.93,3.59-5,6.37-5.52,1.63-.33,1.94.68,6.23,1a10.68,10.68,0,0,0,3,0c2.54-.52,2.87-2.18,5.52-3.82a14.65,14.65,0,0,1,7.65-2c2,0,3.3-.09,4.68.71,1.63.94,1.57,2,3.68,4.82,1.7,2.23,2.82,3.71,4.53,4.25,2.33.73,4.65-.63,6.66-1.85,2.82-1.7,4.06-3.36,9.63-9.91,4.21-4.95,4.63-5.33,5.53-5.81s2.52-1.14,11.19-1.42c4.72-.15,4.55,0,8.21-.14,3.12-.13,3.57-.27,10.91-.85,4.52-.35,6.81-.53,8.36-.56a59.7,59.7,0,0,1,10.48.56c2.86.45,2.73.7,6.23,1.42,5.14,1,6.2.68,15.16,1.84,5.85.76,7.45,1.19,8.64,1.56,2,.63,2.79,1.07,6.09,2.12,3,1,3.28.88,5.95,1.7,2.94.91,3.87,1.39,8.5,3.12,5.47,2,5.81,2,7.51,2.69,3.5,1.46,6.56,3.61,11.75,8.78,11.89,11.85,10.67,15.34,18.42,20.26,1.53,1,5.08,2.54,12.18,5.67,7.77,3.42,11.65,4.77,13.46,5.38,4.31,1.45,7.62,2.29,9.77,2.83,12.11,3.06,11.77,1.37,19.55,3.83,3.67,1.16,5.87,2.2,9.21,1.7,1.42-.22,2.05-.57,6.65-1.84,0,0,3-.83,5.39-1.42,8.62-2.12,17.59-.59,19.26-.28,3.73.67,6.22,1.12,9.21,2.83,3.77,2.16,3.53,4.82,7.93,7.79,1.64,1.1,5.61,3.78,8.08,2.27,1.24-.77.45-2.55,1.84-3.55,1-.7,2.26-.46,4.81,0s4.36.8,4.54,1.7c.25,1.28-2.92,2.88-3.4,3.12-4.2,2.11-8,1.43-8.08,2s4.38.59,8.93,3.4c2.6,1.61,2.48,2.44,6.37,5.24a32.47,32.47,0,0,0,6.09,3.69,25.59,25.59,0,0,0,10.91,1.84c4,0,9.55,0,15.16-2.83,2-1,3.07-2,4.95-1.85s2.63,1.15,7.23,3.55a16,16,0,0,0,4.25,1.84,10.71,10.71,0,0,0,7.22-2c2.3-1.7,2.33-3.27,3.54-3.25,1.7,0,1.87,3.11,5.39,5.66a13.84,13.84,0,0,0,3.68,1.84c3.21,1.19,4.83.8,7.36,1.42,3,.73,2.68,1.75,6.66,3.68,5.41,2.62,7.26,1.4,12.33,4.25,2.08,1.18,3.64,2.08,4.81,4,2.06,3.32,1.34,7.1,1,8.5a11.89,11.89,0,0,0,5.95-.29c2.91-1,3.92-2.69,5.81-4.1,1.14-.85,2.85-1.77,15.16-1.84,11.16-.07,11.8.67,14.87-.57,3.9-1.57,5.29-3.73,8.36-3.26,2.61.4,3,2.17,6.51,4,1,.5,2.34,1,9.21,2s10.3,1.39,12.47,1.13c5.69-.66,5.82-2.67,11.05-3A18.16,18.16,0,0,1,648.69,1317.47Z"/><path d="M1208.5,20.79a13,13,0,0,0,3,8.5c2.49,2.8,5.83,3.54,9.92,4.39,4.45.92,6.72.62,10,.85,7.21.49,7.43,2.64,19.41,6.09,7.86,2.26,8.15,1.45,16.43,4s7.87,3.3,12.75,4.39c7,1.56,9.3.25,20.54.42a148.81,148.81,0,0,1,19,1.56c5.35.79,10.72,2.15,21.25,4.82,5.77,1.46,12.71,3.23,22,5.95,7,2.07,13.7,4.18,22.38,6.94,12.36,3.92,13.73,4.49,17.7,5.1,7.81,1.18,9.33,0,16.15,1.7,7.55,1.86,7.49,3.75,14,5,6.37,1.18,6.82-.54,15.86.15,6.73.5,6.73,1.48,15.58,2.26a47.88,47.88,0,0,0,12.89-.28c4.23-.72,8.13-1.38,9.07-3.83s-1.29-5.17-4.53-8.92c-7.43-8.57-11.15-12.85-16.58-16.57-4.61-3.16-11.57-6.12-25.5-12-5.79-2.47-8.69-3.7-11.33-4.68-14.38-5.33-17.85-4.27-30.45-8.78-11.07-4-8.84-4.93-18.7-8.07-11.66-3.72-15.73-2.66-22-7.37-8.66-6.55-10.2-7.79-10.2-7.79-2.69-2.17-3.57-3-5.38-3.68-2.58-1-5.27-1.12-11-.15a101.16,101.16,0,0,0-11,2.55c-5.16,1.4-11,1.36-22.52,1.28s-13.12-.87-20.4-.14a111.47,111.47,0,0,0-13.31,2.41c-13.09,2.83-17.24,4.68-29.32,7.36-3.24.72-8.07,1.72-14,2.69"/></g></g></svg>