<svg xmlns="http://www.w3.org/2000/svg" viewBox="0 0 2439.85 1429.98"><g id="Layer_2" data-name="Layer 2"><g id="Honduras"><path d="M1343.84,24.81c-1.57.86-1,2.74-2.65,7.35a26.88,26.88,0,0,1-2.65,5.59c-2.6,4.08-5.17,5.15-4.71,6.48.36,1,2.32,1.51,3.83,1.17,1.7-.38,2.06-1.65,4.41-4.41a80.09,80.09,0,0,1,6.77-6.77,19.43,19.43,0,0,0,2.35-2.64c1-1.42,1.57-2.14,1.47-2.95-.17-1.47-2.13-2.33-3.53-2.94C1347.2,24.85,1345.29,24,1343.84,24.81Z"/><path d="M1351.19,14.51c-.87.93-.93,1.88-1.76,5.3a23.36,23.36,0,0,0-.74,2.94c0,3.35,3.63,7.07,6.51,6.73,1.06-.13,1-.68,3.09-1.88a20.4,20.4,0,0,1,6.62-2.2,16.29,16.29,0,0,1,4.3-.44c2,.1,2.55.55,3.31.11,1.44-.85,1.36-3.67,1.32-5.08-.06-2.32-.69-3-.22-4.74a4.9,4.9,0,0,1,1.33-2.43c1.43-1.3,2.87-.55,6.06-1.43a7.61,7.61,0,0,0,3.64-1.66c2.18-2.13,2.33-6.55.78-7.5-2.08-1.27-6.91,3.81-8.17,2.65-.67-.63.6-2.2-.22-3.53-1.13-1.84-5-1.29-5.51-1.22-1.3.2-3.31.75-7.51,4.2-6.1,5-6.43,7.61-10.26,8.82A5.34,5.34,0,0,0,1351.19,14.51Z"/><path d="M1254.4,28.63a8.85,8.85,0,0,1,4.56-.14c5,.6,7.79-.24,7.94.44s-1.84.81-3.82,3.09c-1.17,1.34-1.15,2-2.06,2.35-1.46.51-2.2-1-4.12-.74-1.43.22-1.55,1.16-3.38,1.48-.72.12-1.89.33-2.5-.3-.89-.91-.14-3.12.88-4.41A5.77,5.77,0,0,1,1254.4,28.63Z"/><path d="M1232.78,35.69c-2.49,1.12-2.94,2.13-4.27,2.06s-1.49-1.13-3.09-2.06c-2.13-1.24-3.88-.52-9.12-.29-1.91.08-3.82,0-5.73,0-9.19.09-12.7-.57-17.66-.44a58.75,58.75,0,0,0-21,4.85,101.3,101.3,0,0,0-14.86,7.8c-5,3-9.24,6-15,7.94a65.29,65.29,0,0,1-6.77,1.91c-3.1.65-4.12.56-6.32,1.18-3,.87-4.27,2-6.77,3.24-6.15,3.18-7.94,1.36-14.71,4.26-1.18.51-3.58,2-8.38,5a109.38,109.38,0,0,0-11.48,8c-2.78,2.24-4.17,3.36-5,4.56-3.91,5.69-3.11,14.2-.73,15,.36.12.9.12,5-3.53,4.57-4.07,6.85-6.1,9-8.68s2.55-3.61,4.12-4.12c2.15-.69,3.34.53,6.32.3,2.46-.2,2.82-1.12,5.89-2.21,5.54-2,7.13.07,10.44-1.76,2.82-1.56,2-3.19,5.59-7.21a28.36,28.36,0,0,1,9.71-6.77c4.88-2,6.25-.52,11.77-1.62,7.32-1.45,6.55-4.29,18.24-9.26a80.35,80.35,0,0,1,13.83-4.86,48.76,48.76,0,0,0,7.79-2.2c4.94-2,4.54-3,7.8-4,5.53-1.72,7.16,1,13.24-.73,4-1.18,4.3-2.68,6.76-2.35,3.49.46,4.94,3.74,8.24,3.23a16.7,16.7,0,0,0,2.65-1.17,25.68,25.68,0,0,0,6.32-4c.44-.4,2.58-2.37,2.21-2.94S1234.1,35.1,1232.78,35.69Z"/><path d="M1118.34,224.86a2.62,2.62,0,0,0-.15,4.71,2.58,2.58,0,0,0,2.94-4A2.47,2.47,0,0,0,1118.34,224.86Z"/><path d="M1125.54,221.77c-.22.69,1.13,1.66,2.51,2.65s2.34,1.69,2.94,1.32c.43-.26.43-1,.44-1.91a3.21,3.21,0,0,0-.44-2.21c-.76-.9-2.23-.72-3.39-.58C1126.66,221.15,1125.71,221.26,1125.54,221.77Z"/><path d="M932.7,168.67c-3.49,3-4,3.49-4.12,4.41a5,5,0,0,0,2.36,4.41c1.68,1.07,2.83.19,5,1.48,1.26.74,1.09,1.17,2.35,1.91a8.53,8.53,0,0,0,4.86,1c2.83-.37,2.7-2.37,6.32-4.12s5.13-.54,6.91-2.5c1.26-1.38,1.11-2.67,2.5-3.24a4.92,4.92,0,0,1,3.68.44c2.14,1,2.28,2.33,3.53,2.36s2.18-1.28,3.39-2.94a11.26,11.26,0,0,0,2.2-4.86,7.26,7.26,0,0,0-.44-4.85,4.92,4.92,0,0,0-1.62-1.92c-2.3-1.52-5.3-.19-5.73,0-1.85.83-1.55,1.59-2.95,2.06-2,.67-3-.68-7.06-1.61-2.86-.67-4.71-1.1-6-.15-2,1.42-.57,4.36-2.35,5.59-2.13,1.47-5.07-2.09-8.83-.74A44.13,44.13,0,0,0,932.7,168.67Z"/><path d="M2120.5,409.32c1.22,1.08,13.44,11.88,28.69,22.95,6.65,4.82,11.09,7.67,16.91,10.15,4,1.7,5.15,1.73,10,4,8.8,4.05,8.64,5.61,13.53,6.91,7.22,1.92,12.32-.2,13.38,2.21.54,1.2-.29,2.74-1.91,5.73-1.48,2.74-2.21,4.11-3.68,4.71-3.06,1.26-6.95-1.75-9.26-3.53-3.54-2.73-2.81-3.64-6.33-6.47s-4.52-2.18-8.82-5.44c-3.37-2.56-2.87-3.05-5.45-4.71a23.54,23.54,0,0,0-10.15-3.53c-5.11-.46-6.72,1.29-9.7-.3-2.45-1.3-1.88-2.76-4.12-3.82-4.07-1.93-7.85,2-10.45,0-1.1-.83-.61-1.69-1.76-5a29.68,29.68,0,0,0-5-8.68c-2.36-3.09-2.67-2.49-6.18-6.47-4-4.56-5.63-7.64-6.91-7.21s-.53,3.31-2.51,4.56a4.46,4.46,0,0,1-3.38.29c-6.88-1.42-16.26-7.53-18.68-9.12a7.19,7.19,0,0,0-4.12-1.47c-3.21.07-5.53,3-5.73,3.24-2.39,3.06-1.16,5.67-3.68,7.65-1.52,1.18-2.5.67-2.94,1.62-.86,1.82,2.69,4,5.29,9.56.27.57.82,2.29,1.91,5.73a62.47,62.47,0,0,1,2.65,10.45c.54,3.7.29,5.07-.44,6.18-1,1.45-2.77,2.53-3.53,2.06s.48-2.56.15-5.89c-.19-1.88-.7-2-2.95-7.35-1.16-2.76-2.14-5.38-2.5-6.33-1.62-4.34-1.49-4.5-2.2-5.59-1.89-2.88-3.6-2.92-3.83-4.85s1.56-3.45.74-4.71a2.4,2.4,0,0,0-1.77-.88,4.57,4.57,0,0,0-4.41,2.94c-.74,2,.84,3,.15,4.56-1,2.2-5.43,3.12-8.09,1.62-1.51-.85-2.18-2.33-2.36-2.21s1.13,2.67,2.06,4.27c.79,1.34,1,1.57,2.21,3.53a23.32,23.32,0,0,1,2.21,4c.19.66,1,3.29-.15,5.15-1.87,3.07-7.34,1.35-8.39,3.82-.72,1.71,1.74,2.87,1.33,5.44-.51,3.19-4.62,3.7-4.86,6.62-.11,1.38.73,2.23,2.06,4.12,2.19,3.12,1,2.42,5,9.56,5,8.95,6.79,10,7.8,10.45s2.53.67,5.44,1c5.74.71,7.1-.23,9.71,1.17,2.06,1.11,2.1,2.17,4.27,2.8.55.16,3.25.94,5-.44,1.25-1,1.34-2.64,1.47-5.89.16-4,.28-7-1.62-9.26-1.16-1.42-1.84-1.07-3.23-2.8-.72-.89-2.46-3.05-2.06-5.44.51-3.1,4.41-5.45,7.5-5,2.7.39,4.81,2.95,5.29,3.53,1,1.17,1.5,2.31,1.77,2.2.57-.21-1.76-5.07,0-6.76.53-.52,1.16-.47,3.68-.44,6.21.06,5.49-.21,6.91,0a22.32,22.32,0,0,1,7.21,2.5,42.21,42.21,0,0,1,6.32,4.12c3.32,2.47,5.63,4.53,6.33,5.14,4.65,4.1,7.33,5.19,14.56,10,9.57,6.38,9.17,8,14.27,10.44,6.09,2.92,9.15.88,13.53,3.53,2.94,1.78,2.06,3,6,5.59,3.1,2,5.13,2.18,5.3,3.38s-3.1,1.91-7.21,5.3c-1.72,1.42-4.51,3.73-4,5.15.48,1.26,3.54,1.77,5.74.73,1.94-.92,1.76-2.39,3.82-4.12a9.49,9.49,0,0,1,7.21-2.2,8.63,8.63,0,0,1,6.76,6.18c.6,2.48-.35,4.75-1.76,8.09-1.57,3.72-2.82,4.45-2.5,6.32.42,2.5,2.82,2.31,3.53,5,.82,3.13-1.89,5.41-.44,7.65.12.19.76,1.19,1.62,1.18,1.55,0,1.71-3.33,4.11-4.27,1-.4,2-.17,3.83.3,2.78.7,3.29,1.73,5.15,2.06a7.34,7.34,0,0,0,5.44-1.33c3.55-2.73.56-7.63,3.82-12.21.57-.79,3.33-2.25,8.83-5.14,6.51-3.43,8.4-4.24,10.88-6.62,2-1.93,3.44-3.29,4.12-5.59,1.36-4.55-1.42-8.44,0-9.42.78-.53,1.75.51,5.3,1.47.93.26,2.3.47,5,.89a61.45,61.45,0,0,0,8.68,1c3.28-.08,5.5-.13,6.47-1.62,1.28-2-.24-5.54-2.5-7.36-2.56-2.05-6.55-2.28-8.53-.59-1.38,1.19-.94,2.58-2.21,3.24-2.05,1.07-5.36-1.44-6.76-2.5-5.27-4-6.47-8.32-8.39-7.94-1.74.34-1.73,4.11-3.38,4.26-1.3.12-2.06-2.12-4-4.26-1.69-1.9-3.49-2.85-7.95-4.71-12.53-5.22-15.73-4.91-16.91-7.5s3.35-4.21,5-11.92c.46-2.15.44-3.49,1.32-3.82,1.56-.58,3.49,2.91,8.83,7.5a68.32,68.32,0,0,0,6.32,4.71,113.69,113.69,0,0,0,10.59,6.47c4,2.14,7.11,3.52,8.83,4.27,19.18,8.38,28.77,12.57,35,14.41,11.28,3.34,9.8,1.32,21.33,4.85,15.07,4.63,12.78,6.59,25.15,9.86,4.31,1.14,9.63,2.23,13.83,6.77a44.22,44.22,0,0,1,4,5.59c2.52,3.85,5,8.07,6.62,11,3.41,6.45,3.5,9.27,7.8,21.77,3.53,10.29,5.36,15.54,8.38,20.45a67.14,67.14,0,0,0,11.62,13.82,105.17,105.17,0,0,0,25.6,18c8.48,4.28,14.83,7.49,24.12,8.53,7.18.81,13.58,0,13.68.88s-4.41,1.13-12.65,4.27c-3.41,1.3-4.31,1.86-6.33,2.06-5.06.49-6.4-3.41-10.15-2.8-4,.65-3.69,4.88-8.53,6-2.63.63-5.41,0-8.23-.58-3.56-.78-3.52-1.45-5.3-1.33-3.64.24-4.9,3.09-7.8,2.5-1.11-.22-2.55-1-2.64-1.91-.14-1.42,2.92-2,3.67-4.85.11-.4.4-1.49-.14-2.06s-1.87-.21-3.83.14a35.46,35.46,0,0,1-5,.44c-1.66,0-3.48-.46-7.06-1.47-5.39-1.52-6.83-2.34-8.09-1.47s-.71,2.45-2.21,3.39a4.11,4.11,0,0,1-4.85-.59c-1.23-1.45.12-3.36-1.18-4.71-.48-.5-1.06-.66-3.23-.88-4.67-.49-4.89-.08-6.18-.44-3.8-1.07-4.79-5.43-6-5-.41.14-.64.73-1,5.88-.34,4.45-.28,5.56-1.18,6.18-1.28.88-2.82-.42-4.41.73-1,.71-.67,1.39-1.62,2.06-.77.54-1.6.55-4.85.15-3.86-.47-4.69-.73-5.3-.15-.94.9.14,2.33-.74,3.39-1.31,1.59-5.5.44-7.94-.89a11.15,11.15,0,0,1-4.41-4.12c-.79-1.36-.59-1.8-1.33-2.64a6.53,6.53,0,0,0-6.17-1.77c-4.14,1.06-4.27,6.37-7.8,6.77-2.34.26-4.27-1.85-4.71-1.33-.58.69,3.21,3.86,2.36,5.59-.67,1.34-3.4.37-5,2.36a4.57,4.57,0,0,0-.89,2.94c0,2.77,3.49,4,3.09,5s-3.24-.16-4.71,1.47c-.53.6-.28.9-1.17,3.68-.56,1.72-.84,2.59-1.33,2.94-1.45,1.07-3.54-.36-4.11.44s1.67,2.55,1.17,4.56c-.31,1.26-1.53,2-2.5,2.5a9.92,9.92,0,0,1-6,1c-3.18-.34-3.93-1.66-5.29-1s-.84,2-2.65,4.41c-1.66,2.23-2.56,1.75-3.53,3.68a19.62,19.62,0,0,0-1.18,4.56c-.24,1.24-.33,1.89-.44,2.5-.56,3.21-2,7.74-3.09,7.65-.76-.06-.36-2.49-2.35-5a8.59,8.59,0,0,0-3.24-2.5c-1.1-.47-2-.53-5.59-.29-7.32.49-8.3,1.08-8.82,1.47-1.7,1.23-1.92,2.57-3,2.5-1.85-.13-2.34-4.54-3.67-4.56-1,0-.87,2.53-2.8,6-1.83,3.31-3.34,3.62-3.53,5.88-.12,1.37.42,1.49,1,4.56.48,2.39,1,5.12.15,5.59s-3.17-1.23-4.42-3.23c-.84-1.37-.88-2.36-1.61-2.5-.46-.1-.77.22-2.95,2-1.68,1.43-1.78,1.47-1.91,1.77-.73,1.74,1.26,3.34.59,4.41s-2.9,1-4.56.15c-2.43-1.3-2.43-4.18-4.41-4.41a2.14,2.14,0,0,0-1.62.44c-1.51,1.41,1.32,4.87-.15,7.06-.91,1.35-3,1.59-4.41,1.32a5.94,5.94,0,0,1-3.68-2.79c-.81-1.28-.73-2.16-1.17-2.21-.71-.08-1.23,2.11-2.95,5.3-1.47,2.75-2.33,4.34-3.53,4.41-2.08.11-3.85-4.52-4.41-4.27s1.51,3.85,0,5.89a3.9,3.9,0,0,1-2.79,1.32c-2.53.17-3.38-2.12-5-1.91-2.31.3-1.74,5.08-5.29,8.09-2.46,2.08-6.59,3.07-9.27,1.62s-2.14-4.21-5-5.3c-1.7-.65-4-.5-5,.74-1.41,1.81.72,5.31.15,5.59s-1.91-2.44-4.86-5.15c-2.37-2.18-2.76-2.51-3.23-2.5-1.72,0-2,2.34-5,4.12-2.07,1.21-3.22.87-3.53,1.76-.66,2,4.53,4.67,3.83,6.33-.37.88-2.15.88-2.35.88-2.26,0-2.73-1.82-4.56-2.21-2.74-.58-3.88,3-9.12,4.56a9.67,9.67,0,0,1-5.3.44c-3-.72-3.1-2.69-6-3.53a9.5,9.5,0,0,0-7.21,1c-2.47,1.51-2.41,3.3-4.41,3.68-1.56.3-2.9-.54-4.86-1.76-1.61-1-3.5-2.19-3.67-4-.15-1.46,1-2.14.59-2.79s-2.38-.47-7.36.59c-5.6,1.19-6.51,1.53-7.35.88-1.71-1.32.22-4.16-1.77-7.21a8.21,8.21,0,0,0-5.15-3.23c-.26-.06-5-1-6.91,1.47-1.65,2.18-.15,5.74,1,8.53,2.84,6.75,7,8.85,6,11-.79,1.87-4.58,2.14-6.33,2.06-3.31-.15-3.85-1.8-6.17-1.47-2.68.38-2.69,2.66-6.48,4.85-2.39,1.39-4.55,1.74-7.5,2.21a26,26,0,0,1-8.38.15,16.8,16.8,0,0,1-4.56-1.18c-2.59-1.12-2.48-2-5.74-3.82-2.68-1.54-3.81-1.58-4.41-2.95a6.08,6.08,0,0,1-.15-3.38c.35-2.39,1.3-3.15.88-4-.55-1.08-2.81-1-4-.88a14.35,14.35,0,0,0-9.12,3.82c-1.18,1.16-1.28,1.71-3.09,3.39s-2.45,1.76-3.09,2.64c-.91,1.26-.88,2.78.15,7.8,1.29,6.27,2.11,8.11,2.06,11.91a10.5,10.5,0,0,1-1,4.86,8.48,8.48,0,0,1-3.09,3.53c-3.49,2.07-8.39.58-10.88-1.77a15,15,0,0,1-2.65-3.38c-1-1.76-.83-2.54-1.62-2.94-1.18-.61-2.25.76-5.15,1.47-1.5.37-3.45.84-5.29,0a6.24,6.24,0,0,1-3.53-5.44c0-2.57,2.23-3.43,1.76-5.3-.38-1.54-2.26-2.53-3.68-2.79-3.79-.72-7.26,3.16-8.38,4.41-3.47,3.88-1.89,5.4-5.15,9.56-3.59,4.58-6.57,4.08-7.94,8.09-1,2.78,0,4.29-1.47,6-.54.62-1.34,1.2-6.33,2.21-6,1.21-6.53.72-8.68,1.76-2.61,1.28-2.23,2.21-5.44,4a14.08,14.08,0,0,1-6.77,2.21c-1.19,0-1.66-.19-8.38-2.94,0,0-1.26-.52-7.06-3.09-3-1.34-5-2.22-4.85-3.09s2-.8,2.64-2.35a2.76,2.76,0,0,0-.14-2.5c-.93-1.33-3.45-1-7.06-.59-3.45.43-3.45.86-5.59.88a19.91,19.91,0,0,1-6.18-1c-3.27-1-3-1.6-5-1.91-3.51-.56-4.29,1.39-7.51.88-1.63-.25-3.14-1.3-6.17-3.38-3.63-2.49-3.9-3.46-5.74-3.68-1.48-.18-1.67.4-5.3.74-2.42.22-3.65.32-4.26-.3-1.35-1.36.67-4.29-.59-5.44-.9-.83-2.92-.21-4.12.44-3.37,1.82-2.7,5.2-5.44,6.47-2.49,1.16-6.2-.14-6.77-1.91s2.46-3.28,1.91-5.44c-.43-1.73-2.84-2.63-4.85-3.38-3-1.11-3.92-.46-5.59-1.77-1.35-1.06-1.05-1.74-2.65-3.09-1.84-1.56-3-1.34-4-2.21-2.38-2.23,2.68-7.39.88-10.14-1.67-2.57-7-.28-8.53-2.95-.94-1.66,0-4.5,1.62-5.88s3.84-.86,4.12-1.77-1.77-2.18-5.15-4.7c-4.61-3.44-6.94-5.21-8.09-7.36-1.61-3-.33-3.92-2.06-6.76a13.45,13.45,0,0,0-7.35-5.45c-3.06-1-5.44-.61-9.27,0-2.75.44-4.34.72-5.59,2.06s-1.06,2.69-2.35,3.53c-1.51,1-3.45.28-5-.14-4.12-1.12-10.28-1.53-14.26.58-.38.21-2.17,2.34-5.74,6.62-4,4.74-5.17,6.39-5.15,8.68s1.15,2.77.59,4c-.78,1.7-3.38,1.37-9.56,2.65-3.72.77-5.61,1.18-7.36,2.35-2.21,1.5-2.08,2.51-4.7,5.3-1.61,1.71-3.68,3.15-7.8,6a62.64,62.64,0,0,0-7.65,6.18c-1.11,1-2.24,2.23-2.06,3.53s1.65,1.5,2.36,3.24c.89,2.2-.43,4.57-.59,4.85a7.54,7.54,0,0,1-4.56,3.24c-2.44.71-3.38-.16-4.42.73-1.37,1.19-1.47,4.23-.14,6s3,.77,5.15,2.94c.22.23,1.07,1.67,2.79,4.56,1,1.63,1.07,1.84,1,2.21-.16,1.42-2.11,1.72-4.71,4.27-1.13,1.11-1.78,1.77-1.62,2.35.44,1.49,5.56.3,6.33,2.06.36.83-.46,1.82-2.94,5-4.73,6.06-3.92,5.26-5,6.47-3.1,3.46-4.65,5.19-7.36,6.77a15.39,15.39,0,0,1-9,2.65,14.82,14.82,0,0,1-7.8-3.09c-4.41-3.09-4.45-8.19-6.62-8.09-.91,0-.85.87-2.5,1.91-3.16,2-5.66.37-7.06,2.06-1.11,1.35-.6,3.69-.29,5.15.49,2.3,1.44,2.81,1.18,4.41s-1.28,1.8-1.33,3.24c0,1.28.73,1.95,1.47,3.23a12.55,12.55,0,0,1,1.47,6.77c0,2.73-1.09,4.64-2.5,7.21-1.53,2.8-3.58,6.54-7.65,8.53-2.82,1.38-3.83.55-5.44,2.06-2,1.87-2.11,4.72-2.21,8.38-.18,6.94,2.06,7.17,1.33,10.59-1.2,5.64-6.89,5-9.27,12.07-.68,2-.84,3.94-2.65,6s-3.52,2.48-3.38,3.53,1.86,1.06,5,2.94c1.89,1.13,2.83,1.69,3.38,2.5,1.65,2.41-.26,4.42,1,8.68.19.6,1.17,3.84,2.8,4,1.36.11,2.21-2,2.94-1.77,1,.39-1,4.69,1,7.21.38.48,2.12,1.26,5.59,2.8,2.51,1.11,3,1.27,3.38,1.91,1.37,2.13-.44,5.49-.73,6-1.23,2.27-2.11,1.86-4.27,4.56a38.65,38.65,0,0,0-4,6.62c-1.09,2.17-1.42,3.19-2.5,3.53s-1.94-.5-4-.74a10.08,10.08,0,0,0-4.27.59c-4.84,1.37-10.61,3-15.15,1-1.54-.66-1.74-1.23-4.56-2.5-2.49-1.12-3.73-1.69-5.15-1.76-3.87-.22-4.42,3.09-8.67,3.53-3,.3-3.38-1.28-7.8-1.18a20.2,20.2,0,0,0-5.3.88c-3.34.94-6,1.69-6.76,3.68s1.12,3.17.29,4.56c-1,1.76-4.27.21-6.47,2.35-1.43,1.39-.71,2.66-2.21,3.83-1.89,1.47-3.73,0-5,1.17-1.61,1.5.78,4.4-.15,9.71a11.91,11.91,0,0,1-2.06,5.3c-1.71,2.33-3.1,2.1-4.56,4-1.75,2.25-.56,3.63-1.61,8.53-.63,2.91-1.65,7.71-5.3,10.15-1.48,1-2,.7-4.26,2.21-3.06,2.07-2.85,3.21-4.56,3.68-2.7.72-4.09-1.85-7.21-1a7,7,0,0,0-2.94,1.76c-2.89,2.48-2.16,4.5-4.12,5.88-2.91,2.06-6.92-.68-8.24,1.18-.93,1.3.37,3.6-.15,3.83s-2.13-3.56-4.26-3.53c-1.29,0-2.23,1.41-2.36,1.61-2.09,3.23,1.44,7.93-.29,9.42-.87.75-2.09-.17-3.38.88-1,.78-.94,1.81-1.33,2.65-1.61,3.46-10.86,4.75-13.82,1.17-1.91-2.29-.63-5.89-1.77-6.17-.78-.2-1.86,1.37-3.53,3.82-2.17,3.17-2.12,4-3.38,4.86-2,1.39-3,0-5.74,1-4,1.49-3.32,5.14-7.5,6.76-2.3.89-4.47.54-5,1.91-.38,1,.51,1.61.14,2.36-.6,1.23-3.66.78-9,.44-6.68-.43-7.68-.09-8.09.59-.84,1.38,1.46,3.06,1,6.62a5.47,5.47,0,0,1-1.76,3.82c-2.49,1.85-6.67-.37-7.07-.59-3.13-1.71-3-3.82-4.85-4.12-2.14-.33-2.86,2.28-8.24,6.33-5.12,3.86-8.38,4.43-9.26,4.56-2.45.36-2.63-.24-3.39.29-3.75,2.66,1.47,17.08.15,24a28.68,28.68,0,0,1-.74,3.09c-1,3.29-2.07,3.75-1.91,5.15.27,2.29,3.36,3.76,4.41,4.26,3.11,1.48,4.6.48,5.59,1.77s-.09,2.4-1.47,8.53c-.86,3.86-.87,5.26-2.2,6a4,4,0,0,1-4-.15c-1.47-.94-1.15-2.37-2.21-3.38-1.77-1.69-5.21-.11-9.12.74-3.23.69-10.84,2.34-14.56-.89-3-2.56-.15-5.35-3.83-13.09-1.8-3.79-3.16-4.55-4.12-8.38-.56-2.24-.5-3.62-1.76-5.15-1.08-1.32-2.49-1.86-5.3-2.94-3.94-1.52-5.24-1.1-7.06-2.8-.79-.74-1.18-1.42-1.76-1.32-.88.14-.89,1.84-1.92,4.26-.74,1.76-1.88,4.44-4.26,5.3-.19.07-2.43.84-4-.29s-.68-3.09-2.06-6.77a11.56,11.56,0,0,0-3.24-5c-2.15-1.75-4.1-1.33-6.76-1.91-8.11-1.78-8.45-9.7-16.77-11.77a31.38,31.38,0,0,1-5.45-1.62,33.65,33.65,0,0,1-5.44-2.94c-4.7-3.08-4.69-4.48-8.53-6.47-2.51-1.31-3.34-1.15-3.68-2.06-.69-1.9,2.45-3.77,6.77-9.57a37,37,0,0,0,4.71-7.94,18.64,18.64,0,0,0,1.61-7.79c0-1.85-.11-4.47-1.76-5.45-1.06-.62-2.33-.31-4.12.15a20.11,20.11,0,0,0-4.85,2.06c-2.29,1.17-4.17,1.47-8,2.06-7.69,1.2-8.44-1.16-12.94.59-1.84.71-3.58,1.85-7.06,4.12-1.94,1.26-2.46,1.72-4.27,2.79-2.86,1.7-4.29,2.55-6.18,3.09-3.94,1.13-5.82-.05-7.35,1.62a4.75,4.75,0,0,0-1,3.53c.21,1.69,1.34,2.19,2.65,4.12.49.73,3.06,4.54,1.91,6.91-.79,1.63-2.67,1.19-5.88,3.38-2.43,1.66-1.8,2.35-3.39,3.09-3.24,1.53-6-.82-8.24,1a4.7,4.7,0,0,0-1.32,2.06c-1,2.44.4,3.61.3,6.77a12.56,12.56,0,0,1-2.21,6.47,7.24,7.24,0,0,1-2.8,2.94c-2.34,1.16-3.77-.38-5.88.74s-2.69,3.75-2.79,4.26c-.6,2.76,1.71,4,1,5.45-.94,2-5.16.15-8.23,2.79-2.15,1.84-.82,3.38-3.24,6s-6.53,3.91-7.79,4.27c-2.6.74-3.65.48-4.27,1.47-1.16,1.86,1.63,4.31.44,6.47-.64,1.17-1.68.85-4.12,2.65a16,16,0,0,0-2.94,2.79c-2.87,4,1.41,8.24-1,12.65-1.29,2.34-2.66,1.46-5.59,5-1.56,1.89-1.48,2.52-3.82,6.62-2.5,4.37-3.75,6.55-5.45,7.8-2.38,1.75-6.55,3.35-9.26,1.77-1.83-1.07-1.59-2.77-3.53-3.39s-4,.43-5.45,1.18a20.8,20.8,0,0,0-3.23,2.21c-1.68,1.09-3.46,1.26-13.83-.3-5.91-.89-6.9-1.18-7.65-2.21-2.06-2.82.49-7.32-.73-7.94s-3.37,4.07-8.54,5.59c-1.09.32-2.59.31-5.59.3-7,0-10.56-.07-12.2-1.77-2-2-.59-4.08-3.24-6.77a8,8,0,0,0-4.12-2.35c-1.51-.28-2,.19-5.59.74-3.4.51-3.32.14-4.85.58-2.82.83-2.83,2-5.59,3.24-3.13,1.39-3.47,0-7.8,1.32-3.29,1-4.94,2.35-6.47,1.48-1-.59-.74-1.44-1.77-1.92-.51-.24-1.56-.48-6,1.92-2.81,1.51-2.56,1.69-3.67,2a11,11,0,0,1-6.77-.29c-3.86-1.17-3.73-2.68-6.77-3.68-3.73-1.22-4.3.95-10.15.59-5.07-.31-7.55-2.12-9.71-.44-1.07.84-.92,1.67-2.35,2.65-1.74,1.2-3.11.75-5.15,1.17a11.07,11.07,0,0,0-7.65,6.18,10.91,10.91,0,0,0-.29,6.62c.39,1.84.83,1.93,2.21,5.3,1.63,4,2.42,6,1.61,7.79-.54,1.21-1.34,1.22-2.94,2.5-3.7,3-4.92,7.31-5.59,9.71-1.06,3.81-1.74,6.24-.44,8.09s4.2,2.74,8.09,4c1.56.5,2.25.61,2.94,1.33,1.17,1.21,1.38,3.12.89,6.62a44.91,44.91,0,0,1-3.83,12.79c-1.86,3.66-3.08,4.73-2.94,7.21,0,.33.27,4,2.65,5.3,1.39.74,2.59.15,3.67,1.17a4,4,0,0,1,1,2.8c.31,5.51,1.45,11,1.62,16.47.25,7.72.4,11.62,1.77,13.68s3,3.18,4.56,6.62c.49,1.13.91,2.34,2.06,4.86,1.4,3.06,1.46,2.72,1.62,3.38.78,3.27-1.75,6.69-4.42,10.3-2.3,3.11-3.05,3.24-3.82,5.29a10.09,10.09,0,0,0-.3,6.92,9.38,9.38,0,0,0,6.48,6c2.08.44,2.71-.45,4.26.29,2.65,1.27,3.25,5,3.38,5.89.42,2.58-.23,4.19-.73,6.62-1.69,8.08,1.39,9.67-.74,14.7-.86,2-2.53,3.82-5.88,7.36a44.17,44.17,0,0,1-5.88,5.15c-3.56,2.59-5.14,2.92-6.33,2.94a7.86,7.86,0,0,1-3.68-.88l-21.47-16c-1.43-.4-3.5-.74-5.15.3s-1.29,2.24-2.65,3.38c-2.59,2.19-5.65-.66-9,1-2.85,1.45-1.61,4.08-5.3,7.5a20.82,20.82,0,0,1-6.91,4c-3.66,1.42-6.08,1.41-6.62,3.09a5.55,5.55,0,0,0,.44,3.24,10.59,10.59,0,0,0,1.18,2.06c1.82,3.24-1.52,8.78-1.91,9.41-1.55,2.5-2.71,2.87-2.65,4.42.07,2.06,2.19,2.55,2.06,4.26-.12,1.47-1.73,1.71-4.71,4.86-1.56,1.64-2.34,2.49-2.35,3.53,0,1.46,1.23,2,3.23,4.56,1.89,2.45,3,3.84,3,5.59,0,2.69-2.61,2.67-3.39,6.32-.5,2.36.22,4.07-1.17,5.59-.62.67-1,.6-1.48,1.32-.87,1.34-.5,3-.14,4.56a9.5,9.5,0,0,0,2.5,5c1.12,1.07,1.74,1,2.06,1.76.58,1.41-.87,3.37-2.65,5.3-5.91,6.37-9.61,5.92-10.89,9.7-.87,2.59.69,3.3-.44,7.36a10.7,10.7,0,0,1-3.09,5.59c-1.31,1.14-3,1.59-6.47,2.5-4.11,1.08-5.1.81-6.76,2.06s-1.16,1.89-2.95,3.38c-2.7,2.27-4.19,1.06-6.32,3.09-1.74,1.66-1.26,2.93-3.53,4.86a9.19,9.19,0,0,1-2.65,1.61c-2.21.84-5.8,1.21-7.35-.58-1-1.14-.37-2.25-1.62-3.54a5,5,0,0,0-2.65-1.32,31,31,0,0,0-17.06,1.62L803,1428.55a15.61,15.61,0,0,0,1.47-5.3,6.88,6.88,0,0,0-.29-3.53,6.55,6.55,0,0,0-2.21-2.65c-3.07-2.45-4.6-3.68-5.73-4.41a59.83,59.83,0,0,1-7.06-5.44c-4.93-4.22-8.58-7.35-8.39-11.33,0-.35.21-3.45,2.35-5,1.55-1.11,3-.61,3.39-1.47.83-1.8-4.58-5.87-5-6.18a19,19,0,0,0-8.83-4c-2.24-.32-2.22.17-5.88,0-4.24-.19-6.82-.31-8.53-1.76-2.3-2-1.94-5.36-2.06-8.68-.08-2-1.87-7.46-5.45-18.39-6-18.35-8.41-21.85-10.44-24.27a26.31,26.31,0,0,0-6.33-6c-5.19-3.37-9.38-3.09-10.59-6.33-.64-1.72,0-3.41.44-4.85.84-2.43,3.07-5.94,5.74-5.88,1,0,2,.84,4,2.5,3.32,2.81,3.45,4,5.3,4.7,2.69,1.08,6,.1,6.18-.88s-2.25-1.21-5-4c-1.4-1.39-2.93-2.92-3.09-5s1.33-2.52,2.64-6.33c1.23-3.54.63-5.26,1.92-5.88s3.29.52,4.26,1.47a8.63,8.63,0,0,1,1.77,3.09,10.09,10.09,0,0,1,1,3.09c.18,3.21-3.73,5.25-3.24,6,.37.58,2.9.1,4.56-1.47a7,7,0,0,0,1.91-5,9.38,9.38,0,0,0-1.91-5.74c-1.82-2.39-3.65-2.33-4-4.12a3.53,3.53,0,0,1,1.47-3.38c1.21-.8,2.61-.29,3.82-.15,4.26.48,8.59-2.27,8.54-3.82,0-.83-1.26-.78-1.77-2.21s.45-2.1,0-3.83c-.36-1.4-1.28-2-1-2.35s1.55.16,2.36.59c2.25,1.2,2.72,2.79,3.82,2.65a1.72,1.72,0,0,0,1.32-1.33c.29-1.45-2-3-3.23-3.53a9.5,9.5,0,0,0-3.09-.73,17,17,0,0,0-2.5,0c-3.1.12-4,.43-4.56.73s-1.21.62-1.33,1.18c-.2,1,1.24,1.68,1,2.21-.29.74-3.14-.71-6,.44-1.61.64-1.66,1.46-3.23,1.76-1.76.34-2.2-.6-3.83-.44-2.69.26-3.16,3-5.15,2.94-2.29,0-3.31-3.72-4.56-3.38s-.29,3.62-2.2,6c-1.28,1.61-2.83,1.6-5.74,2.5-7.88,2.45-7.5,5.94-13.39,6.77-3.41.48-5.57-.41-7.2,1.32a9,9,0,0,0-1.77,4c-.54,2.44.12,3.18-.44,4-1.21,1.71-5.41-.21-10.74-.89-9-1.14-11.39,2.5-15.59,0a10.79,10.79,0,0,1-4.85-10.44c.33-2,1.74-3.67,4.56-7.06,2.39-2.88,3.81-4.54,5.59-4.41,2,.14,2.5,2.48,4.41,2.35,1.72-.12,3.38-2.18,3.38-4,0-1.09-.6-1.32-1-2.5-1.14-3.18,1.93-5.14,1.33-8.24-.49-2.48-2.62-2-4.27-5.3-1.49-3-1.07-6-.74-8.38.3-2.08.76-5.4,3.39-8.09,1.32-1.36,2.49-1.24,2.5-1.91,0-1.6-6-4.13-10.45-2.21a13.94,13.94,0,0,0-3.08,2.21c-2,1.61-2.24,2.23-5.15,5.29s-4.35,4.24-4,5c.07.15.19.25,1.47.59,2.52.68,3.08.58,3.67,1,1,.78,1,2.39,1,3.38,0,.84-.12,2.93-2.79,7.07-1.9,2.93-2.35,2.67-4.41,5.88-1.63,2.52-1.53,3-2.8,4.41a15.13,15.13,0,0,1-4.85,3.68,13.15,13.15,0,0,1-5.59,1.32c-2.17,0-2.92-.59-4.27,0s-1.28,1.57-2.65,2.65c-2.52,2-6,1.24-6.32,1.18-2.5-.57-3.38-2.22-5.3-3.83-4.72-4-7.67-.9-14.56-4.41-4.64-2.36-6.91-5.59-9.71-9.56-1.4-2-1.82-3-1.47-3.83.87-2,5.28-.16,10.59-2.2,4.66-1.79,3.48-4,9.27-6.92,1.48-.73,4.42-1.71,10.3-3.67,4.4-1.47,4.45-1.4,4.85-1.77,2.82-2.57.57-6.14,1-17.94.11-2.71.29-4.13-.74-5.15-2.29-2.29-7.36.76-9.7-1.77-1.36-1.46-1.07-4-1.62-4s-.32,1.73-1.47,2.65-3.11.46-4.27.15c-.88-.24-4.08-1.1-5.44-3.83-1-2-.55-4-.15-5.73,2.45-10.47,3.67-15.7,5.89-20.6,2.4-5.31,2.57-4.53,3.67-7.35,6-15.3-4.09-25.56,2.36-35,2.75-4,5.79-3.92,7.94-9.12a19.84,19.84,0,0,0,1.47-11.33c-.55-2.85-1.5-3.59-1-5.44.75-2.92,3.59-3,5.74-6.33,1.14-1.8,1.35-3.75,1.76-7.65.58-5.46.87-8.2-.73-10.59-.81-1.2-3-2.37-7.36-4.7-4.59-2.46-5.89-2.71-6.47-4.27-.92-2.45,1.44-4.12.29-6.47-.5-1-1.18-1.19-4.41-3.24l-4.56-3.09c-5.47-3.7-8.67-5.88-9.56-9.26-1.06-4.05,2-6.62.29-8.68-1.32-1.58-4.18-1.35-6.32-1.18a17.48,17.48,0,0,0-6,1.77,15.83,15.83,0,0,0-5.3,3.23c-2.05,2-1.47,3-3.09,4.12-2.93,2.14-7.2.86-8.09.59-2.43-.73-2.49-1.57-5-2.8-4.06-2-10.49-3-12.94-.29-1.58,1.76-.57,4-2.36,5s-4.11-.23-4.56-.44c-2.13-1-2.13-2.31-3.67-2.5-1.7-.21-2.42,1.28-4,.88-1.23-.31-1.22-1.35-2.21-1.91-3-1.68-9.79,4-12.06,5.88-3,2.51-4.53,4.34-6.62,4a5,5,0,0,1-2.8-1.92c-2.19-2.59-1.59-5.08-2.35-7.94-1.2-4.49-4.24-4.2-10.89-12.21a36.37,36.37,0,0,1-4.7-6.47c-2.56-4.75-4-10.57-5-14.86-.84-3.5-.8-4.09-1.62-5-3.17-3.54-10.34-2.2-12.65-1.76-2.83.53-2,.85-6.77,2.06-5.25,1.34-5.87.85-11,2.2-4,1-4.36,1.53-6,1.33-2.54-.31-3.27-1.62-6.92-3.09a28.68,28.68,0,0,0-6.17-1.62c-4.45-.83-7.44-1.34-10.3.15a5.39,5.39,0,0,0-2.5,2.2c-1.12,2.1-.15,4.58.44,6,2,4.83,5.42,5.91,4.85,8.09-.36,1.4-2,1.77-2.2,3.83-.09.89.19,1.16,0,1.91-.44,1.75-2.56,2.64-2.94,2.79-4.36,1.82-8.33-2.42-10.59-.58-1,.83-1.2,2.52-1.33,3.82-.24,2.49.75,3.61,0,4.56-.54.69-1.3.43-4.12.74a37,37,0,0,0-10.15,2.64c-4,1.54-4.64,2.1-4.85,2.8-.31,1,.38,1.61-.15,2.5a3.11,3.11,0,0,1-2.35,1.18c-1.63.08-1.8-1.09-3.53-1.33s-2.33,1-4.56.74c-1.21-.15-1.56-.58-2.06-.3-.86.5-.3,2.07-.74,4.27-.17.85-.77,3.86-2.94,4.85-2,.92-4.47-.3-5.74-1.32-1.62-1.32-1.1-2.18-2.35-3.09-3.06-2.23-9.58.44-11,1s-3.16,1.48-4.27.74c-.84-.57-.67-1.6-1.62-2.06-1.17-.58-2.73.37-3.08.58-1.1.67-1.68,1.64-2.8,3.54-1,1.68-.74,1.64-1.18,2.2-2.16,2.8-7.29,2.55-8.23,2.5-2.75-.13-4.22-.94-4.86-.14-.83,1,1,3.17.3,3.82s-3.61-.53-5.59-2.8c-2.17-2.46-1.76-4.55-3.09-9-1.56-5.14-2.74-4.37-4.41-9.41-1-2.88-2.54-7.63-1.33-13,1-4.38,2.89-4.72,2.65-7.79-.31-3.82-3.49-6.46-6.18-8.68-2.53-2.1-5.34-4.42-8.38-3.83-1.95.38-2.12,1.59-4.86,2.21a12.16,12.16,0,0,1-5.59-.15c-2-.44-3.75-.85-5-2.35s-.33-2.41-1.76-4.27c-.89-1.14-2.16-1.83-4.71-3.23a4.28,4.28,0,0,0-1.47-.59c-1.48-.24-2.2.62-3.38.59-.84,0-1.36-.47-2.95-1.91-4.22-3.83-5-4.66-6.32-4.71s-1.08.61-2.65.88c-3.29.56-4.48-2.23-7.94-1.91a5.38,5.38,0,0,0-3.83,1.76c-.71,1-.47,1.79-1.32,2.5a3.08,3.08,0,0,1-3.24.45c-1.52-.92-.42-3.45-1.62-6.48a10.3,10.3,0,0,0-4.41-4.85c-4.25-2.6-6.86,0-12.21-2.21-1.22-.51-5.2-2.16-6-5.44-.47-1.87.48-2.73,2.06-7.06,1.65-4.51,3.16-8.82,1.77-12.94-.07-.19-1.33-3.81-3.09-3.83-1.14,0-1.41,1.49-3.09,3.09-3.26,3.09-8.08,3-9.56,2.94a12.11,12.11,0,0,1-5.59-1.17c-3.2-1.63-3.62-4-5.59-4s-2.1,2-4.71,3.39-6.24,1.52-8.68,0c-2.74-1.71-2.28-4.59-4.85-11.18a54.74,54.74,0,0,0-4.56-9,49.4,49.4,0,0,0-11.62-13.68,48.59,48.59,0,0,0-6.18-4.11,25.56,25.56,0,0,0-5.88-2.8c-5-1.36-6.46,1-11.92,0a17.65,17.65,0,0,1-7.21-3.09,19.34,19.34,0,0,1-5.88-8.09c-2.51-5.52-1.09-7.06-3.24-9.27-3.27-3.36-7.26-.5-10.44-3.67-3-3-2.89-9-2.8-13.39a17.88,17.88,0,0,0-.88-7.21,7.68,7.68,0,0,0-2.5-3.82c-1.8-1.29-3.77-.94-5.88-.88-1,0-10,.28-13.24-4-.57-.75-.87-3.2-1.47-8.09-.35-2.84-.54-5.14-1.18-8.68-.75-4.22-1.33-5.7-2.65-6.48a5.45,5.45,0,0,0-3.38-.44,10.1,10.1,0,0,0-6.62,3.09c-1.68,1.92-.6,2.54-2.35,5.44-1.57,2.6-2.44,2.12-6,6.33-1.49,1.74-1.76,2.31-2.65,2.5-1.64.34-2.64-1.17-5.74-2.21a19.52,19.52,0,0,0-3.82-.73c-6.14-.88-9.21-1.32-9.71-1.47-4.91-1.5-4.23-3.76-10.3-5.89-1.41-.49-2.07-.59-5.59-1.76a36.63,36.63,0,0,1-5.73-2.21c-2.23-1.18-2.59-1.9-5-3.68a30,30,0,0,0-8.23-4.56,18.28,18.28,0,0,0-9.12-1.17c-3.66.58-3.91,2-6.62,2.2-4.09.26-8.1-2.79-10.15-5.88-3.2-4.82-3-11.79.15-16,3-4,7-3.34,14.26-9a14.28,14.28,0,0,0,4.86-6.17c.49-1.29.37-1.66.73-2.8,1.16-3.6,4.1-5.49,6.77-7.5a49.28,49.28,0,0,0,9-8.09c3.72-4.65,2.37-6.53,6.62-13.68,1.09-1.83,5.64-9.48,8.39-8.68,1.86.55,1,4.45,4.56,7.65a14.49,14.49,0,0,0,4.41,2.5,16.68,16.68,0,0,0,6.18,1.47,17.16,17.16,0,0,0,8.09-2.06c2.51-1.17,3.76-1.76,4.56-2.79,3-3.84-1.93-8-.44-16.63.56-3.26,1.7-5.31.58-8.09-.88-2.18-2.12-2.21-2.79-4.26-1-3,.61-6,2.35-9.27,2-3.82,3.89-3.73,5.59-7.5.94-2.07,1.72-3.81,1-5.44-.77-1.82-2.67-1.87-7.06-4.42-2.61-1.51-3.92-2.27-4.56-3.08-2.64-3.37-.07-7-1.17-14.13a21.66,21.66,0,0,0-2.8-8.23c-3.54-5.72-7.74-4.7-12.8-9.71-6.61-6.56-7-15.8-7.06-17.51a22.91,22.91,0,0,1,3.09-13.53,20.29,20.29,0,0,1,8.68-8.09c3.24-1.45,5.89-1.37,7.06-3.68.47-.92,0-.93.59-4.85.52-3.72,1.07-4.87,1.76-5.74s1.17-.8,2.06-1.76c1.47-1.58,1.7-3.38,2.21-6.92.8-5.5,2-6.32,1.18-7.65s-1.84-1-4.42-2.2c-1.32-.64-6.13-2.94-6.76-6.18-.37-1.89,1-2.61,4.41-8.24.2-.32-.19.31,5-9.12,3.82-6.92,4.15-7.49,5.15-8.38,2.37-2.11,4.2-2.24,9.27-4.12,4-1.49,4.19-1.9,11-5,11-5,18.88-8.56,29-11.62,5.49-1.67,8.9-2.35,14-5.15a48.74,48.74,0,0,0,9.27-6.62s5.64-5,44.27-37.66c17.77-15,21.59-11.86,46.93-28.53,4.45-2.93,47-35.85,51.33-42.66.4-.62,1.95-3.32,4.12-3.38,1.35,0,2.46.95,3.68.29.49-.26.53-.54,1.47-1.18a12.3,12.3,0,0,1,1.62-.88,8.45,8.45,0,0,0,3.24-3.38,11,11,0,0,0,1.17-2.94c1.18-3.93,7.52-5.93,8.68-6.33,7.6-2.61,13.88-12.49,39.28-33.83,14.93-12.55,22.4-18.82,24.56-20.45,9.77-7.35,15.62-10.84,16.77-17.65a39,39,0,0,1,3.68-12.06c.92-1.8,2.21-3.9,4.12-4.12,1.39-.16,1.79.84,3.82.88s2.11-.83,4.71-1.17c2.34-.31,2.89.3,3.68-.3,1.71-1.32.17-5.15,1.17-5.59s2.78,4,5.59,4.12,5.17-4.46,5.74-5.59a18.77,18.77,0,0,0,1.76-9c-.18-2.1-.66-2.71-.14-3.53,1.24-2,6.22-1.91,9.85,0,2.75,1.44,2.21,2.59,5.74,5.44,3.06,2.48,3.94,2,9.12,5.3,4.24,2.71,3.46,2.92,5.88,4.11a23.86,23.86,0,0,0,11.62,2.21c2.67-.06,4.38-.11,6.33-1.18a9.87,9.87,0,0,0,4.41-4.7c1.22-3-.29-4.18,1.18-7.65a10.19,10.19,0,0,1,2.35-3.53,19.89,19.89,0,0,1,3.53-2.36,22.22,22.22,0,0,0,4.12-3.67c5.26-5.37,9.79-4.95,12.8-9.71,2.64-4.18,0-5.87,2.35-8.53,4-4.6,12.05.11,23.24-3.83,1-.33,3.43-1.26,6.33-2.5,3.73-1.59,6.45-3,7.79-3.68a38.94,38.94,0,0,0,5.89-3.38c2-1.58,2.25-2.39,5.59-5.29,1.27-1.11,1.32-1.08,2.79-2.36a41.21,41.21,0,0,0,4.56-4.26c2.45-3.08.93-5.17,2.65-9.12a15.78,15.78,0,0,1,6.91-7.21c4.2-2.16,9.62-2.18,13.09-3.68l2.36-1,2.65-1.18c2.65-1.16,7.63-.46,14.85.45,5.34.66,4.86.56,5.89.73,5.35.92,6.11,1.72,8.09,1.18,2.58-.71,4.35-2.94,5.88-4.86,1.88-2.36,1.7-3.24,3.09-4.11s3.46-1.13,7.35,0c4.21,1.21,6,2.64,11.18,5.58,9.21,5.2,10.72,4.66,13.39,8,1.65,2,2.84,4.41,3.82,4.12s1-3.1,1-4c0-3.53-1.27-4.15-.88-6s2.36-3.06,6.33-5.59c3.49-2.22,5.81-3.2,5.88-3.08s-6.69,2.77-6.77,6.47c0,.32,0,.71,2.06,4.7.93,1.85,1.54,3,2.06,4,3,5.36,8.77,11.75,9.71,12.79a136,136,0,0,0,11.47,11.18,84.82,84.82,0,0,0,9.57,7.8,45.08,45.08,0,0,0,16.76,7.35,39.41,39.41,0,0,0,6.77.74,29.2,29.2,0,0,0,9.71-1c5.08-1.72,4.57-4.7,10.3-9,7.52-5.62,11.06-2.46,15.88-7.8,3.32-3.67,3.92-7.69,7.36-8.24a6.56,6.56,0,0,1,4.41,1.18c7.27,4.51,16.33,5.2,24.27,8.38,11,4.41,20.39,6.68,32.95,9.71,15.51,3.75,23.26,5.62,32.51,5.89,5.18.15,9.43-.13,16.62,1,8,1.28,8.78,2.6,16.18,3.38,7.6.8,9.25-.31,15.15,1,5.74,1.3,6.91,3,11.62,4.71,9.7,3.55,12.3-.78,31.33-.3,9.68.25,12.42,1.45,18.83-.29a55,55,0,0,0,12.06-5c4.57-2.56,8.82-5.8,14-6.92a28.76,28.76,0,0,1,5.15-.58,29.14,29.14,0,0,1,5,.44,43.73,43.73,0,0,1,5.73,1.32,49.54,49.54,0,0,0,14.57,1.62c3.71-.08,5.68-.61,9.71-1.33,13.77-2.43,15.46-.6,29.71-2.94,7.76-1.27,7.57-1.86,14.12-2.65,8.17-1,9.7-.2,14.27-1.91,3.78-1.41,5.25-2.88,9.56-3.53a15.71,15.71,0,0,1,7.5.3c2.91.94,3,2.16,7.5,5.29a59.05,59.05,0,0,0,9.27,5.15,45.56,45.56,0,0,0,7.65,3.09c4.41,1.26,6.83,1.95,9.56,1s3.17-2.49,5.44-2.35c1.6.09,1.87.91,4.71,1.61a9.46,9.46,0,0,0,4.12.44c1.64-.27,2.55-1.07,5-2.94,1.59-1.21,3.26-2.32,4.86-3.53,4.14-3.14,8.51-2.59,13.38-3.67,6.62-1.48,10.86-5.25,17.21-10.89,6.76-6,5.59-7.52,12.36-12.94,4.45-3.57,8.33-6.68,14.27-8.09,3.61-.87,5-.38,12.06-1.92a52.8,52.8,0,0,0,8.23-2.35c3.46-1.33,4-2,6.18-2.8,3.8-1.37,6.64-.93,11.62-.58,7.21.49,3.76-.25,17.36.29,9,.36,10.85.7,15,0a92.79,92.79,0,0,0,9.27-2.65c12.88-4,15.32-5.42,17.06-6.62a27.61,27.61,0,0,0,6.62-6c4.75-6.05,5.4-12.27,5.89-16.91.58-5.56-.41-7.19-1-7.95s-2.14-1.52-5.3-3.23c-3.46-1.87-4.12-2-4.7-2.06-1.67-.15-2.55.43-5.45,1.47-3.29,1.18-4.93,1.77-6.47,1.91-3.94.35-7.12-1.64-10.15-3.53-2-1.24-5.41-3.38-5-4.71.5-1.61,6.45-1.12,9.41-.88,4.14.34,6.6,1,11.92,2.21,2.28.52,9.48,2.16,16,3.38,5.11.95,8.6,1.41,11,1.77,5.91.85,25.81,3.73,46,10.44l17.35,6c10,3.5,10.39,3.63,11.18,4,8.77,3.82,9.3,6.38,20.3,13.09.75.46,6.63,3.54,18.39,9.71a107.29,107.29,0,0,0,10.88,5.3c5.15,2.06,6.57,2.05,11.18,4.12,5.84,2.61,5.69,3.59,10,5.44a38.6,38.6,0,0,0,15.88,2.94,42.28,42.28,0,0,0,15.89-3.24c3.72-1.56,3.9-2.32,7.06-3.38,5.67-1.89,10.47-1.25,14-.88,4.49.48,11.09.56,24.27.73,11,.15,16.49.22,22.51-1.17,2.41-.56,7.39-2.43,17.36-6.18,8.7-3.27,13.1-4.94,15.59-6.33,5.13-2.85,8.47-5.78,15.15-11.62,9.86-8.61,10-10.36,15.45-13.38a46.35,46.35,0,0,1,15.15-5,62,62,0,0,1,21.33-.15c5.54.92,8.41,2.16,23.24,8.53,22.86,9.83,26,11.17,30.45,12.95,2.15.86,11.41,4.55,23.38,8.67s20.72,6.63,34.72,10.6c26.28,7.45,39.42,11.17,50.16,12.65,3.89.53,10.48,1.31,19.71,3.38,10.58,2.37,12.92,3.81,20,5.59,9.2,2.31,20.84,2.57,44.13,3.09,8.45.19,14.52.17,22.66,2.65a58,58,0,0,1,14.71,6.76,60.29,60.29,0,0,1,12.5,11.18c8.4,9.21,10.08,7.72,33.83,26.77,7.09,5.69,13.11,10.52,21,17.65,7.64,6.89,9.48,9.09,27.36,26.19,5.33,5.1,9.2,8.76,14.7,14C2110.23,399.81,2116.79,406,2120.5,409.32Z"/><path d="M657.19,1292.63c-.89,1.25-.64,2.72-.29,4.71.22,1.32.74,4.34,1.76,4.41s2.29-3.38,2.65-5.88c.23-1.57.59-4-.59-4.71C659.75,1290.62,658,1291.46,657.19,1292.63Z"/><path d="M666.9,1306.31c-4.39,2.7-3.76,9.83-3.68,10.59.19,1.85.41,4,2.06,5.74,2.86,3,8.17,2.82,11.47.88,1.76-1,2.71-2.42,4-4.26,1.57-2.3,2.77-4.07,2.64-6.48a8.58,8.58,0,0,0-3.53-6c-2.65-1.92-5.67-1.68-8.38-1.47C669.29,1305.45,668.15,1305.54,666.9,1306.31Z"/></g></g></svg>