<svg xmlns="http://www.w3.org/2000/svg" viewBox="0 0 2449.07 1784.11"><g id="Layer_2" data-name="Layer 2"><g id="Hong_Kong_Map" data-name="Hong Kong Map"><path d="M916.11,1180.47l.12,3.38-5,9.06-10.17.24-.11-.12-1.36-1.57-.22-7.49,5.16-5.31h10.16ZM1151,1198.6v-3.75l-1.78-1.81-6.72-.13-1.45,2.06-.33,10.75,1.78,1.94Zm-286.9,96.05-4.4,7.92-.64,1.14.25,10.75,11.61,12.92,6.72-.11,6.48-10.88,7.67-1.25,4.18-.68,3.35-7.12v-10.88L891,1287.4Zm70.57-402.44-27.06,3.62-6.72-3.62-4.79,5.32,3.22,14.62-13.42,11v3.51l13.54,3.75.1,6.89-3.69,3.86,8.63,9.08,6.57,3.62,3.38-3.62,6.91-.13,8.38-5.32-.31-14.5-6.38-10.88-.22-7.26,6.7-3.86Zm36.78,304.57-1.69,12.81,5,5.32,16.89-.13,1.57-19.93-15.11-1.7Zm145.77,1.69.25,10.88,4.79,5.43,6.73.13,8.59-5.44-.12-7.37-5.13-5.44-13.29.25ZM918,954l-1.66,1.69-.24,7.26,5.16,5.43,6.69-.11,1.69-1.82.09-7.25-5.34-5.32Zm-706.59-5.2,6.7,7.37-.09,7.26,8.72,1.57-.13-21.64H213ZM1927.5,1131.53l4.92-1.82.12-10.75-5.16-5.68-5.13,1.94.22,10.87ZM1971,841.43l-1.68,1.69v3.75l5,5.44,6.73.12,1.65-2v-3.75l-5-5.32Zm15.11,12.7,8.48,1.81,1.69-16.45,3.34-3.62V821.36l-21.89-19.71-13.42-.36-4.94,16.56,8.16,12.58,6.73-.12,6.82-7,1.78,1.69ZM1956,1089.83l-.09-7.24,3.34-3.75-1.47-1.7-6.91-.11-1.81,1.93.25,10.76,1.56,1.93h3.47Zm-21.8-346.34-3.47.12-1.66,1.69.09,7.26,1.57,1.69,3.47.24,1.69-2-.13-7.26Zm25,63.48-4.91-5.44-1.9,1.81.09,7.14,1.81,2.06Zm-5,320.81-1.45,2.06-.12,7,1.78,1.93,3.26-.12,3.35-3.5h3.25l1.66-1.82.24-3.74-1.81-1.7ZM1914,787l1.69-2.06-.12-3.5-1.45-1.69-3.25-.13-2,1.7.09,3.75,1.82,2ZM1872.26,1329l-6.7-3.62-1.68-8.95-17.11,3.63-6.6,7.25-3.47-.13L1830,1338l-3-3.5h-13.66l-11.61,12.68v18l-3.34,3.74-.13,7.25,15.08,12.68,6.73-.11,8.5,5.55-3.38,3.63-.09,10.86,11.61,1.82,5.16-5.56,1.78-12.68,6.6-3.38,10.07,7.25,5.13-2.06,3.35-7-.09-11-3.38-3.74,10.07-7.13.22-14.73-6.82-3.63Zm214.43-420.55-1.66-1.69-4.91,5.31,1.57,1.69,3.44.24,1.68-1.81Zm6.73,409.68-4.92-12.69-5.25,1.94-1.47,12.68-6.7-3.63-5.16,5.32,8.51,20,6.6-3.62,6.82,3.62,1.66-1.81-3.44-14.61Zm-90.56-329.78-13.33-11-.21-7.25-8.17-12.58-33.66-.11-8.26,9.06-.12,11,6.85,7.38,3.22,14.38,3.59,3.74-.12,7.14,8.17,16.32,6.91-3.63,10-.12,10,7.25,10.28-10.88,6.7.12,1.69-16.44-3.59-3.74Zm98.94,30.58-10.16,14.74-6.51-7.13-6.7-.11-8.51,16.31-.09,7.25-6.51,7.14-.09,7.36,3.47,3.51-.12,7.49,5,5.32h3.23l5.16-5.56,1.78-9.06,6.81,3.62,11.52-8.94v-11l-3.23-3.38,13.43-11.24,3.34-7-1.78-5.44Zm-31.63,313.81-5.37-5.67-4.82,5.56v3.5l5,5.67,6.73-.12,1.78-1.81-3.6-3.38Zm-48.76-357.21-10.17-3.62-1.69,2.06.22,14.5,1.56,1.7h9.86l2-1.94-.22-10.76Zm52,292.09-10.28,7.14.21,14.49,8.42,9.07,4.91-1.82.09-7.25,10-10.87-5.13-12.69-6.48-3.62Zm11.64-16.42h-3.47l-1.44,1.8-.12,7.26,1.78,1.69,6.72.12,1.66-1.93-3.56-3.51.21-3.74Zm-26.71,43.61-1.69,1.81-.22,3.5,5.25,5.32,4.92-5.32-5-5.43ZM1800,783.39l-3.56-3.75L1795,781.7v10.76l1.69,1.94,3.25-.12,3.35,3.74,3.47-.12,4.79-5.55-8.26-9.08Zm18.24-34.58.1-3.51-1.66-1.93-3.26.12-1.69,1.69-.21,3.75-3.13,3.63,1.69,1.93,3.22-.11Zm5.26,70.73,1.65-1.69-.09-7.25-1.56-1.69-6.73-.13-1.66,1.7-.12,7.25,1.78,1.94ZM2293.2,551.19l1.45-2.06.12-6.89-1.78-2-3.47.11-1.45,1.7-.12,7.26,1.78,2Zm-402.7,1095-1.69,1.69.12,7.25,1.57,1.69H1894l5-5.31v-3.74l-1.78-1.69Zm-56.93-855.46-3.44-3.75-3.26.12-1.69,1.69-.21,3.52,5,5.43,3.47-.12,4.92-5.31-1.57-1.7Zm65.4,831.56-.09,18.47,5.13,1.69,4.91-5.31-1.56-16.42Zm41.71-389.3-6.7-.12-3.13,3.74-5.13,1.58.09,7.48,4.82,5.45,10.17,3.5,5-9.06-.12-7.13ZM1848.8,886.77l10,3.5-3.47,14.63,15.07,1.93,1.69-5.56-3.25-3.63v-11l-3.47-3.38.12-18.26,6.6-7.37L1868.7,854l.09-7-13.51-11V821.24l8.38-1.57,1.66-5.57L1853.5,805l-3.26.11L1843.76,816l-5.16,1.81-3.47,14.51-10,7.13.09,7.26,16.68,18.14Zm-13.54-76.41,1.68,2,3.23-.11,1.78-1.82-.09-3.39-1.78-2.05-3.26.11-1.69,1.82ZM1860.41,1041l6.81,3.5,6.73-.11,3.13-3.51,3.47,3.75,4.91-1.94,3.35-21.76-8.51-1.81-23.36-21.76-8.39,1.94-.09,25.38,10.38,10.52Zm16.67-232.34-1.69,1.81.12,3.75,5,5.31,6.69.13,1.69-1.94-8.63-9Zm3.56,14.63-1.78,1.81-.12,7.25,1.81,1.69,5.13-5.32-.12-3.74-1.79-1.69Zm16.43-36.52-3.1,3.87-3.59-3.75-6.7.12-1.47,16.32,11.64,12.7,11.73-12.94-3.35-3.38.12-7.26Zm-70.2,83.67,1.69-1.82-.24-11-1.45-1.69-3.47.12-1.69,1.69v3.51l-3.34,3.87,5,5.32Zm78.71-78,.12,3.75,1.66,1.69,3.25-.12,1.78-1.69-.09-3.51-1.81-2.05-3.22.12Zm-45.27,34.46-1.69,1.81.13,3.76,1.66,1.69,3.25-.13,1.66-1.69v-3.74l-1.78-1.7Zm77.14-54.53,6.7.12,5.16-5.56v-3.51l3.34-3.87-1.78-5.19h-9.95l-1.69,1.81-.21,3.75-3.13,3.5.09,7.26Zm72-404.72.09-6.9-3.22-3.76-1.69-9.19-5.13,1.82v14.52l5,5.68Zm-186.18,81.79,6.72.11,5.13-5.56-.09-3.51-1.57-1.94-6.72.13-1.66,1.81.09,3.75-3.47,3.51Zm13.54-18.16,6.7.13,1.81-1.82-.25-7.25-1.44-1.7-3.22-.24-2,1.81.12,3.76-3.13,3.5Zm-65.28,132.47-.25-7.25-1.44-1.7h-3.47l-5.13,5.44.09,3.63,1.69,1.81,6.7.13Zm-1.69,34.47,4.91-5.32.12-3.75-1.78-1.69h-3.47l-4.82,5.32-.21,3.75,1.78,1.69ZM2008,380.49l1.69-1.82-.13-3.5-1.65-1.94-3.26.12L2003,375v3.76l1.57,1.81Zm-488.26-234,1.81,1.7H1525l1.57-1.82-4.94-5.45-1.91,1.81Zm490,203.32v3.51l4.79,5.44,1.81-1.81.09-7.26-1.78-1.7h-3.26Zm350.37,81.43-1.66,2.05.1,3.75,5,5.45,3.26-.12,1.66-1.82v-3.75l-5-5.32Zm32-23.23.09,7-3.47,3.76,1.57,1.69,6.72.12,1.66-1.94.12-7-5-5.68Zm-82.17,233.83-1.69,2.06-.13,6.89,1.82,2,5-5.32v-3.75l-1.78-2.06ZM1578.66,122.84l-1.9,1.81,5,5.45,1.78-1.82-.09-3.75-1.56-1.69Zm848.7-43.71L2417,68.36l-6.73-.12L2405.47,63l1.66-31-16.77,3.52-5.13,5.56-3.47,18,3.57,3.75-.1,17.92,5,5.69,10.19-.12,13.3,11,6.69-.12,3.38,3.64h16.86l8.29-9.2.12-10.66ZM1565.24,442.32l5.16-5.45-.25-10.88-1.53-1.82-3.47.12-8.29,5.44-.09,10.65,1.78,2.06Zm-16.86,10.77-3.38-3.52-4.91,1.7.12,3.75,4.79,5.33,10.2.11,1.66-1.81L1555,453.2Zm37,32.78h9.95l6.81-11.13,8.26-5.32.13-7,6.6-7.38-.13-3.75-8.26-5.32h-13.41l-1.57,5.56-10.07,7.14-.13,11-13.42,10.76-.09,7.14,12,1.82ZM1560.11,542l1.78,1.93,8.26-9.19L1568.5,522l-8.29,12.7Zm632.25,335.7-1.69,1.69v3.75l5.16,5.44,3.47-.12,1.44-1.69.12-7.26-1.81-1.69Zm-50.3,159.44-1.69,1.81,5,5.45,3.23.11,1.9-1.69v-3.74l-1.78-1.82Zm21.8-48.71.09-3.75-1.78-1.93h-3.47l-1.44,2.06-.22,3.5,1.78,1.69,3.47.13Zm-43.61,18,15.08,1.94,6.82,7.13,4.91-1.82,3.47-14.62-3.56-7.13,7-10.88-.09-7.13-5.16-9.19-9.95-.12-6.6,3.63-11.95,12.69,3.47,14.38-3.37,3.87Zm40.23,18.25.12-3.75-1.78-1.81h-10.19l-1.32,1.7-.25,7.24,1.81,2.06,6.7-.12Zm3.38-87.15-1.81-1.94h-3.13l-1.66,2.06v3.5l-3.35,3.52,1.66,1.93h3.25l5.13-5.32Zm13.42,28.89.09,3.75,1.78,1.69,6.6-.12,1.57-1.69.12-3.5-5-5.45Zm-50.45-18-6.48-7.13,3.37-7.26-3.47-7.49,1.57-12.69,6.7.11,6.81,10.89h10.2l8.38-5.57-8.38-12.56-5.28-1.7,1.9-2.06h13.42l6.6,7.38,6.69-.12,3.38-3.5,8.48-1.94.12-7.25L2184,894l-3.34-7.49,5.12-1.58,1.69-5.44-5.25-1.93-10-14.27-6.72-3.63-9.95-.11-10-10.76h-27.09l-6.48-3.63-5.12-9.19V825l-5-5.32h-6.73l-6.81,7.13-6.7-3.63h-9.95l-3.34,7.5-6.82-7.37-16.68-.13-6.6,3.75-3.56-3.62-6.72-.13-3,7.26-3.59-3.39-1.53,9,3.34,3.74-8.5,1.58-11.73,9.31V865l5.13,5.45,3.47-.13,9.82,10.89,6.73.11,18.33,16.32-11.64,1.7-1.65,12.81,15.2,20h9.82l10.2-14.63,6.69.12,1.9-9.18,4.83-5.32,6.69-.13,4.91,12.82,6.82,7.13-5,5.56-6.81-.11-1.57,5.55,13.42,32.65v14.5l15.2,1.69,11.76-23.33Zm-70.2-130.81-.13-3.38-1.44-1.82-3.47-.11-5.13,5.55,1.79,1.69,6.69.13Zm26.71,138.06,1.79,1.94h3.25l1.69-2.06.09-3.5-5.25-5.44-1.44,1.81ZM2246,852.31l-1.69,1.69.13,11,1.56,1.7,6.7-.12,1.69-1.45.09-7.5-5-5.44ZM2222.54,700l6.73-.13,1.66-5.31-3.35-3.63.12-7.26-1.81-1.69-6.6-.13-1.78,1.7,3.59,3.75-.34,10.76Zm78.83-74.5-6.72-3.63-1.66-9-16.77-7.26-5-5.32.21-18.26-3.56-3.63-.13-7.26,10.29-7.5,6.6-18-5-5.44-10.17.24-3.13,3.5-10.19-14.52-3.14,3.52-1.78-1.7-1.66-12.7h-3.59L2236,529.3l-20,3.74-6.82,7.15H2195.7l-13.42-10.78-13.51,3.76-3.13,7-8.38-1.58V523.85l-3.6-3.62.13-7-6.73-14.64,5.16-5.56,8.38-1.7V462.16l-8.25-5.33-10.2-14.51-6.82-3.63-15.08,1.69.1,21.78,3.37,3.63-.24,7.5-14.74,1.81-10.29,7.14-3.38-3.63-8.38,1.81-.09,10.77,3.35,7.38,5.12,8.95,5,1.93-.09,10.89-3.14,3.63,3.23,3.63-3.13,3.63-.1,21.66-3.37,3.63-.22,7.5,3.59,3.38-3.37,3.75-.22,7.26,6.94,10.88-.12,3.51-6.69,3.87,3.34,3.39-1.69,5.56-6.69.12-3.25-3.74-6.7,3.62-8.51-5.56,5-9.08,8.38-1.69-.09-7.13-6.6-7.38V560.26l-6.6-10.89V534.86l-5.16-5.56-6.57.11-11.76,12.71-.1,18.14-4.94,5.33L2038,562l-8.17,1.93,6.73,10.77-18.58,5.56-1.78-5.44,10.28-7.38-.12-18L2023,542l-10.07-10.77,5-5.56,20.14.11,8.26-9.18.22-17.91-5-5.68-8.47-1.58,3.34-3.87-6.6-25.28,6.73-10.89V433.12l5.12-1.82,9.86,7.39h10.16l8.26-5.33V418.84l-13.29-22V378.91l-3.35-3.74-3.47-14.4-5-5.69-4.91,1.82v3.5l-10.16,11.26v14.4l3.22,3.75-3.13,3.5v14.52l-6.82,7.38,3.59,3.63-5.15,5.33-6.61,3.63-13.51-3.75-13.42,11-1.78-1.7,6.7-14.63,3.34-18,8.39-1.94,1.69-5.56-8.39-12.59-6.72-.12-3.35,7.38-10-.12L1976,382.3l-3.35-3.39,3.35-7.61-6.48-17.79-8.72-2.18-1.57,9.31-4.91,5.57-13.42-.24-16.77,21.78-6.6.12-22,19.84L1892.07,426l-6.61,3.62,3.57,3.75-.1,21.66-8.29,9.2-6.91-11.13-3.38,3.74h-13.41l-3.35-7.13-9.95-.37-1.91,31-1.56,1.81-5-5.33v-3.5l-8.26-5.69-6.69.12L1795,491.19l-1.57,9.32-3.47-.24-5.13,5.55,1.69,12.71H1790l6.6-7.14,3.38,3.39,6.57.12,1.91,5.44-6.82,7.14.12,7.26,10,18.26v14.52l8.42,9.07,11.61,1.82.12,3.51L1810.11,602,1800,605.62l-22,16.21-1.69,31-4.92-12.7-20-21.77-.09-3.51,10-7.37.12-36.29-3.34-3.63-.13-7.26-8.26-9.07-20.14-.12-10,7.38h-13.42l-3.47,3.63-6.6-10.89-10.17-.12-6.6,7.38h-13.42l-6.82,7.14-1.69-9,8.51-1.93,5.16-5.33-1.9-5.44h-13.42l-13.3-7.26-6.85,3.63H1625.4l-1.57,9,6.82,10.89-11.85,12.94-8.39,1.57-6.6,32.65L1592,612.76l-1.57,8.94-10,7.5,4.09,6.66,2.6,4.23L1573.53,651l-3.47,14.63-6.6,3.63.21,10.64-5.12,5.32-10.17.24-6.6,7.38-10.29,3.39-3.13,7.25-5.16,1.93-9.88,24.28-3.41,8.38,3.25,3.38,6.82,14.63-10.2,18.14-1.56,9.07-.14,0-20-3.36-5-5.69-.27-1.46-1.24-6.65-.15-.84-6.73-.11-3.47,3.87-6.6-.13-5,9.07-15.24,12.7-5-1.82,13.42-14.5,3.35-21.77,5.21-9.42,4.18-7.54.65-1.18,20.14-21.88,3.35-10.77,21.92-23.58,3.14.12,11.73-9.2-3.35-7.13.21-18.26,6.61-3.63,3.34-7.26V607.31l-13.42-14.39-1.56-5.57-6.7-3.5-20.14.13-3.35-3.76-8.5-1.81V549.5l-8.39-9.44-6.69.24-10.07-10.89-16.65-.11-3.37,3.74-6.82-3.63-13.3-10.88L1400.8,515l-8.41-9.31,3.47-3.63-5-5.33-23.61-.11-16.65-14.4-6.72-.12-1.91-5.44,5.29-12.59,6.47,3.63,3.35-7.26,17,3.63,3.38-3.87,6.7.13,3.34,3.74,6.73.13,1.66-16.58,11.63-1.69,16.89-14.52,23.37,7.26,3.56,3.5,6.48.13,6.61,10.77,10.19.11,6.82-7.38h13.42l6.57,7.38,6.82,3.63,6.6-3.63,3.25,3.63,6.7-.11,5.16,5.68-6.73,18.15-6.81,7,5.15,5.69,6.7-.13,3.35-3.5,6.72,10.76h3.47l6.69-10.89,6.48,3.63,6.94-3.63,1.69-5.56-5.16-5.32L1545,474.86,1536.62,455l-5-5.45-6.7-.11-11.73-9,6.57-40L1530,393.2l1.69-5.45,3.25-.12,8.39,9.31,5.12,12.71,6.73-3.63h13.42l10-10.89,23.67-7.26,1.57,5.2-3.35,7.39,8.39,9.07,11.76-9,3.22-14.51L1634,375l3.25-10.76,13.42-14.77.12-7,3.44-3.76L1654,317l-6.6-10.77V295.42L1644,291.8l1.81-9.08,8.38,12.58,1.66,9,16.8,7.38,6.57,7.14,10.19.12,3.23,3.63,6.72-.12,13.51,7.26,10,.13,3.26,14.39,6.69.12,8.51-9.2.12-10.77,8.48-9.07,6.51-.12,3.34-3.51,3.35,3.63,10.17-.24,19.89-10.77,18.67,1.81-5,9.2-5.28,1.81,5.16,19.85,6.69.12,10.07-18.15,8.51,5.33L1828.44,335l-6.6,7.37-.13,7.27-16.64,11-1.78,9.08-20.15-.12-6.57,11.13L1773.1,377h-13.42l-6.48-3.63-7.06,10.89L1729.5,384l-6.73,11.13-4.91,1.81.12,7.26-7.06,10.9,5,5.44,6.73.12,3.47-3.87,5,1.94-25,31-8.51-1.94,3.47-3.51-5.16-5.69h-10.16l-21.59,23.6-.09,11-3.35,3.52,1.57,9.19,6.82-.12,1.78-9,8.26-5.44,23.61.12,9.83-7.49,3.47.24,8.5-9.2,3.35-11,18.46-19.84,16.64-11,13.3-3.51.24-7.26-13.66,7.26h-13.3l.12-7.26,10,3.51L1773.1,395h23.59l3.25-3.51,6.57-.12,10.2-7.14,6.57.13,6.85-7.39,6.81,3.63,6.58-7.14,10.07-3.63,6.82-10.89,3.25,3.39,3.47-3.51,20-3.63,20.15-14.64,5-5.32.09-7.26-6.69-3.64,5.13-5.56,6.72.12,6.48-7.26,3.47,10.89,20-18.15h3.26l30.31-40.05,6.69.11,10-10.89,6.82-.12,18.33-12.59.24-18.15-8.38-9.2-20.14,10.9-13.42,14.76-10-.12-3.69,3.63-10-.12-3.34,3.87-13.42-.36-3.47,3.88h-13.42l-6.6,3.62-3.1,3.51-6.73.12-7,10.89-6.6,3.64L1874,253.55l-6.94,3.63-1.78-1.69-1.48-12.71-10.16-.12L1850.36,228l-15.23,1.81-.09,3.75,6.82,7.39-4.92,1.81-11.76-5.57,3.38-3.51-1.81-5.8-16.64.12-.13-3.52,12-1.93-11.85-9.08-3.47,3.64h-16.89l-1.32,5.56-8.73,1.57-6.5,7.38-8.48-1.81,10-7.14v-11l-6.82-3.62.13-10.78,8.38-1.81L1786.61,210l6.73-.13,1.57-12.59,5-9.32,4.91-1.57.1-7.26,20.36-18-5.13-9.2-6.73-.12-20,18.39-1.66-9.32,10-14.4-1.69-9.2-6.94,3.63h-9.95l-10-7.14-1.69,16.34-15.07,1.7-3.38-3.63-13.3.24-3.47,3.26-11.73-1.45,6.82-11.14-.12-7,20.35-14.66-5.12-9.07-15.33-5.45.1-7.26-4.79-9.2-3.47,3.87-6.73-.12-6.82,7.38-5-1.93,6.81-10.9-3.37-21.91,8.38-1.7,5.16-5.56-1.9-5.45H1706l-3.23-3.39-6.72-.12-3.57,10.78-6.72.12-3.22-3.76-3.47,3.64-4.92,1.81-1.56,5.57h-3.38l-1.57-9.2-5.13-5.45-16.76,3.63-8.51,9.08.12,7.27L1627.3,88.22l-.12,7.25L1624,99.11V110l-8.51,9.2L1602,122.71,1592,115.33l-5,9.2.09,7.38-11.85,5.57-6.48-7.38-7-.12-8.17,12.83-.12,7.26-5.13,5.32-4.7-1.57-1.69-9.32-10.28,7.27h-13.42l-3.44,3.75-1.48-1.94,3.38-7v-11l-3.38-3.74-.09-25.43,1.66-1.81,5,5.44.13,3.76,11.61,1.81,8.29-9.2,3.47-18,18.42-20.09,5,1.94-6.6,7.38,1.56,5.2h13.42l7.53-6.23-1.49-2.71-.47-1.94.16-1.92,1.16-.67.81-1.25,1.19-1.29.33-.5.86-1.29,1.2-2.78-.74-2.12-2-1.92-2.23-3.52-2.15-2.5-2-1.55-.49-1.44-.52-.82-.31-.48H1576l-1.5-.25-1.9,0-1.75-1.15-2.52-1.09-2.18-.71-1.86-.38-1-1.31-.5-2.06-.14-2-.57-1.22-.93-1.35-2-.23-1.46-1.35-.25-.5-.61-1.23L1556,31.4l-.88-1.53-1.35-1.4-3.55-2.77-1.33.15-.92.33-1.18.42-.66,2.15-2.09.49-2.21-.38-1.88.93-2.49.1-3.71.31-2.56-.31-4.25-3-3-2-2.72.2-1.84-.8-1.92-1.84-1.5-.65-2.22-1.6-2,.49-1.19.93-1.29.73-1.69,1-2.66.08-1.41-1-3.07.27-3.21.27-5.76.6-2.07.46-3.57.39-1.48-1.24-.78-1.63-.18-.39-.88-1.69-1.79-.93-2,.44-1.14,1h0l-1.2,1.05-2-.1-1.36-.73-.43-.23-1.6.33-.53.11-2,.23-2.61-.09-2.26-.09-1.07,1.27-.05.5-.23,2.17-.89,1.76-4.17,1.43-3.13.65-2.45-.5-1.55-.59-1.84-.91-1.85-.39L1444,26.89l-2.72.36-2.79.07-3.54-.3-3.34-.34-2.39-.21-2,.66-1.33,2-.62,1.52-.1.25-2.05.3-1.58-.49-.52-.16-3.14-.95L1414,28.8l-5.44-.2-1.84-.57-1.76-.16-1.38.34-.61,1.94-.29.91-1.26,2.39-2.71-1.28-7-3.89-2.46-1-.75-1.35-.26-4.09-.35-1.31-.34-1.28-.19-.73,0-.08-.25-1.3.11-3.47L1386.13,12l-2-2.15-1.25-1.53-1.35-1-3.47.72-1.47.61-.68.28-2.62.67-2.34.1-1.91.06-1.69-.37-2.82-.05-1.9.62-1.89-.1-1.42-.7-.88-.74-2.31-1.93-.94-1.3-1.06-1.06-1.53-.6-2.69-.57-1.79.08-1.53.55-1.17.7-1.3,1.16-1.53,1.14-.44,1.74-.54,1.38-1.18,1.74-1.54.33-2.28.54-2.47.26-2.74-.41-1.72-1.42L1329.09,9l-.72-1.63-1.58-4.13-1.3-1.76L1323.27,0l-2,.32-1.51.67-1.19.39-2.54,2.49-.93,1.3-3,4.32-2.28,3.58-1.06,2-1,1.79-1.1,3.28-.48,1.44-.62,1.86-.83,1.38-1.35,1.55-.88,1.66-.55,3-1.32,1.38-2.84-.74-2.36.35h-1.75l-.38-.13-.91-.31-1.33-.47-1.89-.46-2.38-.78-1.92.53-1.25,2.79,0,3.6-.39,1.53,0,1.76.55,2-.26,1.95-1.18,2.65-1.13,1.21h-1.84l-1.84.49-1.29,1.87-.68,2.69-.44,3.55-.12,4.18.13,1.09.8,2.09,3.39,1.12,1.66-.55-1-2.2,0-1.72,1.9-.38,1.55.31,1.25,1.66.1,2.28-.88,1.87-1.66,1.06-2.07.13-1.75.9-1.26,1.59L1276,71.52l-1.81,1.61-1.3,1.55-2.6,3.16,0,0-.39,1.56,0,1.42V82l1.37,3.27-1.87,1.92-1.94,1.16-3.25.37-1.71,1.48-1.88-.69-2,.49-3,1.35-1.66-.78-.31-1.63.39-2,.18-1-3.38.85-1.75-.49-1.36-.45-1.74.62-.1,0-1.67-.18-.69-2.05-1.67-.88-2.1-.21-2.75-.9-1.73-.29-1.56-1.58-1.69-.75-4-.26-1.58-.31-2.35.62-3.42,2.91-1.54,2-1.82,1.11-.6.43-1.13.82-.42.57-1.27,1.76-1.12.37-1.14-1-1.37-1.56-1.86-.08-2-.62-.91-1.32-1.25-.43-2,1.83-1.84,1.14-1.53-.49-1.43-1.38-2.1-.57-1.58,1-.23,1.79-.62,2.18-.81,1.76L1186.67,97l-1.9,1-.84-.43-.76-.4-3-2.07.07-2,1.79-.59.37-1.7-1.61-1.23-3,1.4-1.12,2.3-.46,2.39-2.44,1.89-1.51.18-3.81,1.19-1.47.83-1.56.52-1.61,1.4-1.78,1.84-1,1.81v2.54l1.19,1.48,2.12,3.52.65,2.14-1.79-.35-1.86-1.68-1.19-.47-1.68,0-1.92,1.39.43,2.14,1,.91.7,2-3.53-.18-2.54-.28-2.64-.16-5.39-2h0l-2.63.59-.33.08-1.75,1-2,2.16-.1,3.63,0,5.6,0,4.53-2.41,1.74-1.37.62-6,3.5-2.93.62-5.16-1.94-2.07-1.4-2-1.77-1.24-1.81.2-2.49.45-5.54.15-2.18.13-4.66-.43-5.17-1.13-1.91-2-1.27-2.33,0-1.66,1.89-.88,3.45-.88,1.53-1.27,1.7-.16.21-2.43.65-.28,0-2.37-.19-1.78-.7-1.48-.69-2.4.31-1.52,2.12-.07,2-.09,2.62-.41,2.3-.8,2.23-1.64,1.12-2.25.25-.47-1.63.65-1.73.16-1.4.38-1.69.31-1.58.08-.41.9-3.42-1-2.88-1.79-.34-3.7,1-3.37,1.22-1.75.73-.3.12-2.65.47-3.73,1-3.89,1-1.94.31-2.15.36-2-.41-1.76-.72-.86-.62-.39-.29-.16-.11-1.71-1.63-1.42-2.25-.37-.58-1-1.6-1.4-2.23-1.39-1.47-1.64-1.07-1.74-.9-2-.65-2.62-1-2.57-.21-2.67.57-1.65.43-.33.09-1.56.41-2,.65-1.9,1.17-2,1.81-1.4,1.45-1.48,1.35-1.63,2.15-1.1,1.43-1,1.71-1.17,1.81v0l-1.29,1.9-1.19,1.71-1,2.07-1.17,1.48-1.63,1-1.72.7-2.87.76-1.85.18-3.55.64-3.91.71-.07-.06-2.16.32-4.74,1.63-2.39,1.06L989.23,137l-1.29,2.13-.37,2.33-.1,3.58.53,1.83,2,2.42,1.58,1.68L994,153l1.19.84,4.28,2.38.59.31,1.61.83,2.41,1.24,3.4,2,1.31.84.51.33.54.35,2.05,1.51,2.28,2.54.67,1.21.31,2-.41,2.39-1.14,3.52-2.62,3.58-2.77,3.88-4.78,5.32.06,2-8.57,10.58-15.79,5.34L964.27,194.3l-16.28.53L934.56,199l-9.95,10.89-3.47.13-8.5,12.58-3.35,18.27-11.61,12.71-8.41,5.38-11.85,3.21L861,257.06l-3.57-3.39-26.83-.24-20,18.4-10,3.38L785.2,291.8l-3.26,14.27,3.35,3.76,3.38,21.9,6.91,7-.09,11-3.35,3.62v14.4l3.35,3.76L792,375l-1.57,20-5.25-27.34-8.38-8.84-6.73-.12-13.17,11L733.3,380.49l-6.57,7.38H709.84l-1.56-20.09,3.13-3.62L711.5,346l16.8-21.67-4.95-9.07H713.19l-3.47,3.51-20.11-.12-3.26-3.39H676.19l-3.14,7.5H662.64l-11.85,9.32-10.16,25.53-11.52,20-3.47-.11L612.22,392l-3.47-.11L590.42,412l-.09,3.51-16.55,25.41-3.6,14.39-14.95,16.46-53.56,25.4H488l-8.38,9.31.24,3.39-30.43,32.66-6.6,32.78L427.64,588h-3.23l-8.29,8.95-1.9,16.21-20,10.88-16.68.13-3.47,3.75L354,627.63l-3.35,3.75-6.6-3.62H330.6L327,631.38l-6.57.12-11.77,12.59-.09,7.13L300.41,664l-6.81,3.63H280.3l-8.41,9.07-.22,10.76,11.76,9.19,16.86.12,18.58,16.32,3.23,7.26L318.62,724l.25,14.51,8.14,12.7h3.47l8.29,8.95.09,7.25,3.38,3.75v25.15l-6.6,7.38-.22,10.76,16.77,18.26,1.9,5.56,13.3,7.25,30.18-.12,3.47,3.74,16.77,3.63,13.42,10.64,6.48.25,6.82,3.62,6.81-3.62L458,852.79l23.58-11,6.6-7.13,18.55-1.82V825.6l16.67-18.15-.12-18.25,6.82-7.13.12-3.63,11.64-12.82,5-1.94L546.72,753l-3.13-3.63,1.57-12.69,3.34,3.62,25.06,1.7.09,7.25,10,10.89-.09,14.5-3.25,3.76-3.14,7.13-.33,14.75,3.47,3.27.12,7.49,8.14,8.83,6.72.24,16.89,14.51,16.86.12,8.17,8.83-4.79,9.18-3.47-.11-4.82,5.43,5,9.07,16.55,3.75,3.47-3.63,6.61,7.13,10.16.24,3.35,3.52,3.8-4.24,3.35-7.25h10l13.42-10.64,6.73-.12,5,5.56,1.81,9,13.18-7.26,15.23,5.44v11L750.19,896l20.15-.25,3.22,3.75,8.89,0,11.26.07,3.34-3.87h13.42l10-7.13,6.73.12L850.7,874l20.14.13,3.35-3.51,6.7-.25,26.83-21.64,6.73.13,20,10.76,3.38,3.74,20.24-3.63,6.69-11.11,6.72-3.39,20.33-.13,3.26-7.37,20.11,11.13,9.86-.24,3.44-3.52,19,.12h1.14l3.35-3.87,23.49-3.39,13.39-14.51,23.61,3.51,15,20v11l-10,10.64,16.77,21.89v11l3.34,7.13-1.28,2.69-2.06,4.32,3.34,7.5,5,5.32,2,0,4.7.08,1.1-1.81,5.63-9.31,8.38-5.32,0-.22L1166,903l6.69.13,1.37,7.25.32,1.69-3.47,3.63v14.63l-3.13.12-.52-.94-4-7.4-.6-1.09-.93,1.69-4.08,7.37,1.35,2.59,5.26,10.14,1.87,3.6,16.67,4,23.59,28.9,2.27,0,7.89-.1,9.86-18.13,1.9,9.19-6.94,14.5,6.91,4.55,1.35.9,6.73-.25.2.21,3.36,3.54,19.93.08,10,0,6.94-3.87,6.6,7.38h3.44l31.76,30.81-3.35,3.75.12,21.76,3.85,7.1,1.06,2,3.35-3.51,13.42-.25,5.16,9.07.09,18.25,3,7.13-9.95,7.49.1,6.89,3.25,3.75,11.73,56.31h30.31l10.07-14.74,3.23.24.52-1.13,2.82-6.12,6.73-.12,8.26-5.44.1-6.69.11-7.81,1.37-2.46,3.67-6.6,26.62,14.74,5.13-5.56v-11l3.38-3.5v-14.51l-5-5.67-3.67-.7-4.62-.88-.09-11,3.37-1.19,1.76-.62,11.64-12.69-.13-7.25,8.39-5.32,23.49,25.5,3.47-.13,47,47,8.51-12.57-15.23-19.94-9.95-.12-6.91-10.88-3.26.12-48.39-49L1468,1030l13.42,14.39,5-9.07-.21-10.76-3.35-3.63,1.69-5.56h27l11.86,9.31-1.91,23.45-8.29-5.32-.09-11-5-1.81-1.57,8.94-10.17,10.88.1,7.26,11.85,12.8,3.25-.12,9.83,11,13.54-7.37,3.35,7.37,3.47-.12,21.8,23.57,1.57,5.44,3.47.24,1.92,2,9.69,10.39,15.11,27.44,6.6-3.87,15.2,1.93.09,3.5-10,7.5,3.35,7.13.09,3.74,6.72,3.63,1.57,5.2,8.26,1.81,1.81,16.43,6.69,3.63,10,.12,3.47,3.63,8.39-5.69-.13-3.5,40.39-47.13,3.22-7.25.12-11-6.69-14.51-6.85-3.62,5.28-1.57,8.26-9.19,3.26-11,6.81-7.13-3.47-39.89L1696.06,1030h-3.47l-6.82,7.37-1.66-9.18,5.13-5.56,20.11.12,6.73,3.63,1.66,8.94,6.94,11.12-.1,6.88,8.26,9.43,10-.24,1.78-8.94,5.16-5.44,1.57,5.56,6.69,3.63-6.69,7-1.57,9.3-6.72-.12-5.13,5.56.09,21.75,6.85,3.63-.25,3.38,6.73,3.63,3.47,7.25-.12,10.88,3.34,7.49,8.39,8.82,8.38,1.81-.09,7.25,3.56,3.63-.09,11,3.35,3.75-3.26,25.26,4.82,9.06,10.17-.13,1.69,9.19,3.56,3.62-16.89,14.51,3.47,39.87,4.82,9.18,10.16-.25,3.14-7.24,5.15-1.82,1.79-12.56,3.22,3.74,23.61,3.5,1.66,9,4.82,5.43h10.17l6.72,3.63,10.17,25.25,6.69.12,5-5.56v-17.88l4.91-1.93,10.07,7.37,8.6-5.44,3.26-11-5.26-12.57-13.2,7.13-5-1.57-.1-22-3.25-3.38-.22-11,7-7.38-5.13-8.94-6.73-.12-8.47,9.18-3.26,10.76L1853.71,1251l-5.16-1.69,8.39-12.8,4.94-1.82.09-7.25-21.8-1.81-3.23-3.5-5-1.93-.22-10.88,6.91-3.38.13-7.5-6.94-10.87,11.73-8.94,6.72-.12L1852,1184l11.64,9.07h23.46l13.42-14.38,16.77-7.25,5-5.69.25-17.88,6.57-3.62L1919,1129.71l.12-7.24-20.24-21.88-.12-7.25L1894,1088l-6.6-.12-3.47,3.75h-13.42l-12,12.69.25,7.25-5.25,1.81-4.83-9.18-6.81-3.63,6.69-3.51v-11l-3.22-3.5.09-7.5-6.82-3.62-1.78-30.58-6.69-.12-3.38,3.74-20.11-3.86-10.08,7.49-6.69.12-3.35-7.49-13.42-3.51-5.16-5.56.34-25.26L1758,988.19l.22-7.25-8.6-5.32-5.13-9.19.09-21.64,3.48-3.63V930.29l6.81-10.88-5.13-5.69-6.94.13-3.13,3.62-5-5.44-.09-7.25-14.89-12.7-3.47.13L1709.35,903l-20-.11-1.9-5.21,16.89-11,3.34-10.75,13.3-14.51V846.87l5.25-1.82,3.26,3.76,5.12-5.69,1.69-12.45,14.87,12.45.21,7.5,3.26,3.38-3.35,3.63-.12,11L1738,879.51l1.69,12.7,6.73-3.87,13.39,3.74,4.69,16.45,12,12.69,8.26-5.31.12-11,6.94-3.63-3.68-7.13,3.44-3.87V875.76l-16.77-7.13.12-7.25-10.07-21.76,1.33-2.88,5.4-11.75,0-2.46-.22-19.19-10.49-8.25-1-.81-8.48-1.82,5.13-5.56h.58l6.14.11,1.57-5.56,13.42-14.39.09-7.26,6.6-7.13,3.47-14.75,4.79-5.32,3.6,3.62,6.69-.11,1.57-5.21,8.38-5.68h10.2l8.38,12.57,11.73,16.58h13.42l6.48-10.89,1.69,9,6.81,7.13,1.69,12.94,6.7-.12,5.13-5.32-.1-7.26,1.66-1.93,10.2,14.51,6.69.12,3.13-3.87,10.17.37,1.56-9.32-3.22-3.38.09-7.5,8.41-12.58,6.7-.11,3.25-3.63,10.17.12,13.51-7.26,4.94,1.69-1.9,5.45-11.51,5.44v11l6.69,3.63-3.47,29,5.25,1.69,9.73-7.13,1.91,5.44,8.38,9.07,26.72,14.5,13.32-7.25,1.79,5.44,11.85,9.07h10l3.34-7.26,6.73,3.63,5.13-5.56-10.07-21.52-6.82-3.63,1.78-12.82,10.07,7.38,6.73-.12,3.13,10.88,11.94,1.81v11l15.11,12.7,6.7-.13,3.25,3.63h16.86l3.38-10.76,5,8.83-3.37,3.87-.1,10.64,11.86,12.81,20.24,3.63,6.57,7.14,6.6.11,6.72,10.89h10.17l3.25,3.5,16.86-.12,4.95-5.32.09-7.25-8.39-9.07-15-8.95-.22-11-3.34-3.63,8.38-9.19,6.69,7.37,6.73-.11,6.82-7,5.12,5.32-.33,11,10.07,21.76,5.25,5.44h9.95l8.51-9.07-.13-11-4.91-8.83-5.25-1.93-6.7-14.63,16.86-3.51-3.47-39.9-3.35-3.63.13-10.76-4.92-1.93-6.6-7.38-6.72.12-3.69,7.26-3-7.38-8.59-5.32-3.38-10.88-15.2-16.21-9.83-.12-10.2,18.14-5-1.94,3.44-3.5V709.15l-10-7.26,11.64-2.06,11.73-8.83V661.74l8.29-5.32,3.35,7.38,3.25-.12,5.13-5.57-6.7-10.76,3.23-14.63,5.16-5.57,13.42.24L2226,612.76l6.7.12,3.25,3.75,16.89-.12,8.26,19.84,5.16,5.44h3.47l9.83,11,3.34-3.75,6.73.12,6.82,3.63,8.26-9.19-3.35-7.14Zm-112.48,382.68-16.55-14.39-10-.12-1.79,9.06,11.64,16.44,25-1.93.25-3.75-5.16-5.31Zm-40.26,268.39h-3.1l-1.82,1.81.13,3.74,1.44,1.7,3.59-.13,1.66-1.68-.09-3.75Zm11.76-183.07.09-25.38-8.26-16.31-13.54-7.26-10.16-.11-4.8,5.55v18l21.56,41.7,8.63-1.82-.25-14.5Zm-3.13,188.38-.12,7.49,1.68,1.7,3.47-.13,1.57-1.69.09-3.5-5.25-5.43Zm11.6-201.19h-3.22l-1.69,2,.12,7,1.45,1.93,3.25-.12,2-1.7-.09-7.24Zm-276.46-183-.24,18,6.72,14.63L1910.74,943l16.76,7.26,6.48-10.88,3.47-.13,6.7,10.88,10.19.13,3.22,3.62h16.89l5-9.07-6.82-10.88,10-3.62.13-7.25,6.48-7.38-3.23-7.13,3.23-7.38-1.45-16.44-13.54-3.5-9.95-7.26-11.73-1.81,6.6-7.14.1-21.88-13.52-21.76,3.35-3.51V803.34l-8.26-9.06-8.63,9.18.25,7.14-8.39,9.18-5.15-1.93L1929.16,807l3.38-18-13.33-.24-3.56,11-6.6,3.62-3.35,10.76-5.16,1.81-1.66,5.57L1885.56,836l-.1,10.88,8.51,1.94,3.1-3.87,1.81,1.69v14.75l6.91,10.88-10.38,3.63,3.56,3.5-.09,11ZM1741.35,95.36l-.12,3.75,5,5.69,3.47-.12,1.45-1.94.12-7-1.47-1.93-6.91.11Zm-5-5.09,3.23-.12,3.38-3.75,3.56.12,1.47-1.69-3.38-3.76.25-3.75-1.81-1.7h-3.47l-5.13,5.45.12,7.15Zm28.29-42V44.75l-11.73-12.83-3.14.12-3.34-3.75-1.82,9.08,11.86,12.83Zm-35-1.58,1.69-2-.12-7-1.78-1.94-10-.11L1718,37.37l-.12,7.27,1.78,1.93Zm57,79.78,1.69-5.45-8.38-9.08h-3.47l-1.69,1.82-.09,10.77,1.78,1.94Zm-17-7.39-3.25.12-1.66,1.7v3.75l1.78,1.69h3.23l1.81-1.81-.13-3.51Zm-56.9-54.35L1711,66.42l5,5.46,6.69.11,5-5.57.21-3.51-5-1.93-3.47,3.87Zm48.73,41.77-.21,3.5,5.13,5.7,5-5.57v-3.52l-1.56-2-6.7.12Zm-115.7-56.3,3.47-.12,1.32-1.7V44.64l-1.57-1.7h-3.22l-1.91,1.81.1,3.52ZM1803.38,130l1.69-1.82-3.59-3.39.24-3.75-1.78-1.94h-3.25l-1.69,2.06-.09,7,1.78,1.94ZM303.67,1711.79l-5,5.44,3.35,14.48-8.38,1.82-6.6,7.12-3.35-3.62-10.2.12-13.29,7.12-1.78,16.18,8.26,9.17,6.72.13,3.35,3.49,10.07-10.74H300.2l3.35,3.62,6.6-7.37,6.91,3.63,8.29-9.06-.12-7.24-9.83-10.86,5-5.44h10l1.69-8.93-11.73-9.17Zm-40.38,0L275,1702.5l-5-9-13.42,3.74-5,5.43,8.5,9.06Zm67.31-61.57H313.71l-6.82-3.86L297,1632H286.78l-5,9.18.22,10.62,3.25,3.86L281.87,1670l5.13,5.55,6.69-.11,5-5.32,1.68-9.17,6.7.12,5,5.31-.22,10.87,15.08,5.31,3.38-10.63,11.73-2,.21-10.62-8.72-1.94Zm-42,48.77v-3.73l-5-5.32-6.69-.11-1.56,2v3.63l5,5.43,6.7.12ZM11.85,1501.69l-10.19-.24L0,1510.62l3.68,3.63L5,1519.69l6.69-.13,5.25-5.31-.09-7.25Zm189.62-578.3,5,5.32,6.69.13,4.92-9.19.12-7.13-1.69-1.82-6.69.13-8.39,9.06Zm-13.63-108.8-3.26,29.14,11.64,1.69,5.13-9.07-3.22-14.27,6.48-14.63-3.26-10.75L193.09,791l-20.14.12-5.25,12.58,12,1.81Zm2096.85-254.2,1.48,1.69,6.69-.12,2-1.81-.12-3.52-1.78-1.69-6.73-.12-1.66,1.81Zm-181-287-.21,7.26,5.13,5.69,3.34-3.88,9.95.13L2123.6,266,2137,251.61V248.1l-8.29-1.81-3.22-3.75-16.89,3.51-5.13,5.69-.13,7.14-6.6,3.63.12,7.26ZM1907.14,228l3.69,7.38,6.72-.13,9.83-14.4,6.72-.11,13.51-7.27,1.7-5.2,13.41-14.53.1-7.5-15.21-1.7-1.78-16.45-25.15-16.34-6.72.12-5,9.07,6.82,3.63-.09,21.79-6.82,7.14v3.75l-16.55,14.53-1.69,5.2-6.82-7.14-20.11.13-3.35-3.64-5,5.32.09,7.27,10.07,7.26-3.56,10.89,8.38,9.32,6.91-3.87h13.42l9.86-14.4ZM2007.9,93.79l1.65-1.82-.09-3.75-4.82-9.09-10.16.13-1.69,5.33,5.15,9.07Zm-63.63,43.57-3.47-.12-8.26-8.83-5-13-13.42-3.51-5,23.6,8.26,9.08,30.43,14.4,6.48,7.39,10-.12,1.69-16.34-3.26-3.39V131.8l6.82-7.15-.22-10.89-6.48-3.63-1.9-9-6.48-.13-5.16,5.33v14.4l3.35,3.76ZM2098.45,355.2l5,5.33-.13,11,3.57,3.39v14.75l10-.11-6.57,10.76v11l3.34,7.5,11.73,1.46L2137,408V393.2l10-7.14.12-7.26,3.26-3.87-3.26-10.65-5.25-1.94-8.26-5.33-.12-7.25,6.82-7.39.12-7.13-5-5.44-6.73-.13-6.82-7.14L2108.49,326l-10,14.64-8.38,5.33,5.13,9.19ZM353.75,1769.51l-3.25,3.73-3.47.13-1.57,1.81-.09,7.12,2,1.81h9.82l1.82-1.81v-10.86l-1.82-1.82Zm1908.93-1273,5.16-5.32-.13-3.75-1.44-1.69-6.72.12-5.13,5.32,5,5.45Zm-90.44-148.69,1.66-1.69.13-7.26-8.51-5.33-6.7-.24-1.56,5.57,8.26,8.83ZM1919,84.59l-18.46-1.83-5,9.09.25,7.51,4.79,5.07,6.73.13,6.6-3.63Zm10.07,3.63.09-7.27-1.78-1.69h-3.23l-1.68,1.81-.13,7.26,1.81,1.7,3.44.24ZM1890.59,257.3l-1.66,1.7v3.51l1.57,1.69,6.69.13,1.69-1.7-.12-3.75-1.44-1.7Zm-50.42-40.06-1.66,1.7v3.51l1.57,2.05,3.44-.11,1.81-1.82-.13-3.51-1.56-1.93Zm-6.6-94.53-6.82.13-1.66,1.69,5.13,5.69,5-5.57Zm13.32-3.51,3.35-3.63,3.35,3.76,6.72-.13,13.42-11,3.44.24,4.82,5.33-9.73,7.26,1.56,5.45,16.68-.13,6.69,3.64,5.16-9.08V110.13l-5-5.57-10.2.12-9.95-11h-3.44l-5-5.33v-11l-8.39-1.57-5.16-5.69.13-7.27,4.91-5.32h16.89l13.42,14.41,6.69.11,16.89-14.52L1930.73,61l3.37-7.39,6.7.12,4.91-5.57-4.79-5.33-6.72,3.88-3.47-3.75h-26.81l-3.38-3.63-3.35,3.5-23.37-.11-3.56-3.39-3.13,3.5-3.59-3.63-10,.25-3.23-14.77-16.89.12-1.56,20,4.91,1.7,5.13,9.08-16.86.12v11l8.38,8.84L1847,83l4.94,12.59L1847,97.17l-3.35-6.9-13.42,3.52-5,5.32-.09,7.26-6.6,7.39,4.79,5.32Zm10,76.26-4.8,5.57-.21,3.5,1.78,1.7,5-5.33v-3.74Zm-40.14-21.78-1.66,5.56,4.92,8.84,3.47-3.52,6.6-.11,5.13-5.33-8.27-5.33Zm66.88,32.79,2-2.05-.12-3.52-1.79-1.93-6.69.12-1.69,1.7.12,3.74,1.45,1.82Zm-1264.95,668,5.13-5.43L619,863.68h-3.47l-1.78,1.69.09,7.25,1.81,1.81ZM1213.05,1059l3.47-3.63,1.22-.44,8.64-3.18,16.77,21.87,6.69-.12,8.38-12.69.13-7.25,8.84-6.48,1.23-.89-.25-7.26-1.55-1.69-3.45-3.74-9.74,7.49-10.16-.36-6.85-3.63-6.57-10.52-1.21,0-8.47-.3-.51,0-6.7,11.12-16.77,3.63-1.56,8.94,5,9.19h13.39Zm446,485.66,23.5-.12,3.43-3.62,3.26,3.74h13.63l3.14-3.5,3.59,3.62,10-.24,3.35-3.5,4.91-1.81-1.57-5.43h-3.47l-9.82-10.76-12-2,3.38-3.51-3.26-3.74V1484.9l-13.54-21.74v-10.87l20.14.12-11.76-16.55-8.38-1.81,6.73-7.12v-14.74l-10.08-10.75.13-7.25-6.82-7.12.09-3.75-6.69-3.5-.13-3.74,8.39-1.7,5.16-5.55,1.56-9.07,3.35,3.75,6.69-.13,5-5.3,3.38-21.75,3.34-3.63-3.34-7.36v-14.5l3.44-3.5-.1-7.26-8.5-12.8h-13.3l-6.6,7.37h-3.47l-9.83-25.49-3.59.11-16.77,14.51-6.69-.13-1.57-5.19,6.58-3.87v-29l-8.27-1.82-8.5-9.06,5.16-1.81,5-9.07-18.57-23.43-6.7-.12-3.35,7.37-10.19-.13-6.6,18.13-10-3.62L1570.59,1210l-3.78-4-.1-7.5-4.82-8.94h-37L1520,1173.1l-5.16-5.32-6.69-3.62-10-.13-3.6-3.38-3.13,3.51-16.46-.11-3.53,0-1.83,2-1.64,1.84-13.42-.25-16.89,21.75h-3.47l1.78,5.44-11.73,9.18H1414.1l-6.48-3.62-10.2,10.87-3.34-3.62-3.35,3.5-6.73.12-3.13,3.63h-27l-3.35,3.5h-13.42l-10-10.75-16.61-6.12-3.41-1.25-16.89-14.39h-10.17l-3-3.74h-40.47l-2.49,2.69-.86.94-30.18,3.74-10,10.76-6.94,3.87h-13.3l-23.37,10.62-8.38,12.57-.12,22,5,5.44,3.26-.12,13.38,12.24,8.54,7.82,6.7,14.61.12,6.89,8.38,9.3,6.7-.12,3.35-7.25,4.94,9.19,3.35,7.12-3.26,25.49,3.35,7.13,13.33,11,1.56,5.43,13.73-7.25,9.86,7.25,6.69-.13,3.26,3.75,43.6-.12,3.56,3.75,16.8-.13,6.57,7.38,9.95-.25,1.81,2.06-3.47,3.74.09,7,6.82,3.62-.21,3.75-8.26,5.31-1.69,5.55,16.89,10.88-3.47,3.62-.13,7.13,5,5.43,3.59-.12,13.3,11,6.72-.11,5-8.82,3.38-29,3.35-7.24,6.6-3.62,8.38-16.32h27.05l1.57,5.45-3.35,3.5v14.49l8.26,9.06,3.47-.12,6.94,7.37,9.71-7.12h10.19l5,5.43,3.38,7.12v11l-6.61,7.12-.12,7.25,3.59,3.62-5.16,9.06-8.59,1.94,1.69,8.93,25.14,9.3,3.48,10.87-8.39,1.69L1463,1510.27l.13,7.12,3.22,3.74,1.44,12.69,13.67-3.51,13.42-11,10,.12,1.66-12.8,11.73-9.18,6.72.12,5,5.44,3.34,7.12v11l-6.69,3.62-3.38,7.25v25.48l-3.35,3.5-.12,10.75,3.59,3.62v14.74l5.13,8.81,23.28.12,3.47-3.5h13.3l5.12-5.67v-14.37l-3.22-3.75-3.59-14.37-6.6-7.37-.1-7.24-6.48-7,19.9-18.36-3.25-3.38-5.13-9.18-13.33-7.25L1540,1484.9l.12-11,16.77-18,1.56-5.55,6.73.12,10.16-14.62,10.08,11,9.95-.13,5-5.31-3.38-7.24V1419.8l-8.38-12.8-11.73-5.56-3.47-25.36,1.78-1.82,5,5.43.12,7.49,4.79,8.83,13.66-3.75,13.3,11,3.47-3.5,1.66,1.69-3.47,14.5,6.85,14.61.09,7.25,3.26,3.62v25.24l-3.48,3.75,3.35,3.74.13,7.12,6.69,3.63-.09,7.25,11.94,1.81,4.82,5.31,3.23,18.23-6.7,10.76,5.13,12.68,6.73.12Zm47-87.07-1.66,5.55,1.78,1.69h13.42l1.66-5.31-1.78-1.93Zm-77,217.48h-3.47l-1.81,1.81.25,7.25,1.44,1.69,3.47.24,1.69-2-.13-7.25Zm93.78-235.48-18.54,1.57,8.59,9.3,6.73-.12,4.79-5.32Zm-305.2-21.74-3.26-3.75-6.69.13-5,5.43,11.61,16.18h10.19l11.74-9.17-5.13-8.82Zm150.93,119.56-5.16,5.56,5.28,5.44,6.69-.13,1.45-1.8.12-7.25-1.69-1.69Zm-129.13-70.64v3.74l1.57,1.69h3.43l5-5.43-5-5.32ZM360.79,1664.59l-6.94.11-1.57,1.7.12,7.24,8.26,9.06,8.3-5.56.09-7.12-5.13-1.69Zm1437.34-375.38-1.44-1.69-3.26-.24-2,1.81.09,3.74,1.81,1.7,3.22-.12,1.69-1.69Zm-18.21,1.82-5.16,5.31,1.81,1.94h3.13l3.57,3.62h3.25l1.66-1.82.12-7.25-1.78-1.93Zm53.55,322.48-6.72,3.38-3.22,7.61-11.86,5.19v14.37l3.35,3.75.12,7.24,5,5.31,10,.37,8.47-5.68-.21-28.86ZM1421,1497.58l-3.47-3.74-3.26.12-1.69,1.69v14.49l5,5.68,3.25-.12,3.35-3.74,6.73.11,1.56-9-4.82-5.32Zm295,50.85-1.69,1.8v3.39l5.16,5.43h3.13l2-1.81-.1-7.25-1.81-1.69Zm-23.49,115.79,15.2-12.8v-28.85l-5.13-5.68-43.48,3.87-8.39,5.31v7.25l3.23,3.74-.09,21.61,5.12,12.92,8.39-5.67,1.78-9.06,13.54,7.25Zm79,45.4-3.35-3.62,6.69-14.61-6.94-10.87.25-7.24L1763,1668l-6.69-.24L1743,1653.35l-11.73,9.18-5,9.06-10.16-.36-18.33,12.8-16.89,29,.12,14.74,5,5.3,3.38-3.74,1.57,1.93,1.66,12.68,15,5.19.12,3.74-6.6,7.36,1.69,12.68,10-3.62,14.9-12.79.09-10.63,11.85-13,4.82,1.93,1.78,5.44h30.31l1.66-12.43-3.47-3.75Zm-88.9,30.79-3.47,3.5-3.13-.12-2,1.93.12,3.5,1.78,1.93,9.83-.12,1.69-1.81.09-7.24-1.66-1.69Zm67.09-496.75,6.61,3.63,6.69-10.51,10.17-.24,5-5.32-.09-7.25-5-5.32-26.84-3.87-11.73,19.94v14.5l5,5.68,3.47-.12ZM595.24,972.23l-11.64,9.31-3.22,18.13,8.38,1.57,8.38-9.06ZM436,1075.82l.12-7.26,9.83-7.25.34-14.5-5.13-2.06-26.72,32.88-5.16-5.56-.09-7.25-8.29-5.44-23.49,21.75-11.73,5.56v25.38l3.35,3.63-.09,7.13,3.56,7.37,6.6,7.13-.12,3.74,6.84,7.14v14.38l6.7,7.37-3.35,7.49,1.57,12.44h10l11.85-9.06-6.57-14.38,6.57-7.25v-14.74l5.16-9,5-1.57V1104.7l3.22-3.62-.09-18,5.25-1.82Zm100.75-54.64,3.23-10.63-4.91-5.56-10.08-3.5-5,5.44-.13,14.38,5.13,5.43h3.47Zm1303.4,592.21-1.57,1.81-.09,3.75,5,5.43,1.68-1.81.13-7.25-1.69-1.93ZM298.63,1155.45l-1.56-20-10.2.11-1.66,9.19,6.61,7.13,1.87,5.44ZM856,1180.35l-.21-7.25-5-5.32H837.28l-6.69,7.13-10,.12-8.6,5.44,6.91,10.88,3.38,21.87,4.91,8.82,6.69.12,3.6,3.62,13.29-.24,11.73-8.94v-14.5l-5.13-9.06H844l-3.35,3.62-5-1.69,8.51-9.18ZM630.56,1583.2l-8.39-12.67-16.52-.13-15.32,23.67.09,18,8.29,5.31,6.7.12,10.19,11,9.95-.11,3.44-3.63,11.76-1.81,3.35-21.86-13.54-3.5Zm117.85-134.53,6.82-7.37-5.13-8.82-3.38,3.5h-10l-6.81-7.12-10.17-.24L713.41,1418l-6.7-.12-6.82,7.12-6.94.12-6.35-10.86H676.4l-3.35,3.74-17.31-14.25-10.08,3.74-5-9.06,16.89-10.87v-3.74l15.53-16.68,3.35-3.75,16.77-.11,6.6-7.13,6.73.12,6.81-7.37,8.39-1.81-.22-7-16.67-18.37-3.26-10.87-8.38-9.06-6.91.12-3.26-3.75-6.69.24-3.26,7.25L666,1295l-13.66.25-3.35,3.37-5.13-1.81,1.91-5.44,8.26-5.31,3.34-10.87,5.16-5.44,6.7-.12,3.8-5,16.65-2.78,13.42,11,6.6.12,5.16,5.32v3.5l8.6,5.56,36.66-.24,5-9.07.21-14.12-10.28-3.87,6.85-7.38v-14.37l6.57-3.63.12-7L765.3,1224l-.12-21.63-13.51-3.74.09-7.25,3.47-3.75-.12-14.5-3.23-3.39,5-5.55,3.13,7.12,10.29-7.25,6.69.13,1.69-16.44-5.16-8.82-6.69-.12-13.33,14.38-21.9-5.32,1.79-9.18,16.76.12,4.92-5.56-4.92-8.82-18.67-5.68,6.94-10.88-.12-7.25,5.16-5.31,33.41-.13,16.89-10.75,10,14.5,13.42-.12,5.16-5.32v-11l-3.38-3.62-.09-21.64-10.08-18,1.78-12.8h13.33l6.7-3.63,8.5,16.32-3.47,3.5,10.07,18.25,8.48,1.58,3.25,3.74,6.82-7.13,20-3.63,3.35-7.37,6.7,3.62,5.25-1.57-.22-7.49-6.6-7.13,3.47-3.75-.22-10.76,6.82-7.37-1.69-8.94-5.25-1.81.25-11,5.69-6.09,4.26-4.54-6.61-11.12-3.25-14.39-8.38-9.06h-3.47l-6.91-11.12-13.21-3.39-3.59-3.74H850.7l-5.13,27.31-1,.19-7.07,1.38-5.16,5.69-5,9.06-20.24,7.37-10,18.14-10.19-.37-8.14,9.19-1.57,9.06L766.74,1019l-3,7.38-5.26-1.94,10.17-21.63-5.16-9.19-13.39-3.39-16.8,18-6.69-.11-11.73,9.18-.12,7.25-8.17,9.19-10.17-.13-9.95,11-10.16-.13-3.26,7.26-3.9,7.73-3.37-3.87-8.26,2.18-.13,17.89-4.79,9.18-3.59-.12-5,5.44v10.88l-5,5.43-16.55-.11-3.6,3.74-13.41.24-25.28,23.45V1159l-5,5.68-1.35-5.56-8.6-5.44H548.29l-3.26,3.63-30.27.12-3.26,3.75-20.11-.24L478,1175.39l-20,10.88L448,1190l-13.64,10.75-30,.12-1.69,8.94-6.81,3.63-3.23,7.36v10.76l-1.81,1.94-6.57-3.63-6.85,3.63-5-5.56-.13-7.25-9.95-10.88-3.25-14.38-5-5.56-3.59.24-9.95-7.49h-37l-6.73,3.63L283.65,1179l-6.73-.12L266.76,1190l-3.35-3.63-6.72-.12-6.82-10.88-4.79,9.19-6.94,10.87.12,10.64-6.85,18.36-8.38,9.07-3.22-.13-15,19.94-.21,11,6.81,10.88-1.69,5.19-10.16.24-1.57-9.18-8.29-5.44-6.81,7.38-16.77,7.13-23.37,3.5-18.67,31-5,5.43-6.69-.12-3.13-3.51-16.89-.11-10,7.25-6.73-.13-8.38,12.81.12,7.25,4.79,5.56,30.31-3.63,4.91,5.31-3.34,7.14v11l-11.64,12.8-10.17-.24-15.1,12.93.12,21.73,3.35,3.51-.1,18.24-5,5.32-6.73-.13L41.92,1429l-10,.24-5.13,8.94.09,7.25L16.77,1459.9l3.34,7.24-3.22,29.11,16.77,18-3.47,11-3.26,3.62v14.49l3.26,7.25,8.5,8.94,6.7.11,8.38,5.32L47,1583.08l-6.6,7.37,1.78,12.68,13.33-7.49,16.64,3.62,8.39-5.31L74,1583.08l18.24-12.55,6.69-.13,10.07-7.12,6.82,10.63,10,.24,8.42-9.06v-3.74l10-7.37.12-3.5,15.08-12.56,18.36-1.93-3.38-14.5,5.16-1.69,11.61-12.68.12-3.74L203,1490.82l6.69-.13,3.35,3.63H226.5l3.13-11,3.69,3.87,18.33,1.8-3.35,7.25,3.35,18,5,5.55,6.72-.11,6.7,10.86,9.95,3.62,20.14,18.12,10.16-.12,13.55-17.87,9.94,7.12,13.39,10.75,13.33-7.25,10.17.25,15.1-12.69.1-18.11-8.39-12.68-37,3.5-5.13-5.56,8.48-5.31,11.76-12.44,1.78-5.8,26.72.37,13.29-7.49,13.54-7.25,6.7-.12,30.09-18.12,6.7.13,6.81-7.25,20,.11,6.82,7.14,9.95.11,3.26-3.62,23.58-14.49,6.7-.12,20.14-14.62,35.31,1.93v14.49l-10.16,11L577,1449l-3.35,3.62,5,9.18H582l8.47,8.94-.09,3.74,6.69,3.63v7.12l-10,10.87L583.85,1507l4.79,5.55H598.8l1.57,5.44,8.51,8.94,6.72.12,6.69-10.87,16.77.12,6.73-11.11h13.42l1.78,9.3,8.26,5.44,3.8-7.73,3.47-3.75h13.42l4.79-5.43.13-7.37,8.26-5.44h10.19l1.57-8.94,11.61-12.68,17-3.62,5-9.06Zm577-18.12-1.81-1.93-10,.11-1.56,5.32,6.48,7.37-.1,3.74,5.25,5.32H1327l1.78-12.8-3.35-3.63ZM827.33,1533.82l-20.24-.13L795.49,1521l-3.47-7.12,1.69-5.56,25.24-8.94-5-9.18-5-1.56,6.81-7.38-.24-10.74-8.14-2-3.47,3.74H783.51l-8.26,16.3,3.47,3.63-.12,7.24-13.3,14.5-.12,7.24,8.5,1.82,6.61-3.63,5,5.43,3.47,10.87-3.47,3.5v7.25l-5.13,5.56-6.48-3.63-10.19,3.51-6.57,14.61-3.59-3.75-6.61-.11-1.65,20,8.47,2.05,3.38,7.13,6.69-.13,3.13-3.5,6.73.13,10.16-11h3.47l3.35-7.36,9.95-7.12h10.16l6.73,10.87,3.13-.13,1.91-8.93,13.38-10.75-.21-7.49,3.68-3.5Zm394-63.41v-11l-1.78-1.69h-3.13l-8.51,8.94v3.75l1.79,1.69,10,.12Zm92.25,56-16.89.13-3.13,3.5-5-5.32-1.69-9.29-6.69.11-6.82,7.38-6.72-.13-9.95,11h-13.3l-6.82-3.63-3.34,3.5h-13.42l-3.35,3.87-6.72-.13-8.48,8.82-4.94,12.8-11.73-16.18,1.56-9h3.26l8.47-9.18,1.57-5.44,6.72.12,18.67-9,3.35-7.38-3.35-3.62v-14.49l-8.29-9.06-13.51,7.49-6.72,10.63-10-7.13-5.15-9.06.12-18.24-5-5.31-6.94-.12-1.56-5.19-10.05-7.37,3.35-3.74.09-7.25,6.61-7.13-.1-18.12-4.82-5.43-6.69-.13-3.59-7.12-6.7.12-9.86,14.38-16.76,3.5-10.07,7.25-6.7.12-5.13,5.31v7.49l11.73,8.94,8.51,1.93-6.85,7-.09,7.24,10.29,7.25-15.33,1.81-11.73,9.18-3,7.13-.21,14.61,1.78,1.81,3.38-3.87,20,.13,3.47-3.5,20-3.63,13.51,7.13,4.82,5.43.12,21.74,3.23,3.63-6.6,14.61,10.19,14.49-3.38,3.5-.09,25.48-3.35,3.5.1,22-11.86,12.44-10,3.62-4.94,5.56,3.13,21.6,15.23,12.69H1166l3.47-3.62,10,7.36h10l6.69-10.87h3.47l6.82-7.12,16.77,21.61,6.72-.12-1.69-23.43-10.29-18.23.22-14.49,6.72.12,8.39,12.57,13.51,7.23,6.39,10.87,13.51,3.75,3.59,7.12,6.69.12,1.57-9.06-10.16-11,.12-7.25-13.54-18.11-3.23-17.87-5-5.67-8.51-1.58,1.69-5.55,6.69-.12,10.17-7.12,3.37,3.61,8.39-1.93,3.13-14.48,10.29-7.13,1.66-5.55h3.25l10.07,11H1307l10.16-14.61,4.92-1.57-1.79-12.92Zm-.12-151.94-10-.12-3.35,3.5h-10l-13.54-7.25-6.69.13-15.11,12.8,5,5.31h3.26l5,5.32,5.16,9.18,6.82,3.63H1290l1.68,8.94,5.38,5.67,6.48,3.63,16.89-.13,1.66-12.68-3.47-3.74.12-28.87Zm-68.42,8.94-.12-3.75-1.78-1.68-6.73-.13-3.35,3.87-4.91,1.57v3.75l1.57,1.69h10.16ZM1109,881.45l1.78-2.06-.21-10.76-8.38-9.06-6.48-.13L1094,861.5v10.76l8.26,9.06ZM855.64,1343.58l.1-18.13-11.86-9.3-23.24.24-3.47-3.62H803.75l-3.14,3.51-16.88.11-8.48,9.19-.12,6.88,8.5,5.56h13.42l15.08,12.68,1.69,9.18,6.69-.12,3.38-3.5,1.78,1.93,6.7,25.25L844,1396.25l10.16-.24,5.16-5.32,3.13-25.49-10.07-10.75Zm251.56-337.14.08-28.46,0-4.29,6.72-14.27,6.69-10.88-2.77-6.21-.57-1.28,3.34-7.26v-.22l.21-14.29-11.54-15.64-.41-.55-.65.09-11,1.6,2.59-5.62.75-1.63V886.77l-13.42-11-.09-7.13-5-5.44H1058.9l-.16.16-3.31,3.35H1015L1005,874l-10,.13L986.55,883l.12,3.75,5,5.44,5,1.81-3.44,3.62.21,10.89,4.79,5.43h10.2l4.79,5.45.2,2.86.63,8.89.86,11.94,13.63-.24,8.26,5.56-6.69,10.88.12,7.13,1.57,2.06,6.69-.13,3.35-3.62,1.81,1.69-6.94,14.63.09,7.25-6.69,10.88v10.88l3.34,7.25,18.46,5.32,3.35-3.51h13.41l3.48-3.62h26.71Z"/></g></g></svg>