<svg xmlns="http://www.w3.org/2000/svg" viewBox="0 0 2361.03 1463.41"><g id="Layer_2" data-name="Layer 2"><g id="Hungary"><path d="M2142.05,93.43c.41,1.31-2.68,2.3-5,6.17a11.1,11.1,0,0,0-1.91,6.33c.18,3,2,5.08,4.41,7.94,1.78,2.07,2.87,3.34,4.86,4.41,3.14,1.68,6.76,1.91,9.11,2.06,2.57.16,2.75-.13,3.53.29,3.28,1.78,3,8.51,2.94,10.59-.18,4.92-1.56,6.08-.44,7.94,1.61,2.67,5.14,1.45,7.35,4.41.68.91.95,1.83,1.18,6.76.44,9.49-.4,9.45.44,11.47,1.53,3.66,3.91,2.93,7.65,8.53a34.79,34.79,0,0,1,2.94,5.59c2.95,6.59,3.36,11.08,4.41,11s.62-3.8,3.67-7.36a9.94,9.94,0,0,1,2.95-2.5c3.75-2,6.55.64,15.58,1.18a28.79,28.79,0,0,0,5,0c2.47-.24,3.3-.69,6-.88,2.32-.17,3.48-.25,4.41.15,2.38,1,2.34,3.68,4.12,7.35,1,2.11,3.47,4.64,8.38,9.7,3.74,3.87,5.62,5.8,7.06,6.47,2.93,1.38,5.33,1.27,7.2,3.68.36.46,1.69,2.16,1.18,3.67-.61,1.82-3.18,1.33-4,2.94-.89,1.83,1.85,3.53,4.7,9.56,1.56,3.29,1.52,4.41,3.24,6.47,2.12,2.56,3.14,2,4.12,3.68,1.86,3.23-1.46,6.08-1.62,13.23-.07,3.22-.15,6.75,2.06,8.53,2.65,2.13,5.6-.66,10.44,1.47,2.93,1.3,2.59,2.66,6,4.12a16.82,16.82,0,0,0,7.65,1.17,18.71,18.71,0,0,0,8.09-2.79c3.35-1.87,3.51-2.85,8.67-6.76,4.07-3.08,6.13-4.62,7.94-4.71,4.16-.21,5,3.57,9.56,3.53,4,0,5-2.91,8.09-2.06,2,.55,2,1.87,5.73,3.82,1.89,1,3.66,1.88,4.86,1.18,1.57-.92,1-3.89,1.61-4,.76-.1.91,4.67,3.83,9.56,1.86,3.12,3.24,3.58,5.73,8.08a18.61,18.61,0,0,1,1.91,4.12c1.17,4-.13,5.83,1.32,7.21,1.12,1,2.17.26,5.45,1.76a9.62,9.62,0,0,1,2.35,1.32c2.61,2.39,1.44,10-2.35,15.74-3.35,5-7.47,6.63-9.86,12.2a7.12,7.12,0,0,0-.58,4.56c.18.76.65,2,3.08,4.12,1.18,1,4,3.31,10.44,6.47,2.08,1,2.38,1.06,2.8,1.61.82,1.09,1.44,3.26-2.36,11.62-3.33,7.35-5.2,11.47-9.7,15.44a46.88,46.88,0,0,1-7.79,5.29,74.63,74.63,0,0,1-8.24,4.12c-6.06,2.61-9.09,3.91-12.64,4.12-2.43.14-3.32-.21-4.12.59-1.6,1.58-.47,5.32,1.47,11.76.62,2.06,1,3.21,1.62,4.85,1.31,3.33,1.88,3.61,1.76,4.56-.36,3-6.5,4.91-10.58,5.59-7.27,1.21-10.18-1.2-13.09,1.17-1.43,1.17-1,1.93-3.09,8.38-3.23,9.79-5.66,12.15-6.76,13.09a30,30,0,0,1-4.71,2.79,80.39,80.39,0,0,1-11.32,5c-5.11,1.85-7.7,2.79-11.32,3.39-4.7.78-14.08,2.33-20.73-2.8-2.77-2.13-1.45-2.63-5.74-7.06-2.52-2.6-7.16-7.27-14.26-9.11-2.6-.68-5.22-1.36-8.24-.3-4.54,1.61-6.54,6-6.91,6.77-1.9,4.13-.11,5.7-1.17,12.64-.65,4.27-1.3,8.49-4.41,10.88-2.12,1.63-4.73,1.6-9.86,1.47-6.4-.16-13.06-.32-19.7-4.26-3.82-2.27-6.18-4.92-7.35-4.12s.68,3.49-.3,7.06c-1.23,4.53-6,6.89-6.91,7.35-6.12,3-10.08-.31-12.49,2.5-.64.75-.5,1.14-1.62,12.06-.25,2.4-.43,3.91-1.62,4.85-1.61,1.28-3.49.26-5.59,1.62-1,.62-1.66,1.54-2.5,3.53-2.78,6.6-.74,10-3.08,13.82-2,3.28-4.08,1.66-6.92,5-3.56,4.19-.8,7.32-4.11,17.79a49.18,49.18,0,0,1-4,8.68c-2.14,4.06-3,4.83-4,5-2.21.37-3.19-2.54-6.91-3.09a8.67,8.67,0,0,0-4.86.73c-2.79,1.4-2.63,3.7-5.73,8.53-2.05,3.19-3.79,5.9-7.06,7.65-2.64,1.41-3.68.8-6.76,2.5a21.15,21.15,0,0,0-5.59,4.7c-3.73,4.13-4.45,6.7-8.09,12.65-4.16,6.81-4.39,5.38-6.47,9.56-1.64,3.3-4.44,9-3.38,15.43.3,1.82.48,1.14,2.8,7.8,1.42,4.09,1.52,4.83,3.52,11.17,3.22,10.16,3.46,9.8,3.39,11.18-.25,4.83-2.92,4.48-5.3,12.94a14.19,14.19,0,0,1-2.94,6.17,8.75,8.75,0,0,1-4,2.8,9.35,9.35,0,0,1-5,0c-3.28-.7-3.8-2-6.17-2.36a9.34,9.34,0,0,0-5.74,1.47c-2.72,1.48-4.34,3.56-8.82,11.77s-6.72,13.15-7.35,14.55c-1.83,4.06-2.91,6.86-3.38,8.09-2.2,5.78-3.3,8.66-3.53,11-.3,3,.11,5-1.18,8.23a25.74,25.74,0,0,1-1.91,3.53c-1.62,2.72-2.67,4-5,7.35-1.91,2.74-2.86,4.11-3.09,4.56-1.87,3.77-.81,6.67.44,20.15.33,3.49.47,5.54-.73,7.64-1.35,2.37-3.86,3.86-5.29,4.71-2.49,1.47-3.11,1.15-4.56,2.06-2.7,1.68-2.89,4.24-5.44,12.35-2.93,9.28-3.24,7.68-4,11.61-.82,4.38-.58,7.16-2.94,9.56a7.34,7.34,0,0,1-4.56,2.35c-2,.14-2.52-1-4.56-.88s-2.83,1.29-5.29,2.5c-3.28,1.6-4.39.21-6.62,1.62a9.65,9.65,0,0,0-3.38,4.26c-1.74,3.45-.82,4.64-1.91,7.8-1.42,4.09-3.5,3.63-7.8,10.14-2.63,4-2,4.4-3.53,5.59-4.6,3.59-11.21.54-12.2,2.79-.25.58.14.88,2.35,4.86,2.6,4.67,2.92,5.81,4.56,6.91,1.91,1.27,2.58.46,3.82,1.47,3.4,2.73,2.06,11.64-1.61,17.79-1.72,2.88-2.35,2.47-4.27,5.88-2.12,3.78-1.82,5.14-4.12,9.85-2.09,4.31-3.13,6.46-5.14,7.35-3.4,1.52-5.7-1.39-9.12.3-3,1.51-4,5.19-4.12,5.88-.66,3,.37,5.55,1.33,7.94,1.69,4.21,3.51,5.06,3.38,7.94-.06,1.34-.45,1-1.32,4.12-1,3.74-.64,4.73-1.77,7.79a8.29,8.29,0,0,1-2.2,3.82,7.9,7.9,0,0,1-4.27,1.62c-3.12.52-6,2.07-9,3.09-10.1,3.45-11.26,4.5-12,5.73a12.68,12.68,0,0,0-1.62,5.3c-.45,2.88,0,4.09.15,7.79.13,4.13.19,6.2-.59,8.67a21.18,21.18,0,0,1-5.3,8.09c-2.62,2.82-3.39,2.56-4.55,4.56-1.48,2.53-2.46,6.76-.59,9,1.65,1.95,3.87.34,7.06,2.65,1.66,1.2,1.24,1.77,4.11,4.85s3.46,2.76,4,4.12c1.3,3.4-2,7.64-2.64,8.52-3.33,4.32-6.44,3.68-7.5,7.21a23.14,23.14,0,0,1-1.47,5c-.59,1.23-1.16,2.4-2.06,2.5-1.12.11-1.59-1.55-3.24-2.65-1.19-.8-2.33-.85-6-.73-9.17.29-10,.88-10.44,1.61s-.2,1.67.15,3.68c.76,4.35,1.81,4.7,2.06,7.64a16.46,16.46,0,0,1-.88,6.47,8.14,8.14,0,0,1-1.18,2.8c-2.09,2.6-5.34.92-7.06,2.94-1.9,2.23,1,5.52-1.17,9a6,6,0,0,1-3.24,2.5c-3.55.94-8.65-2.34-10-6.18-.27-.79-.41-1.67-1.17-2.06-1.14-.58-2.31.63-4.71,1.33-2.78.81-3.19-.23-5.44.44-3.13.93-5,3.73-5.88,5.14-1.83,2.81-.92,3.41-2.79,6.18-2,3-3.56,3-4.12,5.29a6.34,6.34,0,0,0,1,5.3c1.21,1.46,2.54,1.18,3.38,2.64a5.17,5.17,0,0,1,.15,4c-.92,3.08-3.42,3.78-6.18,6.33-2.32,2.14-3.75,5.3-6.61,11.61a85.47,85.47,0,0,0-3.39,8.83c-1.92,5.77-2.88,8.66-2.79,11.91,0,1.49.62,3.84,1.76,8.52.45,1.81.73,2.78,1.62,3.53,1.62,1.37,3,.16,5.59,1,1.1.37,2.89,2.41,6.47,6.47a8.27,8.27,0,0,1,2.2,3.53,7.43,7.43,0,0,1-.14,3.82c-1.57,6.18-2.65,9.12-2.65,9.12-2.8,7.63-3,8.44-4.26,9.41-1.8,1.35-3.7,1.46-6.18,1.62-6.47.4-8.11-2.41-14.11-1.91a13.14,13.14,0,0,0-7.36,2.5,12.83,12.83,0,0,0-4,5.73c-3,8,1.67,13.13-.73,21.47a12.11,12.11,0,0,1-3.53,6c-1.67,1.46-2.27,1-3.24,2.06-2.87,3.13,1.3,8.45-1,12.93-1.24,2.41-3.7,3.33-6.61,4.42-8.06,3-12.69-1-16,2-2,1.88-.5,3.56-2.79,11.47a30.23,30.23,0,0,1-4,9.41c-1.78,2.62-4.5,6.63-9.41,7.65-2.94.61-7.67.36-9.86-2.5s-.16-6-2.49-7.94c-1.52-1.29-3.68-1.11-6.47-.88-3.91.32-4.31,1.47-7.5,1.76a18.36,18.36,0,0,1-9.27-1.91c-3.26-1.43-3.71-2.54-7.79-4.12-2.67-1-4.37-1.67-5.59-.88-2.1,1.37-.23,5.39-2.06,6.62-2,1.37-7.44-1.56-10.73-5.29-2.23-2.53-2.67-4.49-5.29-5.59-.57-.24-1.74-.65-5-.44s-6.25.89-11.47,2.64c-7.4,2.49-6.38,2.91-8.38,3.09-6,.53-9.8-3.07-11.77-1.18-1.09,1.06-.11,2.36-1.61,4.42-1.23,1.67-2.38,1.48-3.83,3.08a8.79,8.79,0,0,0-2.06,4.86c-.39,4.31,3.31,5.57,2.8,9.41-.37,2.77-2.43,3.12-2.06,5.44.21,1.28.91,1.57,2.65,5,1.19,2.34,1.12,2.72,1,2.94-.66,1.51-5.24,1.09-8.09.44-2.54-.58-3.52-1.32-4.27-.74-1,.8.13,2.68-.29,5.88-.38,2.9-1.48,2.68-2.21,5.74-1,4.3.82,6.22-.88,8.82-.63,1-.8.59-2.79,2.35-3.63,3.23-3.52,4.91-6,6.33-1.38.78-2.64.91-5.15,1.17-5,.54-6.17-.87-8.08.15-3.25,1.73-1.88,6.76-4.41,7.79-1.83.75-4.13-1.21-9.12-5.58-10.86-9.52-10.58-9.57-12.65-11-4.13-2.92-3.42-1.43-14.55-7.35-7.32-3.89-9.73-5.66-12.21-4.56-1.66.73-1.77,2.06-4.41,7.64-3.38,7.17-5.13,10.79-7.94,12.5-4.06,2.47-8.9,1.53-10.73,1.18-6-1.17-6-4.29-11.47-5.3-6.4-1.18-9.48,2.56-12.94.15-2.89-2-2.38-5.74-4.71-6.17-1.59-.3-2.2,1.38-5.58,3.67-2.31,1.56-5.41,2.71-11.62,5-3.31,1.22-3.53,1.18-4.26,1.77-2.67,2.14-2.09,4.65-4.56,8.23-1.09,1.57-2.82,4.08-5.44,4.71-3.46.82-6.81-2-11.77-6.18s-5.68-6.11-10.29-9.26c-2.76-1.89-4.13-3.64-6.32-3.53-1.66.08-2.39,1-5.74,2.94-3.67,2.17-5.51,3.25-6.47,3.23-3.91-.06-5.34-5.8-13.82-12.5-1.74-1.38-2.36-1.66-3.08-1.61-3.67.25-3.68,8.62-10.3,12.64a9.27,9.27,0,0,1-5.29,1.62c-3.76-.16-6.33-3.09-8.53-5.59-4.55-5.17-2.53-7.84-5.59-10.14-3.29-2.49-5.06.67-16.32-.15-3.75-.27-7.62-.92-11.47,1.32-.88.52-.89.68-2.2,1.62a39.68,39.68,0,0,1-10.59,5.15c-5.72,2.12-8.75,3.25-12.06,5.58-5.78,4.09-6.58,7.77-12.5,9.71a17.88,17.88,0,0,1-4.85.88c-8.46.32-16.81-5.72-21-12.2-1.72-2.65-2.47-4.92-5.44-7.35-2.18-1.78-2.84-1.43-5.89-3.83-3.34-2.63-3.75-4-5.73-4.26s-2.26,1.2-5.44,1.47c-.68.06-4.85.41-7.21-2.06-.89-.94-.93-1.67-1.61-1.76-1.11-.16-1.87,1.62-4.12,4.41-1.88,2.32-2.82,3.49-4.26,4.26s-3.41.74-7.21.59c-4.28-.17-6.42-.25-9-1-4.22-1.29-4.65-2.79-6.62-2.5-3.12.46-3.13,4.4-6.76,8.38-6,6.6-14.79,5.38-15.14,9.12-.1,1,.86,2.41,2.79,5.14,2.45,3.48,3.81,4,3.68,5.3-.08.73-.59,1.51-6.77,4.56-4.21,2.08-5.64,2.54-8.38,4.26-2.29,1.44-3.44,2.16-4.12,3.09-2.35,3.22-.49,6.11-2.06,10-.41,1-.77,1.41-5.88,6-7.88,7.13-11.34,10.11-14.55,11.18a18.63,18.63,0,0,0-3.09,1.18c-2.16,1.07-2.63,1.9-4,2a5.41,5.41,0,0,1-3.53-1.17c-3.28-2-3-4.29-4.85-4.85s-3,1.15-8.09,4.41c-2.9,1.86-2.16,1.1-6.91,4a62.17,62.17,0,0,0-9.56,6.76c-3.59,3.16-3.75,4.21-3.67,4.85.15,1.36,1.43,1.79,4.11,5.3,1.87,2.43,1.71,2.82,1.62,2.94-.38.51-2.13-.6-5.15-1.18a21.19,21.19,0,0,0-4.7-.29c-4.18,0-20.09.18-41.76.44a42.42,42.42,0,0,1-3.38-9.41c-1-4.25-.81-6.72-2.94-9.27-.57-.67-2.44-2.9-5.15-3.08-3.48-.24-6.21,3-8.09,5.29-2.82,3.39-2.36,4.88-6,9.56-2.07,2.65-2.37,2.36-2.79,3.53-1.32,3.66,1.73,6.3,2.5,11.91a19.65,19.65,0,0,1-.59,7.94l-19.26-.59-1,.79a9.7,9.7,0,0,0-3.55,4.8,10.9,10.9,0,0,0-.15,4.41c.52,6.49.79,9.81-.29,10.29-.92.41-1.85-1.72-4.56-2.79s-4.49,0-8.08.44c-3.19.38-7.22-.43-15.3-2.06-4.12-.83-5.8-1.36-7.94-.44-1.6.69-1.95,1.54-4.85,4.41a38.93,38.93,0,0,1-6.47,5.59c-2.74,1.71-5.12,2.18-9.7,3.08-7.29,1.44-9.07.42-10.44,2.21-1.61,2.1.15,4.4-1.91,9.85-.66,1.72-1.27,2.66-2.21,2.94-1.47.45-3-.91-4.12-1.76-.51-.4.9.72-10-4.85-7.21-3.7-10.84-5.57-12.49-6.92-3.67-3-3.46-4.07-6-5.73-3.07-2-7.64-3.18-14.71-1.76a2.88,2.88,0,0,0-1.47,1c-.71,1-.12,1.89-.29,3.83-.21,2.34-1.2,2.55-1,4.41.15,1.67,1,1.93.73,2.79-.57,1.93-5,1.29-5.58,3.09-.51,1.54,2.47,2.89,2.06,5-.28,1.44-2,2.29-3.24,2.94-2.84,1.44-4,.48-5,1.47-2.26,2.16,2.34,7.45,0,11.91-.37.72-.4.41-4.85,4.27-4,3.43-3.43,3.24-5.59,5-4.54,3.71-5.78,3.67-6.47,5.59-1,2.77,1,4.61-.29,6.18-1.07,1.33-2.69.28-6.33,1a22.61,22.61,0,0,0-9.7,5.14c-1.68,1.49-1.85,2.1-3.09,2.5-2.77.91-6.34-.7-7.06-1-1.57-.71-1.89-1.19-2.64-1-1.95.44-2.65,4.33-2.8,5.15-.67,3.79.74,4.77-.29,6.32-1.39,2.11-5.67,2.86-8.53,1.62-1-.42-1.37-.89-2.06-.73-1.62.38-2.16,3.69-2.5,5.88-.89,5.83.47,7.48-.88,9-1.92,2.11-6.67,1-9.26-.15-3.4-1.52-5.37-4.15-7.21-6.62-3.47-4.65-3-6.55-5.88-8.38-.29-.18-4.15-2.55-7.2-1-1.58.79-2.42,2.35-3.53,4.41-1.48,2.75-1.2,3.84-2.65,5a4.8,4.8,0,0,1-4.12,1c-1.42-.4-1.92-1.55-2.79-2.5-2-2.11-5-2.23-9.7-2.35-7.47-.19-8.26,1.68-12.65.44a13.67,13.67,0,0,1-6.32-3.67c-1.93-2.06-1.36-2.93-2.94-5-2.77-3.61-7.12-4.38-13.09-5.44-3.59-.64-4.94-.37-5.73.44-1.08,1.09-.59,2.64-1.92,3.53a4,4,0,0,1-3.38.14c-1.69-.62-2.29-2-3.09-2.94-3.06-3.58-11.68-3.55-14.55,0-1.56,1.92-.24,3.4-2.06,6-2.33,3.36-6.54,3.91-7.06,4-2.19.26-3.92-.29-8.09-2.21-8.31-3.82-19-9.55-19-9.55a16.19,16.19,0,0,0-4.71-1.91c-3.83-.84-4.47.67-9.56.58-4.58-.07-7.19-1.35-9.41.3a5.33,5.33,0,0,1-1.76,1,6.81,6.81,0,0,1-4.27-.44c-1.62-.57-1.85-1-2.79-1.33-2.75-1-5.78.68-7.2,1.47-3.21,1.78-3,3.16-6.77,5.88-2.74,2-4.1,2.94-5.59,2.8-4-.38-8.2-7.42-9.11-13.68-.27-1.83-.25-3.59-1.62-4.7-1.55-1.26-3.42-.47-6.47-.59s-2.85-.94-8.67-2.65c-7.25-2.12-9.12-1.33-11.47-3.67-2.1-2.09-1.24-3.34-3.09-4.71-2.94-2.16-6.09.25-13.38.59-4.11.19-9.3.44-13.09-2.65-1.81-1.47-2.51-3.07-4.7-8.67-4.11-10.49-4.15-11.23-5.44-14.26-1.84-4.32-5.21-12-12.5-18.68a36.86,36.86,0,0,0-9-6.17c-3.35-1.58-6-2.13-11.77-3.09-19.67-3.29-19.32-1.93-24.55-4-5.4-2.11-9.4-5-11.18-3.38-1.57,1.41.27,4.87-2.05,7.35-.89.94-1.92,1.21-4,1.76s-6.4,1.71-9.71-.44c-1.73-1.13-1.13-1.83-2.79-2.94-3.13-2.09-5.67.1-9.41-1.47-2.45-1-5.05-3.5-4.71-5.59.48-2.93,6.56-3.84,7.79-3.82a8.53,8.53,0,0,1,2.44.34c.19.07.34.13.36.1s-3.12-.88-4.27-2.94c-.53-1-.44-1.89.89-7.65.38-1.65,1.21-5.23,1-5.29s-1.67,7.57-4.86,7.94a4.06,4.06,0,0,1-2.2-.73,9,9,0,0,1-4.27-4.71c-.49-1.39-.41-2.5-.58-2.5s.12,3.32-1.62,6.62a7.73,7.73,0,0,1-1.91,2.5c-1.55,1.27-4.38,2.39-6,1.32-1.46-.94-.46-2.57-2.21-6.91-.92-2.29-1.56-2.74-1.47-4.12.17-2.48,2.41-3.27,2.06-4.41-.52-1.67-5.44-.18-10.44-2.94-.23-.13-4.37-2.45-4-4.26.33-1.47,3.36-1.24,7.65-4.12.3-.21,3.1-2.11,2.79-2.79s-3.58,1-7.65-.15c-1.44-.41-3-.85-3.52-2.06-1.19-2.74,4.46-5.8,3.52-9-.71-2.41-4.85-3.63-7.49-4.41-3.15-.93-4.48-.55-5.3-1.76-1.35-2,1.29-4.59,0-6.62s-5.39-.89-6-2.5c-.81-2.06,5.22-5.49,4.41-7.5-.22-.57-.83-.3-3.38-1.18-2.37-.82-4.4-1.55-5.14-3.23-.33-.75-.15-1.11-.59-1.47-.88-.72-2.16.27-3.83,0a5.3,5.3,0,0,1-2.94-1.91c-.56-.61-2.41-2.81-2.35-11.47,0-5.33.74-5.84-.15-7.21-1.79-2.76-6.37-3.34-6.47-5.58a4.53,4.53,0,0,0-.29-1.92,4.09,4.09,0,0,0-1-1.47c-1.6-1.37-4.39,1.29-7.94.74-1.14-.18-2.64-1.25-5.59-3.38-2.26-1.64-4.06-3.1-5.29-4.12l-36-21.76a9.06,9.06,0,0,1-3.39.59c-.9,0-3.12-.07-4.41-1.33-2.16-2.11.48-5.52-1.32-7.5-2-2.15-6.27.64-10-2.06a7.22,7.22,0,0,1-2.06-2.35L265,1187.55q-1.17-14.85-2.35-29.7c-6.44-9.79-10.36-12.21-12.79-12.5-1.69-.2-3-.43-5.74-.88-3.18-.54-3.61-.69-4.12-1-2.11-1.44-1.32-3.38-3.52-5.3-.25-.21-2.35-2-4.71-1.61-1.71.27-1.84,1.39-4,2.35a9.58,9.58,0,0,1-5.59.59c-2.71-.72-3.16-2.89-5.58-5.15-4.09-3.81-6.89-1.45-10.89-4.41s-2.09-6.08-7.64-16a50.06,50.06,0,0,0-5.74-8.38,40.22,40.22,0,0,0-8.23-7.5c-7.47-4.92-10.63-2.14-19.85-6.76-5.39-2.7-3.68-3.33-10.73-7.21-6.28-3.44-11.34-5-11.77-8.53-.11-1,.24-1.08.44-4.26a38.29,38.29,0,0,0,0-5.59c-.37-3.65-1.75-4.05-4.41-10.44-1.94-4.68-1.6-5.44-3.09-6.76-1.79-1.6-3-1.08-5.88-3.38-1.49-1.18-3-2.42-3.23-4.27-.17-1.47.66-2,.44-3.23-.33-1.86-2.56-2.58-4.41-3.68-6.06-3.58-4.56-9-10-11.17-2.53-1-3,.08-5.74-1.18-1.19-.56-2.35-1.36-6.47-6.47-3.16-3.93-4.76-6-5.58-8.09a11.44,11.44,0,0,1-.74-7.5c.17-.55,1.06-3.58,2.8-3.82,1.51-.2,2.43,1.88,4.41,1.62a3.44,3.44,0,0,0,1.76-.88c1.58-1.33,1.78-3.35,2.06-5.15,1.08-6.85,3-7.51,1.91-10a7.35,7.35,0,0,0-4-3.67c-4.32-1.58-7.46,2.51-10.14.88-1.17-.71-1.71-2.88-2.8-7.21-.83-3.31-1-5.64-1.91-5.73-.59-.07-.86,1-2.2,2.06-.64.5-2.36,1.87-3.53,1.47-1.46-.5-.72-3.24-2.36-7.35a21.15,21.15,0,0,0-3.67-5.89c-1.28-1.51-3.13-3.32-5.15-5.29-1.86-1.82-2.87-2.73-2.65-3.68s1.65-1,2.65-2.2a5,5,0,0,0,.59-5c-1.1-2.15-3.61-1.16-5.44-3.24-2.38-2.69-1.68-8.39.88-10,.3-.19.45-.21,2.21-.59a53,53,0,0,0,6.17-1.47c1-.61,1.48-1.6,2.5-9.56.93-7.24.76-8.24.15-9.26-1.12-1.86-2.23-1.32-6.18-4.27a40.58,40.58,0,0,1-5.88-5.44,46.82,46.82,0,0,0-5-5.29,8.29,8.29,0,0,0-3.09-1.91,8.08,8.08,0,0,0-4.11-.15c-3.76.64-5.63-.92-10-1.32-7.42-.69-13.81,2.71-15.88,3.82-3.45,1.84-3.44,2.69-7.06,4.26a22.09,22.09,0,0,1-10,2.21c-1,0-8.85-.43-10-4.26-.47-1.6.41-3.13,1.33-4.71,2.44-4.22,5-3.74,9.41-8.53,1.92-2.1,2.18-3,4.7-5.44s2.82-2,4-3.38c2.14-2.59,1.54-4.51,3.68-11.18,1.54-4.8,2.37-5.45,3.09-5.58,1.63-.31,2.58,2.1,5,2.06,1,0,1.82-.48,3.82-2.06a49.64,49.64,0,0,0,5.73-5c4.48-4.66,4.77-6.29,7.21-6.91,2.22-.58,3,.52,4.26-.3,1.75-1.11,1.13-3.67,1.62-10.58A25,25,0,0,1,57,820.24c.22-.37,1.27-2.1,2.06-1.91s.44,2.39,1.91,4.27a6.57,6.57,0,0,0,2.79,1.91c2.57,1.14,6.6,1.69,9.56-.15a16.57,16.57,0,0,0,3.53-2.79c.64-.74,1-1.38,1.76-1.47.95-.12,1.7.75,2.36,1.32,1.46,1.27,3,1.55,5.88,2.06s3-.41,10.14-1.18c3.62-.39,5.26-.34,6.33.74s.56,1.85,1.61,2.64a4.8,4.8,0,0,0,5.88-.73c.93-1.07.51-2.05,1.33-2.5,1.08-.6,2.58.68,5,1.91a16.78,16.78,0,0,0,6.32,2.21c3.13.23,3.14-1.35,9.56-2.65,1-.21,1.89-.34,2.06-.88.29-1-2-2-4.86-4.41-1.78-1.48-4.13-3.78-8.82-8.39-.9-.88-1.61-1.59-2.65-1.61-2.27-.06-3.07,3.26-5.14,3.23-1.75,0-3.7-2.41-3.53-4.56s2.3-3.33,4-4.26c4.28-2.39,6.69-1.32,13.38-2.79,4.25-.94,8.47-1.87,9.12-4.41.5-2-1.33-4.3-2.8-5.45-2.26-1.77-3.73-.82-7.2-2.35a12.25,12.25,0,0,1-6.18-5.14c-1.15-2.13-2.17-5.95-.44-8.68s4.26-1.22,8.53-4.85a15.33,15.33,0,0,0,4.7-5.74c.66-1.52.69-2.49,1.77-3.53,1.56-1.5,2.79-.73,4.26-2.05,2.34-2.1,1.55-6.12,1.47-6.47-.17-.81-.57-2.73-1.91-3.24a3.54,3.54,0,0,0-2.79.59c-.62.31-3.32.65-8.68,1.32-8.33,1-9.28,1-9.85.3s-.06-1.61.44-4.86a39.8,39.8,0,0,0,0-10.29c-.45-3.32-.78-5.53-2.35-6.32s-2.91.85-5.29.59c-4-.44-8-6.1-7.06-10,.74-2.95,3.69-2.35,5.73-5.44,4.4-6.64-3.69-17.69-.14-20.44.32-.25.25,0,6.17-1,3.51-.58,3.9-.71,4.27-.88,2.78-1.31,1.63-4.27,4.55-7.65,2.1-2.42,3.32-1.84,4.12-3.67.43-1,.71-2.64-2.06-8.83-2.09-4.66-2.66-4.65-4-7.79-2.6-6.23-.79-7.32-2.94-10.44-3.35-4.85-9.11-4.18-9.56-7.5-.19-1.46,1-2.94,3.24-5.88,3-3.84,4.25-3.68,4.85-5.73s-.49-2.77-1.91-8.53c-1-4-1.46-6-.88-7.94.84-2.85,3.51-5.86,6.32-5.74,1.8.08,3.08,1.41,4.26,2.65,3.66,3.81,3.58,7.91,5,7.94,1.16,0,1.29-2.68,4.12-6a13.56,13.56,0,0,1,4.56-3.82c3.09-1.46,6.12-.89,10.88,0,4.48.84,6.08,3,7.5,2.06,1.7-1.12,0-4.17,1.91-6.18s4.87-.31,8.68-1.47c3.34-1,4.19-3.31,7.94-7.65,8.14-9.44,12-7.77,13.52-13.08.93-3.27,1.16-10-2.2-14.56-.75-1-1.62-1.86-1.62-3.23,0-2.84,3.67-5.88,7.35-6.62,2.31-.46,2.87.33,4.41-.44,2-1,1.88-2.69,4-6.18,2.54-4.22,4.23-4.32,4.41-6.47.07-.78,0-2.63-4.26-6.76-6.84-6.62-12.85-7.87-12.65-10.88.12-1.7,2.12-2.65,2.06-5.74a7.24,7.24,0,0,0-.29-1.91c-1.21-4.69-.8-5.62-1.91-9.85-1.28-4.83-1.91-7.25-3.83-9.26a12.51,12.51,0,0,0-7.05-3.68c-5.81-.81-8,3.63-15.88,3.53a15.8,15.8,0,0,1-4.56-.59c-4.06-1.2-4.57-3.33-9.85-6.76-.34-.22-2.88-1.47-7.94-4-2.26-1.12-3.52-1.71-5.15-1.47-2.09.31-2.43,1.65-4.26,1.91s-2.89-.91-6.33-3.09c-4-2.52-6-3.81-8.82-4.41-3.84-.82-5.26.5-7.35-1-1.86-1.35-3-4.06-2.21-5.44.93-1.55,3.62-.17,5.3-1.91,1.22-1.27.47-2.7,1-7.21.35-2.88.72-5.9,1.91-6.17,1.86-.43,3.44,6.43,7.06,6.62,1.25.06,2.71-1.23,5.58-3.83,4.65-4.19,3.94-4.61,5.74-5.59,4.53-2.45,8.13.7,11.17-2.05.83-.75,1.39-2.12,2.5-4.86,1.21-2.94,1.81-4.42,1.77-6.17-.09-3.74-2.66-4.83-2.06-7.21.47-1.87,2.48-2.8,5-4,3.25-1.5,5.24-1.48,11.76-2.64,6.08-1.09,5.18-1.25,6.91-1.33,2.13-.09,7.85-.33,12.5,3.09,2.61,1.92,2.82,3.48,5.88,4.85a16.08,16.08,0,0,0,5.29,1.18c6.2.71,8.39-.63,12.06,1a9.81,9.81,0,0,1,2.94,1.91c3.06,2.93,2.09,6.19,3.68,13.23,1,4.45,2.06,8.85,5.73,11.77A12.81,12.81,0,0,0,221,472.5l26.46.88a37.23,37.23,0,0,1,4.41-11.62c1.49-2.51,4.12-6.94,6.92-6.61a3.11,3.11,0,0,1,1.76.88c1.5,1.58.1,4,.59,6.47.61,3.11,3.9,4.89,5.73,5.88,5,2.69,10.19,1.8,15.15.88,6.12-1.13,5.74-2.23,12.2-3.82,6.79-1.68,7.28-.49,19.71-2.35,7.37-1.11,6.74-1.46,10.14-1.62,6.44-.31,10.21.86,11.76-1.33,1.21-1.7.32-4.35.15-4.85-.74-2.21-2.24-3-3.53-4.41-1.5-1.7-1.86-3.42-2.64-10.88-1.26-12-.69-11.13-1.33-13.23-2-6.44-5.66-9.12-4.26-11.47,1.06-1.79,3.75-1.16,5.59-3.83a7.29,7.29,0,0,0,1.17-3.82c.42-6-5.64-13.06-11.61-17.5-4.95-3.66-8.25-4.36-8.83-7.64a6.23,6.23,0,0,1,2.06-5.74c1.8-1.4,3.44-.47,8.82-.44,3.43,0,7.21,0,11.18-1.76a13.32,13.32,0,0,0,4.7-3.09c.78-.83,2.06-2.47,3.53-9.85,1.75-8.76.75-10.55,2.8-13.09.43-.53,1.41-1.61,1.17-2.79s-1.6-1.91-2.79-2.5c-2.82-1.42-4.2-.83-4.71-1.77-.81-1.51,2-4.61,3.24-6,2.34-2.61,3.59-2.83,4.56-5,.37-.83,1.29-2.9.44-4.42-1.39-2.45-6.21-1.17-6.62-2.49s4.83-3.62,10.59-7.8c6.9-5,5.72-6.48,11.47-10.29,3-2,7.29-3.49,15.88-6.47,10-3.49,11.76-3.36,13.08-2.5,3.33,2.15,1.12,6.84,5,10.73,2.87,2.88,6.95,3.2,11.18,3.53,8.17.64,11.38-2.28,15.58.3.56.34.58.43,4.27,4.56,2.34,2.61,4.72,5.17,7.06,7.79,9.7,10.86,12.09,11,17.2,18.23,2.88,4.07,1.53,3.18,7.06,12.06,5.3,8.5,8.35,12.22,10.59,14.7,4.72,5.25,8.87,9.75,13.08,9,1.72-.32,3.05-1.44,5.44-1A8.4,8.4,0,0,1,491,379c3.35,3.5,1.9,6.67,4.41,13.09,1.32,3.37,2.58,6.6,5.88,8.67,3,1.86,7.73,2.9,11.33,1,2.39-1.24,2.81-3,4.55-2.94,2,.08,3,2.4,5.15,5.15,2.62,3.28,4.53,4.11,7.79,6.76,9.24,7.51,10.34,14.15,21.47,22.79,5.46,4.24,8.61,5.3,11.47,4.85,1.74-.27,3.08-1.06,5.73-.88,2,.14,3.44.74,6.18,1.91,3.84,1.65,5,2.66,6.62,3.38,3,1.34,4.44.55,14.26-.58,10.71-1.24,14.14-.89,16.61-.45,3.61.65,2.81,1.06,5.74,1.48,2.22.31,11.8,1.35,19.26-4.12,2.35-1.73,3-3,5.15-3.38,2.42-.46,3.53.68,8.23,1.47a19.74,19.74,0,0,0,6.32.44c4-.56,5.08-2.68,8.68-4,3.1-1.12,5.83-.82,10-.15,11.59,1.88,21.35,4.6,27.94,6s4.52.38,18.38,2.5c23.3,3.56,28.57,6.43,39,4,4.26-1,3.74-1.58,11.32-3.68,6.44-1.78,8.85-1.93,21-4.85,8.44-2,10.14-2.63,12.2-4.12,2.35-1.69,3.44-3.27,5.74-3.38,2.7-.12,3.57,2,7.5,3.82a21.05,21.05,0,0,0,10,1.92c4.17-.2,4.26-1.59,10.88-3.09,2.82-.64,2.34-.28,10.14-1.47,7.57-1.15,7.42-1.4,9.27-1.33,4.58.19,5,1.69,10.73,2.36a41.87,41.87,0,0,0,8.38,0c4.2-.3,7.84-.55,11.47-1.91,5.85-2.2,9.3-6.38,11.32-8.83,5.74-6.94,5.37-12,11.18-14.85,1.49-.73,1.72-.49,4.56-1.76,4.24-1.9,5.52-3.23,9.26-4.56a14.94,14.94,0,0,1,4.41-1.18c4.55-.13,5.68,3.33,11.32,4.71,1.2.29,6.16,1.5,8.09-.88,1.44-1.79.49-4.7.29-5.3-1.07-3.29-3.55-4.33-8.23-7.94-5.7-4.39-4.15-4.47-9.26-8.23-4.37-3.21-6.71-4-9.41-7.5a26.46,26.46,0,0,1-3-5c-3.94-9-.51-19.69.3-22.06a8.83,8.83,0,0,0,3.82-3.23c2.65-4.21.73-10.41-1.47-14.12-2.43-4.09-5-4.88-4.7-7.2.39-2.76,4.47-4.43,5.88-5,4-1.65,5.38-.19,8.67-2.06a14.72,14.72,0,0,0,4.71-4.56,21.32,21.32,0,0,0,2.5-5c1.64-4.3,3.35-8.8,2.79-14.26-.34-3.39-1.29-4.37-.44-6.17,1-2.23,3.84-3.62,6.32-3.83,3.83-.32,4.86,2.32,9.12,1.77a6.2,6.2,0,0,0,4.12-1.92c.77-.95.43-1.42,1-1.91,1.65-1.34,4.53,2.08,9.26,1.62a16,16,0,0,0,4-1,16.78,16.78,0,0,0,2.79-1.47c.88-.52,2.48-1.25,8.24-1.32,7.47-.09,7.88,1.1,10.44,0a16.57,16.57,0,0,0,5.29-4.12c1.87-2.14,1.66-3,2.94-3.68,3.17-1.72,8.1,1.45,8.82,1.92,3.86,2.47,3.9,4.82,6.91,5.44a8.77,8.77,0,0,0,5.59-1c2.71-1.39,2.5-2.91,4.85-4.27,1.63-.93,3.79-.92,8.09-.88,4.69,0,5.52.57,8.68.15,3.31-.45,3-1.11,5-1.18,4.78-.15,5.64,3.87,12.2,5.74,1.5.42,6.43,1.83,9.71-.74.85-.66.77-1.45,1.47-1.62,1.91-.44,3.07,4.35,7.35,6,1.75.69,4.5,1.05,5.88-.29s-.23-3.45.88-6.32c1-2.53,4-4,10.15-7.06a37.53,37.53,0,0,1,4.56-2.06c3.86-1.33,6.65-1.2,12-1.18,15.57.05,14.93-1,18.38,0a21,21,0,0,0,7.65.89,11.6,11.6,0,0,0,4.41-1c2.62-1.29,2.33-2.66,4.71-4a8.68,8.68,0,0,1,7.35-.59c2,.84,1.7,1.93,3.38,2.35,2.2.55,4.42-.86,6.76-2.35a16.37,16.37,0,0,0,3.24-2.5c3.46-3.74.31-7.7,2.35-16.47,1-4.5,2.11-9.07,4.26-11.62a5.1,5.1,0,0,0,1.33-2.79c.17-1.59-.65-2.51-1-3.68-.55-1.66,0-3.1,2.65-8.38,2.76-5.56,4.16-8.36,5-9,2.67-1.94,4.11-.74,8.24-3.23,1.81-1.09,1.69-1.42,4.7-3.68,3.92-2.93,4.44-2.63,6.91-4.56,3.21-2.49,2.82-3.38,7.8-8.52,3-3.09,4.47-4.63,5.88-5.15,4.87-1.81,10.55,1.26,13.53,4,1,.86,5.61,5.33,5.58,10.59a7,7,0,0,0,.45,3.38c.18.41.71,1.43,4.55,4,3.1,2,4,2.17,4.41,2.2a6.51,6.51,0,0,0,3.68-.88c3.06-1.72,2.71-4.56,5.15-5.59,1.29-.54,2.5-.21,4.7.45,2.94.86,4.77,2.07,8.09,4.26,7.79,5.13,9.35,6.11,9.85,8.38a9.65,9.65,0,0,1,0,3.53c-.42,2.51-1.54,3.56-2.35,5.29-1.81,3.85-1.25,9.26.73,10.15,1.49.67,3.92-1.14,5.15-2.5,2.15-2.39,1.62-4.54,3.09-5,1.85-.59,3.23,2.66,6.32,2.35a8.55,8.55,0,0,0,3.09-1.17c1.93-1,1.94-1.65,3.09-2.06,1.81-.65,2.54.63,5.44.88s3.18-1,6.17-.74a10.18,10.18,0,0,1,5.3,1.92,10.65,10.65,0,0,1,3.38,4.55c.88,2,1.67,3.72,1.17,5.59-.84,3.21-4.64,3.7-4.55,6.18a3.39,3.39,0,0,0,1.32,2.35c2.54,2,7.28-.45,8.67-1.18a16.89,16.89,0,0,0,3.09-2c5.57-4.79,4.07-9.27,8.53-13.39,3.93-3.62,10-4.69,11-4.85,2-.33,4-.29,6.47-1.62,1.71-.91,2.34-1.75,3.53-1.61,1.72.2,1.79,2.12,4,3.53a7.85,7.85,0,0,0,7.06.58c.75-.32,2.22-1.13,4.11-4.55,2.83-5.13,1.45-6.81,3.24-9.86,2.85-4.88,7.71-2.81,14.26-9,2.82-2.66,4.52-4.25,5-6.92.81-4.47-2.48-8.35-.29-12.49a6.91,6.91,0,0,1,1-1.47c2.25.71,10,3,17.06,1.91a35.42,35.42,0,0,0,4.41-1,21,21,0,0,0,7.65-3.68,16.42,16.42,0,0,0,4.7-5.88c1.33-2.87.76-4,1.77-4.56,2.08-1.11,4.81,3.7,11.76,6a23.91,23.91,0,0,0,7.06,1.18c4,.13,7.38.24,10-1.77,2-1.57,1.29-2.66,5.29-11.61a69.09,69.09,0,0,1,3.38-6.77c.41-.7,1.19-2,4.12-6.17,1.77-2.53,3.53-5,6.18-8.53,4.32-5.73,4.09-5,6-7.79a40.11,40.11,0,0,0,5.44-10.3c.88-2.63,1.37-4.18,1.18-6.32-.26-2.89-1.5-3.81-1-5.73.6-2.42,2.86-2.23,4.41-4.56,2.53-3.78-1.45-7.23.3-12.65,1-3,2.37-2.69,6.32-7.79,2.18-2.82,1.85-3,6-10,6.54-10.9,8.91-13,11.51-13.17,1.19-.08,2,.26,3.19-.36,2.33-1.25,2.76-4.75,2.94-6.91,1-11.36-2-18.56.15-19.85s7.1,5.16,10,3.53c2.15-1.2.64-5.4,4-8.23a6.31,6.31,0,0,1,4-1.62c2.29,0,2.77,1.67,5.59,2.65a12.69,12.69,0,0,0,7.2,0c2.45-.56,2.64-1.21,6.18-2.65,5-2,5.18-1,7.94-2.5,4.1-2.25,3.6-4.54,7.5-5.88a20.27,20.27,0,0,1,5.58-.88c2.29-.1,2.33.21,4.41.14a15.44,15.44,0,0,0,7.65-1.91c2.11-1.3,2-2.32,3.53-3.53,4.36-3.55,9.35,1.61,19.26,0,3-.48,3.34-1.08,10.74-2.79,5.43-1.26,5-.89,6.47-1.47a7.75,7.75,0,0,1,4-.88,5.67,5.67,0,0,1,2.79,1c2,1.47,1.37,3.47,3.38,7.8a10.76,10.76,0,0,0,2.06,3.38,10.7,10.7,0,0,0,5.33,2.77,8.73,8.73,0,0,0,4.08.32c1.73-.36,2.22-1.17,4-2.06.4-.2,3.54-1.8,5.88-1.32,2.88.59,2.34,3.88,6.77,9.55,2,2.61,4.53,4.48,9.55,8.24a5.72,5.72,0,0,0,2.36,1.17c1.34.29,2.49,0,6.17-1.47,2.77-1.06,2.57-1,3.38-1.32a27.92,27.92,0,0,1,6.77-1.32,53.85,53.85,0,0,1,9.11-.15,35.55,35.55,0,0,1,6.62.73c5.63,1.44,13,6.31,14.85,13.24.77,2.87.33,5.12,2.21,6.47a6,6,0,0,0,5.58.29,8.59,8.59,0,0,0,3.83-3.67c4.64-7.12,7-10.67,9.56-11.47,3.17-1,4.6,1.48,9.26.14a17.07,17.07,0,0,0,4.26-2c4-2.36,4.28-3.69,7.94-5.89,2.71-1.62,4.2-2.51,6.18-2.35,2.27.18,2.47,1.52,6.47,3.82,1.77,1,4.07,1.81,8.67,3.39,2.4.82,3.6,1.14,5,.73.68-.2,1.63-.63,3.38-2.65,2.21-2.53,5.26-6.05,5.15-10.73-.06-2.46-.94-2.8-.44-3.82,1.55-3.19,11-1.89,17.35-1,8.35,1.14,11.05,2.53,14,.59.88-.59,2.12-2.61,4.56-6.62,4-6.53,4.49-8,6.17-8.38,2.32-.45,4.63,1.77,6.91,4,4.11,4,3,5.8,6,7.5,3.31,1.87,6.2.52,8.53,3.23a11,11,0,0,1,1.32,2.36,38.4,38.4,0,0,1,2.5,7.35c1.27,4.05,2.63,3.24,5,8.23s1.9,7.83,4.27,9c1.14.55,1.82.18,4.56-.15,5.37-.64,5.84.44,13.67.3,6.15-.11,6.43-.79,7.5,0,2.34,1.72,2.28,6.51,2.06,16-.11,4.59-.35,5,.14,6.47,1.41,4.12,4.7,4.64,7.08,9.4,1.14,2.25.75,2.85,1.75,6.33,2,7.06,4.41,6.82,5.73,11.91,1.5,5.77-.59,8.37,1.91,11,1.41,1.48,2.14.75,5.88,2.94a31.89,31.89,0,0,1,6.77,5.44c2.12,2.11,3.36,3.35,4.41,5.44,1.37,2.72.83,3.76,1.62,5.59,1.84,4.27,7.76,5.52,15.73,7.2,6.79,1.43,6.68-.19,12.94,1.18,5.86,1.28,9,3.12,10.44,1.61,1.29-1.3.77-4.51.29-7.49-.37-2.36-1-3.81-.14-5.3a4.47,4.47,0,0,1,2.35-1.91c4.41-1.51,8.52,5.55,12.94,4.12a20.42,20.42,0,0,0,3.23-2.36c3.35-2.63,3.22-3.13,4.41-3.82,4.13-2.38,7.84,2.34,12.06.15,2.25-1.17,1.75-2.8,5-4.71a14.08,14.08,0,0,1,5.29-1.76c4.07-.5,5,1.24,9.27.88,2.05-.17,4.38-.36,6-2.06s1.25-3.27,2.79-4.26,3.92-.31,4.85,0c3.54,1.16,3.75,3.65,7.5,4.7a5.34,5.34,0,0,0,3.38.15c1.77-.62,1.71-2,3.39-2.79,2.51-1.16,5.58.64,5.73.73,2.07,1.25,1.75,2.57,3.38,3.09s2.36-.8,5.74-1.18c2.64-.29,3.16.44,4.41-.14,2-.93,1.67-3.24,3.09-6.18,1.52-3.15,4.83-5.29,11.46-9.56a61.12,61.12,0,0,1,5.59-3.23c3.33-1.68,5.71-2.85,9-3.09,2-.14,3.89-.28,5.59.88s1.42,2.59,3.23,3.68c1.38.83,2,.31,5.59.88C2140.18,92.29,2141.78,92.55,2142.05,93.43Z"/></g></g></svg>