<svg xmlns="http://www.w3.org/2000/svg" viewBox="0 0 2279.48 1550.79"><g id="Layer_2" data-name="Layer 2"><g id="Iceland"><path d="M1549.22,184.42c2.13.57,3.43,2.34,5.94,6.87,3.18,5.76,4.77,8.64,5.93,12a119.67,119.67,0,0,1,3.77,15.23c.78,4.09.82,5.28,2,6.61,1.76,2,5,3.13,12.67,2.16a65.33,65.33,0,0,0,20-6.2c23.65-10.82,11.74-5,28.72-13.08,15-7.13,16.9-8.17,20-10.25,4.36-3,8.3-6.7,16.18-14.15,3-2.86,6-5.78,8.09-10.52a30.17,30.17,0,0,0,1.88-5.93c1.26-5.61,3.42-15.3-.4-24.81-2.43-6.06-4.53-5.16-8-13.07-1.65-3.81-1.41-4.58-3.78-13-3.13-11.06-4.06-11.49-5.66-18.87-2-9-1.68-13.37.4-17.12.94-1.69,2-1.75,2.56-3.37,1.15-3.32-1.26-6.07-4.31-12.41s-1.68-5.72-4.58-11.59c-3.61-7.28-5.69-8.17-5.67-12,0-4.75,3.28-8.22,3.91-8.9a13.12,13.12,0,0,1,7.55-4.31c2.8-.38,3.87.69,6.74-.27,1.86-.62,2.22-1.34,4-1.62.65-.1,3.53-.53,4.85.95,1.85,2.06-.8,6.24.41,7,.75.47,2.06-1,6.33-3.37,2.37-1.34,3.58-2,4.59-2,3.34-.05,6,3.48,7.14,5,2.46,3.26,1.73,4.57,3.64,5.93,2.88,2,7,.85,9,.27a20.74,20.74,0,0,0,8.5-5.12c5.17-4.95,4.39-8.43,9.3-11.86a19.62,19.62,0,0,1,6.74-2.83c3.67-1,10.74-3,15.64.4,3.74,2.58,3.77,6.57,5.93,6.47.77,0,1.53-.58,5.53-6.87,2.77-4.37,3.16-5.29,4.18-5.4,1.64-.17,2.17,2.07,6.74,7.42,4.25,5,5.89,5.48,6.34,8.22.2,1.28.13,2.91,1.34,3.91.83.69,1.47.42,2.84,1.08.56.27,2.62,1.27,3.1,3,.22.78,0,1.47-2.84,6.87-1,1.95-1,1.81-1.07,2-1.52,3.37,0,6.28.54,9.71,1,6.73-3,8.25-1.76,16,.19,1.18.77,4.64,2.43,5,.72.15,1.23-.36,2.16-.81,1.72-.83,3.12-.58,6.47-.27,7.81.73,8.81.15,11.46,1.49,1.35.68.88.73,3,2a30.63,30.63,0,0,0,11.73,4.45c3.51.49,4.17-.16,6.61.81a13.5,13.5,0,0,1,4.85,3.37,15.22,15.22,0,0,1,2.83,4.58c1.34,3.21.58,3.81,1.89,10.92a43.76,43.76,0,0,0,1.48,6.74,5.38,5.38,0,0,1-1.35,7.15c-3.68,3.85-.37,7.76-3.5,13.88-.88,1.73-.78.74-7.28,8.63-3.54,4.3-4,5.18-4.18,6.47-.43,4.49,4.21,9.71,8.09,9.57,3-.1,4.67-3.35,5.8-2.69.91.53.26,3-.41,6.87-1.09,6.43-1.64,9.64-.94,11.06,1.77,3.62,7.86,4.28,18.06,5.39,3.2.35,6.38.87,9.58,1.21,3.48.37,3.88.34,4.71.81,3.3,1.88,2.23,5.49,5.94,8.77a33,33,0,0,0,4.85,2.83c4.66,2.49,4.73,2,5.8,3,1.36,1.3,1.25,2.2,3.77,9.17,1.42,3.93,1.82,4.66,2.7,5.12,1.67.89,3-.29,6.87-1.08,5.76-1.15,7.67.46,9.58-1.21,1.06-.93,1.27-2.13,1.48-7.68.31-8.26.47-12.39,0-16.18-.67-5.33-1.37-5.64-1.35-9.44s0-8,2.7-10.65c2.14-2.12,5.23-2.25,11.32-2.43,7.4-.21,8.07,1.08,13.08.54,4.17-.44,7-1.73,12.81-4.31,5.28-2.36,8.79-3.94,12.67-7.28s6.16-6.83,8.49-10.52c1.69-2.66,2.25-4,7-14.15,5.37-11.49,6.28-13.33,8.77-15.64,1.77-1.66,4.06-3,8.62-5.66a90.92,90.92,0,0,1,11.6-5.8c6.84-2.77,10.26-4.16,12.67-3.1,2.17,1,1.8,2.31,8.22,8.9a10.67,10.67,0,0,0,4.32,3.1c2,.68,3.48.33,6.06.13,4.76-.36,5.36.38,8.36.14,5-.4,4.7-2.57,12.54-5.39,2.52-.91,6-1.6,13.08-3,4-.78,4.73-.81,5-.41.89,1.46-4.5,7.83-11.87,10.92-3.7,1.56-4.13.71-10.65,2.57a75,75,0,0,0-13.34,5.25,81,81,0,0,0-13.08,8.5c-3.79,2.9-3.72,3.26-7.42,6.06a63.22,63.22,0,0,1-11.59,7.55c-9.8,4.58-14.09,1.14-19.28,5.94a15.84,15.84,0,0,0-4.72,9.43c-.53,4.75,1.52,8.47,3.91,12.68,4.65,8.16,7.87,7.67,9,12.94,1.34,6-1.76,11.86-2.69,13.61-.39.72-1.15,2.07-4.59,6.07-4.38,5.1-9.17,10.61-16.85,16.31-3.91,2.91-5.87,4.36-7.82,5.13-8.39,3.3-14.17-.4-18.06,3.64-2,2.09-2.25,4.93-2.43,7.28-.08,1-.57,8.6,3.78,11.32,1.88,1.18,4.67.88,10.24.27s5.84-1.28,7.15-.67c4.31,2,6.09,12.38,2.42,19.55-1.84,3.59-4.78,5.86-3.91,7.41.17.3.61.79,4.86,1.08,5.19.35,6.13-.28,8.49.4,3.35,1,2.84,2.63,5.53,3.24,3.86.87,5.42-2.45,11-2.83,1.84-.13,4.6-.32,7,1.21,4.58,2.9,2.75,8.7,6.88,10.92a8.12,8.12,0,0,0,8.09-.81c3.42-2.5,1.47-6.16,4.72-11,3.78-5.7,10.61-7.06,11.86-7.28a16.19,16.19,0,0,1,10.52,1.21c4.08,2.15,5.83,5.8,8.35,11.06,2.73,5.67,2.24,7.37,5.4,14.42,1.9,4.25,3,5.75,4,7.82,4.27,8.71,2,18.19-1.89,33.3-4.31,16.87-9.15,23.56-11.72,23.19-.73-.1-1.76-.83-3.37-.54a5.66,5.66,0,0,0-3.24,2c-1.4,1.73-1,3.25-1.48,6.61-.34,2.26-1.16,7.88-3.78,8.63-1.28.36-1.82-.78-3.64-.81s-3.42,1.11-6.47,4.45c-4.8,5.26-7.21,7.89-7.41,10.38-.35,4.15,2.72,5.3,1.88,8.76-.53,2.22-2,2.76-7.41,7-8.57,6.79-9.38,9.1-9.57,10.65-.32,2.57.75,5.56,2.29,5.93,1.1.27,2.2-.88,5.53-5,3.85-4.76,6.92-8.86,11.32-12.67,2-1.74,4.07-3.22,5.39-2.56a2.43,2.43,0,0,1,1.08,1.62c.79,3.22-3.68,6.07-8.49,12.13-3.76,4.73-6.5,8.17-6.07,12.4.36,3.53,2.87,7.39,6.07,8,2,.36,3.72-.68,5.39-1.75a160,160,0,0,0,13.21-9.58,35.79,35.79,0,0,1,16.32-6.74c9.61-1.11,13,3.75,20,.81,3.81-1.61,2.88-3.12,8.22-6.6,3.68-2.4,3.75-1.44,17.93-6.34,0,0,2-.69,13.75-2.83,1.18-.22,2.73-.48,3.78.4,2.34,2,.09,8-.14,8.63a20.67,20.67,0,0,1-3.23,5.39c-1.43,2-6.08,8.35-6.34,15-.25,6.44,3.71,11.51,4.32,12.27,3.48,4.34,7.09,4.65,10.38,10.38,1.54,2.68,1.68,4.23,1.61,5.26-.11,1.89-1,3.71-4.58,7.28-5.17,5.14-7.36,5.37-11.19,9.7-1.68,1.9-5,5.63-3.91,7.55.9,1.63,4,.33,7.69,3,.59.42,1.17.93,1.88.81,1.34-.24,1.86-2.47,2.43-4.05a23,23,0,0,1,5.8-8.09,17.49,17.49,0,0,1,11.32-3.91c2.34,0,5.3.09,6.61,2,1.81,2.68-.78,7.19-1.76,8.89-1.82,3.19-3.64,4.4-6.2,6.88-1.41,1.38-4.91,6.51-11.86,16.72-3.75,5.51-5.4,8-4.85,8.49s2.26-.65,3.37-1.48c3.63-2.76,4-6.07,5.93-10,.67-1.34,3.86-4.76,10.24-11.59,5.44-5.82,6.1-6.29,6.88-8.23,2.19-5.43.16-9.75,2-10.65,1.29-.62,3,1.09,8,5.12,6.67,5.45,10,8.18,12.13,8.9,4.58,1.57,6.29,0,13.21,2.29,3.28,1.1,5.09,1.73,5.53,3.24,1,3.39-6.26,6.63-5.39,11.59,0,.28.41,2.34,1.75,2.84,1.7.62,4.12-1.6,12.54-11.19,5.38-6.14,6.09-7.17,8.22-7.82,5.66-1.73,11.54,2.17,12.54,2.83,1.77,1.17,3.45,2.29,4.31,4.45,1.62,4.07-.92,8.78-1.35,9.57-1.64,3-3.36,3.67-3.1,5.39s2.48,3.19,4.32,3.64c3.44.85,5.52-1.62,7.14-.54,1.18.79.8,2.55.81,7,0,6.53.09,10.31,2.43,12.68a6,6,0,0,0,5.12,1.88c.61-.12,1.92-.54,4.72-5,3-4.8,3-6.7,5.66-9a7.26,7.26,0,0,1,4.18-2.16,6.78,6.78,0,0,1,6.34,3.51c1.74,3.58-1.51,7.84,0,8.9.86.6,2.11-.65,5,0a7.76,7.76,0,0,1,1.61.54c1.91.89,2.65,2.31,4,4.18,2.65,3.54,3.39,2.95,4.45,5.25.47,1,1.45,3.16.67,5.13-.7,1.78-2.11,1.6-3.23,3.1-2.42,3.2,1.89,6.88,0,11.59-1,2.59-3.77,5.05-5.8,6.88-1.59,1.43-2.56,2-2.56,3.1,0,2.08,3.62,2.45,4.58,5.39.66,2-.34,4.05-1.21,5.8-2,4-4.26,3.79-5.26,7.14-.16.56-1.08,3.64.4,5.94.75,1.14,1.59,1.31,2.43,2.83a8.61,8.61,0,0,1,.95,3.5c.16,5.11-6.93,9.82-11.6,11.87a25.54,25.54,0,0,1-3.37,1.21,28.6,28.6,0,0,1-14.42.13c-4.83-1.24-6.6-3.09-8.09-2s-1.75,3.81-.68,5.8c1.74,3.22,6.19,2.15,15.1,5.53,6.05,2.29,6.7,3.8,6.88,4.31,1.09,3.16-1.91,8-5.93,10-4.51,2.18-7.32-.73-14.56.4-2.14.33-1.95.6-9.71,3.64-11.69,4.59-15.37,5.28-19.55,9.44-.44.43-4.13,4.11-3.37,5.26,1,1.48,8-3.64,20.49-5.8,5.91-1,6.3-.21,13.35-1.48a26.78,26.78,0,0,1,8.63-.54,34.28,34.28,0,0,1,4.85.94c3.32,1,3.64,1.71,4.85,1.48,2.84-.53,2.77-5,5.4-5.66,1.82-.48,2.85,1.41,6.74,3.91,1.92,1.24,5.46,2.62,12.53,5.39,5.48,2.15,6.94,2.55,7.42,4.05s-.61,2.8-3.24,7.14c-4.14,6.85-3.39,7.25-6.74,12.14-2.23,3.26-3.81,5.57-6.06,7.55s-6.29,4.53-20.23,5.79a211.92,211.92,0,0,1-24.4.54,62.93,62.93,0,0,0-16.85,1.22c-4.14.93-9.31,2.59-9.17,3.5s3.85.46,15.91.81c8.12.23,10.88.49,12.54.67,6.41.7,6.07,1.25,10.65,1.62a65.31,65.31,0,0,0,16.85-.94c5.11-1,6-1.78,10.11-1.89,2.68-.07,8.89-.24,10.38,2.83.28.57.43,1.31-1.07,5.8-2.13,6.34-3.25,9.54-5.8,11.19-1,.67-2.4,1-5.12,1.75-4.7,1.25-6.67.86-7.69,2.43a4,4,0,0,0,.27,4.45c1.26,1.5,3.4.84,8.36,1.08.77,0,8.34.43,8.49,1.75.11.91-3.48,1.09-6.87,4s-5,7.35-4.18,8.09c1.12,1,5.69-5.25,11.59-4.31.47.07,3.2.51,4.45,2.56,1.48,2.42-.09,5.48.4,5.66s2.81-3.62,4.72-9c1.39-3.91,1-4.21,2.16-7.69,1.56-4.78,4.38-10.82,9.71-14.83,1-.72,2.72-2,3.5-1.48.94.64-.34,3.35-1.21,8.63a37,37,0,0,0-.67,7.28c.13,6.17,2.26,8.24.67,10.52-1,1.47-2.54,1.47-3.51,3.64a4,4,0,0,0-.4,3.1c.63,1.52,2.43,1.24,4.85,3a8.24,8.24,0,0,1,3.1,3.51c.46,1.22.48,2.84-2.29,8.36-2.37,4.71-3.55,7.07-4.85,8.22-3.47,3.07-6,1.89-10.79,5.8a12.8,12.8,0,0,0-3.37,3.5,14,14,0,0,0-.94,11.73c.79,2,1.83,3.05,1.35,4.45-.41,1.18-1.58,1.67-3.37,2.56-4.72,2.34-4.36,2.78-6.74,3.78-1.55.64-3.78,1.33-14.7,1.07-7-.16-10.53-.26-11.73-1.34-3.08-2.79-1-6.62-5.12-12a34.1,34.1,0,0,0-4.58-4.32,45.06,45.06,0,0,0-10.66-7.41c-3.68-1.72-3.7-.86-7.14-2.43-4.17-1.9-6.77-4.35-10.38-7.82-6.06-5.81-7.65-9.29-11.87-9.7-.52-.06-2.8-.28-3.64.94-.17.26-.86,1.43,1.49,5.53,3.43,6,7.61,8.18,6.87,10.38-.2.6-.67.91-1.34,1.35-3.4,2.2-7.21-.51-12-.14-3.38.26-4.12,3.47-8,3.51a10.33,10.33,0,0,1-2.29-.27c-4.43-.84-7.84.18-11.46.67-9.39,1.28-14.09-1.84-15.23.27-.85,1.58,1.06,4.66,3.37,6.2,1.91,1.28,3.91,1.38,11.19.54,10-1.16,11-1.9,14.83-1.48,1.61.17,4.17.92,9.3,2.43,8.27,2.42,8.32,2.94,11.59,3.5,7.46,1.27,8.15-1.3,12.54.27,3.24,1.16,6.07,4.79,11.6,12,4.88,6.38,4.32,6.66,6.87,9,2.12,2,1.92,1.22,12,7.69,3.93,2.51,5.5,3.62,8.36,4.31a39.14,39.14,0,0,0,6.47.81c5.14.37,7.13,0,7.55.94s-1.06,1.37-3.1,4.86c-1.28,2.19-1.64,3.55-3.51,6.06a10.07,10.07,0,0,1-1.08,1.35c-2.49,2-6.18-.76-12.8-1.75-6.16-.93-7.06.88-10.92-.81s-3.52-3.85-6.88-4.85c-4-1.2-5.42,1.59-11.86,1.61a23.33,23.33,0,0,1-8.9-1.61c-4.78-1.92-6.62-4.67-10.52-4.32-.89.08-2.75.25-3.23,1.35-1,2.31,4.49,7.84,10.51,10.79s7.94,1,19,3.23a55.88,55.88,0,0,1,17.12,6.2c4.36,2.5,8.07,4.7,9,8.77.77,3.22-.59,6-2.29,9.43s-5.51,11.18-12,12c-4,.51-8.27-1.73-9.84-2.56-2.78-1.47-4-2.91-7-3.37-2.13-.33-5.22-.18-5.67,1.08-.5,1.42,2.52,3.74,4.32,5.12,3.69,2.84,5.06,2.44,7.14,4.72.43.47,3.73,4.17,2.56,7.14-.88,2.28-3.92,3-6.33,3.51-5.72,1.29-7.33-.9-13.48.13-3.95.67-3.93,1.68-7.28,1.76-3.54.08-4.8-1-8-.41-1,.2-4.92,1-5.53,3.1-.53,1.89,1.82,3.61,8,9.85s7.11,7.87,7.68,10c.21.76,1.48,5.65-1.08,8.49-1.15,1.29-2.17,1.15-4.85,2.16-5.9,2.23-5.49,4.62-10.78,6.61-2.85,1.07-2.92.36-8.63,2-1.17.34-2.41.73-5.66,1.89-9.74,3.46-9.52,3.82-11.46,4.18-5.3,1-9.81-1.24-13.35-3-3.36-1.64-5.56-3.41-14.29-12.54-11.72-12.24-17.6-18.45-18.74-22.38-.75-2.56-1.21-5.63-3.91-7.68-3.86-2.93-10.16-2.19-10.79-.41-.21.6,1.16,2.34,3.91,5.8,2,2.53,2.29,2.74,2.7,3.64,1.25,2.73.21,4.09.81,6.47.74,3,2.85,2.92,7.68,7.69a28.85,28.85,0,0,1,6.47,8.36c1.74,3.62.6,3.84,2.3,8.49,1,2.68,3.33,9.13,8.89,12.27,1.06.59,1.41.61,3.51,1.75,2.85,1.55,5.1,2.78,6.61,4.31,3.59,3.67,4.32,10.53,2.29,11.87-1.28.84-2.85-1-8.5-3.1a66.27,66.27,0,0,0-9.7-2.43,87.4,87.4,0,0,0-12.81-2c-2.85-.19-12.52-.84-13.08,1.35-.29,1.16,2.3,2,9.3,8,3.06,2.62,1.66,1.69,5.67,5.26,2.73,2.44,3.27,2.76,3.5,3.77.46,2-1.12,2.85-2.56,7.82-.66,2.3-.44,2.48-.94,3.1-1.49,1.84-4.07,1-9.84,1.22a56.41,56.41,0,0,0-10.92,1.48,21.92,21.92,0,0,0-5.94,1.89c-1.95,1-4.79,2.52-5.79,5.26-1.46,4,2.15,7.09.67,9-1.11,1.44-3.59.28-8.76,0-6.8-.37-12,1.13-16.58,2.42-.87.25-8.7,2.49-8.5,3.64.17,1,6.08,1.34,11.6.14,3-.65,4.19-1.39,9.16-2.43s5.85-.75,6.61-.4c3.3,1.53,2.87,5.79,5.26,6.2,2.16.37,3.19-3,6.87-3.37a8.15,8.15,0,0,1,4.18.94,16.79,16.79,0,0,1,7.42,7c.73,1.2,4.66,7.65,3,15-1,4.35-2.82,3.91-4,9-.61,2.56-.2,2.84-.68,10.92-.4,6.88-.78,8-1.07,8.76-1.3,3.31-2.39,2.86-4.45,7.28-1.48,3.19-1.62,4.94-3.37,5.8a5.63,5.63,0,0,1-4.18,0c-3.53-1.14-3.76-4.1-7.28-6.47-2-1.32-3.72-1.64-6.61-2.16a27.22,27.22,0,0,0-12,.68c-2.31.57-3.46.86-4.18,1.61-2.24,2.39.08,5.56-1.34,10.12-.86,2.75-2.64,4.39-6.21,7.68-2.68,2.48-4.84,3.73-8.89,6.07-5.7,3.29-7,3.13-7.82,2.83-2.23-.83-3.13-3.66-3.51-4.85-1.26-4,.81-5.1-.4-8.63-.5-1.46-2-3.18-5-6.61-2.23-2.56-2.59-2.61-2.83-2.56-1.82.37-2.85,7.76-.68,14a34,34,0,0,0,3.37,6.74c2.21,3.31,3.79,4.23,3.91,6.34s-1.13,3.56-3.23,5.79c-5.42,5.77-8.53,7.33-13.08,11.87-3,3-7.21,7.18-6.07,9.84.65,1.51,3,2.47,5.13,3.37,2.48,1,3.5.85,4.45,2a5.11,5.11,0,0,1,.67,4.72c-.48,1.37-1.39,1.9-3,3.24a25.91,25.91,0,0,0-5.25,5.52c-1.82,2.85-1.06,4-3.37,7.42a9.92,9.92,0,0,1-2.16,2.56c-3,2.25-7.32,1-10,.4-11.6-2.56-21,1-21.16-.26-.12-.75,3.15-1.92,5.12-2.43a35.34,35.34,0,0,1,11.05-.68c2.55.24,4.43.67,5.26-.4a3.42,3.42,0,0,0,.27-2.56,13.4,13.4,0,0,0-1.75-4.72c-1.57-3.17-1.11-2.72-2.43-5.26-1.48-2.87-2.23-4.31-2.83-4.85-2.48-2.24-6.13-2-10-1.75a16.71,16.71,0,0,0-6.47,1.34c-1.37.63-4.26,2-5.79,4.86-1,1.78-.48,2.45-1.62,4-.42.59-2.09,2.91-4.45,2.83s-4.21-2.5-4.72-4.58c-.56-2.27.7-3.32,0-4.31-1.23-1.76-5.44,1.06-11.19.53-5.93-.54-10-4.32-12-6.2s-3.72-3.51-4.18-6.2c-.24-1.4-.08-2.8,1.35-6.6,2.5-6.66,3.67-6.76,4.05-9,1-6.24-6.62-12.48-12.14-17a55.44,55.44,0,0,0-12-7.28,70,70,0,0,0-9.33-3.15,10.71,10.71,0,0,0-2.26-.49c-.08.23,7.5,1.32,11.19,6.33a18.68,18.68,0,0,0,2,2.56c1.87,1.93,3,2.07,4.86,3.51,2.1,1.6,3.22,3.31,5.12,6.2a19.07,19.07,0,0,1,2.56,4.72,11,11,0,0,1,.54,6.87c-.68,2.2-1.74,2.21-2.29,4.18-.71,2.55.73,3.72,1.21,6.74.66,4.16-1.65,4.56-3,12.27-.74,4.39-.25,5.77-1.75,7.42-.94,1-1.56,1-6.06,2.69-5.72,2.21-5.27,2.54-7.69,3.11-4.17,1-5.53,0-7,1.48a7.18,7.18,0,0,0-1.62,5.39c.17,1.76.92,2.36.54,3-.78,1.26-4.24-.85-8.22-.54-5.35.41-5.5,4.7-12.14,6.87-4,1.32-4.21-.17-11,1.35-3.72.83-6.35,1.44-9,3.37s-2.82,3.36-6.07,7.42a50.33,50.33,0,0,1-9.57,9.16c-3.51,2.46-4.27,1.94-12.27,5.4a166.48,166.48,0,0,0-16.31,8.22s-6.58,3.69-12.14,7.42c-10.59,7.1-16.45,14.43-24.26,22.78-18.09,19.33-21,16.74-39.1,36.67-6.14,6.76-3.74,4.79-15.91,18.87-23.83,27.59-22.87,23.39-28.71,32.36-.27.4-6.43,7.73-18.74,22.38-.75.88-2.62,3.09-3.37,2.7s-.12-3,.27-4.18a14.28,14.28,0,0,1,2.56-4.72,45.23,45.23,0,0,1,5.39-5.53c2.87-2.81,2.52-3.24,6.07-7.28,4-4.51,7.23-7.19,7.14-7.28a114.86,114.86,0,0,1-15.64,12.13c-4.85,3-7.28,4.57-11.19,5.8s-6.75,1.38-13.61,3.64a47,47,0,0,0-4.72,1.75c-4.16,1.88-7.45,3.36-9.3,6.61a17.93,17.93,0,0,0-1.89,7.55c-.14,2.45.22,4-.41,4.31-1.25.52-4.19-5.36-5.52-4.85-.59.23-.52,1.58-.41,5.66.19,7,.11,7.83-.27,8-1.11.36-4.07-5.94-4.45-6.75a65.4,65.4,0,0,1-3.5-10c-2.14-7.38-1.55-6.92-2.7-9.84a38.92,38.92,0,0,0-6.2-10.25,14.45,14.45,0,0,0-5.8-4.58c-1.19-.48-2.89-1.13-4.31-.41-1.61.82-2,3-2.29,4.59-1.37,8.28-.34,14.1-1.08,14.29s-3.16-3.66-3.51-8.63c-.32-4.63,1.52-6.43,2-14,.11-1.64.38-5.81-.61-6.07-.69-.18-1.51,1.64-4.65,5.66-1.58,2-2.86,3.64-3.24,3.44s.65-2.13,1.42-5.46a24.48,24.48,0,0,0-.2-11.33c-.49-1.8-.81-2-1-2-1.57-.15-2.81,9.71-4.86,9.71s-2.67-8.77-4-8.7c-1.08.06-2.8,5.56-.61,8.7,1.22,1.74,4.37,3.79,5.06,4.25a5.87,5.87,0,0,1,1.61,1.21c1.66,2,.83,5.21.61,6.07-1.08,4.13-4.67,7.91-6.27,7.28-.29-.12-.53-.39-1.41-5.46-.49-2.78-1-5.87-1-5.87-.71-4.16-.81-4.41-1-4.45-1-.16-4.1,5.2-2.42,8.7.91,1.9,2.91,2.56,2.83,4.45a4,4,0,0,1-1,2.22c-.9,1.19-2.76,2.71-3.84,2.23-1.6-.72-.27-5.18-1.62-5.67-.87-.31-2.32,1.21-4.25,3.24-1.06,1.11-1,1.27-1.82,2-1.15,1.11-3.42,3.31-4.85,2.83-1.79-.59-2.56-5.46-1.42-9.5,1-3.49,3.1-5.32,2.23-6.68a2.75,2.75,0,0,0-2.83-.8c-1.08.27-1.4,1.1-3.64,4.65-1.39,2.18-1.28,1.87-2.23,3.43,0,0-1.46,2.4-2.63,4.66-1.86,3.6-2.5,6.71-3.64,10.31-3.14,9.91-6,10.46-5.66,15.77.09,1.55.31,5.57,3.23,7.69,2.53,1.83,6.37,1.74,8.5,1,.36-.12,1.22-.46,2.69-.93,1-.34,2.33-.73,3-.89,2.34-.59,6.72-.84,7.48.81.55,1.18-.76,3.29-2.42,4.45-2.83,2-6.29.89-10.11.2,0,0-6.56-1.18-17.8-.2-6.73.58-11.2,2.56-16,4.44-22.53,8.88-26.55,5.54-45.09,13.76-9.91,4.38-16.92,7.49-24.67,14.35-8.55,7.56-14.77,16.81-25.48,32.76-4.53,6.74-5.75,9.19-9.71,13.55-3.81,4.2-6.12,5.72-8.09,9.91-2.16,4.59-1.56,7.37-2.43,11.53-1.23,6-4.61,9.78-11.32,17.19a144.41,144.41,0,0,1-36.81,27.3c-4.33,2.27-2.81.77-9.7,3.84-1.49.66-3.12,1.43-5.06,1a7,7,0,0,1-4-2.83c-3.29-4.17-3-9-4-14.56-.66-3.41-2.53-7.4-6.27-15.37-3-6.49-2.71-4.68-7.48-14.15-4-7.86-4.59-9.92-7.48-11.94-3.28-2.29-4.61-1.13-9.1-3.64-6.28-3.5-8.63-8.53-9.3-8.08s1.18,5.1,4.45,9.3c2.15,2.77,2.88,2.67,5.66,5.66a49.41,49.41,0,0,1,7.89,11.73,73.61,73.61,0,0,1,4,9.91c7,19.18,11.13,23.06,9.5,30.13a24.17,24.17,0,0,1-3.84,8.29,20.2,20.2,0,0,1-4.65,4.45,21.29,21.29,0,0,1-11.53,3.23c-4.81.17-11.36,1.73-24.47,4.86-19.42,4.64-19.59,12-36.19,13.75-5.25.56-12.38.59-16.18.61-7.78,0-11.67,0-16.38-.61-6.93-1-13.3-1.85-20.43-5.46-3.17-1.61-4.4-2.7-7.07-2.83-.84,0-2.91,0-12.14,3.64-3.86,1.54-3.83,1.67-4.45,1.62-4.3-.38-5.13-6.72-11.52-9.1a5.86,5.86,0,0,0-3.85-.41c-2.05.63-2.48,2.49-4.44,4.25,0,0-1.81,1.61-6.07,2.63-7.36,1.76-23.51-12.25-41.46-20.43-11.19-5.1-15.41-4.43-32-12.33-5.44-2.61-11.73-5.87-11.73-5.87-14.19-7.36-16.63-9.61-23-12.13-5.15-2-10.51-2.76-21.23-4.25-17.31-2.39-32.9-4.55-51.77-2-5.37.72-7.18,1.31-11.53,1.21-2.44,0-13.88-.49-27.71-9.1-7.9-4.92-12.57-10-17.39-15.16-9.17-9.81-23.56-25.2-35.59-36.4-3.33-3.11-4.11-3.7-37-30.34l-23.46-19a16,16,0,0,0,8.09-4.85c4.71-5.07,7.61-5.3,9.7-8.49,3.86-5.88,1.07-15.81-1.82-16.38-.75-.15-1.3.38-4.24,3-7.63,6.87-7.19,6.25-7.69,6.88-4.09,5.1-2.32,7.78-6.47,11.93-1.61,1.61-4,4-6.27,3.43-3.22-.71-3.13-6.24-8.09-8.49-1.44-.66-1.43-.18-3.44-.81-5.83-1.83-6.22-6-12.33-9.5a30.15,30.15,0,0,0-7.48-2.83c-4.51-1.3-7-1.31-9.51-1.82-4.06-.82-6-2.42-13.55-7.69-13.7-9.51-17.15-11-22.24-16.78-4.95-5.64-5.2-8.23-5.06-9.71.22-2.27,1.56-4.32.61-7.28-.48-1.48-1.1-1.86-1.21-3.23a6.72,6.72,0,0,1,2.22-5.26c3.15-2.76,7.67.17,15.57,0,5.88-.13,9.94-1.58,9.91-1.82s-7.63,1.81-16-1c-2.47-.84-2.54-1.28-4.45-1.62-6-1.08-11.31,2.07-12.95,3-2.88,1.7-2.29,2.16-6.06,4.45s-5,2.27-5.66,3.84c-.83,2.08,1.08,3.07.8,7.49a18.88,18.88,0,0,0-.2,3.64c.25,2.62,1.17,2.91,1,4-.37,2.65-5.65,2.39-11.93,7.08a14.24,14.24,0,0,0-4,4c-1.56,2.51-1.17,4-2.43,5.66-1.71,2.3-4.74,2.72-7.28,3-14.19,1.77-17.84.94-25.08,2.83a92.73,92.73,0,0,0-9.3,3c-5.28,2-5.86,2.82-8.49,3.44-1.59.38-7.94,1.65-13.15-1.42-6.06-3.56-4.51-9.46-12.13-14.76a15.33,15.33,0,0,0-6.07-2.83c-5.52-1.09-10.29,1.59-13.14,3.24-5,2.89-6.35,5.46-9.1,7.68-5.65,4.57-11.28,2.93-25.28,3-20.42.16-28.94,3.79-44.08,1.22-4.35-.74-7.13-1.24-10.52-3-7.23-3.83-9.26-9.37-13.14-8.69-1.72.3-1.78,1.45-6.27,5.66-3.37,3.15-5.05,4.72-6.88,5.66-8.06,4.16-16-3.74-22,.81-1.05.79-1.41,1.48-4.45,4-2.7,2.27-4.05,3.41-5.46,4-.27.12-6.39,2.77-9.91,0-2-1.6-1.52-3.68-3.23-4.25-1.54-.5-2.95.85-6.48,3.24-4.16,2.83-6.24,4.24-8.49,4.85-4.09,1.12-9.9.23-10.92-2.42-1.11-2.89,4.4-5.4,7.08-14.36.76-2.54,1.28-4.37.61-6.47-1.18-3.69-4.66-4-5.87-7.48-.9-2.58.12-5,1.42-8.09,3.24-7.74,7.71-7.91,8.29-13,.52-4.48-2.83-6-1.62-9.7,1.52-4.59,8-5.88,7.68-6.88-.42-1.32-10.9,3.15-15.57-1.21-.63-.59-.6-.83-2.83-7.89-2.39-7.57-3.22-9.85-2-11.12s2.56-.15,4.45-1.21c2.6-1.47,3.1-5.19,3.44-8.3,1-9.15.61-13.75,1.21-20.22.52-5.57,1.15-12.32,3.84-12.94,1.41-.32,2.49,1.23,7.89,6.07,4,3.61,3.38,2.71,6.87,5.86,8.21,7.41,12.31,11.12,14,16.18.57,1.76.79,4.14,1.21,8.9.78,8.64,0,12.83,2,13.75,1.68.76,2.81-1.9,6.68-2.23,3.35-.28,3.9,1.6,9.5,2.83,2.53.56,5.65,1.21,9.1,0a8.57,8.57,0,0,0,4.45-3c1.07-1.51.9-2.6,1.42-4.25,1.32-4.18,5.4-6.47,6.47-7.07,4.93-2.77,7.53-.12,10.72-2.83,2.77-2.37,1.58-5.06,4.44-6.88,2.54-1.61,5.69-.9,7.89-.4,6.71,1.51,7.09,5.16,10.72,5.25,5.54.15,5.86-8.32,16-12.94,3-1.36,8.38-3.82,12.34-1.62,1.13.63,2.22,1.69,3.64,1.42,1.81-.34,2.33-2.48,3.64-4.45,3.82-5.74,10.8-4.6,11.32-7.89.3-1.84-1.86-2.45-5-7.28-1.41-2.12-4.85-7.34-3.44-9.1,0,0,.84-1,11.73,1.82a37.79,37.79,0,0,0,0-6.87c-.25-2.72-.6-6.54-2.22-9.51-3.59-6.55-12.16-6.67-11.94-8.29s9.45.54,24.07-1c3.44-.36,8.16-1,10.52,1.62.81.92.88,1.72,3.23,5.66,2,3.41,2.52,3.71,2.83,3.64,1.08-.25-.43-4.78,2.23-8.29a9.81,9.81,0,0,1,3.64-2.83c2.11-1,2.78-.35,4.85-1.21,1.72-.73,4.52-2.52,4.45-4.66,0-1.23-1-2.13-2.23-3.23-2.44-2.25-4-1.88-4.44-3-1-2.48,5.55-5.31,5.05-9.1-.31-2.37-3-2.12-6.47-7.08-1.44-2-1.38-2.63-3-4.65-2.14-2.62-3.27-4-5.06-4.45-3.69-.9-6.5,3.15-8.69,1.82-.76-.46-1-1.39-1.42-3.24-.48-2-1.28-5.47-.2-8.69.87-2.62,2.18-2.69,6.87-7.28a48.12,48.12,0,0,0,8.5-10.32c1.4-2.41.84-2.11,3.23-7.28,3.4-7.33,5.17-11,8.5-12.94,2.25-1.29,4.3-1.43,7.07-1.62,8.29-.57,13,2.94,14.16,1.42,1.72-2.22-7.52-10.6-5.46-13.55,1.13-1.63,4.21.56,8.9-1.62,2.88-1.34,3.72-3.09,6.27-3a6.77,6.77,0,0,1,4,1.62c1.84,1.54,1.49,2.93,2.63,4.44,2,2.62,5.32,1.51,15.77,2.84,4.65.58,4.81.91,6.27.6,4.3-.9,5-4.15,10.11-8.09,5.76-4.46,10.75-4.88,10.52-6.27-.2-1.2-3.85-.32-9.51-2.62-4.17-1.7-4.65-3.17-8.89-4.25a15.41,15.41,0,0,0-6.68-.41,16,16,0,0,0-5.66,2.63c-5,2.78-8.62-4.51-18.4-5.86a20.84,20.84,0,0,0-12.14,1.62c-1.95,1-2.24,1.58-6.06,4.65-6.63,5.32-8.18,5.41-11.33,8.29-4.36,4-3.37,5.64-7.88,11.73-6.65,9-14.9,13.65-25.08,19.41a28.82,28.82,0,0,1-5.86,2.63,26.33,26.33,0,0,1-12.74,1c-2.14-.37-9.59-1.69-14-7.89-1.32-1.87-2.79-4-2.42-6.47.44-3.06,3.19-3.7,8.69-9.3,4.5-4.57,3.68-5.18,5.87-6.27,3.93-2,6,.28,13.14-1.41a16.08,16.08,0,0,0,6.47-2.83c1.82-1.42,4.6-4.3,3.84-6.07-.4-.94-1.59-1.07-4.65-1.62-9.31-1.67-12.18-3-14-1.21-.8.81-.78,1.66-2,2.42a5.66,5.66,0,0,1-3.85.61c-3.21-.59-5.83-4.17-6.26-7.48s1.6-5.29,4.24-10.11c3.54-6.45,4.78-12.06,5.87-17,2.45-11.13-1.12-11.62,1.41-17.19,4.84-10.63,20.59-14.79,25.08-16,2.76-.74,5.5-1.61,8.29-2.23,4.35-1,7.66-1.39,7.68-2.22s-2.46-.5-3.64-2.23c-1.39-2,0-5.44,1.82-9.7.86-2,1.52-3.16,2.43-5.87.86-2.55,1.45-4.37.81-4.85-1-.78-3.47,3.17-7.68,3.23-2.92.05-3.81-1.81-5.67-1-1.36.59-2.12,2.22-3.64,5.46-1.08,2.31-.76,2.25-1.21,2.83-2.25,2.9-6.79,0-12.13,2-4.53,1.72-3.16,4.53-9.1,7.48-3.62,1.79-5.49,1.43-7.69,3.84-1.88,2.06-1.88,3.82-3.64,4.45a5.62,5.62,0,0,1-5.66-1.82c-4.54-5.86,9.52-23.94,8.69-24.47-.31-.2-2.33,2.4-2.83,3a30.06,30.06,0,0,0-3,4.86c-.73,1.41-1.16,2.45-1.82,4-1.15,2.78-1.14,3.17-2.22,5.87-1.59,3.92-1.78,3.51-2,4.85a21.73,21.73,0,0,0,.21,6.47c.28,2.42.56,3.2,0,4-.87,1.3-2.3.66-3.44,1.82-1.4,1.43-.39,3.58-.61,7.08a19.21,19.21,0,0,1-1.82,6.68c-2.42,4.73-8.19,7.35-13.14,7.68-6.55.44-13.4-3-13.35-5.66,0-1.85,3.42-2.31,3.64-4.86.13-1.51-1-2.08-3.44-5.66s-3.58-5.26-3.44-7.28,1.46-2.22,2.84-5.66c.94-2.36,1.78-4.46,1.21-6.47-1.21-4.26-7.38-3.16-9.3-7.89-1.08-2.65.09-4.91-2-7.28a3.9,3.9,0,0,0-2.42-1.62c-2.7-.25-3.87,4.33-7.48,4.86a5.39,5.39,0,0,1-3.64-.81c-5.13-3.5,1.32-17.15-3.24-25.68a27,27,0,0,0-4.65-6.47c-1.85-1.74-2.59-1.76-3-2.84-1.16-2.8,2.56-5.74,5.46-10.92,3.63-6.5,5-14.81,2.83-16.17-1.41-.89-4.22,1.16-7.08,3.23a54.23,54.23,0,0,0-8.29,7.89c-.15-.12,5.61-4.47,6.27-10.92.49-4.87-2.21-8.16-.21-10.31.65-.7,2.05-1.08,4.86-1.82,3.76-1,4.3-.57,5.26-1.42,1.22-1.09.76-2.21,1.82-6.88a42,42,0,0,1,1.61-5.66c1.62-4.37,3-5.36,2.43-6.87-.29-.76-.93-1.31-4.45-2.63a46.13,46.13,0,0,0-8.49-2.63c-5.92-1.14-8.71-.53-9.3-2-.41-1,.62-1.93,1.41-3.64,1-2.12,1.59-5.46-.2-10.72a19.84,19.84,0,0,1-24.27-2.23,18.88,18.88,0,0,1-5.46,8.29c-3.26,2.79-4.83,1.94-12.13,6.07-2.85,1.62-4.85,3-5.46,2.43s1.6-2.87,1.62-6.47a10.87,10.87,0,0,0-3.24-7.28,12.41,12.41,0,0,0-8.09-3.44c-3.32-.25-4.56.86-11.93,2.83,0,0-3.34.89-6.88,1.62a113.71,113.71,0,0,1-17.59,2c-6.41.36-9.61.54-10.92.2-7.72-2-10-8.12-14.56-7.08-2.57.6-2.27,2.67-6.07,4.86-4.54,2.62-9.35,2.19-11.32,2-5.86-.52-7.48-3-15.17-6.67-5.17-2.48-10.59-3.88-21.43-6.68-7.24-1.87-11-2.47-15.37-2.42-3.77,0-10.36.11-12.14,3.64-1.2,2.4.91,4.22-.6,7.28-.93,1.88-2.54,2.82-5.66,4.65-3,1.73-4.45,2.6-6.07,2.42-3.24-.34-3.34-3.86-7.08-6.26-1.81-1.17-6.22-1.07-15-.81-7.11.2-9.26.5-11.13,2.22a11.31,11.31,0,0,0-2.83,5.06c-1.18,3.47-.63,5.37-.81,9.91-.23,5.84-.36,9.17-2.42,11.52-.95,1.09-2.54,2.22-9.91,3-9.61,1.06-11.4-.37-19.62.4-8.07.76-8.55,2.35-13.55,1.62a26.3,26.3,0,0,1-12.53-5.66,29.93,29.93,0,0,1-7.28-9.1c-2.48-4.27-2.66-6.15-6.27-17-4.29-12.87-5.49-14.57-6.47-15.77-4-4.87-6.59-4.23-9.31-8.9-3-5.16-3.66-12.55-.81-14.56s7.47,2.7,12.14.2c1.41-.76,1.82-1.64,3.64-4.25a100.14,100.14,0,0,1,9.91-11.93c4.66-4.61,7.71-7.63,11.73-7.48,1.65.06,1.43.58,11.32,5.86a73.18,73.18,0,0,1,6.47,3.64c3.64,2.39,3.45,2.89,6.27,4.66a31.4,31.4,0,0,0,9.91,4,22.21,22.21,0,0,0,7.28.61c6.32-.71,6.49-5.75,12.94-7.89,6.19-2.05,9.37,1.21,12.14-1.62,1.78-1.83,2.48-5.26,3.43-9.91.48-2.35.52-3.53,1.62-4.45,1.66-1.38,3.66-.45,5.66-2.22,1.16-1,.65-1.47,1.62-2.22.67-.53,2-1.14,10.11.6,1.68.36,1.79.42,2.83.61a41,41,0,0,0,6.27.61c-.16-.39-2.39-6,.81-10.12.15-.19,2.8-3.5,5.87-3,1.69.26,2.15,1.46,4.85,4,4.53,4.34,5.74,3.36,6.87,5.66,1.62,3.29-.91,5.21.61,10.31.54,1.81,1.28,4.27,3.24,5.06s3.11-.65,8.69-2.63c4.92-1.75,5.34-1.17,6.27-2.23,2.64-3,.66-9-1-14.15-1.21-3.71-1.69-3.65-2.63-7.08-1.32-4.84-2.25-8.24-.61-11.12,1.21-2.12,3.51-3,8.09-4.86,3.75-1.49,5.84-2.31,8.5-1.82s2.94,1.85,6.27,2.43,5.05-.37,5.66.61c.51.82-.53,1.83-2.23,5.46s-1.25,3.92-2.63,6.27c-1,1.75-1.25,1.57-3.84,5.05a36.64,36.64,0,0,0-3.64,5.46c-1.37,2.72-2.28,4.54-1.82,6.68s2.09,2.69,4.45,5c5.24,5.24,5.46,11,7.08,10.72s2-5.25,2-6.07c.26-3.26-.49-4.54-1-10.11-.46-4.9-.06-5.73.41-6.27,1.76-2,5.78-1.26,7.07-1,4.35.85,5,3.05,9.31,3.84,3.49.64,6.45-.18,6.47-.6,0-.82-10.93-.46-12.14-4.45-.16-.54.1-1.78.61-4.25.56-2.68,1.11-4.68,1.21-5.06,1.52-5.35,2.28-8,3.44-9.1a9.16,9.16,0,0,1,6.47-2c4.42.43,4.83,4.15,10.11,5.66a15.15,15.15,0,0,0,7.89,0c1.86-.46,2.31-.93,7.48-3.84,5-2.79,7.45-4.18,8.7-4.65,3.66-1.38,5.76-1.42,7.88-3.64.77-.8,2.23-2.33,1.82-3.44-1.17-3.22-17,.09-17.18-1-.09-.47,2.92-.84,6.47-2.83,4.36-2.45,4.48-4.53,10.71-10.31,4.56-4.23,7-5.41,9.1-6.07,1.87-.57,4.76-1.45,6.68,0,2.16,1.65,1.87,5.36,1.62,8.49a20.55,20.55,0,0,1-1.62,6.48,20.23,20.23,0,0,1-3.45,5.4c-2.4,2.69-4.58,3.65-4.44,3.9s5.23-.82,9.51-4.45c1.14-1,1.94-1.88,2.62-1.62,1.15.43.15,3.46,1,6.67,1,3.68,3.31,3.55,7.88,8.9,4.1,4.79,3.87,6.8,7.69,9.51,2.5,1.77,5.83,3.19,6.47,2.42s-1.82-4.13-6.68-10.92c-2.4-3.36-2.84-3.83-3-5-.54-3.46,1.88-6.51,5.06-10.52a35.9,35.9,0,0,1,6.67-6.47c2.44-1.82,3.66-2.73,4.85-3,6.07-1.55,10.52,5.81,15.37,3.84,1.7-.68,1.36-1.66,4.05-3,2.27-1.16,3.48-1,6.87-1.62a37,37,0,0,0,10.11-3.24c3.49-1.78,3.94-2.94,5.87-2.83s3.59,1.6,5.86,3.84c3.52,3.49,2.89,4.56,4.65,5.46,4.26,2.2,9.28-3.38,12.34-1.41,2.13,1.37-.37,6,1.62,7.28,1.21.8,2.92-.26,6.47-1.62,0,0,1.72-.66,9.1-2.63,6.15-1.64,12.33,0,24.67,3.44,6.86,1.88,6.92,2.39,10.92,3,5.46.88,8.32.41,15.17.61,7.45.21,9.85,2.74,14.36,1.21a19.16,19.16,0,0,0,5.66-3.23c1.7-1.43,3.12-2.62,3.84-4.65a8.9,8.9,0,0,0-2-9.1c-2.63-2.39-5.93-1.27-6.68-3.24-.55-1.47.82-3.3,1.82-4.65,1.93-2.59,3.43-2.64,5.06-4.45,2-2.22,1.45-4,2.63-8.49.6-2.29,2.16-5.33,5.26-11.33,4.28-8.28,4.55-8,5.66-10.51,3.19-7.3,5.47-20.23-1-26.7-2.63-2.62-7.13-4.6-10.92-3.43-2.58.79-4,2.77-6.47,6.27-3,4.16-2.73,5.63-6.27,11.52a42.05,42.05,0,0,1-4.45,6.47c-1.6,1.85-3,3.09-8.09,7.08s-7.57,5.93-8.7,6.67a47.46,47.46,0,0,1-12.94,6.48A42.26,42.26,0,0,1,506.89,734c-6.49-.49-8.39-2.17-16.58-4.65-17.46-5.29-20-1-27.3-6.27-3.95-2.83-4.2-4.79-13.34-12.33-4.64-3.83-7.35-5.61-9.91-4.86s-2.9,3.42-7.49,5.67A16.2,16.2,0,0,1,428,713a16.64,16.64,0,0,1-7.48-.6c-11.5-3.12-14-3.54-14-4.25.12-1.05,5.7,0,11.73-3.64,2.25-1.38,4.9-3.63,4.45-5.06-.21-.66-.95-.69-2.83-1.82a13.86,13.86,0,0,1-3.64-2.83c-.95-1.33-1.09-3.78,1.41-8.69,3-5.89,6.93-9.65,10.72-13.15,9.24-8.52,10.36-8.71,15.82-14.11,6.68-6.63,5.52-6.86,10.27-11a73.57,73.57,0,0,1,18-11.13c8.31-3.69,8.35-2,13.55-4.65,13.24-6.66,10.95-16.4,25.07-24.87,10.83-6.49,14.16-7.89,14.16-7.89,3-1.26,5.22-1.93,7.48-4.24,2.69-2.75,2.38-4.68,5.26-7.49a15.35,15.35,0,0,1,7.08-4c4.83-1.1,5.69,1.82,12.94,1.82a30.91,30.91,0,0,0,10.11-1.82,23.86,23.86,0,0,0,4-1.82c2.16-1.23,2.78-2.06,6.88-5.87,3.67-3.41,4.7-4.16,6.07-6.26,1.23-1.9,2.28-3.58,1.61-5.06a4,4,0,0,0-4.45-1.82c-1.6.47-1.47,1.89-3.43,3.64a11.59,11.59,0,0,1-6.68,2.63,13.45,13.45,0,0,1-5.86-.81c-9.28-3.21-32,.85-32.16-.2-.12-.81,13.12-3.56,12.95-4.65-.13-.81-7.2,1-10.11-2.63-1.38-1.72-.39-2.86-1.42-5.67-1.81-4.94-5.92-4.16-10.31-9.7-3.63-4.58-3.84-8.92-6.07-8.9a3.38,3.38,0,0,0-2.63,2.22c-.69,1.71.38,3.07,1.42,6.27.88,2.74,2,7.49.81,8.09-.79.42-2.45-1.23-3.44-2.22a19,19,0,0,1-3.84-5.46c-4-9-3-13.54-7.08-17-.14-.11-3.43-2.81-5.06-1.82s-1,6.23.2,15c.49,3.44.85,5.13-.2,6.87-1.32,2.19-3.28,1.83-5.66,4.25-1.5,1.52-2.15,3.38-3.44,7.08-1.77,5.09-1.51,7.22-3.84,9.5a9.7,9.7,0,0,1-2.63,1.82c-3.83,1.82-6.4-.1-11.53-.2-6.69-.13-8.71,3-11.72,1.21-1.78-1.07-1.3-2.3-3.44-6.27A43.42,43.42,0,0,0,447.24,554c-3.75-3.27-5.32-3.62-5.66-5.66-.52-3,2.23-6.22,4.65-7.89,3.5-2.41,6.4-1.66,13.34-2.62a61.92,61.92,0,0,0,11.33-2.63s17.84-6.48,22.65-33.37c.17-.94.67-3.78,0-4s-2.13,2-2.63,2.83a26,26,0,0,0-2.63,5.66,42.07,42.07,0,0,1-3.64,7.28,27.23,27.23,0,0,1-7.89,7.68,36.42,36.42,0,0,1-8.09,4c-.87.34-13.08,5.1-14.35,2.83-.59-1,1.36-3.28,2.22-4.25,2.83-3.21,5-2.68,5.66-4.65.91-2.65-2.62-4.75-1.61-8.49.36-1.36,1.06-2,.8-2.23-.55-.57-4.69,1.51-6.87,5.26-.74,1.28-.3,1.09-1.62,4.05-1.63,3.63-2.88,5.19-4,6.26-1,.93-2,1.86-3,1.62s-1.36-1.68-2.22-3.44c-2-4-5.43-6.38-5.87-6.06s1.12,1.76,1.42,4.65c.14,1.34-.07,1.95-.4,4.45-.67,5-.13,4.81-.61,6.06a9.16,9.16,0,0,1-8.9,5.46,8.5,8.5,0,0,1-5.46-2.62c-3-3.28-2.32-8.29-2-11.13,1.32-12.77-.63-22.19-3-33.77a27.75,27.75,0,0,0-6.48-12.13c-1.72-1.83-2.41-2-2.83-1.82-1.95.7-.72,9,0,13.81.35,2.38.4,2.08,1.83,9.85,1.29,7,1.49,8.49,1.62,9.71.66,6,1,9-.4,11.32-2.26,3.86-7.76,6-9.91,4.45-1.26-.93-1.1-2.93-1-5.46.23-7.2-.84.62-.81-16.18,0-9.4.35-13.76-2.23-18.4-.32-.58-1.82-3.29-2.63-3s-.52,2.84-.4,4.44c.48,6.2.63,12.41,1,18.61a66,66,0,0,1,0,11.73c-.1.92-.4,2.63-1,6.06-.82,4.62-1.07,5.38-1.82,6.07a5.83,5.83,0,0,1-6.47.61c-1.32-.76-1.51-1.74-3.24-5.87l-4.45-9.91c-1.89-4.21-2.14-4.59-2.42-5.86a18.45,18.45,0,0,1,.2-8.09,119.43,119.43,0,0,1,6.47-20.83s-2.36.81-3.64,1.42c-2,1-2.67,2.63-4.25,3.44-3.13,1.6-6.47-3.42-8.49-2.23-1.71,1,0,4.63-2.43,7.08a6.71,6.71,0,0,1-3.64,1.62s-2.1.45-8.49-.81a60.89,60.89,0,0,0-4.45,6.47c-2.46,4.14-2.43,5.22-4.45,8.29-.69,1-5.73,8.7-8.9,7.68-1.09-.35-1.54-1.59-2.22-3.43-.78-2.12-1-4.14-.81-10.32.11-4.06.25-4.92-.2-6.67-.63-2.41-2-5.21-3-5.06-.73.12-1.08,1.81-1.42,4.86-.81,7.15-.26,9.61-.61,13.14-.15,1.6-1.08,11.1-7.88,15.37a16.11,16.11,0,0,1-7.28,2.23c-.87.07-3.14.2-10.11-1.82-5.93-1.72-8.89-2.58-10.12-4-1.54-1.84-2-4.73-3-10.51-.69-4-.74-6.32-1.62-6.48-.29-.05-.92.1-3,4a66.44,66.44,0,0,0-3.24,7.08c-2.76,7-4.66,6.12-4.85,9.1-.26,4,2.91,5,3.17,10.85a18.24,18.24,0,0,1-.54,5.12,21,21,0,0,1-3.91,8.23,16.67,16.67,0,0,1-5,4.45c-2.16,1.18-4.34,1.58-10.38,1.48-8.07-.14-12.1-.21-16.85-1.48s-6.17-2.47-10-2.3c-1.76.08-3.17.42-7.82,2.16-7.43,2.78-10.12,4.29-15.5,6.34a78.09,78.09,0,0,1-10.38,3.37c-9,2.08-15.18-1.81-17.26,1.21-.75,1.09.06,1.48-.54,4.18-.8,3.63-2.48,3.94-5.66,9.44-1.64,2.83-1.76,3.72-3.91,7.14a24.76,24.76,0,0,1-2.29,3.37c-2.88,2.89-6.79,2.4-13.08,3.1-5.08.58-3.8,1-10.38,2-10.72,1.6-16.35,2.36-21.57-.81a14,14,0,0,1-5.8-6.07c-2.64-5.81,1.43-9.92-.94-16.58a16.68,16.68,0,0,0-5.53-7.42c-5.17-3.95-9-1.73-17.52-4.18-7.11-2-6.36-4.15-15.1-7.55A49.83,49.83,0,0,0,61.53,541c-9.43-.21-12.15,3.14-24.13,4.45-4.63.51-7.9.34-14.43.14-14.37-.45-21.56-.67-22.78-3.91-1.4-3.71,5.26-9.55,9.44-13.21a45.73,45.73,0,0,1,14.29-9.17c3.19-1.23,4.47-1.24,6.06-2.83,2.86-2.86,3-7.09,3.1-12.68.16-8-1.43-11.6,1.08-14,1.13-1.08,1.77-.66,4.05-2.42a14.55,14.55,0,0,0,4.58-5.4c1.87-4.4-1.17-7.49.27-9,1.58-1.69,6.4.81,18.34,6.47,14.1,6.69,15.07,6.86,17.12,9.17,3.81,4.31,3.65,7.37,8.89,11.73.57.47,3,2,8,5,9.24,5.64,10,6,11.59,6.33,3.09.6,6.35,1.24,10.25.27,1.48-.36,2.62-.86,3.77-.27.4.21,1.53.91,2.7,6.34.88,4.07.41,4.42,1.21,5.8.41.69.9,1.24,5.8,4.18a65.4,65.4,0,0,0,6.88,3.77c2.57,1.18,3.86,1.77,4.71,1.62,2.2-.38,2.4-2.45,6.48-6.47,1.92-1.9,3.05-2.6,2.83-3.1-.36-.81-3.35.7-7.69.13-2.6-.34-4.43-1.26-7.28-2.69s-4.8-2.42-6.6-4.45c-2-2.25-2.32-4.16-3.24-6.34-1.6-3.8-3.13-3.91-12.27-12.67a114,114,0,0,1-10-10.52,71.71,71.71,0,0,1-5.13-7.28c-2.62-4.22-5.23-8.51-3.77-10.38a2.71,2.71,0,0,1,1.48-.81c2.58-.79,4.68.72,7.28,1.62,2,.69,1.43,0,8.76.67,6.69.6,8.59,1.28,9.44,1.62,2.14.85,1.66,1.13,5.12,3,5.4,2.86,6.45,2.19,8.9,4.31s1.78,3.14,4.32,5,3.13.83,6.6,2.83c2.23,1.29,2.92,2.37,6.2,4.05.93.47,2.83,1.44,3.1,1.07s-1.29-1.76-3.37-4.31c-1.69-2.08-2.5-3.42-3.23-4.45-2.46-3.47-6.24-6.62-12.4-11.46-7.53-5.9-11.29-8.85-13.08-10-11.11-7-15.05-5.6-21.3-12-2.82-2.89-4.3-5.51-6.74-9.84a68.86,68.86,0,0,1-7.42-19.42c-1.82-8.78.29-8.17-1.75-15.5-1.23-4.42-3-8.24-1.08-11.33A6.81,6.81,0,0,1,90,391.9c3.84-1.24,6.84,2,14.69,5.93,6.56,3.32,6.73,2.23,11.46,5,5.23,3.05,5.06,4.4,11.19,9.17a78.83,78.83,0,0,0,20.76,12,68.08,68.08,0,0,1,8.9,3.64c4.58,2.35,4.28,3,8.63,5.26,4,2.08,5,1.9,12.27,5.12,2.1.93,3.8,1.69,5.52,2.57,12.26,6.26,19.74,16,19.28,20.22a6.74,6.74,0,0,0,0,2c.4,2.46,2.06,3.3,2.43,4.72.54,2.07-2.18,3.18-4.18,6.47-3.1,5.1-2.77,12.39.13,14.56a4.55,4.55,0,0,0,2.16.81c2.32.19,4.15-1.82,4.59-2.29,2.71-3,1.39-5.72,4.17-12.41.87-2.08,1.51-3,2.57-3.5,1.93-.85,4.21.37,5.79,1.21s2.27,1.51,5.94,4.86c3,2.71,4.48,4.07,5.66,4.18a6.51,6.51,0,0,0,5.39-2.7,6,6,0,0,0,1.35-3.78c-.1-3-3-5.31-3.91-6.06-1.69-1.36-3-1.68-3.1-2.83a2.51,2.51,0,0,1,1.21-2.16c1.27-.81,2.77-.12,4.18.13,2.44.45,3.18-.65,9.3-2.83s7.35-1.74,8.9-3.5c1.93-2.2,2.65-5.67,1.48-6.74-.34-.32-.91-.48-6.06.94-2.94.81-3.68,1.12-6.07,1.75a26.51,26.51,0,0,1-6.2,1.22,18.61,18.61,0,0,1-5.26-.68,41.36,41.36,0,0,1-9.44-3.91c-9.19-4.59-9.31-3.19-11.73-5.52-.31-.31-4.83-4.79-4.85-11.19,0-1.9,0-3.48,1.08-4.59,2-2.06,5.22.13,11.86-.13,5.38-.22,5.18-1.73,10.38-1.76,5.78,0,6.57,1.83,10.39.95,3.62-.84,3.21-2.59,8.49-5,3.47-1.58,7.61-3.47,11.19-1.89,1.82.81,2.45,2.05,5,2.7,1.46.38,3.64,1.08,4.58.13,1.6-1.6-2.42-5.84-1.08-9.3,1.2-3.09,6.94-1,8.76-4.31,1.2-2.2.12-5.23,0-5.53a5,5,0,0,0-1.75-2.7c-2.5-1.66-6.62.58-9,1.89a32.32,32.32,0,0,0-3.51,2.29c-2.78,2-4.65,3.63-5,3.91-2.89,2.45-10,3.9-27.37,3-8.21-.44-12.32-.66-18.2-1.62a145.82,145.82,0,0,0-15.78-2.16c-3.74-.26-5.91-.22-7.28-.27-17.27-.59-33.21-19-34.24-20.22-3.39-4-5.9-8.51-10.92-17.52a63.17,63.17,0,0,1-6.33-15c-1.72-6.35-1.34-9.28-1.08-10.65A17,17,0,0,1,143,335.68c5.3-4.38,11.74-3.66,13.08-3.51,4.22.48,3.9,2,11.59,4.45,6.28,2,7.36,1.33,11.19,3.37,2.39,1.27,4.23,2.89,7.82,6.07,4.26,3.78,4.51,6.52,8,7.68a12.23,12.23,0,0,0,5.4.41c2.49-.33,3.48-1.22,5.93-2.16,2.21-.84,5.45-2.08,8.49-1.48,2.73.54,5.06,3.19,9.71,8.49,3.09,3.53,3.55,4.59,5.66,5.66a15,15,0,0,0,7.68,1.35c3.8-.22,4.48-1.49,7.82-1.48,1.33,0,3.06.54,6.48,1.62,7.21,2.27,10.81,3.4,12.53,5,1.11,1,2.38,2.52,3.24,2.15.54-.23.78-1.15.67-1.88-.24-1.7-2.31-2.21-5.52-4.05-1.28-.73-3.51-2.42-8-5.8-2.45-1.85-3.81-3-4.31-3.37-6.53-5-13.72,1.54-22.25-2.42a11,11,0,0,1-4.18-3c-2.1-2.55-1.35-4.46-3.37-7.55a13.17,13.17,0,0,0-4.72-4.31c-1.68-.88-2.51-.78-9-1.49-5.56-.6-7-.9-8.63-1.88a11.79,11.79,0,0,1-3.5-3.37,300,300,0,0,1-23.19-23.87c-16.13-18.56-2.61-4.59-17.93-22.78-2.81-3.33-7.16-8.39-6.47-14.43.26-2.28,1.18-4.18,2.42-6.74,1.54-3.15,3.27-6.72,7-8.76a13.26,13.26,0,0,1,5.12-1.48c2.4-.29,6.72-.35,17.93,5,3,1.44,1.57.9,10.68,5.59,8.7,4.49,8.48,4.19,10.48,5.47,3.92,2.52,5.26,4,9,5.39a54,54,0,0,0,5.93,1.49c6.14,1.37,7.81,1.26,9.3.81.55-.17,3.69-1.14,3.91-3,.2-1.59-1.88-3.06-3.64-4.18a66.06,66.06,0,0,0-14-6.61c-10.12-3.63-9.3-9.52-24.13-22a19.28,19.28,0,0,1-5.53-7.55c-.54-1.37-1.91-4.82-.54-6.2.91-.92,2.31-.19,8.9.4,3.16.29,4,.22,4.85-.13,1.2-.47,1.46-1,4.45-3.51,2.82-2.36,3.41-2.58,3.91-2.69s1.9-.34,4.85,1.21c3.52,1.85,3.8,3.39,7.55,6.2,3.13,2.34,3.25,1.5,5.8,3.64,2.84,2.38,2.71,3.42,5.8,5.93a29.38,29.38,0,0,0,5.26,3.37c3.37,1.71,3.4.93,5.53,2.15.14.08.41.24.53.15.55-.45-3.09-5.68-3.37-6.07a40.45,40.45,0,0,0-3.91-5c-3-3.17-3.78-2.83-6.74-5.66-4.07-3.9-3.32-5.32-6.87-8a20.31,20.31,0,0,0-6.74-3.23c-3.2-.85-3.59-.07-7.82-.81a33.73,33.73,0,0,1-8.09-2.56c-3.16-1.35-5-2.14-5-3.24s2-1.48,5-3.37c4.23-2.69,3.9-4.47,9.43-8.63,2.53-1.89,4-2.6,5.8-2.83,2.25-.28,3.08,1.07,4.59.54,2.31-.8,2-4,3.91-6.06,2.67-2.81,8.17-1.67,11.86-.81,0,0,21,3,27.91,8.62,1.41,1.14,3,2.7,3,2.7,1.85,1.85,2.77,2.78,3.37,4.05,1,2,.3,2.7,1.35,3.9.68.79,1.62,1.16,3.51,1.89,1.37.54,1.89.61,3.37,1.08s1.32.52,4.85,1.89c2.92,1.13,3.64,1.33,5.39,2.16.81.37,1.78.85,2.16,1.07,3.18,1.84,1.84,5.91,4,11.46,1.84,4.65,3.65,4.39,4.05,7.82a12.07,12.07,0,0,1-2.29,8.36c-2.24,3-4.46,2.7-6.74,6.34-.64,1-2,3.22-1.22,4.45.95,1.45,4.41.68,5.66.4a16.79,16.79,0,0,0,7.15-3.64,27.1,27.1,0,0,0,6.34-8.36c.91-1.9,1.55-3.84,3.64-5.53,1-.8,2-1.6,3-1.34,1.92.5.88,4.3,3.91,8.76a38.28,38.28,0,0,0,3.51,4.31c1.21,1.27,1.48,1.35,1.88,2,1.08,1.8.44,3.44.14,6.47-.42,4.28.52,4.49.13,9.16a42.69,42.69,0,0,1-.94,5.67,53.86,53.86,0,0,1-12.94,22.78c-1.54,1.62-4.22,4.21-3.51,5.8.46,1,2.11,1.19,2.29,1.21.83.09,2.26,0,4.59-2.16a20.54,20.54,0,0,0,4-5.39c3.12-5.15,5-3.68,7.82-8.22,2.74-4.38,1.38-6.34,4.86-11.6a27.25,27.25,0,0,0,2.15-3.5c1.93-3.87,1.85-6.47,2.43-6.47.89,0,1.65,6.09,2.29,11.19a56.53,56.53,0,0,1,.68,7.82c-.05,4.15-.75,7-.27,7.14.33.09,1-1.28,2.15-3.77s1.36-3.22,2.16-4.86,1-1.74,2.7-4.58c3-5.07,3.61-6.74,4.31-6.61s.95,2.43,1.08,4.32c.25,3.67-.18,6.41-.94,11.19-1.14,7.05-1.22,7.39-1.49,8.09-1,2.73-2.33,4.48-4.72,7.68-3.3,4.43-4.26,4.58-6.06,7.82-1.38,2.48-.68,2.16-2.56,6.07-1.57,3.24-2.73,4.88-4.72,9.16-1.74,3.73-1.74,4.38-1.49,4.59.61.48,2.88-1.35,4.05-2.43,2.36-2.17,2.56-3.45,5-6.74s2.79-2.77,5.12-6.07c.34-.47.4-.58,3.64-5.93,2.51-4.14,2.73-4.5,3.24-5.39a51.21,51.21,0,0,0,3.1-5.93c.79-2.06,1.26-4.07,2.83-7.69.53-1.22,1-2.24,1.75-2.29,1-.07,1.91,1.78,2.16,2.29,1.17,2.45.92,4.68.81,6.88-.36,6.69.8,6.25.13,10.65-.55,3.62-1.21,3.06-2,7.68-.68,3.88-.33,4.95-1.35,7.82-.93,2.64-1.58,2.75-2,4.86-.63,3-.12,6.66,1.21,7s3-2.42,3.37-3c1.22-1.9,1-2.79,1.89-5.12,1.31-3.35,2.45-3.17,3.77-6.34.81-1.92.44-2.11,1.35-6.2,1-4.6,1.55-4.61,2.29-8.22.83-4,1.29-6.19.68-8.9-.82-3.65-2.52-3.62-3.51-7.69a17.55,17.55,0,0,1-.13-7.41c.52-2.65,1.35-3.4,2.69-7.55a49.69,49.69,0,0,0,1.35-5c1.34-6.26.49-9.13,1.89-9.71s3.5,1.29,4.58,2.84.66,2.52,1.76,3.5c1.91,1.7,5.38.82,5.93.67,2.24-.6,3.09-1.77,3.77-1.34.87.54-.39,2.46.27,5.12.38,1.52,1.6,2.85,4.05,5.53,1.87,2,2.8,3.06,3.91,3.64,2.61,1.36,4.14.48,5.25,1.75s0,2.9.14,5.8c.19,4.76,3.47,5.17,4.72,10.65.62,2.72-.17,2.72,0,8.89.12,4.4.58,6.56.81,9,.42,4.63-.39,8.68-2,16.58-3.16,15.27-5.43,16.45-6.74,25.48-.42,3-.55,5.4-2.29,8.22s-4.24,4.6-3.64,6.07a2.51,2.51,0,0,0,2,1.21c4.51.51,10.92-10,13.08-20.08,1.13-5.31,0-5.47,1.48-11.6a91,91,0,0,1,4.72-13.61c1.39-3.33,1.83-4,2.7-6.07,5.08-11.92,4.35-21.95,5.8-22s3.32,8.5,3.64,9.85a27.51,27.51,0,0,0,2.42,5.66c.49.93,1,1.82,1.49,1.75.89-.13.53-3.45,1.88-3.91.61-.21,1.27.27,2.56,1.21a6.83,6.83,0,0,1,2.7,2.84,6,6,0,0,1,.14,3.77c-.34,1.45-2.89,12.78-.41,18.47.25.57.62,1.26,1.21,1.35,1.4.22,3.18-3,3.91-4.32s1-2.2,1.22-2.15-.22,3.12-.54,4.85c-.35,1.88-.85,4.29-1.21,5.66-7.6,28.32-18.88,36.4-18.88,36.4-3,2.13-8.46,5.23-8.49,9.17,0,.35,0,2,.94,2.56s2.7-.24,4.18-1.21a31.91,31.91,0,0,0,8.22-8.09c4-5.63,4.83-4.16,10.12-10.52,6.48-7.8,11.18-13.45,11.45-21,.21-5.76-2.23-10,.54-13.34a15.77,15.77,0,0,1,5-4.05c1.9-.86,3-.75,3.37-1.62.57-1.36-1.62-2.95-3.64-6.06-1.45-2.23-2-4-3.1-7.42-1.35-4.23-1.29-6.52-2-12.67-.76-6.37-1.14-9.56-1.89-12.13-1.42-4.92-3.42-11.83-9.3-16.45-2.92-2.3-6.13-3.51-6.47-6.47-.13-1.1.22-1.75,1.21-4.18,1.49-3.66-1.36,2.85,3.37-9.3,3-7.65,3.41-8.45,2.83-9.31-1.12-1.65-3.94-.39-9.16-1.21a27.84,27.84,0,0,1-9.31-3.37c-7.22-3.88-7.34-8.1-13.34-12.27-4.79-3.32-9-3.62-13.75-4.58-11.81-2.4-20.13-7.57-33.57-15.91-14.32-8.88-23.8-14.76-28.31-26.56-3.34-8.71-2.83-13-2.43-14a12.33,12.33,0,0,1,2.69-4.18c2.85-2.87,5.65-2.71,10.66-4.58,4.37-1.64,3.34-2.16,9-4.72,4.32-1.95,7.94-3.57,12.94-4.05,3-.28,7.34-.69,11.86,1.35,3.87,1.75,3.8,3.43,8.77,5.8,2.32,1.11,1.49.33,8.22,2.7,5.08,1.78,7,2.71,9.3,1.88,1.67-.59,2.05-1.55,3.24-1.48,2,.11,3.3,3.12,4.72,6.2,1,2.26,1.21,3.36,2.56,5.12.22.3,2.14,2.78,2.83,2.43s-.15-3.35-1.48-8.09c-1.47-5.21-1.94-5.74-1.49-6.74.76-1.67,2.68-1.59,11.33-3.5,5.61-1.25,6.34-1.62,9.57-2,4.13-.52,4.16-.07,7.42-.54,4.68-.67,11.77-2.64,11.86-5.25a2.46,2.46,0,0,0-.81-1.62c-2.12-2.48-6.33-2.09-9.44-1.75-2.34.25-3,.58-7,1.48-3.21.72-6.4,1.31-8.49,1.62-4.95.73-13.17,1.95-14.29-.54-1-2.27,4.23-6.72,4.58-7,1.87-1.57,2.23-1.2,6.07-3.64,2.91-1.85,4.94-3.16,6.88-5.53,1.42-1.74,2.38-2.91,2.69-4.72.77-4.51-3.3-8.24-4.31-9.17-1.72-1.57-5.16-4-6.47-3s1,4.13-.14,9.3a13.47,13.47,0,0,1-2,4.72c-1,1.44-2.25,2.46-5.66,4.45-4.86,2.82-7.29,4.23-9.17,4.45-1.37.15-4.12-.66-9.57-2.3-6.76-2-8.17-2.75-9.17-4.31a8.43,8.43,0,0,1-1.08-5.26c.25-3.42,2.07-4.43,4.59-9,3.48-6.38,1.6-7.39,4.44-10.25,1.65-1.65,3.79-2.82,5.94-6.2,1.25-2,1.06-2.42.94-2.56-.59-.71-3.3,1.19-7.68,2.7-4.63,1.59-5.75.9-8,1.88-3.73,1.67-2.68,5.16-7.41,12.68-2,3.21-3,4.82-4.86,6.2-5.92,4.5-13.16,2.72-14.69,2.29-1-.27-3.89-1.09-4.05-2.56-.08-.77.64-1.2,2-2.7a31.23,31.23,0,0,0,4-5.79c1.23-2.27,2.1-3.89,1.48-4.72s-2.58-.4-6.47.54c-2.82.68-4.25,1-5,1.88-1.36,1.58-.38,3-1.75,5.53-.29.55-.75,1.27-3.23,3.51s-4.5,3.71-5.8,4.72c-4.28,3.29-4.81,4.53-6.74,5.93-6.05,4.37-14.82,2.29-17.66,1.61-6.39-1.51-5.22-3.47-18.88-11.05-6.63-3.68-9.54-4.68-11.73-8.49-2.38-4.17-2.86-9.88-.81-11.19,1.8-1.14,5.51,1.05,7.82,2.42.92.54,2.27,1.44,5,3.24a14.54,14.54,0,0,0,4,2,6.59,6.59,0,0,0,2.56.41c1.15-.09,1.75-.52,3.5-1.49,3.41-1.88,3.63-1.63,5.26-2.83a11.72,11.72,0,0,0,2.56-2.29c.76-1,1.6-2.52,1.89-7.55s.44-7.65-.94-9-2.84-.49-5.8-1.62c-2-.77-4-3.18-7.95-8a42.69,42.69,0,0,1-5.67-9c-.53-1.15-1.06-2.44-.54-3.64.9-2.08,4.28-2.27,4.59-2.29,1.81-.08,3.18.62,5.93,2s3.94,2,5,3.1c.59.61,1,1.13,1.48,1.08,1-.09,1.07-2.08,2.7-3.91a8.14,8.14,0,0,1,3-2c1.31-.49,1.78-.21,7.28.14a18.57,18.57,0,0,0,4.72-.14,7.92,7.92,0,0,0,2.16-.54c3.73-1.94-.95-13.1,3.5-16.72,1.18-1,2.54-1,5.26-1.07,3.55-.11,6.27,1,10.32,2.72a14,14,0,0,1,3.21,1.71,14.23,14.23,0,0,1,3.46,3.79c2.06,3,1.77,4.32,3.37,5.39,1.23.82,2.37.71,3.77.81,4.89.34,11.24,3.05,13.22,7.28,0,0,0,.06,1.48,5.26,1.79.68,6.92,2.38,11.59.13a20.28,20.28,0,0,0,5.13-3.91,28.18,28.18,0,0,0,3.5-4.31c1.66-2.44,2.49-3.66,2.7-4.85.58-3.41-2-5-.95-7.82A5,5,0,0,1,398,52.84a6.79,6.79,0,0,1,7.69.13c1.66,1.29,1,2.45,3,4.18s2.95,1,4.32,2.56c.7.83,1.1,2.13,1.88,4.72s.65,2.9,1.22,3.37c1.12.93,2.15-.12,5.39.13,1.9.15,2.37.57,5.39.81a6,6,0,0,0,2.83-.27A4.48,4.48,0,0,0,431.87,67c1-1.56-.44-3.39-1.35-7.68-.48-2.29-1.13-5.36,0-6.07.56-.35,1.28,0,5.53,2.29,4,2.12,4,2.12,4.18,2.29,2.1,2.37.51,5.5.81,11.46a31.94,31.94,0,0,0,1.48,8.09c1.12,3.67,3.33,10.88,9.3,14.16,3.1,1.69,4.63.92,8.36,3.5A26.66,26.66,0,0,1,465,99.48a20.66,20.66,0,0,1,3.78,5.39c.78,1.73.59,2.12,1.89,7.15.8,3.11,1.21,4.68,1.75,5.12,3.07,2.54,10.52-2.29,11.05-1.35.39.68-3.68,2.91-6.74,8.09-1.3,2.21-2,3.52-1.75,5.13.55,3,4.1,3.39,5,6.6.37,1.34-.15,2.84-1.21,5.8-2.49,6.94-4.67,8.23-4.05,11.19.42,2,2,4.12,3.91,4.45a4.56,4.56,0,0,0,3.1-.81c1.72-1.06,1.74-2.29,3.24-4.18,1.75-2.21,4.64-4.19,5.79-3.51.6.36.49,1.29.54,3.11.06,2,.24,8.32,2,8.89,1,.34,2.53-1.35,4.17-3.23s2.05-3.11,3.91-4.59c1.37-1.07,2.05-1.61,2.84-1.48,1.92.32,1.67,3.93,4.85,6.74a8.2,8.2,0,0,0,3.23,1.89c1.34.37,3.43.5,10.79-3.24,4.22-2.13,6.17-3.51,7.28-2.69.34.25.51.64.67,2.42.48,5-.3,7.57.81,8.23.73.43,1.35-.47,2.83-.14a4.73,4.73,0,0,1,2.7,2c2.24,3.23-.34,8.49-.54,8.89-1.62,3.22-3.16,3-6.74,7.82-2,2.7-3.28,5.15-3,5.39s1.06-1,3.11-1.88c1.14-.52,1.3-.35,2.69-1a29.92,29.92,0,0,0,3-1.61,16.48,16.48,0,0,1,3.5-1.76,5.43,5.43,0,0,1,4.45,2c1.66,2,.58,3.64,2.29,5.93a8.37,8.37,0,0,0,3.24,2.42c2.07,1,3.41,1,7.14,1.49,2.69.35,4.76.75,7.82,1.35,5.21,1,5.49,1.3,7,1.07s2.71-.71,3.51,0a2.94,2.94,0,0,1,.54,2.43c-.23,1.54-1.2,1.84-2.29,3.91-.77,1.45-1.31,2.47-.95,3.37s1.56.89,4.45,2.29c1.87.91,2.8,1.36,3.24,2.16,1,1.74,0,4.41-1.35,6.07-1.93,2.43-4,2-5.39,4.31a6.89,6.89,0,0,0-.81,4.31c.82,4.77,7.46,5.08,7.95,9.31.24,2-.93,4.54-2,6.06s-2.09,2.09-2.16,3.51c0,.88.32,1.47,1.35,3.23.81,1.39,1.53,2.85,2.43,4.18,3.46,5.14,5.11,14.35,6.6,14.16.92-.12.29-3.54,3-6.2a5,5,0,0,1,3.64-1.75c1.87.11,3.07,1.79,3.91,3,.62.88,2.42,3.39,1.89,6.2-.42,2.22-1.87,2.44-4.18,5.67-1.52,2.12-4,6.42-3,7.54s5.84-1,7.55-2.69a13.59,13.59,0,0,1,1.89-1.62c1-.68,1.4-.8,1.75-1.08,1.67-1.34.39-5.67.27-6.06-.89-3.06-1.26-8.92.67-21,3.64-1.37,10.66-3.57,13.35-.67.7.75,1.25,2,2.29,4.31,1.4,3.11,1.21,3.84,2.43,5.26,1,1.23,1.83,1.43,2.29,2.7a3.87,3.87,0,0,1,0,3.1c-1.39,2.2-6.12-.05-8.09,2.43a4.22,4.22,0,0,0-.67,3.1c.3,2.32,2.18,2.33,3.77,5.25a25.85,25.85,0,0,1,2,6.34c.32,1.44.36,2,.94,2.56,1.58,1.44,4.8.27,5.53,0,2.37-.86,2.41-1.8,5.12-3.23a18.28,18.28,0,0,1,5.66-1.89,17.11,17.11,0,0,1,7.28.13c2.86.76,2.95,1.82,11.46,8.63a30.83,30.83,0,0,1,4.18,3.78c1.55,1.71,4.5,5,3.64,6.6-.51,1-2,.61-6.34.95a86.89,86.89,0,0,0-10.38,1.61c-2.46.48-2.14.5-7,1.49-3.21.65-4.84,1-6.47,1.21s-2.12.24-7,.67c-3.76.34-5.64.51-5.79.54-5.15,1.13-4.85,3.4-10,4.59a9.63,9.63,0,0,0-4.85,2,5.89,5.89,0,0,0-1.62,2.16c-.93,2.2-.5,5.39,1.48,6.87s4.65.63,6.61,0c3.72-1.18,4-2.87,7.55-4.58,1.63-.79,1.81-.54,9.57-1.89,5-.87,6.06-1.17,10.11-1.75,7.81-1.13,1.19.37,9.71,0,.48,0,1.33-.06,1.61.4.81,1.34-3.86,5.56-4.58,6.21-1.88,1.69-2.46,1.84-4.85,3.9-2.92,2.53-4.5,3.89-4.18,4.59.52,1.16,6.05,0,9.84-1.35.76-.27,2.35-.94,5.53-2.29,4.62-2,5.63-2.49,7.14-2.16,1.33.29,2.32,1.23,4.32,3.1a29.76,29.76,0,0,1,4,4.59c4.52,6.78,4.08,19-.4,22a14.43,14.43,0,0,0-3.1,2.56c-1,1.12-2.2,2.42-2,3.78s1.68,1.89,3.37,3.23a14.57,14.57,0,0,1,4.86,7.42c.81,3.32-.77,6.19-3.37,10.78-3.38,5.94-4.9,5.66-8.9,11.87-4.26,6.6-3.64,8.62-6.74,10.24-2,1-2.53.37-9.71,2.29-3.74,1-5.1,1.6-5.93,3-1,1.64-1.13,4.28.13,5.39,2,1.78,6.44-1.3,7.82.41.79,1-.28,2.44.81,3.91a4.24,4.24,0,0,0,2.29,1.35c5.74,1.92,4.55,2.14,8,3,3.92.94,5.57.67,5.8,1.48s-1.63,2-3.65,3.51a50.94,50.94,0,0,0-9.16,9.3c-4.08,5.41-2.7,7.46-5.93,10.38-1.6,1.45-3.48,2.3-10.52,3.51-13.21,2.26-21.73,3.73-25.21-.68-.94-1.18-.43-1.43-2.43-5a58.38,58.38,0,0,0-5.12-7.42c-5.26-6.9-5.48-6.44-6.07-8.09-1.35-3.76.23-4.87-1.35-9a15.32,15.32,0,0,0-14.56-10.11c-1.11-.06-5.76-.32-6.33,1.35-.36,1,1,2.38,3.23,4.45,2.77,2.59,4.47,3.46,7.69,5.93s4.62,3.54,5.53,4.85a15.31,15.31,0,0,1,2.42,10,23.62,23.62,0,0,1-2,6.47c-1.18,2.75-2.3,4.33-2,6.74a10.28,10.28,0,0,0,.81,2.7,19.27,19.27,0,0,0,2.69,4.71c4.13,5.4,3.42,12.68,8.63,16.05,3.46,2.23,4.55-.47,12.94,1.88,5.38,1.51,6.28,3,9.17,2.43,4.14-.81,4.81-4.35,8.9-4.58,2.32-.14,4.22.88,6.34,2,3.67,2,4.09,3.8,7.41,4.72,2.22.61,3,.06,3.91.94,1.56,1.53.74,4.71,0,7.55a29.67,29.67,0,0,1-4.18,9.3,47.66,47.66,0,0,1-6.07,6.88c-3.19,3.08-5.26,4.38-5,6.2.21,1.44,1.8,2.58,2.15,2.83a5.33,5.33,0,0,0,2.7,1.08c.72,0,2.26-.08,4.58-2.43,3.05-3.08,2.46-4.95,5.13-8.62,1.38-1.91,3-4.17,5.93-5.26s3,.37,9-.41c1.68-.21,3.2-.52,4.85.27a6.17,6.17,0,0,1,2.43,2.16c1.77,2.64.47,5,.27,11.05s1.06,6.41,0,9.44c-.85,2.43-2.13,3.65-2.43,6.61a12.84,12.84,0,0,0,.41,4.45c1.59,7.76-10.75,22.58-22.11,27.77a16.67,16.67,0,0,0-5.39,3.77c-2.91,3.09-5.08,7.9-3.64,9.44s5.86-.55,7-1.08c4.09-1.88,5.93-4.37,8.49-6.87,1.82-1.79,10.87-10.67,16.85-8.77,2.69.86,3.13,3.38,6.07,8.5,5.81,10.13,9.33,9.51,13.34,16.44,1.92,3.31,2.58,11.92,3.91,29.13,1.18,15.16.73,17.92.27,20-1.19,5.32-2.94,8-2.42,13.21.13,1.31.43,3.05,4.58,11.86,3.57,7.58,4.9,9.6,8,16.18,1.86,4,3,6.46,4.31,10a93.89,93.89,0,0,1,5.22,19.2c1.22,7.93.79,12.72,1.39,12.75s2.48-6.72,2.29-14.43c-.22-8.47-2.75-15.85-6.2-25.88-2.08-6.05-3.77-9.91-2.7-15.1a33.18,33.18,0,0,1,3-7.82c2.5-5,4-5.44,5.39-8.49,1.32-2.87,1.53-5.76.27-14.83s-2.83-15.86-3-16.45c-5.23-22.7-3.46-38,.14-40.85.5-.4,2.06-1.65,3.5-1.21a3.44,3.44,0,0,1,1.89,2c5.1,11.47,5.8,15.5,5.8,15.5.49,2.9,2.62,8.85,6.87,20.76,4.43,12.41,6.25,15.19,8.76,15.51,3.09.39,5.86-3.08,6.21-3.51,2.75-3.44,2.28-7.69,2-9.7-.8-6.23-4.24-9.13-7.82-14.56a57,57,0,0,1-8.63-24.27c-.67-5,0-10.48,1.48-21.17,2.34-17.08,3.62-25.84,8.63-36.4a88,88,0,0,1,9.3-15.16,104.69,104.69,0,0,1,18.81-19.82c5.68-4.56,7-4.54,9.91-8.09,4.58-5.52,4.4-9.13,9.3-12.54a16.48,16.48,0,0,1,9.51-3c.44,0,7.84.22,9.5,4.25.95,2.29-.83,3.75-2,8.08-1.25,4.56,0,5.35.61,16.79.44,9.26-.3,11.08,1.61,13.14,2.2,2.36,5.49,2.47,10.72,2.63,7.69.25,8.09-1.61,16.79-2,7-.33,10.18.7,14-1.82,2.23-1.49,1.7-2.38,4-4.45,5.23-4.62,10.06-2.56,14.56-5.46,3.46-2.22,4.58-7,6.68-16.58,2.56-11.66.82-12.67,3.23-24.47,1.85-9,3.38-10.95,3-16.79a35.85,35.85,0,0,0-4.25-14.35c-7.81-16.47.18-26.44-4.45-50.56-3-15.36-6.08-10.72-12.13-33.37-5.19-19.41-3.91-26.65-8.9-37.41-1.1-2.38-2.67-5.27-2.22-9.1.71-6.13,5.92-9,4.53-13.24-.65-2-2.29-2.79-2.31-5.36,0-1.76.74-2.18,1-3.84.7-4.3-3.47-6.7-2.63-8.5,1.23-2.61,10.18,2.16,16.38-2,4-2.68,2.34-6,6.07-8.29,6.11-3.75,12.7,3.84,19.21,0,2.67-1.57,2.74-3.54,7.89-6.88,3.22-2.09,4.72-2.31,5.86-2.22,2.54.19,2.79,1.88,6.27,3.64,4.72,2.38,7.07.68,9.1,3,1.13,1.31.25,1.65,1.82,6.47,1.73,5.3,3.37,6.66,4.45,7.28s1.33.29,2.22.81c3.33,1.94,1.8,7.72,3.64,16.18a45.21,45.21,0,0,0,2.84,8.49c2.45,5.46,5,7.85,7.68,11.53,3.27,4.45,11.34,15.45,11.32,27.71,0,3.11-.53,7.35,2.23,10.31,2,2.13,3.57,1.34,5.26,3.64,1.93,2.64,2,6.61,2,10.51,0,2.45-.19,3.81.61,4.25,1.18.66,2.81-1.77,5.86-2a8.26,8.26,0,0,1,4.85,1.41A61.46,61.46,0,0,1,989.2,352c6.58,7.22,10.21,11.2,12.94,17.8,3.74,9,3.8,18.14,3.84,24.87.07,9.55-1.4,14,2,19a14.73,14.73,0,0,0,9.1,6.27,13.63,13.63,0,0,0,9.7-1.82c.75-.48,4.71-3,5.46-7.28.39-2.19-.28-3.65.21-3.84.89-.37,3,4.73,8.08,10.11,3,3.19,4.55,4.8,7.08,5.26,4.91.87,9.24-3.39,10.32-4.45,3.47-3.42,4.51-7.36,5.66-11.93s.26-4.2,1.82-16.59c.39-3.12.76-5.67,1-9.7.18-2.92.23-5.69.2-7.28-.14-8.69-3.19-16.47-4.45-19.62-.9-2.26-4.11-7.84-10.51-19-2.63-4.58-4.9-9.35-7.49-14-3.81-6.77-5.6-9.46-4.44-11.93,1-2.09,3.61-3.11,8.69-5.06,3.51-1.35,4.52-1.2,6.47-2.63a11.15,11.15,0,0,0,4.45-6.06c.43-1.76.23-3.42-1.82-8.7-3.2-8.26-4.25-8.2-4.65-11.12-.8-5.78,2.66-10.69,4.25-12.94.94-1.35,5.37-7.64,13.14-9.51,9.34-2.25,14.43,4.07,21,.2,3.28-1.91,3.84-4.53,6.47-4.45,4,.13,5.11,6.15,9.1,6.27,1.66.05,2.52-.94,6.68-4.65,8.54-7.62,8.59-6.71,9.91-8.69,3.06-4.61,1.15-7,3.23-15a44.78,44.78,0,0,1,6.88-14.56,43.14,43.14,0,0,1,16.78-14.15c6.65-3.09,9.09-1.95,9.71-1.62,3.39,1.8,3.89,6.81,4,8.29.86,8.57-5.06,14.61-3.84,15.57,1,.8,5.64-3.07,8.7-6.67,2.12-2.51,4.77-5.63,5.86-10.32,1.47-6.31-1.28-9.52,1-11.72s6.87-.89,8.9,0a11.68,11.68,0,0,1,5.86,5.86c.86,2,.79,3.78.61,7.28a48.89,48.89,0,0,1-2,11.53c-1.21,3.75-2.43,5.81-1.82,6.27s2.52-1.13,3.84-2.23c3.77-3.13,3.18-4.15,5.87-6.07,1.87-1.34,2.21-.87,7.07-3.64,1.84-1,1.79-1.11,2.23-1.21,3.91-.92,8.2,4.34,10.11,6.67a31.49,31.49,0,0,1,4.65,7.89c2,5,3.37,8.16,2.22,11.33-1.36,3.76-4.67,3.22-7.68,8.89-.68,1.28-2.21,4.25-1,5.87a3.12,3.12,0,0,0,1.82,1c1.92.49,3.68-.23,5.66-1.21,3.92-1.95,4.44-2.79,7.48-4.25s4.77-2.3,6.27-1.62c.72.33,1.79,1.17,3,6.67a45.85,45.85,0,0,1,1.21,8.09c.33,14.05,4.06,16.65,2.83,27.71-.79,7.11-2.76,9.85-.81,14.36a16.39,16.39,0,0,0,6.07,6.87c3.66,2.22,5,.76,8.9,2.83,4.91,2.6,4,5.55,8.29,7.08,3.21,1.16,4.32-.31,9.7.81a22.19,22.19,0,0,1,6.07,2c1.85,1,5,3.47,8.7,16.18,3.36,11.61,1.71,13,4.85,17,1.64,2.1,4.26,4.3,9.5,8.69,4.13,3.46,4.23,3.24,5.26,4.25,6.26,6.16,2.36,14.55,5.26,31.14,1.79,10.22,3.56,8.74,4,16.18.61,9.4-2.06,14.3.81,22.24,1.33,3.68,2,3,4.86,8.3,7.62,14.31,5.91,25.89,11.32,27.3a4.58,4.58,0,0,0,2.83-.21c3.25-1.43,3.56-7.15,3.64-8.69.44-8.07-3.92-10.81-7.08-20.83-2.26-7.22-2.34-13.23-2.42-19.42-.09-6.53.59-11.51,1.62-19,1.41-10.39,2-9.22,2.42-14.56.62-8-.82-8.81-2.42-25.89-1-10.61-.63-12.28-2.63-14.76-3.66-4.53-7.8-2.57-15-7.69-1.83-1.3-10.33-7.68-9.3-13.95.67-4.06,4.73-4.34,5.26-8.29.56-4.23-3.68-7-8.5-12.94s-6.92-11.09-9.9-18.2c-3.86-9.19-6.44-15.34-6.07-23.46.15-3.42.77-5.86.2-10.52-.49-4-1.25-4.77-3.23-11.73-2.24-7.83-3.34-11.83-2.84-15.77.19-1.48,1.28-4.29,3.44-9.91,2.55-6.6,3.85-9.92,5.26-10.92,2.94-2.07,4.57,0,15-.2,7.25-.1,10.65-1.15,12.74,1.21,1.77,2,1.61,5.3,2.23,5.26s.13-2.87,1.82-4.25,5-.32,5.86,0c.63.23,4.38,1.68,5.67,5.26,1.22,3.41-.76,6.09.4,6.88.54.37,1.62.22,6.27-3,5.58-3.9,5.75-4.87,7.48-5.46,4.75-1.59,10.44,3.4,14,6.48,7.11,6.22,6.55,9.68,14.56,18a93,93,0,0,0,9.71,8.5c10.47,8.4,12.32,7.68,17.6,12.94,3.35,3.34,8.54,8.51,10.92,16.58s.12,12.68,4.44,17.59c1.76,2,3.81,3,7.89,5.06A41.54,41.54,0,0,0,1441,299c4.52.61,9.14-.27,18.4-2,7-1.33,10.52-2,12.74-3.44,7.63-4.9,9.38-13.87,9.5-14.56.49-2.73-.13-2.39-1.41-16.18-.69-7.41-.7-9.57.2-12.33.53-1.63,2-6.3,6.27-8.9,3.28-2,4.82-.72,9.1-2.83,1.39-.69,5.09-2.52,7.08-6.07,2.53-4.52,1.18-9.79-.41-16-1.9-7.41-4-8.9-3-12.74,1.06-4.43,4.9-7,5.86-7.68,3.46-2.34,7.18-2.71,12.54-3.24,5-.49,5.94.13,8.5-1,3.59-1.6,3.12-3.45,6.67-5.05,3.07-1.39,3.73-.15,9.91-1.42C1547.06,184.7,1547.56,184,1549.22,184.42Z"/><path d="M874.07,1527.72c1.59-1,2.94,1.4,8.49,2.43a8.87,8.87,0,0,1,4.85,2,6.32,6.32,0,0,1,1,1.08c2.27,3.59-4.92,14.94-8.77,14-.41-.1-.75-.33-3.23-5.26-3-5.94-3.41-7.36-3.51-9S872.6,1528.66,874.07,1527.72Z"/><path d="M1344.1.12c-1.67.78-1.74,5.45-.2,8.7.29.62.66,1.21,7.28,7.08,2.21,2,2.78,2.43,3.24,2.22,1.2-.56.47-5.55-1.42-9.5C1350.75,3.9,1346.14-.82,1344.1.12Z"/><path d="M1267.59,281.89c-1,.28-1.22,2.73-1.34,4.58a20.36,20.36,0,0,0,2.29,11.33c.78,1.43,1.65,3,2.83,3s2-1.45,2.7-2.69a9.72,9.72,0,0,0,1.75-5.67c-.12-1.69-1.79-3.76-5.13-7.82C1268.84,282.32,1268.18,281.73,1267.59,281.89Z"/><path d="M359.34,496c-3.78,3.92-3.16,5.45-7.82,12.26-3.23,4.73-4.42,5.3-7.42,10.25s-4.5,7.51-3.5,9c1.38,2.1,5.89-.56,14.42,1.08a21.73,21.73,0,0,1,7.42,2.43c6.76,3.91,8.29,10.94,10.38,10.38,1.35-.36,1.57-3.49,1.62-4.18.29-4.09-1.79-6.72-3.1-9.57-2-4.31,0-4.29-1.35-14.56-1.37-10.45-3.71-12.64-2.16-18.47.55-2.05,1.36-3.75.68-4.32C367.32,489.33,362.63,492.56,359.34,496Z"/><path d="M1633.89,1348c-1.54-.65-3.84,4.71-10.65,10.92-3.68,3.36-5.73,4.27-5.39,5.4.48,1.65,5.69,2.35,9.57.4a10.44,10.44,0,0,0,3-2.29,15.34,15.34,0,0,0,4.18-10.11C1634.65,1350.18,1634.72,1348.36,1633.89,1348Z"/><path d="M1573.36,1334.13c.81-.22,2.5,3.41,3.37,5.66a34.48,34.48,0,0,1,2,9c.85,7.82,1.37,12.58-1.48,15.24-1.19,1.09-3,1.91-3.78,1.34s.12-2.67.68-5.52.28-5.66-.27-11.19c-.34-3.32-.78-5.72-1-10.38C1572.84,1335.2,1573,1334.23,1573.36,1334.13Z"/><path d="M1568,1344c1.63,1-.88,4.9.81,9.44,1.08,2.86,2.44,2.26,3,4.71.73,3.39-1.68,5.34-.54,9,.46,1.51,1,1.78.81,2.42-.92,2.46-11,2.43-12.4-1.08-.37-.86.11-2.25,1.07-5,1.35-3.83,1.85-3.72,2.57-6.07a37.18,37.18,0,0,0,1.21-8.9c0-1.75,0-3.32,1.08-4.18A2.34,2.34,0,0,1,1568,1344Z"/><path d="M1544.51,1336.42c.55.33-1.13,2.55-1.08,5.8,0,2.91,1.43,3.85,3.37,8.08,2.17,4.75,3.69,8.08,2.29,10.79s-5.44,3.7-7,4c-1.19.27-1.93.42-2.56,0-1.48-1-.32-3.69-.41-8.08-.13-6.4-2.74-7.93-1.34-12.14a16.37,16.37,0,0,1,2.42-4.31C1541.62,1338.59,1543.9,1336.05,1544.51,1336.42Z"/></g></g></svg>