<svg xmlns="http://www.w3.org/2000/svg" viewBox="0 0 2211.31 2353.11"><g id="Layer_2" data-name="Layer 2"><g id="India"><path d="M569.15,6.49c6.7-.51,8.46,3.76,16.16,3.69,3.53,0,4.36-.93,6,0,3.39,2,4.71,8.94,1.7,13.62-2.32,3.61-6.79,2.11-7.94,4.82-1.55,3.67,4.61,9.53,6.81,11.62,1.84,1.76,7.29,6.64,17.3,10.5,9.69,3.74,12.64,2.26,17,6.52,2.29,2.24,3.21,4.34,6.8,6.52,3.43,2.1,5.1,1.72,8.23,3.12,5.51,2.48,8.39,7.28,10.49,10.78,5.28,8.8,2.15,12.17,6.52,16.74,1.83,1.9,2.64,1.59,16.45,5.67,15.93,4.7,14.44,5,19,5.67,6.63,1,10.56.49,11.62,2.84,1.25,2.73-3.18,5.42-2.55,10.49.54,4.3,4.3,7,4.82,7.37,4.65,3.25,10.54,2,18.15.29,7.29-1.6,8.91-5,13-4s5,4.44,7.75,4c3.27-.56,3.1-5.38,7.56-7.38,2.75-1.23,3.75.18,7.57-.38,5-.72,6.4-3.57,12.48-7.37a51.34,51.34,0,0,1,13-5.67c9.05-2.45,10.64.28,17-2.65,5.35-2.45,5.82-5.1,10.21-5.48,3.85-.34,4.4,1.62,10.21,2.27,2.51.28,5.45-.07,11.34-.76,4.87-.57,7.35-.87,9.84-1.7,4.31-1.44,5.91-3.12,8.32-4.35,5.58-2.85,12.54-.83,26.47,3.21,12.48,3.63,13.82,5.79,20,5.68a10.65,10.65,0,0,1,6,1.13c3.14,1.83,3.1,4.61,6.05,9.08,2.41,3.65,3.09,2.77,7.75,8.13,4.49,5.15,6.73,7.73,7,10.59.4,4.32-2.75,5.81-5.86,13.42-1.44,3.5-2,6.31-3,11.91-2.84,15-.13,16.23-2.65,24.2C914,186.81,910.64,190.87,904,199c-5.68,6.94-8.73,10.55-13.61,11.16-4.49.56-6.86-1.88-9.64,0s-3.81,6.78-2.84,10.4c.89,3.32,2.83,3.45,2.84,5.86,0,2.86-2.73,4-6.81,9.08-3.51,4.33-2.6,4.85-4.35,6.42-7.63,6.87-27.74-.42-35.36,2.08a13.47,13.47,0,0,0-4.72,2.84c-1.07,1.05-1.89,1.86-2.08,3-.53,3.11,4.08,4.51,4,7.75-.09,2.52-2.93,2.51-4.73,6.62-1.46,3.32-.11,4.52-1.7,7-2,3.06-4.86,2.54-5.48,4.54-.78,2.52,3.4,4.61,7.37,9.83s5.44,10.49,7.18,16.64c2.5,8.82,1.16,10.66,3.79,13.05,1.84,1.68,6.29,2.46,15.12,4,5.65,1,7.81,1.11,8.7,2.83,1,2-1,3.6-2.08,8.89-.68,3.28-1.73,8.37.76,11.72,2.13,2.88,4.78,1.65,8.13,5.3a11.84,11.84,0,0,1,3.21,6c.32,2-.23,3-4.92,12.85a32.29,32.29,0,0,1-4,7c-1.77,2.25-3.2,4.07-5.48,4.54-2.93.6-4-1.69-6.81-1.33-3,.39-3.51,3.22-7.18,6.24-.95.78-6,4.77-12.48,4.35-4-.25-9.39-2.21-11.34-6.43-1.36-2.91,0-4.57-1-6.61-2.73-5.72-16.21-9-21.93-3-3.72,3.85-2.73,10.1-2.08,14.18,1.26,8,5.6,13.5,8.13,16.64,7.84,9.74,13.06,8.69,14.37,14.37,1.8,7.8-7.47,12.33-4.92,20,1.54,4.66,5.51,4.79,6.81,10.4.93,4-.83,5.2-.95,10.59-.15,7.08,2.65,15.77,6.62,16.45,2.13.36,2.82-1.88,9.26-5.86,4.79-3,7.28-4.5,9.84-4,3.47.71,3.73,4.55,8.13,11.53,3.51,5.58,7.63,9.33,15.88,16.83,4.91,4.47,7.26,6,10.4,6.43s3.91-.74,9.07-1.52,11.84-1.77,15.7,1.52,1,7.32,4.91,10.77c4.29,3.78,9.88.88,12.67,4.92,1.32,1.91.2,2.74,1.89,6.43,1.12,2.45,2.14,3.22,4.73,6.62,4.16,5.47,3.18,5.64,4.92,7.18,2.38,2.12,4.89,2.37,15.69,3.22,11.35.88,11.07.79,11.72.94,2.7.61,14.72,3.35,16.83,11.53,1.83,7.12-4.89,14.26-6.24,15.7-3.88,4.12-5.87,3.29-11.35,7.94a44.23,44.23,0,0,0-10,12.48c-5.17,9.76-1.44,12.77-6.42,19.66-4.08,5.63-7.56,5-10.78,11.54-1,2.12-3,6.27-1.89,10.77.6,2.4,1.58,2.87,1.89,4.92.62,4.09-2.45,7.66-4.73,10.4-9.89,11.85-14.82,17.85-13.61,21.36.41,1.2,3,2.69,8.13,5.68,4.88,2.82,4.83,2.28,8.88,4.72,3.13,1.88,5,3.34,10,6.24,3.1,1.81,3.64,2,4.34,2.08,4.16.54,6.16-3.15,9.84-4,3.92-.88,6.29,2.27,13.23,6.81a131.67,131.67,0,0,0,26.85,13.23c2.53.87,6.43,2.07,8.89,5.68,2.09,3.08.94,4.67,2.64,7.37,3,4.65,8.23,2.78,16.08,6.81,5.78,3,3.87,4.47,12.29,10.21,3.61,2.46,2.31,1,14.55,7.75,5.84,3.19,7.72,4.38,10.59,4,3.71-.53,4.27-3,7.94-3.4,2.88-.29,4.91,1,10,4.16,7.63,4.67,11.45,7,12.29,7.37,7.33,3.14,15,3.06,18.34,3,6.82-.06,10.72-1.38,11.92.57,1.41,2.3-3.07,5.64-1.71,9.08.69,1.73,2.43,2.41,10.22,4.72,8,2.39,12,3.59,13.42,3.79,8.34,1.19,12.14-.52,14.37,2.26,1.92,2.41.39,5.3,2.08,6.43,1.94,1.3,5.37-1.74,11-5.1,5.19-3.12,8.7-5.22,12.85-6.24,8.58-2.1,12.25,2.29,23.64,1.13a93.08,93.08,0,0,0,9.45-2.08c7.94-1.87,9.28-2.51,11.91-2.08,4.62.76,4.23,3.34,9.65,5.3,2.4.87,3.18.61,15.31.94,7.75.21,8.61.35,9.83.76.94.31,8.64,3,10.4,9.07,2,7-5.78,11.73-3.4,16.45,1.38,2.75,4.21,1.55,14.37,5.68,7.07,2.87,7.31,4.11,11.72,4.91,6.67,1.21,7.75-1.33,11.72.57s4,4.89,10,8.51c2.11,1.26,3.16,1.89,4.54,2.08,3.2.43,5.49-1.28,12.86-6.05s8.16-5,9.26-4.73c2.71.79,2.27,4.43,6.43,11.91,2.61,4.68,4.66,8.25,8.51,9.27.18,0,4.5,1.11,7.38-1.33,3.33-2.82,1.53-7.64,4-8.88,2-1,4,2,9.07,4.16,7,2.93,9.83-.33,19.67,2.45a30.78,30.78,0,0,1,7.56,3c6,3.45,5.81,6.33,9.83,7.94s8.24.23,14.94-2.08a111.71,111.71,0,0,0,12.1-5.1c3.74-1.88,4.67-2.65,6.43-2.46,3.92.41,4.17,4.73,9.07,8.13a19.86,19.86,0,0,0,15.13,2.83c5.56-1.3,6.35-4.64,11-4.34,3.76.23,4.08,2.5,8.51,2.83a16.69,16.69,0,0,0,9.27-2.27c3.42-2,3.14-3.54,6.24-4.72a13.29,13.29,0,0,1,7.56-.38c3.75.87,4,2.62,6.62,2.65,3.21,0,5.68-2.58,7.18-4.16a19.11,19.11,0,0,0,4.35-7.76,33.78,33.78,0,0,0,.38-17.39c-3-13.12-9.08-13.54-14-27-1.58-4.34-4.59-12.62-3.22-22.69,1.09-8,3.78-8.67,9.65-24.39,5.08-13.61,3.5-14.25,6.8-18.53,8.46-10.94,23-12.19,26.29-12.48,4.67-.4,8.72-.75,12.66,1.7,6,3.74,8.06,11.67,7.94,17.21-.09,4.29-1.42,4.05-3.59,14.94-1.56,7.82-1.27,10-.19,11.72,2.26,3.66,6.18,2.66,7.38,5.86,1,2.63-1.27,4.33-3.6,11.53-1.38,4.31-2.08,6.46-1.89,8.51.57,6,7.28,9.81,15.32,14.37,7.78,4.41,14.41,8.17,23.25,7.94,4.89-.12,7-1.38,13-.75,5.08.53,7.38,1.8,12.1,3.21,4.39,1.31,13.61,4.06,22.5,2.65,3.62-.57,3.07-1.18,20-9.64,12.39-6.17,15-7,18.53-7,5.83,0,6.53,2.34,15.13,4.16,6.19,1.31,10.68,1.13,19.66.76,15-.62,15.41-4.19,24.39-2.84,5.47.82,8.43,2.49,11.54.57,4.43-2.74,3.89-9.54,6.62-9.83,2.12-.23,2.86,3.84,6.61,6.23,3.48,2.23,7.28,1.57,14.56.19a57.46,57.46,0,0,0,22.88-9.64c5.66-4,6-5.85,5.86-6.81-.33-3.39-6.31-3.82-8.51-8.31-1.71-3.5,1.57-5.33,2.08-12.48.26-3.54.67-9.33-2.64-12.86-3.13-3.33-8.38-3.36-16.08-3.4-7.1,0-8.64,1.21-11.91-.38-5.15-2.51-6.88-8.33-7.18-9.46-.54-2-1.83-6.7.57-9.64,2.09-2.57,5.28-1.67,15.88-2.46,7.7-.57,11.62-.89,15.31-2.64,5.84-2.78,5.05-5.41,10.4-8.51,7.56-4.38,11.31-.38,22.12-3.78,7.29-2.3,15.51-7.23,15.13-11.54-.25-2.83-4-3.34-4.35-6.43-.33-3.29,3.65-5.86,9.45-10.21,10.64-8,16-11.94,18-15.69,3.29-6.14.94-8.88,5.67-17.21,1.81-3.19,3.37-5.86,6.43-7.94,5.22-3.54,10.11-2.17,16.45-2.83,7.75-.81,12.94-4.18,20.8-9.27,6.1-4,12.28-10.69,24.39-24,11.23-12.36,10.31-12.13,12.85-14,14.89-10.92,33.23-9.16,35.74-8.89,8.57.94,8.43,3.14,28.74,7.56,11.59,2.53,14.89,2.52,18,.76,6.25-3.59,4.3-10.35,11.35-18.91,5.12-6.22,11.27-8.86,16.63-11.15,6.69-2.86,20.83-8.92,29.88-2.27,2.8,2.06,6.64,6.46,6.05,11-.8,6.13-9.09,7.12-9.83,13.8-.42,3.78,1.72,8.09,4.35,8.7,2,.46,4.13-1.23,6.42-3,3.53-2.77,3.59-4.46,5.3-4.73,2.7-.42,4,3.55,8.88,7.76,6.59,5.69,11.92,5.11,12.29,8.13.29,2.34-2.79,3.73-8.69,8.5-8.19,6.62-15.13,12.23-14.75,18.34.22,3.6,3,7.68,6.43,8.51,5.18,1.26,7.58-5.93,18.53-8.88,3.19-.86,7.73-2,12.1,0,3.24,1.5,3.17,3.27,6.43,4.53,4,1.56,8,.41,12.48-.94,7.44-2.25,7.22-4.35,10.77-4.35,7.57,0,13.2,9.49,14.75,12.1a26.83,26.83,0,0,1,3.78,11.72,25,25,0,0,1-.19,4.92,31.68,31.68,0,0,1-4.16,11.34c-5.9,9.42-13.86,7.43-19.09,15.7-.34.53-5.25,8.53-2.65,16.26,2.53,7.53,9.81,7.73,18.53,19.85,4.81,6.69,4.07,8.68,3.78,9.27-1.65,3.33-10,4.09-15.69.75-6.31-3.71-4.56-9.68-10.4-13.42-5.36-3.44-12.06-1.76-19.85.19-3.8.94-10.2,2.88-22.32,9.83-10.29,5.9-18.69,10.71-27.79,19.47-9.7,9.34-7.27,10.72-17.77,20.42-5.3,4.89-11.47,9.67-20.23,16.45-11.06,8.56-12,8.76-13.43,11.35-4,7.24-.05,12.2,1.89,29.68,1.62,14.56,2.78,25-2.64,35.36a47.81,47.81,0,0,1-12.48,15.5c-5.85,4.25-11.22,5.39-11.92,9.65-.23,1.42.25,2,3.6,8.69,4.66,9.35,4.73,10.26,6.61,12.1,4.23,4.15,7.22,2.83,8.51,5.49,2.27,4.64-5.8,10.82-13.23,22.69-2.55,4.06-1.1,2.53-11.35,26.66-10.08,23.73-10.86,23.73-11.15,28.36-.52,8,1.34,15.52-3.22,18.91-1.74,1.29-4,1.65-6.61,2.08a30.88,30.88,0,0,1-11-.38c-15.78-2.84-14-2.84-16.26-3-11.27-1-12.34,2.82-21.75,1-1.76-.35-4.15-1-5.1.19-1.45,1.77,1.59,6.35,2.84,8.51,4.94,8.53,1.76,13.56,3.4,31,2,20.73,7.6,26.07,3,32.15-3.15,4.18-6.52,2.57-13,8.69-2.81,2.64-8.5,8-9.08,14.94-.62,7.5,5.34,9,10.4,21.93,2.81,7.19,6.26,16,2.46,22.88-2.77,5-7.09,4.79-9.45,11.16-1.67,4.49-.61,7.54-3.22,9.45-2.16,1.59-5.48,1.39-7.75.38-3.37-1.49-2.85-4-6.43-6.24-2.38-1.47-6.45-2.7-9.45-1.13s-2.94,5.2-5.3,5.67c-2.54.5-5.25-3.15-5.86-4-8-10.85.85-26.43-5.48-44.25a38.8,38.8,0,0,0-7.75-13.23c-4.3-5.26-7.19-6.54-8.89-11.35-1.52-4.31.12-5.24-.57-11.53-.74-6.84-2.76-6.41-6.43-18.53-2-6.75-3.06-10.12-3.78-14.56-.75-4.67-.51-5.84-1.7-7.18-3.8-4.31-15.7-3-21.93,3.4-2.68,2.77-3.78,8.06-5.86,18.53-2,10.26-3.07,15.38-3.6,21.55-.65,7.62-.24,10.63-2.83,13.24-3,3-8.74,4.24-12.67,2.27-2.34-1.18-2.59-2.76-9.83-11.35-1.86-2.21-2.72-3.14-3.78-3-3.25.37-3.26,10.1-5.86,10.4-2.44.28-5.66-7.89-7.38-14.37-3.05-11.48-.49-14.15-4-21.18s-7-6.33-8.7-12.29c-1.46-5.11.08-9.53,3.22-18.15,4.08-11.21,6.13-16.82,11.53-20,6.2-3.69,9.69-.07,19.29-1.89,14-2.68,23-13.58,25.14-16.26,6.75-8.26,2.43-8.92,13-32.15,3.72-8.14,6-11.87,4.73-17-1.76-7.1-8.86-11.24-12.29-13.24a35,35,0,0,0-16.64-4.72c-11.24-.15-11.79,5.73-24.39,8.13-8.66,1.64-17.16.53-32.9-1.52a42.92,42.92,0,0,0-10.78-.56c-9,.83-14.94,4.78-18.34,6.61-11.2,6-30,2.08-67.5-5.86-4.61-1-7.25-1.61-9.45-4-6.4-6.84.81-17.54-2.46-38.76a70.24,70.24,0,0,0-3.59-13.23c-1.7-4.5-5.88-15.64-10.21-15.32-2.31.17-4,3.55-5.86,7.37-2.71,5.48-1.75,7.26-3.41,9.27-4.26,5.17-19.66,4.45-27-3.59-1.58-1.73-4.71-7.71-11-19.67-1.07-2-2.82-5.41-4.92-5.29-1.83.1-3.14,2.81-4.16,4.91-2.1,4.34-.7,6.21-2.08,7.76-2.76,3.1-12.92,1.53-19.09-4.35-4.75-4.53-4.35-9-10-11.91-1.3-.68-5-2.6-7.37-1.14-3.38,2.05.14,8.06-2.27,14.94-3.29,9.4-13.15,7.51-19.1,18.91-1.13,2.17-4.28,8.2-2.07,14.56a16.23,16.23,0,0,0,7,8.31c2.87,1.6,4.66,1.28,7,1.9,9.29,2.43,7.83,14.54,16.45,18.9,8.79,4.45,18.43-4.06,23.63,1.52,2.2,2.35,1.17,4.61,4.54,7.75,2.93,2.72,5.27,2.46,7.37,5.48.45.65,2.7,3.87,1.7,6.24s-4.64,3.07-20,3.59c-12.4.42-15.55.1-17.58,2.65s-.2,4.41-1.7,12.86c-.93,5.23-1.87,10.5-5.11,11.72s-5.11-2.59-8.89-1.89c-5,.92-8,8.68-8.69,14-.08.6-1.21,11.07,6,18.34,3.65,3.66,10.3,5.26,23.44,8.32,12.18,2.83,15.35,2.72,19.29,6.24,5.46,4.88,6.67,11.61,7,13.61.2,1.19,1.65,10.82-4.15,18.53-3.94,5.23-7.34,4.43-8.51,8.51-1.48,5.12,2.11,12.49,7.37,15.69,3.21,2,5.66,1.52,7.37,4.16.44.67,1.11,2,1,7.76-.22,7.85-1.58,9-.38,11,2.34,3.89,9.87,3.8,11,3.78,3.87,0,6-1.28,6.62-.37.9,1.31-3.34,4.25-4.92,9.26-1.5,4.75.14,9.06,1.51,12.86,3.07,8.51,5.15,17.36,8.13,25.9,4.15,11.88,6.45,18.46,8.32,28,2.45,12.42,3.67,18.62,2.65,22.69-.67,2.67-2.45,8,0,10.4,1.18,1.17,2.31.65,3.78,1.7,3.34,2.4,4.68,10.25.57,14.56-3.48,3.64-9.36,3.21-12.86,1.52-4.24-2.06-5-6-7-5.68-3.26.52-2.72,11.38-5.29,11.73-3.32.44-9.15-17.06-9.83-19.1-1.34-4-2.31-7.67-3-7.56s-.51,2.57-.94,8.69c-.37,5.28-.56,7.92-1,9.46-.5,2-2.46,9.74-7.56,11.34-4,1.24-6.38-2.3-10.21-.57-3,1.35-2.58,4-5.11,4.54-3.28.74-7.5-2.91-9.45-6.61-1.41-2.68-.75-3.72-1.89-4.92-2.85-3-9.93.38-17.21,2.46-12.72,3.63-13.8-.22-30.44,2.83a103.42,103.42,0,0,0-21.74,6.43c-11.18,4.83-19.79,8.67-25.53,18-5.31,8.62-9.09,23.5-2.83,33.66,4.34,7,12.39,10,13.8,19.29.46,3-.11,4.61-.57,5.48-2.33,4.44-8.09,2.8-13.61,6-7.42,4.36-3.43,11.1-12.1,20.61-5.52,6.05-9.38,5.77-12.48,12.1-2.28,4.64-1.17,6.78-2.65,11.15-.64,1.93-3.38,9-17.39,16.08-15,7.58-25.82,6.49-37.25,8.88-14.73,3.08-24.39,11.17-43.11,27.23-36.38,31.21-65.47,72.19-77.52,90l-21.18,17.77a100.89,100.89,0,0,0-21.36,11c-8.59,5.8-13.93,11.37-22.31,20.23-19.66,20.76-18.78,25.65-29.31,30.44-3.17,1.45-4.48,1.56-20.61,7.94-6.61,2.62-10,4-12.29,5.11-12.71,6.33-18.47,12.88-20,14.75-3.13,3.71-5.13,6.16-5.67,10-1,7.18,3.9,13.26,4.35,13.8,3.34,4,5.92,3.64,6.42,6,.74,3.49-4.08,7.24-14.37,14.75-11.4,8.32-17.1,12.48-18,12.85-5,2.21-8.91,2.7-42.73,3.79-10.32.33-14.25.42-17,3.59-4.8,5.49.67,12.48-4.53,21.17-3.89,6.5-8.43,5.11-11.73,12.11-3.07,6.53-.34,10.35-3.78,13.61-4,3.8-12.6,3.25-14.94-.38s2.53-8.49.38-11.15c-1.21-1.51-4.32-1.9-15.31,1.7-13.87,4.53-20.8,6.8-25.72,12.1-6,6.42-1.92,12.55-9.07,21-3.54,4.17-4.62,3.18-7,6.61-3.88,5.61-2.25,10-2.27,26.1,0,15.46-1.53,17.76,1.14,23.06,3.5,7,7.54,5.84,9.26,11.91,1.12,3.95-.62,10.13-4.16,22.32-2.43,8.39-2.47,7.31-2.64,8.88-1,8.77,3.67,11.75,7.18,25.72,1.77,7,.72,6.78,2.65,13.8,2.3,8.37,4.84,12.49,7,17.77a69.9,69.9,0,0,1,4.92,26.47c.05,12.68-3.78,11.89-9.83,40.28-1.53,7.16-2.07,10.92-4.92,16.07-3.95,7.15-9,7.9-15.88,16.07a62.86,62.86,0,0,0-8.51,13.42,80,80,0,0,0-7.75,32c-.25,6.61.34,11.39,2.08,22.5,4.8,30.59,7.29,38.62,9.07,55.77,2.16,20.64,3.13,31-1.89,35.36-10.24,8.81-30.39-6.73-44,4.35-2.34,1.9-1,1.77-8.13,13.61-8.53,14.23-13.78,23-21.93,32.71-5.92,7.07-9.76,10.35-9.65,16.08a15.3,15.3,0,0,0,5.49,11.34c8.85,7,21.78-1.64,30.63,5.86,2.29,1.95,2.13,3.13,2.08,3.4-.44,2.2-5.48,3.15-14,3.79-17.12,1.28-19.3-.83-28.74.56-3,.45-9.39,2.76-22.12,7.38-11.49,4.17-17.32,6.3-21,8.69-5,3.24-13.28,8.67-16.64,18.16-3.79,10.7,3,14.41-.38,24-2.52,7.06-10.25,11.83-25.72,21.36-8.07,5-12.11,7.47-18.15,9.46-5.14,1.69-15.24,5-27,2.46-10.87-2.36-17.76-8.54-25.34-15.51s-8.07-9.48-20.23-25.15c-17.24-22.21-21-23.32-27.23-35.73-4.45-8.86-6.72-16.61-8.89-24a187.3,187.3,0,0,1-6.42-30.82c-1.8-14.92-.53-20.18-4.35-31.2a72.9,72.9,0,0,0-6.43-13.61c-13.69-23.52-16.77-46-30.06-74.5-1.72-3.69-2-4-33.28-52.18-34.73-53.49-35.58-54.93-37.44-59.75-11.54-30-2-34.78-16.26-80.74-5.67-18.21-12.34-34.06-15.69-42-5.94-14-9.52-22.38-16.07-33.09-8.65-14.14-11.12-13.82-18-25.34-9.62-16.21-6.2-19.32-15.88-41-8-17.86-11.06-17.47-22.88-41.78-6-12.32-9.44-19.42-12.85-30.07-1.54-4.79-4.09-13.48-9.46-48.4-3.75-24.42-2.43-19.7-4-27.41-2.61-13.11-9.15-40.47-16.64-59.19-2.32-5.8-4.29-9.68-4.35-15.88-.05-5.77,1.61-9.06-.56-13.23s-5-3.13-7-7c-2.88-5.51,2.06-9.1-.19-16.64-1.57-5.28-4.91-6.6-4-9.45s5-2.62,7.75-6.24c1.89-2.51,3.28-6.47,1.89-9.27-1.25-2.53-3.92-2.4-6.42-4-5.83-3.64-4.6-12.61-6.24-22.87-2.2-13.75-6.72-12.13-10.4-27.8a72.18,72.18,0,0,1-1.7-27.6c1.11-7.64,4.47-15.22,11.15-30.07,8.71-19.36,10.92-20.62,10.21-26.28-1-8-6.75-16.23-12.29-24.2-3.52-5.06-5.69-7.23-6.43-11.72-.65-4,.35-6.34,3.78-16.26,6.32-18.26,6.54-20.59,5.49-23.26-1.74-4.42-7.08-10.07-7.75-10.78-2.72-2.87-4.46-4-4.54-6.24s1.71-3.15,4.72-8.13c1.42-2.33,4.06-6.7,3-7.75-.55-.56-2,0-7.94,3-8.87,4.59-10,5.71-11.35,5.1-3.27-1.45-4.32-11.16,0-15.88,3.25-3.55,8-2.56,9.08-5.86.93-2.77-1.57-5.88-2.46-7-3.19-4-7.9-4.84-10.4-5.29-2.75-.5-9.84-1.78-12.85,1.89-2,2.46-.12,4.59-.95,10.21-1.33,9-7.2,10.62-6.05,15.31.69,2.8,2.91,2.77,12.48,10,4.89,3.7,7.35,5.6,8.13,7.56.57,1.44,1.67,5.29-4.92,17.39-5.16,9.5-7.74,14.24-12.48,18-8.15,6.41-13,3.58-27.79,10.58-9.38,4.43-6.74,5.23-14.94,8.89-15,6.72-22.12,3.21-33.84,11.16-5.71,3.86-4.91,5.3-9.08,7.18-8.82,4-19.63.86-32.52-6.05-12.65-6.78-29-18.15-58.42-52.18-17.38-20.14-14-18.89-22.31-26.66-15.24-14.24-28.93-20.62-37.06-37.06-2.17-4.38-4.75-11.11-2.27-17.4.38-1,2.37-6,6.43-6.62,3.55-.5,7.43,2.62,8.69,5.87.86,2.18.12,3.38,1.33,4.72,1.89,2.11,5.77,1.49,6.8,1.33,3.61-.58,4.28-2.21,10.21-5.3,3.48-1.8,5.21-2.7,7.57-3a15.74,15.74,0,0,1,10,1.89c2.19,1.32,1.87,2,3.21,2.46,4,1.4,7.51-4.24,14.75-8,6.37-3.26,7.53-.87,16.07-4,6.33-2.29,10.35-5.28,15.7-9.26,12.52-9.33,14.73-15.91,15.31-18s.59-3.3.19-4.35c-2.32-6.08-17.59-7.74-21.74-2.27-1.6,2.11-.18,3.46-1.89,5.67-3.2,4.1-11.51,3.79-16.64,3.59-2.63-.1-4.5-.39-7,.57a13.64,13.64,0,0,0-5.48,4.16c-7.31,7.89-31.68,0-33.28-.57-4.74-1.58-10.08-3.87-20.8-10.59-10-6.28-41.65-26.42-45.19-45.18a16.26,16.26,0,0,1,.76-9.84c1.77-3.93,4.72-5.17,9.64-8.88,5.3-4,14.27-11.89,13-14.18-.93-1.75-8-.71-13.62,2.27-4.86,2.58-5.65,5-13.61,11-6.6,4.9-8.19,4.79-9.07,4.54C1.25,1060.05-.24,1053,0,1048.3c.09-1.54.43-7.54,4.92-11.53,3.63-3.23,10.41-3.71,23.82-4.54,7.08-.44,9-.26,10.78-2.08,3.22-3.36.51-8.09,4.35-14.18a15.38,15.38,0,0,1,5.67-5.48c5.1-2.68,9.6-.4,18,.94,6.71,1.08,12,.85,22.5.38,10.78-.47,14.09-1.68,19.66.57,4.7,1.89,4,3.42,9.46,6.24,1.5.78,11.1,5.62,22.31,3.59,3.6-.65,7.57-2.77,15.5-7,8.18-4.35,10.89-6.68,18-9.26,5.53-2,10.67-3.82,13.23-1.51s-.28,6.76,2.65,10.59c2.81,3.66,8.56,3.61,11.72,3.59a24.64,24.64,0,0,0,15.13-5.67,26.14,26.14,0,0,0,6.61-8.32c4.6-8.68,3.6-17.27,3.22-20.23-.51-3.95-1.6-7.5-9.83-22.13-10.7-19-14.18-22.45-15.32-31a67.11,67.11,0,0,1-.57-14c.72-7.15,2.5-8.94,1.14-11-2.66-3.93-10.67,1-24.2-2.08-9.94-2.27-13-6.6-13.62-7.57-1.1-1.67-2.1-4-2.45-8.69-.56-7.34,1.15-11.26,3.78-21.94,3.51-14.3,3.74-20.68,1.32-26.28a8.76,8.76,0,0,0-2.27-3.59c-4.74-4.1-12.15,1.1-18.15-2.84-2.19-1.44-1.17-2.11-3.78-4.53-6.08-5.64-12.45-2.74-20.23-7.19a20.14,20.14,0,0,1-7.75-7.37c-6-11,2-31.3,14.93-36.87,8.25-3.55,15.27.28,18.91-4.73,2.89-4-.25-8.14,1.7-14.37,2.21-7,8.91-5.33,14.56-13.42,4.12-5.9,1.54-7.47,5.48-12.67,6.31-8.33,17.1-9.85,21-10.4,4.28-.6,7.88-1.11,11.72.76,5,2.43,7.91,7.69,9.08,9.83,2,3.63,1.8,5.12,4.16,7.94a18.12,18.12,0,0,0,6.43,4.91c5.27,2.19,10.61.13,14.75-1.32,8-2.8,16.44-4.22,24.58-6.62,17.7-5.21,19.1-1.37,29.3-5.1,18.81-6.87,36.14-28,42.92-48.59,2.51-7.61,3.8-15.83,10.78-19.48,5.62-2.94,9.38,0,18.53-1.51,11.4-1.86,19.13-8.6,22.5-11.54,2.77-2.41,7.15-6.8,16.83-28.17,3.68-8.14,10.36-23.64,19.28-41.22,3-5.85,5.79-11.13,11.54-13.42,2.8-1.12,7.83-1,17.77-.76,9.18.24,13,.71,14.94-1.89A7.67,7.67,0,0,0,468,559c-.79-2.31-2.3-2.54-4.16-5.67a16.5,16.5,0,0,1-2.08-5.48c-.33-2.14-.12-5,2.65-10a41.64,41.64,0,0,1,9.27-11.35c19.72-16,29.15-18.17,36.49-29.87,2.2-3.51,5.5-8.77,6.05-16.07.62-8.27-2.92-10.71-1.52-19.86a17.58,17.58,0,0,0-.18-8.69c-.93-2.9-2.14-3.49-3.22-5.86-2.57-5.7,0-12.12.57-13.43.94-2.18,2.56-4.54,14-11.34,13.51-8.05,20.27-12.08,27-12.48,2.86-.17,5.25.08,8.13-1.51,6-3.33,7.48-10.72,7.75-12.11.37-1.9,1.59-8.11-1.32-10.21-2.41-1.73-5.81.69-7.57-1.32-1.22-1.39-.18-3.23-1.89-5.48a8,8,0,0,0-2.27-1.89c-4.68-2.67-18.62-.87-28.55-2.65-2.65-.48-11.77-2.24-18-9.64-.51-.62-6.92-8.44-4.54-12.86.75-1.38,2.35-2.42,3.22-5.29.36-1.19.86-2.84.19-3.41-1.33-1.13-5.16,3.74-11.35,4.54-3,.38-5.2-.33-7.75-1.13-8.32-2.63-8.82-7.07-16.83-10.4-4.76-2-4.93-.57-11.72-2.84-4.32-1.45-9.93-3.32-13.42-6.62-4.61-4.33-4.36-10-4-37.43.23-16.69.2-19.1-.19-23.26-.78-8.11-1.46-15.28-4.54-24-4.42-12.52-9.28-15.57-9.08-24.2.07-2.92-.06-10.92,4.73-14s10.81,1,14.75-2.45c2.43-2.17.58-4.34,2.46-7.76,4.09-7.46,15.67-3.14,23.63-11.34,3-3.06,4.09-6.48,5.67-11.35,2-6.16,3.67-11.27,1.14-15.5-3.35-5.57-12.43-5.64-14.37-5.67-7.41-.11-9.75,3.29-13.43,1.32-4.13-2.21-6.1-9.12-4-12.48.63-1,1.09-.86,2.65-2.27,2.14-1.94,5.55-6.08,4.73-8.5-.67-2-3.93-2.25-13.81-3.22-15.56-1.52-16.61-1.7-18.34-2.65-6-3.27-5.35-7.69-11.53-13.61-3.86-3.7-10.08-9.36-17.21-8.7-4.84.45-5.64,3.43-13.23,4.73-3.71.64-6.8,1.17-9.83-.38-5-2.53-6.24-8.85-7-12.67a23.59,23.59,0,0,1,1-14.37c2.31-5.47,5.72-5.09,14.74-12.85,4.44-3.82,9.55-8.22,13.81-15.13,4.87-7.92,3.15-10.26,7-13.42,4.91-4.05,8.53-.89,21.93-3,12.05-1.92,13.3-5.14,22.13-4.54,6.6.45,12,2.67,12.48,1.52.33-.79-2-2.13-5.68-5.68-4.42-4.29-7.68-7.45-7-9.26,1.19-3.12,14.69-3.62,25.14,2.08,3.37,1.84,4.77,3.42,8.51,4.16,2.56.51,6.48.67,14-2.27,4.88-1.91,6.89-3.41,14.19-7.75C524.9.3,528.47-.27,531.71.07a27.91,27.91,0,0,1,9.64,3c4.68,2.45,4.72,4.2,8.51,5.48,4,1.37,7.86.69,11.73,0C566.73,7.66,566,6.74,569.15,6.49Z"/><path d="M2143,2305.85c-.52,0-6.76-.51-7.95,2.83a4.74,4.74,0,0,0,2.08,5.3c3.76,1.94,10.77-4.28,10-6.62C2146.8,2306.17,2144.4,2306,2143,2305.85Z"/><path d="M2149.26,2323.05c-1.27,3.4-3.78,3.48-4.54,5.48-1.31,3.43,5.11,5.48,9.07,14.56,1.5,3.44,2.77,5.07,5.3,8.32.88,1.13,1.39,1.69,2.08,1.7,2.31,0,4.54-6.07,5.29-10.58.27-1.61,2.25-14.63-5.67-20.61-3.49-2.63-8.88-3.89-10.59-2.08C2149.51,2320.57,2149.92,2321.27,2149.26,2323.05Z"/><path d="M2076.65,2235.7c-1.61,1.39-.65,6.39,2.46,8.7,3.28,2.43,8.65,1.64,9.45-.38s-2.84-5.19-5.1-6.62C2082.9,2237.05,2078.38,2234.2,2076.65,2235.7Z"/><path d="M2113.9,2246.85c.22,7.37-1.44,10-3.22,11s-3.17,0-4.91,1.32a6.66,6.66,0,0,0-1.89,7.57c1.63,3.65,7.12,4.41,10.4,2.83,2.49-1.2,3.45-4.09,5.29-9.83,2-6.41,3.43-10.72,1.32-12.67C2120.52,2246.7,2118.77,2245.25,2113.9,2246.85Z"/><path d="M2041.48,2167.25a4.89,4.89,0,0,0-.38,7,4.94,4.94,0,0,0,7-.19,4.8,4.8,0,0,0,.76-5.48A5,5,0,0,0,2041.48,2167.25Z"/><path d="M2002.53,2034.33c-5.31.86-8.91,6.44-9.26,11.35-.4,5.57,3.46,9.47,6.8,12.85.65.66,8.45,8.43,11.73,6.43,2-1.23,0-4.76,0-16.45,0-6.74.69-9.55-1.52-11.91C2007.49,2033.6,2002.79,2034.29,2002.53,2034.33Z"/><path d="M2010.47,1983.66a8.3,8.3,0,0,0,7.94-.38c5.22-3.37,4.48-13.18,3.41-25.71-1.19-13.83-3.57-17.22-1.51-25.72.11-.47,1.27-3.91,3.59-10.77,5-14.7,5.06-14.71,5.29-16.07.85-4.87-.38-10.62-2.83-22.13-2.66-12.47-4.26-15-2.84-20.23,1.33-4.9,3.35-5,5.29-11,1.5-4.62,1.17-7.23,1.14-16.64-.06-18,1.12-21.14-1.7-23.26-3.28-2.46-9.34-1.55-12.1,1.51-1.66,1.84-1.81,4.11-1.89,7.76-.37,16.63,1.58,22.09-1.71,28.55a25.3,25.3,0,0,1-4,5.67c-4,4-6.7,3.47-7.56,5.86-1.17,3.24,3.29,5.77,6.24,13.42.66,1.72,1,2.92,2.08,9.65,4,23.6,3.44,26.85,1.89,29.87-2.28,4.45-4.08,3.12-6.24,7.56-3.47,7.15.8,11.33,1.32,24,.44,10.49-2.3,12.13-1.13,24.39C2006.08,1979.49,2008.08,1982.43,2010.47,1983.66Z"/><path d="M2043.37,1924.29c-2.55,3-5.89,2.51-6.24,4.35-.55,2.89,7.47,5,7.38,8.89-.06,2.18-2.92,4.44-5.86,4.53-3.76.13-6-4.16-6.62-5.29-3.81-7-.9-18,5.67-21.55,1.87-1,5.14-2,6.81-.57C2046.53,1916.38,2045.84,1921.37,2043.37,1924.29Z"/></g></g></svg>