<svg xmlns="http://www.w3.org/2000/svg" viewBox="0 0 2412.63 877.38"><g id="Layer_2" data-name="Layer 2"><g id="Indonesia"><path d="M2119.75,332.53c4.37-.08,6.56-.12,8.87,1.18,2.59,1.47,3.4,3.48,4.88,3.11,1-.25,1-1.27,2.21-1.78,1.49-.63,3.22.22,4.44.89,5.56,3.09,9.69,5.38,12.56,10.64,1.79,3.29,2.05,5.85,4.28,6.5,1.12.33,1.82-.09,4.43.3,2,.29,3.39.5,3.7,1.33.54,1.43-2.59,3.75-3.1,4.14-1.31,1-3.39,2.51-6.06,2.36-3.17-.18-3.59-2.54-6.65-2.51-2.3,0-2.66,1.36-5,1.18a6.72,6.72,0,0,1-4.58-2.36c-1-1.34-.37-2-.88-5.77-.34-2.47-1.07-4.3-2.52-8-.42-1.08-.83-2-1.47-2.07-1-.1-1.4,2.18-3,2.66s-2.37-1.15-5.47-3c-4-2.31-5.54-1.49-7.83-3.84-1.12-1.15-2.55-3.2-1.92-4.29C2116.91,332.83,2117.49,332.58,2119.75,332.53Z"/><path d="M2087.69,347.9c1.86.14,3,1.74,4.73,4.29,1.63,2.35,2.55,3.68,2.06,4.58-.85,1.57-5.94,1.55-8.71-1.19-1.21-1.18-2.85-3.74-1.78-5.76A4,4,0,0,1,2087.69,347.9Z"/><path d="M2119.75,382.63c.34-.95,7,2.24,18.18,2.95,7,.45,14.46-.15,21.13.59,3.39.38,6.65,1,6.65,1,2.19.44,3.29.8,4.43,1,2.53.52,4.5.65,11.82.74,7.75.1,10.19,0,11.09,1.63a2.64,2.64,0,0,1,0,2.66c-1.33,1.77-5.61-.64-8.13,1.47-.92.78-.45,1.21-1.33,2.22-3,3.42-10.82,1.59-12.56,1.18a20.58,20.58,0,0,0-5.17-.88,19.23,19.23,0,0,0-4.14.44c-3.53.54-6.55-.83-11.38-3.1-6.42-3-5.33-3.83-9.16-5.18-5.34-1.87-6.9-.09-12.86-1.92C2123.64,386.06,2119.48,383.39,2119.75,382.63Z"/><path d="M2284.37,738.16c-.13-1.54,4.33-1.64,7.39-5.47,1.24-1.55,1.49-2.77,2.95-3.25a4.81,4.81,0,0,1,3.7.6c1.15.68,1.48,1.48,3.54,5.61,1.78,3.56,2,3.93,1.78,4.43-.42.87-1.6.8-8.43.89-3.5,0-6.17.1-9.16-1.33C2284.57,738.89,2284.39,738.44,2284.37,738.16Z"/><path d="M2282.15,737.72a12.21,12.21,0,0,0-2.21.74,12.56,12.56,0,0,0-3.25,2.07c-3.61,3-17.74-2.61-28.23.74a25.11,25.11,0,0,1-8,1.33c-3,0-4.48,0-5.32-.89s-2-3.65,11.08-25.12c7.65-12.51,10.29-15.22,12.71-17.29a43.21,43.21,0,0,1,14.19-8.13,33.36,33.36,0,0,1,15.07-1.92c4,.48,8.77,1,12.41,4.14,1.38,1.17,2.69,2.78,5.32,3.54,2.19.64,3.71.24,4.29,1.19.73,1.19-.77,3.3-1.63,4.58-2.92,4.35-4.52,9.46-7.09,14-5.78,10.31-5.16,9.55-5.76,10.34C2290.58,733.8,2284.51,737.14,2282.15,737.72Z"/><path d="M2305.65,713.93c-2.17,4.83-1.56,6.87-4,9.9-1.76,2.19-2.7,1.89-3.25,3.4-1.7,4.62,5.63,11.69,6.65,11.08.53-.32-1.22-2.38-.45-5,.87-3,4.49-5.2,7.84-5.47,2.12-.17,4.61.82,9.6,2.81,3.4,1.35,3.61,1.7,4.73,1.62,3.33-.23,4-3.5,7.83-4.28,2.25-.46,2.55.55,5.62.59,3.9,0,5.09-1.6,9.31-2.81,4.89-1.41,11.87-1.67,13.3,1,.82,1.57-1,2.64-.6,5.62.5,3.62,3.73,6,5.77,7.54,3.5,2.6,5.22,2.43,8.42,4.13,4.62,2.46,7.17,6.32,12.27,14,4.05,6.14,3.72,7.1,7.38,11.68,4.26,5.31,7.32,7.28,9.76,8.42a22.39,22.39,0,0,0,6.79,1.92l-1-117.33c-1.32-.4-5.13-1.74-6.5-5.17-.62-1.56-.43-3.08,0-6.06.56-3.94,1-7.11,3-10.64,1.34-2.43,2.75-3.87,3.4-7.09a15.15,15.15,0,0,0,.3-2.66V436.86l-14.93-.3c.36-1.86.51-4.28-.88-5.76s-3.2-1-5.91-1.77c-4.39-1.2-4.51-4.46-7.25-4.44-2.11,0-2.24,1.71-5.46,2.37a7.88,7.88,0,0,1-5.47-.45c-2.34-1.32-2-3.51-4.29-4.43-.55-.22-1.21-.35-3.84,0-3.4.45-4.49.95-6.65,1.33a21,21,0,0,1-10.49-.59,18.27,18.27,0,0,1-3.69-1.77l-39.16-19.21a50.23,50.23,0,0,1-5.17-1.78,20.15,20.15,0,0,1-3.4-1.62c-1.64-1.05-1.79-1.62-3.25-2.81a20.11,20.11,0,0,0-5.92-3.1c-1-.38-1.11-.38-4.87-1.48-5-1.47-5.31-1.62-7.54-2.22-4.6-1.22-4.16-.76-6.35-1.47-5.93-1.94-5.13-4-10.49-5.62-1.31-.4-5.86-1.64-6.51-3.4a4.26,4.26,0,0,0-.73-1.33,5.23,5.23,0,0,0-1.48-1.18c-2.05-1.05-5.62.59-5.62.59-3.22,1.48-16.67,7.8-35,16.7a33.18,33.18,0,0,1,3.84,6.06c1.42,2.9,1.47,4.1,1.33,5a6,6,0,0,1-1.62,3.25c-1.67,1.65-3.41,1.17-8.72,2.07a25.55,25.55,0,0,0-6.5,1.63c-3.08,1.33-2.89,2.25-5.91,3.69-1.71.81-5,2.37-8.57,1.63-2.7-.57-2.88-1.87-5.32-2.22-3.74-.54-7,2-7.24,2.22-4.58,3.69-1.38,8.41-6.21,15.22a26.13,26.13,0,0,1-7.24,6.65c-3.13,1.9-3.59,1.19-5.47,2.66-3.42,2.66-2.54,5.49-6.21,12.26-2.18,4-3.27,6.05-5.46,7.39-2,1.2-3.95,1.5-8,4a17.07,17.07,0,0,0-2.22,1.48c-3.24,2.9-2.3,6.25-4.88,8.42-.67.57-2,.87-4.72,1.48a31.23,31.23,0,0,1-10.64,1c-2.34-.26-2.19-.64-7.1-2.07-8.63-2.5-10.89-1.84-12.85-4.28s-1.91-5.5-1.92-6.8c0-2.44.67-3.48.88-7.68.14-2.74,0-4.41-.29-4.44s-.27,3.87-2.22,4.73c-1.17.52-2.85-.16-3.84-1.18-1.9-2-.29-4.2-.74-9.61-.56-6.67-3.38-7.74-3.25-12.7a4.09,4.09,0,0,0-.89-3.11,3.86,3.86,0,0,0-3-.74c-1.51.11-3.79.87-4.73,2.66-.81,1.55-.11,3.87,1.33,8.43,1.06,3.38,1.79,4.8,1,6.2-.49.92-1.69,2-2.81,1.78-2.2-.37-1.92-5.16-5.32-13.16a33,33,0,0,0-3.39-6.64c-3.43-5-6.06-5.31-7.1-9.17-.69-2.56.34-2.9-.59-6.35-.77-2.87-1.78-3.72-1.77-5.91,0-1.6.54-2.76,1.77-5,3.36-6.17,5.89-9.51,5.47-9.9-.57-.53-5.51,5.61-8,4.44-1.87-.89-1.77-5.72-.74-9,.55-1.75,1.45-3.14,3.25-5.91,2.9-4.46,3.69-4.49,4.14-6.35.48-2-.26-4.08-1.77-8.13a46.42,46.42,0,0,0-4.14-8.87c-2.82-4.55-4.94-6-4.29-8,.45-1.34,1.74-1.46,2.81-3.84a6,6,0,0,0,.74-3.1c-.28-3.18-4.23-5-4.88-5.32a12.65,12.65,0,0,0-6.65-1c-5.06.49-13.49.36-26.3-.45-4.35-6.19-8.55-8.36-11.67-9.16-1.87-.48-2.79-.32-5.32-1.18-4.08-1.38-5.59-3.11-9.31-5.17a37,37,0,0,0-8.57-3.4c-7.09-1.95-13.08-1.2-17.59-.59-5.35.72-8.57,1.15-12.26,3.4a32.2,32.2,0,0,0-8.13,7.68c-4.2,5.08-3.59,6.36-6.21,8.27-2.86,2.1-6.33,2.22-13.15,2.37-9.18.2-12.76-1.26-16.25,1.48a7,7,0,0,0-2.81,4.28c-.3,2.1,1,2.88,1.33,4.88.89,5.05-5.43,10.44-7.39,12.12-3.14,2.68-4.45,2.59-6.8,5.46-1.58,1.94-3.65,4.47-3,6.65.93,2.94,6.31,3.43,12.41,4,3.37.31,4.61,0,5.62-.59,2.35-1.38,2.72-3.91,4.13-3.84s1.38,2.43,3.4,3.25,2.93-.91,5.47-.74c2.69.19,2.79,2.17,6.94,4.29a30.11,30.11,0,0,0,7.25,2.36c3.36.74,5.46.72,5.76,1.77.34,1.22-2.06,2.53-1.63,3.4.25.51,1.2.36,4.14.59s3,.46,3.1.6c.6,1.13-3.57,2.92-4.72,6.5-1.3,4,1.57,9.05,4.43,11.82,4.14,4,7.81,2.76,10.93,7.24,1.89,2.71,1.26,4.19,2.81,4.88,3.74,1.66,9.16-6.19,13.15-4.29,1,.49,1.72,1.5,4.29,2.66a20.31,20.31,0,0,0,2.36.89c5.49,1.58,11.85-3.83,14-1.78.83.79.29,1.92,1.18,2.37,1.2.59,2.79-1.15,5.62-2.66a25.19,25.19,0,0,1,5.91-2.07c2.63-.72,4.39-.64,18,.44,4.84.39,7.28.59,9.16-1,1-.82,1.66-2,3.4-2.51,1.49-.42,3.38-.21,3.69.59.37,1-1.94,1.79-2.36,4.28-.17,1-.09,2.63.88,3.4,1.13.89,2.74.05,3.11.74.21.39-.24.83-1.19,2.51-1.2,2.14-.88,2.14-1.47,2.81-1.26,1.42-2.49,1.16-3,2.36-.34.88.22,1.24,0,2.07-.36,1.39-2.23,1.73-5.61,3-4.84,1.76-5.16,2.57-6.65,2.21-2.52-.59-3.24-3.28-4.44-2.95-1.57.44-1.08,5.34-2.07,5.47-.45,0-.9-1-2.95-5.32-1.44-3.07-1.57-3.31-1.92-3.7a8.41,8.41,0,0,0-7.24-2.21c-1.91.3-3,1.2-7.54,5.61-5,4.95-7.56,7.43-9,9-4.38,4.76-5.74,6.74-7.24,6.35-1.75-.45-1.09-3.39-3.55-5.62-1.64-1.47-3.13-1.26-10.2-1.77-6.8-.49-7.78-.86-11.82-.74-5.69.17-7.49,1-8.72,2.22a9.66,9.66,0,0,0-2.21,3.84c-.59,1.7-1.39,4-.45,5.47,1.34,2.06,4.81.23,11.23,1.62a21.37,21.37,0,0,1,7.84,3.11c4.17,2.83,3.56,5,7.68,7.09,2.34,1.19,4.13,1.3,5,3.1a25.93,25.93,0,0,1,.89,3.85c.48,2.37.49,2.72.89,3.25a3.93,3.93,0,0,0,4,1.47c2-.65,2.27-3.66,3-3.54s.12,2.31,1,5.32a25.6,25.6,0,0,0,3.4,6.5c1,1.6,1.25,1.63,1.47,2.36.79,2.54-.38,6-2.36,6.65-1.75.59-3.1-1.35-4.14-.74-1.48.88-.15,5.67.59,8.28,1.64,5.74,2.84,10,6.8,13.15a10.49,10.49,0,0,0,6.5,2.66,11.9,11.9,0,0,0,3.4-.74c5.22-1.38,6.22.06,9.16-1,3.67-1.36,5.52-4.86,7.1-7.83,1.19-2.25,2.13-4,1.62-6.06-.58-2.34-2.57-2.9-2.36-4.44s2.5-1.42,5-3.84c.49-.47,4-3.84,3.84-8,0-1.43-.53-2.73.3-3.84a4,4,0,0,1,2.07-1.18c3.7-1.67,2-12.65,2.51-12.71s3.49,7.37,1.18,14a11.11,11.11,0,0,0-.88,4.14,12.22,12.22,0,0,0,2.21,6.5c1.2,2,4,5.87,5.32,5.32,1.47-.63.27-6.78.44-6.8s.59,7.12,2.37,7.39c1.16.17,2.38-2.63,3-2.37s-.62,2.37.15,4.88c.11.35.79,2.55,2.37,3,.75.19,1.54-.17,3.1-.89,2.17-1,2.75-1.73,3.55-1.48.25.08.8.35,1.33,1.92,1.27,3.84-.72,6.16.59,7.54.32.34,1.69.52,4.43.89,1.61.21,2,.18,2.36,0,1.16-.54,1.06-1.7,2.22-3.11.39-.47,1.85-2.24,3.25-2.07,1.85.24,1.72,3.63,5.17,6.36,1,.76,1.65,1.28,2.52,1.18,1.69-.2,1.81-2.54,4.28-3.84a4.68,4.68,0,0,1,3.84-.45,4.2,4.2,0,0,1,2.37,4.44c-.45,1.93-2.72,2.2-2.81,3.69s2.14,2.8,3,3.25a266.42,266.42,0,0,0,24.38,12.42c4,1.75,7,3.18,11.38,3.1,3.05-.06,3-.78,6.2-1,7.12-.56,8.65,2.9,16.41,3.11,4.58.12,5.52-1,8.57,0,3.78,1.29,3.32,4.17,6.94,5.76,4.1,1.8,6.07-.92,10.49.89,2.89,1.18,2.33,2.45,6.36,5.32,2,1.45,4.93,2.61,10.64,4.87,5.54,2.2,8.34,3.3,9.9,3.25,4-.11,7.42-2.11,8.72-.59.67.79.11,1.74.88,2.37,1.23,1,3.23-.89,5.32-.3s1.6,3.63,3.25,4c1.37.3,2-1.52,4-1.62.55,0,1.56.06,4.14,2.21,3.35,2.81,3.09,3.88,5.47,5.62a18.74,18.74,0,0,0,6.06,2.66c3.48,1.08,4.55.71,6.35,2.07a11.75,11.75,0,0,1,3,3.54c1.36,2.38.76,3,1.77,4,1.62,1.54,3.38.11,6.8,1.48a13.41,13.41,0,0,1,4.13,2.81c2.66,2.41,3.32,4.48,4,4.28,1.07-.31.21-5.73.45-5.76s1.52,4,1.62,9.46c.09,4.6-.72,7.33.74,8.27,1.3.84,2.87-.71,4.29.3s.45,3.07,1.92,4.28,3.53-.12,4.58,1c.88,1-.08,2.51-.15,4.73-.09,2.7,1.23,3.84,3.1,7.53,2.78,5.5,1.46,6.13,4.44,12.27a29.28,29.28,0,0,0,4,6.65c2,2.42,3,2.64,6.5,6.35,4,4.24,4.4,5.64,4.14,6.65-.41,1.58-2.2,1.91-2.07,3.11.09.85,1.34,1.46,3.84,2.66a55.38,55.38,0,0,0,5.31,2.14c1.42.49,3,1,3,1l.67.2a30.23,30.23,0,0,1,6.71,2.46c1.51.87,3.13,2.2,3,2.51s-2.92-1.28-7.39-2.51c-5.43-1.5-6.84-.53-10.49-2.37-2.6-1.31-4.46-3.1-4.58-3s4.3,4.1,3.84,4.73c-.29.4-2.14-1.06-4.58-.45a4.22,4.22,0,0,0-1.63.74c-1.73,1.4-1.82,4.81-.88,7,.78,1.8,2.17,2.41,11.67,5.91,8.67,3.19,10.22,3.67,11.82,4.14,4.62,1.32,6.84,1.63,6.8,1.92-.07.53-8.12,1.29-14.48-1.18a24.56,24.56,0,0,0-6.06-1.48c-3.22-.52-3.79-.17-4,.15-.56.91,1.13,2.9,1.92,3.84,2.53,3,3.8,2.66,6.36,5.17,2.87,2.82,2.16,4.09,5.17,6.35a22.9,22.9,0,0,0,4.28,2.52c2.34,1,2.88.65,3.4,1.33s1,2-3.84,10.78C2306.48,712.67,2306.56,711.89,2305.65,713.93Z"/><path d="M2009.37,515.32c.4-.31,1.08-.33,8.86,4.44,1.13.69,2.2,1.35,2.07,1.92-.17.81-2.64.88-3,.89-.71,0-6.37.1-8-3.7C2008.94,517.87,2008.54,516,2009.37,515.32Z"/><path d="M2070.84,584.33c-1.15.6-2.92,1.88-7.83,11.68-1.24,2.47-2.19,4.5-3.4,4.43-1.43-.08-2.13-3-2.81-2.81s-.93,2.31,0,4,2.65,1.46,4,3.25a7.21,7.21,0,0,1,1,5,9.17,9.17,0,0,1-3.25,6.35c-1.87,1.5-4.81,2.59-7.24,1.77-.77-.25-1.41-.67-1.63-.44-.55.58,2.43,4.27,2.22,4.43s-.66-.81-1.19-.73c-.25,0-.94.38-1.33,5a42.82,42.82,0,0,0-.14,5.47c.4,7.12.6,10.67.44,11.82a46,46,0,0,1-2.36,8.72c-1,2.58-1.64,3.55-1.33,5.17.62,3.32,4.42,5.1,4.58,5.17a8.08,8.08,0,0,0,3.1.74c4.39.14,7.76-4.15,8.57-5.17,4.44-5.59,4.16-11.88,8.13-15.22a6.64,6.64,0,0,1,2.51-1.33c1.47-.4,3.84-.46,5.17.88s.9,3.39,1.33,3.4,1.2-1.9.59-3.54a4.48,4.48,0,0,0-1-1.48,29.45,29.45,0,0,0-3.55-3c-1.08-.88-1.22-1.06-1.33-1.33a3.23,3.23,0,0,1,1-3.39c1.27-1.07,2.5-.17,4.58-.89a6.86,6.86,0,0,0,3.54-3c1.8-3.15.29-7.73-1.92-10.34-1.28-1.51-2.08-1.52-2.36-2.66-.56-2.25,2.25-3.51,4-7.09,2.54-5.26.61-11.06.29-12-1.06-3-2-2.45-3.69-6.65-1.58-3.86-1.4-5.8-3.1-6.8C2074.26,582.61,2071.16,584.17,2070.84,584.33Z"/><path d="M2087.83,629c-.65.34-1.14,1-1.77,4.14s-.91,4.61-.29,6.2c.18.48.85,2.22,1.77,2.22,1.5,0,2.51-4.65,2.66-5.32s1.39-6.4-.59-7.39A2.18,2.18,0,0,0,2087.83,629Z"/><path d="M2080.59,648c-2.79.44-3.13.15-3.69.59-1.84,1.46-1,6.87.89,7.39s4.09-3.31,4.87-4.58c.5-.8,1.83-3,1.18-3.69C2083.5,647.34,2082.84,647.67,2080.59,648Z"/><path d="M1980,591.43c-1-.27-1.72,2.72-3.84,3.1-2.33.42-4.18-2.74-5-2.22s.5,2.92,1.33,7c1.13,5.52.1,7.23,1.92,9.9,1.3,1.91,3.46,3.44,4.28,3,1-.61,0-4.48-.74-7.38-1-3.74-1.66-4.34-1.18-5.62.83-2.22,3.52-2.09,4.14-4.43C1981.22,593.28,1980.69,591.61,1980,591.43Z"/><path d="M1985.43,603.84a12.48,12.48,0,0,0-1.92,6.65c0,.62.07,2.14.74,2.36.89.3,2.36-1.85,2.8-2.51,2.73-4,2.39-6.86,3.85-10.49,1.6-4,3.08-3.2,5.76-7.68,4-6.71,4.56-14.95,3.1-15.52-1-.4-3.18,2.92-3.4,3.25-1.79,2.79-1.51,4.57-2.66,8.57a36.79,36.79,0,0,1-3.54,8.28C1988.4,599.73,1987.65,599.92,1985.43,603.84Z"/><path d="M1914.2,651c-.82.34-.85,1.84-.88,3.1,0,1.45-.06,2.4.59,2.81s2,0,2.66-.74c1.15-1.32.58-3.74-.74-4.73C1915.69,651.31,1914.87,650.7,1914.2,651Z"/><path d="M1878.44,694.42a2.52,2.52,0,0,0-1.33,2.66c.36,1.54,2.5,2.12,3.85,1.63a2.3,2.3,0,0,0,1.47-1.48,2.16,2.16,0,0,0-.59-1.77A2.94,2.94,0,0,0,1878.44,694.42Z"/><path d="M1885,691.91c-.13.56.89.84,1.77,2.51s.55,2.49,1,2.66c1.1.38,4.62-3.62,3.55-5.47S1885.21,690.73,1885,691.91Z"/><path d="M1891.15,702.11c-2.7-.7-6.52-.13-7.68,2.07-.65,1.21-.52,3,.29,3.54,1,.59,2.33-1,5.47-1,1.17,0,1.5.2,1.63.29,1,.74.74,2.51.44,5.17-.8,7-.57,7.84,0,8.28.76.58,1.41-.2,4.14.15,2,.25,2.28.75,3.25.59,1.72-.3,2.58-2.18,3.84-4.43,1.87-3.33,3.22-5.75,5.17-7.69,2.8-2.78,4.27-2.07,8-5.76,2-2,2.46-3.1,2.66-3.84.56-2.1-.42-2.88-.15-5.62s1.32-2.51,1.63-5.17c.39-3.35-1.07-5.34.15-6.5.35-.35.62-.31,1.77-.59,3.39-.83,3.45-1.7,5.62-2.07.61-.11,3.67-.64,5.91,1,1.32,1,1.37,2,2.21,2.07,1.48.12,3.79-2.8,3.25-4.88-.78-3-7.38-3.53-14.92-4.13-6.66-.54-8.55.26-9.61,1.47-1.24,1.44-.59,2.62-1.47,5.32s-3,4.79-7.1,8.57c-6.15,5.68-7.71,5.29-9,8.43-1,2.42-1,5-2.66,5.47C1893.09,703.1,1892.68,702.5,1891.15,702.11Z"/><path d="M1885.39,726.34c-1.66.41-2.3,1.71-4,4-4.64,6.25-8.29,7.89-7.68,9s4.56.61,7.53-1c2.82-1.55,2.62-3,6.65-5.91,2.38-1.73,3.53-2,3.55-3C1891.48,727.79,1888.06,725.68,1885.39,726.34Z"/><path d="M1818.15,709.94a7.05,7.05,0,0,1,5.62,3.54c2,3.48.78,9.14-3,10.5-3.37,1.23-7.5-1.55-8.72-5-.84-2.4-.51-5.79,1.78-7.68A6.29,6.29,0,0,1,1818.15,709.94Z"/><path d="M1769.68,730.63c.07.92,1.3,1.42,3,2.2,4.92,2.32,6.38,3.68,7.25,3a1.64,1.64,0,0,0,.44-1.33c-.06-1-.84-1.52-6.35-4.29-1.72-.86-2.75-1.36-3.55-.88A1.53,1.53,0,0,0,1769.68,730.63Z"/><path d="M1694.91,695.46c-.82.58-.51,1.4-1.62,3.84-.68,1.47-1.08,1.79-.89,2.07.45.66,3.58-.09,5.32-2.22.39-.47,1.53-1.87,1-2.95S1696,694.67,1694.91,695.46Z"/><path d="M1758.9,679.2c.29.66.33,1,.59,1,.44.1.92-.66,2.36-3,1.58-2.51,1.72-2.73,1.63-3.1-.37-1.48-3.72-2.75-5.47-1.33a3.35,3.35,0,0,0-1,3.25C1757.26,677.21,1758.07,677.31,1758.9,679.2Z"/><path d="M1707,731.22c-.32,1.24,5,4.29,5.91,3.4.53-.53-.17-2.75-1.92-3.7S1707.21,730.5,1707,731.22Z"/><path d="M1716.63,728.71c-.55,1.2.17,3.16,1.48,4.13,3,2.19,7.28-1.88,10.79.45,1.27.84,1.1,1.64,2.66,2.36,1.76.82,4.53,1,5.76-.59a3.08,3.08,0,0,0,.59-2.51c-.12-.55-.67-2.12-7.83-4.29-5-1.51-8.17-1.78-11.08-1A3.26,3.26,0,0,0,1716.63,728.71Z"/><path d="M1683.39,723.53c-1.69.14-3.09,2.57-2.37,3.85a2.89,2.89,0,0,0,4.29.14,2.58,2.58,0,0,0,0-3.1A2.31,2.31,0,0,0,1683.39,723.53Z"/><path d="M1637.43,705.06c-2.12.58-4.08.37-7.54,0-2.28-.24-2.46-.42-5.32-.74-3.25-.36-4.9-.53-5.91-.14-2.29.87-3.3,3.26-4.43,6.05-1.8,4.45-2.93,10.67-1.33,11.38.87.39,1.66-1.25,5.17-3.25a17.27,17.27,0,0,1,6.8-2.51c3.74-.35,3.6,1.73,8.72,2.36,5,.62,7.13-1.08,10.64.74a3.65,3.65,0,0,0,2.21.74c1.88-.21,2.17-2.58,4.44-5.17a18,18,0,0,1,7.24-4.73c2.87-1,4.66-.74,5.47-2.22a3.69,3.69,0,0,0-.15-3.39c-1.08-1.95-3.16-1.39-6.06-3.55-2.14-1.59-1.58-2.32-3-3-3.05-1.41-7.41,1.39-11.67,4.14C1639.56,703.86,1639.37,704.54,1637.43,705.06Z"/><path d="M1487.89,836.43c-1.86-1.17-4.54-.22-5.91,1.33-1.87,2.1-1.85,5.87-.15,7,1.41.89,3.59-.35,4.28-.74.46-.27,3.81-2.24,3.4-5A3.8,3.8,0,0,0,1487.89,836.43Z"/><path d="M1480.05,855.94c-4,.88-4.1,3.61-9.45,6.94a48.91,48.91,0,0,1-10.35,4.43c-4.48,1.53-6.4,1.71-7.09,3.4-.81,2,.55,5,2.66,6.21,1.71,1,4,.31,8.57-1,3.91-1.16,5.93-1.76,8.57-3.25s4.44-3.19,8.13-6.65c4.75-4.45,7.12-6.71,6.65-8.12C1487.13,856.05,1483.21,855.24,1480.05,855.94Z"/><path d="M1501.19,832.74c-5.29.31-9.47,5.46-10,6.2-.86,1.08-4.37,5.54-3,7.83.52.84,1.56,1.17,11.68.59,7.15-.4,8.82-.69,10.78-1.77,2.85-1.56,2.38-2.63,5.32-4.87,4.69-3.58,10.18-4.14,16-4.73,6.81-.7,6.78.49,9.61-.59,4-1.56,4.24-4,10.78-12,5.07-6.14,7.6-9.21,11.09-12.27,2-1.72,4.23-3.5,5.61-6.65.73-1.65.76-2.67,2.07-5.32.77-1.56,1.19-2.08,1.18-3.1s-.49-1.64-2.07-4.14c-2.25-3.57-2.28-4.05-2.21-4.43.29-1.74,2.74-2.7,4.14-3.25,3.69-1.46,5.35-.26,6.64-1.63,1.54-1.62,1.41-5.66-1-7.53a5.58,5.58,0,0,0-5.76-.45c-1.45.77-2,2.15-2.66,1.92s-.08-1.58-.74-2.51c-1.68-2.36-9.28.45-10,.74a24.32,24.32,0,0,0-6.5,3.55c-3.13,2.41-3.42,3.94-6.06,4.72-1.13.34-2.33.44-3.1,1.48a4.28,4.28,0,0,0-.59,2.66c-.1,2.36-1.4,4.06-3.4,6.65-.65.84-5,6.46-7.54,5.47-1.42-.55-1.41-2.82-2.81-3-1-.1-1.24,1-2.66,1.33a5.07,5.07,0,0,1-4.43-1.92c-1.14-1.34-.89-2.46-1.77-2.8-1.06-.42-2.42.81-3.4,1.62-3.34,2.75-3.18,1.33-8.28,4.88-4.8,3.35-7.21,5-8,7.09-1.35,3.63,1.23,5-.29,10.2a15.67,15.67,0,0,1-2.66,5.76c-1.37,1.74-2.61,2.38-2.66,3.84-.06,1.62,1.36,2.89,1.92,3.4,2.65,2.39,6.39,2.27,6.35,2.66C1502.64,832.66,1501.45,832.72,1501.19,832.74Z"/><path d="M1141.81,68.47c3.9-1,5.93-.18,11.52-.15s4.74-.8,6.51-.3c4.63,1.31,8.61,6.5,9.75,8a8.6,8.6,0,0,0,3.54,3.11c1.81.75,3.54.53,3.55.73,0,.39-6.07.36-6.35,1.78-.19.94,2.38,1.62,5.76,4,5.09,3.57,4.44,5.65,9.61,9.31,3.4,2.4,4.89,2.35,5.17,3.84.55,3-4.5,7.76-8.87,7.39-3.09-.26-5.13-3.05-6.8-2.07-.87.51-.61,1.45-1.47,2.51-1.4,1.72-4.09,1.77-6.8,1.63-7.3-.4-12.63-2.17-12.71-1.92s4.51,1.92,9.31,3.69a33.92,33.92,0,0,0,4.43,1.48c2,.47,3.39.49,6.21,1.18,1.95.47,3,.72,2.95,1,0,.65-4.27,1.2-7.68,1.33-4.68.18-7.44-.44-7.54,0s2.58,1.76,5.62,2.37c4.27.86,6.12-.28,7.24,1,1.56,1.84-.49,5.86-.74,6.36a11,11,0,0,1-3.55,4c-2.28,1.54-3.92,1.36-4,2.07-.1,1.13,4,2.77,7.39,3.54,2.69.62,4.52.62,4.73,1.48.26,1.07-2.39,1.88-2.36,3.69a3.36,3.36,0,0,0,2.51,2.81c1.69.42,2.75-1.06,3.84-.44.93.52,1,2.07,1,2.66.1,2.11-1.13,2.88-.74,4.73a3.68,3.68,0,0,0,.74,1.62c1.36,1.66,3.6.8,5.32,1.63,2.59,1.25,1,4.92,3.25,9.45,1.9,3.87,4.1,3.33,10.34,10.5,3.08,3.53,3.45,4.7,3.25,5.76-.44,2.35-3.81,4.8-6.65,5.91-1.33.52-2.77.83-3,1.77s1.4,1.76,1.18,2.66c-.33,1.39-4.32.67-5.32,2.66-.41.82-.13,1.71.29,3.11.69,2.21,1.56,2.35,2.37,4.28,1.19,2.85.16,4.63,1.33,5.32.92.55,1.63-.5,3.55-.29a6.42,6.42,0,0,1,4.13,2.51c1.37,1.88.42,3.08,1.19,5,.91,2.33,3.17,2.86,12.7,7.1,3.16,1.4,6,2.69,5.77,3.69s-2.56,1.08-2.52,1.63,1.58.62,2.37.73a31.13,31.13,0,0,1,7.24,1.93c3.12,1.33,2,3.12,6.21,6.79,3.8,3.31,6.19,3.14,6.94,5.77.49,1.7,0,3.42,1.18,4.43a4,4,0,0,0,2.07.59c2.58.37,3.65-.35,4.88.44a2.62,2.62,0,0,1,1,1.19c.85,2.2-2.62,5.26-3.69,6.2-2.14,1.88-3.44,3-5.32,3.1-3.69.14-5.68-4.06-7.83-3.25-1.07.4-.65,1.78-1.78,3-1.55,1.63-4.41,1.36-7.83.74-8.56-1.56-8.71-3.18-14.63-4-4.75-.65-6.9.09-9.75-1.92-2.29-1.61-3.62-4-3.84-3.84-.38.25,4.47,6,2.81,8.71-.74,1.19-2.24,1-5.47,1.78a32.7,32.7,0,0,0-8.13,3.4c-3.74,2.32-2.72,4.78-7.83,14.92-2.29,4.55-4.22,9.27-6.36,13.89-.55,1.19-1.74,3.76-.73,6.21.45,1.1,1.45,1.18,2.06,2.51a6.19,6.19,0,0,1,.15,4.14c-.77,3.05-2.62,3.22-3.84,5.91-1,2.29-1.4,5.92.3,8.13,1.94,2.52,4.92,1,7.09,3.69s1.31,6.82,1.18,7.39a23.18,23.18,0,0,1-4,8.27c-.45.6-1.18,1.48-.89,2.07.53,1.07,3.81-.06,4.14.74s-2.07,2.92-4.87,4c-1.63.62-2,.35-3,1-2,1.49-1.66,3.95-2.66,4.13-1.41.25-2.55-4.57-4.43-4.58-1.3,0-2,2.3-3.25,4.73-2.15,4.28-5.77,7.48-13,13.89-3.29,2.91-4.55,3.68-5.91,3.4-2.69-.55-3.82-4.81-5.76-4.43a2.16,2.16,0,0,0-1.33,1.18c-.61,1.34.73,2.42,1,4.58a6.47,6.47,0,0,1-1,4.58c-1.07,1.31-2.21.93-6.5,2.51-3.45,1.28-3.85,1.94-4,2.22-.77,1.52.49,2.7.14,5.17a7.75,7.75,0,0,1-1.92,4c-3.26,3.69-8.3,1.28-11.52,5-.16.18-1.77,2.09-1.18,3.25.75,1.48,4.8,1,5.76.88,2.65-.31,3.21-1,3.84-.59,1.13.81,0,3.73-1.18,11.53-.49,3.11-.56,4.17.15,5,1.19,1.44,3.22.65,5.76,2.66a6,6,0,0,1,1.92,2.22c.91,2-.07,3.62-.74,6.8-1.13,5.37.51,6.33-.89,8-2.12,2.51-6.12.48-8.42,3.25-.25.3-.8,1-1.18,4.58-.59,5.48.37,7,0,11.08-.3,3.26-.69,7.46-3.55,8.87-2.43,1.19-6,.06-7.53-2.07s-.56-5.13-.89-5.17-3,5.6-.74,8.86c.46.65.66.57,4.73,3.25,3.26,2.15,4,2.75,4.14,3.7a3.66,3.66,0,0,1-1.78,3.84c-2,.8-4.31-1.91-5.17-1.18-.7.6.93,2.39.3,4.43-.52,1.67-2,1.68-4.88,4-1.87,1.49-3.81,3.05-4.58,5.47-.9,2.85,1.38,4.29.44,5.91-1.22,2.1-5.17.43-9.6,2.21-3.54,1.43-3.85,3.63-6.95,6.51-5.82,5.4-10.07,2.55-21.28,7.53-2.07.92-5.52,3-12.41,7.24-8.86,5.42-12.45,8.14-16.4,7-2.83-.86-4.39-3.29-5.32-4.73-5.48-8.53,1.49-16.5-3.55-26-1.78-3.36-4.18-5.26-6.5-7.09-2.08-1.65-10-7.91-18.62-6.21-2.71.54-1.91,1.16-10.05,4.88-10.42,4.77-12.32,4-13.15,3.4-2.12-1.59-1.86-5.7-1.77-7.09.27-4.3,2.41-5.76,1.48-7.39-1.11-1.95-5.58-2.39-8.72-.74-3.71,2-3.7,5.83-5.76,5.91-2.34.09-2.74-4.83-7.54-9.16-3.22-2.91-8.37-5.51-10.94-3.85-1.56,1-.68,2.64-2.06,5.47-2.18,4.45-6,3.74-13.16,9.16-4.55,3.43-5,5.22-7.68,5.32s-3.46-1.73-8.13-3.54c-3.22-1.25-6.6-2.57-9.9-1.63-4.44,1.27-4,5.27-9.75,8.57-1,.6-6.5,3.76-9.75,1.63-2.09-1.37-2.33-4.29-2.66-8.28-.61-7.36,1.66-8.36.44-13.59-.8-3.41-1.84-3.27-3.4-8.87-.78-2.81-1.22-5.32-1.92-5.32-.5,0-.61,1.29-1.48,3-.18.36-2.36,4.43-5.17,4.87s-3.66-3.43-8-4.28c-2.38-.47-4.3.28-8.13,1.77-4,1.58-4.21,2.52-8.42,4.29s-6.63,2.77-9.16,1.92-2.32-2.61-5.77-4c-1-.43-4.16-1.67-6.35-.3-1.57,1-1.41,2.51-2.51,2.66-1.81.26-3.85-3.62-4.43-4.73-1.52-2.87-1.1-3.83-2.07-4.28-1.51-.71-3.17,1.32-9.16,4-2.09.93-3.07,1.21-4.14.89a5.25,5.25,0,0,1-3.25-4.14c-.35-2.11.89-2.78,1.18-5.32s-.57-6.28-2.37-6.95c-3.15-1.18-8.62,6.94-9.16,6.5s3.42-6.57,5.32-9.6a17,17,0,0,0,1.48-2.81c.77-1.87,1.69-4.08,1.18-6.06-.72-2.82-3.61-2.31-5.47-5.61-1.38-2.47-1.1-5.13-.88-7.24.52-5,2.72-5.4,2.36-8-.69-5.08-9.44-5.48-10.19-10.79-.17-1.18.57-2.81,2.07-6.06,2.65-5.77,4.49-6.47,5.31-10.49a11.28,11.28,0,0,0-.14-6.35c-.61-1.7-1.24-1.87-3.4-5.47-1.52-2.54-1.34-2.68-2.51-4.43a20.69,20.69,0,0,0-3.85-4.59c-1.59-1.35-5.17-4.15-6.35-3.25-1,.73.88,2.88-.15,5.32-.49,1.18-1.28,1.55-6.06,4.14-5.16,2.8-5.78,3.19-6.94,3-3.06-.63-4.37-4.54-4.43-4.73-1.19-3.68.62-7.93,3.39-10.05,3.32-2.54,7.59-1.72,7.69-2.81,0-.37-.45-.64-3.84-2.36-4.24-2.15-4.64-2.32-5.32-2.22-2.46.37-2.72,3.34-4.73,3.4-2.25.07-4-3.56-4.44-4.43-1.29-2.67-2.28-6.64-1-7.39,1.65-1,5.79,4.42,7.68,3.25.68-.42.72-1.48.74-2.37a8.07,8.07,0,0,0-4.58-7.38c-2.91-1.21-4.2,1-7.24.14-4.86-1.36-6.66-8.43-6.8-9-1.07-4.46.22-8.41,1.48-12.27,1.73-5.27,3.26-5.93,3.4-9.6a14.74,14.74,0,0,0-2.36-8.57c-2.17-3.17-4.35-3.2-8.43-8a19.56,19.56,0,0,1-2.36-3.1c-3.95-7.28,2.89-14.35-.89-20.1-1.28-1.95-3.17-2.82-2.81-4.14.43-1.53,3.17-1.05,5-3.4a7.47,7.47,0,0,0,1.33-5.17c-.27-2.75-1.87-2.89-2.37-5.61-.56-3.07.93-5.83,1.78-7.39,1.5-2.78,2.33-2.33,3.54-4.58,2.22-4.11-.13-6.3,1.78-10.05,1.21-2.38,2.19-1.56,6.35-5.77,2.53-2.55,4.43-4.47,5.76-7.53,1.57-3.6.69-4.93,2.52-7.09,1.57-1.87,3.6-2.52,5.91-3.26,4.34-1.38,8.47-1.15,8.57-.59s-2.7.64-3.4,2.52,1.09,4,1.18,4.13c1.7,2,3.48,1.27,4.73,3s-.08,2.67.59,6.06c.14.72.86,4.38,3.7,6.5,1.25.94,1.61.6,4.13,1.62,1.94.79,5.85,2.39,7.84,5.47,1.68,2.62.18,3.52,1.47,6.36,2.54,5.57,9.14,3.85,12.56,9.75,1.78,3.06,1.34,5.84,3.55,6.65,1.88.69,3.28-.93,5,0s1.18,3,2.81,4.88,4.41,2,8,2.06a20.77,20.77,0,0,0,11.82-2.66c3.62-2.21,2.75-3.53,6.06-5.76,4.61-3.1,9.8-2.89,15.52-2.66s8.45.34,11.38,2.37c3.27,2.26,4.39,5.37,6.35,5s1.8-4,4.29-4.73,3.87,2.35,7.38,1.77a8.53,8.53,0,0,0,3.55-1.62c1.65-1.18,1.45-1.78,2.81-3,2.44-2.1,5.81-2.5,8.42-2.8,2-.24,2,0,2.66-.3,2.68-1.32,2-5.6,3.55-10.34a21.16,21.16,0,0,1,5.61-8.87c3.7-3.35,6.9-2.49,20.54-3.84,12.14-1.2,17.16-2.62,18.62-.15,1.65,2.78-3,7.45-1.18,9.46,1.4,1.54,4.22-1.17,9,0,3.54.86,3.65,2.74,8.87,4.43,2.4.78,3.66,1.19,5.47,1,3.38-.28,5-2.24,6.79-1.32,1.28.65,1,1.92,2.37,2.8.92.58,2.36.86,5,0,6.43-2.06,6.68-6.41,12.71-8.57,1.89-.68,5-1.78,8.42-.88,2.14.55,3.26,1.58,5.47,1.33,1.63-.19,1.59-.82,4.43-1.93s4.78-1.86,6.8-1.18c1.37.46,1.8,1.26,3.11,1.18a4.44,4.44,0,0,0,2.66-1.33c2.22-1.94,1.69-3.6,3.54-5.46s2.74-.88,3.84-2.22c2.27-2.74-1.76-6.64,0-10.49,1.51-3.29,5.23-2.18,7.84-6.5.24-.41,2.5-4.25,1-6.51-1.14-1.75-3.56-1-5.47-3.25a5.82,5.82,0,0,1-1.47-3.69c.28-3.24,6-5.08,20.24-11.53,3.6-1.63,7.1-3.25,6.94-5-.12-1.43-2.49-1.55-5.17-4.58a11.19,11.19,0,0,1-3-5.62,11.9,11.9,0,0,1,1-6.35c.76-2.06,1.07-1.81,3.1-5.76,1.7-3.3,1.73-4,2.66-4.44,1.73-.89,3.19.53,6.21,1,2.74.45,7,.21,9.61-2.07,2-1.77,2.31-5.47,3-12.86a53.27,53.27,0,0,0,.3-8.57c-.32-5.31-1.36-6.59-1.63-10.64s.48-7,1.63-11.38c2-7.8,3.46-13.35,8.12-16.84,1.93-1.44,3.5-1.85,5.18-4.14,2.39-3.26,1.73-5.87,3.4-6.5,2.58-1,5.32,4.84,9,4.14,2.47-.48,2.19-3.27,5.61-4.58,2-.77,3.74-.46,7.25.14,2,.36,4.7.84,5,2.22.21.9-.7,1.66-.44,1.92.11.11.59.28,5.46-2.81,1.56-1,2.21-1.44,2.81-1.18,1.07.46.46,2.52,1.48,3.1,1.32.77,2.91-2.37,6.06-2.51,2.57-.11,3.47,1.88,6.8,1.63A12.79,12.79,0,0,0,1141.81,68.47Z"/><path d="M68.11,101.27c5.32,1.28,8.15-2.16,13.44.3,2,.94,3.4,2.27,5.91,4.73a51,51,0,0,1,6.06,7.24c7.85,10.74,11.14,15.27,14.19,18.76.66.76,2.23,2.52,3.69,4.14,2.12,2.35,3.19,3.53,3.85,4.14a40,40,0,0,0,5.91,4.43c3.8,2.5,3.91,2.07,4.87,3,3.05,2.78,1.82,6.84,2.51,14.63.67,7.5,1.13,12.65,4.59,15.22,3.66,2.72,6.26-.77,12.85,1.77.8.31,4.48,3,11.82,8.27a41,41,0,0,0,6.95,4.29c3.12,1.48,3.27,1,5,2.07,4.15,2.5,3.2,5.08,7.24,8,2.19,1.57,2.84,1.08,7.24,3.84,2.92,1.83,3.41,2.54,3.7,3.1,1,2-.07,3.18-.45,7.69a23.39,23.39,0,0,0,.3,7.24c.65,2.78,1.77,4.12,3.25,6.65a41.34,41.34,0,0,1,5,12.41c1.29,6.77-.88,10.24,1.92,12.86,1.44,1.34,2.69,1.06,4,2.8s1.07,3.72,1.18,6.8c.08,2.37,1,6.26,3,14,1.33,5.4,1.69,5.9,2.22,6.35,3,2.56,6.77-.41,11.53,2.22,2.5,1.38,1.79,2.39,5,4.58,3.57,2.43,4.88,1.51,8.72,3.7,1.39.79,5.14,2.93,7.09,6.94,1.74,3.58.14,4.73,1.33,8.72,1.12,3.74,4.16,6.49,10.2,11.82,6.2,5.48,6.25,4.34,9,7.54s4.81,6.86,7.54,11.82A24.32,24.32,0,0,1,271,347.9c1.4,5.19-1.35,7.64.44,10.94.78,1.43,1.25.87,5.17,4.58a38.32,38.32,0,0,1,3.84,4c3.12,4,1.6,6.42,3.84,12,.44,1.08,2.66,4.21,7.1,10.49,3.21,4.54,3.95,5.45,5,7.68,1.52,3.18,3.09,6.56,2.07,10.05-.82,2.8-2.47,2.84-3.1,5-.68,2.36.54,4.69,8.42,14,11,13.08,13.52,14.32,15.07,14.93a11.65,11.65,0,0,1,4.29,2.51c3,2.87,3.34,6.72,3.69,8.72C329,464.91,343,473.62,345.18,475c4,2.52,5.43,2.31,10.78,5.91a51.74,51.74,0,0,1,9.46,8.13A23.27,23.27,0,0,1,369,493.6c2.23,4,1.48,6.11,2.66,9.61,1,3,3.89,5.69,9.6,10.93,1.79,1.65,5,4.54,9.46,8,6.52,5,10.16,6.79,11.23,10a5.49,5.49,0,0,0,2.07,3.1,5,5,0,0,0,2.81.74c3.84.07,8.14,3.26,10.93,5.32s4.54,4.17,7.83,8.13c3.53,4.25,3.54,5.14,5.47,6.06,2.94,1.39,4.59.14,8.87,1.92,1.6.67,1.2.77,4.13,2.22,4.25,2.08,4.69,1.67,6.51,3,2.71,1.91,2,3,4.73,5,3,2.17,5.21,2,5.46,3.39.28,1.6-2.43,2.53-2.36,4.44s2.65,3,4.43,4c4.91,2.77,3.59,4.4,12.71,13.59,5.24,5.29,4.81,3.87,8.42,7.83a62.94,62.94,0,0,0,9.16,8.43c1.84,1.36,3.26,2.25,4.44,1.77,1.5-.62,2-3.25,1.92-5.17-.39-7-9.47-9.57-8.57-14.19a5.29,5.29,0,0,1,3.4-3.54c3.37-1.26,7.16,1.62,9.9,3.69,4.86,3.68,4.28,5.44,8.72,8.57,1.6,1.13,7.22,5.1,10.64,3.1,1.63-.95,2.26-3,2.66-4.28.91-3-.17-4,.44-7.09s2.42-6.3,4-6.21c.92,0,1,1.23,3.4,4.28a15,15,0,0,0,3.69,3.7c1.38.89,1.78.72,3.4,1.77a10.52,10.52,0,0,1,3.1,2.66c1.8,2.51.38,4.26,2.07,6.21,1,1.15,1.4.44,3.84,2.21,2,1.42,2.71,2.6,3.7,2.37.71-.17,1.09-1,1.33-1.48,2.23-4.87,3.35-7.3,3.4-7.54,1.31-6.24,0-11.54.29-19.65.07-2,.39-4.63,1-9.9,2.94-23.9,5.88-26.66,3.1-32.66-1.37-2.94-3.8-6-3.84-11.08a31.88,31.88,0,0,1,.74-5.91,83.54,83.54,0,0,1,2.36-9.61c.79-2.7,1.28-4.08,2.22-7.53,1.16-4.29,1.22-5.2.88-6.21-.93-2.79-3.66-2.38-5.32-4.87-2.82-4.25-.15-13.36,5.32-17.29,2.68-1.92,4.66-1.63,5.92-4,.8-1.51.63-3.67.29-8a14.26,14.26,0,0,0-1.18-5.32,5.88,5.88,0,0,0-2.22-3c-1.95-1.08-3.33.63-5.47.15-3.54-.8-6.35-7-6.65-12.12-.13-2.37.29-4.07-.88-5-1.62-1.31-4,.67-5.32-.45-2-1.73,2.31-7.71-.15-11.08-.77-1.05-1.85-1.36-3.84-1.92-6.56-1.85-9.73,1.78-14-.44-2.21-1.14-2.47-2.66-4.58-2.81-1.28-.09-1.54.44-5,1.63-4.13,1.4-5.24,1.16-5.92.88-.46-.19-.28-.22-2.21-1.62s-2.76-2-3.4-2.07c-1.27-.16-1.69.68-4,1.77-1.73.82-4.8,1.91-5.32,1.18s1.21-2.59,2.81-4.43c4.42-5.08,6.12-5.08,6.5-7.09.61-3.23-3-7.35-6.5-9-2.9-1.37-4.42-.44-6.8-2.36s-2.87-4.33-4-4.14-.93,2.83-2.36,3.25-3.67-1.46-3.55-3c.1-1.26,1.81-1.29,2.66-3.11a5.46,5.46,0,0,0-.3-4.72c-1.42-2.57-4-1.75-5.46-3.85s.29-3.95.88-9.6a37.05,37.05,0,0,0-.59-10.64c-.83-5.13-1.25-7.69-3.25-9.46s-4.1-1.84-8.57-2.22c-4.62-.38-5.34.33-10.64.15-4.47-.15-7.06-.24-10-1.62-1.26-.59-1.42-.86-6.65-5-6-4.77-6.15-4.71-7.68-6.2-3.57-3.48-6.21-6.05-5.91-9.31a6.43,6.43,0,0,1,2.51-4.58c1.49-1,2.24-.29,3.55-1.19,2.54-1.74,1-5.52,3.39-6.94.88-.53,1.06,0,4.59-.59,2.18-.37,3.28-.57,3.54-1.18.49-1.16-1.35-3.54-3.69-4.59-1.73-.77-2.74-.36-7.54-.29-3.72.06-6.18.08-6.35-.59-.24-.93,4.37-1.43,6.79-5.32,1.53-2.45.76-3.95,2.52-5.47,1.55-1.34,3.57-1.4,5.76-1.48,4.47-.15,6.16,1.35,7.09.45,1.6-1.54-1.76-7.44-3.25-10.05A40.88,40.88,0,0,0,442.41,278c-4.28-3.9-8.94-8.15-14.19-7.38-1.59.23-2,.74-7.83,4.87-6.51,4.58-9.83,6.9-12.85,8.28-6.51,3-12.8,3.33-13,2.66-.14-.45,2.32-1.77,15.22-9,2.77-1.55,4.95-2.82,5.17-4.87s-1.65-3.87-4-6.06a24.23,24.23,0,0,0-8.57-5.76c-8.05-2.93-11.47,2-18.32-.74-3.4-1.35-5.22-3.61-8.87-8.13a48.25,48.25,0,0,1-8.27-15.66c-1.94-6.2-.86-7.12-3-10.64-2.47-4.16-6-6.31-9.75-8.57-4-2.41-7.32-4.45-12-4.59-3.68-.1-4.31,1.1-8.13.74-1.95-.18-6.4-.59-9.16-3.54-3.47-3.71-.56-7.43-3.84-15.37a28.64,28.64,0,0,0-5-8,23,23,0,0,0-9.91-7.39,16.9,16.9,0,0,0-8.86-.89c-1.07.2-6.72,1.23-7.24,4-.68,3.53,7.42,7.66,6.94,8.43-.21.33-1.89-.22-4.13-1.33-5.69-2.82-6.22-4.9-10.64-7.39-5.11-2.87-7.28-1.71-9-4.43-1.09-1.72-.36-2.39-1.48-7.1a44.37,44.37,0,0,0-2.66-7.68c-2.21-5.28-3.34-8-4.87-8-2.38,0-3.47,6.41-5.62,6.21-.58-.06-1.16-.6-2.66-4.14-1.68-4-2.18-6.24-2.95-8.28-.89-2.35-2.27-4.22-5-8-4.35-5.92-6.53-8.88-9.9-10.34s-4.35-.24-7.83-2.07c-3-1.59-4-3.41-6.65-6.06-1.87-1.86-4.55-3.55-9.9-6.94C200.81,106.72,194.38,102.65,190,102c-.85-.12-2.79-.33-3.85-1.77-1.32-1.83.18-3.71-1-5.47-.84-1.23-2-1-6.5-2.22-3.76-1-5.66-1.61-6.5-2.8-1.69-2.4.51-4.86-1-6.8-1.94-2.45-6.33.3-8.57-1.92-2.56-2.55,1.89-7.48-.74-13.45A14.12,14.12,0,0,0,156.92,62c-3.5-2.4-5.39-1.37-8-3.54-1.44-1.21-1.54-2.1-4-8.28-2.33-5.87-3.52-8.84-4.73-10.64-.34-.49-2.74-2.8-7.54-7.39a52.69,52.69,0,0,0-10.49-8,8.74,8.74,0,0,0-3.1-1c-2-.23-3.36.38-5.47,1.18-4.84,1.85-7.3,2.77-9,2.51s-1.69-.87-4.88-2.51A30.2,30.2,0,0,0,91,21.18a28.32,28.32,0,0,0-10.93.44c-2.78.58-2.26.83-4.73,1.33-1.35.28-4.61.84-14-.14-3.1-.33-4.65-.49-5.91-.74-3-.61-10.21-2-16-7.24-4.51-4.08-2.93-5.76-7.24-8.72-2.1-1.45-6.32-4.35-11.53-4-2.76.19-6,1.31-7.68-.45C12.35,1,12.45.53,11.81.2c-1.69-.89-4.46,1.38-7.1,3.54C1.92,6,.52,7.17.13,8.77c-.51,2.09.56,3.55,1.92,6.79.05.12,1,3.53,3,10.35C8.4,37.83,7.91,37,8.55,38.62c1.2,3.09,3.12,6.7,8.72,13.15C28.68,64.88,33.48,64.53,45.05,77.33c5.47,6,10.64,12.12,10.64,12.12C63.2,98.25,64.55,100.42,68.11,101.27Z"/><path d="M28.21,147.38c-1.81,2-.36,6.23,1.33,8.71,1.57,2.32,3.6,3.48,7.53,5.32,9.46,4.44,9.61,3.35,13.45,5.62,7.29,4.31,9.29,9.74,13.3,8.87.09,0,2.19-.51,2.81-2.07.78-2-1.29-4.44-2.81-6.21-2.59-3-5-4.49-11.82-8.87-3.45-2.22-5.17-3.33-5.47-3.54-6.23-4.53-7.15-7-11.38-8.28C34.15,146.64,30,145.42,28.21,147.38Z"/><path d="M101.65,182.84c0,.5.18,1.72,9.75,5.91,1.38.61,1.88.8,2.07.59.56-.61-1.91-4.31-5.47-6.5-.88-.54-4.06-2.5-5.61-1.33A1.88,1.88,0,0,0,101.65,182.84Z"/><path d="M111,221.56c-6.71,2.28-10.1.57-10.94,2.36-1,2.09,2.9,6,6.8,9.9,4.41,4.43,9.22,7.86,8.87,11.23a3.67,3.67,0,0,0,.29,2.37c.68,1.17,2,1.38,3.25,1.92,1.63.69,2.56,1.74,4.44,3.84,4.45,5,2,9.79,6.35,13.3a9.06,9.06,0,0,0,4.29,1.92c.82.12,3.41.51,5-.74,3.22-2.49-1.11-8.63,2.22-16.11,1.36-3.05,2.51-3,2.51-4.87,0-4.81-7.49-9.55-12.71-11.53-2-.76-2.64-.72-3.84-1.62-2.69-2-2.34-4.43-5.32-9.17-1.66-2.63-2.57-4-4.29-4.58C115.81,219.13,114.46,220.37,111,221.56Z"/><path d="M176.72,289.83a3.49,3.49,0,0,0,0,2.8c1.41,3.09,7.4,2.62,8.72,2.52s5.62-.45,6.05-2.37c.32-1.38-1.59-2.88-2.06-3.25C185.47,286.43,178.24,286.75,176.72,289.83Z"/><path d="M166.52,298.69c-1.88,0-4,2.11-3.84,3.84.28,2.61,5.59,2.3,7.68,6.65a6.44,6.44,0,0,1,.59,4.29c-.6,2.37-2.55,2.63-4.28,5-2.2,3-2.77,7.71-1.18,8.87s4.83-1.07,6.2-2.22c.56-.46,3.9-3.24,3.4-6.2-.26-1.53-1.3-1.73-1.33-3.25,0-2,1.67-2.41,1.63-4.14,0-1.5-1.32-1.6-2.81-4.14-1.35-2.3-.71-2.92-2.07-5.17C169.67,300.84,168.38,298.71,166.52,298.69Z"/><path d="M183.66,350.56c-4.06,2.84-5.82,8.06-4.73,12,.63,2.24,1.89,3,4,5.32,7.16,7.94,4.9,13,12,20.1a17.6,17.6,0,0,0,7.54,5c4.6,1.4,11.42,1,13-2.51,1.41-3.12-1.7-7.79-3.4-9.75-.67-.78-.72-.68-1.47-1.48-4.62-4.94-3.13-9.53-7.54-15.07-1.12-1.41-1-.89-2.07-2.22-4.11-5.3-2.2-9.41-4.87-12S187.51,347.88,183.66,350.56Z"/><path d="M237.3,410.85c.71,1.25.2,1.49,1.19,3.55.73,1.53,1.41,2.22,2.95,4.87,1.15,2,1.13,2.21,1,2.37-.66,1.06-5.47-.77-8-1.92s-3.9-1.8-4.88-3.11c-2.11-2.81-2.38-7.74-.15-9.16S235.77,408.16,237.3,410.85Z"/><path d="M252.82,433q-.3,7.31-.59,14.63c1.72.78,3.82,1.37,5.32.44,1.06-.66,1.19-1.69,2.07-1.77,1.21-.12,2.71,1.68,3.1,3.54.48,2.27-1,3-.74,5,.33,2.26,2.33,2.18,4.58,5.32,2,2.77,1.32,4.07,3.4,7.68,1,1.76,3,5,3.7,4.73s.34-2.92-.74-5.17c-.84-1.74-1.93-2.68-1.63-3.11s2.36.91,3.7.15,1.24-3.8,1.18-4.43c-.35-3.54-2.6-5.74-5-8.57-7.29-8.5-6.35-11.19-12.11-15.22A27.81,27.81,0,0,0,252.82,433Z"/><path d="M364.09,579c-.76.89.32,3.06,1,4.14,2.64,4,9,6.58,11.67,4.29a3.86,3.86,0,0,0,1.18-3.7c-.5-1.85-3.59-2.74-9.75-4.43C365.67,578.61,364.58,578.44,364.09,579Z"/><path d="M524.72,644.62c-2.05,2.12-1.51,6.22-.3,6.65s3.62-3.18,3.84-3.54c.71-1.11,2-3.23,1.33-4.14S526.17,643.11,524.72,644.62Z"/><path d="M529.59,653.64a4.46,4.46,0,0,0,.74,4.43c1.6,1.9,4.44,1.79,6.21.89a4.65,4.65,0,0,0,2.66-3.4,4.39,4.39,0,0,0-2.07-4C534.74,650,530.7,651,529.59,653.64Z"/><path d="M836.81,736.09c7.91.85,11.87,1.28,13.74.89.88-.18,4.29-1,4.88.15.36.68-.66,1.49-.3,2.21.49,1,2.77.2,6.21.45,4,.29,5.32,1.7,6.65.74s.51-3,1.92-4.44c1.67-1.67,5-.92,6.35-.59,12.4,3,18.6,4.47,18.92,4.58,12.32,4.44,19.26,6.94,26.74,4.73,5.54-1.63,7.72-4.77,16.55-6.5a35.57,35.57,0,0,1,8.28-.74c4,.16,8,1.1,13.59,3.55,10.77,4.71,9.16,7,16.85,9.75,4.1,1.49,12.93,3.89,19.51,3.7,2.81-.09,4.44.33,7.68,1.18,2,.52,3.67,1.14,3.69,1.92s-2.17,1.23-2.21,2.21,2.63,2.42,5.17,2.66c4.22.42,8.84-2,8.72-3.84s-4.18-1.14-7.09-4.73c-1.86-2.28-2.2-4.94-2.52-7.38-.34-2.71-.08-4.28.45-8.87,1.1-9.63,1.66-14.44,1.47-16.11-.26-2.35-.83-4.63.3-7.24.49-1.14,1.08-1.81.89-2.81-.32-1.64-2.44-2.52-4.29-3.25a40.68,40.68,0,0,0-9-2.07c-2.35-.35-3.53-.44-4.44-1.47-1.22-1.4-.61-3-1.47-3.4-1.36-.63-3.15,3.2-6.95,4.43-2.37.77-3.24-.22-7.24-.59-5.55-.52-5.63,1.23-13,1.48-5.48.18-7-.73-10.49.59-3.24,1.22-2.93,2.39-5,2.81-4.37.87-6.36-4.08-16-9.9-4.93-3-6.41-2.91-7.53-5.18-1.23-2.46-.18-4-1.33-10.93-.57-3.43-1.13-4.88-2.37-5.62-1.65-1-2.81.3-4.43-.59-3.05-1.66-2.84-8.3-2.81-9.31.09-2.72.71-3.88-.15-5s-2.68-1.29-5-1.33c-10.87-.2-16.3-.3-17.44-.15-1.8.24-3.07.48-4.58-.15-2.27-.95-2.37-2.75-5-4.43a11.5,11.5,0,0,0-4.88-1.63c-3.87-.33-4.54,1.9-7.39,1.48-2-.29-2-1.41-8-6.06-3.07-2.41-3.8-2.69-4.58-2.8-2.73-.4-4.21,1.54-7.24,2.95-4.46,2.08-11.51,2.67-14.19-.29-2.81-3.13.83-8.45-2.8-12.12a8.57,8.57,0,0,0-3.55-1.92c-.87-.33-7-2.51-12.12.59a12.54,12.54,0,0,0-3.54,3.4c-4.77,6-3,10.16-7.24,16.4a15.71,15.71,0,0,1-6.65,6.06c-.94.41-5.48,2.42-9,.44-2.69-1.51-2.13-3.83-4.43-4.58s-3.64,1.27-8.57,2.51a26.76,26.76,0,0,1-5.91.74,30,30,0,0,1-13.3-3.25c-3.2-1.71-5.15-3.59-7.39-2.95a10.4,10.4,0,0,0-3.1,1.62,9.68,9.68,0,0,0-1.63,1.63c-2.62,3.09-13.37,3.43-16.11-1-.59-1-.71-2-1.77-2.51-1.34-.62-2.88.25-4.28.89,0,0-2.11,1-8.28,2.07-1.16.21-8.56,1.54-12.12-2.07-3-3-.09-6.22-3.54-14-1.13-2.55-2.41-5.33-5.18-6.65-1.17-.56-2-.55-2.95-1.48-1.87-1.79-.79-3.7-2.22-5.47-2.09-2.6-7.81-2.65-9.6-.44-.69.84-.59,1.75-1.48,2.22-1.26.66-3-.34-3.69-.74a50.24,50.24,0,0,0-12.86-4.88,51.68,51.68,0,0,0-8.87-.59c-4.11-.09-3.78.16-4.73,0-7.62-1.31-10-14.58-13.89-14-1.8.25-1.51,3.15-4.43,4.14A8,8,0,0,1,625.5,613c-1.26-1.29-1.46-2.59-2.07-2.51-.77.09-.88,2.19-1.78,5.61s-1.38,5.35-2.36,6.21c-2.68,2.38-9.13,1.42-12.12-2.07-2.33-2.72-1.54-5.82-3.4-6.35s-2.8,2.29-6.65,3.1a9.41,9.41,0,0,1-6.2-.74c-3.39-1.85-3.39-5.43-5.17-5.47-2.09,0-2.34,4.85-5.62,5.77-2.4.67-5.29-1.11-6.8-3-2.35-2.89-1.57-6.31-2.66-6.5-.84-.14-1.68,1.83-3.69,5.76-4,7.83-4.65,7.81-5.62,11.09a52.75,52.75,0,0,0-1.47,8c-.76,5.31-.56,7-1.92,8-2.17,1.58-4.56-1.17-7.39.14s-1.8,5-5.32,11.23c-2.53,4.52-5,5.93-4.29,7.24s3.3.42,9.61.45c8.62,0,9.62,1.74,16.1.88,2.79-.36,3.59-.81,5.47-.44,3.66.72,4.1,3.08,8.28,4.88,2.76,1.19,5.26,1.32,8.27,1.47,5.44.29,7.72-.85,8.42.3.57.93-.59,2.18-4,8.13-2.64,4.62-3,5.64-3.11,6.2-.2.77-1.67,6.49.89,9.31,2.25,2.49,5.67.56,13.3.59,9.79,0,10.16,3.25,22.9,4,3.68.22,5.73.08,11.09.6s8.19.79,10.78,1.77c5.54,2.09,5.75,4.7,11.53,8,2.21,1.25,5.86,2.21,13.15,4.14,14.26,3.75,16.75,3.23,18.18,2.8a38.37,38.37,0,0,0,8.71-4c2.53-1.63,3.35-2.67,5.47-3.1.57-.11,2-.35,7.39,1.33,3.5,1.1,9.46,3.25,9.46,3.25,2.72,1,3.67,1.35,4.73.89,2.16-.94,1.46-3.87,3.25-5.32,2.77-2.26,8.5,1.5,15.22,4,6.55,2.42,8,1.39,17.58,3.25,12.3,2.38,21.41,6.27,34.73,12,10.32,4.41,12.11,5.92,19.8,8.27A97.48,97.48,0,0,0,836.81,736.09Z"/><path d="M928.57,662.21c-.74.35-5.14,2.45-5.91,6.94-.08.51-.65,3.86,1.33,5.91,1.14,1.18,2.18,1,7.39,1.78a47.37,47.37,0,0,1,9.16,2.07c2.47.89,2.55,1.27,4.29,1.92,6.49,2.42,13.22.1,16.11-.89,6-2.05,4.58-3.42,9.16-4.58,7.27-1.83,11.21,1.5,15.07-1.63,2.06-1.66,1.9-3.39,4.58-4.72,2.9-1.44,5.38-.57,5.76-1.63s-1.72-3.19-4.13-4.29c-4.12-1.87-8.46-.49-10.2,0-6.65,1.89-12.26,1.31-23.49.15-6.75-.69-18.16-2.83-25.42-2.07A11.41,11.41,0,0,0,928.57,662.21Z"/><path d="M1003.64,674.18c-.21,2.08,5.83,5.05,7.09,3.84.72-.68-.14-2.61-.29-3-.26-.59-1.12-2.53-3.1-2.8C1005.67,672,1003.75,673.06,1003.64,674.18Z"/><path d="M1054.33,659.55c-1.47,1.42-.7,4.74.44,6.65.7,1.17,2.43,3.29,4,2.95s1.16-3.09,3.25-4.13c1.66-.84,2.77.49,6.65,0,1.24-.16,2.63-.35,2.81-1,.21-.84-1.48-2.06-2.81-2.66a8.8,8.8,0,0,0-3.69-.74C1058.37,660.55,1055.94,658,1054.33,659.55Z"/><path d="M1082.55,677.13c-.47,1.2,1.8,4.11,3.7,3.55a2.87,2.87,0,0,0,1.62-3.55C1087,675.49,1083.05,675.86,1082.55,677.13Z"/><path d="M1015.61,727.82c-1.42.69-1.59,3.61-1.18,5.61,1,4.8,5.86,7.37,6.8,7.84,4.75,2.38,6.46.15,12.26,1.62,6.59,1.67,12.64,6.64,13.74,11.53a22.4,22.4,0,0,1,.3,6.35,3.56,3.56,0,0,0-.59,3.1,3.06,3.06,0,0,0,1.48,1.78c1.73.82,3.79-.73,4-.89,2.3-1.79,1-4,2.8-6.94,1.24-2,3.83-3.2,9-5.62,2.2-1,2.15-.87,5.47-2.36,6.48-2.94,7.33-3.85,7.83-4.58,2-3,1-7,.88-7.25-.43-1.48-1.38-3.24-17.73-11.08-1.93-.92-4.64-2.18-7.68-1.48-.56.13-1.27.36-4.14,1.93-4,2.17-4.73,2.88-6.06,3.54-2.48,1.23-6.18.77-13.59-.15-5.53-.68-8.29-1-10.05-1.92C1017.82,728.17,1016.62,727.33,1015.61,727.82Z"/><path d="M1070.14,758.26c-1.09,1.15-2.05,3.41-.89,5a3.87,3.87,0,0,0,4.73.89c2.54-1.32,2.91-5.8,1.18-7.09C1073.9,756.13,1071.48,756.83,1070.14,758.26Z"/><path d="M1099.25,743.63c-.81,1.77-.88,3-1.33,7.39-.8,7.81-1.05,8.53-1.77,9-2.3,1.54-5.91-1.59-7.69.15-1,1-.63,2.91-.59,3.1.37,1.64,1.73,2.5,3.7,3.7,2.64,1.61,5,3,8,2.81,2.23-.18,3.07-1.12,5.47-.74,1.37.21,1.62.6,3,.88a10.82,10.82,0,0,0,5.76-.59c4.47-1.44,7.36-4.63,9-6.5,1.81-2,3.08-4.36,5.62-9,2.36-4.32,2.92-6.07,3.25-7.69.49-2.4,1-5-.29-7.09-.66-1.08-1.75-2-7.1-3.55-6.22-1.81-9.33-2.71-12-2.21-4.74.9-7.86,4-9.6,5.76A14.85,14.85,0,0,0,1099.25,743.63Z"/><path d="M1144.32,746.59c-5,3.41-7.06,7.73-9.46,12.85-2.64,5.64-4.73,10.09-2.81,13,2.15,3.25,6.85.9,11.53,5.46,2,2,2.6,3.81,4.73,4.14,1.43.22,2.5-.41,5.32-1.92,4.15-2.23,6.22-3.34,7.09-3.69,5.73-2.33,7.7,1.48,12.86-.45,4.66-1.74,4.58-5.42,9.6-7.24,1.71-.62,3.91-.47,8.28-.29,8,.32,8.78,1.39,12.71.73a23.67,23.67,0,0,0,8.86-3.54c4.89-3.14,7.25-7.1,8.28-6.5s-1,4,.74,6.5a5.26,5.26,0,0,0,3.1,1.92c4.7,1,7.06-5.24,12-4.58,2.31.31,3.23,1.89,6.5,1.77,1.54,0,3.09-.47,3.1-.89,0-1-8.08-1-8.42-3.25-.11-.74.7-1.41,1.48-2.07a7.32,7.32,0,0,1,7.39-1.18c1.89.87,1.56,2,3.54,3.11a8.68,8.68,0,0,0,6.36.44c4.58-1.46,7-6.71,6.2-7.54-.43-.48-2.17.29-3.54.89-2.15,1-3,1.91-3.4,1.62s1.07-2,1.18-4.43c.17-3.53-3-4.32-3.4-8.72-.21-2.16.45-2.88-.29-3.84s-1.85-.8-6.36-1c-5.13-.27-5.78-.56-6.94.14-1.63,1-1.94,2.52-3.25,2.52-.89,0-1.27-.72-2.37-1.63-2-1.69-4.24-2.12-6.94-2.66s-4.18-.83-5.17-.15c-1.61,1.1-.9,3.13-3,4.88a4.09,4.09,0,0,1-3,1.18c-1.5-.2-2.43-1.8-4-5-3.3-6.85-2.76-7.19-4-8.57-2.75-3.12-7.16-3.36-10.64-3.55s-9.12-.49-11.23,3c-1.84,3,0,7,.29,7.53,1.88,3.9,5.79,5.52,11.38,7.83,4.52,1.88,8.83,4.21,13.3,6.21.52.24,1.89.84,2.21,2.07a3.55,3.55,0,0,1-1.33,3.4c-2.61,2.1-6.25-1.48-10,.44-2,1-1.33,2.14-3.55,3.55-4,2.5-9,.81-10,.44-1.29-.46-1.87-.89-6.2-4.28-7.66-6-8.48-6.71-10.64-8a33.64,33.64,0,0,0-8-3.55,28,28,0,0,0-5.32-1A24.34,24.34,0,0,0,1144.32,746.59Z"/><path d="M1176.24,730.33c-3,1.75-3.09,5.75-3.11,6.95,0,1.87.45,5.05,1.78,5.32.93.18,1.57-1.2,5-5.77,3-4,3.88-4.72,3.55-5.61C1182.87,729.57,1178.9,728.79,1176.24,730.33Z"/><path d="M1256.33,728c-1.28.54-1.92,3.07-.89,4.28,1.28,1.5,4.66.47,5-.88S1258,727.25,1256.33,728Z"/><path d="M1274.36,750.72c-2.61,2.76-2.79,7.39-1.63,8,.93.47,2.81-1.59,6.36-5.47,2.4-2.62,3.59-4,3.25-4.58C1281.73,747.55,1277,747.91,1274.36,750.72Z"/><path d="M1264.6,793.28c-6.54-.1-14.43,4.13-14.92,9-.33,3.25,2.68,6.05,6.5,9.61,3,2.77,5.21,4.85,8.57,5.32,2.8.39,3.32-.76,10.79-2.66s9.31-1.32,10.34-.59c1.63,1.15,1.1,2.36,2.81,4.88,2.13,3.13,4.21,3.11,9,6.35a59.67,59.67,0,0,1,8.86,7.68c5.43,5.31,5,6.16,7.24,7,3.81,1.33,7-.46,10.79,1.18a12.52,12.52,0,0,1,3.84,2.66,3.64,3.64,0,0,1,.45.53c.42.57.45.71.59.8.55.38,2-1.43,3.69-2.36,2.18-1.22,3.15-.07,5.62-.89s2.46-2.38,5.61-4.88c4-3.15,6.26-2.41,6.65-4,.72-2.88-7.17-4.35-11.82-12.56-1.46-2.57-1.73-4.28-4.29-8.12-1.6-2.42-4.2-6.25-6.2-5.77-1.39.34-1,2.37-3,3.7-2.25,1.55-6.36,1.26-7.83-.74-2-2.65,1.32-7.49-.44-8.72-.66-.46-1.23.12-3-.15a8.47,8.47,0,0,1-4-1.92c-4.45-3.46-4.34-9-6.8-9.31-1.92-.25-2.3,3.13-6.5,4.88a14.26,14.26,0,0,1-7.09.74c-3.27-.37-3.6-1.38-6.36-1.63-3.34-.3-4.46,1-7.83,1.63C1270.83,795.81,1269.49,793.36,1264.6,793.28Z"/><path d="M1541.82,726.78c-2.12.59-1.53,3.25-4.73,9.31-1.5,2.85-2.51,3.95-2.07,5.47.52,1.76,2.56,2.58,3.85,3.1,4.75,1.92,9.59.59,12.11-.14,2.88-.84,2.51-1.22,7-2.66a38,38,0,0,1,7.39-1.92c5-.67,6.23.61,8.27-.6,2.78-1.64,4.41-6.29,3-9-2.16-4-11.17-4-16.4-2.22-2.76.95-5.78,1.15-8.43,2.37-.69.32-2.09,1-3.25.44-.94-.46-.92-1.37-1.77-2.36A5.37,5.37,0,0,0,1541.82,726.78Z"/><path d="M1534.14,733.58c.3.92-2.21,1.67-4.58,5a28.62,28.62,0,0,0-2.66,5.17c-1.47,3.27-1.56,4.26-2.81,5.17-1.09.79-3,1.5-4.29.74-1.59-1-.91-3.61-2.51-4.29-.94-.4-1.48.4-2.51,0-1.38-.53-2.24-2.65-1.92-4.43.47-2.63,3.48-4.43,5-3.84,1.17.44,1.12,2.11,2.52,2.51a2.93,2.93,0,0,0,2.21-.44c3.3-1.69,3.19-4.51,5.77-5.91C1530.68,732,1533.82,732.63,1534.14,733.58Z"/><path d="M1507.84,734c-2.95.65-3.47,3-8.43,8.13a35.65,35.65,0,0,1-5.47,4.88,29.85,29.85,0,0,1-5.91,3.25c-2.63,1.07-8.31,3.39-9.9,1.48-1.13-1.37.08-4.62,1.78-6.5.33-.37.77-.79,5.61-3.11,2.92-1.4,4.42-2.11,6.21-2.81,3.44-1.33,3.35-.93,4.43-1.62,3.08-2,2.34-4.27,5.17-6.21a8.33,8.33,0,0,1,7.1-1c2.25.74,4.16,2.67,3.84,3.4S1510.18,733.51,1507.84,734Z"/><path d="M1460.84,730.92c-.52,1.2-3.29,1-6.94.74-2.36-.17-3.54-.27-3.84-.89-.68-1.39,1.82-5,4.87-5.17a5.74,5.74,0,0,1,4.14,1.92C1459.46,727.9,1461.36,729.75,1460.84,730.92Z"/><path d="M1477.54,733c-2.32-1.39-5.75.67-8.57,2.36a17.75,17.75,0,0,0-6.65,6.06c-.18.3-.09.18-3,7.54a13.15,13.15,0,0,0-.89,2.81c.19.08,1-2.86,3.69-4.88a12.25,12.25,0,0,1,3.55-1.77,16.13,16.13,0,0,1,3-.59c3.16-.5,4.74-.75,6-1.33a8.16,8.16,0,0,0,4.44-4,5.24,5.24,0,0,0,.44-2.81A4.86,4.86,0,0,0,1477.54,733Z"/><path d="M1489.51,733.58a4.72,4.72,0,0,0-4.58,2.07c-.55.78-1.34,2.38-.74,3.1.83,1,3.74-.34,4.29-.59.78-.36,3.43-1.59,3.25-2.95C1491.6,734.3,1490.28,733.75,1489.51,733.58Z"/><path d="M1458,734.76c1.85-1.08,4.53-1.41,5.17-.44s-.82,2.79-3.55,6.35c-2,2.64-3.05,4-4.58,4.44-.6.19-1.34.3-1.62.88-.45.92.73,1.87.88,3.11.08.61,0,2.37-4.43,5.32a32,32,0,0,1-11.08,4.58c-5.61,1.1-6.11,0-13.16.88a58.25,58.25,0,0,0-10.93,2.37c-7,2.28-7.44,4.07-12.56,4.88a31,31,0,0,1-9.9-.3c-7.15-1-7.14-2.71-11.38-2.66-5.85.07-11,3.34-13.59,5-3.84,2.46-4.11,3.69-6.36,4-4.08.56-5.94-3.12-11.08-5.91-2-1.1-8.68-1.59-21.87-2.51-1.94-.13-.83,0-15.22-.44a23.86,23.86,0,0,0-7,.44c-2.52.61-2.86,1.24-4.28,1-3.4-.49-5.72-4.66-5.91-5-.94-1.74-.77-2.52-1.48-2.81-2.28-.91-6.81,6-7.09,5.77s2-4.16,6-8.87c2.93-3.38,2.1-1.66,9.31-8.57,2.23-2.13,4-3.87,6.21-3.69,1.54.12,1.92,1,3.25.88,2.33-.24,2.39-3.13,5.17-5,1.16-.78,1.13-.28,9.17-1.48,5.08-.76,5.25-1,6.5-.74,1.49.3,3.16,1,4.28.15.67-.51.51-1.09,1-1.33,1.22-.55,2.7,2.32,5.46,3.55,2.33,1,3.08-.21,8.13-.15.92,0,8.29.09,9,2.66.24.85-.46,1.29-.15,2.07.61,1.54,3.78.72,7.24,1.62,4,1,3.79,3.16,10.64,7.1,2.85,1.63,4.28,2.45,5.61,2.51,1.15,0,3.21-.15,11.38-6.06,3.94-2.85,3.51-2.84,4.29-3.1,2.65-.91,5.08-.11,16,4.72a67.89,67.89,0,0,0,7.38,3.11c4.48,1.4,9.91,3.1,12.42.74,2.33-2.2-.21-5.67,2.36-8.57,1.36-1.54,2.23-.76,8.72-3,4.6-1.56,6.93-2.38,8.57-4.29C1456.21,736.7,1456.49,735.67,1458,734.76Z"/><path d="M1337.16,668.86a2.41,2.41,0,0,0-.59,2.51c1.11,3.42,10.47,3.9,10.93,2.51.34-1-3.8-3.07-5.32-3.84C1340.12,669,1338.2,668.05,1337.16,668.86Z"/><path d="M1348.09,683.93c.1,1.28,3.79.8,10.35,3.4,3,1.19,4.57,2.22,6.35,1.48,1.44-.61,2.69-2.24,2.37-3.4s-2-1.13-7-2.51c-4.7-1.31-5.5-1.95-7.53-1.63S1348,682.86,1348.09,683.93Z"/><path d="M1329,606.94c-1.23,2.51.33,4.11.41,9.2.06,4.05-.91,3.71-.7,7.06.29,4.7,2.43,5.36,2.36,9.75-.06,4-1.43,6.86-1.18,6.95.45.15,3.92-9.38,4.43-10.79,2.06-5.64,2.33-7,2.22-8.72-.21-3.2-1.46-3.38-2.22-7.39-1-5.33.52-8.54-.74-9.16S1330.07,604.83,1329,606.94Z"/><path d="M1492.32,575.91c-.19.18-.19.51,1.92,5.47,1.45,3.4,1.7,3.85,2.07,3.84.94,0,2.28-3,1.48-5.47C1496.83,576.8,1493.05,575.23,1492.32,575.91Z"/><path d="M1500.74,587.44c-.66.77.61,3.57,2.81,4.87s5.24,1.12,5.61.15-2.35-3.05-4.13-4C1504.5,588.19,1501.47,586.6,1500.74,587.44Z"/><path d="M1516.11,610.34c-.71.28-1,1.52-.74,2.37.6,2.18,4.69,2.6,5.17,1.77S1517.62,609.75,1516.11,610.34Z"/><path d="M1403.36,567.78a8.55,8.55,0,0,0-3.25,5.32c-1,5.29,3.47,9.7,6.21,12.42,1.8,1.78,3.25,3.19,4.58,2.8,1.84-.54,2.3-4.23,2.81-8.27.36-2.94.57-4.66,0-6.95-.45-1.74-1.44-5.65-4.59-6.65C1406.4,565.59,1403.79,567.47,1403.36,567.78Z"/><path d="M1462,509.71a6.74,6.74,0,0,0-1.48,7.09c.83,1.79,2.09,1.45,5,4.14,2.74,2.51,3.07,4.13,4.14,4,1.38-.18,1.16-2.85,3.55-6.8,2.16-3.57,3.82-3.82,3.69-5.47-.2-2.7-4.91-5-8.87-5C1466.77,507.63,1464,507.61,1462,509.71Z"/><path d="M1440.16,545.47c-7.67,4.15-13.37,3.71-13.75,6.35-.23,1.65,1.94,2.11,3.25,6.06a12.25,12.25,0,0,1,.6,5.77c-.49,3-2,3.63-3.4,6.5-1.73,3.62-2.6,9.65.29,12.11,2.35,2,6.24.84,7.54.45.78-.24,5.33-1.7,6.06-5,.22-1-.13-1.27-.15-2.51,0-3.7,3.07-5.54,5.32-9.46,1-1.72,1.45-3.71,2.36-7.68,1.13-4.89,3.74-16.24.74-17.73C1447.43,539.51,1446,542.32,1440.16,545.47Z"/><path d="M1437.5,584.92a12.14,12.14,0,0,0,5.32,1.19c.74,0,1.36-.11,1.47.14.33.72-4.18,2.09-5,5.18s2.34,7.34,4.14,7.09c1.23-.17,1.29-2.34,2.8-2.51,1-.12,1.41.76,3.85,1.47a3.76,3.76,0,0,0,1.62.3c1.25-.25,1.8-1.76,3-4.43a41.75,41.75,0,0,1,2.51-5.32c1.12-1.75,2.6-4.07,4.73-4.29s2.8,2,4.87,2.07c3.53.1,8.79-6.12,6.8-10.93a7.05,7.05,0,0,0-5.47-4.14c-3-.36-4.63,1.91-5.91,1.33-3.21-1.47-3.79-13,1-16.11,2.06-1.32,4.08-.42,5.47-2.22,1.83-2.36.17-6.35.73-6.5.36-.09,1,1.53,2.66,4.44,1.18,2,1.77,3,2.07,3,.82-.23-2.13-6.6-.29-13.89a16.82,16.82,0,0,0,.88-4.73c0-1.28,0-5.61-2.51-6.94-2.16-1.13-5,.53-6.35,1.33s-2.43,1.7-5.17,5.32-4,5.27-4.73,6.94c-2,4.63.22,6.15-.45,12.86-.8,8.13-4.34,8.5-6,17.14-.23,1.11-.67,3.61-2.66,5.17-1.2.94-2.18.93-3.55,1.48C1441.6,580,1439.45,581.42,1437.5,584.92Z"/><path d="M1449.61,516.8a3.42,3.42,0,0,1,1.33-.74c1.31-.35,2.27.32,2.52,0,.41-.52-1.89-2.84-1.78-2.95s2.3,1.65,4.73,4.58c2.27,2.73,3.41,4.14,3.4,5.91a6.35,6.35,0,0,1-2.66,4.88c-2.67,1.91-5.62.63-10.05.44-2.68-.12-5.93.71-12.41,2.36-10.17,2.6-15.25,3.89-17.59,7.1-.27.37-4,5.66-2.66,11.23.69,2.82,2.35,4.3,1.63,5.46s-3.6.73-8.42,0c-12.18-1.82-12.24-.81-15.81-2.36-3.24-1.4-7.68-3.31-9.61-7.68-3-6.76,1.8-15.43,2.66-17,2-3.64,3.82-4.83,4.29-8.27.11-.86.94-5.94-1.93-8.57-2.48-2.29-4.86-.08-8.57-2.22-3.48-2-3-4.89-6.94-7.83-2.36-1.76-2.7-.84-6.06-2.66-5-2.69-7.73-6.46-10-9.61-2.08-2.82-3.12-4.24-3.25-5.91-.26-3.29,2.15-4.23,5-9.9,2.35-4.62,1-4.58,4.14-11.82,1.73-4.05,2.51-4.92,2.07-6.5-1-3.72-6.84-4.17-6.8-6.8,0-1.3,1.45-1.45,3.11-4.43,1-1.74,1.83-3.31,1.33-4.44-.83-1.82-4.89-1.59-11.09-1.18-5.31.35-8,.56-11.23,1.92-2.88,1.24-2.62,1.86-6.94,4.58-7.91,5-11,4.33-13.15,8.13a9.67,9.67,0,0,0-.89,7.54,8,8,0,0,0,3.55,4.43c2.71,1.45,4.73,0,5.91,1.18,1.41,1.45-.54,4.54-1.48,8.57-1.75,7.51,2.26,8.62,1.33,16.85-.66,5.78-2.74,6.13-4,14.63a47.29,47.29,0,0,0-.59,7.54c0,6.85,1.62,8.15,1.77,15.51.09,4.33-.44,4.84.3,6.8,1.39,3.69,4.27,4.6,4.28,7.68,0,1.21-.43.77-1.48,4.29s-.89,4.88-2.21,5.91c-1.07.83-1.74.36-2.81.89-3.31,1.63-3.83,9.67-1.48,16.25,1.09,3,1.71,2.74,4.44,7.83,1.47,2.75,6.71,12.53,4.58,14.34-1.13,1-3.12-1.36-8.13-2.07-3.4-.49-5.92.09-10,1-4.71,1.08-8.56,1.95-12.85,4.58-2.76,1.69-4.29,3.23-6.06,2.66s-1.47-2.73-3.55-4.28c-3-2.27-6.15.53-10.2-1.18-3.16-1.35-4.6-4.48-5.61-6.65a19.35,19.35,0,0,1-.89-12.86c1.41-5.56,3.61-4.79,5.47-10.49,2.09-6.43-.34-8.55,2.22-15.07,1.49-3.81,2.27-3,4-7.1a32.72,32.72,0,0,0,2.06-15.66c-.44-4-1.1-3.2-2.21-8.87-2-10.36.37-12.06-2.22-16.7-2.26-4-6.1-6.37-5.17-8.57.37-.87,1.17-.95,2.07-2.51a6.64,6.64,0,0,0,1-4c-.52-3.16-5.48-5.09-9.31-5.17a14.61,14.61,0,0,0-4.87.89c-1.17.34-3.59,1.13-10.94,5-2.4,1.27-2.84,1.56-3.69,1.48-2.87-.26-4.68-4.05-5.91-6.65a22.37,22.37,0,0,1-2.37-11.08c.12-1.77.41-2.37.45-4.73,0-3.65-.63-4.27,0-5.91.84-2.2,2.4-2,3.39-4.44.53-1.29,1.07-3.73,0-4.73-1.77-1.64-6.23,2.33-7.83.89s.13-6.87,3.84-9.6a16.74,16.74,0,0,1,3-1.48c7.06-3.24,8-3.38,9.61-4.58a14.06,14.06,0,0,0,4.43-6.36c1.89-5.08-.73-6.86.15-13.44.26-2,1.31-9.9,6.2-12.12,2.08-.94,3.91-.45,5-2.07.85-1.24.65-2.8.29-5.32a37.88,37.88,0,0,0-1.48-5.76,53.39,53.39,0,0,1-1.18-6.95c-1.48-12.74,3.7-24.38,3.7-24.38,4-9.09,7-7.26,16.84-21.13,0,0,3-4.18,3.84-3.7.56.31-.73,2.47.15,4.88.63,1.72,2.31,3.41,3.55,3.1s1.73-2.22,1.77-3.69c.08-3.07-2.27-4-3.54-7.68-.4-1.14-.41-3.12-.45-7.1a97.46,97.46,0,0,1,.45-10.19,34.42,34.42,0,0,1,.88-6.51c.93-3.24,1.68-3.07,2.37-5.91.45-1.87,1.42-5.91-.59-8.57-.81-1.06-1.72-1.41-1.63-2.21.13-1.22,2.3-1.23,3.25-3,.59-1.08.15-1.83,0-4a17.17,17.17,0,0,1,1-7.39c.53-1.32,1.69-4.16,4-4.73,1.2-.29,1.75.26,2.52-.29,1.39-1,1.11-3.9,1-4.73-.13-1.33-.41-1.5-.29-2.36a5.21,5.21,0,0,1,1.92-3.11c3.68-3.29,6-2.54,8-4.87,2.46-3,.61-6.59,2.8-7.69a3.44,3.44,0,0,1,4.14,1.18c1.08,2-2.62,4.49-1.77,6.8s5.56,3.51,9.16,2.22c2.21-.8,4.23-3.24,8.28-8.13a17.11,17.11,0,0,1,4.43-4.28c2.43-1.52,3.18-1,4.28-1.93,3.45-3-1.78-10.38,1.48-14.33,2.48-3,8.26-2.11,9.46-1.92,4.09.63,3.85,2.45,9.31,4,4.31,1.21,5.64.41,8.86,2.22a28.48,28.48,0,0,1,4.59,3.39c2.27,2,2.28,2.51,3.54,3.55,4.15,3.42,10.08,2.88,10.79,2.81,2.72-.28,4.39-1.22,8.13-1.33a5.2,5.2,0,0,1,3.84,1c.73.69.6,1.21,1.18,1.48,1.42.66,2.84-2.12,5.32-2.07,1.57,0,1.73,1.15,4.29,1.92a11.53,11.53,0,0,0,3.84.45c4.17,0,12.36-.15,18.91,2.66a49,49,0,0,1,8.57,5.17c4,2.76,5.9,4.67,7.24,4,1.79-.9-.07-5.07,2.37-7.24.94-.84,2.07-1,6.65-.89a89.19,89.19,0,0,1,9.31.44c5.93.79,7,1.55,14,3,5.71,1.14,9.31,1.87,14.18,1.92a43.82,43.82,0,0,0,11.68-1.18c5.34-1.33,13.6-3.38,18.17-10.05,2.08-3,2.53-5.75,5.32-6.65,3.14-1,6.06,1.29,7.09,0,.83-1-.27-3.47-1.33-4.88-1.62-2.16-3.38-2.23-3.39-3.1,0-1.64,6.3-1.37,12.11-5.17,4-2.61,6.55-6.35,8.87-9.75,2.78-4.07,3.06-5.82,5.76-7.69.62-.43,5.46-3.76,8.72-1.62,2.31,1.51,3.19,5.34,1.92,6.94-.91,1.15-2.58.67-2.81,1.48-.33,1.18,3.21,2.39,5.77,6.35.92,1.43,1.43,2.23,1.18,3.11-.46,1.62-3,1.6-7.54,3.84-2.23,1.1-3.35,1.65-4.13,2.51-2.69,3-.43,6.24-1.63,10.49-.89,3.17-2.72,3.36-14.78,13.15-5.26,4.27-6.87,5.83-7.39,8.43-.8,4,2,5.59,1,8.72s-5.74,4.78-15.07,7.68a87.41,87.41,0,0,1-11.83,2.95c-1.42.25-4.23.71-14.77,1.33-12.25.73-16.58.61-19.51.45-9.27-.51-11.32-1.71-12.12-2.22-2.26-1.46-3.87-3.46-8-5.47a31.48,31.48,0,0,0-4.58-1.77c-10.53-3-18,5.88-25.12,2.07-1.74-.94-3.24-2.53-5.76-2.36-1.92.12-2.53,1.13-4.73,2.06-2.72,1.17-5.07,1-9.46.74-5-.31-6.59-1.31-9.45-.14-1.7.69-1.4,1.15-2.81,1.62-3.46,1.15-7.23-1-11.08-3.25-4.19-2.45-4.55-3.62-6.21-3.4-3.08.41-3.6,4.7-7,5-1.83.17-2.14-1.08-4.72-1.33-1.13-.11-2.13,0-6.65,1.77-6.4,2.48-7.67,3.49-9.61,2.81-1.49-.53-1.76-1.48-3.4-1.63-1.9-.17-2.67,1-4.28,1.33-2.81.57-4.42-2.16-8.13-4.14-5.51-2.93-11.35-1.89-12.86-1.62a21.25,21.25,0,0,0-9.9,4.73c-6.39,5.33-3.47,9.08-10.78,19.35-1.38,1.93-3.82,5.09-4.29,9.61a26.47,26.47,0,0,0,0,4.28,41.78,41.78,0,0,0,1.33,8.13c2,8.07-1.13,8.89.89,14.48,2.27,6.29,6.58,6.35,8.42,12.56.25.84.77,2.87,2.36,3.55,1.27.54,2.3-.14,3.85-.3,3.15-.31,5.8,1.85,6.79,2.66,2.07,1.69,3.38,5.44,5.91,12.86.83,2.42,1.54,4.69,3.7,6.35.55.43,2.42,1.87,4.14,1.33s1.59-2.2,2.8-2.36c1.53-.21,2.22,2.38,4.73,3.84a9.05,9.05,0,0,0,6.36.74c4.07-1,4-5,8.86-10.79,5.25-6.25,7.48-4.17,12-10.34,2.55-3.5,3.23-6.09,6.8-8.28,2-1.21,5.26-2.55,6.65-1.32s-.52,3.56.89,6c1.6,2.85,6,3.17,7.09,3.25s1.72,0,6.65-1.18c5.31-1.28,8-1.94,9-2.66,3-2.09,2.52-4,5.47-5.76,1.91-1.16,2.82-.8,7.09-1.48,8.91-1.42,10.71-3.88,14.78-2.51,2.37.8,2.15,1.76,4.88,2.51,4.35,1.2,8.82-.2,8.86-1.18,0-.72-2.34-.6-3.25-2.36-1-2,.35-5.53,2.51-6.36,1.15-.44,1.72.18,4,.44,2.65.31,3-.39,6.51-.59s3.22.48,7.83.45c2.87,0,3.4-.28,5.32,0,2.08.3,3.76.55,5.17,1.77,2.38,2.07,2.81,5.95,1.92,8.72-.68,2.1-1.6,1.93-3.4,5.17-2.11,3.8-1.4,5-2.81,5.91-2.82,1.77-9.17-1-10.93-5.17-.63-1.49-.2-2-.89-2.81-2.16-2.44-9.59-.7-14.77,3.25-1.7,1.3-1.84,1.82-8.72,11.53-4.09,5.76-5.67,7.87-7.54,10.19-4.94,6.13-7.06,7.72-7.83,8.28a32.06,32.06,0,0,1-9.46,4.43c-8.78,2.93-11.93,1.38-15.51,4.88-1.57,1.52-1.19,2-3.85,4.88a34.13,34.13,0,0,1-6.5,5.46c-3.37,2.18-5.05,3.28-6.5,3.11-4.23-.5-4.75-7.2-9.16-7.69-2.07-.22-4.45,1-4.73,2.37-.47,2.34,5.43,3,8.87,8.86,2.13,3.64,1.52,6.24,4.43,8.43,1.64,1.23,2.68,1,4.73,1.77,5.07,1.8,5.1,5.24,12.41,13,4.69,5,6.63,5.65,7,8.57s-1.36,5,0,6.95c.75,1.09,1.61.93,4.87,2.22.47.18,7.71,3.07,7.39,5-.11.65-1,.93-.89,1.33.21.62,2.45-.08,3,.74s-1.17,2-1.92,4.73a5.29,5.29,0,0,0-.3,3.1c.89,2.69,5.23,1.84,7.1,4.88,1.17,1.92.92,4.68-.15,5.32s-2.21-.95-3.55-.59c-2.2.58-2.59,5.6-2.81,8.12-.38,4.48.45,6.14-1,8.13-1.08,1.45-2.25,1.53-2.37,2.66s1.34,2.4,4.29,4.58c3.15,2.33,4.72,3.5,6.8,3.84s3-.22,3.84.59c1.46,1.38-.11,3.92,1.33,5.18,1,.87,2.08-.05,4.43.88a5.08,5.08,0,0,1,2.51,1.63c1.3,1.88-.6,3.83-.14,8.27.15,1.5.33,3,1.47,3.7S1449.16,517,1449.61,516.8Z"/><path d="M1469.56,485.18c-1.82.58-3.23,2.77-2.66,3.84s3.33,1.22,4.73-.15c.82-.8,1.42-2.35.74-3.25S1470.31,484.94,1469.56,485.18Z"/><path d="M1467.64,392.23c-1.8.64-2,7.19-.29,7.83,1.14.45,4.08-1.53,3.84-4.28C1471,393.52,1468.75,391.84,1467.64,392.23Z"/><path d="M1503,397.4c-.66.8,2.42,2.94,3,7.24.12.95.1,1.84.45,1.93s1.48-1.41,1.77-3c.06-.3.57-3.32-1.62-5.17C1505.33,397.45,1503.42,396.84,1503,397.4Z"/><path d="M1490.4,378.78c-2.39.34-4.2,8.79-1.92,10.35,1,.69,2.77-.05,3.69-.74a5.31,5.31,0,0,0,1.77-4.73C1493.71,381.17,1491.81,378.58,1490.4,378.78Z"/><path d="M1477.39,377.9c0,1.72-.53,5.11-2.51,5.61a2.7,2.7,0,0,1-3-1.33c-.49-1.12.53-2.16,1.33-4,1.91-4.41.31-8.42,1-8.57s2,3.78,2.22,4.29A11.41,11.41,0,0,1,1477.39,377.9Z"/><path d="M1480.35,376.57a6.29,6.29,0,0,0,3.84,1.48,6.88,6.88,0,0,0,4.58-1.19,7.57,7.57,0,0,0,2.66-4.58c.57-2,1.43-5.17-.29-7.39-2.08-2.67-7-2.88-9.9-.59-2.5,2-2.62,5.24-2.66,6.5S1478.43,374.8,1480.35,376.57Z"/><path d="M1475.33,366.52c-5.19,2.11-7.62,4.83-8.87,6.94a52.68,52.68,0,0,1-4.73,7.84c-2.09,2.72-2.81,2.91-3.25,2.8-1.2-.29-.79-2.93-2.22-7.53-1.37-4.43-2.59-4.7-2.51-7.1.12-3.62,3-7.34,5.47-7.24,1.75.08,1.87,2.1,3.84,2.37,2.48.34,3.41-2.71,7.68-4,1.15-.35,3.78-1.13,5,.15C1476.83,361.84,1476.66,364.18,1475.33,366.52Z"/><path d="M1540.49,385.73c-3.12,1.9-4.11,5.66-4.87,8.57-.61,2.28-1.78,6.74.59,9.16a5.57,5.57,0,0,0,3.25,1.48c4.68.69,6.43-3.73,13.15-5.76a27.9,27.9,0,0,1,9.31-.89c5.43.15,5.92,1.34,9.6.74,4.21-.68,5-2.46,8.43-2.07,2.54.29,4,1.45,5.17.59s1.09-3.1,1-3.84c-.13-1.75-1-4.32-3.1-5.32-1.78-.86-3,.11-6.8.59a40.8,40.8,0,0,1-7.09,0c-4.76-.22-6.83-.92-14.63-2.36C1543.34,384.55,1541.81,384.92,1540.49,385.73Z"/><path d="M1589.26,391.64c-2,.67-3.22,5.65-1.33,8.13,1.74,2.29,5.69,1.88,12.41,1.18,4.43-.46,4.92-1,9.75-1.63,6.12-.83,6.86-.24,13.15-.88s14.25-2.13,14.19-3.11c0-.48-2.13-.68-5.76-1A90.47,90.47,0,0,0,1619,394c-1.13.06-1.44.08-8,.6-9.56.75-14.38,1-17-.3S1590.59,391.2,1589.26,391.64Z"/><path d="M1617.33,403.46c-1.28-.11-2.61,1.27-3.25,2.51-1.11,2.16-.39,4.36,4.29,15.08,2,4.66,2.87,6.47,3.69,6.35,1-.15,1.33-3.1,1.48-4.43.17-1.56.43-5.46-2.22-12.86C1619.05,403.75,1617.73,403.5,1617.33,403.46Z"/><path d="M1750.62,162.15c-7,3.25-9.21,12-9.6,13.6-1.11,4.47-.5,7.61.59,13.15a4.07,4.07,0,0,0,1.18,2.51c2.93,2.49,10.06-1.85,10.64-2.22a22.15,22.15,0,0,0,5.32-4.72c2.11-2.46,4.8-5.61,5.47-10.35.25-1.79.88-6.3-2.07-9.75a9.71,9.71,0,0,0-5.91-3.25A9.93,9.93,0,0,0,1750.62,162.15Z"/><path d="M1727.87,187.42c-3.12,3.84-6.41,7.92-5.92,11.82.35,2.68,2.41,4.85,3.55,6.06,2.23,2.35,3.8,2.49,4.14,4.14.44,2.19-2.11,3-2.51,6.06-.43,3.23,2.14,4.43,2.21,7.39.05,1.9-.95,3.69-6.5,8.57-9,7.95-15.94,11.58-15.37,15.51a7.9,7.9,0,0,1,.15,3.55c-.35,1.57-1.38,3.46-2.36,3.4-.69,0-1-1-2.37-4.29-2.16-5.22-2.84-6.44-4.14-6.94s-1.82.21-2.51-.3c-1.18-.87-.93-3.92,2.51-12.85s4.18-8.38,5.32-12.71c2-7.44-.21-8.89,2.22-14,.84-1.79.81-1,7.54-9.16,4.29-5.23,5.36-6.84,8.12-8.28,3.35-1.74,7.57-2.39,8.13-1.33C1730.4,184.63,1729.39,185.54,1727.87,187.42Z"/><path d="M1740.57,222.59c-2.52,2-6.42,5.17-5.76,7.83.31,1.27,1.39,1.33,1.92,3.11a5.68,5.68,0,0,1-.74,4.87c-1.31,1.71-2.93,1-6.94,2.51-2.54,1-5,2-6.06,4.14-1.1,2.39.76,3.66-.15,6.21-1.12,3.12-5.42,5.46-8.72,4.73-2.73-.61-3.1-3-5.17-3-3.26,0-5.62,5.81-6.06,7-2,5.07-2.18,12.86,1.92,16.1,2.16,1.71,3.91.89,5.77,3,.93,1,1.81,2.73,1.77,7.83,0,4-.62,7.67-2.51,16.55-1.17,5.47-1.53,6.78-.59,8.13,1.36,2,3.76,1.56,8,4.58a20.57,20.57,0,0,1,3.1,2.66c4.34,4.67,2.28,8.33,5.91,12.41,2,2.27,2.58,1.07,7.54,5.17,2.84,2.36,4.87,4.44,4.87,4.44,2.71,2.76,2.64,3.26,4.14,4.13a18.52,18.52,0,0,0,6.21,1.93h0s-2.7-3.79-4.58-6.36c-2-2.73-3.83-5.06-7.39-9.6-5.11-6.52-4.92-6.12-5.32-6.8-2.48-4.17-2.39-6.82-3.84-13.45-.85-3.83-.58-1.58-4.88-16.7-2.42-8.5-3.3-12-1.48-15.51a9.18,9.18,0,0,1,4-4.14c2.34-1.13,4.29-.55,14.63,1.92,3.29.79,3.84.91,6.8,1.63,6.57,1.59,9.88,2.4,11.08,2.95,3.38,1.55,4.35,2.84,8,3.7,2.72.64,4.69.51,4.73.29.06-.38-5.89-.37-8-4-.44-.76-.47-1.27-.74-4.43-.48-5.55-.72-8.34-1-8.72-2.52-3.09-9.24,2.35-15.82-.74-4-1.88-7.18-6.55-6.35-10.19.59-2.59,3.08-4,6.06-5.77,1.42-.82,2.89-1.49,11.23-4.13,5.17-1.64,6.14-1.88,7.09-3.11,1.35-1.74.59-2.84,1.33-8.13.89-6.35,2.29-6.91,1.48-9.6-.88-2.93-2.93-3.61-2.81-6.21s2.06-3.28,1.63-4.28c-.85-1.95-9-.81-15.67,1.92A36.52,36.52,0,0,0,1740.57,222.59Z"/><path d="M1690.77,255.1c-.18.31.12.79.45,1.33,1.33,2.17,3,2,3.84,3.4,1.3,2.1-1.17,4.93-.15,5.76.69.56,2.48-.15,3.4-1.33,1.49-1.91.68-5.1-.89-6.94C1695.27,254.78,1691.28,254.27,1690.77,255.1Z"/><path d="M1695.8,278.74a3.23,3.23,0,0,0-3,2.22c-.31,1.43.71,3.07,1.63,3.1.21,0,.49-.06,1.48-1.18,1.55-1.76,2.38-2.69,2.07-3.4S1696.42,278.7,1695.8,278.74Z"/><path d="M1694.76,291.6c-1.83,1-2.15,5.17-.29,7.68,1.47,2,4.23,2.81,4.73,2.22s-1.81-2.14-1.92-5.17c-.09-2.18,1-3.34.29-4.29A2.42,2.42,0,0,0,1694.76,291.6Z"/><path d="M1685.16,311.4c-2.18.32-3.15,3.91-3.69,5.91-.74,2.71-1.75,6.45.29,8.13s5.65.59,7.69-1.48a7.28,7.28,0,0,0,1.92-5.32,7.63,7.63,0,0,0-1.92-4.43C1688.67,313.24,1687,311.14,1685.16,311.4Z"/><path d="M1693.88,317.61c1.74-.3,3,3,4.87,2.51,1.32-.33,1.11-2.07,2.66-3.1,2.54-1.69,7.6,0,8.13,2.21.19.78-.42,1.77-1.62,3.7-2,3.23-3.28,4-3,5s2,.76,3.25,2.51a4.68,4.68,0,0,1,.89,2.81c0,.86-.39,1.7-3.55,4.88-3,3-3.44,3-3.69,3-1.56-.38-2.32-4.51-2.51-6.35a5.06,5.06,0,0,0-.6-2.51c-.67-1.09-1.64-1.36-3-2.07a13.14,13.14,0,0,1-4-3.11C1689.7,324,1691.66,318,1693.88,317.61Z"/><path d="M1687.67,333.86c3.49.7,6.3,4.62,5.62,5.62-.5.72-2.34-.78-6.21-.45-2.51.22-3.45,1-4,.45-.95-1,.46-4.94,3-5.62A3.45,3.45,0,0,1,1687.67,333.86Z"/><path d="M1712.05,335.34a7.28,7.28,0,0,1,4.73.59c1,.47,2.86,1.34,3.11,2.81.48,2.85-5.37,6.56-7.16,5.39-.36-.23-.31-.51-.68-1.25-1.4-2.83-4.17-2.88-4.28-4.29S1710.16,335.78,1712.05,335.34Z"/><path d="M1701.86,360.76c1-.61,1.83.29,6.2,1.62,2.14.65,3,.76,3.11,1.33.19.89-1.47,2.14-3,2.66-2.61.92-6.58.29-7.39-2.07A3.19,3.19,0,0,1,1701.86,360.76Z"/><path d="M1706,370.07a11.56,11.56,0,0,0-7,3.39,10.55,10.55,0,0,0-2.81,8.43,8.73,8.73,0,0,0,3,5.61c3,2.28,6.1.33,12.41,0,10.57-.54,15,4.27,19.06,1a6.5,6.5,0,0,0,2.52-5.77c-.15-.84-.68-2.25-6.65-5.76a53.6,53.6,0,0,0-10.94-5.17C1711.16,370.36,1708.94,369.61,1706,370.07Z"/><path d="M1797.91,297.36c-.62.71.61,3.16,2.22,4.73,2.1,2.06,3.55,1.32,5.91,3.55,1.67,1.57,2.21,3.14,3,2.95s.89-1.33.89-2.21c0-2.79-3-4.82-5-6.21C1803,298.9,1798.76,296.39,1797.91,297.36Z"/><path d="M1857.61,302.68c-3.51.65-7.77,2.69-7.54,4.14.26,1.67,6.15.23,9.46,4.14,1.68,2,2.7,5.38,1.48,7.24-.85,1.28-2.45,1.37-2.66,2.66-.17,1,.65,1.92,1.18,2.51,1.9,2.11,5.62,3.82,7.09,2.51,1.13-1,.94-3.71,0-5.46-.7-1.31-1.78-2-1.52-2.9.16-.54.65-.63,1.37-1.24a6.2,6.2,0,0,0,1.93-3,9.4,9.4,0,0,0-.15-5.32,8.71,8.71,0,0,0-4.14-4.87C1861.72,301.92,1859.48,302.34,1857.61,302.68Z"/><path d="M1871.94,299.87c-1.44,1.21-1.26,3.6-1.18,4.73a8.92,8.92,0,0,0,3.84,6.65c2,1.3,2.87.55,5,2.07s1.67,2.58,3.25,3.4c2.42,1.25,4-1,8.86-.89,2.64.08,3,.76,5.77.6,2.17-.13,4.29-.25,5.17-1.63,1.25-2-.69-5.35-2.37-7.09-1.17-1.23-2.52-1.74-5.17-2.81a65.05,65.05,0,0,0-7.68-2.37c-3.1-.84-4.65-1.27-6.06-1.62C1873.76,299,1872.67,299.27,1871.94,299.87Z"/><path d="M1872.68,314.21c-.89.49-.73,1.2-1.92,3.4-1,1.89-1.71,2.4-1.48,3.25a2.39,2.39,0,0,0,1.33,1.33c1.8.84,3.92-.25,6.21-1.48s3.65-1.95,3.69-2.95c.08-1.74-3.26-3.12-5-3.55A3.73,3.73,0,0,0,1872.68,314.21Z"/><path d="M1864.7,339.33a7.26,7.26,0,0,0-6.21,1.48c-.92.83-2.52,2.8-1.92,4.13.84,1.86,5.45,1.43,9.76,1a24.58,24.58,0,0,0,8.27-1.77c1.47-.64,3.45-.89,5-2.52a6.92,6.92,0,0,0,.73-.88,24.83,24.83,0,0,0-4.58-.74c-3.44-.23-4.75.4-8.12-.15A28.92,28.92,0,0,1,1864.7,339.33Z"/><path d="M1821.85,359.43c7.1.26,9.7.1,9.75.59,0,.32-1.13.51-4.58,1.77-4.55,1.66-5.13,2.28-6.65,2.07-2.78-.39-5.16-3.11-4.73-4.14C1815.91,359.09,1817.16,359.25,1821.85,359.43Z"/><path d="M1873,346.87c-2.72,1.06-4.1,1.62-4.88,3.1-.93,1.75-.37,3.58.74,7.24a23.32,23.32,0,0,0,4.28,8.42c2.07,2.46,3.4,2.85,3.85,3a7,7,0,0,0,4.58-.74,12,12,0,0,0,4.73-4.29c.43-.58.56-.83,3.25-6.5,1.23-2.6,1.84-3.92,1.47-4.73-.59-1.31-2.17-.89-4-2.51s-1.13-2.92-2.51-4.14C1881.89,343.38,1876.56,345.46,1873,346.87Z"/><path d="M1840.47,388.39c-10.43,4.2-16.13,2-18.62,6.5-.9,1.64-1.35,4.11-.3,5.62s2.81.8,7.69,2.21c3.69,1.07,4,1.87,6.94,2.22,1.48.18,1.23,0,5.17,0,2.79,0,3.86.15,6.8.15,4.51,0,5.12-.3,5.32-.74.56-1.22-2.47-2.77-2.07-4.73s3.75-1.66,4.58-3.84-1.68-5.81-4.43-7.39a9.67,9.67,0,0,0-3.84-1.18A14.27,14.27,0,0,0,1840.47,388.39Z"/><path d="M1627.68,463c-1.59-.74-3.89.24-4.88,1.19-3.07,2.91-.91,12.3,4.14,18.76,3.7,4.74,4.83,2.62,15.51,11.38,3.5,2.87,5.75,5,10,6.8,2.61,1.07,5.66,2.31,9.31,1.77,4.48-.66,4.64-3.25,10.79-6.2,6.6-3.18,8.72-1.31,11.67-4.44,2.28-2.41,2.81-5.42,3.7-10.49s0-6-.3-6.21c-1.65-1.53-4.19.81-7.09-.73-1.43-.77-1.34-1.62-4.43-5.77-1-1.36-2.24-2.89-3-3.69-4.43-4.93-11.27-5.93-12.26-6.06-5.5-.73-5.37,1.71-12.71,2.07-8.36.41-14.28-2.47-16.41.44-.9,1.23-.89,3.18-1.77,3.25S1629,463.63,1627.68,463Z"/><path d="M1705.26,471.29c-2.46-1-5.48-.38-5.62.44-.11.65,1.67.76,5.32,3.25,1.14.78,2.08,1.53,2.81,1.19a1.7,1.7,0,0,0,.74-1.48C1708.53,473.08,1706.55,471.8,1705.26,471.29Z"/><path d="M1711.17,467.3a3.9,3.9,0,0,1,3.54-1.92c.33,0,1.84.12,2.37,1.18s-.28,2.55-1.18,3.25c-1.69,1.3-4.66.74-5.18-.59A2.36,2.36,0,0,1,1711.17,467.3Z"/><path d="M1724,451.78a4.5,4.5,0,0,0-4,3.25c-.32,1.39.09,3.24,1,3.55.59.19,1-.35,3.54-2.36s3-2.24,3-2.81C1727.46,452.44,1725.58,451.67,1724,451.78Z"/><path d="M1723,463c-1.74.51-3.18.95-3.55,2.07-.48,1.47,1.47,2.29,2.51,5s-.25,3.9,0,9.9c.14,3.09.6,5.32.89,5.32.48,0-.65-6,2.81-9.9,1.2-1.35,1.77-1.11,3.1-2.81,1.17-1.5,1.72-3,2.81-6.06.93-2.58.83-2.9.74-3.1C1731.35,461.43,1726,462.15,1723,463Z"/><path d="M1732.89,486.07a13.58,13.58,0,0,0-6.06,4.13c-.45.57-3.31,4.16-2.07,6.06,1,1.45,3.78,1.17,5,.89a10.55,10.55,0,0,0,4.28-2.37c1.14-1,1.86-1.91,2.07-1.77s-1.46,2.61-.74,3.55c.54.69,2.26.36,3.4-.15,1.52-.67,1.83-1.57,4.29-4.73,2.31-3,2.88-3.27,3.1-4.58s0-3.7-1.33-4.43-2.75,1-7.69,2.36C1734.7,485.74,1734.66,485.4,1732.89,486.07Z"/><path d="M1751.66,484c-.16,0-2.62.72-3.11,2.8a3.29,3.29,0,0,0,.45,2.52c1.63,2.19,6.8,1.28,7.53-.59.35-.89-.35-1.87,0-2.07.94-.56,3.48,2.64,2.66,1.92a3.58,3.58,0,0,0,3.25-3.55,3.36,3.36,0,0,0-3.1-2.66c-1.67-.09-2,1.46-4.28,1.77C1753.41,484.38,1753.14,483.61,1751.66,484Z"/><path d="M1734.37,457.55c-.25,5.63.87,10.91,1.92,10.93.63,0,.77-1.86,1.92-2.07.91-.16,1.83.84,2.81,2.07,3,3.85,3.24,5.61,5.61,8.42a10.81,10.81,0,0,0,4,3.4,10,10,0,0,0,6.5.45,9.44,9.44,0,0,0,3.85-1.92c2-1.72,2.16-3.53,3.1-5.32,2.92-5.55,11.58-7.53,12.71-6.06.32.42.07,1.22-.45,2.8-.71,2.23-1.49,2.66-1.33,3.26.43,1.51,5.82,0,12,1.18,1.4.27,1.32.39,13.3,5.32,4.27,1.75,6.43,2.61,7.69,1.77,2.38-1.6,0-6.23,2.66-8.72,1.53-1.42,4.07-1.14,9.16-.59,3.91.42,7,.8,10,3,1.92,1.36,2.09,2.23,3.84,4,3.5,3.52,6.18,3.46,11.53,6.05a69.2,69.2,0,0,1,14.48,10c2.35,2,4.72,4.33,8.57,5,1.12.2,4.1.74,5.76-.89,1.37-1.35.45-2.82,1.48-6.06,1.25-3.94,3.3-3.9,3.4-6.35.12-3.21-3.25-6.48-6.36-7.83-2.88-1.26-4.08-.24-5.61-1.63-2.15-1.94-.38-4.44-1.92-8.72-1-2.73-3.17-4.82-7.54-9-2.68-2.57-4-3.86-4.88-4.29-6.76-3.4-12.25,3.43-20.54.45a35.32,35.32,0,0,1-6.2-3.4c-4.27-2.64-5.09-3.8-8-5-2.39-1-4.21-1.23-7.54-1.62-6.2-.74-9.64-1.15-12.12.88-2.24,1.85-1.29,3.74-3.84,5.47-2.24,1.53-5.75,2-7.68.45-1-.79-.68-1.38-2.51-4.14-1.38-2.08-2.09-3.12-3.11-3.25-1.51-.21-2.36,1.62-4.28,2.95-2.51,1.74-5.28,1.53-8.72,1.33-15-.85-5,.56-20.69-.59-7-.51-9.61-.83-11.38,1C1734.62,451.75,1734.54,453.69,1734.37,457.55Z"/><path d="M1404.54,853.28c-4.39.9-9.74,3.31-9.45,4.87s5.93,1.7,8.12,1.63a9.93,9.93,0,0,0,4.58-.89c2.46-1.25,4.64-4,4-5.32C1411,852,1406,853,1404.54,853.28Z"/><path d="M643.82,448.53a3.23,3.23,0,0,0-3.1,2.51c-.33,1.52.5,3.23,1.47,3.4,1.65.3,4.33-3.64,3.4-5.17C645.16,448.56,644,448.54,643.82,448.53Z"/><path d="M654.9,436.27c-1.28,2-.69,3.27-1.47,10.64a24.73,24.73,0,0,1-.89,5c-1,3.2-1.8,3-1.92,4.58-.28,3.58,3.86,4.73,4.14,9.31.12,2-.63,2.79,0,3.4,1.36,1.35,6.91-.43,9-4.29,1.59-2.91.38-5.5,1.48-5.91,1.44-.53,5.45,3.29,5.91,7.69.2,1.93-.37,3.2.44,3.84,1.14.9,3.74-.45,5.17-1.48,2.26-1.61,2.87-3.26,5-6.65,3-4.69,3.31-3.83,5-6.94,1.79-3.26,4-7.25,2.66-10.79-.38-1-1-1.9-6.65-5.62-5.32-3.5-8-5.26-9.9-5.91s-8.09-2.73-13.89,0A9.06,9.06,0,0,0,654.9,436.27Z"/><path d="M610.13,451.78c-1.18.36-2.47,1.5-2.37,2.66.15,1.63,2.93,2.29,3.26,2.37,2.07.49,4.88,0,5.17-1.18C616.56,454.12,612.93,450.94,610.13,451.78Z"/><path d="M609.09,436a27.73,27.73,0,0,0-7.24,6.5c-.2.28-3.53,4.91-1.92,9.17.21.55,1.38,3.62,4.14,4.87.92.42,1.91.58,2.36,1.48a3,3,0,0,1-.29,2.81c-1.59,2.43-7.54,2.67-11.08,0-2.38-1.79-1.6-3.33-3.85-5.91-2.73-3.17-6.57-4-12.7-5.18-8.74-1.71-10.49-.12-12.86-2.36-3.8-3.59-3.06-11.25-3-12.27.45-4.1,2-6,.74-8.27s-3.2-1.32-5.17-3.69c-2.23-2.7-.42-4.62-2.66-8.13a14.11,14.11,0,0,0-6.06-4.88c-1.76-.86-2.89-1.41-4.43-1.33-2.69.15-3.1,2-6.06,2.81a10.74,10.74,0,0,1-6.8-.74c-3-1.33-3.11-3.09-6.35-4.14-2.08-.66-3.32-.35-3.55-1-.36-1.08,2.37-3,4.73-4.58,2.78-1.91,3.46-1.93,5.62-3.55,2.35-1.77,4.69-3.54,4.43-5.32s-3-2-3.1-3.69c-.07-.79.43-1.5,3.84-4.29s5-4.06,6.21-4.14c3-.18,6.12,2.23,6,4,0,.79-.68,1.26-.44,1.63.36.55,2.41.41,3.4-.74,1.25-1.45-.24-3.31,1-5,.5-.67,1.37-1,3.11-1.63,2.22-.82,3.33-1.23,4.73-1.18a8.43,8.43,0,0,1,6.2,3.25c1.49,1.95.52,2.66,1.92,5.62,1.49,3.13,3,3.17,5.17,6.94a20,20,0,0,1,1.93,4.29c1.39,4.63-.34,6.88-.15,11.23s2.2,7.57,4.73,11.52c3,4.62,5,7.79,8.86,9.46,4.63,2,8.6.41,16.7,2.66,1.31.36,3.49,1,3.55,2.07C610.91,435,609.79,435.56,609.09,436Z"/><path d="M720.37,381c-2,.3-3.46,2.85-2.66,4.43s3.57,2,5,.6a3.1,3.1,0,0,0,.44-3.85A2.94,2.94,0,0,0,720.37,381Z"/><path d="M347.17,196.88c.71,5.37-3.41,9.62-7.31,11.08-.62.23-5.93,2.12-9.53-1.11-3.15-2.82-2.56-7.35-2.44-8.2.62-4.77,4.76-10.9,10.64-10.42C342.87,188.59,346.59,192.42,347.17,196.88Z"/><path d="M362.69,215.5c7.78,1.72,9.89,2.53,14.4,3.54,7.23,1.63,8.19,1,9.31,2.44,2.46,3.24,1.23,10.89-2.66,14-.81.64-1.8,1.13-2,2.21-.34,1.91,2.14,3.83,3.77,5.1,2.08,1.62,3.9,3,5.1,2.44,1.95-1-.46-6,2-8.42,2-2,6.09-.89,9.31,0,2.36.65,8.11,2.22,11.75,7.53,2,2.87,3.8,7.55,2.21,9.09-.89.87-2.59.46-3.54.22-7-1.76-10.19-9.68-10.86-9.31s.41,6.09,4.65,8.87c2.52,1.65,4.67,1.25,5.54,3.1s-.08,4.58-1.55,5.1c-1.12.4-2.08-.67-4.21-1.77-1.64-.85-3.55-1.25-7.31-2-8.4-1.68-9-.72-12.64-2a23.12,23.12,0,0,1-8.42-5.54c-2.24-2.11-7.29-6.84-8.2-13.75-.55-4.15,1-4.52,0-8.2-1.35-4.93-5.25-8.3-6.43-9.31-3-2.53-5.73-3.48-5.54-4S359.47,214.79,362.69,215.5Z"/><path d="M417,263.82c1.72-1.85,5.47-1,6.87,1.11a3.92,3.92,0,0,1,.45,3.32,4.32,4.32,0,1,1-7.32-4.43Z"/><path d="M426.52,241.65c-.23.26,1.51,3.06,4.44,4.88,1.38.86,2.41,1.11,2.44,1.77,0,.86-1.65,1.23-3.33,2.44-2.2,1.59-4.72,4.85-4,7.32.55,1.84,2.74,2.61,6.65,4,2.23.78,3.36,1.16,4.21.66,2-1.18,1.35-6,.67-8.42-1.42-5.15-5.09-8.27-7.1-10C428.94,243,426.74,241.42,426.52,241.65Z"/><path d="M454.9,252.29c2.31.61,3.69,3.07,3.32,3.55s-2.48-1.42-4.43-.59c-1.53.65-1.65,2.44-2.44,2.36s-1.81-2.23-1.11-3.77S453.33,251.88,454.9,252.29Z"/><path d="M481.27,281c.31,1.85-.56,2.74-.15,3.25.76.93,5-.29,5.18-1.92.15-1.82-4.88-3.81-5.47-3.1C480.63,279.43,481.08,279.82,481.27,281Z"/><path d="M489.25,288.94c.68,2,2.42,2.4,7.54,5.32,2.45,1.4,3.46,2.12,3.84,1.77s-.51-2.35-1.18-3.4c-2.92-4.53-8.91-7.24-10.2-5.91C488.7,287.29,489.11,288.5,489.25,288.94Z"/><path d="M483.93,291.3c2.44.75,2,3.6,4.44,5.47,2.13,1.61,3.48.27,6.5,2.22a14.4,14.4,0,0,1,3.1,2.95c3,3.4,3.62,5.74,4.88,5.62.92-.09.86-1.38,2.07-1.92,2.2-1,6.77,1.33,6.65,4-.1,2.14-3.25,4.16-5,3.54-1.51-.52-1.17-2.63-3-3.39-.88-.38-1.43-.06-4.73.73a29.5,29.5,0,0,1-5.47,1c-.53,0-4.91.2-5.32-1.18-.33-1.11,2.27-2,3-4.44.51-1.84-.35-3.54-1.19-5.17-3-5.91-8.35-8.37-7.82-9.35C482.24,291,483.27,291.1,483.93,291.3Z"/><path d="M481.57,319.09c1.25-.49,9.43-3.67,11.38-.89.56.8.27,2.06-.3,4.58s-1.13,5-3.1,7.24c-1.21,1.4-4.1,4.05-5.91,3.25-1.24-.55-.59-2.09-2.52-4.43-.88-1.07-1.28-1.08-3.25-3.11-1.26-1.31-1.9-2-1.92-2.51C475.88,321.29,479.93,319.72,481.57,319.09Z"/><path d="M460.58,246.38c-1.92.89-2.67,2.27-3.84,1.92a2.48,2.48,0,0,1-1.47-1.92c-.25-1.22.47-2,1.92-4.58,1.81-3.21,1.36-3.15,2.06-3.84,1.05-1,2-1.1,6.8-1.92,5.1-.88,6.3-1.19,6.65-.59s-.49,1.3-2.07,3.84c-2.75,4.43-2.27,5.48-3.84,6.35C464.65,246.84,463.47,245.05,460.58,246.38Z"/><path d="M466.05,248.75c-.24.8,1.36,1.3,3.25,3.84a21,21,0,0,1,2.81,5.76c1.86,4.87,1.73,7,3,7.24,1.06.23,2.58-1,2.8-2.36.28-1.63-1.6-2.16-2.95-5.32a19.49,19.49,0,0,1-1.18-4.88c-.45-2.85-.13-3.38-.74-4.14C471.36,246.85,466.45,247.43,466.05,248.75Z"/><path d="M475.36,239.29a5.28,5.28,0,0,0,0,6.06c1.84,2.16,5.94,1.49,8.13.59,1.57-.65,2.48-1.55,2.95-1.18.82.62-1.5,3.52-.29,5.91.33.66,1,1.13,2.36,2.07a14.45,14.45,0,0,0,4.29,2.06c1.52.43,2.29.64,2.95.45,3-.87,3.86-8,2.66-12.86-.35-1.43-.83-3.29-2.36-4.14-1.2-.66-2.08-.18-3.1-1-1.34-1.11-.74-2.66-1.78-3.25s-1.93.5-4.58,1.48-3,.39-6.5,1.47C477.49,237.73,476.17,238.16,475.36,239.29Z"/><path d="M555.6,140.73c-.29.24-1.2,1.06-1.77,3.69-.43,2-.82,3.73,0,4.29s2.13-.14,2.95-.89c2.47-2.23,1.83-7.38.45-7.83C556.7,139.81,556.09,140.32,555.6,140.73Z"/><path d="M579,122.11c-.05.52.42.76,1.33,1.77,2.07,2.31,2.18,3.89,3,3.84s1.39-1.72,1.48-3-.17-3.64-1.92-4.29C581.19,119.89,579.05,121.05,579,122.11Z"/><path d="M577.91,129.05c-.59.55-.39,2.15.45,3.11s2,.68,6.2,1.33c2.57.39,3.13.68,3.26.44.35-.69-3.91-3.39-7.69-4.73C579.22,128.88,578.37,128.64,577.91,129.05Z"/><path d="M681.35,79.55c-5.13,4.87-7.69,7.3-7.38,8.72.55,2.57,6.06,1.43,9,5.91.38.57,2,3,1.18,5.17-1,2.73-4.89,2.8-5,4.73-.09,1.29,1.57,2.6,3,3.1,3.45,1.25,7.55-1.6,9.61-4,2.54-3,4.33-8,2.66-12-1.79-4.29-6.22-4.28-7.24-9-.49-2.26,0-4.41-1-4.88s-2.59.66-3.4,1.18A10.34,10.34,0,0,0,681.35,79.55Z"/><path d="M716.52,140.28c-2.5.4-4.19,6.78-2.61,8,1,.76,3.52-.26,4.68-2.09,1-1.55,1.15-3.94-.15-5.17A2.51,2.51,0,0,0,716.52,140.28Z"/><path d="M725,163.78c-.73.92-.07,3.52,1.77,4.14a2.93,2.93,0,0,0,3.1-.89,2.29,2.29,0,0,0,.59-1.77C730,163.49,725.92,162.54,725,163.78Z"/><path d="M917.64,603c-.92,1-2,3-1.18,4.14s3,.78,4.28-.15c2-1.41,2.45-4.74,1.33-5.61S918.86,601.6,917.64,603Z"/><path d="M1098.66,480.89c-1.28,1.36-3.23,3.43-3.7,6.36-.38,2.41.42,4.35,1.48,6.94,1.17,2.85,1.93,3.19,2.66,4.88,2.67,6.17-2.66,12.78-1,13.89,1.26.86,5.14-2.65,6.94-4.29,2.22-2,3.66-3.31,4.88-5.46,3.12-5.54,2.16-12.11,1.77-14.78a36.57,36.57,0,0,1-.74-6.95c0-.36,0-1.08.3-4.72.41-5.41.57-6.29,0-6.65-1.19-.77-4.12,1.65-5.32,2.8-2,1.95-2,3.06-4.58,5.62C1099.88,480,1099.8,479.68,1098.66,480.89Z"/><path d="M1117.43,477.2c-.89-.32-2.83,2.06-3.7,4.43-1.42,3.9-.18,8.49.89,8.57.6.05,1.19-1.54,2.36-4.73a13.9,13.9,0,0,0,1-6.64C1117.85,477.42,1117.56,477.25,1117.43,477.2Z"/><path d="M1287.07,298.84c-.77.69.29,3.49,2.06,5.17.73.69,2,1.88,3.4,1.48a2.67,2.67,0,0,0,1.92-2.51c-.08-1.25-1.51-2-3.84-3.11C1288.77,299,1287.58,298.38,1287.07,298.84Z"/><path d="M1400.11,320.56c-1.83.45-2.68.82-3.1,1.63a2.16,2.16,0,0,0,0,2.21c.38.49,1,.54,5.32.15,2.38-.21,2.8-.28,3.4-.59,1.52-.79,1.27-1.65,2.51-2.36,1.68-1,2.81.25,6.5,0,1.9-.13,3.19-.22,4-1.18a4.39,4.39,0,0,0-.74-5.62c-1.18-1.05-3.14-1.5-4.28-.74-1,.64-.66,1.69-1.48,2.07-1.48.69-3.49-2.22-4.73-1.63s.16,3.24-1.33,4.73C1405.24,320.17,1404.32,319.53,1400.11,320.56Z"/><path d="M1590,150.48a2.74,2.74,0,0,1,2.8,1.33c1.28,2.26-1.67,6.44-3.25,6.21-1-.16-1.69-2.28-1.62-3.85C1588,153.09,1588.43,150.85,1590,150.48Z"/><path d="M1591.18,101.12c-1.39,1.24-.5,5,1.48,6.06.85.46,1.19,0,1.77.45,1.62,1.21-.84,4.91.89,8.86a8,8,0,0,0,1.47,2.22c.52.57,3.14,3.48,5.47,2.66a3.81,3.81,0,0,0,2.22-3c.22-1.39-.47-2.24-2.22-5.32,0,0-1.56-2.73-3.25-6.06-1.84-3.6-2-4.46-3.25-5.32S1592.21,100.2,1591.18,101.12Z"/><path d="M1660.63,96c-.58.52-.11,2.14.74,3.1a3.1,3.1,0,0,0,2.81,1.19c.81-.18,1.74-.86,1.77-1.63,0-1.18-2-2-3.1-2.36S1661.05,95.57,1660.63,96Z"/><path d="M1659.6,90.78a11.64,11.64,0,0,1-3.85-4c-.3-.53-1-1.76-.59-2.22s1.95.75,3.25.15c.77-.35.7-1,1.78-3.1,1.28-2.52,2-2.75,1.92-3.84s-.6-1.46-1.92-3.11c-2.27-2.83-3.4-4.24-3.55-5.46-.2-1.68.86-1.62,2.51-6.36.72-2.06.81-2.9,1.63-3.25,1.27-.55,3,.72,4.14,1.63.59.45,2.36,1.8,2.06,2.8-.15.52-.71.49-1,1.19a2.63,2.63,0,0,0,.15,2.06c.38.83.87.92,2.51,2.37a6.5,6.5,0,0,1,1.33,1.33c.67,1.54-.84,3.75-1.92,4.87-1.22,1.28-1.72,1-2.66,2.22a8.78,8.78,0,0,0-1.48,3.7,16.14,16.14,0,0,0-.44,4"/></g></g></svg>