<svg xmlns="http://www.w3.org/2000/svg" viewBox="0 0 2221.57 2017.98"><defs><style>.cls-1{fill:#231f20;}</style></defs><g id="Layer_2" data-name="Layer 2"><g id="Iran"><path class="cls-1" d="M1877.08,458.63l92.63.14a10.94,10.94,0,0,0,1,6.45,15,15,0,0,0,1,1.51c1.51,2.4,1.51,5.7-.55,14.54-1.12,4.81-1.11,3.8-1.37,5.49a35.34,35.34,0,0,0,1,14.41c1,4.13,1.6,3.86,2.61,8.37s.44,4.74,1.51,8.1c1.22,3.88,2.38,4.87,2.74,7.82a16.32,16.32,0,0,0,.82,3.71,19.77,19.77,0,0,0,1,2.19c1.45,3.29-6.41,8.63-9.88,17.43-1,2.67-2.71,6.89-.82,9.33,2.16,2.79,6.83.5,10.43,4a10.24,10.24,0,0,1,2.74,6.59c.36,4.58-2.48,5.46-3.56,10.57-.49,2.31.49,7,2.47,16.33,1.38,6.5,1.46,6.23,1.78,8.23,1.87,11.57.8,15.14,0,16.88-1.32,2.86-2,1.88-3.43,4.8-2.86,5.91.25,9.26-2.06,16.61-.83,2.65-1.62,5.16-4,7-3.39,2.64-6.75,1.32-8,3.7-.45.88-.15,1.39,1,8.1.3,1.81.45,2.71.55,3.43,1.17,8.41-.79,10.83,1.37,14.13,1.31,2,2.67,2.1,2.89,3.84.3,2.38-2,4.43-2.75,5.22-4.38,4.41-4.18,11.4-5.21,19.49-1.76,13.76-5.74,23.2-7,27-.89,2.69-1.67,4.88-2.2,6.31L1923.32,757l19.77,29.36-27.45,1.38-15.78,21.54-.41,62.85a3.92,3.92,0,0,1,2.6,1c.73.71,1,1.78,1,6.32-.06,3.73-.3,4.85.55,5.9a4.71,4.71,0,0,0,2.89,1.37A87.21,87.21,0,0,0,1916.6,888c4,.48,3.42,1.55,8.51,2.75,7.58,1.79,9.65-.41,14,1.92,3.93,2.11,6.66,6.29,5.76,8s-5.37-.37-7.41,2.06c-1.54,1.82.08,4.08-1.24,7.82a11.67,11.67,0,0,1-3.29,4.8l-28,34.72,32.79,121.17c3.31,8.52,2.47,13.26,1,16.06a39.43,39.43,0,0,0-2.88,5.49,35.46,35.46,0,0,0-2.06,7.68,53.67,53.67,0,0,0-.68,10.16c0,2,.12,3.39.14,3.7.25,4,.37,15.91.13,43.92,3.68,5.65,3.86,9.54,3.3,12.07-.36,1.61-1.19,3.46-.28,4.67s2.35.69,5.08.82c4.82.25,5.35,1.72,11.11,2.47a36.43,36.43,0,0,0,6.32.28l72.87,10.84,4.66,2.74q6.18,19.7,12.35,39.39l-2.88,30.46-3.43,5.77-102.78,123.91,41.85,49.54a43.39,43.39,0,0,1,11.94,15.24,94.66,94.66,0,0,1,3.7,10.43c1,3.17,1.94,6.41,3.71,12.76,2,7.23,2.63,9.64,4.12,14.41a62.38,62.38,0,0,0,2.88,8.23,34.89,34.89,0,0,0,7.55,10.29c1,1.79,16.91,28.79,34,42.55a94.36,94.36,0,0,0,18,11.39,110.86,110.86,0,0,0,10.84,4.11c6.14,2.05,8.09,2.25,14.27,4,12.18,3.42,18.27,5.13,23.88,9.75,1.43,1.18,3.51,3.48,7.68,8.09,7.16,7.92,8.23,10.21,12.08,11.67,4.89,1.85,10,.7,11.25.41,5.71-1.29,8.9-4.53,10.43-3.3.61.5,1,1.74,0,5.08l.69,24c-1.37.91-3.09,2.37-3.16,4.25-.06,1.57,1.08,2.25,1.92,4.39s.51,3.51.41,6.86a62.78,62.78,0,0,0,.41,8.92q3.16,23.54,6.32,47.07c2.17,2.62,2.67,4.76,2.47,6.45-.23,1.92-1.24,2.28-2.61,5.49-.75,1.76-.48,1.74-1.92,7-1,3.56-1.46,5.34-2.06,7-1.34,3.71-1.91,4-1.65,5.08.6,2.38,4.12,3.43,8.24,4.66,3,.89,3.4.68,8.78,1.79,6.85,1.41,7.16,2,9.19,1.64,3.15-.49,3.1-1.93,8-3.84,2.69-1,5.31-2.07,8.79-1.78a15.52,15.52,0,0,1,8.23,3.29c1.36,1.11,1.43,1.59,3.16,3.57,4.89,5.63,9,7.16,8.5,8.64-.21.64-2,1.16-5.62,2.2-1.69.49-2.06.52-2.47,1-1.3,1.42.12,3.71.27,6.73.21,4-2.12,4.78-3.43,9.88-1.06,4.13.35,4.14-.14,10.84-.13,1.87-.24,1.81-2.33,12.9-.62,3.32-1.1,5.86-1.64,8.92-.75,4.2-1.3,7.64-1.65,9.88l-50.09.13a120,120,0,0,0-28.82,6.87c-9.78,3.71-13.75,6.92-14.82,7.82-1.49,1.24-3.55,3.2-7.68,7.13a57,57,0,0,0-5.22,5.22c-.77,1.17-1.76,3.07-3.29,13.72-.72,5-.92,7.5-2.2,7.82-.91.23-1.53-.86-3.7-2.33s-2.9-1.25-6.73-2.88c-5.73-2.45-6.05-3.77-8.23-3.57s-2.3,1.46-5.63,3.71c-6,4.07-9,2.37-11.25,5.62-1.48,2.19-.13,3-1.78,8.37-1.13,3.69-2,4.19-3,7.41-1.32,4.23.71,6.42-1.1,9.34-.94,1.51-1.62,1.4-2.47,2.74-1.71,2.69-1.26,6.73.27,9.61s3.25,2.9,5.77,7.27c1.14,2,1.18,2.66,1,3.16-.85,1.85-5.22.58-6.73,2.88a4.33,4.33,0,0,0-.27,3.15c.54,3.52,1.62,10.61-.83,13.59-2.13,2.61-5.62.43-12.62,3.84a26.36,26.36,0,0,0-3.71,2.2l-7,66.69a11.13,11.13,0,0,0-6.18,2.47c-2.81,2.43-2.31,5-5.21,8a15.39,15.39,0,0,1-6.87,3.71c-2.18.7-6.72,2.17-11.25.41-2.84-1.11-2.23-2.15-5.21-3.57-5-2.38-7.25.25-12.22-1.92-1.61-.71-.69-.68-6.58-4.94a48.88,48.88,0,0,0-7.69-4.94,34.33,34.33,0,0,0-7.41-2.47c-8-1.74-11.75.24-14.68-2.75-1-1-1.16-1.78-2.47-2.47-2.37-1.24-5-.35-6.32,0-6.12,1.64-15.14-.1-18.11-4.39-1.17-1.69-.16-2-1.92-9.47-1-4.06-1.46-6.12-2.47-7.13-3-3-8.56-2-13.72-1-4.75.92-7.15,1.38-8.37,3.43-2.14,3.58,1.52,8.36-.69,10.29-1,.86-2.52.59-4.26.27-3.9-.7-5.61-2.79-8.5-4.39-2.25-1.24-4.92-1.57-10.16-2.19a119.94,119.94,0,0,0-16.19-.83c-8,.17,8-.34-25.39,0-7.92.08-16.86.2-28-1.78-3.21-.57-10.51-2-11-5.22-.24-1.62,1.47-2.4,1.1-3.43-1.22-3.36-19.54,5-29.65-2.6-1.86-1.4-3.4-3.31-5.62-3-3.12.4-3.54,4.59-7.82,7.55a15.41,15.41,0,0,1-9.2,2.47c-4-.2-6.22-2.07-15.37-8.65-6-4.28-8.91-6.44-9.47-6.72-10.22-5.27-15-.15-28.54-4.81-5.21-1.8-6.23-3.16-11.39-4.11a41.57,41.57,0,0,0-14.27,0c-4.55.77-4.52,1.52-11.12,3-5.32,1.21-8,1.82-11.53,1.79-4.09,0-11.38-.09-16-4.8-2.48-2.51-2.3-4.38-6.31-8.1s-5.82-3.32-6.32-3.16c-1.29.43-1.4,1.68-2.47,3-3.27,4.13-12.16,4.83-15.23,1.37-1.83-2-.39-4.24-2.33-6.45-2.32-2.63-6.71-2.2-8.92-2-8,.53-15.92-1.85-23.88-2.75-13.95-1.58-20.93-2.37-22.92-5.9-3.22-5.72,4.11-12.1,0-20.17-1.89-3.72-4.22-3.9-5.49-8.1-1.54-5.14,1.45-6.56.69-11.8s-3.91-5.53-11-16.74a47.06,47.06,0,0,1-4.39-8,39.08,39.08,0,0,1-2.75-14.69c-.24-17.83-2.44-36.38-5.48-48.71a37.42,37.42,0,0,0-7.28-15.51c-2.73-3.3-3.44-2.79-6.45-6.31-5.84-6.83-5-10.88-9.6-16.19-3.83-4.42-8.4-6.23-11.39-7.42-8.22-3.25-11.62-.72-25.53-.82-13.66-.1-24.84-2.65-35.82-.41a28.48,28.48,0,0,0-5.76,1.78c-5.57,2.44-7.52,5.54-11.11,8.37-6.17,4.85-7.9,1.57-17.57,6.59-8.72,4.53-10.66,8.94-15.51,8.1-4.26-.74-5.48-4.63-8.23-3.84-3.27.93-2.47,6.67-7.55,9.88-2.41,1.51-3.32.69-4.66,2.19-2.68,3,.18,7.12-1.79,11-1.43,2.81-4.57,3.78-8.51,4.94-10.34,3-14.68-.77-25.93,1.65a42.16,42.16,0,0,0-9.33,3.15c-7.54,3.61-8,6.74-16.88,13.73-5.35,4.21-10,6.85-18.12,11.52-5.11,2.93-7.67,4.39-9.74,5.08s-13.26,4.39-22.51-.68c-6.57-3.62-5.47-8-13-11.26-4.61-2-6.13-.86-10-3.29-5.18-3.23-4.4-6.44-8.92-9.88-4.85-3.69-10.79-3.84-16.33-4-7.66-.19-13.35,1.77-16.47-1.65-.74-.81-1.8-2.44-2.74-2.19s-.7,2.19-1.92,3.56c-1.54,1.73-4.44,1.47-5.77,1.38-12.9-1-18,3.06-30.46-1.38a49.84,49.84,0,0,1-12.35-6.58c-5.69-3.92-9.25-6.36-9.61-10.16-.18-1.89.48-3.54-.41-6.58a10.6,10.6,0,0,0-1.92-4c-2.6-3-6.3-1.89-10.84-3.57-4.16-1.54-4.57-3.81-8.65-7.14-4.67-3.81-8.31-4.24-18.94-7.27-9.88-2.82-15-4.27-20.44-6.59-11.79-5-8.49-6.78-29-20-2.79-1.81-8.24-5.27-8.1-9.61.08-2.24,1.57-2.76,1.65-5.21.1-3.33-2.57-5-6.86-10.16-4.61-5.5-3.56-6-7.55-10.43-2.73-3.06-5.47-6.14-9.61-8.37-7.83-4.23-11.62-.53-21.4-4.67-3-1.27-6.7-2.83-10-6.45-4.48-4.89-4-8.85-8.1-11.8-3.15-2.27-6.57-2.17-11.52-2.06-26.51.64-32.09.31-37.61-.68a50,50,0,0,1-14-4.39,51.17,51.17,0,0,1-12.77-9.47,62.05,62.05,0,0,1-8.09-9.61c-4.52-6.65-8.7-12.8-8.92-20.86-.12-4.21.92-6.29-.55-10s-4.17-5.7-6.18-7.41c-9.41-8-13.55-18.92-14.54-21.54-2.38-6.28-.34-5.48-3.84-18.39-2.09-7.7-3.12-9.11-3.57-14.13-.7-7.78,1.24-10.32-.83-12.63-3.43-3.85-10.19,1.65-16.88-1.92-6.87-3.67-10.31-15.11-7-21.13,1.61-2.94,4.08-3.25,5.49-7.14.21-.61,2.07-6-.28-9.06-4.11-5.42-16.45,2.14-22.78-3.56-2.47-2.23-2.73-5.55-3.16-12.08-1.17-18.25,5.43-23,1.65-30.6-2.91-5.82-6.86-3-17-13.45-3.79-3.89-4-5-10.29-12.08-5-5.56-6.89-7.11-11-11.39-12.76-13.37-19.14-20-20.17-28.4-.91-7.43,2.47-9.86-.14-16.88a24,24,0,0,0-9.33-11.39c-1.3-.86-8.39-5.52-16.6-3.85-2.63.54-3.15,1.27-11.26,6.45-4.66,3-.15,0-17.84,10.57-8.53,5.12-11.11,6.74-12.76,5.63-2.47-1.68.74-7.12-2.74-12.08-1.7-2.41-4-3.38-7.14-4.67-3.43-1.42-6.65-2-14.41-2.33-11.93-.56-11,.42-14.27-.41-4.55-1.16-3.41-2.3-15-8.92-5.78-3.32-8.6-4.49-10.43-8.1a11.82,11.82,0,0,1-1.23-7c.71-5,6-6.22,5.35-8.23s-6.09-2.62-10.29-1.37a11.93,11.93,0,0,0-4.12,2.06c-4.49,3.51-4.86,9.31-4.94,10.56-.3,4.66,1.53,6.82,3.29,11.94,2.79,8.11,4.51,21-.41,24.43-2.72,1.89-5.2-.69-10.7.82-3,.82-2.84,2-10,7.28-6.82,5-9,5.72-11.11,5.76-1.78,0-3.27-.53-6.18-1.65-5.14-2-9.36-3.6-12.35-6.45-3.86-3.67-2.25-6.11-5.9-15.78-1.71-4.54-1.41-2.25-11.25-19.76-3.28-5.82-5.5-10-8.79-10-2.59,0-4.37,2.51-5.9,1.65s-.46-3.45-1.51-6.45c-1.15-3.32-4-4.78-7.54-7a112.88,112.88,0,0,1-13.59-10q.69-34,1.37-67.93l-38.42-.41q-.56-25.51-1.1-51.05l19.07-56.53-1-5.91-13.86-14q-3.42-8.1-6.86-16.2c-5.1-5.15-8.27-6.66-10.29-7a6.13,6.13,0,0,1-3.16-1.38c-.35-.3-1.91-1.76-1.78-3.43.19-2.4,3.7-2.29,5.08-5.35a7.57,7.57,0,0,0-1.24-7.41,7.7,7.7,0,0,0-3.15-2.33L384,1042.13l-23.47.41-84.39-64.77-38.56-5.9c2.59-4.21,4.58-7.81,6-10.57.86-1.62,1.34-2.6,1-3.57-1.21-3.15-9.73-1.67-10.15-3.56-.3-1.38,4.14-2.47,8.92-7.55a16.47,16.47,0,0,0,3.7-5.22,14.93,14.93,0,0,0,.55-9.46,15.78,15.78,0,0,0-7-9.2l-13-21.82c-10.88.57-13.44-.14-13.59-1s1.89-1.38,4.12-4.39c1.16-1.57,2.16-2.92,2.06-4.67-.16-2.71-2.85-4.43-3.43-4.8-2-1.28-4-1.33-6.18-1.37-3.72-.06-4.43.87-8.92,1.1-3.25.16-5.2.22-6.45-1.1-1.39-1.47-1.13-3.82-1-4.8l-22.64-40.62a31.64,31.64,0,0,0-8.92-2.75c-2.55-.37-4.49-.32-4.94-1.37s1.11-3,2.74-4.53L178,811.31l-1.1-23.74-14.41-19.08c-.89-1.73-.79-2.35-.55-2.6.62-.64,2.35.92,4.81.68a6,6,0,0,0,4-2.05c1.53-1.91.48-3.88.55-8.65.06-3.62.13-7.65,2.2-8.78s5,.83,7.55,2.47c5,3.17,5.74,6,9.6,6.72.42.08,3.59.62,4.53-.82,1.3-2-2.36-6.66-2.74-7.14-1.89-2.36-3.12-2.61-3.71-4.53-.55-1.77.15-2.76.41-4.8.71-5.4-3.09-6.6-2.74-11.8a13.55,13.55,0,0,1,3.84-8.1c2.16-2.19,3.08-1.47,5.77-3.84,3.63-3.21,2.61-5.1,5.76-7.27,3-2.05,4.78-1,6.72-3.3,1.05-1.23.88-1.94,2.06-4.94,1.52-3.84,2.23-3.74,3.3-6.45,2.19-5.56,0-8,2.6-11.39.5-.65,2.18-2.86,4.26-2.74s2.46,2.46,6,4.39a8.39,8.39,0,0,0,4.94,1.37c2.12-.22,2.35-1.45,5.91-3.7,3.4-2.16,4.52-1.88,7-4a17.23,17.23,0,0,0,2.89-3.16l.41-14.68c-6.64.56-8.57-.25-8.92-1.24s1.11-2,2.06-4.39a13,13,0,0,0,.13-8c-.86-3.76-2.62-5-10.15-14.13-4.31-5.23-5-6.36-5.63-7.83a25,25,0,0,1-1.78-10.56,31.47,31.47,0,0,1,3.84-16.06,13,13,0,0,1,2.2-3.15c2.34-2.34,5.21-3,12.62-4,8.3-1.08,8-.65,10.57-1.38,1.1-.31,9.9-2.88,10.15-6.86a9.91,9.91,0,0,0-.55-3.15c-.51-1.61-.77-2.41-1.37-2.75-1.83-1-4.23,3.37-8.78,3.57-1.61.07-3-.55-5.9-1.78a45.66,45.66,0,0,1-6.73-3.85c-6.08-3.89-5.63-4-6.58-4.25-3.49-1-5.3,1.37-12.63,4.39-5.3,2.19-10.66,4.33-16.6,3.43a20.41,20.41,0,0,1-8.65-3.57l-19.9-23.33c-9.23-3.25-12.78-2.36-14.27-.82-.65.67-1.67,2.28-3.57,2.61a4.1,4.1,0,0,1-3.15-.69c-1.42-1.24-.71-3.51-.14-9.19.71-7.09.14-8.84-.55-10a8.78,8.78,0,0,0-4-3.43l-8.78-15.78.27-21.27-18.39-1.79c-3.45-5.22-6.21-9.23-8.64-12.48-.9-1.21-2.32-3.08-2.2-5.49.11-2,1.13-2.17,1.79-4.67,1-3.82-.89-5.24.41-7.55s3.31-1.59,4.25-3.57-.39-4.54-2.06-7.54c-2.4-4.35-4.29-7.76-8-8.92-2.91-.92-3.8.56-8.24-.69A15.51,15.51,0,0,1,95,436.67c-1.35-1.05-2.25-1.74-2.19-2.6.11-1.69,3.73-1.73,4.94-4.26a5.46,5.46,0,0,0-.14-4.25l.28-20.17c-.94-.64-2.54-1.71-4.53-3-5.43-3.59-6.29-4-7-5.36-1.11-2.05-.35-3.42-.14-8.09.29-6.41-1.37-6.66-.55-9.75.94-3.5,2.83-4,3.3-7.68a12.74,12.74,0,0,0-.55-5.35c-2.61-9.05-12.88-14.9-13.73-15.37-6-3.34-10.67-3.61-12.07-7.69a7.24,7.24,0,0,1-.28-3.43q-.54-14.34-1.09-28.68c.67-.91,1.82-2.45,3.29-4.39,1.07-1.41,1.42-1.86,1.37-2.47-.13-1.6-2.85-2.35-5.62-3.57-2.34-1-5.18-3.11-10.85-7.27-6.13-4.51-6.9-5.91-7.27-6.73-1.46-3.18-.32-4.87-1.92-6.31-2.1-1.88-4.77.35-10.29-.68-1.7-.32-6-1.14-7.28-4-.94-2.19.4-4.5,2.2-8,0,0,3.28-6.34,7-15.24C35,245,33.38,245.08,37,236.18c2.41-6,3.68-9,6.58-12.21,1.45-1.58,3.17-3.06,5.9-6.31,3.08-3.68,4.08-4.15,4-5.22-.27-2.95-6.69-4.75-10.29-5.76-7.36-2.07-9.91-.89-11.94-3.16-1.22-1.37-1.48-3.15-.27-12.08,1.91-14.11,3.68-18,1.1-21.82-1.38-2-2.67-2.12-4.94-5.62-1.45-2.22-3-4.74-2.75-7.69.22-2.25,1.35-2.9,3.16-6,1.91-3.33,4-6.89,3.57-10.16-.57-4.55-5.37-4.22-10.3-11.66-2.15-3.26-4.53-6.86-3.7-10.85.55-2.66,2.21-3.93,2.74-7.82a16.5,16.5,0,0,0-.13-5.21q-.29-5-.55-10C11.2,90.92,8.66,87,7.87,84a66.64,66.64,0,0,0-1.64-7.54,20.92,20.92,0,0,0-3.16-6.73C1.89,68.14,1.59,68.31,1,67.25c-1.43-2.6-1.46-7,.69-8.78s4.81,1,11.25-.28c2.1-.41,2.08-.76,6.18-1.78A67.54,67.54,0,0,1,26,55c4-.58,5.2-.34,11.52-1,4.55-.45,5.59-.74,6.45-1.65,1.74-1.82,1.29-4.68,1.1-6.72-.54-5.83.83-11.53,3.57-22.92,1.28-5.33,2-8.19,4-11.8C55.45,5.82,57.68,1,61.94.15c6.14-1.27,12.68,6.09,14.82,8.5,2.84,3.19,2.32,4,5.35,6.87.83.77,2.06,1.85,9.75,6.86,4.9,3.19,5.17,3.26,6,4.11,3.61,3.58,4.51,8,5.07,10.3,2,8.2,3.53,5.44,12.63,26.07,4.71,10.69,5.26,13.6,9.33,16.88a22.62,22.62,0,0,0,10.84,5.35c5.1.81,8.49-.85,11.25,1.51,1.49,1.27,1.11,2.25,2.47,5.49,3.37,8,8.5,8.74,11.81,16.19a16.12,16.12,0,0,0,1.92,3.43,17,17,0,0,0,5.07,4.53c6.09,3.65,16.75,6.31,16.75,6.31,13.5,3.38,12.18,5.17,25.25,8.1,9.89,2.22,9.33.9,14,2.75,4.22,1.67,8.91,4.42,14.83,3.29.42-.08.84-.19,1.64-.41,10.24-2.78,13-6,19.9-7.28a24.74,24.74,0,0,1,9.33-.27c5.17.91,6.76,3.08,12.35,3.57a17.57,17.57,0,0,0,7.14-.55c5.49-1.76,8.39-6.84,9.88-9.33,7.62-12.81,18.23-30.65,28-30.6,2.05,0,5.32.8,9.75-.69a18.82,18.82,0,0,0,5.21-2.75,120.17,120.17,0,0,0,18.12-16.33c10.63-12.24,15.95-18.36,19.35-21.13,1.2-1,.29-.18,18.8-11.94,13-8.28,15.45-9.93,20.86-12.62,4.39-2.19,6.26-2.83,12.07-5.9,7-3.68,11.53-6.18,11.53-6.18C450.88,10,452.67,8.86,455,9.61c1.88.62,3.22,2.38,5.9,5.91a48.22,48.22,0,0,1,3.84,5.9c2.67,4.69,5.54,7.78,10.16,12.76a88.71,88.71,0,0,0,12.76,11.94c4.59,3.43,8.82,5.78,8.64,9.19A5.83,5.83,0,0,1,495,58.19c-1,1.56-3.9,5.28-12.35,8.51-5.45,2.09-8,2-9.47,4.53a7.58,7.58,0,0,0-.69,4.8c.45,3.93,2.15,8.19,11.12,19.63,3,3.79,5.19,8.12,8,12.07,1.12,1.61,2,2.82,1.64,4.12-.45,1.67-2.68,2.5-11.8,4.53-6.85,1.53-7.43,1.47-10.43,2.33-6,1.72-9,2.63-11.25,5.22-.23.26-4.13,4.95-2.74,10,.38,1.4,1.29,3.28,7.82,8,5.12,3.68,5.87,3.46,10,6.32,2.63,1.81,12.08,8.34,12.76,14.13a42,42,0,0,0,.82,4.67c.49,2.08.74,3.14,1.24,3.7,1.41,1.61,3.76.66,8.23.69,2.5,0,7.12.05,11.25,2.47a16.87,16.87,0,0,1,5.22,4.94c1.57,2.17,1.32,2.77,4.66,11.11,1.22,3,2.12,5.15,4.12,7.28a11.6,11.6,0,0,0,10.57,3.84c3.86-.63,3.64-2.8,7.27-3.57,3.92-.82,4.42,1.67,9.19,1,.82-.12,2.93-.53,7.14-1.37,1.49-.29,2.8-.56,3.43.14s.23,1.63,0,3.15c-.36,2.41,0,3.28,0,5.63,0,6.23-2.57,27.51.82,29.09a27.83,27.83,0,0,1,2.61,1.38c1.08.61,1.25.77,1.37,1,.84,1.27-.67,3.64-1,4.11-3.36,5.62,3,17.82,1.38,33.9-.37,3.54-1.06,6.64.55,10.29,1.5,3.42,3.2,3.2,5.48,7,3,4.91,1,6.78,3.85,12.62,1.5,3.1,3.29,5.11,6.17,8.38a73,73,0,0,0,7.28,7c14.82,12.23,32.93,16.75,32.93,16.75,8.44,2.1,7.18.35,29,3.84,5.61.9,9.76,1.67,16.33,2.88,24.62,4.56,18.58,4.38,27.44,5.63,6.84,1,9.68.95,13.18,3.43,4.47,3.17,6.4,7.84,7.82,11.39,3.45,8.63.94,10.56,3.29,17.15,3.23,9,11.14,14.38,20.72,20.86,4.59,3.1,4.8,2.61,13,8a159.69,159.69,0,0,1,14.27,10.16c6,4.87,5.71,5.55,9.61,8.64,7.08,5.62,10.22,5.07,28.13,13,10,4.46,10,5,15.64,7a132.91,132.91,0,0,0,19.35,4.8c10.48,2,9.14.87,14.41,2.19,11.68,2.93,13.06,7,25.94,10.3a97,97,0,0,0,11,2.06,118.58,118.58,0,0,0,16.33,1.09c13.14-.27,14.66-4.65,32-7.54,10.2-1.71,10.27-.29,19.08-2.34,7-1.63,9.71-3.17,19.48-5.76,6-1.6,10.51-2.48,14.69-3.29,24.08-4.72,26.39-1.83,34.31-6.32s7.39-8.32,15.5-11c1.63-.53,6.51-.95,16.2-1.78,11.86-1,13.59-.9,15.91,0,4,1.54,4.62,3.43,10.16,5.35a39,39,0,0,0,8.37,1.79,64.57,64.57,0,0,0,12.76.27c19.45-1.14,29.18-1.71,33.21-1.51s6.87.55,9.06-1.37c.63-.55,2.35-2.29,3.29-13.59a68.31,68.31,0,0,0,.41-8.5c-.24-8.52-2.48-13.15-8.09-32.25-.57-1.93-.85-2.9-1.24-4.26-4.42-15.6-6.86-18.71-5.21-20.86,1.13-1.47,5.07-1.13,12.9-.41,5.15.48,9.65,1.14,17.56,2.06,6.55.76,8.58.9,11.26,0,3.31-1.12,3.23-2.36,8.09-5.63,5.4-3.62,7-3.1,15.1-7.68,6.4-3.63,5-3.71,7.13-4.39,8.73-2.77,16.31,3.55,20.73-.14a25.85,25.85,0,0,0,3.15-3.43,31.83,31.83,0,0,0,2.47-3.84c3.12-5.85,4.86-16.37,4.94-16.88,1.74-10.83.6-10.38,2.06-13.59,1.65-3.63,4-6.24,8.37-11,2.55-2.78,4.11-4.19,6.59-6.58,13.64-13.21,15.75-18.5,21.27-18.39,3.08.06,4,1.74,7.41,1.1,3.13-.59,3.59-2.24,8.23-5.36,6-4,7.39-2.74,11.67-6.45,2.79-2.42,2.72-3.43,5.62-5.49a24.33,24.33,0,0,1,7.83-3.56c7-2,9.89-.67,18.38-1.38,9.68-.79,9.2-2.74,16.75-2.6a67.47,67.47,0,0,1,14.13,2.06c5.57,1.27,6.73,2.09,11.67,3,3.11.59,4.91.68,12.07,1.1,16.43,1,22.59,1.39,23.61-1.1a4.85,4.85,0,0,0,0-3.15c-.45-1.21-1.19-1.45-1.93-2.61a7.53,7.53,0,0,1-1-4.25,11.4,11.4,0,0,1,2.2-6.32c.74-1.13,4.84-7.08,11.66-8,1.77-.22,1.8.14,13.73,2.75,5.53,1.21,6.66,1.38,8.23.82,3.09-1.1,3-3.3,7.69-6.17a14.61,14.61,0,0,1,6.45-2.47,13.6,13.6,0,0,1,6,.82c4.25,1.48,6,3.89,9.34,6.73,2.23,1.89,10.2,8.65,18.93,8.09a11.73,11.73,0,0,0,6-1.78c.88-.59,1.47-1.19,4.8-5.49,3-3.83,3.37-4.46,4.53-4.94a7.19,7.19,0,0,1,5.9.41c2.06,1.09,3.32,3.9,5.77,9.47,1.53,3.5,1.36,3.57,2.19,4.94s1.55,2.09,5.08,6.17c3.06,3.55,3.24,3.88,3.43,4.4,1.07,3,0,6.17-.55,7.82-1,3.12-2.3,3.94-1.92,5.9a5.82,5.82,0,0,0,2.2,3.29,11.46,11.46,0,0,0,7.27,2.34c7.77.05,16.6,6.5,55.58,16.19,6.49,1.61,12.73,4.1,19.21,5.76,7.25,1.87,14.64,3.42,15.78,7.82.42,1.64-.38,2.28.14,4.81a14,14,0,0,0,4.8,7.54c4.75,4.19,10.51,4.44,12.76,4.53a23.47,23.47,0,0,0,12.77-2.88c4.86-2.81,6.38-6.37,9-5.76,2.1.48,1.68,2.79,4.53,4.53,3.58,2.18,6-.4,9.75,1.64,3.25,1.77,3.74,4.94,5.62,4.67.8-.12,1.16-.75,2.88-3.16,2.43-3.39,3.65-5.09,4.12-5.35,1.89-1,3.91.4,14.14,6,2.41,1.33,4.72,2.58,9.33,5.08,4.43,2.4,4.55,2.44,7.13,3.84,13.18,7.15,13.22,7.87,16.47,8.51a36.39,36.39,0,0,0,10.84.55c3.26-.46,5.57-1.37,6.45-.28,1.07,1.33-1.52,3.62-.68,7.14.49,2.08,1.6,2.1,2.6,4.39,1.37,3.11.3,5.28.28,8.78s1.08,6.17,2.88,10.29c2.66,6.11,6.27,9.76,11.66,15.1,5.6,5.54,8.43,8.34,13.31,10.57,6,2.71,7.08.95,14.69,3.43,10.64,3.46,9.46,7.23,18.25,9.47,8.38,2.13,15.13.15,17.57,4.39.59,1,.44,1.59,1.64,4.25a36,36,0,0,0,4,6.72c9,12.28,11.34,13.75,14.14,19.63s1.72,7.14,4.66,11c1.71,2.23,4,4.26,6.31,8.51A36.1,36.1,0,0,1,1877.08,458.63Z"/></g></g></svg>