<svg xmlns="http://www.w3.org/2000/svg" viewBox="0 0 2213.17 2241.68"><g id="Layer_2" data-name="Layer 2"><g id="Iraq"><path d="M931.81,17.46c-5.83-.28-9.77-3.4-27-14.92C902.37.92,900.91,0,898.82,0c-4.29.05-7,4.16-13.13,11.94-7.69,9.77-5.94,6.53-12,14.48-6.93,9.17-10.39,13.76-12.83,18.66-6.2,12.43-4.26,18.15-9.7,20.89-1.93,1-2.34.34-16.27.3-6.8,0-10.23,0-11.94.6-6.21,2.22-5.82,6-13.14,9.1-4.75,2-7.32,1.38-8.5,3.73-1.37,2.7,1.09,5.36-.45,9.11a9,9,0,0,1-3.29,3.88Q739.87,156.35,682.1,220l-8.66,3.88-86,14.78L560,285.53l-6.42,89.4,23.58,51.35q1.5,31.41,3,62.83-.82,2.83-1.64,5.67L557.92,527q-7.17,36.5-14.33,73,1,63.13,2.09,126.27l-24.63,34.18c-.88,2.88-2.12,6.77-3.73,11.34-1.72,4.89-3.23,8.76-6.72,17.32-11.62,28.49-4,8-13.43,29.55-1.95,4.48-3.46,8.08-7,9.4s-6.83-.7-11.5,1.2a13.68,13.68,0,0,0-5.22,3.88l-56.57,15.07L0,1104.79q32.09,116.81,64.18,233.59l-20.3,6.42q5.44,22.38,10.9,44.77l47-10.74c3.07,7.29,5,10.76,6.27,12.54a17.85,17.85,0,0,1,2.24,4.17,18.29,18.29,0,0,1,.9,3.44q.36,6.12.74,12.24c-.35.84-.69,1.69-1,2.53l-19.41,18.51,273,55.67,220,144.33,150.89,74.63,6.57,2.84L851.36,1800l480.75,405.68,386.87,36,29.7-13.29,68.36-84.48q1-2.61,1.94-5.22l25.68-51.19q3.57-12.61,7.16-25.23,12.77-30.15,25.52-60.3l50.9-28.66,81.64-1.49,59.11,27.61,10.15.15q3.29-3.42,6.56-6.86h25.53l54,43.13.45,2.84,38.06-.6a44.47,44.47,0,0,0,8.65-15.07c.74-2.29,1.08-4.11.3-5.82-.26-.58-1.36-2.7-8.21-4.63-5.71-1.61-6.6-.6-10.89-1.94-3.06-1-5.32-2.48-9.85-5.52-5.49-3.69-8.23-5.54-9.56-8.06-1.62-3.09-.41-3.93-2.09-11.5-1-4.73-1.57-7.09-2.83-8.8-3.81-5.17-9.82-4.12-10.75-7.91-.17-.7-.05-1.07,2.09-6.27,3-7.3,3.5-8.31,3.58-10,.15-3-1.11-5.43-3.13-8.51-6.48-9.89-10.63-10.91-16.27-18.51-6.37-8.58-7.8-16.34-11.19-16-2,.22-2.19,2.9-6.27,4.48a10.74,10.74,0,0,1-6.12.6,11,11,0,0,1-4.48-2.24c-5.65-4.66-6.05-14.12-6.12-15.82-.11-2.67.2-3.87-.75-5.53-1.37-2.4-3.84-2.94-7.16-4.17-5.92-2.21-3.57-2.51-14.48-7.77-4.12-2-6.58-3-8.36-5.82a11.89,11.89,0,0,1-1.64-4.62l-.3-27a184.88,184.88,0,0,0,1.5-30.9c-.14-3.29-.36-6.38-.45-12.08-.19-11.78.53-12.61.45-21.2-.21-20.35-4.4-26.12-2.54-34.18.24-1,1.19-4.79-.3-5.82a3,3,0,0,0-2.69.15l-74.18.15q1-55.53,1.94-111l38.81-90.6c2.3-6,.74-9.29.15-10.29a16.57,16.57,0,0,0-2.54-3,51.37,51.37,0,0,0-5.67-5.07,25.76,25.76,0,0,0-5.08-12.39c-2.39-3-3.64-3-9.7-9.11-4.64-4.67-5.89-6.68-6.56-7.91a21.18,21.18,0,0,1-3-8.65c-.49-5.2,1.68-6.66.3-9.26-1.3-2.43-3.38-1.49-7.76-4.92a16.19,16.19,0,0,1-5.52-6.42c-1.22-2.88-.34-3.9-1.94-6.72a15,15,0,0,0-3.89-4.33,19,19,0,0,0-4.47-2.53c-4.61-2-6.69-2.46-8.66-3.29-5.92-2.49-11.32-8.75-10.15-12.24.75-2.22,3.52-1.39,5.67-4.33,2.53-3.46,2.22-9.46-.45-13-1.76-2.33-3.47-2.13-5.37-5.22a24.49,24.49,0,0,1-1.94-5.23,36.92,36.92,0,0,1-1.94-8.36c-.27-3.28.31-3.94-.45-4.77-1.69-1.88-5,1-8.8-.75-1.42-.64-.83-1-5.67-6.27-2.26-2.46-3.14-3.21-3-4.33.21-1.53,2.08-1.72,4-3.88.22-.24,2.65-3,2.69-5.67.06-4.15-5.62-4.82-11.2-12.09-3.58-4.66-2.61-6.16-5.67-8.21s-4-.72-10.9-3.28c-3.19-1.19-4.31-2-7.16-2.39-2.25-.33-4.47-.66-6.57.45-2.31,1.23-2,2.91-4.62,5.37a16.3,16.3,0,0,1-6.27,3.43c-3.25.87-5.78.15-10.45-1.19a48.74,48.74,0,0,1-14.18-6.72,53,53,0,0,1-4.63-3.58l-35.52-29.25a28.75,28.75,0,0,1-6.72-2.69,37.24,37.24,0,0,1-7.61-6,66.8,66.8,0,0,1-4.77-4.93q-16.5-18.2-33-36.41l-12.54-3.59-32.83-25.37c-9.65-5.27-17.07-7.33-22.24-8.21a33.37,33.37,0,0,1-11.05-3.28c-5.1-2.66-4.82-4.44-8.51-5.67-5.37-1.8-6.66,1.76-15.52,1.19-5.19-.34-6.85-1.7-10.45-.45-3.18,1.11-3.41,2.71-6.26,3-1.7.16-4-.69-8.51-2.39a35.81,35.81,0,0,1-4.48-1.94c-2.88-1.51-4.32-2.26-4.78-3.58-.38-1.13,0-2.51,3.14-6.57,5.27-6.82,8.06-7.93,8.66-11.79.29-1.94,0-4.65-1.35-5.37-1.56-.81-3.28,1.51-6,.89-1.79-.41-1.66-1.59-3.73-2.83-3.42-2.07-5.56.09-9.4-1.8-.88-.43-3.52-1.72-4.18-4.47-.42-1.76-.07-4.21,1.49-5.38,1.86-1.39,3.94.17,8.51.3A22.16,22.16,0,0,0,1650,1172c4-1.68,3.79-3.61,9.55-8.66,5.35-4.69,8.44-5.57,8.36-8.06-.07-2.1-2.3-2-3.88-5.37s0-4.85-1.35-10.6a19.22,19.22,0,0,0-1.94-5.37,18.67,18.67,0,0,0-6.57-6.57c-5.88-3.86-13.57-11.25-17.31-19.4-1.29-2.81-.17-1.49-3.58-12.39-2.13-6.81-1.39-3.56-5.22-14.48-2.41-6.84-3-9.11-5.38-10.15-1.36-.6-2.34-.35-7.46.45-1.18.19-7.38,1.16-10.45,1.49-6,.66-13.52.32-13.73-1s5.87-2.2,13.43-7.76a23.17,23.17,0,0,0,5.67-6.42c1.54-2.59,1.49-3.7,1.35-4.33-.35-1.56-1.61-2-4.33-4.18-2.94-2.36-4.54-3.65-5.52-5.67-1.67-3.42.21-5.34-1.35-7s-3.82-.38-10.89,0c-7.67.43-9-.81-11.2.9-2.46,2-2.58,5.11-5.37,5.67-1.06.22-2.06,0-3.28.75s-1.68,2.16-1.94,2.09c-.47-.12,2.63-5.34,1.19-10-.67-2.19-2.24-3.55-5.37-6.27-4-3.43-5.67-3.65-9-6.42a34,34,0,0,1-6.42-7.46,47.35,47.35,0,0,1-7.16-16.87q-9.7-14.62-19.4-29.25l-12.84-21.35a15.6,15.6,0,0,1-5.07,2.84,10.72,10.72,0,0,1-6.57.6c-2.57-.74-4.07-2.55-5.46-4.23-1.82-2.21-2.73-3.32-2.6-4.58.29-2.73,4.62-3.34,10.6-8.81a10.08,10.08,0,0,0,1.94-2.23c1.58-2.58,1.37-5.22,1.34-7.47-.08-5.05-.12-7.77.89-10.15,1.76-4.1,4.64-2.47,12-9.25,3.79-3.52,4.16-5,7.46-6.72,1.6-.82,2.95-1.21,3.43-2.53.57-1.59-.72-2.86-1.79-6.12a26.35,26.35,0,0,1-1-5.68,29.26,29.26,0,0,1,0-9.85c.72-3.52,1.7-3.53,3-7.61,1-3.23,2-6.38,1.34-9.85-1.14-6.07-6-6.17-7.76-13.43-.39-1.63-.59-3.44-1.64-3.73-1.36-.38-2.36,2.33-5.82,3.58-.8.29-2.86,1-4.63.3-1.93-.81-2.63-3-3.73-7.17-3.23-12.14-2.42-12.49-4-14.62-2.46-3.26-6.17-4.88-5.67-7.32a7.38,7.38,0,0,1,.89-1.94,7.66,7.66,0,0,1,2.69-3.13c1.2-.65,1.47,0,3.88-.45,2.06-.37,2.14-.89,4.48-1.34,2-.38,2.24-.08,3-.45,2.07-1,2.31-4.55,2.39-6.12.76-13.94.18-19.69,3.59-23.73.52-.63,2.13-2.54,3.88-2.24,1.53.26,1.63,2.54,3.28,4.77a12.93,12.93,0,0,0,6.72,4.33c4,1.37,7.7.79,13.58-.15,3.57-.56,5.71-1.24,8.66-.29a24.37,24.37,0,0,1,3.88,1.79c4.48,2.34,5.18,3.48,6,3.13,1.23-.55.87-4-.6-13.13-1.13-7-2-11.89-2.09-12.24-2-11.11-3.12-16.7-5.08-18.36-4-3.42-9.09-1.8-10-4.63-.52-1.62,1-2.5,3.89-7.61,3-5.35,4.94-8.91,4.17-12.84-.42-2.2-1.44-3.11-.89-4.77.46-1.4,1.62-2.14,5.07-3.88a79,79,0,0,1,10.15-4.63c5.88-2,6.22-1.29,7.17-2.39,3.45-4-2.59-11.86.89-15.37,1.57-1.58,4.2-1.4,4.93-1.34,4.59.32,5.78,4.73,9,4.47,2.91-.23,4.82-4.18,6-6.56,1.51-3.11,1.75-5.76,2.24-11.05a52.3,52.3,0,0,0,.3-9.4c-.44-6.25-1.86-7.44-.75-10,1.37-3.16,3.85-2.13,6.57-5.82,3.15-4.28,1.65-8.13,4.78-9.85a6.29,6.29,0,0,1,4.33-.45c2.53.62,3,2.56,5.82,4.33,1.81,1.15,3.09,1.28,5.67,1.94A63.61,63.61,0,0,1,1634.5,649a17.39,17.39,0,0,0,3-5.53c.44-1.39.41-2,1-2.53,1.25-1.12,2.89-.23,6.12-.45a27.88,27.88,0,0,0,4.78-1.05,29.26,29.26,0,0,0,6.86-2.38c2.46-1.31,4.35-2.32,4.63-4,.25-1.51-1-2.08-2.54-5.38a14.42,14.42,0,0,1-1.79-5.82c-.09-3.75,2.31-6.71,3.29-7.91,2.79-3.45,4.92-3.2,5.52-5.52s-1-5.67-3.28-7.32c-3.73-2.63-7.34.19-11.65-2.83-1.12-.79-2.79-2-2.83-3.58-.09-3.36,6.86-4.29,8.36-9.41.64-2.19,0-4.11-.6-5.82-2.5-7.31-8.84-7.42-15.23-15.22-3.53-4.32-1.44-4.1-6.56-11.64-4.17-6.14-6.41-7.54-9.7-13.59-2-3.71-3.25-6-3.88-9.4-1.18-6.4,1.43-7.55.14-13.58-1.13-5.34-3.88-7.78-2.38-10.45a7,7,0,0,1,3.58-2.84c1.8-.63,2.49,0,3.58-.44,2.66-1.16,3.06-7.08,2.39-11.5-.77-5.05-2.53-5.37-2.84-9.85-.11-1.66-.49-7.16,2.69-9.55,1.55-1.16,3.08-.94,9.25-.6,7.78.44,2.62-.07,10.45.45,12,.81,13.84,1.31,15.67-.3,2.58-2.26,1.87-5.77,4.63-6.71,1.62-.56,2.41.47,4.78.59,1.47.08,3-.22,9.25-4,1.81-1.09,4.65-2.88,9.85-6.56,5.42-3.85,5.81-4.39,6.12-4.93,2.42-4.21,1-10.25-2.09-14-.88-1.08-3.5-4.28-7.16-4.33-1.83,0-3,.75-8.66,4.93-7.15,5.33-6.85,5.31-7.91,5.82-3.81,1.81-10.56,3.3-14.48.15-3-2.44-1.22-5.14-4.48-9.26a16.56,16.56,0,0,0-13-6c-3.87.14-4.11,1.84-10,2.69-4.21.61-5.2-.1-8.81.3-5.3.58-6.1,2.43-12.09,4.48-3.44,1.18-11.82,4-20.59,1.79-4.81-1.24-5.93-3-8.81-2.24-5.23,1.43-6,8.59-9.11,8.51-2.36-.07-3.72-4.3-6-9.26a103.23,103.23,0,0,0-11.49-18.8c-7.71-9.78-10.44-6.28-18.51-16.57-3.87-4.94-6.06-9.35-11-10.3-2.79-.53-2.93.69-8.21.75-6.62.06-8.15-1.84-13-.9-.47.09-2.61,1-6.86,2.84-8.32,3.57-9.92,4.31-12.39,3.88a10.35,10.35,0,0,1-5.67-3.14,10.54,10.54,0,0,1-2.54-5.67c-.78-5.59,3.19-7.49,4.78-14.63.57-2.56,1.65-7.42-.45-12.08-2.57-5.72-7.67-6.2-8.66-11.65-.33-1.83.26-1.74.9-6.56.84-6.39,1.55-11.72-1.2-16.42a13.6,13.6,0,0,0-4.62-4.93c-3.3-2-6.38-1.67-6.57-2.83-.25-1.56,5.11-2.62,5.22-5.23,0-1.12-.91-1.77-3.43-4.33a39.54,39.54,0,0,1-4.48-4.92c-3.27-5.3,5.32-11.34,3.44-20.9-.45-2.25-1.69-4.53-4.18-9.1-3.17-5.81-4.51-6.38-5.23-6.57-2.19-.59-4.32.75-8.36,3.28-3.51,2.21-3.51,2.93-6.26,4.33-2.34,1.19-6.15,3.12-8.66,1.64-1.9-1.11-1.2-3.09-3.43-4.77s-3.7-.43-5.82-1.49c-3-1.5-2.5-5.18-5.38-14-1.72-5.3-2.57-7.94-4.48-10-3.74-4.06-8-4.12-8.2-6.57s4.32-3,5.22-6.72c1-4.15-3.85-6.55-2.84-10.3.92-3.36,5.15-2.55,8.06-6.56s2-9.44.9-15.08c-1.1-5.91-3.32-9.83-5.52-13.73-3.11-5.49-5.85-10.34-9.71-10.45-2.51-.07-3.48,1.94-5.52,1.2-2.38-.87-2.18-4-5.52-6a9.45,9.45,0,0,0-3-1.05c-7.61-1.65-11.78,2.37-16.11.15a8,8,0,0,1-4.18-6.87c0-1.84,1.66-3.79,4.92-7.61,6.17-7.22,6.4-7.49,7-8.36,3.25-4.6,5.29-7.49,4.92-11-.12-1.14-1.77-4-5.07-9.55-2.58-4.36-3.2-5.23-3.14-6.87.11-2.78,2-3.24,3.44-7.31.69-2,1.75-5,.74-7.91-1.42-4.14-6.24-6-9.4-7.17-3.62-1.37-3.93-.58-8.81-2.09-5.44-1.68-8.81-2.72-10-5.52-1.1-2.59.67-4.32-1-7.61-.84-1.61-1.54-1.74-2.09-3.43a8.39,8.39,0,0,1,.15-5.53c1.11-2.7,3-2.53,3.58-4.48.73-2.54-1.52-6.43-4.63-7.76-3.38-1.45-5.05,1.3-11.34.6a17,17,0,0,1-6.12-1.64c-3.29-1.65-3.41-3.22-6.27-4.18a12.07,12.07,0,0,0-6.86,0,15.82,15.82,0,0,0-6.72,3.43L1272,87.17c-6.45-1.22-9.7.11-11.49,1.64s-2.21,3.25-4.93,4.62c-2.51,1.27-3.47.44-5.37,1.8s-2.65,3.37-3.58,5.82c-1.09,2.85-.58,3.23-1.5,5.22-.49,1.06-2,4.33-5.22,5.52-3.75,1.39-7.84-.76-10-2.83-1.6-1.53-1.85-2.74-3.73-6.87,0,0-2.36-5.18-5.08-9.85-4.62-8-7.36-8.91-7.46-13.28a17.25,17.25,0,0,1,1.34-6.27,26.31,26.31,0,0,1,4-7.17c2.34-3,3.77-4.81,6.27-5.67,3.61-1.23,5.37,1,7.47-.45,3.41-2.28,1.75-10.08,1.64-10.59s-.49-2-3.58-7.91c-2.23-4.26-3.35-6.39-4-7.32-4.11-5.58-8-3.94-15.38-9.55-6.62-5-5.5-7.85-10.15-9.25-2-.6-6.09-.15-14.33.74a25.11,25.11,0,0,1-9.25-.3c-2.17-.51-2-.83-3.13-.89-4.84-.28-8.89,5.44-11.5,9.1a54.77,54.77,0,0,0-3.73,6.27c-3.64,6.8-2.74,7.33-4.48,9.11-3.76,3.84-7.38.73-13.58,4.77-3.91,2.56-4.68,5.24-7.46,5.23-1.73,0-2-1.53-6-4.18a24.18,24.18,0,0,0-4.93-2.69c-3.56-1.28-6.59-.36-9.85.3a63.6,63.6,0,0,1-20.74.45c-4.89-.53-7.37-.83-9.71-2.69-3.56-2.84-3.1-6.16-6.26-7.16-3.74-1.19-8.42,2.15-9,2.53-1.89,1.35-1.87,2.06-3.28,2.69-2.86,1.27-6.25-.18-9-1.64-6-3.21-10.54-7.46-16.12-13.28-6.71-7-9-10.2-11.79-9.56-2.5.59-2.61,3.69-6.87,5.53a12.13,12.13,0,0,1-6.12.89c-4-.55-5.11-3.29-9.7-6.86-2.63-2.05-6.72-3.81-14.92-7.32-7-3-8.94-3.31-9.85-3.43-3-.4-3.94.08-11.2,1-12.29,1.64-15,1-18.36,3.73-.18.15,0,0-4.62,4.18-3.82,3.45-4.3,3.86-5.08,4.33A14.82,14.82,0,0,1,931.81,17.46Z"/></g></g></svg>