<svg xmlns="http://www.w3.org/2000/svg" viewBox="0 0 1637.43 2380.69"><g id="Layer_2" data-name="Layer 2"><g id="Ireland"><path d="M1631.59,1476c-1.82-1.5-2.86-1-5.41-2.28a17.24,17.24,0,0,1-6.84-6.83c-4.62-7.39-2.22-17.65,1.43-32.47,1.82-7.39,1.91-5.71,2.7-9.83a67.62,67.62,0,0,0-1.42-31.33c-1-3.22-2.5-7.23-3.7-10.39-1.61-4.23-1.92-4.72-4.13-10.26-4-10-6-15.09-6-18.37s.67-4.65-.42-7c-1.62-3.43-4.53-3.34-6.55-6.55-1.68-2.65-.37-3.78-1-10.25-.76-7.79-2.91-8.6-2.71-15a26.92,26.92,0,0,1,1.43-8.26c1.79-5.17,3.92-5.8,4-9.11.09-5-4.67-8.6-5-8.83-2.35-1.73-4-1.55-8.4-2.71-2.49-.65-5.65-2-12-4.7-8.22-3.51-12.36-5.31-13.82-7.55-1.88-2.89-3.32-7.92-1.42-11.1.42-.72,1-1.38,3.42-4.85,1.47-2.15,1.66-2.52,1.56-3-.52-2.42-7.69-1.66-8.26-4-.3-1.29,1.49-3.16,3.42-3.85,3.16-1.13,5,1.5,9.4,2,4.11.47,9.69-1,11.82-4.55,2.43-4-.89-8.69,1.42-10.4s5.71,2,9.4.14c2.51-1.25,2.54-3.75,4-3.7,1.27,0,2.16,2,5.41,9.69,2.18,5.16,2.54,6.1,3.71,6.55,2.87,1.1,6.92-2.2,8.82-4.7a9.53,9.53,0,0,0,1.14-10.54c-1.55-2.93-4.26-3.78-7.83-5.55a53.74,53.74,0,0,1-11.53-7.69,26.87,26.87,0,0,1-8.26-12.68,27.24,27.24,0,0,1,.42-15.09,39.83,39.83,0,0,1,4.85-10.54c4.2-6.85,7.32-8.22,6.83-11.54-.37-2.53-2.33-2.66-4.13-7.54-.71-1.94-1.74-4.73-.57-6s3.75.62,6-.42c1.24-.58,3.17-2.44,3.14-13,0-9.38.07-14.07-1.86-17.66-2.81-5.23-9.11-11.25-15.94-12.25a13.26,13.26,0,0,1-6.41-2c-1.42-1-2-1.89-4.42-5.41-5.34-7.87-5.32-7.7-5.69-8.55s-1.27-3.4-3-8.4c-.89-2.54-1-3-1.57-3.56-2.53-2.63-6.19-.17-9-2.13-2.59-1.83-1.52-5.45-2.85-12.11-1-5-2.35-6.59-4.13-11.39-3.27-8.8-3.46-16.93-3.85-33.18-.12-5.09,0-8.28.29-14.67.53-12.58,1.41-15.67,3.7-18.08,2.76-2.91,5.84-3,6-5.27.19-3.08-5.43-5.92-6.41-6.41-3.82-1.93-5.23-1-7.26-2.56-3.4-2.58-3.77-8.42-3.13-12.25,1.61-9.59,10.6-12.36,9.26-18.23-.5-2.15-2.08-3.44-4.7-5.55-4.64-3.75-6.91-2.24-13.25-6-3.92-2.33-5.77-4.51-7.54-3.71s-1.31,3.26-3,4c-1.91.83-4.68-1.4-6.4-3a42.12,42.12,0,0,1-10.83-17c-.55-1.85-.41-1.84-1.56-21.5-.63-10.67-.86-14.07,1.14-18.37,1-2.09,2.07-3.54,3.7-7.55a64.78,64.78,0,0,0,3-9.4c1.45-6.34.68-7.85,1.85-8.83,2.83-2.36,10.19,3.64,20.51,9.83,0,0,21.54,12.92,42,14.67,4.53.39,8.28,0,11.67-1.85,1.73-.94,1.7-1.35,6.7-5.41,5.89-4.81,7-5.11,7.12-6.55.21-2.72-3.62-3-7.55-9.12a19.83,19.83,0,0,1-3.7-9.26c-.22-2.38.13-4.55-.43-4.69-.77-.21-1.37,3.94-3.85,4.84-2,.73-4.61-.93-9.82-5.84a142.54,142.54,0,0,1-10.54-11.11c-4.68-5.38-3-3.13-12.39-13.53-7.41-8.24-11.14-12.4-12-14.24-1.25-2.79-1.92-5.42-4.27-6.26-3.42-1.22-7.78,2.28-8.12,2.56a27.11,27.11,0,0,0-4.13,4.7c-1.75,2.36-1.86,3.06-2.85,3.42-2.14.78-5.58-1.06-6.69-3.71s.8-4.24-.29-6.12c-1.57-2.73-7.91-3.34-9.68-1-1.57,2.08,1.77,4.75,2.28,12.11.18,2.65.41,6.61-1.85,10.39a15.94,15.94,0,0,1-6.13,5.56c-5.12,3-10,3.18-13.52,3.27-3.84.1-6.55.18-9.12-1.56-.42-.29-.57-.44-4.13-4-2.93-2.93-4.41-4.39-5.27-4.27-1.45.19-1.74,2.14-4,5.41a30.5,30.5,0,0,1-4.7,5.27c-5.65,4.74-15,3.33-18.23,2.85-5.7-.86-8.71-2.75-11.25-.86-1.47,1.1-.92,2.07-2.71,4.42-.4.52-4.11,5.25-9.82,5.26a11.44,11.44,0,0,1-6.13-1.85c-2-1.24-2.49-2.37-6.26-8.26-4.09-6.38-4.85-7.16-4.7-9,.22-2.64,2-3.37,3.84-6.55s1.9-6.33,2.14-11.82c.32-7.55-1.1-8.74,0-13.67.92-4.13,2-3.83,3.42-8.12a30.79,30.79,0,0,0-.86-19.93c-1.11-2.69-3.16-5.26-7.26-10.4-4.5-5.64-6.72-7.17-9.26-7.83a11.28,11.28,0,0,0-5.69,0,10.9,10.9,0,0,0-6.13,4.41c-1.56,2.5-.9,4.19-2.27,5s-3,.05-5.84-1.57c-4.87-2.73-7.51-5.1-11.68-8.26-4.83-3.66-4.94-3.25-8-5.84-4.32-3.68-6.48-5.52-7.41-7.69-2.45-5.71,2-9-.57-16.66a11.78,11.78,0,0,0-3.27-5.27c-1.67-1.43-2.59-1.22-6.27-2.84-4-1.75-6.13-2.72-7.41-5-.89-1.59-1.58-4.28-.42-6.12s3.14-1.32,4.41-3c1.45-1.91.52-4.77-.14-7.12-2.46-8.77-1.41-11.47-5.27-23.78-.54-1.74-1.2-3.71-3-4.7s-3.36-.21-5.41-1.43a7.41,7.41,0,0,1-2.71-3.13,96,96,0,0,1-5.12-11.39c-1.09-2.89-2.76-5-10.4-11.54-15.4-13.13-23.11-19.7-27.91-19.08-9.15,1.18-15.37,13.15-18.37,18.94-4.8,9.24-4.57,15.94-12.11,22.93a36.27,36.27,0,0,1-7.54,5.27c-9,4.74-15.35.52-18.23,4.27-3.45,4.49,2.6,13.49-1.14,16.23-1.38,1-3,.39-5.27,2.28-.6.5-2.5,2.1-2.28,3.7.28,2,3.51,1.71,7,4.13,4,2.82,3.47,5.85,9.26,14.53a29.44,29.44,0,0,1,1.85,3.13,30.22,30.22,0,0,1,2.28,6.12c1.74,6.86,3.55,14,0,17.66-1.48,1.53-3.74,2-8.26,3a14.61,14.61,0,0,1-6.27.29c-2.11-.43-2.18-1-3.56-1.28-1.55-.29-3.58.07-12.1,7.26-4.56,3.85-5.33,4.88-5.7,5.41-1,1.43-3.46,4.94-3.42,9.4.06,5.62,4,6.51,3.56,11.11-.4,3.84-3.24,3.67-4.84,9.25-1.06,3.7,0,4.58-1.42,8.26-1.06,2.83-3.31,6.71-5.13,6.41-1.37-.23-2-2.76-2.14-3.27-1-4.13,1.64-6.33,2.57-13,.43-3.08.68-5.13-.57-6.41-2.46-2.5-8.53.17-9.12.43a16,16,0,0,0-7.12,6.4c-1.35,2.2-3.35,5.43-2.56,8.83,1.29,5.54,8.89,6.77,8.4,10.26-.26,1.86-2.59,2.8-2.7,2.84-2.56,1-5.37-.8-9.12-3.27-3.08-2-3.3-2.74-7.83-5.84-2.76-1.89-4.48-2.85-6.69-2.85-1.69,0-1.78.57-3.71.71-2.7.2-6.8-.59-7.83-3-.82-1.92.91-3.53-.14-5.27a4.49,4.49,0,0,0-3.13-1.7c-4.42-.86-9.12,2.47-11.68,5.55a37.33,37.33,0,0,0-3.42,5.27,29,29,0,0,1-3.13,5c-1.3,1.57-2,2.36-2.85,2.71-3,1.17-7-1.65-9.11-3.13-2.65-1.87-3.32-3.13-5.13-3.14-1,0-1.72.37-4,1.85-5.29,3.46-5.63,4.2-6.69,4.28-3,.22-2.86-5.8-7.69-9.55-5.29-4.1-9.64-.39-14-4.41-3.19-3-1.58-5.73-5.55-12.1-1.44-2.32-2.78-3.76-6.12-7.12-9.78-9.84-14.66-14.75-16.81-15.81-3.37-1.67-9.32-2-21.21-2.71-10.3-.59-13.79.16-16.67,1.28-3.62,1.41-4.27,2.61-6.83,2.71-5.66.22-11.31-5.29-14-10.82-1.63-3.41-1-4.53-1.42-21.93-.13-5.43-.31-11-2.42-17.8-1.9-6.14-3.75-8.07-5.7-8.83-1.19-.47-3.52-.27-8.12.14-5.42.49-5.66.77-7,.57-.92-.14-3.76-.74-9-7.26-6.27-7.86-4.55-10-9.82-15.1-2.89-2.8-4.75-3.46-5.84-6.41s-.33-4.86-2.28-7.12a8.22,8.22,0,0,0-3.84-2.42c-1.81-.49-2.77,0-4.56,0a13.2,13.2,0,0,1-7-2.28c-3.72-2.18-5.33-5.62-6.69-8.11-3.32-6.07-8.74-10.72-13.1-16.1-9.93-12.23-9-12.87-12.25-15.09s-6.6-3.41-7.12-6.41c-.57-3.29,2.68-5.69,1.33-8.7-.58-1.32-1.32-1.12-3-3.26-1.1-1.38-3.35-4.18-2.7-5.55,1.31-2.78,12.79,3.94,20.22-1.14,3.09-2.12,2.61-4.32,7-6.84a30.15,30.15,0,0,1,8.82-3c3.88-.88,6,.35,7.27-1.14.87-1,.56-2,.71-5a41.35,41.35,0,0,1,1.42-8.4c.87-2.95,1.4-2.6,4.28-8.69,1.95-4.15,1.75-4.42,3.13-6.84,2.1-3.69,3.21-5.66,5.55-6.83s4.59-.89,8.12-.43a17.65,17.65,0,0,1,8.12,2.71,18.75,18.75,0,0,1,3.84,3.84c6.28,6.59,22.65,1.37,26.49.14,5.1-1.62,9-2.83,13.15-6.1,9.38-7.32,6.14-13.8,15.33-22.24,1.48-1.36,8.54-7.83,17.8-10.39,2.66-.73,5.57-2.15,11.39-5,1.87-.9,3.53-1.76,4.28-3.56.32-.77.49-1.77-.86-6.83-1.71-6.43-2.51-6.75-2.85-6.84-1.18-.29-2,1.11-5,3.56-3.17,2.61-5.21,4.3-7.55,4.7-3,.52-5.5-1.27-10.54-4.84-4.53-3.21-9.82-7.83-9.82-7.83-2.84-2.48-4.17-3.82-5.56-3.42-2.2.64-1.45,4.76-4.27,6.27-2.17,1.16-5.39.2-7.26-1.43-2.77-2.4-1.12-5-3.56-7.83-2.61-3-5.42-1.23-10.82-4.56-2.09-1.28-5.85-3.59-6.27-7.12-.37-3.16,2.33-4,1.85-7.54-.38-2.8-2.24-3.4-2.42-6.7-.07-1.34-.16-3,.85-4.13,2.27-2.44,7.07,1.32,10.83-1,2-1.21,1.14-2.53,4-7.41a29.26,29.26,0,0,1,7.12-8.4c2.67-2.07,4.42-3.43,6.7-3.28,2.11.15,2.75,1.46,7.83,5.7a51.47,51.47,0,0,0,7.26,5.41,21.24,21.24,0,0,0,9,3.42,10.63,10.63,0,0,0,6.27-.71c2.65-1.37,2.27-3.17,4.7-5.41,3.52-3.25,6-1.07,11.53-4.42,1.71-1,.81-.85,6.27-5.12,3.72-2.92,3.32-2.36,5.84-4.42s3.82-3.35,6.41-4.7c2.35-1.23,3.43-1.3,4.27-1.14,1.68.32,2.11,1.5,3.56,2.42,1.88,1.2,3.52.71,8.69.15,6-.66,9-1,11.1-.57,4,.8,5.65,2.59,7.55,1.56.34-.18,1.69-1,2.28-4.55.89-5.4-1.52-7.84-2.14-12.39-1.11-8.33,4.85-15.91,7.69-19.51,1.85-2.35,1.39-1.17,7.27-7.41,5.4-5.74,8.1-8.62,9.68-11.53,2.72-5,1.78-6.64,5-10.83,2.48-3.23,3.78-3.25,4.85-5.83,1.34-3.28.34-5.9-.43-10.83-.15-1-.34-5-.71-13-.83-17.63.35-21.57,2.7-24.35a17.39,17.39,0,0,1,3.85-3.42c3.7-2.2,6.36-1.29,8.4-3.41,1-1,1.32-2.23,1.71-5.13.91-6.78.47-10.58.71-16.38a83.27,83.27,0,0,1,1.14-10.82,55.82,55.82,0,0,1,2.7-10.82c1.83-4.9,3.25-8.69,7-12a25.44,25.44,0,0,1,9.69-5,47.31,47.31,0,0,1,6.55-1.28c7.65-1.2,9.2-.77,12.81-1.85a27.15,27.15,0,0,0,8-4c6.27-4.32,9-10,12.39-16.52,6.38-12.42,9.58-18.63,13.67-24.78,6-9.07,9.76-14.51,16.94-18.08,4.94-2.46,6.45-1.51,12.25-4.84s6.45-5.46,13.67-10.54a74.56,74.56,0,0,1,11.54-6.84c8.33-3.89,10-2.45,18.51-6.12,5.5-2.37,8.91-4.73,14.81-8.83,9.77-6.78,10.28-9.14,10.4-10.11.5-4.2-3.18-7.94-6.84-11.68-2.35-2.39-5-5.08-9.26-6.55-6.23-2.14-8.55.88-12.81-1.56s-3.19-6.28-7.69-8.41c-1-.48-3.79-.61-9.26-.85-7-.31-8.43-.14-10-1.43-2.17-1.81-1.16-3.64-3.56-5.83-.61-.57-1.81-1.48-7.55-2.57-6.28-1.19-7.09-.51-10.39-1.56a17.1,17.1,0,0,1-7.83-4.56c-2.69-3-3.3-6.47-4.42-13.39-1-6.54-.31-7.39-1.71-10.39a19.1,19.1,0,0,0-7.4-8c-3.1-1.93-6.58-2.57-13.53-3.84s-10.46-1.26-13.81-4.27c-1.75-1.58-1.2-1.93-2.71-3-3.14-2.21-6.07-1.06-14.38-1.43-5.39-.24-6.57-.83-7.12-1.14-3-1.67-2.95-3.9-5.7-7-3.06-3.42-8.53-6.76-11-5.26s-2.31,8.86,1.14,13.52,7.27,3.18,10.25,7.27c3.73,5.11-.79,9.48,1.42,16.94,1.85,6.23,7.12,9.81,17.66,16.95,10.91,7.39,17.53,9.24,17.09,12s-7.33,3.79-11.39,3.85c-9.46.13-17.86-5.2-17.38-7.12s9.13,0,10.11-2.85c.32-.93-.28-2-5.69-7.41-8.36-8.28-9.81-8.48-10.82-8.26-1.63.36-1.87,1.73-5.56,7.69s-5.64,9.08-7.55,9.83c-4.66,1.82-8.22-2.87-12.53-.57-3,1.59-2.85,4.67-5,4.84-3.38.27-5.83-7.27-8-6.69-1.38.37-.5,3.56-2.84,5.69-2.55,2.33-6.83,1.54-7.41,1.43-3.86-.72-4.64-3.07-6.69-2.56-2.65.65-4.6,5.35-3.28,8,.91,1.8,2.71,1.33,3.28,2.71,1.42,3.45-9,8.53-8.12,14.09.5,3,3.93,3.51,4.13,6.41.23,3.33-5.3,3.24-7.26,8.12-1.43,3.56.53,5.57-1.57,10-1.19,2.49-2.08,2.39-2.28,3.84-.51,3.73,5.15,6.12,10.26,11.39,3.68,3.81,1.82,3.68,9.25,15.81,4.28,7,6.45,9.56,10.11,16.66,3.8,7.37,3.78,9.09,3.71,10-.6,7.24-8.93,8.36-9.55,14.67-.76,7.77,11,14.67,10,15.95-.62.77-4.92-1.71-5.41-2-4.65-2.68-5.15-4.73-7.69-5.83-4.64-2-12.55.88-13.67,5-1.48,5.4,9.89,8.77,10.12,17.93.16,6.44-5.28,11.75-7.27,13.68-4,3.86-6.39,3.81-10.82,6.56-11.35,7-8.92,15.82-20.8,25.2-5.05,4-12.82,8.2-15.38,6-1.83-1.59-.39-6,.29-8.12,3.38-10.4,12.36-17.48,20.36-23.63,3.43-2.65,7-5.11,10.54-10,2-2.8,5.16-7.21,3.56-10.54-1.1-2.3-3.94-3-4.41-3.13-4.16-1-6.37,2.31-13.1,4.27-4.18,1.21-9.81,1.83-10.4.43s4-3.29,10.4-9.55a160.35,160.35,0,0,0,10.82-12.1,24.78,24.78,0,0,1,8-7.12,17.68,17.68,0,0,0,2.42-1.28c2.08-1.43,3.36-3.38,5.27-8,2-4.77,3.33-8,4-12.81.51-3.7.76-5.55,0-7.69-1-2.77-2.61-3.35-7.12-7.41-5.87-5.28-8.8-7.93-9.4-11.53s1.18-5.65-.43-7.55c-1.21-1.43-2.84-1-6.26-1.71-2.71-.57-8.62-1.81-10.54-5.55-.94-1.82-.26-4.94,1.14-11.11,1.17-5.19,1.45-4.69,1.85-7.12,1-5.85-.84-7.34-1.57-17.09-.48-6.47.23-7.12-.85-10.4-.57-1.72-2.76-8.42-7.55-9.39-3.41-.7-6.74,1.79-9.68,4-4,3-4.65,5.45-8.26,6.41a4.82,4.82,0,0,0-2.85,1.43c-1.12,1.37-.27,2.64-1,4.27-1.22,2.75-5.94,4.3-8.4,2.85-1.3-.78-1-1.8-2.28-2.57-2.09-1.22-5.62-.15-7.69,1.85-2.49,2.42-1.1,4.51-3.13,8.26-2.39,4.43-5.39,3.53-8.4,7.69-2.57,3.56-4.31,9.67-1.85,13.53,2.64,4.14,9.73,5.11,12,5.41,3.33.46,5.3,0,6.55,1.57,1.75,2.16-.33,5.21,1.43,6.84,1.36,1.25,4.24,1,5.83-.43,2.36-2,1.49-6.07,1.14-7.69-.9-4.21-3-4.61-4-8.12-1.62-5.57,1.51-11.65,2.56-11.53.57.06.46,1.93,1.85,10.68.77,4.81,1.14,6.4,2.14,8.26,1.36,2.54,2.8,3.56,4.55,5.41a36.89,36.89,0,0,1,7,11.53c3.25,8.85.75,17.16,0,19.51-2.5,7.89-8.1,14.91-9.68,14.24-1-.42-.46-4-.14-5.41.9-4.18,2.93-5.33,4.12-8.26,1.84-4.51.55-10.49-2.27-13.95-3.68-4.52-7.53-1.81-13.53-6.41-6.32-4.86-5.85-10.8-10.26-11.25-2.14-.22-2.71,1.14-9.39,2.7-3,.7-4.48,1-5.27.57-2.95-1.7-1.65-9.17-.15-17.8,1.22-7,2.43-11.67,2.43-11.68,1.75-6.81,3.18-10.08,2-11-1-.73-2.59,1.06-6.55,2.85-7.95,3.58-11.92,1.06-15.67,4.84a13.66,13.66,0,0,0-3.27,6.55c-.74,3.4.24,5.06-1,8.54-1,2.88-2.11,2.92-2,4.28.29,3.34,6.9,3,11.11,8.11,3,3.62,4.47,9.63,2.27,12.82-1.53,2.23-4.27,2.22-5.12,5-.44,1.43.18,1.8.14,4.13,0,1.41-.09,6.09-3.13,8-2,1.24-5.24,1.23-6.41-.29-1.7-2.19.67-7.92,4.42-10,1.19-.66,2-.67,2.13-1.25.27-1.52-5.52-2.13-10.11-7.12a30.52,30.52,0,0,1-4.13-5.55c-1.2-2.22-1.14-3-2.14-3.56-2-1.18-5.21.32-7.83,1.57-2.79,1.32-2.88,2-4.13,2-3,.05-6.51-3.56-6.69-7.12-.14-2.68,1.71-3.55,1.85-7.69.07-2.07.1-3.11-.57-4-1.81-2.35-6.07,0-15.67.29-5.59.19-6.67-.52-8,.71-2.56,2.42.12,6.58-2.71,13.24a16,16,0,0,1-2.84,4.7c-3,3.4-5.73,3.24-11.4,7-4.07,2.68-3.09,3-5.12,3.85-6.24,2.48-11.86-2.27-14.1.14-.93,1-.15,2-.29,5.55-.1,2.63-.34,8.84-4.13,11.68s-10.08,1.87-11.25-.57c-.81-1.72,1.31-3.45.43-5.13-1-1.87-4.64-1.64-8-1.56-9.19.2-13.78.31-18-1.14-6.15-2.15-7-5.87-13.24-6.27a10.34,10.34,0,0,0-5.84,1c-2.49,1.35-4,3.86-5.69,9.54-2.53,8.6-1,9.46-2.85,15.52-2.6,8.31-6.42,9.41-6,15.1.19,2.46.89,2.16,3,8.68,1.61,5,3.6,11.25,1.85,12.39s-5.17-3.4-9.12-2c-.56.2-1.49.53-1.7,1.28-.42,1.48,2.41,3.2,8,8,3.92,3.37,4.33,4.08,4.56,4.85,1.28,4.32-3.16,10.45-6,10.11-1.66-.21-3.39-3.22-6.84-9.26-.93-1.63-1.6-2.91-2.71-3-1.79-.13-2.43,3.06-5,4-2.28.82-4.54-.72-7.12-2.14-7.51-4.14-15.52-6.1-16.09-5.12-.46.77,4.1,2.74,6.83,8.11.59,1.16,3.87,7.93,1.14,12.25-3.18,5-11.31,1.63-14.24,6.26-2.45,3.9.9,10.1,4.13,16.1,3,5.57,5.85,10.83,11.54,13,4.66,1.74,8.57.39,9.68,2.7s-1.94,5.91-2.14,6.12c-1.52,1.72-3.64,2.89-8.4,3.85-9.15,1.85-11.53-.4-14.38,1.85-3.43,2.7-3.87,9-2.14,13.24,1.23,3,2.23,1.77,10.4,9.26,2.44,2.24,5.34,5.08,9.83,6.12,1.54.36,2.38.3,3-.14,2.22-1.59-.78-6.51,1.28-8.83s9.23-1.39,13.24,2.28c2.7,2.47,2.6,4.86,5.56,6,2.75,1.05,5-.2,6,1.14.77,1.1.07,3.14-.86,4.42-3.07,4.24-11.1,3.6-13.38,3.41-5-.4-6.24-1.79-8.12-.71-3.29,1.9-4.31,8.87-1.57,12.53,1.69,2.26,3.47,1.46,9,4.7,4.76,2.8,4.36,3.95,6.7,4.56,1,.27,4.63,1,15.66-7.26,7.27-5.43,11.19-9.84,11.68-9.4s-1.71,3.59-4.13,6.26c-1.87,2.07-3.69,3.53-8.4,6.7-6.18,4.15-9.27,6.23-11.4,7a24.14,24.14,0,0,1-12.1,1.42c-3.42-.56-3.9-1.55-15.66-6.84-4.73-2.12-6-2.58-7.69-2.13-4.27,1.13-4.58,6.46-8.12,6.83-2.92.31-3.53-3.21-8.4-4.13-.63-.11-4.84-.91-7.55,1.43-2.25,1.93-1.19,4-3,5.27-2.8,1.9-6.42-2.45-12.25-1.85-4.8.49-8.81,4.12-8.4,5.41.68,2.12,13.77-.92,14.53,1.56.45,1.5-4.06,3.42-3.57,5.41s5.1.75,8,3.71c3.26,3.34.53,8.2,3.56,10.25,1,.71,3.51.48,8.4,0,4.16-.41,4.71-.69,5.84-.71,8-.18,16.72,12.7,14.53,15.81-1.38,1.95-8.15,1.53-12.68-1.14-1.38-.82-2.62-1.89-3.42-1.43-1.49.86,1.21,5.59-.57,7.55-1.54,1.71-5.09-.23-13.52-2.14-2.36-.53-6.32-1.16-14.24-2.42-6.4-1-8.53-1.24-12.11-2.42-4.93-1.62-4.83-2.48-7.69-3.27-3.07-.85-5.8-.59-23.92,6.69-8.21,3.29-10.27,4.29-12.11,6.83-2.75,3.82-1.6,6.42-4.41,8.69-4.64,3.74-11.6-.23-13.39,2.71-1,1.64,1.06,3.07,1.57,8.26.27,2.75.67,6.84-1.57,9.25-2,2.2-4.36,1-10.91,2.73-2,.54-8.83,2.39-8.88,4.82,0,2,4.65,2,5.84,5.27,1.48,4.08-4.58,7.7-3.28,12.39.48,1.73,1.94,2.79,4.84,4.84a38.41,38.41,0,0,0,14.67,7c8.4,1.86,11.05-.66,14.38,2.28,1.49,1.3,1.12,1.94,4.56,9,3.95,8.05,5.08,8.53,5.7,8.69,3.28.83,4.76-4,10.68-5.13,4.84-.89,9.28,1.4,11.25,2.42,5.85,3,6.27,6.53,10.11,6.69,2.69.11,2.88-1.6,8.11-3.42s6-.4,10-2c6.27-2.53,8-7.67,10.26-6.83,1.42.52.93,2.64,2.7,7.12,1,2.44,3.26,8.24,6.84,8.82,1.24.21,3.18-.13,6.69-3.84,8.22-8.71,10.1-20.22,10.68-20.08s-2.88,10.57.57,13c1.58,1.09,4.26.28,5.84-.71,3.93-2.47,3.44-7.5,5.13-7.69,1.94-.23,6.52,6,5.26,11.82-1.57,7.25-10.82,7.07-20.36,18.65-2.36,2.87-6.09,8.1-5.13,9.12,1.34,1.4,12-4.89,20.65-13.53,11.06-11,11.26-18.32,22.79-26.49,3.69-2.62,9.41-5.94,14.67-4.27a5,5,0,0,1,3,1.85c1.64,2.53-.85,6.08-3.71,15.09-1.9,6-1.58,6.92-1.14,7.41,1.94,2.13,9.13-.89,13.82-3.7,9.88-5.93,10.53-12,20.65-16.81,5.7-2.68,8.36-2.09,9.68-1.56,3.05,1.22,3.77,4,6.12,3.84.46,0,1.36-.21,5.56-4.7,2.78-3,3.31-3.88,3.84-3.7,1.14.39-.57,4.79.29,11.39.65,5,2.06,5.82,1.42,8.83-.81,3.82-4.13,7.44-6.41,7-1.85-.37-2.92-3.42-4.27-7.26-1-2.74-1.22-4.59-1.57-4.56s0,4-1,8.4a26,26,0,0,1-4.42,9.26c-5.33,6.94-10.8,5.42-13.81,11.53-1.16,2.35-1.39,4.69-1.71,8-.63,6.46,1,7.57-.28,10.11-1.92,3.73-6,2.29-11.82,7.12-2.19,1.81-5.73,4.73-5.42,8.26.36,4,5.42,6.37,6.7,7,6.12,2.88,12.33,1.2,12.39,1.7s-6.44.89-14,4.28a36.24,36.24,0,0,0-7.83,4.55c-6.31,4.91-5.74,8.22-10.25,10.54-3.89,2-4.89-.16-12.25,1-6.24,1-5.45,2.52-15.81,5.55-9.14,2.68-7.19.73-14.52,3-2,.61-3.85,1.29-5.7.43-2.5-1.16-2.41-3.94-5.27-5.27-.29-.13-2.68-1.24-4.56-.28-2.62,1.34-1.29,5.22-3.7,12.53-1.34,4.07-2.07,3.85-3.42,8.4-1.28,4.36-.87,5.45-2.13,7.26-.55.79-1.94,2.47-9.4,4.42-9.18,2.39-13,1.38-16.09,4.84-1.21,1.33-.61,1.44-2.42,4-1,1.4-2.68,3.47-8.69,8A100.12,100.12,0,0,1,698,631.36c-1.72,1-4,2.26-7.26,3.71-7.48,3.34-9.23,2.71-10.68,4.84-2.58,3.76,0,9.93,2,13,.86,1.31,4,6,8.54,6.26,3,.17,3.44-1.79,9-4A29.42,29.42,0,0,1,712.36,653c.62,0,1.75.15,7.12,1.57,14.73,3.88,16.62,5.82,17.52,7.69.23.48,1.32,2.75.43,4.69-1.69,3.7-9.42,3.92-14,3.28-3.16-.45-5.11-1.36-5.27-1-.25.57,4,3.52,9.12,5.56s6.92,1.5,11,3.84c2.67,1.55,5.58,3.24,5.7,5.56.18,3.7-6.85,7.08-11.82,8.26-5.73,1.35-15,1.26-17.8-3.56-1.56-2.72.07-5-2.28-10.26-.3-.66-2.15-4.82-3.56-4.55-1.15.21-.87,3.16-2.28,8.68-1.26,4.94-2.22,5.43-3.13,9.54a27.85,27.85,0,0,0-.72,9.54c1.86,12.27,19.91,19.74,23.5,21.22,4.79,2,8.38,2.68,8.26,3.56-.17,1.23-7.41,1.82-14.1.57-2.94-.55-12.54-2.33-18.94-10.11-1.16-1.41-2.67-4.41-5.69-10.39-4.95-9.81-4.92-11.52-7.55-13.25-4.43-2.9-11.39-2.58-15.38.57-3.13,2.48-2.12,4.87-5.13,6.55-4.09,2.3-10.36.32-14.24-2.42s-4.12-5.34-6.55-5.41c-2.92-.09-4.06,3.66-8.12,6.84a23.06,23.06,0,0,1-13.1,4.27c-6.53,0-7.79-4.15-26.2-16.66-3.79-2.58-8.45-5.61-15.09-7.12a25.54,25.54,0,0,0-9.12-.72c-6.28.74-7.05,3.51-12,4.42-8.83,1.62-14.93-5.76-17.66-3.28-1.66,1.52.68,4.19.29,9.83-.12,1.66-.53,4.4-8,16.8-5.78,9.63-6.85,10.18-7.26,13.53-.63,5.15,1.34,8.46-.71,10.25-2.26,2-5.79-1-9,1.14-.67.45-1.79,1.44-3.28,7.55-1.84,7.57-1.42,11.46-2.56,11.68-1.33.25-2.18-5-7.41-10.68-2-2.17-3.76-4.06-6.69-5.13-3.6-1.31-4.9.09-9-1-3.52-.93-8.24-3.5-8.12-6s5.4-2.35,8.4-7.26c1.41-2.3,2.59-6.17,1-8.69-1.81-2.85-5.63-1.5-7-4s1.46-4.93,3.56-11.11c1.43-4.2,3.28-12.19.86-13.67-2.58-1.58-9.67,4.37-10.4,5-2.58,2.17-4,4.09-4.7,3.71s.71-3.23.57-7.27a18.07,18.07,0,0,0-4.27-10.54c-2.71-3.29-5.76-4.66-8.69-6a32.39,32.39,0,0,0-15.09-2.7c-3.63.15-5.45.23-7.27,1.28-2.81,1.63-3.12,3.76-7.69,8.54-3.32,3.48-4.33,3.58-4.84,3.56-2.32-.09-2.67-3.05-6.12-6.26s-9.08-5.94-12.53-4.13c-2.19,1.14-1.63,3.18-3.85,4.13-2.85,1.22-6.51-1-9.82-3-4.92-3-6.08-5.27-8.41-4.84-2.13.39-1.86,2.45-4.7,3.84a11.35,11.35,0,0,1-9.82-.43c-2.29-1.24-3.17-2.92-5.13-2.7-1.43.16-1.88,1.16-3,1-1.66-.25-1.82-2.7-3.13-4.27-1.81-2.17-5.45-2.2-19.08,0-7.22,1.17-7,1.31-11.11,1.85-6.51.87-10.28,1.37-15.24,1-6.59-.49-11.09-.82-14.24-4.13s-2.67-7.59-5.41-8.26c-2.17-.53-3,2-7.26,3-3,.72-7.54.68-9.69-1.85-1.48-1.74-.53-3.16-1.71-4.13-2.8-2.33-12.35,2.39-17.65,10-1.73,2.46-5,7.14-3.56,11.53,1,3.22,3.73,3.66,9.39,7.27,13.41,8.53,13.05,15.42,21.37,18.37.9.32,4.95,1.67,7,5.27.31.53.92,1.62.57,2-.91,1-8.27-3.45-14.24-8.54-3.6-3.08-5.17-5.1-8.68-5.84-2.15-.46-3.79-.18-6.41.28-5.09.9-10.1,1.79-13.25,6a14.12,14.12,0,0,0-2.56,9.26c.52,4.84,3.7,6.16,5,11.53.68,2.84,1.67,6.43-.14,8.69-1.67,2.09-4.4,1.42-10,2.28-7.4,1.14-7,3-11.67,3.42-10.15.9-16.35-7.41-20.37-4.42a5,5,0,0,0-1.71,3.85c.12,3.29,4.91,5.44,9,7.26,7.48,3.35,11.38,2.9,11.81,4.84.65,2.92-7.89,5-8.11,10.25-.06,1.44,1.52,4,4.7,9,3,4.72,4.24,6.18,3.7,7-1.19,1.76-8.88-3-10.68-.85-1.41,1.67,1.69,6.49,3.13,8.4a19.3,19.3,0,0,0,7.69,6.27,61.26,61.26,0,0,1,6.55,2.7c1.46.75,3.27,1.68,3.14,2.14-.27.89-7.08-2.38-13.39.43-2.78,1.23-2.23,2.21-5.84,4.27-5.87,3.34-10.39,2.49-10.82,4.41-.37,1.63,2.91,2.14,4.56,5.41,2.89,5.77-3.54,11.72-.57,16.24,1.34,2.05,3.84,2.61,5.55,3,3.21.72,4.08-.54,13.39-2.85,3.45-.85,4.87-1.06,6.69-2.42a13,13,0,0,0,3.84-4.84c2-4.35.1-6.49,2.28-10.25a7.62,7.62,0,0,1,4-3.71c4-1.32,9.26,2.2,9.11,4.56-.1,1.75-3.07,1.53-4.7,4.56-1.79,3.35-.26,7.53,0,8.26,1.24,3.39,3.29,4.29,2.85,5.27-1,2.19-11.2-2.75-15.09,1.28-1,1-1.12,3.27-1.43,7.83-.43,6.4-.64,9.6.29,13.1.74,2.79,2,7.48,6,10.4,2.71,2,3.85,1.07,8.83,3.27,3.36,1.49,9.45,4.83,9,7s-8,.76-9.83,4.56c-1.24,2.57.84,6.07,1.71,7.54a12.35,12.35,0,0,0,5.56,5.13,13.45,13.45,0,0,0,9.82,0c1.52-.59,2.84-1.45,4-.85a3.45,3.45,0,0,1,1.42,2.56c1.81,10.44,2.71,15.67,2.71,15.81-.13,12.24-.19,18.36,1.85,20.64,1.29,1.44,2.69,2,17.09,3.28,13,1.19,19.46,1.78,22.07,1.57,7.87-.66,11-2.35,15.81-.15,3.37,1.56,4.76,3.77,7.83,3.42,2.19-.25,3.14-1.56,8-2.85,2-.54,2.91-.58,3.7-.14,1.69.95,2.41,3.81,1.42,5.13-1.17,1.56-4.34.42-4.7,1.42s2.71,2,3.85,5.13c.06.17,1.1,3.17-.29,4.7s-4.41.54-4.55,1.14,2.06,1.34,5.55,3.27,4,2.59,4.13,3c.84,2.13-1,5.72-3.7,7.27-6,3.45-15-4-16.66-1.86-1.22,1.56,3.62,5.06,3.56,11.54-.05,4.6-2.51,5.57-1.71,8,2,6.11,19.27,4.08,20.08,8.55.1.56-.16.65-3.42,5.84-2.77,4.42-3,5-3.85,5.55-2.93,2-7,0-10.53-1.14-6.73-2.15-12.66-1.29-24.5.43-8.92,1.29-10,2.89-20.79,4.41-9.65,1.36-11.79,1.31-12.82,1.14-7-1.15-10.35-4.92-14.66-3.13-2.45,1-1.81,2.41-5.13,4.56-2.2,1.42-4.34,2-11.53,3-10.13,1.38-9.75.75-10.83,1.42-4.87,3-1.58,9.09-6.41,22.07-2.21,6-4.08,7.86-5.69,14.81-.85,3.65-1.46,6.42-1.14,10.12.1,1.19.37,3.24,5.13,14.38,3.25,7.61,4,8.64,4.55,9.4,2.37,3.06,3.44,2.9,7.41,7.4,4.27,4.85,4.78,7,4.84,8.55,0,.9.15,3.84-1.57,5-3.11,2.07-8.71-4.1-11.67-2.14-1.84,1.23-.34,4.05-2.43,7s-6.24,3.53-8.82,3.85c-5.61.68-10.21-1.08-16.1-3.42-5.47-2.18-4.85-2.7-8.11-3.7-6.38-2-16.28-2.25-18.37,2s4.63,11.71,8.11,14.67c2.35,2,6.82,5.79,13.25,6.55,3,.35,4.91-.12,5.69,1.14,1.32,2.12-2.16,6.62-4.7,9-.92.85-5.69,5.28-8.4,3.84-2.21-1.17-.47-4.89-2.56-8.68-2.41-4.37-8.05-5.44-16.09-6.84-3.23-.56-18.8-3.27-20.08.43-1,2.94,7.6,8.08,6.83,9.26-.67,1-6.81-3.68-15.66-3.85-2.33,0-7.45-.08-12.11,3.13-5.17,3.57-8.15,10-6.69,11.68,1.29,1.46,5.05-2,11.39-.71a15,15,0,0,1,6,2.7,14.71,14.71,0,0,1,4.56,6c1.36,3.33.09,3.92,1.14,7.12s3.34,5.34,7.55,9.11a22.18,22.18,0,0,0,4.41,3.28,24.22,24.22,0,0,0,6.13,2c5.56,1.39,9.31,2.32,9.25,2.85s-4.34.83-7.83.71c-3.25-.11-4.82-.53-5.55.43s.09,3.08.57,4.13a14.8,14.8,0,0,0,4.55,5.41c6.29,5.08,8.23,5,8.55,7,.36,2.21-1.79,4.35-4.7,7.26-2,2-3.06,3.06-4.42,3.13-3.11.17-3.85-4.23-8-6.12-4.76-2.19-10.4.64-13.39,2.13A25.48,25.48,0,0,0,146,1205.11c-2.35,3.84-4.86,9.87-3.28,11.11,1.38,1.08,4-2.94,8.69-2.85,5.75.12,7.32,6.21,12,5.56,2.56-.36,2.47-2.26,8.4-5.56,2.65-1.47,4-2.2,5.7-2.42,4.29-.53,7.79,2,10.68,4.13s6.41,4.68,7.55,9.12c.56,2.21.13,3.43,1.28,4.55,1.83,1.8,4.12-.12,7.69,1,1.37.43,1.68.92,8.54,7.41,3.15,3,3.75,3.49,4.7,3.41,2.41-.2,2.52-3.86,6.55-6,2.16-1.13,2.77-.42,5-1.56a13.54,13.54,0,0,0,5.55-6.13c2.84-5.33,1.74-9.35,5.13-11.82.8-.58,1.24-.63,1.56-.57,2.06.42,2.68,6.3,2.71,9.83,0,6.13-1.69,9.66-.57,10.25.83.44,1.87-1.49,5.84-3.7,3.09-1.72,3.91-1.35,5.41-2.85s1-2.44,2.85-5.27c1.23-1.88,2.53-3,5.12-5.27,2.34-2,3.53-3,4.42-2.84,1.6.34,1.43,2.71,4.27,4.69a13.53,13.53,0,0,0,2.56,1.29c3.78,1.62,4.92,1.18,5.7,2.13,1.36,1.66.1,5.76-2.28,8.4-2.8,3.13-6,3-12.53,4.56-7.89,1.94-16.74,4.11-18.23,9.12-1.18,4,3.31,6.27,1.71,10.82-1.14,3.24-3.83,3.24-5.69,7.69-.61,1.45-1.63,3.88-.86,6.55,1,3.37,4.55,6.31,8,6.26,4.94-.07,6.22-6.31,10.82-6.12,2.61.11,2.89,2.16,7.69,5,2.11,1.24,5,2.12,10.68,3.84,7.56,2.29,11.39,3.42,13.81,3,5.12-.9,8.44-4.5,9.54-5.7,4.37-4.73,2.39-7.23,7.27-15.52,2.08-3.54,2.25-2.77,7.4-10.54,1.64-2.48,3.34-4.92,5-7.4,2.24-3.39,3.75-5.75,6.7-7.83,2.43-1.73,3.81-1.82,4.7-1.71a4.93,4.93,0,0,1,3.84,2.56c.77,1.69-.19,3.25-1.71,6.84-2.63,6.21-4,9.46-3.27,13.1a12.52,12.52,0,0,0,2.13,4.84c1.13,1.62,2.93,4.24,5.7,4.56,3.35.38,6.27-2.81,7.55-5,1.39-2.38,1.42-4.75,1.42-9.4,0-6.63-1.14-8.14,0-12,.61-2,1.48-4.93,3.7-5.69s3.81,1.26,8.41,1c1.58-.09,2.61-.4,2.7-.14.16.45-2.79,2-6.69,4s-5.31,2.58-5.55,3.84c-.1.51-.08,1.33,2,3.85,3.84,4.69,6.34,5,7.69,8.4a5.94,5.94,0,0,1,.43,4.27c-.2.52-1,2.45-7.69,4.42-6.13,1.8-7.88.89-9.26,2.7-1.7,2.23-.83,5.93-.29,8.26s1.07,2.4,1.71,4.56c2.06,6.93-1.5,12.45,1.57,15.52.48.48.83.61,1,1.14.62,2.05-3.42,4.08-6.13,7.4-3.68,4.52-5.56,12.22-2.42,16.52a8.8,8.8,0,0,0,7.12,3.42,9.58,9.58,0,0,0,6.55-3.13c1.94-2,2.6-5,3.85-10.82,2.26-10.65,2.91-13.73,4.7-14.1a3.08,3.08,0,0,1,2.85,1.42c1,1.5,0,3.27-.72,6.27-.91,3.82-.69,6.82-.42,10.54s.43,5.63,1.71,7.26c.94,1.21,1.67,1.33,5.26,3.7s3.64,2.79,4.85,3.42c3.69,1.93,7.59.48,13.52-1.14,4.88-1.33,9.89-2.12,14.82-3.28a159,159,0,0,1,26.77-3.84c10.22-.65,9.43.46,19.93-.14,12.64-.73,12.89-2.29,24.78-3.14,15.45-1.1,15.61,1.49,27.77-.42,7.45-1.17,17.3-3.7,20.08-4.42,5.28-1.35,4.91-1.41,9.4-2.56a229.65,229.65,0,0,1,24.92-4.84c16.81-2.53,6.9.26,19.51-1.14,1.72-.19,5.18-.61,6.55,1.28a3.66,3.66,0,0,1,0,4.13c-1.43,1.76-4.16,0-8.69,1.57-1,.35-4.24,1.43-4.41,3.27-.12,1.27,1.26,2.36,3,3.7,3.7,2.87,6.65,3.34,6.55,4.13s-2.07.61-6.12,1.57c-3.35.79-5,1.19-6.41,2.28-2.09,1.64-4.08,5-3.13,7.55,1.1,3,5.68,3.54,10.25,4.13a22.33,22.33,0,0,0,9.11-.29c6.07-1.62,9.44-5.81,10-5.27s-3,2.81-4.41,7.69c-1.08,3.64-.42,6.5-2.42,7.69-1,.61-1.77.22-3,1.14a5.63,5.63,0,0,0-2,3.28c-.47,2.38,1,4.3,2.14,6.26,3.44,6.09,3.6,13.35,1.56,18.09-.62,1.46-1.17,2.73-2.13,2.85-2.69.32-3.93-8.95-11.54-13.39-2.92-1.71-4.48-1.36-5.12-1.14-1.26.44-2.07,1.5-3.85,5.13-3,6.22-2.84,7.6-4,8-2.64.85-4.51-6.2-11.39-9.26-4.66-2.07-9.22-1.24-15.24-.14-6.63,1.21-13.48,3.93-13.24,5.27.11.64,1.77.55,7.69,1.71,7.13,1.4,8.56,2.29,8.83,3.42a3,3,0,0,1-.85,2.42c-1.33,1.5-3.4,1.26-8.69,1.28-4.27,0-6.42,0-7.26.57-2.67,1.68-1.58,4.4-4.7,7a8.4,8.4,0,0,1-6,2c-1.17-.15-2.25-.63-5.13-3.13-5.2-4.52-4.62-5.52-7.12-6.84-1.35-.71-1.34-.32-9.26-1.71a44.79,44.79,0,0,1-5.69-1.13c-5.29-2.41-5-7.92-8.55-8.69-3.08-.67-6.25,2.86-8.54,5.41a23.15,23.15,0,0,0-6,12.67c-.75,6.24,1.89,7.62.28,11.82-1,2.55-1.86,1.85-8.26,8.55-5.27,5.52-5,6.38-7.83,8-2.13,1.22-4,1.68-5.7,3.85A11.73,11.73,0,0,0,435,1423c-1.36,5,.6,7.64-1.14,9.83-1.05,1.32-2.27,1-4.7,1.85-5.06,1.77-10.74,7-10.54,12.39.12,3.39,4.75,4.56,4.13,7.41a9.24,9.24,0,0,1-1.71,3,20.07,20.07,0,0,1-2.42,2.84c-1.39,1.38-5,4.93-6.83,8.41-2,3.65-.33,4-2.28,8.54a25.33,25.33,0,0,1-6.13,8.4c-3.34,3.09-4.52,2.56-6.69,5.27-1.81,2.26-4,6.47-2.56,8.69.56.84,1.53,1.2,7.26,1.42a133.17,133.17,0,0,0,14-.14c4.86-.32,7.32-.49,8.54-1,3.28-1.36,4.62-3.34,7.83-3.27a6.72,6.72,0,0,1,4,1.28,7.11,7.11,0,0,1,2.56,4.56c.62,3.54-1.34,6.48-2.28,7.83-2.37,3.44-4,2.91-8.11,6.55-5.55,4.89-4.62,7.57-9,9.68-4,1.93-6.34.49-8,2.71-1.25,1.69-.12,2.87-.57,8.54-.31,4-.54,6.49-2.28,8.55-1.86,2.21-3.64,1.8-4.13,3.42-.9,3,4.79,6.15,3.85,8.4-.71,1.69-4.21.47-5.84,2.7-1.42,1.94.56,3.75-.57,7.27a11.06,11.06,0,0,1-4.27,5.41c-3.32,2.3-5.26,1-7,3.13-1.94,2.4-1.25,6.23-1.14,6.84.36,2,1,2.25,1.28,4.27a10.42,10.42,0,0,1-.71,5.27c-1.71,3.87-5.45,4.27-5.27,6.26.15,1.69,2.87,2,3.13,4.13.12,1-.3,1.77-1.14,3a33.41,33.41,0,0,1-5.69,6.41c-4.38,3.73-6.58,5.59-7.41,5.41-3.61-.78-2.58-10.38-6.4-11.39-2.8-.74-4,4.18-10,5.41-4.43.92-7.76-1-9.26,1-1.1,1.45.11,3.24-1.28,4.55-1.08,1-2.15.26-4.42,1.29-.49.22-3.21,1.46-3.27,3.13s3.08,2.23,3.42,4.41c.31,2-2,3.92-3.56,5.27-3.49,2.95-4.88,1.92-7.12,4.28-1.25,1.31-1,1.8-3.71,7.54,0,0-.64,1.36-2.42,4.84-2,3.93-10.62,16.6-25.77,23.07-6.21,2.65-11.8,3.54-14.39,8.55-.8,1.56-1,3-2.7,4.84-3.15,3.52-6.32,2.86-7.55,5.7-1.11,2.56.84,4.57-.57,6.26-.93,1.13-2.36.93-5,1.14-1.76.14-8.89.71-13.39,4.42-2.29,1.89-1.31,2.46-3.56,4.55-5.1,4.76-10.47,2.12-14.24,6-2.79,2.87-3.7,8.27-1.85,10,3.08,2.83,10.73-7.43,24.35-7.83,10.1-.3,12.48,5.15,20.36,2.56,4.1-1.34,4.68-3.21,13.82-7.4,6-2.75,8.26-3.09,10.25-2.56a5.42,5.42,0,0,0,3.28.14c.48-.16,1.92-.75,3.13-3.14,2.34-4.62-.36-7.77,1-11.25,1.82-4.64,9.33-5.83,15.66-6.83,9.44-1.49,9.94,1,17.52-.86,1.63-.38,10.33-2.58,15.8-9.82,2.34-3.09,2.26-4.69,2.14-5.41-.72-4.24-7.68-4.94-7.55-7.12.17-2.66,10.72-6,14.24-2.28,1.94,2-.07,4.29,1.57,8.54.38,1,1.83,4.35,11.25,10,4.3,2.57,5.26,2.62,11.39,5.7,12.72,6.38,14.14,8.93,19.65,9,1.92,0,4.74-.66,10.4-2,5.32-1.26,8-1.89,10.54-3,6.15-2.64,6.36-4.87,15-9.39,2-1.06,4.18-1.65,8.54-2.85,2-.54,3.63-.92,4.28-.14s0,2.23-.29,2.84c-3.11,7-15,10.23-15.52,16.52a7.91,7.91,0,0,0,1.71,5,8.71,8.71,0,0,0,5.55,3.13c.82.12,3.34.36,6.84-1.71,6.45-3.81,5.33-9,10.54-13.1,2-1.53,6.08-2.18,14.24-3.42,12.68-1.92,12.86-.82,18.08-2.42,3.6-1.1,11.78-3.6,16.38-10.82,2.22-3.49.89-3.83,3.27-9,4-8.64,7.78-7.78,14-17.95,2.49-4.1,3-6.05,6-9.25,2.22-2.37,3.64-3.11,5-5.56,1.61-2.93,1.48-5.37,1.71-8.4.43-5.49,1-12.39,4.7-16.23,3.22-3.31,5.16-.6,15.24-5.13,4.3-1.93,7.79-3.55,10.54-7.26,1.65-2.23,2.57-4.6,3.13-4.42s.56,3.24-.43,6c-2.23,6.24-7.84,6.83-7.83,10.54,0,1.31,1.67,3.15,5,6.84,4,4.4,4.81,4.44,5.55,6.41a11.61,11.61,0,0,1-1,9.4c-2.1,3.69-4.62,3.07-6.41,7a11.63,11.63,0,0,0-.85,6.7c.32,1.74.75,4.14,2.42,5.12,3.34,2,7.81-4,18.51-6.41a41.32,41.32,0,0,1,6-.85c4.76-.4,19.93-1.7,30,6.84,3.77,3.17,3.85,5.2,7.26,6.26,4.46,1.39,10.26-.21,13.11-1,3.3-.91,5-1.84,7.26-1s4,3,3.56,4.27c-.11.3-.6,1.22-7.12,1.28-6.82.06-9-.93-13.67-.28-2.7.37-3.32.89-6,1.56-8.79,2.22-11.34-1.08-21.65-.42-5.17.32-10.84.68-16.52,3.56a24.91,24.91,0,0,1-8.4,3,30.92,30.92,0,0,1-6.41.14c-4.16-.37-5.16-1.36-7.4-.86-2,.45-3.44,1.75-5.13,3.71-6.52,7.56-5.29,11.42-10,15.23-3.54,2.89-9.12,4.66-12.25,2.71-.88-.55-2-2-4.12-5-2.6-3.56-2.84-4.44-3.56-4.42-2.35.08-1.92,9.44-7,11.68-1.54.68-2.14.06-5.13,0-5.67-.12-8.11,2-17.8,5.41-5,1.74-3.83,1-9.68,3-10.29,3.49-10,4.47-15.81,6-8.56,2.23-9.91.3-14.81,3.13-1.18.68-3.63,2.45-8.55,6-3.17,2.28-4.06,3-4.69,3.41-8.87,6.19-25.77,4.66-27.35-.14-.29-.9.15-1.3.15-7.12,0-2-.06-2.74-.57-3.13-1.08-.82-3,.64-6.84,2.28a40.71,40.71,0,0,1-8.4,2.56,24.58,24.58,0,0,1-8.55.28c-3.59-.56-3.67-1.53-5.41-1.28-4.26.61-3.92,6.42-8.4,8-3,1-7.25-.22-12.67-1.85a7.21,7.21,0,0,0-4.7-.15c-1.29.48-1.6,1.17-2.71,1.85-2,1.24-4.17,1-6.83.72a36.46,36.46,0,0,1-9.12-2.57c-4.55-1.75-4.89-2.35-8.54-3.56s-5.66-1.87-7.55-1.71c-2.48.22-4.22,1.46-11.25,9.12-8.68,9.47-10.05,12-9.26,14s2.83,1.8,3.42,3.85c.76,2.62-2,5-3.84,7.69-6,8.61.54,15.61-5,22.21-1.06,1.28-4.5,3-11.39,6.55-4.85,2.48-6.52,3-9,4.28-9.65,4.83-10.38,9.35-18.66,15a46.43,46.43,0,0,1-19.65,7.69c-12.49,1.61-17.27-4-24.21,0-5.67,3.24-9.05,10.73-7.12,14,1.64,2.72,6,.61,18.23,3.56,4.87,1.17,4.78,1.65,9,2.42,6,1.1,9.18.66,10.4,2.7.9,1.52,0,3.19-.86,6-1.6,5.13-1.54,10.83-1.42,22.22,0,3.66.18,3.32.28,9.25.21,11.12-.27,12.92-1.42,14.53-2.72,3.83-6.92,3.38-7.26,6.12-.38,3.11,4.71,6,5.41,6.41,1.95,1.09,3.63,1.46,10.82,2,8.19.61,12.29.91,14.67,1,6,.2,7.22,0,8.26,1.14,2.85,3.11.44,11.67-3.56,13-2.67.86-4.7-2-8-.71-2.41.91-2.08,2.74-4.13,3.42-4,1.32-7.18-4.9-11.39-3.85-2,.5-1.63,2-5.69,5.41a29.64,29.64,0,0,1-6.41,4.13c-3.69,1.65-7,1.71-11.54,1.57-12.6-.39-18.9-.59-22.92-2.71-4.73-2.48-7.58-5.84-10.83-9.68-3.57-4.22-6.11-7.21-7.54-12-1.68-5.55-.66-9.51-3-10.54a4.3,4.3,0,0,0-4.7,1.57c-1.48,2,0,4.34.14,7.26.23,6.87-7.52,14-14.67,16.23-4.37,1.38-4-.49-11.82.86a100.22,100.22,0,0,0-15.09,4.13c-4.9,1.76-7.38,3.07-8,2.28s1.18-2.62,4.42-8a51.82,51.82,0,0,0,3.7-6.69c1.2-2.94,3.94-9.6.71-13.82-2.72-3.55-8.16-3.36-9.4-3.27-4,.28-6.83,2.36-8.69,3.7-15.5,11.18-23.25,16.77-30.33,17.52-1.88.19-7.18.51-8,3-.48,1.49.82,3.3-.29,4.84a3.33,3.33,0,0,1-1.71,1.14c-4.23,1.52-7.39-.61-11.39.57a10.26,10.26,0,0,0-5.13,3.7c-2.07,3-1.75,6.37-1.56,8.4.45,4.89,2.46,5.59,2.7,10.11.07,1.17.27,4.79-1.42,7.41-2.66,4.13-9.77,5.42-17.52,3.27,1.18-13.14.09-16.19-1.14-16.52-1.67-.44-2.73,4.44-8.68,8.26-5,3.2-9.07,2.93-9.69,5.7a5.76,5.76,0,0,0,1.86,4.84c1.4,1.32,2.46.85,3.41,2,1.62,2,.33,5.54-.14,6.83-1.49,4.13-3.38,4.14-4.56,7-2.25,5.45,3.42,8.58,1.86,14.81-1.35,5.34-6.43,6.73-5.7,10.11.54,2.53,3.83,3.8,5.41,4.41,8.19,3.18,11.7-3,23.36-2.13,2,.14,5.9.61,10-1.43,2.19-1.09,2.89-1.4,3-2,.41-2.24-6-3.79-6.12-7.12-.06-1.79,1.71-3.91,3.7-4.41,2.92-.73,4.76,2.38,13.53,7.54a32.58,32.58,0,0,0,4.27,2.28c2.39,1,8.82,3.61,13.53.57,2-1.25,4.23-3.87,3.56-5.55-1.22-3.08-11.16,0-12.67-3.28-.9-2,1.47-5.68,4.27-6.55,4.16-1.29,5.27,8,12.82,10.26,6.37,1.95,11.81-2.33,15.52,1.28,1,1,1.62,2.26,3.7,3.56,1.31.81,3.23,2,5.13,1.56,2.95-.69,2.43-4.59,5.55-5.84,1.15-.46,3.54.12,8.26,1.29,4,1,3.89,1.17,5,1.28,3.64.37,5.5-1.52,10.53-4,4.33-2.12,7.87-3.12,15-5.13,5.05-1.43,4.54-1,8.26-2.13,5.5-1.75,7.17-3,11-3.13,2.68-.12,5.24-.23,7.12,1.42,2.62,2.29,1.19,5.61,3.56,9.11,1.37,2,3.31,2.79,6.84,4.42,3.35,1.54,7.51,2.79,7.83,2.13s-3.75-2.21-7-6.83c-1.34-1.93-3.49-5-2.7-8,.69-2.61,3.31-3.83,8.4-6.12a74.89,74.89,0,0,1,15-4.7c.65-.14,4-.76,10.82-2,3.75-.68,8.67-1.57,14.81-2.14,7-.65,8.15-.21,8.83.57,1.94,2.2-1,5.41.71,10.82,1.23,4,3.49,4.56,3,6.41-.68,2.56-5.17,2.06-13.67,5.41-4.08,1.62-4.17,2.18-9.25,4.13-6.13,2.36-9.27,3.53-11,2.14-2.64-2.16.19-9-.71-9.26s-3.89,6.58-7.69,14.24c-3.42,6.89-7.16,13.72-13.39,20.08-3.91,4-6,5-7.4,4.42-2.6-1-2.33-7.29-3-7.27s1,8.84-3.7,14.53c-3.11,3.75-8,4.91-9.54,5.27a23.67,23.67,0,0,1-8.12.28c-5-.34-7.68.83-22.93,6.27-9.73,3.47-14.59,5.2-18.23,6.41,0,0-25.82,8.55-34.89,15.23a7.77,7.77,0,0,0-3.13,3.85c-.39,1.25-.09,1.79-.43,4.41-.26,2.07-.39,3.1-.85,3.85-.77,1.26-2,1.6-6.69,2.71-6,1.41-7.37,1.67-9,3-.34.28-3.12,2.56-2.56,4,1.18,3,16.89.86,17.94.71,3-.42,5.15-.9,5.84.15.58.88-.26,2.26-3.56,8.11-2.07,3.68-3.1,5.53-3.27,6-1.93,5.15.09,6.84-1.85,10.68a14.6,14.6,0,0,1-6.41,6,19.5,19.5,0,0,1-6.55,2c-8.65,1.36-10.59-1.15-15.67.29-.4.11-7.31,2.16-10,8-2.37,5.19.63,9.05-2.84,14.53a9.91,9.91,0,0,0-2,4.13c-.45,2.79.6,6.39,2.42,6.83,2,.5,3.06-3.42,7.69-4.7a7.55,7.55,0,0,1,5.56.29c1.49.82,2.52,2.36,3.41,5.69a38.27,38.27,0,0,1-.28,19.37c-1.52,5.17-3.2,7.24-2.42,8,1.66,1.58,10.3-3.79,16.52-10.25a84.75,84.75,0,0,0,8-10c4-5.93,4.45-8.21,7.69-10.11,3-1.78,6.08-1.75,10.54-1.71,3.3,0,7.35.12,11.68,2.42,2.07,1.11,5,2.68,6.41,6,1.14,2.72.67,5.28.28,7.41-1,5.27-3.24,5.59-3.7,10.25-.34,3.36.71,4.52-.43,6.13-1.78,2.51-5.51,1.34-6.12,3-.79,2.11,4.52,6.15,8.26,8.26a26.18,26.18,0,0,0,8.68,3.27c7.46,1.33,12.33-1.27,13.25.43,1.05,1.94-4.85,6.3-3.85,7.83.53.81,2.65.36,6.65-.81,6.74-2,10.11-3,12.72-4.32,9-4.69,8-8.56,14.53-10.11a31.26,31.26,0,0,1,10.39-1c1.75.24,2.66.59,4,.14,2.9-1,3.18-4.27,5.27-7.12,1.71-2.34,5-3.5,11.67-5.84,9.8-3.44,11.35-2.23,16.38-5.41a43.52,43.52,0,0,1,6.41-3.85c2.46-1.12,7-3.18,9.11-1.42,1.32,1.07.66,2.65,1.85,3.28,2.11,1.1,6.17-2.8,7.55-4.13,3.42-3.29,3.94-6.75,5-6.55,1.34.24.39,5.63,2.27,6.4s4.84-4.39,11-9.68c3.66-3.15,6.65-4.76,12.39-7.83a111.92,111.92,0,0,1,17.51-7.41c5.39-1.87,8.15-2.82,11.82-3.13,2.53-.21,3,0,10.12.14,8.66.21,12,0,12.1.71.16.94-5.21,1.24-10.68,5.7-4,3.29-3.41,4.88-6.55,6.84-4.35,2.71-7.8.63-14.53,1.28-5.32.51-8.9,2.38-14.24,5.12-8.06,4.15-7.56,6.31-19.65,15.38-7.51,5.64-12.49,8.4-11.82,11,.33,1.25,1.72,1.37,6.69,4.84,3.39,2.36,5.08,3.56,4.85,4.27-.46,1.4-7.34-1.39-15.81,1.14-2.76.83-4.87,1.46-6.69,3.42-3.15,3.38-2.14,7.19-5.13,8.69-1.45.73-3,.47-5.84,0-3.13-.52-4.35-1.41-6-1.85-4.23-1.14-6.56,2-13.53,4.69-8.3,3.21-9.94.66-15.95,4.13-1.56.91-8.25,4.77-7.69,9.26.45,3.62,5.35,5.56,5.7,5.7,6.36,2.43,13.21-1.87,13.53-1.14.22.51-3.37,2.12-8,5.55a50.24,50.24,0,0,0-10.1,9.8c-1.41,1.86-1.5,3.38-3.28,5-2,1.86-5.33,3.51-6.84,2.42s-.64-4.74-1.28-4.84-.84,3-3,4c-1.25.56-2-.13-3,.57-1.41.95-.79,2.68-1.85,3.27s-2.47-.76-6-2.56c-2.83-1.45-4.25-2.17-5.7-2.14-3.29.09-7,3.23-6.69,5.84s4.3,3.95,6.4,4.7c4.72,1.68,6.56.28,8.69,2.14,2.79,2.44,2.25,7.14,2.14,8.11a12.84,12.84,0,0,1-3.85,7.55c-1.17,1.18-3.08,2.67-9.68,4.56-9.3,2.67-10,1-13.39,3.13s-5.25,5.53-8.26,11.25c-1.67,3.19-3,6.56-2.56,6.84s2.16-3.21,6.41-6.27c2-1.41,4.94-3.56,8.68-3.42,3,.12,3.32,1.6,6,1.43,3.38-.22,3.63-2.65,7.4-3.7a12.6,12.6,0,0,1,10.4,1.85c2.22,1.66,2.22,3.18,4.41,4,1,.38,2.69.66,6.12-.57,4.92-1.75,5.77-3.83,10.83-6.83a30.89,30.89,0,0,1,10-4.13c6.31-1.27,7.59,1,10.39-.71,3.65-2.22,2-6.37,7-14.24,1.68-2.67,2.67-4.24,4.7-5.56,3.52-2.28,6-1.11,12.39-1.71,8.72-.82,8.41-3.45,15.38-3.41,5.74,0,6.4,1.81,11.82,1.14a34.72,34.72,0,0,0,9.68-3c4.54-2,4.93-2.95,8.4-4.56,5.1-2.37,9.52-2.72,14.67-3.13,8.87-.72,9.22,1,15,0,5.35-.94,8.88-3.1,14.53-6.56,8.67-5.3,6.5-6.39,15.95-12.53,2.82-1.83,6.06-3.71,8.4-7.69.93-1.58,2.51-4.26,1.71-7-.93-3.16-4.38-4-4-5.42.33-1.19,3.07-1.88,5.13-1.14a6.56,6.56,0,0,1,3.13,3c1.53,2.33,1.32,3.5,2.14,5.12,1.47,2.91,4.59,3.95,10.25,5.84,4.12,1.37,6.18,2.06,8.12,1.28,3.18-1.28,3.08-4.61,5.69-5.12s6.12,1.86,7,4.84c1.21,4.14-3.69,6.87-3.27,13.67a6.43,6.43,0,0,1-.15,2.7c-1,3.17-5,4.44-6.83,5.13-6.75,2.5-5.7,4.64-14,8.83-10.63,5.4-14,2.68-25.2,8-4.65,2.2-6.94,4-11.11,6.84-20.54,13.84-27,11.29-47,24.49-10.88,7.19-8.8,7.83-21.08,15.81-7.33,4.77-16.15,9.79-15.24,12.53.3.91,1.74,1.77,3,2a5.32,5.32,0,0,0,3.42-.72c3.55-1.89,8.63-1.71,12.39-2.42,2.48-.46,30-6.1,54-24.35a82.84,82.84,0,0,1,20.51-11.11c3.37-1.24,10.14-3.45,11.67-1.28a3.54,3.54,0,0,1,.29,2.42c-.43,2.26-2.62,3.58-3.28,4-6.78,4.19-12.81,9.5-19.22,14.24-6.22,4.6-10.9,9.62-16.95,16.09-4.65,5-5.61,6.55-8.83,8.55-6.34,3.94-9.36,2-17.37,4.7-8.86,2.93-7.3,6-20.51,13-8.63,4.57-14,5.78-14.09,9-.06,2.16,3.06,2.39,5.55,6.12,3.87,5.79.25,10.68,2.85,13,5.49,4.81,29-10.59,32.75-17.8a13.47,13.47,0,0,1,4.42-5.13,9.67,9.67,0,0,1,4.13-1.71c3.36-.46,4.4,1.55,6.4.86,1.66-.58,1.66-2.2,4.42-7.12,2-3.6,3-5.4,4.13-5.41,2.24,0,2.21,5.79,7.26,9.82a15,15,0,0,0,6.84,3c7.36,1.25,13.38-3.57,13.79-3.9,5.06-4.17,5-9.12,9.13-9.77,1.6-.25,2.11.41,4.85.86,3.6.58,6-.1,10.11-.86,12.91-2.38,13.65-.77,16.23-3,2-1.75,2.16-3.25,6.41-7.26,2.63-2.48,3.6-2.87,4.56-2.85,2.42.06,3.17,2.74,6.4,3.13,2,.24,2.87-.6,3.42,0,1.11,1.21-1.69,5.54-2.7,7.12-3.31,5.13-5.4,5.76-5.27,8.12a6,6,0,0,0,4.7,5.13c1.69.24,2.12-.9,3.7-.57s1.94,1.42,4.84,5.27c2.6,3.45,2.5,2.94,2.85,3.7,1.67,3.64-.2,6.12,1.42,8.12,1.2,1.47,3.38,1.54,4.7,1.56,9.1.17,19.35-8.7,25.63-14.24,1.74-1.52,4.82-4.33,6.7-3.42s1.23,5.06,3,5.56,3.17-2.91,4.84-2.42.92,3.59,3.56,5.69a4.19,4.19,0,0,0,2.85,1.14c1.5-.13,2.55-1.5,4.56-5,1.13-2,2.59-4.67,4.13-8,4.1-8.53,8.38-11,11.53-11.67,3.41-.73,5.37.67,10.68-.57,2.52-.59,7.6-1.79,8.54-5,.31-1,0-1.83-2.7-8.11-2.3-5.25-2.88-6.41-2.42-6.84.74-.69,3.25,1.48,8.68,4.27,3.92,2,5.88,3,8.26,3.56,1,.23,8.52,1.81,14.81-2.13,2.15-1.35,2-2,7.12-5.84,3.58-2.69,4.81-3.26,6.27-3.28,1.22,0,2.34.35,6.41,3.14,4.29,2.92,6.43,4.39,7.4,5.55,2.14,2.54,3.62,5.8,5.7,10.39.42.93,1.38,3.1,1.71,3,.58-.19-2.17-7.28.28-9.12a2.71,2.71,0,0,1,1.43-.43c3.35-.36,4.92,2.82,7.83,3.42s6.61-1.56,8.26-4.13c3.11-4.83-1.3-10.46,2-13.81,1.69-1.72,3.11-.5,5.27-2.28,3.94-3.26,3.09-10.54,2.71-13.81-.82-7-3.49-11.34-2.85-11.68s3.88,6.39,10.68,11.82c3.51,2.8,6.77,4.11,10.82,5.84,5.45,2.31,8.23,3.45,11.11,2.7,4.19-1.09,5.3-4.77,7.41-4.13s1.24,4.69,5,8.83a11.59,11.59,0,0,0,4.56,3.28,11.16,11.16,0,0,0,8,0c5.09-2.11,6.57-8.57,7.65-13.26,1.72-7.52,3.21-12.37.9-16.79-4.65-8.85-20.08-8.88-19.8-10.82.18-1.19,6-1.38,7.55-1.43,7.71-.24,11.29,1.79,14.1-.57,1.58-1.32,1.68-3,3.13-3.13.31,0,1.42,0,4.13,3,2.27,2.56,2.3,3.49,3.28,4.42,2.14,2,6,1.32,15.09-1.14,12.45-3.37,13.26-4.18,15.1-3.28,4.22,2.08,2.52,7.66,8.82,14.53,2.12,2.31,5.89,5.57,7.27,4.7s-.38-6.81-2.71-14c-2.79-8.56-3.91-9.28-3.42-12.1.32-1.83.89-2.12,8.26-11.54,3.53-4.51,4.53-5.88,5.84-5.69,3,.43,3,8.58,6,9,1.91.24,2.37-3.09,6.41-5.84,4.67-3.19,7.39-1,11.11-4,4-3.21,2.18-6.79,5.55-8.83,5-3,12.15,2.77,14.39.14,1.6-1.88-1.43-5.62.14-7.12,2.18-2.08,9.21,4.09,13.67,1.29a6.44,6.44,0,0,0,2.13-2.43c1.62-3.11-.41-5.5,1-7.4,1.22-1.64,3.15-.43,6-2,2.27-1.26,3.25-3.26,4.84-6.55a23.48,23.48,0,0,0,2.57-10.54,31.21,31.21,0,0,0-.71-5.41c-1.37-10.21,8.34-18.59,6.26-20.8-1.39-1.46-6,1.91-8.12-.14-1-1-.38-2.34-.71-4.13-1.17-6.46-13-7.64-13.1-11.25-.1-2.56,5.11-4.79,8-5.55a20.24,20.24,0,0,1,6.4-.43c3,0,7.54-1.4,16.38-4.27a145.17,145.17,0,0,1,15.24-4c2.61-.53,5.06-1,6.55.43s1.72,4.54.71,6.83c-2.46,5.6-10.42,2.94-17.37,9.83a24.37,24.37,0,0,0-5.41,8.83c-1.67,4.15-3,7.58-1.57,10.11,2,3.37,8,3.47,14.1,3.56,7.24.11,9.87-1.51,13.67.71,1.82,1.07,2.92,2.45,4.84,2.28s2.9-1.94,4.84-3.84c2.75-2.71,6-3.75,12.39-5.84a61.5,61.5,0,0,1,9.68-2.28c5.38-.83,6.63-.31,12.25-1.28a48.51,48.51,0,0,0,8.12-2c6.55-2.26,9.38-5,10.25-5.83,1.63-1.65,2.44-2.47,2.71-3.85.61-3.21-2.5-4.91-2.42-8.69,0-2.26,1.22-3.89,2.42-5.55a20.58,20.58,0,0,1,9.82-7c9.28-3.45,13.8-1.22,28.48-4.13,4.26-.84,8.27-1.89,9.55-5a5.75,5.75,0,0,0-.43-5.27c-2.13-3-6.38-.68-12.11-3.56-3.22-1.63-6.39-4.63-5.83-6.41.14-.45.57-1,3.84-2a52.61,52.61,0,0,1,7.26-1.57c4-.78,6.56-3.69,9.69-7.26,2.4-2.75,6.39-7.32,6.83-14.1a15.61,15.61,0,0,0-1.56-8.83c-1.41-2.57-2.76-2.88-6.56-7.26-2.27-2.63-4.91-5.68-4.27-6.55s4.33.65,6.7,2c2,1.15,8.5,4.83,10.25,11.68,1.62,6.34-2.32,9.52.28,13.1,1.91,2.63,6.19,3.87,9,2.71,2.4-1,2.1-3.15,5.26-5a11,11,0,0,1,6.41-1.42c2.92.33,3.33,1.84,8.26,4.27,3.09,1.52,4.93,2.4,7.41,2.28,2-.1,5.66-.91,6.55-3.28s-1.92-4.1-1.71-7.26c.24-3.67,4.35-6.18,6.12-7.26,8.15-5,13.12-1,24.5-4.28,6-1.69,11.79-3.35,14.66-8.4,3.4-6-1-10.37,3.28-19.36a22.13,22.13,0,0,1,5.84-8.26c3.15-2.65,6.16-3.4,6-4.56s-3.23-1.6-6.84-2.14c-6-.89-7.79-.22-9.4-1.85s-.64-3.68-2.27-4.84c-2.55-1.81-6.19,2.18-9.26.57-2.44-1.28-3.23-5.43-2.42-8.4.4-1.49,1.19-2.59,3.84-5.13,6.2-5.91,9.29-8.87,12.25-8.26,2.24.47,3.77,2.5,5.84,5.27,2.7,3.6,3,6.15,4.27,6.12s1.68-2.78,4-6.55a22.77,22.77,0,0,1,4.84-5.84c4.86-3.7,9.5-.12,16.23-2.27,5.12-1.64,5.61-4.71,10.69-8.83,8.26-6.72,18-7.55,26.34-8.26,13.73-1.17,16.35,2.89,29.19.14,6.08-1.3,6.48-2.42,11-2.56,8.27-.26,10.86,3.41,21.64,4.27,5.83.46,9.78.72,12.39-1.85,2.12-2.08,1.84-4.52,5.41-8.69,1.75-2,2.63-3.06,4.13-3.7,5.37-2.29,11.5,3.24,12.68,1.85s-5.83-8.4-4.56-10c.91-1.11,5.48,1.21,10.68,3.85,4.51,2.28,4.85,2.95,5,3.41,1.26,4.23-8.69,9.89-7.55,12,.39.72,1.86.53,3.42.42,10-.65,11.72,3.09,20.36,1.71a45.43,45.43,0,0,0,7.12-1.85,40.65,40.65,0,0,0,6.27-2.56c4.19-2.39,6-6.65,8.11-12.11,3.06-7.71,5.52-13.89,3.85-21.07-1-4.35-3.25-7.87-1.43-11.54,1-1.93,2.42-2.6,2.57-4.7.08-1.24-.31-2.66-3-6.12-2.92-3.76-3.8-3.82-5.41-6-2.25-3-2.83-6.33-4-13-.86-4.92-1.35-7.9-.14-8.54s3.6,1,4.84,3c.88,1.37.61,2,1.42,5.26a41.62,41.62,0,0,0,2.14,6.27,29.19,29.19,0,0,0,3.13,5.7,26.77,26.77,0,0,0,4.42,4.7c6.61,5.83,5.53,8.22,13,15.52,3.52,3.46,5.75,4.87,5.42,7-.38,2.39-3.65,3-3.85,5.83-.07,1,.3,1.36,1.71,4.56.8,1.82,1.75,4,2.14,5.27,1.39,4.71-1.29,9.62-2.57,12-2,3.63-3.18,3.59-5.84,8.55-.93,1.74-2.79,5.27-1.85,6.12.47.42,1.47,0,2.28-.28a11.22,11.22,0,0,0,4.56-3.42c4.29-5.54,5.09-8.54,8.54-12.25a19.43,19.43,0,0,1,4.7-4c5.61-3.22,9.59-1.12,13-3.84,1.26-1,2.45-2.73,3.28-8.55,2.19-15.38-3.65-20.59.14-25.91,1.3-1.82,6.46-3.54,16.8-7,2.17-.72,4.86-1.56,5.27-.86.19.33-.09,1-4.7,5.7-3.7,3.76-4.33,4.13-5.27,5.7-.76,1.27-3.07,5.12-1.56,7.69,1.27,2.16,4.62,2.31,7.12,2.42a27.55,27.55,0,0,0,9.82-1.57c5.4-1.58,11.78-3.46,18.23-3,4.82.35,8.3,1.91,13.24,4.13,4.53,2,8.74,3.92,12.82,7.83,6.53,6.26,6.46,11.71,10.68,12.25,2.5.32,3.28-1.48,8.69-3.85,3.25-1.41,6.1-2,11.82-3.13s11.69-2.34,19.22-2.13c4.55.12,3.7.59,11.11,1.28,15.5,1.44,17.75-.76,24.64,2,5.67,2.27,6.67,4.77,9.54,4,4.64-1.27,8.16-9.5,7.69-16.52-.33-4.87-2.46-7.35-.72-10.4,1.43-2.49,3.58-2.1,5.42-5.27.52-.9,2.16-4.07,1-7.26a8.79,8.79,0,0,0-4.55-4.55c-5.76-3-9.21.39-13.39-2-3.74-2.14-4.83-7.08-5.84-11.68-1.64-7.46.15-12.21-2.56-13.81-1.44-.85-2.33.26-5,.14-6.17-.27-13-6.78-13.52-12.81a37.4,37.4,0,0,1,.28-9,4.93,4.93,0,0,0,.14-2.14c-.43-1.9-2.49-3.39-8.4-5.27-7.57-2.41-9.42-1.65-10.25-3.13-2.33-4.14,8.74-15.89,11.53-14.39,2.34,1.26-2.59,11,1.28,14,.57.43,1.5.85,10.11-.43,7.94-1.18,7.26-1.55,9-1.42,6.69.49,8.62,5.53,13.67,4.56a8.9,8.9,0,0,0,5.12-3.28c2.62-3.71-.08-7.57-.71-15.09a42.83,42.83,0,0,1,4-20.51,37.26,37.26,0,0,1,7.4-10.25q21.65-30.35,43.3-60.67c-.52-2.35-.79-5.53.85-8.26,1-1.62,1.64-1.44,2.71-3,2.55-3.72,2.22-9.86-.57-13.53-1.38-1.81-2.18-1.47-3.42-3.41-1.79-2.81-1.51-5.64-1.57-7.84-.14-5.65-2.52-7.07-4.7-13.81a49.82,49.82,0,0,1-2-16.8c1.31-17.49,18.1-32.91,21.64-36.18,2.69-2.46,7.27-6.29,9.12-12.67a27.42,27.42,0,0,0,.71-10.54c-.51-3.27-1.37-4-1.85-6.69-1-5.17,1-9.46,2.28-12.53,8.27-19.79,4.14-25,11-30,5.18-3.84,10.69-3.19,14.67-9.26a26.71,26.71,0,0,0,2.71-5.55c1.48-4.19,1.08-6.34,2-10.25.77-3.32,1.54-3.83,3.7-8.83,4.37-10.1,2.57-11.09,6.27-18.37,3.24-6.38,5.06-6.49,5.41-10.4.29-3.32-.76-6.13,1.14-9.4,1.07-1.83,1.82-1.66,2.42-3.27C1635.72,1482.29,1634.24,1478.16,1631.59,1476Z"/><path d="M832.7,78.83c1.37,1,2.23.26,4,1,3.48,1.46,2.9,5.75,5.56,6.41,2.39.59,5.11-2.35,5.84-3.14.94-1,1.72-1.86,1.7-2.85,0-2.07-4-1.76-9.39-5.26-3-1.94-4.23-3.59-6.41-3.28a4.09,4.09,0,0,0-2.85,1.85C830.2,75.32,831.24,77.72,832.7,78.83Z"/><path d="M869.58,151.74a4.6,4.6,0,0,0,4.27-3.7c.52-2.64-1.62-5.59-3.7-5.55-1.92,0-3.17,2.59-3.56,3.84-.24.76-.85,2.69.28,4.13A3.67,3.67,0,0,0,869.58,151.74Z"/><path d="M786.56,192.9c2.34,1.2,2.43,2.61,4.27,3a4.42,4.42,0,0,0,3.56-.86,4.84,4.84,0,0,0,.85-6.4c-1.24-1.52-3.45-1.38-4.84-1.29-4.13.27-7.89,3.09-7.55,4.28C783.05,192.29,784.36,191.77,786.56,192.9Z"/><path d="M721.48,248.44c-2.44,1.75-3,7-.86,9.54,1.4,1.6,3.23,1.24,9.26,1.42,11.12.34,12.4,1.79,14.52.14,3.68-2.85,3.74-10.24,1-15.23-3.36-6.11-10.17-7.27-11.82-7.55-7.43-1.27-14.12,2.41-14,3.42.11.72,3.73-.12,5.41,2.13a4,4,0,0,1,.28,4.42C724.4,248,722.92,247.4,721.48,248.44Z"/><path d="M746.11,377.88c-2.93-.16-3.27.66-5.69.71-5.69.13-7.6-4.3-11.82-3.27-1.74.42-3.76,1.75-3.71,3,.11,2.18,6.53,1.72,14.53,6,6.47,3.45,8,6.78,11.11,6,2.9-.74,5.43-4.51,4.7-7.26-.42-1.56-1.79-2.47-3-3.28A12.39,12.39,0,0,0,746.11,377.88Z"/><path d="M765.34,387.14c1-.12,2.32-.68,2.56-1.57s-.64-1.72-3.56-4.41c-4.57-4.21-5.42-4.9-7-5.56s-4.29-1.4-4.7-.71c-.3.51.69,1.59,1.85,2.85C762.11,386,763.36,387.36,765.34,387.14Z"/><path d="M128.22,794.28c1.24-.19,1.22-1.9,3.27-4.85,1.81-2.6,2.58-2.37,5.13-5.41,2.37-2.83,4.48-5.34,3.7-7s-4.37-2.35-6.55-1c-2.79,1.74-.94,5.47-4.13,9.11-2.37,2.7-4.92,2.4-5.27,4.42S126.52,794.53,128.22,794.28Z"/><path d="M166.24,803a20,20,0,0,0,8.69,4c3.57.82,6.64,1.53,8.54-.29,2.05-2,1.74-5.95.28-8.4a9.37,9.37,0,0,0-2.7-2.7c-3.81-2.94-6.08-2.38-6.69-4s1.77-2.74,4.27-8.12c1.18-2.55.59-2.21,2.56-7.26,1.44-3.69,2-4.38,1.57-5.41-1-2.65-5.94-1.87-6.55-4.13-.55-2,2.82-4.44,3-4.56,1.61-1.14,3.25-1.43,5.84-1.85,3.71-.61,4.33,0,5.41-.85,1.94-1.51,2-5,1.42-7.41-1-3.86-3.7-4.87-3.13-6.41.7-1.91,5.85-2.82,8.54-.71,2.16,1.69,1.67,4.48,3,4.7s3.78-2.82,4-6c.14-2-.62-3.6-2.14-6.69-2-4.15-3.2-4.76-2.84-6.13.45-1.7,2.73-2.44,7.12-3.84a52.49,52.49,0,0,1,8.11-1.85c4.45-.71,4.54-.36,7.41-.86a30.27,30.27,0,0,0,11.68-4.27,20.36,20.36,0,0,0,7-6.69c2.08-3.42,2.37-6.54,2.85-11.68.06-.66.6-6.61-.42-6.84s-1.68,4.83-4.56,5.42c-2.06.41-4.82-1.53-5.41-3.71-.37-1.34.32-1.91-.15-2.56-1.11-1.56-5.22,1.43-10.11.43a11.46,11.46,0,0,1-7.26-5c-1.8-3-.46-4.74-2.56-8.11-.52-.83-2.51-4-5-4-2.29,0-2.58,2.84-6,6-3.69,3.41-8.45,4.81-13.38,6.26-3.16.94-4.2.91-5.7,2.14-2.9,2.38-3.54,6.19-3.84,8-1,5.66,1.2,8.74-1.14,11.53-.86,1-1.73,1.29-1.71,2.14,0,1.47,2.66,2,5.84,4.41,2.18,1.68,3.73,2.87,4.27,4.7,1.13,3.85-2.66,8.88-6.27,11.54s-5.66,2-6.69,4.27c-.94,2.07.65,3,1.28,9,.55,5.16-.31,7.57-.57,8.26-.62,1.63-.88,1.25-2.14,3.84-2,4.22-1.52,5.51-3.13,6.84-1.84,1.52-3.32.46-4.7,1.85-1.65,1.66-.66,4.29-.57,7.55.21,7.27-4.34,8-4.27,14.38C159.35,797.18,165.47,802.33,166.24,803Z"/><path d="M132.63,882.85c6.48,1.87,12.9-.55,13.67-.85a39.41,39.41,0,0,1,7.41-2.57c3.9-.84,5-.32,5.55,0,2.15,1.35,1.26,4,3.13,5,.68.34,1.51.35,7-2,4.66-2,4.78-2.32,6.27-2.56a13.42,13.42,0,0,1,7.54,1.14c1.94.84,4.59,2,5.7,4.41,1.21,2.64-.48,4.45-2,10.68-.95,3.89-2.74,11.29,0,13.25,1.49,1.06,3-.43,6.12.57,2,.64,3.24,1.86,5.13,3.84a139.54,139.54,0,0,1,9.4,10.4c4.2,5.57,4,6.48,6.55,8.54,1.33,1.08,6.33,5.11,9.54,3.56,2.5-1.2,2-4.86,4-16.23.67-3.84,1.12-6.35,2-9.68,2.31-8.86,4.86-12.9,4.41-19.94-.19-3.08-.81-4.42-1.85-5.13-2.32-1.58-5.34,2.71-8.4,1.85-4.42-1.24-8.19-12.53-3.13-17.65,1.62-1.65,3.8-2,7.54-2.57,5.71-.87,8.47.53,12.39-1.56,1.62-.86,3.39-2.3,3.14-3s-3.19-.22-7.55,0c-7.43.39-8.3.22-9-.14-1.7-.91-2.21-2.32-4.56-8.54-3.7-9.82-4.5-11.78-5.7-11.82-1.63-.06-1.72,3.52-5.69,7.12-1.3,1.18-4.66,4.22-8.4,3.84-3.9-.38-3.77-4-9.26-6.55a17.09,17.09,0,0,0-11.82-.85,11.46,11.46,0,0,0-4.7,2.56c-3.46,3.29-1.79,6.58-4.56,9.54-3.42,3.68-9.82,2.76-11,2.57-2.82-.47-5-1.94-9.4-4.85-6.68-4.47-8.87-7.27-10.82-6.4-.57.25-1,.74-2.14,4.84-2.24,7.89-1.51,8.81-3,10.68-2.11,2.66-4.05,1.37-8.26,4.84-2.07,1.7-4.45,3.67-4.41,6.12C123.57,879,129.18,881.86,132.63,882.85Z"/><path d="M239.58,890.68c-1,1.8-.81,2.93-1.57,8-.61,4.05-.94,4.54-1.71,8.68-2.35,12.74-.18,13.33-2.42,19.37s-5.26,7.71-4.27,11.25c.88,3.16,4.12,4.87,5.41,5.56,2.86,1.51,6.18,2,11.68,1.28a44.85,44.85,0,0,0,20.08-7c5.58-3.68,12-7.91,13.67-15.24.57-2.55-.23-1.92-1.85-15-1.19-9.5-1.09-12.52-3.71-14.38-2.21-1.58-4.13-.74-7.83-3.28-2.48-1.7-2.24-2.51-4.13-3.84-5.34-3.79-13-1.41-14.81-.86C245.29,886.15,241.52,887.32,239.58,890.68Z"/><path d="M219.64,974.85c-4.41-3.12-4.89-8.07-7-7.84-.73.09-1.17.75-1.56,1.28-1.87,2.49-5.33,4.23-12.25,7.69-5.75,2.88-7.73,3-8.54,5.27a5.39,5.39,0,0,0,.56,4.85c2.07,2.79,6.23.79,15,1.56,7.81.69,10,2.78,13.81.86a11.17,11.17,0,0,0,4.84-5.13c.47-1.07,1.43-3.23.57-5.13S222.34,976.76,219.64,974.85Z"/><path d="M171.93,1034.66c-2.63-.78-6.93-1-9,1.42-.74.89-.34,1.13-1.28,3-1.83,3.61-4,4.06-4,5.84.07,2,2.83,3.27,3.14,3.42,3.35,1.54,7-.45,8.26-1.14a17.31,17.31,0,0,0,3.84-3.14c2.9-2.78,4.35-4.17,4.13-5.69C176.74,1036.07,173,1035,171.93,1034.66Z"/><path d="M106.29,1100.16c1.24-.65,3.1-1.61,3.56-3.42.83-3.26-3.26-7.82-6.55-7.54-4.32.36-7.3,9-5,11.53C99.89,1102.43,104,1101.34,106.29,1100.16Z"/><path d="M131.49,1097c2.72,2.24,2.82,3.65,4.42,3.7,3.83.12,8.85-7.8,6.83-13.24-.15-.4-1.21-3.14-3.56-3.85-.76-.23-1.47-.19-5.69,1.14s-4.65,1.65-5.84,1.57c-2.26-.16-2.38-1.28-5-1.57-.47,0-4.24-.43-5.27,1.43-.71,1.28.23,3,.43,3.41C120.13,1094,125.56,1092.14,131.49,1097Z"/><path d="M258.66,1286.57c2-.17,4.38-1.54,4.84-3.7.6-2.79-2.25-5.63-5.13-6.27s-6.34.76-7,3C250.57,1282.52,254.67,1286.9,258.66,1286.57Z"/><path d="M294.69,1323.45c0,.54,0,2.74,1.42,3.85,2,1.52,5.74.31,7.83-1.71,1.47-1.41.93-2.09,3-5.13,1.87-2.74,2.64-2.68,3.57-4.55.18-.37,1.87-3.89.71-6.84-2.11-5.34-12.58-6.26-14.1-3.7-1.06,1.78,3.07,3.86,2.56,8.11S294.7,1318.85,294.69,1323.45Z"/><path d="M336.41,1284.58c-.11-1.36-2-2.16-5.84-3.71-6.61-2.67-10.07-4.07-13.38-2.42-2.63,1.32-3.86,3.9-4.84,6s-2.31,4.88-1.14,6.7,4.63,1.75,8,1.56a27,27,0,0,0,8.83-2.13C331,1289.33,336.62,1287,336.41,1284.58Z"/><path d="M307.5,1325.45c1.31,3.5,12.88,2,14.53,1.85,5.93-.74,8.9-1.11,10.55-2.94,4.82-5.36-3.65-13.6-1.29-28,.23-1.42.85-4.61-.57-5.56s-3.35,1.39-8.41,2.28c-3.42.61-4.68-.09-5.55,1-1.66,2.08,1.49,6.48.14,7.55-1,.81-3.35-1.4-4.41-.57s.36,2.93.71,6.26c.5,4.83-1.35,9-2.42,11.39C308.76,1323.29,307,1324,307.5,1325.45Z"/><path d="M291.56,1375.29c-1.69-1.52-3.48-1.89-7-2.56-4.27-.83-11.91-2.3-13.25.28s4,7.59,4.85,8.4c3.55,3.41,7.51,5.36,17.51,8.55,14.6,4.64,14.29,3.06,17.94,5.55,5,3.43,5.95,6.64,13.53,11.25,5.84,3.54,7.69,3.09,8.55,2.71,3.32-1.51,4.76-8,2.42-11.25-2.8-3.86-10.1-1.88-11-4.85-.16-.57.51-2,1.85-5,1.93-4.19,2.42-4.72,2.14-5.55-.49-1.42-2.47-1.42-8-2.71-7.26-1.69-7.54-2.56-10.68-2.42a27.82,27.82,0,0,0-7.69,1.71c-4.13,1.4-5.09,2.56-6.7,2C293.83,1380.61,294.32,1377.78,291.56,1375.29Z"/><path d="M355.07,1419.86c4.68-3.14,7-4.76,7.83-7.26.91-2.85.55-7.12-2.42-9.4a7.72,7.72,0,0,0-6.84-1.14c-4.1,1.27-5.69,5.85-7.12,10-.41,1.2-3.64,10.52-.85,12.25C347.14,1425.19,349.78,1423.41,355.07,1419.86Z"/><path d="M368.74,1434.39a9.37,9.37,0,0,0,10.54,1.42,8.6,8.6,0,0,0,4.55-5.55,7.18,7.18,0,0,0-.85-5.56c-2.16-3.07-6.92-3.11-10-2s-6.66,4.43-6.26,8A6.24,6.24,0,0,0,368.74,1434.39Z"/><path d="M15.57,1988.06C4.29,1995,2,1998.57.91,2001.16c-.53,1.22-1.39,3.28-.57,4.13,1.51,1.57,7.65-2.14,8.11-2.42,2-1.24,3.59-2.68,6.7-5.55a30.6,30.6,0,0,0,3.41-3.42c2.36-3.08,4-7.48,2.85-8.4C20.9,1985.07,19.86,1985.41,15.57,1988.06Z"/><path d="M70.26,2113.09c5.75-.55,6.63-4.91,13.53-6.83a26.84,26.84,0,0,1,6.69-.86c6.11-.21,8.48,1.27,9.68-.14,1.57-1.85-.7-6.51-2.42-8.83a15,15,0,0,0-3-3c-2.1-1.64-3.23-1.73-5.55-3-4.62-2.51-4.94-4.75-6.55-4.42-2.19.45-1.51,4.56-5.13,8.26-1.72,1.76-3.49,2.49-6.12,3.56-6.52,2.67-8.74,1-11.68,3-5.24,3.63-5.26,13.93-2.85,15.1,1.46.71,3.21-2.23,8.12-3C67.7,2112.52,67.78,2113.33,70.26,2113.09Z"/><path d="M149.58,2274.44c-.46-1.69-6-2.36-10.83-1.14-8.75,2.22-12.9,10.25-14.66,13.67-1,2-2.08,4.07-1.28,5,1.27,1.47,7-.65,10.82-3.7,1.57-1.24,1.62-1.67,4.13-3.7,2.35-1.9,3.24-2.28,5.55-4C147.46,2277.49,149.91,2275.68,149.58,2274.44Z"/><path d="M275.75,2262.76c2-1.34,5-4.11,4.41-5.56-.53-1.23-3.25-.3-9.68-.56-7-.29-8.94-1.6-14.1-.57-1.52.3-.91.33-4.56,1.28-7.62,2-8.58,1.42-10.53,2.7-3.8,2.49-5.89,8.41-4,11,1.28,1.72,4.15,1.64,6.83,1.56,1.26,0,2.42-.18,9-2.13,1.82-.54,2.88-.88,9.25-2.85,3.18-1,3.63-1.12,4.56-1.42C274,2263.91,275.13,2263.18,275.75,2262.76Z"/><path d="M385,2233.42c2.68-.22,6.36-.54,7.84-3.27,1-1.92.88-4.84-.57-5.84-.35-.24-1.47-.85-7.84,2.42-4.89,2.51-7.64,3.92-7.4,5.13C377.3,2233.36,382,2233.67,385,2233.42Z"/><path d="M390.67,2367.43c-2.87,1.08-8,3.1-11,8.26-.68,1.19-1.93,3.35-1.14,4.41.92,1.21,4,.28,5.84-.28,2.57-.78,8.25-2.51,10.83-7.69.27-.56,2-4.15.71-5.42C395,2365.81,393,2366.54,390.67,2367.43Z"/><path d="M418.44,2340.51c-3.1-.09-5.43,5.29-6,6.55-.83,1.92-1.38,4.56-1.71,9.83-.3,4.61-.56,5.33,0,5.69,1.22.8,3.33-5.62,9.25-7.83,3.77-1.4,6.25-.11,7.13-1.71,1-1.77-1.32-4.76-4-8.26C421,2342,419.88,2340.55,418.44,2340.51Z"/><path d="M411.6,2343.36c1.25-1.36.91-4.24-.57-5.7-2.11-2.09-6.22-.93-8.4,1-1.41,1.25-2.87,3.58-2.13,4.84.51.89,2.53.85,6.55.71C410.71,2344.09,411.26,2343.74,411.6,2343.36Z"/><path d="M1632.73,1163.67c-1-.18-6.14-1.17-7.12.72-.67,1.28,1.37,2.43,1.42,5.55,0,2.56-1.3,4.1-.85,4.41s2.08-1.74,5.27-4.12c3.77-2.84,6.1-3.3,6-4.42S1634.2,1164,1632.73,1163.67Z"/></g></g></svg>