<svg xmlns="http://www.w3.org/2000/svg" viewBox="0 0 1141.89 3287.96"><g id="Layer_2" data-name="Layer 2"><g id="Isreal"><path d="M828.2,2012c-4.33-11.54-5.44-21.53-9.35-21.75-1.56-.08-2,1.48-5.22,2.18a12.42,12.42,0,0,1-15-12.83c.21-5.23,4.19-6.83,11.09-16.31,3-4.14,1.75-3.14,7.61-12.39,9.36-14.78,12-16.44,13-22.4.4-2.33-.38-6.66-2-15.22-3.69-20-5.63-20.11-5.44-28,.21-8.38,2.43-11,0-15.65-2.55-4.88-6.45-4.71-9.13-10-1-1.93-1.29-3.61-1.09-13.7.33-16,1.25-17.1-.21-20.88-2.58-6.67-6.5-5.93-8-12-1.71-6.66,1-15.48,6.74-18.91,4.57-2.76,7.85-.12,13-3.26,1.39-.85,4-2.73,7.17-9.35,7.21-14.85,1.33-19.82,7.4-35.23,1.33-3.4,3.31-7.44,1.52-10.87-1.53-2.93-4.47-2.84-7-5.87-2.93-3.56-2.66-8.29-2.39-12,1.05-14.58,10-17.54,10.65-30.87.18-3.74-.39-6.7-1.52-12.62-1.86-9.68-3.85-11.61-4.57-18.91-.82-8.46,1.67-7.74.66-14.79-1.43-9.91-6.63-13.11-5-20,.7-3,2-3.94,4.34-7.39,5-7.45,6.22-14.51,7.83-22,2.78-12.81-.41-11.49,2-23.7.18-1,.55-2.77-.22-3.27-1.5-1-6.21,3.81-14.13,12.18-12.4,13.11-11.86,13-14.79,15.87-11.54,11.14-17,9.15-39.79,25-2.86,2-6.88,4.79-12,8.91a208.27,208.27,0,0,0-20.44,19.14c-10.92,11.63-9.23,12.23-13.69,15-7.63,4.73-13.54,3.58-27.18,5.22-14.87,1.78-16.08,4.14-28.27,6.09-20.7,3.3-25-2.26-64.79-4.57a305,305,0,0,0-32.4-.65,424.2,424.2,0,0,0-45.88,4.13c-12.61,2-17.33,3.54-25.66,2a49.11,49.11,0,0,1-22.39-10.88c-2.92-2.48-15-12.76-17-29.35-1.88-16,6.78-28.53,14.13-39.14,6.69-9.66,8.79-8.89,16.53-18.48,4.6-5.71,19.66-24.38,23-48.92,2.89-20.91-5.46-26,.87-45,1-2.86,4-8.93,10-21.09,7.38-14.86,11.06-22.29,14.79-28.27,4.44-7.13,12.15-19.5,25-29.79,16.59-13.28,23.13-8.16,47-23.48,16.26-10.45,11.91-11.78,26.53-20.22,9.72-5.61,27.59-14.19,28.7-23.7a11,11,0,0,1,1.09-4.35c1.59-3.1,4.14-3.84,10.43-8,5.15-3.44,5.39-4.25,5.44-4.79.11-1.25-.74-2.66-9.35-8.7-5.88-4.11-7.1-4.59-8.48-6.74-2-3.05-3.39-8.18-1.31-10.43,2.56-2.77,7.63,1.85,15.66.65s13.49-7.59,17-11.74c4.63-5.55,10.38-15.38,7.61-18.48-1.91-2.15-6,1-13.7.43-6.43-.45-10.61-3.13-16.09-6.3-9.48-5.49-19.61-9.78-29.35-14.79-24.31-12.51-27.24-12.43-29.79-11.52-7.55,2.68-5.85,10.54-17.4,19.35a48.38,48.38,0,0,1-18.69,8.48c-7.24,1.76-17,4.12-27-.65C550.19,1252,546,1244,544,1240.3c-3.08-5.82-6.8-12.84-4.14-18.7,4.57-10.07,25-10.2,27.84-10.22,3.48,0,9,.32,18.26-.22,7.81-.46,9.06-1,10-2,5.18-5.24-1.7-19.91-5-27-2.36-5-5-9.16-10.22-17.39-8.8-13.84-10.79-15.13-13.26-22-1.82-5-4.33-12.26-1.74-19.78a32.46,32.46,0,0,1,4.57-8.26c2.95-4,5.57-5.73,7.39-7.4,4.5-4.13,5.83-10.21,8.48-22.39,1.86-8.56,3.26-15,3-23.92a84.53,84.53,0,0,0-4.35-24.35c-5.09-15.29-10.68-17.68-9.35-25.66,1.29-7.7,6.85-7.71,8.27-15.87,1.14-6.6-1.9-10-6.74-22.62-4.66-12.09-2.41-10.38-7.83-26.09-6.49-18.8-10.28-22.92-7.83-29.57,1.47-4,4.89-6.64,11.74-12,9.76-7.58,12.87-6.84,21.75-13.26,4.76-3.45,12.67-9.3,18-19.57,2.45-4.69,7.31-14,3.7-21.31-2.44-5-6.15-3.76-9.35-8.7-3.53-5.44-.79-9.64,1.3-27.61,1.67-14.29.86-19.64,5.22-22.61,3.48-2.38,5.67-.11,10-2.61,7.86-4.54,8.81-16.67,8.92-18.27.52-7.9-2.62-10.07-.87-16.3,1.42-5.07,4.68-7.86,7-10.22,12.58-13.07,6.26-24.8,19.57-45.23A73.93,73.93,0,0,1,672.74,683c7.43-6.23,13.2-8.46,22-12.83a257.12,257.12,0,0,0,33.48-20c10-7.19,18.23-14.65,33.7-23.26,4-2.23,8.08-4.31,13.27-3.92,6,.45,8,3.78,19.57,11.74,7.7,5.32,13.19,9,20.87,11.74a61.35,61.35,0,0,0,16.53,3.27c15.64.9,18.68-5,32.39-2.83,1.68.26,5.61,1.19,13.48,3,1.56.37,6.11,1.45,13.27,3.26,12.76,3.25,19.17,4.89,20.65,6.31,1.83,1.74,1.69,2.51,7.18,18.7,3.91,11.53,4.18,11.73,4.35,13.92.68,9.1-3.66,11.06-2.61,19.13.33,2.57,2.4,6.46,6.52,14.13,5.44,10.13,8.22,15.22,11.09,16.31,4.5,1.71,6.65-1.38,18-2.61,4.74-.51,8.41-.91,12.61-.22,10.64,1.76,14,8.78,28.92,17.4,6.57,3.81,8.26,5.34,11.3,5.65,6.34.64,13.86-2.51,17.62-8.26,3.41-5.22.66-7.91,3-20.44,1.71-9,3.37-8.89,4.78-17,1.89-10.77-1-11.47.22-22.18,1.48-13.24,6.18-15,5.87-26.74-.2-7.53-2.15-7.1-2.39-14.14-.41-11.68,4.86-16,8.91-29.57,2.09-7,5.35-17.94,3.05-30.44-2.47-13.4-8.91-15.47-9.57-29.35-.23-4.89-.62-13.12,4.57-18.7,4.36-4.7,9-3.57,16.74-7.18,7.5-3.5,5.71-6.08,17.61-15.87,7.91-6.5,11.19-7.71,11.74-11.52.88-6-6.35-11.84-7.61-12.83-4.62-3.65-7.53-2.73-10.32-4.57-4-2.61-1.73-6.84-6.85-11.09a8.15,8.15,0,0,0-4.24-2.28c-4-.51-5.63,3.57-10.77,5.55-4.32,1.66-10.22,1.49-13.37-1.31-3.54-3.14-2.88-9-2.61-13,0,0,1.25-18.92-4.24-36.53-3.6-11.54-7.47-10.09-17.28-31-4.38-9.32-6.57-14-6.85-18.26-1.19-18.06,15.77-32.76,20.87-37.18,12.35-10.71,31-19.31,37.18-22.18,4.11-1.9,5.93-2.57,8.48-4.57,11.8-9.24,12.43-26.16,13-35.55,1.31-20.08,6.2-39.77,9.13-59.68,5.25-35.72,7.87-53.57,16.63-74,8.42-19.67,13.53-22.11,16-37.51,2.77-17.34-2.39-22.55,1.64-46,2.43-14.19,3.65-21.28,6.19-27.07,3.28-7.48,6.64-11.6,4.89-16.31-1.43-3.87-4.84-4.19-13.69-9.79C1115.63,7.75,1117.5,5.52,1112.06,4c-10.75-3.06-15.86,6.27-27.4,3.26-8.2-2.14-9.4-7.85-14.35-7.18-6.46.88-10.13,11.38-14.35,25.77-6.7,22.85-10,34.27-12.72,51.21-4.71,29.9-2.85,37.12-10.76,47.94-7.56,10.34-18,15.68-21.85,17.61C994.3,150.74,986,146.07,970.84,156c-8.19,5.35-7.89,8.11-15.33,11.09-9.2,3.69-17.78,2.72-27.4,1.63-10.9-1.23-17.18-1.93-24.13-5.87-12.28-6.94-8.44-15.69-20.22-25.76-9.13-7.81-24.75-14.27-38.49-10.77-6.88,1.76-9,4.92-17,5.22-8.46.33-11.33-3-18.92-2.93-9.34.08-11.16,5.2-19.89,7.83-19.78,5.94-31.81-13.86-54.79-8.48-4.74,1.1-9.47,2.21-13.7,6.19-13.51,12.71-.13,34.06-13.7,62-4,8.25-5.14,6.3-9.46,15.33-8.2,17.14-7.93,32.12-8.15,47.62-.63,43.13,1.64,46.43-3.27,61-4.31,12.82-10.53,21.94-15.22,28.81-9,13.26-14.49,16.47-17.17,17.83s-13.66,6.91-22,2.39c-8.07-4.39-5.17-13.69-12.83-18.05-7.86-4.46-20.86-.36-27,7.39-4.46,5.66-3.71,11.3-4.14,22.4-.35,9.47-3.35,25.23-9.34,56.75-1.67,8.77-3.74,18.78-6.31,29.79-4,16.92-7.32,28.58-8,31.09-2.82,9.72-4.87,15.76-6.08,19.57-7.1,22.26-8,38.59-10.88,56.53-2.62,16.37-7.25,31.43-16.52,61.54-17.06,55.42-23,55.59-27.4,85.23-3,20.49-1.18,27.28-7.17,43.92-6.08,16.9-11.78,20.51-19.79,42.62-1.15,3.18-3.88,13.14-9.35,33-6.07,22.12-8.11,30.75-9.78,38.7-3.12,14.8-2.07,13.52-4.13,22.4-4.15,17.87-8.64,24.17-20.66,53.7-9.35,23-7.07,20.24-13.05,33.49-6.85,15.18-14.07,28.16-21.52,41.53-12.27,22-14.68,24.2-17.18,33.7-1.87,7.1-2.1,11.88-5.87,25.66-2.66,9.74-5.1,16.71-5.65,18.26a231,231,0,0,1-11.53,27c-26.27,52.67-44.27,74.12-47.4,92.41-.49,2.9-1.42,10.41-7,17-3.21,3.81-5.18,4-8.69,8-1.92,2.22-3.41,4.57-7.83,16.31-5.08,13.46-5.23,16-8.92,23.48a99.72,99.72,0,0,1-5.87,10.44c-5.91,9.09-9,10.22-15.65,18.26-12.39,15.06-11.85,23.77-20.22,30.22a18.54,18.54,0,0,0-6.53,7.61c-.87,2.09-.77,3.21-1.95,7a68.21,68.21,0,0,1-2.83,7.18c-4.09,9-19.7,23.69-29.35,36.74-6.58,8.9-10.1,11.51-9.79,16.09.14,2,.91,5,8.27,12.61,9.07,9.37,13.08,10.14,20,17,5.09,5,11.56,11.4,13.26,20,2.72,13.69-8,26.23-10.43,29.13C200.54,1524,182.08,1516,163.51,1536c-7.55,8.16-4.56,9.55-14.35,20.88-11.07,12.8-15.21,11.37-33.27,26.74-10.27,8.74-4.75,5.64-33.92,37-2.56,2.75-5.24,5.6-6.52,10.22-1.43,5.12,0,8.23,2.61,24.35a81.1,81.1,0,0,1,1.3,10.22c0,4.57.13,12.88-4.57,19.13-5,6.67-9.83,3.5-15.87,10.44-4.6,5.28-2.72,8.17-8,16.31a48.48,48.48,0,0,1-10.44,11.3c-2.91,2.38-6.63,4.89-23.92,12.18-11.68,4.92-13.17,3.55-15,6.09-4.51,6.22,2.12,13.69,5.44,33.26,2.18,12.89,0,13.7,2,26.75a124.1,124.1,0,0,0,9.79,32.4c4.78,11.19,4.39,13.51,22,83.49,11.92,47.47,17.87,71.2,23.05,89.15C72,2034.59,73,2034.68,87,2081.11c17,56.41,13.51,49.47,20.66,70.45,21.17,62.12,32.62,66.29,35.66,99.8,1.61,17.85-.52,29,4.78,51.32,2.81,11.86,5.62,18,3.7,28-2.18,11.32-8.15,15.87-7.18,27.4.44,5.25,2.09,9.23,4.57,15.22a86.3,86.3,0,0,0,10.65,18.7c9.81,13.07,15.63,13.06,16.31,19.79.55,5.54-3.29,6.56-7.39,18.26-1.18,3.36-1.07,3.86-3.92,18.7-4.15,21.66-5,23.8-3.69,28.7.49,1.85,2.95,10.26,10.43,15.44,4.14,2.86,5.87,2,11.31,4.35,6.62,2.84,9.44,6.42,20.22,17.61,15.24,15.83,14.17,13.41,15.66,15.87,4.51,7.49,3.77,12.1,7.39,36.53,0,0,.33,2.25,3,18.7,4.38,26.56,12.64,39.16,22,67,5.42,16.15,2.07,10.21,12.83,50.23,9.35,34.74,18.48,64.36,18.48,64.36,9.66,31.29,13.42,40.19,14.57,55,.07.85,1,10,2.83,28.27a149.16,149.16,0,0,0,2.61,17.39c1.39,6.48,2.9,11.22,3.48,13.05,5.47,17.29,10.23,34.8,15.43,52.18,7.53,25.13,5.32,23.44,13.05,50.88,10.69,37.92,19,55.58,23.7,82,2.43,13.57,4,22.44,3,34.57-.51,6.4-1.35,9-.65,14.79,1,8.12,3.65,10.71,9.13,25.22,3.31,8.74,5,13.11,5.44,17.61,1,9.68-1.91,15.6-3.91,23.27s-1.13,19.37.65,42.62a366.56,366.56,0,0,0,5.65,40.44c3.79,19.45,5.86,22,8.26,22.83,7.35,2.63,12.22-12.19,33.49-22.4,13.41-6.43,21-5.09,27.4-13.26,2-2.57,3.29-8.44,5.87-20,4.12-18.53,4-24.9,9.35-35.88,2.13-4.4,2.14-3.37,5-8.92,4.85-9.41,8.09-18.75,11.09-31.09,4.27-17.59,2.43-18.16,7.61-43.48,2.67-13.09,4.44-19.2,7.39-25.88,4.08-9.24,8-14.14,11.74-19.79,8-12.12,13.1-28.81,23.27-62.18,5.53-18.19,6.58-24.05,7-30.66.82-14.51-2.61-15.18-2.39-28.48.2-11.64,4.77-24.5,13.92-50.23,4.92-13.83,6.2-15.94,8.48-24.57,4.36-16.51,2.73-20.42,5.22-30.88,5.5-23.14,22.2-40.64,36.74-55.88,9.11-9.54,14.76-13.57,18-23.48,1.44-4.33,2.28-9.33,0-28.48-3.16-26.59-9.35-55.67-9.35-55.67-2.8-13.18-3.8-16.42-3-22.61,1.65-13.59,8.48-14.48,12.39-29.14,4.26-16-2.43-20.15,3.7-35.44a74.28,74.28,0,0,1,8.91-15.65c5.81-7.78,7.81-7.18,11.09-12,8.81-12.85,6.67-35.12-3.48-44.58-2-1.88-3.57-2.52-5.87-5.43-5.43-6.87-5.93-14.91-6.09-18.05-.63-12.68,5.22-23.12,10.22-33.48,2.51-5.21,8.34-21.38,20-53.71,7.35-20.39,5.85-18.56,12.17-36.09,12.89-35.75,20.2-56,35.44-78.71,8.83-13.14,14-17.6,23.27-34.14,6.11-10.85,11.56-20.67,15.22-34.57,4.75-18,.22-19.13,5.43-32.84,5.13-13.48,14-24.2,20.23-31.74,8.8-10.65,9.94-9.3,13-15,7-12.93.53-18.71,4.79-37.62,2-8.84,6.54-17.42,15.65-34.57,3.5-6.6,5.93-10.56,9.79-14.79a66.19,66.19,0,0,1,16.3-12.83c8.57-4.6,11.38-3.35,13-6.52C840.44,2031.92,834,2027.43,828.2,2012Z"/></g></g></svg>