<svg xmlns="http://www.w3.org/2000/svg" viewBox="0 0 2207.08 2609.62"><g id="Layer_2" data-name="Layer 2"><g id="Italy"><path d="M1137.82,2255.51c3.79-.07,3.45,15.37,15,27.76,2.66,2.87,7.79,8.37,13.56,7.64,5-.64,5.08-5.34,12-9,8.65-4.62,15-.67,18.09-5.15,2-2.85-.33-4.77.93-12.94.75-4.85,1.56-10.06,4.84-11.54s5.63,2.71,12.63,3.12c5.89.34,10.84-2.3,13.25-3.59,6.76-3.6,7.74-7.34,10.76-6.86,2.31.37,3.35,2.81,7.64,12,6.72,14.4,7.74,16.07,10,16.84.92.32,1.19.19,14.66-2,3.91-.64,5.89-.94,7.33,0,3,2,1.16,6,3.59,10.29s6.06,3,15,8c8.08,4.5,8.47,7.48,15.28,10a33.5,33.5,0,0,0,11.54,1.87c11.63.22,20.8-4.4,25.26-6.71,7.06-3.66,7.06-5.28,11.85-6.55,6.55-1.73,11,.12,18.4,1.72,16.11,3.51,15.21-.85,37.58,2.34,8.4,1.19,12.71,2.4,19.34.78,5.26-1.29,5.64-2.81,12.63-4.84,7.31-2.11,8.48-.91,17.93-3,6.6-1.43,10.48-2.28,15-5,3.44-2.08,5.88-4.66,10.76-9.82,7.37-7.79,7-9.15,11.07-11.85,4.64-3.1,9.14-4,13.72-5,5.35-1.12,9.41-1.11,15.13-1.1,7.42,0,11.14,0,13.72.94,4.41,1.56,4.88,3.36,16.22,11.23,5,3.47,6.06,3.91,7.48,3.9,3.48,0,5.47-2.78,12.63-10.92,9.58-10.88,12.19-13,15.44-12.94s3.49,2.22,7.8,2.49c4.86.31,8.83-2.19,11.54-3.9,4.45-2.8,3.6-3.81,7.64-6.39,4.58-2.93,5.49-1.51,12.94-5,4.52-2.11,5.41-3.2,9.2-4.21a17.82,17.82,0,0,1,7.8-.78c3.66.58,9.13,3,10,6.86.72,3.33-2.42,5.46-6.08,11.23-3.31,5.2-3.54,7.85-6.55,16.06-3.14,8.56-7.43,20.23-15.13,31-5.93,8.33-6.36,5.57-16.06,17.78a208.19,208.19,0,0,0-15.28,22.3,143.27,143.27,0,0,0-8.58,15.75c-3.49,7.71-8.21,18.14-9.51,31.81-1,10.42.78,14.65-3.12,19.8-3.66,4.85-7.16,3.67-11.07,8.42-2.51,3.05-3,5.84-3.9,22.61-1.09,19.55-.89,23.25,2,26.67,1.19,1.39,4.22,2.95,10.29,6.08,10.73,5.53,16.52,7.12,16.37,9.67,0,.52-.29.75-5.45,5.14-2.77,2.36-4.16,3.55-4.37,4.06-1.35,3.26,2.23,5.16,2.81,12,.25,3-.32,3.86.62,5.31.85,1.29,2.28,2.1,7.33,3.27,6.44,1.5,7.4,1,8.6,1.75,4.34,2.87,3.48,14.75-1.74,23.67-4.38,7.48-7.51,5.47-16.53,15.9-.37.44-.29.36-12.47,18.72-3.56,5.36-5.39,8.11-5.93,12.47a26.8,26.8,0,0,0,1.25,11.07c1.71,5.38,3.53,5.56,4.37,10,.27,1.44,1.47,7.82-2.19,11.07-2.56,2.28-6.22,1.89-7.79,1.72-7.68-.82-7.48-9.26-15-11.39-5.92-1.67-9.47,2.3-13.88-.77-2.87-2-2.66-4.56-5.15-5.15-2.82-.66-4.47,2.3-9.51,4.68-.85.4-6,2.78-11.23,2.34-5.5-.48-7.11-3.79-14.5-8.42-2.81-1.76-8.94-5.61-16.53-7.18-11.35-2.35-16.57,2.33-22.3-1.87-2.71-2-3.23-4.27-5.46-9.67-3.06-7.43-6.51-13.21-13.41-24.79-6.36-10.68-10.14-17-17.46-23.08-7.86-6.5-15.44-9.06-23.7-11.85a125.47,125.47,0,0,0-34.62-6.08c-14.79-.57-17.35,1.79-26-.94-6.12-1.92-10.82-5.51-20-12.63-17.41-13.54-18.28-18.33-29.63-23.7-8.87-4.19-8.42-1.3-19.18-6.08-6.45-2.87-6.81-4-28.22-18.25-9.52-6.33-12-7.8-15.75-11.69-7.45-7.71-5.74-10.21-10.61-13.41-10.39-6.83-21.11,2.68-29.78-4.37-4.84-3.93-3.28-8.33-9.36-12.47-3.67-2.5-7.46-3.09-13.72-3.43-23.15-1.27-27.91,3.67-37-.63-5.6-2.66-3.92-4.63-13.87-11.38-9.73-6.59-12.12-5.25-17.62-9.36-14.33-10.69-15.09-32.5-15.29-38a69.31,69.31,0,0,1,3.12-22.15,86.61,86.61,0,0,1,11.85-25.1c4.4-6.43,6.6-9.64,11.08-12.32,4.74-2.85,7-2.1,15-6.08,4.44-2.23,7.43-3.73,10.45-6.71C1135.76,2261.4,1135.48,2255.56,1137.82,2255.51Z"/><path d="M1343.5,1632.24c-4.68,2.46-7.18,9.18-5.15,12.16,2.5,3.67,11.57,1.24,16.53-1.4,2.41-1.28,4.78-2.54,4.83-4.37C1359.82,1634.91,1350.24,1628.7,1343.5,1632.24Z"/><path d="M843.1,1205.91c-3.76,1.72-2.17,6.89-7.64,11.54-1.78,1.51-3.16,2-3.9,3.9-1.14,2.94.49,6.08.94,6.86,3.25,5.76,12.49,8,16.21,5,1.85-1.48,1.27-3.39,3.9-5.61s4.12-1.29,5.46-2.81c2.73-3.1.49-11.66-5.15-16.06C852.24,1208.18,847,1204.12,843.1,1205.91Z"/><path d="M695.9,1120.62c-5.52,1.86-11,1.71-22,1.4-8.17-.23-12.88.16-22.3.94-1.29.1-4.4.39-5.15,2.18s1.59,3,2.5,6.7c1.13,4.65-1.41,7,.31,9.2,1.49,1.92,4.67,1.78,6.08,1.72,4.38-.19,4.93-2.58,9.2-3.59,5.72-1.34,7.62,2.26,12.32.47,4-1.52,3.27-4.36,6.71-5.15,4.23-1,9.77,2.35,13.41,4.53,1.85,1.11,3.22,2.12,4.83,1.71,1.78-.45,2.85-2.36,3.74-4.68,1.85-4.77,4.82-16.12.63-18.55C704,1116.22,701.85,1118.61,695.9,1120.62Z"/><path d="M986.87,2570.66c-1.25,2.09,3,4.73,5.46,12.32,1.8,5.59,1.15,9.27,2.49,9.51.94.17,1.57-1.56,5.77-8.11,2.64-4.09,3.11-4.54,3.12-5.77,0-3.86-4.61-7.06-8.11-8.26C993,2569.44,988.07,2568.66,986.87,2570.66Z"/><path d="M1064,473.94a3.45,3.45,0,0,1-.26.28.09.09,0,0,1,0,0l-.06.07s0,0,0,0l0,.09h0l-.05.06-.25.38h0l-.07.11,0,.05a.11.11,0,0,1,0,.11c-.17.25-.37.48-.56.71,0,0,0,0,0,.06-.18.28-.36.55-.53.83,0,0,0,0,0,.07a8.52,8.52,0,0,0-.61.87h0a8,8,0,0,0-.43.69,1.86,1.86,0,0,1-.54,1,4.21,4.21,0,0,1-.37.85.18.18,0,0,1-.06.23,1,1,0,0,0-.35.49.24.24,0,0,1-.14.11s0,.06,0,.1a4.67,4.67,0,0,0-.57.92.2.2,0,0,1-.06.23l-.2.19a.23.23,0,0,1-.19.06l0,.09s0,0,0,.06a4.88,4.88,0,0,1-.22.81s0,0-.07,0v0a2,2,0,0,1-.3.7s0,.05-.08.07a.23.23,0,0,1,0,.23c0,.06-.06.11-.08.16a.22.22,0,0,1-.17.12,31.92,31.92,0,0,1-2,4.81l0,0s0,.06,0,.09l-.12.17s-.06.05-.1.07c-.18.49-.38,1-.6,1.46h0l.23-.18c.18-.59.54-1.08,1.39-3,.71-1.59.76-1.93,1.29-3.16a36.4,36.4,0,0,1,2.92-5.38c1.21-2,2.37-3.95,3.55-5.93Z"/><path d="M1079.26,446.44a42.59,42.59,0,0,0-6.66,11.64,27.89,27.89,0,0,1-2.06,4.64c-1.11,1.8-2.58,3.24-3.31,5.27a.6.6,0,0,1-.46.39c.06,0,.1.11.17.13a1.12,1.12,0,0,0,.26,0l.1,0s0-.06,0-.09c.22-.3.39-.63.59-.94a.24.24,0,0,1,0-.2,11.94,11.94,0,0,1,.71-1,.21.21,0,0,1,0-.23c.27-.36.54-.72.79-1.09,0,0,0,0,.07,0a8.15,8.15,0,0,1,.49-.8.22.22,0,0,1,.13-.09.18.18,0,0,1,0-.14,9.5,9.5,0,0,0,.75-1.22.27.27,0,0,1,.06-.22,4.57,4.57,0,0,0,.47-.68c0-.05.08,0,.12-.06a.27.27,0,0,1,0-.3l.29-.38h0v0a.2.2,0,0,1,0-.23h0s0-.05,0-.08a5.71,5.71,0,0,1,.55-1.14,7.73,7.73,0,0,1,.6-1.88c.44-1.05.9-2.11,1.38-3.15a21.53,21.53,0,0,1,1.92-3.33,3.27,3.27,0,0,0,.24-.5.22.22,0,0,1,.22-.16l.21-.25c.1-.16.19-.33.3-.48a.29.29,0,0,1,.14-.11.18.18,0,0,1,0-.14l0-.07v0l0-.05s0,0,0,0l.06-.11a.22.22,0,0,1,.22-.12l.11-.17h0a4.5,4.5,0,0,0,.23-.43.48.48,0,0,1,.35-.3c.23-.38.45-.75.67-1.14a2.25,2.25,0,0,1,.12-.21h0a.75.75,0,0,1,.07-.12.2.2,0,0,1,.2-.12c0-.09.08-.2.13-.29h0A.73.73,0,0,1,1079.26,446.44Z"/><path d="M1223.55,369.84h0l0,0-.38-.07a19.32,19.32,0,0,1-5.53,1.14c-2.9.37-6.14,1-9,.65a.65.65,0,0,1-.54-.5.69.69,0,0,1-.26-.17.56.56,0,0,1-.31,0,1.88,1.88,0,0,0-.23-.16.74.74,0,0,1-.16-.19,6.78,6.78,0,0,0-1.23.9c-.68.63-2.11,2.19-1.9,2.48s1-.35,2.45-.88a19.68,19.68,0,0,1,4-.93c6.17-1,9.51-1.34,9.51-1.34l1-.11C1221.84,370.36,1222.69,370.1,1223.55,369.84Z"/><path d="M1235.27,368.62c-1.33-.1-2.75-.29-4.15-.3l-2.16.24,0,0a8.9,8.9,0,0,1-1,.34c-.18.06-.91.28-.54.54a7.08,7.08,0,0,1,.91-.34s0,0,0,0a2.23,2.23,0,0,1,.48-.26h0s0,0,0,0l.06,0h0a1,1,0,0,1,.67-.09h0s.06-.05.11-.05l.31,0s0,0,.08,0a2.88,2.88,0,0,1,1.76-.12h0l.38,0a.25.25,0,0,1,.24.08,6.7,6.7,0,0,1,1.1,0h.16a.24.24,0,0,1,.09,0l.06,0c.35,0,.7.1,1,.13a.31.31,0,0,1,.14.07c.73,0,1.48,0,2.21.09.05,0,.07,0,.11.06s.07-.07.14-.07c.35,0,.69.05,1,.11h0a13,13,0,0,0,2,0,.23.23,0,0,1,.2.1c.91,0,1.81.19,2.73.21a.19.19,0,0,1,.14.07,4,4,0,0,0,.41-.06A71.85,71.85,0,0,0,1235.27,368.62Z"/><path d="M2202.7,1782.41c-3.61-7-3-10-5.3-17.31-2.76-8.62-6.83-14.32-11.54-20.9s-7.14-8.31-20.58-21.52c-29.31-28.77-27.33-29.91-34.62-33.37-4-1.89-9.41-3.84-11.54-9-2.3-5.62,1-10.66-2.5-14.81-1.5-1.78-3-2-7-3.44-3.52-1.29-2.72-1.3-14.82-7.32-17.7-8.83-27.79-13.85-39.76-19.18-18.16-8.09-22.32-8.71-34.77-15.75-6.86-3.88-10.52-6-15.29-9.67-15.48-12.11-12.72-18.34-25.88-27.91-7-5.12-8.47-3.82-24.79-14-6.52-4.07-7.92-5.3-11.86-7.8-10.65-6.74-18-8.94-36.33-15.59-4-1.47-22.36-8.15-40.23-15.44-8.67-3.53-18-7.35-28.85-12.47-27.65-13.09-26.18-16.41-48.65-27-17.31-8.14-27.72-10.66-46.63-22.45-6.67-4.17-12.72-8.44-16.68-16.22-.76-1.48-7.68-15.59-1.72-28.22,5.25-11.11,18.74-17.47,31.66-23.55,6.22-2.93,11-4.51,14.5-9.82,2.88-4.38,3.18-8.75,3.74-16.85.77-11,1.16-16.58-2-21.36-4.41-6.62-12.48-8.4-18.25-9.67a49.54,49.54,0,0,0-18.87-.46c-28.52,4.81-80.46,8.13-99.79,8.26a199.75,199.75,0,0,1-61-9.36,148.93,148.93,0,0,1-17.62-11.38c-2.38-1.79-3.86-3.45-7-5.61a64.6,64.6,0,0,0-13.41-6.86c-17.32-7-18.22-4.9-22.77-8.74-5.62-4.73-8.46-11.44-9.82-14.65-3-7-1.63-8.69-4.37-12.17-4-5.08-9-4.16-18.09-8-7.89-3.29-12.86-7.63-18.24-12.32-8.5-7.41-8.63-10.9-16.84-20.74-13.16-15.75-19.83-15.19-42.89-39-3-3.09-4.6-4.75-6.86-7.33-12.77-14.58-20.47-29.07-26.51-42.73-5.4-12.23-9.13-23-18.09-54.73-12.22-43.23-10-39.64-17-62.22-11.71-37.57-17.56-56.35-26.51-66.12-2.38-2.59-8-8-9.51-16.53-1.14-6.41,1.16-8.31-.78-14.19-2.25-6.8-7.6-11.1-11.23-14a49.45,49.45,0,0,0-9.82-6.08c-13.76-6.64-20.43-4.38-32-9.51-1.3-.58-4.85-2.23-14.66-9.83-18.79-14.56-27-25-50.52-46.47-11.69-10.68-14.75-12.76-18.71-14.65-12-5.72-18.53-3.26-29-9.05-6.38-3.52-5.66-5.39-17.46-17.62-20.83-21.58-28.21-21.11-34.31-34.3a97.31,97.31,0,0,0-8.11-15.44c-4.6-7-6.06-7-8.89-11.39-7.61-11.72-2.21-19.46-8.73-41.32-2.25-7.54-2.65-5.83-4.21-11.85-3.43-13.28-.9-19.5-1.87-34.93-.85-13.51-3-11.27-3.59-24.17-.48-9.82-1.38-27.82,7.33-32.43,2.58-1.37,7.45-2.32,10.29-.16,2.2,1.67,2.48,4.64,3.28,4.52s.18-4.07,1.71-8.42c.23-.62,2.81-7.66,8.27-9.2,4.78-1.35,7.42,2.75,10.29,1.25,3.7-1.93,3.72-11.06,1.4-18.24-2.19-6.82-5.52-8.86-12.16-18.87-5-7.57-3.83-11.15-7.64-13.1-4.36-2.23-8,.18-12.94-3.12-1.12-.75-3.87-2.6-4.52-5.61-.94-4.28,3.26-6.76,6.08-12.63,3.89-8.12,3.61-19.46-.94-22-2.82-1.57-7.62.42-10.29,2.49s-3.43,4.59-4.21,4.37c-2.07-.57,4.17-17.24-2.34-23.08-3.75-3.36-9.44-1.08-10.29-3.43-1.08-3,8.53-5.72,13.1-15,3.83-7.76-.29-11.16,3.27-20.43,2.41-6.24,6.25-9.82,12.63-15.75,5.6-5.2,11.27-8.3,22.61-14.5,8.16-4.46,10.91-5.32,13.57-4.21,3.93,1.65,5.7,6.8,6.08,10.14a13.65,13.65,0,0,1-1.87,9c-4.4,6.7-13.76,5.47-14.66,10.29a3.71,3.71,0,0,0,.94,3.43c3,2.38,11.51-5.14,23.08-12.47,7.4-4.69,5-2.3,24-12.48,25.34-13.57,25.51-15.64,35.71-18.71,18.35-5.52,20.74-5.92,20.74-5.92,4.68-.8,9.24-1.2,13.72-4.68a21.93,21.93,0,0,0,6.08-7.64c1.49-2.9,3.09-6,1.87-8.11-1.86-3.17-8.57-.94-9.2-2.65-.85-2.33,9.73-11.26,22.93-12.48,9.92-.91,18.72,2.77,20.27,3.43,4.45,1.93,6.22,3.64,13.1,6.24,8.6,3.26,11.5,2.72,12.47,2.5,5.83-1.34,9.2-6.64,10.14-8.11,4.14-6.51,2.26-11.45,5.14-12.63,2.25-.93,4.33,1.7,13.26,8.11,8.41,6,9.41,5.74,13.72,9.66,3.52,3.21,7,6.32,9.36,10.92,6.22,11.88-.15,22.56,4.67,25.42,2,1.2,6-.6,14-4.21,7.62-3.44,11.43-5.16,12.16-7.64.77-2.63-.78-5.05-12.32-19.18-5.45-6.68-8.17-10-9-10.92a83.19,83.19,0,0,0-21-16.22c-9.52-5-13.9-4.7-15.75-9.2-.88-2.13-.66-4.05,2-13.1,4.76-16,7-20.07,5.15-22.14-2.92-3.18-10.73,3.69-17.15-.16-4.78-2.86-5.84-9.9-5.62-14,.37-6.66,4.39-11.26,8.27-15.59,9.3-10.38,16.68-10.23,17.93-16.53,1.08-5.44-3.31-11.17-6.7-14-8.64-7.27-16.91-1.08-29.79-7.48-6.25-3.11-14.89-9.83-14.34-16.84.11-1.48.7-3.8,11.85-12.79,11.37-9.18,17.06-13.77,24.17-16.53,6.82-2.65,10.51-2.56,15.75-6.86a26.51,26.51,0,0,0,7.48-9.67c1.11-2.51,4.1-9.3,1.56-14.19-2.11-4.07-6.7-4.17-21.83-7-21.4-4-21.22-5.51-30.56-5.77-4.83-.14-3.2.3-20.74.78,0,0-5.13.13-19.65-1.1-4-.34-8-.75-11.23-3.58-2-1.74-2.09-3-4-4.52-4-3.15-9.21-2.64-11.23-2.5-10.43.72-25.59-2.16-44.6-5.77-19.21-3.65-17-6.82-30.4-7.8-4.68-.34-14.15-.62-25.11-3.89a56.21,56.21,0,0,1-21.52-11.86c-15.85-13.29-23.77-19.94-24.79-25.1a108.37,108.37,0,0,1-1.25-16.84c0-4.41.22-6.61-1.4-8.27-2.86-2.92-7.3.1-13.1-2.34-4.17-1.74-6.35-5.18-8.11-8-1.17-1.84-7-11.06-3.74-18.55,2-4.66,5.56-3.95,13.41-12.64,5.33-5.9,4.86-7.5,4.67-7.95-.79-1.9-4.68-2.59-13.09-1.71-14.74,1.53-27.5,6.22-39.77,12C967,20.64,958.25,24.77,956,26.89c-1.67,1.56-5.29,5.2-9.52,4.67-2.8-.35-3.57-2.26-9.35-5.92-4-2.57-6.07-3.85-8.27-4.21-5.43-.9-6.54,2.82-14.19,2.8a46.49,46.49,0,0,1-8.11-.93c-4.67-.87-4.47-1.42-6.39-1.4s-3.46.67-11.23,5.3c-6.24,3.72-6.58,4.05-7.64,3.9-3.59-.52-4.68-5.05-9.82-5.62a11.4,11.4,0,0,0-2,0,22.22,22.22,0,0,0-9.82,3.12c-10,5.67-15,8.51-19.49,9.82-4.71,1.4-6,.89-7.64,2.66-2.8,3.08-.6,6.68-2.5,13.87-1.15,4.36-2,3.36-4.52,9.83-3,7.88-2.1,10.36-5,14-2.29,2.91-5.08,4.15-8.11,5.46-14.16,6.12-28.75,1.2-32.59-.16-5.47-1.92-8.72-3.07-12-6.23-5.15-5-5-9.66-11.85-16.22-3-2.89-4.67-4.44-7.33-4.83-5.18-.77-8.18,3.77-14.19,6.54-8.14,3.77-18.9,1.32-19.33,1.25-3.42-.52-4.45-1.11-5.62-.31-3.81,2.6,2.76,11.76-1.25,21.68-1.8,4.47-3.8,4.23-7.17,11.53-2.28,4.94-3.42,7.41-3,10.45s3.48,6.37,9.51,12.79c4.65,4.94,5.39,5.22,6.08,7.17,1.63,4.55.2,10.35-3.27,14-2.95,3.13-6.5,3.82-10.92,4.67-6.11,1.19-13.3,2.58-17.93-1.24s-1.93-8.85-8.42-17.47c-1.9-2.52-3.27-4.29-5.77-5.14-4.79-1.64-9.87,1.44-14.19,4a29.88,29.88,0,0,0-8.26,7c-1.81,2.25-1.79,3-4.37,6.39-3.27,4.35-4.24,4.46-5.61,6.71-2.11,3.45-2,6.82-1.88,12.47.21,7.69.35,13.15,4.06,16.06,1.6,1.26,2.26.78,8.26,3.9,3.09,1.61,4.64,2.43,5,3.28,1.37,3.3-4.27,6.07-5,13.25a16.65,16.65,0,0,0,.78,6.7c1.23,3.78,3,4.55,5.46,9,2.17,3.94,3.25,5.91,3,8.26-.61,5.08-7.2,9.46-13.41,9.67a15.84,15.84,0,0,1-10.6-3.9c-3-2.67-3.48-5.23-7-15.43-4.59-13.23-5.86-14.73-7.48-15.75-3.27-2.05-7.17-1.27-15,.31-6.92,1.39-14.82,3-22.3,9-6.08,4.92-4.78,7-9.36,9.51-8.56,4.63-19,.44-25.57-2.18s-17.75-7.1-19.8-16.68a16.51,16.51,0,0,1,.46-8.27q-.3-15.12-.62-30.25H493.34q-3.75,6.63-7.49,13.25c3.87,12.76,3.72,22.51,2.81,29.16-.39,2.82-.65,3.21-2,11.08-3.4,19.44-2,18.56-3.59,22.61-3.67,9.6-11.75,15.68-21.36,22.92-6.92,5.21-8.4,4.91-11.69,8.89-5.5,6.64-6.8,14-8.11,21.52-1.75,9.95-2.62,14.94,0,20.11,3.86,7.62,10.84,6.8,12.47,13.26,1.4,5.53-2.05,12.79-8.11,16.06-4.28,2.31-10.34,2.89-14.65,0-1.22-.82-3.23-2.53-6.55-13.26-3.88-12.51-2.17-13.46-4.68-16.84-6-8.07-17.43-4.87-19-10.6-1-3.58,3.23-5.75,5.93-15.75,1.14-4.24,1.94-6.32,1.4-7.8-1.48-4.1-7.57-4.81-24.79-7.95-15.74-2.87-18.63-3.73-21.83-6.24-4.68-3.66-3.67-5.87-9.51-15.12-10-15.89-19.19-19.16-18.4-27.45.21-2.25,1.23-5.63,5.45-9.51l-.15-30.41-24-1.4-26.35,39.14a30.11,30.11,0,0,0-5.77,1.25,30.58,30.58,0,0,0-8.42,4.21c-3.24,2.29-4.85,3.44-5.3,5.14-.69,2.64,1.06,5.21,4.52,10.29,1.55,2.27,2.15,2.77,4.37,6.09,3.1,4.63,3.27,5.66,3.27,6.39,0,2.64-2.19,3.61-5.14,7.17-5.6,6.76-3.63,10.42-7.8,12.94-4.53,2.74-8.24-.73-10.92,1.88-3.6,3.51,2.41,10.53-1.24,15.9-2.2,3.22-5.13,1.82-14.35,7.33-3.32,2-5,3-6.24,4.52-3.81,4.7-1.85,8.68-5,13.26-2.65,3.86-6.91,5.18-9.82,6.08-10.85,3.35-20.39-2.49-20.9-2.81-6-3.8-4.54-6.76-11.38-11.23-2.33-1.51-8.53-5.57-15.91-4.52-3.24.46-5.9,2.18-11.22,5.62-10.87,7-9.67,9.68-15.6,11.38-2.79.8-7.28,1.41-8.57,4.52-.41,1-.41,2-1.25,2.5-1.4.77-3.54-1-5.3-2-5.07-3-11-2.77-13.57-2.34s-5.7,2.47-12,6.55c-4.38,2.84-4.73,3.45-7,4.37-2.05.82-7.31,2.93-11.54,1.09-6.5-2.83-5.53-12.78-9.51-13.26-2.58-.3-3.63,3.79-9.52,9.36-3,2.8-7.12,6.75-13.25,8.73-5.87,1.9-10.13.9-18.24,4.37a7.82,7.82,0,0,0-3.12,1.87c-2.85,3.13-1.1,8,0,17.15s-.4,8.48.78,11.23c2.38,5.57,6.11,4.4,14.19,13.1,3.33,3.59,4.36,5.58,7.33,6.39a61.92,61.92,0,0,0,8.26,1.09c.85.08,1.56.13,2,.16q.3,18.79.62,37.58L99,448.38v7L87.75,472.7c-.85,5.17.27,7.77,1.56,9.21,1.13,1.26,2.24,1.42,2.8,2.8,1,2.49-1.1,5.58-2.33,7.33a27.75,27.75,0,0,1-10.3,8.73c-8.87,4-12.1-.07-19.64,4.06-2.7,1.47-4.87,3.53-9.2,7.64-5.38,5.09-5.7,6.62-8.89,7.95-5.86,2.45-11.88.27-12.17.16-3.53-1.34-3.2-2.76-6.08-3.28s-5.69.63-11.07,3a51.79,51.79,0,0,0-5,2.49c-3.69,2.08-5.56,3.15-6.55,5a10.07,10.07,0,0,0-.78,5.93c.29,3.4,1.46,4.21,2.5,7.79,1.73,6-.23,8.33,1.56,9.67,2.2,1.65,5.26-1.83,11.85-1.09,2.86.32,4.29.48,5.3,1.56,3.7,3.94-4.81,12.62-2.65,25.1a16.09,16.09,0,0,0,3.12,7.8c3.52,4.43,10,1.45,14.19,6.08,1.73,1.9,1,2.6,2.8,4.21,2.81,2.5,5.15,1.33,11.39,2.81,6.46,1.53,6.39,3.38,11.22,3.59,3.67.15,5.21-.84,7,.46a6.66,6.66,0,0,1,2,7.33c-1.08,2.71-3.74,2.35-4.37,4.52-.48,1.68.83,2.84,5.93,10,2.25,3.16,3.54,5.1,4.52,8,.93,2.69,1.39,4,.78,5.14-1.61,2.93-7.75.15-12.94,4.06a12.89,12.89,0,0,0-3.28,3.9c-2.92,4.59-2,7.26-3.9,13.56-1.42,4.64-2.35,7.69-5.14,10.45-2.45,2.42-4.55,2.86-8.11,6.71-1.94,2.09-2.91,3.14-3.12,4.21-.82,4.16,5.1,6.39,10,14.5,2.19,3.63,4.34,7.2,4.06,11.54-.5,7.54-7.77,8.27-8.74,15-.86,5.94,4.64,6.89,14.35,23.39,3.76,6.39,4.85,9.5,9,12.16,3.67,2.32,5.13,1.39,13,3.27C89.39,761,97.68,763,104.59,769c4.2,3.66,3.67,5.13,8.11,8.11,3.21,2.16,4.57,2.12,12.94,5.3,10.29,3.92,9.93,4.62,13.57,5.15,5.41.78,9.8-.28,14.5-1.4,1.47-.36,5.42-1.8,13.25-4.68,8.29-3.05,12.46-4.58,13.41-5.15,4.24-2.5,6-4.65,8.74-4,2.3.51,3.7,2.68,5,4.67a24.9,24.9,0,0,1,3.27,8.74c2.59,11.31,4,10.46,3.9,13.88s-1.57,5.46-12.63,17.77c-8.46,9.41-12.68,14.12-13.88,15.13-7.66,6.47-13.21,8.57-15.59,15.12-.54,1.48-1.79,4.91-.47,8.27.83,2.12,1.91,2.22,3.12,4.68,1.53,3.13.71,4.84,1.4,8.42.15.74,1.18,5.78,4.52,9,5.13,5,13.45,3.65,14.66,3.43,7-1.23,7.15-5.13,16.69-10.13,5.83-3.06,6-1.71,17.93-6.24,8.78-3.33,8.39-3.94,17.46-7.49,11.47-4.48,12.34-3.6,20.9-7.33a85.49,85.49,0,0,0,17.93-10c6.49-4.79,11.93-8.82,15.28-16.06,1.65-3.55.78-3.54,3.9-13.56a131.11,131.11,0,0,1,5.15-14.35c3.57-8.23,5.36-12.35,9.51-16.06a28.61,28.61,0,0,1,11.23-6.55c4.74-1.39,6.87-.49,9-2.65,1.81-1.8,1.51-3.58,3.12-10,0,0,.79-3.16,2.49-8.26,3.27-9.81,11.42-16.32,14-18.41,6.12-4.89,6.32-2.58,17-9.66,6.11-4.06,7.38-5.71,13.56-9.36s9.26-5.47,12.63-6.24c6.44-1.47,8.06,1,26.36,4.37,6.65,1.22,8,1.18,15.12,2.65,4.62,1,4.42,1,13.26,3,3.85.84,7.68,1.8,11.54,2.65,7.29,1.62,9.07,1.9,10.44,3.75,1.62,2.16.51,3.58,2.65,7.48,1.05,1.92,2.59,4.71,4.84,4.84s4.44-2.78,5.46-4.22c1.9-2.68,1.58-4.08,2.8-4.67,2.13-1,5.4,2.13,9,5.14,7.51,6.22,6.73,3.62,16.21,11.07,8.65,6.8,7,7.85,13,11.54,2.94,1.85,3.15,1.5,15.12,7,9.51,4.38,11,5.34,11.85,5.93,5.4,3.67,5.15,5.53,11.23,11.54,5.46,5.39,12.06,9.73,25.26,18.4.61.39,1.82,2.29,3.12,2,1.89-.39,1.59-4.59,5.61-8.89a5,5,0,0,1,1.41-1.24c2.8-1.15,6.24,3.27,14.81,10.13,5.22,4.18,7.13,5.09,8.42,5.62,4,1.63,6.11,1.21,9.51,1.87,9.52,1.83,15.85,9.48,17.94,12,4.6,5.57,3.16,7.31,8.89,14.19,3.46,4.16,4.77,4.47,8.1,8.27,1.91,2.17,7.07,8.08,9.36,15.44,3.56,11.43-3.08,15.91.47,30.4,1.49,6.1,2.48,4.59,3.43,9.67,2.25,12.12-3.79,18.67.15,28.69.81,2,.72.9,3.59,6.09,5.7,10.27,6.31,15.24,9.67,21.83,4,7.73,5.2,5,12.16,15.43,8.77,13.15,11.36,24.38,16.06,30.26a28.7,28.7,0,0,1,4.37,7.33c.46,1.12.76,2.06.94,2.65q.15,30.48.31,61a11.65,11.65,0,0,0-6.4,10,11.12,11.12,0,0,0,2.5,6.86,174.26,174.26,0,0,1,25.1.93c5.22.58,9.71,1.33,14.66,3.9,3.49,1.82,7.57,4,9.51,8.73a14.53,14.53,0,0,1,.32,10.14c-1.92,5.15-6.1,5.6-6.09,8.58,0,3.74,6.62,6.59,11.23,8.57,9.72,4.19,13.34,2.87,19.34,5.93,7.07,3.61,10.33,9.69,12.78,13.72,5.32,8.72,15.19,21.41,35.25,38.52,10.77,8.38,15.6,16.6,18,22.61,2.09,5.22,2.52,9.17,6.55,12.39,4.95,4,9.93,2.49,18.24,4,6.82,1.22,11.41,3.78,20.58,8.89,9,5,40.4,22.51,49.83,53.8,3.22,10.7,1.89,16.47,8,22,7.08,6.46,13.63,2.88,27.6,9.83,8.47,4.21,13.92,9.44,18.94,14.27,4.86,4.66,11.56,11.08,16.85,21.28,3.13,6.06,2.55,7.22,8.88,22,3.19,7.42,4.78,11.14,6.09,13.1,6.43,9.67,13.58,9.92,23.85,17.31,6,4.34,3.8,4.41,23.63,28.3,13.81,16.64,17.76,20.05,21.75,22.92,5.92,4.26,12.77,9.2,22.69,10.76,11.91,1.88,14.64-3.25,22.69-.23,8.52,3.19,13.29,11.87,18.71,21.75,5.1,9.28,5,13.27,10.76,18.24,2.13,1.84,7.7,6.66,14.5,6.08,6-.5,5.32-4.55,15.21-8.42,4.86-1.9,7.5-1.89,15.2-5.14,4.31-1.83,3.72-1.93,5.15-2.34,6.07-1.76,12.07,1.51,27.83,11.46,13.48,8.51,16.13,10.57,20.12,9.59,5.24-1.29,5.06-6,12.39-9.36.73-.33,8.53-3.83,16.84-1.4,4.07,1.19,5.64,3,15.91,14,13.41,14.37,16.2,19.77,17.54,22.23,2.37,4.36,3.08,6.68,5.15,11.69,7.58,18.41,15.55,29.8,27.13,46.31a55.34,55.34,0,0,0,15.91,15.21c5.79,3.6,8.21,3.46,9.35,3.27,6.15-1,7.24-8.68,13.1-9.59,2.52-.39,5.07,1.22,10.06,4.45,9.33,6,9.69,9.13,18.48,15.2,6.35,4.39,8.68,4.51,9.12,7,.55,3.14-2.71,5.22-12.87,15.67-7.58,7.81-10.5,11.53-10.52,16.37,0,1.8,0,4.4,1.64,5.62,4.2,3.09,12.23-7.85,28.3-12.64,11-3.28,23.19-2.87,24.79-2.8,8.59.35,15.07,2,20.12-2.11,3.79-3.1,3.12-6.49,5.61-7,4.09-.86,8,7.87,20.12,25.72,7.17,10.53,7.92,10.57,10.52,15.68,4.77,9.34,8.56,16.77,7.25,25.26-1.78,11.56-11.29,13.86-10.76,24.79.2,4,1.67,7,3.75,11.23,1.65,3.35,5.41,10.72,13.56,15.67,3.41,2.07,7,4.23,11.46,3.74,3.84-.41,5-2.4,7.72-1.87,3.56.68,4.18,4.42,8.19,9.59,4.88,6.3,7,4.63,13.57,11.7,6.28,6.73,4.32,8.16,9.35,12.16,1.72,1.37,6.45,3.33,15.91,7.25,5.72,2.38,7.23,2.88,9.35,2.57,3.75-.54,5.45-3.06,9.83-7.25,7.46-7.14,11.72-11.22,16.84-11.46,4-.18,7.41,2.53,14.27,8a81.51,81.51,0,0,1,13.09,13.1,80.21,80.21,0,0,1,11.93,19.42c3.79,9.22,2.63,13.24,4.45,28.53a203.15,203.15,0,0,0,11.69,47.49,76.29,76.29,0,0,0,10.53,19.41c4.4,5.78,7.16,7.54,10.29,11,4.17,4.6,6.52,9.47,12.4,36.73,4.94,22.9,7.41,34.35,7.72,41.4.44,10.24-.45,15.58,2.8,24.09,1.95,5.08,4.7,12.27,11.23,18.94,4,4.07,7.24,5.78,9.12,10.76.6,1.6,1.08,3.57.7,11.23-.64,13.08-1,19.74-5.38,26.2-1.93,2.89-3.32,5-6.08,6.31-5.9,2.91-10.61-1.1-18.94.47-3.1.59-2.64,1.18-10.29,4.68-15.5,7.08-20.38,6-22.93,11-2.73,5.34,0,12.17.7,13.8,2.13,5.23,5,6,7.72,11.7a29.81,29.81,0,0,1,2.58,11.69c.7,12.88-6.93,23.44-17.55,38.13-1.41,2-8.07,11-17.31,17.08-4.43,2.9-7.63,3.91-10.76,4-4.29.09-5.42-1.67-7.25-.93-4.48,1.79-1.32,13.83-1.17,35.55.11,14.06-1.13,20.82,4,27.13,1.2,1.48,3.47,3.35,8,7,7.78,6.36,11.57,9.66,14.27,11,4.3,2.12,4.51.77,24.09,2.34,9.22.74,12.83,1.33,19.18.47,6-.81,9-1.22,11.93-3.51,3.21-2.5,3.24-4.77,8.89-18.24,3.43-8.18,3.46-7.45,4.45-10.53,2.48-7.77,1.69-10.6,4-16.84,1.58-4.33,3.46-7.07,6.32-11.23,5.41-7.89,9.54-11.11,19.18-21.05,7.18-7.41,7.14-10.36,11.93-12.86s6.7-1.4,12.16-4.45c2.25-1.26,5.19-4.06,11.07-9.67,6.45-6.14,8.45-8.64,10.14-11.22a33.71,33.71,0,0,0,3.27-5.93c3.24-7.91,1.85-15.71-.47-27.91-.85-4.49-.88-3.56-1.56-7.33-1.07-6-2.38-13.3-1.71-21.52.36-4.44,1.13-13.88,7.33-23.23,4.2-6.34,9.17-10.06,13.25-13.1,3.81-2.85,7.32-4.69,14.19-8.27,12-6.23,12.22-5.22,24.48-11.38,9-4.52,10.19-5.73,14-5.93,7.72-.4,15.72,3.79,16.22,4.06a88.77,88.77,0,0,0,10.13,4.68c3,1.15,3.53,1.17,4.06,1.09,3.85-.63,3.77-6.65,8.57-14.19s8.77-7.66,9.05-12.32-3.53-8.72-5.46-10.76c-5.18-5.48-9.17-4.54-10.45-8.26-.61-1.8.08-2.71,4.37-13.42,3.11-7.77,3.8-9.89,3.12-12.63-.47-1.89-1.51-3.44-3.59-6.55-3.52-5.26-4.65-4.85-5.15-7-.85-3.7,2.47-4.66,4.53-12.63,1-4.07.52-5.13,2-7.8,1.82-3.22,3.65-3.57,4.52-5.93,1.37-3.67-1.21-7.81-2.49-9.82-3.6-5.62-9.65-10.58-32-21.05-8.77-4.12-11.69-5.16-16.21-8.73a110.7,110.7,0,0,1-11.54-11.07c-5.26-5.83-4.82-6.55-7.18-8-3-1.78-5.73-1.82-19-.62-13,1.17-16.74,1.79-20-.94-1.42-1.19-.94-1.53-4.37-5.61-5.08-6.06-6.13-5.33-7.17-7.8-1.86-4.44,1.77-6.3,1.09-15.28a23.58,23.58,0,0,0-1.56-7.64c-1.6-4-3.32-4.69-3.74-7.17-.45-2.65,1-4.84,5-10,8.21-10.57,10.29-11.82,13.57-17.47a51.48,51.48,0,0,0,4.36-9.82c1.44-4.42,2.47-7.59,1.87-11.54s-2.23-4.41-3.43-8.73c-.25-.93-1.89-7.08.16-12.63,2.44-6.61,7.78-6.11,14.5-14,2.47-2.91,4-6.15,7.17-12.63,5.3-10.94,5-14.21,9-22,2.29-4.4,2.89-4.32,10.91-15.28,14.55-19.86,12.94-20.62,18.56-25.41,9.41-8,19.41-10.6,24.33-11.86a37,37,0,0,1,13.25-1.24c3.33.32,12.14,1.19,14.5,6.7.67,1.56.59,2.94.47,5-.39,6.66-4.07,9.17-3,12,.82,2.09,3.55,2.55,6.55,3.43,11.64,3.4,11,8.32,22.76,12.32,8,2.72,8,.35,15.91,3.43,6.5,2.55,8.5,5,14.35,6.08,4.83.93,7.3,0,12.63-.47,17-1.52,19.51,5.34,36.8,4.21,7.42-.48,10.22-2,13.56.31,3.53,2.4,3.17,5.92,7,15.75,2.54,6.51,4.12,10.55,7.33,15,6.14,8.49,11.33,8.82,12.47,15.13.43,2.37-.13,5-1.24,10.29-1.65,7.79-3.27,8.8-3,11.85.51,5.2,5.51,5.69,12.32,12.63,10.25,10.45,8.35,18.91,18.71,24.64.82.45,3.1,1.29,7.65,3,14,5.15,14.71,3.95,19.64,6.87,6,3.54,8.2,7.26,11.23,6.23.38-.13,1.87-.7,3.43-4.21,2.49-5.59,1.28-10,1.25-15.44,0-2.63,1.18-7.47,3.59-17.15s3.67-14.71,5.77-17.93,2.35-2.34,9-10.45c6-7.33,6.92-9.34,7-11.54C2207.23,1789,2205.28,1787.4,2202.7,1782.41ZM1054.7,572.19c.24-.38.63-.8,2.65-1.56,3.92-1.46,10.77-4,17.31-.62,1.84,1,5.43,2.82,6.24,6.7a9.32,9.32,0,0,1-3.12,8.58c-1.86,1.61-2.72.9-5.77,2.5-5.18,2.71-6.36,6.69-8.26,6.23-1.32-.31-1.38-2.38-2.5-5.92C1058.31,578.81,1053,575,1054.7,572.19Zm-15.28,98.4c-3.36,4.22-10.1,6.1-13.56,3.74-3-2-.92-5.34-4.06-13.72-2.42-6.49-4.88-7.81-4.21-11.39a9.34,9.34,0,0,1,7-7.17c3.83-.73,6.89,1.85,9.51,4.06a21,21,0,0,1,7.48,13.56C1041.9,662.35,1042.39,666.86,1039.42,670.59ZM1092.28,832c-1,3-1.88,2.73-3.43,6.39-1.62,3.83-1.41,5.78-2.8,6.24-1,.35-2.15-.44-4.37-2s-3.78-2.69-5.15-4.83c-1-1.64-2.89-4.52-2-7.64.81-2.94,3.54-4.37,5.92-5.61a16.14,16.14,0,0,1,8.42-1.72c1.7.12,2.66.19,3.43.94C1094.45,825.78,1092.74,830.68,1092.28,832Z"/><path d="M339.43,2027.85c1.18,1.59,1,2.85,1.71,5.46a23.51,23.51,0,0,0,2.81,5.92c2.47,4.15,5.23,8.79,9.67,9.67,2.57.51,4.35-.51,5.92.94.6.54,1.11,1.38,1.41,3.58.86,6.31-2,9.11-.32,11.85,1.24,2.05,3.08.92,4.37,3,1.92,3-1.69,6.3-.31,12,.38,1.56.89,3.7,2.49,4.37,1.94.81,3.9-1.18,10.3-5,4.27-2.55,6.44-3.82,8.1-3.9,2.39-.11,4,.88,10.92,5.77,9.18,6.47,10,7.26,12,7.33,2.63.08,5.58-2.07,11.38-6.39a129.84,129.84,0,0,0,11.54-9.83c5.18-4.87,6.85-6.5,8.26-8.26,3.19-4,4.79-6,5.15-8.73.59-4.49-2.49-5.5-4.37-12.64-.71-2.71-2.16-8.51.16-14.5,1.16-3,2.81-4.86,5-7.33,3.78-4.28,6.46-7.31,10.29-7.79,5.64-.72,8.62,4.75,12,3.12,2.9-1.4,1.43-5.75,5-8.58,3-2.36,7-1.78,9.67-1.4,5.92.84,10.1,4.18,14.5,7.79,4,3.27,3.16,3.46,6.7,6.4a44.6,44.6,0,0,0,17.47,9c4.69,1.16,8,2,12,.62a16.54,16.54,0,0,0,9.66-9.2c3.23-7.87-2.59-12.75,1.09-18.24,2.73-4.05,7-3,9.36-8.11a17.25,17.25,0,0,0,1.25-7.33,18.48,18.48,0,0,0-1.4-8.42c-1.87-4-4.35-4.42-4.22-6.7.15-2.56,3.29-2.54,5.31-6.09s.27-5.82,1.09-11.85c.59-4.35,1.89-6.14,3-9.35,1.69-5.06.76-7.54-.62-21.52-2.18-21.91-1-26.86.62-29.94a41.15,41.15,0,0,0,3-6.71,48.93,48.93,0,0,0,1.88-8.11c1.55-8.48,3.24-9,4-14.5s-.79-5.31-1.25-14.66c-.56-11.41,1.86-10.46.94-19.64-.5-5-1.61-9.18.93-12.79,1-1.41,1.7-1.54,3-3.59a19.75,19.75,0,0,0,2.65-8.42,25.08,25.08,0,0,0,0-5.14c-.77-5.91-5.25-8.85-10.45-15-4.77-5.62-7.85-9.25-9-14.5-1.79-7.9,1.68-15.06,3.75-19.34,2.69-5.56,6-9.18,10.29-13.88,7.3-8,8.47-6.58,11.38-11.38,2.62-4.31,4-9.31,6.4-17.78.75-2.7,1.48-5.66,3.89-8.73,2-2.52,3-2.52,3.43-4.06.82-3.23-3.24-5.92-8.26-12.31-3.92-5-5.88-7.5-6.86-10.92-2.28-8,2.87-11.35.15-18.87-.95-2.66-1.24-1.24-5.76-8.57s-3.51-7.62-7.18-13.1c-2.7-4-4.69-6-3.9-7.64s3.7-.74,5.62-3a7.15,7.15,0,0,0,.93-6.7c-.81-2.33-2.48-2.9-9.35-6.86-8.86-5.11-7.77-5.14-11.85-7-3.26-1.5-4.32-1.65-5.62-3.12-2.25-2.54-3.38-6.91-1.87-10.29,1.11-2.49,2.72-2.35,7.64-6.71,3.77-3.32,5.65-5,5.46-6.7-.22-2-2.65-2.49-10.29-7.49-4.51-2.94-5.15-3.74-5.62-4.67a10.22,10.22,0,0,1,1.41-10.61c1.57-1.74,3-1.6,3.43-3.12.7-2.3-1.57-5.9-4.06-6.23-1.9-.26-2.62,1.59-7.48,4.67-3.24,2.06-4.86,3.08-6.08,2.66-2.3-.81-1.61-4.84-4.84-12.32-1.22-2.85-1.86-4.29-3.12-5.31-3.45-2.8-6.56-.07-11.69-1.55-2.91-.85-3.21-2.11-13.88-12.32-4.94-4.73-6.24-5.78-7.8-5.46-2.87.58-3,5.08-6.7,10.45-2.52,3.62-5.17,5.43-10,8.73-12.67,8.69-17.13,5.89-24.33,12.79-4.51,4.32-2,4.66-9,13.41-1.91,2.35-6.16,6.66-14.66,15.28-8,8.12-7.59,7.49-8.89,9-2.8,3.35-4,5.32-7,7.33-1.42.93-2.93,1.66-7.64,3.12-9.12,2.82-9.86,2-12.95,3.43-5.82,2.59-4.52,5.89-12,12.63-3.09,2.78-8.5,7.54-16.38,9.2-4.3.91-7.7.5-14.5-.31-3.45-.41-3.84-.68-15.44-3.12-11.22-2.36-11.52-2.25-12.47-3.12-5-4.6-.91-11.69-6.86-19.65-.88-1.17-4-5.33-6.55-4.67s-2.28,5.43-5.46,16.06a99.21,99.21,0,0,1-4.52,12.47c-2.59,5.8-4.17,7.62-7,14-2.55,5.74-4.25,7.07-3.59,9.2.35,1.11,1,1.56,7.18,6.55,3.16,2.53,4.75,3.83,5.14,5.3.59,2.21-.42,4.25-1.56,6.55-1,2.12-2.53,3.93-5.45,7.48-2.23,2.7-2.49,2.81-2.66,3.59-.74,3.45,3.16,7.29,6.09,9a14.14,14.14,0,0,0,8.57,1.87,16.57,16.57,0,0,0,5.93-2c3.62-1.92,4-3.5,5.61-3.43s2.57,1.46,5.77,7.79c3.76,7.45,4.21,9.48,6.86,13.88,3.06,5.08,3.47,4.07,4.52,6.71,2,5.12.09,8-.15,17.31-.16,6.34-.25,9.52.93,12.16.75,1.66,1.72,3,12.32,13.1,4.32,4.09,4.28,4,4.53,4.36,1.86,2.92,2,5.9.15,22.93-.57,5.21-1,8.47.31,12.63.78,2.49,1.38,2.78,2,5.45.33,1.36,1.68,6.87-.47,11.7-1.43,3.21-3.21,3.42-6.39,6.7-6.13,6.32-7.8,14.06-8.73,18.4-1.55,7.19-2.46,11.42-.16,13.73,5.25,5.27,22-4.69,25.11,0,1,1.53-.4,3.2,1.24,6.39,1.4,2.72,3.12,2.86,3.75,5,.69,2.34-.8,4.18-2.19,7.17-2.39,5.16-1,6.11-3,13-1.48,5-4.9,13.58-7.48,13.25s-2.75-8.33-3.75-8.26c-1.19.08-1.39,11.73-1.71,23.54-.58,21.58-1,24.43-2.5,28.23-2.55,6.63-4.23,5.87-8.89,16.37-3.73,8.42-5.87,13.43-4.67,19.34.93,4.62,2.76,4.06,6.55,12.63,3,6.7,5.63,12.74,3.11,16.68-2,3.13-5.28,1.83-7.95,5.62-3,4.27-1.53,9.82-1.4,10.29.4,1.42.62,1.18,6.08,8.57,3.88,5.25,4.38,6.19,6.24,7.33S338.27,2026.29,339.43,2027.85Z"/><path d="M307.77,2015.53c-3.15-1.62-8.12-.08-9.2,2.81-.65,1.74.3,3.48,1.72,6.08.57,1,4.43,8.11,7.48,7.33,1.82-.47,2.48-3.5,2.81-5C310.77,2025.91,312.4,2017.91,307.77,2015.53Z"/><path d="M332.72,2038.45c-7.53-2.52-16.53,0-16.84,2.81-.26,2.35,6,2.49,7.8,7.48,2,5.4-3.55,10.1-.78,14.66.77,1.26,2.27,2.69,3.9,2.65,1.17,0,2.11-.79,6.39-7,1.09-1.58,2.65-3.88,4.83-7.49,2.91-4.79,3-5.44,3-6.08C340.65,2041.19,333.49,2038.71,332.72,2038.45Z"/></g></g></svg>