<svg xmlns="http://www.w3.org/2000/svg" viewBox="0 0 2086.77 2204.07"><g id="Layer_2" data-name="Layer 2"><g id="Côte_d_Ivoire" data-name="Côte d&apos;Ivoire"><path d="M401,1883.11a18,18,0,0,0-2.44-1.39A14.17,14.17,0,0,0,401,1883.11Z"/><path d="M398.59,1881.72c-.12-.08-.2-.13-.21-.12S398.45,1881.66,398.59,1881.72Z"/><path d="M2085.49,857.84a142.8,142.8,0,0,1-1-15.68q-12.35-70.35-24.7-140.72a6.93,6.93,0,0,1-3.33-3.74c-.63-2.06.44-3.31,1.39-7.91.78-3.81,1.15-5.78,0-7.22s-3.76-1.77-4.16-1.8c-1.29-.1-1.61.24-3.06.41a11,11,0,0,1-7.35-1.66c-1.18-.84-2.92-2.08-2.85-3.59.16-3.31,8.78-3.47,9.92-8.21.31-1.25,0-2.59-.69-5.27a18.42,18.42,0,0,0-1.8-4.86c-1.07-1.92-1.54-1.85-2.64-3.89-.85-1.57-.64-1.74-1.67-4-1.52-3.4-2.15-3.37-2.35-4.86-.27-1.88.7-2.17,1.52-5.55.59-2.41,1.31-5.36-.14-7.35-.26-.37-1.38-1-3.61-2.22-3.49-1.94-4.08-2.15-5-3.06a6.93,6.93,0,0,1-2.22-3.47c-.58-2.72,1.61-3.9,1.25-6.52-.29-2.07-1.85-2.7-3.06-4.44-1.37-2-2.29-5.43-.27-11.8-.64-.18-1.49-.43-2.5-.69-1.22-.32-3.63-.94-6.38-1.39-4.47-.72-4.54-.12-6.25-.83-2.72-1.12-2.3-2.53-4.58-3.75-3.67-2-6.11,1-13.18-.28-2.84-.49-4-1.24-4.86-2.08a9,9,0,0,1-2.08-4.85,12.8,12.8,0,0,1-.14-5.69c1.14-4.79,5.18-5.05,5.69-9.16.23-1.85-.38-3.48-1.11-5.42-1.29-3.43-2.78-4.11-2.64-6.24s1.92-3.8,2.64-4.44c2-1.78,3.34-1.4,5.41-2.5,3.08-1.63,2.58-3.78,7.08-10.55,1.81-2.71,1.83-2.28,5-6.8,3.66-5.21,3.16-5.12,4.45-6.66,5.72-6.84,13.41-6.07,14-10.27.18-1.28-.43-2.29-1.66-4.3-2.77-4.52-7.38-6.54-9.3-7.35-4.13-1.75-5.77-1.17-7.08-3.06-.78-1.13-.57-1.89-.83-6.66-.35-6.37-.79-6.35-.42-7.77.82-3.1,3-3.18,7.22-7.49,3.35-3.4,7.46-7.55,7.21-12.49-.08-1.75-.75-3.48-2.08-6.94a52.51,52.51,0,0,0-2.36-5.28c-1.47-2.91-2.7-8.65-1.66-21.09a60.23,60.23,0,0,1-4.58,6.66c-5.14,6.5-7.29,6.46-12.77,12.91-3.77,4.44-4.35,6.35-6.94,6.94-3.19.73-6.39-1.26-8.6-3.06q-22.41-23.44-44.83-46.9a49.85,49.85,0,0,1-4.58-4.31c-2.22-2.37-3.33-3.56-3.88-4.85-1.62-3.78.65-5.94-.56-10.41-.49-1.84-1.18-2.63-3-5.41-3.26-4.87-7.11-10.6-9.58-17.21a49.85,49.85,0,0,1-2.91-9.58,27.08,27.08,0,0,0-2.22-7.49,8.92,8.92,0,0,0-2.08-3.05c-.29-.26-2.7-2.36-5.55-1.95-1.76.26-1.92,1.22-4.58,2.78-1.8,1.05-4.26,2.5-6.66,2.22-2.15-.25-3.16-1.76-6.25-5.14-6.68-7.29-7.22-6-8.19-8.32-2.82-6.72,3.25-14.2.7-16.1-1.18-.87-2.41.73-4.58,0-3.57-1.21-2-6.69-6.66-10a15.62,15.62,0,0,0-9-3.06,33.6,33.6,0,0,0-4.58.7,70.13,70.13,0,0,1-8,.83l-1.11-30.95-26,27.9c-.87,2.67-2.12,3.29-2.64,3.47-3.55,1.23-8.37-5.36-9-6.25a21.74,21.74,0,0,1-3.33-6.38c-1.54-4.75-.89-8.48-2.92-9.3-.37-.15-.64-.12-1.66,0-4.5.53-6.75.79-7.5.83a14.72,14.72,0,0,1-7.35-1.8c-3.34-1.54-3.1-2.59-7.22-4.72-2.46-1.27-4.39-2.25-6.8-1.94-1.84.23-2,1-4.36,1.73a16.93,16.93,0,0,1-7.85.49c-3.78-.52-5-1.83-8.33-3.05-2.07-.76-3.74-1-12.76-1.25-9.38-.23-14.07-.34-16.38-.14-9.8.85-14.29,3.15-16.93.41-1.52-1.57-.78-3.12-3-5.55-.62-.66-3.13-3.34-6.53-3.19-3.16.14-5.33,2.64-6.66,4.16-2.73,3.14-1.86,4.66-4,6.25s-5,1.38-9.44,1c-3.74-.34-4.08-1-7.91-1.39a58.8,58.8,0,0,0-9.57,0c-6.74.37-10.1.56-11.94,1.95-2.85,2.14-2.22,4.4-5.41,6.52-2.22,1.47-4.53,1.4-7.08,1.8-7.69,1.22-13.67-.15-27.34-.41-2.46-.05-4.4-.05-6.1,1.24-3.07,2.33-2,6.34-5.14,8.05-.67.37-2.21.39-5.27.42-6.79.06-7.52-.44-8.61.42-1.44,1.13-1.74,3.53-2.36,8.32-.38,3-.18,3.89-1,4.44-1.62,1.14-4-1.61-8-1.66-1.28,0-2.73.24-6.66,2.36-9.79,5.28-11.17,9.29-15.4,8.88-1.3-.13-.68-.46-6.66-3.33-5.51-2.65-5.45-2.09-8.47-3.75-5.18-2.86-6.5-5.14-8.74-4.58-1.29.33-1.75,1.3-3.47,3.89-5.64,8.45-7.21,7.64-9.58,12.9-1.6,3.55-1.34,4.94-3.19,6.39s-3.34,1.23-7.21,1.52c-6.78.51-11.94.95-16.52,3.75a13.58,13.58,0,0,0-4.3,3.75c-.58.8-2.18,3.24-2.5,11.1s1.12,10.27-1,12.91c-1.37,1.72-2.93,1.93-3.75,4.16-.54,1.49,0,2.34,0,5.27,0,6.14.1,6.72-.27,8.05-.77,2.71-2.25,4.43-4.17,6.66s-3.08,3.56-4.58,3.47-2.19-1.77-3.88-3.47c-3.87-3.88-11-5.28-13.6-2.91-1.89,1.74-.26,4.53-2.64,6.66a5.92,5.92,0,0,1-5.13,1.25c-2.38-.56-3.63-2.65-5.14-5.27-2.25-3.92-2-5.76-3.89-9.72a28.9,28.9,0,0,0-4.16-6.38c-2.68-1.79-4.71-2-6.24-1.67-3.15.76-3.33,3.89-7.08,5.28-1.85.68-3.64.45-7.22,0-3-.39-5.36-.69-7.63-2.36a12,12,0,0,1-3.33-4c-3.56-7.37,5.41-14.44,2.64-24.14-.36-1.27-1.33-4.48-3.89-5.42a6.49,6.49,0,0,0-4.16.28c-1.62.47-5.87,1.69-6.94,4.72-1.24,3.52,3.34,6.13,1.66,9-.57,1-2.5,2-6.38,4-2.73,1.43-3.35,1.57-4,1.53-1.75-.09-2.53-1.48-5.27-3.61-4.29-3.33-6.19-5.85-7.49-5.27-1.52.67-.27,4.67-2.22,5.69-1.06.55-1.72-.45-4.17-.56a10.58,10.58,0,0,0-6.1,1.81c-1.21.86-.8,1.05-3.06,3.47-3.29,3.54-4.79,3.82-5.27,3.88a5.49,5.49,0,0,1-3.05-.55c-5.25-2.33-10.83-9.57-13.74-13.32-4.89-6.32-7.16-9.13-10.41-9.44a8.44,8.44,0,0,0-4.3.69c-2.32,1.2-2.2,2.94-3.61,3.33-3.12.87-7.69-6.62-9.71-11.79-1.25-3.17-1.07-4.29-.56-4.86,1.39-1.57,5,1.12,6.8-.42,2-1.69-1.68-5.7-.42-12.49.5-2.66,1.5-4.4.56-5.41s-2.31.09-5-.28c-4.91-.67-7.72-5.24-7.91-5.55-1.31-2.2-.48-2.68-1.52-4.3-2.21-3.4-6.32-1.88-13.74-4.44-6.66-2.29-7.85-5.07-11.38-4.16-.7.17-2.74,1.46-6.8,4-3.79,2.39-4.33,2.84-5.41,2.78-2.87-.16-4.84-3.57-6.39-6.25a19,19,0,0,1-2.91-9.16,17.1,17.1,0,0,1,2.77-10.41c2.12-3,3.8-2.89,3.89-4.44.2-3.56-8.78-4.11-12.63-11.52-1.53-2.95-2.17-6.82-.69-8s4.14.94,6.1-.56a4.5,4.5,0,0,0,1.25-4.58c-.54-1.88-2.1-2-5.69-5-2.29-1.94-1.82-2-4.3-4.17-3.81-3.27-5-3.05-5.41-4.58-.77-2.64,2.38-4.23,1.66-7.35-.44-1.91-2.19-3.85-3.74-3.75-2.52.16-2.84,5.59-5.69,6-1.43.19-2.64-1-4.31-2.64-.86-.85-2.82-3-5-8.19a30.48,30.48,0,0,1-2.5-7.91c-1.05-7.48,2.38-11,.42-13.18-2.58-2.83-10.66.9-11.11-.28-.31-.84,4-2.08,6-6.1,1.17-2.4,1.95-6.7-.41-8.47-1.75-1.3-4.79-.92-7.36,1-4.63,2.29-6.16,2.43-6.52,1.94-.93-1.25,6.06-6.29,4.86-11.51-.41-1.73-1.41-2.21-1.25-3.89.28-3.07,3.88-4.33,3.47-5.69-.51-1.65-6.06-.61-6.67-2.36-.47-1.38,2.76-2.56,2.92-5.27a5.85,5.85,0,0,0-4.86-5.55c-1.45-.11-1.91.79-5.55,3.05-3.49,2.17-5.24,3.26-7.63,3.47a11.09,11.09,0,0,1-6.25-1.39c-1.67-.94-1.7-1.58-3.37-3-.5-.42-5.19-4.21-10.64-3.7-3,.28-2.71,1.52-5.28,1.53-3.8,0-4.55-2.72-9-3.33a11.84,11.84,0,0,0-6.66,1c-2.86,1.39-2.76,3-5.55,5.27-.58.46-5.61,4.4-10.69,3.33-4.55-1-6.48-5.39-8.18-4.58s-.35,5.72-2.09,6.39c-.74.28-1.46-.45-4.44-2.36-2.12-1.37-3.81-2.31-4.16-2.5-4.23-2.32-6.4-1.12-10-2.64a14.22,14.22,0,0,1-6.52-6,57.38,57.38,0,0,1-8.75-10.54c-8.65-13.47-7.89-25-16-28-2.32-.86-3.88-.47-7.35-2.22-3.72-1.87-4.35-3.66-8.33-5.13a18.28,18.28,0,0,0-6.24-1.39c-3-.07-3.42.75-8,1.39-3.57.49-5.35.74-7.36.28-3.16-.74-3.68-2.18-7.07-2.5a26.79,26.79,0,0,0-4.31.14,19.27,19.27,0,0,0-5,.69c-1.66.59-2.51,1.44-4.58,3.33-3.21,2.93-4.81,4.39-5.83,5.14-5.55,4-12.63,3.06-13.6,2.91-5.51-.84-5.1-3.47-8.88-3.61-4.83-.17-6.87,4-20.54,15a30,30,0,0,1-5.14,3.61c-5.46,2.87-8.6,1.85-11,4.44-1.37,1.51-1.26,2.9-1.8,7.77-.84,7.48-1.12,4.25-2.78,16.24-1.53,11-1.27,13.59-3,14.29-2.64,1-4.88-3.9-11.94-5.13-2-.36-6.45-1.13-8.88,1.25-2.83,2.76.35,6.57-2.36,12.9-1.28,3-3.21,5-6,7.77s-4.09,4.15-6.52,4.86-4.55.31-8.05-.42a42.78,42.78,0,0,1-7.35-2.22c-6.3-2.42-10.28.4-19.15.7-7.69.26-21.13-1.29-25.95-7.91-5.61-7.69-6-8.33-6-8.33-.85-1.51-1.34-2.57-2.64-3.47-2.59-1.78-4.49-.19-6.94-1.52-3.76-2.06-3.87-8.34-3.88-9.44,0-1.93-.09-4.37,1.66-6.52,1.6-2,4.48-3.56,6.94-2.92,2.25.59,2.57,2.62,4.86,2.78,1.06.07,2.79-.24,3.47-1.39,1.27-2.14-2.59-4.67-2-8.6.36-2.19,1.68-2.18,3.06-5.56a17.53,17.53,0,0,0,1.25-6.1c.26-7.08-4.06-11.28-2.36-13,.74-.76,1.58,0,4.16-1,1-.37,3.74-1.4,3.89-2.91s-2.35-1.93-5.14-4.86c-1-1.08-4.36-4.58-3.88-8.47.23-1.9,1.31-3.33,2.77-5.27,2.37-3.13,4.05-3.55,3.89-4.72-.2-1.38-2.77-1.15-8-3.74a78.48,78.48,0,0,1-7.5-4,34.49,34.49,0,0,1-4.71-3.33c-2.53-2.21-6.38-5.6-6.25-9.16.22-5.87,11.2-8.05,10.83-13.88a17.23,17.23,0,0,0-1.11-3.6c-1.62-4.45-3-5.51-2.5-7.22.08-.33.31-1,3.61-3.33,4.09-2.93,6.44-3.87,6.24-4.86-.17-.82-2-1.45-2.64-1.66a6.88,6.88,0,0,0-.89-.25,14.59,14.59,0,0,1-7.29-4.75,12,12,0,0,1-2.78-5.41,13.44,13.44,0,0,1,1.8-9.16,18.24,18.24,0,0,1,1.81-2.64c1.3-1.53,1.89-1.59,2.91-2.91.81-1,1.76-2.27,1.67-3.75-.13-2.09-2.22-3.43-2.92-3.89C811.3-.43,808.3,0,806.8.2A13,13,0,0,0,800.27,3c-3.33,2.8-1.91,4.88-4.85,7.77-3.62,3.56-6.7,1.32-9.86,5.14-1.28,1.55-2,3.42-4,3.88-.93.21-1-.14-2.91,0-2.33.17-3.22.74-4.17.14-.66-.41-.53-.88-1.11-1.53-1.18-1.32-3-.88-5.55-1.11-.43,0-2.65-.72-7.08-2.08A35.08,35.08,0,0,0,755,13.67c-2.31-.36-3.46-.53-4.58-.14-3.56,1.24-4.45,7.1-4.58,8-.64,4.72,1.36,6,2.92,14.71.82,4.62.22,4,1.11,8.74,1.31,7,2.66,8.48,1.53,10.82s-3.49,3.3-7.64,5.14c-2.49,1.11-3.59,1.15-4.3,1.11-2.23-.14-2.9-1.36-5.27-2.36-2.57-1.09-3.08-.2-8.05-.83-3.14-.4-3.1-.77-8.33-1.81-6-1.18-5.36-.56-7.49-1.25-5.33-1.72-9.22-5.6-10.69-7.07-3-3-3.61-4.75-6.1-5.28s-3.38.77-5.42.14c-2.43-.75-3.09-3.23-5-6.66-1.35-2.43-6.12-11-10.69-10.69-2,.15-3.6,1.9-6,4.45a23.9,23.9,0,0,0-2.91,3.88,18.92,18.92,0,0,0-3.19,9c-.07,1.73.26,2.07,1,5.69A79.62,79.62,0,0,1,662.75,61c.2,5.33.3,9.35-2,10.68-1.6,1-3.07-.24-4.16.84-1.34,1.33.24,3.82.42,8.19.16,4-1.11,4.16-1.11,7.77,0,.61.09,8.75,5.13,12.07,3.85,2.54,7.72.38,9.58,3.19.43.66.52,2.2.69,5.28a22.6,22.6,0,0,1-.28,6.8,20.92,20.92,0,0,1-1.66,4.3c-2.21,5.06-1.4,6.14-3.19,10.68-1.66,4.2-2.66,6.75-5.28,8.19-2.85,1.57-6.18,1.05-9.29.56a26.9,26.9,0,0,1-6-1.67c-13.51-5.37-15.83-3.14-24.57-7.91-4.91-2.68-7.19-5-10-4-2.18.78-1.89,2.61-5,5.27-2.41,2.07-3,1.28-10,4.72-3.92,1.91-4.78,2.66-6.8,2.63-2.29,0-2.44-1-5.82-1.94-2.33-.64-2.45-.23-10-.69-4.11-.25-4.69-.42-5.69.14-1.87,1-1.69,2.67-3.74,6.1-1.44,2.39-1.71,1.91-5.14,6.25s-3,4.62-5.13,6.94c-3.25,3.47-4.22,2.79-6.66,5.83a16,16,0,0,0-3.75,8.32c-.22,1.93-.49,4.24.83,6.25,1.64,2.49,3.9,1.72,6,4.44A10,10,0,0,1,552,186a13.65,13.65,0,0,1-1.25,5.83,22.42,22.42,0,0,1-3.33,5.82c-1.85,2.38-5.35,6.89-11.24,8.33-2.38.58-4.87.3-9.85-.28a20.32,20.32,0,0,1-6.66-1.8,7.54,7.54,0,0,1-3.19-2.22c-1.32-1.78-1.17-4-1-6.39.34-4.26,1.63-5.14.83-6.8-.51-1-1.11-.9-4.72-3.19-.43-.27-2.67-1.7-4.72-3.33-1.7-1.35-1.8-1.67-4.72-4.44-5.09-4.83-6.43-5.41-7.21-5.69a12,12,0,0,0-5.55-.41,96.25,96.25,0,0,1-20.54-.7c-10.47-1.26-13.33-1.94-13.33-1.94-2.4-.57-5.07-1.34-7.49,0-1.91,1.06-1.53,2.25-3.61,3.88-2.54,2-5.57,2.16-9.3,2.36a53.11,53.11,0,0,1-6.52-.27c-9.31-.67-10.86-1.22-12.07-2.5-.26-.28-2-2.1-1.67-4.17.38-2.42,3.19-2.6,5.14-5.69.7-1.11,1-3,1.52-6.8a55,55,0,0,0,.56-9.71c-.05-3.41-.3-4.09-.56-4.58a8.3,8.3,0,0,0-6.38-4c-3.82-.44-5,2.31-9.3,1.8a12.43,12.43,0,0,1-5.27-1.67c-3.86-2.35-5.15-6.49-6.66-11.37a27.56,27.56,0,0,1-1.67-8.89,101.62,101.62,0,0,1,.56-10.4c.21-1.79.38-2.8-.28-3.61-.8-1-2.13-.8-7.36-.84-4.67,0-5.41-.2-6.24-.55-1.78-.76-1.92-1.54-3.89-2.22a8.25,8.25,0,0,0-4.72-.42c-1.93.5-3.2,2.14-5.68,5.41a48.84,48.84,0,0,0-3.75,5.42c-1.52,2.58-1.89,3.85-3.19,4.3s-3.05-.33-4.17-1.11L332.6,100.4l-26.09,19a18.62,18.62,0,0,0-6.25,6.11,12.42,12.42,0,0,0-2.22,5.41c-.26,2.4.52,3.48-.28,5.55a5.82,5.82,0,0,1-2.35,3.06c-2.18,1.26-3.91-.27-5.42,1-.76.62-.42,1.09-1.38,4-1,3.13-1.68,3.38-1.81,5.14-.14,1.94.59,2.49.7,4,.17,2.64-1.75,4.73-4.58,7.63-4.9,5-7.35,7.53-10.41,10.14-4.25,3.61-5.55,4.29-9.16,7.77-2.63,2.53-2.49,2.69-3.89,3.74-1.06.8-3.65,2.6-10.82,4.72-5.37,1.59-4.76.75-6.52,1.67-5,2.6-5.31,6.59-10.83,10.82-2.86,2.2-5.08,3.9-8.19,4-6.54.27-10.28-6.7-14.29-5-1.48.63-2.28,2.14-3.05,3.61-1.84,3.49-.63,5.84-2.64,7.91-1.52,1.56-2.63.64-3.61,1.94-2.15,2.86,2.84,7.78.83,12.21-.58,1.28-1.53,1.87-3.05,3.06-5.3,4.15-10.38,3.2-22.06,6.52-3.28.93-4.87,1.57-6.53,2.78a18.94,18.94,0,0,0-5.83,7.63c-2.75,5.62-1.26,6.87-3.88,12.35-2.34,4.88-4.37,5.66-3.89,7.91.83,3.87,7.53,4.82,7.22,6.8-.15.95-1.73,1-5,2.5-3.74,1.68-6.36,2.86-7.35,5.13-1.51,3.43.9,8.89,4,9.72,2.76.73,5-2.45,6.25-1.53s-.19,4.27-1.39,12.07c-.78,5.06-.54,5.89,0,6.39,2.24,2.06,7.71-3.67,11.38-1.81,4.34,2.21,3.37,13.62,1.8,20-.56,2.3-.67,1.78-4.16,12.9-1.29,4.12-.89,3-2.22,7.22-2.52,8.06-3,9.12-3.33,11.52-.48,3.55.08,5,.42,9.43.4,5.38,1.19,16-2.78,26.09-1.12,2.85-2.45,5.2-3.05,9.44a37.73,37.73,0,0,0,0,8.61c.28,4.09.64,8.9,1.11,14.29a81.12,81.12,0,0,0,31.22,40.52,46.85,46.85,0,0,0,9.85,3.19c5.36,1.1,9.7,2,14.3.28,4.3-1.6,3.66-3.56,8.6-5.13a44.18,44.18,0,0,1,9.16-1.53c2.17-.19,2.11-.06,4.44-.28a58.61,58.61,0,0,0,8.33-1.25c4.77-1.11,6.19-2.28,6.94-1.52s-.68,2.9-1.67,7.08c-1,4.34,0,4.77-.69,9.85-.82,5.75-2.25,5.68-2.78,10.82-.38,3.76.34,4.25.28,9.3a42.36,42.36,0,0,1-1.25,11c-1.32,4.87-3.59,8.34-7.77,14.71-3.14,4.79-4.09,5.47-4.86,8.19a16.24,16.24,0,0,0,.56,11c3,6.55,11.11,10.41,16.93,9.15a33.69,33.69,0,0,0,9.85-3.46c.79-.49,2.35-1.53,4-1.11a4.47,4.47,0,0,1,2.63,2.22c.92,1.74.18,3.1.28,5,.08,1.55.73,3.76,3.47,6.39l25.26,20.4a3.33,3.33,0,0,1,.55,2.91c-.79,1.64-4.18,1.56-12.07.83-10.23-.94-14.58-1.73-20.12-.28-3.4.89-5.12,2.07-6.11,3.61-.85,1.33-.54,2-1.8,5.14-1.12,2.81-1.7,4.23-3.06,5-1.14.66-2.11.46-4.71.28-4.21-.28-6.31-.42-7.36-.14-4.34,1.18-3.24,6.4-9.58,12.35-2.84,2.68-4.5,3-4.71,4.86-.3,2.58,2.61,3.47,4.85,8.61,1,2.33,2.18,5,1.25,7.63-.64,1.81-1.62,1.8-3.47,5a11.42,11.42,0,0,0-1.94,4.86c-.2,2.41,1,3.52,1.8,5.83,1.34,3.8,1.14,9.32-1.66,12.63a14,14,0,0,1-8.19,4.44c-1.18.16-2.3.11-3.33,1a5.1,5.1,0,0,0-1.25,5.83c1.07,2,3.14,1.06,5.27,3,2.86,2.66.87,5.92,3.61,8.47,2.13,2,5.33,1.86,7.22,1.8a11.61,11.61,0,0,0,5.83-1.52c2.35-1.44,2.23-2.61,4.3-3.47a8.46,8.46,0,0,1,5.55-.14c2,.57,3.34,1.72,6,4,2.37,2.07,2.71,2.86,4.44,3.61a13.24,13.24,0,0,0,4.16.83c3.84.39,4.74.06,7.22.28,3.5.3,6.67.58,8,2.64,1.65,2.45-.93,5,.69,7.35s5.25.72,7.77,3.33c1.91,2,.63,3.77,2.09,9,.88,3.22,2.12,5.29,4.44,9.16,3,5.09,4.56,7.64,6.8,8.33,3.53,1.09,5.17-2.34,9-1.11,4.25,1.35,6.14,5.14,7.35,7.49a16.68,16.68,0,0,1,1.94,8.88c-.36,4.86-2.83,5.46-4.44,10.69-.31,1-2.52,8.57.7,15.4,2.52,5.36,6.1,5.44,6.8,10.27.35,2.45-.25,4.65-1.25,8.33-.4,1.48-1.15,3.57-2.64,7.77s-1.48,4-1.52,4.44c-.54,5.48,4.88,10.25,5.55,10.83,2.91,2.5,4.41,2.12,6.1,4.44a11.41,11.41,0,0,1,1.81,7.63l-33.59.14a26.36,26.36,0,0,1-3.61-4.44c-2.09-3.26-2.42-5.41-4-9.72a82.07,82.07,0,0,0-4.72-10.27c-2.41-4.6-3.62-6.9-6-9.57-3.37-3.83-8.43-7.72-9.57-6.8a.63.63,0,0,0-.16.2c-2.92,5.76-4.39,8.64-4.14,12.29s1.8,4,1.25,6.66a9.39,9.39,0,0,1-4,5.41,12.84,12.84,0,0,1-13.32.84c-1.66-.95-1-1.2-4.16-4-4.94-4.38-8.18-5.21-8.19-7.63,0-1.32,1-1.47,1.25-3.33.36-2.28-.75-4.17-1.81-6-5.71-9.74-5.82-10.26-6.8-10.41-3.12-.46-3.79,4.58-9.57,6.66-1.44.52-3,.8-11.8-.14-5.28-.56-8.9-1.11-11.8-1.52-11.68-1.68-17.52-2.51-20-1.81-6.22,1.79-7.39,5.55-13.32,5.42a23.85,23.85,0,0,1-7.63-1.81c-5.8-2.09-7.44-4.4-10.69-3.75a8.79,8.79,0,0,0-4.72,3.06c-2.84,3.29-1.4,6.17-4,8.19-2,1.56-3.79.51-5.28,2.35-.74.93-.85,1.87-1.11,4.45-.45,4.54-.68,6.81-.69,7.35-.16,7.75-.24,11.63.28,13.74,1.38,5.68,3.65,6.23,3.6,10.69,0,3.74-1.64,3.5-2.22,8-.68,5.42,1.44,7,1,13.74a29.47,29.47,0,0,1-1,5.83c-2.24,8-7,10.43-5.82,13.19.75,1.82,2.88.92,7.49,3.6,2.4,1.4,4.19,3.16,7.77,6.67,3.78,3.7,4.27,4.79,6.66,6.1a17.87,17.87,0,0,0,6.39,1.94c13.09,2,15.37-.91,20.4,1.67,4,2,3.81,4.5,10.4,8,4.11,2.21,5.56,2,6.39,1.53,1.14-.67,1-1.84,3.19-7.64.94-2.52,1.5-3.74,2.78-4.3a3.89,3.89,0,0,1,3.05,0c1.78.81,1.82,2.74,2.77,2.78s1.15-2.11,2.92-3.75c1.94-1.8,5.4-2.58,7.08-1.25,1.12.89,1.13,2.46,1.11,5.41a36.72,36.72,0,0,1-1.39,9.3,46.43,46.43,0,0,1-2.64,8.33c-3.31,7.05-7.7,8.71-6.94,10.82,1,2.65,7.76-.4,12.77,3.89,3.67,3.14,2.06,6.52,6.8,10.41,2.55,2.08,4.31,2.17,5.27,4.44a7,7,0,0,1-1.11,7.07c-1.7,2-4.11,2.18-6.1,2.36-1.66.15-3.85.35-5.83-.83-3.58-2.13-2.89-6.61-5.69-7.35-1.32-.36-1.55.62-4.3,1.24-3.65.83-5-.49-9.44-.27a14.06,14.06,0,0,0-6.24,1.25c-2.35,1.21-4.14,3.41-6.53,9.29A81.67,81.67,0,0,0,174,960.68c-1.88,7.28-5.33,14.06-12.22,27.61-1.61,3.18-3.5,6.75-3.19,11.52a16.24,16.24,0,0,0,2.78,8.33c3.59,5.15,7.71,3.88,10.13,8.33,1.59,2.93,1.21,6.07.69,10.4a37.51,37.51,0,0,1-2.5,9.3,159.4,159.4,0,0,1-8.46,19.71c-3.21,6.27-4.82,9.4-6.94,12.35-7.48,10.4-13.62,11.83-13.46,17.35.14,4.79,4.85,6.53,3.75,11-.2.78-1.9,2.66-5.28,6.38-4.06,4.48-5.38,5.72-7.21,5.69-.83,0-1.06-.26-3.47-1.38-3.86-1.8-4.18-1.58-7.08-2.92-4.06-1.88-3.64-2.41-7.77-4.44-5.14-2.53-5.52-1.57-7.36-3.19-3.32-2.94-1.87-5.88-5.41-9-.78-.69-3.15-2.8-6.11-2.64-3.87.21-4.3,4.07-9.43,6.11-1.19.47-5.86,2.32-9.16.28s-2.58-6.6-6.8-8.89a8.85,8.85,0,0,0-3.33-1c-5-.35-7.36,4.66-18.18,16.66-3.78,4.18-5.9,6.18-5.42,8.88.7,3.8,5,5.56,5.28,5.69,4.8,1.9,8.38-1.49,11,.41,1.9,1.4,1.21,4.14,1.39,8.88.36,9.31,3.48,10.5,5.55,22.9a92.65,92.65,0,0,1,1.11,11.8c.91,17.68-2.23,20.52,1.11,26.37,2.86,5,6.31,4.93,8.74,11.38a60.6,60.6,0,0,1,2.22,8.74c1.25,5.77,1.22,7.58,2.92,10.13,1.31,2,1.74,1.51,4.86,4.72,4.88,5,4.15,6.51,6.93,8.19,4.16,2.5,6.7-.23,10.55,2.22,4.19,2.66,4.93,8.27,5,8.88.54,4.68-1.94,6.32-6,15.82-3.21,7.57-4.81,11.35-4.16,15.68.51,3.46,1.79,4.27,2.63,10,.65,4.37.13,5.39,1.25,7.36,2.29,4,6.36,3.13,7.36,6.1,1.08,3.24-2.41,8.25-6.52,10.13-2.71,1.24-4.32.13-6.67,1.67-4.06,2.68-4.14,9.27-4.16,11.24-.06,5,1.61,5.91,2.91,12.63a48.59,48.59,0,0,1,.7,13.88c-.38,3.65-1.74,7.76-4.44,15.82-2.19,6.54-3.29,9.81-4.3,11.65-2,3.66-3.32,4.56-11.94,13.88-5.7,6.17-8.55,9.25-10.13,11.38-3.81,5.14-4.14,6.88-9.16,13.74a82.55,82.55,0,0,1-6.52,8.19c-5.67,6-9,6.47-15.13,11.1-6.69,5-11.58,11.27-21.37,23.73-2.74,3.49-4.53,6.09-8.19,7.63-2.47,1-4.83,1.18-5.27,2.78-.58,2.11,1.83,4.15,2.5,4.72,1.9,1.62,3.75,1.83,6.94,2.5,6.43,1.34,9.65,2,11.79,3.74,1.16,1,2.35,2.9,4.72,6.8,3.14,5.18,3,6,4.72,7.5,2.95,2.45,7.67,3.47,9.85,1.66.83-.69.56-1.17,1.94-5.13,1.56-4.43,2.05-4.24,2.36-6.25.58-3.68-1-4.68,0-6.94s3.56-3.86,5.69-3.47c1.36.26,2.15,1.3,5,6.53,4.26,7.82,4,8.25,5.55,9.85,3.59,3.7,6.29,2.73,7.36,5.55,1.37,3.65-2.69,6.49-1,10.13,1.11,2.35,3.31,2.27,3.75,4.58.28,1.48-.45,2.45-1.94,5.41-2.46,4.89-3.69,7.33-3,8.19s3.25.19,14.29-3.19c5.39-1.65,8.13-2.46,10.41-1.67,2.43.85,2.29,2.1,6.52,5.56a45.88,45.88,0,0,0,9,5.69c4.4,2.15,4.8,1.48,9.58,3.74,5.18,2.46,4.67,3.22,8.74,4.86,5,2,6.3,1.08,10.13,3.19,3.3,1.82,3.19,3,6.11,5,6.46,4.48,14.18,3.74,15.4,3.61,3.88-.43,3.6-1.5,14.16-6.25,3.64-1.64,7.61-3,15.54-5.83,6.05-2.13,8.51-2.84,11.24-1.8,2.58,1,2.47,2.43,6.24,4.44a26.51,26.51,0,0,0,8.47,2.64c4.3.71,5.38,0,8.19,1.24,2.26,1,2.59,1.88,4.58,3.06,3.86,2.28,6.93,1.44,10.13,1.94,9,1.4,7.51,11.6,20.26,19.29,2.56,1.55,6.38,3.4,7.22,7.08.35,1.55.1,3.12-.28,5.55a25.67,25.67,0,0,1-1.94,6.38c-1.06,2.59-1.65,3.2-2.36,3.47s-1.5.11-2.09.7a2.55,2.55,0,0,0-.55,1.94c.08,2,.31,10.52.69,22.2a7.39,7.39,0,0,1,4-2.08c1.94-.25,2.83.62,5.55,1.39,4.71,1.33,5.74-.23,7.91,1.25,2.79,1.89,3.25,5.94,3.33,6.66.31,2.72-.72,3.16-.14,5,1.07,3.35,5.08,3.65,5,5.55-.07,1.41-2.3,1.44-5.14,4.44-1.26,1.33-2.5,2.64-2.77,4.58-.39,2.75,1.42,5,2.49,6.38a14,14,0,0,0,6.39,4.44,54,54,0,0,0,7.08,11.52,54.6,54.6,0,0,0,16.23,13.6,16.41,16.41,0,0,0,3.61-3.33c4.3-5.39,3.43-11.56,6.11-12.21,1.21-.3,2.42.72,3.05,1.25,3.51,3,1,7.63,4,11.1.73.82,1.07.78,6.94,3,6.8,2.63,6.15,2.6,9,3.61,10,3.53,11.29,1.52,13.6,3.89,4.58,4.66.43,13.27,4.58,15.4,1.62.83,3.85.33,5.14-.28,3-1.4,3.45-4.61,4.58-4.44,1.3.19.4,4.41,2.77,7.77,2.86,4,9.6,5.64,12.77,3.33.49-.35.73-.68,2.22-3.6,3.66-7.17,3.73-8.16,5-9,2.8-1.91,8.47-1.2,10.27,1.67,2.84,4.55-6.33,10.89-3.61,18.87.94,2.78,2.78,4.17,2.77,7.78a23.38,23.38,0,0,1-1.24,6.38c-.78,2.61-1.22,3.1-1.67,4.58-1.59,5.19.43,10.25,1.11,11.93,1.43,3.57,3.14,5,5.83,8.33,5.07,6.28,7.52,11.82,10.55,18.46,6.19,13.57,4.13,16.07,3.47,16.65-1.27,1.12-2.73-.05-4.72,1.39-2.6,1.88-3.58,6.37-2.22,9.3.57,1.22,1.08,1.17,1.94,2.91a13.05,13.05,0,0,1,1.25,5,15.25,15.25,0,0,1-2.08,7.91,29,29,0,0,1-2.78,4.16c-2.09,2.93-5.49,7.69-6.66,13.46-.83,4.09-.34,7.72-1.39,7.91-.33.06-.5-.29-1.39-1-.43-.34-3.28-2.54-4.71-1.8-.75.38-.88,1.45-1.11,3.47a16,16,0,0,0,0,4.3c.68,4,3.82,4.85,9.57,11.65,2.32,2.74,2.69,3.65,4.16,4,3.57.92,7.53-2.78,8.05-2.08.2.26-.34.83-.81,1.8a9.47,9.47,0,0,0-.57,5.55c.6,4.68,3.92,5.17,3.88,8.88a8.57,8.57,0,0,1-1.8,4.72c-1,1.53-1.7,1.76-6.25,5.28-3.08,2.38-3.34,2.73-4.3,2.91a6.68,6.68,0,0,1-3.87-.57,8.58,8.58,0,0,1,3.18,3.62c1,2.36.76,5.91-1.39,7.36-1.41,1-3.74,1.09-4.72,0s.06-2.33-.28-4.16c-.64-3.43-5.65-7.4-10.13-6a8,8,0,0,0-5.13,6.8c-.17,1.81.43,3.34,1.52,6.1,1.31,3.33,2.13,3.68,2.22,5.28.17,2.81-2.23,3.77-3.6,6.52-3.16,6.32,4.47,11.34,2.22,20.82a25.16,25.16,0,0,1-3.47,7.63c-1.69,2.41-2.34,2.31-4.58,5.13-3.42,4.32-4.56,7.91-5.55,7.64-.56-.16-.25-1.29-1.11-2.64a6.18,6.18,0,0,0-5.14-2.64c-3.56.22-5.69,5.23-7.35,9.16-1.15,2.71-2.69,6.33-2.22,11,.26,2.66.9,2.71,2.91,8.88,1.91,5.84,2.85,8.81,2.36,11.1-1,4.79-5.08,5.66-4.58,8.47.63,3.53,7.23,2.94,9,7.63a8.1,8.1,0,0,1-2.36,8.6c-1.45,1.16-2.91,1.14-5,1.39-3.12.38-11.77,1.43-14.3,5.69-1.41,2.39.6,3.23.69,12.07.06,5.72-.77,6.09,0,9.16,1,4.11,3,5.46,2.5,8.47-.49,2.76-2.42,3-2.5,5-.12,3.52,5.76,4.43,9.3,9,2.92,3.79,2.64,8.82,2.08,18.88-.57,10.35-2.47,13.17-1.38,20.54.65,4.4,1,6.6,2.22,9.3,1.52,3.28,3,4.43,2.63,6.52s-2.34,2.64-5,5.69c-1.49,1.71-3.74,4.28-4.17,7.35-.8,5.74,5.49,7.61,5.28,14.85-.07,2.39-.79,3.39-.42,6.39s1.26,3.6,1.39,6.38a18.54,18.54,0,0,1-1,6.11c-1.22,4.61-2.42,5.54-1.94,7.91a9.12,9.12,0,0,0,1.8,3.6c2.26,3.27,4.41,3.65,4.3,5.14-.05.73-.58.58-3.47,3.61a27.23,27.23,0,0,0-2.36,2.77c-.07.11-.72,1-1.25,1.92a14.44,14.44,0,0,0-2.22,7.8c.09,1.8.18,3.74,1.53,5,1.69,1.57,4,.82,9.44.7,2.5-.06,5,.2,7.49.27,13.21.39,24.86,4.11,34.7,2.92a46.15,46.15,0,0,0,13.32-3.61c5.67-2.52,10.67-4.73,12.35-9.44.85-2.38.21-3.61,1.66-6.8a22.61,22.61,0,0,1,4.44-6c3.15-3.34,6.07-5,10-7.22,11.15-6.36,16.8-9.59,20.4-12.07,5.09-3.52,4.83-3.95,7.91-5.56,3.69-1.92,7.41-2.94,14.85-5,2.25-.62,4.43-1.17,6.94-1.67,1.57-.31,2.79-.51,4.71-.83.38-.06,5-.82,7.36-1.11,10.54-1.31,16.29,1.62,21.09-2.5l.24-.21,34.18-30.18a13.17,13.17,0,0,0,7.22-1.94c2.45-1.58,2.76-3.14,7.21-8.33,2.23-2.6,3.35-3.9,4.44-4.58,3-1.87,5.87-1.66,11.11-1.66,0,0,4.94,0,12.48-.42,6-.33,5.26-1,16.52-2.64,10.34-1.5,13.23-1.26,18.87-3.47.22-.08,0,0,6-2.49,9.91-4.15,9.56-4,10.27-4.31,2.56-1.18,2.71-1.36,3.61-1.52,3.33-.63,4.72,1.13,7.49.27a8.18,8.18,0,0,0,3.75-2.77,11.59,11.59,0,0,0,2.64-5.55l18.31-7.91,53.85-16,51.21-17.07,44.82-21.65c.86.12,5.14.64,8-1.94a10.94,10.94,0,0,0,2.08-2.64c.77-1.42.48-1.76,1.39-3.89.76-1.77,1.22-2.14,1.11-3-.09-.71-.45-1.16-1.39-2.22-2.75-3.13-3.15-3.33-3.6-4.16a6.81,6.81,0,0,1-.56-4.58c8.29-1,11.16.54,12.21,2.22.69,1.08.76,2.46,2.22,4.3a13,13,0,0,0,3.89,3c3.52,1.81,13.43-.69,24.56-7.77l41.91-15.54,67.17-12.07a42.65,42.65,0,0,1,5.14-.42c6.59-.14,9.42,1.32,12.35-.56a6,6,0,0,0,2.77-3.47c.46-2.06-1-3.26-.69-6.38.12-1.36.22-2.4,1-2.91s1.83-.19,7.63,2.49c1.85.86,3.62,1.7,4.44,2.09l4.72,2.22,92.43-9.44c55.53-6,94.1-9.91,100.33-9.85,1,0,6.36.16,7.91-2.64.61-1.1.24-2,1.25-3.33,1.18-1.61,2.39-1.43,3.47-3a11.5,11.5,0,0,0,1-3.2c.86-3.69.92-5.37,1.39-5.41s1,1.54,1.11,2.08c.38,1.24,1.3,4.23,0,7.08s-3.38,2.82-3.33,4.44c.07,2.18,4,3.62,4.3,3.75,2.93,1,5.46.46,7.91,0,4-.75,8.08-.74,12.08-1.39A121.39,121.39,0,0,1,1292,1932c9.39.39,9.83,1.93,17.21,1.38,2.78-.2,3.6-.49,14.29-2.63,0,0,8.62-1.74,16.38-3.2,7.52-1.41,13-2.25,21-3.47,17.52-2.67,19.54-2.54,39.14-5.41,13.8-2,13.67-2.21,20-2.91,9.44-1.06,13.53-1.06,24.43-2.36,8.63-1,9.48-1.45,14.85-2.08,15.48-1.84,20.39.15,33.86-.28,17.39-.55,13.84-4.5,35.25-5.55,15.44-.76,22.13,1.14,33-3.33,3.5-1.44,7.16-3.42,13-3.89,6.25-.49,10.28,1.1,16.93,3.06,13.2,3.88,11.06,1.65,27.76,6.1s16.36,6,24.42,6.66c7.76.59,10.45-.68,19.43.84,4.15.69,6.63,1.48,13.18,2.35,3.52.47,5.23.54,8.75,1.25,4.76,1,5.41,1.56,8.74,2.09,3.9.61,6.85.39,12.21,0,6.1-.45,7.71-1.15,11.24-.28,1.87.45,1.87.76,5.42,1.94a74.18,74.18,0,0,0,8.88,2.36c8.22,1.56,8.54-.63,13.6,1.11,4.19,1.44,4.8,3.23,9.16,3.89,2.38.36,3.52,0,6.66-.14s6.08.12,11.93.69c12.8,1.25,19.2,1.87,23.18,4.16,2.44,1.41,3.37,2.47,6.38,3.61,1.93.73,8.76,3.31,12.21,0a5,5,0,0,0,1.67-3.74c-.24-2.94-4.08-3.61-8-7.22-.65-.59-7.48-6.92-6-11.52.93-2.83,4.74-4.14,11.66-6.52,2.08-.72,2.48-.71,6.25-1.94,6-2,9-3,9-3.89,0-2.09-10.43-1.19-15-7.91-1.67-2.45-2.79-6.29-1.39-9,.74-1.45,1.63-1.48,6-4.58,3.6-2.58,5.4-3.87,6.1-5.14,2.14-3.86-.3-7.26,1.81-9.29,1.51-1.47,4.06-1,6-.7,13.36,1.75,19.71-6.88,29.14-2.63a10,10,0,0,1,4.3,3.33c2.85,4,1.29,9.31,1,10.4-1.17,4-3.64,6.37-7.21,9.72-6.37,6-10,6.19-11.38,10.68-.76,2.55.14,3.4-1.11,5.69-1.86,3.42-4.94,3.54-5.42,6.39-.09.53.22,1.88.84,4.58.73,3.2.95,3.29,1,4.3a9.09,9.09,0,0,1-2.36,5.83c-2.24,2.49-5.26,3-7.22,3.33-1.65.28-1.55,0-3.88.28a27.55,27.55,0,0,0-6.8,1.66c-3.25,1.3-5.12,2-5.69,3.75-.74,2.17.91,5,2.91,6.66,3.06,2.48,5.66.54,14.29,2.64,3.3.8,3.72,1,6.25,1.52,7.05,1.35,8.2.31,12.07,1.81s3.67,3,7.36,3.88c3.22.77,4.5-.09,8,.42a20.08,20.08,0,0,1,7.77,2.91l-.42-14.85a16.24,16.24,0,0,1,2.36-1.24c4.79-2,9.13-1.13,15.68.13,14.84,2.87,13.82,2.26,15.27,2.92,7.85,3.58,10.39,9.11,13.88,7.91,2.53-.87,1.84-4,5.27-6.25,2.12-1.38,3.41-.84,10.55-1,9.9-.18,10.65-1.27,14.85-.14,3.3.9,3.83,1.85,6.93,2.09,3.76.28,4.71-1,8.19-.28,2.8.55,2.87,1.5,6,1.94a28.61,28.61,0,0,0,5.55,0c3.74-.19,3.71-.48,5.69-.42s2,.34,6.25,1c3.2.48,4.83.72,6,.41,2.18-.59,3.49-2.06,4.86-3.61s3.59-4,3.75-7.21c.1-2.1-.75-3.1-2.78-6.94-3.79-7.19-2.55-7-5.69-12.49s-4.68-6.16-4.58-8.88,1.67-3.31,1.81-7.08c0-1.25.17-4.81-2-6.38-1.24-.93-2-.22-3.47-1.11a6.71,6.71,0,0,1-2.77-6.53c.44-2.42,2.15-2.16,3.88-5.69a13.3,13.3,0,0,0,1.53-6.52c-.08-2-.61-2.35-.55-4.58,0-1.77.1-3.71,1.38-4.58s3.23-.19,4.17.14c1.55.55,1.9,1.22,2.91,1.67,1.23.54,3.25.68,6.66-1.25a44.45,44.45,0,0,0-1-15.55,75.28,75.28,0,0,0-2.64-7.63c-.9-2.33-1.57-3.84-1.94-4.72a56.79,56.79,0,0,1-3.47-13.18c-3.8-22.78-4-34.14-4-34.14-.15-7.52.21-13.77-3.61-16.79s-7.36-2.92-7.36-2.92a17.33,17.33,0,0,1-3.6.28,12.81,12.81,0,0,1-4.72-1.39,27.21,27.21,0,0,1-6-3.88c-3.56-3-4.39-4.76-6.38-4.72a4.85,4.85,0,0,0-2.92,1.39c-1.68,1.31-6.07,2.77-14.85,5.69-7,2.31-8.31,2.42-9.71,2.36-1.86-.09-5.28-.25-7.63-2.78-2.82-3-2.32-7.51-2.22-8.33.32-2.9,1.53-3.52,1.8-7.21.15-2.08-.21-2.19-.14-4.58.14-4.76,1.61-6.28,1.11-7.5-.75-1.82-5.86-2.6-24,1.39q.63-23.73,1.25-47.46a29.82,29.82,0,0,0-.28-4.86,36.66,36.66,0,0,0-2.22-8c-1.62-4.53-2.43-6.8-3.74-9.85-1.56-3.6-2.19-4.6-5.28-10.82-3.73-7.53-5.59-11.29-6.1-13a59,59,0,0,1-1.95-14.29c-.16-4,.14-3.71,0-6.94-.26-6.17-1.54-10.82-3.6-18.18-2.55-9.07-3.62-10-3.2-13.74.23-1.95.77-3.71.14-6.24s-1.93-3.73-4.3-6.67c-3.72-4.61-6.78-8.42-8.46-13.6-.76-2.31-.82-3.6-2.09-6-.36-.69-.22-.32-4.3-5.69a4,4,0,0,0-1.66-1.53c-1.53-.63-2.79.37-3.61-.28s-.5-1.91-.42-2.5c.39-2.84-.44-5.73-.41-8.6a46.85,46.85,0,0,0-1.11-10.27q-7.5-29.28-15-58.56a9.23,9.23,0,0,1-1.39-1.81c-2.08-3.52-1.13-7.32-.83-10.41.48-5-1.17-4.36-1.67-12.21-.66-10.29,2-15-1.11-17.62-1.9-1.63-3.74-.55-5.69-2.78-2.17-2.48-1.88-6.11-1.8-7.08a10.58,10.58,0,0,1,1.52-4.85c1.6-2.55,3.34-2.68,5.14-4.3,4.19-3.8.22-8.16,4.3-15,1.77-3,4.07-4.75,4.72-8.61a10.26,10.26,0,0,0,0-3.6,11.14,11.14,0,0,0-2.36-4.86c-5.26-6.88-5.86-7.07-6.66-8.61-1-2-1.93-5.33-.42-10.82l43.44-68.28a57,57,0,0,0,5.27-8.05,19.41,19.41,0,0,1,4-5.83,9.5,9.5,0,0,1,4-2.49c2.27-.63,2.75.37,5.28,0,2-.29,3.38-1.21,6.24-3.06,2.07-1.33,3.1-2,3.75-3,.73-1.2.69-2.08.83-5.83.29-7.81.6-7.41.28-8.74-.57-2.38-1.58-3.75-1-5.83a5.71,5.71,0,0,1,1.25-2.22l22.89-30a6.28,6.28,0,0,0,.84-3.61c-.18-1.78-1.19-2.46-2.36-4.3-1.53-2.39-2-4.74-2.92-9.43a34.92,34.92,0,0,1-.69-4.72,29.4,29.4,0,0,1,1.11-10.13c3.83-27,6.16-37.51,7.63-40.94a29,29,0,0,0,2.08-5.69c.74-3,.59-4.66,1.67-7.36a16.89,16.89,0,0,1,2.08-3.74l1.11-36.92c.56-2.06,1.42-5,2.64-8.6,1.73-5,4.08-11,9.85-22.21,4.6-8.91,6.5-11,11-20.4,2.33-4.9,4.48-9.93,7.64-17.34,4.76-11.17,6.66-16.33,10.82-18.18a8.66,8.66,0,0,0,4.58-3.75,7.14,7.14,0,0,0,.69-3.75s-.41-9.12,1.67-24.15c.18-1.33.5-3.34,1.8-3.88.67-.28,1.77-.25,4.86,2.08a37.22,37.22,0,0,1,6.66,6.52l21.1-33a55.34,55.34,0,0,1,5.69-1c3.34-.38,5.11-.26,11.1-.41,6.69-.18,7.47-.41,8.32-.84,2.54-1.26,5.41-4.09,5.42-7.49a8.7,8.7,0,0,0-2-5c-2-2.79-3.64-2.42-4.71-4.58-1-1.94.19-2.61,0-6.93-.16-3.44-.91-3.37-1.25-7.91a33.66,33.66,0,0,1,0-5.69,31.89,31.89,0,0,1,.69-4.45H2068c.79-.93,2.18-2.54,4-4.44,5.93-6.1,9.21-7.67,11.8-12.49a22.78,22.78,0,0,0,2.08-5.69C2087.62,870.42,2086.4,865.69,2085.49,857.84ZM1509.28,1883.68c-.68,2-6.28-.11-12.62,3.47-1.94,1.1-1.86,1.39-3.61,2.22-4.92,2.32-7.64,1-12.63,2.64-3.33,1.1-2.5,1.83-6.38,3.47a31.37,31.37,0,0,1-13.74,2.22c-6.58-.33-7.44-2.31-13.33-1.81a33.71,33.71,0,0,0-7.91,1.81c-3.77,1.23-3.94,1.82-10.27,4.44-6.07,2.51-4.93,1.55-8.46,3.19-2.49,1.16-3.92,2-6.11,1.94a10.05,10.05,0,0,1-4.72-1.66c-2.61-1.44-5.85-1.66-12.35-2.08-10.3-.68-17.62-1.17-21.23,2.91a8.32,8.32,0,0,0-2.08,3.75c-.78,3.36,1.12,6.25.41,6.66-.32.19-.87-.32-2.49-1.67-2.64-2.18-4-3.28-5-3.74-1.47-.67-2.4-.46-5.27-.42-6.6.1-6.42-1-11-.56-3.47.3-5.92.51-8.32,2.23-1.47,1-1.45,1.59-4.58,4.16a28.44,28.44,0,0,0-3.47,2.91c-2,2.14-1.63,2.91-2.92,3.75-2.29,1.5-5.56.45-6.52.14-3.29-1.06-4.31-3.08-5.83-2.5-1.1.42-.9,1.63-2.49,2.78a7.56,7.56,0,0,1-3.47,1.11c-3.9.7-3.83,1.61-6.67,2.08-.35.06-7,1.09-8.88-2.08-.61-1.06-.46-2.2-.27-3.61.37-2.87,1.58-4.35,2.49-6.25,2.63-5.45-.26-8,2.08-10.41.86-.86,1.15-.42,10.55-1.94a66.51,66.51,0,0,0,6.66-1.66c2-.58,2.94-.91,3.75-1.81a7.06,7.06,0,0,0,1.53-4.3c.08-2.19-.82-3.1-.14-4,.43-.59,1.16-.72,2.63-1,2.38-.41,3.2.12,3.89-.55s.07-1.23.69-2.78c.49-1.19,1-1.16,2.09-2.91s.73-1.85,1.38-2.5c1.35-1.33,2.62-.42,4.44-1.53.61-.36.77-.64,3.06-4.16,2-3,2.42-3.69,2.63-3.61.44.18-.43,3.3-.55,3.75a32.68,32.68,0,0,1-5.69,11.8c-1,1.28-1,1-3.33,3.88-2.08,2.49-2.29,2.9-3.19,3.47-1.89,1.21-3,.77-3.75,1.94a3.08,3.08,0,0,0,.28,3.61c.27.25.62.41,2.22.56a23.81,23.81,0,0,0,3.33.14c7.21-.45,7.43-.1,9.85-.7,2.84-.69,2.67-1.21,5.55-1.8,3.51-.72,3.66.07,6.11-.56,3.92-1,4.28-3.2,8.33-4.16,2.34-.56,3.06,0,4.71-.28,2.68-.42,6.27-2.68,9.86-11.24.5.66,1.24,1.66,2.08,2.92,2.28,3.43,2.42,4.47,3.19,5.41,2.69,3.28,8.41-.48,19,.14,6.89.4,11.07,2.38,12.77.14,1-1.32.62-3.42.42-4.58-.72-4-3.46-5.12-2.92-6.94s3.67-3,6.11-2.36c2.88.71,2.81,3.49,6.1,4.44a7.47,7.47,0,0,0,5.42-.56c1.94-1.15,1.81-2.71,3.19-3,1.67-.41,2.68,1.68,6,3.89,1.45,1,5.07,3.34,9.57,3.19a9.43,9.43,0,0,0,6-1.81c2.44-2,1.58-4.16,4.44-7.77.71-.9,3.16-4,5.13-3.47,1.49.4,1.16,2.43,2.92,3.33s3-.36,7.08-1.24c3.67-.81,5.51-1.21,6.94-.42,3.31,1.84,2.07,8.2,4.58,8.46,1,.11,1.49-.66,4.44-2.22a19.47,19.47,0,0,1,5.13-2.22c1.41-.28,4,.32,9,1.53a5.49,5.49,0,0,1,2.64,1.25C1508.4,1881.08,1509.65,1882.57,1509.28,1883.68Zm5-.83c-1.33-.56-3.45-1.9-3.33-3.33s2.82-2.43,4.3-2.92c2.6-.85,4.78-.81,9-.69,7.57.21,6.43,1.27,9.72,1a4.08,4.08,0,0,1,3.19.69,2.9,2.9,0,0,1,.83,2,3.29,3.29,0,0,1-1.39,2.63c-2.25,1.57-4.91-1.77-9.57-1-1.55.27-1,.49-4,1.25C1519.54,1883.31,1516.89,1883.94,1514.28,1882.85Zm29.56,5.55c-1.36,1.17-2.47,1.26-4.86,2.08-3.57,1.22-3.22,1.74-5,1.94-.82.1-3.45.39-5.14-1.25-.62-.6-.92-1.46-1.52-3.19-.67-1.9-1.14-3.25-.56-3.88.45-.48,1.28-.29,2.78,0,4.39.85,6.61,1.26,7.77.69a6.28,6.28,0,0,0,2.63-3.47c.89-2.24.28-3.73,1.11-4.16,1-.51,2,1.55,4.17,1.66s2.58-2.11,5.55-2.49a8.89,8.89,0,0,1,5.41,1.38c.9.5,1.39.78,1.67,1.39.88,2-1.77,4.68-1.95,4.86a8.52,8.52,0,0,1-4,2.22c-3.05.7-4.64-.73-6.52.55C1544.58,1887.27,1544.87,1887.51,1543.84,1888.4Zm22.48,6.66c-.25.71-1.37,1.17-3.61,2.08a10.32,10.32,0,0,1-2.36.7,4.76,4.76,0,0,1-2.22,0c-.81-.25-1-.64-1.66-1a5.18,5.18,0,0,0-3.19-.13c-1.09.12-3.84.44-5.83-.56-1.62-.81-3.31-2.79-2.92-4.58.46-2,3.39-2.82,3.75-2.91,2-.52,2.59.29,5.27-.14,1.72-.28,2.73-.44,3.47-1.25,1.27-1.4.13-2.94,1.39-5.55a5.08,5.08,0,0,1,2.36-2.64,3.9,3.9,0,0,1,4.3.56,3.61,3.61,0,0,1,.84,2.36c.1,1.64-.63,2.21-1.11,4.16a9.77,9.77,0,0,0-.14,4.72C1565.26,1893.35,1566.73,1893.92,1566.32,1895.06Zm23-18.46c-2.18.54-2.89-.63-6.66-1-2.69-.24-2.62.33-7.22.42-5.88.12-7.22-.79-7.91-1.53s-1.36-1.9-1-2.77c.51-1.14,2.72-1.08,5.69-1.11,7.62-.08,4.63-.57,10.68-.42,7.12.18,10.68.26,11.11,1.53C1594.57,1873.2,1592.1,1875.93,1589.36,1876.6Zm74.8,33.73c-.71.62-2,.18-2.08.13-2.49-.91-2.83-5.54-2.92-6.66-.41-5.55,2.12-8,.56-10-.48-.6-1.85-1-4.58-1.66-2.57-.67-3.1-.57-6.11-1.25a40,40,0,0,1-5.41-1.53c-2.1-.78-2.16-1.07-4.72-2.22-3.73-1.68-5.82-2.62-8.6-2.78-2.52-.13-2.78.53-5.14.14-2-.32-2.29-.86-5.13-1.94a28.43,28.43,0,0,0-7.63-1.94,20.55,20.55,0,0,0-5.83.14c-4.14.72-5.2,2.32-7.5,1.66a5,5,0,0,1-3.33-3c-.55-1.7.33-3.26,2.08-6.39,1.24-2.2,2-3.44,3.47-4.57.39-.3,3.48-2.61,5.55-1.53.81.42,1.05,1.13,1.53,2.08a18.58,18.58,0,0,0,6.38,7.08c2.35,1.43,2.46.07,6.11,1.8s4.74,3.58,7.22,3.33c1.2-.12,1.17-.58,4-1.39,2.15-.6,3.23-.9,4-.69,2.23.6,1.77,3.38,4.44,6.25a13,13,0,0,0,7.91,3.74c2.8.23,3.22-.85,6.38-.55,1.55.14,4.48.42,6.11,2.36s.29,3.58.83,8.32C1662.52,1905.5,1665.6,1909.07,1664.16,1910.33Z"/><path d="M1036,1955c0-1-2.4-2.09-7.18-4.17-4-1.72-5.2-2-5.93-1.35-.35.28-.64.8-.63,3.23,0,3.84-.14,5.76.73,6.55,1.38,1.25,3.86.47,6.66-.41C1031.67,1958.2,1036,1956.82,1036,1955Z"/></g></g></svg>