<svg xmlns="http://www.w3.org/2000/svg" viewBox="0 0 3177.49 1253.74"><g id="Layer_2" data-name="Layer 2"><g id="Jamaica"><path d="M2577.16,446.64c3.61.68,4.44,3.93,13.79,17.68,2.61,3.84,4.25,6.09,6.6,9.32,5.94,8.16,8.2,10.66,10.88,13,2.94,2.58,5.08,4.43,8.54,5.64,1.33.46,1.87.48,9.71,1.55,7.62,1,8.33,1.18,9.13,1.36,5.56,1.27,5.44,2.2,8.55,2.33,1.26.05,7.45.15,10.29-3.69,1.38-1.86.73-3,2.14-4.08,2.32-1.82,6.51-.67,9.13.78,3.65,2,3.17,4,7,7.18a22.77,22.77,0,0,0,9.9,4.47c3.45.81,9.65,2.25,12.43-.78,1.78-1.93.84-4.23,2.33-4.85,2.65-1.1,7.74,5.25,8.35,6,2.75,3.43,3.86,6.38,4.28,6.21s-.56-3.83-1.75-11.07c-.44-2.68-.54-3.62,0-4.66,1.07-2,3.54-2.34,7.57-3.49,5.66-1.62,5.79-2.43,9.13-3.3.73-.2,11.16-2.77,20,2.13,6.5,3.61,9.54,9.81,13.4,17.68,4.46,9.1,4.31,14.07,9.51,16.89,2.79,1.51,4.84,1.17,8.55,3.89s4.59,5.19,6.41,5c3.12-.25,3.7-8.89,5-8.74,1,.1,2.1,4.52,1.94,8.54,0,.94-.13,1.41.2,1.94,1.26,2.12,7.15,2.42,10.09-.58s1.72-7.9,1.56-8.54c-1-4-3.84-6-3.3-6.61s3.29,1.66,8.54,2.92a30.54,30.54,0,0,0,6,.77c4.61.19,5.61-.7,9.91-.39,3.46.26,5.2.39,6,1.56,2,2.86-3.25,8.07-1.17,10.87,1.15,1.54,3.79,1.4,4.47,1.36,3.06-.16,3.48-2.2,7.19-3.3a10.86,10.86,0,0,1,7,0c3,1.21,2.95,3.38,5.05,3.69,3.1.46,4.18-4.14,7.77-4.46,2.93-.27,4,2.64,10.68,7.38,4.47,3.17,7.47,5.23,9.9,4.27,2.78-1.1,1.68-4.88,4.67-7,3.69-2.61,9.83,0,15.34,2.33s5.29,3.41,12.82,7c6.71,3.19,7.5,2.63,9.51,4.66,2.95,3,2,4.92,5.83,12.62,3.74,7.46,5.94,8.18,6.6,8.36,1.76.46,3.77-.28,7.77-1.75,5.76-2.12,6.35-3.37,8.16-2.92,2.46.62,3.71,3.52,6.21,9.33,1.71,3.94,2.56,5.91,2.72,7.77.65,7.17-4.73,9.8-3.49,14.76.26,1.06.77,2,8.74,8,5.55,4.17,8.78,6.35,13.2,10.29,5.06,4.52,6.33,6.57,6.22,8.74-.12,2.36-1.78,3-2.53,5.63-1,3.61.82,6.91,3.11,11.08,10.13,18.37,9.63,17.84,11.07,19.81a104.33,104.33,0,0,0,10.88,12.62c11.08,10.85,17.28,11.78,21.75,21a50.52,50.52,0,0,1,3.11,8.54,94.87,94.87,0,0,1,2.13,13.79c.34,4.58.12,6.22,1.56,7.57,1.63,1.53,3.2.66,6.8,2.34a11.18,11.18,0,0,1,5.24,4.07c2.12,3.53,1.46,9-1,10.3-1.63.9-3.12-.56-4.86.58-1.9,1.24-1.94,4.16-1.94,4.47,0,4,3.83,6.74,5.24,7.77,3.16,2.29,4,1.25,5.25,2.72,3.55,4.31-4.23,13.09-.58,18.64.64,1,3.1,4.08,3.1,4.08a22.35,22.35,0,0,0,4.08,8.74c1.3,1.65,2.17,2.25,5.05,4.66,6.72,5.62,10.13,8.51,12,12,1.52,2.8.68,2.93,2.33,7.77a51.08,51.08,0,0,0,12.43,19.42c3.77,3.65,6,5.85,9.91,7s6.46.27,7.57,1.95c1.39,2.09-1.52,4.92-4.08,11.65a49.74,49.74,0,0,0-3.1,16.9c-.1,3.95-.2,7.62,1.16,12,2.6,8.46,9.67,16.92,18.45,19.22,2.49.66,2.29.08,10.3,1.36,8.2,1.32,8.25,1.91,11.07,1.75,6.46-.36,8.16-3.55,12.23-2.13,2.67.92,4.41,3.14,5.44,4.46a19.16,19.16,0,0,1,3.11,6.41c1.95,6.59-.17,9,1.75,11.07,2.67,2.83,7.53-1.11,11.46,1.56,4.64,3.15,4.77,13.35,1.16,15.73-2.07,1.36-4.09-.7-6.21.77-3.32,2.31-.66,8.87-3.69,10.88-1,.65-2.31.65-6.41-.78-10.26-3.56-11.59-6.87-16.32-7-4.15-.1-3.33,2.46-11.65,5.25-7,2.33-9.11,1.06-15.15,4.07a22.77,22.77,0,0,0-7.19,5.25c-3.23,3.77-2.13,5.6-4.27,7.77-4.3,4.35-10.83-1-22,1.94-3.71,1-8.57,2.23-12.23,6.41-3.29,3.75-3.41,7.33-8,10.1-1.29.78-3.89,2.36-6.41,1.55-2-.64-2.3-2.24-5.05-4.08a18.76,18.76,0,0,0-5-2.13c-1.22-.33-5.26-1.24-14.76,2.33a56.74,56.74,0,0,0-17.68,9.9c-5.56,4.65-4.57,5.68-8.15,8-8.45,5.38-22.74,5.26-26.81-1.36-3.41-5.57,1-14.74,3.31-19.62,3.42-7.15,6.79-9.22,5.82-10.88-1.79-3-16.18-.95-23.3,8-1.89,2.36-2.95,5.26-5,11.07-3.86,10.62-2.9,13.57-5.83,17.87-4,5.9-11.1,10.52-14.57,8.73-2-1-1-3.22-3.3-6.21-3.3-4.27-9.33-4.94-15.54-5.63-8.21-.92-8.32.93-12.62-.59-5.69-2-6.25-5.49-12.24-7.38-3.81-1.2-5.24-.29-9.71-.58-10.26-.65-11.51-6-21-8-6.71-1.42-12.25,0-23.31,2.91-9.51,2.48-8.87,3.68-16.31,5.63-16.38,4.31-19.35-1.5-37.88,2.34-4.89,1-10,2.51-18.25,2.91-6.31.31-6.12-.43-10.68,0-8.59.8-11,3.57-21.76,6.6-10.21,2.88-9.47.79-14.95,3.11-9.63,4.07-9,9.27-19,14.57a46,46,0,0,1-18.26,4.85c-7.33.64-13.11,1.14-18.65-1.94-7.31-4.07-5.15-9.36-13.2-16.12-4.54-3.81-10-5.52-20.78-8.94-7.36-2.31-11-3.47-15.93-3.88-9.77-.81-12.24,2.08-24.86,3.3-9.91,1-16.2,1.58-23.31-1.16-10.37-4-16.06-12.65-19.61-18.07-5.8-8.82-4.77-12.21-9.91-22.52-4.6-9.26-9.52-14.73-18.45-24.67a181.38,181.38,0,0,0-31.85-28c-7.52-5.34-11.38-8-16.12-9.32-10-2.69-14.32,1.08-24.47-3.11-3.63-1.49-9.77-4.74-11.46-5.63-4.07-2.15-5.6-3.12-8.74-4.47a47.28,47.28,0,0,0-10.1-3.3c-6.16-1.08-11.38.49-21.56,3.69-8.75,2.75-8.84,3.61-13.2,4.86-19.25,5.5-28.85-6.32-41.57.58-2.4,1.31-.67,1-12.43,10.88-7.8,6.57-11.75,9.87-13.79,10.48-8.63,2.59-12.17-4.71-29.13-8.35-1.64-.35.13.09-22.92-1.75-8.26-.65-16.59-.14-24.86-.77-3.66-.28-7.3-.65-11.07,1.36-4.17,2.22-5.11,5.56-7.38,5.24-2.9-.41-5.88-6.52-4.07-9.71,2.39-4.24,12.26-1.59,14.56-6.41.28-.58.55-1.5,1.56-3.69,1.12-2.46,1.68-3.69,2.13-4.08,1.86-1.6,6.35.2,14.18,4.86,10.87,6.46,11,8.19,16.51,9.9,2.29.71,10.27,3.17,14.95-.58,1.26-1,1.34-1.71,2.92-2.72,4.21-2.69,9.48-1.38,10.29-1.16,7.76,2,9.36,9.46,12.62,8.74,3.48-.78,1.46-9.17,7.19-13.79,2.58-2.09,6.61-2.39,14.57-2.92,4.95-.32,6.75-.16,13.4-.19,18.62-.1,20.71-1.51,27.58.39a22.48,22.48,0,0,0,6,1.16c5,.15,8.94-1.93,13-4.08s6.14-3.24,6.8-4.66c2.34-5-4-13.78-10.49-18.64-8.17-6.09-17.06-6.38-29.91-6.8a122.06,122.06,0,0,0-27.39,2.52c-6.38,1.24-5.79,1.58-10.09,2.34-21.71,3.82-40.35-4.21-47.78-8.36-4-2.22-8.35-5.24-8.35-5.24a120.37,120.37,0,0,1-11.07-8.74c-12-10.41-15.9-16.21-18.45-15-1.44.7-1.53,3.18-1.56,3.88-.1,2.74,1.51,4.61,6.22,10.29,3.59,4.34,5.33,6.5,5,6.8-.55.59-7.09-7.27-11.85-5.63-2.64.91-2.29,3.88-5.44,8.35-2.32,3.3-5.89,5.44-13,9.71-8,4.8-12.07,7.19-15.34,6.6-5.87-1-9.55-7.47-10.1-7s2.84,3.36,3.1,8a12.65,12.65,0,0,1-2.13,7.38c-2.51,4-5,3.47-7.19,6.21-4,5,1.73,10.14-.78,19-2.19,7.82-7.81,8.15-7.57,14.57.11,3,1.42,4.44,1.75,10.49.21,4-.26,5.54-.78,6.6-1.13,2.29-3.83,5.26-6.6,5-4.91-.36-5.67-10.34-9.91-10.49-3.85-.13-6.83,8-7.18,8.94-1,2.59-2.43,6.58-.59,8.93,2.44,3.12,8.67.78,9.52,2.91.57,1.45-2.05,3.13-4.27,6.41-3,4.41-2.66,7.89-3.69,12.43-2.49,11-8.77,10.09-14.37,24.09-1.84,4.57-1.77,6.17-4.67,13-3,7-5.11,10.23-8.54,12-2.71,1.43-3.51.56-6,1.55-8.62,3.41-5.42,16.13-13.6,21.76-6.52,4.49-11.76-1.42-20.58,3.88-5.51,3.31-4.48,6.22-10.3,9.52-4.62,2.62-12.82,5.08-19,1.75-2-1.06-1.79-1.65-10.68-12-4.65-5.42-5.4-6.09-6.8-6.6-5.22-1.91-12.77.75-15.93,5.63-2,3-1.19,5.28-3.3,6.41-2.77,1.49-5.12-1.82-9.52-1.16-4.88.73-5.33,5.32-8.74,5.24s-4.23-4.66-11.45-12.82c-3.49-3.93-5.23-5.9-7.19-6.79-5.16-2.35-10.82-.34-22.14,3.69-6.25,2.22-9.38,3.33-12.24,5.24s-4,3.31-5.82,3.11c-3.66-.4-7.29-6.4-6.41-11.27.67-3.72,3.47-3.93,3.69-7.38.27-4.32-4-6.31-2.92-9.32a5.42,5.42,0,0,1,4.86-3.11c3.41,0,5.15,3.92,6.6,3.3,1.8-.76.23-7.24,1.36-7.57s3.47,6.49,4.86,6.21,1.52-7.22.58-14.17c-1.24-9.18-2.46-18.24-9.13-25.06s-10.66-3-18.06-10.49c-7.06-7.09-7.12-14.23-12.82-15.14-3.41-.55-7,1.43-9.71,2.91-5.41,3-6.65,6.17-8.54,5.63-3.3-.93-.53-10.84-5.44-14-3.61-2.31-9.69.1-13,3.1-.92.84-4.28,3.87-4.07,7.77.22,4.29,4.58,6.42,3.88,7.58s-6.65,0-11.65-3.11c-4.18-2.62-4.62-4.61-7.19-4.85-3.48-.33-4.89,3.11-9.13,5.82-7.2,4.61-11.87.26-22.53,3.3-5.55,1.59-9.09,4.15-14.37,8-6.92,5-6.84,6.85-16.7,16.31-10.85,10.42-13.72,10.84-15.73,16.51-1.83,5.13,0,6.09-2.14,14-2,7.36-3.73,6.69-6.21,14.76-2.38,7.72-1.46,10.3-4.67,14.76-2.77,3.86-4.27,3-5.63,6.22-2.06,4.82-1.26,12.9,2.92,16.12.78.6,2.25,1.48,2.13,2.52-.15,1.34-2.73,1.49-2.91,2.72-.14,1,1.23,2.14,5,4.08a51.6,51.6,0,0,0,8.16,3.5c11.31,3.25,16.21,2.5,16.7,4.46s-3.42,5.37-7.77,6.22c-5,1-6.93-2.24-14.76-4.47-3.72-1.06-13.69-3.89-20.39,1.17-.74.55-4.2,3.16-4.86,7.38-.75,4.81,2.55,9.13,8.35,16.51,5.41,6.88,8.17,8.57,7.58,11.46-.65,3.17-4.41,3.24-6.41,8a13.28,13.28,0,0,0-.59,8c.91,3.13,3.64,6.19,14,10.29,15.26,6,23,4.81,24.28,8.94s-5.91,6.46-6.41,14c-.56,8.3,7.5,15.51,9.71,17.48,6.52,5.84,10.79,4.95,14.76,11.07a21.57,21.57,0,0,1,3.3,10.3c.6,9-4.7,15.86-8.16,20.19-9.65,12.09-22.33,16.79-29.71,19.43-5.73,2-20,6.95-37.88,4.85-1.7-.2-41.85-5.46-63.5-35.73-5.41-7.56-13.84-22.51-23.89-22.15a42.92,42.92,0,0,1-12-.58c-3.55-.71-6.63-1.37-8.74-3.69-3-3.31-.9-6.52-2.14-12.23-2.4-11-12.78-10.23-18.84-24.28-1.24-2.88-1.87-5.39-4.47-7-3.5-2.17-6.58-.19-12.62-.78a26.3,26.3,0,0,1-12.24-4.47c-5.79-4.3-5-9.09-10.1-16.31-3.22-4.54-5.32-5.13-13-11.27-15.74-12.55-26.46-25.62-32.05-32.43-7.28-8.88-5.37-8-8.35-10.68-9.82-9-17.76-7.32-37.48-16.7-5.9-2.81-4.6-2.68-14.76-7.77-15.42-7.73-16.31-7-23.11-10.88-14.13-8.1-13.38-13.12-25.64-19.62-8.61-4.56-16-5.8-23.11-7a113.77,113.77,0,0,0-46.61,2.53c-20.38,5.29-22.3,11.48-43.31,14.76-8.51,1.32-11,.73-16.71,3.11-13.5,5.55-16.06,15.33-26.8,15.92-3.8.21-6.81-1-12.82-3.3-8-3.1-12.45-6.8-19-11.46-4.07-2.88-13.23-9.37-22-13.79a93.92,93.92,0,0,0-33.21-9.52c-2.94-.26-12.68.6-32,2.34-23.06,2.06-27.39,2.64-35.54,1.35-7.4-1.16-9.28-2.5-17.86-3.3a102,102,0,0,0-23.12.59c-17.74,2.41-16.67,6.75-29.13,7.76-10.9.89-10.59-2.53-34.57-4.07-7.59-.49-12.37-.46-17.87.38-9.1,1.4-9.14,3.31-17.48,4.86-14.5,2.69-17.7-2.5-27.77,1.36-8.08,3.09-11.49,8.53-14.57,6.8-2.18-1.24-1.21-4.41-4.27-12-1.33-3.32-2.2-5.49-3.88-7.58-4.43-5.49-9.64-4.44-16.32-8.35s-4.85-6.83-11.85-13.21c-7.86-7.17-11.48-4.71-25.63-13-7.58-4.45-12.73-7.54-17.09-13.79a43.11,43.11,0,0,1-6.8-17.48c-2.35-12.84,1.93-17-1.75-22.92-1.76-2.85-3.73-3.5-18.26-8.93-18.22-6.82-22.91-8.7-28.16-13.4-2.66-2.38-9-8.06-8-13.79.49-2.71,2.35-3.93,2.52-7.38.2-3.88-1.95-6.67-3.1-8.55-5-8.08-3.35-18.53-2-27.58.73-4.69,1.15-3.59,5.83-19.22,3.38-11.29,5.07-16.93,5-18.84-.16-13.72-13.14-27.36-26.41-32.44-10.27-3.93-11.59.76-23.11-4.08-7.62-3.19-12.85-7.66-22.92-8.74-2-.21-3.07-.17-6.22-.58-8.91-1.17-11.64-3-15.92-3.69-9.11-1.46-10.46,4.61-27,7.58a56.35,56.35,0,0,1-15.15,1c-5.67-.45-15.25-1.21-21.56-7.77-2.49-2.59-1.58-3.08-6.21-12.82-6.27-13.17-8.14-12.72-11.07-21.17-2.72-7.83-1.54-9.45-4.66-14-1.73-2.51-2.68-2.86-8.94-9.91-3.54-4-5.33-6-5.82-7.38-2.13-5.83,2-9,.38-14s-6.44-3.72-12.23-9.52c-8.41-8.42-4.93-18-12.82-22.14a75.52,75.52,0,0,0-8.55-3.5c-3.18-1.1-3.55-1-6-1.94-5.5-2.05-5.47-3.15-9.32-4.47-5.56-1.9-7.06-.09-10.87-2.13-2.46-1.31-3.72-3.06-6-6.41-6.21-9-7.56-11.46-9.51-14.18-6.66-9.25-10-7.16-16.51-16.7-2.87-4.21-5.66-8.42-5.24-13.79.22-3,1.41-5.94,2.91-9.71,1.87-4.7,2.83-5.6,3.49-7.58,2.19-6.53-2.77-13.48-6-18.84-8.95-14.76-4.3-16.44-11.84-28.93-13.63-22.58-36.44-29.76-43.7-32.05-9.75-3.07-18-3.46-20-.19-1.05,1.72,0,3.85-1.74,5.82a7.67,7.67,0,0,1-8.16,1.56c-3.94-1.67-3.07-6-7.19-8.74-1.85-1.22-3.61-1.39-9.32-1.36-8.74,0-13.11.07-16.51.58-8.81,1.33-10.64,3.3-25.64,6.6-3.85.85-6.8,1.4-10.29.39-4.19-1.21-4.35-3.29-9.13-4.66-1.45-.42-7.26-2.08-11.07.78-1.8,1.35-1.58,2.53-2.91,2.91-3,.87-5.62-4.72-10.49-7.57-4.06-2.38-8.05-1.9-17.09-.59-16.1,2.35-24.15,3.52-27.19,4.28-24.39,6.05-37.21,9.23-45.45,18.45-1.51,1.69-4.81,5.75-10.29,7s-10.56-1-11.85-1.56c-7.68-3.47-9.38-9.86-15.34-9.71-2,.05-1.93.75-3.69.59-6.34-.58-10.28-9.89-10.68-10.88-2.14-5.22-.81-7.1-3.5-10.68-1.65-2.19-3.49-3.28-6.21-4.86A40.72,40.72,0,0,0,138,463.35c-6.06-1-10.57-.42-15.93.19-16.52,1.88-24.77,2.88-26.41,2.72-8.31-.78-8.08-3.64-29.52-13.4-7.94-3.61-14.9-6.37-22.34-9.32-19-7.53-21.74-7.61-27-12a45.85,45.85,0,0,1-13.2-19.43C1,405.22-1.75,398,1.44,390.52c3.46-8.11,11.67-11.32,12-11.46,6.46-2.42,9.08.64,15.93-2.14a24.17,24.17,0,0,0,10.49-8.54c3.25-4.64,3.87-9.1,4.66-15.93,2.35-20.28,3.5-30.65,2.52-41.76a97.65,97.65,0,0,0-2.33-14.76c-.38-1.58-2.68-6-3.88-12.23-.2-1-.78-4.21.19-4.67s2.75,2.72,4.47,2.34,2.25-4.1,2.52-6c.58-4.06,1.16-8.11-1-11.45-3.21-5.06-9.5-3.6-10.29-6.8-.66-2.67,3.59-4.16,10.49-12C52.62,238.94,53,236.43,57,235c.45-.17,6.48-2.36,10.29.58.93.71,1.17,1.3,6,11.26a8.12,8.12,0,0,0,3.3,3.89,7.22,7.22,0,0,0,3.89.78,9.54,9.54,0,0,0,7.77-6.22c1.73-5.35-4-9-2.14-12.43,1.92-3.6,8.8-.74,12-5.05,1.91-2.54,0-4.15,1.75-11.26a39.51,39.51,0,0,1,3.3-8.55c2.15-4.31,3.22-6.47,5.44-7.77,2.38-1.4,4.74-1.19,8.93-.77,7.23.72,8.32,3.9,13.21,3.3,3.74-.46,4.74-2.4,7-1.56,3,1.12,2.22,5.36,5.25,6.61,2.31,1,5.9-.17,6.79-2.14s-1.25-4.52.19-8.52v0s-.77-1-2.23-3L145,190.28c-2-2.87-2.06-7.89-.59-11.66,2.67-6.82,10.17-8.93,12.24-9.51a41.72,41.72,0,0,1,9.91-1.17c4.57-.08,7.53.49,8-.58.55-1.37-4-3.08-3.89-5.63.18-3.29,7.87-2.89,12.05-8.55,3-4.1.16-5.92,3.3-12.82,1.08-2.37,4.64-9.24,11.46-11.84.69-.27,2.27-.63,5.43-1.36,8.43-2,9-1.39,10.3-2.53,3.59-3.07,1.11-8.33,4.66-10.49,2.28-1.38,4,.38,6-1.16,2.9-2.17,1.12-6.85,3.5-8.16,1.45-.8,2.88.53,6.6,1.94.68.26,7.18,2.68,13.4,2.14,5.52-.48,5.52-2.84,10.29-3.3,5.62-.54,10.09,2.28,14.76,5.24a63.83,63.83,0,0,1,14.77,13.4,28.1,28.1,0,0,0,7.18,7.38c2.07,1.39,4.84,3.2,7.77,2.53,2.29-.53,3.88-2.39,5.63-5.44,3.27-5.7,2.65-9.21,6-19.42,1.38-4.18,2.17-5.62,3.69-6.6,2.58-1.67,4.44-.17,8.74-1.75,3.56-1.32,3.57-2.81,6.41-3.5,2.23-.54,3.59,0,8.94,1.75,8.59,2.72,7.05,1.82,14.17,4.27s5.93,2.41,8.55,3.11c6.21,1.65,8.38.66,17.28,1.36,6.45.51,6.11,1.09,15.15,2.14,6.79.78,7.17.47,15,1.16,19,1.69,26.25,4.36,32.43,0a11.13,11.13,0,0,1,3.11-1.94c3.71-1.3,6.42.84,15.15,2.33,1.25.21,1.88.32,2.72.39a23.49,23.49,0,0,0,10.29-1.56c3-1.09,11-1.57,26.8-2.52,9.34-.56,15-.59,16.71-4.08,1-2.1.14-4.38,1.74-5.44,1.3-.85,3.35-.06,7.39,1.56a58.81,58.81,0,0,1,7.18,3.49c1.29.73,3.07,1.73,5.05,3.11,6.42,4.46,6.39,6.89,10.68,8.54,1.17.46,5,1.93,7.58.2,2-1.31,1.41-3.26,3.1-4.47,2.57-1.83,6.76.52,11.85,2.53,4.87,1.91,10.11,2.68,15.15,4.08,17.17,4.75,18.18,4.91,20.2,4.46,5.21-1.15,9.42-4.57,12.24-2.52a32.94,32.94,0,0,1,3.1,3.3c1.94,2.17,2.31,2.82,3.3,3.11,1.8.51,3.61-.76,4.47-1.36a11.42,11.42,0,0,0,4.27-6.8c.24-1,1.51-7-1.74-10.29-2.61-2.66-5.69-1.11-15-2.53-5.88-.9-10.85-1.66-11.46-4.08-.68-2.69,4-7.57,8.94-8s6.49,4,13.79,4.66a15.54,15.54,0,0,0,7.77-1c3.94-1.67,7.62-5.48,8.54-9.91,1.3-6.25-4.12-8-6.41-18.25a33.87,33.87,0,0,1,.78-17.68,33.94,33.94,0,0,1,7-11.65c5.81-6.52,10.85-7.87,31.85-17.09C691.4,17,697,14.54,700.24,13,710.57,7.93,714.12,5.52,721,4c6.36-1.38,9.86-.76,17.48-.58C761.27,4,762.69-.87,782.2.14c4.87.25,11.79,1.4,25.63,3.69C818.78,5.64,823.48,6.68,836,9.07c28,5.34,42.2,8,54.39,8.74,14.65.86,14.24-.59,25.63.78,15,1.8,29.11,3.51,39.82,13.21,2.58,2.33,5.12,5.28,10.48,8.93,3.6,2.44,8.54,5.74,15.35,7.38,4.4,1.06,8.88.78,17.67.19,10.25-.68,19.25-2.08,19.62-2.13,13.32-2.09,15.32-3.62,19-1.75s2.57,3.8,10.1,10.49a49,49,0,0,0,9.13,6.6,32.35,32.35,0,0,0,8.54,3.5c1.5.34,12.82,2.93,18.46-2.92,3.66-3.81,1.74-7.9,4.85-9.32,4.19-1.91,11.45,3.77,14.57,6.22,3.84,3,4,4.23,6.41,4.85,3.71,1,5.86-1.34,12.43-3.88a61,61,0,0,1,15.92-3.69c4.47-.53,4.28,0,13.79-.39,5.09-.19,5.48-.35,15.54-1,13.41-.84,11.41-.48,17.67-1,12.7-1,13.82-1.9,17.87-.78,5,1.39,4.63,3.14,12.62,7.19,5.43,2.74,10.54,5.33,17.1,5.82,1.18.09,1.19,0,18.25-2.33,6.66-.92,10-1.33,12.82.58,2.5,1.73,2.49,3.72,5.63,5.44a13.82,13.82,0,0,0,8,1.36c5.58-.46,7.79-3.21,12-5,8.86-3.83,18.58-.17,20.58.58,5.64,2.13,12.67,6.89,19.43,11.46,1.46,1,4.17,2.86,7,2.14s3.27-3.16,5.44-5.24c5.1-4.9,14.3-3.14,16.51-2.72,9,1.72,8.07,6.77,18.83,9.71,4.51,1.23,9.12,1.55,10.1,4.46.64,1.89-.79,3.24,0,5.64s3,3.57,5,4.66c2.22,1.19,8.93,4.78,13,1.55a6.81,6.81,0,0,0,2.52-5c0-4.1-4.34-5.93-3.69-7.57s4.68-1.05,15.93-.2c7.81.6,5.83.38,10.48.78,10.4.89,15.64,1.35,17.48,2.14,3.41,1.45,2.44,2,13.21,8.74,3.14,2,4.94,3,7.58,3.3a17.88,17.88,0,0,0,9.32-1.75,26.29,26.29,0,0,0,5.63-3.5c8.26-5.91,21.13-4.53,27.19-3.88,5.29.57,7.37,1.51,10.68.19s6.46-4.26,8.35-6c3-2.77,2.84-3.33,4.28-3.88,2.73-1.06,5,.34,11.07,2.33,0,0,1.48.48,8.35,2.33a60.39,60.39,0,0,0,17.67,1.75c16.53-.09,22.94,6.41,55.16,10.87a173.5,173.5,0,0,1,19.62,3.89c11,2.83,15.77,5.21,19.42,9.32,3.52,4,1.73,6.9,5,9.13,4,2.7,7.3-.26,14.76,2.52a40.72,40.72,0,0,1,6.8,3.5c4.88,3,5.08,4.19,7.76,5.05,4.19,1.34,8.23-.14,10.49-1,5.77-2.12,5.86-4.87,10.1-5.63,1.66-.3,3.47-.21,11.07,2.91,10.13,4.16,11.9,4.63,13.4,6.22,2.42,2.55,1.59,3.87,4.08,7.76a29.08,29.08,0,0,0,9.52,8.94c8.24,5.28,12.41,3.05,24.66,7a113.49,113.49,0,0,1,26.22,12.82,65.62,65.62,0,0,0,9.52,5.24c3,1.37,4.6,2.06,6.41,2.14,3.7.16,4.58-1.77,10.88-4.08a59.37,59.37,0,0,1,9.9-2.52,91.6,91.6,0,0,1,9.32-1.36c15.19-1.53,22.78-2.29,30.88-4.08,6.91-1.53,11.39-2.52,17.29-5.05,6.9-3,8.69-5,13.59-5.25s5.93,1.58,14,3.31,7.9.09,14.18,1.55a57.62,57.62,0,0,1,20.58,9.9c3.81,3.07,5.94,5.77,8.94,5.25,3.29-.57,3.69-4.36,7-4.86s5.09,3.12,9.71,5.44c5,2.49,8.44,1.07,14.37,1.17,12.68.21,13.11,7,27,8.93,3.69.52,13.37,1.87,22.92-2.72,4.49-2.16,5.56-4,13.2-8.16a95.32,95.32,0,0,1,13.21-6c12.33-4.23,23.47-2.7,37.48-.77,10,1.37,7.53,2.13,18.45,3.69,9.16,1.3,14.24,1.25,16.32,4.85,1.48,2.56.71,5.68,0,8.55s-1.59,3.79-6,11.84c-1.65,3-2.47,4.5-2.72,5-1.33,3-3.64,8.13-2.91,14.18.82,6.88,5.14,11.41,8.35,14.76,2.48,2.6,4.28,4.48,7.38,5.63,3.71,1.38,5.23.21,11.07,1.56,2.76.64,2.21.85,7.57,2.52,6.77,2.11,7.53,1.73,10.1,3.11s3.37,2.6,7,6.22a94.47,94.47,0,0,0,9.91,8.93c5.3,3.95,14.72,9.15,19.81,12.82a4.73,4.73,0,0,1,2.13,2.91c.27,1.66-1.38,2.37-1.16,3.5.33,1.72,4.31,1.82,9.32,3.3a58.25,58.25,0,0,1,8.74,3.69c6.78,3.22,7.21,4.34,11.27,5.44,3.77,1,4.48.33,6.79,1.36.28.12,6.06,3,7.38,8.93.89,3.94-.77,6.71.59,7.58,1.63,1,5.08-2.33,5.82-1.56.58.6-1,3.05-1.94,4.47-2.3,3.53-3.54,4-4.85,6.8-1,2.07-1.48,3.11-1.17,4.27.64,2.42,3.73,2.28,9.13,6,3.74,2.59,4.46,4.19,4.66,4.66,1,2.38,0,3.56.58,5.83,1,3.75,4.55,3.38,7.19,6.8,4.3,5.56-1.11,11.68,3.49,18.83,2.11,3.27,3.73,2.75,4.28,5.25.5,2.28-.48,4.42-7,14.95-2.22,3.58-3.16,5.05-2.92,5.25.44.35,4.71-3.13,8.35-7.77,2.26-2.88,3.25-4.88,4.47-4.66s1.07,2.83,3.5,5.44a12.88,12.88,0,0,0,4.66,2.91,18.74,18.74,0,0,0,8.35,1.94c4-.17,4.72-2.11,8.93-3.5,6.76-2.22,8.59,1.54,14.38-.19,7.33-2.19,8-9.31,13-9.13,2.74.1,3.05,2.24,8.74,7,5.29,4.43,10.16,8.49,16.7,9.33,4.68.59,6.87-.89,9.71,1.16s2.85,5.14,5.44,5.83c1.59.42,2.86-.42,5.83-2.14,7-4.07,10.61-6.12,13.79-6.6a18.45,18.45,0,0,1,8.93,1c3.64,1.35,3.82,2.82,7,3.88,4.26,1.43,6-.52,10.88-.19,5.67.38,9.8,3.44,12.23,5.24,5,3.72,4.24,5.73,10.69,11.66,4.68,4.3,5.48,3.6,8.15,6.79,4.36,5.22,2.73,7.68,6.22,12.82,3.8,5.62,6,3.1,15.92,11.85a111,111,0,0,0,10.49,8.74c2.73,2,4.13,2.95,5.83,3.5,4,1.28,5.83-.16,13.79-1,9.62-1,11.5.64,12,1.17,2.4,2.37,2.08,6.65,2.52,6.6s-.54-4.21,1.56-6.79c1.54-1.9,4.1-2.14,6.41-2.33,16.55-1.37,17.15-1.3,19-1.75C2572.66,450.25,2572.83,445.84,2577.16,446.64Z"/><path d="M1791.16,1058.82c-1.52-.78-6.34,2.7-5.63,5.63A3.47,3.47,0,0,0,1789,1067c2.18-.37,2.66-4.14,2.72-4.66C1791.83,1061.57,1792.12,1059.32,1791.16,1058.82Z"/><path d="M1893.51,971c-6.87-4-16.1,2.46-17.28,3.3-2,1.43-3.93,2.81-3.89,4.67.09,3.65,7.77,5.8,8.55,6,2.66.74,7.3,2,11.46-.59,2.77-1.75,5.78-5.54,4.85-9.12A7.45,7.45,0,0,0,1893.51,971Z"/><path d="M1910.6,992.2c-1.28.53-4.25,1.77-4.85,4.28s1.53,3.84,6.79,10.68c4.38,5.68,5.74,8.34,7.19,8,.82-.22,1.27-1.83,2.14-5,1.18-4.42,1.78-6.63,1.55-9.52s-.41-5.29-2.33-7.18C1918.27,990.59,1913.56,991,1910.6,992.2Z"/></g></g></svg>