<svg xmlns="http://www.w3.org/2000/svg" viewBox="0 0 2263.12 2522.13"><g id="Layer_2" data-name="Layer 2"><g id="Japan"><path d="M1708.34,14.72c1.11-.22,1.67,5.8,6,7.57.72.29,2.37.81,9-1.26,6.27-2,9.41-3,11.67-5.05,4.53-4.21,1.47-9.65,5.36-13.24,2.56-2.36,6.74-3.48,9.77-2.21,2.49,1.05,3.74,4.1,6.15,10.09,2.64,6.58,2.11,7.76,4.1,9.93,2.8,3.07,5.12,2.08,10.09,4.73,5.33,2.85,8.26,7,11.34,11.35,4.38,6.19,3.86,8.33,7.26,13.87,3.21,5.25,5,5.55,13.87,14,11,10.56,17.54,16.87,22.07,26.48,1,2.17,2.16,5,4.88,10.56a140.54,140.54,0,0,0,6.62,12.46,105.89,105.89,0,0,0,7.57,10.72c11.46,14.5,16,16.58,26.48,29.79,5.34,6.74,6,8.46,11,14a94.23,94.23,0,0,0,13.88,12.92c10,7.41,12.36,5.48,22.69,13.24a133.5,133.5,0,0,1,13.09,11.51c4.89,4.88,6.24,7,10.56,10.56a67.64,67.64,0,0,0,12.14,8c14.31,7.62,23.19,6.47,25.06,12.3,1.07,3.32-1.41,5,.16,8.67.83,2,2.6,4,9.93,6.93,10,4,18.37,7.44,23.33,3.31,2.18-1.81.9-4.06,3.15-5.67.9-.64,2.93-1.65,12.77,1.42,6.85,2.13,11.27,3.51,11.35,5.67s-4.19,2.49-5.68,6.62c-.85,2.38-.7,5.76,1.11,6.94s5.52-.21,7.56-2.37c3.85-4.06,1.28-9.48,4.73-11.82a6.91,6.91,0,0,1,6.78,0c3.37,1.86,3,5.87,6,14.19,1.69,4.69,2.59,7.18,4.1,9.14,4.18,5.44,12.07,5.49,27.74,5.36,22-.19,33.09-.31,36.26-1.73,13.48-6.09,22.47-19.29,23.48-20.81,4-6.06,5.58-10.92,12-15.76,6.6-5,8.38-2.41,13.09-6.78,5.42-5,4.52-9.84,12.92-22.86,2.41-3.74,4-5.63,5.36-5.36,2.68.53,3.07,8.7,3.15,10.4.16,3.36.41,10.41-3.78,17.5-2.91,4.92-4.51,4-6.62,8.51-2.69,5.72-.66,8.37-2.84,14.19-1.52,4.08-3.24,4.7-8,10.56-3.86,4.73-8.86,10.83-11.35,17.81-3.35,9.42-1.33,18.13-.31,22.54,1.55,6.69,5.23,13,12.61,25.7,5.67,9.74,6.08,9.26,7.41,12.92,2.11,5.85,1.53,8.41,3.47,23.49,1.49,11.62,2.29,13.69,3.78,15.76,3.88,5.4,9.83,7.21,13.08,8.2,3.57,1.09,12.88,3.92,19.55-.63s3.22-11.08,9.77-15.29c2.7-1.73,3.36-.68,20-2.52,5.87-.65,7.64-1,8-.16.93,1.92-5.81,9.5-14.66,11.67-6,1.45-9.45-.37-13.24,2.83a15.88,15.88,0,0,0-4.26,6.78c-1.93,5.11-.35,6.88-1.89,9.46-2.2,3.68-7.82,4.06-15.45,4.57-10.21.69-14.87-1.29-18.44,2.21-1.5,1.47-1.44,2.57-3.63,4.25-.56.43-3.14,2.35-8.51,3-6.46.78-7.9-1.38-10.09,0-3.57,2.25,0,8.17-3.46,14.5-1.49,2.71-6.09,5.12-15.29,9.93-7.47,3.9-9.76,4.39-11.83,3.47-2.87-1.28-4.69-5-3.78-6.46s3.89.29,6.46-1.58c2.18-1.58,3.19-5.11,2.05-6.46s-3.34.08-9.45,1.1c-8.24,1.37-10.39,0-13.25,2.36a10.82,10.82,0,0,0-3.46,7.1c-.3,5.78,5.13,8.36,4.09,10.87-.79,1.94-4.52,1.69-18.75,1.42-6.68-.12-13.35-.67-20-.94-4.76-.2-7.44-.27-10.41-2.05-4.19-2.53-4.08-5.55-6.93-7.57-3.6-2.56-8.85-1.33-23.8,5.05-17,7.23-25.46,10.85-29.16,14.34-4.67,4.39-12.85,13.9-18,17.34a42.69,42.69,0,0,0-4.89,3.78,44.44,44.44,0,0,0-3.63,3.63c-6.34,7.06-7.83,11-13.4,15.92-2.91,2.59-2.74,1.75-5.67,4.41-4.33,4-5.07,6.15-9.14,11.19-6,7.36-7.23,6.2-10.72,11.67-2.85,4.46-2.14,5.46-5.2,10.87-3.82,6.75-6.23,7.52-8.83,11.67-2.93,4.68-2.58,8-2.68,26-.11,18.91-.55,23.61-.79,25.85-.94,8.94-2.38,22.51-7.09,23.33-2.34.4-3.62-2.65-10.09-9.14A111.66,111.66,0,0,0,1899.07,614a85.44,85.44,0,0,0-19.7-9.46c-9.61-3.15-11.45-1.78-19.23-3.94-9.93-2.75-9.55-5.71-29.48-17.81-13.58-8.24-16.26-8.39-26.8-15.92-2.53-1.81-3.82-2.83-12.29-9-11.2-8.13-14.09-10.07-18.6-12-7.44-3.14-7.8-1.34-12-3.94-8.8-5.46-6.58-13-14.35-18.28-2.93-2-8.47-2.43-19.54-3.31-10.35-.83-15.52-1.24-21.91-.48a71.81,71.81,0,0,0-24.59,7.57c-6,3.2-4.41,3.56-24.75,20.81-14.51,12.3-16.3,12.94-19.71,18.13-4,6.05-5.11,10.65-8.67,11-5.5.59-11-9.52-12.13-11.66-4.85-9-2-12.16-6.47-16.56-5.13-5-11.15-3.06-14-8.67a24.4,24.4,0,0,0-3.79-6.46,20,20,0,0,0-3.47-3.15c-4.12-2.85-9-2.73-12-2.68-18.2.28-16.92-1.46-20.17-.16-4.46,1.78-8.34,9.2-15.92,24-7.28,14.18-8.61,18.88-8,24.43.33,3.28.81,7.94,4.25,11.51,5.37,5.57,11.73,2,18.92,8.2,3.19,2.73,2.33,3.75,7.57,8.82,4.39,4.26,6.7,6.49,9.93,6.63,4.81.19,6.23-4.5,11.19-4.89,4.46-.35,8.14,3.07,11.51,6.46,13.8,13.91,13.28,18.09,20.17,23.8,13,10.75,25.1,4.51,30.58,14.82,2.47,4.63,3,11.42-.16,15.29-1.25,1.57-2.32,1.68-9.14,4.1-12.22,4.33-13.92,5.77-17.34,4.89-4-1-3.27-3.39-8.19-6.31-3.54-2.09-5.32-1.72-22.86-2.52-8.55-.39-11.88-.65-13.87,1.73s-.44,4.4-2.68,7.1c-1.78,2.13-3.72,2-10.09,4.25-4.69,1.65-7,2.47-7.72,3.15-5.66,5.6,4.66,18.58-.79,25.86-2.52,3.36-4.78.64-13.72,6-4.87,2.91-9.56,5.72-12.45,11.19-1.25,2.36-1.31,3.61-2.84,4.57-.66.42-3.49,2-13.08-2.84-7.05-3.53-10.57-5.29-13.55-9.14-6.75-8.71-5-19.77-4.58-22.23.33-2,.93-4.5,10.41-22.07,6.78-12.56,7.26-12.76,8-15.76,2.4-9.3.34-17.44-1.42-24.43s-3.11-12.3-7.25-17.66c-4.43-5.71-6.2-3.95-19.39-14.34-6.36-5-10.59-9.07-14-14.82-1.66-2.77-2.94-5-3.47-8.19-.75-4.57.56-7.77,3.31-16.4,2.39-7.47,3.58-11.2,3.78-12.45,1.74-10.62-2.86-13.28-1.41-24.12.68-5.12,1.48-11.11,6-14.5,5.14-3.86,9.5-.1,18.6-3.94a34,34,0,0,0,11.19-7.88c5.67-6.18,6.5-12.22,10.24-12.3,2.44-.05,5,2.44,5.21,2.68,1.8,1.81,1.53,3.1,3,4.1,2,1.38,5.4.85,7.41-.47,4.14-2.72,1.22-7.92,4.26-14.82,2.07-4.72,7.74-8.82,19.07-17,5.3-3.84,6.93-4.61,7.72-7.1,1.85-5.75-3.43-12.29-7.25-17-8.12-10.06-12.32-8.85-16.71-16.55-.85-1.5-6.63-11.66-2.2-20,1.67-3.17,5.85-8,10.4-7.88,1.85.06,2.94.91,4.89.31,3-.93,3.12-3.83,5-4.41,3.2-1,5.64,6.31,12.93,12,7.81,6.09,12.14,3.28,19.7,10.4,3.53,3.33,3.39,4.7,6.15,5.84,6.66,2.75,15.54-1.89,17.65-3,4.87-2.54,6.45-4.84,8.83-4.1,2.59.81,2.23,4,4.89,7.73,5.29,7.4,16.1,7.84,17.81,7.88a26.78,26.78,0,0,0,13.71-3.63c7.77-4.21,11.54-10.64,14.82-16.23,2.9-5,5.58-9.52,6.46-16.08.77-5.71-.8-11.69-3.94-23.65-.91-3.47-.86-2.95-4.57-15.92-3.63-12.69-3.81-13.68-3.94-15.29-.3-3.68-.87-12.18,4.25-20.17a30,30,0,0,1,10.88-9.93c8-4.48,11-1.76,16.87-6,6.88-5,8.54-13.12,8.82-14.51,1.06-5.18-.29-7.51-1.1-14-1.84-14.85,3.51-16.54,2.37-32.31-.84-11.64-3.9-12.74-1.9-18.6,2.61-7.61,8.48-7.85,12.61-17.34,1.47-3.37,2-7.28,2.84-15a186.27,186.27,0,0,0,1.26-22.86,171.91,171.91,0,0,0-2.36-29.95c-2-11.35-2.94-9.18-8.51-32.31-3-12.63-3-14.25-5.21-18.92A180.71,180.71,0,0,0,1699,64.69c-1.94-3-3.27-4.75-3.15-7.41.19-4.48,4.47-5.69,7.88-11.51,2.21-3.78,2.64-7,3.47-13.39C1708.53,22.43,1707.1,15,1708.34,14.72Z"/><path d="M1615.65,710c-3.16.92-1.39,8.13-6,15.29-1.46,2.27-1.92,2-3.31,4.41-2,3.51-2.46,6.61-3,9.93-.73,4.58-1.76,9.12-2.37,13.71-2.61,19.73-3,21.67-1.42,22.86s2.77,0,15.45-3.15c12.11-3,13.56-3.31,13.56-3.31,6.91-1.57,8.5-1.73,10.56-3.47,2.44-2.06,2.2-3.52,5.83-7.41,3-3.22,4.51-4.83,6.31-4.73,2.19.13,2.76,2.5,8.67,10.41,3,4,3.22,3.89,3.62,5,1.64,4.65-1.43,7.69-3,14.82-1.37,6.23.53,5.94-.48,14.5-.85,7.25-1.46,12.4-5.51,16.39-.49.49-5.31,5.08-11.82,4.73-9-.48-16.63-10.18-18.29-12.29-2.58-3.29-4.52-6.87-8.35-7.41a7.1,7.1,0,0,0-4.89.94c-2.31,1.58-2.73,4.48-3.47,13.4-.84,10.26-.73,11.91-2.36,13.56-2.72,2.74-7.66,2.8-11,1.58-5.63-2.05-7.92-8-9.77-13.09-1.33-3.63-2.7-8.69-3.15-20.81-.58-15.65,1.2-20.85-2.84-28.37-.71-1.33-4-7.5-7.88-7.25-2.31.15-3,2.5-8,6.46-3.39,2.65-6.08,4.75-8.2,3.94s-1.42-3.73-3.94-7.09c-3.11-4.16-9.2-6.35-11-4.73-2.28,2,3.49,8.72.47,13.08-2,2.95-6,1.76-7.88,5.36-1,1.84-1.22,4.51,0,6.15,1.34,1.81,3.18.64,4.89,2.37,1.15,1.16.66,2,1.57,10.24a9.54,9.54,0,0,1,0,2.84c-.35,2.16-1.29,2.84-1.89,4.41-1,2.59.49,3.57.47,7.88a21.49,21.49,0,0,1-1.1,6.47c-.39,1.32-.7,2-3.63,8a65,65,0,0,1-3.46,6.77,29.74,29.74,0,0,1-4.73,5.84,28.78,28.78,0,0,1-6.78,4.73c-4,2-6.23,3.13-8.67,2.52-4.2-1.06-4.69-6.17-7.41-6.15-2.28,0-2.8,3.62-6.15,8.2-5.47,7.47-10.24,6.25-14.5,13.4-1.11,1.86-4.07,6.83-2.21,10.24,2.09,3.84,7.79,1.16,10.72,4.73,4.62,5.62-5.25,17.38.16,26.64.47.8.71,1,2,3.15a84.41,84.41,0,0,1,5.83,10.88c1.68,4.2,1,7.72-.79,17-4.67,24.92-5.17,30-10.4,35.15a19,19,0,0,1-6.93,4.73c-5.66,2.12-12.25,1.09-15.14.63-4.18-.65-6.49-1.62-7.41-.47s.35,3.5,1.27,5.36c5.9,12,4.56,18.79,8,19.39,2.2.38,2.73-2.33,9-5.36,3.08-1.49,5.26-2.55,8-2.36,2.39.15,3.74,1.13,9.77,5.35,8.64,6.06,8.7,6,9.14,6.63,2.64,3.5,2.44,6.93,2.68,15.92.4,14.66,1.1,11.73,1,19.07-.24,11.29-.43,20.24-4.26,30.11-5,13-10.4,12.09-15.29,26.48a114.43,114.43,0,0,0-4.25,19.23c-1.68,10.47-1.07,13.09-3,20.33-2.4,9-4.23,8.29-7.09,17.18-5.07,15.76-.64,22.2-6.62,28.54-5.13,5.42-9,1.33-15.45,6.62-9.57,7.81-3.78,18.9-14.5,32.47-4.79,6-7,5.12-9.3,10.24-3.67,8,.18,13.27.16,25.07a60,60,0,0,1-6,25.38,63.13,63.13,0,0,1-19.71,23.64c-13.9,10.53-20.12,6.94-37.67,19.07a89.25,89.25,0,0,0-16.87,15.14c-3.65,4-4.79,5.87-5.51,7.25-3.33,6.29-2.4,10.53-3.95,17.34-1.14,5-3.07,8.46-6.93,15.29-6.51,11.51-13.77,19-19.39,24.74-12,12.27-11.88,8.36-28.85,24.12-7.58,7-10.53,10.54-17,12.45-8.14,2.4-10.9-.92-18.44,2-7.36,2.9-7.43,7.12-16.4,12.61-2.26,1.39-3.08,1.62-15.6,6.15-30,10.83-27.63,10.33-30.9,11.19-10.08,2.67-12.62,2.23-15.92,5.52-3.11,3.1-2.92,5.55-8,15.76-3.24,6.49-4.86,9.73-6.3,11-7.39,6.73-19.86,4.19-29.64,2.2-9.08-1.84-15.21-3.09-17.49-7.88-1.26-2.62,0-3.39,2.36-18,2.1-13.15.61-9.84,2.05-16.71.88-4.2,1.77-7,.47-8-2-1.54-6.5,3.65-11.82,2.05-2.16-.64-4-2.27-3.78-3.15.38-1.46,6.25.44,10.4-3,1.39-1.15,3.12-3.33,2.52-4.73-1-2.32-8.19-2.33-13.55-1.11-3.14.72-4.35,1.56-5.36.79-1.9-1.45-1.35-7.34,2-9.77s8.25-.34,8.67-.16c2.14,1,2.09,1.89,3.78,2.37,3.5,1,7.21-2,8.83-3.31,3.77-3,3.28-4.68,7.72-9.46,3.11-3.34,4.8-5.16,7.57-5.83,4.81-1.17,7.62,2.38,9.46.94,3.11-2.43-4.27-13.21,0-18,.74-.83.9-.42,6.14-3.94,2.63-1.76,4-2.65,4.42-3.31,2.33-3.29,1.27-10.06-2.37-13.08-6.93-5.76-22.16,3-23.8,3.94-3.32,1.9-2.93,2.32-12.29,8.51-8.08,5.34-5.17,2.92-9.94,6.15-5.34,3.62-8.08,6-10.24,5-1.71-.79-1.31-2.91-3.15-3.62-1.58-.62-3.3.38-6.94,2.68-5.31,3.35-8,5-8.2,5.36-3.84,5.41,1.37,11.37-2.83,17-1.69,2.27-2.59,1.38-4.73,3.94-4.46,5.33-5,14.44-1.26,17.34,1.75,1.38,2.83.07,5,1.42s3.12,4,5,14.66c.87,4.84,1.31,7.27,1.42,8.35,1.44,13.59-4.27,28-5.67,31.37-1.48,3.6-4.32,9.94-19.07,30.9s-22.13,31.42-28.22,35.46c-6.28,4.17-14.07,7.64-24.91,17.18-4.47,3.94-6.71,5.92-8.51,8.52-7.53,10.88-3.59,19.44-11.51,27.58-3.82,3.94-6.14,3.37-7.4,6.78-.61,1.64-1.38,5.29,6.46,18.76,6.32,10.84,8.82,11.92,10.09,18.28.27,1.36,1.65,8.84-2.37,14.66-.56.82-1.81,2.58-3,2.37-1.48-.27-1.89-3.44-4.89-9.78-.82-1.74-1.26-2.49-1.89-2.52-1.82-.07-3.39,6-3.47,6.31-1.67,6.61.85,8.51-.94,12-2.31,4.46-9.31,6.74-12.46,4.73-1.72-1.11-1.52-3-2.68-3.16-2.65-.32-3.86,9.68-9.14,10.88-3.08.7-5-2.17-7.09-1-2.84,1.67-1.4,8.23-2.84,8.52s-2.39-5.24-5.67-5.68c-1.79-.24-3.64,1.09-4.1,1.42-1.46,1-1.25,1.67-2.37,2.52-2.35,1.79-6.49,1.43-9-.31-1.09-.77-.85-1.08-2.52-2.37-2-1.5-2.71-1.4-3.94-2.52-1.8-1.62-1.29-2.8-2.53-4.1-2.76-2.88-9.08-1-9.77-.79-4.71,1.46-4.55,3.86-9.77,5.84-2.42.91-5.85,2.21-9,.63s-4.2-5.43-4.41-6.31a13,13,0,0,1,1.26-8.67c2-4.44,4.26-4.38,5.67-7.56,2.06-4.62.55-11.88-3.62-14.66-4-2.64-9.22-.54-19.23,3.46a68.07,68.07,0,0,0-11.82,6.15c-5.41,3.41-8.11,5.12-9.93,8.2-1,1.72-1.17,2.71-2.37,3.31-2.46,1.23-5.1-1.27-10.4-3.15-3.07-1.09-5.31-1.37-9.62-1.9a69.07,69.07,0,0,0-14.19,0,139.38,139.38,0,0,0-21.91,3.16c-2.6.6-6.73,1.62-20.65,6.46-18.16,6.31-19,7.31-25.85,9.3-3,.88-4.17,1-30.26,4.41-12,1.56-22.08,2.83-33.26,2.37-12.72-.53-16.24-2.85-18.13-4.73-1.2-1.19-2.4-2.86-4.25-2.84-2.66,0-3.74,3.51-7.57,7.88-2.67,3-5.76,6.57-10.09,7.57-5.65,1.3-13.1-1.74-14.66-6.46-1.7-5.16,4.29-10.28,2.52-12.3-1.33-1.53-5.48.6-10.72,2.37-10.93,3.69-11.65.76-25.53,4.09-11.6,2.79-10.46,4.68-20.34,6.31-5.52.91-9.08.84-14.5,3.31-2.65,1.21-9.34,4.25-9.77,9-.26,2.9,2.05,3.73,2.21,6.78.17,3.36-2.43,6.22-9.3,11.67-11.09,8.79-13.43,8.55-19.39,14.34-1,1-3.81,4.37-9.46,11.19-7.64,9.23-8.64,10.87-12,13.24-5.24,3.73-6.87,2.61-12.3,6.31-3.75,2.56-4.81,4.35-11.19,12-12.26,14.67-8.84,8.63-17.81,19.39-2.67,3.19-8.46,10.31-12.77,9-.85-.26-1.88-.93-2.52-.47-1.24.89,1.14,4.39.32,7.57-.31,1.17-1.35,3.44-8,6.14-4.36,1.76-11.26,3.77-23.18,4.42-6.08.33-9.08.07-10.87,2.36-1.94,2.49.28,4.46-1.26,8.67-2.11,5.76-7.38,5.15-9.78,11.67-.72,2-.63,3.06-1.89,5.36a18.58,18.58,0,0,1-4.57,5.35c-4.72,4-11.87,10.06-18.28,8.2-2.49-.72-4.87-2.63-8.36-1.89a13.54,13.54,0,0,0-2.36.79c-3.86,1.57-4.34,3.15-6,3.31-2.42.23-3-3-6.47-5-4.07-2.43-10.5-2.27-14.18.63-3.94,3.12-2.89,7.93-6.46,9-2.48.73-4.33-1.19-6.47.16a5.65,5.65,0,0,0-2.2,3.94c-.48,3.8,3.06,4.9,4.72,9.93a18,18,0,0,1-.63,11.82c-1.57,3.67-3.32,3.65-4.25,7.09-.64,2.37-.1,3.4.63,9,1,7.51.27,7.76,1.26,12.29,1.12,5.18,2,9.16,4.1,9.62,3.25.7,4.86-8,13.24-12,.82-.39,8.35-3.87,13.56-.63,4.54,2.82,2.46,7.74,7.09,11.66,4.4,3.73,12,4.12,17.18,1.58,6.35-3.09,5.05-8.46,11.51-10.72a21.24,21.24,0,0,1,12.77,0,28.61,28.61,0,0,0,6.14,1.74,13,13,0,0,0,6.15-.16c2.92-1,3.7-3.22,5.52-5,5.59-5.63,16.68-3.28,19.54-2.68s1.79.81,13.72,6.47c9.07,4.3,17.63,8,22.54,13.08.31.33,1.06,1.13,2.21,2.21,4.5,4.22,6.94,6.69,8,6.14,2-1-3-10.7.79-14.18,1.41-1.29,2.79-.59,5.05-2.37a11.5,11.5,0,0,0,3.62-5.83c2.54-7.7,1.81-10.79,3.79-18.6,1.56-6.19,2.77-7.24,2.52-11.19-.22-3.29-1.3-6.41-.32-6.94s2.44,2.11,4.26,1.89c2-.23,2.42-3.78,4.25-7.88,1.3-2.91,4-8.91,9.3-11.19,3.65-1.56,8.58-1.39,11.67,1.1,2.05,1.66,1.08,2.56,3.94,7.26,3.06,5,4.73,4.9,8.35,10.71,1.58,2.54,1.62,3.12,2.68,3.79s3.61,1.68,11.51-1.89c6.29-2.85,10.29-4.53,13.71-8.67,1.56-1.89,3.16-4.47,5.21-4.26,1.47.15,1.77,1.6,3.31,1.89,2.33.44,4.09-2.45,6.62-4.41,2.94-2.3,4-1.07,12.92-3.15,8.65-2,9.51-3.61,16.24-4.26,3-.29,3.35,0,6-.47,6.51-1.09,7.2-3.15,11.35-3.63,6.72-.77,8.76,4.2,13.08,2.37.83-.36,2.86-2.71,6.94-7.41,2.19-2.53,3.29-3.92,5.36-4.42a22.28,22.28,0,0,1,4.57-.15c2.69,0,3.26.19,4.1.15,3.3-.14,5.54-3.09,7.4-5,.84-.88,8.94-9.19,15.92-8.36,4.77.57,4.69,4.88,12.46,7.26,1,.3.2,0,7.41,1.41,6,1.2,7.43,1.59,10.08,1.58s4.72,0,7.1-1.1a14.8,14.8,0,0,0,7.09-7.73c1.71-4,.24-5.36,1.74-7.56,2.55-3.77,7.56-.94,14.34-3.63,6.36-2.52,5.48-6.41,16.6-15.27a46.21,46.21,0,0,1,8-5.54c6-3.17,10.91-3.68,17.81-4.72,19.5-2.94,16.73-4.3,23.8-4.26A51.63,51.63,0,0,1,816,1830c5.51,2.82,6.32,6.19,14.18,10.87a66.05,66.05,0,0,0,10.88,5.21c7.79,2.55,16.44-.94,33.42-6.78a32.86,32.86,0,0,1,14.66-2.21c3,.3,6.06.6,8.35,2.68,6,5.5,1.64,18.65,1.1,20.18-3.07,8.81-9,13.81-17.33,20.8-9.9,8.32-14.85,12.48-22.86,15.92-2.74,1.18-7.37,2.94-7.25,5,.13,2.43,6.39,2.07,9.3,6.62s.66,10.6-.48,13.87c-2.37,6.82-5.48,7.67-7.72,13.08-3.08,7.45-1,14.93-.16,17.82,4.1,14.5,19.41,26,32.63,30.73,4,1.45,10.69,3.3,10.56,5.52s-6.33,2-7.72,5.2c-1.87,4.38,5.76,13.23,14.5,18.6,3.21,2,8.27,4.53,40.67,10.41,3.56.64,4.85,1.48,7.09,1.26,11.8-1.18,19.55-19.13,22.86-26.8,2.65-6.15,1.65-5.65,5-13.71,4.91-11.65,7.36-17.47,12.46-22.23,2.19-2,3.07-2.32,13.55-11,3.79-3.15,4.53-3.83,5.21-5.21,3.12-6.4-3.46-11.38-2.21-18.28,1-5.65,7.2-9,19.54-15.61,3.53-1.89,1.48-.57,24.75-10.08,7.5-3.07,12.1-5,17.81-4.26,1.37.18,3.45.59,8.2,1.26,5.61.79,6.84,1.6,8.83,1.1,3.91-1,6-5,7.09-6.93,3.14-5.87,5.08-16.65-1.73-24.75-4.09-4.86-8-3.61-17.34-7.41-2.59-1-26.14-10.87-28.53-26.64-.67-4.41,1.21-3.39,6.78-21.28,5-16.07,5.53-23.49,11.66-26.32,1.37-.64,4.17-1.27,9.77-2.52,6.49-1.46,7.38-1.24,8-.79,2.19,1.47,1.09,4.78,1.58,14.66.07,1.53,0,0,1.1,11.82,0,0,.18,2,1.42,10.72.57,4,.79,5.3,1.89,6.62,2,2.44,5.19,2.88,7.1,3.15,1.54.22,4.23.6,5.2-.79.56-.8.29-1.86,0-3-.88-3.42-1.67-7.15-2.21-8.83-1.85-5.72-2.1-6.82-1.58-8.19s1.73-3,3.16-3c2.07,0,3.7,3.67,6,8.83,2,4.61,1.59,4.87,2.52,5.67,2.53,2.18,5.7.07,17.34-1.73,7.39-1.15,7.26-.47,11.35-1.58,2.81-.76,4.86-1.61,8-1.42,1.41.09,5.7.35,6.46,2.37.55,1.45-.92,3.34-9.77,11.19-7.6,6.74-11.46,10.12-14,10.72-5.2,1.2-8.65-.71-12.14,2.21-1.32,1.1-3.29,3.42-2.68,5.2,1.15,3.35,11,3.33,18,2.2,9.19-1.48,11.78-4.66,19.86-7.25,1.94-.62,5.63-1.66,24.59-1.73,31.65-.12,32.14,2.75,42.4-.16,8.07-2.29,11.69-5.17,18.92-4.1,5.88.87,12.26,4.08,16.39,6.15,7.37,3.7,12.14,6.39,13.4,5,.84-.9-.95-2.51-.94-6.14,0-3.84,2-6.75,4.09-9.78,2.62-3.79,3.82-3.57,6.63-6.93,3.13-3.76,4.51-7.33,6.14-11.67,2.75-7.31,2.52-10.46,3.79-14.66,4.1-13.54,18.74-20.77,27.11-24.9a65.24,65.24,0,0,1,20.33-6c6.53-.82,11.85-1.41,16.24,1.89s6.72,9.63,4.88,11.82c-2.23,2.66-9.39-2.27-12.61,1-1.53,1.53-.88,3.64-1.1,9.46a61.65,61.65,0,0,1-1.26,10.87c-1.4,6.49-3.07,6.69-3.94,11.82a28,28,0,0,0,.79,12.3c.91,3.34,2.71,9.91,8.82,14.19,1.79,1.25,6.44,4.5,11.2,3.31,4.52-1.14,5-5.25,10.87-14,8.45-12.54,14.67-14.7,16.87-22.39.59-2.06,1-4.91,3.31-8,1.89-2.56,3.58-3.31,3.47-4.88-.16-2.17-3.48-2.14-6.15-5-4.17-4.53-2.94-12.06-2.36-15.6.54-3.31,1-5.84,3-8,2.78-3,5.74-2.3,6.78-4.73,1.3-3.05-2.72-5.61-2.21-9.46.28-2.06,1.78-3.92,9.14-8,9.36-5.23,15.69-8.77,25.38-9.93,8-.94,7,1,11.67-.15,9.42-2.44,15.27-11.18,25.22-26.49,5.34-8.22,5.16-9.19,8.19-12,.83-.75,13.62-12.14,27-7.4.93.33,10.29,3.78,11.35,10.71.69,4.56-2.54,8.46-9,16.24-6.12,7.38-7,6.31-10.24,11a44.32,44.32,0,0,0-7.1,21.44c-.26,7.07,1.67,9.3-.47,14.19-1.51,3.44-3.82,5.42-3.31,8.83.23,1.57.8,1.63,2.52,5.67s2.51,5.93,1.74,7.09c-1.17,1.77-4.4.11-5.83,1.9s.28,6.18,2.36,8.66c.5.6,3,3.63,6.46,4.1,5.12.71,8.57-4.73,20.65-17.18,10.74-11.06,13.56-12.49,15.29-13.24,6.09-2.65,7.46-.82,15.45-4.26,6.83-2.93,6-4.35,13.87-7.72,4.89-2.09,7.89-2.7,8.67-5.2s-1.23-4.68-2.52-6.94c-4-7-1.94-15.09.63-25.22,1.23-4.84,3.7-14.62,11.66-23.17.6-.64,6.19-5,17.34-13.71,5.24-4.09,7.89-6.15,9.15-6.62,10.69-4.06,20.07,2.26,22.38-1.11.59-.85.94-2.69-3.78-10.24-5.79-9.26-9.39-11.42-14.82-18.45a78.44,78.44,0,0,1-12.3-22.85c-2.1-6.48-.92-6.22-3.62-15.29-3.53-11.85-5.81-13.19-5.83-19.23,0-5.23,1.67-4,4.88-16.55,1.61-6.28,3.29-12.83,3.63-21.44.18-4.62-.18-5.79.47-9.3,1-5.5,3-8.58,5.68-13.72,5.93-11.43,3.55-10.58,8.67-19.86,4.75-8.63,7.44-10.51,7.88-16.39.27-3.75-.63-5.63.94-7.57,2.65-3.26,7.66-.93,12.3-4.41,2.08-1.57,3-3.46,4.25-6.31,6-13.15,8.92-19.73,9.15-20.49,3.06-10.24,3-20.21,2.83-39.72-.09-10-.5-17.52-.63-19.86-1.5-26.93-2.25-40.4-7.09-55.64-5-15.71-8.87-16.79-9.93-28.85-1-11.34,1.51-20.74,3.47-28.06,2.66-10,5.09-12.78,6.3-14,4-4.16,7.26-3.74,9.62-8,2.89-5.26-.06-9.28,3-11.82,2.52-2.09,5,.24,10.25-2.21,2.56-1.19,2.48-2,5.67-3.62a28.15,28.15,0,0,1,8-2.68c3-.56,8.76-1.61,14.19.79,5,2.22,5.08,5.31,13.08,12,4.92,4.09,5.72,5.26,6.62,4.88,2.27-1,2.28-9.19-.31-15.6-.94-2.32-1.67-3.06-1.89-5.2-.26-2.52.52-3.64,2.2-9.46s1.7-7.47.79-8.67c-.45-.59-.88-.75-2.52-1.58a67.64,67.64,0,0,1-6.31-3.47c-4.75-3.42-4.34-15-.63-16.86,1.5-.74,2.87.45,5.2-.63a7.67,7.67,0,0,0,3.31-3.31c3.41-5.8-.72-10.2,2.37-15,1.79-2.76,3.77-2.23,5-5.36s-.17-5.08,1.26-6.46c2-2,6,1,8.36-.95,1.59-1.31,1.37-4,1.1-7.09-.41-4.92-2-6.48-2.68-12.45-.48-4.2.12-5,.63-5.36,1.11-.71,3.27,0,4.42,1.42,1.64,2,.46,4.31,1.73,5s3.61-.41,4.57-2.21c1.23-2.29-1-4,0-6.93s4.46-4.47,4.73-4.57c3.29-1.28,5,.66,7.72-1,1.57-.9,3-2.66,2.68-3.94-.29-1.11-1.78-1.32-1.73-2.05s1.73-1.15,3.63-1.73c3.88-1.2,6.57-2,6.62-3,.07-1.62-7.34-4.17-9.51-4.18,0,0-.25,0-.27-.07-.08-.38,6.27-.73,9.46-4.73.39-.49,1.9-2.39,1.42-4.26-.29-1.13-1-1.14-1.58-2.36-.82-1.84-.07-3.9.79-6.15a31.85,31.85,0,0,1,2.21-4.41c2.33-4.27,3.49-6.4,3.78-8,.63-3.52-1.06-4-.63-8.36.24-2.39.5-5.06,2.37-6.77,3-2.78,7-.06,9.93-2.84,2-2,2.38-5.58,1.26-6.47s-2.61.83-6.62,1.9c-3,.8-7.35,1.27-7.73.31-.72-1.83,13.81-6.38,13.87-13.55,0-2.51-1.71-5.75-2.52-7.26-1.58-2.95-2.66-3.46-3.15-5.83-.64-3.08.53-5.4-.32-5.83s-2.45,2.08-3.31,1.73c-1.51-.61,2.74-8.73,1.9-18.75-.65-7.63-3.65-9.24-3.63-16.4,0-3.06.56-5.83-1.1-8.51a6.57,6.57,0,0,1-1.42-3.78,6,6,0,0,1,.94-2.84c1.83-3.59-1.64-9.29-2.52-10.72-3.27-5.36-5.91-4.26-9.3-10.09a52.53,52.53,0,0,1-2.84-6.3c-1.89-4.63-1.87-5.58-1.73-6.31.6-3.13,3.73-3.64,3.47-5.51-.34-2.41-5.6-2.46-6.46-6a4.88,4.88,0,0,1,0-2.05c.46-3.17,2.71-4,3.31-5.68,1.29-3.55-6.47-7.62-14.66-18.13a59.52,59.52,0,0,1-6.47-9.77c-1-1.9-1.34-2.84-4.88-10.72-3.08-6.83-3.81-8.34-5.68-9.14-2.4-1-3.26.56-7.56-.16-1.25-.21-5.21-.87-7.73-3.78a11.07,11.07,0,0,1-2.36-6c-1.14-7.42-3.49-8.07-6.47-17.81-1.58-5.18-2.23-10.46-3.46-20.81-.86-7.19-1.71-15.63-2.53-27.43-1.65-23.94-1-30.35-.31-34.52a99.53,99.53,0,0,1,3-13.08c.8-2.48,2.29-6.67,3.63-10.25,1.89-5,2.63-6.65,2.84-9.61.12-1.83.15-5.84.15-5.84,0-2.73-.48-3.45-.94-3.62-1.09-.39-2.46,2.07-7.57,7.09a36.68,36.68,0,0,1-5,3.89,8.58,8.58,0,0,1-1.59.84,15.3,15.3,0,0,1-6.78,1c-4.8-.39-11.27-7.65-18.44-12.61-11.36-7.87-19.21-6.53-23.17-12.3-.54-.78-2.73-4.21-6.62-5.36A4,4,0,0,0,1615.65,710Z"/><path d="M102.88,1841.42c-5.39,1.44-5,6.25-12.53,10.4-1.23.67-2.17,1.06-2.6,2.13-1.25,3.06,4.12,5.88,3.78,9.93-.31,3.65-4.86,3.52-7.8,8.51-2.51,4.25-3.25,11.21-.24,15.6.73,1.07,3.64,4,9.46,9.7.55.55,1.37,1.35,1.18,2.13-.46,1.89-6.54,2.32-11.11,1.89-6-.56-6.84-2.34-8.75-1.42-2.36,1.14-2.55,7.55-2.84,20.33-.2,9-.26,13.53,1.66,14.43,2.21,1,5.67-1.72,7.09-2.84,2.6-2.06,2.54-3.22,5.91-7.57,4.52-5.82,6.11-5.65,6.86-8.74s-.44-5.45,1.18-6.86c1.43-1.25,3.15-.18,4.49-1.18,1.81-1.35.75-4.75,0-10.17-1.05-7.62-1.57-11.42,0-14.9.62-1.37,2.62-3.51,6.62-7.8,3.6-3.86,4.63-4.48,5.44-6.62,1-2.66,0-3.2.47-8.51.41-4.45,1.2-4.91,1.42-9.22.2-3.87.3-5.8-.94-7.33C109.77,1841,105.81,1840.63,102.88,1841.42Z"/><path d="M137.87,1975.32c-3.32,1.9-3.92,6.94-2.83,10.41a9.78,9.78,0,0,0,5.35,6c.54.22,4.52,1.91,7.57-.16,3.29-2.24,3.49-7.47,1.89-10.88C147.78,1976.26,141.82,1973.06,137.87,1975.32Z"/><path d="M64.73,2060.76c-.91-.54-3.82,1.68-3.47,3a2.17,2.17,0,0,0,2.68.95C65.57,2064,65.5,2061.21,64.73,2060.76Z"/><path d="M60.64,2097.6c.93.53-1.08,3.29.15,5.56,1.77,3.24,7.91,1.16,9.62,4.26,1,1.79,0,4-1.89,8a25.35,25.35,0,0,1-7.1,9.15c-.63.51-1.17,1.39-2.2,1.57-1.78.32-3.88-1.19-4.89-3-1.59-2.82.34-4.84-1.26-6.94-1.46-1.91-3.88-1.32-4.26-2.83-.28-1.14.86-2.41,2.37-4.1s2-1.59,2.83-2.84c1.17-1.7.73-2.54,1.58-4.41C56.88,2099.22,59.73,2097.09,60.64,2097.6Z"/><path d="M45.66,2117.19c-1.31.86-.84,3.85-.63,5.2s.33,2.16.94,2.52c1.57.94,5.86-1.29,5.84-3.94S47.28,2116.12,45.66,2117.19Z"/><path d="M31.79,2129.17c2-.51,4.45,1.9,4.88,4.41.36,2.07-.55,4.91-2.52,5.36s-3.95-1.68-4.57-3.62C28.82,2132.93,29.81,2129.67,31.79,2129.17Z"/><path d="M23.28,2138.47c2.11-.51,4.85,4.29,7.72,9.3,3,5.22,3.2,7,3.15,8.35,0,.87-.17,4.72-2.52,6-1.32.72-3.95.23-9.14-.78-1.8-.36-2.89-.62-3.47,0-1,1.06,1,3.2.16,4.88-1.06,2.09-5.63,1.72-9.3,1.42-4.54-.37-7.11-.57-8.67-2.68a6.4,6.4,0,0,1-.95-5.52c.49-1.54,1.42-1.91,2.21-3,3.11-4.25-2.22-10.69.16-13.24,1-1.1,2.15,0,10.24-.16,4.65-.07,6.68-.45,8.2-1.89S22.3,2138.7,23.28,2138.47Z"/><path d="M163.88,2276.71c-.79.17-1.16,3.59.16,6.31.35.72,1.09,2.25,2.36,2.36a1.91,1.91,0,0,0,1.74-.79c.58-1-.5-2.67-2.68-6C164.25,2276.77,164,2276.68,163.88,2276.71Z"/><path d="M147.65,2299.25c-.5-.09-1.46,0-5.36,4.89-3.47,4.38-3.8,5.72-3.63,6.93,0,.14.32,2,1.42,2.37s2-.76,3.94-2.68a31.83,31.83,0,0,0,3.31-3.94c1.8-2.47,2.69-3.72,2.52-4.89A3.22,3.22,0,0,0,147.65,2299.25Z"/><path d="M318.83,2437.81c-2.68,2.76-.92,5.14-3,9.14-2.55,4.91-7,4.85-7.41,8.83-.14,1.36.39,1.32.79,5a23.15,23.15,0,0,1,.15,5.83c-.6,3.91-3.18,4.09-5.36,8.36-2,3.87-.27,4.56-2.2,11.51-1.53,5.48-2.84,6-2.52,8.82.43,4,3.52,8.19,6.46,8,1.6-.08,2.75-1.44,3.62-2.52,2.25-2.76,2.12-5,3.47-10.56,1.27-5.26,2-8.31,4.26-11.67,1.44-2.17,2.15-2.3,3.62-4.72a27.3,27.3,0,0,0,3.16-8.2c.66-2.78,1.3-6.41,1.41-18.44.09-8.79-.21-10.92-1.57-11.51C322.19,2435.09,320,2436.63,318.83,2437.81Z"/><path d="M246,2490.14c-4,1-5.69,7.09-6.47,9.93-1.45,5.32-3.49,12.79,1.11,18,5.65,6.38,16.19,3.47,17.34,3.15,2-.56,6.2-1.71,9-5.67,3-4.24,2.42-8.94,2.21-10.72-.25-2.1-.75-6.37-3.94-9.14-2.9-2.52-4.77-1-12.93-3.78C248.32,2490.5,247.63,2489.74,246,2490.14Z"/><path d="M210.86,2485.41c-1.6.27-2.11,5.26-1.74,8.67.08.75.6,5.46,2.21,5.68,1.4.18,3.39-3.05,3.62-6.15C215.26,2489.45,212.43,2485.15,210.86,2485.41Z"/><path d="M100.83,2045.78c-.87,2.49,3.38,3.74,4.1,8,.62,3.71-2.11,5.32-6.31,16.4-.78,2.05-1.57,4.32-.47,5.83s3.52,1.43,4.1,1.42c5.38-.16,9-6.16,9.61-7.1,2.15-3.51,1-4.18,3.16-8.51,2.65-5.33,4.77-5.07,6.46-9.3,2-5,1.44-11.41-.79-12.29-1.64-.66-4.72,1.49-4.89,3.46-.09,1.07.71,1.52.48,2.53a3.72,3.72,0,0,1-3.94,2.36c-2.32-.47-2-4-4.57-5.2C105.37,2042.33,101.56,2043.69,100.83,2045.78Z"/><path d="M138.82,2049.41c-9.41.67-12.19-1.67-13.72.16-2,2.44,3,6.64,1.42,13.55-1,4.37-3.47,5-2.83,7.41,1.12,4.27,9.3,3.69,11.19,9.14.75,2.16,0,3.66,1.1,4.42,2.16,1.42,6.4-3,8.51-1.42.54.39.73,1.26,1.11,3,.67,3.08.08,4.13.63,5.52.32.81,1.18,2.14,5.83,3.63,5,1.58,7,.11,12.77,1.73,3.27.91,4.19,1.8,4.57,2.21,1,1.08,1.83,2.78,1.73,7.72-.14,6.88-.23,11.47-3.78,14.5-.25.22-4.25,3.55-7.09,2.21-2.12-1-3.07-5.57-4.89-14.66-.5-2.48-.75-4-2.05-5.68-2-2.56-3.94-1.89-6-4.25-2.68-3.09-1-6-3.31-7.73-2.13-1.56-6.1-1.08-8,.95-1.72,1.81-1,4-1.58,9.77-.56,5.51-1.45,5.73-1.57,8.52-.09,2,.23,5.45,15.76,24.74,3.56,4.43,5.34,6.64,6.31,7.57,2.95,2.85,4.42,3.48,4.88,5.52.57,2.52-1.2,3.72-2.68,8.19-.46,1.41-2.77,8.41-.63,10.09s9.69-1.8,13.56-7.72c3.47-5.31,1.25-8.28,4.89-12,1.52-1.55,5.06-2.66,12.13-4.89a53.92,53.92,0,0,1,10.09-2.36c4.64-.58,7.69-.93,9,.78,1.51,2-.18,5.83-.95,7.57-1.65,3.72-3.24,3.78-3.78,6.46a8.91,8.91,0,0,0,2.68,8c.39.37,3.11,2.92,6.3,2.37,4.24-.74,4-6,8.51-7.25,3-.81,4.58,1.17,8.52-.16A9.84,9.84,0,0,0,231,2155c3.16-3.05,2.35-8.43,1.11-16.08s-1.86-11.33-4.58-13.4c-4.27-3.24-10.51-2-11-1.89-2.37.51-2.33,1.14-4.73,1.74-5.78,1.42-12.3-.73-12.45-2.68,0-.67.66-.95,5.36-4.26,4.42-3.12,5-3.7,5.36-4.57,1.09-2.47-.08-5.19-1.11-7.57-2.16-5-4.47-5-6.14-9.46a14.29,14.29,0,0,1-.79-8.19c1.07-4.92,4.79-7.73,6.46-9,2.21-1.66,4.17-3.14,6.94-3.31,4.3-.25,7.79,2.84,14.18,8.51a30.45,30.45,0,0,1,3.63,3.47c3.6,4.95,1.37,8.88,3.94,17.34a30.42,30.42,0,0,0,3.62,8c1.31,2,2.49,3.27,6.31,7.09,7.91,7.93,7.54,7.25,8.51,8.52,2.43,3.17,6.42,8.38,5.05,13.71-.81,3.12-3.16,5.15-5.05,6.78-3,2.55-4.17,2.15-8.19,4.57-2.62,1.57-8.45,5.06-10.41,11.19-.28.88-1.59,5,.16,6.46s6.18-.62,7.72-1.41c5.32-2.76,6.25-6,12.46-9.15,2.86-1.44,3.7-1.27,4.09-.94,1.19,1-.18,4.68-1.41,6.93-1.46,2.65-2.75,3.36-4.1,5.05-2.5,3.12-1.92,5.49-3.31,13.87-.82,4.9-1.49,8.94-3.16,13.24s-2.89,5.08-6.77,11.35c-7.46,12-7.15,16-13.56,22.07-5,4.75-8,4.94-9.3,4.88-3.3-.14-4.66-2.32-7.09-1.73-3.12.76-5,5.31-5.52,8.67-1.23,7.72,4.41,10.21,4.57,20.18a33.92,33.92,0,0,1-1.42,9.77c-2.11,7.53-4.88,8.4-4.73,12.45.14,3.61,2.39,4.09,8.83,12.93,3.54,4.85,5.94,8.19,7.88,13.08a40.37,40.37,0,0,1,2.84,12.61c.28,5.57.71,13.9-4.26,17.81-3.32,2.63-9,3.2-13.24,3.63-3.73.38-5,0-5.83,1.1-2.07,2.81,3,10.34,7.57,14.66,2.16,2.06,4.4,4.21,8,5.36,3.05,1,3.92.24,12.92.32,6.85.05,8.75.5,10.4,1.1a15.25,15.25,0,0,1,6.63,4.1c3,3.42,1.63,5.71,4.25,8s7.23,2.58,10.56,1.26a11.79,11.79,0,0,0,5.83-5.36c2.19-3.8,3.08-9.66.32-13.24-2.28-3-4.68-1.32-7.88-4.26-4.14-3.8-4.21-10.3-4.26-15.6a40.48,40.48,0,0,1,.95-8.83c.79-3.82,1.84-4.31,2.21-7.41.52-4.46-1.12-5.22-.16-8.2,1-3.19,3-2.61,4.88-6.46a20,20,0,0,0,1.74-9c-.06-3.42-.86-4-.16-5.36,1.57-2.94,7.16-2.77,9.77-2.68,3.65.11,7.17.22,10.09,3a12.05,12.05,0,0,1,3.47,8.83,12.73,12.73,0,0,1-6.15,10.25c-.4.24-4.6,2.76-6.46,1.26-1.6-1.29.09-4.26-1.26-5.36-2.3-1.87-11.57,3-11,7.09.23,1.72,2.22,3.34,4.1,3.78a6.75,6.75,0,0,0,3.63-.31c2.42-.77,3-2.08,3.78-1.89,1.42.34-.78,5.42,1.1,10.87.67,1.94,1.66,3.24,3.63,5.83,3.83,5.06,5.53,5,7.41,8.2a17.51,17.51,0,0,1,1.89,10.72c-.52,4.65-2.4,5.38-5,11.82-3.55,8.64-1.11,9.65-4.1,14.35-4.22,6.63-10.24,6.47-10.56,11.35a9.34,9.34,0,0,0,2.83,7.09,4.35,4.35,0,0,0,1.9,1.26c3.47.84,5.22-6,11.66-8.51,4.17-1.63,5.41.45,9.62-1.74,3.07-1.6,3.16-3.1,6.3-4.41,4.11-1.71,5.29.31,8-1.1,4.78-2.45,2.49-9.2,8.35-14a48.45,48.45,0,0,1,4.89-3.47c3.27-2,3.77-1.71,4.41-2.68,1.94-2.89-.43-8.55-3.15-12-2-2.5-3-2.38-3.47-4.1-.7-2.63,1.12-5.21,4.42-9.77,2.72-3.76,4.08-5.64,5.67-6.31,4.57-1.91,11.42.53,13.72,4.73,1.22,2.24.82,4.36,3,6a6.6,6.6,0,0,0,3.94,1.26,7.5,7.5,0,0,0,4.26-1.57c.83-.56,2.19-1.63,4.25-4.89a43.32,43.32,0,0,0,2.84-5.36c4.32-9.22,4.26-8.17,5-10.56,1.48-4.52.85-5.69,2.68-8.51,1.61-2.47,2.58-2.32,3.79-4.26,1.95-3.14,1.08-6.25.47-11.82-.11-1-.23-5.7-.47-15.13-.2-7.75-.29-11.68.16-14.35.93-5.59,2.16-5.6,4.25-13.39,1.73-6.45,1.29-7.91,2.84-15,1.29-5.9,1.9-6.23,4.57-15.29,4.76-16.13,4.21-19.72,8.35-26.8,2.3-3.92,4.28-4.37,7.73-9.77,5.58-8.75,4.76-12.44,4.25-13.87-.83-2.34-2.08-2.14-2.68-4.1-1.32-4.31,4-7.83,10.25-16.55s12-18.13,12-18.13c1-1.66,3.76-6.27,6.78-6,1.38.13,1.76,1.19,3.62,1.42a6.17,6.17,0,0,0,5.84-2.68c1-1.78,0-3.21-.32-6-.71-7,4.76-9.55,3.15-13.71-1-2.5-3.83-3.95-7.56-5.83-3.51-1.78-5.47-1.83-5.83-3.32s1-3,3.62-6.3c1.9-2.37,2.72-2.94,2.52-3.78-.36-1.56-3.36-.69-5.67-3-1.93-1.92-1-3.68-3.63-6.62a9.74,9.74,0,0,0-2.36-2.05c-2.44-1.47-3.91-.8-4.42-1.73-.88-1.63,2.35-6,5.52-8.2a9.42,9.42,0,0,0,2.52-2.36c.69-.95,1.55-2.13,1.26-3-.47-1.43-3.87-1.38-9.77-1.57-3.31-.11-6.62-.45-9.93-.48-20.32-.18-22.42-1-24.27-2.2-4.81-3.19-7.46-8.95-6.31-10.41.68-.86,2.28.3,5.68-.16,3.21-.43,5.48-2,7.88-3.62a43.14,43.14,0,0,0,6.3-5.68,67.72,67.72,0,0,0,6.15-6.62c6-8.43,3.25-19.65,3-20.65a23.74,23.74,0,0,0-6.93-12.13c-4.22-3.84-11.85-7.72-18.29-5.36-1.82.66-4.13,2.82-8.67,7.09-5.77,5.44-5.06,6.06-7.56,7.57-2.88,1.73-7.32,2-16.08,2.36-6.21.28-9.36.41-11.67-.16-6.1-1.5-10.11-5.11-12.61-7.4-3.18-2.93-4.88-5.52-8-10.41a166.22,166.22,0,0,1-8.67-15.6c-5.66-11.13-5.84-12.76-9-15.92-2.61-2.63-6.79-6.84-12.14-6.78-2.44,0-4,.94-8.19.63a38,38,0,0,0-5.36-.32,14.21,14.21,0,0,0-5.05.79c-1.8.72-2.25,1.51-5.2,3.78,0,0-1.94,1.5-4.25,3-6.16,4-12.3-1.29-17.19,2-3.06,2.09-3.77,6.44-5.2,15.13a74.83,74.83,0,0,0-.79,7.72c-.9,13.49.65,17.61-2.36,20.5-.9.86-3.17,1.31-7.72,2.2-7.89,1.56-13.4,2.64-15.93-.15-.61-.69-1.14-2.19-2.2-5.21-1.34-3.79-1.25-5-2.05-5.2-1.67-.47-5.57,3.67-5.2,7.57.27,2.9,2.75,3.92,2.36,6.3-.24,1.47-1.37,2.32-3.62,3.94-6.42,4.64-9.66,7-11,7.73-4.84,2.67-7.31,4-9.77,3.47a10.53,10.53,0,0,1-5.2-3.31c-2.58-2.66-2-4.2-4.42-7.1-1.93-2.35-5.43-5.14-7.09-4.25-1.88,1,.51,5.77-2.21,8.35-1.62,1.55-3.24.56-5.51,2.52-.37.32-2.77,2.39-2.53,4.73.28,2.58,3.43,2.52,5.52,6s1.25,7.55,1,9c-.53,2.46-2.11,6.65-3.94,6.62s-1.71-4.1-5.05-5.68c-1.08-.51-1.87-.46-6.46-.16C143.65,2049.09,141.23,2049.24,138.82,2049.41Z"/><path d="M645,2025.92c-18.5,6.49-21.54,8.69-24,11-2,1.9-6.47,6.35-8,13.24-1.29,5.64.86,6.49.16,12.45-.59,5-2.19,5.29-11.2,21.12-4.26,7.5-5.15,9.63-8.35,11.82-4.12,2.84-6.16,1.73-9.46,4.73-1.63,1.49-1.87,2.43-6,13.09-3,7.88-3.73,9.47-3.31,12.13.19,1.17.47,1.8,3.47,7.41,4.72,8.83,5.76,10.48,5.2,11-.92.91-5.66-1.77-13.4-6.15-2.36-1.34-3.62-2.12-5.51-2.05-3.35.12-4.12,2.72-7.88,3.94-3.36,1.09-6.44.23-10.09-.79-5.35-1.49-6.53-3.5-10.25-3.15-3.05.28-4.87,1.88-5.2,1.42-.64-.88,7.07-5.07,9-12.77.12-.48,1.67-7-1.26-9.14-2.75-2.05-6.26,2.08-13.4,1.42-1.28-.12-7.27-.68-10.4-4.89-2.45-3.3-.45-5.22-3-10.72-2-4.38-3.62-3.86-5.36-8.35-1-2.53-1.18-4.68-1.58-9-.43-4.62,0-5.8.63-6.62,1.15-1.51,2.31-1,4.41-2.36a10.62,10.62,0,0,0,4.58-9.62,8.94,8.94,0,0,0-2.53-5.2c-3-2.88-6.23-1.27-11-4.26-1.87-1.16-3-1.87-3.78-3.31-2.55-4.71,3.18-9.14,1.26-15.76-.17-.57-1.36-4.66-4.42-5.67-2.83-.94-4.57,1.66-11.19,4.72-5.67,2.62-5.83,1.38-13.24,4.58-3.86,1.66-5,2.54-8.83,3.78s-8.31,2.28-8.51,1.73,4.54-2.4,13.08-6.93c6.54-3.47,11.36-6.42,12.46-7.1,7.37-4.53,8.25-5.78,14.66-9.61,4.54-2.72,4.33-2.23,11.82-6.31,16.17-8.8,19.11-12.14,20.65-14.18.49-.65,2-3.43,5-9,5.13-9.38,6-11.78,6.62-14,1.14-4.13,1.7-6.19,1.74-8.35,0-1.67-.15-3.08.63-4.73a8.49,8.49,0,0,1,3.62-3.63c5.34-3.15,5-7.85,12.46-14.81,6.46-6,10.11-5.71,11.82-10.72,1-2.88.64-5.54,2.21-6.15,1.94-.76,4.85,2.39,6,3.63,4.48,4.85,4.27,8.86,8.67,15a19.31,19.31,0,0,0,3.78,4.41c6.18,4.92,14.64,3.6,17.5,3.16a30.89,30.89,0,0,0,8.51-2.68c2.8-1.36,3.55-2.28,5.51-3.31,1-.51,4.22-2.11,12.3-1.9,12.12.33,15.15,4.21,20.65,1.58,2.5-1.2,3.92-3,5.67-5.2a27.11,27.11,0,0,0,5.52-14.66c.71-7.51-2.94-8-1.73-13.4,1.73-7.79,9.86-12.16,10.72-12.61,2.74-1.43,2.62-.58,6.62-2.36,6.14-2.75,6.39-4.74,12.29-7.57,3.07-1.47,3.1-1,9.14-3.47,4.83-2,5.57-2.61,7.41-3.31,8.42-3.19,17.59.34,22.86,2.37,4.14,1.59,7.39,3.49,13.55,7.09,4.85,2.83,5.42,3.5,8.83,5.2,6.43,3.2,7.19,2.21,13.4,5,7.9,3.6,10.27,6.86,14.19,5.83,2-.54,2.09-2.86,4.73-3.63,1.43-.41,3.75-.52,5.2.63,2.09,1.67,1.24,5,.31,14-.85,8.27-.82,12.1-.15,16.08,1,5.84,2.53,7.36,3.46,8,2.56,1.86,4.76.5,6.94,2.52s2.9,6.39,1.26,8.51c-1.38,1.79-3.4.77-5.52,2.84-1.8,1.76-2.78,4.87-1.73,6.15,1.35,1.64,5-1,7.88.79a6.6,6.6,0,0,1,2.68,6.46c-1.06,4.91-9.34,3.52-19.07,10.09-6.43,4.33-5.28,6.6-14,13.24-6.36,4.83-7.34,3.92-11.82,7.41-6.32,4.92-9.52,11.47-15.92,24.59a169.84,169.84,0,0,0-8.83,21.91c-1.81,5.53-1,9.07-2.84,9.61-2.78.84-6.15-6.3-17-19.54-8.07-9.83-11.32-12.11-13.09-13.24-4.92-3.15-9.09-4.23-16.55-6.15-8.35-2.16-15.09-3.89-23.64-3C659.81,2020.73,654.82,2022.47,645,2025.92Z"/><path d="M838.85,1857.41a67.62,67.62,0,0,0-13.4,9.62c-6.15,5.52-9.22,8.28-11,11.66-3.28,6.14-2.46,10.34-6.62,13.09-3,2-4.8.63-6.78,2.68-3.26,3.38-2.2,11,1.42,15.76.94,1.24,3.72,4.93,8,5.36,5,.5,6-4,14.66-7.25,6-2.28,9.79-1.79,10.56-4.26.47-1.5-.72-2.4-2.21-6.93a37.6,37.6,0,0,1-1.57-6.62c-.59-5,1.41-9,3.94-14,1.91-3.78,2.39-3.66,6.46-10.41,6.06-10,5.46-11.06,5.2-11.35C846.39,1853.49,842,1855.74,838.85,1857.41Z"/><path d="M755.15,1859.46c.89,1,.11,2,.16,6.15.05,4.82,1.11,6,0,7.57a5.81,5.81,0,0,1-5.2,1.89c-2.12-.28-2.57-1.68-3.94-1.42-2.07.39-1.92,3.73-3.94,4.26-2.22.57-5-2.78-6-3.94-1.35-1.61-1.08-2-2.53-3.63-2.26-2.6-3.79-2.75-3.78-3.78,0-.42.26-1.42,7.57-4.1a64.27,64.27,0,0,1,8.82-2.68C751.41,1858.69,754,1858.14,755.15,1859.46Z"/><path d="M598.15,1897.14c-.56,0-2.71-.09-5.52,2.2-1.2,1-4.35,3.9-3.62,5.21.58,1,3.67,1.08,5.52-.32,1.62-1.23,1.13-2.69,3.31-4.57,1.09-1,2.17-1.4,2-1.89S598.39,1897.15,598.15,1897.14Z"/><path d="M580.34,1902.34c-1.21.22-1.75,1.46-2.84,3.94a15.11,15.11,0,0,0-1.42,7.57c.13,1.31.27,2.6,1.11,3,1,.47,2.5-.6,3.31-1.42,1.84-1.87.9-3.33,2.83-7.25.65-1.3,1-1.7.95-2.52C584.12,1903.88,582,1902,580.34,1902.34Z"/><path d="M587.12,1912.11c-.83.5-.48,1.49-1.11,3.79-1,3.46-2.45,3.74-2.83,6.46-.32,2.26.33,4.79,1.1,4.88.92.12,3.05-3,2.68-5.83a4.3,4.3,0,0,1,.16-2.68,3.72,3.72,0,0,1,1.1-1.26c3.07-2.55,3.45-2.72,3.47-3.15C591.75,1913,588.58,1911.23,587.12,1912.11Z"/><path d="M564.58,1906.44c-2-.93-5,.83-5.52,3.15-.34,1.54.36,3.58,1.73,4.1a2.57,2.57,0,0,0,1.58,0c1.91-.46,4.25-2.42,3.94-4.73A3.28,3.28,0,0,0,564.58,1906.44Z"/><path d="M555.12,1919.84a1.51,1.51,0,0,0,.31,1.1c.64,1,2,2.07,2.53,1.73.73-.46.19-3.64-1.11-3.94A1.62,1.62,0,0,0,555.12,1919.84Z"/><path d="M538.57,1917.94c-.32,1.18.77,2.48,1.89,2.84,1.9.62,4.27-1.35,4.1-2.68-.14-1-1.73-1.71-3-1.73C540.65,1916.35,538.9,1916.68,538.57,1917.94Z"/><path d="M506.73,1905.18c-1.6-.4-3.18,1.09-5.36,3.15-2.38,2.24-4.34,4.09-3.94,5.83.53,2.33,4.57,1.19,7.56,4.57,2.24,2.53,3,6.59,3.63,9.93a10.92,10.92,0,0,0,1.57,4.57c.8,1.2,2.59,3.24,3.79,2.84s.25-3.44,1.89-8.35c1.08-3.22,2.33-4.27,1.73-6s-2.66-3-3.62-2.52c-.58.26-.5,1-1.26,3.62-.52,1.77-.89,3-1.26,3-.64,0-.07-3.58-2.37-6.31-1-1.19-1.63-1.14-1.73-1.89-.29-2.12,4.65-3.58,4.41-6,0-.25-.09-.39-.95-1.58C508.57,1906.92,507.43,1905.35,506.73,1905.18Z"/><path d="M475.52,1954c-2.61,0-5.38,2.25-5.36,4.1,0,1.5,1.85,1.58,2.52,3.94.56,2-.33,3.37.63,4.26.45.42,1,.44,2.05.47,1.67,0,2.18-.41,5.36-1.26,1.65-.44,2.2-.5,2.83-1.1a4.84,4.84,0,0,0,1.11-2c.75-2.12,1.31-3.71.63-4.73-.54-.82-1.42-.6-3.47-1.11C478,1955.61,477.74,1954,475.52,1954Z"/><path d="M494.75,1957.19c-2,.55-2.94,2.1-4.42,4.42s-3.16,5-2.05,6.93a3.32,3.32,0,0,0,2.53,1.58c2.42.19,4.35-2.88,4.72-3.47,1.14-1.8.84-2.74,2.21-3.94a11.19,11.19,0,0,0,1.74-1.57c.64-.79,1.18-1.44,1.1-2.05C500.39,1957.77,497.3,1956.48,494.75,1957.19Z"/><path d="M522.65,1948.52c-1.51,1.11-1.11,4.6.63,5.36a2.88,2.88,0,0,0,2.83-.63,3.07,3.07,0,0,0,1.11-3.15A3.29,3.29,0,0,0,522.65,1948.52Z"/><path d="M605.4,1580.14c-3.28,1.76-4,5.78-4.1,6.31-.53,3.23.88,5.72,2.37,8.35s3,5.31,6.46,6.78a9.5,9.5,0,0,0,13.72-8.35c.22-5.21-4.18-8.5-6.31-10.09C616,1582,610.14,1577.61,605.4,1580.14Z"/><path d="M577.82,1611c-.35.06-4.29.79-5.36,3.94a4.12,4.12,0,0,0,0,3c1.11,2.54,5.31,3.3,7.09,1.9.54-.43.46-.73,1.1-1.9,1.78-3.18,3.92-3.56,3.79-4.72C584.27,1611.81,580.8,1610.53,577.82,1611Z"/><path d="M588.06,1613.4c-2.22,0-3.4,3.72-3.46,3.94a8.69,8.69,0,0,0,.63,5.84c.47,1.24.7,1.86,1.26,2,1.59.54,4.76-2.5,5.2-5.84a5.75,5.75,0,0,0-.32-2.83C590.93,1615.4,589.7,1613.39,588.06,1613.4Z"/><path d="M1621.49,18.19c-3.19,3.06-.87,9.84,1.1,15.6,1,3,2.62,7.68,4.41,7.57,1.37-.08,2.15-2.9,3.15-6.15.95-3.05,2.26-7.45.95-12.61-.55-2.18-1.1-4.33-3-5.36A6,6,0,0,0,1621.49,18.19Z"/><path d="M1644,48.14c-3.56,2.36-1.44,10.82-1.26,11.51.52,2,.87,2.14,6.14,11.19,2.94,5,3.54,6.23,5.2,6.78a7.77,7.77,0,0,0,8.52-3.47c1.77-3.37-1.66-5.73-.79-12.61.43-3.42,1.43-4.08.79-6-.76-2.24-3.14-3.44-7.89-5.84-3.72-1.87-5.73-2.25-7.56-2.2A5.5,5.5,0,0,0,1644,48.14Z"/><path d="M1418.46,592.91c-2.37,2.53,1.86,6.26,0,14-.73,3-1.91,4.68-1,6.62s3.65,3,5.68,3c.34,0,3.68,0,5.51-2.36s.22-4.21,1.26-10.09c.49-2.76.75-4.21,1.9-5.68,2.55-3.26,6.85-3.21,6.77-4.09-.05-.72-2.94-1.05-7.25-1.42C1419.74,591.9,1419,592.38,1418.46,592.91Z"/><path d="M1407.42,712.39a3.61,3.61,0,0,0-1.57,4.73c1.25,2.12,6,1.6,6.78-.16.54-1.19-.81-2.82-1-3C1410.91,713,1409.13,711.66,1407.42,712.39Z"/><path d="M1292.51,1258c-4,9.93-13.48,8.39-19.54,19.7-.33.61-1.37,3.66-3.47,9.77-2.22,6.45-3.21,9.77-3.16,14,0,1.46.09,6.61,1.9,7.1,2.27.61,5.17-6.74,6.93-6.15,1.55.52.93,6.75.16,10.4a37.79,37.79,0,0,1-2.84,8c-2.13,4.9-3.31,5.82-3.78,6.15-2.07,1.46-3.58.94-4.41,2.36a4.77,4.77,0,0,0,1.41,5.68c1.22.83,2.43.42,9.46-1.58,6.32-1.79,6.76-1.86,8-2.52,3.25-1.67,3.07-2.59,6.94-5.2,5.37-3.63,6.67-2.5,9.61-5.36a20.82,20.82,0,0,0,4.89-8.51c1.37-4,.74-5.39,2.68-8.83a10.84,10.84,0,0,0,1.73-3.78c.1-.57.7-3.9-.94-5.52-2.56-2.52-8.38,1.25-15.45-.79a3.46,3.46,0,0,1-2.21-1.42c-1.26-2.2,1.56-6,2.37-7.09,2.12-2.87,3.26-2.69,4.73-4.89,1.2-1.8,1-2.76,1.89-7.88,1.18-6.81,2.11-8.43,2-13.08,0-2.56-.36-4.67-1.9-6a3.73,3.73,0,0,0-2.67-.95C1294.5,1252,1293.31,1256,1292.51,1258Z"/><path d="M1469.21,2072.74c-1.37,1.64,2.21,7.66,6.78,11.5,4.88,4.1,11.42,6.18,12.3,4.89.47-.7-1.15-1.77-6.94-9.3-2.55-3.32-3.85-5.21-6.62-6.46C1474.41,2073.22,1470.33,2071.41,1469.21,2072.74Z"/><path d="M1405.37,1875.86c1.05.05,2.05,3.13,1.58,5.67-.27,1.47-1.19,3.61-2.36,3.63a1.76,1.76,0,0,1-1.26-.79C1401.38,1881.86,1403.87,1875.78,1405.37,1875.86Z"/><path d="M1394.18,1906.44c.71,1,.09,3.26-1.42,3.78-1.8.63-3.88-1.66-3.62-2.84C1389.45,1906,1393.21,1905.13,1394.18,1906.44Z"/><path d="M1437.22,1922.83c-2.26,1-3.57,4.31-2.84,7.09s3.77,5.34,5.67,4.73c.88-.28,1.44-1.66,2.53-4.41,1.36-3.48,2-5.23,1.26-6.31-.64-.88-1.91-1.06-3.31-1.26A6.16,6.16,0,0,0,1437.22,1922.83Z"/><path d="M1419.88,1819.11c-2.15,2-1.07,5.78-.16,9,.61,2.14,1.71,6,3.62,6.14s3.37-3.17,4.1-4.73a9.53,9.53,0,0,0,1.26-5.83c-.14-.91-.61-4-3.31-5.2A5.26,5.26,0,0,0,1419.88,1819.11Z"/><path d="M1452.82,1757c-.84,1-1.76,2.13-1.42,3.31a3.14,3.14,0,0,0,3.31,1.9c2-.35,3.63-3.47,3.63-3.47s.86-3.93-.32-4.73S1454.28,1755.25,1452.82,1757Z"/><path d="M194.3,2171.57c-1.56-.07-2.56,2.86-5.83,9.46,0,0-2,3.95-4.25,8.2-3.89,7.17-4.77,7.66-4.89,10.08-.16,3.35,1.27,7.6,4.1,8.83,1.47.64,2.84.26,3,.79.3,1-5,1.82-6.46,5.36-1.8,4.35,3.3,10.16,4.1,11,1.2,1.33,1.81,2,2.68,2,2.51.17,3.52-4.29,9.14-9.77,1.2-1.17,2.36-2.15,3.94-3.47,2.37-2,3.79-3,6.31-5.2,3.63-3.17,3.87-3.84,3.94-4.41.29-2.57-2.9-3.56-2.68-6s3.56-4.77,6.62-4.89c2-.08,2.35.82,9,3.15,2.33.82,3,.95,3.79.95,2.8,0,4.92-1.64,6.46-2.84a23.82,23.82,0,0,0,4.73-5.36c4.08-5.64,6.12-8.47,5.36-10.25-.7-1.63-2.92-2.06-6.15-2.67s-8.56-1.64-13.08,1.1c-3.42,2.07-3.37,4.45-7.57,6.15-.65.26-3.86,1.55-5,.31-.75-.78-.08-1.91-.32-3.94-.2-1.66-1-4.16-2.68-5.36-3.32-2.42-8,1.82-11.66-.79C195.26,2173,195.35,2171.62,194.3,2171.57Z"/><path d="M197.61,2225.17c-3.36,2.89-1,9.46.63,12.45.8,1.41,2.74,4.9,5,4.73,2.84-.21,5-5.87,4.73-10.41-.1-1.76-.32-5.53-3.31-7.25A6.46,6.46,0,0,0,197.61,2225.17Z"/><path d="M1447.62,1957.51c-1.07,1.62-.11,4.58,1.89,6,1.73,1.22,4.65,1.58,6.15-.16a4.43,4.43,0,0,0,0-5.2C1453.82,1955.53,1449,1955.4,1447.62,1957.51Z"/></g></g></svg>