<svg xmlns="http://www.w3.org/2000/svg" viewBox="0 0 2011.39 2265.66"><g id="Layer_2" data-name="Layer 2"><g id="Jordan"><path d="M669.71,546.32c-11.93-11.71-20.87-21.63-27-28.7-6-6.91-8.65-10.49-14.56-15.29-6.28-5.09-7.73-4.7-21.7-14.27-9.11-6.25-13.71-9.43-15.73-12.67-2.27-3.65-5.27-6.78-7.87-10.2-1.49-2-2.32-3.09-3.49-3.06-2.69.07-2.7,6-7.72,9.47-2.45,1.68-6.36,2.95-8.89,1.46-2.11-1.26-1.31-3.3-3.49-5.1-1.61-1.33-2.91-.93-10.49-1-6.75-.08-7.91-.43-10.19.58-1.58.7-1.45,1.06-4.81,3.21-4.31,2.75-6.46,4.13-7.57,3.49-1.73-1,.72-5.28-.29-11.07-.93-5.25-3.52-4.95-6.56-11.5-4.18-9-1.25-13.8-6.26-18.5-1-1-1-.63-5.39-3.93s-6.63-5-7.43-6c-6.32-7.57,4.66-23.18-.73-27.68-.84-.7-2.4-.9-5.53-1.31-4.4-.57-7,.11-10.34.29-6.19.35-9.29.33-11.65-1.45-1.15-.87-2.37-2.86-4.81-6.85-.88-1.45-1.23-2.14-1.16-3.06.17-2.28,2.74-2.84,2.76-4.8,0-1.46-1.39-2.58-2.91-3.79-2.47-2-3.53-1.2-4.95-2.48-2.84-2.54-.4-6.89-2.91-9.46-.78-.8-1.86-1.25-6.7-1.31-10.23-.15-13.55,1.74-16.61-.3-2.7-1.8-.7-4.55-3.49-7-3.17-2.76-9.17-2.71-13.26-.58-3,1.56-3.38,3.42-5.82,3.5-1.56,0-2.15-.68-6.56-2.92-3.6-1.82-3.39-1.43-5.53-2.62-4.45-2.46-4.57-3.72-7.43-5.1a17.56,17.56,0,0,0-9.47-1.31,24.8,24.8,0,0,0-11.94,4.52c-3.91,2.59-3.64,3.7-8.3,7.28a36.6,36.6,0,0,1-10.05,6c-8.81,3.14-14.24-.74-16.46,2.33-2.63,3.65,3.61,11.11.88,13.69-1.24,1.17-2.64-.24-6.27.73-4.5,1.21-5.38,4.21-7.86,3.79-2.73-.47-2.45-4.23-5.1-4.81-2.95-.64-4.82,3.69-11.07,7-1.4.75-2.71,1.66-4.08,2.48-2.15,1.29-2.75,1.63-2.76,2.18,0,1.34,3.34,1.49,4.22,3.94a3.55,3.55,0,0,1-.44,3.35c-1.6,1.82-5.16-.22-6.7,1.6-1,1.15-.1,2.62-1,3.2-1.25.8-3.21-1.74-5.24-1.16-1.41.4-2,2.1-2.62,3.64s-1.72,5.36-.15,11.94a39.41,39.41,0,0,0,1.9,5.68c2.56,6.72,5,13.1,4.22,19.81-.69,5.89-3.7,10.62-5.1,12.82-2.39,3.76-4.06,4.8-6.11,9.17-1.75,3.72-3.1,6.6-2.19,9.61.55,1.81,1.46,2.23,7.14,7.72,4.45,4.31,5.45,5.57,5.1,6.27-.71,1.4-6.07-.95-7.43,1-.58.83,0,1.87,1.31,5.68,1.55,4.41,2.32,6.62,2.33,7.86,0,2.12-.75,3.12-3.79,8.89-1.74,3.3-3.39,6.59-3.78,7.42-2.81,6-.11,11.68,1.89,20.39,3.26,14.25,4.19,34.5,1.16,41.66-.46,1.1-2.1,4.44-1,7.86.45,1.43,1,1.62,1.46,3.35.67,2.43-.1,3,0,6.7.1,3.5.85,5-.29,6.41a3.84,3.84,0,0,1-1.46,1c-3.65,1.91-5.2,13.78-.58,24.61,1.75,4.12,3.29,5.48,4.22,10.05.62,3,1.27,6.23-.14,9.47-1.75,4-4.71,3.6-6.7,8a14.47,14.47,0,0,0-1,7.72c.58,4.85,3,5.1,3.2,8.59s-2.33,6.76-7.42,13.26c-3.55,4.51-4.9,5.33-4.81,7.43.14,3.37,3.78,3.78,5.1,8.3,1.06,3.64-.23,7.09-1.17,9.61-1.15,3.08-2.17,3.8-4.8,7.86-4.54,7-6.8,10.5-6.27,14.13.59,4,3.53,3.75,5.39,9.32,1.52,4.55-.07,5.8,1.17,10.78,1.1,4.43,2.8,5.23,5.82,10.78,3.92,7.18,5.88,10.77,5.39,14.85-.81,6.88-7.5,7.54-11.5,18.65a15.05,15.05,0,0,0-1.17,7c.35,3.29,1.85,4.83,4.08,9.61a72.27,72.27,0,0,1,3.06,8c1.39,4.49.86,6.37,1,16.17,0,0,.23,14.7,2.18,24.61.45,2.3,1.17,4.95,1.17,4.95a33.93,33.93,0,0,0,1.16,3.79,26.53,26.53,0,0,0,2.33,4.52c1.7,3,.35,7.63-3.79,16.31-2.83,6-4.55,8.72-6.4,12.23-3.88,7.36-5.72,13.06-8.89,22.87-2.23,6.91-2.69,9.38-6.12,22.28-6,22.75-5.76,19.5-7.28,26.51-3.34,15.44-4,28.3-4.51,38.89-.35,7.37-.33,12.38-.29,21.84.09,23.31,1.41,34.27-4.08,48.36a66,66,0,0,1-3.21,7l-28.54,57.09-1,17.92a4,4,0,0,0,.58,2.18,4.94,4.94,0,0,0,3.06,1.89c3.4,1,5.29,7.58,6.41,10.64,3.88,10.65,9.78,9.78,13.54,20.68,1.11,3.22,1.38,5.64,1.9,10.48.59,5.52,1.78,17.72-2.77,31-1.62,4.73-4.2,10.3-5.1,12.23-2.67,5.76-3.87,7.48-5.1,11.36a45.46,45.46,0,0,0-1.89,12.24c-.73,14.46.25,26.84-1.89,38.3a15.93,15.93,0,0,1-3.64,8,16.86,16.86,0,0,1-7.43,4.52c-5.72,1.84-8.65-.08-11.36,2.33-1.53,1.35-1.77,3-2.33,5.09-1.62,6-3.12,5.22-10.93,19.81-3.35,6.28-4.3,8.71-4.8,11.8a21.84,21.84,0,0,0-.15,7.86c.9,5,3.13,6.08,3.93,11.66.36,2.48.62,4.23-.29,6.11-.76,1.59-1.71,2-5.39,5.39a30.86,30.86,0,0,0-3.49,3.5c-2.32,3.48-.16,5.2-2,9.61-1.22,2.85-3.42,5.17-6,7.86-.92,1-1.63,1.64-1.75,1.75-6.23,5.94-4.39,34.61-15.15,52.58-2.59,4.33-2.94,3.08-12.38,15.88-5.61,7.6-8.45,11.5-10.63,16.16a67.19,67.19,0,0,0-5.68,21c-.79,7.63.36,9.58-.87,18.64a87.59,87.59,0,0,1-2.62,12.52c-3.15,10.62-6.3,12.58-11.07,25.2-2.4,6.33-3.59,9.49-3.94,13.11-.88,9.25,2.34,17,5.1,23.45,4.62,10.79,8.25,12.63,7.87,19.22-.25,4.27-2,7.59-3.94,11.22-3.53,6.65-5.77,6.6-10,13.69a42.8,42.8,0,0,0-5.53,13.25,41.06,41.06,0,0,0-.73,11.36c.38,9.34.46,28.83-.73,41.51-.26,2.83-.79,7.47,1.31,12.53,1,2.28,1.58,2.57,3.35,6.26,2.24,4.64,3.5,7.26,3.65,10.34.24,5-2.67,5.62-4.23,12.38s1,7.32-.44,12.52c-1.52,5.39-4.26,4.67-11.21,14.57-3.55,5.06-2.07,4.15-7.14,11.94-2.17,3.35-3.46,5.07-3.78,8a16.74,16.74,0,0,0,1.16,7.72c1.19,2.69,2.38,3.08,2.19,4.37-.36,2.36-4.43,2-8.16,5.1-3.16,2.66-1.77,4.25-6.12,11.65-2.91,5-5,6.79-4.22,8.74s2.91,1.09,4.81,2.77c3.85,3.41-.13,10.81-.3,24.61-.08,6.82.89,5.83.44,10-.71,6.77-3.17,9.17-9.32,21.26-2.81,5.54-4.74,10-8.59,18.79-3.25,7.44-4.32,10.35-5.25,14-1.67,6.6-.64,6.87-2.18,13.4-2.21,9.39-4.74,10.51-5.54,17.48-.53,4.66.31,6.73,1.17,13.11.56,4.19,2.08,15.45.73,24.18-2.57,16.57-14.52,17.72-18.06,35.39-1.33,6.64-.13,8.89-2.48,16.16-1,3-2.45,6.56-1,10.2,1,2.42,2.19,2.32,3.35,4.52,1.68,3.15,1.05,7-2.33,16.16-2.36,6.44-4.46,11.12-5,12.24-1.68,3.79-6.34,14.55-7.57,27.09-.69,6.94.34,7.8-.29,25.78-.06,1.55-1.81,5.76-.3,6.84,1.21.86,3.26-1,6.7-1.75a15.9,15.9,0,0,1,9.47,1.17l505,91.61L723.16,2095,836,1903.15l344.45-70.93q39-88.92,77.92-177.83,75.08-44.87,150.16-89.72-228.52-269.09-457-538.16l471.75-141.57,264-77.19,185.55-52.14,138.51-127q-8.3-33.08-16.6-66.13L1895,588.7q-14.13-47.78-28.25-95.54l46.6-12.38L1778.07,0,908.86,554.33a106,106,0,0,0-10.93,7.57c-.25.2-.74.61-1.45,1.16a70.2,70.2,0,0,1-6.85,4.67c-4.47,2.83-4,6.92-9.46,12.23a28,28,0,0,1-7.58,5.24Z"/></g></g></svg>