<svg xmlns="http://www.w3.org/2000/svg" viewBox="0 0 2341.9 1286.67"><g id="Layer_2" data-name="Layer 2"><g id="Kazakhstan"><path d="M1230.12,1243.62c-.74,4.91.25,6.69,1.26,7.42,2.17,1.55,5.47-1,7.28.84a4.57,4.57,0,0,1,.42,5c-.76,1.3-2,1.35-2.38,2.8-.22.86.17,1.09,0,2.37a4.94,4.94,0,0,1-1,2.66c-1.12,1.32-2.45.58-4.34,2-.7.52-1.93,1.67-1.68,2.38.33.91,2.72.25,5.18.7,3.93.73,4.4,3.6,9.66,7.7,1,.76,3.87,2.33,9.66,5.46,3.69,2,5.86,3.08,9,3.5,1.88.26,3.48.45,5-.42,3.34-1.86,4.3-7.38,2.8-8.54-1.18-.91-3.22,1.38-4.48.56-2.64-1.7,4.31-13,.42-17.35-2.07-2.34-5.81-1.13-6.3-2.94-.54-2,3.47-5.62,5.74-4.9,1.26.39,1.31,1.92,4.06,4.2,1.2,1,1.7,1.12,2.1,1.12,1.48,0,2.87-1.73,3.36-3.36.68-2.27-.72-3.19,0-4.9.58-1.39,1.78-1.45,4.48-3.08a49.24,49.24,0,0,0,5.46-4.34c3.46-3,5.19-4.44,5.6-5.32,1.7-3.7-.94-6.16,1.12-9,1-1.4,1.62-.71,4.2-3.08,1.86-1.71,2-2.53,3.92-3.78,1-.69,2.8-1.88,4.06-1.26.87.43.79,1.4,1.67,1.68s1.58-.31,2.66-1c2.71-1.68,3.27-2.46,4.48-2.38,1,.07,1.48.69,1.82.42.51-.41-.68-1.75-.42-3.5s1.74-2.85,2.94-3.78c1.61-1.24,1.93-.85,3.22-1.82,2.72-2,2.06-4.33,4.34-5.74,1.19-.73,1.33-.08,4.76-.7a38.51,38.51,0,0,0,7.28-2.24c1-.39,2.38-.89,4.06-1.68a51.82,51.82,0,0,0,6.72-3.78,58.51,58.51,0,0,0,8-6.44c4.63-4.27,7-6.4,8-9,1.29-3.23.55-4.76,2.38-6.44,2.05-1.9,5.24-2,6.86-2.1,1.79-.08,2.71-.12,3.78.42,2,1,2.12,2.88,4.2,3.5a3.23,3.23,0,0,0,2.51-.14c1.18-.74.7-2.17,1.54-4.06,1-2.18,2.2-1.65,4.34-4.34,2-2.54,1.5-3.73,3.36-4.9a10.87,10.87,0,0,1,3.5-1.26c2-.4,3-.09,3.36-.7.2-.4-.1-.78-1.26-3.08-1-1.91-1-2.2-1-2.52.14-1.19,1.43-1.42,2.66-2.66.48-.48.94-1.09,2.38-6.16,1.25-4.35,1.33-5.37,2.24-5.74,1.66-.66,3.74,1.71,4.34,1.12.32-.31-.09-1.11-1.26-4.2-1-2.51-1-2.85-.84-3.22.62-1.28,2.89-.26,4.9-1.82,1-.77.65-1.19,2.52-4.2a21,21,0,0,1,2.66-3.64c1.29-1.34,1.76-1.33,3.78-2.94,3-2.38,2.72-3,4.48-4.06a11.4,11.4,0,0,1,6.16-1.4c4.51.11,5.43,2.51,8.26,1.68,2.06-.6,2.33-2.11,5-2.8a11.75,11.75,0,0,1,3.64-.14c7.28.21,9.29-1.14,11.75.56.92.64.67.85,2.24,2.1a13.36,13.36,0,0,0,4.62,2.66c1.36.41,3.44,1,5.32.14,2.36-1.11,2.23-3.57,3.78-3.78s1.82,1.84,4.9,4.34a20.91,20.91,0,0,0,8.12,3.92c.33.09,1.25.25,3.08.56,7.24,1.26,7,1,8.26,1.4a22.49,22.49,0,0,1,7.7,4.62c2.88,2.37,2.51,2.92,4.48,4.06,2.57,1.49,5.06,1.63,8.54,1.82,1.86.1,2.7,0,8.12.14a11.47,11.47,0,0,1,2.38.14c2.76.83,2.9,3.55,6.43,6.44a10.68,10.68,0,0,0,3.22,2c1,.39,4,1.66,5.46.42.66-.56.77-1.42.84-3.08a49.92,49.92,0,0,0-.14-7.14c-.61-5.47-1-8.8-.14-12.74.43-2,.74-2.12.84-3.64.27-3.74-1.46-4.83-1.4-8,0-.63.09-.79,2.66-6.85,2.27-5.34,2.54-6,3.5-6.86,1.17-1.06,1.2-.47,5.6-2.66,3.71-1.85,4.23-2.54,6-2.66,2.23-.16,3,.79,4.34.28s1.31-1.62,3.08-5.18c1.54-3.11,2.49-5,3.5-4.9s1,2.12,2.8,3.08c.63.33,1.15.36,3.92.14,3.66-.29,5.5-.45,6-1,1.6-1.64-.2-4.29,1.12-5.32,1.5-1.18,6,.61,8.4,3.64,1.24,1.54,1.41,2.73,3.08,3.78,1.44.91,2.28.64,4.06,1.12,3.23.88,5.34,3.11,7.41,5.32,2.44,2.58,2.32,3.54,4.62,5.18a9.22,9.22,0,0,0,4.06,2c2.77.42,4.28-1.06,6,0,.89.53.69,1,1.82,2a7.8,7.8,0,0,0,3.92,1.54c4.17.65,5.6,4,12.6,6.85a33,33,0,0,0,9.94,2.38c2.76.22,3.44-.45,6.44-.14,2.75.29,3.88.9,7.56,1.68s5.3,1.39,6.16,1c1.54-.72,2.29-2.67,3.78-6.58,1.23-3.23,1.17-4.17,2.24-4.75.91-.5,1.75-.24,5.74.7,3,.7,4.45,1,4.89,1.12,4.46.69,4.86-.9,8.68-.28.62.1.4.1,7.28,2.51a22.45,22.45,0,0,0,3.92,1.26c2.78.35,3.51-.86,8.12-2.1,3.84-1,6.8-1.81,9.94-.83a5.32,5.32,0,0,0,2.1.42c2.39-.17,3.47-2.52,5.18-4.06,2.41-2.18,5.47-2.21,10.64-2.24,4.11,0,9.2-.07,12.18,3.22,1.12,1.24.9,1.8,2.1,2.66.76.54,2.54,1.52,9.09.7,3-.38,2.66-.59,4.9-.84,4.81-.55,5.23.54,10.22.28,4.38-.24,5.75-1.16,8,0,1.38.71,1.49,1.39,3.08,2,2.44.87,3.44-.31,5.46.42,2.36.86,2,2.82,4.06,3.64,1.49.6,2.53-.08,7.7-2,5.9-2.14,7.77-2.42,8.68-1.54s.35,1.92,1.26,2.38c.31.17,1,.35,3.5-1,2.08-1.1,2.16-1.51,3.36-2.1a8.67,8.67,0,0,1,6.16-.56c2.09.67,1.84,1.79,4.2,3.36,3,2,4.6,1,9.93,2.94,3,1.1,2.29,1.35,4.9,2.24a20.38,20.38,0,0,0,10.22,1.26c3.89-.65,5.27-2.4,6.44-1.54,1.59,1.18-.47,4.73,1.54,8.12a7.59,7.59,0,0,0,3.08,2.8l13.86,13.86c4.53,2.18,6.7,1.77,7.84,1s1.1-1.88,2.38-2.38,2.13.16,5.88,1.68a37.92,37.92,0,0,0,5.88,2.1c3.27.75,3.85.09,5,1,1.92,1.44.73,3.4,2.65,6s4,1.69,5.6,4.34c1.4,2.3.43,3.94,2.1,5.32a4.57,4.57,0,0,0,3.78.84,5.46,5.46,0,0,0,3.08-2.38c.29-.37,3-3.83,1.82-5.74-.73-1.21-2.16-.4-3.78-1.68-2.15-1.7-2.38-5.32-1.82-7.7.35-1.47.72-1.29,1.4-3.36a12.67,12.67,0,0,0,.84-6.44c-.68-3.42-3.23-3.61-3.36-6.44-.06-1.31.48-1.53,2.1-5,2.51-5.42,1.89-6.32,3.36-7.42,2.33-1.73,3.87.55,8-1.12a56.4,56.4,0,0,0,6.44-4.2c1.71-1.18,2.7-1.22,2.8-2,0-.36,0-1.34-5.32-4.47-4.09-2.43-5.4-2.65-5.6-3.78-.3-1.75,2.41-3.54,4.9-5.18,3.12-2.07,6.4-4.24,10.64-4.06,2.21.09,3.51.77,4.9-.14.72-.48,1.34-1.3,2-4.06,1-4.42,1.88-8.34-.14-10.22s-5.11-.27-5.88-1.82c-.33-.66.43-2.08,2-4.9,2.47-4.57,2.68-4.93,2.8-5.6.3-1.64-.08-4.09-3.22-7.56l-12.6-29.25c-.32-1-.77-2.38-1.26-4.06a79,79,0,0,1-2-7.84,75.1,75.1,0,0,1-.7-7.7c-.64-8.93-.6-9.45-1-11.48-.63-3.41-1-3.35-1.68-7.28-.92-5.43-.51-7.39-.28-8.26.47-1.79,1-2.09,1.4-4.2a11.63,11.63,0,0,0,.14-5.46c-.55-1.93-3-3.92-7.84-7.84-2.12-1.71-3.1-2.39-3.64-3.92-.72-2.08.12-3.62-.84-4.34-.59-.44-1.89-.06-4.48.7a23.83,23.83,0,0,1-3.92,1.12c-1.51.2-3,.41-3.77-.42-1-1.1.57-2.85-.14-4.61-.42-1-1.62-2.13-5-2.66l15.25-12.18c2.71,1.92,4.26,1.92,5.18,1.54s.91-1,2-1.4c1.54-.56,2.41.5,4.76.56a6.84,6.84,0,0,0,3.22-.56c2.39-1.17,1.85-3.35,4.06-4.48a5.44,5.44,0,0,1,5,.14c1,.59,1,1.24,1.82,1.4,1.26.25,2-1.24,3.64-2.38,3.22-2.29,8.4-2.24,11.62-.7a6.61,6.61,0,0,0,2.1.84,6,6,0,0,0,5.32-2.1c1.11-1.42.42-2.15,1.4-3.08,1.48-1.42,3.3,0,6.16-1.12,1.92-.78,1.5-1.6,3.92-2.94s2.76-.61,5.74-1.82c3.48-1.42,4-2.81,5.73-2.52s2,2,3.78,2.24c.39,0,1.74.13,4.9-2.8,3.46-3.2,3-4.38,5.18-5.74s5.71-2.12,8.12-.7c1.79,1.06,1.31,2.33,4.34,6.44,1.83,2.48,2.77,3.72,4.2,4.06,2.73.64,5.48-1.81,6.16-1,.37.45-.41,1.2,0,1.82.64,1,2.9-.36,4.62.84,1,.73,1,1.76,1.68,1.82,1,.08,1.1-1.89,2.8-2.66,1.32-.6,1.9.3,4.34-.14,1.66-.3,1.56-.74,2.52-.7,1.43.06,1.76,1.07,4.62,2.94a10.45,10.45,0,0,0,2.94,1.54,6.64,6.64,0,0,0,7.7-2.52c2.76-3.46,2.25-9,.28-12.74-1.45-2.75-3.53-4.27-5.74-5.88-4.65-3.39-7.12-2.88-9.66-6.16a11.25,11.25,0,0,1-2.38-5.74c-.28-2.79.8-4.21,2.1-8.4a48.5,48.5,0,0,0,1.82-8.53c.77-7.16-1.19-10.53,1-12.32,1.6-1.33,3.15.12,5.18-1.26,2.28-1.55,2.22-4.66,2.94-9.52,1.14-7.78,1.43-9.18,2.66-11.48.8-1.51,1.27-1.89,2.38-4.06a37.24,37.24,0,0,0,2.66-6.86q4.82-13.23,9.65-26.46c.43-1.06,1-2.65,1.68-4.61.91-2.78,1.33-4.66,1.82-6.58.87-3.37,1-3,2.8-9.24,2.18-7.34,2-7.62,3.5-12,1.43-4.21,1.53-3.76,2.52-7,1.65-5.36,1.36-6.54,2.66-7.42s2.74-.23,10.64,1.82c6.14,1.6,6.56,1.48,8,2.38,3.46,2.19,2.66,3.95,6.3,6.44,1.36.93,3.66,1.74,8.26,3.36,4.2,1.48,3.81,1.13,5.88,2,5.81,2.32,6,3.89,9.66,4.48,3,.49,2.62-.66,7-.28,3.43.29,5.28,1.13,7.84.14a9.49,9.49,0,0,0,2.66-1.68c3.33-2.52,7.68-1.56,13.44-1.12,12.35.94,16.59-1.64,19.6,1.82,1.21,1.4.59,1.9,2.24,4.34.23.34,5.1,7.42,9.24,6.58s3.24-8.8,10.78-13.44a18.24,18.24,0,0,1,3.22-1.54c3.14-1.15,5.72-1.15,14.13-1.26,3.29,0,4.95-.09,5.74-1,1.26-1.42.29-3.22,1.26-6.16.8-2.42,2-3,3.36-4.9,3.34-4.82,3.39-12.73.84-18.06-1.23-2.57-2.63-3.63-2.8-6.44-.15-2.62,1-3,1.26-6,.37-3.93-1.43-5.12-2-9.79-.41-3.68.58-4,.56-7.7,0-6.85-3.38-8.37-4.62-15.54a31.23,31.23,0,0,1,.56-12c1-5.23,2.92-8.81,6.72-16,5.75-10.83,8.35-12.11,9.94-12.6s1.26.06,6.44-.56c5.94-.7,5.87-1.33,9.66-1.54,4.29-.22,5.57.52,8.12-.56,2.17-.92,2-2.3,4.06-3.08,2.58-1,4,.44,6.72.28,4.06-.22,7-3.66,9.1-6.15,3.27-3.87,1.8-4.69,6-10.5,1.42-2,2.53-3.17,3.08-5.46.46-1.88.11-2.75.84-4.9.8-2.35,1.65-2.64,1.82-3.92.37-2.68-3.34-3.26-4.48-6.44-.83-2.33.85-5.57,4.2-12,3.2-6.16,4.42-6.84,5.32-7.14,2.37-.77,3.57.8,7,0,3-.7,2.91-2.11,5.18-2.38,4.18-.48,6.63,4.09,9.1,2.94.83-.38,1.25-1.47,2.1-3.64,1.3-3.31,2-5.21,1.26-6.3-1.8-2.49-9.41,2.53-15.26-.84a16.46,16.46,0,0,1-3.08-2.38,13.24,13.24,0,0,1-3.5-4.9c-1.36-3.66,1.51-6.13.14-7.69s-4.42.4-5.88-1.26c-1.14-1.31.31-3-.7-6.44a6.7,6.7,0,0,0-1.82-3.5c-2.83-2.47-7.21.49-9.23-1.68-1.47-1.57-.53-4.57-.42-4.9.9-2.89,3.11-3,6.15-6.58,1.25-1.47,4.32-5.12,3.22-7.56-.47-1.07-1.95-1.6-4.9-2.66-3.12-1.13-4.68-1.69-5.87-1s-1.56,2.46-2,4.9c-.59,3.55.21,3.92-.28,5.6-1.43,4.81-9.71,7.29-10.64,7.56-1.44.41-4.58,1.14-6,3.36a12.87,12.87,0,0,0-.7,1.26,21.17,21.17,0,0,0-1.26,4.06c-.51,1.7-1,3.33-1.68,3.36s-.77-2.13-2.52-3.22c-.81-.51-1.9-.48-4.06-.42s-3.77.1-4.9,1.12c-.55.49-.62.86-1.12,1-1,.23-1.92-.86-3.08-2a27.2,27.2,0,0,0-4.06-3.22c-3.85-2.41-7.08,1.68-11.62-.28-3.28-1.42-2.89-4.12-5.88-4.62-3.19-.54-5.65,2.22-7.28,1-1.15-.88-.61-2.81-1.54-3.08s-1.52,1.58-3.78,2.66c-.27.13-2.87,1.33-4.89.28-1.45-.75-2-2.33-2.52-4.2-1.74-6.15-1-7.43-2-10.22-1.23-3.51-2.92-2.94-10.08-11.9-1.69-2.11-3.11-4-2.52-5.74s2.94-1.74,3.5-3.64c.66-2.25-1.9-4.83-2.52-5.46-2-2-3.13-1.7-6.72-3.64a41.88,41.88,0,0,1-8.12-5.88c-2.92-2.69-3.6-4.13-5.46-4.2-2.18-.07-3.4,1.83-4.9,1.12-1.2-.56-.79-2-2.24-2.94a5.49,5.49,0,0,0-4.2-.42c-2.43.62-2.93,2.3-4.48,2.1-1.16-.14-1.9-1.21-2.52-2.1-1.23-1.77-1.35-3.37-1.82-6.29a56.81,56.81,0,0,0-1.26-6.58c-1.26-4.59-2.48-4.93-2.24-7.28.28-2.74,2.09-3.8,1.4-5.18s-2.27-.74-4.2-2-2-2.7-3.78-6.58c-1.59-3.42-1.56-2.32-4.9-8.54-2.14-4-3.21-6-3.63-6.86a19.51,19.51,0,0,0-2.52-4.34,17.65,17.65,0,0,0-4.62-3.92A32.85,32.85,0,0,0,2135,434c-3.73-1.29-4.27-1.2-5.6-2.1-2-1.37-1.59-2.1-3.5-3.64-2.48-2-5.33-2.41-8.82-2.94-2.1-.31-2.2-.15-5.32-.42-8.22-.71-10.74-2.14-12.32-.56-1.21,1.22,0,2.37-1.68,5.32a9.52,9.52,0,0,1-3.64,3.78,9.89,9.89,0,0,1-3.78,1.12,11.35,11.35,0,0,1-6.16-.42c-2.13-.86-2.53-2-3.78-1.82-1.47.26-2.29,2.14-2.52,2.66-1.07,2.46.3,3.45-.56,5.6-.23.58-.47.88-4.47,4.34-2.05,1.77-3.08,2.66-3.36,2.8-2.5,1.25-6.23,1.52-8.4-.14-.34-.25-.86-.72-2.1-1.68-1.77-1.35-2.08-1.45-2.38-1.4-1.07.19-.87,2-2.24,2.94-1.07.71-2.2.27-4.2,0-3.24-.43-3.35.34-6.72.14a25.29,25.29,0,0,1-8.26-2c-3.6-1.53-4.14-2.82-6.3-2.66-1.35.11-1.52.64-4.76,2a25.44,25.44,0,0,1-5,1.68c-2.78.53-3.11-.23-8-.28-3.74,0-5.3.38-5.88-.56s.54-1.73.56-3.78-1.06-2.91-2-5c-1.85-4.38.43-6.31-1.12-8s-6.21-1-15.67.28c-1.61.22-3.93.54-4.62-.56-.51-.8.33-1.63,1-4.34.81-3.41,0-4.14,1-5.74,1.17-1.81,2.59-1.33,3.5-3.07a5.07,5.07,0,0,0-.56-5.32c-1-1.1-1.88-.77-5-2a14.81,14.81,0,0,1-4.34-2.1c-2.23-1.79-2-3.36-4.76-5.6a9.8,9.8,0,0,0-2.1-1.4c-2.13-1-3-.42-5.32-1.12-2.76-.84-3.43-2.29-4.48-1.82-.43.19-.72.6-1.4,3.5-.95,4-.81,5-1.68,5.74-.65.58-1.37.63-4.34.56-6.42-.16-7.91-.52-8.4.28s1.11,2.1,2.24,5.74c.69,2.19.22,2.21.84,5.31,1,5.2,2.61,6.3,1.82,8.68a7,7,0,0,1-2.66,3.36,9.67,9.67,0,0,1-3.36,1.26c-3.94,1-5,.56-7.56,1.68a6.06,6.06,0,0,0-2.66,1.68c-1.79,2.36.31,5.2-1.12,6.72-1.6,1.7-5.19-.85-7,.84s.19,6.53-.42,6.72-3.19-5.75-3.78-7.14c-.93-2.22-1.64-4.08-2.09-5.32q-23.17-49.54-46.34-99.1l-30.51-53.62q-12-21.63-24.08-43.25l-19.6-30.24-42.27-38.77-33.88-29a9.56,9.56,0,0,1-3.64-3.64,11.53,11.53,0,0,1-1.12-3.5,16.29,16.29,0,0,1-.28-3.92c.11-2.11.18-3.55,1-3.92s1.34.51,4.34,2.1c2.5,1.33,3.26,1.39,3.64,1.4.59,0,1.34-.09,3.5-1.26,2.87-1.55,4.3-2.32,5.46-3.78a38,38,0,0,0,2.24-4.9c.72-1.7,1.39-3.32,2.1-5.32.79-2.21,1.19-3.33,1.12-3.92-.34-2.91-3.86-3.9-3.5-5.31.3-1.18,2.75-.63,5.6-2.52,2-1.36,3.93-3.73,3.36-4.9-.45-.93-2.33-.87-3.36-.84-1.64,0-2.21.47-7.28,2.66-2.11.91-2.85,1.19-3.5,2.1-.81,1.11-.32,1.56-1.26,2.94-.83,1.21-1.52,1.3-2.66,2.94-.64.91-.47,1-.84,1.39-1.16,1.41-2.8,1-6.86,1.68-3.19.52-3.76,1-5.18.56-.8-.25-.87-.48-3.08-2.1-3.76-2.74-4.67-2.86-5.32-2.79a4.16,4.16,0,0,0-2.52,1.4c-.6.63-1.26,1.66-2,7-.32,2.48-.31,3.21-1,3.78-1,.88-2.74.56-4.06.14l-26,12.74c-3.24.4-5.35.53-6.72.56-1.17,0-2.33.14-3.5.14a7.57,7.57,0,0,0-2.1.14c-.27.08-2.16.61-2.52,1.82-.44,1.5,2,2.33,2.38,5a7.14,7.14,0,0,1-.7,3.78,13.1,13.1,0,0,1-3.22,4.76c-3.44,3.38-4.77,2.37-9.1,5.74-1.45,1.13-1,1.05-6.72,6.16-.91.82-1.69,2.55-2.66,2.38s-1-2.18-2.52-2.8c-.78-.32-1.12.07-2.66.28-2.13.28-2.85-.3-7.28-.42-1,0-1.63,0-2.1.42-.65.61-.35,1.45-.56,2.94-.29,2.18-1.49,4.48-2.52,4.48-.51,0-.53-.57-1.4-1a3,3,0,0,0-3.36.42c-.63.79.16,1.59,0,3.5a6.15,6.15,0,0,1-1.82,4.06c-1.64,1.45-4.43,1.77-5.45.7-.52-.54-.2-1-.84-2s-1.81-1.82-2.66-1.54c-.56.18-.82.81-1.26,2.8-.9,4-1.35,6-.56,7.14,1.06,1.49,2.84,1,3.22,2.24.31,1-.86,1.76-2.38,4.19-2.14,3.41-1.73,5-3.08,5.46-2,.64-4.58-2.29-4.9-2.66-1.92-2.16-1.53-3.63-3.08-5.45-2-2.35-5.08-3.73-6-2.94-.71.58.23,2-.56,2.8-1,1-4.15.43-5-1.26-1-1.85,1.47-3.61.56-5.46s-4.45-1.94-6.86-2c-2.6,0-3.38.6-3.64.84-.89.81-.56,1.55-1.4,3.08-.73,1.33-2.42,3.37-4.06,3.22-.83-.09-.89-.66-3.36-2.38-1.74-1.22-2.07-1.18-2.24-1.12-1,.33-.29,2.37-1.68,4.62-.79,1.28-1.26,1-2.8,2.93-1.31,1.66-1,1.87-2,2.94-1.57,1.72-2.51,1.25-4.34,2.94s-1.53,2.76-2.66,3.08c-2,.56-5.2-2-5.32-4.48-.08-1.72,1.4-2.6.84-3.78-.28-.59-.77-.6-2.94-1.68a13.3,13.3,0,0,1-2.93-1.67,5.76,5.76,0,0,1-1.82-4.62c.26-2.33,2.23-2.32,3.77-5.46.19-.39.6-2.23,1.4-5.88.84-3.82,1.09-5,2.24-5.88s1.81-.21,2.94-1c2.54-1.73.8-6,2.94-7.42,1.19-.8,2.1.24,6.16.56,2.94.23,5.85.46,7.42-1.12,1-1,.65-2,1-6,.57-6.95,2.18-9.19.56-11.06a4.41,4.41,0,0,0-3.64-1.4,4.77,4.77,0,0,0-3.08,1.82c-1.16,1.49-.47,2.47-1.54,3.5-1.23,1.19-2.58.31-3.5,1.4s.21,2.3-.7,4.34c-.39.9-1.3,2.23-2.38,2.24-.91,0-1.35-.94-2.24-1.68-1.61-1.35-3.19-.74-6.44-1-5.72-.42-6.08-2.72-11.61-2.8a4.57,4.57,0,0,1-2.66-.42c-1.53-1-1.25-2.77-2.8-6.58-.84-2.06-1.28-3.1-2.24-3.64-1.13-.63-1.63,0-4.76-.28a12.34,12.34,0,0,1-4.48-1c-1.22-.55-1.07-.78-2.38-1.4a12.93,12.93,0,0,0-4.34-1.12,10.47,10.47,0,0,0-3.92.14c-3,.8-6,3.7-5.46,5.88.38,1.53,2.42,2.3,2.66,2.38,1.88.69,2.88-.3,4.34.56a4.88,4.88,0,0,1,1.82,2.38,13.63,13.63,0,0,1,.7,3.22c.39,2.46.29,2.69.14,2.8-.48.35-1.37-.57-3.5-1.54-1.94-.88-3-1.37-4.2-1.12-2.34.49-3.67,3.53-3.78,3.78-.68,1.61-.5,2.84-1.4,3.22a2.29,2.29,0,0,1-1.82-.28c-.93-.48-1-1.12-1.68-1.82-1.51-1.54-3.49-.84-3.92-1.82-.27-.63.52-1,1.54-2.94.89-1.65.44-1.59,1.82-5.18.55-1.42.77-1.83.56-2.38-.48-1.27-2.51-1.28-2.52-2,0-.19.15-.56,2.8-1.54s3.07-.81,3.64-1.4c1.11-1.13,1.55-3.78,0-5.18-.49-.44-.9-.31-4.06-.42s-3.73-.26-4.2-.42c-.84-.28-2.72-.91-3.22-2.38-.33-1,.31-1.34.7-3.92a6.62,6.62,0,0,0,0-3.5c-.32-.89-.68-.91-2-2.52s-1.18-2-2.24-3.22a13,13,0,0,0-3.22-2.65c-1.93-1.21-3.35-2.08-4.34-1.54-1.4.76-1,3.85-1,4.33.29,2.41,1.35,2.58,1.4,4.48.08,2.54-1.78,3.26-1.26,5s2.8,2.71,3.36,2.94c1.78.74,2.71.28,3.43,1.18a2.89,2.89,0,0,1,.07,3.16,3.13,3.13,0,0,1-2.24,1.4c-1,.12-1.78-.34-4.62-2.66-2.51-2.06-3.77-3.09-5.18-4.48a18.07,18.07,0,0,0-2.38-2.24,12.22,12.22,0,0,0-4.33-2c-1.36-.29-4.77-1-6.44.7-.36.38-.32.53-1.26,3.92a30.73,30.73,0,0,0-1.12,4.2c-.3,2.54.4,3.28-.14,4.2-.68,1.15-2.23.84-6.58,1.12-5.5.36-6.92,1-7.84,0-1.33-1.51.67-4-.7-5.32-1.2-1.12-3,.61-7-.14a4.35,4.35,0,0,0-2.38,0,5,5,0,0,0-2.24,2c-1.31,1.73-1,2.32-2,3.22s-2.35,1.47-3.36,1-.71-1.6-1.4-3.22c-1.54-3.64-5.16-3.62-5.32-6-.12-1.85,2-2.87,1.4-4.06-.45-1-1.88-.44-3.22-1.54-1.69-1.38-2.25-4.51-1.09-5.77.53-.58,1.21-.54,4.73-.53a32.09,32.09,0,0,0,5.46-.14c3.17-1.34,5-7.51,3.08-11.33-1.27-2.49-3.24-2.2-4.06-4.9-.58-1.94-.12-3.91.42-6.16A9.51,9.51,0,0,1,1416,85a5.37,5.37,0,0,1,2.38-2.38c1.65-.63,2.65.55,3.5,0,1.5-1,1.06-6.37-1.68-8-1.14-.68-1.69-.1-5.74-.42-2.72-.21-4.1-.34-5-1.12s-.92-1.41-2-5.18-.84-2.59-1.82-6.3a61.71,61.71,0,0,1-1.54-6.44,22.15,22.15,0,0,1,.56-7.7c.62-2.4,1.15-2.76,1.82-4.9,1.14-3.64,2-6.64.7-8.82s-3.71-1.09-7-4.19a10.43,10.43,0,0,1-3.36-5.18c-.46-2,.12-3.19-.84-5.46-.5-1.19-.89-2.13-1.82-2.52-1.81-.77-3.38,1.56-5.32.84-1.54-.58-2-2.58-2.66-2.38s-.29,1.59-1.12,2.1-1.74-.23-2.94-.7a10.17,10.17,0,0,0-7.69.14c-1.27.6-2,1.47-3.5,3.22-1.9,2.22-1.66,2.79-3.08,4.48-.87,1-3.65,4.31-7.28,4.2a9.13,9.13,0,0,1-4.34-1.54c-1.46-.87-1.31-1.22-2.94-2.38a22.08,22.08,0,0,0-5.74-2.8c-3-1.14-2.89-.65-3.78-1.26-2.48-1.71-1.46-3.95-4.06-6.3-1.06-1-1.2-.56-4.06-2.52-2.17-1.49-2.3-1.86-3.22-2.38-2-1.16-3.64-.55-8.26-.14-1.66.15-10.3.92-11.06-1.26,0,0,0,0-.28-2a15.59,15.59,0,0,0-4.48,1.4c-1.21.59-1.54,1-3.08,1.68-2,.92-3.18,1.47-4,1s-.43-1.5-1.4-2.94c-.79-1.17-1.39-.94-3.92-2.66-.91-.62-.82-.64-3.78-2.8-1.3-.95-1.82-1.31-2.66-1.4a4,4,0,0,0-2.8.84,3.88,3.88,0,0,0-1.54,3.5A4.32,4.32,0,0,0,1287,7c.92.73,1.21.48,2,1.12a3.94,3.94,0,0,1,1.4,3.92,2.73,2.73,0,0,1-1.54,1.68c-2.19.66-4.24-3.43-10.36-6.86-2-1.09-3.15-1.47-3.78-1s-.21,1.45-.42,4.2a25.65,25.65,0,0,1-.7,4.2c-.09.36-.43,1.46-1.12,3.64s-1,3.24-1.54,3.64-1.06.4-3.08.7-2,.43-3.78.7a43.49,43.49,0,0,1-11.2.14c-1.55-.2-1.59-.3-2.94-.42-3.32-.3-6.22-.56-7,.7-1,1.61,1.29,6.13,4.48,8.54,1,.74,2.48,1.59,2.8,3.21a2.73,2.73,0,0,1-.42,2.24c-.93,1-2.56.2-3.08,1s1.13,2.16,1.12,4.2a4.7,4.7,0,0,1-1.54,3.36c-1.21,1.09-3.34,1.07-7.56,1-1.51,0-2.64-.11-2.94-.14a42.55,42.55,0,0,1-5.32-.7c-2.65-.53-3.12-.91-4.47-.7a4.67,4.67,0,0,0-2.8,1.26c-.8.86-.58,1.52-1.26,4.06-.61,2.28-.92,3.41-1.82,4.2a10,10,0,0,1-3.22,1.4,12.88,12.88,0,0,1-2.52.7c-2.2.31-3-.48-4.2.14-.91.46-.66.95-1.54,1.54-1.81,1.22-4.81.46-6.72-.84-1.18-.8-1-1.17-2-1.54-2.42-.94-5.14.86-5.32,1a18.64,18.64,0,0,0-1.82,1.68,26.2,26.2,0,0,1-3.5,2.52c-3.45,2.06-6.21,0-11.76,1.68-3.18,1-3.52,2-6.86,2.52-2.2.34-2.73,0-5,.28-3.18.42-4.71,1.43-7.28,2.38-3.22,1.2-3.22.5-9.93,1.82-7.3,1.43-10.94,2.14-14.84,4.48a31.65,31.65,0,0,1-4.76,2.66c-3,1.26-3.82.94-6.44,2.24-2.78,1.37-3.7,2.65-4.34,2.24-1.08-.68,1.24-4.43-.56-7.7a3.67,3.67,0,0,0-1.4-1.68,4.14,4.14,0,0,0-3.22.14,8.69,8.69,0,0,0-3.92,2.52c-.8.91-.59,1.07-2,3.08a11.67,11.67,0,0,1-2.1,2.66c-1.69,1.23-3.81,1-5.32.84a10.69,10.69,0,0,1-4.62-1.54c-1.41-.9-1.42-1.42-2.52-1.82-1.73-.63-4.13-.18-4.62,1-.61,1.46,2.28,2.89,1.82,4.48-.55,1.91-5.49,2.38-9.94,2.8-3.66.34-4.73.11-5.73,1.12-1.72,1.72-1.19,5-.84,7.14.57,3.58,1.25,4.3,1.54,8.12.29,4-.52,5-.84,5.32-1.52,1.5-4.25.91-4.62.83-3-.64-6.19-3.47-7.84-6.43-.37-.67-.78-1.54-1.68-1.82s-1.34.17-3.64,1.12c-2.6,1.06-2.6.8-3.5,1.4-1.43.94-1.33,1.52-2.8,2.38a6.83,6.83,0,0,1-2.8,1,7.73,7.73,0,0,1-4.48-1.26c-1.92-1.08-2.15-1.93-3.08-1.82s-1.06,1.18-2.8,2.66a19.38,19.38,0,0,1-3.36,2,13.38,13.38,0,0,1-4.06,1.67,9.31,9.31,0,0,1-3.5-.42c-1.84-.31-2.68,0-8.82,1.4-3.83.86-5.75,1.29-6.58,1.4-4.24.57-7.28.26-7.42,1s1.79.78,2.38,2.24c.78,1.93-1,5.36-3.78,6.16a5.07,5.07,0,0,1-4.47-.84c-1.78-1.45-1.23-3.54-3.08-4.62a4.92,4.92,0,0,0-2.8-.42,16,16,0,0,0-6.3,1.82,77.22,77.22,0,0,1-7.56,3.08c-.25.08-.09,0-6,1.4a39.83,39.83,0,0,1-6.58,1.26,19.09,19.09,0,0,1-4.34,0c-2.46-.32-3.09-1-3.78-.56-1.55,1,.8,4.83-1,7.14-.62.81-1.44,1-7.28,1.68-5.21.59-7.82.88-8.54.84-2-.1-6.29-.56-9.1,0a12.51,12.51,0,0,0-1.54.42,17.28,17.28,0,0,0-3.08,1.68A19,19,0,0,1,923,135.8c-4.15,2-1,15.11-4.33,16.38-1.63.63-4.32-1.85-4.9-2.38a7,7,0,0,1-2-2.66c-.23-.55-1.11-2.71-.14-4.2a20.52,20.52,0,0,1,1.68-1.68,3.66,3.66,0,0,0,1.12-1.4,2.36,2.36,0,0,0,0-1.54c-.68-1.44-5.28-.07-12.88.42a65,65,0,0,1-7.28.28c-2.76-.18-5.08-.68-5.46.14-.23.5.51.94,1.12,2.8a4.46,4.46,0,0,1,.28,3.08,3.16,3.16,0,0,1-2,1.82c-1.16.34-1.59-.39-3.92-.84-2.06-.4-2.76,0-3.36-.7s-.13-1.64-.84-2.38c-.56-.59-1.26-.39-2.8-.56a17.32,17.32,0,0,1-4.9-1.4c-1.91-.89-2.39-1.67-3.22-1.4-.6.2-.71.73-1.68,2.38-1.17,2-1.76,3-2.38,3.08-1.22.17-2.53-2-3.92-4.34-.86-1.44-1.5-2.86-1.54-2.94-1.12-2.5-.85-2.9-1.54-3.5-1.67-1.46-4.86-.5-5.6-.28a18.26,18.26,0,0,0-2.38,1c-1.27.6-1.66.92-2.38,1.26-2.14,1-3.46.11-4.05.84s-.06,2.82,1,3.92c.45.49.6.39,1.11.88a6,6,0,0,1,1.68,4.09c0,.48.09,3.51-1.68,4.2a2.44,2.44,0,0,1-2.62-.63c-.67-.82,0-1.58-.52-2.41-.75-1.17-2.9-1-6.09-.74a5.45,5.45,0,0,0-2.31.53c-.26.13-2.08,1.09-2.1,2.51,0,1.23,1.29,2.12,1.89,2.52,2.13,1.45,3.94.89,7,2.21a5.61,5.61,0,0,1,2,1.36,5.92,5.92,0,0,1,.94,1.47c.85,2.09-1.29,5.13-2.2,6.41-2.19,3-3.3,2.93-5.57,6.19-1.54,2.21-1.11,2.38-2.1,3.26-2.62,2.31-5.64,1.11-6.82,3.15a3.52,3.52,0,0,0,.1,3.36c1.32,2.27,5.19,2,5.67,2,2.7-.18,3.28-1.47,5-.94,1.17.35,1.23,1,3.26,2.2a17.52,17.52,0,0,0,3,1.37c3.46,1.28,6.12,2.26,7.35,1.15.89-.81.21-2,1.15-2.73s1.88-.25,4.52.32c4.82,1,5.94.65,6.61,1.78.78,1.3.09,3.15-.1,3.67a10.29,10.29,0,0,1-1.68,2.52c-2.13,2.92-1.77,3.25-2.63,3.78-1.73,1.09-4.43.52-6.09-.63-1.43-1-1.13-1.76-2.73-2.83-.5-.34-2.55-1.72-4.62-1.05-1.69.55-2.51,2.2-3,3.25-.89,1.78-.49,2.47-1.47,5-.59,1.56-.84,1.56-1.36,2.84s-2.09,5.08-.74,7.14,4.51.16,8.71,2.94c1.87,1.23,2,2.12,3.78,2.62s3.33,0,4.62,1.16c.7.59.47.92,1.05,1.57,1.71,1.9,5.91,1.77,8.93.21,2.23-1.15,2.19-2.25,3.46-2.31,2.38-.11,2.86,3.69,6.83,7.14,1.3,1.13,4.4,2.4,10.6,4.93,3.66,1.5,4.71,1.7,5.88,1.58a2,2,0,0,1,1.36.1c1,.59.64,2.25.53,5.67-.15,4.51.29,5.49-.63,6.3s-1.59.2-3.68,1.26c-1.55.79-1.44,1.25-2.41,1.47-.44.1-1.24.19-4.62-1.36-2.48-1.14-2.37-1.34-3.36-1.58-1.93-.46-2.44.25-4.62.11-3.22-.21-3.6-1.86-5.46-1.47-2.55.54-2.76,3.85-4.72,3.88-.67,0-1-.37-4.1-3.46-2.75-2.74-3.4-3.35-4.3-3.26-.29,0-.44.12-2.84,1.89-1.86,1.38-2,1.47-2.31,1.58a4.27,4.27,0,0,1-4.51-1.37c-.68-1-.2-1.64-.84-2.2-1.29-1.12-4.37.54-4.93.84a10.44,10.44,0,0,0-3.26,2.73c-2.23,2.85-8.48,10.16-17,20.16a34.13,34.13,0,0,1-4.83,1.78c-1.09.31-1.45.34-1.89.74s-1,1.31-.94,5.24c0,2.7.05,4,.52,4.52,1.32,1.29,3.32-.43,5.78,1.05a4.94,4.94,0,0,1,2.2,2.83,4.49,4.49,0,0,1,0,1.79c-.64,5.33-.39,5.93-.1,6.3.48.62,1.22.8,2.62,1.15,1.15.29,1.67.16,3.26.53,1.2.27,1.8.41,2,.73.63,1.05-1.55,2.42-1.26,4.62.08.62.28.65,1.37,2.63.72,1.31,1.45,2.76,1.78,3.57a12.51,12.51,0,0,1,.84,5.87l-16.38,13.44-13,2.63-18.06,14.8-11.34-.1,2.41,10.28c1.29.78,2.85,1.46,3.89.84,1.2-.7.82-2.61,1.78-2.94s1.77,1.43,4.2,3.15a65.15,65.15,0,0,0,6.2,2.84c2.65,1.15,4,1.73,4.2,1.78,2,.54,3.62.5,4.41,1.68a2.78,2.78,0,0,1,.42,1.47c0,1.78-1.6,2.82-4.31,5.67-2.06,2.17-3.08,3.27-2.83,4.1.35,1.15,2.29.53,4.72,2.31,1.81,1.32,1.84,2.46,3.57,3.25a6.22,6.22,0,0,0,3.46.42h19.64c-.94,4.83,0,6.9,1.05,7.88.79.7,1.64.78,2.31,1.89,1,1.65.07,3.06.94,4.19s2.87,1,3.78,1a60.28,60.28,0,0,1,12.91.94l7.46,2.94c3.18-.09,4.79.84,5.67,1.68,1.69,1.63.91,3.13,3,5.78.78,1,.89.77,3.68,3.57,2.13,2.14,2.6,2.79,2.41,3.15-.3.55-1.89-.22-4.62.52a3.74,3.74,0,0,0-1.36.53c-.77.61-1,1.73-.74,6.72.17,2.72.32,3.42,0,4.72a9.21,9.21,0,0,1-1.36,3c-1.28,1.93-2.91,8.54-4.94,25.73l-34.22,13.22L791.81,455l-7.88-8.71a6.09,6.09,0,0,0-1.36-7.67,5.5,5.5,0,0,0-8.09,1.79c-.5.91-.24,1.12-.84,3.15s-1,2.19-.94,3.25a7.49,7.49,0,0,0,.63,2.52c.55,1.53.91,1.83,1,2.42.23,1-.25,2.57-3.47,5.14l-7.34,9a84.8,84.8,0,0,0-13.23,3.15c-.8.26-2.3,1.8-3.89,1.36s-2.35-2.17-2.62-3.36c-.14-.58-.49-2.08.31-2.94s2.2-.2,2.84-1.05.06-2.19-.42-2.94a4.93,4.93,0,0,0-4-1.89l-30.13-4.72a22.06,22.06,0,0,1-3.57-2.31c-1.61-1.27-2.42-1.91-2.94-2.94-1.12-2.2,0-3.79-1.16-4.72-.42-.35-.65-.19-3.25-.42s-3-.28-3.47-.53a3.5,3.5,0,0,1-1.78-3.15c.2-1.47,1.9-2.2,1.68-2.62s-1.64.47-2.94-.11a4.22,4.22,0,0,1-2-2.73c-.58-2.67,1.92-3.95,1.58-7.24a9,9,0,0,0-.74-2.52,14.13,14.13,0,0,0-2.41-4c-1-2.33-2-3-2.83-3.15-1.77-.35-2.87,1.62-4.94,1.26a4.71,4.71,0,0,1-2.83-2.1c-1.48-2.22-.4-4.51-2.1-5.88a2.18,2.18,0,0,0-1-.52c-1.12-.2-1.82.72-3.78,2.1-2.23,1.56-2.51,1.21-3.15,2.1-1.09,1.51-.36,2.65-1.37,3.46s-2.77.54-3.88-.11c-1.4-.8-1.19-1.89-2.52-2.3-.77-.24-1,.06-2.63-.21-1.17-.2-1.16-.39-1.57-.32-1.43.23-1.41,2.4-2.73,2.83-1,.35-1.93-.67-4.09-2a25,25,0,0,0-4.62-2.2l-2.21,19.94a12.22,12.22,0,0,1-4.3-.63c-1.7-.57-2.33-1.23-3.89-1.57-1.29-.29-2.76-.6-3.88.1-1.93,1.22-1,4.34-2.42,5-.7.35-2,.14-4.83-2.52l-10-10.92a2.87,2.87,0,0,1-1.57-1.68c-.25-.91.35-1.37.31-2.62,0-.12-.09-2.06-1.26-2.73-.62-.36-1.61-.07-3.57.53a35.76,35.76,0,0,0-3.67,1.36c-1.37.58-1.43.67-1.89.84-2,.71-3.42,0-5.67-.42-4.43-.78-4.62,1-9.24.21-2-.35-3.42-.95-4.1-.21-.21.24-.47.73,0,2.73.88,3.67,2.6,5.57,2.1,6.09-.32.33-1-.41-2.83-.63s-2.39.46-3.78.21a6.13,6.13,0,0,1-3.68-2.84c-1.5-2.45-.44-4.49-1.67-5.35-.57-.39-1.71-.6-4.31.84.84,5.81.06,7.68-.94,8.19-.75.38-1.88.15-3.15,1.15a3.26,3.26,0,0,0-1.16,1.47c-.4,1.2.38,1.92,0,2.52s-1.45.29-3.78.21c-3.44-.12-4,.48-5.56-.21s-1.78-1.62-2.42-1.47c-.24.06-1.24.45-1.36,6.51-.13,6.34.89,9.1-.95,11.66a6.56,6.56,0,0,1-1.78,1.68q-9.3,6.6-18.58,13.22a5.94,5.94,0,0,1-4,1.68c-1.17,0-1.56-.5-4.41-2.1-3.88-2.17-4.73-2.17-5.25-3.36-.71-1.61.32-2.85-.63-3.78-.66-.64-1.71-.59-3-.52-1.89.09-2.37.65-3.67.63a5.73,5.73,0,0,1-3.57-1.47l-14.49-12.39c-1.67-.47-2-1-2.1-1.36-.1-.78,1.21-1.11,2.52-3.15a5.29,5.29,0,0,0,.95-2.52,2.36,2.36,0,0,0-.21-1.58c-1-1.36-4.81-.35-5.36-.21a5.36,5.36,0,0,1-1.78.32,5.8,5.8,0,0,1-2.42-.74c-3.44-1.57-3.55-1.52-3.78-1.89-.8-1.29.23-2.55-.52-3.36s-2.14.59-3.57,0c-1.73-.71-1-3.13-2.94-4.83a6,6,0,0,0-5.78-.94c-1.61.63-1.65,1.75-3.57,2.31-1.66.49-2.36-.15-3,.52-1.1,1.09-.25,3.73,0,4.52a3.89,3.89,0,0,0,.73,1.57c.71.76,1.56.76,4.31,1.26,2.36.43,2.57.58,2.73.74,1.38,1.32.54,4.32.42,4.72-.45,1.52-1,1.65-1.26,2.94a6.53,6.53,0,0,0,.63,4c1.2,2.79,5,11.8,2.2,16.59a14.78,14.78,0,0,1-6.72,5.35c-2.28,1-4,1.67-5,.95s-.23-1.86-1.37-3.89c-1-1.73-1.92-1.57-2.52-2.94-.48-1.11-.26-2.13.74-5.35,1.27-4.14,1.45-4.21,2.14-6.62,1.07-3.73.23-2.08,1.41-6.94a4,4,0,0,0,.12-2.61c-.19-.46-.79-1.49-4.09-2.41-3.09-.86-4.07-.39-6.09-.95a11,11,0,0,1-5.46-3.67c-.24-1.34-2-10.75-5.46-15.75a12.08,12.08,0,0,0-2.84-3c-2.11-1.57-3.2-1.21-5.46-2.42-3.53-1.89-2.76-3.78-5.67-4.93-1.71-.68-3.48-.6-7-.42-2.08.1-3.19.34-4.62-.32a6.63,6.63,0,0,1-2.73-2.52c-1-1.43-1.18-2.65-1.78-6.72-.83-5.57-.85-6.17-1.58-7.14a9.52,9.52,0,0,0-4.51-2.94c-2.67-.92-3.51-.07-4.83-1.05-2-1.48-1-4.12-2.63-5.67-.68-.64-1.3-.45-7.87.11-3.37.29-4,.31-6,.52-2.55.27-3.82.41-5.15.63-.82.15-2.05.38-3.88.63-2.3.33-2.66.28-2.94.21-1.83-.42-2-2-3.47-2.94-2.29-1.47-5.67-.22-9.13,1.05-2.29.85-4.65,1.47-6.93,2.31a3,3,0,0,1-2.21.21c-1.68-.69-1.86-3.67-1.88-4.4L334.8,359.39a4.18,4.18,0,0,0-2.1-2.63c-1.43-.66-3,0-5.46.95-1.73.69-3.78,1.78-3.78,1.78a31.41,31.41,0,0,1-4.2,2.31c-1.91.8-2.88.6-6,.95s-5,.07-6.82,1.26a7.89,7.89,0,0,0-2.73,3,8,8,0,0,0-.74,2.42c-.31,1.81,0,2.52.21,5.56.13,2.31.18,3.48-.31,4.2-.73,1-1.48.66-3.05,2.1-1.31,1.2-1.37,2-2.31,2.2a2.74,2.74,0,0,1-2.41-.94c-1.22-1.35-.11-2.84-1.26-4.83-.12-.2-1.21-2-2.63-2-1.19,0-2.15,1.41-3.15,2.83-.53.76-.54.94-.84,1.36-1.64,2.33-5.51,2.73-8,2.42a10.5,10.5,0,0,1-5-2.1,7.22,7.22,0,0,1-2.1-2.73c-.63-1.19-1.7-3.18-1.05-4,1-1.21,4.46,1.81,7.14.42,2.19-1.13,3.26-4.89,2-7.14-.75-1.34-2.22-1.87-4-2.52a15.24,15.24,0,0,0-4.2-.84,86.52,86.52,0,0,0-9-.21c-1.79,0-4.42.06-7.66,0a21.17,21.17,0,0,1-3.26-1.47c-1.33-.74-2-1.12-2.31-1.78-.56-1.25.51-2.09.11-3.26-.59-1.71-3.9-2.76-4.94-1.78-.81.75.38,2.13.95,6.93.31,2.67,0,2.32.31,5.56.29,2.62.59,3.4,0,4.1-1,1.2-3.45.81-4.62.42A2.72,2.72,0,0,1,240,371c-.63-1,.13-1.82-.32-3.15a3.88,3.88,0,0,0-2-2.1,4,4,0,0,0-4.31.84c-.22.24-.54.65-1,2.63a29,29,0,0,0-.73,3.78c-.54,4.39-1,4.43-1.36,8.18-.32,3.26.42,3.74-.21,4.52-1.91,2.34-8-.8-9.14,1.05-.9,1.44,2.4,3.91,1.37,6.3-.21.47-.39.5-4,2.94-1.78,1.2-2,1.39-3.57,2.41a28.06,28.06,0,0,1-3.57,2.21c-1.92.64-2.31-.09-4.94.52-.36.09-1.37.45-3.36,1.16s-3.17,1.13-3.46,1.26c-2.15.92-3.38,2.27-5,4s-3.93,4-7.14,7l-18.37.11a22.58,22.58,0,0,0-4.2,5.24,9.64,9.64,0,0,0-1.16,2.94,8.68,8.68,0,0,0-.1,2.63c.34,2.68,2,3.38,3.15,6.09.61,1.5,1.14,2.86.73,4.3-.58,2.07-2.75,3.09-7,5-2.47,1.13-3.18,1.2-5.46,2.21a41.11,41.11,0,0,0-6.61,3.67l-14.6,14.07-10.81.1,6.72,35.7c2.41,1.85,2.45,3.3,2.41,3.78-.08,1.12-1,2.4-1.89,3.67-.78,1.11-1.12,1.34-1.05,1.79.13.79,1.3,1,3.78,2.1,2,.92,3,1.4,3.57,2.2,1.15,1.73.39,4,.21,4.52a7,7,0,0,1-4.41,4l-18.58,10.08-8.71,1.47L92.7,516.13a14.09,14.09,0,0,0-.42-6.19,10.6,10.6,0,0,0-2.94-5.15,9.82,9.82,0,0,0-3.67-2.1,24.22,24.22,0,0,0-1.79-4.83A29.28,29.28,0,0,0,80.73,493a65.37,65.37,0,0,0-4.19-5c-3.9-4.28-4.17-3.91-6.3-6.41-4.24-5-4.53-8-6.83-8.19-1-.09-2.58.33-4.72,3.15L47.35,487.26c.74,4.56-.26,6.84-1.37,8.08s-2.44,1.75-2.62,3.26c0,.26-.07.9,1.15,3.15,1.57,2.88,2.28,3,2.52,4.3.37,1.92-.83,3.66-1.57,4.73-2,2.83-3.86,2.43-4.94,5a9.29,9.29,0,0,1-1.15,2.73,7.59,7.59,0,0,1-2.41,2c-2.21,1.32-3,1.07-5,2.21s-1.52,1.43-3.15,2.2c-2.64,1.24-4.22.47-5.46,1.79a4,4,0,0,0-.95,2.83L15.12,574.4l15.12,13.12-.42,8.93-12,10.5-3.36,2.51L0,653.14l33.91,14.07c-1,8.06-.89,14.07.11,15.54a3.08,3.08,0,0,0,1.57,1.36c.73.18,1.18-.19,2.1.11.3.09.94.29,1.05.73.06.24,0,.63-1.26,1.68a11.33,11.33,0,0,1-3.15,2.1c-2,.84-2.71.49-2.94,1-.38.92,1.64,1.88,3.15,5,.42.88.23.74,1,2.41,1.25,3,1.71,3.09,1.68,4-.09,2-2.31,2.32-2.21,4,0,.67.94,1.58,2.73,3.36,1.2,1.2,1.55,1.44,2.41,2.31A38.41,38.41,0,0,1,43,714.35c1.17,1.36,4.66,5,6.3,4.3,2.6-1.06-1.21-12.15,1.79-13.65,1.79-.89,3.57,2.86,9.45,4.41,3.63,1,3.8-.25,10.18.63,4.54.63,5.14,1.33,8.29,1.26,4.36-.1,4.66-1.47,7.46-1.15,3.22.36,5.4,2.58,9.76,7,3.57,3.64,5.35,5.45,6.93,8.4,3.36,6.26,2.34,10.65,6,12.49,1.36.69,2.56.61,4.41,2a11.06,11.06,0,0,1,3.14,3.78,111.93,111.93,0,0,1,6.51,15.85c2.49,7.75,3.73,11.62,6.93,16.06,7.23,10,9.77,12.29,9.77,12.29,1,.87,3.24,2.81,3.36,5.56a6.71,6.71,0,0,1-1.37,4.1,8.46,8.46,0,0,1-4.3,2.83,15.69,15.69,0,0,1-6.83.63,8.34,8.34,0,0,1-3.15-.53,9.13,9.13,0,0,1-3.67-3.35c-.82-1.29-.76-1.86-1.47-2.21-.89-.44-1.84,0-3.36.63-4.86,2-5.28,1.37-6.09,2.42-1.62,2.08-1.09,5.89.42,6.61,1.18.56,2.29-1,3.36-.53,2,1-.56,7.2,1.78,8.82,1.17.81,3.35.35,6.93-.42a6.54,6.54,0,0,1,3.47,0,3.87,3.87,0,0,1,1.89,1.16c1,1.26.1,2.43.63,3.88.64,1.78,2.56,1.54,7.87,4.31,1.57.82,1.58.93,4,2.2,2.59,1.37,2.8,1.3,4.62,2.31,3,1.68,2.91,2.08,4.31,2.42a12.71,12.71,0,0,0,4.93,0c1.9-.35,2.63-.89,3.36-.42s.56,1.54,1.05,3,1.39,2.34,3.25,4.2a25.34,25.34,0,0,0,5.67,4.2c1.63.89,3.07,1.67,3.47,1.26s-1.13-2.93-2.94-5.56c-2-3-3.29-4.3-2.94-4.73s1.81.25,2.52.63c1.94,1,2.12,2.11,4.62,4.2a17.26,17.26,0,0,0,2.2,1.58c1.53.91,2.81,1.68,3.47,1.26,1.1-.71-.6-4.11.52-4.83.68-.45,2.06.31,2.84,1,1.1,1,.74,1.79,2,3.57.65.91,1.44,2,2.63,2.09a2.52,2.52,0,0,0,1.78-.73c.44-.42,1-1.26.84-3.57a20,20,0,0,0-1.15-4.83,52.7,52.7,0,0,1-1.16-6.61c-.49-3.44-.46-4.31.11-5,.68-.89,1.47-.71,2.83-1.58a8.74,8.74,0,0,0,3-3.78c2.73-5.15,9.28-11,14.7-15.85.56-.49,1.52-2.39,3.57-3,1.22-.39,1.5.1,2.42-.21,1.76-.6,1.91-2.65,4.3-7.56,1.19-2.45,2-3.64,3.36-4.41a3.92,3.92,0,0,1,2.63-.63c1.66.3,1.83,1.9,3.15,2.1,1.06.16,1.81-.75,4.3-3.05a54.05,54.05,0,0,1,4.2-3.67c.91-.68,1.64-1.12,6.4-3.47,3.71-1.83,5.57-2.74,5.88-2.83,4.36-1.26,5.84.33,9.14-1.26,2.31-1.12,1.71-2,4-3.15,2.48-1.3,5.32-1.09,10.91-.63,4.17.34,3.71.62,6.62.73,5.29.21,6.61-.7,8.29.42,2.64,1.77,3.45,6.7,1.79,8.3-.81.77-3.74.49-9.56-.11-1.56-.16-2.89-.31-2.94-.1s3.08,1,6.93,3a33.6,33.6,0,0,1,4.2,2.63c5.89,4.15,7.76,9.16,9.24,8.61,1.15-.43.43-3.56,1.89-4.1.71-.26,1.23.35,3.57,1.47,1.91.92,3.84,1.84,4.41,1.26s-.11-1.73-.42-2.41c-1.23-2.73-3.19-3.44-2.94-4.1.33-.85,4.1-.87,5,.84a2.57,2.57,0,0,1,.21,1.26c.08,3.38-.61,4.46,0,5.46.41.67.82.36,2.73,1.26,2.63,1.25,2.86,2.32,5,2.94,1.21.34,2.62.43,2.73.11.22-.65-4.57-3-7-6.3-.22-.3-.59-.84-.42-1.26.34-.79,2.35-.63,3.68-.53,2,.16,3.11.25,4.09,1.05,1.19,1,.79,1.82,2,2.63s1.52.15,3.15.84,2,1.71,2.94,1.57c.55-.08,1-.61,1.89-1.68,1.25-1.52,1.11-1.82,1.89-2.62,1.43-1.49,2.42-1,3.15-2.1s0-1.65.1-4.1c.16-3,1.25-3.39.74-4.72-.66-1.69-2.55-1.42-3.47-3.47-.4-.89-.66-2.31-.1-2.73.82-.6,2.64,1.52,7.35,3.57.41.18,1.41.61,2.73,1.05a20.45,20.45,0,0,0,4.93,1.26c2.75.29,3-.5,4.62.11,1.47.54,1.7,1.32,3.36,1.68a6.22,6.22,0,0,0,2.73,0c1.93-.47,2.22-1.65,3.88-1.89a4.52,4.52,0,0,1,2.52.42c2,.84,2,2.23,4.2,4.2a14.9,14.9,0,0,0,4.1,2.52c2.48,1,3.38.58,4.2,1.57s.65,2.56.31,4.94c-.53,3.69-1.59,4.28-1.05,5.77s1.73,1.2,3.68,3.68a15.23,15.23,0,0,1,1.89,3.25,16,16,0,0,1,1.15,5.46c.18,4.18-1.26,4.87-.52,7.66.57,2.19,1.47,1.82,1.88,4,.51,2.6-.48,4.58.74,5.67.53.48.89.24,1.26.74.94,1.23-1,3.1-.21,4.3.52.82,1.7.38,4.62,1.68.89.4,1.11.59,1.15.84.13.81-1.87,1.15-3.36,3.15a8.82,8.82,0,0,0-1.36,3,12.34,12.34,0,0,0-.42,2.94c-.18,4.18.78,4.47.31,6.62,0,.15-.79,1.68-2.31,4.72a14.59,14.59,0,0,0-1.47,3.57,13.43,13.43,0,0,0-.21,3.47,27.9,27.9,0,0,0,.53,4c.48,2.65.71,2.75.52,3.15-1,2.12-7.83-.46-8.92,1.47-.88,1.56,2.51,5.19,6.08,9,1.58,1.69,2.94,2.95,4.86,4.74,2.95,2.76,3.14,2.72,6.27,5.6,3.92,3.61,4,4,5.89,5.32.89.62,2.27,1.43,5,3a25.69,25.69,0,0,0,4,2.1c2.08.81,4.45,1.73,5.56.74s.84-3.72-.42-5.57c-2-3-5.33-1.77-7.87-5-.35-.44-2.07-2.65-1.26-4.41s3.67-2.39,5.25-1.47c1.08.64.86,1.63,2.62,4,1,1.38,1.59,2.13,2.31,2.1.93,0,1.27-1.31,3.15-4.3,1.51-2.4,2.29-3.61,3.36-4.1,1.72-.78,2.64.21,4.2-.73,1.25-.75,1.15-1.67,2.31-3.05a10.1,10.1,0,0,1,5.35-2.93,12.93,12.93,0,0,1,7.67-.11c5.58,1.93,4.18,7.49,11.23,12.18,2.16,1.44,4,2.07,4.62,4.09.75,2.55-1.41,4.36-.42,6.09s3.85.28,6.4,2.21c3.1,2.34,1.36,6.49,4.92,9.06,1.05.75,1,.22,3.48,1.44,3.1,1.48,5.62,2.7,6.83,5.14s.14,4.21,1.57,5.25,3.7-.22,4.2.63-.83,2.55-2.31,3.67c-2.15,1.63-3.49.88-5.46,2.21-1.75,1.18-1.31,2.19-3.36,5.14-1.12,1.62-1.31,1.41-6.09,6.09-3.78,3.72-3.95,4.14-5.25,4.73s-3.21.62-7.13.73c-6.24.18-7.43-.34-8.19-1.15-1-1.07-.56-1.9-1.68-2.73-1.63-1.21-4-.58-5.46-.21a15.17,15.17,0,0,0-4.2,1.89,76.91,76.91,0,0,0-6.72,4.41c-2.08-.3-7.9-.91-13.23,1.47a21,21,0,0,0-4.2,2.52,19.85,19.85,0,0,0-4.09,4.51A25,25,0,0,0,404,957.7c-2.17,4.85-3,9.93-4.52,15.23-2.88,10.32-5.94,13.74-7.66,15.22a9.72,9.72,0,0,1-4.52,2.52c-2.83.58-4.59-.73-5.45.21s.91,2.8.84,6.19a11.23,11.23,0,0,1-3.05,7,8.54,8.54,0,0,1-4.93,3.15c-3.14.48-5.68-1.58-6.72-2.42-3.19-2.58-7.44-8.67-4.62-13.85a9.61,9.61,0,0,1,9.34-4.73c3.11.47,3.64,2.7,5.57,2.52,3.33-.31,4.44-7.28,8.08-16.9,2-5.24,4.26-9.58,8.82-18.27,5.13-9.78,7.78-13.39,10.92-16.59,1.91-1.95,6.74-2.9,7.77-6.4a8.5,8.5,0,0,0,.21-3.36,9.5,9.5,0,0,0-2-4.1,7.57,7.57,0,0,0-1.78-2c-1.42-1-3.06-1-4.94-.84a55.7,55.7,0,0,0-10.83,2.09c-2.59.71-4.15,1.24-5.18,1.61-2.25.81-3.73,1.49-4.36,1.76-5,2.12-13,2.64-19.94.1a30.08,30.08,0,0,1-4.52-2.1c-4.73-2.6-5.39-4.34-8.82-6.09-2.93-1.49-5.51-1.76-8.6-2.1-5.5-.58-6.71.64-11-.41a45.24,45.24,0,0,1-6.61-2.84c-7.18-3.39-7.44-4.06-10.61-5.14-2.84-1-6.27-2.16-10.49-1.58-3.81.52-6.81,2.78-10.5,5.36-3.43,2.39-3.55,3.13-5.67,3.81-3.36,1.07-4.85-.22-8.12,1.26a10.48,10.48,0,0,0-4.2,3.36c-.33.46-.69,1-2,4.9a37.8,37.8,0,0,0-1.82,6.3c-.27,3.44,1,4.49,0,5.88-.6.84-1.23.69-5.18,2.1a19.21,19.21,0,0,0-4.06,1.68,8.4,8.4,0,0,0-3.36,6.44c0,3.06,2.19,3.42,6.86,10.35a53.4,53.4,0,0,1,5,8.4c1.3,2.94,1.37,4.1,2.8,5,1.95,1.29,3.55.27,7.14,1.82a20.3,20.3,0,0,1,2.94,1.68c2.37,1.52,5.22,3.34,4.9,4.62-.14.53-.77.77-1.68,1.12a9.78,9.78,0,0,1-5.18.42c-3-.51-3-1.41-5.88-2.1-.52-.12-5.35-1.22-6.44.56-.58,1,.41,1.89-.14,2.8-.82,1.35-4.13,1.16-6.72.28-1.91-.65-3-1.51-8.4-6.3-4.2-3.71-5.09-4.54-6.72-4.62-2.17-.1-2.28,1.3-5.6,2.1a16.89,16.89,0,0,1-9.24-.7c-2.67-.87-2.16-1.33-4.33-2-.61-.17-6.63-1.79-11.48,1.82a11.72,11.72,0,0,0-2.94,3.22c-.45,1.15-4.18,11-.14,15.12a28.14,28.14,0,0,0,5.46,3.64,40.8,40.8,0,0,0,4.48,2.1,40.11,40.11,0,0,0,6.71,2.24c2.35.53,2.19.21,6,.84,3.67.6,5.53.92,7.14,2a10.75,10.75,0,0,1,3.5,3.78c2.8,4.75-1.53,8.3.56,12.46,1.74,3.45,5.09,2.15,7.7,6.3,1.52,2.4.63,3.22,2.1,8.67a43.87,43.87,0,0,0,3.92,9.8,53.23,53.23,0,0,0,6.72,9c4,4.61,5.53,5.55,6.3,8.54.46,1.79.15,2.42.28,6.3.21,6.19,1.23,6.07.84,8.54-.61,3.92-2.71,4.4-2.8,8.4,0,1.36-.08,3.52,1.4,4.62,1.23.91,2.89.37,5.32-.28,6.74-1.8,10.11-2.69,11.9-1.82,2.5,1.22,1.28,3.62,5,8.4,2.66,3.38,3.66,2.68,5.6,5.74,1.83,2.89,1.12,3.83,3.5,8.11,2.15,3.9,3.61,4.72,4.33,5a8.47,8.47,0,0,0,4.76.42c5.12-.57,5.69-3.05,8.54-2.8,4.16.37,5.73,5.89,8.54,5.18,1.36-.34,1.12-1.66,2.94-2.52,2-.92,3.11.21,7.14.56,4.32.39,6-.65,7,.56,1.1,1.41-.73,3.46.42,4.76,1.3,1.49,4.42-.3,6,1.54a8.59,8.59,0,0,1,1.12,2.1,15.65,15.65,0,0,1,.7,2.1c.6,2.55-1.63,6.08-1.68,6.16-4,6.31-2.39,12.21-9.1,23.38-4.51,7.51-7.39,8.44-7.56,13.3-.12,3.45,1.3,3.91,1.26,9.38,0,3.15-.53,6.57,1.4,8,.74.55,1.42.48,1.68,1.12.5,1.22-1.54,2.36-2.1,4.76-.38,1.62-.13,4,.84,4.48,2.18,1.15,7.63-7.2,15.68-15.11a105,105,0,0,1,19.18-14.42c4.3-2.47,14.11-5.38,33.73-11.2,8.16-2.42,16.29-4.71,27.3-5,.76,0,2.91-.8,5.32,0a10,10,0,0,1,5.18,4.48l35.13,30.38.14,8,28.7,42.28a6.29,6.29,0,0,0,4.2.42c1.79-.52,2-1.69,3.64-2.24,2-.66,2.7.67,6.16,1.12,1.63.21,4.53.58,7.14-.84,2.31-1.27,2.36-2.84,4.33-3.08h0l5.48.71q.13-145.38.26-290.75L693,892.68l87.49,52.64,57.26,46.89.84,11.06L888,1058.7l28.7.56,39.75-9.38,78.53,5a106.36,106.36,0,0,0,10.08-6.3,71.14,71.14,0,0,1,7.7-4.62c3.11-1.61,4.33-2,5.6-1.68,1.78.39,2.85,1.82,4.76,4.9,4.55,7.36,4.09,8.37,6.58,11.48,1.65,2.08,3.67,3.67,7.69,6.86,3.57,2.82,6.38,4.67,6.72,4.9,4.14,2.77,11.05,12.41,23.24,39.33a9,9,0,0,0,2.66.28,11.23,11.23,0,0,0,4.34-1.26c2.19-1,2.14-1.44,4.2-2.37,1.38-.63,3.58-1.63,4.34-.84.18.19.48.69,0,2.09q.13,21.29.28,42.56h-5.74q-.14,16-.28,32.06l31.64,4.75q4.89,27.87,9.79,55.72Z"/></g></g></svg>