<svg xmlns="http://www.w3.org/2000/svg" viewBox="0 0 1981.38 2306.42"><g id="Layer_2" data-name="Layer 2"><g id="Kenya"><path d="M1981.2,163.59c-.62-2.77-3-4.49-7.35-8.31-6-5.21-12.17-7.61-21.08-10.22-17.27-5.06-25.9-7.6-32.57-7-16.72,1.44-19.76,11.09-34.5,9.59-8.86-.91-8.67-4.49-18.52-5.75-7.75-1-11.56.74-31,6.07-26.17,7.17-32.3,7.58-37,4.15-3.11-2.25-4.45-5.31-7-11.18-4.66-10.63-2.83-16.06-5.11-22.36-3.78-10.43-13.74-9.13-30-20.12-23.17-15.64-24.41-32.72-39.28-33.54-7-.38-11.84,3.11-18.53,7.35-18.13,11.5-38.88,18.29-57.81,28.42-17,9.11-12.42,4.74-90.07,35.14-43,16.84-52.69,21.41-62.92,32.9a169.78,169.78,0,0,0-26.19,40.56c-6.53,15.16-6.66,22.9-15.65,31.94-9.72,9.77-14.85,6-27.79,16.29-16.59,13.16-20.29,28.94-26.51,27.47-3.66-.87-2.66-6.41-7.66-12.78-7.37-9.38-20.13-10.86-32.58-12.14-9.3-1-13.19-.3-39.29,1.6-29.2,2.13-34.2,2-39.6,1.6a147.19,147.19,0,0,1-31-6.07c-19.95-6.16-24.38-12.15-49.19-19.8-10.6-3.27-15.31-3.89-18.21-4.16-11-1-15.57,1.23-28.42,1.28-12.44,0-11.44-2-21.4-1.91-17.06.19-21.69,6.31-37.37,8-4,.43-17.14,1.69-30.67-3.51-22.54-8.68-21.24-25.73-45.35-35.14-10.72-4.18-13.35-1.73-21.4-7-13-8.56-11.26-18.31-22.68-24.6-10.79-5.94-16.72.39-29.7-4.15-13.64-4.77-20.07-16.29-25.55-23.95-6.93-9.68-9-8.59-70.59-47-31-19.32-48.15-30.62-76.65-45.35-10.05-5.19-17.38-8.67-27.15-11.82-15.09-4.85-27.42-6.12-58.13-7-24.61-.73-48.49-.84-78.26-1-33.33-.14-35-.14-39.92-1.28-27.88-6.52-32-20.68-58.13-27.47-11.42-3-14.58-.11-51.1.32-28.22.33-43,.76-69,1.28-52,1-78,1.55-94.23,1.28-34.54-.58-53.72-2.31-93.26-1-32.34,1.1-40.74,3-49.51,6.71-10.11,4.3-24.62,16.92-53.66,42.16C64.8,76.29,79.15,66.27,64.18,79,52.32,89,46,93,46,99.71c0,7.17,8.48,7.76,16,20.44,8,13.62,6.56,18.56,14.69,34.49,9.54,18.69,13.71,16,18.21,29.39,5.54,16.44.6,24.55,8.3,31.94,4.87,4.66,11.3,5.7,21.4,7.34,14.38,2.34,18.1-1,24.6,2.56,9.81,5.34,12.1,18.73,12.77,22.68,2.82,16.48-5.72,20.87-10.86,45-4.17,19.61-1.82,32.24,2.88,57.49,1,5.34,2.4,11.4,7.34,14.69,6.06,4,12.22.46,17.25,4.48,4.55,3.63,4.08,10.22,4.47,16.6,1.31,21.24,12,37.86,15.33,42.48,11.54,16.17,21.37,10.47,29.39,25.56,6.8,12.78.58,18.44,8.62,32.58,5.71,10,10.27,9.7,18.53,21.71,6.55,9.54,9.38,18,11.82,25.56,5.8,17.9,3,22.57,7.34,52.06,2.55,17.22,3.51,15.56,7,38.33,2,12.72,3.69,24.09,4.47,38.64.94,17.64,1.41,26.46-.32,35.46-2.94,15.28-8.76,19.55-34.49,59.72-16.78,26.19-18,30.18-18.85,33.86-5.24,23.4,6.54,35.11-1.6,45.67-8.74,11.37-24.61.75-44.71,13.42-17,10.69-23.61,29.57-25.23,34.17-6.65,18.87.48,25-7.35,41.21-4.53,9.4-10.79,15-23.32,26.19-9.5,8.48-19.24,17.19-34.17,23.95-18.2,8.24-25.93,5.36-33.54,14.37-6.38,7.56-5.27,14.71-7.66,24.92-5.56,23.68-22.8,33.32-34.5,47.27-15.2,18.1-16.2,45.07-18.2,99-2.61,70.09,11.63,70.92,2.55,113.71-2.74,12.91-7,27-1.28,43.43,6.61,18.86,22.79,30.49,35.46,37.37l856.94,511q2.55,23,5.11,46-11.65,19.82-23.32,39.61l30,57.49,341.11,294.8a19.58,19.58,0,0,0,9.91-6.06c5.25-6.36,2.18-12.64,6.38-16,6.12-4.86,17.47,4.54,22,0,3.43-3.41-1.55-10,2.88-16,1.85-2.48,5.46-5,8.94-4.48,6.18.94,7.5,10.83,11.5,10.54,2.59-.18,4.26-4.49,5.75-8.3,3.57-9.18,1.11-13.18,4.79-17.89,1.93-2.47,2.73-1.52,9.58-5.75,7.56-4.66,11.64-7.18,13.73-11.49,3-6.12-1.54-8.66,0-18.53.87-5.52,2.36-5.21,7.67-17.57,5.92-13.78,4.59-15.38,8.3-19.16,7-7.18,15.69-5.33,16.61-9.9.74-3.68-4.75-5.37-9.9-14.69-2.78-5-5.77-10.45-3.51-15s9.52-7.25,13.73-5.12c4.74,2.41,2.93,9.38,8,11.82,3.42,1.66,7.91.22,10.54-1.91,1.88-1.53,3.75-4.2,4.47-12.14,1.29-14.32-3.72-17.66-1.28-24,3-7.64,11.13-4.71,20.76-14.05,7.12-6.9,12.77-18.29,12.14-29.38,0-.71,0,0-3.2-19.17-1.08-6.54-1.59-9.89,0-13.41,1.41-3.13,3-3.27,9-8.63,6.86-6.17,10.29-9.25,11.5-13.73,1.28-4.75-1.1-5.66-.64-13.1.25-4.08.65-10.5,4.47-14.69,4.76-5.21,9.92-1.59,22.68-6.07,5.13-1.8,13.41-4.71,17.56-12.13,1.06-1.89.82-2.23,2.88-11.82,2.16-10.06,3.23-15.1,5.11-20.76,2.84-8.59,3.9-8.06,5.43-14.37s1.57-11.24,1.59-17.25c.06-11.62-1.53-12.88-1-18.85.75-7.86,4.11-11.83,9.26-20.76,13.68-23.74,8.67-28.26,19.8-41.52a81.46,81.46,0,0,1,20.12-16.93c12-7.14,16.39-5.38,24.6-12.77,7.86-7.09,7.56-12.39,15-15.33,3.27-1.3,7-1.89,17.57-.64,23.16,2.74,25.27,8,32.89,5.43,7.83-2.63,5.41-8.09,20.45-21.4,4.88-4.33,10.48-8.48,17.56-13.74,10.18-7.55,17-11.92,16-15-.15-.48-.54-1-3.19-2.23-8.7-3.89-13.38-1.74-16.29-4.8-2.52-2.64-2.32-7.69-.64-10.86,1.55-2.92,4.3-4.1,13.73-7,16-5,18.88-4.93,21.4-8.31s2.59-7.57,2.56-13.73c0-1.46-.12-7.72-3.51-17.25-3.61-10.1-8.21-16.31-7.35-16.93s5.17,7,14,9.91c2.81.92,5.53,1.2,10.54,1,16-.79,19.19-5.18,35.14-7.34,9.12-1.24,13-.48,17.24-4.15,4.48-3.92,2.75-7.16,6.71-10.54,5.77-4.93,12-.23,27.47-2.88,6.55-1.12,10.93-1.93,15-5.43,2.9-2.49,2.81-3.9,8.63-14.69,2.51-4.67,5.74-10.37,9.58-16.29,3.65-5.65,5.48-8.48,7.34-10.22,2.75-2.57,9-7.14,21.4-7.35L1732.71,1346l9.9-725.36c.42-8.58,1-21.65,1.28-37.69.26-13.24.18-18.68.32-25.55.59-29.13,4-33,4.79-54.61,1.5-39.82-9.12-51.17,1.6-71.23,2.62-4.9,7-9.34,15.65-18.21,25.69-26.23,36.74-27.37,61.32-50.46a308.14,308.14,0,0,0,33.54-37.69c10.12-13.07,9.48-14.07,21.4-30.66,25-34.77,31.46-35.54,47.91-61.64,14-22.29,10.5-23.63,20.76-35.14C1966.14,181,1983.3,173,1981.2,163.59Z"/></g></g></svg>