<svg xmlns="http://www.w3.org/2000/svg" viewBox="0 0 2365.08 2368.05"><g id="Layer_2" data-name="Layer 2"><g id="Kiribati_Map" data-name="Kiribati Map"><path d="M712.76,1247.8l-12.29-.23-2.64-3.31-1-5.7,7.31-7.62,8-.36,5.83,7.21Zm-89.16-57.14-.38-3-1.77-14.13-3.26-1.84-20.86,11.08L588.76,1193l0,0,5.13,5,24.76-.77Zm-22.37,78.74-.67,6.11,2.88,6,7.87-6.41,2.88-5.39-4.08-4.44-5-.54Zm156.18,33.1,14.93-11.83,6.95-10.36-3.25-4.62L754,1282.51l-11.44,13.86,6.28,6.85Zm116.51,46.36.49-8.46-3.36-4.26-11.35.36L851,1354.61l4,4.44h10.55Zm60.81-483.34.9,12.24,3.84,3.49,5-.72,9.42-11.47-.67-10.36-7.62-5.7ZM945.4,737.85l6-6.47-.59-10.75-5.87-5.7L916.43,716l-2.87,6.13,23.09,9.6ZM895.09,946.4l-2,.82-.67,8.87,1.7,3.22,3.28,6.2.42,6.9,1.32,21.4,1.62.56,8.7,3,12.78-28.66-1.13-1.45-18.42-23.87-2.91,1.16Zm-14.63,47.41-12.06-1.49-9.72,11.45-.41,9.05,5.28,8.52,3.69-.14L873,1021l10.19-13.67L883,996.22l-.92-.88Zm61.4-11.8-9.29-.72-14.8,16.78-4.21,24.4,13.85,15.73,18.3-.8,5.93-9.41-9.47-18.09-4.57-1.11L946.73,989ZM902.58,757.76l5.23,8.69,4.49-.71,13.32-15.17.77-9.23-6.47-4.26L906.2,748.52Zm-85,265.19-2,4.14,14.64,7.37,3.34,1.69.12,1.45L835.2,1056l.1,1.25.12,1.63.88,12.58,0,.42,7.24,4,2.19-4.81,12.51-27.51,15.24-.74,14.57-.7,4.67-5.06-12.71-7.7-5.58-3.38-9.31-.65-25.23-1.76-1-6.83,10.21-12.54-.13-5.75-7.85-6.11-16.81,16.29Zm88.25,81,4.54-1.13,4.62-7-.11-3.67-8.28-10-5-.72-5,3-1.8,6.11,2.75,6.47Zm65.83-205.27.36.1,1.21-1.26,11.21-11.69.54-4.62-7.13-6.49-7.67.72-6.24,6.9.18,10.31,2.44,4.62Zm-82,154.77-19.09,3-.23,20.68,8.52,9.6,9.28-9.6,6.73-16.78Zm71-149L959.2,882l-4.49-5.7-16.13,20.14,3.23,21.43,3.1,2.79,11.29,10.18,7.75,7,6.95-10.68-2.9-6.4-1.79-4-4.66-10.25Zm5.52-151,4.31-5-3.9-6.06h-9.65l-5.21,6.83,4.49,3.85ZM774,950.22l3.85,6.82,11.8,2.41,6.67-2.41,3.41-8.7-5.51-6.46-16,1.13Zm100.81,149.87,1.15,5.74,4.49,3.9,5.52-1.67,8.57-11.46-5.83-5-10.13,1Zm-323.54,96.32,4.18,2.38,1.54-1.47,6-5.76,4.8-4.57.45-9.25,0-.76-6.85-6.85-10.28,9.78-1.6,1.51,1.26,11.11,0,.15Zm1808.87,983.08-.27-16.07-.57-33.65-6.06-16.79.31-47.33-5.88-7.55.23-24.58-13.53-43.07-7.45-23.69-16.32-40-18.22-21.58-4.08-10.75L2264.5,1881l-15.65-.74-28.2-11.45-19.29,1.08-21.19-5.69-37.41-10.73-33.36-17.4-29.46-17.44-15.21-9-34.3-6.82-11.21-6.5-18.12,1.13-7.08-6.1-14.07-.19-13.56-.17-13.66-8.46-1.84-1.14-47.9-25.3L1882.64,1735l-13.9-10.32-3.47-9.06-16.8-16.08-41.39-17.73-36.46-7.57-26.73-20.76-15.42-5.34L1684,1610.22l-31-1.08-30.17-.36-46.23-19.24-38.06-23.15-38.25-23.27-14.09-5.72-28.17-29.74-10.8-24.94-21.53-22.19-9.49-6.13-29.86-.72-9.42-5-9.55-9.67-19.88-20.12-5-13.44-13.32-12.6-16.42-36.77-6.11-24.76-15.42-38.26-.44-13.9-1.12-34.92-.9-60.09-1.49-77.26-.13-50.78-6.54-7.26.72-39.72-7.08-10.72.36-23.27-1.18-19.07,5.43-26L1296,900l10.12-32.45,3.84-12.29,1.75-1.76,4-4,5.62-33.64,12.11-43.8,18.47-33.28,13.75-22.91,8.29-2.53,25.66-7.83,8.24-4.84,18.26-10.71,13.24-11.81,32.82-11.44,8.6-6.71,11.08-8.66,8.67-17.14,8-19.35,4.46-10.82-.54-53.37-.82-23.71-5.9-6.23-2.62-21.3-10.31-8.13-1.75-6.49L1469.1,444l-30.36-35.34-27.89-9.59-8-4.85-29.27-.18-11.88-6.49-19.6.79-21.94,1.85-18.91-1.85-8.7-5.41-17.75,1.15-6.83-5.77-26.44-.5-11.28-.22-8.29-4.07-3.41-1.67-22.5,3-18.19-4.12L1149,364.2l-12.65-2.86-9.78-6.49-59.27-26.07-15.57-7.39L1042,310.31l-18.2-4.44-29.55-26.4-25.92-22.92-23.9-13.74L930,234.51l-11.2-6.44-39.62-33-16-13.33-4-3.35-6.06-.77-14.44-22.91-.48-.79-6.63-11.06L824.48,131l-.57-.94L822,120.62,818.5,103.5,807.9,78.56l-10.39-10L768,45.65,725.13,34.89l-5.87-6.46H710.2L673.56,12,645.44,6.23,629.4,0H576.29l-6.9,6.47L549.3,5.34l-75,1.49-26.09-1-25.48,7.26-3.49,4.62-25.66,6.41-27.12,20L352.23,96.42l.89,22.2,4.85,4.62,6.73,34,14.8,23L408.72,234l1.49,11.88,9.06,10.31,2,12.42,24.35,59.84,3.8,26.45-.85,32.87,6.11,10-.28,24.4,9.88,21.4,4.51,11.11,22.53,1.85L511,472.23l12.06-3,1.92-8.16-11-25.83.67-16.09,13-19.6.72-9.42-4.26-6.9-36.28-.1-3,9.16,9.47,10.75-2.16,6.46-8.1.72-4.8-9.95-5-45.47-4.44-42L455.5,268.92l-2.59-19.63-7.91-14-7.21-3.88-.18-10.31,9.5-31.25,8.75-6.13,15.24-6.47,19.91.72,15.83-21.79,25.91-9.41,1.54-11.09,9.55-6.82.66-6.67,28.89.9,14.4,9.05L574,143.94,569,157.85l.54,13.67L552.84,155l-10.67,2.82-3.31,5.69,14.88,19.07-8,7.21,20.68,16.78,12.73-1.08,9-8,1.2-37.9,5.7-9.77,16,12.6,1.74,9.23-8.41-4.62-5.21,6.47,18.52,19.73,10.62,2.05,31.61-17.57L648.24,200l16.67,17.58,14.22-1.08,9.41-10.39,5.42,1.15,1.79,56.91,7.5,8.09,15.65,6.13.54,10.31-4,5-5.08,11.83,4.85,6.11,11.08-1.49,16.27-10.39,11.26.79,17.7,11.09,11.09-16.5.31,14.65,4.56,7.54,7.5,5.39,21-1.13-27.89,11.8-4.25,6.5,14.29,9.64,23.55,5.34,9.49,23.71,5,14.57,16.42,21,12.47-3.9,11.52,10.37L900,416l7.78,19.63,38.33,41.2,1.56,26.07L940,510.85l-18.16-5.7-4.62,8.09,6.36,11.47-4.44,7.18-19.37-4.62-9.41,6.85L888,543l6.91,23.68,16.24,20,7,3,4.18,13.5,10.21,2.21,5.57-5,1.15-11.08,11.32-2.6,7.21-9.28L951.71,558l4.54-2.38,1.88,5.75,4.18,5.33.43,26.81-5.15,6.83-9.6.36L934.73,621l-15.35-16.09H896.29L891.67,609l-.89,6.67,5.51,6,19.55,6.11,1.57,13,7.13,7.75,46,6.51,13,1.84,8.74,1.24-3.62,12.57-2.9,2.44-5.26,4.42-7.84-7.22-10.86-10-18,.77L934.91,674l22.33,26.74,8.43,10.08,2,10.42,3,15.45,12,7.44,5.89,3.64,7.12-1.5,3.32-.71,1.8-6.85,3.82,8.34,8.24,3.9-6.67,3.11-6.83-5.34-3.29.42-5.12.66-5.26,6.49L995,770l-4.26,7.36,6.67,29.4L996,822.11l-2.55,1.45-4,2.27-9,7.18-6.13,14.22L969,831.88l-12.19-6.82-3.45,6.05-1.09,1.9.5,13.58.45,12.11,8.93,10.72,7.34,1.87,8.74-5,8.83-5,7.24,10.39.71,7.66.32,3.32,1.58,16.93,1.42,15.15-5-4.08L979.6,929.28l3.9,7.8,11.21.36,3.9-6.85.83,5.77,5.23,6.78,1.44,23,5.51,8.34-24,18.83L975,984.39l1.18-5.74L989.74,970l-.31-7.08-36-10.32-5.77-13.84-2.93-7-8.88,4.39L930.88,934l-3.59-1.55L921,937.62l-1.88,8.81-1.71,8.05,8.5,7.07,16.8,14L956,977.21l-5,21.94-4.49,10.39,5.2,11.08,15.48-11.47,18.29,10.7.67,33.64-10.09,33.28-18,38.25,2.69,5.78,12.42,1.43,13.24-11,9.36-.79-2.56,10.75-9.73,11.8-18.65,3.9-13.19,28.66-11.52-20.37,5.29-24.71,3.41-32.56-11-13-.41-18.83L943,1050l-9.13-6.82-14.09,7.54-5.38,13.85,5.74,39.06-7.49,1.07-2.69,9.6-21.38,12.24-10.18,2.92-19.68-5-6.78-18.93-.17-.5-11.45-1.61-2.67-3.14-10.7-12.57-6-1.51-4.67,4.62-.44,11.83,10.45,13.65-.59,9.59-5.37,9-30.5,15.88-1.57,3.13,6.9,7.54,33.82-7.89h0l13.09-10h23.27l5.21,5L857.42,1165l-12.16,6.5-2.27-.06-11.46-.3-8.59,14.19,9.49,13.31-.67,5-3.42,2.81-.49.4-16.66,13.65L800,1215.06l-19.31-19.56-5.33-5.41L765,1167.57l1.11-4,3-10.75,1-1.22,6.77-8.09,10.32-26.38.18-24.78,3.67-6.47-12.71-12.19-12.63-12.12-2.61-2.5-19.91,2.59.16.79,1.15,5.86,12.24,6.22,5.57,2.83-.85,11.47,5.72,16.42-5.59,22.2-11.8,14-4.9-.19-13.88-.53-9-8.83-18.38-18,1.26-6.85,13.5-14-7.57-9.24-18.3,7.91L680.64,1106l-1.17,8.54-.45,3.29,15.76,16.57,28.2,29.67,20.93,13.08,8.29,13.08.87,1.37,1.21,10.67-7.13,11.44-12.37,4.7-13.24-13-6-13.13-.14-6.68-.22-10.9-4.57-10.31-29.38-16.14-5.93,7.8,9.29,13.67,8,2.77-5.92,9.06.53,2.49,1.21,5.64,12.83,8.7,4.54,16.09,17.22,19.6,8.39,3.67,10.75-1.44,22.24-16.13,8.65,2.82,7,15.29-11.26,5.75-17.75,19.78,9.16,11.83,37.56-27.35,10.31,4.79,1.62,5-11.29,13.14-13.6-6.65-5.16,11.09,10,10.72,15.21.36,28.33-20.14L825.58,1287l2.51,14.83,28.92-1.87,4.13,17.16,22.14,21.12,1.08,9.6-5.23,10.9,4.33,12-47.92-.89-4.55-4.62H789.66l-12.83-6.83,1.21-11.47,7.72,1.47,11,10.36,7.9-.77,2.54-22.91,28.25-20.71-9.18-10.13L769,1331.11l-7-.36-10.19-11.11-10.13-.72,4.18-9.23-3.15-5.75L719,1295.06l-1.13-7.21,9.59-12.16-1-13-26-15.16-7.85,9.82,9.91,15.53-.85,5.69-9.72,3.9-3.42,7.93,10.27,15.78-1.16,10.32L677.74,1342l-2.62,6.32,3.29,5.38-11,8.65-.71,1.81-4.19,10.76-23.09.72-9.34-8.85-20.43-19.37L600.92,1326l13.91-21.24-5-6.65-10.85-.79-8.13-10-1.29-49.88,4.52-6.31-1.21-22.55-9.82-11.09-7.11-1.86-9.8-2.58-1.15,5-1.21,5.23,4.69,7,.59,32.69-4.13,4.62-12.6-40.85-4.59-4.65-2.18-2.2-2.15-9.6L530.88,1177l-10.44-11.09-10.14-1.25-5.69,6.85,2.15,10.67-57.63-31.74L433.35,1118l-19.47-20.71-14.47-5.74-18,8.34L370,1117.84l12.65,15,18.12-1.12,19.26,8.87,2.16,7.62h-25.5l-6.47-5H372.73l-8.7-6.47-21.89.41-6.46-5.74L288.29,1125l-18.66,12.19-14.44-6.41-18.12.72L222.81,1124,193,1137.21l-8-1.08-11.7,7.19-12.41,22.55.12,5.78,8.52,5-1.61,4.44-14.65,21.45-14.09,6.06,8.57-14.76-5.88-7-9.51,6.41-13.58.36,14.11-6.77,14.4-15.91-.36-19.24L132,1125.2l-.18-11.8,13-25.48,7.74-44.74,5.88-23.69L192,979.42l32.87-24.76L234,931.33l8.62-9.59,7.08-.36,4.75-12.24,23.27-21.43,20.27.36,4.31,6.32-14.62,15.88-20.35,6.85L252.91,933.9l1,6.11,9.88,2L278,926.36H291.7l22.19-17.22,25.74-66.71,8.57-9.6,15.6-5.75L379,810.66l17.44-1.87,18.61-22.91-.8-21.09L400.38,753l-55.11,45.11-10.67.77-18.35,14.39-.2,7.39-24.81,15.52L271,860.9l-34.13,22.91L223.76,900l-23.14,5.34-6.78,6.11-10.93,15.31-26.19,21.63.71,9.24-13.8,37.92L124.8,1037l-67.33,67.12-13.26,6.47-10.14,15.29L11.93,1137.8l-7.72,8.88L0,1172.18l1.08,22.17,37.61,53.58,21.94,29.43.12.55,1.62,7.73,40.49,37.54L117,1331.7l20.5,22.19,17.09-.77,44.08-25.68,2.59-9.06L248,1298.24l63.55-17.93,13.49-9.6,25.07-1.13,21.13-14.06,10.53-7,6.2,1.81,12,3.52,18.09,10.75,34.92,7,25.92,20.68L492,1313.23l6.36,34.92,9.77,17.55-2,5-11.39-10L488.42,1335l-9.83-4.62-15.78-38.1-15.24-10.73-6.77,4.85-12.71-.36-12.9-6.82-3.41-10.39-13.91-8.32-13.93-1.25L369.8,1280l5.65,14.57L400,1308.2l9.42-.36,33.28,21.83,30,27.15,11.81,30.48,6.29,10.51,13.21,22,.48,13.86,15,40.84L535,1520l22.57,39.62,1.86,3.25,9.95,21.48,22.73,25.84,29.15,26.09,10.85,4.26L640,1651.3l32.86,19L715,1713.54l8.69,2.41,9.59,11.5,3.06,3.67,25.12,16.44,15.19,5,74,18.48,17.67,8.87,28.92.77,7.13,5.34,24.12-1.08,13.91,7.19,18.42-.77,20.19,6.1,19.27,9.24,15.16,1.15,7.75,5.7,26.89-.09,26.53-.09,12.42,1.13,30.58-11.08,33.18-.77,26.55,16.83,49.5,7,7.87,2,33.74,8.4,16.24,6.06,10.68,10.39,7.8-.36,32.2,21.4,10,12.6,9.16-.36,14.29,10.67,14,.41,56.73,22.51,6.49,6.64,9.18-.36,3,4.8,15,6,6.13,5.81,57.06,54.1,80.18,67,30.25,21.43.06,0,18.47,20.5,31.61,18.48,14.08,11.11,29.82,10,28.3,15.66,13.91,11.88,36.58,18.65,29,36.38,27.22,41.21,19,16.09.79,6.46,23.63,25,11.52,6.46,51.63,5.39,8.21,6.06,19.91-.36,33.76,16.08h9.14l5.92,6.29,28.79,10.75,36.59.36,7.26-5,16.37-.36,18.11-6.85,40.18-26.27,78.31-.72,30.58,6.06,24.25-14.76,14.93-23.68,5.8-20.32,2.54-89.42ZM798,361.34,786.84,361l-3.77,4.26.48,14L803,400l12.72-3.9,1.57-6.47L812,377ZM218.5,1075l-7.26,6.46-1.52,5.34,11.65,10.75,9-1.51,6.19-10-9.19-10.72ZM418.68,713.62l6.9-10.75-5.05-4.08h-2.75l-5,5.42,1.13,8.26,2.59,2.23Zm521-222.91,1.49-5.36L938,474.26l-6.37-.72-9,15.12.43,12.41,3.42,1.85ZM429.94,638l8,5.77,11-.36L464.25,625l4.26-25.3L466,573.15l-7.72-7.78-10.16.36-6.24,8.16-2.61,14.81,4,5,.72,21L429.71,628Zm327-112.34,7.49-9.28.9-6.85-5.28-5.7-14.32,1.51-9.19,11-.3,9.64,4,6.06,5.93-5ZM608.24,210.14l-8.16.72L586.84,224l8.08,9.06h14.39l6.37-6.46-1.39-10ZM620.6,318.26,616,331l9.54,13,14.8,6.46,12.29-1.08,7.7-10.36-6.49-9.42-22.78-13.5Zm-48.28,802.51,14.57,27.53L597,1135.78l1.16-13.14,20-9.78,5.47-7.53.46-.63-2.7-7.57-9,3.59-38.82,15.43Zm78.46-864.63L639,243.78H622.22l-16,15.72.54,9.24,13.32,25.48,13,12.19L650,305.33l21.25,16.42,11.13-.72,3.67-5-.49-23.32,8.65-25.86L689,258.35l-1.2-37.28L684,216.45l-7.52,6.47-12.29,5.33-10,11.09,5.69,7.21-1.15,9.23ZM840.59,415.66l-6.26,3.54-2.26,7.21,5.39,14.39,9.29,15,5.41.36,5.26-6.83-.72-16.85ZM460.65,1141.29l-.12,8L471,1160.36l9.42-1.13,4.15-7.57-.36-4.62L473.3,1136l-9.7,1.12Zm400.93-673-9,11.45,10.57,14.62,15.76-5,17.75,15.78,5.88-6.49-10.19-30.15,9.55-21.42,0-11.8-9.24-12.6-9.77-.18-14.71,16.42L867,450.4l6.23,16.86-6,4.62Z"/></g></g></svg>