<svg xmlns="http://www.w3.org/2000/svg" viewBox="0 0 2052.99 2061.5"><g id="Layer_2" data-name="Layer 2"><g id="Kosovo_Map" data-name="Kosovo Map"><path d="M2012.54,1023.88c-14.59,27.24-43.59,49.05-65.38,74.53,7.2,3.7,3.49,12.65,3.49,18.1-21.79,12.85-3.49,51-32.69,54.5-3.5,23.73-47.09,14.59-32.69,40.08,29.18,38.14-14.4,61.69-14.4,96.33-18.3,20-54.68-18.3-54.68,20-21.8,5.45-43.59-20-58,1.76-7.39,25.49,14.41,34.44,10.9,59.93,36.2-3.7,47.1,32.7,61.7,54.49l36.39,36.39c-36.39,29-83.68-3.7-127.28,12.64-10.9-5.44,0-19.84-10.9-25.29-10.9-12.85-32.69-12.85-50.79-16.36,3.5,16.36-29.19,21.8-14.59,41.65,0,5.44,7.19,21.8-7.21,21.8-29.19,9.14-25.48-25.3-51-12.65-32.69,12.65-7.19,61.69-54.48,56.24,7.2,43.79-72.59,72.78-18.1,110.93,7.2,7.2,3.5,21.79,3.5,32.69-32.7,29.19-90.7,18.29-127.08,7.39-29.19-7.39-10.9-43.78-21.79-63.63-10.9-18.29-43.59-30.94-43.59-56.44-21.81-9-40.09-14.58-54.68-32.69-50.79,49-112.66,96.33-185.26,98.08-32.7,16.34-51,81.93-101.78,54.67-19.95,32.71-80,0-83.59,47.11-23.64,9.14-12.74,40.08-27.23,54.48-5.46,36.39,0,67.33,30.84,89.13,12.74,27.24-27.25,27.24-10.9,52.74,3.7,9,0,21.8-5.45,25.49-10.9,5.45-14.49,10.91-10.9,21.8-9,0-12.74,5.45-19.95,12.64-9.15,18.11-38.14,27.25-58.18,39.9-19.95,5.45-34.54-9-47.2-21.79-3.7,20-20,30.94-40,30.94-29.1,0-23.65-25.5-45.44-36.39,9-32.7-20-47.1-10.9-76.29,23.63-18.1,63.53-30.94,52.63-69.08-25.39-30.75-16.34-76.28-41.73-112.67-16.35-14.4-43.6-36.2-34.55-70.84,23.65-27.24,0-59.93-12.74-88.93-5.45-23.74-19.95-45.53-19.95-72.78-40-23.54-41.84-85.43-98.17-90.88-40,0-47.2-50.79-87.18-47.29-3.7-7.2-12.75-12.64-20-19.85-29,19.85-65.39-5.44-101.69,3.51-23.64-39.9,19.95-94.39-43.68-118.13v-25.3c7.3,3.5,10.9-3.71,12.74-7.39,3.6-27.25-45.44-30.75-25.39-61.7-10.9-9.14-23.65-12.84-16.35-30.94-27.34-56.24-109.07-50.79-127.27-107.22,14.6-12.64,14.6-25.49,20.05-36.39-12.75-21.8-16.35-45.35-12.75-68.89,12.75-3.7,20-20,27.24-32.89-16.34-10.89-36.3-27.24-54.49-21.79C57.27,863.92,33.62,838.62,4.53,824c-7.29-7.21-3.59-20-3.59-29,40-12.85-5.45-69.18,43.59-61.88,12.75-16.35,40-21.8,59.94-34.54,20-3.6,36.39,3.69,56.34,9.15,16.34,21.69,45.44,12.65,61.78,30.84,16.34-3.7,36.39-12.75,56.34-3.7,0-30.85,14.5-49,36.38-70.84,3.61-12.65,23.55-21.79,39.9-29,31,7.21,67.24,7.21,89.13-14.59,14.5,9.14,27.25-9.05,43.59-9.05,19.94-3.7,36.3,1.75,50.89,10.9,1.75-36.39,65.38-5.45,78.13-49,14.51-29.1-40-40-36.39-65.49-9-29.09,12.75-43.59,23.64-63.54,12.75-5.45,27.25-12.74,43.59-9.14,41.84-14.51,9.15-99.93,76.39-69,0,9.06-3.7,19.95,1.75,21.8,23.64,0,27.27-27.27,43.69-36.39,7.2-25.39-9.14-56.33,12.65-76.29,10.9-1.84,20-5.44,27.24-14.59,0-19.95-10.9-30.84-27.24-43.59-5.45,9.08-19.95,1.85-29.07,5.45,0-21.8-12.68-36.29-16.37-56.34-10.9-5.44-16.35-14.49-12.65-27.24,16.34-16.35,0-56.34,38.14-47.27,14.5-12.67,40-3.62,54.49-25.42,38.15-21.79,89-21.79,118.12-61.78,12.75,1.84,27.25-10.9,40,0,3.61,23.64,38.15,14.49,38.15,36.33h0c21.8,25.44,36.4,50.86,36.4,81.78-18.31,9.05-43.6,12.75-58.19,29.1,90.88-12.75,109,92.63,210.76,52.64,3.69,14.59,18.29,27.33,36.38,21.82l10.9-29c39.9-10.9,29,54.48,72.77,41.74,21.81,18.2,7.22,49,21.81,70.94,0,25.39,10.91,47.19,21.79,69,10.91-12.65,18.11-30.85,43.59-25.39,18.11,19.95,32.7,38.14,36.38,59.93-7.38,41.84-18.28,78.14,25.31,99.93V526c29.19,12.75,94.58-12.74,94.58,38.15-3.71,18.19,18.1,1.85,25.49,12.74,18.1-7.3,43.59-3.6,65.38-3.6,18.1,38.15-21.79,65.39-32.69,99.93,18.09,18.1,10.9,50.89,7.2,72.58l-10.9,5.45c29,5.45,65.38-3.5,90.88,12.85l47.28,18.09c21.8-12.64,47.1-14.58,76.29-12.64,21.8,16.35-7.39,43.59,10.9,56.24,25.5,0,47.29,3.7,50.79,25.5l3.7,7.2c18.1-32.7,69.08-10.91,90.88-34.44,36.39,0,43.58,39.89,61.68,61.69C2059.83,942.15,1990.75,967.65,2012.54,1023.88Z"/></g></g></svg>