<svg xmlns="http://www.w3.org/2000/svg" viewBox="0 0 2200.03 2123.79"><g id="Layer_2" data-name="Layer 2"><g id="Kuwait"><path d="M1619.51,119.23c4.51,2.25,7.21,1.91,11.39,3.25a28.65,28.65,0,0,1,9,5c4.67,3.59,4.21,6,8.73,9.91a31.25,31.25,0,0,0,8.29,5c5.82,2.68,8.77,2.54,17,4.29,10.8,2.31,13.9,4.29,24.26,5.48,4.44.51,7.37.54,10.2-1s3.4-3.69,7.25-7.54c2.85-2.86,4.38-3.51,8-6.22,4.26-3.19,5-4.47,12.72-11.83,8.53-8.19,12.8-12.28,16-14.2,5-3,9.12-4.26,16.57-6.51a125.83,125.83,0,0,1,19.52-4.29,110,110,0,0,1,33.14.15c9.24,1.51,9.85,3,17.31,3.25,9.11.38,10.4-1.67,19.38-.59,6.25.76,5.63,1.75,15.38,3.26,2.9.44,4.12.53,5.32,1.62,2.47,2.23,2.13,6.14,1.19,15.39-.92,9-1.39,13.56-1.48,14-1.33,6.88-3.6,13.8-2.07,18.94a7.07,7.07,0,0,0,6.51,5.47c.41,0,6.88,2.64,19.82,7.84a198.75,198.75,0,0,1,26.63,13.16c9.89,6.07,11.15,9.23,38.16,37,13.12,13.48,19.68,20.22,23.08,23.22,12.25,10.81,20.54,16,31.36,29.29,2.63,3.24,4.46,5.86,8.13,11.09,4.25,6,11.4,16.66,22.49,36.54,9.95,17.83,14.92,26.75,17.6,33.43,0,0,7.21,18,16.42,31.22,1.9,2.72,4.93,6.75,10.06,8.58,3.77,1.34,4.76.11,8.73,1.48,2.68.92,3.28,1.84,11.69,9.17,3.15,2.75,6,5.81,9.17,8.58,1.93,1.7,4.29,3.7,4.44,6.65a6.42,6.42,0,0,1-.6,3q3.78,27.3,7.55,54.59a55.41,55.41,0,0,0-4.59,17c-1,9.49-9.24,25.05-12.72,31.8-11.37,22.07-8.51,20.57-16.72,34.62a240.72,240.72,0,0,1-14.94,22.48c-7.2,9.8-13.63,17.28-27.81,32.7-33.17,36.06-28.56,28.35-41.42,43.63-8,9.47-22.93,28.12-34.91,33.88-.76.37-6.21,2.94-13.46,6.8-4,2.15-5.72,4.11-9.61,5.33a29.22,29.22,0,0,1-10.21,1,61.44,61.44,0,0,1-16.86-3c-6-1.77-10.52-3.14-15.24-6.07-2.83-1.75-8.32-5.67-24.26-38.16a18,18,0,0,1-1.78-5.77,17.78,17.78,0,0,1,0-4.29c.35-3.15.39-12.21-3.4-18.49-3.52-5.83-7.62-4.78-10.5-11.1-1.22-2.69-1.37-4.82-1.63-8.13-1.79-22.67-3.57-29.12-4.29-31.51a34.82,34.82,0,0,0-5.62-11.69c-2.38-3.14-3.26-2.84-6.21-6.21-5.69-6.52-3.87-9-8.29-13.17-5.16-4.9-9.43-3.24-11.68-7.84-1.41-2.87.28-3.47-1.19-9.17-.9-3.52-1.81-4.29-3.55-9.61a41.68,41.68,0,0,1-1.77-6.36c-1.31-8,2.56-11.37,1.33-20.27a13.09,13.09,0,0,0-1.48-5c-1.84-3.16-5-4.81-7.84-6.21-3.79-1.9-4.09-1.14-5-2.22-2.75-3.17,1.43-7.77-.89-13.91a15.07,15.07,0,0,0-4.14-5.62c-.81-.79-3.66-3.44-11.09-6.06a89.6,89.6,0,0,0-9.47-2.52c-7.78-1.85-10.31-2.28-15.24-3.7-9-2.57-10-3.85-10.5-4.58-.87-1.33-.8-2.23-1-12.13-.11-4.92-.17-7.4-.29-8.29-.86-6.41-2.69-7.75-1.63-10.2s3.35-2.33,8-5.18c2.43-1.5,6.05-3.73,8.43-7.25,4.15-6.13,3-13.89,1.92-20.86-.32-2.14-1.06-6.1-1.62-6.06-.76.05-1.07,7.24-1,12.13,0,6.22.6,6.82-.15,9.17-1.5,4.69-5.45,7.54-7.1,8.73-4.81,3.47-8.09,2.89-10.06,6.51-.55,1-1,2.38-2.36,2.95-1.83.77-3.94-.46-4.14-.59-2.94-1.77-2.59-5.39-4.44-12.28a80.72,80.72,0,0,0-3.85-10.5,91.5,91.5,0,0,0-5.62-11.68c-4.78-8.18-6.61-7.46-10.35-14.8a39.91,39.91,0,0,1-3.56-12.72,9.62,9.62,0,0,1,.89-6.06,8.78,8.78,0,0,1,4.14-3.55c5.2-2.29,10.59.73,11-.15s-3.45-3-5.77-4.29c-3.85-2.08-4.53-1.69-6.51-3.11-2.23-1.61-1.93-2.52-5.62-7.84s-5.43-6.53-4.88-8.43,2.83-2,3.11-4.14c.19-1.47-.73-2.72-1.78-4.14-1.86-2.54-3.22-1.94-4.14-3.7-1.21-2.31.69-3.79-.59-6.51-.89-1.89-2.15-1.91-2.22-3.26-.09-1.73,2-2.13,3.11-4.58a7.28,7.28,0,0,0-.74-7.25,6.19,6.19,0,0,0-5.92-2.37,6.27,6.27,0,0,0-3.85,3.11c-1.55,2.9.15,5.06-.59,9.61a18.38,18.38,0,0,1-1.63,4.89c-1.94,4.74-.44,18.93-.44,18.93a111.28,111.28,0,0,0,3.4,18.05,105,105,0,0,0,6.51,17c5.81,12.19,9.4,27.53,17.9,45,4.08,8.37,7.37,17.13,11.83,25.3,1.53,2.8,4,7.05,2.82,11.39-.4,1.42-1.11,2.51-.89,4.29.32,2.66,2.34,3.92,4.14,5.91,4.17,4.61,1.73,7.08,5.62,12.58a22.77,22.77,0,0,0,9.47,7.69c7.69,3.14,9.47,3.4,9.47,3.4a4.92,4.92,0,0,1,3.1,1.33c1.1,1.2.59,2.37,1,4.59.52,2.58,1.92,4.39,4.73,8a19.63,19.63,0,0,0,2.66,3.1c5,3.64,11.44-2,16.13,1.19,2,1.37.82,2.39,4.44,6.8,2.73,3.34,3.81,3.25,5.17,5.62,1.23,2.14,1.39,4,1.63,9,.32,6.73.49,10.1.44,11.68-.42,15.57-3.47,18.44-.74,24.85a35.73,35.73,0,0,0,4.44,7.25c3,3.7,4.63,4,6.51,7,1.5,2.37,1,3.06,2.66,9.46a129.68,129.68,0,0,0,4.44,13.46c1.71,4.35,3.21,7.26,4,8.88,4.81,9.87,7.31,20.44,10.94,35.8,2.22,9.38,2.91,14,6.22,19.08.55.86,3,4.45,6.21,8.88,1.68,2.29,3.3,5.77,4.14,5.47.2-.07.28-.31.33-.47.93-3,0-6.27,1.3-7.52,1-1,3.27-.7,3.7.15s-1.44,2.13-2.67,4.59c-1.35,2.69-1.11,5.3-.88,7.69.8,8.68,6.21,16.57,6.21,16.57,12.06,17.59,18.1,26.38,22.34,33.87,6.94,12.26,6.15,14.48,11.68,20.41,3.52,3.78,6.86,6.12,6.95,10.21.08,3.2-1.89,4.86-6.5,11.24a102,102,0,0,0-8.58,13.32,155.37,155.37,0,0,0-7.7,17.45c-1.18,3.33-1.91,5.84-3.25,5.92-1.78.1-2.4-4.2-5.92-9.17-1-1.45-2-2.63-10.8-9.62-10.86-8.65-12.91-9.73-13.75-13.16a12.47,12.47,0,0,1,7.1-14.43c3-1.37,5.25-.94,10.87-.66,5.94.29,13.48.31,13.53-.22s-6-1.46-6.65-1.56a74.71,74.71,0,0,0-12-.88c-5.38,0-8.06,0-9.1.66-5.53,3.49-3.53,14.42-6.44,14.87-1.25.19-1.76-1.82-5.15-3.57a16,16,0,0,0-5.65-1.61c-6.21-.92-11.93-8.22-14.64-9.91-2.37-1.47-7-4.2-31.07-12.72-13-4.61-21-7.45-32.83-10.8-9.6-2.72-15.06-4.27-22.79-5.77-17.25-3.34-30.1-3.37-46-3.4-17.36,0-23.31,1.19-28.11,2.66-5.86,1.8-9.79,3.88-17.16,7.84-12.14,6.53-17.71,11.11-29,18.49-5.38,3.52-3.38,2-25.89,15.39-19.3,11.48-29.21,17.39-41.86,25.59-9,5.83-13.49,8.74-19.23,12.87-22.47,16.14-33.7,24.21-43.94,37.42-4.63,6-9.75,13.83-20.41,20.86-3.66,2.42-7,2.37-10.8,5.77s-4.14,5.91-9.32,17.16c-6.25,13.57-9.19,17.48-10.21,18.79a75.9,75.9,0,0,1-8.58,9.17c-8.31,7.79-12.34,8.74-13.46,13.76a15.27,15.27,0,0,1-2.51,6.8,6.45,6.45,0,0,1-3.55,2.81c-2.21.52-3.52-1-4.59-.44-1.64.88,1.79,5.67-.15,8.28-1.18,1.6-3.23,1-4.29,3-.59,1.12,0,1.49-.44,3.4-.51,2.34-1.53,2.52-2.81,5.48-1.21,2.78-.61,3.31-1.63,4.43-1.59,1.75-4.87,2.45-6.36,1.19-1.72-1.46.43-4.31-1.33-7-1.41-2.11-4.26-2.5-7.69-3-3.19-.43-6.32-.85-9.32.73-3.31,1.75-2.75,4-6.66,7.25-4.25,3.6-6.06,2-7.84,4.44-3.56,5,3.1,12.44-.74,18.34a8.13,8.13,0,0,1-3.4,3.11c-1.41.64-2.22.43-5.18.74-3.25.34-4.87.5-5.77,1.18-2.14,1.63-1.94,5.21-1.77,8.14a20,20,0,0,0,3.84,11.54c3,3.94,6.72,5.52,9.47,6.65a29.51,29.51,0,0,0,16.27,1.78c1-.19,14.47-2.83,21.16-13.61,1.79-2.89,2.88-6,5.47-6.36,2.41-.33,3.21,2.11,7.4,4.14a21.31,21.31,0,0,0,13.61,1.33,44.9,44.9,0,0,0,7.39-3c2.09-.94,3.8-1.81,5.18-2.51a50.71,50.71,0,0,0,5.47-3c3.39-2.64,3-4.76,5.92-5.92,1.79-.71,2.38-.08,3.7-1a6.23,6.23,0,0,0,2.37-5.33c-.17-2.2-1.6-3.23-1.19-3.7.56-.62,3.51.71,5.62,2.82a11.91,11.91,0,0,1,1.93,2.51c2,3.42,1.37,5.91,2.81,11.24.7,2.64.68,3,1,3.26,1.67,1.36,4.92-.18,12.58-4,9.07-4.52,9.14-4.67,11.83-5.91,8.43-3.9,7.95-2.53,13.61-5.48,6.61-3.44,10.07-6.78,13-5.32a3.75,3.75,0,0,1,1.92,2.22c.37,1.57-.84,3.2-2.51,4.88a34.21,34.21,0,0,1-11.1,7.25c-7.61,3.07-7.95,1.47-12,4a23.19,23.19,0,0,0-8.28,9.17c-1.72,3.26-1.78,5.19-1.78,5.77,0,2.72,1.15,6.47,3.55,7.25,1.78.57,2.88-.93,4.29-.15s1.53,2.66,1.78,5.18.47,4.8-.45,7.4c-1.42,4-3.74,3.43-5.62,7.24-1.17,2.37-1.07,5.48-.89,11.69.12,3.88.19,5.85,1,7.4,1.84,3.37,5.4,4.68,7.54,5.47,4.39,1.62,6,.53,13,1.92,3.09.61,2.45.76,6.81,1.78,6.88,1.61,10.32,2.42,14.64,2.07s3.35-1.37,10.5-2.52c4.77-.76,6.6-.53,9-2.21,1.11-.77,2-1.71,4.58-3.41a17.28,17.28,0,0,1,3.55-1.92,12.54,12.54,0,0,1,3.55-.89c2.8-.22,3.61.9,6.07.74a8.73,8.73,0,0,0,4-1.33c4-2.41,3.69-6.54,6.81-7.25,1.22-.28,1.71.26,3.1-.29a7,7,0,0,0,3-2.67,22.81,22.81,0,0,0,3.4-5.47c.72-1.68.66-2.13,1.78-7.54,1.16-5.62,1.65-7.21.74-8s-2.27.41-4.14-.45a5.46,5.46,0,0,1-3-5s.08-1.26,4-5.91c0-2.53,1.1-4.58,2.66-5a4.49,4.49,0,0,1,3.41.89c1.81,1.15,1.61,2.29,2.81,3,1.89,1,3.63-1.12,7.84-1.92a18.78,18.78,0,0,1,8,.44c3.59.82,5.9,1.34,7.39,3.26,2.62,3.37-.09,7.43,2.37,9.32,2.07,1.59,5.87.16,7.1-.3a13.59,13.59,0,0,0,4.14-2.51c6.16-5.19,9.24-7.79,11-9.62,3.18-3.4,3-3.64,8.43-10.06,4.87-5.76,4.57-5,9.32-10.65,1.43-1.69,5.94-7,11.39-13.31,3.85-4.43,4.54-5.16,6.06-5.77,4.39-1.75,6.44,1.16,12.87-.3,3.32-.75,5-2,7-1,.73.36,1.58,1.05,3,4,1.62,3.48,1.86,5.56,2.81,8.88a37.12,37.12,0,0,0,3.69,9.32c1.41,2.35,2.93,4.91,5.77,6.8,5.18,3.46,8.76.74,13.61,4.59a11,11,0,0,1,3.7,4.88c1,2.69-.57,4.19,0,7.4a12.13,12.13,0,0,0,3,5.77c2.31,2.71,4.33,2.84,10.06,5.47a58.05,58.05,0,0,1,11.69,6.51c4.47,3.38,4.9,5.12,7.69,5.62,3.18.57,4.56-1.36,9.46-3.4,8.54-3.55,10.83-.4,19.38-4,.67-.28,3.56-1.86,9.32-5,4.65-2.55,7.74-4.31,11.69-3.84,1.56.18,2.83.33,3.7,1.33,2.19,2.52-.24,8.1-3,14.35-2.07,4.74-2.73,5-3.85,8.43-1,3-1.19,5-1.77,10.06-1.74,15-2.43,18.82-2.67,20.12-1,5.25-1.43,5.84-2.21,9.76-3.57,17.84,1.9,26.1,1,45a38.25,38.25,0,0,0,.59,9.47,43.36,43.36,0,0,0,4,11.09c2.66,5.74,7.53,16.38,9.76,27.37.91,4.46,1.36,6.69,1.18,9.32-.26,4-1.43,6.19-.29,9.46.67,1.94,1.53,2.46,2.81,4.29,2.82,4.06,2.66,7.33,3.84,12.87.76,3.53.81,2.15,4.89,14.06,4.92,14.39,3.68,13,5.47,16.57,3.39,6.75,7,9.94,9.17,16.12a35.33,35.33,0,0,1,1.78,8.73,8.17,8.17,0,0,1,0,2.81c-.66,3-3.12,3.6-3.85,5.92-.4,1.26-.11,2.48,1.92,6.5,3.37,6.67,4.54,7.23,5.92,10.51.81,1.92.74,2.52,1.92,11.53.9,6.85,1.35,10.27,1.78,12.73,1.51,8.58,3.2,9.39,4.88,16.56,2.08,8.92-.14,9.34,1.33,28.7.24,3.13.75,6.68,1.78,13.76,1.2,8.29,1.89,11.47,4.43,14.35,2.06,2.33,3.06,1.91,4.89,4.44s2.37,5.08,3.1,10.65c.61,4.62.92,6.93,1.19,11.09.57,9,3.06,10.7,5.47,21.16,2.37,10.28.35,10.32,2.81,27.81a153.28,153.28,0,0,0,3.11,17,137.78,137.78,0,0,0,7.69,22.63c4.42,9.9,5.68,9.26,8.58,17.31,2.84,7.89,1.9,9.25,5,16a58.49,58.49,0,0,0,8.87,13.76,50.66,50.66,0,0,0,8.29,8c3.58,2.65,5.79,3.43,7.54,6.51,1.3,2.29.69,3,2.22,5.92,1.8,3.49,3,3.31,5,6.5,2.32,3.7,2.91,7.46,3.4,10.66.69,4.46-.06,4.8.74,7.39.89,2.85,2.33,4.12,6.81,8.73,9.54,9.82,8.55,9.75,11.39,11.69,4.39,3,6.23,2.8,8.58,5.91s1.43,4.37,3.84,7.55c2.14,2.81,4.66,4.19,8.43,6.21a59.68,59.68,0,0,0,10.06,4.14c8.64,2.86,13,4.29,17.76,4.88,6.78.84,10.63,0,18.78,2.07,2.2.56,4.78,1.35,5.92,3.55.58,1.14.85,2.77-.89,7.84-2.24,6.55-3.52,6.56-5.32,12a50.85,50.85,0,0,0-2.22,10.8c-.2,1.88-.27,3.5-.3,4.73q-.3,32.83-.59,65.68a35.82,35.82,0,0,1,5.62,8c2.42,4.7,2.64,7.76,4,11.68.47,1.35,1.74,4.73,9,14.06,5.62,7.18,10.23,13.08,17.75,19.82,7.9,7.08,14.2,10.79,26,17.75,15.64,9.2,23.47,11.54,28.84,12.72a74.59,74.59,0,0,0,8.14,1.33l34.76-1.62a71.46,71.46,0,0,1-5.62,14,27.55,27.55,0,0,0-3.7,10.06,23.53,23.53,0,0,0-.15,4.88c1-.62,4.86-2.71,9-1.48a12.36,12.36,0,0,1,4,2.22c1.29,1,4.7,3.53,4.14,5.18s-4.78,2.27-7.25.74c-.56-.35-.48-.48-2.51-2.22-1.62-1.39-2.43-2.09-3-2.22-2-.52-4.16,1.34-5.33,2.37a14.42,14.42,0,0,0-3.55,4.88c-1.77,3.78-1.67,6-2.51,9.61-2,8.66-5.87,10.37-4.44,13.46,1.14,2.45,3.78,1.86,6.81,5.92,1.08,1.45,2.39,3.2,2.07,4.88-.59,3.12-6.81,4.09-11.69,4.88a64.17,64.17,0,0,1-15.53.6c-3.1.48-4,1.44-4.29,2.21-.4,1.13.43,2.31-.15,2.82s-2.42-.64-2.81-.15,1,1.61.74,3.1a2.9,2.9,0,0,1-.74,1.34c-2.23,2.5-6.53,2-6.95,3.4s2.85,3,2.51,3.7c-.46.9-6.65-1.82-7.39-.6-.53.87,2.23,2.78,1.62,4.29s-3.67.76-4.43,2.37,1.58,3.89,1,4.44-4.47-2.74-5.47-1.92,1.81,5.15.74,6.06-5-2.42-5.77-1.63c-.57.59,1.42,2.57.74,3.85-.89,1.65-5.29.37-5.77,1.63s3,3.13,2.51,4.29c-.38.9-2.62.11-3.4,1.18-1.1,1.51,1.15,6.06,3.26,6.07,1.93,0,1.78-3.84,5.32-6.37,3.26-2.33,7.35-1.9,11.39-1.48a25.91,25.91,0,0,1,9.17,2.67c2.79,1.45,5.38,2.81,7,5.62,2.21,4-.12,6.25,2.07,10.06,1.42,2.48,4.5,5.14,7.69,5,3.95-.15,5.11-4.44,10.35-8,3-2,7.68-5.25,12.28-3.85a10.05,10.05,0,0,1,4.74,3.55c3.28,3.94,2.15,6.71,4.29,15.39,1.73,7,3.6,9.81,2.07,13.9-.2.52-1.16,3.08-2.52,3.11-1.56,0-3-3.23-3.55-5.77s.16-3.36.15-7.54c0-3.09,0-6.89-1.48-7.4s-3.7,2.51-4.14,3.11a16.28,16.28,0,0,0-2.81,10.65c.15,2.38.71,4.14,2.22,8,2.65,6.77,5.05,11.83,5.47,12.72,4.67,9.87,7,14.8,7.69,18.78,1.27,7.32-.88,8.12,1,15.09,1.38,5,2.78,5.62,4.44,11.69,1.77,6.49.72,7.78,2.07,11.83,2.17,6.53,5.83,5.95,11.68,13.61,7.8,10.2,4.52,15.43,12.28,21.9,2.62,2.18,6.45,4.46,5.92,6.06-.37,1.1-2.63,1.27-3.4,1.33-6.62.5-437.5,7.5-845.71,14.05a50.73,50.73,0,0,1,1.34-11.68c.82-3.45,1.62-5.77,1.62-5.77,1.35-3.88,2.14-4.6,2.07-6.07-.08-1.71-1.32-4.15-7-6.95l-61-65.83q-6.8-20.7-13.6-41.42L1235.79,1950l-13.32-44.08-2.36-65.09q2.81-12.64,5.62-25.3l-12.87-107.84q-14.35-17.14-28.7-34.31-10.07-20.79-20.12-41.57-20-26.55-40.09-53.11L1107.39,1535l-38.61-48.81L0,1352.06A109.32,109.32,0,0,1,13.91,1329c6-7.65,9.52-9.84,19.52-22,6.84-8.34,5.91-8.17,9.91-12.43,5.95-6.33,10.07-8.9,21-17.3.69-.54,9.44-7.27,16.71-13.32,10.39-8.63,11.36-10.55,28.7-26.62,16.56-15.35,17.07-14.9,22.19-20.86s9.2-12,17.16-23.82c6.9-10.25,6.95-10.91,13.91-21.45,10.29-15.59,11-15.42,22.63-32.69,9.34-13.91,10.3-16.15,16.86-25,3-4,6.82-8.74,14.5-18.19,12.66-15.6,16.08-19.33,23.52-29,4.85-6.3,8.67-11.55,11.09-14.94a272,272,0,0,1,10.8-26.92c3.87-8.33,5.8-12.49,8.73-16.72,6-8.67,12.83-14.42,24-23.81,7.16-6,7.19-5.48,10.65-8.88,3.94-3.88,7.32-8,15.38-20.12,9.65-14.51,8.35-14,12.72-19.67,6.49-8.48,7.64-7.45,17.46-18.49,5.81-6.54,12.66-14.33,19.08-25.74a151.26,151.26,0,0,0,7.25-15.09c4.54-10.46,4.52-12.54,9.32-24.71,4.53-11.48,6.8-17.23,10.21-23.22,3.85-6.78,7.17-11.05,9.91-19.08a58.45,58.45,0,0,0,2.81-11c.54-3.71.39-5.48,1-9.32a62.8,62.8,0,0,1,2.52-9.47c2.4-6.65,5.9-9.53,11.39-16.42,4.83-6.07,7.66-10.8,13.31-20.26,1.76-3,4.38-7.84,9.62-17.61,6.7-12.5,10.1-18.86,12.27-23.81,2.61-5.92,2.8-7.16,6.37-15.09,3.7-8.24,5.61-12.42,8.13-15.38,4.8-5.63,7.41-5,11.54-10.8,1.07-1.51,1.63-2.59,5.18-11.39,5.35-13.29,5.72-14.91,7.69-18.94,1.46-3,1.45-2.49,8.88-14.2,10.27-16.21,12.24-20.24,13.9-24.85a93.74,93.74,0,0,0,5-23.23c2-21.06,3-31.59,3-39.79,0-4.28-.17-7.91,1.48-12.57,1.48-4.19,3.1-5.5,8.13-12.28,2.72-3.66,6.2-9,13.17-19.67,3.81-5.84,5.71-8.76,6.8-10.8,2.18-4.08,3.05-6.48,7.84-17.75,2.53-6,1.35-3.08,4-9.32,10-23.47,13.89-33.8,21.6-51.19,4.79-10.82,7.19-16.23,10.35-22.48,7.56-14.94,10.65-18.28,15.24-29.44,2.51-6.12,2.6-7.59,7.39-23.52,6.78-22.52,7.32-22,11.25-35.5,8.6-29.66,5.22-29.63,11.39-44.38,7-16.73,10.12-13.87,18.63-33,9-20.07,6.35-25.12,15.39-39.79,1.5-2.43,7.58-9.54,19.67-23.67,19.67-23,21.76-25,24.86-27.51,5.46-4.45,14.12-8.75,31.21-17.16,20-9.87,30-14.8,41.71-18.64C814.16,74,816.57,75,833.13,69.82c17.06-5.32,25.63-7.85,32.69-12.57,9.87-6.6,10.67-10.7,24.56-19.38,7.61-4.76,8.77-4.39,14.49-8.73,8-6,10.5-10.33,17.75-13.46.5-.21,0,0,12-2.66,4.66-1,7-1.6,9.32-3.11s2.33-2.38,5.76-4.73a33.25,33.25,0,0,1,6.22-3.4A30.33,30.33,0,0,1,962,0l393.49.74c4.53,2.62,8.64,4.72,12.13,6.36,6.35,3,9.52,4.49,12.28,5.18a23,23,0,0,1,6.06,2.07c2.89,1.54,3.11,3.36,5.48,4.29s3.48-.2,6.5-.15c3.24.05,4.73,1.4,13,6.36,1.88,1.13,4.67,2.77,8.14,4.74l196.59,87.27A25.78,25.78,0,0,0,1619.51,119.23Z"/><path d="M1985,831.65c-.73,1.33,2,4,3.55,5.62,1.09,1.09,5.35,5.37,7.1,4.29,1-.64.71-2.9.59-3.7a8.22,8.22,0,0,0-3.25-5.18,8.79,8.79,0,0,0-3.11-1.48C1988.6,830.88,1985.67,830.5,1985,831.65Z"/><path d="M2021.28,870.26c-1.9,3.67.5,5.28-1.18,9.46-1.54,3.84-3.79,3.09-5.18,6.81-1.5,4,.8,5.87-1,9.91-1.11,2.44-2.11,2.13-3.4,4.88-.64,1.37-2.34,5-.89,8.14,1.61,3.46,6.37,4.8,9.77,4.44,2.46-.27,2.59-1.25,8.43-3.55a30.51,30.51,0,0,1,6.36-2.08c4.6-.72,7.87,1.15,11.24,2.37,2.52.91,9.56.92,23.52.89,10.55,0,12.15-.24,15.83.74a38.11,38.11,0,0,1,12,5.62,41.07,41.07,0,0,1,7.4,6.8c9.77,11.15,8,17.88,15.53,22.34,3.41,2,3.4.43,10.06,3.4,5.66,2.54,7.29,4.4,13.17,6.51a55.92,55.92,0,0,0,7.69,2.07c8.57,1.89,12.86,2.83,14.94.89.88-.82,1.09-4.11,1.48-10.65.35-5.85.18-7.17-.3-8.58a15.48,15.48,0,0,0-4.88-6.66,170.31,170.31,0,0,0-13.61-10.94c-2.81-2.11-1.44-1.6-14.79-17.61-16.76-20.09-13.34-14.2-15.24-17.16-1.31-2-2.88-4.76-6.06-5.91-3-1.08-4.4.25-9.62-.59a17,17,0,0,1-6.8-2.22c-3-1.91-2.77-3.49-5.18-5.48-3.89-3.2-6.76-.91-12.72-3.4a20.6,20.6,0,0,1-9.17-7.25c-2.35-3.52-2.84-7.16-6.81-11.54-.69-.76-1.74-1.83-2.81-1.62-1.47.28-1.42,2.7-3.4,4.88a10.41,10.41,0,0,1-5.33,2.81c-3.11.88-5.72.52-9.17,0-5.41-.81-7.83-2.18-9.46-.74-.6.53-.41.82-1.34,2.51a22.19,22.19,0,0,1-3.69,4.74C2021.32,870.2,2021.4,870,2021.28,870.26Z"/><path d="M1536.82,967.45c-2.86,1.85-2.12,4.14-5.47,8.43-1.88,2.38-3.41,3.34-3.11,3.84s3.33,0,5.62-1.33c1.3-.78,1.75-1.44,3.11-1.77s2,.15,3.1,0c3-.41,6.18-5.3,4.74-8.14a4.67,4.67,0,0,0-3-2.07A6.53,6.53,0,0,0,1536.82,967.45Z"/><path d="M2155.16,1932.23c-.43-4.62.31-6.49-1-9.32a12.59,12.59,0,0,0-3.4-4.14c-1.88-1.35-2.46-.75-6.81-2.52-2.55-1-5.45-2.5-5.47-2.51a11.23,11.23,0,0,1-4.59,2.07c-2.44.47-4.11-.14-4.88.89s.43,2.48-.29,3.25c-1.08,1.15-4.29-1.51-6.07-.3-1.52,1-.26,3.73-1.92,5s-4.75-.1-4.88.3,4.9,2.2,4.73,3.11c-.23,1.25-10.24-.07-10.5,1.18-.1.48,4.55.56,5.32,2.81a3.05,3.05,0,0,1-1.62,3.55c-1.69.53-3.7-2-4.15-1.63s1.86,3.16,1.19,4-4.1-1-4.29-.59,6.87,4.51,6.51,5.32-6.67-2.08-7.25-1c-.5.89,3.07,5,5.47,4.29,2.79-.79,1.27-7.19,5.92-10.51.47-.34,2.81-2,5.32-1.33a7.69,7.69,0,0,1,3.85,3.11c.67.87,1,1.31.89,1.77-.27,1.06-2.41.75-5.33,1.93-1.32.53-4.28,1.73-4.88,4.14a4.93,4.93,0,0,0,.44,3.1,9.92,9.92,0,0,0,5.33,5.18c1.62.71,5.78,2.19,7.1.59,1.08-1.3-1-3.06-.74-7.39.12-1.74.47-1.61,1.33-5.77.76-3.67.77-5.18,1-5.18.43,0,.9,4.21.59,7.25-.11,1-.3,2.22-.3,2.22-.25,1.57-.52,2.64-.59,3-.76,3.45,1.66,8.71,2.22,8.58.39-.09,0-2.78.3-2.81s.17,3,1.62,3.69,4.88-1.39,6.07-4.14c.62-1.45.18-2,.89-2.66,1.39-1.42,3.52.15,6.21-1.18a7.19,7.19,0,0,0,2.81-2.67c.94-1.59.37-2.16,1.48-3.84.67-1,1.35-1.53,1.33-2.52a2.86,2.86,0,0,0-.43-1.36,4.53,4.53,0,0,0-1.49-1.6c-3.75-2.52-5.64-5.8-9.47-5.91l-3,.29-4.44.45c-4.24.1-7.91-3.75-7.69-4.15s5,2.57,6.07,1.34c.84-1-1.35-3.78-.74-4.29.9-.77,6.5,4.69,7.1,4.14s-3.26-4.45-2.37-5.62c.63-.84,3.55-.16,5.62,1.33s2.08,2.9,4.88,5.47c1.29,1.18,1.5,1.07,2.67,2.07,4.24,3.64,5.29,8.3,5.76,8.14S2155.62,1937.34,2155.16,1932.23Z"/></g></g></svg>