<svg xmlns="http://www.w3.org/2000/svg" viewBox="0 0 2330 1153.26"><g id="Layer_2" data-name="Layer 2"><g id="Kyrgyzstan"><path d="M505.09,848.28a34.94,34.94,0,0,0-2.88,12.24c-.22,4.55.62,6.85-1,8.49-2.55,2.55-7.14,1-11.52-.14-2.73-.7-9.33-2.4-11.81-7.63-2-4.17.55-6.6-1.44-8.93-3.19-3.72-10.1,1.92-16.86-1.87-4-2.26-3.38-5.28-9.5-8.93-2-1.19-5.05-3-7.49-1.88-1,.45-1.66,1.27-3.17,1.44a5.81,5.81,0,0,1-3.31-.72c-4.37-2.22-4.51-7.18-7.2-7.34-.58,0-1.2.31-2.45,1-2.92,1.62-3.82,3.6-4.61,3.31s0-2.45-1-3.75c-1.4-1.74-5.21-.66-8.35,0-10.92,2.32-11.72-.85-16.42,1.59-6.69,3.47-4.39,9.52-11.38,12.53-3.28,1.41-4.58.42-11.37,2.74a11.45,11.45,0,0,1-4.9,1c-3.4-.22-5.58-2.38-6.48-1.58-.51.45-.26,1.51,0,2.45,1.15,4.18,2.71,6.68,4,9.5,1.73,3.69,2.59,5.53,2.3,7.92-.17,1.43-.52,1.37-1.72,5.33s-1,4.39-1.73,5.33c-1,1.22-2.93,1.63-6.77,2.45-1.36.29-3.66.63-8.21,1.3l-3,.43c-.73,0-2.8.14-9.22-1a22,22,0,0,1-2.16-.43c-3.82-1.7-3.64-7.6-5-7.63-1.09,0-2.28,3.5-2.74,6.48-.79,5.06.7,7.28-1,10.22a9.66,9.66,0,0,1-3.17,3,26,26,0,0,1-11.81,4.61c-5.42.6-7.48-1-11.09,1a9,9,0,0,0-3,2.45c-2,2.65-1.95,6.22,0,21.46.17,1.37.65,5.08-1,6-.92.54-1.75-.2-2.88.43s-1,2.1-2.16,4.32a9.16,9.16,0,0,1-3.31,3.89c-1.58.93-3.12.91-6.19.87a36.34,36.34,0,0,1-4.76-.44c-3.81-.59-4-1.19-5.33-.86-.69.17-2,1.41-4.61,3.89a38.86,38.86,0,0,0-3.16,3.17c-1.07,1.26-1.31,1.8-1.59,1.72-.71-.19-1.07-4.28.87-7,1.37-2,3-2,6.33-3.6,3.75-1.81,8.08-3.89,9.36-7.64,1.75-5.06-2.92-10.7-3.6-11.52a17.77,17.77,0,0,0-5.47-4.32c-5.21-2.75-9-1.95-14.4-2.59a42.45,42.45,0,0,1-17.72-6.63c-7.73-4.9-8.7-9.28-15.26-10.37-2.46-.4-2.26.22-8.36.15-5-.06-9.61-.12-13.68-1.3-3.87-1.12-7.48-4.32-14.54-10.66-8.63-7.73-9.73-10.18-14.55-11.52-3-.82-5.54-.73-10.23-.57a62.94,62.94,0,0,0-12.53,1.72,79.14,79.14,0,0,0-16.56,6.2c-19.25,9.27-20.74,15.19-30,17-2.43.48-6.78.94-9.5,4.32-1.58,2-2.18,4.39-3.46,4.32-1.07-.05-1.27-1.81-3.45-3.74a12.19,12.19,0,0,0-3.32-2c-1.45-.64-5.63-2.5-8.93-.86-2.27,1.13-1.75,2.74-3.45,3.31-3.87,1.3-8.48-6.39-11.38-5-.63.29-.95,1.21-1.58,3-1.66,4.78-.61,6.16-1.88,9.5-1.33,3.52-3,3.42-3.6,6.48-.35,1.92.18,2.72.87,6,1.79,8.69-.4,10.2,1.87,15.41a11.17,11.17,0,0,1,1.44,4.61c0,.63,0,1.35-1.3,5.47s-1.53,4.46-2,4.76-1.15.59-5.62-.72c-3.59-1.06-5.38-1.59-6.48-2.74-1.33-1.4-1.68-3-2.31-5.76-1.09-4.89.12-5.22-.86-6.92-.68-1.17-1.82-2-12.82-5.76a8.88,8.88,0,0,1-2.59-1.29c-1.75-1.31-2.5-3-2.74-2.88s.37,1.69.44,1.87c1.93,5.24.51,11.39-.29,14.83-.71,3.05-1.43,4.33-2.31,5.33-1.2,1.37-2.14,1.55-3.16,2.31-4.78,3.5-1.11,11.7-5.33,14.69-2.5,1.76-5.14-.14-7.06,2.16-.9,1.08-1,2.4-1.3,5A18,18,0,0,0,.43,977c.7,3,1.64,3.11,2.59,6.34.59,2,.48,2.77.87,5.9a69.69,69.69,0,0,0,1.58,8.5c2.55,9.56,10.7,11.17,9.94,17.14-.29,2.27-1.55,2.64-2,6.34-.12,1-.15,1.89.44,6.91.89,7.64,1.42,9.3,2.88,10.22,1,.64,1.28.2,2.16.87,2.32,1.76,2.59,6.53,1,10.08-1.16,2.6-2.51,2.75-2.59,4.61a5.9,5.9,0,0,0,4.9,5.76,6,6,0,0,0,5.47-3c1.67-2.79.06-5.47,1.3-6.2,1.65-1,6,2.88,7.63,4.32,2,1.8,2.94,3.44,4.9,3.6,1.72.15,2.07-1,4.46-2,3.36-1.38,5.16-.06,12.39-1,1.37-.18,2.89-.44,3.31-1.44.53-1.24-1.08-2.56-.58-3.31.77-1.14,4.74,1.52,7.06-.15.67-.48.95-1.34,1.59-3,1.16-3.09.43-4.49,1.58-5.76s2.72-1.16,5.47-1.15c2.08,0,4.4,0,6.48,1.44,1.91,1.3,1.93,2.63,3.17,2.73,1.61.13,2.09-2.06,4.47-3.31,1.81-1,3.27-.6,7.05-.29,7,.57,6.41-.3,9.22.29a24.76,24.76,0,0,1,13.54,8.78c1.69,2.17,3,4.65,6,5.77a5,5,0,0,0,3.89.14c1.59-.82,1.3-2.48,2.73-5.33s4.32-6.3,6.63-5.9c.75.13.68.53,2,1.44,2.19,1.5,3.55,1.21,6.62,2.3a18.58,18.58,0,0,1,4.9,2.45c3,2.19,3.16,4,5,4.18a5,5,0,0,0,4.32-2.31c1-1.48.31-2.44,1.44-3.89a5.53,5.53,0,0,1,3.17-1.87c2-.4,2.6,1,4.32.72,3.69-.64,4.5-4.42,8.06-4.9a8,8,0,0,1,5,1.44c4.13,2.34,3.91,5.56,6.34,5.91,2.24.32,2.72-2.38,7.78-3.89a9.56,9.56,0,0,1,4.46-.43c1.15.18,3,.47,3.89,1.73,1.7,2.4-2,5.66-.57,8.35,1.12,2.13,4.65,2.36,8.35,2.59,2.73.18,5,.32,7.2-1,1.12-.68,1.45-1.28,4-5.32,3.3-5.17,4.46-6.84,6.48-8.5,1.48-1.22,3-2.47,4.47-2,1.74.55,1.38,3.06,3.45,4.32a5.93,5.93,0,0,0,6.34-.57c2.91-2.41,1.5-7.58,3-7.93,1.09-.25,1.81,2.4,5.32,4,.81.37,2.52,1.14,3.46.43.76-.58.23-1.54,1-2.45,1-1.13,2.36-.32,4.18-1.3,1.49-.8,1.37-1.79,2.73-3a8.18,8.18,0,0,1,5.48-1.87c5.69.23,6.34,10.61,13,10.51,2,0,3.81-.86,6.91-.14a13.54,13.54,0,0,1,6.63,3.74c3.78,4,1.25,7.12,4.46,11.38,3,3.94,5.88,2.3,10.23,7.2a20.74,20.74,0,0,1,4.17,7.35,22.09,22.09,0,0,1,.87,9.5c-.57,4.45-2,4.89-1.44,6.91,1.21,4.17,8.25,5.44,11.66,6,4.28.78,6.42,0,7.2-.28a14,14,0,0,0,3.46-2c1.2-1,1.4-1.63,2.45-2.16a5.74,5.74,0,0,1,3.6-.43c3.25.62,3.43,4,5.76,3.89,3.09-.1,5.14-3,5.76-5.19.84-2.9-.64-5.35.14-5.76s1.67,1.28,4,2.88a18,18,0,0,0,7.05,2.74c3.43.62,3.47-.38,7.64.14,3.72.47,4.93,1.42,6.33.58,1.19-.71,1.25-1.93,2-4.9,2-7.63,3.55-7.36,3.75-11.67.29-6.52.28-6.62.28-6.62a4.88,4.88,0,0,1,.29-2.45c1-2.14,4-2.64,4.61-2.74a10.26,10.26,0,0,1,4.61.58,33.36,33.36,0,0,0,12.82,1.15c4.27-.6,6.07-2.21,6.48-2.59.93-.87.83-1.25,2.16-2.74,2.5-2.78,4-4.44,5.47-4.32,3,.25,3.11,7.36,6.63,7.92,1.14.19,2.2-.55,4.32-2s5.16-3.58,5.9-6.77c.83-3.59-1.83-5.51-.72-6.91,1.27-1.61,5,.48,13.25.28,2.79-.06,4.72-.36,5.33-1.58.71-1.42-1-2.76-.29-4.46.62-1.4,2.44-2,5-2.74a19.22,19.22,0,0,1,3.32-.72c3.15-.39,4.24.28,5.18-.58,1.18-1.07.36-3,1.15-3.31s2.11,2.15,4.9,4c3.41,2.3,5.15.85,7.63,2.88s2.9,5.09,3.32,7.78a16.84,16.84,0,0,1-1,9.51c-2,4.51-4.79,4.31-5.48,7.77-.82,4.17,2.47,8,3.46,9.22,2,2.41,4.32,3.47,6.77,4.61,2.67,1.24,3.57,1.08,3.89,1,2.75-.64,3.81-4.59,4.61-4.32.6.2-.25,2.37.72,3.74,1.14,1.62,4.15,1.22,8.06.72,16.16-2.05,15.25-1.58,17.57-2.3,4.27-1.34,6.42-2.67,7.64-1.59s-.48,3.22,0,6.92c.78,6,6.45,7.7,5.76,12.09a35.79,35.79,0,0,1-2.31,4.32,56.24,56.24,0,0,1-3.6,6.05c-3.34,4-7,3.92-7,6-.06,1.21,1.09,1.46,3.31,4,1.69,2,2.8,4,5,8.21s2.9,6.11,4,6c.79,0,.89-1,3-3.17,1.45-1.48,2.28-2.3,3.45-2.44s1.9.65,3.46,1.29c.54.23,1.7.64,7.63,0,6.87-.73,7.35-1.5,7.49-1.87.56-1.42-1.4-3-.57-4.46.39-.7,1-.74,1.87-1.16,2.85-1.46,1.93-4.7,4.46-7.34,1.46-1.52,3.31-2.09,7.06-3,2.52-.62,3.48-.41,5.47-1.44s2.21-1.73,4.32-2.59c1.41-.57,2.72-1.1,4-.72s2.16,1.4,3.45,4.32a36.33,36.33,0,0,1,2.88,10.66c.44,5.06-.47,6.24.87,8.78.28.55,1.88,3.58,4.89,4.33,2.14.53,2.8-.64,7.64-1.3,3.18-.44,4.91-.65,6.19.43,1,.89,1.49,2.39,2,4.18.41,1.42.29,1.75.72,3a13.57,13.57,0,0,0,1.87,3.6c3.16,4.76,1.9,8.09,5.33,11,.56.47,1.89,1.55,3,1.15.45-.16,1-.59,1.59-2.45,1.13-3.33.29-4.27,1.15-5.76,1.17-2,3.23-1.16,5.33-3.17,1.8-1.73,1.42-3.48,2.45-6.91,1.5-5,3.26-4.41,5.47-9.65,2.65-6.3,1-9.35,3.89-11.52,1.08-.82,2-.87,6.91-1.15,10.92-.63,12.39-.74,14.26-1,6.36-.91,9.54-1.37,11.23-3.89,2.3-3.44,0-8,2.16-9.07,1.52-.8,2.86,1.39,6,.86,2.37-.39,3.36-1.87,4.61-1.3.9.42.8,1.38,1.58,3,1.23,2.57,4,5.49,6.49,5.18a5.05,5.05,0,0,0,2.88-1.87c1.12-1.16,1.06-1.82,2.73-4.46,1.3-2.06,1.81-2.41,2.16-2.6a5.63,5.63,0,0,1,3.46-.28c3.87.28,5-2,8.5-2.31,1.88-.17,2.27.44,7.34,2.31,9.82,3.62,12.45,2.85,14.55,5.9,1.55,2.25,1.36,4.48,3,4.9,1.16.29,1.72-.67,4.75-1.87,2.25-.89,3.77-1.5,5.48-1.16s1.82,1.43,4.32,2.74c.85.45,4.65,2.43,6.91,1,1.62-1,.75-2.73,2.45-4.47a7.49,7.49,0,0,1,8.21-1.15c2.36,1.25,2.19,3.42,4.18,3.75,1.18.19,1.36-.56,4.89-1.73a11.45,11.45,0,0,1,4.47-.87,10.1,10.1,0,0,1,3.31,1c3.28,1.38,3.38,2.23,4.61,2.31,2.39.14,2.79-3.09,6.19-4.9,3.88-2.06,8.57-.63,10.66,0,4,1.22,3.78,2.6,7.92,3.6a15,15,0,0,0,8.07.14c2.63-.79,2.66-1.8,5.32-2.3,3-.55,4.55.41,5.62-.72s0-2.77,1-3.89,3.41-.43,6.77.14c4.59.79,10.33,1.77,13.82-1a7.45,7.45,0,0,0,2.6-4c.79-3.65-2.42-5.25-1.73-8.35s4.76-5.44,8.06-5.76c2.75-.26,3.35,1,5.91.43,2.34-.54,2.35-1.73,5.9-3.74a26.37,26.37,0,0,1,6.63-2.6,19.91,19.91,0,0,1,6.48-.86c4.69.31,5.09,2.67,10.23,3.31a25.17,25.17,0,0,0,7.05-.29,33.83,33.83,0,0,0,5.76-1.29c3-.94,3.17-1.21,4.18-1.44,3.66-.86,6.82,1.29,8.93,2.3,3.53,1.69,4.81.55,19.59-.72,13.8-1.18,18.38-.66,19.73-3.6,1.25-2.73-1.72-5.63.43-8.78,1.44-2.12,3.76-2.42,4-4.47.25-1.88-1.58-2.54-1.29-4.17.42-2.42,4.59-1.93,6.19-4.9s-1.21-6,.58-7.92c1.34-1.45,3.46-.28,5-1.87,1.38-1.4,1.13-3.69,1-5-.92-9.79.85-7.55-.57-17.13-.94-6.33-1.46-9.65-3.75-13.54-1.37-2.34-2.47-4.21-4.75-5.48-2.78-1.53-4.65-.69-9.07-2.59-2.26-1-3.39-1.45-4.18-2.45-2.68-3.38-.44-9.13,1.73-14.69,1.82-4.66,3.33-6.12,3.89-6.62,2.43-2.18,3.5-1.26,6.19-3.31,3.89-3,5.11-7.53,5.91-10.52a9.72,9.72,0,0,0,.43-3.89c-.37-2.91-2.07-3.2-2.31-5.18-.38-3.16,3.75-3.92,6.77-10.37,1-2.22.94-2.94,2.16-4.61,1.83-2.48,3.33-2.6,4.32-4.75.1-.2,1.47-3.3.15-5.33-2-3.14-9-1.43-9.22-2.59-.08-.53,1.35-1,5.9-3.75,1.76-1.06,1.49-1,1.88-1.15,3.81-1.85,6.36-.19,8.21-1.87.56-.52.79-1.41,1.29-3.17,1-3.61,0-4.94,1-6.91,1.42-2.83,5.67-4.37,7.49-3.17,1,.67.4,1.76,1.58,3,2.26,2.39,5.92,2.31,8.21,1.59a7.8,7.8,0,0,0,4.61-3.46c1.1-2.07.15-3.42,1.15-4.46,1.39-1.45,3.85.42,7.78.43,2.51,0,2.77-.76,12.82-4.76,4.46-1.77,6.56-2.47,7.92-1.44.93.71.72,1.62,2.45,3.89,1.12,1.47,1.79,2.36,2.88,2.6,1.76.38,2.44-1.42,4.46-1.73,3.22-.51,4.39,3.57,8.21,4,3.08.37,5.75-1.84,8.21-3.89,3.62-3,3.26-4.69,6.77-7.49,3.32-2.64,3.89-1.34,7.06-3.74,1.49-1.13,1.79-1.74,8.78-11.38a16.62,16.62,0,0,1,3.75-4.18c2.43-1.79,3.73-1.19,6.19-2.88a21.38,21.38,0,0,0,6-6.33c2.3-3.73,1.47-5,3.75-7.49a10.65,10.65,0,0,1,5.47-3.32c3.76-.8,5.2,1.49,9.36.58a9.89,9.89,0,0,0,4.32-2c2.55-2.11,1.74-3.87,4.32-7.2,2.35-3,4.41-3.36,4.32-5-.11-2.09-3.35-2.74-3.17-4.32s3.26-2.44,5.33-2.74c4-.58,4.7,1.18,9.36,1.3s5.79-1.53,8.79-.29a13,13,0,0,1,3.89,2.74c2.54,2.43,2.57,4,4,4.32,1.63.3,2-1.61,5.19-3,3.51-1.59,5.78-.45,6.91-2.17a4.27,4.27,0,0,0,.14-3.45c-.87-3-3.59-4.39-6-6-6.69-4.53-4.64-6.61-12.38-12.53-3.51-2.69-5.9-3.76-5.76-5.62s2.8-1.83,4.46-4.61c2.12-3.56-.77-6.23,1.15-11.81.51-1.47,1.32-3.83,3.32-4.6,2.21-.87,4.68.69,6.33,1.72,16.15,10.07,8.74,3.84,19.59,11.38,5,3.47,7.8,5.65,10.37,4.61,2-.83,2-2.92,3.89-3.31,2.89-.6,4.23,4,9.79,6a12.92,12.92,0,0,0,7.64.57c3.32-.88,3.35-2.69,6.62-3.89,3.09-1.13,5.92-.57,10.23.29,5.67,1.13,7.1,2.74,9.93,1.73a7.79,7.79,0,0,0,4.18-3.46c1.32-2.55.11-4.75,1.58-5.9.69-.54,1.26-.3,3.75-.29,3.57,0,5.36,0,6.48-.72,2.12-1.39.79-4.14,2.3-7.92,2-5.06,7.38-7.46,9.37-8.35,5.3-2.39,7.37-.62,11.95-3.17,2.75-1.54,3.77-3.17,6.77-6.77a149.63,149.63,0,0,1,13.54-14c5.7-5.09,12.45-11.11,17-9.08,1.31.59,2,1.75,3.31,4a37.52,37.52,0,0,1,4.61,14.26c1.17,9-.65,9.92,1,16.7,1.13,4.62,1.81,7.41,4.32,9.65,4.5,4,9.5,1.48,12.82,5.62,1.81,2.26,2.62,5.88,1.44,8.5-1.37,3-4.39,2.41-6.63,6-1,1.71-.45,2-1.87,7.21s-2.05,5.15-2.45,8.06a15.41,15.41,0,0,0,1,9.07c1.51,3.09,3,2.57,4,5.19,1.86,4.53-1.58,8.25.44,10.23a3.9,3.9,0,0,0,4.46.28c1.42-.93.72-2.45,2.16-4.17a6.43,6.43,0,0,1,6.34-2c1.93.59,1.93,2.06,3.6,2.3,1,.16,1.91-.3,5.18-2.73,4.65-3.45,5-4.08,6.34-4.18s1.29.54,5.47,2.16c2.42.94,1.41.52,6.2,2.31s5.53,2.09,6.91,1.87c.29-.05,3.34-.57,4-2.59.63-1.83-1.43-3-1-5,.59-2.82,5-2.57,6-5.77.75-2.23-1.08-3.29-.28-5.32,1-2.6,5.38-4.45,8.49-3.32,4,1.47,3.95,7.23,6.77,7.35,1.35.05,2.82-1.41,5.76-4.32,1.78-1.76,2.82-3.15,3.89-2.88.75.19.75,1,1.44,1.73,1.91,2,5.32-.57,10.23.14,4.28.62,5.84,3.2,8.21,2.16a5.05,5.05,0,0,0,2.44-3L1487.32,809c1-.77,2.42-1.64,3.31-1.16s.26,2.34,1.15,4.61c.6,1.53,2.24,2.86,5.48,5.48,2.79,2.25,4,2.89,4,4.17,0,1.08-.81,1.18-1.44,2.88a7.64,7.64,0,0,0,.43,5.91c.19.34,1.58,2.79,3,2.59.6-.08,1-.59,3.6-6.62.55-1.26,1.2-2.48,1.72-3.75.81-2,.89-2.51,1.45-2.74,1.19-.48,2.09,1.59,4.75,2.45,2.05.67,3.91.22,6.62-.43,2.34-.56,3.51-.84,4.32-1.73,1.69-1.83.26-3.66,1.73-6.48a9.46,9.46,0,0,1,5-4.17c3.35-1.12,5.31.69,6.77-.72,1.21-1.17,0-2.57,1.44-5.19.77-1.44,1.26-1.29,2.88-3.46a14.19,14.19,0,0,0,2.45-4.17c.2-.6,1.41-4.21-.29-7.2-.67-1.19-1.1-1.06-1.44-2-.55-1.59.14-3.32,1.87-6.19a37,37,0,0,1,4.9-6.92c4.43-4.84,5.91-4.17,7.2-7.05,1.62-3.62-.19-5.83,1.87-7.78,1-.95,1.64-.62,5.62-2.16,2.74-1.06,4.11-1.59,4.47-2,3-3.55-3-12.22-.15-15.7l1.73-2c2-2.34,2.21-2.47,2.31-2.88.36-1.65-2-2.36-3.75-5.33-1.22-2-.39-2.18-2-8.93-.79-3.3-1.25-4.36-.57-5.47s1.88-1.17,4.46-2c3.41-1.12,5.7-1.88,7.35-3.6,2.37-2.48.78-4.21,3.6-8.07,1.73-2.36,3-2.63,3.17-4.32.25-2.42-2.25-3-2.16-5.47s2.89-2.83,3.89-6.77a11.71,11.71,0,0,0,.28-3.6c-.18-2.41-1-2.77-1-4.32-.06-2.65,2.21-3,3.16-6.19,1.06-3.54-1.15-5,.15-6.92,1.41-2.11,4.16-.58,7.77-3.31,1.87-1.4,1.57-2.13,3.46-3.17.81-.44,1.72-.77,5.76-1.44,4.53-.74,4.27-.46,4.76-.72,3.93-2.07.8-9.65,4.6-12.38,1.88-1.35,3.06.11,11.38-.87,2.82-.33,3.94-.55,5-1.44,2.09-1.69,1.44-3.64,3.75-6.91,1-1.43,2.37-3.36,4.61-4,2.47-.75,3.64.77,8.35,1.87s5.1,0,9.22,1a21.55,21.55,0,0,1,8.49,4c5.19,4.19,5.11,8.88,8.79,9.36,1.35.18,2.67-.28,4.75-1,2.65-.92,3-1.68,5-2.3a11.7,11.7,0,0,1,6.34-.15c3.32,1,3.22,3,6.77,4.76.77.38,4.43,2.19,8.06,1.15s3.65-4,7.64-6.48c3.4-2.11,6.85-2.07,11.09-2,5,.06,8.31,1.33,14,3.46a8.7,8.7,0,0,1,3.17,1.73c2.62,2.42,1.9,5.49,3.74,6.33,1.09.5,1.85-.34,5.19-1.72,1.82-.76,8.53-3.55,10.51-1.44.45.48.29.82.86,1.29,1.55,1.27,4.38.15,4.76,0,2.46-1,2.43-2.43,4.32-2.73,1.64-.27,1.88.78,3.74.72,2.86-.1,4.29-2.66,5.47-2,.77.41.23,1.53,1,2.45,1.38,1.62,5.64,1.2,8.64-.72,2.83-1.82,2.55-3.7,5.62-5a6.06,6.06,0,0,1,4.32-.58c2.15.7,2.16,2.69,3.75,2.88,2,.25,4.25-2.79,5.18-4.61s.53-2.47,1.44-3.31c1.86-1.72,4.54-.16,5.76-1.73,1-1.3.09-3.54,0-3.74-.69-1.61-1.79-1.65-2.59-2.88-1.08-1.66-.23-3.33.57-7.49,1.1-5.66.14-5.73,1.3-9.22.89-2.65,1.73-5.18,4-6.48,2-1.12,2.88-.11,5.91-1.3,2-.77,2-1.36,5.18-3.31a30.89,30.89,0,0,1,5.91-3c2.54-.93,5.31-1.93,8.21-1,1.74.55,1.64,1.19,3.45,1.73a11,11,0,0,0,6.63-.44c2.79-.91,3.83-2,8.06-5,5.08-3.63,7.62-5.44,10.81-6.62,4.66-1.73,5.36-.49,7-2,3-2.68.63-6.31,2.88-16.7.36-1.64,1.11-4.75,1.73-7.21,1.41-5.57,1.49-5.25,1.59-6.33.45-5.27-2-7.44-.44-9.94.49-.77,1.62-1.33,3.89-2.45a38.44,38.44,0,0,1,8.07-2.88c3.58-.85,5.36-1.28,7.63-1.15,2.7.15,5.55,1.21,11.24,3.31,2.56.95,4.58,1.79,5.61.87s.08-2.23,1-3.17,2.84,0,7.49.28c2.77.2,4.18.27,5.18-.57.67-.56.65-1,2.16-3.75a23.1,23.1,0,0,1,1.44-2.44c2.26-2.45,6.45,1,12.53-.58,2.29-.59,2.16-1.19,6.49-2.59,3.67-1.19,3.86-.79,5.18-1.59.6-.36,1.77-1.17,5.47-7.63,2-3.45,2.73-5.11,4.47-5.47.85-.18,1.17.12,2.73.43,3.59.71,4.33-.37,7.49,0,4.06.48,5.6,2.59,7.06,1.58.21-.14.49-.4,1.3-2.88,1.19-3.67.76-3.71,1.29-4.61,1.28-2.14,3.36-1.31,7.49-4.32,2.42-1.76,2.5-2.63,2.45-3-.16-1.27-2.12-1.56-2.16-2.74,0-.9,1.12-1.46,2.59-2.59,2.45-1.87,2.89-3.07,4-4,4.73-4,13,3.23,19.29-.87.37-.23,1.73-1.5,4.47-4,3.53-3.27,3.41-3.35,4.75-4.46a47.36,47.36,0,0,1,8.07-5.19c4.33-2.39,6-2.82,6.33-4.46.38-1.87-1.36-3.28-.57-4.47.58-.87,1.72-.41,3.45-1,3-1,2.54-3.4,5.33-4.75,2-1,4.41-.75,7.64-.43,2.3.23,3.15.61,3.89,0,1.51-1.27-.25-4.5,1.15-5.62,1-.77,2.4.31,4.61.72,4,.75,8.55-1.15,11.09-3.6,3.33-3.22,2.17-6.36,6-8.78A9,9,0,0,1,2100,443c2.5-.19,3,.93,6.19,1.44a15.41,15.41,0,0,0,7.64-.72,13.85,13.85,0,0,0,3.89-2.31c7.5-6.15,17.44-23,20.3-21.89.6.23.39,1.05,1.73,2.3a7.33,7.33,0,0,0,3.6,1.88c3,.41,4.71-3.95,12-10.81a19.74,19.74,0,0,1,7.2-4.6c3.28-1.15,4.71-.54,5.18-.29,1.69.88,1.36,2.36,2.74,3.6s3,1,11.81-.43c6.43-1.08,7.65-1.35,9.5-2.16A20.93,20.93,0,0,0,2204,395l24.34-1.59c.74.56,2.68,1.87,4.6,1.3,1.13-.33,1.76-1.16,3.32-3.89,3-5.18,4.43-7.77,4.75-10.23.43-3.24-.51-3.86.43-5.47,1.68-2.86,5.12-1.65,6.91-4.32,1.67-2.48-.71-4.36.72-8.5.31-.87,1.85-4.93,5.33-6.19,2.1-.76,3.71-.07,6-1.58,1.28-.83,1-1.18,2-1.73,2.22-1.25,4.11.18,8.93.86a62.1,62.1,0,0,0,7.78.15c3,0,4.4-.15,5.89-1,1.65-1,1.45-1.76,2.75-2.29.8-.32,2.07-.52,7.63,2,4,1.83,4.75,2.57,6.91,2.74,1.92.14,1.83-.41,4-.44,4.34-.05,5.25,2.08,9.36,2a12.74,12.74,0,0,0,5-1.15c.95-.44,1.54-.86,4.32-3.17,4.61-3.83,4.86-4.22,4.9-4.75.1-1.64-2-2.43-6.05-5.48-4.41-3.27-8.07-6.05-10.09-10.51a35.11,35.11,0,0,1-1.58-5.62c-1.6-6.73-.83-7.91-.43-8.35,1.07-1.19,2.36-.37,3.74-1.87.65-.7,1-1.78,1.59-3.89a32.39,32.39,0,0,0,.86-3.46c.71-4.45-1.79-8.87-2.16-9.5-1.18-2-1.56-1.69-6.91-8.07-1.73-2.06-2.95-3.59-2.45-4.61.65-1.33,3.74-.78,4.18-2.16a2.09,2.09,0,0,0-.58-1.73c-3.17-4.23-8.64-4.59-10.51-8.49-1.33-2.77.14-5.25-1.59-6.34-1-.61-1.84-.1-3.89,0a17.21,17.21,0,0,1-7.05-1.44c-3.64-1.6-5.6-4.45-7.2-6.77a20.9,20.9,0,0,1-3.46-7.06c-1.05-4.08-.21-6.65-2.45-9.21a8.3,8.3,0,0,0-2.16-1.73c-3.35-2-7-1.36-8.5-1.59-7.19-1.08-9.72-.8-18.14-1.87a92.3,92.3,0,0,1-11.38-2c-6.4-1.62-8.88-3.1-10.08-3.89-2.67-1.76-2.41-2.38-4.32-3.17-3.19-1.32-8.18-1.36-11.24,1.29-2,1.74-2.27,3.84-4.46,4.33a5,5,0,0,1-3-.44c-7-2.94-19.66,4.38-24.48-.43-1.47-1.46-.24-2.08-2.45-5.76a20.35,20.35,0,0,0-7.2-7.35c-3.71-2.12-6.35-1.81-6.91-3.74-.48-1.66,1.18-2.87.43-4.32-.65-1.26-2.24-1-3.89-2-2.09-1.31-2.35-3.5-3.31-6-.24-.63-3.82-9.77-10.23-11.66-3.11-.92-4.7.52-6.91-1.15s-1.57-3.49-3.46-5.19c-2.37-2.14-5.15-.89-8.35-1.44-7.1-1.21-11.25-10.4-15.12-19-2.91-6.45-4.36-9.68-4-13.54.75-8.76,8.35-14.94,6.49-17.14-.59-.68-1.75-.58-2.89-.43-11.34,1.56-26.1,10.17-27.65,11.09-1.05.62-4,2.36-5.47,1.3s-.45-4-2.16-5.19c-1.08-.73-2.54-.26-3.46,0-1.57.45-10.84,3.1-16.56.29-2.22-1.09-2.5-2.32-5.76-3.6a19.05,19.05,0,0,0-4.75-1.15c-6-.89-6.67-2.56-16.85-5.47-4.72-1.35-4.35-.93-7.64-2-4.84-1.61-5.85-2.59-8.21-2.31-3.3.4-3.47,2.6-6.77,3-3.85.5-7.22-2-8.35-2.88-4.28-3.22-3.56-6.25-6.77-7.2-2.64-.79-4.06,1-7.92,0a13.23,13.23,0,0,1-3.74-1.73c-7.58-4.78-8.13-11.35-13.25-12.24a10.85,10.85,0,0,0-5.91,1c-2.48,1.21-3.08,2.81-5.62,3.31-1.44.28-1.41-.2-3.88-.15-3.67.09-4,1.16-6.34.87-2.77-.34-3.71-1.94-5-1.3-1.06.51-.86,1.71-1.73,3.46a10.51,10.51,0,0,1-6.91,5.18c-.73.16-1.82.29-7.64-1.58-5.29-1.7-10.65-3.75-10.65-3.75-4.19-1.59-5.38-2.15-7.35-1.87-1.74.25-3,1-5.33,2.31-4,2.32-3.64,3.08-5.47,3.74-4.9,1.76-9.1-3.2-11.81-1.15-1.63,1.23-.74,3.51-2.74,4.61-1,.56-1.42.06-4.61.14s-4.5.66-5.18-.14.06-1.46-.29-2.74c-.56-2-3.14-3.49-5.33-3.74-2.86-.33-5.54,1.35-8.21,3-1.82,1.15-2.21,1.71-3.45,1.87a6.51,6.51,0,0,1-5.62-2.45c-2.19-2.72-1.18-6.27-2.16-6.48s-1.82,4.21-4.32,4.61c-1.25.2-2.85-1-6-3.45-2.26-1.73-2.25-2-3-2.16-2.66-.57-4,2.43-6.91,2.3-1.71-.07-2.86-1.19-4.89-3.17-4.06-3.94-4.31-7.27-6.34-7.34-1.68-.07-1.79,2.2-4.61,3.16-2.32.8-2.83-.53-6.77-.28-3.31.21-4.64,1.26-6.19.28-1.06-.66-1-1.47-1.73-2.44-.57-.73-2.44-2.58-12.67-1.44-7.08.78-9.08,2-11.09.43-1.69-1.31-1.35-3-3.75-4.61a8.47,8.47,0,0,0-4.9-1.44c-2.22.08-2.58,1.11-6,2.45-2.51,1-5.77,2.22-7.49.86-1.41-1.1-1.13-3.42-1.88-3.45-.57,0-.75,1.32-1.58,2.3-1.77,2.07-4.72.35-8.64,1.15-4.13.85-4.36,3.47-11.81,6.77a6.72,6.72,0,0,1-4.18.72c-2.16-.45-2.69-2-4.32-3.31-3.69-2.87-7.47.32-17.28-1.3-3-.5-4.2-1-5-1.58-3-1.92-2.72-4.07-5.33-5.47-3.23-1.74-5.68.51-7.35-1.16-2.12-2.13.89-6.82-1-8.35-1.34-1.08-3.09,1-7.35,1.15-4.69.12-5.8-2.36-8.79-1.29-1.24.44-1,.86-5.32,4.32-2.18,1.75-3.31,2.59-4,2.59-2.53,0-4.61-5.15-5.81-9a11.4,11.4,0,0,0-2.25-1.26,12.25,12.25,0,0,0-10.52.58,10,10,0,0,0-2.88,2.3c-1.13,1.36-.94,2-1.87,2.74-1.67,1.39-4.16,1-4.75.86-1-.18-2.2-.84-4.47-2.16-1.29-.75-2.32-1.35-3.74-2.3-2.81-1.89-3.16-2.48-3.89-2.3-1.18.28-.66,1.9-2.74,4.46-.91,1.13-1.78,1.77-1.87,3-.06.85.3,1.09.15,1.59-.51,1.62-5,1.59-6,1.58-5.21,0-7.14-1.56-8.64-.29-.9.77-1.06,2-1.3,3.89-.35,2.78.48,4.21-.58,5.48a8.33,8.33,0,0,1-1.87,1.15,19.58,19.58,0,0,1-3.46,1.58,13.54,13.54,0,0,1-4.46.43c-4.86,0-7.3-.06-9.65-1.15a4.89,4.89,0,0,0-3.17-.72c-1.19.26-1.2,1-2.3,1.3-1.82.5-2.64-1.26-5-1.15-1.15,0-1.13.46-3.17,1a17.49,17.49,0,0,1-4.32.58c-2.45,0-4.88.11-7.06-1.3-1.56-1-1.42-1.73-2.74-2.16a5.11,5.11,0,0,0-5.18,1.44c-1.39,1.67-.08,3.06-1.3,5.19-1.56,2.74-5.39,3.35-6.19,3.46-3.07.4-3.69-1-6-.29-2.51.8-2.25,2.58-4.9,3.31-2,.56-2.62-.35-5,.43-1.29.42-1.42.78-3.16,1.44a16.92,16.92,0,0,1-3.89,1,15.84,15.84,0,0,1-8.21-1.3c-1.46-.59-2.19-.88-2.59-1.44-1.34-1.82.38-3.9-.29-7.48a7.84,7.84,0,0,0-2-4.33c-2-1.9-5-1.67-9.36-1.29-6.16.54-8.8,2.06-11.09.43a5.65,5.65,0,0,1-2-3.17l-35.14,4.75a10.2,10.2,0,0,0-5.33-3.88c-2.11-.59-2.74.15-5.47-.58-1.42-.38-4-1.07-5.18-3.17-.77-1.34-.23-1.93-1-2.74-1.25-1.28-3.68-.88-6.2-.43-2.11.38-2.51.72-4.32,1.16-4.81,1.16-6-.29-10.37.86a14.42,14.42,0,0,0-5.18,2.3,16.16,16.16,0,0,0-4.75,6,23.47,23.47,0,0,0-2.31,6.48c-.17.89-.34,2-.29,8.5,0,5.57.19,7.43-1.15,8.5-.9.71-1.39.22-3.17,1-1.93.85-2.61,2-4.46,3.88-2.06,2.11-3.71,3.78-5.76,4.61s-3.87.7-7.92-.28a72.84,72.84,0,0,1-12-4c-13-5.59-19.5-8.38-24.91-6.19a17.45,17.45,0,0,1-7.78,2,19.48,19.48,0,0,1-5.19-1c-3-.84-5.68-1.33-10.94-2.31-8.57-1.59-9.23-.83-12.82-2.44-2.07-.94-2.94-1.68-5.33-2.31a23.67,23.67,0,0,0-7.63-.43c-7.32.44-9.65,2.09-13.11.43a13.13,13.13,0,0,1-2.73-2c-4.47-3.5-7.24-3.93-12.25-6.48-9.42-4.78-8.51-7.78-14.54-8.93a63.4,63.4,0,0,1-8.07-1.58,23.22,23.22,0,0,1-5.9-2.16c-3-1.73-3.3-3.06-5.76-3.74s-3,.47-5-.15c-3.13-.95-2.72-3.95-6.63-7.49-1.68-1.52-3.57-2.45-7.34-4.32a52.07,52.07,0,0,0-6.05-2.59c-4.26-1.49-7.1-2.49-10.66-2.31-3.81.2-4.1,1.52-9.36,2a19.73,19.73,0,0,1-6,0c-4.9-1.06-5.92-5.32-11.52-11.66-4.22-4.78-4.28-3.08-13.11-11.67-6.57-6.4-7.68-8.45-8.21-10.66-.44-1.87-.44-3.73-2-5.47-1.73-1.91-4.18-2.38-6.05-2.74-4.84-.93-7.5.57-8.93-1.15-1.07-1.28-.43-3.11-1.16-3.31-1.12-.32-2.39,4.17-4.6,4.17-1.22,0-1.53-1.36-3.6-3-2.77-2.22-3.89-1.13-6.2-2.88-3.16-2.4-1.94-5.11-5.47-7.92a14.73,14.73,0,0,0-4.32-2.16c-4.61-1.8-7.23-.25-8.79-2.16-1.2-1.48-.29-3.05-1.58-3.89-1.48-1-3.09.84-5.19,0-1-.39-1.66-1.51-3-3.75-2.14-3.52-2.48-5.25-3.6-5.32s-1.27,1.42-2.88,1.72c-.78.15-1.56,0-3.75-1.29-2-1.13-3-1.91-4.6-3-3.2-2.17-4.82-3.25-5.62-2.73s-.53,2.4-.43,3c.34,2.11,1.4,3.08,2.45,4.75.39.64,3.33,5.34,2,8.64-.44,1.11-1.39,2.17-3.89,3.32-8.58,4-17.8.92-24.34,2.88-2.39.72-3.73,1.12-5.18,2.3-1.08.88-1.51,1.62-2.59,1.87-1.47.35-2.93-.48-4-1.29-6.07-4.45-7-12.27-10.8-12.53a3.74,3.74,0,0,0-2.45.86c-2.73,2.2,0,6.66-1.72,12.39-.75,2.52-1.29,1.7-5.33,8.21-4.18,6.73-3.8,7.91-6,9.36-3.29,2.11-8,2.05-11.52.29-3-1.48-2.56-3.4-4.76-4.18-3.6-1.27-6.63,2.86-14.54,7.63-6.17,3.73-6.15,2.32-15.85,7.49-8.87,4.74-7.56,5.21-12.24,7.06-9.24,3.66-14,1.68-17.28,6a12.77,12.77,0,0,0-2.3,8.35c.29,3.31,1.94,4.66,1.87,8.64a13.53,13.53,0,0,1-1,5c-1.85,4.36-4.88,4.23-7.2,8.36a14.78,14.78,0,0,0-1.73,7.78c.12,4.17,1.86,5.56,2.88,9.79.68,2.82.2,3.44-.14,10.94-.63,13.69.73,16.68-2.16,20.31-1.27,1.59-2.11,1.74-4.61,4.75A48.69,48.69,0,0,0,891.5,159c-2.32,4.24-3.09,7.89-5.33,20.45-1.39,7.82-2.09,11.74-2.16,12.68-.33,4.54-.83,11.49,1.58,19.15,1,3.07,4.46,14.15,13.83,22,2.25,1.89,5.34,4,5.18,6.91-.16,3.08-4,5.46-4.89,6-1.7,1.07-3.31,2.08-5.19,1.73-2.3-.43-2.56-2.47-6-4a16.12,16.12,0,0,0-3.45-1,35.5,35.5,0,0,0-7.64-.87c-6.67.06-8.25,2.29-11.09.72-.11-.06-.1-.06-3.45-2.88l-3.6-3c-3.89-4.3,3-14-.43-17.57-1.13-1.19-2.79-1.11-4.76-1.15-9.66-.21-8.28-2.81-27.07-5.62-6.67-1-10.2-1.53-15.41-1.58a118.93,118.93,0,0,0-16.28,1.15c-11.78,1.37-18.16,3-20.74-.29-.89-1.15-1-2.45-2.73-3.89-1.1-.9-2.44-1.51-5.77-2.16-5.66-1.1-6.41-.23-8.49-1.15-2.42-1.07-2.83-2.85-5.76-7.78-3.51-5.89-5.67-9.51-9.22-12.24-2.11-1.62-1.56-.51-11.38-4.61-6.94-2.9-10.42-4.35-14.11-6.19a34.22,34.22,0,0,0-6.63-2.74,32.18,32.18,0,0,0-7.34-1.15,42.88,42.88,0,0,0-9.36.72,15.47,15.47,0,0,1-3.89.58,11.75,11.75,0,0,1-5.76-1.88c-5.93-3.62-8.75-8.25-14.12-11.52-7.29-4.44-11.23-1.46-19.3-6.48a47,47,0,0,0-6.33-3.46c-3.4-1.52-2.67-.68-7.49-2.59-1.45-.57-2.32-1-3.46-.72-1.34.29-1.66,1.15-3.46,2.45s-3.05,2.22-4.61,2.16c-2.56-.09-3.48-2.89-5.47-2.45-.66.15-1.17.73-2.16,1.87-2.1,2.43-1.9,3.34-2.88,4.18-2.65,2.27-8.58-.55-11.66-2-2.35-1.11-3.8-1.82-5-3.45-1.65-2.17-1.11-3.57-2.73-5s-4.25-1.6-6.48-1.59c-4.77,0-5.78,1.91-8.07,1-2.5-1-1.5-3.34-4.75-6-1.46-1.21-1.91-1-8.21-3.89-2.3-1.07-2.16-1.07-3.89-1.87a60.27,60.27,0,0,0-11.66-4.46c-4.88-1.19-7.47-1.83-10.23-.58-1.63.74-2,1.53-4.9,2.88A44.49,44.49,0,0,1,532,129.6c-4.08,1.34-6.12,2-6.19,2-5.23.73-7.19-2.51-11-1a19.19,19.19,0,0,0-3.6,2.88c-3.86,3.42-3.9,4.24-6.34,6a15,15,0,0,1-6.48,3.17c-1.37.25-4.19.78-6.77-.58-3.95-2.07-3.34-6.43-6.62-7.34-1.28-.36-2.77.19-5.76,1.29-2.83,1-3.74,2-6.63,2.6a20.63,20.63,0,0,1-3.31.43,25.94,25.94,0,0,1-5.76-.58c-6.15-.89-7,.07-9.22-1.29-1.83-1.15-2.44-2.59-3.17-2.31s-.33,2.21-.86,5.19c-.22,1.25-1.09,6.14-3.46,6.77-2.13.56-4.56-2.58-5.18-2s1.13,2.62.57,3.17-2.21-1.12-5.47-2.16c-2.15-.69-2.16-.22-5.33-1s-4.38-1.57-4.9-1c-.35.39,0,1,.87,4.47.14.53.47,1.83.57,2.3.87,4.12-3.11,8.63-3.88,9.51a26.2,26.2,0,0,1-6.49,5c-3.21,2-5.49,2.73-7.2,5.47a11.46,11.46,0,0,0-1.15,2.59c-2.65,8.33,2,15.48-1.15,19-.84.95-1.83,1.17-3.89,3.32-.48.5-1.07,1.15-1.58,1s-.52-1.12-1-2c-.76-1.38-2.36-1.84-3.46-2.16-3-.88-5.64.23-10.37,1s-5.39.24-11.09,1.3c-4.46.83-5.39,1.4-6.05,2.16-2,2.32-1.59,6.36-.29,9.07,1.45,3,3.38,3.16,8.79,7.21s9.73,7.36,9.51,11.37a6,6,0,0,1-2.74,4.76,5.57,5.57,0,0,1-3.6.43c-2.6-.4-2.84-1.79-5.76-3.17a16.16,16.16,0,0,0-7.92-1.3c-1.91.08-2.93.14-3.89.87-1.43,1.09-1.29,2.58-2.16,5.47a32,32,0,0,1-3.6,7.49c-2.48,4.16-3.68,4.47-3.6,6.19.13,3.05,3.94,3.8,4.32,6.34s-3.71,3-9.94,9.36c-2.66,2.72-4,4.12-4.32,6.05a8.17,8.17,0,0,1-1.3,4c-.68,1-1.11,1-1.58,1.59-1.2,1.51-.48,3.92,1.44,9.21,2.78,7.67,3.28,8.19,4,8.5,2.49,1,4-1.73,7.78-.86,2.21.51,2.14,1.58,5.47,2.73,2,.68,4,1.39,5.76.58,1.5-.68,1.72-1.91,3.17-4.32,1.79-3,3.67-6.08,6.63-7.06s6.8.35,9.07,2.16,2.77,4,4.61,4c1.41,0,1.68-1.19,3.89-2a8.77,8.77,0,0,1,6,0c2.22.89,2.44,2.5,4.89,5.9,2.82,3.92,6.08,8.45,10.8,9.37,1.57.3,3.09.17,5.19,1.29a6.11,6.11,0,0,1,3.17,3.17c.32,1,.16,1.84-.15,3.6-.41,2.38-.91,2.68-1,4.18-.14,2.18.86,2.4.86,4.17,0,3.52-4,6.21-5.62,7.35a9.22,9.22,0,0,1-4.17,1.87c-2.21.3-2.83-.81-5.19-1-2.9-.24-5.25,1.08-7.2,2.16-3.23,1.81-2.64,2.74-5.62,4.18s-5,1.26-5.47,2.74c-.36,1.15.64,2.11,0,3.31a3.1,3.1,0,0,1-1.73,1.3c-5.5,2.2-6.61,1.93-7.92,3.16-1.85,1.75-.89,3.46-2.74,4.47-1.5.82-2.4-.19-4.75.57-.72.24-2.76.91-3.6,2.6-1.13,2.28,1,4.25,0,5.9-.18.3-.78,1.1-5.9,1.3-4.27.17-7.15.28-10.66-1a46.23,46.23,0,0,1-4.9-2.45c-4.94-2.63-6.07-3.68-7.2-3.17-1.33.61-.65,2.47-1.87,6.34-1.67,5.28-4.27,6-4,9.51.11,1.72.74,1.4,1.58,4.75a21,21,0,0,1,.72,7.2c-.22,2.59-.41,4.69-2,6.48a8.64,8.64,0,0,1-5.9,2.59c-1.94.13-3.45-.39-6.05-1.29-3.65-1.26-4.76-2.32-5.62-1.73-1.35.93.39,4.29-1,5.33-1.14.85-2.94-1-6-1.44-3.43-.52-6.26.93-8.36,2-3.69,1.9-5.65,4.46-8.78,8.64a93.08,93.08,0,0,0-8.07,12.68,13.71,13.71,0,0,1-3.45,5c-2.38,2-4,1.59-7.06,3a20.11,20.11,0,0,0-8.64,8.21c-1.32,2.56-1.79,5.27-2.45,9.08s-.46,5.24-1.73,6.62c-1.83,2-3.62.69-7.06,2.31-4.78,2.25-4.07,6.09-8.78,8.06-3.42,1.43-4.88-.13-6.63,1.59-2.07,2-.45,4.68-2.88,8.64a10.08,10.08,0,0,1-3.45,3.6c-2.49,1.47-3.75.5-7.93,1.73a21.94,21.94,0,0,0-5.47,2.44c-3.12,2-2.68,3-4.75,3.89s-3.08,0-8.64.15c-3.21.08-4.81.13-5.48.72-2.85,2.52,1.25,8.92-2,12.24-1.2,1.22-1.92.52-3.46,1.87-2.84,2.49-3.5,7.57-1.87,11.38,1.24,2.88,3.49,4.32,5.76,5.76,2.58,1.64,6.12,3.89,9.79,3,4.35-1,4.21-5.31,8.65-6.19,3.09-.61,6,.9,8.49,2.16,2.81,1.45,2.56,2.72,5.48,4,2.44,1.11,4.37,1.16,4.75,2.45s-1.06,2.19-.58,3,2.06.36,3.89.57c2.3.27,3.8,1.44,6.19,3.32A28.79,28.79,0,0,1,252.9,527c4.42,6.4,3.81,9.4,6.92,10.8,2.12,1,4.22.37,7.05-.43,1.37-.39,7.42-2.09,10.8-7.49,2.38-3.79,1.32-6,4.18-8.5a11,11,0,0,1,5.47-2.44c4.43-.6,7,2.11,9.22.57,1.26-.86.79-1.94,2.31-2.88,1.73-1.08,3.85-.59,5.18-.29a9.92,9.92,0,0,1,4.9,2.6c1.84,1.89,1.26,3.15,2.73,6.76a36.34,36.34,0,0,0,7.2,10.52,17.71,17.71,0,0,1,2,2.45,18.82,18.82,0,0,1,2.45,5.33,31.81,31.81,0,0,1,1.3,8.78c.08,8.08-2.17,13-3,20.31-1.15,9.8.39,19.75,2.45,20,1.18.15,2.75-2.87,4.18-5.62,1.95-3.77,1.67-5.06,3.31-6.34,2.72-2.11,6.78-.81,7.06-.72,2.65.88,3.21,2.51,6.76,6.48,5.62,6.28,6.7,5,9.8,9.51,2.65,3.86,3.14,6.67,5.33,6.91,1.31.15,1.81-.79,4.32-2.3A26.46,26.46,0,0,1,375,597.53a17.45,17.45,0,0,1,7.92.15c6,1.84,5,8.81,9.65,10.22s10.76-3.13,13.83-7.49c2.62-3.73,3.1-7.65,4.9-7.63s2.13,3.7,5.18,4.32a25.46,25.46,0,0,0,3.89-.14c2.45-.17,2.68-.3,3.31-.15,2.14.5,3.33,2.8,3.75,3.6,1.5,2.9.29,4.09,1.73,8.79.78,2.57,1.56,3.58,2.59,4a3.52,3.52,0,0,0,2.45.14c2.29-.77,2-3.86,4.89-8.35,1.32-2,2.11-3.22,3.6-3.74,2.45-.85,5.47.53,7.21,2.3,2.79,2.85,3.34,7.79,3.6,10.08.21,2,.09,2.83.72,3.17,1.94,1,7.05-5.42,7.77-6.34,2.28-2.88,4.52-5.72,3.6-7.92-.75-1.81-3-1.6-3.31-3.17-.4-2,3.2-3.16,3.89-6.33.46-2.09-.71-3.4-1.87-6.05-3.21-7.33-1.75-14.26-.87-18.44,1-4.48,2.26-5.93,3.6-6.48a4.61,4.61,0,0,1,2.74-.14c3,.82,2.79,4.32,5.33,5.18,1.59.55,2.32-.61,5.76-1.44,4.14-1,4.6.32,7.49-.43,3.78-1,3.59-3.39,10.66-8.78a52.9,52.9,0,0,0,4.75-3.61c2.77-2.56,4.71-4.36,5.33-7,.93-4-2-5.94-.58-9.08,1.07-2.29,2.85-1.72,4-4.17.55-1.15.44-1.86-.29-8.36-.54-4.76-.59-5.39-1.3-6-1.37-1.28-2.74-.39-6.48-1.44-2.27-.65-5.3-2-5.18-3,0-.42.55-.48,3.45-1.87,2-1,2.08-1.08,3-1.44,2.19-.84,2.62-.52,3.45-1,2-1.16.91-3.73,2.31-6.77,2-4.44,7.65-6.34,11.23-6.05,1.16.1,2.52.46,2.59,1s-1.89,1.14-1.87,2.16,1.59,1.87,1.59,1.87c1.91,5.67,1.25,9.35.28,11.67a70.07,70.07,0,0,1-4.61,6.77c-3.66,5.15-4.57,6.34-4.75,8.5,0,.63-.33,4.12,2,5.9.2.15,1.94,1.47,3.31.86,2.62-1.15,1.24-8.16,2.74-8.49,1.31-.3,2.75,5,4.89,4.89,1.47-.1,2.68-2.73,3.75-5,1.14-2.47,1.1-3.48,1.73-3.6,1.5-.27,3.78,5.11,5,8.07,2.07,4.89,1.88,6.17,3.89,8.64,1.55,1.91,2.3,1.92,3,3.6,1,2.42.4,4.55,2,5.76a2.46,2.46,0,0,0,1.44.58c1.5,0,2-1.69,4-2.6a4.2,4.2,0,0,1,3.31-.28c1.7.79,2.43,3.5,1.73,5.32-.49,1.29-1.4,1.36-1.44,2.31-.06,1.4,1.87,1.93,3.17,3.74.35.49.67,1.1,1.15,6.2.69,7.42.23,8.64-.29,9.5-.63,1.05-1.2,1.32-1.29,2.31-.19,1.87,1.71,2.53,2.3,4.75s-.71,4.66-1.44,5.9c-1.83,3.13-3.6,2.68-4.46,4.9-1.32,3.37,1.57,7.43,2.73,9.07a16.76,16.76,0,0,0,5.91,5,9.29,9.29,0,0,0,4.46,1.44c3.32,0,4-2.62,7.06-3s5.67,1.62,7.92,3.31c3.28,2.48,4.12,4.79,7.49,5.62a6.33,6.33,0,0,0,2.74.14c2.37-.45,3.64-2.36,4.75-3.6,2.45-2.71,5.49-3.6,9.94-4.89a30,30,0,0,1,11.52-1l4.89,38a10.83,10.83,0,0,1-4.46,4.18c-2.25,1.07-4.35,1-4.46,1.73s2.17,1.78,2.73,2a15.64,15.64,0,0,0,8.07,1c1.64-.25,3.54-.8,8.49-3.74a69.87,69.87,0,0,0,10.23-6.92c5.51-4.57,7.25-7.61,9.62-7,1.42.38,2.55,1.94,3.49,3.25,1.64,2.29,1.36,3.49,2.59,4.17s2.33-.25,5.76-1c2.46-.54,5.66-1.24,8.64,0,1.09.45.7.56,4.32,3.31,3.94,3,4.47,2.91,5.47,4.32a11.68,11.68,0,0,1,2,5.62c.16,2.58-.79,3.85,0,4.61s2.34-.46,4.9.14c.83.19.88.38,3.45,1.87,4.21,2.44,4.83,2.39,5.19,3.31.78,2-1.52,4-.58,5.19.68.86,2-.06,3.32.86,1,.72,1.27,2.22,1.72,5.19.34,2.21.51,3.32.29,4.17-.75,3-3.63,3.62-3.46,5.05s3.41,2.11,6.49,2.88c9,2.24,7.06,3.07,14,4.46A61.91,61.91,0,0,0,739,691.72a45.41,45.41,0,0,0,11.23-1.58,64.84,64.84,0,0,1,9.94-2.59c4.13-.66,5.2-.29,5.9.14,2.15,1.32,1.47,3.62,3.32,7.92.91,2.12,3,6.94,7.49,8.64.35.14,4.25,1.55,7.49-.29,1.75-1,1.66-2,4-4.6a19.21,19.21,0,0,1,6.19-4.9c2.94-1.33,5.61-1.26,9.51-1.15s3.63.61,6.91.72c7.1.22,9.43-2.13,12.24-.29,2.54,1.66,2.86,5,2.88,5.33.17,2.1-.84,3.83-2.88,7.2-1.77,2.94-2.66,4.4-4.17,5.62-1.09.87-3,2-9.22,2.59-10,.9-13.36-1.35-18.15,1.44a30.35,30.35,0,0,0-3.89,2.88c-3.36,2.92-3.45,4.27-6,5.76-1.53.88-1.46.39-5.18,1.87a33.74,33.74,0,0,0-5.76,2.74c-3.24,2-4.86,3-5.62,5s-.24,3.93-1.73,5a3.25,3.25,0,0,1-1.44.58l-19.44.28a4.39,4.39,0,0,0,.43,2.6c1.38,2.5,4.88,1.61,5.91,3.6,1.3,2.51-2.66,7.06-3,7.49-1.82,2.09-2.53,1.7-3.31,3.16-1.87,3.49,1.49,6.9-.29,8.93-1,1.14-2.94,1.09-5.62,1a5.87,5.87,0,0,1-3.16-.72c-1.13-.72-1-1.42-2-2.3a5.41,5.41,0,0,0-5.19-1.15,4.84,4.84,0,0,0-3.31,4c0,1.94,1.84,2.45,2,5,.09,1.37-.43,1.29-.43,3,0,2.49,1.06,2.88.86,5a6.61,6.61,0,0,1-1.15,3.17,6.86,6.86,0,0,1-1.59,1.59c-1.75,1.15-4,.55-7.92-.58a35.24,35.24,0,0,1-6.62-2.59c-2-1.05-1.9-1.26-3.17-1.87-4.3-2.08-6.31-.06-9.51-1.44-4.47-1.94-5.09-7.88-7.2-7.49-1.26.23-1.32,2.41-3.31,3a4.53,4.53,0,0,1-3.17-.43c-5.17-2.2-7.49-8.67-7.63-9.07-1.32-3.84-.67-5.93-2.31-6.77-.55-.29-2.2.09-5.47.86a35.9,35.9,0,0,0-5.76,1.59,9.91,9.91,0,0,1-2.74,1c-1.35.26-1.83,0-2,.29-.57.87,2.66,5.59,7.77,7.63,3.6,1.44,6.43.89,7.21,2.74.18.44,0,1.4-.44,3.31-.68,3.15-1,4.75-1.87,5.76a9,9,0,0,1-2.73,2.16c-1.18.61-2.14.41-2.6,1.16a2.06,2.06,0,0,0,0,1.87c.76,1.49,3,.89,5.48,1.87a10.32,10.32,0,0,1,5.18,5.33c.14.3,2.34,5.31,0,8.79-1.32,2-2.69,1.35-4,3.45s-1.18,4.94-1,6.92c.31,3.59,1.48,4.72.72,5.61-1.2,1.42-5.3,0-7.49-1.15a17.55,17.55,0,0,1-3.6-2.59c-3.12-2.73-3.07-3.9-5.76-6.2-1.9-1.61-4-3.38-6.05-2.88-1,.25-1.26.83-3.46,1.73a8.3,8.3,0,0,1-2.73.87c-2.75,0-5.82-4.1-6.48-8.21-.45-2.79.42-4.26-.58-5-1.33-1-3.24,1.27-6.48,1-4.21-.34-5.94-4.66-7.78-3.88-1.54.65-.38,3.73-2.88,7.05a8.12,8.12,0,0,1-3.6,2.88c-2.32.87-3.38-.24-6.77-.14-.62,0-6.22.23-6.91,2.45-.6,1.92,3.07,3.41,2.74,6.34-.19,1.61-1.36,1.58-3,4.32-1.8,3-1.14,4.15-2.74,6.91-.84,1.45-2,2.52-4.32,4.61-4.26,3.85-4.75,3.23-8.21,6.48-3.06,2.88-3,3.64-5.9,5.9-1.64,1.27-2.32,1.54-2.31,2.16,0,1.89,6.35,3.78,13,5.76,2.57.78,4.3,1.22,4.61,2.45s-.93,2.47-3.32,5.19c-1.86,2.11-2.31,2.18-2.59,2.16-1.83-.14-2.08-4.63-3.74-4.75-.86-.07-1.22,1.09-3.6,4.32a34.3,34.3,0,0,1-4.9,5.47c-1.45,1.28-2.19,1.92-3,2-1.63.19-2.52-1.05-6.19-3.89-4.43-3.43-5.93-3.78-6.48-3.89a10.38,10.38,0,0,0-5.33.43c-1.56.51-2.81.93-3.31,2-.62,1.35.54,2.44,1.44,5.61.78,2.74,1.28,4.49.58,5.91-1.12,2.25-4,1.17-9.08,3.6-4.15,2-3.19,3.22-7.2,4.9-3.8,1.58-6.42,1.23-7.92,3.45-.29.43-.87,1.45-2,3S525,886,524.67,886c-1.28.12-1.24-4.37-4.75-7.2-.44-.36-1.73-1.15-4.32-2.74-2.07-1.27-3-1.77-2.88-2.16.22-.9,5.34.57,6.48-1.3.62-1-.51-2-1.44-4.75-1.94-5.68.29-9.08-2.3-11.66a6.86,6.86,0,0,0-2.6-1.44,18,18,0,0,0-10.51-.72"/></g></g></svg>