<svg xmlns="http://www.w3.org/2000/svg" viewBox="0 0 2150.5 2581.07"><g id="Layer_2" data-name="Layer 2"><g id="Lao_People_s_Democratic_Republic" data-name="Lao People&apos;s Democratic Republic"><path d="M1563.76,2276.68a10.82,10.82,0,0,0,3.86-.25c.66-.17,5-1.28,6.38-4.62,1.86-4.56-3.12-10.09-3.67-10.68-3.14-3.41-5.22-2.56-7.17-5.58-2.48-3.86,0-6.55-2.07-9.57-2.7-3.86-7.86-.9-14-4.46-5.06-2.92-7.14-8.13-9.24-13.39-1.59-4-3.7-9.26-2.55-15.94a28.93,28.93,0,0,1,6-12.75,48.22,48.22,0,0,1,5.42-5.74c7-6.73,10.44-10.1,15-11,3.21-.64,5.09.08,6.21-1.43.57-.77,1-2.11-1-8-1.78-5.47-2.66-8.21-3.83-9.25-3.69-3.3-7.87,0-17.69-1.91-5.35-1-10.92-3.28-10.84-5.26.07-1.69,4.19-1.65,6.37-5.58,1.07-1.92.65-2.94,1.92-4.3,1.74-1.89,4.42-2,5.89-2.08,5.79-.41,14.73-2.8,18.65-7.81,1.11-1.42,1.65-3.6,2.71-8,1.36-5.55.9-7.13,1.92-15.3.34-2.76,1.09-8.18,2.55-14.66.85-3.81,1-4,2.39-9.25,2.76-10.87,4.14-16.3,3.82-20.56a36.45,36.45,0,0,0-4.14-13.87,28.24,28.24,0,0,0-6.38-9.25c-2.81-2.58-5.63-3.77-11.15-6-6-2.47-9-3.7-13.08-4.31-8.83-1.3-11,1.84-17.21-.47-2.76-1-4.92-2.92-9.25-6.7s-7.72-6.76-10.36-11.79c-2.31-4.43-1-4.72-3.5-10.84-3.55-8.62-6.59-9-6.86-14-.22-4.14,1.66-7.49,4-11.64a42.78,42.78,0,0,1,6.53-8.61c6-6.28,9.49-7,9.25-9.24-.27-2.45-4.83-3.77-13.87-6.38-2.88-.83-7-1.9-15.78-3.66-6-1.19-10.39-2-11-2.07-18-3.15-20.79-6.24-46.38-12.76-8.28-2.1-14.89-3.54-17.86-9.08-.4-.75-1-3.44-2.23-8.77-1.8-7.93-2.71-11.89-3.19-14.66-1.67-9.64-.64-9.44-1.91-12.6-1.78-4.43-4.15-5.67-11-12.11-3.22-3-7.19-7.33-15.14-15.94-8.33-9-10.24-11.66-12-14.51s-3.68-6.67-5.26-9.72c-1.85-3.59-3-6-5.42-10.52a59.52,59.52,0,0,0-3.34-5.9c-3.68-4.3-8.12-4.23-13.87-6.69a33.65,33.65,0,0,1-12.27-8.93c-6.15-7.74-1.47-17.43,1.27-39a230.73,230.73,0,0,0,1.59-33.48c-.06-8.39-1-19.47-3-41.28-2.41-26.57-3.13-29.63-1-36.18.73-2.2,5.05-14.68,10.2-24.07a69.39,69.39,0,0,0,4-8.45,78.68,78.68,0,0,0,3-9.88c1.87-8.25.9-14.51.8-26.31-.11-14.34,1.25-14.54.48-25.66-.6-8.7-.95-13.15-3.19-18-2.73-5.94-4.55-5.21-12.27-16.58-4-5.92-4.62-7.71-8.45-12.43a82,82,0,0,0-8.77-9.25c-5.13-4.6-9.44-7.17-17.85-12.11-6.44-3.79-11.57-6.46-18.17-9.88-11.15-5.79-11.29-5.47-16.1-8.29-8.53-5-13.41-7.88-18-13.39-2.8-3.35-5-7.71-9.25-16.42-3.15-6.39-4.19-9.45-7.81-15.14a60.05,60.05,0,0,0-6.69-8.93,50.62,50.62,0,0,0-9.73-8.13c-6.68-4.24-8.43-2.95-12.27-5.74-3.68-2.67-3.81-5.11-9.25-18.65-6.62-16.49-9.29-20-10.68-21.68-4.15-5-4.9-3.63-10.52-9.88-5.14-5.71-4.58-7-12.43-18-6-8.41-7.24-9-9.88-14.19-2.55-5-1.67-5-4.94-12a112.52,112.52,0,0,0-8.45-15c-1.06-1.56-2.24-3.21-5.78-8.41-1.38-2-2.16-3.17-3.15-4.66-2.81-4.24-3.45-5.42-5.42-8.45-4.32-6.63-6.53-10-9.08-11s-5.12-.63-7.65-.16c-4.82.89-8.54,3.36-15.79,8.29-4.22,2.86-4.69,3.48-6.21,3.5-3.36.06-6.13-2.86-11-8.13-4.5-4.87-3.89-5.37-5.9-6.53-2.86-1.66-4.55-.89-14.82-.8-9,.08-6.46-.52-11.8-.32a22.06,22.06,0,0,1-9.56-1.27,21.72,21.72,0,0,1-2.24-1.06c-4.32-2.35-5.46-4.92-8.76-8a36.55,36.55,0,0,0-10-6.38c-2.78-1.32-3.93-1.53-7-2.71-8.56-3.25-8.85-5.07-13.39-6.53-7.2-2.32-8.51,1.62-23.27.8-6.4-.36-9.13-1.27-11.16-3.19s-2.41-3.73-4.46-4.15c-2.2-.44-3.14,1.49-6.38,2.87-4.9,2.11-6.79-.59-14,1a27.26,27.26,0,0,0-7.33,2.71,32.73,32.73,0,0,0-7.34,5.74c-4.65,4.56-7,6.84-8.45,10.52-.5,1.27-3.51,8.84,0,14.34,1.85,2.89,5.52,5.26,7,6.22,2.76,1.78,4.76,2.45,4.62,3.19s-2.6.63-7.65,1.59c-2,.38-3.36.74-5.42,1.28a77,77,0,0,0-9.72,3.19c-6.7,2.74-10.05,4.11-12.28,7.17-1.31,1.8-1,2.35-3.19,11.79-2.45,10.5-3.34,11.91-4.14,12.92-1.25,1.57-1.86,1.66-9.09,6.53-5.32,3.58-8,5.38-8.28,5.74-6.09,7.25,2.7,16.19-3.19,25.82-2.29,3.74-5.71,5.83-6.54,10.84a14.46,14.46,0,0,1-1.59,5.1c-.78,1.41-1.81,3.29-3.83,4.15-2.28,1-4.67.11-8.13-1.12-1.06-.38-1.87-.76-3.5-1.51-3.93-1.84-5.15-2.73-6.7-3.43a17.65,17.65,0,0,0-10.2-1c-4.85.85-6.53,3.53-11.64,7.18-7.32,5.23-8,2.66-18.65,8.76-6.8,3.89-11.32,6.47-15.78,10.84a31.9,31.9,0,0,1-7.49,5.9,55.14,55.14,0,0,1-6.37,2.87c-5.16,2-5.3,1.37-6.22,2.23-3.63,3.41,1.75,10.34-2.07,15.62a10,10,0,0,1-7.18,3.83,11.21,11.21,0,0,1-5.26-1.12c-2.06-.9-2.82-1.84-4.78-3.35-4.81-3.69-6-2.41-7.65-4.62-2.73-3.54-1.7-9.33-.16-12.75,1-2.23,1.54-1.91,2.55-4.14a15.79,15.79,0,0,0,.48-12.28c-2.31-5.65-7.47-7.83-8.93-8.45a17.87,17.87,0,0,0-3-.94c-5.62-1.3-10.36.14-12.49.62-8,1.85-15.74-1.34-24.07-4.78a58.7,58.7,0,0,1-12.91-7.17c-3.44-2.54-4.79-4.16-10.68-8.45-5.06-3.69-6.89-4.55-8.93-5.1-3.91-1-4.9.08-8-1.11-3.25-1.28-4.42-3.44-7.81-7.34-1-1.13-3.89-3.89-9.72-9.4-10.29-9.74-11-9.2-12.59-12.28-3-6-.39-8.3-4-12.91-.2-.26-4.52-5.63-11-6.05-2.69-.18-2.57.71-6.21.79-6.23.15-8.06-2.42-11.16-1.11-2.15.9-2.11,2.49-4.78,5.89s-4.44,4-8.77,7.5c-8,6.42-6.17,7.81-13.55,13.55-4.14,3.22-6.1,3.86-9.72,7.65-1.26,1.31-2.59,3.05-5.26,6.53-5.29,6.91-6.65,9.45-10.2,10.84a15.67,15.67,0,0,1-4.47,1,15.9,15.9,0,0,1-5.73-.8c-3.63-1.13-3.78-2.24-7.5-4-5.22-2.46-6.41-1-11.47-3.67-2.2-1.18-2.71-1.85-3.67-1.59-2.19.59-2.08,4.83-4.14,11.63-1.54,5.06-2,4.1-3.67,9.25-2.13,6.66-1.27,8.09-3.51,15-1.49,4.61-2.3,7-4.62,9.09-1.13,1-2.41,1.8-8.61,3.66-8.37,2.52-9.83,2.24-15,4.15s-7.56,2.8-9.56,4.94c-3.45,3.66-4.09,8.3-6.38,8.29-1.56,0-2.16-2.16-3.35-1.92s-1.8,3-2.39,7.66c-1.24,9.86-.46,9.94-1.43,11.79-2.18,4.13-5.35,2.37-11.32,8-4.14,3.88-4,6-7.65,7.65-2.37,1.07-4.7,1.21-8.29,1.44-6,.37-7-.71-8.61.48-2.86,2.11-.38,6.18-3.51,10-1.69,2.09-4,2.8-8.28,4.14a50.49,50.49,0,0,1-9.73,1.91c-8.65,1.25-14.81,8.67-19.13,13.87-1.05,1.27-9.58,11.55-12.91,21.84a17,17,0,0,1-4.62,7.65,12.27,12.27,0,0,1-5.74,3.19c-2.79.59-3.63-.46-6.69.16-1.75.35-4.16.84-5.26,2.55-2.26,3.49,3,8.83.95,11.32-.68.82-2.63.81-6.53.79-3.7,0-5.55,0-7.81-.79s-3.71-1.85-6.54-4a46.75,46.75,0,0,1-5.84-5.13,38.08,38.08,0,0,0-4.49-4.33c-.1-.08-1-.81-2.1-1.54a55.72,55.72,0,0,0-11.48-5.42c-5.86-2.2-7.14-2.37-8.76-4.14a10.25,10.25,0,0,1-2.56-4.78c-.79-3.86,1.48-6,3.19-11,1.84-5.33.07-5.24,1.76-13.39s3.48-8.39,3.18-13.07a27.36,27.36,0,0,0-3.5-11c-2.39-4-4.39-4.69-4.15-6.85.26-2.35,2.78-3,7.18-7a33.77,33.77,0,0,0,5.42-6.06c3.15-4.8,5.67-13.27,2.07-18.49-2.18-3.15-5.33-3.27-5.26-5.1.08-2.15,4.47-2.49,11.32-6.21,2.28-1.25,1.25-.91,13.38-9.73,5.22-3.78,5.8-4.13,6.38-5.42,2.28-5.06-2.36-9.36.16-13.39,1.51-2.41,3.31-1.06,7.17-4.46,2.74-2.4,2-3.23,6.22-8.29,3-3.58,4.05-4,4-5.58-.07-1.83-1.64-2.7-2.71-6.69-.21-.8-.33-1.47-.38-1.71-.5-2.77-.06-3.52-.57-5.94a9.61,9.61,0,0,0-.77-2.62,9.58,9.58,0,0,1-.93-2,8.61,8.61,0,0,1-.21-1.07c-.35-2.7,4.14-10.52,4.14-10.52,2.26-3.94,4.88-8.49,3.35-11.48-1.26-2.45-4-1.23-6.86-4-2.63-2.51-2.92-6.3-3.5-13.87-.54-6.93.44-9.28.79-10a23.63,23.63,0,0,1,3.83-5.42c3.74-4.45,5.35-4.76,5.26-6.22-.12-1.92-3.48-3.38-10.2-6.22-5.54-2.34-5.82-2-8.61-3.5-2.41-1.31-2.51-1.73-9.25-6.86-5.87-4.47-6.53-4.71-7.65-6.37-.5-.75-3.19-4.77-2.55-9.57.28-2.07,1.06-3.38,8.13-11.31,5.32-6,8-9,10.52-11.16,4.55-3.94,5-3.34,7.81-6.38s3.93-5.43,7.18-6.69c2.39-.94,3.48-.35,4.3-1.44,1.71-2.27-2.28-5.77-.8-9.56.36-.91,2-2.16,5.26-4.62,6.41-4.83,6.41-4.83,6.54-5,1.86-1.62,3.79-4.21,7.65-9.4,3.14-4.22,3.85-5.49,3.67-7.17a8.26,8.26,0,0,0-2.39-4.47c-2-2-3.14-1.42-4.31-2.87-2.12-2.62-.54-7.4.8-11.47a44,44,0,0,1,2.23-5.42c2-4.26,1.81-7.91.16-28.85-.45-5.73-.72-9,1.27-12.28,1.81-3,3.28-2.43,5.74-5.74,3.4-4.55,1.47-6.8,5.1-13.86a25.54,25.54,0,0,1,5.1-7.18c2.17-2.08,3-2.06,5.74-4.3,3.54-2.9,6.29-5.16,6.86-8.13.83-4.36-3.36-8.5-7.18-12.27-3.08-3-4.4-3.42-13.07-9.73-7.85-5.71-8.48-6.66-8.92-7.49-1.87-3.52-.87-6.15.95-17.53,2.66-16.59,1.93-19.7.16-22-2.12-2.75-4.38-2.58-5.89-6.06-1.1-2.5-1-5-.8-9.72.2-5,.85-5.52.16-7.49-1-2.87-3.39-4.66-5.26-6.06-3.42-2.56-5-2.21-6.22-4.14s-.7-3.86-.16-7.34c1.82-11.64-.16-12.86,2.39-17.53.84-1.53,3.43-6.28,7-6.38,2,0,3.22,1.42,5.58,1,.58-.11,2.07-.51,4-2.71,3.57-4.1,4.15-9.32,4.78-15.78.52-5.27.12-7.8-.32-9.56a13.55,13.55,0,0,0-2.23-5.42c-1.29-1.72-2.27-1.94-9.88-5.58-3.85-1.85-4.69-2.31-5.9-1.92-2,.67-3.58,3.26-3.67,5.58-.07,2.09,1.07,2.94.48,3.83-.35.53-1.13.75-6.53.32a49.18,49.18,0,0,0-5.51-.42c-1.92.06-2.65.32-4.77.28a30.88,30.88,0,0,1-3.59-.34c-5.5-.87-11.27-4-14.19-5.58-3.81-2.06-5.71-3.1-6.81-4.4A10.26,10.26,0,0,0,272.9,880a11.59,11.59,0,0,0-2-.91c-3.5-1.17-12.72-.65-16.26-.64-6.3,0-5.24-1.56-11-1.43-2.89.06-9.42.21-14.83,4.3-3.07,2.33-2.44,3.41-7.17,9.41-3,3.81-2.94,3-10.84,11.31-3.84,4.07-8.22,7.65-11.79,12-1.78,2.14-3.22,4.08-5.58,4.3-.54,0-2.67.16-7.17-3.82-4.14-3.66-3.51-4.77-6.22-7-4-3.32-6-1.43-15-5.26-4.09-1.74-4.66-2.56-7.5-3-1.46-.24-6.83-1.12-10,1.92-1.16,1.09-1.73,2.64-2.87,5.73-1.58,4.3-1.22,5.78-2.71,6.86-1.71,1.24-4.09.65-6.06.16-3.47-.86-3.93-2.13-8.6-4.62-3-1.61-3.16-1.27-9.57-4.31-2.92-1.39-4.38-2.08-4.62-2.39-3.54-4.56,5.05-13.1,1.59-19.13-1-1.76-1.54-.69-5.73-4.62-3.83-3.58-3.58-4.66-7-7.65-3.6-3.14-5.06-3-5.58-4.94-.66-2.47,1-5.28,2.39-7.65,1.83-3.11,2.93-3.31,2.87-4.79-.08-2.24-2.71-4.07-5.58-6-2.69-1.87-3.18-1.56-4-2.71-2.06-3-.51-7.45,0-8.93a32.31,32.31,0,0,1,2.39-4.62c2.7-4.77,3.3-5.1,4.15-7.17,1.6-3.93.11-4.4,1.43-7.34s2.93-2.85,9.56-8.44a75.64,75.64,0,0,0,6.22-5.74,45.21,45.21,0,0,0,5.42-6.38c3.28-5.12.61-6.79,3.19-16.58,1.19-4.51,2.28-6.15,4.78-15.14.16-.58.45-1.61.81-3,1.4-5.33,1.62-7.06,3.18-13.74.92-4,1.38-5.94,1.86-7.74.37-1.34.91-3.22,1.51-5.93.1-.44.32-1.45.61-2.9,1.74-8.84.92-9.31,2.23-15.31.47-2.13.84-3.31.32-3.66-.94-.64-3.1,2.59-7.49,4.3a17.15,17.15,0,0,1-8.77.8c-2.6-.48-5.45-1.73-9.4-5.42-5.32-5-7.81-9.85-10.2-14C97.32,686.63,96.52,689.15,90,678c-6.11-10.45-11.8-22.32-11.8-22.32-2.43-5.07-4.58-9.91-9.56-11.95-2-.84-4.12-.93-8.29-1.12-4.71-.21-8.26-.32-10.2,1.91-1,1.09-.49,1.55-1.6,3.83-1.59,3.27-3.19,3.64-5.26,6.37-2.58,3.41-1.21,4.3-4.14,9.41-2,3.46-3,5.32-5.26,6.22-3.35,1.36-5.69-1-8.13.63-.71.47-1.6,1.38-2.55,6.06-1.68,8.21-.11,11.14-2.07,12.59-1.22.9-4.05.07-9.73-1.59-4.83-1.42-6.1-2.36-6.85-3A12.7,12.7,0,0,1,1,679.24c-1.52-4.44-1-7.64-.63-14.18.78-12.67,0-16.78,3-18.65,1.87-1.16,2.8,0,4.31-1.12,4-3-2.23-11.66.95-22,1.69-5.47,4.06-5,5.74-11.63,1.28-5,.14-6.15,1.44-12,1.09-4.92,2.05-4.72,4.62-12.11,2.49-7.17,2-8.43,4.3-14.51a89.44,89.44,0,0,1,4.94-10.2c5.38-10.14,8.06-15.21,11.32-19,5.39-6.21,6.13-3.8,13.71-11.63,5.88-6.09,7-9.2,12.59-12.76A35.51,35.51,0,0,1,78,515.06c8.27-2.19,11.49-.53,29,0a148.68,148.68,0,0,0,19.93-.48c5.65-.55,8.55-.86,12.27-2.07,2.93-.95,12.42-4.41,17.54-13.07,2.56-4.34,1.85-6.28,1.59-6.86a5.74,5.74,0,0,0-6.06-3c-2.24.49-2,2.44-4.3,3.82-4.07,2.44-7.81-1.88-13.87.16-2.4.81-2.18,1.61-4.94,2.39-.57.16-6.82,1.86-8.84-.77-1-1.32-.42-3,1.19-8.63,1-3.45,1.84-6.93,2.87-10.36,2.79-9.3,4.19-13.95,4.46-15.78.89-6,.13-8.18,1.91-9.41,2.83-1.94,6.27,2.49,11.16,1.44,3.11-.68,3.51-2.85,11-13.55,6.14-8.78,7.78-10,9.88-15.15,1.38-3.33,1.17-4,2.87-7.65,2.37-5.09,4-6.58,5.9-11.16.75-1.84.88-2.57,2.23-7.81,4.16-16.06,4.36-14.53,5.26-19.6,1.52-8.5.63-10.9,2.71-12.12,3.14-1.82,6.31,2.92,15.15,3.67a28.3,28.3,0,0,0,12.27-1.75c1.14-.44,3.49-1.42,9.56-5.9,5.68-4.19,6.48-5.43,10-8.13,4-3,10.25-6,22.64-11.8,7.32-3.43,7.52-3.36,9.56-4.62,5.78-3.55,7.27-6,13.87-11.63,5.28-4.49,4.22-2.83,13.55-10.21,6.38-5,1.31-1.42,13.39-13.55a8,8,0,0,0,2.39-4.14,6.54,6.54,0,0,0-1-5.1c-1.11-1.41-2.55-1.48-2.55-2.23s1.81-1.6,3.19-1.92c3.17-.72,4.38.77,9.41,1.12,2.52.18,3.12-.13,3.66.48,1.24,1.38-1.06,3.8-1.59,8.93-.38,3.68.68,3.7.16,7.65-.5,3.77-1.52,4.17-1.12,6.53s1.66,3,1.76,5.74a8.42,8.42,0,0,1-.64,3.67c-.33.74-1.16,2.31-5.42,4.94-3.91,2.41-4.46,1.87-5.9,3.35a10.63,10.63,0,0,0-2.71,7c0,3.83,2.26,6.64,4.62,9.56,3.78,4.67,6.42,5.15,7,8.61.41,2.39-.64,3.4.32,4.78,1.32,1.92,3.75.57,7.81,2.39.8.36,4.86,2.19,6.05,6.06a8.5,8.5,0,0,1,.32,3,12.17,12.17,0,0,1-2.39,6.22c-4.69,7.23-6.12,7.51-5.9,9.24.25,1.91,2.05,2,7.34,6.54,2.75,2.37,2.22,2.32,5.89,5.58,4.38,3.88,7.32,5.9,10.21,5.41.32-.05.59-.13.79-.18a12.28,12.28,0,0,0,5.42-3.64c.63-.6,2.49-1.62,6.22-3.67,5.88-3.22,8.82-4.83,11.79-5.58,3.27-.81,2.49.15,13.87-.16,7-.19,9.31-.6,11.48-2.23,1.74-1.3,2-2.37,4.14-3.5,2.46-1.33,4.69-1.28,7.65-1.28,10.17,0,12.21-.5,17.86.48,2.71.47,4.71,1,6.21,2.71a8.29,8.29,0,0,1,1.92,4.94c.09,3.45-2.27,4.26-1.92,6.85.38,2.78,3.54,5.29,6.38,5.42,1.29.07,1.41-.41,5.26-1.91,3.4-1.32,5.34-2.05,7.81-2.07a11.54,11.54,0,0,1,4.62.8c6.06,2.58,4.58,10.52,10.68,13.39a11.69,11.69,0,0,0,6.22,1,11.35,11.35,0,0,0,4-1.27,12.26,12.26,0,0,0,4-3.51c4.36-5.75,4.29-9.87,8.45-14.82a85.15,85.15,0,0,1,8.77-8.93c.85-.74,2.32-1.95,2.55-3.83.09-.75.09-2.52-2.24-5.1-4.43-4.9-8.95-3.45-14.82-7.49a23.3,23.3,0,0,1-7.17-8.29c-1.06-1.87-4.47-8.07-3.51-15.62a43.7,43.7,0,0,1,3.35-10.84c1.69-4.09,2.53-4.84,2.55-7.17,0-1.55-.36-2.4-3-9.09-2.23-5.57-2.28-5.74-2.23-6.21.43-4.5,6.55-4.42,9.08-10.36,1.12-2.63,1.82-7.08,0-10.52-.61-1.17-1.58-2.34-3-5.26-1.11-2.26-1.66-3.4-1.4-4,1.05-2.29,8.19,1.36,14.16-2.26a12.21,12.21,0,0,0,4.46-4.94c.56-1.13,2.1-4.22,1.12-7-1.08-3-4.07-2.73-9.73-6.53-3-2-6.74-4.53-8.61-8.93-1.32-3.13-.1-3.48-1.43-8.45-1.71-6.41-4-6.89-3.67-10.36.39-3.71,3.12-3.92,3.67-8.45.42-3.4-1-4.16-.16-6.53,1.27-3.51,4.85-3.11,5.9-6.06.75-2.1-.87-4.83-4.15-10.2-.76-1.25-1.83-2.93-6.85-9.88-2.25-3.12-3.37-4.67-3.83-5.26a71.41,71.41,0,0,0-18.65-16.9c-3-1.85-5.85-4.1-9.08-5.58-2.63-1.2-4.63-1.79-5.1-3.5-.29-1.05.44-2.52,1.91-5.42a37.11,37.11,0,0,1,2.87-4.95c2.5-3.6,3.24-3.31,3.51-4.62.52-2.58-2.35-3.84-6.06-9.72-2.76-4.37-1.71-4.52-4.14-7.81-3.13-4.23-5.24-4.48-6.38-8a11.08,11.08,0,0,1-.16-6.54c.8-2.59,2.19-3,3.35-5.9a15.67,15.67,0,0,0,.95-6.05c-.22-4.3-2.68-5.4-6.37-12-2.38-4.22-4.15-7.44-4.31-11.79-.08-2.41-.24-6.88,2.55-9.25,3.61-3,8.35.62,13.23-2.87,1.71-1.21,2.64-2.74,4-4.94A32,32,0,0,0,440.83,55c.78-2.63.7-3,1.91-7.81s1.28-4.41,1.75-6.53c1.34-6.06.26-7.12,1.44-13.87.51-3,.56-1.82,1.91-8,1.46-6.64,1.4-8,2.87-9.88A14.07,14.07,0,0,1,457.4,4.5c2.83-1,3.32-.34,7.18-1.11,5.74-1.16,6.58-3,10.68-3.35a16.32,16.32,0,0,1,8,1.59,23.89,23.89,0,0,1,12.43,14.19c.85,2.75,1.09,5.62,3.67,7.81.45.38.56.4,3.82,2.07,6.58,3.39,7.12,3.83,7.65,4.47,1.79,2.1,1.77,4,3,4.14,1,.09,1.81-1,2.71-2.23a12.2,12.2,0,0,0,2.71-7c.12-3.42-1.43-4.59-.64-5.74.93-1.36,3.65-.56,8.77.16,8.23,1.15,13.58,1.83,17.22-1,1-.76,1.34-1.38,3.18-2.71,2.65-1.9,4.26-3.07,6.22-3,2.86.06,3.06,2.59,6.7,3.19,2.4.4,2.74-.63,5.41-.16,2.22.39,2.56,1.21,5.27,2.23,3.93,1.49,4.41.21,6.69,1.44,1.76.94,3.19,3.28,6.06,8,.33.55,1.21,2,2.55,3.82.61.83,1.15,1.52,1.52,2,1.29,1.59,2.35,2.69,2.62,3,2,2.14,5.44,5.73,6.86,8.61,3.16,6.43-2.7,11.1.31,15.3,2.7,3.76,8.07,1,11.64,5.26,2.76,3.31.27,5.82,3,11s7.93,7.72,10,8.77c5,2.45,6,1,9.09,3.35,3.56,2.69,3.15,5.25,7.17,9.56,2,2.11,3.68,3.22,6.85,5.26,12.33,7.9,18.14,6.79,22.16,13.07a13.75,13.75,0,0,1,2.71,7.49c0,3.15-1.36,4.72-.48,6.7,1,2.25,4,2.82,5.9,3.35,8.83,2.4,17.61,9.75,17.06,13.7-.51,3.61-8.62,3.3-9.25,7.18-.41,2.52,3.23,5.28,10.52,10.68a88.83,88.83,0,0,0,14.51,9.24,81.08,81.08,0,0,0,9.72,4.08c-1.38,6.72-.25,9.51,1.28,10.75,2,1.66,5.24.82,7.17,3.5.63.88.63,1.45,1.27,4,1,3.84,1.68,5.41,2.24,7.33,1.23,4.29.91,7.67,1.11,18.17a142.56,142.56,0,0,0,.64,14.35,68.25,68.25,0,0,0,3.35,14.18c2.77,8.49,4.63,9.72,5.58,10.21,3.11,1.6,6.8.55,8.76,0a20.68,20.68,0,0,0,7-3.83c2.37-1.76,3.16-2.74,8.92-8.77,4-4.13,4.31-4.43,7.49-7.81,3.92-4.16,5.88-6.25,6.06-6.69,2.38-5.82-.44-15.21-3.35-19.93a4.83,4.83,0,0,1-1-3.19c.06-.45.32-1.67,5.26-5.41,2.14-1.63,2.57-1.76,3-1.76,2.44,0,4.24,3.79,4.62,4.62,2.63,5.87-1.25,9.06-.64,18.49a25.83,25.83,0,0,0,2.87,11c1.93,3.63,3.35,6.83,6.06,7.34,3.23.6,4.68-3.16,13.55-8,2.42-1.32,1.9-.81,5.58-2.71,2.78-1.45,3.83-2.12,5.42-2.08a7,7,0,0,1,4.3,1.92q-.4,25.5-.8,51l-26.14,28.22a14.63,14.63,0,0,0-5.1,8.61c-.19,1.26-.65,4.24,1,5.42s4.34-.12,4.78-.32c2.94-1.38,3.14-3.71,5.42-4a3.72,3.72,0,0,1,3,1c2.08,2.24-.62,7.84-1.92,10.52-2.85,5.91-4.56,5.59-6,9.88-.71,2-.79,5.07-1,11.16-.21,7.81.25,9.74-1.43,11.95-1.2,1.56-2.92,2.27-6.38,3.67-5.88,2.39-8.88,1.78-11.8,4.78-.7.73-2.11,2.18-1.75,3.51.44,1.63,3.21,1.84,7.81,2.87,7.57,1.69,12.56,2.87,15.14,6.69a12.44,12.44,0,0,1,1.76,4.79c1,5.27-1.26,7.4,0,10.52s4.08,2,7,5.42c3.93,4.61.32,8.44,4.3,15.14,2.17,3.65,3.85,3.53,5.74,7.81,1.72,3.88,1,5.5,2.71,6.69,2.41,1.69,4.83-.87,10.84,0a14,14,0,0,1,5.58,1.76c1.61,1,3.22,2.48,6.54,8.92,2.41,4.7,3.82,8.29,3.82,8.29,2.34,5.95,2.69,8.1,4.94,15,4.43,13.51,6.26,14.89,7.81,15.46,3.25,1.18,7.86-.25,8.61-.48,3-.94,3.18-1.92,5.26-2.07,2.51-.19,3.82,1.11,8.93,4,6,3.38,5.59,2.35,7.33,3.83,3.12,2.64,4.82,6.22,6.85,10.52,1.43,3,1.76,4.41,3.51,5.74.18.13,3.42,2.53,6.38,1.43,1.69-.63,1.63-1.8,3-2.39,2.56-1.09,5.77,1.62,9.24,4a74.42,74.42,0,0,0,12,6.38c5.34,2.23,12.7,5.31,17.69,2.23,3.48-2.15,3.15-5.66,7.81-7.81,1.45-.67,4.12-1.89,6.22-.8,2.7,1.42,1.64,5.24,4.78,12.76,1.29,3.09,1.94,4.64,3.51,6.05,3,2.74,6.43,2.2,12.11,2.71,3.53.32,13.21,1.2,21.36,6.54a39.74,39.74,0,0,1,8.13,7.33c5.94,6.73,5.79,10.38,10.36,12.59,3.4,1.65,8.27,2,11.64-.47,3.74-2.7,4.26-7.76,4.46-9.73.59-5.82-2-8-.48-10,2.64-3.47,11.6,1.4,14.35-2.23.77-1,.46-3.13-.16-7.33-.8-5.41-2-7.32-1.76-11.64a24.13,24.13,0,0,1,.64-4c.76-3.43,2-8.93,6.22-13.23,1.55-1.57,4.26-4.32,7.17-3.83,1.83.31,2.17,1.63,4.15,1.91,2.54.36,4.77-1.42,6.53-2.87,4.55-3.73,3.49-5.87,6.38-7.49,3.07-1.72,4.52.56,13.07.32,2.82-.08,2.25-.32,8.92-.8,4.1-.29,6.15-.44,8.61-.47,7.37-.11,8.17.76,9.57-.32,3-2.36.18-7.21,3.82-11.32,1.15-1.3,2.63-2,5.58-3.35a37,37,0,0,1,8.45-2.71c4.88-.94,9.8-.53,19.45.32,7.53.67,9.37,1.15,10.36,1.44,2.47.71,3.27,1.23,9.72,3.82s6.38,2.36,8.13,3.19c4.39,2.07,7.64,4.82,11.64,8.93,10.5,10.79,9,13.33,15.94,19.6,2.69,2.44,8.81,5.88,21,12.75,9.35,5.26,12.94,6.83,14.66,11.32,1.37,3.59.59,6.54,3.51,11,1.17,1.79,3.09,4.72,5.9,4.94,3.22.26,4.18-3.31,8-3.83,2.17-.29,4.47,1.19,9.08,4.15a43.18,43.18,0,0,1,11.16,9.4c1.85,2.27,2.78,3.4,3.19,4.79,1.77,6-3,13.58-8.61,16.57a26,26,0,0,1-8.93,2.55c-2.32.19-2.71-.15-3.82.32-3.31,1.41-2.62,5.62-5.42,10.36-1.82,3.07-4.66,5-10.36,8.77-3.82,2.54-4.85,2.78-10,5.74-8,4.58-15,9.43-20.41,16.42-1.61,2.1-3.24,4.62-2.39,6.21,1,1.84,4.25.58,7.17,2.87.85.66,1.74,1.68,3.51,7.18,2.59,8,1.68,8.91,3.19,10.52,3.27,3.5,10.78,2.75,15.78.32,5.85-2.85,4.6-6.21,10.2-9.25,6.6-3.58,9.84.26,18.17-3.51a34.68,34.68,0,0,0,9.25-6.37c3-3,4.54-5.85,9.08-8.93,3.54-2.4,4.68-2.09,5.1-1.91,2.16.88.84,4.52,3.51,8.61,1.86,2.83,3.28,2.27,6.86,6.21,2.84,3.14,4.28,4.73,4,6.22-.91,4.44-15.85.44-23,8.45-2.29,2.57-2.86,7.88-4,18.49s-1.65,16,.64,19.44c2.12,3.17,3.79,2.31,16.26,8.29,10.73,5.15,11.41,6.71,16.73,7.65,7,1.25,8-1.05,13.39.8,5.18,1.78,4.91,4.12,13.08,9.25,4.25,2.67,7.4,4.64,12.11,5.73,5.39,1.26,6.47-.12,11.8,1.44,4,1.18,6.65,2.92,10.2,5.26,4.84,3.2,7.27,4.85,7.81,7.65.26,1.37.1,3.1-1.92,6.7-3.23,5.77-6.35,7.62-9.4,11.15-7.22,8.38-2.84,13.23-10.36,20.88-3.27,3.33-5.54,5.64-9.41,7-3.23,1.16-6.38,1.23-7.49,3.51a5.47,5.47,0,0,0,.16,4.14c2.76,7.81,2.61,23.3-2.07,33.47-1.4,3-2.75,6-5.9,8-3.83,2.44-6.52,1.08-10.68,4-3.58,2.5-2.61,4.23-5.58,5.9-4.85,2.72-8.22-1.48-13.71.79-2.72,1.14-4.63,3.68-8.44,8.77-2,2.7-3.9,5.79-4.63,7s-1.69,2.92-2.23,4c-3.89,7.76-.38,13.56-3.66,17.53-1.52,1.83-4.42,2.18-10.21,2.87a54.1,54.1,0,0,1-21.67-1.11,55.08,55.08,0,0,1-15.47-7c-5.12-3.35-10.3-6.73-14.18-13.07-2.15-3.51-2.5-5.63-4.78-6.37-3.39-1.1-7.68,1.9-11.8,4.78-2.94,2-2.82,2.49-5.42,4.14s-8.19,5.2-10.68,3.51.74-6.6-1.91-10c-1.66-2.16-6.34-2.16-15.62-2.08-11.93.12-10.92,1.59-18.65,1.6a8.82,8.82,0,0,0-4.15.8c-2.79,1.36-2.86,3.53-5.26,5.89a13.38,13.38,0,0,1-9.08,3.67c-2.95-.07-3.29-2.16-8.45-3.83-2.77-.89-4.2-1.35-5.1-.63-1.94,1.54,1.71,6,.16,11.63-1.28,4.64-4.6,4.81-4.47,7.65.24,4.94,10.34,5.34,12.6,12.44.6,1.89-.08,2-.64,8-1.07,11.4,1.25,12.76-.48,19.28-1.42,5.36-3,4.37-5.26,11.8-1.68,5.41-1.4,7.69-3.51,9.09-2.85,1.89-5.24-1-11.15-.48-4.65.44-8,2.7-12.44,5.74-3.08,2.09-5.08,4-9.08,7.81-6.38,6.06-5.53,6.36-8.13,8-5.84,3.6-10,2-12.12,5.58a7.84,7.84,0,0,0-.47,6.53c2,5.24,8.4,3.41,16.41,9.72,4.51,3.56,4.89,6,10.68,9.57a17.76,17.76,0,0,0,7.49,2.87c.72.08,1.38.1,7.18-.48,4.17-.42,6.25-.62,7.49-.8,6.92-1,7.15-1.74,8.61-1.11,3.18,1.37,2.09,5.08,6.21,8.29,2.06,1.59,4.17,2.1,6.7,2.71,5,1.2,6-.15,9.56.79,3.06.81,5.49,3.14,10.36,7.81,3.81,3.65,5.72,5.52,6.38,7.81,1.36,4.73-1.65,7.29,0,9.25,1.83,2.17,6.05-.36,15.94.64,2.88.29,4.5.7,5.9,1.91,2.6,2.25.72,5.32,2.87,7.65,2.31,2.51,5.17.09,10.84,2.39,3.92,1.59,3.49,3.13,8.13,4.94,3.74,1.46,4.61.69,6.85,2.23,1.86,1.29,1.65,2.09,5.1,6.86,3.25,4.5,3.63,4,4.62,6.21,1.59,3.46.92,5.2,2.71,6.54a5.89,5.89,0,0,0,5.26.64c1.77-.64,1.82-1.76,4.47-3.51,1.61-1.06,2.51-1.66,3.66-1.75,2.6-.22,3.94,2.32,7.65,5.26,4.77,3.76,6,2.26,8.45,4.94,3.73,4,1,7.21,4.31,12.91.58,1,1.64,2.56,10.52,9.09,3.85,2.83,5.78,4.25,10.2,7.17,12.75,8.43,12.11,11,20.08,15.3,4.83,2.6,4.77,1.7,12.43,5.58,6.57,3.32,7.84,4.61,12.28,6.06,3.26,1.07,7.5,2.46,12.75,1.91,5.81-.6,6.23-2.89,13.55-4,2.38-.36,9.25-1.39,10.84,1.43,1,1.81-.7,4.21.8,5.74,1,1,2.24.32,3.18,1.27,1.71,1.71-1.14,5.16,0,7.5s5.58,1.77,14.67,2.07c7.92.26,12.21.4,17.37,1.91,2.53.74,5.62,2.25,11.8,5.26a144.47,144.47,0,0,1,12.91,6.86c5.35,3.23,2,1.72,12.27,8.92,2.53,1.76,4.16,2.85,4.31,4.62.18,2.3-2.28,4-5.42,6.7-2.94,2.51-7.5,6.42-10.2,10.36-5,7.32-4.82,16.52-4.79,18,0,1,.18,5.78-.15,11.48a26.65,26.65,0,0,1-.48,4c-.91,4.44-2.28,4.78-2.55,7.18-.33,2.88,1.74,5.69,5.89,11.31a33.79,33.79,0,0,0,3.83,4.31c2.11,2,3.32,3.13,5.1,3.35,2.31.27,3.06-1.29,4.15-.8,2.5,1.13-1.48,9.39,2.39,16.74a13,13,0,0,0,4,4.78c3.64,2.58,6.1,1.1,9.41,3.66a15,15,0,0,1,4.3,6.38c1.74,4.08.77,5.47,2.39,7s4,1.43,8.93,1.28c6.41-.2,7.42-1.24,9.08-.16,3.06,2,2.83,7.68,2.71,10.68-.18,4.51-1.67,4.53-1.27,6.85.83,4.9,7.34,7.2,19.92,11.64a6.89,6.89,0,0,0,3.51.48c1.46-.24,3.47-1.15,7.81-7.49,3.31-4.85,2.91-5.44,4.3-6.22,3.7-2.09,10.26,0,13.23,4.14.68,1,.8,1.49,2.55,11,1.24,6.68,1.55,8.43,3.19,10.2,1.47,1.59,2.32,1.37,6.22,3.51,4.23,2.33,6.85,3.77,8.77,6.22,3.64,4.66,3.24,11.1,3,14.5-.37,6-2.23,8.26-.79,9.73,2.22,2.27,7.44-2.48,13.07,0a11,11,0,0,1,5.58,6.37c1.56,4.74-.92,9.26-2.23,11.64-1.49,2.71-2.15,2.5-4.15,5.74-2.56,4.15-4.28,6.94-3.82,9.56.74,4.26,6.6,4.3,17.69,12.43,5.42,4,7.54,6.56,7.17,8.93s-2.66,2.57-3,4.94,1.54,3.81,6.22,9.09c6.42,7.24,8,10.23,8.61,11.47a37.1,37.1,0,0,1,2.39,6.38c2.49,8.57.34,10.57,2.39,13.07,3.68,4.5,11.23-1.26,19.13,4.15a48.18,48.18,0,0,1,7,6.53,55.89,55.89,0,0,1,4,4.94c5.16,7.18,17.67,18.91,21,22.16,8.19,7.9,4.8,6.65,23.91,29.65,16.36,19.69,24.09,26.92,27.25,29.8,7.7,7,7.54,5.83,13.87,12,3.47,3.36,9.83,9.84,19.13,15.3,2.72,1.6,5,2.72,7.17,1.91,3.41-1.29,2.7-6.12,7-9.4.18-.14,4.4-3.26,8.44-2.07,5.78,1.7,8.89,11.49,6.54,18.33-1.58,4.6-4.48,4.5-4.94,8-.49,3.67,2.52,5.37,14.34,18.33,13,14.23,6,8.47,11.16,14.19a11.21,11.21,0,0,1,2.55,4.3c.94,3,.09,5.36-.16,7.17-.93,6.86,5.67,14.27,10.68,17.54,3.06,2,2.61.54,12.12,4.78,3,1.35,4,1.93,5.58,1.59,2.69-.58,3.33-3.2,8.13-6.85,2.06-1.58,3.1-2.36,3.82-2.07,2.42,1,1.53,11.06-1.27,19-2.9,8.18-3.35,9.24-3.35,9.24-1.5,3.53-2.45,5.18-1.91,7.17.7,2.6,3.2,3.11,5.1,4.79,6.75,6-3.13,19,1.75,35.38,1.09,3.67,2.6,6.41,2.55,11.32,0,3.75-.94,5.76-.48,10.36a25.64,25.64,0,0,0,1.6,7c.77,2,3.64,9.34,10.2,12,4.39,1.76,8.25.53,12,4.26a8,8,0,0,1,1,1.16c3.37,4.7-1.11,9.77,1.43,16.1,0,.11,0,0,2.24,4s3.37,6,3.5,6.38c2.11,5.24-1.16,7.41.64,11.48,1.2,2.72,3.83,4,9.09,6.53,6.14,3,9.33,4.51,12.11,3.19,4.22-2,3.67-8.81,7.81-9.56a32.24,32.24,0,0,0,4.46-.48,16.81,16.81,0,0,0,3.35-1.12c2.9-1.52,3.8-5.37,4.78-9.56.92-3.91,1.27-8,3.7-10.09a3.7,3.7,0,0,1,.61-.43c2.16-1.28,5.13-.56,6.85.63a8.32,8.32,0,0,1,3,5.11c2.49,10.66-1.11,18.56,1.91,26.93,3.19,8.84,12.33,14.28,13.55,15,5.64,3.27,9.37,2.94,11.64,6.85,2.85,4.91-1,8.8,1.75,12.75,3.16,4.47,11.54,4.31,16.26,3.35,7.43-1.51,8-5.44,13.23-4.94,3.14.3,6.34,2.7,12.75,7.49a38.53,38.53,0,0,1,5.42,4.78,34.39,34.39,0,0,1,4,5.1c4.24,7.25-3.32,14.41.16,21.68,1.27,2.66,4.14,4.27,9.88,7.49,5.26,3,7.62,3,16.42,6.86,5.23,2.27,7.84,3.41,9.08,4.3,9.46,6.83,7.4,16.63,14.35,19.29,3.19,1.22,6.64,0,13.55-2.55,9.26-3.37,12.49-7.64,17.69-6.22a11.39,11.39,0,0,1,5.58,4c5.44,6.25,3.92,15,3.35,17.53-.83,3.66-1.63,3.12-7.34,13.23-4.4,7.82-5.37,10.69-9.72,17.22-3.05,4.57-4.61,6.88-6.37,7.81-6.31,3.32-10.72-2.63-18.49-.32-6,1.79-4.21,5.63-13.55,10.52-.83.43-5.66,2.92-12.12,6.06-3.93,1.9-5.14,2.44-5.58,3.82-1.16,3.69,5.45,6.23,5.74,12.44.21,4.58-3.2,7.24-1.75,9.08s4.4-.49,7.33,1.44c1,.65,1.31,1.34,4,8.44,2.2,5.85,2.29,6.19,2.39,6.86.73,5.14-1.61,6.46-.48,9.24s3.77,2.24,10.84,6.38c3.88,2.28,6.47,3.83,8.6,6.85.91,1.28.88,1.62,3.35,8,3.34,8.59,3.29,7.7,4.31,10.84,2.14,6.63,1.47,7.73,3.34,10.36a16,16,0,0,0,8.29,5.74c7.61,2.09,10.94-3.91,18-2.23,6.42,1.53,10,8,10.84,9.4,4.42,7.87.24,12.58,4.47,17.22s12.54,5,18.17,3c4.17-1.44,7.08-4.28,7.65-3.67.84.91-6.24,6.4-4.94,12,.32,1.36.86,1.54,3.35,4.78,3.05,4,5.51,7.19,6.53,10.36,1.44,4.47-1.19,5.12-1.59,13.07-.47,9.19,2.82,12.8-.16,17.22a16.19,16.19,0,0,1-4.31,4.14c-3.49,2.31-5.88,1.92-6.21,3.19-.6,2.25,6.8,3.63,8.92,9.56,1.25,3.5.25,7.41-.47,10.2-.35,1.33-1,3.28-2.4,7.18-1.5,4.3-1.85,5-1.59,6.21.63,2.95,3.44,3.19,3.83,5.9.35,2.54-1.77,4.76-2.4,5.42-3.27,3.43-8.28,3.37-10.36,3.35-6.17-.07-6.62-2.77-11-2.07-2.78.44-2.61,1.52-9.89,5.26-4.86,2.49-5.42,2.26-6.37,3.5-3.54,4.6.27,12.79.63,13.55,2.19,4.58,5.51,7,10.68,10.84,4.17,3.08,9.82,6.47,12.6,8.13,5.21,3.13,7.21,4.08,7.65,6.22.59,2.87-2.1,5.57-5.26,8.76-16.41,16.56-17.1,17.63-17.22,19.29-.55,8,13.78,11.16,12.91,19.93-.31,3.18-2.26,3.41-6.85,13.07-2.73,5.74-1.91,5.39-3.51,8.29-6,10.87-14.53,10.42-16.89,19.12-1.07,3.94-2.08,8.61-2.08,8.61-.8,3.75-1,5.46-2.55,6.54-.39.28-1.7,1.1-5.89.48a27.87,27.87,0,0,1-9.09-3c-3.5-1.91-6.68-4.59-12.91-9.89-3.36-2.85-4.07-3.56-5.74-4-4.16-1-9.6.93-10.84,4.3-.93,2.53,1.28,3.71.48,6.86-.89,3.48-3.92,3.33-5.58,7-1.95,4.33,1.09,7.12-.8,9.25-2.35,2.65-7.35-1.39-13.39,1.43a14.7,14.7,0,0,0-5.89,5.42c-3,4.62-1.12,7-3.83,10.2-2.12,2.51-3.25,1-9.56,4.94-3.25,2-4.14,3.14-7.34,4.47-3,1.26-4.56,1.89-6.21,1.43-3.22-.89-2.94-4.65-7.33-9.24-1.23-1.28-5.23-5.46-7.82-4.47s-.67,6.17-4.14,11.8c-2.16,3.51-3.24,2-9.4,8-4.49,4.33-7.76,7.49-8.93,12.43-.45,1.9-.27,2.7-1.12,3.51-2.72,2.59-10.18-.28-14-1.76-3.54-1.35-3.85-1.93-5.26-1.75-3.31.43-3.77,3.86-8.61,7.81-1.9,1.55-5.89,4.8-9.41,3.83-2.82-.78-4.2-4-4.78-5.26-3.73-8.34-12.42-27.79-22.79-34.27-11.49-7.18-22,3.48-30-4.63-5.64-5.7-2.82-13.34-10.84-19.28-4-2.95-6.75-2.62-8.77-6.22s-.48-6.09-2.87-12.11c-1.19-3-2.08-5.25-4.14-6.06-.7-.28-2.85-.9-10.52,4.3-4.92,3.34-8.32,5.65-11.8,10s-5.24,8.59-7.17,13.08c-2.34,5.45-3.08,8.85-6.69,12.75-1.88,2-2.92,3.14-4.79,3.82-2.13.78-3.79.44-14.5-1.59a18.13,18.13,0,0,0-5.3-.58,11.92,11.92,0,0,1-2.87.07,12.56,12.56,0,0,1-2.19-.45c-3.74-1.14-12.5-10.4-15-9.24-1.11.52-.87,3.11-.79,4.62.77,14.21-7.3,26.4-12.44,31.4a13.41,13.41,0,0,1-7,4c-.91.16-2.46.32-6.53-.64-5.84-1.38-7.44-2.85-13.71-4.62-3.57-1-5.4-1.51-7.34-1.12-3.07.63-3.91,2.4-7.33,4.3-5,2.81-7,1-9.88,2.87-7.34,4.64-5.09,22.58-.48,31.56a29.48,29.48,0,0,0,4.94,6.86,22.5,22.5,0,0,0,7.34,5.1c1.43.6,3.9,1.41,4.94,1.75,3.6,1.19,4,1.14,4.46,1.76,1.62,2.14-1.11,5.39.64,7.49.82,1,1.63.5,2.71,1.59,1.42,1.45,1.15,3.46,1.27,5.9.1,1.89.3,6,2.07,8.77s3.78,2.15,9.09,5.74c4.48,3,6.73,4.53,6.85,6.53.28,4.2-8.51,5.14-16.57,15.3-2.1,2.64-3.25,4.1-4.15,6.54-3.34,9.08,2.74,15.78-1.11,20.4-2.12,2.54-5.83,2.76-7.81,2.87-5,.29-8-2.14-11.48-3.67-11-4.88-16.27,4-31.56.32-3-.73-8.59-2.14-13.39-6.69-4.22-4-2.84-5.67-6.86-9.72-6.62-6.68-13-4.82-16.41-11.16-.68-1.27-1-3.08-1.76-6.7-1.54-7.76-.4-10.11-2.39-12.75-1.3-1.73-4-2.45-9.24-3.82-7.09-1.85-10.78-2.81-15.94-2.71-8.91.16-11.14,3.25-15.15,1.11-3.34-1.79-2.33-4.24-7-8.77a24.69,24.69,0,0,0-10.52-6.21,23.88,23.88,0,0,0-14,.48c-5.32,1.85-5.84,4.24-12.75,8.28a43.27,43.27,0,0,1-12.27,5.26c-2.88.67-16.4,3.36-25-4-5.4-4.6-4.33-9.24-10.52-12.11-3.19-1.48-5.33-1.12-8.93-3.67a24,24,0,0,1-5.73-5.9c-.49-.73-.91-1.49-1-1.59a25.71,25.71,0,0,1-2.06-4.78c-1.16-3.55-4.79-9.28-8.93-13.55-3.44-3.56-4-2.77-5.26-4.95-3.23-5.62-.4-12.64.16-14a21.43,21.43,0,0,1,8.77-10.2c5.88-3.46,8.24-.77,16.26-4.31,4.51-2,4.14-3,10.2-5.9a50.34,50.34,0,0,1,11.32-4.14c9.4-2.07,13.57.56,17.69-2.87,1.87-1.56,2.11-3,3.66-6.53,3.79-8.54,6-8.05,14.67-21.52,6.28-9.79,7.59-13.91,8.13-15.78A31.46,31.46,0,0,0,1552,2377c-.32-4.6-2-10.72-2.87-14h0a112.35,112.35,0,0,1-2.87-15c-1.73-15-2.59-22.54,1.12-29.17.24-.43,3-3.74,8.61-10.36,5.25-6.24,7.48-8.73,8.13-12.91a20.69,20.69,0,0,0-.64-8.13c-1.51-6.31-4.68-9.23-3.51-10.68C1560.61,2276,1561.86,2276.47,1563.76,2276.68Z"/></g></g></svg>