<svg xmlns="http://www.w3.org/2000/svg" viewBox="0 0 2777.58 1683.87"><g id="Layer_2" data-name="Layer 2"><g id="Latvia"><path d="M1622.84,11.26A17.49,17.49,0,0,0,1621,5c-.27-.53-2.8-5.34-5.12-5-1.81.3-1.3,3.39-3.52,5.44-3,2.76-7.46.39-19-.32-9.33-.57-11.13.68-12,1.76-2,2.48-.18,5.6-2.56,7.51-1.56,1.26-2.77.26-7,1.6a15.79,15.79,0,0,0-4.79,2.24,13.22,13.22,0,0,0-4.32,6.4c-.29.78-4.47,11.82-11.19,19-3,3.2-6,5.18-10.88,8.32-3.38,2.18-5.11,3.28-7.2,3.67-4.69.89-6.75-1.43-11.19-.48-2.72.59-4,1.9-6.88,4-5.38,4-5.19,2.54-15.19,8.48-10.24,6.08-15.36,9.12-17.11,10.55-2.38,2-4.69,4.1-7.2,3.52-2.34-.54-3.89-3.23-5.43-5.92-2.35-4.08-1.81-5.52-3.52-6.55-2.12-1.29-5-.29-9,1.12-4.67,1.64-4.54,2.74-7.83,3.35-4,.75-6.11-.47-7.2,1-.72,1,.1,1.65,0,5.44-.1,4.11-1.11,5.51-1.44,5.92a6.43,6.43,0,0,1-2.24,1.76c-3.18,1.63-4.94-.18-7.83.8-2.54.85-4,3.22-6.24,6.71-2,3.21-2.21,4.86-3.36,5-1.52.13-2-2.69-5.11-5.76-1.15-1.12-5.06-5-9.28-4.15a8.1,8.1,0,0,0-5.12,3.67c-1.72,2.82-.58,5.25-2.4,6.56-1.35,1-3.22.51-4,.32-2.81-.7-3.8-2.7-6.72-5.76-3.49-3.65-6-6.26-8.8-6.07-1.4.09-3.08,1.71-6.39,5-5.07,5-5.86,6.75-8.16,6.88s-3.36-1.57-5.44-.8c-1.28.47-2,1.53-3,3.2-2,3.12-1.7,4.47-2.88,6.24-.35.51-1.41,2-7.36,4-7.92,2.72-9.66,1.19-12.79,3.84-1.13,1-4,3.43-4.8,7.36-.27,1.42-.07,3,.32,6.23a38.16,38.16,0,0,0,1.28,7c1.44,4.79,3.09,5.66,2.56,8.16a7.78,7.78,0,0,1-2.56,4c-.49.45-1.22,1-4.32,2.24-4.37,1.75-4.47,1.27-6.07,2.24-2.94,1.78-3,3.67-4.8,3.84-2.13.21-3.83-2.38-5-3.68-2.27-2.6-6.81-5.19-16.84-4.9a81.07,81.07,0,0,0-3.15,11.14c-1,4.69-.45,4.25-1.76,14.39-1.76,13.65-3.07,17.2-1.44,23.51,1,3.68,1.71,3.64,3,7.51,2.69,7.82,1.6,13.64.48,24.47-.07.66-.42,14.67-1.12,42.7a21.9,21.9,0,0,0,.8,7c1.81,6.2,5.19,6.74,7,11.51,2.47,6.39-2.34,8.66-.8,17.75.87,5.13,2.42,4.51,4.8,12.15,1.23,4,3.15,10.16,2.39,17.44-.61,5.88-2.22,5.19-4.47,14.39-2,8-3,12.24-2.24,17.91s2.75,8.47,1,12.31c-1.31,2.8-3.41,3.58-3.52,6.08-.13,2.95,2.66,5,4.16,6.56,5.4,5.51,3.57,13.67,3.67,30.86,0,1.68.09,11.51,1.12,21.75,1.68,16.64,4.5,20.6,6.08,34.22,1.48,12.79-.7,11.86-.16,29.91.62,20.54,4.07,42.51,5,48.13,1.63,10.36,3.08,17.24.8,26.71-.5,2.07-1.74,6.57-7.84,17.11a192.63,192.63,0,0,1-27.66,36.78c-6.57,6.79-6.41,5.72-19.19,17.59-22.68,21-24.91,26-41.9,40.14-11.78,9.79-17.84,14.75-25.91,17.91-13.16,5.15-23.71,4.27-24.63,8.79-.59,2.94,4.19,6.92,13.76,14.88,8.07,6.72,9.8,6.94,12.15,10.71,3,4.79,3.23,9.28,3.68,17.75.35,6.62.75,14-2.24,22.55-3.08,8.79-6.68,10-5.76,14.23,1.15,5.2,7,4.64,17.11,12.48,4.21,3.26,12.69,9.84,17.12,19,1.35,2.82,3,7.27,6.39,10.07,1.72,1.42,3.11,3.2,4.8,4.64.93.79,1.95,1.6,1.76,2.24s-1.64.77-2.08.8c-4.56.32-15.3-16.63-25.27-27.19-13.09-13.87-20.86-12.48-22.71-21.27s5.6-10.6,7.84-25.9c.41-2.83,3.16-23.21-7.52-31.67-3.62-2.87-5.25-1.55-10.87-5.75-7.34-5.49-9.79-11.63-12.47-10.88-1.58.44-1.41,2.76-2.72,6.08-2.13,5.39-8.86,10.81-22.23,21.43a11.92,11.92,0,0,0-4.48,6.07c-.58,2.14,0,3,0,5.76,0,1.17-.13,7.34-3.84,11.51a14.85,14.85,0,0,1-8.15,4.32c-8,1.91-11.25-2.52-16,0-3.81,2-2.24,5.17-7.36,8.64-.88.6-5.23,3.55-10.23,2.72-2.38-.4-2.37-1.22-5-1.76a14.39,14.39,0,0,0-10.08,1.6c-4.3,2.7-3.18,6.85-6.07,11.35-1.29,2-4.07,5.15-31.35,9.76-13.34,2.25-17.45,2.3-19.19-.16s-.85-6.51.64-7c1.75-.62,3,4.23,7.68,6.08,1.12.44,3.71,1.21,15.67-2.72,6.57-2.16,5.68-2.36,10.08-3.68,10.6-3.19,14.74-1.73,16.79-5.12,1.65-2.73,0-5.38,2.72-8.63a11.06,11.06,0,0,1,3.51-2.7,13.88,13.88,0,0,1,6.72-1.46c6.25,0,7.54,2.6,11.19,2.56,7-.09,7.32-9.66,16.16-12.64,7.48-2.52,12,2.75,17.11-1.12,2.69-2,5-6.2,3.67-9.43a6,6,0,0,0-4.79-3.52c-3.87-.4-7.18,3.68-8.32,5-4.11,4.6-14.84,7.17-36.3,12.31-3.71.89-18.33,4.34-38.22,7.2-15.14,2.18-21.51,2.31-28.78,1a61.14,61.14,0,0,1-17.92-6.24c-3.87-2.11-13.94-7.76-20.78-19-6.16-10.12-4.31-15.89-10.72-20.15-4.19-2.79-7.8-2.2-14.55-2.56,0,0-18.28-1-35.66-9.11-2.76-1.29-10.69-7.1-26.55-18.71-5.2-3.81-9.14-6.78-13.11-12a50.39,50.39,0,0,1-8-15.67c-3.2-10.42-.55-13.87-2.24-31.5-.77-8.06-1.15-12.09-2.72-17.43a119.43,119.43,0,0,0-11.83-26.55c-1.84-2.93-4.09-6.16-5-11.19-.43-2.48-.34-5-.16-10.08.27-7.55,1-9.07-.16-12.15-1.28-3.54-2.67-2.86-4.15-6.4-2.17-5.16.33-7.71-1.12-14.39-.52-2.38-1.41-4.2-3.2-7.84a76.6,76.6,0,0,0-8.48-13.43q-.39-12.63-.8-25.27a95.34,95.34,0,0,0-21.43-5.27c-3.82-.46-8.64-.78-13.27-4.16-1.94-1.42-2.54-2.42-5.44-5.6,0,0-4.09-4.49-10.55-10.23-7.25-6.46-11.9-6.47-18.71-10.72-2.8-1.75-6.67-4.62-21.91-29.26-7.75-12.54-8.39-16.6-15-24.63-7.4-8.94-12.87-11.49-29.27-22.87-18-12.5-27-18.75-36.62-27.82s-21.34-20.41-29.26-38.86c-3.35-7.79-4.9-14.74-8-28.63-4.69-21-4-29.45-3.68-32.78.49-4.5,1.71-9.24,4.16-18.71,2.56-9.89,5-18,6.88-23.67-3.69.7-8.7,1.77-14.55,3.36,0,0-10.3,2.79-20.31,6.72-17.77,7-30.88,16-54.7,29.42-2.65,1.49-10.51,5.69-26.22,14.07-54.08,28.86-47,24.09-68.93,36.14-3.74,2.06-12.89,7.13-25.58,13-9.06,4.16-13.59,6.24-18.23,7.67-10,3.1-19.26,3.61-37.74,4.64-11.52.64-14,.34-20.95,1.6-3.94.72-4.94,1.15-19.51,5.44-17.72,5.21-20.11,5.72-25.43,8.15-7.57,3.47-11.35,5.2-14.39,8.32-6.2,6.35-5.51,12.17-10.88,32.46-2.57,9.72-3.85,14.57-6.07,20C254,440.39,250,439.19,243.35,454.67c-4.76,11.13-4.31,15.66-10.4,22.22-3.65,3.94-5.6,4.24-10.55,9.44-1.65,1.73-4.14,4.53-11.2,15.83-4.37,7-9.35,15-15.35,26.87-4.8,9.48-3.56,8.18-6.24,13-9.13,16.27-14.84,15.75-18.55,26.07-1.24,3.44-1.2,11.14-1.12,26.54.08,14.34.6,13.46.48,21.59-.26,17.85-2.78,22-3,37.74,0,2.83.5,10.15,1.59,24.79,2.24,29.88,3.23,36.55,1.44,48.13a104.06,104.06,0,0,1-4.79,19,121.58,121.58,0,0,1-28,43.82c-3.87,3.78-8,7.2-13.43,14.07-5.32,6.69-7.79,11.47-10.08,15-2.42,3.78-5.28,7.25-27.66,24.14-13.84,10.45-26.81,22-40.78,32.31a31.55,31.55,0,0,0-8.32,8.63c-4.25,6.68-4.73,13.45-4.95,17.27a379.72,379.72,0,0,0,.63,46.22c1.19,17.51,1.43,20.73,1.12,26.87-.1,2.17-.44,8-3.19,24.14-2.55,14.89-4.67,27.31-9.12,43.34-2.84,10.25-5,18-8.79,28.47-2.82,7.75-4.18,12.9-6.88,23.18-1.32,5-2.33,9.28-1.28,14.56.87,4.37,2.71,5.6,4,10.39a57.32,57.32,0,0,1,1.76,16.31c-.19,21.48-.28,32.26-.64,34.38-1.23,7.29-2,7-6.08,25.91-1.29,6-1.94,9-2.4,12.15-1.21,8.26-2.44,16.66-.64,26.39,1.52,8.15,3.44,7.92,5.12,16.63,1.38,7.15,1.09,12.51.64,20-2.2,36.15-2.94,39.74-1.28,48.14.68,3.46,2.43,8.6,5.92,18.87,5.7,16.79,7.35,18.19,11.51,31.18s6.19,19.32,7.52,27.35c1.85,11.18,1.88,20.36,6.55,21.91.79.25,1.17.12,5.76-1.12,13.36-3.64,12.25-3.12,16.47-4.48,6.15-2,9.23-3,9.76-3.2,2.86-1.24,3.78-1.94,5.27-1.6,3,.68,2.85,4.27,6.56,5.92a7.67,7.67,0,0,0,5.76.16c2.25-1,3.18-3.28,4.15-5.76,2.6-6.61,4.37-11.83,4.64-12.63,3.4-10,5.1-15,5.28-15.36.71-1.39,2-3.67,1.12-5.75s-2.67-1.7-3.52-3.52c-1.2-2.58,1.9-4.52,2.56-9.92.52-4.24-1.14-5.13,0-7.19,1.52-2.73,4.92-2,10.39-4.32a29.45,29.45,0,0,0,9.6-6.72c3-3.28,2.73-4.8,7.68-13.59a67.23,67.23,0,0,1,4.63-7.67c4.72-6,10.64-8.86,16.63-11.68a127.47,127.47,0,0,1,13-5c7-2.45,10.58-3.3,15.51-6.39,2.83-1.78,4.61-2.89,6.4-5.12,3.07-3.82,2.26-6,5.43-11.35,2.4-4,3.08-3.11,5.92-7.52,4.15-6.42,3.19-9.08,6.08-10.55s4.62,1,10.71.48c2.53-.23,7.4-.67,10.08-4s.43-6.32,3.51-10.4c1.47-1.93,3.16-2.84,5.92-4.32a24.94,24.94,0,0,1,10.56-3.35c2.3-.13,6.06,1,13.59,3.35,4.16,1.29,9.11,3,9.75,3.2,4.18,1.43,3.75,1.37,4.64,1.6a30.23,30.23,0,0,0,12.79.48c3.94-.69,5.91-1,7.36-2.56,2.49-2.62,1-5.4,3.52-8.79.71-1,1.23-1.26,6.4-4.16,8.93-5,9.4-5.21,10.55-6.24,3.15-2.8,1.79-3.24,6.08-7.83,1.32-1.42,3.81-3.4,8.79-7.36,2.26-1.8,3.38-2.62,5.12-2.88,1.22-.18,2.72-.07,5.76,1.28,5.46,2.43,5.21,4.1,8.15,5,2.76.8,6.32-.64,13.44-3.52,4.91-2,6.11-3.09,6.55-3.52,2.48-2.4,2.39-4.31,4.64-5.27,1.64-.71,2.25.07,6.56.32,3.63.2,6.11.35,8.15-1,1-.63,2-1.68,3.36-5.44,2.85-7.79.87-9.64,3.2-13.75.5-.89,3.27-3.15,8.79-7.68,3.45-2.82,4.73-3.71,6.08-3.36,2.51.65,1.92,4.65,4.64,5.92,2.21,1,4-1,11-3.84,5.34-2.18,5.23-1.41,10.56-3.68s5.76-3.21,8.31-3.36c4.76-.28,8.82,2.51,9.6,3,3.28,2.26,3.19,3.89,5.92,4.8,2.24.75,4.23.29,7.35-.48,6.53-1.6,7-3.75,9.44-3.2,1.53.35,2,1.33,8.31,10.88,2.17,3.26,3.29,4.92,5.28,5.91a11.93,11.93,0,0,0,7.2.8c4.12-.53,4.92-2.08,11.19-4.47,4.51-1.73,6.77-2.6,8.8-2.08,2.89.73,3,2.71,8.47,6.87,3.28,2.49,5,3.74,7,3.52,2.81-.29,2.43-2.75,6.23-4.32,2.95-1.21,4.37-.23,10.4-1.76a21.24,21.24,0,0,0,2.24-.64c4-1.38,5.17-3.11,7-3.83,2.58-1,4.35.75,11,3.67,5.47,2.4,4.53,1.33,13.91,5,9,3.5,8,3.75,11.67,4.8,4.51,1.28,5.73.81,17.76,1.6,14.31.94,16.42,1.88,17.91,2.72,2.31,1.31,5,4.17,10.23,9.91s6.14,7.5,9.76,9.44c1.84,1,5.74,3,10.39,2.08a14.18,14.18,0,0,0,5.92-2.88c5.09-4.14,4.43-9.25,8.15-10.56,2.09-.73,4.12.24,5.44.8,12.56,5.39,30.64,4.36,34.22,4.16,1.09-.06,7.13-1.32,19.19-3.84,5.67-1.18,9.08-1.94,11.68-5a20.51,20.51,0,0,0,3.67-7.68c1.22-4.16.37-5,1.76-8.48a20.61,20.61,0,0,1,4.48-6.71c1.95-1.95,3.37-3.38,5.44-3.68,2.65-.39,4.16,1.37,8.31,3.84,7.39,4.38,8.72,2.44,11.52,5.43,2.29,2.46,2.86,6.28,4,13.92.93,6.3.36,8.72,0,9.91-1.06,3.48-2.4,3.5-2.56,5.92-.27,4,3.23,5,5.11,11,1.21,3.85,0,4,1.12,7,1.8,4.72,6.77,9.54,11.68,9.27,3.8-.2,5.32-3.49,7.51-2.39,1.52.75,1.6,2.47,3.84,7.83,2.53,6,3.45,6.34,3.84,6.4,1.81.28,2.86-2.77,6.56-6.72,3-3.21,5.73-5.09,10.55-7.83,3.8-2.17,6.7-3.2,11.2-6.56,5.39-4,5.7-5.9,5.75-6.56.22-2.59-2-3.34-3.52-8.15-.74-2.3-1.79-5.53-.48-7.52s4.69-1.71,10.88-1.6c9.58.18,17.59.27,25.59-2.4a65.2,65.2,0,0,0,7.35-3c6.81-3.32,7.62-5.2,11.2-6.07,3.1-.75,3.73.36,12.95,2.56,9.9,2.35,11.12,1.53,17.75,3.83,4.74,1.65,7.43,2.59,10.39,5,6,4.81,4.41,8.54,9.44,12.8,4.82,4.07,7,.26,17.75,5.59,5.7,2.82,9.27,5.75,15.19,5.6,2.26-.06,4.33-.73,8.48-2.08,4.7-1.53,9-2.92,13.59-5.76,8.62-5.32,8.51-9.66,15.35-11.35,2.16-.53,3.31-.38,7.52-1.44s5.91-1.94,8.47-2.72c5.27-1.59,7.48-.67,16-1a110.91,110.91,0,0,0,14.39-1.44c1.43-.26,3.05-.61,4.85-1.1a6.23,6.23,0,0,1,4.1,2.38c1.47,2.17.66,5-.48,8.8-1.63,5.44-2.91,5.17-3.51,8.79a18.53,18.53,0,0,0,1.6,10.4c.49,1.21,2,4.82,3.19,4.64,1.39-.22.39-5,3.68-8.48a12.15,12.15,0,0,1,4.8-2.88,17.69,17.69,0,0,1,6.56-1.12c11.66,0,24.61-4,31,.32l3,2.08c.35.24,5.14,3.5,5.92,4,3.84,2.45,9.2.73,16.15-.16,7.39-1,19-2.45,21.75,2.08,2.52,4.12-3.74,10.77-.64,14.23,1.66,1.85,3.86.39,7,2.88,1.94,1.52,4.16,4.46,3.84,7.51-.29,2.77-2.44,3.47-2.08,5.28.55,2.74,6,3.8,7,4,6.84,1.33,9.64-1.94,13.43.16,2.1,1.17,3,3.14,4.48,6.4,2.88,6.34,1.15,9.34,3.68,11.35,1.74,1.39,2.82.16,10.07.32s8.82,1.4,11.67-.16c1.82-1,1.25-1.55,4.8-5.12a48.5,48.5,0,0,1,8.16-6.55,52.46,52.46,0,0,1,6.55-3.52c2.32-1,2.74-1,5.6-2.24,5.57-2.33,4.89-2.73,7.52-3.52,5-1.51,7.48,0,9.43-2.24a6.51,6.51,0,0,0,1.44-3.84c.24-3.28-2-4.93-1.28-6.07s2.82-.31,7,.16c6.78.75,7.14-.43,9.91.64,4.61,1.77,7,6.26,7.52,7.35,2.32,4.72,1.18,9.12,4,10.56.33.17.81.34,5-.16,6.39-.78,6.78-1.37,8.47-1.12,3.59.53,3.74,3.51,8.16,6.71,3.78,2.75,9.45,4.76,14.23,3.68s4.26-4.43,10.23-8.63c9.65-6.8,21.14-5,26.87-9.28a18.33,18.33,0,0,1,5-2.72c2.53-.9,3-.42,3.84-1,4-2.57-4.28-15.35,1-23.66,1.06-1.7,2.68-3.1,5.91-5.92,3.6-3.13,5.1-3.69,7.36-6.24a25.09,25.09,0,0,0,4.32-7c2.92-7.28.54-11.93,3.67-14.24.59-.43,2.21-.55,5.44-.8,7.37-.55,9.66.18,13.27-1.43a13.6,13.6,0,0,0,3.52-2.24,12.59,12.59,0,0,0,3.84-5.92c1.08-4.07-1.32-5.76-.16-7.84,1.5-2.68,6.92-2.35,11.35-2.08,8.59.53,10.42,3,15.84,1.76a15.4,15.4,0,0,0,8-4.15c3.49-3.64,4.29-8.85,5.44-8.64.66.12.23,1.79,1.44,3,1.51,1.55,3.64.45,8,.8,4.79.38,6.07,2,7.68,1s1.72-3.79,1.76-6.4c.09-6.12-2.38-8.25-1-11,.73-1.42,2.3-2.12,5.44-3.52s6.35-2.83,10.39-2.4c3,.32,8.31,1.85,9,5,.39,1.91-1.34,2.57-3.36,7-1,2.24-2.74,6.06-2.08,9.92.48,2.78,1.74,2.93,4.64,7.51,4.05,6.41,2.61,7.77,6.39,13.12a51.92,51.92,0,0,0,6.72,7.51c3.12,2.83,4.41,3.21,5.6,5.44.89,1.67,1.24,3.46,1.12,8.64s-.54,7-.8,10.71c-.57,7.92-.88,12.22,1.44,16.47,1.35,2.5,3.09,4,6.55,6.88,6.07,5.11,9,4.94,10.4,8.47,1.46,3.68-1,5.71,1,8.64,1.21,1.84,2.53,1.6,7.35,4,5.06,2.51,8.15,4,9.12,6.87s-1,4.09-1.6,8.16c-.8,5,1.55,6.21,3.84,14.87,2.41,9.12,1,12.4,4,19.51a39.43,39.43,0,0,0,4,7.2c1.77,2.52,2.65,3.78,3.84,4.48,3.81,2.22,6.74-1,11.52.48,4.22,1.34,3.18,4.29,7.35,5.75,4.58,1.61,6.45-1.73,14.07-.8,3.25.4,3.86,1.12,5.92.64,3.12-.72,5.36-3.2,7.52-5.59,2.95-3.27,3.55-5.18,5.12-5.12,1,0,1.86.87,3.35,3.2,2.85,4.44,3.2,6.79,4.48,9.11,2.69,4.89,5.79,2.89,11.52,8.64,4.92,4.94,4.72,8.53,8.95,9.75.54.16,3.94,1.08,6.56-.64,2.32-1.53,1.86-3.73,4.15-5.11,1.55-.93,2.28-.26,6.72-.32a79.13,79.13,0,0,0,9.92-1c3.29-.48,4.5-.81,6.23-.16,1.14.42,2.06,1.25,3.84,2.87,3.41,3.12,4.49,5,5.6,4.64.67-.2.5-1,1.44-2.08a7.36,7.36,0,0,1,5.11-2.24c1.6-.06,2.86.44,5.92,2.24,6.59,3.88,6.48,4.92,9,5.44,3.08.65,7-.15,9-2.56,1.26-1.57.55-2.45,2.08-5.44a13.09,13.09,0,0,1,4.32-5.27,12.1,12.1,0,0,1,9.11-1.6,8.84,8.84,0,0,1,4.32,2.08c1.57,1.46,2,3.14,2.72,5.59,1.66,5.73,2.5,8.59,3,9.28.8,1,2,1.85,15,2.88,7.87.62,10.75.58,14.23-.16,2.89-.61,4.83-1,6.88-2.56,4.34-3.2,5-8.09,6.4-7.84,1.17.21,1.71,3.56,1.76,5.6.07,3.4-1.2,4.59-.32,6.4.72,1.48,1.84,1.22,3.83,2.88.32.26,3.7,3.15,4.16,7.19.16,1.4-.53,3.6-1.92,8-1.08,3.43-1.29,3.52-1.44,4.64-.55,4.06,1.55,7.49,2.24,8.63,3.54,5.8,7.91,4.17,19,11.36,5.72,3.69,7.51,6,12.32,6.71,3.3.48,4.37-.35,7.51.64,4,1.26,6.53,4,9.28,6.88a52.13,52.13,0,0,1,5.91,8,44.8,44.8,0,0,1,3.68,6.24c3.5,8.23-1.16,13.66,2.24,17.91,1,1.29,3.64,2,8.8,3.2,9.82,2.38,11.37,1.45,18.07,3.36,5.07,1.44,3.11,1.67,13.75,5.59,5.12,1.9,6.83,2.31,8.32,4.32s1.52,4.08,4.31,7.84c1.63,2.18,2.4,2.53,3,2.56,2.08.08,2.52-3.2,4.8-3.68,3.48-.73,7.7,5.8,9.11,8a47.88,47.88,0,0,1,3.52,7c3.64,8.16,3.52,9,5.28,12.47,2.76,5.51,3.57,4.53,8,11.84,4,6.71,3.47,7.7,6.87,12.31a40.65,40.65,0,0,0,8.32,8.64c1.63,1.23,3.39,2.36,12.47,6.39,10.56,4.7,11.33,4.58,15.19,6.88,5,3,8.68,5.23,10.72,9.6.62,1.33.79,2.21,1.76,9.59,1.52,11.59,1.3,10.9,1.6,12.47.83,4.39,2.84,8.74,6.87,17.44,3.48,7.49,5.21,11.23,7.2,13.91,3.87,5.21,8.08,8.59,12.31,12,2.71,2.18,4.1,3.28,5.92,4,5.56,2.2,8.31-.38,12.31,1.76,2.86,1.52,4.09,4.22,6.24,9,3.12,6.85,1.63,8.79,4.16,11.52,3.42,3.68,9.35,3.59,14.55,3.52,7.23-.11,9.91-2.28,15.67-.48a21.32,21.32,0,0,1,5.6,2.72c3.32,2.25,4.09,4.15,6.56,6.87,1,1.11,6.67,7.38,14.55,8.8,1,.18.39,0,8.31.16,3.19.07,3.95.11,10.24.32,8.18.26,10.78.31,14.23.16,7.91-.35,9.23-1.26,9.92-2.24,1.53-2.21-.61-4.11.64-7.84,1.66-5,7.32-7,7.83-7.19,2.18-.75,4.44-.55,9-.16,1.72.14,1.3.19,9.43,1.59,4.52.78,5.18.86,6.08,1.6,2,1.63,1.22,3.23,3.36,7,1.26,2.24,2.52,4.49,4.95,5.6s3.11-.22,8.16.64c2.85.48,3.46,1,5,.64,2.53-.67,3.94-3.08,4.48-4,1.91-3.28.59-4.67,1.91-7.2.6-1.12,1.45-2,10.88-5.91a90.68,90.68,0,0,1,9.43-3.68c6-1.51,8.25-.49,9.6-2.4s-.55-3.83.32-9.6a25.64,25.64,0,0,1,1.44-5.27,26.55,26.55,0,0,1,5.76-8.64c8.53-9.6,4.46-24.81,10.71-26.55,1.19-.33,1.33.23,3.52-.16a15.89,15.89,0,0,0,8.31-4.63c5.73-5.59,3.68-9.47,8.48-12.8,2.88-2,3.89-.78,8.15-3,5.27-2.79,5.63-5.63,8.8-7.84,9.19-6.39,23.56,5.42,29-.16,2.88-3-.31-7.34,3.35-10.71.87-.8,1.58-1.06,11.84-2.72,6-1,7.13-1.11,8.31-.32,2.84,1.89,1.21,5.67,4.16,8,2.49,2,4.89.25,8.8,1.44,3.56,1.09,5.16,3.63,8.47,7.84a164.79,164.79,0,0,0,16.63,17.59c7.66,7,10.46,7.52,11.52,7.67,6.78,1,12.86-3.57,14.07-4.47,5.7-4.28,5.18-8,10.55-10.4a17,17,0,0,1,9.6-1c6.38,1,7.13,4.58,13.75,8,3.42,1.77,10.55,2.67,24.79,4.48,7.76,1,6.88.69,10.55,1.28,11.63,1.86,12.68,3.57,19.67,3.67,5.7.09,4.88-1,13.6-1.28,4.37-.11,6.51.12,8.47-1.43,1.55-1.23,1.88-2.7,3.2-9.12,2.15-10.47,2.56-12.85,3.68-16.63,1.42-4.82,1.65-4,2.4-7.2a44.69,44.69,0,0,0,.64-15.67c-.49-4.39-.78-7-2.24-10.23-1.61-3.6-3-4.3-3.52-7.36a14.36,14.36,0,0,1,1.44-8.8c2.18-4.27,5-4.47,7.52-7.67,1.9-2.44,3.62-6.66,2.39-14.39,21.36-16.12,29-23.73,31.35-27.51a9.77,9.77,0,0,1,4-4c2.86-1.42,4.56-.13,10.07-.48,3.54-.22,6.39-.4,8.8-2.4a11.38,11.38,0,0,0,3.51-6.07c1.16-4.41-.84-5.75.32-9.92a16.1,16.1,0,0,1,3.68-6.23c3.57-4.16,6.75-4.58,6.72-6.72,0-1.08-1.24-2.18-3.68-4.32-3.46-3-5.09-3.52-5-4.32.27-1.6,6.81.19,12.8-3.51,4.17-2.58,3.26-4.85,6.71-6.08,4.86-1.73,8,2.27,13.44.16a12.3,12.3,0,0,0,4.47-3.2c4-4.11,2.47-7.2,6.24-10.87,2.3-2.24,4.07-2.26,4.8-4.48.65-2-.45-3-.64-5.12-.51-5.76,6.69-7.44,10.07-16.47,1.35-3.6.68-4.61,2.4-6.88a12.26,12.26,0,0,1,9.76-4.79c1,0,2.87.66,6.55,1.91,4.53,1.55,5.2,2.11,6.88,1.92,2.7-.3,4.59-2.19,5.76-3.36,3.14-3.13,2.27-5.07,4.95-7a11.19,11.19,0,0,1,7.2-1.76c4,.26,5.33,2.41,6.72,1.6,2-1.2-.52-6.06,1.6-11.52,1.08-2.81,2.85-4.32,5.11-6.39a190.67,190.67,0,0,0,15.36-15.83,66.38,66.38,0,0,0,10.55-17.75c3.41-8.71,2.56-12.52,7.2-17.12,2.53-2.51,4.66-3.23,7.35-7,.63-.9.93-1.45,4-8.64,3.58-8.39,4.67-11.17,3.68-14.55-.23-.79-.22-.4-1-2.24-2.46-6.12-1.62-8.08-3.52-13-.35-.89-.14-.22-3.2-6.24-1.85-3.64-3-5.81-3.52-7-3.66-8-1.07-12.3-4.63-23.5a16,16,0,0,0-2.88-5.92c-2.19-2.62-4-2.62-6.56-5.6-1.55-1.79-2.82-3.26-3-5.27-.23-2.16.89-3.69,6.08-10.4,4.82-6.24,5.64-7.23,5.6-9.11-.07-2.68-1.84-6.24-2.24-7-.92-1.85-1.69-2.77-1.6-4.32.09-1.77,1.19-2.4,2.08-4,2.36-4.23.23-9.81-1-13a21.6,21.6,0,0,0-3-5.6c-2.79-3.67-4.47-3.29-7.2-6.23-4-4.35-1.85-6.77-6.07-11.68-2.87-3.32-4.54-3-5.76-5.91-.84-2-.32-2.83-.64-8.32-.17-2.95-.49-8.13-1.76-8.32-.9-.13-1.35,2.39-3.36,2.72a5.9,5.9,0,0,1-2.88-.64,8.46,8.46,0,0,1-2.71-1.28c-2.27-1.91-1.41-6.36-1.12-7.83a19.6,19.6,0,0,1,2.08-5.44c2.18-4.46,3.27-6.69,5.27-8.31,3.51-2.85,5.66-1.06,8.16-3.68s2.34-6.38,2.24-9.76-.23-7.51-3-9.75c-1.85-1.48-2.88-.54-8.32-1.6s-5.5-2.28-11-3.2c-2.83-.47-3.49-.27-7.2-1s-5.37-1-6.55-1.76c-2.48-1.58-2.23-3.76-4.48-11a67.44,67.44,0,0,0-7-16.15c-1.37-2.2-1.31-1.76-1.92-2.88-5.82-10.68,4.7-21.41-.48-29.43-1.52-2.36-2.43-1.42-6.55-6.07-3.15-3.57-5.33-6-5.76-9.6-.41-3.39,1-5.44-.32-6.72-1.17-1.12-2.67.09-5-.32-5.06-.9-4.56-8-11.19-12.79-3.9-2.79-6.36-2-7.52-4.64-1.38-3.16,1.62-5.41.16-8.95-1.33-3.23-4.52-3.05-5.12-6.08-.17-.87,0-1.55,1.76-5.76,2.13-5,3.21-7.47,4-8.15,3.55-3.06,7.38,0,9.92-2.4,3.71-3.51-3.15-11.34.48-18.07,3.11-5.79,11.12-5.47,11.35-9.92.12-2.34-2.08-2.77-2.88-7.19-.64-3.58.31-6-.8-6.56-.74-.37-1.69.46-3.68,1.76-3.12,2-2.67,1.23-6.71,3.68-6.47,3.91-7.27,5.77-9.92,5.6a7.33,7.33,0,0,1-4.32-2.08c-2.93-2.72-1.69-5.53-4.31-14.4a30.23,30.23,0,0,0-2.56-6.55c-1.62-2.85-2.4-2.83-3-4.8-1.07-3.32.71-4.75-.48-7.68a7.29,7.29,0,0,0-3.52-3.83c-4.23-1.84-9.68,2.29-10.87,3.19-2.57,2-2.76,3.16-5,3.84-2.42.76-3.42-.33-6.4-.32-2.74,0-3.84.94-9.91,3.68-4.8,2.17-3.73,1.41-8.8,3.68-7,3.12-10.45,4.68-12.79,6.56-5,4-4.22,6.17-8,7.51s-5.26-.61-10.07,1.12c-3.18,1.14-5.06,2.91-6.24,2.08-.74-.52-.67-1.69-.64-3.2.16-8-1.19-8.2-.32-11.83s2.07-2.92,3.68-7.2c1.28-3.39.69-4.27,1.6-12s1.39-5.94,2.08-12.48c.3-2.88.43-5.37,2.08-8.15.26-.45,2.45-4.07,4.32-3.68.58.12.69.54,1.28,1,1.38,1,3.37.56,6.87-.64,4.73-1.62,7.09-2.43,7.84-3.52,1.57-2.29.52-4.9.16-8-.45-3.77,0-9.15,4-16.16q3.34-13.18,6.71-26.38c3.22-5,3.11-7.06,2.4-8-2.43-3.2-13.67,4.36-18.39,0-2.58-2.38-2.22-7.4-1.6-9.91.73-3,2-3.05,3.68-7.36,1.78-4.51.66-5,2.24-8.31,2.3-4.78,5.25-4.83,5.6-8.16.32-3.13-2.23-3.58-2.24-7.2,0-2.76,1.59-5.09,4.79-9.75,2.72-4,3.93-4.79,3.52-5.76-.78-1.82-5.62,0-12.47-2.4-2.48-.88-4.94-1.79-5.92-4.16-1.1-2.66,0-6.36,1.92-7,1.35-.48,2.17.91,5.76,1.92.37.1,4.89,1.35,5.43.32.68-1.29-5.93-4-6.55-9.28a9.12,9.12,0,0,1,1.92-6.23c1.82-2.51,4.09-3.11,12.15-5.6,9.63-3,11.6-3.73,14.07-5.44,2.29-1.59,4.73-3.27,6.08-6.4,1.48-3.4,0-4.65.8-10.71s2.45-6.13,2.08-9.91c-.44-4.49-2.81-5-2.56-9.12.14-2.27,1-4.11,2.4-7.2,1.24-2.69,2.06-3.74,2.88-5.27,3.52-6.55.26-9.18,3.2-15.52,1.34-2.9,2.17-2.64,6.23-9.59,1.4-2.39,2.19-3.94,2.08-5.92-.15-2.81-1.95-3.67-3-6.23-1.74-4.11,1-6.27,1.6-13,.15-1.64.65-9.16-3.36-15.83-2-3.36-2.46-2-7-7.84-3.7-4.74-5.29-8-8-8-1.26,0-1.45.76-3.2,1.44-3.51,1.37-8.64.72-10.87-1.76-3.09-3.42,1.69-7.71-.64-14.55-1.84-5.41-7.14-9.54-12-10.88-3.32-.91-3.89.22-8.32-1a30.77,30.77,0,0,1-9.91-4.79c-4.45-3-6.73-4.6-8-7.68-.7-1.71-1.11-4-1.92-8.48-.5-2.8-.55-3.74-1.44-4.63-1.41-1.42-3.22-1-7.36-1.12-5.42-.2-9.07-.33-11-2.56s-.19-3.84-1.92-6.24c-2.63-3.65-9.69-4.12-14.71-2.4-3.89,1.33-4.32,3.21-6.72,2.88-3.43-.47-3.45-4.46-8.31-6.88-3.68-1.82-5.59-.5-7-2.39-2-2.66,0-7.55.8-9.6,1.68-4.13,3.22-4.12,3.84-7.36.71-3.73-1.06-5.14.16-7.19,1.51-2.54,4.64-1,7.35-3.36,2.09-1.78,1.5-3.73,2.88-14.71.87-6.92,1.31-10.37,1.44-11,.66-3.25,1.37-5.7.48-8.79-.36-1.26-1-3.3-2.72-4.32-1.34-.78-2.39-.4-3-1.28s-.14-2.34.48-4.32c1.33-4.23,2-6.34,1.6-7.35-1.3-3.39-11.29-2.61-18.07-2.08s-6,1.3-13.59,1.92a23.93,23.93,0,0,0-7.68,1.6,35.62,35.62,0,0,0-5,2.71c-6.12,3.69-6.84,4.8-8.8,4.64-1.39-.11-2.68-1-5.28-2.88-3.54-2.52-3.55-3.56-5.27-4-3.2-.81-6.54,1.95-7.84,3-4.14,3.44-4.08,6.87-6.72,7.36-1,.19-2.15-.09-5.91-3.2-7.43-6.13-7.12-8.53-11.36-10.55-4.07-1.95-5.18-.12-9.75-2.4-4.24-2.12-3.91-4-7.68-6.4-4.63-2.94-9.59-2.91-17-2.88-7.76,0-8,1.41-12.31.48-6.63-1.43-6.39-4.81-12.48-5.91-6.59-1.2-9.94,2.21-13.75-.48-2.1-1.49-1.22-2.64-4-5.44-2.92-3-6.34-4.14-9.59-5.28s-3.65-.81-8.32-2.4-5.9-2.49-6.39-3.67-.24-2.47.16-5.28c.37-2.63.71-2.83.64-4a7.14,7.14,0,0,0-3-5.44c-2.81-1.63-5,1.18-12.32,1.12-2.43,0-3.87,0-5.43-1-2.83-1.65-2.79-4.3-4.8-4.63-.94-.16-1.65.31-5.6,3.35-4.63,3.58-5.1,4.05-5.6,3.84-1.92-.83,2.59-9.2-1.27-16a12.33,12.33,0,0,0-6.08-5.28,11.59,11.59,0,0,0-7.36-.32c-3,.95-3.64,2.72-8.15,6.88-5.66,5.22-6.39,4-7.68,6.4-2.66,5,1.37,8.53-1.6,14.07a17.56,17.56,0,0,1-4.64,5.12c-2.07,1.75-4.16,3.51-7.19,4.15-3.39.73-4-.79-7.84-.16a14.22,14.22,0,0,0-7,3.2c-1.43,1.26-1.29,1.74-4.32,6.08-3.31,4.73-4.11,5.07-4.8,5.12-2,.13-4.38-2.12-4.48-4.32-.14-3,4.13-4.14,3.84-6.88-.17-1.56-1.71-2.53-4.8-4.48-3.5-2.19-5.49-3.45-6.87-2.71-2.41,1.27.5,6.67-2.88,11.19a12.21,12.21,0,0,1-6.24,4,18.8,18.8,0,0,1-6.24.48c-5-.14-6.25-1.12-7.35-.16-2,1.77.57,6.56-1.12,7.67-1.41.93-3.41-2.63-6.4-2.07-3.41.63-4.07,4.12-10.39,12.31-3.82,4.94-4.31,4.61-5,6.56-2.18,6.52,2.49,12.63.32,14.23-.84.61-2.17.18-4.64-.64-.52-.17-3.71-1.26-5.27-2.88-4.47-4.63,1.91-16-.16-17.11-1.36-.72-5.51,3.38-8,7.36-1.89,3-1.94,4.55-4.48,7.67-3.07,3.78-5.09,4.1-5.6,4.16-2,.23-3.53-.77-5.11-1.76-2.61-1.62-6.35-3.82-11.36-6.4l-10.71-35.34a135.66,135.66,0,0,1-19.83.64c-8.36-.35-12.65-.57-17.59-2.72-4.64-2-4.8-3.41-8.8-4.32-6.65-1.5-10.86,1.32-13.27-1.27-1.87-2,0-4.47-1.92-6.56-2.45-2.7-6.47.36-11.83-1.28-6.49-2-11.37-9.74-11.84-16-.14-1.86.16-3.06-.16-7a70.72,70.72,0,0,0-1.12-7.83c-1.48-8.18-2.22-12.27-3.19-13.44-3.13-3.76-6.77-2.33-8.8-6.07-1.76-3.25.6-5-.8-8.64-2.26-5.82-9.9-5.07-10.71-9.27-.74-3.77,5.19-5.3,6.23-12.64.21-1.47.6-4.51-1.12-7.19-1.35-2.12-3.49-3.19-5.75-4.32a44.67,44.67,0,0,0-5.12-1.92c-6.59-2.4-8-3.4-8.8-4a9.92,9.92,0,0,1-3.35-3.52c-2-4,.82-7.49-1.12-9.59-1-1-1.74-.33-4.48-1.12s-4.95-2.61-9.28-6.24c-4.14-3.47-4.29-4.14-5.75-4.32-2-.24-2.44.95-7.84,2.56-3.44,1-4.75,1-5.76.8a9.9,9.9,0,0,1-4.15-1.92,10.85,10.85,0,0,1-3.52-4c-.68-1.41-.81-2.67-.16-9.91a58.34,58.34,0,0,1,.64-5.92c1.53-4.78,4.75-5,6.07-8.79,1.47-4.15-2.06-5-1.6-10.72.35-4.29,2.5-5.69,5.44-15.67.48-1.6.9-3.18.16-3.84-1.54-1.37-5.92,3.37-11,1.92a9,9,0,0,1-3.2-1.76c-3.91-3-3.49-6.57-5.76-7.19-1.42-.39-1.69,1-6.55,3.52a40.18,40.18,0,0,1-8.8,3.35,13.18,13.18,0,0,1-3.2.64c-3.54,0-4.37-2.4-7.83-3.51-4.55-1.47-9.56.58-10.88,1.11-3,1.23-4.14,2.63-5.92,2.08s-2.67-2.59-3.35-4.15c-1.83-4.2-.87-7.55-2.24-8-.66-.22-1.41.37-2.56,1.28-2,1.58-2.09,2.83-3.36,3.52s-2.9.23-4.8-.48c-6.19-2.34-9.29-3.5-11-5.44-4.19-4.66-1.81-8.9-6.56-12.79-1.21-1-2.34-1.51-3.52-3.2s-1.29-3.13-2.23-6.4c-1.17-4-1.75-6-3-7.51-2-2.28-3.26-1.26-7-3.68-4.79-3.08-5.23-6.31-8-6.24-1.89,0-3.34,1.63-4.63,3-2.56,2.79-1.8,4.37-4,6.72a11.83,11.83,0,0,1-7,3.35c-1.54.22-5.33.76-7.83-1.44s-1.13-4.85-3.52-6.55-5,.36-7.2-1.6c-.69-.63-.61-1-2.08-5a43.2,43.2,0,0,0-1.92-4.8c-1.76-2.67-4.61-2.35-10.71-4.31s-8.93-2.87-9.76-5c-1.65-4.2,4.72-9.74,2.4-13-.48-.67-.91-.64-1.92-1.92-1.43-1.82-1.26-2.75-2.39-4.32-.94-1.29-2.87-3.17-4-2.72s-.45,2.23-1.76,5.28c-.69,1.6-2,3.7-2.72,3.52s.13-2.7-1.28-4.48c-.81-1-1.88-1.15-8.15-2.08-4.26-.63-4.76-.72-5.44-1.28-2.3-1.87-1.72-5-3.2-5.28-1.25-.26-1.74,1.92-4.32,2.88a7.28,7.28,0,0,1-6.39-.8c-1.68-1.13-1.35-2.13-2.88-4-3-3.68-6.33-2.2-8.64-5.43-1.55-2.17-2-5.56-.64-7.36,1.56-2,4.69-1,5.28-2.56.34-.89-.39-2-3.68-5.6A68.3,68.3,0,0,0,1708.5,47a32.69,32.69,0,0,0-13.75-6.4c-5.49-1.08-6.73.24-10.71-1.44-3-1.29-5-3.19-7.2-5.6a178.66,178.66,0,0,1-16-20.78c-5.27-7.87-6.58-10.2-9.12-10.24-3.76-.05-7.42,5-8.47,9.44a13.41,13.41,0,0,0,.64,8.31c2.15,5,5.92,4.46,9.91,10.72a17.71,17.71,0,0,1,2.88,6.87c.3,1.75.23,3.12-.32,8.16-.77,7-.84,6.22-1,8.15-.49,7.69,1.19,11.41-1,13-.46.33-1.53.43-3.68.64a26.69,26.69,0,0,1-5.75,0,15.53,15.53,0,0,1-5.92-1.44c-1.89-1-3-2.57-5-6.4-2.58-5-3.86-8.42-5.27-11.67-3.17-7.31-3.72-6.19-5-9.92-.49-1.45-1.21-4.06-1-23.67A29.47,29.47,0,0,0,1622.84,11.26Z"/></g></g></svg>