<svg xmlns="http://www.w3.org/2000/svg" viewBox="0 0 2121.7 2750.02"><g id="Layer_2" data-name="Layer 2"><g id="Lebanon"><path d="M1217,89.74c1.92-3.58,3.55-3.46,4.54-5.93,1.88-4.7-2.5-8.9-.7-10.83,1.36-1.45,4.91-.21,7.51.7,6,2.09,7.12,4.51,11.17,6.29,5.91,2.59,8.09-.53,15.19.69,2.53.44,3.72,1.09,17.63,10.65,6.12,4.21,12.67,7.77,18.86,11.87,2.74,1.82,6,4,10.3,3.85,3.1-.14,4.51-1.42,8-3.15,10.36-5.08,13.64-1.55,24.44-6.63,4.68-2.2,5.5-3.54,7.86-3.14,5,.83,5,7.34,11,10.12,2.23,1,6,.57,13.45-.35,7.88-1,11.9-1.51,15.88-4.19,4.17-2.8,3.08-4.27,6.29-6.11,7.64-4.37,13.61,4.08,23.22.53a39,39,0,0,0,13.62-8.56c1-1.07,2.19-2.49,4-2.62s3.59,1.24,8,5.94c5.14,5.44,4.37,5.17,5.41,5.93,3.79,2.77,9.85,2.24,21.83,1,5.27-.52,8.09-1,11.17.7,2.18,1.24,2.19,2.32,5.41,4.89,2.91,2.32,6.58,5.25,9.6,4.36,2.67-.78,1.92-3.67,5.42-7.33,2.41-2.53,5.62-3.67,12-5.94,4.74-1.67,7.11-2.51,9.25-2.26,4.71.53,4.94,3.55,10.65,5.41,5.1,1.66,6.32-.28,11.53,1.22,5.38,1.55,4.76,3.83,10.47,6.46,4,1.85,4.65.87,19.38,3.14,6.27,1,6.47,1.19,7.68.87,7.56-2,6.83-12.46,13.09-14.31,3.56-1,5.28,1.88,19.38,9.43,7.73,4.13,11.66,6.19,15,6.11,3.15-.09,3.56-1,16.41-5.76a93.43,93.43,0,0,1,9.77-3.32c8.64-2,10.7.17,14.15-2.1,2.56-1.68,2.1-3.29,6.45-14.49,2.72-7,4.07-10.45,6.12-14.66,3.08-6.37,4.49-7.95,4.19-11.18-.35-3.63-2.42-4.53-4.37-9.25a28.52,28.52,0,0,1-1.92-12.22c.41-14.42,12.44-24.26,14.67-26a41.61,41.61,0,0,1,17.28-7.86c5.79-1.3,22-5,32.47,4.89,5.07,4.76,9.25,13.1,7.51,20.25-.82,3.35-2.37,4.13-4,8.38A30.84,30.84,0,0,0,1742.15,52c1.44,7.77,6,12.92,15,23.22,4,4.53,7.08,8,12.23,11.87s6.35,3.49,14.66,8.91c9.27,6,9.86,7.82,12.57,7.5,7-.82,9.16-13.46,14.66-12.92.9.09,1.44.49,4.19,3.15,6.67,6.43,8.55,9,11.35,11.52,3.7,3.37,7,5,12.75,7.68,7.06,3.37,10.59,5.05,14.31,5.06,5,0,7.45-2.33,21.65-12.39,13.6-9.64,17.12-11.58,19-10.3.59.4,1.43,1.37.52,11.87-.66,7.76-1.4,10.46-2.27,18a128,128,0,0,0-1.22,15.89c0,7.93.93,9.54-.17,14-.46,1.82-1.87,7.49-6.46,11.52-7.25,6.37-20,6.49-27.24,1.05-6.62-5-3.48-10.67-11.69-16.76-4.17-3.1-6.15-2.5-12.57-7.34-1.86-1.39-3.51-2.81-6.29-3.49-1.06-.26-5.62-1.36-8.55.87-1.26,1-2.16,2.49-3.32,18.86-.29,4-.38,6.05-1.4,8.9-1.23,3.48-2.36,4-3.14,7.16s.07,4,0,8.9c-.11,7.4-2.1,7.92-1,11.53s3.07,2.94,5.94,8.38c2.08,3.95,1.33,4.9,3.67,9.07,2.41,4.33,3.63,4.05,4.19,6.46,1,4.27-1.89,9.26-5.24,12-3.61,3-5.77,1.78-10.13,5.06-3.12,2.35-3.93,4.42-5.93,7-2.8,3.57-5.14,4.56-18,11.17-12,6.15-17.94,9.23-19.72,10.47-4.42,3.09-9.24,5.59-13.62,8.73a15.72,15.72,0,0,1-8.55,3.32,17.26,17.26,0,0,1-2.8-.17c-7.43-.73-11.19-1.08-13.44-.18a11.47,11.47,0,0,0-5.41,5.24c-3,5-1,8.64-1.23,18-.24,11.15-3.2,13.93-.69,16.94s6.23,1.42,14.84,3c8.44,1.51,9.29,3.77,16.93,5.94,6.49,1.84,13.87,1.4,28.63.52,12.94-.77,19.5-1.2,24.27-3.49,8.22-3.95,9-8.24,14.66-8.2,6.44,0,7.63,5.65,18.16,8.2,3.37.82,7.28,1.77,11.7.35s5-3.8,10.82-7.33c4.7-2.83,9.71-5.86,12.57-4.19,3.1,1.8,1.3,7.69,2.27,24.09.63,10.66,1.68,12.94,3.49,14.32,4.66,3.53,10.84-1.59,14.67,1.74,3.51,3.07-.38,8.58,1.92,18.51.58,2.52,2.36,10.25,8.38,15.19,6.92,5.68,11.52,1.16,22.34,6.8.65.34-.06,0,15.19,10.83,5.39,3.83,8.74,6.14,13.1,5.76,3.38-.29,4.79-2,6.63-1.05,2.86,1.46.73,6.18,3.49,11.87,1.59,3.27,3.06,3.31,11,10.48,6.19,5.59,5.39,5.66,8.55,8.2,5.18,4.17,7.25,3.94,17.64,9.08,10.12,5,15.26,7.62,18.68,12.4.56.78.63,1,5.24,11.69,5.8,13.51,6,14,6.28,15.72,1.39,9.8-3.27,17.7-4.19,19.2-2.21,3.59-4.51,5.5-11,10.48-20.24,15.52-26.17,18.69-26,24.09,0,1.4.46,1.63,5.06,9.08,3.56,5.74,7.18,11.59,9.43,15.88,5.13,9.79,2.91,11,9.6,26.36,3.78,8.65,5.71,11.06,8,12.92,3.73,3,6.37,2.93,8.56,6.46,1.61,2.61,1.77,5.29,2.09,10.65.41,6.77-.66,7.42.18,10,1.81,5.52,8.66,7.89,13.61,9.61s6.43,1.28,22.7,3.66c7.55,1.11,9.21,1.48,11.35,2.8,6.68,4.1,8.63,11.58,9.07,13.26.58,2.2,3,11.33-1.74,16.41-2.65,2.86-4.86,1.56-11.52,5.94-3.71,2.43-5.9,3.92-6.64,6.63s.38,5.26,2.45,10a56.71,56.71,0,0,0,3.66,6.8c5.93,10.32,2.13,23.42,1.92,24.1-2,6.53-4.24,5.21-8.38,13.61-2.05,4.17-6.48,13.47-4.88,25,.49,3.6,1.48,10.75,6.8,16.58,5.52,6.05,9.26,3.65,22.18,10.83a83.74,83.74,0,0,1,17.63,13.27c5.36,5,7.46,8,8.9,11.17,1.53,3.38,4.34,9.6,1.22,14-1.16,1.63-2.53,1.52-9.6,3.84-5.68,1.86-4.6,1.82-9.25,3.31-10.05,3.22-12.83,2.67-17.81,5.94-2.76,1.82-4.14,2.72-5.24,4.54-4.43,7.33,3.08,16.07-1.39,21.65-1.89,2.35-3.5,1.14-5.76,4-3.29,4.17-.58,7.6-3.49,11.87-1.57,2.29-4.25,3.56-9.61,6.11s-6.21,2-7.33,3.5c-2.5,3.41,1.22,7.16.87,15-.18,4.21-1.52,7.23-4.19,13.27s-4.57,10.21-8.9,13.09c-2.2,1.47-3.77,1.76-7.33,2.79a125.35,125.35,0,0,0-21.3,8.21c-4.47,2.36-7.93,5.59-14.84,12.05a166,166,0,0,0-17.63,19.55,146,146,0,0,0-9.08,13.09c-4.82,7.85-7.24,11.85-7.33,15.89,0,1.8.22,2.9,5.58,16.41,4,10.18,4.15,10.22,4.19,11.17.33,7.17-5.54,9.25-15,22.7-8.88,12.6-7.76,16.5-14.14,19.73-4.13,2.08-8.21,2.28-11.7,6.63-2.3,2.87-2,4.58-4.71,7.16-.62.58-5.27,4.81-10.13,3.84-3.73-.75-3.76-3.79-7.86-6.46-4.63-3-7.6-1.1-16.58-2.27-5.82-.76-9.78-2.24-17.28-5.06-.89-.33-1.93-.81-16.24-7.51-6.76-3.16-9.27-4.35-11.17-3.14-.77.48-1.51,1.41-3,10.3-1.21,7.37-.93,8.14-1.92,8.9-3.23,2.47-8.58-3.91-18.33-3.14-3.2.25-6.41.5-8,2.79-3,4.23,3,10.33-.35,17.11a12.07,12.07,0,0,1-4,4.54c-5.44,3.7-9.79-.11-14.14,3.14s-4.49,10.05-4.54,11.18a15.13,15.13,0,0,0,.35,4.19c2,8.15,10.81,8.51,12.75,15.88a12.25,12.25,0,0,1-1.75,9.43,11.36,11.36,0,0,1-9.43,4.89c-6.08-.33-8.45-6.92-12-5.94-2.16.59-2,3.15-4.37,7.34-4.7,8.27-10.24,6.84-14.49,14.31-3.57,6.28-1.18,10-4.54,12.05-4.14,2.57-8.46-2.61-15.54-1.22-2.78.54-5.22,2-12.22,9.6-8.4,9.17-12.6,13.76-16.06,20.07-4,7.28-3.05,8.74-11.35,28.11-3.14,7.35-4.14,9.17-6.46,10.48-7.4,4.2-16.74-3.3-21.64,1.39-1.16,1.11-1.59,3.07-2.45,7-1.91,8.73.36,11.13-1.57,15-1.71,3.43-4.24,3.07-14,8.21-8,4.22-12,6.33-14.66,9.77-5.36,6.89-6.89,18.39-2.44,22.17,4.24,3.62,11.4-2,17.8,2.8,2.6,1.94,1.74,3.1,5.07,6.11,1.91,1.73,4.57,3.51,13.09,6.11,11.59,3.54,12.45,2,15,4.36,4.4,4,2.14,8.77,6.29,14.84,3.49,5.12,10,3.36,12.22,8.38,1.08,2.47,0,3.32,1.05,4.89,2.38,3.57,9.58,1.65,23,.52,16.08-1.34,21.06.12,24.62,2.8a20.37,20.37,0,0,1,4.54,4.89c3.33,5.21,1.33,8,3.49,12.74s6.29,7.12,14.66,12c3.89,2.29,5.45,2.7,8.73,5.23s5.88,4.54,7.51,7.51c4,7.2-2.62,11.89-1.57,26,.49,6.66,2.18,8.74.35,11.88-1.68,2.87-4,2.66-12.57,7.15-7.1,3.72-7.44,4.88-10.65,5.42-4.36.72-6.86-.88-13.27-3.15-3.14-1.1-9.89-2.6-23.39-5.58-8.66-1.92-13-2.87-17.11-3.5-11.71-1.76-15.62-1-22.35-4.36a49.29,49.29,0,0,1-9.08-5.94c-5.71-4.87-5.53-7.36-9.43-9.07-5.09-2.24-7.17,1.24-13.61-.35-5.33-1.32-5.38-4.07-12.4-8-4.15-2.35-8.12-3.37-16.06-5.42-10.68-2.75-11.18-1.61-18.68-4-9.54-3.06-10.2-5.37-14-4.54-4,.89-7.17,5.25-13.44,14-3.29,4.57-4.93,6.86-5.41,8.55-2.33,8.25,3.47,13.27.17,19.9-.62,1.25-2.16,2.7-5.23,5.59-5.74,5.39-8.61,8.09-11.88,8.73-1.68.33-5.19.46-17.63-10.65-11.89-10.63-20.77-20.43-20.77-20.43-5.83-6.43-8.22-9.63-12.57-10-3.51-.26-5.11,1.58-12.22,5.24-6.42,3.3-5.19,1.84-17.29,7.16-15.37,6.75-14.63,7.91-19,8.38-2.07.22-5.85.35-9.25,3-2.27,1.75-2.19,2.93-3.49,3.14-3.74.61-5.3-8.93-13.62-12.4a12.39,12.39,0,0,0-7.33-.87,13.27,13.27,0,0,0-6.64,4.19c-5.18,5.18-7.69,3.71-18.15,10.13-11,6.75-8.44,8.5-16.24,12-5,2.25-6.24,1.65-17.81,5.76-7.63,2.72-6.31,2.71-9.77,3.67-7.12,2-10,1.26-21.48,3.32-5,.89-7.55,1.36-8.55,2.09-5.71,4.19-2.87,12-6.81,23-2.76,7.72-4.68,5.34-10.12,15.88-6.7,13-4.51,18-11.7,27.59a58.3,58.3,0,0,1-9.25,9.42c-5.77,5.07-11.32,9.93-19.73,12.4-4.22,1.23-6.64-.15-14,1.4-3.88.81-5.82,1.22-7.33,2.27-4.2,2.89-2.89,6.54-7.33,16.93-2.63,6.14-3.87,6.69-5.76,12.57-1.42,4.39-1,5-2.45,7.68s-3.87,5-8.73,9.43c-1.61,1.48-2.27,2-3.14,1.92-2.53-.25-2.56-5.27-5.76-6.46-2.34-.87-5.5.64-7.16,2.62-2.55,3-1.09,6.65-1.22,12.22-.12,4.77-1.25,4.51-5.06,16.93-5.56,18.1-3.91,21.12-3,22.35,2.41,3.17,6.18,2.5,7.33,5.94.87,2.58-.94,3.94-1.92,9.07-1,5.35.6,5.63-.17,10.83-.35,2.35-1.41,9.45-6.81,13.09-2.33,1.57-4.53,1.88-7.34,2.27-7.94,1.12-10.15-2-15.53-.35-.65.21-6.12,2-8,6.64-1.52,3.67.93,4.91.17,12a43.39,43.39,0,0,1-2.27,9.43,46.73,46.73,0,0,1-2.27,5.59c-3.16,6.36-6.43,7.32-8.38,10.65-2.42,4.14.32,6.64,7.16,29.5a67.11,67.11,0,0,0,6.63,15.36c3.3,5.57,5.44,7.25,7.69,7.51,1.37.16,2.43-.25,7-3,9.17-5.47,9.43-6.5,12.22-7,3.77-.65,7.06.58,10.65,1.92,4,1.49,4.1,2.45,8.9,4.54a40.3,40.3,0,0,0,10.13,3.14c7.07,1.08,7.74-1.42,13.09-.35,7.31,1.47,12.12,7.34,13.27,8.73,3.44,4.19,2.36,5.58,5.24,7.86,4.33,3.42,7.08.51,14.31,3.49,2.62,1.08,1.85,1.29,11.7,7.33,3,1.82,4.45,2.73,6.11,3.67,8.16,4.6,10.8,4.89,13.62,8.2a18.1,18.1,0,0,1,3.31,6.29c2.8,7.79.26,12.16.7,21.82s3.09,8.5,2.62,15.19c-.12,1.68-.52,5.18-8.9,20.95-2.37,4.46-4.54,8.54-8,14.31-8.36,13.82-8.73,11.58-12.22,18.68-4.37,8.88-5.12,15.07-11,17.81a7.61,7.61,0,0,1-4.72.87c-3.9-.71-4.47-4.87-9.25-11-5.62-7.2-11.25-9.66-13.44-10.48-2.7-1-4.6-1.72-6.46-.87-4.28,2-3.11,9.77-6.81,10.82-1.73.49-3.58-.78-5.24-1.92-2.57-1.77-3.21-3.58-4.89-5.76-2-2.6-6.78-7.39-10.3-6.63-2.71.58-2.76,4.07-7,12.74-3.1,6.38-5.11,10.42-9.08,13.79a26.79,26.79,0,0,1-12,5.59c-11.07,2.43-15.72-2.84-21.83.87-4.11,2.5-7,8-5.93,11.87,1,3.44,4.33,3.41,11,9.78,3.45,3.3,5.18,5,6.28,7.68,2,5-.63,6.69,0,15a54.81,54.81,0,0,0,3,13.26c1.49,4.48,2.34,5.4,3,8.91a31.41,31.41,0,0,1,0,10.47,29.56,29.56,0,0,1-6.64,14.84c-2.24,2.53-2.72,2-12.39,8-6.32,4-10.48,6.58-15.36,10.65-5.06,4.22-4.2,4.42-8,7.33a46.2,46.2,0,0,1-16.76,8.73c-6.94,1.81-11.81.95-14.31,4.72-.4.59-.29.64-1.92,3.84,0,0-1.78,3.49-3.67,6.81-3.11,5.46-6,10.52-10.3,13.79-4.58,3.47-6.06,1.34-15.54,4.71-10.32,3.68-9.12,6.41-18.15,9.26-8.86,2.79-12.72,1-17.81,5.23-2.7,2.24-2.13,3.16-5.76,8.38-4,5.76-9.25,10.38-19.55,19.38-8,7-7.41,5.91-8.91,7.68-5.46,6.44-7,13-9.25,23.22-3.17,14.35-4.79,21.69-.87,28.46,1.44,2.5,3.35,4.19,3,6.81-.53,3.6-4.73,4.8-10.82,9.08-4.86,3.41-7.84,6.63-12,11.17-7.7,8.32-7.32,11-12.74,14.14-1.58.92-4.95,1.89-11.7,3.84a144.08,144.08,0,0,1-14.31,3.67c-7.36,1.39-7.64.61-15.54,2.09-5.09,1-8.79,1.68-13.44,3.67-3.64,1.55-6.74,2.88-9.95,5.76-5.15,4.6-4.71,7.92-9.61,10.65-1.8,1-5.12,2.86-8.2,1.75-4.74-1.73-3.28-8.46-9.25-12.57a14,14,0,0,0-8.91-2.27c-6.52.57-10.58,6-11.17,6.8-6.51,9,1.27,17.14-4.72,28.11-2,3.68-4.71,6-10.12,10.48-5.06,4.23-9.05,7.57-15,9.25-7.74,2.18-9.6-1-15.89,1.57-3.28,1.35-6.19,4.47-11.87,10.65-6.55,7.11-11.7,13.62-11.7,13.62-5.33,6.73-7.41,10.07-10.3,9.77-2.1-.21-2-2.08-5.41-4.36-4.64-3.07-6.87-1-12.92-4-4.06-2-4.55-3.67-6.46-3.31-3.26.6-2.6,5.57-7,8.55-3.75,2.55-6.38.4-10.83,3a15.27,15.27,0,0,0-5.93,6.81c-4.44,9.21,3.49,16.22,1.57,31.77-.49,4-1.07,8.22-3.84,9.43-.74.32-3.07,1-15.37-7-2.49-1.63-2.95-2-7.33-5.07-10.45-7.25-11.77-7.74-16.06-11.17-5.62-4.48-8.43-6.72-9.78-9.43-2.69-5.4-2.19-11.55-1.74-17.11.57-7.09,2.11-9.68.17-12.57-.91-1.35-1.63-1.34-8-4.36-7.43-3.51-8.22-4.35-11.52-5.06s-7.16-1.55-8.91.35c-2.09,2.27,1.32,5.76,1.4,12.74.06,5-1.94,9.36-5.93,18.16-2.49,5.48-3.07,5.48-4.54,9.6-2.16,6-1.62,8-3.84,10.3-3.34,3.47-6.51,1.15-10,4.19-4.67,4.12-4,13-3.66,17.63.5,6.81,2.47,9.67.35,12.57-1.46,2-3.18,1.73-6.46,4.72a27.09,27.09,0,0,0-4.54,5.76c-3.22,5.44-1.94,9.8-2.62,22.52-.65,12-2.2,15.56.7,18.68,1.7,1.83,3.91,2.41,5.93,5.76a16.14,16.14,0,0,1,2.1,6.28c.59,4.62-.85,7.82-2.1,11.88s-.53,3.16-2.61,14.31c-3.87,20.66-5.9,21.86-7.51,34.39s-2.42,33.22-7.68,37c-.32.24-1.89,1.29-1.75,2.45.17,1.41,2.67,1.52,5.24,4,1.27,1.23,2.06,2,2.27,3.15.54,3-3.64,4.14-6.29,9.95-1,2.13-.51,2.21-1.92,5.58a52.93,52.93,0,0,1-3.31,6.46c-5.39,9.49-4.71,9.48-5.77,10.13-4.9,3-14.15,0-14.66-.17-1.55-.53-3.17-1.27-4.71-.53-2.14,1-2.63,4.15-2.8,5.24-.66,4.28,1.26,6.08,1.75,10.82.18,1.82.06,3.13-.87,8.38-.79,4.44-1.92,10.35-3.5,17.46l-78.21.87-20.08,39.11c-18.45.59-27.74,3.78-32.82,6.81a23.36,23.36,0,0,1-11.34,3.84,28.08,28.08,0,0,1-10-1.57c-3.65-1.4-4.33-2.72-7.5-3.14-1.2-.16-5.38-.72-7.34,1.57s.44,4.76-1.22,8.38a9.37,9.37,0,0,1-8.38,5.23c-2.93-.13-3.86-2.17-6.63-3.84-8.08-4.85-16.17,3-24.79-.69-2.5-1.07-5.7-3.37-8.38-8.91l-32.65-38.23c-1.3-1.19-2.9-3-2.79-5.24.07-1.35.74-2,2.79-5.06,2.5-3.67,3.75-5.54,3.84-6.81.15-2.08-1.23-3.74-4-7-4-4.7-6.09-7.11-9.78-7.86a14.39,14.39,0,0,0-8.55,1.22c-2.72,1.22-2.55,2.11-4.89,3.14-3.18,1.41-8.15,1.82-11.52-.52-3.86-2.68-2.91-7.06-5.94-8.2-2.43-.92-5.5,1-8.21,3.31a18.56,18.56,0,0,1-8,7.16c-3.05,1.33-4.2.67-10.82,1.57-1.89.26-6,1.16-14.14,3-8.69,1.92-8.14,1.9-10.3,2.27-8,1.38-8.63.55-13.1,1.92-6,1.85-5.91,3.68-9.95,4-5.35.44-9.89-2.43-12.39-4-5.4-3.41-5-5.64-8.91-6.81-3-.88-3.38.34-11.17.7-6.38.29-8.29-.43-9.43,1.05-1.51,2,.95,4.42,0,9.07-.2,1-.9,4.47-3.49,6.46-5,3.89-12.17-1.82-17.28,2.27-2.25,1.8-2.31,4.06-4.19,4.19s-2.65-1.87-6.11-5.23a28.21,28.21,0,0,0-8.38-6.11,22.07,22.07,0,0,0-9.08-1.75,23.25,23.25,0,0,0-9.78,1.92c-6.14,2.75-6.66,6.53-10.82,6.63-2.29.06-2.47-1.08-7-2.26a34,34,0,0,0-8.38-1.05c-7.26-.29-9.61-1.73-21.13-3.49-9.16-1.4-16.38-1.82-18.5-1.92-16.44-.85-23.39,1.33-25.14-2.1-.74-1.45.89-4.71,4.19-11.17,3.87-7.6,5.81-11.41,9.07-15.37,3.72-4.5,7.16-7.06,12-10.65A186.4,186.4,0,0,1,52.9,2629.2c2.85-1.33,5.62-2.52,8.38-5.41,3.42-3.59,4.25-7.1,6.11-12.74,1.63-5,4.61-14,9.25-22.35,3.8-6.81,4.08-4.86,9.26-13.62,5.41-9.15,6.1-13,10.47-14.66,3.84-1.47,5.95.46,10.82-1.75,1.53-.69,3.44-1.83,6.64-5.23a58.21,58.21,0,0,0,9.6-13.8,180.21,180.21,0,0,0,9.08-21.29c7.44-21.57,4.79-20.6,10.3-34.4,3.2-8,5.89-12.84,6.81-21.65.63-6.08-.5-5.3-.18-13.26.47-11.69,3.17-20.4,2.62-31.08a15.52,15.52,0,0,0-2.27-7.86c-1.56-2.42-3-3-5.06-4.88-3.39-3.24-3.19-5.54-6.29-11.7-4.5-9-8.4-11-7.33-12.92,1.76-3.12,12.17,2.39,18-2.79,1.93-1.72,2.41-3.78,3.15-6.29,4.74-16.22,9.37-15.27,12-27.76,2.26-10.53-.27-14.77,4.37-20.6,2-2.52,3.17-2.59,6.28-6.11,4.38-5,6.44-9.75,8.21-14,6.2-14.83,9.49-22.16,11.87-30.56,3.39-11.93,3.8-18.14,3.84-22.17,0-4.37-.39-4.15-.35-7.5.18-15,8.73-20.35,11.17-35.44,1.54-9.49-1.71-8.2,0-16.59,2.8-13.71,10.8-13.9,16.24-29.5,1.7-4.88.63-4,5.06-22.87,1.63-6.92,3-12.4,3.49-14.15,5.79-22.07,10.07-38.4,22-50.8,8.37-8.69,10.24-4.78,26.89-18.5a183.42,183.42,0,0,0,21.82-21.48c17.94-20.4,14.83-24.52,26.71-33.17,3.43-2.5,9.72-6.54,15.71-14.31a45,45,0,0,0,6.29-10.65c1.62-4,1.86-6.47,3.14-15.19,2.76-18.84,3.22-18.33,2.79-21-1.31-8-5.2-10-4.19-16.59.35-2.26,1.05-3.6,4.37-9.42,5.7-10,8.55-15,9.95-17.11,8.2-12.33,11.35-10.79,14.32-18.51,2.17-5.66,1-7.33,4-14.14s4.75-6.12,6.81-11.7c1.38-3.74.62-4,3.14-18,.68-3.72,1.23-6.45,3.49-8.73s4.49-2.12,6.46-3.32c3.2-1.92,5.2-7.13,3.32-28.45-1.28-14.54-3-21.58-.17-30.9,2.05-6.68,4.66-8.63,6.63-9.26.45-.14,1.14-.3,7.51-.17,5.43.11,5.61.25,6.28,0,3.84-1.42,4.59-8.4,5.24-15.71,1.41-15.8,1.75-24.62,1.75-24.62.34-9,.68-16.5,3.31-25.49,1.26-4.28,2.57-7.3,5.41-9.25,2.55-1.75,4.38-1.29,10.48-3.49,3.41-1.23,5.32-1.92,7.16-3.14s5.59-4.26,8.38-14.32c2-7.26,2-12.71,2.09-18.68.37-17.59.55-26.39,3.32-36a85,85,0,0,1,8.55-19.56c2.3-3.71,3.61-5.08,10.48-15.19,3.49-5.14,5.24-7.71,6.63-10,4-6.49,5.33-10.24,10.83-23.39,9.4-22.5,10.54-23.31,10.3-28.11a72.11,72.11,0,0,0-3-17.46c-1.69-5-3.54-8.08-2.1-11.52,1.09-2.59,3.13-3.27,5.07-7.51a21.94,21.94,0,0,0,1.57-5.06c1.8-8.94-1.47-17.85-2.45-20.42-2.63-6.94-4.8-8-4-11.18,1-4.11,5.26-4.41,8.2-8.55,3.12-4.38,2.21-9.43,1-17.64-4.33-30.77-2-34.23-7.16-38.93-4.64-4.23-9.49-4.11-12.39-10.12a20.39,20.39,0,0,1-1.57-10.65c.22-2.81.69-8.59,4.36-11.87,3.22-2.88,6.65-1.83,19.38-1.4,20.11.68,22.89-1.54,24.09-2.79,2.79-2.91,3.17-7,7.33-8.38.81-.28,3.14-1.08,5.07,0,4.16,2.31,1.42,10.53,4.89,12.39,1.41.76,2.65-.17,8.38-2.79,11.72-5.37,12.3-4.13,17.1-7.51,2.2-1.55,3.7-2.94,6.81-4.19a16.54,16.54,0,0,1,7-1.57c5.12.24,5.76,4,13.09,7.16,4.26,1.83,4.21.62,9.6,2.79,6.34,2.55,7.53,4.66,10.13,4s3.08-3,6.81-8.56c3.55-5.32,4.9-6,7.15-9.25,3.59-5.17,3.73-8.54,7-21.82,3.71-15.13,3.63-11.2,6.81-24.44,2.11-8.84,2.74-13.08,6.46-18.16,4-5.49,5.83-4,8.55-8.38,5.66-9-1.44-16.53,4.19-26.36,2.52-4.41,3.78-2.61,7.86-8.38,6.63-9.4,4.24-15.51,9.77-18.86,4-2.41,10-2.17,13.1.53,2.16,1.89,1.54,3.85,3.66,5.41,3.25,2.39,9,.95,12.57-1.22,7.34-4.46,9.05-14.06,10.3-21.13.19-1.07.42-4.67.88-11.87.72-11.53.54-13.69-1.05-15.19-2.2-2.07-4.38-.34-11.17-1.92-3.33-.77-7.79-1.8-10.65-4.71-3.25-3.29-3.08-8.76-2.62-19.56s.76-16.49,3.84-22.87a64.16,64.16,0,0,1,7-10.82,75.84,75.84,0,0,1,5.41-6.11c6-6.16,6.9-5.48,8.56-7.86,5-7.12-2.51-14.49,1.22-26.71a50.27,50.27,0,0,1,3.67-9.08c1.2-2.16,2.12-3.29,3.49-6.11a51.48,51.48,0,0,0,2.44-6.11c1.73-5.49.62-11.07-.17-15.88-3.34-20.3,0-21-3.84-27.94-2.38-4.32-4.83-6.18-6.11-11.69-.78-3.32-.64-5.89-.35-10.65.7-11.67,3.25-14.32,1-17.64-1.33-2-4.32-3.14-10.3-5.41-5.25-2-6.5-1.67-7.85-3.14-2.71-2.95-.77-7.65.7-15.19,2.6-13.39-.48-14.19,1.92-32.12a106.49,106.49,0,0,0,1-12.4c.1-4.25-.09-7.24-.17-8.9-.35-7.2-.81-16.49,1.57-23.92,2.58-8.06,6.13-6.52,17.46-22.52,3.9-5.51,6.55-9.26,9.08-15,2.12-4.84,2.4-7.1,5.58-21.65,4.83-22,5.37-22.2,4.72-25.14-2.07-9.37-9.16-15.09-6.29-20.43,1-1.89,2.71-2.65,3.84-5.93a14.28,14.28,0,0,0,.53-7.34c-.57-2.83-2.07-4.89-5.07-8.9-3.25-4.35-3.8-3.74-4-4.89-1-5.3,11.51-7.8,17.63-20.42.23-.48,1-2.82,2.62-7.51,4.39-12.92,4.28-14.36,6.63-19.2a72.45,72.45,0,0,1,7-11.18c4.19-5.88,6.33-8.84,8.55-9.25,3.88-.72,5.47,3.19,15.71,8.73,4.76,2.57,7.21,3.86,10.48,4,4.93.24,8.61-2,13.27-4.88a49.29,49.29,0,0,0,15.19-14.15c3.14-4.53,5.63-9.79,8-19,1.37-5.28,8.78-33.86,5.23-56.74a26.91,26.91,0,0,1,1.23-14.49c.72-1.81,2.45-6.11,6.46-8.91,6.56-4.59,11.44.32,22.87-2.27,6.44-1.45,5.21-3.08,18-8,9.05-3.5,9.83-2.74,15.54-5.41,8.8-4.11,8-6.41,17.1-11.7,11.62-6.75,15.21-4.34,24.27-11.52a65.7,65.7,0,0,0,9.6-9.6c2.91-3.53,5-6,6.64-9.95a34.83,34.83,0,0,0,2.62-12.92,46.7,46.7,0,0,0-.88-10.48c-2.44-13.35-6.77-13.93-8.2-24.79-.86-6.51.32-9.12-2.27-12.39-2.38-3-5.26-3.2-7.51-7.16-.65-1.14-2.51-4.43-1.4-7.16,2.23-5.44,15.2-5.91,17.81-1.74.82,1.31.15,2.32,1,3.14,2.12,1.93,8.94-.83,14-5.06,5.87-5,6.49-9.58,10.47-9.78,2.21-.11,4.16,1.19,6.29,2.62,3.59,2.4,3.84,4.3,6.11,5.58,3.35,1.9,7.25.24,11.34-1,8.41-2.64,17.47-2.37,26.19-3.67,16.25-2.42,15.58-2.21,17.28-2.62a79.78,79.78,0,0,0,22.7-8.55c7.6-4.42,12.09-9.06,20.43-17.81,6.89-7.23,8-9.23,16.93-19.73,25.78-30.16,27.57-26.07,32.12-35.79,1.26-2.68,3.78-8.66,9.61-11.17,2.74-1.18,5.3-1.2,10.12-1.22,9.34-.05,11.43,1.93,14.84.17,2.55-1.31,2.62-3,6.29-9.77,5.24-9.62,6.59-8.81,9.77-15.54a57,57,0,0,0,4.89-16.94,65.14,65.14,0,0,0,0-17.8c-3.35-28.13,3-37.61-2.44-68.26-1.53-8.71-3.47-16-4.54-20.08-5.3-19.93-8-29.89-10.65-34.39-1.55-2.58-5.44-8.6-4.54-15A20.41,20.41,0,0,1,1217,89.74Z"/></g></g></svg>