<svg xmlns="http://www.w3.org/2000/svg" viewBox="0 0 2323.95 2304.46"><g id="Layer_2" data-name="Layer 2"><g id="Lesotho"><path d="M1563.2,0c-2,0-3.82.81-7.45,2.54a19.19,19.19,0,0,0-2.4,1.28c-1.81,1.17-2.32,2.05-4.57,2.68-3.36.93-5.72.15-7,1.9-.83,1.16-.57,2.61-1.11,2.69-.69.1-.9-2.41-2.53-3.17s-4.35.65-5.86,2.38c-2,2.32-1.47,4.55-2.22,7.6-1.31,5.34-5.79,9.81-9.82,11.72-6.46,3.08-11.52-.51-14.89,3.33-2.06,2.36-1.6,5.36-3.32,5.7-2.2.44-3.65-4.27-6.5-4.12-2.51.14-2.62,3.86-5.86,4.91-2.74.9-5.69-.78-9.35-2.85-4.71-2.67-4.9-4.32-7-4.27-4.29.09-5.83,7.29-9.18,7-3.12-.3-3.54-6.7-6.66-7s-4.71,6.47-8.39,6.49c-3.87,0-5.2-7.39-8.55-7.29-3.62.11-3.33,8.77-10,12.36-3.74,2-9.31,2.24-12.52-.32s-2.63-6.55-4.91-7c-2.12-.38-2.87,3.07-6.49,4.76-4.46,2.07-7.83-1.05-14.89-1.43-2.78-.15-6.08.69-12.67,2.38-8.68,2.21-16.59,4.23-24.4,8.87a85.1,85.1,0,0,1-9.18,4.91,37.58,37.58,0,0,1-6.81,2.69c-8.55,1.91-14.51-4-16.64-1.74-1.46,1.52,1.37,4.31,1.59,11.56.08,2.88.26,8.76-3,10.93-2.23,1.48-3.92-.19-6.81,1.27s-2.6,3.69-5.23,7.44c-1,1.47-1.58,1.86-11.41,9.51-4.55,3.54-6.83,5.35-7,6.81-.35,4,5.71,5.2,5.87,10,.12,3.83-3.65,7.58-6.82,9.18-2.91,1.48-3.91.44-5.7,1.9-3.45,2.84-.75,7.63-4,10.77-2.42,2.38-7.05,2.69-10,1.11-3.35-1.81-3.15-5.4-5.54-5.7-1.41-.18-2.36,1-6.81,5.39-5.85,5.83-6.42,6.08-7.13,6.17-2.76.36-5.57-2.29-11.09-7.6-4.26-4.1-5.07-5.68-6.33-5.38-3,.69-.36,9.9-6.18,15-1.34,1.19-3.38,2.32-7.45,4.6a28.31,28.31,0,0,1-4.27,2.06,18,18,0,0,1-6.5,1.26c-3.38-.21-4.72-2.5-8.71-5.54a35.91,35.91,0,0,0-13.46-6.65c-6.85-1.5-8.55,1.25-13-1.11s-5.4-6.55-8.08-6.18c-2.11.29-1.81,2.93-4.75,4.91-3.72,2.51-6.4-.23-12.52,1.74a31.67,31.67,0,0,0-7.44,4c-2.81,1.8-4.29,3.13-7.29,4.12-2.24.74-3.36,1.12-4.75.79-.81-.19-2.88-.89-7-8.71-2.2-4.21-3.05-6.78-3.64-6.65-1.16.26,1.57,10.37-1.74,12.2-1,.57-1.86-.15-6.82-1.59s-7.67-2.2-9.18-1.27c-2,1.21-.61,3.13-3.17,7.13a27.52,27.52,0,0,1-5.86,6.18c-2.08,1.59-2.7,1.57-3,2.53-.52,1.59.75,2.94,2.85,8.08,1,2.35,1,2.83.79,3-.93.79-5.38-5.36-9.66-4.43-1.32.28-2.16,1.25-3.8,3.17-3.39,4-3.48,6.48-6.5,11.24-2.25,3.57-3.38,5.35-5.07,6-5.29,2.12-10.93-4.61-13.46-2.53-1.52,1.24-1,4.91,0,7.12,1.22,2.72,3,3,3,4.44-.06,2.28-4.59,2.43-9.35,6-2.74,2.07-2.29,2.82-9.18,11.72-4.83,6.24-4.51,5.16-5.55,7-3.55,6.17-1.66,8.78-4.91,16.47a41.54,41.54,0,0,1-5.7,9.51,50.13,50.13,0,0,1-10.14,9.82c-12.37,9.07-19.07,5.76-21.86,11.56-2.49,5.2,2.54,8.56.32,20.12-1,5.23-2.54,7.2-3.33,8.08-2.48,2.76-4.54,2.35-10.61,5.38-5.06,2.53-9.81,4.89-10.14,8.4-.2,2.18,1.52,2.55,3.17,6.81.75,1.92,3.07,7.91.64,11.09-1.6,2.07-3.47.67-10.14,3-4.55,1.59-6,3-7.76,2.21-2.21-1-1.35-3.66-3.81-5.7-3-2.51-7.85-1.43-10-.95-4.93,1.1-5.16,3.14-9.19,4.12a16.38,16.38,0,0,1-12.83-2.38c-5.24-3.75-3.31-8.38-9.66-14.41-1.5-1.42-1-.62-7.45-5.07-9.59-6.65-10.71-8.49-13.62-8.24-3.66.32-6.51,3.61-8.87,6.34-3.33,3.84-2.93,5.79-5.7,7.29-3.86,2.08-7.38-.21-8.72,1.74-.71,1,0,2.12,1.43,7.44,1.72,6.55,1.3,7.57.95,8.08-.92,1.33-2.83,1.39-7.6,1.27-12-.3-14.13-1-17,.63-3.19,1.82-5.6,5.59-4.75,7.76s4.8,1.35,7.44,4.44c1.52,1.77,1.68,3.77,1.9,7.29.25,3.85.89,13.86-3.64,16-2.23,1.05-3.41-.88-7.29.16-2,.55-2.13,1.2-6.18,3.49-3.7,2.09-5.55,3.14-7.92,3.48a15.29,15.29,0,0,1-7.92-1.27c-4.28-1.58-4.55-3.13-10.13-5.86-3.61-1.76-5.46-2.63-7.45-2.21-3.61.76-4.87,4.5-6.65,4s-.8-3.95-3.33-6a6.56,6.56,0,0,0-6.33-1c-2.92,1.22-2.42,4.33-6,9.34-2.08,2.89-3.67,5.1-6.34,5.86-4.22,1.21-8.8-1.87-12.83-4.59-3.28-2.21-3.81-3.37-7.29-5.07a35.15,35.15,0,0,0-6.65-2.38c-4.14-1.07-5-.58-7.6-1.42-2.15-.68-4-2.1-7.76-4.91-6.81-5.16-8-7.17-10.77-7a6,6,0,0,0-4.91,3.17c-.67,1.42-.15,2.39.47,5.86,1.14,6.34.29,8,1.74,9,2.07,1.4,4.69-1.41,6.66,0s1.29,5.29.79,8.55c-.39,2.5-.7,4.53-2.22,6.49-1.8,2.32-3.31,2-4,3.81-.89,2.46,1.57,4.06.79,6.81-.53,1.9-2.22,2.95-3.32,3.64a10.79,10.79,0,0,1-10.78.32c-2.78-1.67-2.53-3.76-4.27-4-2.41-.28-3.77,3.65-9,9.82-4.72,5.53-5.44,4.48-6.65,7.13-2.56,5.58,1.49,8.43-.16,16.47-.95,4.6-2.32,3.93-4.12,10.14-.71,2.44-1.11,6.36-1.9,14.09-.46,4.56-1.57,9.05-1.74,13.63-.1,2.67,0,4.86-1.59,6.17-1.29,1.1-3.1,1-6.65.64a29.23,29.23,0,0,1-8.87-1.74c-4.87-1.91-6.15-4.22-8.24-3.49-1.16.41-1.83,1.75-3.17,4.44-1.69,3.39-2.53,5.09-2.21,7.12.53,3.37,3.65,4.36,3.16,6.5-.26,1.16-1.37,1.76-3.48,2.85-4.83,2.5-7.55,1.66-9.5,4-.89,1-1.08,2.09-1.43,4-1,5.51,1.77,7.67.63,11.25A9,9,0,0,1,622,515c-4.08,1-9.14-1.55-11.73-2.85-1.92-1-2.88-1.71-4.27-1.43-2.19.45-3.84,3.06-4.28,5.39-.41,2.18,1.52,5.36,5.39,11.72.75,1.25,1.55,2.51,2.85,2.69,1.62.24,2.24-1.45,4.12-2.06s3.29.44,10.45,4.76c5.28,3.17,6.05,3.54,6.65,4.91,1.28,2.88,0,6-.95,8.39a17.28,17.28,0,0,1-4.75,6.65c-1.5,1.27-5.71,4.84-9.66,3.81-4.76-1.24-4.61-8-8.24-8.4-3.93-.45-8.9,6.91-7.44,9.66.52,1,1.55.81,4.59,2.54a21.49,21.49,0,0,1,4.28,3c1.3,1.38,2,3.62.31,13.78-2.15,12.79-4.08,13.81-4.91,14.1-2.31.8-3.84-1.42-6.49-.32s-3.71,4.32-4.28,6c-1.49,4.46.16,6.21-1.58,8.39-1.21,1.53-3.08,2-6.81,2.85-3,.71-3.52.32-6.34,1.11-3,.86-3.17,1.52-5.54,2.22-5.24,1.55-8.29-.59-9.19.79s1.35,4.23,5.7,10.14c3.16,4.28,4.52,5.64,5.39,8.71a10.6,10.6,0,0,1,.16,6.66c-.83,2.28-2.41,3.46-5.23,5.54a27.65,27.65,0,0,1-10,4.75c-2.7.63-4.24,1-6.34.63-4.57-.77-6.26-4-8.87-3.32-1.4.39-2.11,1.68-3.16,3.64-2.91,5.44-1,7.74-3.33,12.67a19.39,19.39,0,0,1-6.49,7.45,20.27,20.27,0,0,1-4.28,2.22c-7.2,2.85-13.6,9.37-18.85,14.73-6.24,6.36-5.84,7.63-11.41,12.35-4,3.4-6.35,5.39-10.29,6.81s-6.52,1.2-7,2.7,2,3.12,7,8.07c5.75,5.72,4.39,5.56,7,7.45,4.95,3.63,8.07,2.84,12.67,7.29a7.92,7.92,0,0,1,2.69,4.27c.49,2.6-.87,4.85-1.9,6.5a21.67,21.67,0,0,1-6.65,6.49c-6,4.12-7.5,2.83-11.56,6.34a35.73,35.73,0,0,0-5.87,7c-3.35,4.77-2.45,5.11-4.11,6.49-3.31,2.75-6.18.84-14.58,3.33-3.08.91-4.61,1.37-5.38,2.37-3.27,4.29,2.9,11.93-.16,15-1.73,1.77-5.22.84-5.39.79-3.4-.95-3.09-4-6.33-5.7-1.78-.92-2.23-.19-12.2.79-4.25.42-5.68.44-7.6,1.59-1,.6-3.81,2.26-4.28,4.91-.69,3.9,4,8,8.87,12.19s7.78,5.5,7.45,7.29c-.3,1.6-2.77,1.46-6.66,3.64-6.28,3.54-5.34,7-10.29,9-4.08,1.67-5.36-.41-11.25,1.43-3.18,1-5.71,1.78-7.44,4-3.12,3.9-1.95,10.07,0,20.27.67,3.53,1.33,5.86.79,9.35a20,20,0,0,1-3.17,7.92c-1.77,2.64-2.75,4.08-4.43,4.43-2.59.55-3.86-2.09-9.67-4.91-3.54-1.72-5.8-2.81-7.28-1.9-2.6,1.61-2.07,8.91.95,14.1,2.46,4.23,4.49,3.48,6.33,7.6s.16,5.83,2.22,10.78c1.75,4.2,3.6,4.51,3.49,6.81-.18,3.59-4.91,6.79-9,8.07-8.35,2.6-14.58-2.59-18.06.8-1.33,1.3-.93,2.55-1.58,5.86-1,5-2.79,6.52-12.36,20.43-6.5,9.45-6.37,9.75-8.24,11.41-2.52,2.24-6.88,5.33-11.4,8.55-2.7,1.92-2.59,1.78-2.69,1.9-4.88,5.7,4.92,16.2,1.58,29.3-1.06,4.16-2.65,5.46-3.64,6-.72.4-2.62,1.26-10.46-1.11-6.45-1.94-7.25-3.15-11.72-3.8-3-.43-5.9-.85-8.71.64s-2.64,3.16-5.55,6.81c-4.63,5.83-7,4.27-10.29,9.19-.32.48,0,.11-4.12,10.92-1.27,3.37-1.8,4.73-1.74,6.82.06,2.39.8,2.38,2.22,7.28,1.61,5.61,1.4,8.31,1.1,10a6.45,6.45,0,0,1-.79,2.69c-3,4-14.67.28-19-1.1-6.36-2-7.39-3.41-10.61-2.86-2.36.41-4.64,1.75-9.19,4.44-2.74,1.62-4.11,2.43-4.59,3.17-2.52,3.91,1.45,8.27-1.11,11.72-1.15,1.55-2,.68-4.75,2.85-3.77,2.94-3.37,5.39-6,6.34-1.84.65-2.26-.44-6.81-1-5.39-.61-6.51.73-8.24-.48-3.25-2.27-1.22-8.36-3.48-9.19-1.3-.47-2.55,1.31-6.34,4.28-6.27,4.92-7.63,3.8-9.5,6.49-3.58,5.16.5,10.55-2.69,13.15-2.4,1.94-4.92-.88-11.25.48-4.95,1.06-5.13,3.16-8.71,3.16-3,0-3.08-1.48-10.77-5.22-5.47-2.66-4.21-1.31-11.09-4.44-2.4-1.09-3.5-1.68-5.07-1.42s-2.93,1.16-6.18,5.86c-4.41,6.37-3.85,7.73-6.49,9.82a16.3,16.3,0,0,1-8.4,3c-5.57.75-6.49-1.28-10.93-.48s-7.59,3.68-10.45,6.34-5.41,5-6.66,8.87c-2.35,7.22,2.45,12.16-.31,15-2.43,2.53-6.43-1-11.25,2.21a41,41,0,0,0-6,5.55c-1.36,1.51-2.16,2.59-3.64,2.85-2.37.41-4.49-1.64-4.59-1.74-3.09-3.06,0-7-3-11.41-.43-.63-2.4-3.35-5.55-3.64-.66-.06-2.72-.25-4,1-2.71,2.64,2.3,8.3.64,16.79-.57,2.88-1.13,2.18-2.22,6.49-1.29,5.11-.9,7.71-2.85,11.09-1,1.76-1.68,3.07-3.17,3.8-3.09,1.52-7.46-.38-10.14-2.69-4.72-4.07-2.82-8.27-8.39-14.25-1.81-1.94-3.49-3.7-6-4-2-.21-4.32,1.07-9,3.64-3.2,1.74-3.53,2.18-3.65,2.69-.52,2.29,3.76,3.36,6,7.76,2.36,4.58,1.34,10.43-1,14.1a17.1,17.1,0,0,1-3.8,4.12c-4.09,3.43-6.91,3.36-7.6,5.7-.43,1.46.45,2.23,1.74,5.7a44,44,0,0,1,2.06,8.4c1.71,7.43,14.3,10.08,25.19,20.27,9.88,9.26,7.32,14.39,19,23.45,4.52,3.5,5.73,3.38,10.62,7.6,5.89,5.09,6.89,7.67,15,16,6.65,6.78,6.69,5.8,9,8.87,4.17,5.46,4.81,9.58,7.92,20.27a231.55,231.55,0,0,0,10.3,29.47,145.43,145.43,0,0,0,8.24,15.68c11.56,19.91,13.71,33.8,28.67,72.23,3.59,9.24,1,2.11,19,45.46,13.74,33.09,10.84,26.63,19.33,46.89,0,0,10.63,25.36,16.95,41.65,5.9,15.22,4.48,13.89,6,16.16.86,1.28,2.45,3.38,2.06,5.86s-2.6,3.24-3,6c-.23,1.57.06,4.1,1.58,5.39,3.32,2.81,9-3.18,14.57-.64,2.58,1.18,1.61,2.59,6.18,7.29,3,3.06,5.66,4.8,10,7.6,3.59,2.33,5.43,3.5,7.92,4.12,2.65.66,3.41.19,4.44,1.11,2,1.79.37,4.68,1.58,10.61.58,2.83.94,4.63,2.38,6.18,2.5,2.71,5.59,1.75,10.13,3.17,5.66,1.76,9.06,5.8,11.25,8.39,4.18,5,5.21,9.94,6.65,15.69,6.47,25.72,11.11,26.15,12.67,43.08.76,8.14-.2,9.28,1.27,15.21,2.32,9.35,5.72,10.59,8.56,21.7,1.37,5.4,1.14,7.34,3.16,8.87,3.48,2.63,8.08-.11,17-2.06,2.52-.55,9.86-1,24.55-1.74,16.28-.88,17.55-.46,21.23-2.22,3-1.45,5.76-3.46,8.55-2.38,3.63,1.4,4.48,6.89,4.6,7.61.91,5.86-2.59,10.6-3.65,12-2.95,4-4.4,2.87-7,6.34-4.49,6.07-2,12.2-5.7,13.94-2.73,1.29-5.56-1.41-6.81,0s1.68,4.75,1.58,11.09c0,2.21-.06,4-1.26,4.91-2.45,1.78-6.64-2.55-9-.95-1.19.79-1,2.4-.95,10.45,0,7.57-.2,8.9-.95,10.46-1.54,3.18-3.35,3.11-4.6,5.86-1.52,3.35-.18,6.41,1.11,11.08,1.12,4,3.95,14.27,2.22,24.08-.87,5-1.85,3.8-3.33,10.3s-3.63,16,.95,20.75c1.46,1.49,1.79.64,11.73,4.59,6.42,2.56,8,3.61,8.39,5.23.23,1-.08,1.78-3.33,7.13-3.75,6.19-4.43,6.91-4.11,8.08.9,3.36,7.9,2.39,9,6,.85,2.77-2.8,4.73-1.91,8.72.54,2.4,2.08,2.62,2.06,4.59,0,.53-.12,2.59-5.07,6.34-5.25,4-7.31,3.33-8.23,5.38-1.77,4,3.33,12.12,9.82,13.47,2.7.55,4.84-.23,9.82-2.38,14.6-6.3,17.08-7.08,18.37-8.55,2.64-3,2.19-4.5,4.6-5.71,4-2,6.63,1.45,12.35.32,1.86-.37,1.4-.7,10.14-5.7,6.46-3.7,7.86-4.18,9.5-4.44a18.68,18.68,0,0,1,9,1,19.39,19.39,0,0,1,7.29,4.75c4.83,5.41,4.21,13.9,3.33,25.82-.48,6.45-1.47,12.68,1.42,16a16.43,16.43,0,0,0,5.07,4c2,.9,2.56.51,3.33,1.27,2.37,2.34-1.64,7.33.47,10.14,1.61,2.13,6,2,10.14,1.9,3-.08,4.12-.57,5.38.31.63.45,1.57,1.41,2.38,6.82.84,5.61,0,5.82.79,7,2.53,3.77,12.64,3.42,20,.79,2.41-.87,3.88-1.76,5.7-1.11,3,1.07,3,4.93,5.39,9,3.27,5.66,6.49,3.9,12.51,10s3.71,9,10.77,17.58a31,31,0,0,1,4.44,7.92c1.38,3.6,1.08,4.86.79,5.54-1.09,2.57-4.47,2.74-4.43,4.28,0,1.31,2.47,1.48,3.48,3.8.59,1.37.24,2.48.16,3.64-.27,3.79,2.34,7.8,4.43,9.35,3.46,2.57,7-.47,18.38-1.27,6-.42,11.34-.73,12.83,1.9,1.6,2.84-2.83,6.22-1.11,10.62,1.06,2.69,3.15,2.51,5.39,6,1.53,2.39,1.77,4.39,2.37,7.76.73,4.09-.68-4.72,4.28,18.53,1.5,7,1.75,8.43,2.85,10.93,2.71,6.17,5.92,8.56,6.81,9.19a17.63,17.63,0,0,0,6.34,2.69c10.95,2.78,20.72,11.66,25.5,16,7.16,6.5,7.79,9.67,13.15,11.09,3.32.88,5.72.36,9.5,2.37,1.38.74,5.23,2.79,7.13,6.81,3.19,6.78-2.27,12.61,1.27,17.27.62.82,1,.92,5.86,3.17,9,4.17,13.54,6.29,15.36,7.92,4.52,4,1.85,5.87,6.81,12.19,6,7.66,11.07,6.44,13.78,13,1.84,4.44.28,6.84,3,10,1.79,2.05,3.67,2.42,8.71,4.12,7.3,2.45,12.81,4.83,14.74,5.7,8,3.62,7.08,4.9,13.3,7.29a48.06,48.06,0,0,0,15.68,3c6.46.15,8.59-1.12,17.59-2.38,4-.55,8.71-.79,18.21-1.26,17.69-.89,26.54-1.33,29.94-1,8.54.94,15,2.9,17.9-.63,1.71-2.06,1.08-4.64,3.8-7.29,1.88-1.83,4-2.37,6.65-3,6.72-1.62,9.06.42,19.64,0,2.92-.12,3.3-.3,4,.15,4.26,2.9-2.45,16,2.86,20.6a13.46,13.46,0,0,0,3.64,1.9c4.18,1.68,5.52.63,7.28,1.9,2.3,1.65,1.31,4.32,3.17,9.82a26.51,26.51,0,0,0,3.8,7.44c4.16,5.17,8.55,2.7,19.33,7.61,7.32,3.32,9.34,6.3,13.62,5.38,1.89-.41,3.27-1.37,7.45-2.22,3-.6,4.49-.91,6-.63,4,.74,4.79,4,8.71,6,3.49,1.81,6.87,1.27,10,.95,16.28-1.68,21.23,3,44.35.63,11.1-1.12,14.1-1.58,14.1-1.58,11-1.68,13.72-3.17,17.26-1.27s2,4.31,8.4,10.93c2.62,2.73,2.17,1.58,8.71,7.45,3.83,3.43,5.08,4.82,6.49,4.43,1.64-.45,1.43-2.73,3.81-7.6,2.19-4.5,3.25-4.36,4.59-7.76a18.17,18.17,0,0,0,1.27-9.82c-.84-4.61-3.3-5.25-5.23-11.73a32,32,0,0,1-1.11-5.38c-1-9,2.87-11.11,1.43-16.79-1.28-5-4.69-4.67-6.34-10.93-.53-2-1.46-5.54,0-9,.66-1.59,2.18-4,12.83-9,6.34-3,6.21-2.32,10.45-4.43,4.59-2.29,10.39-5.25,15.37-11.25a37.49,37.49,0,0,0,6.18-10.77c1.23-3.15,3.87-9.9,2.85-18.06-1.13-9-5.5-9.91-4.28-15.68,1-4.85,5.32-9.89,10.14-12.36,2.7-1.38,3.68-1,5.07-2.53,3.56-4,1.79-11.72,1.42-13.31-.84-3.68-1.91-4.46-1.42-6.65.65-3,3-3.42,5.07-6.18,4.2-5.71,1.59-14.05,1.42-14.57-1.51-4.6-4.67-7.2-10-11.56-7.4-6.09-11.14-6.34-11.88-10.14-.68-3.54,1.84-7.11,3.65-9.66,2.13-3,3.45-3.29,6.81-7a64.32,64.32,0,0,0,5.86-7.92c6.49-9.61,6-10.93,9.34-13.78,2.19-1.85,5.71-4.84,10.14-4.6s5.41,3.42,11.09,3.81a20.35,20.35,0,0,0,7.13-1,35.16,35.16,0,0,0,7.44-3.49c2.62-1.45,3.93-2.17,4.91-3.17,2.15-2.18,1.46-3.2,3.49-6.17,2.22-3.26,3.57-2.8,7.12-7.13,2.26-2.74,1.83-3.06,2.86-3.65,4.48-2.54,11,4.46,13.62,2.38,1.3-1,.94-3.65.32-8.24-.72-5.24-2-6.93-1-8.71,1.24-2,3.58-.92,6.18-2.53,3.56-2.21,2.78-6.43,5.23-17.27,1.86-8.24,3-9,3.33-14.57a32.83,32.83,0,0,0-.8-10.14c-2-7.78-6.93-13.62-9.82-16.95-4-4.65-6.78-6.32-6.33-9,.47-2.87,3.92-3.1,4.59-6.33.83-4-3.48-8-4.59-9-3.77-3.5-7.78-4.43-10.93-5.39-2.12-.64-18.73-5.92-26.93-18.37-1.66-2.52-4.13-6.4-3.49-11.09.47-3.32,2.32-5.8,4.92-9.19a58,58,0,0,1,7.44-7.92c11-10.22,8-15.23,15-18.69,5.15-2.54,6.6.22,19.16-3.17,4.13-1.11,4.59-1.57,7.29-1.9,4.6-.55,6.38.43,15.68,1.43,0,0,3.85.41,9.19.63,7.87.33,9.75-.16,11.25-1.26,2.1-1.57,1.44-2.9,3.64-6.66,2.31-4,5.18-6.12,10.93-10.45,4.29-3.24,6.44-4.84,9.19-6,8.34-3.58,12.92-.62,16.47-3.33,4.73-3.6-2.32-10.39.63-23.44.68-3,3.2-8.71,8.24-20.12,2.55-5.76,2.61-5.56,3.33-7.6,3.59-10.19,2-15,5.54-17.11,3.06-1.81,8.35-.74,9.66-.47,2.34.47,3.25,1.12,4.91.79,1.87-.38,3.18-1.69,5.71-5.39,4.56-6.67,6.84-10,8.87-14.73.65-1.52,1.14-2.83,2.53-3.8,1.57-1.09,3.24-1,7.92-.79,7.56.33,6.92.26,7.45.32a69.53,69.53,0,0,1,13.3,2.69c8.39,2.59,9.3,4.63,16.63,6a61.8,61.8,0,0,0,7.29.79c9.64.71,14.47,1.07,17.74-.48,4-1.88,4.9-4.5,11.4-7.12a21.38,21.38,0,0,1,3.17-1.11c5.47-1.11,9.37,2.15,12,2.85,6.33,1.65,9.33-9,21.86-19,4.28-3.44,15.42-12.13,29.62-11.72,1.57,0,1.88.16,8.24,1.27,37.42,6.49,37.69,4.3,44.51,7.92,2.74,1.45,6.47,3.81,11.56,3.48,4.25-.27,4.7-2.11,9.66-3,5.47-1,10.09.31,15.21,1.74,5.3,1.49,5.5,2.39,11.4,4,5.51,1.47,8.26,2.2,10.62,1.59,6.09-1.59,5.06-7.89,11.72-11.88,5.57-3.34,8,0,18.37-3.33,5.48-1.77,4.64-2.67,11.09-5.07,9.45-3.51,10.91-1.47,19.33-4.75,6.44-2.51,6.89-4.22,13.46-6.18a53.9,53.9,0,0,1,11.09-1.9c17.3-1.39,22.62,4.14,29.3-.31,2.75-1.84,3.28-3.73,8.4-7a30,30,0,0,1,7.6-3.81c8.9-2.66,12.41,3.12,19.17.32,4.73-2,5-5.64,10-6.18,2.91-.31,4,.84,6.81,0a12.38,12.38,0,0,0,6.49-5.22c3.27-5,.83-8,3.49-10.77s6-.72,12.51-2.54c5.43-1.5,5.39-3.53,11.56-6.65,8.61-4.35,10.72-1.45,20.75-5.55,5.9-2.4,3.87-2.88,14.1-8.07,7.23-3.68,10.76-4.72,15.21-8.87,2.71-2.54,4.85-4.54,5.86-7.92.81-2.74.34-4.56,1.74-5.55,1.69-1.19,3.77.44,7.45.79,2.09.2,2.87-.18,9.18-1.9,10.2-2.77,10.84-2.49,16.48-4.43,2.54-.88,4.08-1.51,7-2.7,8.62-3.54,9.61-4.72,10.13-5.7,1.55-2.87-.72-4.22.32-8.71,1.17-5,5.16-8.2,6.81-9.5,3.54-2.8,5-2.2,10.3-5.07a51.3,51.3,0,0,0,9.82-7.29c8.12-7.11,7.49-9.46,12.51-12,5.34-2.73,6-.07,12.52-2.85,3.14-1.35,7-4.54,14.57-10.93,3.57-3,5.38-4.51,6.33-5.7,3.83-4.74,3.17-7.33,7-11.56,1.64-1.82,5.2-5.79,8.56-5.07,2.28.49,2.42,2.7,7.13,8.39,2.81,3.41,5.2,6.24,7.12,5.71.83-.24,1.36-1.38,2.38-3.65a35.54,35.54,0,0,0,2.85-9.66c.24-1.82.23-2.73.32-4.28.3-5,.58-9.86,2.37-13,2.23-3.88,5.25-2.47,19.64-8.87,5.14-2.28,5.8-2.92,9.19-4,3.61-1.1,4.93-1,12.83-2.69,6.44-1.38,8.13-2,9.82-3.48.7-.61,4-3.52,3.49-6.66-.45-2.73-3.32-2.63-6.18-6.81a19.23,19.23,0,0,1-2.85-7.44c-.68-3.26-1.16-5.52,0-7.61s2.92-1.8,4-3.8c1.24-2.38.54-6.25-1.58-8.39-3.71-3.74-9.56,0-13-3.65-1.64-1.72-.89-3.16-1.9-7.76-.32-1.43-2.11-9.06-7-14.09-3.67-3.8-8-5-15-7-5.07-1.42-9.88-3.8-15-4.76-.87-.16-3-.52-3.33-1.74-.24-.82.28-2.11,3.65-4.75,5.4-4.24,8.24-4.2,13.46-7.6,4.09-2.67,6.26-4.08,7.6-7,1.92-4.11-.11-6.29,2.22-11.73,1.43-3.32,3-4.33,2.38-5.86-.86-2.21-4.54-1.23-7.29-4.27a9.9,9.9,0,0,1-2.22-5.86c-.31-3.3.89-5.3,2.38-9.51a79.79,79.79,0,0,0,2.69-10c1.35-6.73,2.84-14.21-1-18.53-1.19-1.36-2.71-2.18-2.53-3.48,0-.31.29-1.45,4.91-3.33,4.88-2,6.38-1.45,7.44-3,1.32-1.94.4-4.87-.16-6.65-.77-2.46-1.57-2.63-2.21-4.44-1.37-3.85.39-8.41,2.37-11.09,3.25-4.38,6.18-2.52,8.4-6.17,1.64-2.71,1.41-6.77,1-14.89a19.55,19.55,0,0,1,.47-5.55c.47-2,.86-3.69,2.22-4.75,1.91-1.49,3.73-.18,5.86-1.11.8-.34,3-1.58,4.28-9.19,1-5.69.35-8.28.47-17.26s.81-10.7,2.22-11.56c2.42-1.49,5.06,1.07,8.08-.8,1.92-1.18,1.33-2.5,4-5.22a12.63,12.63,0,0,1,5.7-3.8c4.12-1.12,5.88,1.66,8.56.31s1.49-4.63,4.75-7c2-1.41,2.77-.47,7.13-2.22a21,21,0,0,0,5.54-3c2.73-2.17,2.36-3.35,5.54-7,2.62-3,4.36-5,7.13-5.55s3.81.86,6.65.16,3.61-2.45,5.55-4c4.27-3.34,7.22-.27,20.59-1.43,6.26-.54,8.5-1.46,11.56.16,2,1,3.37,2.66,5.55,2.38,1.59-.21,2.64-1.3,4.12-2.85a20.51,20.51,0,0,0,4.27-6.81c1.56-4.06.4-4.49,1.9-7.45s3-3.14,4.12-6a13,13,0,0,0,.64-5.7c-.81-16-.59-15.63-1.11-19-.26-1.64-.92-5.6-2.22-10.61-.81-3.11-1.65-5.78-2.38-7.92,17-.06,29.37-.27,29.47-.32l.17-.1.07,0a14.75,14.75,0,0,0,5.77-5.56,10.37,10.37,0,0,0,1.11-4.28c0-1.57-.32-3.3-5.22-10.45-2.84-4.14-4.25-6.2-5.86-7.76-2.85-2.76-3.94-2.71-4.76-4.6-1.26-2.9,0-6.13,1.27-9.66,1.93-5.16,3.44-5.25,3.33-7.6-.08-1.58-.82-2.92-7.45-9.35-5.49-5.32-7.13-6.5-6.81-8.08.51-2.45,5-2.07,7.13-6.17.69-1.32.77-2.46.95-4.76.23-3,.56-7.39-1.9-10.61-1.8-2.35-3.1-1.49-5.7-4.27-1.09-1.17-3.65-3.9-3.49-7.29.2-4.07,4.24-7.35,7.76-8.4,5.36-1.58,11.18,1.52,12.2,2.06,2.16,1.15,3.83,2.58,4.44,2.06s-1.14-2.58-1.11-5.86a10.63,10.63,0,0,1,2.53-6.49c.55-.65,1.69-1.83,6.5-3.8,3.92-1.62,5.27-1.69,8.55-2.86,7-2.48,6.4-4.12,9.5-4.43,7.06-.7,10.84,7.7,15,6,2.51-1,1.31-4.07,5.54-8.56,2-2.14,2.32-1.46,6.82-5.22,4.11-3.45,4.39-4.46,6.49-5.07,3.13-.91,4.51.76,7.45.32,5.21-.79,8.1-6.85,8.39-7.45,2.51-5.25-.68-7,1.58-14.1.68-2.12.69-1.12,4.76-9.82,2.31-4.95,2.37-5.41,3.32-6.33,3.86-3.72,8.24-1.29,10.46-4.44,1.14-1.62.86-4.36.31-9.82-.32-3.23-.72-3.94-.47-6,.22-1.87.65-5.46,3-6.81,2.87-1.65,5.88,1.61,9.5-.32a6.53,6.53,0,0,0,2.38-2.21c2.38-3.73-1.07-7.14.47-11.25,1.19-3.16,3.71-2.41,6.66-6.18,2.61-3.33,3-7,3.48-11.4.87-8.47-1.65-8.81-.79-16a69.31,69.31,0,0,1,3.8-14.26,44.8,44.8,0,0,0,1.58-9c.3-3,.44-4.51,0-6.49a15.81,15.81,0,0,0-4.11-7.45c-4-4.16-6.57-2.72-8.24-5.54-2.12-3.59,1.57-6.84,1.74-15,.06-2.9-.54-5.47-1.74-10.61-2.53-10.81-5.17-12.91-4.12-18.38.72-3.75,2.44-5.2,1.43-6.81-1.53-2.4-6.08-.19-11.25-3.32-.81-.49-4.29-2.6-4.12-5.07s3.74-2.47,4.75-5.55c.91-2.74-1.57-3.85-2.06-9.34-.33-3.75.7-4.65-.31-6-1.67-2.27-4.89-.35-8.87-2.53-2.91-1.6-5.44-5-5.23-8.08.17-2.4,1.81-2.47,2.85-5.86a13.24,13.24,0,0,0-.32-8.56,13.61,13.61,0,0,0-5.22-6.17c-2.29-1.61-3.52-1.61-8.4-3.49-5.65-2.18-4.76-2.49-7.6-3.33-4.66-1.38-8.94-1.12-14.57-.79-4.34.26-5.61.7-8.24,0a19,19,0,0,1-6.65-3.48,30.23,30.23,0,0,1-6.34-6.5,33.42,33.42,0,0,1-4.75-7.6c-1.84-4.52-.47-6.35,0-17.9.34-8.51.52-12.76-.16-15.68-.77-3.33-1.88-5.77-.79-8.87.55-1.57,1.85-3.07,4.43-6,4-4.51,4.33-4.13,5.39-5.86,1.87-3,3.09-8.12,1.11-11.88-1.69-3.21-4.34-2.87-8.87-6.5-3.41-2.72-4.5-5-7.45-9.18-10.07-14.35-14-11.64-18.05-20.91-1.53-3.46-3-8.38-7.45-13.31a14,14,0,0,0-4.12-3.32c-3.45-1.77-6.22-1.13-10.77-.95-10.58.4-11.9-2.41-17-.32-1.13.47-1.17.65-7.28,5.7-9.7,8-11.21,8.87-13,8.55-2.39-.42-2.34-2.43-7-7.6-3.92-4.36-4.72-3.77-10.46-9.34-5.27-5.12-7.9-7.68-8.87-10.77-1.79-5.76,1.24-8.89-1.42-12-2-2.41-4.25-1.11-8.4-4.28a16.48,16.48,0,0,1-5.07-6.18,18.94,18.94,0,0,1-1.26-10c.34-4.25,1.4-4.85,1.1-7-.57-4.1-5.46-3.4-10-9-2.8-3.48-2.3-5.21-4.6-6.17-3.06-1.29-5,1.34-9,.31-2.15-.55-3.49-1.84-6.17-4.43-5-4.8-4.13-6.59-7-8.08-4.11-2.16-6.42,1.29-12-.63a15.14,15.14,0,0,1-7.76-6.34c-2.12-3.7-.4-5.17-2.22-8.24-2.69-4.52-9.07-5.76-13.62-6.65-6.68-1.3-9.94-.13-10.93-2.06-1.33-2.57,3.91-5.72,3.48-11.24-.08-1-.4-3-4.12-7.45-3.24-3.91-6.43-6.55-14.41-12.35-9.63-7-10.37-7.07-12.52-9.67-3.86-4.67-3.54-7-6.65-8.39-5.48-2.53-10.54,2.71-13.78,0-2.29-1.92-2.26-6.63-1.42-9.51.93-3.2,3-4.68,2.69-7.92a5.69,5.69,0,0,0-1.11-3.16c-2.45-2.93-7.86-.34-17.27-.32-5.34,0-8.54,0-12.19-1.74-3.84-1.85-6.15-4.82-10.77-10.77-3.44-4.42-5.15-6.62-6-9.35-1.48-4.62-.44-7.29-3-10a10.76,10.76,0,0,0-5.55-2.85c-1.88-.41-4.38-1-5.86.32-2,1.7.33,4.52-1.42,9.5a13.13,13.13,0,0,1-4.6,6.34c-1.28.9-1.48.6-3.8,1.9a31.62,31.62,0,0,0-5.7,4.12c-2.6,2.28-3.9,3.42-4.75,5.22-1.25,2.65-.3,3.62-1.43,4.91-2,2.34-7.26,1.59-10.61-.16a13.48,13.48,0,0,1-6-6.65c-.45-1-2.47-5.56-.63-9.82,1.35-3.13,3.45-3,3.64-5.07.27-3-4.2-3.58-9-10-2.82-3.73-2.19-4.71-5.23-7.92-2.08-2.2-3.66-3.09-3.64-4.75,0-2.66,4.16-4,3.8-5.07s-5.72.85-11.72-.79c-3.6-1-8.39-3.55-8.39-6.49,0-1.78,1.73-3.1,4.75-5.39,5.33-4,7.49-3.42,8.55-5.7.29-.64.58-1.65-3.48-11.88-2.75-6.91-3.14-7.11-3.65-9.66s-.45-3.89-1.58-6A13.92,13.92,0,0,0,1836,271c-4-2.77-6.17-1.29-9.66-3.32-4.27-2.48-7-8.2-5.54-10.46.56-.88,1.44-.72,11.08-1.74a15.57,15.57,0,0,0,7.29-2.22c1.15-.73,2.47-1.61,2.53-2.85.09-1.64-2.11-2.48-4.91-4.91-2.33-2-6-5.22-5.7-8.08.43-3.76,7.56-4.25,7.6-7.28,0-2.08-3.28-3.75-8.39-6.34-3.55-1.79-4.35-1.71-8.87-4-3.4-1.69-5.1-2.53-6.81-4a30.92,30.92,0,0,1-5.7-6.81c-3.1-4.49-3.47-6.33-5.07-6.49-.52-.06-1.38,0-4.91,3.8-3,3.21-4,4.83-6.81,7.76-2.36,2.44-3.57,3.66-5.07,4-2.14.42-2.73-.81-6.66-1.43s-5,.43-6.65-.63-1.37-2.72-3-7.13c-1.39-3.72-3-8.17-6.33-9.19-1.16-.35-1.4.06-5.39.8-4.47.82-4.68.41-10.45,1.26-4.34.65-7.17,1.32-8.24,1.59-5.73,1.41-7.38,2.5-8.08,3-1.32.95-.89,1-4.12,4.27-4,4.13-4.71,4.05-5.86,6-1.77,3.05-1.1,4.8-2.38,5.39-2.09,1-6.18-2.7-8.71-6.18-1-1.32-3.27-4.79-5.54-18.53-1.15-7-1.72-10.54-1.27-14.42a42.17,42.17,0,0,1,3.49-12.19c2.73-5.94,4.44-6,4.75-9.19.37-3.84-1.87-6.94-6.34-13.15-3.65-5.07-5.48-7.6-8.08-8.55-5.78-2.11-8.79,3.16-14.57,1.43-4.13-1.24-3.28-4.14-11.4-11.57-3.47-3.17-6.27-5.68-10.77-7.28a23.25,23.25,0,0,0-10-1.43c-4.92.42-6.2,2.27-13.31,3.33-3.32.49-5,.72-6.65,0-3.33-1.48-3.23-4.71-6.18-8.72-4.31-5.84-8-3.69-10.93-8.23-3.79-5.9,2-10.24-1.43-19.17-1.89-4.9-4.22-5.09-6-11.09a28.64,28.64,0,0,1-1.11-10.29c.56-7.56,3.74-8.62,3.8-14.89a22.89,22.89,0,0,0-3.49-11.72c-2.7-4.79-4.54-4.65-10.45-10.93a83.59,83.59,0,0,1-12.36-16C1580.83,9,1580,6.56,1577,4.91c-2.49-1.33-3.82-.71-8.71-2.85C1565.05.66,1564.84.05,1563.2,0Z"/></g></g></svg>