<svg xmlns="http://www.w3.org/2000/svg" viewBox="0 0 2273.76 2328.48"><g id="Layer_2" data-name="Layer 2"><g id="Liberia"><path d="M1.13,905.49c-.42-.74-1.67-2.93-.86-4.17.58-.88,1.94-.83,5.17-.71,7.87.28,8.14.28,8.76.14,3.41-.8,2.63-2.65,7.32-4.88a20,20,0,0,1,9.76-2.3c2.66.13,3.89.83,4.74,0,.28-.28.94-1.14-.72-7.18-1.24-4.54-1.87-5-1.87-6.89,0-.6.08-2.86,2.88-7,2.11-3.15,3.86-4.53,8.32-8.61,8-7.35,6.53-6.68,9.34-8.76,3.86-2.85,6.28-3.79,9.47-7.46a18.49,18.49,0,0,0,3-4.17c2-4,1.08-7.15.28-18.81-.36-5.35-.3-6.42.58-7.32,1.84-1.9,4.65-.32,11.05-2.15,3.87-1.11,4.86-2.26,5.32-3,1-1.58.65-3.23.28-5.6-1.78-11.48-.83-11.65-2.29-14.21-2.58-4.53-5.31-3.6-6-6.75-.48-2.05.54-3.09,7.89-14.5,2.75-4.26,3.63-5.7,5.6-7.75,3.29-3.42,4.25-3,5.6-5.17,2.89-4.75-.45-8.57,2.44-11.92,1.94-2.24,5.26-2.62,7.47-2.87,3.93-.44,4.55.91,6.89.43,4.67-1,4.37-6.82,10.77-13.64,2.56-2.73,5.29-4.35,10.77-7.61s8.4-4.12,10.19-3c1,.64,1.36,1.72,2.73,2,1.63.35,3.13-.77,3.87-1.3,1.65-1.15,4.93-2.44,11.49-5,6.9-2.71,8.1-1.46,9.62-3.45s.43-3.58.72-11.77c.27-7.88,1.43-9.6,2-10.34,1.06-1.34,2.86-2.28,6.46-4.16,5.28-2.76,5.91-2.19,7.46-3.73,2.1-2.08,1.84-4,3.59-9.77a53,53,0,0,1,3.59-9.33c2.4-4.45,5.7-7.05,12.21-12.06a82.72,82.72,0,0,1,11.91-8c10.23-5.55,12.77-3.75,18.53-8.47,4.42-3.63,2.84-4.63,9.33-10.91A91.71,91.71,0,0,1,258.27,614c6-4.29,7.42-4.59,10.77-7,5.93-4.32,5.53-6.26,13.5-15.07,1-1.09,11.93-13,21.1-15.08,1.35-.3,4.05-.86,5.89.58s1.59,3.88,2.58,4c1.3.17,1.49-4,4.46-6.46,3.67-3.1,7.68-.36,12.49-3.16,2.89-1.69,2.47-3.28,5.45-6.75,6.4-7.45,11.79-4.12,20-11.77,2.45-2.3,2.59-3.18,8.47-9.19a50.42,50.42,0,0,0,4.59-4.88c3.67-4.81,3-6.75,5.6-8.47,2.84-1.84,4.65-.28,7.9-2.45a12.06,12.06,0,0,0,3.73-4.3c3.36-5.6,3.31-9.21,5.32-14.79a39.66,39.66,0,0,1,6.6-11.92c3.9-4.73,5.93-4.58,11.06-9.9,3.69-3.85,2.85-4.16,7.6-10,7.61-9.44,10.26-9.25,13.93-15.94,2.77-5.05,1.71-6,4.6-9.91,2.51-3.45,5.3-5.36,10.76-9a103.58,103.58,0,0,1,13.79-7.76c7-3.28,10.45-4.92,13.49-5,6-.21,9.66,2.51,12.64.29,1.77-1.33,2.27-3.64,2.44-5.17q.13-73,.29-146c2.38-.5,5.87-1.31,10.05-2.58,5.62-1.72,7-2.61,7.61-3,3.65-2.52,3.87-5.44,6.46-10.05,5.22-9.3,10.17-7.8,15.22-17.23,1.81-3.39.94-3.15,4-9.76,3.16-6.81,4.81-10.25,8-12.35,1.57-1,1.07-.22,10.05-3.16,3.86-1.26,4.73-1.67,8.9-3,2.86-.93,6-1.93,8-2.44,6.73-1.68,12.56-.74,18.52.28,12.35,2.12,13.06,5.31,17.66,3.88,7.23-2.25,8.76-11.15,13.21-10.48,3.42.51,3.68,5.95,7.61,6.46,2.56.34,4.77-1.68,8.18-4.88,3.69-3.46,3.77-4.65,8.62-10.34,6.34-7.45,8.8-8.46,10.76-8.76s2.71.2,4.17-.57c3.64-2,3.94-7.83,4-9.33.21-4.1-1-7.19-2.44-10.77-2.22-5.5-3.29-5.1-5-9.76-.78-2.12-1.29-5.58-2.3-12.5-.81-5.6-.83-7.06,0-8.61,1.46-2.71,3.76-2.46,6-4.45,3-2.59,2.47-6,2.88-21,.23-8.54.54-12.92,1.86-18.24A32.56,32.56,0,0,1,662,88.83c3-5.9,5.46-5.45,7-9.62,1.66-4.39-.91-5.22.29-13.93.46-3.33,1.39-7.25,1.58-8,1.21-5.07,1.66-5.26,1.72-7.18.13-4-1.81-5.11-3.3-10.19-.75-2.57-2.85-9.73,0-12.35.88-.8,2.4-1.34,14.07,1.58,9.67,2.43,9.93,3.13,12.78,3,5.52-.21,9.53-3,15.22-7,7-4.95,7.67-7.65,14.21-10.77a40.61,40.61,0,0,1,8.62-2.87,53.46,53.46,0,0,1,20.53-1c6,1,4.84,2,11.77,3.16,7.18,1.2,10,.36,14.5,2.87a49.67,49.67,0,0,1,6.17,4.31,26.86,26.86,0,0,1,4.74,4.16,16.38,16.38,0,0,1,3.16,10.62c-.16,2.39-1,4.32-2.73,8.19-2.72,6.13-4.31,7-4.3,10.19,0,.75.1,4.59,2.72,6.75,2.81,2.3,6.9,1.38,13.21-.14,5.66-1.37,5.89-2.28,12.21-4,7.84-2.17,8.49-1,11.77-2.88,5-2.77,3.8-5.54,9.48-10.76,4.73-4.36,5.87-2.75,14.07-8.76,5.34-3.92,5.64-5.18,9.19-6.61,1.74-.69,3.34-1.06,11.91-1.58,11.92-.71,11-.12,14.22-.71,8.48-1.54,10.88-4.73,14.07-2.88a20,20,0,0,1,6.31,6.32c.5.81,1,1.84,1.87,1.87,1.47.05,2.82-3.05,3.3-4.16,1.15-2.63.88-3.8,2-4.6,1-.68,2-.38,3.59-.29s1.47-.14,9.62-1.86c4.73-1,5.66-1.11,6.46-2.16,1-1.31.68-2.62.86-4.73a17.89,17.89,0,0,1,3.88-9.34C940,2,942.25.34,954.61.1c11.57-.22,18.95-.37,20.25,3,.88,2.29-1.34,5.41-3.3,8.18-3.26,4.58-5.61,4.61-6.61,7.47s.78,4.15,4,12.06c3.94,9.58,5.91,14.37,7,18.52.56,2.06,1,4.15,2.72,4.88,2.28,1,6-.8,7.9-3.59,2.69-4-.63-7.19,1.15-15.51.62-2.9,1.52-6.86,4.59-8.47,2.15-1.12,3.13.07,6.32-.72,5.46-1.34,7.11-5.92,9-5.16,1.47.57.7,3.31,2.44,9.18,1.18,4,1.78,6,3.44,7.18,1.34.94,2.32.75,10.91,1.44,3.12.25,3.69.33,4.31.86,2.37,2,1.45,7.37,0,10.91-1.84,4.51-5.09,7.47-11.48,13.21-4,3.6-7,5.75-6.46,8,.17.78.74,1.54,2.58,2.59,8.13,4.61,18.19,1.78,20.67,1a16.43,16.43,0,0,0,5.89-2.73c3.66-2.86,3.36-5.65,5.74-6.46,1.72-.58,3,.47,10.49,5.46,7.86,5.27,8.67,5.65,10,7.46,3.31,4.38,1.6,6.19,4.3,8.91,1.2,1.2,3.41,2.73,18.09,3.3,8.51.33,10.14-.1,13.07,1.43,3.54,1.86,7.76,5.94,7.32,10-.32,3.08-3.23,5.22-9,9.48-2.72,2-7.5,5.14-9.91,9.62a2.76,2.76,0,0,0-.43,2.15c.7,2,4.92,1.06,7.89,3.45,1.88,1.5,2.37,3.63,3,6.46,1.45,6.3-1.25,8.18.43,13.21,1.38,4.13,3.72,4.43,3.3,6.75-.51,2.86-4.19,3-8.76,8.32-1.59,1.87-3.07,3.65-2.58,5.32.65,2.18,4,1.74,4.88,3.87s-2,4.29-4.88,9.77c-2.17,4.15-4,7.67-3,11.19,1.29,4.61,6.77,6.82,9.47,7.9,3.57,1.44,6.9,1.69,11.06,2,6.61.51,7.24-.45,8.47.58,4.58,3.81-3.17,17.89,1.43,21.24,1.85,1.35,4.08-.19,5.89,1.73,2.14,2.27,1,6.56.86,7.18-1.08,4-3.57,4.09-3.73,6.89-.09,1.55,1.42,3.73,4.45,8,2.87,4.08,3.21,4,3.45,5.17.69,3.4-1.83,6.75-4.74,10.62-3.46,4.6-5.62,5.63-5.17,7.18.58,2,5,3.16,8.47,2.15,3.23-.93,3.34-3.08,6.89-4.59.4-.17,5.21-2.14,8.76-.29,4.78,2.5,5.21,10.9,4.31,15.94-1.67,9.32-9.63,16.86-10.34,17.52a20.09,20.09,0,0,0-3.88,4.3,20.4,20.4,0,0,0-3,10.2c-.48,8.91.12,17,.28,22.54.47,15.46-2.24,18.12.44,28A89,89,0,0,0,1137.1,377c2.33,5.52,3,5.75,6.89,13.64,4.12,8.4,4.18,9.87,6.89,12.49,2.46,2.37,4.75,4.58,8.19,5,2.09.27,4-.2,6.31,1.15a8.94,8.94,0,0,1,2.73,2.58c1.56,2.21,1.35,3.88,2,6.61.19.79.31,1.06,4.74,9.62a62.6,62.6,0,0,1,3,6c.69,1.87,2.11,5.75,1.58,9.76s-2.61,5.06-6.46,11.2a54.54,54.54,0,0,0-5.74,11.63c-1,3.08-.39,2.4-2.3,17.95-.58,4.74-1,7.68.29,11.34a21.61,21.61,0,0,0,3.16,5.6c4.75,6.75,8.29,7.22,8.32,10.19,0,2.81-3.13,3.24-6.46,8.47-2.07,3.27-2.3,5.4-3.59,9.48-1.73,5.47-3.06,7.14-7.32,15.79-6.08,12.35-11.54,23.43-14.64,34.32a77.21,77.21,0,0,1-4,11c-1.89,4.17-2.83,6.25-4.6,8.47-5.16,6.51-9.52,4.42-13.92,10-2,2.53-1.17,3-5,13.64-1.34,3.69-2.6,7.16-4.45,11.2-4.62,10.14-8.65,14.56-8.18,21.4,0,.71.23,3.4,1.15,3.59.2,0,1.06.07,3.3-4.74,3.3-7.09,2.35-9.12,4.88-12.49.56-.76.07.06,6.6-5.17,3.62-2.9,5.61-4.63,9-5.75,1.69-.55,1.33-.17,3-.71,5.82-1.89,11.33-6.79,11.92-7.33.87-.78,1.37-1.29,1.87-1.14,1.33.39.28,4.73,1.72,10.48.81,3.25,1.35,5.4,3.16,6.74,4.53,3.38,12.72-1.48,13.35-1.86a19.24,19.24,0,0,0,7.9-9.62c1.43-4.09,0-5.18,1.43-7,2.86-3.73,8.64.62,20.1-1.43,5.77-1,9.07-3,14.22-1.44,2,.62,3.74,1.13,5,2.73,3,3.81-.85,8.16,1.15,17.09.5,2.24.94,2.81,1.72,6.46.91,4.22.75,5.45,1.73,6.17,1.84,1.37,4.94-1.16,9.9-3.3,7.67-3.31,16.83-4.4,22.4-3.59,3.3.47,6.79,1.82,10.34.86a2.18,2.18,0,0,1,1.58,0c1.9.92,1.33,5.68,1,8.61-1.38,12.49-2.08,18.74-.86,23.69a32.08,32.08,0,0,0,4.88,10.34,41.57,41.57,0,0,0,9.91,10.34c4.42,3.4,7.78,6,12.78,7,7.37,1.54,10.53-1.89,14.79.87,1.38.89,1.63,1.63,5.17,8.61,6.59,13,6.64,12.3,7.32,14.64,2.18,7.52.33,10.44,3.44,13.21,1.34,1.2,3.72,2,8.47,3.45,3.72,1.17,5.58,1.76,6.75,1.72,6.75-.21,11.83-7.89,13.07-9.76,2.59-3.91,2-5.17,5-8.76a24.17,24.17,0,0,1,6.75-5.6c2.2-1.18,3.17-1.2,8.76-2.58,11-2.73,10.92-3.57,15.07-3.74,4.57-.18,5.62.8,7.9-.43s2.25-2.9,5.89-7.32a47.55,47.55,0,0,1,6-6c3.55-3.08,5.33-4.62,7.89-5.45.92-.3,6.91-2.26,10.2.57,3.94,3.39-.37,9.84,3.59,13.64,2.14,2.06,3.84.57,12.35,3.16,5.29,1.61,5,2.31,6.89,2.15,4.83-.41,5.18-5.16,12.63-8.9,3.31-1.66,5-1.61,5.89-3.45,1-2.14-.29-4.21-1.72-8.32-.18-.51,0,.11-2.88-13.79-2.35-11.22-2.47-11.47-2.44-12.92a31.54,31.54,0,0,1,3.59-13.21c1.49-3.15,2.24-3.7,8.76-12.49,8.15-11,8.38-12,10.91-13.06,2-.84,8.38-3.51,13.93-1.73a2.86,2.86,0,0,0,2,.15c2.08-.84,1.73-5,2.44-12.49.82-8.64,2-10.58,3.3-11.78,1.59-1.44,2.93-1.4,5.17-2.15,6.27-2.1,6.46-6,15.51-14.5,6.11-5.74,8.08-5.88,10.62-10.34a19.17,19.17,0,0,0,3-9.91c0-4.89-2.39-5.92-4.88-13.78-1.36-4.25-2.34-7.34-2.16-11.2.34-7.32,4.38-7.71,5.74-15.07,1.48-8-2.84-10-1.14-19.53.32-1.8,1.26-4.36,3.15-9.48,2.75-7.42,4.12-11.13,6.75-15.21,2.42-3.76,4.88-7.47,9.62-10.2a25.71,25.71,0,0,1,9.19-3c5.18-.69,7.55.56,12.78,1,6,.5,5.77-.88,15.36-1.58,10.44-.75,10.78.88,21.25.15,9-.63,11-2,12.64-.29,3.59,3.66-.59,15.41-5,22.83-3.54,5.92-7.21,9-6,12.63.79,2.41,3.19,3.41,6,4.88,5.92,3.07,10.77,7.87,16.37,11.49,9,5.84,31.6,20.47,39.19,35,.92,1.76,3.24,6.63,7,7,3,.31,5-2.32,8.18-1.3a7.08,7.08,0,0,1,3.59,3c2.13,3.35.17,6.06,1.58,10.48.81,2.54,2,3.47,3.45,5.46,5.06,7.15,4.48,16.74,4,24.4-.44,7.29-1.79,8.82-.72,13.93.71,3.41,1.71,4.65,2.73,9.19a51.44,51.44,0,0,1,1.15,11.06c.43,24.44.2,28.13,2.29,34.17a56.19,56.19,0,0,0,4.89,10.19c3.37,5.66,5.38,7,10.19,14.07,3.79,5.59,5.68,8.39,6.17,10.62,1.94,8.85-4.79,13.81-1.86,18.38,2.42,3.78,7.69,1.42,11.63,6.32,2.56,3.19.83,4.84,3.44,8.61,2.28,3.29,5.68,4.78,12.49,7.76a58.13,58.13,0,0,0,8.9,3.3c4.66,1.26,5.76.85,7,2.15,2.93,3,1.23,9.18.29,12.64a29.44,29.44,0,0,1-3.74,8.47c-3.22,5-5.75,5.51-5.74,8.18,0,3.39,4.08,4.28,4.16,7.76.07,2.8-2.53,3.81-4.88,7-4.56,6.27-3.49,14.54-2.73,20.39s1.73,4.19,3.74,13.93c1.47,7.14,1.29,9.61,3.73,12.34,3.11,3.48,6.19,2.61,7.61,5.75,1.56,3.45-.73,7.63-2.3,10.48a21,21,0,0,1-9,9.19c-6.4,3.13-10.74.49-12.92,3.59-.57.8-.62,1.47.57,10.33,1.28,9.54,1.56,10.44,2.15,11.63,1.65,3.35,3.2,3.93,3.88,7.18a11.54,11.54,0,0,1-.43,6.75c-2.47,5.79-9.65,4.47-11.2,9-1.27,3.76,2,9.19,5,11.92,2.12,1.94,3.84,2.28,5,4.74a8.86,8.86,0,0,1,.43,6.46c-1.28,3.52-4.29,3.06-5.31,6-1.21,3.52,2.49,5.68,1.44,9.62-.58,2.14-2.16,3.32-5,5.46-5.93,4.42-9.65,3.75-10.48,6.46-.67,2.19,1.64,3.09,3,8.47.13.48,1.91,7.68-.43,9-1.71,1-4.12-2-6.46-.86-.45.23-.81.58-2.29,3.59-2,4-1.72,4.16-2.73,5.89A49.57,49.57,0,0,1,1722,1002c-1.35,1.62-2.39,2.8-2.58,3-5.55,6.31-4.92,8.86-7.9,10-2.65,1.07-3.83-.56-6.31.87s-3.42,4.38-3.74,5.45c-1.64,5.5,1.71,8.07,0,11.78-.83,1.81-3,2.88-7.18,5-7.52,3.81-9,2.49-11.91,5.17s-1.4,3.89-6,10.48c-3.24,4.6-5.17,5.71-5.75,6-3.67,2-5.18.32-7.61,2.15-3.64,2.75-1.65,7.61-5.45,9.91-1.85,1.12-2.93.33-4.74,1.87-1.28,1.08-1.44,2.07-2.87,5-1.84,3.82-2.77,5.73-3.73,6-1.85.58-3.36-1.62-10.2-6-3.57-2.3-4.3-2.44-4.88-2.15-1.91.94-2.05,6.61.14,10.77,1.41,2.67,2.82,2.88,3,4.88.09.92,0,2.79-4.16,7.18s-5.09,3.72-8.19,7c-1.75,1.88-1.32,2-6.46,9.48-2.69,3.93-4,5.91-4.88,6.46-4.58,3-8.57-.19-12.06,2.73-2.33,1.94-3.62,5.91-2.3,7.89,2.09,3.13,8.79-1.45,18.38.43,10.5,2.07,17.39,10.5,18.52,11.92,5,6.32,3.66,9.69,9.91,15.79,2.17,2.12,1.72,1.12,8.9,7,3.07,2.53,4.43,3.77,6.46,3.73,1.26,0,2.59-.52,6.17-4,5.32-5.18,8-7.77,8.76-11.48.4-1.91,0-4.43-.72-9.48-1-6.89-2.09-8.64-.86-10.19,1.72-2.18,6.33-1.92,9.33-.29a10.28,10.28,0,0,1,4.46,5.17c1.94,4.85-1.17,7.48.57,11.2.73,1.56,3.42,3,8.76,5.74,6.79,3.52,9,4,11,6.89a8.89,8.89,0,0,1,1.87,5.89,7.37,7.37,0,0,1-1.29,3.59c-.92,1.27-1.53,1.14-1.87,1.86-.87,1.9,2.6,4.37,5.46,9.19,1.41,2.39,2.78,4.71,3,7.9,0,.46.37,6.31-3.59,10.48-2.47,2.61-4.18,2-5.45,4.31-1.63,3-.88,7.69,1.72,9.47,1.6,1.1,3,.45,9.91-1,10.09-2.11,10.82-1.48,13.92-3.16,5.27-2.85,4.87-5.6,7.9-5.89,3.9-.37,5.31,4.1,15.22,11.49,5.87,4.38,8.94,5.47,11,4.45,1.67-.8,2.18-2.65,4-2.73.36,0,1.23,0,4,2.44,3.08,2.66,4.77,4.13,4.6,5.89s-2.09,2.29-1.87,3c.58,1.93,13.39-3.2,19.53,2.16,2.4,2.09,1.16,3.51,4.16,6.17,4.35,3.86,10.54,4.11,12.06,4.17,4.23.16,4.55-1,6.89-.15,3.16,1.1,5.09,4,7.76,8,2.1,3.17,2.38,4.51,4.45,6a12.41,12.41,0,0,0,5.31,2.16c5.33,1,9.84-.87,14.36-2.44,15.42-5.37,17.45-3,23.4-7.61,4.69-3.66,3.69-5.37,7.9-7.47,2.84-1.42,4-1,16.51-2.44a84.89,84.89,0,0,0,9.91-1.44c5.1-1.25,6.28-2.39,9.18-2.44,5.59-.08,9.81,4,10.63,4.74,4.24,4,2.93,7,6.6,8.9,3,1.57,4.45-.19,9.48,1.58,3.8,1.34,4.24,2.77,6,2.44,3.82-.7,4-7.66,7-7.89,2.21-.17,4.62,3.23,5.6,5.6,1.13,2.7.49,4.3,1.58,4.88,1.8,1,4.06-3.08,7.9-3.16,1.29,0,3.08.38,7.75,4.88,5.59,5.37,5.07,6.74,9.05,10.48,4.71,4.44,6.35,3.38,12.35,8.62,3.71,3.23,2.61,3.23,7.17,7.6,4.76,4.57,7.73,6.28,13.79,12.21,3.46,3.39,5.18,5.47,4.59,6.6-.81,1.59-5.29-.17-7.75,2.59a5.47,5.47,0,0,0-1.29,3.16c-.29,3,2,3.89,2.72,7a10.15,10.15,0,0,1-3,9c-2.38,2.2-4,1-5.89,2.72-3.29,3,.65,8,0,18.53-.38,6.33-2.12,9.84-.43,16.22.74,2.8,1.71,4.51,2.44,4.45,1.17-.1.48-4.61,3.31-6.75,1.1-.83,3.17-.84,7.32-.86a28,28,0,0,1,8,.72c2.51.67,3.77,1,4.74,2,1.62,1.69,1.17,3.61,1.58,9.91.31,4.87.49,7.34,1.43,8.75,1.31,2,2.52,1.79,8,5,4.65,2.73,7,4.12,7,5.6.1,2.66-5.1,3.12-8.47,8.76-1.07,1.78-1.44,3.25-2.16,6.17-1.33,5.38-2.72,11,0,14.36.48.58,2.66,1.68,7,3.87,4.65,2.34,5,2.29,5.6,3.16,1.59,2.42-.08,4.52,1.58,9.19a14.35,14.35,0,0,0,1.43,3c2.08,3.28,4.84,4.44,8.76,6.74a92.53,92.53,0,0,1,8,5.46c4.25,3.27,4.47,4.44,9,8.62,3.27,3,10.62,9.69,12.77,8.18,1-.73-.18-2.62-.14-8.33,0-3.87.1-7.36,2.15-10.48.71-1.07.83-.85,4.74-4.45,5-4.56,5.67-5.75,6.61-5.46.7.23,1.29,1.22,2,10.34.53,6.9.37,8.64,1.86,10s2.86.6,7.61,1.44c2.6.45,6.23,2,13.5,5.17,4.63,2,5.37,2.48,6.17,3.3,3,3,3.11,6.77,4.45,6.75,1.54,0,1.61-4.92,4.45-5.75,1.81-.52,3.68.89,4,1.15,2.49,1.89,1.75,4.38,4,7.61,1.54,2.18,2.36,1.73,4.45,3.88,1.19,1.22,1.85,2.32,5.17,11.2a30.71,30.71,0,0,0,5.75,10.19c.56.63,1.37,1.47,2.15,1.29,1.7-.37.7-5,3.73-7.89a10,10,0,0,1,4.45-2.16,26.49,26.49,0,0,1,6.61-.72,22,22,0,0,1,4.45,0c3.53,1.81.27,9.37,4.45,13.36,1.48,1.41,1.85.42,7.47,2.73,5.85,2.4,7.39,4.28,9,3.44,1.32-.67,1.61-3,2.15-7.61.71-6,0-7,1-10.05.57-1.73,1.94-5.93,5.46-7.18,2.4-.85,4.62.1,7.75,1.44s7,3,8.61,6.75c.62,1.47.37,3.87-.14,8.61a65.74,65.74,0,0,1-1.72,10.91c-1.47,5.49-2.59,5.89-2.44,9,.06,1.51.23,5.14,2.72,7.46,1.27,1.19,2.25,1.19,2.59,2.3.12.4.4,1.7-2.73,5.6-2.2,2.74-2.7,2.56-3.59,3.88-3.5,5.2.5,13.84,1,14.93,1.66,3.6,2.5,3,3.15,5.6,1.3,5.07-1.89,7.61-.14,11.77.89,2.12,1.85,1.76,3.88,4.88a24.28,24.28,0,0,1,3.16,7.9c1.92,7.18,6.94,12.79,13.49,20.1,3.22,3.6,5,5,7.47,8.9a31.77,31.77,0,0,1,4,8.62c1.27,4.53,2.42,13.12-1.29,15.5-1.44.92-2.22,0-5.6,1.15-2,.66-4.26,1.41-5.6,3.16-1.9,2.48-1.08,5.86.57,12.63a32.25,32.25,0,0,0,3,8.19c1.55,2.81,2,2.53,2.58,4,1.36,3.57-.62,7.31-4.59,14.79-2.38,4.47-3.66,6.88-6.32,9.62-2.47,2.53-3.38,2.54-4.88,4.73-2.62,3.83-2.79,8.12-2.87,10.34-.2,5,1.17,6.5,0,10.77-.34,1.23-1.08,3.92-2.59,4.16s-2.06-1.86-5.17-3.44c-1.15-.59-3.41-1.74-4.88-1-2.27,1.14-2.06,6.49-1.29,10,1,4.76,4.18,8.63,10.48,16.37,4.42,5.43,3.31,3.27,7.32,8.18,3.08,3.77,4.18,5.6,6.46,5.89,2.7.35,5.13-1.69,6-2.44,3-2.49,3.83-5.73,4.17-5.6s-.86,2.74-1.29,6.32c-.35,2.83,0,5.14.71,9.76,1,6.29,1.87,7.32,2.3,7.75,1.76,1.77,3.51,1.4,4,2.88.74,2.13-2.16,5-3.45,6.31-3.18,3.18-4.76,2.58-5.88,4.74-1.36,2.61.62,4.11,0,8.47a16.5,16.5,0,0,1-3.59,7.75c-1.72,2.29-2.56,2.38-8.33,6.9-5.36,4.19-7.19,6.11-7.9,5.6-1-.75,1.33-5.77,1.58-6.32,1.21-2.59,1.9-2.88,2.59-5,.35-1.1,1.43-4.5,0-5.88-1-1-2.87-.52-5,0-10.91,2.6-1.78-.48-12.34,2.58-9.26,2.69-11,1.77-12.21,3.73-1.65,2.64-.41,6.44.43,9,1.38,4.24,3.16,4.78,3.88,8.76a14.06,14.06,0,0,1-.29,6.75c-.87,2.8-2.1,3.11-6.17,9-2.42,3.52-3,4.87-2.59,6.17s1.65,1.63,3,3c1.85,1.87,2.35,4.18,2.87,7.75,1.71,11.7,2.57,17.54-.14,21.54-1.32,1.93-1.67,1.25-4.6,4.74-2.16,2.57-2.55,3.64-6,9.19-5,8-5.47,7.81-6.6,10.76-1.39,3.62-1.75,6.63-2.59,6.61-1.14,0-.72-5.66-3.73-7-1.88-.86-4.23.32-5.31.86-2.28,1.15-2.64,2.41-4.6,4-2.58,2.14-3.82,1.48-7.75,3.31-3.13,1.45-7.92,3.67-8.61,7.32-.33,1.72.54,2.26,2.87,8.61.86,2.35,1.39,4,2,6,2.6,8.34,3.87,12.56,2.15,14.94-1.33,1.84-3.25,1.58-3.59,3.3-.21,1.09.4,2,3,5.6,3,4,3.22,3.75,3.3,4.45.38,3.45-5.91,4.7-7.18,10.62a9.74,9.74,0,0,0,0,4c.45,2.1,1.64,4,6.17,8s4.69,3.29,6,4.88c4.32,5.14,4.38,14.86.44,17.66-1.79,1.27-4.59,1.14-10.2.87-3.63-.18-5.21-.66-6.32.43-1.95,1.9.47,5.77-1.14,7-2,1.54-6.55-3.52-10.49-1.86a6.36,6.36,0,0,0-3,3.44c-3.36,6.74.33,12.66.29,22.69,0,5.6-3.73,9-1.73,11.63,1.2,1.58,2.74,1.1,4.17,3,1.9,2.55,1.49,6.52.28,9.19-1.55,3.44-3.8,3.34-4.16,5.74-.48,3.2,3.08,6.28,5.46,8.33,4.72,4.08,7.61,3.82,10.33,7.47a14.15,14.15,0,0,1,2.59,6.46l-.43,43.21c-5,1.33-6.34,3-6.61,4.31-.35,1.71,1.11,2.88,2.59,6,1.2,2.55.76,2.9,2.15,8.47,1.09,4.35,1.3,3.93,4.31,14.07.56,1.88.9,3.07,1.58,5.46,1.15,4,1.73,6.05,1.72,6.31-.08,3.47-3.06,4.46-8.61,11.78-3.65,4.8-3.66,6.08-3.45,6.89.73,2.84,4.78,2.55,6.32,5.74,1.26,2.62-.72,4.38-1.87,9.77a35.23,35.23,0,0,0,1.15,17.51c1.7,4.79,3.14,4.59,3.88,8.76.25,1.44,1.19,6.71-1.44,11.49-1,1.83-1.69,2-2.73,4.3-.83,1.82-2,4.31-1.58,6.9s2.14,3,7,9.33c2.7,3.48,3.21,4.72,3,6s-.91,1.92-3.3,4.45c-2.82,3-4.23,4.49-4.74,5.17-2.68,3.57-3.26,10-.71,14.21,2.82,4.63,7.53,3.14,13.2,9.33.62.68,4.67,5.1,3.59,6.75-1.49,2.28-10.28-4.54-20.38-1.72-4.43,1.23-3.66,2.8-9.19,4.45a30.1,30.1,0,0,1-16.51.29c-4.2-1.18-3.82-2.16-8.19-3.31-5.07-1.32-7.55-.51-13.21-.71-7-.25-7.29-1.65-15.65-2.73-8.94-1.16-9.8.29-17.8-.43a71.83,71.83,0,0,1-21.68-5.75c-8.24-3.31-17.16-6.9-20.39-12.92a10,10,0,0,0-2.58-3.44c-2.24-1.85-4.06-1.47-9.19-3.16-3.13-1-4.72-1.58-5.46-2.73-1.49-2.32.37-4.76.29-8-.11-4.53-3.83-7.81-7.61-11-4.84-4.16-10.09-6.91-26.7-12.78-10.11-3.57-9.07-2.87-14.36-4.88-12.34-4.69-17.26-8.22-25.56-12.06-6.54-3-15-5.22-31.58-9.48-13.48-3.45-25-6.06-39.63-9.19-26.63-5.69-39.94-8.53-46.52-9.48-27.15-3.92-35.36-2-45.94-10.19-4.19-3.22-7.39-7-16.37-13.21a160.44,160.44,0,0,0-18-10.62c-12.72-6.75-20.67-11-31.87-14.22-12.17-3.53-13.25-1.59-23.69-5.45a86.08,86.08,0,0,1-21.68-11.78c-12.08-9.07-10-12.81-21.54-22.25-6-4.92-13.28-8.59-27.85-15.94-2.4-1.2-9.95-5-23.26-10.91-29.92-13.31-44.88-20-51.54-20.1,0,0-9.53-.18-17.23-4.45a17.41,17.41,0,0,1-5.6-4.59c-2.11-2.78-1.74-4.35-3.31-6.32-2.42-3.07-6.3-3.07-10.62-3.88-5.55-1-9.16-2.9-16.08-6.46-8.77-4.52-7.67-6.76-22.4-16.8-2.67-1.82-5.14-3.4-9.33-6.46-6-4.33-8.92-6.5-10.77-8.61-5-5.68-4.33-9.06-8.76-11.63a15.42,15.42,0,0,0-8.32-1.73c-12.44-.07-16.37-9.31-34.32-15.65a114.44,114.44,0,0,0-31-6.17,47.6,47.6,0,0,1-15.51-3.16c-4.23-1.63-7.79-3.06-9.47-6.46-2.15-4.34,1.12-7-1-11.48-1.31-2.76-4.14-4.32-9.76-7.33a93.1,93.1,0,0,0-10.63-4.73c-14.51-5.77-14.11-5-16.08-6.47-.32-.24-3.9-4.33-11-12.49a26.13,26.13,0,0,0-6.61-5.88,24.44,24.44,0,0,0-7.6-2.87c-3.17-.78-5.25-2-21.68-14.51-10.83-8.26-10.91-8.51-13.07-9.62-3.69-1.89-8.21-3.22-17.23-5.88-5.09-1.51-10.13-3.22-15.22-4.74-6.33-1.89-9.13-2.62-9.47-4.45-.54-2.86,5.66-4.29,6.31-9.33.6-4.59-3.9-8.41-4.16-8.62-3.21-2.64-7-2.67-9.19-2.87-6.07-.55-13.43-6.3-28.14-17.8-6.72-5.26-11.71-9.68-15.51-13.07-6.08-5.42-7.46-7-12.92-12.06-16.1-14.93-27.63-23-34.31-31.73-1.62-2.11-2.24-3.33-6.75-9.47-2.56-3.49-3.2-4.24-3.73-5.89-1.24-3.8.46-5.06.28-10.63-.08-2.52-.24-7.82-3.59-11.34-2-2.11-4.3-2.69-6.17-3.3-11.27-3.68-10.65-9.55-23.83-15.22-5.24-2.25-8.61-3.85-13.64-4.45-4-.47-8.26-.3-8.47-1.44-.19-1,3-1.58,4.45-4.59a8.14,8.14,0,0,0,.43-4.88c-.68-4.59-3.5-7.77-5.6-10.2-9.44-10.89-7.16-9.84-10.63-12.92-5-4.47-7.42-4.53-18.8-10.91,0,0-7.1-4-13.93-8.47-13.75-9-14.17-12.82-27.57-22.83-11.09-8.28-11.74-6.39-23.4-15.22-7.19-5.44-11.72-9.78-20-17.66-15.51-14.84-23.27-22.27-26.85-28.57-4.55-8-6.07-14.41-12.92-17.37-5.09-2.2-7.21,0-12.78-2.16-4.85-1.92-6-4.72-15.07-16.51-11-14.31-14.79-17.21-16.37-18.37a121.43,121.43,0,0,0-11.49-7.18c-7.91-4.54-9.18-4.45-12.49-7-4.27-3.34-3.7-4.7-10.48-13.49-6.59-8.57-9.89-12.85-14.35-15.8-5.14-3.39-9-4.07-9.91-7.75-.61-2.44.84-3.06,1.29-8.61a26.28,26.28,0,0,0-.72-9.62c-1.14-4.06-2.43-4.11-3-6.9-.66-3.14.5-5.34,4.16-12.92,6-12.35,6.75-14.51,6.18-14.93s-2.34.88-3.45,2.15c-1.85,2.12-2,4.4-2.44,6.32-.93,4.28-3.8,10.21-8.33,12.06-2.86,1.17-5.65.42-7.75-.14-4.73-1.27-7.39-4-10.63-6.89-2.38-2.12-9.51-8.47-17.8-12.64-2.72-1.37-6.74-2.68-14.79-5.31-12.32-4-13.49-3.6-15.93-5.89-3.63-3.38-2.36-5.52-7.76-16.08-2.3-4.49-3.87-7.57-6.46-10.77-4.11-5.07-7.87-6.87-18.09-12.77-17.4-10.07-14.34-9.41-20-11.92a148.09,148.09,0,0,0-25-8.33c-8.3-1.85-12.64-1.93-14.5-5.45-2.14-4.06,1.52-8-1.29-13.5-1.16-2.29-2.73-3.51-5.6-5.74a40.14,40.14,0,0,0-12.64-6.61c-20.29-6.34-40.12-14.19-60.58-20l-23.41-6.61c-27.51-8-29.71-9.35-43.64-12.63-6.63-1.56-13.15-3.53-19.82-4.89-11.64-2.36-16.11-2.39-19.67-6.6-2.31-2.74-2.85-5.61-7-8.9a33.11,33.11,0,0,0-6.32-3.59,102.1,102.1,0,0,0-12.35-5c-8.47-2.9-8.25-2.2-12.06-3.73a41.71,41.71,0,0,1-15.36-10.19c-3.64-3.92-10-10.71-8.33-17.09,1-3.93,4.39-5.15,5.6-11.34a22.85,22.85,0,0,0,.29-5.6,58.58,58.58,0,0,0-3.45-17.52,55.88,55.88,0,0,0-6.46-13.78c-4.79-7.16-8.3-8.09-17.23-16.94-7.57-7.51-6.29-8.08-12.06-13.64-5.2-5-7.53-5.8-24.55-16.22-15.34-9.4-15.24-9.87-27.71-17.23-7.38-4.36-13.74-7.94-18.09-10.34Q241.22,1095,241.19,1095a18.68,18.68,0,0,1-7.18-4.31c-4-4.15-3.65-8.46-6.46-15.22-2.52-6.06-6.35-11.84-7.18-11.49-1,.42-.31,10.31,5.17,18.09,1.27,1.81,3.58,4.61,2.73,5.89-.11.15-.58.78-3,.58a15.66,15.66,0,0,1-7.46-2.73c-3.83-2.71-8.4-4.23-12.35-6.75-10-6.37-13.6-3.37-31.73-11.06-4.08-1.72-7.75-3.54-15.08-7.17-6-3-6.95-3.6-15.5-7.9-7.62-3.83-11.52-5.79-16.23-7.9-5.3-2.36-4.94-2-12.78-5.31-13.76-5.84-13.56-6.47-20-8.61-7.2-2.42-8.16-1.86-12.64-4.17a43.48,43.48,0,0,1-11.2-8.33c-2.68-2.76-1.28-2.08-6.74-8.75-2.73-3.33-3.89-4.5-4-6.61-.18-2.86,1.68-5.23,2.87-6.75,2.59-3.31,4.23-2.82,5.88-5.45s1.46-5.11,1.3-8.76a35.8,35.8,0,0,0-2-10.34c-1.16-3.21-4.42-11.32-14.79-24.69C47,939.76,44,935.93,38.75,932.19a102,102,0,0,0-10.63-6.32c-9.4-5.1-10.42-4.47-14.36-7.75-4.78-4-4.68-6.06-9-8.9A11,11,0,0,1,1.13,905.49Z"/></g></g></svg>