<svg xmlns="http://www.w3.org/2000/svg" viewBox="0 0 2128.28 2067.06"><g id="Layer_2" data-name="Layer 2"><g id="Libya"><path d="M2106.93,191a31.77,31.77,0,0,0-5.3-1.68c-9.12-2.48-11.27-1.1-20.24-2.65-9.45-1.63-12.82-4.15-18-2.09-1.06.42-1.95.94-4,1.67a45.15,45.15,0,0,1-10.32,2.1c-7.62.53-18.06-1.92-25.54-2.8-19.6-2.29-26.35,5.32-36.28-1.11-3.29-2.13-2-2.62-8.24-7.68-7.07-5.76-11.88-9.67-18.84-11.3-7.81-1.83-12.64.55-16.32-3.49-1.44-1.57-1.92-3.26-4.19-4.46-3.19-1.69-6.72-.73-8-.42-4.83,1.2-13.82,1-31.81.55-14.23-.33-21.44-.61-26.1-5.58-3.44-3.66-2.71-6.6-7.25-9.91-5.54-4-9.92-2.07-13.12-6.27a11.44,11.44,0,0,1-1.68-9.91c1.18-3.72,3.7-3.4,5.72-7.82.33-.71,2.48-5.58.7-10.32-1.14-3.06-2.67-2.74-4.18-5.45-3.75-6.69,2.68-13.81-.84-18.7-1.58-2.19-4.27-2.68-6.14-3.07-10.3-2.11-19.72-7.42-29.87-10.18-20.85-5.68-31.28-8.51-36-10.89-1.94-1-8.64-4.43-18.28-9.07-8.56-4.12-11.06-5.13-14.79-5.72-6.51-1-8,.63-13.4-1.12-6.18-2-6.12-4.86-11.3-5.72-2-.33-5.53.43-12.56,2-7.18,1.55-7.74,1.95-10.61,2.23a39.33,39.33,0,0,1-11.72-.7c-11.9-2.3-12.67-7.34-20.23-7.54-5.3-.13-9.18,2.22-16.33,6.56-7.73,4.7-9.19,7.73-14.93,11.87-7.3,5.25-14,6.91-24.42,9.35-19,4.46-21.63,1.17-35.59,4.18-11.56,2.5-22.73,9.15-45.07,22.47-11.49,6.84-20.43,12.83-26.1,16.74-19.38,13.39-30.49,21.06-42.14,34.33-8.39,9.56-12.58,14.33-16,21.63-2.25,4.73-3.36,8.57-7.54,13.4-4.59,5.3-7.58,5.17-9.9,9.77-2.59,5.12-1.82,9.16-2.24,16.19-.79,13.42-4.46,12.87-4.74,22.74s3.42,11.45,7.39,29.59c2.94,13.41.84,12.27,3.07,19.53,5.57,18.09,16.41,18,21.77,34.19,4.31,13,1.44,25.39-.28,32.8a85.84,85.84,0,0,1-9.21,22.88c-2.35,4.28-3.47,5.61-12,17.59-14.82,20.81-14.7,21.37-19.81,27.63-8.14,10-12.21,14.94-17.45,18.7-8.73,6.28-13.59,6.28-28.46,15.91-7.07,4.57-5.89,4.52-10.19,7-10.69,6.1-20.18,7.69-31.68,9.49-14.61,2.3-21.91,3.45-30,.56-1-.35-.09-.08-14.52-7-10.06-4.81-12-5.64-15.21-7.53a95.61,95.61,0,0,1-14.37-10.47c-29.91-25.17-38-28.1-47.59-39.07a84.57,84.57,0,0,0-13-12.28,79.68,79.68,0,0,0-6.7-4.61c-6.54-4-12.25-7.43-19.54-7.67-3.34-.12-4.24.54-6.7-.28-3.9-1.31-5.42-4.24-8.23-7.26-4-4.26-8.19-6.18-12.7-8.23-7.91-3.6-14.88-2.82-19.68-2.79-13.25.06-14.58-5.69-46.33-18.7a367.65,367.65,0,0,0-34.88-12.28c-10.6-3.14-19.94-5.91-32.38-8-18.73-3.08-36.1-3.14-55.54-3.21-8.09,0-12.93.13-20.79-.83a140.89,140.89,0,0,1-28.33-6.84A136.78,136.78,0,0,1,857.27,279a103.61,103.61,0,0,1-14.52-13.81,108.67,108.67,0,0,1-16.46-26.52c-2.85-6.44-1.82-5.71-5.31-14.37-8.33-20.72-12-19.36-13.53-28.89-1.62-10,1.25-19.64-.42-29.16a32.31,32.31,0,0,0-2.93-9.35,46.83,46.83,0,0,0-2.51-4.19c-3.38-5.57-2.66-8-5.31-14.37-1.84-4.42-3.28-7.86-6.69-10.61-2.7-2.18-5.17-2.74-11.17-4.19-17-4.1-14.41-3.72-17-4.18-22.26-3.89-31,.56-44.52-5-1.58-.65-3.83-1.69-7.53-2.93-7.88-2.63-11.35-2.51-16.61-4.18-6.19-2-10.29-5-13.82-7.54-13.69-10-11.5-18-22.18-23.44-4.27-2.16-3.19-.16-18.7-4.19-6.67-1.73-11.74-3.37-18.56-5.58-17.66-5.73-15.05-5.74-20-6.84-16.93-3.79-23.08,1.93-36.42-3.91a103.1,103.1,0,0,1-9.77-5c-8.52-4.93-9.57-7.07-13.68-8.65s-6.94-1-19.95,1.67c-16.89,3.49-25.33,5.24-28.61,6.14-15.74,4.34-14.85,5.44-24,7.68-24.68,6-48.5,2.26-63.22-2.65-4.38-1.47-10.2-3.78-11.58-4.33-12.17-4.84-18.26-7.26-24.84-11.44-3.64-2.32-9-6.76-19.82-15.63-6.91-5.69-8.45-7.2-12.14-8.51-5.89-2.11-7.86-.36-18.28-2.1-6.73-1.12-10.09-1.68-13.95-4-6.48-4-8.69-9.52-10.47-8.8-1.37.56-.67,4.13-.56,9.35.18,8.56-1.51,8.44-3.21,24.15-.82,7.64-1.21,15-1.25,15.76-.49,9.37-.07,10.28-1,14.1-1.79,7.55-4.55,8.73-4.05,13.4.3,2.78,1.45,3.89,6.14,10.46,6.37,8.91,9.56,13.42,9.91,16.19,1,8-5.24,14.87-7.12,16.75-2.12,2.12-3.52,2.72-13.53,7.53-18.95,9.12-1.33.93-18.42,8.93-16,7.49-15.38,7.14-18.84,8.79-31.27,14.91-39.53,22.94-42.42,27.63-1.72,2.8-3.52,5.54-5.17,8.38-3.43,5.92-3.35,6.54-4.6,7.25-4.83,2.77-10.48-3.86-15.35-1.11-2.81,1.58-3.65,5.3-4.19,7.67-1.27,5.63,1.3,7.47-.14,11.45s-4.28,3-8.23,7.81c-5,6.13-2.92,10.74-7.4,13.54-2.4,1.5-3.23.31-9.91,1.25-2.49.36-8.88,1.26-14.09,4.19-3.45,1.94-4,3.45-10.33,10.88-10.85,12.84-13.14,13.12-15.21,18.7s-1.66,10.57-1.25,15.08c.69,7.69,3.08,12.78,10.6,28.18,9.5,19.45,9.36,18.85,9.63,19.82,3.19,11.69,1.77,22.66.14,35.31-.89,6.9-1.34,10.35-2.51,14.37-3.33,11.39-7.85,14.84-21.35,34.75-9.93,14.64-8.91,14.86-13.54,19.81A90.24,90.24,0,0,1,62.12,448c-5.09,2.77-3.2,1.2-21.35,9.21-20.83,9.18-18.22,9-25.68,11.58C6,472,3.48,471.76,1.55,474.81c-4.18,6.61,1,18.07,4.75,23.72,2.52,3.82,3.71,4,8,9.91a95.32,95.32,0,0,1,7.4,12.28c8.08,15.65,8.8,22.82,16.6,38.66,5,10.16,5,7.71,8,14.65,3.86,8.93,3.65,12.31,9.77,33.63,2.05,7.17,2.53,8.38,3.49,12.56,2,8.63,2,12.79,3.2,20,2,12.11,3.48,10.76,5.59,22.32,2.19,12.06,2.14,22.15,2.09,30.42,0,7.14-.44,12.46-.56,14-.31,3.94-.83,8.88-2.93,21.35-3.13,18.57-3.94,19.27-4.46,27.07-.44,6.47-.75,11.67.55,18.42,1.54,8,3.32,7.76,6.14,17.73,3.1,10.92,1.35,12.55,4.75,22.88,2.69,8.19,3.93,7.61,4.74,12.7.4,2.47.8,7-2.79,20.93-.86,3.39-2.2,7.7-4.88,16.33-2.22,7.14-3.24,10.22-7.4,23.45-1.49,4.73-2.24,7.13-2.79,8.93-3.52,11.6-5.29,17.49-5.58,22.18a57.92,57.92,0,0,0,1.12,14.66c1.1,6,2,6.35,3.34,12.84,1.77,8.56.56,9.69,2.1,16.18,1.84,7.76,3.61,6.36,6.28,15.21,2.45,8.14.66,8.38,3.63,20.52.71,2.92,1.34,5.06,1.11,8.23-.33,4.66-2.14,6.29-3.77,10.75-3.51,9.63.76,13.54-2.93,18-2.32,2.81-4.5,1.83-12.42,4.6-8.28,2.91-7.14,4.42-16.88,8.66-9.95,4.33-14,4-19.54,9.07a28.89,28.89,0,0,0-4.88,5.86,33.29,33.29,0,0,0-1.82,3.35c-1.16,2.47-1.43,3.82-2.65,6.83-.8,2-1,2.15-1.81,4.05A62.26,62.26,0,0,0,3.09,1086q42.13,62.38,84.29,124.76.9,29.52,1.81,59a36,36,0,0,0,1.53,6.14c2.76,7.9,7.24,11.46,11.31,16.75,6,7.74,3.22,9,9.49,19.53,4.81,8.06,8.71,14.59,16.32,18.84,9.7,5.41,22.7,5.82,31.4,2.51.87-.32,4.86-1.47,12.84-3.76,6.08-1.75,8.35-2.35,10-1.12,3.28,2.36,1,9,3.21,9.77,2,.69,5.92-3.62,8.09-6,1.82-2,2.83-3.53,4.75-3.77a5.72,5.72,0,0,1,3.9,1.26c5.56,3.84,11.64,6.93,17,11,6.92,5.25,6.09,4,11.86,8.51,7.16,5.57,7.11,6.43,12.56,10.75,13.44,10.66,16.12,7.35,26.51,16.6,3.32,3,5.58,5.55,9.08,5.45s5.32-3,10.88-6a34.42,34.42,0,0,1,10.05-3.49l50.79,112.47c14.87,2.37,27.17,4.74,36,6.56,19.91,4.1,35.94,8.2,50.24,11.86,23,5.9,20,5.7,30.28,8,21.83,4.77,27,3.84,43.54,9.07,8.32,2.64,10.82,4.08,18.14,5.44,10.05,1.87,13.66.69,20.37,4,4.2,2.1,3.75,3,11.44,8,6.21,4,9,4.92,13,7.26a64.73,64.73,0,0,1,17.59,15.35l57.63,51.07L893,1492.26l1083,574.8-.42-72.28,135.09-.28q-.36-688-.7-1375.95c-1.22-1.42-2.58-3.49-2.37-5.87.17-2,1.27-2.47,1.67-4.18.71-3.06-1.8-5.77-5.44-10.47-4.12-5.31-6.18-8-7.26-10.19-.93-1.92-4-8.9-2.23-16.74,1.28-5.54,3.51-5.06,4.05-9.21.88-6.88-5.06-9.94-8.94-20.38-.9-2.43-.61-2.36-2.65-13.53-3.42-18.82-5.13-28.22-7.95-34.19-4.13-8.73-6.85-9.08-7.54-15.21-.9-8,2.93-14.85,5.72-19.68,5.13-8.86,7.85-8.07,14.1-16.61,6-8.17,8.41-15.63,13.26-30.56,2.82-8.69,4.24-13,4.74-19.11.4-4.81.22-9.78-.14-19.68-.17-4.65-.25-7-.42-8.23-1.13-8.65-3.7-9.59-6.84-20.1-2.22-7.45-1.86-10.09-5-17.72-1.63-3.94-1.81-3.27-2.65-5.72-3.8-11.1,1.8-16.2-.56-29.59-.6-3.41-1.44-5.76-.56-9.21,1.11-4.32,4.05-7,5.86-8.65,14.13-12.66,19.43-15.07,24.7-22.75,4.6-6.69,4.75-10.92,4.75-12.14,0-5.13-2.54-8.08-5.3-12.84C2112.65,208.24,2117.06,196.07,2106.93,191Z"/></g></g></svg>