<svg xmlns="http://www.w3.org/2000/svg" viewBox="0 0 1499.52 2986.25"><g id="Layer_2" data-name="Layer 2"><g id="Liechtenstein"><path d="M544.41.22c5.13,1.18,6.88,6.59,12.17,15.66,1.37,2.37,5.58,8.27,14,20.09,10.54,14.79,4.59,5.32,12.53,16.22,4.64,6.36,7.29,10.44,11.06,10.32,2.7-.09,4.19-2.28,8.66-2.22a14.18,14.18,0,0,1,4.79.93c5,1.85,7.71,6,9.58,9a41.06,41.06,0,0,1,4.61,11c3.53,11.93,5.29,17.89,4.24,23.77-1.47,8.26-5.85,10-4.79,16,.35,2,1.25,4.09,7.74,10.69,7.8,7.92,13.78,12.31,24.14,21,7.92,6.65,6.31,5.66,8.84,7.56,7.76,5.79,11.76,6.75,26.54,14,16.63,8.16,20.34,11.26,22.67,13.46,3.68,3.46,3.69,4.45,10.13,12.9,14.48,19,21.71,28.45,32.44,31.88,3.64,1.16,6.47,1.33,10,4.05,4,3.17,4.07,6,9.4,14.74,3.86,6.36,5.79,9.53,9,11.8,5.27,3.68,9,2.42,14.38,4.42,7.62,2.83,11.47,9.53,16.4,18.43,20.42,36.8,18.81,35.47,22.85,41.46,10,14.9,13.9,14.09,24.69,31.51,9.24,14.92,10.75,22.52,11.24,25.62A55,55,0,0,1,868,414.48c-2.92,6.76-5.11,7.8-17,21.93-14.48,17.26-12.75,17.54-26.54,33.72C813.64,482.9,812,483.41,804.8,493a206.5,206.5,0,0,0-14.93,22.85c-9.37,16.92-6.7,18.44-14.55,31.52-10.49,17.46-16.63,17-17.69,27.27-.82,7.77,2.11,13.9-2.22,22.11-1.12,2.13-2.65,3.94-5.71,7.56-7.78,9.2-11.44,10-12.71,15.11-.91,3.6-.59,9.24,2.58,11.42,5.45,3.77,14.61-6,19.9-2.39,4.73,3.21.91,13.41,6.08,16,2.38,1.2,5.25.1,6.45-.37,4.35-1.68,5.35-5.31,8.48-8.84,3.64-4.13,9.66-7.53,15.11-7.74,2.72-.11,5.23.58,21.56,12,7.17,5,10.76,7.51,12,8.66,10.68,10.09,7.76,16.09,15.84,21.74,7,4.89,10.54,1.33,23.41,6.82a67,67,0,0,1,15.29,9.21c9.1,7,12.8,13.29,25.06,31.15,10.2,14.84,15.29,22.27,17.14,24.32C940.71,757.86,948.78,757,955,770.51c3.09,6.72,2,8.87,7.19,20.64,4,9,5.64,10.07,8.47,17.32,5.16,13.2,2,15.56,5.72,23,4.55,9,9.39,5.89,27.64,20.83,14.14,11.59,9.57,12.11,22.66,22.3,3.81,3,7.38,5.38,7.56,9.21.24,5-5.69,6.69-10.69,14.56-4.56,7.18-1.86,9.33-6.08,20.08-3.86,9.85-7,10.32-12.35,20.83a83.7,83.7,0,0,0-7.55,22.48c-4,21.06,2.88,29.33-4.43,38.15-2.31,2.79-5.66,5.16-9,11.24-2.21,4-2.33,5.77-4.06,9.39-2.54,5.32-5.62,8.44-11.24,14-12,11.89-18,17.84-21.38,20.82-16.62,14.69-16.15,12-18.61,15.85-7,11-5.4,24.31-3.32,42,1.2,10.18,2.31,10.36,3.32,21,1.12,11.73.32,17.17.19,28.74-.32,27.28,3.8,24.65,2.76,45.7-.8,16.15-3.48,22.8,1.29,32.25,3.05,6,6.52,8,6.63,13.46.13,6-4,10.82-13.45,19.53a305.54,305.54,0,0,1-27.09,22.3c-17.54,12.41-22.68,13.62-27.82,22.29-3,5-3,7.5-7.19,12.72-5.91,7.35-11.45,9.35-11.61,14.74-.11,3.67,2.34,6.47,3.13,7.37,4.08,4.67,10.52,5.13,13.45,5.35,37.06,2.74,37.47,5,53.63,3.13,16-1.87,24-2.8,30.59-7.74,2.81-2.1,6.34-5.45,12.72-7.74a37.46,37.46,0,0,1,14.74-2c11.1.85,19.13,7.49,23.77,11.43,25.06,21.27,44.8,38.27,59.34,49.57,9.71,7.55,14.57,11.33,20.45,14.74,21.26,12.35,32.17,10.44,49.39,24.14a102.57,102.57,0,0,1,14.19,13.82c7.67,9.32,6.8,12.14,14.37,21.57,8.76,10.89,12.35,10.15,15.3,17.69,1.85,4.74,1.85,9.79,1.84,19.9,0,15.12-2.18,15-.55,19.16,4.33,11.09,18.46,9,22.48,20.83,1.24,3.67.56,5.85,3,11.79a44.29,44.29,0,0,0,5.9,10.32c14.3,19.21,36.35,41.3,52.88,59,4.45,4.75,9.46,10.21,18.06,13.45a38.67,38.67,0,0,0,21,1.84c9.62-1.92,15.65-7.22,22.11-12.89,9.52-8.37,16.75-18.53,19.54-22.49,6.59-9.36,10.11-16.56,15.29-16.21,2.2.14,3.81,1.58,5.53,3.13,3.74,3.35,4.47,7,7.19,14,0,0,1.91,4.94,4.61,10.51,6.16,12.75,9.9,14.14,10,20.45,0,5.18-2.46,6.67-.92,9.77,2,4.14,6.86,2.17,11.24,7,3.33,3.68,2,6.42,6.45,11.43,2.64,3,3.56,2.51,4.6,4.24,2.72,4.5-1.93,10.4-8.84,24.14-8.85,17.59-6.66,18.75-12.9,26.9-3.34,4.37-5.36,5.84-5.53,9.22-.3,5.88,5.46,8.65,10.87,18.24,2.32,4.11,3.31,7.21,5.16,13.08,3.68,11.63,7.24,22.88,4.06,35-2.42,9.23-6.2,9.25-6.45,17-.2,5.91,2,7.64,6.26,20.82,4.52,13.86,2.85,14.16,5.53,18.25,3.66,5.57,7.34,5.91,24.51,14.19,15.44,7.44,23.16,11.17,28,16,6.59,6.61,6.8,10.42,14.19,14.93,7.19,4.38,11.87,3.74,13.82,7.92,1.81,3.88-.94,7.2-4.61,16.77-5.34,13.93-3.06,16.14-7.37,25.61-1.5,3.31-4.07,8.07-14.37,19.35-8.6,9.42-13.75,13.71-35.38,33.54-11,10.1-17.11,15.81-21.56,26a62.77,62.77,0,0,0-4.06,13.63c-3.75,18.34.94,25.13-1.66,41.65a74.64,74.64,0,0,1-6.63,21.19c-8.79,17.63-18.55,17.75-22.85,31.88-.6,2-4.43,15.24,2.39,26.91,5.59,9.54,15.41,13.07,22.12,15.48,21.36,7.67,37.37.58,41.09,7.92,2.57,5.07-4.35,9.85-1.84,18.06,1.8,5.9,6.51,7.15,13.82,12.9,6.87,5.4,6.38,7.18,24.88,31.7,13.94,18.47,12.72,15.47,14.74,19.16,7.63,13.9,9.07,27.46,10.5,42.38.87,9,.36,9.7.93,26,1.38,39.92,4.76,44.55,1.65,62.28-.53,3-.2.5-6.08,25.44-3.46,14.69-4.08,17.76-6.81,22.66-3.71,6.66-6.38,7.88-8.11,14-1.32,4.65-.75,7.37,0,16.58,1.26,15.65,1.84,23.55-.56,27.09-2.23,3.31-5.24,4.06-20.45,7.37-22.37,4.87-33.6,7.31-36.12,7.37-18.79.51-24.6-5.28-32.8,0-2.2,1.42-2.63,2.38-11.61,18.8-8,14.62-11.29,20.5-17,27.46-8.2,10.06-12.18,11.12-13.64,11.42-5.83,1.21-8-2.13-18.61-4.05-11.3-2-11.67,1.24-19.54-.92-12.11-3.32-16-12.44-21.93-10.51-1,.33-3.12,1.32-6.08,8.3-3.39,8-4.48,15.86-4.24,36.85.19,16,.9,18.63,1.85,21,3.34,8.46,7.32,8.47,12.16,17.69,3.66,7,4.47,13.19,6.08,25.62,1.46,11.21,2.23,17.16.74,25.06-1.25,6.59-2.64,6.94-8.66,21.74-5.22,12.81-7.82,19.21-9.4,27.09-3.13,15.58,1.12,17-2.58,27.09-1.76,4.8-7.44,11.19-18.8,24-11.19,12.58-14.16,14.51-18.06,15.11-5.11.78-9.83-1-17.69-4.06-10-3.84-10.52-6.26-15.11-6.26-7.37,0-13,6.26-18.43,12.35-10.31,11.51-7.89,16.5-15.29,21.19-7.88,5-11.53-.08-24,4.42-10.09,3.65-8.32,7.22-22.11,14-2.6,1.27-2.63,1.13-22.3,8.66-9.55,3.65-14.33,5.48-14.74,5.71-14.28,8-12.15,17.72-24.88,25.25-9,5.32-10.11.46-23.77,7-8.9,4.25-17.7,10.75-22.12,14-8.6,6.35-8.16,7.1-11.24,8.11-8.87,2.93-12.79-3.23-28-5.16-8-1-14.39-.27-24.69.92a151.89,151.89,0,0,0-17.14,3c-9.66,2.28-12.74,4.09-20.82,6.64-18.21,5.72-20,2-35.75,7.37-8.57,2.92-14.84,6.34-22.49,10.5-11.32,6.17-22.3,13.57-23.21,14.19-9.51,6.43-11.78,8.77-18.43,11.43a57.18,57.18,0,0,1-16.4,3.87c-5.52.43-12.5,1-19.91-2.22-8.8-3.79-13.36-10.78-17.5-17.13-4.42-6.78-6.29-12.47-9.4-21.93a160.25,160.25,0,0,1-5.71-23c-1.67-9.68-2.06-17.1-2.58-27.46-1.17-23.33.81-23.82-1.85-28.74-5.08-9.46-12.48-7.92-21.74-21.2-4.77-6.83-3.17-7.76-7.37-13.63-6.89-9.63-13.82-10.82-28.38-19.72a205.14,205.14,0,0,1-30.41-23c-13-11.82-14.37-16.24-22.66-18.79-7.64-2.35-14.08-.94-26.72,1.84a116.87,116.87,0,0,0-28.75,10.5c-13.31,6.92-11.14,8.91-19.35,12-14.77,5.53-20.18-1.49-37.41,3.5-8.57,2.49-7.6,4.34-20.09,9.4-11.79,4.79-14.6,3.93-32.24,8.66-31.87,8.55-26,12.22-46.07,16.22-4.87,1-12.67,2.23-17.51,8.48-2.78,3.57-2.32,5.86-4.61,11.61a48.1,48.1,0,0,1-14.37,19.53c-5.2,4-9.06,4-27.83,6.27-20.32,2.46-30.48,3.69-40.72,5.34-21.15,3.4-25.06,5.51-31.33,2.21-5.82-3.06-10-8.84-17.14-8.11a12,12,0,0,0-6.82,2.77c-7.1,6.4,1.22,18.57-4.79,26.72-4.81,6.53-16.69,7.57-24.51,4.42-5.49-2.21-5.59-5.11-15.29-14.74s-15.43-15.17-22.49-14.93c-5,.17-8.29,3.22-14,8.48-10.59,9.76-15.85,21.29-22.11,35.38-1.48,3.32-.93,2.32-4.06,9.58-3.46,8-7.29,16.63-11.79,25.8-8.36,17-10.41,18.49-12.53,19.17-6,1.91-14-1.32-17.33-6.45-1.78-2.79-.85-4.05-2.58-9.22-1.8-5.4-3.55-6.23-7.73-13.26-3-5-6.52-11.06-8.3-19.17a50.31,50.31,0,0,1-1.1-11.61c0-2.14.12-8.48,4.05-25.8,1.83-8.05,2.77-10.93,1.48-11.79-2.39-1.59-7,7.28-18.06,9.58-4.56.94-7.31.17-13.09,2.4a39.5,39.5,0,0,0-7.37,3.87c-6.25,3.95-7,6.15-12.16,9.39-4.95,3.13-7.58,4.79-10.51,4.43-6-.74-9.29-9.44-15.29-25.8-3.25-8.88-6-16.48-7.92-27.46-1.85-10.78-.54-11.49-2.58-20.09-2.86-12-5.8-12.18-8.67-23.58a75.07,75.07,0,0,1-1.84-26.17,83.33,83.33,0,0,1,5.35-20.64c9.76-23.19,44.22-38,62.47-46.81,26.45-12.81,49.49-31.72,74.26-47.54,33.45-21.36,57.44-39.24,105.41-75,94.09-70.15,60.66-53.36,105.59-84.77,15.18-10.61,32.58-22,43.31-44.23,2.64-5.48,6.92-19.2,15.48-46.62,6.82-21.88,5.49-19.18,9.76-32.07,5.8-17.48,9.11-25.06,12.17-39.62a195.21,195.21,0,0,0,3.13-19.9c1.93-18.9,0-31.09-2.58-55.47-2.95-27.88-1.36-20.92-4.24-47.73-3.67-34.14-7.78-59.77-8.66-65.23-5.14-31.69-7.82-38.7-15.11-75.56-7.14-36-6-36.54-16-94-8-45.51-11.93-68.27-18.62-98.77-5.91-27-13.24-60-26.16-102.46-8.32-27.29-22.49-70-22.49-70h0s-26.5-34.56-46.62-66.15c-14.4-22.62-23.09-39.87-33.91-61.37-5.29-10.51-22-44.09-40.35-91.59-14.39-37.13-26.76-69-37-112.77-11.95-50.81-5.67-52-19.54-107.62-9.73-39-15-47.26-16.4-73-.56-10.47-.37-21.92,9.4-80.34,7.39-44.21,11.09-66.32,15.66-85.33,7.31-30.35,14.82-61.53,31.52-99.32,12.44-28.16,15.2-26.55,38.88-76.66.61-1.31,12.79-27.24,25.8-62.29,6.89-18.57,11.58-33.16,13.45-52.15,1.17-11.86-.22-10.68.74-25.43a267.28,267.28,0,0,1,12.16-62.84,282,282,0,0,1,13.64-34.46c16.71-36,33.34-60.89,49.2-85.69,20.1-31.44,41.33-64.66,63.94-107.44,14.43-27.29,25.38-50.83,33.36-68,9.11-19.6,19.32-41.65,31.14-71.69,5.91-15,9.88-26.08,14.74-39.62,7.89-22,16.53-46,25.8-76.84,5.4-18,5.94-21.28,10-32.07,6.54-17.55,9.91-21.53,12.53-34.27,1.61-7.79,1.81-15,2.22-29.49.45-16.24-.1-24.63-.19-35a363.25,363.25,0,0,1,3-48.84A11.53,11.53,0,0,1,544.41.22Z"/></g></g></svg>