<svg xmlns="http://www.w3.org/2000/svg" viewBox="0 0 2224.32 1691.38"><g id="Layer_2" data-name="Layer 2"><g id="Lithuania"><path d="M2103.08,869.83a1.91,1.91,0,0,0-.75-.54c-3.73-1.57-9.14,3.41-10.4,4.58a27.2,27.2,0,0,0-5.82,8c-2.29,4.63-2.46,7.94-3.88,8s-1.55-3.15-4.57-4.58c-1.9-.89-2.49.07-6.1-.55-3-.52-2.83-1.24-6.1-1.8-2.35-.41-4.37-.76-6.52.13-1.47.62-1.72,1.28-2.77,1.25-1.53,0-2.4-1.47-4.16-3.33a22,22,0,0,0-5-4.15c-3.54-1.88-7.56-.93-12,.13-2.93.7-4.4,1.05-6,2.22-1,.75-1.73,1.58-5.13,7.07-2.88,4.64-2.81,4.78-3.47,5.27-2.84,2.1-5,.1-10.25,1.25-4.29.93-7.22,3.21-9.85,5.26-3.77,3-5.66,4.42-5.82,6.38-.21,2.68,3.46,6,10.81,12.61,3,2.67,4.86,4.18,5,6.66a7.13,7.13,0,0,1-2.77,5.68c-3.12,2.43-6.11.29-8.73,2.63-1.94,1.73-2.12,4.51-2.22,6.1-.3,4.68,2.33,5.43,1.94,9.43-.06.65-.15.82-3.88,8.59-1.85,3.87-1.92,4-2.22,4.57a84,84,0,0,1-4.57,7.63c-2.36,3.61-3.54,5.42-4.44,6.23a17.46,17.46,0,0,1-8.17,3.89c-4.94,1.17-6.11-.13-13.31.41-5.47.41-8.25.66-10,2.63-2.59,3,0,6.08-2.36,9-3.35,4.18-11.1,1-13,4.72-1.15,2.21,1.2,4.11-.28,7.07-.72,1.43-2.1,2.24-4.85,3.88a36.07,36.07,0,0,1-7.77,3.46c-4,1.22-6,1.83-7.9,1.39-4.61-1.1-4.41-5.84-9.42-7.49-2.57-.84-4.87-.34-8.32.42a30.72,30.72,0,0,0-8.87,3.6,61.29,61.29,0,0,0-10,7.07c-2.39,2.16-3.1,3.22-5.13,3.88a12.16,12.16,0,0,1-7.07-.14c-2.94-1-3.13-2.36-4.85-2.21-1.52.13-2.83,1.66-5.4,4.71a26.89,26.89,0,0,0-2.91,3.74c-2.6,5,1.65,9.18,0,14.28-.9,2.76-2.38,2.29-6.66,6.65-8.32,8.48-6.52,14.12-13.3,17.74-3.2,1.71-5.3,1.37-7.63,4a11.46,11.46,0,0,0-2.91,7.62c.14,2.65,1.38,3.15,1.25,6a10.36,10.36,0,0,1-1.8,5.26,12.76,12.76,0,0,1-4.71,3.88c-3.57,2.07-4.4,1.42-6.24,2.78-2.14,1.58-2.81,4-4.16,8.73s-2.18,7.74-1.25,11.22c.73,2.72,1.72,2.8,3.19,6.66a31.4,31.4,0,0,1,1.8,7.9,84.17,84.17,0,0,1,0,18.71c-4,29.74-7.44,36.87-3.88,47.54.65,1.94,1.56,4.09,2.91,8.6a142.45,142.45,0,0,1,4.16,18.43c1.28,8,.27,5.93,1.66,15.8,1,7.21,2,11.17,0,15.94a17.22,17.22,0,0,1-2.77,4.58l-27.72,23.28a90.17,90.17,0,0,1-4.71,12.06c-3.32,7-4.66,7.41-6.65,12.89-2.48,6.8-1.13,8-3.75,11.37-4.42,5.61-7.62,7.2-7.62,7.2a4.91,4.91,0,0,0-2.63,2.22c-.77,1.75.23,3.79.83,5,1.35,2.68,2.76,3.38,4,5,3.94,5,1.86,13,1.11,15.94a22.39,22.39,0,0,1-2.91,6.93c-4.18,6.43-8.58,5.33-10.54,10s1.71,7-.83,12.61a11.08,11.08,0,0,1-4,5c-3.38,2.16-5.67.44-7.48,2.08-3.42,3.09,2.06,11.56-1.11,14.42-2.54,2.29-8.35-1.09-9.15.41-.66,1.24,3.46,3.11,5.54,8,2.2,5.2,0,8.69,2.22,10.12,1.55,1,4.13.15,9.29-1.52,3-1,2.89-1.26,3.88-1.25,4,0,4.62,4.71,9.42,6.24,4,1.26,7.86-.56,8.74-1,2.53-1.2,2.49-2.22,5-3.88,3.36-2.26,9.32-4.34,13.3-2.08,1.8,1,1.11,1.74,4.85,7.48,3.57,5.49,5.79,7.28,5.13,9.7-.42,1.57-1.51,1.4-2.49,3.47-1.1,2.29-1.48,6.06.27,8,2.38,2.69,6.41-.52,12.2,2.08a14.71,14.71,0,0,1,6.38,5.54c1.76,2.92.79,4,3.19,8.87a17,17,0,0,0,3.46,5.27c1.88,1.83,2.9,1.79,3.19,2.91s-.27,2.28-5.55,7.62c-3.62,3.67-4.48,4.2-4.57,5.55-.14,1.93,1.49,2.91,4.85,6.65,3.55,4,7.66,8.52,6.52,11-.81,1.72-3.46.73-4.72,2.77-1.42,2.32.35,6.24,1.67,9.15s2.26,3.78,2.08,5.82a5.52,5.52,0,0,1-1.81,3.74c-.65.52-2,1.21-8.17,0a42.11,42.11,0,0,1-6.66-1.66c-6.06-2.12-6.77-4-9.28-3.6-3.25.56-5.22,4.29-6.24,6.23-2.42,4.58-.46,5.77-2.5,8.46-3.21,4.25-9.32,2.9-11.92,7.48a4.13,4.13,0,0,1-1.52,1.81c-2.33,1.35-5.78-.65-6.1-.84-4.19-2.48-3.17-6.22-6.79-8.45-1.46-.9-1.78-.39-7.62-1a82.89,82.89,0,0,1-12.76-2.22c-4.15-1.1-6.22-1.65-8.31-2.91-4.79-2.88-7-7-9.57-11.78-2-3.72-3-5.62-2.21-7.49.34-.83,1.09-1.83,7.2-4.29,6.59-2.66,7.81-2.36,9.15-4,2.14-2.67,1.5-6.56,1-9.7-1.15-6.91-4.82-11-3.74-11.92s3.58,2.3,8,1.94c.81-.07,3.58-.3,4.57-2.08.84-1.5-.05-3.24-1.94-7.49-2.32-5.22-3.48-7.84-3.74-8.87-1.6-6.28.89-9.14-1.53-11.78-.63-.69-1.11-.83-6.23-2.36-9.15-2.72-9.41-2.81-9.84-3.32-2.49-2.94.58-6.42-1.94-14-.68-2-1.39-4.07-2.92-4.44-1.83-.44-3.24,1.9-7.48,5-2.93,2.14-4.61,3.36-6.93,4-5.45,1.55-7.61-2-13.17-.55-2.67.68-4.37,2.05-7.34,4.43-5.58,4.48-4.68,6.59-8.6,8.46-3.7,1.77-5.58.4-9.28,2.91-2.15,1.45-2,2.26-4,3.6-2.62,1.76-5.06,1.89-9.57,2.22-13.38,1-14,1.56-15.8.42-4.08-2.65-4.42-8.17-6.1-7.91-.92.15-1,1.85-2.49,5.55-1.63,3.91-2.94,7.06-5,7.35-1.58.21-2.08-1.49-6.38-3.33-1.75-.75-2.64-1.12-3.6-1-2.8.44-4.32,4.52-5,6.37-3.67,10.17-3.8,14.91-5.55,19.55-2.82,7.53-6.4,5.5-16.91,18.16-4.8,5.78-3.65,5.72-12.89,18-6.88,9.17-9.28,11.55-12.19,13.73-3.65,2.72-8.4,6.27-15.39,6.79-7.33.54-13-2.58-15.8-4.16-3.59-2-6.6-3.66-8.73-7.21-2.45-4.08-1.51-6.94-4.44-9.56-2.62-2.35-6.07-2.46-7.34-2.5-4.85-.15-7.5,2.32-15.25,6.8-6.57,3.78-9.85,5.68-12.48,6.37a81.77,81.77,0,0,1-18.57,2.77c-1,0-3.78,0-4.16,1.11-.53,1.58,4.39,3.54,4.16,6.66-.08,1.19-.89,2-2.22,3.32-.59.59-2.18,2.08-6.37,3.74-3.39,1.35-3.84,1-6.52,2.22s-4.24,2-5,3.47c-.4.81-1.14,3,3.05,9.56,5.53,8.62,9.15,8.43,11.37,14.42.69,1.87,0,.86,1.66,10.11,1.5,8.11,2.16,9.43,2.77,10.4,2.89,4.57,6.6,4.64,6.66,7.35.05,2.55-3.25,2.78-5.69,7.48-1.72,3.33-.55,4.15-2.35,7.9-1,2.1-2.79,5.81-6.38,7.21-3.37,1.31-5.17-.64-8.31,1.25-2,1.2-2,2.43-3.89,2.91-2.3.58-3.46-1-5.54-.56-1.87.39-2.9,2.07-4.3,4.3-.49.79-1.66,2.78-3.74,9.56-1.16,3.81-1.11,4.22-1.8,4.72-2.33,1.67-5-1.52-10.67-1.11-4.15.3-5.89,2.27-7.07,1.24-.7-.61-.84-2,1.25-8.87,1.24-4.13,2.1-6.34,3-9.14,2.59-7.68,3.86-11.55,2.5-13.17-2.07-2.48-8.09-1.19-10.4-.7-1.73.38-1.77.61-5.26,1.53a50.91,50.91,0,0,1-7.07,1.52c-5.31.64-6-.76-8.6.14-3.1,1.07-3.24,3.4-6.65,7.21-2,2.23-5.35,4.26-12.06,8.32-6.18,3.74-6.74,3.62-11.92,6.93s-7.63,4.89-9.84,7.48c-.83,1-1.65,2.08-5.68,9.29-3.4,6.07-3.09,6.17-4.71,8.59-2.83,4.22-3.71,3.88-8.18,9.29-5.58,6.74-5.36,8.66-8.46,9.84-2.65,1-3.16-.27-10.39-.14a48.42,48.42,0,0,0-9.7,1c-5.2,1.11-5.58,2.25-9.85,2.91a20.78,20.78,0,0,1-9.56-.28c-.41-.11-9.22-2.84-11.5-10-1.09-3.42-.2-6.31-1.53-6.8-1.68-.62-3.79,3.74-6.1,3.19-1.35-.32-1.4-2-3-5.4-2.4-5-3.74-4.37-6.93-10.12-1.77-3.21-2.18-4.88-3.46-5-1.62-.15-2,2.4-4.85,3.46a7.82,7.82,0,0,1-7-1c-2-1.45-2.72-3.61-3.4-5.74-1.4-4.38-.34-6.61-1.94-7.76-.5-.36-1.53-.81-5.13.28-4.1,1.23-5.68,2.7-9,4.43-4,2.08-7.92,4.13-12.75,3.88-3.7-.19-5.13-1.59-7.21-.41-1.92,1.09-2.82,3.49-3.74,6-1.16,3.12-.58,3.58-1.38,4.85-1.76,2.75-5.81,2.52-12.34,3.19a130.92,130.92,0,0,0-13.31,2.21c-9,2-10.76,3.78-16.21,3.33-3.57-.29-6.58-.54-8.32-2.77-3-3.92,1.11-9.77-2.5-14.28-.62-.77-.68-.53-3.88-2.63-8.11-5.34-10.72-8.94-13.16-7.9-.69.29-1.09.83-1.81,1.8-1.3,1.76-1.37,3.25-1.94,5.13a14.54,14.54,0,0,1-2.91,5.54,10.2,10.2,0,0,1-7.9,3.19c-2.65-.2-3.06-1.52-8.87-4.57-3.92-2.06-5.92-3.09-7.62-2.64-2.57.68-2.23,3.08-5.82,6.38-4,3.72-7,3-7.77,5.54-.42,1.47.48,2.18,3.47,8.32,2.78,5.7,2.85,6.85,2.77,7.76-.36,4-4.13,6.51-4.57,6.79-3.54,2.25-8.88,2.5-11.23,0-1.54-1.64-.45-3-1.94-7.62a17.56,17.56,0,0,0-3.88-7.21c-2.44-2.5-5.24-3.22-10.53-4.57a56.32,56.32,0,0,0-9.43-1.53,61,61,0,0,0-11.64-.14c-7.52.73-7.81,2.57-15.39,3.47-5.3.63-8.65,1-12.61-.42-5.42-2-5.61-5-11.64-7.06-4.72-1.58-5.54,0-9.29-1.67-3-1.3-3.54-2.75-9.56-10-5.06-6.06-6.43-7.19-10.12-12.2-5-6.78-5.21-8.39-5.13-9.56.18-2.75,1.89-3.35,7.21-10,3.63-4.54,5.83-7.33,7.34-11.36a30.66,30.66,0,0,0,1.67-8.74c1.42-15.76,2.11-23.71,1.24-27.16a51.37,51.37,0,0,0-6.93-15c-3.5-5.5-4.87-5.66-6.51-9.71-.75-1.83-1-3.19-2.08-16.21-.64-7.85-.73-9.78-2.36-12.2a17,17,0,0,0-7.34-5.68c-6.39-3-9.6-1.17-13.59-4-1.47-1.06-2.37-2.27-5.13-8.46-7.1-15.93-7-20.94-11.92-23.56-3.16-1.67-5-.56-7.62-3s-5.1-7.68-5.27-8a11.26,11.26,0,0,0-2.35-3.46,11.78,11.78,0,0,0-2.22-1.67c-3.25-1.83-7.93-1.07-8.59-1-1.26.2-9-1-24.4-3.46-3.22-.51-5.78-1-7.62-3-1.5-1.71-1.17-3-2.77-7.21-1.41-3.73-2.23-5.9-4.16-7.9-.34-.35-4.35-4.4-10-4.44-3.42,0-4.7,1.45-6.24.42s-.84-3.06-2.36-7.62c-1.06-3.21-1.73-5.23-3.46-6.1-2.89-1.45-7.06,1.16-9.84,2.91-3.29,2.06-3.35,3.1-6.1,4.43a17.4,17.4,0,0,1-8,1.67c-6.63-.14-14.82-4.1-15.38-9.15-.18-1.59.66-3.33,2.35-6.79,2.47-5,4-5.62,3.74-7.35s-2.2-2.32-10.81-6.51a43.67,43.67,0,0,1-10.53-6.66c-2.74-2.41-3.41-3.74-3.33-5,.14-2,2.19-2.38,3.74-5.4.24-.45,2.35-4.55.84-6.93-1.26-2-3.91-1-10.26-2.36-4.45-.93-4.36-1.65-9.43-2.91-1.73-.43-2.75-.59-11.22-1.66-10.1-1.27-13.68-1.67-14.83-4.16-.74-1.6.08-2.86-1-3.74-1.42-1.19-3.4.65-7.63,1-4.7.36-5.88-1.64-8.59-.42-2,.92-3,2.79-4.3,5.27-1.82,3.49-1.19,4.44-2.77,8.73a26.66,26.66,0,0,1-5.68,9.29c-1.67,1.73-3,3-4.58,2.91-2.07-.17-3.32-2.65-4.85-5.41-4.94-8.89-5.19-6.83-7.76-12.33-2.31-5-1.39-5.07-5.27-18.85-2.82-10-4.26-13.36-7.48-15-2.32-1.16-3.64-.48-6.24-2.08-4.15-2.55-5.58-7.23-6-8.46-2.39-7.77,2.62-10.5,2.08-21.62a36.46,36.46,0,0,0-2.22-11.78c-2.2-5.84-4.89-8-4.29-12.2.22-1.55.51-.74,3.46-6.79s3-7.69,5.41-10.26c1.72-1.87,2.59-2,2.63-3,.1-2.6-5.39-3-8.59-7.9-.32-.47-2.91-4.55-1.67-8.59.58-1.88,1.65-2.64,5.27-5.82,5.29-4.65,7.93-7,9.84-9.43s3.93-5.06,4.85-9c1.25-5.32-.77-7.7,1.39-11.92,1.61-3.15,3.47-3.24,3.46-5.26,0-3.42-5.31-3.71-6.65-8.46-.83-2.91.88-3.86-.14-8.32-.58-2.53-1.24-2.7-1.52-4.85a14.46,14.46,0,0,1,1.38-7.62c2.34-5.76,5.33-6.66,4.85-9.56-.37-2.31-2.38-2.43-2.63-4.86-.17-1.68.66-3,3.33-6.51,3-3.89,4.41-5.44,6.65-8.18,4.58-5.59,5.38-7.42,7.62-7.62s3.29,1.64,5.13,1c2.2-.8,1.63-3.69,4-6.24,2.22-2.36,3.92-1.19,8.32-3.32,1.62-.79,7.22-3.51,8.87-8.6,1.32-4.06-.81-6.77,1-8.31,2.12-1.84,6,1.26,7.76-.42s-1.55-5-1.11-11.09c.38-5.25,3-6.42,2.08-10.53a11.27,11.27,0,0,0-3.46-5.82c-2.75-2.38-5.44-2-5.83-3.75-.27-1.22,1.05-1.67,2.36-4.85.76-1.85,1.44-3.49.83-5-.5-1.23-1.57-1.63-4-2.91-4.35-2.27-5.74-2.27-6.23-3.6-.21-.55,0-.72,1.1-4.44,0,0,.61-2.06,1.81-6.1.64-2.16,1-3.24,1-3.32.44-3.09-1.63-5-7.35-12.62-3.24-4.29-4.52-6.25-6-6-1,.21-1.15,1.27-3.88,4.16-1.41,1.49-2.13,2.24-2.77,2.22-1.86-.06-3.45-4-4-7.07-.83-4.45.46-7.28-.56-7.76s-2.77,3.15-7.07,4.43c-2.75.83-5.81.42-6.09-.55s2.72-1.75,4-4.85c.6-1.45,1.15-4.19-.14-5.82-2.29-2.88-8.42,0-9.84-2.36-.83-1.4,1.13-2.57,1.24-6,.18-5.07-4-8.92-4.85-9.7a12.27,12.27,0,0,0-4.71-2.91c-2.38-.77-3,0-5.13-.7a10.11,10.11,0,0,1-6.1-5.12c-1.45-3.15,0-5.65-1.38-6.38-1.15-.62-3.38.57-4.44,2.22-.89,1.38-.56,2.47-.69,6.51-.13,3.82-.2,5.73-1,6.1-1.46.7-4.77-2.46-6.66-5.54-1.11-1.83-.72-2-3.18-7.9-1.28-3.08-2.11-4.76-2.36-5.27a38.07,38.07,0,0,0-3.19-5.68c-1.2-1.71-1.41-1.6-4.16-4.85-2.33-2.77-3.51-4.19-4-5.55-.72-2-.26-2.57-.55-6-.19-2.24-.45-2.61-1.8-8.59-1.17-5.19-1.75-7.78-1.8-8.73-.31-5.84,1.76-8,.13-10-1.9-2.3-6.38-1.34-6.79-1.25-3.4.77-4.66,3-7.2,5.13-5,4.2-7.48,1.78-18.16,6-7.75,3-7.49,4.71-12.34,5.4-3.79.54-6.13-.18-14.14-2.08,0,0-8.74-2.07-17.46-3.88-6.7-1.39-11.77-2-21.9-3.19-6.6-.78-13.62-1.6-23-2.07-8.39-.43-13.26-.66-20.1,0-3.85.36-7.83,1.21-15.8,2.91-9.5,2-12.2,3.06-13.17,5.4-1.06,2.59,1,4.34-.41,8a11.22,11.22,0,0,1-4.3,5.13c-3.29,2.28-6.7,2.34-10.39,2.36-4,0-10,0-15.67-4a16.48,16.48,0,0,1-6.09-6.93c-1.45-3.4-.41-4.93-.28-14.28.12-8.56-.7-10.68-2.08-12.2a10.84,10.84,0,0,0-5.55-2.91,17.29,17.29,0,0,0-11.5,1c-3.28,1.51-2.83,2.63-6.65,4.58-2.8,1.42-5.92,3-9.15,2.21-3.5-.86-3.6-3.63-8.18-5.68a18,18,0,0,0-6.24-1.39c-2-.2-18-2-27-11.36-3.05-3.16-2.47-4.24-6.1-7.49-2.2-2-6.15-5.49-11.78-6.37-6-1-7.27,2.17-11.92.41-2.19-.82-1.63-1.4-8.46-5.82a29,29,0,0,1-4.57-3.19,21.59,21.59,0,0,1-4.58-6.23c-1.36-2.5-5.66-6.34-14.27-14-6.19-5.51-7.75-6.57-9-7.35-3.68-2.28-6.33-3.92-10.26-4.57-4.13-.69-5.73.37-8.87-1.25-1.13-.58-1.11-.82-5-3.88-3.18-2.51-4.77-3.77-5.41-4-3.24-1.29-5.41.77-12.47,2.91s-10.59,3.21-13.45,1.66c-3.55-1.92-2.59-5.58-7.62-9-2.29-1.56-2.63-.89-5.68-2.91-2.06-1.36-4.92-3.25-6.66-6.65-1.21-2.39-.44-2.73-1.8-6s-2.67-4-4.16-6.79c-2.33-4.37-.6-5.4-2.35-9.29-3.11-6.89-10-6.8-10.4-12.06-.15-2,.74-3.11.14-6.23a12.57,12.57,0,0,0-1.8-4.58c-.73-1.09-2.41-3.6-4.71-4-3.65-.65-4.34,4.77-11.37,7.76-3.79,1.62-7,1.5-8.59,4.3a19.21,19.21,0,0,1-1.67,3,15.2,15.2,0,0,1-3.46,3.33c-3.58,2.72-5.37,4.08-6.1,4.57-3.8,2.55-4.41,2.62-8,5-2.45,1.6-3.15,2.21-5.61,4C118,809.8,118,808,118,806.5c.08-3.11.33-4.67,1.38-6.09,2.11-2.84,5.37-2.41,5.83-4.44.52-2.34-3.3-5.24-3.88-5.68-2.25-1.7-3.92-1.83-3.89-2.5.07-1.34,6.79-.41,10.26-4.57.33-.39,2.11-2.53,1.66-4.85-.41-2.15-2.32-2.25-3.46-4.72-1.26-2.71.43-4-.42-6.93-.57-2-2.37-3.54-6-6.51-4.81-4-6.19-3.92-7.48-6.38-1-1.91-1-3.63-1.11-7.07-.13-6,1.22-9.73.55-10s-1.68,3.85-5.54,7.2c-1,.86-6.24,5.21-11.37,3.47a7.18,7.18,0,0,1-4.15-3.19c-2.12-4.13,2.67-9,9.14-21.21,2.84-5.33,5.41-10.15,7.21-16.35,1.94-6.69,2.08-11.84,2.22-18.85.51-26.05.74-39.15-.69-42.83-4.24-10.87-9.41-11.19-12.06-23.15-1.73-7.79.13-9.16-1.8-18-1.84-8.41-4.41-11.25-9.43-22.73-3.67-8.39-6.38-14.58-8.32-22.73-3.68-15.5-.38-20.37-5.54-35.21a94.72,94.72,0,0,0-5-11.64c-2.77-5.35-5-8.34-10-15.66-5.77-8.5-8.65-12.74-9.43-14.28-4.47-8.86-3.4-15-4.15-34.79-.34-9-.85-15.19-1.67-25.23-2.15-26.42-4.54-31.73-4.43-48.92,0-5.22.48-10.6,1.38-21.35,2.79-33.23,5.74-40.86,6-59.74a190.56,190.56,0,0,0-2.35-32,70.81,70.81,0,0,0,18.29-5.68c7.31-3.44,12.05-7.28,16.22-5.27,1.85.89,2.35,2.33,6.79,5.13,2.51,1.58,3.76,2.37,4.85,2.36,2.53,0,4.65-2.5,9.71-11.37,3.92-6.88,5.88-10.32,6.65-12.47,6-16.86-5.45-28.1,1.11-35.62,3.95-4.54,9.27-1.75,15.66-8.74.2-.22.07-.07,5.82-8.31,2.74-3.92.38-.53,7.35-10.4,3.83-5.42,4.42-6.28,5.82-7.76a33.2,33.2,0,0,1,6.93-5.82c4.07-2.47,7.45-3,10.81-3.74A82.27,82.27,0,0,0,177,144.24c5.08-2.86,10.92-6.15,15.1-12.75.85-1.33.29-.7,5.27-10.53,4.23-8.35,5.07-9.68,6.93-10.95,3.3-2.25,7.41-2.68,10.95-3.05,4.61-.49,5.21.34,7.35-.7a11.42,11.42,0,0,0,6.08-9.77c0-2.22-.84-2.63-.45-3.9,1-3.36,7.94-4,13.77-4.48,10-.83,17.11-1.42,22.46,2.91,1.87,1.51,2.77,3,5.4,3.88,3.24,1.06,4.53-.34,9.71-.56,6.59-.28,8.22,1.84,11.5.28,2.43-1.15,3.22-3.11,5-6,1.42-2.28,4.69-5.72,11.23-12.61,3.1-3.27,1.3-1.17,17.74-15.8,2.18-1.94,4.77-4.26,8-4,2.48.18,3.37,1.68,6.79,2.91,3.08,1.1,5.59,1,8.73,1,2.87-.07,9-.22,15.11-3.61,7.68-4.28,9.6-10.61,13.86-9.84,2.48.46,2.73,2.77,4.71,2.64,3.47-.23,5.9-7.49,8-13.86,2.2-6.56,1.75-7.76,3.74-9.84a13.86,13.86,0,0,1,11.79-3.89c2.71.47,2.93,1.55,5.54,1.95,4,.6,7.16-1.38,10.26-3.05,9.35-5.06,14.87-8,20.23-6.93,4.87,1,5,4.44,12.34,6.37a33.43,33.43,0,0,0,8.18,1c8.8.22,10.89-2.18,13.44-.41,3.55,2.44.54,7.8,4.71,12,3.55,3.62,9.16,3.25,9.85,3.19,3.88-.31,4.48-2.19,10.11-4.43,4.9-2,9-3.6,12.89-2.22,5.59,2,5.32,8.45,10.26,9.29,3,.5,3.4-1.79,9.29-3.19s7,.59,11.92-1,5.25-4.09,9.28-4.71,6.41,1.31,10.68,3.18c7.62,3.35,8.6,1.17,19.4,4,13.42,3.55,12.4,7,21.9,8,7.2.76,9.39-1.09,16.08,1a34,34,0,0,1,11.5,6.24c5.51,4.68,4.81,7.43,10.26,11.5,2.75,2.06,6.6,4.93,11.09,4.3s7.77-4.38,10.67-7.62c3.61-4,4.35-6.69,6.93-6.93,2.06-.2,3.06,1.33,6,2.91,3.1,1.68,5.9,2,11.51,2.49a85.45,85.45,0,0,0,18.57-.41,133,133,0,0,0,15.52-2.64C735,53.29,740.39,52,742,48.88c2.07-4-1.21-7,.84-12.89a16.78,16.78,0,0,1,6.23-8c1-.73,7.43-5.21,11.92-2.91,2.17,1.11,1.68,2.66,4.3,4.3,3.47,2.17,5.63.26,8,1.94s1,4.48,3,13.3c1.37,5.89,2.9,8.3,1.39,10.68-1.29,2-3.55,2.11-3.75,3.88-.18,1.61,1.59,2.54,3.19,4.57,2.39,3,1.21,4.44,3.19,10.12,1.69,4.86,2.47,3.6,6.51,12.06,1.33,2.78,2.36,5.25,3.47,5.13s1-3.25,3.05-4.44c1.81-1,4.71-.25,6.51,1.25,3.71,3.07,1.59,8.16,4.85,10.26,2,1.27,4.55.53,6.38,0,5.13-1.49,5.39-4.52,10.67-8.32s9.62-4,15.94-9a6.36,6.36,0,0,0,2.36-3.05c.93-2.92-1.33-5.16-2.5-8.73-1-3.17-1.68-8.84.7-11.78s9.53-2.45,23.7-1.25c6.85.58,9.27,1.07,12.89-.28,5.17-1.92,5.42-4.84,10.12-7.34,3.88-2.08,9.29-1.64,20-.7s16.13,1.5,20.51,4.72a32.16,32.16,0,0,1,7.07,7.34c3.7,5.34,3,7.93,5.82,9.57,4.11,2.41,7.23-2.29,13.45-1s6.74,6.63,13.86,10.25A27,27,0,0,0,979.2,80.9c9-.88,10.86-6.56,23.42-13.45a83.61,83.61,0,0,1,19.83-7.62c14.07-3.69,14.22-.19,25.08-4,4-1.42,8.74-3.57,13.86-1.8,1.58.54,4.17,1.44,5.27,3.74,2.19,4.6-4.51,8.63-5.27,18-.4,5,1,10.9,3.47,11.51,1.44.34,3-1.12,5.68-3.75,4-3.93,4.39-5.67,6.1-7.2,6.6-5.94,17.3,5.77,32.16,1.52,2.87-.82,7.61-2.73,10-.55,1.47,1.34.73,3.07,2.21,4.57,2.14,2.16,5.56.48,11.09.28,8.29-.31,8.74,3.15,16.08,2.49,6.27-.56,9.47-3.4,10.95-1.8,1.29,1.38-.75,3.9-.14,10.12.22,2.25.34,3.38,1.11,4.57,1.84,2.83,4.58,2,7.07,4.72,1.35,1.47,1.78,3.24,2.63,6.79,1.34,5.54.28,7,1.67,8.17,2.1,1.83,5-1.08,11.36-.27,2,.25,5.83.73,7.77,3.46,1.14,1.62.52,2.45,1.38,6.52.83,3.91,1.56,7.35,4,9,1.22.82,2,.62,7.76.55,9.18-.11,9.1.35,10.81-.28s2.32-1.22,8.6-7.07,6.07-5.7,6.24-5.82c7.44-5.25,11.62-.77,19-5.82,2.89-2,5.14-4.64,8.74-4.43,1.62.09,3,.65,3.74-.14.4-.44.55-1.24-.69-5.41s-1.76-4.56-1.39-5.13c.81-1.26,4.06.09,12.75,1.94,6.08,1.3,7,1.38,8.32,2.36,2.29,1.66,1.56,4,4.85,11.09,1.3,2.81,2,3.76,2.91,3.88,1.91.24,2.6-3.21,5.54-4.3,3.33-1.23,7.2,1.43,9.57,3.05,5.85,4,5.32,7.36,9.7,9.29,4,1.76,8.09.59,10.67-.14,6.54-1.86,6.62-5.13,14.28-9.29,4.54-2.46,9.37-5.08,15.66-5.12,2.67,0,6.54.41,11.37-1.39,1.91-.71,2.86-1.07,3.6-1.8,3.61-3.57-.72-9.37.83-18a27.26,27.26,0,0,1,6.1-12.34c5.54-6.83,9.21-5.08,11.37-10.12,2.29-5.33-.83-9.58,2.91-15.52a8.08,8.08,0,0,1,2.63-3.05c4.2-2.54,8.37,2,15.11.56,1.22-.27,4.89-1.07,6.93-4,3-4.29-.87-8.25,1.52-11.92,2.92-4.47,12.07-4,18-3.61,7.21.41,8.53,2,11.65.56,4.73-2.26,4.27-7.26,9.28-9,1.11-.39,3.47-.26,8.18,0,6.15.33,7.84.95,10-.28a9.17,9.17,0,0,0,3.74-5c1.9-5-1.11-7.46.14-11.92,1.36-4.82,6.85-8.94,10.81-8.18,1.33.26,2.16,1,6.93,6.79.92,1.12,1.78,2.17,2.57,3.15l-.63,1.71c-1.71,4.78-2.42,7.67-2.21,11.22a19.57,19.57,0,0,0,2.63,9.29c3.17,5.24,6.67,4.59,8.18,8.87,1.4,4-1.27,5.64.55,9,.37.69.84,1.27,7.21,5.82,3.89,2.78,4.51,3.13,5,4.16,1.26,2.73-1.93,4.09-2.22,9.15-.14,2.55.48,4.72,1.66,8.87.87,3,1.08,2.75,1.53,4.57,1.62,6.56-1.37,8.77.42,12.48,1,2.08,1.86,1.22,7.62,6.23,3.07,2.67,4.6,4,5.68,6,2.11,3.8.52,5.17,2.5,8.46s5.6,5.07,7.76,6.1c4.08,1.93,6.63,1.69,7.9,4a6.15,6.15,0,0,1,.41,4c-.29,2.08.5,8.22,2.08,20.51.93,7.16,1.39,10.74,2.5,13.17,2,4.42,3.8,5,5.54,10,1.88,5.34.77,7.31,2.78,8.87,2.72,2.1,5.39-1,11.36.69.76.22,3,1.35,7.49,3.6,5.06,2.56,5,2.66,6,2.92,2.56.67,5.34,0,10.81-1.25,6-1.43,9.06-2.17,10.53-3.74s2-3.29,4.44-4.72c1.17-.68,2.5-1.46,3.88-1.24,3.32.51,3,6.16,7.34,11.64,3.65,4.63,5.22,2.32,10.68,7.9,4.22,4.32,5.81,8.3,10,9a10,10,0,0,0,3.74-.14c2.07-.54,2.69-1.57,4.71-2.91a18,18,0,0,1,8.46-2.91c2.45-.11,2.3.62,5.26.83,6,.42,7.87-2.53,10.81-1.11,2.61,1.26,2,4,5.13,5.27a6.82,6.82,0,0,0,4.85.14c2.76-1.12,2.58-3.8,4.58-4.16,1.74-.32,2.58,1.57,6.1,3.46a21.84,21.84,0,0,0,6.1,2.08c3.83.87,7.62,1.74,11.08,0,1.72-.86,2.67-2.05,4.58-4.43,3.78-4.74,3.78-7.59,6.1-8.18,1.62-.41,3.1.61,5.4,2.22a22.67,22.67,0,0,1,7.49,9.56c1.42,3.26.73,3.47,1.8,4.71.75.88,2.52,2.46,13,2.91,5.36.24,4.77-.18,8.45.14,6.2.55,7.52,1.7,9.84.56,1.2-.59,1-1,5.55-5.82,3-3.24,3.62-3.63,4.16-3.47,1.87.56,1.81,7.52,1.8,8.59,0,2.86-.45,4.46.69,5.83.8,1,1.54.82,3,1.8a12,12,0,0,1,3.74,4.29c1.5,3-.28,5.26-1.38,11.51-1,5.49-1.71,9.68.41,12.2s5.16.54,10.68,2.49c7.52,2.67,6.44,8.14,14.13,11.37,4.29,1.8,4.87.2,13.59,2.77,4.77,1.41,7.2,2.14,8.87,3.88,3.51,3.65,2.08,7.49,6,10.4a19.74,19.74,0,0,1,5.68,5.82c2.9,4.58.47,10.83,3.19,16.08a13.13,13.13,0,0,0,6.37,5.68c4.72,1.93,7.55-.61,13.45,1.25,2.3.72,1.6,1,6.38,3.46,6.41,3.27,7.53,2.66,13.3,5.68,3.84,2,6.16,3.23,8.59,5.83s2.12,3.43,4.16,4.71c2.76,1.72,4.24.7,8.74,2.77a23.54,23.54,0,0,1,4,2.36,17.16,17.16,0,0,1,4,3.74c2,2.87,1,5,2,8.32,1.23,4.42,4.13,4.68,7.9,9.56s2.21,6.31,5.82,13.31a43.3,43.3,0,0,0,11.5,14.41c3.93,3.08,4,1.77,14.83,7.76a134.53,134.53,0,0,1,14,8.73c4.67,3.37,7,5.11,9.57,8.18,2.37,2.9,5.28,6.46,6.09,11.51,1.14,7.09-3.07,9.62-1,14.83,1.55,3.82,3.91,2.67,6.52,7.48,2.29,4.23,1.15,6.41,3.74,12.06a41.24,41.24,0,0,0,3.6,6c6.77,10.07,12.6,15,14.84,16.77,3.42,2.74,5.32,3.6,7.34,3.88a47.14,47.14,0,0,0,6,.14c3.42,0,4.36-.17,5.27.56,1.26,1,1,2.47,1.52,4.85.58,2.54,1.35,2.83,4.72,8.45,4.11,6.88,3.66,7.61,5.26,8.46,2.71,1.43,4.37-.45,10.4-1a34.88,34.88,0,0,1,14.27,1.94c3.85,1.41,6.31,3.2,10.4,6.24,8.09,6,6.85,7.34,11,9.56,8.38,4.54,12-1.95,24.26,2.08,2.65.87,6,1.41,12.61,2.49,1.48.24,3.76.58,5.54-.69,1.28-.91,1.42-2,2.22-2.08,1.46-.09,3,3.52,3.74,6.38,1,3.67.86,6.7.42,12.47-.35,4.61-.52,6.92-.83,9.7-.56,5.07-.38,13.82,0,31.33a40.62,40.62,0,0,1-1.67,12.89c-.77,2.58-1.18,3.94-2.35,5.54-2.68,3.69-5.3,3.12-9.43,7.35a17.52,17.52,0,0,0-4,5.54c-1.29,3-.7,4.44-2.21,6.24-1.28,1.52-2.93,2-5.83,2.77-4.74,1.31-6.08.33-8.87,1.67a11.84,11.84,0,0,0-5,4.85c-3.55,6.13-.5,13.11,0,14.27,1.14,2.62,1.62,2,3.75,6,1,1.86,1.25,2.68,4,10.26,2.32,6.38,2.7,7.34,2.49,9.15-.18,1.55-.54,1.57-2.36,6.1-2,4.9-2.95,7.35-2.77,9.15.24,2.36,1.24,2.12,3.61,7.76,1.38,3.3,2.07,5,1.94,6.79-.24,3.25-2.16,3.53-2.22,6.65-.06,2.92,1.6,3.44,1.38,6.52a9.89,9.89,0,0,1-1.8,4.85,11.85,11.85,0,0,1-6,4.57c-2.33.82-2.59.07-5,.7-4.21,1.1-4.2,3.62-8.17,5.12-4.26,1.61-6.47-.45-8.18,1.39-2,2.13.66,5.21-1.39,8-1.58,2.17-3.7,1.14-7.21,4-1,.82-3.69,3-3.18,4.85.43,1.56,3,2.14,5.82,2.77a30.8,30.8,0,0,0,5.4.7c5.8.38,6.65,4.06,12.48,6,7.62,2.47,13.34-1.5,15.52,1.66,1.29,1.86-.27,3.88,1.11,5,2.15,1.73,6.26-2.9,11.64-1.53,2.68.69,2.93,2.16,4.85,1.94,3.57-.39,4.55-5.61,6.94-5.4s2.72,5.32,4.85,5.4c1.62.07,2-2.9,5.12-6.09.82-.84,5.1-5.21,9.57-4.58,2.4.34,2.5,1.78,7.21,4.71a41.57,41.57,0,0,0,7.76,3.75,47,47,0,0,0,11.36,2.63c5.77.61,5.67-.44,14.83-.14,6.07.2,8.76.75,11.37,2.08a32.35,32.35,0,0,1,4.85,3.19,29.84,29.84,0,0,1,4.58,4.3c3.74,4.74,4.73,13.42,1,17-1.23,1.19-2.17,1.06-6.24,2.36-8,2.54-9,2.74-10.12,4.16-2,2.63-.3,4.78-2.49,6.79-1.47,1.34-2.48.63-7.35,2.22a19.89,19.89,0,0,0-5.41,2.35,16.48,16.48,0,0,0-4.57,4.72,20.38,20.38,0,0,0-3.05,8c-1.26,7.7,2.2,11.16-.28,14.27-1,1.2-1.21.38-5.26,2.91s-4,3.45-6.66,4.58c-3.48,1.47-4.88.44-6.1,1.94-1.56,1.92-1,5.69.7,8,1.43,2,2.8,1.8,3.19,3.32.46,1.85-1.42,2.74-3.47,7.07-1.64,3.47-1,4.19-2.36,5.41-1.88,1.74-3.5.64-7.76,1.8a25.82,25.82,0,0,0-8.73,4.57c-3.67,2.78-3.8,4.27-5.82,4.44-2.58.21-3.25-2.16-7.07-2.91-1.36-.27-3.08,0-6.52.55-4.51.73-6.77,1.09-9.28,2.22-3.66,1.65-4.21,3.12-6,2.77-.93-.18-1.61-.77-4.71-5.26C2104.35,871.68,2103.62,870.42,2103.08,869.83Z"/><path d="M56.22,503.65c-1.69.27-1.68,8.44-1.8,21.48-.18,18.81-.32,11.88-.28,20.52,0,8.38.17,16.76.83,41.86.44,16.82.48,16.67.42,18.43a167.42,167.42,0,0,1-5.13,35.48c-1.76,6.9-2,5.92-4.85,15.81C39.2,678.5,40.09,683.29,34.32,703c-.78,2.66-2.83,8.75-6.93,20.92-7.88,23.42-9.88,28.07-11.23,31.05C11,766.45,8.4,772.2,6.32,774.9,3,779.21-1,783.08.22,786.55c.74,2.11,3.32,3.76,5.41,4.43a7.16,7.16,0,0,0,4.3.28c3-.94,4.15-4.57,5.12-7.21C19,773.47,21,768,25.31,764.92s8.22-1.64,10.67-5.54c1.32-2.09,1.26-4.16,1.25-6.65,0-9.05-.06-15.9,1.25-21.07,1.49-5.9,3.15-3.41,8.59-14.83C51.77,707,50.13,706,54,700.75c1.73-2.32,3.89-4.58,3.33-7.21-.43-2-2.09-2.56-3.74-4.71-2.34-3.05-2.49-6.51-2.64-9.7-.39-8.81,4.19-14,7.21-24.4.32-1.11.13-.58,2.5-19.13,2-15.42,2.45-18.66,3.46-27.58.7-6.22,1.14-10.09,1.53-14.55,2.48-28.72-1.68-29,1-47.55a95.41,95.41,0,0,0,.13-23.14A24.16,24.16,0,0,0,64.54,515c-.67-1.35-1-1.59-5.27-7.63C56.82,504,56.6,503.59,56.22,503.65Z"/></g></g></svg>