<svg xmlns="http://www.w3.org/2000/svg" viewBox="0 0 1924.56 2759.15"><g id="Layer_2" data-name="Layer 2"><g id="Luxembourg"><path d="M1307,1152.61a14.45,14.45,0,0,0,5.62-1.42c3.54-1.73,3.33-3.59,6.14-4.55,4.59-1.58,10.45,1.61,13.67,4.73,3,3,2.7,4.85,6.13,7.18,3.13,2.13,4.4,1.22,6.83,2.81,3.24,2.11,3.51,5.35,6.31,15.24,3.51,12.36,4.87,13.61,6.14,14.2,1.56.73,2.33.18,12.09-3.15,14.81-5.06,16.66-5,19.45-7.89.85-.88,1.71-1.94,3-1.93,3.56,0,6.11,8.5,6.66,10.34,3.11,10.32-.4,12.62,1.58,21.73,1.16,5.37,2.33,4.36,10.34,21.38,3,6.38,4.49,9.56,5.26,12.1a53.54,53.54,0,0,1,1.75,24c-1.59,9.73-4.8,11.09-3.86,17.87a23.09,23.09,0,0,0,7,13.32c1.13,1,8.37,7.42,17.53,5.61,6.75-1.34,10.66-6.37,12.79-9.12,1.63-2.09,2.69-4,7.54-17.7,4.3-12.11,4.25-12.81,5.78-14.72,4-5.05,9.45-6.49,19.28-9.11,8.11-2.16,16.53-4.41,27.16-2.1a36.38,36.38,0,0,1,14.2,5.78c9.17,6.56,8.05,13.58,16,26.11s11.61,9.54,24.36,26.29c8.12,10.67,6.4,11.62,14.19,20.86,3.25,3.84,5.05,5.47,20.51,20,16.31,15.32,16.16,15.26,17.17,16,15.47,10.64,32.8,13,34.17,13.15,11,1.36,15.27-.69,20,3.5s4.21,10,10.87,14c1.9,1.16,5.18,3.15,8.94,2.45,4.61-.85,5.42-4.93,11.74-6.83a15.18,15.18,0,0,1,6.31-.7c5.38.62,6.76,4.18,11.56,6.48,6.15,3,13.39,1.68,17.7-.35,4-1.86,4.19-3.76,11-11.91,4.53-5.39,9.88-11.69,17.35-17.18,7.21-5.3,11-8,16.13-7.89,3,.1,6.9,1.18,20.5,14.55,10,9.84,8.67,12.6,14.37,15.25,3.72,1.72,4.41.79,19.81,4.2,7.37,1.64,9,2.26,10,2.63a39.24,39.24,0,0,1,14.37,10.17c5.92,6.54,7,12.11,15.07,20.15,1.17,1.17,3,2.85,4.73,2.45,2.17-.48,2.85-3.74,4.73-10,2.33-7.72,3.55-11.78,5.78-15.77,2.47-4.42,4.66-8.32,8.77-9.81,7.5-2.72,18.42,3.71,21.9,12.62,2.83,7.23,0,14.27-.7,16.12-1.25,3.15-2.78,5-7,10-7.23,8.45-10.84,12.68-13.49,15.42-11.17,11.57-16.76,17.36-21.38,19.45-5.91,2.68-11.28,3.29-13.67,8.24a11.43,11.43,0,0,0-.7,7.54c1.35,5,6.06,7,12.44,11,0,0,2.06,1.29,14.72,11,0,0,8.32,6.5,3.68,58,2.58,11.94-.73,18.18-2.63,20.85-1.15,1.63-3.4,3.42-7.88,7s-7.07,5.31-15.25,11.22c-8.45,6.1-10,7.36-11.74,9.11a56.45,56.45,0,0,0-7.71,9.46,97.52,97.52,0,0,1,3.85,25.77c.09,7.64-.78,14.4-1.4,33.82-.26,8.23-.27,12.18,2.28,16.3,2.42,3.92,5.11,4.68,14.54,10.34,12.23,7.32,18.34,11.08,18.76,15.42.48,5.14-4.77,11.17-9.47,11.39-2.9.14-4-2-12.79-9.11-8.21-6.67-10.47-7.44-12.44-7.71-4.42-.61-10.34.85-11.57,4.2-.83,2.28.9,4.3,8.24,14.9,3.71,5.36,5.56,8,6.66,9.81,5.54,9,9.93,16.1,7.53,20.16-2.23,3.76-8,1-16,5.43-3.92,2.21-4.74,4.15-10.34,10.69-12.05,14.11-14.24,12.12-20.5,21.38-6,8.88-4.47,11.41-10.17,16.83-3.09,2.94-4.74,3.33-15.77,8.93-16.57,8.42-14.48,8.36-22.25,11.74-13.5,5.88-16,4.4-21,9.12-3.76,3.5-3.24,5.1-9.82,17.7a222.84,222.84,0,0,1-13.32,22.43c-6,8.79-9.33,13.62-15.42,18.75-6.76,5.7-8.08,4.28-17,11.22-10.34,8-14.53,14.58-15.6,16.3-3.37,5.45-7.28,11.77-4.9,17.35,2,4.71,7.64,6.86,8.93,7.36,4.28,1.63,5.65.26,11,1.92,3.06,1,6.75,2.09,9.12,5.09,1,1.24,3.37,4.87,1.4,15.24-1.64,8.63-4.84,14.29-7.19,18.93-8.61,17-8.37,25.6-16.29,44.69-2.9,7-6.07,13.81-6.07,13.81-1.24,2.67-2,4.11-2.35,4.94-4.67,9.91-4.83,18.91-7.53,30.85-2.13,9.4-3.2,14.11-6,18.92-4.44,7.74-8.57,9.34-19.45,21a157.82,157.82,0,0,0-11.75,13.85c-13,17.54-11.47,25.35-21.9,31.89a40.67,40.67,0,0,1-14.2,5.26c-7.54,1.13-8.31-1.25-13.49,0-11.43,2.76-17.55,16.74-19.28,20.68a49.86,49.86,0,0,0-2.28,6.49c-1.4,5.05-3.29,14.81.7,38,2.1,12.18,4,17.84,1.06,20.15-1.13.87-1.81.39-10.34-.35a99.83,99.83,0,0,0-17.53-.35,24,24,0,0,0-5.08.7c-3.28,1-6.2,3-10.87,8.59-5.75,6.89-8.62,10.34-8.58,13.14.06,4.8,4.84,7.11,19.27,17,11.26,7.72,20,14.3,28.22,23.31,3.74,4.1,5.86,7,7.18,11,2,5.92,1.53,12.25-1.05,20-1.1,3.3-5.35,15.15-25.94,36.8a338.92,338.92,0,0,0-23.65,27.34,27.67,27.67,0,0,0-6.14,12.44c-.86,4.64-.1,8.19,1.23,14.37,4.63,21.63,4.31,20.49,4.56,21.38,4.4,15.69,7.24,19.07,14.72,41.54,3.45,10.37,4.08,13.34,4.38,14.89,2.42,12.44,1.26,21.91.7,28-.82,9.05.42,2.53.7,45.39,0,7,0,12.77-.18,46.8-.08,12.34-.19,28.94-.35,48.72-.54,1.62-2.63,7.36-6.48,7.88-2.6.36-4.86-1.81-8.59-6.13-12.35-14.33-13.32-20.52-18.75-21.21-3.08-.39-3.9,1.46-12.27,1.93-3,.17-4.58.26-6.31-.17-5.79-1.45-6.46-5.77-10.51-6.31s-5,3.76-10,4.73c-8.86,1.73-18.32-9.79-20.5-12.44-4.16-5.06-3-5.92-9.12-14-7.2-9.53-10.5-10.58-11.56-10.87-5.62-1.52-8.72,2-12.27-.35-4-2.7-2.4-8.85-5.43-9.81-2.28-.73-4,2.47-9.82,6.13-4.45,2.79-9.25,5.79-13.84,4.73-4-.92-3.26-3.89-11-10.51-4.79-4.08-7.53-5-7.54-7.54,0-2.86,3.56-3,4.91-7.36,1.13-3.66-1-5,.17-10,.75-3.32,2.09-4.63,1.4-5.43-1-1.19-4.9.53-8.76,2.28-6.43,2.9-6.67,4.92-9.81,5.25-3.9.41-8.31-1.93-10.52-5.25-2.86-4.32.22-6.93-2.45-13.5a23.93,23.93,0,0,0-7.36-9.46c-4.3-3.44-5.45-2-7.36-4.21-3.67-4.21-2.19-12.61-.35-30.67a4.42,4.42,0,0,0-.7-3.33c-1.77-2.05-5.89-.62-9.82,0-5.35.85-11.28-.6-23.13-3.5-6.75-1.65-10.16-2.52-11.74-4.21-4.64-5-2-11.79-6.84-14.72-2.24-1.37-4.75-1.06-7.71-.7-6.9.85-9.23,4.82-13.84,3.86-1.83-.38-2.93-1.31-4.91-3-5.56-4.69-4.76-9-10.34-13.5-2-1.64-3.47-2.8-5.08-2.45-2.93.63-3,5.48-7.36,13.32-2.75,5-4.27,7.72-6.84,8.06-3.34.44-4.48-3.73-11.39-6.31a17.21,17.21,0,0,0-8.06-1.4c-4,.4-5.79,2.42-12.09,6.13,0,0-3.91,2.31-9.12,4.73-8.5,4-15.18,1.33-26.28.88-14-.56-11.82,3.29-32.25,4.21-18.08.81-24.13-2-27.34-4.21a107.79,107.79,0,0,1-8.76-6.48c-5.18-4.51-6.19-6.74-8.59-6.66-3.2.1-3.87,4.15-8.94,8.76-3.48,3.16-4.68,2.62-12.44,6.83-10.18,5.53-9,6.92-16.47,10.52-8.85,4.24-14.14,4-14.73,7.18-.31,1.67,1,2.53,5.61,8.07,5.49,6.6,3.71,5.49,10.17,13.49,5.43,6.72,6.83,7.68,6.66,10-.34,4.57-6.41,9.13-10.52,8.24-2.53-.56-2.9-2.87-7.71-4.91-1.75-.74-3-1.27-4.73-1.05-1.1.14-2.57.64-6,3.85a33.82,33.82,0,0,0-4.38,4.74c-5.05,6.63-16.14,12.9-18.4,10.86-.91-.82.13-2.49.17-10.69,0-2.09,0-2.95-.7-3.5-1.41-1.21-3.95.51-9.46,1.92-4.38,1.13-6.58,1.69-8.06,1.05-3.74-1.59-2.63-6.56-7.71-10.34-1.36-1-3.53-2.62-4.91-1.92-3,1.51,2.15,11.6,1.4,27.16a77.58,77.58,0,0,1-2.63,15.95c-1.88,7.56-2.83,7.57-7.71,21.91-3,8.86-3.07,10.08-5.08,12.44-5.94,7-15,7.51-15.42,7.53a22.76,22.76,0,0,1-8.24-1.22c-4-1.4-4.19-2.79-7-3.51-4.76-1.21-9.29,1.49-13,3.68a28.63,28.63,0,0,0-8.76,8.06c-2.07,3-2.89,5.38-4.38,9.82-2.11,6.25-3.43,10.17-3.16,15.07s1.85,4.88,3.86,12.62c1.85,7.16,3.61,13.93.17,18-1.88,2.26-4.55,2.81-8.76,3.68-3.31.68-9.11,1.88-14.19-.7-5.24-2.66-3.83-6.34-9.82-12.27-6.87-6.81-11.26-4.47-14.19-9.64-4.3-7.56,2.23-17.56-1.23-19.63-1.33-.79-2.21.73-6.31,1.23-4.85.59-6.49-1.18-13.32-1.93-5.15-.56-4.55.4-8.59-.17-6.2-.89-7.22-3.13-13.67-4.91-3.84-1.06-8.87-2.45-13.67-.7-3,1.08-5.81,3.34-10,10.69-7.37,13-4.42,16.35-10.69,28.21-5.79,11-9.36,10.08-11.75,18.76-.9,3.27-1.62,7.86-5.43,10.51-.7.49-3.63,2.39-6.66,1.58-2.16-.58-2.29-2-4.38-3.16-3-1.65-5.52-.34-10.87.18-6.23.61-9.56.93-11.56-.7-5.77-4.7,3.19-22.53-.88-24.71-1.11-.59-2,.6-7,1.93-4.1,1.08-5,.68-8.76,1.4-7,1.33-6.83,3.28-14.9,5.26-2.22.54-4.52.89-9.11,1.57s-6.81,1-8.06.7c-2.62-.64-3.51-2.13-9.29-8.41-6.56-7.12-7.88-7.88-9.46-8.06-1.76-.2-2.75.43-8.94,4.21-11,6.7-12.19,7.33-14,8.06s-5,1.48-11.39,3c-6,1.41-7.47,1.52-9.12.87-4-1.55-6.64-6.54-5.43-8.58.92-1.54,3.44-.39,8.76-1.58,3-.67,6.24-1.39,8.59-3.68,5.15-5,2.75-14.47,2.1-17-.8-3.18-1.74-6.85-4.9-8.41s-6.94-.15-8.24.35c-5.08,1.94-6,5.54-8.24,5.08-2.11-.43-2.12-3.7-5.43-9.46-2-3.57-2.83-3.69-4.91-6.84-1.39-2.12-7.2-10.93-6-20.33.6-4.46,2.05-3.57,4.21-10.34,2.61-8.16,2.24-14.94,1.93-20.85-.4-7.47-.6-11.2-2.81-13.85-4.35-5.23-11.86-4.44-12.09-7.36-.07-.92,2.11-2.84,6.49-6.66,3.19-2.78,4.55-3.79,5.25-6a8.48,8.48,0,0,0,0-5.08c-.32-1-1.34-3.43-5.25-5.61-6.59-3.66-14.09-2.59-24.89-3.5s-16-1.36-20.85-5.08c-3.17-2.46-2.94-3.75-10.52-11.75-4.4-4.64-6.6-7-8.76-8.23-7.59-4.47-15.81-3.4-18.75-3-6.25.9-6.58,2.75-12.27,4.2-14.35,3.67-29.54-3.73-36.63-7.18-8-3.91-8.82-5.93-13.32-6-7.44,0-15.73,5.44-20.15,12.27-2.69,4.15-2.11,6-4.91,8.06-4.79,3.6-11.6,2.17-16.12,1.23-7.81-1.64-8.84-4.1-16.48-6.31-4.85-1.41-9-1.52-17.17-1.75-14.87-.42-18.85,1.66-25.94-1.41-2.21-.95-3.06-1.69-8.94-6.31-24-18.83-28.77-21.38-34.34-30a110.71,110.71,0,0,1-5.79-10.34c-4.79-9.81-3.66-11.33-6.31-15.43-6.23-9.63-15-5.16-23.13-15.42-1.29-1.63-6.3-8.37-5.61-17.17.21-2.7.55-7,3.68-10.17,2.54-2.54,5.08-2.44,15.25-6.13a17.33,17.33,0,0,0,5.08-1.93c1.62-1,3-1.86,3.33-3.15.65-2.71-4.16-4.49-7.71-9.64-2.31-3.35-1-3.65-4-12.09-3.25-9-4.88-9.06-6.31-15.43-1.23-5.45-.45-7.32-2.1-8.41-2.61-1.71-6.34,1.78-15.78,6-8.29,3.68-8.06,2.16-16.29,5.78-11.26,5-13,8.36-17,7.19-4.34-1.27-3.18-5.54-10.69-12.09-4.58-4-7.93-5-7.89-7.54,0-2.3,2.75-4,5.78-5.78,8.39-5,12.21-2.81,16.48-6.84,3.07-2.9,1.17-4.11,5.61-10.86,2.06-3.15,6.51-9.92,10.86-9.29,0,0,.6.08,5.78,3.33a9,9,0,0,0,3.33,1.4c4.34.82,7.6-2.19,12.45-5.08,6.41-3.84,6.18-1.84,15.42-6.66,9-4.71,10.73-7.39,11.39-8.59.44-.79,3.11-5.6,1.4-10.16-1.33-3.56-3.95-3.32-4.55-5.79-1.65-6.75,16.05-16.59,18.75-18.05,5.13-2.78,7.7-4.17,11.56-5.26,5.34-1.49,8-1.06,9.64-3.33,2.19-3.08-1.24-6.07.53-10.33s7.51-6.2,12.27-7.72c6.37-2,8-.7,10.86-3,4.12-3.23,4.65-8.91,4.91-11.74s.81-8.71-2.81-13c-4.14-4.89-11.08-4.33-11-6.3,0-1.63,4.75-3.36,7.54-4.39a14.19,14.19,0,0,0,4.73-2.45,9,9,0,0,0,2.1-2.28c2.22-3.6.36-8.15.18-8.58-.9-2.11-2.41-3.4-5.43-6-2.23-1.89-3.37-2.84-4.73-3-2.64-.28-4,1.87-6.84,3.33-3.64,1.87-5.61.47-12.27.52-10.37.09-11.62,3.53-17.7,1.93a17.25,17.25,0,0,1-9.46-6.31c-2.46-3.48-1.68-5.78-2.28-20.33-.39-9.5-.8-10.3.18-12.44,2.18-4.83,6-4.64,15.59-10.69,9.06-5.71,8.73-7.81,18.05-13.14,4-2.27,3.73-1.72,11.92-5.79,12.17-6,18.29-9.12,20.33-12.44,3.31-5.4.94-9.45.88-21.73-.07-13.07.37-19.6,3-24.36,3.17-5.8,11.85-16.27,18.05-21.73a6.14,6.14,0,0,0,2.28-3.33c.8-4.08-4.85-6.31-5.61-11.57-.5-3.39,1.32-6.15,3.5-9.46,1.29-2,5.88-8.93,13.67-10a21,21,0,0,1,10,1.4c2.57,1.12,4.23,1.79,7.54,3.15,1.51.63,1.71.7,2.1.71,3.1,0,3.56-4.57,8.06-8.42,3.45-2.94,5.27-2,9.46-5.78a25.14,25.14,0,0,0,3.51-3.86c.32-.41.73-.89,1.24-1.43a17.34,17.34,0,0,0-1.94-2.77,33.57,33.57,0,0,1-4.73-6.49c-1.8-3.26-2.68-6.23-3.86-11.74a131.55,131.55,0,0,1-2.8-16.12c-1.16-11.22-1.73-16.83.17-23.84,1.22-4.47,2.59-9.52,6.84-14.19s8.14-5.29,9.81-10.17c.42-1.21,2-6.45-1.23-9.63-2.62-2.6-7.26-2.12-10-1.06-3.37,1.32-3.59,3.42-6,3.51-2.67.1-4.83-2.47-7.54-5.78-4.6-5.64-4.56-8.59-6.83-8.94-3.58-.56-5.89,6.45-9.29,5.78-2-.39-2.24-3-5.43-8.06a52.74,52.74,0,0,0-5.79-7.36c-7.11-7.43-16.32-.87-32.24-7.54a64.94,64.94,0,0,1-13.67-8.06,44.78,44.78,0,0,1-6.31-5.63,38.83,38.83,0,0,1-8.41-14c-2-6.24-1.36-11.17-.36-18.92a75.21,75.21,0,0,1,9.82-29.62c.93-1.57,3.6-5.13,8.94-12.27,5.12-6.84,9.38-12.53,15.24-19.45,5.65-6.65,8.47-10,11.39-13,7-7.15,10.22-9.07,10.17-12.79-.05-3.15-2.78-5.65-8.24-10.52-9-8-12.86-8-15.42-13.49-1-2.08-.93-3.17-1.58-11.39-.83-10.61.32-16.94-1.57-17.53-1.56-.48-2.92,3.57-5.79,3.68s-4.07-4.1-8.06-9.29c-2.55-3.31-8.38-10.9-16.12-11.56-3.2-.28-5.58.75-10.34,2.8-5.26,2.27-8.82,5-13.67,8.76-7.64,5.93-8.49,7.91-13,9.29a18.07,18.07,0,0,1-9.81.53c-6.83-1.73-6.71-6.88-12.45-9.64-9.84-4.74-20.19,5.63-26.11.52-1.57-1.35-2-3.47-2.8-7.71-1.47-7.53-.61-12.64.52-22.78,2.13-19.06,1.13-19.1,3-22.08,2.66-4.29,6.28-6.68,8.59-13.67a35.74,35.74,0,0,0,1.4-6.49c1.16-7.69,2.23-14.8-1.23-18.4-2.87-3-5.69-.22-12.61-2.8-7.67-2.85-12-9.13-14-12.09a39.61,39.61,0,0,1-5.79-13.32c-3.79-15,1.85-22.78-3.5-27.87-3.42-3.25-6.87-1.15-11.22-5.61-2.09-2.14-2.74-4.12-4.73-9.81-3.2-9.18-5.15-14.75-6.66-18.4a80.81,80.81,0,0,0-8.59-15.25c-10.58-15.81-16.87-16.58-22.08-28.91a58.51,58.51,0,0,1-3.85-13.85c-1.29-9.5.8-14-1.93-22.61-1.35-4.25-2.55-8-5.79-9.28-4.55-1.77-11.83,2-15.24,7.18-1.88,2.85-1.9,5.09-3.86,5.61-1.28.34-2.18-.39-8.41-3.68a41.7,41.7,0,0,0-4.21-2.1c-3.84-1.32-7.31-.41-9.81.17-10.68,2.51-9.37.61-17.7,3s-9.59,4.2-16.3,4.91c-4.54.48-6.82.72-8.76-.35-5.47-3-3.59-12.92-3.86-30.5-.34-23.34-4.13-37.66-6.31-44.51-1.81-5.7-2.71-8.56-4.9-12.27-6-10.14-13.5-13.23-12.45-18.4.56-2.74,3.3-5,5.61-6.83,3.8-3.08,5.8-2.62,6.66-4.74,1-2.34-1.07-3.92-3.5-11-1.38-4-.8-3.75-2.11-7.53a52.38,52.38,0,0,0-5.6-11.57c-4.29-6.47-6.22-5.58-8.24-9.64-2.84-5.7-2.46-14.88,2.28-18.93,6.22-5.31,17.62.3,19.63-3.85.65-1.35-.47-2.07-1.23-6.14-.31-1.64-1.94-10.35,1.75-13.31,2.67-2.15,5.73.64,11.92-.71,2.94-.63,7-1.31,8.41-4.2,1.63-3.3-1-7.56-2.1-9.29-3.81-6.11-10.31-9-16.13-11.57-6.69-2.91-9.51-2.89-9.63-4.38-.26-3,10.79-8.75,22.08-10.34,3.77-.53,7.78-.63,8.76-3,.58-1.39-.13-3-2.28-6.31-6.43-9.79-11.28-12.09-10.51-15.24.68-2.82,4.91-2.42,6.48-6.49,1.07-2.77.1-5.54-.35-6.83-2.64-7.55-10.15-8-10.16-12.27,0-2.82,3.24-2.85,7.53-9.81,2.12-3.43,2.24-4.91,3.51-5.09,2.36-.32,3.66,4.65,10.16,10.52,4.1,3.7,5.88,3.8,6.84,3.68,1.12-.14,2.69-1.5,5.78-4.21a42.49,42.49,0,0,1,6.13-4.9c1.63-1,2.45-1.52,3.16-1.41,2.12.35,2.61,3.92,5.08,9.82,2.21,5.29,3.73,8.93,5.61,8.94,2.38,0,4.47-5.81,5.78-9.47,1.94-5.39,1.21-6.57,2.8-8.06,3.82-3.54,10.27,1,13.32-1.93,1.75-1.69.83-4.34-1.22-14.54-2.92-14.53-2.56-16.68-5.26-20.86-2.31-3.56-4.78-5.4-9.64-8.93-5.91-4.3-14.18-9.26-28.74-14.55-15.2-5.52-14.18-3-21.91-7-10.3-5.31-10.33-8.83-22.25-14.37-12.72-5.91-14.72-6.66-14.72-6.66-6.12-2.28-9.11-2.82-10.17-5.43-.84-2.07,0-4.16,4-11.39,4.83-8.74,7.24-13.1,8.94-15.25,5.15-6.52,6.62-5.47,14.55-13.67,8.16-8.45,6.2-9.14,12.26-14.2,7.46-6.22,11.56-9.64,17.88-10.86,1.92-.38,4-.54,4.91-2.11,1.44-2.58-2.57-5.29-3.33-11.39-.54-4.26.81-7.77,2.27-11.56,2.05-5.31,3.29-5,5.26-9.47,4-9.13,3.55-21.17,3.51-22.25-.12-2.56-.44-5.63,1.22-6.66s4,1.14,7,.17c2.21-.71,3.38-2.73,4-3.85,4.34-7.47-1.21-16.2,1.93-18.4,2.23-1.56,5.91,2.18,8.06.52,1.44-1.1,1.25-3.87-.35-10.51a186.31,186.31,0,0,0-5.61-18.76c-3.31-9-4.5-11-3.68-14.54.67-2.84,1.76-2.89,4.56-8.06,2.14-3.95,4.44-8.21,5.08-13.32.78-6.2-1.73-6.92-1.57-16,.09-5.16.19-8.19,2.45-10.69,3.36-3.72,9.16-3.69,10.51-3.68,2,0,2.78.37,6,1.05,6.29,1.35,9.93,2.14,13.67,1.75,6.74-.69,11.69-5,13.15-6.31,4.73-4.41,5-8.39,7.53-8.41,3.27,0,3.2,6.5,8.59,8.94,3.84,1.74,5.13-1,15.77-1.23,4.59-.08,6.34.39,8.06-1.05,1.57-1.3,2.21-3.43,2.28-9.46.15-11.94-2.25-14.45-.17-17.18s6.44-2.84,15.24-3.15c6.94-.25,11,.62,12.27-1.58s-1.55-4.8-.17-7.18c1.2-2.09,4.39-1.85,7.71-2.28,9.13-1.2,15.62-7,18.57-9.64s1.05-1.87,9.29-11.92c5.42-6.61,6.89-7.73,7.71-11s-.31-3.57-.17-11.92c.11-6.59.85-7.76-.35-9.46-2-2.84-5.24-1.23-11-3.86-4.29-1.94-6.87-4.78-10-8.23-4.38-4.83-3.28-5.59-7.71-10.87-5-5.89-7.2-6-10.34-11a30,30,0,0,1-3.68-8.94c-2.2-8.79.92-11.76-.35-24a45.89,45.89,0,0,0-1.41-8.41c-2.12-7.64-5.15-9.69-4-12.27s4.77-1.52,12.8-4.73a44.51,44.51,0,0,0,10.69-6c6.63-5.11,5.65-8,10.69-10.86,4.81-2.76,6.33-.51,15.07-2.81,5.57-1.46,5.27-2.45,15.42-6.65,12.52-5.19,14-4.08,16-6.84,4.86-6.77-2-16,3-20.5,3.34-3,7.84-.15,10.69-3.68,2.43-3,1.4-7.91.7-11.22-1-4.87-2.48-5-3.51-9.46-.87-3.85-1.58-11.55,2.11-14,2.84-1.92,5.72,1,8.58-1.23,2.1-1.64,2.69-4.88,3.33-8.41.52-2.81.07-2.71.53-4.21.84-2.73,2.72-4.29,7.89-8.24,6.78-5.17,7.06-5.16,7.53-6.13,2.15-4.38-.94-10.05-3-13.67-2.55-4.54-5.26-7.5-13.14-14.9-13-12.17-16.54-14.4-17.35-20-.52-3.57.25-7.41.88-10.52a48.64,48.64,0,0,1,3.68-11c6.53-14.33,9.79-21.49,14-25.94,9-9.48,20.75-13.22,24.36-14.37,4.08-1.3,10.56-2.88,18.57-6.48a27.52,27.52,0,0,0,10.34-7.54,28,28,0,0,0,2.63-3.85c4.28-7.73,2.94-17.74,1.93-31-.76-10-1.14-15-.88-16.3,1.17-5.8,3.38-7.83,14.37-26.46,3.92-6.65,4.91-8.53,5.61-11.57,1.44-6.19-.08-9.38-.88-17.7-.86-9.06-1.57-16.58,1.41-23.48,3.53-8.2,10.9-12.37,16.3-15.43,12.22-6.93,21.11-5,27.68-13.49,1.3-1.67,2.19-3.33,4.56-4.91,4.8-3.19,8.77-1.41,14.37-3.5,4.2-1.57,5.89-4,8.94-6.84,6.94-6.38,14.59-8.65,24.36-11.56,17.81-5.31,18.82,1,33.82-4.56,7.81-2.9,11.66-6.15,21.38-7.54,4.65-.66,6.42-.3,7.87-1.93,4.22-4.74-5.41-13.76-3.66-27.86.85-6.83,3.24-5.76,5.08-15.6,1-5.58,2.48-13.19-.17-21.55-2.37-7.48-6-9.29-4.73-12.27,2.2-5.17,14.14-2,17.35-8.24,1.47-2.9.38-6.41-.36-8.76-.8-2.58-1.84-3.82-6.48-9.81-6.27-8.11-7.65-10.09-7-12.1s2.39-1.64,4.56-3.68c3.44-3.23,3-7.68,3.68-20.5.65-12,1.34-13.42,2.1-14.55,2.94-4.38,8-5.91,14.2-7.71a63.91,63.91,0,0,1,15.94-2.45c6-.25-19.12.67,35.23-2.81,19.3-1.23,22.54-1.35,27.69-3.68,2.51-1.13,8.48-4.14,13.84-7,5.92-3.16,6.3-3.58,9.64-5.25a109.39,109.39,0,0,1,17.35-6.84A111.13,111.13,0,0,1,699.62,0c1.18,4.1,2.28,7.64,3.25,10.66A176.41,176.41,0,0,1,708.48,31c1.28,6.1,2,11.39,3,18.22,1.75,12.44.39,14.18,2.28,18.58,2,4.66,5.4,7.95,14.37,13.67,14.17,9,20.09,10,37,18.4,17.71,8.78,21.9,13,28.21,10.69,5.29-1.92,5.14-5.88,15.07-11,8.85-4.59,13.46-3.78,14.73-3.5,3,.65,3.7,1.86,5.43,1.4,4.69-1.26,6.21-11.82,6-19.11-.21-6-1.46-5.67-2.46-13.84-1.06-8.66-2-16.7,2.63-21.21a10.73,10.73,0,0,1,8.06-3c3.57.31,4.59,2.68,8.77,5.43,5.27,3.48,14.18,6.62,19.1,3.33,2.94-2,1.93-4.55,4.73-6,1.93-1,4.93-1,15.6,5.08,9.25,5.29,8,5.87,13.32,8.41,7.92,3.76,10.93,2.58,17.52,7,3.77,2.54,6.58,4.43,7,7.54.61,4.39-4.26,6.17-7.53,14-1.54,3.69-3.37,8.07-2.11,12.44,1.78,6.14,7.82,6,17.18,15.78,3.79,3.94,7.14,7.52,6.13,10.34s-5.12,1.87-12.44,6c-2.9,1.62-6.93,3.93-9.46,8.24-1.62,2.75-1.09,3.68-2.46,9.81-1.63,7.29-3.49,10.9-5.61,21.21-.71,3.48-1,5.51.18,6.66,1.64,1.6,4.49-.15,9.46-.53,1.26-.09,9.58-.73,15.25,3.68,4.1,3.2,2.54,5.72,7.71,11.22a24.56,24.56,0,0,0,9.46,6.83,86,86,0,0,0,14,3.33c1.55.25,2.75.41,3.68,1.41,2.79,3-.25,9.75-.52,10.34a21.18,21.18,0,0,1-5.26,6.83c-3.46,3.26-12.11,11.39-14.9,21.38-.85,3.06-2.54,9.15.53,13,2.34,2.91,6.79,1.78,11.39,6.31a7,7,0,0,1,2.1,3.15c1,3.55-1.72,7.16-2.27,7.89-2,2.7-3.49,2.43-4.38,4.56-.48,1.13-.43,2,.52,6.66,1.31,6.41,2,9.61,2.63,11.74,1.19,3.83,1.7,4.39,1.23,5.26-1.37,2.49-6.63-.17-12.27,2.8-.73.39-4.54,2.48-6,6.48-.33.93-1.45,4.55,2.8,13.15,4.73,9.57,10.28,13.5,9.12,15.24-.93,1.4-4.7-.74-11-.7-5,0-10-.17-12.27,2.81-1.83,2.37-.09,4.25-2.28,8.59-1.68,3.33-3.32,3.41-3.68,5.6-.53,3.22,2.79,4.44,5.08,8.94,2.56,5,1.86,10.15.53,20-.61,4.53-.92,6.79-1.75,8.59-3.8,8.19-11.79,9.06-11.57,13.84.12,2.55,2.51,4.87,5.08,7.36,1.71,1.65,2.56,2.48,3.51,2.46,2.83-.08,3.16-5.67,8.76-10.52,1.82-1.58,3.63-3.1,5.78-2.8,3.14.43,5,4.46,5.61,6.83a12.76,12.76,0,0,1-1,8.59c-3,6.11-8.15,4.61-11.22,10-3.23,5.66.54,10.67-3,13.49-1.36,1.1-2.14.52-9.11,1.4-5.59.71-8.39,1.07-9.29,2.11-3,3.49,2.52,9.4-.87,15.42-1.39,2.45-3.1,2.89-3,4.73.14,2.15,2.55,2.63,6.83,6.49s4.13,5.37,6.31,5.78c3.49.65,7-2.77,8.94-4.73,3.86-3.82,5.18-7.72,5.61-7.54s-2.61,6.55-3.51,15.25c-.38,3.66-.84,8.19.7,13.14,1.48,4.74,3.43,5.51,11,14.9,4.86,6,8.21,10.17,11.39,16.3,2.58,5,4.35,8.36,4.74,13.32.44,5.65-1.15,10.19-3,15.42-2.65,7.56-4.35,7.92-5.44,13.49-.67,3.45-1.68,8.63.71,13.15,1.7,3.22,3.42,2.87,14.37,9.11,14.41,8.22,11.21,8.7,18.22,11.57,1.85.75,3.64,1.36,4.21,3,1,2.8-2.83,5.36-7.89,12.09-6.51,8.66-6,12.24-10.51,13.84-4,1.45-8.26-.1-10.34-.87-6.34-2.34-9-6.91-9.82-6.31s1.53,6.49,6,11.56c2.3,2.64,3.23,2.87,8.59,7.36,9.15,7.69,7.93,8.27,11,9.64,7,3.07,11.49-.56,15.77,3.33,2.16,2,2.76,4.47,3.33,6.84,1.43,5.92-.91,8.37-2.28,17.87s.28,12.14-2.27,14.2-4.75.4-12.62,2.8c-4.67,1.43-5.37,2.43-5.61,3.16-.74,2.29,1.88,5.74,4.91,7.53,6,3.57,11.05-1,17.7,2.63,1.18.65,2.6,2.12,5.43,5.08a97.84,97.84,0,0,1,10.34,13c6.77,10,5.2,10.48,7.71,11.92,6.53,3.74,13.25-2,18.58,2.63,1.3,1.13,2.42,2.8,5.43,4.73,2.6,1.67,3.85,1.77,4.73,2.45,3.61,2.83-2.39,10.19-4.55,24-1.41,8.95.06,11.83-3.16,16.13-2,2.64-4.59,4.3-4.73,7.53-.11,2.58,1.44,4.08,2.8,6.31,5.35,8.74-.61,14.79,4.38,21.21,2.6,3.33,6.77,5,10.52,6.48,4.78,1.91,5.25.87,7,2.1,6.68,4.68-1.53,18.45,5.78,27.87,3.08,4,8.71,6.92,12.8,5.61,1.76-.57,3.16-2.07,5.95-5.09,3.16-3.39,4.74-5.09,5.09-6.83.56-2.81-1.12-4.64-7.54-14.37-4.74-7.19-5.14-8.19-5.26-9.64-.44-5.4,3.58-9.76,7-13.49,2.86-3.11,6-6.54,10.34-6.31a8.28,8.28,0,0,1,5.09,2.1c3,2.8,2.7,7.41,2.62,10.52a92.57,92.57,0,0,0,4,29.61c2,6.06,3,5.16,4.9,11.57,3.18,10.46,2.13,17.6,4.38,18,1.81.36,4.36-3.86,7-8.24s2.53-5.64,4.56-7.36c4.09-3.46,9.55-2.67,9.81-2.63,6.21,1,9.21,6.52,9.82,7.72,1.87,3.7.44,5,2.1,6.65,2.92,2.86,8.08-.51,18.75,0,3.44.17,7.75.38,8.24,2.11.73,2.56-8.09,4.53-11.39,12.44-.16.39-2.57,6.4-.18,12.44,1.53,3.84,3.52,4,12.8,13,5.61,5.43,6.68,7.12,7.18,9.29.61,2.64-.29,3.12-1,10.16-.41,3.8-.53,7.26-.7,12.1-.21,5.8,0,6.8-.88,8.76a16.75,16.75,0,0,1-5.6,6.66c-4.66,3.65-6.87,2.58-9.29,5.43s-3.67,8.23-1.58,10.87c2.33,2.93,6.67.06,15.07,2.28,2.7.71,8.48,2.23,12.09,7,2.77,3.65,1.13,5.07,4,11,3.57,7.32,7.5,8.17,7,11.91-.53,4.2-6,7.32-7,7.89-3.54,2-5.6,1.49-6.3,3.15-1,2.34,2.55,4.56,4.55,9.82,1.58,4.13.66,6.07,1.05,11a40.52,40.52,0,0,0,6.31,18.23c1.66,2.56,6.65,10.06,15.78,13.84,6.4,2.66,8.26.75,12.61,3.68,5.25,3.53,3.78,7.13,9.29,15.42,4.68,7,6.86,6.12,16.65,17.88a84.87,84.87,0,0,1,6.13,7.89c6.6,9.95,5.66,14.47,11,18.75,3.5,2.77,3.58.61,11.4,4.55,8.41,4.25,9.69,7.45,15.77,8.24A20.33,20.33,0,0,0,1307,1152.61Z"/></g></g></svg>