<svg xmlns="http://www.w3.org/2000/svg" viewBox="0 0 1396.54 2587.32"><g id="Layer_2" data-name="Layer 2"><g id="Macau_Map" data-name="Macau Map"><path d="M1396.54,2118.84,1283,2142.91V2155l-102,10.67-56.18,40.72-55-1.33-74.85,40-55-39.35-83.33,150.1.5,40-19,20,27.66,29.36L911,2455.92l-26.48,50.65-37.68,20L717,2525.26,698.5,2546l-36.49.64-19.18-19.32L588.52,2526,531,2587.32l-29.68-5.72-22.91-17.78L438.58,2536l-4.68-43,18.73-43-2.34-50.57-21.08-15.17,7-43,30.45-20.23,21.08-32.87-4.25-53.49,2.47-4.05-5.25-5.67L465,2020.24l-1.52-19.82-1.75-22.71-3.48-45.42-2.72-35.48-2.73-35.49-3.59-46.84L448,1797.71l-.63-5.94-5.05-47.7-4.94-46.7-3.87-36.58-3.77-35.58-.48-4.52-.72-1.31-36.75-67-70.27-55.64-23.42-32.87-32.79-136.57,42.16-32.88,20.29-4.8,55-13L445,1261.88,478.4,1254l30.94,4.7,44.65,6.79,11.65,1.77L843,1309.41l7.78,1.19,33.2,5,13.91,2.12,46.63,7.09,24.81,3.77,157.87,24,9.37,27.82-49.18,172,52.49,34.88,21.22,14.1,26.46,17.58,10,18.44,4.64,8.57,5.71,21.58,8.45,31.94,4.57,17.29-30.45-5.06-46.84,15.17-11.71,12.64-1.19,5.38-.4,1.83-9.93,45-5,22.71-6.89,31.27,23.42-12.64,34.5-18.63,40.45-21.83-3.68,21.83-1,6-36,40.86-8.55,9.72-15.13,16.33,1.85,9.44,13.28,67.79,199.09,22.76ZM328,779.51l14.69-11.64,14.1-4.11,63.59-18.52,13-3.78,160.26-46.67,19.73,42.63,25.37-18.27.82-15,2-36.8-1-5.42-13.7-70.63-8.23-42.42-32-164.74L720.34,301,710.46,221l-1-88.58-4.94-17.08L684.77,92.91,630.42,72.63,504.93,38.48,494.93,0,430.15,8.08l-4.73,5.68-12.94-5-34-.52-7.42-2.73-18.33-.7L331.21,19.88,310,65.48l-9.75,17.59L299,82.45l-7.77,14.18-5,3.5-3.44,1.24-11.22-1.45-26.31-7-33.41-6.6-36.47.06-20.29,3-26.53,11.5-20.24,14.92-2.13,3.43.26,3.11,19.7,54.09,14.29,55.33,144.13-39.57,10.87,36.28L189.72,254.08l9.88,40.56-3,105.66L144.27,551.85,26.68,713,6.92,754.61,0,792l3,27.75,22.73,49.08L45.45,888l15.74,5.13,8,2.62,61.6-13.86,6.06-1.37,4.33-3.11L213,825.72l87.4-24.36Z"/></g></g></svg>