<svg xmlns="http://www.w3.org/2000/svg" viewBox="0 0 1476.47 2938.79"><g id="Layer_2" data-name="Layer 2"><g id="Madagascar"><path d="M78.26,2408.82a9.24,9.24,0,0,0-.18,1.45c-.21,4.82,2.83,6.45,4,11.94,1.26,5.72-1.41,6.73-.53,11.06,1.38,6.77,8.54,7.45,19,16.51,7.29,6.34,12.49,10.86,12.64,17,.22,9-10.37,17.62-13.52,20.19-4.9,4-8.36,5.08-10.71,10-1.71,3.59-.45,4.22-2.28,10.54-2.28,7.83-5,9.6-4.22,13.69.63,3.18,2.68,4.13,4.74,6.85,4.82,6.37,3.52,14.27,2.81,23.35-.77,9.86,0,19.79,0,29.68,0,34.5,4.45,33.74,1.93,52.15-.82,6-2.08,11.76-.35,19.66,1.85,8.44,6.1,14.73,9.13,19.14,2.91,4.23,4.42,5.58,13.87,15.63,0,0,10.38,11,22.48,25.81,6,7.31,7.82,10,8.25,14,.83,7.76-4.64,9.56-4.21,16.85.27,4.6,2.56,5.91,15.62,22.83,6.95,9,7.49,10.16,7.91,11.24,4,10.31-2,14.77,1,23.88,3.81,11.56,17.57,16.92,20.54,18.08,9.54,3.72,10.73-.11,20,4,8.5,3.81,13,9.47,19.49,17.73,1.41,1.79,2.5,3.44,2.63,5.62.16,2.63-1.23,3.52-1.4,6.85,0,1-.23,4.36,1.4,6.15,2.54,2.77,8.63.94,11.07.35,6-1.46,7.7.35,34.94,7.55,18.58,4.91,27.87,7.37,35.47,8.43,9.86,1.37,12.25.87,18.08,3.16a52.34,52.34,0,0,1,21.95,17c4.89,6.71,2.84,7.48,6.67,11.06,7.41,6.91,14.67,3.61,23.35,11.59a43.15,43.15,0,0,1,6.33,7.2c3.11,4.75,3.31,7.69,6.49,9.83,1.92,1.29,4,1.7,7.2,1.76a48.83,48.83,0,0,0,19.32-3.87c19.11-8.71,33.26,3.93,55.48-5.79,3.95-1.73,1.37-1.19,19.84-14.75a515,515,0,0,1,43-29,321.55,321.55,0,0,1,29.32-15.8c17.67-8.3,18.55-6.59,48.47-18.62,16.66-6.7,20.32-8.81,29.5-10.36,6.91-1.16,17.17-2.89,29.67-.35,6.83,1.39,9.47,3.07,17.91,4s12.92,1.49,18.26-.17c4.4-1.37,10.66-6.67,23-17.21,5-4.31,6.22-5.48,9-6.32,7-2.17,11.16,1.92,16.85-1.06,3.49-1.82,5.41-5.17,6.68-7.37,2.88-5,1.71-7.44,4.74-10.71a15.28,15.28,0,0,1,7.9-4.22c6.3-1.5,8.63,1.59,11.94.18,4.74-2,3.33-9.84,6.67-21.42,3.28-11.38,6.32-9.7,10.36-21.6,4.17-12.27,1.29-15.1,5.27-28.27,3.14-10.4,5.09-9.17,9.65-21.07,6-15.54,2.91-18.4,8.61-36.17,3.95-12.32,5.46-11.1,10.53-26.51,4.67-14.18,3.19-14.6,7.2-24.41,3.78-9.22,5.91-10.87,12.65-25.28,2.77-5.95,4.16-9.43,6.84-15.81,10.86-25.84,13.09-28.45,16.86-38.27,7.59-19.79,3.39-21.81,11.59-57.07,3.69-15.88,3.33-10.23,10.71-38.45,3.69-14.1,4.69-19,14.92-60.23,3.14-12.62,3.82-15.29,4.92-19.31,5.62-20.51,8.11-25,10.89-36.88,1.33-5.7.51-3.62,4.21-33,0,0,2.54-20.12,7-46a131.68,131.68,0,0,1,10.54-34.42c10.33-23.11,9.66-31.21,22.3-60.57,3.09-7.17,3.12-6.67,6.32-14.23,5.44-12.83,9.28-23.56,13.52-35.47,1.63-4.57,3.45-9.7,5.79-16.68,5.57-16.58,6.28-20.46,12.65-40.21,3.22-10,4.84-15,7.2-21.77,4.94-14.15,6.64-17.53,8.6-25.63,2.67-11,1-10.73,3.34-21.78,1-4.85,2-8.1,11.58-33.36,7-18.62,7.54-19.65,8.61-23.7,3.24-12.25,2.81-18.57,4-29.68,1.33-12,5.33-25.18,13.34-51.44,5.81-19,8.71-28.57,13-38.46,3.44-7.92,7-14.9,11.24-27.39,3.6-10.55,2.46-9.56,5.45-17.56s6.62-15.25,13.87-29.67c3.27-6.52,4-7.85,5.79-11.77a189,189,0,0,0,7-18.61c4.75-15.44,3-22.44,6.15-42.84a237,237,0,0,1,5.62-26c4.71-17.75,10.25-31.51,16.86-47.76,7.06-17.39,7.08-15.38,9.3-22.47,5.58-17.85,3.41-24.06,8.61-40.21,3.2-10,3.59-6.24,12.29-26.34a355.25,355.25,0,0,0,15.1-41.44c4.22-14.55,2.35-12,5.62-22,5.73-17.51,10-20.77,17.2-41.79,2.16-6.28,2.85-9.08,5.45-15.45,3.87-9.48,6-12.11,8.42-19.14,1.07-3,1.37-4.52,4-18.61,5-26.38,6-32.26,7.2-40.91,1.14-8.36.7-6.72,1.23-9.66,3-16.46,7.94-19.66,11.77-36.17,1.65-7.15,1.2-8.62,3.33-15.8s3.16-10.63,5.44-15.28c3-6.06,6.22-10.34,4.57-12.64-.35-.5-1.35-1-3.34-1.93-2.92-1.41-4.27-1.65-5.09-2.11-3.44-1.91-2.31-10.18-1.93-14.22.4-4.23,1.87-19.82-3.86-32-3.92-8.29-8.68-9.64-8.43-16.15.15-3.83,1.83-4.41,3.86-12.29,1.85-7.18.66-7.47,2.28-12.82,1.1-3.6,1.79-4,7.73-15.1,3.65-6.83,5.48-10.28,6-12.12,1.83-6.82,0-9.24,2.28-15.27,1.47-3.83,2.36-3.24,5.8-9,6-9.9,4.28-13.35,9.48-18.79a27,27,0,0,1,9.66-6.32c5.3-2,7-.58,13.34-2.28,2.32-.62,12.6-3.36,13.35-8.78.26-1.9-.76-3.4-2.81-6.32-5.16-7.34-11.12-8.79-10.54-11.76.52-2.68,3.84-3.65,6.85-5.27,9.21-5,12.81-15.43,20-36.35,5.25-15.26,4.59-19.53,2.45-21.77s-4.55-1.07-7-3.69c-4.49-4.75-1.91-14.33-.53-19.49,1.72-6.38,3.1-6.45,4.22-12.47.82-4.43,1.78-9.56-.7-14-1.66-3-3.76-3.71-9.31-7.2-6.94-4.36-11.71-7.36-15.1-11.24-7.8-8.91-7.1-21.08-7-22.12.64-9,5-10,6.49-19.49,1.11-7-.47-12.54-3.68-23.36-4.28-14.38-6.59-14.36-11.77-30.72-.57-1.81-4.69-15.16-2.81-26.52a21.3,21.3,0,0,1,2.46-7.2,21.76,21.76,0,0,1,8.6-8.25c4.23-2.3,5.84-1.43,14.93-3,8.38-1.44,10.41-2.77,19.84-4,8.68-1.18,9.62-.42,10,0,3.68,3.93-7.34,13.95-3.86,25.28,1.84,6,7.27,10.74,8.25,11.59,5.35,4.65,9.44,4.72,10.36,8.43.7,2.85-1.46,3.78-3,10.88-1,4.61-1.48,6.93-.35,9.14,2.14,4.15,7.19,2.23,10.19,6.14,3.26,4.27-1.28,8.48,1.22,17.56a24.87,24.87,0,0,0,5.8,10.36c2.47,2.57,4.89,3.83,9.66,6.32,7.48,3.91,8.41,2.87,11.41,5.62,3.16,2.91,3.12,5,6.67,7,1.17.67,4.85,2.79,7,1.41,2.48-1.58.13-5.86,2.29-11.59.93-2.47,2.17-3.08,7.72-9.31,5.88-6.59,7.77-7.67,10-10.88,4.25-6.08,2.51-9.4,5.09-19.32,2.89-11.06,5.89-10.17,12.82-27.21a138,138,0,0,0,6.5-19.32c1.9-7.54,1.75-9.85,4.91-25.46.89-4.36,2.08-10,2.64-12.64,3.37-16,4.53-20.63,1.93-25.29-1.17-2.08-2.31-2.77-4.21-6.49-2.1-4.09-1.91-5.58-3.34-8.78-1.16-2.6-3.72-5.4-8.78-10.89-5.75-6.23-6.73-6.63-8.78-9.83a43.21,43.21,0,0,1-4.21-9.13c-2.78-7.41-2.15-8.84-4.74-16.33-1.87-5.38-3.07-8.77-6-12.47-3.48-4.43-4.89-3.59-7.2-6.85-4.21-5.93-.7-10.41-2.81-21.77-1.3-6.94-2.58-5.1-5.45-16a164.8,164.8,0,0,1-3.51-18.43,91.19,91.19,0,0,1-1.23-10.71c-.28-6.9.71-7.35.71-13.52,0-11.87-3.68-16.13-.36-21.25,1.59-2.44,3-2.36,3.87-4.92,1.67-4.89-1.76-10.26-2.81-11.76-3.67-5.26-7.31-4.73-9.48-9.48-1.13-2.47-1.06-4.58-.88-8.26.39-8.17,2.88-10,4-17.2,1-6.1.17-10.94-.88-17.21-1.26-7.53-2.58-8.66-3.69-14.05-2.84-13.79,3.7-16.53,2.11-33.53-.68-7.28-1.43-14.22-6.5-18.62-2.1-1.82-4.21-2.56-6.32-5.62-.91-1.32-1.91-3.2-3.16-10.88-1.61-9.86-.94-12.7-3.51-17.56-1-1.91-1.15-1.54-2.63-4.21a43.59,43.59,0,0,1-4.57-11.59c-.68-3.17-.57-7.61-.35-16.51.13-5.14.32-7.2-1.23-8.78-2.53-2.58-6.41-.53-8.08-2.81-1.83-2.5,2.3-5.73,1.76-11.76-.25-2.84-1.93-5.47-5.27-10.71-4.76-7.47-5.8-6.77-6.85-9.84-1.83-5.4,1.47-7.42,2.64-17.91.78-7,1.41-12.76-1.93-17.2-2.46-3.26-4.44-2.35-9.84-7.73-3-3-5.87-5.92-5.44-9.13s3.62-4,3.16-6.14c-.36-1.63-2.49-1.94-7.73-4.39-4.22-2-6.34-3-7-3.87-3.13-4.08,1.25-8.8-1.93-15.1a16.17,16.17,0,0,0-3.86-4.74c-3.73-3.32-6.18-2.83-9-6-2.53-2.86-2.48-5.52-3.33-5.44-2.07.19-1.75,15.69-3.52,15.8-.54,0-1-1.41-1.4-2.46-2.73-7.55-4.71-7.29-7.38-13.87-3.46-8.53-1.21-11.63-4.39-13.69s-5.71.52-9.83-1.76c-3.33-1.85-4.71-5.22-5.44-7-2-4.9-2.61-12.83,1.4-16,3.56-2.8,8.71-.23,9.66-2.28.8-1.74-2.91-3.47-5.27-8.43-3.23-6.8.46-10.41-3.16-15.81-1.83-2.72-2.81-1.86-6.14-6-3.8-4.67-3.31-6.75-5.45-7.55-4.53-1.69-9.72,6.53-13.17,4.75-1.19-.62-.77-1.71-3-7.91-1.51-4.22-1.79-4-2.81-7.2-1.54-4.89-.93-5.6-2.28-8.07-1.57-2.87-4.69-6.1-6.5-5.45-1.3.48-1,2.64-2.63,9.84-1.38,6.25-1.9,6.68-2.29,6.85-3.37,1.42-8.35-10.31-14.75-9.66-5.35.54-7.6,9.37-10,8.6-1.72-.55-2.09-5.56-1.06-9.48.82-3.11,2.78-5.57,6.68-10.36,2.79-3.44,4.2-5.15,5.44-6.15,6.54-5.25,8.56-5.33,11.24-8.42a17.81,17.81,0,0,0,4.39-9.84c.36-5.1-2.49-7.16-8.78-19-2.92-5.47-3.54-8-5.27-9.31-2.7-2-6.55-.88-9.66,1.06A26.82,26.82,0,0,0,1215.71,7c-5.19,5.6-4.45,7.86-9.48,14.23-4,5-6.71,6.49-6.15,8.78s3.85,1.73,6.32,4.56c2.76,3.16.53,6.1-1.75,22.65-.25,1.79-.66,5-3,6.5-.89.59-1.39.5-4.21,1.23-3.56.91-5.34,1.37-6.32,2.11-3.12,2.32-1.39,5.84-4,7.72s-4.86-1.07-9.31.18c-1.66.46-4,2.77-8.78,7.37-3.24,3.16-4.87,4.75-5.27,5.8-1.62,4.23,1.69,6,1.06,11.94a16.54,16.54,0,0,1-6,10.71c-1.1.93-3.23,2.74-4.92,2.1s-1.71-3-2.46-5.26c-1.38-4.17-4.51-6.44-9-9.66-4.22-3.06-13.49-9.78-19.49-6.15-3.43,2.08-5.38,7.28-4.39,11.59,1.09,4.74,5.05,5.43,16.5,14.93,7.7,6.38,10.64,10,9.84,12.81-.51,1.79-2.08,1.74-2.81,4-1.08,3.38.94,7.71,3.86,10,2.49,2,3.82,1,5.44,2.63,2.82,2.79.62,7.36.71,13.17.13,8.83,5.4,9.86,7.55,19.49,1.85,8.33-.34,15.41-1.94,20.55-2,6.44-5.54,11.9-12.64,22.82-6,9.18-7.08,9.67-8.78,14.23a53.59,53.59,0,0,0-3,18.61,101.75,101.75,0,0,0,.88,12.11c1,7.48,2,8.3,1.23,11.24-1.39,5.2-5.55,6.46-5.1,10.54.3,2.67,2.19,3,2.11,5.44-.12,3.44-4,6-6.32,7.37-3.83,2.39-7,3.06-11.94,4.22-15.43,3.62-14.26,4.11-17.21,4s-11.71-.28-16.68-6c-1.69-1.94-2.11-3.58-5.62-7.55-2.52-2.86-3.28-3.12-3.86-4.74-1.42-3.94,1.65-6.31.35-9.31s-6.47-5-8.43-3.51c-3.58,2.73,4.86,15.83.88,19.14-2.09,1.73-4.72-1.62-12.47-1.23-5.52.28-7.47,2.15-11.06.7-2.26-.92-5-3.1-5.09-5.62-.06-2.29,2.16-2.73,4.39-6.85.94-1.74,3.09-5.71,1.58-8.42-.69-1.24-2-1.88-4.57-3.16-3-1.52-4.14-1.31-4.56-2.29-.82-1.9,2.9-3.65,2.81-6.67s-4.33-6.7-8.43-6.5c-4.86.25-7.58,5.68-8.08,6.68-2.33,4.66-1.17,9.05-2.81,9.48-1.35.36-2.32-2.62-5.26-3a5.55,5.55,0,0,0-4.57,1.58c-1.95,2.17-.15,5.24,1.41,13.52,1.61,8.57.73,10.82,3,12.47,3,2.2,6-.74,10,1.58,2.17,1.26,2.67,2.93,5.44,8.25.13.25-2.53-4.87,6.5,11.42a117.87,117.87,0,0,1,7.55,15.62c.83,2.16,1.56,4.3,1,6.85-.62,3.12-2.56,4.2-4,6.32-4.23,6.08,1.31,12.13-.7,25.81-1,6.6-2.7,8.25-3.33,8.78-3.87,3.28-10.12,1.84-13.52,1.06-2.63-.61-5.63-1.34-7.91-3.87-1.42-1.58-1.38-2.56-3-4.91-2.25-3.31-4.55-4.65-5.8-5.8-7.11-6.56,1.75-24.15-3.86-27.74-3-1.92-7.34,2.23-10.36-.7-1.57-1.53-1.3-3.45-4-6.32-1.61-1.69-2.62-2-2.63-3,0-1.89,3.59-2.09,4.92-4.92,1.42-3-.42-7.73-2.46-8.07-1.35-.23-2.67,1.49-3.69,2.81-3.13,4.07-2.22,6.84-4.74,10.88-1.38,2.23-4.33,5.69-6.15,5.1-3-1-.16-13.76-2.1-14.23-1.18-.28-3.65,4-4.92,7.9-1.33,4.09-.63,5.56-2.11,6.85-2.73,2.38-6.68-1.3-9.48.88-3.44,2.68-2.57,12.18-2.28,13.87a3.94,3.94,0,0,1,0,1.58c-.28,1.35-1.18,1.95-1.76,2.81-.88,1.32-.6,2.68-.52,4.57a23,23,0,0,1-1.06,8.78c-1.5,4.16-3.37,4.24-4.21,7.2-.93,3.27.83,6.61,4.39,13.16s5.42,10,9.48,13.17a58.88,58.88,0,0,0,9.31,5.62c4.29,2.14,6.19,2.49,7.9,4.74,1.47,1.94,3,5.57,1.75,8.26-2.57,5.4-15.39,3.78-15.27,5.44.1,1.48,5.63,1,11.76,5.09a24.83,24.83,0,0,1,8.61,10.18c.39.88,3.56,8.78.17,16.69-1.64,3.82-2.92,3.22-4.74,6.67-5,9.39,2.85,17.06-1.75,27.56-1.7,3.89-4.91,7.73-6.5,7.2-3.11-1-1.2-19.07.88-30.55,1.51-8.38,3-12.53.64-17.58-2-4.21-6.75-9.42-11.53-8.41-2.12.45-4.85,2.14-5.44,4.75-1,4.61,5.88,6.64,7.55,14.75.85,4.14.22,9.41-2.46,10.88-1.1.61-1.58,0-4,.7-3,.83-3.37,2-6,2.81-1,.32-4.25,1.36-7,0-3-1.47-2.56-4.34-5.1-5.09-2.36-.7-5.1,1.1-6.49,2.63-1.93,2.13-2.23,4.77-2.64,8.43-.54,4.87.36,6.06-.87,7.73-1.8,2.44-4.37.82-7,3-3.75,3.06-.41,7.74-4.56,14.23-1.55,2.42-2.86,3.08-3.37,5.58-.46,2.25.06,4.31,1.08,6.88,2.21,5.54,4.28,7.29,6,10.54,4.08,7.8-1.13,10.61,2.29,23.18,1.2,4.42,2.5,6.47,1.4,9.3-1.18,3.06-3.71,3.3-7.55,7.38-2.58,2.74-2.69,3.95-5.62,8.42-4.51,6.9-5.85,6.44-9.13,11.42-5.54,8.41-2.31,10.62-8.07,19.66-3.64,5.71-5.76,6.14-6.85,10.71-1.18,4.91.33,8.31-2.11,10.54-2.06,1.88-3.9.15-6.85,1.76-2.58,1.4-4.16,5.69-7.2,14.22-1.2,3.37-1.89,5.66-4.21,7.37a9.33,9.33,0,0,1-4.92,1.76c-2.44.14-6.15-.63-7.37-3-1.35-2.61,1.47-5.06,3.16-10.36,2.36-7.38-1-9.31.35-16.68,1.3-7.21,5.76-12.29,10.36-17.56,6.42-7.33,11.62-9.65,11.06-14-.24-1.92-1.5-3.6-3.69-6.5-3.19-4.25-5.15-4.64-5.26-6.85-.13-2.68,2.71-3.23,3.33-7.2a7.65,7.65,0,0,0-1.05-5.61c-2.17-3-6.55-2.84-7-2.81-2.85.15-5,1.62-10.89,7.55-4.47,4.45-7.77,8.1-10.54,11.23a90.5,90.5,0,0,0-9.65,12.82c-2.76,4.49-3.38,6.46-2.64,7.38s2.76-.07,6.5,0c4.6.07,9.46,1.86,9.48,3.33,0,1.19-3.13,1.46-7.9,4a45.82,45.82,0,0,0-7.73,5.62c-7.73,6.36-11.6,9.54-14.22,14.22-3.27,5.85-1,6.76-4,10.89-3.66,5.08-7.24,4-16.68,10.18-4.38,2.87-8.13,5.37-11.41,10-2,2.8-5.86,8.29-4.92,15.28.13.92,1.14,8.4,6,10.53,2.13.94,3.76.29,4.92,1.76,1.63,2.05-.44,4.74,1.23,6.67,1.17,1.35,3.49,1.55,5.09,1,3-.93,3.95-4.44,4.57-4.21.78.29-1.95,5.53-.88,11.41.52,2.85,1.43,3.16,5.09,10s5.62,10.62,4.39,11.94-3.62-1.22-9.13-1.23c-1,0-2,.08-10.54,2.46-5.39,1.5-8.08,2.25-9.13,2.63-7.55,2.8-9.52,5.38-11.23,4.39-2.31-1.33-2.09-7.95.35-13.34,4.52-10,14.84-11.73,14.22-17.21-.22-1.92-1.73-3.38-4.74-6.32a33.84,33.84,0,0,0-7.38-5.27c-5.85-3.33-7.37-2.7-9.13-5.09-1.06-1.45-1.47-3.6-2.28-7.9-1.1-5.85-.55-6.75-1.4-7.38-2.79-2-11,5.82-22.65,14.05-11.29,8-10.45,5.48-20.2,12.47-9.21,6.6-16.92,13.83-29.32,25.46-5.49,5.15-8,7.67-12.82,10.18-7.77,4-11,2.5-15.45,6.67-5,4.67-2.17,8.43-8.25,14-4.44,4.1-7.57,4.08-10.19,8.43s-2.33,9.09-2.1,13.17c.53,9.44,4.3,12.34,2.1,16.15s-7.24,3.4-7.9,7c-.37,2.07,1,3.91,1.58,4.74,3.2,4.37,7.94,3.28,13.52,6,5,2.38,4,4.55,11.77,12.46,8.49,8.61,14.22,10.65,13.52,12.65-.81,2.29-8.16-1-20.72,1-9.14,1.52-13.84,4.71-17.74,1.93-1.7-1.21-1.57-2.37-3.51-7.2-3-7.49-8.2-16.91-12.64-22.47a21.14,21.14,0,0,1-3.16-5.27,13.3,13.3,0,0,1-1.41-6.15c.31-4.19,3.46-5.13,3.52-8.42s-3.16-6-4-6.68c-6.09-4.9-16.64-3.48-23,.88-2.36,1.61-2,2.18-6.32,5.44s-6.15,3.87-8.26,6.68c-1.64,2.18-3.59,5.92-2.46,7.2,1.61,1.8,8.1-2.77,9-1.58s-4.43,7.49-11.77,10.88c-3,1.37-5.56,2.56-8.25,1.58-4.46-1.62-5.75-7.65-6.14-9.48-1-4.85.69-6.41-.88-8.6-2.53-3.54-10.21-3.89-13.17-.71-1.37,1.47-.6,2.47-2.11,4.57-2.59,3.62-8.17,5.29-10.36,3.51-1.14-.93-.44-2-1.58-3.16-1.93-1.88-5.25,0-10,0-5.38,0-5.24-2.57-9.83-2.63-5.25-.07-9,3.19-15.1,8.43-3.59,3.09-4,4.31-3.86,5.26.39,2.81,5.52,3.3,6,6.5.21,1.49-.87,1.64-1.76,4.21-1.72,5,1.26,7.74-.88,11.59-.82,1.49-1.31,1.17-2.1,2.81-1.42,3-.12,4.58-1.23,6.67-1.48,2.8-5.95,4-7.2,2.81-.87-.84.46-2.26,0-4.74-.61-3.25-3.83-5.78-6.67-6.67-2.62-.82-4.2,0-9,.88A117.88,117.88,0,0,1,451,841.23c-11.43.9-14.08-.32-17.21,2.28-2.17,1.8-4.09,5-3.16,7,1.5,3.21,9.33.76,11.06,4.22,1.25,2.49-1.58,6.27-2.28,7.2-2.56,3.41-4.58,2.73-8.78,6.32-4.6,3.92-4.87,7-7.38,7s-5-2.86-5.26-5.62c-.28-3.16,2.76-3.72,3.33-7.55.44-2.9-1.17-3.49-3.51-11.24-1-3.31-.68-3.14-1.58-6-2-6.25-3-9.38-5.09-10.53-5-2.68-14.44,5.81-19.32,10.18-6.21,5.58-4.92,6.1-12.64,13.87-8.43,8.51-9.95,7.86-19.14,17.21-5.16,5.26-5.59,6.39-8.6,8.08-7.24,4.07-11.34,1.21-16.15,5.27-5.15,4.33-4.43,10.93-7.73,11.23-2,.19-3-2.19-6-4.74-4.25-3.7-8.81-4.55-15.45-5.79-10.14-1.89-11.08,1.12-23-.7-7.58-1.16-12.68-2.91-21.6-2.46-6.22.31-10.07.56-13.35,3.33s-4.05,7.94-5.61,18.27c-2.14,14.08-.69,18.55,0,20.36,1.33,3.51,2.14,3.18,5.09,8.26.83,1.43,11.32,19.82,5.62,26.16-2.18,2.41-4.4.52-6.85,3-4.06,4.08.4,10.86-1.23,22.83a44.89,44.89,0,0,1-3.16,11.24c-2.68,6.73-5.58,10-12.64,19.49-6.95,9.31-10.43,14-13,18.26-5.79,9.68-4.32,10.45-10.18,20.37-4.94,8.36-8.41,14.24-15.1,19.84-7.33,6.14-10.34,5.09-13.17,10.18-3,5.39-.65,8.41-3,19a50.45,50.45,0,0,1-4.75,13.52c-4.74,8.81-9.29,9.48-15.62,18.61a46.08,46.08,0,0,0-7,13.87c-1.72,5.92-1,8.57.53,33,.5,8.19.49,9,1.05,11.06,2,7.24,5.49,10.08,10.54,19a66.08,66.08,0,0,1,6.14,13c3.4,11-.31,18.05-2.63,34.06-1.6,11.11-2.65,18.32-1.4,27.92,1.72,13.3,8.08,33.12,6.84,41.61,0,.3-.42,2.83-.87,6.33-.44,3.35-.74,5.63-.88,7.55a54.31,54.31,0,0,0,.52,11.41c1.21,7.23,5.57,11.28,9.84,17,8.62,11.62,5.75,15.17,18.61,40.91,3,6.06,6,11.52,6.15,11.77,5.36,9.8,5.94,9.69,7,12.29,4.13,10-2.87,15.09-3.86,32.13-.56,9.61,1.14,17,3.16,25.64a121.75,121.75,0,0,0,8.78,25.11c6.42,13.42,8.83,12,21.07,32.48,9,15,11.43,22.1,12.81,28.09.95,4.09.68,4.57,2.46,13.17,3.53,17,5.15,17.76,4,21.6-2.73,9.45-14.34,11.11-13.52,17.73.16,1.26,1.68,3.47,4.74,7.9,4.38,6.36,5.16,6.07,5.44,7.73,1.17,6.84-12,11.7-10.71,17.38.71,3.13,5.17,2.21,8.78,7.38,3.25,4.65,3.69,9.23,4,12.82.82,8.41-1.56,15-3.16,19.49a54.48,54.48,0,0,1-4.74,10c-4.48,7.32-8.57,9.85-13.17,14.75-6.06,6.47-8.84,12.61-12.82,21.43-6.76,15-4.16,18.53-10.71,26.68-1.9,2.38-1.56,1.47-13.17,12.12-8,7.38-12.06,11.07-13.52,13.17-3.91,5.65-2.63,7.18-8.78,24.76a174.37,174.37,0,0,1-6.84,17.2c-3.49,7.39-5.3,11.17-9,15.28-5.53,6.22-8,5.06-13.17,10.71-4.45,4.86-6.2,9.61-9.48,18.79a145.52,145.52,0,0,0-6,22.12c-3.47,18.49-1.06,22.82-5.79,34.95-1.66,4.24-3.89,8.67-5.45,11.76-4.27,8.48-6.41,12.73-8.42,14.05-4.77,3.11-7.77-.11-25.29.7-6.93.32-10.71,1-13,3.86s-1.14,5.3-3.51,7.2c-3.67,2.95-8.41-1.36-12.65.88-2.7,1.43-3.26,4.5-5.26,17.21-2.05,13-3.08,19.52-3.16,21.42-.64,13.35,1.94,13.62.35,21.77A48,48,0,0,1,39.8,2070c-5.49,6.49-8.46,6-11.76,12.3a41.34,41.34,0,0,0-4.22,14.57c-.38,5.59.75,9.18-1.58,11.06s-4.79-.23-6.67,1.41c-2.67,2.32,1,7.72.53,14.74s-4.41,6.84-8.6,17c-1.77,4.28-2.58,10.4-4.22,22.65-1.42,10.64-1.19,13.33.53,14.57,3.27,2.38,8.8-2.79,12.11-.17,2.31,1.81,2.63,6.64.71,9.65-3.34,5.23-11.11,1.36-14.93,5.8-4.32,5,.24,16.31,6.5,31.78,2.92,7.23,3.77,7.88,4.74,12.11,2.37,10.45-1.31,13.07-.7,23,.79,12.85,7.25,13.27,11.76,33.88.92,4.2,1.16,6.51,2.63,11.94a109.28,109.28,0,0,0,15.81,34.59c5.17,8,7.76,12,10.88,14.93,9.1,8.52,14.63,5.8,20.55,13.52,3.27,4.27,4.19,8.51,6,16.68,1.47,6.75,2.52,11.6.7,17.21C79.62,2406.08,78.66,2407,78.26,2408.82Z"/><path d="M1353.72,1038.76c-2.61,5.43-3.93,6-5.62,10.36-1.61,4.19-.62,4.24-2.28,9.31-2.08,6.34-3.82,6.87-4.57,11.41-.58,3.58-.45,9.07,1.41,9.66,2.57.81,8.27-7.85,11.24-15.8,2.26-6.08,1.12-6.87,3.51-12.3,2.89-6.57,4.92-6.2,8.78-13.34,3.51-6.51,2.14-7.4,6.32-15.63,2.26-4.47,2.89-4.65,6-10.53,3.9-7.48,6.22-11.92,4.91-13.17-1.52-1.47-7.46,1.91-11.23,5.09-4.46,3.76-6.71,7.94-9.13,12.47a113.61,113.61,0,0,0-6,13.87C1355,1035.55,1355.08,1035.92,1353.72,1038.76Z"/></g></g></svg>