<svg xmlns="http://www.w3.org/2000/svg" viewBox="0 0 1293.98 3217.29"><g id="Layer_2" data-name="Layer 2"><g id="Malawi"><path d="M655.76,2085.55c8.08-2.41,12.68-4.12,20.51-4.83,7.25-.66,10.87-1,14,.19,8.77,3.29,9.21,12.24,21.89,38,7.94,16.14,11.23,19.68,12.87,21.32,7.78,7.8,12.46,7.19,16.52,14.21,4.18,7.22,3.42,15.1,2.5,24.59-1.33,13.67-4.91,14.34-4.23,23.24.49,6.37,3.53,12.21,9.6,23.62,8.18,15.37,9.07,13.12,11.72,20,3.69,9.55,3.49,19,3.07,37.83-.22,10-1,14.84,1,22.86a130.51,130.51,0,0,0,4.61,14.4c3.89,10.2,5.12,9.86,5,12.68-.41,9.49-14.15,11.4-14.79,20.94-.41,6,5.27,7.15,4.61,14.79-.48,5.55-3.22,6.46-4.8,13.63a33.19,33.19,0,0,0,1.15,18.44c1.94,5.11,3.61,5,5.76,9.8,3.33,7.37,2.29,14.37,1.54,20.93s-2,17.35-9.8,25.74c-6.19,6.65-11,5.79-18.63,15.17-2.91,3.57-5.07,6.29-5.57,10.37-.69,5.6,2.41,8.33,1,13.26-1.32,4.48-5.3,7-6.15,7.49-8.37,5-16.23-3.19-22.28.19-6.74,3.77-5.36,18.67-3.64,37.07,2,21.67,5.44,26.19,2.49,37.45-.68,2.62-4,8.66-10.75,20.74-13,23.34-17.31,28.42-20,31.31-3.36,3.63-1.94,1.48-15.56,13.64-18.88,16.86-21.76,21.13-23.81,25.54a48.14,48.14,0,0,0-4.23,20.17c-.17,7.75-.36,17,5.38,21.7,4.81,4,8.23.24,15.75,4.23,5.59,3,4.85,5.64,14.6,15.17,4.47,4.38,4.5,3.7,10.56,9.41,6.85,6.46,10.27,9.69,13.06,13.83,3.16,4.69,9.14,13.56,6.72,22.28-1.25,4.52-3.35,3.92-7.1,10.76-1.26,2.3-5.6,10.41-5.38,20.17.1,4.55,1.09,4.77,5.38,18.63,4.52,14.62,3.5,14.65,6,19.59s7.55,15.2,16.71,17.48c3.89,1,4.24-.56,14.41-1,9-.37,13.51-.55,16.71,1.15,5.42,2.87,7.53,10.21,11.52,24.77s2.5,15.71,5.76,20.36c5,7.19,13.18,11,20.36,14.41,9,4.23,10.15,2.81,13.45,5.95,7.53,7.2,2.9,16.05,9.6,21.13,5.68,4.31,10.76-.71,18.25,3.84,1.6,1,3.43,2.46,10.37,15.37,8.07,15,8.69,18.76,13.63,21.32,5.66,2.92,7.91-.41,12.49,2.69,4.25,2.87,4,6.86,9.6,23.43,3.55,10.42,4.66,11.79,6.15,12.87,5.59,4,12.06.84,15.17,5.18,1.79,2.5.27,4.42,1.35,9,1,4.32,3.51,7.57,8.26,12.1,7.94,7.56,14,10.93,27.85,20,12.7,8.32,14.63,10.13,19.78,10.75,5.51.67,11.3-.39,16.52-1.34,10.74-2,12.08-4.14,15-2.69,3.61,1.81,3,5.94,8.06,23.81,2,7.06,2.31,7.22,2.69,10,.34,2.47,1.66,12-2.49,20.17-1.41,2.76-3.61,5.66-17.1,14-18.4,11.41-23.93,12-24.58,16.71-.16,1.14,0,2.37,12.67,20.93,3.23,4.73,6.47,9.4,4.81,12.49-1.31,2.41-4.73,2.2-5.19,4.22-.69,3,6.12,7,6.72,7.3,8.77,5,17.47,3.57,27.85,3.08,26.07-1.24,29.54,4.83,41.49-.77,2.64-1.24,13.39-6.28,14.79-15,.18-1.15.12-1.87-3.27-15-2.73-10.59-3.53-13.33-2.11-16.71,1.53-3.66,3.88-3.84,4.42-7.3.62-4-1.9-7.49-4-10.37-5.07-6.86-8.54-6.52-11.33-10.57-4.91-7.12-.93-18,1.35-24.2,5.43-14.84,14.58-19.5,12.48-28-.82-3.36-2.32-3-5-7.49-7.69-13,.53-23.37-5-38-1.83-4.86-4.93-8.36-11.14-15.37-9.68-10.92-13.85-10.85-24.39-21.89-8.47-8.87-14.07-14.91-13.64-22.86.35-6.34,4.5-13,5-13.83a33.79,33.79,0,0,1,5.76-6.91c7.77-7.1,13-4.84,21.13-10.57,3.15-2.22,10.36-7.3,11.14-14.78.74-7.08-4.86-10.68-2.88-18.25.56-2.17,1.72-3.95,4-7.49,4.19-6.43,6.61-7.29,8.64-11.14s2-7.63,1.54-13.83c-1.6-24.43-3.38-27.26-2.11-34.19,1.57-8.66,6.19-14.38,10.56-19.78,10.68-13.22,17.47-10.06,32.46-25.55,4.52-4.67,6.88-8,12.48-10.37,9-3.76,17.92-1.28,19-1,14.78,4.33,16.67,18.32,25.74,17.48,5.09-.47,5.32-5,15.75-8.84,3.68-1.36,5.47-1.48,11.33-2.68,0,0,11.69-2.42,22.66-6,11.52-3.71,9.72-5.18,24.39-11,13.41-5.26,16.8-4.79,25.17-10,5.08-3.17,9.82-6.11,13.06-11.53,4.88-8.18,3.19-16.7,2.3-25-.68-6.36.83-22.74,3.84-55.5,1.37-14.88,2.42-22,2.88-36.5.36-11.2-.16-10.4.19-18.63.74-17.1,3.15-25.13,6.34-46.09.85-5.56,0-.77,4-32.85,3.5-28.06,4.81-37.25,2.11-50.51-1.37-6.72-1.73-4.49-5-17.1-5-19.09-3.84-23.14-7.88-39.75-4.78-19.66-7.6-19.24-8.07-29.58s2.09-17.73,6.92-31.12c6.91-19.19,12.42-34.47,24.2-51.66,2.09-3,11.55-16.64,9.79-26.12a29.79,29.79,0,0,0-3.64-9.42,27.38,27.38,0,0,0-4.81-5.57c-5.78-5.68-2-17.27-.76-34.57,1.33-18.8-2.32-16.82-.2-30.92.89-5.91,2.57-13.16.58-22.86a51.19,51.19,0,0,0-2.88-9.22c-2.87-7.15-7.37-14.48-15.94-23.24-9.33-9.52-11.9-8.91-20.94-17.09-14.67-13.28-14.23-20.62-31.11-39.37-9.41-10.46-9.8-8-18.06-17.48-9.06-10.39-15.74-21-22.85-32.27-6.63-10.52-9.8-16.61-17.67-23.43-3.47-3-5-3.62-7.5-6.53-8.22-9.59-8.86-21.27-9.21-24.78-1.29-12.72-14.37-28.07-40.53-58.77-21.49-25.23-25.55-25.45-44.75-49.94-10.29-13.12-10-14.24-20.55-27.08-14.45-17.66-21.34-23.41-32.66-39.38-7.9-11.15-5.89-10.25-14.21-22.47A275,275,0,0,0,944.59,1759c-14.85-13.47-14.23-9.58-29.39-23.62-18.11-16.77-20.56-23.78-33.42-28.81-8.69-3.4-16.93-3.86-30.35-4.61-11.17-.63-25.47-.24-27.27-.19-12,.34-13,.91-17.67.19-3.39-.52-16.39-2.52-23.82-11.53-4.49-5.44-3.65-9.45-5.95-25.54-3.56-24.89-7.22-26.78-8.84-46.86-1-12.35.45-10.93-.19-25.55-1.19-27.36-6.27-33.28-9.41-66.07-1.37-14.31-.26-11.69-1.73-26.51-1.59-16-3.32-23.49-6.91-50.32-1.36-10.16-1.55-12.35-2.31-18-4.68-35-13.1-65.24-23.82-103.14-5.93-21-6.43-21.26-9.6-33.81-6-23.93-10-39.65-10.95-60.5-.48-10.61-.3-25.4-.19-35.15.11-9.35.17-14,.39-17.09.76-10.72,2.47-18.9,8.45-42.64,4-16,6-23.94,6.91-26.89,4.79-15.85,12-32.42,26.31-64.92,5.27-12,6.55-14.62,9-21.13,4.58-12,5.14-15.77,11.53-34,4.24-12.12,4-10.46,7.29-20.17,5.3-15.63,8-23.44,9.42-30.73,1.16-5.82,1.68-10.28,4.41-16.9,2-4.92,3.69-9,6.34-11.72,7.65-8,20.78-2.4,53.78.39,15.45,1.3,12.81.12,29.58,1.53,13.19,1.12,20.19,1.13,34.19,1.16,9.82,0,12.88-.27,15.17-2.69,5.17-5.49,1.56-17.09-.58-25.74-.3-1.23-1-4-5.57-14.41-4.88-11.21-8.86-20.24-15.55-31.5-6.27-10.52-9.5-15.84-14.6-19-2.88-1.79-2.17-.65-16.52-6.53-9.38-3.85-11.08-4.91-14.79-4.8-7,.19-9.23,4.18-12.87,2.49-5-2.32-5.33-12-5.37-13.44-.22-6.37,2.2-7.48,1-11.52-1.56-5.07-5.65-4.36-8.45-10.18-1.65-3.41-.35-3.87-2.31-12.3-1.11-4.76-1.69-7.19-3.26-9.41-2.6-3.66-5.93-4.55-9.61-6.34-6.06-2.94-11.34-9-21.89-21.12-5.81-6.67-7-8.87-7.69-11.33-1.6-5.47.3-7.55-.19-13.64-.74-9.29-5.56-9.65-8.26-20.17-.77-3-3.74-14.58,1.92-22.09,3.55-4.69,8.79-5.57,13.06-6.91a43.86,43.86,0,0,0,6.51-2.64c-.41-8-.64-12.88-.74-17.14-.54-21.67-1.21-18.27-1-25.36.66-19,4.7-21.3,3.26-34.76-.51-4.76-.68-1.39-6-22.09-5.47-21.46-5.42-25.62-10.18-31.5-1.91-2.35-4.51-4.88-6.15-9.6-2-5.88-.14-8.08-2.11-11.91-3-5.93-9.14-3.62-14-9.22-5.42-6.21-5.82-18.1-1-24.78,3.42-4.7,7.77-4.51,9-9.22.91-3.38-.53-6.54-2.69-11.14-3.31-7-5.37-7.22-7.49-11.71-2.27-4.83-1.58-11.09-.19-23.63.91-8.18,1.36-12.28,3.08-15.94,3.45-7.38,7.14-7.51,8.06-12.87.85-4.89-1.91-6.66-5.57-17.28a68.38,68.38,0,0,1-4-16.52c-1.19-12.76,3.7-15.55.77-22.47S755,320.11,751,311.58a34.1,34.1,0,0,1-3.07-16.13c.55-9.95,5.14-12,5-22.09a32.31,32.31,0,0,0-2.11-11.14c-3.23-8.19-9.4-12.43-13.83-15.94-5.44-4.32-.85-1.66-27.85-32.08-10-11.24-15-16.87-18.44-20.55-11.24-12-15.08-15-19.59-22.86-6.12-10.63-2.54-11.08-8.07-20-5.34-8.6-9.2-9-27.08-26.7-4-4-2.7-2.84-9.41-9.6-9.48-9.55-14.67-14.39-24-23.43-18.93-18.35-15.7-16-20.93-20.56C566.29,57.23,558.43,50.59,548,50.94c-8.39.29-14.75,4.85-19.78,8.45S514.77,69,512.62,78.79c-1.3,5.95,1.24,6.35,3.46,21.9,2.07,14.49.88,21.25-1,26.31-.68,1.88-3.57,9.85-7.3,9.8-2.66,0-3.69-4.14-8.45-10-.94-1.16-2.44-2.9-10.18-9.41-14.36-12.1-15.5-11.43-27.46-21.32-8.12-6.71-10.93-9.77-16.91-10.76-.92-.15-4-.6-11.9,1.16-16.32,3.64-18.42,9-28.24,9a30.66,30.66,0,0,1-16.71-5c-6.47-4.42-6.78-8.93-12.1-10.18-4.71-1.1-9.05,1.36-14.79,4.61-7.84,4.45-7.93,6.84-13.44,10.18-.73.44-14.79,8.67-29.2,3.26a32.88,32.88,0,0,1-14.59-11.33c-4.4-6.3-3.69-10.77-9.41-17.28-1-1.16-3.52-3.1-8.46-6.92-10.7-8.27-13.89-10.19-20.55-15.75-7.46-6.22-5.87-5.82-7.87-6.91-10.09-5.5-18.9,1.62-39.57,4-6.63.78-14.33,1.68-24,0a72.36,72.36,0,0,1-32.65-15C149.08,19.12,151.57,13.92,140.2,7c-2-1.25-19.83-11.85-30.53-4.23-5,3.55-6.57,9.72-6.73,10.38-1.09,4.5.55,5.85,1.35,15.17s-.55,11.62,1.53,13.44c2.91,2.54,6.64-.84,15.75.39,4.34.58,8.37,1.13,10.76,4,3.34,4.06,1.7,10.54-.77,19.78-3.56,13.35-6.91,14.87-5.57,20,1.1,4.19,5.54,7.46,14.41,14,5.15,3.81,5.2,3.14,12.87,8.45,9,6.27,10.8,8.47,12.48,7.68,4.65-2.17-2.31-22,3.07-24.58,1.68-.8,4.22.24,9.22,2.3,4.38,1.81,5.33,3.1,7.68,2.89,3.42-.32,3.94-3.27,6.92-4.23,6.58-2.12,15.39,8.65,16.32,9.8,1.77,2.16,7.95,9.71,8.46,20.74s-5.26,14.91-1.92,22.47a20.66,20.66,0,0,0,8.25,8.84c4.39,2.42,6,.88,9.22,2.68,6.75,3.74,3.7,12.35,10.18,20.17,3.88,4.68,5.63,2.41,15.94,9,7.77,5,15,9.63,17.67,18.05,2,6.15.72,11.93.2,14.41-1.16,5.44-3.07,7.3-6.15,14.6A113.66,113.66,0,0,0,266,248c-2.91,11.55-5.68,22.57-1,33.41,2.94,6.76,7.68,10.9,11.91,14.6,6.24,5.46,8.72,5.21,19,11.91,3.36,2.19,2.21,1.64,18.25,13.83,10.76,8.18,13.17,9.87,19.59,15,7.85,6.25,11.77,9.38,12.48,10.37,5.28,7.38,3.41,13.83,3.27,40.34-.1,19.11.83,23.67,1.34,25.93,1.21,5.24,3.7,15.63,11.53,25.54,8.46,10.72,13.12,7.2,20,18.05,5.69,9,4.53,14.17,12.1,22.09,4.75,5,8.12,6,10.37,11.33.34.81,3.15,7.71.58,14.79-2.78,7.67-9.21,8.27-26.12,19.79-8.56,5.83-12.93,8.85-17.29,14-6.21,7.38-4.18,8.93-11.33,19-4.35,6.14-9.93,14-19.21,20-4,2.56-6.77,3.57-10.94,7.49s-4.76,6-8.07,7.3c-4.06,1.6-7-.1-11.91-.77-5.15-.71-10,.68-19.59,3.46-12.42,3.58-18.63,5.37-24.2,10.75-4.12,4-5.24,7.24-8.84,7.49-5.31.37-8.23-6.4-12.29-5.18-2.69.8-4.12,4.58-4.22,7.3-.09,2.32.75,4.95,5.57,10.17,7.13,7.75,9.52,6.57,13.06,11.34,6.09,8.2,4.45,19,4.22,20.36-1.19,7.18-4.39,8-4.8,13.63-.45,6.11,3,9.88,10,19.4,8.39,11.52,13.4,19.91,23.43,36.69,6.34,10.61,6.85,12.5,7.11,14.4,1.65,12.05-6.65,23-12.49,30.73-6.86,9.07-7.62,6.56-14.4,15.56-4.48,5.93-8.17,13.62-15.56,29-5.33,11.11-6.11,13.7-6.53,16.9-1.22,9.35,1.71,15.68-.58,16.91-3.53,1.89-12.73-12.16-16.71-10.18-1.77.88-1.4,4.41-1.15,10,.81,18.09,1.35,30.29-2.88,41.3a31.92,31.92,0,0,0-2.69,9.22c-.22,2.09-1.29,11.87,3.27,15,5.84,4,15-7,23.24-3.46,4.74,2,6.39,7.76,8.06,13.83,6.07,22.07-5.17,31.21.77,51.86,1.16,4,2.78,7.8,4.42,15.56,2,9.64,3.06,14.46,1.73,19.2-2.66,9.44-10.58,11-10,17.87.36,4.15,3.37,4.62,5.57,9.6,3.18,7.17-.1,12.9-2.5,24-3.78,17.53,1.25,17.74-2.68,31.88-3.09,11.09-5.93,10.08-10.57,24.39-4.06,12.55-6.58,20.34-3.07,27.66,3.19,6.65,8.38,6.72,12.29,15.37,2.46,5.44,1.22,7.22,2.69,13.83,2.47,11.14,7.12,11.09,20.93,33.22,4.35,7,6.07,10.47,10.76,12.68,2.46,1.16,5.26,1.74,15.17,1.34,11.95-.47,12.5-1.48,19-1.53,5.76,0,22-.16,26.12,8.26,2,4,.45,8.63.38,8.83-1.11,3.2-3.43,4.85-6.72,7.49a113,113,0,0,0-11.52,10.18c-7.58,8.27-5.28,13.64-12.49,18.63-4.29,3-5.14,1.09-9,3.84-7.84,5.57-5,13.66-12.3,22.67-1.79,2.2-6.65,8.17-14,9.41-10.27,1.73-15.33-7.43-25.54-5.38-2.42.49-3.88,1.35-11.53,7.3-13.88,10.81-20.83,16.21-23.62,19.4-12.18,13.88-14.43,28.72-17.09,28s1.62-14.44-5.77-20.74c-3.26-2.79-7.7-3.18-10.94-3.46-7.94-.69-10.17,2.62-16.14,1-5.44-1.51-5.6-4.83-9.41-5-6.11-.26-11.14,8-14.4,13.44-6.15,10.16-5.28,14.53-10.38,24.39-4.86,9.42-7.06,8.16-12.67,17.29-1.44,2.34-17.28,28.79-7.69,46.67.75,1.39.36.32,9.61,11.53,8.59,10.42,12.91,15.67,13.83,17.67,3.37,7.34.82,16.84-4.42,35.53-4.31,15.36-6.57,18.85-10.18,34.38-3.51,15.11-3.69,21.77-.58,27.85,2.71,5.29,5.52,5.48,7.3,11.14,2.23,7.1.48,15.3-3.46,21.13-3.82,5.66-6.88,4.91-12.1,10.56s-7,11.72-9.21,19.78c-5.06,18.31.08,19.7-4.61,33.23-3.52,10.13-9.59,18.55-14.22,25-3.4,4.72-3.47,4.19-8.26,10.37-14.84,19.18-15.3,25.79-25,31.69-.83.51.12-.12-14.4,5.38-16.85,6.38-21.76,8.6-26.89,13.06-3.69,3.21-10,8.7-8.64,12.68,1.18,3.47,7.28,3.17,29.77,7.87,7.67,1.61,11.11,2.51,15,5.19,4.65,3.22,7.1,7,10.56,12.48,5.27,8.26,8,12.6,6.53,16.52-1.66,4.33-6.6,3.1-12.67,8.84-3.77,3.55-9.21,11-7.11,16.13,2.38,5.88,14.25,8.32,22.86,6.91,4-.64,6.12-1.93,8.45-.57,3.57,2.08,2.19,7.23,4.8,13.25s5.94,5.7,12.87,12.49c10.85,10.63,7.26,15.72,16.71,23,7.12,5.53,10.94,4,15,9.8.92,1.33,1.92,3.12,4.22,15.36,2.67,14.16,2.18,16.23,4.61,20.75.65,1.19,6.41,11.64,12.68,11s10.37-12.17,12.48-18.06c2.79-7.74,2.05-10.78,5.57-14,3.3-3,5.47-1.77,13.07-4.61,10.74-4,11.73-8.55,16.13-7.68,5.44,1.07,4.57,8.12,13.06,15.75,2.06,1.85,6.46,4.07,15.17,8.45,13.73,6.89,15.55,6.84,20.17,10.56,5.1,4.12,9.1,7.34,11.14,12.87,3,8.08-1.88,11.18-1.54,24.39a56.19,56.19,0,0,0,5.38,22.28c2.41,5.3,4.59,10.11,9.6,14.22,1.86,1.52,2.73,1.81,12.49,7.29,6,3.37,9,5,9.79,5.57,5.07,3.27,8.18,8.5,15.56,34.19,5.5,19.14,5.84,23.43,11.14,28.62,4.91,4.81,12.09,8.44,13.64,9.22,7.92,4,9.12,2.6,14.4,5.38,8.56,4.5,8.05,9.57,21.52,24.78,7.77,8.77,7.9,7,10.94,11.71,6.73,10.32,4.08,15.72,10.76,25.55,2.34,3.45,8.49,12.49,15.56,11.71,7.71-.85,11.85-12.9,12.1-13.63,3.67-11.1-2.38-17.55,2.3-23.24,3.23-3.93,9.88-5.48,14.6-3.65,7.39,2.85,5.79,12.33,12.87,15.55,4.11,1.88,9.26-.2,19.4-4.41a133,133,0,0,0,25.35-14c10.4-7.6,10.4-10.07,15.75-11.34,6.58-1.55,9.39,1.53,23.82,6,14.18,4.35,26.38,7.93,33.61,2.3,1.51-1.18.92-1.29,6.14-7.49,4.84-5.73,9.27-10.29,10.57-11.52,9.89-9.36,24-1.26,54.35-6.92,9.74-1.81,19.21-4.41,19.21-4.41C652.44,2086.53,654.17,2086,655.76,2085.55Z"/></g></g></svg>