<svg xmlns="http://www.w3.org/2000/svg" viewBox="0 0 3870.16 1280.94"><defs><style>.cls-1{fill:#231f20;}</style></defs><g id="Layer_2" data-name="Layer 2"><g id="Malaysia_Map" data-name="Malaysia Map"><path class="cls-1" d="M36.64,171.58c-1.41.42-.68,2.81-2.83,5.93A12,12,0,0,1,27.88,182c-3.08.94-3.82-.64-11.3-1.13a54.21,54.21,0,0,0-6.5,0,20,20,0,0,0-5.93.85c-2,.65-3.06,1-3.68,2-1.52,2.4,1,6.75,3.11,9,3.14,3.31,6.57.91,9.89,4.23a12.61,12.61,0,0,1,2.82,4.81,17.2,17.2,0,0,1,.85,6.21c.09,4.51.23,11.27,4,14.69,2.6,2.4,5.11,1.46,7.06,4.53,1.29,2,.93,3.6,2.26,4.23,1.69.82,4.44-.72,5.93-2.54,2.32-2.81,2.35-7.17,1.13-10.45-1.9-5.13-6.27-6.07-5.93-9.61a5.92,5.92,0,0,1,2.54-4c1.81-1.2,3.76-.89,11.3.56,6.35,1.22,7.82,1.54,9.33.57,2.46-1.59,2.76-5.19,2.82-5.94s.07-1.79-2-7.91c-1.55-4.62-1.67-4.38-2-5.93-.8-4-.07-6-1.13-6.5-1.57-.78-4.11,3.11-6.22,2.26-.94-.38-1.11-1.42-1.69-2.82C42.76,174.9,38.62,171,36.64,171.58Z"/><path class="cls-1" d="M129.31,375.85c-2.45-.73-5-1.22-12.72-1.7-10-.62-10.89-.11-11.3.57-1.07,1.77,1.82,3.76,3.67,9.32,2.29,6.87,1.09,13.51.57,16.39-1.36,7.49-4.08,9.65-2.54,11.86,1.69,2.44,5.32.27,14.12,2.54,4.53,1.18,5.84,2.34,7.35,1.42,2.27-1.4.58-4.87,3.11-11.87A32.15,32.15,0,0,1,135,397.6c2.39-3.6,3.3-3.29,4.23-5.37,1.88-4.17.36-10.28-3.39-13.56C134.26,377.32,132.61,376.83,129.31,375.85Z"/><path class="cls-1" d="M189.15,613c-1.1-.33-3.09,1.66-3.36,3.81a5.72,5.72,0,0,0,.9,3.36c.22.44,3.49,7,4.7,6.5.25-.1.39-.49-.89-9.19C190,614.24,189.84,613.21,189.15,613Z"/><path class="cls-1" d="M896.35,882.35c-.65.32-.52,2.76-.23,7.62.23,3.86.25,4.22,0,4.93-.85,2.41-2.55,2.23-4.48,5.15-.77,1.17-2.35,3.56-1.79,6.05.2.91.51,1,3.36,4.71,2.37,3,2.31,3.15,2.91,3.58a7.4,7.4,0,0,0,7.4.9,5.9,5.9,0,0,0,2.68-2.69c.58-1.25.37-2.15,0-5.38-.44-3.87-.17-2.88-.67-6.94a34.1,34.1,0,0,0-.89-5.61c-1.18-3-2.52-2.77-3.59-5.82-.77-2.21-.38-3.23-1.57-4.71C898.68,883.14,897.17,881.94,896.35,882.35Z"/><path class="cls-1" d="M667.78,305.57c-1.24.93-1,3.24-.67,7.84.2,2.45.5,2.93.9,3.14,1.7.89,5.22-3.18,5.38-3.36,1.35-1.59,2.52-3,2.24-4.48C675.1,305.92,669.93,304,667.78,305.57Z"/><path class="cls-1" d="M192.07,499.85c-.34.07-2.55.59-3.14,2.46s.81,3.45,1.12,3.81c1.38,1.64,4.32,3,6.5,1.57a4.33,4.33,0,0,0,1.79-4.26C197.85,500.73,194.5,499.32,192.07,499.85Z"/><path class="cls-1" d="M197.67,541.3a4.55,4.55,0,0,0-4,2.69c-.43,1.18.22,1.67.23,3.59,0,3.21-1.78,4.62-1.12,5.37.89,1,4.68-1,6.27-1.79,2.28-1.19,3.42-1.78,3.81-2.91C203.72,545.66,201,541.27,197.67,541.3Z"/><path class="cls-1" d="M768,1199.2a4.7,4.7,0,0,0,2.91-1.57c1.16-1.57,0-3.12,1.12-4.93a5.16,5.16,0,0,1,2.24-1.79c2.66-1.45,4.45-1.06,9.86-2,2.61-.46,3.24-.74,3.81-1.12,1.26-.84,1.53-1.71,3.14-4a41.55,41.55,0,0,1,3.36-4.26c1.92-2.1,2.23-1.81,4.7-4.26.91-.9,2-2.17,4.26-4.7,2.45-2.78,2.53-3,3.14-3.37,1.39-.9,2.55-.94,6.72-1.12,5.94-.25,8.93-.4,9.86-1.56,1.08-1.36.55-3,1.79-3.59,1-.52,2.31.15,3.37.67,5.75,2.84,5.7,1.38,9.85,3.81,4.87,2.85,4.23,4.44,6.95,4.93s3.34-1.3,9-2.24c4.06-.68,4.15.21,7.85-.67,2.5-.6,3.62-1.28,6.5-1.57a20.61,20.61,0,0,1,4.25,0,18.16,18.16,0,0,1,6.5,2c1.94,1,3.41,1.83,4.48,3.58a8.71,8.71,0,0,1,1.12,5.6c-.48,3.43-2.84,4.45-2.24,6.28s3.41,2.38,3.81,2.46c3,.62,4.38-1.23,7.4-.45,1.23.33.84.6,2.69,1.35a21.07,21.07,0,0,0,8.51,1.34,24,24,0,0,1,4.93-2,48.79,48.79,0,0,0,5.83-1.8,5.2,5.2,0,0,0,2-1.12c.9-.87.94-1.73,1.8-3.58.71-1.56.83-1.29,1.34-2.47a17.39,17.39,0,0,0,1.12-6.72,25.56,25.56,0,0,0,0-2.91c-.27-4.38-1.54-5.16-2-9.64a27.35,27.35,0,0,0-.44-3.13,25.7,25.7,0,0,0-.9-3.14c-1.28-3.66-.91-3.33-2.24-7.17-1.52-4.4-2.18-5.39-1.57-6.72a11.46,11.46,0,0,0,1.34-2.69,6.6,6.6,0,0,0,.23-2.47,7.11,7.11,0,0,0-1.79-3.81c-1.24-1.46-2-1.33-3.14-2.91a9.84,9.84,0,0,1-1.12-2c-1-2.2-2.34-4.87-3.14-6.27-2.22-3.88-3.24-3-4.26-5.83-.79-2.17-.2-2.77-1.34-5.6-.51-1.25-.83-1.66-1.57-3.58a30.14,30.14,0,0,1-1.12-3.37c-.66-2.51-.31-2.75-.9-3.81s-.85-.79-2.69-2.68c-1.57-1.64-1.42-1.87-2.46-2.69-1.41-1.13-1.77-.77-2.91-1.8a15,15,0,0,1-2.24-3.13,20.53,20.53,0,0,1-1.57-2.69c-.49-1.22-.54-2.27-.45-4.71.18-4.6.52-5.09.45-7.84a21.51,21.51,0,0,0-.45-4.48c-.32-1.45-.59-1.86-1.35-4.71a14.64,14.64,0,0,0-.67-2.46c-.91-1.81-2.2-2-3.58-3.59-1.07-1.25-.9-1.85-1.8-3.58-2.29-4.45-5.09-3.78-6.94-7.85-.07-.15-.57-1.74-1.57-4.93l-1.12-3.58a21.11,21.11,0,0,1-3.59-6.72c-.13-.46-.3-1.11-.67-2.24a34.76,34.76,0,0,0-1.79-4.71,17.26,17.26,0,0,0-1.35-2.46c-.88-1.33-1.26-1.46-1.79-2.24a7.56,7.56,0,0,1-.89-5.83c.53-2.09,1.64-2.2,1.79-4,.11-1.38-.49-1.7-1.12-3.81-1.12-3.77.16-4.84-1.12-7-.7-1.15-1.66-1.74-3.59-2.91-2.56-1.57-3.09-1.11-5.15-2.47a13,13,0,0,1-4.26-4.26c-.92-1.55-.86-2.33-2-3.58a10,10,0,0,0-2.91-2,33.59,33.59,0,0,1-5.6-4.48c-3-2.68-4.49-4-5.15-5.6a9.42,9.42,0,0,1-.45-6.28,10.18,10.18,0,0,1,2.24-3.8c1.32-1.51,1.85-1.34,2.69-2.47,1.09-1.49,1.9-4.14.89-5.83-1.24-2.07-4-.68-6.49-2.91-2.3-2.08-.82-4.15-2.92-6.27-2.76-2.8-6.07,0-9.86-2.92-2.17-1.69-2.51-3.75-5.38-4.7a21.87,21.87,0,0,1-2.68-.67c-2.55-1.15-2.24-2.94-4.26-4.26-2.92-1.91-5.89.34-7.84-1.79-.82-.89-.38-1.37-1.35-2.47-1.35-1.54-2.54-1-4.93-2.24a16,16,0,0,1-5.38-5.15,17,17,0,0,0-1.57-2.24,17.53,17.53,0,0,0-2.91-2.69c-2.87-2.29-4.31-3.43-4.48-3.59-.57-.53-.4-.44-3.58-4.48-2.6-3.29-3.19-4-4.26-5.6-.67-1-.75-1.24-1.57-2.47-1.32-2-2.39-3.34-2.91-4-3.68-4.79-6.1-7.93-6.73-11.2-.07-.36-.36-2-.67-3.81s-.29-1.81-.45-2.69c-.65-3.63-1-3.75-1.12-5.6-.13-1.38.06-1.12,0-4,0-1.52-.1-2.6-.22-4.48-.31-4.66-.43-4.1-.45-5.83,0-3,.34-3.56,0-5.82-.28-1.86-.57-1.71-.67-3.14,0-.68-.08-2,.89-5.6.51-1.86.72-2.21,1.13-3.59A36.22,36.22,0,0,0,755.4,829c.13-2.32-.09-1.79,0-6.5,0-1.29.07-2.68,0-4.7,0-1.32-.08-2.24-.22-3.37a45,45,0,0,0-1.12-4.7,19.25,19.25,0,0,1,0-7.4c.54-2.83,1.28-3,1.12-4.7-.2-2-1.24-2.26-2-4.93a14.4,14.4,0,0,1-.45-5.16,19.88,19.88,0,0,1,1.35-6c.64-1.72.82-1.54,1.34-3.13a14.37,14.37,0,0,0,.9-5.16c-.07-2.17-.68-2.14-.45-3.58.2-1.26.69-1.43,2-4.26a22.29,22.29,0,0,0,1.12-2.69,11.33,11.33,0,0,0,.9-4.26,8.85,8.85,0,0,0-1.79-4.7,15.28,15.28,0,0,0-3.59-3.59c-3.17-2.55-4.3-2.46-5.37-4.25s-.2-2.19-1.13-4c-1.62-3.26-4.6-2.52-6.49-5.6-1.68-2.71.24-3.92-1.57-6.5-1.57-2.22-3.68-2.31-4.93-5.15a49.55,49.55,0,0,1-1.79-7.4c0-2,.72-1.86,1.34-5.15.24-1.26.18-1.51.45-4.26.3-3,.45-4.53.67-5.6a20.53,20.53,0,0,1,3.14-7.84,15.75,15.75,0,0,0,1.57-2.24,13.11,13.11,0,0,0,1.12-5.38c.1-1.8,0-2.33,0-4,0-5.09,1-8.19.67-8.29s-1.18,1.81-.9,2c.47.34,2.88-4.76,7-5.15,1.83-.18,3,.69,4.48-.23,1.24-.77,1.61-2.15,2.24-2s.9,1.42.67,1.57-1.16-1.23-4.93-5.38a23.86,23.86,0,0,1-1.79-2c-1.17-1.69-1.2-2.73-2.46-6.05a34.43,34.43,0,0,1-1.35-3.36c-.47-2.06-.09-3.35.23-5.83.6-4.74-.21-4.62.44-8.51a16,16,0,0,1,2-6.28,9,9,0,0,1,4-4c2-.83,3,0,4.49-1.12.6-.45,1.08-1.5,2-3.58,1.43-3.18,2.14-4.78,2.24-5.16.72-2.75-.15-2.93.45-5.82.54-2.6,1.26-2.61,2.24-6.05a15.59,15.59,0,0,0,.9-5.16c0-.83-.15-1.62-2-6.72a46,46,0,0,0-2.24-5.6c-1.89-3.16-3.18-2.93-4-5.16-.68-1.77,0-2.28.45-7.39.35-4,0-4.22.44-8.52a22.07,22.07,0,0,1,1.35-6.27c.39-1,.46-.91,1.34-2.91,1.87-4.23,1.83-5.18,1.8-5.61a7.5,7.5,0,0,0-1.57-3.58c-1.32-1.93-2.25-2.06-3.36-3.36-1.44-1.69-1.63-3.89-2-8.29a36.12,36.12,0,0,1,0-7.4c.37-3.61,1-4,.9-6.5-.07-1.82-.57-3.38-1.57-6.49-1.7-5.25-2.6-5.92-2.69-8.74-.07-2.16.44-2.16.22-4.26-.14-1.37-.77-3-2-6.27-1.13-2.93-1.5-3.59-2-4.26-.85-1.11-1.2-1.1-2.47-2.47a36.45,36.45,0,0,1-2.91-4c-1.92-2.73-2.16-2.86-3.36-4.71a33.51,33.51,0,0,1-2-3.36c-1.62-3.25-1.08-4.55-2.24-8.06-.78-2.37-1-1.77-3.36-6.73-2.19-4.63-1.72-4.61-3.14-7.17-2.43-4.4-3.63-4.11-5.15-7.62-1.71-3.92-.33-4.57-2-7.61-1.83-3.33-3.56-2.72-6.5-7a52.19,52.19,0,0,1-3.13-5.83,61.31,61.31,0,0,1-2.69-5.82,62,62,0,0,1-2.24-8.07c-1.84-7.57-1.56-7-2-8.29a31,31,0,0,0-4.7-8.74c-1-1.28-1.46-1.63-3.37-4-1.7-2.15-2.83-3.76-3.36-4.48a79.33,79.33,0,0,0-7.84-9.42c-1.33-1.29-4.84-3.55-11.88-8.06-7.75-5-7.91-4.79-9.41-6.28a22.58,22.58,0,0,0-6-4.93,36,36,0,0,0-4-1.57c-5-1.86-7.43-2.79-8.52-3.58-2.66-1.94-2-2.94-5.37-5.6-1.59-1.25-2-1.21-4.93-3.14-4.27-2.76-3.83-3.05-6.28-4.48-5-2.92-6.78-1.68-9.86-4.48-1.52-1.39-1.11-1.72-3.58-4.71a51.85,51.85,0,0,0-5.83-5.82A102.34,102.34,0,0,1,595.41,313a21,21,0,0,0-4-4.71,29.8,29.8,0,0,0-7.17-4c-4.4-2-4.89-1.71-6.05-2.92-1.95-2-1-3.39-3.13-6.27-1.46-2-2-1.49-4.71-4.26-2.32-2.39-2-2.84-4.26-5.15-2.91-3-3.5-2.3-5.15-4.48s-1.07-2.84-3.36-6.95c-1.49-2.66-1.63-2.23-2.47-4-1.23-2.68-1-3.86-2.24-7.4-.83-2.39-1-2.18-1.79-4.26-1.8-5-.62-6.4-2-10.3-.66-1.85-1.85-5.19-4.93-7.17-2.82-1.83-4.85-1-8.29-3.59-.44-.34-1.26-1.12-2.91-2.69-3-2.84-3.44-3.54-4.93-4.48a24.24,24.24,0,0,0-4.26-1.79c-2.89-1.07-3.62-1.07-6.72-2.24a21.1,21.1,0,0,0-2.91-1.12,13.77,13.77,0,0,0-6.73.67c-2,.58-1.86.8-3.36,1.12a11.44,11.44,0,0,1-5.6,0c-3.43-1-3.65-4.62-5.6-4.48-1.15.08-1.9,1.32-3.14,3.36a12.49,12.49,0,0,0-2.24,6c-.09,2,.55,2.22,1.79,7.62.84,3.63.73,4.32.45,4.93-.78,1.67-2.27,1.34-4.93,3.36-2.3,1.75-1.71,2.4-4.48,4.93-2.52,2.3-3.19,1.93-5.15,4-1.76,1.89-1.3,2.28-3.14,4.48-2.49,3-3.36,2.31-5.6,5.16a15.44,15.44,0,0,0-3.14,5.82,15.47,15.47,0,0,1-2.69,6.28c-1.36,2.24-2.05,3.36-2.24,3.81,0,0-.83,2,0,10.08a45,45,0,0,1-3.58,4.93,22.48,22.48,0,0,1-2,2.24s-1.86,1.66-8.74,3.81a23.33,23.33,0,0,0-5.6,8.07c-.62,1.61-.9,2.46-.9,2.46-1.3,4-1.06,5.38-2,5.83-1.34.62-3.48-1.31-4.26-2-1.92-1.73-1.76-2.7-3.59-5.15-1.21-1.63-3.92-5.24-6.94-4.93a4.3,4.3,0,0,0-2.69,1.34c-1,1.18-.46,2.22-1.35,3.14-1.4,1.45-4.48.63-4.48.67s2,.18,2,0-3-.05-5.16-2a8.31,8.31,0,0,1-1.79-2.69,24.9,24.9,0,0,1-1.79-5.38c-.6-2.1-.8-1.47-4-7.84-1.85-3.64-2.1-4.46-3.37-5.61a13.73,13.73,0,0,0-4-2.46,11.54,11.54,0,0,0,1.57.89,10.35,10.35,0,0,0-14.79-1.79c-1,.77-.7.82-2.91,2.92s-4.63,4.37-5.61,3.8c-.71-.41-.52-2.23-.44-2.24a2.87,2.87,0,0,1,.25,2.08c-.3.76-1.49,1.75-8.54,1.51-4.78-.16-6.61-1.88-10.54-1.12a4.68,4.68,0,0,0-2.91,1.34c-.93,1.08-1.21,6.82-1.12,5.61a10.09,10.09,0,0,1-4.71,2.91c-2.18.57-3-.12-5.37.67s-2.2,1.71-4,2c-2.47.41-4-1-4.93-.23-.67.61.43,1.92-.22,2.69-.78.92-2.74-.22-3.59.67-.56.6-.2,1.64,0,2.69s-.25,3.69-1.12,9.19a25.34,25.34,0,0,1-1.12,5.38,12.27,12.27,0,0,1-2.46,4.26,15.17,15.17,0,0,1-3.14,2.24c-3,1.95-2.82,2.51-5.6,4.48-2.37,1.67-2.31,1.15-5.83,3.36-3.85,2.42-4.24,3.24-5.6,3.14-2.89-.23-4.73-4.26-4.93-4.71-1-2.32-.15-2.85-1.12-5.15-.88-2.11-1.95-2.48-4.93-5.83-2.2-2.48-1.67-2.34-3.58-4.48a65.88,65.88,0,0,0-7.85-7.17c-2.61-2.15-3.46-2.68-4.48-4.26a10,10,0,0,1-1.79-5.15c-.05-2,.69-2.44,2.24-6.5,1.36-3.56,1-3.84,2.47-7.4,1.32-3.31,2-5,2.91-5.6,2.36-1.59,4.39.24,9.19-1.34a15.58,15.58,0,0,0,3.36-1.57c1-.65,5.12-3.21,5.6-6.95.18-1.44-.4-1.32-1.57-5.37a36.21,36.21,0,0,1-1.57-10.31,27.11,27.11,0,0,1,.23-3.36,16.53,16.53,0,0,1,.89-4.26c.74-1.9,1.31-1.93,1.79-3.59a5.4,5.4,0,0,0,.23-3.58c-.7-1.67-2.57-1.65-6.95-4-2.84-1.55-3.07-2.11-3.13-2.47-.39-2,3.12-4.39,4.25-5.15,2.69-1.81,3.8-1.46,5.16-3.14a7.44,7.44,0,0,0,1.57-4.48c0-2.19-1.2-2.35-2.47-6.05-.92-2.7-.71-3.78-1.79-4.48s-2.06-.34-3.81,0c-2.88.54-5.83.54-8.74.89-5.17.64-6.63.79-7.62-.22a10.33,10.33,0,0,0-1.79-2,6.67,6.67,0,0,0-2.47-1.12,7.45,7.45,0,0,0-4.7.67c-2.87,1.27-2.71,2.76-5.16,4-1.77.93-3.34.91-6.27.89-3.68,0-6.26,0-8.29-1.79-1.71-1.46-2.17-3.41-2.91-6.5a39.58,39.58,0,0,1-.9-8.06,20.51,20.51,0,0,0-.22-9c-.83-3.1-1.8-3.37-2.47-6.94a12.77,12.77,0,0,0-1.57-5.16,6.48,6.48,0,0,0-2-2.24c-1.56-1-2.52-.44-5.37-1.12-2.06-.49-3.08-.74-3.81-1.57-1-1.09-.55-2-1.57-5.6-.71-2.5-1.13-2.8-1.35-2.91-1.1-.61-2.65.26-5.15,1.79-5.61,3.42-7.39,4.71-7.39,4.71-5.83,4.18-6.42,4.94-8.07,4.93-1.34,0-2.91-1-6.05-2.92-3.79-2.33-3.45-2.73-6.05-4a35,35,0,0,0-6.95-2.47c-1.85-.47-1.82-.33-3.13-.67-5-1.29-5.64-3.39-10.31-4.93a24.59,24.59,0,0,0-6.28-1.12c-3.33-.21-4.06.34-7.17,0-2.66-.29-4.74-.52-6.5-2s-1-2.67-3.13-5.15c-1.93-2.24-3-1.85-5.38-4.48a11,11,0,0,1-2.46-3.81,11.18,11.18,0,0,1-.23-6.27c.36-1.64.66-1.45,1.79-4.93,1-2.89,1-3.71.68-4.49a5.16,5.16,0,0,0-2.47-2.46,11.64,11.64,0,0,0-4.48-1.34c-4.91-.87-4-.91-5.83-1.13a28.34,28.34,0,0,0-11.65.68,10.79,10.79,0,0,0-4.26,2c-1.66,1.47-2.18,3.22-2.91,5.61-.63,2.08-1.85,6.11-.67,10.53.34,1.27.69,1.85,1.12,3.81a29.67,29.67,0,0,1,.66,5.07c0,.17,0,.26,0,.3,0,2.55-1.89,4.22-2.91,5.61-.88,1.2-.43,1.28-1.79,6.49-1.41,5.37-2,5.83-3.37,11.21a33.52,33.52,0,0,0-1.12,6.05,24.42,24.42,0,0,0,.68,7.17c.45,1.84,1,3.11,2.91,6.95,3.51,7.06,6,11.59,7,13.22a65.52,65.52,0,0,0,3.58,6.05c3.54,4.74,5.12,4.1,8.07,7.84.92,1.16,2.7,5.41,6.27,13.89.44,1.05,1.31,3.13,2.69,5.83.95,1.86,1.74,3.22,2.47,4.48,2.34,4,3.13,4.92,4.93,8.07a46.65,46.65,0,0,1,2.91,5.6c3,7.29.82,9.74,3.81,14.34a9.07,9.07,0,0,1,1.79,4c.2,1.5-.22,2-.45,4.48-.17,1.8,0,1.76,0,5.16,0,.91-.08,2.56-.22,5.82-.23,5.14-.25,5-.23,5.61.16,3.85.95,4,.68,6.5-.24,2.1-.8,1.79-1.8,5.6a50.14,50.14,0,0,0-1.12,6.05c-.22,1.61-.32,2.81-.44,4.25-.36,4.1-.18,4.48-.45,6.95-.42,3.81-.89,3.41-1.12,6.5s.26,3.42,0,6.95c-.25,3.29-.73,3.67-.45,5.15.56,3,4.14,3.18,4.26,5.6.06,1.26-.79,1.42-.68,2.91s.88,2.35,2,3.81a27.48,27.48,0,0,1,2.24,2.69,10.58,10.58,0,0,1,1.12,2.69,33.32,33.32,0,0,1,.9,5.83c.13,1.17.19,1.76.22,2.24.17,2.52-.07,3.31,0,4.93.05,1.16.19.91,1.12,5.15.49,2.2.45,2.24,1.12,5.38.21,1,.56,2.61.9,4,1,4.46,1.53,5.19,2,7.4,1.22,5.54-.7,6.06.44,12.77.48,2.77,1.12,5.83,1.12,5.83.69,3.24.92,3.77.9,5.15a11,11,0,0,1-1.57,5.83,9.55,9.55,0,0,1-2.69,2.91c-2.52,1.75-4.15.91-5.82,2.24s-1.84,3.62-2,6.05a22.41,22.41,0,0,0,2.47,11.2c.71,1.5.45.62,5.15,8.07,3.12,4.95,3,4.9,4.26,6.72,2.29,3.24,2.91,3.56,3.81,5.61,1,2.36.75,3.17,2,5.15a14.41,14.41,0,0,0,3.36,3.58,19.54,19.54,0,0,0,4.49,2.69,14.87,14.87,0,0,0,4.48,1.57,35.34,35.34,0,0,0,5.82-.22,12.57,12.57,0,0,0,6.5,4.7c3.06.85,4.68-.25,6.72,1.12,2.22,1.5,2.69,4.38,3.14,7.17.39,2.42.81,5-.67,6.73-1.06,1.22-1.93.64-3.81,2.24a11.89,11.89,0,0,0-2.91,4,14.46,14.46,0,0,0-1.35,3.81c-.15.79-1.17,6,1.79,9.86.79,1,.7.46,2.92,2.69,2.67,2.69,2.65,3.36,4.7,5.15s2.65,1.57,3.59,2.92a8.72,8.72,0,0,1,1.34,5.37c-.06,3-1.31,5.19-2.69,7.62s-1.63,2.09-2.69,4a22.26,22.26,0,0,0-2.46,9c-.33,4.39.77,5.56-.45,8.29a8.1,8.1,0,0,1-2.69,3.59c-.72.49-3,1.78-2.24,1.34a5.93,5.93,0,0,0-2.69,2.91c-.85,2.29.76,3.66,1.35,7.62.41,2.75.07,5-.45,8.52-.61,4.09-1.23,4.4-.9,6.27.45,2.54,1.79,3.09,3.36,6.27.49,1,.62,1.46,2,6.95,2.26,8.86,2.67,10.55,4.48,11.88a7,7,0,0,0,4.48,1.57c1.42-.11,2-.76,3.37-.68s2.45,1,3.58,1.8c3.34,2.48,3.87,1.48,6.72,3.58a18.57,18.57,0,0,1,5.83,7.4,10.92,10.92,0,0,1,1.34,5.15c-.07,2.19-.92,2.33-.89,4.71,0,1.36.3,2,.45,4.93.08,1.61,0,1.94-.23,2.24-.41.49-1.08.58-4.7.67-1.76,0-2.29,0-2.69.45s0,1.12-.23,2.91a14.53,14.53,0,0,1-.89,3.14c-3.3,4.5-3.38,6.79-2.69,8.06,1,1.78,3.34,1.39,4.48,3.59,1,2-.49,3.11.22,5.82s2.95,4.33,4.71,5.61a19,19,0,0,0,6.5,2.91,35.16,35.16,0,0,0,5.82,1.12c2.16.18,2.68,0,3.14.45,1.4,1.49-2.18,4.93-.9,8.29.78,2,3,3.07,4.49,3.81,2.32,1.12,3.17.62,5.37,1.57,2,.84,3.06,2,5.16,4.25,2.49,2.69,2.69,3.68,6.05,8.07a52.64,52.64,0,0,0,4.25,5.16c3.18,3.26,5.22,5.36,8.3,5.82,1.61.25,2.49-.11,3.81.67s1.43,1.7,2.68,3.81a34.06,34.06,0,0,0,5.16,6.5c1.85,1.92,2.13,1.78,3.13,3.14,1.31,1.76,1.57,3,2.47,5.15,1.43,3.42,2,3.19,3.81,6.95,1.73,3.54,1.06,3.35,3.14,8.07,1.65,3.76,2.54,5.72,4.48,7.84,1.41,1.54,1.87,1.52,3.13,3.14s1.52,2.61,3.14,6c1.73,3.66,2.62,5.53,4,7.17a10.7,10.7,0,0,0,4.48,3.58c1.62.6,2.35.26,4.7,1.12a8.57,8.57,0,0,1,3.36,1.79c1.09,1.05,1.08,1.83,2.24,4.26a33.65,33.65,0,0,0,2.47,4.26c2.29,3.45,3,3,3.81,4.93,1,2.31-.15,2.67.67,6.72.23,1.11.75,2.68,1.79,5.83,1.12,3.35,1.14,3.1,1.35,4,.44,2,.18,2.5.45,6.72.16,2.57.25,3.87.67,4.71.71,1.43,1.42,1.47,3.81,3.81,2.08,2,3.12,3,3.58,4.48.78,2.4.11,5.54-1.34,6.05-1,.35-1.45-.82-4.48-2.24,0,0-.84-.39-6-2-3.32,3.58-6.1,4.42-8.07,4.48s-3.2-.61-4.71.23c-2,1.13-3.16,4.3-2.24,5.38,1.62,1.87,8.48-3.88,11.66-1.35,1.66,1.33,1.81,4.52,1.56,6.28-.28,2-1.1,2.12-1.12,4,0,1.43.44,1.87,1.35,5.38a29.81,29.81,0,0,1,.67,2.91c.2,1.3.21,2.49-.22,6.72-.41,3.92-.56,4.23-.45,5.6.15,1.85.29,3.67,1.57,4.71,1.07.87,2,.46,4.7.67,3,.24,2.84.84,6.95,1.57,4.89.88,5.35.07,7.17,1.12,1.13.66.87.92,4.26,5.15,2.46,3.08,3,3.42,4.48,5.61a43.78,43.78,0,0,1,2.46,4c1.38,2.56,1.44,3.27,2.47,5.38,1.79,3.68,3.14,6.44,5.82,7.62,1.74.75,1.9-.08,5.61.45a30.67,30.67,0,0,1,8.06,2.46,49.81,49.81,0,0,1,5.83,2.91c4.44,2.58,4,3.14,6.72,4.48,4.19,2.05,5.46.84,9.64,3.14,2.8,1.54,2.36,2.16,4.48,2.91,3.69,1.32,7.86.46,9,.23,2.49-.52,4-1.3,5.6-.45a5.13,5.13,0,0,1,1.8,1.79c1.43,2,1.75,3.63,2.46,5.83.93,2.88,1.47,4.53,2.69,6.27.87,1.25,2.15,2.33,4.71,4.49,3.5,3,3.81,2.72,4.7,4a11.2,11.2,0,0,1,2,6.5c-.07,2.05-.77,2.7-.23,3.58.3.48,1.05,1.19,6.05,1.12,5.36-.07,6.12-.91,7.85,0,1.16.62.94,1.06,4,3.81,1.17,1,1.92,1.62,2.69,2.24,4.48,3.64,4.16,4.5,7,6.5.62.45,3.62,1.94,9.63,4.93a12.12,12.12,0,0,1,3.14,2c1.6,1.48,1.82,2.6,3.36,5.15a22.34,22.34,0,0,0,4,5.38c2,1.85,2.91,1.76,5.16,4,.76.77.68.8,2.46,2.92,2.55,3,3.83,4.52,4.71,5.15,2.37,1.68,3.44.47,7.84,1.57,4.9,1.23,5,3.11,11.2,5.15,2.52.83,2,.37,6.5,1.57,5.79,1.56,6.09,2.2,11.21,3.59,4.42,1.19,4.88.9,9.18,2.24a32.08,32.08,0,0,1,6.73,2.69c3.59,2.07,3,3,5.82,4.48,4.54,2.38,7,.41,10.09,3.13a23.07,23.07,0,0,1,2.91,3.81c1.51,2.21,1.57,2.67,2.91,4.71a30.73,30.73,0,0,0,4.48,5.6c.33.32.35.31,4.93,3.59,3.5,2.5,5.28,3.79,7,5.82.74.91.55.83,1.34,1.79,2.64,3.21,4,3.22,5.61,5.16,2.27,2.76.58,4.08,3.13,7.62a16.13,16.13,0,0,0,4,3.81,14.51,14.51,0,0,0,5.15,2.46c4.21.93,5.38-1.55,9.86-.89,1.78.26,1,.56,6,2.24,3.83,1.26,4.83,1.27,6.5,2.46,1.34,1,1,1.2,3.58,3.81,1.59,1.63,2.86,2.71,4.93,4.48,3.14,2.68,3.06,2.35,4.93,4,3.32,3,3.31,3.78,5.6,5.6a17.09,17.09,0,0,0,6.73,3.58c5.52,1.28,7.52-2.38,12.1-.89,2.47.8,1.41,1.71,6.72,5.15,3.09,2,4.61,2.44,7.17,4.71,1.89,1.66,1.53,1.84,3.36,3.58,3.24,3.09,6.61,4.67,11.43,7,.74.35,2.41,1.12,4.48,2,3.37,1.46,4,1.57,5.6,2.47,2.25,1.22,2,1.47,4.26,2.69s3.08,1.27,5.6,2.46a34.78,34.78,0,0,1,5.38,3.14c3.27,2.37,3,3.31,6.72,6.5,2.84,2.4,3.29,2.11,5.38,4.26a16.1,16.1,0,0,1,3.81,5.37c.87,2.17.29,2.4,1.12,5.61s1.54,3.31,2.69,7.17c1,3.51.48,3.48,1.34,5.15,1.33,2.58,2.59,2.49,4.26,5.6a16.83,16.83,0,0,1,1.57,4c.51,2.08.16,2.43.67,4a8.72,8.72,0,0,0,2.69,4.26c1.81,1.42,3,.79,4.48,2.46.73.82.75,1.34,1.57,1.79A4.42,4.42,0,0,0,768,1199.2Z"/><path class="cls-1" d="M1975.06,1044.81c.19,0-.39,4.82-.45,11.43,0,4.53.22,3.57.23,9.41,0,3.73-.11,4.74.44,6.49.61,1.93,1.6,3.3,3.59,6a51.83,51.83,0,0,0,4.26,5.16,28.73,28.73,0,0,0,5.6,5.15c3,1.89,5,1.85,7.62,2.69,6.77,2.15,6.13,7.25,11,8.07,3.48.59,5.29-1.39,7.62.22,1.29.9,1.94,2.34,2.91,4.48,1.34,3,.75,3.39,1.79,4.93.33.49.8,1.06,5.83,4,1.76,1,3,1.75,4.7,2.69,2.19,1.17,3.28,1.75,4.93,2.46a31.23,31.23,0,0,1,3.59,1.57c2.1,1.18,2,1.65,2.91,1.79,2.12.32,7.32-4.42,5.6-3.13l15.47.67c4.51.19,6.58.27,9.63.22,6.2-.1,9.38-.17,13-1.34,3.41-1.11,3.67-1.95,5.6-1.8,3.43.27,4.74,3.08,8.51,2.92a5.39,5.39,0,0,0,3.14-.9c1.92-1.43,1.13-3.48,2.69-7.17,1.41-3.34,2.67-3.1,3.59-6.05,1.06-3.44.11-6.22.44-6.27.56-.1,2.68,7.36,3.59,10.53a11.53,11.53,0,0,0,1.34,3.36c1.2,1.87,2.72,2.76,5.38,4.26,7.69,4.31,8.36,4.35,9,4,1.55-.82.56-2.9,2.69-6.27a10.23,10.23,0,0,1,4.71-4.26c2.17-.88,4.08-.59,6.5-.23,2.78.43,4.38.67,4.93,1.8,1,2-2.18,5.58-3.59,7.17-2.77,3.1-4.36,3.26-4.7,5.15s.91,3.48,2.91,6a22.16,22.16,0,0,0,7.39,6.5,20.29,20.29,0,0,0,9.19,2.46c2,0,2.41-.3,5.15-.22a22.91,22.91,0,0,1,6.5.9c2.91.9,2.85,1.69,6.28,2.91a28.83,28.83,0,0,0,5.6,1.34,39,39,0,0,0,6.5.45,45.73,45.73,0,0,0,7.62-.45c5.13-.76,5-1.82,7.84-2,4.24-.28,4.53,2.07,14.12,5.6,3.8,1.4,5.37,1.62,8.29,3.36a56.2,56.2,0,0,1,5.37,3.81c1.19.91,1.73,1.37,4.93,4,6.07,5.05,6.11,5.05,6.95,5.83,1.73,1.6,1.45,1.49,5.38,5.38s4.72,4.48,5.38,4.93c1.87,1.26,2.25.93,6.94,2.91,3.94,1.66,3.88,1.94,7,3.14,4.21,1.64,6.31,2.47,8.29,2,1.45-.33,1.27-.79,6-3.58,3.68-2.16,4.4-2.24,4.93-2.24,2.36,0,4.17,1.76,6,3.58,2.08,2,2.09,2.89,4.48,5.16,1.84,1.74,3.24,3.06,4,2.69,1.32-.63,1.06-6-1.57-9.86a13.21,13.21,0,0,0-10.53-5.61,15.48,15.48,0,0,0-4.26.68c-1.7.56-2.26,1.14-4.48,2a14.16,14.16,0,0,1-3.59,1.12c-2.79.34-5.11-.9-7.62-2.24-.62-.33-.37-.23-4.7-2.91l-2.92-1.79c-5.51-3.35-6.47-2.59-9.18-4.71a23.17,23.17,0,0,1-6.28-8.51,21.19,21.19,0,0,0-1.34-2.92c-2.15-3.54-4.23-3.47-4.93-5.6s1.43-2.8,2-7.39c.38-2.94-.44-3.28,0-7.4a17.82,17.82,0,0,1,1.12-4.93,14.67,14.67,0,0,1,2.47-4,12.33,12.33,0,0,1,5.38-3.81c1.43-.47,4.26-.24,9.86.22,2.7.23,3.93.37,5.15-.44,1.63-1.09,2.8-3.13,2.24-4-.47-.76-1.76-.07-3.36-.89-1.12-.58-1.48-1.43-2.69-3.59-2.75-4.91-3.08-4.46-3.36-5.83-.14-.66-.16-1.28,1.34-6.72,1.59-5.73,2.16-7,2.47-7.62a32.71,32.71,0,0,1,2.91-4.7c2.44-3.65,3.64-6.72,5.38-11.21,2.64-6.78,1.47-6.61,4-13.44,2.72-7.23,4-7.26,4.49-11.43.58-4.82-.91-6.38.67-9.86a13.11,13.11,0,0,1,6.05-6,14.79,14.79,0,0,1,7.17-1.34c4.94.09,5.64,2,9.86,1.79,1.36-.06,5-.23,7.62-2.69s2.14-5.33,4.25-6c1.55-.53,2.6.74,6,2.47,3.19,1.59,7.87,3.93,12.1,2.68,3.11-.9,5.59-3.63,5.16-4.7s-3,0-8.52-.45a64.72,64.72,0,0,1-9.18-1.57c-6-1.29-7.42-2.11-9.19-1.12-2,1.1-1.38,2.77-3.59,4.48-1.9,1.48-4,1.53-8.06,1.57-5.33.06-5.3-.85-10.53-.89-4.54,0-6,.63-8.07-.68a8,8,0,0,1-3.14-4.48c-.63-2.31.06-4.07.45-5.82,1-4.7-.75-5.77-1.35-13.9-.37-5.15.42-3.82.23-11.42-.18-7.39-1-10.15,1.12-12.78,1-1.23,2.22-2,4.48-3.36,2.73-1.66,4.15-2.52,6-2.69,2.48-.22,4.56,1,8.74,3.59,3.14,1.9,4.7,2.85,6,4.48,1.59,1.91,2.14,3.58,4.48,5.15a7.41,7.41,0,0,0,2.91,1.35c1.54.28,3-.09,6.73-2,4.78-2.48,4.16-2.82,5.6-3.14,2-.43,2.89.26,9.86,2.69,4.06,1.42,6.12,2.13,7.39,2.24,4.32.39,5.37-1.19,8.52-.22,3.33,1,2.82,3,5.82,3.58,1.8.35,4.11-.14,8.74-1.12,1.87-.39,2.36-.56,2.92-.22,1.85,1.14-.29,5.09,1.56,8.52.82,1.5,2.72,2.44,6.5,4.25,5.26,2.53,7.88,3.79,11.21,4.26,5.14.73,5.88-1,11-.22,2.82.4,5.09,1.46,9.63,3.58a81.83,81.83,0,0,1,14.34,8.52c3.7,2.76,5.23,4.41,5.38,4.25s-4.23-6.4-11.43-11.2a52.54,52.54,0,0,0-9.18-4.71c-6.12-2.64-9.85-4.26-15-4.7-4.49-.39-5.69.48-9.41-.67-2.06-.64-5.28-1.65-7.39-4.49-2.83-3.79-.48-6.59-3.36-9.63a10.24,10.24,0,0,0-8.07-2.91c-2.19.23-3.07,1.22-3.81.67-1.61-1.2,2.18-6.19,0-10.31a23.19,23.19,0,0,0-3.14-3.14,44.12,44.12,0,0,0-5.82-4.93c-2.06-1.28-4.24-1.69-8.52-2.46-5.13-.93-7.08-.7-12.77-1.79-5.27-1-6-1.67-6.5-2.24-1.64-2.06-.27-4.19.22-10.54.43-5.49-.45-5.83,0-13.89a28.23,28.23,0,0,1,1.12-7.39,30.83,30.83,0,0,1,2.92-6.28,33.33,33.33,0,0,1,4.26-6.27c1.14-1.27,2.24-2.22,7.84-5.83,3-1.92,4.78-3,10.08-6.27,5.48-3.37,6.44-4,8.52-5.16,4.26-2.43,6.39-3.65,7.62-4,5.54-1.73,7.16.58,13.22-1.12,2.85-.8,2.51-1.32,7.17-3.14a65.61,65.61,0,0,1,10.75-3.13c7.95-1.7,8.76-.53,16.58-1.8,10.49-1.7,9.73-3.91,16.81-4,6.07-.1,8.48,1.5,14.12,0,3.89-1,3.44-2,7.84-3.36,6.77-2.13,8.36-.06,15-2,3.86-1.13,2.76-1.66,9.64-4.26a105.66,105.66,0,0,1,10.75-3.36c1.84-.46,3.14-.74,4.93-1.12,4.41-.93,7.51-1.43,15.24-2.69l9.64-1.56c3.45-.6,6.45-1.16,12.32-2.25,5-.92,7.44-1.38,8.29-1.56,2.21-.49,3.55-.91,13.22-3.81,5.88-1.76,5.87-1.77,6-1.8,6.41-1.07,9.13,1.05,13.67-.67,2.84-1.07,1.74-1.89,5.16-3.58,5.83-2.91,12.26-2.12,16.35-4a24.4,24.4,0,0,0,3.14-1.79c1.08-.74,1.52-1.19,2-1.57,1.51-1.15,3-1.27,7.84-1.79,2.85-.3,4.4-.47,6-.67,3.93-.49,5.89-.73,7-1.12s3-1.69,6.94-4.26a30.62,30.62,0,0,1,3.59-2.24,21.65,21.65,0,0,1,5.82-1.79c3.13-.68,8.56-1.87,11.88-5.83a15,15,0,0,0,2.91-6.27c.93-3.55.2-4.81.45-9,.23-3.89.63-10.53,4.48-12.77,2.39-1.38,3.63.35,6.73-1.12,2.6-1.23,3.93-3.49,6.27-7.62,2.53-4.45,2.06-5.3,3.81-7.62,2-2.6,3.64-3,8.51-5.82,7.94-4.64,13.32-7.78,14.34-12.78.48-2.34-.54-2.44,0-6a16.31,16.31,0,0,1,4.26-9.18c1.42-1.41,1.79-1.11,4.48-2.92,2.2-1.47,7.63-5.11,10.31-11.2,1-2.15.4-2,1.79-5.6,1.47-3.81,2.18-4.25,3.81-8.07,2.33-5.44,1.5-6,3.14-7.84s2.86-1.61,7.17-4.26c3-1.83,2.83-2.23,5.83-4.26,5.76-3.9,7.71-3.37,11.43-6.27,2.87-2.25,2.87-3.48,6.05-7.4,2.53-3.12,3.75-3.85,17.25-14.56,7.73-6.14,9-7.21,10.76-9a54.08,54.08,0,0,0,9.18-11.21c3.2-5.34,1.69-5.3,4.93-10.53,2.64-4.26,4.44-5.6,8.74-12.32,1.61-2.52,1.3-2.24,2.47-4,4.33-6.65,6.93-7.92,13.22-15.46a102.86,102.86,0,0,0,7.17-9.63c2.62-4.07,3.93-6.1,5.15-9.19a41,41,0,0,0,2.47-18.15,28.31,28.31,0,0,0-.68-5.16c-.52-2.22-1.09-3.31-3.36-8.73-1.83-4.4-2.1-5.23-2-6.5a8.55,8.55,0,0,1,2.46-5.38c2.82-2.44,8.07-.15,13.45,2,2.82,1.13,2.58,1.36,3.8,1.56,5.11.84,8-3.41,11.21-2,1.52.66,1,1.65,3.36,4,1.71,1.74,3.63,2.68,7.39,4.48,4.41,2.11,5.81,2.29,9.64,4.48a18.76,18.76,0,0,1,3.59,2.47c1.85,1.73,2.61,3.37,4,6.05,0,0,1.78,3.37,4,7.17,3.55,6,4.63,6.39,5.16,9.19.36,2-.23,1.4-.23,6.72,0,6.22.82,6.68,0,9.19s-2,3.5-1.57,5.37a5,5,0,0,0,2,2.69c1,.75,2.84,1.58,11.2.45,4-.54,6-.81,6.5-.89,2.73-.49,4.47-.93,6.28,0a5.27,5.27,0,0,1,2,1.79c1.43,2.2-.05,3.93.45,6.72.56,3.1,2.71,2.81,5.83,8.07,1.57,2.64,1.09,2.84,2.69,5.37.55.88,1.63,2.49,5.37,6.28,5.34,5.4,5.72,4.75,7.85,7.62,1.77,2.4,1.95,3.45,4.25,6a16.69,16.69,0,0,0,4.49,3.81,13.82,13.82,0,0,0,4.48,1.57,14.42,14.42,0,0,0,5.82-.45,29.38,29.38,0,0,0,9-4,45.81,45.81,0,0,0,9.86-8.51,48.62,48.62,0,0,0,8.51-14.57c2.89-7.67.92-8,4.48-20.16,2-6.74,3-10.1,5.38-13.67a32.85,32.85,0,0,0,3.59-6.05,23.25,23.25,0,0,0,2-8.07c.18-3,.29-4.85-.89-6.5-1.31-1.82-2.88-1.52-5.83-3.36a19.18,19.18,0,0,1-5.15-4.93c-1.15-1.72-2.07-4.11-1.8-13.67.22-7.57.82-6.65.68-10.53a58.82,58.82,0,0,0-3.14-15.91c-1.7-4.89-3.17-7-2-9.41.72-1.48,2.2-2.33,5.16-4,4.38-2.52,5.48-1.87,7.17-3.81s1.06-2.92,3.13-5.16a9.71,9.71,0,0,1,3.59-2.68c2.67-1.06,3.72.36,9,.22a11.49,11.49,0,0,0,9-3.36,21.63,21.63,0,0,0,4.7-5.38c2.12-3.6,1.71-5.95,2.69-6,1.16-.12,3,3,2.69,6-.18,1.69-.91,2.11-1.57,3.81-1.17,3,.08,4.42.45,10.08a73.59,73.59,0,0,1-.23,9.41,38.11,38.11,0,0,0,0,7.17,23.45,23.45,0,0,0,.9,4.49c.77,2.44,1.49,3.12,2.24,4.93,1.24,3,.39,3.82,1.12,7.84a28.45,28.45,0,0,0,3.36,9c2,3.63,3.11,3.76,4.71,6.72a21.7,21.7,0,0,1,2.46,9.64c.08,5.66-2.36,7.29-.89,11,.59,1.5.95,1.14,2.91,4.48,2.46,4.22,2.13,5.21,3.36,5.83,2.71,1.36,5.15-3,9.41-2.24,2.58.47,2.35,2.19,6.95,4.48,2.08,1,2.09.66,6.05,2.24a37.43,37.43,0,0,1,7.17,3.36c3.52,2.31,3.31,3.53,6,4.71a11.06,11.06,0,0,0,7,.67c4.13-1,8-5,7.39-7.84-.39-1.79-2.23-1.54-5.6-4.71-3-2.84-2.19-3.66-5.15-6.5s-4.51-2.65-6.95-5.6a17.75,17.75,0,0,1-2.69-4.48c-3.44-7.83-1.57-18-.22-25.32a43.45,43.45,0,0,0,.44-7.85,11.47,11.47,0,0,0-1.34-6.05c-.84-1.41-1.33-1.31-2-2.46-1.5-2.49,0-4.21-.22-8.29-.16-2.82-.9-2.41-2.69-9.64-.59-2.38-.45-2.19-1.12-4.93-1.22-5-1.83-7.47-2.69-9-1.15-2-1.8-1.81-7.62-6.5-6.66-5.37-7.17-6.7-7.17-7.84,0-1.52,1.12-3,3.36-5.83a14.06,14.06,0,0,1,3.81-3.81c1-.62,3.39-2.07,5.83-1.57,2.91.6,2.75,3.32,6.94,6.73a22.36,22.36,0,0,0,7.17,3.81,26.8,26.8,0,0,0,8.07,1.34c3.56,0,10.5.15,15-4.26,1.15-1.12,2.41-3.81,4.93-9.18,2.72-5.8,3.16-7.86,5.61-9.41s3.54-.29,6.49-1.8c3.43-1.74,3.11-4,7.62-9.86,4-5.18,5.41-4.81,6.73-8.29,1.08-2.85.24-3.34,1.79-8.06a11.94,11.94,0,0,0,.89-5.16,5.06,5.06,0,0,0-1.34-3.58c-.89-.79-1.88-.74-4.48-.9-1.72-.1-3.43-.37-5.16-.45-4.2-.19-8-2.23-12.54-4.7-5.5-3-8.25-4.46-10.09-7.4a55.71,55.71,0,0,0-3.36-5.15c-1.46-2-1.89-2.25-2.69-3.36a17.86,17.86,0,0,1-3.13-8.74c-.08-1.16-.43-6.41,2.91-10.31,1.37-1.61,2.3-1.73,6.72-4,5.18-2.7,8.68-4.52,12.1-7.4s2.66-3.45,7.84-8.29c4.48-4.18,5.14-3.83,7.17-6.5a34.94,34.94,0,0,0,4.93-9.86c1.69-4.69,1.79-7.12,2.69-7.17,1.48-.08,1.13,6.37,5.83,10.76,1.39,1.3,4,2.28,9.19,4.26s7.94,3,11,3.36a32.37,32.37,0,0,0,10.53-.68c4.28-.86,4.26-1.59,9.41-2.91,7.28-1.85,8.55-.71,10.31-2.46,2.26-2.27.56-4.59,2-13.45,1-6,1.88-5.68,1.8-9-.17-6.13-3.35-8.85-1.8-11.43,1-1.71,2.84-1.15,6.73-2.46,5.79-2,6.18-4.69,13.67-9.42,7.23-4.56,8.13-2.81,9.85-5.37,2.94-4.37-.61-8.08-.22-21.51,0-.52.11-3.67,0-7.85-.14-5.36-.48-7-.67-7.84-.75-3.24-1.8-4.85-1.35-5.15.79-.53,4.93,3.75,6.28,5.15s1.65,1.87,2.46,2.24c2.26,1,5.25.24,7.17-1.34,1.74-1.44,2.28-3.26,2.92-5.38a16.19,16.19,0,0,0,.44-7,8,8,0,0,0-1.34-4c-1.45-1.91-3.11-1.64-3.59-2.69-.91-2,4.18-5.56,9-10.31a102.08,102.08,0,0,0,12.77-16.13c1.71-2.61,4.36-6.9,8.52-9.41a10.43,10.43,0,0,1,5.82-2c1.53,0,2.26.53,3.81.22.46-.09,2.81-.54,3.81-2.24,1.48-2.5-1.62-4.94-.67-9.41a9.65,9.65,0,0,1,1.79-3.81c2.24-2.94,5.21-3.15,8.52-4.48,5.3-2.14,4-4.19,14.78-12.55,3.43-2.66,4.11-2.88,5.83-4.7a35.16,35.16,0,0,0,6.27-9.86c2.56-5.36,1.74-5.61,4-10.09a36.73,36.73,0,0,1,6.27-9.18c3.29-3.44,4-2.66,7.17-6.28,2.28-2.6,2.24-3.39,5.38-6.94,1.71-1.93,2.32-2.37,3.14-3.81a12.45,12.45,0,0,0,1.79-6.5c-.21-4.74-4-6.24-3.14-8.74.7-2,3.28-1.32,5.61-4.26.32-.4,2.63-3.41,1.79-6.27S3352.81,99,3352.7,97s3-2.58,6.49-5.82c3.27-3,4.82-6.42,6.5-10.09,1.61-3.5,2.48-6.67,5.38-10.53a5.61,5.61,0,0,1,3.36-2.46c1.39-.24,2.56.37,4.48,1.57,4,2.49,6,3.74,7.62,5.37a21.84,21.84,0,0,1,5.16,7.85c.76,2.1.45,2.4,1.34,8.51,1,6.92,1.44,6.71,1.57,9.86a47.88,47.88,0,0,1-.9,10.09c-.66,4.32-1,6.48-1.79,8.29-1.51,3.41-2.89,3.49-7.62,9-5.07,5.87-6.73,9.53-7.17,10.53a23.17,23.17,0,0,0-1.79,8.07c-.12,3,.47,4.13.89,4.7s1,1.07,4,2.47a36,36,0,0,0,4.7,2c3.8.88,7.32-1,8.29-1.56,5.48-3.21,3.36-7.9,8.74-11.66,3.8-2.64,6.49-1.45,8.74-4.7,1.33-1.92,1-3.27,2.92-5.38,2-2.27,3.28-1.73,4.7-3.36,2.65-3-.28-6.49,1.35-11.88.65-2.14,1.11-1.59,6.49-8.74,5.61-7.43,6.23-9.52,6.5-11a17.72,17.72,0,0,0-.45-8.06c-1.47-4.77-4.43-6.34-3.8-9,.18-.78.69-1.65,4.25-3.8,4.84-2.92,9.39-5.67,15.91-5.83,2.56-.06,4.69-.12,7,1.12,3.16,1.73,2.59,3.8,5.6,5.83,4.27,2.86,8.82,1,9.86,3.36.51,1.17-.57,1.64-.67,4.25-.14,3.64,1.9,4.34,1.57,7-.41,3.13-3.45,3-4.26,6.72-.24,1.09,0,2.75.45,6,.29,2.12.62,3.66.89,4.93.73,3.39,1.1,5.09,1.8,6.28,1.31,2.24,2.28,1.93,3.58,4,.4.65,1,1.77,1.57,6.72.8,6.85-.08,6.82.9,9.19s2.13,3.13,2.69,6c.4,2.13-.09,2.46.44,3.14,1.5,1.9,5.56-.48,12.78.22,3,.29,4.07.88,4.48,1.12,3.36,2,4.42,6.24,4.48,6.5.49,2.1-.06,2.66.67,3.59,1.27,1.61,4.08,1.36,6.95,1.12a14.12,14.12,0,0,0,6.27-1.57c1.46-.83,2.83-2,4.71-4.93,3.92-6,4.56-10.87,5.38-10.76,1.27.17-1.21,11.92,4.25,17.26a28.63,28.63,0,0,0,4,3.13,30.69,30.69,0,0,0,5.82,2.92c5.49,2.1,6.24.88,10.09,2.68,2.34,1.1,1.38,1.23,6.49,4.49,3.91,2.48,5,2.77,6.73,4.7a14.82,14.82,0,0,1,2.91,5.16,13.51,13.51,0,0,1,.67,4.25,15.17,15.17,0,0,1-.89,4.71c-1.25,4.18-1,7.95-.68,11.88s.82,3.52.9,6.94a21.68,21.68,0,0,1-1.34,8.74c-.95,2.41-1.42,3.61-2.47,4-3,1.24-6-5-10.76-4.48-2.57.26-4.37,2.3-6.49,4.71a19.14,19.14,0,0,0-4,7.39,14.31,14.31,0,0,0-.45,7.85,17.81,17.81,0,0,0,2,4.25c2.19,3.86,3,4.61,4.48,7.17,2.61,4.43,4.42,7.49,3.81,11-.37,2.1-1.23,2.22-1.34,4.26-.17,3.19,1.74,7.05,4,7.4,3.67.55,7-8.13,8.07-7.62.92.43.36,7.55-4.26,12.1-1.27,1.25-2,1.49-7.84,6.27-2.42,2-3.55,3-3.36,4,.3,1.73,3.91,2.42,5.37,2.69,5.17,1,6.89-.64,14.35-1.12,5.36-.34,6.76.35,8.51-1.12,2.36-2,1.23-4.43,3.59-6.5,2-1.78,4.83-1.64,9.63-1.34,7.38.47,8.47,2.31,11,1.12,1.95-.92,1.2-2,6-10.08,3.22-5.37,2.46-3.09,5.38-7.85a10.49,10.49,0,0,1,2.91-3.36c.73-.52,2.9-2.07,4.71-1.57,2.5.7,1.81,4.67,4.48,9.19s4.86,3,9.63,8.74c1.65,2,4.69,5.77,5.38,11.2.08.6,0,2,0,4.71-.16,8.81-1,10.88-2,12.32a11.61,11.61,0,0,1-2.69,2.69,19.29,19.29,0,0,1-10.53,3.81c-4.76.36-5.12-1.09-11.66-1.79-4.82-.52-12-1.28-13.89,2-1.68,2.88,1.37,7.64,1.79,8.29,1.89,2.87,3.28,2.36,6.05,5.82,2.61,3.26,2.08,4.58,4.26,6.05a10.5,10.5,0,0,0,7,1.35c2-.19,2.54-.74,8.06-2.69,2.7-1,4-1.43,4.71-1.57,6.07-1.29,8.34,1.79,11.2.23,3.26-1.79,1.17-6.24,5.16-9.86,3.1-2.82,5.81-1.45,7.17-4,.83-1.59.08-2.63-.45-9.41-.23-2.95-.34-4.43,0-4.93,2.08-3,10.73.65,21.51,2.24,11.69,1.73,16.53-3.49,20.62.23,3.44,3.12,2.26,8,6.72,10.3,2.29,1.2,2.85.06,6.72,1.12,3.67,1,6,2.84,10.76,6.5a40.15,40.15,0,0,1,5.6,5.16c2.12,2.38,3.18,3.61,3.36,5.37.21,2-.95,2.51-2.46,6.5-1,2.68-2,5.22-1.57,8.29a37.28,37.28,0,0,0,2,5.61c1.55,3.9,2,4.45,2.69,4.7,1.56.57,3.82-.63,4.93-2.24,1.4-2,.25-3.58,1.79-7.17a7.77,7.77,0,0,1,1.57-2.69c2.74-2.75,7.74-1.73,9.64-1.34a18.65,18.65,0,0,1,8.29,4c3.45,3,2.65,4.67,6.5,7.84,2,1.61,2.49,1.45,5.6,3.81a62.87,62.87,0,0,1,5.15,4.48c6.35,5.69,14.78,7.82,16.81,8.29,4.16,1,6.18.67,8.74,2.69a13.79,13.79,0,0,1,4,5.61c.69,1.72,1.28,3.22.9,4.92-.8,3.56-5.06,4.52-4.71,5.83.3,1.11,3.77,1.95,6.5.67,3.44-1.6,2.86-5.23,6.28-6.94.9-.46,2.85-.39,6.72-.23a78.57,78.57,0,0,1,11.2.9c5.4,1,5.4,1.81,7.17,1.34,4.07-1.07,4-5.54,8.52-7.17a10.57,10.57,0,0,1,6.94.23c3.79,1.27,4.19,3.59,9.41,8.74,5.62,5.52,7.76,5.42,8.52,8.51s-1.09,3.58-2.24,9.64c-.84,4.4-1.84,9.67.67,14.11,1.81,3.21,4.56,4.4,4,6.28-.33,1.2-1.6,1.2-3.8,2.91-2.6,2-2.81,3.55-4.71,5.6-1.61,1.75-2.83,2.13-7.84,4.48-2.47,1.16-8.87,4.17-14.57,7.4s-4.82,3.35-7.84,4.7c-3.64,1.63-5.33,1.64-14.57,3.59-6.76,1.43-10.14,2.14-11.87,2.91-5.62,2.51-5.35,4.46-11.43,7.4-4.26,2.06-4.8,1.29-11.43,3.81-6,2.28-5.64,2.93-11.65,5.37-5.27,2.14-10.12,4.07-16.58,4.49a35.21,35.21,0,0,1-10.76-.68c-5.34-1.23-7.53-3.19-12.55-2.91-2.14.12-4.3.25-6,1.79-2.76,2.46-1.44,5.84-3.81,7.4-2.21,1.46-6.24.41-8.51-1.79s-1.37-4.49-3.59-11c-1.55-4.55-2.55-7.51-5.15-8.74s-4,.64-9.41.89c-7.06.34-11-2.65-12.1-1.12-1.41,1.91,4.62,6.64,3.14,9.64-1.14,2.3-6.05,2.27-14.12,2.24-6.67,0-9.36-.71-11.88,1.34-.86.71-.3.59-3.58,5.38-3.73,5.45-4.89,6.25-5.83,6.72-1.87,1-3,.7-3.58,1.8s-.06,2.32,1.34,5.15a53.64,53.64,0,0,0,3.36,6.27c4.38,6.3,3.66,7,10.31,16.81,5.38,8,8.07,11.93,9.86,13.22,6,4.29,9.6,2.67,17,8.29,2.13,1.61,4.43,3,6.5,4.71,3.11,2.54,4.82,4.39,6.94,4,1.5-.25,1.53-1.33,3.14-1.57,1.42-.21,2.4.48,5.83,2.69,4.71,3,5.15,3.23,5.15,3.81,0,2.28-6.81,2.38-7.84,6-.7,2.5,1.61,5.53,3.81,7,3.81,2.46,9.12,1.26,12.32-1.12,3.58-2.66,3-5.63,5.6-6.28,4.39-1.09,9.61,6.32,10.53,7.62,1.42,2,2.57,3.68,2.69,6s-.77,3.19-2.69,7.84c-2.43,5.92-1.82,6.44-3.13,8.07-2.39,3-6.2,3.5-10.53,4-11,1.37-14.66-2.59-23.31,0-2.68.81-2,1.09-6.5,2.69-6.28,2.25-9,2.19-15,3.59-9.42,2.19-9.25,3.82-19.72,6.27-4,.93-3,.46-10.53,2-9.5,2-14.25,2.94-17.7,4.48-6.19,2.76-6.53,4.68-11.88,5.83a23.29,23.29,0,0,1-10.08,0,26.08,26.08,0,0,1-7.17-3.14c-9.85-5.28-12.84-2.06-18.83-6.27-5.33-3.76-2.72-6.15-10.08-13-1.29-1.21-4.6-3.57-11.2-8.29-5.94-4.25-7-4.83-8.52-5.38-1.75-.63-7.26-2.54-13-.22-1.2.48-6,2.44-6,5.15,0,3.73,9.16,5.24,9,8.74-.1,1.64-2.2,2.85-4.26,4-4.26,2.45-7.7,2.09-7.84,3.14-.2,1.54,7.13,2.79,7.17,5.15s-6.43,3.09-6.5,5.61c-.06,2.26,5.12,2.63,6.27,6.49.91,3-1.33,6.1-1.79,6.73-2.63,3.59-7,4.2-9,4.48-4.75.67-9-.64-12.77-2.47-9-4.37-9-8.57-18.15-15.68-10.83-8.43-14.1-5-22-13.22-4.32-4.5-7.07-9.41-10.31-8.74-2.81.58-2.79,4.68-6.5,6.05-3,1.08-4.74-.84-9.64-2s-6.48,0-16.58.45a113.31,113.31,0,0,1-13.89,0c-13.91-1-22.54-5.51-25.1-2-1.2,1.65,0,3.68-1.34,4.48-1.68,1-4.34-1.81-10.53-5.15-5.33-2.87-8-4.34-11-3.59-3.29.85-3.11,3.51-7.4,6.5-1,.68-7,4.87-12.55,3.36-5.28-1.43-4.92-6.54-12.1-9.63-2-.84-5.16-2.22-7.84-.9s-2.33,4.39-4.93,9c-2.12,3.74-7,9.72-11.87,9.41-1.78-.12-4.2-2.4-9-7-5.5-5.25-6.79-7.28-10.31-8.51-1.51-.54-2.11-.45-7.17-.68-10.22-.45-15.34-.68-19.71-1.12-6.14-.62-8.6-1.27-10.31.45-1.86,1.86-.38,4-2.24,6.28-2.81,3.36-8,.61-11,3.8-2.65,2.84-.21,6.79-2.24,8.07-2.9,1.83-10.35-4.63-16.14-9.63-5.09-4.41-4.9-5-8.06-7.17-4.37-3-13.64-7.9-17.48-4.71-1.63,1.35-1.69,4-1.8,9.41-.14,7.09,1.45,9.3-.22,13.22a15,15,0,0,1-4.26,5.38,25.63,25.63,0,0,1-11.42,5.83c-5.32,1.21-6.62-.19-9,1.56-2.66,2-1.54,4.2-4.48,8.74-2.69,4.16-4.7,4-6.95,7.4-.75,1.15-1.34,2.51-2.46,11.65-1.36,11.14-.9,12.87-2.91,15.91a27.82,27.82,0,0,1-6,6.27,36.71,36.71,0,0,1-3.81,2.47c-5.88,3.41-8.29,3.32-8.52,4.7-.37,2.31,6.15,3.24,9,9,1,2,1,3.8,1.13,7.39.06,2.54,0,8.06-2.92,19-1.7,6.43-2.27,6.74-3.13,11.43a46.77,46.77,0,0,0-.9,11.87,30.43,30.43,0,0,0,1.57,8.74c1.35,3.86,2.42,4.06,4.93,9.64,2.07,4.6,1.34,4.46,2.91,7.17,2,3.42,3.53,4.32,4.48,7.62.45,1.56,1,3.58,0,5.15-1.32,2-4.46,2-5.38,2-5.74,0-8.07-4.53-11-3.59-1.31.43-1.94,1.72-3.58,7-3.07,9.79-4.6,14.68-4.71,19.27-.12,5.6,1,6.51,0,10.75-.81,3.45-2,5-1.34,7.62.78,2.94,3.36,5,4,5.61,2.38,2,3.41,1.45,4,2.68,1,1.88-.88,4.12-4.93,11-3,5.06-2.21,4.22-4.71,8.3-3.75,6.13-5.62,9.19-6.95,10.3-3.94,3.32-5.68,1.46-17.92,5.6-5.42,1.84-6.48,2.68-8.52,2-3.45-1.11-7-5.67-9-9.41-.74-1.41-1-2.19-1.57-2.24-2.08-.19-2.18,8.72-8.74,13.89a31.2,31.2,0,0,1-6.05,3.59c-3.36,1.51-4.12,1.14-6,2.46a13.11,13.11,0,0,0-4.93,6.72c-1.1,3.77.67,5.12-.89,7.62-.93,1.48-2.4,2.39-4.71,3.81-2.62,1.61-3.57,1.59-4,2.69-.75,1.79.74,4.25,2,5.6,2.84,3,5.95,2,6.73,4,.59,1.56-.94,3.67-4,7.84s-3.16,3.33-3.81,4.71c-2.79,6,3.57,12,.45,16.8-1.24,1.91-2.84,1.87-2.91,3.36-.13,2.59,4.55,6,8.74,5.6,2.84-.26,3.34-2.08,5.6-1.79,1.17.15,1.73.73,6.27,5.83.27.29,2.21,2.47,5.16,6,2.52,3.06,2.87,3.61,2.91,4.48.13,3-3.64,5.38-4.71,6.05s-1.92,1-7.39,2.46c-6.32,1.64-7.16,1.61-9.19,2.69a19.11,19.11,0,0,0-5.15,4c-2.81,3.19-1.94,4.58-4,6.5-2.9,2.66-5.67,1-9.85,3.13-1.9,1-4.41,4.54-6.28,6.72a3.38,3.38,0,0,1-2,1.35c-1.45.22-2.23-1.07-3.36-.9-1.42.23-2.16,2.59-2.46,3.59-1.66,5.52,1.06,8.64-.9,11.2-.54.71-1,.79-4.26,2-7.43,2.79-6.9,3-9,3.58-7.52,1.95-9.9-2.69-15.24-.22a14.29,14.29,0,0,0-6.49,6.5c-1.49,3.08-.93,5.17-2.69,6.27-2.45,1.53-5.65-1.17-7,.23-.84.91-.15,2.78.9,5.6,1.51,4.06,2.38,6.41,4.25,7,2.93.83,5-3.7,7.4-2.92,3.24,1.07,3.33,10.66,3.36,13.22,0,4.94-.75,6.36.45,7.62,2.86,3,10.7-1.62,12.32.67.24.34.2.79-2.46,6.5-1.82,3.89-2.58,5.33-2,7,.32.92.67.76,2,2.69s2.3,3.3,2.24,4.7c-.09,2.18-2.35,3.71-3.81,4.71-2.94,2-3.83,1-6.5,2.69-3.41,2.13-2.92,4.34-6.27,6a11.1,11.1,0,0,1-5.61,1.12c-5.16-.34-7-4.34-9.41-3.36-1.54.63-2,2.86-2.69,6a25.76,25.76,0,0,0-.44,6.72c.19,4.62.78,5.33,1.34,10.53.72,6.69-.2,6.23.67,10.08.78,3.45,1.78,5,1.35,8.07a8.32,8.32,0,0,1-2,4.71c-1.16,1.22-2.36,1.53-4.48,2.24a46.84,46.84,0,0,0-10.08,4.26c-2,1.26-3.76,2.38-4.93,4.48-2.54,4.53.82,7.92-.9,16.35a17.23,17.23,0,0,1-1.79,5.16c-.64,1.13-2.82,5-6.5,6-.76.21-3.11.72-10.08-3.14-6.26-3.46-6.7-5.16-12.33-8.29-4.41-2.45-7.58-4.21-11.43-3.81s-5.13,2.47-10.08,6.28c-6.06,4.65-14.37,11-23.08,10.53-3.67-.22-2.68-1.39-10.08-3.59a61.89,61.89,0,0,0-22.64-2.46c-3.52.31-7,1.18-13.89,2.91a130.65,130.65,0,0,0-15.91,4.71c-10.24,3.88-18.26,6.93-19.94,13.22-1,3.65,1.12,4.93-.45,8.29-2.25,4.81-8.64,6.63-12.1,7.62-6.32,1.8-7.86.2-10.76,2.46-3.72,2.91-3.08,7-6.27,8.07-2.58.83-5.33-1.11-6.95-2.24-5-3.55-4.26-7.37-9.63-12.78-2.45-2.46-4.26-4.28-7.17-4.93-5.2-1.15-7.41,2.89-14.12,3.37-4.16.29-7.19-1-12.32-3.14-8.11-3.41-7.62-5.65-14.79-9-2.48-1.14-1.2-.26-18.83-4.93-7.65-2-8.64-2.4-11.2-2.47-5.08-.14-7.69,1.12-9.86-.67-2.73-2.25-.95-6.17-3.14-7.4-2.79-1.57-6.43,4.42-13.22,4.71-5,.22-10.41-2.72-10.53-5.38-.14-3.11,7.05-3.29,10.76-9.63,2.65-4.55,3.08-11.51-.23-15-1.34-1.42-2.71-1.64-17.25-1.34-12,.25-16.2.51-20.17,3.58-2.48,1.93-2,2.71-4,3.81-5.38,2.89-9.59-2-19.94-3.36-9.76-1.29-10.84,2.4-19.28,0-4.56-1.3-5.89-2.84-11.65-3.81a33.34,33.34,0,0,0-11.2,0A18.08,18.08,0,0,0,2533,1143c-2.6,1.58-3.6,3.26-4.93,4.71-3.56,3.86-8.31,4.76-17.48,6.5-8,1.51-7.62.29-13,1.79-5.12,1.43-10.65,3-13.67,7.84-2.59,4.19-2.33,9.24-2.24,11,.26,4.94,2,6.28,1.12,9.64s-3,3.43-5.6,7.17c-2,2.86-1.26,3.42-4.48,14.79-2.06,7.29-2.66,8.05-3.59,12.77-1.07,5.48-.52,5.7-1.34,6.72-3.54,4.4-12.42-1.53-26.89.23-5.11.62-10.29,1.24-15.24,4.93s-4.79,6.72-12.77,16.13c-4.78,5.63-7.23,8.45-10.31,8.74-4.39.41-5.48-3.4-13.89-6.05a32.87,32.87,0,0,0-11.65-1.57c-4.25.26-7.25,1.39-11.21,2.91-7.14,2.75-11.11,4.15-15,7.85-2.23,2.11-3.5,4-5.38,3.81-2.34-.31-3.77-3.76-4.26-4.93,0,0-.73-1.78-1.34-8.29a29.69,29.69,0,0,0-7.84-.45c-3.12.23-4.41.81-7.17.89a23.92,23.92,0,0,1-8.29-1.34c-11.87-3.7-18.22-9.2-26.44-10.31-9.92-1.33-9.22,5.53-27.79,8.29-14.79,2.21-22.18,1.79-22.18,1.79-6.46-.35-11.48-1.44-15,1.8-1.57,1.43-1.49,2.48-5.6,7.39-2.93,3.51-4,4.24-4.93,4.71-3.36,1.73-4.75.1-7.17,1.57-4,2.42-3.28,8.73-5.6,9-1.6.16-2.32-2.79-4.93-2.91-.33,0-1.37,0-3.36,1.34-2.9,2-3.7,4.05-4.93,5.38-3.26,3.53-8.66,1-18.83,1.79-6.4.51-7.05,1.75-11.65,2.24-2.57.28-17.69,1.33-25.54-7.84a32.07,32.07,0,0,1-4.71-8.07c-2.5-6.15-1.21-8.37-3.36-10.08-3.07-2.44-6.8,1.22-16.13.67-4.22-.25-7.65-.45-10.09-2.91s-1-4.11-3.58-11.88a36.15,36.15,0,0,0-4.93-10.53c-2.12-3-2.75-2.71-4.26-5.38-2.27-4-1.77-6.24-4-8.06-1.43-1.15-2.94-1.32-5.6-1.57-7.31-.7-9.12,2.18-11.88.67-3.22-1.77-1.33-6-6.05-11.43a21.26,21.26,0,0,0-4.48-3.81c-4.62-2.94-6.42-1.59-9-3.58-2.86-2.24-1.62-4.76-4.93-14.12-1.66-4.71-2.49-7.06-4-8.29-4-3.19-7.71.08-14.56-2.69-3.18-1.29-5.26-3.15-8.74-6.27s-3.37-3.82-7.17-7.62c-4-4-5.08-4.19-9.86-8.52A95.45,95.45,0,0,1,1986,1140c-6-7.12-9-10.67-9.19-14.79,0-1.06,1.38-5.86,4.26-15.46a12.92,12.92,0,0,0,.22-8.07,6.31,6.31,0,0,0-1.79-3.13c-2.92-2.43-6.6,1.12-11.87-.45a13.09,13.09,0,0,1-7-5.6c-1.54-2.51-.7-3.23-2.24-7-2.11-5.08-4.15-4.89-4.93-8.52a11.46,11.46,0,0,1,2.24-9.41,10.72,10.72,0,0,1,4.26-3.13c3.36-1.33,4.93.19,7.39-.9,2.28-1,3.22-3.32,4.71-7.17C1974.62,1050.07,1974.86,1044.79,1975.06,1044.81Z"/><path class="cls-1" d="M3479.08,56.62a5.53,5.53,0,0,0-1.8,4.26c0,2.56,1.44,6,4.71,6.94,2.19.65,5.37.25,7-2.24,1.83-2.88-.06-6.21-.23-6.5-1.92-3.23-5.77-3.35-6.27-3.36A5.06,5.06,0,0,0,3479.08,56.62Z"/><path class="cls-1" d="M3439.19,47.21c2.62.43,3.46-5.43,9.86-9.41,3.22-2,6.53-2.72,10.53-3.59,5.48-1.18,7.29-.61,10.31-2.46a14.84,14.84,0,0,0,5.38-6.05c1.56-3.27.73-4.85.45-14.57-.23-7.71.2-9.74-1.35-10.75-1.89-1.24-3.89.9-9.86,1.79-5,.74-5-.55-10.08,0-2.64.29-9.09,1-13.89,5.6a51.53,51.53,0,0,0-4,5.15c-3.22,4.37-3.66,5.6-3.81,6.73-.29,2.19.67,3,1.57,6.05,1.64,5.62-.35,7.08.9,13.22C3435.67,41.44,3436.76,46.81,3439.19,47.21Z"/><path class="cls-1" d="M3416.11,21.66c3.68-3.29,3.06-9.12,4.71-9.18,1.28-.06,1.86,3.48,2.91,3.36,1.22-.14,1.92-5.14,1.12-9.64-.34-1.93-.79-4.47-2-4.7-1.46-.29-2.09,3.11-5.82,6.49a21,21,0,0,1-9.86,5.16c-2.88.56-4.33.07-5.38,1.34-1.34,1.62.27,3.3-.9,6.28-.88,2.26-2.15,2.14-3.81,5.15-.26.48-2.16,4-1.34,4.71,1,.85,4.33-3.78,11.2-6.28C3412.11,22.47,3413.68,23.84,3416.11,21.66Z"/><path class="cls-1" d="M3510,119.36c-7.12-.57-10.69-.83-11.2.45-.41,1,1,2.49,3.13,4.71,3.78,3.91,6.8,5.2,6.5,6s-2.83,0-7.84.44c-4.78.45-6.5,1.54-7.4,2.24s-2.45,1.95-2.46,3.81c0,1.68,1.32,2.88,2.91,4.26a17.66,17.66,0,0,0,6.72,3.81c1.92.58,6.25,1.9,10.54,0,1.14-.5,2.4-1.61,4.93-3.81,3.33-2.9,5-4.39,5.6-6.27s.25-3.5-.45-6.72c-.78-3.59-1.22-5.66-2.91-7.18C3517.15,120.34,3516.07,119.85,3510,119.36Z"/><path class="cls-1" d="M3612.18,312.74a2.06,2.06,0,0,0-1.12-.55c-3.37-.73-5.35-1.2-6.27-.12s-.49,2.59,0,4.48c.8,3.13,3,8.58,4.93,8.29.46-.07.58-.43,2.68-8.74C3612.63,315.23,3613,313.62,3612.18,312.74Z"/><path class="cls-1" d="M3730.27,331.34c-.68.22-.82,1.36-1.12,4-.72,6.46-1.07,9.7-.67,9.86,1.38.59,6.71-4.85,5.6-9.63C3733.53,333.22,3731.37,331,3730.27,331.34Z"/><path class="cls-1" d="M3714.58,533.46c-2-1.87-2.43-3.9-4.93-4.71a4.43,4.43,0,0,0-3.36,0c-2.27,1.18-1.36,4.54-3.13,5.38-2.2,1-5.23-3.3-7.17-2.24-1.09.6-1.33,2.61-.9,4,.78,2.59,3.89,3.64,6.5,4.49,5.22,1.69,6.45.18,11.87,1.79,2.9.86,2.95,1.4,6.73,2.46,5,1.4,6.84,1,7.84.68,1.62-.53,4.32-2,4.26-3.59-.08-1.89-3.87-3.22-9.42-5.15S3716.36,535.11,3714.58,533.46Z"/><path class="cls-1" d="M3754.25,567.74a5.82,5.82,0,0,1,2.46.23,6,6,0,0,1,3.81,4.48c.49,2.77-1.36,4.86-2,5.6-1.77,2-5.74,4.54-9.41,2.69-3.87-2-4.88-7.48-2.91-10.31C3747.75,568.18,3751,568,3754.25,567.74Z"/><path class="cls-1" d="M3554.59,630.71c.74.42,2.1,1.06,6.95,1.12,5.22.07,5.68-.64,9.63-.67,6.12,0,7.51,1.64,13.9,1.34a29,29,0,0,0,5.82-.89c2.4-.55,4.24-1,4.26-1.57,0-.82-3.33-1-8.52-3.14a22.28,22.28,0,0,1-5.82-3.14c-1.52-1.2-1.51-1.6-4.71-5.15-3.71-4.13-4.86-4.85-5.37-5.15a16,16,0,0,0-5.61-1.8c-6.35-1.21-13.09-2.5-15,.45-.26.4-.33,1.54-.45,3.81-.21,4-.32,6,0,7.4C3549.83,624.08,3550.84,628.55,3554.59,630.71Z"/><path class="cls-1" d="M2300,910.81c-1.53,3.32-1.47,7.89-1.34,17,.1,7.21.67,8.69,1.12,9.63,1.45,3,3.48,4.29,3.59,7.4.06,2-.8,2.2-1.12,4.93-.44,3.69,1,4.48,1.12,8.06.13,5-2.61,5.45-2,9.42.3,2,1.55,3.83,4,7.39,1.51,2.17,2,2.41,4,5.38,1.74,2.55,1.73,2.87,2.46,3.36,2.94,2,8.79.45,9.86-2.47.62-1.68-.7-2.91-2.24-6.49-1.21-2.82-1.71-5.76-2.69-11.66a108.7,108.7,0,0,1-1.34-14.56c-.22-7.51-.33-11.27.67-15.69,1.3-5.77,2.87-6.8,2.69-11.2-.17-3.92-1.57-6.84-3.14-10.08-2.48-5.13-4-8.39-6.72-8.74C2305.21,902,2301.51,907.5,2300,910.81Z"/><path class="cls-1" d="M2321.49,969.52c.34.8,1.56.37,2.68,1.12,2.36,1.56.37,5.6,2.47,8.51.41.57.92,1,7,2.92a68.13,68.13,0,0,0,9.86,2.68c4.88.74,7.32,1.11,9.41-.44a7.45,7.45,0,0,0,2.69-7.17c-.73-3.49-4.29-5.16-7.62-6.73-5-2.34-5.74-.85-14.34-3.13-5.1-1.36-7.76-2.65-10.09-1.12C2322.27,967,2321.09,968.59,2321.49,969.52Z"/><path class="cls-1" d="M3073.72,388.7c-2.39.1-4,3.15-5.6,6.28s-1.1,3.41-3.14,7.84c-1.56,3.39-2.17,3.89-2.24,5.6-.09,2.23.81,5.22,2.91,6.28,1.18.59,1.63,0,5.83,0,3.29,0,3.42.33,4.48,0,2.6-.82,4.36-3.76,4.93-6.28.7-3.14-.95-3.44-1.79-9.86-.53-4-.14-5.89-1.8-7.84C3076.94,390.29,3075.53,388.63,3073.72,388.7Z"/></g></g></svg>