<svg xmlns="http://www.w3.org/2000/svg" viewBox="0 0 2199.28 2082.08"><g id="Layer_2" data-name="Layer 2"><g id="Mali"><path d="M281.86,1807.22l30.8,14.39a49.42,49.42,0,0,0,14.86,3.57c6,.46,9.57.74,12.15-1.57,3.28-3,1-6.65,4.85-11.86,1.15-1.55,1.7-1.69,7.15-5.86,9.65-7.39,8.4-7.31,10.14-8,7.27-2.87,11,2.91,19.58-.15a18.68,18.68,0,0,0,7.43-5c1.31-1.44,4.83-5.34,3.85-9.14-.33-1.32-1.65-2.56-4.28-5-4.06-3.77-5.22-3.85-6.72-6.15-.53-.81-3-4.61-1.71-7,.71-1.31,2.4-1.88,12.86-1.85,11.78,0,14.62.77,16.29,1.28a52.84,52.84,0,0,1,8,3.57,118.61,118.61,0,0,1,13.57,8.15c7.3,4.83,8.24,6,8.86,7.57,1.18,2.94,1.27,7.26-1,9.57s-4.91,1.12-5.57,2.72c-1,2.31,3.92,6.79,7.14,9.14,5,3.66,7.94,3.61,8.43,6,.52,2.54-2.57,3.54-3.28,8.29-.19,1.27-.66,4.37,1,6.72,2.13,3,5.43,1.42,10.43,4.57,1.27.8,5.08,3.2,6,7.14.68,2.91-.82,4.08-2.43,9.58-2.33,7.94-.12,8.58-2.43,14.71-2,5.36-4.46,6.85-3.72,10.15.62,2.74,2.91,4.39,4.15,5.28,5.95,4.29,10.32.63,15,4.15.91.68.66.76,6.43,11.71,3,5.76,3.65,6.79,5.14,7.58,4.11,2.18,7.4-1.32,10.58.85s1,6.46,4.71,9.58c1.6,1.35,3.64,1.75,7.72,2.57,5.2,1,6.15.22,7.71,1.43,3.42,2.63,3.55,10.08.72,12-1.22.83-2.25.14-5.15,0-4.36-.21-9.09,1-11.86,3-3.52,2.55-2.26,5.25-5.71,12.15-2.3,4.59-3.21,4.1-10.15,13.43-8.88,12-8.21,13.89-7.85,14.57,1.42,2.69,7.42,3.46,10.71,1.29,1.38-.91,1-1.5,2.57-2.72,3.61-2.85,7.09-.84,9.29-3.14,1.81-1.89,0-3.8,1.57-6.15,2.6-3.86,10.41-2.9,15.43-2.28,5.35.66,8,1,10,3,2.32,2.36,1.47,4.43,3.28,14.43,1.42,7.8,2.2,8,1.72,10.57-1.11,6-5.47,5.88-6.43,11.72-.82,5,2.06,6.73.28,11.43-1,2.67-2.35,3.21-2.57,5.86a10.76,10.76,0,0,0,2,6.71c1.81,2.63,3.22,2.28,4.86,4.72,1,1.53.93,2.35,1.86,6.71,1.23,5.8,1.87,8.72,3.28,10a9.41,9.41,0,0,0,8.15,1.85c1.68-.42,2.28-1.18,5.28-2,2.14-.58,3.21-.87,4-.57,2.28.86,1.47,4.19,4.14,8.58a14.22,14.22,0,0,0,5.57,5.57c3.62,1.81,5.91.42,8,2.43,1.25,1.19,1.47,2.72,1.86,5.71.89,6.84-1.23,8.83.43,12.58.89,2,2.95,4.72,5.29,4.71s2.72-2.95,7-6.43c4.09-3.33,5.88-2.31,9.14-5.71.65-.68,1.25-1.42,3.86-6,4.46-7.82,3.68-7.38,5.38-9.89,4.07-6,6.17-5.1,10.62-10.82a6.68,6.68,0,0,1,3.43-2.58,6.52,6.52,0,0,1,4.14.43c3.4,1.43,3.24,4.19,5.86,4.86.51.13.9.13,5.15-1.14,5.72-1.71,6-2,6.71-1.72,2.82,1.19.13,7.42,4.15,10.43,3.06,2.3,6.35,1.23,7.57,3.58,1.5,2.88-2.43,6.52-.72,9.14.83,1.26,2.45,1.53,3.72,1.72,8.76,1.3,15.09.88,21.72,1.85,5,.74,7.56,1.11,9.86,3.15,3.62,3.21,2.92,7,6.14,8.28,3,1.17,7.33-.7,8.72-3.43.43-.86.39-2.73.28-6.43-.14-4.77-.4-5.24.14-6.28,1.26-2.4,3.55-1.63,5.29-4.15s-.12-4.75,1.72-6.43,3.6-.64,9.28-1.71c4.1-.77,4.29-1.48,7-1.57s3.81.63,7.72,1.57c5.9,1.42,9.9,2.38,13.43.57,2.21-1.13,4.73-3.6,4.57-6.14-.17-2.77-3.37-3-5-6.58-1.39-3,.19-4.38.72-11,.66-8.4-1.5-11.08.85-13.71,1.84-2.06,5.08-2.57,7.43-2.15,3.89.7,4.33,3.75,9.86,7.86,1.56,1.16,8.32,6.19,11.43,4.14,1.34-.87,1.52-2.74,1.86-6.28.64-6.66-1.12-9.07.43-10.58,1.19-1.15,2.6-.09,10.43.29,5.36.26,6.66-.14,7.72-.86,2.52-1.71,2.54-4.5,4-4.57,1.7-.08,3.18,3.69,3.85,5.43,2.06,5.26,1.5,8.15,2.86,13.86.83,3.49,1.47,4.2,2.57,7.57,3.17,9.68,3,19.31,2.86,28.72-.12,7.7-.74,10.57,1.57,13,1.47,1.55,4.38,2.15,10.15,3.29,6.82,1.35,10.26,2,12.14.43,2.48-2.06,1.27-5.47,4.15-7,1.67-.89,2.63,0,5-1a10,10,0,0,0,4.28-3.57c2.74-3.93.42-6.78,2.58-11,1.49-2.92,4-4.37,6.14-5.57,5.26-3,7.23-.85,12.57-3.43,5.58-2.69,6-6.27,9.72-6.14,2.42.08,2.4,1.63,7.29,3.57,2.82,1.12,6.55,2.6,9.28,1,1-.6,1.53-1.41,2.72-3.71,2.6-5,3.89-7.52,4.57-9.58,2.53-7.68.22-9.64,2.29-21.72.84-4.93,1.26-7.4,2.57-10.14,2.2-4.62,4.52-5.91,4.28-9-.16-2.19-1.37-2.14-4.28-7.15a32.88,32.88,0,0,1-4-9.43c-.63-2.68-.17-2.65-.72-6.28-1.11-7.43-3.52-11.06-2.28-12,.94-.73,2.44,1.32,5.71,1.57,3.77.28,6.82-2,8.43-3.29,3.49-2.68,3.6-4.62,7.29-9.72,5.33-7.36,7-6,8.86-10.28,2.51-6-.88-8.41,1.86-14.72,2-4.58,4-3.83,6-8.57,1.76-4.19,2.8-11-.58-15.15-1.94-2.41-3.24-1.33-6.57-4.28-.64-.57-6.43-5.86-5.71-11.86.11-1,.27-.89,2.71-6.43,2-4.57,3-6.87,2.86-7.58-1.14-5.24-15.14-5.67-15-8.14,0-.83,1.64-1.52,3.71-2.43a19.89,19.89,0,0,1,4.15-1.29c2.61-.48,6-1.84,12.71-4.57,5.67-2.29,8.5-3.44,9.72-4.57,3.54-3.29,3-5.95,6.28-8.43,2.46-1.83,4.9-2,9.29-2.29,16.06-1.2,10-1.42,20.43-1.85,11.82-.5,13.71,0,17.29-1.43,2.66-1.09,4.46-2.53,8-2.72,1.88-.09,3.6.19,4.86-1,.86-.81.51-1.37,1.43-3.43.23-.52.65-1.35,3.43-5,2.32-3,2.17-2.64,2.57-3.28,2.57-4.17.41-7.23,2.43-10.15,1.09-1.57,2.1-1.24,6.72-3.14,3.57-1.48,8.74-3.67,12.71-8,2-2.17,4.57-5,4-8s-3.44-3.09-4.85-6.72c-1.56-4,.26-8.08.42-8.43,2.55-5.52,8.49-5.26,9-9,.27-2-1.49-3.88-5-7.72-4.92-5.37-7-5.59-9.29-9.57-.75-1.29-3.55-6.07-1.72-8.86,1.22-1.86,4-2.06,5.86-2.14,14.81-.66,24.25,3.72,26.86.43,1.15-1.45-.44-2.56-.71-8.86-.26-6.11,1.1-8,1.43-13.86.2-3.64.5-9-1.57-14-4.06-9.89-13.67-10.23-13.86-16.72-.1-3.11,2.27-5.65,7-10.72a63.91,63.91,0,0,1,12.57-10.14c5.6-3.5,7.29-3.42,8.86-6.15,2-3.5,1-6.65,3.71-8.71,1.38-1,2.15-.62,5-1.29,5.7-1.34,6.24-3.88,12.14-5.86,4.36-1.46,8.56-1.58,8.86-.71s-3.88,2.41-3.72,4.57c.11,1.37,1.92,2.29,3.15,2.86,7.21,3.31,12.35,2.4,18,4.43,2.88,1,4.92,2.69,9,6,11.26,9.14,10.6,15,18.15,18,5.21,2.09,12.74,2.18,16.14-1.57s.67-9,4.29-11.57c2.43-1.72,3.79.56,10.57-.57,5-.84,5-2.2,10.43-2.86,2.51-.31,4.15-.21,4.72-1.29.69-1.31-1.17-2.56-2.14-5.86-.35-1.16-.29-3.79-.15-9,.12-4.19.24-6.15-1.14-7.43a4.29,4.29,0,0,0-2.14-1l-.57-24.14a4.75,4.75,0,0,1-.58-3.72c.13-.39.66-1.73,3.29-2.86,6.67-2.85,14.43,1,15,1.29s.32.18,5.86,4.14c7.47,5.34,9,6.35,11.15,6.29s2.24-1.16,6.57-3.29c7.42-3.65,12-2.74,12.72-5.14.49-1.75-1.82-2.72-3.86-6.29-3.48-6.09-2.29-13-1.72-16.29.67-3.83,2.25-7.31,5.43-14.28,2.21-4.85,3.29-6.34,4-10,.48-2.47.38-3.84,1.43-5.43,1.77-2.67,5.18-3.54,7.86-3.85l32-23.44a14.11,14.11,0,0,1,2.28-1.85,15.26,15.26,0,0,1,6.29-2.29c5.42-.82,11.82,1.35,14.72,2.43,5.76,2.16,10,4.66,15.43,7.86a99.91,99.91,0,0,0,10.43,5.86c4.41,2,6.69,3,9.71,3.14,1.84.06,6.56-.14,12-4.57q.35-20.09.71-40.15l41.72-3.58,47.58-32.14,33.15-7.86,44.44-39.44a24.81,24.81,0,0,1,2.85-1.14,27.81,27.81,0,0,1,9.43-1.14c3.61,0,3.89.28,11.29.71,1.31.08,3.35.19,5.86.29,4.11.15,7.5.16,9.86.14l5.71,10.29,22.72-9.72,45,17.15a114.76,114.76,0,0,1,11.15,3.28c3.78,1.33,5.42,2.13,6.57,1.29,2.58-1.89-.72-9.69,1-10.43.64-.28,1.39.67,2.57,1.43,3.14,2,6.47.87,11,.28,7.62-1,7.38,1.08,16.72.15,6-.6,5.4-1.37,8.72-1.29,7.7.2,8.37,4.32,16,5.29,6.85.87,7.9-2.25,16-1.43a19.31,19.31,0,0,0,7.29-.43,21.37,21.37,0,0,0,4.71-2c2.51-1.24,6.57-2.15,13.29-.43l43.87-39.29,143.59-9.43,78.59-1.43a8.82,8.82,0,0,0,3.28.28c.35,0,4.46-.52,5.72-3.14s-1.65-5.5-.43-7c1-1.2,3.68-.42,7,.43,4.16,1.07,8.39,1.89,12.58,2.86,9.23,2.11,9.67-.38,19.71,1.71,5.1,1.06,6.12,1.94,11,2.43s9.29.93,12.14-1.57c2.54-2.23,1.67-4.8,3.57-9.72,1-2.49,1.89-3.65,8.43-11.29,12.32-14.37,13.61-15.6,16.43-16.71s3.79-.72,10-2.86a73.27,73.27,0,0,0,9.71-4c5.36-3.09,7.21-9.12,10.57-23,5.85-24.13,4.79-24.64,8.15-33.86,3.15-8.65,5.58-15.33,8.71-20.15a35.29,35.29,0,0,0,4.58-8.71c.87-2.52.77-3.31,1.57-4.57,1.23-2,4-4.1,10.72-4.58l1.71-86,7.86-.57q-.86-149.6-1.72-299.2c-1.67.67-4.24,1.63-7.43,2.57a95.23,95.23,0,0,1-19,3.43c-2,.22-.85.14-25.43,5.15-9.58,2-19.14,4-28.72,5.86-12.42,2.47-13.58,2.61-17,3.71-5.7,1.84-8.29,3.32-13.71,3.86-3.72.37-7.9.79-12.15-1.14-4.63-2.11-3.86-4.52-10.28-10.72-5.74-5.53-8.57-5.76-13.44-11.86-2.55-3.2-3.83-4.85-3.71-7,.28-5.13,7.44-5.87,8.43-11.72.69-4.11-2.51-5.76-1.29-10.57.46-1.81,1.41-3.14,3.29-5.72,3.91-5.37,5.86-5.79,7.43-8.43,2-3.32.39-5.22-.57-15.43-1.28-13.6,1.21-13.62-.86-21.57-.94-3.6-2.1-6.11-1.14-9.58,1.15-4.14,4.23-5.64,3.57-7.71s-4.06-2.17-8.57-3.29c-5.33-1.32-5-2.22-15-6.43a130.43,130.43,0,0,0-17.71-6.43c-10.51-2.81-11.34-1.05-20.15-4.14-6.63-2.33-11.66-4.18-14.72-9-1.3-2.06-1.52-3.53-3.14-4.15-3.71-1.41-7.08,4.61-12.72,3.58-.64-.12-3.23-.6-4.43-2.58-.88-1.46-.29-2.57-1.14-3.43-1.11-1.12-3.23-.32-6.71.43-4.94,1.08-9.54,2.15-10.86.29-.83-1.17,0-2.53,0-4.72-.1-4.41-3.83-6.57-8-11.14-7.88-8.61-6.18-13.58-11.58-15.29a12.29,12.29,0,0,0-10,1.43c-3,2-2.74,4.38-5.43,5.43-2.93,1.14-4.34-1.22-9.86-2-2.42-.34-8.12-1.14-12.57,1.86-2.83,1.9-3.89,4.48-6,4.14a4.85,4.85,0,0,1-2.86-2.29c-1-1.57-.42-2.56-1.14-4.14a7.13,7.13,0,0,0-3.43-3.14c-4.59-2.52-9.33-3.35-12.43-4.58-5.87-2.32-11.7-8.38-12.58-14.71-.72-5.26,2.43-7.38.43-11.43-1.22-2.48-2.53-2-6.86-6.86-2.59-2.94-2.65-3.73-4.85-5.72a30,30,0,0,0-6.29-4.14,48.75,48.75,0,0,0-11.15-4.14c-8.37-2-10.6-.33-14.28-2.72a14.47,14.47,0,0,1-5.58-8l-19.14-.57.42-54.24L987.06,2,755.31,0,882.9,1213.64l37.15,22.29q-12.21,57.94-24.43,115.88l-503.09-1.57a6.69,6.69,0,0,1-2.86-2.43c-2.1-3.39.74-7,.58-14.15-.08-3.37-.16-6.48-2-7.57-3.12-1.83-9.92,2.87-13.15,8.29-1,1.68-3,5.07-2.14,8.71.69,2.85,2.45,3,3.85,6.58.14.34,2.4,6.28-.14,9.14-1.73,2-5,1.66-6.29,1.57-8.28-.58-5.3,2.25-25.57,3.86-21.38,1.7-20.39-1.79-29.29,1.14-1.64.54-6.76,1.84-17,4.43-2.41.61-6.1,1.49-9.72-.14-2.24-1-2.8-2.24-4.43-3.57-4.54-3.73-10.15-2.35-17.72-2.43-7.38-.08-5.74-1.43-17.57-2.72-10.71-1.16-20.34-2.12-31.29,1.43a39.22,39.22,0,0,0-10.86,5c-2.68,1.84-4,3.28-13.58,13.15-4.94,5.08-4.79,4.89-5,5.14-3,3.57-6.92,9.51-9.14,19.15a219.8,219.8,0,0,0-15.72-16.43,218.81,218.81,0,0,0-26-21c-.8-.91-2-2.31-3.58-4-8.32-9.12-10-9.56-12.43-13.86s-1.62-5.19-4-7.71a17.31,17.31,0,0,0-9.43-4.86,16.8,16.8,0,0,0-10.14.86c-5.37,2.41-4.48,6.18-8.86,7.86-5.66,2.15-10.1-3-14.43-.29-.48.3-1.53,1-3.43,5.71-3.55,8.72-2.24,11.91-5,18.44-2.32,5.47-3.53,3.93-6.15,10-1.75,4.07-2.31,7.71-3.42,15-1,6.54-.78,8.53,0,10.43,1.26,3.1,2.82,3,4,5.72,1.37,3.13.39,5.87-2.29,14.28-4.32,13.55-4,13.54-5.14,15.15-1.27,1.87-5.35,7.85-12.43,9.86-5.07,1.44-6.53-.63-14.58.71-5.27.88-5,1.83-9.71,2.58-9.36,1.48-15.84-1.4-16.44.14-.34.87,1.88,1.79,5.72,5.86,6.66,7,7.25,8.53,7.43,10,.43,3.49-1.43,7.15-3.43,9.29-2.14,2.29-3.77,2.12-4.72,4.28-.64,1.48-.24,3.44.58,7.29,1.07,5,1.89,5.87,1.57,8.43s-1.22,2.85-.86,4.14c.69,2.51,4.43,2.4,8.57,4.43,3.54,1.73,2.7,3,11.72,12.15,5.41,5.46,6.2,6.17,7.14,8.14A23.17,23.17,0,0,1,35.61,1539c-.23,5.1-1.5,5.66-2.43,12.85-.67,5.18-1,7.77-.14,9.86,2.33,5.7,8.55,4.87,9.72,9.58.49,2-1,5.15-4,11.43-1.64,3.43-2.46,5.14-3.43,6.14-3.77,3.88-7.56,2.61-9.86,6.14-1.73,2.66-1.18,5.81-1,6.86.56,3.26,2.31,4.65,6.57,9.43,7.46,8.38,6.13,8.66,11.29,13.58,3.9,3.71,5.12,4,6.28,6.57,1.8,4,.09,5.88,1.86,10.43,1.36,3.5,4.4,7.56,7.15,7.29,1.1-.11,1.42-.84,4.57-3.72a39.48,39.48,0,0,1,4.71-4c4.14-2.61,10.5-2.23,14.72.43,1.21.76.78.79,5.43,5.57,5.32,5.48,5.6,5.16,6.57,6.72,2.7,4.34.69,7.09,2,13.14.69,3.2,2.84,6.42,7.15,12.86,6.13,9.18,9.2,13.77,11.71,16.86,1.28,1.57,4,4.87,3.15,6.15-.6.86-2.21-.14-3.58.71-2.24,1.41-1,6.05-1,13.29a45,45,0,0,1-.85,9.72c-1.75,8-4.92,7.85-5.58,13.85s1.88,11.7,3.15,14.58c1.07,2.44,1.3,2.22,2.57,5.14,2.08,4.8,3.47,8,3.14,12.15a15.34,15.34,0,0,1-3.43,8.86c-2.4,2.76-3.9,2-5.28,4.28-2.37,3.87,1.29,7.2-.86,11.29-1.88,3.57-5.83,3.24-6.14,5.72-.27,2.15,3,3.11,6.85,7.14.81.84,4.74,4.86,12.58,12.86,7,7.2,8.07,8.26,10.29,8.57,3.07.43,6.09-1.52,12-5.43,7.08-4.68,10.62-7,13.14-11.57,3.11-5.59,1.22-8.11,4.43-11.15,4.39-4.14,11.64-2.94,13.86-2.57a24.55,24.55,0,0,1,13.43,7.43,31.9,31.9,0,0,1,7.72,13.43c2.91,10-.87,14.71,3,18.58s11.11,2.6,12.86,2.28,6.06-1.07,9-4.43c2.43-2.77,1.48-4.44,3.71-10.43,1.89-5,3.79-10.13,8.15-12.14,3.87-1.79,5.9.61,9-1.72,2.66-2,2.09-4.46,5.57-6.71,1.69-1.09,2.27-.81,4.15-2.14,2.43-1.74,3.08-3.39,4.14-4.43,1.6-1.58,5.08-2.67,13.43,0Z"/></g></g></svg>