<svg xmlns="http://www.w3.org/2000/svg" viewBox="0 0 2513.46 2181.75"><g id="Layer_2" data-name="Layer 2"><g id="Malta"><path d="M121.05,29.47c-.5,9.33-4,14.59-6,17-1.62,2-1.13.72-11.65,9.33-4.18,3.42-5.81,4.88-8.82,5.49-2.86.57-5.32,0-8.66-.67-5.53-1.18-5.31-2.3-9-2.83-1-.14-8.1-1.07-13.48,3-2.34,1.77-2.12,2.79-4.16,3.66-3.12,1.33-5.84-.12-10.16-1.16-3.38-.82-6.53-.88-12.81-1C26.5,62.08,25,63.65,20.5,61.93s-5-4.07-7.66-3.82c-5.57.5-8.8,11.24-9.32,13C.62,80.76,4.63,82,2.19,93.56c-1.3,6.2-3.37,10.22-1.33,15.15.76,1.85,1.81,3.11,3.83,5.16,7.83,7.95,13.71,10.78,20.14,16.31a66.47,66.47,0,0,1,9.49,10.16c9.34,12.14,12.44,24.66,15.81,38.29a75.85,75.85,0,0,1,1.67,8.65c1.22,9.21,1.9,14.3-.67,19.31-3.41,6.66-10.8,9.82-12,10.32-4.26,1.82-5.72,1-7.66,3s-1.62,4.29-2,15.15c-.28,8-.64,10.35,1,11.48,2.25,1.56,5.19-1.29,8.32.17a8,8,0,0,1,4.16,8c-.31,1.84-1.36,2.32-5.66,7.49-3.63,4.37-3.67,5-3.49,5.33.8,1.59,6.32-1.68,13.15.33a16.7,16.7,0,0,1,7.16,4.33,16.45,16.45,0,0,1,4.66,11.15c0,1-.06,6.45-3,7.83-1.57.73-2.83-.21-6-1-2.65-.67-8.26-2.09-11.49-.17-2.94,1.75-3.23,6.38-3.83,15.65-.51,8,.53,12.43.84,13.65,1.14,4.58,2,4.31,2.49,7.16,1.32,8.15-5.14,16-8.15,19.64-5.72,6.93-9.6,7.61-10.66,13a14.66,14.66,0,0,0,1.33,9c2.63,5.48,7.92,7.95,15.32,10.82,14.64,5.68,22,8.52,29.46,9.32,7.82.84,23.26,2.5,37.29-4.66,3-1.53,7.62-4.32,14.48-5a25.07,25.07,0,0,1,13.65,2c4.69,2.25,3.61,3.9,7.83,5.66,4.89,2,11.12,1.83,16,1.66,2.81-.09,4.74-.34,6.16,1,1.58,1.5.91,3.45,2.16,6.33,1.15,2.62,3,4.06,5.16,5.66,5.69,4.29,7.85,2.23,13.65,5.82,5.15,3.19,5.49,6.06,11.32,8.49,2,.81,3.52,2.06,5.16,1.5,2.29-.79,2-3.66,4.33-5.66,3.58-3,10.47-1.62,10.82,0,.25,1.19-3.17,1.93-7.82,6.32-3,2.79-2.21,3.1-4.83,5.66-1.52,1.49-7.55,7.4-15.65,7.83-1.84.1-3.2-.12-3.33.33-.37,1.31,11,3.05,15.65,11.65.34.63.1.29,2,5.66,3,8.62,4.59,13,5.82,13.65,3.43,2,6.41-1.52,15.82-.33,3.1.4,4,.93,4.33,1.67,1.12,2.42-4.54,5.15-5.17,11-.33,3.12.78,7.07,3.67,9a9.31,9.31,0,0,0,6.32,1.17c3.17-.55,3.76-2.47,5.83-2.17,1.79.26,2.18,1.82,5,4.66,2.6,2.63,4.17,4.22,6.16,4.66,3.49.78,5-2.69,12.32-6.32,3.64-1.8,6.68-2.63,11.65-4a67.53,67.53,0,0,1,9.82-2.16c7.67-.92,13.55.85,24,4a98,98,0,0,1,14.15,5.16c10.29,4.79,11.39,7.79,17.48,10.33,8.13,3.38,9.47-.58,27.8-.34,3.14,0,13.41,1.14,34,3.33,7.35.79,7.93.88,11.15,1.17,9.95.88,13,.72,19.81,1.83,8.56,1.39,11.44,2.91,12.49,3.49,2.94,1.65,6.68,3.74,8.49,7.83,2.46,5.55-1.29,8.79,1.5,14.65a14.86,14.86,0,0,0,5.66,6.16c2.48,1.49,4.6,1.71,11,2.16,12.75.9,12.87.65,14,1.33,4.56,2.79,2.78,7.15,8.65,13.49,2,2.15,5.95,6.4,9.82,5.66,2.22-.43,2.73-2.17,8.16-9.83s7.23-9.13,9.32-9.82c2.64-.86,3.15.23,7.49-.33,2.85-.37,4.6-1.09,10.49-3.66,6.62-2.89,9.93-4.34,13.15-5.83,10.19-4.72,11.33-5.52,12.48-6.49,2.38-2,6.47-5.44,7.5-10.65,1.46-7.42-4.1-14-3.33-14.49.55-.32,3,3.41,6.82,7.83s7.91,9.1,13.82,12.15c2.5,1.29,6,1.94,13,3.33,6.32,1.26,9.17,1.32,12.15.33,1.7-.56,4.61-1.52,5.66-4,1.47-3.43-2.16-6.19-1-8.33,1.45-2.65,8.25-.64,20.65.17,9,.59,13.55.84,17.48-1,4.33-2,3.19-3.53,11.48-9.49A36,36,0,0,1,679,493.08c2.9-.68,6.39-1.05,6.83,0s-3.71,2.81-3.83,5.82c-.14,3.36,4.88,7.17,7.16,6.16,2-.9.12-4.88,2.49-8.49,2.73-4.14,7.62-2.49,15.65-5.49,3.66-1.37,7.93-4.69,16.48-11.32,8.81-6.84,6.88-6.33,12.49-10.32,8.74-6.23,15-8.55,14.81-12.65,0-1-.47-2.37-1.33-2.67-1.38-.47-2.82,2.12-6.83,5-2.25,1.62-3.47,2.49-5.16,2.83-3.66.73-8.14-1.35-10.32-4.66-3.48-5.3-.7-13.15,3.66-16.82,3.18-2.67,6.25-2.32,14.15-3.33,4.59-.58,10.22-2.4,19.48-4,3-.51,6-1,8.66.66,2.34,1.45,2.5,3.36,4.32,5.17,3.22,3.18,8.24,2.74,12.82,2.49,18.8-1,17.25,1.91,32.13,0,7.65-1,9.27-1.91,14.82-1.66a82.49,82.49,0,0,1,15.31,2.49c8.31,2,10.65,2.67,10.65,2.67,4.21,1.18,6.13,1.89,9,1.5,1-.14,1.5-.33,6.49-2.5,8-3.45,8.44-3.7,9-4.5,2.62-3.73-1.37-7.59.84-10.65,2-2.78,7.33-2.35,18-1.5,7.28.59,9.52,1.4,12.16-.33,3.26-2.13,2.16-4.9,5.82-7.82,2.66-2.12,3.81-1.13,11-3.5,2.48-.82,1.72-.73,10.49-4.16,5.44-2.13,6.75-2.56,8.82-2.66,1.59-.08,6.25-.32,8.49,2.49,1,1.28,1,2.5,1.5,2.5,1.13,0,.66-6.09,4.16-11,2.36-3.3,4.36-3,6.32-5.16,5.57-6.09,0-19.81-4.82-31.63-3.86-9.46-6.63-16.07-13.32-22.3-5.13-4.78-6.46-3.65-12.49-8.33-10.77-8.34-9.27-14.06-21.3-28.46a169.72,169.72,0,0,0-18.31-18.31c-8.13-7-10.15-7.51-13.32-12.32-1.7-2.58-4.24-7.6-9.32-17.65-1.71-3.36-3.89-7.72-7-7.82-1.1,0-1.39.49-3.22,1.18-4.71,1.78-6.62-.22-9.77,1-4.42,1.69-3.59,6.78-7.32,7.65-2.2.52-4.18-.87-8.16-3.66a42.85,42.85,0,0,1-8.82-8.32c-3.52-4.37-3.11-5.19-6.49-10-6.13-8.69-9.26-8.55-11-13.82-1.37-4.16.55-4.32.5-13a55.78,55.78,0,0,0-4.5-21.48c-1.83-4.65-2.79-7-5-8.15-4-2.1-6.39,1.87-14.82,2-7.06.1-10.57-2.62-15,0a27.62,27.62,0,0,0-3.66,2.83,53.08,53.08,0,0,0-5.49,5.49c-.75.8-5.13,5.38-11,6.82-5.31,1.32-12.41.21-16.65-4.16-3.58-3.7-1.62-6.13-5.66-12.15-3.45-5.15-7.94-7.94-11-9.82-7-4.32-8.87-2.82-14.15-6.66-3.51-2.55-5.61-5.64-9.82-11.82-7.25-10.64-5.83-12.17-10.32-16.15-.78-.68-7.84-6.74-17.32-6.49a12.89,12.89,0,0,0-6.65,1.5c-4,2.37-5.54,7-7,11.49-1.2,3.71-1.28,5.88-3.33,10.82-1.35,3.25-1.95,3.84-2.33,4.16-2.87,2.41-6.23.16-12.81.16-8.17,0-9.37,3.49-14.82,2-1.86-.51-4.13-2.22-8.65-5.66a84.3,84.3,0,0,1-9.83-8.15c-7.21-7.3-6-10.11-11-13-2.12-1.21-2.16-.61-12.15-3-7.16-1.71-10.78-2.59-12.66-3.83-3.41-2.26-4.42-5-8.32-14.65-8.07-19.94-9.13-21.41-10.32-22.81-4.81-5.62-5.92-3-14.81-11.48C538,75.6,535.15,72,530.88,72.09a49,49,0,0,1-6.66.33c-3.71-.14-4.64-.74-5-1-2.07-1.5-1.16-3.55-3-5.49-2.08-2.21-5.91-2.4-8.49-1.66-2.92.83-4.85,3-6.82,5.32-2.4,2.76-2.93,4.6-5.16,5.16-1.62.41-2.87-.17-3.5.67s.34,1.94.17,3.66c-.25,2.45-2.6,4.06-3,4.33-3.05,2.08-8.4,1.66-10.82-1-3.26-3.58,1.35-8.39.67-21.47-.19-3.56-.7-11.73-4.83-13.82a37.23,37.23,0,0,1-4.83-2.5c-1.73-1.09-2.21-1.62-3.33-2.33A15.84,15.84,0,0,0,459.13,40c-1.85-.15-5.58-.45-8.15,1.83-1.3,1.15-.91,1.6-2,2.5-2.71,2.24-8.42,1.56-11.82-1.33-4.28-3.65-4-10-3.83-12.32a67.69,67.69,0,0,1,2.33-11.82c.73-2.6,1.47-4.74.67-5.33-1.09-.79-3.32,2.41-7,2.17-2.6-.17-3.4-1.9-4.83-1.33-1.2.47-1,1.85-2.66,6.49a21.81,21.81,0,0,1-3.33,6.66c-1.06,1.34-1.59,2-2.5,2.33-2.83,1-7.33-2-8.49-5.66-1.37-4.34,2.63-7.43,1.16-9.49s-5.88.65-14.48.83c-6.28.14-7-1.26-17.64-1.83-6.38-.34-5.26.21-8.83-.17-5.55-.58-15.84-1.66-22.8-8.65-2.47-2.48-3.84-5-6.16-4.83-2,.17-2.41,2.2-6,4.33-1.77,1-4.14,2.45-6.83,2.16-3.59-.38-3.62-3.35-8.15-4.66-2-.58-3.8-.5-7.33-.33-2.85.13-4.27.2-5.49.66-2.36.9-3.41,2.5-7.49,8.33-4.64,6.61-5.4,7.57-6.5,7.49-2.52-.19-2.63-5.63-6.65-7-1.89-.64-3,.17-5.66.66C271.49,13,265,9.82,263.37,9c-6.71-3.31-8.16-8.17-11.15-7.33-2.33.66-3.37,4.14-3.83,5.66-1.52,5.1.81,7.94-.83,10.16-.9,1.21-3.09,2.38-9.16,1.33L190,18Z"/><path d="M864.47,536.36c-3.69-.35-5.56-.51-6.49.16-2.76,2-2.85,9,.33,12.49,2,2.18,4.2,2,5.83,4.83,1.31,2.31.66,3.86,1.66,4.32,1.82.84,4-4.15,9.66-7s8.65-.54,10.82-3.33c2.39-3.07,1-8.86-1.83-12.15-.86-1-2.65-3.05-5-3-3,.07-3.39,3.52-7.15,4.5C870.38,537.69,870.11,536.89,864.47,536.36Z"/><path d="M899.26,500.57c-3.79-1.4-11.75,5.25-11,10.15.35,2.26,2.26,2.29,7.15,8,2.43,2.83,3.66,4.28,4.17,6.16,1,3.79-.94,6.21-1.67,10-1.25,6.52,2.1,12.33,3.83,15.31,4.92,8.51,11.34,8.54,16.15,18.48.68,1.4.39,3.66,1.66,4.16,2.4,1,5.25-5.29,8.82-4.83,4,.53,5.74,9.16,5.83,9.66.34,1.83,1.43,9.09-3,14.65-4.12,5.18-8.4,3.08-14.31,8.16s-9.35,13.73-7,16.48,8.3-3.41,20.31-2.67c7.87.49,9.75,3.41,20.14,3.66,5.3.13,8,.2,11.15-1.33,7-3.37,7.67-10.32,12-10.32,3.43,0,3.74,4.39,9.32,6.49.81.31,3.54,1.25,11.15,0,5.61-.91,9.2-2.25,16-4.66,10.13-3.59,15.2-5.38,17.65-6,5.92-1.47,6.29-.9,17.81-3,8.81-1.6,13.25-2.44,15.31-3.83,6.39-4.31,10.42-13.59,9.16-21.8-1.17-7.64-5.82-7.25-14.65-22.14-5.54-9.34-5.09-11.82-9.65-15.48-3.52-2.82-8.12-4.16-17.32-6.83-11.47-3.33-14.38-2.87-17.48-6.32-.89-1-1.23-1.69-4.66-12-3.82-11.49-4.19-13-6.16-15-4.46-4.44-11.93-5.9-13.81-3.66s1.08,7.82,1.83,9.32c1.48,3,2.24,2.85,3,5a12.17,12.17,0,0,1-2,11.49c-.52.62-3.77,4.55-7.83,3.83a7.87,7.87,0,0,1-5-3.83c-2.62-4.64,1.08-8.88-1.33-11.49-1.61-1.74-3.6-.22-8.49-1.83-3.29-1.08-3.57-2.16-7.33-4.16s-9.77-5.21-13.31-3.16c-2.15,1.24-1.39,3.24-4.33,11.32-3.2,8.78-5.43,10-6.66,10.48-1.85.67-4.44.56-5.66-.83s-.14-2.91-.17-7.82a67.45,67.45,0,0,0-.83-7.66c-.6-4.43-.91-6.66-1.5-7-2.62-1.49-10.21,4.11-15,9.49-1.64,1.84-3,3.75-4.66,3.49-1.3-.2-1.74-1.63-5.16-5.66C900.46,501.53,899.8,500.76,899.26,500.57Z"/><path d="M1245.65,877.57c2.7-1.52,4.6-2.19,5.85-1.29,2.36,1.69-.67,6.7,2.83,13.81a25.68,25.68,0,0,0,3.83,5.33c4.85,5.82,8.8,10.56,13.15,10.32,1.73-.1,2.34-.92,9.32-7.32,8.26-7.58,9.33-8.19,10.82-8.16,5,.08,9.28,7.11,11.16,10.15,2.73,4.44,2.41,6.27,4.49,7.16,3.62,1.55,6.42-3.22,13.48-4.33,5.34-.83,5.52,1.62,13,2,8.18.42,9.75-2.44,19.14-2.16,3.39.09,10.48.3,11.49,3.33.59,1.79-1.46,3-4,9-1.61,3.81-2.42,5.71-2,7.66.65,3,3.12,3.18,7.66,8.16,3,3.26,5,5.46,5,8.32,0,1-.25,3-5.17,8.16-7,7.34-10.85,7.91-11,11.15-.08,2,1.36,2.2,5.66,8.82,2.74,4.22,4.1,6.36,3.83,8.16-.56,3.66-5.74,7.3-10.66,7.16-6.89-.2-8.09-7.66-17-9.32-1.55-.29-7.34-1.37-10.82,2.16-2.82,2.87-3.13,7.76-1.66,11.15,1.65,3.81,4.5,3.31,6,7,2,4.88-1.16,10.38-1.83,11.48-1.47,2.43-2.22,2.14-6.66,6.83-3.64,3.84-5.46,5.76-6,7.65-1.5,5.3,3.35,7.89,2.33,12.49-1,4.32-5.62,3.77-14,10-9.09,6.76-7.29,10.15-16.65,16.31-3.08,2-5.25,3-6.82,5.83a13.88,13.88,0,0,0,0,12.48,14.83,14.83,0,0,0,8.49,7.33,11.35,11.35,0,0,0,6.15.49c5.47-1.26,5.31-6.57,10.16-8.48,5.5-2.17,8.74,3.45,14.81,1.33,3.31-1.16,3.56-3.25,8.33-7.83a51.09,51.09,0,0,1,12.48-8.82c11.73-5.44,18.3.75,23.81-5,1.44-1.51,2.47-3.48,7.82-10a9.5,9.5,0,0,1,4.16-3.16c1.84-.67,4.93-1,6.16.5,1.43,1.76-.78,4.66.5,5.82s4.53-1.57,6.66-.17c1.58,1,.76,3.22,2.16,4,1.71,1,3.88-1.74,8.16-3.33,1.24-.46,6.15-2.28,10.49-.67,5.25,2,5.46,7.39,9,7.5,2.64.08,3-3,7.49-6.16,6.6-4.69,11.76-2.42,13.65-6.16,1.56-3.1-1.7-5.25-.5-10.49a14.52,14.52,0,0,1,5.16-7.82c5.07-4.13,12.91-5,18-2,3.75,2.25,4.3,5.66,7,5.49.59,0,1.56-.26,6-5.16,4-4.43,3.46-4.51,4.83-5.49,4.08-2.94,7.1-.87,10.32-3.5,1.52-1.24,1.86-2.53,3.49-7.82,2.72-8.77,4.07-13.15,4.66-14,3.39-4.8,7-2.57,16.65-8.16,7.63-4.4,6.53-6.41,13.82-10,6.59-3.23,6.68-1.19,15-5,5.22-2.39,8.34-4.65,12.15-3.5,2.46.74,3.5,2.38,5,1.83,2.4-.88,1.09-5.59,4-7.49,2.32-1.52,5.94-.31,8,1.17.33.23,3.56,2.61,3,4.49-.48,1.6-3.49,2.07-9.49,3-2.74.42-2.87.3-4.83.66-4.84.92-7.39,1.39-8.82,3-3,3.34,2.07,8,0,14.32-1.81,5.54-6.74,5.28-10,11-2.74,4.81-.92,8-.83,16.82.2,18.91-7.83,25.54-2.67,34.45a19.73,19.73,0,0,0,7,6.83,17.47,17.47,0,0,0,9.65,2c5.26-.58,7.21-3.84,16.48-12.32,11-10.08,11.91-8.83,13.82-12.65,4.16-8.34-.26-14,4.49-18.81,2.78-2.82,6.5-3.12,13.15-3.67,3.7-.3,11-.9,18.81,2.5,4.61,2,8.18,4.94,15.32,10.82,5.09,4.2,6,5.58,9.15,6.49,5.73,1.68,7.82-1.46,13,.34,2.86,1,2.2,2,10,8.32,4.52,3.7,8.15,6.33,8.15,6.33,5.61,4,8.3,5.37,8,6.65-.46,1.93-6.94.65-8.15,3.5-.71,1.64.76,3.68,3.16,7s4.41,6.1,8,7.33,4.48-.49,6.32.66c3.88,2.41.18,10.13,3.67,20,1,2.72,3.23,9.11,7.65,9.65,4.63.57,8.58-5.68,9-6.32,4.19-6.64,2-14.54,1.83-15.15-1.21-4.17-3-4.87-2.49-7.16.9-3.85,7.21-6.83,12.48-5.66a12.23,12.23,0,0,1,6.49,4.16c3.09,3.48,3.67,7.46,4.17,11.15.52,3.92.07,8-.84,16-.23,2-.32,2.59-1.16,9.15-1.62,12.51-1.78,14.19-.5,16,2.15,3,7.19,4.69,10.49,3.16,4.91-2.28,4.06-10.79,7.82-11.32,1.83-.25,3.66,1.53,4.66,2.5a11.7,11.7,0,0,1,3,5.33c2.17,7.32-.64,10.55,1.5,14.81.38.76,1.41,2.54,6.49,5.33a55.68,55.68,0,0,0,20.14,6.16c17.52,2.39,15.86,0,24.8,2.16,8.77,2.14,13.32,5.18,21,3.83a15.77,15.77,0,0,0,8.49-3.66c3-2.82,2.5-5.2,5.16-7.16.87-.64,3.07-2,11.82-.66,8.41,1.24,8.43,2.75,15.81,3.83,3.71.53,4.49.26,13.82,1.33,4.3.49,6.27.79,8.49,2.16a14.36,14.36,0,0,1,5.82,7.16c2.09,6.05-2,9.54.17,13,1.9,3,5.35,1,11.48,3.67,6.65,2.9,5.45,6.51,14.65,12.48,5,3.26,7.53,4.89,11.16,5,3.1.1,5.95-.9,7.65.84,1.26,1.27.44,2.55,1.5,4.16,1.68,2.55,5.24,1.68,10.49,2.83,2.26.49,8.17,1.78,12,6.32.67.8,4.66,5.71,3.17,10.16-.71,2.1-2.51,3.75-11,7-13.16,5-19.82,5.25-20.47,8.66-.39,2,1.5,4.08,2.83,5,2.71,1.85,6.22.95,10.32-.17,7.54-2,8.76-4.75,13-4.16,3.48.49,3.43,2.45,6.83,2.5s4.59-2,9.15-2.33c1.37-.09,5-.34,5.66,1.16.47,1-.66,2.25-6.16,8.83-2.57,3.07-4.61,5.57-5.49,9.32-.55,2.33-.14,3,0,3.16,1.53,2.13,6.43-1,10.32,1.5a6.72,6.72,0,0,1,3,5c.27,4.1-4.24,7-4.5,7.16-4.32,2.69-7.44.06-11.48,2.83-2.54,1.74-4.45,4.91-3.67,6.16,1.5,2.39,12-3.71,15.82.33a6.55,6.55,0,0,1,1.33,2.83c.73,2.36,1.31,6.86-.83,9.16-2.53,2.71-7.92,1.35-13.32,0-6.42-1.62-10.47-4.09-10.82-3.5s2.58,2.33,7.16,7a65.29,65.29,0,0,1,4.49,5c2.62,3.25,5.05,6.3,6.16,9.82,2.36,7.5-2.39,13.85-.5,15,1.52.91,3.85-3.61,9.66-4.49,3.59-.55,4.59.9,8.32.16,1-.2,5.22-1,7.49-4,4.13-5.41-2.28-12.41,1.83-18.81,1.24-1.93,4-4.68,7-4.5,5,.31,5.43,8.47,14,13.32,2.16,1.22,1.62.41,7.65,3,5.76,2.46,6.74,3.41,12,5.82,7.67,3.53,8.08,2.66,12.82,5.33,5.09,2.87,9.41,5.3,9.65,8.82.3,4.37-6,5.44-6.66,11-.58,4.88,3.54,10.4,8.16,12.48,4.45,2,6.16-.63,10.49,1.67,3.64,1.93,7.18,6.33,7.49,11,.14,2.15-.5,2.8.16,4.17,1.25,2.54,4.18,1.72,9.33,4.16,1.5.71.73.54,9.48,6.49,3,2.05,3.2,2.13,3.67,2.66,2.74,3.12,4,8.81,1.49,12.49-1.67,2.41-4.35,3-8,3.83a21.46,21.46,0,0,1-12.15-.34c-5.36-1.92-4.72-4.62-10.82-7.65-4.94-2.46-5.41-.71-11.82-3.5a35.05,35.05,0,0,1-11-6.82c-2.63-2.5-2.91-3.68-5.16-4.83-2.89-1.47-5.74-1.22-9.66-.67-8.71,1.23-13.06,1.85-18,3.66a67.05,67.05,0,0,0-15.14,8.16c-5.41,3.85-9.2,6.55-12.49,11.65a31.21,31.21,0,0,0-5.16,19c.28,4,.64,9.19,4.33,13.15,3.91,4.19,10.76,6.17,17.64,8.16,3.69,1.06,7,1.74,7.66,4,.39,1.42-.65,2.23-1.83,4.83-2.85,6.28-.33,9.39-3.16,13a10.46,10.46,0,0,1-6.16,3.5c-4.14.82-6.09-1.38-12-2.66a33.66,33.66,0,0,0-11-.5c-4.94.48-5.3,1.57-14.65,4.33-8.26,2.43-10.3,2.26-12,4.66-2.37,3.35-2,8.81.17,10,1.55.85,2.9-1.14,8.32-3.49,7-3,8.56-1.4,14.65-4.66,2.35-1.26,3.16-2.06,5.33-2.5.81-.16,5.42-1.1,8.49,1.5s2.91,7.22,2.83,10.49c-.16,5.64-2.17,8.87-1,9.65.94.64,2.54-1.32,6.82-3.16,3.47-1.5,4.61-1.16,7.49-2.17,4.3-1.5,7-4.06,9.82-6.82,5-4.81,4.69-6.89,9.83-12,2.15-2.13,2.71-2.27,7.15-5.82,11.12-8.89,10.79-10.56,17.82-15.32a55.92,55.92,0,0,1,13.65-7.32c7.55-2.67,10.64-1.66,13.65-5.16,2-2.34,2.92-5.45,6.65-7.16.66-.3.56-.17,3-1,6.45-2.19,6.2-2.78,7.49-2.66,1.53.14,1.55.93,8.49,6a5.89,5.89,0,0,0,3.33,1.5c.5,0,2.33,0,4.66-2.33,4.31-4.31,2.14-8.31,5.33-11.16,1.14-1,5.11-1.13,13-1.33,7.15-.17,9,0,9.82,1.33,1.14,1.74,0,4.44-.83,6.5-1.47,3.56-3.13,4.26-4.49,6.82-1.67,3.15-.73,5-.84,10.82-.06,3.86-.19,10.75-3.49,17.31-1.21,2.4-3.21,6.38-7.49,9.16s-6.67,1.49-15.65,4.49c-5.35,1.8-8,2.69-10,4.83-4.26,4.66-1.13,8.76-5,14-3.66,5-7.47,2.61-13.32,8.16-5,4.72-2.67,6.85-8.16,12.65-4.93,5.23-8,4.83-11.31,10.16-2.25,3.65-1.22,4.54-3.33,8.65-1.06,2.06-2.62,4.35-12.16,12.15a148.26,148.26,0,0,1-15,11.32c-6.91,4.48-10.36,6.72-13.48,7.33-9.26,1.8-15.58-3.4-18.65,0a5.67,5.67,0,0,0-.66,6c2.11,4,9,1,14.31,5.66,2.15,1.87,3,4.36,4.83,9.32,1.89,5.25,3.86,10.72,1.83,12.49-2.31,2-6.82-3.44-15.48-2.67a22,22,0,0,0-9.49,3.33c-3.11,1.85-6,3.54-6.32,6.5-.38,3.22,2.38,6.85,4.33,6.65,2.49-.25,2.29-6.68,5.32-7.32,2.58-.54,4.1,3.81,9.16,5.66,3.84,1.4,6.7-1.25,8.16.33,1.2,1.32.36,3.91-.17,5.5-2.44,7.25-7.74,8.32-10.16,14.48-1.48,3.78-1.74,8.13-.83,8.49.63.25,1.94-1.31,2.67-2.67,1.45-2.71.4-4.38,1.33-6.82s2.65-2.36,5.16-5c4.24-4.45,2.24-7.86,5.32-10.32,4.29-3.43,9.91,1.71,13.82-1.5,3.2-2.63,3.23-9.18,1.5-13.49-1.79-4.46-4.91-5.11-5.16-9.15a9.39,9.39,0,0,1,2.66-7c2.45-2.45,4.31-1.15,8.16-3.17,5.54-2.89,8.43-9.1,9.15-10.65,1.75-3.74,1.78-6.21,3.33-6.49,1.94-.36,3,3.3,6.5,4,1.12.22,2.52.14,6.16-1.66,4.3-2.13,6.53-4.08,9.65-6.33,5.63-4,8.44-6.06,11.65-6.49,5.07-.67,9.26,1.92,11.82,3.5a28.31,28.31,0,0,1,11.15,13.81c2.12,5.36,2.08,11.12,2,22.64,0,4.87-.23,9.1-.23,9.1-.32,6.66-.87,11.67-.6,11.71s0-10.66,6.33-20.48c2.07-3.19,3-3.35,4-6,1.49-3.78,1.4-7.84-1.16-17.14a140.57,140.57,0,0,0-6-17.32,180.09,180.09,0,0,0-9.49-19.31c-3.63-6.32-6.63-10.56-5-13,1-1.52,3.41-1.62,4.33-1.66,2.52-.12,4.73.89,9.32,4.49,4.28,3.35,7.43,5.81,11.15,10.49a64.22,64.22,0,0,1,6,9.15c7,12.51,10.56,18.77,11.65,23.47,2.59,11.18-6.47,21.12-2.66,25.81.22.27,1.45,1.78,2.16,1.49s.35-2.5.33-5.32a33.64,33.64,0,0,1,1.33-9c1-3.87,1.87-4.58,3.33-8.49,1.09-2.92,2.75-7.36,2.67-11.82-.12-6.58-3.89-7-7.33-17.48-2.16-6.56-.95-7.24-3.33-12.15a34.57,34.57,0,0,0-7.65-10.65c-4.26-4-7.09-4.39-8.49-8.16-.18-.49-1.63-4.54.33-6.49,2.25-2.24,7.8.57,9,1.16a16.94,16.94,0,0,1,5.16,4c3,3.42,3,6,4.49,9,2.21,4.36,6.3,6.35,14.49,10.32,4,1.91,6,2.47,15.48,6.66,3.63,1.6,5.58,2.52,7.32,4.66,1.29,1.58,1.72,2.91,2.83,3,1.66.12,3.89-2.61,3.83-5.16s-2.6-4-7.49-8a122.13,122.13,0,0,1-10.16-9.49c-7.35-7.36-8.29-10.06-8.65-12-.23-1.23-.85-4.46.83-7.33.61-1,2.08-2.2,5-4.49s4.32-3.38,5-3.5,2.7-.29,9.82,5.33c4.3,3.4,5.44,4.94,6.66,4.49,1.74-.64,2-4.75,1.5-7.65-.54-3.3-2-5.49-4.66-9-5.52-7.4-8.28-11.1-10.83-13.65-5.78-5.8-9.23-7.43-8.65-9.32.5-1.66,3.62-2,9.32-2.67,5.49-.63,8.27-.9,10.16.84,2.25,2.08,1.42,5.38,3.16,5.82,1.2.31,1.84-1.2,4.83-2.66a13.36,13.36,0,0,1,5.49-1.5,11.12,11.12,0,0,1,7.49,2.83c3.85,3.79,2,9.17,4.66,10.15,1.59.58,2.26-1.29,6.49-1.83a13.66,13.66,0,0,1,6,.5,8.08,8.08,0,0,1,4,2.33c1.79,2.15.67,4,2,5.16,2.26,2,6.83-2.18,9.32-.33,2,1.45.1,4.71,2.83,9.32.6,1,1.75,3,3,2.83,1.56-.16,1.36-3.42,3.82-6.49,1.93-2.4,5.33-4.5,8.66-4.33,1.8.1,2.47.8,8.49,5.16,5,3.63,7.52,5.45,9.32,6.49,4.54,2.64,5.79,2.52,8.49,4.83,2.5,2.14,3.49,4,5,6.16,3,4.38,6.68,7.41,14,13.48s9.43,6.65,11.15,10.66c1.62,3.76.55,5.3,2.33,6.82,3.51,3,8.81-2,17.31.17a17.34,17.34,0,0,1,7.5,3.83c3.3,3,3.07,5.43,6,11.15,2.55,5,5,9.71,9.65,12.32,5.38,3,8,0,12.16,3,3.29,2.34,2.56,4.81,7,14.81,3.34,7.55,5.08,11.35,8.65,13,2.94,1.34,4,.07,9.66,1.49a37.93,37.93,0,0,1,9.32,3.83,54.38,54.38,0,0,1,12.32,9.32c10.68,10.39,16,15.58,20.81,21,14.55,16.44,11.5,15.9,18.31,21.64,8.7,7.34,14.53,8.94,16.14,15.81,1,4-.32,6.71,1.84,13,1.08,3.15,2.26,6.45,5.32,8.32,3.62,2.21,5.66-.13,8.49,2,3.46,2.61,1.55,7,5.83,10.82,1.93,1.73,3.83,2.2,3.66,2.83s-2,.47-8.32.66a28.37,28.37,0,0,0-5,.34,17.9,17.9,0,0,0-6.49,3c-4.28,2.72-8.94,2.92-14.65,3.17-9.45.4-10.89-2.87-15.15-.84s-3,5.46-8.82,9.49c-3.32,2.3-8.8,4.69-11.65,2.67-1.52-1.08-1.38-2.77-2.66-3s-2.44,1.09-5.66,5.49c-3.51,4.79-5.25,7.19-4.83,8,.83,1.59,4.45,0,13.15-.16,7.8-.17,9,1,13.48-.34a34.21,34.21,0,0,0,8.33-4c4.11-2.6,4.13-3.64,6.32-4.66,4.91-2.28,10.57.27,15.15,2.33,4.24,1.91,11.66,5.24,14.81,12.48,1.46,3.34,1.37,6.06,4.17,8.16,1.55,1.17,2.44,1,6.82,2.66,4.15,1.6,7.06,2.72,7,3.83s-3.45,1.1-8.49,3.16c-3.35,1.38-7.8,3.2-11,7.33-2.75,3.57-2.46,6.15-6,8.66a8.61,8.61,0,0,0-2.83,2.49c-.55.88-1,2.05-1.16,6-.2,4.58.32,4.75-.17,5.33-2,2.38-8.54-3-15.31-.33a10.08,10.08,0,0,0-4.66,3.33c-2.65,3.56-.67,6.76-3.33,9.82a9.59,9.59,0,0,1-6,2.83c-3.48.49-4.64-1.09-8.32-1.5-.46,0-7.67-.75-11.82,3.66-3,3.15-3,7.43-3,11,0,5.75,1.95,5.31,2.49,12.82.29,4-.06,6.85,2,8.49,1.17.93,2.28.78,3.5,2.16,1.57,1.8.81,3.32,1.83,4.16,1.81,1.51,5.38-2.38,12.15-4,2.08-.5,7.77-1.86,13,.66,2.32,1.12,2.17,1.87,4.5,2.67,4,1.38,6.08-.28,9.32,1.33,1.31.65,3.89,2.37,3.66,4-.35,2.55-7.13,1.59-13.31,6.5-2.06,1.63-3.15,3.25-5.33,6.49-3.56,5.29-6.92,10.28-6.16,16a20.3,20.3,0,0,0,3.33,8c2.3,3.6,4.56,5,4.66,8.16.07,2.3-1.11,3.08-.5,4.16,1.13,2,5.54,0,10.82.83,5.95,1,12.66,5.47,13.32,11,.38,3.16-1.33,5.82-2.83,8.15-1.24,1.93-3.52,5.48-7.83,6.83-5.06,1.58-9.66-.88-10.82-1.5-5-2.68-4.55-5.81-11.15-12.82-3.36-3.57-5.89-6.2-10.15-8a23.05,23.05,0,0,0-13.15-1.33c-2.93.58-8.72,1.8-11.16,6.49-1.7,3.29-1,6.84-.16,11.15a23.81,23.81,0,0,0,2.66,7.83c2.82,4.95,5.63,5.06,10.65,11.32,1.85,2.3,4.38,5.44,3.67,6.32-.87,1.07-6.7-.84-10.16-5.16-2.56-3.2-1.66-5-3.83-6.32-2.68-1.61-6.31-.18-12.65,2.33-3.42,1.35-5.13,2-6,3.16-3.11,4.1-1,12.37,3.66,17s12.38,5.87,16.65,6.49c5,.74,7.84.26,8.65,2,1.11,2.38-2.53,6.9-5.32,9.32-3.36,2.91-5.5,2.81-6,4.83-.7,2.85,3.29,4.17,3.67,8.32.4,4.52-4.07,5.62-3.67,9.66s4.9,4.07,8.16,11a14.67,14.67,0,0,1,1.66,6.16c.08,3.06-1,5.09-2.49,8.33-4.31,9.25-6.47,13.87-6.66,17.81-.17,3.55.62,5.39-.83,6.82-1.72,1.7-5.1,1.36-8.66,1-4.34-.43-6-1.44-6.82-.5-1,1.14.19,4.06,1.66,5.83,1,1.18,2.22,1.86,4.66,3.16,4.31,2.31,5.4,2.18,5.83,3.33.69,1.85-1.85,2.86-2.83,7-.2.82-1.25,5.23,1,8.33,1.3,1.8,2.64,1.65,3.16,3.32a5.42,5.42,0,0,1-1.83,5.33c-1.29,1.08-1.95.49-5,1.5-3.36,1.11-3.93,2.3-6.15,2.33a7.41,7.41,0,0,1-3.67-1,8.2,8.2,0,0,0-2.9-.63c-.17-.75-.31-1.42-.43-2,0-.08-.56-3-1.33-7s-1.12-5.79-1.33-6.5c-1.3-4.4-2.62-4.53-4.66-9.32-2.46-5.77-1.05-6.76-3.16-9.32-3.12-3.78-7-2.59-8.16-5.49-1.07-2.66,1.84-4.5,3.66-10.16.57-1.77,2.45-8.28.33-14.48s-6.12-5.59-8.65-12.15c-2-5.16-.09-7.06-1.33-13.65-1-5.19-2.93-8.06-6.83-14.65-8.7-14.7-5.9-12-13.15-23.8-6.83-11.11-10.68-17.37-16.81-23.31a94,94,0,0,0-11-9.32,69.78,69.78,0,0,1-6.16-4.33c-3.91-3.18-4.13-4.3-5.66-4.49-3.89-.51-9.58,5.85-9.82,12.31-.14,3.89,1.82,4.05,3.16,10.33,1.67,7.75-.87,9.64,1.5,14s6,4.15,6.49,7.82c.29,2.1-.84,2.44-2.16,8.33-.77,3.41-1.14,5.14-.5,6.65,1.26,3,4.37,2.44,5.33,4.83.9,2.23-1.14,4.4-5.83,11.49-5.52,8.36-5,8.9-7,10.15-6.08,3.9-14.24.87-16.15.17-6.83-2.54-10.92-7.61-13.65-11-6.3-7.82-5.49-11.93-9.82-13.32-3.05-1-6.8.46-14.31,3.33-4.65,1.78-5.15,2.5-8.66,3.33s-7.77,1.84-11.65-.16c-2.6-1.34-2.72-2.85-4.33-2.83-2.23,0-2.9,2.91-7.32,9.32-3.47,5-5,6.07-5,8.82,0,.32.08,4.08,2.5,5.49,2.9,1.7,5.7-2,10-1.16,4.5.89,6.94,6.09,8,8.32.67,1.43,3.86,8.24.5,15.15a14.34,14.34,0,0,1-6.5,6.83c-5.75,2.7-9.65-1.22-13.48,1.33-2.52,1.68-3,5.22-3.83,12.32a64,64,0,0,0,.5,18.47c1.3,7.88,2,11.82,4.66,13.15,4.19,2.06,11.51-1.66,15-6.65,2.39-3.44,2.08-6.22,4-6.66s3.82,2.19,9.32,8c2.27,2.39,4.73,4.59,7,7,0,0,21.23,22.56,36.12,28.13,1.85.69,4.39,1.39,6.16.17s2.09-4.16,2.17-5.16a11.38,11.38,0,0,0-1-5.5c-3.43-7.61-15.49-10.58-21.64-21.14-.54-.91-4.61-7.92-2.17-11,1.76-2.21,6.36-1.5,15.49,0,6.32,1,9.47,1.57,11,2.33,8.85,4.43,7,12.47,17.65,20.14,2.54,1.84,4,2.35,4.49,4.16,1.22,4.33-4.65,9.69-11,15.48-3.69,3.37-7.87,6.67-12.82,12.82-1.57,1.94-3.78,4.87-2.83,6.66,1.06,2,5.28.91,6.49,3.33.73,1.44-.08,3.24-.5,4.16-1.63,3.61-4.85,3.67-5.16,6s2.76,3.42,2.5,5.49c-.3,2.33-4.5,3.45-7.16,4.33-5.39,1.78-2.14,1.8-21.64,13-9.53,5.46-10.88,5.79-12.65,8.49-2.64,4-3,8.38-5.66,8.82-1.21.2-2.64-.76-5.5-2.66-3.71-2.48-4.3-3.79-6.15-3.83-.52,0-1.23.07-4.67,2.33-3.21,2.11-4.25,3.13-6.49,4.66-3.14,2.14-4.71,3.2-6.66,3.66-3.49.82-6.65-.23-10.48-1.5-4.44-1.47-4.8-2.5-7.33-2.49-2.91,0-3.17,1.35-7.32,2.49a22.32,22.32,0,0,1-11.16.17c-3-.79-3.67-1.8-6-2.83-6.61-2.94-9.92,1.22-21.8,1.5-8.46.2-10.45-1.82-15.65.33-3.11,1.29-3.74,2.56-7.49,3.66a22.73,22.73,0,0,1-11.32.34c-4.39-1.05-5.58-2.91-9.66-5.17-8.88-4.92-12.19-1.08-24.13-5.65-4-1.54-3.07-1.75-12-5.83-6.51-3-11.33-4.84-13-5.49-8.3-3.3-13.16-6.58-32-17.32-25.59-14.61-31-16.79-38.28-18.14-4.76-.89-8.89-1-17.15-1.33-16.84-.61-25.26-.91-35.62.83-8.52,1.43-15,3.56-19.14-.17-2.27-2-2.1-4.15-5.33-6.49-3.87-2.8-8.35-2.82-11.15-2.83-1.62,0-3.26.13-12,2.33-11.64,3-11,3.29-13.48,3.33-5.79.09-8-1.84-12.65-.17-2.73,1-3.4,2.14-5.16,1.84-3.16-.56-3-4.6-7-7.5-2.22-1.6-3.22-1-9.65-2.66a97.45,97.45,0,0,1-10.32-3.33c-4.92-1.92-8.19-3.87-13.65-7.16-7.31-4.4-11-6.6-12.82-8.82-5.51-6.6-2.51-10.58-7.16-15-5.09-4.81-13.4-4.49-22-4.16-10,.38-14.21,2.89-17.65-.17-2.45-2.18-1.6-4.59-5.82-9.32-3.54-4-5.82-4.14-6.49-4.16a6.09,6.09,0,0,0-5.16,2.33c-2.24,3.42,2.37,7.59.33,11.15-.8,1.4-1.82,1.28-7.83,4-4.1,1.85-5.32,2.67-6.82,3.33-4.11,1.81-9.46,2.06-20.31-.67a124.62,124.62,0,0,1-22.8-8.16,365.16,365.16,0,0,1-32.47-17.81c-9.17-5.54-18.68-11.64-22.63-8.49-1.9,1.51-1.41,4.26-3.83,5.33-3.12,1.37-7.29-1.7-9.49-3.33a18.89,18.89,0,0,1-7-8.49c-.94-2.49-.68-3.84-2.17-5.66a10,10,0,0,0-5.32-3.16c-6.55-1.84-12.94-1.28-17-1.17s-8.7-.53-17.81-1.83c-9.58-1.36-14.47-2.1-19.15-4.66-5.88-3.22-4.66-4.94-9.82-7.82-10.71-6-24.23-3.2-27.63-2.5-6.64,1.37-9.26,3.35-14.15,2a17.18,17.18,0,0,1-9.32-6.5c-3.51-5-1.31-8.56-5-12.15-3.08-3-5.71-1.6-7.49-4.49-2.11-3.43-.26-8.45.67-11,1.6-4.36,3.31-5,3.66-8,.33-2.77-.5-6.69-3.16-8.82-2.82-2.25-5.1-.39-12-1.67-4.5-.83-4-1.72-10.49-3.49a88.38,88.38,0,0,0-12.65-2.33c-8-1.08-8.33-.45-12-1.33-6.93-1.68-6.77-4.16-13-6.33-10-3.5-13.54,1.82-22.8-2.33a29.33,29.33,0,0,1-9.49-7c-4-4.5-2.77-6.2-5.49-8.49-6.27-5.27-15,1.69-21.48-3.5a11.79,11.79,0,0,1-4.16-9.65c.46-5.37,5.5-6.33,6.33-12,.62-4.23-1.5-8.58-4-11.15-3.93-4-7.82-2.63-16-6.33-2.89-1.3-3.73-2.08-10-6.32-15.69-10.63-23.54-15.94-31-18.81-6.74-2.61-8.65-2.23-12.15-5.16-5.75-4.81-5.8-10.15-11-11.82-2.24-.72-2.75.11-9.82,1.16-9.21,1.38-13.82,2.07-17-.16-3.71-2.62-.32-7.5-4.16-12.49-2.15-2.78-3.61-2-10.32-5.66a94.27,94.27,0,0,1-16-11.32c-4.31-3.63-4.71-4.55-7.16-5.49-5.18-2-7.87.38-11.65-1.83-1.46-.86-1.75-1.62-5.83-9-5.29-9.58-6.09-10.63-6.66-11.32-2.7-3.32-3.35-2.63-10-8.16-7.79-6.48-7.84-8.23-13-11.15-3.59-2-3.6-1.2-10-4-8.61-3.77-12.91-5.65-15.31-9.16-3.57-5.23-.46-8.3-4.66-15.81-1.93-3.46-4.14-5.58-6.83-8.16-7-6.7-9.9-5.81-14.15-11.32-3.5-4.55-2.13-6-5.49-9.16-.77-.72-2.76-2.47-13.15-5.66-6.74-2.06-8.62-2.17-13.48-4.16-5.24-2.14-9-3.73-9.16-6.16s3.47-4.68,6.66-6.65c5-3.12,7.37-2.69,9-5.17,1.47-2.25,1.89-6.23.16-8.65-3.26-4.57-15-3.38-38.45-.83-2.44.26-7.69.86-12-2.17-1-.73-2.38-2.55-5-6.16-5-7-5.94-9-9.15-11.32a18.38,18.38,0,0,0-4.83-2.66c-4.8-1.71-7.49-.19-9.49-2-1.81-1.63-1-4.13-1.33-7.32-.42-4-2.28-5.55-10.65-15.48-11.36-13.46-10.55-13.67-14.65-17.15-5.62-4.76-7.29-4.51-8.66-7.66s-.84-6.1,2-19c2.32-10.55,2.22-9.79,2.33-10.49,1.55-9.87-.52-17.87-3.83-30.13-1.55-5.76-3.14-10.22-6.33-19.14-5.21-14.63-7.88-22-10.65-25.14-7-7.87-11.53-5-20-14.81a54.54,54.54,0,0,1-8.49-13.82c-2.88-6.38-4.54-10.06-3.82-14.65.23-1.48.76-3.43,7.65-12.65,7.49-10,9.56-11.31,9.82-15.15.3-4.28-1.92-7.65-4.66-11.82-4.39-6.68-7.69-6.92-12-14-2-3.31-4.6-7.56-3-10.16s6.57-2.2,10.66-1.83c8.61.79,11.29,3.43,19.31,5.5,6.54,1.68,11.57,1.67,19.31,1.66,1.37,0,7.54-.61,19.8-1.83,7.32-.73,11-1.13,12-3.16,1.42-2.91-1.58-7.47-3.83-9.82-4.5-4.72-8.34-3-10.82-6.83s.92-6.68-.83-14.31c-.38-1.66-1.66-7.27-6.16-11.32-5-4.56-9-2.49-12-6.66s0-8.16-3.16-11.16c-3.27-3.15-7.82,0-12-3.16-.78-.58-2.52-2.11-4.17-10.15-1.3-6.36-2.62-12.85-1.16-21.31,1.66-9.61,4.77-9.35,4.83-17.15,0-4.22-.87-7.12.83-11.48.48-1.24,2.35-6,5.66-6.49,2.43-.34,3.24,2,6.82,2.66,3.05.54,4-.88,7.83-1.5a21.94,21.94,0,0,1,13.65,2.66,24.09,24.09,0,0,1,7.16,7.33c3.06,4.4,2.59,6.12,5,7.66,2.77,1.77,6,1.17,10.49.33,5.34-1,9.5-1.78,10.82-4.66,1.64-3.6-3.36-5.65-4.16-12.82-.75-6.65,3.13-8.57,3-18.81a19,19,0,0,0-1.16-6.83,20,20,0,0,0-5-7.15c-2.86-2.85-4.3-4.28-6.16-4.33-4.3-.13-5.41,6.57-10.15,6.82-3,.17-6.45-2.38-7.33-5.49a7.18,7.18,0,0,1,.34-4.49,10.44,10.44,0,0,1,6.49-6c5.73-1.83,8.52,3.19,16.48,2.17,2-.25,4.47-.58,6.49-2.5,4.11-3.9,4-12.31.33-15.65-2.32-2.12-5.08-1.28-6.32-3.66-1.11-2.13.06-4.78.66-6.16,2.49-5.62,6.62-5.48,8.16-9.32,1.73-4.29-.8-11-5.16-13.82-5.47-3.56-9.76,1.61-19.14-1.33-1.55-.49-8.5-2.67-12.15-8.82-2.78-4.69-.81-6.89-3.5-10.16-3.32-4-6.94-1.45-16.65-5.16-8-3.07-10.6-6.78-15.48-5.49-2.07.55-3,1.57-6,2a17.08,17.08,0,0,1-8-.83c-6.16-2.27-8.75-8.89-12-17.15-3-7.65-4.49-11.47-3.16-15.81,1.44-4.7,5.05-7.14,11-11.16,4.72-3.19,11.76-7.95,16.31-5.49,2.43,1.31,3.08,4.1,5.66,4.16,1.46,0,1.71-.85,4.33-2,3.88-1.69,5.09-.52,7.49-2,1.95-1.21,2.78-3,4.16-6a18,18,0,0,0,2.17-8c-.11-5.54-4-6.28-3.83-10.15.23-4.8,6.27-4.63,11.65-13.32a26.75,26.75,0,0,0,4.33-10.65c.61-4.13-.33-5.65,1-7.16,2.72-3.09,8.43,1.31,13.48-1.66,4.68-2.76,5.18-9.74,5.33-11.82.08-1.18.69-9.71-3.5-11.82-4-2-9,3.72-12.32,1.5-1.68-1.12-1.8-3.51-2-7.16-.49-9.12,3.21-12.31,1-17-1.65-3.49-4.63-3.62-4.49-5.83.16-2.47,4-3.27,11-7.49,4.52-2.72,10.92-6.56,10.32-9.32-.34-1.56-2.78-2.24-5-2.83-7.54-2-10.36.93-18.31,0-6.73-.78-10.2-3.54-11.82-5.16-.83-.83-3.1-3.13-2.49-5,.27-.85,1-1.36,6.32-3.33,4.72-1.77,5.28-1.81,6-2.67,1.56-1.88.36-3.51,1-7.82.84-5.58,3.33-6,3-9.49-.23-2.38-1.55-3.5-5.83-8.32-4.91-5.54-7.36-8.3-8-9.49-4.14-7.85.17-13.88-4.32-17.81-1.77-1.55-3.85-1.86-7-2.33-4.91-.74-8.37.31-11.82,1-9,1.78-9.59-.59-18.14.66-10,1.46-9.25,4.69-18.81,6.33-2.46.42-8.8-.11-21.47-1.17-8.7-.72-13.64-1.33-15.65-4.83-1-1.78-.21-2.45-1.33-4.49-2.87-5.21-10.06-4.23-11-7.32-.8-2.68,3.31-6.14,5.33-7.5,4-2.71,6.11-1.26,8.32-3.49,2.43-2.46.85-5.21,1.83-13.65a58.29,58.29,0,0,1,2.83-12.32,49.17,49.17,0,0,1,6-11.82c3.93-5.58,6.22-8.84,10-9.49,4.9-.84,7.1,3.62,12.15,2.67,3.2-.61,5.15-2.92,7.66-6,5.71-7,4.83-11,10.16-20,1.16-2,6.63-11.14,10.32-10.16,2.16.58,2.14,4.24,4.82,4.83.45.1,1.6.25,6-2.83a33.52,33.52,0,0,0,7.82-6.82c2.78-3.45,4.16-5.17,3.83-7.16-.48-2.81-3.66-2.7-7.49-7.49-2.48-3.11-2.11-4.35-3.83-5.5-1.33-.88-3.43-1.38-6.92-.42a39.85,39.85,0,0,1-11.89-4.9c-2.08-1.32-3.88-2.79-7.16-3.66-3.54-.95-5.2-.24-5.83-1.34-1.14-2,4.16-4.88,5.5-11.82.49-2.57.08-3.83,1-4.32,1.92-1,7.28,2.65,8,7.15.46,3-1.44,4-.67,5.83,1.56,3.64,11,3,16,2.66,6.85-.46,7.49-1.48,14.48-1.83,7.51-.37,11.26-.55,13.82,1.83s1.89,5.43,6,9.33c1.51,1.43,2.68,2.54,4.33,2.66,3.62.27,5-4.58,9.16-7.82,7.25-5.63,21-4.88,28.79.33a51.74,51.74,0,0,0,9.66,5.33c4.56,1.89,5.87,1.62,6.66,1.16,2.39-1.4,2.4-6.06,1.66-9.15-1.41-5.91-6-7.7-5.16-9.49,1.05-2.3,9.38-1.21,15.48,1a27.57,27.57,0,0,1,4.5,2c8,4.48,8.8,10.36,13,10.32,2.46,0,4.57-2.07,5.5-3.66a8.27,8.27,0,0,0,.83-5.16c-1-9.63-1.47-14.83-1-19.31.41-3.89.88-8.46,4.33-10.82,3.66-2.51,8.57-1.08,11.15-.33,2.13.62,7,2,9.49,6.32s0,6.93,2.33,9.33c1.16,1.18,2.46,1.23,13.48,1,6.45-.13,7.28-.17,8-1,2.7-3.1-3.27-9-.66-14.15,1.8-3.55,6.56-4.49,10.82-5.33,3.12-.62,8.93-1.76,12.32,1.33,1.5,1.37,1.61,2.75,3.32,3.33,2.76.94,5.77-1.51,6.16-1.83,2.83-2.3,4.78-6.76,3.33-9.82-.82-1.75-2.3-2.08-7.49-4.33-6.75-2.93-10.12-4.39-11.32-6-3.13-4.19-2.43-11.53,1.17-16.15a14.28,14.28,0,0,1,5.82-4.33c5.72-2.44,11.13-.62,13,0a15.93,15.93,0,0,1,6.32,3.5c1.61,1.51,2,2.62,2.5,2.5,2-.47-2.27-17.22,1.67-19,.43-.2,1.75-.56,5.49,2.66,6.17,5.32,6.93,10,10.65,16,7.06,11.27,14.24,10.07,16,18.65,1,5-1.23,6.35.5,11.15.62,1.71,1.88,4.24,10.49,11.32,8.9,7.31,10.49,7,13,10.82.67,1,5.79,9,2.83,14.81-2,4-5.69,2.56-13.31,8.49-4.56,3.55-4.3,4.89-9,8-3.24,2.14-6.58,4.36-10.82,4.5-5.68.19-6.24-3.56-12.15-4.66-6.71-1.25-12.58,2.35-23.14,8.82-4.65,2.85-7,4.32-8.16,6.66-3,6.12,1.75,11.42-1.5,15.65-2.44,3.18-5.63.8-11,4.66-2.67,1.93-2.2,2.75-8,9.65-3.3,3.93-5,5.89-6.83,7.33-5.11,3.9-6.84,2.15-11.65,5.82-2.69,2.05-2.06,2.54-8.49,9.16-3,3.07-4.49,4.61-5.66,5.16-5.09,2.38-7.65-1.36-12.82.66-3.62,1.42-6,4.66-8.66,8.33-2.47,3.4-1.75,3.62-3.32,5.16-4.45,4.33-9.58,1.93-12.82,5.49-1.45,1.59-1.57,3.94-1.83,8.66a45,45,0,0,0,2.83,18.48,54.6,54.6,0,0,0,5.32,9.82c1.93,3,2.3,3.21,8.16,11.15,5.06,6.85,5.39,7.55,7.16,9a22.3,22.3,0,0,0,10.15,4.83c4.49.78,8-.23,14.32-2.17,8.19-2.49,8.08-4,13-4.66,6.5-.9,7.08,1.66,14.32,1.33,2.2-.1,4.4-.44,17-4.82,5.22-1.83,7.84-2.74,12.48-4.5,18.78-7.11,25.16-4.9,46.45-12.32,8.53-3,12.8-4.46,18-7.16C1238.18,882.32,1242.47,879.36,1245.65,877.57Z"/><path d="M1418.8,910.4c-10.07,3.73-10.07,3.84-12,4.33-6.55,1.66-7.57.58-12.82,2.5a31.89,31.89,0,0,0-9.15,5.16c-3.42,2.65-6.82,5.29-6.33,8.15.44,2.55,3.73,3.83,4.16,4,3.38,1.31,6.63-.14,9.66-1.5,3.38-1.52,6.46-2.9,7-5.49.71-3.49-3.84-5.95-2.83-8,.79-1.59,3.84-.72,10-1.83,5-.91,4.27-1.71,7.32-2,6.73-.65,9,3.36,15.15,2.16,1.44-.28,4.25-.82,5.33-3,1.18-2.39,0-6.08-2.33-7.5C1430.15,906.3,1428.21,906.91,1418.8,910.4Z"/><path d="M2035.88,1399.14a42.09,42.09,0,0,0-15.48,3.49c-4,1.55-6,2.36-7.83,4.5-2,2.34-4.62,7-3,9.49,2.56,3.84,12.4-2.54,20,2.66,2.61,1.8,1.62,2.68,6,7.16,4.06,4.16,8.15,8.35,12.81,8.16,3.75-.16,3.7-3,11.16-7.66,7.1-4.47,10.08-3.76,12.15-7.49,2.43-4.39.59-9.46.33-10.16a14.15,14.15,0,0,0-6.66-7.32c-4.92-2.63-7.51-.37-18.31-1.33C2040.17,1400,2040.68,1399.07,2035.88,1399.14Z"/></g></g></svg>