<svg xmlns="http://www.w3.org/2000/svg" viewBox="0 0 2255.29 2497.92"><g id="Layer_2" data-name="Layer 2"><g id="Mauritania"><path d="M24.07,1214.38a137,137,0,0,0-5.82,12.77A141.83,141.83,0,0,0,12.12,1247c-6,24.8-7.76,23.16-10,36-3.7,21.13-1.69,40.75-.16,40.86.5,0,1.14-2.56,2.42-7.75A141.07,141.07,0,0,0,7.27,1301c1.75-13.56.25-15.26,2.42-22.94,1-3.66,1.2-2.66,4.36-10.66A232.72,232.72,0,0,0,22.29,1242c2.48-9.37,2.92-15.58,3.56-15.51s.71,4.85.32,9-1.06,5.22-1.29,8.39a28.59,28.59,0,0,0,1.29,10.34c1.22,4.37,3.21,7.49,11.79,18.26,10.48,13.14,13.49,16,13.73,20.83a41.92,41.92,0,0,0,1,8.08,30.58,30.58,0,0,0,2.1,6.62c2.46,5.1,5.55,5,9.69,9.69a30.78,30.78,0,0,1,6.62,14.06c1.46,6.53-.43,7.33,1.3,12,1.27,3.4,2.1,2.47,10,11.79,3.34,3.94,5.76,7.14,10.5,9.21,2,.86,3,1.31,3.88.81,2.76-1.64-1.72-10.37-1.13-23.59.06-1.5.58-11.71,3.23-12.11,1.08-.16,2.3,1.72,4.68,5.49,2.65,4.19,4.53,7.16,5.66,11.79a22.86,22.86,0,0,1,.8,8.24c-.4,3.85-1.85,6.75-1.45,6.95.55.26,2.39-5.63,5.65-6s6.61,5.42,7.92,7.75c2.88,5.16,3.43,9.16,4.68,14.7a142.85,142.85,0,0,0,5.17,17.45c4.05,10.71,6.84,18.07,12.6,20.35a16.06,16.06,0,0,1,6.78,4.2,16.24,16.24,0,0,1,2.59,4,22.86,22.86,0,0,1,2.91,9c.08,1.24.49,7-3.07,11.63s-7.78,3.64-8.72,7c-1.16,4,4.94,5.85,5,12.76,0,2.73-.9,4.85.16,8.56.68,2.37,1.24,2.13,1.46,3.56.57,3.69-3,6-7.92,13.56-3.82,5.9-3.36,7.14-3.07,7.6,1.33,2,6.43-.57,8.56,1.77,1.32,1.44.34,3.46-.8,9-2,9.79-.8,12.44-3.72,18.74a24.82,24.82,0,0,1-2.26,4c-2.73,3.91-5.46,5.25-7.91,7.43-1.43,1.26-2.24,2.35-6.63,10.49-6.52,12.13-5.68,11.49-8.88,17.13-4.66,8.19-7.44,11.29-7.92,17.6-.09,1.25-.41,5.58,1.3,6.3.35.15,1.88.61,7.26-5.65,7.72-9,8.69-14.7,15.35-18.09,1-.51,4-2,5.17-1,1.81,1.65-2,8.43-2.91,10.18a49.47,49.47,0,0,1-11.14,13.24c-5.12,4.46-7.68,6.68-11.63,7.92-8.35,2.6-14.49-1.36-16,1.13-.52.86-.29,2.18,5.66,10.82,5,7.34,7.66,11.1,11.63,15.18a101.7,101.7,0,0,0,8.72,7.76c3.2,2.73,13.68,11.66,21.48,23.1,5.72,8.37,8.31,15.6,11,23.09,3.9,10.92,5.59,20.27,7.27,29.56,2.36,13.11,1.3,12.75,3.23,19.71,4.07,14.72,7.87,13,10.17,24.88,1.49,7.66,1,14,5.66,22.29,1.35,2.39,1.71,2.42,2.42,4.2,2.87,7.12-.82,11.77-1.13,21.32-.07,2.09.6,6.08,1.94,14,1.6,9.56,2.61,13.17,3.55,18.26a139.31,139.31,0,0,1,1.62,35.21c-.56,9.15-1.27,7.58-2.75,21.48-1.91,17.94-.87,21.69-2.42,36.19a243.83,243.83,0,0,1-5.17,29.56c-2.64,11.78-5.52,24.38-11.79,39.57-4.45,10.77-4.71,8.56-10.5,21.65-7.73,17.44-7.38,21.6-15.67,42.16-6.35,15.73-6.38,12.87-11.15,25.52-5.4,14.35-5.2,17.61-12.11,37.31-5.5,15.67-6.1,15-7.59,21.65-3,13.34-.58,16.22-3.72,29.72-2.56,11-4.85,12.06-6.94,22.29-2.92,14.26.28,8.54-1.3,23.91-.11,1.07-.39,3.69,1.13,5s4.6.73,6.47-.16c4-1.9,4-5.36,7.26-9.37,4.4-5.37,7.61-3.11,11.64-7.43,5.09-5.47,1-10.2,5.65-24.07,1.9-5.64,2.56-4.79,5.65-13.24,3.43-9.38,2.95-11.36,5.49-13.25,5.43-4,11.89,1.79,17.29-2.58,3.52-2.86,3.18-7.3,6.78-8.08,1.88-.41,3.62.45,5.33,1.29,1,.52,3.39,1.83,6.3,5.66,4.08,5.36,3.15,7.63,5.49,8.56,2.85,1.13,4.45-2.15,10.34-2.26,3.61-.07,3.57,1.15,6.79,1,4.52-.26,5.66-2.73,11-4.36a27.12,27.12,0,0,1,9.05-1,40.69,40.69,0,0,1,14.37,2.74c7.1,2.85,7.21,5.43,12,5.66,1.64.07,4.48-.71,10.17-2.27,2.76-.75,4.21-1.26,5.49-2.58,2-2,1.2-3.58,2.59-4.85,3.16-2.86,9.37,3.14,14.38.65,2.73-1.36,1.74-3.58,6.29-9,2.21-2.64,5.44-6.53,7.76-5.81,2.83.87,1,7.61,5.17,10.5,2.9,2,7,1,9.69.32,4.28-1.06,4.42-2.57,9.85-4.52,3.42-1.23,6.14-2.21,9.53-1.78,4.44.56,4.8,2.85,8.24,2.75,4.08-.12,4.32-3.37,9.21-4.52,5-1.2,6.88,1.77,10.82,0,2.56-1.16,5.22-4,5.17-6.79,0-2.64-2.43-3.56-2.26-6.62.07-1.34.66-3.53,1.94-3.88,2.07-.56,3.35,4.43,8.4,6.62,3,1.32,7.42,1.62,8.88-.32,1.76-2.34-2-6.22,0-9a4.62,4.62,0,0,1,5.17-1.62c3.1,1.48.81,8.1,4,10,1.84,1.09,4.46,0,8.24-1.46,4.79-1.91,5.54-3.64,7.59-3.23,2.91.58,2.47,4.3,6,6.46,2.81,1.73,4.66.31,12.28.16,5.62-.11,5.64.65,12.76.81a115.42,115.42,0,0,0,12.6-.48c12-.92,14.77-2.32,20.35-.65,3.15.94,2.78,1.54,6.14,2.42,5.53,1.45,10.34.85,14.22.33,8-1.09,10.3-3.09,12.76-1.3,1.92,1.41,3.79,5,4.36,6.14,1,1.88,1,2.4,1.78,3.07,2.1,1.71,4.3,0,6.78,1.46,2.13,1.22,1.4,3,3.39,4.68,2.8,2.37,5.91.31,9.53,1.45,4.18,1.32,3.79,5.23,8.72,12.12,6.28,8.75,9.54,6.12,15.83,15.18,2.5,3.6,3.93,6.8,7.6,7.92,2.14.65,3.84.22,6.78,1.61a11.08,11.08,0,0,1,4.52,3.39c2.42,3.33,1.87,7.88,1.46,11.31-.51,4.17-1.56,5.76-.49,6.95s2.85.11,6.14,1.29a14.06,14.06,0,0,1,4.85,3.23,22.91,22.91,0,0,1,4.84,6.3c3.88,7.2,2.2,11.4,5,12.76,1.94.94,4.31-.3,7.75-2.1,3.08-1.6,4-2.93,9.7-6.78,3.36-2.3,4.3-2.7,5.33-2.43,1.87.5,2.84,2.93,4.2,6.3,1.56,3.9,1.39,5.61,3.23,6.95a6.5,6.5,0,0,0,3.55,1.13c2.56.15,4.2-1.07,7.27-2.75,4.3-2.35,6.45-3.52,8.4-3.71s4.55.79,9.85,2.74,6.08,2.65,8.24,2.43c3.45-.35,4-2.47,6.3-2.1,2.56.41,2.71,3.12,6.95,7.59,3.57,3.77,4.43,2.86,6,5.33,2.52,4,.36,6.73,2.1,11.95,1.24,3.73,2.81,3.79,6.46,8.89,2.24,3.12,6.16,8.58,7.43,15.5,1.6,8.65-2.32,12,1,16.8.23.33,2.68,2.38,7.59,6.46s6.21,5.16,6.14,6.63c-.12,2.89-4.93,3.11-6,6.94-.81,3,.94,6.94,3.71,8.56,3.68,2.16,6.19-1.56,12.28,0,3.22.83,5.56,2.65,9.2,5.5,2.65,2.06,4,3.09,4.37,4.36,1.28,4.19-3.91,7.76-2.27,11.14.51,1,1.42,1.56,3.24,2.59a16,16,0,0,0,6.29,1.94c8.56.92,12.06-2,14.87.16.56.43,1.15,1.11,2.26,7.43,1.93,11.05,1,13.75,3.39,15.83s4.56.36,8.4,3.23a14.27,14.27,0,0,1,4,4.84c.44.83,3.7,7.16,1.13,10.5-1.64,2.13-4.42,1.5-4.69,2.91s2.17,2.49,6.46,6.14c1.52,1.28,2.91,2.69,4.37,4,10,9.24,9.76,11.27,14.86,14.21a37.79,37.79,0,0,0,11.3,4c5.73,1.22,7.07.3,10.66,1.78,4.11,1.68,3.56,3.36,9.86,8.56a63.79,63.79,0,0,0,14,9c4.25,2,5,1.65,6.14,3.07,3.36,4-.61,8.61,1.78,15.35,2,5.53,6.83,8.68,8.88,10,4.29,2.78,5.48,1.59,12.92,5.66,3.53,1.92,7,4.27,7.43,4.52,2.7,1.8,3.26,2.35,4.36,3.07,4.43,2.88,9.28,3,18.1,3.07,8.13.08,9.94-.82,12.43,1a34.8,34.8,0,0,1,5.82,5c1.09,1.29,1.44,2,2.26,2.1,2.11.3,2.89-3.86,6.14-6.29,5.12-3.85,10.28,1.16,15.83-2.43,3.71-2.39,2.1-5.07,6.62-9s7.14-2.19,11.15-5.82c2.64-2.38,3.75-5.79,6-12.6a55.21,55.21,0,0,0,3.07-14.37c.44-6.31.67-9.75-1.45-13.09s-4.84-3.64-5.17-6.46c-.36-3,2.59-3.85,3.23-7.91.61-3.87-1.77-5-2.1-9.21-.27-3.48,1.22-4.71,4.85-12.28a144.46,144.46,0,0,0,6.46-16.15c1.3-4,2-7,3.23-12.12,2-8.4,2.25-11.39,4.36-17.12,2-5.48,3.08-8.25,5.49-9.37,4-1.86,6.68,2.14,12.28.49,2.41-.71,2.14-1.52,8.56-5.49,4.83-3,4.81-2.43,6.78-3.88,6.58-4.83,5.24-9.94,10-12.6,5.37-3,12.48.46,14,1.29,2.43,1.28,4.89,3.29,11.47,14.38,6.94,11.7,5.9,11.94,8.56,15.83,7.75,11.33,15.93,10.89,30.37,23.58,6.62,5.82,4.24,5.89,12.11,12.76,9.82,8.57,13.14,7.8,18.26,14.86.65.9,3.81,5.36,8.72,12.12,2.68,3.7,4.06,5.55,5.49,5.49,2.68-.1,3.63-5.12,7.92-14.54,4.38-9.61,6.56-14.42,11.46-18.73,2.07-1.83,2.93-2.08,8.89-6.95,6.54-5.34,7.54-6.7,7.75-8.4.63-4.88-5.76-8-4.68-10.34,1-2.14,7.06-1,14.37-.32a228.87,228.87,0,0,0,23.75.64c15.51-.26,15.53-2.83,26.49-1.93,8.55.7,7.61,2.18,19.55,3.55,12.17,1.39,13.8-.08,20.19,2.26,7,2.56,7.57,5.26,14.86,7.11a39.33,39.33,0,0,0,13.73.81c7.9-.71,11.65-2.92,18.25-5,8.2-2.6,7.63-.83,27.95-3.72,17.82-2.53,17.79-3.82,27.13-4,10.43-.24,21,.64,21,.64,10.8.91,16.91,2.31,18.74-.64.76-1.23.08-3.79-1.29-8.89-.35-1.28-.94-3.34-3.23-9.85-2.23-6.3-2.43-6.52-2.59-7.92s-.7-6.1,1.94-10.33c2.5-4,5.15-3.14,10-8.08,4-4.06,4.29-6.78,5.82-6.62,3.73.37,4.8,16.93,4.85,17.76a76.69,76.69,0,0,1-1.62,20.84l707.66-1L2166,2189.7l-49.27-29.88L1938,476.35l317.25-.16L1549.72,0l.49,270.08-615.59,1.45q-.09,259.66-.17,519.32L864.19,818l-36.67,7.91-97.89,69.46q-3.55,18.25-7.1,36.51l14.37,53.79,11.79,226.63Z"/><path d="M126.52,1508.81c-4.55-.23-7.74,6-8.36,7.27-1.89,3.73-.75,4.78-2.67,10.79-1.87,5.85-3.19,5.58-3.51,9.08-.34,3.68,1.1,4.2,2.3,11.39.91,5.38.49,7.37,1.58,7.75,1.79.64,5-4,7.87-8.24a42.27,42.27,0,0,0,5.82-10.66c.66-1.88.38-1.58,2.18-10.66,1.53-7.72,2-9.2,1.09-11.39C131.84,1511.74,129.45,1509,126.52,1508.81Z"/><path d="M104.27,2225.89a10.19,10.19,0,0,0,6-2.1c1.79-1.22,1.86-1.9,2.34-1.78,2,.49-.16,12.1-.89,16-.36,1.92-.71,3.5-1.86,4-1.83.74-4.55-1.8-5.89-3.55-3.54-4.62-3.58-11.75-1.54-12.68C102.89,2225.51,103,2225.84,104.27,2225.89Z"/></g></g></svg>