<svg xmlns="http://www.w3.org/2000/svg" viewBox="0 0 1837.14 2784.73"><g id="Layer_2" data-name="Layer 2"><g id="Mauritius"><path d="M1199.06,671.37c2,3-4.5,12-6.77,15.16-1.74,2.4-2.88,3.62-2.42,4.52,1.19,2.33,10.48-2.62,14.19,1,3.16,3.05-1.26,8.86,2.26,12.9,2.4,2.76,5,.71,10.8,4.68,4.23,2.89,5.26,5.65,5.49,6.29.61,1.76.15,2.12.8,3.22,1.63,2.77,5.27,1.8,9.68,3.87,3.12,1.47,2.23,2.39,7.26,6.29,4.46,3.46,7.22,5.6,10.64,5.32,1.23-.1,3.42-1.41,7.74-4,4-2.4,5.94-3.6,6.45-4.35,3.12-4.61-1.33-9.82,1.61-13.07,1.87-2,5.76-2.27,8.07-1,.57.32,1.48,1,4.68,7.9,1.93,4.19,2.14,5.12,3.38,5.81,2.4,1.32,4-.86,6.94,0,2.37.69,2.73,2.55,7.09,8.87,2.91,4.21,4.36,6.31,6.13,7.58,2.52,1.8,5.16,2.3,10.32,3.22,8.13,1.45,10.76.43,13.07,2.9,2,2.11,1.28,4.17,3.22,5.16,2.24,1.15,4.32-1,8.23-2.25,3.22-1,9-.12,20.32,1.77a74.07,74.07,0,0,1,8.71,1.77c2.26.66,11.91,3.47,11.77,6.46-.11,2.24-5.66,2-6.77,5.8-.73,2.42.7,5.45,1.93,8.07,1.08,2.3,1.47,2.17,1.77,3.38,1.07,4.31-3.08,8.86-4,9.84-5,5.24-9.8,3.87-10.64,7.1s3.24,8.44,7.42,9.19c1,.18,1-.06,1.61.16,3.4,1.33,1,9.7,2.1,23.22.52,6.66,1.45,9.08-.33,10.81-3.33,3.25-10.64-1.39-12.13.87s3.83,11.32,11.65,13.8c3.1,1,5.09.48,7.9,2.42a14.5,14.5,0,0,1,5.16,7.42c2.88,8.14-1.92,10.89.16,20.65a40.29,40.29,0,0,0,4,10.8c2.14,3.65,3.48,4.27,3.87,6.77a10.66,10.66,0,0,1-5.81,10.81c-4.28,1.94-8.61-.18-10-1-6.06-3.45-6.28-10.4-8.22-10.16-2.33.29-5,10.54-1,14.68,1.83,1.88,6.28,3.76,9.19,5,1.81.76,2.4.91,2.74,1.61,1.15,2.33-3.26,5.07-5.8,11.45-1,2.53-2.94,7.38-.81,10.48,1.92,2.79,6.36,3,10.16,3.23,5.73.3,9.13-1.14,9.68,0s-2.69,2.85-5.32,8.22c-1.64,3.35-1.4,4.75-1.13,5.49.48,1.34,1.42,1.63,3.55,3.38a28.94,28.94,0,0,1,5.16,5.49,17,17,0,0,1,2.58,7.42c.62,4.82-1,6.62.32,10.16a10.93,10.93,0,0,0,2.58,3.87,9.05,9.05,0,0,0,3.23,5.8c1.14.84,1.53.56,2.58,1.29,3,2.15,4.43,7.89,2.41,11.29-1,1.75-2.72,2.48-2.41,3.39.22.68,1.25.55,2.74,1.13,3.18,1.24,2.9,3.6,5.8,4.84,2.15.91,2.73-.19,4.84.8,2.43,1.15,2.23,2.87,4,4,3.78,2.44,8.5-2.69,11.61-.64,2.47,1.62.1,5.22,3.39,10.64a29.68,29.68,0,0,0,4.68,5.49c1.88,1.88,2.49,2.16,4.84,4.51a33.13,33.13,0,0,1,4.19,4.68,27.78,27.78,0,0,1,3.23,6.29c1.36,3.73.92,4.89,2.09,5.64s2.28.28,7.1-1.45c6.93-2.49,8.48-3.13,10-2.42,2.15,1,2.69,3.93,2.9,5,.81,4.21-1.27,8.58-4,11.29-2.06,2-3,1.63-11.61,6.13-3.89,2-5.49,3-5.33,3.55.37,1.18,9.18-2.62,13.55,1.29,1.66,1.49,2.14,3.6,2.74,6.29s.41,4.57.16,9.35c-.54,10.35,0,11.26.49,11.77,1.29,1.47,2.65.92,11,1.46,6.72.43,3.26.62,14.2,1.77,4.27.45,6.29.57,6.93,1.93,1.1,2.35-3.3,5.33-2.42,7.1,1.63,3.25,17.74-4.09,22.26,1.45,1.41,1.74.43,3.19,2.09,5.16,3.22,3.82,10.45,2.63,13.07,2.26,19.84-2.77,41.29,5,45.64,6.61a61,61,0,0,1,20,11.29c9.42,8.17,15.63,19.12,20.16,27.1,2.54,4.48,2.26,4.55,4,7.25,4.75,7.28,8.74,9.82,15,18.87a26.29,26.29,0,0,1,2.9,5c.53,1.28,3.93,9.36.64,13.07-1.94,2.19-4.42.8-7.9,3.7a13.06,13.06,0,0,0-3.22,4.2c-2.87,5.42-1.7,10.58-1.78,17.09-.06,4.64-.16,12.64-4.51,19.84-1.11,1.83-4.69,7.58-11.45,10.32-4.6,1.87-6.52.66-16.45,1.13-4.43.21-17.81.84-18.23,3.71s13.53,5.36,13.55,10.64c0,2.79-3.85,5.18-6.45,6.13-6.33,2.33-10-2.09-16.77-1.29-7.59.9-15,7.8-14.2,11.94,1,5.12,15.29,9.2,24.19,4.35,4.56-2.48,4.24-5.41,10.49-9.68,3.12-2.13,10.45-7.14,15.64-4.67,5.86,2.78,7.17,14.23,3.55,22.09-2.3,5-7.21,9.87-13.23,11.13-6.25,1.31-10.8-1.88-12.25.16-1,1.44.87,3.51,4.19,10.64,4,8.48,4.06,11.5,6.29,11.94,4,.78,8.21-8.15,10-7.26,1.2.6-.57,4.69-.32,11.29.15,4.27,1.21,11.15,3.38,11.45s5-6,6.62-9.67c2.63-5.92,2.44-8.23,3.87-8.55,2.45-.55,4.52,6,12.58,17.09,4.35,6,4.75,5.49,10.8,13.71,5.18,7,6,9,6.94,8.71,2.35-.73,1.78-15.79-5-27.26a57.64,57.64,0,0,0-6.78-9.19c-5.11-5.44-8.33-6.26-8.06-7.9.55-3.38,15.41-7.23,27.09-1.45,10.44,5.17,16.37,17,16.94,18.22,3.23,6.67,3.57,12.1,8.22,13.87,1.79.69,3.07.39,9.84,1.94,4.32,1,4.8,1.34,5.16,1.77,2,2.41-.75,5.9-1.61,14a36.65,36.65,0,0,0,.16,9.84c.75,4.56,2.26,6.75,5.16,12.58a158.59,158.59,0,0,1,8.39,20.48c3,8.61,3.05,10.87,2.42,13.06-1.31,4.51-4.42,5-5.33,9.52-.85,4.25,1.09,8,3.23,11.93s4.76,7.36,10.32,12.74c11.7,11.32,14,9.67,18.55,16.61,2,3.1,3.15,5.92,7.42,12.1,3.77,5.47,5.28,6.76,7.25,7.42,2.32.77,4.11.29,8.07,1.77a15.34,15.34,0,0,1,3.71,1.78c4.5,3.15,5.41,8.89,5.48,9.35.79,5.43-2,8.78-.16,10.48,1.23,1.14,2.73-.12,4.19,1,2.52,1.89-.71,6.57,1.29,11.45,1.31,3.19,4.26,4.92,10.16,8.39,5.07,3,6,2.37,7.35,4.3,2.79,3.92-.31,7.23,2.81,11.5a49.55,49.55,0,0,0,5.32,5.16c1.24,1.13,2.21,2,2.75,2.42,3.45,3,5.18,4.45,9.51,7.91,9.74,7.76,14.61,11.65,16,15,3.3,8.16.21,19.72-5.65,22.74-1.83,1-3.3.73-4.35,2.26-2.33,3.38,2.24,8.19.32,11.77-1.15,2.14-4,2.67-8.22,3.23-12.82,1.69-16.41.8-23.87,1.94-4.58.69-11,1.66-17.58,5.48-4.67,2.69-5.65,4.58-12.26,7.9-2.3,1.16-4.49,2.08-4.35,2.9.29,1.72,10.1-.64,14.83,4.68.24.26,2.63,3,1.78,4.68-1.66,3.24-13.08-2.53-16.61,1.61-2.51,2.94-.89,10.71,4.19,13.39,2.18,1.14,5.57,1.66,8.06.16s2.28-3.85,4-4.2c2.07-.41,3.35,2.73,7.41,6.13,1.74,1.46,5.94,5,11.13,5.49,6,.57,9.32-3.24,10.81-1.78,2.11,2.08-3.5,10.86-4.2,11.94-3.76,5.82-6.66,6.09-12.09,12.74-4.2,5.13-6.32,7.73-5.65,10.48,1.09,4.4,7.92,3.28,12.58,9.68a18.09,18.09,0,0,1,3.07,12.09c-.59,5.85-4.75,6-8.71,14-1.95,3.95-2.7,7.53-4.19,14.68-2.13,10.18-1,11.19-3.07,14.84-3.39,5.86-7.64,5.37-10.64,10.32-3.2,5.26-4,13.58-.16,18.06,4.62,5.46,14.61,3.51,14.83,5.64s-9.73,3.08-10.64,7.75c-.73,3.73,5.19,5.39,5.64,10.8.55,6.46-7.25,11.92-9.35,13.39s-7.55,5.28-14.35,4.67c-9.52-.84-15.54-9.72-17.58-12.74-8.07-11.89-5.34-22.81-13.87-27.41-1.59-.86-3.72-1.58-4.19-1-1,1.22,6.59,5.5,8.38,13.06.95,4-1.25,9.45-5.64,20.32-1.72,4.24-3,6.68-5.49,8.71-2.82,2.3-4.48,1.84-6.77,3.87-3.1,2.75-5.23,8.15-4,12.26,2.07,7.07,12.36,4.61,20.8,14,4.71,5.25,6.27,11.32,7.42,15.8a46.73,46.73,0,0,1,1.13,17.42c-.87,6.79-2,15.8-8.55,20.81s-11.36.39-19.83,5.8c-.56.36-9.46,6.22-11,16-.52,3.36.44,3.31,1.77,13.71,1.91,14.81.27,17.31-.64,18.38-2.75,3.21-6.28,2-8.23,5.49a9.09,9.09,0,0,0,.81,9.35c1.86,2.43,4.39,2.51,13.39,3.87,8.83,1.34,14.66,2.52,20.15,6,2.17,1.35,3.72,2.71,3.87,4.51.28,3.27-4.24,5.89-4.67,6.13-3.9,2.19-7.62,1.4-12.9.81-6.5-.73-12.13-.54-23.39-.16-11.62.38-13.87,1.6-14.19,2.9-.38,1.55,2.17,2.49,4.19,7.42a20,20,0,0,1,1,12.58c-2.47,11.27,1.37,16.17-3.06,23.06-1.76,2.73-3.89,4.32-6.29,6.13s-6.46,4.84-12.1,5.64c-3.14.45-6.07-.13-11.93-1.29-7.23-1.43-7.2-2.29-10.65-2.42-5.79-.21-6.22,2.21-13.87,3.55-8.41,1.48-13.18-.53-15.16,2.42-.83,1.24-.43,2.35-.32,5,0,0,.16,3.75-2.1,13.55-1.72,7.5-6.51,11.18-17.41,26.28-8.74,12.1-7.77,12.64-13.55,19.2-7.23,8.2-7.43,5.86-15.81,15.16-5.3,5.88-8.27,10.2-12.41,9.83-2.77-.24-2.75-2.27-6.94-3.54-2.09-.64-2.38-.22-12.26.32-5.2.28-6.51.24-7.74,1.45s-1.42,3-3.54,4.35a11.71,11.71,0,0,1-2.91,1.13c-3.16,1.15-4.49,3.26-6,4.52-4.55,3.87-14.38,3-16.29-.65-1.26-2.38,1.8-4.23,1.45-9.19-.12-1.69-.62-3.45-4.68-9.51-4.68-7-7-10.51-9.68-12.42-4.21-3.05-8.22-3.74-13.7-4.68-7-1.21-15.91-2.74-18.39,1.29-1,1.67.62,3.29,4.68,14,.84,2.24,1.5,4.09,1.93,5.32q.24,26.13.49,52.26c-2.22,6.07-5.3,9.13-7.74,10.8s-3.93,1.73-5,3.55c-2.51,4.26,2.64,9,.8,11.93-2.84,4.45-18-2.54-20.32,1.46-1.06,1.81,1,5.09,2.58,6.77,3.58,3.73,7.17,1.7,11,4.35,6.17,4.31,2,13.32,7.9,17.58,1.54,1.11,2.11.71,13.39,1.61,8.07.65,12.13,1,13.54,1.62,9.16,4.06,12.16,16.16,12.75,18.54.69,2.8.78,6.86,1,15,.15,6.55,0,13.52,0,14.68-.23,12.27-.78,15.07,1.45,16.93,2.49,2.07,7.13,1.9,9.36-.16s.62-4.53,2.9-7.74c1.84-2.59,5.62-4.84,8.71-3.87,3.65,1.15,5,6.39,5.16,9.35.2,3.75-1.44,5-.48,7.42s3.38,3,6.61,5c6.34,4,4.63,7.07,10,10.81,6.81,4.74,13.14,2.25,15.16,6.61.67,1.44.13,2.07-.16,5.8-.65,8.2,1.49,10.65,1.29,17.26a33.79,33.79,0,0,1-3.07,12.58c-3.61,8.66-6.69,7.44-13.22,18.71a80.89,80.89,0,0,1-8.07,12.42,21.88,21.88,0,0,1-4.83,4.83c-4.14,2.79-10.71,5.1-13.07,2.75-2.54-2.54,1.58-8.7-.64-10.33-1.61-1.17-4.14,1.77-10.81,3.23a21.9,21.9,0,0,1-9.19.48c-3.44-.66-3.61-1.82-11-5.8-6-3.25-6.2-2.64-10.16-5.16-4.19-2.67-5.92-4.6-6.77-4-1.7,1.13,3.41,10.13,1.77,11.28-2,1.4-10.46-11.09-15-9.19-3,1.24-3.17,8.1-1.94,12.58.57,2.07,1.54,5.61,4.52,6.94,4,1.8,9.31-1.61,10.32-2.26,2.77-1.8,3-3.15,4.35-3.07,2.93.19,5.57,7,5.48,12.91a22.57,22.57,0,0,1-4.35,12.41c-5.34,8.09-12,5.76-15,11.94-3.1,6.43,1.87,12.35-1.77,15.64-1.35,1.22-4.12,1.19-9.68,1.13-8.64-.09-11.51-1.57-14.19.65-1.38,1.14-1.62,2.36-4,4s-3.11,1.08-4.2,2.09c-3.15,2.95,1.19,9.18-1.61,14.68-.39.77-.46.6-4.84,4.52-3.26,2.92-7.15,6.39-10.8,10.16-5.59,5.75-4.58,6-6.94,7.41-5.21,3.25-7.17.45-12.74,3.71-4.22,2.48-5.15,5.28-9.51,6-2.35.37-3.56-.21-4.2.65-1.32,1.78,1.48,7.71,6.13,10,5.82,2.86,12.28-1.08,12.9.32s-4.43,4.94-8.7,7.26a56.23,56.23,0,0,1-8.07,3.38c-4.08,1.51-8.16,3-12.25,4.52-12,4.39-11.8,5.83-25.65,11.29a45,45,0,0,0-8.22,3.87c-5.33,3.31-5,4.92-8.71,6.45-5,2.08-7.19-.21-12.26,1.93-2.26,1-2.78,1.83-6.77,5.33a147.08,147.08,0,0,1-16.61,12.41c-5.09,3.17-7.63,4.75-10.32,5.49-11,3-16.66-4-25.81,0-3.78,1.64-3.56,3.16-8.22,4.84-6.19,2.21-7.86,0-12.74,2.09-5.32,2.28-5.12,5.66-11.13,8.07-1.36.54-3.1,1.06-7.42,1.45-15.94,1.42-24.52-2.79-28.38,1.77-1,1.16-1.25,2.39-3.39,4.68a25.81,25.81,0,0,1-5,4c-7.61,4.43-14.91-1.93-20.8,2.58-2.22,1.7-2.09,3.29-5.49,5.48-1.35.88-2.19,1.15-6.45,2.75-8.64,3.22-7.93,3.11-9,3.38-5.23,1.28-7.28.12-9.84,2.1a8.89,8.89,0,0,0-2.84,4.11l-14.58-.72a6.94,6.94,0,0,0-3.06-3.07,6.34,6.34,0,0,0-6,0c-1.45.93-1.56,2.24-2.9,5.32a36.12,36.12,0,0,1-3.55,6.45c-2.79,3.7-6.45,3.44-12.26,5.81-3.06,1.25-6,3.41-11.93,7.74-5.41,4-6.54,5.4-17.9,14.52-4.17,3.34-6.34,5-9.84,6.45-3.25,1.33-5.88,1.74-10.48,2.42-3.37.49-4.82.53-14.52,1.12-12.59.78-12.67.87-14.19.65-5.41-.8-7.74-2.51-10.32-1-2.07,1.24-1.64,3-4.19,6.61a20.32,20.32,0,0,1-7.26,6.62c-4.22,2.1-8.3,1.68-13.71,1.13-3.27-.34-5.29-.55-7.74-1.78-3.94-2-4-4.08-6.61-4.51-3.72-.62-4.54,3.39-9.84,3.71a18,18,0,0,1-8.55-1.78c-1.9-.93-2.5-1.69-3.54-1.45-2,.46-1.88,3.75-4,7.74a21.59,21.59,0,0,1-7.58,7.74c-2.82,1.58-5,1.65-10.8,2.1-4.41.34-10.85.83-15.81,1.45a123.41,123.41,0,0,0-19.19,4,44.76,44.76,0,0,0-7.09,2.42c-4.09,1.85-4.33,2.81-8.23,4.52a30.78,30.78,0,0,1-8.71,2.74c-3,.41-4.82.13-6.45,1.61-1.36,1.24-1,2.26-1.93,3.55-2.61,3.49-11,3.49-16.62-.16-3.16-2.07-2.21-3.21-6-6.13-5.47-4.26-8.18-2.36-11.61-6-3.65-3.82-2-7.41-5.65-9.51s-7.93-.29-8.22-.16c-1.71.71-2.14,1.49-6.78,6.29s-5.36,5.19-6,5.32c-3,.62-4.79-1.92-11-5.65-4.55-2.74-4.08-1.68-10.16-5-9.95-5.42-9.5-7.32-14.19-8.22-5.15-1-7.45.95-11.94-1.13-3.4-1.58-3.16-4.28-5.64-4.68-3.53-.56-4.64,4-9.84,5-3.38.63-3.72-1.16-9.84-1.45a33.19,33.19,0,0,0-8.87.81c-4.23.92-6,2.14-9.19,3.38-5.24,2-9.52,2.22-18.06,2.58-7.23.31-10.84.46-15.16-1-3.89-1.28-4.07-2.3-8.71-4s-6.62-1.47-13.71-2.74c-10.41-1.85-15.61-2.78-17.74-6-2.51-3.76.33-6.49-2.26-11.62-.65-1.28-1.88-3.2-10.32-8.38-9.3-5.71-14-8.57-18.55-9.52-3.24-.67-8.78-1.31-14.67-3.87a14,14,0,0,1-3.71-2.26c-3.18-2.72-3.32-5.5-4.68-7.74-3.89-6.43-13.22-1-26.77-7.9-3-1.52-5.74-3.4-8.06-2.26-2.15,1.06-1.7,3.58-3.71,7.42-2.24,4.27-4,3.52-9.84,9.68-5,5.26-4.73,6.94-8.55,9.19-1.08.64-1,.43-7.09,2.9-6.67,2.7-6.69,2.9-9,3.71-1.32.46-3.39,1.11-11.61,2.58-6.6,1.18-9.9,1.77-13.06,2.1-6.8.7-7.42,0-17.9.16-12.42.22-12.72,1.26-18.87.48a53.82,53.82,0,0,1-15.16-4.19,51.06,51.06,0,0,1-12.42-7.74c-3.82-3.31-3.15-3.85-6.93-7.1a47.14,47.14,0,0,0-12.91-7.74,35.27,35.27,0,0,0-10.8-2.9c-7.48-.62-10.61,2-15.16-.48-1.71-.92-2.7-2.12-4.68-4.52-4.68-5.66-4.26-8.87-7.26-11.45s-6.1-1.71-12.09-2.1c-2.58-.16-18.78-1.39-29.84-10.8-5.23-4.46-5.46-7.46-11.45-10.48-4.07-2.06-4.95-1.17-11.29-4-5.3-2.4-6.66-3.92-11.45-5.64s-6.87-.27-8.87-2.1c-1.73-1.58-2-4-1.77-9.84.41-10.82,2.11-22.65,2.89-28.08.55-3.85.83-5.86.5-5.94-.67-.18-4.34,7.29-6.13,16.28-1,4.85-.71,6.72-2.58,8.39-2.66,2.37-5.78.89-10.49,2.74-4,1.59-3.65,3.44-7.41,5.81-6.7,4.21-16.3,3.87-22.9,1.13-3.38-1.41-4.13-2.67-8.55-4-5-1.53-6.85-.8-9-2.26-4.08-2.73-3.88-9.78-3.87-13.39,0-5.7,1.58-8.5-.49-11.29-.73-1-1.53-1.44-4.19-2.74-8.82-4.32-9.33-3.92-11.13-5.16-4.23-2.92-2.32-5.79-7.74-15.16-1.26-2.17-.93-1.28-7.9-11.13-1.75-2.46-4.42-6.23-7.42-10.64-8.39-12.31-7.56-12.21-10.16-14.84-5.09-5.14-6.49-3.71-12.42-9.84a52.31,52.31,0,0,0-7.42-6.77c-2.56-1.89-3.85-2.83-5.48-3.39-4.37-1.48-6.43.65-13.87,1.13a55.53,55.53,0,0,1-10.32-.48c-4.26-.47-6.28-1-11.78-1.45-3.45-.27-5.71-.27-8.22.8a13.32,13.32,0,0,0-3.87,2.58c-3.78,3.63-2.4,6.68-5.65,12.42a31.32,31.32,0,0,1-6.61,7.9c-1.71,1.54-2.3,1.75-5.16,4.2-4.89,4.2-4.33,4.58-5.64,5-3.76,1.19-5.39-2.89-13.71-4.52-2.34-.46-3.27-.34-4.19-1.29-1.89-1.94-.48-5,0-10.48.64-7.47-1.43-8.31-.49-14,.58-3.53,1.56-4.42,4.36-10.49,3.61-7.84,2.66-7.83,8.06-21.44,2.21-5.58,3.62-9.13,6-14,3.31-6.93,4.09-7.36,6.93-13.54a116.55,116.55,0,0,0,6-15.32c2.21-7.26,1.88-9,4.35-14.2,2.12-4.43,2.72-3.87,4.68-8.38,1.44-3.32,2.32-6.4,5.16-10,1.26-1.6,1.91-2.4,2.74-2.58,2.92-.64,4.4,4.16,11.94,10.16.58.46,2.19,1.72,1.93,2.26-.37.77-4-1.34-6.93.16-1.74.87-2.51,2.59-3.23,4.19a18.36,18.36,0,0,0-1.29,7.74c.06,5.53,1.57,6.23,1.13,11-.23,2.43-.7,3-.16,3.87,1.18,1.85,4.74.93,11.93.32,3.16-.26,7.16-.34,15.16-.48,5.79-.11,9.19,0,10.16,0,6.18.16,9.26.24,12.26,1,1.66.4,4.39,1.45,9.84,3.54a30.44,30.44,0,0,1,5.48,2.42c2.32,1.45,2.74,2.35,4.36,2.58,2,.29,3.75-.77,5.16-1.61a14.21,14.21,0,0,0,3.54-3.06,30,30,0,0,0,4.84-7.91c4.25-10,16.23-16.64,16.77-16.93,4.56-2.46,7.5-2.69,9.52-6.13,1.15-2,.72-2.76,2.42-7.42,1.35-3.68,2.15-5.87,3.87-7.9,2.68-3.16,4.76-2.63,8.22-5.16,3.24-2.37,3.32-4.23,7.58-11.45,2.88-4.87,5.74-9.72,10-14.19,6.07-6.37,7.71-4.36,11.45-9,3.25-4.06,4.37-10.82,6.62-24.36.8-4.87,3-9.57,3.06-14.51,0-1.42,0-5.1,1.94-6.13,1.16-.61,2.15.17,3.06-.48,1.49-1.07.62-4.42.16-7.26a52.73,52.73,0,0,1-.16-11.93c.64-7.25,2.88-8.88,2.1-14.84a41.68,41.68,0,0,0-1.13-4.84c-1.54-5.8-2.31-8.7-4.36-11-2.39-2.65-4.41-2.51-4.51-4-.15-2.18,3.91-4.12,8.22-6.13a76.51,76.51,0,0,1,13.07-4.67c8.28-2.05,10.35-1.23,12.09-3.55s.34-3.77,2.26-10.16c1.27-4.22,2-4,2.26-6.29.54-4.57-1.74-10.3-6-12.74-1.38-.8-4.41-1.07-10.48-1.62-2.07-.18-4.25-.32-7.58-.8-5.45-.79-6.62-1.42-7.26-2.42-1.17-1.83.35-3.49-.81-5.16-.29-.43-1.23-1.54-6.93-1.61-5.51-.07-7.26.93-12.58.64a18.2,18.2,0,0,1-4.19-.48c-6.2-2-8.77-9.43-9.52-11.61-.92-2.68-1.2-4.87-1.13-14.2.15-18.64,1.35-20,2.26-20.64,4.34-3.18,10.49,2.53,17.26-1.61,2.69-1.65,1.81-2.61,4.83-4.52,5.1-3.2,7.31-.31,15.81-2.9,3.39-1,5.89-2.37,8.87-1.29,1.43.51,1.83,1.17,3.22,1.29,3.12.26,5.68-2.64,6.62-3.71,1.4-1.6,4.59-5.21,3.22-8.39-1.15-2.68-5-3.89-7.9-3.38-3.35.59-4.32,3.34-6.61,2.9s-3.56-3.89-3.71-4.36c-1.67-5.07,2.55-8,1.13-11.77-.87-2.29-3.77-3.39-9.52-5.48-9-3.3-10.8-1.89-14.67-4.68-3.39-2.43-5-5.66-7.42-10.32a33.88,33.88,0,0,1-3.55-9.68,29.48,29.48,0,0,1,.16-12.58c1.43-5.89,3.6-5.9,5.48-11.45,2-5.82-.07-6.78.81-17.09.42-4.91.82-4,3.07-17.1,1.91-11.21,1.53-11.37,2.58-13.22,3-5.25,6.31-4.33,16.12-12.1,6-4.73,5.34-5.55,10.65-9.19,6-4.12,7.36-3.43,12.25-7.09,7.4-5.54,9.11-10.69,11-10,2.52.93,1.36,11.14.48,18.87-.66,5.83-1.62,10.63-1,10.8.47.13,1.51-2.2,2.25-3.87,1.25-2.78,1.11-3.38,2.26-6.13,1.24-2.94,1.75-3.08,2.58-5.48a23.88,23.88,0,0,0,1.13-5c1.49-10.52.73-12.63,2.42-13.87,1.46-1.07,4.09-.34,9.35,1.13,6.51,1.81,9,3.66,10.49,2.42,1.18-1,1.12-3.49.16-5-2.08-3.28-8.59-2.33-10.16-2.1-2.32.34-2.82.87-6.13,1.29-2.84.36-3.06,0-5.16.32-5.28.71-7.47,3.17-8.55,2.26s1-3.47,1-7.09c-.08-5.88-5.74-10.24-7.74-11.78-4.53-3.49-5.87-2.09-16.61-6.29-11.58-4.52-14.7-8-16.29-11.12a16.7,16.7,0,0,1-1.45-4.52c-2.23-10.38-3.5-10.57-6.78-23.39-2.28-8.91-3.61-17.39-6.29-34.35-2-12.94-3.06-19.51-3.06-24.51,0-6.58.66-5.07,2.58-25.16,1.3-13.66,1.17-16.18,3.55-20.48,3.32-6,6-5.46,9.67-12.74,3.05-6,2.26-8.52,5.81-13.39,2.15-3,2.9-2.67,8.55-7.74,8.39-7.54,12.59-11.4,12.74-16.29.14-4.56-3.16-5.35-2.26-9.51.85-3.92,3.93-3.92,7.42-10.49,1.6-3,1.42-3.87,3.06-5.8,2.73-3.2,4.66-2.49,6.78-4.84,2.95-3.28.35-6,2.74-13.22,1.34-4.07,2.32-3.75,4.68-9.84,1.42-3.69,1.44-4.8,2.58-8.07,2.54-7.34,4.38-7,6-12.09a25.43,25.43,0,0,0,.33-14.84,85.55,85.55,0,0,0-4.2-9.67c-1.86-3.85-2.19-4-2.26-5.17-.22-3.76,3.13-5.12,7.26-11.61a45.75,45.75,0,0,0,4.36-9,39.82,39.82,0,0,0,2.09-12.09c.47-11.3,5.66-22.86,8.07-28.23,8-17.78,16.14-18.55,18.06-30.48.28-1.76.77-5.89,3.87-8.06,2.21-1.55,4.12-1,9.84-1.13a68.8,68.8,0,0,0,13.87-1.77c5.82-1.44,9.45-2.34,11-5.33,1.6-3.16-1-5.11.16-10.8.69-3.42,1.73-3.26,3.55-8.07,1.69-4.44,3.43-9,2.1-13.54-1.16-4-3.34-3.34-6.61-9-1.69-2.94-4.3-7.48-3.23-12.42.7-3.22,2.67-5.21,5.32-7.9,4.82-4.88,7.44-4.5,11.94-8.87,4.11-4,2.49-4.88,6.45-9,6.18-6.48,10.32-4.55,14.51-10.32,3.35-4.6,1.52-6.93,5.16-10,2.52-2.11,3.38-1,10.16-4.35,4.36-2.16,5-3.13,7.42-3.23,3.29-.13,4.81,1.57,6.78.49,1.65-.91,1.15-2.43,3.06-4.52,1.58-1.72,2.68-1.52,6-3.22,3.47-1.8,6.15-3.18,7.42-5.81,1.35-2.79-.39-3.86.64-7.9a16.78,16.78,0,0,1,4.84-7.74c3.59-3.59,5.2-2.6,8.87-5.49,6.74-5.29,5-11.55,11.13-14.19a61.18,61.18,0,0,1,6.93-1.29c3.88-.63,7-1,9.2-1.29,12.28-1.45,12.57-.55,16.61-1.93a38.54,38.54,0,0,0,8.87-4.52c3.27-2.27,4.42-3.88,7.9-5.64a26.46,26.46,0,0,1,6.61-2.26c10.81-2.45,14.6-8,28.39-11.94,9.65-2.72,10.91-.86,17.74-4.19,6.5-3.17,6.58-5.45,12.74-7.74a32.77,32.77,0,0,1,18.54-1.13,30.93,30.93,0,0,1,11,5c3,2.17,4.56,3.3,5.32,5.48,1.21,3.47-1,5.44.16,10.49.39,1.62,1,4,2.58,4.51,1.42.47,2.44-.84,6.13-1.93,2.46-.73,2.68-.35,3.87-.81,3.91-1.51,5.77-7.21,6.13-11.29.56-6.26-2.58-6.89-1.77-11.93.36-2.28,2.71-5.5,7.42-11.94,2.88-3.94,3.57-4.56,6-8.06,2.7-3.95,4-5.93,5-8.06,3.12-7,1.11-10.1,4-12.58,2.27-1.93,5.38-1.69,10.33-1.29a40.21,40.21,0,0,1,11.77,2.74c8.66,3.53,15.62,9.71,22.09,12.9a16.59,16.59,0,0,0,5.81,1.61c1.64.14,2.45.21,3.22-.16,3.25-1.56,3.11-8.33,3.07-10.32-.06-2.71-.5-2.88-.16-4.19,1.14-4.53,7.29-6.32,7.09-6.78-.27-.63-10.6,6-16.77,2.42-2.88-1.66-2.54-4.19-6.93-7.58-2.71-2.09-4.95-2.74-7.42-3.71-6.65-2.59-17.06-6.64-19.19-14a13,13,0,0,1,2.9-11.77c3.52-3.85,6.79-1.71,13.38-5,8.3-4.14,7.27-9.61,15.49-12.74,1.75-.67,7.18-2.74,12.41-.65,3.52,1.41,3.11,3.16,8.07,5.81,5.53,3,9.66,2.72,11.61,2.42.56-.09,4.13-.64,4.35-2.1.14-.88-1-1.47-3.38-4.51-.78-1-1-1.39-1.29-1.78-2.17-2.79-6.5-2.94-9.68-3.55-1.37-.26-11-2.21-13.38-7.9-1.06-2.47.14-3.52.32-9.67a58.8,58.8,0,0,0-1-11.29c-.39-2.91-2-14.91.48-26.94,1.57-7.62,2.84-5.89,6.46-19,1.86-6.76,2.09-9.31,4.51-13.22,1.55-2.51,4.55-5.2,10.48-10.48,6.2-5.52,10.61-9,13.39-11.13,4.27-3.27,6.46-4.94,9.35-6.45a63.38,63.38,0,0,1,10.49-4.2c2.7-.86,4.72-1.33,6.61-1.77a22.1,22.1,0,0,1,4.35-.81c3.11.09,5.43,1.88,7.74,3.71,1.63,1.29,1.65,1.6,5.81,5.81s4.66,4.43,5.16,4.68c4,1.89,8.09.5,9,.16,3.35-1.23,7.18-4.29,6.61-6.29-.49-1.76-4.22-2.22-5.8-2.42-3.26-.41-3.69.53-6.94.16a15,15,0,0,1-6.93-2.42c-1-.69-.94-.86-3.55-2.9a29.13,29.13,0,0,1-3.06-2.42c-1.75-1.93-1.55-4-2.1-5.81-1.15-3.87-4.9-4.68-9.52-8.06-4-2.93-6-5.89-10-11.61a52.74,52.74,0,0,1-8.07-15.81c-1.75-5.94-3.83-13-.16-17.9a14.19,14.19,0,0,1,6.61-4.68c3.17-1,4.27,0,7.42-1.29,2.59-1,4.17-2.66,6.13-4.67,2.46-2.53,3.69-3.8,3.71-5.49,0-1-.38-2.29-4.36-6.13-3.66-3.53-4.48-3.56-6-5.16-4.84-5.2-4.11-13.57-3.71-18.22a41.27,41.27,0,0,1,1.93-9.19c3.07-9.69,7.06-16.25,13.23-26.61,8.91-15,10.82-18.45,12.09-20.81,8.61-15.95,8.85-19.37,8.87-21.12.12-7.7-3.4-11.5-.64-18.07,1.47-3.49,3-3.8,4.68-8.38,1.83-5.15.71-7.24,2.09-11.13,1.66-4.67,5.26-7.29,8.87-9.84,7.64-5.4,11.56-4.25,26.29-9.51,10.54-3.77,8.71-4.43,16.29-6.62,8.11-2.34,12.48-2.24,15.8-6.29,1.56-1.88.89-2.25,3.87-9.35s3.95-7.45,5.49-11.61c2.18-5.91,1.1-7.52,2.58-15.65,1.08-6,2.12-11.72,5.48-17.57,3.24-5.65,7.32-9.11,14.84-15.49,5.42-4.6,7.26-5.29,11-9.51a86.5,86.5,0,0,0,7.41-10.32c2.85-4.34,3.28-5.46,3.55-6.62.87-3.71-.53-4.94,0-9.51.57-4.91,2.35-4.87,2.1-7.74-.41-4.68-5.11-4.84-8.39-11.29-2.34-4.62-.41-5.49-3.06-11-2.12-4.37-3.41-4-6.29-9.51a24.07,24.07,0,0,1-3.07-9.68c-.21-3-.33-4.86.81-6.13,3.67-4.07,16.36,2.14,16.93,2.42,5,2.48,5,3.9,10.16,6.13a39.8,39.8,0,0,0,11.13,2.9,57,57,0,0,0,18.55-.8c7.17-1.49,9.32-3.33,12.42-1.94,3.61,1.62,6.53,5.84,5.64,8.71-.8,2.59-4,1.79-7.42,5.48-1.95,2.11-1.46,3-4.51,8.87s-3.57,5.19-4.2,7.42c-1.53,5.5.89,13.12,5.81,15.81,2.75,1.5,3.54,0,11.29,1,4.31.56,4.25,1,11.13,2.26,5,.89,7.57,1.34,10.64,1.29a66.2,66.2,0,0,0,10-1.29c5.23-.88,5.75-1.25,6.13-1.61,2.27-2.16,1.88-6.18,1.29-12.1-.29-2.94-.44-4.41-1-5.16-2.88-4.08-9.65-.57-14.19-4.83a9.58,9.58,0,0,1-2.9-7.91c.67-4.76,5.64-4.9,7.09-10.16,1.22-4.39-1.81-5.89-.16-10.16,1.23-3.17,4-5.21,6.13-6.77,3.08-2.26,4.14-1.95,6.13-3.71,3.34-3,4-7.18,4.35-8.71,2-9.16,13.67-23.29,23.06-30.48,13.66-10.45,22.08-5.92,36.94-15.8,2.59-1.73,7.12-5.05,13.87-6.29,2.69-.5,4-.34,9.67-1.13,6.43-.9,7.11-1.43,10.16-1.78,9.09-1,16.92,2.07,20.65,3.55,4.63,1.84,6.43,3.37,12.74,5.32a50.32,50.32,0,0,0,6.93,1.78c11.38,1.86,14.73-3.74,24.35-1.62a49.25,49.25,0,0,1,10.16,3.23,17.72,17.72,0,0,0,4.2,1.77c2.76.67,4.07.06,7.58.16C1196.3,670.2,1198.3,670.26,1199.06,671.37Z"/><path d="M1142.61,485.43c-9.17,1-14.13-1.66-15.48.32-.81,1.2.27,3.26,1.94,6.45a29.54,29.54,0,0,0,5,6.77c4,4.21,8,8.48,11.61,7.58,1.73-.43,2.09-1.72,3.22-1.45,2,.48,1.3,4.67,4.36,8.71,1.4,1.85,4.16,4.43,6,3.71,1.61-.64,2.31-3.83,1.62-6.29-1-3.5-4.46-4.24-4.2-6.61.14-1.28,1.18-1.36,2.26-3.39.21-.39,1-1.92,1.13-5.48.09-2.25-.42-5-1.45-10.32-.74-3.85-1.13-5.8-1.94-7.1-1.12-1.81-3.55-4.58-5.16-4-2.18.74-.31,6.73-3.87,9.67C1147,484.45,1146.11,485,1142.61,485.43Z"/><path d="M1287.28,208.52c-12.62-5.33-13.21-6-15.16-5.48-3,.82-4.85,3.35-7.58,7.09-2.62,3.59-2.14,4.56-5,8.39-2.11,2.81-3.8,5.07-6.78,6.61-4.16,2.16-7.35,1.1-7.9,2.74s2.07,2.73,4,6.94a20.13,20.13,0,0,1,1.62,5.8c1.46,9-2.93,11.9-1.13,19.35a16.64,16.64,0,0,0,3.87,7.42c1.16,1.27,3.36,3.64,6.61,4.2,3.62.62,4.47-1.71,11.77-3.23,6.28-1.3,8.13-.09,8.87.65.94.91.67,1.58,1.62,2.25,1.37,1,3.05.38,8.7-1.45,5.46-1.76,6.66-2.09,8.87-3.22s3.18-1.63,4-2.58c2.23-2.48,2-5.63,2.09-9.36.29-12.5,3.63-14.49,1.13-19.51-1.58-3.17-2.91-2.36-4.84-6.29-2.09-4.26-.94-6.06-3.22-10.48a20.08,20.08,0,0,0-4.84-6.13C1292,210.48,1290.22,209.76,1287.28,208.52Z"/><path d="M1337,264.16c-1.68-.28-6.82-1.12-10.32,2.58-3,3.16-3.66,8.43-1.62,11.13,1.78,2.33,4.38,1.14,7.1,4.35,1.25,1.47,1.47,2.63,3.23,3.71.52.32,2.35,1.45,4,.81.73-.29,1.12-.79,2.09-2.26,2.17-3.28,3.26-4.93,3.23-5.81-.07-2.07-1.88-2-2.9-4.67-1.36-3.55.94-5.92-.65-8.07C1340.23,264.7,1338.71,264.45,1337,264.16Z"/><path d="M1832.71.31c-3.77-1.45-9,2.42-10.81,6.62-1.58,3.6-.57,7.24.32,10.48a10.63,10.63,0,0,0,2.42,5c1.65,1.73,4.84,3.59,7.26,2.58,1.72-.72,2.46-3.39,3.87-8.71,1.06-4,1.58-6.05,1.29-8.23C1836.92,7,1836.19,1.66,1832.71.31Z"/><path d="M1758.2,107.56c5.83-4.18,17.2-4.53,22.9.65,2.34,2.13,3.49,5,6.93,5.64,2.56.49,4.68-.56,4.84-.16.29.72-7.43,2.35-11.29,8.22-2.64,4-3.71,10.37-1.13,14.36,1.47,2.26,3.07,2.17,5.49,5.64,1.22,1.77,2.74,4,2.74,6.45,0,3.09-2.35,4.55-7.42,9.68-8.16,8.24-7.57,10-11.61,11.61a20.55,20.55,0,0,1-11.61.81c-4.54-1-5.53-3-10.81-3.71-4.24-.59-5.18.46-6.93-.65-.92-.58-2.67-2.13-3.07-13.22-.29-8.1-.45-12.56,1.45-18.39a50.08,50.08,0,0,1,4.36-9.35,52.83,52.83,0,0,1,5.32-7.9c1.32-1.61,2.45-2.75,3.55-3.87A61.48,61.48,0,0,1,1758.2,107.56Z"/><path d="M1431.62,832.81a26.46,26.46,0,0,0-2.58-8.55c-1-2.06-3-6.06-5.49-6-1.21,0-2,1.05-3.54,2.9-2.41,2.94-3.94,4.8-3.71,6.93s2.91,4.23,8.38,8.23c3.57,2.6,4.74,3.07,6.29,5.16a29.58,29.58,0,0,1,2.9,6c1.86,4.41,2.8,6.65,2.26,7.9s-2.14,2.41-7.25,3.39c-6.13,1.17-10.81,1-16.29,1-12.2-.13-13.87.31-14.68,1.62-1.14,1.83.75,3.18,2.42,10.48s.67,9.62,3.23,12.42c1.63,1.78,3.54,2.44,6.28,3.38,3.13,1.08,7.29,2.51,10.81.65,2-1.07,3-2.78,4.84-6,3-5.19,2.42-7.4,4.19-8.06,2.58-1,4.23,3.53,10.65,5.32,1.39.39,4,.53,9.35.81,4.37.23,5.42.09,7.9.64a55.39,55.39,0,0,1,6.45,2.1c4.74,1.71,5.12,2.12,6.62,2.09a10,10,0,0,0,6.28-2.74c2-1.72,5-5.62,3.88-8.38-.89-2.13-3.55-1.87-12.91-4.84-4.13-1.31-6.22-2-7.74-3.07-3.51-2.48-3.5-4.7-7.09-9.51a38.63,38.63,0,0,0-9.52-9.36c-6.24-4.12-10-3.29-11.61-6.93C1431,838.26,1432.25,837.77,1431.62,832.81Z"/><path d="M1552.73,2362.17c-4.06,3.62-2.06,10.64-1.77,11.61,1,3.5,3.65,7.47,5.48,7.1,1.65-.33.89-3.78,3.55-5.81,2.93-2.22,6.27.12,8.23-1.93,1.72-1.81.9-5.5-.17-7.58-2.12-4.15-7.31-6-11.45-5.16A7.83,7.83,0,0,0,1552.73,2362.17Z"/><path d="M100.94,2562.64c-4.08,2.81-2.33,11.5,1.3,13.38a5.43,5.43,0,0,0,3.22.48,6.18,6.18,0,0,0,3.71-2.25c1.83-2.13,3.54-6.7.81-10C107.67,2561.45,103.35,2561,100.94,2562.64Z"/><path d="M116.43,2367.49c-1.87,28.18-1.17,35,0,35.16.76.1,1.08-2.71,4.67-7.26,2.44-3.07,4-3.89,6.13-7.41.55-.89,1.12-2.05,2.26-4.36,3.22-6.52,2.63-6.39,3.87-8.22,2.59-3.85,4.29-3.17,7.1-7.42,1.15-1.74.79-1.75,2.74-5.49a90.53,90.53,0,0,1,5-8.38c4.75-7.2,6.78-8.31,6.29-9.52-1.16-2.85-11.09-3.57-18.55.81-2.2,1.29-3.63,2.71-8.55,8.55C122.91,2359.27,119.22,2363.91,116.43,2367.49Z"/></g></g></svg>