<svg xmlns="http://www.w3.org/2000/svg" viewBox="0 0 2535.8 1708.77"><g id="Layer_2" data-name="Layer 2"><g id="Mexico"><path d="M186.69,0,3.41.91a39.12,39.12,0,0,0-2.74,9.6C0,14.84-.6,18.85,1.12,22.85c1.92,4.46,4.44,3.6,7.54,8.46,2.94,4.6,1.11,6,4.12,14.17a54.1,54.1,0,0,0,6.4,12.11c2.37,3.38,4.27,4,6.17,7.31,1.73,3,3.9,6.27,2.74,8.69-1.33,2.77-5.55,1.63-7.09,4.57-.92,1.78.07,3.26,1.15,7.54C24,93.07,22.44,94.25,24,98c1.76,4.36,4.68,4.91,9.82,9.37s7.86,8.9,12.8,17.14c6,10,9,15,7.54,20.57-1,4-3.4,4.72-3.2,8,.3,4.7,5.34,5.93,11.2,11.88,1.47,1.5,12.44,12.88,10.06,23.08-1.23,5.27-4.92,5.52-5,10.06-.13,5.56,5.38,6.65,10.28,15.31a37.86,37.86,0,0,1,4.8,20.11c-.46,7.2-3,7.35-2.06,11.65,1.67,7.64,9.8,7.87,12.35,16.92.92,3.29,0,4,1.37,9.14A47.28,47.28,0,0,0,98,281.55c6.09,10.66,14.2,7.46,24.45,19.2,2.23,2.55,5.38,6.74,11.43,9.83,2.41,1.22,3,1.1,5,2.05,6.26,2.9,7.82,7.14,14.17,14.86,8.59,10.45,10.75,8.77,13.48,15.08,2.28,5.27,1.49,8.09,4.8,12.11s6.94,4.89,10.05,6.4c6.2,3,9.61,9,16.69,20.57,7.5,12.21,11.25,18.32,10.51,25.14,0,.49-1.48,5.13-4.34,14.39-2,6.34-2.91,9.24-4.12,12.57-1.34,3.71-1.52,6.67-3.88,9.83-2.13,2.85-3,2.26-3.66,3.89-1.86,4.65,5.58,8.92,8.23,19.65.35,1.4,1.69,6.84,0,7.77s-4.62-3.24-12.34-8.46c-4.12-2.77-6.33-4.27-9.37-5.25-7.55-2.45-10.18,1.5-18.74.91-7.66-.52-7.88-3.84-21.25-8-8.62-2.67-14.56-4.52-16-2.51-3.24,4.51,15.9,28.74,31.31,41.59,4.14,3.46,10.94,8.53,12.57,16.91.72,3.73,0,5.95,1.83,8.92,2.72,4.43,6.84,3.57,14.62,7.08,11.12,5,11,10.52,22.85,14.86,3.62,1.31,4.39,1.08,8.23,2.74,5,2.17,10.51,4.53,13.94,9.37,4.73,6.66,2.07,13.1,5.49,14.4,3.16,1.2,5.36-4.37,11.65-4.8,6-.42,7.74,4.39,13,3.65,6.19-.86,7.26-7.92,11-7.54,4.4.46,4.41,10.6,11.65,23.77,2.77,5,5.73,8.61,11.66,15.77,15.38,18.57,18.55,20.81,21,21.71,8.58,3.11,12.6-3.84,18.74-.46,5.89,3.25,2.48,9,10.74,24.22,3.07,5.66,5.94,9.28,8.92,17.37,0,0,1.56,4.26,2.51,8.23,2.88,12-.66,21-4.34,42.74-2.1,12.4-3.14,18.72-2.29,24.91A59.87,59.87,0,0,0,357,760.1c5.24,8.77,8.14,9.15,19.42,21.25,15.94,17.09,18.88,24.06,32,31.77a102.81,102.81,0,0,1,11.19,7.08c3.45,2.55,5,4.07,9.15,6.86s5.2,3,7.54,4.57c6.37,4.33,6.51,8.25,11.42,13.71,6.58,7.3,9.52,3.83,18.52,11.66,8.3,7.22,6.72,11,13.94,14.85,6.54,3.5,10.27,1.69,13.71,5.71,3.06,3.59,1.32,6.46,3,13.94s3.85,6.94,11,21.71c4.15,8.61,6.22,12.91,6.85,17.14.79,5.22-.55,9.57,2.52,13.49a12.4,12.4,0,0,0,5.77,4c8,2.65,16.86-4.1,26.68-11.74,10.36-8.06,15.54-12.1,18-19,3.17-8.65,1.3-16.83-.22-23.54a48.44,48.44,0,0,0-7.32-17.6c-5.35-7.73-8.45-6.77-13.25-14.17-5.13-7.89-2.26-10-7.09-17.59-2.92-4.61-3.27-2.72-17.14-15.77a74.51,74.51,0,0,0-12.57-10.06c-4.5-2.8-8-4.92-10.28-3.65-4.1,2.26-.24,13-3,14.17-2.58,1.05-8.55-7.58-18.06-21.49a111.66,111.66,0,0,1-6.85-10.74c-3.62-6.78-6.88-12.89-7.31-20.34-.63-10.67,5.3-11.59,4.11-21.25-.88-7.14-4.88-12.86-8.68-18.28-4.82-6.87-6.66-6.64-9.15-11.89-2.89-6.11-1.31-8.39-3.42-16.91-1.2-4.82-3.39-9.23-7.77-18-7.78-15.66-8.68-13.81-10.29-19.66-.48-1.73-1-9.1-2.06-23.76-.61-8.6-.68-10.07-1.59-12.8-2.31-6.86-5.5-8.35-8.23-15.08-2.13-5.27-1-6.38-2.54-14.55a83.06,83.06,0,0,0-9.57-25.68c-5.85-10.6-10.3-13.64-12.34-14.85-1.8-1.07-8-4.74-11.43-2.29-3.18,2.27-2.22,8.41-2.06,9.37,1.81,10.63,13.58,16.06,12.57,17.83-.56,1-5,.66-8.91-1.83-10.77-6.79-4.31-20.92-16-36.56-3.8-5.09-6.55-6.35-9.14-12.34a54.57,54.57,0,0,1-3.89-16.23c-.43-5.15.16-6.62-1.14-9.6-1.4-3.22-3.66-5.08-8.45-8.45-11.94-8.42-14.14-8.29-17.14-11.89-2.23-2.66-2.39-4.39-5-15.54-5.07-21.36-5.11-18.09-7.31-29.25-3.5-17.73-1.78-17.85-4.57-23.54-5.19-10.56-10.33-8.51-16.69-19.65-6.23-10.91-2.75-15.42-9.82-24.91-4.88-6.55-7-5-12.57-11.89-6.44-7.9-5.32-12-11.43-25.13-5.13-11.06-10.79-18.72-15.54-25.14a136.71,136.71,0,0,0-16.45-19.2c-14.74-14-24.8-16.54-26.51-26.74-.44-2.57-.46-6.39-3.2-8.23-3.44-2.31-7,1.28-10.29-.45-4.38-2.33-1.24-10.55-4.11-24.68-1.93-9.48-4.06-9.32-4.8-17.14s1.27-10,2.06-20.11a78.33,78.33,0,0,0-1.6-24.23c-3.26-13.33-8.08-12.74-10.74-24.45-1-4.32-3.22-17.13,3.42-29.48,2-3.65,7.24-13.45,16.23-14.86,4-.62,9.25,1.86,19.65,6.86,13.37,6.42,14.58,8.36,19.2,8.23,8.92-.25,10-7.62,17.6-7.77,6.17-.12,8,4.67,26.28,20.79,13.55,11.95,17.17,13.4,20.34,14.17,7.2,1.75,11.1-.24,15.54,3.2,5.16,4,5.76,11.28,6.17,16.23,1.07,13.09-4.67,16-3.89,29.25a50.23,50.23,0,0,0,4.12,16.91c4.91,11.28,10.18,11.77,12.34,20.8,1.42,6-.85,5.88-.23,18.28.37,7.33.62,12.36,3,18.28,1.84,4.64,2.82,4.41,9.6,15.31,4.44,7.15,6.66,10.72,7.77,13.72,2.07,5.56,1.29,7.21,3.43,21.71,1.87,12.75,3,15,5,16,4.06,1.9,7.91-3.4,12.34-1.37,4.1,1.88,5,8.33,5.49,12.11,1.1,8.15-1.73,9.57-1.14,17.6.27,3.75.95,12.95,6.85,16.68,5,3.18,10.45.3,12.57,3.66,1.47,2.33-.92,4-.46,8.46.63,6,5.43,6.64,9.37,14.62,3.13,6.33,1,7.75,3.89,11.66,3.85,5.24,8.43,3.73,15.54,7.77,10.86,6.16,7.8,14,18.28,20.11,7.33,4.25,9.32.7,18.74,5.94,1.53.85,2,1.21,13.94,10.51,7.42,5.76,11.14,8.65,11.89,9.14,8.87,5.94,11.69,5.74,14.39,9.83,2.11,3.19,1.91,5.61,2.52,13,.7,8.51,1.51,18.33,4.11,26.51a50.21,50.21,0,0,0,11.66,19.88c8.73,8.93,12.76,5.37,22.16,14.4,7.39,7.08,14.06,18.06,16,21.25,3.24,5.33,5,9.16,9.6,11,4.31,1.72,7.05,0,11.88,2.06,3.94,1.66,6.08,4.46,8.46,7.54,15.93,20.6,15.41,18.53,17.82,23.08,1,1.8,10.28,19.36,5.72,23.31-2,1.73-4.79-.77-10.29,1.14-3.54,1.23-5.71,3.42-8.22,5.94a39.81,39.81,0,0,0-8,11.66c-2.55,5.61-7.23,15.93-3.43,23.31,3,5.93,8.73,4.45,22.4,10.51,18.34,8.15,27.09,19.25,30.62,16.46,2.81-2.23-.91-10.7.46-11.2s4,7.14,10,15.08c7.44,9.83,19.46,19.65,26.05,16.91,1.48-.61,3.42-2.15,5.26-1.37s2.31,3.24,2.51,4.12c1.44,6.17,6,11.16,8.69,16.91,3,6.39,3.78,5.27,16.22,22.85,3.88,5.48,8.13,11.7,15.09,20.8,6.68,8.73,10.38,13,13.25,12.11,3.51-1,3.28-8.85,5.49-8.91s2.58,8,8.68,15.54a34.79,34.79,0,0,0,7.77,6.85c7.91,5.76,13,12.08,22.63,24.23,7,8.74,5.73,8.76,20.34,30.39,6.82,10.11,10.86,16.09,16,22.85,3.35,4.42,7.33,9.38,26.74,30.4,16.42,17.77,28.76,30.67,37,45.71a81.41,81.41,0,0,1,5.26,11.42c3.54,9.76,3.38,15.58,5,23.31,1.55,7.34,2.52,6,9.82,24,9.82,24.21,9,28.84,16,34.51,4.13,3.32,7.39,4.11,10.28,8.91,2.38,3.93,2.69,8.31,3.2,16.91.85,14.12,1.27,21.19,1.15,21.71-3,12.6-12.37,11.89-14.4,23.77-2,11.56,5.33,21.43,5.71,21.94,3.22,4.22,7.18,4.75,6.86,6.4-.66,3.38-15.92-.61-29.48,7.77-3.55,2.19-9.39,5.8-10.06,11.42-.84,7.1,7.57,8.83,11.66,20.57,3,8.48-.38,10.59,3.2,21a50.2,50.2,0,0,0,7.31,13.71c6,7.94,9,6.86,17.37,15.54,6.18,6.41,5.36,7.85,13.71,16.91a86.56,86.56,0,0,0,10.06,9.83c9.13,7.21,15.56,6.45,26.51,11s8.62,6.85,24.22,16c17.92,10.51,21.11,7.5,32.68,16,5.89,4.33,11.24,10.89,21.94,24,14.89,18.25,15.74,22.61,24.68,28.33,4.62,3,4.29,1.74,22.85,9.37,17.65,7.27,16.6,7.82,27.2,11.89,22.77,8.74,23.51,4.6,37.48,11.88,11.25,5.86,14.26,10.36,24.22,11.66,7.71,1,8.69-1.32,18.51-.69,4.91.32,16.29,1,25.83,8,6.81,5,4.79,7.35,13.94,17.6,7.06,7.91,13.6,12.46,22.62,18.74s13.57,9.44,18.74,10.28a24.19,24.19,0,0,1,8.23,2.29,23.4,23.4,0,0,1,8.46,7.77c5,6.67,13.15,7.48,39.53,13.71,11.31,2.66,17,4,21.26,5.25,24.5,7.17,24.09,16.65,45,24.69,9.79,3.76,8.39,1.25,50.27,10.51a167.64,167.64,0,0,1,17.6,4.8,173.21,173.21,0,0,1,20.8,8.45c15.93,7.67,23.08,13.35,35.88,20.8a229,229,0,0,0,53.47,23.31,210.51,210.51,0,0,0,33.37,6.86c13.16,1.58,15.91.6,30.16,2.74,8.32,1.24,9.8,1.94,27.89,5.48,15.28,3,22.92,4.49,24.68,4.57,18.36.83,33.52-6.26,48.45-13.25,13.75-6.44,10.92-7.21,21.48-11.43,18.23-7.28,27.9-5.48,36.56-14.85,2.05-2.22,4.16-5.18,8.69-8a30.1,30.1,0,0,1,14.39-4.57,30.54,30.54,0,0,1,11.89,2c12.32,4.19,18.32.73,42.73,1.83a246.11,246.11,0,0,1,25.6,2.52c27.15,4,47,6.88,60.56,21.25,7,7.44,5.41,10.59,13.71,17.6,7.55,6.36,12.82,7.08,26.51,15.54,5.83,3.59,9.76,6.48,14.63,10,21.55,15.82,32.33,23.73,40.22,37,0,0,4.44,7.48,11.2,16.92,6.07,8.47,9.07,11.63,12.11,11.19,1.14-.16,2.53-.87,6.17-6.62a91.75,91.75,0,0,0,7.08-13.72c6.82-15.64,9.85-16.84,8.69-21.48-.63-2.5-2.86-5.09-7.31-10.28-5.16-6-6.46-5.86-7.55-8.23-2.6-5.69,2.48-11.87,9.15-23.77,4.73-8.45,10.41-18.58,14.62-31.53a147.17,147.17,0,0,1,10.74-24,15.28,15.28,0,0,1,6.63-6.63,14.48,14.48,0,0,1,8-1.14l103.07-6.63a27.54,27.54,0,0,1-2.52-8.45c-.67-5.36.67-7.92.46-11.66-.07-1.24-.47-5.43-8.23-14.17-4-4.49-7.79-7.79-21.71-18.05-11.92-8.79-12.61-8.93-16-12.11-9.05-8.51-7-10.18-13.71-15.31-9.24-7.06-16.93-6.8-19-13.49-.16-.55-1.23-4.06.46-5.94s4.57-.49,8.69-1.83a17.7,17.7,0,0,0,6.4-4.34c5.88-6,1.38-16.51,2.28-36.34.58-12.71,2.74-15.26,4.11-16.45,4.38-3.78,10.64-2.3,19-1.37,11,1.22,22.1-.58,33.14-.23,12.91.4,40.46-1.48,105.35-11.88a18.32,18.32,0,0,1,1.83-8.46,13.15,13.15,0,0,1,3.43-4.8c6-4.7,14.9,2.37,22.17-2.51a15,15,0,0,0,3-3c8.92-10.87,6.95-21,14.17-33.37,1.41-2.42,8.21-14.08,15.31-13.25,5.2.6,8.22,7.63,10.28,6.62,1.77-.86-.78-5.86,1.83-12.11,1-2.29,1.42-1.9,4.8-6.85,1.34-2,2.08-3.21,6.63-11.2,4-7.07,4.43-10.18,5.71-10.06,1.11.11,1.41,2.43,3.43,9.6,2.82,10,4.13,12.21,5,13.48,2.56,3.65,3.78,2.92,6.39,6.17,6.16,7.64,4.42,17.83,5.26,17.83.64,0,1.71-5.92,1.37-13.48-.42-9.27-2.46-10-1.6-15.09,1-5.76,3.85-6.63,7.54-15.31,1.85-4.33,2.29-6.86,3.43-11,1.6-5.73,4.66-11,9.83-24.91,2.6-7,3.26-9.74,1.83-11.88-2.08-3.09-6.68-2.12-7.32-4.34-.73-2.55,5.09-4.61,10.74-11.89,2-2.55,5.38-7,6-13.25.08-.92.77-8.48-2.29-9.83-4.24-1.87-11.11,10.26-15.77,8.46-2.77-1.08-3.45-6.59-3.2-10.29.8-11.88,11.69-13.09,14.17-25.14,1.25-6.06-1.44-6.06-.91-20.79a41,41,0,0,1,2.28-13.26,40.09,40.09,0,0,1,4.35-8.45c4.37-6.57,7.42-7.2,11.19-12.12s2.35-6.6,6.17-14.85c4.27-9.22,7.13-9.34,13.49-19.88,4.77-7.91,7.54-12.5,8.68-19.2.62-3.59.24-4.72-3.88-27.19-2.22-12.07-2.71-15.06-5.72-17.6-4.32-3.66-10.94-3-16.45-2.52a49.74,49.74,0,0,0-12.34,2.75c-4.83,1.69-5.8,2.82-9.83,3.88a34.91,34.91,0,0,1-11.43.92c-15.56-.77-13,.64-27.42-.46-18.32-1.41-20.19-3.52-34.74-3.66a101.84,101.84,0,0,0-16.91,1.15,104.27,104.27,0,0,0-13.25,3,152.51,152.51,0,0,0-35.42,14.39c-11.19,6.38-11.44,8.58-19.89,11.66-5.63,2-10.67,3-18.51,4.34-12.21,2.17-12.72,1.3-19.88,2.74a94.89,94.89,0,0,0-29.25,11.66c-8.75,5.31-6.72,6.08-18.28,13.71-12.77,8.42-16.4,8.23-20.57,14.17s-4.72,11.88-5.49,20.34c-.53,5.83-.42,11.09,1.6,27.42,3.22,25.9,5,29.06,3.2,38.17a95.32,95.32,0,0,1-6.17,18.51c-5.12,12.05-8.3,14.07-8.91,21.94-.46,5.89,1.05,8.26-.69,13.94-1.44,4.72-3.86,7.54-6.4,10.74-11.73,14.77-8.6,15.54-16.68,24a101.41,101.41,0,0,1-18.05,15.31c-5.09,3.11-8.13,4.12-8.69,7.08-1,5.52,8.15,9.55,7.32,17.14-.1.91-.38,2.18-2.06,5-5.16,8.74-12.88,14.33-17.37,17.14a61.5,61.5,0,0,1-24.22,8.91c-7.23,1-10.8,0-12.8-.68-1.74-.63-8.83-3.19-10.51-8.92-1.74-5.89,3.8-9.9,2.05-13.25-.41-.8-2.86-4.67-21.25-1.14-19.27,3.69-20.52,8.69-44.79,16.68-11.22,3.69-17.68,4.83-22.86,11.43-4.41,5.63-3.54,9.7-7.77,11.65-6.81,3.15-12.41-5.9-24.68-4.57-.63.07-4.61,1.49-12.57,4.34-9.2,3.3-13.21,5-19.88,6.17-3.3.59-3.28.35-5.71.92-6.62,1.53-10.75,4.22-14.17,6.17-7.28,4.14-13.31,6-22.63,8.91-8.25,2.57-12.38,3.85-16,3.2-6.93-1.25-9.75-6.27-18.06-15.54-8-8.9-16.42-18.32-28.11-24.91-3.16-1.79-10.41-4.16-24.91-8.91-15.54-5.1-19.93-5.69-24.91-4.57-3.41.76-5.75,2-10.51,2a32.3,32.3,0,0,1-13-3c-4.92-2.11-10-5.3-17.82-13-9-8.84-7.33-9.55-15.31-17.59-9-9.09-12.57-9.63-20.57-19.2-4.41-5.27-6.64-8-7.77-12.34-1.81-6.92.92-10.41-.92-17.6-1.43-5.6-4.43-8.71-6.85-11.88-10.52-13.8-3.81-19.66-11.88-31.54-4.24-6.23-5.27-3.81-24.23-21.25-4.9-4.51-7.35-6.77-10.28-9.83a145.31,145.31,0,0,1-22.4-30.39c-4.86-8.87-7.29-13.3-8.91-19.89-2.38-9.67-.57-13-2.74-32.68-1.21-10.92-2.24-14.15-3.43-16.91-2.73-6.29-5.93-9.17-11.66-16a236.44,236.44,0,0,1-15.31-20.8,92,92,0,0,1-12.8-31.77c-3-15.56.29-26,2.06-40.67.68-5.66.83-16.19,1.14-37.26.15-10.06-.08-3.69,0-17.14.13-21.52.66-28.15-3.88-32.9-1.19-1.25-3.34-3-3.43-5.72-.09-2.94,2.37-4,4.11-7.54s1.4-7.26.69-13.48c-.89-7.77-2.89-9.52-1.37-12.57,1.6-3.23,4.52-2.66,7.08-6.17,1.88-2.58,2-5.41,2.06-11,.3-17.9.15-19.84.91-24a62.2,62.2,0,0,1,3.43-11.65c2.83-7,4.94-8.58,7.31-14.63,2.11-5.35,1.41-6.56,3.2-14.4,2.81-12.23,5.16-12.06,7.32-21.71,2.94-13.14-1.26-14.22,2.28-23.08,2.84-7.12,5.69-6.77,11.43-17.82,2.78-5.36,4.78-9.31,5.48-14.86,1-8.34-1.09-18.29-4.8-19-3.05-.55-4.16,5.75-11.42,9.14-5,2.36-9.89,1.83-13.94,1.38-9.11-1-12.77-4.53-20.8-7.55s-10.15-1.66-23.54-3.65c-21.06-3.14-39.51-5.89-51.88-17.14-2.35-2.15-6.26-6.22-13-8.69-6.41-2.34-7.81-.48-14.4-2.28-8-2.18-13.17-6.88-21.25-14.17-3.91-3.53-7-6.32-10.29-11a57.75,57.75,0,0,1-7.77-16.23c-4.36-14-.36-17-4.11-31.76-1.82-7.17-2.29-4.56-7.08-19-3-8.92-4-13.6-8.23-18.74-3.26-4-5.93-5.2-9.37-7.77-12.88-9.62-10.11-18.26-24.91-37.25-8.28-10.63-10.18-9.24-14.17-16.91-4.92-9.47-3.53-14.46-9.37-24.68-3-5.25-3-3.24-11.2-14.17-4.88-6.48-6-8.7-17.6-25.83-5-7.45-4-5.9-7.77-11.42-17.39-25.86-16.75-26.92-21.71-31.08-6.67-5.61-10.64-6-14.62-12.57-3.21-5.28-2.5-8.06-5.72-11.66-3.69-4.13-8.94-5.25-19-6.17-22-2-22.24,1.06-34-1.14-11.21-2.09-14.52-5.5-27-5.94-8-.28-11.9.94-13.71,1.6-6.12,2.23-8.63,5.58-15.54,11.19-11.9,9.67-12.72,6.53-16,11-8,10.89.57,23.51-8,35a34.51,34.51,0,0,1-6.17,6.4c-4.26,3.18-6.27,2.7-10.74,6.17-3.78,2.92-3.37,4.06-6.17,5.48a17.56,17.56,0,0,1-11,.92c-6.35-1.43-10.55-5.8-16-9.83-12.8-9.47-16.3-5.13-29.25-15.08-5-3.82-6.34-5.91-12.34-9.6s-8.42-4-13.48-7.08-7.88-6-13.72-11.89c-4.44-4.49-4.59-5.23-20.34-26.74a17.71,17.71,0,0,1-3.42-7.31c-.87-4.46.58-7.43,1.14-10.28,1.31-6.69-3.07-8.76-9.14-23.54-4.59-11.17-3.66-13.8-8.46-21-1.74-2.63-3.9-5-8.22-9.6-8-8.59-14-15-23.32-21-5-3.23-4.7-2.35-9.82-5.71a103.19,103.19,0,0,1-18.06-15.32c-23.21-23.63-21.6-19.82-30.39-30.16-14.43-17-22.63-27.65-22.63-27.65-5.07-6.61-8.52-11.41-15.08-13.49-4.59-1.46-6-.1-19.2.92-6,.46-12,.54-24,.68-4.78.06-11.17.14-16.46,0-19.67-.5-28.41-4.06-54.16-5.71-9.47-.61-14.65-.54-18.74,3-4.42,3.79-5.84,10.14-7.31,16.68-1.28,5.71-1,8.93-3.2,16.23a72.8,72.8,0,0,1-2.51,7.08l-226-9.6L190.8,21.48c-1.39-1.92-3-4.73-2.05-7.08,1.11-2.86,5-2.8,5.71-5C194.93,7.83,193.9,5.13,186.69,0Z"/><path d="M804.87,1062.67c-4.43.76-8,6-8.68,10.75-.28,2.06-.08,4.77,14.85,22.85,5,6.1,7.26,8.51,10.74,8.68,5,.26,8.76-4.2,9.6-5.25.37-.47,4.21-5.43,3-11.2-.88-4.12-3.74-5.78-9.83-10.74C810.66,1066.45,809.34,1061.91,804.87,1062.67Z"/><path d="M114.25,401.3c-3.08,1.29-2.56,4.64-6.17,12.57-4.24,9.3-7.56,10.42-6.86,14.4.84,4.79,6.76,9.37,12.11,8.68s7.9-6.36,10.29-11.65c1.88-4.18,6.15-13.68,1.37-19.88C122.53,402.22,117.65,399.88,114.25,401.3Z"/><path d="M255.25,303.72c-4.24,4-.83,13.41.69,17.6,3.13,8.66,6.5,9.61,15.54,22.39,8.4,11.89,9.8,17.17,14.85,17.6,4,.34,8.75-2.51,9.6-5.94,1.1-4.46-5-7.28-6.17-15.09-.75-4.85,2.32-6.1,1.14-9.59-1.47-4.38-6-3.8-11-8.23-7.49-6.63-4.1-13.85-11-18.28C264.75,301.46,258.33,300.84,255.25,303.72Z"/><path d="M345.75,349c-4.22,3.93-4.76,9.06-5.49,16-.51,4.89-1.47,14,3.89,22.39,1.84,2.88,5.11,8,10.28,8.23,5.72.26,9.77-5.62,10.29-6.4,3-4.48,2.17-8.3,2-18.28-.2-18.2,2.33-21.24-.91-24.23C361.32,342.5,351.31,343.79,345.75,349Z"/><path d="M2110.93,1310.17c-2.55,1.29-8.87,4.48-9.14,9.83a8.76,8.76,0,0,0,3.43,7.09c3.1,2.37,6.91,1.7,10.05,1.14,4.54-.81,7.81-2.91,14.17-7.09s7.89-6.12,8.91-7.77c.38-.59,3.84-6.11,2.06-8.22-1.31-1.56-4.4,0-11.88,1.6C2117.64,1309.09,2116.17,1307.53,2110.93,1310.17Z"/><path d="M2525.49,1109.07a15.52,15.52,0,0,0-10.74,3.65,15.21,15.21,0,0,0-5.26,10.29c-.4,6.83,4.32,14.36,8.91,14.39.86,0,2.47-.24,8.69-8.22,6.47-8.32,9.68-12.54,8.45-15.54C2533.83,1109.46,2526.34,1109.11,2525.49,1109.07Z"/></g></g></svg>