<svg xmlns="http://www.w3.org/2000/svg" viewBox="0 0 2141.73 2679.67"><g id="Layer_2" data-name="Layer 2"><g id="Republic_of_Moldova" data-name="Republic of Moldova"><path d="M568.68,10.16a15.29,15.29,0,0,1-2.82,2.35c-5.77,3.82-8.49,2.59-15,6.77s-5.09,6.17-12.08,10.43c-3.35,2.05-7.42,4.53-13.17,5.3-3.69.5-5.28-.08-8.78,1.1A18.75,18.75,0,0,0,509,41.05c-2.53,2.85-2.71,5.4-4.57,15.73-2.24,12.42-2.83,13.42-3.84,14.27-3.26,2.76-6-.08-18.11.19-9.28.2-13.33,2-17.93-1.1a14.35,14.35,0,0,1-4.39-4.94c-4.88-8.15-.53-15.05-4.76-19.39-.64-.67-1.51-1.29-7.86-2.56-12.77-2.57-22.1-4.45-24.34-.74-1.42,2.37,1.77,4.11.92,9.52-.31,1.94-.91,2.91-5.49,10.79-2.53,4.35-3.8,6.53-4,6.95a66.52,66.52,0,0,0-5.68,13.72c-1.15,4.13-1.11,5.8-3.65,16.83-.81,3.5-1.49,6.26-3.11,6.59s-2.36-2.08-5.31-3.84c-5.72-3.42-13.25-.56-13.72-.37-5,2-5.4,5-8.6,4.94-2.49,0-3.81-1.92-8.23-6.77-10.95-12-13.92-12.69-15.55-12.8-2.39-.18-4.34.74-8.23,2.56-5.81,2.71-6.25,4.93-10.8,6.58-1.1.41-4.29.58-10.61.92-9.59.51-11.61.4-14.08-.55a20.44,20.44,0,0,1-6.22-4c-6.15-5.16-5.64-8.36-12.26-15.55-3.44-3.74-4.4-3.77-5.49-6.22-.65-1.46-1.11-3.26-1.1-11.35,0-2.73.06-6.82.19-8.41,0-.58.1-1.16.16-1.73-6.27,4.21-9.64,7.13-11.32,9.23-.75.93-3.63,4.75-7.5,4.75-2.07,0-2.72-1.08-6.41-2.92-3.48-1.74-7.56-3.79-11.89-3.11-3.14.49-7.1,2.52-7.13,4.75,0,2.5,4.88,2.62,9.69,7.5,3.27,3.33,4.5,6.83,6.59,12.81,2.42,6.92,2.37,11.13,2.19,13.36-.19,2.44-.48,5.65-2.56,6.76-1.59.86-3.3,0-6.22-1.09-6.1-2.26-12.75-4.72-15.91-2.38-.53.39-.78.78-2.56,6.77-2.52,8.43-2.42,8.94-3.3,9.69-3,2.6-9,.44-16.83-2.38-1.28-.46-5.52-2-12.44-4.57-4.35-1.6-6.8-2.46-8.23-1.28-2,1.7-.29,6.24-2,7-1.07.45-2.66-.92-3.3-1.46a11.19,11.19,0,0,1-2.37-3.29c-1-1.67-2.46-2.7-5.31-4.76-4.66-3.37-5.3-2.45-7-4.39-2.07-2.44-3.33-6.56-1.83-9.15,1.2-2.07,3.42-1.85,4-3.84.29-1,.12-2.11-1.64-4.94-2.54-4.07-4.25-5-7.14-8.6-3.53-4.44-2.66-5.22-4.94-6.77a11.37,11.37,0,0,0-10.24-1.28c-2.4,1-2.1,2.18-4.76,3.3a13.37,13.37,0,0,1-8.23.36c-3.47-.81-4-2.15-7.13-3.29s-5.7-.85-9.88-.55c-16.88,1.22-20.43-.81-24,2.74-1.13,1.14-.85,1.48-4.39,5.86a58.87,58.87,0,0,1-5.3,5.85c-1.92,1.82-2.88,2.73-3.66,2.93-2.65.66-5.38-1.54-9.7-5.12s-4.79-4.88-7.32-5.49c-2.19-.54-5.63-.44-6.95,1.46-1.9,2.75,1.49,8,3.66,11.34,2.79,4.31,4.35,5,8.23,9.52,3.15,3.62,2.55,3.64,10.43,14.82,4.36,6.18,6.58,9.32,8.6,11.34a44.1,44.1,0,0,0,13,9l24.88,2.2L123,170.76a32.56,32.56,0,0,1-8.24,6c-3.36,1.73-6.4,3.29-9.87,2.56-2-.41-2-1.12-5.49-2.92-5.9-3-7.12-1.65-9.33-3.66-1.69-1.54-1.49-2.81-4-12.81-1.6-6.31-2.06-7.29-2.92-7.5-2.75-.67-5.14,7.36-11.16,7.87a5.62,5.62,0,0,1-3.85-.92c-2.17-1.64-2-4.85-2.19-6.95-.69-6.4-5.82-6.82-11.16-15.18-5.84-9.13-4.12-15.55-8.78-17-2.5-.78-5.85.17-7.14,2.2-1.75,2.76,1.23,6,4.21,16.28,1.66,5.68,2.47,8.57,1.65,10.8-1.41,3.82-4.89,3.94-14.64,9.69-6.46,3.81-9.74,5.8-12.44,9.51-3.28,4.53-1.65,5.78-4.75,11.16C7.51,189.13.61,189.14,0,195.09c-.23,2.38,1.55,5.36,5.12,11.34,2.59,4.33,4.64,6.49,7.32,7.87,1.46.75,2.93,1.51,4.57,1.09,3.78-.94,4.9-7.2,5.86-6.95.62.17-.19,2.74.73,5.86.77,2.61,3,6.3,5.85,6.58.63.06,1.73,0,7.69-5.12,2.13-1.83,2.89-2.59,5.12-4.57,7-6.25,8.19-6.35,8.78-6,.85.44.38,1.65,1.1,4.39a18.05,18.05,0,0,0,4.21,7.5A20.62,20.62,0,0,0,63.14,222a24.35,24.35,0,0,0,4.57,1.65,65.1,65.1,0,0,0,21.4,2c7.32-.82,11-1.22,13.72-3.66,1.8-1.59,3.45-4,7-4.94a10.71,10.71,0,0,1,4.57-.18,12.23,12.23,0,0,1,7,4.21c2.44,2.72,3.46,5.87,4.57,9.33,1.29,4,1.23,5.72,2.75,6.4,2,.89,4.81-1,5.3-1.28,2.37-1.56,2.31-3.09,3.48-3.3,2.17-.37,4.36,4.63,8.41,11.53,2.55,4.33,5.5,8.41,8.24,12.62,6.1,9.39,7,10.69,8.78,12.63.22.24,0,0,8.6,7.86,3.5,3.21,4.87,4.47,6,4,1.8-.69,1.94-5,2-7.14.14-4.12-.87-5.69.18-6.77.81-.83,2.15-.65,6.77.37,9.9,2.19,10.74,2.93,11.16,3.84.61,1.35-.21,2-1.65,6.95-1.29,4.44-.65,4-2.38,11.35-1.43,6.09-2,6.89-1.28,8,1.13,1.86,3.71,1.66,11.71,2.2,11,.74,13.45,1.63,15.18,3.48a7.55,7.55,0,0,1,2.2,6,6.26,6.26,0,0,1-3.84,4.94c-1.32.45-2.91-.06-6-1.1-7.24-2.39-7.82-2.59-8.41-2.19-2.16,1.43-1.49,8.58,2.37,12.07,1.37,1.24,1.78.79,6.41,3.11,3.71,1.87,3.87,2.38,7.5,4.21,4.2,2.13,6.3,3.19,8.23,3.11,3.31-.14,5.76-2.27,8.6-4.76,5-4.35,5.27-7.22,7.13-7.13,3.75.18,5.91,12.05,6.77,15.73a51.4,51.4,0,0,1,1.1,16.1c-.8,9.08-3.26,9.6-2.75,15.55.08.82,1.06,10.65,8.42,15.92,4.81,3.44,7,1.08,12.26,4.75,6.12,4.25,8.72,11.2,9.33,12.81,2.41,6.43.88,9.33,3.84,11.71,3.28,2.64,6.77.38,9.51,3.29a8.42,8.42,0,0,1,1.28,8.78c-1.9,4.09-7.39,4.65-7.13,6,.08.42.69,1,5.49,1.46,8.4.8,10.12-.66,12.07.92s2.39,5.09,2.93,10.43c.28,2.85,0,3.79.91,4.93,1.14,1.5,3.34,2.22,8.78,2,9-.34,14.28-2.72,14.82-1.65.44.88-3,2.5-6.58,7.32-2.07,2.81-1.57,3.18-4.58,8.41-3.64,6.34-5.34,7.47-4.75,9.33s2.84,2.11,8.05,4.39c6.21,2.73,9.32,4.09,11.15,6.59,3.64,4.95,2.48,14-1.64,19.39-2.95,3.87-5.71,3.65-9.88,9.33-2.49,3.39-4.33,7.31-3.48,8.05s3.51-2.87,8.05-3.11c2.3-.12,3.68.71,8.6,3.29,10.76,5.66,10.1,4.82,11.89,6.22,3.51,2.74,8,6.28,8.42,11.53.29,4.17-2.13,8.11-3.11,9.7-2.14,3.46-3.63,3.64-4.21,6-.77,3.18,1.28,5.2,3.29,9.7,3.65,8.17.53,9.67,3.84,16.1a30.78,30.78,0,0,0,10.25,11c4.79,3.11,9.29,4.05,9.15,5.86-.13,1.65-4.05,3-8.42,4.57-3.07,1.08-4.73,1.35-4.76,2,0,1.27,6,.75,9.52,4.76a10.66,10.66,0,0,1,2.19,9.88c-.93,2.81-2.76,2.88-3.29,5.12-.48,2,.32,4.79,6.4,10.79,7.87,7.77,10.6,7.15,15.19,12.63,3.76,4.48,5.24,8.86,6.77,13.35,2,5.75,4.13,12.18,1.83,19.21a17.9,17.9,0,0,1-3.3,6.22c-1.11,1.32-2.51,2.56-9.69,7-4.86,3-5.68,3.31-5.86,4.39-.53,3.33,6,7.47,8.42,9,3.64,2.29,5.5,2.52,6.77,4.94.29.55.51,1.16,1.28,5.85.54,3.33.84,5.54.91,6,.81,5.28,6.12,8.38,9.88,12.07,4.56,4.49,2.5,5.59,10.79,23.6,4.77,10.36,7.22,15.58,10.43,17.93,3.61,2.64,7.1,3.41,13.91,8.78,2.77,2.19,4.18,3.32,5.48,5.12,3.73,5.16,1.89,8.22,5.31,13.18,2.18,3.16,4.92,4.79,8.23,6.76A29.61,29.61,0,0,0,474,816.72c5.75,1,7.42-.78,9.51.92,1.6,1.29,1.56,3.05,2.38,11.89.52,5.58.78,8.37,1.1,10.24.86,5,2.38,8.44,4.76,13.72,5.27,11.7,7.45,11.5,9.88,19.21,2.23,7.11.44,7.5,2.92,13,2.91,6.44,5.37,5.94,9.15,13.54,2.82,5.66,2.62,8.29,5.67,10.06s4.51-.18,8.6,1.65c4.73,2.11,5.75,6.28,8.78,5.67.91-.19,1.2-.59,3.48-2.2,4.77-3.37,5.32-2.9,7.5-4.75,4.07-3.48,3.93-6.69,5.85-6.77,1.52-.07,2.57,1.92,5.31,7,5.61,10.3,8.42,15.46,9.88,17.56,2.42,3.49,3.42,4.25,4.39,7,.61,1.74,2.42,6.82.18,10.8-2.53,4.49-8.12,3.84-8.6,7-.21,1.39.81,2.2,4.76,6.95,3.5,4.21,5.26,6.32,6,7.68,1.62,2.84,2.24,6.17,3.48,12.81,1,5.36.88,7,.37,8.6a12.4,12.4,0,0,1-4,5.67q-.45,8-.91,15.92a80.35,80.35,0,0,0,7.86,2c3.89.78,5.43.79,6.95,2,2.35,1.88,2.62,5,2.93,7.5,1.72,13.81,5.31,13.33,5.12,22.87-.14,7.36-2.4,13.32-1.28,13.72.85.3,1.85-3.19,5.31-4.39,2.3-.8,5.52-.53,7.32,1.28,2.15,2.17.36,4.64,2,8.78,1.12,2.82,4,6.84,7.68,7.32,4.69.61,6.25-5.11,12.81-5.49a13.92,13.92,0,0,1,8.23,2.38,14.42,14.42,0,0,1,5.85,7.32c1.14,3.44.13,5.65,1.47,6.4,1.17.66,2.59-.68,6-2.2.88-.38,5.24-2.31,8.41-2.38,3.37-.07,6,2.21,11,6.77a68.49,68.49,0,0,1,13.35,16.47c2.45,4.21,3.68,6.37,3.66,9,0,4.66-3.09,5.94-5.3,12.26-.73,2-3.77,10.71-.37,14.09s9.47-1.89,15.37,1.83c2.84,1.79,4,4.62,5.85,9.14a42.1,42.1,0,0,1,2.93,13.72c.2,5.76-1,7.92.91,10.43s4.61,2.34,5.12,4.57-2.19,3.22-2.37,6.41c-.15,2.56,1.47,4.6,4.2,8,3.45,4.33,4.92,4.25,5.31,6.4.52,2.85-1.58,5.67-4,9-2.71,3.66-4.55,4.49-4.39,6.41.19,2.2,2.84,3.64,4.21,4.39,5,2.73,7.72.69,14.64,2.56,2.55.69,8,2.15,8.78,5.67a4.81,4.81,0,0,1-.73,3.66c-1.94,2.7-6.38,1.66-7,3.47-.18.57.06,1.3,1.29,2.75a21,21,0,0,0,7.68,5.67c14,5.33,15.34,4.3,18.48,7,3.67,3.11,5.12,7.35,7.31,13.72,2.32,6.73,1.75,9.72,5.13,13.36a22.53,22.53,0,0,0,7.5,4.94c3.6,1.66,5,1.48,9.33,2.74a53.44,53.44,0,0,1,15,7c2.36,1.64,1.74,1.59,7.86,7.14,10.17,9.2,10.56,8.14,15.19,13.17,3.87,4.2,4.39,5.8,7.5,7.32a20.18,20.18,0,0,0,10.43,1.64c5.65-.6,7.21-3.14,9.33-2,2.31,1.24,1.23,4.71,3.29,11.71a32.45,32.45,0,0,0,4,9.15c2.77,4,5.27,4.3,14.27,9.51,14,8.11,15,11.45,15.19,13.17.28,2.72-1.11,5.17-2,6.77-3.18,5.61-8.25,6.65-7.87,8.78.34,1.88,4.29,1,8,4.21,1.68,1.45,1.45,2.11,5.49,10.06,2.76,5.43,3.16,5.7,3.66,7.68a22.59,22.59,0,0,1,.18,9.15,26.1,26.1,0,0,1-4,11.53c-3.82,5.62-8.54,6.75-8.05,9.33.25,1.27,1.75,2,4.76,3.47,5.78,2.83,8.17,2.1,10.79,4.76a12.12,12.12,0,0,1,2.57,4.39,15.57,15.57,0,0,1,.91,9.88c-.45,1.71-1.12,4.24-3.29,5.67-2.66,1.74-5.46.46-5.86,1.46-.24.61.53,1.79,8.42,7.87,3.6,2.78,4.44,3.3,4.94,4.75,1.25,3.67-1.51,7.94-1.83,8.42-2,3-4.05,3.32-4,5.12s1.93,2,3.66,4.39c1.62,2.2,1.63,4.17,2.2,10.8.5,5.86.76,8.79.91,9.33,1.17,4,3.61,5.8,16.83,16.64,6.32,5.19,7.12,5.89,8.24,7.51,2.14,3.09,3.32,6.43,4.57,15.54,1.48,10.77.92,14,2.56,24.52,1.46,9.32,2.81,12.66,5.67,14.27s5.07.53,7.68,2.74c2.22,1.87,2.4,4.15,3.48,8.24,2.57,9.71,4.6,8.44,6.77,17.19,1.55,6.27,1.45,10.7,4,11.53,1.59.51,2.56-.87,3.85-.37,2.64,1,1.49,8,1.46,17a117.6,117.6,0,0,0,3.11,25.62c1.14,4.45,1.71,6.67,2.74,8.78,2,3.93,3.77,5.36,3.48,8-.22,2-1.4,2.37-3.29,5.49-2.5,4.1-1.37,5-3.66,9.87-2.39,5.07-4.08,5.06-5.67,9.52a22.52,22.52,0,0,0-1.28,7.68c-.08,8.05,3.9,9.49,4.2,17.2.1,2.56.33,8.3-3.29,11.71-2.77,2.6-6.14,2.27-6.4,4-.4,2.67,7.29,4.78,7,8-.15,1.46-1.74,1.62-3.11,3.48-2.12,2.86-1,6-.37,11.89.75,7.09-.45,6.81.37,16.64.67,8,1.55,9.25,2.56,9.88,3.06,1.92,6.51-2.16,10.43-.36,3.37,1.55,4.39,6.22,5.3,10.42,1.09,5,.59,7.35.74,12.63.39,14.67,4.88,20.62.73,25.43-.68.79-.48.25-3.84,2.74-6,4.48-9.17,6.79-11.16,10.06-3.15,5.18.09,6.91-3.3,16.28a43,43,0,0,1-4.39,8.79c-1.21,1.85-2.06,2.81-7.13,8.41-7.84,8.64-8.92,9.76-9.33,12.26-.46,2.73.13,5.62.73,8.6.88,4.37,1.83,5,1.46,7.31-.67,4.11-4.4,5.64-3.66,7.5.42,1,1.68.79,4.58,2,1.49.63,6.36,2.69,6.95,5.85.26,1.42-.51,2.07-1.65,4.57-2.66,5.87-1,7.92-3.11,11.9-1.39,2.58-2,1.44-6.95,6.4s-5.44,7.15-9.51,9.51c-2.24,1.3-3.92,2.27-6.22,2.2-4.65-.16-6.66-4.41-9.7-3.66-.74.18-2.07.79-3.84,4.75-2.64,5.92-2,9.71-2.93,16.83-1,7.85-1.56,11.77-4.39,14.09-4.61,3.79-10.45.19-13,3.66-1,1.38-.07,5.21,1.83,12.81,1.84,7.31,2.79,11,4.39,13.72,2,3.29,3.24,3.92,3.66,6.58.72,4.46-2.19,6.8-.91,9,1.48,2.51,5.84.07,9.69,2.37,5.71,3.42,6.29,14.85,3.11,22.32a17.61,17.61,0,0,1-5.85,7.69c-3.14,2.24-4.41,1.29-6.22,2.74-5,4,.53,14.35-1.28,30.92a31.5,31.5,0,0,1-3.11,11.34c-2.14,4.22-3.16,3.56-4.39,6.77-2.48,6.46.74,11.43-2.56,14.45-1,.91-1.52.67-2.93,2a12.82,12.82,0,0,0-3.29,5.68c-.53,1.65-2.66,8.31.73,13.17,1.76,2.52,3.34,2.16,4.21,4.39,1.08,2.77-1,5.41-2.56,9.69-2.74,7.38-5.79,9-7,14.09-1.68,7.45-.32,13.49.74,17.93,1.79,7.56,3.54,7.89,9.14,20.85,4.61,10.68,6.92,16.14,7.14,22.51.25,7.37-1.89,8.19-.55,14.08,1.7,7.5,5.83,9.15,5.85,15.92,0,1.55-.73,4.33-2.19,9.88-2.16,8.16-3.21,9.43-2.38,11.89,1.15,3.4,3.77,2.81,7.13,7.68a16.71,16.71,0,0,1,3.48,9.51c0,.57,0,7.17-4.76,11-3.76,3-6.51,1.08-9.51,3.84-4,3.67-3.11,10.74-2.74,13.72.52,4.24,1.62,4.95,5.85,15.92,2.22,5.77,3.33,8.65,3.84,11.16,1.52,7.49-.39,8.69,1.47,14.27.87,2.63,2.75,8.27,7.68,10.79,3.38,1.73,5.77.74,7.5,2.93,1.16,1.46,1.12,3.2.55,8.05-1.38,11.76-2.48,13.17-1.28,15.91,1.58,3.64,4.2,2.74,7,7,2.23,3.42,2.16,6.55,2.38,13.35,0,0,.21,6.69,1.1,19.58.93,13.61,2.16,11.91,2,19.39-.2,9.54-2.2,12.09-.55,19.39,1.11,4.93,2.43,5.55,2.56,9.69a23.17,23.17,0,0,1-4.76,14.27c-1.82,2.47-6.35,8.6-11.34,8.05-2-.22-3.5-1.46-7-1.28-1.9.1-2,.51-3.84.73-5.21.62-7.2-2.2-10.06-1.09-1.73.67-1.46,1.88-4,5.49-4,5.6-6.49,5.3-7.68,8.59-1.37,3.79.67,7.72,2.56,11.35,2.21,4.23,3.42,4,10.43,11.89,5.46,6.17,6.89,8.78,9.88,8.78,2.3,0,2.74-1.56,6.58-2.2,1.5-.24,5.12-.84,7.69.92,2.16,1.48,2.55,3.93,3.47,8.78,2.57,13.45,2.75,11,3.11,15,.61,6.7-.48,7-.91,18.29-.41,10.61-.57,16,1.46,20.68,1.44,3.31,2.27,3.29,6.22,11a68.54,68.54,0,0,0,4.57,8.24c2.42,3.57,3.63,5.36,6,6.76.83.49,5.21,3,10.06,1.28a11.08,11.08,0,0,0,4.94-3.65,175.34,175.34,0,0,1,54.52-64c14.87,7.42,31.1,14.67,48.66,21.4q10.05,3.85,19.76,7.14a42.38,42.38,0,0,1,3.11,15.36c0,5.1-.94,8.44.91,9.7,1.16.78,2.43.09,10.06-2.38,1.87-.6,4.87-1.58,7.69-2.38,1-.28,5.35-1.51,11-2.56,8.33-1.56,8.74-.73,12.26-1.83a26,26,0,0,0,11.53-7.68q-7-27-14.09-54l2.75-3.48,29.63-7.68q-8.15-37-16.28-74.09a23.69,23.69,0,0,0-6,1.83c-3.11,1.43-4.06,2.74-6.58,3.11a8.36,8.36,0,0,1-5.13-.73c-4.83-2.76-4.75-12.4-2.37-18.66a25.58,25.58,0,0,1,2-4,39.82,39.82,0,0,1,7.87-9.33c4.29-4.26,5.85-9.12,9-18.84,3.33-10.41,1.79-12.65,4.94-15.37,5.45-4.71,16.73-3.74,20.12,1.1,1.42,2,1.14,4.3,3.66,6.22a10.37,10.37,0,0,0,5.67,1.83,12.92,12.92,0,0,0,7.69-1.46c4.11-2.42,5.28-6.93,5.67-8.42,1.9-7.31-1.69-14.53-3.3-17.74-2.64-5.32-5.15-7.23-4.2-9.15,1.42-2.88,8.74-1.89,9.14-1.83,6.72,1,7.38,4.79,13,5.3,3.5.32,4.15-1.08,11.89-3.11,1.8-.46,2.43-.56,12.08-2.19,7.27-1.23,14.48-2.89,21.77-4,7-1.09,10.5-1.39,11.34-3.65.57-1.54-.52-2.72-2.38-6.59a77.16,77.16,0,0,1-4.57-13.36,50,50,0,0,1-1.47-12.25c9.31-2,19.23-4.41,29.64-7.5,8.38-2.49,16.25-5.15,23.6-7.87-9.21-31.52-12.37-46.28-13.35-53.78a113.2,113.2,0,0,0-3.48-18.85c-1.69-6-2.44-6.49-2.74-10.06-.5-5.84,1.23-7.53,2-17.56.42-5.46,0-5.92.73-7.87,2.07-5.36,7.81-8.16,12.44-9.69,10-2.11,106.12-22.31,111.89-24.09a26.7,26.7,0,0,0,3.36-1.34,18.35,18.35,0,0,0,5.86-4.21c1.83-2.14,1-2.75,2.92-6.4,2.27-4.23,3.89-4.32,5.31-8.05.94-2.47.27-2.55,1.1-5.13,1.56-4.83,4.37-6,6.22-9.51,1.13-2.17,2.14-5.69.91-11.34l-31.65-37.5,67.69-87.27a55.9,55.9,0,0,0-6.77-8.78c-6.38-6.77-11.74-9-18.47-13.35-12.72-8.15-9.16-10-22.14-18.85-11.53-7.82-19.26-9.67-20.49-16.64-.43-2.42.14-4.36,1.28-8.24,2.4-8.16,5.53-8.13,9-16.64,2.4-5.93,3.85-9.52,4.21-14.46a11.27,11.27,0,0,1,1.47-5.67,11.58,11.58,0,0,1,6.76-4.57l4.21-2.56c-1.17-3.9-3.2-10.55-5.85-18.84-7.41-23.2-11.11-34.8-14.27-41.9-8.11-18.22-13.93-24-13.54-34,.11-2.83.77-7.37-1.83-11.9-2.73-4.76-6.86-5.64-7.13-9.51s3.34-6.77,4-7.32c3.28-2.61,7.2-2.78,15.37-2.19,12.19.88,18.86,1.2,32.2,1.83,2.32.11,5.14.2,7-1.65,3.47-3.56.4-11.48-.37-13.35,0,0-18.81,3.2-23.23-2a6.46,6.46,0,0,1-1.46-3.29c0-.16-.19-2.47,1.09-3.66,1.49-1.37,4.14-.49,6.41,0,7.26,1.58,13.28-.25,20.85-2.56a13.38,13.38,0,0,0,5.31-2.93,6.37,6.37,0,0,0,1.83-2.19c1.43-3.51-3.34-7.23-2.2-9s5.57,1.26,11.16-.91a19.61,19.61,0,0,0,3.48-2c5.21-3,11.23-1.8,14.81-1.28,8.77,1.26,5.93-1.19,26.71-1.1,13.2,0,17.16,1,19.21-1.83,2.23-3.14-1.09-6.24,0-15.92.5-4.38,1-9.33,4.58-11.7,1.65-1.12,2.25-.52,9.69-1.83a51,51,0,0,0,8.78-2c4.19-1.47,4-2.32,8.24-4,2.48-1,10-4,13-1.1a4.22,4.22,0,0,1,1.1,2.2c2.19,10.32-7.49,34.84,0,45.37.67.94,3.62,4.86,7.32,9.14,3,3.43,3.8,4.11,4,5.67.74,5-6,10-9.33,12.44-7.3,5.42-11.54,5.12-12.44,8.6-.77,3,2.15,4.1,5.31,10.8,4,8.55.76,9.9,4.94,20.3,1.16,2.89,2.51,5.52,2,9.15-.34,2.46-1.35,4.15-2.74,6.4a40.27,40.27,0,0,1-9.7,10.43c-4.64,3.63-6.85,4.11-6.77,5.67.1,1.81,3.1,2.1,10.06,5.67,6.69,3.44,8.48,5.52,11,4.58,1.72-.65,2.85-2.38,4.39-4.76a24,24,0,0,0,2.38-4.76c2.94-7.71,4.66-12.21,8.23-15,1.57-1.22,1.1-.24,7.87-3.11,8.16-3.45,8.26-4.63,11.52-4.94,5.57-.51,8.09,2.66,10.43.92,2.82-2.1,1.38-8.39,1.28-8.78-1.28-5.35-4.74-5.81-6-11.16-.53-2.23-.29-4.17.19-8,.79-6.42,2.23-6.65,3.11-13,.66-4.75.1-6.42,1.64-7.68,2.17-1.78,5,.09,7.14-1.83,1-.93,1-1.92,1.65-6,0,0,.6-3.95,2.19-11,1.39-6.14,2.09-7,2.93-7.5,2.58-1.51,6.45.69,7.5,1.28,4.28,2.43,8.19,7.1,14.27,26.35,3.2,10.16,4.84,17.52,6.77,17.38.81-.06,1.07-1.41,2.37-3.85s2.74-4.18,7.14-8.78c6.81-7.11,10.21-10.67,15-15.18,5.18-4.89,7.24-6.53,8.6-10.25s.85-6.25,2.19-6.77c2.21-.85,6,5.16,10.43,10.8,12.72,16,25.19,21.52,23.24,26.71-.46,1.21-2,2.45-5.13,4.94-3.94,3.15-5.17,3-5.85,4.39-1.82,3.76,4,11.12,9.88,15.55,7.62,5.71,16.21,7.12,21,7.86,10.38,1.6,13.12-.65,16.83,2.38,2.11,1.73,1.53,3.16,5.67,17.93,2.64,9.41,4,14.12,4.39,18.11.65,6,0,7.84,1.83,11.16.17.31,3.9,7,10.79,8.23,2,.35,3.83.11,7.5-.36a69.93,69.93,0,0,0,7.32-1.47c5.53-1.26,8.3-1.9,10.06-2.19,8.63-1.43,9.75.48,14.45-1.46,1.78-.74,6-2.48,7.69-6.41,1.51-3.53-1.18-5.23-1.83-13.9-.58-7.78,0-9.28-1.28-13.72-1-3.28-1.7-3.71-4.21-10.61-1.46-4-2.19-6-2.38-7.69-.16-1.38-.89-7.83,3.29-12.62,1.95-2.22,5.45-4.67,7.14-3.66,2.25,1.35-.37,7.86,2,9.15.87.47,1.61-.2,4.76-1.1a65.59,65.59,0,0,1,6.77-1.28c1-.16,4.21-.67,9.14-1.1,9.79-.85,10.52,0,11.9-1.28,2.79-2.55,2-8,1.09-13.53a28.74,28.74,0,0,0-2.19-8.05c-2.52-5.58-5.62-7.1-4.94-9,.79-2.2,6-2.64,9.88-2,6.09,1,10.09,4.89,14.63,9.33,3.85,3.76,6.44,6.28,8.23,10.61,1.65,4,.79,5,2.75,12.81,1.31,5.22,2,7.83,3.47,10.61,2.55,4.66,6.18,7.91,10.43,11.7,3.93,3.52,7.39,5.91,7,8.79a8.58,8.58,0,0,1-1.09,2.37,34.89,34.89,0,0,1-4,5.49c-2.35,3-3.52,4.47-3.47,5.49.16,3.4,8.48,4,20.85,9.33,6.22,2.66,12.07,5.17,18.84,10.06,5,3.61,8.85,7.33,10.07,6.41,1.52-1.17-3.82-7.6-1.28-13.73.32-.78.75-1.51,4.57-5.12,6.68-6.31,8.1-6.65,11.89-10.43,5.91-5.88,5.31-7.89,9-9.33,3.9-1.53,7.72-.49,11.53.55,7,1.93,7.44,4.39,13.72,6.59,5.18,1.81,4.65,0,17,1.65,8.86,1.15,11.49,2.36,16.29.91a31.68,31.68,0,0,0,7.68-3.84c6.32-4,6.8-6.38,10.06-6.95,4.67-.82,9.05,3.2,11.34,5.3,7,6.43,8,14.48,11.71,14.27a6.93,6.93,0,0,0,3.48-1.64,8.52,8.52,0,0,0,2.19-3.11c.56-1.16,2-2.91,4.94-6.41a54.61,54.61,0,0,1,16.28-12.62c9.08-4.63,14.7-4.22,15-7s-4.51-5.28-7.5-7-5.44-2.39-9.87-3.66c-14.44-4.15-14-4.16-14.82-4.21-5.56-.36-6.13,1.28-16.65,1.83-7.35.38-8.81-.33-9.7-1.28-3-3.23,1.24-8.68-1.64-11.89-1.4-1.56-5.53-1.61-13.72-1.65-6,0-8.25.27-9.33-1.28-1.55-2.22,1.24-5.42-.55-8.05-.94-1.37-2.36-1.49-4.76-2.19-2.64-.79-9.74-2.89-12.44-7.32-.47-.78-.62-4.07-.91-10.61-.37-8.34-.31-9.17,0-10.43,1.27-5.2,3.83-5.66,3.66-9-.25-4.59-5.48-9.25-9.15-8.6-1.57.27-1.62,1.3-6,6-5,5.39-6.85,6.11-8,6.41a16.19,16.19,0,0,1-5.49.18,19.83,19.83,0,0,1-5.12-1.1c-3.92-1.51-3.94-4-7.68-7-5.22-4.18-8.76-2.32-10.61-5.85-.38-.72-.5-3.12-.73-7.87-.25-5.11-.1-5.25-.37-6.59a19.5,19.5,0,0,0-4.39-8.41c-4.1-5.13-7.82-6-7.68-9a4.94,4.94,0,0,1,1.82-3.29c3.45-2.75,7.73,1.83,13.91.18,4-1.08,3.15-3.3,9-5.67,4.75-1.93,7.23-1.22,8.6-3.47s.57-5.25-.55-7.14-2.29-1.74-3.84-3.66c-2.37-2.92-3.35-7.91-1.28-10.61,1-1.34,2.53-1.7,5.49-2.37,6.31-1.44,8.47.18,10.61-1.29,2.82-1.93,2.36-7,1.83-13a67.23,67.23,0,0,0-5.31-20.31c-1.89-4.33-2.93-5.51-4-9.51a33.76,33.76,0,0,1-1.28-11.53,34.66,34.66,0,0,1,5.67-16.28c3.27-4.88,5.94-6,6.77-10.43a14.82,14.82,0,0,0-.73-7.5c-4.12-13,4-26,2.56-48.48a152.21,152.21,0,0,0-2-15.73c-.71-4.11-1.09-6.2-1.83-8-1.56-3.92-3.1-4.94-9-12.81-4.09-5.49-4.92-7.12-5.49-8.41-1.5-3.39-3.34-7.55-1.64-10.8.37-.72.9-1.35,8.59-5.12,4.61-2.25,6-3,8.79-4.39,5.28-2.7,5.94-3.22,6-4,.24-2.11-3.82-2.81-8.78-7.32-5.47-5-6.09-9.16-9.33-9.15-.66,0-2.16,1-5.12,2.93-4.88,3.21-7.33,4.82-7.68,5.12-4.29,3.66-4,5.44-7,6.59-.42.16-4,1.46-7.13-.19-1.09-.57-2.79-1.83-5.86-11.15a69.77,69.77,0,0,1-2.19-7.51c-3.55-16.39,1.08-27.78-4.57-31.64-1.52-1-3.46-1.33-5.68-1.65a22.6,22.6,0,0,0-9,.55c-3.6,1-5.72,2.45-8.78,4.39a115.68,115.68,0,0,1-13,7.32c-10.25,4.46-13.32-.55-26.16,3.47a84,84,0,0,1-11.53,2.75c-5.45,1-6.14.78-6.58.54-3.31-1.73-1.87-7.2-4.21-20.85-.3-1.76-.88-4.91-1.83-8.78-.45-1.84-1.09-4.28-3.66-12.26-3.58-11.12-4.76-13.91-7.68-16.28-1.19-1-2.82-2.25-4.76-2-3,.37-3.32,4-6.77,5.67-2.82,1.37-3.77-.51-10.06-.55a54.49,54.49,0,0,0-13,1.83c-3.77,1-4.78,1.63-6,.91-2.32-1.32-.76-4.71-3.48-9.88-1.68-3.19-2.89-3-3.84-6a18.47,18.47,0,0,1-.55-7c.27-4.72,1.43-6,.55-7-1.53-1.59-6.56.75-10.06,2.38-2.93,1.36-3.11,1.82-6,3.3-3.5,1.76-4.17,1.18-10.79,4-3.75,1.61-7.18,3.31-11.71,3.29a7,7,0,0,1-4.58-1.28c-.46-.37-.72-.71-2.37-3.84,0,0-1.47-3-2.57-5.12a39.21,39.21,0,0,0-3.84-6l26.71-6.77,1.1-67.5,15-1.47a13.13,13.13,0,0,0,2.38-5.85c.59-4.42-1.6-7.22-3.84-13.72-.54-1.56-1.22-4.4-2.56-10.06-3.21-13.48-2.57-14.91-4.76-17-5.09-4.9-14.51-2.93-15.37-2.74-4.11.92-3.77,2.31-8.23,3.11-5.88,1.06-9.64-.79-11.71,1.65-.46.54-.67,1.52-1.09,3.47-.94,4.29-.22,5.59-1.1,9-.63,2.4-1,3.93-2.38,4.75-2.32,1.41-6.42.13-8.42-2.38s-.46-4.38-2.92-8c-1.17-1.74-1.87-1.84-2.75-3.65-1-2-.8-3.33-1.09-5.68-.21-1.61-.81-6.38-3.48-9.87-2.15-2.81-3.76-2.35-5.49-4.39s-3.09-6.16-.36-14.82a86.81,86.81,0,0,0,34-4.39,84.31,84.31,0,0,0,10.8-4.58c-8.64-45.41-13.76-78.7-14.09-84.15-.16-2.68.45-5-.37-9.88-.38-2.28-.87-3.84,0-5.12,1.11-1.62,3.59-1.58,6-1.65,7.69-.2,14.73-.38,18.11-3.84a9.16,9.16,0,0,0,2.38-5.85q-5.94-40.24-11.89-80.5a21.09,21.09,0,0,1-1.83-6.22c-.34-2.59,0-3.71-.73-4.94s-2.53-2.56-7.5-2.56a95.57,95.57,0,0,0-30.19,6.59,93.81,93.81,0,0,0-15.18,7.68q-1,17-2,34c1.33,5.48.41,7.74-.73,8.78-.44.41-.74.47-2.74,1.46-3,1.47-4,2.18-5.12,2.75-4.44,2.22-6,.12-11.53,2-3.48,1.2-3.27,2.19-7.32,3.48-3.1,1-6.32,2-8,.54-2.53-2.14.38-7.76-1.64-9-1.57-.92-3.7,2.21-9.15,3.11-2.23.37-4.75.79-6-.55-2.1-2.18,1.86-6.17.19-11.34-1.24-3.8-3.8-2.94-5.67-7.32s.56-5.8-1.47-11.71c-.87-2.54-1.9-4-1.46-6.22a8.55,8.55,0,0,1,2.56-4.2c4.69-5.4,4-13.76,3.66-17.93s-.7-8.43-3.48-9.88c-.67-.35-2-.79-8.78,1.28-5.93,1.8-6,2.45-9.51,3.29-2.64.64-10.15,2.45-13-.91-1-1.22-.88-2.46-1.1-5.13-.38-4.75-1.19-5.27-2.93-13-1.1-4.9-1.83-10.16-3.29-20.68-.35-2.54-1.2-8.75-2.93-16.83-1.55-7.26-2.52-10-4.39-10.42-2.15-.52-3.29,2.52-8.23,5.3s-6.18,1-11.52,3.48a34.22,34.22,0,0,0-12.08,9.69c-2,2.55-3.34,5.16-6.22,5.67-.36.07-2.7.49-4.21-.73-4.8-3.87,2.12-21.65-.36-31.65a2.86,2.86,0,0,0-1.28-2c-2.2-1-6.32,3.4-10.61,8.42-12.46,14.57-14.14,20-17.38,19.57-4.06-.5-7.44-9.69-7.5-17-.06-6.69,2.65-12.89.73-13.91-.53-.28-.94.08-2.74.55s-6.77,1.48-7.51.37c-1.11-1.69,8.58-6.14,11.71-15.55,1-2.89.26-3.09-.73-18.84-.62-9.9-.65-14.91-2.56-15.37-1.2-.29-3.18,1.51-7.13,5.12a13.71,13.71,0,0,1-3.11,2.38c-.7.36-3.18,1.64-5.31,1.1-2.72-.7-4-4.15-4.57-5.67-2.58-6.73-6.6-12.8-9.88-19.21-5.83-11.39-10.19-14.74-8.42-18.11.83-1.58,2.14-1.54,7.14-3.66,8.78-3.73,8.11-5.28,14.45-7.69,7.31-2.77,8.54-.84,15.73-4,3.8-1.68,6.87-3,9.15-6.22,3-4.23,1.24-6.92,3.29-13,2-5.79,4.14-5,9.88-13.9,2.38-3.71,4.21-7.9,7.87-16.29,3.56-8.16,3.92-10.14,2.92-11.52-2.2-3.05-9-.25-11.15-3.66-.77-1.2-.53-2.53,0-5.12,3.74-18.63,4.51-19.1,4-22.32-.42-2.76-1.39-5.16,0-6.77s4-.83,4.94-2.38-.43-3.8-1.83-6.4c-5.18-9.63-3.24-9.5-6.59-14.09-4.43-6.07-7.65-6.06-7.86-9.51-.18-2.94,2.14-3.33,5.3-9.51s2-8.23,4.94-11c2.6-2.46,4-1.31,9-3.84a31.22,31.22,0,0,0,11-9.52,36.81,36.81,0,0,0,5.31-11.34c1.93-6.1,1.11-7.72,3.47-12.44,1.91-3.8,3-3.85,3.85-7,.29-1,1.86-6.72-1.28-10.61-1.09-1.35-2.56-2-5.49-3.29-3.16-1.4-6.06-2.68-9.52-2.2-1.63.23-3,1-5.67,2.38-5.72,3.05-6.52,4.94-9.33,5.12-3,.2-5.46-1.79-6.4-2.56-5.72-4.7-5-13.38-4.76-15.73a25.4,25.4,0,0,1,1.83-7.32c1.81-4.36,3.87-5.83,5.67-8.78,1.65-2.7,3.28-6.93,2.93-13.54l28.91-20.67,2.19-12.26-42.81,1.28-15-92.2c-2.73-.5-5.72-1-9-1.46-12.45-1.77-14.81-1-16.28.36-1.3,1.19-1.21,2.16-3.66,4.58a21.4,21.4,0,0,1-4.21,3.29c-4.81,2.55-8-1.54-13.54-.18-6.83,1.68-10,10-10.24,10.79a21,21,0,0,0-.92,9.15c.56,8.23,4.68,12.58,2.75,15-1.15,1.43-3,.35-9,.55-8.37.27-9.6,2.53-16.1,1.83a29,29,0,0,1-8.23-2.2,35.27,35.27,0,0,1-9.88-6.4c-4.46-3.81-18.7-16.1-19.76-17-6.31-5.45-9.14-7.62-11.89-6.76-2.42.75-2.44,3.14-6.58,5.67-3.3,2-4.14,1-7.14,2.92-4.41,2.81-4.48,6.16-6.95,6.41-1.66.16-3.08-1.21-7.13-6.59-7.3-9.67-6.54-10.32-10.43-14.63-2.88-3.2-5.08-4.83-7.68-9.15s-2.45-6.12-2-7.14c1.12-2.58,4.77-2.31,4.94-4,.15-1.47-2.46-2.95-7.68-5.85-3.33-1.86-3.38-1.61-4.76-2.57-3.69-2.55-4-4.76-6.77-7.68-4.88-5.18-8.41-3-10.42-6.77-2.93-5.43,2.24-14.31,3.11-15.73,2.1-3.47,3.77-4.26,4.2-7.32.36-2.46-.56-3.14-2-8.78-1.14-4.44-1.91-7.52-1.46-11.16.19-1.59.43-1.76,2.19-6.77,4.13-11.72,3.9-13.82,3.11-15.37-1-1.88-2-1.59-3.47-4.39-1.24-2.4-.92-3.55-2-5.85-.75-1.58-1.85-2.72-4-4.94a90.41,90.41,0,0,0-8.42-7.32c-3.24-2.62-4.88-3.94-5.67-4.2-3.93-1.31-7.88.24-11,1.46-3.47,1.36-3.64,2.22-8,3.84-3.76,1.38-5.41,1.41-6.59,1.28a10.29,10.29,0,0,1-5.49-2.19c-3.37-2.84-2.89-6.86-4.75-7.14-1.28-.19-2.13,1.6-4,3.48-2.39,2.36-5,2.69-9.69,4.94-8.11,3.91-15.93,3-19.58,2.56-4.18-.5-7-.87-8.78-3.11-2.35-2.95-.24-5.71-2.56-9.15-2.74-4.07-8.85-4.91-10.43-5.12-4.29-.59-7,.58-9.88-1.47a10.2,10.2,0,0,1-2.56-2.74c-1.1-1.87-.58-2.71-1.28-3.66-1.67-2.28-6.32.23-11-1.1-3.19-.9-4.85-3.18-7.31-6.22-9.86-12.15-15.74-19.39-21.59-19-.91.06-.38.21-9.33,5.49-7.36,4.34-8.36,4.47-9.88,6.4-2.79,3.56-2.19,5.89-5.49,9.15-2,2-4.17,2.93-8.41,4.75a62.29,62.29,0,0,1-9.88,3.3l8,12.8-15.55,15.19q-.18,22-.37,44.08c-.14,1.41-.57,3.06-1.83,3.85-2.78,1.74-7.85-1.87-12.07-4.94s-9.09-6.62-13.72-13.54c-4.81-7.18-1.81-7.28-7.5-16.28-1.5-2.37-6.7-10.25-7.69-17.38a8.16,8.16,0,0,1,.37-4c1.28-3.37,4.76-4.84,6-5.3q1.45-14.08,2.92-28.17a11.4,11.4,0,0,0-3.29-5.68c-3.07-2.75-6.47-2.23-19-2.37-9.69-.11-10.32-.45-11.9.54-4.37,2.77-1.88,6.86-7.5,16.47a57.53,57.53,0,0,1-9.51,11.89c-1.3,1.25-2.45,2.24-3.29,2.93l-23.42-.73a32.6,32.6,0,0,1-.55-19.4c8.21-4.41,21.57-13.25,30.74-29.27A71.52,71.52,0,0,0,1057.6,258q.2-8.88.37-17.75a37.91,37.91,0,0,0-3.66-7.68c-.65-1-8.18-13-13.17-11.34-3.08,1-2.23,7.18-7.32,9.88-3.69,2-8.1.81-8.41.73-3.24-.88-3.32-2.48-6-2.93-3.42-.56-6.47,1.46-9.15,3.29-3.83,2.62-3.56,3.77-7.13,6.77-1,.81-2.9,2.34-14.27,7.69-5.34,2.51-5.13,2.27-8.42,3.84-14.16,6.76-16.8,10.53-21.22,9.15-1.2-.38-3.54-2.39-8.23-6.41-2.86-2.45-4.29-3.68-4.76-4.39-3-4.63.59-8.66.55-18.29,0-4.32,0-11.1-4.57-15.73-2.44-2.49-5.38-3.55-8.23-4.58-4.86-1.74-8.34-3-11-1.46-4.51,2.61-1.19,10.18-6.77,14.45-1.86,1.42-3.11,1.26-6.4,3.84-.68.54-.77.65-4.58,4-3.38,3-3.91,3.44-4.94,3.84a10,10,0,0,1-5.67.36,11.79,11.79,0,0,1-7.86-5.67c-2.1-3.88.22-6.28.91-15.18.74-9.4-1.64-9.39-.18-15.37,1.75-7.21,5.55-8.69,4.94-14.08-.17-1.45-.47-1.6-4-8.42-3.67-7.05-5.51-10.58-6.58-13-3-6.78-3.18-9.05-5.86-10.43-1.38-.71-1.94-.41-6.58-1.09-4.13-.61-6.33-1.23-8.42-1.65-5.18-1-8.36-.63-18.47-.55s-15.28.12-19.4-.55a46.9,46.9,0,0,1-16.46-5.3c-2.62-1.48-4.86-3.24-9.33-6.77-5-4-8.74-7.3-11-9.33-13.48-12.26-20.27-18.53-22.87-25.43a36.18,36.18,0,0,1-2.56-9.33C760.06,86.13,762,81.4,759,78.74c-.26-.24-.28-.21-3.47-1.65-4.16-1.88-5.4-2.52-7.5-3.48-9.35-4.25-11.65-3.83-17.56-7.31-3.71-2.18-5.93-4.18-10.25-8-5-4.49-6.86-7.09-8-10.06-.71-1.79-.38-1.71-.91-2.93-2.73-6.23-9.86-4.91-19.76-11.34-4.59-3-5.85-5.08-9.33-5.13-2.55,0-4.14,1.06-7.87,2.93-3.91,2-8.06,3.4-12.07,5.12-7.85,3.38-15.43,6.64-25.25,7.32a45,45,0,0,1-13.35-.91,47.32,47.32,0,0,1-9.88-3.66c-6.75-3.14-6.51-4.27-15.55-9.33-5.44-3.05-6.85-3.39-8.42-5.67-1.82-2.67-3.45-7.38-1.64-10.8.89-1.69,2-1.84,4-5.12,1.74-2.8,1.64-3.82,1.47-4.39-.37-1.17-1.54-1.91-3.3-2.56-2.48-.92-8.53-3.15-14.45-.37C571.41,3.48,571.91,6.7,568.68,10.16Z"/></g></g></svg>