<svg xmlns="http://www.w3.org/2000/svg" viewBox="0 0 2340.63 2866.17"><g id="Layer_2" data-name="Layer 2"><g id="Monaco"><path d="M2163,77.58c-8.92-8.22-15.55-14.38-19.79-18.34-12.56-11.71-13.3-12.55-16.35-14.35-3.92-2.32-6.6-3.23-8.72-6.54s-1.45-5.32-2-14.17c-.68-11-2.19-17.58-.19-18.34,1.39-.52,3.22,2.19,4.55,1.45s-.21-3.65,1.27-5.63c1.91-2.56,7.44-1.56,11.08-.91,5,.91,4.6,2.07,8.53,2.73,6.76,1.13,9.32-1.85,12.9.36,2.51,1.55,1.6,3.24,4.36,5.63,3.5,3,6.84,1.94,12.16,3.45,5.88,1.67,5.47,4.06,12.72,8,7.44,4,9,2.12,18.16,6,6.84,2.89,5.74,3.85,15.62,9.08,11,5.83,13.79,5.39,18.52,9.62,5,4.49,2.65,6.36,8.72,13.81,5.84,7.16,8.83,7,11.08,12.35,1.27,3,.59,3.78,1.09,14.16.58,12.17,1.54,11.8,1.27,18.17a81.83,81.83,0,0,1-2.9,17.43,113.26,113.26,0,0,1-3.82,12.17q.27,8.79.18,18.16c-.06,6.66-.07,10.07-.36,14.35-.64,9.34-1,14.69-2.54,19.43a26.93,26.93,0,0,0-1.27,5.82,22,22,0,0,0,0,5.63c.63,3.95,2.63,4.31,5.63,9.8.51.94,1.67,3.89,4,9.81a52.2,52.2,0,0,1,2.36,6.72,36.45,36.45,0,0,1,1.09,7.63c.47,8.5,10.73,20.72,17.8,30.69,6.37,9,9.65,13.62,12.72,20.89,6.39,15.2,8,32.75,8.89,43.22a97.12,97.12,0,0,0,1.46,11.45c1.38,7,2.49,7.94,5.08,18.7,1.7,7.06,2.55,10.58,2.36,11.81-.12.81-.51,2.76.55,3.81s3.1.59,3.27.55c2.56-.68,3.39-3.6,3.45-3.82l11.8-.18L2327,374l-10.72.19c-1.47.28-3.4.88-4,2.36-.7,1.72.56,3.42,1.27,5.81.62,2.09.93,5.28-.73,9.81q4.11,22.08,8.36,44.31,2.43,12.75,4.9,25.43l14,51.4c.33,5.07.52,10.41.55,16,0,8.4-.31,16.29-.91,23.61a82.3,82.3,0,0,1-6.54,13.08c-3.38,5.48-5.51,8.94-9.26,11.8-4.7,3.6-7.54,2.89-18.53,5.81-9,2.39-8.55,3.25-20.7,7.09a212.77,212.77,0,0,1-21.61,5.81c-11.15,2.27-24,4.89-39.78,2.18-6.64-1.14-16.82-2.89-27.24-10-8.12-5.53-13.53-12.89-24.34-27.61-5.94-8.09-10-14.47-11.26-16.34-15.46-24.1-25.3-39.43-33.42-60.66-5.56-14.54-7.23-23.79-16.71-30-1.68-1.1-8.57-5.46-17.43-4.72-6.71.56-11.23,3.76-19.25,9.44a99.54,99.54,0,0,0-14.71,12.9c-2.6,2.67-6.85,8.17-15.26,19.07-6.19,8-7.07,9.32-7.08,11.62,0,5.28,4.63,5.18,12.35,16.16,4.75,6.76,7.07,12.61,14.16,15.62a20.81,20.81,0,0,0,2,.73L2083.27,520l3.45,5.26q-16,20.81-32,41.59a44,44,0,0,1-9.26,12.54c-2.31,2.16-4.75,3.74-9.63,6.9-4.69,3-7.16,4.41-9.26,4.18-5.56-.62-8.59-9-9.08-10.36a60.72,60.72,0,0,0,12.35-4.54,48.75,48.75,0,0,0,9.62-6,46.73,46.73,0,0,0,10.36-11.81,47.31,47.31,0,0,0,4-8.17,27.7,27.7,0,0,0-3.63-4c-5.24-4.72-9.43-4.77-16.89-8.35-6.62-3.18-5.42-4.14-12-7.26a58.18,58.18,0,0,0-14.71-4.73c-6.19-1-11.53-.59-25.79,2.55-15,3.29-22.47,4.94-27.24,6.9-6.31,2.59-19.87,8.34-31.42,21.61-6.82,7.82-10.27,15.2-14.9,25.06-5.32,11.36-9.46,16-8.71,23.07.54,5.14,2.86,9,4.72,12.17s5.86,7,13.62,14.35a63.94,63.94,0,0,0,16,11.62,10.87,10.87,0,0,0,4,1.27c5.78.56,12.83-4.09,13.8-9.44.44-2.42-.49-4.22.91-5.63s3.52-1.15,4.36-1.09,3.09.22,4.17,1.81a4.86,4.86,0,0,1,.37,3.82c-1.91,8.16-22.37,18.12-31.79,31.6-.89,1.28-3.33,4.95-7.44,5.81-2.14.45-5.92.39-7.63-2.18-.69-1-1.33-2.91-.54-4.36,1.22-2.26,4.45-.79,8-2.9,4.62-2.77,5.47-9.1,5.63-10.72a13,13,0,0,0-.55-5.81c-1.85-5.09-6.65-5.59-12.53-9.81-8.79-6.3-6.89-11.53-14.53-15.44-4.75-2.43-9.2-2.3-13.62-2.18-2.84.09-8.5.53-25.43,8.18a179,179,0,0,0-25.24,13.26c-7.76,5-12,7.7-16.53,12.16-11.31,11.22-15,24.36-17.07,31.61a85.89,85.89,0,0,0,0,46.85c.38,1.25,0-.06,7.08,17.8,2.41,6.11,3.21,8.17,5.45,10.36,3.62,3.53,9.92,6.35,15.8,4.9,7.78-1.92,12-10.6,14.71-16.35,1.69-3.51,3.35-8.17,7.63-14.89,2.57-4,3.89-5.35,4.72-5.08.39.12,1.27.76.91,8.17-.35,7-.54,10.85-2,14.89-1.07,3-3.5,7.88-13.07,15.26-13.54,10.42-19.89,9.22-30.15,16.89-4.82,3.6-11.23,9.7-16.71,20.34q-.83,40.41-1.64,80.82L1740.37,953c-4.6,8.5-10.75,19.49-18.34,32.15-12.23,20.39-17.84,27.83-27.42,44.86-8.24,14.63-13.65,26.1-17.08,33.41-19.38,41.35-27.23,71.56-32.32,82.64a21.6,21.6,0,0,0-1.46,4.18c-1.21,5.1-.09,8.76.37,12.17.27,2.09,1.46,11-2.73,17.25-3.89,5.76-9,4-12.71,10.17-1.36,2.23-1.71,5.57-2.36,12.17-1,10-1.48,15,0,20,1.84,6.14,5.61,11.21,7.26,13.44,4,5.44,5.89,5.74,6,8.35.2,5-6.59,6.48-8.9,14.9a14.12,14.12,0,0,0-.55,6.9c1.22,6.08,6.56,7.62,6.18,11.44-.17,1.67-1.26,2.07-6.36,6.54-6.21,5.43-9.32,8.21-9.81,11.08-.26,1.53.67,4.18,2.54,9.44,2.76,7.72,3.61,8,3.64,10.35,0,1.16-.17,3.83-7.45,12.53-7.87,9.42-10.88,10.17-11.26,14.53-.28,3.21,1,6.66,2.54,10.72,1.72,4.57,2.69,4.91,2.73,6.9.08,4.23-4.22,6.17-10.54,12.17-5.24,5-11.37,10.8-13.25,19.25a25.3,25.3,0,0,0,.18,11.63c1.45,5.44,3.87,6.35,7.44,12.89,2.06,3.76,5.49,10,5.27,16.71-.21,6.4-3.68,10.85-7.45,15.8-8.66,11.38-16.45,23.41-25.24,34.69-4.33,5.56-10.58,13.83-17.8,24.34q24.62,61.29,49.22,122.59l-20.34,12.71-51.95-125.31a44.63,44.63,0,0,0-16.34,3.26c-4.46,1.8-37.64,11.31-132.58,37.24l-2.55-.18L1403.83,1700l-40.32,4.91c-.2-1.91-.55-4.82-1.09-8.36-1.68-11-3-13.18-1.63-17.07.44-1.27,2-3.57,5.08-8.17,3.23-4.8,3.68-4.84,4-6.36.66-3.13-.59-6.09-2.91-11.62-.33-.79-1-2.43-2-4.91,0,0-.65-1.69-1.28-3.45-1.11-3.15-8.36-40.37-17.43-91.54L1266,1562q.74,6,1.46,12l-44.14,8.35-12.89-12.53-200,31.24-4.9,4.9c-1.38,2.2-3.24,5.29-5.27,9.08a162.36,162.36,0,0,0-9.44,21.8c-1.58,4.31-4.77,13.25-9.08,28.33-5.26,18.39-6.91,27.42-7.63,36.69-1,13.48.62,18.06,3.63,20.34,3.68,2.78,6.94.27,12.72,4.18,2,1.36,1.87,1.84,8.89,8.35,3.79,3.51,3.81,3.35,4.55,4.18,3.4,3.83,3.87,8.26,4.72,16,1.36,12.43,2,18.64,2,19.43-.78,13-5.84,17.93-2.55,25.07a15.84,15.84,0,0,0,5.27,6.17c8.32,5.73,19.19.86,20.25.37l-10.35-54.49,6.54-1.36,10.08,55.85,35.78-9.27-12.54-57h11.08q12.72,66.92,25.43,133.85l-11.08,1.27q-5.44-28.07-10.9-56.12l-31.42,7.81q3.83,28,7.63,55.94l-7.17.36q-4.1-28-8.18-56.12l-11.44.82c0,1.23,0,3.13,0,5.45a156.82,156.82,0,0,0,1.64,19.88c1.9,13.79.31,16.22,1.9,31.61a206.36,206.36,0,0,0,4.91,27.78c5.26,22.15,7.9,33.23,15,41.69,9.92,11.84,16.21,7.48,29.15,22.61,4,4.73,9.77,11.42,13.62,21.79,4.43,11.92,2.14,17.28,6.54,20.43,6.26,4.49,16.81-2.11,32.42-9a257.61,257.61,0,0,1,45.22-15q-10.62-31.34-21.25-62.66l-15.25,1.36-3.27-8.71,34.87-11.45,3.27,9.27-13.9,6.81q11.17,30.51,22.34,61a236.72,236.72,0,0,0,39.78-5.45c8.7-2,19-5.15,39.23-11.44,13.28-4.13,21.49-6.79,27.51-8.72,22.63-7.21,42.69-12.8,82.82-24,10.09-2.81,24.38-6.76,41.68-11.44l-17.43-108.7-12.53.27.27-27.79,9-8.44h20.7l6.27,10.08q3,19.89,6,39.77l43.59,37.87,36.51-3.54,12.26,6.54,211.95-255,22.07,17.44q-106.8,127.21-213.59,254.45L1553.4,1904l-89.09,105.16c-11.72,19.14-11.53,29.61-9,35.69,1.07,2.56,3.74,7.16,4.63,14.44a52.69,52.69,0,0,1-.27,12.8c-.65,6.05-1.15,10.71-3,15.26-1.25,3.07-5,10.79-16.07,16.89.09,10.6-3,16.32-6,19.61-2.55,2.8-5.38,4.25-11.44,10.36-3.43,3.45-5.14,5.17-6,6.53-6.82,10.89,5,21.89-1.09,35.42-1.33,2.95-2.16,3-6.26,10.62-3.11,5.76-4.94,10-5.72,11.72-6,13.28-16.88,24.19-22.07,29.42-6.06,6.11-11.29,11.3-19.89,16.07-5.8,3.23-9.41,5.42-15,6.27-12.15,1.85-23.08-3.85-25.61-5.18-5.39-2.81-6.6-4.8-12.26-6.53-4.55-1.4-9.41-2.9-13.62-1.09-7.74,3.31-4.92,14.19-13.08,23.43-4.74,5.36-7.09,3.28-19.89,9.8-6.71,3.43-5.35,3.64-34.59,26.16-7.65,5.88-10.74,8.18-13.08,13.07-3.76,7.87-.94,12.77-5.18,16.62-4.64,4.23-9.59-.24-18.52,4.09-2.27,1.09-1,.92-11.17,9.26-8.35,6.84-10.18,7.76-11.72,11.17-2.1,4.68-.22,6.45-2.72,10.08-1,1.41-2,2.15-10.63,6.54-9.17,4.64-10.62,5.1-12,5.45a32.69,32.69,0,0,1-11.17.81l-81.73-.81q-4.1,45.63-8.17,91.26,1.35,4.77,2.72,9.54l-19.34-.82q2.71-49.59,5.45-99.17a9.54,9.54,0,0,0,0-6.81,9.83,9.83,0,0,0-5.45-5.17,12.7,12.7,0,0,0-9-.28c-5.49,1.88-5.55,6.19-9.27,7.36-3.33,1.05-6.73-1.32-16.34-9.54-19.25-16.44-16.47-16.22-22.61-19.88s-10.88-5.11-13.35-10.63c-1.11-2.48-.78-3.61-1.91-9-.15-.7-1.89-8.85-4.36-14.16-.57-1.24-7-14.58-17.16-16.08-2-.29-6.39-.45-26.43,15.26-13.26,10.4-14.19,12.71-19.88,14.71-13.53,4.75-27.16-1.62-28.88-2.45-3.53-1.71-8.8-4.92-33.78-45.23a229.41,229.41,0,0,0-18.53-26.15c-5.92-7.19-9.49-10.55-13.08-13.35-7.57-5.9-14.39-8.61-21-11.17-7.93-3.08-20.62-7.87-37.6-7.63a87.85,87.85,0,0,0-20.43,2.73l-68.11,60.48a42.57,42.57,0,0,0,10.35,22.88,37.31,37.31,0,0,0,10.63,8.18c2.63,1.3,8.44,4.16,15.53,3.54,10.88-1,12.52-9.07,21.79-8.18,3.53.34,6.7,1.85,10.08,0,1.6-.86,2.7-2.18,5.45-3.27a16.77,16.77,0,0,1,4.63-1.08l50.95-4.64-.28,8.45-50.12,3.27.81,36q1.92,33,3.82,65.93l46.86-.82,4.08,46,165.91-10.35,3.27-8.72c.39,1.61.91,4,1.36,6.81,1,6.22,1.46,9.39.28,12s-2.55,2.24-5.18,6.26a24.67,24.67,0,0,0-3,6.27c-1.58,6,4.5,9.78,9.27,19.34,5.4,10.83,1.66,14,7.62,24.25,2.79,4.76,3.81,4.42,9.81,11.71,10.92,13.28,8.86,16,17.44,25.88,8.16,9.39,8.55,5.2,21.52,18,3.1,3.06,6.9,7.07,12.53,7.36a14.76,14.76,0,0,0,8.17-2.18l100-60.75,10.89,16.89c-53.46,30.84-109.49,66.13-167,106.52q-47.75,33.54-90.44,67l3.81,13.89c-6.51,1.31-11.09.65-14.17-.27-1.42-.43-3-1.07-4.35-.27-2.21,1.31-1,5-2.73,8.71-.9,1.94-2.82,4.36-7.35,6.27l-69.2,67-2.73,20.7-13.35-5.17q-25.87,27.91-51.76,55.84L0,2358.91a194.26,194.26,0,0,1,20.16-43c6.77-10.74,14.51-20,29.69-38.14,12.53-14.95,13.39-15.22,24.52-28.34,33.13-39,35.34-48.14,55-62.93,5.07-3.81,4-2.48,24-16.34,21-14.55,23.38-16.82,30.78-19.62,13.54-5.12,26.26-5.38,32.15-5.45,8.57-.1,7.6,1,20.7,1.36,15,.46,23.21.62,32.42-3a51.33,51.33,0,0,0,16.08-10.35c11.75-11.32,14.35-29.13,19.07-64.3,1.45-10.83,2.51-21.55,3-33.51.64-15.77,1-23.65-.81-32.14-1.15-5.51-4.63-21.27-16.62-35.69-8.15-9.81-14-11.46-18.25-22.07-1.78-4.41-4.63-11.48-2.18-18.8,1.48-4.43,3.62-5.12,11.44-16.62,5.14-7.56,5.5-9.14,5.45-10.62-.18-5.15-5.14-7-13.08-14.17-10.8-9.79-8.23-12.44-22.88-27.78-6.56-6.87-7.94-7.25-8.45-10.08-1.46-8.13,8.14-14.64,21-28.34,11.33-12.08,11-14.64,20.7-25.88,14-16.28,23.74-21.39,50.13-41.41,28.95-22,49.92-40.55,63.48-52.58,16.22-14.39,16.46-15.57,38.14-35.68,45.14-41.91,82.88-72.81,102.16-88.54,30.36-24.78,23.61-17.92,49.85-39.51,13.19-10.85,59.62-49.36,121.78-109.24,5.88-5.67,1.56-1.57,22.61-22.07,84.27-82.09,94.83-90.75,119.32-118.23,19.7-22.11,29.55-33.16,39.51-45.77,16-20.22,19.1-26.59,31.87-38.14,12.18-11,17.1-12.25,24.79-22.89,8-11,6.12-14.39,16.62-30.51,9.11-14,10.14-10.88,17.16-22.88,5.94-10.14,9.59-19.84,15.8-20.16a29.24,29.24,0,0,1,8.72,1.36c2.92.9,3.37,1.51,4.91,1.91,3.49.9,7.18-.76,15-6.54,5.58-4.14,8.51-6.86,15-12.26,10.36-8.64,11.6-9,12.81-9,5-.17,5.79,4.38,19.34,15,6.2,4.85,10.69,7.54,16.35,9a36.14,36.14,0,0,0,7.62,1.09c13.91,1,23,19,43.59,36.78,11.86,10.22,20.22,17.23,29.15,15.26,6.45-1.43,10.47-7.4,18.53-19.34,6.64-9.85,10.18-18,20.16-31.06,3.56-4.68,7.26-9.08,12-9,4.33.08,6.19,3.84,11.17,3.81,1.2,0,4.26-.23,9.81-4.9,7.49-6.3,8.8-11.66,13.9-18.25,5.64-7.31,7.46-5.18,15.8-13.35,7.18-7,7.52-10.31,22.88-34.06,5.08-7.85,7.61-11.77,9.81-14.71,10.55-14.12,18-18.75,25.33-26.42,16.31-17.12,9.27-25.76,32.15-64,4.06-6.79,8.86-14.16,17.16-21.24,8.73-7.45,12.2-6.77,22.34-13.35,17-11.06,26.6-25.52,33.51-36,6.18-9.35,10.28-15.54,13.35-25.07,6-18.5.38-25.81,3-49.31,1.54-13.82,4.82-23.37,10.08-38.68,6.28-18.31,8.79-19.14,20.16-48.22,7.67-19.62,11.49-29.56,10.62-35.69-.83-5.88-4.61-21.93-.27-27.79a32.08,32.08,0,0,0,3.27-5.18,37.58,37.58,0,0,0,2.45-6.53c2.89-9.21,4.36-8.79,4.36-12,0-4.08-2.39-3.73-4.9-11.17-1.24-3.67-3.25-9.61-.55-13.62,1.24-1.84,2.19-1.38,3.27-3.27,1.87-3.26,0-6.22,0-10.9a22.16,22.16,0,0,1,3-10.08c3.49-5.89,9.86-6.94,17.43-9.81,0,0,12.84-4.86,22.61-13.07,8.28-6.95,8.68-14.44,15.81-43.59.49-2-4.16,17,12.53-46,9.27-35,10.07-38.54,15-42.23,13.62-10.24,30.07-.3,40.59-12.53,2.79-3.24,4-8.33,6.54-18.53,4.2-17.09,1.72-20.92,5.45-34.05,3-10.56,5.84-20.57,14.17-25.06,3.9-2.11,7.49-2.18,28.6,1.9,24.45,4.73,29.42,6.72,41.68,7.36,11.54.6,17.31.9,23.43-1.36,15.39-5.69,13.86-17.22,31.33-26.7,6.47-3.52,5.17-1.11,26.7-9.54,11.23-4.39,16-6.77,20.7-9.8s5.07-4,15.53-12.81c20.52-17.3,22.21-16.11,26.16-22.61s4.84-12,9.53-13.08c4.19-.93,8.85,2.25,10.35,3.27,5,3.41,4.86,6.5,8.45,7.9,3.79,1.49,7.55-.55,12.26-2.72,7.12-3.28,14.92-4.93,22.07-8.17a350.57,350.57,0,0,1,34-13.35c26.33-8.45,32-1.89,56.12-9a130.12,130.12,0,0,1,29.15-5.45c2.47-.17,4.48-.24,5.72-.27Z"/></g></g></svg>