<svg xmlns="http://www.w3.org/2000/svg" viewBox="0 0 3271.6 1577.31"><g id="Layer_2" data-name="Layer 2"><g id="Mongolia"><path d="M2895.71,995.41c3.05-2.36,4.24-5.9,5-8.14,1.55-4.6,1.07-8.52.4-13.55-1.23-9.14-3.18-8.67-2.75-12.57.6-5.42,4.48-7,13.35-17.86,0,0,3.4-4.15,7.27-9.63,12.06-17.1,12.74-26,20-27.48,4.39-.92,7.17,1.72,10.8-.79,2.21-1.52,3.16-3.86,7.07-5.89a19.27,19.27,0,0,1,3.54-1.38c5.14-1.33,9.92,1.12,13,2.36,3.42,1.4,10.13,1.79,23.56,2.55,10.37.6,13.9.09,15.71-2.35.68-.93,1-2.65,1.57-6.09,1-5.51.24-6.33,1.18-10.6s1.86-4.31,1.76-6.88c-.13-3.57-2-5.84-1-6.87.68-.69,2.08-.24,3.14,0,7.57,1.72,11.64-5,17.48-2a32.1,32.1,0,0,1,5.1,3.53c3.47,2.9,3.6,4.15,5.5,5.5,3.59,2.56,10,3,13.75.2,4.58-3.45,2.17-9.62,7.06-12.57,2.23-1.34,3.13-.31,7.47-1.37,3.82-.94,4.78-2.15,11.58-6.09,7.83-4.54,7.29-3.37,14.53-7.66,5.25-3.11,6.05-4,8.44-4.32,5-.61,8.74,2.51,12,4.52,13.56,8.41,33.75,7,37.31.59,1.76-3.18-.38-7.86,1.77-8.84,1.17-.53,3,.36,3.92,1.18,1.64,1.39,1.11,2.75,2.56,3.93,1.75,1.43,4.38,1,5.3.78,3.54-.64,4.25-2.94,6.08-2.55,1.58.33,1.68,2.17,3.93,5.69,2,3.16,3.45,5.42,5.89,6.48,3.72,1.62,5.52-1.41,9.82.2,1.71.64,1.14,1,6.28,4.32,3.41,2.19,4.49,2.56,5.5,2.75a12,12,0,0,0,5.89-.59c4.55-1.38,4.37-3.12,7.66-4.12,4.14-1.27,8.55.25,13,1.76,2.51.87,3.38,1.47,5.69,1.77.7.09,2.44.27,7.27-.59,6.18-1.09,9.29-1.68,10-3.73.54-1.51-.65-2.55,0-3.34,1.46-1.75,7.7,3,10.41,1,1.12-.84,1-2.39,1-6.28-.17-12,.48-9.31,0-15.31-.52-6.53-.78-9.8-1.57-12.18-2.77-8.32-7.18-8.09-9.62-15.9-1.78-5.7.36-6.46-1.77-13.16a39.63,39.63,0,0,0-6.09-11.39c-3.77-5.39-5.66-8.09-9.22-9.82-3.9-1.89-6.56-1.17-8.25-3.53-1.55-2.16-1.07-5.18-.39-7.46l-18.26-15.51q-.6-6.28-1.18-12.57l-20.23-7.85q-2.06-8.84-4.12-17.68l-35.54-17.86q-9.22-13.37-18.46-26.71a10.72,10.72,0,0,0-3.53-6.09c-3.5-2.78-8.43-2.19-12-1.76-6.26.75-8.44,2.88-11,1.37-2.34-1.38-1.29-3.62-3.53-5.69-4.5-4.17-14.9-.77-18.46.39-3,1-5.3,2.13-9.23,2.16a24.81,24.81,0,0,1-5.89-.78,50.92,50.92,0,0,0-14.33-.79l-3.12,3.9L3013,709.43l-38.49-30.24a21.7,21.7,0,0,0-8.24-5.5c-3.73-1.35-6.25-1-19.25,0-10.84.82-10.59.68-11.58,1-7.23,2.24-9.38,6.45-15.91,6.48a19.74,19.74,0,0,1-6.47-1.17c-5.12-1.76-6.22-4.32-9.43-5.11-2.28-.56-5.9-.31-11.39,4.12l-24.35,25.53-38.29-35.74q-1.56-18.06-3.14-36.13L2854,617q-.09-20.93-.19-41.83c13.08-24.25,19.29-33.1,22.18-35.14a14,14,0,0,0,6.09-10c.92-6.49-1.67-12.79-2-13.55-3.68-9.35,7.73-23.43,22-49.28a392.64,392.64,0,0,0,21.21-43.59c.16-.4,3-7.41,7.06-16.69,5.63-12.77,8.52-19.24,12.18-24,3.51-4.52,5-5.16,5.69-8.24,1.45-6.71-3.38-14.37-9-18.46-1.12-.81-1.67-1.05-12.17-4.91-8.76-3.22-13.19-4.85-15.71-5.7-9.36-3.14-14-4.71-15.71-4.71-3.14,0-5.2.71-22.78,10-9.12,4.83-10.69,5.78-14.72,7.46-7,2.9-10.82,4.5-16.3,4.91s-9.42-.61-17.08-2.56a83.32,83.32,0,0,1-15.91-5.3c-9.84-4.62-16-10.71-21.79-16.49-6.73-6.74-8.27-10-18.66-20.23-4.38-4.31-6.67-6.26-10.21-7.65-4.58-1.81-6.53-.81-17.47-1.18-9.29-.32-13.94-.48-18.46-2.16-6-2.23-6.59-4.4-12.17-5.5a26.76,26.76,0,0,0-13,.79c-5.52,1.68-6.22,3.81-16.69,11-6.12,4.2-5.39,3.14-13,8.25-9.48,6.39-9.58,7.36-14.53,9.82-6.78,3.37-8.06,2.3-12.18,5.49-4.86,3.78-4.31,6.24-8.83,8.84-4.85,2.79-6.73.69-11.39,3.34-4.9,2.78-4,6.54-9,10.21-6.44,4.72-9.8,3.31-15.32,6.67-8.63,5.26-12.1,15.78-15.12,24.94-1.7,5.17-4.18,14.7-9.62,19.05a17,17,0,0,1-3.93,2.35c-4.17,1.66-6.31.14-9.42,1.18-4,1.34-3.44,4.81-7.07,7.46s-7,1-19.24.2c-8.71-.57-13.26-.86-19.05.39s-4.4,2.27-15.12,5.89c-7.77,2.63-11.05,2.95-17.48,6.09a47.68,47.68,0,0,0-8.05,4.91c-3.35,2.54-3.91,3.7-5.49,4.91-7.5,5.74-16.19-3.86-28.87.59a117.29,117.29,0,0,0-12,4.71c-2,1-4.18,2.25-7.06,2a13.32,13.32,0,0,1-5.31-2c-2.92-1.72-2.83-2.82-4.71-3.53-.65-.25-2.74-.92-8,1.37a35.4,35.4,0,0,0-8.44,5.11A101.28,101.28,0,0,1,2375.26,463c-6.84,3.43-8,2.43-18.26,7.27-6.38,3-5.21,3-7.85,3.93-7.27,2.45-9.83.07-24.74,0-7.39,0-8.91.53-11.59-1-4.53-2.56-5.23-7-9-7.46-.54-.05-1.53-.07-6.68,3.15-5.9,3.69-8.72,6.3-13.55,7.85a8.52,8.52,0,0,1-4.31.39,9.32,9.32,0,0,1-4.52-2.55c-3.32-2.85-8.33-2.27-12.76-2.16-12.48.31-13.11-3.21-30.44-3.53-12-.23-14.07,1.42-18.06-1.18-3.77-2.46-3.71-5.08-11.39-12.77-4.91-4.91-6.8-5.7-8-6.08-4.66-1.42-8.25.59-13,2-4.35,1.27-4.44.48-23.56.39-14.93-.06-22.4-.09-25.33.2-10.22,1-16.49,2.93-20-.79-.61-.64-2.18-3-5.3-7.65-1.9-2.84-2.1-3.24-2.95-4.32-2.81-3.57-4.61-4.2-6.87-6.48-4.86-4.9-2.47-7.92-6.48-11.59-3.73-3.4-6-1-12.57-4.51-5.54-3-4.5-5-10.6-8.64-6.35-3.78-9.65-2.88-11.19-6.09-1.2-2.5.65-3.36,1-10a40.76,40.76,0,0,0-1.57-13.16c-.92-3.15-1.24-2.72-2.16-6.09-1.16-4.23-2-7.38-1.18-11s2.72-5,2-6.09c-.86-1.32-3.89-.26-7.07,0-6.93.56-9.25-3.12-16.69-5.11-6.4-1.71-5.8.73-20.61.4a108.66,108.66,0,0,1-17.87-1.77c-5.3-1-8.77-1.67-13.16-3.73a38.74,38.74,0,0,1-11.58-8.25,28.4,28.4,0,0,1-6.48-9.81c-2.43-6.56.19-8.25-2.16-13-1.35-2.72-5-5.16-12.17-10.21a66.65,66.65,0,0,0-8.25-5.11,67.73,67.73,0,0,0-9.43-3.93c-8.74-3-13.14-4.45-17.86-2.75-2.88,1-2.12,1.91-5.7,3.34-4.36,1.74-5.92.62-13.35,1.77-5.37.83-6,1.63-8.25,1-3.51-1-3.28-3.35-6.87-4.52-3.88-1.25-5.55,1-9.43-.58a11.18,11.18,0,0,1-4.32-3.34c-2.57-3.25-1.14-5.24-3.14-7.46-1.8-2-3.81-1.33-10.4-3-4.6-1.13-4.34-1.64-7.47-2.36-7.75-1.77-9.94,1.24-20,.59-1.08-.07-4.19-.57-10.41-1.57s-9.2-1.48-12.76-2.16c-8.55-1.63-8.87-2.1-11-1.76-4.65.72-4.87,3.23-11.19,6.48-2.23,1.14-8.56,4.39-16.3,4.12-5.74-.2-6.65-2.15-12.37-1.57-3.15.32-7,.71-9.62,3.53-2.85,3.07-2.56,7.15-4.71,7.46-1,.15-1.35-.65-3.14-1.57a12.7,12.7,0,0,0-8-1.17c-3.11.67-3.18,2.52-7.86,5.1a28.53,28.53,0,0,1-5.69,2.36c-7.9,2.41-11-.5-15.51,2-2.85,1.57-1.57,2.75-5.9,7.46-4.76,5.19-6.75,4.23-12.56,9.82-4.6,4.41-4.41,6-7.07,6.68-3.18.77-4.59-1.24-11.39-2.16-4.69-.64-4.41.27-7.26-.4-7.34-1.7-9-7.65-12.57-6.87-2.74.59-2.15,4.08-7.27,8.64-1.88,1.67-4,3.53-6.87,3.93s-4.37-.86-10.21-3.93a96.81,96.81,0,0,0-14.92-6.68c-4.47-1.44-6.76-2.16-9.62-1.76-5.32.73-7.69,4.23-9.43,3.14-1.46-.92-.36-3.74-.39-11,0-9.61-2-11-2.55-11.39s-1.45-.68-5.31-.19a71.22,71.22,0,0,0-10.6,2.35c-6,1.59-9.06,2.37-12,2a19.64,19.64,0,0,1-6.67-2.36c-4.27-2.18-4.61-3.7-11.19-8.64-5.58-4.19-7.29-4.57-8.25-4.71-2.94-.43-4.35.56-6.09-.59-.56-.37-1.83-1.41-2.75-7.27-1.09-7,.32-8.14-1.17-10.21-2.42-3.34-7.2-1.87-8.45-4.9-.91-2.22,1.44-3.52.79-6.48-.38-1.73-1.41-2.32-6.88-6.68-6.71-5.36-6.59-5.63-8.24-6.28-3.8-1.51-6.47-.92-7.27-2.75-.3-.7-.06-1.13.79-4.52s1.29-5.14,1.18-5.69c-.45-2.15-2.39-2.37-7.46-6.48-2.55-2.07-3.83-3.1-4.52-4.32-1.33-2.34-1-4.43,0-10.8,1.58-10.48,1.87-13.33,1.18-16.89a16.13,16.13,0,0,0-2.56-6.28c-1.34-1.92-2.39-2.44-3.73-3.73-3.41-3.31-6.68-9.74-4.91-14.14,1.21-3,4.17-3.65,4.13-6.68,0-1-.34-1.35-1-2.94-.77-1.91-2.81-6.95-1.57-11,.83-2.75,2.33-2.22,3.33-4.91,1.46-3.89-.1-9.23-3.33-12.17-3-2.7-4.73-1-11-3.73-6.1-2.68-5.47-4.77-10.41-6.09s-6.42.52-10.21-1.57c-2.38-1.31-3.29-2.87-6.08-3.34-.51-.08-1.34-.17-4.72.4-6.32,1.06-7.16,2-9.42,1.57-1.7-.34-1.54-1.09-5.5-3.54-5.16-3.18-7.78-4.77-9.42-4.71-4.36.16-5.08,4.8-9.63,4.91-3.51.08-6.32-2.62-7.06-3.34-3.84-3.69-3-7.74-6.48-9.23a8.58,8.58,0,0,0-4.32-.39c-3,.42-4.2,2.16-5.89,1.57-.94-.32-1.42-1.2-2.36-2.94-1.81-3.35-2-6.12-2.55-6.09s-.22,1.8-1.18,2.94c-1.48,1.77-5.07,1.22-8,.4-7.46-4.12-13.68-7.84-18.46-10.8-9.85-6.1-12.4-8.24-14.14-9.82-5-4.57-4.88-5.92-8-7.66-5.42-3-9.52-1-19-.59-14.88.71-14.15-3.55-25.33-2-7.36,1-11.74,3.46-20.42,3.14-2.76-.1-7.25-.53-10-3.73a10.21,10.21,0,0,1-1.77-3.14c-3.62-9.11-.4-15.65-4.51-19.64a6.57,6.57,0,0,0-3.14-1.76c-1.84-.4-3.4.25-7.86,2.55-5.57,2.88-6.44,3.58-7.66,3.14-1.57-.57-1.36-2.18-3.33-5.5-.72-1.2-3.4-5.43-7.46-7.46-2-1-4.17-1.06-8.45-1.18-9.89-.26-13.84,1.39-15.71-1-1.34-1.71.26-3.13-1.17-5.69s-4.26-3.4-9.23-4.91c-5.58-1.7-7.31-1.14-10.21-3.14-.65-.45-1.76-1.3-3.73-2.56-2.8-1.78-2.83-1.51-3.54-2.16-2.54-2.31-1.16-4.85-3.34-7.26-2-2.22-5.18-2.32-6.28-2.36-.35,0-5.62-.1-8.25,3.54-1.13,1.57-1,2.78-1.57,8.44-.4,4,1.19-13.26-1,8.25-1.53,15.18-1.63,17-3.14,20a40,40,0,0,1-4.12,6.29c-2.89,3.82-4.33,5.73-6.48,7.07-5.64,3.5-9.05-1-14.53,2.16-4.52,2.63-4.42,7-9.23,8-1.74.37-2.84,0-4.91,1a13.27,13.27,0,0,0-4.71,3.93,20.21,20.21,0,0,0-3.54,5.89c-1.54,4.07-.33,5.11-1.77,7.26-2,3-4.9,1.72-6.87,4.32-1.31,1.73-.92,3.47.2,12.57,1.06,8.66,1.11,10.32,0,11.19-1.84,1.44-4.42-1.2-9.82-.39a18,18,0,0,0-5.89,2.16c-5.12,3.06-7,8.8-8,12.17-9.73,30.17-9.88,28.69-10.21,32.4-1.22,13.77,2.35,17.92-1.77,25.33-1.07,1.93-3.42,5.43-2.35,9,.8,2.74,3.32,4.67,4.9,5.89,2.91,2.23,3.49,1.43,6.29,3.54,1.2.9,5.11,3.92,5.89,8.64a5.73,5.73,0,0,1,0,2.94c-1,3-4.56,2.93-5.89,5.5-.86,1.65-.17,3.19.78,6.48,3,10.16,1,11.32,3.73,16.1,1.31,2.32,3.16,4,6.88,7.46a127.22,127.22,0,0,0,11.78,9.23c4.35,3.19,6.57,4.67,9,7.85,3.13,4,3,6.12,3,6.68-.29,2.69-2.38,3.3-3.15,6.48-.53,2.21.16,3.26.79,6.68.5,2.73,1.45,7.92,0,13.15a27.84,27.84,0,0,1-4.52,8.64c-2.38,3.43-2.81,2.89-4.12,5.11-2.85,4.8-.86,7.35-3.14,13.74a30.71,30.71,0,0,1-4.71,8.25,38.38,38.38,0,0,1-8.25,8.44c-6.7,4.94-8.76,2.75-14.53,7.66-2.35,2-3.69,3.79-5.7,3.53-2.49-.32-2.6-3.38-5.3-4.51s-4.74,1.18-12.37,4.51c-7.2,3.15-10.73,3.38-11.39,6.09-.32,1.33.45,1.57.79,5.11a15.05,15.05,0,0,1-.39,6.67c-1.09,3-3.56,4.68-5.11,5.7-2.95,1.92-4.18,1.47-10.8,3.33a75.46,75.46,0,0,0-11.19,3.73c-3.39,1.51-4.46,2.39-6.48,2.16-2.25-.25-3-1.56-6.68-4.51s-3.82-2.25-9.62-6.48c-3.48-2.54-5.21-3.81-6.67-5.5-3.62-4.18-2.49-5.92-4.91-7.85s-7.44-1.23-17.48.19c-6.52.93-9.78,1.39-11.39,2.36-1.45.88-3.57,2.51-6.28,2.16a6.77,6.77,0,0,1-2.95-1.18c-4.08-2.87-3-8.74-5.1-9.23-1.41-.32-3.14,1.94-5.11,4.52-2.9,3.81-2.59,5.27-3.92,5.69-2.75.87-5.42-4.94-13.16-11.19a43.29,43.29,0,0,0-10-6.28c-4.43-1.95-11.9-5.25-18.26-2.36-4.28,1.94-4.56,5.09-7.27,4.91-4.21-.29-4.37-8-10.6-10.41-3.94-1.54-8.87-.43-9.62,1.57s3,4,2.35,7.07c-.56,2.63-3.86,3.95-4.32,4.13-2.84,1.13-4.18-.15-9.42-.2-4.23,0-6.73-.06-8.44,1.57-2.73,2.6-.83,6.89-3.15,8.05-2,1-5-1.33-5.49-1.77-3.1-2.5-2.14-4.95-4.32-7.26-1.13-1.19-3-2.24-16.11-2-5.16.1-5.59.28-10.79.39-12.88.26-14.62-.73-15.52-2-1.79-2.47,0-5.65-2.75-8.44a7.68,7.68,0,0,0-2.94-1.77c-2.07-.78-8-2.7-20.23-1.76-4.94.38-7.41.57-10.21,1.57-3,1.06-3.65,1.92-5.1,1.57-3.61-.87-5.19-7.56-6.09-11.39-1.09-4.62-.47-5.69-2-8.25a14.43,14.43,0,0,0-6.09-5.49c-4.84-2.29-7.36,0-9.82-2.16-1.49-1.33-1.48-3-2.16-10.61-.77-8.71-.76-6.22-1-10-.87-14.88,1-17.21-1.37-23.76a47.14,47.14,0,0,0-4.32-8.25c-3.15-5.27-4.78-7.94-7.66-9.42-3.11-1.6-6-1-9.62-.59-3.34.43-10.67.48-25.33.59-13.88.1-11.14-1.12-19.24-.59-4.58.3-10.6,1-15.71-1.38-2.53-1.18-4.71-2.35-4.71-2.35-4.8-2.57-4.82-3.1-6.29-3.34-1-.17-2-.06-9,3.34-5.19,2.52-5.63,2.93-7.46,3.34-2.8.62-3.18,0-7.46.19-6.83.36-7.49,2.11-10.61,1.18-2.21-.66-3.83-2.47-7.06-6.09-2.79-3.11-4.41-5-4.32-7.46.06-1.92,1.1-2.61,2.16-4.91.91-2,1.42-4.29,1.17-10,0-1-.11-2.17-.2-3.5-1.58-.19-3-.41-4.12-.62-5.58-1-7.06-1.38-7.06-1.38-5.47-1.31-7.93-2.5-9.82-1.18-.3.21-.7.56-1.77,3.14-2.48,6-1.66,7.27-3.34,9.23-1.11,1.3-3.16,2-7.26,3.34-2.37.79-5.25,1.72-5.89.79-.41-.6.55-1.31.78-2.75.17-1.08,0-2.93-7.26-10-2.78-2.71-3.4-3.08-3.93-3.33-3.46-1.69-5.17,0-7.85-1-5.14-1.91-3.72-10-8.64-11.78-2.42-.86-5.79,0-7.07,2-2.12,3.25,3.11,7.05,2,13.54-.56,3.16-2.64,7.11-6.09,8.84-3.13,1.58-5.13.18-8.83,2.36-2.68,1.57-2.17,2.62-4.52,3.73-3.6,1.71-7.59.56-10.21-.2-3-.85-3.2-1.51-6.28-2.75a27.6,27.6,0,0,0-12.76-2.35c-2.12.18-8.79.75-12.18,5.49-1.91,2.68-.92,4.09-2.55,8.64-.63,1.78-3,7.7-7.66,11.2-7.16,5.34-13.7-.72-17.87,4.9-2.53,3.41-2.73,8.65-8.05,12.18a18.13,18.13,0,0,1-3.14,1.57,72.09,72.09,0,0,1-15.71,4.91c-14,2.28-23.28-3.83-25.92.19-1.06,1.62.15,3-1.57,6.68a11.83,11.83,0,0,1-4.12,5.11c-2,1.3-4,1.56-7.07,2-4,.53-5.58,0-6.48,1.18-.6.79-.32,1.56,0,4.51.48,4.43.72,6.64,0,8.45a8.1,8.1,0,0,1-4.91,4.51c-4.94,1.52-7.54-4.08-14.53-3.92-3.85.08-6.76,1.87-8.83,3.14a27.35,27.35,0,0,0-8.64,9c-3.48,5.25-2.36,6.31-4.72,8.25-2.59,2.13-6.5,2.27-14.33,2.55-6.25.22-8.12-.29-10.6,1.37-1.94,1.3-3.11,3.16-4.72,5.7-2,3.22-2.06,4.46-3.53,6.87a26.19,26.19,0,0,1-6.87,6.87c-11,7.73-29.84-.67-33,5.3-1.1,2.08.08,5.21.79,7.07,1,2.66,2.38,3.86,4.9,6.88,4.13,4.91,6.19,7.37,6.48,9.22.9,5.57-5.64,12.65-12.37,15.52-6.12,2.61-9.15.34-13.94,4.12-1.72,1.36-1.91,2.11-6.67,6.48-4.33,4-5.56,4.61-6.68,4.32-2-.54-1.45-3.63-4.32-6.28-3.1-2.87-8.18-3.33-9-2-.51.82.78,1.84,1.57,4.13,1.67,4.86-.87,9.81-1.38,10.8-1.29,2.52-4.61,4.72-11.19,9-6.42,4.2-7.87,4.47-9.23,4.12-.8-.2-1.86-.7-6.08-6.28-3.9-5.15-5-7.33-5.89-7.07-.72.2-.73,1.68-1.57,9-.55,4.8-.78,6.15-2,7.07s-2,.4-5.1,1.57c-2.75,1-2.62,1.75-3.73,1.77-4,0-5.11-6-11.39-9.23-1.56-.82-5.61-2.93-9.43-1.57a36.72,36.72,0,0,0-7.46,4.51c-1.2.91-2.12,1.69-3.34,1.58-1.66-.17-2.24-1.86-3.53-3.15-4.62-4.58-15.29-.88-17.28-.19-2.5.86-4.09,1.42-5.69,2.94-2.44,2.32-1.84,4-4.72,8.45-2.32,3.61-3.77,4.19-3.53,5.89.31,2.17,2.85,2.16,4.12,4.91,1.47,3.17-.24,6.87-.78,8.05-.9,1.94-1.76,2.54-6.68,7.26s-4.2,4.24-6.48,6.28c-4.52,4.06-6.78,6.08-9,6.68-4.88,1.3-9.18-1.19-9.62-.2-.52,1.19,5.79,4,5.3,7.07-.25,1.55-2,1.65-3.14,3.93-.53,1.06-.89,2.5-.4,5.89,1.09,7.43,4,8.58,3.15,12-.93,3.79-5.44,6.06-5.89,6.28-2.9,1.41-4.88.8-6.09,2.55-.38.55-.94,1.69-.2,5.31a24.66,24.66,0,0,0,3.73,9.22c7.39,10.18,24.69,7.69,27.1,15.91a8.54,8.54,0,0,1-.2,5.3c-.51,1.31-1.48,2.65-5.89,5.69-5.15,3.56-6.35,3.49-6.67,4.72-.93,3.51,7.73,8.66,11,10.6a112,112,0,0,0,24.35,10.8c3.83,1.07,6.75,1.61,8.84,4.32,3,3.94,1.89,9.35,3.92,9.82,1.43.33,2.15-2.31,5.31-3a8.05,8.05,0,0,1,5.3,1c2.09,1.15,3,2.86,4.71,5.89a28.93,28.93,0,0,1,2.75,6.48c1.53,5.55-.06,6.89,1,13.16.66,4,1.37,8.31,4.12,9.42,2.92,1.19,5.42-2.32,8.25-1,2.55,1.21,1.39,4.47,4.32,6.88,2,1.6,3.24.8,9.23,2,4.9.95,7.35,1.42,9.62,3.14,1.91,1.45,3.2,3.87,5.69,8.64,3.23,6.17,3.09,7.56,5.11,8.84,1.68,1.06,4.22.92,9.23.58,4.41-.29,8.2-.54,13-2.16,3.91-1.32,3.39-1.84,8.24-3.73a38.65,38.65,0,0,1,12.57-3.14c4.29-.22,7.53-.39,10.41,1.57,3.49,2.38,2.24,5,6.48,10.8,3.32,4.53,4.71,3.73,7.66,8.05,3.78,5.56,2.16,7.89,5.1,10.61,5.36,5,17.11,3.09,18.65-1,.73-1.9-1.2-3.19-.39-5.1,1.59-3.76,11.45-4.77,14.33-1.18,1.2,1.49.1,3.33-.39,10.41-.43,6.25-.61,9.41,1,11.19,2.09,2.33,4.51.66,10,3.53,3.29,1.73,2.73,2.49,5.69,3.93,5.54,2.71,8.78.67,11,3.14,1.39,1.55.43,2.71,1,8,.5,4.84,1.06,10.35,4.71,13.94,2.28,2.25,3.89,1.9,5.11,4.32,1.51,3,.57,6.57.39,7.27-.92,3.51-3,5.25-2.36,6.09.49.61,1.7-.23,3.93,0,1.46.15,4.16.83,4.91,2.35,1.35,2.72-5.47,5.73-5.3,11,.15,4.67,3.38,6.66,8.44,13.35,2.05,2.7,5.49,9,12.37,21.6,5.42,9.91,6.5,12.51,10.21,14.33,3.09,1.52,5.66,1.36,9.43,4.32a15.25,15.25,0,0,1,5.3,6.68c1.4,3.83-.78,5.26.59,8.84,1.73,4.52,4.55,4.72,7.85,10,2.45,3.92,5,10.4,2.55,13.55-.93,1.2-1.65.69-2.74,2-3,3.42-1.63,11.5,2.55,14.73,1.1.85,2.05,1.09,2.75,2.35,1.2,2.18.26,4.84-.2,6.09a126.06,126.06,0,0,1-10.6,22.39c-3.56,5.54-4.36,6.26-4.71,8.64-.16,1-.46,4,3.53,13.35,2.49,5.86,3,5.61,5.3,11.19,3.44,8.29,3.57,11.79,3.54,13.55a15.87,15.87,0,0,1-1.77,7.85c-2.22,3.91-5.87,5.31-8.44,6.68-10.55,5.61-15.49,17.39-18.66,24.93-2.1,5-2.92,8.89-4.12,14.54-2.51,11.82-2.11,19.41-2,21.59a35,35,0,0,0,1.18,8.25c1.81,6.17,4.26,6.8,7.66,14.14,3.21,6.93,1.6,7.6,4.52,11.58s5.74,4.76,6.87,8.84c.95,3.42-.31,5.36,1.18,6.68s4,.23,8.44-.59c2.88-.54,7.83-1.46,12.57-.59,6.75,1.24,12.5,6,13.94,7.26,2.11,1.84,3.51,3.54,6.48,4.52.89.29,4.36,1.43,7.07-.2,1-.62.84-1,2.55-2.55s3.37-3.09,5.1-3.14c2.3-.07,4.07,2.29,5.31,3.92,3.3,4.4,2.29,7.23,4.51,9,2.54,2.06,6.46.5,10.8-.59,2.22-.56,11.43-.5,29.85-.39,6.38,0,11,.13,16.49,2,1.74.57,2.64,1,5.11,1.77a66.69,66.69,0,0,0,13,2.55c14.81,1.51,28.47,1.37,28.47,1.37,18.08-.18,27.12-.28,34.36.4,21.26,2,21.13,6.13,37.7,5.89,7-.11,12.15-.93,19.83,1.37,3.9,1.17,8.15,3.61,16.49,8.44,9.64,5.59,11.85,7.4,20.23,12.18,8,4.55,7.41,3.74,13.94,7.46,15.87,9.06,12.79,10.15,28.86,20.42,4.62,3,9.08,5.54,10.21,10.41.63,2.66,0,5.13,1.77,6.67s5,1.11,7.46.4l9,3.53,22.38,22.19a42.35,42.35,0,0,1,23.76,11l42.41-4.32q-3.33,19.24-6.68,38.49l19.64.2q19.93,54.29,39.86,108.58l45.16,47.32,4.91,24.54,62.05-6.28,24.74-1.37,96.8,16.69,126.85,12.37,42.41-9.43a15.14,15.14,0,0,1,4.91-2.75c2-.66,5.1-1.16,15.31,1.57,6.49,1.75,8.17,2.73,12.37,2.75,5.83,0,7.61-1.83,8.05-2.35s1.39-1.84,2.16-3c.92-1.32,1.55-2.31,1.57-2.35,1-1.58,15.7-1.67,57.93,1.57l91.3,20.81,30.05,39.86,34.55,10.6,32,.59,70.29,37.11,40.65,10.41,27.1-1,45-8.84-.78,28.47,41.23,1.57,8.64,9.23,19.44-20.42a10.09,10.09,0,0,1,3.73-3.73c3.27-1.8,6-.6,10.6-1.37,2.54-.43,4.24-1.27,7.66-3,10.56-5.19,28.93-20.25,29.85-21l105.63-46.53c.68-.08,1.87-.21,3.34-.4,21.14-2.71,24.54-7.6,40.25-9.23,4.67-.48,7.43-.36,11-2.35,3.82-2.13,4.3-4.28,9.62-7.27,3.09-1.73,5.39-3,8.25-2.55,2.12.31,4,1.47,6.48,3s2.87,2.19,4.52,2.74a10.9,10.9,0,0,0,6.28,0c9.14-2.12,25.43-1,30.43-.19a7.85,7.85,0,0,0,3.73-.2c2.82-.9,3.9-3.68,4.91-4.32,5.83-3.66,11.89-3.28,21.4-2.55,11.82.91,17.73,1.36,23.37,2,14,1.5,21,2.24,23.76,2.95,5.8,1.49,8.55,2.83,13.35,2.16,2.44-.34,3.62-1,12.37-4.13,0,0,4-1.45,8.84-3.14,16.94-5.92,36.31,7.79,48.5-1,1.32-1,1.95-1.73,6.28-5.1,1-.78,6.45-5,11.39-8.25a90.8,90.8,0,0,1,20.62-10.21c11.6-3.86,11.24-.38,23.36-4.12,13-4,12-7.55,23.76-10.8,2.14-.6,6.54-1.69,9.62-5.5,1.79-2.22,2.1-4.06,3-6.09,2.79-6.66,9.1-9.72,12.37-11.78,5.33-3.37,4.53-5.33,24.15-34.36,6.26-9.27,12.18-17.71,21.6-25.72,4.82-4.1,7.32-5.35,8.05-5.7,10.5-5,16.73-.24,23.37-5.69,3.35-2.76,3.86-5.71,8.24-7.27,2-.7,2.92-.48,6.87-1.37a55.8,55.8,0,0,0,7.86-2.36c9.42-3.73,8.33-14.82,18.85-20.42,2.59-1.38,2.52-.63,7.66-2.94,7.3-3.29,10.94-4.94,12.37-8.25.42-1,.73-2.28-2.95-14.73-2.63-8.92-3.44-10.45-4.12-11.58-2.58-4.27-5.54-6.39-8.84-9-11.9-9.51-19-15.21-22.58-24-2-5-1.32-7-4.51-13.35-1.37-2.72-2.05-3.43-6.29-10.61-4.93-8.35-5.18-9.36-5.3-10.4-.19-1.72-.15-4.6,4.52-13.16,4.19-7.7,5.56-7.29,7.85-12.37,2.92-6.48,2.54-9.26,6.28-22.19,2.12-7.28,3.17-10.92,4.72-13.74,3.63-6.63,6.44-7.38,9.62-14.34,2.75-6,1.25-6.79,3.73-11,4.6-7.8,13-10.61,14.73-11.19,4.82-1.62,5.45.19,18.85-.4s19.92-1.52,28.27,1.77a43.53,43.53,0,0,1,6.28,3.14c6.7,4,8.27,7.45,13.75,12.77A70.49,70.49,0,0,0,2549,1121a71.49,71.49,0,0,0,8.24,2.55c21,5.52,41.49,7.37,53.41,8.44,2.24.2,8.07.71,15.9,1.77,4,.54,7.25,1,9.23,1.37a43.66,43.66,0,0,1,10.21-11.38c1.71-1.32,2.56-1.75,5.7-4.13,5.06-3.84,6.9-5.79,8.83-7.26,5.68-4.32,11.17-3.69,16.69-4.91,9-2,15.67-10,29.06-25.92a231.45,231.45,0,0,0,17.48-23.76q1.38-6.57,2.75-13.16l18.46-7.26,17.86,6.09a174.45,174.45,0,0,0,80.71-11.2c1.6-2,17.66-21.49,29.45-29.25a30.58,30.58,0,0,1,8.25-4.32c6.68-2.13,9.66-.09,13.74-2.75C2895.26,995.75,2895.49,995.58,2895.71,995.41Z"/></g></g></svg>