<svg xmlns="http://www.w3.org/2000/svg" viewBox="0 0 2144.89 2599.71"><g id="Layer_2" data-name="Layer 2"><g id="Montenegro"><path d="M166.65,1725.33c-.82-.17-1.65-.32-2.52-.44a41.91,41.91,0,0,0-25.24,4.21c-4.83,2.57-12.57,6.69-13.09,13.71-.29,3.94,1.68,9.11,5.3,10.75,3.3,1.5,7.18-.31,8,1.25.55,1.12-1.38,2.2-1.09,4,.3,2,2.8,2.41,7.16,5.14,4.93,3.08,4.45,4.24,7.33,5.15,4.55,1.43,8.13-.72,8.72.46s-2.74,3-5.76,8.11c-1.61,2.74-2.74,4.65-2.34,6.85.47,2.55,2.73,4,7,6.7,5.9,3.7,7.87,3.43,11.07,6.23,3,2.61,3.27,4.6,5.29,7.64,4.34,6.5,8.44,5.64,25.56,15.12,8.16,4.51,11.07,6.84,14.18,5.45,3.69-1.65,3.7-6.8,7.79-7.64,2.33-.47,4.59.73,7,2,3.18,1.7,3.31,3.06,6.39,4.52,3.55,1.68,5.68,2.68,7,1.87,3.73-2.26-4.38-15.16,1.09-27.27,1.72-3.8,3.73-5.2,4.37-5.61,1.22-.79,3.95-2.15,15,0,8.59,1.68,12.93,2.57,15.11,5.61s.54,4.81,2.18,10.28c.84,2.79,1.89,4.34,10.6,15,7.39,9,10.87,13,9.82,14.49-.37.5-1.13.51-2,.47-8.86-.37-14.6-4.82-16.83-3.11-1.64,1.25-.53,5.21-.47,5.45,2.4,8.28,14.51,7.09,23.38,18.23a28.59,28.59,0,0,1,4.05,6.7c.83,2,4.5,10.58.78,17.61-1.7,3.21-3.23,2.84-3.74,4.83-1.55,6,11.66,12.8,23.22,22.59,4.26,3.62,2.79,3,24.77,29.77,19.66,24,27,31.93,31.79,30.07,3.36-1.3,5.11-7.22,5.61-8.88,1.95-6.58-.4-11.07,1.56-12.16,1.8-1,5.33,2,10.28,6.08,6.17,5.15,8.94,8.85,10.29,8.1.8-.44.85-2.32.31-3.74-1.8-4.68-10.34-4.65-10.29-6.38,0-.9,2.27-1,6.55-3s4.47-3,7-3.74a13.76,13.76,0,0,1,9.82.78c6.63,3.45,5.4,12.24,9.35,12.94,3.26.58,4.65-5.34,12.62-10.75,3.48-2.37,9.81-6.67,15-4.68,4.67,1.81,4.22,7.19,10,9.19,2.63.92,5.11.63,7.79.32,5.85-.69,6.45-2.72,10-2.65,4.48.09,7.76,3.45,12,7.79a36.33,36.33,0,0,1,7.17,9.82c4,8.23,3.3,15.75,3.12,21-.29,8.24-1.28,36.57,13.09,51.11,1.84,1.87.65.14,12.46,8.73,13.91,10.11,15.09,12.25,22.28,15.89,6.87,3.47,8.72,3,14.81,7a60,60,0,0,1,10.91,9.35c6.87,7.26,10.36,10.94,10.28,15.9-.09,5.7-4.81,7.36-3.9,12,.53,2.67,2.36,3.49,9.51,8.72,11.94,8.74,12.89,10.89,19,13.87,5.38,2.62,8.07,3.93,8.88,4.21,3.08,1.06,4.51,1.16,5,2.33,1,2.4-3.92,4.59-4.68,9.35-.3,2,.74,3.25,4.06,10.29,1.77,3.78,6.61,14.06,9.5,13.4s1.33-10.73,4.83-11.69c1.93-.53,3.08,2.32,7.64,4.52,3.32,1.6,5,1.21,11.22,2,9.3,1.22,8.29,2.49,14.49,3,8.94.68,13.06-1.8,15.42.93,1.5,1.72.69,3.67.94,7.33.39,5.81,3,9.88,6.7,15.42,11.48,17.31,25.07,20.34,25.71,31.48.41,7.2-4.73,15.48-9.66,16.21-3,.43-6.2-1.84-7.64-.32-1,1.08-.36,3.21-.15,3.9,2.55,8.4,21.15,22,25.55,25.24,22.19,16.44,18.54,18.7,30.23,24,6.37,2.88,12.16,4.35,15.12,10.13,2,3.95,3,10.37,2.65,16.05-.26,4.86-1.41,8.78.31,9.81s3.76-1.86,6.08-.93,3.74,5.6,2.8,9.35c-1.22,4.85-5.68,6.06-5.14,9,.38,2.13,2.8,2.21,4.52,4.67,2.65,3.8.78,9.21-.16,12.47,0,0-1.31,4.56-2.34,23.53-1,18.56,7.77,36,12,44.41,4.06,8.07,8.25,14,6.24,16.2-2.75,3-14.08-4.17-15.28-2.34-.88,1.37,4.36,6.92,13.56,14.18,9.77,7.72,19.21,13.59,34.44,21.82,14.32,7.75,21.48,11.62,32.41,16.36,5.66,2.46,15.93,6.37,36.46,14.18,18.16,6.91,21.08,7.86,25.87,11.69,5.16,4.12,8.42,8.34,16.2,12.15,6,2.93,9.65,3.18,13.72,4.37,21.75,6.35,23.25,30.41,39.26,31.63,4.46.34,2.18-1.69,20.11-7,11.05-3.29,16-3.73,20.88-8.57,3.66-3.63,7.35-9.75,5.45-13.09s-7-.5-12.47-4.06c-6.43-4.2-3.37-10.78-9.5-16.51-7-6.59-15.89-2.4-18.86-8.11-2-3.85-.09-9.88,3.28-13.24,5.69-5.67,12.9-1,20.41-7,3-2.41,6.87-7.15,5.92-11.38s-5.78-3.76-12.62-10.13c-2.67-2.48-9-8.4-9-15.89,0-3.08,1.09-2.93,1.87-9,.88-6.79-.31-8.17,1.25-10.75,2.6-4.31,8.73-5.1,10.28-5.3,4.57-.58,5.14,1.12,11.69,1.25,3.71.07,8,.1,11.84-2.49.61-.41,5.07-3.45,4.52-6.55-.21-1.21-1.11-1.93-2.65-3.12-7.21-5.56-8.44-5.87-9.35-7.32-1.89-3,.42-6.56,2.34-12.46.55-1.72,6.22-19.87-.78-33.2-2.64-5-3.92-3.35-6.7-8.41s-4.59-12.22-.78-32.41c2-10.32,3.76-15.41,5.3-21.5a131.31,131.31,0,0,0,3.27-43.17q18.31-33.66,36.62-67.31l-136.66-106c3.4-3.4,8.42-8.55,14.18-15.12,8.2-9.33,9.21-11.58,20-24.93,14.28-17.74,21.42-26.62,25.86-30.7a44.92,44.92,0,0,0,9-10.44c4.4-7.21,4.32-12.16,6.08-18.07,4.08-13.7,11.9-12,23.53-30.7a99.13,99.13,0,0,0,11.37-24.47c3.06-10.09,2.25-13.59,6.24-20.72,3.28-5.86,7.1-9.34,14.49-16,10.59-9.62,18.75-14.1,17.76-19.32-.17-.88-.37-.64-1.87-3.74a67.22,67.22,0,0,1-3.89-10.44c-3.15-11-5.35-18.61-1.56-23.22,1.71-2.09,2.59-1,5-3.27,4.62-4.33,2.57-9.41,5.6-20.57,1.35-4.93,2.52-9.07,5.93-13.25a30.89,30.89,0,0,1,10.44-7.94c5.59-2.91,8.24-2.68,15.58-5.14,3.35-1.13,9.65-3.24,14.49-6.39,3.2-2.09,6.43-5.07,16.52-24.62,8.24-16,7.39-16.52,12.62-24.94,4.26-6.86,6-8.48,9-14.8s3-8.42,5.76-10.59c5.39-4.17,11.45-1.06,14-4.84,1.84-2.7-.54-5.36-.32-9.81.39-7.6,7.88-10.42,15-17.92,9.44-10,3.87-13.18,16.68-34.13,6.69-11,10-16.42,12-19,2.3-3,3.44-4.25,4.36-6.85.4-1.15,1.65-3.82,1.09-17.3a10.26,10.26,0,0,1,0-2.65c1.07-5.36,8.36-7,21.81-12.93,7.07-3.11,10.61-4.67,12.63-6.24,7-5.46,6.28-9.56,13.55-16.82,7.65-7.64,10.69-5.35,13.4-10.44,4.9-9.21-1.37-23.51-3.42-28.21,0,0-1.61-3.67-4.06-16.67a6.11,6.11,0,0,1,.32-3.59,5.42,5.42,0,0,1,1.24-1.71c3-2.82,25-32.89,34.6-46.59,4.42-6.31,9.65-12.12,13.4-18.86,3.07-5.52,4.18-8.74,7.94-10.44,4.76-2.14,7.62.89,15-1.09a18.85,18.85,0,0,0,9.35-5.14c3.65-4,2.8-7.5,5-12,2.86-5.89,7.31-6,15.42-11.53,15.51-10.64,18.39-23.52,26.18-22.28a11,11,0,0,1,5.3,2.8c2.81,2.52,3.38,5.46,5.45,12.16,1.78,5.74,2.67,8.61,3.12,9.35,5.17,8.46,15.83,5.71,18.86,12.77,1.21,2.84.49,5.84-.94,11.85-1.77,7.42-3.82,7.43-4.05,11.37s1.75,6.11,12.15,20.26c4.76,6.47,6.42,8.85,8.26,11.69,6.24,9.61,7.33,13.33,7.79,16.2.27,1.65,1.68,10.45-2.18,12.78-3.29,2-6.61-3-12.93-2.18s-12,7-12.31,12.62c-.18,3.24,1.57,3.71,2.8,8.1,1.61,5.75.11,10.92-3,21-3.29,10.85-4.88,11.31-5,16.2-.12,5.57,1.84,9,5,15.74,9.53,20.4,6.92,21.8,15.9,38.34,3.21,5.9,5.45,10,9.5,15.27,5.33,6.87,7.64,7.72,18.7,18.23,10.33,9.8,13.19,13.69,22.6,21,5.4,4.22,10.62,7.75,17.45,7.79,2.19,0,7.27,0,9.5-3.11,2.8-4-.69-10.48,2-12.16.68-.42,1.33-.27,2.49-.15,5.34.55,11-.55,14-2.18,4.09-2.19,2.58-4.79,6.23-7.17,6.91-4.51,15.39,2.82,19.63-1.09,4-3.64-.6-12.58,3.12-14.65,1.72-1,4,.19,6.54,1.4,4.67,2.28,5.16,4.77,10.6,8.57,3.21,2.24,5.24,3.62,7.48,3.12.62-.14,3.08-.83,5.45-6.55,4.39-10.57-.48-16.79,4-22.59.84-1.07,3.21-2.32,8-4.83a132.45,132.45,0,0,1,15.58-6.86c10.38-3.93,15.64-5.89,19.48-5.29,5.11.78,5.4,3.13,11.07,5.61,10.39,4.54,14.94-.93,32.72,0,13.44.7,16.28,4.11,21.5,1.09,5-2.92,6.7-8.59,9.82-19.79,4.86-17.46,1.68-21.83,6.86-27,3.77-3.75,9.84-5.2,22-8.1,7.43-1.78,9.44-1.46,12.31-3.9,5.81-4.93,5.17-12.71,9.35-13.4,1.86-.31,2.25,1.19,6.23,2.8,1.2.49,9,3.51,14,.63,2.59-1.47,2.46-3.34,5.77-10.6,5-10.88,7.3-11.16,8.1-16.36.65-4.23-.46-6.87-3.58-15.58-4.05-11.29-6.67-18.59-8.42-24.78-3.85-13.64-6.29-22.29-2.18-29.76,3.35-6.09,7-4,14.49-11.84,9.07-9.48,4.93-13.74,14.49-25.25,5.72-6.88,11.28-10.26,10.44-15.42-.39-2.44-2-4.14-3.58-5.77-3.84-4-7.09-3.82-13.24-7.17-4.6-2.49-7.67-4.16-9.82-7.48-4.22-6.49.16-11.53-3.59-15.89-2.2-2.56-4.2-1.4-18.07-4-10.18-2-13.35-3.39-15.89-5.92s-1.75-3.63-4.52-7.17c-6.07-7.74-12.52-5.65-16-11.22-4.36-6.86,3.11-14.86-1.56-18.85-5.12-4.39-16-.5-16.36-2.19-.24-1,3.44-1.84,7.16-5.76,1.73-1.82,5.12-5.38,4.52-8.57-.85-4.53-8.78-3.08-13.86-9-6.6-7.73-2.6-21.11-2.19-22.44,2.41-7.68,5.73-6.9,7.48-14.18,2.17-9-2.2-12.85,1.25-18.85,1.45-2.52,4.19-4.23,9.66-7.64,6.56-4.09,7.67-3.62,14.34-7.32,10.54-5.86,14.45-10.75,18.85-9,1.88.73,1.8,1.87,4.52,3.12,3.31,1.52,6.22,1.12,10,.78,9.16-.84,14.53-1.3,20.1.15a36.32,36.32,0,0,1,7.17,3c8.42,4.14,13.28,7.63,20.73,12.47,3.18,2.07-.15-.16,27.42,14.49,2.55,1.36,5.08,2.7,7.33,1.71,5.92-2.61,3.12-18.59,6.7-19.32,1.33-.27,2.64,1.75,4.2,3.74,4.67,6,6.53,5.28,15.59,13.09,12.71,11,15.76,18.09,19.79,16.83,3.3-1,4.22-6.77,7.47-6.54.94.06,1.31.56,2.65,1.55,5.52,4.07,11.76,4.73,14.18,5s3.67.39,4.68,0c4.45-1.73,3.2-7.82,7.17-10.75s7.86,1.4,16,.15c8.84-1.35,14.59-8,15.58-9.19,5.19-6.22,2.45-9.29,8.26-17.76,4.47-6.54,7.15-6.25,8.88-11.22,1.61-4.66-.15-6.58-1.4-16.21-2-15.62,1.38-20.16-3-24.77-3.91-4.16-10-4-10.13-7.17-.08-1.56,1.35-2.82,3-4.21,3.56-3.07,7-3.91,10.13-5,6.32-2.17,10.71-3.69,13.4-7.16,4.62-6,1.44-14.19,4.36-15.12,1.68-.53,2.72,2.16,7.64,4.21,2.4,1,6.35,2.78,9,1.25,4.23-2.43,1.41-9.57,5.92-14,4.91-4.84,15.95-4,18.7.47,2.33,3.79-2.13,8.77,0,10.75,2.91,2.69,13.8-4,15.9-5.3,6.82-4.19,8.1-6.89,11.84-6.7,5,.26,7.52,5.42,9.82,4.36,1.47-.67,1.61-3.31,1.4-9.5-.4-11.88-.61-17.81-2.49-23.06a47.16,47.16,0,0,0-6.55-12.16l.78-67.47a22.25,22.25,0,0,0-6.54-6.7c-9.21-6-17.6-.85-24.62-7-3.72-3.26-2.78-5.94-7-8.26s-6.11-.18-11.68-1.71c-5.06-1.4-8.41-4.51-14.65-10.29-5.92-5.48-6.3-7.36-9.19-7.79-5.3-.78-7.19,5.06-12.63,5.14-6.34.1-7.74-7.8-16.2-13.24-10.06-6.48-15,.21-26.18-5-13.26-6.18-10.43-17.59-23.84-23.68-10.44-4.75-13.89,1.38-23.84-3.9-11.39-6-10.29-15.9-20.88-19.17-8.5-2.62-13.35,2.45-18.08-1.4-6.41-5.22-2-18.28-5.14-19.16-2-.58-4.85,4.66-10.91,13.86-8.84,13.44-13.35,20.18-18.07,21.2-7.6,1.63-16.44-5-20.42-11.69-3.65-6.16-1-8.62-3.74-15.58-3.46-8.74-11.13-13.41-26.49-22.75-5.62-3.43-16.63-9.66-20.41-16.68-1.63-3-2.45-4.55-2.65-6.85-.25-3,.68-5.34-.78-8.26a8.9,8.9,0,0,0-1.4-2c-7.9-8.87-10.27-13.91-17-19.47-12.61-10.45-32.26-20-38.8-23.07-5.93-2.77-9.54-4.16-12.94-8.26-3.6-4.33-3.77-7.84-10-17.14-2.73-4.08-2.55-3.19-3.74-5.29-5.37-9.51-1.16-14-5.61-20.57-3.76-5.59-9.63-6.6-9.19-10.44.11-1,.8-2.25,2.18-4.83a54.32,54.32,0,0,1,2.8-4.68c3.35-5-.57-18.81-.93-25.09,0-.16,0-.34,0-.51a99.3,99.3,0,0,1-10.11,5.5c-1.88.88-6.25,2.83-12.15,6.08-8.86,4.87-7.92,5.35-12,7.17-11.69,5.19-21.14,2-23.22,6.85-1.09,2.55.61,5.48-1.25,6.86-1.47,1.09-3.84.2-4.36,0-4.47-1.69-4-6.19-8.73-10a18.56,18.56,0,0,0-7.48-3.28c-6.19-1.63-7.59.4-11.68-.62-5.51-1.38-5.65-5.72-17.14-16.21-4-3.69-5.81-4.77-7.79-4.51-2.82.35-3.9,3.11-8.57,8.25-1.07,1.18-3.36,3.28-8,7.48-10.68,9.79-12.66,10.37-14,9.82s-1.6-2.16-2.8-5.3c-.63-1.63-2.88-7-1.4-13.24,1.15-4.9,4.08-8,2.65-10.44-.8-1.37-2.51-1.82-5.3-2.18-12.71-1.69-17.72,2.26-22.64-1.06-2.58-1.74-2-3.35-5.88-6-2.67-1.8-4.46-2-7.48-3.11-6-2.12-13.12-4.66-15-9.82-1.27-3.58.65-6.62-2-9.82a12.76,12.76,0,0,0-2.5-2c-4-3.14-5.5-7.83-6.07-9.66-2.3-7.31,2.14-9.33.47-18.55a24.28,24.28,0,0,0-3.74-9.35c-1.53-2.24-4.36-6.39-8.42-6.7-2.26-.17-2.27,1-7,2.19-3.84.92-4.43.26-8.1,1.24-1.48.4-1.63.57-6.39,2.49-7.73,3.14-8.4,3.11-9,2.81-1.85-.89-1.3-3.16-3.9-10.13-1.29-3.47-2-5.23-3.11-6.08-3.09-2.26-6.7.79-13.56,1.87-11.34,1.79-13.75-4.62-24.62-2.18-4.8,1.08-6.63,2.85-10.28,1.87-1.77-.47-3-1.31-8.73-7.32-6.06-6.3-7-7.68-10.44-10.75-3.25-2.89-5-4.42-7.79-5.92-4.67-2.49-9-3.14-13.4-3.74-8-1.11-10.16.1-12.94-2.19-1.36-1.12-2.19-2.55-3.89-8.1-2.11-6.9-3-11.67-3.58-14.49-.93-4.2-3.12-9.19-7.48-19.17-4.64-10.6-7-15.9-8.57-17.76-4.56-5.27-10.58-7.77-22.6-12.78-7.22-3-11-4.58-16.83-5.76-9.93-2-12.58-.2-21.35-3.12-5.48-1.83-4.77-2.65-12.31-5.3-8.29-2.91-10.7-2.46-12.77-5.3-1.8-2.46-.76-3.86-3.43-11.68-.52-1.52-1.07-2.89-2.18-5.61-1.29-3.17-3.53-8.65-6.55-14.65-4.36-8.67-4.61-7-5.76-10.44-3.19-9.43-.13-18.72.46-20.41,2.07-6,4.53-7.31,6.7-15.43a24.11,24.11,0,0,0,1.1-7.63,22.85,22.85,0,0,0-4.52-12.16c-3.44-4.9-7.6-7.31-12.47-10.13a86.83,86.83,0,0,0-10.44-4.83,115,115,0,0,0-16.52-5.92c-8.76-2.28-8.16-.66-11.37-2.34-6.85-3.58-5.45-8.78-14.18-15.58-2.63-2-4.18-2.68-7.64-5.76-5-4.5-6.1-7-6.54-8.42-.82-2.58,0-2.75-.63-6.39-1-5.13-2.77-5.33-3.89-10.13-1.24-5.32.66-6.53-1.09-9.66-1.85-3.29-4.18-2.35-6.55-5.76-2-2.94-2.09-6.19-2.18-11.22a53.54,53.54,0,0,1,.63-8.42c1.1-8.5,2.38-9.31,1.4-11.37-1.44-3-5.43-3.9-13.09-5.61a68.48,68.48,0,0,0-9.82-1.4c-5.84-.5-6.28,0-10.28-.32-3.1-.26-11.28-1-18.86-5.92-2.36-1.52-2.29-1.92-7.17-5.29-6-4.19-6.17-3.61-7.94-5.3-5.09-4.88-3.23-9-7.48-12.16-.79-.58-2.07-1.33-11.07-1.87-12.76-.76-13.33.56-17.14-.93-4-1.57-6.6-4.42-11.84-10.13a92.81,92.81,0,0,1-6.39-8c-2.07-2.77-4.33-5.95-10.9-15.74-5-7.51-5.68-8.55-7.64-9.66-4.42-2.5-8.12-1.1-14.18-.93-11.79.32-21-4.35-25.09-6.39-10.72-5.41-8-9.08-19.79-15.12-7.13-3.64-10.95-3.73-17.92-8.88-2.67-2-4.84-4.17-9.19-8.57-11.49-11.62-11.15-13.86-17-17.29-6.73-4-9.35-2.26-11.84-5.93-2.1-3.09-.76-5.09-.78-18.54,0-8-.48-8.84.16-12.93,1-6.33,2.42-6.22,3.27-12a39.28,39.28,0,0,0-1.25-16.36,38.31,38.31,0,0,0-3.58-8.42A27.38,27.38,0,0,0,873,41.37c-.83-.61-3.51-2.5-10.76-4.21-1.42-.33-6.47-1.47-18.07-1.87a144.45,144.45,0,0,0-17.14.16c-4.77.35-8.63,1-16.36,2.18s-9.17,1.69-10.13,2a42.44,42.44,0,0,0-12.16,6.85c-5.21,4.05-5.27,5.75-9.35,7.8a24.11,24.11,0,0,1-9.19,2.33c-10.53,1-13.4-3.68-23.06-2.33-3,.41-6,.84-9.19,3-4.27,2.85-4.4,5.9-8.89,7.79-2.73,1.15-3.21.24-7,1.71-3.35,1.3-3.33,2.14-6.85,3.74-5,2.28-6.1,1-8.57,3-2.72,2.13-1.63,3.79-4.84,7.64-.63.75-5.13,6-8.57,5-1.4-.43-1.12-1.46-3.27-2.65-2.58-1.42-4.4-.71-5.3-2s-.13-2.86.16-3.74c2.06-6.27-2.52-9.36-2.18-19.17.21-6.09,2-6.55.93-10.13-.64-2.09-1.6-3-6.23-8.88-1.79-2.27-3.52-4.57-5.3-6.85-7.45-9.59-8-10.37-8.72-12.16-1.53-3.85-1.13-5.8-2.65-6.39-3-1.14-6.6,5.33-9.66,4.21-1.63-.6-1.28-2.66-3.43-7.64-1.75-4-3.15-7.28-6.39-9.19A12.21,12.21,0,0,0,631.92.39c-2.28.64-3.33,1.74-8.11,6.7-8.65,9-9.26,9.54-10.28,11.53a29.41,29.41,0,0,0-3,10.13c-.49,4.21.06,7.18-.94,13.71-.41,2.71-.75,3.79-1.55,4.83-2.09,2.7-5.56,2.84-8.42,3.43-6,1.25-7.22,4.08-13.4,7.48-13.58,7.47-20,.6-30.85,8.42-2.39,1.72-1.59,1.71-9.51,8.57-5.53,4.79-7.16,5.87-7.32,8.1-.26,3.68,3.92,4.5,5,10.44.6,3.35-.56,4.07.46,7,1.27,3.65,3.32,3.33,4.68,6.7,1.85,4.59-.9,7.83,1.24,9.82,1.53,1.41,4.17.92,5.77.62.88-.16,4-.75,5.77-3.27.64-.92,1-2,1.24-5.45.4-6.74-.67-9.93.94-14.5A4.23,4.23,0,0,1,565.54,92c.71-.35,2.1-.66,5.76,1.41a31.21,31.21,0,0,1,9.2,8.1,26.77,26.77,0,0,1,4.2,6.54c2.91,7.12-1.09,10.07.78,18.7,1.24,5.71,3.35,6.07,3.59,11.53a30.5,30.5,0,0,1-1.25,9.35c-1.25,4.37-2.75,6.06-3.12,10.44-.21,2.59-.37,4.49.78,5.46,1.6,1.34,4.14-.45,11.22-2.34,4.89-1.31,7.34-2,10.13-1.56,3.58.52,6,2.27,9.66,4.83,3.88,2.76,5.82,4.14,7.17,6.7,1.76,3.36,1.09,5.74,3.74,8.73,1.11,1.25,2,2.3,3.43,2.49,4.51.64,8.07-8.53,10.28-7.79,1.37.46.3,4.05,1.09,8.57,1.17,6.71,5.28,8.9,14.65,21a88,88,0,0,1,6.23,8.57c1.5,2.59,5.27,9.74,6.86,31,.92,12.38-.19,12.22,1.09,20.72,1.14,7.6,2.83,13.07,5.14,20.57,3.36,10.88,5,16.32,8.1,19.48,4.85,5,8.16,3.84,13.09,9.81,1.52,1.84,3.11,5.2,6.24,11.85,3.6,7.67,5.41,11.5,6.23,15,2,8.38-.77,8.47,1.25,15,1.39,4.49,2.95,5.17,9.66,17.29,3.3,6,3.56,7,3.11,7.95-1.46,3.19-8.07,1-23.68,2.8-9.22,1.05-8.35,2-15.43,2.34-4.61.25-7.39,0-10.28,1.87-3.69,2.4-4.9,6.56-5.46,8.42-2.91,9.76-7.6,21.67-17,45.5-4.64,11.78-2.38,3.56-8.26,16.67-2.3,5.13-3.93,9.24-7.79,10.44a10.1,10.1,0,0,1-6.7-.62c-3.12-1.39-3-3.29-7.48-6.86-2.86-2.29-3.58-2.06-4.83-3.74-1.63-2.2-1.69-4.34-2-7.48a86.18,86.18,0,0,0-4.36-18.85c-1.06-2.83-1.58-4.25-2.49-5.3-3.54-4.1-8.08-2.7-15.27-5.61-2.67-1.08-7.56-3.06-11.07-7.79-4.29-5.8-4.13-12.52-4-15.74s.16-6.72,2.34-10.44c2.29-3.91,4.45-3.73,6.23-7.17s.52-5,.47-12.47c-.08-10.54,2.25-14.27-.31-16.51-1.76-1.54-3.4-.27-8.11-1.4-4.09-1-6.82-2.92-9.5-4.84-4-2.83-6.08-5.42-14.49-16.36a163.2,163.2,0,0,0-12.62-15.11c-5.18-5.37-6.72-6.06-8.11-6.39-6.09-1.44-8.39,4.45-17.61,6.54-8.39,1.91-9.82-2.21-20.25-.62-7.82,1.19-6.89,3.49-15.27,5.14-11.92,2.36-18.5-1.36-22.29,3.12-1.91,2.27-1.89,5.2-1.87,7.17.07,6.69,4.64,8.36,8.57,18.54,3,7.81,1.75,10.5,1.1,11.53-1,1.58-2.47,2.18-4.52,3.12-4.38,2-8.35,4.83-12.78,6.7-11,4.62-37.22,16.85-45.5,20.88-17.2,8.36-12.95,8.54-42.07,24.62-21.64,11.94-22.59,11.07-33.82,18.54-18.18,12.1-9,10-33.19,28.83-4,3.1-8,6.12-7.95,10.28.09,6.22,9.26,12.17,17.15,17.3,6.34,4.12,11.33,6.27,11.68,10.6.1,1.16-.14,2.62-1.71,5.14-4.08,6.51-9.71,8.24-16.21,12.31-9.51,5.94-6.46,7.86-16.83,14.65-7.56,5-11.14,5.21-14.8,10.28-2.41,3.34-3,6.15-4.36,12.15,0,0-2.27,9.86-7.33,29.3-4.18,16.1-5.28,15.8-5.92,22.91-.49,5.46-.11,8.61-1.87,14-2.36,7.28-5.15,8-6.7,13.09-2.28,7.45,2,11.67,5,23.06,2.24,8.49.17,7.29,1.87,29.76.89,11.85,1.39,11.13,3.11,30.08,1.1,12,.74,10.53,1.87,22.75,1.85,19.91,2.42,19.67,2.19,25.55-.34,8.17-1.53,11,.15,16.68a50.17,50.17,0,0,1,2.65,10.75c.69,6.23-.57,7.89-1.4,8.57-1.43,1.17-3.38.89-4.52.78-5.12-.5-10.69,1.54-21.82,5.61-7,2.55-8.42,4.14-12.77,5.92-10.29,4.21-16.22,1.08-34.6-.31-24.12-1.84-23.16,2.86-46.59.46-7.63-.78-11.86-1.7-18.23,0-11.75,3.14-19.09,12.08-22,15.59-3.32,4-7.57,9.22-9.19,17-1.16,5.52.06,7.36-1.87,12.15-2.42,6-5.44,5.92-9.2,12.16-3.22,5.34-2.29,7.52-5.14,16.05s-5.06,10.28-7.63,16.36c-2.91,6.84-3,17.08-3.28,37.55-.17,14.76.57,14.32.16,27.43-.18,5.63-.36,7.14.15,10.13,1.37,7.9,4.88,10.34,10.91,21.5,1.75,3.23,3.68,7.75,7.48,16.83,5,11.82,5.93,15.7,4,18.7-1.35,2.16-3.89,3.39-6.54,4.67-5,2.43-7.17,1.4-8.88,3.59-2,2.59-1.13,6.7-.47,9.66,1.11,5,3.1,6,2.65,8.88-.49,3-3.22,4.87-5.77,6.55-7.54,5-11.61,2.19-17,6.54a19.53,19.53,0,0,0-6.08,9.82c-.62,2.07-.52,2.89-.62,10.59-.16,12.1-.47,14,1.24,16.36,2.29,3.2,4.69,2.43,5.77,5.3,1.53,4.08-1.48,10.46-5.92,12.31-3.36,1.4-5.64-.59-7.79,1.25-2.45,2.1-1.76,6.63-1.56,8,.77,5,3.38,5.57,6.23,11.84a26.6,26.6,0,0,1,2.81,12.62c-.14,2.8-.79,5.08-1.87,8.88-1.77,6.22-2.6,6.08-2.81,8.26-.66,6.81,7.33,8.33,10.6,17.92,1.92,5.64,1.27,11.32.62,17-.88,7.67-2.73,9.92-1.09,13.55,1.23,2.71,2.82,2.68,10.6,8.1a109.94,109.94,0,0,1,11.68,9.2c4.65,4.25,7,6.37,9,10,2.3,4,2,5.66,4.21,7.32,3.48,2.61,6.49.25,11.06,1.72,6.07,2,5.08,7.49,11.53,12.62,7.82,6.21,18.67,5.58,20.88,5.45,7.57-.44,10.54-3.26,16.83-1.4,2.08.62,6,1.76,8.1,5.14,2.51,4,.64,10-3.11,22.13-2.57,8.29-2.76,6.08-4.68,12.78-.95,3.34-1.4,5.59-3.42,7.48-2.45,2.27-5.75,2.65-8,2.65l.62,30.69a41.15,41.15,0,0,1,11.84,7.17,40,40,0,0,1,8.26,9.82c1.24,2.09,2.5,5.84,5,13.24,2.72,8.12,2.88,9.32,2.18,10.44-1.59,2.55-5.77,1.69-12.93,2s-14.83.69-21.19,4.36c-5,2.86-8,8-14,18.23-4,6.85-6.06,10.37-6.23,15-.27,7.19,3.38,12.75,5.45,15.9,3.13,4.75,6.55,7.46,11.69,11.53a95.48,95.48,0,0,0,12.31,8.26l.78,18.85c-1.35,1.08-3.38,2.67-5.92,4.52-5.11,3.72-7.69,5.59-9.35,5.61-4.31.06-4.91-5.58-11.53-11.22-8.88-7.56-19.93-7.75-22.44-7.79a27.15,27.15,0,0,0-12.31,2c-6.79,3-7.72,7.52-14.65,15.42-7.47,8.53-15.22,13.38-22,17.61-7.75,4.85-11.62,7.28-17.3,8.88-7.6,2.15-11.58,1.19-13.71,4.37-2.4,3.58,1.35,6.79,2,16.36.61,8.76-2.3,9.51-2.19,20.1.07,6.16,1.11,10.82,2.34,16.36,2.7,12.12,4.92,12.84,5.14,19.79.19,5.84-1.22,10.18-3.42,17-4.37,13.46-8.95,17-6.86,20.57,2.33,4,9,1.17,17.61,7.17a29.91,29.91,0,0,1,6.07,5.77c13.45,15.62,18.46,17.59,30.08,32.25,13.46,17,10.84,19.53,23.53,33.35,5,5.49,17.1,18.62,22.13,15.89,3.19-1.73,2.78-9.45,1.24-14.49-1.58-5.19-5.18-9.14-12.31-16.83-6.57-7.08-9.64-9.26-9.19-12.78.21-1.61,1.91-3.64,5.3-7.63,3.75-4.42,5.63-6.63,6.7-6.86,6.59-1.38,11.21,14.74,21.81,15,.68,0,.05-.06,8-1.25,7.61-1.13,8.47-1.1,10.28-2,3.64-1.85,3.9-3.86,6.86-4.36a9.6,9.6,0,0,1,6.39,1.55c7.37,4.23,12.82,12,17,16.52,2.94,3.23,12.26,13.48,24.47,14.49,4.09.34,9.33-1.48,19.79-5.14a149.78,149.78,0,0,0,21.66-9.19,162.25,162.25,0,0,0,20.1-12.78c6.05-4.3,9.13-6.51,12.15-9.66,5.07-5.28,4.43-6.73,10.91-15.43,7.5-10.06,11.33-12.13,10.6-15.89-.36-1.82-1.77-4-10.76-7.95-17.11-7.55-29.65-7.48-30.07-11.37-.1-1,.65-1,4.67-5.61,5.23-5.93,5.31-7.33,7.95-9.35,4.45-3.41,6.24-1,11.38-3.74,8-4.28,7.12-12,15.89-15.74,3.89-1.66,5.84-.88,6.39-.62,3.74,1.74,4,7.78,4.05,8.57.11,3.27-1,4.15-2,8.41a29.39,29.39,0,0,0-.47,12.31c.23,1.14,1.57,7.73,6.7,12,3.32,2.76,6.77,3.34,17.92,3.89,18,.91,27.1,1.31,31.16-1.09,7.27-4.29,8.61-10.75,14.18-10.44,4.8.27,8,5.31,8.42,5.92,2.72,4.37,2,11.18.31,24.62-.55,4.53-1.1,7.84-.16,12.47.92,4.48,2.21,5.18,3.15,8.52,2.63,9.3-4.86,12.78-4.08,23.11.61,8.07,5.35,8.42,6.08,18.08.49,6.63-1.17,14.09-3.43,14.33s-4.83-7-6.7-12.31c-4.61-13.12-3.33-17.45-6.39-27-1.38-4.28-4.65-14.42-13.25-22.44-5.41-5.06-7.23-3.94-25.24-12.31-18.23-8.48-22.91-12.66-28.83-10.13-3.91,1.67-6.16,5.33-9.5,10.75-2.41,3.9-5.2,8.43-5.15,14.34,0,3.38,1,3.34,3.12,11.53s1.34,9,3.12,14a58.8,58.8,0,0,0,6.7,13.09c1.48,2.31,3.47,5.2,11.37,14.49,11.11,13.06,12.9,14.1,13.56,18.23.43,2.72-.49,1.36-2.34,15-.92,6.78-1.14,10.44-3.89,12a7,7,0,0,1-5.3.31c-4.74-1.51-4.41-6.74-9.19-10.75-2.1-1.75-5.27-2.49-11.54-3.89-7.08-1.59-11-1.74-16.36-2.5-6.56-.92-11-2.15-18.54-4.2-18.18-5-28.33-12.44-54.54-24.47a125,125,0,0,0-14-5.45A91.59,91.59,0,0,0,166.65,1725.33Z"/><path d="M1038.15,2567.74c-2.41,1-1.33.35-9.35,3.12-8.51,2.94-8.1,3.14-12.31,4.36-4.8,1.4-5.66,1.24-5.92,2-1.06,3.26,13.65,6,20.88,17.29,1,1.5,2.87,4.83,5.92,5.15,2,.2,3.72-.9,5.3-1.87a17.81,17.81,0,0,0,5-4.68c3.49-5.11.82-9,2-21,.62-6.15,2.39-8.27,1-9.15C1049,2561.91,1045.8,2564.5,1038.15,2567.74Z"/></g></g></svg>