<svg xmlns="http://www.w3.org/2000/svg" viewBox="0 0 2697.3 2110.69"><g id="Layer_2" data-name="Layer 2"><g id="Morocco"><path d="M2685.62,827.53c-14.38-9.67-21.1-10.79-33.43-17.63-10.45-5.79-17.49-11.55-28.78-20.8-8.22-6.72-13.52-11.79-20-18-24.12-23.09-25.08-28.84-24.12-32.44,1.06-4,3.87-3,7.32-9.65a32.48,32.48,0,0,0,2.83-20.47,25.87,25.87,0,0,0-4-10.31c-7.13-10.38-18.47-8.13-21-15.8-1.57-4.84,2.3-7.73-.33-12.65-1.41-2.63-3-2.77-7.15-6.32-2.2-1.89-6.48-5.58-8.82-10.15-2.8-5.46-.27-7.21-1.83-18.63-1.24-9.07-3.07-9.71-2.5-14.64.72-6.14,3.83-7.37,8-15,1.68-3.08,10.66-19.5,5-31.45-2.05-4.31-3.85-3.49-6.82-9.48-3.95-7.95-2.09-12-5.82-14.8-4.25-3.14-8.85.51-12.48-3-3-2.89-2.49-7.92-2.33-9.48.67-6.66,4.9-7.3,6.65-13.31,1.26-4.27-.39-5.62-4.15-21.63-1.89-8-2.83-12-2.83-15.14,0-7.88,2.74-9.44,6-20.63,2.58-8.88,5.95-20.5,2-32.1-1.17-3.44-1.47-2.45-5.32-11-1.13-2.5-4.13-9.3-7.32-18.8-6.07-18.07-4.09-19.87-9-29.12-4.33-8.16-6.68-8.28-6.66-12.31.06-10.75,16.91-16.33,15.14-22.62-.7-2.5-3.41-1.83-10-6.16s-10.49-9.38-14.31-14.3c-4.83-6.24-7.24-9.35-7.48-11.65-1-9.28,10.67-12.76,13.3-28.12.64-3.7,1-5.8.17-8.48-1.72-5.53-6.87-8.16-28.11-18-12.43-5.73-18-8.23-19.3-13.64-.7-3,.1-5.95-2.17-8s-4.23-.35-9-1.67c-4-1.11-6.65-3.39-10.65-6.82s-3.06-3.6-6.15-6.15c-5.35-4.42-7.81-3.64-14.31-8.49-3.21-2.4-4.82-3.59-5.82-5.49-2.41-4.56-.37-8.45-3.16-11-1.21-1.09-2-.77-5.45-1.62-5.4-1.34-5.66-3.12-11.11-4.62-6.59-1.8-8-.62-12.85-2.87-3.76-1.74-4.92-3.37-8.86-4.11a16.52,16.52,0,0,0-6.61,0c-6.32,1.4-6.74,6.47-13.1,10.48-4.28,2.69-8.32,3.06-15.72,3.74a56.1,56.1,0,0,1-15.22-.62c-2.25-.44-5.58-1.54-12.23-3.75-5.63-1.86-8.49-2.82-10.23-3.86-.23-.14-.42-.29-.63-.42a10.83,10.83,0,0,1-3,.76,3.32,3.32,0,0,1,.39,2.77c-1.42,3.49-12.34,3.55-20.08-.49-9.07-4.74-11.8-14.07-12.36-16-2-6.81.7-8-1.62-16.59-1.54-5.73-2.75-5.29-5.36-13.73-1.26-4-1.89-7.1-3.66-11.64a21.13,21.13,0,0,1-.84-2.5,24.31,24.31,0,0,1-.49-8c.38-9-.41-10-.84-10.32a4.44,4.44,0,0,0-5.15-.16c-1.15.86-1.23,2.24-1.67,5.82-.29,2.39-.78,4.76-1,7.15-.43,4.81-2.36,6.07-8.15,17.81-3.53,7.16-5.38,11.9-7.48,11.64-1.27-.15-1.43-2-3.33-2.66-2.54-1-5.48,1-6.82,2-8.77,6.14-13.21,11.11-19.47,15.14a52.67,52.67,0,0,1-17.13,7c-5.3,1.13-4.44,0-11.31,1.33-4.44.84-8.28,1.94-10.82-.16a5.94,5.94,0,0,1-1.11-1.3c-3.38-4.66-13.43-3.07-23.68-4.53-4.34-.61-9.32-1.32-14.8-4.32-8.23-4.5-8.34-9.09-14.64-10.65-5.63-1.39-13,.42-16.31,5-3.14,4.38-.21,8.08-3.82,12.15-2.52,2.82-6.17,3.54-11,4.49a29.51,29.51,0,0,1-10,.33c-4-.59-6.42-.94-8-2.83-2.71-3.24,0-7.35-2.66-9.65-1.69-1.43-4.61-1.39-6.49-.5-2.14,1-1.93,2.69-4.66,4.33-1,.62-3.09,1.86-4.82,1.16-2.13-.85-2-3.93-3.5-4.16-1.11-.16-1.73,1.4-3.32,2.83-3.15,2.83-6.15,1.62-10.15,3.33-4.3,1.84-3.34,4.32-7.32,7-5.91,4-9.93-.23-21.79,2.66a43.73,43.73,0,0,0-10.48,4c-5.73,3.11-5.51,4.75-9.49,6.82-8.06,4.2-17.45,1.9-21.79.83-5.47-1.34-5.11-2.41-12.15-4.32-6.19-1.69-8.35-1.37-15.13-2.5-10.85-1.79-10.24-3.42-21.63-5.65-11.23-2.21-12.74-.81-19-3.5-4.63-2-4.95-3.27-12.81-8.65-12.55-8.6-13.46-6.54-20.46-12.31-7.8-6.43-6.78-9.08-16-16.14-4.41-3.38-7.12-5.46-11.48-7.15-3.81-1.47-5.53-1.35-8.15-3.33-3.08-2.31-3.57-4.64-6.16-8.81-3-4.94-4-4.28-9.15-10.82-7.44-9.36-5.77-11-10.31-14.47-6.35-4.91-9.78-1.93-13.64-6.49-3.3-3.9-4-9.93-5-17.47-.49-3.93-.54-7.18-3-9-2-1.47-4-.76-5.65-2.5s-1.52-4.66-1.5-6.82c.06-6.26-2.31-6.42-4.66-16.47-2-8.73-3.19-13.65-.83-18.46.8-1.64,1.62-2.48,8.65-8.65l.62-.55a17.65,17.65,0,0,0-9.44-4.61c-2.39-.29-5,0-13-.67-11.64-1-11.93-2.15-14.64-1.16-6.42,2.35-5,9.19-14.48,16.8-3.34,2.67-5.5,4.36-9,5.49-6.16,2-8.37-.39-16.8.83-4.59.67-8.61,1.25-12.81,4-4.9,3.19-7.24,7.48-10.82,6.82-1.18-.22-1.63-.83-2.83-1.67-6.44-4.53-16.28-3-22.29-.5-2.58,1.09-4.11,1.73-5.65,3.33-4.14,4.3-2.65,9.59-3.33,18.3-.33,4.17-2.49,11.43-6.82,26-.86,2.89-2.34,7.83-4.49,14.15-3.11,9.12-5.55,15-8.32,22-8.57,21.46-12.86,32.19-14,37.26-2.54,11.54-1.82,16.72-6.82,25.12-3.05,5.12-5.18,6.34-8,12-3.72,7.49-3,11.56-4.83,21-3.81,20-10.5,20.31-12.64,38.43-.5,4.22-.61,8.19-2.5,14.14-2.06,6.51-4.53,9.92-7.65,15.31-7,12-5.4,13.49-13.47,29.44-3.79,7.48-3.08,5.08-10.82,19.13-7.22,13.12-11.58,21.1-15.8,31.61-4.72,11.73-2.9,10.78-6.49,19.14-7.55,17.56-14.85,20.05-24.29,36.76-7.91,14-3.62,13.73-12.14,30.61-6.71,13.28-13.69,22-25,36.1A295.13,295.13,0,0,1,1415.11,508a154.5,154.5,0,0,1-16.8,14.81c-6,4.44-12.71,9.31-22.46,12.81-5.48,2-5.77,1.28-11.64,3.49a72.45,72.45,0,0,0-18.3,9.65c-11.42,8.52-13.9,16.87-20.13,16.14-3.15-.37-3.54-2.62-7-2.83-4.36-.27-7.52,3.08-13.14,8.82-12.5,12.74-16.22,15.89-21,18.63-7.18,4.15-10.76,3.93-13,3.16-2.71-.94-3.21-2.63-5.82-3-2.92-.41-5.53,1.27-10.65,5.65-9.7,8.3-8.34,9.12-12,11-6.34,3.25-8.87,0-17.13,3.5-3.69,1.58-3.66,2.44-10,6.32a127.59,127.59,0,0,1-14.48,7.48c-11.29,4.82-13.35,2.4-24.12,6.33-11.43,4.16-9.8,7.13-20.63,11-12.33,4.37-14.94.7-24.29,5.32-5.79,2.86-9.57,6.79-17.13,14.64s-8.64,10.84-15.48,15.64c-8.35,5.86-13.94,6.4-16,4.82a14.18,14.18,0,0,0-2.33-1.66,12.52,12.52,0,0,0-4.49-1.5c-3.07-.32-5.48,3.57-11.48,11-6.68,8.26-8.26,9.07-9.15,12.81-1.06,4.46.58,5.86-.16,9.65-1.53,7.78-10.42,12.09-13.31,13.64-17.94,9.6-17.18,26-50.58,57.56-13,12.33-18.94,15.29-32.6,29.45-2.79,2.89-7.48,7.88-14.64,14.47-1.51,1.39-7.16,6.56-16.14,14C913.8,853.37,908.84,856,909,861c.17,4.13,3.65,4.18,6.65,12,1.49,3.85,3.81,9.88,1.67,15.47-2.57,6.73-9.14,6.38-10.65,13-.17.75-.43,2.26,1.33,9.48,2.15,8.8,3.67,11.17,4.66,15.31,2.44,10.19-1.11,19.39-2.16,22.12-2.08,5.38-3.18,4.59-11.81,19.8a97,97,0,0,0-4.66,8.82c-3.49,7.93-3.68,12.4-5.33,16.8-1.86,5-3.93,5.44-16.8,17.14-14.69,13.34-22.12,20.17-26,27.94-1.82,3.7-2.72,6.64-6,10.82-4.71,6-7.75,6.16-13,12a45.28,45.28,0,0,0-8.65,14.3c-2.42,6.74-1.24,9.26-4.49,18.64-1.48,4.27-2.22,6.41-3.49,8.31-5.46,8.16-13.62,8.77-14.14,14.31-.22,2.26,1.14,2.18,1.49,5.32.71,6.35-4.24,12-7.82,16-6.18,6.88-11.26,8.71-10.64,11.64.38,1.85,2.57,1.91,5,3.83,6.81,5.4,5.63,17.76,5.16,22.79-.56,5.84-2.26,10.88-5.66,21-2.95,8.73-3.9,9.58-4,13.48-.14,5.86,1.94,7.71,2.82,16.63a82.38,82.38,0,0,1,.17,10.82c-.26,12.73-1.42,13.05-1.33,20.13.18,13.88,4.68,14.88,2.5,23.62-1.32,5.29-3.58,7.38-3.17,12.81.4,5.16,2.65,6,2.5,10.31,0,1.6-.44,3.93-6.82,13.15-5.81,8.39-6.89,8.48-8.65,12.47-1.24,2.8-4.68,10.62-1.5,14.64,2.86,3.62,7.68-.1,15.31,3.66,2.74,1.36,1.66,1.61,11.81,10.32,4.91,4.21,5.67,4.58,7.65,6.82,2.61,2.93,2.54,3.69,6.82,9.65,4.94,6.87,5.43,6.43,6.32,8.81,2.2,5.89-1,8,1,12.81,2.42,5.8,7.94,4.65,10.65,10.15,1.63,3.33.83,6.2-1.5,16.14,0,0-2.33,9.94-4.49,20-3.34,15.49-.53,15.2-3.33,26-1,3.81-1.13,3-12.14,27.11-4.39,9.6-6.58,14.4-9.15,20.3-5.56,12.77-5.33,13.13-7.49,17.13-4.15,7.69-8.33,12.51-15.3,20.47-8.17,9.31-10,9.74-20.8,21.62-3.35,3.68-2.11,2.47-12.31,14.14-15.76,18-16.27,18.14-18.3,21.63-4.37,7.53-2.61,8.28-9.65,22.79a138.26,138.26,0,0,1-7.82,14.64c-5.71,9.14-7.39,8.94-14.8,19.47-7.25,10.29-7.21,12.69-12.65,17.63-4.81,4.38-7.82,5.2-12.47,8.15-7.48,4.74-9.34,8.72-22,25.62-12.38,16.58-18.7,25-25,30.12-9.12,7.48-10.71,5.79-19.13,13.64-5.52,5.14-9.56,10.27-16.64,11.14-2.85.36-4.05-.25-7.15.67-5.12,1.51-7.21,4.76-10.81,7.65-4,3.18-5.73,2.71-15.48,6.32a179.61,179.61,0,0,0-25.45,12c-7.15,4.12-8.15,5.49-15.8,9.48-4.31,2.25-10.38,5.16-12.48,6.16-6.71,3.21-6.68,3-8.15,3.83-8.1,4.29-9.91,9.73-19.63,21.29-2.82,3.35-6.59,7.53-12,12.81-9.12,8.93-12.34,10.38-19.3,18-6.45,7-4.37,6.74-12.31,15.64-8.71,9.76-12,11-17,18.79-5.24,8.19-3.62,9.94-8,14.15-3,2.84-4.91,3.2-19.8,8.48-11.56,4.09-9.69,3.63-19.47,7-11.13,3.82-11.27,3.64-16.47,5.49-16.56,5.89-16.93,8.38-31.6,13.64-12.05,4.32-23.46,7.15-23.46,7.15-8,2-13,2.77-19.13,6.82-5.09,3.36-4.86,5-9.32,7.66-6.61,4-12.57,3.8-20.8,4.32-9.5.61-18.84,2.71-28.28,4-2.72.37-16.83,2.3-32.44,4.83-21.11,3.42-19.26,3.78-30.61,5.32-3.56.48-18.63,2.47-38.76,3.16-10.58.37-17.29.2-30.45,1.33-13.59,1.18-22.74,2.76-25.95,8.49a53.79,53.79,0,0,0-4,10.48c-.66,2.41-.91,3.94-1.17,5.16-1.35,6.55-4.3,11.39-10.14,20.79-5.22,8.39-7,9.78-9.15,10.32-2.81.7-3.46-.74-6.66,0-4.91,1.12-4.76,4.84-10.81,7.82-3.71,1.82-5.38,1.22-7.15,3.32s-2,4.94-1.83,7l1023,35.77c.48-19.75.8-35.74,1-46.25,1.18-62.51.72-74.17,2.33-94.83.29-3.78,1-12.71,1.33-24.95.13-5.44.14-10.26-.17-27.78-.08-4.29.31-22.62-.5-41.43-.56-13-1.22-19.33,2.5-27.45,1-2.19,7-15.22,19-18.63,6.42-1.83,8.32,1.05,13.81-1.83,6-3.15,6.16-7.62,13.81-12.64,5.36-3.53,6.11-1.88,10.48-5,7-5,5.47-9.55,12.31-17.3,3.44-3.9,7.9-6.7,16.8-12.31,9.16-5.76,10.26-5.15,13.81-8.82,4.3-4.43,4.94-7.64,10.15-11.47a31.21,31.21,0,0,1,8.48-4.33,208.21,208.21,0,0,0,31.28-15.14c9.65-5.7,16.32-11.76,24.45-19.13,9.23-8.37,9.16-9.77,16-15,10.85-8.29,13.75-6.8,23.12-14,13.82-10.58,10.51-16.11,19.3-19.46,11-4.19,16.68,4.2,34.6.16a44,44,0,0,0,13-5c1.62-1,5.57-3.44,12.31-10.81s7.26-9.82,12.31-15.64c4.43-5.11,8.55-8.23,16.8-14.47,12.13-9.18,18.19-13.77,26-15.31,3.42-.67,8.55-.23,18.8.67,10.6.92,17.48,2,29.12,3.66,23.68,3.34,19.74,2.29,26.12,3.49,21.53,4.06,25.87,8.42,38.09,6.49,9.3-1.47,14.64-5.23,16.31-6.49a35.56,35.56,0,0,0,10.48-13.31c10.06-21.32-1.79-43.85,4.49-46.91,3-1.48,5.36,4,15.14,6.32,8.73,2.1,10.37-1.42,22.29-.83,12.94.64,16.66,5.06,23,1.83,4.35-2.23,3-4.59,8.82-8.65.81-.58,11.65-8,19.46-4.16,3.34,1.64,3,3.81,6.65,5.49,4.88,2.24,10.14.49,12.65-.33,10.36-3.4,21-5.7,31.44-9a115.36,115.36,0,0,1,30.94-5.15c19.9-.85,36,3.59,40.93-3.83a30.62,30.62,0,0,1,4.32-6.16,27.18,27.18,0,0,1,8.66-6c11.53-5.28,16.88-7.12,21-9.15,5.28-2.62,11.11-9.06,22.79-22,2.47-2.72,6.47-7.41,14.47-16.8,8.93-10.47,13.44-15.76,15.31-18.3,5.76-7.82,9.1-14,14.64-24.12,6.48-11.9,9.72-17.85,12.64-26,5.15-14.28,3.26-17.31,8.15-23.63s11-8.74,21.3-12.81c20.43-8.08,25.44-3,34.77-10.81,7.12-5.94,8-12.09,16.3-14.47,2.68-.78,2.85,0,12.64-.67s14.57-.93,18.8-1.83a61.63,61.63,0,0,0,16.47-6.15c14.55-7.73,14.09-14.55,26.12-19.64,9.49-4,10.72-.17,18.8-4.15,3.29-1.63,8.14-4.75,21-24.46,11.86-18.22,11-20.58,16.14-23.46,7.45-4.15,11.15-.25,31.77-1,10.78-.39,18.27-1.76,27.79-3.5,19.33-3.53,29.07-5.43,32.44-11.81,2.13-4-.49-4.32,1.66-20.8.67-5.13,1.38-8.59-.66-10.48-2.4-2.21-5.59.51-10.48-1.16-3.45-1.17-4.05-3.25-10-10s-8.85-10-11.31-10.15c-7.08-.33-12.29,13.49-15.47,12.14-.71-.3-.45-1-2.33-7.15-1.2-3.94-1.57-4.54-1.16-5.49,1.15-2.69,5.84-1.67,7-4.16.83-1.79-1.13-3.36-2.33-6.49-2.26-5.91,1.72-8.26,1.83-18.3.09-7.07-1.86-8.36-.16-12.31.51-1.18,1.11-2,6.65-8,6.2-6.64,6.75-6.94,6.66-7.82-.51-5-18.55-2.7-25-12.48-1.94-3-1.7-7.33-1.16-16,2.21-35.31,2.7-40,7.32-43.59,2.92-2.26,7.11-3,15.47-4.49,6.21-1.13,12.33-2.24,19.13-1,12.57,2.29,12.81,9.93,24,11.48,8.75,1.22,16.29-2.41,21.29-4.82,9.2-4.44,9.12-7.88,18.26-12.81,7.37-4,9.66-2.95,22.67-6.82,15.18-4.53,13.56-6.38,28.44-11.15,17.83-5.71,23.86-4.24,29.62-11,3.36-3.94,4.21-7.85,5.82-15.3,4.18-19.33-2.14-27.32,3.66-37.77,3.69-6.66,9.78-9.76,13.81-11.81,14-7.13,22-.49,41.26-3.49,14.9-2.33,12.88-6.74,33.27-12,13.14-3.38,23.2-3.92,36.93-4.66,13.88-.75,24.75-.29,45.92.66,27.46,1.24,28.85,2.23,48.08,2.5,17.2.24,16.76-.55,31.1,0,17.39.66,22.12,2,35.44,1.16,10.14-.61,10.45-1.56,21.29-2,3.75-.15,7.65-.2,26.29.33,20.61.59,23.72,1,26-1.83,1.15-1.44,1.83-3.29,1.67-23.79,0-4.52-.09-6.61-.17-13-.23-18.51-.06-21,.5-24.13,1.26-7.06,2.1-11.72,5.66-16,5.6-6.69,11.32-4.43,23.12-10.48,2.12-1.09,20.46-10.48,19.63-20.46C2697,836.63,2695,833.84,2685.62,827.53Z"/></g></g></svg>