<svg xmlns="http://www.w3.org/2000/svg" viewBox="0 0 1794.65 2941.07"><g id="Layer_2" data-name="Layer 2"><g id="Mozambique"><path d="M510.3,612.58c6.36.45,10.19,10.91,11,13.14,3.48,9.52.15,11.86,3,19.88,2.13,6,4.63,6.52,12.08,16,8.31,10.56,6.38,11.37,13.84,21.12,9.5,12.42,12.13,10.48,20.6,22,7.67,10.46,10.6,19,13.67,18.28,1-.24,1.34-1.34,4.61-9.94,3.14-8.27,3.94-10.15,5.33-10.3,2.52-.26,3.31,5.55,7.81,6.75,1,.28,2.68.42,9.23-3,8.33-4.37,9.09-6.38,14.91-8.7a39.88,39.88,0,0,1,10.12-2.48c6.65-.73,8.18.85,14.2.53,3.81-.2,7.39-1.44,14.56-3.9,10-3.45,10.15-4.64,16.16-6,4.41-1,9.65-2.25,16-.89,7,1.5,11.44,5.3,15.44,8.7A46.32,46.32,0,0,1,725.64,710c3,6.64,1.45,7.86,5.15,24.5,1.42,6.36,2.31,10.38,4.08,16,2.8,8.84,4.77,12.09,5.86,19.35a61.13,61.13,0,0,1,.54,11.54c-.46,19.06-6.2,22-4.44,33.91,1.31,8.9,4.89,10,3.73,16.69-.82,4.68-2.64,4.45-9.06,15.62-5.21,9.07-6.1,12.86-10.47,14.56-4.15,1.61-5.91-.8-8.35.88-1.13.78-3.9,3.47-.71,29.12.87,7,1.74,12-1.42,16-1.72,2.15-3.57,2.61-6.21,3.9-10.74,5.27-16.25,15.36-17.75,18.11-2.61,4.78-7.82,14.3-4.09,20.59,3.46,5.84,10.93,2.75,19.35,10.3a30.45,30.45,0,0,1,8.35,13.14c2.28,6.86,1.94,14,1.42,25-.35,7.23-.88,9,.71,11,3.46,4.3,9.74.42,16.69,5.32,5,3.5,7,9.18,7.45,10.48,1.4,4.12.3,5.2,1.6,8.52,1.7,4.33,5.22,6.73,10.83,10.12,12.51,7.55,13,6.47,17.22,9.58,4.82,3.55,6.14,6.38,23.26,33.2.52.82,1.39,2.18,2.66,3.91,2.89,3.93,6.77,9.2,11.72,12.25,2.8,1.72,3.31,1.11,20.41,4.44,7.73,1.5,8.93,1.88,10.12,3.19,4.15,4.59,3,14.9-2.13,20.6-3.13,3.48-5.72,3-10.47,8.34-2.6,2.91-4.4,4.94-4.44,7.81,0,2,.79,3.1,5.32,10.48,3.4,5.52,3.26,5.39,3.38,5.5,4.25,4,10.34,1.63,27.51.89,3.31-.15,4.89.9,6-.18,2.64-2.49-2-8.82-3.91-20.59a59.26,59.26,0,0,1-.35-17.76c1.38-9.86,4.5-11.37,4.79-19.7.12-3.29.33-9.29-2.84-15.27-3.92-7.39-9.6-8.33-18.64-20.06-2.52-3.28-3.26-4.74-3-6.39.62-4.12,6.68-4.68,13.67-11.72a26.12,26.12,0,0,0,5-6.21c3.34-6.16,1.65-10.82,1.78-20.42.13-9.79.21-15.65,3.73-21.48.68-1.13,1-1.49,13.49-13.32,5-4.72,7.49-7.09,8.52-7.45,8.13-2.83,12.52,6.09,23.44,5,.43,0,5.31-2,15.09-6,3.46-1.41,7.41-3,12.42-5.32,10-4.56,11.46-6,12.43-7.1,3.49-4.2,3.67-9.41,3.73-12.61.55-28.14-3-43.08.18-62.31,1-6.17,1.78-7.18,2.48-13.67a109.6,109.6,0,0,0-1.06-30.18c-.91-5.14-1.38-5.6-2.67-13a131.26,131.26,0,0,1-2.13-16c-.51-9.59-.86-16,2.13-22.9,2.5-5.79,5.11-6.84,10.3-17.58a18,18,0,0,0,2.31-9.23c-.26-4.2-2.27-6.63-3.55-9-6.34-12,5.51-22.88-1.07-33.2-1.84-2.89-2.47-1.56-7.81-7.1-5.89-6.11-8.62-11.35-11-15.27-8.77-14.39-13.72-12.26-25.92-29.47-5-7-3.64-6.66-10.65-17C894.08,653,889,646.8,883.47,639.92c-8.22-10.19-16.3-20.51-24.5-30.71C842,588.12,830.69,574,816.89,556c-16.27-21.31-18.47-25.24-25.92-27.88-21.73-7.7-39.23-3.37-39.23-3.37-3,.76-8.52,2.42-11.72-.35-2.85-2.48-2.31-7.12-2.13-11.54.37-8.74-2.1-17.37-2.66-26.1-1.26-19.74-2.65-18.36-3.55-34.09-1.73-30.1,3.23-37.5-3-55.21-1.16-3.28-1.51-3.56-6-15.27-5.66-14.66-8.49-22-9.58-26.8-3.46-15.21,1.37-15.79-1.78-30-3.57-16.14-10.33-17.79-9.41-28.05.51-5.58,5.2-11.73,14.56-23.78,13.44-17.31,17.9-19.44,23.08-30.54a59.45,59.45,0,0,0,5.86-18.29c2.11-15.47-3.45-25.51,1.6-29.64,1.41-1.16,4.21-2.3,10.29-.54L919,192.36l28-24.14,16.69.18,19.88,15.8c3.64,4.63,6,5.26,7.46,5,2.2-.44,2.48-2.95,5.15-3.91,3.49-1.25,7.39,1.47,8.34,2.13a15.29,15.29,0,0,1,6.22,14c-.73,5.2-4.24,6.22-3.55,9.23,1.17,5.13,12.38,6.62,16,7.1,5.26.7,12,1.61,19.35-1.42,5.13-2.12,7.52-4.92,12.43-4.44,1,.1,5,.49,6.57,3.2,1.83,3.2-1.4,6.74.36,8.87,1.27,1.56,4.16,1.12,7.63.54a46.46,46.46,0,0,0,13.67-4.8c7.65-3.82,6.66-4.51,11-6,6.48-2.28,9.4-1,11.54-3.73,1.93-2.48.14-4.33,1.77-9.23.45-1.37,2.88-8.12,7.28-9.06,4.68-1,6.19,5.73,13.31,7.28s9.73-4.15,19-3.73c3.39.16,4.29,1,12.78,4.27a217.8,217.8,0,0,0,23.08,7.81c12.8,3.34,12.73,1.11,23.61,4.61,6.45,2.08,8.25,3.43,11.36,2.49,6.76-2,6.35-10.85,13.32-12.78,4-1.12,5.39,1.47,11.54.53,4.15-.64,6.85-2.33,9.59-3.91,15-8.68,16.34-5.64,21.12-10.29,5.21-5.08,2.79-7.89,10.83-25.92,3.32-7.45,5-11.17,7.1-13.32,4.18-4.23,8.89-5.44,32.85-7.45,23.54-2,30.55-1.78,35.15,3.19,2.5,2.71,1.12,3.42,3.9,6.39,7,7.48,15.74,3,25.74,10.3,4.35,3.18,4.56,5.38,7.64,5.68,3.86.37,6.31-2.83,14.38-10.3,7.77-7.19,11.66-10.78,15.09-12.25,8.18-3.49,10.8.35,18.46-3.19s6.9-8.07,14.2-12.61c2.32-1.43,4.47-2.27,23.26-4.08,17.24-1.66,26-2.47,30.71-1.42,6.69,1.48,9.27,3.48,14.21,2.31,6.3-1.5,9-6.4,13.49-11.36,6.66-7.4,14.44-11,30-18.29,11.6-5.41,14.75-5,31.07-10.47,20.79-7,36.26-12.19,51.84-23.44,16.08-11.61,12.27-15.21,28.93-25.92,18.21-11.69,24.06-8.22,33-19,3.61-4.35,9.92-13.64,19.17-16.34,1.68-.49,3.51-.77,4.61.18,2.41,2.09-1.39,7.7-.53,15.62a23.47,23.47,0,0,0,3.2,9.41c2.93,5.05,6.45,6.65,20.41,16.51,5.8,4.1,6.78,4.94,7.1,6.57.29,1.42.41,5-12.78,16.69-10.63,9.4-14.58,10.47-15.44,15.62-.7,4.14.85,9.41,3.37,13.14,2,3,3.51,3.23,4.26,5.15,2,5.06-5,11.42-11,18.28-5.11,5.84-22.75,25.95-18.1,35,2.42,4.71,9.43,3.47,11.89,9.58,1.29,3.21.07,5.3-.89,10.66-2.37,13.28,2.47,15.34.36,28.4-1.23,7.61-3.06,8-3.38,15.09a46,46,0,0,0,2,14.91c4.11,15.25,7.52,27,8.16,29.3,5.11,18.13-1.63,17.82,1.07,55,.93,12.8,2.09,17.89-.36,26.27-2.38,8.18-6.62,14.06-4.08,17.23,2.67,3.33,9.3-.78,13.14,2.84,2.82,2.66.91,6.46.35,17.93-.61,12.57,1.33,15.35-.71,25.38a33.7,33.7,0,0,1-3.73,10.3c-1.89,3.34-4.15,7.35-8.34,8.7-3.85,1.24-5.57-1-8,.35-5,2.73-5.18,16.15-.89,17.93,3.23,1.35,9.64-2.74,11.72-8,1.46-3.69.4-7,1.78-7.46,1.54-.52,2.94,3.63,8.16,6,2.59,1.19,3.49.75,4.26,1.77,2.09,2.76-2.56,8.4-4.79,13.85-2.9,7.09.16,9.31,2.13,28.4.92,8.94,2.15,21.6-.18,33.73-1.48,7.74-2.22,11.61-3.37,14-1.8,3.81-4,6.52-3,9.59.73,2.31,2.64,2.88,4.26,4.43,4.4,4.21,1.58,10.73,1.6,22.55,0,15.33,4.77,15.66,3,26.63-.51,3.17-1.56,7.28.35,11.72.86,2,1.68,2.57,4.44,7.28a48.85,48.85,0,0,1,3.55,6.56c1.2,3.32.66,7-4.08,17.22-6.06,13.07-9.38,16.11-7.81,18.65,1.81,2.91,8.77,3,13.49,1.24,4.15-1.52,5-3.84,7.46-3.38,3.91.75,5.76,7.53,6.57,10.48a21.9,21.9,0,0,1,.88,9c-.92,7.1-5.73,13.37-8,12.79-1.29-.34-1-2.76-3.72-4.8-.27-.2-2.13-1.59-3.2-1.42-5.18.84-2.5,40.14-1.77,40.12.4,0-1.88-12.37,5-18.1.61-.52,1.32-1,7.63-3.2,9.6-3.35,14.43-5,16.16-3.91,3,1.94,1,7.47.71,17.4-.4,13.24,2.45,29.51,4.61,41.9.57,3.26,1.56,8.56-1.42,12.25-1.07,1.33-2.35,2.07-8.7,4.08-11.83,3.76-16.49,4.09-17.75,7.46a6.43,6.43,0,0,0,.35,4.61c2.42,5.89,11.57,6.33,11.37,8-.13,1-3.67,1.52-8.17,2.13-5.8.8-7.32.45-7.81,1.42-1.34,2.68,8.85,7.8,7.81,13.67-.43,2.45-2.63,4-4.62,5.33-4.25,2.93-9.14,3.19-13.49,3.37-5.65.24-7.78-.69-8.7.71-.72,1.1.58,3.89,3.2,9.41,1.68,3.54,2.09,4,2.66,4.09,3,.55,5.85-8.53,8.34-8,1.42.3,1,3.34,3,8.16,2.3,5.46,4.59,5.71,5.51,9.06,1.25,4.59-1.88,8.39-5.51,14.73-6.38,11.18-3.75,11.79-8.87,20.6-7.34,12.61-12,10.12-22.55,25.38-2,3-4.8,7.49-10.3,16.51s-6.49,11-9.41,14.21c-4.58,5-5.32,3.63-14.2,11.18a133.89,133.89,0,0,0-14.73,15.27,29.94,29.94,0,0,0-5,7.63c-1.79,4.13-1.42,6.17-2.31,10.65s-3.12,8.89-7.64,17.93c-4.23,8.49-5.52,9.69-6.56,10.48-3.25,2.44-5,1.62-12.08,3.55-4,1.1-8.72,3.39-18.1,8-5.66,2.77-8.29,4.28-10,7.45a12,12,0,0,0-1.42,6.22c.5,7.84,9.66,10.12,9.59,16,0,1.76-.87,3.87-7.1,8.88a91.86,91.86,0,0,1-19.71,12.07c-6.78,3.13-15.52,9.43-33,22-13,9.38-13,10.26-20.59,14.91-14.85,9-16.19,6.34-23.61,12.25-13.5,10.73-10.21,20.55-23.26,30-5.83,4.23-11.64,5.6-23.26,8.35-17.06,4-21.49,1.2-41.18,5.68a146.53,146.53,0,0,0-19.18,5.68,144.08,144.08,0,0,0-21.48,10.29c-17.08,9.6-20.48,6.65-50.24,18.82-16.77,6.86-30.21,13.73-42.25,19.89-8.78,4.49-15,7.9-21.66,11.54-38.23,20.93-42.93,26.32-63.38,35.15a90.73,90.73,0,0,0-11.72,5.68c-9.25,5.45-12.77,10-24.85,20.77-13,11.57-11.75,8.74-16.15,13.67-11.11,12.43-13.14,23.63-18.65,23.26-1.49-.11-3.68-2.5-8-7.28-6.44-7.15-9-11.18-9.59-10.83-.8.45,2.44,8.25,6.92,19,3.35,8,4.35,10,3.73,13.14-.89,4.49-4.39,7.35-9.05,11.18a36.23,36.23,0,0,1-11.9,6.93c-8.1,2.71-15.6,1.61-15.62,2.13s10.77.17,12.07,4.08c.62,1.86-1.13,4-2,5-8.41,10-12.62,15-18.64,20.42-6.73,6-10.8,11.31-17.4,19.88-8.1,10.53-10.24,15.53-17.75,19.35a48.67,48.67,0,0,1-12.07,3.91c-5.89,1.26-10.39,2.23-15.63,1.06-8.12-1.8-10.21-7-13.31-5.68-4.41,1.86-3.46,13.73-3,19.18a70.82,70.82,0,0,0,3.73,17.57c3.9,11,7.63,13,6.39,16.51-1.89,5.31-12.44,6.13-24.15,6.93-21.68,1.47-33.4-2.33-37.81,4.08-2.25,3.27-.18,5.69-3.19,10.3-3.35,5.11-8.56,6.2-13.67,8.34-8.15,3.41-13.19,8.6-23.26,19-8.2,8.45-9.75,12.93-17,23.07-5.63,7.83-14.29,16.53-31.6,33.91-18.94,19-28.41,28.52-36.93,34.8-9.14,6.72-14.42,9.11-21.48,17-2.52,2.82-5.1,6.17-10.12,9.23-3.77,2.3-7.13,3.31-13.85,5.33-7.2,2.16-10.86,3.23-13.49,2.48-6.69-1.88-8.47-9.42-10.65-8.87-2.74.68-1.86,13-1.07,23.43,3,39.22,4,49.76-2.48,56.81a35,35,0,0,0-7.1,9.59c-1.19,2.46-3.76,8-2.31,13.85a17.75,17.75,0,0,0,4.08,7.27c10.17,12.82,3.8,22.42,13.67,33,4.09,4.4,6.76,4.44,11.18,10.48,3.7,5,3.1,6.73,6.22,8.88,5.54,3.81,14.57,3.42,15.44,3.37,2.93-.16,4.29-.66,5.51.35,2,1.7.36,4.89.88,10.48.14,1.4.33,2.11,4.27,12.6,2.62,7,3.94,10.51,4.26,11,4.53,7.19,10.2,8,9.94,11.89-.2,2.82-3.23,2.7-4.8,6.75-2.13,5.55,2,9.91-.35,12.25-2,2-5.74-.64-8.7,2a5.58,5.58,0,0,0-1.95,4.8c.59,3.4,5.44,2.94,8.7,7.27,2.55,3.4,3.34,8.68,1.59,12.43-1.62,3.5-4.44,3.48-5.32,6.57-1.07,3.76,2,7.67,3.19,9.23,11.79,15.44,23.81,42.15,25.21,45.27a153.62,153.62,0,0,1,7.64,21.48,198.41,198.41,0,0,1,4.79,23.79c2,12.78,3,19.17,3.2,26.1.3,14.7-2.27,34.06.88,41.54a47.78,47.78,0,0,0,4.26,6.93c2.18,3,2.93,3.38,3.56,3.37,1.89,0,3.11-3.52,4.43-6.57.47-1.07,7.41-16.83,12.08-16.33,2.47.26,4,5.07,5.5,10.12a56.08,56.08,0,0,1,2.13,11.71c1.13,10.74,2,11.36,2.66,18.11.82,8.42-.27,16.91-2.48,33.55-1.86,14-2,11.83-3,20.6-3.08,27.61.51,33.08,1.95,35,1.8,2.37,3.36,3.23,9.77,10.65,4.07,4.73,6.11,7.1,6.39,8.17,1.82,7.16-7.39,11.22-13.67,26.63a67.91,67.91,0,0,0-3.73,13.14c-2.36,11.45-1.24,17.12-1.78,25.74-1.17,18.69-8,16.26-8.87,33.37-.32,5.94-.43,23.58-2.67,32a12.61,12.61,0,0,1-4.08,6.92c-1.92,1.53-3,1.19-4.44,2.31-3.29,2.56-2.55,8.08-2.48,13.67,0,.14-.65,5.89-2,17.4-2,17.72-5.69,27.26-4.43,27.69,1,.36,4.92-5.53,6.92-12.25s.79-10,3.73-12.78c1.93-1.81,4.63-2.06,9.94-2.48,8.07-.65,13.74-1.1,16.16,2.3,2.52,3.57.15,9.48-.54,11.19-1.36,3.41-2.7,3.78-4.26,6.92s-1.59,5.65-1.77,13.14c-.27,10.68-.42,16.06-1.25,18.11-1.87,4.66-3.88,4.29-9.41,11-6,7.28-5.71,10.25-11.36,19-3.49,5.4-3,3.29-13.67,16.51-15.63,19.32-16.44,23.45-16.69,25.57a15.52,15.52,0,0,1-2.48,7.81,16.12,16.12,0,0,1-8,5.68c-8.95,3.34-16.61,9.48-25.21,13.67-13.3,6.48-13.29,7.5-24.85,13.31-13.07,6.57-22.53,10-39.24,16.16-51.19,18.84-37.93,14.36-57,21.12-45.09,16-44.69,14.58-66.22,23.08-15.64,6.18-10.22,4.7-53.8,23.79-48.94,21.45-55.43,23.16-68.7,33.38-13.74,10.58-14.49,14.69-31.42,26.45-14.29,9.92-21,12-26.28,21.66-5.16,9.43-1.56,12.6-8.52,25.56-4.37,8.15-11.46,17.44-12.78,19.18-4.79,6.28-6.44,7.59-8.52,11.89-.88,1.81-4.62,9.54-3.91,18.29.46,5.59,2.25,5.72,16.69,27,0,0,4.83,7.11,19.53,20.42.67.61,2.26,2,3.73,1.59,1.95-.55,2.13-3.9,4.43-13.66.87-3.65.41-1.37,2-7.46s1.79-7.54,3.37-8.88c1.05-.89,1.79-.95,4.62-3a18.16,18.16,0,0,0,2.48-1.95c2.67-3.68-6.39-11-4.08-16.51,1.7-4.08,8.6-5,9.41-5.15.48-.06,1.8-.22,1.95.18.35.92-6.3,2.58-7.28,6.57-.71,2.91,2.31,4.16,3.2,8.34,1.09,5.14-2.36,8.36-4.26,13.85-2.55,7.36-.43,13.43.71,19.35,1.33,6.91-.77,22.18-5,52.73-3.16,23-4.31,27-4.8,39.23a227.23,227.23,0,0,0,.36,24.68l-107,.71-19-4.08q-.53-29.47-1.06-58.94l-6.93-19.89q-.18-39.06-.35-78.11l-17.93-3.37a44.6,44.6,0,0,1-5.86-13.5,66.39,66.39,0,0,1-1.42-9.76c-.71-6.9-1.07-10.35-.71-12.78,1.15-7.86,6-8.85,8.7-17,1-2.93,1-4.65.88-14.91-.27-27.11-.5-32.69,1.42-41.54,1.13-5.17,1.47-4.45,2.67-10.12a108.42,108.42,0,0,0,2.13-28.58c-1.19-26.44,2.68,31.11-1.42-57.52-2.39-51.71-2.53-45.74-2.49-50.6a361.46,361.46,0,0,0-2.31-41.36,92.68,92.68,0,0,0-3.55-16.51,91.13,91.13,0,0,0-3.19-8.7c-4.23-9.94-6.88-11.33-8.88-17.4-.75-2.3-.87-6.89-1.06-16-.37-16.95.41-19.27-2-23.08-2-3.17-2.86-2.12-11.71-9.58-6.13-5.17-9.19-7.75-11.9-11.54-4.76-6.66-6-13.39-7.1-20.06-2.32-13.69,1.29-15.32-1.42-22.55-4.15-11.06-13.09-8.6-18.82-19.17-5.32-9.82.48-15.46-1.6-37.46-.42-4.48-1.7-10.38-4.26-22.19a455.06,455.06,0,0,0-11.54-44.21c-4.35-13.66-4.29-11-8.52-24.32-7.79-24.63-5.19-23.52-11-39.95-6-16.88-10.49-22.73-7.1-29.64,1.34-2.74,4.44-6,10.65-12.61,3.88-4.11,6.95-7,8-8,9.37-8.86,19.26-18.93,23.43-23.43,9.92-10.69,10.11-14.16,19.71-26.63,15-19.5,18.35-15.93,42.07-41.9,10.49-11.48,12.23-14.81,28-32,10.68-11.58,10.66-10.91,15.09-16.34,16.26-19.92,24-30.35,24-30.35,3-4.09,8-10.88,13.31-10.3,1.59.17,2.76.94,7.1,1.78s6.51,1.24,7.28.35c.59-.68,1.1-2.83-7.63-14.91-9.56-13.23-12.93-14.47-13.14-19.35-.19-4.44,2.51-5.42,9.76-16.34,5.91-8.89,10.5-15.78,12.61-24.67,1.82-7.67,1.13-14,.18-22.55-1.63-14.77-5.66-21.26-1.42-27.34,1.72-2.47,3.53-3,6.74-7.81,3.67-5.43,2.7-6.72,5-8.52,4.81-3.8,10.5.89,17.05-2.31,2.45-1.2,3.17-2.6,7.45-8.88,7.73-11.32,3.31-3.71,16-22.36,8.59-12.65,9.05-13.82,9.41-15.63,1.14-5.7-.6-8.11.35-18.46.57-6.11.85-9.17,2.31-11.36,1.06-1.59,2.85-3.48,17.22-9.77,7.16-3.12,7.11-2.82,7.81-3.55,5.72-5.84-1.81-14.07.89-29.64,1.58-9.13,5.46-13.79,2.49-18.29-1.05-1.59-1.74-1.32-7.28-5.86-7.24-5.93-7.44-7.52-7.46-8.17-.09-4.27,7.35-6.6,6.75-8.16-.67-1.74-10.74-1.34-20.24,2.48-2.74,1.1-3.64,1.77-4.62,1.25-3.93-2.14,4.67-16.52-1.59-27.7-2.18-3.88-3.59-2.84-7.1-8.34-2.66-4.17-6.84-10.72-5.15-17,.93-3.49,2.69-3.32,10.83-13.84,2.26-2.93,3.39-4.39,4.08-5.51,6.34-10.25,4-22.67,3.2-27.16-1.41-7.55-3.36-18.07-10-20.24-6.94-2.28-14.81,6.1-16.86,3.91-1.86-2,5.14-8.2,3.19-15.8-1-3.89-3.33-4.27-3.9-8.35-.79-5.63,2.91-10.42,3.37-11,4.32-5.43,11.59-6.82,19.53-8.35,7.08-1.35,10.12-.8,12.78-3.72,2.14-2.35,2.76-5.54,3.37-8.7a30.52,30.52,0,0,0,.36-9.23c-1-8.24-7.38-9.19-10.12-18.82-1-3.61-1.62-5.69-.53-7.64,2-3.5,7.08-2.58,18.11-6.39,4.06-1.4,6.1-2.11,7.1-3,7.17-6.53,2.45-22.71.53-29.29-2-6.87-3.25-7.52-6.92-17.93-2.58-7.28-4-12.88-5.33-17.75-3.86-14.48-5.78-21.72-5.5-25.92.83-12.46,7.7-24,9.23-26.45a81.55,81.55,0,0,0,4.44-7.64c2.1-4.2,4.59-9.18,5.32-14.91,1.15-8.92-2.39-16.3-3.9-19.35-5-10-11.29-11.87-10.48-17.4.33-2.22,2.65-4.62,7.28-9.41,6.52-6.74,9.49-7.79,9.41-10.65s-3.21-3-6.92-8.7a34.31,34.31,0,0,1-4.26-10.47c-1.55-5.58-1.34-8.28-2-11.9-.48-2.82-1.45-6.16-9.05-18.11-10.71-16.82-15.08-20.11-13.49-24,1.8-4.37,8.29-2.2,12.78-8.52,2.49-3.51.62-4.36,3.9-13.14,2-5.24,3.34-6.86,4.62-12.07,1.21-4.94,1.81-7.41.53-8.88-2.12-2.43-7,.44-19,2.13s-16.08.08-17.76-.71-5.74-2.63-7.81-6.75c-2.85-5.68,1.33-9.16-1.06-13.67-1.88-3.53-5.57-3.51-18.29-7.63-4.28-1.39-7.47-2.58-13.85-5-13.67-5.12-15-6.8-22.9-9.41a95.3,95.3,0,0,0-22.54-4.44c-15.32-1.11-17.76,2.69-31.43.89-7.53-1-13.91-1.83-20.23-6.39-2.17-1.56-6.6-7.08-15.45-18.11-3.7-4.61-6.32-8-11-11.72a48.65,48.65,0,0,0-8.7-5.68c-11.43-5.55-18-.19-36-3.72-8.53-1.67-12.12-3.85-13.32-4.62-1-.64-4-2.64-11.36-11.72-8.56-10.51-7.2-11-9.94-12.42-7-3.58-12.9,1.48-20.6-3.38-2.51-1.58-2.59-2.57-4.79-3.19-5.49-1.57-11.47,2.74-14.56,5-5.77,4.16-6.12,6.85-10.29,7.63a13.66,13.66,0,0,1-8.35-1.42,15.06,15.06,0,0,1-6.39-6l-87-.88.36-68.17-11.72-14a39.7,39.7,0,0,0,3.19-11.89c.53-5-.06-8.83-1.24-16.34s-1.74-11-2.48-12.6c-4.44-9.3-12.61-8.55-15.27-17-1.28-4.1.66-4.13-.71-10.12C3.93,809,.73,807.35.08,801.65c0-.31-.65-6.29,2.3-11.19,4.28-7.08,13.24-7.29,27.17-10.65.57-.14,9.25-3,26.63-8.87,23.12-7.76,25.15-11.1,44.38-18.11,22.19-8.1,19.6-3.69,52.9-14,29.25-9.07,29.39-11.89,44-13.84,5.65-.76,14.35-1.5,25-6.22,7.36-3.25,9.93-5.86,16.33-9.94,10.44-6.65,24.14-11,51.13-19.35,16-5,14.39-3.93,23.61-7.1,18.73-6.44,21.77-9.48,35.33-13,14.23-3.65,13.93-1.09,26.28-4.62,13.4-3.83,13.88-6.88,32.49-14.55,9.09-3.76,6.63-2.06,33-11.37,21.69-7.65,20.08-7.64,27.16-9.58,16.63-4.56,19.77-3,25-7.64a45.39,45.39,0,0,1,14.38-8.52A7.15,7.15,0,0,1,510.3,612.58Z"/><path d="M888.44,1951.87c-4.31,5.45-2.33,10.23-3.91,19.53-1.74,10.24-5.45,12.16-4.08,19.17.79,4.06,3,8.51,4.79,8.34,1.54-.14,2-3.76,5-17.75,2-9.34,2.36-10.13,2.84-13.85.33-2.51,2.22-17.16-.88-18.1C890.86,1948.81,889.13,1951,888.44,1951.87Z"/><path d="M1018.39,1425c-1.38.92-2,2.9-1.95,7.63.17,8.64,2.65,14.93,4.79,20.6,6.42,17,6.72,20.44,9.41,20.77,3.51.43,7.8-4.81,9.23-9.77,2.16-7.48-3.25-10.55-1.6-18.82,1.47-7.31,6.66-9.66,5.15-13-1.07-2.33-3.86-1.56-12.78-4.43C1023.07,1425.54,1020.54,1423.53,1018.39,1425Z"/><path d="M1640.1,1016.28c-3.09-4.55-17.42-2.24-19.17,3.2-.56,1.72.5,2.67,3.37,8.88,4.51,9.72,4.44,12.8,6.22,13,3.32.3,6.58-10.25,8.52-16.51C1641.08,1018.19,1640.54,1016.93,1640.1,1016.28Z"/></g></g></svg>