<svg xmlns="http://www.w3.org/2000/svg" viewBox="0 0 1483.34 3283.48"><g id="Layer_2" data-name="Layer 2"><g id="Myanmar"><path d="M902.69,0c1.06,0,4.65.17,10.79,10.19,3.71,6.06,4.77,9.85,10.18,20.17,2.62,5,4.26,7.7,6.6,7.79,2.81.11,3.69-3.7,7.59-4.59,3.59-.82,6.92,1.48,10,3.59,4.85,3.35,5.71,5.86,11.39,12.19A128.24,128.24,0,0,0,969.6,59.52c8.14,7.36,10.24,7.79,12.59,12,2.25,4,2.59,7.66,3,12,1.05,11.21-2.74,14.39-.6,21.77,1.56,5.35,3.68,4.12,7.19,11,3.92,7.66,4.46,15.41,5.2,26.16.53,7.72.09,11.27,3,15.18s4.92,2.8,7.19,6.4c3.66,5.79-.61,10.29,3.2,17,.7,1.23,2.68,4.7,6.39,5.8,2.52.74,5,.13,9.59-1,3-.74,4.51-1.11,5.19-1.6,5.82-4.15-.32-17.92,3.6-20.17,2.62-1.52,5.86,4.38,17,9,5.54,2.29,7.4,1.93,14.78,5.2,6.1,2.69,9.15,4,10.39,6.39,2.78,5.27-2.83,9.36-1.6,18.17.93,6.65,4.34,5.85,5.8,12.59,1.74,8.07-2.9,10.42-4,25.16a75.46,75.46,0,0,0,0,11.19c.52,6.78,1.77,10.81,2.8,15.58,1.5,7,1.11,9.09,2.19,21.37,1.88,21.29,3.63,21.52,4.2,34.35.54,12-1.14,8.87-1.4,28-.17,12.48.4,24.71-1,40.14a58,58,0,0,1-2.59,13.39c-1.43,4.39-2.89,8.88-6.4,13.78-3.07,4.29-5.19,5.36-4.79,7.39.72,3.66,8.22,2.9,9.79,7.19.87,2.38-1.07,3.66-4.6,11.78-3.26,7.51-2.92,9.45-5,10.39-4.85,2.19-11.31-6.36-13.78-4.59-1.63,1.16.35,7,4.39,18.57,4.21,12.08,5.67,13.93,6.59,15,3.41,3.88,6.21,4.53,7.19,8.39.89,3.48-.4,6.82-1.39,9.39-1.32,3.4-2.27,5.86-4.4,6.59-2.42.82-4.3-1.3-11-5-6.13-3.39-9.19-5.08-11.19-4.2-3.12,1.38-1.42,6.57-4,15-2.39,7.82-4.87,6.65-11,18.78-4.27,8.46-4.27,11.42-8.59,15.18-1.89,1.65-6.27,5.46-11,4.59-5.86-1.08-6.49-8.33-11.59-8.79-4.65-.41-8.66,5.22-9.78,6.79-3.59,5-2.28,8-5.4,19a89.85,89.85,0,0,1-5.19,14A88.81,88.81,0,0,1,971.8,598c-5.09,6.86-7.81,10.44-13,13-2.53,1.25-5.38,2.65-9,2.4-9.26-.64-12.86-11.39-16.58-10.19-4,1.31.73,13.81-6.79,23.77-4.1,5.44-7.48,4.31-9.59,9.39-2.38,5.75,1.5,8.29,1.2,19.37-.22,8.33-2.5,10-.6,13.78,2.87,5.7,10.25,6.24,10,9.19-.12,1.44-2,2.34-6.19,4.2-6.62,2.9-9.93,4.35-14,5.79-10.09,3.57-15.13,5.36-18,9.39-2.36,3.34-1.71,10.28-.4,24.16,1,10.22,2.15,15.86.4,24.37-.75,3.65-3.34,6.17-2.2,7.59,1.28,1.59,5.08-.08,14.78-.2,2.7,0,3.76.08,4.8.8,2.32,1.61,1.51,4.18,3.79,9,2,4.21,3.62,4.39,3.4,6.19-.52,4.19-9.51,5.09-9.39,7.79,0,1.06,1.46,1.75,7.79,4.4,9.13,3.82,9.62,3.83,10.39,4.79,3.44,4.29.32,12.27-2,18.17a55.32,55.32,0,0,1-8.19,14.19c-2.33,2.92-4.71,5.36-18.38,17-8.88,7.55-10.48,8.74-10.58,11.19-.26,6,8.77,13.68,17.77,14,9.63.33,11.07-8,30.36-18.77,5.41-3,3.09-1.14,24.37-11.19,6.34-3,11.1-5.32,18.38-8.19,3.4-1.34,8.68-3.43,14-5,5-1.47,8.86-2.15,34.55-3.8,16.51-1.06,22.31-1.25,29.56,2,2.71,1.21,4.28,4.58,7.39,4.39,4.33-.25,5.16-5.73,10.59-7,3.92-.9,4.55,1.71,9.59,1.4,5.49-.33,6.77-3.56,13-5.19,3.49-.92,9-2.51,11.19-.2,3,3.19-.57,13.29-6.2,20-4.66,5.54-8.56,6.2-17.57,15.58a29.45,29.45,0,0,0-4.4,5.19c-3.69,6.3-5.54,17.67.8,22.37,4.62,3.43,10.29-3.24,15.18,0,4.66,3.09.89,9.7,6.79,18.18,3.32,4.77,6.28,5.23,6.59,9,.35,4.12-2.84,8.16-4.59,10.39-3.31,4.19-5.43,4.35-5.59,6.59-.21,2.91,3.28,4.15,7.39,9.18,2.33,2.86,3.55,5.5,6,10.79a64.48,64.48,0,0,1,5.59,16.38c1.16,6.36,1.9,10.41.4,15.18-2.35,7.48-8.15,10.15-7,12.58,1,2,4.86.25,12.38,1.6,3.41.61,12.75,2.29,18.58,9,1.42,1.62,2.32,3.2,4.79,5,2.05,1.49,3.9,2.2,8,3.6,6.21,2.12,9.32,3.18,9.79,3.19,8.19.18,9.36-10.85,18-12,5.33-.7,5.38,3.46,18.57,6.59,3.32.78,5.77,1.1,9,3a20.49,20.49,0,0,1,7.59,7.39c4,7.15,3.07,18.05-2,21-4,2.31-8.47-1.61-11.18,1-2.37,2.27.49,5.74-1.2,11.58-1.62,5.58-6.16,9.06-9.19,11.39-6.79,5.2-10.8,4.17-12,7.59-1.39,4,4,5.78,6.39,14.58,2.19,8.15-1.23,11.22,2.2,18.17,2.07,4.2,4.17,4.8,4,7.39-.28,4.16-5.83,5.14-12.18,10.39-1.42,1.17-10.84,9.14-13.19,20.57-1.78,8.66,2.13,11.34-1.19,17.58-2.84,5.31-7.1,6-7.59,10.78s3.24,8.65,4,9.39c4,4,9.21,4.12,18.77,4.59,34.27,1.72,33.17,3.85,40.35,1.8,3.75-1.07,8.06-2.8,12.78-1,4.46,1.7,5.08,4.94,9.59,7.59,1.33.78,4.3,2.29,15.58,2,16.64-.42,20.93-4,25.37-.4,2.85,2.29,5,6.92,6,10.39a20.45,20.45,0,0,1,.8,4.39c.3,4.87-1.57,7.9-4.8,15.18-4.7,10.61-4.46,12.61-4,14,.91,2.67,2.57,2.59,6.19,6.2,7.32,7.28,5.17,12.19,10.79,15.17,3.73,2,9.71,2.48,13.18-.19,1-.81,1.38-1.54,1.8-1.4,2.11.69-7,19.56.6,30.16,2.7,3.79,6.77,5.45,8.59,6.19,1.11.46,8.31,3.27,16,.4,3-1.11,2.57-1.79,7.79-4.8,6.82-3.92,10.71-6.15,14-5,4.11,1.47,2.88,6.74,7.19,11,6,5.91,16.78,4,21.37,3.19,14.93-2.63,25-13,29.16-17.37,7-7.26,6.64-10.06,14.18-16,5.76-4.53,10.87-8.55,18-8.79,5.46-.19,9.19,2,11.58-.4s.14-6.51,2.8-8.79c2.24-1.93,6.54-1.27,9.18.6s3.23,4.48,4.2,8c4.69,17.07,5.1,15.08,5.19,18,.32,9.73-4.77,17.09-7.59,21.17-3.38,4.9-9.58,9.39-22,18.37-2.62,1.9-8.6,5.33-20.57,12.19-3.85,2.2-8.76,4.93-13.18,3.19-2.44-1-2.85-2.54-4.6-2.59-4.58-.15-8.48,10.58-10.18,15.38-5.52,15.56-2.29,19.37-7.39,25.36-4.78,5.61-8.51,3.33-14.58,10.39-1.45,1.68-8.3,9.65-5.6,15.58,2,4.35,8.27,5.7,9.59,6,5.71,1.23,9.33-1,10.39.6s-1.23,6.79-5.4,9.59c-10.38,7-23.72-6.16-38,.79a48.52,48.52,0,0,0-7.59,5c-4.52,3.57-7.17,6.88-10.58,11.18-14.49,18.31-15.38,19.88-16.38,22.17-2,4.64-2.76,8.27-4,14.38-2.42,12-1.57,18.42-6.79,24.77-1.64,2-3.67,4.48-6,4.2-5-.61-4.18-13-11.78-16.38-3.38-1.52-6.93-.6-11.59.6-3.33.86-8.47,2.19-12,6.19-5.79,6.61-1,13.52-5.79,17.78-2,1.79-8.44,1.28-21.18.2-8.62-.74-13-1.13-15.18-2.2-5.34-2.6-7.39-6.25-13.38-7-1.47-.19-5.43-.68-6.59,1.2s1.56,5.11,7.19,14c7,11.09,7.23,13.29,7,15-.49,3.48-3.12,5.91-8.39,10.78-4.73,4.38-7.1,6.57-10.58,8-4.77,1.94-8,1-26.37-2.59-12.9-2.52-15.23-2.81-18.77-2.6-4.79.28-14.29.83-18.58,7-2.6,3.74-.82,6-1.4,15.78-.47,8-2.64,14.76-7,28.36-3.86,12.11-5.49,14-7.59,14.58-3.7,1.07-8.35-1.94-13.38-5.19-5.42-3.51-5.18-4.8-7.79-5.39-5-1.14-8.34,3.1-18,8.78a120.75,120.75,0,0,1-16.57,7.79,101.63,101.63,0,0,1-22,5.6c-14.56,2.27-22.41,3.5-30.56-.4-4.71-2.25-3.51-3.33-12-8.39-6.16-3.67-10.94-5.58-17.57-8.19-9.27-3.64-13.94-5.44-15.58-4-3.33,2.92,4.11,11.06.6,21.78-.61,1.85-2.49,7.59-7.59,10.38-4.1,2.24-7,.79-11.79,3.8a17.93,17.93,0,0,0-5.79,5.79c-3.78,6.24-.27,10.18-3.6,16-2.66,4.64-5.45,3-8.19,7.79-4,7-.9,15.45-.39,16.78,1.65,4.29,3.37,4.71,5.59,8.38,5.48,9.12,5,23.42-1.4,31.76-.17.22-4.44,3.61-13,10.39-4.23,3.35-7.32,5.79-10,10.19-1.66,2.74-3.56,5.87-2.8,9.18,1,4.1,5.11,4.8,8.59,8,3,2.8,4.7,6.69,5.4,29.76.67,22.59-.74,24.52-2.2,25.57-6.09,4.38-16.17-4.17-23.57,1.6-3.17,2.47-2,4.54-5.79,7.19-3.6,2.49-5.66,1.35-15.58,3.39-7.17,1.48-7.63,2.39-9.59,1.6-3.55-1.42-4.33-5.3-9.59-7.19-1.41-.51-2.31-.83-2.79-.4-1.67,1.49,5,9.12,10.78,21.77,4.83,10.57,4.22,14.11,9.59,20.18,3.56,4,8.93,8.23,11.78,6.79,2.27-1.15,1.16-4.93,4.4-7.39,2-1.51,5.39-2.36,7.19-1,3.12,2.35-2,8.77,1,15.38,2.44,5.36,7.09,3.95,11.18,10.38,1.7,2.67,2.33,6.24,3.6,13.39,1.32,7.42.73,9.13,2.39,15.77,1.33,5.26,2,5.24,1.8,7.19-.55,6.77-8.29,8.3-10,13.79-1.63,5.26,3.64,9.79,11.18,19.57,18,23.37,19.35,38.18,32.16,40.75,2.79.55,5.14.33,8.39,2.19,6.12,3.51,6.94,9.52,10.18,16.58,3.91,8.51,11.33,15.79,26.17,30.36,4.82,4.73,6.81,6.29,9.79,10.39,6.67,9.19,4.62,12.35,9.78,17,6.24,5.58,11.22,2.74,18,9.58a26.58,26.58,0,0,1,5.39,8c4.1,9.6-.81,15,3.6,21.37,3.15,4.55,7.52,4.43,7.59,7.39.09,4.22-8.73,5.06-9.79,10.59-.6,3.14,2.13,6.48,7.59,13.18,5.23,6.42,6.23,6,9,10.19,1.83,2.81,3.24,6.84,6,14.78a144.1,144.1,0,0,1,4.39,13.78c1.75,7.56,1,9.48,3,17.58,1.74,7.23,2.62,10.85,4.79,11.38,1.17.29,3.39-.09,14-14,7-9.15,8.26-11.92,11.18-12,4.59-.1,8.65,6.61,10.19,11.18.49,1.46,1.4,4.72.6,11.79-1.06,9.25-2.2,19.25-9.59,24.56-3.3,2.37-6.93,3-14.18,4.2-8.83,1.48-10.22-.11-15.58,1.8-1.73.61-9.17,3.26-13,10.58-2.7,5.19-2.29,10.25-2,13.78.6,7.34,3,7.8,4,14.78.8,5.89-.3,10.39-2.39,19-2.38,9.77-3.73,9.7-4.8,15.58-.34,1.88-1,6.06,2,23.57,2.56,15.11,4.55,21,1.6,28.56-.81,2.06-2.25,5.62-5.2,6.39-3.86,1-6.09-3.9-11.78-4.19a12.9,12.9,0,0,0-11,5.59c-3.76,6,.86,13.92-1.19,15-2.61,1.34-9.55-11.62-15-10.19-4,1.05-2.84,8.6-8.79,11.79-4.39,2.35-7.41-.47-10.19,1.79-3,2.43-1.45,7.23,0,20.38,1.51,13.63.55,14.6,2.4,24.76a89,89,0,0,0,3.39,14.19,84.58,84.58,0,0,0,10.39,20.17c3.6,5.25,5.45,6.86,11.58,14,9.27,10.76,16.25,18.87,22.77,29.56,6.1,10,5,11.14,11.59,21.17,4.76,7.27,8.37,12.78,14.18,18.18,12.21,11.33,19.12,8.21,36.55,21.37,7.73,5.84,11.6,8.76,14.58,14.18,5,9.08,2.71,15.52,9.19,22.17,4.46,4.58,6.66,2.69,11.19,7.59,3.16,3.43,4.75,8.45,7.79,18.38,1.83,6,3.37,11.92,4.79,18.37,1.06,4.81,2.39,10.83,3.19,16.78,2.27,16.7-1.56,18.2-.2,34.16,1.3,15.2,5.73,25,1.4,28-2.8,1.9-6.35-1-9.58,1.6-2.32,1.89-1.45,4.16-3.8,10.78s-3.9,6.46-3.79,9c.24,5.92,9,6.77,14.58,14s.9,11.59,4.19,26c1.74,7.59,5.37,23.46,17.58,31.16,7.27,4.58,15.31,4.84,18.37,12.18a15.91,15.91,0,0,1,1,6.39c.44,18.41-3.21,21-1.6,29.76,1.81,9.78,6.88,9.3,8.79,21.37.69,4.32.42,6.82,2.6,9.59,3.82,4.87,9.14,2.88,12.58,7.59a12.34,12.34,0,0,1,.8,12.58c-2.12,3.72-5.72,3.56-6,6-.38,3.43,6.69,4.06,9.59,10,3.23,6.6-2.55,12,1.19,17.38,2.41,3.48,5.62,2.5,7.59,6,1.44,2.54,1.21,5.66-1.39,13-5,14-7.49,21.07-13.59,24-6.71,3.19-11.73-.5-14.58,3.2-3.38,4.4,2.56,11.14-1.19,16.38-2.6,3.62-6.34,1.65-9.59,5.59s-.94,7.82-3.2,14.38c-1.71,5-3.87,5.07-8.79,11.59-6.2,8.22-4.79,10.75-12.38,24-3.18,5.55-5.18,9-8.79,13.39a87.47,87.47,0,0,1-19,16.77c-8.16,5.27-10.27,4.65-12.19,8.19-3.86,7.16,2.79,13.36-1,19-3,4.47-7.9,1.51-17.57,7.39a46.33,46.33,0,0,0-10.59,9.19c-4.63,5.1-7.07,7.79-8.19,12-1.43,5.38.91,7.31,2.4,18.38.57,4.23,1.38,10.28.6,16.37-1,7.53-3.77,10.47-8.59,20-6.1,12-3.93,11.89-13.38,33.15-2.61,5.88-5.63,12.31-12,18.58-4.73,4.67-5.62,5.77-6.79,5.59-5.73-.89-6.84-21.84-7-25-.19-4.22.34-12,1.4-27.56.64-9.39,1-13-.4-18.37-1.6-6.22-3.32-6.21-6.59-14.39-2.53-6.32-5.56-14.16-4.19-23.36.44-3,1.74-11.81,7.39-14.19,4.56-1.92,8.78,1.66,10.18,0,2.83-3.34-13.31-19.37-10.18-23.37,1.39-1.78,5,.88,12.78-.79,1.06-.23,1.24-.34,9.19-3.4,9.07-3.5,9.63-3.66,10.58-4.59,4-3.87,3.74-10.08,3.6-13.79-.29-7.55-3.64-14.39-5.2-17.57-1.89-3.87-3.64-6.33-2.59-8.79.83-2,2.6-1.94,5.59-4.19,1.1-.84,5.67-4.29,6.79-9.19,1-4.62-1.3-8.95-3.59-13.18-2.91-5.37-4.56-5.2-4.8-8-.34-4,3-4.87,6.19-13,1.23-3.06,2.26-5.73,2-9.18-.29-3.86-1.87-4.47-2.59-7.79-1.67-7.64,5.18-11,3.39-16.38-.44-1.31-1.24-2.26-13.38-9-9.25-5.12-10-5.22-10.79-6.79-3-5.69,2.85-10.89-.6-17.78a14,14,0,0,0-5.39-5.59c-6.59-3.94-12,.13-15.78-3.2-2.48-2.17-1.29-4.87-2.4-12.58-1.7-11.85-6.34-18.13-5-19,1.66-1,6.8,9.59,19.78,16,4.76,2.35,8.8,3.25,14,4.4,7.37,1.64,11.92,2.65,13.78.4,2.6-3.15-1.76-10.65-2.2-11.39-3.21-5.41-6.06-4.76-9.19-10s-.93-7.09-4-11.59c-3.7-5.44-7.89-4.17-10.59-9-2.41-4.29-2.4-11.24,1-14.38,4.23-3.9,10.51,1,18.78-2.59,2-.88,1.67-1.44,8.36-7.08a.61.61,0,0,0,.23-.31c.34-1.43-6.13-3.55-13.59-8.19-4.72-3-7.35-4.62-7.19-6.59.27-3.17,7.42-3.32,8.19-7.2.62-3.09-3.72-4.13-4.79-9.18-.74-3.47,1-4.36,3-13.19.78-3.46.46-3,1.6-9.38,2.3-12.7,3.16-11.76,2.8-14-1.36-8.4-11.56-9.36-12.39-17.78-.32-3.33,1.23-3.6,2-8.19,1.53-9.13-3.8-12.9-6.59-24-3.45-13.74,2.54-16.77-2.2-25.76-3.59-6.84-7.57-6.07-12.18-13.59-4-6.54-2.82-10.09-5-21-1.77-8.84-4.93-24.7-15.38-36.55-1.17-1.32-1.42-1.46-13.58-14.38-5.74-6.09-5.78-5.87-6.2-6.59-2.9-5.1-1.93-9.64-.2-29,.73-8.07.86-10.63.2-10.79-.91-.23-3.08,4.24-4.19,8.59-1.41,5.51-.32,7.77-.4,14-.11,8.49-2.28,14-6.59,25-1.63,4.14-2.59,5.85-4,6-3.5.34-7-9.39-7.59-11a44.66,44.66,0,0,1-2.59-16.77c.49-11.54,4.85-14.29,2.39-20.18-2.13-5.14-6.48-5.53-7.19-10.18-.65-4.3,3-5.74,4.8-10.79,3.48-9.72-3.46-21.15-7.59-28-5.49-9-8.73-9.31-10.59-16.38-1.5-5.68.31-6.58-.4-15.38a70.67,70.67,0,0,0-5.39-21.57c-4.62-10.85-8.65-12.25-8.19-18.58.35-4.91,2.91-6,4.39-12.18,1.88-7.9.53-13.14-.8-16.38-.17-.43-1.92-4.63-3-4.39-1.94.43,2.42,14.57-3.6,19.17-1.95,1.49-5,2-6.59.8-2.42-1.93,1-6.7-.8-13.38-1.23-4.72-3.64-5.1-5.79-9.59-2.41-5-1.21-8.4-.4-19,.93-12.19,1.44-18.91-.4-27.17-.25-1.12-1.9-6.14-5.19-16.18-4.08-12.44-4.19-12.31-4.4-13.78-1.44-10.24,4-13.28,5.6-24.77.41-3-1.12-11.12-4.2-27.16-1.49-7.78-3.21-16.37-5.79-27.16-3.34-14-4.61-17-6.39-20-1.18-2-1.38-2-11-14.18-7.27-9.24-9.66-12.44-8.78-16,.61-2.49,2.22-2.6,5.39-6.79,2.58-3.41,3.71-6.24,5.79-11.58,3.12-8,5.29-13.79,6.19-21,1.87-14.78-5.87-15.66-4.39-30.16.92-9.07,4.15-11.86,3.19-21.38-.73-7.31-3.41-13.31-4-13.18s.75,5.21.4,13.18c-.32,7.13-.48,10.88-3.2,13-4,3.13-11.14.65-13.58-.2-4.14-1.45-3.81-2.58-6.59-3.2-7.73-1.71-12.52,6.57-17,4.6-2.45-1.09-1.26-3.71-6.19-16-1.61-4-3.14-7.23-6.39-9.59-1.83-1.33-2.38-1.07-3.4-2.2-2.89-3.22-.57-7.72-.8-14.18a30,30,0,0,0-4.39-14c-4.36-7.8-8.16-6.64-11.38-12.58-5.43-10,.88-21.53-2.4-23-2.72-1.2-6.41,7-12,6.39-2.26-.26-4.43-1.93-10.38-12.39-4.94-8.67-7.4-13-9.19-18.17-2.88-8.34-3.28-14.36-8.79-22.17-2-2.85-3.11-3.69-4.19-3.6-3.69.33-6.51,11.46-6.19,21.17.21,6.74,1.76,7.26,4,17.78a101.34,101.34,0,0,1,2.2,28.56c-.6,8.19-1.24,17.16-6.39,19.78-1,.53-4.39,1.87-9.19,3.79-3,1.2-3.3,1.29-3.8,1.8-2.84,2.91,0,7.65-.8,13.58-.49,3.87-2.39,6.44-6.19,11.59s-8.3,8.83-17,15.78a98.49,98.49,0,0,1-8.39,6.39,41.93,41.93,0,0,1-23,5.59,45.3,45.3,0,0,1-17.78-5c-7.35-3.53-12.69-8.17-13-7.79s6.22,4.19,9.58,12a17.81,17.81,0,0,1,1.6,10.39c-.22,1.3-1.09,6.28-5,8.79-1.28.81-2,.83-7,1.79,0,0-3.59.7-8.59,1.8-10.69,2.35-10.91,5.49-14.58,4.59-5.56-1.35-5.12-8.55-12.38-11-1.47-.49-5.05-1.69-7.59,0-4.66,3.09.35,11.71-4.8,20.57-.35.6-.38.58-8.59,8.39-9.94,9.46-10.59,10.16-13.38,12.58s-6.08,5.28-10.58,8.59c-6.19,4.55-7.06,4.4-9.19,6.39-5.67,5.29-4.66,11.08-7.39,19.38-4.36,13.23-14.4,21.17-22,27.16a59.06,59.06,0,0,1-19.78,10.59c-6,1.79-10.13,3-13.38,1-7.3-4.62-2.76-21.45-6.39-22.37-3-.78-5.93,11.24-13.58,12.78-5.4,1.09-12.15-2.39-14.58-7.39-2.52-5.17,1.38-8.18,2.59-20.77,1.09-11.36-1.78-12,.4-18,2.25-6.12,5.55-6.13,15.18-17.38,5.39-6.28,8.08-9.43,9.39-12.78,3.5-9-1.36-11.71.2-27,.7-6.86,1.39-13.59,6-20.18,3-4.21,6.81-7.39,6.19-8.19-.5-.65-3.63.7-6,2.4-1.74,1.25-3.72,3.17-6.59,8.39-4.06,7.38-3.27,9.32-6.19,11.58-2.33,1.81-6.37,3.32-9,1.8-4.56-2.64-1.32-12.44-4-13.38-2.86-1-11.57,8.44-10.39,17.38.5,3.76,2.29,4,5,11.38,1.69,4.62,3,8.27,2.8,12.58-.26,4.75-2.2,6-6.39,14.59-4,8.14-6,12.22-6.59,17.37-1.09,9.29,3.21,10.8,1.19,18.18-1.93,7.07-6.2,6.88-7.79,14.38-1.34,6.32,1.36,8.09-.79,13.18-1.61,3.81-5.31,8-10,8.79-1.8.31-4.56-.39-10-1.8-4-1-6.92-2-7.59-2.19-11.38-3.69-17.09-5.56-17.77-6.8-3.65-6.56,8.91-20.24,8.19-20.77s-6.85,11.77-16.78,13c-6.85.84-13.16-3.83-14.18-4.59-2.06-1.52-4.84-4.68-10.39-11-3.88-4.41-5.05-6-6.79-5.8-2.15.19-2.95,2.76-6.79,8.79-4.28,6.72-6.42,10.08-8.59,10-3.33-.15-6.3-7.19-6.39-13a18.81,18.81,0,0,1,2.19-9c2.37-4.48,5.12-5.31,10.39-10,4.35-3.86,3.21-3.94,11-12.38,5.47-5.95,6-5.89,11.38-11.59,4.59-4.88,13.22-14.54,12.58-15.18s-12.11,6.69-19,16.78a44.93,44.93,0,0,1-7.19,8.59,48.82,48.82,0,0,1-6.59,5c-8.15,5.4-9.54,4.82-13.58,7.79-7.56,5.56-5.61,9.71-12.59,14-1.21.74-8.7,5.34-13.78,2.4-4.07-2.35-4.51-8.34-5-15-.41-5.62.07-10.45,1.4-17.78,2.29-12.7,3.59-13.42,5.59-24.16.8-4.31,1.6-10.33,3.19-22.37,1.51-11.37,2-16.21,6-19.38s7.23-1,9.58-4c4.31-5.48-5.05-14.45-1-24.17,1.71-4.12,3.61-3,6.59-9,1.54-3.08,4.71-9.42,2.59-15.38-1.58-4.47-4.84-5.06-4.59-8,.3-3.5,5-3.44,8.79-7.79,4.75-5.51,1.43-10.56,5.39-24.77,1.16-4.14,1.16-2.7,3.4-9.58,4.57-14.08,3.24-16,6.39-23,4.71-10.39,9.12-9.11,10-15.78.91-6.93-3.89-8-6.39-21.17-1-5.44-2-10.75,0-16.78,2.08-6.36,5-6.29,5.4-10.59.55-6.62-6.38-7.8-11.59-19.77-2.48-5.71-1.44-6.65-4.79-14-2.76-6-4-6.49-5.4-11-.83-2.63-2.74-8.64-1-15.18,1.62-6.1,4.54-5.61,6.1-11.18,2.34-8.34-2.24-16.39-3.71-19a34.61,34.61,0,0,0-9.39-10.38c-7.31-5.41-13.38-5.51-13.38-7.59,0-3.41,16.12-3.48,17.18-9,.77-4-7.16-6.38-16.38-19a56.55,56.55,0,0,1-5.39-8.59,60.2,60.2,0,0,1-6.79-25.16c-.16-4.74.42-6.27-1-8.39-2.23-3.31-5.74-2.7-12-7-3-2.08-5.71-3.93-5.59-6.19.18-3.37,6.45-4.25,6.39-7,0-2.21-4.11-3.52-9.78-6.2-7.57-3.56-11.33-5.4-13.19-7.39-3.66-3.91-3.05-9-.4-32.15.9-7.79,1.42-15.62,2.6-23.37.85-5.55,1.17-13.29,1.8-28.76.1-2.36.22-7-2.8-9.59a8.46,8.46,0,0,0-4.39-1.8c-6.83-1.3-10.64-10.75-14.38-16.58-4.39-6.84-5.5-3.73-31.56-24.36-7.74-6.13-10.75-8.87-12-13.59-2-7.5,1.73-15.64,2.79-18,3.56-7.83,7.48-9.24,6.59-11.79-1.73-5-16.9.19-29.56-8.19-3.79-2.51-4.29-9-9.39-10.18-2-.47-2.18.24-4.59-.2-4-.73-5.59-3.07-11-7.39-4.25-3.4-6.37-5.1-8.19-5.6-5-1.34-9.9.91-13.59,2.6-5.84,2.68-6.68,5-10.78,5.19a12.87,12.87,0,0,1-7.79-2.39c-3.38-2.52-3.53-5.64-6-13.19-3.12-9.54-5.7-17.13-11.19-18.77a9,9,0,0,0-4.79,0c-4.61,1.22-5.35,5.42-9.39,9.19a20.47,20.47,0,0,1-14.58,5.39c-6.07-.34-13.87-4.13-14.38-9-.86-8.17,19.36-14.69,18-18.57-.8-2.24-8.63-3.18-14.38-.4-3.37,1.63-4.59,3.86-8,4a10.43,10.43,0,0,1-6.79-2.59c-4.49-3.77-4.92-10.12-5.19-12.59-1.24-11.23-8.55-20.53-23.17-39.15a209.18,209.18,0,0,0-14.78-16.77c-6.55-6.55-8.43-7.39-11.38-11.39-4-5.46-5-10-8-23.37-6.9-31.11-7.45-33.15-10.19-36.35-6.44-7.51-13-7.38-14.78-14.58-1-4.12.71-5.92,3.79-16,5.23-17.08,2.58-19.47,7.19-26,4.8-6.75,13.9-12.93,19.58-10.59,5.15,2.12,4.12,9.84,10.39,12,2.94,1,3.78-.48,10.38,0,5.4.4,8.09.6,10,2.2,5.65,4.77-.68,16.26,4.39,19.77,3.39,2.35,9.57-.44,10.79-1,1.7-.77,4.11-1.86,5.39-4,2.7-4.5-1.42-10.6-4.39-17.77-3.11-7.5-3.74-14.12-5-27.37-1.31-13.78,1.4-11.93.8-29.36-.41-11.92.32-23.93-1.2-35.75-.37-2.92-1.24-9,2.2-12.19,2.77-2.56,5.69-.83,8.39-2.79,6.6-4.8-2.26-21.47,2.8-25.17s19.35,8.88,23.56,12.58c7.76,6.82,8.89,10.95,9.19,13.19.36,2.6-.07,5.11.8,5.39s2.53-2.13,5.79-8c3.83-6.87,6.87-13,8.39-16,6-11.81,6.87-12.58,8-13.18,4-2.16,6.32,0,15.18-2,4.53-1,6.79-1.53,8.59-3,5.58-4.53,4.71-13.8,3.6-25.77-1-11-3.44-14.78-4.8-16.58-2.92-3.88-4.61-3.32-7-6.39-5.33-6.89.3-13.44-1.2-27.16-1.47-13.53-7.79-15.07-6.19-25.37.8-5.1,2.21-3.82,6.39-15.78,2.27-6.48,4.15-11.85,5.4-19.17,1.59-9.37.54-12.53,3-14,4.06-2.4,9,5,17.38,3.4,5.46-1.06,9-5.35,10-6.59,2.17-2.65,3.26-5.41,4.59-11a120.71,120.71,0,0,0,3.2-22.37c.44-12.6-.93-11.11-.4-20.57.6-10.94,2.88-21,4.59-28.56.29-1.31,1.37-6,2.6-12.39,1.81-9.44,2-12.47,1.39-15.77-.86-4.65-2.52-5.39-4.39-10-4.35-10.7,1.43-14.47-1.4-25.77-2.12-8.45-5.61-7.36-9.79-20.17-1-3-2.79-9.24-.79-16.18.57-2,1.38-4.8,3.19-5.19,3-.64,6.81,5.49,10.39,11.18,4.18,6.65,4.76,9.52,8.79,12.19a12.24,12.24,0,0,0,7,2.39c3.89,0,5.61-2.51,9.58-5,7.8-4.87,16.13-4.82,19.78-4.79,5.21,0,8.83.06,12.38,2.39,6.59,4.35,5.61,11.86,10.19,12.79,3.67.74,5-4,12.38-5.4a22.12,22.12,0,0,1,9.59.4c2.49.61,5.87,1.85,12.38,7,9.86,7.79,10.17,11.3,13.38,11.19,5-.18,8.59-8.76,13-19.57a191.34,191.34,0,0,0,7-21.18c8.09-28,8.63-30.81,11.78-37.35,4.2-8.69,5-7.33,10.39-18.17,7.56-15.27,5.27-16.61,10.78-26,7.69-13,20.39-24.45,21-25,4.64-4.12,8.74-7,10.18-12.78s-1.31-7.69.2-13.38c1.63-6.1,5.65-7.09,10.59-13.78,3.57-4.84,5-9.48,7.79-18.78,4.12-13.59,6.83-22.57,2.6-27-1.48-1.53-5.32-2.29-13-3.8-8.13-1.6-10.43-1.17-12.38-3.39-.63-.72-1.95-2.54-1.2-12.19.47-6,.85-10.9,3-17.37,1.69-5.11,3.68-11.1,9-17a41.68,41.68,0,0,1,12.79-9.39c6.85-3.25,8.58-1.72,13.58-4.79,5.5-3.38,8.31-8.24,10.59-12.19,5.58-9.66,3.64-14.14,8.78-18,4.6-3.42,7.43-.79,11-4.2,4.65-4.44,3.89-12.83,3.2-20.57-.77-8.46-2.52-9.29-1.6-13.78,1.35-6.62,5.59-7,10-14.38,2.72-4.56,2.47-6.72,5.8-25.37,2.88-16.18,2.84-13.28,3.39-18,1.28-11,2.7-23.09-3-35.36-3.51-7.55-8.61-7.36-8.79-12.58-.18-4.87,3.53-6.34,9.58-18.38,2.8-5.55,2.41-6,4.6-9.38,2.91-4.46,6.37-9.77,11.78-11.19,6.61-1.73,9.46,4.07,16.58,3.2,2.77-.34,4.79-1.52,14.18-11,14.62-14.74,18.76-21,25.77-21,2,0,3.6.52,6-.4,4.9-1.88,4.33-6.44,8.59-9.39,5.86-4.06,12.13,1,15.78-3,2.23-2.43.06-4.51,2.39-9.79,1.78-4,4.61-6.38,8.19-9.39a42.4,42.4,0,0,1,9-5.79c5.36-2.53,6.24-1.1,9.79-3.2,4.63-2.73,7-7.2,8.59-10.18,2.52-4.76,1.52-5.57,3.59-8.39,2.43-3.32,4.92-3.7,12-7.19,8.56-4.23,7.44-4.9,15-8.39,1.54-.72,1.83-.8,13.38-5.19,12.57-4.79,12.55-4.81,13.38-5,4.94-1.09,10.22-.88,20.57-.4,10,.47,11.07,1.07,13.59-.2,5.73-2.89,4.46-8.31,10.18-12,3.56-2.28,7.9-2,16.58-1.4,11.36.77,17,1.15,20.37,5.19s1.75,8.35,6.59,12.19c2.55,2,4.7,2.19,5.2,4.19.73,3-3.4,5-3,8.19.25,2,2.11,3.36,6.19,5.59,10.93,6,14,5.22,22,9.79,4.08,2.33,5.25,3.64,8.19,3.8,4.14.21,9.26-2,10.59-5.8.63-1.8.63-4.58-5.39-12.78-5-6.81-7.8-8.71-13.39-14.78a140.32,140.32,0,0,1-16.17-21.57c-3.62-5.75-5.43-8.62-6.8-12.58-1.22-3.56-4.08-12.19-1.39-21.78,1.2-4.28,3.33-7.25,7.59-13.18,4-5.58,11.35-15.62,23.57-22.77,3.16-1.85,3.83-1.86,6.19-3.59,7-5.16,7.07-9.48,13.18-13.78a21,21,0,0,1,10.19-4.2c8.1-.81,11.95,4.6,16.37,2.4,2.86-1.42,3.68-4.88,4.8-9.59.51-2.15,2.65-11.14-2.2-18.77-2.06-3.24-2.93-2.4-5-5.4-6.23-9.07-1.71-21.94-1-24a32.06,32.06,0,0,1,8.59-13.58c6.38-5.79,12.31-5.76,15.18-12,.77-1.67.91-3.65,1.2-7.59,1-13.26-2.36-16.49.4-22.57.38-.85,3.17-7,8.58-8.39,3.71-1,6.29.91,11.59-.8C901,.88,901.05.06,902.69,0Z"/><path d="M999.56,3252.69c-4.66-1.94-12.6,5.63-16.37,13-4.08,7.95-4.08,17.14-2.2,17.78,1.36.46,2.4-4,8.19-8,4.42-3,6.44-2.16,9.78-5.39,1.26-1.22,4.06-3.92,4.4-8.19C1003.61,3258.63,1002.48,3253.9,999.56,3252.69Z"/><path d="M990.38,3093.9c-2.55.39-4.84,6.82-2.8,11,.9,1.84,2.06,2.06,6,4.8,5.73,4,10.1,7,10,10.38-.08,2.25-2.09,2.27-4,6-1.64,3.22-3.27,9.34-.2,12.18,2.07,1.91,6.12,2.2,8.19.4s1.47-6.13,0-14.58a39,39,0,0,0-2.39-9.39c-1.12-2.67-2.12-4.05-5.4-8.79C992.29,3095.07,991.62,3093.71,990.38,3093.9Z"/><path d="M960.82,2950.29c3.81-1.65,9.51,3,11.58,7.79.74,1.72.9,3.19.8,8-.23,11.15-.34,16.72-2,17.18-2.42.66-8.4-6.16-8.19-13,.13-4.19,2.56-7.13,1-9s-4.68,0-6.19-1.8C956.06,2957.4,957.59,2951.68,960.82,2950.29Z"/><path d="M1001.76,2978.45c-1.74,4.82-4.63,4-7.39,8.79-4.59,8-.67,17.37,0,19,1.73,4.13,3.62,5.08,4.4,5.39a7.5,7.5,0,0,0,5.39-.2,9.32,9.32,0,0,0,4.39-4c4.19-7-2.36-13.32,1.2-22.37,1.26-3.2,2.52-3.52,3.4-7.19.18-.77,2.06-8.94-1.6-11-2.16-1.21-5.73,0-7.59,2.19C1001.71,2971.71,1003.31,2974.19,1001.76,2978.45Z"/><path d="M1023.33,2971.26c-1.26,6.93-1.89,10.4-1.4,12,2.28,7.29,11,5.4,18.78,15.78,1.92,2.56,3.53,5.55,5,5.19s1.72-3.39,2-6.19c1.47-14.46,2.2-21.69,2.2-24.77,0-3.79-.08-8.9-.4-15l-23.37.2C1025.35,2961.5,1024.31,2965.9,1023.33,2971.26Z"/><path d="M981.19,2874.59c-1.52-.43-2.37,3.81-9,9-1.69,1.32-3,2.11-3,3.39,0,1.7,2.25,2.32,6,5.8,3,2.79,3.17,3.89,4,3.79C982.72,2896.15,984.48,2875.53,981.19,2874.59Z"/><path d="M1011.15,2813.27c-1.78,4.39.5,8.54,4,19.18,1.25,3.78,1.87,5.7,2,7.19.43,5-1.25,7.85-2.4,12.78-1.32,5.7-2.86,12.35-.79,13.58,2.43,1.46,6.86-6.41,16.37-11a7.5,7.5,0,0,0,3.6-3c1.22-2.18.59-4.42,0-8-.9-5.41-.08-4.08-1-10-2.09-13.34-3.13-20-8-23-3.75-2.27-9.86-2.61-12.58.2A5.65,5.65,0,0,0,1011.15,2813.27Z"/><path d="M1042.11,2838.44c-1.62.31-1.71,2.52-4.4,8.19-1.92,4.06-3,5.35-2.39,6.19.74,1,2.69-.27,7.19,0,3.47.2,4.16,1.07,5.19.4,2.33-1.5,1.82-7.81-1.2-11.79C1045.83,2840.55,1044,2838.08,1042.11,2838.44Z"/><path d="M1056.89,2852c-1.49-.42-3.61,1.34-4.4,3.2-1.44,3.41,1.56,7.42,2,8,5.56,7.2,19.49,6.33,20.37,3.59.62-1.89-4.76-5.45-6.19-6.39-4.78-3.16-8.26-3.11-10.18-6.59C1058.12,2853.16,1057.75,2852.26,1056.89,2852Z"/><path d="M881.32,2157.34c-6.3,1.16-10.1,1.85-11.58,4.6-2.35,4.34,4.22,8.12,5.79,19.17,1,6.88-1.22,7.93.2,15,1,5.14,4,13.39,7.39,13.38,3.93,0,7-11,8-16,.92-4.72.86-8.77.8-13.78-.09-6.82-.8-6.1-.8-12.58,0-5.84.56-7.91-1-9.39C888.33,2156.06,885.34,2156.61,881.32,2157.34Z"/><path d="M225,1741.69a10.43,10.43,0,0,0-6.39,8.19c-.71,7.14,9.45,8.64,20.17,21.57,1.15,1.39,4.25,5.25,7.59,4.8,1-.14,1.42-.57,3.4-1.6a55.38,55.38,0,0,1,6.79-2.8c5.83-2.82,7.61-25.86-1.6-31-6.23-3.44-13.47,3.55-24.57.8A9.09,9.09,0,0,0,225,1741.69Z"/><path d="M228.79,1686.17c9.68,15.63,6.61,20.48,15.58,28.16,2.25,1.93,2,1.24,15.38,10.78,7.17,5.12,10.75,7.68,11.78,8.59,9.68,8.62,11.63,15.57,17.58,15.58.5,0,3.57,0,5.19-2,2.4-3-1.06-7,.8-12.59,1.36-4.09,3.73-3.43,4.39-6.59,1.18-5.6-6.18-8-8-17.38-.8-4.12.57-4-.4-9.18-.5-2.73-1.6-5.88-3.79-12.19a39.35,39.35,0,0,0-1.4-3.79c-3.67-4.73-12.43.25-22-2.6-3.54-1-6.55-3.77-12.58-9.19-8.57-7.7-11.24-13-20.78-19.57-3.52-2.42-6-3.66-8.78-3.2-4.1.68-7.65,4.8-8.59,8.79C211.44,1667.25,219.48,1671.14,228.79,1686.17Z"/><path d="M251.16,1623.85c-9.25-1.44-20.22,7.79-19.18,12.58,1.21,5.58,18.25,3,23,13a58.19,58.19,0,0,1,3,8.78c1.55,5.91,1,7.12,2.39,8.59,2.8,2.88,8.35,1.68,15.18.2,6.31-1.36,9.47-2,12.39-4.79,3.85-3.63,6.83-10.24,4.59-14.78-1.09-2.21-2.86-2.79-10.58-6.19-7.94-3.5-11.91-5.25-14.78-6.79C256.4,1628.64,256.73,1624.72,251.16,1623.85Z"/><path d="M297.1,1653.61c-2.36,1.26-.91,4.23-3.4,8.39-3.58,6-9.52,4.77-11.38,9.79-1.23,3.29,0,7.34,2.39,9.78,3.67,3.79,10,3.64,13.58,1.2,1.67-1.12,2-2.21,5.4-11,3.79-9.85,4.4-11.2,3.59-13.19C305.67,1654.63,300,1652.07,297.1,1653.61Z"/><path d="M301.49,1686.17c-1.84-.67-5.07,2.42-6.39,5.59-.89,2.13-.67,3.71-.2,8.59,1,10.53.81,12.22,1.6,12.38,1.57.33,4.48-5.93,5.79-11.58S304.11,1687.12,301.49,1686.17Z"/><path d="M206.82,1556.54c-3.37,1.5-7.38,5.19-7,9,.42,4.08,5.45,3.72,8,9.18,2.65,5.68-.93,10,2.4,13.39,1.6,1.61,4.3,2.48,6,1.59.81-.42,1.48-1.28,2.4-7.59.83-5.71,1.25-8.56.6-10.58-1.24-3.84-3.5-3.81-4-7.19-.57-3.91,2.16-5.79,1-7.59C214.89,1554.69,210.05,1555.09,206.82,1556.54Z"/><path d="M241.57,1571.12c-1,0-1.36,4.17-4.39,17-1.73,7.26-2.78,10.84-2,11.18s3.59-3.94,4-4.59a26.72,26.72,0,0,0,4.4-14C243.63,1576.55,242.7,1571.15,241.57,1571.12Z"/><path d="M137.51,1523.78c-3.86-2-13.75,4.51-15.18,12.59-.51,2.85.29,4.48,5,14.78,7.29,16,9.05,20.16,11.59,20,1.77-.14,3.14-2.37,3.59-4,.92-3.34-1.66-5.64-5.19-12.38-3.24-6.18-5.87-11.2-4-14.78,1.33-2.53,3.64-1.91,5.4-4.79C141,1531.42,140.24,1525.2,137.51,1523.78Z"/><path d="M143.9,1519.59c-.79-2.76-.94-4.88-2.2-5.2-1.51-.38-4,2-4,4.2.06,2.41,3.19,2.62,4.79,5.39,2.67,4.62-2.91,9.44-2.6,17,.18,4.18,1.92,3.54,6,12.58,4.93,11,4.61,16.87,11,24.17,1.64,1.88,3.46,3.55,4,3.2.84-.56-2.45-5.4-4.2-13.19-.8-3.54-2.77-12.32,1.2-15.58,1.61-1.32,3.39-1.06,3.8-2.39.52-1.74-2.06-3.51-4.6-6.39-2.13-2.43-1.18-2.16-6.59-11.79C145.33,1522.39,144.82,1522.79,143.9,1519.59Z"/></g></g></svg>