<svg xmlns="http://www.w3.org/2000/svg" viewBox="0 0 2221.86 2430.19"><g id="Layer_2" data-name="Layer 2"><g id="Democratic_People_s_Republic_of_Korea" data-name="Democratic People&apos;s Republic of Korea"><path d="M2046.84,410c-.9.71-.83,1.37-2.33,6.37s-1.94,5.61-2.48,5.75c-1.62.4-2.54-3.22-5.75-4.66-4.72-2.12-10.8,2-11.19,2.33-6.86,4.83-6.11,13-11,13.82-2.78.49-4.75-1.83-6.21-.62-1.28,1.06-.29,3.26-.47,7.3a21.9,21.9,0,0,1-2,8.55c-.95,1.78-2.26,3.08-11.19,8.08-7.75,4.33-10.7,5.56-10.56,7.3.19,2.46,6.35,2.93,6.52,5.74.1,1.63-1.88,2.38-3.73,4.51-2.61,3-2.92,6.44-3.41,12.74-.81,10.37,1.48,14.34-1.25,16.62-1.33,1.12-3.11,1.11-6.68,1.09-5.72,0-6.67-1.87-10.09-1.4-4.45.6-8.31,4.42-9.79,8.23-.57,1.46-.57,2.37-.47,9.48.09,6.33.14,9.5.16,9.94.37,9.17.55,18.08-4.66,25-.61.81-6,7.81-13.67,8.54a72.2,72.2,0,0,1-9.48,0c-4.52-.26-5.76-.7-7.14.16-2.69,1.66-2,5.75-2.64,10.87-.62,4.59-3.52,9.85-9.33,20.35-4.46,8.08-4.66,7.28-8.69,14.61-5.14,9.31-7.7,14-9.17,19.57-2.71,10.35.53,12.09-2.33,24.54-2,8.5-3.62,8.38-4.35,14.92-.85,7.63.79,13.49,2.8,20.66,2.76,9.87,4.21,15.06,8.85,19.88,5,5.15,6.69,2.77,15.22,9.94,7.14,6,6.77,8.37,12.28,10.88,3.2,1.45,6.41,2.05,8.54,5.28a11.88,11.88,0,0,1,1.71,5.44c.7,5.8-.85,10.61-2.49,15.22-2.33,6.56-4.31,11.18-5.74,14.6-3.76,9-5.64,13.44-7.15,18-1.79,5.43-2.85,11-5,22.06-2.18,11.38-3.27,17.07-3.73,22.52s-.13,5.85-.15,24.7c0,7.8-.08,13.77-.16,20.51-.29,25.58-.72,24.28-.31,26.1,3.6,16,14.67,18.14,14.29,31.84,0,1.34-.85,5.55-2.48,14s-2.45,12.56-3.73,16.31c-3,8.63-4.6,13.44-9,16.47-4.76,3.27-7.45.85-24.39,2.33-11.77,1-16.13,2.69-17.55,3.26a38.62,38.62,0,0,0-13.67,9c-4.12,4.29-4,6.32-7.46,8.24-4.42,2.42-7.55.75-13.21,1.39-5.18.6-9.1,3.2-16.93,8.39-11.25,7.47-13.26,12.19-21.9,14.14-3.42.77-3.93.21-5.59,1.24-6.55,4-2.15,14.7-8.86,21.13-3.1,3-8.28,4.76-12,3.26-4.09-1.66-3.51-6.23-7.46-7.77-5.71-2.22-13.15,4.93-13.51,5.29-3.58,3.51-4.87,7.67-7.3,15.84-2.85,9.55-1.86,11-4.82,19.11-2,5.64-2.74,5.54-4.35,10.72-2.34,7.53-1.15,8.59-3.26,14.91a52,52,0,0,1-7.15,13.67c-4.68,6.46-6,5.08-8.54,9.79-3.75,6.82-2,11.47-6.37,14.91-1.56,1.23-3.18,1.62-6.37,2.33-8.83,2-13.25,0-19.73.78-5.24.58-8.65,2.55-14.75,6.06a63,63,0,0,0-21.75,20.81c-5.29,8.55-2.81,9.53-7,14-7.33,7.81-13.5,3.27-26.72,11.65-7.21,4.58-8.72,8-15.69,9.63-5.09,1.17-6.07-.27-11.81,1.25-6.3,1.67-6.51,3.77-14.6,6.83-6.78,2.56-7.66,1.48-11.18,3.89a18.57,18.57,0,0,0-7.77,10.71,15.39,15.39,0,0,0,.31,9c1.39,3.76,3.59,4.46,6.52,7.93,1.17,1.38,6.9,8.15,6.22,16.46-.36,4.33-2.57,10.49-7.46,13-3.5,1.83-5.23.17-13.2,1.56a35.87,35.87,0,0,0-10,2.79c-6.19,2.89-10.3,7.42-14.13,11.65-2.76,3-2,2.67-3.42,4-6.15,5.83-11.45,4.15-19.88,8.7-5.11,2.76-3.26,3.42-9.48,7.15-5.23,3.13-7.63,3.31-16.93,7.14-7.69,3.17-11.54,4.76-13.05,6.06-7.3,6.28-5.24,13.1-12.43,17.24-1.06.62-6.4,3.52-10.1,1.4-4.43-2.54-2.53-10-6.36-11.49-3.45-1.33-8.29,3.46-9,4.19-3.67,3.73-2.62,6.27-5.44,8.7-3.08,2.64-6.5,1.5-15.07,1.4-11.29-.13-10.56,1.8-18.33,1.24-7.09-.51-6.6-2-20-5-13-2.83-17-2.18-20.19-.78-1,.45-2,1-7.77,6.37-14.17,13.21-13.84,15.22-19.42,17.87-4.62,2.19-7.26,2-11.34,5.43a23.92,23.92,0,0,0-5.75,7.3c-3.54,7.06-.46,10.35-2.48,19-.35,1.46-3.27,13.88-10.57,15.69-3.52.87-4.57-1.59-11.8-2-4-.24-9.65-.58-11.81,2.48-2.33,3.31,1.83,7.21-.46,11.19s-8.46,4.29-11.34,4.5c-7.5.55-9.25-2.69-13.05-.93s-2.7,5.17-8.7,10.87c-2.39,2.27-4.25,4-7,4.35-4.15.55-5.73-2.65-9.63-3.57-6.52-1.54-13.19,4.74-22.37,13.36-3.89,3.65-7.1,7.41-13.52,14.91-4.78,5.59-7.19,8.44-8.54,10.88-1,1.79-2.78,5.36-5.28,20.5-2.92,17.59-1.63,19.57-.47,20.35,3.1,2.08,7.44-3,13.05-.62,2.48,1,3.78,3,6.37,7,2.81,4.3,5.69,8.71,6.06,14.6.24,3.94-1.13,7.45-3.89,14.45-2.88,7.34-4.23,8.52-7,15.07-2.42,5.75-4.54,10.78-5.43,17.4a50.51,50.51,0,0,0,1.7,22.83c2,6.21,4.7,9.68,3.27,14.76-.32,1.11-1.35,4.76-4.66,6.06-2.17.85-5.34.71-7-1.09-2.93-3.18,1.37-8.81-1.4-12.11-2.24-2.67-7.35-1.77-8.55-1.56-6.5,1.15-7.58,5.6-15.22,11.34-9.63,7.24-16.75,6.82-17.4,11.65-.44,3.28,2.47,6.2,3.42,7.15,2.59,2.6,7,4.61,10.72,3.42,5.06-1.63,4.87-7.88,8.39-8.24,4-.4,9.83,7,8.07,12-1.46,4.18-7.78,5.49-9.78,5.91-3.66.76-4.76-.15-7.93.93a16.93,16.93,0,0,0-7.14,5.13c-4.24,4.61-5.67,9.6-7,14.44a57.49,57.49,0,0,0-2,15.38c0,7.43,0,16.19,5.75,23.77.62.82,1.53,1.92,6.21,5.9,6.57,5.58,11.36,14.44,18.64,14.29,5.19-.1,6.19-5,12-4.42,3.87.36,7.16,2.88,8.86,4.19,4.06,3.12,3.74,4.9,6.29,5.83,3.91,1.41,6.18-2.25,12.12-3.27,7.7-1.32,14.55,3,16.77,4.43,7.87,5,6.6,9.86,12.35,11.65,6,1.87,8-3.19,18.18-2.79a35,35,0,0,1,13.51,3.49,33.07,33.07,0,0,1,10.26,7c4.16,4.33,5,8.13,7.69,14.45,1,2.44,4.41,8.39,11.18,20.27,7.1,12.46,10.71,18.75,13.75,21.44,5.92,5.24,8.86,4.65,14.68,10.95,4.42,4.79,3.37,5.83,8.62,12.82,5.84,7.76,7.7,7.23,15.61,16.54,8.18,9.62,6.53,10.6,10.49,12.82,5,2.82,8.29,1.55,21,5.82,2.58.87,3.88,1.31,5.12,1.87,5.51,2.46,9.26,5.87,18.41,16.77,8.65,10.3,13,15.45,14.22,17.94a35.6,35.6,0,0,0,8.15,11.66c3.94,3.58,6.22,3.75,7.23,3.72,2.31-.07,3.45-1.39,7.92-4.89,5.93-4.64,8.93-7,11-6.52,2.53.53,2.66,3.48,6.06,9.08a55.07,55.07,0,0,0,11.18,12.82c7.64,6.88,10.14,5.67,12.35,10,3.06,6,.72,13-.46,16.54-1.52,4.53-4.12,8.07-9.32,15.15-6.06,8.24-7.27,8.34-8.39,11.88-.46,1.44-1.21,4.42.93,16.31,2.28,12.68,3.86,13.33,4,19.34.13,7.21-2,12.56-4.19,18-3.52,8.74-7.87,14.34-13.28,21.2a158.22,158.22,0,0,1-23.77,24.23,153.74,153.74,0,0,1-22.84,15.62,140,140,0,0,1-17.24,8.15c-13,5-19.48,7.51-25.87,6.76-11-1.3-15.93-8.68-29.59-8.86a51.55,51.55,0,0,0-5.36.24c-6.59.7-9.89,2.61-17.71,5.12-5.77,1.86-8.65,2.79-10.25,2.8-7.54.06-9.85-5-19.11-8.62-6.71-2.65-12.35-2.72-19.1-2.8-11.92-.14-12.12,2.84-22.84,3.26-17.71.71-24.61-7.1-33.79-1.63-2.82,1.69-4.12,3.59-8.62,5.36a31.41,31.41,0,0,1-13.51,1.87c-9.94-.47-14-2.34-23.31-4-6.29-1.11-16.9-3-29.59-1.4-10.13,1.25-10.14,3.28-17.47,3-10.09-.35-12.1-4.25-21.67-4-3.49.1-7.92,1.46-16.78,4.19-7.68,2.36-9.11,3.23-20.74,7.22-14.29,4.92-13.45,4.07-15.61,5.36-10,6-8.17,12.36-17.94,18.41-7.68,4.75-10.35,1.78-16.78,6.76-6,4.65-8.4,10.91-11.19,18.17-5.18,13.54-2.36,17.71-7.45,24.24s-9.24,3.81-17.25,10c-11.12,8.62-6.49,16.53-19.8,34.95a116.23,116.23,0,0,1-17.48,18.87c-6,5.3-8.93,8-13.05,10-8.4,4.23-13.12,3-18.87,8.39a24.81,24.81,0,0,0-6.06,9.09c-.79,2.08-2,6.07-.23,19.81,1.63,12.92,3.17,13.4,1.86,17-2,5.45-5.66,4.73-11.18,13.51-3.14,5-2.77,6.51-5.6,8.85-3.05,2.53-5.48,2.41-12.11,4.43-8.58,2.62-8.52,4-12.12,4.66-2.25.39-6.65.59-26.8-14.21-8-5.89-15.72-11.55-22.13-18.18-3.25-3.35-6.78-6.44-9.79-10-2-2.41-3-3.81-5.13-5.12-1-.62-4.48-2.58-10.71-2.1-5.94.46-8.19,2.64-21,9.32-1.83,1-7.42,3.86-14.91,7-8.16,3.41-10.4,3.69-12.58,3.5-6-.54-7.1-4.25-11.89-3.73-3.8.41-3.57,2.81-10.48,6.52-6.15,3.31-9.21,2.95-10.49,5.83-.74,1.67-.37,3.28,1.17,7.69,4.15,11.92,6,13.22,6.29,17.47.35,4.82-1.36,11.71-5.83,13.75-7,3.21-18.87-6.51-18.4-13,.19-2.68,2.4-4.09,1.63-6.52s-3.42-2.65-6.76-5.13c-3.09-2.29-4.63-4.89-6.29-7.69-6.23-10.49-1.07-22.06-5.13-23.76-2.34-1-4.28,2.77-8.39,2.09-1.53-.25-3.67-1.17-7.92-7.45-6.37-9.42-5.52-13.21-9.79-15.62s-10.36-1.59-11.41.7c-1,2.07,2.8,4,7.69,12.82.56,1,0,0,4.66,10.25,2.32,5.08,3,6.5,2.33,7.46-1,1.38-4.12.84-10.49-.93-11-3.07-16.53-4.6-18.64-6.3-4.58-3.68-2.52-5.42-11.65-21.67-4.86-8.64-7-11-8.16-12.11-3.7-3.74-5.65-4.12-9.55-8.62-3.15-3.64-5.37-6.2-6.06-10-1.06-5.85,2.5-8.28.7-11.42s-7.15-3.56-12.82-4c-6.73-.48-8.24,1.09-11.88-.7-2.71-1.34-4.61-3.56-6.52-2.8-1.18.47-1,1.52-2.33,2.33-2.14,1.28-5.53.39-7.46-1.4-1.63-1.51-1.47-3-2.33-4.66s-3.13-4.23-14-6.06c-11.22-1.88-18.05-3-20.27.47-2,3.18.91,8.45,2.56,11.42,1.18,2.13,4.55,8.17,11.18,10.48,7.55,2.63,11.87-2.17,17.95,1.64.73.46,4.51,2.82,4.42,5.82,0,1.61-1.17,2.61-.7,3.26.84,1.15,4.54-1.66,7-.23,1.18.69,1.58,2.57,2.33,6.29a54.31,54.31,0,0,1,.93,8.16c.17,3.52.26,5.27,0,6.06-1.41,4.18-7.68,7.58-13,6.75-1.69-.26-5.73-2.74-13.75-7.69-2.54-1.57-3.87-2.41-4.89-1.86-2,1.07-1.51,6.71,0,11,2,5.6,4.73,5.86,4.66,9.32,0,.78-.17,1.48-5.13,10-2.07,3.57-2.82,4.79-2.33,6.06.95,2.45,5.22,1.7,5.83,3.73s-3.42,5.78-7,7.69c-3.73,2-6,1.62-6.53,3.26s1.58,2.88,3.5,7c.93,2,3.18,6.82,1.39,9.09s-7.75,1.94-10.95-.93c-2.8-2.52-2-5.59-5.12-7.23-1.74-.9-4.24-1.14-5.36,0s.05,3.07-.93,4c-1.72,1.56-8.64-1.2-9.56-5.36-.46-2.1.83-3.59,0-4.42-1-1-4.34-.33-6.29,1.63-4.77,4.78.54,15.51-3,17.47-1.73,1-3.85-1.09-5.36.24-1.12,1-.41,2.52-.93,5.82-.2,1.26-.69,4.34-2.33,6.29-.58.7-2.27,2.4-9.79,2.8s-9.16-1.09-14.21-.47c-2.73.34-6.77.92-10.25,3.73-6.12,4.94-5.11,12.52-9.32,13.28a5.48,5.48,0,0,1-4.9-2.09c-2.15-2.8.85-5.82-.93-10-1.53-3.61-4.64-3.5-4.89-6.29-.18-1.95,1.36-3.63,4.42-7a27.74,27.74,0,0,1,6.53-5.6,26,26,0,0,1,7.46-3c4.43-1,5.25.1,10.95-.46,4.56-.45,8.59-.85,10.48-3.73,1.3-2,1.53-5,.24-6.06-1-.77-2.63-.21-4,.23-2.69.91-3.56,2.17-5.12,3-4,2.18-10.58.8-11.89-2.33-1-2.46,1.41-5.62,2.1-6.52,3.4-4.43,7.16-3.86,14.45-7.46,9.15-4.51,9.44-8.48,13.75-7.92,3.91.51,5,4,12.11,5.59a8.51,8.51,0,0,0,4.9,0c3.08-1.06,5.61-4.39,4.89-6.29-.43-1.13-1.78-1.12-5.83-2.33-5.69-1.7-8.54-2.54-9.55-4.66s.13-5.35,1.63-7.22c3.54-4.41,9.27-2.51,10.95-6.06,1.16-2.44-.4-5.76-1.86-7.46-1.65-1.91-2.86-1.4-7.46-4a60.71,60.71,0,0,1-6.29-4.19c-5.11-3.69-5.34-4.54-7-4.66-2.85-.22-3.25,2.26-7.92,4.19-5.31,2.2-8.18.4-10,2.8-1.47,1.91-1.17,5,0,7,1,1.69,2.22,1.78,6.76,4.19,4.07,2.17,6.13,3.29,7.69,5.13,2.35,2.78,3.8,7,2.56,8.15s-5.14-1-8.62-3c-4.77-2.72-5.23-3.95-8.39-5.82-6.83-4-15.28-4.59-16.08-2.8-.27.61.5,1.13,2.33,4,2.47,3.83,3.71,5.75,3.73,7.69.05,4.59-6.33,8.3-7.69,9.09-4,2.35-6.5,1.81-9.09,4.89-1.34,1.6-1.81,3.09-2.79,3-1.51-.08-1.27-3.65-3.73-5.59-1.32-1-2.71-1-10-.46-8,.64-10.32,1-11.42-.47s-.27-3.91,0-4.66c1.16-3.22,3.86-4.65,7.69-7,7.81-4.77,11.74-7.22,13-10.49,1.05-2.61,1.19-6.15-.47-8.62-.64-1-1.37-1.5-5.82-3.73-7.68-3.85-8-3.52-8.86-4.66-2.57-3.53.31-7.24-2.56-10.25a6.27,6.27,0,0,0-5.59-1.86c-4,.9-5.69,7.18-6.76,11.18-1.9,7.08-.34,9.3-2.8,12.35-2.75,3.42-7.39,4-9.55,4.19-5.92.68-7.86-1.75-16.08-3.72-10-2.41-10.9.31-18.87-2.33-7.55-2.51-6.8-5-13.75-7-9.66-2.83-16.25.41-17.94-2.8s3.66-8.38,1.16-11.88c-.63-.88-1-.65-2.09-1.87-1.5-1.71-2.92-4.72-2.33-7.46,1-4.7,7.73-7.47,12.35-6.52,2.34.48,2.71,1.62,4.42,1.4,3.81-.5,4-6.39,7.46-7.22,2.54-.61,4,2.14,10.25,6.29,4.69,3.1,7.52,5,11.42,5.59,6.41,1,11.77-2,15.61-4.2,2.84-1.6,8.87-5.52,8.16-7.45s-6.48.59-14.45-2.1c-2.59-.87-6.77-2.28-9.55-6.29s-2.67-8.63-2.57-11.42c.15-3.89.26-7.07,2.33-9.32,3.38-3.66,8.34-.93,22.14-1.16,10.29-.18,13.81-1.8,15.84.7,3.37,4.13-3.37,12.16,0,15.61,2.27,2.31,8.12,1.55,10.72-1.4,2.33-2.64.27-5,1.87-10.72,1.94-7,6.25-8,6.06-12.58-.16-3.8-3.26-7.18-6.06-8.86-6.68-4-11.71,1.65-24.24-.23-6.54-1-6.23-2.68-12.81-3.26-6.77-.6-12.12.75-17.25,2.09-10.12,2.66-10.06,4.68-17.47,6.3-4.1.89-12.34,2.68-20.74-.47-8.12-3.05-14.24-9.91-19.11-15.38a69.44,69.44,0,0,0-9.55-8.62c-5.14-3.88-6.69-3.95-7.69-3.73-3.62.81-3.22,6.25-7.46,9.79-2.23,1.86-4.46,2.13-14,2.33-15.06.32-22.71.45-28.66-.93-6.12-1.43-5.12-2.13-12.12-3.73-10.54-2.41-15.59-1.46-17.24-4.66-1.4-2.72.27-7.22,3-9.56,4-3.35,8.09-.49,19.34-2.56a42.44,42.44,0,0,0,9.09-2.56c7-2.91,6.59-5.76,13.05-9.09,7.09-3.66,9.92-1.63,14-5.59,2.29-2.24,1.59-3.09,5.13-8.86s6.5-10.61,9.78-10.48c1.34.05,2.27.89,7.23,7.69,6.34,8.7,7.57,11.09,10.48,11.65,1.86.35,3.72-.54,7.46-2.33,3.16-1.52,5.29-3,12.35-8.62,7.23-5.75,8.75-7.16,8.39-7.93s-2.46.13-7-.23c-5.1-.4-6.3-1.91-8.39-.93-2.57,1.2-1.6,3.87-4.2,5.82-3.63,2.74-9.75.72-12.81-.93a18.29,18.29,0,0,1-6.29-5.82,23.15,23.15,0,0,1-4.43-12.12c-.2-3.58.6-5.53,1.16-8.39,2-10.32-2.72-14.23-2.33-22.83.18-3.85,3.46-9.38,10-20.28,10-16.61,11.83-15.91,15.61-24.93,3.51-8.36,4.79-15.77,7-15.61,1.34.09,2.36,2.91,3.5,6.06,1.76,4.85,1.62,7.86,2.33,7.92,1,.09.81-5.77,4.19-11.65,3.74-6.5,7.62-5.7,11-12.12.73-1.42,3.7-7.13,1.86-12.81-1.25-3.85-3.28-3.3-6.06-8.39a26.61,26.61,0,0,1-3-13.52c0-3.5,0-6.15,1.87-7.69,1.47-1.22,3.56-1.06,7.69-.7,4.63.42,6.94.62,9.32,2.1.56.35,4.93,3.16,6.06,8.16.74,3.28-.57,4.66.69,6.29,1.68,2.15,6.16,2.56,8.63.7,2.17-1.65,1-3.73,3.49-6.76,1.76-2.16,4-3.11,6.53-4.19,5.35-2.29,7.48-1.18,8.38-2.8,1.6-2.86-5-6.48-4.66-13,.23-4.54,3.5-5.52,2.8-9.09-.81-4.11-5.42-4.13-6.76-8.39-1.47-4.69,2.1-11.13,4.9-11.18,3.07-.06,6.24,7.58,7.45,12.35s.67,7.41,2.8,8.85,5.58.88,7.92-.7c5.58-3.74,2.35-11.75,7-14.68,3-1.88,5.45.74,15.15,2.1a66.63,66.63,0,0,0,16.08.24,70.16,70.16,0,0,0,18.87-5.13c7.88-3.33,6.25-4.24,11.42-5.83,9.71-3,14.66.5,21.2-4,3-2,3.1-3.55,5.83-4.43,4.66-1.49,10,.85,13.28,3.73,4,3.59,5.53,8.68,6.06,10.49,1.23,4.24.71,6.63,3,9.09,1.55,1.64,4.22,3.16,5.59,2.33,2-1.23-.58-6.46,2.1-8.86a5.3,5.3,0,0,1,4.19-.93c4,.79,3.83,5.88,8.16,11.18,4.52,5.55,10.67,7.36,16.54,9.09,3.91,1.15,7.9,2.33,9.55.47s.52-5.74-1.16-8.39c-4.4-7-12.79-4.49-20.74-10.49-4.67-3.52-2.18-5.46-9.09-14.21-4.86-6.17-7.42-9.41-11.88-10.72-7.29-2.13-12.91,2.91-15.61,0-1.75-1.88.48-4.12-.93-9.79-.42-1.68-1.68-6.68-6.06-9.32-.76-.45-4.62-2.77-7.93-1.16-3.47,1.69-4.24,6.72-4,9.79.31,3.29,1.78,3.66,1.63,6.05-.25,4-4.81,9.09-10.48,8.86-3.58-.15-3.62-4.56-8.86-6.06-1.17-.34-3.87-1.11-5.82.23-1.66,1.14-1.45,2.87-3,3.73-.68.37-2.12.82-5.36-.7-6.78-3.17-9.87-9.54-10.72-9.09s3.15,6.47.93,9.79c-1.69,2.54-6.19,2.25-8.62,2.1-4-.26-12.47-2-13.75-7.46-.75-3.25,1.38-6.39,2.1-7.45,2.77-4.08,5.77-3.53,7.46-6.3,3.28-5.38-1.81-17.71-9.09-18.87-2.55-.4-6.13.44-7.46,2.8-1.73,3.08,2,5.94,1.17,11.41-.68,4.65-4.24,8.82-6.06,8.39-1.37-.32-2.1-4.33-3.5-12.35-.81-4.68-1-6.91-2.79-7.92-1.47-.82-2.52,0-6.06-.23-.78,0-4.38-.3-6.29-1.4-4.41-2.55-3.52-11.82-2.8-19.34.94-9.79,1.42-14.82,5.13-19.81,4.56-6.14,8.2-4.42,12.12-10.48,4-6.24.53-8.6,4.66-17.25,2.38-5,4.06-5.26,8.62-14,1.73-3.3,3.07-6.3,2.79-10-.25-3.37-1.56-3.6-1.86-6.29-.35-3.07,1.05-5.5,10.25-17,2.29-2.86,4.17-5.25,7.92-10,4.28-5.43,5.06-6.47,5.83-8.39.46-1.14,1.3-3.57,1.17-12.58-.16-10.18-1.29-10.72-.24-14.45,1.31-4.63,4.89-10.24,9.09-10.48,3-.18,4.91,2.55,6.29,1.63s-.34-4.15.23-8.62c.06-.46,1-6.89,6.3-10.72,3.31-2.39,8.94-4.19,13.51-2.56,1.05.37,2,.9,2.56.46,1.26-.93-1.33-4.56-1.63-9.79-.26-4.63,1.41-8.31,3-11.88a41.15,41.15,0,0,1,5.36-8.62c4.1-5.09,6.71-5.89,6.53-8.16-.23-2.78-4.26-2.6-7-6.52-3.88-5.55-2.3-15.28,2.33-18.64,1.4-1,2.05-.7,4.42-2.33.31-.21,6.21-4.33,5.36-6.76-.47-1.34-2.59-1-7.22-2.56-4.28-1.49-3.95-2.33-7-3.26-5.56-1.71-7.8.75-12.12-.7-3.23-1.09-7.44-3.9-7.22-6.53.25-3.09,6.42-3.78,8.62-9.32a3.31,3.31,0,0,0,.23-2.56c-.54-1.32-2.17-1.57-5.82-2.8-3.17-1.06-4.76-1.61-5.13-2.33-1-2,1.95-5.35,4.66-8.39,14.27-16,14.55-16.08,15.61-17.94,4.19-7.35,2.4-10.68,7-14.21,3.85-3,6.35-1.58,9.56-4.9s5.44-9.78,2.56-13.74a7.18,7.18,0,0,0-6.06-3c-4.08.34-4.34,5.06-8.85,8.39-7.31,5.39-14.36-1.29-23.3,4.19-3,1.86-2,2.47-8.16,7.46-5.89,4.74-8.84,7.11-11.88,6.75-1-.11-2.86-.58-10.72-13-3.32-5.25-7.33-12.06-13.52-17a14,14,0,0,0-2.56-1.63c-4.54-2.2-10.82-2.06-14,1.17a5.24,5.24,0,0,0-1.4,2.1c-.91,2.7,1.32,4.51.7,6.29-.75,2.15-5.18,2.79-8.16,2.56-4.75-.37-10.34-3.32-12.81-8.39-2.33-4.77-.46-8.48-3-10-1.76-1-3,.48-7.69.47-1.58,0-5.7,0-8.86-2.1-3-2-2.52-4.06-5.12-8.15-3.61-5.7-8.84-8.55-15.38-12.12-4-2.17-6-3.25-8.85-3.73-3.82-.63-5.33.3-11.42,0-5-.24-7.45-.37-8.62-1.86-2.17-2.77,1.61-6.42.69-11.89-1-5.87-6.65-9.5-10-11.65-9.39-6-14.2-2.06-20-7.69-4.7-4.51-2.58-8-8.16-12.35-4.08-3.18-6.28-2.16-10.49-5.82-4.95-4.32-5.58-9-7-8.62-1.63.38-2.57,7-.46,12.81,1.43,3.92,3.12,4.32,3.26,7.22.19,3.89-2.79,4.51-4.43,9.79-1.19,3.84-.75,7.2,0,13.05.65,5,1.29,4.93,1.63,8.85.47,5.4.89,10.29-1.86,13.29-2.94,3.19-6.45.94-13.75,4.42-1.8.86-1.75,1.08-7.45,5.13-13.46,9.56-15.44,9.57-16.78,9.09-3.36-1.2-4.66-6.16-4.89-8.86-.35-3.91,1.21-6.64,2.79-10,3.95-8.45,8.58-18.34,5.59-26.09-1.55-4-4.8-6.58-6.52-7.93-5.95-4.66-10.5-3.47-13.28-7.92-.57-.9-.46-1.08-1.63-8.85-1.35-8.93-1.26-7.11-2.1-13a89.19,89.19,0,0,0-1.86-10.72c-1-3.92-1.53-5.9-2.8-6.76-3.29-2.21-6.92,2.48-12.82,1.63-6.08-.88-5.25-6.31-12.58-8.62-3.49-1.1-7.69-1-16.08-.7-3.29.11-4.25.27-5.82-.23-4.34-1.39-3.69-6.08-8.86-11-1.69-1.6-4-3.76-7.45-4.43s-4.51.72-10,.93c-2.94.11-8.37-.06-8.63-1.4s3.73-3,6.3-4.19c4.65-2.14,6.17-1.84,7.69-3.73a7,7,0,0,0,1.39-6.29c-1.08-3.13-4.57-2.56-6.75-6.29-1-1.77-2-4.88-.7-6.53,1.53-1.94,4.83-.09,7.92-2.33,1.32-1,2-2.22,2.8-4.19a55.52,55.52,0,0,0,3.49-13.75c1.44-14.53.49-18,3.73-21.2a13.16,13.16,0,0,1,5.59-3c7.88-2.73,15.78.22,17,.7,4,1.56,5.4,3.24,8.86,3,2.51-.16,5.54-1.29,5.59-2.57.07-1.84-6.09-3.55-14.45-5.82-10.62-2.89-13.55-2.73-16.78-5.59-3.51-3.13-4.46-7.82-5.35-11.42a32.47,32.47,0,0,1-.94-10.26c.61-6.72,4-10.21,11.19-20,13.42-18.31,11.8-19.94,17-22.61,5.84-3,10.26-2.15,16.78-7.45,2.77-2.26,3.73-3.85,6.52-7.23,3.19-3.87,10.69-13,19.34-18.41,7.41-4.66,7.87-1.74,22.37-7.92,9.79-4.17,14.68-6.26,18.87-10.95,3.44-3.84,3.26-5.67,10-18.87,2.8-5.46,6-11.41,7.46-13.75,8.07-13.28,18.37-8.2,33.09-22.14,6.4-6.06,9.6-9.09,12.81-13.75,3.87-5.6,5.08-9.33,8.16-9.55,2-.14,2.72,1.3,11.18,7.92,4.23,3.31,5.29,3.93,6.3,4.43,3.85,1.92,5.83,1.56,10.25,2.56,9.07,2.07,9.37,5.58,16.78,6.29,2.75.27,6.4.62,9.78-1.63a12.18,12.18,0,0,0,5.36-9.78c0-4.47-3-5.23-4.19-11-.26-1.2-1.36-6.4.93-11.19,1.37-2.87,3.5-4.64,13.51-10.25,5.59-3.13,8.05-4.33,12.12-6.53,13.1-7,12.34-7.92,19.57-11.18,8.19-3.69,8.85-2.44,18-6.53,4.23-1.9,7.94-4.06,15.38-8.38,5.68-3.31,10.93-6.09,21.43-11.65,4.12-2.19,6.43-3.37,9.32-2.8,5.64,1.1,7.8,7.72,10,7s-.28-6.47,2.8-12.12c3.38-6.2,9.17-4.55,12.58-10.72,3.12-5.63-.44-9.35,2.8-13s7.12-.89,15.61-3.49c2-.62,11.86-3.63,17-11.88,3.85-6.18,1.74-9.91,6.06-13.29,3.65-2.85,9.58-3.64,12.58-1.16,2.46,2,1,4.65,3.26,7.46,4,4.94,15.29,5.06,18.18.46,1.4-2.22.57-5.13-.7-9.55-2-6.86-4.36-7.73-4.66-11.19-.58-6.66,7.51-12.55,12.35-16.07,10.39-7.57,15.54-5.24,21.67-12.82,2.15-2.66,3.06-4.86,6.06-6.06,4.62-1.84,11.2-.1,12.81,3.5.92,2-.4,3.27.7,4.89,1.61,2.36,6.47,2.76,10,1.16,3.9-1.75,3.16-4.52,7.69-7.68,2.26-1.58,4.69-2.22,9.56-3.5,5.37-1.42,8-2.12,10.71-1.4,4.19,1.14,4,3.85,7.69,4.66,4.45,1,9.76-1.9,12.59-5.59,3.54-4.63,1.35-8.1,4.66-10.72,3.53-2.8,7,.39,12.35-2.1,2.7-1.25,3.71-2.95,8.15-9.32,8.06-11.55,6.68-8.77,10-14,5.43-8.47,3.63-7.32,11.65-21.2a37.46,37.46,0,0,0,4.43-9.56c1.47-5.29.42-6.92,1.63-10.25,1.66-4.57,5.58-6.82,12.58-10.72,17.93-10,17.89-9.84,19.34-10.72,18.42-11.11,16.44-27.42,35.19-44.27a54.63,54.63,0,0,0,8.39-9.09c4.89-6.73,5.57-11,8.15-16.54,6-12.76,11.53-9,25.17-26.8,5.1-6.67,8.41-12.54,14.21-12.81,3.52-.17,6.41,1.79,9.09,0,2.3-1.54,2.71-4.68,3-7.46.81-7-1.47-9.85-1.86-15.84a30.34,30.34,0,0,1,3.26-15.15c4.93-10.37,11.82-9.31,13.51-16.54,2-8.77-7-14.77-3.49-21,2.21-3.87,6.55-2.93,8.62-7.69,1.22-2.79.77-5.53,0-10.25-1-6.29-2.53-6.91-2.56-10.48,0-2.7.82-3.75,5.59-12.35,6.33-11.43,6.93-13.36,10.25-15.62a18.73,18.73,0,0,1,8.86-3.26c3.37-.28,4.05.71,7.69.93,1.7.11,9.37.59,14.44-4.42.9-.89,5-5.19,4-9.56-1-4.15-5.53-3.9-7.69-8.62-1.83-4-1.17-10,2.1-12.35,4-2.83,11.22,0,15.15,4,4.77,4.85,3.23,10,8.39,13,.36.21,4.73,2.69,7.69.93,3.54-2.11,1.15-8,4.89-11.41,2.78-2.54,5.45-.49,10.25-1.87,5.1-1.46,6.44-5,16.31-17.94,8.92-11.66,10.88-12.73,12.82-12.58,3.15.24,3.44,3.49,11.88,11a64,64,0,0,0,8.16,6.29c4.49,2.88,6.31,3.13,10.95,5.59,5.57,2.95,9.41,5,12.82,8.86s1.58,4,8.15,16.31c2.41,4.51,3.33,5.77,3,7.92-.76,5.42-7.9,6.55-7.69,10,.24,3.88,9.22,3.23,13.75,10.49,2.81,4.49.81,7.07,4,9.78,2.61,2.25,4.59,1,12.12,3.5,3.17,1,2.61,1.2,7.45,3,8.11,3.06,10.21,2.83,10.72,4.42.9,2.81-4.34,7.49-9.09,10-7.76,4.16-13.62,2.3-14.44,4.9-.9,2.81,5,8.06,10.95,10.25.89.33,4.88.92,12.81,2.1,6.76,1,8.21,1.18,10,2.56,3,2.31,3,4.81,5.83,5.59,1.94.53,2.48-.48,6.52-.46a17.4,17.4,0,0,1,5.6.7c.82.26,5,1.62,7,5.12,2.3,4.15-1,6.95.93,10,2.63,4.15,12.22,4.64,17,.7,1.91-1.57,1.61-2.67,3.26-3.26,4.48-1.62,11.23,4.81,13.52,7,2.73,2.6,2.52,3.12,3.72,3.49,5,1.54,8.15-7.46,16.78-9.08,5.8-1.1,11.09,1.7,14.91,3.73,5.73,3,6.45,5.56,11.66,9.08,1.39.94,4.38,2.82,17.47,6.29,10.4,2.76,18.79,5,30.76,6.06,11.25,1,9.16-.52,19.34.47,17.61,1.71,28.92,6.76,33.09,1.63,1.49-1.84,1.29-4,4.19-6.52,1.29-1.11,3-2,6.53-3.73a45.36,45.36,0,0,1,4.89-2.33c4.27-1.11,5.6,1.13,9.55.23s3.94-3.3,6.76-3.26,3.28,2.66,7.69,4.89c1.24.63,6,2.8,11,1.63,4.66-1.09,5.53-4.13,7.69-3.49,3.29,1,1.42,8,6.76,12.81,1.61,1.45,3.33,2.2,6.29,3.5a39,39,0,0,0,8.16,2.56c7.68,1.46,9-1.09,15.84.23,5.71,1.11,5.86,3.09,9.32,2.8,3-.25,5.45-1.92,12.12-9.79,8-9.4,12-14.1,13.05-17.94,2.2-7.77-.78-11.34,3-18.17,1.84-3.31,2.71-2.78,6.29-7.23,2.94-3.65,9.5-11.78,9.78-22.37.14-4.93-1.13-8.76-2.79-13.74a67.17,67.17,0,0,0-5.83-12.59c-2.35-4.15-4.27-7.52-7.22-10.72-5.54-6-9-5.21-15.85-10-7.53-5.31-11.34-12-16.07-20.27-4-7-3.23-7.79-8.63-18.87-7.21-14.83-8.44-13.08-11.18-20.51-3.89-10.53-.8-12.33-4.19-33.78-1.12-7-3.07-17.09-3.73-20.51-2.64-13.57-3.85-18.1-1.4-23.53,2.75-6.1,8.24-9.14,10.25-10.26,7.77-4.3,11.87-1.47,23.54-4,8.25-1.76,5.82-3.09,21-8.15,4.34-1.45,10.66-3.07,23.3-6.3,6.93-1.76,9.1-2.24,12.35-2.33,4.51-.12,7.54.6,15.84,2.57,12,2.84,14.62,3.15,17.71,4.19,5.37,1.81,5.36,2.36,8.86,3.5,7.06,2.29,13.5,1.71,26.1.46,12.31-1.22,18.54-1.89,22.37-5.12s4.37-6.43,8.15-7.23c4.35-.91,5.78,2.8,13.75,4.43,2.33.48,10,2,13.75-1.86,1.6-1.64.73-2.41,2.33-4.2,3.56-4,10.69-3.32,16.31-2.79a56.37,56.37,0,0,1,6.06.93c4.17.83,5.31,1.45,8.15,2.09,5,1.14,5.15.08,12.35.94,5.74.68,5.81,1.37,10.49,1.63a47.26,47.26,0,0,0,9.55-.47c5.26-.69,7.89-1,9.32-2.79,1.74-2.15.41-4,1.4-7.93,1.06-4.21,3.78-6.82,7.46-10.25,5.09-4.75,6.44-4.05,12.35-8.62a65,65,0,0,0,14-14.21c3.44-4.91,4.29-7.79,8.15-9.56,2.92-1.34,6.11-1.37,8.62-1.4,5.78-.06,6.12,1.46,9.32.94,5.79-1,9.53-6.66,11.89-10.26a31.86,31.86,0,0,0,4-8.62c1.2-4.19.94-6.65,1.16-14,.26-8.54-.86-10.05.7-12.58,2.19-3.54,5-2.47,7-6.06,2.9-5.11-.06-12-.23-12.35-1.85-4.14-4.32-4.71-4-7s3.27-2.65,7.22-6.76a23,23,0,0,0,4-5.36c3.31-6.53-.71-10.2,2.1-15.61,1.71-3.29,4.77-5,9.32-7.46,5.41-3,7.18-2.12,10.26-5.12,1.82-1.78,2.92-3.76,5.12-7.69,1.68-3,2.34-4.68,3-6.06,3.69-7.35,12.49-14.46,16.78-12.58,3.31,1.45,2.46,7.63,5.36,8.15,2.11.38,2.94-2.83,6.52-4.19,1.63-.62,4.55-1.13,13.52,3a88.22,88.22,0,0,1,12.35,7c14.24,9.7,15.18,13.67,20,13.28,2-.16,5.77-2.83,13.28-8.16,4.75-3.37,5.38-4.25,5.82-5.12,2.88-5.74-2.4-11.43.24-14.22,2-2.06,6.62-.8,10.48.24,5.77,1.55,6,3.4,10.49,4a22,22,0,0,0,10.48-1.63c2.41-.86,5.41-1.93,7.69-4.2,2.46-2.44,3.23-5.43,4-15.38,1-13.8,1.53-20.71.24-25.16-1.89-6.5-4.56-9-3.5-14,.94-4.44,3.4-4.31,5.36-9.09,3.46-8.41-2.61-12.55.47-20.74,2.4-6.39,6.89-6,7.92-11.88.81-4.64-1.78-6-3.26-13.75a47.39,47.39,0,0,1,0-16.31c1.08-8,3-9.42,5.59-18.41,4.57-15.82.63-18.43,5.59-31.46,2.68-7,4.12-7,6.76-14.91,2.17-6.47,1.67-7.88,4-19.34a184.31,184.31,0,0,1,7.69-27c2.93-7.93,4.53-10.44,7.22-12.35,5.12-3.62,11.88-3.44,14.22-3.26a24.3,24.3,0,0,1,5.82,1.16c8.91,3.05,9.56,9.5,18.64,13.28a39.53,39.53,0,0,0,6.3,1.87c5.91,1.44,8.86,2.16,11.88,1.63,5.53-1,5.14-4.87,12.12-7.69,2.16-.88,6.86-2.78,12.11-1.16,4.29,1.31,9.59,5.16,10,10,.49,5.41-5.46,7.56-4.66,13.75.06.44.62,4.35,3.5,6.06,2.62,1.56,5.41.25,8.85-.46,11.18-2.33,21.35,3.3,24.24,4.89,4.66,2.57,7,3.86,8.62,6.76,4.06,7.21-2.12,13.71-1.63,29.59.17,5.71,1,4.21,1.39,11.42,1.07,17.26-3.73,20.37-.46,28,1.52,3.53,5.36,7.32,13,14.91a64.9,64.9,0,0,1,7,7.69c3.08,4.08,4,6.49,5.59,9.09,7.54,12.43,23.14,18.24,24.23,18.64a40.39,40.39,0,0,1,10.26,4.89c3.71,2.53,3.32,3.28,5.12,4,7,2.67,13.7-8.24,19.81-6.05,3.09,1.1,4.27,4.94,6.29,11.88,2.53,8.68,2.43,14.22,3,19.11,1.63,13.23,8.6,22.8,12.35,28,1.85,2.54,8.85,9.39,22.83,23.07A121.26,121.26,0,0,1,2206,266c4,5.19,5.72,8.08,6.06,11.88.22,2.51-.24,4.51-.93,7.46-1.7,7.25-3.86,7.82-3.73,10.72.33,7.18,13.85,8.63,14.45,15.38.34,3.9-3.85,7.11-8.86,10.95-9.53,7.3-23.29,12.67-26.1,9.09-.67-.87-.14-1.51,2.33-11.66,1.93-7.92,2.2-9.95,2.33-11.18.56-5-.17-5.25.47-9.55.87-5.88,2.31-6.09,2.56-10.26.27-4.41-.91-11.34-4.66-12.35-2.19-.58-5,.94-6.29,3-1.39,2.28-.32,4.19.23,10.26.52,5.63.77,8.44-.46,10.95-2.46,5-8.54,6.27-10,6.52s-5.34.92-8.16-1.4c-1.19-1-2.29-2.58-1.86-3.26.6-1,3.49,1.16,5.82,0,2.79-1.38,3.09-6.63,2.34-10-.2-.87-1.14-5.07-3.27-5.36s-4.4,3.31-5.36,5.36c-1.32,2.85-.76,4.27-2.33,5.59-.62.53-2,.83-4.66,1.4a32.37,32.37,0,0,1-5.59.93c-3.5.15-4.11-.71-5.13,0-1.93,1.36-.07,4.75-2.33,7.23a5,5,0,0,1-4.66,1.63c-2.33-.65-2-3.56-4.66-5.13s-6-.43-6.52-.23c-4.27,1.47-6.06,6-7.69,10.25-3.35,8.78-3.87,19.13-.93,20.27,1.21.48,2.34-.89,4.66-.23,1.48.43,3.35,1.65,3.26,2.8s-2.28,1.7-9.32,4.19c-3.88,1.38-5.84,2.08-6.52,2.57-2.84,2-4.05,4.84-6.3,10.25-2.16,5.2-1.78,6.17-3.49,8.15-2.68,3.1-7.47,5.18-9.32,3.73-1.7-1.32-.92-5.57.46-13.05.64-3.44,1.17-5.14.47-5.59-1.23-.79-5.06,3.1-7.46,5.59-10.56,11-10.33,15.56-17.71,20.51-4.7,3.15-6.64,2.51-8.15,5.36-1.34,2.52-.76,7,.46,15.84.61,4.39,1,6.33,0,8.86-.24.6-1.68,4.19-5.12,5.59S2048.88,408.34,2046.84,410Z"/><path d="M2082.49,379.89c-1.53.72-3.4,2.58-3,4.9.27,1.64,1.65,3.44,3.5,3.49,2.41.07,3.59-2.89,3.73-3.26.66-1.73.65-4.44-.93-5.36C2084.52,378.94,2082.94,379.68,2082.49,379.89Z"/><path d="M1168.84,1661.87c-2.09-.31-4.65,2.86-5.59,5.9s.32,6.8,3,14c2.35,6.42,3,6.67,3.42,6.68,2.08.06,4.21-6.83,4.5-12.27a23,23,0,0,0-2.48-11.19C1170.23,1662.25,1169.32,1661.93,1168.84,1661.87Z"/><path d="M535.5,2354.08c-1.65.22-2.86,3.45-2.48,6.05.27,1.86,1.51,4.5,3.26,4.51s3.06-2.39,3.26-4.35C539.86,2357.19,537.32,2353.83,535.5,2354.08Z"/><path d="M509.1,2418.08c-2.3.51-4,3.39-4,6.06,0,2.17,1,4.86,3.1,5.74,4,1.69,10.26-3.88,9.48-7.45-.56-2.56-4.72-4-7-4.35A4,4,0,0,0,509.1,2418.08Z"/><path d="M470.1,2405.18a3,3,0,0,0-1.55,3.11c.66,2.71,7.19,3.66,8.08,2.18.55-.93-1-2.86-2-3.73C474.09,2406.27,471.9,2404.32,470.1,2405.18Z"/><path d="M487,2399.59c-.88-.11-2.58,2.32-1.71,3.57a1.93,1.93,0,0,0,2.48.47C488.91,2402.76,488,2399.71,487,2399.59Z"/><path d="M492.47,2397.88c-.26.48.36,1.27.47,1.4,1.84,2.31,7.24,1,7.3.16C500.31,2398.44,493.21,2396.56,492.47,2397.88Z"/><path d="M507.54,2395.55c-1.15.57-1.71,4,.16,5.13,1.5.92,3.84,0,4.19-1.24C512.4,2397.7,508.93,2394.87,507.54,2395.55Z"/><path d="M524.94,2396.33c-1.16,1.12-1.5,3.24-.78,3.88s2.36-.82,6.06-1.08a10.41,10.41,0,0,1,3.27.15,23.12,23.12,0,0,1,4.81,2.18h0c1.48,3-1.46-3.42-2.64-4.35-.77-.61-1.66-.78-3.42-1.09C528.67,2395.38,526.35,2395,524.94,2396.33Z"/><path d="M545.76,2401.61c-.54.68,1,3.32,3.41,4.51s5.54.84,5.75,0C555.3,2404.61,546.72,2400.39,545.76,2401.61Z"/><path d="M369.13,2376c-2.62.83-4,2.09-9.63,7.77-8.57,8.7-10.56,11.17-12.43,13.67-2.8,3.74-6,8-5,9.32,1.52,1.83,10.83-3.62,11.81-4.2,1.93-1.13,6.33-3.86,16-13.67,9.39-9.52,9.39-11.15,9-12C377.93,2374.82,372.81,2374.82,369.13,2376Z"/><path d="M343.34,2377.69c-1.49-.58-5.79,4.88-4.81,6.37.55.84,2.92.63,4.35-.62C345,2381.6,344.36,2378.08,343.34,2377.69Z"/><path d="M323.62,2348.48c-3.74-.48-7.47,2.39-9.17,5.6-2.4,4.51-1.11,10.3.31,10.56s1.62-4.71,6.53-8.86c3.33-2.8,6.47-3.27,6.36-4.81C327.57,2349.7,325.32,2348.71,323.62,2348.48Z"/><path d="M273.91,2337.92c-2.28.19-2.29,3.15-5.6,6.21-3.81,3.53-7.12,2.69-7.92,5.29-.64,2.08.81,4.84,2.8,5.9,3,1.58,6.65-.93,9.63-3,2-1.38,4.26-2.95,5.28-5.91.35-1,1.24-3.58-.16-5.9C277.24,2339.38,275.66,2337.77,273.91,2337.92Z"/><path d="M163.3,2329.69c-2-.7-4.24,2.37-11.8,10.72-6.51,7.17-7.94,8.3-7.46,9.78,1.05,3.23,10,4.78,14,1.25,2.37-2.12.71-4,3.88-9.79,2-3.6,3.8-5,3.58-7.77C165.37,2332.64,164.83,2330.22,163.3,2329.69Z"/><path d="M171.38,2361.69c-2.83,1.58-7.45,5.27-6.53,8.08a3.44,3.44,0,0,0,3.11,2.17c1.93,0,2.21-2.32,4.66-3.57,3.35-1.71,6.25.81,7.46-.62s-.38-6.53-3.57-7.46C174.78,2359.79,173.23,2360.65,171.38,2361.69Z"/><path d="M147.92,2284.79c1.18,3,6.41,2.2,7.46,5.13.79,2.23-1.46,4.84-1.71,5.13-3.55,4-10.53,2.82-15.22,2-3.75-.65-6.7-1.2-8.24-3.58-1.26-2-.28-3.19-1.71-5.9-1.65-3.16-3.73-2.91-5-5.44a9,9,0,0,1,1.56-9.47c2.6-2.64,5.37-.66,13.82-1.87,4.5-.64,4.44-1.3,15.07-3.57,5.52-1.18,6.93-1.3,8.7-.78,3.92,1.15,8.57,5.11,7.92,9.48-.57,3.84-5,6.65-8.85,6.83-5.6.27-8.54-5.21-11.65-3.72A5,5,0,0,0,147.92,2284.79Z"/><path d="M203.85,2014.18c-6.19,2.68-10.67,9.55-9.17,12.28,1.27,2.3,5.76-.2,12.74,2.79,4,1.7,3.59,3,9,5.6,4.21,2,7.9,3.75,11,2.17a7.72,7.72,0,0,0,3.57-4.66c1.68-6.16-5.16-12.38-6.68-13.67C223.83,2018.24,213.77,2009.9,203.85,2014.18Z"/><path d="M268.16,1966c-1.05,1.25,1.76,5.18,3.73,7.92,2.22,3.11,4.46,6.23,5.74,5.75s1.35-5-.15-8.24a9.85,9.85,0,0,0-4-4.5C271.93,1966.11,269,1965,268.16,1966Z"/><path d="M332.63,1566c-3-.77-9.82,7.83-7.62,11.49,1.53,2.54,7.62,3.11,9.95.31,1.91-2.29.6-6-.16-8.23C334.12,1567.63,333.65,1566.28,332.63,1566Z"/><path d="M245.94,1534.48c-4.91,2.63-2.08,8.87-6.83,14.45-4.91,5.77-12.6,4.61-12.89,7.77-.32,3.39,8.48,5.17,8.38,9.47,0,2.32-2.62,2.81-6.83,7.77-.44.52-6.37,7.58-5,9.32,1.14,1.43,6.71-1.28,8.23-2a39.77,39.77,0,0,0,10.1-7.3c6.55-6.07,9.82-9.1,10.56-11.18,2.46-6.92-1.15-14.54,1.56-19.11.74-1.26,1.33-2.6,2-3.88,1.21-2.27,1.69-3,1.4-3.89-.38-1.13-1.88-1.57-3-1.86C253.09,1533.85,249.09,1532.8,245.94,1534.48Z"/><path d="M175.42,1571.61c-3.38-.69-7.22,3.07-6.84,6.84.26,2.55,2.48,5.25,5.44,5.28s5.32-2.85,5.59-5.59C179.9,1575.22,178,1572.14,175.42,1571.61Z"/><path d="M203.07,1597.86c-2.37.06-4.64,4-4.35,7.3.42,4.88,6.28,8.63,8.54,7.46,1.92-1,1.45-5.61.78-8.08C207.49,1602.52,205.7,1597.8,203.07,1597.86Z"/><path d="M140.16,1602.83c-1.49-.11-3.56,3-3.27,5.75.48,4.51,7.27,7.39,8.55,6.22.65-.6-.5-3.15-2.8-8.24C141.24,1603.45,140.75,1602.88,140.16,1602.83Z"/><path d="M155.53,1549.24c-4,1-13.23,3.26-13.36,6.37-.09,2.22,4.44,4.54,8.08,5.28,5.2,1.06,6.72-1.48,10.72-.31,5.71,1.68,6.37,8,9.63,7.61s5-6.28,5.44-9.47c.35-2.32,1-6.75-1.55-9.32s-7.56-2-14.14-1.09A48.82,48.82,0,0,0,155.53,1549.24Z"/><path d="M16.81,1433.67c2.92-.92,7,2.22,7.3,5.59.46,4.45-5.61,8.56-8.54,7.3-2.22-1-2.74-5-2.18-7.77C13.56,1438,14.28,1434.46,16.81,1433.67Z"/><path d="M4.23,1435.84c-1,.55-3.12,1.64-3.88.93-1.15-1.06.63-6.17,4.19-9.47s6.07-2,10.25-5.91c2.44-2.28,3.28-4.32,4.51-4s2.33,2.91,1.71,5c-.93,3.1-4.78,2-9.32,6.05C8.43,1431.27,8.27,1433.71,4.23,1435.84Z"/><path d="M28.62,1391c-2.78.1-5,4.29-5,7.76.11,5.16,5.38,9.69,7.76,8.86,1-.35,1.38-1.63,2-3.89s1.64-5.74-.15-9C33.05,1394.25,31.18,1390.85,28.62,1391Z"/></g></g></svg>