<svg xmlns="http://www.w3.org/2000/svg" viewBox="0 0 1825.58 1276.69"><g id="Layer_2" data-name="Layer 2"><g id="United_States_of_America" data-name="United States of America"><path d="M1824.77,802.92c-.31-2,0-2.32-.51-2.83-1-1.06-2.5,0-3.72-1-.36-.29-.66-.73-1.09-4.19-.44-3.65-.25-4.34-1-5.2a4.52,4.52,0,0,0-3.22-1.44,4.19,4.19,0,0,0-1.16.16q0-15.42,0-30.85l-6-5.86a7,7,0,0,0-2.56.43,13.14,13.14,0,0,0-2.09,1.2,23.15,23.15,0,0,1-4.7,1.44c-1.62.41-2,.45-2.33.23-.68-.43-.78-1.5-.89-2.64-.17-1.84.28-2.37-.19-3a2.36,2.36,0,0,0-3.11-.11,1.94,1.94,0,0,0-.54.93l-11.1,16.26c-.06,1.82-.13,3.64-.19,5.47-1.31,1.52-2.61,3-3.92,4.58a5.73,5.73,0,0,1,0,3.8c-.29.73-.84,1.55-.5,2s1,.25,1,.58-.18.34-.62,1l-.39.66c-.81,1.42-.7,3-1.66,3.61-.64.42-.91-.09-1.83.38a4.46,4.46,0,0,0-1.67,1.9c-.42.76-.32.9-.73,1.67-.62,1.14-1,1.14-1.4,1.87-1,1.73.22,3.58-.43,3.91-.42.22-1.27-.41-1.63-.73-.54-.5-.7-1-1-1s-.18.65-.62,1-.7.09-1.86,0a5.39,5.39,0,0,0-1.67-.08c-.36.1-.84.36-1.74,1.9-.78,1.32-.65,1.9-1.44,3.07a8,8,0,0,1-.93,1.12l-51.1.12a40.26,40.26,0,0,0-5.71,3.53c-1.47,1.09-2.52,2-3,2.41a41.49,41.49,0,0,0-3.92,4.11c-2.42,2.79-4.45,2.73-7.6,5.9-.67.67-1.5,1.58-1.32,2.52s1.27,1.13,1.78,2.33c.17.38.24.79-.23,3.26-.66,3.45-1.1,4.23-.62,5.43.3.74.66.92.54,1.36-.23.89-1.92.67-3.8,1.63s-1.73,1.91-3.53,3.26a11.5,11.5,0,0,1-5.05,1.94c-2.74.56-4.81.31-8.8-.2-1.15-.14-.68-.11-7.38-1.2a33.44,33.44,0,0,0-5.85-.66,16,16,0,0,0-5.67,1c-1.82.68-2.09,1.19-2.17,1.36-.41.85.11,1.57,1,4.73a10.89,10.89,0,0,1,.54,2.68,7.12,7.12,0,0,1-1.09,3.57c-1.42,2.43-3.69,3.74-5.86,5-1.29.76-7.42,4.33-10.16,6-5,3-4.52,3.09-6.75,4.11-3.11,1.42-4,1.22-9,3.3a24.55,24.55,0,0,0-5.43,2.68c-2.14,1.65-2.52,2.9-4.5,3.45-1.5.42-2-.11-4,.31a15.83,15.83,0,0,0-3.8,1.55c-2.76,1.17-5.53.35-9.31-.77-2.63-.78-7.77-2.31-8-4.85a7.47,7.47,0,0,1,.82-2.45,41.41,41.41,0,0,1,1.9-3.8c1.3-2.58.62-2.72,1.78-5.2,1.36-2.89,2.11-2.32,3.3-5.12.59-1.38.87-2.6,1.87-2.91.81-.26,1.27.35,2,.12,1-.32,1.14-1.79,1.67-4.51,1-5.08,1.44-5.27,1.24-7.06a21.93,21.93,0,0,0-1-4,33.19,33.19,0,0,1-1.36-4.35c-.3-1.64,0-1.71-.35-3.61-.36-2.21-.54-3.32-1.4-4.23a5.45,5.45,0,0,0-4.07-1.43c-1,0-1.38.26-4.74,1.86-3.88,1.85-4.27,2-4.77,2.68-1.2,1.7-.66,3.45-1.63,3.76-.71.23-1.67-.58-2.13-1.32-1.33-2.12.52-5.18.7-5.47,1.28-2.07,2.34-1.56,4-3.57,1.84-2.22,2.21-4.87,2.52-7.14a48.32,48.32,0,0,0,.16-5.2c.12-5.49.21-5.62.08-6.87-.33-3.05-.55-5.18-2.14-6.75-.71-.71-1.21-.81-6.09-2.52-2.94-1-4.41-1.55-4.58-1.63-4.59-2.29-5.45-5.61-8.34-5.43a5.15,5.15,0,0,0-2.17.73c-1.29.71-3.14,2.3-2.87,3.69.11.61.54.66,1.24,2.13.31.67.47,1,.42,1.25-.16.94-1.77.77-3.64,2.13a7.7,7.7,0,0,0-2.49,2.95c-.29.66-.23.81-.66,1.74-.7,1.53-1,1.43-1.35,2.41-.45,1.31,0,1.88-.66,2.83-.09.12-.61.89-1,.78s-.62-1.63-.74-3.11c-.08-1,0-1.24-.23-1.35-.44-.26-1.26.66-3.18,2.17s-2.08,1.33-2.8,2.1a9.57,9.57,0,0,0-2,3.95c-.79,2.63-.47,3.67-.85,6.09-.48,3.09-1.29,3.23-2.37,6.83a26.87,26.87,0,0,0-1.2,8.81c.24,4.14,1.7,4.81,3,9.39a31,31,0,0,1,.35,14.09,24.3,24.3,0,0,1-5.2,12.07,15.24,15.24,0,0,1-7.8,5.16c-1.44.33-2.61.61-3.84.07-2.14-.93-1.92-3.25-4.31-8.92-2-4.68-2.9-5-2.75-7.06.12-1.84.92-2.75,1-5.71a17.12,17.12,0,0,0-.24-3.41,18.12,18.12,0,0,0-1.62-4.63,4.93,4.93,0,0,1-.36-1.89c0-1.1.33-1,1.56-4.19a74.89,74.89,0,0,0,2.44-8c.59-2.17.62-2.52,1.24-5,1.15-4.54,2.18-7.9,3.18-11.18a71.61,71.61,0,0,1,3.07-8.92c1.79-3.77,3.47-5.75,3.18-6s-5.17,2.94-8.11,7.88a15,15,0,0,1-4,4.54c-.94.7-2,1.46-2.56,1.13-1-.59-.79-4.51,1.36-6.56,1.59-1.51,2.79-.65,4.11-2.17s.45-3.11,2.14-5.55c.89-1.3,1.18-.9,2.17-2.29,1.75-2.45.92-3.74,2.45-5.28,1.29-1.31,2.18-.67,3.37-2.13s.89-2.65,1.75-2.91c1.06-.33,1.75,1.49,3.3,1.43,1.06,0,1.21-.91,3.37-2.48,1.56-1.14,2.63-1.91,4-1.9s1.46.68,2.83.62c.5,0,1-.14,3.14-1.24,2.86-1.46,2.74-1.63,3.42-1.71,1.13-.13,1.22.37,4.07,1,2.06.46,2.07.21,2.68.58,1.57.94,1.66,2.63,2.87,2.75a1.76,1.76,0,0,0,1.2-.38c.81-.68.38-1.79,1-2.22.47-.3,1,.07,2.14.39a21.89,21.89,0,0,0,3.88.35c3.19.17,3.63,0,4-.19a2.73,2.73,0,0,0,1.51-2.33c-.15-1-1.42-.93-2.45-2.29s-1-3.27-1-4.81c0-2,.48-2.58,0-3-.63-.64-1.93.23-5.16,1s-5.15.6-6.59,0c-.43-.17-1.47-.62-1.56-1.36,0-.43.26-.66.74-1.55s.94-1.73.74-2.17c-.34-.74-2.56-.39-4.66,0-9.75,1.64-10.13,2.33-12.88,2.06a5.5,5.5,0,0,0-3,.11c-1.14.49-1.46,1.31-4,3.46a3.75,3.75,0,0,1-1.56.89,4.06,4.06,0,0,1-2.25-.19c-2.27-.71-2.64,0-4.69-.55a11.49,11.49,0,0,1-5.43-3.57c-1.38-1.48-1-1.78-2.57-3.34a9.43,9.43,0,0,0-4.07-2.79,7.78,7.78,0,0,0-3.88-.19c-2.21.47-3,1.72-3.8,1.28s-.86-1.84-.51-2.83c.24-.67.54-.7,1.32-1.63,1.58-1.9,1.2-2.8,2.45-3.57.63-.4.87-.26,1.94-.9a9.25,9.25,0,0,0,1.43-1c1.5-1.4,2.24-3.93,1.63-4.39-.42-.32-1.15.65-3.26,1.36s-2.5.1-3.92.7-1.35,1.23-4.11,4.42a15.17,15.17,0,0,1-3.26,3.22c-1.61,1-2.72.91-4.5,1.36-2.38.61-2.25,1.2-6.52,3.38-6.22,3.17-6.65,2-10,4.34a5.47,5.47,0,0,1-3.22,1.4c-1.75,0-2.36-1.29-4.07-1.09-1.48.18-2.21,1.27-2.76.89s-.22-1.7-.19-1.82c.31-1.27,1.15-1.4,1.32-2.48a2.3,2.3,0,0,0-.66-2.06c-.51-.4-1-.23-2.87,0-2.88.36-3.25.16-4.58.62a21.4,21.4,0,0,0-2.14,1,44.77,44.77,0,0,1-5.86,2.56c-1.22.42-1.6.47-1.94.27-.83-.5-1-2.34-.35-3.68.87-1.89,2.75-1.75,5.47-3.81,1.39-1.05,1.47-1.5,3.34-3.53a48.4,48.4,0,0,1,7.88-6.79,51.52,51.52,0,0,1,7.88-4.5c4-2,6.4-2.64,10.32-5.16.77-.5,2.88-1.1,2.83-2,0-.48-.67-.82-1-1-1.67-.86-2.66,0-4.93-.43-1.46-.24-1.31-.63-3.22-1a15.15,15.15,0,0,0-3.49-.31c-4.08,0-5.5.84-6.44-.12-.73-.74-.27-1.64-1.16-2.25a3.07,3.07,0,0,0-2.49-.12c-1.65.54-1.42,1.65-3.18,2.56a7.3,7.3,0,0,1-4,.66,5.93,5.93,0,0,1-1.47-.27c-1.23-.4-1.56-1-2.72-1.86-1.91-1.39-2.4-.72-3.41-1.86-.76-.86-.7-1.48-1.75-2.33a2.46,2.46,0,0,0-1.59-.78c-1,0-1.86,1.18-2.29,1.79-.62.88-.72,1.46-1,1.43s-.36-.78-1-2.91c-.3-1.07-.39-1.27-.62-1.43-.81-.58-2,.28-2.41-.2s.54-1.32.16-2.21c-.3-.7-1.23-.95-2.06-1.16a4.29,4.29,0,0,0-2.25-.08c-.83.21-.83.52-1.7.74a6.68,6.68,0,0,1-2,0c-1.51-.1-1.65-.23-2.41-.24a14.22,14.22,0,0,0-2.68.47c-1.81.3-2.89.47-3.91,0s-.84-1-1.79-1.75c-1.24-1-2.2-.72-5.7-1.32-2.71-.45-4.06-.68-4.82-1.35s-.74-1.12-2.67-3.38c-.86-1-1.16-1.27-1.63-1.4a5,5,0,0,0-3.11.62c-.75.4-1.09.76-1.51.62s-.67-.92-.74-1.24-.15-.78-.26-1.39H979a10.58,10.58,0,0,0,.26,2.12c.19.87.34,1,.46,1.81a3.94,3.94,0,0,1-.1,2.43c-.1.2-.55,1.18-1.4,1.35-1,.2-1.66-1-2.38-.73s-.31,1.25-1.14,1.86-1.29.12-1.7.62-.21,1.74.2,1.87.71-.79,1.56-.83a1.9,1.9,0,0,1,1,.31,7.84,7.84,0,0,1,1.6,1.19c1.27,1,1.64.73,1.92,1.29.38.77-.32,1.26-.16,2.64.12,1.07.68,2,1,2s.12-1.6.94-2c.45-.23,1.15-.08,1.29.26.26.64-1.73,1.45-1.6,2.69a1.57,1.57,0,0,0,2.43,1.08c.82-.58.57-1.79,1-1.91s.78.52,1.24,1.19a5.35,5.35,0,0,1,1.35,3.16c0,.81-.3,2-.88,2.07-.43.08-.86-.44-.93-.52-.6-.72-.2-1.38-.62-2-.61-.92-2.47-1.08-2.85-.52-.27.41.18,1.24.62,1.71a4.32,4.32,0,0,0,1.4.83c1.06.58,2.09,1.73,1.86,2.27-.15.37-.73.16-1,.57-.4.66.83,1.55.57,2.75-.14.63-.53.54-.83,1.34a4.2,4.2,0,0,0,.05,2.59c.24,1,.48,1.05.88,2.43a3.3,3.3,0,0,1,.26,1.6,2.15,2.15,0,0,1-2.12,1.66,2,2,0,0,1-1.35-1c-.23-.38-.51-1.06,0-4,.22-1.36.34-1.59.57-3.16a13.59,13.59,0,0,0,.26-2.22c-.1-1.33-.8-1.72-2.59-4.24s-1.9-3.35-2.84-3.57-2.08.4-3-.31c-.38-.31-.4-.6-.83-.78-.63-.26-1.21.08-1.86.26a6.07,6.07,0,0,1-3-.26c-2.24-.44-2.93,0-5.38-.26a16.73,16.73,0,0,1-7.19-1.91c-2.61-1.48-3.94-3.48-5.75-3a2.59,2.59,0,0,0-1,.51,19.15,19.15,0,0,0,.41,7.14,13.55,13.55,0,0,0,2.28,5.33c1.26,1.66,2,1.61,2.54,3,.78,1.9-.34,2.46.36,4.92.51,1.81,1.28,2.1,1.39,3.88.09,1.26-.28,1.48,0,2.33s.84.78,2.75,2.69c1.1,1.1,1.53,1.77,2.53,2,.39.08.74.06.78.21s-1,.92-2.12,1.24c-.87.25-1.05.11-1.4.36a2.39,2.39,0,0,0-.42,3.06c.67.73,1.78.07,2.49.88a2.66,2.66,0,0,1,.36,2c-.07,1.24-.48,2.51-.78,2.49s-.07-2.33-1.29-3c-.09-.05-.43-.24-.62-.11-.38.26.27,1.41.57,2.95.51,2.6-.44,3.83.41,4.55.45.38,1.1.38,2.23.37.91,0,1-.18,2-.21a10,10,0,0,1,2.27.21c1,.16,1.91.31,1.92.56s-.12.23-1.76.73a14.83,14.83,0,0,0-2.54.78c-1,.5-1.17,1-1.76.93s-.95-.79-1.19-.68.23,1.36,0,2.85c-.13,1.1-.52,1.2-.82,2.28-.47,1.64.13,2.48.46,5.38.07.63.1,1.56.16,3.41a46.49,46.49,0,0,1-.21,8.59c-.25,1.71-.41,1.73-.83,3.83a56.93,56.93,0,0,0-.88,9.16c0,1-.32,6.17-.82,12-1,11.81-1.24,6-1.3,8.33,0,.92,0,3.26-1.34,4.19a4.4,4.4,0,0,0-1,.83,4.22,4.22,0,0,0-.93,1.91c-.52,2.27.62,3.06.11,4.76-.46,1.48-1.41,1.14-1.71,2.48s.37,2.75,1.6,5.33a5.33,5.33,0,0,1,.62,1.66c.17,1.14-.26,1.68-.31,3a9,9,0,0,0,.36,2.38,14.76,14.76,0,0,0,1.45,4.19c.84,1.51,1.24,1.44,1.35,2.27.19,1.46-1,2-.62,3.37.12.47.27.42,1.24,2,.47.76.88,1.47,1,1.76a9.34,9.34,0,0,1-.05,7.61,5.88,5.88,0,0,0-.83,2.22c-.08,1.21.45,1.79.68,2.8.25,1.16-.23,2.32-1.19,4.6-1.39,3.27-2.13,3.67-2.75,6.11-.53,2.09-.28,3-.1,3.41a9.42,9.42,0,0,0,2,2.43c1,1,1.18,1.13,2.22,2.17a20.66,20.66,0,0,1,2.59,2.85,11.09,11.09,0,0,1,1.5,3,11.32,11.32,0,0,1,.52,3.47c0,2.12-.55,2.11-.52,3.82a17.53,17.53,0,0,0,1.14,4.76c.5,1.59.79,2.19.57,3.11s-.71,1.34-.47,1.86.78.4,1.5.72c1.12.52,1.34,1.39,2.49,3,.87,1.23.83.84,2.27,2.63,2.34,2.91,2,3.37,3.37,4.4s2.22,1.09,2.32,1.92-.65,1.08-.72,2.17a2.91,2.91,0,0,0,.67,2c1.3,1.43,3.72.22,4.66,1.55.5.72.11,1.53.62,1.81A1.87,1.87,0,0,0,983,947c.32-.64-.12-1,.16-1.92,0-.08.42-1.39,1.19-1.5s1,.94,2,.88c.22,0,.19-.07,1-.41a4.81,4.81,0,0,1,1.81-.57c.54,0,1.29.22,1.34.57s-.8.93-1.55,1.14-.87,0-1.91,0a3.64,3.64,0,0,0-2.64.83,2,2,0,0,0-.52,1.34c0,1,1,1.38,3.1,3.37,1.26,1.16,1.67,1.7,1.76,2.43s-.06,1.47-.46,1.6-.85-.64-2.43-2.12c-1-1-1.1-.85-2-1.71-1.29-1.27-1.86-2.21-2-2.12s.37,1,.62,2.33a22.32,22.32,0,0,1,0,2.69,11.19,11.19,0,0,0,1,2.84c1,2.73.55,3.19,1.51,4.93a6.5,6.5,0,0,0,1.83,2.25,6.94,6.94,0,0,0,2.67,1.17c1.17.25,1.29,0,1.94.27a3.19,3.19,0,0,1,1.91,2.95,5.6,5.6,0,0,1-1.13,2.05c-1,1.45-1.14,1.32-1.36,1.83-.66,1.53.36,3.39,1.24,5A15.32,15.32,0,0,0,994,979.9c1.66,1.87,2.08,1.53,3.11,2.83,1.41,1.79.79,2.67,2.48,5.4a8.42,8.42,0,0,0,1.9,2.4c1.07.85,1.79.86,3.92,2.14,1,.59,1.5.9,1.71,1.28.74,1.35-.56,2.55.19,3.64.39.57.85.41,2.37,1.56.39.29.69.55.89.73l.51,10.44a3.93,3.93,0,0,0,2,2.1,5,5,0,0,0,2,.23,5.13,5.13,0,0,0,2.22-.35c.72-.32.7-.56,1.16-.66.82-.17,1.32.52,2.48,1.16a6.27,6.27,0,0,0,3.92.94c1.39-.25,1.73-1.14,2.6-.9s.58.88,1.63,1.79c1.21,1,2.05.68,2.76,1.71.46.66.2.95.7,1.47s1,.52,2.25.85,1.35.47,2.29.7c3.36.85,4.58-.28,5.93.82a5.07,5.07,0,0,1,1.4,2.36c.42,1.35.07,1.91.58,2.41.72.69,1.69-.13,3.38.39.94.29.79.59,2.44,1.59,1.83,1.1,2.31.91,3.42,1.74s.76,1,2.17,2.72c1.85,2.25,2.63,2.31,4.07,4.42a7.55,7.55,0,0,1,1.21,2.18c.59,2.08-.58,2.9-.12,5.12a5.51,5.51,0,0,0,1.86,3.18,5,5,0,0,0,2.14,1,11,11,0,0,0,5.62-.39c1.71-.46.88,0,8.38-.58,5-.4,5.89-.65,11.22-1.16,2.33-.23,5.81-.53,10.13-.78a4.43,4.43,0,0,0-1.17,2c0,.15-.46,1.85.2,2.21.11.06.37.15.89-.12l55.06,20.18,43.69-.23v-7.8l25.73,0a11.26,11.26,0,0,0,2.52,1.9,2.3,2.3,0,0,1,1,.82,4.06,4.06,0,0,1,.35,1,11,11,0,0,0,.42,1.31,2.89,2.89,0,0,0,1.25,1c.7.38.8.24,1.47.63a8.63,8.63,0,0,1,1.13.81c.37.29.67.55.89.74,1,1.07,1.76,2,2.29,2.6a23.51,23.51,0,0,0,1.55,1.78,18.66,18.66,0,0,0,2.56,1.94c2.66,2,2.27,2.65,4,3.46.75.34,1.3.43,2.71,1.12a5.85,5.85,0,0,1,1.71,1c.77.8.43,1.25,1.2,2.68.67,1.22,1.14,1.31,1.67,2.6a7.78,7.78,0,0,1,.43,1.43c.67,3.11,1,5.25,1.55,7.34a11.57,11.57,0,0,0,.89,2.87c1.16,1.64,2.55,1.25,4.66,3.18,1.24,1.13,1.06,1.54,2.25,2.33a13.71,13.71,0,0,0,3.22,1.28,26.23,26.23,0,0,1,3.57,1.39,25.24,25.24,0,0,1,4.19,3.15,5,5,0,0,0,1.9,1.2,3.35,3.35,0,0,0,2.21,0c.53-.2.77-.49,1.79-1.63,1.58-1.77,1.5-1.6,1.78-2,1.35-1.77,1.12-3.12,2.8-7.88.34-1,.54-1.44,1-1.74,1.24-.73,2.78.57,3.8-.27.46-.39.37-.84,1.08-1.32a2.44,2.44,0,0,1,1.21-.43,2.72,2.72,0,0,1,1.7.62c.79.53,2.56.48,6.1.39a18.77,18.77,0,0,1,4.5.5,1.58,1.58,0,0,1,1,.66c.14.28,0,.43.11.82a3.21,3.21,0,0,0,1,1.59,8.22,8.22,0,0,0,1.13,1,13.94,13.94,0,0,0,1.2.81,19,19,0,0,1,2.87,2.25c.55.53.39.45,1.94,2.14s1.43,1.45,1.67,1.78c1.08,1.5.77,2.38,1.71,4.39.57,1.23.71.94,1.63,2.56,1.37,2.42,1.13,3.19,2.56,5.86a22.14,22.14,0,0,0,1.55,2.52c1.68,2.35,2.35,2.31,3.45,4.15s.75,2.37,1.79,3.22c.48.4.5.23,2.64,1.48a7.92,7.92,0,0,1,1.94,1.39,4.3,4.3,0,0,1,1,1.44c.51,1.27-.21,1.77.08,3.38.26,1.4.87,1.36.86,2.48s-.7,1.59-.43,2.52c.12.43.33.55,1,1.32a21.28,21.28,0,0,1,1.51,2.1,16.07,16.07,0,0,1,1.59,3.88,10.34,10.34,0,0,0,.78,2.21,5.81,5.81,0,0,0,2.44,2c2.23,1.19,3.14.89,5.4,1.75,2,.75,1.45,1,4.11,2.33s4.07,2,6,2a19.49,19.49,0,0,1,3.77.11,4.87,4.87,0,0,1,2,.59c1.11.7,1.09,1.6,2.29,2.17a2.19,2.19,0,0,0,1.52.23,2.12,2.12,0,0,0,1.36-1.55c.15-.73-.18-1.18-.66-2.45-.34-.87-.54-1.78-.82-2.67-.12-.39-.92-2.94-1.47-4.93a28.45,28.45,0,0,1-1.17-4.85c0-2.73,1.31-5.4,2.49-7.8a11.36,11.36,0,0,0,.89-2.45,11.23,11.23,0,0,0,.27-2.44,7.31,7.31,0,0,0-.31-2.48c-.53-1.57-1.64-2.43-1.48-2.6s1.34,1.1,2.45.77c.36-.1.42-.29,1.28-1.24,1.29-1.41,1.76-1.65,1.67-2-.2-.67-2.5-.37-2.56-.81,0-.29,1-.34,1.9-1.32.52-.54.82-1.13,1.12-1s.23.5.55.58.31-.06.73-.31c.68-.38.69-.3,1-.5a2.9,2.9,0,0,0,.86-1c.66-1.22.28-2.42.54-2.48s.44,1.18,1.51,1.78c.54.3.88.21,1,.47.21.57-1.26,1.65-1.7,2-.9.66-1.58.92-1.52,1.12s.44.19.74.12a1.46,1.46,0,0,0,.74-.51,10.8,10.8,0,0,1,1.67-1.43c1.07-.83,1.63-.78,1.7-1.24s-.77-1.2-.69-1.29,1.09.94,1.51.7.16-1,0-1.47a5.33,5.33,0,0,0-1-1.75,11,11,0,0,1-1.4-1.82c-.28-.57-.54-1.43-.31-1.59s.79.45,2.37,1.28c.47.24.75.36,1,.27s.41-.59.89-1.05a2.23,2.23,0,0,1,2.25-.5c.57.26.52.74,1.09.89a2,2,0,0,0,1.32-.27,6.35,6.35,0,0,0,1.39-.78c1.06-.77,2.09-.61,3.84-1a13.68,13.68,0,0,0,4.2-1.74,14.26,14.26,0,0,0,3.33-3.11c1.62-1.91,1.26-2.2,2.64-3.57s2.5-1.89,2.33-2.56c-.09-.35-.47-.33-1.24-1s-1.1-1-1.13-1.51c0-.79,1-1,2.68-2.79.76-.81,1-1.24,1.24-1.17.59.17.31,2.76.27,3.26a6.14,6.14,0,0,0,.09,1.5c.16-.4.36-.59.57-.64s.77.23,2.21.27c1.76,0,2.25-.41,2.37-.54.38-.4.21-.68.58-.94.54-.37,1.1.06,2.1,0,.67-.07.62-.31,1.59-.59a15.21,15.21,0,0,1,2.06-.31,7.55,7.55,0,0,0,2.56-1.08c2.61-1.43,5.92-1.06,8.42-.78a23.72,23.72,0,0,1,3.26.62c3.59.95,4.59,2.13,8.26,2.95a7.55,7.55,0,0,0,3.22.31,29.59,29.59,0,0,1,2.95-.58,7,7,0,0,1,.74-.08c1.53.06,2,1.48,3.72,1.9.36.09,1,.24,1.28-.08s.08-1.26-.46-1.7a2.26,2.26,0,0,0-1.48-.35c-1.44-.07-2,.29-2.64-.12l-.58-.54c-1-.94-1.06-1.06-1-1.2s.42-.45,1.2-.82c.5-.23.59-.22,1.08-.46.71-.36.7-.48.9-.47.69,0,.73,1.5,1.59,1.71a4.4,4.4,0,0,0,1.43-.43c1-.39,1.14-.5,1.36-.43.43.15.42.69.93,1.9s.68,1.6,1.09,1.83c.88.48,1.61-.49,2.6,0a8.91,8.91,0,0,1,1.44,1.63c.63.79.58.78.77,1a3.35,3.35,0,0,0,2.25,1.08,3.28,3.28,0,0,0,1.48-.46c1.06-.51,1.67-1.16,1.74-1.09s-1.09,1.09-.85,1.63,2,.36,2.33.31c1.15-.15,1.11-.44,1.86-.46,1.46-.06,1.8,1,3.18,1,1.1-.06,1.43-.79,2-.58,1,.34.23,3.12,1,3.41.51.19,1.28-.75,1.39-.89a4.42,4.42,0,0,0,.39-4.85c-.53-.88-1.28-1.23-1.16-1.44s1.52.22,2.56.58,1.86.73,3,1.24a31.74,31.74,0,0,1,3.6,1.71c1.4,1.11,1.71,2.23,2.57,2.14a1.11,1.11,0,0,0,1-.86c0-.49-.67-.88-1.25-1.2-1.22-.69-1.8-.49-2.79-1.24a4.21,4.21,0,0,1-.7-.66,3.83,3.83,0,0,1-1.08-2.48c.08-1.43,1.62-2.44,2.28-2.88.88-.57,1.3-.54,1.87-1.2a2.81,2.81,0,0,0,.77-2c0-1-.72-2.06-1.28-2-.84.07-.86,2.7-1.9,2.84-.46.06-.58-.44-1.63-1-1.23-.62-1.93-.38-2.09-.78-.07-.17-.12-.65,2.4-2.68a18,18,0,0,1,3.73-2.6c1.88-.85,1.88-.2,4.65-1.12,2.17-.72,3.06-1.42,4.47-1,.85.22.77.55,1.66.7,1.47.24,2.52-.49,3.3.15.23.19.32.4.58.43s.57-.22,1.13-.7a6.21,6.21,0,0,1,1.09-.85c1.07-.4,2.1,1.39,2.87,1.09.61-.25.31-1.57,1-4.39.47-1.93.79-2,.93-2.06.38,0,.72.85.89,1.28.58,1.51.15,2.13.66,3.34a5.39,5.39,0,0,0,1.32,1.75c1,1,1.74,1.78,2.52,1.67,1.09-.16,1-1.79,2.48-2.22a12.56,12.56,0,0,1,2,0c1.81,0,2-.13,2.1-.27.48-.63-.65-1.79-.12-2.52.3-.42.94-.42,1.24-.43.56,0,1.22.44,2.53,1.32.34.23.45.33.46.47,0,.62-2.18,1-2.13,1.28s2.38-.52,5.47-.08c.94.14,2,.39,2.56-.19.41-.43.22-.93.62-1.36s1.35-.38,2.75-.19a6,6,0,0,1,1.75.34c1.14.61,1,1.6,2.37,2.68a9.19,9.19,0,0,0,1.24.74,29.13,29.13,0,0,0,2.79,1.24,20.56,20.56,0,0,1,3.07,2.56c2.1,1.91,2.28,2.27,3.26,2.72a2.26,2.26,0,0,1,.93.58c.67.8.41,2.12.08,3.14l6.21,0c.35-.19.9-.49,1.55-.89a63.9,63.9,0,0,0,5.24-3.76,23.87,23.87,0,0,1,3.41-2.37c.31-.12,3.71-1.39,5.7.2.46.36.39.51,1.36,1.62s1.55,1.28,2.25,2.22a18.51,18.51,0,0,1,1,1.9,17.34,17.34,0,0,0,1.86,2.83A16.58,16.58,0,0,0,1578,1101a13.79,13.79,0,0,1,1.59,1.4,9.15,9.15,0,0,1,1.13,1.86,23.87,23.87,0,0,0,1.32,2.33c1.36,1,3.4-.69,4.35.27a4.8,4.8,0,0,1,.46,1.4c.22.83.27,1.22.47,2.25.46,2.41.7,2.85,1,3.22s.61.42.73.77c.27.79-.57,1.43-1.16,3-.06.16-.05.15-.43,1.79-.62,2.7-.69,2.9-1,4.34s-.49,2.23-.54,2.6c-.44,3.11.16,4.17.35,4.46.07.11.79,1.24,1.43,1.09s.79-1.28.86-1.67c.3-1.81-.47-3.18-.23-3.3s.76,1.64,2.36,2.29c.58.24,1.08.23,1.4.7a1.68,1.68,0,0,1,.15,1.4c-.37,1.18-1.74,1-3.1,2.44a3.13,3.13,0,0,0-1.13,2.21c.15,1.22,1.68,1.18,2.53,2.8.64,1.23-.09,1.55.54,3.57a17.47,17.47,0,0,0,1.71,3.22c.92,1.54,1.23,1.83,1.47,1.78.45-.09.19-1.23,1-2s2.51-.9,2.91-.31c.29.42-.3.85-.46,2.25a17.37,17.37,0,0,0,.23,2.79c.1,1.62-.07,1.75.19,2.29a3.5,3.5,0,0,0,1.79,1.63c.59.23.79.1,1.09.35.55.46.36,1.33.34,2.44a8.45,8.45,0,0,0,1.48,5.16,3.45,3.45,0,0,0,1.36,1.13c1,.41,1.56,0,2.52.43a3.7,3.7,0,0,1,1.51,1.24c1.17,1.42,1.95,3.33,2.76,6.32.75,2.78.82,3.91,1.86,4.46a4.34,4.34,0,0,0,2,.24,19.58,19.58,0,0,0,4.34-.62,7.85,7.85,0,0,0,2.57-.78,3.3,3.3,0,0,0,1.24-1.09c.65-1.08-.11-1.82.35-3.45a10.74,10.74,0,0,1,1-1.9s.7-1.32,1.39-2.68c.45-.87.85-2,1.56-6.9.38-2.68.57-4,.62-4.93a31.5,31.5,0,0,0-.78-8.93,63.42,63.42,0,0,0-3-7.6c-1.86-4.37-2.49-5.56-3.84-8.89a36.13,36.13,0,0,1-2.21-5.86c-.1-.39-.24-1.08-.5-2.44-1-5.25-1-5.81-1.44-7.18-.57-2-1-2.21-2.33-5.28a75.28,75.28,0,0,1-3.14-8.69,88.06,88.06,0,0,1-2.87-10.32c-1.49-7.33-2.24-11-.82-14.82.8-2.16,1.73-3,3.46-7.57,1.32-3.46.88-3.21,1.7-4.89a34.24,34.24,0,0,1,6.44-8.42c.74-.71,2.3-2.09,2.49-3.57a1.21,1.21,0,0,1,.23-.66c.53-.68,1.65-.27,2.83-.35,1.59-.1,2.73-1.05,4.74-2.71,1.3-1.09,1-1.18,2.32-2.18,1.83-1.42,2.4-1.28,3.11-2.29,1-1.45.65-3,1.32-3.1s1.33,1.56,2.29,1.47c.8-.07,1.29-1.37,1.47-1.86a42.17,42.17,0,0,1,4.74-9.12,13.4,13.4,0,0,1,5.51-4.27,31.14,31.14,0,0,1,6.4-1.47c2.28-.28,3.22-.14,4.19-1s.49-1.46,1.86-3.57c.94-1.46,1.44-1.56,2.6-3.41a19.84,19.84,0,0,1,1.13-1.94c.92-1.13,1.88-1.44,4-2.45,3-1.41,2.34-1.39,4-2.06,2.1-.83,3.57-1.42,5.43-1.2,1.5.18,1.84.72,2.56.43,1.83-.72,2.39-5.16,1.13-5.86-1.08-.6-3.63,2.62-4,2.25-.19-.17.19-1,.62-1.59.62-.83,1.24-1,1.21-1.32-.07-.57-1.77-.5-1.9-1.09-.21-.88,3.44-2.25,3.25-2.83-.07-.24-.75-.08-1.82-.23a9.39,9.39,0,0,1-3.76-1.67c-1.24-.77-2.76-1.9-2.64-2.1s1.09.41,3.45,1.25a11.51,11.51,0,0,0,3.46.93c1.62,0,2-.75,3.06-.43,1.26.37,1.39,1.51,2.37,1.59.69,0,1.13-.49,2.25-1.59,2.91-2.86,3.76-2.91,4.73-4.77a4.26,4.26,0,0,0,.62-2.49c0-.27-.19-1.85-1.32-2.25a1.94,1.94,0,0,0-1.86.43c-.47.44-.41.88-.85,2.6-.25,1-.55,2.12-.74,2.09s-.28-1.33-.23-2.36a12.55,12.55,0,0,0,.11-2.76c-.1-.66-.16-1.1-.5-1.36-.64-.49-1.73.1-2.76.47-2.93,1.06-6,.52-6,.19,0-.16.63-.36,5.47-1.9,1.08-.34,1.88-.15,2.45-.77,1-1.06.35-2.82.81-3s.73.92,2,2.17c.25.24,1.51,1.47,1.82,1.24s-.84-2.84-1.74-4.42c-1.16-2-1.65-2.25-1.71-3.26-.08-1.34.75-1.55,1.2-3.49.18-.79.74-3.18-.58-4.58a2.86,2.86,0,0,0-2.87-.85c-1.05.39-.83,1.44-1.63,1.74-1.89.71-5-4.5-8-6.28-.19-.11-.72-.42-.66-.59s1.21-.18,2.17.12a7.6,7.6,0,0,1,3.18,2.33c1.34,1.39,1.82,2.35,2.25,2.21s.4-.87.43-1.4a3.51,3.51,0,0,0-.55-2.4c-.66-.86-1.31-.41-2.71-1.36a8.13,8.13,0,0,1-1.9-1.94c-.4-.51-1.27-1.63-1.09-1.82s2.1.77,3.57,2.36c.77.84,1.27,1.65,1.67,1.52s.16-.66.66-1.44.83-.68,1.16-1.28a2.57,2.57,0,0,0,.24-1.67c-.27-1.34-1.83-1.42-4.16-3.18a16.65,16.65,0,0,1-3.14-3.22c-1.07-1.36-2-2.95-1.86-3.07s1.31,1.11,3.68,3.53c.46.47,1,.9,1.4,1.36,1.15,1.18,1.44,1.63,1.9,1.59s.89-.73,1.21-1.36a3.9,3.9,0,0,0,.62-2.75c-.14-.48-.38-.72-1.4-1.71-1.54-1.48-2.31-2.23-2.48-2.36a11.66,11.66,0,0,0-3.61-2.37c-1.11-.37-1.82-.31-2.41-1s-.71-1.47-.43-1.71.63.08,3.19,1.55a14.36,14.36,0,0,0,2.67,1.32,6.11,6.11,0,0,0,1.71.39c.88.07,1.54.12,1.86-.23s0-1.46-1-4.15c-.64-1.76-1-2.64-1.16-3.3-.68-2.29-1.07-3.61-.82-5.24.21-1.34.64-1.48,1-3.65a4.44,4.44,0,0,0-.07-2.75c-.43-1-1-1-1-1.52.08-1,2.57-.56,4.5-2.36,1.12-1,1-1.86,2.55-3,.69-.52,1.8-1.18,2.07-.92s-.32,1.19-.94,2.21c-.51.86-1.21,1.78-1.94,2.76a3.6,3.6,0,0,0-.89,1.86,1.37,1.37,0,0,0,.27,1.09c.29.26.57.1.78.27.56.44-.47,2.36-1,4.46-.43,1.69-.68,2.52-.43,3.3.64,1.95,3.4,2.76,3.34,2.87s-2-1.3-3.61-.66c-.06,0-1,.42-1.16,1.2-.08.42.1.76.89,1.87,1.51,2.1,1.67,2,2.56,3.33.51.74.78,1.23,1,1.17.39-.13-.21-2.38.35-2.6.16-.07.34.05.82.42a11.21,11.21,0,0,1,1.86,1.59c.32.57.18.94,0,3.65-.06.7-.09,1.27-.12,1.63l2.68.47a7.45,7.45,0,0,1-.27,1.86,8.45,8.45,0,0,1-1,2.13c-.72,1.14-1.08,1.17-1.71,2.18a12.92,12.92,0,0,0-.89,2.09,15.1,15.1,0,0,0-1.2,4c-.07.88,0,2.32.38,2.4s1.42-2.09,1.52-2.33c.74-1.82.38-2.31,1.08-3a11.34,11.34,0,0,1,2.06-1.28c.59-.33.86-.45.93-.74.16-.62-.87-1-1-1.75s1.18-1.31,2.49-3a34.4,34.4,0,0,0,1.86-3.65,18.86,18.86,0,0,1,1.78-3.18c1-1.27,1.38-1.3,1.94-2.1.36-.5.88-1.47.66-5.47-.23-4.28-.35-6.52-1.86-7.41-1-.56-1.67-.11-2.37-.86-.87-.92,0-1.81-.54-3.8-.41-1.38-1.11-1.83-2.37-4.81-.12-.29-.32-.77-.19-.85s1.25,1.25,3.18,2.79a13.89,13.89,0,0,0,2.79,1.82,8.17,8.17,0,0,0,2.88,1c.79.09,1.23,0,1.47.31s-.13.81-.23,2.22a4.42,4.42,0,0,0,.19,1.9,4.37,4.37,0,0,0,.51.93,3.06,3.06,0,0,0,.5.46,1.72,1.72,0,0,1-.08-1.43c.07-.12.54-.87,1.28-2.14s1.12-1.94,2-3.45c1.28-2.24,1.93-3.37,2.1-3.57,1.27-1.52,2-1.5,3.33-3.3a5.77,5.77,0,0,0,1.21-2.09c.44-1.64-.41-2.33.11-3.65.46-1.15,1.2-.89,1.79-2.13s0-1.58.39-3.5c.32-1.45.72-1.48.81-2.64a4.12,4.12,0,0,0-.62-2.87c-1.24-1.54-4-1.06-4-1.43,0-.18.67-.28,2.45-.82a18.72,18.72,0,0,0,2-.66c1.46-.67,1.85-1.38,2.52-1.2.48.13.42.55.93.89s1.18.29,3.57-.39a29.16,29.16,0,0,1,3.88-1,16.17,16.17,0,0,1,1.86-.16c2-.13,3.68-.8,6.91-2.13,4.34-1.8,3.94-2.11,5.35-2.25,1.18-.12,2.49,0,3.26-.94.37-.43.64-1.13.39-1.47-.4-.55-2.21-.2-3.53.58-1,.6-1.2,1.14-1.9,1.13s-.89-.55-1.86-1a5.6,5.6,0,0,0-2.25-.35,17.32,17.32,0,0,0-4.47.7c-4.25,1-4.68,0-8.18,1.16-1.33.43-2.4.93-2.56.66s1.49-1.83,1.66-2a26.2,26.2,0,0,1,4.31-2.64c2-1.14,2-1.26,3-1.74a19.38,19.38,0,0,1,3.49-1.24c3.83-.93,4.73.57,8.54-.12,2.5-.45,2.27-1.13,4.93-1.48a42.47,42.47,0,0,1,5.43-.27c1.9,0,2.94.21,3.45-.46.37-.49.21-1.08,0-2.33a27.19,27.19,0,0,1-.23-4.27l3.49,0a3.88,3.88,0,0,1,.43.62c.93,1.77-.19,3.61.54,4.15.29.22.7.11,1.2,0,.89-.25,1.29-.75,2.21-1.6,2.2-2,2.47-1.52,3.61-2.91.24-.28.58-.74.82-.66s-.09,1.23.54,2a2.14,2.14,0,0,0,1.44.7,3.75,3.75,0,0,0,1.82-.39c1.73-.55,2.06.09,4-.46a4,4,0,0,0,2-1,3.45,3.45,0,0,0,.78-1.67,6.79,6.79,0,0,0-.23-4.15,5.24,5.24,0,0,0-1.94-2.6c-.09.06.45.74.85,2.05a4,4,0,0,1,.27,2.53c-.24.73-.79,1.13-1.59,1.7a4.66,4.66,0,0,1-2.83,1.28c-1.46-.08-2.43-1.63-3.18-2.83-1.71-2.72-.78-3.59-2.41-5.82a9.09,9.09,0,0,0-3.37-3.1c-1-.5-1.66-.52-1.94-1.13-.46-1,.29-2.7,1.51-3.45.9-.56,1.69-.34,3.1-1.28.58-.38.7-.59.7-.78,0-.62-1.39-.63-2.06-1.63-.51-.77-.31-1.7.08-3.49a9.63,9.63,0,0,1,1.28-3.34c.78-1.2,1.13-1,1.59-2,.61-1.27.16-1.83.62-3.26a8.3,8.3,0,0,1,1.71-2.64c1.24-1.53,1.83-1.73,3-3.38a6.93,6.93,0,0,0,1-1.55c.61-1.48.11-2.15.7-3.18.49-.87,1.59-1.7,2.4-1.48,1.13.32,1.13,2.54,1.94,2.56.27,0,.36-.23,1.21-1.12a6.24,6.24,0,0,1,1.74-1.55c1.15-.42,1.86.57,2.64.11s.47-2,1.16-2.21,1.07.9,2.14.89a3,3,0,0,0,2-1.28,7.24,7.24,0,0,0,1.36-2.56,32.81,32.81,0,0,0,1.12-4.11c.39-1.85.42-2.52,1.05-3a7.43,7.43,0,0,1,1.67-.85c.43-.19.58-.23.66-.16.23.23-.73,1.13-.59,2.29a2.38,2.38,0,0,0,.51,1.13,4.92,4.92,0,0,0,2.13,1.36c.92.42,1.08.38,1.17.35.45-.18.51-.86.77-2.25.36-1.92.54-2.88.82-2.91s1.19,1.34,1.28,2.79c0,.76-.13,1.23.23,1.67a1.28,1.28,0,0,0,1.36.42,1.23,1.23,0,0,0,.66-.73,2.2,2.2,0,0,0,0-1.59c-.35-1-.94-1.17-.89-1.75a1.28,1.28,0,0,1,1.08-1.09c.85,0,1.67,1.49,2,2.56.17.58.12.79.31.9.59.31,2.29-1,3.07-2.68.66-1.45.39-2.6.93-2.76s1,1.19,2.29,1.29a3.1,3.1,0,0,0,1.75-.63c1.11-.63,1.12-1,2.25-1.74a4.55,4.55,0,0,1,2-.82c1.07-.1,1.35.38,1.94.16,1.27-.47,1.32-3.2,1.32-3.38C1825.6,805.34,1825.13,805.21,1824.77,802.92Z"/><path d="M1618.69,1121.22c.35.14,1.54-1.07,1.51-2.41a5.15,5.15,0,0,0-1-2.13c-.47-.81-1-1.69-1.36-1.59-.18.05-.25.36-.27.46-.12.58.26,1,.54,1.63a6.27,6.27,0,0,1,.39,1.94C1618.7,1120.58,1618.47,1121.13,1618.69,1121.22Z"/><path d="M1044.72,1040.82c-.5-.44-.57-.32-.89-.66-.69-.73-.47-1.41-1-1.71-.29-.15-.73-.16-.89,0s.18.67.58,1.9c.31.95.26,1.26.62,1.56a2.18,2.18,0,0,0,1.09.34c.62.11,1.36.24,1.51,0S1044.84,1040.92,1044.72,1040.82Z"/><path d="M1026.37,1020.18c-1.17-.38-1-.43-1.44-.51a6.6,6.6,0,0,0-1.9.12c-1,.14-1.07.23-1.09.27-.09.31.84,1,1.83,1.16a3.56,3.56,0,0,0,1.39,0c.84-.14,1.86-.49,1.83-.74C1027,1020.36,1026.83,1020.32,1026.37,1020.18Z"/><path d="M1018.65,1019.63c-.61.15-1,1.13-1,1.13s1,1.41,1.47,1.24c.15,0,.2-.35.31-.93s.17-1,0-1.16A.83.83,0,0,0,1018.65,1019.63Z"/><path d="M1493,739.13a20.88,20.88,0,0,0,2-1.5c1.52-1.16,2.65-.68,3.72-2,.4-.47.34-.66.31-.72-.15-.33-1.09-.39-1.76,0-.48.28-.49.61-1,.88a2.42,2.42,0,0,1-1,.21c-2,.06-4.45,2.89-4.45,2.89a2.59,2.59,0,0,0,1.29.57A1.61,1.61,0,0,0,1493,739.13Z"/><path d="M1772.23,877.53a1.47,1.47,0,0,0-.65-.37,1.17,1.17,0,0,0-.51,0,3,3,0,0,0-1.56,1.06c-.28.39-.48.65-.38.85.17.37,1.23.28,2.3.19a3,3,0,0,1,1.16,0c.48.1.72.3.83.2s-.24-.85-.34-1A3.58,3.58,0,0,0,1772.23,877.53Z"/><path d="M868,548.66a34.91,34.91,0,0,1-.68-3.77,9.21,9.21,0,0,1,.44-4c.76-1.93,2-2.41,1.73-3.61,0-.07-.33-.63-1-1.77s-.76-1.33-1-1.48c-.42-.29-.74-.22-2.4-.24-2,0-2.25-.15-2.41-.28-.59-.5-.18-1.09-.76-2.33a5.83,5.83,0,0,0-1.81-2.08A9.52,9.52,0,0,0,858,527.8c-1.33-.6-2-.74-3.49-1.28a21.73,21.73,0,0,1-3.17-1.28c-2.84-1.61-2.6-3.38-4.57-3.77-1.31-.27-1.93.39-3.57-.17a3.13,3.13,0,0,1-1.73-1c-1.11-1.58,1-4,0-5-.64-.7-1.73.17-2.89-.68a2.83,2.83,0,0,1-1-3.09c.29-.56.87-.65,1-1.33a1.45,1.45,0,0,0-.2-1c-.46-.64-1.28-.3-2.73-.84-.76-.29-1.45-.54-1.64-1.12s.16-1.11.8-2.37c.48-.94.59-1,.64-1.33.17-1.13-1-2.16-1.44-2.6-1.38-1.34-.53-1.3-4.37-8.15-1.27-2.26-2.36-4-3-5.09-3-4.82-3.1-4.5-3.73-6.1-1-2.51-.91-4-2.33-5.21a7.48,7.48,0,0,1-1.64-1.81,13.15,13.15,0,0,1-.85-1.84c-.79-1.83-1-2.2-.8-2.57.29-.54,1-.35,1.17-.8s-.6-1.1-1.69-2.25c-.64-.67-1.19-1.43-1.8-2.12-3.85-4.31-3.49-4.07-4-4.54-2.63-2.31-3.36-1.09-5.41-3.16a11,11,0,0,1-3.21-5.9,7,7,0,0,0-.56-2.37,6.21,6.21,0,0,0-2.13-2.48c-1.79-1.2-2.76-.41-4.29-1.61a6.86,6.86,0,0,1-1.68-2.25,11.35,11.35,0,0,1-1.41-3.37c-.57-2.54.43-3.06-.28-4.69-.44-1-.79-.74-2.57-2.89-1.49-1.8-1.48-2.27-2.16-2.48-1-.32-1.69.54-4.37,2.12a30.54,30.54,0,0,1-5.82,3c-1.33.46-2.75.8-2.81,1.53,0,.52.67.71.76,1.52a2.08,2.08,0,0,1-1.16,2c-.73.34-1.1-.15-1.6.13-.74.4-.52,1.78-.69,5.09-.1,2.13-.25,2.81-.8,3.25a4.26,4.26,0,0,1-2,.52c-1.72.25-1.89,0-2.69.24-1,.3-.9.74-2.58,2-1.23.91-1.32.69-2.73,1.71a19.79,19.79,0,0,0-2.46,2c-1.36,1.35-1.55,2-2,1.93-.95-.16-1.15-3.55-1.18-3.91a27.63,27.63,0,0,0-.16-4.27,12,12,0,0,0-.32-1.45l-13.74-15c-.31-.35-.77-.88-1.29-1.55a12.72,12.72,0,0,1-1.6-2.35c-.55-1.16-.28-1.35-.69-2-.58-1-1.37-1-3-1.88-2.15-1.07-3.47-1.74-3.85-3a5,5,0,0,1,.53-3.26,10.22,10.22,0,0,0,1-2c.16-.58.42-1.48,0-2s-1.08-.44-2-.43c-4.12.06-3.76-.41-5.14-.05a7.32,7.32,0,0,0-3.63,1.93c-1.06,1.1-1.28,2.25-2.46,2.51a3,3,0,0,1-1.55-.11c-1.51-.41-1.74-1.31-3.53-2.4-1.09-.67-2.44-1.21-2.73-.86s.28.73.1,1.39a2,2,0,0,1-1.23,1.18,8.3,8.3,0,0,0-3.42-1.66,8,8,0,0,1-1.71-.32,5,5,0,0,1-1.28-.7l.1-145.31.11-192.11.06-.29a3.53,3.53,0,0,1-1.49-.39,2.59,2.59,0,0,0-1.16-.57,3.56,3.56,0,0,0-2.25.44c-.89.49-1.18,1.1-1.52,1s-.26-.45-.41-1a7.41,7.41,0,0,0-1.08-2.08,8,8,0,0,0-1.84-2.21,6.54,6.54,0,0,0-2.13-1.12c-1.33-.4-1.78,0-2.81-.28s-1.65-.92-3-2.41c-1.19-1.3-2.41-2.59-3.61-3.89C679,60,678,59.48,677.1,59.17a18.51,18.51,0,0,0-2.25-.6c-1.78-.35-2.08-.11-2.88-.52-1-.53-.86-1.07-2.09-1.69A2.54,2.54,0,0,0,668,56c-.55.2-.54.58-1.16,1a3.57,3.57,0,0,1-2.21.36,16.36,16.36,0,0,1-2.76-.6c-1.77-.2-2.23,1.28-4.86,2.37-2.3.95-2.61.09-5.69,1.08-2.45.79-2.36,1.37-4.26,1.81a12,12,0,0,1-6-.36,61.83,61.83,0,0,1-6.22-3.25,6.51,6.51,0,0,1-2.61-2c-.63-1-.74-1.88-1.24-1.92s-.77,1.13-1.72,1.32c-.34.06-.54,0-1.57-.48-2.34-1-1.83-.75-2.61-1.13a25.56,25.56,0,0,0-2.36-1.2c-1.12-.34-1.45,0-3.33,0-2.8,0-3-.69-4.54-.32s-1.58,1.1-3,1.24c-1.11.12-1.35-.33-3.37-.92-2.24-.66-2.66-.32-5.42-1.12-1.93-.56-2.38-.91-2.69-1.25-.86-.93-.51-1.65-1.44-2.36-.7-.54-1.16-.33-2.37-1.13-.69-.46-.55-.53-1-.76a3.62,3.62,0,0,0-3.45.12c-.45.32-.61.66-1.16.76a1.34,1.34,0,0,1-1.09-.2c-.42-.38-.1-.95-.32-1.88a3.17,3.17,0,0,0-1.2-1.89c-.85-.51-1.43.1-3-.12a5.5,5.5,0,0,1-2.52-1c-1.37-1-1.12-2.12-2.37-3a5.68,5.68,0,0,0-2.53-.72c-2.63-.42-4.31-.69-6.46-.2-1.68.38-2.9.66-3.49,1.68-.38.66-.38,1.42-1.12,1.93a2.2,2.2,0,0,1-1.36.36c-1-.07-1.38-.85-2.49-1.72a8.76,8.76,0,0,0-3.17-1.53,6,6,0,0,0-3.73-.12c-.88.32-.68.59-1.93,1.28-1.7,1-2.33.61-3.61,1.61a2.69,2.69,0,0,0-1.24,1.64c-.06.52.15,1-.08,1.17s-.51-.08-.64-.16a21.82,21.82,0,0,1-2.49-2c-.83-.67-2.06-.74-4.53-.88-1.89-.11-2.91.09-3.21-.48-.08-.16-.16-.48.32-1.41,1.19-2.28,3-3,2.85-3.57-.12-.36-.94-.38-2.33-.4a18.57,18.57,0,0,0-4.29.32,28.74,28.74,0,0,1-3.77.85c-.54,0-2.74.2-3-.49-.11-.32.24-.78.6-1,1.47-1,4.14.65,4.32.31s-2.1-1.1-2.71-3a6,6,0,0,1,.64-4.13,20.3,20.3,0,0,1,1.32-2.2c.63-.9,1-1.32,1-1.89a1.89,1.89,0,0,0-1-1.2c-2.79-1.76-5.38-1.47-8.66-3.13a6.72,6.72,0,0,0-2.13-1c-1.45-.26-2,.41-4.33.72-1.89.24-2-.12-3.17.28s-1.48,1-2.69,1.36a6.6,6.6,0,0,1-2.92,0,1.71,1.71,0,0,1-.66-.29,14.33,14.33,0,0,0-1.15,1.74c-.78,1.4-1,2.3-1.52,2.36-.29,0-.38-.17-1-.56a7.14,7.14,0,0,0-2.76-1c-.8-.14-.89,0-2.05-.2-.82-.14-1.24-.21-1.44-.44-.49-.54.07-1.35.32-3,.14-.93.45-3.07-.56-4.65a14.06,14.06,0,0,1-1-1.45c-.41-.73-.45-1-.8-1.52a4.74,4.74,0,0,0-1.28-1.25l-5.22-.24a12.19,12.19,0,0,0-1.08,2.53,9.28,9.28,0,0,1-.6,2,6.17,6.17,0,0,1-1.53,1.76c-1.22,1.07-1.48.79-1.88,1.36-.92,1.31.41,2.73-.48,3.9-.34.43-1,.65-2.33,1.08a10.5,10.5,0,0,1-2.05.44c-.93.14-1.4.2-1.64,0-.43-.37,0-1.07,0-2.37,0-2.11-1.05-2.9-.52-3.73.35-.55.91-.34,2-.84a6.35,6.35,0,0,0,2.73-2.77c.65-1.13.16-1,1-5.09a2.11,2.11,0,0,0-.08-1.53,2.45,2.45,0,0,0-1.56-1A17.91,17.91,0,0,0,477.66,6a8.84,8.84,0,0,1-5-2.57,4.9,4.9,0,0,0-1.25-1.28c-1-.6-1.55-.25-2.44-.88S468.17.05,467.67,0s-1.1.93-1.88,2a17.82,17.82,0,0,1-3.09,2.85c-2.1,1.91-2,3.28-4.05,6.65a31.43,31.43,0,0,1-5.3,6.34c-2.2,2.13-3.8,3.68-6.42,4.78-1.27.53-.73.09-5.45,1.36-5.27,1.41-5.26,1.77-6.82,1.72a6.37,6.37,0,0,0-3.61.45,8.9,8.9,0,0,1-1.69.92,2.74,2.74,0,0,1-2.36.08,2.08,2.08,0,0,1-.88-1.49,2.87,2.87,0,0,1,1-2.16c.62-.66,1.22-.85,1.16-1s-.87-.21-1.48-.12a7.5,7.5,0,0,0-3.69,1.76c-2.88,2.3-2.26,3.16-4.82,5.29a5,5,0,0,0-1.68,2.25,3.07,3.07,0,0,0-.16,1.65c.18.91.78,1.23,1.72,2.28,1.19,1.32,1.85,2.05,2,3.09a5.77,5.77,0,0,1-.92,3.17c-.48.9-.63.77-.85,1.4-.35,1-.07,1.64-.56,2.85-.14.36-.34.85-.6.84s-.46-.45-.68-1.28a10.12,10.12,0,0,1-.44-4.61c.24-1.64.69-2,.72-3.69s-.42-2-.56-2.09-.37,0-1.13.2c-1.07.26-1.27.13-1.84.32a3.74,3.74,0,0,0-1.61,1.17,34,34,0,0,0-2.92,3.77c-.85,1.17-2.47,2.24-5.7,4.37-2.92,1.92-2.88,1.53-4.17,2.65A6.72,6.72,0,0,1,396,49.58a9.57,9.57,0,0,1-2.37.08c-2.05,0-3.33-.23-3.41,0s.55.3.69.8c.18.69-.68,1.53-1.37,1.93-.33.19-1,.6-1.48.32s-.52-1.75.12-2.53,1.24-.53,1.4-1.08a1.25,1.25,0,0,0-.68-1.32c-.17-.09-.65-.29-1.64.2-1.44.7-2,1.89-3.57,4.29-1,1.52-1.91,2.88-2.65,4a23.26,23.26,0,0,0-2,3.09c-.79,1.67-.47,2-1.44,4.17a10.28,10.28,0,0,1-1.65,2.73,18,18,0,0,1-1.56,1.48c-1.8,1.63-1.9,1.6-2.21,2-.82,1-.86,2-1,4.29-.17,2.77-.37,5.55-.48,6.74a32.59,32.59,0,0,1-1.2,6.1c-1.7,4.77-1.81,5-1.81,5-.42.94-1,1.84-6.42,7.42a46.64,46.64,0,0,1-4.51,4.34l-.34.23a28.88,28.88,0,0,1-5.9,2.85,33.77,33.77,0,0,1-4.89,1.61c-2.31.53-2.89.33-6.86.68-6.54.58-6.35,1.24-9,1-.65-.07-2.27-.13-5.49-.24-1.14,0-1.34,0-1.6.12-1.39.85-.21,3.56-.65,9,0,.21,0,0-.76,4.93a8.39,8.39,0,0,1-.92,3.29c-.51.87-.81.9-1.65,2.08-1,1.49-1.61,2.3-1.4,3.05.26.93,1.43.83,3.85,2.25a13,13,0,0,1,2.77,2c1.8,1.75,1.53,2.77,3.09,4a16.25,16.25,0,0,0,3.21,1.4c3.74,1.43,4.35,1.43,5.49,2.29a33.21,33.21,0,0,1,2.41,2.68c4.3,4.74,3.54,3.38,4.21,4.34a2.62,2.62,0,0,0,1.36,1.2c.77.21,1.31-.22,1.81.12s.34.68.52,1.28a5.12,5.12,0,0,0,2.93,3c1,.39,1.34,0,2.25.56a4.17,4.17,0,0,1,1.44,1.49c3.63,5.74,3.71,5.86,4.05,6.58,1.27,2.67,1.9,4,2,5.13.18,1.95-.36,3,.32,5a5.15,5.15,0,0,0,1.56,2.6c1.28,1,2.86,1,2.85,1.29s-2.25.37-2.29.8,1.56.56,4.38,1.68a10,10,0,0,0,5.33,1.13c3.76.06,3.83-.1,4.57.16,1.5.51,1.27,1.17,2.85,1.6a4.85,4.85,0,0,0,3.57-.28c.58-.33.41-.47.88-.68,1.41-.65,2.56.68,3.85,0,.61-.3.52-.67,1.13-.84a2.91,2.91,0,0,1,2.28.64c.79.48,1.82,1.11,1.81,1.92s-.78.73-1.44,1.89c-.44.75-.28,1-.77,2.77-.31,1.1-.47,1.34-.68,2a8.63,8.63,0,0,0-.32,4.74,7.88,7.88,0,0,0,3.77,4.45c1.12.6,2.26.83,2.37,1.6a2.32,2.32,0,0,1-.64,1.45,3,3,0,0,1-1.13,1,2.84,2.84,0,0,1-1.32.2c-2-.18-3.11-2.84-3.81-2.65-.44.12-.7,1.37-.24,5.54a3.88,3.88,0,0,0,.64.12,5.09,5.09,0,0,0,.72,0c1.07-.1,2.19-.76,3.45-.68.15,0,0,0,1.4.36,1,.24,1.48.35,2.45.6a6.8,6.8,0,0,1,1.53.48,4.9,4.9,0,0,1,1.4,1.24c.49.6.39.69,1,1.57s1,1.11.93,1.44-.33.63-1.53.92l-4.29.09a2.3,2.3,0,0,0-2-.53,2.44,2.44,0,0,0-1.24,1.25c-.53.88-.31,1.15-.76,2.24s-.78,1-1.41,2.37a12.6,12.6,0,0,1-.84,1.56c-.33.53-.54.78-.76.77s-.26-.24-.56-.61a8.29,8.29,0,0,0-1.29-1c-.86-.66-.89-.71-1-.72-.56,0-.72.61-1.44,1-.51.27-.69.11-2.73,0h-2.81a8.68,8.68,0,0,0-1.36,0c-1.34.25-2,1-2.25.85s.78-1.5.36-2c-.11-.13-.27-.16-.68-.2a18.62,18.62,0,0,0-1.92-.16c-1.71,0-1.61-.1-2.45,0a15.21,15.21,0,0,0-2.85.68c-1,.21-1,0-6.42-.4a3.39,3.39,0,0,1-3.41-2.61c-.9-2.49-.27-5.06.36-7.5a22.8,22.8,0,0,1,1.09-3.57c.65-1.43,1.34-2.27,1-3.17-.08-.2-.15-.25-1.12-1.12-1.69-1.51-2-1.78-2.45-1.77s-.54.3-1.28.57a5.71,5.71,0,0,1-2.45.12c-2.73-.18-3.18-.35-3.81,0s-.38.59-1,1.12c-1.17.93-1.94.34-3.21,1a7.18,7.18,0,0,0-2.49,2.89c-.35.66-.64,1.38-1.36,1.64a1.3,1.3,0,0,1-1,0c-.66-.33-.39-1.21-1-1.64s-1.83.05-2.69.44a18.48,18.48,0,0,0-2.52,1.65,18.77,18.77,0,0,0-2.21,1.44c-.92.82-.78,1.08-1.93,2.37s-1.9,1.62-1.8,2.12.58.32,2.29,1.33c1.27.75,1.33,1,2.08,1.2.27.07.54.1.68.32.25.38-.06,1-.36,1.48l-8.66.25a3.07,3.07,0,0,0-1.09-1.13,3.24,3.24,0,0,0-2.28-.32c-.8.2-1.17.67-2,1.41a26,26,0,0,1-3,2.32c-2.08,1.37-3.26,1.45-3.61,2.61a5.92,5.92,0,0,0-.16,1.32c0,1.16.36,1.46.12,1.89-.32.58-1.05.16-2.08.88-.72.5-1,1.14-1.41,1-.18,0-.24-.17-.44-.4a2.77,2.77,0,0,0-2-1c-.3,0-.39.17-1.25,1-1.55,1.5-1.64,1.42-1.8,1.81-.42,1,.19,1.58-.32,2.28-.15.2-.29.29-1.53.77a18.55,18.55,0,0,0-2.76,1.12,14.44,14.44,0,0,0-1.49,1.24c-1.74,1.4-2.84,1.76-2.77,2.33,0,.29.35.46.53.56,2.92,1.63,4.38,2.44,4.57,2.53,2,.94,1.42,1.32,3.57,2.44a14.34,14.34,0,0,0,5.41,1.69c2.25.21,3.13-.3,5,.4a16.41,16.41,0,0,1,2.12,1c1.26.76,1.25,1,2,1.37,1.31.61,1.88,0,3.85.24,1.73.23,3.46,1,3.41,1.48s-1.16.62-2.05.6c-1.13,0-1.64-.49-2.16-.16-.31.2-.24.43-.6,1.21-.54,1.13-.88,1-1.33,2s-.2,1.53-.72,2a2.39,2.39,0,0,1-1.77.36c-.78-.12-.94-.51-1.6-.48-.42,0-1.11.21-1.24.6-.25.75,1.8,1.62,4.25,4,1.53,1.51,2.93,2.94,2.81,4.65-.06.81-.4.81-.65,2.09a6.85,6.85,0,0,0,.25,3.89,6.32,6.32,0,0,0,2.2,2.81c1,.73,1.49.56,4,1.32,2.8.85,2.62,1.18,4.58,1.61.62.13.32,0,4.17.56a11.92,11.92,0,0,1,3.21.6c1.39.62,1.7,1.34,2.84,1.4a4.51,4.51,0,0,0,2.05-.56c1.67-.68,1.62-1,2.85-1.52s1.34-.19,3.73-.76c1.28-.31,1.31-.41,2.16-.61a19.3,19.3,0,0,1,4.66-.28c4.29-.08,4.12-1,5.69-.48,1.22.42,1.22.93,4.5,2.93a12.53,12.53,0,0,1,1.4.92c1.32,1,1.66,1.77,2,1.65s.57-1.41.12-2.41c-.26-.57-.55-.7-1.69-1.76-1.89-1.78-1.88-2.16-1.84-2.33.12-.56,1-.91,1.64-.92.94,0,1.62.64,2.45,1.44a10.53,10.53,0,0,1,1.6,2.05,14,14,0,0,1,1.49,3.29c.68,2.25.4,3.41,1,3.61s1.46-.79,1.84-1.37a7.29,7.29,0,0,0,.81-2.49,9.44,9.44,0,0,1,1.2-3.24c.67-.92,1-.7,2.25-1.93s1-1.68,2-2.53,1.25-.49,3.69-1.72c1.07-.54,2.17-1.16,2.17-1.16,1.69-1,2.5-1.57,3.13-1.25.36.19.31.5.84.76a2.09,2.09,0,0,0,1.32.16c.62-.14.92-.57,1.53-1.32l2.24-2.49c1.38-1.51,1.6-1.6,1.81-1.64,1.27-.24,2.53,1.31,3,1.84a8.71,8.71,0,0,1,1.44,3c.6,1.94,1.05,3.39.56,5.18a6.4,6.4,0,0,1-2.68,3.69,4.23,4.23,0,0,1-2.53.8c-1.34-.1-1.71-1-2.77-.84a3,3,0,0,0-1.88,1.56c-.76,1.19-.87,2.63-.61,2.73s.55-1.17,1.37-1.32,1.52,1.2,3.57,3.49,2.83,2.42,3.29,3.81-.07,1.79,0,3.77c0,2.84,1.13,3.1,1.88,6.78a12.32,12.32,0,0,1,.12,6.37,44.09,44.09,0,0,1-2.32,4.3c-1.18,2.07-1.71,2.9-2.77,3.57a8,8,0,0,1-2.29.84,30.53,30.53,0,0,1-4.73.76c-4.22.52-5.4.79-6.22,0a4.3,4.3,0,0,0-1.08-.92,3,3,0,0,0-2-.36,3.1,3.1,0,0,0-1.76,1.52,19.52,19.52,0,0,0-2,3.73c-.32.72-.3.48-4.37,5.34a14.41,14.41,0,0,1-3.81,3.65,12,12,0,0,1-1.89.84,6.25,6.25,0,0,1-2.48.48c-1.33-.15-2-1.42-3-2.73-.68-.86-3.34-4-6.86-4.89a7.13,7.13,0,0,0-5.26.52c-.27.17-.51.35-2.72,3a27.6,27.6,0,0,0-2.77,3.49,14.1,14.1,0,0,0-1.53,3.65c-.35,1.47-.06,1.46-.4,2.89-.6,2.58-1.68,3.14-1.28,4.25s1.47,1.05,1.6,2.12a2.38,2.38,0,0,1-.52,1.61c-.74,1.11-1.73,1.35-2.64,1.88-1.45.84-1,1.42-3.49,4.46-1.87,2.29-2.36,2.26-3.17,3.85-.59,1.13-.42,1.31-1.21,2.93a20.82,20.82,0,0,1-2,3.41c-1.44,1.91-2.14,2.08-2.13,3,0,.54.52,1.27,1.53,2.73.82,1.19,1.14,1.48,1,1.93-.18.78-1.43,1.15-2,1.32a10.92,10.92,0,0,1-2,.28c-1.91.22-2.25.3-2.45.6a1.47,1.47,0,0,0,.08,1.45c.11.18.36.53,1.36.88,1.57.54,2.52.23,2.65.6s-.67,1-1.24,1.36a10.45,10.45,0,0,1-2.13.73,5.26,5.26,0,0,0-1.44.56,2.43,2.43,0,0,0-.52,2.81c.21.4.72,1,1.28,1s.55-.59,1.36-1a2,2,0,0,1,1.49-.16,1.64,1.64,0,0,1,.92.8,2.17,2.17,0,0,1,0,1.6c-.22.82-.43.84-.72,1.69a3.19,3.19,0,0,0-.24,2,2,2,0,0,0,.76,1.13c1,.61,2.09-.5,2.69,0,.88.66-1,3.38.24,4.89a10.19,10.19,0,0,0,1.4,1.24,5.64,5.64,0,0,0,1.05.73c.6.31,1.13.58,1.44.4.71-.42-.34-2.88.28-3.21.15-.08.39,0,1,.44a18.79,18.79,0,0,1,2.93,3.05c1.08,1.13,1.87,1.59,1.73,1.88s-1.3-.24-2.21.36c-.58.39-1.05,1.26-.8,1.77.39.8,2.26.07,5.29.6,1.41.25,1.17.43,3.21,1a32.15,32.15,0,0,0,6.7,1c2.7.09,3.12-.26,4.93.16a13,13,0,0,1,3.29,1.28c1.68.87,3.33,1.73,3.25,2.65s-1.33.65-2.4,2.28a5.86,5.86,0,0,1-1.13,1.45c-.34.29-.82.71-1.28.6s-.78-.9-.92-1.4c-.62-2.12.3-3.29-.44-4.1a1.84,1.84,0,0,0-1.65-.44c-.6.14-.82.59-2,2.09s-1.55,1.76-1.77,1.72-.41-.59-1-2.08-.91-2.27-1.49-2.69a5.08,5.08,0,0,0-2.32-.6,12.59,12.59,0,0,1-2.45-.28c-1-.35-1-.77-1.72-.8s-1,.29-2,.92-1.61,1.09-1.73,1.64c-.14.75.5,1.09.37,1.93-.08.49-.37.8-.93,1.36-2,2-2.62,2.35-3.25,3.41-.47.8-.78,1.72-.56,1.89s.66-.43,1.65-.77c.59-.19,1.85-.47,2.2,0,.47.63-1.26,1.79-1,3.29.16.83,1,1.43,2.77,2.65a8.45,8.45,0,0,0,2.33,1.28c1.17.41,1.4.16,2,.49,1.18.61.84,1.71,2,3.49a21.64,21.64,0,0,0,3.49,3.37c1.49,1.3,1.55,1.22,1.76,1.6,1,1.74-.19,3.51.8,4.45a2.24,2.24,0,0,0,1.49.44c4.71.44,4.34,1.1,6.74.93a23.76,23.76,0,0,0,4.85-1.17,11.48,11.48,0,0,0,3.37-1.36c1.53-1,1.25-1.56,2.41-2.21,2.09-1.16,3.73.21,5-1,.61-.57.7-1.43.88-3.13a4.92,4.92,0,0,0-.36-3.21c-.41-.7-.73-.61-1-1.28a3,3,0,0,1,.24-2.93c.66-.9,1.35-.46,2.09-1.28s.23-1.4.88-4a5.87,5.87,0,0,1,.92-2.25c.57-.77,1.49-1.51,1.77-1.32s-.11.89-1.09,3.57c-.66,1.82-1,2.75-1.24,3.61a12,12,0,0,0-.72,4.13c0,.56.12,1,2.24,5.57,1,2.06,1.23,2.59,1.81,3.93.71,1.67.69,1.76,1.28,3.17a40.84,40.84,0,0,0,2.89,6.06c.95,1.53,1.83,2.58,1.68,3.93a2.24,2.24,0,0,1-.68,1.53c-.41.33-.66.16-1.2.48a3.61,3.61,0,0,0-1.28,1.68,16.69,16.69,0,0,0-.69,1.65c-.78,1.93-.95,1.86-1,2.36,0,.66.36,1.3,1.12,2.57a6.44,6.44,0,0,0,1.21,1.72c1.56,1.13,4-.12,4.17.37.12.29-.68,1-1.36,1.32-.91.48-1.32.28-1.73.72a2.53,2.53,0,0,0-.28,2.09,12.46,12.46,0,0,0,1.12,2.6,5.52,5.52,0,0,1,.56,1.49,3.41,3.41,0,0,1-.28,2,3.5,3.5,0,0,1-1.36,1.45,12.78,12.78,0,0,1-4.61,1.52c0,.17,3.37-.67,4.89.93.45.47.75,1.17,1.32,1.16.35,0,.51-.27,1.09-.72a9.71,9.71,0,0,1,1.68-1c1.46-.76,1.73-.55,2.21-1.08s.32-.78.76-1.6a6.91,6.91,0,0,1,1.65-1.93c1.52-1.44,2.28-2.16,3.28-2.49,1.43-.46,1.8.15,3.33-.44a7.68,7.68,0,0,0,2.13-1.32c.94-.75,1-1.06,2.29-2.21s1.92-1.78,2.28-1.6c.64.31-.47,2.43.68,3.93a3.94,3.94,0,0,0,1.37,1,7.63,7.63,0,0,0,1.8.48c1.57.33,1.64.28,1.85.45.89.71.41,2.28.84,2.4s.79-.84,1.57-2c.91-1.32,2.23-3.23,3.2-3,.69.12.62,1.18,1.73,3.53.29.61,1,1.77,2.45,4.09a30.94,30.94,0,0,1,2.16,3.53c.83,2,.63,3.08,1.69,3.93a3.57,3.57,0,0,0,2.2.72,2.13,2.13,0,0,1,.89.3c.37-.65.64-1.15.8-1.5a5.41,5.41,0,0,0,.6-2.73c-.06-.83-.32-1-.92-2.81a7.81,7.81,0,0,1-.73-3.13,6.84,6.84,0,0,1,1.29-2.64,12.28,12.28,0,0,1,1.24-1.69c1.27-1.41,1.85-1.3,2.69-2.44s.93-2.17,1.08-2.13.19,1.66-.32,3.33c-.41,1.33-.85,1.78-.76,2.81a4,4,0,0,0,.6,1.68c.72,1.23,1.38,1.23,2.53,2.41,1.49,1.52,1.72,2.89,2.4,2.81.35-.05.39-.4.85-.89.86-.91,1.86-.86,3.45-1.28a16.61,16.61,0,0,0,3.61-1.52c1.87-1.1,1.52-1.57,3.17-2.49,2-1.14,2.67-.51,4.45-1.73,1.27-.87,1.89-1.85,2.28-1.64s.14.54.13,1.68c0,2.34.34,2.91-.13,3.81-.23.47-.5.65-1.24,1.25a39,39,0,0,0-4.89,4.73,12.32,12.32,0,0,0-1.49,2.17,5,5,0,0,0-.84,2.24c0,1.11.56,1.28,1,3a6.42,6.42,0,0,1,.24,3.21,4.54,4.54,0,0,1-1.16,2.41c-.67.68-1,.46-1.32,1-.68,1,.28,2,.2,4.25a9.62,9.62,0,0,1-.44,2.37c-.6,2.18-1.36,2.89-1,4.05a6,6,0,0,0,.69,1.32c.49.8.68.85,1,1.37.56,1,.5,2.24.32,2.28s-.23-.66-.88-1.12a2.37,2.37,0,0,0-1.73-.32c-.78.18-1.15.78-1.68,1.4-.95,1.11-1.47,1.19-2.85,2.29-2.08,1.66-3.53,3.57-6.18,7.06-1.5,2-2.25,3-2.44,3.69-.73,2.65.55,4.76-.69,5.82a2.76,2.76,0,0,1-1.92.48c-1.38-.09-1.65-1-2.61-1.08-1.37-.11-2.08,1.72-4,3.53-1.34,1.23-2.17,1.43-4.49,2.68a48.79,48.79,0,0,0-8.55,5.7,28.48,28.48,0,0,0-6.37,8.58c-.53,1.12-1.13,2.63-.49,3.73a5.78,5.78,0,0,0,2.25,1.73c1.14.64,1.56.65,2,1.24.63.85.65,2,.4,2.13s-.42-.45-1.25-1a5.61,5.61,0,0,0-1.32-.57c-1.27-.45-2.21-.75-2.37-.8-2.06-.66-2.35-.76-2.6-.56s-.36,1.06-.21,1.52.55.6,1,1.33.6,1.51.36,1.68-.73-.26-1.16-.6c-1.14-.89-1.08-1.33-1.93-1.92s-1.29-.36-1.8-1a2.29,2.29,0,0,1-.49-2c.33-1.31,2-1.85,1.93-2s-1,.26-2.13.44c-1.77.29-2.28-.29-3.85-.24-1.07,0-1.07.31-4.25,1.49s-3.08.87-4.29,1.52a16.89,16.89,0,0,0-3.77,3c-1,1-.56.66-2.77,3a30,30,0,0,0-2.89,3.65,2.11,2.11,0,0,0-.52,1.72c.2.58.9.9.84,1s-.51-.25-1-.12-.45.63-.92,1.17a5.08,5.08,0,0,1-1.89,1,10.23,10.23,0,0,0-1.8.72c-.51.32-1,.62-1.13,1.13-.25.86.7,1.45.45,1.92s-1.56,0-3.86.4a2.92,2.92,0,0,0-1.68.68,3,3,0,0,0-.72,1.73,19.19,19.19,0,0,0,0,2.89,12.51,12.51,0,0,1-.2,1.8,1.94,1.94,0,0,1-.48,1.21c-.31.26-.81.42-1,.24s-.09-.66-.08-1c.06-1.66-2.32-3-2.56-3.17-1.1-.61-3.11-1.26-4.46-.4-.51.33-.34.5-1,1-1.25.88-2.14.47-2.77,1.28-.45.59-.2,1.08-.68,1.36s-1.29,0-1.68-.2c-1-.46-1.15-1.05-1.77-1.12s-1.21.52-1.72,1.08c-1.31,1.43-1.08,2.32-2.37,4.25a14.13,14.13,0,0,1-1.52,1.89c-1.6,1.7-2.35,1.77-2.53,2.65-.29,1.39,1.32,2.77,1.64,3a4.24,4.24,0,0,0,3.33,1.16,4.6,4.6,0,0,0,2.17-1.36c1.08-1,.94-1.33,2-2.25a9.28,9.28,0,0,1,2.49-1.57,10,10,0,0,1,2.25-.64c2.25-.36,3,.31,6.05.12a3.51,3.51,0,0,0,2.29-.68c.46-.4.56-.8,1-1.72a10.64,10.64,0,0,1,1.65-3.09c1.33-1.43,2.9-1,3.13-1.93.06-.27-.37-1.12-1.25-2.81-.36-.69-.59-1.11-.48-1.64a1.46,1.46,0,0,1,.87-1.11c.25-.07.81-.13,3.16,2.19.77.76,1.22,1.44,2.19,1.66a2.56,2.56,0,0,0,1.87-.27,2.42,2.42,0,0,0,.91-1.07c.55-1.14.22-2,.05-4.33-.12-1.62-.21-2.9.14-3s1.33,1.35,1.84,2.53a13.24,13.24,0,0,0,1.07,2.62c.35.53.88,1.31,1.66,1.34a2,2,0,0,0,1.44-.8c.72-.94.34-2.09.7-2.2s1,1.61,1.82,1.61c.52,0,.93-.67,1.44-1.66a37.39,37.39,0,0,0,1.82-4.17c1.42-3.65,1.81-3.47,2.09-5.19.18-1.13.08-1.67.58-2.19a2.83,2.83,0,0,1,3.75-.11,2,2,0,0,1,.43,1.18c.06.59-.07,1.28-1,2.89s-1.49,2-1.34,2.29c.3.64,2.46.4,4-.21A12.6,12.6,0,0,0,399.6,553c1.34-.88,1.15-1,1.71-1.23,1.9-.79,3.78.65,4.28,0,.27-.37,0-1.11-.16-1.5-.28-.73-.63-.85-.59-1.17.09-.79,2.27-1.58,2.94-.91s-.46,2.25.11,2.67,1.68-.37,2.3-1.23a2.07,2.07,0,0,0,.48-1.66c-.12-.42-.42-.52-.37-.75.09-.39,1-.26,2.19-.69a5.11,5.11,0,0,0,2.09-1.39c.63-.75.37-1,1.07-2a3.3,3.3,0,0,1,2.08-1.61c.63,0,.69.3,1.61.49,1.54.31,2.43-.54,2.83,0a2.15,2.15,0,0,1-.16,2.08c-.33.61-.63.58-.86,1.07-.5,1.1.32,2.72.7,2.68s.12-.74.64-2.14,1.06-1.6,1.07-2.52-.44-1.47-.11-1.82a1,1,0,0,1,.75-.16,10,10,0,0,0,3.16-1.07c1.88-.79,2-1.07,2.57-1,.86.17,1,.91,1.71.86s.81-.61,1.49-1.5c1.29-1.65,1.67-1.27,2.52-2.51,1.12-1.64,1.11-3.23,1.6-3.21.27,0,.46.48.54.69.34.88-.11,1.4-.06,2.57,0,.88.36,1.72.54,1.71s.05-.76.43-1.71c.11-.3.24-.53,1.87-2.57.59-.74.79-1,.8-1.39,0-.7-.56-1-.43-1.44.22-.72,1.84-.74,1.82-1,0-.11-.27-.17-.91-.32-1.66-.38-1.9-.4-2.14-.64a1.94,1.94,0,0,1-.37-1.5,2.32,2.32,0,0,1,1.12-1.92c.64-.3,1,.12,1.77-.16a2.79,2.79,0,0,0,1.17-1c1.18-1.45,2.52-2.78,2.68-2.67s-1.06,1.41-.64,2.4a2.2,2.2,0,0,0,2.94.8,1.93,1.93,0,0,0,.85-2.35c-.42-.58-1.54-.06-2-.69s0-1.25.17-1.61c.55-1.25,1.92-2.31,2.56-2s0,1.36.8,2.09a2.93,2.93,0,0,0,2.2.48c.59,0,1.31-.08,1.44-.43.24-.67-2-1.48-1.92-2.62.06-.75,1.07-.71,2.51-2.3.78-.85,1-1.38,1.34-1.34.74.1.65,2.31,1.49,2.52.42.1.84-.35,2.09-1.87a32.06,32.06,0,0,1,3.8-4.18c.82-.71,1.62-1.26,2.14-1s.31.71.8,1a1.65,1.65,0,0,0,1.76-.43c.48-.48.24-.85.65-1.6.55-1,1.23-.75,1.76-1.66.28-.48.09-.55.32-2.73.14-1.31.24-1.61,0-1.92-.52-.68-1.79-.22-1.92-.59s1.05-.85,2.62-2.3c1.08-1,1-1.21,1.65-1.55,1.12-.58,1.63-.11,2.68-.75a11.33,11.33,0,0,0,1.5-1.44c.44-.47.5-.56,1.17-1.29s1.11-1.18,1.29-1.34c1.2-1,1.85-.68,2.19-1.33.49-.94-.69-1.92-.16-2.68a1.7,1.7,0,0,1,1.92-.37c.38.16.36.36.86.75.65.5,1.66.94,2,.64s-.14-.62-.11-1.5a2.93,2.93,0,0,1,.91-2.08c.7-.5,1.17.07,2-.38a3.77,3.77,0,0,0,1.55-2.35c.35-1.05.07-1.18.33-1.55,1-1.53,5.57.52,6.41-.86.32-.51-.23-.95.16-2.14.06-.15.53-1.54,1.34-1.6.35,0,.66.23,1.28.75.88.72,1.1,1.19,1.29,1.12.4-.14-.61-2.27.32-3.37.71-.84,2.12-.55,2.25-1.18.06-.29-.21-.59-.59-1-.79-.87-1.45-.94-1.45-1.23,0-.61,2.9-.43,3.48-1.77.39-.9-.6-1.74-.11-2.46s1.64-.18,2.2-.91-.33-1.89.21-2.46,1.9.55,3.26-.05c.7-.31.62-.74,1.93-2.57s1.53-1.66,2.19-2.83a5.19,5.19,0,0,0,1-3.32c-.32-1.91-2.49-3-3.75-3.58a10.31,10.31,0,0,0-4.06-1.07c-2.4-.12-3.21.71-4.17.05-1.38-.94-1.06-3.52-1-3.8.19-1.39.9-2.34,2-3.79a12,12,0,0,1,2.19-2.41c1.79-1.44,3.2-1.58,3.26-2.46s-1.06-1.42-.85-1.76,1.67.29,2-.22c.16-.23,0-.58-.05-.8-.46-1.22-1.78-1.5-1.71-1.82S512.2,434,514,434a13.59,13.59,0,0,0,5.3-.85,4,4,0,0,0,1.87-1.34,3.2,3.2,0,0,0,.32-2.94,3.79,3.79,0,0,0-1.85-1.71,3.45,3.45,0,0,0,2.06.26c.76-.16.83-.53,2-1.17,1.61-.9,2.06-.5,2.89-1.12a4.27,4.27,0,0,0,1.18-4.93c-.35-.59-.55-.33-2.46-2.08a17.09,17.09,0,0,0-1.5-1.34c-.93-.69-1.6-1-1.55-1.12s.9,0,1.66.11c2.32.34,3.78.55,5.13.05a6.51,6.51,0,0,0,2.89-2.57c.63-.84,1.22-1.63,1-2.46s-.8-.82-.91-1.55.31-1.15.8-1.92c1.13-1.8.61-1.93,1.5-3.21a10,10,0,0,1,3.79-3,3.49,3.49,0,0,1,2-.64c.84.05,1.31.5,1.5.32s-.76-1.26-1-2.89a4.19,4.19,0,0,1,.64-2.89,7.46,7.46,0,0,1,1.87-1.39,14.12,14.12,0,0,1,2.73-1.55c1.47-.42,1.9.15,3-.37a4.94,4.94,0,0,0,1.87-1.77c1.37-1.79,1.14-2.53,2-3.58s2.21-1.44,4.17-1.93c1.67-.41,3.88-1,6,.06a13.34,13.34,0,0,1,2.35,1.82c2.17,1.86,2.53,2.39,4,3.69a20.33,20.33,0,0,0,5.4,3.79,10.47,10.47,0,0,0,3.75,1.18,6.67,6.67,0,0,1,2.3.27c1.26.49,2.29,1.63,2.08,2s-1.34.12-2.73-.16a20.1,20.1,0,0,1-3.1-.91c-2-.77-1.91-1.12-3.58-1.66-1-.31-.78-.12-2.68-.64-1.24-.34-1.57-.48-2-.32-.92.33-.73,1.31-1.6,1.76-1.06.56-2.9-.09-3.8-1.23-.73-.91-.48-1.69-1.28-2.19a2.63,2.63,0,0,0-2-.16c-1.54.39-1.8,1.55-3.42,3.05s-2,.81-4.39,2.73c-1.76,1.39-1.92,2-3.32,2.56s-2.26.28-2.62.91c-.44.79.6,1.66,1.13,3.64a12.34,12.34,0,0,1,.1,4.12,17.67,17.67,0,0,1-1,5.78c-.48,1.19-.59.94-2.68,4.54-.91,1.58-1.47,2.63-2,3.58-2,3.7-2.08,4.42-2.14,4.82a5.83,5.83,0,0,0,.91,4.38,4.25,4.25,0,0,0,3,1.72c.25,0,.6,0,2.57-1,1.67-.84,2.1-1.17,3.31-1.71,1.5-.67,2.54-1.14,2.84-.8s-.21.75-1.72,3.58a6.82,6.82,0,0,1-1.81,2.62,8.78,8.78,0,0,1-1.55.86c-1.18.54-1.46.47-2.2.85-1.21.63-1,1.11-2,1.66-1.6.9-2.65-.12-3.69.75-.45.38-.28.6-1.07,2.73s-1,2.14-.91,2.72c.24,1.24,1.76,2.17,3.11,2.3a4.43,4.43,0,0,0,2.67-.69c1.53-.94,1.86-2.37,2.68-2.25.46.07.47.55,1.23.8a4.23,4.23,0,0,0,1.44.06c1.13,0,1.31.5,2.25.64,1.44.21,3.06-.63,3.1-1.34,0-.52-.86-.6-1-1.28s.49-1,2.25-2.84a9.67,9.67,0,0,0,1.45-1.71c.56-1.09.5-2,.9-2.08s.57.74,1.45,1a1.35,1.35,0,0,0,1-.05c.57-.31.48-1.06.86-2.09s.58-.83,1.23-2a25.46,25.46,0,0,0,1.23-3.05,5.76,5.76,0,0,1-.43,3.37c-.23.61-.34.65-.7,1.55s-.92,2.34-.58,2.57c.05,0,.21.09,1.28-.7,1.35-1,1.48-1.37,2.41-2,1.14-.75,1.44-.51,1.76-1,.64-1-.44-2.07.16-2.89a2.56,2.56,0,0,1,2.68-.43c.77.29,1.17.89,1.39.75s.07-.43-.11-1.12c-.53-2-.75-2-.75-2.68a6.29,6.29,0,0,1,.8-2.19c.65-1.37.94-1.44,1.07-1.44.32,0,.62.37.75.69.37.92-.54,1.64-.16,2.36a1,1,0,0,0,1,.53c.48-.15.39-1,.8-2.35a20.89,20.89,0,0,1,1.23-2.46,11,11,0,0,0,.66-2.28,3.44,3.44,0,0,0,.25,1.26c.12.3.31.61.64,1.39.22.54.37.94.37,1a2.34,2.34,0,0,0,.48.56,2.86,2.86,0,0,0,1.13-.89c.59-.79.45-1.52.85-1.65s.7.63,1.61,1.12c1.44.77,2.34-.34,4,.43.8.38,1.08.89,1.6.75s.64-.5,1.07-1.18.61-1.29.86-1.28.42,1,1,1.07c.38.06.73-.35.75-.38.38-.47.21-1.08.16-1.71-.14-1.73.6-3.28.85-3.26s.07.54.43,1.28c.15.3.67,1.34,1.61,1.44a2.08,2.08,0,0,0,1.65-.8,1.55,1.55,0,0,0,.59-1.12c0-.14-.06-.46-.91-1.23-.64-.59-.83-.6-1.23-1s-1.36-1.24-1.17-2.25,1.27-1.65,1.87-1.44c.43.15.36.71.91,1s1.25.07,1.39-.27c.22-.55-1.31-1.14-1.23-2s2.15-1.1,2.3-2.19c.07-.56-.46-.56-1.23-2.25-.25-.56-.57-1.09-.8-1.66s-.25-.65-.43-.69c-.37-.09-.66.64-1.5,1.23a3.87,3.87,0,0,1-1.34.59c-.24-.66-.26-.75-.26-.75-.16-.66.82-1.25,1.87-2.52.79-1,1.23-1.49,1.17-2.19a1.7,1.7,0,0,0-3-1.12,6.5,6.5,0,0,0-1.55,2.88,7.27,7.27,0,0,0-.06-2.62,4,4,0,0,0-.59-1.23c-.93-1.29-2.42-1.5-2.35-1.76s1.39.12,3.1-.48a2.86,2.86,0,0,0,1.66-1.13c.31-.53.15-.87.27-1.76a11.13,11.13,0,0,1,1-2.62c.67-1.77.84-2.86,1-2.84s-.09,2.38.42,2.52c.18.05.41-.17,1.07-1.13.81-1.15,1.33-2.06,1.82-2.88a8.27,8.27,0,0,1,1.71-2.36c.58-.47,1.65-1.11,2-.8s-.08,1.6-.48,2.35c-.8,1.48-1.62,1.56-2.63,2.79s-.53,1.72-1.71,4.06c-1.31,2.6-2.67,3.49-2.3,4.12.15.25.42.19,3.32.21,1.56,0,2,0,2.3-.32.54-.71-.31-2.21-.11-2.3s.41.73,1.07.91a1.55,1.55,0,0,0,1.18-.27c.82-.6.47-1.81.75-3.74s1-3.63,1.28-3.58.36,1.81.05,3.53c-.37,2.08-1.13,2.86-.69,3.42s2,.55,2.78-.16c.51-.49.5-1.3,1.12-1.5.43-.13.61.19,1,0s.51-.7,1.07-1.71c.3-.54.88-1.57,1.34-1.49.24,0,.3.36.58,1s1,2.27,1.61,2.25c.2,0,.33-.19.85-1.12,1-1.86,1.2-2.26,1.66-2.68a4.56,4.56,0,0,1,1.82-.8c1.94-.62,4.62-1.48,4.87-1,.14.29-.59.91-.64,1-1.46,1.22-3.14.26-4.07,1.34-.27.31-.07.33-.75,1.65a8.74,8.74,0,0,0-.69,1.34,3.35,3.35,0,0,0,.64,2.57,4.12,4.12,0,0,0,2.67,1.92c.48.07.65,0,2.73-.58a10.71,10.71,0,0,1,2.35-.54c.07.16-2,1.56-4.7,2.46-1.11.37-2.09.57-2.36,1.34a1.17,1.17,0,0,0,.33,1.33c.64.36,1.47-1,3.58-1.71.24-.08,2.26-.75,2.78-.05.26.35.14,1-.05,2.19-.1.6-.18.78-.06.91.29.3,1.32,0,2.52-.32a.75.75,0,0,1,.64,0c.31.22.09.77.37,1s.67.05,1-.06c1.28-.4,2.51-.79,2.78-.48s-.36,1.4-1,2.09c-.41.43-.55.41-1,.85-.65.63-1.49,1.78-1.23,2.14s2.16-1.17,4.22-.59a6,6,0,0,1,2.62,1.93c.88.94.91,1.39,1.82,2.14.7.57,1.91,1.31,2.36,1s-.28-1.16.21-2.19A2.45,2.45,0,0,1,641.4,410c.73-.3,1.31,0,1.5-.37.08-.15,0-.27-.22-1s-.36-1.18-.26-1.39c.17-.4.78-.4,1.33-.54a4.31,4.31,0,0,0,2.46-2c0,1.82,0,3.64-.05,5.46a4.09,4.09,0,0,0-1.82,2.51c-.07.38-.21,1.05.16,1.44s1.22,0,1.87.43.31,1.42.86,2.3,1.77.69,4.44,1.5a11.24,11.24,0,0,1,4.49,2.09c1.28,1.09,1.48,2,2.73,2.35a4.74,4.74,0,0,0,2.57-.16c3.14-.74,4.5-1.12,5.45-1.34,3-.68,2.62.09,6-.59,2.49-.49,3.45-1.06,5.24-.69a17.78,17.78,0,0,1,2.52.8c1.58.61,1.63.84,2.72,1.18,1.44.43,1.57.1,3.21.53s1.66.82,2.78.91c1.44.12,1.58-.49,2.78-.27s1.52,1,2.57.91a3.06,3.06,0,0,0,1.61-.8c.43-.36,1-.82,1-1.44,0-.18,0-.44-.64-1.23-1-1.24-1.67-1.66-1.55-1.93s.59-.15,1.07-.11a2.18,2.18,0,0,1,1.5.48c.36.42.08.8.37,1.72.23.7.46.66.7,1.28a3,3,0,0,1-.27,2.89c-.65.71-1.68.51-1.77,1s.42.65.86,1c2.44,1.75,1.94,1.68,2.89,2.2,1.61.87,2,.47,5.19,1.39,1.94.55,1.93.74,3.95,1.28s3.23.86,4.28.64c1.31-.26,1.22-.81,3.59-2.19,2.58-1.5,3.41-1.26,4.49-2.57a13.71,13.71,0,0,0,1.34-2.56c1.13-2.47,1.35-3.69,2-3.75.32,0,.62.3,1.23,1a6.57,6.57,0,0,1,1.92,3.27c.23,1.15.05,2.38-.16,2.4s-.22-.34-.32-.59c-.53-1.41-1.85-3.37-2.67-3.26s-1.31,1.76-1.18,3.21.82,1.48,1.23,3.26a5.79,5.79,0,0,1-.16,3.69,4,4,0,0,1-1.39,1.82c-1.31.92-2.53.4-2.78.91-.34.71,1.59,2.55,3.8,4,2.55,1.62,4,1.7,7.32,3.26a44.58,44.58,0,0,1,4.76,2.62c6.67,4,6.48,5.59,10.33,7.76a4.78,4.78,0,0,1,2,1.87c.62,1.19.29,2.11.37,3.1.19,2.33,2.48,2.54,8,7.44,2.12,1.89,2.92,2.88,4.6,3.15a6.62,6.62,0,0,1,2.83.64c.53.31.67.54,2,1.93,1.82,1.87,2.18,2.08,2.4,2,.54-.25-.11-2.14.54-2.46.48-.24,1,.72,2.19.85.76.09,1.07-.24,2.46-.8,2.46-1,3.06-.59,3.42-1.23s-.19-1-1.44-4.49a6.21,6.21,0,0,0-1.23-2.52c-.67-.7-1-.59-2.09-1.28-1.27-.83-1.31-1.36-3.15-3.21a15.07,15.07,0,0,0-2.25-2c-2.29-1.48-4.58-1.31-4.6-1.93,0-.37.85-.38,1.18-1.12.5-1.13-.79-2.69-.64-2.78s.39.47.91,1c1.19,1.15,2,.76,3.15,1.82.8.74,1.07,1.54,1.34,1.45s0-1.21.53-1.61a1.23,1.23,0,0,1,1.18.05,1.82,1.82,0,0,1,.8,1.29c.16.82-.24,1.08,0,1.71.14.46.4.48,1.12,1.18,1.21,1.16,1.19,1.8,1.87,1.92a1.38,1.38,0,0,0,1.39-.59c.28-.51-.14-1.08.11-1.28s1,.44,1.23.27-.41-1.31-.75-2c-1.22-2.64-.54-5.54-.32-5.56s-.14,2.55,1.34,5.51c1,2.11,2,2.3,2.51,4.33.3,1.14,0,.89.32,3.69.29,2.26.56,2.82.27,4s-.87,1.68-.59,2,1,.14,2.84-.21c3.31-.62,3.8-.45,4.11-.21s.6,1,1,2.4.35,1.78.86,2.36c.08.1.89,1,1.71.8.4-.09.67-.46,1.18-1.18a6.79,6.79,0,0,0,.9-1.55c.43-1.18,0-2.32-.53-4-.76-2.15-1.31-2.34-1.39-3.69-.07-1.13.31-1.16.32-2.51a9.16,9.16,0,0,0-.91-3.75c-.9-2.17-1.36-1.9-1.93-3.47-.65-1.84,0-2.05-.58-4.92-.18-.85-.24-.83-1-3.85-.61-2.36-.66-2.72-.48-2.84.48-.32,2.49,1.16,3.58,3.26.78,1.51.57,2.31,1.07,5.09a39.74,39.74,0,0,0,1.5,5.56c1.22,3.47,1.84,3.32,2.94,6.68.87,2.63.62,3.13,1.5,4.23,1.48,1.86,3.87,2.58,3.69,3.15-.1.3-.73.13-1.23.7a1.46,1.46,0,0,0-.32,1.55c.3.5,1,.2,2.35.43,2,.34,2.24,1.3,3.69,1.17a2.94,2.94,0,0,0,1.87-.8,4.35,4.35,0,0,0,.86-2.94,13.36,13.36,0,0,1,0,1.55c-.1,2.5-.15,3.77.16,4.65.17.5.22.34,1.55,2.2a26.25,26.25,0,0,1,2.73,4.22c.71,1.59.75,2.52,1.23,2.57.8.08,1.55-2.47,1.92-2.35s-.25,1.32.16,2.72c.21.7.5.93,2.84,3.27s2.3,2.36,2.67,2.51a4.5,4.5,0,0,1,2.3,1.34c.08.09.38.49.27.64s-1.6-.5-1.76-.59c-1.85-1-2-1.85-3.69-3-.47-.32-2.48-1.67-3.21-1.07-.42.34-.3,1.2-.16,1.65.28.94.89.88,1.33,1.72.6,1.12-.19,1.76.32,3.79.3,1.18.69,1.43.81,1.5.53.31.94,0,1.87.11s2,.7,2,1-1.88,0-3.64,1.07c-.19.12-1.63,1-1.5,2,.08.57.67.65,1.61,1.55,1.2,1.16.87,1.64,1.65,2.2,1.42,1,2.79-.34,4.28.58.44.28.42.45,1.66,2.68,1.85,3.32,2.27,3.59,2.57,3.74,1.09.55,1.86.08,2.78.91a3.66,3.66,0,0,1,.91,1.45c.56,1.41,0,2,.59,2.78s1.37.35,1.92,1.07c.72.93-.42,2-.26,4.38.1,1.63.7,2.31.21,2.89-.25.29-.49.23-2.19.75a5.06,5.06,0,0,0-1.55.59c-.42.35-.47.71-.91,2.62s-.56,2.26-.32,2.57c.39.49,1,.08,2,.64.21.12.36.24,1.4,1.55a11.14,11.14,0,0,0,1.65,2c.18.13,1.48,1.13,2.2.69.39-.24.46-.82.53-1.5.15-1.33-.24-2.2.11-2.4.19-.12.35.13.64.05.53-.14.53-1.11,1-2.24.27-.7,1-2.21,1.61-2.14.43,0,.87.84.75,1.49s-.83.81-1.45,1.61a4.64,4.64,0,0,0-.75,2.3c-.37,2.25.19,3-.37,5.08a3.55,3.55,0,0,1-.59,1.34c-.71.86-1.58.74-1.93,1.44-.21.43-.07.88.22,1.76a6.92,6.92,0,0,0,1.92,3c.8.7,1.34,1.17,1.82,1,.86-.29.13-2.12,1.45-4.28.52-.87,1.06-1.28,1-2.09a13.08,13.08,0,0,0-.48-1.66c-.22-.86-.33-1.3-.16-1.55a1.61,1.61,0,0,1,2-.05c.76.64.08,1.79,0,4.6-.08,3,.63,4.23-.32,5.29-.6.68-1.11.44-1.6,1.18s-.18,1.49-.11,3.58c.08,2.32-.31,3.15.16,3.43s1.45-.39,2.62-1.23c1.88-1.36,2.23-2.22,2.89-2.09.94.19.64,2.05,2.09,2.78a3.4,3.4,0,0,0,2.56,0,2.58,2.58,0,0,0,1.23-.85c.42-.57.24-.93.59-1.66s.82-.84,1.18-1.39c.61-.95.05-2-.22-3.53-.46-2.76.73-2.92.27-5.3-.27-1.41-.91-2.42-2.19-4.44s-2.35-3.11-2.25-3.21a11,11,0,0,1,3.21,3.05,10.52,10.52,0,0,1,2.51,4.55c.48,2.38-.63,3.12,0,6.15a18,18,0,0,1,.38,2.09c.21,1.72.32,2.76-.27,3.41s-1.5.1-2,.8-.1,1.73.2,4.49c.24,2.25,0,2.69.44,4.37.35,1.35.65,2.42,1.44,2.69s1.4-.41,2.69,0c.51.15.5.28.84.32,1.05.13,2-1,2.89-2.13a40.91,40.91,0,0,0,3.09-4.21c2.2-3.6,1.65-3.73,3-5.25.87-1,1.54-1.44,1.6-2.37s-.6-1.27-1.32-2.77A26.26,26.26,0,0,1,868,548.66Z"/><path d="M384,192a17,17,0,0,0-2.3-3.95,2.37,2.37,0,0,0-1.33-1.18,2.45,2.45,0,0,0-1.39.16,3.43,3.43,0,0,0-1,.59,4,4,0,0,0-1.5,2.94,9.54,9.54,0,0,0,1.34,2.57c1,1.61,1.14,1.78,1.39,1.92.93.55,1.54,0,2.46.48.52.29.4.51,1.39,2a26.46,26.46,0,0,0,2.62,3.15c.31.35.54.59.64.54s-.09-.8-.75-2.62c-.94-2.62-.95-2.58-1.06-3C383.93,193.71,384.46,193.7,384,192Z"/><path d="M378.1,309.55c1.52-.22,2.4.57,2.69.2s-.49-1.46-.76-1.84a3.58,3.58,0,0,0-1.13-1.13,2.37,2.37,0,0,0-2.28-.24,1.91,1.91,0,0,0-.93,1.49,1.78,1.78,0,0,0,.89,1.76C377,310,377.28,309.67,378.1,309.55Z"/><path d="M282.55,322.67c.49-.47.31-.91,1-1.69.54-.6.91-.65,1-1.12a1.73,1.73,0,0,0-.4-1.36,3.72,3.72,0,0,0-2.81-1.13c-1.77-.13-1.89.43-3.45.4a8.9,8.9,0,0,1-4.61-1.6c-1.42-.9-1.08-1.16-2.17-1.69-1.42-.68-2.14-.31-4.61-1-1.22-.34-1.84-.51-2.13-.92-.71-1,.27-2-.2-4.09a4.6,4.6,0,0,0-1.24-2.41,5,5,0,0,0-3.21-1.16,6.32,6.32,0,0,0-3.93.6c-1.37.77-1.17,1.55-2.61,2.33a6.49,6.49,0,0,1-3.09.68c-.78,0-1.37-.08-4.53-1.09-3.89-1.23-4.31-1.5-4.69-2a12.47,12.47,0,0,1-1.49-2.61c-.28-.7-.43-1.29-.64-1.28s-.43,1-.48,1.4a14.54,14.54,0,0,0,0,2.69c0,1.53-.56,1.41-.8,3.33a8.39,8.39,0,0,0,.08,3.21c.17.72.33.9.64,2.16.23,1,.2,1.1.4,1.41a3.38,3.38,0,0,0,2.21,1.16,5.8,5.8,0,0,0,1.88.16,5,5,0,0,0,1.61-.36,5.77,5.77,0,0,0,1.56-1,6.61,6.61,0,0,1,4-1.21c.49,0,.43.1,3,.93a24.34,24.34,0,0,1,3,1,11.49,11.49,0,0,1,3.25,2.53c1.38,1.43,1.25,1.84,2.2,2.4,1.44.86,2,.09,3.17.81s1,1.91,2.85,5c.56.95.34.43,1.12,1.68.55.87.72,1.23,1.05,1.25s.59-.34,1.16-1a7.77,7.77,0,0,0,.84-1.21,9.82,9.82,0,0,0,.8-2.12,5,5,0,0,1,3-2.85c1-.33,1.2.16,4.74.32C281.41,323.17,282.07,323.13,282.55,322.67Z"/><path d="M228.92,411.28c-1.11-.61-1.59,0-3.33-.53a7.12,7.12,0,0,1-1.88-.84c-1.1-.66-1.84-1.1-2.13-1.92-.36-1,.26-1.89-.32-2.41a1,1,0,0,0-.68-.24c-.75,0-1.34,1.06-1.41,1.93a2.92,2.92,0,0,0,.85,2c.66.79,1.07.68,2.72,1.81a14.51,14.51,0,0,0,1.73,1.2,7.94,7.94,0,0,0,2.37.6c2.78.49,4.16,1.36,4.37,1,.12-.2-.25-.63-.8-1.28A5.31,5.31,0,0,0,228.92,411.28Z"/><path d="M330.53,424c-.34-2.05-.47-2.74-.52-3.09-.5-3.15.88-4.51-.2-5.93a2.87,2.87,0,0,0-1.25-.93c-1.41-.5-2.54.59-3.41,0-.36-.26-.18-.46-.76-1.2a3.13,3.13,0,0,0-1.48-1.24c-1.22-.32-1.89,1.24-3.21,1-.93-.17-1.09-1-1.73-.92-.82.13-.63,1.56-1.84,2.36-.95.63-1.57.09-2.29.81-.51.5-.39,1-1,1.76a3.24,3.24,0,0,1-1.09,1c-.75.38-1.72.13-3.61-.4a25.28,25.28,0,0,0-2.68-.6c-.84-.14-1.13-.14-1.29,0-.47.52.53,2.12.77,2.49a8.78,8.78,0,0,0,1.68,2,45.86,45.86,0,0,0,4.21,3.33,18.53,18.53,0,0,0,3.93,2.49,14.17,14.17,0,0,0,2.77.76c2.33.36,3.66-.14,4.17.6.25.37-.28.83,0,1.49,0,.09.1.18.6.68.71.7,1.07,1.05,1.25,1,.37-.1.61-1,.28-1.48s-.62-.16-1.08-.56-.63-.81-.49-1.17.5-.37,1-.48c2.05-.49,1.48-.54,2.64-.72s1.2,0,2.61-.24c1.65-.23,1.91-.46,2.05-.64C330.8,425.63,330.71,425.06,330.53,424Z"/><path d="M400.72,465.47c.56-.29,1,.07,1.33-.24s.08-.48.4-.93.44-.3.8-.68a3,3,0,0,0,.6-1,8.64,8.64,0,0,0,.52-1.48c.5-1.52,1.47-2,1.29-2.29s-1.59.08-2.61.84c-.56.42-.58.63-1.24,1.09-1,.68-1.26.43-1.65.88s-.2.72-.32,3.17c0,.74-.08,1.4.08,1.44S400.18,465.75,400.72,465.47Z"/><path d="M261.05,503.86c-1.18.28-1.59.13-2.16.56-.2.14-.52.38-.49.64.06.44,1.1.73,1.93.68A2.32,2.32,0,0,0,262,505c.36-.45.57-1.17.32-1.4S261.91,503.65,261.05,503.86Z"/><path d="M268.51,520.66a1.32,1.32,0,0,0,.08.68,1.53,1.53,0,0,0,.69.65c1.31.78,1.52,1.22,1.84,1.08s.16-.49.44-1c.56-1,1.87-1.13,1.85-1.33S272.32,520.47,268.51,520.66Z"/><path d="M10.15,616.29a16,16,0,0,0-2.29-.4,10.79,10.79,0,0,0-3.57.08c-.19,0-.58.16-1.36.4C1,617,0,617.28,0,617.45s1.56.71,3.09.49c.56-.08.93-.22,1.16,0,.43.4-.36,1.33,0,2,.22.37.6.32,2.69.6,1.72.24,2.3.4,2.89,0,.3-.2.21-.29.72-.72.84-.71,1.25-.61,1.52-1.08a1.64,1.64,0,0,0-.16-1.69C11.76,616.79,11.47,616.59,10.15,616.29Z"/><path d="M18.49,628.08c-.4-.34-1.14-.05-1.88.25-.22.08-2.65,1.07-2.49,1.76,0,.15.62.34,1.8.72a3.77,3.77,0,0,0,1.41.28,1.55,1.55,0,0,0,1.08-.32,1.88,1.88,0,0,0,.36-1.52C18.76,628.68,18.75,628.3,18.49,628.08Z"/><path d="M78.38,637.67c-.31,0-.57.35-.88.72a27.17,27.17,0,0,1-2.69,2.09c-1.58,1.16-1.77,1.18-2.09,1.68-.52.82-.78,2-.4,2.25s.68,0,1-.16a4.68,4.68,0,0,0,1.6-1.32c0-.06.76-.7,2.17-2S79,639.34,79,638.75,78.71,637.72,78.38,637.67Z"/><path d="M101.16,653.8c-.46-.52-.35-.76-.76-1.41a5.58,5.58,0,0,0-2.61-2c-.86-.38-.83-.15-1.76-.56-1.24-.56-1.89-1.23-2.21-1s-.12.65-.12.68c.18.84,1.19,1,3,2.09a8.92,8.92,0,0,1,2.21,1.52c.42.47.83,1.07,1.8,2.09a2.58,2.58,0,0,0,.72.6,3.4,3.4,0,0,0,2,.16,21.55,21.55,0,0,0,2.57-.16c0-.14-1.36-.2-3.25-1A4,4,0,0,1,101.16,653.8Z"/><path d="M106.1,640.56a2.1,2.1,0,0,0-.2,1.64c.26.94,1.21,1.74,1.84,1.57.46-.12.48-.67,1.09-1.57a6.39,6.39,0,0,1,1.52-1.6C108.53,639.55,106.73,639.69,106.1,640.56Z"/><path d="M144.2,642.85a1.54,1.54,0,0,0-.56-.24c-.84-.19-1.93.29-2,.84s.51.53,1.64,1.92a3.91,3.91,0,0,1,.72,1.25c.15.41.28.76.12,1-.26.48-1.1.27-1.2.6s.44.72.88.92a1.94,1.94,0,0,0,2.77-1.48c.07-.38,0-.42,0-.8a2.68,2.68,0,0,1,1-1.65,4.14,4.14,0,0,1,2-.48,9.37,9.37,0,0,1-3.17-.72C144.63,643.09,144.2,642.85,144.2,642.85Z"/><path d="M157.8,641.12c-.32-.11-.84.65-.92.76-.69,1-.33,1.62-.92,2.61a3.77,3.77,0,0,1-1.33,1.28,8.29,8.29,0,0,1-2.12.77c-1.57.47-1.86.55-1.85.64s1,.06,3,.24c.5,0,1,.06,1.49.12,1.13.13,1.41.24,1.68,0s.21-.4.44-1.57c0,0,.1-.46.28-1.24a11.26,11.26,0,0,0,.52-2.33C158.09,642.14,158.13,641.23,157.8,641.12Z"/><path d="M166.43,643.61a2,2,0,0,1-1.29-.84c-.42-.83.44-1.62,0-2.17a1.77,1.77,0,0,0-2.4.2c-.16.23-.12.43-.08,1.08a7,7,0,0,1-.16,3,13.09,13.09,0,0,1-1.09,1.37,7.18,7.18,0,0,0-.84,1.08c-.26.46-.65,1.14-.4,1.52.08.13.2.18,2.25.2a1.54,1.54,0,0,0,.84-.12c.47-.23.55-.67.8-1,.48-.71,1.38-.87,2.53-1.08,1.63-.3,2.2.12,2.81-.44A2,2,0,0,0,170,645a1.61,1.61,0,0,0-.36-1.08C169,643.3,168,644.11,166.43,643.61Z"/><path d="M173.25,638a1.32,1.32,0,0,0-.89.08c-.13,0-1.1.4-1.16,1s.62.61,1.24,1.72c.32.56.34.87.53.88.36,0,.69-1.1.88-1.72a2,2,0,0,0,.12-1.13A1.31,1.31,0,0,0,173.25,638Z"/><path d="M203.09,631.13a2.5,2.5,0,0,0-1.44-.52c-.71,0-1.69.27-1.81.8s.58.66.84,1.61a2,2,0,0,1-.12,1.6c-.34.52-.77.3-2.08,1-.44.23-.4.26-1.33.8-.44.25-.76.44-1.16.64a10,10,0,0,1-1.64.68c-1.15.33-1.51,0-2.89.08a14,14,0,0,0-2.45.6c-2,.58-3.33,1-3.29,1.25s1.41.27,3.57.28,2.14-.1,4.13-.08a18.21,18.21,0,0,0,3.17-.08c1.94-.29,2.47-.84,2.69-1.17s.18-.73.52-1,.86-.07,2.45,0c.49,0,.64,0,.72-.12.23-.35-.53-1.33-.84-1.72-.48-.61-.75-.79-.69-1s1,.08,1.81-.4a2,2,0,0,0,.92-1.32A2.34,2.34,0,0,0,203.09,631.13Z"/><path d="M216.53,638.23c-1-.08-1.2.06-2.65,0-2.51,0-2.76-.49-2.81-.64s.14-.45,0-.64-.62-.12-1.4,0a11.69,11.69,0,0,0-2.25.32c-.52.2-1.28.48-1.32.92-.06.66,1.52,1.38,2.57,1.69a9.27,9.27,0,0,0,5.09-.08,13.92,13.92,0,0,1,2.61-.93c1.41-.23,2.47,0,2.48-.12A5.43,5.43,0,0,0,216.53,638.23Z"/><path d="M228.88,631a2,2,0,0,0-2.44.76,2,2,0,0,0,.28,1.89c.17.27.33.53.6.56.42,0,.56-.55,1.4-1.2.68-.53,1.06-.51,1.12-.84S229.38,631.22,228.88,631Z"/><path d="M255.64,625c-1-.41-1-.69-1.33-.69-.77,0-1.31,1.35-1.4,1.57s-.48,1.2-.16,1.48,1.75-.55,2.17-.84,1.27-.89,1.12-1.28C256,625.09,255.89,625.06,255.64,625Z"/><path d="M267.07,618.58c-1.14.08-2.48.6-2.45,1s.87.54,2.17.84c1.09.26,1.4.18,1.6.08.57-.26,1.05-.94.89-1.4C269,618.43,267.34,618.56,267.07,618.58Z"/><path d="M295.27,602.25a.78.78,0,0,0-.36-.28c-.38-.12-.79.18-1.05.36-.56.4-1.18.71-1.76,1.09-1.54,1-2,.53-2.65,1.28a3,3,0,0,0-.52,2.41c.2.95.85,1.37.64,1.72s-.64.18-1.6.2a7.16,7.16,0,0,0-2.61.32,4.58,4.58,0,0,0-2.13,2.45c-.3.66-.14.64-.64,2.2a13.64,13.64,0,0,1-.92,2.45c-.74,1.43-1.42,2-1.28,2.17s1.22-.66,3.29-1.81c2.23-1.24,2.36-1,3.37-1.8a13.5,13.5,0,0,0,2.76-3.09c1-1.47.79-1.61,1.45-2.21,1.06-1,1.92-.8,3.45-1.72a10.74,10.74,0,0,0,2-1.65,5.14,5.14,0,0,0,1.41-1.72c.11-.27.59-1.45.12-1.93S295.94,603,295.27,602.25Z"/><path d="M321.7,595.55c-1.31.76-1.82.4-2.81,1.25-.45.38-.67.73-1.08.72a1.11,1.11,0,0,1-1-1c0-.58.86-.63,1.84-1.77a9.18,9.18,0,0,0,.89-1.28,9.36,9.36,0,0,1,1-1.69c.59-.61,1.12-.75,1.08-.84a2.27,2.27,0,0,0-2,.76c-.35.4-.22.56-.6,1a2.45,2.45,0,0,1-1.65.72,1.54,1.54,0,0,1-1.08-.32c-.14-.13-.32-.36-.44-1.25-.18-1.25.07-1.51-.16-1.76s-.53-.28-3.09.44a12.38,12.38,0,0,0-2.09.68c-.67.37-2,1.07-2.16,2.37a2.78,2.78,0,0,0,1.16,2.69c1.64,1,3.88-.9,5,.2,0,0,.37.36.28.6s-.92.24-2.6.32c-1.92.08-2.24.26-2.45.4-.46.32-.68.8-1.12,1.76a13.14,13.14,0,0,0-.77,2.21c-.37,1.46-.2,1.64-.52,2s-.81.14-2.93.48a20.37,20.37,0,0,0-2.36.52,9.6,9.6,0,0,0-1.05.32c-.82.33-2,.8-2.32,1.84a2.24,2.24,0,0,0,.88,2.53c.69.34,1.48,0,2.65-.64a18.83,18.83,0,0,0,2.24-1.48c.79-.53,1.59-1,3.17-1.93a7.84,7.84,0,0,1,1.77-.84,7,7,0,0,1,1.72-.28c2.13-.17,3.19-.26,3.93-.89a18.28,18.28,0,0,0,1.81-3.69c.26-.6.46-1.06.92-1.24.72-.28,1.19.46,2.09.28.48-.09.92-.59,1.8-1.6a12.8,12.8,0,0,0,1.33-1.81c.24-.4.76-1.26.64-1.36S323,594.81,321.7,595.55Z"/><path d="M329,585.65a4.65,4.65,0,0,0-1.52-.85c-.57-.17-2.2-.66-3,.28a2.45,2.45,0,0,0-.12,2.61c.07.15.59,1.17,1.36,1.2s.81-.71,1.81-.84a2.52,2.52,0,0,0,1.08-.16,2.4,2.4,0,0,0,.64-.52c.37-.38.56-.56.57-.8S329.49,586,329,585.65Z"/><path d="M332.81,584.24a1.76,1.76,0,0,0-.88-.16,1.61,1.61,0,0,0-.44.12c-.57.27-1.06,1.15-.76,1.69s1.26.46,1.56.44a3.63,3.63,0,0,0,1.09-.32c.72-.31,1.24-.52,1.24-.81S334,584.76,332.81,584.24Z"/><path d="M339.27,587.09c-.62,0-.93-.18-1.28,0s-.55.57-.44.84,1,.37,2.36.32a1.61,1.61,0,0,0,1-.24c.36-.27.64-.8.48-1S340.59,587.18,339.27,587.09Z"/><path d="M375,577.65c-.6-.49-.76-.86-1.07-.8a.59.59,0,0,0-.43.43c-.1.39.34.83.69,1.17a1.25,1.25,0,0,0,.17.16c.66.6.9.58,1.17.91s.25.84.43.86.41-.45.48-.81a1.42,1.42,0,0,0-.05-.85C376.18,578.21,375.77,578.28,375,577.65Z"/><path d="M382,565.24c-.21-.1-.41.18-1.56.59a2.62,2.62,0,0,1-.53.16c-.78.12-1.34-.3-1.39-.21s.94.53,1.5,1.55c.33.61.29,1,.58,1.12.48.13,1.09-.8,1.13-.86C382.32,566.7,382.39,565.43,382,565.24Z"/><path d="M409.55,555.56c-.23.06-1.11.31-1.5-.11s.12-1.15-.27-1.55-.68-.1-1.87,0c-1.66.15-1.81-.1-2.14.16-.61.49-.44,1.63-.1,3.85.27,1.78.52,2.07.64,2.2,1.06,1.09,3.41.82,3.79,0,.12-.25,0-.63-.16-1.39-.21-.91-.46-1.27-.26-1.55s.52-.26.85-.27c1.17,0,1.67.63,2.2.37.2-.1.31-.41.53-1s.65-1.82.37-2S410.85,555.2,409.55,555.56Z"/><path d="M417.84,557.54a5,5,0,0,0-1.28,2.14c-.72,1.66-1.32,1.4-2.2,3.26-.32.69-.93,2.18-.59,2.41s.94-.44,2.3-1.66,1.47-1.49,1.61-1.82c.27-.65.07-.78.27-1.92.28-1.71.94-2.67.69-2.84S418,557.43,417.84,557.54Z"/><path d="M482.34,543.74c.23-.08.09-.52.37-1.39s.55-.93.49-1.34a1.38,1.38,0,0,0-1.13-1,1.7,1.7,0,0,0-1.82,1.6c0,.18.09.26.86,1.07C482,543.65,482.19,543.79,482.34,543.74Z"/><path d="M498.87,521.06c-.51-.23-1.56,1.11-2.62,2.46-.88,1.12-1.73,2.2-1.45,2.57s1.66-.22,1.77-.27a4.52,4.52,0,0,0,1.76-1.49,4,4,0,0,0,.59-1C499.22,522.48,499.28,521.25,498.87,521.06Z"/><path d="M505.77,520.58a2.44,2.44,0,0,0-1.88.27c-1,.53-1.81,1.67-1.55,2.09s1.28-.3,3.27-.16c1.46.09,2.37.57,2.51.32.05-.09,0-.22-1.18-1.45C506.11,520.77,506,520.67,505.77,520.58Z"/><path d="M533.58,492.87c-.25-.19-.63.23-1.57.36a2.49,2.49,0,0,1-1.52-.12c-1-.58-1.15-2.82-.32-4.34.46-.83.94-.94,1-1.64a2.12,2.12,0,0,0-1.4-2.09c-.42-.1-.81,0-1.57.36-.92.38-1.3.72-2.57,1.37-1,.52-1.21.53-1.32.44-.37-.3.56-1.48.08-2.21s-1.71-.46-1.84-.44a2.46,2.46,0,0,0-1.61,1c-.38.6-.1.94-.48,1.41a1.82,1.82,0,0,1-1.85.52c-.65-.22-.79-.82-1.52-2.05a7.55,7.55,0,0,0-2.13-2.6c-.13.08,1.18,1.58.77,3.13-.12.42-.2.25-.6,1.16-.07.16-.35.8-.93,2.53-.2.59-.26.8-.36.8s-.48-1.27-.56-2c-.18-1.49.07-1.9-.32-2.36a2.35,2.35,0,0,0-1.81-.57,3.1,3.1,0,0,0-2,.61,2.64,2.64,0,0,0-1.12,2.48c.18.77.85,1.2,1.6,1.69,1.25.8,2.28.9,2.26,1.15s-2.24,0-2.86,1c-.34.58,0,1.16-.24,3.17-.06.39-.11.66-.24.68s-.48-.77-1.17-2.12c-.84-1.66-1.25-2-1.4-2.09a3.2,3.2,0,0,0-1.81-.56c-1,0-1.77.5-3,1.33a15.64,15.64,0,0,0-2.13,1.8c-.58.56-.82.85-1.93,2.05l-1.72,1.84c.19,1.3.37,2.59.56,3.89,1.85-.33,2.46,0,2.68.32s-.14,1-.22,2.41c0,.69-.11,2.12.43,2.35s1.3-1.2,3.16-1.49c.12,0,.95-.16,1.06.1s-.14.38-.64.86c-1.08,1.05-1.62,1.58-2,1.87-.93.76-1.09.77-1.12,1-.08.61.87.8,2,2.19.72.89.83,1.45,1.34,1.5s1.09-.63,1.23-.81c.64-.86.2-1.33.69-2.35.39-.81,1.05-1.25,2.36-2.14.7-.48.86-.47.9-.43.23.22-1.44,1.79-1,2.62.25.49,1,.3,1.34.91a1.69,1.69,0,0,1-.06,1.34,4.53,4.53,0,0,1-1.55,1.87c-1.09.94-1.72,1.18-1.71,1.71a1.14,1.14,0,0,0,.43.75,1.62,1.62,0,0,0,1.28.43c.95-.15.8-1.52,2-2.89s2-.84,3-2.24a8.31,8.31,0,0,0,1-2.09c.55-1.41.2-2.11.75-2.51s1.38.2,2.08-.32c.51-.39.28-.89.88-1.65a3.68,3.68,0,0,1,1.36-1,10.59,10.59,0,0,1,2.77-.72c2.07-.45,2.25-.62,2.25-.73s-1.07-.15-1.85-1c-.31-.32-.77-1-.56-1.4.33-.67,2.42-.79,3.61.12a3.4,3.4,0,0,0,1,.72,2,2,0,0,0,1.57,0,1.84,1.84,0,0,0,1-1.36,2.55,2.55,0,0,0-1-2.13c-.79-.61-1.3-.29-2.37-1-.5-.33-1.15-.9-1-1.13s1.7.14,2.32.33.6.2,1.41.48a14.51,14.51,0,0,0,3.13.84c1,.11,1.51.17,2-.08.62-.34.89-1.21,1.41-2.93S533.7,493,533.58,492.87Z"/><path d="M520.34,484.84c.74-.47,1.12-.41,1.2-.72a.58.58,0,0,0-.2-.56c-.4-.35-1.12.1-1.16.12a1.16,1.16,0,0,0-.56.72c-.06.27,0,.65.16.72S520,485,520.34,484.84Z"/><path d="M519.14,482.28a1.22,1.22,0,0,0-1-.65c-.18,0-.58-.07-.72.12-.28.42.7,1.9,1.28,1.77A1,1,0,0,0,519.14,482.28Z"/><path d="M522.35,482.8a1.74,1.74,0,0,0-.28-.34s0,0-.05,0S522.33,482.81,522.35,482.8Z"/><path d="M536,473c-.94-.45-1.12-1.78-1.26-1.74s.32,1.18-.1,1.54-1.91-.2-2.09-1c-.09-.44.21-.84.12-.89s-.94,1.42-1.56,1.29c-.36-.08-.53-.68-.56-.81-.17-.59.14-.77,0-1.4a2.22,2.22,0,0,0-.8-1.32,2.38,2.38,0,0,0-1-.44,4.59,4.59,0,0,0-2.6.4c-1.24.47-2.12.8-2.17,1.36-.06.74,1.38,1.05,1.36,1.93s-1.16,1.36-1.32,1.44c-.94.47-1.55.15-2.09.72a1.66,1.66,0,0,0-.4,1c0,1.11,1.86,1.6,1.73,2s-.92.3-1.53.08a2.58,2.58,0,0,1-1-.72c-.37-.44-.34-.72-.6-.8s-.45.06-1.12.6-1.13.94-1.61,1.36a8.22,8.22,0,0,0-1.12,1.05c-.32.37-.86,1-.68,1.32s.42.07,1.12.16a5.19,5.19,0,0,1,2.09.76c.55.35.45.44.88.64.72.34,1,.08,1.68.4a2.78,2.78,0,0,1,.73.55c.13,0,.57.09,1.08.1a3.48,3.48,0,0,0,2-.69,4.5,4.5,0,0,0,1.29-1.56c.66-1.06.57-1.37,1.2-2.21.47-.62.85-1.13,1.36-1.12s.66.61,1.53.92a2,2,0,0,0,1.48,0c1-.55.56-2.68,1.13-2.8.34-.08.56.67,1.64,1.4.56.38,1.33.74,1.48.56s-.24-.75-1-2c-.27-.46-.46-.77-.36-.89s.86.43,1.4.16a.92.92,0,0,0,.45-1.08C536.69,473.08,536.38,473.16,536,473Z"/><path d="M529.73,467.15c.21-.21,0-.44.24-.76s.37-.24.76-.52a3,3,0,0,0,.64-.68c.45-.57.93-1.19.76-1.45s-.6-.06-1.6.12a7,7,0,0,0-1.85.57,1.77,1.77,0,0,0-.36.2,1.69,1.69,0,0,0-.36,2.2,1.47,1.47,0,0,0,1,.48A1,1,0,0,0,529.73,467.15Z"/><path d="M516.37,441.16a1.36,1.36,0,0,0-.56-.2,2.39,2.39,0,0,0-1.93.88c-.22.26-.61.7-.48.92s1.2-.34,2.89-.2c.32,0,.6.08.72-.08S516.9,441.5,516.37,441.16Z"/><path d="M599.44,419.42c-.19-.24-1-.11-1.52.4s-.19.87-.64,1.36-.76.27-1.61.85c-.43.29-.8.54-.76.8s.87.23,1.8,1c.39.3.47.5.77.52a1.05,1.05,0,0,0,1-.84c0-.37-.3-.45-.28-.84s.39-.45.68-1.08a7.57,7.57,0,0,0,.24-1C599.38,419.73,599.55,419.56,599.44,419.42Z"/><path d="M601,418.26c.21-.07.07-.54.28-1.41s.51-1,.68-2c.09-.49,0-.61.08-1,.15-1.34,1-1.76,1.4-2.76.69-1.72-.4-3.88-.8-3.85s0,1.07-.8,2.4-1.27,1.06-1.81,2.29a15.55,15.55,0,0,1-.64,1.8,13.11,13.11,0,0,0-.56,1.21,2.48,2.48,0,0,0-.28.92c.07.53.61.58,1.48,1.44C600.6,417.92,600.77,418.32,601,418.26Z"/><path d="M611.56,413.72c-.48-.56-.38-1-.81-1.16a1.41,1.41,0,0,0-1.56.6c-.39.66.21,1.24,0,2.29-.1.57-.36.91-1.08,1.8-1.36,1.67-2,2.5-2.85,3.45-2,2.29-1.51,2-2.21,2.65-1.78,1.68-2.89,1.77-3.37,3.13-.07.21-.18.81-.4,2-.15.86-.17,1.06,0,1.21.47.5,2.17-.4,2.25-.44l1.32-.93c.68-.47.95-.66,1.37-.92.7-.44.7-.38.88-.52.8-.67.38-1.69.8-2.81.5-1.33,1.47-.84,3-2.65,1.1-1.32.81-1.87,2.08-3.12a14.55,14.55,0,0,0,1.37-1.37c.72-.86,1.26-1.49,1.08-2S612.3,414.61,611.56,413.72Z"/><path d="M624.07,411c-1.29-.07-1.94-.1-2.13-.37s.19-.82-.08-1.16-1.13.09-2.8,0c-.81,0-1-.18-1.33,0a1.73,1.73,0,0,0-.52,2.21c.63.82,2.53.08,2.73.6.12.33-.62.65-1.12,1.72-.34.73-.53,1.72-.24,1.89s.86-.92,2.44-1.61a16.74,16.74,0,0,0,2.13-.72,6.91,6.91,0,0,0,1.52-1.08c.46-.43,1-1,.88-1.24S625.2,411.05,624.07,411Z"/><path d="M630.77,405.06c0-.05-.14-.13-2.37.56l-1.36.44c-1.09.37-.94.35-1.73.6a10.71,10.71,0,0,0-1.2.44c-.58.28-.87.43-.92.69-.08.43.56.89,1,1.08a1.76,1.76,0,0,0,1.44.08c.48-.23.36-.57.89-.84s.66-.06,1.2-.32a3.46,3.46,0,0,0,.68-.52c.8-.66,1-.63,1.53-1.13C630.17,405.89,630.89,405.26,630.77,405.06Z"/><path d="M653.43,423.47c-.75.09-1.33.55-2.8,2.29-1.73,2-1.67,2.27-1.61,2.36.18.27.94.19,1.45-.16s.36-.61.88-1.32a15.39,15.39,0,0,1,1.44-1.4c.93-.93.79-.85,1.08-1.09s.56-.39.53-.52S653.79,423.43,653.43,423.47Z"/><path d="M520.42,505.18a7.65,7.65,0,0,0-2,.32c-1.49.32-1.67.38-1.87.59a1.74,1.74,0,0,0-.38,1.71c.12.29.25.27.81,1.07.26.38.27.43.37.48.37.17.78-.22,1.82-.85a8.08,8.08,0,0,1,1.82-1c.91-.27,1.41-.08,1.6-.43s-.11-.93-.37-1.23A2.53,2.53,0,0,0,520.42,505.18Z"/><path d="M798.43,522.4c-.12-1.88.22-2.15.26-5a17.09,17.09,0,0,0-.1-2.94,19.94,19.94,0,0,0-1-3.59,37.72,37.72,0,0,1-1-4.44c-.67-4.34.49-5.8-.75-7.11-.36-.38-.35-.15-3.37-1.34-2.19-.86-2.51-1.11-3.85-1.55a21.57,21.57,0,0,0-3.58-.85c-.68-3.23-.51-4.14-.16-4.28.16-.07.43.09,1,.43l2.14,1.33c.92.7.59.33,4.33,2.68,2.07,1.3,2.62,1.69,3,1.44.72-.42.42-2.24.37-2.51-.23-1.29-.76-1.39-1-2.68-.29-1.45.25-2-.16-2.4-.76-.7-2.51,1.15-4.34.48-.93-.35-.64-.9-2.14-2.09s-2.15-.94-3.47-2.19c-.76-.71-1.54-1.73-1.34-2s.72.07,1.18.27a28.4,28.4,0,0,1,2.78,1.71c.43.25.34.16.69.37,1.07.63,1.34,1,2.36,1.71s1.35.93,1.71.81c.61-.21.65-1.18,1.34-1.29.37-.06.61.19.74.06s0-.85-.42-1.29c-.69-.71-1.46-.26-2.41-1-.6-.44-1-1.16-.86-1.39.06-.08.22-.17,2.2.32,1.1.27,1.34.37,1.55.21.43-.33.15-1.38-.06-2.13a4.7,4.7,0,0,0-.8-1.93c-1.28-1.58-3.69-1.33-4.06-1.28a5,5,0,0,0-2.57,1.07,3.79,3.79,0,0,0-1.39,1.87c-.14.48-.09.8-.27.85s-1.15-.75-1.17-1.71a2.35,2.35,0,0,1,1.12-1.92c.27-.18.37-.15,1.34-.65.56-.28.72-.39.8-.58s0-.61-.43-1.23a5,5,0,0,0-2.78-2.36,4.68,4.68,0,0,0-2-.05,8,8,0,0,0-2.14.78c-1.57.75-1.59,1-2.49,1.36-1.23.45-1.53.05-2.81.32a5.46,5.46,0,0,0-3.69,2.49,5.62,5.62,0,0,0,.11,4.36,8.15,8.15,0,0,0,1.07,2.08A13.78,13.78,0,0,0,774,487.9a15.76,15.76,0,0,1,2.35,2.46c.71,1.36.15,2,.91,3.7a8.28,8.28,0,0,0,1.28,2,21.64,21.64,0,0,0,4,3.59c.92.68,1.6,1.11,1.5,1.39-.16.45-2.13-.11-2.51.64,0,.09,0,.16.16,1.18s.3,1.45.37,1.65c.34.93.63,1,.64,1.5s-.27.75-.64,1.45-1.06,2.31-.59,2.78,2-.39,2.46-.64a3.11,3.11,0,0,0,1.34-1.23,6.1,6.1,0,0,0,.27-1c.23-.76.8-1.86,1.28-1.82.29,0,.44.44.8,1.39,1.13,3,1.1,2.84,1.13,2.94.85,3.37-1,5,.16,6.69.67.94,1.37.53,2.56,1.87a7.93,7.93,0,0,1,1.5,2.83c1,2.65.5,3.13,1.45,5.14a12.22,12.22,0,0,0,1.87,2.78c.75.93,1.44,1.77,1.92,1.6.18-.06.36-.27.54-1.49a15.88,15.88,0,0,0,.1-3.69C798.65,523.48,798.51,523.65,798.43,522.4Z"/><path d="M806.13,504.32c.74-1.75.32-3,1.17-3.42s1.36.39,2.2,0a1.86,1.86,0,0,0,1-1.77c-.15-.95-1.39-1.17-1.39-2.08a1.61,1.61,0,0,1,.32-.81,4.71,4.71,0,0,0,0-3.37c-.42-1.65-1-2-2.25-4.22-.95-1.75-2.18-4.48-1.76-4.76s1.22.71,1.71,1.28a8.55,8.55,0,0,1,1.34,2.36,34.34,34.34,0,0,0,1.92,4.38c.48.78,1.08,1.56,1.18,1.5s-.16-.52-.53-1.55a10.9,10.9,0,0,1-.7-2.35c-.14-1.17.26-1.35.21-2.3-.06-1.35-.88-1.71-1.92-3.53-1.27-2.23-.56-2.6-1.61-4a7.41,7.41,0,0,0-4.33-2.52c-2.07-.35-2.53.58-3.74,0-.77-.4-1.45-1.63-2.78-4.06-.75-1.36-1-1.92-1.13-1.88-.35.11.51,3.89.75,4.92.77,3.34,1,3.22,1.39,5.3.67,3.43,0,3.6.8,6.58.4,1.54.71,2.05,1.18,4.17.22,1,.34,1.79.59,3.37a29.31,29.31,0,0,1,.59,5c-.21,2.1-1,2.19-1.23,4.49-.07.64-.41,3.72.8,4.28.82.38,2-.56,3.37-1.66A8.45,8.45,0,0,0,806.13,504.32Z"/><path d="M811.37,522.83c.9-.57,1.68-1.07,2.35-.75a2.28,2.28,0,0,1,.81,2.57c-.21.67-.66.9-.54,1.17.19.45,1.55.28,2.46.16a11.55,11.55,0,0,0,4.39-1.23c.64-.34.64-.43,1.87-1.12,1.71-1,2.2-1.07,2.62-.91s.43.68,1.07,1.07a2.88,2.88,0,0,0,3.1-.37,2.65,2.65,0,0,0,.91-2.94c-.2-.71-.59-1.31-2.46-3.05-1.62-1.51-1.8-1.51-2.25-2.2a18.06,18.06,0,0,1-1.12-2.24c-.7-1.55-.59-1.55-.8-1.77-.9-.9-2.1,0-4.55-.48a11.68,11.68,0,0,1-3.53-1.34c-1.74-.93-1.79-1.42-2.83-1.65-1.62-.37-3.76.29-4.07,1.39-.09.31,0,.72,2.46,4.22.75,1.06,1.47,2,1.23,2.3s-1.35-.58-1.92-.16-.08,2.09-.27,2.14-.71-1.48-1.71-3.37c-.8-1.5-1.12-1.74-1.39-1.87-1.33-.64-3,.47-3.05.53a3.17,3.17,0,0,0-1.34,1.77c-.26,1.16.63,1.55,1.18,3.48s-.07,2.47.69,4c.41.81,1.2,1.89,1.82,1.76s.67-1.6,1.07-1.6.94,1.46.59,2.78c-.14.54-.55,1.46-1.12,1.5s-.68-.63-1-.59c-.87.08-1.08,4.4-.75,7.22a9.3,9.3,0,0,0,1.13,3c.07.14.38.69.58.64s-.06-1.18.59-1.87c.34-.36.58-.23.8-.54.6-.81-.53-2.56-.42-2.62s1.13,1.77,1.39,1.66-.32-1.05.16-1.77c.26-.39.53-.27.85-.64s.33-.67.22-2.73a9.61,9.61,0,0,0-.22-2.13c-.31-1-.68-1.1-.64-1.66C809.78,523.84,810.63,523.3,811.37,522.83Z"/><path d="M828.38,526.14a13.09,13.09,0,0,0-1.61-.53c-1.09-.38-1.17-.47-1.44-.43a2.17,2.17,0,0,0-1.55,1.93,2.73,2.73,0,0,0,.69,1.92,3.73,3.73,0,0,0,1.5,1.18,2.8,2.8,0,0,0,2.51,0,2.41,2.41,0,0,0,1.13-1.6A2.65,2.65,0,0,0,828.38,526.14Z"/><path d="M838.32,562.78c.25-.71.78-.8,1-1.55.13-.53,0-.94-.64-2.25s-.82-1.81-1.29-2.78c-1.2-2.5-.88-2.28-1.23-2.72-1.55-2-4-1.26-5.08-3.27-.29-.51-.52-1.26-.27-1.49s1.94.3,3,1.28a4.77,4.77,0,0,0,1.82,1.23c.48.17.6.1.64,0s-.26-.89-.86-1.76c-1.24-1.83-1.66-2.36-2-2.84-1.41-2.14-.46-2.79-1.71-4.6-1-1.42-1.54-1-3.26-3-1.27-1.48-1-1.76-2-2.68-1.66-1.48-2.72-1.08-3.26-2.24s.21-1.63-.43-3.21a4.89,4.89,0,0,0-1-1.5,4.06,4.06,0,0,0-1.93-1.18c-1.35-.3-1.8.6-3.26.33-1-.2-1.44-.77-1.77-.54s.06,1.1.16,2.78a5.81,5.81,0,0,1-.37,3.21c-.6,1.15-1.34,1-2,2.09s-.79,3.07,0,3.63,2.23-.07,3-.91c.56-.61.43-1,1-1.28s1.26,0,2.62.48c1.07.4,1.12.58,1.12.64.06.56-1.8.82-1.87,1.66,0,.1,0,.24,1,1.5.65.81.77.91.8,1.18.06.57-.38,1.06-.85,1.6-.79.89-1.26.9-1.34,1.39a1.69,1.69,0,0,0,1,1.55c.78.38,1.22-.16,1.93.22.45.23.68.71,1.12,1.65.37.78.25.78.7,1.82.26.61.45.94.75,1.71s.39,1,.32,1.18c-.37.76-2.82-.18-3.21.54-.27.5.56,1.67,1.5,2.24.61.38.83.23,1.49.7.84.58,1,1.16,1.39,1.12s.72-1.11,1.07-1.07.46.89.49,1c.3,1.89-.83,2.67-.43,4.11.22.81.83,1.47,1.12,1.4s.2-.34.48-1.61.32-1.32.48-1.44a1.58,1.58,0,0,1,2,.37c.49.68-.29,1.36.06,2.68a4.07,4.07,0,0,0,1.17,1.81,16.83,16.83,0,0,0,2.09,1.5c1,.77,1.54,1.17,1.66,1.66.23,1-.73,1.6-.38,2.19.22.36.79.42,1.93.54a2.34,2.34,0,0,0,1.33-.06c.47-.23.71-.74.91-1.6a8,8,0,0,0,.22-4.12C838.85,564.32,838,563.81,838.32,562.78Z"/><path d="M805.65,539.73a1.42,1.42,0,0,0-.81-.11c-.81.24-1.1,1.93-.74,2.14.2.13.47-.36,1.55-.8.67-.28,1-.28,1.07-.48S806.06,539.86,805.65,539.73Z"/><path d="M817.25,545a1.64,1.64,0,0,0,.75-1.5c-.07-.33-.26-.37-1.87-1.49-.59-.42-.76-.55-1-.49-.61.18-.59,1.7-.59,1.77a2.12,2.12,0,0,0,.64,1.82A1.8,1.8,0,0,0,817.25,545Z"/><path d="M818.43,551.82c.68-.58,1-.88,1.07-1.23a1.18,1.18,0,0,0-.7-1.23c-.82-.24-1.93,1.32-2.24,1.76-.65.92-.73,1.47-1,1.45s-.82-1.66-.21-2.3c.32-.34.69-.17,1.23-.59s.84-1,.7-1.18-1,.7-2.84,1.07c-.43.09-.75.11-.91.38s.1,1.19.48,1.65.77.47,1,.91a2,2,0,0,1-.11,1.39,6.86,6.86,0,0,1-1,1.93,8.11,8.11,0,0,0-.58.85,8.47,8.47,0,0,1,2-1.76c.36-.21,1.18-.64,1.18-.64a5.88,5.88,0,0,1,.8-1.5C817.56,552.4,817.62,552.51,818.43,551.82Z"/><path d="M818.7,555.88c-.48-.27-.71-.41-.86-.37-.77.19-1.07,2.87-.37,3.21.16.07.23,0,1.12-.32s1.3-.31,1.44-.59a1.11,1.11,0,0,0-.16-1C819.65,556.44,819.32,556.25,818.7,555.88Z"/><path d="M825.7,564.92c-.54-1-1.2-1.88-1.65-2.89a7,7,0,0,0-1.07-1.55c-.32-.35-.43-.4-.54-.43-.71-.15-1.89,1.08-1.82,2.14.06.81.78.85,1.77,2.14a14,14,0,0,1,1.66,3.53,7.3,7.3,0,0,0,1.33,2.68,2.32,2.32,0,0,0,1.5.91,1.56,1.56,0,0,0,1.44-.59c.27-.46,0-1-.53-2.14C827,567.07,826.35,566.06,825.7,564.92Z"/><path d="M848.54,563.85c.53-.25.28-1.81.16-2.57a6.52,6.52,0,0,0-.64-2,5.77,5.77,0,0,0-.8-1.12c-.61-.68-1-1.1-1.23-1-.55.19.54,2.46-.54,4.66-.33.68-.78,1.17-.59,1.44s1.1-.24,2.3.11C848,563.55,848.24,564,848.54,563.85Z"/><path d="M850.73,564.39a1.65,1.65,0,0,0-1.6-.11,1.63,1.63,0,0,0-.59.43c-.12.12-.91.95-.64,1.55s.9.52,1.55.59,1.15.11,1.5-.22A1.6,1.6,0,0,0,850.73,564.39Z"/><path d="M829.57,567.35c-.29-.43-1.07-.57-1.29-.32s0,.46.2,1.09a2.72,2.72,0,0,0,.49,1c.33.38.86.65,1,.52s-.16-.38-.28-1S829.78,567.67,829.57,567.35Z"/><path d="M415.6,1226.37l-1.84,1.69a1.32,1.32,0,0,0-.13.45c0,.24.06.34,0,.54s-.11.18-.09.28.14.19.27.27a.91.91,0,0,1,.23.15c.06.06.07.09.1.09s.07-.2.17-.43.21-.21.31-.47.05-.27.17-.41a.53.53,0,0,1,.17-.16,1.44,1.44,0,0,1,.42-.14l.18-.06a.86.86,0,0,0,.35-.17.56.56,0,0,0,.11-.28c0-.16,0-.19,0-.35s.07-.17.12-.4,0-.16.06-.38.08-.29,0-.33S416.07,1226.19,415.6,1226.37Z"/><path d="M427.18,1222.85a1.69,1.69,0,0,0-.57-.47.59.59,0,0,0-.33,0c-.14,0-.15.13-.28.18s-.26,0-.59-.06c0,0-.47,0-.52.14s.11.21.08.24-.14-.07-.32-.13a1.69,1.69,0,0,0-.33-.08c-.44-.06-.66-.1-.78,0s-.06.07-.3.3a2.41,2.41,0,0,1-.52.4,3.33,3.33,0,0,1-.47.19c-.5.17-.67.22-.79.39l-.09.21c-.21.47-.31.7-.35.77-.19.33-.3.35-.35.58a.76.76,0,0,0,0,.41c0,.07.05.07.11.16.17.26.14.38.29.57a.52.52,0,0,0,.2.19c.22.11.35,0,.61,0a.86.86,0,0,1,.46.3c.29.26.24.4.45.48s.25,0,.47.11a1.45,1.45,0,0,0,.22.12.94.94,0,0,0,.3.07s.3,0,.76.11a2.24,2.24,0,0,1,.59.15,1.85,1.85,0,0,0,.24.11.81.81,0,0,0,.42.07c.14,0,.17-.1.41-.31a2.6,2.6,0,0,1,.55-.43c.28-.15.48-.16.5-.29s-.1-.15-.07-.26.15-.1.26-.23a.76.76,0,0,0,.07-.66c-.05-.23-.12-.22-.14-.38s.1-.3.3-.69a2.77,2.77,0,0,0,.31-1,1.24,1.24,0,0,0,0-.44C427.89,1223.34,427.66,1223.37,427.18,1222.85Z"/><path d="M452.73,1237.22a.72.72,0,0,1-.23-.44c0-.15,0-.25,0-.32s-.13,0-.25-.08a.58.58,0,0,1-.33-.37c0-.1,0-.09,0-.37a.58.58,0,0,0-.09-.36.24.24,0,0,0-.19-.1.21.21,0,0,0-.16.11c-.07.14.06.23,0,.38a.31.31,0,0,1-.3.23c-.1,0-.1-.14-.24-.37a3.79,3.79,0,0,0-.51-.63.36.36,0,0,1-.13-.24c0-.08,0-.11.1-.28a1.73,1.73,0,0,0,0-.2.76.76,0,0,0,0-.26.72.72,0,0,0-.25-.33c-.27-.25-.15-.24-.64-.8a1.17,1.17,0,0,1-.24-.35.94.94,0,0,1-.09-.27c-.07-.2-.18-.27-.42-.54s-.51-.63-.59-.59,0,.06-.06.11a.25.25,0,0,1-.18,0c-.14,0-.24.15-.35.27-.4.47-.57.39-.77.75a.86.86,0,0,1-.23.35c-.09.08-.18.1-.25.21s0,.13-.09.17-.15,0-.28.07a.33.33,0,0,0-.13.09,3.62,3.62,0,0,1-.53.07,6.35,6.35,0,0,1-.8,0c-.67,0-.72,0-.73,0s.07.07.17.16.23.35.39.71a5.25,5.25,0,0,0,.28.56c.41.78.41.66.58,1s.19.55.39.69a.63.63,0,0,1,.23.21c.08.13,0,.21.07.4a1.36,1.36,0,0,0,.39.67c.11.11.16.17.25.2s.25-.07.54-.12.33,0,.68,0l.39-.12c.13,0,.16,0,.19-.08s.05-.27,0-.41-.1-.3-.12-.35-.07-.18,0-.24a.19.19,0,0,1,.13-.07.33.33,0,0,1,.33.17.14.14,0,0,1,.05.13c0,.11-.18.11-.24.24a.42.42,0,0,0,0,.35.51.51,0,0,0,.19.24c.2.13.35,0,.74,0a.82.82,0,0,1,.45.14c.16.11.18.22.34.27s.22,0,.31,0,0,.22.14.35a.49.49,0,0,0,.36.14.91.91,0,0,0,.52-.18c.25-.13.32-.24.46-.22a.59.59,0,0,1,.2.11c.09.07.09.12.14.15s.29,0,.63-.2.33-.22.35-.3a.47.47,0,0,0,0-.23C453.16,1237.4,453,1237.45,452.73,1237.22Z"/><path d="M466.39,1240a2.1,2.1,0,0,0-.51-.11,2.42,2.42,0,0,0-.54.05,1.91,1.91,0,0,1-.93,0,1.13,1.13,0,0,1-.43-.35c-.22-.24-.27-.41-.38-.4s-.26.27-.3.35,0,.14-.08.18-.35,0-.56-.07a5,5,0,0,0-.86-.08c-.54-.07-.57-.18-1.3-.29a4.1,4.1,0,0,0-.64,0c-.35,0-.42,0-.47.07s.1.31,0,.57c0,.06,0,.05-.18.24s-.18.29-.35.49-.23.23-.24.35a.39.39,0,0,0,.13.27.68.68,0,0,0,.57,0,9.94,9.94,0,0,1,1.22,0,11.08,11.08,0,0,1,2.17.07c.31,0,.59.07,1,.15a9.46,9.46,0,0,0,1.37.34,2.87,2.87,0,0,0,1.22-.19,2.93,2.93,0,0,0,.62-.34,4.67,4.67,0,0,0,.54-.48.57.57,0,0,0,.2-.28.48.48,0,0,0-.07-.38C467.36,1239.91,467,1240.14,466.39,1240Z"/><path d="M465.73,1245a5.23,5.23,0,0,0-.61-.58c-.31-.25-.4-.28-.47-.29a3,3,0,0,0-.49,0,2.12,2.12,0,0,1-.5,0c-.23,0-.22-.06-.42-.08a.69.69,0,0,0-.48.09.35.35,0,0,0-.16.19.6.6,0,0,0,.14.49c.2.3.32.26.5.5a2.9,2.9,0,0,1,.26.74l.22.7c.1.34.11.36.15.39s.54.09,1,0a1.17,1.17,0,0,0,.25-.08,2.29,2.29,0,0,0,.35-.23,4.8,4.8,0,0,0,.44-.39.83.83,0,0,0,.27-.42.71.71,0,0,0-.08-.43A1.8,1.8,0,0,0,465.73,1245Z"/><path d="M478.21,1248.06c.25-.15.17-.33.54-.89.1-.15.17-.22.17-.35a.56.56,0,0,0-.14-.36c-.18-.25-.42-.32-.81-.48,0,0-.6-.25-1.17-.57a6,6,0,0,1-.53-.33c-.21-.16-.24-.2-.58-.5a4.52,4.52,0,0,0-.81-.6l-.5-.18-.26-.06a1.59,1.59,0,0,0-.51-.06c-.22,0-.28.13-.54.26a3.58,3.58,0,0,1-.7.21,2.06,2.06,0,0,1-1,.14c-.18-.08-.29-.23-.49-.53-.31-.45-.26-.6-.55-.92a1,1,0,0,0-.53-.36,7,7,0,0,0-.9,0,.94.94,0,0,0-.44.38,2.12,2.12,0,0,0-.18.3,2.3,2.3,0,0,0-.18.37c-.06.19,0,.26.07.76s0,.51.12.68a1.29,1.29,0,0,0,.35.4,3.07,3.07,0,0,0,.67.42c.63.34.95.51,1.16.48s.45-.27.7-.19.22.15.34.39a4.14,4.14,0,0,1,.4,1.65,2.7,2.7,0,0,0,.13.93.89.89,0,0,0,.22.38c.17.14.33.11,1,.11a3,3,0,0,0,1.12-.07c.17-.06.13-.08.37-.17a4.07,4.07,0,0,1,.95-.24c.59-.11.53-.06.68-.11.47-.17.45-.4.81-.47s.66.11.75,0,0-.14,0-.25A.56.56,0,0,1,478.21,1248.06Z"/><path d="M470.18,1249.56a.49.49,0,0,0-.63-.21c-.17.06-.22.16-.38.3a3.14,3.14,0,0,1-.44.29c-.27.14-.42.14-.49.29a.63.63,0,0,0,0,.2c0,.22,0,.33,0,.39s.22.06.51,0l.37-.09a2.44,2.44,0,0,1,.64-.06c.25,0,.34.06.43,0s.09-.13.12-.26a1.42,1.42,0,0,0,0-.59A.71.71,0,0,0,470.18,1249.56Z"/><path d="M496.43,1266.69c-.2-.19-.37-.18-.64-.33a2.08,2.08,0,0,1-.46-.36,3.68,3.68,0,0,1-.79-1,8.6,8.6,0,0,1-.36-1c-.11-.32-.15-.48-.3-.55s-.3.07-.65,0a.86.86,0,0,1-.56-.19c-.14-.14-.14-.37-.14-.82s0-.48,0-.8a1.41,1.41,0,0,0-.15-.61c-.12-.21-.25-.25-.56-.48a6.83,6.83,0,0,1-.84-.77,3.53,3.53,0,0,0-.66-.6,3.19,3.19,0,0,0-.53-.24c-.71-.27-.73-.45-1.57-.85s-.71-.2-1.17-.48-.62-.48-1-.46c-.12,0-.24,0-.5,0l-.47,0-.33-.07c-.36-.09-.64-.48-1-.82a9.15,9.15,0,0,0-1.36-.94,3.85,3.85,0,0,0-.66-.35l-.44-.17c-.25-.1-.27-.13-.34-.12s-.16.1-.47.41-.25.22-.28.3,0,.27,0,.58,0,.47,0,.81a2.34,2.34,0,0,0,.18.59,2.11,2.11,0,0,0,.56.92c.17.14.21.1.3.22a.9.9,0,0,1,0,1,1.17,1.17,0,0,1-.33.3,3.92,3.92,0,0,0-.77,1c-.32.41-.35.26-1.38,1.17-.72.64-.82.82-.84,1s.08.39,0,.87a1.14,1.14,0,0,0,0,.4,1.23,1.23,0,0,0,.21.41c.44.67.38.76.62.94s.23.13.29.25,0,.3,0,.53a1.92,1.92,0,0,0,.23.54,9,9,0,0,1,.3.89c.19.48.27.53.42,1a5.43,5.43,0,0,1,.15.57,7.43,7.43,0,0,1,0,1.34,3.16,3.16,0,0,1,0,.55c-.05.22-.09.3-.14.48a3.28,3.28,0,0,0-.06.72c0,1-.2,1.13-.06,1.53a1.66,1.66,0,0,0,.33.53,3.07,3.07,0,0,0,1.26.83c.31.13.33.11.68.26s.71.32.82.53a1.64,1.64,0,0,0,.24.39c.11.11.17.18.25.18s.2-.32.52-.48c.11-.06.12,0,.27-.1a1.49,1.49,0,0,0,.38-.29,2.94,2.94,0,0,0,.22-.36l.34-.5a2.54,2.54,0,0,0,.27-.43,3.28,3.28,0,0,0,.08-.41,1.35,1.35,0,0,1,.62-.83c.2-.11.22,0,.49-.14a4.1,4.1,0,0,0,.61-.46,2.61,2.61,0,0,1,.52-.37c.26-.12.33-.06.53-.18s.16-.16.42-.38a3.13,3.13,0,0,1,.51-.35,1.84,1.84,0,0,1,.5-.24c.31-.05.39.12.79.1a2.89,2.89,0,0,0,.41-.07l.61-.1c.37-.08.34-.23.88-.49.21-.11.17-.06.77-.32a5.75,5.75,0,0,0,.54-.25,6.7,6.7,0,0,0,.54-.45l.45-.42c.77-.72,1.25-.68,1.64-1.31a1.07,1.07,0,0,0,.18-.87A.79.79,0,0,0,496.43,1266.69Z"/></g></g></svg>